<svg id="nksvg" style="width: 100%; height: 100%" width="1490" height="838" viewBox="0 0 1490 838" fill="none" xmlns="http://www.w3.org/2000/svg" class="css-0">
  <g clip-path="url(#nk-700)">
    <path style="fill: var(--color-illustrationBackground020)" d="M0 0H1490V838H0V0Z"></path>
    <g>
      <path style="fill: var(--color-illustrationInterface060)" d="M409 131C409 124.373 414.373 119 421 119H769.247C775.875 119 781.247 124.373 781.247 131V445.407C781.247 452.034 775.875 457.407 769.247 457.407H421C414.373 457.407 409 452.034 409 445.407V131Z"></path>
      <path style="fill: var(--color-illustrationInterface020)" d="M419 121C419 114.373 424.373 109 431 109H779.247C785.875 109 791.247 114.373 791.247 121V435.407C791.247 442.034 785.875 447.407 779.247 447.407H431C424.373 447.407 419 442.034 419 435.407V121Z"></path>
      <path style="fill: var(--color-illustrationPalette040)" d="M459.999 153.904C459.999 151.388 462.039 149.349 464.554 149.349H515.315C517.831 149.349 519.871 151.388 519.871 153.904V153.904C519.871 156.42 517.831 158.46 515.315 158.46H464.554C462.039 158.46 459.999 156.42 459.999 153.904V153.904Z"></path>
      <path style="fill: var(--color-illustrationInterface060)" d="M459.999 179.284C459.999 174.971 463.495 171.475 467.808 171.475H741.788C746.101 171.475 749.597 174.971 749.597 179.284V212.474C749.597 216.787 746.101 220.284 741.788 220.284H467.808C463.495 220.284 459.999 216.787 459.999 212.474V179.284Z"></path>
      <path style="fill: var(--color-illustrationInterface010)" d="M477.57 195.879C477.57 194.621 478.59 193.602 479.848 193.602H574.211C575.469 193.602 576.489 194.621 576.489 195.879V195.879C576.489 197.137 575.469 198.157 574.211 198.157H479.848C478.59 198.157 477.57 197.137 477.57 195.879V195.879Z"></path>
      <path style="fill: var(--color-illustrationInterface010)" d="M590.806 195.879C590.806 194.621 591.826 193.602 593.084 193.602H721.288C722.546 193.602 723.566 194.621 723.566 195.879V195.879C723.566 197.137 722.546 198.157 721.288 198.157H593.084C591.826 198.157 590.806 197.137 590.806 195.879V195.879Z"></path>
      <path style="fill: var(--color-illustrationPalette040)" d="M461.301 332.218C461.301 329.702 463.34 327.663 465.856 327.663H516.617C519.133 327.663 521.173 329.702 521.173 332.218V332.218C521.173 334.734 519.133 336.774 516.617 336.774H465.856C463.34 336.774 461.301 334.734 461.301 332.218V332.218Z"></path>
      <path style="fill: var(--color-illustrationInterface060)" d="M461.301 357.599C461.301 353.286 464.797 349.79 469.11 349.79H656.535C660.848 349.79 664.345 353.286 664.345 357.599V390.789C664.345 395.102 660.848 398.598 656.535 398.598H469.11C464.797 398.598 461.301 395.102 461.301 390.789V357.599Z"></path>
      <path style="fill: var(--color-illustrationInterface010)" d="M478.872 374.194C478.872 372.936 479.892 371.916 481.15 371.916H575.513C576.771 371.916 577.791 372.936 577.791 374.194V374.194C577.791 375.452 576.771 376.471 575.513 376.471H481.15C479.892 376.471 478.872 375.452 478.872 374.194V374.194Z"></path>
      <path style="fill: var(--color-illustrationPalette040)" d="M461.301 243.061C461.301 240.545 463.34 238.506 465.856 238.506H599.917C602.433 238.506 604.473 240.545 604.473 243.061V243.061C604.473 245.577 602.433 247.617 599.917 247.617H465.856C463.34 247.617 461.301 245.577 461.301 243.061V243.061Z"></path>
      <path style="fill: var(--color-illustrationInterface060)" d="M461.301 268.442C461.301 264.129 464.797 260.632 469.11 260.632H656.535C660.848 260.632 664.345 264.129 664.345 268.442V301.632C664.345 305.945 660.848 309.441 656.535 309.441H469.11C464.797 309.441 461.301 305.945 461.301 301.632V268.442Z"></path>
      <path style="fill: var(--color-illustrationInterface010)" d="M478.872 285.037C478.872 283.779 479.892 282.759 481.15 282.759H557.942C559.2 282.759 560.22 283.779 560.22 285.037V285.037C560.22 286.295 559.2 287.315 557.942 287.315H481.15C479.892 287.315 478.872 286.295 478.872 285.037V285.037Z"></path>
      <path style="fill: var(--color-illustrationInterface010)" fill-rule="evenodd" clip-rule="evenodd" d="M641.278 286.165L646.076 281.366C646.606 280.837 647.464 280.837 647.993 281.366C648.523 281.896 648.523 282.754 647.993 283.284L642.241 289.036C641.97 289.308 641.611 289.44 641.255 289.433C640.914 289.429 640.574 289.296 640.314 289.036L634.562 283.284C634.032 282.754 634.032 281.896 634.562 281.366C635.091 280.837 635.95 280.837 636.479 281.366L641.278 286.165Z"></path>
      <path style="fill: var(--color-illustrationInterface060)" d="M698 300C698 293.373 703.373 288 710 288H1058.25C1064.87 288 1070.25 293.373 1070.25 300V614.407C1070.25 621.034 1064.87 626.407 1058.25 626.407H710C703.373 626.407 698 621.034 698 614.407V300Z"></path>
      <path style="fill: var(--color-illustrationInterface030)" d="M708 290C708 283.373 713.373 278 720 278H1068.25C1074.87 278 1080.25 283.373 1080.25 290V604.407C1080.25 611.034 1074.87 616.407 1068.25 616.407H720C713.373 616.407 708 611.034 708 604.407V290Z"></path>
      <g>
        <path style="fill: var(--color-illustrationInterface010)" d="M740.207 362.791C740.207 358.161 743.96 354.408 748.59 354.408H1038.66C1043.29 354.408 1047.04 358.161 1047.04 362.791V542.616C1047.04 547.246 1043.29 551 1038.66 551H748.59C743.96 551 740.207 547.246 740.207 542.616V362.791Z"></path>
        <path style="fill: var(--color-illustrationBackground020)" d="M740.207 440.338H1047.46V477.226H740.207V440.338Z"></path>
        <path style="fill: var(--color-illustrationInterface060)" d="M740 332.694C740 330.102 742.102 328 744.694 328H882.837C885.43 328 887.531 330.102 887.531 332.694V332.694C887.531 335.287 885.43 337.388 882.837 337.388H744.694C742.102 337.388 740 335.287 740 332.694V332.694Z"></path>
        <path style="fill: var(--color-illustrationInterface060)" d="M740.207 358.263C740.207 353.819 743.81 350.216 748.254 350.216H1039.41C1043.86 350.216 1047.46 353.819 1047.46 358.263V402.612H740.207V358.263Z"></path>
        <path style="fill: var(--color-illustrationInterface010)" d="M762.674 376.053C762.674 374.748 763.732 373.69 765.037 373.69H933.617C934.922 373.69 935.98 374.748 935.98 376.053V376.053C935.98 377.358 934.922 378.416 933.617 378.416H765.037C763.732 378.416 762.674 377.358 762.674 376.053V376.053Z"></path>
        <path style="fill: var(--color-illustrationInterface060)" d="M758.651 422.524C758.651 421.25 759.683 420.218 760.956 420.218H854.432C855.705 420.218 856.737 421.25 856.737 422.524V422.524C856.737 423.797 855.705 424.829 854.432 424.829H760.956C759.683 424.829 758.651 423.797 758.651 422.524V422.524Z"></path>
        <path style="fill: var(--color-illustrationInterface060)" d="M758.651 458.572C758.651 457.299 759.683 456.267 760.956 456.267H854.432C855.705 456.267 856.737 457.299 856.737 458.572V458.572C856.737 459.845 855.705 460.878 854.432 460.878H760.956C759.683 460.878 758.651 459.845 758.651 458.572V458.572Z"></path>
        <path style="fill: var(--color-illustrationInterface060)" d="M758.651 495.879C758.651 494.606 759.683 493.574 760.956 493.574H854.432C855.705 493.574 856.737 494.606 856.737 495.879V495.879C856.737 497.152 855.705 498.185 854.432 498.185H760.956C759.683 498.185 758.651 497.152 758.651 495.879V495.879Z"></path>
        <path style="fill: var(--color-illustrationInterface060)" d="M758.651 532.766C758.651 531.493 759.683 530.46 760.956 530.46H854.432C855.705 530.46 856.737 531.493 856.737 532.766V532.766C856.737 534.039 855.705 535.071 854.432 535.071H760.956C759.683 535.071 758.651 534.039 758.651 532.766V532.766Z"></path>
        <path style="fill: var(--color-illustrationInterface010)" fill-rule="evenodd" clip-rule="evenodd" d="M1020.07 382.311C1019.41 382.514 1018.66 382.354 1018.14 381.83L1009.95 373.637C1009.19 372.883 1009.19 371.66 1009.95 370.906C1010.7 370.152 1011.92 370.152 1012.68 370.906L1019.51 377.738L1026.34 370.902C1027.1 370.148 1028.32 370.148 1029.08 370.902C1029.83 371.656 1029.83 372.879 1029.08 373.633L1020.88 381.826C1020.65 382.06 1020.37 382.222 1020.07 382.311Z"></path>
        <path style="fill: var(--color-illustrationInterface060)" fill-rule="evenodd" clip-rule="evenodd" d="M1025.67 452.781C1026.05 452.399 1026.67 452.399 1027.05 452.781C1027.44 453.163 1027.44 453.782 1027.05 454.164L1016.29 464.923C1015.91 465.305 1015.29 465.305 1014.91 464.923L1010.02 460.033C1009.64 459.651 1009.64 459.031 1010.02 458.65C1010.4 458.268 1011.02 458.268 1011.4 458.65L1015.6 462.848L1025.67 452.781Z"></path>
      </g>
      <path style="fill: var(--color-illustrationInterface070)" d="M946.742 672.707C946.742 660.127 956.895 649.93 969.42 649.93H1052.27C1064.79 649.93 1074.95 660.127 1074.95 672.707C1074.95 685.287 1064.79 695.484 1052.27 695.484H969.42C956.895 695.484 946.742 685.287 946.742 672.707Z"></path>
      <path style="fill: var(--color-illustrationInterface060)" d="M950.742 668.707C950.742 656.127 960.895 645.93 973.42 645.93H1056.27C1068.79 645.93 1078.95 656.127 1078.95 668.707C1078.95 681.287 1068.79 691.484 1056.27 691.484H973.42C960.895 691.484 950.742 681.287 950.742 668.707Z"></path>
      <path style="fill: var(--color-illustrationInterface070)" d="M456.09 534.045C456.09 547.324 445.324 558.09 432.045 558.09C418.765 558.09 408 547.324 408 534.045C408 520.765 418.765 510 432.045 510C445.324 510 456.09 520.765 456.09 534.045Z"></path>
      <path style="fill: var(--color-illustrationInterface060)" d="M457.09 533.045C457.09 546.324 446.324 557.09 433.045 557.09C419.765 557.09 409 546.324 409 533.045C409 519.765 419.765 509 433.045 509C446.324 509 457.09 519.765 457.09 533.045Z"></path>
      <path style="fill: var(--color-illustrationInterface070)" d="M556.09 534.045C556.09 547.324 545.324 558.09 532.045 558.09C518.765 558.09 508 547.324 508 534.045C508 520.765 518.765 510 532.045 510C545.324 510 556.09 520.765 556.09 534.045Z"></path>
      <path style="fill: var(--color-illustrationInterface070)" d="M656.09 534.045C656.09 547.324 645.324 558.09 632.045 558.09C618.765 558.09 608 547.324 608 534.045C608 520.765 618.765 510 632.045 510C645.324 510 656.09 520.765 656.09 534.045Z"></path>
      <path style="fill: var(--color-illustrationInterface060)" d="M557.09 533.045C557.09 546.324 546.324 557.09 533.045 557.09C519.765 557.09 509 546.324 509 533.045C509 519.765 519.765 509 533.045 509C546.324 509 557.09 519.765 557.09 533.045Z"></path>
      <path style="fill: var(--color-illustrationInterface060)" d="M657.09 533.045C657.09 546.324 646.324 557.09 633.045 557.09C619.765 557.09 609 546.324 609 533.045C609 519.765 619.765 509 633.045 509C646.324 509 657.09 519.765 657.09 533.045Z"></path>
      <path style="fill: var(--color-illustrationInterface060)" d="M469 535H497V532H469V535Z"></path>
      <path style="fill: var(--color-illustrationInterface060)" d="M569 535H597V532H569V535Z"></path>
      <path style="fill: var(--color-illustrationInterface010)" d="M429.9 527.5V525.42H434.06V540H431.76V527.5H429.9Z"></path>
      <path style="fill: var(--color-illustrationInterface010)" d="M529.46 536.9C530.74 535.793 531.747 534.887 532.48 534.18C533.227 533.46 533.847 532.713 534.34 531.94C534.833 531.167 535.08 530.393 535.08 529.62C535.08 528.82 534.887 528.193 534.5 527.74C534.127 527.287 533.533 527.06 532.72 527.06C531.933 527.06 531.32 527.313 530.88 527.82C530.453 528.313 530.227 528.98 530.2 529.82H528C528.04 528.3 528.493 527.14 529.36 526.34C530.24 525.527 531.353 525.12 532.7 525.12C534.153 525.12 535.287 525.52 536.1 526.32C536.927 527.12 537.34 528.187 537.34 529.52C537.34 530.48 537.093 531.407 536.6 532.3C536.12 533.18 535.54 533.973 534.86 534.68C534.193 535.373 533.34 536.18 532.3 537.1L531.4 537.9H537.74V539.8H528.02V538.14L529.46 536.9Z"></path>
      <path style="fill: var(--color-illustrationInterface010)" d="M628.16 529.02C628.24 527.78 628.713 526.813 629.58 526.12C630.46 525.427 631.58 525.08 632.94 525.08C633.873 525.08 634.68 525.247 635.36 525.58C636.04 525.913 636.553 526.367 636.9 526.94C637.247 527.513 637.42 528.16 637.42 528.88C637.42 529.707 637.2 530.413 636.76 531C636.32 531.587 635.793 531.98 635.18 532.18V532.26C635.967 532.5 636.58 532.94 637.02 533.58C637.46 534.207 637.68 535.013 637.68 536C637.68 536.787 637.5 537.487 637.14 538.1C636.78 538.713 636.247 539.2 635.54 539.56C634.833 539.907 633.987 540.08 633 540.08C631.56 540.08 630.373 539.713 629.44 538.98C628.52 538.233 628.027 537.167 627.96 535.78H630.16C630.213 536.487 630.487 537.067 630.98 537.52C631.473 537.96 632.14 538.18 632.98 538.18C633.793 538.18 634.42 537.96 634.86 537.52C635.3 537.067 635.52 536.487 635.52 535.78C635.52 534.847 635.22 534.187 634.62 533.8C634.033 533.4 633.127 533.2 631.9 533.2H631.38V531.32H631.92C633 531.307 633.82 531.127 634.38 530.78C634.953 530.433 635.24 529.887 635.24 529.14C635.24 528.5 635.033 527.993 634.62 527.62C634.207 527.233 633.62 527.04 632.86 527.04C632.113 527.04 631.533 527.233 631.12 527.62C630.707 527.993 630.46 528.46 630.38 529.02H628.16Z"></path>
    </g>
    <path style="fill: var(--color-illustrationDisabled)" fill-rule="evenodd" clip-rule="evenodd" d="M676.547 664.561C675.577 664.587 674.603 664.639 673.625 664.718C672.647 664.798 671.678 664.903 670.717 665.034C669.633 665.181 668.875 666.179 669.022 667.262C669.17 668.345 670.167 669.104 671.25 668.956C672.14 668.835 673.039 668.738 673.946 668.664C674.852 668.59 675.755 668.542 676.653 668.518C677.746 668.489 678.608 667.579 678.578 666.486C678.549 665.394 677.64 664.532 676.547 664.561ZM695.411 669.552C694.997 670.564 695.482 671.72 696.494 672.133C698.171 672.819 699.803 673.594 701.385 674.455C702.345 674.978 703.547 674.623 704.07 673.663C704.592 672.703 704.238 671.501 703.278 670.978C701.568 670.048 699.804 669.21 697.992 668.469C696.98 668.055 695.825 668.54 695.411 669.552ZM652.904 673.002C652.333 672.07 651.114 671.778 650.182 672.349C648.513 673.372 646.907 674.484 645.371 675.678C644.507 676.348 644.351 677.592 645.022 678.455C645.692 679.318 646.935 679.475 647.799 678.804C649.221 677.7 650.707 676.67 652.251 675.724C653.183 675.152 653.476 673.934 652.904 673.002ZM717.111 684.74C716.248 685.411 716.092 686.654 716.763 687.517C717.869 688.939 718.898 690.424 719.846 691.968C720.418 692.9 721.636 693.191 722.568 692.62C723.5 692.048 723.791 690.829 723.219 689.897C722.195 688.229 721.083 686.624 719.888 685.087C719.217 684.224 717.974 684.069 717.111 684.74ZM633.938 691.49C632.978 690.967 631.776 691.321 631.253 692.281C630.321 693.989 629.482 695.753 628.74 697.565C628.326 698.577 628.811 699.732 629.822 700.146C630.834 700.561 631.99 700.076 632.404 699.064C633.09 697.388 633.867 695.756 634.728 694.175C635.252 693.215 634.897 692.013 633.938 691.49ZM626.752 716.978C625.659 717.007 624.797 717.917 624.826 719.009C624.852 719.979 624.904 720.953 624.984 721.931C625.063 722.909 625.169 723.879 625.299 724.84C625.447 725.923 626.444 726.682 627.527 726.534C628.611 726.387 629.369 725.389 629.222 724.306C629.101 723.416 629.003 722.518 628.929 721.611C628.856 720.704 628.807 719.802 628.783 718.904C628.754 717.811 627.845 716.949 626.752 716.978ZM728.312 708.736C727.229 708.883 726.471 709.881 726.618 710.964C726.739 711.854 726.837 712.753 726.91 713.659C726.984 714.566 727.033 715.468 727.056 716.366C727.086 717.459 727.995 718.321 729.088 718.292C730.181 718.263 731.043 717.354 731.014 716.261C730.988 715.291 730.935 714.317 730.856 713.339C730.777 712.361 730.671 711.391 730.54 710.43C730.393 709.347 729.395 708.588 728.312 708.736ZM726.017 735.124C725.006 734.71 723.85 735.194 723.436 736.206C722.75 737.882 721.973 739.514 721.111 741.096C720.588 742.055 720.942 743.258 721.902 743.781C722.862 744.304 724.064 743.95 724.587 742.99C725.518 741.281 726.358 739.517 727.099 737.705C727.513 736.694 727.029 735.538 726.017 735.124ZM633.272 742.651C632.34 743.223 632.048 744.441 632.62 745.373C633.644 747.041 634.757 748.647 635.952 750.183C636.623 751.046 637.866 751.202 638.729 750.531C639.592 749.86 639.748 748.616 639.077 747.753C637.971 746.331 636.941 744.846 635.994 743.302C635.422 742.371 634.203 742.079 633.272 742.651ZM710.818 756.815C710.148 755.952 708.904 755.795 708.041 756.466C706.619 757.571 705.132 758.6 703.588 759.547C702.656 760.118 702.364 761.337 702.936 762.268C703.507 763.2 704.726 763.493 705.658 762.921C707.326 761.898 708.932 760.786 710.469 759.592C711.332 758.922 711.489 757.678 710.818 756.815ZM651.77 761.607C651.247 762.567 651.602 763.769 652.562 764.292C654.271 765.222 656.035 766.06 657.848 766.801C658.859 767.215 660.015 766.73 660.429 765.718C660.842 764.706 660.357 763.551 659.345 763.137C657.669 762.452 656.036 761.676 654.454 760.815C653.494 760.292 652.292 760.647 651.77 761.607ZM686.818 768.008C686.67 766.925 685.673 766.167 684.59 766.314C683.699 766.435 682.801 766.533 681.894 766.606C680.988 766.68 680.085 766.728 679.187 766.752C678.094 766.782 677.232 767.691 677.261 768.784C677.291 769.877 678.2 770.739 679.293 770.709C680.262 770.684 681.236 770.631 682.214 770.552C683.192 770.472 684.162 770.367 685.123 770.236C686.206 770.089 686.965 769.091 686.818 768.008Z"></path>
    <path style="fill: var(--color-illustrationDisabled)" fill-rule="evenodd" clip-rule="evenodd" d="M468.227 740.311C468.28 741.403 469.208 742.245 470.3 742.193C471.956 742.113 473.666 742.099 475.429 742.154C476.522 742.189 477.435 741.331 477.47 740.238C477.504 739.146 476.646 738.232 475.554 738.198C473.689 738.139 471.875 738.153 470.109 738.239C469.017 738.291 468.175 739.219 468.227 740.311ZM452.806 743.913C452.342 742.923 451.163 742.497 450.173 742.961C448.481 743.754 446.862 744.638 445.314 745.605C444.388 746.185 444.106 747.406 444.686 748.333C445.265 749.26 446.486 749.541 447.413 748.962C448.827 748.078 450.306 747.27 451.854 746.545C452.843 746.081 453.27 744.902 452.806 743.913ZM493.162 742.658C492.89 743.716 493.527 744.795 494.586 745.068C496.224 745.489 497.896 745.958 499.603 746.476C500.649 746.793 501.754 746.203 502.071 745.157C502.389 744.111 501.798 743.006 500.752 742.688C498.993 742.154 497.267 741.67 495.572 741.234C494.513 740.962 493.434 741.599 493.162 742.658ZM516.942 750.78C516.498 751.779 516.949 752.949 517.948 753.392C518.758 753.752 519.575 754.122 520.398 754.5C521.222 754.879 522.043 755.253 522.862 755.622C523.859 756.071 525.031 755.627 525.48 754.63C525.929 753.634 525.485 752.462 524.488 752.013C523.678 751.648 522.867 751.278 522.053 750.904C521.214 750.518 520.381 750.142 519.554 749.774C518.555 749.331 517.385 749.781 516.942 750.78ZM433.392 759.44C432.488 758.824 431.257 759.058 430.642 759.961C429.621 761.459 428.664 763.014 427.767 764.619C427.234 765.574 427.576 766.779 428.53 767.313C429.484 767.846 430.69 767.504 431.223 766.55C432.066 765.041 432.962 763.586 433.913 762.19C434.529 761.286 434.295 760.055 433.392 759.44ZM540.323 760.785C539.936 761.807 540.451 762.95 541.473 763.337C543.163 763.977 544.842 764.596 546.51 765.196C547.539 765.565 548.672 765.031 549.042 764.002C549.412 762.974 548.877 761.84 547.849 761.47C546.202 760.878 544.544 760.267 542.875 759.635C541.853 759.248 540.71 759.762 540.323 760.785ZM564.34 768.938C564.039 769.989 564.648 771.084 565.699 771.385C567.445 771.883 569.177 772.36 570.892 772.816C571.949 773.096 573.033 772.467 573.313 771.411C573.594 770.354 572.965 769.27 571.908 768.99C570.216 768.54 568.509 768.07 566.786 767.578C565.735 767.278 564.64 767.887 564.34 768.938ZM422.748 782.113C421.691 781.833 420.608 782.463 420.327 783.519C419.87 785.246 419.454 786.998 419.078 788.77C418.851 789.84 419.534 790.89 420.604 791.117C421.673 791.344 422.724 790.661 422.95 789.592C423.313 787.881 423.714 786.193 424.154 784.533C424.434 783.477 423.804 782.393 422.748 782.113ZM588.999 774.972C588.798 776.046 589.505 777.081 590.579 777.283C592.368 777.619 594.135 777.932 595.88 778.222C596.958 778.401 597.978 777.673 598.157 776.594C598.337 775.516 597.608 774.496 596.53 774.317C594.812 774.031 593.072 773.723 591.31 773.392C590.236 773.191 589.201 773.898 588.999 774.972ZM614.107 778.582C614.019 779.672 614.831 780.626 615.92 780.715C617.749 780.863 619.544 780.986 621.304 781.086C622.395 781.147 623.33 780.313 623.392 779.221C623.453 778.13 622.619 777.195 621.527 777.133C619.8 777.036 618.037 776.915 616.24 776.769C615.151 776.681 614.196 777.492 614.107 778.582ZM670.926 774.224C670.578 773.188 669.456 772.63 668.419 772.979C667.671 773.23 666.857 773.481 665.981 773.727C664.929 774.023 664.316 775.116 664.611 776.169C664.907 777.221 666 777.834 667.053 777.538C667.987 777.275 668.864 777.005 669.681 776.731C670.717 776.382 671.275 775.26 670.926 774.224ZM639.459 779.331C639.511 780.423 640.439 781.266 641.531 781.213C643.398 781.124 645.201 781.006 646.937 780.865C648.026 780.776 648.837 779.82 648.748 778.731C648.66 777.641 647.704 776.83 646.615 776.919C644.924 777.057 643.165 777.172 641.341 777.259C640.249 777.312 639.406 778.239 639.459 779.331ZM418.561 806.883C417.47 806.818 416.533 807.65 416.469 808.742C416.363 810.524 416.288 812.312 416.242 814.101C416.213 815.193 417.076 816.102 418.169 816.131C419.262 816.159 420.17 815.296 420.199 814.204C420.244 812.457 420.318 810.713 420.42 808.975C420.485 807.884 419.653 806.947 418.561 806.883ZM418.656 832.034C417.567 832.126 416.758 833.083 416.85 834.172C416.925 835.061 417.005 835.947 417.092 836.829C417.199 837.917 418.167 838.712 419.255 838.606C420.343 838.499 421.138 837.531 421.032 836.443C420.947 835.579 420.868 834.711 420.794 833.84C420.703 832.751 419.745 831.942 418.656 832.034Z"></path>
    <path style="fill: var(--color-illustrationDisabled)" fill-rule="evenodd" clip-rule="evenodd" d="M923.775 730.094C923.165 729.187 921.935 728.946 921.028 729.556C920.329 730.026 919.63 730.492 918.931 730.954C918.019 731.557 917.768 732.785 918.371 733.697C918.974 734.609 920.201 734.86 921.113 734.257C921.822 733.789 922.53 733.317 923.237 732.841C924.145 732.231 924.385 731.001 923.775 730.094ZM905.693 741.528C905.147 740.581 903.937 740.255 902.99 740.801C901.533 741.64 900.076 742.463 898.619 743.27C897.663 743.799 897.317 745.004 897.847 745.96C898.376 746.916 899.581 747.262 900.537 746.732C902.013 745.915 903.489 745.081 904.966 744.231C905.913 743.686 906.238 742.475 905.693 741.528ZM884.579 752.773C884.111 751.785 882.93 751.364 881.942 751.833C880.435 752.547 878.93 753.245 877.426 753.928C876.43 754.379 875.99 755.552 876.441 756.548C876.893 757.543 878.066 757.984 879.061 757.533C880.585 756.841 882.111 756.134 883.638 755.409C884.626 754.941 885.047 753.761 884.579 752.773ZM862.668 762.273C862.281 761.251 861.138 760.736 860.116 761.123C858.543 761.718 856.973 762.297 855.406 762.859C854.378 763.229 853.843 764.362 854.212 765.391C854.582 766.42 855.715 766.954 856.744 766.585C858.332 766.015 859.923 765.428 861.517 764.825C862.539 764.438 863.055 763.295 862.668 762.273ZM840.02 769.975C839.718 768.925 838.621 768.318 837.571 768.62C835.962 769.083 834.359 769.53 832.761 769.96C831.705 770.244 831.08 771.33 831.364 772.385C831.648 773.441 832.734 774.066 833.79 773.782C835.409 773.346 837.035 772.894 838.665 772.425C839.716 772.122 840.322 771.026 840.02 769.975ZM816.835 775.796C816.62 774.724 815.577 774.03 814.505 774.245C812.867 774.574 811.236 774.887 809.614 775.183C808.539 775.38 807.827 776.411 808.023 777.487C808.22 778.562 809.251 779.274 810.326 779.077C811.971 778.777 813.624 778.46 815.284 778.126C816.356 777.911 817.05 776.868 816.835 775.796ZM793.252 779.694C793.125 778.608 792.143 777.83 791.057 777.957C789.395 778.15 787.744 778.327 786.105 778.488C785.017 778.595 784.222 779.564 784.329 780.652C784.437 781.74 785.405 782.535 786.493 782.428C788.155 782.264 789.829 782.084 791.514 781.889C792.6 781.763 793.378 780.78 793.252 779.694ZM692.246 772.165C691.894 773.2 692.448 774.324 693.483 774.676C694.258 774.939 695.059 775.201 695.884 775.46C696.927 775.788 698.038 775.208 698.366 774.166C698.693 773.123 698.114 772.012 697.071 771.684C696.274 771.433 695.502 771.181 694.757 770.928C693.722 770.576 692.597 771.13 692.246 772.165ZM769.425 781.624C769.39 780.531 768.476 779.673 767.384 779.708C765.702 779.761 764.037 779.799 762.39 779.821C761.297 779.836 760.423 780.734 760.437 781.827C760.452 782.92 761.35 783.794 762.443 783.779C764.115 783.756 765.803 783.719 767.509 783.665C768.602 783.63 769.459 782.716 769.425 781.624ZM712.882 777.667C712.683 778.742 713.394 779.774 714.469 779.973C716.093 780.273 717.762 780.56 719.475 780.832C720.554 781.004 721.569 780.268 721.74 779.189C721.912 778.109 721.176 777.095 720.097 776.923C718.416 776.655 716.779 776.374 715.187 776.08C714.112 775.882 713.08 776.592 712.882 777.667ZM745.535 781.511C745.597 780.42 744.763 779.485 743.671 779.423C741.986 779.327 740.326 779.216 738.692 779.09C737.602 779.007 736.651 779.822 736.567 780.912C736.484 782.002 737.3 782.954 738.389 783.037C740.049 783.165 741.735 783.277 743.446 783.375C744.538 783.437 745.473 782.603 745.535 781.511Z"></path>
    <path style="fill: var(--color-illustrationDisabled)" fill-rule="evenodd" clip-rule="evenodd" d="M936.766 720.752C936.861 719.664 936.056 718.703 934.967 718.608L918.231 717.143C917.142 717.047 916.182 717.853 916.086 718.942C915.991 720.031 916.796 720.991 917.885 721.086L932.65 722.379L931.421 736.41C931.326 737.498 932.131 738.459 933.22 738.554C934.309 738.649 935.269 737.844 935.365 736.755L936.766 720.752Z"></path>
  </g>
  <defs>
    
    
    <clipPath id="nk-700">
      <rect style="fill: var(--color-white)" width="1490" height="838"></rect>
    </clipPath>
  </defs>
</svg>
