<svg id="guides-design-overview-design-made-easy" style="width: 100%; height: 100%" width="1345" height="759" viewBox="0 0 1345 759" fill="none" xmlns="http://www.w3.org/2000/svg" class="css-0"><g clip-path="url(#nk-77)"><rect style="fill:var(--color-illustrationPalette050)" width="1345" height="759"></rect><path style="fill:var(--color-illustrationPalette040)" fill-rule="evenodd" clip-rule="evenodd" d="M-67.1103 808.225C-239.871 425.934 -102.112 217.495 -99.2914 212.175C-16.879 56.7154 140.626 -95.7128 322.015 -174.435C503.404 -253.157 763.289 -198.463 881.134 -72.8596C998.979 52.7438 974.377 152.875 1094.03 410.707C1213.68 668.54 1427.3 733.333 1345.39 897.461C1263.47 1061.59 795.305 1172.41 608.341 1236.99C426.051 1299.96 105.651 1190.52 -67.1103 808.225Z"></path><path style="fill:var(--color-illustrationPalette030)" fill-rule="evenodd" clip-rule="evenodd" d="M-776.099 -259.041C-1127.36 55.4604 -1081.17 332.039 -1080.7 338.784C-1067.08 535.85 -1010.95 949.897 -786.947 1126.21C-562.943 1302.52 -121.295 1449.92 -36.6616 1065.04C-114.877 603.479 328.232 482.056 388.18 212.28C448.127 -57.4972 339.86 -249.774 111.53 -393.524C-116.8 -537.274 -424.834 -573.543 -776.099 -259.041Z"></path><path style="fill:var(--color-illustrationPalette070)" fill-rule="evenodd" clip-rule="evenodd" d="M849.056 247.735C878.054 241.418 906.88 259.661 913.114 288.276L913.304 290.414L913.624 290.617L924.448 340.302C925.922 347.065 925.964 353.596 924.895 360.096L885.235 560.833C881.407 581.286 865.523 598.37 843.643 603.137L606.384 654.825C577.386 661.143 548.56 642.899 542.326 614.285L485.654 354.153C482.537 339.846 485.503 325.576 493.217 314.086L618.613 121.346C624.563 112.2 636.745 109.511 645.992 115.302L663.227 126.095C671.875 131.568 678.51 140.476 680.834 151.142L681.856 159.638L682.626 271.649C682.67 278.001 688.548 282.703 694.755 281.351L849.056 247.735ZM415.029 696.513C404.237 698.864 393.582 692.021 391.231 681.229L331.739 408.153C329.388 397.361 336.231 386.706 347.024 384.354L413.389 369.896C424.181 367.545 434.836 374.388 437.187 385.181L496.679 658.256C499.03 669.049 492.187 679.704 481.394 682.055L415.029 696.513Z"></path><path style="fill:var(--color-illustrationPalette070)" d="M346.5 342.5L332.5 396.5L369.5 440L431.5 383L346.5 342.5Z"></path><path style="fill:var(--color-illustrationPalette070)" d="M501.5 271L486 331L498 350L519 326.5L522.5 291L501.5 271Z"></path><path style="fill:var(--color-illustrationPalette070)" d="M496.5 667.5L511 611L479 619.5L484.5 647.5L496.5 667.5Z"></path><path style="fill:var(--color-illustrationPalette010)" fill-rule="evenodd" clip-rule="evenodd" d="M863.056 193.734C892.054 187.417 920.88 205.66 927.114 234.274L927.304 236.413L927.624 236.616L938.448 286.301C939.922 293.064 939.964 299.595 938.895 306.095L899.235 506.832C895.407 527.284 879.523 544.369 857.643 549.136L620.384 600.824C591.386 607.141 562.56 588.898 556.326 560.284L499.654 300.152C496.537 285.844 499.503 271.574 507.217 260.085L632.613 67.3443C638.563 58.1987 650.745 55.5097 659.992 61.3007L677.227 72.0937C685.875 77.5666 692.51 86.4753 694.834 97.1407L695.856 105.637L696.626 217.648C696.67 224 702.548 228.702 708.755 227.35L863.056 193.734ZM429.029 642.512C418.237 644.863 407.582 638.02 405.231 627.227L345.739 354.152C343.388 343.36 350.231 332.705 361.024 330.353L427.389 315.895C438.181 313.544 448.836 320.387 451.187 331.18L510.679 604.255C513.03 615.047 506.187 625.702 495.394 628.054L429.029 642.512Z"></path><path style="fill:var(--color-illustrationPalette020)" d="M361.5 346.5C359.9 341.3 361.5 336 370 328C345 330.5 343.833 347.667 345 354.5L406.5 631C411.7 643 423.667 643.667 429 642.5L489.5 629.5C498.7 627.5 502.333 625.333 503 624.5C513.4 619.7 514 607 505 578.5C505 599 492 601 489.5 601.5C487.5 601.9 472.833 607.167 454.5 610C432 616.5 426.5 603.833 426 601.5L361.5 346.5Z"></path><path style="fill:var(--color-illustrationPalette020)" d="M525 286C521.8 270 531.667 231.667 537 214.5L508.5 256.5C497.7 271.7 497.333 291.5 498.5 299.5L556 562C567.2 600.8 603.667 604.167 620.5 601L862 549.5C886 543.5 897.333 519.667 900 508.5L917.5 413.5C897.1 474.3 872 492.167 862 493.5L637 539C604.2 548.6 593.333 538.333 592 532L525 286Z"></path><path style="fill:var(--color-illustrationPalette020)" d="M691.5 125C693.5 105.5 693.5 98.9998 693.5 92.4998C695.1 97.2998 696.167 106 696.5 109.5V212C696.1 225.2 703 227.833 706.5 227.5L731.5 222.5C698.5 247 679.667 243.667 678 241C673 236.5 671 227.5 672 220C672.8 214 687.667 151.833 691.5 125Z"></path><ellipse style="fill:var(--color-illustrationShadow010)" cx="704.429" cy="748.885" rx="135.507" ry="12.5053" transform="rotate(-10.8919 704.429 748.885)"></ellipse></g><defs><clipPath id="nk-77"><rect style="fill:var(--color-white)" width="1345" height="759"></rect></clipPath></defs></svg>