<svg id="guides-design-overview-icon-library" style="width: 100%; height: 100%" width="1344" height="759" viewBox="0 0 1344 759" fill="none" xmlns="http://www.w3.org/2000/svg" class="css-0"><rect style="fill:var(--color-illustrationBackground020)" width="1344" height="759"></rect><g opacity="0.6"><path style="fill:var(--color-illustrationPalette020)" fill-rule="evenodd" clip-rule="evenodd" d="M890.938 168.139L924 135.078L921.922 133L889.469 165.453V135.078L886.53 135.078V168.139H885.453C869.217 151.804 846.728 141.69 821.877 141.69H524.326C499.511 141.69 477.051 151.775 460.821 168.069L460.408 167.657V135.078L457.469 135.078V164.718L425.751 133L423.673 135.078L456.735 168.139H420V171.078H457.469V171.621C443.305 187.473 434.694 208.392 434.694 231.323V528.874C434.694 551.804 443.305 572.724 457.469 588.575V592.792H430.286V595.731H457.469V597.452L431.881 623.04L433.959 625.118L457.469 601.608V625.853H460.408V598.67L463.347 595.731H464.625C480.476 609.895 501.396 618.506 524.326 618.506H821.877C844.808 618.506 865.727 609.895 881.579 595.731H884.326L886.53 597.935V625.853H889.469V600.874L913.714 625.118L915.792 623.04L889.469 596.718V595.731H913.714V592.792H889.469V587.743C903.196 571.995 911.51 551.405 911.51 528.874V231.323C911.51 208.791 903.196 188.202 889.469 172.454V171.078H923.999V168.139H890.938ZM821.877 144.629C844.845 144.629 865.726 153.56 881.238 168.139H767.51V144.629H821.877ZM674.204 144.629H764.571V168.139H674.204V144.629ZM583.102 144.629H671.265V168.139H583.102V144.629ZM524.326 144.629H580.163V168.139H464.966C480.478 153.56 501.359 144.629 524.326 144.629ZM460.86 172.265C460.709 172.427 460.558 172.59 460.408 172.754L460.408 290.833H478.961C489.557 268.956 503.736 249.138 520.734 232.139L460.86 172.265ZM460.408 293.772H477.564C469.489 311.108 463.647 329.693 460.408 349.16L460.408 293.772ZM480.812 293.772C468.319 320.146 461.081 349.494 460.453 380.466H539.826C540.91 347.004 554.289 316.649 575.591 293.772H480.812ZM578.919 290.324C578.75 290.493 578.581 290.663 578.412 290.833H482.232C492.614 269.76 506.377 250.652 522.812 234.217L578.919 290.324ZM579.647 293.772C557.728 316.341 543.882 346.792 542.767 380.466H579.53C579.645 377.971 579.857 375.502 580.163 373.062L580.163 293.772H579.647ZM539.763 383.404H460.413C460.41 383.894 460.408 384.384 460.408 384.874C460.408 417.469 467.727 448.354 480.812 475.976H575.591C553.357 452.098 539.755 420.074 539.755 384.874C539.755 384.383 539.758 383.894 539.763 383.404ZM579.302 475.62C556.634 452.103 542.694 420.116 542.694 384.874C542.694 384.383 542.696 383.894 542.702 383.404H579.44C579.432 383.893 579.428 384.383 579.428 384.874C579.428 388.874 579.678 392.817 580.163 396.686V474.759L579.302 475.62ZM579.287 479.791C579.578 480.079 579.87 480.366 580.163 480.652V576.471C558.957 566.125 539.724 552.361 523.18 535.898L579.287 479.791ZM583.102 483.431C606.397 504.801 637.291 518.021 671.265 518.57V592.792H626.729C611.507 589.385 596.901 584.349 583.102 577.877V483.431ZM671.265 515.631C637.082 515.066 606.09 501.386 583.102 479.404V478.915H671.265V515.631ZM674.204 518.586V592.792H720.209C735.701 589.324 750.556 584.17 764.571 577.531V482.752C740.86 504.831 709.115 518.398 674.204 518.586ZM764.346 478.915C740.98 501.499 709.221 515.455 674.204 515.647V478.915H764.346ZM767.51 479.931C767.68 479.762 767.85 479.593 768.019 479.424L824.126 535.531C807.691 551.966 788.583 565.729 767.51 576.111V479.931ZM771.347 475.976C793.581 452.098 807.183 420.074 807.183 384.874C807.183 384.383 807.181 383.894 807.175 383.404H886.525C886.528 383.894 886.53 384.384 886.53 384.874C886.53 417.469 879.211 448.354 866.126 475.976H771.347ZM804.236 383.404C804.242 383.894 804.245 384.383 804.245 384.874C804.245 419.929 790.451 451.763 767.996 475.245L767.51 474.759L767.51 384.874L767.51 383.404H804.236ZM807.112 380.466H886.485C885.857 349.494 878.62 320.146 866.126 293.772H771.347C792.65 316.649 806.028 347.004 807.112 380.466ZM767.51 293.997C789.302 316.543 803.06 346.903 804.172 380.466H767.51V293.997ZM768.526 290.833C768.479 290.786 768.433 290.739 768.386 290.692L824.493 234.585C840.766 250.937 854.401 269.917 864.706 290.833H768.526ZM764.571 286.996C740.86 264.916 709.115 251.349 674.204 251.162L674.204 171.814C706.528 171.923 737.157 179.23 764.571 192.217L764.571 286.996ZM674.204 254.1C709.156 254.293 740.862 268.197 764.215 290.707L764.089 290.833H674.204V254.1ZM671.265 254.117V290.833H583.584L583.102 290.351V290.343C606.09 268.362 637.082 254.682 671.265 254.117ZM671.265 251.177C637.291 251.727 606.397 264.946 583.102 286.317V191.87C609.912 179.296 639.77 172.143 671.265 171.824L671.265 251.177ZM460.408 475.976L460.408 420.588C463.647 440.054 469.489 458.64 477.564 475.976H460.408ZM460.408 478.915H478.961C489.202 500.058 502.788 519.278 519.033 535.889L463.891 591.03C462.696 589.868 461.535 588.672 460.408 587.443L460.408 478.915ZM482.232 478.915C492.254 499.256 505.426 517.767 521.111 533.81L576.007 478.915H482.232ZM466.286 592.792L521.102 537.976C538.209 555.001 558.153 569.178 580.163 579.737V592.792H466.286ZM583.102 592.792V581.119C593.246 585.798 603.815 589.713 614.734 592.792H583.102ZM583.102 595.731H626.402C640.864 598.945 655.872 600.709 671.265 600.863V615.567H583.102V595.731ZM642.709 595.731C652.046 597.081 661.578 597.825 671.265 597.924V595.731H642.709ZM674.204 615.567V600.872C690.112 600.819 705.614 599.047 720.536 595.731H764.571V615.567H674.204ZM674.204 597.934C684.397 597.899 694.421 597.149 704.229 595.731H674.204V597.934ZM764.571 592.792H732.204C743.388 589.639 754.203 585.608 764.571 580.778V592.792ZM767.51 592.792V579.382C789.387 568.786 809.205 554.607 826.204 537.609L880.935 592.34C880.773 592.491 880.61 592.642 880.446 592.792H767.51ZM883.053 590.301L828.268 535.517C844.352 518.991 857.813 499.9 867.978 478.915H886.53V586.631C885.407 587.888 884.247 589.112 883.053 590.301ZM826.19 533.438C841.715 517.481 854.762 499.099 864.706 478.915H771.666L826.19 533.438ZM886.53 475.976H869.374C877.449 458.64 883.291 440.054 886.53 420.588V475.976ZM869.374 293.772C877.449 311.108 883.291 329.693 886.53 349.159V293.772H869.374ZM886.53 290.833H867.978C857.458 269.114 843.407 249.423 826.571 232.507L886.048 173.03C886.209 173.208 886.37 173.386 886.53 173.565L886.53 290.833ZM883.844 171.078L824.484 230.438C807.873 214.193 788.653 200.606 767.51 190.365V171.078H883.844ZM822.406 232.516C806.362 216.831 787.852 203.659 767.51 193.637V287.412L822.406 232.516ZM764.571 171.078V188.969C745.833 180.241 725.634 174.121 704.442 171.078H764.571ZM583.102 171.078H642.496C621.58 174.081 601.633 180.081 583.102 188.629V171.078ZM580.163 171.078V190.011C558.889 200.216 539.544 213.803 522.826 230.075L463.829 171.078H580.163ZM580.163 193.276C559.69 203.265 541.055 216.439 524.904 232.153L580.163 287.412V193.276ZM889.469 475.976V384.874V383.404H908.571V475.976H889.469ZM437.633 231.323C437.633 210.353 445.078 191.122 457.469 176.129L457.469 290.833H437.633V231.323ZM437.633 380.466V293.772H457.469L457.469 380.466H437.633ZM437.633 475.976V383.404H457.469L457.469 475.976H437.633ZM437.633 528.874V478.915H457.469L457.469 584.067C445.078 569.075 437.633 549.844 437.633 528.874ZM460.408 592.792V591.71C460.766 592.074 461.126 592.434 461.49 592.792H460.408ZM524.326 615.567C503.356 615.567 484.125 608.122 469.133 595.731H580.163V615.567H524.326ZM821.877 615.567H767.51V595.731H877.071C862.078 608.122 842.847 615.567 821.877 615.567ZM885.543 592.792L885.131 592.379C885.602 591.91 886.069 591.435 886.53 590.954V592.792H885.543ZM908.571 528.874C908.571 549.426 901.419 568.308 889.469 583.166V478.915H908.571V528.874ZM908.571 293.772V380.466H889.469V293.772H908.571ZM908.571 231.323V290.833H889.469L889.469 177.03C901.419 191.889 908.571 210.771 908.571 231.323ZM736.155 318.767L674.456 380.466H674.204V293.775C698.201 293.964 719.988 303.432 736.155 318.767ZM738.233 316.688C726.802 305.827 712.641 297.81 696.886 293.772H761.15L738.233 316.688ZM740.332 318.745L764.571 294.507V361.457C760.371 345.069 751.866 330.406 740.332 318.745ZM738.254 320.823C753.562 336.306 763.36 357.247 764.466 380.466H678.612L738.254 320.823ZM764.559 383.404H676.156L739.933 447.181C755.213 430.888 764.571 408.974 764.571 384.874C764.571 384.383 764.567 383.893 764.559 383.404ZM764.571 408.291C760.578 423.873 752.692 437.895 742.012 449.26L764.571 471.82V408.291ZM739.966 451.371L764.571 475.976H696.886C713.447 471.732 728.246 463.091 739.966 451.371ZM737.888 449.293C721.562 465.618 699.069 475.776 674.204 475.973V385.609L737.888 449.293ZM671.265 475.95V387.813L609.419 449.659C625.389 465.45 647.169 475.377 671.265 475.95ZM650.052 475.976C633.664 471.776 619.002 463.271 607.341 451.737L583.102 475.976H650.052ZM605.284 449.638L583.102 471.82V410.989C587.335 425.663 595.046 438.863 605.284 449.638ZM607.362 447.559C594.383 433.876 585.607 416.167 583.102 396.499V383.404H671.265V383.657L607.362 447.559ZM583.102 373.249V380.466H669.061L609.05 320.455C595.145 334.36 585.714 352.74 583.102 373.249ZM583.102 358.759C587.565 343.288 595.892 329.457 606.972 318.377L583.102 294.507L583.102 358.759ZM609.083 316.331L586.523 293.772H650.052C634.47 297.765 620.448 305.651 609.083 316.331ZM611.162 318.41C626.957 303.597 648.034 294.35 671.265 293.798V378.514L611.162 318.41Z"></path><path style="fill:var(--color-illustrationPalette020)" fill-rule="evenodd" clip-rule="evenodd" d="M890.938 168.139L924 135.078L921.922 133L889.469 165.453V135.078L886.53 135.078V168.139H885.453C869.217 151.804 846.728 141.69 821.877 141.69H524.326C499.511 141.69 477.051 151.775 460.821 168.069L460.408 167.657V135.078L457.469 135.078V164.718L425.751 133L423.673 135.078L456.735 168.139H420V171.078H457.469V171.621C443.305 187.473 434.694 208.392 434.694 231.323V528.874C434.694 551.804 443.305 572.724 457.469 588.575V592.792H430.286V595.731H457.469V597.452L431.881 623.04L433.959 625.118L457.469 601.608V625.853H460.408V598.67L463.347 595.731H464.625C480.476 609.895 501.396 618.506 524.326 618.506H821.877C844.808 618.506 865.727 609.895 881.579 595.731H884.326L886.53 597.935V625.853H889.469V600.874L913.714 625.118L915.792 623.04L889.469 596.718V595.731H913.714V592.792H889.469V587.743C903.196 571.995 911.51 551.405 911.51 528.874V231.323C911.51 208.791 903.196 188.202 889.469 172.454V171.078H923.999V168.139H890.938ZM821.877 144.629C844.845 144.629 865.726 153.56 881.238 168.139H767.51V144.629H821.877ZM674.204 144.629H764.571V168.139H674.204V144.629ZM583.102 144.629H671.265V168.139H583.102V144.629ZM524.326 144.629H580.163V168.139H464.966C480.478 153.56 501.359 144.629 524.326 144.629ZM460.86 172.265C460.709 172.427 460.558 172.59 460.408 172.754L460.408 290.833H478.961C489.557 268.956 503.736 249.138 520.734 232.139L460.86 172.265ZM460.408 293.772H477.564C469.489 311.108 463.647 329.693 460.408 349.16L460.408 293.772ZM480.812 293.772C468.319 320.146 461.081 349.494 460.453 380.466H539.826C540.91 347.004 554.289 316.649 575.591 293.772H480.812ZM578.919 290.324C578.75 290.493 578.581 290.663 578.412 290.833H482.232C492.614 269.76 506.377 250.652 522.812 234.217L578.919 290.324ZM579.647 293.772C557.728 316.341 543.882 346.792 542.767 380.466H579.53C579.645 377.971 579.857 375.502 580.163 373.062L580.163 293.772H579.647ZM539.763 383.404H460.413C460.41 383.894 460.408 384.384 460.408 384.874C460.408 417.469 467.727 448.354 480.812 475.976H575.591C553.357 452.098 539.755 420.074 539.755 384.874C539.755 384.383 539.758 383.894 539.763 383.404ZM579.302 475.62C556.634 452.103 542.694 420.116 542.694 384.874C542.694 384.383 542.696 383.894 542.702 383.404H579.44C579.432 383.893 579.428 384.383 579.428 384.874C579.428 388.874 579.678 392.817 580.163 396.686V474.759L579.302 475.62ZM579.287 479.791C579.578 480.079 579.87 480.366 580.163 480.652V576.471C558.957 566.125 539.724 552.361 523.18 535.898L579.287 479.791ZM583.102 483.431C606.397 504.801 637.291 518.021 671.265 518.57V592.792H626.729C611.507 589.385 596.901 584.349 583.102 577.877V483.431ZM671.265 515.631C637.082 515.066 606.09 501.386 583.102 479.404V478.915H671.265V515.631ZM674.204 518.586V592.792H720.209C735.701 589.324 750.556 584.17 764.571 577.531V482.752C740.86 504.831 709.115 518.398 674.204 518.586ZM764.346 478.915C740.98 501.499 709.221 515.455 674.204 515.647V478.915H764.346ZM767.51 479.931C767.68 479.762 767.85 479.593 768.019 479.424L824.126 535.531C807.691 551.966 788.583 565.729 767.51 576.111V479.931ZM771.347 475.976C793.581 452.098 807.183 420.074 807.183 384.874C807.183 384.383 807.181 383.894 807.175 383.404H886.525C886.528 383.894 886.53 384.384 886.53 384.874C886.53 417.469 879.211 448.354 866.126 475.976H771.347ZM804.236 383.404C804.242 383.894 804.245 384.383 804.245 384.874C804.245 419.929 790.451 451.763 767.996 475.245L767.51 474.759L767.51 384.874L767.51 383.404H804.236ZM807.112 380.466H886.485C885.857 349.494 878.62 320.146 866.126 293.772H771.347C792.65 316.649 806.028 347.004 807.112 380.466ZM767.51 293.997C789.302 316.543 803.06 346.903 804.172 380.466H767.51V293.997ZM768.526 290.833C768.479 290.786 768.433 290.739 768.386 290.692L824.493 234.585C840.766 250.937 854.401 269.917 864.706 290.833H768.526ZM764.571 286.996C740.86 264.916 709.115 251.349 674.204 251.162L674.204 171.814C706.528 171.923 737.157 179.23 764.571 192.217L764.571 286.996ZM674.204 254.1C709.156 254.293 740.862 268.197 764.215 290.707L764.089 290.833H674.204V254.1ZM671.265 254.117V290.833H583.584L583.102 290.351V290.343C606.09 268.362 637.082 254.682 671.265 254.117ZM671.265 251.177C637.291 251.727 606.397 264.946 583.102 286.317V191.87C609.912 179.296 639.77 172.143 671.265 171.824L671.265 251.177ZM460.408 475.976L460.408 420.588C463.647 440.054 469.489 458.64 477.564 475.976H460.408ZM460.408 478.915H478.961C489.202 500.058 502.788 519.278 519.033 535.889L463.891 591.03C462.696 589.868 461.535 588.672 460.408 587.443L460.408 478.915ZM482.232 478.915C492.254 499.256 505.426 517.767 521.111 533.81L576.007 478.915H482.232ZM466.286 592.792L521.102 537.976C538.209 555.001 558.153 569.178 580.163 579.737V592.792H466.286ZM583.102 592.792V581.119C593.246 585.798 603.815 589.713 614.734 592.792H583.102ZM583.102 595.731H626.402C640.864 598.945 655.872 600.709 671.265 600.863V615.567H583.102V595.731ZM642.709 595.731C652.046 597.081 661.578 597.825 671.265 597.924V595.731H642.709ZM674.204 615.567V600.872C690.112 600.819 705.614 599.047 720.536 595.731H764.571V615.567H674.204ZM674.204 597.934C684.397 597.899 694.421 597.149 704.229 595.731H674.204V597.934ZM764.571 592.792H732.204C743.388 589.639 754.203 585.608 764.571 580.778V592.792ZM767.51 592.792V579.382C789.387 568.786 809.205 554.607 826.204 537.609L880.935 592.34C880.773 592.491 880.61 592.642 880.446 592.792H767.51ZM883.053 590.301L828.268 535.517C844.352 518.991 857.813 499.9 867.978 478.915H886.53V586.631C885.407 587.888 884.247 589.112 883.053 590.301ZM826.19 533.438C841.715 517.481 854.762 499.099 864.706 478.915H771.666L826.19 533.438ZM886.53 475.976H869.374C877.449 458.64 883.291 440.054 886.53 420.588V475.976ZM869.374 293.772C877.449 311.108 883.291 329.693 886.53 349.159V293.772H869.374ZM886.53 290.833H867.978C857.458 269.114 843.407 249.423 826.571 232.507L886.048 173.03C886.209 173.208 886.37 173.386 886.53 173.565L886.53 290.833ZM883.844 171.078L824.484 230.438C807.873 214.193 788.653 200.606 767.51 190.365V171.078H883.844ZM822.406 232.516C806.362 216.831 787.852 203.659 767.51 193.637V287.412L822.406 232.516ZM764.571 171.078V188.969C745.833 180.241 725.634 174.121 704.442 171.078H764.571ZM583.102 171.078H642.496C621.58 174.081 601.633 180.081 583.102 188.629V171.078ZM580.163 171.078V190.011C558.889 200.216 539.544 213.803 522.826 230.075L463.829 171.078H580.163ZM580.163 193.276C559.69 203.265 541.055 216.439 524.904 232.153L580.163 287.412V193.276ZM889.469 475.976V384.874V383.404H908.571V475.976H889.469ZM437.633 231.323C437.633 210.353 445.078 191.122 457.469 176.129L457.469 290.833H437.633V231.323ZM437.633 380.466V293.772H457.469L457.469 380.466H437.633ZM437.633 475.976V383.404H457.469L457.469 475.976H437.633ZM437.633 528.874V478.915H457.469L457.469 584.067C445.078 569.075 437.633 549.844 437.633 528.874ZM460.408 592.792V591.71C460.766 592.074 461.126 592.434 461.49 592.792H460.408ZM524.326 615.567C503.356 615.567 484.125 608.122 469.133 595.731H580.163V615.567H524.326ZM821.877 615.567H767.51V595.731H877.071C862.078 608.122 842.847 615.567 821.877 615.567ZM885.543 592.792L885.131 592.379C885.602 591.91 886.069 591.435 886.53 590.954V592.792H885.543ZM908.571 528.874C908.571 549.426 901.419 568.308 889.469 583.166V478.915H908.571V528.874ZM908.571 293.772V380.466H889.469V293.772H908.571ZM908.571 231.323V290.833H889.469L889.469 177.03C901.419 191.889 908.571 210.771 908.571 231.323ZM736.155 318.767L674.456 380.466H674.204V293.775C698.201 293.964 719.988 303.432 736.155 318.767ZM738.233 316.688C726.802 305.827 712.641 297.81 696.886 293.772H761.15L738.233 316.688ZM740.332 318.745L764.571 294.507V361.457C760.371 345.069 751.866 330.406 740.332 318.745ZM738.254 320.823C753.562 336.306 763.36 357.247 764.466 380.466H678.612L738.254 320.823ZM764.559 383.404H676.156L739.933 447.181C755.213 430.888 764.571 408.974 764.571 384.874C764.571 384.383 764.567 383.893 764.559 383.404ZM764.571 408.291C760.578 423.873 752.692 437.895 742.012 449.26L764.571 471.82V408.291ZM739.966 451.371L764.571 475.976H696.886C713.447 471.732 728.246 463.091 739.966 451.371ZM737.888 449.293C721.562 465.618 699.069 475.776 674.204 475.973V385.609L737.888 449.293ZM671.265 475.95V387.813L609.419 449.659C625.389 465.45 647.169 475.377 671.265 475.95ZM650.052 475.976C633.664 471.776 619.002 463.271 607.341 451.737L583.102 475.976H650.052ZM605.284 449.638L583.102 471.82V410.989C587.335 425.663 595.046 438.863 605.284 449.638ZM607.362 447.559C594.383 433.876 585.607 416.167 583.102 396.499V383.404H671.265V383.657L607.362 447.559ZM583.102 373.249V380.466H669.061L609.05 320.455C595.145 334.36 585.714 352.74 583.102 373.249ZM583.102 358.759C587.565 343.288 595.892 329.457 606.972 318.377L583.102 294.507L583.102 358.759ZM609.083 316.331L586.523 293.772H650.052C634.47 297.765 620.448 305.651 609.083 316.331ZM611.162 318.41C626.957 303.597 648.034 294.35 671.265 293.798V378.514L611.162 318.41Z"></path><path d="M924 135.078L925.06 136.139L926.121 135.078L925.06 134.017L924 135.078ZM890.938 168.139L889.878 167.079L887.317 169.639H890.938V168.139ZM921.922 133L922.982 131.939L921.922 130.879L920.861 131.939L921.922 133ZM889.469 165.453H887.969V169.074L890.53 166.513L889.469 165.453ZM889.469 135.078H890.969V133.578L889.469 133.578L889.469 135.078ZM886.53 135.078L886.53 133.578L885.03 133.578V135.078H886.53ZM886.53 168.139V169.639H888.03V168.139H886.53ZM885.453 168.139L884.389 169.197L884.828 169.639H885.453V168.139ZM460.821 168.069L459.76 169.13L460.823 170.193L461.883 169.128L460.821 168.069ZM460.408 167.657H458.908V168.278L459.347 168.717L460.408 167.657ZM460.408 135.078H461.908V133.578L460.408 133.578L460.408 135.078ZM457.469 135.078L457.469 133.578L455.969 133.578V135.078H457.469ZM457.469 164.718L456.409 165.779L458.969 168.339V164.718H457.469ZM425.751 133L426.812 131.939L425.751 130.879L424.691 131.939L425.751 133ZM423.673 135.078L422.613 134.017L421.552 135.078L422.613 136.139L423.673 135.078ZM456.735 168.139V169.639H460.356L457.795 167.079L456.735 168.139ZM420 168.139V166.639H418.5V168.139H420ZM420 171.078H418.5V172.578H420V171.078ZM457.469 171.078H458.969V169.578H457.469V171.078ZM457.469 171.621L458.588 172.621L458.969 172.194V171.621H457.469ZM457.469 588.575H458.969V588.003L458.588 587.576L457.469 588.575ZM457.469 592.792V594.292H458.969V592.792H457.469ZM430.286 592.792V591.292H428.786V592.792H430.286ZM430.286 595.731H428.786V597.231H430.286V595.731ZM457.469 595.731H458.969V594.231H457.469V595.731ZM457.469 597.452L458.53 598.513L458.969 598.074V597.452H457.469ZM431.881 623.04L430.821 621.98L429.76 623.04L430.821 624.101L431.881 623.04ZM433.959 625.118L432.899 626.179L433.959 627.24L435.02 626.179L433.959 625.118ZM457.469 601.608H458.969V597.987L456.409 600.548L457.469 601.608ZM457.469 625.853H455.969V627.353H457.469V625.853ZM460.408 625.853V627.353H461.908V625.853H460.408ZM460.408 598.67L459.347 597.609L458.908 598.048V598.67H460.408ZM463.347 595.731V594.231H462.726L462.286 594.67L463.347 595.731ZM464.625 595.731L465.624 594.612L465.197 594.231H464.625V595.731ZM881.579 595.731V594.231H881.006L880.579 594.612L881.579 595.731ZM884.326 595.731L885.387 594.67L884.947 594.231H884.326V595.731ZM886.53 597.935H888.03V597.314L887.591 596.874L886.53 597.935ZM886.53 625.853H885.03V627.353H886.53V625.853ZM889.469 625.853V627.353H890.969V625.853H889.469ZM889.469 600.874L890.53 599.813L887.969 597.252V600.874H889.469ZM913.714 625.118L912.653 626.179L913.714 627.24L914.774 626.179L913.714 625.118ZM915.792 623.04L916.852 624.101L917.913 623.04L916.852 621.98L915.792 623.04ZM889.469 596.718H887.969V597.339L888.408 597.778L889.469 596.718ZM889.469 595.731V594.231H887.969V595.731H889.469ZM913.714 595.731V597.231H915.214V595.731H913.714ZM913.714 592.792H915.214V591.292H913.714V592.792ZM889.469 592.792H887.969V594.292H889.469V592.792ZM889.469 587.743L888.338 586.757L887.969 587.181V587.743H889.469ZM889.469 172.454H887.969V173.016L888.338 173.439L889.469 172.454ZM889.469 171.078V169.578H887.969V171.078H889.469ZM923.999 171.078V172.578H925.499V171.078H923.999ZM923.999 168.139H925.499V166.639H923.999V168.139ZM881.238 168.139V169.639H885.024L882.265 167.046L881.238 168.139ZM767.51 168.139H766.01V169.639H767.51V168.139ZM767.51 144.629V143.129H766.01V144.629H767.51ZM764.571 144.629H766.071V143.129H764.571V144.629ZM674.204 144.629V143.129H672.704V144.629H674.204ZM764.571 168.139V169.639H766.071V168.139H764.571ZM674.204 168.139H672.704V169.639H674.204V168.139ZM671.265 144.629H672.765V143.129H671.265V144.629ZM583.102 144.629V143.129H581.602V144.629H583.102ZM671.265 168.139V169.639H672.765V168.139H671.265ZM583.102 168.139H581.602V169.639H583.102V168.139ZM580.163 144.629H581.663V143.129H580.163V144.629ZM580.163 168.139V169.639H581.663V168.139H580.163ZM464.966 168.139L463.938 167.046L461.18 169.639H464.966V168.139ZM460.408 172.754L459.302 171.74L458.908 172.17L458.908 172.754L460.408 172.754ZM460.86 172.265L461.921 171.204L460.821 170.105L459.762 171.243L460.86 172.265ZM460.408 290.833L458.908 290.833L458.908 292.333H460.408V290.833ZM478.961 290.833V292.333H479.901L480.311 291.487L478.961 290.833ZM520.734 232.139L521.795 233.2L522.855 232.139L521.795 231.078L520.734 232.139ZM477.564 293.772L478.924 294.405L479.918 292.272H477.564V293.772ZM460.408 293.772V292.272H458.908L458.908 293.772L460.408 293.772ZM460.408 349.16L458.908 349.16L461.888 349.406L460.408 349.16ZM460.453 380.466L458.953 380.435L458.922 381.966H460.453V380.466ZM480.812 293.772V292.272H479.863L479.456 293.13L480.812 293.772ZM539.826 380.466V381.966H541.278L541.325 380.514L539.826 380.466ZM575.591 293.772L576.689 294.794L579.038 292.272H575.591V293.772ZM578.412 290.833V292.333H579.038L579.479 291.888L578.412 290.833ZM578.919 290.324L579.98 291.384L581.04 290.324L579.98 289.263L578.919 290.324ZM482.232 290.833L480.886 290.17L479.821 292.333H482.232V290.833ZM522.812 234.217L523.873 233.156L522.812 232.096L521.752 233.156L522.812 234.217ZM579.647 293.772V292.272H579.012L578.571 292.727L579.647 293.772ZM542.767 380.466L541.267 380.416L541.216 381.966H542.767V380.466ZM579.53 380.466V381.966H580.962L581.028 380.535L579.53 380.466ZM580.163 373.062L581.651 373.248L581.663 373.155L581.663 373.062L580.163 373.062ZM580.163 293.772L581.663 293.772L581.663 292.272H580.163V293.772ZM460.413 383.404V381.904H458.923L458.913 383.394L460.413 383.404ZM539.763 383.404L541.263 383.421L541.279 381.904H539.763V383.404ZM480.812 475.976L479.456 476.618L479.863 477.476H480.812V475.976ZM575.591 475.976V477.476H579.038L576.689 474.954L575.591 475.976ZM579.302 475.62L578.222 476.661L579.282 477.761L580.363 476.68L579.302 475.62ZM542.702 383.404V381.904H541.218L541.202 383.388L542.702 383.404ZM579.44 383.404L580.939 383.427L580.963 381.904H579.44V383.404ZM580.163 396.686H581.663V396.592L581.651 396.499L580.163 396.686ZM580.163 474.759L581.224 475.819L581.663 475.38V474.759H580.163ZM580.163 480.652H581.663V480.019L581.21 479.578L580.163 480.652ZM579.287 479.791L580.344 478.726L579.283 477.673L578.226 478.73L579.287 479.791ZM580.163 576.471L579.505 577.819L581.663 578.872V576.471H580.163ZM523.18 535.898L522.119 534.837L521.056 535.9L522.122 536.961L523.18 535.898ZM671.265 518.57H672.765V517.094L671.289 517.07L671.265 518.57ZM583.102 483.431L584.116 482.325L581.602 480.019V483.431H583.102ZM671.265 592.792V594.292H672.765V592.792H671.265ZM626.729 592.792L626.401 594.256L626.563 594.292H626.729V592.792ZM583.102 577.877H581.602V578.83L582.465 579.235L583.102 577.877ZM583.102 479.404H581.602V480.045L582.065 480.488L583.102 479.404ZM671.265 515.631L671.24 517.131L672.765 517.156V515.631H671.265ZM583.102 478.915V477.415H581.602V478.915H583.102ZM671.265 478.915H672.765V477.415H671.265V478.915ZM674.204 592.792H672.704V594.292H674.204V592.792ZM674.204 518.586L674.196 517.086L672.704 517.094V518.586H674.204ZM720.209 592.792V594.292H720.375L720.537 594.256L720.209 592.792ZM764.571 577.531L765.213 578.886L766.071 578.48V577.531H764.571ZM764.571 482.752H766.071V479.305L763.549 481.654L764.571 482.752ZM674.204 515.647H672.704V517.155L674.212 517.147L674.204 515.647ZM764.346 478.915L765.388 479.993L768.056 477.415H764.346V478.915ZM674.204 478.915V477.415H672.704V478.915H674.204ZM768.019 479.424L769.08 478.363L768.019 477.303L766.959 478.363L768.019 479.424ZM767.51 479.931L766.455 478.864L766.01 479.305V479.931H767.51ZM824.126 535.531L825.187 536.591L826.247 535.531L825.187 534.47L824.126 535.531ZM767.51 576.111H766.01V578.522L768.173 577.457L767.51 576.111ZM771.347 475.976L770.249 474.954L767.9 477.476H771.347V475.976ZM807.175 383.404V381.904H805.659L805.675 383.421L807.175 383.404ZM886.525 383.404L888.025 383.394L888.015 381.904H886.525V383.404ZM866.126 475.976V477.476H867.075L867.482 476.618L866.126 475.976ZM804.236 383.404L805.736 383.388L805.72 381.904H804.236V383.404ZM767.996 475.245L766.935 476.305L768.02 477.39L769.08 476.282L767.996 475.245ZM767.51 474.759L766.01 474.759L766.01 475.38L766.449 475.819L767.51 474.759ZM767.51 384.874L766.01 384.874L766.01 384.874L767.51 384.874ZM767.51 383.404V381.904H766.01L766.01 383.404L767.51 383.404ZM886.485 380.466V381.966H888.016L887.985 380.435L886.485 380.466ZM807.112 380.466L805.613 380.514L805.66 381.966H807.112V380.466ZM866.126 293.772L867.482 293.13L867.075 292.272H866.126V293.772ZM771.347 293.772V292.272H767.9L770.249 294.794L771.347 293.772ZM804.172 380.466V381.966H805.722L805.671 380.416L804.172 380.466ZM767.51 293.997L768.588 292.955L766.01 290.287V293.997H767.51ZM767.51 380.466H766.01V381.966H767.51V380.466ZM768.386 290.692L767.325 289.631L766.269 290.688L767.321 291.748L768.386 290.692ZM768.526 290.833L767.46 291.888L767.9 292.333H768.526V290.833ZM824.493 234.585L825.556 233.527L824.496 232.461L823.432 233.524L824.493 234.585ZM864.706 290.833V292.333H867.117L866.052 290.17L864.706 290.833ZM674.204 251.162L672.704 251.162L672.704 252.654L674.196 252.662L674.204 251.162ZM764.571 286.996L763.549 288.094L766.071 290.443L766.071 286.996L764.571 286.996ZM674.204 171.814L674.209 170.314L672.704 170.309L672.704 171.814L674.204 171.814ZM764.571 192.217L766.071 192.217L766.071 191.268L765.213 190.861L764.571 192.217ZM764.215 290.707L765.276 291.767L766.356 290.687L765.256 289.627L764.215 290.707ZM674.204 254.1L674.212 252.6L672.704 252.592V254.1H674.204ZM764.089 290.833V292.333H764.71L765.149 291.894L764.089 290.833ZM674.204 290.833H672.704V292.333H674.204V290.833ZM671.265 254.117H672.765V252.592L671.24 252.617L671.265 254.117ZM671.265 290.833V292.333H672.765V290.833H671.265ZM583.584 290.833L582.524 291.894L582.963 292.333H583.584V290.833ZM583.102 290.351H581.602V290.972L582.041 291.411L583.102 290.351ZM583.102 290.343L582.065 289.259L581.602 289.702V290.343H583.102ZM583.102 286.317H581.602V289.729L584.116 287.422L583.102 286.317ZM671.265 251.177L671.289 252.677L672.765 252.653L672.765 251.177L671.265 251.177ZM583.102 191.87L582.465 190.512L581.602 190.917V191.87H583.102ZM671.265 171.824L672.765 171.824L672.765 170.309L671.25 170.324L671.265 171.824ZM460.408 420.588L461.888 420.342L458.908 420.588L460.408 420.588ZM460.408 475.976L458.908 475.976L458.908 477.476H460.408V475.976ZM477.564 475.976V477.476H479.918L478.924 475.342L477.564 475.976ZM478.961 478.915L480.311 478.261L479.901 477.415H478.961V478.915ZM460.408 478.915V477.415H458.908L458.908 478.915L460.408 478.915ZM519.033 535.889L520.094 536.949L521.143 535.9L520.106 534.84L519.033 535.889ZM463.891 591.03L462.846 592.106L463.906 593.137L464.952 592.091L463.891 591.03ZM460.408 587.443L458.908 587.443L458.908 588.026L459.302 588.457L460.408 587.443ZM521.111 533.81L520.039 534.859L521.099 535.944L522.172 534.871L521.111 533.81ZM482.232 478.915V477.415H479.821L480.886 479.578L482.232 478.915ZM576.007 478.915L577.068 479.975L579.628 477.415H576.007V478.915ZM521.102 537.976L522.16 536.912L521.1 535.857L520.041 536.915L521.102 537.976ZM466.286 592.792L465.225 591.731L462.664 594.292H466.286V592.792ZM580.163 579.737H581.663V578.792L580.812 578.384L580.163 579.737ZM580.163 592.792V594.292H581.663V592.792H580.163ZM583.102 581.119L583.73 579.757L581.602 578.775V581.119H583.102ZM583.102 592.792H581.602V594.292H583.102V592.792ZM614.734 592.792V594.292L615.141 591.348L614.734 592.792ZM626.402 595.731L626.728 594.266L626.567 594.231H626.402V595.731ZM583.102 595.731V594.231H581.602V595.731H583.102ZM671.265 600.863H672.765V599.377L671.28 599.363L671.265 600.863ZM671.265 615.567V617.067H672.765V615.567H671.265ZM583.102 615.567H581.602V617.067H583.102V615.567ZM671.265 597.924L671.25 599.424L672.765 599.439V597.924H671.265ZM642.709 595.731V594.231L642.494 597.215L642.709 595.731ZM671.265 595.731H672.765V594.231H671.265V595.731ZM674.204 600.872L674.199 599.372L672.704 599.377V600.872H674.204ZM674.204 615.567H672.704V617.067H674.204V615.567ZM720.536 595.731V594.231H720.371L720.21 594.266L720.536 595.731ZM764.571 595.731H766.071V594.231H764.571V595.731ZM764.571 615.567V617.067H766.071V615.567H764.571ZM704.229 595.731L704.444 597.215L704.229 594.231V595.731ZM674.204 597.934H672.704V599.439L674.209 599.434L674.204 597.934ZM674.204 595.731V594.231H672.704V595.731H674.204ZM732.204 592.792L731.797 591.348L732.204 594.292V592.792ZM764.571 592.792V594.292H766.071V592.792H764.571ZM764.571 580.778H766.071V578.425L763.938 579.419L764.571 580.778ZM767.51 579.382L766.856 578.032L766.01 578.442V579.382H767.51ZM767.51 592.792H766.01V594.292H767.51V592.792ZM826.204 537.609L827.265 536.548L826.204 535.487L825.143 536.548L826.204 537.609ZM880.935 592.34L881.957 593.438L883.095 592.379L881.996 591.28L880.935 592.34ZM880.446 592.792V594.292H881.03L881.46 593.898L880.446 592.792ZM828.268 535.517L827.193 534.47L826.161 535.531L827.207 536.577L828.268 535.517ZM883.053 590.301L881.992 591.362L883.051 592.421L884.111 591.364L883.053 590.301ZM867.978 478.915V477.415H867.038L866.628 478.261L867.978 478.915ZM886.53 478.915H888.03V477.415H886.53V478.915ZM886.53 586.631L887.648 587.631L888.03 587.204V586.631H886.53ZM864.706 478.915L866.052 479.578L867.117 477.415H864.706V478.915ZM826.19 533.438L825.129 534.499L826.204 535.574L827.265 534.484L826.19 533.438ZM771.666 478.915V477.415H768.045L770.605 479.975L771.666 478.915ZM869.374 475.976L868.014 475.342L867.02 477.476H869.374V475.976ZM886.53 475.976V477.476H888.03V475.976H886.53ZM886.53 420.588H888.03L885.05 420.342L886.53 420.588ZM886.53 349.159L885.05 349.406L888.03 349.159H886.53ZM869.374 293.772V292.272H867.02L868.014 294.405L869.374 293.772ZM886.53 293.772H888.03V292.272H886.53V293.772ZM867.978 290.833L866.628 291.487L867.038 292.333H867.978V290.833ZM886.53 290.833V292.333H888.03L888.03 290.833L886.53 290.833ZM826.571 232.507L825.51 231.446L824.452 232.504L825.508 233.565L826.571 232.507ZM886.048 173.03L887.158 172.021L886.1 170.857L884.987 171.969L886.048 173.03ZM886.53 173.565L888.03 173.565L888.03 172.992L887.648 172.565L886.53 173.565ZM824.484 230.438L823.435 231.51L824.496 232.547L825.545 231.498L824.484 230.438ZM883.844 171.078L884.904 172.139L887.465 169.578H883.844V171.078ZM767.51 190.365H766.01V191.305L766.856 191.715L767.51 190.365ZM767.51 171.078V169.578H766.01V171.078H767.51ZM767.51 193.637L768.173 192.291L766.01 191.225V193.637H767.51ZM822.406 232.516L823.466 233.577L824.539 232.504L823.454 231.443L822.406 232.516ZM767.51 287.412H766.01V291.033L768.571 288.472L767.51 287.412ZM764.571 188.969L763.938 190.329L766.071 191.323V188.969H764.571ZM764.571 171.078H766.071V169.578H764.571V171.078ZM704.442 171.078V169.578L704.229 172.563L704.442 171.078ZM642.496 171.078L642.709 172.563L642.496 169.578V171.078ZM583.102 171.078V169.578H581.602V171.078H583.102ZM583.102 188.629H581.602V190.972L583.73 189.991L583.102 188.629ZM580.163 190.011L580.812 191.364L581.663 190.955V190.011H580.163ZM580.163 171.078H581.663V169.578H580.163V171.078ZM522.826 230.075L521.766 231.136L522.812 232.182L523.872 231.15L522.826 230.075ZM463.829 171.078V169.578H460.208L462.769 172.139L463.829 171.078ZM524.904 232.153L523.858 231.078L522.769 232.139L523.844 233.214L524.904 232.153ZM580.163 193.276H581.663V190.876L579.505 191.928L580.163 193.276ZM580.163 287.412L579.102 288.472L581.663 291.033V287.412H580.163ZM889.469 475.976H887.969V477.476H889.469V475.976ZM889.469 383.404V381.904H887.969V383.404H889.469ZM908.571 383.404H910.071V381.904H908.571V383.404ZM908.571 475.976V477.476H910.071V475.976H908.571ZM457.469 176.129L458.969 176.129L458.969 171.96L456.313 175.174L457.469 176.129ZM457.469 290.833V292.333H458.969L458.969 290.833L457.469 290.833ZM437.633 290.833H436.133V292.333H437.633V290.833ZM437.633 293.772V292.272H436.133V293.772H437.633ZM437.633 380.466H436.133V381.966H437.633V380.466ZM457.469 293.772L458.969 293.772L458.969 292.272H457.469V293.772ZM457.469 380.466V381.966H458.969L458.969 380.466L457.469 380.466ZM437.633 383.404V381.904H436.133V383.404H437.633ZM437.633 475.976H436.133V477.476H437.633V475.976ZM457.469 383.404L458.969 383.404L458.969 381.904H457.469V383.404ZM457.469 475.976V477.476H458.969L458.969 475.976L457.469 475.976ZM437.633 478.915V477.415H436.133V478.915H437.633ZM457.469 478.915L458.969 478.915L458.969 477.415H457.469V478.915ZM457.469 584.067L456.313 585.023L458.969 588.237L458.969 584.067L457.469 584.067ZM460.408 591.71L461.478 590.659L458.908 588.045V591.71H460.408ZM460.408 592.792H458.908V594.292H460.408V592.792ZM461.49 592.792V594.292H465.155L462.541 591.722L461.49 592.792ZM469.133 595.731V594.231H464.963L468.177 596.887L469.133 595.731ZM580.163 595.731H581.663V594.231H580.163V595.731ZM580.163 615.567V617.067H581.663V615.567H580.163ZM767.51 615.567H766.01V617.067H767.51V615.567ZM767.51 595.731V594.231H766.01V595.731H767.51ZM877.071 595.731L878.027 596.887L881.24 594.231H877.071V595.731ZM885.131 592.379L884.072 591.317L883.007 592.377L884.07 593.44L885.131 592.379ZM885.543 592.792L884.483 593.853L884.922 594.292H885.543V592.792ZM886.53 590.954H888.03V587.227L885.448 589.915L886.53 590.954ZM886.53 592.792V594.292H888.03V592.792H886.53ZM889.469 583.166H887.969V587.425L890.638 584.106L889.469 583.166ZM889.469 478.915V477.415H887.969V478.915H889.469ZM908.571 478.915H910.071V477.415H908.571V478.915ZM908.571 380.466V381.966H910.071V380.466H908.571ZM908.571 293.772H910.071V292.272H908.571V293.772ZM889.469 380.466H887.969V381.966H889.469V380.466ZM889.469 293.772V292.272H887.969V293.772H889.469ZM908.571 290.833V292.333H910.071V290.833H908.571ZM889.469 290.833L887.969 290.833L887.969 292.333H889.469V290.833ZM889.469 177.03L890.638 176.09L887.969 172.772L887.969 177.03L889.469 177.03ZM674.456 380.466V381.966H675.077L675.517 381.526L674.456 380.466ZM736.155 318.767L737.215 319.828L738.304 318.739L737.187 317.679L736.155 318.767ZM674.204 380.466H672.704V381.966H674.204V380.466ZM674.204 293.775L674.216 292.275L672.704 292.263V293.775H674.204ZM696.886 293.772V292.272L696.514 295.225L696.886 293.772ZM738.233 316.688L737.2 317.776L738.26 318.783L739.294 317.749L738.233 316.688ZM761.15 293.772L762.21 294.833L764.771 292.272H761.15V293.772ZM764.571 294.507H766.071V290.885L763.51 293.446L764.571 294.507ZM740.332 318.745L739.272 317.685L738.217 318.74L739.266 319.8L740.332 318.745ZM764.571 361.457L763.118 361.829L766.071 361.457H764.571ZM764.466 380.466V381.966H766.039L765.965 380.394L764.466 380.466ZM738.254 320.823L739.321 319.769L738.26 318.696L737.194 319.763L738.254 320.823ZM678.612 380.466L677.551 379.405L674.991 381.966H678.612V380.466ZM676.156 383.404V381.904H672.534L675.095 384.465L676.156 383.404ZM764.559 383.404L766.059 383.381L766.036 381.904H764.559V383.404ZM739.933 447.181L738.872 448.242L739.967 449.337L741.027 448.207L739.933 447.181ZM742.012 449.26L740.919 448.233L739.923 449.293L740.951 450.321L742.012 449.26ZM764.571 408.291H766.071L763.118 407.918L764.571 408.291ZM764.571 471.82L763.51 472.88L766.071 475.441V471.82H764.571ZM764.571 475.976V477.476H768.192L765.632 474.915L764.571 475.976ZM739.966 451.371L741.027 450.31L739.966 449.249L738.905 450.31L739.966 451.371ZM696.886 475.976L696.514 474.523L696.886 477.476V475.976ZM674.204 475.973H672.704V477.485L674.216 477.473L674.204 475.973ZM737.888 449.293L738.949 450.353L740.009 449.293L738.949 448.232L737.888 449.293ZM674.204 385.609L675.264 384.548L672.704 381.987V385.609H674.204ZM671.265 387.813H672.765V384.191L670.204 386.752L671.265 387.813ZM671.265 475.95L671.229 477.449L672.765 477.486V475.95H671.265ZM609.419 449.659L608.358 448.598L607.291 449.665L608.364 450.726L609.419 449.659ZM607.341 451.737L608.395 450.671L607.335 449.622L606.28 450.676L607.341 451.737ZM650.052 475.976V477.476L650.425 474.523L650.052 475.976ZM583.102 475.976L582.041 474.915L579.481 477.476H583.102V475.976ZM583.102 471.82H581.602V475.441L584.163 472.88L583.102 471.82ZM605.284 449.638L606.344 450.699L607.378 449.665L606.371 448.605L605.284 449.638ZM583.102 410.989L584.543 410.573L581.602 410.989H583.102ZM583.102 396.499H581.602V396.594L581.614 396.688L583.102 396.499ZM607.362 447.559L606.274 448.592L607.334 449.709L608.423 448.62L607.362 447.559ZM583.102 383.404V381.904H581.602V383.404H583.102ZM671.265 383.404H672.765V381.904H671.265V383.404ZM671.265 383.657L672.326 384.717L672.765 384.278V383.657H671.265ZM583.102 380.466H581.602V381.966H583.102V380.466ZM583.102 373.249L581.614 373.06L581.602 373.154V373.249H583.102ZM669.061 380.466V381.966H672.682L670.122 379.405L669.061 380.466ZM609.05 320.455L610.111 319.394L609.05 318.334L607.99 319.394L609.05 320.455ZM606.972 318.377L608.033 319.438L609.094 318.377L608.033 317.316L606.972 318.377ZM583.102 358.759L581.602 358.759L584.543 359.175L583.102 358.759ZM583.102 294.507L584.163 293.446L581.602 290.885L581.602 294.507L583.102 294.507ZM586.523 293.772V292.272H582.902L585.462 294.833L586.523 293.772ZM609.083 316.331L608.022 317.392L609.05 318.42L610.11 317.424L609.083 316.331ZM650.052 293.772L650.425 295.225L650.052 292.272V293.772ZM671.265 293.798H672.765V292.262L671.229 292.298L671.265 293.798ZM611.162 318.41L610.135 317.316L609.006 318.376L610.101 319.471L611.162 318.41ZM671.265 378.514L670.204 379.574L672.765 382.135V378.514H671.265ZM922.939 134.017L889.878 167.079L891.999 169.2L925.06 136.139L922.939 134.017ZM920.861 134.061L922.939 136.139L925.06 134.017L922.982 131.939L920.861 134.061ZM890.53 166.513L922.982 134.061L920.861 131.939L888.408 164.392L890.53 166.513ZM887.969 135.078V165.453H890.969V135.078H887.969ZM886.53 136.578L889.469 136.578L889.469 133.578L886.53 133.578L886.53 136.578ZM888.03 168.139V135.078H885.03V168.139H888.03ZM885.453 169.639H886.53V166.639H885.453V169.639ZM821.877 143.19C846.313 143.19 868.423 153.133 884.389 169.197L886.516 167.082C870.011 150.475 847.144 140.19 821.877 140.19V143.19ZM524.326 143.19H821.877V140.19H524.326V143.19ZM461.883 169.128C477.844 153.105 499.926 143.19 524.326 143.19V140.19C499.096 140.19 476.258 150.445 459.758 167.011L461.883 169.128ZM459.347 168.717L459.76 169.13L461.881 167.009L461.469 166.596L459.347 168.717ZM458.908 135.078V167.657H461.908V135.078H458.908ZM457.469 136.578L460.408 136.578L460.408 133.578L457.469 133.578L457.469 136.578ZM458.969 164.718V135.078H455.969V164.718H458.969ZM424.691 134.061L456.409 165.779L458.53 163.657L426.812 131.939L424.691 134.061ZM424.734 136.139L426.812 134.061L424.691 131.939L422.613 134.017L424.734 136.139ZM457.795 167.079L424.734 134.017L422.613 136.139L455.674 169.2L457.795 167.079ZM420 169.639H456.735V166.639H420V169.639ZM421.5 171.078V168.139H418.5V171.078H421.5ZM457.469 169.578H420V172.578H457.469V169.578ZM458.969 171.621V171.078H455.969V171.621H458.969ZM436.194 231.323C436.194 208.775 444.659 188.208 458.588 172.621L456.351 170.622C441.95 186.737 433.194 208.009 433.194 231.323H436.194ZM436.194 528.874V231.323H433.194V528.874H436.194ZM458.588 587.576C444.659 571.989 436.194 551.422 436.194 528.874H433.194C433.194 552.187 441.95 573.459 456.351 589.575L458.588 587.576ZM458.969 592.792V588.575H455.969V592.792H458.969ZM430.286 594.292H457.469V591.292H430.286V594.292ZM431.786 595.731V592.792H428.786V595.731H431.786ZM457.469 594.231H430.286V597.231H457.469V594.231ZM458.969 597.452V595.731H455.969V597.452H458.969ZM432.942 624.101L458.53 598.513L456.409 596.392L430.821 621.98L432.942 624.101ZM435.02 624.058L432.942 621.98L430.821 624.101L432.899 626.179L435.02 624.058ZM456.409 600.548L432.899 624.058L435.02 626.179L458.53 602.669L456.409 600.548ZM458.969 625.853V601.608H455.969V625.853H458.969ZM460.408 624.353H457.469V627.353H460.408V624.353ZM458.908 598.67V625.853H461.908V598.67H458.908ZM462.286 594.67L459.347 597.609L461.469 599.73L464.408 596.791L462.286 594.67ZM464.625 594.231H463.347V597.231H464.625V594.231ZM524.326 617.006C501.778 617.006 481.211 608.541 465.624 594.612L463.625 596.849C479.741 611.25 501.013 620.006 524.326 620.006V617.006ZM821.877 617.006H524.326V620.006H821.877V617.006ZM880.579 594.612C864.992 608.541 844.425 617.006 821.877 617.006V620.006C845.191 620.006 866.463 611.25 882.578 596.849L880.579 594.612ZM884.326 594.231H881.579V597.231H884.326V594.231ZM887.591 596.874L885.387 594.67L883.265 596.791L885.469 598.996L887.591 596.874ZM888.03 625.853V597.935H885.03V625.853H888.03ZM889.469 624.353H886.53V627.353H889.469V624.353ZM887.969 600.874V625.853H890.969V600.874H887.969ZM914.774 624.058L890.53 599.813L888.408 601.934L912.653 626.179L914.774 624.058ZM914.731 621.98L912.653 624.058L914.774 626.179L916.852 624.101L914.731 621.98ZM888.408 597.778L914.731 624.101L916.852 621.98L890.53 595.657L888.408 597.778ZM887.969 595.731V596.718H890.969V595.731H887.969ZM913.714 594.231H889.469V597.231H913.714V594.231ZM912.214 592.792V595.731H915.214V592.792H912.214ZM889.469 594.292H913.714V591.292H889.469V594.292ZM887.969 587.743V592.792H890.969V587.743H887.969ZM910.01 528.874C910.01 551.029 901.836 571.272 888.338 586.757L890.6 588.729C904.556 572.718 913.01 551.781 913.01 528.874H910.01ZM910.01 231.323V528.874H913.01V231.323H910.01ZM888.338 173.439C901.836 188.924 910.01 209.167 910.01 231.323H913.01C913.01 208.415 904.556 187.479 890.6 171.468L888.338 173.439ZM887.969 171.078V172.454H890.969V171.078H887.969ZM923.999 169.578H889.469V172.578H923.999V169.578ZM922.499 168.139V171.078H925.499V168.139H922.499ZM890.938 169.639H923.999V166.639H890.938V169.639ZM882.265 167.046C866.486 152.216 845.241 143.129 821.877 143.129V146.129C844.448 146.129 864.966 154.904 880.211 169.232L882.265 167.046ZM767.51 169.639H881.238V166.639H767.51V169.639ZM766.01 144.629V168.139H769.01V144.629H766.01ZM821.877 143.129H767.51V146.129H821.877V143.129ZM764.571 143.129H674.204V146.129H764.571V143.129ZM766.071 168.139V144.629H763.071V168.139H766.071ZM674.204 169.639H764.571V166.639H674.204V169.639ZM672.704 144.629V168.139H675.704V144.629H672.704ZM671.265 143.129H583.102V146.129H671.265V143.129ZM672.765 168.139V144.629H669.765V168.139H672.765ZM583.102 169.639H671.265V166.639H583.102V169.639ZM581.602 144.629V168.139H584.602V144.629H581.602ZM580.163 143.129H524.326V146.129H580.163V143.129ZM581.663 168.139V144.629H578.663V168.139H581.663ZM464.966 169.639H580.163V166.639H464.966V169.639ZM524.326 143.129C500.962 143.129 479.717 152.216 463.938 167.046L465.993 169.232C481.238 154.904 501.756 146.129 524.326 146.129V143.129ZM461.514 173.767C461.661 173.607 461.809 173.446 461.958 173.287L459.762 171.243C459.608 171.408 459.455 171.574 459.302 171.74L461.514 173.767ZM461.908 290.833L461.908 172.754L458.908 172.754L458.908 290.833L461.908 290.833ZM478.961 289.333H460.408V292.333H478.961V289.333ZM519.674 231.078C502.558 248.194 488.281 268.15 477.611 290.179L480.311 291.487C490.833 269.763 504.913 250.081 521.795 233.2L519.674 231.078ZM459.799 173.325L519.674 233.2L521.795 231.078L461.921 171.204L459.799 173.325ZM477.564 292.272H460.408V295.272H477.564V292.272ZM461.888 349.406C465.104 330.076 470.905 311.62 478.924 294.405L476.205 293.138C468.073 310.595 462.19 329.311 458.928 348.913L461.888 349.406ZM458.908 293.772L458.908 349.16L461.908 349.16L461.908 293.772L458.908 293.772ZM461.953 380.496C462.577 349.741 469.763 320.6 482.168 294.414L479.456 293.13C466.874 319.691 459.586 349.248 458.953 380.435L461.953 380.496ZM539.826 378.966H460.453V381.966H539.826V378.966ZM541.325 380.514C542.397 347.428 555.624 317.416 576.689 294.794L574.494 292.75C552.953 315.882 539.423 346.579 538.327 380.417L541.325 380.514ZM480.812 295.272H575.591V292.272H480.812V295.272ZM579.479 291.888C579.645 291.72 579.812 291.552 579.98 291.384L577.858 289.263C577.687 289.434 577.516 289.606 577.346 289.778L579.479 291.888ZM578.412 289.333H482.232V292.333H578.412V289.333ZM483.578 291.496C493.886 270.572 507.552 251.598 523.873 235.278L521.752 233.156C505.201 249.707 491.342 268.949 480.886 290.17L483.578 291.496ZM521.752 235.278L577.858 291.384L579.98 289.263L523.873 233.156L521.752 235.278ZM578.571 292.727C556.402 315.553 542.396 346.355 541.267 380.416L544.266 380.515C545.368 347.228 559.054 317.128 580.723 294.817L578.571 292.727ZM579.53 378.966H542.767V381.966H579.53V378.966ZM578.675 372.875C578.364 375.354 578.148 377.863 578.031 380.397L581.028 380.535C581.142 378.08 581.351 375.649 581.651 373.248L578.675 372.875ZM578.663 293.772L578.663 373.062L581.663 373.062L581.663 293.772L578.663 293.772ZM579.647 295.272H580.163V292.272H579.647V295.272ZM460.413 384.904H539.763V381.904H460.413V384.904ZM461.908 384.874C461.908 384.387 461.91 383.901 461.913 383.415L458.913 383.394C458.91 383.887 458.908 384.38 458.908 384.874H461.908ZM482.168 475.334C469.176 447.908 461.908 417.242 461.908 384.874H458.908C458.908 417.695 466.279 448.8 479.456 476.618L482.168 475.334ZM575.591 474.476H480.812V477.476H575.591V474.476ZM576.689 474.954C554.703 451.343 541.255 419.68 541.255 384.874H538.255C538.255 420.469 552.011 452.854 574.494 476.998L576.689 474.954ZM541.255 384.874C541.255 384.389 541.258 383.904 541.263 383.421L538.263 383.388C538.258 383.883 538.255 384.378 538.255 384.874H541.255ZM541.194 384.874C541.194 420.52 555.296 452.875 578.222 476.661L580.382 474.579C557.973 451.33 544.194 419.713 544.194 384.874H541.194ZM541.202 383.388C541.196 383.883 541.194 384.378 541.194 384.874H544.194C544.194 384.389 544.196 383.905 544.202 383.421L541.202 383.388ZM542.702 384.904H579.44V381.904H542.702V384.904ZM577.94 383.381C577.932 383.878 577.928 384.375 577.928 384.874H580.928C580.928 384.391 580.932 383.909 580.939 383.427L577.94 383.381ZM577.928 384.874C577.928 388.937 578.182 392.942 578.675 396.872L581.651 396.499C581.174 392.692 580.928 388.812 580.928 384.874H577.928ZM578.663 396.686V474.759H581.663V396.686H578.663ZM579.102 473.698L578.241 474.559L580.363 476.68L581.224 475.819L579.102 473.698ZM581.21 479.578C580.92 479.295 580.631 479.011 580.344 478.726L578.23 480.855C578.524 481.147 578.82 481.437 579.116 481.726L581.21 479.578ZM578.663 480.652V576.471H581.663V480.652H578.663ZM580.821 575.123C559.765 564.85 540.666 551.183 524.238 534.834L522.122 536.961C538.781 553.54 558.149 567.4 579.505 577.819L580.821 575.123ZM524.241 536.958L580.348 480.851L578.226 478.73L522.119 534.837L524.241 536.958ZM671.289 517.07C637.696 516.527 607.151 503.458 584.116 482.325L582.088 484.536C605.643 506.145 636.886 519.515 671.241 520.07L671.289 517.07ZM669.765 518.57V592.792H672.765V518.57H669.765ZM671.265 591.292H626.729V594.292H671.265V591.292ZM627.056 591.328C611.943 587.945 597.44 582.945 583.739 576.519L582.465 579.235C596.361 585.753 611.072 590.825 626.401 594.256L627.056 591.328ZM584.602 577.877V483.431H581.602V577.877H584.602ZM582.065 480.488C605.315 502.721 636.665 516.559 671.24 517.131L671.29 514.131C637.499 513.573 606.864 500.051 584.139 478.32L582.065 480.488ZM584.602 479.404V478.915H581.602V479.404H584.602ZM583.102 480.415H671.265V477.415H583.102V480.415ZM669.765 478.915V515.631H672.765V478.915H669.765ZM675.704 592.792V518.586H672.704V592.792H675.704ZM720.209 591.292H674.204V594.292H720.209V591.292ZM763.929 576.175C750.013 582.767 735.264 587.885 719.882 591.328L720.537 594.256C736.139 590.764 751.099 585.572 765.213 578.886L763.929 576.175ZM763.071 482.752V577.531H766.071V482.752H763.071ZM763.549 481.654C740.102 503.487 708.716 516.9 674.196 517.086L674.212 520.086C709.514 519.896 741.617 506.176 765.593 483.849L763.549 481.654ZM674.212 517.147C709.631 516.952 741.756 502.835 765.388 479.993L763.303 477.836C740.204 500.163 708.812 513.957 674.196 514.147L674.212 517.147ZM675.704 515.647V478.915H672.704V515.647H675.704ZM674.204 480.415H764.346V477.415H674.204V480.415ZM766.959 478.363C766.791 478.531 766.623 478.698 766.455 478.864L768.565 480.997C768.737 480.827 768.909 480.656 769.08 480.485L766.959 478.363ZM766.959 480.485L823.065 536.591L825.187 534.47L769.08 478.363L766.959 480.485ZM823.065 534.47C806.745 550.791 787.771 564.457 766.847 574.765L768.173 577.457C789.394 567.001 808.636 553.142 825.187 536.591L823.065 534.47ZM769.01 576.111V479.931H766.01V576.111H769.01ZM805.683 384.874C805.683 419.68 792.235 451.343 770.249 474.954L772.445 476.998C794.927 452.854 808.683 420.469 808.683 384.874H805.683ZM805.675 383.421C805.681 383.904 805.683 384.389 805.683 384.874H808.683C808.683 384.378 808.681 383.883 808.675 383.388L805.675 383.421ZM807.175 384.904H886.525V381.904H807.175V384.904ZM885.025 383.415C885.028 383.901 885.03 384.387 885.03 384.874H888.03C888.03 384.38 888.028 383.887 888.025 383.394L885.025 383.415ZM885.03 384.874C885.03 417.242 877.762 447.908 864.771 475.334L867.482 476.618C880.66 448.8 888.03 417.695 888.03 384.874H885.03ZM866.126 474.476H771.347V477.476H866.126V474.476ZM805.745 384.874C805.745 384.378 805.742 383.883 805.736 383.388L802.737 383.421C802.742 383.905 802.745 384.389 802.745 384.874H805.745ZM769.08 476.282C791.792 452.532 805.745 420.331 805.745 384.874H802.745C802.745 419.528 789.111 450.995 766.912 474.208L769.08 476.282ZM769.057 474.184L768.571 473.698L766.449 475.819L766.935 476.305L769.057 474.184ZM769.01 474.759L769.01 384.874L766.01 384.874L766.01 474.759L769.01 474.759ZM769.01 384.874L769.01 383.404L766.01 383.404L766.01 384.874L769.01 384.874ZM767.51 384.904H804.236V381.904H767.51V384.904ZM886.485 378.966H807.112V381.966H886.485V378.966ZM864.771 294.414C877.175 320.6 884.362 349.741 884.986 380.496L887.985 380.435C887.352 349.248 880.064 319.691 867.482 293.13L864.771 294.414ZM771.347 295.272H866.126V292.272H771.347V295.272ZM770.249 294.794C791.314 317.416 804.541 347.428 805.613 380.514L808.611 380.417C807.515 346.579 793.985 315.882 772.445 292.75L770.249 294.794ZM805.671 380.416C804.546 346.468 790.629 315.758 768.588 292.955L766.431 295.04C787.975 317.329 801.574 347.339 802.672 380.515L805.671 380.416ZM804.172 378.966H767.51V381.966H804.172V378.966ZM769.01 380.466V293.997H766.01V380.466H769.01ZM767.321 291.748C767.367 291.795 767.414 291.842 767.46 291.888L769.592 289.778C769.545 289.73 769.498 289.683 769.451 289.635L767.321 291.748ZM769.447 291.752L825.554 235.645L823.432 233.524L767.325 289.631L769.447 291.752ZM823.43 235.643C839.589 251.881 853.129 270.728 863.361 291.496L866.052 290.17C855.674 269.107 841.943 249.993 825.556 233.527L823.43 235.643ZM864.706 289.333H768.526V292.333H864.706V289.333ZM674.196 252.662C708.716 252.847 740.102 266.261 763.549 288.094L765.593 285.898C741.617 263.572 709.514 249.852 674.212 249.662L674.196 252.662ZM675.704 251.162L675.704 171.814L672.704 171.814L672.704 251.162L675.704 251.162ZM674.199 173.314C706.298 173.422 736.71 180.678 763.929 193.572L765.213 190.861C737.604 177.782 706.758 170.424 674.209 170.314L674.199 173.314ZM763.071 192.217L763.071 286.996L766.071 286.996L766.071 192.217L763.071 192.217ZM765.256 289.627C741.636 266.86 709.565 252.795 674.212 252.6L674.196 255.6C708.747 255.791 740.087 269.533 763.174 291.787L765.256 289.627ZM763.154 289.646L763.028 289.773L765.149 291.894L765.276 291.767L763.154 289.646ZM764.089 289.333H674.204V292.333H764.089V289.333ZM675.704 290.833V254.1H672.704V290.833H675.704ZM669.765 254.117V290.833H672.765V254.117H669.765ZM671.265 289.333H583.584V292.333H671.265V289.333ZM584.645 289.772L584.163 289.29L582.041 291.411L582.524 291.894L584.645 289.772ZM584.602 290.351V290.343H581.602V290.351H584.602ZM671.24 252.617C636.665 253.188 605.315 267.027 582.065 289.259L584.139 291.427C606.864 269.697 637.499 256.175 671.29 255.616L671.24 252.617ZM584.116 287.422C607.151 266.29 637.696 253.22 671.289 252.677L671.241 249.678C636.886 250.233 605.643 263.602 582.088 285.212L584.116 287.422ZM584.602 286.317V191.87H581.602V286.317H584.602ZM583.739 193.228C610.358 180.743 640.005 173.641 671.28 173.324L671.25 170.324C639.535 170.645 609.465 177.849 582.465 190.512L583.739 193.228ZM669.765 171.824L669.765 251.177L672.765 251.177L672.765 171.824L669.765 171.824ZM458.908 420.588L458.908 475.976L461.908 475.976L461.908 420.588L458.908 420.588ZM478.924 475.342C470.905 458.128 465.104 439.672 461.888 420.342L458.928 420.834C462.19 440.436 468.073 459.152 476.205 476.609L478.924 475.342ZM460.408 477.476H477.564V474.476H460.408V477.476ZM478.961 477.415H460.408V480.415H478.961V477.415ZM520.106 534.84C503.973 518.344 490.48 499.256 480.311 478.261L477.611 479.568C487.923 500.859 501.604 520.212 517.961 536.937L520.106 534.84ZM464.952 592.091L520.094 536.949L517.972 534.828L462.831 589.97L464.952 592.091ZM459.302 588.457C460.449 589.707 461.63 590.923 462.846 592.106L464.937 589.955C463.763 588.813 462.621 587.637 461.514 586.429L459.302 588.457ZM458.908 478.915L458.908 587.443L461.908 587.443L461.908 478.915L458.908 478.915ZM522.184 532.762C506.608 516.831 493.529 498.45 483.578 478.252L480.886 479.578C490.979 500.063 504.244 518.704 520.039 534.859L522.184 532.762ZM574.946 477.854L520.051 532.75L522.172 534.871L577.068 479.975L574.946 477.854ZM482.232 480.415H576.007V477.415H482.232V480.415ZM520.041 536.915L465.225 591.731L467.346 593.853L522.163 539.036L520.041 536.915ZM580.812 578.384C558.955 567.9 539.149 553.821 522.16 536.912L520.044 539.039C537.269 556.182 557.351 570.457 579.514 581.089L580.812 578.384ZM581.663 592.792V579.737H578.663V592.792H581.663ZM466.286 594.292H580.163V591.292H466.286V594.292ZM581.602 581.119V592.792H584.602V581.119H581.602ZM615.141 591.348C604.298 588.291 593.803 584.403 583.73 579.757L582.474 582.481C592.689 587.193 603.331 591.136 614.327 594.236L615.141 591.348ZM583.102 594.292H614.734V591.292H583.102V594.292ZM626.402 594.231H583.102V597.231H626.402V594.231ZM671.28 599.363C655.992 599.21 641.088 597.458 626.728 594.266L626.077 597.195C640.64 600.431 655.752 602.208 671.25 602.362L671.28 599.363ZM672.765 615.567V600.863H669.765V615.567H672.765ZM583.102 617.067H671.265V614.067H583.102V617.067ZM581.602 595.731V615.567H584.602V595.731H581.602ZM671.28 596.424C661.66 596.326 652.194 595.587 642.924 594.246L642.494 597.215C651.897 598.575 661.496 599.325 671.25 599.424L671.28 596.424ZM669.765 595.731V597.924H672.765V595.731H669.765ZM642.709 597.231H671.265V594.231H642.709V597.231ZM672.704 600.872V615.567H675.704V600.872H672.704ZM720.21 594.266C705.393 597.559 689.998 599.32 674.199 599.372L674.209 602.372C690.225 602.319 705.835 600.534 720.861 597.195L720.21 594.266ZM764.571 594.231H720.536V597.231H764.571V594.231ZM766.071 615.567V595.731H763.071V615.567H766.071ZM674.204 617.067H764.571V614.067H674.204V617.067ZM704.014 594.246C694.276 595.654 684.321 596.399 674.199 596.434L674.209 599.434C684.472 599.399 694.566 598.644 704.444 597.215L704.014 594.246ZM674.204 597.231H704.229V594.231H674.204V597.231ZM675.704 597.934V595.731H672.704V597.934H675.704ZM732.204 594.292H764.571V591.292H732.204V594.292ZM763.938 579.419C753.642 584.215 742.902 588.217 731.797 591.348L732.611 594.236C743.873 591.061 754.764 587.002 765.204 582.138L763.938 579.419ZM766.071 592.792V580.778H763.071V592.792H766.071ZM766.01 579.382V592.792H769.01V579.382H766.01ZM825.143 536.548C808.262 553.43 788.58 567.51 766.856 578.032L768.164 580.732C790.193 570.062 810.149 555.785 827.265 538.669L825.143 536.548ZM881.996 591.28L827.265 536.548L825.143 538.669L879.875 593.401L881.996 591.28ZM881.46 593.898C881.626 593.745 881.792 593.592 881.957 593.438L879.913 591.242C879.754 591.391 879.593 591.539 879.433 591.686L881.46 593.898ZM767.51 594.292H880.446V591.292H767.51V594.292ZM827.207 536.577L881.992 591.362L884.113 589.241L829.329 534.456L827.207 536.577ZM866.628 478.261C856.534 499.1 843.166 518.059 827.193 534.47L829.343 536.563C845.538 519.924 859.092 500.7 869.328 479.568L866.628 478.261ZM886.53 477.415H867.978V480.415H886.53V477.415ZM888.03 586.631V478.915H885.03V586.631H888.03ZM884.111 591.364C885.326 590.154 886.505 588.91 887.648 587.631L885.412 585.632C884.308 586.867 883.168 588.07 881.994 589.239L884.111 591.364ZM863.361 478.252C853.486 498.294 840.532 516.547 825.115 532.392L827.265 534.484C842.899 518.416 856.037 499.905 866.052 479.578L863.361 478.252ZM771.666 480.415H864.706V477.415H771.666V480.415ZM827.25 532.378L772.726 477.854L770.605 479.975L825.129 534.499L827.25 532.378ZM869.374 477.476H886.53V474.476H869.374V477.476ZM885.05 420.342C881.834 439.672 876.033 458.128 868.014 475.342L870.734 476.609C878.865 459.152 884.748 440.436 888.01 420.834L885.05 420.342ZM888.03 475.976V420.588H885.03V475.976H888.03ZM888.01 348.913C884.748 329.311 878.865 310.595 870.734 293.138L868.014 294.405C876.033 311.62 881.834 330.076 885.05 349.406L888.01 348.913ZM885.03 293.772V349.159H888.03V293.772H885.03ZM869.374 295.272H886.53V292.272H869.374V295.272ZM867.978 292.333H886.53V289.333H867.978V292.333ZM825.508 233.565C842.228 250.365 856.181 269.919 866.628 291.487L869.328 290.179C858.734 268.309 844.586 248.482 827.634 231.449L825.508 233.565ZM884.987 171.969L825.51 231.446L827.632 233.567L887.108 174.091L884.987 171.969ZM887.648 172.565C887.486 172.383 887.322 172.202 887.158 172.021L884.938 174.039C885.096 174.214 885.254 174.389 885.412 174.565L887.648 172.565ZM888.03 290.833L888.03 173.565L885.03 173.565L885.03 290.833L888.03 290.833ZM825.545 231.498L884.904 172.139L882.783 170.017L823.423 229.377L825.545 231.498ZM766.856 191.715C787.852 201.885 806.939 215.377 823.435 231.51L825.533 229.365C808.808 213.009 789.454 199.328 768.164 189.015L766.856 191.715ZM766.01 171.078V190.365H769.01V171.078H766.01ZM883.844 169.578H767.51V172.578H883.844V169.578ZM766.847 194.982C787.045 204.933 805.426 218.013 821.357 233.589L823.454 231.443C807.299 215.649 788.658 202.384 768.173 192.291L766.847 194.982ZM769.01 287.412V193.637H766.01V287.412H769.01ZM821.345 231.455L766.449 286.351L768.571 288.472L823.466 233.577L821.345 231.455ZM766.071 188.969V171.078H763.071V188.969H766.071ZM704.229 172.563C725.274 175.585 745.331 181.661 763.938 190.329L765.204 187.609C746.335 178.82 725.995 172.658 704.656 169.593L704.229 172.563ZM764.571 169.578H704.442V172.578H764.571V169.578ZM642.496 169.578H583.102V172.578H642.496V169.578ZM583.73 189.991C602.131 181.503 621.939 175.545 642.709 172.563L642.283 169.593C621.221 172.618 601.134 178.659 582.474 187.266L583.73 189.991ZM581.602 171.078V188.629H584.602V171.078H581.602ZM581.663 190.011V171.078H578.663V190.011H581.663ZM523.872 231.15C540.475 214.99 559.686 201.498 580.812 191.364L579.514 188.659C558.091 198.935 538.613 212.616 521.78 229L523.872 231.15ZM462.769 172.139L521.766 231.136L523.887 229.014L464.89 170.017L462.769 172.139ZM580.163 169.578H463.829V172.578H580.163V169.578ZM525.95 233.228C541.988 217.624 560.492 204.543 580.821 194.625L579.505 191.928C558.887 201.988 540.122 215.254 523.858 231.078L525.95 233.228ZM581.224 286.351L525.965 231.093L523.844 233.214L579.102 288.472L581.224 286.351ZM578.663 193.276V287.412H581.663V193.276H578.663ZM887.969 384.874V475.976H890.969V384.874H887.969ZM887.969 383.404V384.874H890.969V383.404H887.969ZM908.571 381.904H889.469V384.904H908.571V381.904ZM910.071 475.976V383.404H907.071V475.976H910.071ZM889.469 477.476H908.571V474.476H889.469V477.476ZM456.313 175.174C443.708 190.425 436.133 209.992 436.133 231.323H439.133C439.133 210.715 446.448 191.819 458.626 177.085L456.313 175.174ZM458.969 290.833L458.969 176.129L455.969 176.129L455.969 290.833L458.969 290.833ZM437.633 292.333H457.469V289.333H437.633V292.333ZM436.133 231.323V290.833H439.133V231.323H436.133ZM436.133 293.772V380.466H439.133V293.772H436.133ZM457.469 292.272H437.633V295.272H457.469V292.272ZM458.969 380.466L458.969 293.772L455.969 293.772L455.969 380.466L458.969 380.466ZM437.633 381.966H457.469V378.966H437.633V381.966ZM436.133 383.404V475.976H439.133V383.404H436.133ZM457.469 381.904H437.633V384.904H457.469V381.904ZM458.969 475.976L458.969 383.404L455.969 383.404L455.969 475.976L458.969 475.976ZM437.633 477.476H457.469V474.476H437.633V477.476ZM436.133 478.915V528.874H439.133V478.915H436.133ZM457.469 477.415H437.633V480.415H457.469V477.415ZM458.969 584.067L458.969 478.915L455.969 478.915L455.969 584.067L458.969 584.067ZM436.133 528.874C436.133 550.205 443.708 569.771 456.313 585.023L458.626 583.112C446.448 568.378 439.133 549.482 439.133 528.874H436.133ZM458.908 591.71V592.792H461.908V591.71H458.908ZM462.541 591.722C462.184 591.371 461.829 591.016 461.478 590.659L459.339 592.762C459.702 593.132 460.068 593.498 460.438 593.862L462.541 591.722ZM460.408 594.292H461.49V591.292H460.408V594.292ZM468.177 596.887C483.429 609.492 502.995 617.067 524.326 617.067V614.067C503.718 614.067 484.822 606.752 470.088 594.575L468.177 596.887ZM580.163 594.231H469.133V597.231H580.163V594.231ZM581.663 615.567V595.731H578.663V615.567H581.663ZM524.326 617.067H580.163V614.067H524.326V617.067ZM767.51 617.067H821.877V614.067H767.51V617.067ZM766.01 595.731V615.567H769.01V595.731H766.01ZM877.071 594.231H767.51V597.231H877.071V594.231ZM821.877 617.067C843.209 617.067 862.775 609.492 878.027 596.887L876.115 594.575C861.381 606.752 842.486 614.067 821.877 614.067V617.067ZM884.07 593.44L884.483 593.853L886.604 591.731L886.191 591.319L884.07 593.44ZM885.448 589.915C884.995 590.387 884.536 590.855 884.072 591.317L886.189 593.442C886.669 592.965 887.143 592.482 887.612 591.993L885.448 589.915ZM888.03 592.792V590.954H885.03V592.792H888.03ZM885.543 594.292H886.53V591.292H885.543V594.292ZM890.638 584.106C902.795 568.991 910.071 549.78 910.071 528.874H907.071C907.071 549.072 900.044 567.624 888.3 582.226L890.638 584.106ZM887.969 478.915V583.166H890.969V478.915H887.969ZM908.571 477.415H889.469V480.415H908.571V477.415ZM910.071 528.874V478.915H907.071V528.874H910.071ZM910.071 380.466V293.772H907.071V380.466H910.071ZM889.469 381.966H908.571V378.966H889.469V381.966ZM887.969 293.772V380.466H890.969V293.772H887.969ZM908.571 292.272H889.469V295.272H908.571V292.272ZM910.071 290.833V231.323H907.071V290.833H910.071ZM889.469 292.333H908.571V289.333H889.469V292.333ZM887.969 177.03L887.969 290.833L890.969 290.833L890.969 177.03L887.969 177.03ZM910.071 231.323C910.071 210.417 902.795 191.206 890.638 176.09L888.3 177.97C900.044 192.572 907.071 211.125 907.071 231.323H910.071ZM675.517 381.526L737.215 319.828L735.094 317.706L673.395 379.405L675.517 381.526ZM674.204 381.966H674.456V378.966H674.204V381.966ZM672.704 293.775V380.466H675.704V293.775H672.704ZM737.187 317.679C720.756 302.092 698.608 292.467 674.216 292.275L674.192 295.275C697.794 295.461 719.221 304.771 735.122 319.855L737.187 317.679ZM696.514 295.225C712.015 299.198 725.949 307.086 737.2 317.776L739.267 315.601C727.654 304.567 713.267 296.422 697.259 292.319L696.514 295.225ZM761.15 292.272H696.886V295.272H761.15V292.272ZM739.294 317.749L762.21 294.833L760.089 292.711L737.173 315.628L739.294 317.749ZM763.51 293.446L739.272 317.685L741.393 319.806L765.632 295.567L763.51 293.446ZM766.071 361.457V294.507H763.071V361.457H766.071ZM739.266 319.8C750.617 331.277 758.986 345.706 763.118 361.829L766.024 361.084C761.757 344.433 753.115 329.536 741.399 317.691L739.266 319.8ZM765.965 380.394C764.84 356.792 754.879 335.504 739.321 319.769L737.188 321.878C752.245 337.107 761.88 357.702 762.968 380.537L765.965 380.394ZM678.612 381.966H764.466V378.966H678.612V381.966ZM737.194 319.763L677.551 379.405L679.673 381.526L739.315 321.884L737.194 319.763ZM676.156 384.904H764.559V381.904H676.156V384.904ZM740.993 446.121L677.216 382.344L675.095 384.465L738.872 448.242L740.993 446.121ZM763.071 384.874C763.071 408.578 753.869 430.129 738.838 446.155L741.027 448.207C756.558 431.647 766.071 409.37 766.071 384.874H763.071ZM763.06 383.428C763.067 383.909 763.071 384.391 763.071 384.874H766.071C766.071 384.375 766.067 383.878 766.059 383.381L763.06 383.428ZM743.105 450.288C753.954 438.742 761.966 424.496 766.024 408.663L763.118 407.918C759.189 423.249 751.43 437.048 740.919 448.233L743.105 450.288ZM765.632 470.759L743.072 448.2L740.951 450.321L763.51 472.88L765.632 470.759ZM763.071 408.291V471.82H766.071V408.291H763.071ZM765.632 474.915L741.027 450.31L738.905 452.431L763.51 477.036L765.632 474.915ZM696.886 477.476H764.571V474.476H696.886V477.476ZM738.905 450.31C727.371 461.845 712.807 470.347 696.514 474.523L697.258 477.429C714.086 473.116 729.121 464.337 741.027 452.431L738.905 450.31ZM674.216 477.473C699.491 477.273 722.356 466.946 738.949 450.353L736.827 448.232C720.769 464.29 698.648 474.28 674.192 474.473L674.216 477.473ZM672.704 385.609V475.973H675.704V385.609H672.704ZM738.949 448.232L675.264 384.548L673.143 386.669L736.827 450.353L738.949 448.232ZM669.765 387.813V475.95H672.765V387.813H669.765ZM610.479 450.72L672.326 388.873L670.204 386.752L608.358 448.598L610.479 450.72ZM671.301 474.45C647.602 473.887 626.183 464.125 610.473 448.592L608.364 450.726C624.596 466.775 646.736 476.868 671.229 477.449L671.301 474.45ZM606.286 452.803C618.131 464.52 633.028 473.161 649.68 477.429L650.425 474.523C634.301 470.391 619.872 462.022 608.395 450.671L606.286 452.803ZM584.163 477.036L608.401 452.798L606.28 450.676L582.041 474.915L584.163 477.036ZM650.052 474.476H583.102V477.476H650.052V474.476ZM584.163 472.88L606.344 450.699L604.223 448.577L582.041 470.759L584.163 472.88ZM581.602 410.989V471.82H584.602V410.989H581.602ZM606.371 448.605C596.295 438 588.708 425.011 584.543 410.573L581.661 411.405C585.962 426.315 593.796 439.725 604.196 450.671L606.371 448.605ZM581.614 396.688C584.16 416.683 593.082 434.685 606.274 448.592L608.451 446.527C595.683 433.068 587.053 415.65 584.59 396.309L581.614 396.688ZM581.602 383.404V396.499H584.602V383.404H581.602ZM671.265 381.904H583.102V384.904H671.265V381.904ZM672.765 383.657V383.404H669.765V383.657H672.765ZM608.423 448.62L672.326 384.717L670.204 382.596L606.302 446.499L608.423 448.62ZM584.602 380.466V373.249H581.602V380.466H584.602ZM669.061 378.966H583.102V381.966H669.061V378.966ZM607.99 321.516L668 381.526L670.122 379.405L610.111 319.394L607.99 321.516ZM584.59 373.439C587.158 353.27 596.433 335.194 610.111 321.516L607.99 319.394C593.857 333.527 584.269 352.21 581.614 373.06L584.59 373.439ZM605.912 317.316C594.657 328.571 586.195 342.623 581.661 358.343L584.543 359.175C588.934 343.953 597.128 330.342 608.033 319.438L605.912 317.316ZM582.041 295.567L605.912 319.438L608.033 317.316L584.163 293.446L582.041 295.567ZM584.602 358.759L584.602 294.507L581.602 294.507L581.602 358.759L584.602 358.759ZM585.462 294.833L608.022 317.392L610.143 315.271L587.584 292.711L585.462 294.833ZM650.052 292.272H586.523V295.272H650.052V292.272ZM610.11 317.424C621.295 306.913 635.094 299.154 650.425 295.225L649.68 292.319C633.847 296.377 619.601 304.389 608.055 315.238L610.11 317.424ZM671.229 292.298C647.616 292.859 626.189 302.26 610.135 317.316L612.188 319.504C627.724 304.934 648.453 295.84 671.301 295.298L671.229 292.298ZM672.765 378.514V293.798H669.765V378.514H672.765ZM610.101 319.471L670.204 379.574L672.326 377.453L612.222 317.35L610.101 319.471Z" fill="#AEBFFF"></path></g><path style="fill:var(--color-illustrationPalette020)" fill-rule="evenodd" clip-rule="evenodd" d="M843.166 262.214C863.41 264.701 873.042 286.308 872.899 314.834L873 314.754C839.782 341.602 774.365 359.968 710.097 325.041L710.164 324.945C719.636 329.954 729.647 333.818 741.417 335.263C755.836 337.035 767.422 329.106 777.934 317.878L778.683 317.071C778.807 316.935 778.932 316.799 779.056 316.663L779.8 315.84L780.54 315.006L781.278 314.164L782.012 313.312C782.134 313.169 782.256 313.026 782.378 312.883L783.108 312.019L783.836 311.147L784.719 310.075C784.866 309.895 785.013 309.715 785.16 309.535L786.258 308.176L787.351 306.804L788.222 305.699L789.091 304.588L789.958 303.472L791.254 301.791L793.48 298.885L796.164 295.369L797.846 293.179L799.108 291.547L800.371 289.928L801.215 288.858L802.061 287.796L802.908 286.742L803.757 285.699L804.607 284.666L805.29 283.847L805.974 283.037L806.66 282.235L807.348 281.442C807.462 281.31 807.577 281.179 807.692 281.049L808.383 280.269C808.498 280.14 808.614 280.012 808.729 279.883L809.423 279.119C809.771 278.739 810.119 278.364 810.469 277.992L811.169 277.255C811.52 276.89 811.872 276.528 812.225 276.172L812.932 275.465C821.909 266.588 831.609 260.794 843.166 262.214Z"></path><path style="fill:var(--color-illustrationPalette050)" fill-rule="evenodd" clip-rule="evenodd" d="M631.173 430.95C631.173 430.95 631.173 430.95 631.242 431.026C622.699 426.991 613.82 423.948 603.937 422.734C593.438 421.444 584.336 425.819 575.935 432.988L575.273 433.56C574.943 433.849 574.614 434.142 574.286 434.439L573.631 435.038L572.979 435.648C572.436 436.161 571.897 436.684 571.359 437.217L570.716 437.861L570.075 438.514L569.436 439.177C569.329 439.288 569.223 439.399 569.117 439.511L568.481 440.186C568.375 440.299 568.27 440.412 568.164 440.526L567.411 441.344C567.161 441.619 566.91 441.895 566.661 442.173L565.913 443.012C565.789 443.153 565.664 443.294 565.54 443.436L564.796 444.289L564.054 445.15L563.315 446.021L562.577 446.898L562.209 447.34L561.302 448.438L560.849 448.99L559.946 450.101L559.495 450.66L558.595 451.783L557.697 452.913L556.352 454.618L554.563 456.904L550.509 462.112L549.17 463.826L547.828 465.531L546.933 466.661L545.587 468.344L544.688 469.456L543.786 470.559L542.883 471.652L541.977 472.734L541.269 473.57L540.558 474.398L539.846 475.218L539.132 476.029L538.416 476.831L537.698 477.623L536.978 478.406L536.616 478.793L535.892 479.559L535.289 480.187L534.684 480.806L534.077 481.417C533.773 481.721 533.469 482.021 533.163 482.318L532.551 482.907L531.937 483.487C531.835 483.583 531.732 483.678 531.629 483.773L531.012 484.339C530.6 484.712 530.186 485.079 529.77 485.439L529.146 485.974C529.041 486.063 528.937 486.15 528.832 486.238L528.204 486.756C520.334 493.17 511.854 496.971 502.188 495.784C482.117 493.318 472.092 472.14 471.585 444.034C509.962 408.154 574.663 403.922 631.173 430.95Z"></path><path style="fill:var(--color-illustrationPalette040)" fill-rule="evenodd" clip-rule="evenodd" d="M724.546 472.733C707.258 470.338 693.048 465.063 680.42 458.784L679.276 458.211C678.896 458.019 678.518 457.826 678.141 457.632L677.014 457.048L675.616 456.312L674.231 455.57L673.13 454.971L671.765 454.219L670.41 453.461L669.334 452.852L668.263 452.24L666.669 451.319L664.563 450.085L662.882 449.089L661.213 448.092L658.73 446.596L653.014 443.131L651.396 442.154L649.38 440.943L647.37 439.748C642.015 436.581 636.697 433.601 631.243 431.025L631.174 430.949C575.228 404.192 510.682 408.601 472.16 443.506L471.586 444.033C470.387 377.521 522.494 272.215 620.926 284.307C638.169 286.426 651.99 291.384 664.069 297.431L665.146 297.975C665.503 298.158 665.859 298.341 666.214 298.525L667.273 299.08L667.799 299.36L668.846 299.922L669.885 300.489L670.915 301.061L671.428 301.348L672.701 302.07L673.963 302.798L674.965 303.384L675.961 303.972L676.95 304.563L677.933 305.157L678.911 305.752L679.883 306.35L680.85 306.949L682.425 307.933L683.208 308.426L684.766 309.412L686.313 310.399L693.183 314.809L694.695 315.775L696.206 316.732L698.092 317.917L699.978 319.085C703.11 321.007 706.252 322.852 709.453 324.568L710.656 325.206C774.141 359.465 838.556 341.901 871.996 315.556L872.899 314.835C872.567 381.009 819.634 484.414 724.546 472.733Z"></path></svg>