<svg id="nksvg" width="1345" height="759" viewBox="0 0 1345 759" fill="none" xmlns="http://www.w3.org/2000/svg">
<rect width="1345" height="759" fill="var(--color-illustrationBackground020)"/>
<path d="M461 379.5C461 279.798 461 229.947 491.973 198.973C522.947 168 572.798 168 672.5 168C772.203 168 822.053 168 853.026 198.973C884 229.947 884 279.798 884 379.5C884 479.203 884 529.053 853.026 560.026C822.053 591 772.203 591 672.5 591C572.798 591 522.947 591 491.973 560.026C461 529.053 461 479.203 461 379.5Z" fill="var(--color-illustrationPalette040)"/>
<path d="M592.499 368.922C554.853 368.553 524.45 337.921 524.45 300.188C524.45 262.225 555.225 231.45 593.187 231.45C630.914 231.45 661.541 261.843 661.921 299.48C661.923 299.647 661.925 299.816 661.925 299.984V334.76C661.925 353.628 646.628 368.925 627.76 368.925H592.984C592.822 368.925 592.66 368.923 592.499 368.922Z" fill="white"/>
<path d="M758.459 379.486C792.873 378.764 820.55 350.639 820.55 316.051C820.55 281.008 792.142 252.601 757.1 252.601C722.516 252.601 694.395 280.269 693.664 314.677C693.655 314.998 693.65 315.32 693.65 315.644V348.183C693.65 365.48 707.671 379.5 724.968 379.5H757.014H757.1H757.186H757.507C757.826 379.5 758.143 379.495 758.459 379.486Z" fill="white"/>
<path d="M673.568 468.245C673.561 468.626 673.558 469.006 673.558 469.387C673.558 501.509 699.599 527.55 731.72 527.55C763.842 527.55 789.883 501.509 789.883 469.387C789.883 437.264 763.842 411.225 731.72 411.225C731.336 411.225 730.953 411.228 730.571 411.235C730.296 411.228 730.019 411.225 729.743 411.225H704.616C687.464 411.225 673.558 425.131 673.558 442.283V467.41C673.558 467.688 673.561 467.968 673.568 468.245Z" fill="white"/>
<path d="M641.776 451.077C641.813 451.888 641.833 452.704 641.833 453.525C641.833 482.727 618.16 506.4 588.958 506.4C559.756 506.4 536.083 482.727 536.083 453.525C536.083 424.323 559.756 400.65 588.958 400.65C589.778 400.65 590.593 400.668 591.404 400.705C592.021 400.668 592.643 400.65 593.269 400.65H611.083C628.066 400.65 641.833 414.417 641.833 431.399V449.214C641.833 449.84 641.813 450.46 641.776 451.077Z" fill="white"/>
</svg>
