<svg id="theme-spacing-block" style="width: 100%; height: 100%" width="1490" height="838" viewBox="0 0 1490 838" fill="none" xmlns="http://www.w3.org/2000/svg" class="css-0"><rect style="fill:var(--color-illustrationBackground020)" width="1490" height="838"></rect><path style="fill:var(--color-illustrationHighlight010)" fill-rule="evenodd" clip-rule="evenodd" d="M482.699 203.106C481.32 203.106 480.02 203.38 478.838 203.869C475.75 205.15 472.209 203.685 470.928 200.597C469.648 197.509 471.113 193.967 474.201 192.687C476.826 191.598 479.7 191 482.699 191H497.271C500.614 191 503.324 193.71 503.324 197.053C503.324 200.396 500.614 203.106 497.271 203.106H482.699ZM520.362 197.053C520.362 193.71 523.072 191 526.415 191H555.56C558.903 191 561.613 193.71 561.613 197.053C561.613 200.396 558.903 203.106 555.56 203.106H526.415C523.072 203.106 520.362 200.396 520.362 197.053ZM578.651 197.053C578.651 193.71 581.361 191 584.704 191H613.849C617.192 191 619.902 193.71 619.902 197.053C619.902 200.396 617.192 203.106 613.849 203.106H584.704C581.361 203.106 578.651 200.396 578.651 197.053ZM636.94 197.053C636.94 193.71 639.651 191 642.994 191H672.138C675.481 191 678.191 193.71 678.191 197.053C678.191 200.396 675.481 203.106 672.138 203.106H642.994C639.651 203.106 636.94 200.396 636.94 197.053ZM695.23 197.053C695.23 193.71 697.94 191 701.283 191H730.427C733.77 191 736.48 193.71 736.48 197.053C736.48 200.396 733.77 203.106 730.427 203.106H701.283C697.94 203.106 695.23 200.396 695.23 197.053ZM753.519 197.053C753.519 193.71 756.229 191 759.572 191H788.716C792.059 191 794.769 193.71 794.769 197.053C794.769 200.396 792.059 203.106 788.716 203.106H759.572C756.229 203.106 753.519 200.396 753.519 197.053ZM811.808 197.053C811.808 193.71 814.518 191 817.861 191H847.005C850.348 191 853.058 193.71 853.058 197.053C853.058 200.396 850.348 203.106 847.005 203.106H817.861C814.518 203.106 811.808 200.396 811.808 197.053ZM870.097 197.053C870.097 193.71 872.807 191 876.15 191H905.294C908.637 191 911.348 193.71 911.348 197.053C911.348 200.396 908.637 203.106 905.294 203.106H876.15C872.807 203.106 870.097 200.396 870.097 197.053ZM928.386 197.053C928.386 193.71 931.096 191 934.439 191H963.583C966.927 191 969.637 193.71 969.637 197.053C969.637 200.396 966.927 203.106 963.583 203.106H934.439C931.096 203.106 928.386 200.396 928.386 197.053ZM986.675 197.053C986.675 193.71 989.385 191 992.728 191H1007.3C1010.3 191 1013.17 191.598 1015.8 192.687C1018.89 193.967 1020.35 197.509 1019.07 200.597C1017.79 203.685 1014.25 205.15 1011.16 203.869C1009.98 203.38 1008.68 203.106 1007.3 203.106H992.728C989.385 203.106 986.675 200.396 986.675 197.053ZM1019.9 201.424C1022.99 200.144 1026.53 201.609 1027.81 204.697C1028.9 207.323 1029.49 210.196 1029.49 213.195V227.895C1029.49 231.238 1026.79 233.948 1023.44 233.948C1020.1 233.948 1017.39 231.238 1017.39 227.895V213.195C1017.39 211.816 1017.12 210.516 1016.63 209.335C1015.35 206.246 1016.81 202.705 1019.9 201.424ZM470.1 201.424C473.189 202.705 474.654 206.247 473.373 209.335C472.883 210.516 472.61 211.816 472.61 213.195V227.895C472.61 231.238 469.9 233.948 466.557 233.948C463.214 233.948 460.504 231.238 460.504 227.895V213.195C460.504 210.196 461.102 207.323 462.19 204.697C463.471 201.609 467.012 200.144 470.1 201.424ZM1023.44 251.243C1026.79 251.243 1029.49 253.953 1029.49 257.296V286.697C1029.49 290.04 1026.79 292.75 1023.44 292.75C1020.1 292.75 1017.39 290.04 1017.39 286.697V257.296C1017.39 253.953 1020.1 251.243 1023.44 251.243ZM466.557 251.243C469.9 251.243 472.61 253.953 472.61 257.296V286.697C472.61 290.04 469.9 292.75 466.557 292.75C463.214 292.75 460.504 290.04 460.504 286.697V257.296C460.504 253.953 463.214 251.243 466.557 251.243ZM1023.44 310.044C1026.79 310.044 1029.49 312.754 1029.49 316.097V345.498C1029.49 348.841 1026.79 351.551 1023.44 351.551C1020.1 351.551 1017.39 348.841 1017.39 345.498V316.097C1017.39 312.754 1020.1 310.044 1023.44 310.044ZM466.557 310.044C469.9 310.044 472.61 312.754 472.61 316.097V345.498C472.61 348.841 469.9 351.551 466.557 351.551C463.214 351.551 460.504 348.841 460.504 345.498V316.097C460.504 312.754 463.214 310.044 466.557 310.044ZM1023.44 368.846C1026.79 368.846 1029.49 371.556 1029.49 374.899V404.3C1029.49 407.643 1026.79 410.353 1023.44 410.353C1020.1 410.353 1017.39 407.643 1017.39 404.3V374.899C1017.39 371.556 1020.1 368.846 1023.44 368.846ZM466.557 368.846C469.9 368.846 472.61 371.556 472.61 374.899V404.3C472.61 407.643 469.9 410.353 466.557 410.353C463.214 410.353 460.504 407.643 460.504 404.3V374.899C460.504 371.556 463.214 368.846 466.557 368.846ZM1023.44 427.647C1026.79 427.647 1029.49 430.357 1029.49 433.7V463.101C1029.49 466.444 1026.79 469.154 1023.44 469.154C1020.1 469.154 1017.39 466.444 1017.39 463.101V433.7C1017.39 430.357 1020.1 427.647 1023.44 427.647ZM466.557 427.647C469.9 427.647 472.61 430.357 472.61 433.7V463.101C472.61 466.444 469.9 469.154 466.557 469.154C463.214 469.154 460.504 466.444 460.504 463.101V433.7C460.504 430.357 463.214 427.647 466.557 427.647ZM1023.44 486.449C1026.79 486.449 1029.49 489.159 1029.49 492.502V521.903C1029.49 525.246 1026.79 527.956 1023.44 527.956C1020.1 527.956 1017.39 525.246 1017.39 521.903V492.502C1017.39 489.159 1020.1 486.449 1023.44 486.449ZM466.557 486.449C469.9 486.449 472.61 489.159 472.61 492.502V521.903C472.61 525.246 469.9 527.956 466.557 527.956C463.214 527.956 460.504 525.246 460.504 521.903V492.502C460.504 489.159 463.214 486.449 466.557 486.449ZM1023.44 545.25C1026.79 545.25 1029.49 547.96 1029.49 551.303V580.704C1029.49 584.047 1026.79 586.757 1023.44 586.757C1020.1 586.757 1017.39 584.047 1017.39 580.704V551.303C1017.39 547.96 1020.1 545.25 1023.44 545.25ZM466.557 545.25C469.9 545.25 472.61 547.96 472.61 551.303V580.704C472.61 584.047 469.9 586.757 466.557 586.757C463.214 586.757 460.504 584.047 460.504 580.704V551.303C460.504 547.96 463.214 545.25 466.557 545.25ZM1023.44 604.052C1026.79 604.052 1029.49 606.762 1029.49 610.105V624.805C1029.49 627.804 1028.9 630.677 1027.81 633.303C1026.53 636.391 1022.99 637.856 1019.9 636.576C1016.81 635.295 1015.35 631.753 1016.63 628.665C1017.12 627.484 1017.39 626.184 1017.39 624.805V610.105C1017.39 606.762 1020.1 604.052 1023.44 604.052ZM466.557 604.052C469.9 604.052 472.61 606.762 472.61 610.105V624.805C472.61 626.184 472.883 627.484 473.373 628.665C474.654 631.753 473.189 635.295 470.1 636.576C467.012 637.856 463.471 636.391 462.19 633.303C461.102 630.677 460.504 627.804 460.504 624.805V610.105C460.504 606.762 463.214 604.052 466.557 604.052ZM470.928 637.403C472.209 634.315 475.75 632.85 478.838 634.131C480.02 634.62 481.32 634.894 482.699 634.894H497.271C500.614 634.894 503.324 637.604 503.324 640.947C503.324 644.29 500.614 647 497.271 647H482.699C479.7 647 476.826 646.402 474.201 645.313C471.113 644.033 469.648 640.491 470.928 637.403ZM1019.07 637.403C1020.35 640.491 1018.89 644.033 1015.8 645.313C1013.17 646.402 1010.3 647 1007.3 647H992.728C989.385 647 986.675 644.29 986.675 640.947C986.675 637.604 989.385 634.894 992.728 634.894H1007.3C1008.68 634.894 1009.98 634.62 1011.16 634.131C1014.25 632.85 1017.79 634.315 1019.07 637.403ZM520.362 640.947C520.362 637.604 523.072 634.894 526.415 634.894H555.56C558.903 634.894 561.613 637.604 561.613 640.947C561.613 644.29 558.903 647 555.56 647H526.415C523.072 647 520.362 644.29 520.362 640.947ZM578.651 640.947C578.651 637.604 581.361 634.894 584.705 634.894H613.849C617.192 634.894 619.902 637.604 619.902 640.947C619.902 644.29 617.192 647 613.849 647H584.705C581.361 647 578.651 644.29 578.651 640.947ZM636.94 640.947C636.94 637.604 639.651 634.894 642.994 634.894H672.138C675.481 634.894 678.191 637.604 678.191 640.947C678.191 644.29 675.481 647 672.138 647H642.994C639.651 647 636.94 644.29 636.94 640.947ZM695.23 640.947C695.23 637.604 697.94 634.894 701.283 634.894H730.427C733.77 634.894 736.48 637.604 736.48 640.947C736.48 644.29 733.77 647 730.427 647H701.283C697.94 647 695.23 644.29 695.23 640.947ZM753.519 640.947C753.519 637.604 756.229 634.894 759.572 634.894H788.716C792.059 634.894 794.769 637.604 794.769 640.947C794.769 644.29 792.059 647 788.716 647H759.572C756.229 647 753.519 644.29 753.519 640.947ZM811.808 640.947C811.808 637.604 814.518 634.894 817.861 634.894H847.005C850.348 634.894 853.058 637.604 853.058 640.947C853.058 644.29 850.348 647 847.005 647H817.861C814.518 647 811.808 644.29 811.808 640.947ZM870.097 640.947C870.097 637.604 872.807 634.894 876.15 634.894H905.294C908.637 634.894 911.348 637.604 911.348 640.947C911.348 644.29 908.637 647 905.294 647H876.15C872.807 647 870.097 644.29 870.097 640.947ZM928.386 640.947C928.386 637.604 931.096 634.894 934.439 634.894H963.584C966.927 634.894 969.637 637.604 969.637 640.947C969.637 644.29 966.927 647 963.584 647H934.439C931.096 647 928.386 644.29 928.386 640.947Z"></path><path style="fill:var(--color-illustrationInterface050)" d="M564.922 298.947C564.922 292.261 570.342 286.841 577.028 286.841H912.471C919.157 286.841 924.577 292.261 924.577 298.947V539.053C924.577 545.739 919.157 551.159 912.471 551.159H577.028C570.342 551.159 564.922 545.739 564.922 539.053V298.947Z"></path><path style="fill:var(--color-white)" d="M728.559 396.705V380.664H756.504V454.31H738.546V396.705H728.559Z"></path><path style="fill:var(--color-green030)" opacity="0.6" d="M489.762 567.805H1000.24V618.683H489.762V567.805Z"></path><path style="fill:var(--color-green030)" opacity="0.6" d="M489.762 219.248H1000.24V270.126H489.762V219.248Z"></path><path style="fill:var(--color-red020)" opacity="0.6" d="M489.762 289.363H540.204V548.133H489.762V289.363Z"></path><path style="fill:var(--color-red020)" opacity="0.6" d="M949.293 289.363H999.735V548.133H949.293V289.363Z"></path></svg>