<svg id="theme-spacing-overview" style="width: 100%; height: 100%" width="1490" height="600" viewBox="0 0 1490 600" fill="none" xmlns="http://www.w3.org/2000/svg" class="css-0"><g clip-path="url(#nk-628)"><path style="fill:var(--color-illustrationBackground020)" d="M0 2.86396C0 1.28224 1.7912 0 4.00075 0H1487C1489.21 0 1491 1.28223 1491 2.86395V597.136C1491 598.718 1489.21 600 1487 600H4.00077C1.79122 600 0 598.718 0 597.136V2.86396Z"></path><g filter="url(#nk-629)"><path style="fill:var(--color-illustrationPalette070)" d="M1642.63 69.3811C1642.63 114.048 1587.83 150.257 1520.23 150.257C1452.62 150.257 1397.82 114.048 1397.82 69.3811C1397.82 24.7144 1452.62 -11.4951 1520.23 -11.4951C1587.83 -11.4951 1642.63 24.7144 1642.63 69.3811Z"></path><g style="mix-blend-mode:multiply" opacity="0.22"><path style="fill:var(--color-illustrationGradient010)" d="M1642.63 69.3811C1642.63 114.048 1587.83 150.257 1520.23 150.257C1452.62 150.257 1397.82 114.048 1397.82 69.3811C1397.82 24.7144 1452.62 -11.4951 1520.23 -11.4951C1587.83 -11.4951 1642.63 24.7144 1642.63 69.3811Z"></path></g><g filter="url(#nk-630)"><path style="fill:var(--color-illustrationInterface060)" fill-rule="evenodd" clip-rule="evenodd" d="M1520.23 226.761C1671.13 226.761 1793.46 156.3 1793.46 69.3806C1793.46 -17.5383 1671.13 -88 1520.23 -88C1369.33 -88 1247 -17.5383 1247 69.3806C1247 156.3 1369.33 226.761 1520.23 226.761ZM1520.23 150.257C1587.83 150.257 1642.63 114.047 1642.63 69.3806C1642.63 24.714 1587.83 -11.4955 1520.23 -11.4955C1452.62 -11.4955 1397.82 24.714 1397.82 69.3806C1397.82 114.047 1452.62 150.257 1520.23 150.257Z"></path></g><g opacity="0.1" filter="url(#nk-631)"><path style="fill:var(--color-illustrationGradient010)" fill-rule="evenodd" clip-rule="evenodd" d="M1520.23 226.761C1671.13 226.761 1793.46 156.3 1793.46 69.3806C1793.46 -17.5383 1671.13 -88 1520.23 -88C1369.33 -88 1247 -17.5383 1247 69.3806C1247 156.3 1369.33 226.761 1520.23 226.761ZM1520.23 150.257C1587.83 150.257 1642.63 114.047 1642.63 69.3806C1642.63 24.714 1587.83 -11.4955 1520.23 -11.4955C1452.62 -11.4955 1397.82 24.714 1397.82 69.3806C1397.82 114.047 1452.62 150.257 1520.23 150.257Z"></path></g><path style="fill:var(--color-illustrationInterface020)" d="M1247 218.018V69.3809C1247 164.684 1406.56 208.182 1486.35 218.018H1247Z"></path><g style="mix-blend-mode:multiply" opacity="0.08"><path style="fill:var(--color-illustrationGradient010)" d="M1247 218.018V69.3809C1247 164.684 1406.56 208.182 1486.35 218.018H1247Z"></path></g><path style="fill:var(--color-illustrationInterface010)" d="M1487.43 206.415C1630.01 206.415 1672.12 138.805 1675.35 105V321.253C1675.35 351.826 1608.24 400.297 1495.64 408.499L232.348 408.572C224.964 408.532 219 402.535 219 395.151V220.574C219 213.165 224.81 207.157 232.219 207.152C356.62 207.067 1320.77 206.415 1487.43 206.415Z"></path><path style="fill:var(--color-illustrationBorder020)" d="M218.719 407.963V208.037C218.719 205.807 220.505 204 222.734 204C234.148 204.002 262.537 204.008 272.646 204.01C274.725 204.011 276.438 205.585 276.576 207.659C277.227 217.394 278.271 244.002 271.314 255.093C270.847 255.838 270.548 256.682 270.548 257.561V356.449C270.548 357.633 271.087 358.732 271.857 359.631C281.783 371.211 282.783 410.963 270.676 411.991C270.593 411.998 270.509 412 270.426 412H222.747C220.518 412 218.719 410.193 218.719 407.963Z"></path><path style="fill:var(--color-illustrationHighlight010)" d="M313.578 222.796H316.182V274.878H313.578V222.796Z"></path><path style="fill:var(--color-illustrationHighlight010)" d="M428.156 222.796H430.76V254.045H428.156V222.796Z"></path><path style="fill:var(--color-illustrationHighlight010)" d="M442.48 222.796H445.085V254.045H442.48V222.796Z"></path><path style="fill:var(--color-illustrationHighlight010)" d="M413.836 222.796H416.44V254.045H413.836V222.796Z"></path><path style="fill:var(--color-illustrationHighlight010)" d="M399.516 222.796H402.12V254.045H399.516V222.796Z"></path><path style="fill:var(--color-illustrationHighlight010)" d="M385.191 222.796H387.795V254.045H385.191V222.796Z"></path><path style="fill:var(--color-illustrationHighlight010)" d="M370.871 222.796H373.475V254.045H370.871V222.796Z"></path><path style="fill:var(--color-illustrationHighlight010)" d="M356.547 222.796H359.151V254.045H356.547V222.796Z"></path><path style="fill:var(--color-illustrationHighlight010)" d="M342.223 222.796H344.827V254.045H342.223V222.796Z"></path><path style="fill:var(--color-illustrationHighlight010)" d="M327.902 222.796H330.506V254.045H327.902V222.796Z"></path><path style="fill:var(--color-illustrationHighlight010)" d="M456.805 222.796H459.409V274.878H456.805V222.796Z"></path><path style="fill:var(--color-illustrationHighlight010)" d="M571.379 222.796H573.983V254.045H571.379V222.796Z"></path><path style="fill:var(--color-illustrationHighlight010)" d="M585.703 222.796H588.307V254.045H585.703V222.796Z"></path><path style="fill:var(--color-illustrationHighlight010)" d="M557.055 222.796H559.659V254.045H557.055V222.796Z"></path><path style="fill:var(--color-illustrationHighlight010)" d="M542.734 222.796H545.338V254.045H542.734V222.796Z"></path><path style="fill:var(--color-illustrationHighlight010)" d="M528.414 222.796H531.018V254.045H528.414V222.796Z"></path><path style="fill:var(--color-illustrationHighlight010)" d="M514.09 222.796H516.694V254.045H514.09V222.796Z"></path><path style="fill:var(--color-illustrationHighlight010)" d="M499.77 222.796H502.374V254.045H499.77V222.796Z"></path><path style="fill:var(--color-illustrationHighlight010)" d="M485.445 222.796H488.049V254.045H485.445V222.796Z"></path><path style="fill:var(--color-illustrationHighlight010)" d="M471.125 222.796H473.729V254.045H471.125V222.796Z"></path><path style="fill:var(--color-illustrationHighlight010)" d="M600.023 222.796H602.627V274.877H600.023V222.796Z"></path><path style="fill:var(--color-illustrationHighlight010)" d="M714.605 222.796H717.21V254.045H714.605V222.796Z"></path><path style="fill:var(--color-illustrationHighlight010)" d="M728.926 222.796H731.53V254.045H728.926V222.796Z"></path><path style="fill:var(--color-illustrationHighlight010)" d="M700.281 222.796H702.885V254.045H700.281V222.796Z"></path><path style="fill:var(--color-illustrationHighlight010)" d="M685.961 222.796H688.565V254.045H685.961V222.796Z"></path><path style="fill:var(--color-illustrationHighlight010)" d="M671.637 222.796H674.241V254.045H671.637V222.796Z"></path><path style="fill:var(--color-illustrationHighlight010)" d="M657.312 222.796H659.917V254.045H657.312V222.796Z"></path><path style="fill:var(--color-illustrationHighlight010)" d="M642.992 222.796H645.596V254.045H642.992V222.796Z"></path><path style="fill:var(--color-illustrationHighlight010)" d="M628.668 222.796H631.272V254.045H628.668V222.796Z"></path><path style="fill:var(--color-illustrationHighlight010)" d="M614.348 222.796H616.952V254.045H614.348V222.796Z"></path><path style="fill:var(--color-illustrationHighlight010)" d="M743.25 222.796H745.854V274.878H743.25V222.796Z"></path><path style="fill:var(--color-illustrationHighlight010)" d="M857.828 222.796H860.432V254.045H857.828V222.796Z"></path><path style="fill:var(--color-illustrationHighlight010)" d="M872.152 222.796H874.756V254.045H872.152V222.796Z"></path><path style="fill:var(--color-illustrationHighlight010)" d="M843.504 222.796H846.108V254.045H843.504V222.796Z"></path><path style="fill:var(--color-illustrationHighlight010)" d="M829.184 222.796H831.788V254.045H829.184V222.796Z"></path><path style="fill:var(--color-illustrationHighlight010)" d="M814.863 222.796H817.467V254.045H814.863V222.796Z"></path><path style="fill:var(--color-illustrationHighlight010)" d="M800.539 222.796H803.143V254.045H800.539V222.796Z"></path><path style="fill:var(--color-illustrationHighlight010)" d="M786.223 222.796H788.827V254.045H786.223V222.796Z"></path><path style="fill:var(--color-illustrationHighlight010)" d="M771.895 222.796H774.499V254.045H771.895V222.796Z"></path><path style="fill:var(--color-illustrationHighlight010)" d="M757.57 222.796H760.174V254.045H757.57V222.796Z"></path><path style="fill:var(--color-illustrationHighlight010)" d="M886.477 222.796H889.081V274.878H886.477V222.796Z"></path><path style="fill:var(--color-illustrationHighlight010)" d="M1001.05 222.796H1003.66V254.045H1001.05V222.796Z"></path><path style="fill:var(--color-illustrationHighlight010)" d="M1015.38 222.796H1017.98V254.045H1015.38V222.796Z"></path><path style="fill:var(--color-illustrationHighlight010)" d="M986.734 222.796H989.338V254.045H986.734V222.796Z"></path><path style="fill:var(--color-illustrationHighlight010)" d="M972.406 222.796H975.01V254.045H972.406V222.796Z"></path><path style="fill:var(--color-illustrationHighlight010)" d="M958.086 222.796H960.69V254.045H958.086V222.796Z"></path><path style="fill:var(--color-illustrationHighlight010)" d="M943.762 222.796H946.366V254.045H943.762V222.796Z"></path><path style="fill:var(--color-illustrationHighlight010)" d="M929.441 222.796H932.045V254.045H929.441V222.796Z"></path><path style="fill:var(--color-illustrationHighlight010)" d="M915.117 222.796H917.721V254.045H915.117V222.796Z"></path><path style="fill:var(--color-illustrationHighlight010)" d="M900.793 222.796H903.397V254.045H900.793V222.796Z"></path><path style="fill:var(--color-illustrationHighlight010)" d="M1029.7 222.796H1032.3V274.878H1029.7V222.796Z"></path><path style="fill:var(--color-illustrationHighlight010)" d="M1144.28 222.796H1146.88V254.045H1144.28V222.796Z"></path><path style="fill:var(--color-illustrationHighlight010)" d="M1158.6 222.796H1161.2V254.045H1158.6V222.796Z"></path><path style="fill:var(--color-illustrationHighlight010)" d="M1129.96 222.796H1132.56V254.045H1129.96V222.796Z"></path><path style="fill:var(--color-illustrationHighlight010)" d="M1115.63 222.796H1118.24V254.045H1115.63V222.796Z"></path><path style="fill:var(--color-illustrationHighlight010)" d="M1101.31 222.796H1103.92V254.045H1101.31V222.796Z"></path><path style="fill:var(--color-illustrationHighlight010)" d="M1086.98 222.796H1089.59V254.045H1086.98V222.796Z"></path><path style="fill:var(--color-illustrationHighlight010)" d="M1072.67 222.796H1075.27V254.045H1072.67V222.796Z"></path><path style="fill:var(--color-illustrationHighlight010)" d="M1058.34 222.796H1060.95V254.045H1058.34V222.796Z"></path><path style="fill:var(--color-illustrationHighlight010)" d="M1044.02 222.796H1046.62V254.045H1044.02V222.796Z"></path><path style="fill:var(--color-illustrationHighlight010)" d="M1172.93 222.795H1175.53V274.876H1172.93V222.795Z"></path><path style="fill:var(--color-illustrationHighlight010)" d="M1287.5 222.795H1290.1V254.044H1287.5V222.795Z"></path><path style="fill:var(--color-illustrationHighlight010)" d="M1301.82 222.795H1304.42V254.044H1301.82V222.795Z"></path><path style="fill:var(--color-illustrationHighlight010)" d="M1273.18 222.795H1275.79V254.044H1273.18V222.795Z"></path><path style="fill:var(--color-illustrationHighlight010)" d="M1258.86 222.795H1261.46V254.044H1258.86V222.795Z"></path><path style="fill:var(--color-illustrationHighlight010)" d="M1244.54 222.795H1247.14V254.044H1244.54V222.795Z"></path><path style="fill:var(--color-illustrationHighlight010)" d="M1230.21 222.795H1232.82V254.044H1230.21V222.795Z"></path><path style="fill:var(--color-illustrationHighlight010)" d="M1215.89 222.795H1218.5V254.044H1215.89V222.795Z"></path><path style="fill:var(--color-illustrationHighlight010)" d="M1201.57 222.795H1204.17V254.044H1201.57V222.795Z"></path><path style="fill:var(--color-illustrationHighlight010)" d="M1187.24 222.795H1189.85V254.044H1187.24V222.795Z"></path><path style="fill:var(--color-illustrationHighlight010)" d="M1316.14 222.796H1318.75V274.878H1316.14V222.796Z"></path><path style="fill:var(--color-illustrationHighlight010)" d="M1430.73 222.796H1433.33V254.045H1430.73V222.796Z"></path><path style="fill:var(--color-illustrationHighlight010)" d="M1445.05 222.796H1447.65V254.045H1445.05V222.796Z"></path><path style="fill:var(--color-illustrationHighlight010)" d="M1416.4 222.796H1419.01V254.045H1416.4V222.796Z"></path><path style="fill:var(--color-illustrationHighlight010)" d="M1402.08 222.796H1404.69V254.045H1402.08V222.796Z"></path><path style="fill:var(--color-illustrationHighlight010)" d="M1387.75 222.796H1390.36V254.045H1387.75V222.796Z"></path><path style="fill:var(--color-illustrationHighlight010)" d="M1373.44 222.796H1376.04V254.045H1373.44V222.796Z"></path><path style="fill:var(--color-illustrationHighlight010)" d="M1359.11 222.796H1361.72V254.045H1359.11V222.796Z"></path><path style="fill:var(--color-illustrationHighlight010)" d="M1344.79 222.796H1347.39V254.045H1344.79V222.796Z"></path><path style="fill:var(--color-illustrationHighlight010)" d="M1330.47 222.796H1333.07V254.045H1330.47V222.796Z"></path><path style="fill:var(--color-illustrationHighlight010)" d="M1459.37 222.795H1461.97V274.876H1459.37V222.795Z"></path><path style="fill:var(--color-illustrationHighlight010)" d="M1488.01 222.795H1490.62V254.044H1488.01V222.795Z"></path><path style="fill:var(--color-illustrationHighlight010)" d="M1473.69 222.795H1476.3V254.044H1473.69V222.795Z"></path><path style="fill:var(--color-illustrationHighlight010)" d="M439.238 307.428V305.102L446.15 295.21H449.596V304.849H451.456V307.428H449.596V310.429H446.637V307.428H439.238ZM446.827 298.381L442.494 304.849H446.827V298.381Z"></path><path style="fill:var(--color-illustrationHighlight010)" d="M456.638 300.41C457.018 299.874 457.539 299.43 458.202 299.078C458.878 298.712 459.646 298.529 460.506 298.529C461.506 298.529 462.408 298.775 463.211 299.268C464.029 299.762 464.67 300.466 465.135 301.382C465.614 302.284 465.854 303.334 465.854 304.532C465.854 305.73 465.614 306.793 465.135 307.724C464.67 308.64 464.029 309.351 463.211 309.858C462.408 310.366 461.506 310.619 460.506 310.619C459.646 310.619 458.885 310.443 458.223 310.091C457.575 309.739 457.046 309.295 456.638 308.759V316.01H453.678V298.719H456.638V300.41ZM462.831 304.532C462.831 303.827 462.683 303.221 462.387 302.714C462.105 302.192 461.725 301.798 461.246 301.53C460.781 301.262 460.273 301.129 459.724 301.129C459.188 301.129 458.681 301.269 458.202 301.551C457.737 301.819 457.356 302.214 457.06 302.735C456.778 303.256 456.638 303.869 456.638 304.574C456.638 305.279 456.778 305.892 457.06 306.413C457.356 306.934 457.737 307.336 458.202 307.618C458.681 307.886 459.188 308.019 459.724 308.019C460.273 308.019 460.781 307.879 461.246 307.597C461.725 307.315 462.105 306.913 462.387 306.392C462.683 305.87 462.831 305.25 462.831 304.532Z"></path><path style="fill:var(--color-illustrationHighlight010)" d="M474.472 310.429L472.063 306.793L469.928 310.429H466.757L470.583 304.553L466.715 298.719H470.054L472.443 302.333L474.599 298.719H477.77L473.923 304.553L477.812 310.429H474.472Z"></path><path style="fill:var(--color-illustrationHighlight010)" d="M585.364 302.269C583.955 301.537 583.25 300.402 583.25 298.866C583.25 298.105 583.44 297.415 583.821 296.795C584.215 296.161 584.8 295.66 585.575 295.294C586.364 294.913 587.323 294.723 588.45 294.723C589.577 294.723 590.528 294.913 591.303 295.294C592.093 295.66 592.677 296.161 593.058 296.795C593.452 297.415 593.65 298.105 593.65 298.866C593.65 299.641 593.46 300.325 593.079 300.917C592.699 301.494 592.191 301.945 591.557 302.269C592.332 302.608 592.938 303.101 593.375 303.749C593.812 304.397 594.03 305.165 594.03 306.053C594.03 307.011 593.784 307.85 593.29 308.568C592.811 309.273 592.149 309.816 591.303 310.196C590.458 310.577 589.507 310.767 588.45 310.767C587.393 310.767 586.442 310.577 585.596 310.196C584.765 309.816 584.103 309.273 583.609 308.568C583.13 307.85 582.891 307.011 582.891 306.053C582.891 305.165 583.109 304.397 583.546 303.749C583.983 303.087 584.589 302.593 585.364 302.269ZM590.775 299.289C590.775 298.598 590.564 298.063 590.141 297.682C589.732 297.302 589.169 297.112 588.45 297.112C587.745 297.112 587.182 297.302 586.759 297.682C586.35 298.063 586.146 298.605 586.146 299.31C586.146 299.944 586.357 300.451 586.78 300.832C587.217 301.212 587.773 301.403 588.45 301.403C589.126 301.403 589.683 301.212 590.12 300.832C590.557 300.437 590.775 299.923 590.775 299.289ZM588.45 303.559C587.647 303.559 586.991 303.763 586.484 304.172C585.991 304.58 585.744 305.165 585.744 305.926C585.744 306.631 585.984 307.209 586.463 307.66C586.956 308.096 587.618 308.315 588.45 308.315C589.281 308.315 589.937 308.089 590.416 307.638C590.895 307.187 591.134 306.617 591.134 305.926C591.134 305.179 590.888 304.602 590.395 304.193C589.901 303.77 589.253 303.559 588.45 303.559Z"></path><path style="fill:var(--color-illustrationHighlight010)" d="M599.665 300.409C600.046 299.874 600.567 299.43 601.229 299.078C601.906 298.711 602.674 298.528 603.533 298.528C604.534 298.528 605.436 298.775 606.239 299.268C607.056 299.761 607.698 300.466 608.163 301.382C608.642 302.283 608.881 303.333 608.881 304.531C608.881 305.729 608.642 306.793 608.163 307.723C607.698 308.639 607.056 309.351 606.239 309.858C605.436 310.365 604.534 310.619 603.533 310.619C602.674 310.619 601.913 310.443 601.25 310.09C600.602 309.738 600.074 309.294 599.665 308.759V316.009H596.706V298.718H599.665V300.409ZM605.859 304.531C605.859 303.827 605.711 303.221 605.415 302.713C605.133 302.192 604.752 301.797 604.273 301.53C603.808 301.262 603.301 301.128 602.751 301.128C602.216 301.128 601.708 301.269 601.229 301.551C600.764 301.818 600.384 302.213 600.088 302.734C599.806 303.256 599.665 303.869 599.665 304.573C599.665 305.278 599.806 305.891 600.088 306.412C600.384 306.934 600.764 307.335 601.229 307.617C601.708 307.885 602.216 308.019 602.751 308.019C603.301 308.019 603.808 307.878 604.273 307.596C604.752 307.314 605.133 306.913 605.415 306.391C605.711 305.87 605.859 305.25 605.859 304.531Z"></path><path style="fill:var(--color-illustrationHighlight010)" d="M617.5 310.429L615.09 306.793L612.955 310.429H609.785L613.611 304.552L609.742 298.718H613.082L615.471 302.333L617.627 298.718H620.797L616.95 304.552L620.84 310.429H617.5Z"></path><path style="fill:var(--color-illustrationHighlight010)" d="M723.191 297.746V295.019H728.286V310.429H725.242V297.746H723.191Z"></path><path style="fill:var(--color-illustrationHighlight010)" d="M732.139 307.089C733.492 305.962 734.57 305.025 735.373 304.278C736.176 303.517 736.846 302.728 737.381 301.91C737.917 301.093 738.185 300.29 738.185 299.501C738.185 298.782 738.015 298.218 737.677 297.81C737.339 297.401 736.818 297.197 736.113 297.197C735.408 297.197 734.866 297.436 734.485 297.915C734.105 298.38 733.908 299.021 733.894 299.839H731.019C731.075 298.148 731.575 296.865 732.52 295.992C733.478 295.118 734.69 294.681 736.155 294.681C737.762 294.681 738.995 295.111 739.854 295.971C740.714 296.816 741.144 297.936 741.144 299.331C741.144 300.431 740.848 301.48 740.256 302.481C739.664 303.482 738.988 304.355 738.227 305.102C737.466 305.835 736.472 306.723 735.246 307.765H741.482V310.217H731.04V308.019L732.139 307.089Z"></path><path style="fill:var(--color-illustrationHighlight010)" d="M746.644 300.41C747.025 299.874 747.546 299.43 748.209 299.078C748.885 298.711 749.653 298.528 750.513 298.528C751.513 298.528 752.415 298.775 753.218 299.268C754.036 299.761 754.677 300.466 755.142 301.382C755.621 302.284 755.86 303.334 755.86 304.531C755.86 305.729 755.621 306.793 755.142 307.723C754.677 308.639 754.036 309.351 753.218 309.858C752.415 310.365 751.513 310.619 750.513 310.619C749.653 310.619 748.892 310.443 748.23 310.091C747.581 309.738 747.053 309.294 746.644 308.759V316.009H743.685V298.718H746.644V300.41ZM752.838 304.531C752.838 303.827 752.69 303.221 752.394 302.714C752.112 302.192 751.732 301.798 751.252 301.53C750.787 301.262 750.28 301.128 749.73 301.128C749.195 301.128 748.688 301.269 748.209 301.551C747.743 301.819 747.363 302.213 747.067 302.735C746.785 303.256 746.644 303.869 746.644 304.574C746.644 305.278 746.785 305.891 747.067 306.413C747.363 306.934 747.743 307.336 748.209 307.618C748.688 307.885 749.195 308.019 749.73 308.019C750.28 308.019 750.787 307.878 751.252 307.596C751.732 307.315 752.112 306.913 752.394 306.392C752.69 305.87 752.838 305.25 752.838 304.531Z"></path><path style="fill:var(--color-illustrationHighlight010)" d="M764.479 310.429L762.069 306.793L759.934 310.429H756.764L760.59 304.553L756.721 298.718H760.061L762.45 302.333L764.606 298.718H767.777L763.929 304.553L767.819 310.429H764.479Z"></path><path style="fill:var(--color-illustrationHighlight010)" d="M865.074 297.746V295.019H870.168V310.428H867.125V297.746H865.074Z"></path><path style="fill:var(--color-illustrationHighlight010)" d="M881.082 298.866C880.941 298.274 880.694 297.83 880.342 297.534C880.004 297.238 879.511 297.091 878.863 297.091C877.89 297.091 877.172 297.485 876.706 298.274C876.256 299.049 876.023 300.318 876.009 302.079C876.347 301.515 876.84 301.079 877.489 300.769C878.137 300.444 878.841 300.282 879.602 300.282C880.518 300.282 881.329 300.48 882.033 300.874C882.738 301.269 883.287 301.847 883.682 302.607C884.077 303.354 884.274 304.256 884.274 305.313C884.274 306.314 884.069 307.208 883.661 307.998C883.266 308.773 882.681 309.379 881.906 309.815C881.131 310.252 880.208 310.471 879.137 310.471C877.672 310.471 876.516 310.147 875.671 309.498C874.839 308.85 874.254 307.948 873.916 306.793C873.592 305.623 873.43 304.186 873.43 302.481C873.43 299.902 873.874 297.957 874.762 296.647C875.65 295.322 877.052 294.66 878.968 294.66C880.448 294.66 881.596 295.061 882.414 295.865C883.231 296.668 883.703 297.668 883.83 298.866H881.082ZM878.926 302.713C878.179 302.713 877.552 302.932 877.045 303.368C876.537 303.805 876.284 304.439 876.284 305.271C876.284 306.102 876.516 306.758 876.981 307.237C877.46 307.716 878.13 307.955 878.989 307.955C879.75 307.955 880.349 307.723 880.786 307.258C881.237 306.793 881.462 306.166 881.462 305.377C881.462 304.559 881.244 303.911 880.807 303.432C880.384 302.953 879.757 302.713 878.926 302.713Z"></path><path style="fill:var(--color-illustrationHighlight010)" d="M889.91 300.409C890.291 299.874 890.812 299.43 891.474 299.077C892.151 298.711 892.919 298.528 893.778 298.528C894.779 298.528 895.681 298.775 896.484 299.268C897.301 299.761 897.943 300.466 898.408 301.382C898.887 302.283 899.126 303.333 899.126 304.531C899.126 305.729 898.887 306.793 898.408 307.723C897.943 308.639 897.301 309.35 896.484 309.858C895.681 310.365 894.779 310.619 893.778 310.619C892.919 310.619 892.158 310.443 891.496 310.09C890.847 309.738 890.319 309.294 889.91 308.759V316.009H886.951V298.718H889.91V300.409ZM896.104 304.531C896.104 303.826 895.956 303.22 895.66 302.713C895.378 302.192 894.997 301.797 894.518 301.529C894.053 301.262 893.546 301.128 892.996 301.128C892.461 301.128 891.954 301.269 891.474 301.551C891.009 301.818 890.629 302.213 890.333 302.734C890.051 303.256 889.91 303.869 889.91 304.573C889.91 305.278 890.051 305.891 890.333 306.412C890.629 306.934 891.009 307.335 891.474 307.617C891.954 307.885 892.461 308.019 892.996 308.019C893.546 308.019 894.053 307.878 894.518 307.596C894.997 307.314 895.378 306.913 895.66 306.391C895.956 305.87 896.104 305.25 896.104 304.531Z"></path><path style="fill:var(--color-illustrationHighlight010)" d="M907.745 310.428L905.335 306.793L903.2 310.428H900.03L903.856 304.552L899.987 298.718H903.327L905.716 302.333L907.872 298.718H911.042L907.195 304.552L911.085 310.428H907.745Z"></path><path style="fill:var(--color-illustrationHighlight010)" d="M1007.92 307.089C1009.28 305.962 1010.36 305.025 1011.16 304.278C1011.96 303.517 1012.63 302.728 1013.17 301.91C1013.7 301.093 1013.97 300.29 1013.97 299.501C1013.97 298.782 1013.8 298.218 1013.46 297.81C1013.12 297.401 1012.6 297.197 1011.9 297.197C1011.19 297.197 1010.65 297.436 1010.27 297.915C1009.89 298.38 1009.69 299.021 1009.68 299.839H1006.8C1006.86 298.148 1007.36 296.865 1008.31 295.992C1009.26 295.118 1010.48 294.681 1011.94 294.681C1013.55 294.681 1014.78 295.111 1015.64 295.971C1016.5 296.816 1016.93 297.936 1016.93 299.331C1016.93 300.431 1016.63 301.48 1016.04 302.481C1015.45 303.482 1014.77 304.355 1014.01 305.102C1013.25 305.835 1012.26 306.723 1011.03 307.765H1017.27V310.217H1006.83V308.019L1007.92 307.089Z"></path><path style="fill:var(--color-illustrationHighlight010)" d="M1019.13 302.523C1019.13 300.085 1019.57 298.176 1020.44 296.795C1021.33 295.414 1022.8 294.723 1024.84 294.723C1026.88 294.723 1028.34 295.414 1029.22 296.795C1030.1 298.176 1030.55 300.085 1030.55 302.523C1030.55 304.975 1030.1 306.899 1029.22 308.294C1028.34 309.689 1026.88 310.387 1024.84 310.387C1022.8 310.387 1021.33 309.689 1020.44 308.294C1019.57 306.899 1019.13 304.975 1019.13 302.523ZM1027.63 302.523C1027.63 301.48 1027.56 300.607 1027.42 299.902C1027.29 299.184 1027.02 298.599 1026.62 298.148C1026.22 297.697 1025.63 297.471 1024.84 297.471C1024.05 297.471 1023.45 297.697 1023.04 298.148C1022.65 298.599 1022.38 299.184 1022.24 299.902C1022.11 300.607 1022.05 301.48 1022.05 302.523C1022.05 303.594 1022.11 304.496 1022.24 305.229C1022.37 305.948 1022.63 306.532 1023.04 306.983C1023.45 307.42 1024.05 307.639 1024.84 307.639C1025.63 307.639 1026.23 307.42 1026.64 306.983C1027.05 306.532 1027.31 305.948 1027.44 305.229C1027.57 304.496 1027.63 303.594 1027.63 302.523Z"></path><path style="fill:var(--color-illustrationHighlight010)" d="M1036.1 300.41C1036.48 299.874 1037 299.43 1037.66 299.078C1038.34 298.711 1039.1 298.528 1039.96 298.528C1040.96 298.528 1041.87 298.775 1042.67 299.268C1043.49 299.761 1044.13 300.466 1044.59 301.382C1045.07 302.284 1045.31 303.334 1045.31 304.531C1045.31 305.729 1045.07 306.793 1044.59 307.723C1044.13 308.639 1043.49 309.351 1042.67 309.858C1041.87 310.365 1040.96 310.619 1039.96 310.619C1039.1 310.619 1038.34 310.443 1037.68 310.091C1037.03 309.738 1036.5 309.294 1036.1 308.759V316.009H1033.14V298.718H1036.1V300.41ZM1042.29 304.531C1042.29 303.827 1042.14 303.221 1041.84 302.714C1041.56 302.192 1041.18 301.798 1040.7 301.53C1040.24 301.262 1039.73 301.128 1039.18 301.128C1038.65 301.128 1038.14 301.269 1037.66 301.551C1037.19 301.819 1036.81 302.213 1036.52 302.735C1036.24 303.256 1036.1 303.869 1036.1 304.574C1036.1 305.278 1036.24 305.891 1036.52 306.413C1036.81 306.934 1037.19 307.336 1037.66 307.618C1038.14 307.885 1038.65 308.019 1039.18 308.019C1039.73 308.019 1040.24 307.878 1040.7 307.596C1041.18 307.315 1041.56 306.913 1041.84 306.392C1042.14 305.87 1042.29 305.25 1042.29 304.531Z"></path><path style="fill:var(--color-illustrationHighlight010)" d="M1053.93 310.429L1051.52 306.793L1049.39 310.429H1046.21L1050.04 304.553L1046.17 298.718H1049.51L1051.9 302.333L1054.06 298.718H1057.23L1053.38 304.553L1057.27 310.429H1053.93Z"></path><path style="fill:var(--color-illustrationHighlight010)" d="M1151 307.089C1152.35 305.962 1153.43 305.025 1154.23 304.278C1155.03 303.517 1155.7 302.728 1156.24 301.91C1156.77 301.093 1157.04 300.29 1157.04 299.501C1157.04 298.782 1156.87 298.218 1156.53 297.81C1156.2 297.401 1155.67 297.197 1154.97 297.197C1154.26 297.197 1153.72 297.436 1153.34 297.915C1152.96 298.38 1152.76 299.021 1152.75 299.839H1149.88C1149.93 298.148 1150.43 296.865 1151.38 295.992C1152.33 295.118 1153.55 294.681 1155.01 294.681C1156.62 294.681 1157.85 295.111 1158.71 295.971C1159.57 296.816 1160 297.936 1160 299.331C1160 300.431 1159.7 301.48 1159.11 302.481C1158.52 303.482 1157.84 304.355 1157.08 305.102C1156.32 305.835 1155.33 306.723 1154.1 307.765H1160.34V310.217H1149.9V308.019L1151 307.089Z"></path><path style="fill:var(--color-illustrationHighlight010)" d="M1162.08 307.427V305.102L1168.99 295.21H1172.43V304.848H1174.29V307.427H1172.43V310.429H1169.47V307.427H1162.08ZM1169.66 298.38L1165.33 304.848H1169.66V298.38Z"></path><path style="fill:var(--color-illustrationHighlight010)" d="M1179.48 300.41C1179.86 299.874 1180.38 299.43 1181.04 299.078C1181.72 298.711 1182.48 298.528 1183.34 298.528C1184.34 298.528 1185.25 298.775 1186.05 299.268C1186.87 299.761 1187.51 300.466 1187.97 301.382C1188.45 302.284 1188.69 303.334 1188.69 304.531C1188.69 305.729 1188.45 306.793 1187.97 307.723C1187.51 308.639 1186.87 309.351 1186.05 309.858C1185.25 310.365 1184.34 310.619 1183.34 310.619C1182.48 310.619 1181.72 310.443 1181.06 310.091C1180.41 309.738 1179.88 309.294 1179.48 308.759V316.009H1176.52V298.718H1179.48V300.41ZM1185.67 304.531C1185.67 303.827 1185.52 303.221 1185.22 302.714C1184.94 302.192 1184.56 301.798 1184.08 301.53C1183.62 301.262 1183.11 301.128 1182.56 301.128C1182.03 301.128 1181.52 301.269 1181.04 301.551C1180.57 301.819 1180.19 302.213 1179.9 302.735C1179.62 303.256 1179.48 303.869 1179.48 304.574C1179.48 305.278 1179.62 305.891 1179.9 306.413C1180.19 306.934 1180.57 307.336 1181.04 307.618C1181.52 307.885 1182.03 308.019 1182.56 308.019C1183.11 308.019 1183.62 307.878 1184.08 307.596C1184.56 307.315 1184.94 306.913 1185.22 306.392C1185.52 305.87 1185.67 305.25 1185.67 304.531Z"></path><path style="fill:var(--color-illustrationHighlight010)" d="M1197.31 310.429L1194.9 306.793L1192.77 310.429H1189.59L1193.42 304.553L1189.55 298.718H1192.89L1195.28 302.333L1197.44 298.718H1200.61L1196.76 304.553L1200.65 310.429H1197.31Z"></path><path style="fill:var(--color-illustrationHighlight010)" d="M1294.42 307.089C1295.77 305.962 1296.85 305.025 1297.65 304.278C1298.45 303.517 1299.12 302.728 1299.66 301.91C1300.19 301.093 1300.46 300.29 1300.46 299.501C1300.46 298.782 1300.29 298.218 1299.96 297.81C1299.62 297.401 1299.1 297.197 1298.39 297.197C1297.69 297.197 1297.14 297.436 1296.76 297.915C1296.38 298.38 1296.19 299.021 1296.17 299.839H1293.3C1293.35 298.148 1293.85 296.865 1294.8 295.992C1295.76 295.118 1296.97 294.681 1298.43 294.681C1300.04 294.681 1301.27 295.111 1302.13 295.971C1302.99 296.816 1303.42 297.936 1303.42 299.331C1303.42 300.431 1303.13 301.48 1302.53 302.481C1301.94 303.482 1301.27 304.355 1300.5 305.102C1299.74 305.835 1298.75 306.723 1297.52 307.765H1303.76V310.217H1293.32V308.019L1294.42 307.089Z"></path><path style="fill:var(--color-illustrationHighlight010)" d="M1308.2 302.27C1306.79 301.537 1306.09 300.402 1306.09 298.866C1306.09 298.105 1306.28 297.415 1306.66 296.795C1307.06 296.161 1307.64 295.661 1308.42 295.294C1309.2 294.914 1310.16 294.723 1311.29 294.723C1312.42 294.723 1313.37 294.914 1314.14 295.294C1314.93 295.661 1315.52 296.161 1315.9 296.795C1316.29 297.415 1316.49 298.105 1316.49 298.866C1316.49 299.641 1316.3 300.325 1315.92 300.917C1315.54 301.495 1315.03 301.946 1314.4 302.27C1315.17 302.608 1315.78 303.101 1316.21 303.749C1316.65 304.398 1316.87 305.166 1316.87 306.053C1316.87 307.012 1316.62 307.85 1316.13 308.569C1315.65 309.273 1314.99 309.816 1314.14 310.196C1313.3 310.577 1312.35 310.767 1311.29 310.767C1310.23 310.767 1309.28 310.577 1308.44 310.196C1307.6 309.816 1306.94 309.273 1306.45 308.569C1305.97 307.85 1305.73 307.012 1305.73 306.053C1305.73 305.166 1305.95 304.398 1306.39 303.749C1306.82 303.087 1307.43 302.594 1308.2 302.27ZM1313.61 299.289C1313.61 298.599 1313.4 298.063 1312.98 297.683C1312.57 297.302 1312.01 297.112 1311.29 297.112C1310.59 297.112 1310.02 297.302 1309.6 297.683C1309.19 298.063 1308.99 298.606 1308.99 299.31C1308.99 299.944 1309.2 300.452 1309.62 300.832C1310.06 301.213 1310.61 301.403 1311.29 301.403C1311.97 301.403 1312.52 301.213 1312.96 300.832C1313.4 300.438 1313.61 299.923 1313.61 299.289ZM1311.29 303.559C1310.49 303.559 1309.83 303.763 1309.32 304.172C1308.83 304.581 1308.58 305.166 1308.58 305.926C1308.58 306.631 1308.82 307.209 1309.3 307.66C1309.8 308.097 1310.46 308.315 1311.29 308.315C1312.12 308.315 1312.78 308.09 1313.26 307.639C1313.73 307.188 1313.97 306.617 1313.97 305.926C1313.97 305.18 1313.73 304.602 1313.23 304.193C1312.74 303.77 1312.09 303.559 1311.29 303.559Z"></path><path style="fill:var(--color-illustrationHighlight010)" d="M1322.51 300.41C1322.89 299.874 1323.41 299.43 1324.07 299.078C1324.75 298.711 1325.51 298.528 1326.37 298.528C1327.37 298.528 1328.28 298.775 1329.08 299.268C1329.9 299.761 1330.54 300.466 1331 301.382C1331.48 302.284 1331.72 303.334 1331.72 304.531C1331.72 305.729 1331.48 306.793 1331 307.723C1330.54 308.639 1329.9 309.351 1329.08 309.858C1328.28 310.365 1327.37 310.619 1326.37 310.619C1325.51 310.619 1324.75 310.443 1324.09 310.091C1323.44 309.738 1322.91 309.294 1322.51 308.759V316.009H1319.55V298.718H1322.51V300.41ZM1328.7 304.531C1328.7 303.827 1328.55 303.221 1328.25 302.714C1327.97 302.192 1327.59 301.798 1327.11 301.53C1326.65 301.262 1326.14 301.128 1325.59 301.128C1325.06 301.128 1324.55 301.269 1324.07 301.551C1323.6 301.819 1323.22 302.213 1322.93 302.735C1322.65 303.256 1322.51 303.869 1322.51 304.574C1322.51 305.278 1322.65 305.891 1322.93 306.413C1323.22 306.934 1323.6 307.336 1324.07 307.618C1324.55 307.885 1325.06 308.019 1325.59 308.019C1326.14 308.019 1326.65 307.878 1327.11 307.596C1327.59 307.315 1327.97 306.913 1328.25 306.392C1328.55 305.87 1328.7 305.25 1328.7 304.531Z"></path><path style="fill:var(--color-illustrationHighlight010)" d="M1340.34 310.429L1337.93 306.793L1335.8 310.429H1332.62L1336.45 304.553L1332.58 298.718H1335.92L1338.31 302.333L1340.47 298.718H1343.64L1339.79 304.553L1343.68 310.429H1340.34Z"></path><path style="fill:var(--color-illustrationHighlight010)" d="M1436.57 299.077C1436.64 297.668 1437.13 296.583 1438.05 295.822C1438.98 295.047 1440.2 294.66 1441.7 294.66C1442.73 294.66 1443.61 294.843 1444.35 295.209C1445.08 295.562 1445.63 296.048 1445.99 296.668C1446.37 297.274 1446.57 297.964 1446.57 298.739C1446.57 299.627 1446.33 300.381 1445.87 301.001C1445.42 301.607 1444.87 302.016 1444.24 302.227V302.312C1445.06 302.565 1445.69 303.016 1446.14 303.664C1446.61 304.313 1446.84 305.144 1446.84 306.159C1446.84 307.004 1446.64 307.758 1446.25 308.42C1445.87 309.083 1445.3 309.604 1444.54 309.985C1443.79 310.351 1442.89 310.534 1441.83 310.534C1440.24 310.534 1438.94 310.133 1437.94 309.329C1436.94 308.526 1436.41 307.342 1436.36 305.778H1439.23C1439.26 306.469 1439.49 307.025 1439.93 307.448C1440.38 307.857 1440.99 308.061 1441.77 308.061C1442.49 308.061 1443.04 307.864 1443.42 307.469C1443.81 307.061 1444.01 306.539 1444.01 305.905C1444.01 305.059 1443.74 304.454 1443.2 304.087C1442.67 303.721 1441.84 303.538 1440.71 303.538H1440.1V301.107H1440.71C1442.71 301.107 1443.71 300.437 1443.71 299.099C1443.71 298.493 1443.53 298.021 1443.16 297.682C1442.81 297.344 1442.3 297.175 1441.62 297.175C1440.96 297.175 1440.44 297.358 1440.08 297.725C1439.72 298.077 1439.52 298.528 1439.46 299.077H1436.57Z"></path><path style="fill:var(--color-illustrationHighlight010)" d="M1450.11 307.089C1451.46 305.961 1452.54 305.024 1453.34 304.277C1454.15 303.516 1454.82 302.727 1455.35 301.91C1455.89 301.093 1456.15 300.289 1456.15 299.5C1456.15 298.782 1455.98 298.218 1455.65 297.809C1455.31 297.401 1454.79 297.196 1454.08 297.196C1453.38 297.196 1452.84 297.436 1452.45 297.915C1452.07 298.38 1451.88 299.021 1451.86 299.838H1448.99C1449.04 298.147 1449.54 296.865 1450.49 295.991C1451.45 295.118 1452.66 294.681 1454.12 294.681C1455.73 294.681 1456.96 295.111 1457.82 295.97C1458.68 296.816 1459.11 297.936 1459.11 299.331C1459.11 300.43 1458.82 301.48 1458.23 302.481C1457.63 303.481 1456.96 304.355 1456.2 305.102C1455.44 305.835 1454.44 306.722 1453.22 307.765H1459.45V310.217H1449.01V308.019L1450.11 307.089Z"></path><path style="fill:var(--color-illustrationHighlight010)" d="M1464.61 300.409C1464.99 299.874 1465.52 299.43 1466.18 299.077C1466.85 298.711 1467.62 298.528 1468.48 298.528C1469.48 298.528 1470.38 298.775 1471.19 299.268C1472 299.761 1472.65 300.466 1473.11 301.382C1473.59 302.283 1473.83 303.333 1473.83 304.531C1473.83 305.729 1473.59 306.793 1473.11 307.723C1472.65 308.639 1472 309.35 1471.19 309.858C1470.38 310.365 1469.48 310.619 1468.48 310.619C1467.62 310.619 1466.86 310.443 1466.2 310.09C1465.55 309.738 1465.02 309.294 1464.61 308.759V316.009H1461.65V298.718H1464.61V300.409ZM1470.81 304.531C1470.81 303.826 1470.66 303.22 1470.36 302.713C1470.08 302.192 1469.7 301.797 1469.22 301.529C1468.76 301.262 1468.25 301.128 1467.7 301.128C1467.16 301.128 1466.66 301.269 1466.18 301.551C1465.71 301.818 1465.33 302.213 1465.04 302.734C1464.75 303.256 1464.61 303.869 1464.61 304.573C1464.61 305.278 1464.75 305.891 1465.04 306.412C1465.33 306.934 1465.71 307.335 1466.18 307.617C1466.66 307.885 1467.16 308.019 1467.7 308.019C1468.25 308.019 1468.76 307.878 1469.22 307.596C1469.7 307.314 1470.08 306.913 1470.36 306.391C1470.66 305.87 1470.81 305.25 1470.81 304.531Z"></path><path style="fill:var(--color-illustrationHighlight010)" d="M1482.45 310.428L1480.04 306.793L1477.9 310.428H1474.73L1478.56 304.552L1474.69 298.718H1478.03L1480.42 302.333L1482.58 298.718H1485.75L1481.9 304.552L1485.79 310.428H1482.45Z"></path><path style="fill:var(--color-illustrationHighlight010)" d="M310.469 302.523C310.469 300.085 310.906 298.176 311.779 296.795C312.667 295.414 314.133 294.723 316.176 294.723C318.219 294.723 319.678 295.414 320.551 296.795C321.439 298.176 321.883 300.085 321.883 302.523C321.883 304.975 321.439 306.899 320.551 308.294C319.678 309.689 318.219 310.386 316.176 310.386C314.133 310.386 312.667 309.689 311.779 308.294C310.906 306.899 310.469 304.975 310.469 302.523ZM318.966 302.523C318.966 301.48 318.896 300.607 318.755 299.902C318.628 299.183 318.36 298.598 317.952 298.147C317.557 297.697 316.965 297.471 316.176 297.471C315.387 297.471 314.788 297.697 314.379 298.147C313.985 298.598 313.717 299.183 313.576 299.902C313.449 300.607 313.386 301.48 313.386 302.523C313.386 303.594 313.449 304.496 313.576 305.229C313.703 305.947 313.971 306.532 314.379 306.983C314.788 307.42 315.387 307.638 316.176 307.638C316.965 307.638 317.564 307.42 317.973 306.983C318.381 306.532 318.649 305.947 318.776 305.229C318.903 304.496 318.966 303.594 318.966 302.523Z"></path><path style="fill:var(--color-illustrationHighlight010)" d="M317.755 380.026C316.373 380.026 315.129 379.788 314.023 379.311C312.917 378.814 312.048 378.119 311.417 377.225C310.785 376.33 310.469 375.287 310.469 374.095H314.082C314.161 374.989 314.507 375.724 315.119 376.301C315.751 376.877 316.629 377.165 317.755 377.165C318.92 377.165 319.828 376.887 320.479 376.33C321.131 375.754 321.457 375.019 321.457 374.125C321.457 373.429 321.25 372.863 320.835 372.426C320.44 371.989 319.936 371.651 319.324 371.413C318.732 371.174 317.903 370.916 316.837 370.638C315.494 370.28 314.398 369.922 313.549 369.565C312.72 369.187 312.009 368.611 311.417 367.836C310.824 367.061 310.528 366.028 310.528 364.737C310.528 363.544 310.824 362.501 311.417 361.607C312.009 360.713 312.838 360.027 313.904 359.551C314.971 359.074 316.205 358.835 317.607 358.835C319.601 358.835 321.23 359.342 322.493 360.355C323.777 361.349 324.488 362.72 324.626 364.468H320.894C320.835 363.713 320.479 363.067 319.828 362.531C319.176 361.995 318.317 361.726 317.251 361.726C316.284 361.726 315.494 361.975 314.882 362.471C314.27 362.968 313.964 363.683 313.964 364.617C313.964 365.253 314.151 365.78 314.526 366.197C314.921 366.594 315.415 366.912 316.007 367.151C316.6 367.389 317.409 367.647 318.436 367.926C319.798 368.303 320.904 368.681 321.753 369.058C322.622 369.436 323.352 370.022 323.945 370.817C324.557 371.592 324.863 372.635 324.863 373.946C324.863 374.999 324.577 375.993 324.004 376.927C323.451 377.86 322.632 378.615 321.546 379.192C320.479 379.748 319.216 380.026 317.755 380.026Z"></path><path style="fill:var(--color-illustrationHighlight010)" d="M332.223 365.809C332.796 365.054 333.576 364.419 334.563 363.902C335.55 363.385 336.666 363.127 337.91 363.127C339.332 363.127 340.625 363.485 341.79 364.2C342.974 364.895 343.902 365.879 344.574 367.151C345.245 368.422 345.581 369.883 345.581 371.532C345.581 373.181 345.245 374.661 344.574 375.973C343.902 377.264 342.974 378.278 341.79 379.013C340.625 379.728 339.332 380.086 337.91 380.086C336.666 380.086 335.56 379.837 334.593 379.341C333.625 378.824 332.835 378.188 332.223 377.433V387.626H328.847V363.395H332.223V365.809ZM342.145 371.532C342.145 370.399 341.908 369.426 341.434 368.611C340.98 367.777 340.368 367.151 339.598 366.733C338.848 366.296 338.038 366.078 337.169 366.078C336.32 366.078 335.511 366.296 334.741 366.733C333.99 367.171 333.378 367.806 332.905 368.641C332.45 369.475 332.223 370.459 332.223 371.592C332.223 372.724 332.45 373.718 332.905 374.572C333.378 375.406 333.99 376.042 334.741 376.479C335.511 376.917 336.32 377.135 337.169 377.135C338.038 377.135 338.848 376.917 339.598 376.479C340.368 376.022 340.98 375.367 341.434 374.512C341.908 373.658 342.145 372.664 342.145 371.532Z"></path><path style="fill:var(--color-illustrationHighlight010)" d="M347.794 371.532C347.794 369.883 348.13 368.422 348.801 367.151C349.492 365.879 350.42 364.895 351.585 364.2C352.77 363.485 354.073 363.127 355.495 363.127C356.778 363.127 357.894 363.385 358.842 363.902C359.809 364.399 360.579 365.025 361.152 365.78V363.395H364.558V379.818H361.152V377.374C360.579 378.148 359.799 378.794 358.812 379.311C357.825 379.827 356.699 380.086 355.436 380.086C354.034 380.086 352.75 379.728 351.585 379.013C350.42 378.278 349.492 377.264 348.801 375.973C348.13 374.661 347.794 373.181 347.794 371.532ZM361.152 371.592C361.152 370.459 360.915 369.475 360.441 368.641C359.987 367.806 359.385 367.171 358.634 366.733C357.884 366.296 357.074 366.078 356.206 366.078C355.337 366.078 354.527 366.296 353.777 366.733C353.027 367.151 352.415 367.777 351.941 368.611C351.487 369.426 351.26 370.399 351.26 371.532C351.26 372.664 351.487 373.658 351.941 374.512C352.415 375.367 353.027 376.022 353.777 376.479C354.547 376.917 355.357 377.135 356.206 377.135C357.074 377.135 357.884 376.917 358.634 376.479C359.385 376.042 359.987 375.406 360.441 374.572C360.915 373.718 361.152 372.724 361.152 371.592Z"></path><path style="fill:var(--color-illustrationHighlight010)" d="M367.867 371.592C367.867 369.903 368.203 368.422 368.874 367.151C369.565 365.859 370.513 364.866 371.717 364.17C372.922 363.475 374.304 363.127 375.864 363.127C377.838 363.127 379.467 363.604 380.751 364.558C382.054 365.492 382.933 366.833 383.387 368.581H379.744C379.448 367.767 378.974 367.131 378.322 366.674C377.671 366.217 376.851 365.988 375.864 365.988C374.482 365.988 373.376 366.485 372.547 367.479C371.737 368.452 371.332 369.823 371.332 371.592C371.332 373.36 371.737 374.741 372.547 375.734C373.376 376.728 374.482 377.225 375.864 377.225C377.819 377.225 379.112 376.36 379.744 374.632H383.387C382.913 376.301 382.024 377.632 380.721 378.625C379.418 379.599 377.799 380.086 375.864 380.086C374.304 380.086 372.922 379.738 371.717 379.043C370.513 378.327 369.565 377.334 368.874 376.062C368.203 374.771 367.867 373.28 367.867 371.592Z"></path><path style="fill:var(--color-illustrationHighlight010)" d="M388.469 361.22C387.857 361.22 387.344 361.011 386.929 360.594C386.515 360.176 386.307 359.66 386.307 359.044C386.307 358.428 386.515 357.911 386.929 357.494C387.344 357.077 387.857 356.868 388.469 356.868C389.062 356.868 389.565 357.077 389.98 357.494C390.394 357.911 390.602 358.428 390.602 359.044C390.602 359.66 390.394 360.176 389.98 360.594C389.565 361.011 389.062 361.22 388.469 361.22ZM390.128 363.395V379.818H386.752V363.395H390.128Z"></path><path style="fill:var(--color-illustrationHighlight010)" d="M402.795 363.127C404.078 363.127 405.223 363.395 406.23 363.932C407.257 364.468 408.057 365.263 408.629 366.316C409.202 367.369 409.488 368.641 409.488 370.131V379.818H406.141V370.638C406.141 369.167 405.776 368.045 405.045 367.27C404.315 366.475 403.318 366.078 402.054 366.078C400.79 366.078 399.783 366.475 399.033 367.27C398.303 368.045 397.937 369.167 397.937 370.638V379.818H394.561V363.395H397.937V365.273C398.49 364.597 399.191 364.071 400.04 363.693C400.909 363.316 401.827 363.127 402.795 363.127Z"></path><path style="fill:var(--color-illustrationHighlight010)" d="M420.37 363.127C421.634 363.127 422.749 363.385 423.717 363.902C424.704 364.399 425.474 365.025 426.027 365.78V363.395H429.433V380.086C429.433 381.596 429.117 382.937 428.485 384.109C427.853 385.302 426.935 386.235 425.731 386.911C424.546 387.587 423.124 387.924 421.466 387.924C419.254 387.924 417.418 387.398 415.957 386.345C414.496 385.311 413.667 383.901 413.469 382.112H416.816C417.073 382.967 417.616 383.652 418.445 384.169C419.294 384.705 420.301 384.974 421.466 384.974C422.828 384.974 423.924 384.556 424.753 383.722C425.602 382.887 426.027 381.675 426.027 380.086V377.344C425.454 378.119 424.674 378.774 423.687 379.311C422.72 379.827 421.614 380.086 420.37 380.086C418.948 380.086 417.645 379.728 416.46 379.013C415.296 378.278 414.368 377.264 413.676 375.973C413.005 374.661 412.669 373.181 412.669 371.532C412.669 369.883 413.005 368.422 413.676 367.151C414.368 365.879 415.296 364.895 416.46 364.2C417.645 363.485 418.948 363.127 420.37 363.127ZM426.027 371.592C426.027 370.459 425.79 369.475 425.316 368.641C424.862 367.806 424.26 367.171 423.509 366.733C422.759 366.296 421.95 366.078 421.081 366.078C420.212 366.078 419.402 366.296 418.652 366.733C417.902 367.151 417.29 367.777 416.816 368.611C416.362 369.426 416.135 370.399 416.135 371.532C416.135 372.664 416.362 373.658 416.816 374.512C417.29 375.367 417.902 376.022 418.652 376.479C419.422 376.917 420.232 377.135 421.081 377.135C421.95 377.135 422.759 376.917 423.509 376.479C424.26 376.042 424.862 375.406 425.316 374.572C425.79 373.718 426.027 372.724 426.027 371.592Z"></path><path style="fill:var(--color-illustrationHighlight010)" d="M447.485 380.086C446.201 380.086 445.046 379.857 444.02 379.4C443.013 378.923 442.213 378.288 441.621 377.493C441.028 376.678 440.712 375.774 440.673 374.781H444.168C444.227 375.476 444.553 376.062 445.145 376.539C445.757 376.996 446.517 377.225 447.426 377.225C448.373 377.225 449.104 377.046 449.617 376.688C450.15 376.311 450.417 375.834 450.417 375.257C450.417 374.642 450.121 374.185 449.528 373.886C448.956 373.588 448.038 373.261 446.774 372.903C445.55 372.565 444.553 372.237 443.783 371.919C443.013 371.601 442.341 371.115 441.769 370.459C441.216 369.803 440.939 368.939 440.939 367.866C440.939 366.992 441.196 366.197 441.709 365.482C442.223 364.746 442.953 364.17 443.901 363.753C444.869 363.336 445.974 363.127 447.218 363.127C449.074 363.127 450.565 363.604 451.691 364.558C452.836 365.492 453.448 366.773 453.527 368.402H450.15C450.091 367.667 449.795 367.081 449.262 366.644C448.729 366.207 448.008 365.988 447.1 365.988C446.211 365.988 445.53 366.157 445.056 366.495C444.582 366.833 444.345 367.28 444.345 367.836C444.345 368.273 444.503 368.641 444.819 368.939C445.135 369.237 445.52 369.475 445.974 369.654C446.428 369.813 447.1 370.022 447.988 370.28C449.173 370.598 450.141 370.926 450.891 371.264C451.661 371.582 452.322 372.058 452.875 372.694C453.428 373.33 453.714 374.175 453.734 375.228C453.734 376.162 453.477 376.996 452.964 377.731C452.451 378.466 451.72 379.043 450.772 379.46C449.844 379.877 448.749 380.086 447.485 380.086Z"></path><path style="fill:var(--color-illustrationHighlight010)" d="M456.257 371.592C456.257 369.903 456.593 368.422 457.264 367.151C457.955 365.859 458.903 364.866 460.107 364.17C461.312 363.475 462.694 363.127 464.254 363.127C466.228 363.127 467.857 363.604 469.141 364.558C470.444 365.492 471.322 366.833 471.777 368.581H468.134C467.837 367.767 467.364 367.131 466.712 366.674C466.06 366.217 465.241 365.988 464.254 365.988C462.872 365.988 461.766 366.485 460.937 367.479C460.127 368.452 459.722 369.823 459.722 371.592C459.722 373.36 460.127 374.741 460.937 375.734C461.766 376.728 462.872 377.225 464.254 377.225C466.208 377.225 467.502 376.36 468.134 374.632H471.777C471.303 376.301 470.414 377.632 469.111 378.625C467.808 379.599 466.189 380.086 464.254 380.086C462.694 380.086 461.312 379.738 460.107 379.043C458.903 378.327 457.955 377.334 457.264 376.062C456.593 374.771 456.257 373.28 456.257 371.592Z"></path><path style="fill:var(--color-illustrationHighlight010)" d="M474.016 371.532C474.016 369.883 474.352 368.422 475.023 367.151C475.714 365.879 476.642 364.895 477.807 364.2C478.992 363.485 480.295 363.127 481.717 363.127C483 363.127 484.116 363.385 485.063 363.902C486.031 364.399 486.801 365.025 487.373 365.78V363.395H490.779V379.818H487.373V377.374C486.801 378.148 486.021 378.794 485.034 379.311C484.046 379.827 482.921 380.086 481.657 380.086C480.255 380.086 478.972 379.728 477.807 379.013C476.642 378.278 475.714 377.264 475.023 375.973C474.352 374.661 474.016 373.181 474.016 371.532ZM487.373 371.592C487.373 370.459 487.137 369.475 486.663 368.641C486.209 367.806 485.606 367.171 484.856 366.733C484.106 366.296 483.296 366.078 482.427 366.078C481.559 366.078 480.749 366.296 479.999 366.733C479.248 367.151 478.636 367.777 478.162 368.611C477.708 369.426 477.481 370.399 477.481 371.532C477.481 372.664 477.708 373.658 478.162 374.512C478.636 375.367 479.248 376.022 479.999 376.479C480.769 376.917 481.578 377.135 482.427 377.135C483.296 377.135 484.106 376.917 484.856 376.479C485.606 376.042 486.209 375.406 486.663 374.572C487.137 373.718 487.373 372.724 487.373 371.592Z"></path><path style="fill:var(--color-illustrationHighlight010)" d="M498.591 357.762V379.818H495.214V357.762H498.591Z"></path><path style="fill:var(--color-illustrationHighlight010)" d="M517.98 371.204C517.98 371.82 517.941 372.376 517.862 372.873H505.393C505.492 374.185 505.975 375.238 506.844 376.032C507.713 376.827 508.779 377.225 510.043 377.225C511.859 377.225 513.143 376.46 513.893 374.93H517.536C517.043 376.44 516.144 377.682 514.841 378.655C513.558 379.609 511.958 380.086 510.043 380.086C508.483 380.086 507.081 379.738 505.837 379.043C504.613 378.327 503.646 377.334 502.935 376.062C502.244 374.771 501.898 373.28 501.898 371.592C501.898 369.903 502.234 368.422 502.905 367.151C503.596 365.859 504.554 364.866 505.778 364.17C507.022 363.475 508.444 363.127 510.043 363.127C511.583 363.127 512.955 363.465 514.16 364.14C515.364 364.816 516.302 365.77 516.973 367.002C517.645 368.214 517.98 369.615 517.98 371.204ZM514.456 370.131C514.436 368.879 513.992 367.876 513.123 367.121C512.254 366.366 511.178 365.988 509.895 365.988C508.73 365.988 507.733 366.366 506.903 367.121C506.074 367.856 505.581 368.859 505.423 370.131H514.456Z"></path></g><path style="fill:var(--color-illustrationPalette030)" fill-rule="evenodd" clip-rule="evenodd" d="M317 191.667L317 200L314 200L314 191.667L317 191.667ZM317 158.333L317 175L314 175L314 158.333L317 158.333ZM317 125L317 141.667L314 141.667L314 125L317 125ZM317 91.6667L317 108.333L314 108.333L314 91.6667L317 91.6667ZM317 58.3333L317 75L314 75L314 58.3333L317 58.3333ZM317 25L317 41.6667L314 41.6667L314 25L317 25ZM317 -1.64616e-07L317 8.33333L314 8.33333L314 0L317 -1.64616e-07Z"></path><path style="fill:var(--color-illustrationPalette030)" fill-rule="evenodd" clip-rule="evenodd" d="M747 191.667L747 200L744 200L744 191.667L747 191.667ZM747 158.333L747 175L744 175L744 158.333L747 158.333ZM747 125L747 141.667L744 141.667L744 125L747 125ZM747 91.6667L747 108.333L744 108.333L744 91.6667L747 91.6667ZM747 58.3333L747 75L744 75L744 58.3333L747 58.3333ZM747 25L747 41.6667L744 41.6667L744 25L747 25ZM747 -1.64616e-07L747 8.33333L744 8.33333L744 0L747 -1.64616e-07Z"></path></g><defs><filter id="nk-629" x="203.719" y="-93" width="1604.74" height="530" filterUnits="userSpaceOnUse" color-interpolation-filters="sRGB"><feFlood flood-opacity="0" result="BackgroundImageFix"></feFlood><feColorMatrix in="SourceAlpha" type="matrix" values="0 0 0 0 0 0 0 0 0 0 0 0 0 0 0 0 0 0 127 0" result="hardAlpha"></feColorMatrix><feOffset dy="10"></feOffset><feGaussianBlur stdDeviation="7.5"></feGaussianBlur><feComposite in2="hardAlpha" operator="out"></feComposite><feColorMatrix type="matrix" values="0 0 0 0 0 0 0 0 0 0 0 0 0 0 0 0 0 0 0.08 0"></feColorMatrix><feBlend mode="normal" in2="BackgroundImageFix" result="effect1_dropShadow_472_48678"></feBlend><feBlend mode="normal" in="SourceGraphic" in2="effect1_dropShadow_472_48678" result="shape"></feBlend></filter><filter id="nk-630" x="1219.95" y="-97.0158" width="600.556" height="368.856" filterUnits="userSpaceOnUse" color-interpolation-filters="sRGB"><feFlood flood-opacity="0" result="BackgroundImageFix"></feFlood><feColorMatrix in="SourceAlpha" type="matrix" values="0 0 0 0 0 0 0 0 0 0 0 0 0 0 0 0 0 0 127 0" result="hardAlpha"></feColorMatrix><feOffset dy="18.0316"></feOffset><feGaussianBlur stdDeviation="13.5237"></feGaussianBlur><feColorMatrix type="matrix" values="0 0 0 0 0.0392157 0 0 0 0 0.0392157 0 0 0 0 0.0392157 0 0 0 0.08 0"></feColorMatrix><feBlend mode="normal" in2="BackgroundImageFix" result="effect1_dropShadow_472_48678"></feBlend><feBlend mode="normal" in="SourceGraphic" in2="effect1_dropShadow_472_48678" result="shape"></feBlend></filter><filter id="nk-631" x="1219.95" y="-97.0158" width="600.556" height="368.856" filterUnits="userSpaceOnUse" color-interpolation-filters="sRGB"><feFlood flood-opacity="0" result="BackgroundImageFix"></feFlood><feColorMatrix in="SourceAlpha" type="matrix" values="0 0 0 0 0 0 0 0 0 0 0 0 0 0 0 0 0 0 127 0" result="hardAlpha"></feColorMatrix><feOffset dy="18.0316"></feOffset><feGaussianBlur stdDeviation="13.5237"></feGaussianBlur><feColorMatrix type="matrix" values="0 0 0 0 0.0392157 0 0 0 0 0.0392157 0 0 0 0 0.0392157 0 0 0 0.08 0"></feColorMatrix><feBlend mode="normal" in2="BackgroundImageFix" result="effect1_dropShadow_472_48678"></feBlend><feBlend mode="normal" in="SourceGraphic" in2="effect1_dropShadow_472_48678" result="shape"></feBlend></filter><clipPath id="nk-628"><rect style="fill:var(--color-white)" width="1490" height="600"></rect></clipPath></defs></svg>