<svg id="theme-spacing-space-stack" style="width: 100%; height: 100%" width="1490" height="838" viewBox="0 0 1490 838" fill="none" xmlns="http://www.w3.org/2000/svg" class="css-0"><rect style="fill:var(--color-illustrationBackground020)" width="1490" height="838"></rect><g filter="url(#nk-202)"><path style="fill:var(--color-illustrationInterface010)" d="M489 136.181C489 125.588 497.588 117 508.181 117H981.609C992.202 117 1000.79 125.588 1000.79 136.181V647.029C1000.79 657.622 992.202 666.21 981.609 666.21H508.181C497.588 666.21 489 657.622 489 647.029V136.181Z"></path></g><path style="fill:var(--color-illustrationPalette010)" d="M490 138C490 127.507 498.507 119 509 119H981C991.493 119 1000 127.507 1000 138V382H490V138Z"></path><path style="fill:var(--color-inkContrast)" d="M543.623 429.977V435.227H532.594V440.898H540.846V445.994H532.594V456.877H526V429.977H543.623Z"></path><path style="fill:var(--color-inkContrast)" d="M556.883 457.184C554.775 457.184 552.873 456.737 551.176 455.842C549.505 454.948 548.181 453.671 547.204 452.011C546.253 450.35 545.778 448.409 545.778 446.186C545.778 443.989 546.266 442.06 547.243 440.4C548.22 438.714 549.557 437.424 551.253 436.53C552.95 435.636 554.852 435.189 556.961 435.189C559.069 435.189 560.971 435.636 562.668 436.53C564.364 437.424 565.701 438.714 566.678 440.4C567.655 442.06 568.144 443.989 568.144 446.186C568.144 448.383 567.642 450.325 566.64 452.011C565.663 453.671 564.313 454.948 562.591 455.842C560.894 456.737 558.991 457.184 556.883 457.184ZM556.883 451.512C558.143 451.512 559.21 451.053 560.084 450.133C560.984 449.213 561.434 447.898 561.434 446.186C561.434 444.474 560.997 443.159 560.123 442.239C559.274 441.32 558.22 440.86 556.961 440.86C555.675 440.86 554.608 441.32 553.76 442.239C552.912 443.133 552.487 444.449 552.487 446.186C552.487 447.898 552.899 449.213 553.721 450.133C554.57 451.053 555.624 451.512 556.883 451.512Z"></path><path style="fill:var(--color-inkContrast)" d="M592.89 435.495V456.877H586.295V453.965C585.627 454.91 584.714 455.676 583.558 456.264C582.426 456.826 581.167 457.107 579.778 457.107C578.133 457.107 576.681 456.749 575.421 456.034C574.161 455.293 573.184 454.233 572.49 452.854C571.796 451.474 571.449 449.852 571.449 447.987V435.495H578.005V447.106C578.005 448.536 578.377 449.648 579.123 450.439C579.868 451.231 580.871 451.627 582.131 451.627C583.416 451.627 584.432 451.231 585.177 450.439C585.923 449.648 586.295 448.536 586.295 447.106V435.495H592.89Z"></path><path style="fill:var(--color-inkContrast)" d="M610.737 435.265C613.257 435.265 615.262 436.083 616.753 437.718C618.27 439.327 619.028 441.549 619.028 444.385V456.877H612.472V445.266C612.472 443.836 612.1 442.725 611.354 441.933C610.609 441.141 609.606 440.745 608.346 440.745C607.087 440.745 606.084 441.141 605.338 441.933C604.593 442.725 604.22 443.836 604.22 445.266V456.877H597.626V435.495H604.22V438.331C604.889 437.385 605.788 436.645 606.92 436.108C608.051 435.546 609.323 435.265 610.737 435.265Z"></path><path style="fill:var(--color-inkContrast)" d="M622.299 446.148C622.299 443.951 622.711 442.022 623.533 440.362C624.382 438.701 625.526 437.424 626.965 436.53C628.405 435.636 630.012 435.189 631.785 435.189C633.199 435.189 634.485 435.482 635.642 436.07C636.824 436.657 637.75 437.449 638.418 438.446V428.521H645.012V456.877H638.418V453.812C637.801 454.833 636.914 455.651 635.757 456.264C634.626 456.877 633.302 457.184 631.785 457.184C630.012 457.184 628.405 456.737 626.965 455.842C625.526 454.923 624.382 453.633 623.533 451.972C622.711 450.286 622.299 448.345 622.299 446.148ZM638.418 446.186C638.418 444.551 637.955 443.261 637.03 442.316C636.13 441.371 635.025 440.898 633.714 440.898C632.402 440.898 631.284 441.371 630.359 442.316C629.459 443.236 629.009 444.513 629.009 446.148C629.009 447.783 629.459 449.086 630.359 450.056C631.284 451.001 632.402 451.474 633.714 451.474C635.025 451.474 636.13 451.001 637.03 450.056C637.955 449.111 638.418 447.821 638.418 446.186Z"></path><path style="fill:var(--color-inkContrast)" d="M648.472 446.148C648.472 443.951 648.883 442.022 649.706 440.362C650.554 438.701 651.698 437.424 653.138 436.53C654.577 435.636 656.184 435.189 657.958 435.189C659.475 435.189 660.799 435.495 661.93 436.108C663.087 436.721 663.974 437.526 664.591 438.522V435.495H671.185V456.877H664.591V453.85C663.948 454.846 663.048 455.651 661.891 456.264C660.76 456.877 659.436 457.184 657.919 457.184C656.171 457.184 654.577 456.737 653.138 455.842C651.698 454.923 650.554 453.633 649.706 451.972C648.883 450.286 648.472 448.345 648.472 446.148ZM664.591 446.186C664.591 444.551 664.128 443.261 663.202 442.316C662.303 441.371 661.197 440.898 659.886 440.898C658.575 440.898 657.457 441.371 656.531 442.316C655.631 443.236 655.181 444.513 655.181 446.148C655.181 447.783 655.631 449.086 656.531 450.056C657.457 451.001 658.575 451.474 659.886 451.474C661.197 451.474 662.303 451.001 663.202 450.056C664.128 449.111 664.591 447.821 664.591 446.186Z"></path><path style="fill:var(--color-inkContrast)" d="M687.948 451.321V456.877H684.593C682.202 456.877 680.339 456.302 679.002 455.153C677.665 453.978 676.996 452.074 676.996 449.443V440.936H674.374V435.495H676.996V430.284H683.591V435.495H687.91V440.936H683.591V449.52C683.591 450.158 683.745 450.618 684.053 450.899C684.362 451.18 684.876 451.321 685.596 451.321H687.948Z"></path><path style="fill:var(--color-inkContrast)" d="M694.937 433.273C693.781 433.273 692.829 432.94 692.084 432.276C691.364 431.587 691.004 430.744 691.004 429.747C691.004 428.725 691.364 427.882 692.084 427.218C692.829 426.528 693.781 426.184 694.937 426.184C696.069 426.184 696.994 426.528 697.714 427.218C698.459 427.882 698.832 428.725 698.832 429.747C698.832 430.744 698.459 431.587 697.714 432.276C696.994 432.94 696.069 433.273 694.937 433.273ZM698.215 435.495V456.877H691.621V435.495H698.215Z"></path><path style="fill:var(--color-inkContrast)" d="M712.789 457.184C710.681 457.184 708.778 456.737 707.082 455.842C705.41 454.948 704.087 453.671 703.11 452.011C702.158 450.35 701.683 448.409 701.683 446.186C701.683 443.989 702.171 442.06 703.148 440.4C704.125 438.714 705.462 437.424 707.159 436.53C708.855 435.636 710.758 435.189 712.866 435.189C714.974 435.189 716.876 435.636 718.573 436.53C720.27 437.424 721.607 438.714 722.583 440.4C723.56 442.06 724.049 443.989 724.049 446.186C724.049 448.383 723.548 450.325 722.545 452.011C721.568 453.671 720.218 454.948 718.496 455.842C716.799 456.737 714.897 457.184 712.789 457.184ZM712.789 451.512C714.048 451.512 715.115 451.053 715.989 450.133C716.889 449.213 717.339 447.898 717.339 446.186C717.339 444.474 716.902 443.159 716.028 442.239C715.18 441.32 714.126 440.86 712.866 440.86C711.58 440.86 710.514 441.32 709.665 442.239C708.817 443.133 708.393 444.449 708.393 446.186C708.393 447.898 708.804 449.213 709.627 450.133C710.475 451.053 711.529 451.512 712.789 451.512Z"></path><path style="fill:var(--color-inkContrast)" d="M740.658 435.265C743.178 435.265 745.183 436.083 746.674 437.718C748.191 439.327 748.949 441.549 748.949 444.385V456.877H742.394V445.266C742.394 443.836 742.021 442.725 741.275 441.933C740.53 441.141 739.527 440.745 738.267 440.745C737.008 440.745 736.005 441.141 735.26 441.933C734.514 442.725 734.141 443.836 734.141 445.266V456.877H727.547V435.495H734.141V438.331C734.81 437.385 735.709 436.645 736.841 436.108C737.972 435.546 739.244 435.265 740.658 435.265Z"></path><path style="fill:var(--color-inkContrast)" d="M762.285 457.184C760.408 457.184 758.737 456.864 757.272 456.226C755.807 455.587 754.65 454.718 753.801 453.62C752.953 452.496 752.477 451.244 752.374 449.865H758.891C758.969 450.606 759.316 451.206 759.933 451.666C760.55 452.125 761.308 452.355 762.208 452.355C763.031 452.355 763.66 452.202 764.097 451.896C764.56 451.563 764.791 451.142 764.791 450.631C764.791 450.018 764.47 449.571 763.827 449.29C763.185 448.983 762.144 448.651 760.704 448.294C759.161 447.936 757.876 447.566 756.848 447.182C755.819 446.774 754.932 446.148 754.187 445.305C753.441 444.436 753.069 443.274 753.069 441.818C753.069 440.592 753.403 439.48 754.071 438.484C754.765 437.462 755.768 436.657 757.079 436.07C758.416 435.482 759.997 435.189 761.822 435.189C764.522 435.189 766.642 435.853 768.185 437.181C769.753 438.51 770.653 440.272 770.884 442.469H764.791C764.689 441.728 764.354 441.141 763.789 440.706C763.249 440.272 762.529 440.055 761.629 440.055C760.858 440.055 760.267 440.208 759.856 440.515C759.444 440.796 759.239 441.192 759.239 441.703C759.239 442.316 759.56 442.776 760.203 443.082C760.871 443.389 761.899 443.695 763.288 444.002C764.881 444.411 766.18 444.819 767.182 445.228C768.185 445.611 769.059 446.25 769.805 447.144C770.576 448.013 770.974 449.188 771 450.669C771 451.921 770.64 453.045 769.92 454.041C769.226 455.012 768.211 455.779 766.874 456.341C765.563 456.903 764.033 457.184 762.285 457.184Z"></path><path style="fill:var(--color-inkBase)" d="M526.648 505.042V487.501H528.741L538.037 501.559V487.501H540.131V505.042H538.037L528.741 490.984V505.042H526.648Z"></path><path style="fill:var(--color-inkBase)" d="M549.263 505.343C548.084 505.343 547.037 505.076 546.123 504.541C545.209 503.99 544.487 503.23 543.955 502.261C543.44 501.292 543.182 500.147 543.182 498.828C543.182 497.525 543.44 496.389 543.955 495.42C544.47 494.434 545.184 493.674 546.098 493.139C547.029 492.588 548.1 492.312 549.313 492.312C550.509 492.312 551.54 492.588 552.403 493.139C553.284 493.674 553.957 494.384 554.422 495.269C554.887 496.155 555.12 497.107 555.12 498.126C555.12 498.31 555.112 498.494 555.095 498.677C555.095 498.861 555.095 499.07 555.095 499.304H545.251C545.301 500.256 545.517 501.049 545.899 501.684C546.298 502.302 546.788 502.77 547.369 503.088C547.967 503.405 548.599 503.564 549.263 503.564C550.127 503.564 550.85 503.363 551.432 502.962C552.013 502.561 552.437 502.018 552.703 501.333H554.771C554.439 502.486 553.799 503.447 552.852 504.215C551.922 504.967 550.725 505.343 549.263 505.343ZM549.263 494.092C548.266 494.092 547.378 494.401 546.597 495.019C545.832 495.62 545.392 496.506 545.276 497.675H553.051C553.002 496.556 552.619 495.679 551.905 495.044C551.191 494.409 550.31 494.092 549.263 494.092Z"></path><path style="fill:var(--color-inkBase)" d="M559.9 505.042L556.286 492.613H558.38L560.997 502.361L563.888 492.613H566.255L569.171 502.361L571.763 492.613H573.881L570.268 505.042H568.124L565.084 494.793L562.043 505.042H559.9Z"></path><path style="fill:var(--color-inkBase)" d="M580.932 505.343C579.453 505.343 578.224 504.967 577.243 504.215C576.263 503.463 575.69 502.444 575.524 501.158H577.667C577.8 501.81 578.14 502.378 578.689 502.862C579.254 503.33 580.01 503.564 580.957 503.564C581.837 503.564 582.485 503.38 582.901 503.012C583.316 502.628 583.524 502.177 583.524 501.659C583.524 500.907 583.249 500.406 582.701 500.156C582.169 499.905 581.414 499.68 580.433 499.479C579.769 499.345 579.104 499.153 578.44 498.903C577.775 498.652 577.218 498.301 576.77 497.85C576.321 497.383 576.097 496.773 576.097 496.021C576.097 494.935 576.496 494.05 577.293 493.365C578.107 492.663 579.204 492.312 580.583 492.312C581.895 492.312 582.967 492.647 583.798 493.315C584.645 493.966 585.135 494.902 585.268 496.121H583.2C583.117 495.486 582.842 494.994 582.377 494.643C581.929 494.275 581.322 494.092 580.558 494.092C579.81 494.092 579.229 494.25 578.813 494.568C578.415 494.885 578.215 495.303 578.215 495.821C578.215 496.322 578.473 496.714 578.988 496.998C579.519 497.282 580.234 497.525 581.131 497.725C581.895 497.892 582.618 498.101 583.299 498.352C583.997 498.585 584.562 498.945 584.994 499.429C585.443 499.897 585.667 500.582 585.667 501.484C585.683 502.603 585.26 503.53 584.396 504.265C583.548 504.984 582.394 505.343 580.932 505.343Z"></path><path style="fill:var(--color-inkBase)" d="M588.782 505.042V487.501H590.875V495.445L598.153 487.501H600.794L594.315 494.492L600.894 505.042H598.352L592.819 496.121L590.875 498.201V505.042H588.782Z"></path><path style="fill:var(--color-inkBase)" d="M604.434 489.857C604.018 489.857 603.669 489.723 603.387 489.456C603.121 489.172 602.988 488.821 602.988 488.403C602.988 488.002 603.121 487.668 603.387 487.401C603.669 487.134 604.018 487 604.434 487C604.832 487 605.173 487.134 605.456 487.401C605.738 487.668 605.879 488.002 605.879 488.403C605.879 488.821 605.738 489.172 605.456 489.456C605.173 489.723 604.832 489.857 604.434 489.857ZM603.387 505.042V492.613H605.48V505.042H603.387Z"></path><path style="fill:var(--color-inkBase)" d="M614.01 505.042C612.88 505.042 611.991 504.766 611.343 504.215C610.696 503.664 610.372 502.67 610.372 501.233V494.392H608.228V492.613H610.372L610.646 489.631H612.465V492.613H616.104V494.392H612.465V501.233C612.465 502.018 612.623 502.553 612.938 502.837C613.254 503.104 613.811 503.238 614.608 503.238H615.904V505.042H614.01Z"></path><path style="fill:var(--color-inkBase)" d="M626.032 505.042V494.392H624.162V492.613H626.032V490.458C626.032 489.255 626.331 488.378 626.929 487.827C627.527 487.276 628.399 487 629.546 487H630.792V488.804H629.87C629.238 488.804 628.79 488.938 628.524 489.205C628.258 489.456 628.125 489.89 628.125 490.508V492.613H631.165V494.392H628.125V505.042H626.032Z"></path><path style="fill:var(--color-inkBase)" d="M638.803 505.343C637.64 505.343 636.594 505.076 635.663 504.541C634.733 504.006 633.993 503.255 633.445 502.286C632.914 501.3 632.648 500.147 632.648 498.828C632.648 497.508 632.922 496.364 633.47 495.395C634.018 494.409 634.758 493.649 635.688 493.114C636.635 492.58 637.69 492.312 638.853 492.312C640.016 492.312 641.063 492.58 641.993 493.114C642.924 493.649 643.655 494.409 644.187 495.395C644.735 496.364 645.009 497.508 645.009 498.828C645.009 500.147 644.735 501.3 644.187 502.286C643.638 503.255 642.891 504.006 641.944 504.541C641.013 505.076 639.966 505.343 638.803 505.343ZM638.803 503.539C639.518 503.539 640.182 503.363 640.797 503.012C641.412 502.662 641.91 502.135 642.292 501.434C642.675 500.732 642.866 499.863 642.866 498.828C642.866 497.792 642.675 496.923 642.292 496.222C641.927 495.52 641.437 494.994 640.822 494.643C640.207 494.292 639.551 494.117 638.853 494.117C638.139 494.117 637.474 494.292 636.859 494.643C636.245 494.994 635.746 495.52 635.364 496.222C634.982 496.923 634.791 497.792 634.791 498.828C634.791 499.863 634.982 500.732 635.364 501.434C635.746 502.135 636.236 502.662 636.835 503.012C637.449 503.363 638.106 503.539 638.803 503.539Z"></path><path style="fill:var(--color-inkBase)" d="M652.431 505.343C650.968 505.343 649.805 504.9 648.941 504.015C648.078 503.113 647.646 501.734 647.646 499.88V492.613H649.739V499.655C649.739 502.244 650.794 503.539 652.904 503.539C653.984 503.539 654.873 503.154 655.571 502.386C656.285 501.601 656.642 500.49 656.642 499.053V492.613H658.736V505.042H656.842L656.692 502.812C656.31 503.597 655.737 504.215 654.973 504.666C654.225 505.117 653.378 505.343 652.431 505.343Z"></path><path style="fill:var(--color-inkBase)" d="M662.182 505.042V492.613H664.076L664.2 494.843C664.599 494.058 665.172 493.44 665.92 492.989C666.668 492.538 667.515 492.312 668.462 492.312C669.924 492.312 671.087 492.763 671.951 493.666C672.831 494.551 673.272 495.921 673.272 497.775V505.042H671.178V498.001C671.178 495.411 670.115 494.117 667.988 494.117C666.925 494.117 666.036 494.509 665.322 495.294C664.624 496.063 664.275 497.165 664.275 498.602V505.042H662.182Z"></path><path style="fill:var(--color-inkBase)" d="M682.051 505.343C680.821 505.343 679.741 505.059 678.811 504.491C677.897 503.923 677.183 503.146 676.668 502.16C676.169 501.175 675.92 500.055 675.92 498.803C675.92 497.55 676.178 496.439 676.693 495.47C677.208 494.484 677.922 493.716 678.836 493.164C679.75 492.596 680.83 492.312 682.076 492.312C683.089 492.312 683.986 492.521 684.767 492.939C685.548 493.357 686.155 493.941 686.587 494.693V487H688.68V505.042H686.786L686.587 502.987C686.188 503.589 685.615 504.132 684.867 504.616C684.119 505.101 683.181 505.343 682.051 505.343ZM682.275 503.514C683.106 503.514 683.837 503.321 684.468 502.937C685.116 502.536 685.615 501.985 685.964 501.283C686.329 500.582 686.512 499.763 686.512 498.828C686.512 497.892 686.329 497.074 685.964 496.372C685.615 495.67 685.116 495.127 684.468 494.743C683.837 494.342 683.106 494.142 682.275 494.142C681.461 494.142 680.73 494.342 680.082 494.743C679.451 495.127 678.952 495.67 678.587 496.372C678.238 497.074 678.063 497.892 678.063 498.828C678.063 499.763 678.238 500.582 678.587 501.283C678.952 501.985 679.451 502.536 680.082 502.937C680.73 503.321 681.461 503.514 682.275 503.514Z"></path><path style="fill:var(--color-inkBase)" d="M696.205 505.343C695.175 505.343 694.319 505.167 693.638 504.817C692.957 504.466 692.45 503.998 692.118 503.413C691.785 502.829 691.619 502.194 691.619 501.509C691.619 500.239 692.101 499.262 693.065 498.577C694.028 497.892 695.341 497.55 697.002 497.55H700.342V497.399C700.342 496.313 700.059 495.495 699.494 494.944C698.929 494.376 698.174 494.092 697.226 494.092C696.412 494.092 695.706 494.3 695.108 494.718C694.527 495.119 694.161 495.712 694.012 496.497H691.868C691.951 495.595 692.25 494.835 692.765 494.217C693.297 493.599 693.953 493.131 694.734 492.814C695.515 492.479 696.346 492.312 697.226 492.312C698.954 492.312 700.25 492.78 701.114 493.716C701.995 494.634 702.435 495.862 702.435 497.399V505.042H700.566L700.441 502.812C700.092 503.514 699.577 504.115 698.896 504.616C698.232 505.101 697.334 505.343 696.205 505.343ZM696.529 503.564C697.326 503.564 698.007 503.355 698.572 502.937C699.154 502.52 699.594 501.977 699.893 501.308C700.192 500.64 700.342 499.939 700.342 499.203V499.178H697.177C695.947 499.178 695.075 499.396 694.56 499.83C694.061 500.248 693.812 500.774 693.812 501.409C693.812 502.06 694.045 502.586 694.51 502.987C694.992 503.372 695.665 503.564 696.529 503.564Z"></path><path style="fill:var(--color-inkBase)" d="M710.12 505.042C708.99 505.042 708.101 504.766 707.453 504.215C706.805 503.664 706.481 502.67 706.481 501.233V494.392H704.338V492.613H706.481L706.755 489.631H708.574V492.613H712.213V494.392H708.574V501.233C708.574 502.018 708.732 502.553 709.048 502.837C709.364 503.104 709.92 503.238 710.718 503.238H712.014V505.042H710.12Z"></path><path style="fill:var(--color-inkBase)" d="M716.144 489.857C715.728 489.857 715.379 489.723 715.097 489.456C714.831 489.172 714.698 488.821 714.698 488.403C714.698 488.002 714.831 487.668 715.097 487.401C715.379 487.134 715.728 487 716.144 487C716.542 487 716.883 487.134 717.165 487.401C717.448 487.668 717.589 488.002 717.589 488.403C717.589 488.821 717.448 489.172 717.165 489.456C716.883 489.723 716.542 489.857 716.144 489.857ZM715.097 505.042V492.613H717.19V505.042H715.097Z"></path><path style="fill:var(--color-inkBase)" d="M726.468 505.343C725.305 505.343 724.258 505.076 723.328 504.541C722.397 504.006 721.658 503.255 721.11 502.286C720.578 501.3 720.312 500.147 720.312 498.828C720.312 497.508 720.586 496.364 721.134 495.395C721.683 494.409 722.422 493.649 723.353 493.114C724.3 492.58 725.355 492.312 726.518 492.312C727.681 492.312 728.727 492.58 729.658 493.114C730.588 493.649 731.319 494.409 731.851 495.395C732.399 496.364 732.673 497.508 732.673 498.828C732.673 500.147 732.399 501.3 731.851 502.286C731.303 503.255 730.555 504.006 729.608 504.541C728.677 505.076 727.631 505.343 726.468 505.343ZM726.468 503.539C727.182 503.539 727.847 503.363 728.461 503.012C729.076 502.662 729.575 502.135 729.957 501.434C730.339 500.732 730.53 499.863 730.53 498.828C730.53 497.792 730.339 496.923 729.957 496.222C729.591 495.52 729.101 494.994 728.486 494.643C727.872 494.292 727.215 494.117 726.518 494.117C725.803 494.117 725.139 494.292 724.524 494.643C723.909 494.994 723.411 495.52 723.029 496.222C722.646 496.923 722.455 497.792 722.455 498.828C722.455 499.863 722.646 500.732 723.029 501.434C723.411 502.135 723.901 502.662 724.499 503.012C725.114 503.363 725.77 503.539 726.468 503.539Z"></path><path style="fill:var(--color-inkBase)" d="M735.584 505.042V492.613H737.478L737.603 494.843C738.001 494.058 738.575 493.44 739.322 492.989C740.07 492.538 740.917 492.312 741.864 492.312C743.326 492.312 744.489 492.763 745.353 493.666C746.234 494.551 746.674 495.921 746.674 497.775V505.042H744.581V498.001C744.581 495.411 743.517 494.117 741.391 494.117C740.327 494.117 739.439 494.509 738.724 495.294C738.026 496.063 737.677 497.165 737.677 498.602V505.042H735.584Z"></path><path style="fill:var(--color-inkBase)" d="M754.581 505.343C753.102 505.343 751.873 504.967 750.893 504.215C749.912 503.463 749.339 502.444 749.173 501.158H751.316C751.449 501.81 751.79 502.378 752.338 502.862C752.903 503.33 753.659 503.564 754.606 503.564C755.487 503.564 756.135 503.38 756.55 503.012C756.965 502.628 757.173 502.177 757.173 501.659C757.173 500.907 756.899 500.406 756.35 500.156C755.819 499.905 755.063 499.68 754.083 499.479C753.418 499.345 752.753 499.153 752.089 498.903C751.424 498.652 750.868 498.301 750.419 497.85C749.971 497.383 749.746 496.773 749.746 496.021C749.746 494.935 750.145 494.05 750.942 493.365C751.757 492.663 752.853 492.312 754.232 492.312C755.545 492.312 756.616 492.647 757.447 493.315C758.294 493.966 758.785 494.902 758.917 496.121H756.849C756.766 495.486 756.492 494.994 756.027 494.643C755.578 494.275 754.971 494.092 754.207 494.092C753.46 494.092 752.878 494.25 752.463 494.568C752.064 494.885 751.865 495.303 751.865 495.821C751.865 496.322 752.122 496.714 752.637 496.998C753.169 497.282 753.883 497.525 754.78 497.725C755.545 497.892 756.267 498.101 756.949 498.352C757.646 498.585 758.211 498.945 758.643 499.429C759.092 499.897 759.316 500.582 759.316 501.484C759.333 502.603 758.909 503.53 758.045 504.265C757.198 504.984 756.043 505.343 754.581 505.343Z"></path><path style="fill:var(--color-inkBase)" d="M774.51 505.343C773.28 505.343 772.2 505.059 771.27 504.491C770.356 503.923 769.642 503.146 769.127 502.16C768.628 501.175 768.379 500.055 768.379 498.803C768.379 497.55 768.636 496.439 769.152 495.47C769.667 494.484 770.381 493.716 771.295 493.164C772.209 492.596 773.289 492.312 774.535 492.312C775.548 492.312 776.445 492.521 777.226 492.939C778.007 493.357 778.614 493.941 779.045 494.693V487H781.139V505.042H779.245L779.045 502.987C778.647 503.589 778.074 504.132 777.326 504.616C776.578 505.101 775.64 505.343 774.51 505.343ZM774.734 503.514C775.565 503.514 776.296 503.321 776.927 502.937C777.575 502.536 778.074 501.985 778.422 501.283C778.788 500.582 778.971 499.763 778.971 498.828C778.971 497.892 778.788 497.074 778.422 496.372C778.074 495.67 777.575 495.127 776.927 494.743C776.296 494.342 775.565 494.142 774.734 494.142C773.92 494.142 773.189 494.342 772.541 494.743C771.91 495.127 771.411 495.67 771.046 496.372C770.697 497.074 770.522 497.892 770.522 498.828C770.522 499.763 770.697 500.582 771.046 501.283C771.411 501.985 771.91 502.536 772.541 502.937C773.189 503.321 773.92 503.514 774.734 503.514Z"></path><path style="fill:var(--color-inkBase)" d="M790.109 505.343C788.929 505.343 787.883 505.076 786.969 504.541C786.055 503.99 785.332 503.23 784.801 502.261C784.286 501.292 784.028 500.147 784.028 498.828C784.028 497.525 784.286 496.389 784.801 495.42C785.316 494.434 786.03 493.674 786.944 493.139C787.874 492.588 788.946 492.312 790.159 492.312C791.355 492.312 792.385 492.588 793.249 493.139C794.13 493.674 794.803 494.384 795.268 495.269C795.733 496.155 795.966 497.107 795.966 498.126C795.966 498.31 795.957 498.494 795.941 498.677C795.941 498.861 795.941 499.07 795.941 499.304H786.097C786.146 500.256 786.362 501.049 786.745 501.684C787.143 502.302 787.633 502.77 788.215 503.088C788.813 503.405 789.444 503.564 790.109 503.564C790.973 503.564 791.696 503.363 792.277 502.962C792.859 502.561 793.282 502.018 793.548 501.333H795.617C795.284 502.486 794.645 503.447 793.698 504.215C792.767 504.967 791.571 505.343 790.109 505.343ZM790.109 494.092C789.112 494.092 788.223 494.401 787.442 495.019C786.678 495.62 786.238 496.506 786.121 497.675H793.897C793.847 496.556 793.465 495.679 792.751 495.044C792.036 494.409 791.156 494.092 790.109 494.092Z"></path><path style="fill:var(--color-inkBase)" d="M799.413 505.042V494.392H797.544V492.613H799.413V490.458C799.413 489.255 799.712 488.378 800.31 487.827C800.909 487.276 801.781 487 802.927 487H804.173V488.804H803.251C802.62 488.804 802.171 488.938 801.905 489.205C801.64 489.456 801.507 489.89 801.507 490.508V492.613H809.183V505.042H807.089V494.392H801.507V505.042H799.413ZM808.161 490.233C807.762 490.233 807.421 490.099 807.139 489.832C806.857 489.548 806.715 489.197 806.715 488.779C806.715 488.378 806.857 488.044 807.139 487.777C807.421 487.51 807.762 487.376 808.161 487.376C808.576 487.376 808.917 487.51 809.183 487.777C809.465 488.044 809.606 488.378 809.606 488.779C809.606 489.197 809.465 489.548 809.183 489.832C808.917 490.099 808.576 490.233 808.161 490.233Z"></path><path style="fill:var(--color-inkBase)" d="M812.88 505.042V492.613H814.775L814.899 494.843C815.298 494.058 815.871 493.44 816.619 492.989C817.366 492.538 818.214 492.312 819.161 492.312C820.623 492.312 821.786 492.763 822.65 493.666C823.53 494.551 823.971 495.921 823.971 497.775V505.042H821.877V498.001C821.877 495.411 820.814 494.117 818.687 494.117C817.624 494.117 816.735 494.509 816.021 495.294C815.323 496.063 814.974 497.165 814.974 498.602V505.042H812.88Z"></path><path style="fill:var(--color-inkBase)" d="M832.7 505.343C831.52 505.343 830.474 505.076 829.56 504.541C828.646 503.99 827.923 503.23 827.392 502.261C826.877 501.292 826.619 500.147 826.619 498.828C826.619 497.525 826.877 496.389 827.392 495.42C827.907 494.434 828.621 493.674 829.535 493.139C830.465 492.588 831.537 492.312 832.75 492.312C833.946 492.312 834.976 492.588 835.84 493.139C836.721 493.674 837.394 494.384 837.859 495.269C838.324 496.155 838.557 497.107 838.557 498.126C838.557 498.31 838.548 498.494 838.532 498.677C838.532 498.861 838.532 499.07 838.532 499.304H828.688C828.737 500.256 828.953 501.049 829.335 501.684C829.734 502.302 830.224 502.77 830.806 503.088C831.404 503.405 832.035 503.564 832.7 503.564C833.564 503.564 834.287 503.363 834.868 502.962C835.45 502.561 835.873 502.018 836.139 501.333H838.208C837.875 502.486 837.236 503.447 836.289 504.215C835.358 504.967 834.162 505.343 832.7 505.343ZM832.7 494.092C831.703 494.092 830.814 494.401 830.033 495.019C829.269 495.62 828.829 496.506 828.712 497.675H836.488C836.438 496.556 836.056 495.679 835.342 495.044C834.627 494.409 833.747 494.092 832.7 494.092Z"></path><path style="fill:var(--color-inkBase)" d="M852.811 505.042C851.682 505.042 850.793 504.766 850.145 504.215C849.497 503.664 849.173 502.67 849.173 501.233V494.392H847.03V492.613H849.173L849.447 489.631H851.266V492.613H854.905V494.392H851.266V501.233C851.266 502.018 851.424 502.553 851.74 502.837C852.055 503.104 852.612 503.238 853.41 503.238H854.705V505.042H852.811Z"></path><path style="fill:var(--color-inkBase)" d="M857.565 505.042V487H859.658V494.743C860.073 493.975 860.663 493.382 861.427 492.964C862.192 492.53 863.022 492.312 863.92 492.312C865.348 492.312 866.495 492.763 867.359 493.666C868.223 494.551 868.655 495.921 868.655 497.775V505.042H866.586V498.001C866.586 495.411 865.548 494.117 863.471 494.117C862.391 494.117 861.486 494.509 860.754 495.294C860.023 496.063 859.658 497.165 859.658 498.602V505.042H857.565Z"></path><path style="fill:var(--color-inkBase)" d="M877.384 505.343C876.204 505.343 875.158 505.076 874.244 504.541C873.33 503.99 872.607 503.23 872.076 502.261C871.561 501.292 871.303 500.147 871.303 498.828C871.303 497.525 871.561 496.389 872.076 495.42C872.591 494.434 873.305 493.674 874.219 493.139C875.149 492.588 876.221 492.312 877.434 492.312C878.63 492.312 879.66 492.588 880.524 493.139C881.405 493.674 882.078 494.384 882.543 495.269C883.008 496.155 883.241 497.107 883.241 498.126C883.241 498.31 883.232 498.494 883.216 498.677C883.216 498.861 883.216 499.07 883.216 499.304H873.372C873.421 500.256 873.637 501.049 874.019 501.684C874.418 502.302 874.908 502.77 875.49 503.088C876.088 503.405 876.719 503.564 877.384 503.564C878.248 503.564 878.971 503.363 879.552 502.962C880.134 502.561 880.557 502.018 880.823 501.333H882.892C882.559 502.486 881.92 503.447 880.973 504.215C880.042 504.967 878.846 505.343 877.384 505.343ZM877.384 494.092C876.387 494.092 875.498 494.401 874.717 495.019C873.953 495.62 873.513 496.506 873.396 497.675H881.172C881.122 496.556 880.74 495.679 880.026 495.044C879.311 494.409 878.431 494.092 877.384 494.092Z"></path><path style="fill:var(--color-inkBase)" d="M896.175 505.042L891.489 492.613H893.682L897.396 503.012L901.134 492.613H903.277L898.592 505.042H896.175Z"></path><path style="fill:var(--color-inkBase)" d="M906.878 489.857C906.463 489.857 906.114 489.723 905.831 489.456C905.566 489.172 905.433 488.821 905.433 488.403C905.433 488.002 905.566 487.668 905.831 487.401C906.114 487.134 906.463 487 906.878 487C907.277 487 907.617 487.134 907.9 487.401C908.182 487.668 908.324 488.002 908.324 488.403C908.324 488.821 908.182 489.172 907.9 489.456C907.617 489.723 907.277 489.857 906.878 489.857ZM905.831 505.042V492.613H907.925V505.042H905.831Z"></path><path style="fill:var(--color-inkBase)" d="M916.305 505.343C914.826 505.343 913.597 504.967 912.617 504.215C911.636 503.463 911.063 502.444 910.897 501.158H913.04C913.173 501.81 913.514 502.378 914.062 502.862C914.627 503.33 915.383 503.564 916.33 503.564C917.21 503.564 917.858 503.38 918.274 503.012C918.689 502.628 918.897 502.177 918.897 501.659C918.897 500.907 918.623 500.406 918.074 500.156C917.543 499.905 916.787 499.68 915.807 499.479C915.142 499.345 914.477 499.153 913.813 498.903C913.148 498.652 912.592 498.301 912.143 497.85C911.694 497.383 911.47 496.773 911.47 496.021C911.47 494.935 911.869 494.05 912.666 493.365C913.48 492.663 914.577 492.312 915.956 492.312C917.269 492.312 918.34 492.647 919.171 493.315C920.018 493.966 920.508 494.902 920.641 496.121H918.573C918.49 495.486 918.216 494.994 917.75 494.643C917.302 494.275 916.695 494.092 915.931 494.092C915.183 494.092 914.602 494.25 914.187 494.568C913.788 494.885 913.588 495.303 913.588 495.821C913.588 496.322 913.846 496.714 914.361 496.998C914.893 497.282 915.607 497.525 916.504 497.725C917.269 497.892 917.991 498.101 918.673 498.352C919.37 498.585 919.935 498.945 920.367 499.429C920.816 499.897 921.04 500.582 921.04 501.484C921.057 502.603 920.633 503.53 919.769 504.265C918.922 504.984 917.767 505.343 916.305 505.343Z"></path><path style="fill:var(--color-inkBase)" d="M928.542 505.343C927.079 505.343 925.916 504.9 925.053 504.015C924.189 503.113 923.757 501.734 923.757 499.88V492.613H925.85V499.655C925.85 502.244 926.905 503.539 929.015 503.539C930.095 503.539 930.984 503.154 931.682 502.386C932.396 501.601 932.753 500.49 932.753 499.053V492.613H934.847V505.042H932.953L932.803 502.812C932.421 503.597 931.848 504.215 931.084 504.666C930.336 505.117 929.489 505.343 928.542 505.343Z"></path><path style="fill:var(--color-inkBase)" d="M942.405 505.343C941.375 505.343 940.519 505.167 939.838 504.817C939.157 504.466 938.65 503.998 938.318 503.413C937.985 502.829 937.819 502.194 937.819 501.509C937.819 500.239 938.301 499.262 939.265 498.577C940.228 497.892 941.541 497.55 943.202 497.55H946.542V497.399C946.542 496.313 946.259 495.495 945.694 494.944C945.129 494.376 944.374 494.092 943.426 494.092C942.612 494.092 941.906 494.3 941.308 494.718C940.727 495.119 940.361 495.712 940.212 496.497H938.068C938.151 495.595 938.45 494.835 938.965 494.217C939.497 493.599 940.153 493.131 940.934 492.814C941.715 492.479 942.546 492.312 943.426 492.312C945.154 492.312 946.45 492.78 947.314 493.716C948.195 494.634 948.635 495.862 948.635 497.399V505.042H946.766L946.641 502.812C946.292 503.514 945.777 504.115 945.096 504.616C944.432 505.101 943.534 505.343 942.405 505.343ZM942.729 503.564C943.526 503.564 944.207 503.355 944.772 502.937C945.354 502.52 945.794 501.977 946.093 501.308C946.392 500.64 946.542 499.939 946.542 499.203V499.178H943.377C942.147 499.178 941.275 499.396 940.76 499.83C940.261 500.248 940.012 500.774 940.012 501.409C940.012 502.06 940.245 502.586 940.71 502.987C941.192 503.372 941.865 503.564 942.729 503.564Z"></path><path style="fill:var(--color-inkBase)" d="M951.776 505.042V487H953.869V505.042H951.776Z"></path><path style="fill:var(--color-inkBase)" d="M532.081 542.575C530.901 542.575 529.855 542.308 528.941 541.774C528.027 541.222 527.304 540.462 526.773 539.493C526.258 538.524 526 537.38 526 536.06C526 534.757 526.258 533.621 526.773 532.652C527.288 531.667 528.002 530.907 528.916 530.372C529.846 529.821 530.918 529.545 532.131 529.545C533.327 529.545 534.357 529.821 535.221 530.372C536.102 530.907 536.775 531.617 537.24 532.502C537.705 533.387 537.938 534.34 537.938 535.359C537.938 535.542 537.929 535.726 537.913 535.91C537.913 536.094 537.913 536.302 537.913 536.536H528.069C528.118 537.489 528.334 538.282 528.716 538.917C529.115 539.535 529.605 540.003 530.187 540.32C530.785 540.638 531.416 540.796 532.081 540.796C532.945 540.796 533.668 540.596 534.249 540.195C534.831 539.794 535.254 539.251 535.52 538.566H537.589C537.256 539.719 536.617 540.679 535.67 541.448C534.739 542.2 533.543 542.575 532.081 542.575ZM532.081 531.324C531.084 531.324 530.195 531.633 529.414 532.251C528.65 532.853 528.21 533.738 528.093 534.908H535.869C535.819 533.788 535.437 532.911 534.723 532.276C534.008 531.642 533.128 531.324 532.081 531.324Z"></path><path style="fill:var(--color-inkBase)" d="M540.712 542.275V524.233H542.806V542.275H540.712Z"></path><path style="fill:var(--color-inkBase)" d="M551.794 542.575C550.615 542.575 549.568 542.308 548.654 541.774C547.74 541.222 547.018 540.462 546.486 539.493C545.971 538.524 545.714 537.38 545.714 536.06C545.714 534.757 545.971 533.621 546.486 532.652C547.001 531.667 547.716 530.907 548.629 530.372C549.56 529.821 550.631 529.545 551.844 529.545C553.041 529.545 554.071 529.821 554.935 530.372C555.815 530.907 556.488 531.617 556.953 532.502C557.418 533.387 557.651 534.34 557.651 535.359C557.651 535.542 557.643 535.726 557.626 535.91C557.626 536.094 557.626 536.302 557.626 536.536H547.782C547.832 537.489 548.048 538.282 548.43 538.917C548.829 539.535 549.319 540.003 549.9 540.32C550.499 540.638 551.13 540.796 551.794 540.796C552.658 540.796 553.381 540.596 553.963 540.195C554.544 539.794 554.968 539.251 555.234 538.566H557.302C556.97 539.719 556.33 540.679 555.383 541.448C554.453 542.2 553.257 542.575 551.794 542.575ZM551.794 531.324C550.798 531.324 549.909 531.633 549.128 532.251C548.364 532.853 547.923 533.738 547.807 534.908H555.583C555.533 533.788 555.151 532.911 554.436 532.276C553.722 531.642 552.841 531.324 551.794 531.324Z"></path><path style="fill:var(--color-inkBase)" d="M560.426 542.275V529.846H562.32L562.469 531.65C562.868 530.982 563.4 530.464 564.064 530.096C564.729 529.729 565.477 529.545 566.307 529.545C567.288 529.545 568.127 529.745 568.824 530.146C569.539 530.547 570.087 531.157 570.469 531.976C570.901 531.224 571.491 530.631 572.239 530.197C573.003 529.762 573.825 529.545 574.706 529.545C576.185 529.545 577.364 529.996 578.245 530.898C579.125 531.784 579.566 533.153 579.566 535.008V542.275H577.497V535.233C577.497 533.947 577.24 532.978 576.725 532.326C576.21 531.675 575.47 531.349 574.507 531.349C573.51 531.349 572.679 531.742 572.014 532.527C571.366 533.295 571.042 534.398 571.042 535.835V542.275H568.949V535.233C568.949 533.947 568.691 532.978 568.176 532.326C567.661 531.675 566.922 531.349 565.958 531.349C564.978 531.349 564.156 531.742 563.491 532.527C562.843 533.295 562.519 534.398 562.519 535.835V542.275H560.426Z"></path><path style="fill:var(--color-inkBase)" d="M588.277 542.575C587.097 542.575 586.05 542.308 585.136 541.774C584.223 541.222 583.5 540.462 582.968 539.493C582.453 538.524 582.196 537.38 582.196 536.06C582.196 534.757 582.453 533.621 582.968 532.652C583.483 531.667 584.198 530.907 585.112 530.372C586.042 529.821 587.114 529.545 588.326 529.545C589.523 529.545 590.553 529.821 591.417 530.372C592.297 530.907 592.97 531.617 593.435 532.502C593.901 533.387 594.133 534.34 594.133 535.359C594.133 535.542 594.125 535.726 594.108 535.91C594.108 536.094 594.108 536.302 594.108 536.536H584.264C584.314 537.489 584.53 538.282 584.912 538.917C585.311 539.535 585.801 540.003 586.383 540.32C586.981 540.638 587.612 540.796 588.277 540.796C589.141 540.796 589.863 540.596 590.445 540.195C591.026 539.794 591.45 539.251 591.716 538.566H593.784C593.452 539.719 592.812 540.679 591.865 541.448C590.935 542.2 589.739 542.575 588.277 542.575ZM588.277 531.324C587.28 531.324 586.391 531.633 585.61 532.251C584.846 532.853 584.405 533.738 584.289 534.908H592.065C592.015 533.788 591.633 532.911 590.918 532.276C590.204 531.642 589.323 531.324 588.277 531.324Z"></path><path style="fill:var(--color-inkBase)" d="M596.908 542.275V529.846H598.802L598.927 532.076C599.325 531.291 599.899 530.673 600.646 530.222C601.394 529.771 602.241 529.545 603.188 529.545C604.65 529.545 605.813 529.996 606.677 530.898C607.558 531.784 607.998 533.153 607.998 535.008V542.275H605.905V535.233C605.905 532.644 604.841 531.349 602.715 531.349C601.651 531.349 600.762 531.742 600.048 532.527C599.35 533.295 599.001 534.398 599.001 535.835V542.275H596.908Z"></path><path style="fill:var(--color-inkBase)" d="M616.054 542.275C614.925 542.275 614.036 541.999 613.388 541.448C612.74 540.897 612.416 539.903 612.416 538.466V531.625H610.273V529.846H612.416L612.69 526.864H614.509V529.846H618.148V531.625H614.509V538.466C614.509 539.251 614.667 539.786 614.983 540.07C615.299 540.337 615.855 540.471 616.653 540.471H617.949V542.275H616.054Z"></path><path style="fill:var(--color-inkBase)" d="M625.543 542.575C624.064 542.575 622.834 542.2 621.854 541.448C620.874 540.696 620.301 539.677 620.135 538.391H622.278C622.411 539.042 622.751 539.61 623.3 540.095C623.865 540.562 624.621 540.796 625.568 540.796C626.448 540.796 627.096 540.613 627.511 540.245C627.927 539.861 628.135 539.41 628.135 538.892C628.135 538.14 627.86 537.639 627.312 537.388C626.78 537.138 626.024 536.912 625.044 536.712C624.38 536.578 623.715 536.386 623.05 536.135C622.386 535.885 621.829 535.534 621.381 535.083C620.932 534.615 620.708 534.005 620.708 533.254C620.708 532.168 621.107 531.282 621.904 530.597C622.718 529.896 623.815 529.545 625.194 529.545C626.506 529.545 627.578 529.879 628.409 530.547C629.256 531.199 629.746 532.134 629.879 533.354H627.811C627.727 532.719 627.453 532.226 626.988 531.875C626.54 531.508 625.933 531.324 625.169 531.324C624.421 531.324 623.84 531.483 623.424 531.8C623.026 532.118 622.826 532.535 622.826 533.053C622.826 533.554 623.084 533.947 623.599 534.231C624.13 534.515 624.845 534.757 625.742 534.958C626.506 535.125 627.229 535.334 627.91 535.584C628.608 535.818 629.173 536.177 629.605 536.662C630.054 537.129 630.278 537.814 630.278 538.716C630.294 539.836 629.871 540.763 629.007 541.498C628.159 542.216 627.005 542.575 625.543 542.575Z"></path><path style="fill:var(--color-inkBase)" d="M644.749 542.275C643.619 542.275 642.73 541.999 642.082 541.448C641.434 540.897 641.11 539.903 641.11 538.466V531.625H638.967V529.846H641.11L641.384 526.864H643.203V529.846H646.842V531.625H643.203V538.466C643.203 539.251 643.361 539.786 643.677 540.07C643.993 540.337 644.549 540.471 645.347 540.471H646.643V542.275H644.749Z"></path><path style="fill:var(--color-inkBase)" d="M649.502 542.275V524.233H651.595V531.976C652.01 531.207 652.6 530.614 653.365 530.197C654.129 529.762 654.96 529.545 655.857 529.545C657.286 529.545 658.432 529.996 659.296 530.898C660.16 531.784 660.592 533.153 660.592 535.008V542.275H658.523V535.233C658.523 532.644 657.485 531.349 655.408 531.349C654.328 531.349 653.423 531.742 652.692 532.527C651.961 533.295 651.595 534.398 651.595 535.835V542.275H649.502Z"></path><path style="fill:var(--color-inkBase)" d="M667.876 542.575C666.846 542.575 665.99 542.4 665.309 542.049C664.627 541.698 664.121 541.231 663.788 540.646C663.456 540.061 663.29 539.426 663.29 538.741C663.29 537.472 663.772 536.495 664.735 535.81C665.699 535.125 667.012 534.782 668.673 534.782H672.013V534.632C672.013 533.546 671.73 532.727 671.165 532.176C670.6 531.608 669.844 531.324 668.897 531.324C668.083 531.324 667.377 531.533 666.779 531.951C666.198 532.352 665.832 532.945 665.683 533.73H663.539C663.622 532.828 663.921 532.068 664.436 531.449C664.968 530.831 665.624 530.364 666.405 530.046C667.186 529.712 668.017 529.545 668.897 529.545C670.625 529.545 671.921 530.013 672.785 530.948C673.666 531.867 674.106 533.095 674.106 534.632V542.275H672.237L672.112 540.045C671.763 540.746 671.248 541.348 670.567 541.849C669.903 542.333 669.005 542.575 667.876 542.575ZM668.2 540.796C668.997 540.796 669.678 540.587 670.243 540.17C670.825 539.752 671.265 539.209 671.564 538.541C671.863 537.873 672.013 537.171 672.013 536.436V536.411H668.848C667.618 536.411 666.746 536.628 666.231 537.063C665.732 537.48 665.483 538.006 665.483 538.641C665.483 539.293 665.716 539.819 666.181 540.22C666.663 540.604 667.336 540.796 668.2 540.796Z"></path><path style="fill:var(--color-inkBase)" d="M681.791 542.275C680.661 542.275 679.772 541.999 679.124 541.448C678.476 540.897 678.152 539.903 678.152 538.466V531.625H676.009V529.846H678.152L678.426 526.864H680.245V529.846H683.884V531.625H680.245V538.466C680.245 539.251 680.403 539.786 680.719 540.07C681.035 540.337 681.591 540.471 682.389 540.471H683.685V542.275H681.791Z"></path><path style="fill:var(--color-inkBase)" d="M694.41 527.089C693.995 527.089 693.646 526.956 693.363 526.688C693.098 526.404 692.965 526.054 692.965 525.636C692.965 525.235 693.098 524.901 693.363 524.634C693.646 524.366 693.995 524.233 694.41 524.233C694.809 524.233 695.149 524.366 695.432 524.634C695.714 524.901 695.856 525.235 695.856 525.636C695.856 526.054 695.714 526.404 695.432 526.688C695.149 526.956 694.809 527.089 694.41 527.089ZM693.363 542.275V529.846H695.457V542.275H693.363Z"></path><path style="fill:var(--color-inkBase)" d="M699.102 542.275V529.846H700.996L701.12 532.076C701.519 531.291 702.092 530.673 702.84 530.222C703.588 529.771 704.435 529.545 705.382 529.545C706.844 529.545 708.007 529.996 708.871 530.898C709.752 531.784 710.192 533.153 710.192 535.008V542.275H708.099V535.233C708.099 532.644 707.035 531.349 704.909 531.349C703.845 531.349 702.956 531.742 702.242 532.527C701.544 533.295 701.195 534.398 701.195 535.835V542.275H699.102Z"></path><path style="fill:var(--color-inkBase)" d="M714.037 542.275V531.625H712.167V529.846H714.037V527.691C714.037 526.488 714.336 525.611 714.934 525.06C715.532 524.508 716.404 524.233 717.551 524.233H718.797V526.037H717.875C717.243 526.037 716.795 526.17 716.529 526.438C716.263 526.688 716.13 527.123 716.13 527.741V529.846H719.171V531.625H716.13V542.275H714.037Z"></path><path style="fill:var(--color-inkBase)" d="M726.808 542.575C725.645 542.575 724.599 542.308 723.668 541.774C722.738 541.239 721.999 540.487 721.45 539.518C720.919 538.533 720.653 537.38 720.653 536.06C720.653 534.74 720.927 533.596 721.475 532.627C722.023 531.642 722.763 530.881 723.693 530.347C724.64 529.812 725.695 529.545 726.858 529.545C728.021 529.545 729.068 529.812 729.998 530.347C730.929 530.881 731.66 531.642 732.192 532.627C732.74 533.596 733.014 534.74 733.014 536.06C733.014 537.38 732.74 538.533 732.192 539.518C731.643 540.487 730.896 541.239 729.949 541.774C729.018 542.308 727.971 542.575 726.808 542.575ZM726.808 540.771C727.523 540.771 728.187 540.596 728.802 540.245C729.417 539.894 729.915 539.368 730.298 538.666C730.68 537.965 730.871 537.096 730.871 536.06C730.871 535.024 730.68 534.156 730.298 533.454C729.932 532.752 729.442 532.226 728.827 531.875C728.212 531.525 727.556 531.349 726.858 531.349C726.144 531.349 725.479 531.525 724.865 531.875C724.25 532.226 723.751 532.752 723.369 533.454C722.987 534.156 722.796 535.024 722.796 536.06C722.796 537.096 722.987 537.965 723.369 538.666C723.751 539.368 724.242 539.894 724.84 540.245C725.454 540.596 726.111 540.771 726.808 540.771Z"></path><path style="fill:var(--color-inkBase)" d="M735.925 542.275V529.846H737.819L737.993 532.226C738.375 531.408 738.957 530.756 739.738 530.272C740.519 529.787 741.482 529.545 742.629 529.545V531.75H742.056C741.324 531.75 740.652 531.884 740.037 532.151C739.422 532.402 738.932 532.836 738.566 533.454C738.201 534.072 738.018 534.924 738.018 536.01V542.275H735.925Z"></path><path style="fill:var(--color-inkBase)" d="M744.978 542.275V529.846H746.872L747.022 531.65C747.421 530.982 747.952 530.464 748.617 530.096C749.282 529.729 750.029 529.545 750.86 529.545C751.84 529.545 752.679 529.745 753.377 530.146C754.091 530.547 754.64 531.157 755.022 531.976C755.454 531.224 756.044 530.631 756.791 530.197C757.556 529.762 758.378 529.545 759.259 529.545C760.737 529.545 761.917 529.996 762.797 530.898C763.678 531.784 764.118 533.153 764.118 535.008V542.275H762.05V535.233C762.05 533.947 761.792 532.978 761.277 532.326C760.762 531.675 760.023 531.349 759.059 531.349C758.062 531.349 757.232 531.742 756.567 532.527C755.919 533.295 755.595 534.398 755.595 535.835V542.275H753.502V535.233C753.502 533.947 753.244 532.978 752.729 532.326C752.214 531.675 751.475 531.349 750.511 531.349C749.531 531.349 748.708 531.742 748.044 532.527C747.396 533.295 747.072 534.398 747.072 535.835V542.275H744.978Z"></path><path style="fill:var(--color-inkBase)" d="M778.752 542.275C777.622 542.275 776.733 541.999 776.085 541.448C775.437 540.897 775.113 539.903 775.113 538.466V531.625H772.97V529.846H775.113L775.387 526.864H777.207V529.846H780.845V531.625H777.207V538.466C777.207 539.251 777.365 539.786 777.68 540.07C777.996 540.337 778.553 540.471 779.35 540.471H780.646V542.275H778.752Z"></path><path style="fill:var(--color-inkBase)" d="M783.505 542.275V524.233H785.598V531.976C786.014 531.207 786.604 530.614 787.368 530.197C788.132 529.762 788.963 529.545 789.86 529.545C791.289 529.545 792.435 529.996 793.299 530.898C794.163 531.784 794.595 533.153 794.595 535.008V542.275H792.527V535.233C792.527 532.644 791.488 531.349 789.411 531.349C788.331 531.349 787.426 531.742 786.695 532.527C785.964 533.295 785.598 534.398 785.598 535.835V542.275H783.505Z"></path><path style="fill:var(--color-inkBase)" d="M803.324 542.575C802.145 542.575 801.098 542.308 800.184 541.774C799.27 541.222 798.548 540.462 798.016 539.493C797.501 538.524 797.243 537.38 797.243 536.06C797.243 534.757 797.501 533.621 798.016 532.652C798.531 531.667 799.246 530.907 800.159 530.372C801.09 529.821 802.161 529.545 803.374 529.545C804.57 529.545 805.601 529.821 806.465 530.372C807.345 530.907 808.018 531.617 808.483 532.502C808.948 533.387 809.181 534.34 809.181 535.359C809.181 535.542 809.173 535.726 809.156 535.91C809.156 536.094 809.156 536.302 809.156 536.536H799.312C799.362 537.489 799.578 538.282 799.96 538.917C800.359 539.535 800.849 540.003 801.43 540.32C802.028 540.638 802.66 540.796 803.324 540.796C804.188 540.796 804.911 540.596 805.493 540.195C806.074 539.794 806.498 539.251 806.764 538.566H808.832C808.5 539.719 807.86 540.679 806.913 541.448C805.983 542.2 804.786 542.575 803.324 542.575ZM803.324 531.324C802.327 531.324 801.439 531.633 800.658 532.251C799.893 532.853 799.453 533.738 799.337 534.908H807.112C807.063 533.788 806.68 532.911 805.966 532.276C805.252 531.642 804.371 531.324 803.324 531.324Z"></path><path style="fill:var(--color-inkBase)" d="M818.551 542.275V524.233H820.645V542.275H818.551Z"></path><path style="fill:var(--color-inkBase)" d="M829.708 542.575C828.545 542.575 827.498 542.308 826.568 541.774C825.638 541.239 824.898 540.487 824.35 539.518C823.818 538.533 823.552 537.38 823.552 536.06C823.552 534.74 823.827 533.596 824.375 532.627C824.923 531.642 825.663 530.881 826.593 530.347C827.54 529.812 828.595 529.545 829.758 529.545C830.921 529.545 831.968 529.812 832.898 530.347C833.829 530.881 834.56 531.642 835.091 532.627C835.64 533.596 835.914 534.74 835.914 536.06C835.914 537.38 835.64 538.533 835.091 539.518C834.543 540.487 833.795 541.239 832.848 541.774C831.918 542.308 830.871 542.575 829.708 542.575ZM829.708 540.771C830.423 540.771 831.087 540.596 831.702 540.245C832.317 539.894 832.815 539.368 833.197 538.666C833.579 537.965 833.77 537.096 833.77 536.06C833.77 535.024 833.579 534.156 833.197 533.454C832.832 532.752 832.342 532.226 831.727 531.875C831.112 531.525 830.456 531.349 829.758 531.349C829.044 531.349 828.379 531.525 827.764 531.875C827.15 532.226 826.651 532.752 826.269 533.454C825.887 534.156 825.696 535.024 825.696 536.06C825.696 537.096 825.887 537.965 826.269 538.666C826.651 539.368 827.141 539.894 827.739 540.245C828.354 540.596 829.01 540.771 829.708 540.771Z"></path><path style="fill:var(--color-inkBase)" d="M844.457 542.575C843.294 542.575 842.247 542.308 841.317 541.774C840.386 541.239 839.647 540.487 839.099 539.518C838.567 538.533 838.301 537.38 838.301 536.06C838.301 534.74 838.575 533.596 839.124 532.627C839.672 531.642 840.411 530.881 841.342 530.347C842.289 529.812 843.344 529.545 844.507 529.545C845.67 529.545 846.716 529.812 847.647 530.347C848.577 530.881 849.308 531.642 849.84 532.627C850.388 533.596 850.662 534.74 850.662 536.06C850.662 537.38 850.388 538.533 849.84 539.518C849.292 540.487 848.544 541.239 847.597 541.774C846.667 542.308 845.62 542.575 844.457 542.575ZM844.457 540.771C845.171 540.771 845.836 540.596 846.451 540.245C847.065 539.894 847.564 539.368 847.946 538.666C848.328 537.965 848.519 537.096 848.519 536.06C848.519 535.024 848.328 534.156 847.946 533.454C847.58 532.752 847.09 532.226 846.475 531.875C845.861 531.525 845.204 531.349 844.507 531.349C843.792 531.349 843.128 531.525 842.513 531.875C841.898 532.226 841.4 532.752 841.018 533.454C840.635 534.156 840.444 535.024 840.444 536.06C840.444 537.096 840.635 537.965 841.018 538.666C841.4 539.368 841.89 539.894 842.488 540.245C843.103 540.596 843.759 540.771 844.457 540.771Z"></path><path style="fill:var(--color-inkBase)" d="M853.573 542.275V524.233H855.667V535.083L860.726 529.846H863.293L857.81 535.459L863.99 542.275H861.324L855.667 535.835V542.275H853.573Z"></path><path style="fill:var(--color-inkBase)" d="M876.839 542.575C875.809 542.575 874.953 542.4 874.272 542.049C873.591 541.698 873.084 541.231 872.752 540.646C872.42 540.061 872.253 539.426 872.253 538.741C872.253 537.472 872.735 536.495 873.699 535.81C874.662 535.125 875.975 534.782 877.636 534.782H880.976V534.632C880.976 533.546 880.694 532.727 880.129 532.176C879.564 531.608 878.808 531.324 877.861 531.324C877.047 531.324 876.341 531.533 875.742 531.951C875.161 532.352 874.795 532.945 874.646 533.73H872.503C872.586 532.828 872.885 532.068 873.4 531.449C873.931 530.831 874.588 530.364 875.369 530.046C876.149 529.712 876.98 529.545 877.861 529.545C879.589 529.545 880.885 530.013 881.749 530.948C882.629 531.867 883.069 533.095 883.069 534.632V542.275H881.2L881.076 540.045C880.727 540.746 880.212 541.348 879.531 541.849C878.866 542.333 877.969 542.575 876.839 542.575ZM877.163 540.796C877.96 540.796 878.642 540.587 879.207 540.17C879.788 539.752 880.228 539.209 880.527 538.541C880.826 537.873 880.976 537.171 880.976 536.436V536.411H877.811C876.581 536.411 875.709 536.628 875.194 537.063C874.696 537.48 874.447 538.006 874.447 538.641C874.447 539.293 874.679 539.819 875.144 540.22C875.626 540.604 876.299 540.796 877.163 540.796Z"></path><path style="fill:var(--color-inkBase)" d="M886.21 542.275V529.846H888.104L888.229 532.076C888.627 531.291 889.201 530.673 889.948 530.222C890.696 529.771 891.543 529.545 892.49 529.545C893.952 529.545 895.115 529.996 895.979 530.898C896.86 531.784 897.3 533.153 897.3 535.008V542.275H895.207V535.233C895.207 532.644 894.143 531.349 892.017 531.349C890.953 531.349 890.065 531.742 889.35 532.527C888.652 533.295 888.303 534.398 888.303 535.835V542.275H886.21Z"></path><path style="fill:var(--color-inkBase)" d="M906.079 542.575C904.85 542.575 903.77 542.291 902.839 541.723C901.926 541.155 901.211 540.379 900.696 539.393C900.198 538.407 899.948 537.288 899.948 536.035C899.948 534.782 900.206 533.671 900.721 532.702C901.236 531.717 901.951 530.948 902.864 530.397C903.778 529.829 904.858 529.545 906.104 529.545C907.118 529.545 908.015 529.754 908.796 530.171C909.577 530.589 910.183 531.174 910.615 531.926V524.233H912.708V542.275H910.814L910.615 540.22C910.216 540.821 909.643 541.364 908.895 541.849C908.148 542.333 907.209 542.575 906.079 542.575ZM906.303 540.746C907.134 540.746 907.865 540.554 908.497 540.17C909.145 539.769 909.643 539.218 909.992 538.516C910.357 537.814 910.54 536.996 910.54 536.06C910.54 535.125 910.357 534.306 909.992 533.604C909.643 532.903 909.145 532.36 908.497 531.976C907.865 531.575 907.134 531.374 906.303 531.374C905.489 531.374 904.758 531.575 904.11 531.976C903.479 532.36 902.981 532.903 902.615 533.604C902.266 534.306 902.092 535.125 902.092 536.06C902.092 536.996 902.266 537.814 902.615 538.516C902.981 539.218 903.479 539.769 904.11 540.17C904.758 540.554 905.489 540.746 906.303 540.746Z"></path><path style="fill:var(--color-inkBase)" d="M923.389 542.275V531.625H921.52V529.846H923.389V527.691C923.389 526.488 923.688 525.611 924.287 525.06C924.885 524.508 925.757 524.233 926.903 524.233H928.149V526.037H927.227C926.596 526.037 926.147 526.17 925.882 526.438C925.616 526.688 925.483 527.123 925.483 527.741V529.846H928.523V531.625H925.483V542.275H923.389Z"></path><path style="fill:var(--color-inkBase)" d="M936.086 542.575C934.907 542.575 933.86 542.308 932.946 541.774C932.032 541.222 931.31 540.462 930.778 539.493C930.263 538.524 930.005 537.38 930.005 536.06C930.005 534.757 930.263 533.621 930.778 532.652C931.293 531.667 932.008 530.907 932.921 530.372C933.852 529.821 934.923 529.545 936.136 529.545C937.332 529.545 938.363 529.821 939.227 530.372C940.107 530.907 940.78 531.617 941.245 532.502C941.71 533.387 941.943 534.34 941.943 535.359C941.943 535.542 941.935 535.726 941.918 535.91C941.918 536.094 941.918 536.302 941.918 536.536H932.074C932.124 537.489 932.34 538.282 932.722 538.917C933.121 539.535 933.611 540.003 934.192 540.32C934.79 540.638 935.422 540.796 936.086 540.796C936.95 540.796 937.673 540.596 938.255 540.195C938.836 539.794 939.26 539.251 939.526 538.566H941.594C941.262 539.719 940.622 540.679 939.675 541.448C938.745 542.2 937.548 542.575 936.086 542.575ZM936.086 531.324C935.09 531.324 934.201 531.633 933.42 532.251C932.656 532.853 932.215 533.738 932.099 534.908H939.875C939.825 533.788 939.443 532.911 938.728 532.276C938.014 531.642 937.133 531.324 936.086 531.324Z"></path><path style="fill:var(--color-inkBase)" d="M950.275 542.575C949.096 542.575 948.049 542.308 947.135 541.774C946.221 541.222 945.499 540.462 944.967 539.493C944.452 538.524 944.194 537.38 944.194 536.06C944.194 534.757 944.452 533.621 944.967 532.652C945.482 531.667 946.196 530.907 947.11 530.372C948.041 529.821 949.112 529.545 950.325 529.545C951.521 529.545 952.551 529.821 953.415 530.372C954.296 530.907 954.969 531.617 955.434 532.502C955.899 533.387 956.132 534.34 956.132 535.359C956.132 535.542 956.124 535.726 956.107 535.91C956.107 536.094 956.107 536.302 956.107 536.536H946.263C946.313 537.489 946.529 538.282 946.911 538.917C947.31 539.535 947.8 540.003 948.381 540.32C948.979 540.638 949.611 540.796 950.275 540.796C951.139 540.796 951.862 540.596 952.443 540.195C953.025 539.794 953.449 539.251 953.714 538.566H955.783C955.451 539.719 954.811 540.679 953.864 541.448C952.934 542.2 951.737 542.575 950.275 542.575ZM950.275 531.324C949.278 531.324 948.39 531.633 947.609 532.251C946.844 532.853 946.404 533.738 946.288 534.908H954.063C954.014 533.788 953.631 532.911 952.917 532.276C952.203 531.642 951.322 531.324 950.275 531.324Z"></path><path style="fill:var(--color-inkBase)" d="M958.907 542.275V524.233H961V542.275H958.907Z"></path><path style="fill:var(--color-inkBase)" d="M532.156 580.788C530.993 580.788 529.946 580.521 529.016 579.986C528.085 579.451 527.346 578.7 526.797 577.731C526.266 576.745 526 575.592 526 574.273C526 572.953 526.274 571.809 526.822 570.84C527.371 569.854 528.11 569.094 529.04 568.559C529.987 568.025 531.043 567.757 532.206 567.757C533.369 567.757 534.415 568.025 535.346 568.559C536.276 569.094 537.007 569.854 537.539 570.84C538.087 571.809 538.361 572.953 538.361 574.273C538.361 575.592 538.087 576.745 537.539 577.731C536.991 578.7 536.243 579.451 535.296 579.986C534.365 580.521 533.319 580.788 532.156 580.788ZM532.156 578.984C532.87 578.984 533.535 578.808 534.149 578.457C534.764 578.107 535.263 577.58 535.645 576.879C536.027 576.177 536.218 575.308 536.218 574.273C536.218 573.237 536.027 572.368 535.645 571.667C535.279 570.965 534.789 570.439 534.174 570.088C533.56 569.737 532.903 569.562 532.206 569.562C531.491 569.562 530.827 569.737 530.212 570.088C529.597 570.439 529.099 570.965 528.716 571.667C528.334 572.368 528.143 573.237 528.143 574.273C528.143 575.308 528.334 576.177 528.716 576.879C529.099 577.58 529.589 578.107 530.187 578.457C530.802 578.808 531.458 578.984 532.156 578.984Z"></path><path style="fill:var(--color-inkBase)" d="M541.945 580.487V569.837H540.076V568.058H541.945V565.903C541.945 564.7 542.244 563.823 542.842 563.272C543.44 562.721 544.312 562.445 545.459 562.445H546.705V564.249H545.783C545.151 564.249 544.703 564.383 544.437 564.65C544.171 564.901 544.038 565.335 544.038 565.953V568.058H547.079V569.837H544.038V580.487H541.945Z"></path><path style="fill:var(--color-inkBase)" d="M562.596 580.788C561.4 580.788 560.312 580.554 559.332 580.086C558.368 579.602 557.595 578.858 557.014 577.856C556.432 576.854 556.142 575.576 556.142 574.022V562.946H558.235V574.047C558.235 575.751 558.642 576.987 559.456 577.756C560.27 578.524 561.334 578.908 562.646 578.908C563.959 578.908 565.014 578.524 565.811 577.756C566.609 576.987 567.008 575.751 567.008 574.047V562.946H569.101V574.022C569.101 575.576 568.81 576.854 568.229 577.856C567.647 578.858 566.866 579.602 565.886 580.086C564.906 580.554 563.809 580.788 562.596 580.788Z"></path><path style="fill:var(--color-inkBase)" d="M572.646 580.487V562.946H574.74V580.487H572.646Z"></path><path style="fill:var(--color-inkBase)" d="M590.592 580.788C589.412 580.788 588.349 580.521 587.402 579.986C586.471 579.435 585.732 578.675 585.184 577.706C584.652 576.72 584.386 575.576 584.386 574.273C584.386 572.97 584.652 571.834 585.184 570.865C585.732 569.879 586.471 569.119 587.402 568.584C588.349 568.033 589.412 567.757 590.592 567.757C592.054 567.757 593.283 568.142 594.28 568.91C595.294 569.679 595.933 570.706 596.199 571.992H594.056C593.89 571.224 593.483 570.631 592.835 570.213C592.187 569.779 591.431 569.562 590.567 569.562C589.869 569.562 589.213 569.737 588.598 570.088C587.983 570.439 587.485 570.965 587.103 571.667C586.72 572.368 586.529 573.237 586.529 574.273C586.529 575.308 586.72 576.177 587.103 576.879C587.485 577.58 587.983 578.115 588.598 578.482C589.213 578.833 589.869 579.009 590.567 579.009C591.431 579.009 592.187 578.8 592.835 578.382C593.483 577.948 593.89 577.338 594.056 576.553H596.199C595.95 577.806 595.318 578.825 594.305 579.61C593.291 580.395 592.054 580.788 590.592 580.788Z"></path><path style="fill:var(--color-inkBase)" d="M604.755 580.788C603.592 580.788 602.545 580.521 601.615 579.986C600.684 579.451 599.945 578.7 599.397 577.731C598.865 576.745 598.599 575.592 598.599 574.273C598.599 572.953 598.873 571.809 599.422 570.84C599.97 569.854 600.709 569.094 601.64 568.559C602.587 568.025 603.642 567.757 604.805 567.757C605.968 567.757 607.015 568.025 607.945 568.559C608.875 569.094 609.606 569.854 610.138 570.84C610.686 571.809 610.961 572.953 610.961 574.273C610.961 575.592 610.686 576.745 610.138 577.731C609.59 578.7 608.842 579.451 607.895 579.986C606.965 580.521 605.918 580.788 604.755 580.788ZM604.755 578.984C605.469 578.984 606.134 578.808 606.749 578.457C607.363 578.107 607.862 577.58 608.244 576.879C608.626 576.177 608.817 575.308 608.817 574.273C608.817 573.237 608.626 572.368 608.244 571.667C607.879 570.965 607.388 570.439 606.774 570.088C606.159 569.737 605.503 569.562 604.805 569.562C604.09 569.562 603.426 569.737 602.811 570.088C602.196 570.439 601.698 570.965 601.316 571.667C600.934 572.368 600.743 573.237 600.743 574.273C600.743 575.308 600.934 576.177 601.316 576.879C601.698 577.58 602.188 578.107 602.786 578.457C603.401 578.808 604.057 578.984 604.755 578.984Z"></path><path style="fill:var(--color-inkBase)" d="M613.871 580.487V568.058H615.765L615.915 569.862C616.314 569.194 616.845 568.676 617.51 568.309C618.174 567.941 618.922 567.757 619.753 567.757C620.733 567.757 621.572 567.958 622.27 568.359C622.984 568.76 623.533 569.369 623.915 570.188C624.347 569.436 624.937 568.843 625.684 568.409C626.448 567.975 627.271 567.757 628.151 567.757C629.63 567.757 630.81 568.208 631.69 569.111C632.571 569.996 633.011 571.366 633.011 573.22V580.487H630.943V573.446C630.943 572.159 630.685 571.19 630.17 570.539C629.655 569.887 628.916 569.562 627.952 569.562C626.955 569.562 626.125 569.954 625.46 570.739C624.812 571.508 624.488 572.61 624.488 574.047V580.487H622.395V573.446C622.395 572.159 622.137 571.19 621.622 570.539C621.107 569.887 620.368 569.562 619.404 569.562C618.424 569.562 617.601 569.954 616.937 570.739C616.289 571.508 615.965 572.61 615.965 574.047V580.487H613.871Z"></path><path style="fill:var(--color-inkBase)" d="M636.165 586V568.058H638.059L638.258 570.113C638.657 569.512 639.222 568.969 639.953 568.484C640.7 568 641.647 567.757 642.794 567.757C644.023 567.757 645.095 568.041 646.009 568.609C646.923 569.177 647.629 569.954 648.127 570.94C648.642 571.925 648.9 573.045 648.9 574.298C648.9 575.551 648.642 576.67 648.127 577.656C647.629 578.624 646.914 579.393 645.984 579.961C645.07 580.512 643.998 580.788 642.769 580.788C641.755 580.788 640.85 580.579 640.052 580.161C639.272 579.744 638.673 579.159 638.258 578.407V586H636.165ZM642.545 578.959C643.375 578.959 644.106 578.766 644.738 578.382C645.369 577.981 645.867 577.43 646.233 576.728C646.599 576.027 646.781 575.208 646.781 574.273C646.781 573.337 646.599 572.519 646.233 571.817C645.867 571.115 645.369 570.572 644.738 570.188C644.106 569.787 643.375 569.587 642.545 569.587C641.714 569.587 640.983 569.787 640.351 570.188C639.72 570.572 639.222 571.115 638.856 571.817C638.491 572.519 638.308 573.337 638.308 574.273C638.308 575.208 638.491 576.027 638.856 576.728C639.222 577.43 639.72 577.981 640.351 578.382C640.983 578.766 641.714 578.959 642.545 578.959Z"></path><path style="fill:var(--color-inkBase)" d="M657.446 580.788C656.283 580.788 655.236 580.521 654.306 579.986C653.376 579.451 652.636 578.7 652.088 577.731C651.556 576.745 651.29 575.592 651.29 574.273C651.29 572.953 651.565 571.809 652.113 570.84C652.661 569.854 653.4 569.094 654.331 568.559C655.278 568.025 656.333 567.757 657.496 567.757C658.659 567.757 659.706 568.025 660.636 568.559C661.566 569.094 662.298 569.854 662.829 570.84C663.377 571.809 663.652 572.953 663.652 574.273C663.652 575.592 663.377 576.745 662.829 577.731C662.281 578.7 661.533 579.451 660.586 579.986C659.656 580.521 658.609 580.788 657.446 580.788ZM657.446 578.984C658.16 578.984 658.825 578.808 659.44 578.457C660.055 578.107 660.553 577.58 660.935 576.879C661.317 576.177 661.508 575.308 661.508 574.273C661.508 573.237 661.317 572.368 660.935 571.667C660.57 570.965 660.079 570.439 659.465 570.088C658.85 569.737 658.194 569.562 657.496 569.562C656.781 569.562 656.117 569.737 655.502 570.088C654.887 570.439 654.389 570.965 654.007 571.667C653.625 572.368 653.434 573.237 653.434 574.273C653.434 575.308 653.625 576.177 654.007 576.879C654.389 577.58 654.879 578.107 655.477 578.457C656.092 578.808 656.748 578.984 657.446 578.984Z"></path><path style="fill:var(--color-inkBase)" d="M666.562 580.487V568.058H668.456L668.581 570.288C668.98 569.503 669.553 568.885 670.301 568.434C671.048 567.983 671.896 567.757 672.843 567.757C674.305 567.757 675.468 568.208 676.332 569.111C677.212 569.996 677.653 571.366 677.653 573.22V580.487H675.559V573.446C675.559 570.856 674.496 569.562 672.369 569.562C671.306 569.562 670.417 569.954 669.703 570.739C669.005 571.508 668.656 572.61 668.656 574.047V580.487H666.562Z"></path><path style="fill:var(--color-inkBase)" d="M686.382 580.788C685.202 580.788 684.155 580.521 683.242 579.986C682.328 579.435 681.605 578.675 681.073 577.706C680.558 576.737 680.301 575.592 680.301 574.273C680.301 572.97 680.558 571.834 681.073 570.865C681.589 569.879 682.303 569.119 683.217 568.584C684.147 568.033 685.219 567.757 686.432 567.757C687.628 567.757 688.658 568.033 689.522 568.584C690.403 569.119 691.075 569.829 691.541 570.714C692.006 571.6 692.238 572.552 692.238 573.571C692.238 573.755 692.23 573.939 692.214 574.122C692.214 574.306 692.214 574.515 692.214 574.749H682.369C682.419 575.701 682.635 576.494 683.017 577.129C683.416 577.747 683.906 578.215 684.488 578.533C685.086 578.85 685.717 579.009 686.382 579.009C687.246 579.009 687.968 578.808 688.55 578.407C689.132 578.006 689.555 577.463 689.821 576.778H691.89C691.557 577.931 690.918 578.892 689.971 579.66C689.04 580.412 687.844 580.788 686.382 580.788ZM686.382 569.537C685.385 569.537 684.496 569.846 683.715 570.464C682.951 571.065 682.511 571.951 682.394 573.12H690.17C690.12 572.001 689.738 571.124 689.024 570.489C688.309 569.854 687.429 569.537 686.382 569.537Z"></path><path style="fill:var(--color-inkBase)" d="M695.013 580.487V568.058H696.907L697.032 570.288C697.431 569.503 698.004 568.885 698.751 568.434C699.499 567.983 700.346 567.757 701.293 567.757C702.755 567.757 703.919 568.208 704.782 569.111C705.663 569.996 706.103 571.366 706.103 573.22V580.487H704.01V573.446C704.01 570.856 702.947 569.562 700.82 569.562C699.757 569.562 698.868 569.954 698.153 570.739C697.455 571.508 697.107 572.61 697.107 574.047V580.487H695.013Z"></path><path style="fill:var(--color-inkBase)" d="M714.16 580.487C713.03 580.487 712.141 580.211 711.493 579.66C710.845 579.109 710.521 578.115 710.521 576.678V569.837H708.378V568.058H710.521L710.795 565.076H712.615V568.058H716.253V569.837H712.615V576.678C712.615 577.463 712.772 577.998 713.088 578.282C713.404 578.549 713.96 578.683 714.758 578.683H716.054V580.487H714.16Z"></path><path style="fill:var(--color-inkBase)" d="M723.648 580.788C722.169 580.788 720.94 580.412 719.959 579.66C718.979 578.908 718.406 577.889 718.24 576.603H720.383C720.516 577.255 720.857 577.823 721.405 578.307C721.97 578.775 722.726 579.009 723.673 579.009C724.553 579.009 725.201 578.825 725.617 578.457C726.032 578.073 726.24 577.622 726.24 577.104C726.24 576.352 725.966 575.851 725.417 575.601C724.886 575.35 724.13 575.125 723.149 574.924C722.485 574.79 721.82 574.598 721.156 574.348C720.491 574.097 719.935 573.746 719.486 573.295C719.037 572.828 718.813 572.218 718.813 571.466C718.813 570.38 719.212 569.495 720.009 568.81C720.823 568.108 721.92 567.757 723.299 567.757C724.612 567.757 725.683 568.092 726.514 568.76C727.361 569.411 727.851 570.347 727.984 571.566H725.916C725.833 570.931 725.559 570.439 725.093 570.088C724.645 569.72 724.038 569.537 723.274 569.537C722.526 569.537 721.945 569.695 721.53 570.013C721.131 570.33 720.931 570.748 720.931 571.266C720.931 571.767 721.189 572.159 721.704 572.443C722.236 572.727 722.95 572.97 723.847 573.17C724.612 573.337 725.334 573.546 726.015 573.797C726.713 574.03 727.278 574.39 727.71 574.874C728.159 575.342 728.383 576.027 728.383 576.929C728.4 578.048 727.976 578.975 727.112 579.71C726.265 580.429 725.11 580.788 723.648 580.788Z"></path><path style="fill:var(--color-inkBase)" d="M732.096 580.612C731.681 580.612 731.332 580.479 731.05 580.211C730.784 579.927 730.651 579.585 730.651 579.184C730.651 578.783 730.784 578.449 731.05 578.182C731.332 577.898 731.681 577.756 732.096 577.756C732.495 577.756 732.827 577.898 733.093 578.182C733.376 578.449 733.517 578.783 733.517 579.184C733.517 579.585 733.376 579.927 733.093 580.211C732.827 580.479 732.495 580.612 732.096 580.612Z"></path><path style="fill:var(--color-illustrationPalette080)" fill-rule="evenodd" clip-rule="evenodd" d="M935 251.953C935 241.462 932.503 231.561 928.079 222.839L924.863 224.445C929.038 232.677 931.399 242.03 931.399 251.953C931.399 285.049 905.152 311.788 872.885 311.788C857.787 311.788 844.02 305.943 833.632 296.328C838.235 291.18 840.544 284.815 840.544 277.226C840.544 269.453 837.999 262.928 832.921 257.648C827.844 252.368 821.301 249.715 813.281 249.715C805.929 249.715 799.795 252.044 794.873 256.684C794.124 256.431 793.267 256.693 792.802 257.374C792.45 257.89 792.406 258.523 792.629 259.059C788.398 264.077 786.277 270.131 786.277 277.226C786.277 285.196 788.824 291.816 793.9 297.095C798.979 302.376 805.437 305.027 813.281 305.027C820.36 305.027 826.288 302.961 831.073 298.845C842.102 309.099 856.774 315.361 872.885 315.361C907.239 315.361 935 286.922 935 251.953ZM772.528 253.777C772.797 253.771 773.066 253.768 773.337 253.768C773.645 253.768 773.952 253.772 774.258 253.78C775.252 253.805 776.079 253.026 776.104 252.04C776.13 251.054 775.345 250.234 774.351 250.209C774.014 250.2 773.676 250.196 773.337 250.196C773.039 250.196 772.743 250.199 772.447 250.206C771.453 250.228 770.665 251.045 770.688 252.032C770.71 253.018 771.534 253.799 772.528 253.777ZM764.564 254.857C765.527 254.613 766.109 253.64 765.863 252.685C765.617 251.729 764.637 251.152 763.673 251.396C763.098 251.541 762.528 251.7 761.963 251.87C761.012 252.158 760.476 253.156 760.766 254.099C761.055 255.043 762.061 255.575 763.012 255.288C763.525 255.133 764.042 254.989 764.564 254.857ZM784.344 251.761C783.39 251.483 782.389 252.025 782.109 252.972C781.829 253.918 782.375 254.911 783.329 255.189C783.919 255.361 784.503 255.548 785.081 255.75C786.019 256.077 787.047 255.587 787.376 254.657C787.706 253.726 787.213 252.706 786.275 252.379C785.638 252.157 784.994 251.951 784.344 251.761ZM755.635 258.463C756.497 257.971 756.794 256.879 756.298 256.024C755.802 255.168 754.702 254.874 753.84 255.366C753.327 255.659 752.821 255.963 752.323 256.277C751.484 256.807 751.236 257.911 751.77 258.743C752.304 259.576 753.417 259.821 754.256 259.291C754.709 259.005 755.169 258.729 755.635 258.463ZM747.977 264.298C748.679 263.6 748.678 262.469 747.975 261.772C747.271 261.075 746.131 261.076 745.429 261.774C745.012 262.188 744.604 262.612 744.205 263.044C743.534 263.772 743.584 264.902 744.317 265.568C745.051 266.234 746.19 266.184 746.861 265.456C747.225 265.062 747.597 264.676 747.977 264.298ZM742.086 271.904C742.586 271.052 742.294 269.958 741.434 269.462C740.575 268.967 739.473 269.256 738.973 270.109C738.677 270.615 738.391 271.127 738.116 271.646C737.654 272.52 737.992 273.6 738.872 274.058C739.753 274.517 740.841 274.181 741.304 273.308C741.555 272.834 741.816 272.366 742.086 271.904ZM738.331 280.749C738.597 279.799 738.036 278.814 737.078 278.55C736.121 278.285 735.128 278.841 734.862 279.792C734.704 280.354 734.558 280.921 734.424 281.493C734.198 282.453 734.8 283.414 735.768 283.638C736.736 283.862 737.704 283.265 737.93 282.304C738.053 281.781 738.186 281.263 738.331 280.749ZM736.929 290.255C736.95 289.268 736.16 288.452 735.166 288.432C734.172 288.412 733.35 289.195 733.329 290.181C733.323 290.474 733.32 290.767 733.32 291.061C733.32 291.344 733.323 291.626 733.329 291.907C733.348 292.894 734.17 293.677 735.164 293.658C736.158 293.639 736.948 292.823 736.929 291.837C736.924 291.579 736.921 291.32 736.921 291.061C736.921 290.791 736.924 290.523 736.929 290.255ZM737.862 299.52C737.644 298.558 736.68 297.953 735.71 298.169C734.74 298.385 734.131 299.341 734.349 300.303C734.474 300.856 734.61 301.405 734.757 301.949C735.014 302.902 736.001 303.467 736.962 303.212C737.922 302.957 738.492 301.977 738.235 301.024C738.101 300.527 737.976 300.026 737.862 299.52ZM741.011 308.248C740.563 307.367 739.48 307.013 738.593 307.457C737.705 307.902 737.348 308.976 737.795 309.857C738.052 310.362 738.319 310.862 738.596 311.355C739.08 312.217 740.176 312.526 741.045 312.046C741.913 311.566 742.225 310.478 741.742 309.617C741.489 309.166 741.245 308.71 741.011 308.248ZM746.213 315.944C745.561 315.199 744.424 315.12 743.673 315.767C742.922 316.414 742.842 317.542 743.494 318.287C743.681 318.5 743.871 318.712 744.062 318.921C744.729 319.653 745.868 319.708 746.605 319.046C747.342 318.384 747.398 317.254 746.73 316.523C746.556 316.332 746.383 316.139 746.213 315.944ZM760.6 355.861C766.232 355.861 770.964 354.029 774.633 350.296C778.284 346.583 780.087 341.919 780.087 336.436C780.087 331.067 778.275 326.47 774.633 322.766C770.964 319.034 766.232 317.201 760.6 317.201C755.071 317.201 750.402 319.042 746.741 322.766C743.099 326.47 741.287 331.067 741.287 336.436C741.287 341.919 743.09 346.583 746.741 350.296C750.402 354.02 755.071 355.861 760.6 355.861ZM772.056 347.801C769.137 350.771 765.372 352.289 760.6 352.289C755.957 352.289 752.245 350.779 749.318 347.801C746.38 344.813 744.888 341.069 744.888 336.436C744.888 331.944 746.371 328.259 749.318 325.261C752.245 322.283 755.957 320.774 760.6 320.774C765.372 320.774 769.137 322.292 772.056 325.261C775.004 328.259 776.486 331.944 776.486 336.436C776.486 341.069 774.994 344.813 772.056 347.801Z"></path><path style="fill:var(--color-illustrationPalette070)" d="M857.979 156.157C837.097 173.999 834.731 205.233 852.696 225.921C870.66 246.609 902.151 248.916 923.033 231.074C943.915 213.233 946.281 181.998 928.317 161.31C910.353 140.623 878.861 138.315 857.979 156.157Z"></path><mask id="nk-201" mask-type="alpha" maskUnits="userSpaceOnUse" x="840" y="144" width="101" height="100"><path style="fill:var(--color-white)" d="M858.139 156.158C837.261 174.001 834.899 205.235 852.863 225.922C870.827 246.609 902.315 248.915 923.193 231.073C944.071 213.23 946.433 181.996 928.469 161.309C910.505 140.622 879.017 138.316 858.139 156.158Z"></path></mask><g mask="url(#nk-201)"><path style="fill:var(--color-illustrationPalette050)" d="M857.979 156.157C837.097 173.999 834.731 205.233 852.696 225.921C870.66 246.609 902.151 248.916 923.033 231.074C943.915 213.233 946.281 181.998 928.317 161.31C910.353 140.623 878.861 138.315 857.979 156.157Z"></path><path style="fill:var(--color-illustrationPalette040)" fill-rule="evenodd" clip-rule="evenodd" d="M936.703 160.492C921.223 138.984 905.439 139.828 905.058 139.812C893.929 139.34 870.38 139.88 859.129 151.244C847.877 162.608 848.292 198.035 869.347 205.146C888.372 211.572 893.036 226.783 904.624 227.557C916.211 228.332 929.362 222.531 938.815 210.723C948.268 198.915 952.183 182.001 936.703 160.492Z"></path><path style="fill:var(--color-illustrationPalette030)" fill-rule="evenodd" clip-rule="evenodd" d="M931.594 133.625C949.248 143 950.121 154.815 950.17 155.096C951.589 163.321 953.649 174.649 946.179 184.137C938.709 193.625 920.571 197.046 920.178 197.092C912.393 198.015 906.886 187.043 899.365 182.123C891.286 176.837 884.657 172.105 882.967 163.569C881.277 155.033 888.449 144.863 893.622 137.032C898.666 129.397 913.941 124.251 931.594 133.625Z"></path></g><path style="fill:var(--color-green030)" opacity="0.6" d="M489 667H1001V718H489V667Z"></path><path style="fill:var(--color-green030)" opacity="0.6" d="M526 381.984H960.917V428.51H526V381.984Z"></path><path style="fill:var(--color-green030)" opacity="0.6" d="M526 581H961V594H526V581Z"></path><path style="fill:var(--color-green030)" opacity="0.6" d="M526 456.88H961V487.88H526V456.88Z"></path><g filter="url(#nk-203)"><path style="fill:var(--color-illustrationBorder020)" fill-rule="evenodd" clip-rule="evenodd" d="M981.609 119.598H508.181C498.471 119.598 490.598 127.47 490.598 137.181V648.029C490.598 657.74 498.471 665.612 508.181 665.612H981.609C991.319 665.612 999.192 657.74 999.192 648.029V137.181C999.192 127.471 991.319 119.598 981.609 119.598ZM508.181 118C497.588 118 489 126.588 489 137.181V648.029C489 658.622 497.588 667.21 508.181 667.21H981.609C992.202 667.21 1000.79 658.622 1000.79 648.029V137.181C1000.79 126.588 992.202 118 981.609 118H508.181Z"></path></g><defs><filter id="nk-202" x="480.652" y="112.826" width="528.484" height="565.905" filterUnits="userSpaceOnUse" color-interpolation-filters="sRGB"><feFlood flood-opacity="0" result="BackgroundImageFix"></feFlood><feColorMatrix in="SourceAlpha" type="matrix" values="0 0 0 0 0 0 0 0 0 0 0 0 0 0 0 0 0 0 127 0" result="hardAlpha"></feColorMatrix><feOffset dy="4.17386"></feOffset><feGaussianBlur stdDeviation="4.17386"></feGaussianBlur><feColorMatrix type="matrix" values="0 0 0 0 0.0392157 0 0 0 0 0.0392157 0 0 0 0 0.0392157 0 0 0 0.08 0"></feColorMatrix><feBlend mode="normal" in2="BackgroundImageFix" result="effect1_dropShadow_444_48036"></feBlend><feBlend mode="normal" in="SourceGraphic" in2="effect1_dropShadow_444_48036" result="shape"></feBlend></filter><filter id="nk-203" x="480.652" y="113.826" width="528.484" height="565.905" filterUnits="userSpaceOnUse" color-interpolation-filters="sRGB"><feFlood flood-opacity="0" result="BackgroundImageFix"></feFlood><feColorMatrix in="SourceAlpha" type="matrix" values="0 0 0 0 0 0 0 0 0 0 0 0 0 0 0 0 0 0 127 0" result="hardAlpha"></feColorMatrix><feOffset dy="4.17386"></feOffset><feGaussianBlur stdDeviation="4.17386"></feGaussianBlur><feColorMatrix type="matrix" values="0 0 0 0 0.0392157 0 0 0 0 0.0392157 0 0 0 0 0.0392157 0 0 0 0.08 0"></feColorMatrix><feBlend mode="normal" in2="BackgroundImageFix" result="effect1_dropShadow_444_48036"></feBlend><feBlend mode="normal" in="SourceGraphic" in2="effect1_dropShadow_444_48036" result="shape"></feBlend></filter></defs></svg>