<svg id="theme-spacing-space-inline" style="width: 100%; height: 100%" width="1490" height="838" viewBox="0 0 1490 838" fill="none" xmlns="http://www.w3.org/2000/svg" class="css-0"><rect style="fill:var(--color-illustrationBackground020)" width="1490" height="838"></rect><path style="fill:var(--color-illustrationHighlight010)" d="M340 430.207C340 358.973 397.747 301.227 468.981 301.227H1021.02C1092.25 301.227 1150 358.973 1150 430.207V440.526C1150 511.76 1092.25 569.507 1021.02 569.507H468.981C397.747 569.507 340 511.76 340 440.526V430.207Z"></path><path style="fill:var(--color-illustrationInterface010)" d="M491.474 406.418C498.601 406.418 503.855 407.744 507.237 410.397C510.67 413.051 512.387 417.082 512.387 422.493C512.387 425.354 511.867 427.773 510.826 429.75C509.786 431.674 508.407 433.261 506.69 434.51C505.026 435.758 503.283 436.721 501.462 437.397L517.069 462.134H507.393L493.971 439.582H484.295V462.134H475.867V406.418H491.474ZM490.928 413.597H484.295V432.559H491.318C495.636 432.559 498.783 431.753 500.76 430.14C502.737 428.475 503.725 426.03 503.725 422.805C503.725 419.475 502.685 417.108 500.604 415.704C498.523 414.299 495.298 413.597 490.928 413.597Z"></path><path style="fill:var(--color-illustrationInterface010)" d="M540.854 419.293C546.369 419.293 550.713 421.01 553.886 424.443C557.059 427.825 558.646 432.455 558.646 438.333V442.859H530.398C530.502 447.177 531.62 450.481 533.753 452.77C535.938 455.059 538.982 456.203 542.883 456.203C545.588 456.203 547.981 455.969 550.062 455.501C552.195 454.98 554.38 454.226 556.617 453.238V460.105C554.484 461.093 552.351 461.795 550.218 462.212C548.086 462.68 545.536 462.914 542.571 462.914C538.513 462.914 534.924 462.108 531.803 460.495C528.681 458.882 526.236 456.489 524.467 453.316C522.751 450.142 521.892 446.189 521.892 441.455C521.892 436.721 522.673 432.715 524.233 429.438C525.846 426.16 528.057 423.663 530.866 421.946C533.727 420.178 537.057 419.293 540.854 419.293ZM540.854 425.692C537.889 425.692 535.496 426.654 533.675 428.579C531.907 430.504 530.866 433.235 530.554 436.773H550.374C550.322 433.495 549.516 430.842 547.955 428.813C546.447 426.732 544.08 425.692 540.854 425.692Z"></path><path style="fill:var(--color-illustrationInterface010)" d="M585.276 419.293C590.53 419.293 594.458 420.464 597.059 422.805C599.712 425.094 601.039 428.709 601.039 433.651V462.134H595.186L593.548 456.281H593.236C591.415 458.57 589.49 460.261 587.461 461.353C585.484 462.394 582.727 462.914 579.19 462.914C575.392 462.914 572.245 461.899 569.748 459.871C567.25 457.79 566.002 454.564 566.002 450.194C566.002 445.877 567.615 442.625 570.84 440.44C574.117 438.203 579.086 436.981 585.744 436.773L592.923 436.539V434.198C592.923 431.128 592.221 428.969 590.817 427.721C589.412 426.42 587.435 425.77 584.886 425.77C582.753 425.77 580.698 426.082 578.721 426.706C576.745 427.331 574.846 428.085 573.025 428.969L570.372 422.961C572.349 421.92 574.612 421.062 577.161 420.386C579.762 419.657 582.467 419.293 585.276 419.293ZM592.845 441.923L587.227 442.079C582.441 442.287 579.112 443.093 577.239 444.498C575.418 445.903 574.508 447.827 574.508 450.272C574.508 452.457 575.158 454.044 576.458 455.033C577.759 456.021 579.45 456.515 581.531 456.515C584.756 456.515 587.435 455.605 589.568 453.784C591.753 451.963 592.845 449.232 592.845 445.59V441.923Z"></path><path style="fill:var(--color-illustrationInterface010)" d="M628.212 462.914C623.113 462.914 619.03 461.093 615.96 457.452C612.891 453.81 611.356 448.4 611.356 441.221C611.356 433.989 612.917 428.527 616.038 424.834C619.16 421.14 623.27 419.293 628.368 419.293C631.541 419.293 634.142 419.891 636.171 421.088C638.2 422.284 639.839 423.741 641.087 425.458H641.555C641.451 424.73 641.321 423.663 641.165 422.258C641.009 420.854 640.931 419.631 640.931 418.591V402.828H649.203V462.134H642.726L641.321 456.515H640.931C639.735 458.284 638.122 459.793 636.093 461.041C634.064 462.29 631.437 462.914 628.212 462.914ZM630.162 456.125C634.22 456.125 637.055 455.006 638.668 452.77C640.333 450.533 641.191 447.125 641.243 442.547V441.299C641.243 436.356 640.437 432.585 638.824 429.984C637.264 427.383 634.35 426.082 630.084 426.082C626.703 426.082 624.154 427.435 622.437 430.14C620.72 432.845 619.862 436.591 619.862 441.377C619.862 446.111 620.72 449.752 622.437 452.301C624.154 454.85 626.729 456.125 630.162 456.125Z"></path><path style="fill:var(--color-illustrationInterface010)" d="M729.568 419.293C734.302 419.293 737.865 420.516 740.259 422.961C742.652 425.406 743.848 429.333 743.848 434.744V462.134H735.576V435.836C735.576 429.333 732.949 426.082 727.695 426.082C723.949 426.082 721.27 427.253 719.658 429.594C718.045 431.883 717.239 435.186 717.239 439.504V462.134H709.045V435.836C709.045 429.333 706.392 426.082 701.086 426.082C697.132 426.082 694.401 427.357 692.892 429.906C691.436 432.455 690.707 436.122 690.707 440.908V462.134H682.436V420.074H688.991L690.161 425.692H690.629C691.93 423.507 693.673 421.894 695.857 420.854C698.094 419.813 700.461 419.293 702.959 419.293C709.409 419.293 713.675 421.556 715.756 426.082H716.38C717.733 423.793 719.606 422.102 721.999 421.01C724.392 419.865 726.915 419.293 729.568 419.293Z"></path><path style="fill:var(--color-illustrationInterface010)" d="M793.572 441.065C793.572 448.036 791.778 453.42 788.188 457.217C784.599 461.015 779.76 462.914 773.674 462.914C769.876 462.914 766.495 462.082 763.53 460.417C760.616 458.7 758.301 456.229 756.585 453.004C754.92 449.726 754.087 445.747 754.087 441.065C754.087 434.094 755.856 428.735 759.394 424.99C762.931 421.192 767.769 419.293 773.908 419.293C777.758 419.293 781.139 420.152 784.052 421.868C787.018 423.533 789.333 425.978 790.997 429.203C792.714 432.429 793.572 436.383 793.572 441.065ZM762.593 441.065C762.593 445.799 763.478 449.492 765.246 452.145C767.067 454.798 769.928 456.125 773.83 456.125C777.732 456.125 780.567 454.798 782.336 452.145C784.156 449.492 785.067 445.799 785.067 441.065C785.067 436.278 784.156 432.611 782.336 430.062C780.567 427.461 777.706 426.16 773.752 426.16C769.85 426.16 767.015 427.461 765.246 430.062C763.478 432.611 762.593 436.278 762.593 441.065Z"></path><path style="fill:var(--color-illustrationInterface010)" d="M824.815 419.293C826.48 419.293 828.014 419.423 829.419 419.683L828.561 427.409C827.208 427.045 825.803 426.862 824.347 426.862C822.214 426.862 820.237 427.383 818.416 428.423C816.596 429.464 815.113 430.972 813.968 432.949C812.876 434.874 812.33 437.215 812.33 439.972V462.134H804.058V420.074H810.613L811.705 427.565H812.018C813.318 425.328 815.061 423.403 817.246 421.79C819.431 420.126 821.954 419.293 824.815 419.293Z"></path><path style="fill:var(--color-illustrationInterface010)" d="M852.226 419.293C857.74 419.293 862.084 421.01 865.258 424.443C868.431 427.825 870.018 432.455 870.018 438.333V442.859H841.77C841.874 447.177 842.992 450.481 845.125 452.77C847.31 455.059 850.353 456.203 854.255 456.203C856.96 456.203 859.353 455.969 861.434 455.501C863.567 454.98 865.752 454.226 867.989 453.238V460.105C865.856 461.093 863.723 461.795 861.59 462.212C859.457 462.68 856.908 462.914 853.943 462.914C849.885 462.914 846.296 462.108 843.174 460.495C840.053 458.882 837.608 456.489 835.839 453.316C834.122 450.142 833.264 446.189 833.264 441.455C833.264 436.721 834.044 432.715 835.605 429.438C837.218 426.16 839.429 423.663 842.238 421.946C845.099 420.178 848.428 419.293 852.226 419.293ZM852.226 425.692C849.261 425.692 846.868 426.654 845.047 428.579C843.278 430.504 842.238 433.235 841.926 436.773H861.746C861.694 433.495 860.888 430.842 859.327 428.813C857.819 426.732 855.452 425.692 852.226 425.692Z"></path><path style="fill:var(--color-illustrationInterface010)" d="M982.115 401.832L974.234 409.713L999.833 435.367L974.234 461.021L982.115 468.902L1015.65 435.367L982.115 401.832Z"></path><path style="fill:var(--color-red020)" d="M883.008 368.297H927.506V502.437H883.008V368.297Z"></path><path style="fill:var(--color-illustrationHighlight010)" fill-rule="evenodd" clip-rule="evenodd" d="M890.746 244.055C884.334 244.055 879.137 249.252 879.137 255.664V263.08H871.398V255.664C871.398 244.978 880.06 236.316 890.746 236.316H925.893C936.578 236.316 945.24 244.978 945.24 255.664V263.08H937.501V255.664C937.501 249.252 932.304 244.055 925.893 244.055H890.746Z"></path><path style="fill:var(--color-illustrationHighlight010)" fill-rule="evenodd" clip-rule="evenodd" d="M912.028 205.074L911.705 238.609L903.967 238.535L904.289 205L912.028 205.074Z"></path><path style="fill:var(--color-illustrationHighlight010)" d="M916.241 183.35L907.32 169.891L899.417 183.35H887.68L901.843 161.597L887.523 140H899.887L908.729 153.38L916.71 140H928.447L914.206 161.597L928.604 183.35H916.241Z"></path></svg>