<svg id="nksvg" width="1490" height="838" viewBox="0 0 1490 838" fill="none" xmlns="http://www.w3.org/2000/svg">
<rect width="1490" height="838" fill="var(--color-illustrationBackground010)"></rect>
<path d="M268 143.716C268 134.399 275.553 126.846 284.87 126.846H1205.35C1214.67 126.846 1222.22 134.399 1222.22 143.716V695.159C1222.22 704.476 1214.67 712.029 1205.35 712.029H284.87C275.553 712.029 268 704.476 268 695.159V143.716Z" fill="white"></path>
<path d="M268 143.5C268 132 277.672 127 282 127H1208.5C1218.5 127 1224 136.582 1224 141V184H268L268 143.5Z" fill="#577FFB"></path>
<path d="M814.525 154.221C814.525 152.061 816.276 150.31 818.436 150.31H878.075C880.235 150.31 881.986 152.061 881.986 154.221C881.986 156.381 880.235 158.132 878.075 158.132H818.436C816.276 158.132 814.525 156.381 814.525 154.221Z" fill="white"></path>
<path d="M921.094 154.221C921.094 152.061 922.845 150.31 925.005 150.31H984.643C986.803 150.31 988.554 152.061 988.554 154.221C988.554 156.381 986.803 158.132 984.643 158.132H925.004C922.845 158.132 921.094 156.381 921.094 154.221Z" fill="white"></path>
<path d="M1027.66 154.221C1027.66 152.061 1029.41 150.31 1031.57 150.31H1091.21C1093.37 150.31 1095.12 152.061 1095.12 154.221C1095.12 156.381 1093.37 158.132 1091.21 158.132H1031.57C1029.41 158.132 1027.66 156.381 1027.66 154.221Z" fill="white"></path>
<path d="M1134.23 154.221C1134.23 152.061 1135.98 150.31 1138.14 150.31H1197.78C1199.94 150.31 1201.69 152.061 1201.69 154.221C1201.69 156.381 1199.94 158.132 1197.78 158.132H1138.14C1135.98 158.132 1134.23 156.381 1134.23 154.221Z" fill="white"></path>
<path d="M297.473 223.482C297.473 221.235 299.294 219.414 301.541 219.414H364.775C367.022 219.414 368.844 221.235 368.844 223.482V225.122C368.844 227.369 367.022 229.19 364.775 229.19H301.541C299.294 229.19 297.473 227.369 297.473 225.122V223.482Z" fill="#AEBFFF"></path>
<path d="M297.473 282.466C297.473 277.067 301.85 272.689 307.25 272.689C312.649 272.689 317.026 277.067 317.026 282.466C317.026 287.866 312.649 292.243 307.25 292.243C301.85 292.243 297.473 287.866 297.473 282.466Z" fill="#AEBFFF"></path>
<path d="M333.643 282.466C333.643 280.307 335.393 278.556 337.553 278.556H427.5C429.66 278.556 431.411 280.307 431.411 282.466C431.411 284.626 429.66 286.377 427.5 286.377H337.553C335.393 286.377 333.643 284.626 333.643 282.466Z" fill="#AEBFFF"></path>
<path d="M477.564 306.412V258.52H483.09V306.412H477.564Z" fill="#D5E0FC"></path>
<path d="M297.473 346.001C297.473 340.601 301.85 336.224 307.25 336.224C312.649 336.224 317.026 340.601 317.026 346.001C317.026 351.401 312.649 355.778 307.25 355.778C301.85 355.778 297.473 351.401 297.473 346.001Z" fill="#577FFB"></path>
<path d="M333.643 346.001C333.643 343.841 335.393 342.09 337.553 342.09H427.5C429.66 342.09 431.411 343.841 431.411 346.001C431.411 348.161 429.66 349.912 427.5 349.912H337.553C335.393 349.912 333.643 348.161 333.643 346.001Z" fill="#577FFB"></path>
<path d="M477.564 369.946V322.055H483.09V369.946H477.564Z" fill="#577FFB"></path>
<path d="M297.473 409.535C297.473 404.135 301.85 399.758 307.25 399.758C312.649 399.758 317.026 404.135 317.026 409.535C317.026 414.934 312.649 419.312 307.25 419.312C301.85 419.312 297.473 414.934 297.473 409.535Z" fill="#AEBFFF"></path>
<path d="M333.643 409.535C333.643 407.375 335.393 405.624 337.553 405.624H427.5C429.66 405.624 431.411 407.375 431.411 409.535C431.411 411.695 429.66 413.445 427.5 413.445H337.553C335.393 413.445 333.643 411.695 333.643 409.535Z" fill="#AEBFFF"></path>
<path d="M477.564 433.48V385.589H483.09V433.48H477.564Z" fill="#D5E0FC"></path>
<path d="M297.473 473.07C297.473 467.67 301.85 463.293 307.25 463.293C312.649 463.293 317.026 467.67 317.026 473.07C317.026 478.469 312.649 482.847 307.25 482.847C301.85 482.847 297.473 478.469 297.473 473.07Z" fill="#AEBFFF"></path>
<path d="M333.643 473.07C333.643 470.91 335.393 469.159 337.553 469.159H427.5C429.66 469.159 431.411 470.91 431.411 473.07C431.411 475.23 429.66 476.981 427.5 476.981H337.553C335.393 476.981 333.643 475.23 333.643 473.07Z" fill="#AEBFFF"></path>
<path d="M477.564 497.015V449.123H483.09V497.015H477.564Z" fill="#D5E0FC"></path>
<path d="M1068.32 665.131C1067.3 665.131 1066.37 664.89 1065.51 664.408C1064.66 663.927 1063.99 663.261 1063.49 662.413C1062.99 661.554 1062.74 660.584 1062.74 659.505C1062.74 658.437 1062.99 657.478 1063.49 656.63C1063.99 655.77 1064.66 655.1 1065.51 654.618C1066.37 654.136 1067.3 653.895 1068.32 653.895C1069.35 653.895 1070.28 654.136 1071.12 654.618C1071.97 655.1 1072.64 655.77 1073.13 656.63C1073.63 657.478 1073.88 658.437 1073.88 659.505C1073.88 660.584 1073.63 661.554 1073.13 662.413C1072.64 663.261 1071.97 663.927 1071.12 664.408C1070.27 664.89 1069.34 665.131 1068.32 665.131ZM1068.32 663.167C1068.97 663.167 1069.55 663.02 1070.05 662.727C1070.55 662.423 1070.94 661.994 1071.22 661.438C1071.5 660.883 1071.64 660.239 1071.64 659.505C1071.64 658.772 1071.5 658.133 1071.22 657.588C1070.94 657.033 1070.55 656.609 1070.05 656.315C1069.55 656.022 1068.97 655.875 1068.32 655.875C1067.66 655.875 1067.08 656.022 1066.57 656.315C1066.07 656.609 1065.69 657.033 1065.41 657.588C1065.12 658.133 1064.98 658.772 1064.98 659.505C1064.98 660.239 1065.12 660.883 1065.41 661.438C1065.69 661.994 1066.07 662.423 1066.57 662.727C1067.08 663.02 1067.66 663.167 1068.32 663.167Z" fill="white"></path>
<path d="M1080.61 665.021L1077.68 661.313V665.021H1075.5V653.392H1077.68V660.008L1080.58 656.315H1083.42L1079.62 660.684L1083.45 665.021H1080.61Z" fill="white"></path>
<path fill-rule="evenodd" clip-rule="evenodd" d="M593.542 411.245C589.82 411.245 586.803 414.263 586.803 417.986C586.803 421.709 589.82 424.727 593.542 424.727H1125.93C1129.65 424.727 1132.66 421.709 1132.66 417.986C1132.66 414.263 1129.65 411.245 1125.93 411.245H593.542ZM593.543 446.299C589.821 446.299 586.804 449.317 586.804 453.04C586.804 456.763 589.821 459.781 593.543 459.781H1011.36C1015.08 459.781 1018.1 456.763 1018.1 453.04C1018.1 449.317 1015.08 446.299 1011.36 446.299H593.543ZM593.543 516.407C589.821 516.407 586.804 519.425 586.804 523.148C586.804 526.871 589.821 529.889 593.543 529.889H1125.93C1129.65 529.889 1132.67 526.871 1132.67 523.148C1132.67 519.425 1129.65 516.407 1125.93 516.407H593.543ZM586.804 593.256C586.804 589.533 589.821 586.515 593.543 586.515H1125.93C1129.65 586.515 1132.67 589.533 1132.67 593.256C1132.67 596.979 1129.65 599.997 1125.93 599.997H593.543C589.821 599.997 586.804 596.979 586.804 593.256ZM593.543 481.353C589.821 481.353 586.804 484.371 586.804 488.094C586.804 491.817 589.821 494.835 593.543 494.835H1125.93C1129.65 494.835 1132.67 491.817 1132.67 488.094C1132.67 484.371 1129.65 481.353 1125.93 481.353H593.543ZM586.804 558.202C586.804 554.479 589.821 551.461 593.543 551.461H1125.93C1129.65 551.461 1132.67 554.479 1132.67 558.202C1132.67 561.925 1129.65 564.943 1125.93 564.943H593.543C589.821 564.943 586.804 561.925 586.804 558.202Z" fill="#D5E0FC"></path>
<path d="M577.926 244.89C577.926 235.312 581.9 227.547 586.803 227.547H1128.28C1133.19 227.547 1137.16 235.312 1137.16 244.89V356.856C1137.16 366.435 1133.19 374.2 1128.28 374.2H586.803C581.9 374.2 577.926 366.435 577.926 356.856V244.89Z" fill="#D5E0FC"></path>
<path d="M268 142.846C268 134.009 275.163 126.846 284 126.846H1208C1216.84 126.846 1224 134.009 1224 142.846V696.846C1224 705.682 1216.84 712.846 1208 712.846H284C275.163 712.846 268 705.682 268 696.846V142.846Z" fill="#AEBFFF"></path>
<path d="M535 260.097C535 256.134 538.213 252.921 542.176 252.921H947.824C951.787 252.921 955 256.134 955 260.097V578.595C955 582.558 951.787 585.771 947.824 585.771H542.176C538.213 585.771 535 582.558 535 578.595V260.097Z" fill="white"></path>
<path d="M928.081 288.976L925.952 286.847L917.512 295.287L909.072 286.847L906.943 288.976L915.383 297.416L906.943 305.856L909.072 307.984L917.512 299.544L925.952 307.984L928.081 305.856L919.641 297.416L928.081 288.976Z" fill="#577FFB"></path>
<path d="M562.3 439.533C562.3 436.88 564.451 434.729 567.104 434.729H919.744C922.397 434.729 924.548 436.88 924.548 439.533C924.548 442.186 922.397 444.337 919.744 444.337H567.104C564.451 444.337 562.3 442.186 562.3 439.533Z" fill="#D5E0FC"></path>
<path d="M562.3 461.662C562.3 459.052 564.415 456.937 567.025 456.937H855.775C858.385 456.937 860.5 459.052 860.5 461.662C860.5 464.271 858.385 466.387 855.775 466.387H567.025C564.415 466.387 562.3 464.271 562.3 461.662Z" fill="#D5E0FC"></path>
<path d="M562.3 417.325C562.3 414.672 564.451 412.521 567.104 412.521H919.744C922.397 412.521 924.548 414.672 924.548 417.325C924.548 419.978 922.397 422.129 919.744 422.129H567.104C564.451 422.129 562.3 419.978 562.3 417.325Z" fill="#D5E0FC"></path>
<path d="M673.6 524.346C673.6 513.618 682.192 504.921 692.792 504.921H794.058C804.658 504.921 813.25 513.618 813.25 524.346C813.25 535.074 804.658 543.771 794.058 543.771H692.792C682.192 543.771 673.6 535.074 673.6 524.346Z" fill="#577FFB"></path>
<path d="M742.375 326.546L772.204 378.313H712.546L742.375 326.546ZM742.375 310.67L698.8 386.27H785.95L742.375 310.67ZM746.336 366.376H738.414V374.334H746.336V366.376ZM746.336 342.502H738.414V358.418H746.336V342.502Z" fill="#577FFB"></path>
</svg>
