<svg id="nksvg" style="width: 100%; height: 100%" width="1490" height="838" viewBox="0 0 1490 838" fill="none" xmlns="http://www.w3.org/2000/svg" class="css-0">
  <path style="fill: var(--color-illustrationBackground020)" d="M0 0H1490V838H0V0Z"></path>
  <path style="fill: var(--color-illustrationInterface020)" d="M159 175C159 163.954 167.954 155 179 155H379C390.046 155 399 163.954 399 175V375C399 386.046 390.046 395 379 395H179C167.954 395 159 386.046 159 375V175Z"></path>
  <path style="fill: var(--color-illustrationInterface020)" d="M447 463C447 451.954 455.954 443 467 443H667C678.046 443 687 451.954 687 463V663C687 674.046 678.046 683 667 683H467C455.954 683 447 674.046 447 663V463Z"></path>
  <path style="fill: var(--color-illustrationHighlight010)" d="M159 463C159 451.954 167.954 443 179 443H379C390.046 443 399 451.954 399 463V663C399 674.046 390.046 683 379 683H179C167.954 683 159 674.046 159 663V463Z"></path>
  <path style="fill: var(--color-illustrationInterface020)" d="M1028 245C1028 233.954 1036.95 225 1048 225H1298C1309.05 225 1318 233.954 1318 245V319C1318 330.046 1309.05 339 1298 339H1048C1036.95 339 1028 330.046 1028 319V245Z"></path>
  <path style="fill: var(--color-illustrationInterface020)" d="M1028 521C1028 509.954 1036.95 501 1048 501H1298C1309.05 501 1318 509.954 1318 521V595C1318 606.046 1309.05 615 1298 615H1048C1036.95 615 1028 606.046 1028 595V521Z"></path>
  <path style="fill: var(--color-illustrationInterface020)" d="M447 175C447 163.954 455.954 155 467 155H667C678.046 155 687 163.954 687 175V375C687 386.046 678.046 395 667 395H467C455.954 395 447 386.046 447 375V175Z"></path>
  <path style="fill: var(--color-illustrationInterface020)" d="M1028 383C1028 371.954 1036.95 363 1048 363H1298C1309.05 363 1318 371.954 1318 383V457C1318 468.046 1309.05 477 1298 477H1048C1036.95 477 1028 468.046 1028 457V383Z"></path>
  <path style="fill: var(--color-illustrationHighlight010)" d="M273.44 265V259.84H283.08V289H277.32V265H273.44Z"></path>
  <path style="fill: var(--color-illustrationHighlight010)" d="M1168.44 272V266.84H1178.08V296H1172.32V272H1168.44Z"></path>
  <path style="fill: var(--color-illustrationHighlight010)" d="M556.88 282.68C559.44 280.547 561.48 278.774 563 277.36C564.52 275.92 565.787 274.427 566.8 272.88C567.813 271.334 568.32 269.814 568.32 268.32C568.32 266.96 568 265.894 567.36 265.12C566.72 264.347 565.733 263.96 564.4 263.96C563.067 263.96 562.04 264.414 561.32 265.32C560.6 266.2 560.227 267.414 560.2 268.96H554.76C554.867 265.76 555.813 263.334 557.6 261.68C559.413 260.027 561.707 259.2 564.48 259.2C567.52 259.2 569.853 260.014 571.48 261.64C573.107 263.24 573.92 265.36 573.92 268C573.92 270.08 573.36 272.067 572.24 273.96C571.12 275.854 569.84 277.507 568.4 278.92C566.96 280.307 565.08 281.987 562.76 283.96H574.56V288.6H554.8V284.44L556.88 282.68Z"></path>
  <path style="fill: var(--color-illustrationInterface010)" d="M265.2 555.52C265.333 552.853 266.267 550.8 268 549.36C269.76 547.893 272.067 547.16 274.92 547.16C276.867 547.16 278.533 547.507 279.92 548.2C281.307 548.867 282.347 549.787 283.04 550.96C283.76 552.107 284.12 553.413 284.12 554.88C284.12 556.56 283.68 557.987 282.8 559.16C281.947 560.307 280.92 561.08 279.72 561.48V561.64C281.267 562.12 282.467 562.973 283.32 564.2C284.2 565.427 284.64 567 284.64 568.92C284.64 570.52 284.267 571.947 283.52 573.2C282.8 574.453 281.72 575.44 280.28 576.16C278.867 576.853 277.16 577.2 275.16 577.2C272.147 577.2 269.693 576.44 267.8 574.92C265.907 573.4 264.907 571.16 264.8 568.2H270.24C270.293 569.507 270.733 570.56 271.56 571.36C272.413 572.133 273.573 572.52 275.04 572.52C276.4 572.52 277.44 572.147 278.16 571.4C278.907 570.627 279.28 569.64 279.28 568.44C279.28 566.84 278.773 565.693 277.76 565C276.747 564.307 275.173 563.96 273.04 563.96H271.88V559.36H273.04C276.827 559.36 278.72 558.093 278.72 555.56C278.72 554.413 278.373 553.52 277.68 552.88C277.013 552.24 276.04 551.92 274.76 551.92C273.507 551.92 272.533 552.267 271.84 552.96C271.173 553.627 270.787 554.48 270.68 555.52H265.2Z"></path>
  <path style="fill: var(--color-illustrationHighlight010)" d="M554.88 571.32V566.92L567.96 548.2H574.48V566.44H578V571.32H574.48V577H568.88V571.32H554.88ZM569.24 554.2L561.04 566.44H569.24V554.2Z"></path>
  <path style="fill: var(--color-illustrationHighlight010)" d="M1165.88 427.68C1168.44 425.547 1170.48 423.774 1172 422.36C1173.52 420.92 1174.79 419.427 1175.8 417.88C1176.81 416.334 1177.32 414.814 1177.32 413.32C1177.32 411.96 1177 410.894 1176.36 410.12C1175.72 409.347 1174.73 408.96 1173.4 408.96C1172.07 408.96 1171.04 409.414 1170.32 410.32C1169.6 411.2 1169.23 412.414 1169.2 413.96H1163.76C1163.87 410.76 1164.81 408.334 1166.6 406.68C1168.41 405.027 1170.71 404.2 1173.48 404.2C1176.52 404.2 1178.85 405.014 1180.48 406.64C1182.11 408.24 1182.92 410.36 1182.92 413C1182.92 415.08 1182.36 417.067 1181.24 418.96C1180.12 420.854 1178.84 422.507 1177.4 423.92C1175.96 425.307 1174.08 426.987 1171.76 428.96H1183.56V433.6H1163.8V429.44L1165.88 427.68Z"></path>
  <path style="fill: var(--color-illustrationHighlight010)" d="M1162.88 566.32V561.92L1175.96 543.2H1182.48V561.44H1186V566.32H1182.48V572H1176.88V566.32H1162.88ZM1177.24 549.2L1169.04 561.44H1177.24V549.2Z"></path>
  <path style="fill: var(--color-illustrationHighlight010)" d="M913.64 417.682L899.513 410.418C897.881 409.579 895.941 410.764 895.941 412.598L895.941 426.725C895.941 428.535 897.835 429.721 899.463 428.93L913.59 422.066C915.407 421.184 915.436 418.606 913.64 417.682Z"></path>
  <path style="fill: var(--color-illustrationHighlight010)" fill-rule="evenodd" clip-rule="evenodd" d="M781.221 419.612C781.221 420.627 782.044 421.45 783.059 421.45L787.763 421.45C788.778 421.45 789.601 420.627 789.601 419.612C789.601 418.597 788.778 417.774 787.763 417.774L783.059 417.774C782.044 417.774 781.221 418.597 781.221 419.612ZM795.331 419.612C795.331 420.627 796.154 421.45 797.17 421.45L806.576 421.45C807.592 421.45 808.415 420.627 808.415 419.612C808.415 418.597 807.592 417.774 806.576 417.774L797.17 417.774C796.154 417.774 795.331 418.597 795.331 419.612ZM814.145 419.612C814.145 420.627 814.968 421.45 815.983 421.45L825.39 421.45C826.405 421.45 827.228 420.627 827.228 419.612C827.228 418.597 826.405 417.774 825.39 417.774L815.983 417.774C814.968 417.774 814.145 418.597 814.145 419.612ZM832.958 419.612C832.958 420.627 833.781 421.45 834.797 421.45L844.203 421.45C845.219 421.45 846.042 420.627 846.042 419.612C846.042 418.597 845.219 417.774 844.203 417.774L834.797 417.774C833.781 417.774 832.958 418.597 832.958 419.612ZM851.772 419.612C851.772 420.627 852.595 421.45 853.61 421.45L863.017 421.45C864.032 421.45 864.855 420.627 864.855 419.612C864.855 418.597 864.032 417.774 863.017 417.774L853.61 417.774C852.595 417.774 851.772 418.597 851.772 419.612ZM870.585 419.612C870.585 420.627 871.408 421.45 872.424 421.45L881.83 421.45C882.846 421.45 883.669 420.627 883.669 419.612C883.669 418.597 882.846 417.774 881.83 417.774L872.424 417.774C871.408 417.774 870.585 418.597 870.585 419.612ZM889.399 419.612C889.399 420.627 890.222 421.45 891.237 421.45L895.94 421.45C896.956 421.45 897.779 420.627 897.779 419.612C897.779 418.597 896.956 417.774 895.94 417.774L891.237 417.774C890.222 417.774 889.399 418.597 889.399 419.612Z"></path>
</svg>
