<svg
  id="nksvg"
  style="width: 100%; height: 100%"
  width="1490"
  height="838"
  viewBox="0 0 1490 838"
  fill="none"
  xmlns="http://www.w3.org/2000/svg"
  class="css-0"
>
  <path
    style="fill: var(--color-illustrationInterface020)"
    d="M0 0H1490V838H0V0Z"
  ></path>
  <path
    style="fill: var(--color-illustrationInterface010)"
    d="M460 120.421C460 115.218 464.218 111 469.421 111H1022.58C1027.78 111 1032 115.218 1032 120.421V173.579C1032 178.782 1027.78 183 1022.58 183H469.421C464.218 183 460 178.782 460 173.579V120.421Z"
  ></path>
  <path
    style="fill: var(--color-illustrationInterface070)"
    d="M468.559 80.2742V82.1109H462.733V86.1597H467.275V87.9964H462.733V94.0004H460.481V80.2742H468.559Z"
  ></path>
  <path
    style="fill: var(--color-illustrationInterface070)"
    d="M471.791 81.6765C471.383 81.6765 471.041 81.5382 470.764 81.2617C470.488 80.9852 470.349 80.6429 470.349 80.2347C470.349 79.8265 470.488 79.4842 470.764 79.2077C471.041 78.9312 471.383 78.793 471.791 78.793C472.186 78.793 472.522 78.9312 472.798 79.2077C473.075 79.4842 473.213 79.8265 473.213 80.2347C473.213 80.6429 473.075 80.9852 472.798 81.2617C472.522 81.5382 472.186 81.6765 471.791 81.6765ZM472.897 83.1182V94.0004H470.646V83.1182H472.897Z"
  ></path>
  <path
    style="fill: var(--color-illustrationInterface070)"
    d="M478.105 84.6982C478.434 84.1452 478.868 83.7173 479.408 83.4144C479.961 83.0984 480.613 82.9404 481.363 82.9404V85.2709H480.791C479.908 85.2709 479.237 85.4948 478.776 85.9424C478.328 86.3901 478.105 87.1669 478.105 88.2729V94.0004H475.853V83.1182H478.105V84.6982Z"
  ></path>
  <path
    style="fill: var(--color-illustrationInterface070)"
    d="M487.383 94.1781C486.527 94.1781 485.757 94.0267 485.072 93.7239C484.401 93.4079 483.867 92.9866 483.472 92.4599C483.077 91.9201 482.867 91.321 482.84 90.6626H485.171C485.21 91.1235 485.428 91.5119 485.823 91.8279C486.231 92.1307 486.738 92.2821 487.343 92.2821C487.975 92.2821 488.463 92.1636 488.805 91.9266C489.16 91.6765 489.338 91.3605 489.338 90.9786C489.338 90.5705 489.141 90.2677 488.746 90.0702C488.364 89.8727 487.752 89.6554 486.909 89.4184C486.093 89.1946 485.428 88.9773 484.914 88.7667C484.401 88.556 483.953 88.2334 483.571 87.7989C483.203 87.3644 483.018 86.7917 483.018 86.0807C483.018 85.5013 483.189 84.9747 483.532 84.5007C483.874 84.0135 484.361 83.6317 484.993 83.3552C485.638 83.0787 486.376 82.9404 487.205 82.9404C488.443 82.9404 489.437 83.2564 490.187 83.8884C490.951 84.5073 491.359 85.3565 491.412 86.4362H489.16C489.121 85.949 488.923 85.5606 488.568 85.2709C488.212 84.9813 487.732 84.8364 487.126 84.8364C486.534 84.8364 486.079 84.9483 485.763 85.1722C485.447 85.396 485.289 85.6923 485.289 86.0609C485.289 86.3506 485.395 86.5942 485.605 86.7917C485.816 86.9892 486.073 87.1472 486.376 87.2657C486.679 87.371 487.126 87.5093 487.719 87.6804C488.509 87.8911 489.154 88.1083 489.654 88.3322C490.168 88.5428 490.609 88.8588 490.977 89.2802C491.346 89.7015 491.537 90.2611 491.55 90.9589C491.55 91.5777 491.379 92.1307 491.037 92.6179C490.694 93.1051 490.207 93.4869 489.575 93.7634C488.956 94.0399 488.226 94.1781 487.383 94.1781Z"
  ></path>
  <path
    style="fill: var(--color-illustrationInterface070)"
    d="M496.61 84.9549V90.9786C496.61 91.3868 496.702 91.6831 496.886 91.8674C497.084 92.0386 497.413 92.1241 497.874 92.1241H499.256V94.0004H497.479C496.465 94.0004 495.688 93.7634 495.148 93.2894C494.608 92.8154 494.338 92.0451 494.338 90.9786V84.9549H493.055V83.1182H494.338V80.4125H496.61V83.1182H499.256V84.9549H496.61Z"
  ></path>
  <path
    style="fill: var(--color-illustrationInterface070)"
    d="M511.952 82.9404C512.808 82.9404 513.572 83.1182 514.243 83.4737C514.928 83.8292 515.461 84.3559 515.843 85.0537C516.225 85.7515 516.416 86.5942 516.416 87.5817V94.0004H514.184V87.9174C514.184 86.9431 513.94 86.1992 513.453 85.6857C512.966 85.159 512.301 84.8957 511.458 84.8957C510.616 84.8957 509.944 85.159 509.444 85.6857C508.957 86.1992 508.713 86.9431 508.713 87.9174V94.0004H506.462V83.1182H508.713V84.3624C509.082 83.9148 509.549 83.5659 510.115 83.3157C510.695 83.0655 511.307 82.9404 511.952 82.9404Z"
  ></path>
  <path
    style="fill: var(--color-illustrationInterface070)"
    d="M518.537 88.5099C518.537 87.4171 518.761 86.4493 519.208 85.6067C519.669 84.764 520.288 84.1123 521.065 83.6514C521.855 83.1774 522.724 82.9404 523.672 82.9404C524.528 82.9404 525.272 83.1116 525.904 83.4539C526.549 83.7831 527.062 84.1979 527.444 84.6982V83.1182H529.715V94.0004H527.444V92.3809C527.062 92.8944 526.542 93.3223 525.884 93.6646C525.226 94.007 524.475 94.1781 523.632 94.1781C522.698 94.1781 521.842 93.9411 521.065 93.4671C520.288 92.98 519.669 92.3085 519.208 91.4526C518.761 90.5836 518.537 89.6027 518.537 88.5099ZM527.444 88.5494C527.444 87.7989 527.286 87.1472 526.97 86.5942C526.667 86.0412 526.266 85.6198 525.765 85.3302C525.265 85.0405 524.725 84.8957 524.146 84.8957C523.567 84.8957 523.027 85.0405 522.526 85.3302C522.026 85.6067 521.618 86.0214 521.302 86.5744C520.999 87.1143 520.848 87.7594 520.848 88.5099C520.848 89.2604 520.999 89.9187 521.302 90.4849C521.618 91.0511 522.026 91.4856 522.526 91.7884C523.04 92.0781 523.58 92.2229 524.146 92.2229C524.725 92.2229 525.265 92.0781 525.765 91.7884C526.266 91.4987 526.667 91.0774 526.97 90.5244C527.286 89.9582 527.444 89.2999 527.444 88.5494Z"
  ></path>
  <path
    style="fill: var(--color-illustrationInterface070)"
    d="M545.846 82.9404C546.702 82.9404 547.465 83.1182 548.137 83.4737C548.821 83.8292 549.355 84.3559 549.737 85.0537C550.132 85.7515 550.329 86.5942 550.329 87.5817V94.0004H548.097V87.9174C548.097 86.9431 547.854 86.1992 547.367 85.6857C546.879 85.159 546.215 84.8957 545.372 84.8957C544.529 84.8957 543.858 85.159 543.357 85.6857C542.87 86.1992 542.627 86.9431 542.627 87.9174V94.0004H540.395V87.9174C540.395 86.9431 540.151 86.1992 539.664 85.6857C539.177 85.159 538.512 84.8957 537.669 84.8957C536.827 84.8957 536.155 85.159 535.655 85.6857C535.168 86.1992 534.924 86.9431 534.924 87.9174V94.0004H532.673V83.1182H534.924V84.3624C535.293 83.9148 535.76 83.5659 536.326 83.3157C536.893 83.0655 537.498 82.9404 538.143 82.9404C539.012 82.9404 539.789 83.1248 540.474 83.4934C541.159 83.8621 541.685 84.3954 542.054 85.0932C542.383 84.4349 542.897 83.9148 543.594 83.5329C544.292 83.1379 545.043 82.9404 545.846 82.9404Z"
  ></path>
  <path
    style="fill: var(--color-illustrationInterface070)"
    d="M563.168 88.2927C563.168 88.7008 563.141 89.0695 563.089 89.3987H554.774C554.84 90.2677 555.162 90.9655 555.742 91.4921C556.321 92.0188 557.032 92.2821 557.875 92.2821C559.086 92.2821 559.942 91.7752 560.442 90.7614H562.871C562.542 91.7621 561.943 92.585 561.074 93.2301C560.218 93.8621 559.152 94.1781 557.875 94.1781C556.835 94.1781 555.9 93.9477 555.07 93.4869C554.254 93.0129 553.609 92.3546 553.135 91.5119C552.674 90.6561 552.444 89.6686 552.444 88.5494C552.444 87.4303 552.667 86.4493 553.115 85.6067C553.576 84.7509 554.214 84.0925 555.031 83.6317C555.86 83.1709 556.808 82.9404 557.875 82.9404C558.902 82.9404 559.817 83.1643 560.62 83.6119C561.423 84.0596 562.049 84.6916 562.496 85.5079C562.944 86.3111 563.168 87.2393 563.168 88.2927ZM560.817 87.5817C560.804 86.7522 560.508 86.0873 559.929 85.5869C559.349 85.0866 558.632 84.8364 557.776 84.8364C556.999 84.8364 556.334 85.0866 555.781 85.5869C555.228 86.0741 554.899 86.739 554.794 87.5817H560.817Z"
  ></path>
  <path
    style="fill: var(--color-illustrationInterface070)"
    d="M481.946 146.322C481.946 144.826 482.283 143.484 482.958 142.296C483.632 141.093 484.549 140.154 485.708 139.48C486.881 138.805 488.179 138.468 489.602 138.468C491.274 138.468 492.733 138.871 493.98 139.678C495.226 140.484 496.136 141.628 496.708 143.11H494.31C493.884 142.186 493.268 141.474 492.462 140.976C491.67 140.477 490.716 140.228 489.602 140.228C488.531 140.228 487.57 140.477 486.72 140.976C485.869 141.474 485.202 142.186 484.718 143.11C484.234 144.019 483.992 145.09 483.992 146.322C483.992 147.539 484.234 148.61 484.718 149.534C485.202 150.443 485.869 151.147 486.72 151.646C487.57 152.144 488.531 152.394 489.602 152.394C490.716 152.394 491.67 152.152 492.462 151.668C493.268 151.169 493.884 150.458 494.31 149.534H496.708C496.136 151 495.226 152.137 493.98 152.944C492.733 153.736 491.274 154.132 489.602 154.132C488.179 154.132 486.881 153.802 485.708 153.142C484.549 152.467 483.632 151.536 482.958 150.348C482.283 149.16 481.946 147.818 481.946 146.322Z"
  ></path>
  <path
    style="fill: var(--color-illustrationInterface070)"
    d="M505.672 141.724C506.581 141.724 507.403 141.922 508.136 142.318C508.869 142.699 509.441 143.278 509.852 144.056C510.277 144.833 510.49 145.779 510.49 146.894V154H508.51V147.18C508.51 145.977 508.209 145.06 507.608 144.43C507.007 143.784 506.185 143.462 505.144 143.462C504.088 143.462 503.245 143.792 502.614 144.452C501.998 145.112 501.69 146.072 501.69 147.334V154H499.688V137.72H501.69V143.66C502.086 143.044 502.629 142.567 503.318 142.23C504.022 141.892 504.807 141.724 505.672 141.724Z"
  ></path>
  <path
    style="fill: var(--color-illustrationInterface070)"
    d="M515.762 143.902C516.114 143.212 516.613 142.677 517.258 142.296C517.918 141.914 518.718 141.724 519.656 141.724V143.792H519.128C516.884 143.792 515.762 145.009 515.762 147.444V154H513.76V141.944H515.762V143.902Z"
  ></path>
  <path
    style="fill: var(--color-illustrationInterface070)"
    d="M523.001 139.986C522.62 139.986 522.297 139.854 522.033 139.59C521.769 139.326 521.637 139.003 521.637 138.622C521.637 138.24 521.769 137.918 522.033 137.654C522.297 137.39 522.62 137.258 523.001 137.258C523.368 137.258 523.676 137.39 523.925 137.654C524.189 137.918 524.321 138.24 524.321 138.622C524.321 139.003 524.189 139.326 523.925 139.59C523.676 139.854 523.368 139.986 523.001 139.986ZM523.969 141.944V154H521.967V141.944H523.969Z"
  ></path>
  <path
    style="fill: var(--color-illustrationInterface070)"
    d="M531.649 154.198C530.725 154.198 529.897 154.044 529.163 153.736C528.43 153.413 527.851 152.973 527.425 152.416C527 151.844 526.765 151.191 526.721 150.458H528.789C528.848 151.059 529.127 151.55 529.625 151.932C530.139 152.313 530.806 152.504 531.627 152.504C532.39 152.504 532.991 152.335 533.431 151.998C533.871 151.66 534.091 151.235 534.091 150.722C534.091 150.194 533.857 149.805 533.387 149.556C532.918 149.292 532.192 149.035 531.209 148.786C530.315 148.551 529.581 148.316 529.009 148.082C528.452 147.832 527.968 147.473 527.557 147.004C527.161 146.52 526.963 145.889 526.963 145.112C526.963 144.496 527.147 143.931 527.513 143.418C527.88 142.904 528.401 142.501 529.075 142.208C529.75 141.9 530.52 141.746 531.385 141.746C532.72 141.746 533.798 142.083 534.619 142.758C535.441 143.432 535.881 144.356 535.939 145.53H533.937C533.893 144.899 533.637 144.393 533.167 144.012C532.713 143.63 532.097 143.44 531.319 143.44C530.601 143.44 530.029 143.594 529.603 143.902C529.178 144.21 528.965 144.613 528.965 145.112C528.965 145.508 529.09 145.838 529.339 146.102C529.603 146.351 529.926 146.556 530.307 146.718C530.703 146.864 531.246 147.033 531.935 147.224C532.801 147.458 533.505 147.693 534.047 147.928C534.59 148.148 535.052 148.485 535.433 148.94C535.829 149.394 536.035 149.988 536.049 150.722C536.049 151.382 535.866 151.976 535.499 152.504C535.133 153.032 534.612 153.45 533.937 153.758C533.277 154.051 532.515 154.198 531.649 154.198Z"
  ></path>
  <path
    style="fill: var(--color-illustrationInterface010)"
    d="M460 291.421C460 286.218 464.218 282 469.421 282H1022.58C1027.78 282 1032 286.218 1032 291.421V344.579C1032 349.782 1027.78 354 1022.58 354H469.421C464.218 354 460 349.782 460 344.579V291.421Z"
  ></path>
  <path
    style="fill: var(--color-illustrationInterface070)"
    d="M468.559 250.856V252.693H462.733V256.742H467.275V258.578H462.733V264.582H460.481V250.856H468.559Z"
  ></path>
  <path
    style="fill: var(--color-illustrationInterface070)"
    d="M471.791 252.258C471.383 252.258 471.041 252.12 470.764 251.844C470.488 251.567 470.349 251.225 470.349 250.817C470.349 250.409 470.488 250.066 470.764 249.79C471.041 249.513 471.383 249.375 471.791 249.375C472.186 249.375 472.522 249.513 472.798 249.79C473.075 250.066 473.213 250.409 473.213 250.817C473.213 251.225 473.075 251.567 472.798 251.844C472.522 252.12 472.186 252.258 471.791 252.258ZM472.897 253.7V264.582H470.646V253.7H472.897Z"
  ></path>
  <path
    style="fill: var(--color-illustrationInterface070)"
    d="M478.105 255.28C478.434 254.727 478.868 254.299 479.408 253.996C479.961 253.68 480.613 253.522 481.363 253.522V255.853H480.791C479.908 255.853 479.237 256.077 478.776 256.524C478.328 256.972 478.105 257.749 478.105 258.855V264.582H475.853V253.7H478.105V255.28Z"
  ></path>
  <path
    style="fill: var(--color-illustrationInterface070)"
    d="M487.383 264.76C486.527 264.76 485.757 264.609 485.072 264.306C484.401 263.99 483.867 263.569 483.472 263.042C483.077 262.502 482.867 261.903 482.84 261.245H485.171C485.21 261.706 485.428 262.094 485.823 262.41C486.231 262.713 486.738 262.864 487.343 262.864C487.975 262.864 488.463 262.746 488.805 262.509C489.16 262.259 489.338 261.943 489.338 261.561C489.338 261.153 489.141 260.85 488.746 260.652C488.364 260.455 487.752 260.237 486.909 260C486.093 259.777 485.428 259.559 484.914 259.349C484.401 259.138 483.953 258.815 483.571 258.381C483.203 257.946 483.018 257.374 483.018 256.663C483.018 256.083 483.189 255.557 483.532 255.083C483.874 254.596 484.361 254.214 484.993 253.937C485.638 253.661 486.376 253.522 487.205 253.522C488.443 253.522 489.437 253.838 490.187 254.47C490.951 255.089 491.359 255.939 491.412 257.018H489.16C489.121 256.531 488.923 256.143 488.568 255.853C488.212 255.563 487.732 255.418 487.126 255.418C486.534 255.418 486.079 255.53 485.763 255.754C485.447 255.978 485.289 256.274 485.289 256.643C485.289 256.933 485.395 257.176 485.605 257.374C485.816 257.571 486.073 257.729 486.376 257.848C486.679 257.953 487.126 258.091 487.719 258.262C488.509 258.473 489.154 258.69 489.654 258.914C490.168 259.125 490.609 259.441 490.977 259.862C491.346 260.284 491.537 260.843 491.55 261.541C491.55 262.16 491.379 262.713 491.037 263.2C490.694 263.687 490.207 264.069 489.575 264.345C488.956 264.622 488.226 264.76 487.383 264.76Z"
  ></path>
  <path
    style="fill: var(--color-illustrationInterface070)"
    d="M496.61 255.537V261.561C496.61 261.969 496.702 262.265 496.886 262.449C497.084 262.621 497.413 262.706 497.874 262.706H499.256V264.582H497.479C496.465 264.582 495.688 264.345 495.148 263.871C494.608 263.397 494.338 262.627 494.338 261.561V255.537H493.055V253.7H494.338V250.994H496.61V253.7H499.256V255.537H496.61Z"
  ></path>
  <path
    style="fill: var(--color-illustrationInterface070)"
    d="M511.952 253.522C512.808 253.522 513.572 253.7 514.243 254.056C514.928 254.411 515.461 254.938 515.843 255.636C516.225 256.334 516.416 257.176 516.416 258.164V264.582H514.184V258.499C514.184 257.525 513.94 256.781 513.453 256.268C512.966 255.741 512.301 255.478 511.458 255.478C510.616 255.478 509.944 255.741 509.444 256.268C508.957 256.781 508.713 257.525 508.713 258.499V264.582H506.462V253.7H508.713V254.944C509.082 254.497 509.549 254.148 510.115 253.898C510.695 253.648 511.307 253.522 511.952 253.522Z"
  ></path>
  <path
    style="fill: var(--color-illustrationInterface070)"
    d="M518.537 259.092C518.537 257.999 518.761 257.031 519.208 256.189C519.669 255.346 520.288 254.694 521.065 254.233C521.855 253.759 522.724 253.522 523.672 253.522C524.528 253.522 525.272 253.694 525.904 254.036C526.549 254.365 527.062 254.78 527.444 255.28V253.7H529.715V264.582H527.444V262.963C527.062 263.476 526.542 263.904 525.884 264.247C525.226 264.589 524.475 264.76 523.632 264.76C522.698 264.76 521.842 264.523 521.065 264.049C520.288 263.562 519.669 262.891 519.208 262.035C518.761 261.166 518.537 260.185 518.537 259.092ZM527.444 259.131C527.444 258.381 527.286 257.729 526.97 257.176C526.667 256.623 526.266 256.202 525.765 255.912C525.265 255.623 524.725 255.478 524.146 255.478C523.567 255.478 523.027 255.623 522.526 255.912C522.026 256.189 521.618 256.603 521.302 257.156C520.999 257.696 520.848 258.341 520.848 259.092C520.848 259.842 520.999 260.501 521.302 261.067C521.618 261.633 522.026 262.068 522.526 262.37C523.04 262.66 523.58 262.805 524.146 262.805C524.725 262.805 525.265 262.66 525.765 262.37C526.266 262.081 526.667 261.659 526.97 261.106C527.286 260.54 527.444 259.882 527.444 259.131Z"
  ></path>
  <path
    style="fill: var(--color-illustrationInterface070)"
    d="M545.846 253.522C546.702 253.522 547.465 253.7 548.137 254.056C548.821 254.411 549.355 254.938 549.737 255.636C550.132 256.334 550.329 257.176 550.329 258.164V264.582H548.097V258.499C548.097 257.525 547.854 256.781 547.367 256.268C546.879 255.741 546.215 255.478 545.372 255.478C544.529 255.478 543.858 255.741 543.357 256.268C542.87 256.781 542.627 257.525 542.627 258.499V264.582H540.395V258.499C540.395 257.525 540.151 256.781 539.664 256.268C539.177 255.741 538.512 255.478 537.669 255.478C536.827 255.478 536.155 255.741 535.655 256.268C535.168 256.781 534.924 257.525 534.924 258.499V264.582H532.673V253.7H534.924V254.944C535.293 254.497 535.76 254.148 536.326 253.898C536.893 253.648 537.498 253.522 538.143 253.522C539.012 253.522 539.789 253.707 540.474 254.075C541.159 254.444 541.685 254.977 542.054 255.675C542.383 255.017 542.897 254.497 543.594 254.115C544.292 253.72 545.043 253.522 545.846 253.522Z"
  ></path>
  <path
    style="fill: var(--color-illustrationInterface070)"
    d="M563.168 258.875C563.168 259.283 563.141 259.652 563.089 259.981H554.774C554.84 260.85 555.162 261.548 555.742 262.074C556.321 262.601 557.032 262.864 557.875 262.864C559.086 262.864 559.942 262.357 560.442 261.343H562.871C562.542 262.344 561.943 263.167 561.074 263.812C560.218 264.444 559.152 264.76 557.875 264.76C556.835 264.76 555.9 264.53 555.07 264.069C554.254 263.595 553.609 262.937 553.135 262.094C552.674 261.238 552.444 260.251 552.444 259.131C552.444 258.012 552.667 257.031 553.115 256.189C553.576 255.333 554.214 254.675 555.031 254.214C555.86 253.753 556.808 253.522 557.875 253.522C558.902 253.522 559.817 253.746 560.62 254.194C561.423 254.642 562.049 255.274 562.496 256.09C562.944 256.893 563.168 257.821 563.168 258.875ZM560.817 258.164C560.804 257.334 560.508 256.669 559.929 256.169C559.349 255.669 558.632 255.418 557.776 255.418C556.999 255.418 556.334 255.669 555.781 256.169C555.228 256.656 554.899 257.321 554.794 258.164H560.817Z"
  ></path>
  <path
    style="fill: var(--color-illustrationInterface060)"
    fill-rule="evenodd"
    clip-rule="evenodd"
    d="M481 335V304H483V335H481Z"
  ></path>
  <path
    style="fill: var(--color-illustrationInterface010)"
    d="M460 462.421C460 457.218 464.218 453 469.421 453H1022.58C1027.78 453 1032 457.218 1032 462.421V514.579C1032 519.782 1027.78 524 1022.58 524H469.421C464.218 524 460 519.782 460 514.579V462.421Z"
  ></path>
  <path
    style="fill: var(--color-inkNegative)"
    d="M474.712 538.665L471.382 550.156H469.7L467.029 540.907L464.26 550.156L462.594 550.172L459.379 538.665H460.979L463.485 548.408L466.254 538.665H467.936L470.574 548.375L473.096 538.665H474.712Z"
  ></path>
  <path
    style="fill: var(--color-inkNegative)"
    d="M484.597 545.292C484.597 545.578 484.581 545.88 484.548 546.199H477.327C477.382 547.089 477.684 547.787 478.234 548.293C478.794 548.787 479.47 549.035 480.261 549.035C480.91 549.035 481.448 548.886 481.877 548.59C482.317 548.282 482.625 547.875 482.8 547.37H484.416C484.174 548.238 483.691 548.947 482.965 549.496C482.24 550.035 481.339 550.304 480.261 550.304C479.404 550.304 478.635 550.112 477.953 549.727C477.283 549.343 476.755 548.798 476.371 548.095C475.986 547.381 475.793 546.556 475.793 545.622C475.793 544.688 475.98 543.869 476.354 543.165C476.728 542.462 477.25 541.923 477.92 541.55C478.602 541.165 479.382 540.973 480.261 540.973C481.119 540.973 481.877 541.16 482.537 541.533C483.196 541.907 483.702 542.424 484.053 543.083C484.416 543.731 484.597 544.468 484.597 545.292ZM483.048 544.979C483.048 544.407 482.921 543.918 482.668 543.512C482.416 543.094 482.069 542.781 481.63 542.572C481.201 542.352 480.723 542.242 480.195 542.242C479.437 542.242 478.789 542.484 478.25 542.968C477.722 543.451 477.42 544.122 477.343 544.979H483.048Z"
  ></path>
  <path
    style="fill: var(--color-inkNegative)"
    d="M486.809 538.665H488.474L486.891 542.407H485.836L486.809 538.665Z"
  ></path>
  <path
    style="fill: var(--color-inkNegative)"
    d="M491.685 537.956V550.156H490.184V537.956H491.685Z"
  ></path>
  <path
    style="fill: var(--color-inkNegative)"
    d="M495.742 537.956V550.156H494.242V537.956H495.742Z"
  ></path>
  <path
    style="fill: var(--color-inkNegative)"
    d="M510.707 541.121V550.156H509.207V548.82C508.921 549.282 508.52 549.645 508.003 549.909C507.498 550.161 506.937 550.288 506.321 550.288C505.618 550.288 504.986 550.145 504.425 549.859C503.865 549.562 503.42 549.123 503.09 548.54C502.771 547.958 502.612 547.249 502.612 546.413V541.121H504.096V546.216C504.096 547.106 504.321 547.793 504.772 548.276C505.222 548.749 505.838 548.985 506.618 548.985C507.421 548.985 508.053 548.738 508.514 548.243C508.976 547.749 509.207 547.029 509.207 546.084V541.121H510.707Z"
  ></path>
  <path
    style="fill: var(--color-inkNegative)"
    d="M516.439 550.304C515.746 550.304 515.125 550.189 514.576 549.958C514.026 549.716 513.592 549.386 513.273 548.969C512.954 548.54 512.779 548.051 512.746 547.501H514.295C514.339 547.952 514.548 548.32 514.922 548.606C515.307 548.892 515.807 549.035 516.422 549.035C516.994 549.035 517.444 548.908 517.774 548.656C518.104 548.403 518.269 548.084 518.269 547.699C518.269 547.304 518.093 547.012 517.741 546.826C517.389 546.628 516.845 546.435 516.109 546.248C515.438 546.073 514.889 545.897 514.46 545.721C514.043 545.534 513.68 545.265 513.372 544.913C513.075 544.55 512.927 544.078 512.927 543.495C512.927 543.034 513.064 542.61 513.339 542.226C513.614 541.841 514.004 541.539 514.51 541.319C515.015 541.088 515.592 540.973 516.241 540.973C517.241 540.973 518.049 541.225 518.664 541.731C519.28 542.237 519.61 542.929 519.654 543.808H518.153C518.12 543.336 517.928 542.957 517.576 542.671C517.235 542.385 516.774 542.242 516.191 542.242C515.653 542.242 515.224 542.358 514.905 542.588C514.587 542.819 514.427 543.121 514.427 543.495C514.427 543.792 514.521 544.039 514.707 544.237C514.905 544.424 515.147 544.578 515.433 544.699C515.73 544.809 516.136 544.935 516.653 545.078C517.301 545.254 517.829 545.43 518.236 545.606C518.642 545.77 518.989 546.023 519.274 546.364C519.571 546.705 519.725 547.15 519.736 547.699C519.736 548.194 519.599 548.639 519.324 549.035C519.049 549.43 518.659 549.744 518.153 549.975C517.659 550.194 517.087 550.304 516.439 550.304Z"
  ></path>
  <path
    style="fill: var(--color-inkNegative)"
    d="M530.097 545.292C530.097 545.578 530.081 545.88 530.048 546.199H522.827C522.882 547.089 523.184 547.787 523.733 548.293C524.294 548.787 524.97 549.035 525.761 549.035C526.41 549.035 526.948 548.886 527.377 548.59C527.817 548.282 528.124 547.875 528.3 547.37H529.916C529.674 548.238 529.191 548.947 528.465 549.496C527.74 550.035 526.838 550.304 525.761 550.304C524.904 550.304 524.135 550.112 523.453 549.727C522.783 549.343 522.255 548.798 521.87 548.095C521.486 547.381 521.293 546.556 521.293 545.622C521.293 544.688 521.48 543.869 521.854 543.165C522.228 542.462 522.75 541.923 523.42 541.55C524.102 541.165 524.882 540.973 525.761 540.973C526.619 540.973 527.377 541.16 528.036 541.533C528.696 541.907 529.202 542.424 529.553 543.083C529.916 543.731 530.097 544.468 530.097 545.292ZM528.548 544.979C528.548 544.407 528.421 543.918 528.168 543.512C527.916 543.094 527.569 542.781 527.13 542.572C526.701 542.352 526.223 542.242 525.695 542.242C524.937 542.242 524.288 542.484 523.75 542.968C523.222 543.451 522.92 544.122 522.843 544.979H528.548Z"
  ></path>
  <path
    style="fill: var(--color-inkNegative)"
    d="M538.303 542.358V547.683C538.303 548.122 538.397 548.436 538.583 548.623C538.77 548.798 539.095 548.886 539.556 548.886H540.661V550.156H539.309C538.473 550.156 537.847 549.964 537.429 549.579C537.012 549.194 536.803 548.562 536.803 547.683V542.358H535.632V541.121H536.803V538.846H538.303V541.121H540.661V542.358H538.303Z"
  ></path>
  <path
    style="fill: var(--color-inkNegative)"
    d="M546.963 540.956C547.644 540.956 548.26 541.105 548.81 541.401C549.359 541.687 549.788 542.121 550.095 542.704C550.414 543.286 550.574 543.995 550.574 544.831V550.156H549.09V545.045C549.09 544.144 548.864 543.457 548.414 542.984C547.963 542.5 547.348 542.259 546.567 542.259C545.776 542.259 545.144 542.506 544.671 543.001C544.21 543.495 543.979 544.215 543.979 545.16V550.156H542.479V537.956H543.979V542.407C544.276 541.945 544.682 541.588 545.199 541.335C545.726 541.083 546.315 540.956 546.963 540.956Z"
  ></path>
  <path
    style="fill: var(--color-inkNegative)"
    d="M553.799 539.654C553.513 539.654 553.272 539.555 553.074 539.357C552.876 539.159 552.777 538.917 552.777 538.632C552.777 538.346 552.876 538.104 553.074 537.906C553.272 537.708 553.513 537.609 553.799 537.609C554.074 537.609 554.305 537.708 554.492 537.906C554.69 538.104 554.788 538.346 554.788 538.632C554.788 538.917 554.69 539.159 554.492 539.357C554.305 539.555 554.074 539.654 553.799 539.654ZM554.525 541.121V550.156H553.024V541.121H554.525Z"
  ></path>
  <path
    style="fill: var(--color-inkNegative)"
    d="M560.28 550.304C559.588 550.304 558.967 550.189 558.417 549.958C557.868 549.716 557.433 549.386 557.115 548.969C556.796 548.54 556.62 548.051 556.587 547.501H558.137C558.181 547.952 558.39 548.32 558.763 548.606C559.148 548.892 559.648 549.035 560.264 549.035C560.835 549.035 561.286 548.908 561.616 548.656C561.945 548.403 562.11 548.084 562.11 547.699C562.11 547.304 561.934 547.012 561.583 546.826C561.231 546.628 560.687 546.435 559.95 546.248C559.28 546.073 558.73 545.897 558.302 545.721C557.884 545.534 557.521 545.265 557.214 544.913C556.917 544.55 556.768 544.078 556.768 543.495C556.768 543.034 556.906 542.61 557.181 542.226C557.455 541.841 557.846 541.539 558.351 541.319C558.857 541.088 559.434 540.973 560.082 540.973C561.082 540.973 561.89 541.225 562.506 541.731C563.121 542.237 563.451 542.929 563.495 543.808H561.995C561.962 543.336 561.769 542.957 561.418 542.671C561.077 542.385 560.615 542.242 560.033 542.242C559.494 542.242 559.066 542.358 558.747 542.588C558.428 542.819 558.269 543.121 558.269 543.495C558.269 543.792 558.362 544.039 558.549 544.237C558.747 544.424 558.989 544.578 559.274 544.699C559.571 544.809 559.978 544.935 560.494 545.078C561.143 545.254 561.671 545.43 562.077 545.606C562.484 545.77 562.83 546.023 563.116 546.364C563.413 546.705 563.567 547.15 563.577 547.699C563.577 548.194 563.44 548.639 563.165 549.035C562.891 549.43 562.5 549.744 561.995 549.975C561.5 550.194 560.929 550.304 560.28 550.304Z"
  ></path>
  <path
    style="fill: var(--color-inkNegative)"
    d="M571.921 542.358V547.683C571.921 548.122 572.014 548.436 572.201 548.623C572.388 548.798 572.712 548.886 573.174 548.886H574.278V550.156H572.927C572.091 550.156 571.465 549.964 571.047 549.579C570.629 549.194 570.421 548.562 570.421 547.683V542.358H569.25V541.121H570.421V538.846H571.921V541.121H574.278V542.358H571.921Z"
  ></path>
  <path
    style="fill: var(--color-inkNegative)"
    d="M580.037 550.304C579.19 550.304 578.421 550.112 577.728 549.727C577.047 549.343 576.508 548.798 576.113 548.095C575.728 547.381 575.536 546.556 575.536 545.622C575.536 544.699 575.734 543.885 576.129 543.182C576.536 542.468 577.086 541.923 577.778 541.55C578.47 541.165 579.245 540.973 580.103 540.973C580.96 540.973 581.735 541.165 582.427 541.55C583.12 541.923 583.664 542.462 584.059 543.165C584.466 543.869 584.669 544.688 584.669 545.622C584.669 546.556 584.461 547.381 584.043 548.095C583.636 548.798 583.081 549.343 582.378 549.727C581.674 550.112 580.894 550.304 580.037 550.304ZM580.037 548.985C580.575 548.985 581.081 548.859 581.553 548.606C582.026 548.353 582.405 547.974 582.691 547.469C582.988 546.963 583.136 546.347 583.136 545.622C583.136 544.897 582.993 544.281 582.708 543.775C582.422 543.27 582.048 542.896 581.586 542.654C581.125 542.402 580.625 542.275 580.086 542.275C579.537 542.275 579.031 542.402 578.569 542.654C578.119 542.896 577.756 543.27 577.481 543.775C577.206 544.281 577.069 544.897 577.069 545.622C577.069 546.358 577.201 546.979 577.465 547.485C577.739 547.991 578.102 548.37 578.553 548.623C579.003 548.864 579.498 548.985 580.037 548.985Z"
  ></path>
  <path
    style="fill: var(--color-inkNegative)"
    d="M590.477 545.622C590.477 544.688 590.664 543.874 591.038 543.182C591.411 542.478 591.928 541.934 592.587 541.55C593.258 541.165 594.022 540.973 594.879 540.973C595.989 540.973 596.901 541.242 597.616 541.781C598.341 542.319 598.819 543.067 599.05 544.023H597.434C597.281 543.473 596.978 543.039 596.528 542.72C596.088 542.402 595.538 542.242 594.879 542.242C594.022 542.242 593.329 542.539 592.802 543.132C592.274 543.715 592.01 544.545 592.01 545.622C592.01 546.71 592.274 547.551 592.802 548.144C593.329 548.738 594.022 549.035 594.879 549.035C595.538 549.035 596.088 548.881 596.528 548.573C596.967 548.265 597.27 547.826 597.434 547.254H599.05C598.808 548.177 598.325 548.919 597.599 549.48C596.874 550.029 595.967 550.304 594.879 550.304C594.022 550.304 593.258 550.112 592.587 549.727C591.928 549.343 591.411 548.798 591.038 548.095C590.664 547.392 590.477 546.567 590.477 545.622Z"
  ></path>
  <path
    style="fill: var(--color-inkNegative)"
    d="M604.992 550.304C604.146 550.304 603.377 550.112 602.684 549.727C602.003 549.343 601.464 548.798 601.068 548.095C600.684 547.381 600.491 546.556 600.491 545.622C600.491 544.699 600.689 543.885 601.085 543.182C601.492 542.468 602.041 541.923 602.734 541.55C603.426 541.165 604.201 540.973 605.058 540.973C605.916 540.973 606.691 541.165 607.383 541.55C608.075 541.923 608.619 542.462 609.015 543.165C609.422 543.869 609.625 544.688 609.625 545.622C609.625 546.556 609.416 547.381 608.999 548.095C608.592 548.798 608.037 549.343 607.333 549.727C606.63 550.112 605.85 550.304 604.992 550.304ZM604.992 548.985C605.531 548.985 606.037 548.859 606.509 548.606C606.982 548.353 607.361 547.974 607.647 547.469C607.943 546.963 608.092 546.347 608.092 545.622C608.092 544.897 607.949 544.281 607.663 543.775C607.377 543.27 607.004 542.896 606.542 542.654C606.08 542.402 605.58 542.275 605.042 542.275C604.492 542.275 603.987 542.402 603.525 542.654C603.074 542.896 602.712 543.27 602.437 543.775C602.162 544.281 602.025 544.897 602.025 545.622C602.025 546.358 602.157 546.979 602.42 547.485C602.695 547.991 603.058 548.37 603.509 548.623C603.959 548.864 604.454 548.985 604.992 548.985Z"
  ></path>
  <path
    style="fill: var(--color-inkNegative)"
    d="M616 540.956C617.099 540.956 617.989 541.291 618.671 541.962C619.352 542.621 619.693 543.578 619.693 544.831V550.156H618.209V545.045C618.209 544.144 617.984 543.457 617.533 542.984C617.082 542.5 616.467 542.259 615.687 542.259C614.895 542.259 614.263 542.506 613.791 543.001C613.329 543.495 613.098 544.215 613.098 545.16V550.156H611.598V541.121H613.098V542.407C613.395 541.945 613.796 541.588 614.302 541.335C614.818 541.083 615.384 540.956 616 540.956Z"
  ></path>
  <path
    style="fill: var(--color-inkNegative)"
    d="M623.974 542.358V547.683C623.974 548.122 624.067 548.436 624.254 548.623C624.441 548.798 624.765 548.886 625.227 548.886H626.331V550.156H624.979C624.144 550.156 623.517 549.964 623.1 549.579C622.682 549.194 622.473 548.562 622.473 547.683V542.358H621.303V541.121H622.473V538.846H623.974V541.121H626.331V542.358H623.974Z"
  ></path>
  <path
    style="fill: var(--color-inkNegative)"
    d="M627.588 545.606C627.588 544.682 627.775 543.874 628.149 543.182C628.523 542.478 629.034 541.934 629.682 541.55C630.342 541.165 631.073 540.973 631.875 540.973C632.666 540.973 633.353 541.143 633.936 541.484C634.518 541.825 634.953 542.253 635.238 542.77V541.121H636.755V550.156H635.238V548.474C634.942 549.002 634.496 549.441 633.903 549.793C633.32 550.134 632.639 550.304 631.859 550.304C631.056 550.304 630.331 550.106 629.682 549.711C629.034 549.315 628.523 548.76 628.149 548.046C627.775 547.331 627.588 546.518 627.588 545.606ZM635.238 545.622C635.238 544.941 635.101 544.347 634.826 543.841C634.551 543.336 634.178 542.951 633.705 542.687C633.243 542.413 632.732 542.275 632.172 542.275C631.611 542.275 631.1 542.407 630.639 542.671C630.177 542.935 629.809 543.319 629.534 543.825C629.259 544.331 629.122 544.924 629.122 545.606C629.122 546.298 629.259 546.902 629.534 547.419C629.809 547.925 630.177 548.315 630.639 548.59C631.1 548.853 631.611 548.985 632.172 548.985C632.732 548.985 633.243 548.853 633.705 548.59C634.178 548.315 634.551 547.925 634.826 547.419C635.101 546.902 635.238 546.303 635.238 545.622Z"
  ></path>
  <path
    style="fill: var(--color-inkNegative)"
    d="M638.73 545.622C638.73 544.688 638.917 543.874 639.291 543.182C639.664 542.478 640.181 541.934 640.84 541.55C641.511 541.165 642.275 540.973 643.132 540.973C644.242 540.973 645.154 541.242 645.869 541.781C646.594 542.319 647.072 543.067 647.303 544.023H645.687C645.534 543.473 645.231 543.039 644.781 542.72C644.341 542.402 643.791 542.242 643.132 542.242C642.275 542.242 641.582 542.539 641.055 543.132C640.527 543.715 640.263 544.545 640.263 545.622C640.263 546.71 640.527 547.551 641.055 548.144C641.582 548.738 642.275 549.035 643.132 549.035C643.791 549.035 644.341 548.881 644.781 548.573C645.22 548.265 645.523 547.826 645.687 547.254H647.303C647.061 548.177 646.578 548.919 645.852 549.48C645.127 550.029 644.22 550.304 643.132 550.304C642.275 550.304 641.511 550.112 640.84 549.727C640.181 549.343 639.664 548.798 639.291 548.095C638.917 547.392 638.73 546.567 638.73 545.622Z"
  ></path>
  <path
    style="fill: var(--color-inkNegative)"
    d="M651.135 542.358V547.683C651.135 548.122 651.228 548.436 651.415 548.623C651.602 548.798 651.926 548.886 652.388 548.886H653.493V550.156H652.141C651.305 550.156 650.679 549.964 650.261 549.579C649.844 549.194 649.635 548.562 649.635 547.683V542.358H648.464V541.121H649.635V538.846H651.135V541.121H653.493V542.358H651.135Z"
  ></path>
  <path
    style="fill: var(--color-inkNegative)"
    d="M667.488 541.121L662.047 554.409H660.497L662.278 550.057L658.634 541.121H660.299L663.135 548.441L665.938 541.121H667.488Z"
  ></path>
  <path
    style="fill: var(--color-inkNegative)"
    d="M672.936 550.304C672.09 550.304 671.321 550.112 670.628 549.727C669.947 549.343 669.408 548.798 669.012 548.095C668.628 547.381 668.435 546.556 668.435 545.622C668.435 544.699 668.633 543.885 669.029 543.182C669.436 542.468 669.985 541.923 670.678 541.55C671.37 541.165 672.145 540.973 673.002 540.973C673.859 540.973 674.634 541.165 675.327 541.55C676.019 541.923 676.563 542.462 676.959 543.165C677.366 543.869 677.569 544.688 677.569 545.622C677.569 546.556 677.36 547.381 676.943 548.095C676.536 548.798 675.981 549.343 675.277 549.727C674.574 550.112 673.794 550.304 672.936 550.304ZM672.936 548.985C673.475 548.985 673.98 548.859 674.453 548.606C674.926 548.353 675.305 547.974 675.591 547.469C675.887 546.963 676.036 546.347 676.036 545.622C676.036 544.897 675.893 544.281 675.607 543.775C675.321 543.27 674.948 542.896 674.486 542.654C674.024 542.402 673.524 542.275 672.986 542.275C672.436 542.275 671.931 542.402 671.469 542.654C671.018 542.896 670.656 543.27 670.381 543.775C670.106 544.281 669.969 544.897 669.969 545.622C669.969 546.358 670.1 546.979 670.364 547.485C670.639 547.991 671.002 548.37 671.452 548.623C671.903 548.864 672.398 548.985 672.936 548.985Z"
  ></path>
  <path
    style="fill: var(--color-inkNegative)"
    d="M687.554 541.121V550.156H686.054V548.82C685.768 549.282 685.367 549.645 684.85 549.909C684.345 550.161 683.784 550.288 683.169 550.288C682.465 550.288 681.833 550.145 681.273 549.859C680.712 549.562 680.267 549.123 679.937 548.54C679.619 547.958 679.459 547.249 679.459 546.413V541.121H680.943V546.216C680.943 547.106 681.168 547.793 681.619 548.276C682.07 548.749 682.685 548.985 683.466 548.985C684.268 548.985 684.9 548.738 685.362 548.243C685.823 547.749 686.054 547.029 686.054 546.084V541.121H687.554Z"
  ></path>
  <path
    style="fill: var(--color-inkNegative)"
    d="M693.922 545.606C693.922 544.682 694.109 543.874 694.483 543.182C694.857 542.478 695.368 541.934 696.016 541.55C696.676 541.165 697.407 540.973 698.209 540.973C699 540.973 699.687 541.143 700.27 541.484C700.852 541.825 701.286 542.253 701.572 542.77V541.121H703.089V550.156H701.572V548.474C701.275 549.002 700.83 549.441 700.237 549.793C699.654 550.134 698.973 550.304 698.192 550.304C697.39 550.304 696.665 550.106 696.016 549.711C695.368 549.315 694.857 548.76 694.483 548.046C694.109 547.331 693.922 546.518 693.922 545.606ZM701.572 545.622C701.572 544.941 701.435 544.347 701.16 543.841C700.885 543.336 700.512 542.951 700.039 542.687C699.577 542.413 699.066 542.275 698.506 542.275C697.945 542.275 697.434 542.407 696.972 542.671C696.511 542.935 696.143 543.319 695.868 543.825C695.593 544.331 695.456 544.924 695.456 545.606C695.456 546.298 695.593 546.902 695.868 547.419C696.143 547.925 696.511 548.315 696.972 548.59C697.434 548.853 697.945 548.985 698.506 548.985C699.066 548.985 699.577 548.853 700.039 548.59C700.512 548.315 700.885 547.925 701.16 547.419C701.435 546.902 701.572 546.303 701.572 545.622Z"
  ></path>
  <path
    style="fill: var(--color-inkNegative)"
    d="M707.125 542.803C707.432 542.264 707.883 541.825 708.477 541.484C709.07 541.143 709.746 540.973 710.504 540.973C711.318 540.973 712.049 541.165 712.697 541.55C713.346 541.934 713.857 542.478 714.231 543.182C714.604 543.874 714.791 544.682 714.791 545.606C714.791 546.518 714.604 547.331 714.231 548.046C713.857 548.76 713.34 549.315 712.681 549.711C712.032 550.106 711.307 550.304 710.504 550.304C709.724 550.304 709.037 550.134 708.444 549.793C707.861 549.452 707.421 549.018 707.125 548.491V550.156H705.624V537.956H707.125V542.803ZM713.258 545.606C713.258 544.924 713.12 544.331 712.846 543.825C712.571 543.319 712.197 542.935 711.725 542.671C711.263 542.407 710.752 542.275 710.191 542.275C709.642 542.275 709.131 542.413 708.658 542.687C708.196 542.951 707.823 543.341 707.537 543.858C707.262 544.363 707.125 544.952 707.125 545.622C707.125 546.303 707.262 546.902 707.537 547.419C707.823 547.925 708.196 548.315 708.658 548.59C709.131 548.853 709.642 548.985 710.191 548.985C710.752 548.985 711.263 548.853 711.725 548.59C712.197 548.315 712.571 547.925 712.846 547.419C713.12 546.902 713.258 546.298 713.258 545.606Z"
  ></path>
  <path
    style="fill: var(--color-inkNegative)"
    d="M720.706 550.304C719.86 550.304 719.09 550.112 718.398 549.727C717.717 549.343 717.178 548.798 716.782 548.095C716.398 547.381 716.205 546.556 716.205 545.622C716.205 544.699 716.403 543.885 716.799 543.182C717.206 542.468 717.755 541.923 718.448 541.55C719.14 541.165 719.915 540.973 720.772 540.973C721.629 540.973 722.404 541.165 723.097 541.55C723.789 541.923 724.333 542.462 724.729 543.165C725.136 543.869 725.339 544.688 725.339 545.622C725.339 546.556 725.13 547.381 724.713 548.095C724.306 548.798 723.751 549.343 723.047 549.727C722.344 550.112 721.564 550.304 720.706 550.304ZM720.706 548.985C721.245 548.985 721.75 548.859 722.223 548.606C722.696 548.353 723.075 547.974 723.361 547.469C723.657 546.963 723.806 546.347 723.806 545.622C723.806 544.897 723.663 544.281 723.377 543.775C723.091 543.27 722.718 542.896 722.256 542.654C721.794 542.402 721.294 542.275 720.756 542.275C720.206 542.275 719.701 542.402 719.239 542.654C718.788 542.896 718.426 543.27 718.151 543.775C717.876 544.281 717.739 544.897 717.739 545.622C717.739 546.358 717.87 546.979 718.134 547.485C718.409 547.991 718.772 548.37 719.222 548.623C719.673 548.864 720.168 548.985 720.706 548.985Z"
  ></path>
  <path
    style="fill: var(--color-inkNegative)"
    d="M735.324 541.121V550.156H733.824V548.82C733.538 549.282 733.137 549.645 732.62 549.909C732.115 550.161 731.554 550.288 730.939 550.288C730.235 550.288 729.603 550.145 729.043 549.859C728.482 549.562 728.037 549.123 727.707 548.54C727.389 547.958 727.229 547.249 727.229 546.413V541.121H728.713V546.216C728.713 547.106 728.938 547.793 729.389 548.276C729.84 548.749 730.455 548.985 731.236 548.985C732.038 548.985 732.67 548.738 733.132 548.243C733.593 547.749 733.824 547.029 733.824 546.084V541.121H735.324Z"
  ></path>
  <path
    style="fill: var(--color-inkNegative)"
    d="M739.687 542.358V547.683C739.687 548.122 739.781 548.436 739.968 548.623C740.155 548.798 740.479 548.886 740.94 548.886H742.045V550.156H740.693C739.858 550.156 739.231 549.964 738.814 549.579C738.396 549.194 738.187 548.562 738.187 547.683V542.358H737.017V541.121H738.187V538.846H739.687V541.121H742.045V542.358H739.687Z"
  ></path>
  <path
    style="fill: var(--color-inkNegative)"
    d="M756.04 541.121L750.599 554.409H749.05L750.83 550.057L747.187 541.121H748.852L751.688 548.441L754.49 541.121H756.04Z"
  ></path>
  <path
    style="fill: var(--color-inkNegative)"
    d="M761.489 550.304C760.642 550.304 759.873 550.112 759.18 549.727C758.499 549.343 757.96 548.798 757.565 548.095C757.18 547.381 756.988 546.556 756.988 545.622C756.988 544.699 757.186 543.885 757.581 543.182C757.988 542.468 758.538 541.923 759.23 541.55C759.922 541.165 760.697 540.973 761.555 540.973C762.412 540.973 763.187 541.165 763.879 541.55C764.572 541.923 765.116 542.462 765.511 543.165C765.918 543.869 766.121 544.688 766.121 545.622C766.121 546.556 765.913 547.381 765.495 548.095C765.088 548.798 764.533 549.343 763.83 549.727C763.126 550.112 762.346 550.304 761.489 550.304ZM761.489 548.985C762.027 548.985 762.533 548.859 763.005 548.606C763.478 548.353 763.857 547.974 764.143 547.469C764.44 546.963 764.588 546.347 764.588 545.622C764.588 544.897 764.445 544.281 764.16 543.775C763.874 543.27 763.5 542.896 763.038 542.654C762.577 542.402 762.077 542.275 761.538 542.275C760.989 542.275 760.483 542.402 760.021 542.654C759.571 542.896 759.208 543.27 758.933 543.775C758.658 544.281 758.521 544.897 758.521 545.622C758.521 546.358 758.653 546.979 758.917 547.485C759.191 547.991 759.554 548.37 760.005 548.623C760.455 548.864 760.95 548.985 761.489 548.985Z"
  ></path>
  <path
    style="fill: var(--color-inkNegative)"
    d="M776.107 541.121V550.156H774.606V548.82C774.321 549.282 773.919 549.645 773.403 549.909C772.897 550.161 772.337 550.288 771.721 550.288C771.018 550.288 770.386 550.145 769.825 549.859C769.265 549.562 768.82 549.123 768.49 548.54C768.171 547.958 768.012 547.249 768.012 546.413V541.121H769.495V546.216C769.495 547.106 769.721 547.793 770.171 548.276C770.622 548.749 771.238 548.985 772.018 548.985C772.82 548.985 773.452 548.738 773.914 548.243C774.376 547.749 774.606 547.029 774.606 546.084V541.121H776.107Z"
  ></path>
  <path
    style="fill: var(--color-inkNegative)"
    d="M780.14 542.588C780.404 542.072 780.778 541.671 781.261 541.385C781.756 541.099 782.355 540.956 783.058 540.956V542.506H782.663C780.981 542.506 780.14 543.418 780.14 545.243V550.156H778.64V541.121H780.14V542.588Z"
  ></path>
  <path
    style="fill: var(--color-inkNegative)"
    d="M792.384 550.304C791.692 550.304 791.071 550.189 790.521 549.958C789.972 549.716 789.537 549.386 789.219 548.969C788.9 548.54 788.724 548.051 788.691 547.501H790.241C790.285 547.952 790.494 548.32 790.867 548.606C791.252 548.892 791.752 549.035 792.368 549.035C792.939 549.035 793.39 548.908 793.72 548.656C794.049 548.403 794.214 548.084 794.214 547.699C794.214 547.304 794.038 547.012 793.687 546.826C793.335 546.628 792.791 546.435 792.054 546.248C791.384 546.073 790.834 545.897 790.406 545.721C789.988 545.534 789.625 545.265 789.318 544.913C789.021 544.55 788.872 544.078 788.872 543.495C788.872 543.034 789.01 542.61 789.285 542.226C789.559 541.841 789.95 541.539 790.455 541.319C790.961 541.088 791.538 540.973 792.186 540.973C793.187 540.973 793.994 541.225 794.61 541.731C795.225 542.237 795.555 542.929 795.599 543.808H794.099C794.066 543.336 793.873 542.957 793.522 542.671C793.181 542.385 792.719 542.242 792.137 542.242C791.598 542.242 791.17 542.358 790.851 542.588C790.532 542.819 790.373 543.121 790.373 543.495C790.373 543.792 790.466 544.039 790.653 544.237C790.851 544.424 791.093 544.578 791.378 544.699C791.675 544.809 792.082 544.935 792.598 545.078C793.247 545.254 793.775 545.43 794.181 545.606C794.588 545.77 794.934 546.023 795.22 546.364C795.517 546.705 795.671 547.15 795.682 547.699C795.682 548.194 795.544 548.639 795.269 549.035C794.995 549.43 794.604 549.744 794.099 549.975C793.604 550.194 793.033 550.304 792.384 550.304Z"
  ></path>
  <path
    style="fill: var(--color-inkNegative)"
    d="M805.812 541.121V550.156H804.312V548.82C804.026 549.282 803.625 549.645 803.108 549.909C802.603 550.161 802.042 550.288 801.427 550.288C800.723 550.288 800.091 550.145 799.531 549.859C798.97 549.562 798.525 549.123 798.195 548.54C797.876 547.958 797.717 547.249 797.717 546.413V541.121H799.201V546.216C799.201 547.106 799.426 547.793 799.877 548.276C800.327 548.749 800.943 548.985 801.723 548.985C802.526 548.985 803.158 548.738 803.619 548.243C804.081 547.749 804.312 547.029 804.312 546.084V541.121H805.812Z"
  ></path>
  <path
    style="fill: var(--color-inkNegative)"
    d="M809.846 542.803C810.153 542.264 810.604 541.825 811.197 541.484C811.791 541.143 812.467 540.973 813.225 540.973C814.039 540.973 814.77 541.165 815.418 541.55C816.067 541.934 816.578 542.478 816.951 543.182C817.325 543.874 817.512 544.682 817.512 545.606C817.512 546.518 817.325 547.331 816.951 548.046C816.578 548.76 816.061 549.315 815.402 549.711C814.753 550.106 814.028 550.304 813.225 550.304C812.445 550.304 811.758 550.134 811.164 549.793C810.582 549.452 810.142 549.018 809.846 548.491V550.156H808.345V537.956H809.846V542.803ZM815.979 545.606C815.979 544.924 815.841 544.331 815.566 543.825C815.292 543.319 814.918 542.935 814.445 542.671C813.984 542.407 813.473 542.275 812.912 542.275C812.362 542.275 811.851 542.413 811.379 542.687C810.917 542.951 810.543 543.341 810.258 543.858C809.983 544.363 809.846 544.952 809.846 545.622C809.846 546.303 809.983 546.902 810.258 547.419C810.543 547.925 810.917 548.315 811.379 548.59C811.851 548.853 812.362 548.985 812.912 548.985C813.473 548.985 813.984 548.853 814.445 548.59C814.918 548.315 815.292 547.925 815.566 547.419C815.841 546.902 815.979 546.298 815.979 545.606Z"
  ></path>
  <path
    style="fill: var(--color-inkNegative)"
    d="M822.685 550.304C821.993 550.304 821.372 550.189 820.822 549.958C820.273 549.716 819.838 549.386 819.52 548.969C819.201 548.54 819.025 548.051 818.992 547.501H820.542C820.586 547.952 820.795 548.32 821.168 548.606C821.553 548.892 822.053 549.035 822.669 549.035C823.24 549.035 823.691 548.908 824.021 548.656C824.35 548.403 824.515 548.084 824.515 547.699C824.515 547.304 824.339 547.012 823.988 546.826C823.636 546.628 823.092 546.435 822.355 546.248C821.685 546.073 821.135 545.897 820.707 545.721C820.289 545.534 819.926 545.265 819.619 544.913C819.322 544.55 819.173 544.078 819.173 543.495C819.173 543.034 819.311 542.61 819.586 542.226C819.86 541.841 820.251 541.539 820.756 541.319C821.262 541.088 821.839 540.973 822.487 540.973C823.488 540.973 824.295 541.225 824.911 541.731C825.526 542.237 825.856 542.929 825.9 543.808H824.4C824.367 543.336 824.174 542.957 823.823 542.671C823.482 542.385 823.02 542.242 822.438 542.242C821.899 542.242 821.471 542.358 821.152 542.588C820.833 542.819 820.674 543.121 820.674 543.495C820.674 543.792 820.767 544.039 820.954 544.237C821.152 544.424 821.394 544.578 821.679 544.699C821.976 544.809 822.383 544.935 822.9 545.078C823.548 545.254 824.076 545.43 824.482 545.606C824.889 545.77 825.235 546.023 825.521 546.364C825.818 546.705 825.972 547.15 825.983 547.699C825.983 548.194 825.845 548.639 825.57 549.035C825.296 549.43 824.905 549.744 824.4 549.975C823.905 550.194 823.334 550.304 822.685 550.304Z"
  ></path>
  <path
    style="fill: var(--color-inkNegative)"
    d="M827.54 545.622C827.54 544.688 827.727 543.874 828.1 543.182C828.474 542.478 828.991 541.934 829.65 541.55C830.321 541.165 831.085 540.973 831.942 540.973C833.052 540.973 833.964 541.242 834.679 541.781C835.404 542.319 835.882 543.067 836.113 544.023H834.497C834.343 543.473 834.041 543.039 833.591 542.72C833.151 542.402 832.601 542.242 831.942 542.242C831.085 542.242 830.392 542.539 829.865 543.132C829.337 543.715 829.073 544.545 829.073 545.622C829.073 546.71 829.337 547.551 829.865 548.144C830.392 548.738 831.085 549.035 831.942 549.035C832.601 549.035 833.151 548.881 833.591 548.573C834.03 548.265 834.332 547.826 834.497 547.254H836.113C835.871 548.177 835.388 548.919 834.662 549.48C833.937 550.029 833.03 550.304 831.942 550.304C831.085 550.304 830.321 550.112 829.65 549.727C828.991 549.343 828.474 548.798 828.1 548.095C827.727 547.392 827.54 546.567 827.54 545.622Z"
  ></path>
  <path
    style="fill: var(--color-inkNegative)"
    d="M839.615 542.588C839.879 542.072 840.253 541.671 840.736 541.385C841.231 541.099 841.83 540.956 842.533 540.956V542.506H842.138C840.456 542.506 839.615 543.418 839.615 545.243V550.156H838.115V541.121H839.615V542.588Z"
  ></path>
  <path
    style="fill: var(--color-inkNegative)"
    d="M845.04 539.654C844.754 539.654 844.513 539.555 844.315 539.357C844.117 539.159 844.018 538.917 844.018 538.632C844.018 538.346 844.117 538.104 844.315 537.906C844.513 537.708 844.754 537.609 845.04 537.609C845.315 537.609 845.546 537.708 845.733 537.906C845.93 538.104 846.029 538.346 846.029 538.632C846.029 538.917 845.93 539.159 845.733 539.357C845.546 539.555 845.315 539.654 845.04 539.654ZM845.766 541.121V550.156H844.265V541.121H845.766Z"
  ></path>
  <path
    style="fill: var(--color-inkNegative)"
    d="M849.823 542.786C850.12 542.27 850.559 541.841 851.142 541.5C851.735 541.149 852.422 540.973 853.203 540.973C854.005 540.973 854.731 541.165 855.379 541.55C856.038 541.934 856.555 542.478 856.929 543.182C857.302 543.874 857.489 544.682 857.489 545.606C857.489 546.518 857.302 547.331 856.929 548.046C856.555 548.76 856.038 549.315 855.379 549.711C854.731 550.106 854.005 550.304 853.203 550.304C852.433 550.304 851.752 550.134 851.158 549.793C850.576 549.441 850.131 549.007 849.823 548.491V554.442H848.323V541.121H849.823V542.786ZM855.956 545.606C855.956 544.924 855.819 544.331 855.544 543.825C855.269 543.319 854.895 542.935 854.423 542.671C853.961 542.407 853.45 542.275 852.889 542.275C852.34 542.275 851.829 542.413 851.356 542.687C850.895 542.951 850.521 543.341 850.235 543.858C849.96 544.363 849.823 544.952 849.823 545.622C849.823 546.303 849.96 546.902 850.235 547.419C850.521 547.925 850.895 548.315 851.356 548.59C851.829 548.853 852.34 548.985 852.889 548.985C853.45 548.985 853.961 548.853 854.423 548.59C854.895 548.315 855.269 547.925 855.544 547.419C855.819 546.902 855.956 546.298 855.956 545.606Z"
  ></path>
  <path
    style="fill: var(--color-inkNegative)"
    d="M861.294 542.358V547.683C861.294 548.122 861.388 548.436 861.574 548.623C861.761 548.798 862.086 548.886 862.547 548.886H863.652V550.156H862.3C861.465 550.156 860.838 549.964 860.42 549.579C860.003 549.194 859.794 548.562 859.794 547.683V542.358H858.623V541.121H859.794V538.846H861.294V541.121H863.652V542.358H861.294Z"
  ></path>
  <path
    style="fill: var(--color-inkNegative)"
    d="M866.244 539.654C865.959 539.654 865.717 539.555 865.519 539.357C865.321 539.159 865.222 538.917 865.222 538.632C865.222 538.346 865.321 538.104 865.519 537.906C865.717 537.708 865.959 537.609 866.244 537.609C866.519 537.609 866.75 537.708 866.937 537.906C867.135 538.104 867.234 538.346 867.234 538.632C867.234 538.917 867.135 539.159 866.937 539.357C866.75 539.555 866.519 539.654 866.244 539.654ZM866.97 541.121V550.156H865.47V541.121H866.97Z"
  ></path>
  <path
    style="fill: var(--color-inkNegative)"
    d="M873.467 550.304C872.621 550.304 871.852 550.112 871.159 549.727C870.478 549.343 869.939 548.798 869.543 548.095C869.159 547.381 868.966 546.556 868.966 545.622C868.966 544.699 869.164 543.885 869.56 543.182C869.967 542.468 870.516 541.923 871.209 541.55C871.901 541.165 872.676 540.973 873.533 540.973C874.391 540.973 875.165 541.165 875.858 541.55C876.55 541.923 877.094 542.462 877.49 543.165C877.897 543.869 878.1 544.688 878.1 545.622C878.1 546.556 877.891 547.381 877.474 548.095C877.067 548.798 876.512 549.343 875.808 549.727C875.105 550.112 874.325 550.304 873.467 550.304ZM873.467 548.985C874.006 548.985 874.511 548.859 874.984 548.606C875.457 548.353 875.836 547.974 876.122 547.469C876.418 546.963 876.567 546.347 876.567 545.622C876.567 544.897 876.424 544.281 876.138 543.775C875.852 543.27 875.479 542.896 875.017 542.654C874.555 542.402 874.055 542.275 873.517 542.275C872.967 542.275 872.462 542.402 872 542.654C871.549 542.896 871.187 543.27 870.912 543.775C870.637 544.281 870.5 544.897 870.5 545.622C870.5 546.358 870.632 546.979 870.895 547.485C871.17 547.991 871.533 548.37 871.983 548.623C872.434 548.864 872.929 548.985 873.467 548.985Z"
  ></path>
  <path
    style="fill: var(--color-inkNegative)"
    d="M884.475 540.956C885.574 540.956 886.464 541.291 887.146 541.962C887.827 542.621 888.168 543.578 888.168 544.831V550.156H886.684V545.045C886.684 544.144 886.459 543.457 886.008 542.984C885.557 542.5 884.942 542.259 884.161 542.259C883.37 542.259 882.738 542.506 882.265 543.001C881.804 543.495 881.573 544.215 881.573 545.16V550.156H880.073V541.121H881.573V542.407C881.87 541.945 882.271 541.588 882.777 541.335C883.293 541.083 883.859 540.956 884.475 540.956Z"
  ></path>
  <path
    style="fill: var(--color-illustrationInterface070)"
    d="M462.733 423.255V427.284H467.473V429.121H462.733V433.328H468.065V435.164H460.481V421.419H468.065V423.255H462.733Z"
  ></path>
  <path
    style="fill: var(--color-illustrationInterface070)"
    d="M484.012 424.105C484.868 424.105 485.631 424.282 486.303 424.638C486.987 424.993 487.521 425.52 487.902 426.218C488.297 426.916 488.495 427.758 488.495 428.746V435.164H486.263V429.081C486.263 428.107 486.02 427.363 485.532 426.85C485.045 426.323 484.38 426.06 483.538 426.06C482.695 426.06 482.024 426.323 481.523 426.85C481.036 427.363 480.793 428.107 480.793 429.081V435.164H478.561V429.081C478.561 428.107 478.317 427.363 477.83 426.85C477.343 426.323 476.678 426.06 475.835 426.06C474.993 426.06 474.321 426.323 473.821 426.85C473.334 427.363 473.09 428.107 473.09 429.081V435.164H470.839V424.282H473.09V425.526C473.459 425.079 473.926 424.73 474.492 424.48C475.058 424.23 475.664 424.105 476.309 424.105C477.178 424.105 477.955 424.289 478.64 424.658C479.324 425.026 479.851 425.559 480.22 426.257C480.549 425.599 481.062 425.079 481.76 424.697C482.458 424.302 483.209 424.105 484.012 424.105Z"
  ></path>
  <path
    style="fill: var(--color-illustrationInterface070)"
    d="M490.609 429.674C490.609 428.581 490.833 427.613 491.281 426.771C491.742 425.928 492.361 425.276 493.137 424.816C493.927 424.342 494.796 424.105 495.744 424.105C496.6 424.105 497.344 424.276 497.976 424.618C498.621 424.947 499.135 425.362 499.517 425.862V424.282H501.788V435.164H499.517V433.545C499.135 434.058 498.615 434.486 497.956 434.829C497.298 435.171 496.548 435.342 495.705 435.342C494.77 435.342 493.914 435.105 493.137 434.631C492.361 434.144 491.742 433.473 491.281 432.617C490.833 431.748 490.609 430.767 490.609 429.674ZM499.517 429.713C499.517 428.963 499.359 428.311 499.043 427.758C498.74 427.205 498.338 426.784 497.838 426.494C497.338 426.205 496.798 426.06 496.218 426.06C495.639 426.06 495.099 426.205 494.599 426.494C494.099 426.771 493.69 427.185 493.374 427.738C493.072 428.278 492.92 428.923 492.92 429.674C492.92 430.424 493.072 431.083 493.374 431.649C493.69 432.215 494.099 432.65 494.599 432.952C495.112 433.242 495.652 433.387 496.218 433.387C496.798 433.387 497.338 433.242 497.838 432.952C498.338 432.663 498.74 432.241 499.043 431.688C499.359 431.122 499.517 430.464 499.517 429.713Z"
  ></path>
  <path
    style="fill: var(--color-illustrationInterface070)"
    d="M505.891 422.841C505.482 422.841 505.14 422.702 504.864 422.426C504.587 422.149 504.449 421.807 504.449 421.399C504.449 420.991 504.587 420.648 504.864 420.372C505.14 420.095 505.482 419.957 505.891 419.957C506.286 419.957 506.621 420.095 506.898 420.372C507.174 420.648 507.313 420.991 507.313 421.399C507.313 421.807 507.174 422.149 506.898 422.426C506.621 422.702 506.286 422.841 505.891 422.841ZM506.997 424.282V435.164H504.745V424.282H506.997Z"
  ></path>
  <path
    style="fill: var(--color-illustrationInterface070)"
    d="M512.204 420.55V435.164H509.953V420.55H512.204Z"
  ></path>
  <path
    style="fill: var(--color-illustrationInterface070)"
    d="M519.54 429.674C519.54 428.581 519.764 427.613 520.211 426.771C520.672 425.928 521.291 425.276 522.068 424.816C522.858 424.342 523.727 424.105 524.675 424.105C525.531 424.105 526.275 424.276 526.907 424.618C527.552 424.947 528.065 425.362 528.447 425.862V424.282H530.718V435.164H528.447V433.545C528.065 434.058 527.545 434.486 526.887 434.829C526.229 435.171 525.478 435.342 524.635 435.342C523.701 435.342 522.845 435.105 522.068 434.631C521.291 434.144 520.672 433.473 520.211 432.617C519.764 431.748 519.54 430.767 519.54 429.674ZM528.447 429.713C528.447 428.963 528.289 428.311 527.973 427.758C527.67 427.205 527.269 426.784 526.768 426.494C526.268 426.205 525.728 426.06 525.149 426.06C524.57 426.06 524.03 426.205 523.529 426.494C523.029 426.771 522.621 427.185 522.305 427.738C522.002 428.278 521.851 428.923 521.851 429.674C521.851 430.424 522.002 431.083 522.305 431.649C522.621 432.215 523.029 432.65 523.529 432.952C524.043 433.242 524.583 433.387 525.149 433.387C525.728 433.387 526.268 433.242 526.768 432.952C527.269 432.663 527.67 432.241 527.973 431.688C528.289 431.122 528.447 430.464 528.447 429.713Z"
  ></path>
  <path
    style="fill: var(--color-illustrationInterface070)"
    d="M532.925 429.674C532.925 428.581 533.149 427.613 533.597 426.771C534.057 425.928 534.676 425.276 535.453 424.816C536.243 424.342 537.119 424.105 538.08 424.105C538.791 424.105 539.489 424.263 540.173 424.579C540.871 424.881 541.424 425.29 541.832 425.803V420.55H544.104V435.164H541.832V433.525C541.464 434.052 540.95 434.486 540.292 434.829C539.647 435.171 538.903 435.342 538.06 435.342C537.112 435.342 536.243 435.105 535.453 434.631C534.676 434.144 534.057 433.473 533.597 432.617C533.149 431.748 532.925 430.767 532.925 429.674ZM541.832 429.713C541.832 428.963 541.674 428.311 541.358 427.758C541.055 427.205 540.654 426.784 540.154 426.494C539.653 426.205 539.113 426.06 538.534 426.06C537.955 426.06 537.415 426.205 536.915 426.494C536.414 426.771 536.006 427.185 535.69 427.738C535.387 428.278 535.236 428.923 535.236 429.674C535.236 430.424 535.387 431.083 535.69 431.649C536.006 432.215 536.414 432.65 536.915 432.952C537.428 433.242 537.968 433.387 538.534 433.387C539.113 433.387 539.653 433.242 540.154 432.952C540.654 432.663 541.055 432.241 541.358 431.688C541.674 431.122 541.832 430.464 541.832 429.713Z"
  ></path>
  <path
    style="fill: var(--color-illustrationInterface070)"
    d="M549.312 425.862C549.641 425.309 550.076 424.881 550.616 424.579C551.169 424.263 551.82 424.105 552.571 424.105V426.435H551.998C551.116 426.435 550.445 426.659 549.984 427.106C549.536 427.554 549.312 428.331 549.312 429.437V435.164H547.061V424.282H549.312V425.862Z"
  ></path>
  <path
    style="fill: var(--color-illustrationInterface070)"
    d="M564.614 429.457C564.614 429.865 564.588 430.234 564.535 430.563H556.221C556.286 431.432 556.609 432.13 557.188 432.656C557.768 433.183 558.479 433.446 559.321 433.446C560.533 433.446 561.388 432.939 561.889 431.925H564.318C563.989 432.926 563.39 433.749 562.521 434.394C561.665 435.026 560.598 435.342 559.321 435.342C558.281 435.342 557.346 435.112 556.517 434.651C555.7 434.177 555.055 433.519 554.581 432.676C554.12 431.82 553.89 430.833 553.89 429.713C553.89 428.594 554.114 427.613 554.562 426.771C555.022 425.915 555.661 425.257 556.477 424.796C557.307 424.335 558.255 424.105 559.321 424.105C560.348 424.105 561.263 424.328 562.067 424.776C562.87 425.224 563.495 425.856 563.943 426.672C564.39 427.475 564.614 428.403 564.614 429.457ZM562.264 428.746C562.251 427.916 561.955 427.251 561.375 426.751C560.796 426.251 560.078 426 559.223 426C558.446 426 557.781 426.251 557.228 426.751C556.675 427.238 556.346 427.903 556.24 428.746H562.264Z"
  ></path>
  <path
    style="fill: var(--color-illustrationInterface070)"
    d="M570.78 435.342C569.924 435.342 569.154 435.191 568.469 434.888C567.798 434.572 567.264 434.151 566.869 433.624C566.474 433.084 566.264 432.485 566.237 431.827H568.568C568.607 432.288 568.825 432.676 569.22 432.992C569.628 433.295 570.135 433.446 570.74 433.446C571.372 433.446 571.86 433.328 572.202 433.091C572.557 432.841 572.735 432.525 572.735 432.143C572.735 431.735 572.538 431.432 572.143 431.234C571.761 431.037 571.149 430.819 570.306 430.582C569.49 430.359 568.825 430.141 568.311 429.931C567.798 429.72 567.35 429.397 566.968 428.963C566.6 428.528 566.415 427.956 566.415 427.245C566.415 426.665 566.586 426.139 566.929 425.665C567.271 425.178 567.758 424.796 568.39 424.519C569.035 424.243 569.773 424.105 570.602 424.105C571.84 424.105 572.834 424.421 573.584 425.053C574.348 425.671 574.756 426.521 574.809 427.6H572.557C572.518 427.113 572.32 426.725 571.965 426.435C571.609 426.145 571.129 426 570.523 426C569.931 426 569.476 426.112 569.16 426.336C568.844 426.56 568.686 426.856 568.686 427.225C568.686 427.515 568.792 427.758 569.002 427.956C569.213 428.153 569.47 428.311 569.773 428.43C570.075 428.535 570.523 428.673 571.116 428.844C571.906 429.055 572.551 429.272 573.051 429.496C573.565 429.707 574.006 430.023 574.374 430.444C574.743 430.866 574.934 431.425 574.947 432.123C574.947 432.742 574.776 433.295 574.434 433.782C574.091 434.269 573.604 434.651 572.972 434.927C572.353 435.204 571.623 435.342 570.78 435.342Z"
  ></path>
  <path
    style="fill: var(--color-illustrationInterface070)"
    d="M581.33 435.342C580.474 435.342 579.704 435.191 579.019 434.888C578.348 434.572 577.814 434.151 577.419 433.624C577.024 433.084 576.814 432.485 576.787 431.827H579.118C579.157 432.288 579.375 432.676 579.77 432.992C580.178 433.295 580.685 433.446 581.29 433.446C581.922 433.446 582.41 433.328 582.752 433.091C583.107 432.841 583.285 432.525 583.285 432.143C583.285 431.735 583.088 431.432 582.693 431.234C582.311 431.037 581.699 430.819 580.856 430.582C580.04 430.359 579.375 430.141 578.861 429.931C578.348 429.72 577.9 429.397 577.518 428.963C577.15 428.528 576.965 427.956 576.965 427.245C576.965 426.665 577.136 426.139 577.479 425.665C577.821 425.178 578.308 424.796 578.94 424.519C579.585 424.243 580.323 424.105 581.152 424.105C582.39 424.105 583.384 424.421 584.134 425.053C584.898 425.671 585.306 426.521 585.359 427.6H583.107C583.068 427.113 582.87 426.725 582.515 426.435C582.159 426.145 581.679 426 581.073 426C580.481 426 580.026 426.112 579.71 426.336C579.394 426.56 579.236 426.856 579.236 427.225C579.236 427.515 579.342 427.758 579.552 427.956C579.763 428.153 580.02 428.311 580.323 428.43C580.625 428.535 581.073 428.673 581.666 428.844C582.456 429.055 583.101 429.272 583.601 429.496C584.115 429.707 584.556 430.023 584.924 430.444C585.293 430.866 585.484 431.425 585.497 432.123C585.497 432.742 585.326 433.295 584.984 433.782C584.641 434.269 584.154 434.651 583.522 434.927C582.903 435.204 582.173 435.342 581.33 435.342Z"
  ></path>
  <path
    style="fill: var(--color-inkNegative)"
    d="M985.681 474.643C977.894 474.643 971.574 480.963 971.574 488.75C971.574 496.537 977.894 502.857 985.681 502.857C993.468 502.857 999.788 496.537 999.788 488.75C999.788 480.963 993.468 474.643 985.681 474.643ZM987.092 495.803H984.271V492.982H987.092V495.803ZM987.092 490.16H984.271V481.696H987.092V490.16Z"
  ></path>
  <path
    style="fill: var(--color-illustrationInterface010)"
    d="M459 634.499C459 629.237 463.266 624.971 468.528 624.971H531.151C536.413 624.971 540.679 629.237 540.679 634.499V686.443C540.679 691.705 536.413 695.971 531.151 695.971H468.528C463.266 695.971 459 691.705 459 686.443V634.499Z"
  ></path>
  <path
    style="fill: var(--color-illustrationInterface010)"
    d="M563 634.499C563 629.237 567.266 624.971 572.528 624.971H635.151C640.413 624.971 644.679 629.237 644.679 634.499V686.443C644.679 691.705 640.413 695.971 635.151 695.971H572.528C567.266 695.971 563 691.705 563 686.443V634.499Z"
  ></path>
  <path
    style="fill: var(--color-illustrationInterface010)"
    d="M666.383 634.499C666.383 629.237 670.649 624.971 675.911 624.971H781.4C786.662 624.971 790.928 629.237 790.928 634.499V686.443C790.928 691.705 786.662 695.971 781.4 695.971H675.911C670.649 695.971 666.383 691.705 666.383 686.443V634.499Z"
  ></path>
  <path
    style="fill: var(--color-illustrationInterface070)"
    d="M474.89 711.234L471.522 722.856H469.821L467.12 713.502L464.319 722.856L462.635 722.873L459.383 711.234H461.001L463.535 721.089L466.336 711.234H468.037L470.705 721.055L473.256 711.234H474.89Z"
  ></path>
  <path
    style="fill: var(--color-illustrationInterface070)"
    d="M484.888 717.937C484.888 718.226 484.871 718.532 484.838 718.854H477.534C477.59 719.755 477.896 720.461 478.451 720.972C479.018 721.472 479.702 721.722 480.502 721.722C481.158 721.722 481.703 721.572 482.136 721.272C482.581 720.961 482.892 720.55 483.07 720.038H484.704C484.46 720.916 483.971 721.633 483.237 722.189C482.503 722.734 481.592 723.006 480.502 723.006C479.635 723.006 478.857 722.812 478.168 722.423C477.49 722.034 476.956 721.483 476.567 720.772C476.178 720.049 475.984 719.216 475.984 718.271C475.984 717.326 476.173 716.498 476.551 715.786C476.929 715.075 477.457 714.53 478.135 714.152C478.824 713.763 479.613 713.569 480.502 713.569C481.369 713.569 482.136 713.758 482.803 714.136C483.47 714.514 483.982 715.036 484.337 715.703C484.704 716.359 484.888 717.104 484.888 717.937ZM483.32 717.62C483.32 717.042 483.192 716.548 482.937 716.137C482.681 715.714 482.331 715.397 481.886 715.186C481.453 714.964 480.969 714.853 480.436 714.853C479.669 714.853 479.013 715.097 478.468 715.586C477.935 716.075 477.629 716.753 477.551 717.62H483.32Z"
  ></path>
  <path
    style="fill: var(--color-illustrationInterface070)"
    d="M495.788 713.552C496.899 713.552 497.8 713.891 498.489 714.569C499.178 715.236 499.523 716.203 499.523 717.47V722.856H498.022V717.687C498.022 716.776 497.794 716.081 497.338 715.603C496.883 715.114 496.26 714.869 495.471 714.869C494.671 714.869 494.031 715.119 493.553 715.62C493.087 716.12 492.853 716.848 492.853 717.804V722.856H491.336V713.719H492.853V715.019C493.153 714.552 493.559 714.191 494.07 713.936C494.593 713.68 495.165 713.552 495.788 713.552Z"
  ></path>
  <path
    style="fill: var(--color-illustrationInterface070)"
    d="M510.338 717.937C510.338 718.226 510.322 718.532 510.288 718.854H502.985C503.041 719.755 503.346 720.461 503.902 720.972C504.469 721.472 505.153 721.722 505.953 721.722C506.609 721.722 507.154 721.572 507.587 721.272C508.032 720.961 508.343 720.55 508.521 720.038H510.155C509.91 720.916 509.421 721.633 508.688 722.189C507.954 722.734 507.042 723.006 505.953 723.006C505.086 723.006 504.308 722.812 503.619 722.423C502.941 722.034 502.407 721.483 502.018 720.772C501.629 720.049 501.434 719.216 501.434 718.271C501.434 717.326 501.623 716.498 502.001 715.786C502.379 715.075 502.907 714.53 503.585 714.152C504.274 713.763 505.064 713.569 505.953 713.569C506.82 713.569 507.587 713.758 508.254 714.136C508.921 714.514 509.432 715.036 509.788 715.703C510.155 716.359 510.338 717.104 510.338 717.937ZM508.771 717.62C508.771 717.042 508.643 716.548 508.387 716.137C508.132 715.714 507.782 715.397 507.337 715.186C506.903 714.964 506.42 714.853 505.886 714.853C505.119 714.853 504.463 715.097 503.919 715.586C503.385 716.075 503.079 716.753 503.002 717.62H508.771Z"
  ></path>
  <path
    style="fill: var(--color-illustrationInterface070)"
    d="M520.678 717.937C520.678 718.226 520.661 718.532 520.628 718.854H513.325C513.38 719.755 513.686 720.461 514.242 720.972C514.809 721.472 515.492 721.722 516.293 721.722C516.949 721.722 517.493 721.572 517.927 721.272C518.372 720.961 518.683 720.55 518.861 720.038H520.495C520.25 720.916 519.761 721.633 519.027 722.189C518.294 722.734 517.382 723.006 516.293 723.006C515.426 723.006 514.648 722.812 513.958 722.423C513.28 722.034 512.747 721.483 512.358 720.772C511.969 720.049 511.774 719.216 511.774 718.271C511.774 717.326 511.963 716.498 512.341 715.786C512.719 715.075 513.247 714.53 513.925 714.152C514.614 713.763 515.404 713.569 516.293 713.569C517.16 713.569 517.927 713.758 518.594 714.136C519.261 714.514 519.772 715.036 520.128 715.703C520.495 716.359 520.678 717.104 520.678 717.937ZM519.111 717.62C519.111 717.042 518.983 716.548 518.727 716.137C518.472 715.714 518.121 715.397 517.677 715.186C517.243 714.964 516.76 714.853 516.226 714.853C515.459 714.853 514.803 715.097 514.259 715.586C513.725 716.075 513.419 716.753 513.342 717.62H519.111Z"
  ></path>
  <path
    style="fill: var(--color-illustrationInterface070)"
    d="M522.114 718.254C522.114 717.32 522.303 716.503 522.681 715.803C523.059 715.092 523.576 714.541 524.232 714.152C524.899 713.763 525.643 713.569 526.466 713.569C527.177 713.569 527.839 713.735 528.45 714.069C529.061 714.391 529.528 714.819 529.851 715.353V710.517H531.385V722.856H529.851V721.139C529.551 721.683 529.106 722.134 528.517 722.489C527.928 722.834 527.238 723.006 526.449 723.006C525.638 723.006 524.899 722.806 524.232 722.406C523.576 722.006 523.059 721.444 522.681 720.722C522.303 719.999 522.114 719.177 522.114 718.254ZM529.851 718.271C529.851 717.582 529.712 716.981 529.434 716.47C529.156 715.959 528.778 715.57 528.3 715.303C527.833 715.025 527.316 714.886 526.749 714.886C526.182 714.886 525.666 715.019 525.199 715.286C524.732 715.553 524.359 715.942 524.082 716.453C523.804 716.965 523.665 717.565 523.665 718.254C523.665 718.954 523.804 719.566 524.082 720.088C524.359 720.6 524.732 720.994 525.199 721.272C525.666 721.539 526.182 721.672 526.749 721.672C527.316 721.672 527.833 721.539 528.3 721.272C528.778 720.994 529.156 720.6 529.434 720.088C529.712 719.566 529.851 718.96 529.851 718.271Z"
  ></path>
  <path
    style="fill: var(--color-illustrationInterface070)"
    d="M540.245 714.969V720.355C540.245 720.8 540.339 721.116 540.528 721.305C540.717 721.483 541.045 721.572 541.512 721.572H542.629V722.856H541.262C540.417 722.856 539.784 722.662 539.361 722.273C538.939 721.883 538.728 721.244 538.728 720.355V714.969H537.544V713.719H538.728V711.418H540.245V713.719H542.629V714.969H540.245Z"
  ></path>
  <path
    style="fill: var(--color-illustrationInterface070)"
    d="M549.003 713.552C549.692 713.552 550.315 713.702 550.871 714.002C551.426 714.291 551.86 714.73 552.171 715.319C552.494 715.909 552.655 716.626 552.655 717.47V722.856H551.154V717.687C551.154 716.776 550.926 716.081 550.47 715.603C550.015 715.114 549.392 714.869 548.603 714.869C547.803 714.869 547.163 715.119 546.685 715.62C546.219 716.12 545.985 716.848 545.985 717.804V722.856H544.468V710.517H545.985V715.019C546.285 714.552 546.697 714.191 547.219 713.936C547.753 713.68 548.347 713.552 549.003 713.552Z"
  ></path>
  <path
    style="fill: var(--color-illustrationInterface070)"
    d="M555.917 712.235C555.628 712.235 555.383 712.135 555.183 711.935C554.983 711.735 554.883 711.49 554.883 711.201C554.883 710.912 554.983 710.667 555.183 710.467C555.383 710.267 555.628 710.167 555.917 710.167C556.195 710.167 556.428 710.267 556.617 710.467C556.817 710.667 556.917 710.912 556.917 711.201C556.917 711.49 556.817 711.735 556.617 711.935C556.428 712.135 556.195 712.235 555.917 712.235ZM556.651 713.719V722.856H555.133V713.719H556.651Z"
  ></path>
  <path
    style="fill: var(--color-illustrationInterface070)"
    d="M562.471 723.006C561.771 723.006 561.143 722.889 560.587 722.656C560.031 722.411 559.592 722.078 559.27 721.656C558.948 721.222 558.77 720.727 558.736 720.172H560.304C560.348 720.627 560.559 721 560.937 721.289C561.326 721.578 561.832 721.722 562.455 721.722C563.033 721.722 563.489 721.594 563.822 721.339C564.156 721.083 564.322 720.761 564.322 720.372C564.322 719.972 564.144 719.677 563.789 719.488C563.433 719.288 562.883 719.093 562.138 718.904C561.46 718.727 560.904 718.549 560.471 718.371C560.048 718.182 559.681 717.91 559.37 717.554C559.07 717.187 558.92 716.709 558.92 716.12C558.92 715.653 559.059 715.225 559.337 714.836C559.615 714.447 560.009 714.141 560.521 713.919C561.032 713.685 561.616 713.569 562.271 713.569C563.283 713.569 564.1 713.824 564.722 714.336C565.345 714.847 565.678 715.547 565.723 716.437H564.206C564.172 715.959 563.978 715.575 563.622 715.286C563.277 714.997 562.81 714.853 562.221 714.853C561.677 714.853 561.243 714.969 560.921 715.203C560.598 715.436 560.437 715.742 560.437 716.12C560.437 716.42 560.532 716.67 560.721 716.87C560.921 717.059 561.165 717.215 561.454 717.337C561.754 717.448 562.166 717.576 562.688 717.721C563.344 717.898 563.878 718.076 564.289 718.254C564.7 718.421 565.05 718.677 565.339 719.021C565.64 719.366 565.795 719.816 565.806 720.372C565.806 720.872 565.667 721.322 565.389 721.722C565.111 722.122 564.717 722.439 564.206 722.673C563.705 722.895 563.127 723.006 562.471 723.006Z"
  ></path>
  <path
    style="fill: var(--color-illustrationInterface070)"
    d="M574.244 714.969V720.355C574.244 720.8 574.339 721.116 574.528 721.305C574.717 721.483 575.045 721.572 575.512 721.572H576.629V722.856H575.261C574.417 722.856 573.783 722.662 573.361 722.273C572.938 721.883 572.727 721.244 572.727 720.355V714.969H571.543V713.719H572.727V711.418H574.244V713.719H576.629V714.969H574.244Z"
  ></path>
  <path
    style="fill: var(--color-illustrationInterface070)"
    d="M582.452 723.006C581.596 723.006 580.818 722.812 580.118 722.423C579.429 722.034 578.884 721.483 578.484 720.772C578.095 720.049 577.9 719.216 577.9 718.271C577.9 717.337 578.1 716.514 578.5 715.803C578.912 715.08 579.468 714.53 580.168 714.152C580.868 713.763 581.652 713.569 582.519 713.569C583.386 713.569 584.17 713.763 584.87 714.152C585.57 714.53 586.121 715.075 586.521 715.786C586.932 716.498 587.138 717.326 587.138 718.271C587.138 719.216 586.926 720.049 586.504 720.772C586.093 721.483 585.531 722.034 584.82 722.423C584.109 722.812 583.319 723.006 582.452 723.006ZM582.452 721.672C582.997 721.672 583.508 721.544 583.986 721.289C584.464 721.033 584.848 720.65 585.137 720.138C585.437 719.627 585.587 719.004 585.587 718.271C585.587 717.537 585.442 716.915 585.153 716.403C584.864 715.892 584.486 715.514 584.02 715.269C583.553 715.014 583.047 714.886 582.502 714.886C581.946 714.886 581.435 715.014 580.968 715.269C580.512 715.514 580.146 715.892 579.868 716.403C579.59 716.915 579.451 717.537 579.451 718.271C579.451 719.016 579.584 719.644 579.851 720.155C580.129 720.666 580.496 721.05 580.952 721.305C581.407 721.55 581.908 721.672 582.452 721.672Z"
  ></path>
  <path
    style="fill: var(--color-illustrationInterface070)"
    d="M596.979 721.456L599.814 713.719H601.431L597.846 722.856H596.079L592.494 713.719H594.128L596.979 721.456Z"
  ></path>
  <path
    style="fill: var(--color-illustrationInterface070)"
    d="M611.262 717.937C611.262 718.226 611.245 718.532 611.211 718.854H603.908C603.964 719.755 604.27 720.461 604.825 720.972C605.392 721.472 606.076 721.722 606.876 721.722C607.532 721.722 608.077 721.572 608.51 721.272C608.955 720.961 609.266 720.55 609.444 720.038H611.078C610.834 720.916 610.344 721.633 609.611 722.189C608.877 722.734 607.966 723.006 606.876 723.006C606.009 723.006 605.231 722.812 604.542 722.423C603.864 722.034 603.33 721.483 602.941 720.772C602.552 720.049 602.358 719.216 602.358 718.271C602.358 717.326 602.547 716.498 602.925 715.786C603.302 715.075 603.83 714.53 604.509 714.152C605.198 713.763 605.987 713.569 606.876 713.569C607.743 713.569 608.51 713.758 609.177 714.136C609.844 714.514 610.356 715.036 610.711 715.703C611.078 716.359 611.262 717.104 611.262 717.937ZM609.694 717.62C609.694 717.042 609.566 716.548 609.311 716.137C609.055 715.714 608.705 715.397 608.26 715.186C607.827 714.964 607.343 714.853 606.81 714.853C606.043 714.853 605.387 715.097 604.842 715.586C604.308 716.075 604.003 716.753 603.925 717.62H609.694Z"
  ></path>
  <path
    style="fill: var(--color-illustrationInterface070)"
    d="M614.782 715.203C615.048 714.68 615.426 714.275 615.915 713.986C616.416 713.697 617.022 713.552 617.733 713.552V715.119H617.333C615.632 715.119 614.782 716.042 614.782 717.887V722.856H613.264V713.719H614.782V715.203Z"
  ></path>
  <path
    style="fill: var(--color-illustrationInterface070)"
    d="M620.268 712.235C619.979 712.235 619.735 712.135 619.535 711.935C619.334 711.735 619.234 711.49 619.234 711.201C619.234 710.912 619.334 710.667 619.535 710.467C619.735 710.267 619.979 710.167 620.268 710.167C620.546 710.167 620.78 710.267 620.969 710.467C621.169 710.667 621.269 710.912 621.269 711.201C621.269 711.49 621.169 711.735 620.969 711.935C620.78 712.135 620.546 712.235 620.268 712.235ZM621.002 713.719V722.856H619.485V713.719H621.002Z"
  ></path>
  <path
    style="fill: var(--color-illustrationInterface070)"
    d="M627.306 714.969H625.389V722.856H623.871V714.969H622.687V713.719H623.871V713.068C623.871 712.046 624.133 711.301 624.655 710.834C625.189 710.356 626.039 710.117 627.206 710.117V711.384C626.539 711.384 626.067 711.518 625.789 711.785C625.522 712.04 625.389 712.468 625.389 713.068V713.719H627.306V714.969Z"
  ></path>
  <path
    style="fill: var(--color-illustrationInterface070)"
    d="M636.945 713.719L631.443 727.158H629.876L631.676 722.756L627.992 713.719H629.676L632.544 721.122L635.378 713.719H636.945Z"
  ></path>
  <path
    style="fill: var(--color-illustrationInterface070)"
    d="M650.786 713.719L645.284 727.158H643.716L645.517 722.756L641.832 713.719H643.516L646.384 721.122L649.219 713.719H650.786Z"
  ></path>
  <path
    style="fill: var(--color-illustrationInterface070)"
    d="M656.297 723.006C655.441 723.006 654.662 722.812 653.962 722.423C653.273 722.034 652.728 721.483 652.328 720.772C651.939 720.049 651.745 719.216 651.745 718.271C651.745 717.337 651.945 716.514 652.345 715.803C652.756 715.08 653.312 714.53 654.012 714.152C654.712 713.763 655.496 713.569 656.363 713.569C657.23 713.569 658.014 713.763 658.714 714.152C659.415 714.53 659.965 715.075 660.365 715.786C660.776 716.498 660.982 717.326 660.982 718.271C660.982 719.216 660.771 720.049 660.348 720.772C659.937 721.483 659.376 722.034 658.664 722.423C657.953 722.812 657.164 723.006 656.297 723.006ZM656.297 721.672C656.841 721.672 657.353 721.544 657.831 721.289C658.309 721.033 658.692 720.65 658.981 720.138C659.281 719.627 659.431 719.004 659.431 718.271C659.431 717.537 659.287 716.915 658.998 716.403C658.709 715.892 658.331 715.514 657.864 715.269C657.397 715.014 656.891 714.886 656.347 714.886C655.791 714.886 655.279 715.014 654.813 715.269C654.357 715.514 653.99 715.892 653.712 716.403C653.434 716.915 653.295 717.537 653.295 718.271C653.295 719.016 653.429 719.644 653.695 720.155C653.973 720.666 654.34 721.05 654.796 721.305C655.252 721.55 655.752 721.672 656.297 721.672Z"
  ></path>
  <path
    style="fill: var(--color-illustrationInterface070)"
    d="M671.081 713.719V722.856H669.563V721.506C669.274 721.972 668.868 722.339 668.346 722.606C667.835 722.862 667.268 722.99 666.645 722.99C665.934 722.99 665.295 722.845 664.728 722.556C664.161 722.256 663.711 721.811 663.377 721.222C663.055 720.633 662.894 719.916 662.894 719.071V713.719H664.394V718.871C664.394 719.771 664.622 720.466 665.078 720.955C665.534 721.433 666.156 721.672 666.945 721.672C667.757 721.672 668.396 721.422 668.863 720.922C669.33 720.422 669.563 719.694 669.563 718.738V713.719H671.081Z"
  ></path>
  <path
    style="fill: var(--color-illustrationInterface070)"
    d="M675.16 715.203C675.427 714.68 675.804 714.275 676.294 713.986C676.794 713.697 677.4 713.552 678.111 713.552V715.119H677.711C676.01 715.119 675.16 716.042 675.16 717.887V722.856H673.642V713.719H675.16V715.203Z"
  ></path>
  <path
    style="fill: var(--color-illustrationInterface070)"
    d="M683.741 718.254C683.741 717.32 683.93 716.503 684.308 715.803C684.686 715.092 685.203 714.541 685.859 714.152C686.526 713.763 687.265 713.569 688.076 713.569C688.877 713.569 689.571 713.741 690.161 714.086C690.75 714.43 691.189 714.864 691.478 715.386V713.719H693.012V722.856H691.478V721.155C691.178 721.689 690.727 722.134 690.127 722.489C689.538 722.834 688.849 723.006 688.06 723.006C687.248 723.006 686.514 722.806 685.859 722.406C685.203 722.006 684.686 721.444 684.308 720.722C683.93 719.999 683.741 719.177 683.741 718.254ZM691.478 718.271C691.478 717.582 691.339 716.981 691.061 716.47C690.783 715.959 690.405 715.57 689.927 715.303C689.46 715.025 688.943 714.886 688.376 714.886C687.809 714.886 687.293 715.019 686.826 715.286C686.359 715.553 685.986 715.942 685.709 716.453C685.431 716.965 685.292 717.565 685.292 718.254C685.292 718.954 685.431 719.566 685.709 720.088C685.986 720.6 686.359 720.994 686.826 721.272C687.293 721.539 687.809 721.672 688.376 721.672C688.943 721.672 689.46 721.539 689.927 721.272C690.405 720.994 690.783 720.6 691.061 720.088C691.339 719.566 691.478 718.96 691.478 718.271Z"
  ></path>
  <path
    style="fill: var(--color-illustrationInterface070)"
    d="M699.344 713.569C700.133 713.569 700.823 713.741 701.412 714.086C702.012 714.43 702.457 714.864 702.746 715.386V713.719H704.28V723.056C704.28 723.89 704.102 724.629 703.746 725.274C703.39 725.93 702.879 726.441 702.212 726.808C701.556 727.175 700.789 727.358 699.911 727.358C698.711 727.358 697.71 727.075 696.91 726.508C696.109 725.941 695.637 725.168 695.493 724.19H696.993C697.16 724.746 697.505 725.19 698.027 725.524C698.549 725.869 699.177 726.041 699.911 726.041C700.745 726.041 701.423 725.78 701.945 725.257C702.479 724.735 702.746 724.001 702.746 723.056V721.139C702.446 721.672 702.001 722.117 701.412 722.473C700.823 722.828 700.133 723.006 699.344 723.006C698.533 723.006 697.794 722.806 697.127 722.406C696.471 722.006 695.954 721.444 695.576 720.722C695.198 719.999 695.009 719.177 695.009 718.254C695.009 717.32 695.198 716.503 695.576 715.803C695.954 715.092 696.471 714.541 697.127 714.152C697.794 713.763 698.533 713.569 699.344 713.569ZM702.746 718.271C702.746 717.582 702.607 716.981 702.329 716.47C702.051 715.959 701.673 715.57 701.195 715.303C700.728 715.025 700.211 714.886 699.644 714.886C699.077 714.886 698.561 715.019 698.094 715.286C697.627 715.553 697.254 715.942 696.977 716.453C696.699 716.965 696.56 717.565 696.56 718.254C696.56 718.954 696.699 719.566 696.977 720.088C697.254 720.6 697.627 720.994 698.094 721.272C698.561 721.539 699.077 721.672 699.644 721.672C700.211 721.672 700.728 721.539 701.195 721.272C701.673 720.994 702.051 720.6 702.329 720.088C702.607 719.566 702.746 718.96 702.746 718.271Z"
  ></path>
  <path
    style="fill: var(--color-illustrationInterface070)"
    d="M715.181 717.937C715.181 718.226 715.164 718.532 715.131 718.854H707.828C707.883 719.755 708.189 720.461 708.745 720.972C709.312 721.472 709.995 721.722 710.796 721.722C711.451 721.722 711.996 721.572 712.43 721.272C712.874 720.961 713.186 720.55 713.363 720.038H714.997C714.753 720.916 714.264 721.633 713.53 722.189C712.796 722.734 711.885 723.006 710.796 723.006C709.929 723.006 709.15 722.812 708.461 722.423C707.783 722.034 707.25 721.483 706.861 720.772C706.471 720.049 706.277 719.216 706.277 718.271C706.277 717.326 706.466 716.498 706.844 715.786C707.222 715.075 707.75 714.53 708.428 714.152C709.117 713.763 709.906 713.569 710.796 713.569C711.663 713.569 712.43 713.758 713.097 714.136C713.764 714.514 714.275 715.036 714.631 715.703C714.997 716.359 715.181 717.104 715.181 717.937ZM713.614 717.62C713.614 717.042 713.486 716.548 713.23 716.137C712.974 715.714 712.624 715.397 712.18 715.186C711.746 714.964 711.262 714.853 710.729 714.853C709.962 714.853 709.306 715.097 708.761 715.586C708.228 716.075 707.922 716.753 707.844 717.62H713.614Z"
  ></path>
  <path
    style="fill: var(--color-illustrationInterface070)"
    d="M464.965 593.434C466.426 593.434 467.703 593.717 468.796 594.283C469.902 594.836 470.751 595.639 471.344 596.692C471.95 597.733 472.252 598.95 472.252 600.346C472.252 601.742 471.95 602.953 471.344 603.98C470.751 605.007 469.902 605.797 468.796 606.35C467.703 606.89 466.426 607.16 464.965 607.16H460.481V593.434H464.965ZM464.965 605.323C466.571 605.323 467.802 604.889 468.658 604.02C469.514 603.151 469.942 601.926 469.942 600.346C469.942 598.753 469.514 597.509 468.658 596.613C467.802 595.718 466.571 595.27 464.965 595.27H462.733V605.323H464.965Z"
  ></path>
  <path
    style="fill: var(--color-illustrationInterface070)"
    d="M473.733 601.669C473.733 600.577 473.957 599.609 474.405 598.766C474.866 597.923 475.485 597.272 476.261 596.811C477.051 596.337 477.92 596.1 478.868 596.1C479.724 596.1 480.468 596.271 481.1 596.613C481.745 596.943 482.259 597.357 482.641 597.858V596.278H484.912V607.16H482.641V605.54C482.259 606.054 481.739 606.482 481.08 606.824C480.422 607.166 479.672 607.338 478.829 607.338C477.894 607.338 477.038 607.101 476.261 606.627C475.485 606.139 474.866 605.468 474.405 604.612C473.957 603.743 473.733 602.762 473.733 601.669ZM482.641 601.709C482.641 600.958 482.483 600.307 482.167 599.754C481.864 599.201 481.462 598.779 480.962 598.49C480.462 598.2 479.922 598.055 479.342 598.055C478.763 598.055 478.223 598.2 477.723 598.49C477.223 598.766 476.814 599.181 476.498 599.734C476.196 600.274 476.044 600.919 476.044 601.669C476.044 602.42 476.196 603.078 476.498 603.644C476.814 604.211 477.223 604.645 477.723 604.948C478.236 605.238 478.776 605.382 479.342 605.382C479.922 605.382 480.462 605.238 480.962 604.948C481.462 604.658 481.864 604.237 482.167 603.684C482.483 603.118 482.641 602.459 482.641 601.709Z"
  ></path>
  <path
    style="fill: var(--color-illustrationInterface070)"
    d="M497.665 596.278L490.99 612.275H488.659L490.871 606.982L486.585 596.278H489.094L492.155 604.573L495.335 596.278H497.665Z"
  ></path>
  <path
    style="fill: var(--color-illustrationBorder020)"
    d="M488.166 653.025C490.015 653.025 491.613 653.374 492.959 654.072C494.321 654.753 495.359 655.734 496.073 657.015C496.803 658.297 497.168 659.805 497.168 661.541C497.168 663.276 496.803 664.785 496.073 666.066C495.359 667.331 494.321 668.304 492.959 668.986C491.613 669.651 490.015 669.983 488.166 669.983H482.886V653.025H488.166ZM488.166 668.159C490.355 668.159 492.026 667.583 493.178 666.431C494.329 665.263 494.905 663.633 494.905 661.541C494.905 659.432 494.321 657.786 493.153 656.602C492.002 655.418 490.339 654.826 488.166 654.826H485.1V668.159H488.166Z"
  ></path>
  <path
    style="fill: var(--color-illustrationBorder020)"
    d="M505.368 653.025C507.217 653.025 508.814 653.374 510.161 654.072C511.523 654.753 512.561 655.734 513.275 657.015C514.005 658.297 514.37 659.805 514.37 661.541C514.37 663.276 514.005 664.785 513.275 666.066C512.561 667.331 511.523 668.304 510.161 668.986C508.814 669.651 507.217 669.983 505.368 669.983H500.088V653.025H505.368ZM505.368 668.159C507.557 668.159 509.228 667.583 510.38 666.431C511.531 665.263 512.107 663.633 512.107 661.541C512.107 659.432 511.523 657.786 510.355 656.602C509.204 655.418 507.541 654.826 505.368 654.826H502.302V668.159H505.368Z"
  ></path>
  <path
    style="fill: var(--color-illustrationBorder020)"
    d="M603.199 653.146V669.983H600.985V657.429L595.389 669.983H593.832L588.212 657.404V669.983H585.998V653.146H588.382L594.611 667.063L600.839 653.146H603.199Z"
  ></path>
  <path
    style="fill: var(--color-illustrationBorder020)"
    d="M624.155 653.146V669.983H621.941V657.429L616.345 669.983H614.788L609.168 657.404V669.983H606.954V653.146H609.338L615.567 667.063L621.795 653.146H624.155Z"
  ></path>
  <path
    style="fill: var(--color-illustrationBorder020)"
    d="M700.983 653.025L695.46 663.585V669.983H693.246V663.585L687.699 653.025H690.156L694.341 661.614L698.525 653.025H700.983Z"
  ></path>
  <path
    style="fill: var(--color-illustrationBorder020)"
    d="M715.191 653.025L709.668 663.585V669.983H707.454V663.585L701.907 653.025H704.364L708.549 661.614L712.734 653.025H715.191Z"
  ></path>
  <path
    style="fill: var(--color-illustrationBorder020)"
    d="M729.399 653.025L723.876 663.585V669.983H721.662V663.585L716.115 653.025H718.572L722.757 661.614L726.942 653.025H729.399Z"
  ></path>
  <path
    style="fill: var(--color-illustrationBorder020)"
    d="M743.607 653.025L738.085 663.585V669.983H735.871V663.585L730.323 653.025H732.781L736.965 661.614L741.15 653.025H743.607Z"
  ></path>
  <path
    style="fill: var(--color-illustrationInterface070)"
    d="M578.938 593.434V607.16H576.687V597.759L572.5 607.16H570.94L566.733 597.759V607.16H564.481V593.434H566.911L571.73 604.197L576.529 593.434H578.938Z"
  ></path>
  <path
    style="fill: var(--color-illustrationInterface070)"
    d="M586.618 607.338C585.591 607.338 584.663 607.107 583.833 606.646C583.004 606.172 582.352 605.514 581.878 604.671C581.404 603.816 581.167 602.828 581.167 601.709C581.167 600.603 581.411 599.622 581.898 598.766C582.385 597.91 583.05 597.252 583.892 596.791C584.735 596.33 585.677 596.1 586.717 596.1C587.757 596.1 588.698 596.33 589.541 596.791C590.384 597.252 591.049 597.91 591.536 598.766C592.023 599.622 592.266 600.603 592.266 601.709C592.266 602.815 592.016 603.796 591.516 604.652C591.016 605.508 590.331 606.172 589.462 606.646C588.606 607.107 587.658 607.338 586.618 607.338ZM586.618 605.382C587.197 605.382 587.737 605.244 588.237 604.968C588.751 604.691 589.166 604.276 589.482 603.723C589.798 603.17 589.956 602.499 589.956 601.709C589.956 600.919 589.804 600.254 589.501 599.714C589.199 599.161 588.797 598.746 588.297 598.47C587.796 598.193 587.257 598.055 586.677 598.055C586.098 598.055 585.558 598.193 585.058 598.47C584.571 598.746 584.182 599.161 583.892 599.714C583.603 600.254 583.458 600.919 583.458 601.709C583.458 602.881 583.754 603.789 584.347 604.434C584.952 605.066 585.709 605.382 586.618 605.382Z"
  ></path>
  <path
    style="fill: var(--color-illustrationInterface070)"
    d="M599.983 596.1C600.839 596.1 601.602 596.278 602.274 596.633C602.958 596.989 603.492 597.515 603.873 598.213C604.255 598.911 604.446 599.754 604.446 600.741V607.16H602.214V601.077C602.214 600.103 601.971 599.359 601.484 598.845C600.997 598.319 600.332 598.055 599.489 598.055C598.646 598.055 597.975 598.319 597.474 598.845C596.987 599.359 596.744 600.103 596.744 601.077V607.16H594.492V596.278H596.744V597.522C597.112 597.074 597.58 596.725 598.146 596.475C598.725 596.225 599.338 596.1 599.983 596.1Z"
  ></path>
  <path
    style="fill: var(--color-illustrationInterface070)"
    d="M609.945 598.114V604.138C609.945 604.546 610.037 604.843 610.221 605.027C610.419 605.198 610.748 605.284 611.209 605.284H612.591V607.16H610.814C609.8 607.16 609.023 606.923 608.483 606.449C607.944 605.975 607.674 605.205 607.674 604.138V598.114H606.39V596.278H607.674V593.572H609.945V596.278H612.591V598.114H609.945Z"
  ></path>
  <path
    style="fill: var(--color-illustrationInterface070)"
    d="M620.295 596.1C621.125 596.1 621.862 596.278 622.507 596.633C623.166 596.989 623.679 597.515 624.048 598.213C624.43 598.911 624.621 599.754 624.621 600.741V607.16H622.389V601.077C622.389 600.103 622.145 599.359 621.658 598.845C621.171 598.319 620.506 598.055 619.663 598.055C618.821 598.055 618.149 598.319 617.649 598.845C617.162 599.359 616.918 600.103 616.918 601.077V607.16H614.667V592.545H616.918V597.542C617.3 597.081 617.78 596.725 618.36 596.475C618.952 596.225 619.597 596.1 620.295 596.1Z"
  ></path>
  <path
    style="fill: var(--color-illustrationInterface070)"
    d="M677.653 594.273L673.11 603.023V608H670.859V603.023L666.296 594.273H668.805L671.984 601.008L675.164 594.273H677.653Z"
  ></path>
  <path
    style="fill: var(--color-illustrationInterface070)"
    d="M689.413 602.292C689.413 602.7 689.387 603.069 689.334 603.398H681.019C681.085 604.267 681.408 604.965 681.987 605.491C682.566 606.018 683.277 606.281 684.12 606.281C685.331 606.281 686.187 605.775 686.688 604.761H689.117C688.788 605.761 688.189 606.584 687.32 607.229C686.464 607.861 685.397 608.177 684.12 608.177C683.08 608.177 682.145 607.947 681.316 607.486C680.499 607.012 679.854 606.354 679.38 605.511C678.919 604.655 678.689 603.668 678.689 602.549C678.689 601.43 678.913 600.449 679.36 599.606C679.821 598.75 680.46 598.092 681.276 597.631C682.106 597.17 683.054 596.94 684.12 596.94C685.147 596.94 686.062 597.164 686.865 597.611C687.669 598.059 688.294 598.691 688.742 599.507C689.189 600.31 689.413 601.239 689.413 602.292ZM687.063 601.581C687.05 600.751 686.753 600.087 686.174 599.586C685.595 599.086 684.877 598.836 684.021 598.836C683.245 598.836 682.58 599.086 682.027 599.586C681.474 600.073 681.144 600.738 681.039 601.581H687.063Z"
  ></path>
  <path
    style="fill: var(--color-illustrationInterface070)"
    d="M690.878 602.509C690.878 601.416 691.102 600.449 691.55 599.606C692.011 598.763 692.63 598.112 693.406 597.651C694.196 597.177 695.065 596.94 696.013 596.94C696.869 596.94 697.613 597.111 698.245 597.453C698.89 597.782 699.404 598.197 699.786 598.697V597.117H702.057V608H699.786V606.38C699.404 606.894 698.884 607.322 698.225 607.664C697.567 608.006 696.817 608.177 695.974 608.177C695.039 608.177 694.183 607.94 693.406 607.466C692.63 606.979 692.011 606.308 691.55 605.452C691.102 604.583 690.878 603.602 690.878 602.509ZM699.786 602.549C699.786 601.798 699.628 601.146 699.312 600.593C699.009 600.04 698.607 599.619 698.107 599.329C697.607 599.04 697.067 598.895 696.487 598.895C695.908 598.895 695.368 599.04 694.868 599.329C694.368 599.606 693.959 600.021 693.643 600.574C693.341 601.114 693.189 601.759 693.189 602.509C693.189 603.26 693.341 603.918 693.643 604.484C693.959 605.05 694.368 605.485 694.868 605.788C695.381 606.077 695.921 606.222 696.487 606.222C697.067 606.222 697.607 606.077 698.107 605.788C698.607 605.498 699.009 605.077 699.312 604.524C699.628 603.958 699.786 603.299 699.786 602.549Z"
  ></path>
  <path
    style="fill: var(--color-illustrationInterface070)"
    d="M707.266 598.697C707.595 598.144 708.029 597.717 708.569 597.414C709.122 597.098 709.774 596.94 710.524 596.94V599.27H709.952C709.069 599.27 708.398 599.494 707.937 599.942C707.489 600.389 707.266 601.166 707.266 602.272V608H705.014V597.117H707.266V598.697Z"
  ></path>
  <path
    style="fill: var(--color-inkInformative)"
    fill-rule="evenodd"
    clip-rule="evenodd"
    d="M971 147.319C971 139.415 977.415 133 985.319 133C993.223 133 999.638 139.415 999.638 147.319C999.638 155.223 993.223 161.638 985.319 161.638C977.415 161.638 971 155.223 971 147.319ZM975.296 147.319L982.455 154.478L995.342 141.591L993.323 139.558L982.455 150.426L977.315 145.3L975.296 147.319Z"
  ></path>
</svg>
