<svg id="nksvg" width="1490" height="838" viewBox="0 0 1490 838" fill="none" xmlns="http://www.w3.org/2000/svg">
<g clip-path="url(#clip0_3097_169266)">
<path d="M0 0H1490V838H0V0Z" fill="var(--color-illustrationBackground010)"/>
<rect x="557" y="252" width="803" height="751" rx="15" fill="var(--color-illustrationInterface010)" stroke="#AEBFFF" stroke-width="10"/>
<rect x="131" y="387" width="294" height="751" rx="15" fill="var(--color-illustrationInterface010)" stroke="#AEBFFF" stroke-width="10"/>
<line x1="154" y1="536.5" x2="402" y2="536.5" stroke="#8BA6F6"/>
<line x1="606" y1="430.5" x2="1311" y2="430.5" stroke="#8BA6F6"/>
<path d="M172.9 486.15V507H169.48V497.88H159.67V507H156.25V486.15H159.67V495.09H169.48V486.15H172.9ZM192.552 498.33C192.552 498.95 192.512 499.51 192.432 500.01H179.802C179.902 501.33 180.392 502.39 181.272 503.19C182.152 503.99 183.232 504.39 184.512 504.39C186.352 504.39 187.652 503.62 188.412 502.08H192.102C191.602 503.6 190.692 504.85 189.372 505.83C188.072 506.79 186.452 507.27 184.512 507.27C182.932 507.27 181.512 506.92 180.252 506.22C179.012 505.5 178.032 504.5 177.312 503.22C176.612 501.92 176.262 500.42 176.262 498.72C176.262 497.02 176.602 495.53 177.282 494.25C177.982 492.95 178.952 491.95 180.192 491.25C181.452 490.55 182.892 490.2 184.512 490.2C186.072 490.2 187.462 490.54 188.682 491.22C189.902 491.9 190.852 492.86 191.532 494.1C192.212 495.32 192.552 496.73 192.552 498.33ZM188.982 497.25C188.962 495.99 188.512 494.98 187.632 494.22C186.752 493.46 185.662 493.08 184.362 493.08C183.182 493.08 182.172 493.46 181.332 494.22C180.492 494.96 179.992 495.97 179.832 497.25H188.982ZM194.778 498.66C194.778 497 195.118 495.53 195.798 494.25C196.498 492.97 197.438 491.98 198.618 491.28C199.818 490.56 201.138 490.2 202.578 490.2C203.878 490.2 205.008 490.46 205.968 490.98C206.948 491.48 207.728 492.11 208.308 492.87V490.47H211.758V507H208.308V504.54C207.728 505.32 206.938 505.97 205.938 506.49C204.938 507.01 203.798 507.27 202.518 507.27C201.098 507.27 199.798 506.91 198.618 506.19C197.438 505.45 196.498 504.43 195.798 503.13C195.118 501.81 194.778 500.32 194.778 498.66ZM208.308 498.72C208.308 497.58 208.068 496.59 207.588 495.75C207.128 494.91 206.518 494.27 205.758 493.83C204.998 493.39 204.178 493.17 203.298 493.17C202.418 493.17 201.598 493.39 200.838 493.83C200.078 494.25 199.458 494.88 198.978 495.72C198.518 496.54 198.288 497.52 198.288 498.66C198.288 499.8 198.518 500.8 198.978 501.66C199.458 502.52 200.078 503.18 200.838 503.64C201.618 504.08 202.438 504.3 203.298 504.3C204.178 504.3 204.998 504.08 205.758 503.64C206.518 503.2 207.128 502.56 207.588 501.72C208.068 500.86 208.308 499.86 208.308 498.72ZM215.11 498.66C215.11 497 215.45 495.53 216.13 494.25C216.83 492.97 217.77 491.98 218.95 491.28C220.15 490.56 221.48 490.2 222.94 490.2C224.02 490.2 225.08 490.44 226.12 490.92C227.18 491.38 228.02 492 228.64 492.78V484.8H232.09V507H228.64V504.51C228.08 505.31 227.3 505.97 226.3 506.49C225.32 507.01 224.19 507.27 222.91 507.27C221.47 507.27 220.15 506.91 218.95 506.19C217.77 505.45 216.83 504.43 216.13 503.13C215.45 501.81 215.11 500.32 215.11 498.66ZM228.64 498.72C228.64 497.58 228.4 496.59 227.92 495.75C227.46 494.91 226.85 494.27 226.09 493.83C225.33 493.39 224.51 493.17 223.63 493.17C222.75 493.17 221.93 493.39 221.17 493.83C220.41 494.25 219.79 494.88 219.31 495.72C218.85 496.54 218.62 497.52 218.62 498.66C218.62 499.8 218.85 500.8 219.31 501.66C219.79 502.52 220.41 503.18 221.17 503.64C221.95 504.08 222.77 504.3 223.63 504.3C224.51 504.3 225.33 504.08 226.09 503.64C226.85 503.2 227.46 502.56 227.92 501.72C228.4 500.86 228.64 499.86 228.64 498.72ZM238.322 488.28C237.702 488.28 237.182 488.07 236.762 487.65C236.342 487.23 236.132 486.71 236.132 486.09C236.132 485.47 236.342 484.95 236.762 484.53C237.182 484.11 237.702 483.9 238.322 483.9C238.922 483.9 239.432 484.11 239.852 484.53C240.272 484.95 240.482 485.47 240.482 486.09C240.482 486.71 240.272 487.23 239.852 487.65C239.432 488.07 238.922 488.28 238.322 488.28ZM240.002 490.47V507H236.582V490.47H240.002ZM252.832 490.2C254.132 490.2 255.292 490.47 256.312 491.01C257.352 491.55 258.162 492.35 258.742 493.41C259.322 494.47 259.612 495.75 259.612 497.25V507H256.222V497.76C256.222 496.28 255.852 495.15 255.112 494.37C254.372 493.57 253.362 493.17 252.082 493.17C250.802 493.17 249.782 493.57 249.022 494.37C248.282 495.15 247.912 496.28 247.912 497.76V507H244.492V490.47H247.912V492.36C248.472 491.68 249.182 491.15 250.042 490.77C250.922 490.39 251.852 490.2 252.832 490.2ZM270.635 490.2C271.915 490.2 273.045 490.46 274.025 490.98C275.025 491.48 275.805 492.11 276.365 492.87V490.47H279.815V507.27C279.815 508.79 279.495 510.14 278.855 511.32C278.215 512.52 277.285 513.46 276.065 514.14C274.865 514.82 273.425 515.16 271.745 515.16C269.505 515.16 267.645 514.63 266.165 513.57C264.685 512.53 263.845 511.11 263.645 509.31H267.035C267.295 510.17 267.845 510.86 268.685 511.38C269.545 511.92 270.565 512.19 271.745 512.19C273.125 512.19 274.235 511.77 275.075 510.93C275.935 510.09 276.365 508.87 276.365 507.27V504.51C275.785 505.29 274.995 505.95 273.995 506.49C273.015 507.01 271.895 507.27 270.635 507.27C269.195 507.27 267.875 506.91 266.675 506.19C265.495 505.45 264.555 504.43 263.855 503.13C263.175 501.81 262.835 500.32 262.835 498.66C262.835 497 263.175 495.53 263.855 494.25C264.555 492.97 265.495 491.98 266.675 491.28C267.875 490.56 269.195 490.2 270.635 490.2ZM276.365 498.72C276.365 497.58 276.125 496.59 275.645 495.75C275.185 494.91 274.575 494.27 273.815 493.83C273.055 493.39 272.235 493.17 271.355 493.17C270.475 493.17 269.655 493.39 268.895 493.83C268.135 494.25 267.515 494.88 267.035 495.72C266.575 496.54 266.345 497.52 266.345 498.66C266.345 499.8 266.575 500.8 267.035 501.66C267.515 502.52 268.135 503.18 268.895 503.64C269.675 504.08 270.495 504.3 271.355 504.3C272.235 504.3 273.055 504.08 273.815 503.64C274.575 503.2 275.185 502.56 275.645 501.72C276.125 500.86 276.365 499.86 276.365 498.72Z" fill="var(--color-illustrationPalette030)"/>
<path d="M272.365 291.59L278.845 302H275.005L270.295 294.44L265.885 302H262.075L268.555 291.59L262.045 281.15H265.885L270.625 288.77L275.065 281.15H278.875L272.365 291.59Z" fill="var(--color-illustrationPalette030)"/>
<path d="M289.47 302.21C288.07 302.21 286.81 301.97 285.69 301.49C284.57 300.99 283.69 300.29 283.05 299.39C282.41 298.49 282.09 297.44 282.09 296.24H285.75C285.83 297.14 286.18 297.88 286.8 298.46C287.44 299.04 288.33 299.33 289.47 299.33C290.65 299.33 291.57 299.05 292.23 298.49C292.89 297.91 293.22 297.17 293.22 296.27C293.22 295.57 293.01 295 292.59 294.56C292.19 294.12 291.68 293.78 291.06 293.54C290.46 293.3 289.62 293.04 288.54 292.76C287.18 292.4 286.07 292.04 285.21 291.68C284.37 291.3 283.65 290.72 283.05 289.94C282.45 289.16 282.15 288.12 282.15 286.82C282.15 285.62 282.45 284.57 283.05 283.67C283.65 282.77 284.49 282.08 285.57 281.6C286.65 281.12 287.9 280.88 289.32 280.88C291.34 280.88 292.99 281.39 294.27 282.41C295.57 283.41 296.29 284.79 296.43 286.55H292.65C292.59 285.79 292.23 285.14 291.57 284.6C290.91 284.06 290.04 283.79 288.96 283.79C287.98 283.79 287.18 284.04 286.56 284.54C285.94 285.04 285.63 285.76 285.63 286.7C285.63 287.34 285.82 287.87 286.2 288.29C286.6 288.69 287.1 289.01 287.7 289.25C288.3 289.49 289.12 289.75 290.16 290.03C291.54 290.41 292.66 290.79 293.52 291.17C294.4 291.55 295.14 292.14 295.74 292.94C296.36 293.72 296.67 294.77 296.67 296.09C296.67 297.15 296.38 298.15 295.8 299.09C295.24 300.03 294.41 300.79 293.31 301.37C292.23 301.93 290.95 302.21 289.47 302.21Z" fill="var(--color-illustrationPalette030)"/>
<path d="M932.096 163.21C930.696 163.21 929.436 162.97 928.316 162.49C927.196 161.99 926.316 161.29 925.676 160.39C925.036 159.49 924.716 158.44 924.716 157.24H928.376C928.456 158.14 928.806 158.88 929.426 159.46C930.066 160.04 930.956 160.33 932.096 160.33C933.276 160.33 934.196 160.05 934.856 159.49C935.516 158.91 935.846 158.17 935.846 157.27C935.846 156.57 935.636 156 935.216 155.56C934.816 155.12 934.306 154.78 933.686 154.54C933.086 154.3 932.246 154.04 931.166 153.76C929.806 153.4 928.696 153.04 927.836 152.68C926.996 152.3 926.276 151.72 925.676 150.94C925.076 150.16 924.776 149.12 924.776 147.82C924.776 146.62 925.076 145.57 925.676 144.67C926.276 143.77 927.116 143.08 928.196 142.6C929.276 142.12 930.526 141.88 931.946 141.88C933.966 141.88 935.616 142.39 936.896 143.41C938.196 144.41 938.916 145.79 939.056 147.55H935.276C935.216 146.79 934.856 146.14 934.196 145.6C933.536 145.06 932.666 144.79 931.586 144.79C930.606 144.79 929.806 145.04 929.186 145.54C928.566 146.04 928.256 146.76 928.256 147.7C928.256 148.34 928.446 148.87 928.826 149.29C929.226 149.69 929.726 150.01 930.326 150.25C930.926 150.49 931.746 150.75 932.786 151.03C934.166 151.41 935.286 151.79 936.146 152.17C937.026 152.55 937.766 153.14 938.366 153.94C938.986 154.72 939.296 155.77 939.296 157.09C939.296 158.15 939.006 159.15 938.426 160.09C937.866 161.03 937.036 161.79 935.936 162.37C934.856 162.93 933.576 163.21 932.096 163.21Z" fill="var(--color-illustrationPalette030)"/>
<path d="M965.291 142.15V163H961.871V148.72L955.511 163H953.141L946.751 148.72V163H943.331V142.15H947.021L954.341 158.5L961.631 142.15H965.291Z" fill="var(--color-illustrationPalette030)"/>
<path d="M978.689 145.36H983.009L989.909 152.17L983.009 158.98H978.689L985.619 152.17L978.689 145.36Z" fill="var(--color-illustrationPalette030)"/>
<path d="M631.2 369.2V397H626.64V384.84H613.56V397H609V369.2H613.56V381.12H626.64V369.2H631.2Z" fill="var(--color-illustrationPalette030)"/>
<path d="M657.403 385.44C657.403 386.267 657.35 387.014 657.243 387.68H640.403C640.536 389.44 641.19 390.854 642.363 391.92C643.536 392.987 644.976 393.52 646.683 393.52C649.136 393.52 650.87 392.494 651.883 390.44H656.803C656.136 392.467 654.923 394.134 653.163 395.44C651.43 396.72 649.27 397.36 646.683 397.36C644.576 397.36 642.683 396.894 641.003 395.96C639.35 395 638.043 393.667 637.083 391.96C636.15 390.227 635.683 388.227 635.683 385.96C635.683 383.694 636.136 381.707 637.043 380C637.976 378.267 639.27 376.934 640.923 376C642.603 375.067 644.523 374.6 646.683 374.6C648.763 374.6 650.616 375.054 652.243 375.96C653.87 376.867 655.136 378.147 656.043 379.8C656.95 381.427 657.403 383.307 657.403 385.44ZM652.643 384C652.616 382.32 652.016 380.974 650.843 379.96C649.67 378.947 648.216 378.44 646.483 378.44C644.91 378.44 643.563 378.947 642.443 379.96C641.323 380.947 640.656 382.294 640.443 384H652.643Z" fill="var(--color-illustrationPalette030)"/>
<path d="M660.371 385.88C660.371 383.667 660.824 381.707 661.731 380C662.664 378.294 663.917 376.974 665.491 376.04C667.091 375.08 668.851 374.6 670.771 374.6C672.504 374.6 674.011 374.947 675.291 375.64C676.597 376.307 677.637 377.147 678.411 378.16V374.96H683.011V397H678.411V393.72C677.637 394.76 676.584 395.627 675.251 396.32C673.917 397.014 672.397 397.36 670.691 397.36C668.797 397.36 667.064 396.88 665.491 395.92C663.917 394.934 662.664 393.574 661.731 391.84C660.824 390.08 660.371 388.094 660.371 385.88ZM678.411 385.96C678.411 384.44 678.091 383.12 677.451 382C676.837 380.88 676.024 380.027 675.011 379.44C673.997 378.854 672.904 378.56 671.731 378.56C670.557 378.56 669.464 378.854 668.451 379.44C667.437 380 666.611 380.84 665.971 381.96C665.357 383.054 665.051 384.36 665.051 385.88C665.051 387.4 665.357 388.734 665.971 389.88C666.611 391.027 667.437 391.907 668.451 392.52C669.491 393.107 670.584 393.4 671.731 393.4C672.904 393.4 673.997 393.107 675.011 392.52C676.024 391.934 676.837 391.08 677.451 389.96C678.091 388.814 678.411 387.48 678.411 385.96Z" fill="var(--color-illustrationPalette030)"/>
<path d="M687.48 385.88C687.48 383.667 687.933 381.707 688.84 380C689.773 378.294 691.027 376.974 692.6 376.04C694.2 375.08 695.973 374.6 697.92 374.6C699.36 374.6 700.773 374.92 702.16 375.56C703.573 376.174 704.693 377 705.52 378.04V367.4H710.12V397H705.52V393.68C704.773 394.747 703.733 395.627 702.4 396.32C701.093 397.014 699.587 397.36 697.88 397.36C695.96 397.36 694.2 396.88 692.6 395.92C691.027 394.934 689.773 393.574 688.84 391.84C687.933 390.08 687.48 388.094 687.48 385.88ZM705.52 385.96C705.52 384.44 705.2 383.12 704.56 382C703.947 380.88 703.133 380.027 702.12 379.44C701.107 378.854 700.013 378.56 698.84 378.56C697.667 378.56 696.573 378.854 695.56 379.44C694.547 380 693.72 380.84 693.08 381.96C692.467 383.054 692.16 384.36 692.16 385.88C692.16 387.4 692.467 388.734 693.08 389.88C693.72 391.027 694.547 391.907 695.56 392.52C696.6 393.107 697.693 393.4 698.84 393.4C700.013 393.4 701.107 393.107 702.12 392.52C703.133 391.934 703.947 391.08 704.56 389.96C705.2 388.814 705.52 387.48 705.52 385.96Z" fill="var(--color-illustrationPalette030)"/>
<path d="M718.429 372.04C717.603 372.04 716.909 371.76 716.349 371.2C715.789 370.64 715.509 369.947 715.509 369.12C715.509 368.294 715.789 367.6 716.349 367.04C716.909 366.48 717.603 366.2 718.429 366.2C719.229 366.2 719.909 366.48 720.469 367.04C721.029 367.6 721.309 368.294 721.309 369.12C721.309 369.947 721.029 370.64 720.469 371.2C719.909 371.76 719.229 372.04 718.429 372.04ZM720.669 374.96V397H716.109V374.96H720.669Z" fill="var(--color-illustrationPalette030)"/>
<path d="M737.776 374.6C739.51 374.6 741.056 374.96 742.416 375.68C743.803 376.4 744.883 377.467 745.656 378.88C746.43 380.294 746.816 382 746.816 384V397H742.296V384.68C742.296 382.707 741.803 381.2 740.816 380.16C739.83 379.094 738.483 378.56 736.776 378.56C735.07 378.56 733.71 379.094 732.696 380.16C731.71 381.2 731.216 382.707 731.216 384.68V397H726.656V374.96H731.216V377.48C731.963 376.574 732.91 375.867 734.056 375.36C735.23 374.854 736.47 374.6 737.776 374.6Z" fill="var(--color-illustrationPalette030)"/>
<path d="M761.513 374.6C763.219 374.6 764.726 374.947 766.033 375.64C767.366 376.307 768.406 377.147 769.153 378.16V374.96H773.753V397.36C773.753 399.387 773.326 401.187 772.473 402.76C771.619 404.36 770.379 405.614 768.753 406.52C767.153 407.427 765.233 407.88 762.993 407.88C760.006 407.88 757.526 407.174 755.553 405.76C753.579 404.374 752.459 402.48 752.193 400.08H756.713C757.059 401.227 757.793 402.147 758.913 402.84C760.059 403.56 761.419 403.92 762.993 403.92C764.833 403.92 766.313 403.36 767.433 402.24C768.579 401.12 769.153 399.494 769.153 397.36V393.68C768.379 394.72 767.326 395.6 765.993 396.32C764.686 397.014 763.193 397.36 761.513 397.36C759.593 397.36 757.833 396.88 756.233 395.92C754.659 394.934 753.406 393.574 752.473 391.84C751.566 390.08 751.113 388.094 751.113 385.88C751.113 383.667 751.566 381.707 752.473 380C753.406 378.294 754.659 376.974 756.233 376.04C757.833 375.08 759.593 374.6 761.513 374.6ZM769.153 385.96C769.153 384.44 768.833 383.12 768.193 382C767.579 380.88 766.766 380.027 765.753 379.44C764.739 378.854 763.646 378.56 762.473 378.56C761.299 378.56 760.206 378.854 759.193 379.44C758.179 380 757.353 380.84 756.713 381.96C756.099 383.054 755.793 384.36 755.793 385.88C755.793 387.4 756.099 388.734 756.713 389.88C757.353 391.027 758.179 391.907 759.193 392.52C760.233 393.107 761.326 393.4 762.473 393.4C763.646 393.4 764.739 393.107 765.753 392.52C766.766 391.934 767.579 391.08 768.193 389.96C768.833 388.814 769.153 387.48 769.153 385.96Z" fill="var(--color-illustrationPalette030)"/>
<path d="M1207.67 391.24H1214.72V394H1204.25V373.15H1207.67V391.24Z" fill="var(--color-illustrationHighlight010)"/>
<path d="M1219.32 375.28C1218.7 375.28 1218.18 375.07 1217.76 374.65C1217.34 374.23 1217.13 373.71 1217.13 373.09C1217.13 372.47 1217.34 371.95 1217.76 371.53C1218.18 371.11 1218.7 370.9 1219.32 370.9C1219.92 370.9 1220.43 371.11 1220.85 371.53C1221.27 371.95 1221.48 372.47 1221.48 373.09C1221.48 373.71 1221.27 374.23 1220.85 374.65C1220.43 375.07 1219.92 375.28 1219.32 375.28ZM1221 377.47V394H1217.58V377.47H1221Z" fill="var(--color-illustrationHighlight010)"/>
<path d="M1233.83 377.2C1235.13 377.2 1236.29 377.47 1237.31 378.01C1238.35 378.55 1239.16 379.35 1239.74 380.41C1240.32 381.47 1240.61 382.75 1240.61 384.25V394H1237.22V384.76C1237.22 383.28 1236.85 382.15 1236.11 381.37C1235.37 380.57 1234.36 380.17 1233.08 380.17C1231.8 380.17 1230.78 380.57 1230.02 381.37C1229.28 382.15 1228.91 383.28 1228.91 384.76V394H1225.49V377.47H1228.91V379.36C1229.47 378.68 1230.18 378.15 1231.04 377.77C1231.92 377.39 1232.85 377.2 1233.83 377.2Z" fill="var(--color-illustrationHighlight010)"/>
<path d="M1251.51 385.75L1259.13 394H1254.51L1248.39 386.89V394H1244.97V371.8H1248.39V384.7L1254.39 377.47H1259.13L1251.51 385.75Z" fill="var(--color-illustrationHighlight010)"/>
<path d="M1281 389.885L1287.18 383L1281 376.115L1282.9 374L1291 383L1282.9 392L1281 389.885Z" fill="var(--color-illustrationHighlight010)"/>
<rect opacity="0.2" x="154" y="578" width="248" height="84" rx="20" fill="var(--color-illustrationPalette020)"/>
<rect opacity="0.2" x="606" y="478" width="705" height="112" rx="20" fill="var(--color-illustrationPalette020)"/>
<rect opacity="0.2" x="154" y="680" width="248" height="201" rx="20" fill="var(--color-illustrationPalette020)"/>
<rect opacity="0.2" x="606" y="614" width="705" height="267" rx="20" fill="var(--color-illustrationPalette020)"/>
<path d="M562 219.811L562 179.065L566 179.065L566 219.811L562 219.811Z" fill="var(--color-illustrationHighlight010)"/>
<path d="M1349.79 219.745L1349.79 179L1353.79 179L1353.79 219.745L1349.79 219.745Z" fill="var(--color-illustrationHighlight010)"/>
<path d="M563.01 200.534L563.01 196.534L1349.79 196.534L1349.79 200.534L563.01 200.534Z" fill="var(--color-illustrationHighlight010)"/>
<path d="M130 357.811L130 317.065L134 317.065L134 357.811L130 357.811Z" fill="var(--color-illustrationHighlight010)"/>
<path d="M422.79 357.745L422.79 317L426.79 317L426.79 357.745L422.79 357.745Z" fill="var(--color-illustrationHighlight010)"/>
<path d="M132 339L132 335L423 335L423 339L132 339Z" fill="var(--color-illustrationHighlight010)"/>
</g>
<defs>
<clipPath id="clip0_3097_169266">
<rect width="1490" height="838" fill="white"/>
</clipPath>
</defs>
</svg>
