<svg id="components-modal-do02" style="width: 100%; height: 100%" width="1492" height="838" viewBox="0 0 1492 838" fill="none" xmlns="http://www.w3.org/2000/svg" class="css-0"><rect style="fill:var(--color-illustrationBackground020)" width="1490" height="838"></rect><path style="fill:var(--color-illustrationInterface010)" d="M270 143.716C270 134.399 277.553 126.846 286.87 126.846H1207.35C1216.67 126.846 1224.22 134.399 1224.22 143.716V695.159C1224.22 704.476 1216.67 712.029 1207.35 712.029H286.87C277.553 712.029 270 704.476 270 695.159V143.716Z"></path><path style="fill:var(--color-illustrationHighlight010)" d="M269 142.5C269 131 278.672 126 283 126H1209.5C1219.5 126 1225 135.582 1225 140V183H269L269 142.5Z"></path><path style="fill:var(--color-illustrationInterface010)" d="M816.525 154.22C816.525 152.06 818.276 150.31 820.436 150.31H880.075C882.235 150.31 883.986 152.06 883.986 154.22C883.986 156.38 882.235 158.131 880.075 158.131H820.436C818.276 158.131 816.525 156.38 816.525 154.22Z"></path><path style="fill:var(--color-illustrationInterface010)" d="M923.094 154.22C923.094 152.06 924.845 150.31 927.004 150.31H986.643C988.803 150.31 990.554 152.06 990.554 154.22C990.554 156.38 988.803 158.131 986.643 158.131H927.004C924.845 158.131 923.094 156.38 923.094 154.22Z"></path><path style="fill:var(--color-illustrationInterface010)" d="M1029.66 154.22C1029.66 152.06 1031.41 150.31 1033.57 150.31H1093.21C1095.37 150.31 1097.12 152.06 1097.12 154.22C1097.12 156.38 1095.37 158.131 1093.21 158.131H1033.57C1031.41 158.131 1029.66 156.38 1029.66 154.22Z"></path><path style="fill:var(--color-illustrationInterface010)" d="M1136.23 154.22C1136.23 152.06 1137.98 150.31 1140.14 150.31H1199.78C1201.94 150.31 1203.69 152.06 1203.69 154.22C1203.69 156.38 1201.94 158.131 1199.78 158.131H1140.14C1137.98 158.131 1136.23 156.38 1136.23 154.22Z"></path><path style="fill:var(--color-illustrationInterface030)" d="M337 486.646H756.584V500.091H337V486.646Z"></path><path style="fill:var(--color-illustrationInterface030)" d="M784.867 486.083H935.887V499.812H784.867V486.083Z"></path><path style="fill:var(--color-illustrationInterface030)" d="M964.593 486.083H1064.44V499.812H964.593V486.083Z"></path><path style="fill:var(--color-illustrationInterface030)" d="M453.073 447.354H872.657V460.799H453.073V447.354Z"></path><path style="fill:var(--color-illustrationInterface030)" d="M337 447.354H436.848V461.083H337V447.354Z"></path><path style="fill:var(--color-illustrationInterface030)" d="M1055.9 447.354H1155.75V461.083H1055.9V447.354Z"></path><path style="fill:var(--color-illustrationInterface030)" d="M888.659 447.354H1039.68V461.083H888.659V447.354Z"></path><path style="fill:var(--color-illustrationInterface030)" d="M409 369.846H488V383.846H409V369.846Z"></path><path style="fill:var(--color-illustrationInterface030)" d="M1004.73 369.896H1155.75V383.625H1004.73V369.896Z"></path><path style="fill:var(--color-illustrationInterface030)" d="M836.239 369.896H987.259V383.625H836.239V369.896Z"></path><path style="fill:var(--color-illustrationInterface030)" d="M505.493 369.896H818.766V383.625H505.493V369.896Z"></path><path style="fill:var(--color-illustrationInterface030)" d="M671.49 408.625H822.51V422.354H671.49V408.625Z"></path><path style="fill:var(--color-illustrationInterface030)" d="M337 408.625H650.272V422.354H337V408.625Z"></path><path style="fill:var(--color-illustrationInterface030)" d="M843.728 408.625H1157V422.354H843.728V408.625Z"></path><path style="fill:var(--color-illustrationInterface030)" d="M338.248 641.84H757.832V655.285H338.248V641.84Z"></path><path style="fill:var(--color-illustrationInterface030)" d="M786.315 641.277H937.335V655.006H786.315V641.277Z"></path><path style="fill:var(--color-illustrationInterface030)" d="M966.041 641.277H1065.89V655.006H966.041V641.277Z"></path><path style="fill:var(--color-illustrationInterface030)" d="M1040.93 602.549H621.342V615.994H1040.93V602.549Z"></path><path style="fill:var(--color-illustrationInterface030)" d="M1157 602.549H1057.15V616.278H1157V602.549Z"></path><path style="fill:var(--color-illustrationInterface030)" d="M438.096 602.549H338.248V616.278H438.096V602.549Z"></path><path style="fill:var(--color-illustrationInterface030)" d="M605.341 602.549H454.321V616.278H605.341V602.549Z"></path><path style="fill:var(--color-illustrationInterface030)" d="M1157 525.091H1005.98V538.82H1157V525.091Z"></path><path style="fill:var(--color-illustrationInterface030)" d="M489.268 525.091H338.248V538.82H489.268V525.091Z"></path><path style="fill:var(--color-illustrationInterface030)" d="M657.761 525.091H506.741V538.82H657.761V525.091Z"></path><path style="fill:var(--color-illustrationInterface030)" d="M988.507 525.091H675.234V538.82H988.507V525.091Z"></path><path style="fill:var(--color-illustrationInterface030)" d="M822.51 563.82H671.49V577.549H822.51V563.82Z"></path><path style="fill:var(--color-illustrationInterface030)" d="M1157 563.82H843.728V577.549H1157V563.82Z"></path><path style="fill:var(--color-illustrationInterface030)" d="M650.272 563.82H337V577.549H650.272V563.82Z"></path><path style="fill:var(--color-illustrationInterface030)" d="M337 252.738C337 245.065 342.819 238.846 349.996 238.846H1142.76C1149.93 238.846 1155.75 245.065 1155.75 252.738V304.832C1155.75 312.504 1149.93 318.724 1142.76 318.724H349.996C342.819 318.724 337 312.504 337 304.832V252.738Z"></path><path style="fill:var(--color-illustrationInterface050)" d="M359.961 378.471H348.688L346.719 384.846H337.93L350.445 350.721H358.18L370.789 384.846H361.953L359.961 378.471ZM350.656 372.119H357.992L354.312 360.283L350.656 372.119Z"></path><path style="fill:var(--color-illustrationInterface050)" d="M387.219 384.846C386.938 384.33 386.688 383.572 386.469 382.572C385.016 384.4 382.984 385.314 380.375 385.314C377.984 385.314 375.953 384.596 374.281 383.158C372.609 381.705 371.773 379.885 371.773 377.697C371.773 374.947 372.789 372.869 374.82 371.463C376.852 370.057 379.805 369.354 383.68 369.354H386.117V368.018C386.117 365.689 385.109 364.525 383.094 364.525C381.219 364.525 380.281 365.447 380.281 367.291H372.383C372.383 364.838 373.422 362.846 375.5 361.314C377.594 359.783 380.258 359.018 383.492 359.018C386.727 359.018 389.281 359.807 391.156 361.385C393.031 362.963 393.992 365.127 394.039 367.877V379.104C394.07 381.432 394.43 383.213 395.117 384.447V384.846H387.219ZM382.273 379.689C383.258 379.689 384.07 379.479 384.711 379.057C385.367 378.635 385.836 378.158 386.117 377.627V373.572H383.82C381.07 373.572 379.695 374.807 379.695 377.275C379.695 377.994 379.938 378.58 380.422 379.033C380.906 379.471 381.523 379.689 382.273 379.689Z"></path><path style="fill:var(--color-illustrationInterface030)" opacity="0.9" d="M269 141.846C269 133.009 276.163 125.846 285 125.846H1209C1217.84 125.846 1225 133.009 1225 141.846V695.846C1225 704.682 1217.84 711.846 1209 711.846H285C276.163 711.846 269 704.682 269 695.846V141.846Z"></path><g filter="url(#nk-137)"><path style="fill:var(--color-illustrationInterface010)" d="M529 281.176C529 277.213 532.213 274 536.176 274H941.824C945.787 274 949 277.213 949 281.176V540.824C949 544.787 945.787 548 941.824 548H536.176C532.213 548 529 544.787 529 540.824V281.176Z"></path></g><path style="fill:var(--color-illustrationHighlight010)" d="M930.081 312.9L927.952 310.771L919.512 319.211L911.072 310.771L908.943 312.9L917.383 321.34L908.943 329.78L911.072 331.909L919.512 323.469L927.952 331.909L930.081 329.78L921.641 321.34L930.081 312.9Z"></path><path style="fill:var(--color-illustrationHighlight010)" d="M573.972 329.299H566.636L565.46 332.771H560.448L567.56 313.115H573.104L580.216 332.771H575.148L573.972 329.299ZM572.74 325.603L570.304 318.407L567.896 325.603H572.74Z"></path><path style="fill:var(--color-illustrationHighlight010)" d="M587.169 319.751C587.729 318.892 588.429 318.22 589.269 317.735C590.109 317.231 591.042 316.979 592.069 316.979V322.047H590.753C589.558 322.047 588.662 322.308 588.065 322.831C587.467 323.335 587.169 324.231 587.169 325.519V332.771H582.381V317.147H587.169V319.751Z"></path><path style="fill:var(--color-illustrationHighlight010)" d="M603.065 328.711V332.771H600.629C598.893 332.771 597.54 332.351 596.569 331.511C595.598 330.652 595.113 329.261 595.113 327.339V321.123H593.209V317.147H595.113V313.339H599.901V317.147H603.037V321.123H599.901V327.395C599.901 327.861 600.013 328.197 600.237 328.403C600.461 328.608 600.834 328.711 601.357 328.711H603.065Z"></path><path style="fill:var(--color-illustrationHighlight010)" d="M608.14 315.523C607.3 315.523 606.609 315.28 606.068 314.795C605.545 314.291 605.284 313.675 605.284 312.947C605.284 312.2 605.545 311.584 606.068 311.099C606.609 310.595 607.3 310.343 608.14 310.343C608.961 310.343 609.633 310.595 610.156 311.099C610.697 311.584 610.968 312.2 610.968 312.947C610.968 313.675 610.697 314.291 610.156 314.795C609.633 315.28 608.961 315.523 608.14 315.523ZM610.52 317.147V332.771H605.732V317.147H610.52Z"></path><path style="fill:var(--color-illustrationHighlight010)" d="M613.038 324.959C613.038 323.335 613.365 321.916 614.018 320.703C614.69 319.489 615.614 318.556 616.79 317.903C617.985 317.249 619.347 316.923 620.878 316.923C622.838 316.923 624.471 317.436 625.778 318.463C627.103 319.489 627.971 320.936 628.382 322.803H623.286C622.857 321.608 622.026 321.011 620.794 321.011C619.917 321.011 619.217 321.356 618.694 322.047C618.171 322.719 617.91 323.689 617.91 324.959C617.91 326.228 618.171 327.208 618.694 327.899C619.217 328.571 619.917 328.907 620.794 328.907C622.026 328.907 622.857 328.309 623.286 327.115H628.382C627.971 328.944 627.103 330.381 625.778 331.427C624.453 332.472 622.819 332.995 620.878 332.995C619.347 332.995 617.985 332.668 616.79 332.015C615.614 331.361 614.69 330.428 614.018 329.215C613.365 328.001 613.038 326.583 613.038 324.959Z"></path><path style="fill:var(--color-illustrationHighlight010)" d="M635.731 312.051V332.771H630.943V312.051H635.731Z"></path><path style="fill:var(--color-illustrationHighlight010)" d="M653.929 324.707C653.929 325.155 653.901 325.621 653.845 326.107H643.009C643.084 327.077 643.392 327.824 643.933 328.347C644.493 328.851 645.174 329.103 645.977 329.103C647.172 329.103 648.002 328.599 648.469 327.591H653.565C653.304 328.617 652.828 329.541 652.137 330.363C651.465 331.184 650.616 331.828 649.589 332.295C648.562 332.761 647.414 332.995 646.145 332.995C644.614 332.995 643.252 332.668 642.057 332.015C640.862 331.361 639.929 330.428 639.257 329.215C638.585 328.001 638.249 326.583 638.249 324.959C638.249 323.335 638.576 321.916 639.229 320.703C639.901 319.489 640.834 318.556 642.029 317.903C643.224 317.249 644.596 316.923 646.145 316.923C647.657 316.923 649.001 317.24 650.177 317.875C651.353 318.509 652.268 319.415 652.921 320.591C653.593 321.767 653.929 323.139 653.929 324.707ZM649.029 323.447C649.029 322.625 648.749 321.972 648.189 321.487C647.629 321.001 646.929 320.759 646.089 320.759C645.286 320.759 644.605 320.992 644.045 321.459C643.504 321.925 643.168 322.588 643.037 323.447H649.029Z"></path><path style="fill:var(--color-illustrationHighlight010)" d="M671.096 328.711V332.771H668.66C666.924 332.771 665.571 332.351 664.6 331.511C663.63 330.652 663.144 329.261 663.144 327.339V321.123H661.24V317.147H663.144V313.339H667.932V317.147H671.068V321.123H667.932V327.395C667.932 327.861 668.044 328.197 668.268 328.403C668.492 328.608 668.866 328.711 669.388 328.711H671.096Z"></path><path style="fill:var(--color-illustrationHighlight010)" d="M688.491 324.707C688.491 325.155 688.463 325.621 688.407 326.107H677.571C677.646 327.077 677.954 327.824 678.495 328.347C679.055 328.851 679.737 329.103 680.539 329.103C681.734 329.103 682.565 328.599 683.031 327.591H688.127C687.866 328.617 687.39 329.541 686.699 330.363C686.027 331.184 685.178 331.828 684.151 332.295C683.125 332.761 681.977 332.995 680.707 332.995C679.177 332.995 677.814 332.668 676.619 332.015C675.425 331.361 674.491 330.428 673.819 329.215C673.147 328.001 672.811 326.583 672.811 324.959C672.811 323.335 673.138 321.916 673.791 320.703C674.463 319.489 675.397 318.556 676.591 317.903C677.786 317.249 679.158 316.923 680.707 316.923C682.219 316.923 683.563 317.24 684.739 317.875C685.915 318.509 686.83 319.415 687.483 320.591C688.155 321.767 688.491 323.139 688.491 324.707ZM683.591 323.447C683.591 322.625 683.311 321.972 682.751 321.487C682.191 321.001 681.491 320.759 680.651 320.759C679.849 320.759 679.167 320.992 678.607 321.459C678.066 321.925 677.73 322.588 677.599 323.447H683.591Z"></path><path style="fill:var(--color-illustrationHighlight010)" d="M700.257 332.771L697.261 328.431L694.741 332.771H689.561L694.713 324.791L689.421 317.147H694.797L697.793 321.459L700.313 317.147H705.493L700.257 325.015L705.633 332.771H700.257Z"></path><path style="fill:var(--color-illustrationHighlight010)" d="M716.186 328.711V332.771H713.75C712.014 332.771 710.661 332.351 709.69 331.511C708.72 330.652 708.234 329.261 708.234 327.339V321.123H706.33V317.147H708.234V313.339H713.022V317.147H716.158V321.123H713.022V327.395C713.022 327.861 713.134 328.197 713.358 328.403C713.582 328.608 713.956 328.711 714.478 328.711H716.186Z"></path><path style="fill:var(--color-illustrationHighlight010)" d="M731.143 332.995C729.78 332.995 728.567 332.761 727.503 332.295C726.439 331.828 725.599 331.193 724.983 330.391C724.367 329.569 724.021 328.655 723.947 327.647H728.679C728.735 328.188 728.987 328.627 729.435 328.963C729.883 329.299 730.433 329.467 731.087 329.467C731.684 329.467 732.141 329.355 732.459 329.131C732.795 328.888 732.963 328.58 732.963 328.207C732.963 327.759 732.729 327.432 732.263 327.227C731.796 327.003 731.04 326.76 729.995 326.499C728.875 326.237 727.941 325.967 727.195 325.687C726.448 325.388 725.804 324.931 725.263 324.315C724.721 323.68 724.451 322.831 724.451 321.767C724.451 320.871 724.693 320.059 725.179 319.331C725.683 318.584 726.411 317.996 727.363 317.567C728.333 317.137 729.481 316.923 730.807 316.923C732.767 316.923 734.307 317.408 735.427 318.379C736.565 319.349 737.219 320.637 737.387 322.243H732.963C732.888 321.701 732.645 321.272 732.235 320.955C731.843 320.637 731.32 320.479 730.667 320.479C730.107 320.479 729.677 320.591 729.379 320.815C729.08 321.02 728.931 321.309 728.931 321.683C728.931 322.131 729.164 322.467 729.631 322.691C730.116 322.915 730.863 323.139 731.871 323.363C733.028 323.661 733.971 323.96 734.699 324.259C735.427 324.539 736.061 325.005 736.603 325.659C737.163 326.293 737.452 327.152 737.471 328.235C737.471 329.149 737.209 329.971 736.687 330.699C736.183 331.408 735.445 331.968 734.475 332.379C733.523 332.789 732.412 332.995 731.143 332.995Z"></path><path style="fill:var(--color-illustrationHighlight010)" d="M742.808 315.523C741.968 315.523 741.277 315.28 740.736 314.795C740.213 314.291 739.952 313.675 739.952 312.947C739.952 312.2 740.213 311.584 740.736 311.099C741.277 310.595 741.968 310.343 742.808 310.343C743.629 310.343 744.301 310.595 744.824 311.099C745.365 311.584 745.636 312.2 745.636 312.947C745.636 313.675 745.365 314.291 744.824 314.795C744.301 315.28 743.629 315.523 742.808 315.523ZM745.188 317.147V332.771H740.4V317.147H745.188Z"></path><path style="fill:var(--color-illustrationHighlight010)" d="M753.138 328.823H759.914V332.771H747.79V328.963L754.286 321.095H747.846V317.147H759.774V320.955L753.138 328.823Z"></path><path style="fill:var(--color-illustrationHighlight010)" d="M777.277 324.707C777.277 325.155 777.249 325.621 777.193 326.107H766.357C766.431 327.077 766.739 327.824 767.281 328.347C767.841 328.851 768.522 329.103 769.324 329.103C770.519 329.103 771.35 328.599 771.816 327.591H776.913C776.651 328.617 776.175 329.541 775.484 330.363C774.812 331.184 773.963 331.828 772.937 332.295C771.91 332.761 770.762 332.995 769.492 332.995C767.962 332.995 766.599 332.668 765.404 332.015C764.21 331.361 763.277 330.428 762.605 329.215C761.933 328.001 761.596 326.583 761.596 324.959C761.596 323.335 761.923 321.916 762.577 320.703C763.249 319.489 764.182 318.556 765.376 317.903C766.571 317.249 767.943 316.923 769.492 316.923C771.004 316.923 772.349 317.24 773.525 317.875C774.701 318.509 775.615 319.415 776.268 320.591C776.94 321.767 777.277 323.139 777.277 324.707ZM772.376 323.447C772.376 322.625 772.096 321.972 771.536 321.487C770.976 321.001 770.277 320.759 769.437 320.759C768.634 320.759 767.953 320.992 767.393 321.459C766.851 321.925 766.515 322.588 766.385 323.447H772.376Z"></path><path style="fill:var(--color-illustrationInterface020)" opacity="0.5" d="M575 410.053C575 407.262 577.275 405 580.08 405H639.92C642.725 405 645 407.262 645 410.053V467.947C645 470.738 642.725 473 639.92 473H580.08C577.275 473 575 470.738 575 467.947V410.053Z"></path><path style="fill:var(--color-illustrationInterface070)" d="M606.904 442.728H602.248L601.448 445H599.544L603.528 433.864H605.64L609.624 445H607.704L606.904 442.728ZM606.392 441.24L604.584 436.072L602.76 441.24H606.392Z"></path><path style="fill:var(--color-illustrationInterface070)" d="M610.748 440.552C610.748 439.667 610.93 438.883 611.292 438.2C611.666 437.518 612.167 436.99 612.796 436.616C613.436 436.232 614.14 436.04 614.908 436.04C615.602 436.04 616.204 436.179 616.716 436.456C617.239 436.723 617.655 437.059 617.964 437.464V436.184H619.804V445H617.964V443.688C617.655 444.104 617.234 444.451 616.7 444.728C616.167 445.006 615.559 445.144 614.876 445.144C614.119 445.144 613.426 444.952 612.796 444.568C612.167 444.174 611.666 443.63 611.292 442.936C610.93 442.232 610.748 441.438 610.748 440.552ZM617.964 440.584C617.964 439.976 617.836 439.448 617.58 439C617.335 438.552 617.01 438.211 616.604 437.976C616.199 437.742 615.762 437.624 615.292 437.624C614.823 437.624 614.386 437.742 613.98 437.976C613.575 438.2 613.244 438.536 612.988 438.984C612.743 439.422 612.62 439.944 612.62 440.552C612.62 441.16 612.743 441.694 612.988 442.152C613.244 442.611 613.575 442.963 613.98 443.208C614.396 443.443 614.834 443.56 615.292 443.56C615.762 443.56 616.199 443.443 616.604 443.208C617.01 442.974 617.335 442.632 617.58 442.184C617.836 441.726 617.964 441.192 617.964 440.584Z"></path><path style="fill:var(--color-illustrationInterface050)" d="M588.864 502.958C588.117 502.958 587.445 502.83 586.848 502.574C586.251 502.307 585.781 501.934 585.44 501.454C585.099 500.974 584.928 500.414 584.928 499.774H586.88C586.923 500.254 587.109 500.649 587.44 500.958C587.781 501.267 588.256 501.422 588.864 501.422C589.493 501.422 589.984 501.273 590.336 500.974C590.688 500.665 590.864 500.27 590.864 499.79C590.864 499.417 590.752 499.113 590.528 498.878C590.315 498.643 590.043 498.462 589.712 498.334C589.392 498.206 588.944 498.067 588.368 497.918C587.643 497.726 587.051 497.534 586.592 497.342C586.144 497.139 585.76 496.83 585.44 496.414C585.12 495.998 584.96 495.443 584.96 494.75C584.96 494.11 585.12 493.55 585.44 493.07C585.76 492.59 586.208 492.222 586.784 491.966C587.36 491.71 588.027 491.582 588.784 491.582C589.861 491.582 590.741 491.854 591.424 492.398C592.117 492.931 592.501 493.667 592.576 494.606H590.56C590.528 494.201 590.336 493.854 589.984 493.566C589.632 493.278 589.168 493.134 588.592 493.134C588.069 493.134 587.643 493.267 587.312 493.534C586.981 493.801 586.816 494.185 586.816 494.686C586.816 495.027 586.917 495.31 587.12 495.534C587.333 495.747 587.6 495.918 587.92 496.046C588.24 496.174 588.677 496.313 589.232 496.462C589.968 496.665 590.565 496.867 591.024 497.07C591.493 497.273 591.888 497.587 592.208 498.014C592.539 498.43 592.704 498.99 592.704 499.694C592.704 500.259 592.549 500.793 592.24 501.294C591.941 501.795 591.499 502.201 590.912 502.51C590.336 502.809 589.653 502.958 588.864 502.958Z"></path><path style="fill:var(--color-illustrationInterface050)" d="M605.528 493.886C606.222 493.886 606.84 494.03 607.384 494.318C607.939 494.606 608.371 495.033 608.68 495.598C609 496.163 609.16 496.846 609.16 497.646V502.846H607.352V497.918C607.352 497.129 607.155 496.526 606.76 496.11C606.366 495.683 605.827 495.47 605.144 495.47C604.462 495.47 603.918 495.683 603.512 496.11C603.118 496.526 602.92 497.129 602.92 497.918V502.846H601.112V497.918C601.112 497.129 600.915 496.526 600.52 496.11C600.126 495.683 599.587 495.47 598.904 495.47C598.222 495.47 597.678 495.683 597.272 496.11C596.878 496.526 596.68 497.129 596.68 497.918V502.846H594.856V494.03H596.68V495.038C596.979 494.675 597.358 494.393 597.816 494.19C598.275 493.987 598.766 493.886 599.288 493.886C599.992 493.886 600.622 494.035 601.176 494.334C601.731 494.633 602.158 495.065 602.456 495.63C602.723 495.097 603.139 494.675 603.704 494.366C604.27 494.046 604.878 493.886 605.528 493.886Z"></path><path style="fill:var(--color-illustrationInterface050)" d="M610.873 498.398C610.873 497.513 611.055 496.729 611.417 496.046C611.791 495.363 612.292 494.835 612.921 494.462C613.561 494.078 614.265 493.886 615.033 493.886C615.727 493.886 616.329 494.025 616.841 494.302C617.364 494.569 617.78 494.905 618.089 495.31V494.03H619.929V502.846H618.089V501.534C617.78 501.95 617.359 502.297 616.825 502.574C616.292 502.851 615.684 502.99 615.001 502.99C614.244 502.99 613.551 502.798 612.921 502.414C612.292 502.019 611.791 501.475 611.417 500.782C611.055 500.078 610.873 499.283 610.873 498.398ZM618.089 498.43C618.089 497.822 617.961 497.294 617.705 496.846C617.46 496.398 617.135 496.057 616.729 495.822C616.324 495.587 615.887 495.47 615.417 495.47C614.948 495.47 614.511 495.587 614.105 495.822C613.7 496.046 613.369 496.382 613.113 496.83C612.868 497.267 612.745 497.79 612.745 498.398C612.745 499.006 612.868 499.539 613.113 499.998C613.369 500.457 613.7 500.809 614.105 501.054C614.521 501.289 614.959 501.406 615.417 501.406C615.887 501.406 616.324 501.289 616.729 501.054C617.135 500.819 617.46 500.478 617.705 500.03C617.961 499.571 618.089 499.038 618.089 498.43Z"></path><path style="fill:var(--color-illustrationInterface050)" d="M624.149 491.006V502.846H622.325V491.006H624.149Z"></path><path style="fill:var(--color-illustrationInterface050)" d="M628.368 491.006V502.846H626.544V491.006H628.368Z"></path><path style="fill:var(--color-illustrationBorder010)" fill-rule="evenodd" clip-rule="evenodd" d="M560 401C560 396.582 563.582 393 568 393H646C650.418 393 654 396.582 654 401V513C654 517.418 650.418 521 646 521H568C563.582 521 560 517.418 560 513V401ZM568 395C564.686 395 562 397.686 562 401V513C562 516.314 564.686 519 568 519H646C649.314 519 652 516.314 652 513V401C652 397.686 649.314 395 646 395H568Z"></path><path style="fill:var(--color-illustrationInterface020)" opacity="0.5" d="M710 409.898C710 407.108 712.275 404.846 715.08 404.846H774.92C777.725 404.846 780 407.108 780 409.898V467.793C780 470.584 777.725 472.846 774.92 472.846H715.08C712.275 472.846 710 470.584 710 467.793V409.898Z"></path><path style="fill:var(--color-illustrationInterface070)" d="M740.868 443.722H734.466L733.366 446.846H730.748L736.226 431.534H739.13L744.608 446.846H741.968L740.868 443.722ZM740.164 441.676L737.678 434.57L735.17 441.676H740.164Z"></path><path style="fill:var(--color-illustrationInterface070)" d="M746.154 440.73C746.154 439.513 746.403 438.435 746.902 437.496C747.415 436.558 748.105 435.832 748.97 435.318C749.85 434.79 750.818 434.526 751.874 434.526C752.827 434.526 753.656 434.717 754.36 435.098C755.079 435.465 755.651 435.927 756.076 436.484V434.724H758.606V446.846H756.076V445.042C755.651 445.614 755.071 446.091 754.338 446.472C753.605 446.854 752.769 447.044 751.83 447.044C750.789 447.044 749.835 446.78 748.97 446.252C748.105 445.71 747.415 444.962 746.902 444.008C746.403 443.04 746.154 441.948 746.154 440.73ZM756.076 440.774C756.076 439.938 755.9 439.212 755.548 438.596C755.211 437.98 754.763 437.511 754.206 437.188C753.649 436.866 753.047 436.704 752.402 436.704C751.757 436.704 751.155 436.866 750.598 437.188C750.041 437.496 749.586 437.958 749.234 438.574C748.897 439.176 748.728 439.894 748.728 440.73C748.728 441.566 748.897 442.3 749.234 442.93C749.586 443.561 750.041 444.045 750.598 444.382C751.17 444.705 751.771 444.866 752.402 444.866C753.047 444.866 753.649 444.705 754.206 444.382C754.763 444.06 755.211 443.59 755.548 442.974C755.9 442.344 756.076 441.61 756.076 440.774Z"></path><path style="fill:var(--color-illustrationInterface050)" d="M720.476 502.846L717.916 498.398H716.524V502.846H714.7V491.726H718.54C719.393 491.726 720.113 491.875 720.7 492.174C721.297 492.473 721.74 492.873 722.028 493.374C722.327 493.875 722.476 494.435 722.476 495.054C722.476 495.779 722.263 496.441 721.836 497.038C721.42 497.625 720.775 498.025 719.9 498.238L722.652 502.846H720.476ZM716.524 496.942H718.54C719.223 496.942 719.735 496.771 720.076 496.43C720.428 496.089 720.604 495.63 720.604 495.054C720.604 494.478 720.433 494.03 720.092 493.71C719.751 493.379 719.233 493.214 718.54 493.214H716.524V496.942Z"></path><path style="fill:var(--color-illustrationInterface050)" d="M732.889 498.222C732.889 498.553 732.868 498.851 732.825 499.118H726.089C726.143 499.822 726.404 500.387 726.873 500.814C727.343 501.241 727.919 501.454 728.601 501.454C729.583 501.454 730.276 501.043 730.681 500.222H732.649C732.383 501.033 731.897 501.699 731.193 502.222C730.5 502.734 729.636 502.99 728.601 502.99C727.759 502.99 727.001 502.803 726.329 502.43C725.668 502.046 725.145 501.513 724.761 500.83C724.388 500.137 724.201 499.337 724.201 498.43C724.201 497.523 724.383 496.729 724.745 496.046C725.119 495.353 725.636 494.819 726.297 494.446C726.969 494.073 727.737 493.886 728.601 493.886C729.433 493.886 730.175 494.067 730.825 494.43C731.476 494.793 731.983 495.305 732.345 495.966C732.708 496.617 732.889 497.369 732.889 498.222ZM730.985 497.646C730.975 496.974 730.735 496.435 730.265 496.03C729.796 495.625 729.215 495.422 728.521 495.422C727.892 495.422 727.353 495.625 726.905 496.03C726.457 496.425 726.191 496.963 726.105 497.646H730.985Z"></path><path style="fill:var(--color-illustrationInterface050)" d="M738.236 493.886C738.919 493.886 739.522 494.025 740.044 494.302C740.578 494.569 740.994 494.905 741.292 495.31V494.03H743.132V502.99C743.132 503.801 742.962 504.521 742.62 505.15C742.279 505.79 741.783 506.291 741.132 506.654C740.492 507.017 739.724 507.198 738.828 507.198C737.634 507.198 736.642 506.915 735.852 506.35C735.063 505.795 734.615 505.038 734.508 504.078H736.316C736.455 504.537 736.748 504.905 737.196 505.182C737.655 505.47 738.199 505.614 738.828 505.614C739.564 505.614 740.156 505.39 740.604 504.942C741.063 504.494 741.292 503.843 741.292 502.99V501.518C740.983 501.934 740.562 502.286 740.028 502.574C739.506 502.851 738.908 502.99 738.236 502.99C737.468 502.99 736.764 502.798 736.124 502.414C735.495 502.019 734.994 501.475 734.62 500.782C734.258 500.078 734.076 499.283 734.076 498.398C734.076 497.513 734.258 496.729 734.62 496.046C734.994 495.363 735.495 494.835 736.124 494.462C736.764 494.078 737.468 493.886 738.236 493.886ZM741.292 498.43C741.292 497.822 741.164 497.294 740.908 496.846C740.663 496.398 740.338 496.057 739.932 495.822C739.527 495.587 739.09 495.47 738.62 495.47C738.151 495.47 737.714 495.587 737.308 495.822C736.903 496.046 736.572 496.382 736.316 496.83C736.071 497.267 735.948 497.79 735.948 498.398C735.948 499.006 736.071 499.539 736.316 499.998C736.572 500.457 736.903 500.809 737.308 501.054C737.724 501.289 738.162 501.406 738.62 501.406C739.09 501.406 739.527 501.289 739.932 501.054C740.338 500.819 740.663 500.478 740.908 500.03C741.164 499.571 741.292 499.038 741.292 498.43Z"></path><path style="fill:var(--color-illustrationInterface050)" d="M753.512 494.03V502.846H751.688V501.806C751.4 502.169 751.021 502.457 750.552 502.67C750.093 502.873 749.603 502.974 749.08 502.974C748.387 502.974 747.763 502.83 747.208 502.542C746.664 502.254 746.232 501.827 745.912 501.262C745.603 500.697 745.448 500.014 745.448 499.214V494.03H747.256V498.942C747.256 499.731 747.453 500.339 747.848 500.766C748.243 501.182 748.781 501.39 749.464 501.39C750.147 501.39 750.685 501.182 751.08 500.766C751.485 500.339 751.688 499.731 751.688 498.942V494.03H753.512Z"></path><path style="fill:var(--color-illustrationInterface050)" d="M757.743 491.006V502.846H755.919V491.006H757.743Z"></path><path style="fill:var(--color-illustrationInterface050)" d="M759.529 498.398C759.529 497.513 759.711 496.729 760.073 496.046C760.447 495.363 760.948 494.835 761.577 494.462C762.217 494.078 762.921 493.886 763.689 493.886C764.383 493.886 764.985 494.025 765.497 494.302C766.02 494.569 766.436 494.905 766.745 495.31V494.03H768.585V502.846H766.745V501.534C766.436 501.95 766.015 502.297 765.481 502.574C764.948 502.851 764.34 502.99 763.657 502.99C762.9 502.99 762.207 502.798 761.577 502.414C760.948 502.019 760.447 501.475 760.073 500.782C759.711 500.078 759.529 499.283 759.529 498.398ZM766.745 498.43C766.745 497.822 766.617 497.294 766.361 496.846C766.116 496.398 765.791 496.057 765.385 495.822C764.98 495.587 764.543 495.47 764.073 495.47C763.604 495.47 763.167 495.587 762.761 495.822C762.356 496.046 762.025 496.382 761.769 496.83C761.524 497.267 761.401 497.79 761.401 498.398C761.401 499.006 761.524 499.539 761.769 499.998C762.025 500.457 762.356 500.809 762.761 501.054C763.177 501.289 763.615 501.406 764.073 501.406C764.543 501.406 764.98 501.289 765.385 501.054C765.791 500.819 766.116 500.478 766.361 500.03C766.617 499.571 766.745 499.038 766.745 498.43Z"></path><path style="fill:var(--color-illustrationInterface050)" d="M772.805 495.31C773.072 494.862 773.424 494.515 773.861 494.27C774.309 494.014 774.837 493.886 775.445 493.886V495.774H774.981C774.267 495.774 773.723 495.955 773.349 496.318C772.987 496.681 772.805 497.31 772.805 498.206V502.846H770.981V494.03H772.805V495.31Z"></path><path style="fill:var(--color-illustrationBorder010)" fill-rule="evenodd" clip-rule="evenodd" d="M698 401C698 396.582 701.582 393 706 393H784C788.418 393 792 396.582 792 401V513C792 517.418 788.418 521 784 521H706C701.582 521 698 517.418 698 513V401ZM706 395C702.686 395 700 397.686 700 401V513C700 516.314 702.686 519 706 519H784C787.314 519 790 516.314 790 513V401C790 397.686 787.314 395 784 395H706Z"></path><path style="fill:var(--color-illustrationInterface020)" d="M844 393C839.582 393 836 396.582 836 401V513C836 517.418 839.582 521 844 521H922C926.418 521 930 517.418 930 513V401C930 396.582 926.418 393 922 393H844Z"></path><path style="fill:var(--color-illustrationHighlight010)" fill-rule="evenodd" clip-rule="evenodd" d="M836 401C836 396.582 839.582 393 844 393H922C926.418 393 930 396.582 930 401V513C930 517.418 926.418 521 922 521H844C839.582 521 836 517.418 836 513V401ZM844 395C840.686 395 838 397.686 838 401V513C838 516.314 840.686 519 844 519H922C925.314 519 928 516.314 928 513V401C928 397.686 925.314 395 922 395H844Z"></path><path style="fill:var(--color-illustrationInterface060)" d="M848 409.898C848 407.108 850.275 404.846 853.08 404.846H912.92C915.725 404.846 918 407.108 918 409.898V467.793C918 470.584 915.725 472.846 912.92 472.846H853.08C850.275 472.846 848 470.584 848 467.793V409.898Z"></path><path style="fill:var(--color-illustrationInterface010)" d="M877.326 444.728H868.887L867.437 448.846H863.986L871.207 428.662H875.035L882.256 448.846H878.776L877.326 444.728ZM876.398 442.031L873.121 432.664L869.815 442.031H876.398Z"></path><path style="fill:var(--color-illustrationInterface010)" d="M884.294 440.784C884.294 439.179 884.622 437.758 885.28 436.521C885.956 435.284 886.865 434.327 888.006 433.65C889.166 432.954 890.442 432.606 891.834 432.606C893.09 432.606 894.183 432.857 895.111 433.36C896.058 433.843 896.812 434.452 897.373 435.187V432.867H900.708V448.846H897.373V446.468C896.812 447.222 896.048 447.85 895.082 448.353C894.115 448.856 893.013 449.107 891.776 449.107C890.403 449.107 889.146 448.759 888.006 448.063C886.865 447.348 885.956 446.362 885.28 445.105C884.622 443.829 884.294 442.389 884.294 440.784ZM897.373 440.842C897.373 439.74 897.141 438.783 896.677 437.971C896.232 437.159 895.642 436.54 894.908 436.115C894.173 435.69 893.38 435.477 892.53 435.477C891.679 435.477 890.886 435.69 890.152 436.115C889.417 436.521 888.818 437.13 888.354 437.942C887.909 438.735 887.687 439.682 887.687 440.784C887.687 441.886 887.909 442.853 888.354 443.684C888.818 444.515 889.417 445.153 890.152 445.598C890.906 446.023 891.698 446.236 892.53 446.236C893.38 446.236 894.173 446.023 894.908 445.598C895.642 445.173 896.232 444.554 896.677 443.742C897.141 442.911 897.373 441.944 897.373 440.842Z"></path><path style="fill:var(--color-illustrationHighlight010)" d="M863.524 501.374H867.284V502.846H861.7V491.726H863.524V501.374Z"></path><path style="fill:var(--color-illustrationHighlight010)" d="M868.201 498.398C868.201 497.512 868.383 496.728 868.745 496.046C869.119 495.363 869.62 494.835 870.249 494.462C870.889 494.078 871.593 493.886 872.361 493.886C873.055 493.886 873.657 494.024 874.169 494.302C874.692 494.568 875.108 494.904 875.417 495.31V494.03H877.257V502.846H875.417V501.534C875.108 501.95 874.687 502.296 874.153 502.574C873.62 502.851 873.012 502.99 872.329 502.99C871.572 502.99 870.879 502.798 870.249 502.414C869.62 502.019 869.119 501.475 868.745 500.782C868.383 500.078 868.201 499.283 868.201 498.398ZM875.417 498.43C875.417 497.822 875.289 497.294 875.033 496.846C874.788 496.398 874.463 496.056 874.057 495.822C873.652 495.587 873.215 495.47 872.745 495.47C872.276 495.47 871.839 495.587 871.433 495.822C871.028 496.046 870.697 496.382 870.441 496.83C870.196 497.267 870.073 497.79 870.073 498.398C870.073 499.006 870.196 499.539 870.441 499.998C870.697 500.456 871.028 500.808 871.433 501.054C871.849 501.288 872.287 501.406 872.745 501.406C873.215 501.406 873.652 501.288 874.057 501.054C874.463 500.819 874.788 500.478 875.033 500.03C875.289 499.571 875.417 499.038 875.417 498.43Z"></path><path style="fill:var(--color-illustrationHighlight010)" d="M881.477 495.31C881.744 494.862 882.096 494.515 882.533 494.27C882.981 494.014 883.509 493.886 884.117 493.886V495.774H883.653C882.938 495.774 882.394 495.955 882.021 496.318C881.658 496.68 881.477 497.31 881.477 498.206V502.846H879.653V494.03H881.477V495.31Z"></path><path style="fill:var(--color-illustrationHighlight010)" d="M889.346 493.886C890.028 493.886 890.631 494.024 891.154 494.302C891.687 494.568 892.103 494.904 892.402 495.31V494.03H894.242V502.99C894.242 503.8 894.071 504.52 893.73 505.15C893.388 505.79 892.892 506.291 892.242 506.654C891.602 507.016 890.834 507.198 889.938 507.198C888.743 507.198 887.751 506.915 886.962 506.35C886.172 505.795 885.724 505.038 885.618 504.078H887.426C887.564 504.536 887.858 504.904 888.306 505.182C888.764 505.47 889.308 505.614 889.938 505.614C890.674 505.614 891.266 505.39 891.714 504.942C892.172 504.494 892.402 503.843 892.402 502.99V501.518C892.092 501.934 891.671 502.286 891.138 502.574C890.615 502.851 890.018 502.99 889.346 502.99C888.578 502.99 887.874 502.798 887.234 502.414C886.604 502.019 886.103 501.475 885.73 500.782C885.367 500.078 885.186 499.283 885.186 498.398C885.186 497.512 885.367 496.728 885.73 496.046C886.103 495.363 886.604 494.835 887.234 494.462C887.874 494.078 888.578 493.886 889.346 493.886ZM892.402 498.43C892.402 497.822 892.274 497.294 892.018 496.846C891.772 496.398 891.447 496.056 891.042 495.822C890.636 495.587 890.199 495.47 889.73 495.47C889.26 495.47 888.823 495.587 888.418 495.822C888.012 496.046 887.682 496.382 887.426 496.83C887.18 497.267 887.058 497.79 887.058 498.398C887.058 499.006 887.18 499.539 887.426 499.998C887.682 500.456 888.012 500.808 888.418 501.054C888.834 501.288 889.271 501.406 889.73 501.406C890.199 501.406 890.636 501.288 891.042 501.054C891.447 500.819 891.772 500.478 892.018 500.03C892.274 499.571 892.402 499.038 892.402 498.43Z"></path><path style="fill:var(--color-illustrationHighlight010)" d="M904.717 498.222C904.717 498.552 904.696 498.851 904.653 499.118H897.917C897.971 499.822 898.232 500.387 898.701 500.814C899.171 501.24 899.747 501.454 900.429 501.454C901.411 501.454 902.104 501.043 902.509 500.222H904.477C904.211 501.032 903.725 501.699 903.021 502.222C902.328 502.734 901.464 502.99 900.429 502.99C899.587 502.99 898.829 502.803 898.157 502.43C897.496 502.046 896.973 501.512 896.589 500.83C896.216 500.136 896.029 499.336 896.029 498.43C896.029 497.523 896.211 496.728 896.573 496.046C896.947 495.352 897.464 494.819 898.125 494.446C898.797 494.072 899.565 493.886 900.429 493.886C901.261 493.886 902.003 494.067 902.653 494.43C903.304 494.792 903.811 495.304 904.173 495.966C904.536 496.616 904.717 497.368 904.717 498.222ZM902.813 497.646C902.803 496.974 902.563 496.435 902.093 496.03C901.624 495.624 901.043 495.422 900.349 495.422C899.72 495.422 899.181 495.624 898.733 496.03C898.285 496.424 898.019 496.963 897.933 497.646H902.813Z"></path><path style="fill:var(--color-illustrationHighlight010)" fill-rule="evenodd" clip-rule="evenodd" d="M930 365.771H560V364.771H930V365.771Z"></path><g filter="url(#nk-138)"><path style="fill:var(--color-white)" fill-rule="evenodd" clip-rule="evenodd" d="M884.106 541.346L881.64 537.578C879.957 535.005 876.37 534.067 873.627 535.477L874.266 535.149C873.585 535.499 873.259 536.371 873.539 537.096L876.953 545.928C877.494 547.328 878.876 549.308 880.021 550.302C880.021 550.302 886.888 555.986 886.888 558.117V560.814H898.013H901.055H903.575H906.356V558.117C906.356 555.986 910.553 549.274 910.553 549.274C911.325 547.97 911.969 545.671 911.969 544.145V532.924C911.919 530.439 909.807 528.426 907.201 528.426C905.897 528.426 904.841 529.432 904.841 530.675V531.574C904.841 529.089 902.73 527.076 900.124 527.076C898.82 527.076 897.764 528.083 897.764 529.326V530.224C897.764 527.74 895.652 525.726 893.046 525.726C891.743 525.726 890.687 526.733 890.687 527.976V528.875C890.687 528.476 890.644 528.158 890.562 527.907L889.842 516.318C889.744 514.751 888.424 513.533 886.888 513.533C885.341 513.533 884.106 514.778 884.106 516.314V527.439V541.346Z"></path><path style="fill:var(--color-black)" fill-rule="evenodd" clip-rule="evenodd" d="M874.287 535.188C876.495 534.38 879.077 534.94 880.769 536.538C881.096 536.846 881.389 537.194 881.641 537.578L884.106 541.345V516.314C884.106 514.778 885.341 513.533 886.888 513.533C888.424 513.533 889.745 514.75 889.842 516.317L890.562 527.906C890.569 527.929 890.576 527.952 890.583 527.976C890.651 528.216 890.687 528.511 890.687 528.875V527.976C890.687 527.95 890.687 527.924 890.688 527.898C890.688 527.887 890.689 527.876 890.69 527.864C890.75 526.673 891.782 525.726 893.046 525.726C893.294 525.726 893.536 525.744 893.773 525.779C894.332 525.861 894.858 526.037 895.334 526.289C896.52 526.917 897.392 528.018 897.67 529.325C897.732 529.616 897.764 529.916 897.764 530.224V529.325C897.764 528.082 898.82 527.076 900.124 527.076C900.228 527.076 900.332 527.079 900.436 527.085C901.149 527.13 901.819 527.325 902.411 527.639C903.597 528.267 904.469 529.368 904.747 530.675C904.809 530.965 904.841 531.266 904.841 531.574V530.675C904.841 529.432 905.897 528.425 907.201 528.425C907.306 528.425 907.41 528.428 907.513 528.435C909.974 528.588 911.921 530.539 911.969 532.923V544.145C911.969 545.671 911.325 547.969 910.553 549.274C910.553 549.274 906.356 555.985 906.356 558.116V560.814H886.888V558.116C886.888 555.985 880.021 550.302 880.021 550.302C878.876 549.307 877.494 547.327 876.953 545.927L873.539 537.096C873.352 536.612 873.435 536.062 873.714 535.646C873.809 535.504 873.927 535.377 874.064 535.275C874.138 535.244 874.212 535.215 874.287 535.188ZM873.627 535.477C873.771 535.403 873.916 535.336 874.064 535.275C874.128 535.227 874.195 535.185 874.266 535.148L873.627 535.477ZM872.126 532.557C870.339 533.846 869.63 536.238 870.426 538.299L873.84 547.13C874.575 549.033 876.272 551.466 877.832 552.822L877.862 552.848L877.892 552.872L877.893 552.873L877.905 552.883L877.954 552.924C877.999 552.962 878.067 553.019 878.155 553.093C878.33 553.242 878.584 553.46 878.89 553.729C879.505 554.27 880.314 555.004 881.115 555.79C881.93 556.591 882.666 557.38 883.175 558.038C883.35 558.264 883.471 558.441 883.55 558.569V564.152H909.694V558.173C909.694 558.187 909.695 558.195 909.696 558.195C909.708 558.197 909.77 557.883 910.085 557.137C910.42 556.346 910.89 555.411 911.392 554.481C911.888 553.561 912.388 552.697 912.767 552.06C912.955 551.742 913.112 551.484 913.22 551.307C913.274 551.219 913.316 551.151 913.344 551.106L913.375 551.056L913.383 551.043L913.404 551.009L913.425 550.974C914.008 549.99 914.46 548.792 914.767 547.684C915.073 546.579 915.307 545.308 915.307 544.145V532.889L915.306 532.856C915.217 528.447 911.515 525.088 907.201 525.088C906.494 525.088 905.804 525.219 905.162 525.461C903.761 524.374 901.993 523.738 900.124 523.738C899.417 523.738 898.727 523.869 898.084 524.112C896.814 523.125 895.241 522.51 893.564 522.405L893.173 516.111C892.966 512.772 890.175 510.195 886.888 510.195C883.49 510.195 880.769 512.942 880.769 516.314V532.514C878.312 531.291 875.355 531.117 872.753 532.205M883.663 558.776C883.663 558.776 883.657 558.764 883.648 558.74C883.66 558.765 883.664 558.776 883.663 558.776ZM872.126 532.557L872.101 532.509L872.74 532.18"></path></g><defs><filter id="nk-137" x="512.2" y="265.6" width="453.6" height="307.6" filterUnits="userSpaceOnUse" color-interpolation-filters="sRGB"><feFlood flood-opacity="0" result="BackgroundImageFix"></feFlood><feColorMatrix in="SourceAlpha" type="matrix" values="0 0 0 0 0 0 0 0 0 0 0 0 0 0 0 0 0 0 127 0" result="hardAlpha"></feColorMatrix><feOffset dy="8.4"></feOffset><feGaussianBlur stdDeviation="8.4"></feGaussianBlur><feColorMatrix type="matrix" values="0 0 0 0 0.0392157 0 0 0 0 0.0392157 0 0 0 0 0.0392157 0 0 0 0.08 0"></feColorMatrix><feBlend mode="normal" in2="BackgroundImageFix" result="effect1_dropShadow_2656_78439"></feBlend><feBlend mode="normal" in="SourceGraphic" in2="effect1_dropShadow_2656_78439" result="shape"></feBlend></filter><filter id="nk-138" x="856.447" y="503.368" width="72.5142" height="81.2654" filterUnits="userSpaceOnUse" color-interpolation-filters="sRGB"><feFlood flood-opacity="0" result="BackgroundImageFix"></feFlood><feColorMatrix in="SourceAlpha" type="matrix" values="0 0 0 0 0 0 0 0 0 0 0 0 0 0 0 0 0 0 127 0" result="hardAlpha"></feColorMatrix><feOffset dy="6.82735"></feOffset><feGaussianBlur stdDeviation="6.82735"></feGaussianBlur><feColorMatrix type="matrix" values="0 0 0 0 0.0392157 0 0 0 0 0.0392157 0 0 0 0 0.0392157 0 0 0 0.08 0"></feColorMatrix><feBlend mode="normal" in2="BackgroundImageFix" result="effect1_dropShadow_2656_78439"></feBlend><feBlend mode="normal" in="SourceGraphic" in2="effect1_dropShadow_2656_78439" result="shape"></feBlend></filter></defs></svg>