<svg
  id="nksvg"
  style="width: 100%; height: 100%"
  width="1490"
  height="838"
  viewBox="0 0 1490 838"
  fill="none"
  xmlns="http://www.w3.org/2000/svg"
  class="css-0"
>
  <g clip-path="url(#nk-232)">
    <rect
      style="fill: var(--color-illustrationBackground020)"
      width="1490"
      height="838"
    ></rect>
    <path
      style="fill: var(--color-illustrationInterface010)"
      d="M791 142.716C791 133.399 798.553 125.846 807.87 125.846H1728.35C1737.67 125.846 1745.22 133.399 1745.22 142.716V694.159C1745.22 703.476 1737.67 711.029 1728.35 711.029H807.87C798.553 711.029 791 703.476 791 694.159V142.716Z"
    ></path>
    <path
      style="fill: var(--color-illustrationHighlight010)"
      d="M791 142.5C791 131 800.672 126 805 126H1731.5C1741.5 126 1747 135.582 1747 140V183H791L791 142.5Z"
    ></path>
    <path
      style="fill: var(--color-illustrationInterface010)"
      d="M1337.53 153.221C1337.53 151.061 1339.28 149.31 1341.44 149.31H1401.07C1403.23 149.31 1404.99 151.061 1404.99 153.221C1404.99 155.381 1403.23 157.132 1401.07 157.132H1341.44C1339.28 157.132 1337.53 155.381 1337.53 153.221Z"
    ></path>
    <path
      style="fill: var(--color-illustrationInterface010)"
      d="M1444.09 153.221C1444.09 151.061 1445.84 149.31 1448 149.31H1507.64C1509.8 149.31 1511.55 151.061 1511.55 153.221C1511.55 155.381 1509.8 157.132 1507.64 157.132H1448C1445.84 157.132 1444.09 155.381 1444.09 153.221Z"
    ></path>
    <path
      style="fill: var(--color-illustrationInterface030)"
      d="M820.473 222.482C820.473 220.235 822.294 218.414 824.541 218.414H887.775C890.022 218.414 891.844 220.235 891.844 222.482V224.122C891.844 226.369 890.022 228.19 887.775 228.19H824.541C822.294 228.19 820.473 226.369 820.473 224.122V222.482Z"
    ></path>
    <path
      style="fill: var(--color-illustrationInterface030)"
      d="M820.473 281.466C820.473 276.067 824.85 271.689 830.25 271.689C835.649 271.689 840.026 276.067 840.026 281.466C840.026 286.866 835.649 291.243 830.25 291.243C824.85 291.243 820.473 286.866 820.473 281.466Z"
    ></path>
    <path
      style="fill: var(--color-illustrationInterface030)"
      d="M856.643 281.466C856.643 279.307 858.393 277.556 860.553 277.556H950.5C952.66 277.556 954.411 279.307 954.411 281.466C954.411 283.626 952.66 285.377 950.5 285.377H860.553C858.393 285.377 856.643 283.626 856.643 281.466Z"
    ></path>
    <path
      style="fill: var(--color-illustrationInterface020)"
      d="M1000.56 305.412V257.52H1006.09V305.412H1000.56Z"
    ></path>
    <path
      style="fill: var(--color-illustrationInterface030)"
      d="M820.473 345.001C820.473 339.601 824.85 335.224 830.25 335.224C835.649 335.224 840.026 339.601 840.026 345.001C840.026 350.401 835.649 354.778 830.25 354.778C824.85 354.778 820.473 350.401 820.473 345.001Z"
    ></path>
    <path
      style="fill: var(--color-illustrationInterface030)"
      d="M856.643 345.001C856.643 342.841 858.393 341.09 860.553 341.09H950.5C952.66 341.09 954.411 342.841 954.411 345.001C954.411 347.161 952.66 348.912 950.5 348.912H860.553C858.393 348.912 856.643 347.161 856.643 345.001Z"
    ></path>
    <path
      style="fill: var(--color-illustrationHighlight010)"
      d="M1000.56 368.946V321.055H1006.09V368.946H1000.56Z"
    ></path>
    <path
      style="fill: var(--color-illustrationInterface030)"
      d="M820.473 408.535C820.473 403.136 824.85 398.758 830.25 398.758C835.649 398.758 840.026 403.136 840.026 408.535C840.026 413.935 835.649 418.312 830.25 418.312C824.85 418.312 820.473 413.935 820.473 408.535Z"
    ></path>
    <path
      style="fill: var(--color-illustrationInterface030)"
      d="M856.643 408.535C856.643 406.375 858.393 404.624 860.553 404.624H950.5C952.66 404.624 954.411 406.375 954.411 408.535C954.411 410.695 952.66 412.446 950.5 412.446H860.553C858.393 412.446 856.643 410.695 856.643 408.535Z"
    ></path>
    <path
      style="fill: var(--color-illustrationInterface020)"
      d="M1000.56 432.48V384.589H1006.09V432.48H1000.56Z"
    ></path>
    <path
      style="fill: var(--color-illustrationInterface030)"
      d="M820.473 472.07C820.473 466.67 824.85 462.293 830.25 462.293C835.649 462.293 840.026 466.67 840.026 472.07C840.026 477.469 835.649 481.847 830.25 481.847C824.85 481.847 820.473 477.469 820.473 472.07Z"
    ></path>
    <path
      style="fill: var(--color-illustrationInterface030)"
      d="M856.643 472.069C856.643 469.91 858.393 468.159 860.553 468.159H950.5C952.66 468.159 954.411 469.91 954.411 472.069C954.411 474.229 952.66 475.98 950.5 475.98H860.553C858.393 475.98 856.643 474.229 856.643 472.069Z"
    ></path>
    <path
      style="fill: var(--color-illustrationInterface020)"
      d="M1000.56 496.015V448.124H1006.09V496.015H1000.56Z"
    ></path>
    <path
      style="fill: var(--color-illustrationInterface020)"
      fill-rule="evenodd"
      clip-rule="evenodd"
      d="M1116.54 410.246C1112.82 410.246 1109.8 413.264 1109.8 416.987C1109.8 420.71 1112.82 423.728 1116.54 423.728H1648.93C1652.65 423.728 1655.66 420.71 1655.66 416.987C1655.66 413.264 1652.65 410.246 1648.93 410.246H1116.54ZM1116.54 445.3C1112.82 445.3 1109.8 448.318 1109.8 452.041C1109.8 455.764 1112.82 458.782 1116.54 458.782H1534.36C1538.08 458.782 1541.1 455.764 1541.1 452.041C1541.1 448.318 1538.08 445.3 1534.36 445.3H1116.54ZM1116.54 515.408C1112.82 515.408 1109.8 518.426 1109.8 522.149C1109.8 525.872 1112.82 528.89 1116.54 528.89H1648.93C1652.65 528.89 1655.67 525.872 1655.67 522.149C1655.67 518.426 1652.65 515.408 1648.93 515.408H1116.54ZM1109.8 592.257C1109.8 588.534 1112.82 585.516 1116.54 585.516H1648.93C1652.65 585.516 1655.67 588.534 1655.67 592.257C1655.67 595.98 1652.65 598.998 1648.93 598.998H1116.54C1112.82 598.998 1109.8 595.98 1109.8 592.257ZM1116.54 480.354C1112.82 480.354 1109.8 483.372 1109.8 487.095C1109.8 490.818 1112.82 493.836 1116.54 493.836H1648.93C1652.65 493.836 1655.67 490.818 1655.67 487.095C1655.67 483.372 1652.65 480.354 1648.93 480.354H1116.54ZM1109.8 557.203C1109.8 553.48 1112.82 550.462 1116.54 550.462H1648.93C1652.65 550.462 1655.67 553.48 1655.67 557.203C1655.67 560.926 1652.65 563.944 1648.93 563.944H1116.54C1112.82 563.944 1109.8 560.926 1109.8 557.203Z"
    ></path>
    <path
      style="fill: var(--color-illustrationInterface020)"
      d="M1100.93 243.89C1100.93 234.312 1104.9 226.547 1109.8 226.547H1651.28C1656.19 226.547 1660.16 234.312 1660.16 243.89V355.856C1660.16 365.435 1656.19 373.2 1651.28 373.2H1109.8C1104.9 373.2 1100.93 365.435 1100.93 355.856V243.89Z"
    ></path>
    <path
      style="fill: var(--color-illustrationInterface030)"
      opacity="0.9"
      d="M791 141.846C791 133.009 798.163 125.846 807 125.846H1491.1C1499.94 125.846 1507.1 133.009 1507.1 141.846V696.245C1507.1 705.081 1499.94 712.245 1491.1 712.245H807C798.163 712.245 791 705.081 791 696.245V141.846Z"
    ></path>
    <path
      style="fill: var(--color-illustrationInterface010)"
      d="M-351.26 142.716C-351.26 133.399 -343.707 125.846 -334.39 125.846H586.088C595.406 125.846 602.958 133.399 602.958 142.716V694.159C602.958 703.476 595.405 711.029 586.088 711.029H-334.39C-343.707 711.029 -351.26 703.476 -351.26 694.159V142.716Z"
    ></path>
    <path
      style="fill: var(--color-illustrationHighlight010)"
      d="M-334.39 125.846C-343.707 125.846 -351.26 133.399 -351.26 142.716V181.574H602.958V142.716C602.958 133.399 595.406 125.846 586.088 125.846H-334.39Z"
    ></path>
    <path
      style="fill: var(--color-illustrationInterface010)"
      d="M195.266 153.221C195.266 151.061 197.017 149.31 199.177 149.31H258.816C260.975 149.31 262.726 151.061 262.726 153.221C262.726 155.381 260.975 157.132 258.816 157.132H199.177C197.017 157.132 195.266 155.381 195.266 153.221Z"
    ></path>
    <path
      style="fill: var(--color-illustrationInterface010)"
      d="M301.834 153.221C301.834 151.061 303.585 149.31 305.745 149.31H365.384C367.543 149.31 369.294 151.061 369.294 153.221C369.294 155.381 367.543 157.132 365.384 157.132H305.745C303.585 157.132 301.834 155.381 301.834 153.221Z"
    ></path>
    <path
      style="fill: var(--color-illustrationInterface010)"
      d="M408.402 153.221C408.402 151.061 410.153 149.31 412.312 149.31H471.951C474.111 149.31 475.862 151.061 475.862 153.221C475.862 155.381 474.111 157.132 471.951 157.132H412.312C410.153 157.132 408.402 155.381 408.402 153.221Z"
    ></path>
    <path
      style="fill: var(--color-illustrationInterface010)"
      d="M514.969 153.221C514.969 151.061 516.72 149.31 518.88 149.31H578.519C580.679 149.31 582.43 151.061 582.43 153.221C582.43 155.381 580.679 157.132 578.519 157.132H518.88C516.72 157.132 514.969 155.381 514.969 153.221Z"
    ></path>
    <path
      style="fill: var(--color-illustrationInterface020)"
      fill-rule="evenodd"
      clip-rule="evenodd"
      d="M-27.6247 419.846C-30.2938 419.846 -32.4575 422.01 -32.4575 424.68C-32.4575 427.35 -30.2938 429.514 -27.6247 429.514H354.167C356.836 429.514 359 427.35 359 424.68C359 422.01 356.836 419.846 354.167 419.846H-27.6247ZM-27.6241 444.984C-30.2932 444.984 -32.4569 447.149 -32.4569 449.819C-32.4569 452.488 -30.2932 454.653 -27.6241 454.653H272.01C274.679 454.653 276.843 452.488 276.843 449.819C276.843 447.149 274.679 444.984 272.01 444.984H-27.6241ZM-27.6241 495.261C-30.2932 495.261 -32.4569 497.426 -32.4569 500.095C-32.4569 502.765 -30.2932 504.93 -27.6241 504.93H354.168C356.837 504.93 359 502.765 359 500.095C359 497.426 356.837 495.261 354.168 495.261H-27.6241ZM-32.4569 550.372C-32.4569 547.703 -30.2932 545.538 -27.6241 545.538H354.168C356.837 545.538 359 547.703 359 550.372C359 553.042 356.837 555.207 354.168 555.207H-27.6241C-30.2932 555.207 -32.4569 553.042 -32.4569 550.372ZM-27.6241 470.123C-30.2932 470.123 -32.4569 472.287 -32.4569 474.957C-32.4569 477.627 -30.2932 479.791 -27.6241 479.791H354.168C356.837 479.791 359 477.627 359 474.957C359 472.287 356.837 470.123 354.168 470.123H-27.6241ZM-32.4569 525.234C-32.4569 522.564 -30.2932 520.4 -27.6241 520.4H354.168C356.837 520.4 359 522.564 359 525.234C359 527.904 356.837 530.068 354.168 530.068H-27.6241C-30.2932 530.068 -32.4569 527.904 -32.4569 525.234Z"
    ></path>
    <path
      style="fill: var(--color-illustrationInterface020)"
      d="M-33.0317 243.375C-33.0317 234.081 -29.1755 226.547 -24.4185 226.547H500.987C505.744 226.547 509.6 234.081 509.6 243.375V352.017C509.6 361.311 505.744 368.846 500.987 368.846H-24.4185C-29.1755 368.846 -33.0317 361.311 -33.0317 352.017V243.375Z"
    ></path>
    <path
      style="fill: var(--color-illustrationInterface020)"
      d="M509.6 711.029H-33.0317V646.674C-33.0317 637.38 -29.1755 629.846 -24.4185 629.846H500.987C505.744 629.846 509.6 637.38 509.6 646.674V711.029Z"
    ></path>
    <path
      style="fill: var(--color-illustrationInterface020)"
      d="M387 424.846C387 422.084 389.239 419.846 392 419.846H510C512.762 419.846 515 422.084 515 424.846V473.846C515 476.607 512.762 478.846 510 478.846H392C389.239 478.846 387 476.607 387 473.846V424.846Z"
    ></path>
    <path
      style="fill: var(--color-illustrationHighlight010)"
      d="M391 534C391 523.507 399.552 515 410.102 515H494.898C505.448 515 514 523.507 514 534C514 544.493 505.448 553 494.898 553H410.102C399.552 553 391 544.493 391 534Z"
    ></path>
    <g filter="url(#nk-233)">
      <path
        style="fill: var(--color-illustrationInterface010)"
        d="M957 274.676C957 270.902 960.06 267.842 963.834 267.842H1350.17C1353.94 267.842 1357 270.902 1357 274.676V578.007C1357 581.782 1353.94 584.842 1350.17 584.842H963.834C960.06 584.842 957 581.782 957 578.007V274.676Z"
      ></path>
    </g>
    <path
      style="fill: var(--color-illustrationHighlight010)"
      d="M1003.13 302.18L1001.1 300.152L993.066 308.19L985.027 300.152L983 302.18L991.038 310.218L983 318.256L985.027 320.283L993.066 312.245L1001.1 320.283L1003.13 318.256L995.093 310.218L1003.13 302.18Z"
    ></path>
    <path
      style="fill: var(--color-illustrationInterface020)"
      d="M983.002 436.237C983.002 433.71 985.05 431.662 987.577 431.662H1323.42C1325.95 431.662 1328 433.71 1328 436.237C1328 438.764 1325.95 440.812 1323.42 440.812H987.577C985.05 440.812 983.002 438.764 983.002 436.237Z"
    ></path>
    <path
      style="fill: var(--color-illustrationInterface020)"
      d="M983.002 411.327C983.002 408.519 985.278 406.243 988.086 406.243H1322.92C1325.72 406.243 1328 408.519 1328 411.327C1328 414.135 1325.72 416.411 1322.92 416.411H988.086C985.278 416.411 983.002 414.135 983.002 411.327Z"
    ></path>
    <path
      style="fill: var(--color-illustrationInterface030)"
      d="M983.002 386.417C983.002 383.89 985.051 381.842 987.578 381.842H1152.61C1155.14 381.842 1157.19 383.89 1157.19 386.417C1157.19 388.944 1155.14 390.992 1152.61 390.992H987.578C985.051 390.992 983.002 388.944 983.002 386.417Z"
    ></path>
    <path
      style="fill: var(--color-illustrationInterface030)"
      d="M1055.86 461.123C1055.86 458.517 1057.98 456.404 1060.58 456.404H1075.77C1078.38 456.404 1080.49 458.517 1080.49 461.123C1080.49 463.729 1078.38 465.842 1075.77 465.842H1060.58C1057.98 465.842 1055.86 463.729 1055.86 461.123Z"
    ></path>
    <path
      style="fill: var(--color-illustrationInterface030)"
      d="M983 461.123C983 458.517 985.113 456.404 987.719 456.404H1036.78C1039.38 456.404 1041.5 458.517 1041.5 461.123C1041.5 463.729 1039.38 465.842 1036.78 465.842H987.719C985.113 465.842 983 463.729 983 461.123Z"
    ></path>
    <path
      style="fill: var(--color-illustrationHighlight010)"
      fill-rule="evenodd"
      clip-rule="evenodd"
      d="M1328 349.842H983V348.842H1328V349.842Z"
    ></path>
    <path
      style="fill: var(--color-illustrationHighlight010)"
      d="M1162 529.342C1162 516.363 1172.52 505.842 1185.5 505.842H1309.5C1322.48 505.842 1333 516.363 1333 529.342C1333 542.32 1322.48 552.842 1309.5 552.842H1185.5C1172.52 552.842 1162 542.32 1162 529.342Z"
    ></path>
    <path
      style="fill: var(--color-illustrationHighlight010)"
      d="M1290.02 299.412V302.968H1285.26V317.634H1280.89V302.968H1276.13V299.412H1290.02Z"
    ></path>
    <path
      style="fill: var(--color-illustrationHighlight010)"
      d="M1294.41 301.644C1293.64 301.644 1293.01 301.419 1292.52 300.969C1292.04 300.502 1291.8 299.931 1291.8 299.256C1291.8 298.564 1292.04 297.993 1292.52 297.543C1293.01 297.075 1293.64 296.842 1294.41 296.842C1295.16 296.842 1295.77 297.075 1296.25 297.543C1296.74 297.993 1296.99 298.564 1296.99 299.256C1296.99 299.931 1296.74 300.502 1296.25 300.969C1295.77 301.419 1295.16 301.644 1294.41 301.644ZM1296.58 303.15V317.634H1292.21V303.15H1296.58Z"
    ></path>
    <path
      style="fill: var(--color-illustrationHighlight010)"
      d="M1307.7 313.87V317.634H1305.48C1303.89 317.634 1302.66 317.245 1301.77 316.466C1300.89 315.67 1300.44 314.381 1300.44 312.598V306.836H1298.7V303.15H1300.44V299.619H1304.81V303.15H1307.68V306.836H1304.81V312.65C1304.81 313.083 1304.92 313.394 1305.12 313.585C1305.33 313.775 1305.67 313.87 1306.14 313.87H1307.7Z"
    ></path>
    <path
      style="fill: var(--color-illustrationHighlight010)"
      d="M1314.51 298.425V317.634H1310.14V298.425H1314.51Z"
    ></path>
    <path
      style="fill: var(--color-illustrationHighlight010)"
      d="M1331.13 310.158C1331.13 310.574 1331.11 311.006 1331.05 311.456H1321.16C1321.23 312.356 1321.51 313.048 1322 313.533C1322.51 314 1323.14 314.234 1323.87 314.234C1324.96 314.234 1325.72 313.766 1326.14 312.832H1330.8C1330.56 313.784 1330.13 314.64 1329.49 315.402C1328.88 316.163 1328.11 316.76 1327.17 317.193C1326.23 317.625 1325.18 317.842 1324.02 317.842C1322.62 317.842 1321.38 317.539 1320.29 316.933C1319.2 316.328 1318.35 315.462 1317.73 314.337C1317.12 313.213 1316.81 311.897 1316.81 310.392C1316.81 308.886 1317.11 307.571 1317.71 306.446C1318.32 305.321 1319.17 304.456 1320.26 303.85C1321.35 303.245 1322.61 302.942 1324.02 302.942C1325.4 302.942 1326.63 303.236 1327.7 303.824C1328.78 304.413 1329.61 305.252 1330.21 306.342C1330.82 307.433 1331.13 308.705 1331.13 310.158ZM1326.66 308.99C1326.66 308.229 1326.4 307.623 1325.89 307.173C1325.38 306.723 1324.74 306.498 1323.97 306.498C1323.24 306.498 1322.62 306.714 1322.1 307.147C1321.61 307.58 1321.3 308.194 1321.18 308.99H1326.66Z"
    ></path>
    <path
      style="fill: var(--color-illustrationHighlight010)"
      d="M847.576 480.978L833.243 488.339C831.589 489.189 829.62 487.989 829.62 486.131L829.62 471.814C829.62 469.98 831.541 468.778 833.193 469.58L847.526 476.535C849.369 477.43 849.399 480.042 847.576 480.978Z"
    ></path>
    <path
      style="fill: var(--color-illustrationHighlight010)"
      fill-rule="evenodd"
      clip-rule="evenodd"
      d="M542 535.52C542 536.252 542.573 536.846 543.279 536.846L545.879 536.846C546.586 536.846 547.159 536.252 547.159 535.52C547.159 534.787 546.586 534.194 545.879 534.194H543.279C542.573 534.194 542 534.787 542 535.52ZM549.799 535.52C549.799 536.252 550.372 536.846 551.078 536.846L556.277 536.846C556.984 536.846 557.557 536.252 557.557 535.52C557.557 534.787 556.984 534.194 556.277 534.194L551.078 534.194C550.372 534.194 549.799 534.787 549.799 535.52ZM560.197 535.52C560.197 536.252 560.77 536.846 561.477 536.846L566.676 536.846C567.382 536.846 567.955 536.252 567.955 535.52C567.955 534.787 567.382 534.194 566.676 534.194H561.477C560.77 534.194 560.197 534.787 560.197 535.52ZM570.596 535.52C570.596 536.252 571.168 536.846 571.875 536.846L577.074 536.846C577.781 536.846 578.354 536.252 578.354 535.52C578.354 534.787 577.781 534.194 577.074 534.194H571.875C571.168 534.194 570.596 534.787 570.596 535.52ZM580.994 535.52C580.994 536.252 581.567 536.846 582.273 536.846L587.473 536.846C588.179 536.846 588.752 536.252 588.752 535.52C588.752 534.787 588.179 534.194 587.473 534.194L582.273 534.194C581.567 534.194 580.994 534.787 580.994 535.52ZM591.392 535.52C591.392 536.252 591.965 536.846 592.672 536.846L597.871 536.846C598.578 536.846 599.151 536.252 599.151 535.52C599.151 534.787 598.578 534.194 597.871 534.194H592.672C591.965 534.194 591.392 534.787 591.392 535.52ZM601.791 535.52C601.791 536.252 602.364 536.846 603.07 536.846L608.269 536.846C608.976 536.846 609.549 536.252 609.549 535.52C609.549 534.787 608.976 534.194 608.269 534.194L603.07 534.194C602.364 534.194 601.791 534.787 601.791 535.52ZM612.189 535.52C612.189 536.252 612.762 536.846 613.469 536.846L618.668 536.846C619.374 536.846 619.947 536.252 619.947 535.52C619.947 534.787 619.374 534.194 618.668 534.194H613.469C612.762 534.194 612.189 534.787 612.189 535.52ZM622.588 535.52C622.588 536.252 623.16 536.846 623.867 536.846L629.066 536.846C629.773 536.846 630.346 536.252 630.346 535.52C630.346 534.787 629.773 534.194 629.066 534.194H623.867C623.16 534.194 622.588 534.787 622.588 535.52ZM632.986 535.52C632.986 536.252 633.559 536.846 634.265 536.846L639.465 536.846C640.171 536.846 640.744 536.252 640.744 535.52C640.744 534.787 640.171 534.194 639.465 534.194L634.265 534.194C633.559 534.194 632.986 534.787 632.986 535.52ZM643.384 535.52C643.384 536.252 643.957 536.846 644.664 536.846L649.863 536.846C650.57 536.846 651.142 536.252 651.142 535.52C651.142 534.787 650.57 534.194 649.863 534.194H644.664C643.957 534.194 643.384 534.787 643.384 535.52ZM653.783 535.52C653.783 536.252 654.356 536.846 655.062 536.846L660.261 536.846C660.968 536.846 661.541 536.252 661.541 535.52C661.541 534.787 660.968 534.194 660.261 534.194L655.062 534.194C654.356 534.194 653.783 534.787 653.783 535.52ZM664.181 535.52C664.181 536.252 664.754 536.846 665.461 536.846L668.06 536.846C668.948 536.846 669.827 536.801 670.693 536.714C671.397 536.643 671.911 535.994 671.843 535.265C671.774 534.536 671.149 534.003 670.445 534.074C669.661 534.153 668.865 534.194 668.06 534.194H665.461C664.754 534.194 664.181 534.787 664.181 535.52ZM674.266 534.769C674.471 535.47 675.186 535.866 675.862 535.653C677.562 535.119 679.191 534.416 680.729 533.562C681.352 533.216 681.587 532.412 681.253 531.767C680.919 531.121 680.144 530.878 679.521 531.224C678.129 531.996 676.657 532.632 675.12 533.115C674.444 533.327 674.062 534.068 674.266 534.769ZM683.306 530.342C683.754 530.908 684.561 530.99 685.106 530.525C686.466 529.367 687.714 528.074 688.83 526.665C689.279 526.099 689.2 525.264 688.654 524.799C688.108 524.334 687.302 524.416 686.853 524.982C685.842 526.257 684.713 527.428 683.482 528.476C682.936 528.941 682.857 529.776 683.306 530.342ZM690.029 522.671C690.651 523.017 691.427 522.774 691.761 522.128C692.585 520.534 693.264 518.846 693.779 517.084C693.984 516.383 693.601 515.643 692.925 515.43C692.249 515.218 691.534 515.614 691.33 516.315C690.864 517.908 690.25 519.434 689.505 520.876C689.171 521.522 689.406 522.326 690.029 522.671ZM693.404 512.918C694.108 512.989 694.733 512.456 694.802 511.727C694.886 510.829 694.929 509.918 694.929 508.998V507.672C694.929 506.94 694.357 506.347 693.651 506.346C694.357 506.345 694.929 505.751 694.929 505.02V503.694C694.929 502.859 694.968 502.034 695.045 501.221C695.113 500.492 694.598 499.844 693.895 499.773C693.192 499.702 692.566 500.236 692.498 500.964C692.413 501.863 692.37 502.773 692.37 503.694V505.02C692.37 505.751 692.942 506.345 693.648 506.346C692.942 506.347 692.37 506.94 692.37 507.672V508.998C692.37 509.832 692.331 510.657 692.255 511.47C692.186 512.199 692.701 512.847 693.404 512.918ZM694.374 497.261C695.051 497.474 695.765 497.077 695.97 496.377C696.435 494.784 697.049 493.258 697.795 491.815C698.128 491.17 697.894 490.366 697.271 490.02C696.648 489.674 695.872 489.917 695.539 490.563C694.715 492.158 694.036 493.846 693.521 495.608C693.316 496.308 693.698 497.049 694.374 497.261ZM698.645 487.893C699.191 488.358 699.997 488.276 700.446 487.71C701.457 486.434 702.587 485.264 703.817 484.216C704.363 483.751 704.442 482.915 703.994 482.349C703.545 481.783 702.739 481.702 702.193 482.167C700.833 483.324 699.586 484.617 698.469 486.026C698.02 486.592 698.099 487.428 698.645 487.893ZM706.046 480.925C706.38 481.57 707.155 481.813 707.778 481.468C709.17 480.695 710.643 480.059 712.179 479.576C712.856 479.364 713.238 478.624 713.033 477.923C712.828 477.222 712.114 476.826 711.437 477.038C709.737 477.572 708.109 478.276 706.57 479.13C705.947 479.476 705.713 480.279 706.046 480.925ZM715.457 477.426C715.525 478.155 716.151 478.688 716.854 478.618C717.638 478.538 718.434 478.498 719.239 478.498H721.841C722.548 478.498 723.121 477.904 723.121 477.172C723.121 476.439 722.548 475.846 721.841 475.846H719.239C718.351 475.846 717.473 475.89 716.606 475.978C715.903 476.049 715.388 476.697 715.457 477.426ZM725.765 477.172C725.765 477.904 726.338 478.498 727.045 478.498H732.248C732.955 478.498 733.528 477.904 733.528 477.172C733.528 476.439 732.955 475.846 732.248 475.846H727.045C726.338 475.846 725.765 476.439 725.765 477.172ZM736.173 477.172C736.173 477.904 736.745 478.498 737.452 478.498H742.656C743.362 478.498 743.935 477.904 743.935 477.172C743.935 476.439 743.362 475.846 742.656 475.846H737.452C736.745 475.846 736.173 476.439 736.173 477.172ZM746.58 477.172C746.58 477.904 747.153 478.498 747.86 478.498H753.063C753.77 478.498 754.343 477.904 754.343 477.172C754.343 476.439 753.77 475.846 753.063 475.846H747.86C747.153 475.846 746.58 476.439 746.58 477.172ZM756.987 477.172C756.987 477.904 757.56 478.498 758.267 478.498H763.471C764.177 478.498 764.75 477.904 764.75 477.172C764.75 476.439 764.177 475.846 763.471 475.846H758.267C757.56 475.846 756.987 476.439 756.987 477.172ZM767.395 477.172C767.395 477.904 767.968 478.498 768.674 478.498H773.878C774.585 478.498 775.157 477.904 775.157 477.172C775.157 476.439 774.585 475.846 773.878 475.846H768.674C767.968 475.846 767.395 476.439 767.395 477.172ZM777.802 477.172C777.802 477.904 778.375 478.498 779.082 478.498H784.285C784.992 478.498 785.565 477.904 785.565 477.172C785.565 476.439 784.992 475.846 784.285 475.846H779.082C778.375 475.846 777.802 476.439 777.802 477.172ZM788.21 477.172C788.21 477.904 788.782 478.498 789.489 478.498H794.693C795.399 478.498 795.972 477.904 795.972 477.172C795.972 476.439 795.399 475.846 794.693 475.846H789.489C788.782 475.846 788.21 476.439 788.21 477.172ZM798.617 477.172C798.617 477.904 799.19 478.498 799.897 478.498H805.1C805.807 478.498 806.38 477.904 806.38 477.172C806.38 476.439 805.807 475.846 805.1 475.846H799.897C799.19 475.846 798.617 476.439 798.617 477.172ZM809.024 477.172C809.024 477.904 809.597 478.498 810.304 478.498H815.508C816.214 478.498 816.787 477.904 816.787 477.172C816.787 476.439 816.214 475.846 815.508 475.846H810.304C809.597 475.846 809.024 476.439 809.024 477.172ZM819.432 477.172C819.432 477.904 820.005 478.498 820.711 478.498H825.915C826.622 478.498 827.194 477.904 827.194 477.172C827.194 476.439 826.622 475.846 825.915 475.846H820.711C820.005 475.846 819.432 476.439 819.432 477.172ZM829.839 477.172C829.839 477.904 830.412 478.498 831.119 478.498H833.721C834.427 478.498 835 477.904 835 477.172C835 476.439 834.427 475.846 833.721 475.846H831.119C830.412 475.846 829.839 476.439 829.839 477.172Z"
    ></path>
    <g filter="url(#nk-234)">
      <path
        style="fill: var(--color-white)"
        fill-rule="evenodd"
        clip-rule="evenodd"
        d="M989.308 361.989L986.418 357.574C984.445 354.56 980.243 353.46 977.028 355.112L977.777 354.727C976.98 355.137 976.597 356.16 976.926 357.01L980.925 367.358C981.559 368.998 983.179 371.318 984.521 372.484C984.521 372.484 992.567 379.144 992.567 381.641V384.802H1005.6H1009.17H1012.12H1015.38V381.641C1015.38 379.144 1020.3 371.279 1020.3 371.279C1021.2 369.75 1021.96 367.057 1021.96 365.269V352.12C1021.9 349.209 1019.42 346.85 1016.37 346.85C1014.84 346.85 1013.6 348.029 1013.6 349.486V350.539C1013.6 347.628 1011.13 345.268 1008.08 345.268C1006.55 345.268 1005.31 346.448 1005.31 347.904V348.958C1005.31 346.046 1002.84 343.687 999.783 343.687C998.256 343.687 997.018 344.867 997.018 346.323V347.376C997.018 346.908 996.968 346.536 996.872 346.242L996.028 332.662C995.914 330.826 994.367 329.399 992.567 329.399C990.754 329.399 989.308 330.858 989.308 332.658V345.694V361.989Z"
      ></path>
      <path
        style="fill: var(--color-black)"
        fill-rule="evenodd"
        clip-rule="evenodd"
        d="M977.802 354.774C980.389 353.827 983.415 354.483 985.397 356.356C985.78 356.717 986.124 357.124 986.419 357.574L989.308 361.989V332.658C989.308 330.858 990.754 329.4 992.567 329.4C994.367 329.4 995.914 330.826 996.028 332.662L996.872 346.242C996.881 346.268 996.889 346.295 996.897 346.323C996.977 346.604 997.018 346.95 997.018 347.376V346.323C997.018 346.293 997.019 346.263 997.02 346.233C997.021 346.219 997.021 346.206 997.022 346.193C997.093 344.797 998.302 343.687 999.783 343.687C1000.07 343.687 1000.36 343.708 1000.64 343.749C1001.29 343.846 1001.91 344.052 1002.46 344.347C1003.85 345.083 1004.88 346.373 1005.2 347.904C1005.27 348.245 1005.31 348.597 1005.31 348.958V347.904C1005.31 346.448 1006.55 345.268 1008.08 345.268C1008.2 345.268 1008.32 345.272 1008.44 345.28C1009.28 345.332 1010.06 345.561 1010.76 345.928C1012.15 346.664 1013.17 347.954 1013.49 349.486C1013.57 349.826 1013.6 350.178 1013.6 350.539V349.486C1013.6 348.029 1014.84 346.85 1016.37 346.85C1016.49 346.85 1016.61 346.854 1016.73 346.861C1019.62 347.04 1021.9 349.326 1021.96 352.12V365.269C1021.96 367.057 1021.2 369.751 1020.3 371.279C1020.3 371.279 1015.38 379.144 1015.38 381.641V384.802H992.567V381.641C992.567 379.144 984.521 372.484 984.521 372.484C983.179 371.318 981.559 368.998 980.925 367.358L976.926 357.01C976.707 356.443 976.804 355.798 977.131 355.311C977.242 355.144 977.38 354.996 977.541 354.876C977.627 354.84 977.714 354.806 977.802 354.774ZM977.029 355.113C977.197 355.026 977.368 354.947 977.541 354.876C977.615 354.82 977.694 354.77 977.778 354.727L977.029 355.113ZM975.269 351.691C973.176 353.202 972.345 356.005 973.278 358.42L977.278 368.768C978.139 370.997 980.128 373.848 981.956 375.436L981.991 375.467L982.026 375.496L982.027 375.497L982.041 375.508L982.099 375.557C982.152 375.601 982.231 375.668 982.334 375.755C982.54 375.93 982.837 376.185 983.195 376.5C983.916 377.134 984.865 377.993 985.803 378.915C986.758 379.854 987.62 380.778 988.216 381.549C988.421 381.814 988.563 382.021 988.656 382.171V388.712H1019.29V381.707C1019.29 381.724 1019.29 381.732 1019.29 381.733C1019.31 381.735 1019.38 381.367 1019.75 380.493C1020.14 379.567 1020.69 378.471 1021.28 377.381C1021.86 376.303 1022.45 375.291 1022.89 374.544C1023.11 374.172 1023.3 373.87 1023.42 373.662C1023.49 373.558 1023.53 373.478 1023.57 373.426L1023.6 373.368L1023.61 373.353L1023.64 373.312L1023.66 373.272C1024.34 372.118 1024.87 370.714 1025.23 369.417C1025.59 368.122 1025.87 366.633 1025.87 365.269V352.081L1025.87 352.041C1025.76 346.876 1021.42 342.939 1016.37 342.939C1015.54 342.939 1014.73 343.092 1013.98 343.377C1012.34 342.103 1010.27 341.358 1008.08 341.358C1007.25 341.358 1006.44 341.511 1005.69 341.795C1004.2 340.64 1002.35 339.919 1000.39 339.795L999.932 332.42C999.689 328.508 996.419 325.489 992.567 325.489C988.586 325.489 985.397 328.708 985.397 332.658V351.641C982.518 350.208 979.053 350.004 976.005 351.279M988.789 382.413C988.788 382.413 988.781 382.399 988.771 382.372C988.785 382.4 988.79 382.414 988.789 382.413ZM975.269 351.691L975.241 351.634L975.99 351.249"
      ></path>
    </g>
    <g filter="url(#nk-235)">
      <path
        style="fill: var(--color-white)"
        fill-rule="evenodd"
        clip-rule="evenodd"
        d="M487.308 577.989L484.418 573.574C482.445 570.56 478.243 569.46 475.028 571.112L475.777 570.727C474.98 571.137 474.597 572.16 474.926 573.01L478.925 583.358C479.559 584.998 481.179 587.318 482.521 588.484C482.521 588.484 490.567 595.144 490.567 597.641V600.802H503.603H507.167H510.12H513.379V597.641C513.379 595.144 518.297 587.279 518.297 587.279C519.202 585.75 519.956 583.057 519.956 581.269V568.12C519.897 565.209 517.423 562.85 514.369 562.85C512.842 562.85 511.604 564.029 511.604 565.486V566.539C511.604 563.628 509.13 561.268 506.076 561.268C504.549 561.268 503.311 562.448 503.311 563.904V564.958C503.311 562.046 500.837 559.687 497.783 559.687C496.256 559.687 495.018 560.867 495.018 562.323V563.376C495.018 562.908 494.968 562.536 494.872 562.242L494.028 548.662C493.914 546.826 492.367 545.399 490.567 545.399C488.754 545.399 487.308 546.858 487.308 548.658V561.694V577.989Z"
      ></path>
      <path
        style="fill: var(--color-black)"
        fill-rule="evenodd"
        clip-rule="evenodd"
        d="M475.802 570.774C478.389 569.827 481.415 570.483 483.397 572.356C483.78 572.717 484.124 573.124 484.419 573.574L487.308 577.989V548.658C487.308 546.858 488.754 545.4 490.567 545.4C492.367 545.4 493.914 546.826 494.028 548.662L494.872 562.242C494.881 562.268 494.889 562.295 494.897 562.323C494.977 562.604 495.018 562.95 495.018 563.376V562.323C495.018 562.293 495.019 562.263 495.02 562.233C495.021 562.219 495.021 562.206 495.022 562.193C495.093 560.797 496.302 559.687 497.783 559.687C498.073 559.687 498.358 559.708 498.635 559.749C499.29 559.846 499.907 560.052 500.464 560.347C501.854 561.083 502.875 562.373 503.201 563.904C503.273 564.245 503.311 564.597 503.311 564.958V563.904C503.311 562.448 504.549 561.268 506.076 561.268C506.199 561.268 506.321 561.272 506.442 561.28C507.278 561.332 508.063 561.561 508.757 561.928C510.147 562.664 511.168 563.954 511.494 565.486C511.566 565.826 511.604 566.178 511.604 566.539V565.486C511.604 564.029 512.842 562.85 514.369 562.85C514.492 562.85 514.614 562.854 514.735 562.861C517.618 563.04 519.9 565.326 519.956 568.12V581.269C519.956 583.057 519.202 585.751 518.297 587.279C518.297 587.279 513.38 595.144 513.38 597.641V600.802H490.567V597.641C490.567 595.144 482.521 588.484 482.521 588.484C481.179 587.318 479.559 584.998 478.925 583.358L474.926 573.01C474.707 572.443 474.804 571.798 475.131 571.311C475.242 571.144 475.38 570.996 475.541 570.876C475.627 570.84 475.714 570.806 475.802 570.774ZM475.029 571.113C475.197 571.026 475.368 570.947 475.541 570.876C475.615 570.82 475.694 570.77 475.778 570.727L475.029 571.113ZM473.269 567.691C471.176 569.202 470.345 572.005 471.278 574.42L475.278 584.768C476.139 586.997 478.128 589.848 479.956 591.436L479.991 591.467L480.026 591.496L480.027 591.497L480.041 591.508L480.099 591.557C480.152 591.601 480.231 591.668 480.334 591.755C480.54 591.93 480.837 592.185 481.195 592.5C481.916 593.134 482.865 593.993 483.803 594.915C484.758 595.854 485.62 596.778 486.216 597.549C486.421 597.814 486.563 598.021 486.656 598.171V604.712H517.29V597.707C517.291 597.724 517.291 597.732 517.293 597.733C517.307 597.735 517.379 597.367 517.749 596.493C518.142 595.567 518.692 594.471 519.28 593.381C519.861 592.303 520.448 591.291 520.891 590.544C521.112 590.172 521.295 589.87 521.422 589.662C521.485 589.558 521.535 589.478 521.567 589.426L521.603 589.368L521.613 589.353L521.638 589.312L521.662 589.272C522.345 588.118 522.875 586.714 523.235 585.417C523.594 584.122 523.867 582.633 523.867 581.269V568.081L523.866 568.041C523.762 562.876 519.424 558.939 514.369 558.939C513.541 558.939 512.732 559.092 511.979 559.377C510.339 558.103 508.267 557.358 506.076 557.358C505.248 557.358 504.439 557.511 503.686 557.795C502.198 556.64 500.355 555.919 498.39 555.795L497.932 548.42C497.689 544.508 494.419 541.489 490.567 541.489C486.586 541.489 483.397 544.708 483.397 548.658V567.641C480.518 566.208 477.053 566.004 474.005 567.279M486.789 598.413C486.788 598.413 486.781 598.399 486.771 598.372C486.785 598.4 486.79 598.414 486.789 598.413ZM473.269 567.691L473.241 567.634L473.99 567.249"
      ></path>
    </g>
  </g>
  <defs>
    <filter
      id="nk-233"
      x="941"
      y="259.842"
      width="432"
      height="349"
      filterUnits="userSpaceOnUse"
      color-interpolation-filters="sRGB"
    >
      <feFlood flood-opacity="0" result="BackgroundImageFix"></feFlood>
      <feColorMatrix
        in="SourceAlpha"
        type="matrix"
        values="0 0 0 0 0 0 0 0 0 0 0 0 0 0 0 0 0 0 127 0"
        result="hardAlpha"
      ></feColorMatrix>
      <feOffset dy="8"></feOffset>
      <feGaussianBlur stdDeviation="8"></feGaussianBlur>
      <feColorMatrix
        type="matrix"
        values="0 0 0 0 0.0392157 0 0 0 0 0.0392157 0 0 0 0 0.0392157 0 0 0 0.08 0"
      ></feColorMatrix>
      <feBlend
        mode="normal"
        in2="BackgroundImageFix"
        result="effect1_dropShadow_2711_78279"
      ></feBlend>
      <feBlend
        mode="normal"
        in="SourceGraphic"
        in2="effect1_dropShadow_2711_78279"
        result="shape"
      ></feBlend>
    </filter>
    <filter
      id="nk-234"
      x="931"
      y="301.846"
      width="136.287"
      height="136.287"
      filterUnits="userSpaceOnUse"
      color-interpolation-filters="sRGB"
    >
      <feFlood flood-opacity="0" result="BackgroundImageFix"></feFlood>
      <feColorMatrix
        in="SourceAlpha"
        type="matrix"
        values="0 0 0 0 0 0 0 0 0 0 0 0 0 0 0 0 0 0 127 0"
        result="hardAlpha"
      ></feColorMatrix>
      <feOffset dy="8"></feOffset>
      <feGaussianBlur stdDeviation="8"></feGaussianBlur>
      <feColorMatrix
        type="matrix"
        values="0 0 0 0 0.0392157 0 0 0 0 0.0392157 0 0 0 0 0.0392157 0 0 0 0.08 0"
      ></feColorMatrix>
      <feBlend
        mode="normal"
        in2="BackgroundImageFix"
        result="effect1_dropShadow_2711_78279"
      ></feBlend>
      <feBlend
        mode="normal"
        in="SourceGraphic"
        in2="effect1_dropShadow_2711_78279"
        result="shape"
      ></feBlend>
    </filter>
    <filter
      id="nk-235"
      x="429"
      y="517.846"
      width="136.287"
      height="136.287"
      filterUnits="userSpaceOnUse"
      color-interpolation-filters="sRGB"
    >
      <feFlood flood-opacity="0" result="BackgroundImageFix"></feFlood>
      <feColorMatrix
        in="SourceAlpha"
        type="matrix"
        values="0 0 0 0 0 0 0 0 0 0 0 0 0 0 0 0 0 0 127 0"
        result="hardAlpha"
      ></feColorMatrix>
      <feOffset dy="8"></feOffset>
      <feGaussianBlur stdDeviation="8"></feGaussianBlur>
      <feColorMatrix
        type="matrix"
        values="0 0 0 0 0.0392157 0 0 0 0 0.0392157 0 0 0 0 0.0392157 0 0 0 0.08 0"
      ></feColorMatrix>
      <feBlend
        mode="normal"
        in2="BackgroundImageFix"
        result="effect1_dropShadow_2711_78279"
      ></feBlend>
      <feBlend
        mode="normal"
        in="SourceGraphic"
        in2="effect1_dropShadow_2711_78279"
        result="shape"
      ></feBlend>
    </filter>
    <clipPath id="nk-232">
      <rect style="fill: var(--color-white)" width="1490" height="838"></rect>
    </clipPath>
  </defs>
</svg>
