<svg id="nksvg" style="width: 100%; height: 100%" width="1490" height="838" viewBox="0 0 1490 838" fill="none" xmlns="http://www.w3.org/2000/svg" class="css-0">
  <g clip-path="url(#nk-99)">
    <path style="fill: var(--color-illustrationBackground020)" d="M0 0H1490V838H0V0Z"></path>
    <path style="fill: var(--color-illustrationHighlight010)" d="M542.091 60.8315C541.207 59.6179 542.073 57.9131 543.574 57.9131L579.185 57.9131C580.686 57.9131 581.552 59.6179 580.668 60.8314L562.863 85.2606C562.13 86.2665 560.63 86.2665 559.897 85.2606L542.091 60.8315Z"></path>
    <path style="fill: var(--color-illustrationHighlight010)" d="M542.091 93.8859C541.207 92.6724 542.073 90.9675 543.574 90.9675L579.185 90.9675C580.686 90.9675 581.552 92.6723 580.668 93.8859L562.863 118.315C562.13 119.321 560.63 119.321 559.897 118.315L542.091 93.8859Z"></path>
    <path style="fill: var(--color-illustrationHighlight010)" d="M905.92 60.8315C905.035 59.6179 905.901 57.9131 907.403 57.9131L943.013 57.9131C944.514 57.9131 945.38 59.6179 944.496 60.8314L926.691 85.2606C925.958 86.2665 924.458 86.2665 923.725 85.2606L905.92 60.8315Z"></path>
    <path style="fill: var(--color-illustrationHighlight010)" d="M905.92 93.8859C905.035 92.6724 905.901 90.9675 907.403 90.9675L943.013 90.9675C944.514 90.9675 945.38 92.6723 944.496 93.8859L926.691 118.315C925.958 119.321 924.458 119.321 923.725 118.315L905.92 93.8859Z"></path>
    <path style="fill: var(--color-illustrationInterface020)" d="M-102.953 169.823C-102.953 160.484 -95.3825 152.913 -86.0436 152.913H596.238C605.577 152.913 613.148 160.484 613.148 169.823V722.402C613.148 731.741 605.577 739.312 596.238 739.312H-86.0436C-95.3825 739.312 -102.953 731.741 -102.953 722.402V169.823Z"></path>
    <g>
      <path style="fill: var(--color-illustrationInterface010)" d="M613.447 159.611C613.447 155.912 610.448 152.913 606.749 152.913H229.111C225.413 152.913 222.414 155.912 222.414 159.611V733.216C222.414 736.915 225.413 739.913 229.111 739.913H606.749C610.448 739.913 613.447 736.915 613.447 733.216V159.611Z"></path>
    </g>
    <path style="fill: var(--color-illustrationInterface020)" d="M252.544 310.329C252.544 307.705 254.671 305.578 257.294 305.578H577.238C579.861 305.578 581.988 307.705 581.988 310.329V310.329C581.988 312.952 579.861 315.079 577.238 315.079H257.294C254.671 315.079 252.544 312.952 252.544 310.329V310.329Z"></path>
    <path style="fill: var(--color-illustrationInterface020)" d="M252.544 473.958C252.544 471.334 254.671 469.208 257.294 469.208H577.238C579.861 469.208 581.988 471.334 581.988 473.958V473.958C581.988 476.582 579.861 478.709 577.238 478.709H257.294C254.671 478.709 252.544 476.582 252.544 473.958V473.958Z"></path>
    <path style="fill: var(--color-illustrationInterface020)" d="M252.544 686.437C252.544 683.654 254.8 681.398 257.583 681.398H576.95C579.732 681.398 581.988 683.654 581.988 686.437V686.917C581.988 689.699 579.732 691.955 576.95 691.955H257.583C254.8 691.955 252.544 689.699 252.544 686.917V686.437Z"></path>
    <path style="fill: var(--color-illustrationInterface020)" d="M252.544 660.045C252.544 657.262 254.8 655.006 257.583 655.006H576.95C579.732 655.006 581.988 657.262 581.988 660.045V661.58C581.988 664.363 579.732 666.619 576.95 666.619H257.583C254.8 666.619 252.544 664.363 252.544 661.58V660.045Z"></path>
    <path style="fill: var(--color-illustrationInterface020)" d="M252.544 335.953C252.544 333.17 254.8 330.915 257.583 330.915H576.95C579.732 330.915 581.988 333.17 581.988 335.953V336.433C581.988 339.215 579.732 341.471 576.95 341.471H257.583C254.8 341.471 252.544 339.215 252.544 336.433V335.953Z"></path>
    <path style="fill: var(--color-illustrationInterface020)" d="M252.544 362.345C252.544 359.562 254.8 357.306 257.583 357.306H576.95C579.732 357.306 581.988 359.562 581.988 362.345V362.825C581.988 365.607 579.732 367.863 576.95 367.863H257.583C254.8 367.863 252.544 365.607 252.544 362.825V362.345Z"></path>
    <path style="fill: var(--color-illustrationInterface020)" d="M252.544 499.583C252.544 496.8 254.8 494.544 257.583 494.544H576.95C579.732 494.544 581.988 496.8 581.988 499.583V500.062C581.988 502.845 579.732 505.101 576.95 505.101H257.583C254.8 505.101 252.544 502.845 252.544 500.062V499.583Z"></path>
    <path style="fill: var(--color-illustrationInterface020)" d="M252.544 284.225C252.544 281.442 254.8 279.187 257.583 279.187H576.95C579.732 279.187 581.988 281.442 581.988 284.225V284.705C581.988 287.487 579.732 289.743 576.95 289.743H257.583C254.8 289.743 252.544 287.487 252.544 284.705V284.225Z"></path>
    <path style="fill: var(--color-illustrationInterface020)" d="M252.544 447.855C252.544 445.072 254.8 442.816 257.583 442.816H576.95C579.732 442.816 581.988 445.072 581.988 447.855V448.334C581.988 451.117 579.732 453.373 576.95 453.373H257.583C254.8 453.373 252.544 451.117 252.544 448.334V447.855Z"></path>
    <path style="fill: var(--color-illustrationInterface030)" d="M252.544 258.601C252.544 255.977 254.671 253.85 257.294 253.85H414.125C416.749 253.85 418.876 255.977 418.876 258.601V258.601C418.876 261.224 416.749 263.351 414.125 263.351H257.294C254.671 263.351 252.544 261.224 252.544 258.601V258.601Z"></path>
    <path style="fill: var(--color-illustrationInterface030)" d="M252.544 423.286C252.544 420.662 254.671 418.535 257.294 418.535H414.125C416.749 418.535 418.876 420.662 418.876 423.286V423.286C418.876 425.909 416.749 428.036 414.125 428.036H257.294C254.671 428.036 252.544 425.909 252.544 423.286V423.286Z"></path>
    <path style="fill: var(--color-illustrationHighlight010)" d="M546.816 182.344L549.867 179.293L561.963 191.389L574.059 179.293L577.11 182.344L565.014 194.44L577.11 206.536L574.059 209.587L561.963 197.492L549.867 209.587L546.816 206.536L558.912 194.44L546.816 182.344Z"></path>
    <path style="fill: var(--color-illustrationInterface020)" d="M906 169.91C906 160.571 913.571 153 922.91 153H1605.19C1614.53 153 1622.1 160.571 1622.1 169.91V722.489C1622.1 731.828 1614.53 739.399 1605.19 739.399H922.91C913.571 739.399 906 731.828 906 722.489V169.91Z"></path>
    <g>
      <path style="fill: var(--color-illustrationInterface010)" d="M1297.46 159.697C1297.46 155.999 1294.46 153 1290.76 153H913.12C909.422 153 906.423 155.999 906.423 159.697V733.303C906.423 737.001 909.422 740 913.12 740H1290.76C1294.46 740 1297.46 737.001 1297.46 733.303V159.697Z"></path>
    </g>
    <path style="fill: var(--color-illustrationInterface020)" d="M936.553 310.416C936.553 307.792 938.68 305.665 941.303 305.665H1261.25C1263.87 305.665 1266 307.792 1266 310.416V310.416C1266 313.039 1263.87 315.166 1261.25 315.166H941.303C938.68 315.166 936.553 313.039 936.553 310.416V310.416Z"></path>
    <path style="fill: var(--color-illustrationInterface020)" d="M936.553 474.045C936.553 471.421 938.68 469.294 941.303 469.294H1261.25C1263.87 469.294 1266 471.421 1266 474.045V474.045C1266 476.669 1263.87 478.795 1261.25 478.795H941.303C938.68 478.795 936.553 476.669 936.553 474.045V474.045Z"></path>
    <path style="fill: var(--color-illustrationInterface020)" d="M936.553 686.524C936.553 683.741 938.809 681.485 941.591 681.485H1260.96C1263.74 681.485 1266 683.741 1266 686.524V687.004C1266 689.786 1263.74 692.042 1260.96 692.042H941.591C938.809 692.042 936.553 689.786 936.553 687.004V686.524Z"></path>
    <path style="fill: var(--color-illustrationInterface020)" d="M936.553 660.132C936.553 657.349 938.809 655.093 941.591 655.093H1260.96C1263.74 655.093 1266 657.349 1266 660.132V661.667C1266 664.45 1263.74 666.706 1260.96 666.706H941.591C938.809 666.706 936.553 664.45 936.553 661.667V660.132Z"></path>
    <path style="fill: var(--color-illustrationInterface020)" d="M936.553 336.04C936.553 333.257 938.809 331.001 941.591 331.001H1260.96C1263.74 331.001 1266 333.257 1266 336.04V336.52C1266 339.302 1263.74 341.558 1260.96 341.558H941.591C938.809 341.558 936.553 339.302 936.553 336.52V336.04Z"></path>
    <path style="fill: var(--color-illustrationInterface020)" d="M936.553 362.432C936.553 359.649 938.809 357.393 941.591 357.393H1260.96C1263.74 357.393 1266 359.649 1266 362.432V362.911C1266 365.694 1263.74 367.95 1260.96 367.95H941.591C938.809 367.95 936.553 365.694 936.553 362.911V362.432Z"></path>
    <path style="fill: var(--color-illustrationInterface020)" d="M936.553 499.67C936.553 496.887 938.809 494.631 941.591 494.631H1260.96C1263.74 494.631 1266 496.887 1266 499.67V500.149C1266 502.932 1263.74 505.188 1260.96 505.188H941.591C938.809 505.188 936.553 502.932 936.553 500.149V499.67Z"></path>
    <path style="fill: var(--color-illustrationInterface020)" d="M936.553 284.312C936.553 281.529 938.809 279.273 941.591 279.273H1260.96C1263.74 279.273 1266 281.529 1266 284.312V284.792C1266 287.574 1263.74 289.83 1260.96 289.83H941.591C938.809 289.83 936.553 287.574 936.553 284.792V284.312Z"></path>
    <path style="fill: var(--color-illustrationInterface020)" d="M936.553 447.941C936.553 445.159 938.809 442.903 941.591 442.903H1260.96C1263.74 442.903 1266 445.159 1266 447.941V448.421C1266 451.204 1263.74 453.46 1260.96 453.46H941.591C938.809 453.46 936.553 451.204 936.553 448.421V447.941Z"></path>
    <path style="fill: var(--color-illustrationInterface030)" d="M936.553 258.688C936.553 256.064 938.68 253.937 941.303 253.937H1098.13C1100.76 253.937 1102.88 256.064 1102.88 258.688V258.688C1102.88 261.311 1100.76 263.438 1098.13 263.438H941.303C938.68 263.438 936.553 261.311 936.553 258.688V258.688Z"></path>
    <path style="fill: var(--color-illustrationInterface030)" d="M936.553 423.373C936.553 420.749 938.68 418.622 941.303 418.622H1098.13C1100.76 418.622 1102.88 420.749 1102.88 423.373V423.373C1102.88 425.996 1100.76 428.123 1098.13 428.123H941.303C938.68 428.123 936.553 425.996 936.553 423.373V423.373Z"></path>
    <path style="fill: var(--color-illustrationHighlight010)" d="M941.242 182.431L944.293 179.38L956.389 191.476L968.485 179.38L971.536 182.431L959.44 194.527L971.536 206.623L968.485 209.674L956.389 197.578L944.293 209.674L941.242 206.623L953.338 194.527L941.242 182.431Z"></path>
  </g>
  <defs>
    
    
    <clipPath id="nk-99">
      <rect style="fill: var(--color-white)" width="1490" height="838"></rect>
    </clipPath>
  </defs>
</svg>
