<svg id="components-drawer-drawer-do-1-illustration" style="width: 100%; height: 100%" width="1491" height="839" viewBox="0 0 1491 839" fill="none" xmlns="http://www.w3.org/2000/svg" class="css-0"><g clip-path="url(#nk-166)"><path style="fill:var(--color-illustrationBackground010)" d="M0 4.00001C0 1.79087 1.79086 0 4 0H1486.72C1488.93 0 1490.72 1.79086 1490.72 4V834.004C1490.72 836.213 1488.93 838.004 1486.72 838.004H4.00002C1.79088 838.004 0 836.213 0 834.004V4.00001Z"></path><g clip-path="url(#nk-167)"><rect style="fill:var(--color-illustrationInterface020)" x="257" y="119" width="975.997" height="598.54" rx="17.2552"></rect><g opacity="0.2"><path style="fill:var(--color-illustrationInterface030)" d="M326 246.898C326 238.67 331.166 232 337.538 232H1041.35C1047.72 232 1052.89 238.67 1052.89 246.898V302.768C1052.89 310.996 1047.72 317.666 1041.35 317.666H337.538C331.166 317.666 326 310.996 326 302.768V246.898Z"></path><path style="fill:var(--color-illustrationInterface030)" d="M326 393C326 381.954 334.954 373 346 373H562C573.046 373 582 381.954 582 393V588C582 599.046 573.046 608 562 608H346C334.954 608 326 599.046 326 588V393Z"></path><path style="fill:var(--color-illustrationInterface030)" d="M639 373C627.954 373 619 381.954 619 393V588C619 599.046 627.954 608 639 608H855C866.046 608 875 599.046 875 588V393C875 381.954 866.046 373 855 373H639Z"></path><path style="fill:var(--color-illustrationInterface030)" d="M908 393C908 381.954 916.954 373 928 373H1144C1155.05 373 1164 381.954 1164 393V588C1164 599.046 1155.05 608 1144 608H928C916.954 608 908 599.046 908 588V393Z"></path><path style="fill:var(--color-illustrationInterface030)" d="M346 639C334.954 639 326 647.954 326 659V718H582V659C582 647.954 573.046 639 562 639H346Z"></path><path style="fill:var(--color-illustrationInterface030)" d="M619 659C619 647.954 627.954 639 639 639H855C866.046 639 875 647.954 875 659V718H619V659Z"></path><path style="fill:var(--color-illustrationInterface030)" d="M928 639C916.954 639 908 647.954 908 659V718H1164V659C1164 647.954 1155.05 639 1144 639H928Z"></path></g><path style="fill:var(--color-illustrationInterface030)" opacity="0.2" d="M257 129.391C257 124.205 263.936 120 272.492 120H1217.51C1226.06 120 1233 124.205 1233 129.391V164.609C1233 169.795 1226.06 174 1217.51 174H272.492C263.936 174 257 169.795 257 164.609V129.391Z"></path><g filter="url(#nk-168)"><rect style="fill:var(--color-illustrationInterface010)" x="834" y="119" width="399.027" height="599" rx="6.83436"></rect></g><mask id="nk-165" mask-type="alpha" maskUnits="userSpaceOnUse" x="1181" y="144" width="35" height="35"><path d="M1208.36 153.338L1206.34 151.311L1198.3 159.349L1190.26 151.311L1188.23 153.338L1196.27 161.376L1188.23 169.414L1190.26 171.442L1198.3 163.404L1206.34 171.442L1208.36 169.414L1200.32 161.376L1208.36 153.338Z" fill="#0A0A0A"></path></mask><g mask="url(#nk-165)"><rect style="fill:var(--color-illustrationHighlight010)" x="1181.04" y="144.121" width="34.5104" height="34.5104"></rect></g><path style="fill:var(--color-illustrationHighlight010)" d="M880.023 150.014L872.758 164.064V171H867.646V164.064L860.382 150.014H866.181L870.247 158.803L874.283 150.014H880.023ZM889.676 171.239C888.042 171.239 886.567 170.89 885.251 170.193C883.956 169.495 882.93 168.499 882.172 167.203C881.435 165.908 881.066 164.393 881.066 162.659C881.066 160.945 881.445 159.441 882.202 158.145C882.959 156.83 883.996 155.823 885.311 155.126C886.627 154.428 888.101 154.079 889.736 154.079C891.37 154.079 892.845 154.428 894.16 155.126C895.476 155.823 896.512 156.83 897.269 158.145C898.027 159.441 898.405 160.945 898.405 162.659C898.405 164.373 898.017 165.888 897.239 167.203C896.482 168.499 895.436 169.495 894.1 170.193C892.785 170.89 891.31 171.239 889.676 171.239ZM889.676 166.815C890.652 166.815 891.48 166.456 892.157 165.738C892.855 165.021 893.203 163.995 893.203 162.659C893.203 161.324 892.865 160.298 892.187 159.58C891.529 158.863 890.712 158.504 889.736 158.504C888.739 158.504 887.912 158.863 887.254 159.58C886.597 160.278 886.268 161.304 886.268 162.659C886.268 163.995 886.587 165.021 887.224 165.738C887.882 166.456 888.699 166.815 889.676 166.815ZM917.59 154.318V171H912.477V168.728C911.959 169.465 911.252 170.063 910.355 170.522C909.478 170.96 908.501 171.179 907.425 171.179C906.15 171.179 905.024 170.9 904.047 170.342C903.07 169.764 902.313 168.937 901.775 167.861C901.237 166.785 900.968 165.519 900.968 164.064V154.318H906.05V163.377C906.05 164.493 906.339 165.36 906.917 165.978C907.495 166.595 908.272 166.904 909.249 166.904C910.245 166.904 911.033 166.595 911.611 165.978C912.188 165.36 912.477 164.493 912.477 163.377V154.318H917.59ZM926.374 157.099C926.971 156.182 927.719 155.464 928.616 154.946C929.513 154.408 930.509 154.139 931.605 154.139V159.55H930.2C928.925 159.55 927.968 159.829 927.33 160.387C926.692 160.925 926.374 161.882 926.374 163.257V171H921.262V154.318H926.374V157.099ZM945.496 156.68C945.974 155.903 946.662 155.275 947.559 154.797C948.456 154.318 949.482 154.079 950.638 154.079C952.013 154.079 953.259 154.428 954.375 155.126C955.491 155.823 956.368 156.82 957.006 158.115C957.663 159.411 957.992 160.915 957.992 162.629C957.992 164.343 957.663 165.858 957.006 167.173C956.368 168.469 955.491 169.475 954.375 170.193C953.259 170.89 952.013 171.239 950.638 171.239C949.462 171.239 948.436 171.01 947.559 170.552C946.682 170.073 945.994 169.445 945.496 168.668V171H940.384V148.878H945.496V156.68ZM952.79 162.629C952.79 161.354 952.432 160.357 951.714 159.64C951.017 158.902 950.15 158.534 949.113 158.534C948.097 158.534 947.23 158.902 946.512 159.64C945.815 160.377 945.466 161.384 945.466 162.659C945.466 163.935 945.815 164.941 946.512 165.679C947.23 166.416 948.097 166.785 949.113 166.785C950.13 166.785 950.997 166.416 951.714 165.679C952.432 164.921 952.79 163.905 952.79 162.629ZM959.658 162.629C959.658 160.915 959.977 159.411 960.614 158.115C961.272 156.82 962.159 155.823 963.275 155.126C964.391 154.428 965.637 154.079 967.012 154.079C968.188 154.079 969.214 154.318 970.091 154.797C970.988 155.275 971.676 155.903 972.154 156.68V154.318H977.266V171H972.154V168.638C971.656 169.416 970.958 170.043 970.061 170.522C969.184 171 968.158 171.239 966.982 171.239C965.627 171.239 964.391 170.89 963.275 170.193C962.159 169.475 961.272 168.469 960.614 167.173C959.977 165.858 959.658 164.343 959.658 162.629ZM972.154 162.659C972.154 161.384 971.795 160.377 971.078 159.64C970.38 158.902 969.523 158.534 968.507 158.534C967.49 158.534 966.623 158.902 965.906 159.64C965.208 160.357 964.859 161.354 964.859 162.629C964.859 163.905 965.208 164.921 965.906 165.679C966.623 166.416 967.49 166.785 968.507 166.785C969.523 166.785 970.38 166.416 971.078 165.679C971.795 164.941 972.154 163.935 972.154 162.659ZM987.751 171.239C986.296 171.239 985 170.99 983.864 170.492C982.728 169.994 981.831 169.316 981.174 168.459C980.516 167.582 980.147 166.605 980.067 165.529H985.12C985.18 166.107 985.449 166.576 985.927 166.934C986.405 167.293 986.993 167.472 987.691 167.472C988.328 167.472 988.817 167.353 989.156 167.114C989.514 166.855 989.694 166.526 989.694 166.127C989.694 165.649 989.445 165.3 988.946 165.081C988.448 164.842 987.641 164.582 986.525 164.303C985.329 164.024 984.332 163.735 983.535 163.437C982.738 163.118 982.05 162.629 981.473 161.972C980.895 161.294 980.606 160.387 980.606 159.251C980.606 158.295 980.865 157.428 981.383 156.65C981.921 155.853 982.698 155.225 983.715 154.767C984.751 154.309 985.977 154.079 987.392 154.079C989.484 154.079 991.129 154.598 992.324 155.634C993.54 156.67 994.238 158.045 994.417 159.759H989.694C989.614 159.181 989.355 158.723 988.916 158.384C988.498 158.045 987.94 157.876 987.242 157.876C986.644 157.876 986.186 157.996 985.867 158.235C985.548 158.454 985.389 158.763 985.389 159.162C985.389 159.64 985.638 159.999 986.136 160.238C986.654 160.477 987.452 160.716 988.528 160.955C989.763 161.274 990.77 161.593 991.547 161.912C992.324 162.211 993.002 162.709 993.58 163.407C994.178 164.084 994.487 165.001 994.507 166.157C994.507 167.134 994.228 168.01 993.67 168.788C993.132 169.545 992.344 170.143 991.308 170.581C990.292 171.02 989.106 171.239 987.751 171.239ZM1007.83 171L1002.75 164.005V171H997.634V148.878H1002.75V161.105L1007.8 154.318H1014.11L1007.17 162.689L1014.17 171H1007.83ZM1031.84 162.39C1031.84 162.869 1031.81 163.367 1031.75 163.885H1020.18C1020.26 164.921 1020.59 165.719 1021.17 166.277C1021.76 166.815 1022.49 167.084 1023.35 167.084C1024.62 167.084 1025.51 166.546 1026.01 165.469H1031.45C1031.17 166.566 1030.66 167.552 1029.93 168.429C1029.21 169.306 1028.3 169.994 1027.21 170.492C1026.11 170.99 1024.88 171.239 1023.53 171.239C1021.89 171.239 1020.44 170.89 1019.16 170.193C1017.89 169.495 1016.89 168.499 1016.17 167.203C1015.46 165.908 1015.1 164.393 1015.1 162.659C1015.1 160.925 1015.45 159.411 1016.14 158.115C1016.86 156.82 1017.86 155.823 1019.13 155.126C1020.41 154.428 1021.87 154.079 1023.53 154.079C1025.14 154.079 1026.58 154.418 1027.83 155.096C1029.09 155.773 1030.07 156.74 1030.76 157.996C1031.48 159.251 1031.84 160.716 1031.84 162.39ZM1026.61 161.045C1026.61 160.168 1026.31 159.47 1025.71 158.952C1025.11 158.434 1024.37 158.175 1023.47 158.175C1022.61 158.175 1021.88 158.424 1021.29 158.922C1020.71 159.421 1020.35 160.128 1020.21 161.045H1026.61ZM1043.83 166.665V171H1041.23C1039.38 171 1037.93 170.552 1036.9 169.655C1035.86 168.738 1035.34 167.253 1035.34 165.2V158.564H1033.31V154.318H1035.34V150.253H1040.46V154.318H1043.8V158.564H1040.46V165.26C1040.46 165.758 1040.58 166.117 1040.81 166.336C1041.05 166.556 1041.45 166.665 1042.01 166.665H1043.83Z"></path><path style="fill:var(--color-illustrationHighlight010)" d="M1090.73 547.123C1089.83 547.123 1089.02 546.977 1088.31 546.683C1087.59 546.39 1087.02 545.957 1086.58 545.382C1086.16 544.808 1085.94 544.116 1085.92 543.307H1089.12C1089.16 543.764 1089.32 544.116 1089.59 544.362C1089.86 544.597 1090.21 544.714 1090.65 544.714C1091.09 544.714 1091.44 544.614 1091.7 544.415C1091.96 544.204 1092.09 543.917 1092.09 543.553C1092.09 543.248 1091.98 542.996 1091.77 542.797C1091.57 542.598 1091.32 542.434 1091.02 542.305C1090.72 542.176 1090.3 542.029 1089.75 541.865C1088.95 541.619 1088.3 541.373 1087.8 541.126C1087.29 540.88 1086.86 540.517 1086.5 540.036C1086.13 539.556 1085.95 538.928 1085.95 538.155C1085.95 537.006 1086.37 536.109 1087.2 535.464C1088.03 534.807 1089.12 534.479 1090.45 534.479C1091.81 534.479 1092.91 534.807 1093.74 535.464C1094.57 536.109 1095.02 537.011 1095.08 538.172H1091.82C1091.8 537.774 1091.65 537.463 1091.38 537.24C1091.12 537.006 1090.77 536.888 1090.35 536.888C1089.98 536.888 1089.69 536.988 1089.47 537.187C1089.25 537.375 1089.13 537.65 1089.13 538.014C1089.13 538.412 1089.32 538.723 1089.7 538.946C1090.07 539.169 1090.66 539.409 1091.45 539.667C1092.25 539.937 1092.9 540.194 1093.39 540.441C1093.89 540.687 1094.33 541.044 1094.69 541.513C1095.05 541.982 1095.24 542.586 1095.24 543.325C1095.24 544.028 1095.05 544.667 1094.69 545.241C1094.34 545.816 1093.82 546.273 1093.14 546.613C1092.46 546.953 1091.66 547.123 1090.73 547.123ZM1106.78 537.187V547H1103.77V545.664C1103.46 546.097 1103.05 546.449 1102.52 546.719C1102 546.977 1101.43 547.106 1100.8 547.106C1100.05 547.106 1099.38 546.941 1098.81 546.613C1098.24 546.273 1097.79 545.787 1097.47 545.154C1097.16 544.52 1097 543.776 1097 542.92V537.187H1099.99V542.516C1099.99 543.172 1100.16 543.682 1100.5 544.046C1100.84 544.409 1101.3 544.591 1101.87 544.591C1102.46 544.591 1102.92 544.409 1103.26 544.046C1103.6 543.682 1103.77 543.172 1103.77 542.516V537.187H1106.78ZM1111.94 538.577C1112.22 538.119 1112.63 537.75 1113.16 537.469C1113.68 537.187 1114.29 537.047 1114.97 537.047C1115.78 537.047 1116.51 537.252 1117.17 537.662C1117.82 538.072 1118.34 538.659 1118.71 539.421C1119.1 540.183 1119.29 541.068 1119.29 542.076C1119.29 543.084 1119.1 543.975 1118.71 544.749C1118.34 545.511 1117.82 546.103 1117.17 546.525C1116.51 546.936 1115.78 547.141 1114.97 547.141C1114.28 547.141 1113.67 547.006 1113.16 546.736C1112.64 546.455 1112.24 546.086 1111.94 545.628V547H1108.94V533.987H1111.94V538.577ZM1116.23 542.076C1116.23 541.326 1116.02 540.74 1115.6 540.318C1115.19 539.884 1114.68 539.667 1114.07 539.667C1113.47 539.667 1112.96 539.884 1112.54 540.318C1112.13 540.751 1111.93 541.343 1111.93 542.094C1111.93 542.844 1112.13 543.436 1112.54 543.87C1112.96 544.304 1113.47 544.52 1114.07 544.52C1114.67 544.52 1115.18 544.304 1115.6 543.87C1116.02 543.424 1116.23 542.826 1116.23 542.076ZM1126.34 544.45V547H1124.81C1123.72 547 1122.87 546.736 1122.26 546.209C1121.65 545.669 1121.35 544.796 1121.35 543.588V539.684H1120.15V537.187H1121.35V534.796H1124.35V537.187H1126.32V539.684H1124.35V543.624C1124.35 543.917 1124.42 544.128 1124.56 544.257C1124.7 544.386 1124.94 544.45 1125.27 544.45H1126.34ZM1132.48 547.141C1131.52 547.141 1130.65 546.936 1129.88 546.525C1129.12 546.115 1128.51 545.529 1128.07 544.767C1127.63 544.005 1127.42 543.114 1127.42 542.094C1127.42 541.085 1127.64 540.2 1128.09 539.438C1128.53 538.665 1129.14 538.072 1129.91 537.662C1130.69 537.252 1131.56 537.047 1132.52 537.047C1133.48 537.047 1134.35 537.252 1135.12 537.662C1135.89 538.072 1136.5 538.665 1136.95 539.438C1137.39 540.2 1137.62 541.085 1137.62 542.094C1137.62 543.102 1137.39 543.993 1136.93 544.767C1136.49 545.529 1135.87 546.115 1135.08 546.525C1134.31 546.936 1133.44 547.141 1132.48 547.141ZM1132.48 544.538C1133.06 544.538 1133.54 544.327 1133.94 543.905C1134.35 543.483 1134.56 542.879 1134.56 542.094C1134.56 541.308 1134.36 540.704 1133.96 540.282C1133.57 539.86 1133.09 539.649 1132.52 539.649C1131.93 539.649 1131.44 539.86 1131.06 540.282C1130.67 540.693 1130.48 541.296 1130.48 542.094C1130.48 542.879 1130.66 543.483 1131.04 543.905C1131.43 544.327 1131.91 544.538 1132.48 544.538ZM1144.68 544.45V547H1143.15C1142.06 547 1141.21 546.736 1140.6 546.209C1139.99 545.669 1139.69 544.796 1139.69 543.588V539.684H1138.49V537.187H1139.69V534.796H1142.69V537.187H1144.66V539.684H1142.69V543.624C1142.69 543.917 1142.76 544.128 1142.91 544.257C1143.05 544.386 1143.28 544.45 1143.61 544.45H1144.68ZM1145.76 542.076C1145.76 541.068 1145.95 540.183 1146.32 539.421C1146.71 538.659 1147.23 538.072 1147.89 537.662C1148.54 537.252 1149.28 537.047 1150.08 537.047C1150.78 537.047 1151.38 537.187 1151.9 537.469C1152.42 537.75 1152.83 538.119 1153.11 538.577V537.187H1156.12V547H1153.11V545.611C1152.82 546.068 1152.41 546.437 1151.88 546.719C1151.36 547 1150.76 547.141 1150.07 547.141C1149.27 547.141 1148.54 546.936 1147.89 546.525C1147.23 546.103 1146.71 545.511 1146.32 544.749C1145.95 543.975 1145.76 543.084 1145.76 542.076ZM1153.11 542.094C1153.11 541.343 1152.9 540.751 1152.48 540.318C1152.07 539.884 1151.56 539.667 1150.96 539.667C1150.37 539.667 1149.86 539.884 1149.43 540.318C1149.02 540.74 1148.82 541.326 1148.82 542.076C1148.82 542.826 1149.02 543.424 1149.43 543.87C1149.86 544.304 1150.37 544.52 1150.96 544.52C1151.56 544.52 1152.07 544.304 1152.48 543.87C1152.9 543.436 1153.11 542.844 1153.11 542.094ZM1161.3 533.987V547H1158.29V533.987H1161.3ZM1180.18 544.714V547.07H1171.21L1170.79 545.593C1171.34 545.101 1171.75 544.579 1172 544.028C1172.26 543.477 1172.39 542.797 1172.39 541.988V541.953H1170.47V539.931H1171.9C1171.68 539.133 1171.56 538.401 1171.56 537.732C1171.56 536.935 1171.74 536.244 1172.09 535.657C1172.46 535.071 1172.96 534.626 1173.6 534.321C1174.25 534.016 1174.99 533.864 1175.82 533.864C1177.18 533.864 1178.22 534.233 1178.95 534.972C1179.68 535.71 1180.06 536.672 1180.11 537.856H1177.35C1177.33 537.387 1177.2 537.017 1176.96 536.748C1176.73 536.466 1176.37 536.326 1175.89 536.326C1175.42 536.326 1175.06 536.472 1174.8 536.765C1174.54 537.047 1174.41 537.469 1174.41 538.031C1174.41 538.301 1174.44 538.577 1174.5 538.858C1174.57 539.139 1174.67 539.497 1174.8 539.931H1177.98V541.953H1175.24V542.006C1175.24 542.463 1175.15 542.938 1174.96 543.43C1174.77 543.923 1174.48 544.35 1174.08 544.714H1180.18ZM1191.84 544.714V547.07H1182.87L1182.45 545.593C1183 545.101 1183.41 544.579 1183.66 544.028C1183.92 543.477 1184.05 542.797 1184.05 541.988V541.953H1182.13V539.931H1183.56C1183.34 539.133 1183.23 538.401 1183.23 537.732C1183.23 536.935 1183.4 536.244 1183.75 535.657C1184.12 535.071 1184.62 534.626 1185.27 534.321C1185.91 534.016 1186.65 533.864 1187.48 533.864C1188.84 533.864 1189.88 534.233 1190.61 534.972C1191.34 535.71 1191.72 536.672 1191.77 537.856H1189.01C1188.99 537.387 1188.86 537.017 1188.62 536.748C1188.39 536.466 1188.03 536.326 1187.55 536.326C1187.08 536.326 1186.72 536.472 1186.46 536.765C1186.2 537.047 1186.07 537.469 1186.07 538.031C1186.07 538.301 1186.1 538.577 1186.16 538.858C1186.23 539.139 1186.33 539.497 1186.46 539.931H1189.64V541.953H1186.9V542.006C1186.9 542.463 1186.81 542.938 1186.62 543.43C1186.43 543.923 1186.14 544.35 1185.74 544.714H1191.84ZM1203.5 544.714V547.07H1194.53L1194.11 545.593C1194.66 545.101 1195.07 544.579 1195.33 544.028C1195.58 543.477 1195.71 542.797 1195.71 541.988V541.953H1193.8V539.931H1195.22C1195 539.133 1194.89 538.401 1194.89 537.732C1194.89 536.935 1195.06 536.244 1195.41 535.657C1195.78 535.071 1196.28 534.626 1196.93 534.321C1197.57 534.016 1198.31 533.864 1199.14 533.864C1200.5 533.864 1201.54 534.233 1202.27 534.972C1203 535.71 1203.39 536.672 1203.43 537.856H1200.67C1200.65 537.387 1200.52 537.017 1200.28 536.748C1200.05 536.466 1199.69 536.326 1199.21 536.326C1198.74 536.326 1198.38 536.472 1198.12 536.765C1197.86 537.047 1197.73 537.469 1197.73 538.031C1197.73 538.301 1197.76 538.577 1197.82 538.858C1197.89 539.139 1197.99 539.497 1198.12 539.931H1201.3V541.953H1198.56V542.006C1198.56 542.463 1198.47 542.938 1198.28 543.43C1198.09 543.923 1197.8 544.35 1197.4 544.714H1203.5Z"></path><rect style="fill:var(--color-illustrationInterface020)" x="943.856" y="297.04" width="261.375" height="7.53796" rx="3.76898"></rect><rect style="fill:var(--color-illustrationInterface020)" x="943.856" y="276.101" width="261.375" height="8.37552" rx="4.18776"></rect><rect style="fill:var(--color-illustrationInterface030)" x="943.856" y="256" width="131.965" height="7.53797" rx="3.76898"></rect><rect style="fill:var(--color-illustrationInterface030)" x="1186.43" y="317.422" width="18.6597" height="7.77487" rx="3.88743"></rect><rect style="fill:var(--color-illustrationInterface030)" x="1131.23" y="317.422" width="44.3168" height="7.77487" rx="3.88743"></rect><rect style="fill:var(--color-illustrationInterface020)" x="856" y="249" width="76.1937" height="76.1937" rx="20"></rect><rect style="fill:var(--color-illustrationInterface020)" x="943.856" y="405.637" width="261.375" height="7.53796" rx="3.76898"></rect><rect style="fill:var(--color-illustrationInterface020)" x="943.856" y="384.698" width="261.375" height="8.37552" rx="4.18776"></rect><rect style="fill:var(--color-illustrationInterface030)" x="943.856" y="364.597" width="131.965" height="7.53797" rx="3.76898"></rect><rect style="fill:var(--color-illustrationInterface030)" x="1186.43" y="426.018" width="18.6597" height="7.77487" rx="3.88743"></rect><rect style="fill:var(--color-illustrationInterface030)" x="1131.23" y="426.018" width="44.3168" height="7.77487" rx="3.88743"></rect><rect style="fill:var(--color-illustrationInterface020)" x="856" y="357" width="76.1937" height="76.1937" rx="20"></rect><line x1="860" y1="497.5" x2="1205" y2="497.5" stroke="#87A4FC"></line><line x1="860" y1="208.5" x2="1205" y2="208.5" stroke="#87A4FC"></line><rect style="fill:var(--color-illustrationHighlight010)" x="1034" y="648" width="171" height="47" rx="23.5"></rect><path style="fill:var(--color-illustrationInterface010)" d="M1070.69 671.348C1070.69 669.974 1070.98 668.751 1071.58 667.681C1072.17 666.598 1073 665.759 1074.06 665.164C1075.13 664.557 1076.34 664.253 1077.68 664.253C1079.33 664.253 1080.75 664.689 1081.92 665.561C1083.1 666.433 1083.89 667.622 1084.28 669.128H1080.56C1080.28 668.547 1079.88 668.104 1079.37 667.8C1078.87 667.496 1078.29 667.344 1077.64 667.344C1076.6 667.344 1075.75 667.708 1075.11 668.434C1074.46 669.161 1074.14 670.132 1074.14 671.348C1074.14 672.563 1074.46 673.534 1075.11 674.261C1075.75 674.987 1076.6 675.351 1077.64 675.351C1078.29 675.351 1078.87 675.199 1079.37 674.895C1079.88 674.591 1080.28 674.148 1080.56 673.567H1084.28C1083.89 675.073 1083.1 676.262 1081.92 677.134C1080.75 677.993 1079.33 678.422 1077.68 678.422C1076.34 678.422 1075.13 678.125 1074.06 677.531C1073 676.923 1072.17 676.084 1071.58 675.014C1070.98 673.944 1070.69 672.722 1070.69 671.348ZM1093.15 667.146C1094.42 667.146 1095.44 667.569 1096.21 668.415C1096.97 669.247 1097.36 670.396 1097.36 671.863V678.323H1093.99V672.319C1093.99 671.579 1093.8 671.004 1093.41 670.595C1093.03 670.185 1092.51 669.98 1091.87 669.98C1091.22 669.98 1090.7 670.185 1090.32 670.595C1089.94 671.004 1089.75 671.579 1089.75 672.319V678.323H1086.36V663.658H1089.75V668.751C1090.09 668.263 1090.56 667.873 1091.15 667.582C1091.75 667.292 1092.42 667.146 1093.15 667.146ZM1110.14 672.616C1110.14 672.933 1110.12 673.263 1110.08 673.607H1102.41C1102.46 674.294 1102.68 674.822 1103.06 675.192C1103.46 675.549 1103.94 675.727 1104.51 675.727C1105.35 675.727 1105.94 675.371 1106.27 674.657H1109.88C1109.69 675.384 1109.36 676.038 1108.87 676.619C1108.39 677.2 1107.79 677.656 1107.06 677.986C1106.34 678.317 1105.52 678.482 1104.63 678.482C1103.54 678.482 1102.58 678.251 1101.73 677.788C1100.89 677.326 1100.23 676.665 1099.75 675.807C1099.28 674.948 1099.04 673.944 1099.04 672.794C1099.04 671.645 1099.27 670.641 1099.73 669.782C1100.21 668.923 1100.87 668.263 1101.71 667.8C1102.56 667.338 1103.53 667.107 1104.63 667.107C1105.7 667.107 1106.65 667.331 1107.48 667.78C1108.31 668.23 1108.96 668.87 1109.42 669.703C1109.9 670.535 1110.14 671.506 1110.14 672.616ZM1106.67 671.724C1106.67 671.143 1106.47 670.68 1106.07 670.337C1105.68 669.993 1105.18 669.822 1104.59 669.822C1104.02 669.822 1103.54 669.987 1103.14 670.317C1102.76 670.647 1102.52 671.116 1102.43 671.724H1106.67ZM1111.25 672.794C1111.25 671.645 1111.48 670.641 1111.94 669.782C1112.42 668.923 1113.07 668.263 1113.9 667.8C1114.75 667.338 1115.71 667.107 1116.8 667.107C1118.19 667.107 1119.34 667.47 1120.27 668.197C1121.2 668.923 1121.82 669.947 1122.11 671.268H1118.5C1118.2 670.423 1117.61 670 1116.74 670C1116.12 670 1115.62 670.244 1115.25 670.733C1114.88 671.209 1114.7 671.896 1114.7 672.794C1114.7 673.693 1114.88 674.386 1115.25 674.875C1115.62 675.351 1116.12 675.589 1116.74 675.589C1117.61 675.589 1118.2 675.166 1118.5 674.32H1122.11C1121.82 675.615 1121.2 676.632 1120.27 677.372C1119.33 678.112 1118.17 678.482 1116.8 678.482C1115.71 678.482 1114.75 678.251 1113.9 677.788C1113.07 677.326 1112.42 676.665 1111.94 675.807C1111.48 674.948 1111.25 673.944 1111.25 672.794ZM1130.68 678.323L1127.31 673.686V678.323H1123.92V663.658H1127.31V671.764L1130.66 667.265H1134.84L1130.24 672.814L1134.88 678.323H1130.68ZM1141.21 678.482C1140.12 678.482 1139.15 678.251 1138.27 677.788C1137.41 677.326 1136.73 676.665 1136.23 675.807C1135.74 674.948 1135.5 673.944 1135.5 672.794C1135.5 671.658 1135.75 670.661 1136.25 669.802C1136.75 668.93 1137.44 668.263 1138.31 667.8C1139.18 667.338 1140.16 667.107 1141.25 667.107C1142.33 667.107 1143.31 667.338 1144.18 667.8C1145.05 668.263 1145.74 668.93 1146.24 669.802C1146.74 670.661 1146.99 671.658 1146.99 672.794C1146.99 673.93 1146.74 674.935 1146.22 675.807C1145.72 676.665 1145.02 677.326 1144.14 677.788C1143.27 678.251 1142.29 678.482 1141.21 678.482ZM1141.21 675.549C1141.85 675.549 1142.4 675.311 1142.85 674.835C1143.31 674.36 1143.54 673.679 1143.54 672.794C1143.54 671.909 1143.32 671.229 1142.87 670.753C1142.43 670.277 1141.89 670.04 1141.25 670.04C1140.59 670.04 1140.04 670.277 1139.6 670.753C1139.16 671.215 1138.95 671.896 1138.95 672.794C1138.95 673.679 1139.16 674.36 1139.58 674.835C1140.02 675.311 1140.56 675.549 1141.21 675.549ZM1159.71 667.265V678.323H1156.32V676.817C1155.98 677.306 1155.51 677.702 1154.91 678.006C1154.33 678.297 1153.69 678.442 1152.97 678.442C1152.13 678.442 1151.38 678.257 1150.73 677.887C1150.09 677.504 1149.58 676.956 1149.23 676.243C1148.87 675.529 1148.69 674.69 1148.69 673.726V667.265H1152.06V673.27C1152.06 674.01 1152.25 674.584 1152.64 674.994C1153.02 675.404 1153.53 675.608 1154.18 675.608C1154.84 675.608 1155.36 675.404 1155.75 674.994C1156.13 674.584 1156.32 674.01 1156.32 673.27V667.265H1159.71ZM1168.31 675.45V678.323H1166.58C1165.35 678.323 1164.4 678.026 1163.71 677.432C1163.02 676.824 1162.68 675.84 1162.68 674.479V670.079H1161.33V667.265H1162.68V664.57H1166.07V667.265H1168.29V670.079H1166.07V674.518C1166.07 674.849 1166.15 675.086 1166.31 675.232C1166.46 675.377 1166.73 675.45 1167.1 675.45H1168.31Z"></path></g></g><defs><filter id="nk-168" x="824.888" y="114.444" width="417.252" height="617.225" filterUnits="userSpaceOnUse" color-interpolation-filters="sRGB"><feFlood flood-opacity="0" result="BackgroundImageFix"></feFlood><feColorMatrix in="SourceAlpha" type="matrix" values="0 0 0 0 0 0 0 0 0 0 0 0 0 0 0 0 0 0 127 0"></feColorMatrix><feOffset dy="4.55624"></feOffset><feGaussianBlur stdDeviation="4.55624"></feGaussianBlur><feColorMatrix type="matrix" values="0 0 0 0 0.0392157 0 0 0 0 0.0392157 0 0 0 0 0.0392157 0 0 0 0.08 0"></feColorMatrix><feBlend mode="normal" in2="BackgroundImageFix" result="effect1_dropShadow"></feBlend><feBlend mode="normal" in="SourceGraphic" in2="effect1_dropShadow" result="shape"></feBlend></filter><clipPath id="nk-166"><rect style="fill:var(--color-white)" width="1490.72" height="838.004"></rect></clipPath><clipPath id="nk-167"><rect style="fill:var(--color-white)" width="975.997" height="599" transform="translate(257 119)"></rect></clipPath></defs></svg>