<svg id="components-drawer-drawer-dont-2-illustration" style="width: 100%; height: 100%" width="1491" height="839" viewBox="0 0 1491 839" fill="none" xmlns="http://www.w3.org/2000/svg" class="css-0"><g clip-path="url(#nk-215)"><path style="fill:var(--color-illustrationBackground010)" d="M0 4.00001C0 1.79087 1.79086 0 4 0H1486.72C1488.93 0 1490.72 1.79086 1490.72 4V834.004C1490.72 836.213 1488.93 838.004 1486.72 838.004H4.00002C1.79088 838.004 0 836.213 0 834.004V4.00001Z"></path><g clip-path="url(#nk-216)"><rect style="fill:var(--color-illustrationInterface020)" x="257" y="119" width="975.997" height="598.54" rx="17.2552"></rect><path style="fill:var(--color-illustrationInterface030)" opacity="0.2" fill-rule="evenodd" clip-rule="evenodd" d="M326 246.898C326 238.67 331.166 232 337.538 232H1041.35C1047.72 232 1052.89 238.67 1052.89 246.898V302.768C1052.89 310.996 1047.72 317.666 1041.35 317.666H337.538C331.166 317.666 326 310.996 326 302.768V246.898ZM330 393C330 381.954 338.954 373 350 373H566C577.046 373 586 381.954 586 393V588C586 599.046 577.046 608 566 608H350C338.954 608 330 599.046 330 588V393ZM639 373C627.954 373 619 381.954 619 393V588C619 599.046 627.954 608 639 608H855C866.046 608 875 599.046 875 588V393C875 381.954 866.046 373 855 373H639ZM908 393C908 381.954 916.954 373 928 373H1144C1155.05 373 1164 381.954 1164 393V588C1164 599.046 1155.05 608 1144 608H928C916.954 608 908 599.046 908 588V393ZM350 639C338.954 639 330 647.954 330 659V718H586V659C586 647.954 577.046 639 566 639H350ZM619 659C619 647.954 627.954 639 639 639H855C866.046 639 875 647.954 875 659V718H619V659ZM928 639C916.954 639 908 647.954 908 659V718H1164V659C1164 647.954 1155.05 639 1144 639H928Z"></path><path style="fill:var(--color-illustrationInterface030)" opacity="0.2" d="M257 129.391C257 124.205 263.936 120 272.492 120H1217.51C1226.06 120 1233 124.205 1233 129.391V164.609C1233 169.795 1226.06 174 1217.51 174H272.492C263.936 174 257 169.795 257 164.609V129.391Z"></path><g filter="url(#nk-217)"><rect style="fill:var(--color-illustrationInterface010)" x="674" y="235" width="266" height="483" rx="6.83436"></rect></g><rect style="fill:var(--color-illustrationInterface020)" x="704.8" y="354.786" width="203.793" height="9.69528" rx="4.84764"></rect><rect style="fill:var(--color-illustrationInterface020)" x="704.8" y="521.761" width="203.793" height="9.69528" rx="4.84764"></rect><rect style="fill:var(--color-illustrationInterface020)" x="704.8" y="380.64" width="203.793" height="10.7725" rx="5.14163"></rect><rect style="fill:var(--color-illustrationInterface020)" x="704.8" y="407.572" width="203.793" height="10.7725" rx="5.14163"></rect><rect style="fill:var(--color-illustrationInterface020)" x="704.8" y="547.615" width="203.793" height="10.7726" rx="5.14163"></rect><rect style="fill:var(--color-illustrationInterface020)" x="704.8" y="327.855" width="203.793" height="10.7726" rx="5.14163"></rect><rect style="fill:var(--color-illustrationInterface020)" x="704.8" y="494.829" width="203.793" height="10.7726" rx="5.14163"></rect><rect style="fill:var(--color-illustrationInterface030)" x="704.8" y="302.001" width="102.892" height="9.6953" rx="4.84765"></rect><rect style="fill:var(--color-illustrationInterface030)" x="704.8" y="470.052" width="102.892" height="9.69528" rx="4.84764"></rect><rect style="fill:var(--color-illustrationHighlight010)" x="705" y="261" width="176" height="10" rx="5"></rect><mask id="nk-213" mask-type="alpha" maskUnits="userSpaceOnUse" x="896" y="247" width="35" height="36"><path d="M910.625 256.475L908.598 258.503L915.183 265.103L908.598 271.703L910.625 273.731L919.253 265.103L910.625 256.475Z" fill="#0A0A0A"></path></mask><g mask="url(#nk-213)"><rect style="fill:var(--color-illustrationHighlight010)" x="896.246" y="247.848" width="34.5104" height="34.5104"></rect></g><g filter="url(#nk-218)"><rect style="fill:var(--color-illustrationInterface010)" x="941" y="119" width="292" height="599" rx="6.83436"></rect></g><mask id="nk-214" mask-type="alpha" maskUnits="userSpaceOnUse" x="1181" y="144" width="35" height="35"><path d="M1208.36 153.338L1206.34 151.311L1198.3 159.349L1190.26 151.311L1188.23 153.338L1196.27 161.376L1188.23 169.414L1190.26 171.442L1198.3 163.404L1206.34 171.442L1208.36 169.414L1200.33 161.376L1208.36 153.338Z" fill="#0A0A0A"></path></mask><g mask="url(#nk-214)"><rect style="fill:var(--color-illustrationHighlight010)" x="1181.04" y="144.121" width="34.5104" height="34.5104"></rect></g><path style="fill:var(--color-illustrationHighlight010)" d="M992.62 150.014V171H987.508V158.414L982.815 171H978.689L973.966 158.384V171H968.854V150.014H974.892L980.782 164.543L986.611 150.014H992.62ZM1012.02 162.39C1012.02 162.869 1011.99 163.367 1011.93 163.885H1000.36C1000.44 164.921 1000.77 165.719 1001.35 166.277C1001.95 166.815 1002.67 167.084 1003.53 167.084C1004.81 167.084 1005.69 166.546 1006.19 165.469H1011.63C1011.35 166.566 1010.85 167.552 1010.11 168.429C1009.39 169.306 1008.48 169.994 1007.39 170.492C1006.29 170.99 1005.07 171.239 1003.71 171.239C1002.08 171.239 1000.62 170.89 999.346 170.193C998.07 169.495 997.074 168.499 996.356 167.203C995.639 165.908 995.28 164.393 995.28 162.659C995.28 160.925 995.629 159.411 996.326 158.115C997.044 156.82 998.04 155.823 999.316 155.126C1000.59 154.428 1002.06 154.079 1003.71 154.079C1005.32 154.079 1006.76 154.418 1008.02 155.096C1009.27 155.773 1010.25 156.74 1010.94 157.996C1011.66 159.251 1012.02 160.716 1012.02 162.39ZM1006.79 161.045C1006.79 160.168 1006.49 159.47 1005.89 158.952C1005.29 158.434 1004.55 158.175 1003.65 158.175C1002.79 158.175 1002.07 158.424 1001.47 158.922C1000.89 159.421 1000.53 160.128 1000.39 161.045H1006.79ZM1024.88 154.139C1026.84 154.139 1028.39 154.777 1029.55 156.052C1030.72 157.308 1031.31 159.042 1031.31 161.254V171H1026.23V161.942C1026.23 160.826 1025.94 159.959 1025.36 159.341C1024.78 158.723 1024.01 158.414 1023.03 158.414C1022.05 158.414 1021.28 158.723 1020.7 159.341C1020.12 159.959 1019.83 160.826 1019.83 161.942V171H1014.72V154.318H1019.83V156.531C1020.35 155.793 1021.05 155.215 1021.92 154.797C1022.8 154.358 1023.79 154.139 1024.88 154.139ZM1051.33 154.318V171H1046.22V168.728C1045.7 169.465 1045 170.063 1044.1 170.522C1043.22 170.96 1042.25 171.179 1041.17 171.179C1039.89 171.179 1038.77 170.9 1037.79 170.342C1036.82 169.764 1036.06 168.937 1035.52 167.861C1034.98 166.785 1034.71 165.519 1034.71 164.064V154.318H1039.8V163.377C1039.8 164.493 1040.08 165.36 1040.66 165.978C1041.24 166.595 1042.02 166.904 1042.99 166.904C1043.99 166.904 1044.78 166.595 1045.36 165.978C1045.93 165.36 1046.22 164.493 1046.22 163.377V154.318H1051.33Z"></path><rect style="fill:var(--color-illustrationHighlight010)" x="957" y="242" width="262" height="43" rx="21.5"></rect><rect style="fill:var(--color-illustrationInterface020)" x="1007" y="259" width="183" height="8" rx="4"></rect><rect style="fill:var(--color-illustrationInterface020)" x="1007" y="317" width="183" height="8" rx="4"></rect><rect style="fill:var(--color-illustrationInterface020)" x="1007" y="375" width="183" height="8" rx="4"></rect><rect style="fill:var(--color-illustrationInterface020)" x="1007" y="433" width="183" height="8" rx="4"></rect><rect style="fill:var(--color-illustrationInterface020)" x="1007" y="491" width="183" height="8" rx="4"></rect><rect style="fill:var(--color-illustrationInterface020)" x="1007" y="549" width="183" height="8" rx="4"></rect><rect style="fill:var(--color-illustrationInterface030)" x="967" y="249" width="27" height="27" rx="13.5"></rect><rect style="fill:var(--color-illustrationInterface030)" x="967" y="307" width="27" height="27" rx="13.5"></rect><rect style="fill:var(--color-illustrationInterface030)" x="967" y="365" width="27" height="27" rx="13.5"></rect><rect style="fill:var(--color-illustrationInterface030)" x="967" y="423" width="27" height="27" rx="13.5"></rect><rect style="fill:var(--color-illustrationInterface030)" x="967" y="481" width="27" height="27" rx="13.5"></rect><rect style="fill:var(--color-illustrationInterface030)" x="967" y="539" width="27" height="27" rx="13.5"></rect><line x1="967" y1="208.5" x2="1205" y2="208.5" stroke="#AEBFFF"></line><path style="fill:var(--color-illustrationInterface010)" d="M1070.69 671.347C1070.69 669.973 1070.98 668.751 1071.58 667.681C1072.17 666.598 1073 665.759 1074.06 665.164C1075.13 664.557 1076.34 664.253 1077.68 664.253C1079.33 664.253 1080.75 664.689 1081.92 665.561C1083.1 666.433 1083.89 667.622 1084.28 669.128H1080.56C1080.28 668.547 1079.88 668.104 1079.37 667.8C1078.87 667.496 1078.29 667.344 1077.64 667.344C1076.6 667.344 1075.75 667.708 1075.11 668.434C1074.46 669.161 1074.14 670.132 1074.14 671.347C1074.14 672.563 1074.46 673.534 1075.11 674.261C1075.75 674.987 1076.6 675.351 1077.64 675.351C1078.29 675.351 1078.87 675.199 1079.37 674.895C1079.88 674.591 1080.28 674.148 1080.56 673.567H1084.28C1083.89 675.073 1083.1 676.262 1081.92 677.134C1080.75 677.993 1079.33 678.422 1077.68 678.422C1076.34 678.422 1075.13 678.125 1074.06 677.531C1073 676.923 1072.17 676.084 1071.58 675.014C1070.98 673.944 1070.69 672.721 1070.69 671.347ZM1093.15 667.146C1094.42 667.146 1095.44 667.569 1096.21 668.414C1096.97 669.247 1097.36 670.396 1097.36 671.863V678.323H1093.99V672.319C1093.99 671.579 1093.8 671.004 1093.41 670.594C1093.03 670.185 1092.51 669.98 1091.87 669.98C1091.22 669.98 1090.7 670.185 1090.32 670.594C1089.94 671.004 1089.75 671.579 1089.75 672.319V678.323H1086.36V663.658H1089.75V668.751C1090.09 668.263 1090.56 667.873 1091.15 667.582C1091.75 667.291 1092.42 667.146 1093.15 667.146ZM1110.14 672.616C1110.14 672.933 1110.12 673.263 1110.08 673.607H1102.41C1102.46 674.294 1102.68 674.822 1103.06 675.192C1103.46 675.549 1103.94 675.727 1104.51 675.727C1105.35 675.727 1105.94 675.37 1106.27 674.657H1109.88C1109.69 675.384 1109.36 676.038 1108.87 676.619C1108.39 677.2 1107.79 677.656 1107.06 677.986C1106.34 678.317 1105.52 678.482 1104.63 678.482C1103.54 678.482 1102.58 678.251 1101.73 677.788C1100.89 677.326 1100.23 676.665 1099.75 675.806C1099.28 674.948 1099.04 673.944 1099.04 672.794C1099.04 671.645 1099.27 670.641 1099.73 669.782C1100.21 668.923 1100.87 668.263 1101.71 667.8C1102.56 667.338 1103.53 667.106 1104.63 667.106C1105.7 667.106 1106.65 667.331 1107.48 667.78C1108.31 668.229 1108.96 668.87 1109.42 669.703C1109.9 670.535 1110.14 671.506 1110.14 672.616ZM1106.67 671.724C1106.67 671.143 1106.47 670.68 1106.07 670.337C1105.68 669.993 1105.18 669.821 1104.59 669.821C1104.02 669.821 1103.54 669.987 1103.14 670.317C1102.76 670.647 1102.52 671.116 1102.43 671.724H1106.67ZM1111.25 672.794C1111.25 671.645 1111.48 670.641 1111.94 669.782C1112.42 668.923 1113.07 668.263 1113.9 667.8C1114.75 667.338 1115.71 667.106 1116.8 667.106C1118.19 667.106 1119.34 667.47 1120.27 668.196C1121.2 668.923 1121.82 669.947 1122.11 671.268H1118.5C1118.2 670.423 1117.61 670 1116.74 670C1116.12 670 1115.62 670.244 1115.25 670.733C1114.88 671.209 1114.7 671.896 1114.7 672.794C1114.7 673.693 1114.88 674.386 1115.25 674.875C1115.62 675.351 1116.12 675.588 1116.74 675.588C1117.61 675.588 1118.2 675.166 1118.5 674.32H1122.11C1121.82 675.615 1121.2 676.632 1120.27 677.372C1119.33 678.112 1118.17 678.482 1116.8 678.482C1115.71 678.482 1114.75 678.251 1113.9 677.788C1113.07 677.326 1112.42 676.665 1111.94 675.806C1111.48 674.948 1111.25 673.944 1111.25 672.794ZM1130.68 678.323L1127.31 673.686V678.323H1123.92V663.658H1127.31V671.764L1130.66 667.265H1134.84L1130.24 672.814L1134.88 678.323H1130.68ZM1141.21 678.482C1140.12 678.482 1139.15 678.251 1138.27 677.788C1137.41 677.326 1136.73 676.665 1136.23 675.806C1135.74 674.948 1135.5 673.944 1135.5 672.794C1135.5 671.658 1135.75 670.66 1136.25 669.802C1136.75 668.93 1137.44 668.263 1138.31 667.8C1139.18 667.338 1140.16 667.106 1141.25 667.106C1142.33 667.106 1143.31 667.338 1144.18 667.8C1145.05 668.263 1145.74 668.93 1146.24 669.802C1146.74 670.66 1146.99 671.658 1146.99 672.794C1146.99 673.93 1146.74 674.934 1146.22 675.806C1145.72 676.665 1145.02 677.326 1144.14 677.788C1143.27 678.251 1142.29 678.482 1141.21 678.482ZM1141.21 675.549C1141.85 675.549 1142.4 675.311 1142.85 674.835C1143.31 674.36 1143.54 673.679 1143.54 672.794C1143.54 671.909 1143.32 671.229 1142.87 670.753C1142.43 670.277 1141.89 670.039 1141.25 670.039C1140.59 670.039 1140.04 670.277 1139.6 670.753C1139.16 671.215 1138.95 671.896 1138.95 672.794C1138.95 673.679 1139.16 674.36 1139.58 674.835C1140.02 675.311 1140.56 675.549 1141.21 675.549ZM1159.71 667.265V678.323H1156.32V676.817C1155.98 677.306 1155.51 677.702 1154.91 678.006C1154.33 678.297 1153.69 678.442 1152.97 678.442C1152.13 678.442 1151.38 678.257 1150.73 677.887C1150.09 677.504 1149.58 676.956 1149.23 676.242C1148.87 675.529 1148.69 674.69 1148.69 673.726V667.265H1152.06V673.27C1152.06 674.01 1152.25 674.584 1152.64 674.994C1153.02 675.403 1153.53 675.608 1154.18 675.608C1154.84 675.608 1155.36 675.403 1155.75 674.994C1156.13 674.584 1156.32 674.01 1156.32 673.27V667.265H1159.71ZM1168.31 675.45V678.323H1166.58C1165.35 678.323 1164.4 678.026 1163.71 677.431C1163.02 676.824 1162.68 675.839 1162.68 674.479V670.079H1161.33V667.265H1162.68V664.57H1166.07V667.265H1168.29V670.079H1166.07V674.518C1166.07 674.849 1166.15 675.086 1166.31 675.232C1166.46 675.377 1166.73 675.45 1167.1 675.45H1168.31Z"></path></g></g><defs><filter id="nk-217" x="664.888" y="230.444" width="284.225" height="501.225" filterUnits="userSpaceOnUse" color-interpolation-filters="sRGB"><feFlood flood-opacity="0" result="BackgroundImageFix"></feFlood><feColorMatrix in="SourceAlpha" type="matrix" values="0 0 0 0 0 0 0 0 0 0 0 0 0 0 0 0 0 0 127 0"></feColorMatrix><feOffset dy="4.55624"></feOffset><feGaussianBlur stdDeviation="4.55624"></feGaussianBlur><feColorMatrix type="matrix" values="0 0 0 0 0.0392157 0 0 0 0 0.0392157 0 0 0 0 0.0392157 0 0 0 0.08 0"></feColorMatrix><feBlend mode="normal" in2="BackgroundImageFix" result="effect1_dropShadow"></feBlend><feBlend mode="normal" in="SourceGraphic" in2="effect1_dropShadow" result="shape"></feBlend></filter><filter id="nk-218" x="931.888" y="114.444" width="310.225" height="617.225" filterUnits="userSpaceOnUse" color-interpolation-filters="sRGB"><feFlood flood-opacity="0" result="BackgroundImageFix"></feFlood><feColorMatrix in="SourceAlpha" type="matrix" values="0 0 0 0 0 0 0 0 0 0 0 0 0 0 0 0 0 0 127 0"></feColorMatrix><feOffset dy="4.55624"></feOffset><feGaussianBlur stdDeviation="4.55624"></feGaussianBlur><feColorMatrix type="matrix" values="0 0 0 0 0.0392157 0 0 0 0 0.0392157 0 0 0 0 0.0392157 0 0 0 0.08 0"></feColorMatrix><feBlend mode="normal" in2="BackgroundImageFix" result="effect1_dropShadow"></feBlend><feBlend mode="normal" in="SourceGraphic" in2="effect1_dropShadow" result="shape"></feBlend></filter><clipPath id="nk-215"><rect style="fill:var(--color-white)" width="1490.72" height="838.004"></rect></clipPath><clipPath id="nk-216"><rect style="fill:var(--color-white)" width="975.997" height="599" transform="translate(257 119)"></rect></clipPath></defs></svg>