<svg id="guides-design-quickstart-step2-hero" style="width: 100%; height: 100%" width="1345" height="759" viewBox="0 0 1345 759" fill="none" xmlns="http://www.w3.org/2000/svg" class="css-0"><g clip-path="url(#nk-1192)"><rect style="fill:var(--color-illustrationBackground010)" width="1345" height="759"></rect><circle style="fill:var(--color-illustrationInterface020)" cx="673" cy="379" r="542"></circle><circle style="fill:var(--color-illustrationPalette020)" cx="673" cy="379" r="378"></circle><circle style="fill:var(--color-illustrationInterface020)" opacity="0.6" cx="673" cy="379" r="378"></circle><circle style="fill:var(--color-illustrationPalette040)" cx="673" cy="379" r="233.5" stroke="#577FFB"></circle><path style="fill:var(--color-illustrationSubtle010)" d="M885 637.5C885 639.985 855.899 642 820 642C784.101 642 755 639.985 755 637.5C755 635.015 784.101 633 820 633C855.899 633 885 635.015 885 637.5Z"></path><circle style="fill:var(--color-illustrationInterface050)" cx="673" cy="379" r="234"></circle><circle style="fill:var(--color-illustrationInterface030)" cx="673" cy="322.938" r="85.3125"></circle><path style="fill:var(--color-illustrationInterface030)" d="M508.39 545.311C535.023 480.611 598.693 435.063 673 435.063C747.307 435.063 810.976 480.611 837.61 545.311C795.334 587.158 737.185 613 673 613C608.815 613 550.666 587.158 508.39 545.311Z"></path><path d="M796.941 464.718C750.113 477.265 722.3 525.312 734.819 572.033C747.337 618.754 795.448 646.456 842.276 633.909C889.104 621.361 916.918 573.315 904.399 526.594C891.88 479.873 843.77 452.17 796.941 464.718Z" fill="#3358CC"></path><path d="M770.156 476.976C778.114 471.552 787.109 467.353 796.941 464.718C812.025 460.676 827.242 460.81 841.359 464.411C849.972 467.308 857.955 470.8 864.473 473.977C883.069 484.992 897.617 502.84 903.999 525.15C904.771 528.202 905.462 531.441 906.056 534.876C906.477 537.314 906.822 539.69 907.094 542.006C909.13 566.279 900.845 589.812 885.257 607.39C880.773 611.098 875.85 614.147 870.707 616.631C846.628 628.258 821.314 627.48 803.544 617.402C794.939 612.522 791.515 603.48 787.41 592.638C783.039 581.092 777.894 567.504 764.895 554.729C744.368 534.557 753.372 498.447 770.156 476.976Z" fill="#446BE4"></path><path d="M846.588 465.919C844.135 466.544 841.899 467.439 839.939 468.57C839.161 469.019 838.368 469.475 837.563 469.937C823.57 477.973 806.096 488.008 802.201 501.969C798.083 516.733 804.72 529.389 813.191 544.057C816.059 549.022 817.874 555.038 819.646 560.908C822.746 571.179 825.711 581.003 833.94 583.97C834.593 584.206 865.731 593.072 884.96 584.005C895.494 579.038 901.984 570.955 906.406 562.348C908.172 550.762 907.625 538.634 904.399 526.594C896.415 496.799 873.957 474.739 846.588 465.919Z" fill="#577FFB"></path><path d="M873.86 480.39C871.846 480.723 870.037 481.353 868.518 482.229C868.071 482.487 867.616 482.749 867.154 483.014C859.124 487.626 849.096 493.385 846.861 501.396C844.498 509.868 848.307 517.131 853.168 525.549C854.814 528.398 855.856 531.85 856.872 535.219C858.651 541.113 860.353 546.751 865.075 548.454C865.45 548.589 883.319 553.677 894.354 548.473C900.232 545.702 903.915 541.239 906.447 536.455C905.958 533.17 905.278 529.878 904.398 526.594C899.296 507.556 888.285 491.675 873.86 480.39Z" fill="#8BA6F6"></path><path style="fill:var(--color-white)" d="M873 550.571C873 554.437 869.866 557.571 866 557.571H834.571C830.705 557.571 827.571 560.705 827.571 564.571V596C827.571 599.866 824.437 603 820.571 603H819.429C815.563 603 812.429 599.866 812.429 596V564.571C812.429 560.705 809.295 557.571 805.429 557.571H774C770.134 557.571 767 554.437 767 550.571V549.429C767 545.563 770.134 542.429 774 542.429H805.429C809.295 542.429 812.429 539.295 812.429 535.429V504C812.429 500.134 815.563 497 819.429 497H820.571C824.437 497 827.571 500.134 827.571 504V535.429C827.571 539.295 830.705 542.429 834.571 542.429H866C869.866 542.429 873 545.563 873 549.429V550.571Z"></path><path style="fill:var(--color-white)" fill-rule="evenodd" clip-rule="evenodd" d="M819.429 500C817.219 500 815.429 501.791 815.429 504V535.429C815.429 540.951 810.951 545.429 805.429 545.429H774C771.791 545.429 770 547.219 770 549.429V550.571C770 552.781 771.791 554.571 774 554.571H805.429C810.951 554.571 815.429 559.049 815.429 564.571V596C815.429 598.209 817.219 600 819.429 600H820.571C822.781 600 824.571 598.209 824.571 596V564.571C824.571 559.049 829.049 554.571 834.571 554.571H866C868.209 554.571 870 552.781 870 550.571V549.429C870 547.219 868.209 545.429 866 545.429H834.571C829.049 545.429 824.571 540.951 824.571 535.429V504C824.571 501.791 822.781 500 820.571 500H819.429ZM809.429 504C809.429 498.477 813.906 494 819.429 494H820.571C826.094 494 830.571 498.477 830.571 504V535.429C830.571 537.638 832.362 539.429 834.571 539.429H866C871.523 539.429 876 543.906 876 549.429V550.571C876 556.094 871.523 560.571 866 560.571H834.571C832.362 560.571 830.571 562.362 830.571 564.571V596C830.571 601.523 826.094 606 820.571 606H819.429C813.906 606 809.429 601.523 809.429 596V564.571C809.429 562.362 807.638 560.571 805.429 560.571H774C768.477 560.571 764 556.094 764 550.571V549.429C764 543.906 768.477 539.429 774 539.429H805.429C807.638 539.429 809.429 537.638 809.429 535.429V504Z"></path></g><defs><clipPath id="nk-1192"><rect style="fill:var(--color-white)" width="1345" height="759"></rect></clipPath></defs></svg>