<svg id="nksvg" style="width: 100%; height: 100%" width="1490" height="839" viewBox="0 0 1490 839" fill="none" xmlns="http://www.w3.org/2000/svg" class="css-0">
  <path style="fill: var(--color-illustrationBackground020)" d="M0 4.00001C0 1.79087 1.79 0 3.99807 0H1486C1488.21 0 1490 1.79086 1490 4V834.004C1490 836.213 1488.21 838.004 1486 838.004H3.99809C1.79002 838.004 0 836.213 0 834.004V4.00001Z"></path>
  <rect style="fill: var(--color-illustrationInterface020)" width="257.019" height="486" transform="translate(364.229 176)"></rect>
  <path style="fill: var(--color-illustrationInterface030)" d="M391.792 227.404C388.828 227.404 386.426 229.806 386.426 232.77V273.914C386.426 276.878 388.828 279.28 391.792 279.28H439.772L439.793 279.28H591.347C594.311 279.28 596.714 276.878 596.714 273.914V232.77C596.714 229.807 594.311 227.404 591.347 227.404H442.795L442.774 227.404H391.792Z"></path>
  <path style="fill: var(--color-illustrationInterface030)" d="M386.426 330.104C386.426 326.753 389.142 324.037 392.493 324.037H450.134C453.485 324.037 456.202 326.753 456.202 330.104V376.621C456.202 379.972 453.485 382.689 450.134 382.689H392.493C389.142 382.689 386.426 379.972 386.426 376.621V330.104Z"></path>
  <path style="fill: var(--color-illustrationInterface030)" d="M469.367 325.904C469.367 324.873 470.203 324.037 471.235 324.037H532.916C533.948 324.037 534.784 324.873 534.784 325.904V325.904C534.784 326.935 533.948 327.771 532.916 327.771H471.235C470.203 327.771 469.367 326.935 469.367 325.904V325.904Z"></path>
  <path style="fill: var(--color-illustrationInterface030)" d="M469.367 336.137C469.367 334.991 470.296 334.062 471.442 334.062H596.976C598.122 334.062 599.051 334.991 599.051 336.137V336.137C599.051 337.283 598.122 338.212 596.976 338.212H471.442C470.296 338.212 469.367 337.283 469.367 336.137V336.137Z"></path>
  <path style="fill: var(--color-illustrationInterface030)" d="M469.367 346.37C469.367 345.339 470.203 344.502 471.235 344.502H597.183C598.215 344.502 599.051 345.339 599.051 346.37V346.37C599.051 347.401 598.215 348.237 597.183 348.237H471.235C470.203 348.237 469.367 347.401 469.367 346.37V346.37Z"></path>
  <path style="fill: var(--color-illustrationInterface030)" d="M469.367 356.603C469.367 355.457 470.296 354.528 471.442 354.528H596.976C598.122 354.528 599.051 355.457 599.051 356.603V356.603C599.051 357.749 598.122 358.678 596.976 358.678H471.442C470.296 358.678 469.367 357.749 469.367 356.603V356.603Z"></path>
  <path style="fill: var(--color-illustrationInterface030)" d="M469.367 367.043C469.367 365.897 470.296 364.968 471.442 364.968H596.976C598.122 364.968 599.051 365.897 599.051 367.043V367.043C599.051 368.189 598.122 369.118 596.976 369.118H471.442C470.296 369.118 469.367 368.189 469.367 367.043V367.043Z"></path>
  <path style="fill: var(--color-illustrationInterface030)" d="M469.367 377.484C469.367 376.338 470.296 375.409 471.442 375.409H596.976C598.122 375.409 599.051 376.338 599.051 377.484V377.484C599.051 378.63 598.122 379.558 596.976 379.558H471.442C470.296 379.558 469.367 378.63 469.367 377.484V377.484Z"></path>
  <path style="fill: var(--color-illustrationInterface030)" d="M386.426 433.513C386.426 430.162 389.142 427.445 392.493 427.445H450.134C453.485 427.445 456.202 430.162 456.202 433.513V480.03C456.202 483.381 453.485 486.098 450.134 486.098H392.493C389.142 486.098 386.426 483.381 386.426 480.03V433.513Z"></path>
  <path style="fill: var(--color-illustrationInterface030)" d="M469.367 429.313C469.367 428.281 470.203 427.445 471.235 427.445H532.916C533.948 427.445 534.784 428.281 534.784 429.313V429.313C534.784 430.344 533.948 431.18 532.916 431.18H471.235C470.203 431.18 469.367 430.344 469.367 429.313V429.313Z"></path>
  <path style="fill: var(--color-illustrationInterface030)" d="M469.367 439.546C469.367 438.4 470.296 437.471 471.442 437.471H596.976C598.122 437.471 599.051 438.4 599.051 439.546V439.546C599.051 440.692 598.122 441.62 596.976 441.62H471.442C470.296 441.62 469.367 440.692 469.367 439.546V439.546Z"></path>
  <path style="fill: var(--color-illustrationInterface030)" d="M469.367 449.779C469.367 448.747 470.203 447.911 471.235 447.911H597.183C598.215 447.911 599.051 448.747 599.051 449.779V449.779C599.051 450.81 598.215 451.646 597.183 451.646H471.235C470.203 451.646 469.367 450.81 469.367 449.779V449.779Z"></path>
  <path style="fill: var(--color-illustrationInterface030)" d="M469.367 460.011C469.367 458.865 470.296 457.937 471.442 457.937H596.976C598.122 457.937 599.051 458.865 599.051 460.011V460.011C599.051 461.157 598.122 462.086 596.976 462.086H471.442C470.296 462.086 469.367 461.157 469.367 460.011V460.011Z"></path>
  <path style="fill: var(--color-illustrationInterface030)" d="M469.367 470.452C469.367 469.306 470.296 468.377 471.442 468.377H596.976C598.122 468.377 599.051 469.306 599.051 470.452V470.452C599.051 471.598 598.122 472.527 596.976 472.527H471.442C470.296 472.527 469.367 471.598 469.367 470.452V470.452Z"></path>
  <path style="fill: var(--color-illustrationInterface030)" d="M469.367 480.892C469.367 479.746 470.296 478.817 471.442 478.817H596.976C598.122 478.817 599.051 479.746 599.051 480.892V480.892C599.051 482.038 598.122 482.967 596.976 482.967H471.442C470.296 482.967 469.367 482.038 469.367 480.892V480.892Z"></path>
  <path style="fill: var(--color-illustrationInterface030)" d="M386.426 536.921C386.426 533.571 389.142 530.854 392.493 530.854H450.134C453.485 530.854 456.202 533.571 456.202 536.921V583.439C456.202 586.79 453.485 589.506 450.134 589.506H392.493C389.142 589.506 386.426 586.79 386.426 583.439V536.921Z"></path>
  <path style="fill: var(--color-illustrationInterface030)" d="M469.367 532.721C469.367 531.69 470.203 530.854 471.235 530.854H532.916C533.948 530.854 534.784 531.69 534.784 532.721V532.721C534.784 533.753 533.948 534.589 532.916 534.589H471.235C470.203 534.589 469.367 533.753 469.367 532.721V532.721Z"></path>
  <path style="fill: var(--color-illustrationInterface030)" d="M469.367 542.954C469.367 541.808 470.296 540.879 471.442 540.879H596.976C598.122 540.879 599.051 541.808 599.051 542.954V542.954C599.051 544.1 598.122 545.029 596.976 545.029H471.442C470.296 545.029 469.367 544.1 469.367 542.954V542.954Z"></path>
  <path style="fill: var(--color-illustrationInterface030)" d="M469.367 553.187C469.367 552.156 470.203 551.32 471.235 551.32H597.183C598.215 551.32 599.051 552.156 599.051 553.187V553.187C599.051 554.219 598.215 555.055 597.183 555.055H471.235C470.203 555.055 469.367 554.219 469.367 553.187V553.187Z"></path>
  <path style="fill: var(--color-illustrationInterface030)" d="M469.367 563.42C469.367 562.274 470.296 561.345 471.442 561.345H596.976C598.122 561.345 599.051 562.274 599.051 563.42V563.42C599.051 564.566 598.122 565.495 596.976 565.495H471.442C470.296 565.495 469.367 564.566 469.367 563.42V563.42Z"></path>
  <path style="fill: var(--color-illustrationInterface030)" d="M469.367 573.861C469.367 572.715 470.296 571.786 471.442 571.786H596.976C598.122 571.786 599.051 572.715 599.051 573.861V573.861C599.051 575.006 598.122 575.935 596.976 575.935H471.442C470.296 575.935 469.367 575.006 469.367 573.861V573.861Z"></path>
  <path style="fill: var(--color-illustrationInterface030)" d="M469.367 584.301C469.367 583.155 470.296 582.226 471.442 582.226H596.976C598.122 582.226 599.051 583.155 599.051 584.301V584.301C599.051 585.447 598.122 586.376 596.976 586.376H471.442C470.296 586.376 469.367 585.447 469.367 584.301V584.301Z"></path>
  <rect style="fill: var(--color-illustrationInterface020)" x="868.336" y="176.584" width="255.851" height="484.832"></rect>
  <rect x="868.336" y="176.584" width="255.851" height="484.832" stroke="#577FFB" stroke-width="1.16827" stroke-linejoin="round" stroke-dasharray="4.67 4.67"></rect>
  <path d="M895.316 278.988C894.627 278.988 893.971 278.851 893.373 278.603L893.262 278.873C891.95 278.329 890.9 277.28 890.356 275.968L890.626 275.856C890.378 275.258 890.241 274.602 890.241 273.914V271.342H889.949V266.199H890.241V261.056H889.949V255.914H890.241V250.771H889.949V245.628H890.241V240.485H889.949V235.342H890.241V232.77C890.241 232.082 890.378 231.426 890.626 230.828L890.356 230.716C890.9 229.404 891.95 228.355 893.262 227.811L893.373 228.081C893.971 227.833 894.627 227.696 895.316 227.696H897.618V227.404H902.222V227.696H906.826V227.404H911.43V227.696H916.035V227.404H920.639V227.696H925.243V227.404H929.847V227.696H934.452V227.404H939.056V227.696H943.66V227.404H948.264V227.696H952.868V227.404H957.473V227.696H962.077V227.404H966.681V227.696H971.285V227.404H975.889V227.696H980.494V227.404H985.098V227.696H989.702V227.404H994.306V227.696H998.911V227.404H1003.51V227.696H1008.12V227.404H1012.72V227.696H1017.33V227.404H1021.93V227.696H1026.54V227.404H1031.14V227.696H1035.74V227.404H1040.35V227.696H1044.95V227.404H1049.56V227.696H1054.16V227.404H1058.77V227.696H1063.37V227.404H1067.97V227.696H1072.58V227.404H1077.18V227.696H1081.79V227.404H1086.39V227.696H1090.99V227.404H1095.6V227.696H1097.9C1098.59 227.696 1099.25 227.833 1099.84 228.081L1099.96 227.811C1101.27 228.355 1102.32 229.404 1102.86 230.716L1102.59 230.828C1102.84 231.426 1102.98 232.082 1102.98 232.77V235.342H1103.27V240.485H1102.98V245.628H1103.27V250.771H1102.98V255.914H1103.27V261.056H1102.98V266.199H1103.27V271.342H1102.98V273.914C1102.98 274.602 1102.84 275.258 1102.59 275.856L1102.86 275.968C1102.32 277.28 1101.27 278.329 1099.96 278.873L1099.84 278.603C1099.25 278.851 1098.59 278.988 1097.9 278.988H1095.6V279.28H1090.99V278.988H1086.39V279.28H1081.79V278.988H1077.18V279.28H1072.58V278.988H1067.97V279.28H1063.37V278.988H1058.77V279.28H1054.16V278.988H1049.56V279.28H1044.95V278.988H1040.35V279.28H1035.74V278.988H1031.14V279.28H1026.54V278.988H1021.93V279.28H1017.33V278.988H1012.72V279.28H1008.12V278.988H1003.51V279.28H998.911V278.988H994.306V279.28H989.702V278.988H985.098V279.28H980.494V278.988H975.889V279.28H971.285V278.988H966.681V279.28H962.077V278.988H957.473V279.28H952.868V278.988H948.264V279.28H943.66V278.988H939.056V279.28H934.451V278.988H929.847V279.28H925.243V278.988H920.639V279.28H916.035V278.988H911.43V279.28H906.826V278.988H902.222V279.28H897.618V278.988H895.316Z" stroke="#577FFB" stroke-width="0.584135" stroke-linejoin="round" stroke-dasharray="4.67 4.67"></path>
  <path d="M896.017 382.397C895.233 382.397 894.487 382.241 893.806 381.959L893.694 382.228C892.211 381.613 891.025 380.427 890.41 378.944L890.679 378.832C890.397 378.151 890.241 377.405 890.241 376.621V374.296H889.949V369.644H890.241V364.992H889.949V360.34H890.241V355.689H889.949V351.037H890.241V346.385H889.949V341.733H890.241V337.082H889.949V332.43H890.241V330.104C890.241 329.32 890.397 328.574 890.679 327.893L890.41 327.782C891.025 326.298 892.211 325.112 893.694 324.497L893.806 324.767C894.487 324.485 895.233 324.329 896.017 324.329H898.418V324.037H903.222V324.329H908.025V324.037H912.829V324.329H917.632V324.037H922.435V324.329H927.239V324.037H932.042V324.329H936.846V324.037H941.649V324.329H946.453V324.037H951.256V324.329H953.658C954.441 324.329 955.188 324.485 955.868 324.767L955.98 324.497C957.463 325.112 958.65 326.298 959.265 327.782L958.995 327.893C959.277 328.574 959.433 329.32 959.433 330.104V332.43H959.725V337.082H959.433V341.733H959.725V346.385H959.433V351.037H959.725V355.689H959.433V360.34H959.725V364.992H959.433V369.644H959.725V374.296H959.433V376.621C959.433 377.405 959.277 378.151 958.995 378.832L959.265 378.944C958.65 380.427 957.463 381.613 955.98 382.228L955.868 381.959C955.188 382.241 954.441 382.397 953.658 382.397H951.256V382.689H946.453V382.397H941.649V382.689H936.846V382.397H932.042V382.689H927.239V382.397H922.435V382.689H917.632V382.397H912.829V382.689H908.025V382.397H903.222V382.689H898.418V382.397H896.017Z" stroke="#577FFB" stroke-width="0.584135" stroke-linejoin="round" stroke-dasharray="4.67 4.67"></path>
  <path d="M974.758 327.479C974.544 327.479 974.34 327.437 974.155 327.36L974.043 327.63C973.587 327.44 973.222 327.075 973.032 326.619L973.302 326.507C973.225 326.322 973.183 326.118 973.183 325.904C973.183 325.69 973.225 325.486 973.302 325.301L973.032 325.189C973.222 324.733 973.587 324.368 974.043 324.178L974.155 324.448C974.34 324.371 974.544 324.329 974.758 324.329H976.961V324.037H981.367V324.329H985.773V324.037H990.178V324.329H994.584V324.037H998.99V324.329H1003.4V324.037H1007.8V324.329H1012.21V324.037H1016.61V324.329H1021.02V324.037H1025.43V324.329H1029.83V324.037H1034.24V324.329H1036.44C1036.65 324.329 1036.86 324.371 1037.04 324.448L1037.15 324.178C1037.61 324.368 1037.98 324.733 1038.17 325.189L1037.9 325.301C1037.97 325.486 1038.01 325.69 1038.01 325.904C1038.01 326.118 1037.97 326.322 1037.9 326.507L1038.17 326.619C1037.98 327.075 1037.61 327.44 1037.15 327.63L1037.04 327.36C1036.86 327.437 1036.65 327.479 1036.44 327.479H1034.24V327.771H1029.83V327.479H1025.43V327.771H1021.02V327.479H1016.61V327.771H1012.21V327.479H1007.8V327.771H1003.4V327.479H998.99V327.771H994.584V327.479H990.178V327.771H985.773V327.479H981.367V327.771H976.961V327.479H974.758Z" stroke="#577FFB" stroke-width="0.584135" stroke-linejoin="round" stroke-dasharray="4.67 4.67"></path>
  <path d="M974.966 337.92C974.723 337.92 974.493 337.872 974.283 337.785L974.171 338.054C973.664 337.844 973.258 337.438 973.048 336.931L973.318 336.819C973.231 336.609 973.183 336.379 973.183 336.137C973.183 335.895 973.231 335.664 973.318 335.455L973.048 335.343C973.258 334.835 973.664 334.43 974.171 334.219L974.283 334.489C974.493 334.402 974.723 334.354 974.966 334.354H977.38V334.062H982.208V334.354H987.036V334.062H991.864V334.354H996.693V334.062H1001.52V334.354H1006.35V334.062H1011.18V334.354H1016.01V334.062H1020.83V334.354H1025.66V334.062H1030.49V334.354H1035.32V334.062H1040.15V334.354H1044.97V334.062H1049.8V334.354H1054.63V334.062H1059.46V334.354H1064.29V334.062H1069.12V334.354H1073.94V334.062H1078.77V334.354H1083.6V334.062H1088.43V334.354H1093.26V334.062H1098.09V334.354H1100.5C1100.74 334.354 1100.97 334.402 1101.18 334.489L1101.29 334.219C1101.8 334.43 1102.21 334.835 1102.42 335.343L1102.15 335.455C1102.23 335.664 1102.28 335.895 1102.28 336.137C1102.28 336.379 1102.23 336.609 1102.15 336.819L1102.42 336.931C1102.21 337.438 1101.8 337.844 1101.29 338.054L1101.18 337.785C1100.97 337.872 1100.74 337.92 1100.5 337.92H1098.09V338.212H1093.26V337.92H1088.43V338.212H1083.6V337.92H1078.77V338.212H1073.94V337.92H1069.12V338.212H1064.29V337.92H1059.46V338.212H1054.63V337.92H1049.8V338.212H1044.97V337.92H1040.15V338.212H1035.32V337.92H1030.49V338.212H1025.66V337.92H1020.83V338.212H1016.01V337.92H1011.18V338.212H1006.35V337.92H1001.52V338.212H996.693V337.92H991.864V338.212H987.036V337.92H982.208V338.212H977.38V337.92H974.966Z" stroke="#577FFB" stroke-width="0.584135" stroke-linejoin="round" stroke-dasharray="4.67 4.67"></path>
  <path d="M974.758 347.945C974.544 347.945 974.34 347.903 974.155 347.826L974.043 348.096C973.587 347.906 973.222 347.541 973.032 347.085L973.302 346.973C973.225 346.787 973.183 346.584 973.183 346.37C973.183 346.156 973.225 345.952 973.302 345.767L973.032 345.655C973.222 345.199 973.587 344.833 974.043 344.644L974.155 344.914C974.34 344.837 974.544 344.795 974.758 344.795H977.18V344.502H982.024V344.795H986.868V344.502H991.713V344.795H996.557V344.502H1001.4V344.795H1006.25V344.502H1011.09V344.795H1015.93V344.502H1020.78V344.795H1025.62V344.502H1030.47V344.795H1035.31V344.502H1040.15V344.795H1045V344.502H1049.84V344.795H1054.69V344.502H1059.53V344.795H1064.38V344.502H1069.22V344.795H1074.06V344.502H1078.91V344.795H1083.75V344.502H1088.6V344.795H1093.44V344.502H1098.28V344.795H1100.71C1100.92 344.795 1101.12 344.837 1101.31 344.914L1101.42 344.644C1101.88 344.833 1102.24 345.199 1102.43 345.655L1102.16 345.767C1102.24 345.952 1102.28 346.156 1102.28 346.37C1102.28 346.584 1102.24 346.787 1102.16 346.973L1102.43 347.085C1102.24 347.541 1101.88 347.906 1101.42 348.096L1101.31 347.826C1101.12 347.903 1100.92 347.945 1100.71 347.945H1098.28V348.237H1093.44V347.945H1088.6V348.237H1083.75V347.945H1078.91V348.237H1074.06V347.945H1069.22V348.237H1064.38V347.945H1059.53V348.237H1054.69V347.945H1049.84V348.237H1045V347.945H1040.15V348.237H1035.31V347.945H1030.47V348.237H1025.62V347.945H1020.78V348.237H1015.93V347.945H1011.09V348.237H1006.25V347.945H1001.4V348.237H996.557V347.945H991.713V348.237H986.868V347.945H982.024V348.237H977.18V347.945H974.758Z" stroke="#577FFB" stroke-width="0.584135" stroke-linejoin="round" stroke-dasharray="4.67 4.67"></path>
  <path d="M974.966 358.386C974.723 358.386 974.493 358.337 974.283 358.25L974.171 358.52C973.664 358.31 973.258 357.904 973.048 357.397L973.318 357.285C973.231 357.075 973.183 356.845 973.183 356.603C973.183 356.36 973.231 356.13 973.318 355.92L973.048 355.808C973.258 355.301 973.664 354.896 974.171 354.685L974.283 354.955C974.493 354.868 974.723 354.82 974.966 354.82H977.38V354.528H982.208V354.82H987.036V354.528H991.864V354.82H996.693V354.528H1001.52V354.82H1006.35V354.528H1011.18V354.82H1016.01V354.528H1020.83V354.82H1025.66V354.528H1030.49V354.82H1035.32V354.528H1040.15V354.82H1044.97V354.528H1049.8V354.82H1054.63V354.528H1059.46V354.82H1064.29V354.528H1069.12V354.82H1073.94V354.528H1078.77V354.82H1083.6V354.528H1088.43V354.82H1093.26V354.528H1098.09V354.82H1100.5C1100.74 354.82 1100.97 354.868 1101.18 354.955L1101.29 354.685C1101.8 354.896 1102.21 355.301 1102.42 355.808L1102.15 355.92C1102.23 356.13 1102.28 356.36 1102.28 356.603C1102.28 356.845 1102.23 357.075 1102.15 357.285L1102.42 357.397C1102.21 357.904 1101.8 358.31 1101.29 358.52L1101.18 358.25C1100.97 358.337 1100.74 358.386 1100.5 358.386H1098.09V358.678H1093.26V358.386H1088.43V358.678H1083.6V358.386H1078.77V358.678H1073.94V358.386H1069.12V358.678H1064.29V358.386H1059.46V358.678H1054.63V358.386H1049.8V358.678H1044.97V358.386H1040.15V358.678H1035.32V358.386H1030.49V358.678H1025.66V358.386H1020.83V358.678H1016.01V358.386H1011.18V358.678H1006.35V358.386H1001.52V358.678H996.693V358.386H991.864V358.678H987.036V358.386H982.208V358.678H977.38V358.386H974.966Z" stroke="#577FFB" stroke-width="0.584135" stroke-linejoin="round" stroke-dasharray="4.67 4.67"></path>
  <path d="M974.966 368.826C974.723 368.826 974.493 368.778 974.283 368.691L974.171 368.961C973.664 368.75 973.258 368.345 973.048 367.837L973.318 367.726C973.231 367.516 973.183 367.285 973.183 367.043C973.183 366.801 973.231 366.571 973.318 366.361L973.048 366.249C973.258 365.742 973.664 365.336 974.171 365.126L974.283 365.395C974.493 365.308 974.723 365.26 974.966 365.26H977.38V364.968H982.208V365.26H987.036V364.968H991.864V365.26H996.693V364.968H1001.52V365.26H1006.35V364.968H1011.18V365.26H1016.01V364.968H1020.83V365.26H1025.66V364.968H1030.49V365.26H1035.32V364.968H1040.15V365.26H1044.97V364.968H1049.8V365.26H1054.63V364.968H1059.46V365.26H1064.29V364.968H1069.12V365.26H1073.94V364.968H1078.77V365.26H1083.6V364.968H1088.43V365.26H1093.26V364.968H1098.09V365.26H1100.5C1100.74 365.26 1100.97 365.308 1101.18 365.395L1101.29 365.126C1101.8 365.336 1102.21 365.742 1102.42 366.249L1102.15 366.361C1102.23 366.571 1102.28 366.801 1102.28 367.043C1102.28 367.285 1102.23 367.516 1102.15 367.726L1102.42 367.837C1102.21 368.345 1101.8 368.75 1101.29 368.961L1101.18 368.691C1100.97 368.778 1100.74 368.826 1100.5 368.826H1098.09V369.118H1093.26V368.826H1088.43V369.118H1083.6V368.826H1078.77V369.118H1073.94V368.826H1069.12V369.118H1064.29V368.826H1059.46V369.118H1054.63V368.826H1049.8V369.118H1044.97V368.826H1040.15V369.118H1035.32V368.826H1030.49V369.118H1025.66V368.826H1020.83V369.118H1016.01V368.826H1011.18V369.118H1006.35V368.826H1001.52V369.118H996.693V368.826H991.864V369.118H987.036V368.826H982.208V369.118H977.38V368.826H974.966Z" stroke="#577FFB" stroke-width="0.584135" stroke-linejoin="round" stroke-dasharray="4.67 4.67"></path>
  <path d="M974.966 379.266C974.723 379.266 974.493 379.218 974.283 379.131L974.171 379.401C973.664 379.191 973.258 378.785 973.048 378.278L973.318 378.166C973.231 377.956 973.183 377.726 973.183 377.484C973.183 377.241 973.231 377.011 973.318 376.801L973.048 376.689C973.258 376.182 973.664 375.776 974.171 375.566L974.283 375.836C974.493 375.749 974.723 375.701 974.966 375.701H977.38V375.409H982.208V375.701H987.036V375.409H991.864V375.701H996.693V375.409H1001.52V375.701H1006.35V375.409H1011.18V375.701H1016.01V375.409H1020.83V375.701H1025.66V375.409H1030.49V375.701H1035.32V375.409H1040.15V375.701H1044.97V375.409H1049.8V375.701H1054.63V375.409H1059.46V375.701H1064.29V375.409H1069.12V375.701H1073.94V375.409H1078.77V375.701H1083.6V375.409H1088.43V375.701H1093.26V375.409H1098.09V375.701H1100.5C1100.74 375.701 1100.97 375.749 1101.18 375.836L1101.29 375.566C1101.8 375.776 1102.21 376.182 1102.42 376.689L1102.15 376.801C1102.23 377.011 1102.28 377.241 1102.28 377.484C1102.28 377.726 1102.23 377.956 1102.15 378.166L1102.42 378.278C1102.21 378.785 1101.8 379.191 1101.29 379.401L1101.18 379.131C1100.97 379.218 1100.74 379.266 1100.5 379.266H1098.09V379.558H1093.26V379.266H1088.43V379.558H1083.6V379.266H1078.77V379.558H1073.94V379.266H1069.12V379.558H1064.29V379.266H1059.46V379.558H1054.63V379.266H1049.8V379.558H1044.97V379.266H1040.15V379.558H1035.32V379.266H1030.49V379.558H1025.66V379.266H1020.83V379.558H1016.01V379.266H1011.18V379.558H1006.35V379.266H1001.52V379.558H996.693V379.266H991.864V379.558H987.036V379.266H982.208V379.558H977.38V379.266H974.966Z" stroke="#577FFB" stroke-width="0.584135" stroke-linejoin="round" stroke-dasharray="4.67 4.67"></path>
  <path d="M896.017 485.805C895.233 485.805 894.487 485.65 893.806 485.367L893.694 485.637C892.211 485.022 891.025 483.836 890.41 482.353L890.679 482.241C890.397 481.56 890.241 480.814 890.241 480.03V477.704H889.949V473.052H890.241V468.401H889.949V463.749H890.241V459.097H889.949V454.446H890.241V449.794H889.949V445.142H890.241V440.49H889.949V435.839H890.241V433.513C890.241 432.729 890.397 431.983 890.679 431.302L890.41 431.19C891.025 429.707 892.211 428.521 893.694 427.906L893.806 428.176C894.487 427.893 895.233 427.737 896.017 427.737H898.418V427.445H903.222V427.737H908.025V427.445H912.829V427.737H917.632V427.445H922.435V427.737H927.239V427.445H932.042V427.737H936.846V427.445H941.649V427.737H946.453V427.445H951.256V427.737H953.658C954.441 427.737 955.188 427.893 955.868 428.176L955.98 427.906C957.463 428.521 958.65 429.707 959.265 431.19L958.995 431.302C959.277 431.983 959.433 432.729 959.433 433.513V435.839H959.725V440.49H959.433V445.142H959.725V449.794H959.433V454.446H959.725V459.097H959.433V463.749H959.725V468.401H959.433V473.052H959.725V477.704H959.433V480.03C959.433 480.814 959.277 481.56 958.995 482.241L959.265 482.353C958.65 483.836 957.463 485.022 955.98 485.637L955.868 485.367C955.188 485.65 954.441 485.805 953.658 485.805H951.256V486.098H946.453V485.805H941.649V486.098H936.846V485.805H932.042V486.098H927.239V485.805H922.435V486.098H917.632V485.805H912.829V486.098H908.025V485.805H903.222V486.098H898.418V485.805H896.017Z" stroke="#577FFB" stroke-width="0.584135" stroke-linejoin="round" stroke-dasharray="4.67 4.67"></path>
  <path d="M974.758 430.888C974.544 430.888 974.34 430.845 974.155 430.769L974.043 431.038C973.587 430.849 973.222 430.484 973.032 430.028L973.302 429.916C973.225 429.73 973.183 429.527 973.183 429.313C973.183 429.099 973.225 428.895 973.302 428.71L973.032 428.598C973.222 428.141 973.587 427.776 974.043 427.587L974.155 427.857C974.34 427.78 974.544 427.737 974.758 427.737H976.961V427.445H981.367V427.737H985.773V427.445H990.178V427.737H994.584V427.445H998.99V427.737H1003.4V427.445H1007.8V427.737H1012.21V427.445H1016.61V427.737H1021.02V427.445H1025.43V427.737H1029.83V427.445H1034.24V427.737H1036.44C1036.65 427.737 1036.86 427.78 1037.04 427.857L1037.15 427.587C1037.61 427.776 1037.98 428.141 1038.17 428.598L1037.9 428.71C1037.97 428.895 1038.01 429.099 1038.01 429.313C1038.01 429.527 1037.97 429.73 1037.9 429.916L1038.17 430.028C1037.98 430.484 1037.61 430.849 1037.15 431.038L1037.04 430.769C1036.86 430.845 1036.65 430.888 1036.44 430.888H1034.24V431.18H1029.83V430.888H1025.43V431.18H1021.02V430.888H1016.61V431.18H1012.21V430.888H1007.8V431.18H1003.4V430.888H998.99V431.18H994.584V430.888H990.178V431.18H985.773V430.888H981.367V431.18H976.961V430.888H974.758Z" stroke="#577FFB" stroke-width="0.584135" stroke-linejoin="round" stroke-dasharray="4.67 4.67"></path>
  <path d="M974.966 441.328C974.723 441.328 974.493 441.28 974.283 441.193L974.171 441.463C973.664 441.253 973.258 440.847 973.048 440.34L973.318 440.228C973.231 440.018 973.183 439.788 973.183 439.546C973.183 439.303 973.231 439.073 973.318 438.863L973.048 438.751C973.258 438.244 973.664 437.838 974.171 437.628L974.283 437.898C974.493 437.811 974.723 437.763 974.966 437.763H977.38V437.471H982.208V437.763H987.036V437.471H991.864V437.763H996.693V437.471H1001.52V437.763H1006.35V437.471H1011.18V437.763H1016.01V437.471H1020.83V437.763H1025.66V437.471H1030.49V437.763H1035.32V437.471H1040.15V437.763H1044.97V437.471H1049.8V437.763H1054.63V437.471H1059.46V437.763H1064.29V437.471H1069.12V437.763H1073.94V437.471H1078.77V437.763H1083.6V437.471H1088.43V437.763H1093.26V437.471H1098.09V437.763H1100.5C1100.74 437.763 1100.97 437.811 1101.18 437.898L1101.29 437.628C1101.8 437.838 1102.21 438.244 1102.42 438.751L1102.15 438.863C1102.23 439.073 1102.28 439.303 1102.28 439.546C1102.28 439.788 1102.23 440.018 1102.15 440.228L1102.42 440.34C1102.21 440.847 1101.8 441.253 1101.29 441.463L1101.18 441.193C1100.97 441.28 1100.74 441.328 1100.5 441.328H1098.09V441.62H1093.26V441.328H1088.43V441.62H1083.6V441.328H1078.77V441.62H1073.94V441.328H1069.12V441.62H1064.29V441.328H1059.46V441.62H1054.63V441.328H1049.8V441.62H1044.97V441.328H1040.15V441.62H1035.32V441.328H1030.49V441.62H1025.66V441.328H1020.83V441.62H1016.01V441.328H1011.18V441.62H1006.35V441.328H1001.52V441.62H996.693V441.328H991.864V441.62H987.036V441.328H982.208V441.62H977.38V441.328H974.966Z" stroke="#577FFB" stroke-width="0.584135" stroke-linejoin="round" stroke-dasharray="4.67 4.67"></path>
  <path d="M974.758 451.354C974.544 451.354 974.34 451.311 974.155 451.234L974.043 451.504C973.587 451.315 973.222 450.95 973.032 450.493L973.302 450.381C973.225 450.196 973.183 449.993 973.183 449.779C973.183 449.564 973.225 449.361 973.302 449.176L973.032 449.064C973.222 448.607 973.587 448.242 974.043 448.053L974.155 448.323C974.34 448.246 974.544 448.203 974.758 448.203H977.18V447.911H982.024V448.203H986.868V447.911H991.713V448.203H996.557V447.911H1001.4V448.203H1006.25V447.911H1011.09V448.203H1015.93V447.911H1020.78V448.203H1025.62V447.911H1030.47V448.203H1035.31V447.911H1040.15V448.203H1045V447.911H1049.84V448.203H1054.69V447.911H1059.53V448.203H1064.38V447.911H1069.22V448.203H1074.06V447.911H1078.91V448.203H1083.75V447.911H1088.6V448.203H1093.44V447.911H1098.28V448.203H1100.71C1100.92 448.203 1101.12 448.246 1101.31 448.323L1101.42 448.053C1101.88 448.242 1102.24 448.607 1102.43 449.064L1102.16 449.176C1102.24 449.361 1102.28 449.564 1102.28 449.779C1102.28 449.993 1102.24 450.196 1102.16 450.381L1102.43 450.493C1102.24 450.95 1101.88 451.315 1101.42 451.504L1101.31 451.234C1101.12 451.311 1100.92 451.354 1100.71 451.354H1098.28V451.646H1093.44V451.354H1088.6V451.646H1083.75V451.354H1078.91V451.646H1074.06V451.354H1069.22V451.646H1064.38V451.354H1059.53V451.646H1054.69V451.354H1049.84V451.646H1045V451.354H1040.15V451.646H1035.31V451.354H1030.47V451.646H1025.62V451.354H1020.78V451.646H1015.93V451.354H1011.09V451.646H1006.25V451.354H1001.4V451.646H996.557V451.354H991.713V451.646H986.868V451.354H982.024V451.646H977.18V451.354H974.758Z" stroke="#577FFB" stroke-width="0.584135" stroke-linejoin="round" stroke-dasharray="4.67 4.67"></path>
  <path d="M974.966 461.794C974.723 461.794 974.493 461.746 974.283 461.659L974.171 461.929C973.664 461.719 973.258 461.313 973.048 460.806L973.318 460.694C973.231 460.484 973.183 460.254 973.183 460.011C973.183 459.769 973.231 459.539 973.318 459.329L973.048 459.217C973.258 458.71 973.664 458.304 974.171 458.094L974.283 458.364C974.493 458.277 974.723 458.229 974.966 458.229H977.38V457.937H982.208V458.229H987.036V457.937H991.864V458.229H996.693V457.937H1001.52V458.229H1006.35V457.937H1011.18V458.229H1016.01V457.937H1020.83V458.229H1025.66V457.937H1030.49V458.229H1035.32V457.937H1040.15V458.229H1044.97V457.937H1049.8V458.229H1054.63V457.937H1059.46V458.229H1064.29V457.937H1069.12V458.229H1073.94V457.937H1078.77V458.229H1083.6V457.937H1088.43V458.229H1093.26V457.937H1098.09V458.229H1100.5C1100.74 458.229 1100.97 458.277 1101.18 458.364L1101.29 458.094C1101.8 458.304 1102.21 458.71 1102.42 459.217L1102.15 459.329C1102.23 459.539 1102.28 459.769 1102.28 460.011C1102.28 460.254 1102.23 460.484 1102.15 460.694L1102.42 460.806C1102.21 461.313 1101.8 461.719 1101.29 461.929L1101.18 461.659C1100.97 461.746 1100.74 461.794 1100.5 461.794H1098.09V462.086H1093.26V461.794H1088.43V462.086H1083.6V461.794H1078.77V462.086H1073.94V461.794H1069.12V462.086H1064.29V461.794H1059.46V462.086H1054.63V461.794H1049.8V462.086H1044.97V461.794H1040.15V462.086H1035.32V461.794H1030.49V462.086H1025.66V461.794H1020.83V462.086H1016.01V461.794H1011.18V462.086H1006.35V461.794H1001.52V462.086H996.693V461.794H991.864V462.086H987.036V461.794H982.208V462.086H977.38V461.794H974.966Z" stroke="#577FFB" stroke-width="0.584135" stroke-linejoin="round" stroke-dasharray="4.67 4.67"></path>
  <path d="M974.966 472.235C974.723 472.235 974.493 472.186 974.283 472.099L974.171 472.369C973.664 472.159 973.258 471.753 973.048 471.246L973.318 471.134C973.231 470.924 973.183 470.694 973.183 470.452C973.183 470.21 973.231 469.979 973.318 469.769L973.048 469.658C973.258 469.15 973.664 468.745 974.171 468.534L974.283 468.804C974.493 468.717 974.723 468.669 974.966 468.669H977.38V468.377H982.208V468.669H987.036V468.377H991.864V468.669H996.693V468.377H1001.52V468.669H1006.35V468.377H1011.18V468.669H1016.01V468.377H1020.83V468.669H1025.66V468.377H1030.49V468.669H1035.32V468.377H1040.15V468.669H1044.97V468.377H1049.8V468.669H1054.63V468.377H1059.46V468.669H1064.29V468.377H1069.12V468.669H1073.94V468.377H1078.77V468.669H1083.6V468.377H1088.43V468.669H1093.26V468.377H1098.09V468.669H1100.5C1100.74 468.669 1100.97 468.717 1101.18 468.804L1101.29 468.534C1101.8 468.745 1102.21 469.15 1102.42 469.658L1102.15 469.769C1102.23 469.979 1102.28 470.21 1102.28 470.452C1102.28 470.694 1102.23 470.924 1102.15 471.134L1102.42 471.246C1102.21 471.753 1101.8 472.159 1101.29 472.369L1101.18 472.099C1100.97 472.186 1100.74 472.235 1100.5 472.235H1098.09V472.527H1093.26V472.235H1088.43V472.527H1083.6V472.235H1078.77V472.527H1073.94V472.235H1069.12V472.527H1064.29V472.235H1059.46V472.527H1054.63V472.235H1049.8V472.527H1044.97V472.235H1040.15V472.527H1035.32V472.235H1030.49V472.527H1025.66V472.235H1020.83V472.527H1016.01V472.235H1011.18V472.527H1006.35V472.235H1001.52V472.527H996.693V472.235H991.864V472.527H987.036V472.235H982.208V472.527H977.38V472.235H974.966Z" stroke="#577FFB" stroke-width="0.584135" stroke-linejoin="round" stroke-dasharray="4.67 4.67"></path>
  <path d="M974.966 482.675C974.723 482.675 974.493 482.627 974.283 482.54L974.171 482.81C973.664 482.599 973.258 482.194 973.048 481.687L973.318 481.575C973.231 481.365 973.183 481.135 973.183 480.892C973.183 480.65 973.231 480.42 973.318 480.21L973.048 480.098C973.258 479.591 973.664 479.185 974.171 478.975L974.283 479.245C974.493 479.158 974.723 479.109 974.966 479.109H977.38V478.817H982.208V479.109H987.036V478.817H991.864V479.109H996.693V478.817H1001.52V479.109H1006.35V478.817H1011.18V479.109H1016.01V478.817H1020.83V479.109H1025.66V478.817H1030.49V479.109H1035.32V478.817H1040.15V479.109H1044.97V478.817H1049.8V479.109H1054.63V478.817H1059.46V479.109H1064.29V478.817H1069.12V479.109H1073.94V478.817H1078.77V479.109H1083.6V478.817H1088.43V479.109H1093.26V478.817H1098.09V479.109H1100.5C1100.74 479.109 1100.97 479.158 1101.18 479.245L1101.29 478.975C1101.8 479.185 1102.21 479.591 1102.42 480.098L1102.15 480.21C1102.23 480.42 1102.28 480.65 1102.28 480.892C1102.28 481.135 1102.23 481.365 1102.15 481.575L1102.42 481.687C1102.21 482.194 1101.8 482.599 1101.29 482.81L1101.18 482.54C1100.97 482.627 1100.74 482.675 1100.5 482.675H1098.09V482.967H1093.26V482.675H1088.43V482.967H1083.6V482.675H1078.77V482.967H1073.94V482.675H1069.12V482.967H1064.29V482.675H1059.46V482.967H1054.63V482.675H1049.8V482.967H1044.97V482.675H1040.15V482.967H1035.32V482.675H1030.49V482.967H1025.66V482.675H1020.83V482.967H1016.01V482.675H1011.18V482.967H1006.35V482.675H1001.52V482.967H996.693V482.675H991.864V482.967H987.036V482.675H982.208V482.967H977.38V482.675H974.966Z" stroke="#577FFB" stroke-width="0.584135" stroke-linejoin="round" stroke-dasharray="4.67 4.67"></path>
  <path d="M896.017 589.214C895.233 589.214 894.487 589.058 893.806 588.776L893.694 589.046C892.211 588.431 891.025 587.244 890.41 585.761L890.679 585.649C890.397 584.969 890.241 584.222 890.241 583.439V581.113H889.949V576.461H890.241V571.809H889.949V567.158H890.241V562.506H889.949V557.854H890.241V553.203H889.949V548.551H890.241V543.899H889.949V539.247H890.241V536.921C890.241 536.138 890.397 535.391 890.679 534.711L890.41 534.599C891.025 533.116 892.211 531.929 893.694 531.314L893.806 531.584C894.487 531.302 895.233 531.146 896.017 531.146H898.418V530.854H903.222V531.146H908.025V530.854H912.829V531.146H917.632V530.854H922.435V531.146H927.239V530.854H932.042V531.146H936.846V530.854H941.649V531.146H946.453V530.854H951.256V531.146H953.658C954.441 531.146 955.188 531.302 955.868 531.584L955.98 531.314C957.463 531.929 958.65 533.116 959.265 534.599L958.995 534.711C959.277 535.391 959.433 536.138 959.433 536.921V539.247H959.725V543.899H959.433V548.551H959.725V553.203H959.433V557.854H959.725V562.506H959.433V567.158H959.725V571.809H959.433V576.461H959.725V581.113H959.433V583.439C959.433 584.222 959.277 584.969 958.995 585.649L959.265 585.761C958.65 587.244 957.463 588.431 955.98 589.046L955.868 588.776C955.188 589.058 954.441 589.214 953.658 589.214H951.256V589.506H946.453V589.214H941.649V589.506H936.846V589.214H932.042V589.506H927.239V589.214H922.435V589.506H917.632V589.214H912.829V589.506H908.025V589.214H903.222V589.506H898.418V589.214H896.017Z" stroke="#577FFB" stroke-width="0.584135" stroke-linejoin="round" stroke-dasharray="4.67 4.67"></path>
  <path d="M974.758 534.297C974.544 534.297 974.34 534.254 974.155 534.177L974.043 534.447C973.587 534.258 973.222 533.893 973.032 533.436L973.302 533.324C973.225 533.139 973.183 532.936 973.183 532.721C973.183 532.507 973.225 532.304 973.302 532.118L973.032 532.007C973.222 531.55 973.587 531.185 974.043 530.996L974.155 531.265C974.34 531.189 974.544 531.146 974.758 531.146H976.961V530.854H981.367V531.146H985.773V530.854H990.178V531.146H994.584V530.854H998.99V531.146H1003.4V530.854H1007.8V531.146H1012.21V530.854H1016.61V531.146H1021.02V530.854H1025.43V531.146H1029.83V530.854H1034.24V531.146H1036.44C1036.65 531.146 1036.86 531.189 1037.04 531.265L1037.15 530.996C1037.61 531.185 1037.98 531.55 1038.17 532.007L1037.9 532.118C1037.97 532.304 1038.01 532.507 1038.01 532.721C1038.01 532.936 1037.97 533.139 1037.9 533.324L1038.17 533.436C1037.98 533.893 1037.61 534.258 1037.15 534.447L1037.04 534.177C1036.86 534.254 1036.65 534.297 1036.44 534.297H1034.24V534.589H1029.83V534.297H1025.43V534.589H1021.02V534.297H1016.61V534.589H1012.21V534.297H1007.8V534.589H1003.4V534.297H998.99V534.589H994.584V534.297H990.178V534.589H985.773V534.297H981.367V534.589H976.961V534.297H974.758Z" stroke="#577FFB" stroke-width="0.584135" stroke-linejoin="round" stroke-dasharray="4.67 4.67"></path>
  <path d="M974.966 544.737C974.723 544.737 974.493 544.689 974.283 544.602L974.171 544.872C973.664 544.661 973.258 544.256 973.048 543.749L973.318 543.637C973.231 543.427 973.183 543.197 973.183 542.954C973.183 542.712 973.231 542.482 973.318 542.272L973.048 542.16C973.258 541.653 973.664 541.247 974.171 541.037L974.283 541.307C974.493 541.22 974.723 541.171 974.966 541.171H977.38V540.879H982.208V541.171H987.036V540.879H991.864V541.171H996.693V540.879H1001.52V541.171H1006.35V540.879H1011.18V541.171H1016.01V540.879H1020.83V541.171H1025.66V540.879H1030.49V541.171H1035.32V540.879H1040.15V541.171H1044.97V540.879H1049.8V541.171H1054.63V540.879H1059.46V541.171H1064.29V540.879H1069.12V541.171H1073.94V540.879H1078.77V541.171H1083.6V540.879H1088.43V541.171H1093.26V540.879H1098.09V541.171H1100.5C1100.74 541.171 1100.97 541.22 1101.18 541.307L1101.29 541.037C1101.8 541.247 1102.21 541.653 1102.42 542.16L1102.15 542.272C1102.23 542.482 1102.28 542.712 1102.28 542.954C1102.28 543.197 1102.23 543.427 1102.15 543.637L1102.42 543.749C1102.21 544.256 1101.8 544.661 1101.29 544.872L1101.18 544.602C1100.97 544.689 1100.74 544.737 1100.5 544.737H1098.09V545.029H1093.26V544.737H1088.43V545.029H1083.6V544.737H1078.77V545.029H1073.94V544.737H1069.12V545.029H1064.29V544.737H1059.46V545.029H1054.63V544.737H1049.8V545.029H1044.97V544.737H1040.15V545.029H1035.32V544.737H1030.49V545.029H1025.66V544.737H1020.83V545.029H1016.01V544.737H1011.18V545.029H1006.35V544.737H1001.52V545.029H996.693V544.737H991.864V545.029H987.036V544.737H982.208V545.029H977.38V544.737H974.966Z" stroke="#577FFB" stroke-width="0.584135" stroke-linejoin="round" stroke-dasharray="4.67 4.67"></path>
  <path d="M974.758 554.763C974.544 554.763 974.34 554.72 974.155 554.643L974.043 554.913C973.587 554.724 973.222 554.359 973.032 553.902L973.302 553.79C973.225 553.605 973.183 553.401 973.183 553.187C973.183 552.973 973.225 552.77 973.302 552.584L973.032 552.472C973.222 552.016 973.587 551.651 974.043 551.462L974.155 551.731C974.34 551.654 974.544 551.612 974.758 551.612H977.18V551.32H982.024V551.612H986.868V551.32H991.713V551.612H996.557V551.32H1001.4V551.612H1006.25V551.32H1011.09V551.612H1015.93V551.32H1020.78V551.612H1025.62V551.32H1030.47V551.612H1035.31V551.32H1040.15V551.612H1045V551.32H1049.84V551.612H1054.69V551.32H1059.53V551.612H1064.38V551.32H1069.22V551.612H1074.06V551.32H1078.91V551.612H1083.75V551.32H1088.6V551.612H1093.44V551.32H1098.28V551.612H1100.71C1100.92 551.612 1101.12 551.654 1101.31 551.731L1101.42 551.462C1101.88 551.651 1102.24 552.016 1102.43 552.472L1102.16 552.584C1102.24 552.77 1102.28 552.973 1102.28 553.187C1102.28 553.401 1102.24 553.605 1102.16 553.79L1102.43 553.902C1102.24 554.359 1101.88 554.724 1101.42 554.913L1101.31 554.643C1101.12 554.72 1100.92 554.763 1100.71 554.763H1098.28V555.055H1093.44V554.763H1088.6V555.055H1083.75V554.763H1078.91V555.055H1074.06V554.763H1069.22V555.055H1064.38V554.763H1059.53V555.055H1054.69V554.763H1049.84V555.055H1045V554.763H1040.15V555.055H1035.31V554.763H1030.47V555.055H1025.62V554.763H1020.78V555.055H1015.93V554.763H1011.09V555.055H1006.25V554.763H1001.4V555.055H996.557V554.763H991.713V555.055H986.868V554.763H982.024V555.055H977.18V554.763H974.758Z" stroke="#577FFB" stroke-width="0.584135" stroke-linejoin="round" stroke-dasharray="4.67 4.67"></path>
  <path d="M974.966 565.203C974.723 565.203 974.493 565.155 974.283 565.068L974.171 565.338C973.664 565.127 973.258 564.722 973.048 564.214L973.318 564.102C973.231 563.893 973.183 563.662 973.183 563.42C973.183 563.178 973.231 562.948 973.318 562.738L973.048 562.626C973.258 562.119 973.664 561.713 974.171 561.503L974.283 561.772C974.493 561.685 974.723 561.637 974.966 561.637H977.38V561.345H982.208V561.637H987.036V561.345H991.864V561.637H996.693V561.345H1001.52V561.637H1006.35V561.345H1011.18V561.637H1016.01V561.345H1020.83V561.637H1025.66V561.345H1030.49V561.637H1035.32V561.345H1040.15V561.637H1044.97V561.345H1049.8V561.637H1054.63V561.345H1059.46V561.637H1064.29V561.345H1069.12V561.637H1073.94V561.345H1078.77V561.637H1083.6V561.345H1088.43V561.637H1093.26V561.345H1098.09V561.637H1100.5C1100.74 561.637 1100.97 561.685 1101.18 561.772L1101.29 561.503C1101.8 561.713 1102.21 562.119 1102.42 562.626L1102.15 562.738C1102.23 562.948 1102.28 563.178 1102.28 563.42C1102.28 563.662 1102.23 563.893 1102.15 564.102L1102.42 564.214C1102.21 564.722 1101.8 565.127 1101.29 565.338L1101.18 565.068C1100.97 565.155 1100.74 565.203 1100.5 565.203H1098.09V565.495H1093.26V565.203H1088.43V565.495H1083.6V565.203H1078.77V565.495H1073.94V565.203H1069.12V565.495H1064.29V565.203H1059.46V565.495H1054.63V565.203H1049.8V565.495H1044.97V565.203H1040.15V565.495H1035.32V565.203H1030.49V565.495H1025.66V565.203H1020.83V565.495H1016.01V565.203H1011.18V565.495H1006.35V565.203H1001.52V565.495H996.693V565.203H991.864V565.495H987.036V565.203H982.208V565.495H977.38V565.203H974.966Z" stroke="#577FFB" stroke-width="0.584135" stroke-linejoin="round" stroke-dasharray="4.67 4.67"></path>
  <path d="M974.966 575.643C974.723 575.643 974.493 575.595 974.283 575.508L974.171 575.778C973.664 575.568 973.258 575.162 973.048 574.655L973.318 574.543C973.231 574.333 973.183 574.103 973.183 573.861C973.183 573.618 973.231 573.388 973.318 573.178L973.048 573.066C973.258 572.559 973.664 572.153 974.171 571.943L974.283 572.213C974.493 572.126 974.723 572.078 974.966 572.078H977.38V571.786H982.208V572.078H987.036V571.786H991.864V572.078H996.693V571.786H1001.52V572.078H1006.35V571.786H1011.18V572.078H1016.01V571.786H1020.83V572.078H1025.66V571.786H1030.49V572.078H1035.32V571.786H1040.15V572.078H1044.97V571.786H1049.8V572.078H1054.63V571.786H1059.46V572.078H1064.29V571.786H1069.12V572.078H1073.94V571.786H1078.77V572.078H1083.6V571.786H1088.43V572.078H1093.26V571.786H1098.09V572.078H1100.5C1100.74 572.078 1100.97 572.126 1101.18 572.213L1101.29 571.943C1101.8 572.153 1102.21 572.559 1102.42 573.066L1102.15 573.178C1102.23 573.388 1102.28 573.618 1102.28 573.861C1102.28 574.103 1102.23 574.333 1102.15 574.543L1102.42 574.655C1102.21 575.162 1101.8 575.568 1101.29 575.778L1101.18 575.508C1100.97 575.595 1100.74 575.643 1100.5 575.643H1098.09V575.935H1093.26V575.643H1088.43V575.935H1083.6V575.643H1078.77V575.935H1073.94V575.643H1069.12V575.935H1064.29V575.643H1059.46V575.935H1054.63V575.643H1049.8V575.935H1044.97V575.643H1040.15V575.935H1035.32V575.643H1030.49V575.935H1025.66V575.643H1020.83V575.935H1016.01V575.643H1011.18V575.935H1006.35V575.643H1001.52V575.935H996.693V575.643H991.864V575.935H987.036V575.643H982.208V575.935H977.38V575.643H974.966Z" stroke="#577FFB" stroke-width="0.584135" stroke-linejoin="round" stroke-dasharray="4.67 4.67"></path>
  <path d="M974.966 586.084C974.723 586.084 974.493 586.036 974.283 585.949L974.171 586.218C973.664 586.008 973.258 585.602 973.048 585.095L973.318 584.983C973.231 584.774 973.183 584.543 973.183 584.301C973.183 584.059 973.231 583.828 973.318 583.619L973.048 583.507C973.258 583 973.664 582.594 974.171 582.384L974.283 582.653C974.493 582.566 974.723 582.518 974.966 582.518H977.38V582.226H982.208V582.518H987.036V582.226H991.864V582.518H996.693V582.226H1001.52V582.518H1006.35V582.226H1011.18V582.518H1016.01V582.226H1020.83V582.518H1025.66V582.226H1030.49V582.518H1035.32V582.226H1040.15V582.518H1044.97V582.226H1049.8V582.518H1054.63V582.226H1059.46V582.518H1064.29V582.226H1069.12V582.518H1073.94V582.226H1078.77V582.518H1083.6V582.226H1088.43V582.518H1093.26V582.226H1098.09V582.518H1100.5C1100.74 582.518 1100.97 582.566 1101.18 582.653L1101.29 582.384C1101.8 582.594 1102.21 583 1102.42 583.507L1102.15 583.619C1102.23 583.828 1102.28 584.059 1102.28 584.301C1102.28 584.543 1102.23 584.774 1102.15 584.983L1102.42 585.095C1102.21 585.602 1101.8 586.008 1101.29 586.218L1101.18 585.949C1100.97 586.036 1100.74 586.084 1100.5 586.084H1098.09V586.376H1093.26V586.084H1088.43V586.376H1083.6V586.084H1078.77V586.376H1073.94V586.084H1069.12V586.376H1064.29V586.084H1059.46V586.376H1054.63V586.084H1049.8V586.376H1044.97V586.084H1040.15V586.376H1035.32V586.084H1030.49V586.376H1025.66V586.084H1020.83V586.376H1016.01V586.084H1011.18V586.376H1006.35V586.084H1001.52V586.376H996.693V586.084H991.864V586.376H987.036V586.084H982.208V586.376H977.38V586.084H974.966Z" stroke="#577FFB" stroke-width="0.584135" stroke-linejoin="round" stroke-dasharray="4.67 4.67"></path>
  <g>
    <path style="fill: var(--color-illustrationInterface010)" d="M559.542 426.01C559.542 463.018 529.54 493.019 492.532 493.019C455.524 493.019 425.522 463.018 425.522 426.01C425.522 389.001 455.524 359 492.532 359C529.54 359 559.542 389.001 559.542 426.01Z"></path>
  </g>
  <path style="fill: var(--color-illustrationHighlight010)" fill-rule="evenodd" clip-rule="evenodd" d="M492.546 403.878C507.514 403.878 520.296 413.192 525.475 426.34C520.296 439.488 507.514 448.802 492.546 448.802C477.578 448.802 464.796 439.488 459.617 426.34C464.796 413.192 477.578 403.878 492.546 403.878ZM492.546 441.315C500.808 441.315 507.514 434.606 507.514 426.34C507.514 418.074 500.808 411.365 492.546 411.365C484.284 411.365 477.579 418.074 477.579 426.34C477.579 434.606 484.284 441.315 492.546 441.315ZM501.527 426.34C501.527 421.368 497.515 417.355 492.546 417.355C487.577 417.355 483.566 421.368 483.566 426.34C483.566 431.312 487.577 435.325 492.546 435.325C497.515 435.325 501.527 431.312 501.527 426.34Z"></path>
  <path style="fill: var(--color-illustrationHighlight010)" d="M748.412 401.614L731.124 450.353H716.266L698.979 401.614H711.615L723.695 438.411L735.845 401.614H748.412Z"></path>
  <path style="fill: var(--color-illustrationHighlight010)" d="M771.008 450.839C767.444 450.839 764.251 450.26 761.427 449.103C758.604 447.946 756.336 446.233 754.623 443.965C752.957 441.697 752.078 438.966 751.985 435.773H764.621C764.806 437.578 765.431 438.966 766.496 439.938C767.56 440.864 768.949 441.327 770.661 441.327C772.42 441.327 773.809 440.933 774.827 440.147C775.845 439.313 776.354 438.179 776.354 436.745C776.354 435.541 775.938 434.546 775.105 433.759C774.318 432.972 773.323 432.324 772.119 431.815C770.962 431.306 769.296 430.727 767.12 430.079C763.973 429.107 761.404 428.135 759.414 427.163C757.424 426.191 755.711 424.757 754.276 422.859C752.841 420.961 752.124 418.485 752.124 415.43C752.124 410.894 753.767 407.353 757.053 404.807C760.34 402.215 764.621 400.919 769.898 400.919C775.267 400.919 779.594 402.215 782.881 404.807C786.167 407.353 787.926 410.917 788.157 415.499H775.313C775.22 413.926 774.642 412.699 773.577 411.82C772.513 410.894 771.147 410.431 769.481 410.431C768.046 410.431 766.889 410.825 766.01 411.611C765.13 412.352 764.69 413.44 764.69 414.875C764.69 416.448 765.431 417.675 766.912 418.554C768.393 419.434 770.708 420.383 773.855 421.401C777.002 422.465 779.548 423.484 781.492 424.456C783.482 425.428 785.195 426.839 786.63 428.691C788.065 430.542 788.782 432.926 788.782 435.842C788.782 438.619 788.065 441.142 786.63 443.41C785.241 445.678 783.205 447.483 780.52 448.825C777.836 450.167 774.665 450.839 771.008 450.839Z"></path>
  <g>
    <path style="fill: var(--color-illustrationInterface010)" d="M1062.82 426.01C1062.82 463.018 1032.82 493.019 995.813 493.019C958.805 493.019 928.804 463.018 928.804 426.01C928.804 389.001 958.805 359 995.813 359C1032.82 359 1062.82 389.001 1062.82 426.01Z"></path>
  </g>
  <path style="fill: var(--color-illustrationHighlight010)" fill-rule="evenodd" clip-rule="evenodd" d="M1025.3 401.576L1021.08 397.323L968.007 450.483L972.228 454.706L982.495 444.434C986.507 445.991 990.847 446.889 995.397 446.889C1010.37 446.889 1023.15 437.575 1028.33 424.427C1026.02 418.527 1022.16 413.436 1017.28 409.602L1025.3 401.576ZM980.43 424.427C980.43 416.161 987.135 409.452 995.397 409.452C996.924 409.452 998.391 409.752 999.798 410.171L1006.29 403.672C1002.85 402.564 999.199 401.965 995.397 401.965C980.43 401.965 967.647 411.279 962.469 424.397C964.534 429.668 967.827 434.281 971.988 437.964L981.148 428.8C980.729 427.422 980.43 425.955 980.43 424.427ZM995.398 439.402C1003.66 439.402 1010.37 432.693 1010.37 424.427C1010.37 422.121 1009.83 419.935 1008.9 418.018L1004.2 422.72C1004.29 423.259 1004.38 423.828 1004.38 424.427C1004.38 429.399 1000.37 433.412 995.398 433.412C994.799 433.412 994.26 433.322 993.691 433.202L988.992 437.905C990.937 438.863 993.093 439.402 995.398 439.402ZM986.507 423.439C986.956 419.246 990.249 415.981 994.41 415.532L986.507 423.439Z"></path>
  <defs>
    
    
  </defs>
</svg>
