<svg
  id="nksvg"
  style="width: 100%; height: 100%"
  width="1490"
  height="838"
  viewBox="0 0 1490 838"
  fill="none"
  xmlns="http://www.w3.org/2000/svg"
  class="css-0"
>
  <path
    style="fill: var(--color-illustrationBackground010)"
    d="M0 0H1490V838H0V0Z"
  ></path>
  <rect
    style="fill: var(--color-illustrationPalette040)"
    x="658.547"
    y="118"
    width="31.9046"
    height="31.9046"
    rx="15.9523"
  ></rect>
  <path
    style="fill: var(--color-white)"
    d="M671.215 137.118C671.513 136.882 671.648 136.773 671.622 136.79C672.48 136.081 673.155 135.498 673.645 135.043C674.144 134.587 674.565 134.11 674.906 133.611C675.248 133.112 675.419 132.626 675.419 132.153C675.419 131.794 675.335 131.513 675.169 131.312C675.003 131.11 674.753 131.01 674.42 131.01C674.087 131.01 673.825 131.137 673.632 131.391C673.448 131.636 673.356 131.986 673.356 132.442H671.188C671.206 131.697 671.364 131.075 671.661 130.576C671.968 130.077 672.366 129.709 672.857 129.473C673.356 129.236 673.908 129.118 674.512 129.118C675.554 129.118 676.338 129.385 676.864 129.919C677.398 130.454 677.665 131.15 677.665 132.008C677.665 132.945 677.345 133.817 676.706 134.622C676.067 135.419 675.252 136.199 674.263 136.961H677.81V138.787H671.215V137.118Z"
  ></path>
  <path
    style="fill: var(--color-illustrationPalette040)"
    d="M673.562 138.787H675.439V262.431H673.562V138.787Z"
  ></path>
  <path
    style="fill: var(--color-illustrationPalette040)"
    d="M677.787 265.716C677.787 267.53 676.317 269 674.503 269C672.689 269 671.219 267.53 671.219 265.716C671.219 263.902 672.689 262.432 674.503 262.432C676.317 262.432 677.787 263.902 677.787 265.716Z"
  ></path>
  <rect
    style="fill: var(--color-illustrationPalette040)"
    x="439"
    y="390.855"
    width="31.9046"
    height="31.9045"
    rx="15.9523"
  ></rect>
  <path
    style="fill: var(--color-white)"
    d="M453.133 404.102V402.013H456.772V411.603H454.433V404.102H453.133Z"
  ></path>
  <path
    style="fill: var(--color-illustrationPalette040)"
    d="M469 405.855H558V407.855H469V405.855Z"
  ></path>
  <path
    style="fill: var(--color-illustrationPalette040)"
    d="M1022.33 461.252H815.462V463.129H1022.33V461.252Z"
  ></path>
  <rect
    style="fill: var(--color-illustrationPalette040)"
    x="1021.49"
    y="445.252"
    width="31.9046"
    height="31.9046"
    rx="15.9523"
  ></rect>
  <path
    style="fill: var(--color-white)"
    d="M1034.22 459.188C1034.26 458.251 1034.57 457.528 1035.14 457.021C1035.72 456.513 1036.51 456.259 1037.5 456.259C1038.15 456.259 1038.71 456.372 1039.18 456.6C1039.65 456.828 1040 457.139 1040.24 457.533C1040.49 457.927 1040.61 458.369 1040.61 458.86C1040.61 459.438 1040.46 459.911 1040.18 460.279C1039.89 460.638 1039.55 460.883 1039.16 461.014V461.067C1039.66 461.233 1040.06 461.509 1040.35 461.894C1040.64 462.28 1040.78 462.775 1040.78 463.379C1040.78 463.922 1040.65 464.404 1040.4 464.824C1040.15 465.236 1039.79 465.56 1039.31 465.796C1038.84 466.033 1038.27 466.151 1037.61 466.151C1036.56 466.151 1035.72 465.892 1035.09 465.376C1034.47 464.859 1034.14 464.08 1034.11 463.037H1036.29C1036.3 463.423 1036.41 463.729 1036.62 463.957C1036.83 464.176 1037.13 464.285 1037.54 464.285C1037.88 464.285 1038.14 464.189 1038.32 463.996C1038.52 463.795 1038.61 463.532 1038.61 463.208C1038.61 462.788 1038.48 462.486 1038.21 462.302C1037.94 462.109 1037.52 462.013 1036.93 462.013H1036.51V460.187H1036.93C1037.38 460.187 1037.74 460.112 1038.01 459.963C1038.29 459.806 1038.43 459.53 1038.43 459.136C1038.43 458.82 1038.34 458.575 1038.17 458.4C1037.99 458.225 1037.75 458.137 1037.44 458.137C1037.11 458.137 1036.86 458.238 1036.69 458.439C1036.54 458.641 1036.44 458.89 1036.42 459.188H1034.22Z"
  ></path>
  <path
    style="fill: var(--color-illustrationPalette040)"
    fill-rule="evenodd"
    clip-rule="evenodd"
    d="M815.462 358.378C815.462 353.82 811.767 350.125 807.209 350.125L802.624 350.125L802.624 351.959L807.209 351.959C810.754 351.959 813.628 354.833 813.628 358.378L813.628 464.75L815.462 464.75L815.462 358.378Z"
  ></path>
  <path
    style="fill: var(--color-illustrationPalette040)"
    fill-rule="evenodd"
    clip-rule="evenodd"
    d="M815.462 575.747C815.462 580.305 811.767 584 807.21 584L802.625 584L802.625 582.166L807.21 582.166C810.755 582.166 813.628 579.292 813.628 575.747L813.628 462L815.462 462L815.462 575.747Z"
  ></path>
  <path
    style="fill: var(--color-illustrationPalette040)"
    fill-rule="evenodd"
    clip-rule="evenodd"
    d="M557 223.253C557 218.695 560.695 215 565.253 215L569.838 215L569.838 216.834L565.253 216.834C561.708 216.834 558.834 219.708 558.834 223.253L558.834 410.5L557 410.5L557 223.253Z"
  ></path>
  <path
    style="fill: var(--color-illustrationPalette040)"
    fill-rule="evenodd"
    clip-rule="evenodd"
    d="M557 642.622C557 647.18 560.694 650.875 565.252 650.875L569.837 650.875L569.837 649.041L565.252 649.041C561.707 649.041 558.833 646.167 558.833 642.622L558.833 406.5L557 406.5L557 642.622Z"
  ></path>
  <path
    style="fill: var(--color-illustrationPalette020)"
    fill-rule="evenodd"
    clip-rule="evenodd"
    d="M605 241.8V214.52H634.417V222.52H613V241.8H605ZM752.083 214.52H693.25V222.52H752.083V214.52ZM810.917 214.52V222.52H869.75V214.52H810.917ZM928.583 214.52V222.52H950V241.8H958V214.52H928.583ZM958 296.36H950V350.92H958V296.36ZM958 405.48H950V460.04H958V405.48ZM958 514.6H950V569.16H958V514.6ZM958 623.72H950V643H928.583V651H958V623.72ZM869.75 651V643H810.917V651H869.75ZM752.083 651V643H693.25V651H752.083ZM634.417 651V643H613V623.72H605V651H634.417ZM605 569.16H613V514.6H605V569.16ZM605 460.04H613V405.48H605V460.04ZM605 350.92H613V296.36H605V350.92Z"
  ></path>
  <path
    style="fill: var(--color-illustrationInterface030)"
    opacity="0.4"
    d="M656.192 357.174C656.192 353.312 659.323 350.181 663.185 350.181H692.097C695.959 350.181 699.09 353.312 699.09 357.174V386.086C699.09 389.949 695.959 393.08 692.097 393.08H663.185C659.323 393.08 656.192 389.949 656.192 386.086V357.174Z"
  ></path>
  <path
    style="fill: var(--color-illustrationAnatomySubtle)"
    d="M719.669 377.906H725.145V380.043H717.013V363.899H719.669V377.906Z"
  ></path>
  <path
    style="fill: var(--color-illustrationAnatomySubtle)"
    d="M726.481 373.586C726.481 372.3 726.745 371.162 727.274 370.171C727.817 369.18 728.547 368.413 729.464 367.871C730.396 367.314 731.421 367.035 732.54 367.035C733.55 367.035 734.427 367.236 735.173 367.639C735.934 368.026 736.54 368.514 736.99 369.102V367.244H739.67V380.043H736.99V378.138C736.54 378.742 735.926 379.246 735.15 379.648C734.373 380.051 733.487 380.252 732.493 380.252C731.39 380.252 730.38 379.973 729.464 379.416C728.547 378.843 727.817 378.053 727.274 377.047C726.745 376.025 726.481 374.871 726.481 373.586ZM736.99 373.632C736.99 372.749 736.804 371.983 736.431 371.332C736.074 370.682 735.6 370.186 735.01 369.846C734.419 369.505 733.783 369.335 733.099 369.335C732.416 369.335 731.779 369.505 731.188 369.846C730.598 370.171 730.116 370.659 729.744 371.309C729.386 371.944 729.208 372.703 729.208 373.586C729.208 374.468 729.386 375.243 729.744 375.908C730.116 376.574 730.598 377.085 731.188 377.442C731.794 377.782 732.431 377.953 733.099 377.953C733.783 377.953 734.419 377.782 735.01 377.442C735.6 377.101 736.074 376.605 736.431 375.955C736.804 375.289 736.99 374.515 736.99 373.632Z"
  ></path>
  <path
    style="fill: var(--color-illustrationAnatomySubtle)"
    d="M745.816 369.149C746.266 368.53 746.88 368.026 747.657 367.639C748.449 367.236 749.326 367.035 750.29 367.035C751.424 367.035 752.449 367.306 753.365 367.848C754.282 368.39 755.004 369.164 755.533 370.171C756.061 371.162 756.325 372.3 756.325 373.586C756.325 374.871 756.061 376.025 755.533 377.047C755.004 378.053 754.274 378.843 753.342 379.416C752.426 379.973 751.408 380.252 750.29 380.252C749.295 380.252 748.41 380.059 747.633 379.671C746.872 379.284 746.266 378.789 745.816 378.185V380.043H743.159V362.854H745.816V369.149ZM753.622 373.586C753.622 372.703 753.435 371.944 753.063 371.309C752.705 370.659 752.224 370.171 751.618 369.846C751.028 369.505 750.391 369.335 749.707 369.335C749.039 369.335 748.402 369.505 747.796 369.846C747.206 370.186 746.724 370.682 746.352 371.332C745.994 371.983 745.816 372.749 745.816 373.632C745.816 374.515 745.994 375.289 746.352 375.955C746.724 376.605 747.206 377.101 747.796 377.442C748.402 377.782 749.039 377.953 749.707 377.953C750.391 377.953 751.028 377.782 751.618 377.442C752.224 377.085 752.705 376.574 753.063 375.908C753.435 375.243 753.622 374.468 753.622 373.586Z"
  ></path>
  <path
    style="fill: var(--color-illustrationAnatomySubtle)"
    d="M770.719 373.33C770.719 373.81 770.688 374.244 770.626 374.631H760.816C760.894 375.653 761.274 376.474 761.958 377.093C762.641 377.713 763.48 378.022 764.474 378.022C765.903 378.022 766.913 377.426 767.503 376.234H770.37C769.981 377.411 769.274 378.378 768.249 379.137C767.239 379.88 765.981 380.252 764.474 380.252C763.247 380.252 762.144 379.981 761.165 379.439C760.202 378.882 759.441 378.107 758.882 377.116C758.338 376.11 758.066 374.948 758.066 373.632C758.066 372.316 758.33 371.162 758.858 370.171C759.402 369.164 760.156 368.39 761.119 367.848C762.097 367.306 763.216 367.035 764.474 367.035C765.686 367.035 766.766 367.298 767.713 367.825C768.661 368.351 769.399 369.095 769.927 370.055C770.455 370.999 770.719 372.091 770.719 373.33ZM767.946 372.494C767.931 371.518 767.581 370.736 766.898 370.148C766.214 369.559 765.367 369.265 764.358 369.265C763.441 369.265 762.657 369.559 762.004 370.148C761.352 370.721 760.963 371.503 760.839 372.494H767.946Z"
  ></path>
  <path
    style="fill: var(--color-illustrationAnatomySubtle)"
    d="M775.99 362.854V380.043H773.333V362.854H775.99Z"
  ></path>
  <path
    style="fill: var(--color-illustrationAnatomySubtle)"
    d="M673.101 378.017L666.52 371.437L664.279 373.662L673.101 382.483L692.038 363.546L689.813 361.321L673.101 378.017Z"
  ></path>
  <path
    style="fill: var(--color-illustrationInterface030)"
    opacity="0.4"
    d="M656.192 430.174C656.192 426.312 659.323 423.181 663.185 423.181H692.097C695.959 423.181 699.09 426.312 699.09 430.174V459.086C699.09 462.949 695.959 466.08 692.097 466.08H663.185C659.323 466.08 656.192 462.949 656.192 459.086V430.174Z"
  ></path>
  <path
    style="fill: var(--color-illustrationAnatomySubtle)"
    d="M719.669 450.906H725.145V453.043H717.013V436.899H719.669V450.906Z"
  ></path>
  <path
    style="fill: var(--color-illustrationAnatomySubtle)"
    d="M726.481 446.586C726.481 445.3 726.745 444.162 727.274 443.171C727.817 442.18 728.547 441.413 729.464 440.871C730.396 440.314 731.421 440.035 732.54 440.035C733.55 440.035 734.427 440.236 735.173 440.639C735.934 441.026 736.54 441.514 736.99 442.102V440.244H739.67V453.043H736.99V451.138C736.54 451.742 735.926 452.246 735.15 452.648C734.373 453.051 733.487 453.252 732.493 453.252C731.39 453.252 730.38 452.973 729.464 452.416C728.547 451.843 727.817 451.053 727.274 450.047C726.745 449.025 726.481 447.871 726.481 446.586ZM736.99 446.632C736.99 445.749 736.804 444.983 736.431 444.332C736.074 443.682 735.6 443.186 735.01 442.846C734.419 442.505 733.783 442.335 733.099 442.335C732.416 442.335 731.779 442.505 731.188 442.846C730.598 443.171 730.116 443.659 729.744 444.309C729.386 444.944 729.208 445.703 729.208 446.586C729.208 447.468 729.386 448.243 729.744 448.908C730.116 449.574 730.598 450.085 731.188 450.442C731.794 450.782 732.431 450.953 733.099 450.953C733.783 450.953 734.419 450.782 735.01 450.442C735.6 450.101 736.074 449.605 736.431 448.955C736.804 448.289 736.99 447.515 736.99 446.632Z"
  ></path>
  <path
    style="fill: var(--color-illustrationAnatomySubtle)"
    d="M745.816 442.149C746.266 441.53 746.88 441.026 747.657 440.639C748.449 440.236 749.326 440.035 750.29 440.035C751.424 440.035 752.449 440.306 753.365 440.848C754.282 441.39 755.004 442.164 755.533 443.171C756.061 444.162 756.325 445.3 756.325 446.586C756.325 447.871 756.061 449.025 755.533 450.047C755.004 451.053 754.274 451.843 753.342 452.416C752.426 452.973 751.408 453.252 750.29 453.252C749.295 453.252 748.41 453.059 747.633 452.671C746.872 452.284 746.266 451.789 745.816 451.185V453.043H743.159V435.854H745.816V442.149ZM753.622 446.586C753.622 445.703 753.435 444.944 753.063 444.309C752.705 443.659 752.224 443.171 751.618 442.846C751.028 442.505 750.391 442.335 749.707 442.335C749.039 442.335 748.402 442.505 747.796 442.846C747.206 443.186 746.724 443.682 746.352 444.332C745.994 444.983 745.816 445.749 745.816 446.632C745.816 447.515 745.994 448.289 746.352 448.955C746.724 449.605 747.206 450.101 747.796 450.442C748.402 450.782 749.039 450.953 749.707 450.953C750.391 450.953 751.028 450.782 751.618 450.442C752.224 450.085 752.705 449.574 753.063 448.908C753.435 448.243 753.622 447.468 753.622 446.586Z"
  ></path>
  <path
    style="fill: var(--color-illustrationAnatomySubtle)"
    d="M770.719 446.33C770.719 446.81 770.688 447.244 770.626 447.631H760.816C760.894 448.653 761.274 449.474 761.958 450.093C762.641 450.713 763.48 451.022 764.474 451.022C765.903 451.022 766.913 450.426 767.503 449.234H770.37C769.981 450.411 769.274 451.378 768.249 452.137C767.239 452.88 765.981 453.252 764.474 453.252C763.247 453.252 762.144 452.981 761.165 452.439C760.202 451.882 759.441 451.107 758.882 450.116C758.338 449.11 758.066 447.948 758.066 446.632C758.066 445.316 758.33 444.162 758.858 443.171C759.402 442.164 760.156 441.39 761.119 440.848C762.097 440.306 763.216 440.035 764.474 440.035C765.686 440.035 766.766 440.298 767.713 440.825C768.661 441.351 769.399 442.095 769.927 443.055C770.455 443.999 770.719 445.091 770.719 446.33ZM767.946 445.494C767.931 444.518 767.581 443.736 766.898 443.148C766.214 442.559 765.367 442.265 764.358 442.265C763.441 442.265 762.657 442.559 762.004 443.148C761.352 443.721 760.963 444.503 760.839 445.494H767.946Z"
  ></path>
  <path
    style="fill: var(--color-illustrationAnatomySubtle)"
    d="M775.99 435.854V453.043H773.333V435.854H775.99Z"
  ></path>
  <path
    style="fill: var(--color-illustrationAnatomySubtle)"
    d="M673.101 451.017L666.52 444.437L664.279 446.662L673.101 455.483L692.038 436.546L689.813 434.321L673.101 451.017Z"
  ></path>
  <path
    style="fill: var(--color-illustrationInterface030)"
    opacity="0.4"
    d="M656.192 503.175C656.192 499.313 659.323 496.182 663.185 496.182H692.097C695.959 496.182 699.09 499.313 699.09 503.175V532.087C699.09 535.949 695.959 539.08 692.097 539.08H663.185C659.323 539.08 656.192 535.949 656.192 532.087V503.175Z"
  ></path>
  <path
    style="fill: var(--color-illustrationAnatomySubtle)"
    d="M719.669 523.907H725.145V526.044H717.013V509.9H719.669V523.907Z"
  ></path>
  <path
    style="fill: var(--color-illustrationAnatomySubtle)"
    d="M726.481 519.586C726.481 518.301 726.745 517.163 727.274 516.171C727.817 515.18 728.547 514.414 729.464 513.872C730.396 513.314 731.421 513.036 732.54 513.036C733.55 513.036 734.427 513.237 735.173 513.64C735.934 514.027 736.54 514.515 736.99 515.103V513.245H739.67V526.044H736.99V524.139C736.54 524.743 735.926 525.246 735.15 525.649C734.373 526.051 733.487 526.253 732.493 526.253C731.39 526.253 730.38 525.974 729.464 525.416C728.547 524.843 727.817 524.054 727.274 523.047C726.745 522.025 726.481 520.871 726.481 519.586ZM736.99 519.633C736.99 518.75 736.804 517.983 736.431 517.333C736.074 516.682 735.6 516.187 735.01 515.846C734.419 515.506 733.783 515.335 733.099 515.335C732.416 515.335 731.779 515.506 731.188 515.846C730.598 516.171 730.116 516.659 729.744 517.31C729.386 517.945 729.208 518.703 729.208 519.586C729.208 520.469 729.386 521.243 729.744 521.909C730.116 522.575 730.598 523.086 731.188 523.442C731.794 523.783 732.431 523.953 733.099 523.953C733.783 523.953 734.419 523.783 735.01 523.442C735.6 523.101 736.074 522.606 736.431 521.955C736.804 521.289 736.99 520.515 736.99 519.633Z"
  ></path>
  <path
    style="fill: var(--color-illustrationAnatomySubtle)"
    d="M745.816 515.149C746.266 514.53 746.88 514.027 747.657 513.64C748.449 513.237 749.326 513.036 750.29 513.036C751.424 513.036 752.449 513.307 753.365 513.849C754.282 514.391 755.004 515.165 755.533 516.171C756.061 517.163 756.325 518.301 756.325 519.586C756.325 520.871 756.061 522.025 755.533 523.047C755.004 524.054 754.274 524.843 753.342 525.416C752.426 525.974 751.408 526.253 750.29 526.253C749.295 526.253 748.41 526.059 747.633 525.672C746.872 525.285 746.266 524.789 745.816 524.185V526.044H743.159V508.854H745.816V515.149ZM753.622 519.586C753.622 518.703 753.435 517.945 753.063 517.31C752.705 516.659 752.224 516.171 751.618 515.846C751.028 515.506 750.391 515.335 749.707 515.335C749.039 515.335 748.402 515.506 747.796 515.846C747.206 516.187 746.724 516.682 746.352 517.333C745.994 517.983 745.816 518.75 745.816 519.633C745.816 520.515 745.994 521.289 746.352 521.955C746.724 522.606 747.206 523.101 747.796 523.442C748.402 523.783 749.039 523.953 749.707 523.953C750.391 523.953 751.028 523.783 751.618 523.442C752.224 523.086 752.705 522.575 753.063 521.909C753.435 521.243 753.622 520.469 753.622 519.586Z"
  ></path>
  <path
    style="fill: var(--color-illustrationAnatomySubtle)"
    d="M770.719 519.331C770.719 519.811 770.688 520.244 770.626 520.631H760.816C760.894 521.653 761.274 522.474 761.958 523.094C762.641 523.713 763.48 524.023 764.474 524.023C765.903 524.023 766.913 523.427 767.503 522.234H770.37C769.981 523.411 769.274 524.379 768.249 525.138C767.239 525.881 765.981 526.253 764.474 526.253C763.247 526.253 762.144 525.982 761.165 525.44C760.202 524.882 759.441 524.108 758.882 523.117C758.338 522.11 758.066 520.949 758.066 519.633C758.066 518.316 758.33 517.163 758.858 516.171C759.402 515.165 760.156 514.391 761.119 513.849C762.097 513.307 763.216 513.036 764.474 513.036C765.686 513.036 766.766 513.299 767.713 513.825C768.661 514.352 769.399 515.095 769.927 516.055C770.455 517 770.719 518.092 770.719 519.331ZM767.946 518.494C767.931 517.519 767.581 516.737 766.898 516.148C766.214 515.56 765.367 515.266 764.358 515.266C763.441 515.266 762.657 515.56 762.004 516.148C761.352 516.721 760.963 517.503 760.839 518.494H767.946Z"
  ></path>
  <path
    style="fill: var(--color-illustrationAnatomySubtle)"
    d="M775.99 508.854V526.044H773.333V508.854H775.99Z"
  ></path>
  <path
    style="fill: var(--color-illustrationAnatomySubtle)"
    d="M673.101 524.018L666.52 517.437L664.279 519.662L673.101 528.484L692.038 509.547L689.813 507.322L673.101 524.018Z"
  ></path>
  <path
    style="fill: var(--color-illustrationHighlight010)"
    d="M662.794 290.678H671.089V294.681H657.744V269.507H662.794V290.678Z"
  ></path>
  <path
    style="fill: var(--color-illustrationHighlight010)"
    d="M692.872 284.258C692.872 284.979 692.824 285.629 692.728 286.206H678.121C678.241 287.648 678.746 288.778 679.636 289.596C680.526 290.413 681.62 290.822 682.918 290.822C684.793 290.822 686.128 290.017 686.921 288.406H692.367C691.79 290.329 690.684 291.916 689.049 293.166C687.414 294.393 685.407 295.006 683.026 295.006C681.103 295.006 679.372 294.585 677.833 293.743C676.318 292.878 675.128 291.664 674.262 290.101C673.421 288.538 673 286.735 673 284.691C673 282.623 673.421 280.808 674.262 279.245C675.104 277.682 676.282 276.48 677.797 275.638C679.311 274.797 681.055 274.376 683.026 274.376C684.926 274.376 686.621 274.785 688.112 275.602C689.626 276.42 690.792 277.586 691.61 279.101C692.452 280.591 692.872 282.31 692.872 284.258ZM687.643 282.815C687.619 281.517 687.15 280.483 686.236 279.714C685.322 278.92 684.204 278.524 682.882 278.524C681.632 278.524 680.574 278.908 679.708 279.678C678.867 280.423 678.35 281.469 678.157 282.815H687.643Z"
  ></path>
  <path
    style="fill: var(--color-illustrationHighlight010)"
    d="M704.384 274.376C705.875 274.376 707.185 274.676 708.315 275.278C709.445 275.855 710.335 276.612 710.984 277.55V274.7H716.07V294.825C716.07 296.677 715.697 298.324 714.952 299.767C714.206 301.233 713.088 302.387 711.597 303.229C710.107 304.094 708.303 304.527 706.187 304.527C703.35 304.527 701.018 303.866 699.191 302.544C697.387 301.221 696.365 299.418 696.125 297.134H701.138C701.403 298.047 701.968 298.769 702.833 299.298C703.723 299.851 704.793 300.127 706.043 300.127C707.51 300.127 708.7 299.682 709.614 298.793C710.527 297.927 710.984 296.605 710.984 294.825V291.724C710.335 292.661 709.433 293.443 708.279 294.068C707.149 294.693 705.851 295.006 704.384 295.006C702.701 295.006 701.162 294.573 699.768 293.707C698.373 292.842 697.267 291.628 696.45 290.065C695.656 288.478 695.259 286.662 695.259 284.619C695.259 282.599 695.656 280.808 696.45 279.245C697.267 277.682 698.361 276.48 699.732 275.638C701.126 274.797 702.677 274.376 704.384 274.376ZM710.984 284.691C710.984 283.465 710.744 282.419 710.263 281.553C709.782 280.663 709.133 279.99 708.315 279.533C707.498 279.052 706.62 278.812 705.683 278.812C704.745 278.812 703.879 279.04 703.086 279.497C702.292 279.954 701.643 280.627 701.138 281.517C700.657 282.383 700.417 283.416 700.417 284.619C700.417 285.821 700.657 286.879 701.138 287.793C701.643 288.682 702.292 289.367 703.086 289.848C703.903 290.329 704.769 290.57 705.683 290.57C706.62 290.57 707.498 290.341 708.315 289.884C709.133 289.403 709.782 288.73 710.263 287.865C710.744 286.975 710.984 285.917 710.984 284.691Z"
  ></path>
  <path
    style="fill: var(--color-illustrationHighlight010)"
    d="M739.575 284.258C739.575 284.979 739.527 285.629 739.431 286.206H724.824C724.944 287.648 725.449 288.778 726.339 289.596C727.229 290.413 728.323 290.822 729.621 290.822C731.496 290.822 732.831 290.017 733.624 288.406H739.07C738.493 290.329 737.387 291.916 735.752 293.166C734.117 294.393 732.109 295.006 729.729 295.006C727.806 295.006 726.074 294.585 724.536 293.743C723.021 292.878 721.831 291.664 720.965 290.101C720.123 288.538 719.703 286.735 719.703 284.691C719.703 282.623 720.123 280.808 720.965 279.245C721.807 277.682 722.985 276.48 724.5 275.638C726.014 274.797 727.757 274.376 729.729 274.376C731.629 274.376 733.324 274.785 734.814 275.602C736.329 276.42 737.495 277.586 738.313 279.101C739.154 280.591 739.575 282.31 739.575 284.258ZM734.346 282.815C734.322 281.517 733.853 280.483 732.939 279.714C732.025 278.92 730.907 278.524 729.585 278.524C728.335 278.524 727.277 278.908 726.411 279.678C725.569 280.423 725.053 281.469 724.86 282.815H734.346Z"
  ></path>
  <path
    style="fill: var(--color-illustrationHighlight010)"
    d="M754.333 274.412C756.713 274.412 758.637 275.169 760.104 276.684C761.57 278.175 762.304 280.267 762.304 282.96V294.681H757.254V283.645C757.254 282.058 756.858 280.844 756.064 280.002C755.271 279.137 754.189 278.704 752.818 278.704C751.424 278.704 750.318 279.137 749.5 280.002C748.707 280.844 748.31 282.058 748.31 283.645V294.681H743.261V274.7H748.31V277.189C748.983 276.323 749.837 275.65 750.871 275.169C751.929 274.664 753.083 274.412 754.333 274.412Z"
  ></path>
  <path
    style="fill: var(--color-illustrationHighlight010)"
    d="M765.807 284.619C765.807 282.599 766.204 280.808 766.997 279.245C767.815 277.682 768.921 276.48 770.315 275.638C771.71 274.797 773.261 274.376 774.968 274.376C776.266 274.376 777.504 274.664 778.683 275.241C779.861 275.795 780.798 276.54 781.496 277.478V267.992H786.617V294.681H781.496V291.724C780.871 292.71 779.993 293.503 778.863 294.104C777.733 294.705 776.422 295.006 774.932 295.006C773.249 295.006 771.71 294.573 770.315 293.707C768.921 292.842 767.815 291.628 766.997 290.065C766.204 288.478 765.807 286.662 765.807 284.619ZM781.532 284.691C781.532 283.465 781.291 282.419 780.81 281.553C780.33 280.663 779.68 279.99 778.863 279.533C778.045 279.052 777.168 278.812 776.23 278.812C775.292 278.812 774.427 279.04 773.633 279.497C772.84 279.954 772.191 280.627 771.686 281.517C771.205 282.383 770.964 283.416 770.964 284.619C770.964 285.821 771.205 286.879 771.686 287.793C772.191 288.682 772.84 289.367 773.633 289.848C774.451 290.329 775.316 290.57 776.23 290.57C777.168 290.57 778.045 290.341 778.863 289.884C779.68 289.403 780.33 288.73 780.81 287.865C781.291 286.975 781.532 285.917 781.532 284.691Z"
  ></path>
  <path
    style="fill: var(--color-illustrationAnatomySubtle)"
    d="M664.676 580.973H659.127L658.174 583.681H655.904L660.653 570.408H663.17L667.918 583.681H665.63L664.676 580.973ZM664.066 579.2L661.911 573.04L659.737 579.2H664.066Z"
  ></path>
  <path
    style="fill: var(--color-illustrationAnatomySubtle)"
    d="M673.797 583.853C672.971 583.853 672.227 583.707 671.566 583.414C670.917 583.109 670.403 582.702 670.021 582.194C669.64 581.673 669.436 581.094 669.411 580.458H671.661C671.699 580.903 671.909 581.278 672.29 581.584C672.685 581.876 673.174 582.022 673.759 582.022C674.369 582.022 674.84 581.908 675.17 581.679C675.513 581.437 675.685 581.132 675.685 580.764C675.685 580.369 675.494 580.077 675.113 579.886C674.744 579.696 674.153 579.486 673.339 579.257C672.551 579.041 671.909 578.831 671.413 578.628C670.917 578.424 670.485 578.113 670.117 577.693C669.761 577.274 669.583 576.721 669.583 576.034C669.583 575.475 669.748 574.966 670.078 574.509C670.409 574.038 670.879 573.669 671.49 573.402C672.113 573.136 672.824 573.002 673.625 573.002C674.82 573.002 675.78 573.307 676.505 573.917C677.242 574.515 677.636 575.335 677.687 576.377H675.513C675.475 575.907 675.284 575.532 674.941 575.252C674.598 574.973 674.134 574.833 673.549 574.833C672.977 574.833 672.538 574.941 672.233 575.157C671.928 575.373 671.776 575.659 671.776 576.015C671.776 576.295 671.877 576.53 672.081 576.721C672.284 576.911 672.532 577.064 672.824 577.178C673.117 577.28 673.549 577.414 674.121 577.579C674.884 577.782 675.507 577.992 675.99 578.208C676.486 578.412 676.912 578.717 677.268 579.123C677.624 579.53 677.808 580.071 677.821 580.744C677.821 581.342 677.656 581.876 677.325 582.346C676.994 582.817 676.524 583.185 675.914 583.452C675.316 583.719 674.611 583.853 673.797 583.853Z"
  ></path>
  <path
    style="fill: var(--color-illustrationAnatomySubtle)"
    d="M683.984 583.853C683.157 583.853 682.414 583.707 681.753 583.414C681.104 583.109 680.589 582.702 680.208 582.194C679.827 581.673 679.623 581.094 679.598 580.458H681.848C681.886 580.903 682.096 581.278 682.477 581.584C682.871 581.876 683.361 582.022 683.946 582.022C684.556 582.022 685.026 581.908 685.357 581.679C685.7 581.437 685.872 581.132 685.872 580.764C685.872 580.369 685.681 580.077 685.3 579.886C684.931 579.696 684.34 579.486 683.526 579.257C682.738 579.041 682.096 578.831 681.6 578.628C681.104 578.424 680.672 578.113 680.303 577.693C679.947 577.274 679.769 576.721 679.769 576.034C679.769 575.475 679.935 574.966 680.265 574.509C680.596 574.038 681.066 573.669 681.676 573.402C682.299 573.136 683.011 573.002 683.812 573.002C685.007 573.002 685.967 573.307 686.692 573.917C687.429 574.515 687.823 575.335 687.874 576.377H685.7C685.662 575.907 685.471 575.532 685.128 575.252C684.785 574.973 684.321 574.833 683.736 574.833C683.164 574.833 682.725 574.941 682.42 575.157C682.115 575.373 681.962 575.659 681.962 576.015C681.962 576.295 682.064 576.53 682.268 576.721C682.471 576.911 682.719 577.064 683.011 577.178C683.304 577.28 683.736 577.414 684.308 577.579C685.071 577.782 685.694 577.992 686.177 578.208C686.673 578.412 687.099 578.717 687.455 579.123C687.811 579.53 687.995 580.071 688.008 580.744C688.008 581.342 687.842 581.876 687.512 582.346C687.181 582.817 686.711 583.185 686.101 583.452C685.503 583.719 684.797 583.853 683.984 583.853Z"
  ></path>
  <path
    style="fill: var(--color-illustrationAnatomySubtle)"
    d="M691.463 571.782C691.069 571.782 690.738 571.648 690.471 571.381C690.204 571.114 690.071 570.784 690.071 570.389C690.071 569.995 690.204 569.665 690.471 569.398C690.738 569.131 691.069 568.997 691.463 568.997C691.844 568.997 692.168 569.131 692.435 569.398C692.702 569.665 692.836 569.995 692.836 570.389C692.836 570.784 692.702 571.114 692.435 571.381C692.168 571.648 691.844 571.782 691.463 571.782ZM692.531 573.174V583.681H690.357V573.174H692.531Z"
  ></path>
  <path
    style="fill: var(--color-illustrationAnatomySubtle)"
    d="M699.199 583.853C698.372 583.853 697.629 583.707 696.968 583.414C696.319 583.109 695.804 582.702 695.423 582.194C695.042 581.673 694.838 581.094 694.813 580.458H697.063C697.101 580.903 697.311 581.278 697.692 581.584C698.086 581.876 698.576 582.022 699.161 582.022C699.771 582.022 700.241 581.908 700.572 581.679C700.915 581.437 701.087 581.132 701.087 580.764C701.087 580.369 700.896 580.077 700.515 579.886C700.146 579.696 699.555 579.486 698.741 579.257C697.953 579.041 697.311 578.831 696.815 578.628C696.319 578.424 695.887 578.113 695.518 577.693C695.162 577.274 694.984 576.721 694.984 576.034C694.984 575.475 695.15 574.966 695.48 574.509C695.811 574.038 696.281 573.669 696.891 573.402C697.514 573.136 698.226 573.002 699.027 573.002C700.222 573.002 701.182 573.307 701.907 573.917C702.644 574.515 703.038 575.335 703.089 576.377H700.915C700.877 575.907 700.686 575.532 700.343 575.252C700 574.973 699.536 574.833 698.951 574.833C698.379 574.833 697.94 574.941 697.635 575.157C697.33 575.373 697.177 575.659 697.177 576.015C697.177 576.295 697.279 576.53 697.483 576.721C697.686 576.911 697.934 577.064 698.226 577.178C698.519 577.28 698.951 577.414 699.523 577.579C700.286 577.782 700.909 577.992 701.392 578.208C701.888 578.412 702.314 578.717 702.67 579.123C703.026 579.53 703.21 580.071 703.223 580.744C703.223 581.342 703.057 581.876 702.727 582.346C702.396 582.817 701.926 583.185 701.316 583.452C700.718 583.719 700.013 583.853 699.199 583.853Z"
  ></path>
  <path
    style="fill: var(--color-illustrationAnatomySubtle)"
    d="M708.108 574.947V580.764C708.108 581.158 708.197 581.444 708.375 581.622C708.566 581.787 708.883 581.87 709.328 581.87H710.663V583.681H708.947C707.968 583.681 707.218 583.452 706.697 582.995C706.176 582.537 705.915 581.793 705.915 580.764V574.947H704.675V573.174H705.915V570.561H708.108V573.174H710.663V574.947H708.108Z"
  ></path>
  <path
    style="fill: var(--color-illustrationAnatomySubtle)"
    d="M713.773 571.782C713.379 571.782 713.048 571.648 712.781 571.381C712.514 571.114 712.381 570.784 712.381 570.389C712.381 569.995 712.514 569.665 712.781 569.398C713.048 569.131 713.379 568.997 713.773 568.997C714.155 568.997 714.479 569.131 714.746 569.398C715.013 569.665 715.146 569.995 715.146 570.389C715.146 570.784 715.013 571.114 714.746 571.381C714.479 571.648 714.155 571.782 713.773 571.782ZM714.841 573.174V583.681H712.667V573.174H714.841Z"
  ></path>
  <path
    style="fill: var(--color-illustrationAnatomySubtle)"
    d="M721.757 581.736L724.732 573.174H727.04L723.035 583.681H720.441L716.456 573.174H718.782L721.757 581.736Z"
  ></path>
  <path
    style="fill: var(--color-illustrationAnatomySubtle)"
    d="M738.313 578.17C738.313 578.564 738.288 578.92 738.237 579.238H730.208C730.272 580.077 730.584 580.751 731.143 581.259C731.702 581.768 732.389 582.022 733.202 582.022C734.372 582.022 735.198 581.533 735.682 580.554H738.027C737.709 581.52 737.131 582.315 736.292 582.937C735.465 583.548 734.436 583.853 733.202 583.853C732.198 583.853 731.295 583.63 730.495 583.185C729.706 582.728 729.083 582.092 728.626 581.278C728.181 580.452 727.958 579.499 727.958 578.418C727.958 577.337 728.174 576.39 728.607 575.576C729.052 574.75 729.668 574.114 730.456 573.669C731.257 573.224 732.173 573.002 733.202 573.002C734.194 573.002 735.078 573.218 735.853 573.65C736.629 574.083 737.233 574.693 737.665 575.481C738.097 576.257 738.313 577.153 738.313 578.17ZM736.044 577.483C736.031 576.683 735.745 576.041 735.186 575.557C734.626 575.074 733.933 574.833 733.107 574.833C732.357 574.833 731.715 575.074 731.181 575.557C730.647 576.028 730.329 576.67 730.228 577.483H736.044Z"
  ></path>
  <path
    style="fill: var(--color-illustrationAnatomySubtle)"
    d="M747.943 574.947V580.764C747.943 581.158 748.032 581.444 748.21 581.622C748.4 581.787 748.718 581.87 749.163 581.87H750.498V583.681H748.782C747.803 583.681 747.053 583.452 746.531 582.995C746.01 582.537 745.75 581.793 745.75 580.764V574.947H744.51V573.174H745.75V570.561H747.943V573.174H750.498V574.947H747.943Z"
  ></path>
  <path
    style="fill: var(--color-illustrationAnatomySubtle)"
    d="M762.132 578.17C762.132 578.564 762.107 578.92 762.056 579.238H754.027C754.091 580.077 754.402 580.751 754.962 581.259C755.521 581.768 756.208 582.022 757.021 582.022C758.191 582.022 759.017 581.533 759.5 580.554H761.846C761.528 581.52 760.95 582.315 760.111 582.937C759.284 583.548 758.255 583.853 757.021 583.853C756.017 583.853 755.114 583.63 754.313 583.185C753.525 582.728 752.902 582.092 752.445 581.278C752 580.452 751.777 579.499 751.777 578.418C751.777 577.337 751.993 576.39 752.425 575.576C752.87 574.75 753.487 574.114 754.275 573.669C755.076 573.224 755.992 573.002 757.021 573.002C758.013 573.002 758.897 573.218 759.672 573.65C760.448 574.083 761.051 574.693 761.484 575.481C761.916 576.257 762.132 577.153 762.132 578.17ZM759.863 577.483C759.85 576.683 759.564 576.041 759.005 575.557C758.445 575.074 757.752 574.833 756.926 574.833C756.176 574.833 755.534 575.074 755 575.557C754.466 576.028 754.148 576.67 754.046 577.483H759.863Z"
  ></path>
  <path
    style="fill: var(--color-illustrationAnatomySubtle)"
    d="M768.772 578.361L772.166 583.681H769.706L767.437 580.115L765.301 583.681H763.032L766.426 578.513L763.032 573.174H765.492L767.761 576.74L769.897 573.174H772.166L768.772 578.361Z"
  ></path>
  <path
    style="fill: var(--color-illustrationAnatomySubtle)"
    d="M776.324 574.947V580.764C776.324 581.158 776.413 581.444 776.591 581.622C776.782 581.787 777.1 581.87 777.545 581.87H778.88V583.681H777.163C776.184 583.681 775.434 583.452 774.913 582.995C774.392 582.537 774.131 581.793 774.131 580.764V574.947H772.892V573.174H774.131V570.561H776.324V573.174H778.88V574.947H776.324Z"
  ></path>
</svg>
