<svg id="components-inline-message-inline-message-behaviours-text-overflow-illustration" style="width: 100%; height: 100%" width="1491" height="839" viewBox="0 0 1491 839" fill="none" xmlns="http://www.w3.org/2000/svg" class="css-0"><path style="fill:var(--color-illustrationBackground020)" d="M0 4.01075C0 1.80161 1.79086 0.0107422 4 0.0107422H1486.72C1488.93 0.0107422 1490.72 1.8016 1490.72 4.01074V834.014C1490.72 836.224 1488.93 838.014 1486.72 838.014H4.00002C1.79088 838.014 0 836.224 0 834.014V4.01075Z"></path><g filter="url(#nk-320)"><rect style="fill:var(--color-illustrationInterface010)" x="213.896" y="285.011" width="1061.49" height="269" rx="17.3496"></rect><rect style="fill:var(--color-illustrationInterface020)" x="288.896" y="410.011" width="887" height="24" rx="12"></rect><rect style="fill:var(--color-illustrationPalette020)" x="288.896" y="355.965" width="415.529" height="24" rx="12"></rect><rect style="fill:var(--color-illustrationInterface020)" x="288.896" y="456.011" width="887" height="24" rx="12"></rect><path style="fill:var(--color-illustrationHighlight010)" fill-rule="evenodd" clip-rule="evenodd" d="M267.896 323.011C266.957 323.011 266.048 323.118 265.179 323.319C263.027 323.816 260.878 322.475 260.381 320.323C259.883 318.17 261.225 316.022 263.377 315.524C264.833 315.188 266.347 315.011 267.896 315.011H272.354C274.563 315.011 276.354 316.802 276.354 319.011C276.354 321.22 274.563 323.011 272.354 323.011H267.896ZM290.148 319.011C290.148 316.802 291.939 315.011 294.148 315.011H303.064C305.273 315.011 307.064 316.802 307.064 319.011C307.064 321.22 305.273 323.011 303.064 323.011H294.148C291.939 323.011 290.148 321.22 290.148 319.011ZM320.858 319.011C320.858 316.802 322.649 315.011 324.858 315.011H333.774C335.983 315.011 337.774 316.802 337.774 319.011C337.774 321.22 335.983 323.011 333.774 323.011H324.858C322.649 323.011 320.858 321.22 320.858 319.011ZM351.568 319.011C351.568 316.802 353.359 315.011 355.568 315.011H364.483C366.693 315.011 368.483 316.802 368.483 319.011C368.483 321.22 366.693 323.011 364.483 323.011H355.568C353.359 323.011 351.568 321.22 351.568 319.011ZM382.277 319.011C382.277 316.802 384.068 315.011 386.277 315.011H395.193C397.402 315.011 399.193 316.802 399.193 319.011C399.193 321.22 397.402 323.011 395.193 323.011H386.277C384.068 323.011 382.277 321.22 382.277 319.011ZM412.987 319.011C412.987 316.802 414.778 315.011 416.987 315.011H425.903C428.112 315.011 429.903 316.802 429.903 319.011C429.903 321.22 428.112 323.011 425.903 323.011H416.987C414.778 323.011 412.987 321.22 412.987 319.011ZM443.697 319.011C443.697 316.802 445.488 315.011 447.697 315.011H456.612C458.822 315.011 460.612 316.802 460.612 319.011C460.612 321.22 458.822 323.011 456.612 323.011H447.697C445.488 323.011 443.697 321.22 443.697 319.011ZM474.406 319.011C474.406 316.802 476.197 315.011 478.406 315.011H487.322C489.531 315.011 491.322 316.802 491.322 319.011C491.322 321.22 489.531 323.011 487.322 323.011H478.406C476.197 323.011 474.406 321.22 474.406 319.011ZM505.116 319.011C505.116 316.802 506.907 315.011 509.116 315.011H518.032C520.241 315.011 522.032 316.802 522.032 319.011C522.032 321.22 520.241 323.011 518.032 323.011H509.116C506.907 323.011 505.116 321.22 505.116 319.011ZM535.826 319.011C535.826 316.802 537.617 315.011 539.826 315.011H548.741C550.951 315.011 552.741 316.802 552.741 319.011C552.741 321.22 550.951 323.011 548.741 323.011H539.826C537.617 323.011 535.826 321.22 535.826 319.011ZM566.535 319.011C566.535 316.802 568.326 315.011 570.535 315.011H579.451C581.66 315.011 583.451 316.802 583.451 319.011C583.451 321.22 581.66 323.011 579.451 323.011H570.535C568.326 323.011 566.535 321.22 566.535 319.011ZM597.245 319.011C597.245 316.802 599.036 315.011 601.245 315.011H610.161C612.37 315.011 614.161 316.802 614.161 319.011C614.161 321.22 612.37 323.011 610.161 323.011H601.245C599.036 323.011 597.245 321.22 597.245 319.011ZM627.955 319.011C627.955 316.802 629.746 315.011 631.955 315.011H640.87C643.08 315.011 644.87 316.802 644.87 319.011C644.87 321.22 643.08 323.011 640.87 323.011H631.955C629.746 323.011 627.955 321.22 627.955 319.011ZM658.664 319.011C658.664 316.802 660.455 315.011 662.664 315.011H671.58C673.789 315.011 675.58 316.802 675.58 319.011C675.58 321.22 673.789 323.011 671.58 323.011H662.664C660.455 323.011 658.664 321.22 658.664 319.011ZM689.374 319.011C689.374 316.802 691.165 315.011 693.374 315.011H702.29C704.499 315.011 706.29 316.802 706.29 319.011C706.29 321.22 704.499 323.011 702.29 323.011H693.374C691.165 323.011 689.374 321.22 689.374 319.011ZM720.084 319.011C720.084 316.802 721.875 315.011 724.084 315.011H733C735.209 315.011 737 316.802 737 319.011C737 321.22 735.209 323.011 733 323.011H724.084C721.875 323.011 720.084 321.22 720.084 319.011ZM750.793 319.011C750.793 316.802 752.584 315.011 754.793 315.011H763.709C765.918 315.011 767.709 316.802 767.709 319.011C767.709 321.22 765.918 323.011 763.709 323.011H754.793C752.584 323.011 750.793 321.22 750.793 319.011ZM781.503 319.011C781.503 316.802 783.294 315.011 785.503 315.011H794.419C796.628 315.011 798.419 316.802 798.419 319.011C798.419 321.22 796.628 323.011 794.419 323.011H785.503C783.294 323.011 781.503 321.22 781.503 319.011ZM812.213 319.011C812.213 316.802 814.004 315.011 816.213 315.011H825.129C827.338 315.011 829.129 316.802 829.129 319.011C829.129 321.22 827.338 323.011 825.129 323.011H816.213C814.004 323.011 812.213 321.22 812.213 319.011ZM842.922 319.011C842.922 316.802 844.713 315.011 846.922 315.011H855.838C858.047 315.011 859.838 316.802 859.838 319.011C859.838 321.22 858.047 323.011 855.838 323.011H846.922C844.713 323.011 842.922 321.22 842.922 319.011ZM873.632 319.011C873.632 316.802 875.423 315.011 877.632 315.011H886.548C888.757 315.011 890.548 316.802 890.548 319.011C890.548 321.22 888.757 323.011 886.548 323.011H877.632C875.423 323.011 873.632 321.22 873.632 319.011ZM904.342 319.011C904.342 316.802 906.133 315.011 908.342 315.011H917.258C919.467 315.011 921.258 316.802 921.258 319.011C921.258 321.22 919.467 323.011 917.258 323.011H908.342C906.133 323.011 904.342 321.22 904.342 319.011ZM935.052 319.011C935.052 316.802 936.842 315.011 939.052 315.011H947.967C950.176 315.011 951.967 316.802 951.967 319.011C951.967 321.22 950.176 323.011 947.967 323.011H939.052C936.842 323.011 935.052 321.22 935.052 319.011ZM965.761 319.011C965.761 316.802 967.552 315.011 969.761 315.011H978.677C980.886 315.011 982.677 316.802 982.677 319.011C982.677 321.22 980.886 323.011 978.677 323.011H969.761C967.552 323.011 965.761 321.22 965.761 319.011ZM996.471 319.011C996.471 316.802 998.262 315.011 1000.47 315.011H1009.39C1011.6 315.011 1013.39 316.802 1013.39 319.011C1013.39 321.22 1011.6 323.011 1009.39 323.011H1000.47C998.262 323.011 996.471 321.22 996.471 319.011ZM1027.18 319.011C1027.18 316.802 1028.97 315.011 1031.18 315.011H1040.1C1042.31 315.011 1044.1 316.802 1044.1 319.011C1044.1 321.22 1042.31 323.011 1040.1 323.011H1031.18C1028.97 323.011 1027.18 321.22 1027.18 319.011ZM1057.89 319.011C1057.89 316.802 1059.68 315.011 1061.89 315.011H1070.81C1073.01 315.011 1074.81 316.802 1074.81 319.011C1074.81 321.22 1073.01 323.011 1070.81 323.011H1061.89C1059.68 323.011 1057.89 321.22 1057.89 319.011ZM1088.6 319.011C1088.6 316.802 1090.39 315.011 1092.6 315.011H1101.52C1103.72 315.011 1105.52 316.802 1105.52 319.011C1105.52 321.22 1103.72 323.011 1101.52 323.011H1092.6C1090.39 323.011 1088.6 321.22 1088.6 319.011ZM1119.31 319.011C1119.31 316.802 1121.1 315.011 1123.31 315.011H1132.23C1134.43 315.011 1136.23 316.802 1136.23 319.011C1136.23 321.22 1134.43 323.011 1132.23 323.011H1123.31C1121.1 323.011 1119.31 321.22 1119.31 319.011ZM1150.02 319.011C1150.02 316.802 1151.81 315.011 1154.02 315.011H1162.93C1165.14 315.011 1166.93 316.802 1166.93 319.011C1166.93 321.22 1165.14 323.011 1162.93 323.011H1154.02C1151.81 323.011 1150.02 321.22 1150.02 319.011ZM1180.73 319.011C1180.73 316.802 1182.52 315.011 1184.73 315.011H1193.64C1195.85 315.011 1197.64 316.802 1197.64 319.011C1197.64 321.22 1195.85 323.011 1193.64 323.011H1184.73C1182.52 323.011 1180.73 321.22 1180.73 319.011ZM1211.44 319.011C1211.44 316.802 1213.23 315.011 1215.44 315.011H1219.9C1221.45 315.011 1222.96 315.188 1224.42 315.524C1226.57 316.022 1227.91 318.17 1227.41 320.323C1226.91 322.475 1224.77 323.816 1222.61 323.319C1221.74 323.118 1220.84 323.011 1219.9 323.011H1215.44C1213.23 323.011 1211.44 321.22 1211.44 319.011ZM253.208 327.495C255.361 327.993 256.702 330.141 256.205 332.293C256.004 333.163 255.896 334.072 255.896 335.011V339.917C255.896 342.126 254.106 343.917 251.896 343.917C249.687 343.917 247.896 342.126 247.896 339.917V335.011C247.896 333.461 248.074 331.947 248.41 330.491C248.908 328.339 251.056 326.998 253.208 327.495ZM1234.58 327.495C1236.74 326.998 1238.89 328.339 1239.38 330.491C1239.72 331.947 1239.9 333.461 1239.9 335.011V339.917C1239.9 342.126 1238.11 343.917 1235.9 343.917C1233.69 343.917 1231.9 342.126 1231.9 339.917V335.011C1231.9 334.072 1231.79 333.163 1231.59 332.293C1231.09 330.141 1232.43 327.993 1234.58 327.495ZM1235.9 359.904C1238.11 359.904 1239.9 361.695 1239.9 363.904V373.717C1239.9 375.926 1238.11 377.717 1235.9 377.717C1233.69 377.717 1231.9 375.926 1231.9 373.717V363.904C1231.9 361.695 1233.69 359.904 1235.9 359.904ZM251.896 359.904C254.106 359.904 255.896 361.695 255.896 363.904V373.717C255.896 375.926 254.106 377.717 251.896 377.717C249.687 377.717 247.896 375.926 247.896 373.717V363.904C247.896 361.695 249.687 359.904 251.896 359.904ZM251.896 393.704C254.106 393.704 255.896 395.495 255.896 397.704V407.517C255.896 409.726 254.106 411.517 251.896 411.517C249.687 411.517 247.896 409.726 247.896 407.517V397.704C247.896 395.495 249.687 393.704 251.896 393.704ZM1235.9 393.704C1238.11 393.704 1239.9 395.495 1239.9 397.704V407.517C1239.9 409.726 1238.11 411.517 1235.9 411.517C1233.69 411.517 1231.9 409.726 1231.9 407.517V397.704C1231.9 395.495 1233.69 393.704 1235.9 393.704ZM251.896 427.504C254.106 427.504 255.896 429.295 255.896 431.504V441.317C255.896 443.526 254.106 445.317 251.896 445.317C249.687 445.317 247.896 443.526 247.896 441.317V431.504C247.896 429.295 249.687 427.504 251.896 427.504ZM1235.9 427.504C1238.11 427.504 1239.9 429.295 1239.9 431.504V441.317C1239.9 443.526 1238.11 445.317 1235.9 445.317C1233.69 445.317 1231.9 443.526 1231.9 441.317V431.504C1231.9 429.295 1233.69 427.504 1235.9 427.504ZM251.896 461.304C254.106 461.304 255.896 463.095 255.896 465.304V475.117C255.896 477.326 254.106 479.117 251.896 479.117C249.687 479.117 247.896 477.326 247.896 475.117V465.304C247.896 463.095 249.687 461.304 251.896 461.304ZM1235.9 461.304C1238.11 461.304 1239.9 463.095 1239.9 465.304V475.117C1239.9 477.326 1238.11 479.117 1235.9 479.117C1233.69 479.117 1231.9 477.326 1231.9 475.117V465.304C1231.9 463.095 1233.69 461.304 1235.9 461.304ZM1235.9 495.104C1238.11 495.104 1239.9 496.895 1239.9 499.104V504.011C1239.9 505.561 1239.72 507.074 1239.38 508.53C1238.89 510.682 1236.74 512.024 1234.58 511.526C1232.43 511.029 1231.09 508.881 1231.59 506.728C1231.79 505.859 1231.9 504.95 1231.9 504.011V499.104C1231.9 496.895 1233.69 495.104 1235.9 495.104ZM251.896 495.104C254.106 495.104 255.896 496.895 255.896 499.104V504.011C255.896 504.95 256.004 505.859 256.205 506.728C256.702 508.881 255.361 511.029 253.208 511.526C251.056 512.024 248.908 510.682 248.41 508.53C248.074 507.074 247.896 505.561 247.896 504.011V499.104C247.896 496.895 249.687 495.104 251.896 495.104ZM260.381 518.699C260.878 516.547 263.027 515.205 265.179 515.703C266.048 515.904 266.957 516.011 267.896 516.011H272.355C274.564 516.011 276.355 517.802 276.355 520.011C276.355 522.22 274.564 524.011 272.355 524.011H267.896C266.347 524.011 264.833 523.834 263.377 523.497C261.225 522.999 259.883 520.851 260.381 518.699ZM1227.41 518.699C1227.91 520.851 1226.57 522.999 1224.42 523.497C1222.96 523.834 1221.45 524.011 1219.9 524.011H1215.44C1213.23 524.011 1211.44 522.22 1211.44 520.011C1211.44 517.802 1213.23 516.011 1215.44 516.011H1219.9C1220.84 516.011 1221.74 515.904 1222.61 515.703C1224.77 515.205 1226.91 516.547 1227.41 518.699ZM290.149 520.011C290.149 517.802 291.939 516.011 294.149 516.011H303.064C305.273 516.011 307.064 517.802 307.064 520.011C307.064 522.22 305.273 524.011 303.064 524.011H294.149C291.939 524.011 290.149 522.22 290.149 520.011ZM320.858 520.011C320.858 517.802 322.649 516.011 324.858 516.011H333.774C335.983 516.011 337.774 517.802 337.774 520.011C337.774 522.22 335.983 524.011 333.774 524.011H324.858C322.649 524.011 320.858 522.22 320.858 520.011ZM351.568 520.011C351.568 517.802 353.359 516.011 355.568 516.011H364.484C366.693 516.011 368.484 517.802 368.484 520.011C368.484 522.22 366.693 524.011 364.484 524.011H355.568C353.359 524.011 351.568 522.22 351.568 520.011ZM382.278 520.011C382.278 517.802 384.068 516.011 386.278 516.011H395.193C397.402 516.011 399.193 517.802 399.193 520.011C399.193 522.22 397.402 524.011 395.193 524.011H386.278C384.068 524.011 382.278 522.22 382.278 520.011ZM412.987 520.011C412.987 517.802 414.778 516.011 416.987 516.011H425.903C428.112 516.011 429.903 517.802 429.903 520.011C429.903 522.22 428.112 524.011 425.903 524.011H416.987C414.778 524.011 412.987 522.22 412.987 520.011ZM443.697 520.011C443.697 517.802 445.488 516.011 447.697 516.011H456.613C458.822 516.011 460.613 517.802 460.613 520.011C460.613 522.22 458.822 524.011 456.613 524.011H447.697C445.488 524.011 443.697 522.22 443.697 520.011ZM474.406 520.011C474.406 517.802 476.197 516.011 478.406 516.011H487.322C489.531 516.011 491.322 517.802 491.322 520.011C491.322 522.22 489.531 524.011 487.322 524.011H478.406C476.197 524.011 474.406 522.22 474.406 520.011ZM505.116 520.011C505.116 517.802 506.907 516.011 509.116 516.011H518.032C520.241 516.011 522.032 517.802 522.032 520.011C522.032 522.22 520.241 524.011 518.032 524.011H509.116C506.907 524.011 505.116 522.22 505.116 520.011ZM535.826 520.011C535.826 517.802 537.617 516.011 539.826 516.011H548.741C550.951 516.011 552.741 517.802 552.741 520.011C552.741 522.22 550.951 524.011 548.741 524.011H539.826C537.617 524.011 535.826 522.22 535.826 520.011ZM566.535 520.011C566.535 517.802 568.326 516.011 570.535 516.011H579.451C581.66 516.011 583.451 517.802 583.451 520.011C583.451 522.22 581.66 524.011 579.451 524.011H570.535C568.326 524.011 566.535 522.22 566.535 520.011ZM597.245 520.011C597.245 517.802 599.036 516.011 601.245 516.011H610.161C612.37 516.011 614.161 517.802 614.161 520.011C614.161 522.22 612.37 524.011 610.161 524.011H601.245C599.036 524.011 597.245 522.22 597.245 520.011ZM627.955 520.011C627.955 517.802 629.746 516.011 631.955 516.011H640.87C643.08 516.011 644.87 517.802 644.87 520.011C644.87 522.22 643.08 524.011 640.87 524.011H631.955C629.746 524.011 627.955 522.22 627.955 520.011ZM658.664 520.011C658.664 517.802 660.455 516.011 662.664 516.011H671.58C673.789 516.011 675.58 517.802 675.58 520.011C675.58 522.22 673.789 524.011 671.58 524.011H662.664C660.455 524.011 658.664 522.22 658.664 520.011ZM689.374 520.011C689.374 517.802 691.165 516.011 693.374 516.011H702.29C704.499 516.011 706.29 517.802 706.29 520.011C706.29 522.22 704.499 524.011 702.29 524.011H693.374C691.165 524.011 689.374 522.22 689.374 520.011ZM720.084 520.011C720.084 517.802 721.875 516.011 724.084 516.011H732.999C735.209 516.011 736.999 517.802 736.999 520.011C736.999 522.22 735.209 524.011 732.999 524.011H724.084C721.875 524.011 720.084 522.22 720.084 520.011ZM750.793 520.011C750.793 517.802 752.584 516.011 754.793 516.011H763.709C765.918 516.011 767.709 517.802 767.709 520.011C767.709 522.22 765.918 524.011 763.709 524.011H754.793C752.584 524.011 750.793 522.22 750.793 520.011ZM781.503 520.011C781.503 517.802 783.294 516.011 785.503 516.011H794.419C796.628 516.011 798.419 517.802 798.419 520.011C798.419 522.22 796.628 524.011 794.419 524.011H785.503C783.294 524.011 781.503 522.22 781.503 520.011ZM812.213 520.011C812.213 517.802 814.004 516.011 816.213 516.011H825.129C827.338 516.011 829.129 517.802 829.129 520.011C829.129 522.22 827.338 524.011 825.129 524.011H816.213C814.004 524.011 812.213 522.22 812.213 520.011ZM842.922 520.011C842.922 517.802 844.713 516.011 846.922 516.011H855.838C858.047 516.011 859.838 517.802 859.838 520.011C859.838 522.22 858.047 524.011 855.838 524.011H846.922C844.713 524.011 842.922 522.22 842.922 520.011ZM873.632 520.011C873.632 517.802 875.423 516.011 877.632 516.011H886.548C888.757 516.011 890.548 517.802 890.548 520.011C890.548 522.22 888.757 524.011 886.548 524.011H877.632C875.423 524.011 873.632 522.22 873.632 520.011ZM904.342 520.011C904.342 517.802 906.133 516.011 908.342 516.011H917.258C919.467 516.011 921.258 517.802 921.258 520.011C921.258 522.22 919.467 524.011 917.258 524.011H908.342C906.133 524.011 904.342 522.22 904.342 520.011ZM935.052 520.011C935.052 517.802 936.842 516.011 939.052 516.011H947.967C950.176 516.011 951.967 517.802 951.967 520.011C951.967 522.22 950.176 524.011 947.967 524.011H939.052C936.842 524.011 935.052 522.22 935.052 520.011ZM965.761 520.011C965.761 517.802 967.552 516.011 969.761 516.011H978.677C980.886 516.011 982.677 517.802 982.677 520.011C982.677 522.22 980.886 524.011 978.677 524.011H969.761C967.552 524.011 965.761 522.22 965.761 520.011ZM996.471 520.011C996.471 517.802 998.262 516.011 1000.47 516.011H1009.39C1011.6 516.011 1013.39 517.802 1013.39 520.011C1013.39 522.22 1011.6 524.011 1009.39 524.011H1000.47C998.262 524.011 996.471 522.22 996.471 520.011ZM1027.18 520.011C1027.18 517.802 1028.97 516.011 1031.18 516.011H1040.1C1042.31 516.011 1044.1 517.802 1044.1 520.011C1044.1 522.22 1042.31 524.011 1040.1 524.011H1031.18C1028.97 524.011 1027.18 522.22 1027.18 520.011ZM1057.89 520.011C1057.89 517.802 1059.68 516.011 1061.89 516.011H1070.81C1073.02 516.011 1074.81 517.802 1074.81 520.011C1074.81 522.22 1073.02 524.011 1070.81 524.011H1061.89C1059.68 524.011 1057.89 522.22 1057.89 520.011ZM1088.6 520.011C1088.6 517.802 1090.39 516.011 1092.6 516.011H1101.52C1103.72 516.011 1105.52 517.802 1105.52 520.011C1105.52 522.22 1103.72 524.011 1101.52 524.011H1092.6C1090.39 524.011 1088.6 522.22 1088.6 520.011ZM1119.31 520.011C1119.31 517.802 1121.1 516.011 1123.31 516.011H1132.23C1134.43 516.011 1136.23 517.802 1136.23 520.011C1136.23 522.22 1134.43 524.011 1132.23 524.011H1123.31C1121.1 524.011 1119.31 522.22 1119.31 520.011ZM1150.02 520.011C1150.02 517.802 1151.81 516.011 1154.02 516.011H1162.93C1165.14 516.011 1166.93 517.802 1166.93 520.011C1166.93 522.22 1165.14 524.011 1162.93 524.011H1154.02C1151.81 524.011 1150.02 522.22 1150.02 520.011ZM1180.73 520.011C1180.73 517.802 1182.52 516.011 1184.73 516.011H1193.64C1195.85 516.011 1197.64 517.802 1197.64 520.011C1197.64 522.22 1195.85 524.011 1193.64 524.011H1184.73C1182.52 524.011 1180.73 522.22 1180.73 520.011Z"></path></g><defs><filter id="nk-320" x="205.896" y="281.011" width="1077.49" height="285" filterUnits="userSpaceOnUse" color-interpolation-filters="sRGB"><feFlood flood-opacity="0" result="BackgroundImageFix"></feFlood><feColorMatrix in="SourceAlpha" type="matrix" values="0 0 0 0 0 0 0 0 0 0 0 0 0 0 0 0 0 0 127 0" result="hardAlpha"></feColorMatrix><feOffset dy="4"></feOffset><feGaussianBlur stdDeviation="4"></feGaussianBlur><feColorMatrix type="matrix" values="0 0 0 0 0.0392157 0 0 0 0 0.0392157 0 0 0 0 0.0392157 0 0 0 0.08 0"></feColorMatrix><feBlend mode="normal" in2="BackgroundImageFix" result="effect1_dropShadow"></feBlend><feBlend mode="normal" in="SourceGraphic" in2="effect1_dropShadow" result="shape"></feBlend></filter></defs></svg>