<svg id="components-inline-message-inline-message-dont-3-illustration" style="width: 100%; height: 100%" width="1490" height="839" viewBox="0 0 1490 839" fill="none" xmlns="http://www.w3.org/2000/svg" class="css-0"><g clip-path="url(#nk-352)"><path style="fill:var(--color-illustrationBackground020)" d="M0 4.00001C0 1.79087 1.79086 0 4 0H1486.72C1488.93 0 1490.72 1.79086 1490.72 4V834.004C1490.72 836.213 1488.93 838.004 1486.72 838.004H4.00002C1.79088 838.004 0 836.213 0 834.004V4.00001Z"></path><g filter="url(#nk-353)"><rect style="fill:var(--color-illustrationHighlight010)" x="228.89" y="258.028" width="1030.5" height="235" rx="17.3496"></rect><rect style="fill:var(--color-illustrationPalette020)" x="410.662" y="420.438" width="782.106" height="14.8473" rx="7.42363" stroke="#AEBFFF" stroke-width="1.5728"></rect><rect style="fill:var(--color-illustrationPalette020)" x="410.662" y="377.335" width="782.106" height="14.8473" rx="7.42363" stroke="#AEBFFF" stroke-width="1.5728"></rect><rect style="fill:var(--color-illustrationPalette020)" x="410.662" y="336.284" width="396.421" height="14.8473" rx="7.42363" stroke="#AEBFFF" stroke-width="1.5728"></rect><path style="fill:var(--color-illustrationPalette020)" d="M367.598 350.028C367.598 370.892 350.693 387.805 329.841 387.805C308.988 387.805 292.083 370.892 292.083 350.028C292.083 329.164 308.988 312.252 329.841 312.252C350.693 312.252 367.598 329.164 367.598 350.028Z" stroke="#AEBFFF" stroke-width="2.44715"></path></g><g filter="url(#nk-354)"><rect style="fill:var(--color-illustrationInterface010)" x="228.89" y="525.028" width="1030.5" height="235" rx="17.3496"></rect><ellipse style="fill:var(--color-illustrationInterface020)" cx="329.841" cy="617.028" rx="38.9812" ry="39"></ellipse></g><g filter="url(#nk-355)"><rect style="fill:var(--color-illustrationInterface010)" x="228.89" y="792.028" width="1030.5" height="235" rx="17.3496"></rect></g><rect style="fill:var(--color-illustrationPalette020)" x="409.803" y="593.028" width="420.426" height="20" rx="10"></rect><rect style="fill:var(--color-illustrationInterface020)" x="409.803" y="637.637" width="560.729" height="20" rx="10"></rect><rect style="fill:var(--color-illustrationInterface020)" x="409.803" y="681.637" width="560.729" height="20" rx="10"></rect></g><defs><filter id="nk-353" x="212.89" y="250.028" width="1062.5" height="267" filterUnits="userSpaceOnUse" color-interpolation-filters="sRGB"><feFlood flood-opacity="0" result="BackgroundImageFix"></feFlood><feColorMatrix in="SourceAlpha" type="matrix" values="0 0 0 0 0 0 0 0 0 0 0 0 0 0 0 0 0 0 127 0" result="hardAlpha"></feColorMatrix><feOffset dy="8"></feOffset><feGaussianBlur stdDeviation="8"></feGaussianBlur><feColorMatrix type="matrix" values="0 0 0 0 0.0392157 0 0 0 0 0.0392157 0 0 0 0 0.0392157 0 0 0 0.08 0"></feColorMatrix><feBlend mode="normal" in2="BackgroundImageFix" result="effect1_dropShadow"></feBlend><feBlend mode="normal" in="SourceGraphic" in2="effect1_dropShadow" result="shape"></feBlend></filter><filter id="nk-354" x="212.89" y="517.028" width="1062.5" height="267" filterUnits="userSpaceOnUse" color-interpolation-filters="sRGB"><feFlood flood-opacity="0" result="BackgroundImageFix"></feFlood><feColorMatrix in="SourceAlpha" type="matrix" values="0 0 0 0 0 0 0 0 0 0 0 0 0 0 0 0 0 0 127 0" result="hardAlpha"></feColorMatrix><feOffset dy="8"></feOffset><feGaussianBlur stdDeviation="8"></feGaussianBlur><feColorMatrix type="matrix" values="0 0 0 0 0.0392157 0 0 0 0 0.0392157 0 0 0 0 0.0392157 0 0 0 0.08 0"></feColorMatrix><feBlend mode="normal" in2="BackgroundImageFix" result="effect1_dropShadow"></feBlend><feBlend mode="normal" in="SourceGraphic" in2="effect1_dropShadow" result="shape"></feBlend></filter><filter id="nk-355" x="212.89" y="784.028" width="1062.5" height="267" filterUnits="userSpaceOnUse" color-interpolation-filters="sRGB"><feFlood flood-opacity="0" result="BackgroundImageFix"></feFlood><feColorMatrix in="SourceAlpha" type="matrix" values="0 0 0 0 0 0 0 0 0 0 0 0 0 0 0 0 0 0 127 0" result="hardAlpha"></feColorMatrix><feOffset dy="8"></feOffset><feGaussianBlur stdDeviation="8"></feGaussianBlur><feColorMatrix type="matrix" values="0 0 0 0 0.0392157 0 0 0 0 0.0392157 0 0 0 0 0.0392157 0 0 0 0.08 0"></feColorMatrix><feBlend mode="normal" in2="BackgroundImageFix" result="effect1_dropShadow"></feBlend><feBlend mode="normal" in="SourceGraphic" in2="effect1_dropShadow" result="shape"></feBlend></filter><clipPath id="nk-352"><rect style="fill:var(--color-white)" width="1490" height="838.004" transform="translate(0 0.0283203)"></rect></clipPath></defs></svg>