<svg id="components-inline-message-inline-message-do-2-illustration" style="width: 100%; height: 100%" width="1490" height="839" viewBox="0 0 1490 839" fill="none" xmlns="http://www.w3.org/2000/svg" class="css-0"><g clip-path="url(#nk-323)"><path style="fill:var(--color-illustrationBackground020)" d="M0 4.01759C0 1.80845 1.79086 0.0175781 4 0.0175781H1486.72C1488.93 0.0175781 1490.72 1.80844 1490.72 4.01758V834.021C1490.72 836.23 1488.93 838.021 1486.72 838.021H4.00002C1.79088 838.021 0 836.23 0 834.021V4.01759Z"></path><g filter="url(#nk-324)"><rect style="fill:var(--color-illustrationInterface010)" x="257" y="119.014" width="976" height="599" rx="16"></rect><path style="fill:var(--color-illustrationHighlight010)" d="M257 127.018C257 122.599 260.582 119.018 265 119.018H1225C1229.42 119.018 1233 122.599 1233 127.018V176.018H257V127.018Z"></path><mask id="nk-322" mask-type="alpha" maskUnits="userSpaceOnUse" x="272" y="130" width="35" height="35"><path style="fill:var(--color-black)" d="M293.569 146.554H293.069V147.054H293.569V146.554ZM293.569 137.926H294.069V137.719L293.922 137.573L293.569 137.926ZM302.196 146.554H302.696V146.054H302.196V146.554ZM302.196 160.933V161.433H302.696V160.933H302.196ZM276.313 160.933H275.813V161.433H276.313V160.933ZM276.313 140.802V140.302H275.813V140.802H276.313ZM284.941 140.802V141.302H285.441V140.802H284.941ZM284.941 137.926L284.588 137.573L284.441 137.719V137.926H284.941ZM289.255 133.612L289.608 133.259L289.255 132.905L288.901 133.259L289.255 133.612ZM282.066 158.057V158.557H282.566V158.057H282.066ZM279.19 158.057H278.69V158.557H279.19V158.057ZM282.066 155.181H282.566V154.681H282.066V155.181ZM279.19 155.181V154.681H278.69V155.181H279.19ZM279.19 152.305H278.69V152.805H279.19V152.305ZM282.066 152.305V152.805H282.566V152.305H282.066ZM279.19 149.429V148.929H278.69V149.429H279.19ZM282.066 149.429H282.566V148.929H282.066V149.429ZM282.066 146.554V147.054H282.566V146.554H282.066ZM279.19 146.554H278.69V147.054H279.19V146.554ZM282.066 143.678H282.566V143.178H282.066V143.678ZM279.19 143.678V143.178H278.69V143.678H279.19ZM287.818 158.057H287.318V158.557H287.818V158.057ZM290.693 158.057V158.557H291.193V158.057H290.693ZM287.818 155.181V154.681H287.318V155.181H287.818ZM290.693 155.181H291.193V154.681H290.693V155.181ZM290.693 152.305V152.805H291.193V152.305H290.693ZM287.818 152.305H287.318V152.805H287.818V152.305ZM290.693 149.429H291.193V148.929H290.693V149.429ZM287.818 149.429V148.929H287.318V149.429H287.818ZM287.818 146.554H287.318V147.054H287.818V146.554ZM290.693 146.554V147.054H291.193V146.554H290.693ZM287.818 143.678V143.178H287.318V143.678H287.818ZM290.693 143.678H291.193V143.178H290.693V143.678ZM290.693 140.802V141.302H291.193V140.802H290.693ZM287.818 140.802H287.318V141.302H287.818V140.802ZM290.693 137.926H291.193V137.426H290.693V137.926ZM287.818 137.926V137.426H287.318V137.926H287.818ZM296.445 158.057H295.945V158.557H296.445V158.057ZM299.321 158.057V158.557H299.821V158.057H299.321ZM296.445 155.181V154.681H295.945V155.181H296.445ZM299.321 155.181H299.821V154.681H299.321V155.181ZM299.321 152.305V152.805H299.821V152.305H299.321ZM296.445 152.305H295.945V152.805H296.445V152.305ZM299.321 149.429H299.821V148.929H299.321V149.429ZM296.445 149.429V148.929H295.945V149.429H296.445ZM294.069 146.554V137.926H293.069V146.554H294.069ZM302.196 146.054H293.569V147.054H302.196V146.054ZM302.696 160.933V146.554H301.696V160.933H302.696ZM276.313 161.433H302.196V160.433H276.313V161.433ZM275.813 140.802V160.933H276.813V140.802H275.813ZM284.941 140.302H276.313V141.302H284.941V140.302ZM284.441 137.926V140.802H285.441V137.926H284.441ZM288.901 133.259L284.588 137.573L285.295 138.28L289.608 133.966L288.901 133.259ZM293.922 137.573L289.608 133.259L288.901 133.966L293.215 138.28L293.922 137.573ZM282.066 157.557H279.19V158.557H282.066V157.557ZM281.566 155.181V158.057H282.566V155.181H281.566ZM279.19 155.681H282.066V154.681H279.19V155.681ZM279.69 158.057V155.181H278.69V158.057H279.69ZM279.19 152.805H282.066V151.805H279.19V152.805ZM278.69 149.429V152.305H279.69V149.429H278.69ZM282.066 148.929H279.19V149.929H282.066V148.929ZM282.566 152.305V149.429H281.566V152.305H282.566ZM282.066 146.054H279.19V147.054H282.066V146.054ZM281.566 143.678V146.554H282.566V143.678H281.566ZM279.19 144.178H282.066V143.178H279.19V144.178ZM279.69 146.554V143.678H278.69V146.554H279.69ZM287.818 158.557H290.693V157.557H287.818V158.557ZM287.318 155.181V158.057H288.318V155.181H287.318ZM290.693 154.681H287.818V155.681H290.693V154.681ZM291.193 158.057V155.181H290.193V158.057H291.193ZM290.693 151.805H287.818V152.805H290.693V151.805ZM290.193 149.429V152.305H291.193V149.429H290.193ZM287.818 149.929H290.693V148.929H287.818V149.929ZM288.318 152.305V149.429H287.318V152.305H288.318ZM287.818 147.054H290.693V146.054H287.818V147.054ZM287.318 143.678V146.554H288.318V143.678H287.318ZM290.693 143.178H287.818V144.178H290.693V143.178ZM291.193 146.554V143.678H290.193V146.554H291.193ZM290.693 140.302H287.818V141.302H290.693V140.302ZM290.193 137.926V140.802H291.193V137.926H290.193ZM287.818 138.426H290.693V137.426H287.818V138.426ZM288.318 140.802V137.926H287.318V140.802H288.318ZM296.445 158.557H299.321V157.557H296.445V158.557ZM295.945 155.181V158.057H296.945V155.181H295.945ZM299.321 154.681H296.445V155.681H299.321V154.681ZM299.821 158.057V155.181H298.821V158.057H299.821ZM299.321 151.805H296.445V152.805H299.321V151.805ZM298.821 149.429V152.305H299.821V149.429H298.821ZM296.445 149.929H299.321V148.929H296.445V149.929ZM296.945 152.305V149.429H295.945V152.305H296.945Z"></path></mask><g mask="url(#nk-322)"><rect style="fill:var(--color-illustrationInterface010)" x="272" y="130.018" width="34.5104" height="34.5104"></rect></g><rect style="fill:var(--color-illustrationInterface010)" x="816" y="143.018" width="69" height="8" rx="4"></rect><rect style="fill:var(--color-illustrationInterface010)" x="925" y="143.018" width="69" height="8" rx="4"></rect><rect style="fill:var(--color-illustrationInterface010)" x="1034" y="143.018" width="69" height="8" rx="4"></rect><rect style="fill:var(--color-illustrationInterface010)" x="1143" y="143.018" width="69" height="8" rx="4"></rect><rect style="fill:var(--color-illustrationHighlight010)" x="416" y="512.018" width="262" height="61" rx="8"></rect><rect style="fill:var(--color-illustrationPalette020)" x="462.801" y="554.757" width="197.674" height="2.68943" rx="1.34472" stroke="#AEBFFF" stroke-width="1.5728"></rect><rect style="fill:var(--color-illustrationPalette020)" x="462.801" y="543.57" width="197.674" height="2.68943" rx="1.34471" stroke="#AEBFFF" stroke-width="1.5728"></rect><rect style="fill:var(--color-illustrationPalette020)" x="462.801" y="532.913" width="99.6152" height="2.68943" rx="1.34472" stroke="#AEBFFF" stroke-width="1.5728"></rect><path style="fill:var(--color-illustrationPalette020)" d="M450.354 535.899C450.354 540.839 446.44 544.799 441.667 544.799C436.893 544.799 432.979 540.839 432.979 535.899C432.979 530.959 436.893 526.999 441.667 526.999C446.44 526.999 450.354 530.959 450.354 535.899Z" stroke="#AEBFFF" stroke-width="2.44715"></path><rect style="fill:var(--color-illustrationHighlight010)" x="416" y="434.018" width="262" height="61" rx="8"></rect><rect style="fill:var(--color-illustrationPalette020)" x="462.801" y="476.757" width="197.674" height="2.68943" rx="1.34472" stroke="#AEBFFF" stroke-width="1.5728"></rect><rect style="fill:var(--color-illustrationPalette020)" x="462.801" y="465.57" width="197.674" height="2.68943" rx="1.34471" stroke="#AEBFFF" stroke-width="1.5728"></rect><rect style="fill:var(--color-illustrationPalette020)" x="462.801" y="454.913" width="99.6152" height="2.68943" rx="1.34472" stroke="#AEBFFF" stroke-width="1.5728"></rect><path style="fill:var(--color-illustrationPalette020)" d="M450.354 457.899C450.354 462.839 446.44 466.799 441.667 466.799C436.893 466.799 432.979 462.839 432.979 457.899C432.979 452.959 436.893 448.999 441.667 448.999C446.44 448.999 450.354 452.959 450.354 457.899Z" stroke="#AEBFFF" stroke-width="2.44715"></path></g><path style="fill:var(--color-illustrationInterface020)" d="M416 176.018H1069V299.018C1069 305.645 1063.63 311.018 1057 311.018H428C421.373 311.018 416 305.645 416 299.018V176.018Z"></path><rect style="fill:var(--color-illustrationPalette020)" x="541.738" y="340.018" width="404.804" height="10" rx="5"></rect><rect style="fill:var(--color-illustrationPalette020)" x="541.738" y="366.018" width="319.845" height="10" rx="5"></rect><rect style="fill:var(--color-illustrationInterface020)" x="541.738" y="626.018" width="404.804" height="10" rx="5"></rect><rect style="fill:var(--color-illustrationInterface020)" x="541.738" y="678.018" width="404.804" height="10" rx="5"></rect><rect style="fill:var(--color-illustrationInterface020)" x="710.656" y="418.018" width="235.886" height="10" rx="5"></rect><rect style="fill:var(--color-illustrationInterface020)" x="710.656" y="470.018" width="235.886" height="10" rx="5"></rect><rect style="fill:var(--color-illustrationInterface020)" x="710.656" y="522.018" width="235.886" height="10" rx="5"></rect><rect style="fill:var(--color-illustrationInterface020)" x="710.656" y="574.018" width="235.886" height="10" rx="5"></rect><rect style="fill:var(--color-illustrationInterface020)" x="541.738" y="392.018" width="404.804" height="10" rx="5"></rect><rect style="fill:var(--color-illustrationInterface020)" x="541.738" y="652.018" width="404.804" height="10" rx="5"></rect><rect style="fill:var(--color-illustrationInterface020)" x="541.738" y="704.018" width="404.804" height="10" rx="5"></rect><rect style="fill:var(--color-illustrationInterface020)" x="710.656" y="444.018" width="235.886" height="10" rx="5"></rect><rect style="fill:var(--color-illustrationInterface020)" x="710.656" y="496.018" width="235.886" height="10" rx="5"></rect><rect style="fill:var(--color-illustrationInterface020)" x="710.656" y="548.018" width="235.886" height="10" rx="5"></rect><rect style="fill:var(--color-illustrationInterface020)" x="541.738" y="600.018" width="404.804" height="10" rx="5"></rect></g><defs><filter id="nk-324" x="241" y="111.014" width="1008" height="631.004" filterUnits="userSpaceOnUse" color-interpolation-filters="sRGB"><feFlood flood-opacity="0" result="BackgroundImageFix"></feFlood><feColorMatrix in="SourceAlpha" type="matrix" values="0 0 0 0 0 0 0 0 0 0 0 0 0 0 0 0 0 0 127 0" result="hardAlpha"></feColorMatrix><feOffset dy="8"></feOffset><feGaussianBlur stdDeviation="8"></feGaussianBlur><feColorMatrix type="matrix" values="0 0 0 0 0.0392157 0 0 0 0 0.0392157 0 0 0 0 0.0392157 0 0 0 0.08 0"></feColorMatrix><feBlend mode="normal" in2="BackgroundImageFix" result="effect1_dropShadow"></feBlend><feBlend mode="normal" in="SourceGraphic" in2="effect1_dropShadow" result="shape"></feBlend></filter><clipPath id="nk-323"><rect style="fill:var(--color-white)" width="1490" height="838.004" transform="translate(0 0.0175781)"></rect></clipPath></defs></svg>