<svg
  id="nksvg"
  style="width: 100%; height: 100%"
  width="1490"
  height="838"
  viewBox="0 0 1490 838"
  fill="none"
  xmlns="http://www.w3.org/2000/svg"
  class="css-0"
>
  <rect
    style="fill: var(--color-illustrationBackground020)"
    width="1490"
    height="838"
  ></rect>
  <g filter="url(#nk-114)">
    <path
      style="fill: var(--color-illustrationInterface010)"
      d="M257 135C257 126.164 264.163 119 273 119H1217C1225.84 119 1233 126.164 1233 135V702C1233 710.837 1225.84 718 1217 718H273C264.163 718 257 710.837 257 702V135Z"
    ></path>
    <path
      style="fill: var(--color-illustrationHighlight010)"
      d="M257 127.004C257 122.586 260.582 119.004 265 119.004H1225C1229.42 119.004 1233 122.586 1233 127.004V176.004H257V127.004Z"
    ></path>
    <path
      style="fill: var(--color-illustrationInterface010)"
      d="M816 147.004C816 144.795 817.791 143.004 820 143.004H881C883.209 143.004 885 144.795 885 147.004V147.004C885 149.213 883.209 151.004 881 151.004H820C817.791 151.004 816 149.213 816 147.004V147.004Z"
    ></path>
    <path
      style="fill: var(--color-illustrationInterface010)"
      d="M925 147.004C925 144.795 926.791 143.004 929 143.004H990C992.209 143.004 994 144.795 994 147.004V147.004C994 149.213 992.209 151.004 990 151.004H929C926.791 151.004 925 149.213 925 147.004V147.004Z"
    ></path>
    <path
      style="fill: var(--color-illustrationInterface010)"
      d="M1034 147.004C1034 144.795 1035.79 143.004 1038 143.004H1099C1101.21 143.004 1103 144.795 1103 147.004V147.004C1103 149.213 1101.21 151.004 1099 151.004H1038C1035.79 151.004 1034 149.213 1034 147.004V147.004Z"
    ></path>
    <path
      style="fill: var(--color-illustrationInterface010)"
      d="M1143 147.004C1143 144.795 1144.79 143.004 1147 143.004H1208C1210.21 143.004 1212 144.795 1212 147.004V147.004C1212 149.213 1210.21 151.004 1208 151.004H1147C1144.79 151.004 1143 149.213 1143 147.004V147.004Z"
    ></path>
    <rect
      style="fill: var(--color-illustrationHighlight010)"
      x="416"
      y="512.004"
      width="262"
      height="61"
      rx="8"
    ></rect>
    <path
      style="fill: var(--color-illustrationPalette020)"
      d="M462.015 556.088C462.015 554.911 462.969 553.957 464.146 553.957H659.13C660.307 553.957 661.261 554.911 661.261 556.088V556.088C661.261 557.265 660.307 558.219 659.13 558.219H464.146C462.969 558.219 462.015 557.265 462.015 556.088V556.088Z"
    ></path>
    <path
      style="fill: var(--color-illustrationPalette020)"
      fill-rule="evenodd"
      clip-rule="evenodd"
      d="M659.13 555.53H464.146C463.837 555.53 463.587 555.78 463.587 556.088C463.587 556.396 463.837 556.646 464.146 556.646H659.13C659.438 556.646 659.688 556.396 659.688 556.088C659.688 555.78 659.438 555.53 659.13 555.53ZM464.146 553.957C462.969 553.957 462.015 554.911 462.015 556.088C462.015 557.265 462.969 558.219 464.146 558.219H659.13C660.307 558.219 661.261 557.265 661.261 556.088C661.261 554.911 660.307 553.957 659.13 553.957H464.146Z"
    ></path>
    <path
      style="fill: var(--color-illustrationPalette020)"
      d="M462.015 544.9C462.015 543.723 462.969 542.769 464.146 542.769H659.13C660.307 542.769 661.261 543.723 661.261 544.9V544.9C661.261 546.077 660.307 547.031 659.13 547.031H464.146C462.969 547.031 462.015 546.077 462.015 544.9V544.9Z"
    ></path>
    <path
      style="fill: var(--color-illustrationPalette020)"
      fill-rule="evenodd"
      clip-rule="evenodd"
      d="M659.13 544.341H464.146C463.837 544.341 463.587 544.591 463.587 544.9C463.587 545.208 463.837 545.458 464.146 545.458H659.13C659.438 545.458 659.688 545.208 659.688 544.9C659.688 544.591 659.438 544.341 659.13 544.341ZM464.146 542.769C462.969 542.769 462.015 543.723 462.015 544.9C462.015 546.077 462.969 547.031 464.146 547.031H659.13C660.307 547.031 661.261 546.077 661.261 544.9C661.261 543.723 660.307 542.769 659.13 542.769H464.146Z"
    ></path>
    <path
      style="fill: var(--color-illustrationPalette020)"
      d="M462.015 534.244C462.015 533.067 462.969 532.113 464.146 532.113H561.071C562.248 532.113 563.203 533.067 563.203 534.244V534.244C563.203 535.421 562.248 536.376 561.071 536.376H464.146C462.969 536.376 462.015 535.421 462.015 534.244V534.244Z"
    ></path>
    <path
      style="fill: var(--color-illustrationPalette020)"
      fill-rule="evenodd"
      clip-rule="evenodd"
      d="M561.071 533.686H464.146C463.837 533.686 463.587 533.936 463.587 534.244C463.587 534.553 463.837 534.803 464.146 534.803H561.071C561.38 534.803 561.63 534.553 561.63 534.244C561.63 533.936 561.38 533.686 561.071 533.686ZM464.146 532.113C462.969 532.113 462.015 533.067 462.015 534.244C462.015 535.421 462.969 536.376 464.146 536.376H561.071C562.248 536.376 563.203 535.421 563.203 534.244C563.203 533.067 562.248 532.113 561.071 532.113H464.146Z"
    ></path>
    <path
      style="fill: var(--color-illustrationPalette020)"
      d="M451.577 535.885C451.577 541.476 447.14 546.008 441.666 546.008C436.193 546.008 431.755 541.476 431.755 535.885C431.755 530.294 436.193 525.761 441.666 525.761C447.14 525.761 451.577 530.294 451.577 535.885Z"
    ></path>
    <path
      style="fill: var(--color-illustrationPalette020)"
      fill-rule="evenodd"
      clip-rule="evenodd"
      d="M441.666 543.561C445.739 543.561 449.13 540.173 449.13 535.885C449.13 531.596 445.739 528.208 441.666 528.208C437.593 528.208 434.203 531.596 434.203 535.885C434.203 540.173 437.593 543.561 441.666 543.561ZM441.666 546.008C447.14 546.008 451.577 541.476 451.577 535.885C451.577 530.294 447.14 525.761 441.666 525.761C436.193 525.761 431.755 530.294 431.755 535.885C431.755 541.476 436.193 546.008 441.666 546.008Z"
    ></path>
    <rect
      style="fill: var(--color-illustrationHighlight010)"
      x="416"
      y="434.004"
      width="262"
      height="61"
      rx="8"
    ></rect>
    <path
      style="fill: var(--color-illustrationPalette020)"
      d="M462.015 478.088C462.015 476.911 462.969 475.957 464.146 475.957H659.13C660.307 475.957 661.261 476.911 661.261 478.088V478.088C661.261 479.265 660.307 480.219 659.13 480.219H464.146C462.969 480.219 462.015 479.265 462.015 478.088V478.088Z"
    ></path>
    <path
      style="fill: var(--color-illustrationPalette020)"
      fill-rule="evenodd"
      clip-rule="evenodd"
      d="M659.13 477.53H464.146C463.837 477.53 463.587 477.78 463.587 478.088C463.587 478.396 463.837 478.646 464.146 478.646H659.13C659.438 478.646 659.688 478.396 659.688 478.088C659.688 477.78 659.438 477.53 659.13 477.53ZM464.146 475.957C462.969 475.957 462.015 476.911 462.015 478.088C462.015 479.265 462.969 480.219 464.146 480.219H659.13C660.307 480.219 661.261 479.265 661.261 478.088C661.261 476.911 660.307 475.957 659.13 475.957H464.146Z"
    ></path>
    <path
      style="fill: var(--color-illustrationPalette020)"
      d="M462.015 466.9C462.015 465.723 462.969 464.769 464.146 464.769H659.13C660.307 464.769 661.261 465.723 661.261 466.9V466.9C661.261 468.077 660.307 469.031 659.13 469.031H464.146C462.969 469.031 462.015 468.077 462.015 466.9V466.9Z"
    ></path>
    <path
      style="fill: var(--color-illustrationPalette020)"
      fill-rule="evenodd"
      clip-rule="evenodd"
      d="M659.13 466.341H464.146C463.837 466.341 463.587 466.591 463.587 466.9C463.587 467.208 463.837 467.458 464.146 467.458H659.13C659.438 467.458 659.688 467.208 659.688 466.9C659.688 466.591 659.438 466.341 659.13 466.341ZM464.146 464.769C462.969 464.769 462.015 465.723 462.015 466.9C462.015 468.077 462.969 469.031 464.146 469.031H659.13C660.307 469.031 661.261 468.077 661.261 466.9C661.261 465.723 660.307 464.769 659.13 464.769H464.146Z"
    ></path>
    <path
      style="fill: var(--color-illustrationPalette020)"
      d="M462.015 456.244C462.015 455.067 462.969 454.113 464.146 454.113H561.071C562.248 454.113 563.203 455.067 563.203 456.244V456.244C563.203 457.421 562.248 458.376 561.071 458.376H464.146C462.969 458.376 462.015 457.421 462.015 456.244V456.244Z"
    ></path>
    <path
      style="fill: var(--color-illustrationPalette020)"
      fill-rule="evenodd"
      clip-rule="evenodd"
      d="M561.071 455.686H464.146C463.837 455.686 463.587 455.936 463.587 456.244C463.587 456.553 463.837 456.803 464.146 456.803H561.071C561.38 456.803 561.63 456.553 561.63 456.244C561.63 455.936 561.38 455.686 561.071 455.686ZM464.146 454.113C462.969 454.113 462.015 455.067 462.015 456.244C462.015 457.421 462.969 458.376 464.146 458.376H561.071C562.248 458.376 563.203 457.421 563.203 456.244C563.203 455.067 562.248 454.113 561.071 454.113H464.146Z"
    ></path>
    <path
      style="fill: var(--color-illustrationPalette020)"
      d="M451.577 457.885C451.577 463.476 447.14 468.008 441.666 468.008C436.193 468.008 431.755 463.476 431.755 457.885C431.755 452.294 436.193 447.761 441.666 447.761C447.14 447.761 451.577 452.294 451.577 457.885Z"
    ></path>
    <path
      style="fill: var(--color-illustrationPalette020)"
      fill-rule="evenodd"
      clip-rule="evenodd"
      d="M441.666 465.561C445.739 465.561 449.13 462.173 449.13 457.885C449.13 453.596 445.739 450.208 441.666 450.208C437.593 450.208 434.203 453.596 434.203 457.885C434.203 462.173 437.593 465.561 441.666 465.561ZM441.666 468.008C447.14 468.008 451.577 463.476 451.577 457.885C451.577 452.294 447.14 447.761 441.666 447.761C436.193 447.761 431.755 452.294 431.755 457.885C431.755 463.476 436.193 468.008 441.666 468.008Z"
    ></path>
  </g>
  <path
    style="fill: var(--color-illustrationInterface020)"
    d="M416 176.004H1069V299.004C1069 305.631 1063.63 311.004 1057 311.004H428C421.373 311.004 416 305.631 416 299.004V176.004Z"
  ></path>
  <path
    style="fill: var(--color-illustrationPalette020)"
    d="M541.734 345.004C541.734 342.242 543.973 340.004 546.734 340.004H941.539C944.3 340.004 946.539 342.242 946.539 345.004V345.004C946.539 347.765 944.3 350.004 941.539 350.004H546.734C543.973 350.004 541.734 347.765 541.734 345.004V345.004Z"
  ></path>
  <path
    style="fill: var(--color-illustrationPalette020)"
    d="M541.734 371.004C541.734 368.242 543.973 366.004 546.734 366.004H856.58C859.341 366.004 861.58 368.242 861.58 371.004V371.004C861.58 373.765 859.341 376.004 856.58 376.004H546.734C543.973 376.004 541.734 373.765 541.734 371.004V371.004Z"
  ></path>
  <path
    style="fill: var(--color-illustrationInterface020)"
    d="M541.734 631.004C541.734 628.242 543.973 626.004 546.734 626.004H941.539C944.3 626.004 946.539 628.242 946.539 631.004V631.004C946.539 633.765 944.3 636.004 941.539 636.004H546.734C543.973 636.004 541.734 633.765 541.734 631.004V631.004Z"
  ></path>
  <path
    style="fill: var(--color-illustrationInterface020)"
    d="M541.734 683.004C541.734 680.242 543.973 678.004 546.734 678.004H941.539C944.3 678.004 946.539 680.242 946.539 683.004V683.004C946.539 685.765 944.3 688.004 941.539 688.004H546.734C543.973 688.004 541.734 685.765 541.734 683.004V683.004Z"
  ></path>
  <path
    style="fill: var(--color-illustrationInterface020)"
    d="M710.656 423.004C710.656 420.242 712.895 418.004 715.656 418.004H941.542C944.304 418.004 946.542 420.242 946.542 423.004V423.004C946.542 425.765 944.304 428.004 941.542 428.004H715.656C712.895 428.004 710.656 425.765 710.656 423.004V423.004Z"
  ></path>
  <path
    style="fill: var(--color-illustrationInterface020)"
    d="M710.656 475.004C710.656 472.242 712.895 470.004 715.656 470.004H941.542C944.304 470.004 946.542 472.242 946.542 475.004V475.004C946.542 477.765 944.304 480.004 941.542 480.004H715.656C712.895 480.004 710.656 477.765 710.656 475.004V475.004Z"
  ></path>
  <path
    style="fill: var(--color-illustrationInterface020)"
    d="M710.656 527.004C710.656 524.242 712.895 522.004 715.656 522.004H941.542C944.304 522.004 946.542 524.242 946.542 527.004V527.004C946.542 529.765 944.304 532.004 941.542 532.004H715.656C712.895 532.004 710.656 529.765 710.656 527.004V527.004Z"
  ></path>
  <path
    style="fill: var(--color-illustrationInterface020)"
    d="M710.656 579.004C710.656 576.242 712.895 574.004 715.656 574.004H941.542C944.304 574.004 946.542 576.242 946.542 579.004V579.004C946.542 581.765 944.304 584.004 941.542 584.004H715.656C712.895 584.004 710.656 581.765 710.656 579.004V579.004Z"
  ></path>
  <path
    style="fill: var(--color-illustrationInterface020)"
    d="M541.734 397.004C541.734 394.242 543.973 392.004 546.734 392.004H941.539C944.3 392.004 946.539 394.242 946.539 397.004V397.004C946.539 399.765 944.3 402.004 941.539 402.004H546.734C543.973 402.004 541.734 399.765 541.734 397.004V397.004Z"
  ></path>
  <path
    style="fill: var(--color-illustrationInterface020)"
    d="M541.734 657.004C541.734 654.242 543.973 652.004 546.734 652.004H941.539C944.3 652.004 946.539 654.242 946.539 657.004V657.004C946.539 659.765 944.3 662.004 941.539 662.004H546.734C543.973 662.004 541.734 659.765 541.734 657.004V657.004Z"
  ></path>
  <path
    style="fill: var(--color-illustrationInterface020)"
    d="M541.734 709.004C541.734 706.242 543.973 704.004 546.734 704.004H941.539C944.3 704.004 946.539 706.242 946.539 709.004V709.004C946.539 711.765 944.3 714.004 941.539 714.004H546.734C543.973 714.004 541.734 711.765 541.734 709.004V709.004Z"
  ></path>
  <path
    style="fill: var(--color-illustrationInterface020)"
    d="M710.656 449.004C710.656 446.242 712.895 444.004 715.656 444.004H941.542C944.304 444.004 946.542 446.242 946.542 449.004V449.004C946.542 451.765 944.304 454.004 941.542 454.004H715.656C712.895 454.004 710.656 451.765 710.656 449.004V449.004Z"
  ></path>
  <path
    style="fill: var(--color-illustrationInterface020)"
    d="M710.656 501.004C710.656 498.242 712.895 496.004 715.656 496.004H941.542C944.304 496.004 946.542 498.242 946.542 501.004V501.004C946.542 503.765 944.304 506.004 941.542 506.004H715.656C712.895 506.004 710.656 503.765 710.656 501.004V501.004Z"
  ></path>
  <path
    style="fill: var(--color-illustrationInterface020)"
    d="M710.656 553.004C710.656 550.242 712.895 548.004 715.656 548.004H941.542C944.304 548.004 946.542 550.242 946.542 553.004V553.004C946.542 555.765 944.304 558.004 941.542 558.004H715.656C712.895 558.004 710.656 555.765 710.656 553.004V553.004Z"
  ></path>
  <path
    style="fill: var(--color-illustrationInterface020)"
    d="M541.734 605.004C541.734 602.242 543.973 600.004 546.734 600.004H941.539C944.3 600.004 946.539 602.242 946.539 605.004V605.004C946.539 607.765 944.3 610.004 941.539 610.004H546.734C543.973 610.004 541.734 607.765 541.734 605.004V605.004Z"
  ></path>
  <defs>
    <filter
      id="nk-114"
      x="241"
      y="111"
      width="1008"
      height="631.004"
      filterUnits="userSpaceOnUse"
      color-interpolation-filters="sRGB"
    >
      <feFlood flood-opacity="0" result="BackgroundImageFix"></feFlood>
      <feColorMatrix
        in="SourceAlpha"
        type="matrix"
        values="0 0 0 0 0 0 0 0 0 0 0 0 0 0 0 0 0 0 127 0"
        result="hardAlpha"
      ></feColorMatrix>
      <feOffset dy="8"></feOffset>
      <feGaussianBlur stdDeviation="8"></feGaussianBlur>
      <feColorMatrix
        type="matrix"
        values="0 0 0 0 0.0392157 0 0 0 0 0.0392157 0 0 0 0 0.0392157 0 0 0 0.08 0"
      ></feColorMatrix>
      <feBlend
        mode="normal"
        in2="BackgroundImageFix"
        result="effect1_dropShadow_2551_81213"
      ></feBlend>
      <feBlend
        mode="normal"
        in="SourceGraphic"
        in2="effect1_dropShadow_2551_81213"
        result="shape"
      ></feBlend>
    </filter>
  </defs>
</svg>
