<svg id="theme-gradients-hero" style="width: 100%; height: 100%" width="1490" height="838" viewBox="0 0 1490 838" fill="none" xmlns="http://www.w3.org/2000/svg" class="css-0"><rect style="fill:var(--color-illustrationBackground020)" width="1490" height="838"></rect><path style="fill:var(--color-illustrationPalette040)" d="M295.866 371.695C243.567 371.695 201.17 329.298 201.17 276.999C201.17 224.7 243.567 182.303 295.866 182.303C348.165 182.303 390.562 224.7 390.562 276.999C390.562 329.298 348.165 371.695 295.866 371.695Z"></path><path d="M295.866 371.695C243.567 371.695 201.17 329.298 201.17 276.999C201.17 224.7 243.567 182.303 295.866 182.303C348.165 182.303 390.562 224.7 390.562 276.999C390.562 329.298 348.165 371.695 295.866 371.695Z" fill="url(#paint0_linear_1478_57153)"></path><path d="M295.866 371.695C243.567 371.695 201.17 329.298 201.17 276.999C201.17 224.7 243.567 182.303 295.866 182.303C348.165 182.303 390.562 224.7 390.562 276.999C390.562 329.298 348.165 371.695 295.866 371.695Z" fill="url(#paint1_linear_1478_57153)"></path><path style="fill:var(--color-illustrationPalette040)" d="M625.206 365.698C576.218 384.014 521.659 359.149 503.343 310.162C485.028 261.175 509.892 206.616 558.879 188.3C607.866 169.985 662.426 194.849 680.741 243.836C699.057 292.823 674.193 347.383 625.206 365.698Z"></path><path d="M503.343 310.161C485.028 261.174 509.892 206.615 558.879 188.299C607.866 169.984 662.426 194.848 680.741 243.835C699.057 292.822 674.192 347.382 625.205 365.697C576.218 384.013 521.659 359.149 503.343 310.161Z" fill="url(#paint2_linear_1478_57153)"></path><path d="M503.343 310.161C485.028 261.174 509.892 206.615 558.879 188.299C607.866 169.984 662.426 194.848 680.741 243.835C699.057 292.822 674.192 347.382 625.205 365.697C576.218 384.013 521.659 359.149 503.343 310.161Z" fill="url(#paint3_linear_1478_57153)"></path><path style="fill:var(--color-illustrationPalette040)" d="M958.037 340.975C922.704 379.534 862.803 382.149 824.244 346.816C785.685 311.484 783.07 251.583 818.403 213.024C853.736 174.465 913.637 171.849 952.196 207.182C990.754 242.515 993.37 302.416 958.037 340.975Z"></path><path d="M818.402 213.024C853.735 174.465 913.636 171.85 952.195 207.183C990.754 242.516 993.369 302.417 958.036 340.976C922.703 379.535 862.802 382.15 824.243 346.817C785.684 311.484 783.069 251.583 818.402 213.024Z" fill="url(#paint4_linear_1478_57153)"></path><path d="M818.402 213.024C853.735 174.465 913.636 171.85 952.195 207.183C990.754 242.516 993.369 302.417 958.036 340.976C922.703 379.535 862.802 382.15 824.243 346.817C785.684 311.484 783.069 251.583 818.402 213.024Z" fill="url(#paint5_linear_1478_57153)"></path><path style="fill:var(--color-illustrationPalette040)" d="M1099.28 235.487C1122.21 188.481 1178.9 168.96 1225.91 191.887C1272.91 214.813 1292.44 271.505 1269.51 318.511C1246.58 365.517 1189.89 385.037 1142.88 362.111C1095.88 339.184 1076.36 282.493 1099.28 235.487Z"></path><path d="M1269.51 318.511C1246.58 365.517 1189.89 385.038 1142.88 362.111C1095.88 339.185 1076.36 282.493 1099.28 235.487C1122.21 188.481 1178.9 168.961 1225.91 191.887C1272.91 214.814 1292.43 271.505 1269.51 318.511Z" fill="url(#paint6_linear_1478_57153)"></path><path d="M1269.51 318.511C1246.58 365.517 1189.89 385.038 1142.88 362.111C1095.88 339.185 1076.36 282.493 1099.28 235.487C1122.21 188.481 1178.9 168.961 1225.91 191.887C1272.91 214.814 1292.43 271.505 1269.51 318.511Z" fill="url(#paint7_linear_1478_57153)"></path><path style="fill:var(--color-illustrationPalette040)" d="M1184.13 466.305C1236.43 466.305 1278.83 508.702 1278.83 561.001C1278.83 613.3 1236.43 655.697 1184.13 655.697C1131.83 655.697 1089.44 613.3 1089.44 561.001C1089.44 508.702 1131.83 466.305 1184.13 466.305Z"></path><path d="M1184.13 466.305C1236.43 466.305 1278.83 508.702 1278.83 561.001C1278.83 613.3 1236.43 655.697 1184.13 655.697C1131.83 655.697 1089.44 613.3 1089.44 561.001C1089.44 508.702 1131.83 466.305 1184.13 466.305Z" fill="url(#paint8_linear_1478_57153)"></path><path d="M1184.13 466.305C1236.43 466.305 1278.83 508.702 1278.83 561.001C1278.83 613.3 1236.43 655.697 1184.13 655.697C1131.83 655.697 1089.44 613.3 1089.44 561.001C1089.44 508.702 1131.83 466.305 1184.13 466.305Z" fill="url(#paint9_linear_1478_57153)"></path><path style="fill:var(--color-illustrationPalette040)" d="M854.794 472.302C903.782 453.986 958.341 478.85 976.657 527.838C994.972 576.825 970.108 631.384 921.121 649.7C872.134 668.015 817.574 643.151 799.259 594.164C780.943 545.177 805.807 490.617 854.794 472.302Z"></path><path d="M976.657 527.838C994.972 576.825 970.108 631.385 921.121 649.701C872.134 668.016 817.574 643.152 799.259 594.165C780.943 545.178 805.808 490.618 854.795 472.302C903.782 453.987 958.341 478.851 976.657 527.838Z" fill="url(#paint10_linear_1478_57153)"></path><path d="M976.657 527.838C994.972 576.825 970.108 631.385 921.121 649.701C872.134 668.016 817.574 643.152 799.259 594.165C780.943 545.178 805.808 490.618 854.795 472.302C903.782 453.987 958.341 478.851 976.657 527.838Z" fill="url(#paint11_linear_1478_57153)"></path><path style="fill:var(--color-illustrationPalette040)" d="M521.963 497.025C557.296 458.466 617.197 455.851 655.756 491.184C694.315 526.516 696.93 586.417 661.597 624.976C626.264 663.535 566.363 666.151 527.804 630.818C489.246 595.485 486.63 535.584 521.963 497.025Z"></path><path d="M661.598 624.976C626.265 663.535 566.364 666.15 527.805 630.817C489.246 595.484 486.631 535.583 521.964 497.024C557.297 458.465 617.198 455.85 655.757 491.183C694.316 526.516 696.931 586.417 661.598 624.976Z" fill="url(#paint12_linear_1478_57153)"></path><path d="M661.598 624.976C626.265 663.535 566.364 666.15 527.805 630.817C489.246 595.484 486.631 535.583 521.964 497.024C557.297 458.465 617.198 455.85 655.757 491.183C694.316 526.516 696.931 586.417 661.598 624.976Z" fill="url(#paint13_linear_1478_57153)"></path><path style="fill:var(--color-illustrationPalette040)" d="M380.715 602.513C357.789 649.519 301.097 669.04 254.091 646.113C207.085 623.187 187.565 566.495 210.491 519.489C233.417 472.483 290.109 452.963 337.115 475.889C384.121 498.816 403.642 555.507 380.715 602.513Z"></path><path d="M210.492 519.489C233.419 472.483 290.11 452.962 337.116 475.889C384.122 498.815 403.643 555.507 380.717 602.513C357.79 649.519 301.099 669.039 254.092 646.113C207.086 623.186 187.566 566.495 210.492 519.489Z" fill="url(#paint14_linear_1478_57153)"></path><path d="M210.492 519.489C233.419 472.483 290.11 452.962 337.116 475.889C384.122 498.815 403.643 555.507 380.717 602.513C357.79 649.519 301.099 669.039 254.092 646.113C207.086 623.186 187.566 566.495 210.492 519.489Z" fill="url(#paint15_linear_1478_57153)"></path><defs><linearGradient id="paint0_linear_1478_57153" x1="295.866" y1="182.303" x2="295.866" y2="371.695" gradientUnits="userSpaceOnUse"><stop stop-color="white" stop-opacity="0"></stop><stop offset="1" stop-color="white" stop-opacity="0.4"></stop></linearGradient><linearGradient id="paint1_linear_1478_57153" x1="295.866" y1="182.303" x2="295.866" y2="371.695" gradientUnits="userSpaceOnUse"><stop stop-color="white" stop-opacity="0"></stop><stop offset="1" stop-color="white" stop-opacity="0.4"></stop></linearGradient><linearGradient id="paint2_linear_1478_57153" x1="680.741" y1="243.835" x2="503.343" y2="310.161" gradientUnits="userSpaceOnUse"><stop stop-color="white" stop-opacity="0"></stop><stop offset="1" stop-color="white" stop-opacity="0.4"></stop></linearGradient><linearGradient id="paint3_linear_1478_57153" x1="680.741" y1="243.835" x2="503.343" y2="310.161" gradientUnits="userSpaceOnUse"><stop stop-color="white" stop-opacity="0"></stop><stop offset="1" stop-color="white" stop-opacity="0.4"></stop></linearGradient><linearGradient id="paint4_linear_1478_57153" x1="958.036" y1="340.976" x2="818.402" y2="213.024" gradientUnits="userSpaceOnUse"><stop stop-color="white" stop-opacity="0"></stop><stop offset="1" stop-color="white" stop-opacity="0.4"></stop></linearGradient><linearGradient id="paint5_linear_1478_57153" x1="958.036" y1="340.976" x2="818.402" y2="213.024" gradientUnits="userSpaceOnUse"><stop stop-color="white" stop-opacity="0"></stop><stop offset="1" stop-color="white" stop-opacity="0.4"></stop></linearGradient><linearGradient id="paint6_linear_1478_57153" x1="1099.28" y1="235.487" x2="1269.51" y2="318.511" gradientUnits="userSpaceOnUse"><stop stop-color="white" stop-opacity="0"></stop><stop offset="1" stop-color="white" stop-opacity="0.4"></stop></linearGradient><linearGradient id="paint7_linear_1478_57153" x1="1099.28" y1="235.487" x2="1269.51" y2="318.511" gradientUnits="userSpaceOnUse"><stop offset="0.399736" stop-color="white" stop-opacity="0"></stop><stop offset="1" stop-color="white" stop-opacity="0.4"></stop></linearGradient><linearGradient id="paint8_linear_1478_57153" x1="1184.13" y1="655.697" x2="1184.13" y2="466.305" gradientUnits="userSpaceOnUse"><stop stop-color="#243853" stop-opacity="0"></stop><stop offset="1" stop-color="#243853" stop-opacity="0.4"></stop></linearGradient><linearGradient id="paint9_linear_1478_57153" x1="1184.13" y1="655.697" x2="1184.13" y2="466.305" gradientUnits="userSpaceOnUse"><stop stop-color="#243853" stop-opacity="0"></stop><stop offset="1" stop-color="#243853" stop-opacity="0.4"></stop></linearGradient><linearGradient id="paint10_linear_1478_57153" x1="799.259" y1="594.165" x2="976.657" y2="527.838" gradientUnits="userSpaceOnUse"><stop stop-color="#243853" stop-opacity="0"></stop><stop offset="1" stop-color="#243853" stop-opacity="0.4"></stop></linearGradient><linearGradient id="paint11_linear_1478_57153" x1="799.259" y1="594.165" x2="976.657" y2="527.838" gradientUnits="userSpaceOnUse"><stop stop-color="#243853" stop-opacity="0"></stop><stop offset="1" stop-color="#243853" stop-opacity="0.4"></stop></linearGradient><linearGradient id="paint12_linear_1478_57153" x1="521.964" y1="497.024" x2="661.598" y2="624.976" gradientUnits="userSpaceOnUse"><stop stop-color="#243853" stop-opacity="0"></stop><stop offset="1" stop-color="#243853" stop-opacity="0.4"></stop></linearGradient><linearGradient id="paint13_linear_1478_57153" x1="521.964" y1="497.024" x2="661.598" y2="624.976" gradientUnits="userSpaceOnUse"><stop stop-color="#243853" stop-opacity="0"></stop><stop offset="1" stop-color="#243853" stop-opacity="0.4"></stop></linearGradient><linearGradient id="paint14_linear_1478_57153" x1="380.717" y1="602.513" x2="210.492" y2="519.489" gradientUnits="userSpaceOnUse"><stop stop-color="#243853" stop-opacity="0"></stop><stop offset="1" stop-color="#243853" stop-opacity="0.4"></stop></linearGradient><linearGradient id="paint15_linear_1478_57153" x1="380.717" y1="602.513" x2="210.492" y2="519.489" gradientUnits="userSpaceOnUse"><stop stop-color="#243853" stop-opacity="0"></stop><stop offset="1" stop-color="#243853" stop-opacity="0.4"></stop></linearGradient></defs></svg>