<svg
  id="nksvg"
  style="width: 100%; height: 100%"
  width="1345"
  height="759"
  viewBox="0 0 1345 759"
  fill="none"
  xmlns="http://www.w3.org/2000/svg"
  class="css-0"
>
  <g clip-path="url(#nk-631)">
    <rect
      style="fill: var(--color-illustrationBackground010)"
      width="1345"
      height="759"
    ></rect>
    <path
      style="fill: var(--color-illustrationInterface020)"
      opacity="0.4"
      fill-rule="evenodd"
      clip-rule="evenodd"
      d="M360.599 -93.0578C355.995 -98.4615 352.467 -104.929 350.441 -112.219C342.995 -139.02 358.684 -166.782 385.484 -174.228C412.284 -181.675 440.046 -165.985 447.493 -139.185C454.939 -112.385 439.25 -84.6229 412.45 -77.1765C404.996 -75.1054 397.467 -74.8241 390.322 -76.0738C387.381 -74.5852 385.358 -71.9965 383.303 -68.2965C371.793 -47.5044 360.025 -26.8357 348.258 -6.16871L348.238 -6.13259L348.227 -6.11397C343.923 1.44493 339.62 9.00364 335.329 16.5681C334.265 18.4265 333.274 20.3164 332.031 22.6869L332.027 22.6945C331.514 23.6737 330.957 24.7349 330.335 25.9097C465.56 -74.4895 611.148 -96.9013 771.057 -40.9182C772.386 -43.4824 773.734 -46.1404 775.111 -48.8552L775.116 -48.8642C778.401 -55.3416 781.851 -62.1427 785.594 -68.7675C792.006 -80.1148 799.1 -82.0858 810.426 -75.7451C835.508 -61.7112 860.545 -47.5607 885.505 -33.3109C897.303 -26.5814 899.067 -19.7671 892.302 -7.72407C878.373 17.0713 864.406 41.825 850.322 66.5332C843.67 78.2331 836.635 80.1357 824.737 73.5122C799.897 59.6968 775.086 45.7956 750.309 31.8327C738.198 25.0081 736.383 17.8185 743.421 5.54346C745.858 1.27924 748.357 -2.94075 750.872 -7.1881C752.02 -9.12742 753.172 -11.0724 754.322 -13.0299C599.789 -76.058 404.442 -29.9707 293.195 106.612C301.449 115.488 307.756 126.42 311.225 138.904C318.696 165.795 311.171 193.309 293.686 212.537C288.843 218.116 283.363 222.68 277.197 226.277C271.008 230.125 264.173 233.166 256.796 235.216C244.367 238.669 231.805 238.919 219.989 236.462C163.721 382.249 207.904 581.726 355.687 694.133C356.872 691.763 358.007 689.394 359.134 687.041C361.568 681.962 363.966 676.958 366.744 672.189C372.262 662.676 380.194 660.446 389.77 665.817C415.92 680.516 441.96 695.376 467.925 710.438C476.352 715.323 479.027 723.08 474.534 731.138C462.877 751.922 450.984 772.573 439.091 793.224C434.333 801.485 429.575 809.747 424.833 818.016L415.809 820.524C414.794 820.125 413.757 819.765 412.72 819.404C410.509 818.634 408.295 817.864 406.28 816.725C380.667 802.371 355.071 787.985 329.598 773.384C318.964 767.293 317.122 760.007 323.393 749.089C327.148 742.544 331.173 736.161 335.023 730.057L335.027 730.051L335.041 730.029C336.733 727.346 338.391 724.717 339.976 722.152C209.671 614.066 153.605 477.762 168.993 311.259C157.373 331.023 146.171 350.933 134.982 370.822L134.981 370.822L134.98 370.824C128.562 382.232 122.148 393.632 115.661 404.995C114.87 406.385 114.269 407.668 113.856 408.893C120.433 415.012 125.455 422.966 128.036 432.256C135.482 459.056 119.793 486.818 92.9927 494.264C66.1926 501.711 38.4304 486.022 30.984 459.222C23.5376 432.421 39.2268 404.659 66.0269 397.213C72.5555 395.399 79.1411 394.958 85.4763 395.716C86.372 395.123 87.1117 394.432 87.5558 393.646C116.628 342.387 145.508 291.019 174.58 239.308C178.238 232.801 181.899 226.289 185.563 219.772C173.85 209.96 164.884 196.622 160.485 180.787C148.919 139.162 173.287 96.0415 214.913 84.4758C230.843 80.0497 246.991 80.8862 261.506 85.9385C261.602 85.7914 261.698 85.6439 261.795 85.4959L262.017 85.1569C263.083 83.5284 264.189 81.838 265.174 80.0681C273.618 65.1154 282.053 50.1612 290.488 35.2079L290.555 35.0907C313.108 -4.89109 335.657 -44.8655 358.346 -84.7824C360.105 -87.8755 360.962 -90.3809 360.599 -93.0578ZM401.657 -107.683C392.683 -106.332 383.906 -111.86 381.415 -120.826C381.409 -120.847 381.403 -120.868 381.397 -120.889C380.246 -129.172 385.684 -136.921 393.861 -138.528C402.487 -140.223 410.987 -134.422 412.579 -125.793C414.05 -117.734 409.231 -110.008 401.657 -107.683ZM190.061 165.013C190.333 167.398 190.795 169.794 191.459 172.181C198.271 196.7 223.671 211.054 248.19 204.242C272.709 197.429 287.063 172.03 280.251 147.51C273.438 122.991 248.038 108.637 223.519 115.45C222.429 115.753 221.358 116.093 220.308 116.467C200.651 123.945 188.217 144.33 190.061 165.013ZM413.169 714.487L413.352 714.591C422.067 719.522 430.841 724.485 439.473 729.365C437.86 732.209 436.241 735.062 434.618 737.919L432.102 742.352L432.071 742.407C424.569 755.622 417.039 768.887 409.767 781.756C401.903 777.264 393.837 772.657 385.767 768.048L385.176 767.711C376.165 762.565 367.155 757.42 358.422 752.431C363.756 742.826 369.364 732.747 375.04 722.545L375.102 722.434C379.25 714.979 383.435 707.459 387.574 700.011C395.918 704.727 404.514 709.591 413.169 714.487ZM816.582 30.8906L816.521 30.8555L816.249 30.6998C803.73 23.5338 790.817 16.1424 777.917 8.74748C786.803 -6.97839 796.742 -24.5302 806.112 -41.0403C814.31 -36.3966 822.758 -31.6073 831.262 -26.7859L831.485 -26.6594C840.409 -21.6001 849.393 -16.5066 858.216 -11.5099C849.166 4.46931 839.228 22.0211 829.906 38.5178C825.529 36.0117 821.081 33.4658 816.582 30.8906ZM91.8349 439.168C94.3008 447.295 90.146 455.26 82.1059 457.754C73.6073 460.375 64.7368 455.483 62.3056 446.827C61.8551 445.242 61.635 443.698 61.6321 442.22C62.8521 436.047 67.2389 430.724 73.4961 428.542C81.5429 426.8 89.4085 431.218 91.8349 439.168Z"
    ></path>
    <path
      style="fill: var(--color-illustrationInterface020)"
      opacity="0.4"
      d="M1459.79 932.625C1455.61 928.033 1450.49 924.001 1447.46 918.786C1430.49 889.754 1413.9 860.514 1397.53 831.129C1394.06 824.893 1389.82 821.135 1382.93 818.938C1329.01 801.811 1275.23 784.22 1221.3 767.066C1212.4 764.229 1206.71 759.452 1202.71 750.782C1141.98 619.36 1081.02 488.03 1019.88 356.791C1015 346.322 1015.72 338.281 1023.82 329.705C1039.62 313.005 1054.82 295.694 1069.99 278.385C1076.29 271.165 1083.26 269.343 1092.28 272.387C1231 319.371 1369.74 366.299 1508.55 413.037C1517.06 415.895 1521.3 421.687 1524.69 429.346C1547.52 480.758 1570.64 532.02 1593.36 583.49C1596.41 590.391 1600.65 594.551 1607.58 597.468C1638.89 610.655 1669.97 624.308 1701.11 637.878C1717.64 645.093 1719.94 655.327 1707.87 668.775C1631.75 753.674 1555.57 838.55 1479.37 923.375C1476.51 926.554 1473.02 929.179 1469.83 932.055C1466.47 932.263 1463.13 932.444 1459.79 932.625ZM1082.36 312.966C1154.99 378.141 1227.09 442.837 1299.38 507.683C1348.75 473.4 1401.18 491.117 1427.01 520.954C1457.59 556.235 1458.51 606.825 1429.02 643.056C1400.54 678.028 1350.23 687.577 1310.57 665.422C1290.95 654.44 1276.73 638.455 1268.74 617.475C1257.63 588.313 1260.92 560.058 1274.92 535.479C1201.87 469.924 1129.83 405.252 1057.53 340.406C1052.94 343.652 1050.7 347.655 1054.27 355.304C1112.45 479.825 1170.22 604.502 1228.4 729.023C1230.33 733.147 1235.08 737.306 1239.41 738.731C1289.29 755.328 1339.4 771.297 1389.33 787.812C1396.06 790.043 1399.93 788.924 1404.62 783.638C1456.52 725.396 1508.62 667.332 1560.88 609.445C1565.58 604.239 1566.38 600.261 1563.44 593.783C1542.03 546.845 1520.9 499.81 1500.12 452.597C1496.89 445.251 1492.5 441.26 1484.89 438.701C1356.2 395.431 1227.54 351.944 1099.04 308.155C1090.88 305.384 1085.77 305.769 1082.36 312.966ZM1592.31 625.837C1535.92 688.577 1480.13 750.642 1423.94 813.158C1437.87 837.563 1452.29 862.825 1466.19 887.152C1534.44 811.109 1602.16 735.657 1670.29 659.755C1644.28 648.423 1617.52 636.784 1592.31 625.837ZM1294.34 586.54C1296.17 620.914 1325.62 647.343 1359.85 645.329C1393.52 643.345 1419.93 614.026 1418.42 580.303C1416.89 546.072 1387.43 519.457 1353.14 521.287C1318.36 523.17 1292.49 551.898 1294.34 586.54Z"
    ></path>
    <path
      style="fill: var(--color-illustrationPalette010)"
      d="M486 153.718C486 148.904 489.929 145.001 494.753 145.001C607.631 145.001 681.323 145.001 780.525 145.001C780.525 182.334 780.525 182.334 780.525 224.334H860V605.284C860 610.098 856.09 614.001 851.267 614.001H494.733C489.91 614.001 486 610.098 486 605.284V153.718Z"
    ></path>
    <g style="mix-blend-mode: color-burn" opacity="0.15">
      <path
        style="fill: var(--color-illustrationGradient010)"
        d="M486 153.718C486 148.904 489.929 145.001 494.753 145.001C607.631 145.001 681.323 145.001 780.525 145.001C780.525 182.334 780.525 182.334 780.525 224.334H860V605.284C860 610.098 856.09 614.001 851.267 614.001H494.733C489.91 614.001 486 610.098 486 605.284V153.718Z"
      ></path>
    </g>
    <path
      style="fill: var(--color-illustrationPalette030)"
      opacity="0.4"
      fill-rule="evenodd"
      clip-rule="evenodd"
      d="M798.396 127.313V127.001H494.463C479.91 127.001 468 138.765 468 153.392V605.61C468 620.185 479.839 632.001 494.443 632.001H851.557C866.161 632.001 878 620.185 878 605.61V206.449H877.844L878 206.293L798.708 127.001L798.396 127.313ZM780.7 224.11V144.662H494.463C489.632 144.662 485.696 148.571 485.696 153.392V605.61C485.696 610.431 489.612 614.34 494.443 614.34H851.557C856.388 614.34 860.304 610.431 860.304 605.61V224.11H780.7Z"
    ></path>
    <path
      style="fill: var(--color-illustrationSubtle010)"
      d="M907.849 670.498C907.849 672.983 878.747 674.998 842.849 674.998C806.95 674.998 777.849 672.983 777.849 670.498C777.849 668.013 806.95 665.998 842.849 665.998C878.747 665.998 907.849 668.013 907.849 670.498Z"
    ></path>
    <path
      d="M819.79 497.719C772.962 510.266 745.149 558.313 757.667 605.034C770.186 651.754 818.296 679.457 865.125 666.91C911.953 654.362 939.766 606.315 927.247 559.595C914.729 512.874 866.618 485.171 819.79 497.719Z"
      fill="#6454E3"
    ></path>
    <path
      d="M793.006 509.977C800.964 504.553 809.958 500.353 819.79 497.719C834.877 493.676 850.098 493.812 864.218 497.415C872.823 500.309 880.799 503.798 887.313 506.973C905.923 517.992 920.48 535.855 926.858 558.184C927.626 561.227 928.314 564.454 928.906 567.876C929.325 570.304 929.669 572.67 929.941 574.977C931.986 599.261 923.7 622.807 908.105 640.392C903.622 644.1 898.7 647.148 893.557 649.631C869.478 661.259 844.164 660.48 826.394 650.403C817.789 645.523 814.365 636.481 810.26 625.639C805.889 614.092 800.744 600.504 787.745 587.73C767.218 567.558 776.222 531.447 793.006 509.977Z"
      fill="#6E61E4"
    ></path>
    <path
      d="M855.038 495.588C855.734 495.774 856.428 495.966 857.121 496.163C871.952 500.377 885.642 506.932 894.25 511.538C894.254 511.541 894.26 511.544 894.266 511.547C892.021 509.913 889.7 508.387 887.313 506.973C880.799 503.798 872.823 500.309 864.218 497.415C861.204 496.646 858.14 496.035 855.038 495.588Z"
      fill="#6E61E4"
    ></path>
    <path
      d="M908.105 640.392C903.622 644.1 898.7 647.148 893.557 649.631C869.478 661.259 844.164 660.48 826.394 650.403C817.789 645.523 814.365 636.481 810.26 625.639C805.889 614.092 800.744 600.504 787.745 587.73C767.218 567.558 776.222 531.447 793.006 509.977C793.836 509.411 794.676 508.859 795.528 508.321C795.245 508.655 794.962 508.993 794.682 509.336C788.952 516.35 784.054 525.112 780.84 534.429C774.395 553.11 774.8 573.733 788.383 587.081C801.136 599.613 806.412 612.925 810.709 624.253L811.053 625.161C815.215 636.148 818.529 644.897 826.843 649.611C844.315 659.52 869.309 660.33 893.161 648.812C900.13 645.446 906.673 641.041 912.248 635.356C910.931 637.083 909.55 638.763 908.105 640.392Z"
      fill="#6E61E4"
    ></path>
    <path
      d="M926.858 558.184C927.626 561.227 928.314 564.454 928.906 567.876C929.325 570.304 929.669 572.67 929.941 574.977C930.409 580.536 930.336 586.057 929.757 591.476C930.022 584.4 929.49 576.607 928.009 568.031C926.168 557.371 923.377 548.629 920.177 541.487C922.923 546.713 925.175 552.293 926.858 558.184Z"
      fill="#6E61E4"
    ></path>
    <path
      d="M869.437 498.92C866.984 499.544 864.748 500.44 862.788 501.57C862.01 502.02 861.217 502.475 860.412 502.937C846.419 510.974 828.945 521.009 825.05 534.97C820.932 549.733 827.569 562.39 836.04 577.058C838.908 582.023 840.723 588.039 842.495 593.908C845.595 604.179 848.56 614.003 856.789 616.971C857.442 617.207 888.58 626.072 907.809 617.006C918.344 612.038 924.835 603.953 929.256 595.346C931.022 583.761 930.473 571.634 927.247 559.595C919.264 529.8 896.806 507.74 869.437 498.92Z"
      fill="#8883F6"
    ></path>
    <path
      d="M896.71 513.39C894.696 513.724 892.887 514.354 891.368 515.23C890.922 515.488 890.466 515.749 890.005 516.015C881.975 520.626 871.947 526.385 869.712 534.397C867.348 542.869 871.157 550.132 876.018 558.55C877.664 561.399 878.706 564.851 879.723 568.22C881.502 574.114 883.203 579.751 887.925 581.454C888.3 581.59 906.169 586.677 917.204 581.474C923.082 578.703 926.766 574.24 929.298 569.455C928.809 566.17 928.128 562.879 927.247 559.595C922.146 540.557 911.136 524.676 896.71 513.39Z"
      fill="#A3A3FB"
    ></path>
    <path
      style="fill: var(--color-white)"
      d="M895.849 583.571C895.849 587.437 892.715 590.571 888.849 590.571H857.42C853.554 590.571 850.42 593.705 850.42 597.571V629C850.42 632.866 847.286 636 843.42 636H842.277C838.411 636 835.277 632.866 835.277 629V597.571C835.277 593.705 832.143 590.571 828.277 590.571H796.849C792.983 590.571 789.849 587.437 789.849 583.571V582.429C789.849 578.563 792.983 575.429 796.849 575.429H828.277C832.143 575.429 835.277 572.295 835.277 568.429V537C835.277 533.134 838.411 530 842.277 530H843.42C847.286 530 850.42 533.134 850.42 537V568.429C850.42 572.295 853.554 575.429 857.42 575.429H888.849C892.715 575.429 895.849 578.563 895.849 582.429V583.571Z"
    ></path>
    <path
      style="fill: var(--color-white)"
      fill-rule="evenodd"
      clip-rule="evenodd"
      d="M842.277 533C840.068 533 838.277 534.791 838.277 537V568.429C838.277 573.951 833.8 578.429 828.277 578.429H796.849C794.639 578.429 792.849 580.219 792.849 582.429V583.571C792.849 585.781 794.639 587.571 796.849 587.571H828.277C833.8 587.571 838.277 592.049 838.277 597.571V629C838.277 631.209 840.068 633 842.277 633H843.42C845.629 633 847.42 631.209 847.42 629V597.571C847.42 592.049 851.897 587.571 857.42 587.571H888.849C891.058 587.571 892.849 585.781 892.849 583.571V582.429C892.849 580.219 891.058 578.429 888.849 578.429H857.42C851.897 578.429 847.42 573.951 847.42 568.429V537C847.42 534.791 845.629 533 843.42 533H842.277ZM832.277 537C832.277 531.477 836.754 527 842.277 527H843.42C848.943 527 853.42 531.477 853.42 537V568.429C853.42 570.638 855.211 572.429 857.42 572.429H888.849C894.371 572.429 898.849 576.906 898.849 582.429V583.571C898.849 589.094 894.371 593.571 888.849 593.571H857.42C855.211 593.571 853.42 595.362 853.42 597.571V629C853.42 634.523 848.943 639 843.42 639H842.277C836.754 639 832.277 634.523 832.277 629V597.571C832.277 595.362 830.486 593.571 828.277 593.571H796.849C791.326 593.571 786.849 589.094 786.849 583.571V582.429C786.849 576.906 791.326 572.429 796.849 572.429H828.277C830.486 572.429 832.277 570.638 832.277 568.429V537Z"
    ></path>
    <path
      style="fill: var(--color-illustrationPalette030)"
      opacity="0.4"
      d="M633 500C654.528 500 672 481.856 672 459.5V419H633C611.472 419 594 437.144 594 459.5C594 481.856 611.472 500 633 500Z"
    ></path>
    <path
      style="fill: var(--color-illustrationPalette030)"
      opacity="0.4"
      d="M594 379C594 356.92 611.472 339 633 339H672V419H633C611.472 419 594 401.08 594 379Z"
    ></path>
    <path
      style="fill: var(--color-illustrationInterface030)"
      opacity="0.4"
      d="M594 299C594 276.92 611.472 259 633 259H672V339H633C611.472 339 594 321.08 594 299Z"
    ></path>
    <path
      style="fill: var(--color-illustrationPalette030)"
      opacity="0.4"
      d="M672 259H711.5C733.304 259 751 276.92 751 299C751 321.08 733.304 339 711.5 339H672V259Z"
    ></path>
    <path
      style="fill: var(--color-illustrationPalette030)"
      opacity="0.4"
      d="M751 379C751 401.08 733.304 419 711.5 419C689.696 419 672 401.08 672 379C672 356.92 689.696 339 711.5 339C733.304 339 751 356.92 751 379Z"
    ></path>
  </g>
  <defs>
    <clipPath id="nk-631">
      <rect style="fill: var(--color-white)" width="1345" height="759"></rect>
    </clipPath>
  </defs>
</svg>
