<svg id="nksvg" width="1490" height="838" viewBox="0 0 1490 838" fill="none" xmlns="http://www.w3.org/2000/svg">
<g clip-path="url(#clip0_3523_104054)">
<path d="M0 0H1490V838H0V0Z" fill="var(--color-illustrationBackground010)"/>
<path d="M427 90C427 83.3726 432.373 78 439 78H1052C1058.63 78 1064 83.3726 1064 90V407.981C1064 414.609 1058.63 419.981 1052 419.981H439C432.373 419.981 427 414.609 427 407.981V90Z" fill="var(--color-illustrationInterface010)"/>
<rect x="427" y="559.887" width="610.508" height="19.2665" rx="9.63327" fill="var(--color-illustrationInterface030)"/>
<rect x="427" y="604.441" width="309.469" height="19.2665" rx="9.63327" fill="var(--color-illustrationInterface030)"/>
<rect x="427" y="673.078" width="375.699" height="86.6994" rx="9.63327" fill="var(--color-illustrationInterface070)"/>
<path d="M460.679 723.07H466.622V725.396H457.796V707.822H460.679V723.07ZM481.803 718.088C481.803 718.611 481.769 719.083 481.701 719.505H471.056C471.14 720.617 471.553 721.511 472.295 722.185C473.036 722.859 473.947 723.196 475.026 723.196C476.577 723.196 477.672 722.547 478.313 721.249H481.423C481.002 722.531 480.235 723.584 479.122 724.41C478.026 725.219 476.661 725.624 475.026 725.624C473.694 725.624 472.497 725.329 471.435 724.739C470.39 724.132 469.564 723.289 468.957 722.21C468.367 721.114 468.072 719.85 468.072 718.417C468.072 716.984 468.358 715.728 468.931 714.649C469.521 713.554 470.339 712.711 471.384 712.121C472.446 711.531 473.66 711.236 475.026 711.236C476.341 711.236 477.512 711.522 478.541 712.095C479.569 712.669 480.37 713.478 480.943 714.523C481.516 715.551 481.803 716.74 481.803 718.088ZM478.793 717.178C478.777 716.116 478.397 715.265 477.656 714.624C476.914 713.983 475.995 713.663 474.899 713.663C473.905 713.663 473.053 713.983 472.345 714.624C471.637 715.248 471.216 716.099 471.081 717.178H478.793ZM483.679 718.367C483.679 716.967 483.965 715.728 484.538 714.649C485.128 713.57 485.921 712.736 486.915 712.146C487.927 711.539 489.04 711.236 490.253 711.236C491.349 711.236 492.302 711.455 493.111 711.893C493.937 712.315 494.594 712.846 495.083 713.486V711.463H497.991V725.396H495.083V723.323C494.594 723.98 493.928 724.528 493.086 724.967C492.243 725.405 491.282 725.624 490.203 725.624C489.006 725.624 487.91 725.321 486.915 724.714C485.921 724.09 485.128 723.23 484.538 722.134C483.965 721.022 483.679 719.766 483.679 718.367ZM495.083 718.417C495.083 717.456 494.881 716.622 494.476 715.914C494.089 715.206 493.574 714.666 492.934 714.295C492.293 713.924 491.602 713.739 490.86 713.739C490.118 713.739 489.427 713.924 488.787 714.295C488.146 714.649 487.623 715.18 487.219 715.888C486.831 716.58 486.637 717.406 486.637 718.367C486.637 719.328 486.831 720.17 487.219 720.895C487.623 721.62 488.146 722.177 488.787 722.564C489.444 722.935 490.135 723.121 490.86 723.121C491.602 723.121 492.293 722.935 492.934 722.564C493.574 722.193 494.089 721.654 494.476 720.946C494.881 720.221 495.083 719.378 495.083 718.417ZM504.66 713.486C505.082 712.778 505.638 712.23 506.329 711.842C507.037 711.438 507.872 711.236 508.833 711.236V714.219H508.099C506.97 714.219 506.11 714.506 505.52 715.079C504.947 715.652 504.66 716.647 504.66 718.063V725.396H501.778V711.463H504.66V713.486ZM518.513 711.236C519.608 711.236 520.586 711.463 521.446 711.918C522.322 712.374 523.005 713.048 523.494 713.941C523.983 714.835 524.227 715.914 524.227 717.178V725.396H521.37V717.608C521.37 716.36 521.058 715.408 520.434 714.751C519.811 714.076 518.959 713.739 517.88 713.739C516.801 713.739 515.942 714.076 515.301 714.751C514.677 715.408 514.365 716.36 514.365 717.608V725.396H511.483V711.463H514.365V713.056C514.837 712.483 515.436 712.036 516.161 711.716C516.903 711.396 517.686 711.236 518.513 711.236ZM541.68 711.236C542.742 711.236 543.686 711.463 544.512 711.918C545.355 712.374 546.013 713.048 546.485 713.941C546.974 714.835 547.218 715.914 547.218 717.178V725.396H544.361V717.608C544.361 716.36 544.049 715.408 543.425 714.751C542.801 714.076 541.95 713.739 540.871 713.739C539.792 713.739 538.932 714.076 538.292 714.751C537.668 715.408 537.356 716.36 537.356 717.608V725.396H534.473V706.684H537.356V713.082C537.845 712.492 538.46 712.036 539.202 711.716C539.961 711.396 540.787 711.236 541.68 711.236ZM556.939 725.624C555.624 725.624 554.436 725.329 553.373 724.739C552.311 724.132 551.477 723.289 550.87 722.21C550.263 721.114 549.96 719.85 549.96 718.417C549.96 717.001 550.272 715.745 550.895 714.649C551.519 713.554 552.37 712.711 553.449 712.121C554.528 711.531 555.734 711.236 557.065 711.236C558.397 711.236 559.603 711.531 560.682 712.121C561.76 712.711 562.612 713.554 563.236 714.649C563.859 715.745 564.171 717.001 564.171 718.417C564.171 719.833 563.851 721.089 563.21 722.185C562.57 723.281 561.693 724.132 560.58 724.739C559.485 725.329 558.271 725.624 556.939 725.624ZM556.939 723.121C557.681 723.121 558.372 722.944 559.013 722.59C559.67 722.236 560.201 721.705 560.606 720.996C561.01 720.288 561.213 719.429 561.213 718.417C561.213 717.406 561.019 716.554 560.631 715.863C560.243 715.155 559.729 714.624 559.088 714.27C558.448 713.916 557.757 713.739 557.015 713.739C556.273 713.739 555.582 713.916 554.941 714.27C554.318 714.624 553.82 715.155 553.449 715.863C553.078 716.554 552.893 717.406 552.893 718.417C552.893 719.918 553.272 721.081 554.031 721.907C554.806 722.716 555.776 723.121 556.939 723.121ZM585.734 711.463L581.409 725.396H578.375L575.568 715.105L572.761 725.396H569.727L565.377 711.463H568.311L571.219 722.665L574.177 711.463H577.186L580.019 722.615L582.901 711.463H585.734ZM597.82 713.815V721.528C597.82 722.05 597.938 722.429 598.174 722.665C598.427 722.885 598.848 722.994 599.438 722.994H601.208V725.396H598.933C597.634 725.396 596.64 725.093 595.949 724.486C595.257 723.879 594.912 722.893 594.912 721.528V713.815H593.268V711.463H594.912V707.999H597.82V711.463H601.208V713.815H597.82ZM609.909 725.624C608.594 725.624 607.406 725.329 606.344 724.739C605.281 724.132 604.447 723.289 603.84 722.21C603.233 721.114 602.93 719.85 602.93 718.417C602.93 717.001 603.242 715.745 603.865 714.649C604.489 713.554 605.34 712.711 606.419 712.121C607.498 711.531 608.704 711.236 610.035 711.236C611.367 711.236 612.573 711.531 613.652 712.121C614.731 712.711 615.582 713.554 616.206 714.649C616.829 715.745 617.141 717.001 617.141 718.417C617.141 719.833 616.821 721.089 616.18 722.185C615.54 723.281 614.663 724.132 613.55 724.739C612.455 725.329 611.241 725.624 609.909 725.624ZM609.909 723.121C610.651 723.121 611.342 722.944 611.983 722.59C612.64 722.236 613.171 721.705 613.576 720.996C613.98 720.288 614.183 719.429 614.183 718.417C614.183 717.406 613.989 716.554 613.601 715.863C613.213 715.155 612.699 714.624 612.058 714.27C611.418 713.916 610.727 713.739 609.985 713.739C609.243 713.739 608.552 713.916 607.911 714.27C607.288 714.624 606.79 715.155 606.419 715.863C606.049 716.554 605.863 717.406 605.863 718.417C605.863 719.918 606.242 721.081 607.001 721.907C607.776 722.716 608.746 723.121 609.909 723.121ZM639.178 711.463V725.396H636.295V723.753C635.84 724.326 635.242 724.781 634.5 725.118C633.775 725.439 633 725.599 632.174 725.599C631.078 725.599 630.092 725.371 629.215 724.916C628.355 724.461 627.672 723.787 627.167 722.893C626.678 722 626.433 720.921 626.433 719.656V711.463H629.291V719.226C629.291 720.474 629.603 721.435 630.226 722.109C630.85 722.767 631.702 723.095 632.78 723.095C633.859 723.095 634.711 722.767 635.334 722.109C635.975 721.435 636.295 720.474 636.295 719.226V711.463H639.178ZM648.039 725.624C646.943 725.624 645.957 725.43 645.081 725.042C644.221 724.638 643.538 724.098 643.032 723.424C642.527 722.733 642.257 721.966 642.223 721.123H645.207C645.258 721.713 645.536 722.21 646.041 722.615C646.564 723.003 647.213 723.196 647.989 723.196C648.798 723.196 649.422 723.045 649.86 722.741C650.315 722.421 650.543 722.016 650.543 721.528C650.543 721.005 650.29 720.617 649.784 720.364C649.295 720.111 648.511 719.833 647.432 719.53C646.387 719.243 645.536 718.965 644.878 718.695C644.221 718.426 643.648 718.013 643.159 717.456C642.687 716.9 642.451 716.167 642.451 715.256C642.451 714.515 642.67 713.84 643.108 713.233C643.546 712.61 644.17 712.121 644.979 711.767C645.805 711.413 646.75 711.236 647.812 711.236C649.396 711.236 650.669 711.64 651.63 712.449C652.608 713.242 653.13 714.329 653.198 715.711H650.315C650.264 715.088 650.012 714.59 649.556 714.219C649.101 713.849 648.486 713.663 647.71 713.663C646.952 713.663 646.37 713.806 645.966 714.093C645.561 714.38 645.359 714.759 645.359 715.231C645.359 715.602 645.494 715.914 645.763 716.167C646.033 716.419 646.362 716.622 646.75 716.774C647.137 716.908 647.71 717.085 648.469 717.305C649.481 717.574 650.307 717.852 650.947 718.139C651.605 718.409 652.169 718.813 652.641 719.353C653.114 719.892 653.358 720.609 653.375 721.502C653.375 722.295 653.156 723.003 652.717 723.626C652.279 724.25 651.655 724.739 650.846 725.093C650.054 725.447 649.118 725.624 648.039 725.624ZM669.26 718.088C669.26 718.611 669.226 719.083 669.159 719.505H658.513C658.597 720.617 659.01 721.511 659.752 722.185C660.494 722.859 661.404 723.196 662.483 723.196C664.034 723.196 665.13 722.547 665.77 721.249H668.88C668.459 722.531 667.692 723.584 666.579 724.41C665.484 725.219 664.118 725.624 662.483 725.624C661.151 725.624 659.954 725.329 658.892 724.739C657.847 724.132 657.021 723.289 656.414 722.21C655.824 721.114 655.529 719.85 655.529 718.417C655.529 716.984 655.815 715.728 656.389 714.649C656.979 713.554 657.796 712.711 658.841 712.121C659.903 711.531 661.117 711.236 662.483 711.236C663.798 711.236 664.969 711.522 665.998 712.095C667.026 712.669 667.827 713.478 668.4 714.523C668.973 715.551 669.26 716.74 669.26 718.088ZM666.251 717.178C666.234 716.116 665.854 715.265 665.113 714.624C664.371 713.983 663.452 713.663 662.356 713.663C661.362 713.663 660.51 713.983 659.802 714.624C659.094 715.248 658.673 716.099 658.538 717.178H666.251ZM682.029 713.815V721.528C682.029 722.05 682.147 722.429 682.383 722.665C682.636 722.885 683.057 722.994 683.647 722.994H685.417V725.396H683.141C681.843 725.396 680.849 725.093 680.157 724.486C679.466 723.879 679.121 722.893 679.121 721.528V713.815H677.477V711.463H679.121V707.999H682.029V711.463H685.417V713.815H682.029ZM695.281 711.236C696.343 711.236 697.287 711.463 698.113 711.918C698.956 712.374 699.614 713.048 700.086 713.941C700.575 714.835 700.819 715.914 700.819 717.178V725.396H697.962V717.608C697.962 716.36 697.65 715.408 697.026 714.751C696.402 714.076 695.551 713.739 694.472 713.739C693.393 713.739 692.533 714.076 691.893 714.751C691.269 715.408 690.957 716.36 690.957 717.608V725.396H688.074V706.684H690.957V713.082C691.446 712.492 692.061 712.036 692.803 711.716C693.562 711.396 694.388 711.236 695.281 711.236ZM717.266 718.088C717.266 718.611 717.233 719.083 717.165 719.505H706.519C706.603 720.617 707.016 721.511 707.758 722.185C708.5 722.859 709.41 723.196 710.489 723.196C712.04 723.196 713.136 722.547 713.777 721.249H716.887C716.465 722.531 715.698 723.584 714.586 724.41C713.49 725.219 712.124 725.624 710.489 725.624C709.157 725.624 707.96 725.329 706.898 724.739C705.853 724.132 705.027 723.289 704.42 722.21C703.83 721.114 703.535 719.85 703.535 718.417C703.535 716.984 703.822 715.728 704.395 714.649C704.985 713.554 705.803 712.711 706.848 712.121C707.91 711.531 709.124 711.236 710.489 711.236C711.804 711.236 712.976 711.522 714.004 712.095C715.033 712.669 715.833 713.478 716.406 714.523C716.98 715.551 717.266 716.74 717.266 718.088ZM714.257 717.178C714.24 716.116 713.861 715.265 713.119 714.624C712.377 713.983 711.459 713.663 710.363 713.663C709.368 713.663 708.517 713.983 707.809 714.624C707.101 715.248 706.679 716.099 706.544 717.178H714.257ZM736.97 711.236C738.066 711.236 739.043 711.463 739.903 711.918C740.78 712.374 741.463 713.048 741.951 713.941C742.457 714.835 742.71 715.914 742.71 717.178V725.396H739.853V717.608C739.853 716.36 739.541 715.408 738.917 714.751C738.293 714.076 737.442 713.739 736.363 713.739C735.284 713.739 734.424 714.076 733.784 714.751C733.16 715.408 732.848 716.36 732.848 717.608V725.396H729.991V717.608C729.991 716.36 729.679 715.408 729.055 714.751C728.431 714.076 727.58 713.739 726.501 713.739C725.422 713.739 724.562 714.076 723.922 714.751C723.298 715.408 722.986 716.36 722.986 717.608V725.396H720.103V711.463H722.986V713.056C723.458 712.483 724.056 712.036 724.781 711.716C725.506 711.396 726.282 711.236 727.108 711.236C728.22 711.236 729.215 711.472 730.092 711.944C730.968 712.416 731.643 713.098 732.115 713.992C732.536 713.149 733.194 712.483 734.087 711.994C734.981 711.488 735.941 711.236 736.97 711.236ZM759.148 718.088C759.148 718.611 759.115 719.083 759.047 719.505H748.401C748.486 720.617 748.899 721.511 749.64 722.185C750.382 722.859 751.292 723.196 752.371 723.196C753.922 723.196 755.018 722.547 755.659 721.249H758.769C758.348 722.531 757.581 723.584 756.468 724.41C755.372 725.219 754.007 725.624 752.371 725.624C751.04 725.624 749.843 725.329 748.781 724.739C747.735 724.132 746.909 723.289 746.302 722.21C745.712 721.114 745.417 719.85 745.417 718.417C745.417 716.984 745.704 715.728 746.277 714.649C746.867 713.554 747.685 712.711 748.73 712.121C749.792 711.531 751.006 711.236 752.371 711.236C753.686 711.236 754.858 711.522 755.886 712.095C756.915 712.669 757.715 713.478 758.289 714.523C758.862 715.551 759.148 716.74 759.148 718.088ZM756.139 717.178C756.122 716.116 755.743 715.265 755.001 714.624C754.259 713.983 753.341 713.663 752.245 713.663C751.25 713.663 750.399 713.983 749.691 714.624C748.983 715.248 748.561 716.099 748.427 717.178H756.139ZM767.043 725.624C765.947 725.624 764.961 725.43 764.084 725.042C763.224 724.638 762.542 724.098 762.036 723.424C761.53 722.733 761.26 721.966 761.227 721.123H764.211C764.261 721.713 764.539 722.21 765.045 722.615C765.568 723.003 766.217 723.196 766.992 723.196C767.801 723.196 768.425 723.045 768.863 722.741C769.319 722.421 769.546 722.016 769.546 721.528C769.546 721.005 769.293 720.617 768.788 720.364C768.299 720.111 767.515 719.833 766.436 719.53C765.391 719.243 764.539 718.965 763.882 718.695C763.224 718.426 762.651 718.013 762.162 717.456C761.69 716.9 761.454 716.167 761.454 715.256C761.454 714.515 761.673 713.84 762.112 713.233C762.55 712.61 763.174 712.121 763.983 711.767C764.809 711.413 765.753 711.236 766.815 711.236C768.4 711.236 769.673 711.64 770.634 712.449C771.611 713.242 772.134 714.329 772.201 715.711H769.319C769.268 715.088 769.015 714.59 768.56 714.219C768.105 713.849 767.49 713.663 766.714 713.663C765.955 713.663 765.374 713.806 764.969 714.093C764.565 714.38 764.362 714.759 764.362 715.231C764.362 715.602 764.497 715.914 764.767 716.167C765.037 716.419 765.365 716.622 765.753 716.774C766.141 716.908 766.714 717.085 767.473 717.305C768.484 717.574 769.31 717.852 769.951 718.139C770.608 718.409 771.173 718.813 771.645 719.353C772.117 719.892 772.362 720.609 772.378 721.502C772.378 722.295 772.159 723.003 771.721 723.626C771.283 724.25 770.659 724.739 769.85 725.093C769.057 725.447 768.122 725.624 767.043 725.624Z" fill="var(--color-inkInverse)"/>
<path d="M438.078 473.15V493.38C438.078 495.403 438.576 496.96 439.571 498.052C440.567 499.144 442.028 499.69 443.955 499.69C445.881 499.69 447.358 499.144 448.386 498.052C449.413 496.96 449.927 495.403 449.927 493.38V473.15H458.164V493.332C458.164 496.35 457.521 498.903 456.237 500.99C454.953 503.077 453.219 504.651 451.035 505.711C448.884 506.77 446.475 507.3 443.81 507.3C441.145 507.3 438.753 506.786 436.633 505.759C434.546 504.699 432.892 503.126 431.672 501.038C430.452 498.919 429.842 496.35 429.842 493.332V473.15H438.078ZM474.881 507.348C472.537 507.348 470.45 506.947 468.619 506.144C466.789 505.341 465.344 504.25 464.285 502.869C463.225 501.456 462.631 499.882 462.502 498.148H470.642C470.739 499.08 471.172 499.834 471.943 500.412C472.714 500.99 473.661 501.279 474.785 501.279C475.812 501.279 476.599 501.087 477.145 500.701C477.723 500.284 478.012 499.754 478.012 499.112C478.012 498.341 477.611 497.779 476.808 497.426C476.005 497.041 474.705 496.623 472.906 496.174C470.98 495.724 469.374 495.258 468.09 494.777C466.805 494.263 465.697 493.476 464.766 492.417C463.835 491.325 463.369 489.864 463.369 488.034C463.369 486.492 463.787 485.095 464.622 483.843C465.489 482.559 466.741 481.547 468.379 480.809C470.048 480.07 472.023 479.701 474.303 479.701C477.675 479.701 480.324 480.536 482.251 482.205C484.209 483.875 485.333 486.091 485.622 488.852H478.012C477.883 487.921 477.466 487.183 476.76 486.637C476.085 486.091 475.186 485.818 474.062 485.818C473.099 485.818 472.36 486.011 471.847 486.396C471.333 486.749 471.076 487.247 471.076 487.889C471.076 488.66 471.477 489.238 472.28 489.623C473.115 490.008 474.399 490.394 476.133 490.779C478.124 491.293 479.746 491.807 480.998 492.32C482.251 492.802 483.342 493.605 484.274 494.729C485.237 495.82 485.735 497.298 485.767 499.16C485.767 500.733 485.317 502.146 484.418 503.399C483.551 504.619 482.283 505.582 480.613 506.289C478.975 506.995 477.065 507.348 474.881 507.348ZM494.948 477.292C493.503 477.292 492.315 476.875 491.384 476.04C490.485 475.173 490.035 474.113 490.035 472.861C490.035 471.577 490.485 470.517 491.384 469.682C492.315 468.815 493.503 468.382 494.948 468.382C496.361 468.382 497.517 468.815 498.416 469.682C499.347 470.517 499.813 471.577 499.813 472.861C499.813 474.113 499.347 475.173 498.416 476.04C497.517 476.875 496.361 477.292 494.948 477.292ZM499.042 480.086V506.963H490.806V480.086H499.042ZM521.388 479.797C524.534 479.797 527.039 480.825 528.902 482.88C530.796 484.903 531.743 487.696 531.743 491.261V506.963H523.555V492.368C523.555 490.57 523.089 489.173 522.158 488.178C521.227 487.183 519.975 486.685 518.401 486.685C516.828 486.685 515.576 487.183 514.644 488.178C513.713 489.173 513.247 490.57 513.247 492.368V506.963H505.011V480.086H513.247V483.65C514.082 482.462 515.206 481.531 516.619 480.857C518.032 480.15 519.622 479.797 521.388 479.797ZM547.678 479.701C549.573 479.701 551.226 480.086 552.639 480.857C554.084 481.627 555.192 482.639 555.963 483.891V480.086H564.199V506.915C564.199 509.387 563.701 511.619 562.706 513.61C561.743 515.633 560.25 517.238 558.227 518.426C556.236 519.615 553.747 520.209 550.761 520.209C546.779 520.209 543.552 519.261 541.079 517.367C538.607 515.504 537.194 512.968 536.841 509.757H544.981C545.238 510.784 545.848 511.587 546.811 512.165C547.774 512.775 548.963 513.08 550.375 513.08C552.077 513.08 553.426 512.582 554.421 511.587C555.449 510.624 555.963 509.066 555.963 506.915V503.11C555.16 504.362 554.052 505.389 552.639 506.192C551.226 506.963 549.573 507.348 547.678 507.348C545.463 507.348 543.456 506.786 541.657 505.662C539.859 504.506 538.43 502.885 537.371 500.798C536.343 498.678 535.829 496.238 535.829 493.476C535.829 490.715 536.343 488.29 537.371 486.203C538.43 484.116 539.859 482.51 541.657 481.387C543.456 480.263 545.463 479.701 547.678 479.701ZM555.963 493.524C555.963 491.469 555.385 489.848 554.229 488.66C553.105 487.472 551.724 486.878 550.086 486.878C548.449 486.878 547.052 487.472 545.896 488.66C544.772 489.816 544.21 491.421 544.21 493.476C544.21 495.531 544.772 497.169 545.896 498.389C547.052 499.577 548.449 500.171 550.086 500.171C551.724 500.171 553.105 499.577 554.229 498.389C555.385 497.201 555.963 495.58 555.963 493.524ZM610.614 506.963H602.377L588.601 486.107V506.963H580.365V473.15H588.601L602.377 494.102V473.15H610.614V506.963ZM641.919 493.091C641.919 493.862 641.871 494.664 641.775 495.499H623.135C623.263 497.169 623.793 498.454 624.724 499.353C625.687 500.22 626.859 500.653 628.24 500.653C630.295 500.653 631.724 499.786 632.527 498.052H641.293C640.844 499.818 640.025 501.408 638.837 502.821C637.681 504.233 636.22 505.341 634.454 506.144C632.687 506.947 630.713 507.348 628.529 507.348C625.896 507.348 623.552 506.786 621.497 505.662C619.442 504.539 617.836 502.933 616.68 500.846C615.524 498.759 614.946 496.318 614.946 493.524C614.946 490.731 615.508 488.29 616.632 486.203C617.788 484.116 619.394 482.51 621.449 481.387C623.504 480.263 625.864 479.701 628.529 479.701C631.13 479.701 633.442 480.247 635.465 481.338C637.488 482.43 639.062 483.988 640.185 486.011C641.341 488.034 641.919 490.394 641.919 493.091ZM633.49 490.923C633.49 489.511 633.009 488.387 632.045 487.552C631.082 486.717 629.878 486.3 628.433 486.3C627.052 486.3 625.88 486.701 624.917 487.504C623.985 488.306 623.407 489.446 623.183 490.923H633.49ZM684.846 480.086L677.573 506.963H668.469L664.231 489.527L659.847 506.963H650.792L643.471 480.086H651.707L655.512 499.304L660.04 480.086H668.758L673.334 499.208L677.091 480.086H684.846ZM698.921 507.348C696.576 507.348 694.489 506.947 692.659 506.144C690.829 505.341 689.384 504.25 688.324 502.869C687.264 501.456 686.67 499.882 686.542 498.148H694.682C694.778 499.08 695.212 499.834 695.982 500.412C696.753 500.99 697.7 501.279 698.824 501.279C699.852 501.279 700.638 501.087 701.184 500.701C701.762 500.284 702.051 499.754 702.051 499.112C702.051 498.341 701.65 497.779 700.847 497.426C700.044 497.041 698.744 496.623 696.946 496.174C695.019 495.724 693.413 495.258 692.129 494.777C690.845 494.263 689.737 493.476 688.806 492.417C687.874 491.325 687.409 489.864 687.409 488.034C687.409 486.492 687.826 485.095 688.661 483.843C689.528 482.559 690.78 481.547 692.418 480.809C694.088 480.07 696.063 479.701 698.343 479.701C701.714 479.701 704.363 480.536 706.29 482.205C708.249 483.875 709.373 486.091 709.662 488.852H702.051C701.923 487.921 701.505 487.183 700.799 486.637C700.125 486.091 699.226 485.818 698.102 485.818C697.138 485.818 696.4 486.011 695.886 486.396C695.372 486.749 695.115 487.247 695.115 487.889C695.115 488.66 695.517 489.238 696.32 489.623C697.154 490.008 698.439 490.394 700.173 490.779C702.164 491.293 703.785 491.807 705.038 492.32C706.29 492.802 707.382 493.605 708.313 494.729C709.276 495.82 709.774 497.298 709.806 499.16C709.806 500.733 709.357 502.146 708.457 503.399C707.59 504.619 706.322 505.582 704.652 506.289C703.015 506.995 701.104 507.348 698.921 507.348ZM734.449 506.963L723.082 492.031V506.963H714.845V473.15H723.082V487.985L734.352 473.15H744.034L730.933 489.719L744.516 506.963H734.449ZM752.572 477.292C751.127 477.292 749.939 476.875 749.008 476.04C748.109 475.173 747.659 474.113 747.659 472.861C747.659 471.577 748.109 470.517 749.008 469.682C749.939 468.815 751.127 468.382 752.572 468.382C753.985 468.382 755.141 468.815 756.04 469.682C756.971 470.517 757.437 471.577 757.437 472.861C757.437 474.113 756.971 475.173 756.04 476.04C755.141 476.875 753.985 477.292 752.572 477.292ZM756.666 480.086V506.963H748.43V480.086H756.666ZM777.615 499.979V506.963H773.424C770.438 506.963 768.11 506.24 766.44 504.795C764.771 503.318 763.936 500.926 763.936 497.619V486.926H760.66V480.086H763.936V473.535H772.172V480.086H777.567V486.926H772.172V497.715C772.172 498.518 772.365 499.096 772.75 499.449C773.135 499.802 773.778 499.979 774.677 499.979H777.615ZM807.39 499.979V506.963H803.199C800.213 506.963 797.885 506.24 796.215 504.795C794.545 503.318 793.71 500.926 793.71 497.619V486.926H790.435V480.086H793.71V473.535H801.947V480.086H807.341V486.926H801.947V497.715C801.947 498.518 802.14 499.096 802.525 499.449C802.91 499.802 803.552 499.979 804.451 499.979H807.39ZM828.499 479.797C831.581 479.797 834.054 480.825 835.916 482.88C837.779 484.903 838.71 487.696 838.71 491.261V506.963H830.522V492.368C830.522 490.57 830.056 489.173 829.125 488.178C828.193 487.183 826.941 486.685 825.368 486.685C823.794 486.685 822.542 487.183 821.611 488.178C820.68 489.173 820.214 490.57 820.214 492.368V506.963H811.977V471.32H820.214V483.699C821.049 482.51 822.189 481.563 823.634 480.857C825.079 480.15 826.7 479.797 828.499 479.797ZM869.769 493.091C869.769 493.862 869.721 494.664 869.624 495.499H850.984C851.112 497.169 851.642 498.454 852.573 499.353C853.537 500.22 854.709 500.653 856.09 500.653C858.145 500.653 859.574 499.786 860.376 498.052H869.143C868.693 499.818 867.874 501.408 866.686 502.821C865.53 504.233 864.069 505.341 862.303 506.144C860.537 506.947 858.562 507.348 856.379 507.348C853.745 507.348 851.401 506.786 849.346 505.662C847.291 504.539 845.686 502.933 844.53 500.846C843.374 498.759 842.796 496.318 842.796 493.524C842.796 490.731 843.358 488.29 844.481 486.203C845.637 484.116 847.243 482.51 849.298 481.387C851.353 480.263 853.713 479.701 856.379 479.701C858.98 479.701 861.292 480.247 863.315 481.338C865.338 482.43 866.911 483.988 868.035 486.011C869.191 488.034 869.769 490.394 869.769 493.091ZM861.34 490.923C861.34 489.511 860.858 488.387 859.895 487.552C858.931 486.717 857.727 486.3 856.282 486.3C854.901 486.3 853.729 486.701 852.766 487.504C851.835 488.306 851.257 489.446 851.032 490.923H861.34ZM908.408 479.797C911.748 479.797 914.397 480.809 916.356 482.832C918.347 484.855 919.342 487.664 919.342 491.261V506.963H911.154V492.368C911.154 490.634 910.688 489.302 909.757 488.371C908.858 487.407 907.606 486.926 906 486.926C904.395 486.926 903.126 487.407 902.195 488.371C901.296 489.302 900.846 490.634 900.846 492.368V506.963H892.658V492.368C892.658 490.634 892.192 489.302 891.261 488.371C890.362 487.407 889.11 486.926 887.504 486.926C885.899 486.926 884.63 487.407 883.699 488.371C882.8 489.302 882.35 490.634 882.35 492.368V506.963H874.114V480.086H882.35V483.458C883.185 482.334 884.277 481.451 885.626 480.809C886.974 480.134 888.5 479.797 890.202 479.797C892.224 479.797 894.023 480.231 895.596 481.098C897.202 481.965 898.454 483.201 899.353 484.806C900.284 483.329 901.553 482.125 903.158 481.194C904.764 480.263 906.514 479.797 908.408 479.797ZM950.438 493.091C950.438 493.862 950.39 494.664 950.294 495.499H931.653C931.782 497.169 932.311 498.454 933.243 499.353C934.206 500.22 935.378 500.653 936.759 500.653C938.814 500.653 940.243 499.786 941.046 498.052H949.812C949.362 499.818 948.543 501.408 947.355 502.821C946.199 504.233 944.738 505.341 942.972 506.144C941.206 506.947 939.231 507.348 937.048 507.348C934.415 507.348 932.071 506.786 930.015 505.662C927.96 504.539 926.355 502.933 925.199 500.846C924.043 498.759 923.465 496.318 923.465 493.524C923.465 490.731 924.027 488.29 925.151 486.203C926.307 484.116 927.912 482.51 929.967 481.387C932.022 480.263 934.383 479.701 937.048 479.701C939.649 479.701 941.961 480.247 943.984 481.338C946.007 482.43 947.58 483.988 948.704 486.011C949.86 488.034 950.438 490.394 950.438 493.091ZM942.009 490.923C942.009 489.511 941.527 488.387 940.564 487.552C939.601 486.717 938.396 486.3 936.951 486.3C935.571 486.3 934.399 486.701 933.435 487.504C932.504 488.306 931.926 489.446 931.701 490.923H942.009ZM965.717 507.348C963.373 507.348 961.286 506.947 959.455 506.144C957.625 505.341 956.18 504.25 955.12 502.869C954.061 501.456 953.467 499.882 953.338 498.148H961.478C961.575 499.08 962.008 499.834 962.779 500.412C963.549 500.99 964.497 501.279 965.621 501.279C966.648 501.279 967.435 501.087 967.981 500.701C968.559 500.284 968.848 499.754 968.848 499.112C968.848 498.341 968.446 497.779 967.644 497.426C966.841 497.041 965.54 496.623 963.742 496.174C961.815 495.724 960.21 495.258 958.925 494.777C957.641 494.263 956.533 493.476 955.602 492.417C954.671 491.325 954.205 489.864 954.205 488.034C954.205 486.492 954.623 485.095 955.458 483.843C956.325 482.559 957.577 481.547 959.214 480.809C960.884 480.07 962.859 479.701 965.139 479.701C968.511 479.701 971.16 480.536 973.086 482.205C975.045 483.875 976.169 486.091 976.458 488.852H968.848C968.719 487.921 968.302 487.183 967.595 486.637C966.921 486.091 966.022 485.818 964.898 485.818C963.935 485.818 963.196 486.011 962.682 486.396C962.169 486.749 961.912 487.247 961.912 487.889C961.912 488.66 962.313 489.238 963.116 489.623C963.951 490.008 965.235 490.394 966.969 490.779C968.96 491.293 970.582 491.807 971.834 492.32C973.086 492.802 974.178 493.605 975.109 494.729C976.073 495.82 976.57 497.298 976.603 499.16C976.603 500.733 976.153 502.146 975.254 503.399C974.387 504.619 973.119 505.582 971.449 506.289C969.811 506.995 967.9 507.348 965.717 507.348Z" fill="var(--color-illustrationInterface060)"/>
<path d="M427 372.037H545.009V420.203H439C432.373 420.203 427 414.831 427 408.203V372.037Z" fill="var(--color-illustrationInterface070)"/>
<path d="M456.066 392.573C455.611 391.696 454.979 391.039 454.169 390.6C453.36 390.145 452.425 389.917 451.363 389.917C450.199 389.917 449.163 390.179 448.252 390.701C447.342 391.224 446.625 391.966 446.103 392.927C445.597 393.888 445.344 395 445.344 396.265C445.344 397.529 445.597 398.65 446.103 399.628C446.625 400.589 447.342 401.33 448.252 401.853C449.163 402.376 450.199 402.637 451.363 402.637C452.93 402.637 454.203 402.199 455.181 401.322C456.159 400.445 456.757 399.257 456.976 397.757H450.376V395.455H460.061V397.706C459.876 399.071 459.387 400.327 458.595 401.474C457.819 402.62 456.799 403.539 455.535 404.23C454.287 404.904 452.897 405.242 451.363 405.242C449.71 405.242 448.202 404.862 446.836 404.104C445.471 403.328 444.383 402.258 443.574 400.892C442.782 399.527 442.386 397.984 442.386 396.265C442.386 394.545 442.782 393.002 443.574 391.637C444.383 390.271 445.471 389.209 446.836 388.451C448.219 387.675 449.727 387.288 451.363 387.288C453.234 387.288 454.894 387.751 456.344 388.678C457.811 389.589 458.873 390.887 459.53 392.573H456.066ZM475.523 391.157V405.09H472.64V403.446C472.185 404.019 471.587 404.475 470.845 404.812C470.12 405.132 469.345 405.292 468.518 405.292C467.423 405.292 466.436 405.065 465.56 404.609C464.7 404.154 464.017 403.48 463.512 402.586C463.023 401.693 462.778 400.614 462.778 399.35V391.157H465.636V398.92C465.636 400.167 465.948 401.128 466.571 401.802C467.195 402.46 468.046 402.789 469.125 402.789C470.204 402.789 471.056 402.46 471.679 401.802C472.32 401.128 472.64 400.167 472.64 398.92V391.157H475.523ZM480.793 389.311C480.271 389.311 479.832 389.134 479.478 388.78C479.124 388.425 478.947 387.987 478.947 387.465C478.947 386.942 479.124 386.504 479.478 386.15C479.832 385.796 480.271 385.619 480.793 385.619C481.299 385.619 481.729 385.796 482.083 386.15C482.437 386.504 482.614 386.942 482.614 387.465C482.614 387.987 482.437 388.425 482.083 388.78C481.729 389.134 481.299 389.311 480.793 389.311ZM482.209 391.157V405.09H479.327V391.157H482.209ZM485.033 398.06C485.033 396.661 485.32 395.422 485.893 394.343C486.483 393.264 487.275 392.429 488.27 391.839C489.282 391.232 490.403 390.929 491.633 390.929C492.544 390.929 493.437 391.131 494.314 391.536C495.207 391.924 495.915 392.446 496.438 393.104V386.377H499.346V405.09H496.438V402.991C495.966 403.665 495.308 404.222 494.465 404.66C493.639 405.098 492.687 405.317 491.608 405.317C490.394 405.317 489.282 405.014 488.27 404.407C487.275 403.783 486.483 402.924 485.893 401.828C485.32 400.715 485.033 399.459 485.033 398.06ZM496.438 398.111C496.438 397.15 496.236 396.315 495.831 395.607C495.443 394.899 494.929 394.36 494.288 393.989C493.648 393.618 492.957 393.432 492.215 393.432C491.473 393.432 490.782 393.618 490.141 393.989C489.501 394.343 488.978 394.874 488.573 395.582C488.186 396.273 487.992 397.099 487.992 398.06C487.992 399.021 488.186 399.864 488.573 400.589C488.978 401.314 489.501 401.87 490.141 402.258C490.799 402.629 491.49 402.814 492.215 402.814C492.957 402.814 493.648 402.629 494.288 402.258C494.929 401.887 495.443 401.347 495.831 400.639C496.236 399.914 496.438 399.071 496.438 398.111ZM515.902 397.782C515.902 398.304 515.869 398.776 515.801 399.198H505.155C505.24 400.311 505.653 401.204 506.394 401.878C507.136 402.553 508.046 402.89 509.125 402.89C510.676 402.89 511.772 402.241 512.413 400.943H515.523C515.102 402.224 514.335 403.278 513.222 404.104C512.126 404.913 510.761 405.317 509.125 405.317C507.794 405.317 506.597 405.022 505.535 404.432C504.489 403.825 503.663 402.983 503.056 401.904C502.466 400.808 502.171 399.543 502.171 398.111C502.171 396.678 502.458 395.422 503.031 394.343C503.621 393.247 504.439 392.404 505.484 391.814C506.546 391.224 507.76 390.929 509.125 390.929C510.44 390.929 511.612 391.216 512.64 391.789C513.669 392.362 514.469 393.171 515.043 394.216C515.616 395.245 515.902 396.433 515.902 397.782ZM512.893 396.871C512.876 395.809 512.497 394.958 511.755 394.317C511.013 393.677 510.095 393.357 508.999 393.357C508.004 393.357 507.153 393.677 506.445 394.317C505.737 394.941 505.315 395.793 505.181 396.871H512.893ZM523.797 405.317C522.701 405.317 521.715 405.124 520.838 404.736C519.978 404.331 519.296 403.792 518.79 403.117C518.284 402.426 518.014 401.659 517.981 400.816H520.965C521.015 401.406 521.293 401.904 521.799 402.308C522.322 402.696 522.971 402.89 523.746 402.89C524.555 402.89 525.179 402.738 525.617 402.435C526.073 402.114 526.3 401.71 526.3 401.221C526.3 400.698 526.047 400.311 525.542 400.058C525.053 399.805 524.269 399.527 523.19 399.223C522.145 398.937 521.293 398.658 520.636 398.389C519.978 398.119 519.405 397.706 518.916 397.15C518.444 396.593 518.208 395.86 518.208 394.95C518.208 394.208 518.427 393.534 518.866 392.927C519.304 392.303 519.928 391.814 520.737 391.46C521.563 391.106 522.507 390.929 523.569 390.929C525.154 390.929 526.427 391.334 527.388 392.143C528.365 392.935 528.888 394.022 528.955 395.405H526.073C526.022 394.781 525.769 394.284 525.314 393.913C524.859 393.542 524.244 393.357 523.468 393.357C522.709 393.357 522.128 393.5 521.723 393.786C521.319 394.073 521.116 394.452 521.116 394.924C521.116 395.295 521.251 395.607 521.521 395.86C521.791 396.113 522.119 396.315 522.507 396.467C522.895 396.602 523.468 396.779 524.227 396.998C525.238 397.268 526.064 397.546 526.705 397.832C527.362 398.102 527.927 398.507 528.399 399.046C528.871 399.586 529.116 400.302 529.132 401.196C529.132 401.988 528.913 402.696 528.475 403.32C528.037 403.943 527.413 404.432 526.604 404.786C525.811 405.14 524.876 405.317 523.797 405.317Z" fill="var(--color-inkInverse)"/>
<rect x="600.68" y="249.309" width="146.882" height="9.79213" rx="4.89607" fill="var(--color-illustrationInterface030)"/>
<rect x="600.68" y="274.139" width="146.882" height="9.79213" rx="4.89607" fill="var(--color-illustrationInterface030)"/>
<rect x="600.68" y="224.478" width="146.882" height="9.79213" rx="4.89607" fill="var(--color-illustrationInterface030)"/>
<rect x="670.624" y="174.818" width="76.9382" height="9.79213" rx="4.89607" fill="var(--color-illustrationInterface030)"/>
<rect x="670.624" y="199.647" width="76.9382" height="9.79213" rx="4.89607" fill="var(--color-illustrationInterface030)"/>
<rect x="670.624" y="149.988" width="76.9382" height="9.79213" rx="4.89607" fill="var(--color-illustrationInterface030)"/>
<path fill-rule="evenodd" clip-rule="evenodd" d="M615.431 210.724C615.807 210.724 616.14 210.484 616.26 210.129L619.468 200.605C619.588 200.249 619.921 200.009 620.296 200.009H641.551C641.926 200.009 642.26 200.249 642.379 200.605L645.587 210.129C645.707 210.484 646.04 210.724 646.416 210.724H660.095C660.7 210.724 661.123 210.123 660.918 209.554L639.932 151.222C639.682 150.528 639.024 150.065 638.286 150.065H623.733C622.995 150.065 622.337 150.528 622.087 151.222L601.101 209.554C600.896 210.123 601.319 210.724 601.924 210.724H615.431ZM638.117 187.392C638.31 187.959 637.888 188.548 637.289 188.548H624.725C624.127 188.548 623.706 187.961 623.896 187.395L630.142 168.822C630.409 168.029 631.529 168.027 631.799 168.819L638.117 187.392Z" fill="var(--color-illustrationInterface070)"/>
<ellipse cx="674.064" cy="329.052" rx="21.6113" ry="21.8488" fill="var(--color-illustrationInterface030)"/>
<ellipse cx="622.291" cy="329.052" rx="21.6113" ry="21.8488" fill="var(--color-illustrationInterface020)"/>
<path d="M726.09 307.441H872.348C884.293 307.441 893.976 317.124 893.976 329.069C893.976 341.014 884.293 350.698 872.348 350.698H726.09C714.145 350.698 704.462 341.014 704.462 329.069C704.462 317.124 714.145 307.441 726.09 307.441Z" fill="var(--color-illustrationInterface050)" stroke="#8883F6" stroke-width="0.474973"/>
<path fill-rule="evenodd" clip-rule="evenodd" d="M772.621 168.987C772.621 158.494 781.127 149.988 791.62 149.988H875.215C885.708 149.988 894.214 158.494 894.214 168.987V252.582C894.214 263.075 885.708 271.581 875.215 271.581H791.62C781.127 271.581 772.621 263.075 772.621 252.582V168.987ZM874.465 181.054C876.603 183.213 876.586 186.696 874.427 188.834L825.234 237.555C822.589 240.174 818.303 240.09 815.762 237.37L796.659 216.913C794.586 214.692 794.705 211.21 796.926 209.136C799.147 207.062 802.628 207.182 804.702 209.403L820.711 226.546L866.684 181.016C868.843 178.878 872.327 178.895 874.465 181.054Z" fill="var(--color-illustrationInterface070)"/>
</g>
<defs>
<clipPath id="clip0_3523_104054">
<rect width="1490" height="838" fill="white"/>
</clipPath>
</defs>
</svg>
