<svg id="nksvg" style="width: 100%; height: 100%" width="1490" height="838" viewBox="0 0 1490 838" fill="none" xmlns="http://www.w3.org/2000/svg" class="css-0">
  <path style="fill: var(--color-illustrationInterface020)" d="M0 0H1490V838H0V0Z"></path>
  <path style="fill: var(--color-illustrationInterface010)" d="M462 408.825C462 401.742 467.742 396 474.825 396H1019.17C1026.26 396 1032 401.742 1032 408.825V480.175C1032 487.258 1026.26 493 1019.17 493H474.825C467.742 493 462 487.258 462 480.175V408.825Z"></path>
  <path style="fill: var(--color-illustrationInterface060)" fill-rule="evenodd" clip-rule="evenodd" d="M489 474L489 419L491 419L491 474L489 474Z"></path>
  <path style="fill: var(--color-illustrationInterface060)" d="M467.082 370.173H473.4V372.647H464.017V353.961H467.082V370.173Z"></path>
  <path style="fill: var(--color-illustrationInterface060)" d="M474.941 365.172C474.941 363.685 475.246 362.367 475.855 361.22C476.483 360.073 477.325 359.186 478.383 358.558C479.458 357.913 480.641 357.591 481.932 357.591C483.097 357.591 484.109 357.824 484.97 358.29C485.848 358.738 486.547 359.302 487.067 359.983V357.832H490.159V372.647H487.067V370.442C486.547 371.141 485.839 371.723 484.943 372.189C484.047 372.655 483.025 372.888 481.878 372.888C480.605 372.888 479.44 372.566 478.383 371.921C477.325 371.257 476.483 370.343 475.855 369.178C475.246 367.995 474.941 366.66 474.941 365.172ZM487.067 365.226C487.067 364.204 486.852 363.317 486.421 362.564C486.009 361.812 485.463 361.238 484.781 360.844C484.1 360.449 483.365 360.252 482.577 360.252C481.788 360.252 481.053 360.449 480.372 360.844C479.691 361.22 479.135 361.785 478.705 362.537C478.293 363.272 478.087 364.151 478.087 365.172C478.087 366.194 478.293 367.09 478.705 367.861C479.135 368.632 479.691 369.223 480.372 369.635C481.071 370.03 481.806 370.227 482.577 370.227C483.365 370.227 484.1 370.03 484.781 369.635C485.463 369.241 486.009 368.667 486.421 367.915C486.852 367.144 487.067 366.248 487.067 365.226Z"></path>
  <path style="fill: var(--color-illustrationInterface060)" d="M499.561 372.888C498.396 372.888 497.348 372.682 496.416 372.27C495.502 371.84 494.776 371.266 494.238 370.549C493.7 369.815 493.414 368.999 493.378 368.103H496.55C496.604 368.73 496.9 369.259 497.437 369.689C497.993 370.101 498.683 370.307 499.508 370.307C500.368 370.307 501.031 370.146 501.497 369.824C501.981 369.483 502.223 369.053 502.223 368.533C502.223 367.977 501.954 367.565 501.417 367.296C500.897 367.027 500.063 366.732 498.916 366.409C497.805 366.104 496.9 365.809 496.201 365.522C495.502 365.235 494.892 364.796 494.372 364.204C493.871 363.613 493.62 362.833 493.62 361.865C493.62 361.077 493.853 360.36 494.319 359.714C494.785 359.051 495.448 358.532 496.308 358.155C497.186 357.779 498.19 357.591 499.319 357.591C501.004 357.591 502.358 358.021 503.379 358.881C504.419 359.723 504.974 360.88 505.046 362.349H501.981C501.927 361.686 501.658 361.157 501.175 360.763C500.691 360.369 500.036 360.172 499.212 360.172C498.405 360.172 497.787 360.324 497.357 360.629C496.927 360.933 496.712 361.337 496.712 361.838C496.712 362.233 496.855 362.564 497.142 362.833C497.428 363.102 497.778 363.317 498.19 363.478C498.602 363.622 499.212 363.81 500.018 364.043C501.094 364.33 501.972 364.626 502.653 364.93C503.352 365.217 503.953 365.647 504.455 366.221C504.956 366.794 505.216 367.556 505.234 368.506C505.234 369.349 505.001 370.101 504.535 370.765C504.069 371.428 503.406 371.947 502.546 372.324C501.703 372.7 500.709 372.888 499.561 372.888Z"></path>
  <path style="fill: var(--color-illustrationInterface060)" d="M512.122 360.333V368.533C512.122 369.089 512.247 369.492 512.498 369.743C512.767 369.976 513.215 370.092 513.843 370.092H515.725V372.647H513.305C511.925 372.647 510.867 372.324 510.132 371.679C509.397 371.033 509.03 369.985 509.03 368.533V360.333H507.282V357.832H509.03V354.149H512.122V357.832H515.725V360.333H512.122Z"></path>
  <path style="fill: var(--color-illustrationInterface060)" d="M533.008 357.591C534.173 357.591 535.212 357.832 536.126 358.316C537.058 358.8 537.784 359.517 538.304 360.467C538.824 361.417 539.084 362.564 539.084 363.909V372.647H536.046V364.366C536.046 363.039 535.714 362.027 535.051 361.328C534.388 360.611 533.483 360.252 532.336 360.252C531.188 360.252 530.274 360.611 529.593 361.328C528.93 362.027 528.598 363.039 528.598 364.366V372.647H525.533V357.832H528.598V359.526C529.1 358.917 529.737 358.442 530.507 358.101C531.296 357.761 532.129 357.591 533.008 357.591Z"></path>
  <path style="fill: var(--color-illustrationInterface060)" d="M541.972 365.172C541.972 363.685 542.276 362.367 542.886 361.22C543.513 360.073 544.356 359.186 545.413 358.558C546.489 357.913 547.671 357.591 548.962 357.591C550.127 357.591 551.14 357.824 552 358.29C552.878 358.738 553.577 359.302 554.097 359.983V357.832H557.189V372.647H554.097V370.442C553.577 371.141 552.869 371.723 551.973 372.189C551.077 372.655 550.055 372.888 548.908 372.888C547.636 372.888 546.471 372.566 545.413 371.921C544.356 371.257 543.513 370.343 542.886 369.178C542.276 367.995 541.972 366.66 541.972 365.172ZM554.097 365.226C554.097 364.204 553.882 363.317 553.452 362.564C553.04 361.812 552.493 361.238 551.812 360.844C551.131 360.449 550.396 360.252 549.607 360.252C548.819 360.252 548.084 360.449 547.403 360.844C546.722 361.22 546.166 361.785 545.736 362.537C545.323 363.272 545.117 364.151 545.117 365.172C545.117 366.194 545.323 367.09 545.736 367.861C546.166 368.632 546.722 369.223 547.403 369.635C548.102 370.03 548.837 370.227 549.607 370.227C550.396 370.227 551.131 370.03 551.812 369.635C552.493 369.241 553.04 368.667 553.452 367.915C553.882 367.144 554.097 366.248 554.097 365.226Z"></path>
  <path style="fill: var(--color-illustrationInterface060)" d="M579.148 357.591C580.313 357.591 581.352 357.832 582.266 358.316C583.198 358.8 583.924 359.517 584.444 360.467C584.982 361.417 585.251 362.564 585.251 363.909V372.647H582.212V364.366C582.212 363.039 581.881 362.027 581.218 361.328C580.555 360.611 579.649 360.252 578.502 360.252C577.355 360.252 576.441 360.611 575.76 361.328C575.097 362.027 574.765 363.039 574.765 364.366V372.647H571.727V364.366C571.727 363.039 571.395 362.027 570.732 361.328C570.069 360.611 569.164 360.252 568.017 360.252C566.87 360.252 565.956 360.611 565.274 361.328C564.611 362.027 564.28 363.039 564.28 364.366V372.647H561.215V357.832H564.28V359.526C564.782 358.917 565.418 358.442 566.189 358.101C566.959 357.761 567.784 357.591 568.662 357.591C569.845 357.591 570.903 357.841 571.835 358.343C572.767 358.845 573.484 359.571 573.985 360.521C574.434 359.625 575.133 358.917 576.083 358.397C577.032 357.859 578.054 357.591 579.148 357.591Z"></path>
  <path style="fill: var(--color-illustrationInterface060)" d="M602.728 364.877C602.728 365.432 602.692 365.934 602.62 366.382H591.302C591.391 367.565 591.83 368.515 592.619 369.232C593.408 369.949 594.375 370.307 595.523 370.307C597.172 370.307 598.337 369.617 599.018 368.237H602.325C601.877 369.599 601.061 370.72 599.878 371.598C598.713 372.458 597.261 372.888 595.523 372.888C594.107 372.888 592.834 372.575 591.705 371.947C590.594 371.302 589.715 370.406 589.07 369.259C588.443 368.094 588.129 366.75 588.129 365.226C588.129 363.703 588.434 362.367 589.043 361.22C589.67 360.055 590.54 359.159 591.651 358.532C592.78 357.904 594.071 357.591 595.523 357.591C596.921 357.591 598.166 357.895 599.26 358.505C600.353 359.114 601.204 359.974 601.814 361.086C602.423 362.179 602.728 363.443 602.728 364.877ZM599.529 363.909C599.511 362.779 599.107 361.874 598.319 361.193C597.53 360.512 596.553 360.172 595.388 360.172C594.331 360.172 593.425 360.512 592.673 361.193C591.92 361.856 591.472 362.762 591.328 363.909H599.529Z"></path>
  <path style="fill: var(--color-illustrationInterface010)" d="M462 622.825C462 615.742 467.742 610 474.825 610H1019.17C1026.26 610 1032 615.742 1032 622.825V694.175C1032 701.258 1026.26 707 1019.17 707H474.825C467.742 707 462 701.258 462 694.175V622.825Z"></path>
  <path style="fill: var(--color-illustrationInterface060)" d="M476.088 567.606V570.107H471.114V586.292H468.049V570.107H463.048V567.606H476.088Z"></path>
  <path style="fill: var(--color-illustrationInterface060)" d="M492.769 578.522C492.769 579.078 492.733 579.579 492.662 580.028H481.343C481.432 581.211 481.872 582.16 482.66 582.877C483.449 583.594 484.417 583.953 485.564 583.953C487.213 583.953 488.378 583.263 489.059 581.883H492.366C491.918 583.245 491.102 584.365 489.919 585.243C488.754 586.104 487.302 586.534 485.564 586.534C484.148 586.534 482.875 586.22 481.746 585.593C480.635 584.948 479.757 584.051 479.111 582.904C478.484 581.739 478.17 580.395 478.17 578.871C478.17 577.348 478.475 576.013 479.084 574.865C479.712 573.7 480.581 572.804 481.692 572.177C482.822 571.55 484.112 571.236 485.564 571.236C486.962 571.236 488.208 571.541 489.301 572.15C490.394 572.759 491.246 573.62 491.855 574.731C492.465 575.824 492.769 577.088 492.769 578.522ZM489.57 577.554C489.552 576.425 489.149 575.52 488.36 574.839C487.571 574.157 486.594 573.817 485.429 573.817C484.372 573.817 483.467 574.157 482.714 574.839C481.961 575.502 481.513 576.407 481.37 577.554H489.57Z"></path>
  <path style="fill: var(--color-illustrationInterface060)" d="M498.85 566.396V586.292H495.785V566.396H498.85Z"></path>
  <path style="fill: var(--color-illustrationInterface060)" d="M516.452 578.522C516.452 579.078 516.416 579.579 516.344 580.028H505.025C505.115 581.211 505.554 582.16 506.343 582.877C507.131 583.594 508.099 583.953 509.246 583.953C510.895 583.953 512.06 583.263 512.742 581.883H516.048C515.6 583.245 514.785 584.365 513.602 585.243C512.437 586.104 510.985 586.534 509.246 586.534C507.83 586.534 506.558 586.22 505.429 585.593C504.317 584.948 503.439 584.051 502.794 582.904C502.166 581.739 501.853 580.395 501.853 578.871C501.853 577.348 502.158 576.013 502.767 574.865C503.394 573.7 504.264 572.804 505.375 572.177C506.504 571.55 507.795 571.236 509.246 571.236C510.644 571.236 511.89 571.541 512.984 572.15C514.077 572.759 514.928 573.62 515.538 574.731C516.147 575.824 516.452 577.088 516.452 578.522ZM513.252 577.554C513.234 576.425 512.831 575.52 512.043 574.839C511.254 574.157 510.277 573.817 509.112 573.817C508.054 573.817 507.149 574.157 506.397 574.839C505.644 575.502 505.196 576.407 505.052 577.554H513.252Z"></path>
  <path style="fill: var(--color-illustrationInterface060)" d="M522.533 573.656C523.053 572.975 523.761 572.401 524.657 571.935C525.553 571.469 526.566 571.236 527.695 571.236C528.986 571.236 530.16 571.559 531.217 572.204C532.292 572.831 533.135 573.718 533.744 574.865C534.354 576.013 534.658 577.33 534.658 578.818C534.658 580.305 534.354 581.641 533.744 582.824C533.135 583.989 532.292 584.903 531.217 585.566C530.16 586.211 528.986 586.534 527.695 586.534C526.566 586.534 525.562 586.31 524.684 585.862C523.806 585.396 523.089 584.822 522.533 584.141V593.336H519.468V571.478H522.533V573.656ZM531.54 578.818C531.54 577.796 531.325 576.918 530.894 576.183C530.482 575.43 529.927 574.865 529.228 574.489C528.546 574.095 527.812 573.898 527.023 573.898C526.252 573.898 525.517 574.095 524.818 574.489C524.137 574.883 523.582 575.457 523.151 576.21C522.739 576.963 522.533 577.85 522.533 578.871C522.533 579.893 522.739 580.789 523.151 581.56C523.582 582.313 524.137 582.886 524.818 583.281C525.517 583.675 526.252 583.872 527.023 583.872C527.812 583.872 528.546 583.675 529.228 583.281C529.927 582.868 530.482 582.277 530.894 581.506C531.325 580.736 531.54 579.839 531.54 578.818Z"></path>
  <path style="fill: var(--color-illustrationInterface060)" d="M545.352 571.236C546.481 571.236 547.485 571.478 548.363 571.962C549.259 572.446 549.958 573.163 550.46 574.113C550.98 575.063 551.24 576.21 551.24 577.554V586.292H548.202V578.011C548.202 576.685 547.87 575.672 547.207 574.973C546.544 574.256 545.639 573.898 544.491 573.898C543.344 573.898 542.43 574.256 541.749 574.973C541.086 575.672 540.754 576.685 540.754 578.011V586.292H537.689V566.396H540.754V573.199C541.274 572.571 541.928 572.087 542.717 571.747C543.524 571.406 544.402 571.236 545.352 571.236Z"></path>
  <path style="fill: var(--color-illustrationInterface060)" d="M561.575 586.534C560.177 586.534 558.913 586.22 557.784 585.593C556.655 584.948 555.768 584.051 555.122 582.904C554.477 581.739 554.155 580.395 554.155 578.871C554.155 577.366 554.486 576.031 555.149 574.865C555.813 573.7 556.718 572.804 557.865 572.177C559.012 571.55 560.293 571.236 561.709 571.236C563.125 571.236 564.407 571.55 565.554 572.177C566.701 572.804 567.606 573.7 568.27 574.865C568.933 576.031 569.264 577.366 569.264 578.871C569.264 580.377 568.924 581.712 568.243 582.877C567.562 584.042 566.63 584.948 565.447 585.593C564.282 586.22 562.991 586.534 561.575 586.534ZM561.575 583.872C562.364 583.872 563.099 583.684 563.78 583.308C564.479 582.931 565.043 582.367 565.473 581.614C565.904 580.861 566.119 579.947 566.119 578.871C566.119 577.796 565.913 576.891 565.5 576.156C565.088 575.403 564.541 574.839 563.86 574.462C563.179 574.086 562.444 573.898 561.656 573.898C560.867 573.898 560.132 574.086 559.451 574.462C558.788 574.839 558.259 575.403 557.865 576.156C557.47 576.891 557.273 577.796 557.273 578.871C557.273 580.467 557.677 581.703 558.483 582.582C559.308 583.442 560.338 583.872 561.575 583.872Z"></path>
  <path style="fill: var(--color-illustrationInterface060)" d="M579.768 571.236C580.933 571.236 581.973 571.478 582.887 571.962C583.819 572.446 584.545 573.163 585.065 574.113C585.585 575.063 585.845 576.21 585.845 577.554V586.292H582.807V578.011C582.807 576.685 582.475 575.672 581.812 574.973C581.149 574.256 580.243 573.898 579.096 573.898C577.949 573.898 577.035 574.256 576.354 574.973C575.691 575.672 575.359 576.685 575.359 578.011V586.292H572.294V571.478H575.359V573.172C575.861 572.562 576.497 572.087 577.268 571.747C578.057 571.406 578.89 571.236 579.768 571.236Z"></path>
  <path style="fill: var(--color-illustrationInterface060)" d="M603.331 578.522C603.331 579.078 603.296 579.579 603.224 580.028H591.905C591.995 581.211 592.434 582.16 593.222 582.877C594.011 583.594 594.979 583.953 596.126 583.953C597.775 583.953 598.94 583.263 599.621 581.883H602.928C602.48 583.245 601.665 584.365 600.482 585.243C599.317 586.104 597.865 586.534 596.126 586.534C594.71 586.534 593.438 586.22 592.308 585.593C591.197 584.948 590.319 584.051 589.674 582.904C589.046 581.739 588.733 580.395 588.733 578.871C588.733 577.348 589.037 576.013 589.647 574.865C590.274 573.7 591.143 572.804 592.255 572.177C593.384 571.55 594.674 571.236 596.126 571.236C597.524 571.236 598.77 571.541 599.863 572.15C600.957 572.759 601.808 573.62 602.417 574.731C603.027 575.824 603.331 577.088 603.331 578.522ZM600.132 577.554C600.114 576.425 599.711 575.52 598.922 574.839C598.134 574.157 597.157 573.817 595.992 573.817C594.934 573.817 594.029 574.157 593.276 574.839C592.523 575.502 592.075 576.407 591.932 577.554H600.132Z"></path>
  <path style="fill: var(--color-illustrationInterface060)" d="M620.806 571.236C621.971 571.236 623.011 571.478 623.925 571.962C624.857 572.446 625.583 573.163 626.102 574.113C626.622 575.063 626.882 576.21 626.882 577.554V586.292H623.844V578.011C623.844 576.685 623.512 575.672 622.849 574.973C622.186 574.256 621.281 573.898 620.134 573.898C618.987 573.898 618.073 574.256 617.391 574.973C616.728 575.672 616.397 576.685 616.397 578.011V586.292H613.332V571.478H616.397V573.172C616.899 572.562 617.535 572.087 618.306 571.747C619.094 571.406 619.928 571.236 620.806 571.236Z"></path>
  <path style="fill: var(--color-illustrationInterface060)" d="M644.208 571.478V586.292H641.143V584.544C640.659 585.154 640.022 585.638 639.234 585.996C638.463 586.337 637.639 586.507 636.76 586.507C635.595 586.507 634.547 586.265 633.615 585.781C632.701 585.297 631.975 584.58 631.437 583.63C630.917 582.68 630.657 581.533 630.657 580.189V571.478H633.695V579.732C633.695 581.058 634.027 582.08 634.69 582.797C635.353 583.496 636.258 583.845 637.406 583.845C638.553 583.845 639.458 583.496 640.121 582.797C640.802 582.08 641.143 581.058 641.143 579.732V571.478H644.208Z"></path>
  <path style="fill: var(--color-illustrationInterface060)" d="M666.184 571.236C667.349 571.236 668.389 571.478 669.303 571.962C670.235 572.446 670.961 573.163 671.481 574.113C672.019 575.063 672.287 576.21 672.287 577.554V586.292H669.249V578.011C669.249 576.685 668.918 575.672 668.255 574.973C667.591 574.256 666.686 573.898 665.539 573.898C664.392 573.898 663.478 574.256 662.797 574.973C662.134 575.672 661.802 576.685 661.802 578.011V586.292H658.764V578.011C658.764 576.685 658.432 575.672 657.769 574.973C657.106 574.256 656.201 573.898 655.054 573.898C653.907 573.898 652.992 574.256 652.311 574.973C651.648 575.672 651.317 576.685 651.317 578.011V586.292H648.252V571.478H651.317V573.172C651.818 572.562 652.455 572.087 653.225 571.747C653.996 571.406 654.821 571.236 655.699 571.236C656.882 571.236 657.939 571.487 658.871 571.989C659.803 572.491 660.52 573.216 661.022 574.166C661.47 573.27 662.169 572.562 663.119 572.042C664.069 571.505 665.091 571.236 666.184 571.236Z"></path>
  <path style="fill: var(--color-illustrationInterface060)" d="M679.253 573.683C679.772 572.966 680.48 572.383 681.376 571.935C682.291 571.469 683.303 571.236 684.415 571.236C685.723 571.236 686.906 571.55 687.963 572.177C689.021 572.804 689.854 573.7 690.464 574.865C691.073 576.013 691.378 577.33 691.378 578.818C691.378 580.305 691.073 581.641 690.464 582.824C689.854 583.989 689.012 584.903 687.937 585.566C686.879 586.211 685.705 586.534 684.415 586.534C683.267 586.534 682.246 586.31 681.35 585.862C680.471 585.414 679.772 584.84 679.253 584.141V586.292H676.188V566.396H679.253V573.683ZM688.259 578.818C688.259 577.796 688.044 576.918 687.614 576.183C687.202 575.43 686.646 574.865 685.947 574.489C685.266 574.095 684.531 573.898 683.742 573.898C682.972 573.898 682.237 574.095 681.538 574.489C680.857 574.883 680.301 575.457 679.871 576.21C679.459 576.963 679.253 577.85 679.253 578.871C679.253 579.893 679.459 580.789 679.871 581.56C680.301 582.313 680.857 582.886 681.538 583.281C682.237 583.675 682.972 583.872 683.742 583.872C684.531 583.872 685.266 583.675 685.947 583.281C686.646 582.868 687.202 582.277 687.614 581.506C688.044 580.736 688.259 579.839 688.259 578.818Z"></path>
  <path style="fill: var(--color-illustrationInterface060)" d="M707.986 578.522C707.986 579.078 707.95 579.579 707.879 580.028H696.56C696.649 581.211 697.089 582.16 697.877 582.877C698.666 583.594 699.634 583.953 700.781 583.953C702.43 583.953 703.595 583.263 704.276 581.883H707.583C707.135 583.245 706.319 584.365 705.136 585.243C703.971 586.104 702.519 586.534 700.781 586.534C699.365 586.534 698.092 586.22 696.963 585.593C695.852 584.948 694.974 584.051 694.328 582.904C693.701 581.739 693.387 580.395 693.387 578.871C693.387 577.348 693.692 576.013 694.301 574.865C694.929 573.7 695.798 572.804 696.909 572.177C698.038 571.55 699.329 571.236 700.781 571.236C702.179 571.236 703.425 571.541 704.518 572.15C705.611 572.759 706.463 573.62 707.072 574.731C707.681 575.824 707.986 577.088 707.986 578.522ZM704.787 577.554C704.769 576.425 704.366 575.52 703.577 574.839C702.788 574.157 701.811 573.817 700.646 573.817C699.589 573.817 698.684 574.157 697.931 574.839C697.178 575.502 696.73 576.407 696.587 577.554H704.787Z"></path>
  <path style="fill: var(--color-illustrationInterface060)" d="M714.067 573.629C714.515 572.876 715.107 572.293 715.842 571.881C716.595 571.451 717.482 571.236 718.504 571.236V574.408H717.724C716.523 574.408 715.609 574.713 714.982 575.323C714.372 575.932 714.067 576.989 714.067 578.495V586.292H711.002V571.478H714.067V573.629Z"></path>
  <path style="fill: var(--color-illustrationInterface060)" d="M736.362 591.001C734.641 589.316 733.297 587.174 732.329 584.575C731.379 581.976 730.904 579.171 730.904 576.16C730.904 573.077 731.406 570.2 732.409 567.529C733.431 564.841 734.883 562.627 736.765 560.889H739.319V561.131C737.312 563.013 735.797 565.28 734.775 567.933C733.772 570.568 733.27 573.31 733.27 576.16C733.27 578.938 733.745 581.591 734.695 584.118C735.663 586.645 737.07 588.859 738.916 590.759V591.001H736.362Z"></path>
  <path style="fill: var(--color-illustrationInterface060)" d="M750.775 586.188C749.036 586.188 747.45 585.785 746.016 584.978C744.582 584.154 743.444 583.016 742.602 581.564C741.777 580.094 741.365 578.445 741.365 576.617C741.365 574.789 741.777 573.149 742.602 571.697C743.444 570.227 744.582 569.089 746.016 568.282C747.45 567.458 749.036 567.045 750.775 567.045C752.532 567.045 754.127 567.458 755.561 568.282C756.995 569.089 758.124 570.218 758.948 571.67C759.773 573.122 760.185 574.771 760.185 576.617C760.185 578.463 759.773 580.112 758.948 581.564C758.124 583.016 756.995 584.154 755.561 584.978C754.127 585.785 752.532 586.188 750.775 586.188ZM750.775 584.064C752.084 584.064 753.258 583.759 754.297 583.15C755.355 582.541 756.179 581.671 756.771 580.542C757.38 579.413 757.685 578.104 757.685 576.617C757.685 575.111 757.38 573.803 756.771 572.691C756.179 571.562 755.364 570.693 754.324 570.084C753.284 569.474 752.101 569.169 750.775 569.169C749.449 569.169 748.266 569.474 747.226 570.084C746.187 570.693 745.362 571.562 744.753 572.691C744.161 573.803 743.865 575.111 743.865 576.617C743.865 578.104 744.161 579.413 744.753 580.542C745.362 581.671 746.187 582.541 747.226 583.15C748.284 583.759 749.467 584.064 750.775 584.064Z"></path>
  <path style="fill: var(--color-illustrationInterface060)" d="M765.862 573.982C766.345 573.14 767.062 572.441 768.012 571.885C768.98 571.311 770.101 571.025 771.373 571.025C772.682 571.025 773.865 571.338 774.922 571.966C775.997 572.593 776.84 573.48 777.449 574.627C778.059 575.756 778.363 577.074 778.363 578.579C778.363 580.067 778.059 581.394 777.449 582.559C776.84 583.724 775.997 584.629 774.922 585.274C773.865 585.919 772.682 586.242 771.373 586.242C770.118 586.242 769.007 585.964 768.039 585.408C767.089 584.835 766.363 584.127 765.862 583.284V592.99H763.415V571.267H765.862V573.982ZM775.863 578.579C775.863 577.468 775.639 576.5 775.191 575.676C774.743 574.851 774.133 574.224 773.363 573.794C772.61 573.364 771.776 573.149 770.862 573.149C769.966 573.149 769.133 573.373 768.362 573.821C767.609 574.251 767 574.887 766.534 575.73C766.086 576.554 765.862 577.513 765.862 578.606C765.862 579.718 766.086 580.694 766.534 581.537C767 582.361 767.609 582.998 768.362 583.446C769.133 583.876 769.966 584.091 770.862 584.091C771.776 584.091 772.61 583.876 773.363 583.446C774.133 582.998 774.743 582.361 775.191 581.537C775.639 580.694 775.863 579.709 775.863 578.579Z"></path>
  <path style="fill: var(--color-illustrationInterface060)" d="M784.568 573.283V581.967C784.568 582.684 784.72 583.195 785.025 583.5C785.33 583.786 785.859 583.93 786.611 583.93H788.413V586H786.208C784.846 586 783.824 585.686 783.143 585.059C782.462 584.432 782.122 583.401 782.122 581.967V573.283H780.213V571.267H782.122V567.556H784.568V571.267H788.413V573.283H784.568Z"></path>
  <path style="fill: var(--color-illustrationInterface060)" d="M792.641 568.874C792.175 568.874 791.78 568.712 791.458 568.39C791.135 568.067 790.974 567.673 790.974 567.207C790.974 566.741 791.135 566.346 791.458 566.024C791.78 565.701 792.175 565.54 792.641 565.54C793.089 565.54 793.465 565.701 793.77 566.024C794.093 566.346 794.254 566.741 794.254 567.207C794.254 567.673 794.093 568.067 793.77 568.39C793.465 568.712 793.089 568.874 792.641 568.874ZM793.824 571.267V586H791.377V571.267H793.824Z"></path>
  <path style="fill: var(--color-illustrationInterface060)" d="M804.419 586.242C803.039 586.242 801.784 585.928 800.655 585.301C799.544 584.674 798.666 583.786 798.02 582.639C797.393 581.474 797.079 580.13 797.079 578.606C797.079 577.101 797.402 575.774 798.047 574.627C798.71 573.462 799.607 572.575 800.736 571.966C801.865 571.338 803.129 571.025 804.527 571.025C805.925 571.025 807.188 571.338 808.318 571.966C809.447 572.575 810.334 573.453 810.979 574.6C811.643 575.748 811.974 577.083 811.974 578.606C811.974 580.13 811.634 581.474 810.952 582.639C810.289 583.786 809.384 584.674 808.237 585.301C807.09 585.928 805.817 586.242 804.419 586.242ZM804.419 584.091C805.297 584.091 806.122 583.885 806.893 583.473C807.663 583.06 808.282 582.442 808.748 581.618C809.232 580.793 809.474 579.789 809.474 578.606C809.474 577.423 809.241 576.42 808.775 575.595C808.309 574.771 807.699 574.161 806.946 573.767C806.194 573.355 805.378 573.149 804.5 573.149C803.604 573.149 802.779 573.355 802.026 573.767C801.292 574.161 800.7 574.771 800.252 575.595C799.804 576.42 799.58 577.423 799.58 578.606C799.58 579.807 799.795 580.82 800.225 581.644C800.673 582.469 801.265 583.087 801.999 583.5C802.734 583.894 803.541 584.091 804.419 584.091Z"></path>
  <path style="fill: var(--color-illustrationInterface060)" d="M822.369 570.998C824.162 570.998 825.614 571.544 826.725 572.638C827.836 573.713 828.392 575.273 828.392 577.316V586H825.972V577.665C825.972 576.196 825.605 575.075 824.87 574.305C824.135 573.516 823.131 573.122 821.859 573.122C820.568 573.122 819.537 573.525 818.767 574.332C818.014 575.138 817.638 576.312 817.638 577.854V586H815.191V571.267H817.638V573.364C818.121 572.611 818.776 572.028 819.6 571.616C820.443 571.204 821.366 570.998 822.369 570.998Z"></path>
  <path style="fill: var(--color-illustrationInterface060)" d="M831.474 578.579C831.474 577.074 831.779 575.756 832.388 574.627C832.998 573.48 833.831 572.593 834.889 571.966C835.964 571.338 837.156 571.025 838.464 571.025C839.755 571.025 840.875 571.302 841.825 571.858C842.775 572.414 843.483 573.113 843.949 573.955V571.267H846.423V586H843.949V583.258C843.465 584.118 842.739 584.835 841.771 585.408C840.821 585.964 839.71 586.242 838.438 586.242C837.129 586.242 835.946 585.919 834.889 585.274C833.831 584.629 832.998 583.724 832.388 582.559C831.779 581.394 831.474 580.067 831.474 578.579ZM843.949 578.606C843.949 577.495 843.725 576.527 843.277 575.703C842.829 574.878 842.22 574.251 841.449 573.821C840.696 573.373 839.863 573.149 838.948 573.149C838.034 573.149 837.201 573.364 836.448 573.794C835.695 574.224 835.095 574.851 834.647 575.676C834.199 576.5 833.975 577.468 833.975 578.579C833.975 579.709 834.199 580.694 834.647 581.537C835.095 582.361 835.695 582.998 836.448 583.446C837.201 583.876 838.034 584.091 838.948 584.091C839.863 584.091 840.696 583.876 841.449 583.446C842.22 582.998 842.829 582.361 843.277 581.537C843.725 580.694 843.949 579.718 843.949 578.606Z"></path>
  <path style="fill: var(--color-illustrationInterface060)" d="M853.004 566.104V586H850.557V566.104H853.004Z"></path>
  <path style="fill: var(--color-illustrationInterface060)" d="M856.394 591.001V590.759C858.24 588.859 859.638 586.645 860.588 584.118C861.556 581.591 862.04 578.938 862.04 576.16C862.04 573.31 861.529 570.568 860.507 567.933C859.504 565.28 857.998 563.013 855.991 561.131V560.889H858.545C860.427 562.627 861.87 564.841 862.873 567.529C863.895 570.2 864.406 573.077 864.406 576.16C864.406 579.171 863.922 581.976 862.954 584.575C862.004 587.174 860.669 589.316 858.948 591.001H856.394Z"></path>
  <path style="fill: var(--color-illustrationInterface010)" d="M462 194.825C462 187.742 467.742 182 474.825 182H1019.17C1026.26 182 1032 187.742 1032 194.825V267.175C1032 274.258 1026.26 280 1019.17 280H474.825C467.742 280 462 274.258 462 267.175V194.825Z"></path>
  <path style="fill: var(--color-illustrationInterface060)" d="M511.744 220.71V241.973H508.948V226.118L501.88 241.973H499.914L492.816 226.088V241.973H490.02V220.71H493.031L500.897 238.286L508.763 220.71H511.744Z"></path>
  <path style="fill: var(--color-illustrationInterface060)" d="M515.441 233.493C515.441 231.772 515.789 230.266 516.486 228.976C517.182 227.665 518.135 226.651 519.343 225.934C520.572 225.217 521.934 224.858 523.43 224.858C524.905 224.858 526.185 225.176 527.271 225.811C528.356 226.446 529.165 227.245 529.698 228.208V225.135H532.525V241.973H529.698V238.839C529.145 239.822 528.315 240.642 527.209 241.297C526.124 241.932 524.853 242.25 523.399 242.25C521.904 242.25 520.552 241.881 519.343 241.144C518.135 240.406 517.182 239.372 516.486 238.04C515.789 236.709 515.441 235.193 515.441 233.493ZM529.698 233.523C529.698 232.253 529.442 231.147 528.93 230.205C528.418 229.263 527.721 228.546 526.84 228.054C525.98 227.542 525.028 227.286 523.983 227.286C522.938 227.286 521.986 227.532 521.125 228.023C520.265 228.515 519.579 229.232 519.067 230.174C518.555 231.116 518.299 232.223 518.299 233.493C518.299 234.783 518.555 235.91 519.067 236.873C519.579 237.815 520.265 238.542 521.125 239.054C521.986 239.546 522.938 239.792 523.983 239.792C525.028 239.792 525.98 239.546 526.84 239.054C527.721 238.542 528.418 237.815 528.93 236.873C529.442 235.91 529.698 234.793 529.698 233.523Z"></path>
  <path style="fill: var(--color-illustrationInterface060)" d="M540.046 227.87C540.538 226.907 541.234 226.159 542.136 225.627C543.057 225.094 544.174 224.828 545.485 224.828V227.716H544.747C541.613 227.716 540.046 229.416 540.046 232.817V241.973H537.25V225.135H540.046V227.87Z"></path>
  <path style="fill: var(--color-illustrationInterface060)" d="M563.215 225.135L553.076 249.901H550.187L553.506 241.789L546.715 225.135H549.819L555.104 238.778L560.327 225.135H563.215Z"></path>
  <path style="fill: var(--color-illustrationInterface060)" d="M586.877 237.211H577.536L575.816 241.973H572.866L580.609 220.68H583.835L591.548 241.973H588.598L586.877 237.211ZM586.078 234.937L582.207 224.121L578.335 234.937H586.078Z"></path>
  <path style="fill: var(--color-illustrationInterface060)" d="M603.126 224.828C605.175 224.828 606.834 225.453 608.104 226.702C609.374 227.931 610.009 229.713 610.009 232.049V241.973H607.244V232.448C607.244 230.768 606.824 229.488 605.984 228.607C605.144 227.706 603.997 227.255 602.542 227.255C601.068 227.255 599.89 227.716 599.009 228.638C598.149 229.56 597.718 230.901 597.718 232.663V241.973H594.922V225.135H597.718V227.532C598.271 226.671 599.019 226.006 599.961 225.534C600.924 225.063 601.979 224.828 603.126 224.828Z"></path>
  <path style="fill: var(--color-illustrationInterface060)" d="M622.78 224.828C624.829 224.828 626.488 225.453 627.758 226.702C629.028 227.931 629.663 229.713 629.663 232.049V241.973H626.898V232.448C626.898 230.768 626.478 229.488 625.638 228.607C624.798 227.706 623.651 227.255 622.197 227.255C620.722 227.255 619.544 227.716 618.663 228.638C617.803 229.56 617.373 230.901 617.373 232.663V241.973H614.576V225.135H617.373V227.532C617.926 226.671 618.673 226.006 619.616 225.534C620.578 225.063 621.633 224.828 622.78 224.828Z"></path>
  <path style="fill: var(--color-illustrationInterface060)" d="M475.013 140.314V142.815H467.082V148.326H473.265V150.827H467.082V159H464.017V140.314H475.013Z"></path>
  <path style="fill: var(--color-illustrationInterface060)" d="M479.413 142.223C478.857 142.223 478.391 142.035 478.015 141.659C477.638 141.282 477.45 140.816 477.45 140.261C477.45 139.705 477.638 139.239 478.015 138.862C478.391 138.486 478.857 138.298 479.413 138.298C479.95 138.298 480.407 138.486 480.784 138.862C481.16 139.239 481.348 139.705 481.348 140.261C481.348 140.816 481.16 141.282 480.784 141.659C480.407 142.035 479.95 142.223 479.413 142.223ZM480.918 144.186V159H477.853V144.186H480.918Z"></path>
  <path style="fill: var(--color-illustrationInterface060)" d="M488.007 146.337C488.455 145.584 489.047 145.001 489.782 144.589C490.535 144.159 491.422 143.944 492.443 143.944V147.116H491.664C490.463 147.116 489.549 147.421 488.921 148.03C488.312 148.64 488.007 149.697 488.007 151.203V159H484.942V144.186H488.007V146.337Z"></path>
  <path style="fill: var(--color-illustrationInterface060)" d="M500.638 159.242C499.473 159.242 498.424 159.036 497.492 158.623C496.578 158.193 495.852 157.62 495.315 156.903C494.777 156.168 494.49 155.352 494.454 154.456H497.627C497.68 155.083 497.976 155.612 498.514 156.042C499.07 156.455 499.76 156.661 500.584 156.661C501.444 156.661 502.108 156.499 502.574 156.177C503.058 155.836 503.3 155.406 503.3 154.886C503.3 154.331 503.031 153.918 502.493 153.65C501.973 153.381 501.14 153.085 499.993 152.762C498.881 152.458 497.976 152.162 497.277 151.875C496.578 151.588 495.969 151.149 495.449 150.558C494.947 149.966 494.696 149.187 494.696 148.219C494.696 147.43 494.929 146.713 495.395 146.068C495.861 145.405 496.524 144.885 497.385 144.508C498.263 144.132 499.267 143.944 500.396 143.944C502.081 143.944 503.434 144.374 504.456 145.234C505.495 146.077 506.051 147.233 506.123 148.703H503.058C503.004 148.039 502.735 147.511 502.251 147.116C501.767 146.722 501.113 146.525 500.288 146.525C499.482 146.525 498.863 146.677 498.433 146.982C498.003 147.287 497.788 147.69 497.788 148.192C497.788 148.586 497.931 148.918 498.218 149.187C498.505 149.455 498.854 149.671 499.267 149.832C499.679 149.975 500.288 150.163 501.095 150.396C502.17 150.683 503.049 150.979 503.73 151.284C504.429 151.57 505.029 152.001 505.531 152.574C506.033 153.148 506.293 153.909 506.311 154.859C506.311 155.702 506.078 156.455 505.612 157.118C505.146 157.781 504.483 158.301 503.622 158.677C502.78 159.054 501.785 159.242 500.638 159.242Z"></path>
  <path style="fill: var(--color-illustrationInterface060)" d="M513.198 146.686V154.886C513.198 155.442 513.324 155.845 513.575 156.096C513.844 156.329 514.292 156.446 514.919 156.446H516.801V159H514.381C513.001 159 511.944 158.677 511.209 158.032C510.474 157.387 510.106 156.338 510.106 154.886V146.686H508.359V144.186H510.106V140.502H513.198V144.186H516.801V146.686H513.198Z"></path>
  <path style="fill: var(--color-illustrationInterface060)" d="M534.084 143.944C535.249 143.944 536.289 144.186 537.203 144.67C538.135 145.154 538.861 145.871 539.381 146.821C539.9 147.771 540.16 148.918 540.16 150.262V159H537.122V150.719C537.122 149.393 536.791 148.38 536.127 147.681C535.464 146.964 534.559 146.606 533.412 146.606C532.265 146.606 531.351 146.964 530.67 147.681C530.006 148.38 529.675 149.393 529.675 150.719V159H526.61V144.186H529.675V145.88C530.177 145.27 530.813 144.795 531.584 144.455C532.372 144.114 533.206 143.944 534.084 143.944Z"></path>
  <path style="fill: var(--color-illustrationInterface060)" d="M543.048 151.526C543.048 150.038 543.353 148.721 543.962 147.573C544.59 146.426 545.432 145.539 546.49 144.912C547.565 144.266 548.748 143.944 550.038 143.944C551.204 143.944 552.216 144.177 553.077 144.643C553.955 145.091 554.654 145.656 555.174 146.337V144.186H558.266V159H555.174V156.795C554.654 157.494 553.946 158.077 553.05 158.543C552.153 159.009 551.132 159.242 549.985 159.242C548.712 159.242 547.547 158.919 546.49 158.274C545.432 157.611 544.59 156.697 543.962 155.532C543.353 154.349 543.048 153.013 543.048 151.526ZM555.174 151.579C555.174 150.558 554.959 149.671 554.528 148.918C554.116 148.165 553.569 147.591 552.888 147.197C552.207 146.803 551.472 146.606 550.684 146.606C549.895 146.606 549.16 146.803 548.479 147.197C547.798 147.573 547.242 148.138 546.812 148.891C546.4 149.626 546.194 150.504 546.194 151.526C546.194 152.547 546.4 153.443 546.812 154.214C547.242 154.985 547.798 155.576 548.479 155.989C549.178 156.383 549.913 156.58 550.684 156.58C551.472 156.58 552.207 156.383 552.888 155.989C553.569 155.594 554.116 155.021 554.528 154.268C554.959 153.497 555.174 152.601 555.174 151.579Z"></path>
  <path style="fill: var(--color-illustrationInterface060)" d="M580.224 143.944C581.389 143.944 582.429 144.186 583.343 144.67C584.275 145.154 585.001 145.871 585.52 146.821C586.058 147.771 586.327 148.918 586.327 150.262V159H583.289V150.719C583.289 149.393 582.957 148.38 582.294 147.681C581.631 146.964 580.726 146.606 579.579 146.606C578.432 146.606 577.517 146.964 576.836 147.681C576.173 148.38 575.842 149.393 575.842 150.719V159H572.804V150.719C572.804 149.393 572.472 148.38 571.809 147.681C571.146 146.964 570.24 146.606 569.093 146.606C567.946 146.606 567.032 146.964 566.351 147.681C565.688 148.38 565.356 149.393 565.356 150.719V159H562.291V144.186H565.356V145.88C565.858 145.27 566.494 144.795 567.265 144.455C568.036 144.114 568.86 143.944 569.739 143.944C570.922 143.944 571.979 144.195 572.911 144.697C573.843 145.199 574.56 145.924 575.062 146.874C575.51 145.978 576.209 145.27 577.159 144.75C578.109 144.213 579.131 143.944 580.224 143.944Z"></path>
  <path style="fill: var(--color-illustrationInterface060)" d="M603.804 151.23C603.804 151.786 603.769 152.287 603.697 152.735H592.378C592.468 153.918 592.907 154.868 593.695 155.585C594.484 156.302 595.452 156.661 596.599 156.661C598.248 156.661 599.413 155.971 600.094 154.591H603.401C602.953 155.953 602.137 157.073 600.955 157.951C599.789 158.812 598.338 159.242 596.599 159.242C595.183 159.242 593.91 158.928 592.781 158.301C591.67 157.656 590.792 156.759 590.146 155.612C589.519 154.447 589.205 153.103 589.205 151.579C589.205 150.056 589.51 148.721 590.12 147.573C590.747 146.408 591.616 145.512 592.728 144.885C593.857 144.258 595.147 143.944 596.599 143.944C597.997 143.944 599.243 144.249 600.336 144.858C601.43 145.467 602.281 146.328 602.89 147.439C603.5 148.532 603.804 149.796 603.804 151.23ZM600.605 150.262C600.587 149.133 600.184 148.228 599.395 147.547C598.607 146.865 597.63 146.525 596.465 146.525C595.407 146.525 594.502 146.865 593.749 147.547C592.996 148.21 592.548 149.115 592.405 150.262H600.605Z"></path>
</svg>
