<svg id="nksvg" style="width: 100%; height: 100%" width="1490" height="838" viewBox="0 0 1490 838" fill="none" xmlns="http://www.w3.org/2000/svg" class="css-0">
  <path style="fill: var(--color-illustrationInterface020)" d="M0 0H1490V838H0V0Z"></path>
  <path style="fill: var(--color-illustrationInterface010)" d="M460 415C460 403.954 468.954 395 480 395H1010C1021.05 395 1030 403.954 1030 415V496C1030 507.046 1021.05 516 1010 516H480C468.954 516 460 507.046 460 496V415Z"></path>
  <path style="fill: var(--color-illustrationInterface060)" d="M483.232 314.64V319.104H469.072V328.944H480.112V333.408H469.072V348H463.6V314.64H483.232Z"></path>
  <path style="fill: var(--color-illustrationInterface060)" d="M491.087 318.048C490.095 318.048 489.263 317.712 488.591 317.04C487.919 316.368 487.583 315.536 487.583 314.544C487.583 313.552 487.919 312.72 488.591 312.048C489.263 311.376 490.095 311.04 491.087 311.04C492.047 311.04 492.863 311.376 493.535 312.048C494.207 312.72 494.543 313.552 494.543 314.544C494.543 315.536 494.207 316.368 493.535 317.04C492.863 317.712 492.047 318.048 491.087 318.048ZM493.775 321.552V348H488.303V321.552H493.775Z"></path>
  <path style="fill: var(--color-illustrationInterface060)" d="M506.431 325.392C507.231 324.048 508.287 323.008 509.599 322.272C510.943 321.504 512.527 321.12 514.351 321.12V326.784H512.959C510.815 326.784 509.183 327.328 508.063 328.416C506.975 329.504 506.431 331.392 506.431 334.08V348H500.959V321.552H506.431V325.392Z"></path>
  <path style="fill: var(--color-illustrationInterface060)" d="M528.981 348.432C526.901 348.432 525.029 348.064 523.365 347.328C521.733 346.56 520.437 345.536 519.477 344.256C518.517 342.944 518.005 341.488 517.941 339.888H523.605C523.701 341.008 524.229 341.952 525.189 342.72C526.181 343.456 527.413 343.824 528.885 343.824C530.421 343.824 531.605 343.536 532.437 342.96C533.301 342.352 533.733 341.584 533.733 340.656C533.733 339.664 533.253 338.928 532.293 338.448C531.365 337.968 529.877 337.44 527.829 336.864C525.845 336.32 524.229 335.792 522.981 335.28C521.733 334.768 520.645 333.984 519.717 332.928C518.821 331.872 518.373 330.48 518.373 328.752C518.373 327.344 518.789 326.064 519.621 324.912C520.453 323.728 521.637 322.8 523.173 322.128C524.741 321.456 526.533 321.12 528.549 321.12C531.557 321.12 533.973 321.888 535.797 323.424C537.653 324.928 538.645 326.992 538.773 329.616H533.301C533.205 328.432 532.725 327.488 531.861 326.784C530.997 326.08 529.829 325.728 528.357 325.728C526.917 325.728 525.813 326 525.045 326.544C524.277 327.088 523.893 327.808 523.893 328.704C523.893 329.408 524.149 330 524.661 330.48C525.173 330.96 525.797 331.344 526.533 331.632C527.269 331.888 528.357 332.224 529.797 332.64C531.717 333.152 533.285 333.68 534.501 334.224C535.749 334.736 536.821 335.504 537.717 336.528C538.613 337.552 539.077 338.912 539.109 340.608C539.109 342.112 538.693 343.456 537.861 344.64C537.029 345.824 535.845 346.752 534.309 347.424C532.805 348.096 531.029 348.432 528.981 348.432Z"></path>
  <path style="fill: var(--color-illustrationInterface060)" d="M551.406 326.016V340.656C551.406 341.648 551.63 342.368 552.078 342.816C552.558 343.232 553.358 343.44 554.478 343.44H557.838V348H553.518C551.054 348 549.166 347.424 547.854 346.272C546.542 345.12 545.886 343.248 545.886 340.656V326.016H542.766V321.552H545.886V314.976H551.406V321.552H557.838V326.016H551.406Z"></path>
  <path style="fill: var(--color-illustrationInterface060)" d="M588.694 321.12C590.774 321.12 592.63 321.552 594.262 322.416C595.926 323.28 597.222 324.56 598.15 326.256C599.078 327.952 599.542 330 599.542 332.4V348H594.118V333.216C594.118 330.848 593.526 329.04 592.342 327.792C591.158 326.512 589.542 325.872 587.494 325.872C585.446 325.872 583.814 326.512 582.598 327.792C581.414 329.04 580.822 330.848 580.822 333.216V348H575.35V321.552H580.822V324.576C581.718 323.488 582.854 322.64 584.23 322.032C585.638 321.424 587.126 321.12 588.694 321.12Z"></path>
  <path style="fill: var(--color-illustrationInterface060)" d="M604.698 334.656C604.698 332 605.242 329.648 606.33 327.6C607.45 325.552 608.954 323.968 610.842 322.848C612.762 321.696 614.874 321.12 617.178 321.12C619.258 321.12 621.066 321.536 622.602 322.368C624.17 323.168 625.418 324.176 626.346 325.392V321.552H631.866V348H626.346V344.064C625.418 345.312 624.154 346.352 622.554 347.184C620.954 348.016 619.13 348.432 617.082 348.432C614.81 348.432 612.73 347.856 610.842 346.704C608.954 345.52 607.45 343.888 606.33 341.808C605.242 339.696 604.698 337.312 604.698 334.656ZM626.346 334.752C626.346 332.928 625.962 331.344 625.194 330C624.458 328.656 623.482 327.632 622.266 326.928C621.05 326.224 619.738 325.872 618.33 325.872C616.922 325.872 615.61 326.224 614.394 326.928C613.178 327.6 612.186 328.608 611.418 329.952C610.682 331.264 610.314 332.832 610.314 334.656C610.314 336.48 610.682 338.08 611.418 339.456C612.186 340.832 613.178 341.888 614.394 342.624C615.642 343.328 616.954 343.68 618.33 343.68C619.738 343.68 621.05 343.328 622.266 342.624C623.482 341.92 624.458 340.896 625.194 339.552C625.962 338.176 626.346 336.576 626.346 334.752Z"></path>
  <path style="fill: var(--color-illustrationInterface060)" d="M671.069 321.12C673.149 321.12 675.005 321.552 676.637 322.416C678.301 323.28 679.597 324.56 680.525 326.256C681.485 327.952 681.965 330 681.965 332.4V348H676.541V333.216C676.541 330.848 675.949 329.04 674.765 327.792C673.581 326.512 671.965 325.872 669.917 325.872C667.869 325.872 666.237 326.512 665.021 327.792C663.837 329.04 663.245 330.848 663.245 333.216V348H657.821V333.216C657.821 330.848 657.229 329.04 656.045 327.792C654.861 326.512 653.245 325.872 651.197 325.872C649.149 325.872 647.517 326.512 646.301 327.792C645.117 329.04 644.525 330.848 644.525 333.216V348H639.053V321.552H644.525V324.576C645.421 323.488 646.557 322.64 647.933 322.032C649.309 321.424 650.781 321.12 652.349 321.12C654.461 321.12 656.349 321.568 658.013 322.464C659.677 323.36 660.957 324.656 661.853 326.352C662.653 324.752 663.901 323.488 665.597 322.56C667.293 321.6 669.117 321.12 671.069 321.12Z"></path>
  <path style="fill: var(--color-illustrationInterface060)" d="M713.168 334.128C713.168 335.12 713.104 336.016 712.976 336.816H692.768C692.928 338.928 693.712 340.624 695.12 341.904C696.528 343.184 698.256 343.824 700.304 343.824C703.248 343.824 705.328 342.592 706.544 340.128H712.448C711.648 342.56 710.192 344.56 708.08 346.128C706 347.664 703.408 348.432 700.304 348.432C697.776 348.432 695.504 347.872 693.488 346.752C691.504 345.6 689.936 344 688.784 341.952C687.664 339.872 687.104 337.472 687.104 334.752C687.104 332.032 687.648 329.648 688.736 327.6C689.856 325.52 691.408 323.92 693.392 322.8C695.408 321.68 697.712 321.12 700.304 321.12C702.8 321.12 705.024 321.664 706.976 322.752C708.928 323.84 710.448 325.376 711.536 327.36C712.624 329.312 713.168 331.568 713.168 334.128ZM707.456 332.4C707.424 330.384 706.704 328.768 705.296 327.552C703.888 326.336 702.144 325.728 700.064 325.728C698.176 325.728 696.56 326.336 695.216 327.552C693.872 328.736 693.072 330.352 692.816 332.4H707.456Z"></path>
</svg>
