<svg id="nksvg" width="1490" height="838" viewBox="0 0 1490 838" fill="none" xmlns="http://www.w3.org/2000/svg">
<g clip-path="url(#clip0_2789_77606)">
<rect width="1490" height="838" fill="var(--color-illustrationBackground020)"/>
<path d="M848 649C848 653.418 801.661 657 744.5 657C687.339 657 641 653.418 641 649C641 644.582 687.339 641 744.5 641C801.661 641 848 644.582 848 649Z" fill="var(--color-illustrationSubtle010)"/>
<path d="M782.745 643.705C904.907 622.589 986.821 506.439 965.705 384.276C944.589 262.114 828.439 180.201 706.276 201.317C584.114 222.433 502.201 338.583 523.317 460.745C544.433 582.907 660.583 664.821 782.745 643.705Z" fill="#3358CC"/>
<path d="M968.617 409.312C968.118 401.014 967.154 392.659 965.705 384.276C944.589 262.114 828.439 180.201 706.276 201.317C617.642 216.638 550.195 281.986 527.915 363.361C531.873 423.348 559.299 473.44 597.82 500.988C618.42 515.719 643.139 513.955 672.776 511.839C704.34 509.586 741.484 506.935 785.176 523.388C860.984 551.936 943.261 477.064 968.617 409.312Z" fill="#446BE4"/>
<path d="M893.585 254.674C889.378 287.12 881.422 319.808 860.5 337.574C830.572 362.986 793.993 361.174 750.76 357.264C736.127 355.94 720.178 358.186 704.617 360.378C677.388 364.212 651.343 367.88 635.596 351.968C634.577 350.938 598.46 309.062 585.372 264.171C617.056 232.273 658.601 209.558 706.276 201.317C776.267 189.219 844.283 210.94 893.585 254.674Z" fill="#577FFB"/>
<path fill-rule="evenodd" clip-rule="evenodd" d="M744.992 337.798C760.701 337.798 773.437 325.082 773.437 309.398C773.437 293.713 760.701 281 744.992 281C729.283 281 716.547 293.713 716.547 309.398C716.547 325.082 729.283 337.798 744.992 337.798ZM617.419 348.555C619.324 340.946 627.048 336.32 634.667 338.222C662.1 345.071 712.137 351.998 744.996 351.998C777.856 351.998 827.891 345.071 855.326 338.222C862.947 336.32 870.669 340.946 872.571 348.555C874.478 356.162 869.845 363.872 862.223 365.773C843.302 370.497 814.926 375.187 787.667 377.937V422.999C787.667 455.805 794.605 519.968 801.464 547.353C803.369 554.96 798.736 562.669 791.117 564.573C783.495 566.473 775.774 561.849 773.869 554.24C768.928 534.512 764.026 498.1 761.334 465.597H728.672C725.979 498.103 721.074 534.517 716.134 554.24C714.229 561.849 706.508 566.473 698.889 564.573C691.267 562.669 686.634 554.96 688.539 547.353C695.31 520.312 702.161 457.432 702.334 424.271V377.937C675.072 375.187 646.697 370.496 627.778 365.773C620.156 363.872 615.523 356.162 617.428 348.555H617.419Z" fill="#ECF1FF"/>
</g>
<defs>
<clipPath id="clip0_2789_77606">
<rect width="1490" height="838" fill="white"/>
</clipPath>
</defs>
</svg>
