<svg id="about-introduction-hero-stepping-stones-illustration" style="width: 100%; height: 100%" width="1344" height="759" viewBox="0 0 1344 759" fill="none" xmlns="http://www.w3.org/2000/svg" class="css-0"><rect style="fill:var(--color-illustrationBackground020)" width="1344" height="759"></rect><path style="fill:var(--color-illustrationShadow010)" d="M337.724 611.605L362.636 608.524C369.793 607.639 370.084 596.937 363.025 595.464C292.67 580.783 222.922 554.568 260.56 490.987L801.129 482.768C847.384 554.676 750.395 582.237 678.822 595.306C671.925 596.566 672.351 606.554 679.341 607.102L704.603 609.083C709.359 609.456 709.376 616.42 704.622 616.816L620.253 623.843C614.41 624.33 614.066 632.756 619.851 633.717C625.581 634.668 625.297 642.593 619.505 643.039C594.245 644.982 560.33 647.068 531.832 646.998C502.145 646.926 462.77 644.467 435.266 642.444C430.067 642.062 429.728 634.828 434.857 633.896C440.071 632.948 439.602 625.326 434.311 625.025L337.986 619.542C333.136 619.266 332.903 612.201 337.724 611.605Z"></path><path style="fill:var(--color-illustrationShadow010)" d="M897.465 429.587L915.414 427.366C920.574 426.727 920.784 419.011 915.694 417.948C865.007 407.363 814.757 388.46 841.873 342.614L1231.33 336.688C1264.65 388.538 1194.78 408.411 1143.21 417.835C1138.24 418.744 1138.55 425.944 1143.58 426.34L1161.78 427.769C1165.21 428.038 1165.23 433.059 1161.8 433.344L1101.01 438.412C1096.8 438.763 1096.55 444.838 1100.72 445.531C1104.86 446.218 1104.65 451.931 1100.48 452.253C1082.28 453.654 1057.84 455.158 1037.31 455.108C1015.92 455.055 987.556 453.282 967.741 451.824C963.992 451.548 963.748 446.333 967.446 445.66C971.205 444.976 970.866 439.481 967.052 439.264L897.655 435.31C894.158 435.111 893.989 430.017 897.465 429.587Z"></path><path style="fill:var(--color-illustrationShadow010)" d="M802.06 210.972L810.923 209.887C813.45 209.577 813.552 205.796 811.058 205.28C786.025 200.103 761.209 190.859 774.601 168.439L966.951 165.541C983.409 190.897 948.901 200.616 923.433 205.225C920.998 205.666 921.147 209.193 923.615 209.385L932.604 210.083C934.282 210.214 934.288 212.672 932.61 212.81L902.587 215.289C900.525 215.459 900.405 218.434 902.447 218.77C904.47 219.103 904.37 221.901 902.326 222.057C893.338 222.742 881.269 223.478 871.127 223.454C860.563 223.428 846.551 222.561 836.764 221.847C834.929 221.714 834.81 219.16 836.621 218.833C838.462 218.502 838.298 215.811 836.43 215.705L802.152 213.772C800.44 213.675 800.359 211.181 802.06 210.972Z"></path><path style="fill:var(--color-illustrationShadow010)" d="M1077.68 149.87L1083.87 149.108C1085.64 148.89 1085.71 146.24 1083.96 145.877C1066.48 142.246 1049.15 135.761 1058.51 120.033L1192.82 118C1204.31 135.788 1180.21 142.605 1162.43 145.838C1160.72 146.149 1160.83 148.621 1162.56 148.756L1168.84 149.246C1170.01 149.338 1170.02 151.062 1168.84 151.159L1147.88 152.898C1146.43 153.018 1146.35 155.103 1147.78 155.34C1149.2 155.574 1149.13 157.536 1147.69 157.646C1141.42 158.127 1132.99 158.643 1125.91 158.625C1118.53 158.607 1108.75 157.999 1101.91 157.499C1100.63 157.405 1100.54 155.614 1101.81 155.384C1103.1 155.151 1102.99 153.264 1101.68 153.19L1077.74 151.834C1076.54 151.765 1076.49 150.017 1077.68 149.87Z"></path><path d="M813.023 483.002C813.023 548.983 686.986 581.263 531.511 581.263C376.037 581.263 250 548.983 250 483.002C250 417.022 376.037 363.535 531.511 363.535C686.986 363.535 813.023 417.022 813.023 483.002Z" fill="#8BA6F6"></path><path d="M260.059 513.195C253.502 504.063 250 494.001 250 483.002C250 417.022 376.037 363.535 531.511 363.535C661.763 363.535 771.353 401.075 803.484 452.051C796.593 522.982 662.672 556.195 499.556 554.317C401.036 553.183 314.011 539.503 260.059 513.195Z" fill="#AEBFFF"></path><path style="fill:var(--color-illustrationPalette010)" opacity="0.45" d="M535.949 465.474C629.463 465.474 705.272 449.336 705.272 416.35C705.272 401.719 690.357 388.316 665.597 377.931C625.732 368.749 580.057 363.535 531.512 363.535C490.762 363.535 452.034 367.209 417.068 373.82C385.928 384.651 366.626 399.705 366.626 416.35C366.626 449.336 442.434 465.474 535.949 465.474Z"></path><path d="M1236.96 348.669C1236.96 390.556 1146.95 411.049 1035.91 411.049C924.87 411.049 834.856 390.556 834.856 348.669C834.856 306.782 924.87 272.826 1035.91 272.826C1146.95 272.826 1236.96 306.782 1236.96 348.669Z" fill="#3358CC"></path><path d="M845.554 324.194C872.541 294.317 947.571 272.826 1035.91 272.826C1140.91 272.826 1227.11 303.192 1236.17 341.915C1205.37 367.056 1132.58 379.421 1047.69 379.421C944.798 379.421 859.682 361.255 845.554 324.194Z" fill="#446BE4"></path><path d="M955.242 279.177C979.934 275.093 1007.22 272.826 1035.91 272.826C1083.01 272.826 1126.34 278.938 1160.61 289.174C1160.39 309.476 1113.66 319.409 1056.05 319.409C998.296 319.409 951.481 309.429 951.481 289.029C951.481 285.617 952.791 282.314 955.242 279.177Z" fill="#577FFB"></path><path d="M971.351 171.491C971.351 192.342 926.545 202.542 871.274 202.542C816.003 202.542 771.197 192.342 771.197 171.491C771.197 150.641 816.003 133.739 871.274 133.739C926.545 133.739 971.351 150.641 971.351 171.491Z" fill="#3358CC"></path><path d="M856.236 184.375C906.691 184.375 947.592 174.563 947.592 154.506C947.592 151.573 946.717 148.721 945.066 145.989C926.771 138.46 900.484 133.739 871.274 133.739C819.665 133.739 777.181 148.476 771.777 167.403C785.483 178.78 818.136 184.375 856.236 184.375Z" fill="#446BE4"></path><path d="M857.731 155.521C880.384 155.521 898.748 151.651 898.748 143.742C898.748 140.125 894.909 136.822 888.577 134.301C882.956 133.932 877.175 133.739 871.274 133.739C851.971 133.739 833.946 135.801 818.659 139.372C817.396 140.749 816.714 142.218 816.714 143.742C816.714 151.651 835.078 155.521 857.731 155.521Z" fill="#577FFB"></path><path d="M1195.96 120.395C1195.96 134.973 1164.64 142.105 1125.99 142.105C1087.35 142.105 1056.02 134.973 1056.02 120.395C1056.02 105.818 1087.35 94 1125.99 94C1164.64 94 1195.96 105.818 1195.96 120.395Z" fill="#3358CC"></path><path d="M1112.36 131.149C1147.47 134.603 1179.65 129.32 1181.02 115.364C1181.52 110.26 1178.18 105.134 1172.03 100.517C1159.72 96.4589 1143.62 94 1125.99 94C1093.58 94 1066.32 102.312 1058.37 113.594C1066.93 122.242 1086.93 128.646 1112.36 131.149Z" fill="#446BE4"></path><path d="M1130.24 94.0479C1135.8 94.1736 1141.19 94.5442 1146.32 95.1314C1155.49 96.8026 1161.75 100.153 1161.75 104.013C1161.75 109.544 1148.91 112.249 1133.07 112.249C1117.23 112.249 1104.39 109.544 1104.39 104.013C1104.39 98.8159 1115.73 94.5432 1130.24 94.0479Z" fill="#577FFB"></path></svg>