<svg
  id="nksvg"
  style="width: 100%; height: 100%"
  width="1344"
  height="759"
  viewBox="0 0 1344 759"
  fill="none"
  xmlns="http://www.w3.org/2000/svg"
  class="css-0"
>
  <rect
    style="fill: var(--color-illustrationPalette080)"
    width="1344"
    height="759"
  ></rect>
  <path
    style="fill: var(--color-illustrationPalette050)"
    d="M735.925 0L0 0V363.734C70.3103 576.258 185.739 635.406 196.381 640.86C196.756 641.051 197 641.177 197.109 641.24C198.309 641.94 199.515 642.644 200.726 643.35C306.777 705.224 451.357 789.576 604.94 728.294C760.277 666.312 871.605 417.443 873.646 411.908C899.347 342.199 856.479 261.872 811.661 177.893C786.048 129.898 759.798 80.7108 745.347 31.6313C742.204 20.9531 739.072 10.4055 735.925 0Z"
  ></path>
  <path
    style="fill: var(--color-illustrationPalette020)"
    d="M0 738.912C56.1241 740.086 112.364 735.866 160.165 726.221C223.134 713.515 269.969 688.313 304.069 648.173C338.286 607.895 360.344 551.802 372.192 476.119C377.987 439.106 374.344 409.933 365.561 384.98C356.732 359.896 342.574 338.669 326.657 317.615C322.351 311.92 317.902 306.229 313.406 300.479C284.998 264.144 254.714 225.408 246.69 167.731C237.211 99.5898 225.042 44.5471 202.835 0H211.743C233.445 45.1127 245.352 100.05 254.614 166.628C262.32 222.022 291.166 258.972 319.568 295.352C357.031 343.338 393.72 390.333 380.096 477.356C356.143 630.354 290.351 708.113 161.748 734.063C113.346 743.829 56.5794 748.086 0 746.914V738.912Z"
  ></path>
  <path
    style="fill: var(--color-white)"
    d="M1223 252.948V678.103H1094.89L1094.89 356.593L1032.47 356.594V252.948H1223ZM817.239 245.104C881.986 245.104 929.614 264.624 959.167 303.693C988.119 341.967 1002.48 393.929 1002.48 459.474C1002.48 525.765 988.122 578.098 959.167 616.377C929.614 655.445 881.986 674.966 817.239 674.966C752.491 674.966 704.863 655.445 675.311 616.377C646.355 578.098 632 525.765 632 459.474C632 393.929 646.359 341.967 675.311 303.693C704.863 264.624 752.491 245.104 817.239 245.104ZM1207.12 267.066H1048.35V342.474L1110.77 342.475L1110.77 663.983H1207.12V267.066ZM817.239 259.223C757.477 259.223 714.877 276.682 688.485 311.573C661.491 347.259 647.878 396.525 647.878 459.474C647.878 523.173 661.495 572.815 688.485 608.496C714.877 643.387 757.477 660.846 817.239 660.846C877.001 660.846 919.6 643.387 945.993 608.496C972.983 572.815 986.6 523.173 986.6 459.474C986.6 396.525 972.986 347.259 945.993 311.573C919.6 276.682 877.001 259.223 817.239 259.223ZM817.239 336.096C849.404 336.096 871.582 347.889 882.138 371.104C887.136 382.097 890.825 395.354 893.23 410.893L893.619 413.504C893.87 415.259 894.106 417.042 894.326 418.853L894.643 421.591C894.694 422.051 894.744 422.513 894.793 422.976L895.075 425.777C895.391 429.07 895.658 432.45 895.877 435.916L896.053 438.908C896.244 442.424 896.388 446.026 896.484 449.715L896.554 452.898L896.601 456.124C896.618 457.747 896.627 459.387 896.627 461.042L896.624 462.758L896.604 466.151C896.589 467.834 896.566 469.498 896.535 471.143L896.464 474.406L896.372 477.617L896.26 480.777C896.158 483.388 896.034 485.945 895.89 488.449L895.706 491.427L895.501 494.354C895.465 494.837 895.429 495.318 895.391 495.798L895.156 498.647C895.115 499.117 895.073 499.585 895.031 500.052L894.765 502.823C894.673 503.738 894.577 504.645 894.478 505.543L894.171 508.211C893.43 514.377 892.521 520.122 891.443 525.447C887.823 543.322 880.364 557.993 869.003 569.314C857.043 581.233 839.59 587.111 817.239 587.111C794.888 587.111 777.435 581.233 765.474 569.314C754.113 557.993 746.654 543.322 743.035 525.447C741.957 520.122 741.047 514.377 740.307 508.211L739.999 505.543C739.9 504.645 739.805 503.738 739.713 502.823L739.447 500.052C739.404 499.585 739.362 499.117 739.321 498.647L739.086 495.798C739.049 495.318 739.012 494.837 738.976 494.354L738.772 491.427L738.588 488.449C738.443 485.945 738.32 483.388 738.218 480.777L738.106 477.617L738.014 474.406L737.942 471.143C737.912 469.498 737.889 467.834 737.874 466.151L737.853 462.758C737.851 462.188 737.851 461.616 737.851 461.042C737.851 458.283 737.875 455.568 737.924 452.898L737.994 449.715C738.213 441.283 738.681 433.304 739.402 425.777L739.684 422.976C739.733 422.513 739.783 422.051 739.834 421.591L740.152 418.853C742.459 399.836 746.509 383.929 752.34 371.104C762.896 347.889 785.073 336.096 817.239 336.096ZM817.239 350.216C791.233 350.216 775.052 358.82 767.06 376.397C762.141 387.215 758.565 400.777 756.362 417.062L756.034 419.588L755.728 422.158C755.433 424.749 755.17 427.405 754.939 430.125L754.72 432.866L754.523 435.65C754.491 436.118 754.461 436.587 754.432 437.058L754.267 439.906C754.242 440.385 754.217 440.865 754.193 441.347L754.061 444.259C754.021 445.237 753.984 446.222 753.951 447.214L753.863 450.213C753.799 452.729 753.758 455.289 753.739 457.895L753.728 461.042L753.731 462.706L753.75 465.995C753.755 466.539 753.761 467.081 753.768 467.62L753.816 470.831C753.826 471.362 753.837 471.89 753.848 472.417L753.927 475.549L754.024 478.629L754.142 481.656L754.279 484.631L754.435 487.553L754.611 490.423C754.642 490.897 754.673 491.369 754.706 491.838L754.911 494.629L755.135 497.368C755.174 497.82 755.214 498.27 755.255 498.718L755.508 501.377C755.552 501.816 755.597 502.253 755.642 502.687L755.925 505.268C756.656 511.654 757.568 517.547 758.661 522.944C761.786 538.376 768.027 550.651 777.321 559.913C786.015 568.577 799.123 572.991 817.239 572.991C835.355 572.991 848.463 568.577 857.157 559.913C866.451 550.651 872.692 538.376 875.817 522.944C876.909 517.547 877.822 511.654 878.553 505.268L878.835 502.687C878.881 502.253 878.925 501.816 878.969 501.377L879.223 498.718L879.457 496.005C879.494 495.549 879.531 495.09 879.567 494.629L879.772 491.838C879.837 490.899 879.899 489.951 879.957 488.995L880.123 486.098C880.149 485.611 880.175 485.122 880.199 484.631L880.336 481.656L880.453 478.629L880.551 475.549L880.629 472.417C880.641 471.89 880.651 471.362 880.661 470.831L880.71 467.62L880.739 464.357C880.746 463.261 880.749 462.156 880.749 461.042L880.738 457.895C880.72 455.289 880.679 452.729 880.614 450.213L880.526 447.214C880.493 446.222 880.457 445.237 880.416 444.259L880.284 441.347L880.131 438.477C880.076 437.527 880.017 436.585 879.955 435.65L879.758 432.866L879.538 430.125C879.308 427.405 879.045 424.749 878.75 422.158L878.443 419.588L878.115 417.062C875.913 400.777 872.336 387.215 867.418 376.397C859.426 358.82 843.244 350.216 817.239 350.216Z"
  ></path>
</svg>
