<svg
  id="nksvg"
  style="width: 100%; height: 100%"
  width="1600"
  height="900"
  viewBox="0 0 1600 900"
  fill="none"
  xmlns="http://www.w3.org/2000/svg"
  class="css-0"
>
  <rect
    style="fill: var(--color-illustrationBackground010)"
    width="1600"
    height="900"
    rx="8"
  ></rect>
  <path
    style="fill: var(--color-illustrationInterface020)"
    d="M222 348.442C222 341.018 229.597 335 238.968 335H1339.03C1348.4 335 1356 341.018 1356 348.442V554.558C1356 561.982 1348.4 568 1339.03 568H238.968C229.597 568 222 561.982 222 554.558V348.442Z"
  ></path>
  <path
    style="fill: var(--color-illustrationAnatomyBorder010)"
    fill-rule="evenodd"
    clip-rule="evenodd"
    d="M238.968 336.4C230.048 336.4 223.4 342.078 223.4 348.442V554.558C223.4 560.922 230.048 566.6 238.968 566.6H1339.03C1347.95 566.6 1354.6 560.922 1354.6 554.558V348.442C1354.6 342.078 1347.95 336.4 1339.03 336.4H238.968ZM238.968 335C229.597 335 222 341.018 222 348.442V554.558C222 561.982 229.597 568 238.968 568H1339.03C1348.4 568 1356 561.982 1356 554.558V348.442C1356 341.018 1348.4 335 1339.03 335H238.968Z"
  ></path>
  <path
    style="fill: var(--color-illustrationAnatomySubtle)"
    fill-rule="evenodd"
    clip-rule="evenodd"
    d="M369 409C369 401.268 375.268 395 383 395H835C842.732 395 849 401.268 849 409C849 416.732 842.732 423 835 423H383C375.268 423 369 416.732 369 409ZM369 455.5C369 450.253 373.253 446 378.5 446H1028.5C1033.75 446 1038 450.253 1038 455.5C1038 460.747 1033.75 465 1028.5 465H378.5C373.253 465 369 460.747 369 455.5ZM378.5 488C373.253 488 369 492.253 369 497.5C369 502.747 373.253 507 378.5 507H1028.5C1033.75 507 1038 502.747 1038 497.5C1038 492.253 1033.75 488 1028.5 488H378.5Z"
  ></path>
  <rect
    style="fill: var(--color-illustrationAnatomySubtle)"
    x="1092"
    y="408"
    width="214"
    height="84"
    rx="42"
  ></rect>
  <path
    style="fill: var(--color-illustrationAnatomySubtle)"
    d="M328 406C328 424.225 313.225 439 295 439C276.775 439 262 424.225 262 406C262 387.775 276.775 373 295 373C313.225 373 328 387.775 328 406Z"
  ></path>
  <path
    style="fill: var(--color-illustrationInterface020)"
    fill-rule="evenodd"
    clip-rule="evenodd"
    d="M295 438C312.673 438 327 423.673 327 406C327 388.327 312.673 374 295 374C277.327 374 263 388.327 263 406C263 423.673 277.327 438 295 438ZM295 439C313.225 439 328 424.225 328 406C328 387.775 313.225 373 295 373C276.775 373 262 387.775 262 406C262 424.225 276.775 439 295 439Z"
  ></path>
  <path
    style="fill: var(--color-illustrationPalette040)"
    d="M569 407C569 410.314 566.314 413 563 413C559.686 413 557 410.314 557 407C557 403.686 559.686 401 563 401C566.314 401 569 403.686 569 407Z"
  ></path>
  <rect
    style="fill: var(--color-illustrationPalette040)"
    x="544"
    y="189"
    width="38.5134"
    height="38.5134"
    rx="19.2567"
  ></rect>
  <path
    style="fill: var(--color-white)"
    d="M559.119 212.388C560.469 211.263 561.546 210.327 562.348 209.581C563.15 208.822 563.818 208.034 564.352 207.218C564.887 206.402 565.154 205.6 565.154 204.812C565.154 204.094 564.986 203.531 564.648 203.123C564.31 202.715 563.79 202.511 563.086 202.511C562.383 202.511 561.841 202.751 561.461 203.229C561.081 203.693 560.884 204.333 560.87 205.15H558C558.056 203.461 558.556 202.181 559.498 201.308C560.455 200.436 561.665 200 563.128 200C564.732 200 565.963 200.429 566.822 201.287C567.68 202.132 568.109 203.25 568.109 204.643C568.109 205.74 567.814 206.789 567.223 207.788C566.632 208.787 565.956 209.659 565.197 210.405C564.437 211.136 563.445 212.023 562.221 213.064H568.447V215.512H558.021V213.317L559.119 212.388Z"
  ></path>
  <path
    style="fill: var(--color-illustrationPalette040)"
    fill-rule="evenodd"
    clip-rule="evenodd"
    d="M564 225L564 406L562 406L562 225L564 225Z"
  ></path>
  <path
    style="fill: var(--color-illustrationPalette040)"
    d="M301 407C301 410.314 298.314 413 295 413C291.686 413 289 410.314 289 407C289 403.686 291.686 401 295 401C298.314 401 301 403.686 301 407Z"
  ></path>
  <rect
    style="fill: var(--color-illustrationPalette040)"
    x="276"
    y="189"
    width="38.5134"
    height="38.5134"
    rx="19.2567"
  ></rect>
  <path
    style="fill: var(--color-white)"
    d="M293 202.801V200H298.086V215.832H295.047V202.801H293Z"
  ></path>
  <path
    style="fill: var(--color-illustrationPalette040)"
    fill-rule="evenodd"
    clip-rule="evenodd"
    d="M296 225L296 406L294 406L294 225L296 225Z"
  ></path>
  <rect
    style="fill: var(--color-illustrationPalette040)"
    x="733"
    y="707"
    width="38.5134"
    height="38.5134"
    rx="19.2567"
  ></rect>
  <path
    style="fill: var(--color-white)"
    d="M747.211 722.411C747.281 721.004 747.774 719.921 748.688 719.161C749.617 718.387 750.834 718 752.339 718C753.367 718 754.246 718.183 754.978 718.549C755.709 718.9 756.258 719.386 756.624 720.005C757.004 720.61 757.193 721.299 757.193 722.073C757.193 722.96 756.961 723.712 756.497 724.331C756.047 724.936 755.505 725.344 754.872 725.555V725.64C755.688 725.893 756.321 726.343 756.771 726.991C757.236 727.638 757.468 728.468 757.468 729.481C757.468 730.325 757.271 731.078 756.877 731.739C756.497 732.4 755.927 732.921 755.167 733.301C754.422 733.667 753.521 733.85 752.466 733.85C750.876 733.85 749.582 733.449 748.583 732.647C747.584 731.845 747.056 730.663 747 729.101H749.87C749.898 729.79 750.131 730.346 750.567 730.768C751.017 731.176 751.629 731.38 752.403 731.38C753.12 731.38 753.669 731.183 754.049 730.789C754.443 730.381 754.64 729.861 754.64 729.228C754.64 728.383 754.373 727.778 753.838 727.413C753.303 727.047 752.473 726.864 751.348 726.864H750.736V724.437H751.348C753.345 724.437 754.344 723.769 754.344 722.432C754.344 721.827 754.161 721.356 753.796 721.018C753.444 720.68 752.93 720.511 752.255 720.511C751.594 720.511 751.08 720.694 750.714 721.06C750.363 721.412 750.159 721.862 750.102 722.411H747.211Z"
  ></path>
  <path
    style="fill: var(--color-illustrationPalette040)"
    fill-rule="evenodd"
    clip-rule="evenodd"
    d="M751 708.649L751 502L752.833 502L752.833 708.649L751 708.649Z"
  ></path>
  <path
    style="fill: var(--color-illustrationPalette040)"
    d="M757.498 497.668C757.498 500.982 754.812 503.668 751.498 503.668C748.184 503.668 745.498 500.982 745.498 497.668C745.498 494.354 748.184 491.668 751.498 491.668C754.812 491.668 757.498 494.354 757.498 497.668Z"
  ></path>
  <rect
    style="fill: var(--color-illustrationPalette040)"
    x="1181"
    y="707"
    width="38.5134"
    height="38.5134"
    rx="19.2567"
  ></rect>
  <path
    style="fill: var(--color-white)"
    d="M1194 730.198V727.877L1200.9 718H1204.34V727.624H1206.2V730.198H1204.34V733.195H1201.39V730.198H1194ZM1201.58 721.166L1197.25 727.624H1201.58V721.166Z"
  ></path>
  <path
    style="fill: var(--color-illustrationPalette040)"
    fill-rule="evenodd"
    clip-rule="evenodd"
    d="M1199 709L1199 476L1201 476L1201 709L1199 709Z"
  ></path>
  <path
    style="fill: var(--color-illustrationPalette040)"
    d="M1205.5 473.668C1205.5 476.982 1202.81 479.668 1199.5 479.668C1196.18 479.668 1193.5 476.982 1193.5 473.668C1193.5 470.354 1196.18 467.668 1199.5 467.668C1202.81 467.668 1205.5 470.354 1205.5 473.668Z"
  ></path>
  <path
    style="fill: var(--color-white)"
    d="M1165.99 440.067V451.858C1165.99 453.037 1166.29 453.945 1166.89 454.582C1167.49 455.218 1168.38 455.536 1169.54 455.536C1170.71 455.536 1171.6 455.218 1172.23 454.582C1172.85 453.945 1173.16 453.037 1173.16 451.858V440.067H1178.14V451.83C1178.14 453.59 1177.76 455.078 1176.98 456.294C1176.2 457.511 1175.15 458.428 1173.83 459.045C1172.53 459.663 1171.07 459.972 1169.46 459.972C1167.84 459.972 1166.39 459.672 1165.11 459.074C1163.85 458.456 1162.85 457.539 1162.11 456.322C1161.37 455.087 1161 453.59 1161 451.83V440.067H1165.99Z"
  ></path>
  <path
    style="fill: var(--color-white)"
    d="M1191.56 443.941C1193.46 443.941 1194.98 444.54 1196.11 445.738C1197.25 446.917 1197.83 448.545 1197.83 450.623V459.775H1192.87V451.269C1192.87 450.221 1192.59 449.406 1192.02 448.826C1191.46 448.246 1190.7 447.956 1189.75 447.956C1188.8 447.956 1188.04 448.246 1187.48 448.826C1186.91 449.406 1186.63 450.221 1186.63 451.269V459.775H1181.65V444.11H1186.63V446.187C1187.14 445.495 1187.82 444.952 1188.67 444.559C1189.53 444.147 1190.49 443.941 1191.56 443.941Z"
  ></path>
  <path
    style="fill: var(--color-white)"
    d="M1200.3 451.914C1200.3 450.305 1200.61 448.892 1201.23 447.675C1201.87 446.459 1202.74 445.523 1203.83 444.868C1204.92 444.213 1206.13 443.885 1207.47 443.885C1208.54 443.885 1209.51 444.1 1210.39 444.531C1211.28 444.961 1211.98 445.541 1212.49 446.271V439H1217.47V459.775H1212.49V457.529C1212.02 458.278 1211.35 458.877 1210.48 459.326C1209.62 459.775 1208.62 460 1207.47 460C1206.13 460 1204.92 459.672 1203.83 459.017C1202.74 458.344 1201.87 457.398 1201.23 456.182C1200.61 454.947 1200.3 453.524 1200.3 451.914ZM1212.49 451.943C1212.49 450.745 1212.14 449.799 1211.44 449.107C1210.76 448.414 1209.92 448.068 1208.93 448.068C1207.94 448.068 1207.09 448.414 1206.39 449.107C1205.71 449.781 1205.37 450.717 1205.37 451.914C1205.37 453.112 1205.71 454.067 1206.39 454.778C1207.09 455.471 1207.94 455.817 1208.93 455.817C1209.92 455.817 1210.76 455.471 1211.44 454.778C1212.14 454.086 1212.49 453.14 1212.49 451.943Z"
  ></path>
  <path
    style="fill: var(--color-white)"
    d="M1228.49 460C1226.89 460 1225.45 459.672 1224.17 459.017C1222.91 458.362 1221.91 457.426 1221.17 456.21C1220.45 454.993 1220.09 453.571 1220.09 451.943C1220.09 450.333 1220.46 448.92 1221.2 447.703C1221.94 446.468 1222.95 445.523 1224.23 444.868C1225.51 444.213 1226.95 443.885 1228.54 443.885C1230.14 443.885 1231.58 444.213 1232.86 444.868C1234.14 445.523 1235.15 446.468 1235.89 447.703C1236.63 448.92 1237 450.333 1237 451.943C1237 453.552 1236.62 454.975 1235.86 456.21C1235.12 457.426 1234.1 458.362 1232.8 459.017C1231.52 459.672 1230.08 460 1228.49 460ZM1228.49 455.845C1229.44 455.845 1230.25 455.508 1230.91 454.834C1231.59 454.16 1231.93 453.197 1231.93 451.943C1231.93 450.689 1231.6 449.725 1230.94 449.051C1230.29 448.377 1229.5 448.04 1228.54 448.04C1227.57 448.04 1226.77 448.377 1226.12 449.051C1225.48 449.706 1225.16 450.67 1225.16 451.943C1225.16 453.197 1225.47 454.16 1226.1 454.834C1226.74 455.508 1227.53 455.845 1228.49 455.845Z"
  ></path>
</svg>
