<svg id="nksvg" style="width: 100%; height: 100%" width="1490" height="838" viewBox="0 0 1490 838" fill="none" xmlns="http://www.w3.org/2000/svg" class="css-0">
  <g clip-path="url(#nk-549)">
    <path style="fill: var(--color-illustrationBackground010)" d="M0 4.00001C0 1.79087 1.79086 0 4 0H1486.72C1488.93 0 1490.72 1.79086 1490.72 4V834.004C1490.72 836.213 1488.93 838.004 1486.72 838.004H4.00002C1.79088 838.004 0 836.213 0 834.004V4.00001Z"></path>
    <g>
      <rect style="fill: var(--color-illustrationHighlight010)" x="228.889" y="257.999" width="1030.5" height="235" rx="17.3496"></rect>
      <rect style="fill: var(--color-blue020)" x="927.475" y="363.568" width="269.356" height="83.1539" rx="41.5769"></rect>
      <path style="fill: var(--color-white)" d="M1023.85 392.64V407.214C1023.85 408.671 1024.21 409.793 1024.92 410.58C1025.64 411.366 1026.69 411.759 1028.08 411.759C1029.47 411.759 1030.53 411.366 1031.27 410.58C1032.01 409.793 1032.39 408.671 1032.39 407.214V392.64H1038.32V407.179C1038.32 409.354 1037.86 411.193 1036.93 412.696C1036.01 414.2 1034.76 415.333 1033.18 416.097C1031.63 416.86 1029.9 417.242 1027.98 417.242C1026.06 417.242 1024.33 416.872 1022.81 416.132C1021.3 415.368 1020.11 414.235 1019.23 412.731C1018.35 411.204 1017.92 409.354 1017.92 407.179V392.64H1023.85ZM1054.28 397.429C1056.55 397.429 1058.35 398.169 1059.7 399.649C1061.06 401.107 1061.74 403.119 1061.74 405.687V416.999H1055.84V406.485C1055.84 405.19 1055.51 404.183 1054.84 403.466C1054.17 402.749 1053.27 402.391 1052.13 402.391C1051 402.391 1050.1 402.749 1049.43 403.466C1048.75 404.183 1048.42 405.19 1048.42 406.485V416.999H1042.49V397.637H1048.42V400.205C1049.02 399.349 1049.83 398.678 1050.85 398.192C1051.87 397.683 1053.01 397.429 1054.28 397.429ZM1064.69 407.283C1064.69 405.294 1065.06 403.547 1065.8 402.044C1066.56 400.54 1067.59 399.383 1068.89 398.574C1070.18 397.764 1071.63 397.359 1073.22 397.359C1074.5 397.359 1075.65 397.625 1076.69 398.157C1077.76 398.689 1078.59 399.407 1079.19 400.309V391.322H1085.12V416.999H1079.19V414.223C1078.64 415.148 1077.84 415.889 1076.8 416.444C1075.78 416.999 1074.59 417.277 1073.22 417.277C1071.63 417.277 1070.18 416.872 1068.89 416.062C1067.59 415.229 1066.56 414.061 1065.8 412.558C1065.06 411.031 1064.69 409.273 1064.69 407.283ZM1079.19 407.318C1079.19 405.837 1078.77 404.669 1077.94 403.813C1077.13 402.957 1076.14 402.529 1074.96 402.529C1073.78 402.529 1072.77 402.957 1071.94 403.813C1071.13 404.646 1070.72 405.803 1070.72 407.283C1070.72 408.764 1071.13 409.944 1071.94 410.823C1072.77 411.678 1073.78 412.106 1074.96 412.106C1076.14 412.106 1077.13 411.678 1077.94 410.823C1078.77 409.967 1079.19 408.798 1079.19 407.318ZM1098.23 417.277C1096.33 417.277 1094.62 416.872 1093.1 416.062C1091.59 415.252 1090.4 414.096 1089.52 412.592C1088.67 411.089 1088.24 409.33 1088.24 407.318C1088.24 405.329 1088.68 403.582 1089.56 402.078C1090.44 400.552 1091.64 399.383 1093.16 398.574C1094.69 397.764 1096.4 397.359 1098.3 397.359C1100.2 397.359 1101.91 397.764 1103.44 398.574C1104.96 399.383 1106.17 400.552 1107.04 402.078C1107.92 403.582 1108.36 405.329 1108.36 407.318C1108.36 409.307 1107.91 411.065 1107.01 412.592C1106.13 414.096 1104.92 415.252 1103.37 416.062C1101.84 416.872 1100.13 417.277 1098.23 417.277ZM1098.23 412.141C1099.36 412.141 1100.32 411.725 1101.11 410.892C1101.92 410.059 1102.33 408.868 1102.33 407.318C1102.33 405.768 1101.93 404.577 1101.15 403.744C1100.38 402.911 1099.43 402.495 1098.3 402.495C1097.14 402.495 1096.18 402.911 1095.42 403.744C1094.66 404.554 1094.28 405.745 1094.28 407.318C1094.28 408.868 1094.65 410.059 1095.39 410.892C1096.15 411.725 1097.1 412.141 1098.23 412.141Z"></path>
      <rect style="fill: var(--color-blue020)" x="303.852" y="321.999" width="420.426" height="20" rx="10"></rect>
      <rect style="fill: var(--color-blue020)" x="303.852" y="366.607" width="560.729" height="20" rx="10"></rect>
      <rect style="fill: var(--color-blue020)" x="303.852" y="410.607" width="560.729" height="20" rx="10"></rect>
    </g>
    <g>
      <rect style="fill: var(--color-illustrationInterface010)" x="228.889" y="524.998" width="1030.5" height="234.999" rx="17.3496"></rect>
      <rect style="fill: var(--color-illustrationInterface020)" x="927.475" y="630.567" width="269.356" height="83.1539" rx="41.5769"></rect>
      <path style="fill: var(--color-illustrationInterface010)" d="M1023.87 659.639V674.213C1023.87 675.67 1024.23 676.792 1024.95 677.579C1025.67 678.365 1026.72 678.758 1028.11 678.758C1029.5 678.758 1030.56 678.365 1031.3 677.579C1032.04 676.792 1032.41 675.67 1032.41 674.213V659.639H1038.34V674.178C1038.34 676.353 1037.88 678.192 1036.96 679.695C1036.03 681.199 1034.78 682.332 1033.21 683.096C1031.66 683.859 1029.92 684.241 1028 684.241C1026.08 684.241 1024.36 683.871 1022.83 683.131C1021.33 682.367 1020.14 681.234 1019.26 679.73C1018.38 678.203 1017.94 676.353 1017.94 674.178V659.639H1023.87ZM1054.31 664.428C1056.58 664.428 1058.38 665.168 1059.72 666.648C1061.09 668.106 1061.77 670.118 1061.77 672.686V683.998H1055.87V673.484C1055.87 672.189 1055.53 671.182 1054.86 670.465C1054.19 669.748 1053.29 669.39 1052.16 669.39C1051.02 669.39 1050.12 669.748 1049.45 670.465C1048.78 671.182 1048.44 672.189 1048.44 673.484V683.998H1042.51V664.636H1048.44V667.204C1049.05 666.348 1049.86 665.677 1050.87 665.191C1051.89 664.682 1053.04 664.428 1054.31 664.428ZM1064.71 674.282C1064.71 672.293 1065.08 670.546 1065.82 669.043C1066.59 667.539 1067.62 666.382 1068.91 665.573C1070.21 664.763 1071.65 664.358 1073.25 664.358C1074.52 664.358 1075.68 664.624 1076.72 665.156C1077.78 665.688 1078.61 666.406 1079.22 667.308V658.321H1085.15V683.998H1079.22V681.222C1078.66 682.147 1077.86 682.888 1076.82 683.443C1075.8 683.998 1074.61 684.276 1073.25 684.276C1071.65 684.276 1070.21 683.871 1068.91 683.061C1067.62 682.228 1066.59 681.06 1065.82 679.557C1065.08 678.03 1064.71 676.272 1064.71 674.282ZM1079.22 674.317C1079.22 672.836 1078.8 671.668 1077.97 670.812C1077.16 669.956 1076.16 669.528 1074.98 669.528C1073.8 669.528 1072.8 669.956 1071.96 670.812C1071.15 671.645 1070.75 672.802 1070.75 674.282C1070.75 675.763 1071.15 676.943 1071.96 677.822C1072.8 678.678 1073.8 679.105 1074.98 679.105C1076.16 679.105 1077.16 678.678 1077.97 677.822C1078.8 676.966 1079.22 675.797 1079.22 674.317ZM1098.26 684.276C1096.36 684.276 1094.65 683.871 1093.12 683.061C1091.62 682.252 1090.43 681.095 1089.55 679.591C1088.69 678.088 1088.26 676.33 1088.26 674.317C1088.26 672.328 1088.7 670.581 1089.58 669.077C1090.46 667.551 1091.66 666.382 1093.19 665.573C1094.72 664.763 1096.43 664.358 1098.33 664.358C1100.22 664.358 1101.93 664.763 1103.46 665.573C1104.99 666.382 1106.19 667.551 1107.07 669.077C1107.95 670.581 1108.39 672.328 1108.39 674.317C1108.39 676.306 1107.94 678.064 1107.04 679.591C1106.16 681.095 1104.94 682.252 1103.39 683.061C1101.86 683.871 1100.15 684.276 1098.26 684.276ZM1098.26 679.14C1099.39 679.14 1100.35 678.724 1101.14 677.891C1101.95 677.058 1102.35 675.867 1102.35 674.317C1102.35 672.767 1101.96 671.576 1101.17 670.743C1100.41 669.91 1099.46 669.494 1098.33 669.494C1097.17 669.494 1096.21 669.91 1095.45 670.743C1094.68 671.553 1094.3 672.744 1094.3 674.317C1094.3 675.867 1094.67 677.058 1095.41 677.891C1096.17 678.724 1097.12 679.14 1098.26 679.14Z"></path>
    </g>
    <g>
      <rect style="fill: var(--color-illustrationInterface010)" x="228.889" y="791.996" width="1030.5" height="235" rx="17.3496"></rect>
    </g>
    <rect style="fill: var(--color-illustrationInterface030)" x="303.854" y="592.997" width="420.426" height="20" rx="10"></rect>
    <rect style="fill: var(--color-illustrationInterface020)" x="303.854" y="637.605" width="560.729" height="20" rx="10"></rect>
    <rect style="fill: var(--color-illustrationInterface020)" x="303.854" y="681.605" width="560.729" height="20" rx="10"></rect>
  </g>
  <defs>
    
    
    
    <clipPath id="nk-549">
      <rect style="fill: var(--color-white)" width="1490" height="838"></rect>
    </clipPath>
  </defs>
</svg>
