<svg id="components-toast-toast-illustration" style="width: 100%; height: 100%" width="1344" height="759" viewBox="0 0 1344 759" fill="none" xmlns="http://www.w3.org/2000/svg" class="css-0"><rect style="fill:var(--color-illustrationBackground020)" width="1344" height="759"></rect><path style="fill:var(--color-neutral040)" fill-rule="evenodd" clip-rule="evenodd" d="M103.003 402.925C103.197 405.126 101.57 407.067 99.3697 407.261C98.1064 407.373 96.845 407.506 95.5862 407.662C93.3939 407.934 91.3963 406.377 91.1246 404.185C90.8529 401.992 92.4099 399.995 94.6023 399.723C95.9547 399.555 97.3097 399.412 98.6666 399.292C100.867 399.098 102.809 400.724 103.003 402.925ZM114.738 402.925C114.932 400.724 116.873 399.098 119.074 399.292C120.431 399.412 121.786 399.555 123.138 399.723C125.33 399.995 126.887 401.992 126.616 404.185C126.344 406.377 124.346 407.934 122.154 407.662C120.895 407.506 119.634 407.373 118.371 407.261C116.17 407.067 114.544 405.126 114.738 402.925ZM79.6528 406.654C80.3096 408.763 79.1322 411.005 77.0229 411.662C75.8137 412.039 74.6107 412.437 73.4147 412.858C71.3307 413.591 69.0471 412.496 68.3142 410.412C67.5814 408.328 68.6767 406.044 70.7607 405.311C72.0484 404.858 73.3432 404.429 74.6445 404.024C76.7537 403.367 78.996 404.545 79.6528 406.654ZM138.088 406.654C138.744 404.545 140.987 403.367 143.096 404.024C144.397 404.429 145.692 404.858 146.98 405.311C149.064 406.044 150.159 408.328 149.426 410.412C148.693 412.496 146.41 413.591 144.326 412.858C143.13 412.437 141.927 412.039 140.717 411.662C138.608 411.005 137.431 408.763 138.088 406.654ZM57.6481 415.3C58.7512 417.214 58.0939 419.66 56.1799 420.763C55.0849 421.394 54.0002 422.046 52.9263 422.72C51.0551 423.895 48.5863 423.33 47.412 421.458C46.2377 419.587 46.8027 417.118 48.6739 415.944C49.833 415.217 51.0037 414.512 52.1851 413.832C54.0991 412.728 56.545 413.386 57.6481 415.3ZM160.092 415.3C161.195 413.386 163.641 412.728 165.555 413.832C166.737 414.512 167.907 415.217 169.066 415.944C170.938 417.118 171.503 419.587 170.328 421.458C169.154 423.33 166.685 423.895 164.814 422.72C163.74 422.046 162.655 421.394 161.56 420.763C159.646 419.66 158.989 417.214 160.092 415.3ZM268.893 431.985C267.545 431.938 266.195 431.938 264.847 431.985C262.639 432.062 260.787 430.334 260.711 428.126C260.634 425.919 262.362 424.067 264.57 423.99C266.103 423.937 267.638 423.937 269.171 423.99C271.379 424.067 273.106 425.919 273.03 428.126C272.953 430.334 271.101 432.062 268.893 431.985ZM38.1088 428.604C39.6147 430.22 39.5252 432.752 37.9089 434.257C36.9866 435.117 36.0776 435.996 35.1825 436.896C33.6245 438.462 31.0919 438.469 29.5257 436.911C27.9594 435.353 27.9527 432.821 29.5106 431.254C30.4773 430.283 31.4592 429.332 32.4555 428.404C34.0718 426.898 36.6029 426.988 38.1088 428.604ZM179.632 428.604C181.137 426.988 183.669 426.898 185.285 428.404C186.281 429.332 187.263 430.283 188.23 431.254C189.788 432.821 189.781 435.353 188.215 436.911C186.648 438.469 184.116 438.462 182.558 436.896C181.663 435.996 180.754 435.117 179.831 434.257C178.215 432.752 178.126 430.22 179.632 428.604ZM247.373 430.959C248.211 433.003 247.234 435.34 245.19 436.178C243.948 436.687 242.724 437.242 241.521 437.842C239.545 438.829 237.143 438.026 236.156 436.05C235.169 434.073 235.972 431.671 237.948 430.684C239.329 429.995 240.733 429.359 242.155 428.776C244.199 427.938 246.535 428.915 247.373 430.959ZM286.367 430.959C287.205 428.915 289.542 427.938 291.586 428.776C293.008 429.359 294.411 429.995 295.792 430.684C297.769 431.671 298.571 434.073 297.585 436.05C296.598 438.026 294.196 438.829 292.219 437.842C291.016 437.242 289.792 436.687 288.551 436.178C286.507 435.34 285.529 433.003 286.367 430.959ZM225.327 444.326C226.981 445.79 227.135 448.318 225.671 449.972C224.792 450.966 223.944 452.001 223.13 453.077C221.797 454.839 219.289 455.188 217.527 453.855C215.764 452.523 215.416 450.014 216.749 448.252C217.687 447.011 218.666 445.817 219.681 444.67C221.145 443.016 223.673 442.862 225.327 444.326ZM308.413 444.326C310.068 442.862 312.596 443.016 314.06 444.67C315.075 445.817 316.053 447.011 316.992 448.252C318.324 450.014 317.976 452.523 316.214 453.855C314.452 455.188 311.943 454.839 310.611 453.077C309.796 452.001 308.948 450.966 308.069 449.972C306.605 448.318 306.759 445.79 308.413 444.326ZM195.671 445.978C197.499 444.738 199.987 445.216 201.226 447.045C201.984 448.164 202.726 449.303 203.451 450.46C204.623 452.333 204.055 454.801 202.182 455.973C200.31 457.145 197.842 456.577 196.67 454.705C195.996 453.629 195.307 452.572 194.603 451.533C193.364 449.704 193.842 447.217 195.671 445.978ZM22.0697 445.978C23.8984 447.217 24.3763 449.704 23.1371 451.533C22.433 452.572 21.744 453.629 21.0707 454.705C19.8986 456.577 17.4304 457.145 15.5578 455.973C13.6853 454.801 13.1175 452.333 14.2896 450.46C15.0142 449.303 15.756 448.164 16.5144 447.045C17.7537 445.216 20.2409 444.738 22.0697 445.978ZM322.268 466.06C324.385 465.429 326.613 466.635 327.243 468.752C327.462 469.487 327.671 470.231 327.869 470.983C328.43 473.12 327.154 475.307 325.017 475.869C322.881 476.431 320.693 475.154 320.132 473.018C319.956 472.348 319.77 471.687 319.576 471.035C318.946 468.918 320.151 466.69 322.268 466.06ZM211.472 466.06C213.59 466.69 214.795 468.918 214.164 471.035C213.975 471.672 213.794 472.317 213.621 472.97C213.464 473.598 213.156 474.182 212.722 474.668C212.363 475.07 211.918 475.404 211.4 475.64C211.084 475.784 210.748 475.888 210.401 475.946C210.09 475.999 209.778 476.013 209.471 475.992C208.583 475.932 207.738 475.575 207.075 474.985C206.673 474.626 206.338 474.18 206.102 473.662C206.061 473.574 206.024 473.485 205.991 473.395C205.764 472.808 205.533 472.226 205.298 471.647C204.468 469.6 205.454 467.267 207.501 466.437C207.973 466.245 208.46 466.15 208.94 466.143C209.725 465.851 210.608 465.802 211.472 466.06ZM10.2396 466.437C12.2866 467.267 13.2727 469.6 12.4421 471.647C12.201 472.241 11.964 472.84 11.7312 473.442C10.9348 475.503 8.61874 476.528 6.55814 475.731C4.49754 474.935 3.47268 472.619 4.26905 470.558C4.51791 469.915 4.77129 469.275 5.02914 468.639C5.85976 466.592 8.19256 465.606 10.2396 466.437Z"></path><path style="fill:var(--color-neutral040)" fill-rule="evenodd" clip-rule="evenodd" d="M1241 402.925C1240.8 405.126 1242.43 407.067 1244.63 407.261C1245.89 407.373 1247.16 407.506 1248.41 407.662C1250.61 407.934 1252.6 406.377 1252.88 404.185C1253.15 401.992 1251.59 399.995 1249.4 399.723C1248.05 399.555 1246.69 399.412 1245.33 399.292C1243.13 399.098 1241.19 400.724 1241 402.925ZM1229.26 402.925C1229.07 400.724 1227.13 399.098 1224.93 399.292C1223.57 399.412 1222.21 399.555 1220.86 399.723C1218.67 399.995 1217.11 401.992 1217.38 404.185C1217.66 406.377 1219.65 407.934 1221.85 407.662C1223.1 407.506 1224.37 407.373 1225.63 407.261C1227.83 407.067 1229.46 405.126 1229.26 402.925ZM1264.35 406.654C1263.69 408.763 1264.87 411.005 1266.98 411.662C1268.19 412.039 1269.39 412.437 1270.59 412.858C1272.67 413.591 1274.95 412.496 1275.69 410.412C1276.42 408.328 1275.32 406.044 1273.24 405.311C1271.95 404.858 1270.66 404.429 1269.36 404.024C1267.25 403.367 1265 404.545 1264.35 406.654ZM1205.91 406.654C1205.26 404.545 1203.01 403.367 1200.9 404.024C1199.6 404.429 1198.31 404.858 1197.02 405.311C1194.94 406.044 1193.84 408.328 1194.57 410.412C1195.31 412.496 1197.59 413.591 1199.67 412.858C1200.87 412.437 1202.07 412.039 1203.28 411.662C1205.39 411.005 1206.57 408.763 1205.91 406.654ZM1286.35 415.3C1285.25 417.214 1285.91 419.66 1287.82 420.763C1288.92 421.394 1290 422.046 1291.07 422.72C1292.95 423.895 1295.41 423.33 1296.59 421.458C1297.76 419.587 1297.2 417.118 1295.33 415.944C1294.17 415.217 1293 414.512 1291.82 413.832C1289.9 412.728 1287.46 413.386 1286.35 415.3ZM1183.91 415.3C1182.8 413.386 1180.36 412.728 1178.45 413.832C1177.26 414.512 1176.09 415.217 1174.93 415.944C1173.06 417.118 1172.5 419.587 1173.67 421.458C1174.85 423.33 1177.32 423.895 1179.19 422.72C1180.26 422.046 1181.34 421.394 1182.44 420.763C1184.35 419.66 1185.01 417.214 1183.91 415.3ZM1075.11 431.985C1076.46 431.938 1077.8 431.938 1079.15 431.985C1081.36 432.062 1083.21 430.334 1083.29 428.126C1083.37 425.919 1081.64 424.067 1079.43 423.99C1077.9 423.937 1076.36 423.937 1074.83 423.99C1072.62 424.067 1070.89 425.919 1070.97 428.126C1071.05 430.334 1072.9 432.062 1075.11 431.985ZM1305.89 428.604C1304.39 430.22 1304.48 432.752 1306.09 434.257C1307.01 435.117 1307.92 435.996 1308.82 436.896C1310.38 438.462 1312.91 438.469 1314.47 436.911C1316.04 435.353 1316.05 432.821 1314.49 431.254C1313.52 430.283 1312.54 429.332 1311.54 428.404C1309.93 426.898 1307.4 426.988 1305.89 428.604ZM1164.37 428.604C1162.86 426.988 1160.33 426.898 1158.72 428.404C1157.72 429.332 1156.74 430.283 1155.77 431.254C1154.21 432.821 1154.22 435.353 1155.79 436.911C1157.35 438.469 1159.88 438.462 1161.44 436.896C1162.34 435.996 1163.25 435.117 1164.17 434.257C1165.79 432.752 1165.87 430.22 1164.37 428.604ZM1096.63 430.959C1095.79 433.003 1096.77 435.34 1098.81 436.178C1100.05 436.687 1101.28 437.242 1102.48 437.842C1104.46 438.829 1106.86 438.026 1107.84 436.05C1108.83 434.073 1108.03 431.671 1106.05 430.684C1104.67 429.995 1103.27 429.359 1101.85 428.776C1099.8 427.938 1097.47 428.915 1096.63 430.959ZM1057.63 430.959C1056.8 428.915 1054.46 427.938 1052.41 428.776C1050.99 429.359 1049.59 429.995 1048.21 430.684C1046.23 431.671 1045.43 434.073 1046.42 436.05C1047.4 438.026 1049.8 438.829 1051.78 437.842C1052.98 437.242 1054.21 436.687 1055.45 436.178C1057.49 435.34 1058.47 433.003 1057.63 430.959ZM1118.67 444.326C1117.02 445.79 1116.86 448.318 1118.33 449.972C1119.21 450.966 1120.06 452.001 1120.87 453.077C1122.2 454.839 1124.71 455.188 1126.47 453.855C1128.24 452.523 1128.58 450.014 1127.25 448.252C1126.31 447.011 1125.33 445.817 1124.32 444.67C1122.86 443.016 1120.33 442.862 1118.67 444.326ZM1035.59 444.326C1033.93 442.862 1031.4 443.016 1029.94 444.67C1028.93 445.817 1027.95 447.011 1027.01 448.252C1025.68 450.014 1026.02 452.523 1027.79 453.855C1029.55 455.188 1032.06 454.839 1033.39 453.077C1034.2 452.001 1035.05 450.966 1035.93 449.972C1037.4 448.318 1037.24 445.79 1035.59 444.326ZM1148.33 445.978C1146.5 444.738 1144.01 445.216 1142.77 447.045C1142.02 448.164 1141.27 449.303 1140.55 450.46C1139.38 452.333 1139.95 454.801 1141.82 455.973C1143.69 457.145 1146.16 456.577 1147.33 454.705C1148 453.629 1148.69 452.572 1149.4 451.533C1150.64 449.704 1150.16 447.217 1148.33 445.978ZM1321.93 445.978C1320.1 447.217 1319.62 449.704 1320.86 451.533C1321.57 452.572 1322.26 453.629 1322.93 454.705C1324.1 456.577 1326.57 457.145 1328.44 455.973C1330.31 454.801 1330.88 452.333 1329.71 450.46C1328.99 449.303 1328.24 448.164 1327.49 447.045C1326.25 445.216 1323.76 444.738 1321.93 445.978ZM1021.73 466.06C1019.61 465.429 1017.39 466.635 1016.76 468.752C1016.54 469.487 1016.33 470.231 1016.13 470.983C1015.57 473.12 1016.85 475.307 1018.98 475.869C1021.12 476.431 1023.31 475.154 1023.87 473.018C1024.04 472.348 1024.23 471.687 1024.42 471.035C1025.05 468.918 1023.85 466.69 1021.73 466.06ZM1132.53 466.06C1130.41 466.69 1129.21 468.918 1129.84 471.035C1130.03 471.672 1130.21 472.317 1130.38 472.97C1130.54 473.598 1130.84 474.182 1131.28 474.668C1131.64 475.07 1132.08 475.404 1132.6 475.64C1132.92 475.784 1133.25 475.888 1133.6 475.946C1133.91 475.999 1134.22 476.013 1134.53 475.992C1135.42 475.932 1136.26 475.575 1136.92 474.985C1137.33 474.626 1137.66 474.18 1137.9 473.662C1137.94 473.574 1137.98 473.485 1138.01 473.395C1138.24 472.808 1138.47 472.226 1138.7 471.647C1139.53 469.6 1138.55 467.267 1136.5 466.437C1136.03 466.245 1135.54 466.15 1135.06 466.143C1134.28 465.851 1133.39 465.802 1132.53 466.06ZM1333.76 466.437C1331.71 467.267 1330.73 469.6 1331.56 471.647C1331.8 472.241 1332.04 472.84 1332.27 473.442C1333.07 475.503 1335.38 476.528 1337.44 475.731C1339.5 474.935 1340.53 472.619 1339.73 470.558C1339.48 469.915 1339.23 469.275 1338.97 468.639C1338.14 466.592 1335.81 465.606 1333.76 466.437Z"></path><g filter="url(#nk-814)"><path style="fill:var(--color-illustrationPalette040)" d="M318.225 294C318.225 282.954 327.179 274 338.225 274H1005.78C1016.82 274 1025.78 282.954 1025.78 294V466C1025.78 477.046 1016.82 486 1005.78 486H338.225C327.179 486 318.225 477.046 318.225 466V294Z"></path></g><rect style="fill:var(--color-illustrationPalette010)" x="385.8" y="341.575" width="541.925" height="21.2" rx="10.6"></rect><rect style="fill:var(--color-illustrationPalette010)" x="385.8" y="394.575" width="156.35" height="21.2" rx="10.6"></rect><defs><filter id="nk-814" x="302.225" y="266" width="739.55" height="244" filterUnits="userSpaceOnUse" color-interpolation-filters="sRGB"><feFlood flood-opacity="0" result="BackgroundImageFix"></feFlood><feColorMatrix in="SourceAlpha" type="matrix" values="0 0 0 0 0 0 0 0 0 0 0 0 0 0 0 0 0 0 127 0"></feColorMatrix><feOffset dy="8"></feOffset><feGaussianBlur stdDeviation="8"></feGaussianBlur><feColorMatrix type="matrix" values="0 0 0 0 0.0392157 0 0 0 0 0.0392157 0 0 0 0 0.0392157 0 0 0 0.08 0"></feColorMatrix><feBlend mode="normal" in2="BackgroundImageFix" result="effect1_dropShadow"></feBlend><feBlend mode="normal" in="SourceGraphic" in2="effect1_dropShadow" result="shape"></feBlend></filter></defs></svg>