<svg
  id="nksvg"
  style="width: 100%; height: 100%"
  width="1490"
  height="838"
  viewBox="0 0 1490 838"
  fill="none"
  xmlns="http://www.w3.org/2000/svg"
  class="css-0"
>
  <rect
    style="fill: var(--color-illustrationBackground020)"
    width="1490"
    height="838"
  ></rect>
  <rect
    style="fill: var(--color-illustrationPalette030)"
    x="249"
    y="643"
    width="437"
    height="546"
    rx="20"
    transform="rotate(-90 249 643)"
  ></rect>
  <rect
    style="fill: var(--color-illustrationPalette040)"
    x="851"
    y="206"
    width="391"
    height="108"
    rx="20"
  ></rect>
  <rect
    style="fill: var(--color-illustrationPalette040)"
    x="851"
    y="370"
    width="391"
    height="108"
    rx="20"
  ></rect>
  <rect
    style="fill: var(--color-illustrationPalette040)"
    x="851"
    y="535"
    width="391"
    height="108"
    rx="20"
  ></rect>
  <path
    style="fill: var(--color-illustrationPalette040)"
    d="M249 147C249 142.029 253.034 138 258.01 138H582.99C587.966 138 592 142.029 592 147C592 151.971 587.966 156 582.99 156H258.01C253.034 156 249 151.971 249 147Z"
  ></path>
  <path
    style="fill: var(--color-illustrationHighlight010)"
    d="M291.75 599.375L206.25 635.456V640.152L238.74 652.85L251.28 685.625H255.935L291.75 599.375Z"
  ></path>
</svg>
