<svg id="nksvg" width="1490" height="838" viewBox="0 0 1490 838" fill="none" xmlns="http://www.w3.org/2000/svg">
<g clip-path="url(#clip0_2789_77643)">
<rect width="1490" height="838" fill="var(--color-illustrationBackground020)"/>
<path d="M155.552 565.368V573.32H130.912V565.368H155.552ZM188.036 565.368V573.32H163.396V565.368H188.036ZM220.521 565.368V573.32H195.881V565.368H220.521ZM253.005 565.368V573.32H228.365V565.368H253.005ZM285.49 565.368V573.32H260.85V565.368H285.49ZM317.974 565.368V573.32H293.334V565.368H317.974ZM350.458 565.368V573.32H325.818V565.368H350.458ZM382.943 565.368V573.32H358.303V565.368H382.943ZM415.427 565.368V573.32H390.787V565.368H415.427ZM447.911 565.368V573.32H423.271V565.368H447.911ZM480.396 565.368V573.32H455.756V565.368H480.396ZM512.88 565.368V573.32H488.24V565.368H512.88ZM545.365 565.368V573.32H520.725V565.368H545.365ZM577.849 565.368V573.32H553.209V565.368H577.849ZM610.333 565.368V573.32H585.693V565.368H610.333ZM642.818 565.368V573.32H618.178V565.368H642.818ZM675.302 565.368V573.32H650.662V565.368H675.302ZM707.786 565.368V573.32H683.146V565.368H707.786ZM740.271 565.368V573.32H715.631V565.368H740.271ZM772.755 565.368V573.32H748.115V565.368H772.755ZM805.24 565.368V573.32H780.6V565.368H805.24ZM837.724 565.368V573.32H813.084V565.368H837.724ZM870.208 565.368V573.32H845.568V565.368H870.208ZM902.693 565.368V573.32H878.053V565.368H902.693ZM935.177 565.368V573.32H910.537V565.368H935.177ZM967.661 565.368V573.32H943.021V565.368H967.661ZM1000.15 565.368V573.32H975.506V565.368H1000.15ZM1032.63 565.368V573.32H1007.99V565.368H1032.63ZM1065.11 565.368V573.32H1040.47V565.368H1065.11ZM1097.6 565.368V573.32H1072.96V565.368H1097.6ZM1130.08 565.368V573.32H1105.44V565.368H1130.08ZM1162.57 565.368V573.32H1137.93V565.368H1162.57ZM1195.05 565.368V573.32H1170.41V565.368H1195.05ZM1227.54 565.368V573.32H1202.9V565.368H1227.54ZM1260.02 565.368V573.32H1235.38V565.368H1260.02ZM1292.51 565.368V573.32H1267.87V565.368H1292.51ZM1324.99 565.368V573.32H1300.35V565.368H1324.99ZM1357.47 565.368V573.32H1332.83V565.368H1357.47Z" fill="var(--color-illustrationPalette020)"/>
<g >
<path d="M819.954 348.564H757.598L747.602 378.076H705L765.452 211H812.576L873.028 378.076H829.95L819.954 348.564ZM809.482 317.148L788.776 255.982L768.308 317.148H809.482Z" fill="var(--color-illustrationBackground010)"/>
<path d="M819.954 348.564H757.598L747.602 378.076H705L765.452 211H812.576L873.028 378.076H829.95L819.954 348.564ZM809.482 317.148L788.776 255.982L768.308 317.148H809.482Z" stroke="#3358CC" stroke-width="8"/>
</g>
<g >
<path d="M454.674 456.084H434.238L430.962 465.756H417L436.812 411H452.256L472.068 465.756H457.95L454.674 456.084ZM451.242 445.788L444.456 425.742L437.748 445.788H451.242Z" fill="var(--color-illustrationBackground010)"/>
<path d="M454.674 456.084H434.238L430.962 465.756H417L436.812 411H452.256L472.068 465.756H457.95L454.674 456.084ZM451.242 445.788L444.456 425.742L437.748 445.788H451.242Z" stroke="#3358CC" stroke-width="3"/>
</g>
<circle opacity="0.1" cx="802" cy="298" r="204" fill="var(--color-illustrationPalette010)"/>
<path d="M1197.02 645.135L974.336 422.447C973.495 421.605 972.526 420.881 971.558 420.274C975.06 413.64 978.192 406.753 981.097 399.757C992.202 372.479 997.75 343.634 997.75 314.057C997.75 284.488 992.076 255.637 981.097 228.357C969.63 200.111 952.733 174.769 931.012 152.92C909.29 131.199 883.939 114.293 855.575 102.835C828.297 91.7301 799.453 86.1816 769.875 86.1816C740.306 86.1816 711.455 91.8562 684.175 102.835C655.93 114.302 630.587 131.199 608.739 152.92C587.017 174.642 570.111 199.993 558.653 228.357C547.548 255.635 542 284.479 542 314.057C542 343.626 547.675 372.477 558.653 399.757C570.12 428.002 587.017 453.345 608.739 475.193C630.46 496.915 655.811 513.821 684.175 525.279C711.453 536.384 740.298 541.932 769.875 541.932C799.444 541.932 828.295 536.257 855.575 525.279C862.572 522.382 869.459 519.242 876.093 515.74C876.699 516.708 877.423 517.668 878.265 518.518L1100.95 741.206C1114.23 754.484 1131.61 761 1148.99 761C1166.37 761 1183.76 754.366 1197.03 741.206C1223.46 714.653 1223.46 671.563 1197.02 645.135H1197.02ZM633.73 450.33C597.284 413.884 577.246 365.481 577.246 314.064C577.246 262.649 597.284 214.247 633.73 177.798C671.263 140.265 720.633 121.432 769.997 121.432C819.358 121.432 868.73 140.257 906.263 177.798C981.456 252.991 981.456 375.137 906.263 450.339C831.07 525.404 708.807 525.404 633.722 450.33L633.73 450.33Z" fill="var(--color-illustrationPalette020)"/>
<path d="M1221.39 632.953C1221.39 632.953 1221.39 632.953 1221.39 632.953L998.7 410.265C997.291 408.856 996.644 406.731 997.543 404.953C1000.4 399.295 1003.01 393.474 1005.46 387.575C1016.57 360.297 1022.11 331.453 1022.11 301.875C1022.11 272.306 1016.44 243.455 1005.46 216.175C993.993 187.93 977.096 162.587 955.375 140.739C933.654 119.017 908.303 102.111 879.939 90.6533C852.661 79.5484 823.816 74 794.238 74C764.67 74 735.818 79.6745 708.538 90.6533C680.293 102.12 654.951 119.017 633.102 140.739C611.381 162.46 594.474 187.811 583.017 216.175C571.912 243.453 566.363 272.298 566.363 301.875C566.363 331.444 572.038 360.295 583.017 387.575C594.484 415.821 611.381 441.163 633.102 463.012C654.823 484.733 680.174 501.639 708.538 513.097C735.816 524.202 764.661 529.75 794.238 529.75C823.807 529.75 852.659 524.076 879.939 513.097C885.838 510.655 891.659 508.039 897.316 505.18C899.095 504.281 901.227 504.921 902.628 506.336L1125.32 729.025C1138.59 742.302 1155.97 748.818 1173.36 748.818C1190.73 748.818 1208.12 742.184 1221.4 729.025C1247.83 702.471 1247.83 659.382 1221.39 632.953C1221.39 632.953 1221.39 632.953 1221.39 632.953ZM658.089 438.149C658.091 438.149 658.092 438.147 658.091 438.145C621.646 401.699 601.609 353.298 601.609 301.882C601.609 250.467 621.647 202.065 658.094 165.616C695.627 128.083 744.996 109.25 794.36 109.25C843.721 109.25 893.093 128.076 930.626 165.616C1005.82 240.809 1005.82 362.956 930.626 438.157C855.434 513.222 733.173 513.223 658.088 438.152C658.087 438.151 658.088 438.149 658.089 438.149Z" fill="var(--color-illustrationPalette060)"/>
</g>
<defs>
<filter id="filter0_d_2789_77643" x="695.299" y="207" width="187.43" height="183.076" filterUnits="userSpaceOnUse" color-interpolation-filters="sRGB">
<feFlood flood-opacity="0" result="BackgroundImageFix"/>
<feColorMatrix in="SourceAlpha" type="matrix" values="0 0 0 0 0 0 0 0 0 0 0 0 0 0 0 0 0 0 127 0" result="hardAlpha"/>
<feOffset dy="4"/>
<feGaussianBlur stdDeviation="2"/>
<feComposite in2="hardAlpha" operator="out"/>
<feColorMatrix type="matrix" values="0 0 0 0 0 0 0 0 0 0 0 0 0 0 0 0 0 0 0.25 0"/>
<feBlend mode="normal" in2="BackgroundImageFix" result="effect1_dropShadow_2789_77643"/>
<feBlend mode="normal" in="SourceGraphic" in2="effect1_dropShadow_2789_77643" result="shape"/>
</filter>
<filter id="filter1_d_2789_77643" x="410.862" y="409.5" width="67.3438" height="65.7559" filterUnits="userSpaceOnUse" color-interpolation-filters="sRGB">
<feFlood flood-opacity="0" result="BackgroundImageFix"/>
<feColorMatrix in="SourceAlpha" type="matrix" values="0 0 0 0 0 0 0 0 0 0 0 0 0 0 0 0 0 0 127 0" result="hardAlpha"/>
<feOffset dy="4"/>
<feGaussianBlur stdDeviation="2"/>
<feComposite in2="hardAlpha" operator="out"/>
<feColorMatrix type="matrix" values="0 0 0 0 0 0 0 0 0 0 0 0 0 0 0 0 0 0 0.25 0"/>
<feBlend mode="normal" in2="BackgroundImageFix" result="effect1_dropShadow_2789_77643"/>
<feBlend mode="normal" in="SourceGraphic" in2="effect1_dropShadow_2789_77643" result="shape"/>
</filter>
<clipPath id="clip0_2789_77643">
<rect width="1490" height="838" fill="white"/>
</clipPath>
</defs>
</svg>
