<svg id="components-popover-behaviours-triggering-and-closing" style="width: 100%; height: 100%" width="1490" height="838" viewBox="0 0 1490 838" fill="none" xmlns="http://www.w3.org/2000/svg" class="css-0"><g clip-path="url(#nk-1293)"><rect style="fill:var(--color-illustrationBackground020)" width="1490" height="838"></rect><g filter="url(#nk-1295)"><path style="fill:var(--color-illustrationInterface010)" fill-rule="evenodd" clip-rule="evenodd" d="M777.751 120C772.366 120 768 124.366 768 129.751V560.017C768 565.403 772.366 569.768 777.751 569.768H1010.56L1049.56 608.773L1088.57 569.768H1326.25C1331.63 569.768 1336 565.403 1336 560.017V129.751C1336 124.366 1331.63 120 1326.25 120H777.751Z"></path></g><path style="fill:var(--color-illustrationHighlight010)" d="M1299.96 168.533L1297.09 165.657L1285.68 177.061L1274.28 165.657L1271.4 168.533L1282.8 179.938L1271.4 191.343L1274.28 194.22L1285.68 182.815L1297.09 194.22L1299.96 191.343L1288.56 179.938L1299.96 168.533Z"></path><path style="fill:var(--color-illustrationInterface020)" d="M804.893 358.741C804.893 355.156 807.8 352.249 811.385 352.249H1287.9C1291.49 352.249 1294.4 355.156 1294.4 358.741C1294.4 362.326 1291.49 365.233 1287.9 365.233H811.385C807.8 365.233 804.893 362.326 804.893 358.741Z"></path><path style="fill:var(--color-illustrationInterface020)" d="M804.893 323.397C804.893 319.414 808.122 316.184 812.106 316.184H1287.18C1291.17 316.184 1294.4 319.414 1294.4 323.397C1294.4 327.381 1291.17 330.61 1287.18 330.61H812.106C808.123 330.61 804.893 327.381 804.893 323.397Z"></path><path style="fill:var(--color-illustrationInterface020)" d="M804.894 288.054C804.894 284.468 807.8 281.562 811.385 281.562H1045.54C1049.13 281.562 1052.04 284.468 1052.04 288.054C1052.04 291.639 1049.13 294.545 1045.54 294.545H811.385C807.8 294.545 804.894 291.639 804.894 288.054Z"></path><path style="fill:var(--color-illustrationInterface020)" d="M908.272 394.05C908.272 390.352 911.27 387.354 914.968 387.354H936.522C940.22 387.354 943.218 390.352 943.218 394.05C943.218 397.748 940.22 400.746 936.522 400.746H914.968C911.27 400.746 908.272 397.748 908.272 394.05Z"></path><path style="fill:var(--color-illustrationInterface020)" d="M804.89 394.05C804.89 390.352 807.888 387.354 811.586 387.354H881.191C884.889 387.354 887.887 390.352 887.887 394.05C887.887 397.748 884.889 400.746 881.191 400.746H811.586C807.888 400.746 804.89 397.748 804.89 394.05Z"></path><path style="fill:var(--color-illustrationHighlight010)" fill-rule="evenodd" clip-rule="evenodd" d="M1294.4 236.159H804.89V234.74H1294.4V236.159Z"></path><path style="fill:var(--color-illustrationHighlight010)" d="M1058.87 490.843C1058.87 472.428 1073.79 457.5 1092.21 457.5H1268.15C1286.56 457.5 1301.49 472.428 1301.49 490.843C1301.49 509.258 1286.56 524.186 1268.15 524.186H1092.21C1073.79 524.186 1058.87 509.258 1058.87 490.843Z"></path><path style="fill:var(--color-illustrationHighlight010)" d="M824.591 164.606V169.651H817.843V190.461H811.639V169.651H804.89V164.606H824.591Z"></path><path style="fill:var(--color-illustrationHighlight010)" d="M830.825 167.773C829.736 167.773 828.841 167.454 828.14 166.815C827.463 166.152 827.124 165.342 827.124 164.385C827.124 163.402 827.463 162.592 828.14 161.954C828.841 161.291 829.736 160.959 830.825 160.959C831.889 160.959 832.76 161.291 833.437 161.954C834.138 162.592 834.489 163.402 834.489 164.385C834.489 165.342 834.138 166.152 833.437 166.815C832.76 167.454 831.889 167.773 830.825 167.773ZM833.908 169.909V190.461H827.704V169.909H833.908Z"></path><path style="fill:var(--color-illustrationHighlight010)" d="M849.688 185.12V190.461H846.531C844.282 190.461 842.528 189.908 841.271 188.803C840.013 187.674 839.384 185.845 839.384 183.316V175.139H836.917V169.909H839.384V164.9H845.588V169.909H849.652V175.139H845.588V183.389C845.588 184.003 845.733 184.445 846.023 184.715C846.314 184.985 846.797 185.12 847.475 185.12H849.688Z"></path><path style="fill:var(--color-illustrationHighlight010)" d="M859.348 163.206V190.461H853.144V163.206H859.348Z"></path><path style="fill:var(--color-illustrationHighlight010)" d="M882.927 179.853C882.927 180.443 882.891 181.057 882.818 181.695H868.778C868.875 182.972 869.274 183.954 869.975 184.641C870.701 185.304 871.583 185.636 872.624 185.636C874.172 185.636 875.248 184.973 875.853 183.647H882.456C882.117 184.997 881.5 186.213 880.605 187.293C879.735 188.374 878.634 189.221 877.304 189.835C875.973 190.448 874.486 190.755 872.841 190.755C870.858 190.755 869.092 190.326 867.544 189.466C865.996 188.607 864.787 187.379 863.916 185.783C863.045 184.187 862.61 182.321 862.61 180.185C862.61 178.049 863.033 176.183 863.88 174.587C864.751 172.991 865.96 171.763 867.508 170.904C869.056 170.044 870.834 169.615 872.841 169.615C874.8 169.615 876.542 170.032 878.066 170.867C879.589 171.702 880.775 172.892 881.621 174.439C882.492 175.986 882.927 177.791 882.927 179.853ZM876.578 178.196C876.578 177.116 876.215 176.256 875.49 175.618C874.764 174.98 873.857 174.66 872.769 174.66C871.729 174.66 870.846 174.967 870.12 175.581C869.419 176.195 868.983 177.067 868.814 178.196H876.578Z"></path><g clip-path="url(#nk-1294)"><path style="fill:var(--color-illustrationInterface010)" d="M-351.26 142.716C-351.26 133.399 -343.707 125.846 -334.39 125.846H586.088C595.406 125.846 602.958 133.399 602.958 142.716V694.159C602.958 703.476 595.405 711.029 586.088 711.029H-334.39C-343.707 711.029 -351.26 703.476 -351.26 694.159V142.716Z"></path><path style="fill:var(--color-illustrationInterface020)" d="M-351.26 133.667C-351.26 129.348 -347.758 125.846 -343.438 125.846H595.139C599.459 125.846 602.961 129.347 602.961 133.667V181.574H-351.26V133.667Z"></path><path style="fill:var(--color-illustrationInterface010)" d="M195.266 153.221C195.266 151.061 197.017 149.31 199.177 149.31H258.816C260.976 149.31 262.727 151.061 262.727 153.221C262.727 155.381 260.976 157.131 258.816 157.131H199.177C197.017 157.131 195.266 155.381 195.266 153.221Z"></path><path style="fill:var(--color-illustrationInterface010)" d="M301.834 153.221C301.834 151.061 303.585 149.31 305.745 149.31H365.383C367.543 149.31 369.294 151.061 369.294 153.221C369.294 155.381 367.543 157.131 365.383 157.131H305.745C303.585 157.131 301.834 155.381 301.834 153.221Z"></path><path style="fill:var(--color-illustrationInterface010)" d="M408.402 153.221C408.402 151.061 410.153 149.31 412.312 149.31H471.951C474.111 149.31 475.862 151.061 475.862 153.221C475.862 155.381 474.111 157.131 471.951 157.131H412.312C410.153 157.131 408.402 155.381 408.402 153.221Z"></path><path style="fill:var(--color-illustrationInterface010)" d="M514.969 153.221C514.969 151.061 516.72 149.31 518.88 149.31H578.519C580.679 149.31 582.43 151.061 582.43 153.221C582.43 155.381 580.679 157.131 578.519 157.131H518.88C516.72 157.131 514.969 155.381 514.969 153.221Z"></path><path style="fill:var(--color-illustrationInterface020)" fill-rule="evenodd" clip-rule="evenodd" d="M-27.6247 419.846C-30.2938 419.846 -32.4575 422.01 -32.4575 424.68C-32.4575 427.35 -30.2938 429.514 -27.6247 429.514H354.167C356.836 429.514 359 427.35 359 424.68C359 422.01 356.836 419.846 354.167 419.846H-27.6247ZM-27.6241 444.984C-30.2932 444.984 -32.4569 447.149 -32.4569 449.819C-32.4569 452.488 -30.2932 454.653 -27.6241 454.653H272.01C274.679 454.653 276.843 452.488 276.843 449.819C276.843 447.149 274.679 444.984 272.01 444.984H-27.6241ZM-27.6241 495.261C-30.2932 495.261 -32.4569 497.426 -32.4569 500.095C-32.4569 502.765 -30.2932 504.93 -27.6241 504.93H354.168C356.837 504.93 359 502.765 359 500.095C359 497.426 356.837 495.261 354.168 495.261H-27.6241ZM-32.4569 550.372C-32.4569 547.703 -30.2932 545.538 -27.6241 545.538H354.168C356.837 545.538 359 547.703 359 550.372C359 553.042 356.837 555.207 354.168 555.207H-27.6241C-30.2932 555.207 -32.4569 553.042 -32.4569 550.372ZM-27.6241 470.123C-30.2932 470.123 -32.4569 472.287 -32.4569 474.957C-32.4569 477.627 -30.2932 479.791 -27.6241 479.791H354.168C356.837 479.791 359 477.627 359 474.957C359 472.287 356.837 470.123 354.168 470.123H-27.6241ZM-32.4569 525.234C-32.4569 522.564 -30.2932 520.4 -27.6241 520.4H354.168C356.837 520.4 359 522.564 359 525.234C359 527.904 356.837 530.068 354.168 530.068H-27.6241C-30.2932 530.068 -32.4569 527.904 -32.4569 525.234Z"></path><path style="fill:var(--color-illustrationInterface020)" d="M-33.0317 243.375C-33.0317 234.081 -29.1755 226.547 -24.4185 226.547H500.987C505.744 226.547 509.6 234.081 509.6 243.375V352.017C509.6 361.311 505.744 368.846 500.987 368.846H-24.4185C-29.1755 368.846 -33.0317 361.311 -33.0317 352.017V243.375Z"></path><path style="fill:var(--color-illustrationInterface020)" d="M-33.0317 646.674C-33.0317 637.38 -29.1755 629.846 -24.4185 629.846H500.987C505.744 629.846 509.6 637.38 509.6 646.674V755.316C509.6 764.61 505.744 772.144 500.987 772.144H-24.4185C-29.1755 772.144 -33.0317 764.61 -33.0317 755.316V646.674Z"></path><path style="fill:var(--color-illustrationInterface020)" d="M387 424.846C387 422.084 389.239 419.846 392 419.846H510C512.762 419.846 515 422.084 515 424.846V473.846C515 476.607 512.762 478.846 510 478.846H392C389.239 478.846 387 476.607 387 473.846V424.846Z"></path><circle style="fill:var(--color-illustrationInterface020)" cx="473" cy="543" r="39"></circle><path style="fill:var(--color-illustrationHighlight010)" d="M470.773 532.536H474.892V536.655H470.773V532.536Z"></path><path style="fill:var(--color-illustrationHighlight010)" d="M470.773 540.773H474.892V553.13H470.773V540.773Z"></path><path style="fill:var(--color-illustrationHighlight010)" fill-rule="evenodd" clip-rule="evenodd" d="M452.239 542.833C452.239 531.465 461.465 522.239 472.833 522.239C484.2 522.239 493.426 531.465 493.426 542.833C493.426 554.2 484.2 563.426 472.833 563.426C461.465 563.426 452.239 554.2 452.239 542.833ZM456.358 542.833C456.358 551.915 463.751 559.308 472.833 559.308C481.915 559.308 489.308 551.915 489.308 542.833C489.308 533.751 481.915 526.358 472.833 526.358C463.751 526.358 456.358 533.751 456.358 542.833Z"></path><g filter="url(#nk-1296)"><path style="fill:var(--color-white)" fill-rule="evenodd" clip-rule="evenodd" d="M478.308 600.143L475.418 595.728C473.446 592.714 469.243 591.614 466.029 593.267L466.778 592.882C465.98 593.292 465.597 594.314 465.926 595.164L469.925 605.512C470.559 607.153 472.179 609.473 473.521 610.638C473.521 610.638 481.567 617.298 481.567 619.795V622.956H494.603H498.167H501.121H504.379V619.795C504.379 617.298 509.297 609.433 509.297 609.433C510.202 607.905 510.956 605.212 510.956 603.424V590.274C510.897 587.363 508.423 585.004 505.369 585.004C503.842 585.004 502.604 586.184 502.604 587.64V588.693C502.604 585.782 500.13 583.423 497.076 583.423C495.549 583.423 494.311 584.602 494.311 586.059V587.112C494.311 584.201 491.837 581.841 488.783 581.841C487.256 581.841 486.018 583.021 486.018 584.477V585.53C486.018 585.063 485.968 584.691 485.872 584.396L485.028 570.817C484.914 568.98 483.367 567.554 481.567 567.554C479.754 567.554 478.308 569.013 478.308 570.812V583.848V600.143Z"></path><path style="fill:var(--color-black)" fill-rule="evenodd" clip-rule="evenodd" d="M466.801 592.928C469.389 591.981 472.415 592.637 474.397 594.51C474.78 594.871 475.124 595.279 475.418 595.728L478.308 600.143V570.812C478.308 569.012 479.754 567.554 481.567 567.554C483.367 567.554 484.914 568.98 485.028 570.817L485.872 584.396C485.88 584.422 485.889 584.45 485.897 584.477C485.977 584.758 486.018 585.105 486.018 585.53V584.477C486.018 584.447 486.019 584.417 486.02 584.387C486.02 584.373 486.021 584.36 486.022 584.347C486.093 582.951 487.302 581.841 488.783 581.841C489.073 581.841 489.357 581.862 489.635 581.903C490.29 582 490.906 582.206 491.464 582.501C492.854 583.237 493.875 584.527 494.201 586.059C494.273 586.399 494.311 586.751 494.311 587.112V586.059C494.311 584.602 495.549 583.423 497.076 583.423C497.199 583.423 497.321 583.426 497.442 583.434C498.278 583.486 499.063 583.715 499.757 584.082C501.147 584.818 502.168 586.109 502.494 587.64C502.566 587.98 502.604 588.332 502.604 588.693V587.64C502.604 586.184 503.842 585.004 505.369 585.004C505.492 585.004 505.614 585.008 505.735 585.015C508.618 585.195 510.9 587.48 510.956 590.274V603.424C510.956 605.212 510.202 607.905 509.297 609.433C509.297 609.433 504.379 617.298 504.379 619.795V622.956H481.567V619.795C481.567 617.298 473.521 610.638 473.521 610.638C472.179 609.473 470.559 607.153 469.925 605.512L465.926 595.164C465.706 594.597 465.804 593.953 466.13 593.465C466.242 593.299 466.38 593.15 466.541 593.03C466.627 592.994 466.714 592.96 466.801 592.928ZM466.028 593.267C466.197 593.18 466.368 593.101 466.541 593.03C466.615 592.974 466.694 592.925 466.778 592.882L466.028 593.267ZM464.269 589.845C462.176 591.356 461.345 594.159 462.278 596.574L466.278 606.922C467.139 609.151 469.128 612.002 470.956 613.591L470.991 613.621L471.026 613.65L471.027 613.651L471.041 613.663L471.099 613.711C471.152 613.755 471.231 613.822 471.334 613.909C471.539 614.084 471.837 614.339 472.195 614.654C472.916 615.288 473.865 616.148 474.802 617.069C475.757 618.008 476.62 618.932 477.216 619.703C477.421 619.968 477.563 620.175 477.656 620.325V626.867H508.29V619.862C508.29 619.878 508.291 619.886 508.293 619.887C508.307 619.889 508.379 619.521 508.749 618.648C509.141 617.721 509.692 616.625 510.28 615.535C510.861 614.457 511.448 613.445 511.891 612.698C512.112 612.326 512.295 612.024 512.422 611.816C512.485 611.712 512.535 611.633 512.567 611.58L512.603 611.522L512.613 611.507L512.638 611.467L512.662 611.426C513.345 610.272 513.875 608.868 514.234 607.571C514.594 606.276 514.867 604.787 514.867 603.424V590.235L514.866 590.195C514.762 585.03 510.424 581.093 505.369 581.093C504.541 581.093 503.732 581.247 502.979 581.531C501.338 580.257 499.267 579.512 497.076 579.512C496.248 579.512 495.439 579.665 494.686 579.95C493.198 578.794 491.355 578.073 489.39 577.95L488.932 570.574C488.689 566.662 485.418 563.643 481.567 563.643C477.585 563.643 474.397 566.862 474.397 570.812V589.796C471.518 588.362 468.053 588.158 465.005 589.433M477.789 620.568C477.788 620.567 477.781 620.553 477.77 620.526C477.784 620.554 477.79 620.568 477.789 620.568ZM464.269 589.845L464.24 589.789L464.989 589.404"></path></g></g><circle style="fill:var(--color-illustrationInterface020)" cx="1050" cy="701" r="58"></circle><path style="fill:var(--color-illustrationHighlight010)" d="M1046.69 685.438H1052.81V691.564H1046.69V685.438Z"></path><path style="fill:var(--color-illustrationHighlight010)" d="M1046.69 697.689H1052.81V716.065H1046.69V697.689Z"></path><path style="fill:var(--color-illustrationHighlight010)" fill-rule="evenodd" clip-rule="evenodd" d="M1019.13 700.752C1019.13 683.846 1032.85 670.125 1049.75 670.125C1066.66 670.125 1080.38 683.846 1080.38 700.752C1080.38 717.657 1066.66 731.378 1049.75 731.378C1032.85 731.378 1019.13 717.657 1019.13 700.752ZM1025.25 700.752C1025.25 714.258 1036.25 725.252 1049.75 725.252C1063.26 725.252 1074.25 714.258 1074.25 700.752C1074.25 687.245 1063.26 676.251 1049.75 676.251C1036.25 676.251 1025.25 687.245 1025.25 700.752Z"></path><path style="fill:var(--color-illustrationHighlight010)" d="M827.576 486.978L813.244 494.339C811.589 495.189 809.62 493.989 809.62 492.131L809.62 477.814C809.62 475.98 811.542 474.778 813.193 475.58L827.526 482.535C829.369 483.43 829.399 486.042 827.576 486.978Z"></path><path style="fill:var(--color-illustrationHighlight010)" fill-rule="evenodd" clip-rule="evenodd" d="M522 543.52C522 544.252 522.573 544.846 523.279 544.846L525.879 544.846C526.586 544.846 527.159 544.252 527.159 543.52C527.159 542.787 526.586 542.194 525.879 542.194H523.279C522.573 542.194 522 542.787 522 543.52ZM529.799 543.52C529.799 544.252 530.372 544.846 531.078 544.846L536.277 544.846C536.984 544.846 537.557 544.252 537.557 543.52C537.557 542.787 536.984 542.194 536.277 542.194L531.078 542.194C530.372 542.194 529.799 542.787 529.799 543.52ZM540.197 543.52C540.197 544.252 540.77 544.846 541.477 544.846L546.676 544.846C547.382 544.846 547.955 544.252 547.955 543.52C547.955 542.787 547.382 542.194 546.676 542.194H541.477C540.77 542.194 540.197 542.787 540.197 543.52ZM550.596 543.52C550.596 544.252 551.168 544.846 551.875 544.846L557.074 544.846C557.781 544.846 558.354 544.252 558.354 543.52C558.354 542.787 557.781 542.194 557.074 542.194H551.875C551.168 542.194 550.596 542.787 550.596 543.52ZM560.994 543.52C560.994 544.252 561.567 544.846 562.273 544.846L567.473 544.846C568.179 544.846 568.752 544.252 568.752 543.52C568.752 542.787 568.179 542.194 567.473 542.194L562.273 542.194C561.567 542.194 560.994 542.787 560.994 543.52ZM571.392 543.52C571.392 544.252 571.965 544.846 572.672 544.846L577.871 544.846C578.578 544.846 579.151 544.252 579.151 543.52C579.151 542.787 578.578 542.194 577.871 542.194H572.672C571.965 542.194 571.392 542.787 571.392 543.52ZM581.791 543.52C581.791 544.252 582.364 544.846 583.07 544.846L588.269 544.846C588.976 544.846 589.549 544.252 589.549 543.52C589.549 542.787 588.976 542.194 588.269 542.194L583.07 542.194C582.364 542.194 581.791 542.787 581.791 543.52ZM592.189 543.52C592.189 544.252 592.762 544.846 593.469 544.846L598.668 544.846C599.374 544.846 599.947 544.252 599.947 543.52C599.947 542.787 599.374 542.194 598.668 542.194H593.469C592.762 542.194 592.189 542.787 592.189 543.52ZM602.588 543.52C602.588 544.252 603.16 544.846 603.867 544.846L609.066 544.846C609.773 544.846 610.346 544.252 610.346 543.52C610.346 542.787 609.773 542.194 609.066 542.194H603.867C603.16 542.194 602.588 542.787 602.588 543.52ZM612.986 543.52C612.986 544.252 613.559 544.846 614.265 544.846L619.465 544.846C620.171 544.846 620.744 544.252 620.744 543.52C620.744 542.787 620.171 542.194 619.465 542.194L614.265 542.194C613.559 542.194 612.986 542.787 612.986 543.52ZM623.384 543.52C623.384 544.252 623.957 544.846 624.664 544.846L629.863 544.846C630.57 544.846 631.142 544.252 631.142 543.52C631.142 542.787 630.57 542.194 629.863 542.194H624.664C623.957 542.194 623.384 542.787 623.384 543.52ZM633.783 543.52C633.783 544.252 634.356 544.846 635.062 544.846L640.261 544.846C640.968 544.846 641.541 544.252 641.541 543.52C641.541 542.787 640.968 542.194 640.261 542.194L635.062 542.194C634.356 542.194 633.783 542.787 633.783 543.52ZM644.181 543.52C644.181 544.252 644.754 544.846 645.461 544.846L648.06 544.846C648.948 544.846 649.827 544.801 650.693 544.714C651.397 544.643 651.911 543.994 651.843 543.265C651.774 542.536 651.149 542.003 650.445 542.074C649.661 542.153 648.865 542.194 648.06 542.194H645.461C644.754 542.194 644.181 542.787 644.181 543.52ZM654.266 542.769C654.471 543.47 655.186 543.866 655.862 543.653C657.562 543.119 659.191 542.416 660.729 541.562C661.352 541.216 661.587 540.412 661.253 539.767C660.919 539.121 660.144 538.878 659.521 539.224C658.129 539.996 656.657 540.632 655.12 541.115C654.444 541.327 654.062 542.068 654.266 542.769ZM663.306 538.342C663.754 538.908 664.561 538.99 665.106 538.525C666.466 537.367 667.714 536.074 668.83 534.665C669.279 534.099 669.2 533.264 668.654 532.799C668.108 532.334 667.302 532.416 666.853 532.982C665.842 534.257 664.713 535.428 663.482 536.476C662.936 536.941 662.857 537.776 663.306 538.342ZM670.029 530.671C670.651 531.017 671.427 530.774 671.761 530.128C672.585 528.534 673.264 526.846 673.779 525.084C673.984 524.383 673.601 523.643 672.925 523.43C672.249 523.218 671.534 523.614 671.33 524.315C670.864 525.908 670.25 527.434 669.505 528.876C669.171 529.522 669.406 530.326 670.029 530.671ZM673.404 520.918C674.108 520.989 674.733 520.456 674.802 519.727C674.886 518.829 674.929 517.918 674.929 516.998V515.672C674.929 514.94 674.357 514.347 673.651 514.346C674.357 514.345 674.929 513.751 674.929 513.02V511.694C674.929 510.859 674.968 510.034 675.045 509.221C675.113 508.492 674.598 507.844 673.895 507.773C673.192 507.702 672.566 508.236 672.498 508.964C672.413 509.863 672.37 510.773 672.37 511.694V513.02C672.37 513.751 672.942 514.345 673.648 514.346C672.942 514.347 672.37 514.94 672.37 515.672V516.998C672.37 517.832 672.331 518.657 672.255 519.47C672.186 520.199 672.701 520.847 673.404 520.918ZM674.374 505.261C675.051 505.474 675.765 505.077 675.97 504.377C676.435 502.784 677.049 501.258 677.795 499.815C678.128 499.17 677.894 498.366 677.271 498.02C676.648 497.674 675.872 497.917 675.539 498.563C674.715 500.158 674.036 501.846 673.521 503.608C673.316 504.308 673.698 505.049 674.374 505.261ZM678.645 495.893C679.191 496.358 679.997 496.276 680.446 495.71C681.457 494.434 682.587 493.264 683.817 492.216C684.363 491.751 684.442 490.915 683.994 490.349C683.545 489.783 682.739 489.702 682.193 490.167C680.833 491.324 679.586 492.617 678.469 494.026C678.02 494.592 678.099 495.428 678.645 495.893ZM686.046 488.925C686.38 489.57 687.155 489.813 687.778 489.468C689.17 488.695 690.643 488.059 692.179 487.576C692.856 487.364 693.238 486.624 693.033 485.923C692.828 485.222 692.114 484.826 691.437 485.038C689.737 485.572 688.109 486.276 686.57 487.13C685.947 487.476 685.713 488.279 686.046 488.925ZM695.457 485.426C695.525 486.155 696.151 486.688 696.854 486.618C697.638 486.538 698.434 486.498 699.239 486.498H701.841C702.548 486.498 703.121 485.904 703.121 485.172C703.121 484.439 702.548 483.846 701.841 483.846H699.239C698.351 483.846 697.473 483.89 696.606 483.978C695.903 484.049 695.388 484.697 695.457 485.426ZM705.765 485.172C705.765 485.904 706.338 486.498 707.045 486.498H712.248C712.955 486.498 713.528 485.904 713.528 485.172C713.528 484.439 712.955 483.846 712.248 483.846H707.045C706.338 483.846 705.765 484.439 705.765 485.172ZM716.173 485.172C716.173 485.904 716.745 486.498 717.452 486.498H722.656C723.362 486.498 723.935 485.904 723.935 485.172C723.935 484.439 723.362 483.846 722.656 483.846H717.452C716.745 483.846 716.173 484.439 716.173 485.172ZM726.58 485.172C726.58 485.904 727.153 486.498 727.86 486.498H733.063C733.77 486.498 734.343 485.904 734.343 485.172C734.343 484.439 733.77 483.846 733.063 483.846H727.86C727.153 483.846 726.58 484.439 726.58 485.172ZM736.987 485.172C736.987 485.904 737.56 486.498 738.267 486.498H743.471C744.177 486.498 744.75 485.904 744.75 485.172C744.75 484.439 744.177 483.846 743.471 483.846H738.267C737.56 483.846 736.987 484.439 736.987 485.172ZM747.395 485.172C747.395 485.904 747.968 486.498 748.674 486.498H753.878C754.585 486.498 755.157 485.904 755.157 485.172C755.157 484.439 754.585 483.846 753.878 483.846H748.674C747.968 483.846 747.395 484.439 747.395 485.172ZM757.802 485.172C757.802 485.904 758.375 486.498 759.082 486.498H764.285C764.992 486.498 765.565 485.904 765.565 485.172C765.565 484.439 764.992 483.846 764.285 483.846H759.082C758.375 483.846 757.802 484.439 757.802 485.172ZM768.21 485.172C768.21 485.904 768.782 486.498 769.489 486.498H774.693C775.399 486.498 775.972 485.904 775.972 485.172C775.972 484.439 775.399 483.846 774.693 483.846H769.489C768.782 483.846 768.21 484.439 768.21 485.172ZM778.617 485.172C778.617 485.904 779.19 486.498 779.897 486.498H785.1C785.807 486.498 786.38 485.904 786.38 485.172C786.38 484.439 785.807 483.846 785.1 483.846H779.897C779.19 483.846 778.617 484.439 778.617 485.172ZM789.024 485.172C789.024 485.904 789.597 486.498 790.304 486.498H795.508C796.214 486.498 796.787 485.904 796.787 485.172C796.787 484.439 796.214 483.846 795.508 483.846H790.304C789.597 483.846 789.024 484.439 789.024 485.172ZM799.432 485.172C799.432 485.904 800.005 486.498 800.711 486.498H805.915C806.622 486.498 807.194 485.904 807.194 485.172C807.194 484.439 806.622 483.846 805.915 483.846H800.711C800.005 483.846 799.432 484.439 799.432 485.172ZM809.839 485.172C809.839 485.904 810.412 486.498 811.119 486.498H813.721C814.427 486.498 815 485.904 815 485.172C815 484.439 814.427 483.846 813.721 483.846H811.119C810.412 483.846 809.839 484.439 809.839 485.172Z"></path></g><defs><filter id="nk-1295" x="738.747" y="110.249" width="626.506" height="547.279" filterUnits="userSpaceOnUse" color-interpolation-filters="sRGB"><feFlood flood-opacity="0" result="BackgroundImageFix"></feFlood><feColorMatrix in="SourceAlpha" type="matrix" values="0 0 0 0 0 0 0 0 0 0 0 0 0 0 0 0 0 0 127 0" result="hardAlpha"></feColorMatrix><feOffset dy="19.5021"></feOffset><feGaussianBlur stdDeviation="14.6266"></feGaussianBlur><feColorMatrix type="matrix" values="0 0 0 0 0.0392157 0 0 0 0 0.0392157 0 0 0 0 0.0392157 0 0 0 0.08 0"></feColorMatrix><feBlend mode="normal" in2="BackgroundImageFix" result="effect1_dropShadow_1870_59091"></feBlend><feBlend mode="normal" in="SourceGraphic" in2="effect1_dropShadow_1870_59091" result="shape"></feBlend></filter><filter id="nk-1296" x="420" y="540" width="136.286" height="136.286" filterUnits="userSpaceOnUse" color-interpolation-filters="sRGB"><feFlood flood-opacity="0" result="BackgroundImageFix"></feFlood><feColorMatrix in="SourceAlpha" type="matrix" values="0 0 0 0 0 0 0 0 0 0 0 0 0 0 0 0 0 0 127 0" result="hardAlpha"></feColorMatrix><feOffset dy="8"></feOffset><feGaussianBlur stdDeviation="8"></feGaussianBlur><feColorMatrix type="matrix" values="0 0 0 0 0.0392157 0 0 0 0 0.0392157 0 0 0 0 0.0392157 0 0 0 0.08 0"></feColorMatrix><feBlend mode="normal" in2="BackgroundImageFix" result="effect1_dropShadow_1870_59091"></feBlend><feBlend mode="normal" in="SourceGraphic" in2="effect1_dropShadow_1870_59091" result="shape"></feBlend></filter><clipPath id="nk-1293"><rect style="fill:var(--color-white)" width="1490" height="838"></rect></clipPath><clipPath id="nk-1294"><rect style="fill:var(--color-white)" width="955.26" height="586" transform="translate(-351.26 125.846)"></rect></clipPath></defs></svg>