<svg id="nksvg" style="width: 100%; height: 100%" width="1490" height="838" viewBox="0 0 1490 838" fill="none" xmlns="http://www.w3.org/2000/svg" class="css-0">
  <path style="fill: var(--color-illustrationBackground020)" d="M0 0H1490V838H0V0Z"></path>
  <path style="fill: var(--color-illustrationHighlight010)" d="M399.15 252.7C399.15 254.473 398.732 256.146 397.896 257.718C397.059 259.291 395.721 260.578 393.881 261.582C392.041 262.552 389.683 263.037 386.806 263.037H380.484V277.188H374.763V242.314H386.806C389.482 242.314 391.74 242.782 393.58 243.719C395.454 244.622 396.842 245.859 397.745 247.432C398.682 249.004 399.15 250.76 399.15 252.7ZM386.806 258.371C388.981 258.371 390.603 257.886 391.673 256.915C392.744 255.912 393.279 254.507 393.279 252.7C393.279 248.887 391.122 246.98 386.806 246.98H380.484V258.371H386.806ZM402.699 263.238C402.699 260.461 403.268 258.003 404.405 255.862C405.576 253.721 407.148 252.065 409.122 250.894C411.129 249.69 413.337 249.088 415.745 249.088C417.92 249.088 419.81 249.523 421.415 250.392C423.055 251.229 424.359 252.282 425.329 253.554V249.539H431.1V277.188H425.329V273.073C424.359 274.378 423.038 275.465 421.365 276.334C419.693 277.204 417.786 277.639 415.645 277.639C413.27 277.639 411.095 277.037 409.122 275.833C407.148 274.595 405.576 272.889 404.405 270.714C403.268 268.507 402.699 266.014 402.699 263.238ZM425.329 263.338C425.329 261.432 424.928 259.776 424.125 258.371C423.356 256.966 422.335 255.895 421.064 255.159C419.793 254.423 418.422 254.055 416.95 254.055C415.478 254.055 414.106 254.423 412.835 255.159C411.564 255.862 410.527 256.915 409.724 258.32C408.955 259.692 408.57 261.331 408.57 263.238C408.57 265.145 408.955 266.817 409.724 268.256C410.527 269.694 411.564 270.798 412.835 271.568C414.14 272.303 415.511 272.671 416.95 272.671C418.422 272.671 419.793 272.303 421.064 271.568C422.335 270.832 423.356 269.761 424.125 268.356C424.928 266.918 425.329 265.245 425.329 263.338ZM448.649 277.639C446.475 277.639 444.518 277.254 442.778 276.485C441.072 275.682 439.717 274.612 438.714 273.274C437.71 271.902 437.175 270.38 437.108 268.707H443.029C443.129 269.878 443.681 270.865 444.685 271.668C445.722 272.437 447.01 272.822 448.549 272.822C450.154 272.822 451.392 272.521 452.262 271.919C453.165 271.283 453.617 270.48 453.617 269.51C453.617 268.473 453.115 267.704 452.111 267.202C451.141 266.7 449.586 266.148 447.445 265.546C445.371 264.977 443.681 264.425 442.377 263.89C441.072 263.355 439.935 262.535 438.965 261.432C438.028 260.328 437.56 258.872 437.56 257.066C437.56 255.594 437.994 254.256 438.864 253.052C439.734 251.814 440.972 250.844 442.577 250.141C444.217 249.439 446.09 249.088 448.197 249.088C451.342 249.088 453.868 249.89 455.774 251.496C457.715 253.068 458.752 255.226 458.885 257.969H453.165C453.065 256.731 452.563 255.745 451.66 255.009C450.756 254.273 449.535 253.905 447.997 253.905C446.491 253.905 445.337 254.189 444.534 254.758C443.732 255.326 443.33 256.079 443.33 257.016C443.33 257.752 443.598 258.371 444.133 258.872C444.668 259.374 445.321 259.776 446.09 260.077C446.859 260.344 447.997 260.696 449.502 261.13C451.509 261.666 453.148 262.218 454.42 262.786C455.724 263.322 456.845 264.124 457.781 265.195C458.718 266.265 459.203 267.687 459.237 269.46C459.237 271.032 458.802 272.437 457.932 273.675C457.062 274.913 455.825 275.883 454.219 276.585C452.647 277.288 450.79 277.639 448.649 277.639ZM475.453 277.639C473.279 277.639 471.322 277.254 469.582 276.485C467.876 275.682 466.522 274.612 465.518 273.274C464.514 271.902 463.979 270.38 463.912 268.707H469.833C469.934 269.878 470.486 270.865 471.489 271.668C472.526 272.437 473.814 272.822 475.353 272.822C476.959 272.822 478.196 272.521 479.066 271.919C479.969 271.283 480.421 270.48 480.421 269.51C480.421 268.473 479.919 267.704 478.916 267.202C477.945 266.7 476.39 266.148 474.249 265.546C472.175 264.977 470.486 264.425 469.181 263.89C467.876 263.355 466.739 262.535 465.769 261.432C464.832 260.328 464.364 258.872 464.364 257.066C464.364 255.594 464.799 254.256 465.668 253.052C466.538 251.814 467.776 250.844 469.382 250.141C471.021 249.439 472.894 249.088 475.002 249.088C478.146 249.088 480.672 249.89 482.579 251.496C484.519 253.068 485.556 255.226 485.69 257.969H479.969C479.869 256.731 479.367 255.745 478.464 255.009C477.561 254.273 476.34 253.905 474.801 253.905C473.296 253.905 472.141 254.189 471.339 254.758C470.536 255.326 470.134 256.079 470.134 257.016C470.134 257.752 470.402 258.371 470.937 258.872C471.472 259.374 472.125 259.776 472.894 260.077C473.664 260.344 474.801 260.696 476.306 261.13C478.313 261.666 479.953 262.218 481.224 262.786C482.528 263.322 483.649 264.124 484.586 265.195C485.522 266.265 486.007 267.687 486.041 269.46C486.041 271.032 485.606 272.437 484.736 273.675C483.866 274.913 482.629 275.883 481.023 276.585C479.451 277.288 477.594 277.639 475.453 277.639ZM529.354 249.539L520.773 277.188H514.752L509.182 256.765L503.612 277.188H497.591L488.96 249.539H494.781L500.551 271.768L506.422 249.539H512.394L518.013 271.668L523.734 249.539H529.354ZM545.621 277.639C543.012 277.639 540.654 277.054 538.546 275.883C536.439 274.679 534.783 273.006 533.579 270.865C532.374 268.691 531.772 266.182 531.772 263.338C531.772 260.528 532.391 258.036 533.629 255.862C534.866 253.687 536.556 252.015 538.697 250.844C540.838 249.673 543.23 249.088 545.872 249.088C548.515 249.088 550.907 249.673 553.048 250.844C555.189 252.015 556.878 253.687 558.116 255.862C559.353 258.036 559.972 260.528 559.972 263.338C559.972 266.148 559.337 268.64 558.066 270.815C556.794 272.989 555.055 274.679 552.847 275.883C550.673 277.054 548.264 277.639 545.621 277.639ZM545.621 272.671C547.093 272.671 548.465 272.32 549.736 271.618C551.041 270.915 552.094 269.861 552.897 268.456C553.7 267.051 554.101 265.345 554.101 263.338C554.101 261.331 553.717 259.642 552.947 258.27C552.178 256.865 551.158 255.812 549.887 255.109C548.615 254.407 547.244 254.055 545.772 254.055C544.3 254.055 542.928 254.407 541.657 255.109C540.42 255.812 539.433 256.865 538.697 258.27C537.961 259.642 537.593 261.331 537.593 263.338C537.593 266.316 538.345 268.624 539.851 270.263C541.39 271.869 543.313 272.671 545.621 272.671ZM571.348 253.554C572.184 252.149 573.288 251.061 574.659 250.292C576.064 249.489 577.72 249.088 579.627 249.088V255.009H578.172C575.931 255.009 574.224 255.577 573.054 256.715C571.916 257.852 571.348 259.826 571.348 262.636V277.188H565.627V249.539H571.348V253.554ZM582.978 263.238C582.978 260.461 583.547 258.003 584.684 255.862C585.855 253.721 587.427 252.065 589.401 250.894C591.408 249.69 593.633 249.088 596.075 249.088C597.881 249.088 599.654 249.489 601.394 250.292C603.167 251.061 604.572 252.098 605.609 253.403V240.056H611.379V277.188H605.609V273.023C604.672 274.361 603.367 275.465 601.695 276.334C600.056 277.204 598.166 277.639 596.025 277.639C593.616 277.639 591.408 277.037 589.401 275.833C587.427 274.595 585.855 272.889 584.684 270.714C583.547 268.507 582.978 266.014 582.978 263.238ZM605.609 263.338C605.609 261.432 605.207 259.776 604.404 258.371C603.635 256.966 602.615 255.895 601.344 255.159C600.072 254.423 598.701 254.055 597.229 254.055C595.757 254.055 594.386 254.423 593.114 255.159C591.843 255.862 590.806 256.915 590.003 258.32C589.234 259.692 588.849 261.331 588.849 263.238C588.849 265.145 589.234 266.817 590.003 268.256C590.806 269.694 591.843 270.798 593.114 271.568C594.419 272.303 595.791 272.671 597.229 272.671C598.701 272.671 600.072 272.303 601.344 271.568C602.615 270.832 603.635 269.761 604.404 268.356C605.207 266.918 605.609 265.245 605.609 263.338Z"></path>
  <rect style="fill: var(--color-interfaceBackground)" x="373" y="324.086" width="744" height="178.02" rx="22"></rect>
  <path style="fill: var(--color-illustrationHighlight010)" d="M427.436 421.726L428.124 412.952L421.013 417.941L419.006 414.443L426.977 410.945L419.063 407.504L420.956 404.121L428.181 409.11L427.378 400.336H431.278L430.418 409.11L437.586 404.121L439.421 407.447L431.507 411.002L439.479 414.501L437.586 417.884L430.418 412.952L431.221 421.726H427.436Z"></path>
  <path style="fill: var(--color-illustrationHighlight010)" d="M454.821 421.726L455.509 412.952L448.398 417.941L446.391 414.443L454.362 410.945L446.448 407.504L448.341 404.121L455.567 409.11L454.764 400.336H458.663L457.803 409.11L464.971 404.121L466.807 407.447L458.893 411.002L466.864 414.501L464.971 417.884L457.803 412.952L458.606 421.726H454.821Z"></path>
  <path style="fill: var(--color-illustrationHighlight010)" d="M482.206 421.726L482.895 412.952L475.784 417.941L473.776 414.443L481.748 410.945L473.834 407.504L475.726 404.121L482.952 409.11L482.149 400.336H486.049L485.188 409.11L492.357 404.121L494.192 407.447L486.278 411.002L494.249 414.501L492.357 417.884L485.188 412.952L485.991 421.726H482.206Z"></path>
  <path style="fill: var(--color-illustrationHighlight010)" d="M509.592 421.726L510.28 412.952L503.169 417.941L501.162 414.443L509.133 410.945L501.219 407.504L503.111 404.121L510.337 409.11L509.534 400.336H513.434L512.574 409.11L519.742 404.121L521.577 407.447L513.663 411.002L521.634 414.501L519.742 417.884L512.574 412.952L513.377 421.726H509.592Z"></path>
  <path style="fill: var(--color-illustrationHighlight010)" d="M536.977 421.726L537.665 412.952L530.554 417.941L528.547 414.443L536.518 410.945L528.604 407.504L530.497 404.121L537.722 409.11L536.92 400.336H540.819L539.959 409.11L547.127 404.121L548.962 407.447L541.049 411.002L549.02 414.501L547.127 417.884L539.959 412.952L540.762 421.726H536.977Z"></path>
  <path style="fill: var(--color-illustrationHighlight010)" d="M564.362 421.726L565.05 412.952L557.939 417.941L555.932 414.443L563.903 410.945L555.99 407.504L557.882 404.121L565.108 409.11L564.305 400.336H568.204L567.344 409.11L574.513 404.121L576.348 407.447L568.434 411.002L576.405 414.501L574.513 417.884L567.344 412.952L568.147 421.726H564.362Z"></path>
  <path style="fill: var(--color-illustrationHighlight010)" d="M591.747 421.726L592.436 412.952L585.325 417.941L583.317 414.443L591.289 410.945L583.375 407.504L585.267 404.121L592.493 409.11L591.69 400.336H595.59L594.729 409.11L601.898 404.121L603.733 407.447L595.819 411.002L603.79 414.501L601.898 417.884L594.729 412.952L595.532 421.726H591.747Z"></path>
  <path style="fill: var(--color-illustrationHighlight010)" d="M619.133 421.726L619.821 412.952L612.71 417.941L610.703 414.443L618.674 410.945L610.76 407.504L612.653 404.121L619.878 409.11L619.075 400.336H622.975L622.115 409.11L629.283 404.121L631.118 407.447L623.204 411.002L631.175 414.501L629.283 417.884L622.115 412.952L622.918 421.726H619.133Z"></path>
  <path style="fill: var(--color-illustrationHighlight010)" d="M646.518 421.726L647.206 412.952L640.095 417.941L638.088 414.443L646.059 410.945L638.145 407.504L640.038 404.121L647.263 409.11L646.461 400.336H650.36L649.5 409.11L656.668 404.121L658.503 407.447L650.59 411.002L658.561 414.501L656.668 417.884L649.5 412.952L650.303 421.726H646.518Z"></path>
  <path style="fill: var(--color-illustrationHighlight010)" d="M673.903 421.726L674.591 412.952L667.48 417.941L665.473 414.443L673.444 410.945L665.531 407.504L667.423 404.121L674.649 409.11L673.846 400.336H677.745L676.885 409.11L684.054 404.121L685.889 407.447L677.975 411.002L685.946 414.501L684.054 417.884L676.885 412.952L677.688 421.726H673.903Z"></path>
  <path style="fill: var(--color-illustrationHighlight010)" d="M701.288 421.726L701.977 412.952L694.866 417.941L692.859 414.443L700.83 410.945L692.916 407.504L694.808 404.121L702.034 409.11L701.231 400.336H705.131L704.271 409.11L711.439 404.121L713.274 407.447L705.36 411.002L713.331 414.501L711.439 417.884L704.271 412.952L705.073 421.726H701.288Z"></path>
  <path style="fill: var(--color-illustrationHighlight010)" d="M728.674 421.726L729.362 412.952L722.251 417.941L720.244 414.443L728.215 410.945L720.301 407.504L722.194 404.121L729.419 409.11L728.616 400.336H732.516L731.656 409.11L738.824 404.121L740.659 407.447L732.745 411.002L740.717 414.501L738.824 417.884L731.656 412.952L732.459 421.726H728.674Z"></path>
  <path style="fill: var(--color-illustrationHighlight010)" d="M756.059 421.726L756.747 412.952L749.636 417.941L747.629 414.443L755.6 410.945L747.686 407.504L749.579 404.121L756.805 409.11L756.002 400.336H759.901L759.041 409.11L766.209 404.121L768.044 407.447L760.131 411.002L768.102 414.501L766.209 417.884L759.041 412.952L759.844 421.726H756.059Z"></path>
  <rect x="373" y="324.086" width="744" height="178.02" rx="22" stroke="#BBC3C9" stroke-width="4"></rect>
</svg>
