<svg id="nksvg" style="width: 100%; height: 100%" width="1490" height="838" viewBox="0 0 1490 838" fill="none" xmlns="http://www.w3.org/2000/svg" class="css-0">
  <path style="fill: var(--color-illustrationBackground020)" d="M0 0H1490V838H0V0Z"></path>
  <path style="fill: var(--color-illustrationHighlight010)" d="M366.001 281.109L366.001 222.688L371.703 222.688L371.703 281.109L366.001 281.109Z"></path>
  <path style="fill: var(--color-illustrationHighlight010)" d="M1117.3 281.109L1117.3 222.688L1123 222.688L1123 281.109L1117.3 281.109Z"></path>
  <path style="fill: var(--color-illustrationHighlight010)" d="M368.852 254.051L368.852 248.348L1120.15 248.348L1120.15 254.051L368.852 254.051Z"></path>
  <path style="fill: var(--color-illustrationHighlight010)" d="M370.386 364.43H379.428V367.97H366V341.229H370.386V364.43Z"></path>
  <path style="fill: var(--color-illustrationHighlight010)" d="M381.634 357.273C381.634 355.145 382.07 353.259 382.942 351.618C383.84 349.976 385.045 348.706 386.559 347.809C388.098 346.885 389.79 346.424 391.637 346.424C393.305 346.424 394.754 346.757 395.985 347.424C397.242 348.065 398.242 348.873 398.986 349.848V346.77H403.411V367.97H398.986V364.815C398.242 365.815 397.229 366.649 395.946 367.315C394.664 367.982 393.202 368.316 391.56 368.316C389.739 368.316 388.072 367.854 386.559 366.931C385.045 365.982 383.84 364.674 382.942 363.006C382.07 361.313 381.634 359.402 381.634 357.273ZM398.986 357.35C398.986 355.888 398.678 354.619 398.063 353.541C397.473 352.464 396.69 351.643 395.716 351.079C394.741 350.515 393.689 350.233 392.561 350.233C391.432 350.233 390.38 350.515 389.406 351.079C388.431 351.618 387.636 352.426 387.02 353.503C386.43 354.555 386.135 355.811 386.135 357.273C386.135 358.736 386.43 360.018 387.02 361.121C387.636 362.224 388.431 363.07 389.406 363.66C390.406 364.225 391.458 364.507 392.561 364.507C393.689 364.507 394.741 364.225 395.716 363.66C396.69 363.096 397.473 362.275 398.063 361.198C398.678 360.095 398.986 358.812 398.986 357.35Z"></path>
  <path style="fill: var(--color-illustrationHighlight010)" d="M413.558 349.925C414.302 348.899 415.315 348.065 416.597 347.424C417.905 346.757 419.355 346.424 420.945 346.424C422.817 346.424 424.51 346.872 426.024 347.77C427.537 348.668 428.73 349.95 429.602 351.618C430.474 353.259 430.91 355.145 430.91 357.273C430.91 359.402 430.474 361.313 429.602 363.006C428.73 364.674 427.524 365.982 425.985 366.931C424.472 367.854 422.792 368.316 420.945 368.316C419.303 368.316 417.841 367.995 416.559 367.354C415.302 366.713 414.302 365.892 413.558 364.892V367.97H409.172V339.498H413.558V349.925ZM426.447 357.273C426.447 355.811 426.139 354.555 425.524 353.503C424.934 352.426 424.138 351.618 423.138 351.079C422.163 350.515 421.112 350.233 419.983 350.233C418.88 350.233 417.829 350.515 416.828 351.079C415.853 351.643 415.058 352.464 414.443 353.541C413.853 354.619 413.558 355.888 413.558 357.35C413.558 358.812 413.853 360.095 414.443 361.198C415.058 362.275 415.853 363.096 416.828 363.66C417.829 364.225 418.88 364.507 419.983 364.507C421.112 364.507 422.163 364.225 423.138 363.66C424.138 363.07 424.934 362.224 425.524 361.121C426.139 360.018 426.447 358.736 426.447 357.273Z"></path>
  <path style="fill: var(--color-illustrationHighlight010)" d="M454.677 356.85C454.677 357.645 454.626 358.364 454.523 359.005H438.325C438.454 360.698 439.082 362.057 440.211 363.083C441.339 364.109 442.724 364.622 444.366 364.622C446.726 364.622 448.393 363.635 449.368 361.66H454.1C453.459 363.609 452.292 365.212 450.599 366.469C448.932 367.7 446.854 368.316 444.366 368.316C442.34 368.316 440.519 367.867 438.903 366.969C437.312 366.046 436.055 364.763 435.132 363.122C434.234 361.454 433.785 359.531 433.785 357.35C433.785 355.17 434.221 353.259 435.094 351.618C435.991 349.95 437.235 348.668 438.826 347.77C440.442 346.872 442.288 346.424 444.366 346.424C446.367 346.424 448.149 346.86 449.714 347.732C451.279 348.604 452.497 349.835 453.369 351.425C454.241 352.99 454.677 354.798 454.677 356.85ZM450.099 355.465C450.073 353.849 449.496 352.554 448.367 351.579C447.239 350.604 445.841 350.117 444.174 350.117C442.66 350.117 441.365 350.604 440.288 351.579C439.21 352.528 438.569 353.824 438.364 355.465H450.099Z"></path>
  <path style="fill: var(--color-illustrationHighlight010)" d="M463.38 339.498V367.97H458.994V339.498H463.38Z"></path>
  <rect style="fill: var(--color-interfaceBackground)" x="367.815" y="406.815" width="753.37" height="149.37" rx="22.1852"></rect>
  <rect x="367.815" y="406.815" width="753.37" height="149.37" rx="22.1852" stroke="#BBC3C9" stroke-width="3.62953"></rect>
  <path style="fill: var(--color-illustrationHighlight010)" d="M367.155 607.46L377.082 580.527H380.506L390.394 607.46H386.97L384.507 600.534H373.042L370.541 607.46H367.155ZM374.004 597.918H383.545L378.774 584.606L374.004 597.918Z"></path>
  <path style="fill: var(--color-illustrationHighlight010)" d="M401.516 607.922C399.233 607.922 397.335 607.344 395.821 606.19C394.308 605.036 393.423 603.471 393.167 601.496H396.475C396.681 602.497 397.206 603.369 398.053 604.112C398.925 604.831 400.092 605.19 401.554 605.19C402.914 605.19 403.914 604.908 404.555 604.343C405.196 603.753 405.517 603.061 405.517 602.266C405.517 601.111 405.094 600.342 404.247 599.957C403.427 599.572 402.259 599.226 400.746 598.918C399.72 598.713 398.694 598.418 397.668 598.033C396.642 597.649 395.783 597.11 395.09 596.417C394.398 595.699 394.051 594.763 394.051 593.609C394.051 591.942 394.667 590.582 395.898 589.53C397.155 588.453 398.848 587.915 400.977 587.915C403.003 587.915 404.658 588.428 405.94 589.454C407.248 590.454 408.005 591.89 408.21 593.763H405.017C404.889 592.788 404.465 592.031 403.747 591.493C403.055 590.928 402.118 590.646 400.938 590.646C399.784 590.646 398.886 590.89 398.245 591.377C397.63 591.865 397.322 592.506 397.322 593.301C397.322 594.071 397.719 594.673 398.515 595.109C399.335 595.545 400.438 595.917 401.823 596.225C403.003 596.482 404.119 596.802 405.171 597.187C406.248 597.546 407.12 598.098 407.787 598.841C408.48 599.56 408.826 600.611 408.826 601.996C408.851 603.715 408.197 605.138 406.864 606.267C405.555 607.37 403.773 607.922 401.516 607.922Z"></path>
  <path style="fill: var(--color-illustrationHighlight010)" d="M420.753 607.922C418.47 607.922 416.572 607.344 415.059 606.19C413.545 605.036 412.661 603.471 412.404 601.496H415.713C415.918 602.497 416.444 603.369 417.29 604.112C418.162 604.831 419.33 605.19 420.792 605.19C422.151 605.19 423.151 604.908 423.793 604.343C424.434 603.753 424.754 603.061 424.754 602.266C424.754 601.111 424.331 600.342 423.485 599.957C422.664 599.572 421.497 599.226 419.984 598.918C418.958 598.713 417.932 598.418 416.906 598.033C415.88 597.649 415.02 597.11 414.328 596.417C413.635 595.699 413.289 594.763 413.289 593.609C413.289 591.942 413.905 590.582 415.136 589.53C416.393 588.453 418.085 587.915 420.214 587.915C422.241 587.915 423.895 588.428 425.178 589.454C426.486 590.454 427.243 591.89 427.448 593.763H424.254C424.126 592.788 423.703 592.031 422.985 591.493C422.292 590.928 421.356 590.646 420.176 590.646C419.022 590.646 418.124 590.89 417.483 591.377C416.867 591.865 416.559 592.506 416.559 593.301C416.559 594.071 416.957 594.673 417.752 595.109C418.573 595.545 419.676 595.917 421.061 596.225C422.241 596.482 423.357 596.802 424.408 597.187C425.486 597.546 426.358 598.098 427.025 598.841C427.717 599.56 428.063 600.611 428.063 601.996C428.089 603.715 427.435 605.138 426.101 606.267C424.793 607.37 423.01 607.922 420.753 607.922Z"></path>
  <path style="fill: var(--color-illustrationHighlight010)" d="M434.643 584.144C434.001 584.144 433.463 583.939 433.027 583.528C432.616 583.092 432.411 582.554 432.411 581.912C432.411 581.297 432.616 580.784 433.027 580.373C433.463 579.963 434.001 579.758 434.643 579.758C435.258 579.758 435.784 579.963 436.22 580.373C436.656 580.784 436.874 581.297 436.874 581.912C436.874 582.554 436.656 583.092 436.22 583.528C435.784 583.939 435.258 584.144 434.643 584.144ZM433.027 607.46V588.376H436.259V607.46H433.027Z"></path>
  <path style="fill: var(--color-illustrationHighlight010)" d="M449.196 607.922C446.913 607.922 445.015 607.344 443.502 606.19C441.988 605.036 441.103 603.471 440.847 601.496H444.156C444.361 602.497 444.887 603.369 445.733 604.112C446.605 604.831 447.772 605.19 449.234 605.19C450.594 605.19 451.594 604.908 452.236 604.343C452.877 603.753 453.197 603.061 453.197 602.266C453.197 601.111 452.774 600.342 451.928 599.957C451.107 599.572 449.94 599.226 448.427 598.918C447.401 598.713 446.375 598.418 445.349 598.033C444.323 597.649 443.463 597.11 442.771 596.417C442.078 595.699 441.732 594.763 441.732 593.609C441.732 591.942 442.347 590.582 443.579 589.53C444.836 588.453 446.528 587.915 448.657 587.915C450.684 587.915 452.338 588.428 453.621 589.454C454.929 590.454 455.685 591.89 455.891 593.763H452.697C452.569 592.788 452.146 592.031 451.428 591.493C450.735 590.928 449.799 590.646 448.619 590.646C447.465 590.646 446.567 590.89 445.926 591.377C445.31 591.865 445.002 592.506 445.002 593.301C445.002 594.071 445.4 594.673 446.195 595.109C447.016 595.545 448.119 595.917 449.504 596.225C450.684 596.482 451.799 596.802 452.851 597.187C453.928 597.546 454.801 598.098 455.467 598.841C456.16 599.56 456.506 600.611 456.506 601.996C456.532 603.715 455.878 605.138 454.544 606.267C453.236 607.37 451.453 607.922 449.196 607.922Z"></path>
  <path style="fill: var(--color-illustrationHighlight010)" d="M467.8 607.46C466.056 607.46 464.684 607.037 463.683 606.19C462.683 605.344 462.183 603.818 462.183 601.612V591.108H458.874V588.376H462.183L462.606 583.798H465.415V588.376H471.032V591.108H465.415V601.612C465.415 602.817 465.658 603.638 466.146 604.074C466.633 604.484 467.492 604.69 468.724 604.69H470.724V607.46H467.8Z"></path>
  <path style="fill: var(--color-illustrationHighlight010)" d="M477.1 584.144C476.459 584.144 475.92 583.939 475.484 583.528C475.074 583.092 474.869 582.554 474.869 581.912C474.869 581.297 475.074 580.784 475.484 580.373C475.92 579.963 476.459 579.758 477.1 579.758C477.716 579.758 478.242 579.963 478.678 580.373C479.114 580.784 479.332 581.297 479.332 581.912C479.332 582.554 479.114 583.092 478.678 583.528C478.242 583.939 477.716 584.144 477.1 584.144ZM475.484 607.46V588.376H478.716V607.46H475.484Z"></path>
  <path style="fill: var(--color-illustrationHighlight010)" d="M489.845 607.46L482.612 588.376H485.998L491.731 604.343L497.502 588.376H500.811L493.578 607.46H489.845Z"></path>
  <path style="fill: var(--color-illustrationHighlight010)" d="M512.011 607.922C510.189 607.922 508.574 607.511 507.163 606.69C505.752 605.844 504.636 604.677 503.815 603.189C503.02 601.701 502.623 599.944 502.623 597.918C502.623 595.917 503.02 594.173 503.815 592.685C504.611 591.172 505.714 590.005 507.124 589.184C508.561 588.338 510.215 587.915 512.088 587.915C513.934 587.915 515.525 588.338 516.858 589.184C518.218 590.005 519.257 591.095 519.975 592.455C520.693 593.814 521.052 595.276 521.052 596.841C521.052 597.123 521.039 597.405 521.014 597.687C521.014 597.969 521.014 598.29 521.014 598.649H505.816C505.893 600.111 506.227 601.329 506.817 602.304C507.432 603.253 508.189 603.971 509.087 604.459C510.01 604.946 510.985 605.19 512.011 605.19C513.344 605.19 514.46 604.882 515.358 604.266C516.256 603.651 516.91 602.817 517.32 601.766H520.514C520.001 603.535 519.013 605.01 517.551 606.19C516.115 607.344 514.268 607.922 512.011 607.922ZM512.011 590.646C510.472 590.646 509.099 591.121 507.894 592.07C506.714 592.993 506.034 594.353 505.855 596.148H517.859C517.782 594.43 517.192 593.083 516.089 592.108C514.986 591.134 513.627 590.646 512.011 590.646Z"></path>
  <path style="fill: var(--color-illustrationHighlight010)" d="M543.059 607.46C541.315 607.46 539.943 607.037 538.943 606.19C537.942 605.344 537.442 603.818 537.442 601.612V591.108H534.133V588.376H537.442L537.865 583.798H540.674V588.376H546.291V591.108H540.674V601.612C540.674 602.817 540.918 603.638 541.405 604.074C541.892 604.484 542.752 604.69 543.983 604.69H545.983V607.46H543.059Z"></path>
  <path style="fill: var(--color-illustrationHighlight010)" d="M558.451 607.922C556.63 607.922 555.014 607.511 553.603 606.69C552.193 605.844 551.077 604.677 550.256 603.189C549.461 601.701 549.063 599.944 549.063 597.918C549.063 595.917 549.461 594.173 550.256 592.685C551.051 591.172 552.154 590.005 553.565 589.184C555.001 588.338 556.656 587.915 558.528 587.915C560.375 587.915 561.965 588.338 563.299 589.184C564.658 590.005 565.697 591.095 566.415 592.455C567.134 593.814 567.493 595.276 567.493 596.841C567.493 597.123 567.48 597.405 567.454 597.687C567.454 597.969 567.454 598.29 567.454 598.649H552.257C552.334 600.111 552.667 601.329 553.257 602.304C553.873 603.253 554.629 603.971 555.527 604.459C556.45 604.946 557.425 605.19 558.451 605.19C559.785 605.19 560.901 604.882 561.798 604.266C562.696 603.651 563.35 602.817 563.761 601.766H566.954C566.441 603.535 565.454 605.01 563.992 606.19C562.555 607.344 560.708 607.922 558.451 607.922ZM558.451 590.646C556.912 590.646 555.54 591.121 554.334 592.07C553.154 592.993 552.475 594.353 552.295 596.148H564.299C564.222 594.43 563.632 593.083 562.529 592.108C561.427 591.134 560.067 590.646 558.451 590.646Z"></path>
  <path style="fill: var(--color-illustrationHighlight010)" d="M568.951 607.46L575.569 597.918L568.951 588.376H572.452L577.8 596.264L583.187 588.376H586.649L580.032 597.918L586.649 607.46H583.187L577.8 599.572L572.452 607.46H568.951Z"></path>
  <path style="fill: var(--color-illustrationHighlight010)" d="M597.578 607.46C595.834 607.46 594.462 607.037 593.461 606.19C592.461 605.344 591.961 603.818 591.961 601.612V591.108H588.652V588.376H591.961L592.384 583.798H595.193V588.376H600.81V591.108H595.193V601.612C595.193 602.817 595.436 603.638 595.924 604.074C596.411 604.484 597.27 604.69 598.501 604.69H600.502V607.46H597.578Z"></path>
</svg>
