<svg id="nksvg" width="1490" height="838" viewBox="0 0 1490 838" fill="none" xmlns="http://www.w3.org/2000/svg">
<g clip-path="url(#clip0_969_137908)">
<path d="M0 3.90235C0 1.69321 1.79 -0.0976562 3.99807 -0.0976562H1486C1488.21 -0.0976562 1490 1.6932 1490 3.90234V833.906C1490 836.115 1488.21 837.906 1486 837.906H3.99809C1.79002 837.906 0 836.115 0 833.906V3.90235Z" fill="var(--color-illustrationBackground010)"/>
<path d="M-2 407.902H650V430.902H-2V407.902Z" fill="#8883F6"/>
<path d="M839 407.902H1491V430.902H839V407.902Z" fill="#0A0A0A" fill-opacity="0.3"/>
<path d="M893 418.902C893 500.641 826.738 566.902 745 566.902C663.262 566.902 597 500.641 597 418.902C597 337.164 663.262 270.902 745 270.902C826.738 270.902 893 337.164 893 418.902Z" fill="#8883F6"/>
<path d="M720.877 451.241L688.038 418.402L676.855 429.506L720.877 473.527L815.377 379.027L804.273 367.923L720.877 451.241Z" fill="white"/>
<path d="M484.968 520.939C482.114 521.988 478.95 520.526 477.901 517.672C476.851 514.818 478.314 511.654 481.167 510.605L543.17 487.802C546.024 486.753 549.188 488.215 550.237 491.069C551.287 493.923 549.824 497.087 546.971 498.136L484.968 520.939Z" fill="#8883F6"/>
<path d="M750 687.47C750 690.511 747.535 692.976 744.495 692.976C741.454 692.976 738.99 690.511 738.99 687.47V621.407C738.99 618.367 741.454 615.902 744.495 615.902C747.535 615.902 750 618.367 750 621.407V687.47Z" fill="#8883F6"/>
<path d="M564.071 665.974C562.205 668.374 558.746 668.806 556.346 666.939C553.946 665.073 553.513 661.614 555.38 659.214L613.686 584.248C615.552 581.848 619.011 581.415 621.411 583.282C623.811 585.149 624.244 588.607 622.377 591.008L564.071 665.974Z" fill="#8883F6"/>
<path d="M1004.03 316.939C1006.89 315.89 1010.05 317.352 1011.1 320.206C1012.15 323.06 1010.69 326.224 1007.83 327.273L945.83 350.076C942.976 351.125 939.812 349.663 938.763 346.809C937.713 343.955 939.176 340.791 942.029 339.742L1004.03 316.939Z" fill="#8883F6"/>
<path d="M739 150.408C739 147.367 741.465 144.902 744.505 144.902C747.546 144.902 750.01 147.367 750.01 150.408V216.471C750.01 219.511 747.546 221.976 744.505 221.976C741.465 221.976 739 219.511 739 216.471V150.408Z" fill="#8883F6"/>
<path d="M924.929 171.904C926.795 169.504 930.254 169.072 932.654 170.938C935.054 172.805 935.487 176.264 933.62 178.664L875.314 253.63C873.448 256.03 869.989 256.463 867.589 254.596C865.189 252.729 864.756 249.27 866.623 246.87L924.929 171.904Z" fill="#8883F6"/>
</g>
<defs>
<clipPath id="clip0_969_137908">
<rect width="1490" height="838" fill="white"/>
</clipPath>
</defs>
</svg>
