<svg id="nksvg" width="1490" height="838" viewBox="0 0 1490 838" fill="none" xmlns="http://www.w3.org/2000/svg">
<g clip-path="url(#clip0_969_137948)">
<path d="M0 0H1490V838H0V0Z" fill="var(--color-illustrationBackground010)"/>
<path d="M989 418.91C989 553.667 879.757 662.91 745 662.91C610.243 662.91 501 553.667 501 418.91C501 284.152 610.243 174.91 745 174.91C879.757 174.91 989 284.152 989 418.91Z" fill="white"/>
<path d="M637.061 331.391C631.63 327.426 624 331.31 624 338.039L624 497.659C624 504.388 631.63 508.271 637.061 504.307L746.393 424.499C750.895 421.213 750.895 414.49 746.394 411.204L637.061 331.391Z" fill="#8883F6"/>
<path d="M784.996 331.391C779.565 327.426 771.935 331.31 771.935 338.039L771.935 497.659C771.935 504.388 779.564 508.271 784.996 504.307L894.328 424.499C898.83 421.213 898.83 414.49 894.328 411.204L784.996 331.391Z" fill="#8883F6"/>
</g>
<defs>
<clipPath id="clip0_969_137948">
<rect width="1490" height="838" fill="white"/>
</clipPath>
</defs>
</svg>
