<svg
  id="nksvg"
  style="width: 100%; height: 100%"
  width="1490"
  height="838"
  viewBox="0 0 1490 838"
  fill="none"
  xmlns="http://www.w3.org/2000/svg"
  class="css-0"
>
  <rect
    style="fill: var(--color-illustrationBackground020)"
    width="1490"
    height="838"
  ></rect>
  <path
    style="fill: var(--color-illustrationBorder020)"
    d="M401.294 282.89H414.092V287.9H395.085V250.049H401.294V282.89Z"
  ></path>
  <path
    style="fill: var(--color-illustrationBorder020)"
    d="M417.215 272.76C417.215 269.746 417.832 267.078 419.067 264.754C420.337 262.43 422.044 260.633 424.186 259.362C426.365 258.055 428.761 257.402 431.375 257.402C433.735 257.402 435.786 257.874 437.529 258.818C439.308 259.725 440.724 260.869 441.777 262.249V257.892H448.04V287.9H441.777V283.434C440.724 284.85 439.29 286.03 437.475 286.974C435.659 287.918 433.59 288.39 431.266 288.39C428.688 288.39 426.328 287.737 424.186 286.43C422.044 285.086 420.337 283.235 419.067 280.875C417.832 278.478 417.215 275.773 417.215 272.76ZM441.777 272.869C441.777 270.799 441.341 269.002 440.47 267.477C439.635 265.952 438.528 264.79 437.148 263.992C435.768 263.193 434.28 262.793 432.682 262.793C431.085 262.793 429.596 263.193 428.216 263.992C426.837 264.754 425.711 265.898 424.84 267.423C424.005 268.911 423.587 270.69 423.587 272.76C423.587 274.829 424.005 276.645 424.84 278.206C425.711 279.767 426.837 280.965 428.216 281.8C429.632 282.599 431.121 282.999 432.682 282.999C434.28 282.999 435.768 282.599 437.148 281.8C438.528 281.002 439.635 279.84 440.47 278.315C441.341 276.754 441.777 274.938 441.777 272.869Z"
  ></path>
  <path
    style="fill: var(--color-illustrationBorder020)"
    d="M462.404 262.358C463.457 260.905 464.891 259.725 466.706 258.818C468.558 257.874 470.609 257.402 472.86 257.402C475.511 257.402 477.907 258.037 480.049 259.308C482.191 260.579 483.88 262.394 485.114 264.754C486.349 267.078 486.966 269.746 486.966 272.76C486.966 275.773 486.349 278.478 485.114 280.875C483.88 283.235 482.173 285.086 479.995 286.43C477.853 287.737 475.474 288.39 472.86 288.39C470.537 288.39 468.467 287.936 466.652 287.029C464.873 286.121 463.457 284.959 462.404 283.543V287.9H456.195V247.599H462.404V262.358ZM480.648 272.76C480.648 270.69 480.213 268.911 479.341 267.423C478.506 265.898 477.381 264.754 475.965 263.992C474.585 263.193 473.096 262.793 471.499 262.793C469.937 262.793 468.449 263.193 467.033 263.992C465.653 264.79 464.528 265.952 463.656 267.477C462.821 269.002 462.404 270.799 462.404 272.869C462.404 274.938 462.821 276.754 463.656 278.315C464.528 279.84 465.653 281.002 467.033 281.8C468.449 282.599 469.937 282.999 471.499 282.999C473.096 282.999 474.585 282.599 475.965 281.8C477.381 280.965 478.506 279.767 479.341 278.206C480.213 276.645 480.648 274.829 480.648 272.76Z"
  ></path>
  <path
    style="fill: var(--color-illustrationBorder020)"
    d="M520.609 272.161C520.609 273.286 520.536 274.303 520.391 275.211H497.462C497.644 277.607 498.533 279.531 500.131 280.984C501.729 282.436 503.689 283.162 506.013 283.162C509.353 283.162 511.713 281.764 513.093 278.968H519.792C518.884 281.728 517.232 283.997 514.836 285.776C512.476 287.519 509.535 288.39 506.013 288.39C503.145 288.39 500.567 287.755 498.279 286.484C496.028 285.177 494.249 283.362 492.942 281.038C491.671 278.678 491.036 275.955 491.036 272.869C491.036 269.783 491.653 267.078 492.888 264.754C494.158 262.394 495.919 260.579 498.17 259.308C500.458 258.037 503.072 257.402 506.013 257.402C508.845 257.402 511.368 258.019 513.583 259.253C515.798 260.488 517.522 262.231 518.757 264.482C519.991 266.696 520.609 269.256 520.609 272.161ZM514.128 270.2C514.091 267.913 513.274 266.079 511.677 264.7C510.079 263.32 508.101 262.63 505.741 262.63C503.598 262.63 501.765 263.32 500.24 264.7C498.715 266.043 497.807 267.876 497.517 270.2H514.128Z"
  ></path>
  <path
    style="fill: var(--color-illustrationBorder020)"
    d="M532.927 247.599V287.9H526.718V247.599H532.927Z"
  ></path>
  <rect
    style="fill: var(--color-interfaceBackground)"
    x="392.702"
    y="332.409"
    width="704.596"
    height="179.77"
    rx="32.1252"
  ></rect>
  <path
    style="fill: var(--color-illustrationBorder020)"
    d="M441.744 441.273V403.745H453.638C456.465 403.745 458.792 404.227 460.619 405.192C462.446 406.157 463.791 407.462 464.653 409.106C465.549 410.75 465.997 412.609 465.997 414.682C465.997 416.719 465.566 418.56 464.705 420.204C463.843 421.848 462.498 423.17 460.671 424.171C458.844 425.136 456.499 425.619 453.638 425.619H446.088V441.273H441.744ZM446.088 421.812H453.535C456.431 421.812 458.482 421.187 459.688 419.936C460.93 418.649 461.55 416.898 461.55 414.682C461.55 412.43 460.93 410.679 459.688 409.428C458.482 408.141 456.431 407.497 453.535 407.497H446.088V421.812Z"
  ></path>
  <path
    style="fill: var(--color-illustrationBorder020)"
    d="M471.432 441.273V402.672H475.776V441.273H471.432Z"
  ></path>
  <path
    style="fill: var(--color-illustrationBorder020)"
    d="M491.429 441.917C489.291 441.917 487.516 441.542 486.102 440.791C484.689 440.04 483.637 439.04 482.948 437.789C482.258 436.538 481.914 435.179 481.914 433.714C481.914 430.998 482.913 428.907 484.913 427.441C486.912 425.976 489.636 425.243 493.083 425.243H500.013V424.922C500.013 422.598 499.427 420.847 498.255 419.668C497.083 418.452 495.514 417.845 493.549 417.845C491.86 417.845 490.394 418.292 489.153 419.185C487.947 420.043 487.188 421.312 486.878 422.992H482.431C482.603 421.061 483.224 419.435 484.292 418.113C485.396 416.79 486.757 415.79 488.378 415.11C489.998 414.396 491.722 414.038 493.549 414.038C497.134 414.038 499.823 415.039 501.616 417.041C503.443 419.006 504.357 421.633 504.357 424.922V441.273H500.478L500.22 436.502C499.496 438.003 498.427 439.29 497.014 440.362C495.635 441.399 493.773 441.917 491.429 441.917ZM492.101 438.11C493.756 438.11 495.169 437.664 496.341 436.77C497.548 435.876 498.462 434.715 499.082 433.285C499.703 431.856 500.013 430.354 500.013 428.782V428.728H493.445C490.894 428.728 489.084 429.193 488.016 430.122C486.981 431.016 486.464 432.141 486.464 433.5C486.464 434.894 486.947 436.019 487.912 436.877C488.912 437.699 490.308 438.11 492.101 438.11Z"
  ></path>
  <path
    style="fill: var(--color-illustrationBorder020)"
    d="M522.664 441.917C520.216 441.917 518.01 441.345 516.045 440.201C514.114 439.022 512.58 437.395 511.442 435.322C510.339 433.214 509.787 430.765 509.787 427.978C509.787 425.19 510.339 422.759 511.442 420.686C512.58 418.577 514.114 416.951 516.045 415.807C518.01 414.628 520.216 414.038 522.664 414.038C525.698 414.038 528.249 414.86 530.317 416.504C532.42 418.149 533.748 420.347 534.299 423.099H529.852C529.507 421.455 528.663 420.186 527.318 419.292C525.973 418.363 524.405 417.898 522.612 417.898C521.164 417.898 519.802 418.274 518.527 419.024C517.251 419.775 516.217 420.901 515.424 422.402C514.631 423.903 514.235 425.762 514.235 427.978C514.235 430.194 514.631 432.052 515.424 433.553C516.217 435.054 517.251 436.198 518.527 436.984C519.802 437.735 521.164 438.11 522.612 438.11C524.405 438.11 525.973 437.664 527.318 436.77C528.663 435.841 529.507 434.536 529.852 432.856H534.299C533.782 435.537 532.472 437.717 530.369 439.397C528.266 441.077 525.698 441.917 522.664 441.917Z"
  ></path>
  <path
    style="fill: var(--color-illustrationBorder020)"
    d="M551.898 441.917C549.45 441.917 547.278 441.345 545.382 440.201C543.486 439.022 541.986 437.395 540.883 435.322C539.814 433.249 539.28 430.801 539.28 427.978C539.28 425.19 539.814 422.759 540.883 420.686C541.952 418.577 543.434 416.951 545.33 415.807C547.261 414.628 549.484 414.038 552.001 414.038C554.483 414.038 556.621 414.628 558.413 415.807C560.241 416.951 561.637 418.47 562.602 420.365C563.567 422.259 564.05 424.296 564.05 426.476C564.05 426.87 564.033 427.263 563.998 427.656C563.998 428.049 563.998 428.496 563.998 428.996H543.572C543.675 431.033 544.124 432.731 544.916 434.089C545.744 435.412 546.761 436.413 547.967 437.092C549.209 437.771 550.519 438.11 551.898 438.11C553.69 438.11 555.19 437.681 556.397 436.824C557.603 435.966 558.482 434.804 559.034 433.339H563.326C562.637 435.805 561.309 437.86 559.344 439.504C557.414 441.113 554.931 441.917 551.898 441.917ZM551.898 417.845C549.829 417.845 547.985 418.506 546.364 419.828C544.779 421.115 543.865 423.009 543.624 425.511H559.758C559.655 423.117 558.862 421.24 557.379 419.882C555.897 418.524 554.07 417.845 551.898 417.845Z"
  ></path>
  <path
    style="fill: var(--color-illustrationBorder020)"
    d="M569.808 441.273V402.672H574.151V419.239C575.013 417.595 576.237 416.326 577.823 415.432C579.409 414.503 581.133 414.038 582.994 414.038C585.959 414.038 588.338 415.003 590.131 416.933C591.923 418.828 592.82 421.758 592.82 425.726V441.273H588.528V426.208C588.528 420.668 586.373 417.898 582.063 417.898C579.823 417.898 577.944 418.738 576.427 420.418C574.91 422.062 574.151 424.421 574.151 427.495V441.273H569.808Z"
  ></path>
  <path
    style="fill: var(--color-illustrationBorder020)"
    d="M611.088 441.917C608.675 441.917 606.503 441.345 604.572 440.201C602.642 439.057 601.107 437.449 599.97 435.376C598.867 433.267 598.315 430.801 598.315 427.978C598.315 425.154 598.884 422.706 600.021 420.633C601.159 418.524 602.693 416.898 604.624 415.754C606.589 414.61 608.778 414.038 611.191 414.038C613.605 414.038 615.777 414.61 617.707 415.754C619.638 416.898 621.155 418.524 622.258 420.633C623.396 422.706 623.964 425.154 623.964 427.978C623.964 430.801 623.396 433.267 622.258 435.376C621.12 437.449 619.569 439.057 617.604 440.201C615.673 441.345 613.501 441.917 611.088 441.917ZM611.088 438.057C612.57 438.057 613.949 437.681 615.225 436.931C616.501 436.18 617.535 435.054 618.328 433.553C619.121 432.052 619.517 430.194 619.517 427.978C619.517 425.762 619.121 423.903 618.328 422.402C617.569 420.901 616.552 419.775 615.277 419.024C614.001 418.274 612.639 417.898 611.191 417.898C609.709 417.898 608.33 418.274 607.054 419.024C605.779 419.775 604.745 420.901 603.952 422.402C603.159 423.903 602.762 425.762 602.762 427.978C602.762 430.194 603.159 432.052 603.952 433.553C604.745 435.054 605.762 436.18 607.003 436.931C608.278 437.681 609.64 438.057 611.088 438.057Z"
  ></path>
  <path
    style="fill: var(--color-illustrationBorder020)"
    d="M630.004 441.273V402.672H634.348V441.273H630.004Z"
  ></path>
  <path
    style="fill: var(--color-illustrationBorder020)"
    d="M653.103 441.917C650.552 441.917 648.311 441.309 646.381 440.094C644.484 438.879 643.002 437.217 641.933 435.108C640.899 432.999 640.382 430.605 640.382 427.924C640.382 425.243 640.916 422.866 641.985 420.793C643.054 418.685 644.536 417.041 646.432 415.861C648.328 414.646 650.569 414.038 653.155 414.038C655.258 414.038 657.12 414.485 658.74 415.379C660.36 416.272 661.619 417.523 662.515 419.131V402.672H666.859V441.273H662.929L662.515 436.877C661.688 438.164 660.498 439.326 658.947 440.362C657.395 441.399 655.448 441.917 653.103 441.917ZM653.569 438.003C655.292 438.003 656.809 437.592 658.119 436.77C659.464 435.912 660.498 434.733 661.222 433.232C661.981 431.73 662.36 429.979 662.36 427.978C662.36 425.976 661.981 424.225 661.222 422.723C660.498 421.222 659.464 420.061 658.119 419.239C656.809 418.381 655.292 417.952 653.569 417.952C651.879 417.952 650.362 418.381 649.018 419.239C647.708 420.061 646.674 421.222 645.915 422.723C645.191 424.225 644.829 425.976 644.829 427.978C644.829 429.979 645.191 431.73 645.915 433.232C646.674 434.733 647.708 435.912 649.018 436.77C650.362 437.592 651.879 438.003 653.569 438.003Z"
  ></path>
  <path
    style="fill: var(--color-illustrationBorder020)"
    d="M685.472 441.917C683.024 441.917 680.852 441.345 678.956 440.201C677.06 439.022 675.56 437.395 674.457 435.322C673.388 433.249 672.854 430.801 672.854 427.978C672.854 425.19 673.388 422.759 674.457 420.686C675.526 418.577 677.008 416.951 678.904 415.807C680.835 414.628 683.058 414.038 685.575 414.038C688.057 414.038 690.195 414.628 691.987 415.807C693.815 416.951 695.211 418.47 696.176 420.365C697.141 422.259 697.624 424.296 697.624 426.476C697.624 426.87 697.607 427.263 697.572 427.656C697.572 428.049 697.572 428.496 697.572 428.996H677.146C677.249 431.033 677.698 432.731 678.49 434.089C679.318 435.412 680.335 436.413 681.542 437.092C682.783 437.771 684.093 438.11 685.472 438.11C687.264 438.11 688.764 437.681 689.971 436.824C691.177 435.966 692.056 434.804 692.608 433.339H696.9C696.211 435.805 694.883 437.86 692.918 439.504C690.988 441.113 688.505 441.917 685.472 441.917ZM685.472 417.845C683.403 417.845 681.559 418.506 679.938 419.828C678.353 421.115 677.439 423.009 677.198 425.511H693.332C693.229 423.117 692.436 421.24 690.953 419.882C689.471 418.524 687.644 417.845 685.472 417.845Z"
  ></path>
  <path
    style="fill: var(--color-illustrationBorder020)"
    d="M703.382 441.273V414.682H707.312L707.674 419.775C708.467 418.023 709.673 416.63 711.294 415.593C712.914 414.556 714.914 414.038 717.292 414.038V418.756H716.103C714.586 418.756 713.19 419.042 711.914 419.614C710.639 420.15 709.622 421.079 708.863 422.402C708.105 423.724 707.725 425.547 707.725 427.87V441.273H703.382Z"
  ></path>
  <rect
    x="392.702"
    y="332.409"
    width="704.596"
    height="179.77"
    rx="32.1252"
    stroke="#BBC3C9"
    stroke-width="3.40385"
  ></rect>
  <path
    style="fill: var(--color-illustrationHighlight010)"
    d="M392.634 584.03L406.685 545.907H411.532L425.529 584.03H420.682L417.196 574.227H400.967L397.427 584.03H392.634ZM402.328 570.523H415.835L409.082 551.68L402.328 570.523Z"
  ></path>
  <path
    style="fill: var(--color-illustrationHighlight010)"
    d="M441.272 584.683C438.04 584.683 435.354 583.866 433.212 582.232C431.069 580.599 429.817 578.384 429.454 575.588H434.137C434.428 577.004 435.172 578.239 436.37 579.292C437.605 580.308 439.257 580.816 441.326 580.816C443.251 580.816 444.667 580.417 445.574 579.618C446.482 578.783 446.936 577.803 446.936 576.677C446.936 575.044 446.337 573.954 445.139 573.41C443.977 572.865 442.325 572.375 440.183 571.939C438.73 571.649 437.278 571.231 435.826 570.687C434.373 570.142 433.157 569.38 432.177 568.399C431.196 567.383 430.706 566.057 430.706 564.424C430.706 562.064 431.578 560.139 433.32 558.651C435.1 557.126 437.496 556.363 440.509 556.363C443.378 556.363 445.72 557.089 447.535 558.542C449.387 559.958 450.458 561.991 450.748 564.641H446.228C446.046 563.262 445.447 562.191 444.431 561.428C443.45 560.629 442.125 560.23 440.455 560.23C438.821 560.23 437.55 560.575 436.643 561.265C435.771 561.955 435.336 562.862 435.336 563.988C435.336 565.077 435.898 565.93 437.024 566.548C438.186 567.165 439.747 567.691 441.708 568.127C443.378 568.49 444.957 568.944 446.446 569.488C447.971 569.997 449.205 570.777 450.149 571.83C451.129 572.847 451.62 574.336 451.62 576.296C451.656 578.729 450.73 580.744 448.842 582.341C446.99 583.903 444.467 584.683 441.272 584.683Z"
  ></path>
  <path
    style="fill: var(--color-illustrationHighlight010)"
    d="M468.503 584.683C465.271 584.683 462.584 583.866 460.442 582.232C458.3 580.599 457.048 578.384 456.684 575.588H461.368C461.659 577.004 462.403 578.239 463.601 579.292C464.836 580.308 466.488 580.816 468.557 580.816C470.481 580.816 471.897 580.417 472.805 579.618C473.713 578.783 474.167 577.803 474.167 576.677C474.167 575.044 473.568 573.954 472.369 573.41C471.208 572.865 469.556 572.375 467.413 571.939C465.961 571.649 464.509 571.231 463.056 570.687C461.604 570.142 460.388 569.38 459.408 568.399C458.427 567.383 457.937 566.057 457.937 564.424C457.937 562.064 458.808 560.139 460.551 558.651C462.33 557.126 464.727 556.363 467.74 556.363C470.608 556.363 472.95 557.089 474.766 558.542C476.617 559.958 477.688 561.991 477.979 564.641H473.459C473.277 563.262 472.678 562.191 471.661 561.428C470.681 560.629 469.356 560.23 467.686 560.23C466.052 560.23 464.781 560.575 463.873 561.265C463.002 561.955 462.566 562.862 462.566 563.988C462.566 565.077 463.129 565.93 464.255 566.548C465.416 567.165 466.978 567.691 468.938 568.127C470.608 568.49 472.188 568.944 473.676 569.488C475.201 569.997 476.436 570.777 477.38 571.83C478.36 572.847 478.85 574.336 478.85 576.296C478.887 578.729 477.961 580.744 476.073 582.341C474.221 583.903 471.698 584.683 468.503 584.683Z"
  ></path>
  <path
    style="fill: var(--color-illustrationHighlight010)"
    d="M488.163 551.026C487.256 551.026 486.493 550.736 485.876 550.155C485.295 549.537 485.004 548.775 485.004 547.867C485.004 546.996 485.295 546.27 485.876 545.689C486.493 545.108 487.256 544.817 488.163 544.817C489.035 544.817 489.779 545.108 490.396 545.689C491.013 546.27 491.322 546.996 491.322 547.867C491.322 548.775 491.013 549.537 490.396 550.155C489.779 550.736 489.035 551.026 488.163 551.026ZM485.876 584.03V557.017H490.451V584.03H485.876Z"
  ></path>
  <path
    style="fill: var(--color-illustrationHighlight010)"
    d="M508.764 584.683C505.532 584.683 502.846 583.866 500.703 582.232C498.561 580.599 497.309 578.384 496.946 575.588H501.629C501.92 577.004 502.664 578.239 503.862 579.292C505.097 580.308 506.749 580.816 508.818 580.816C510.742 580.816 512.159 580.417 513.066 579.618C513.974 578.783 514.428 577.803 514.428 576.677C514.428 575.044 513.829 573.954 512.63 573.41C511.469 572.865 509.817 572.375 507.674 571.939C506.222 571.649 504.77 571.231 503.318 570.687C501.865 570.142 500.649 569.38 499.669 568.399C498.688 567.383 498.198 566.057 498.198 564.424C498.198 562.064 499.07 560.139 500.812 558.651C502.591 557.126 504.988 556.363 508.001 556.363C510.87 556.363 513.211 557.089 515.027 558.542C516.879 559.958 517.95 561.991 518.24 564.641H513.72C513.538 563.262 512.939 562.191 511.922 561.428C510.942 560.629 509.617 560.23 507.947 560.23C506.313 560.23 505.042 560.575 504.134 561.265C503.263 561.955 502.827 562.862 502.827 563.988C502.827 565.077 503.39 565.93 504.516 566.548C505.678 567.165 507.239 567.691 509.199 568.127C510.87 568.49 512.449 568.944 513.938 569.488C515.463 569.997 516.697 570.777 517.641 571.83C518.621 572.847 519.111 574.336 519.111 576.296C519.148 578.729 518.222 580.744 516.334 582.341C514.482 583.903 511.959 584.683 508.764 584.683Z"
  ></path>
  <path
    style="fill: var(--color-illustrationHighlight010)"
    d="M535.098 584.03C532.629 584.03 530.687 583.431 529.271 582.232C527.855 581.034 527.147 578.874 527.147 575.752V560.884H522.463V557.017H527.147L527.746 550.536H531.721V557.017H539.673V560.884H531.721V575.752C531.721 577.458 532.066 578.62 532.756 579.237C533.446 579.818 534.662 580.108 536.405 580.108H539.237V584.03H535.098Z"
  ></path>
  <path
    style="fill: var(--color-illustrationHighlight010)"
    d="M548.262 551.026C547.355 551.026 546.592 550.736 545.975 550.155C545.394 549.537 545.104 548.775 545.104 547.867C545.104 546.996 545.394 546.27 545.975 545.689C546.592 545.108 547.355 544.817 548.262 544.817C549.134 544.817 549.878 545.108 550.495 545.689C551.113 546.27 551.421 546.996 551.421 547.867C551.421 548.775 551.113 549.537 550.495 550.155C549.878 550.736 549.134 551.026 548.262 551.026ZM545.975 584.03V557.017H550.55V584.03H545.975Z"
  ></path>
  <path
    style="fill: var(--color-illustrationHighlight010)"
    d="M566.303 584.03L556.064 557.017H560.857L568.972 579.618L577.141 557.017H581.825L571.586 584.03H566.303Z"
  ></path>
  <path
    style="fill: var(--color-illustrationHighlight010)"
    d="M597.678 584.683C595.1 584.683 592.813 584.102 590.816 582.94C588.819 581.742 587.24 580.09 586.078 577.984C584.952 575.879 584.39 573.392 584.39 570.523C584.39 567.691 584.952 565.222 586.078 563.116C587.203 560.974 588.765 559.322 590.762 558.16C592.795 556.962 595.137 556.363 597.787 556.363C600.401 556.363 602.652 556.962 604.54 558.16C606.465 559.322 607.935 560.865 608.952 562.79C609.968 564.714 610.477 566.784 610.477 568.998C610.477 569.398 610.458 569.797 610.422 570.196C610.422 570.596 610.422 571.05 610.422 571.558H588.91C589.019 573.628 589.491 575.352 590.326 576.732C591.197 578.075 592.268 579.092 593.539 579.782C594.846 580.472 596.226 580.816 597.678 580.816C599.566 580.816 601.146 580.381 602.416 579.509C603.687 578.638 604.613 577.458 605.194 575.969H609.714C608.988 578.475 607.59 580.562 605.521 582.232C603.487 583.866 600.873 584.683 597.678 584.683ZM597.678 560.23C595.5 560.23 593.557 560.902 591.851 562.245C590.181 563.552 589.218 565.476 588.964 568.018H605.956C605.847 565.585 605.012 563.679 603.451 562.3C601.89 560.92 599.966 560.23 597.678 560.23Z"
  ></path>
  <path
    style="fill: var(--color-illustrationHighlight010)"
    d="M641.628 584.03C639.159 584.03 637.216 583.431 635.8 582.232C634.384 581.034 633.676 578.874 633.676 575.752V560.884H628.993V557.017H633.676L634.275 550.536H638.251V557.017H646.203V560.884H638.251V575.752C638.251 577.458 638.596 578.62 639.286 579.237C639.976 579.818 641.192 580.108 642.935 580.108H645.767V584.03H641.628Z"
  ></path>
  <path
    style="fill: var(--color-illustrationHighlight010)"
    d="M663.415 584.683C660.837 584.683 658.55 584.102 656.553 582.94C654.556 581.742 652.976 580.09 651.815 577.984C650.689 575.879 650.126 573.392 650.126 570.523C650.126 567.691 650.689 565.222 651.815 563.116C652.94 560.974 654.501 559.322 656.498 558.16C658.532 556.962 660.873 556.363 663.524 556.363C666.138 556.363 668.389 556.962 670.277 558.16C672.201 559.322 673.672 560.865 674.688 562.79C675.705 564.714 676.213 566.784 676.213 568.998C676.213 569.398 676.195 569.797 676.159 570.196C676.159 570.596 676.159 571.05 676.159 571.558H654.647C654.756 573.628 655.228 575.352 656.063 576.732C656.934 578.075 658.005 579.092 659.276 579.782C660.583 580.472 661.963 580.816 663.415 580.816C665.303 580.816 666.882 580.381 668.153 579.509C669.424 578.638 670.35 577.458 670.931 575.969H675.451C674.725 578.475 673.327 580.562 671.257 582.232C669.224 583.866 666.61 584.683 663.415 584.683ZM663.415 560.23C661.236 560.23 659.294 560.902 657.588 562.245C655.917 563.552 654.955 565.476 654.701 568.018H671.693C671.584 565.585 670.749 563.679 669.188 562.3C667.627 560.92 665.702 560.23 663.415 560.23Z"
  ></path>
  <path
    style="fill: var(--color-illustrationHighlight010)"
    d="M678.277 584.03L687.645 570.523L678.277 557.017H683.233L690.804 568.181L698.428 557.017H703.33L693.962 570.523L703.33 584.03H698.428L690.804 572.865L683.233 584.03H678.277Z"
  ></path>
  <path
    style="fill: var(--color-illustrationHighlight010)"
    d="M718.799 584.03C716.33 584.03 714.388 583.431 712.972 582.232C711.556 581.034 710.848 578.874 710.848 575.752V560.884H706.164V557.017H710.848L711.447 550.536H715.423V557.017H723.374V560.884H715.423V575.752C715.423 577.458 715.768 578.62 716.457 579.237C717.147 579.818 718.364 580.108 720.106 580.108H722.938V584.03H718.799Z"
  ></path>
</svg>
