<svg id="nksvg" width="1490" height="838" viewBox="0 0 1490 838" fill="none" xmlns="http://www.w3.org/2000/svg">
<path d="M0 0H1490V838H0V0Z" fill="var(--color-illustrationBackground010)"/>
<path d="M641.099 225.795C648.66 225.795 654.942 227.714 659.944 231.553C664.946 235.391 668.319 240.597 670.064 247.169H659.507C658.053 243.447 655.727 240.51 652.528 238.358C649.387 236.148 645.519 235.042 640.924 235.042C637.26 235.042 633.974 235.944 631.066 237.747C628.216 239.55 625.947 242.138 624.261 245.512C622.632 248.827 621.818 252.724 621.818 257.203C621.818 261.623 622.632 265.52 624.261 268.893C625.947 272.209 628.216 274.768 631.066 276.571C633.974 278.374 637.26 279.275 640.924 279.275C645.519 279.275 649.387 278.199 652.528 276.047C655.727 273.837 658.053 270.9 659.507 267.236H670.064C668.319 273.808 664.946 279.014 659.944 282.852C654.942 286.633 648.66 288.523 641.099 288.523C635.283 288.523 630.135 287.215 625.657 284.597C621.178 281.922 617.717 278.229 615.274 273.517C612.832 268.748 611.61 263.31 611.61 257.203C611.61 251.095 612.832 245.686 615.274 240.975C617.717 236.206 621.178 232.483 625.657 229.808C630.135 227.132 635.283 225.795 641.099 225.795Z" fill="var(--color-illustrationPalette040)"/>
<path d="M706.859 239.143C712.442 239.143 716.921 240.946 720.294 244.552C723.668 248.158 725.355 253.306 725.355 259.994V288H715.409V261.041C715.409 256.737 714.304 253.422 712.093 251.095C709.883 248.711 706.859 247.518 703.02 247.518C699.065 247.518 695.895 248.798 693.51 251.357C691.126 253.858 689.933 257.552 689.933 262.437V288H679.987V223.439H689.933V250.485C691.213 246.879 693.365 244.087 696.389 242.109C699.414 240.132 702.904 239.143 706.859 239.143Z" fill="var(--color-illustrationPalette040)"/>
<path d="M746.932 249.351C748.561 246.21 750.887 243.738 753.911 241.935C756.936 240.074 760.426 239.143 764.381 239.143V249.961H761.415C757.052 249.961 753.533 251.037 750.858 253.189C748.241 255.283 746.932 258.773 746.932 263.659V288H736.986V239.928H746.932V249.351Z" fill="var(--color-illustrationPalette040)"/>
<path d="M793.818 239.317C798.471 239.317 802.659 240.306 806.382 242.284C810.104 244.261 813.012 247.111 815.106 250.834C817.2 254.556 818.247 258.918 818.247 263.92C818.247 268.981 817.2 273.372 815.106 277.094C813.012 280.817 810.104 283.667 806.382 285.644C802.659 287.622 798.471 288.611 793.818 288.611C789.165 288.611 784.978 287.622 781.255 285.644C777.591 283.667 774.683 280.817 772.531 277.094C770.437 273.314 769.39 268.922 769.39 263.92C769.39 258.918 770.437 254.556 772.531 250.834C774.683 247.111 777.591 244.261 781.255 242.284C784.978 240.306 789.165 239.317 793.818 239.317ZM793.818 247.955C791.259 247.955 788.904 248.536 786.752 249.7C784.6 250.863 782.855 252.666 781.517 255.109C780.237 257.493 779.598 260.431 779.598 263.92C779.598 267.468 780.237 270.435 781.517 272.819C782.855 275.204 784.6 276.978 786.752 278.141C788.904 279.305 791.259 279.886 793.818 279.886C796.378 279.886 798.733 279.305 800.885 278.141C803.037 276.978 804.753 275.204 806.033 272.819C807.37 270.435 808.039 267.468 808.039 263.92C808.039 260.431 807.37 257.493 806.033 255.109C804.753 252.666 803.037 250.863 800.885 249.7C798.733 248.536 796.378 247.955 793.818 247.955Z" fill="var(--color-illustrationPalette040)"/>
<path d="M887.92 239.143C893.62 239.143 898.157 240.946 901.531 244.552C904.962 248.158 906.678 253.306 906.678 259.994V288H896.732V261.041C896.732 256.854 895.685 253.626 893.591 251.357C891.497 249.031 888.618 247.867 884.954 247.867C881.057 247.867 877.945 249.118 875.619 251.619C873.351 254.062 872.216 257.668 872.216 262.437V288H862.271V261.041C862.271 256.854 861.224 253.626 859.13 251.357C857.036 249.031 854.157 247.867 850.493 247.867C846.596 247.867 843.484 249.118 841.157 251.619C838.889 254.062 837.755 257.668 837.755 262.437V288H827.809V239.928H837.755V249.961C838.976 246.472 841.012 243.796 843.862 241.935C846.712 240.074 850.056 239.143 853.895 239.143C857.908 239.143 861.369 240.132 864.277 242.109C867.243 244.087 869.396 246.937 870.733 250.659C872.129 247.053 874.368 244.232 877.451 242.197C880.534 240.161 884.024 239.143 887.92 239.143Z" fill="var(--color-illustrationPalette040)"/>
<path d="M962.96 261.652C962.96 263.281 962.844 264.706 962.611 265.927H925.62C925.794 270.871 927.161 274.535 929.72 276.92C932.279 279.305 935.449 280.497 939.23 280.497C942.545 280.497 945.337 279.654 947.605 277.967C949.932 276.28 951.357 274.041 951.88 271.249H962.524C961.884 274.622 960.546 277.618 958.511 280.235C956.475 282.852 953.829 284.917 950.572 286.43C947.314 287.884 943.679 288.611 939.666 288.611C935.013 288.611 930.883 287.622 927.277 285.644C923.729 283.667 920.937 280.817 918.902 277.094C916.866 273.372 915.848 268.981 915.848 263.92C915.848 258.918 916.866 254.556 918.902 250.834C920.937 247.111 923.729 244.261 927.277 242.284C930.883 240.306 935.013 239.317 939.666 239.317C944.377 239.317 948.478 240.306 951.967 242.284C955.515 244.203 958.22 246.879 960.081 250.31C962.001 253.684 962.96 257.464 962.96 261.652ZM952.927 261.39C953.043 258.25 952.491 255.632 951.269 253.538C950.106 251.386 948.478 249.816 946.384 248.827C944.348 247.78 942.109 247.257 939.666 247.257C935.769 247.257 932.512 248.449 929.895 250.834C927.277 253.218 925.852 256.737 925.62 261.39H952.927Z" fill="var(--color-illustrationPalette040)"/>
<path d="M552.169 256.97C552.169 264.748 545.863 271.054 538.084 271.054C530.306 271.054 524 264.748 524 256.97C524 249.191 530.306 242.885 538.084 242.885C545.863 242.885 552.169 249.191 552.169 256.97Z" fill="var(--color-illustrationPalette040)"/>
<path d="M649.998 388.147V396.173H623.563V415.28H645.374V422.957H623.563V449.741H613.617V388.147H649.998Z" fill="var(--color-illustrationPalette040)"/>
<path d="M657.462 387.711C657.462 386.024 658.044 384.628 659.207 383.523C660.37 382.418 661.911 381.865 663.831 381.865C665.75 381.865 667.292 382.418 668.455 383.523C669.676 384.628 670.287 386.024 670.287 387.711C670.287 389.397 669.676 390.764 668.455 391.811C667.292 392.858 665.75 393.382 663.831 393.382C661.911 393.382 660.37 392.858 659.207 391.811C658.044 390.764 657.462 389.397 657.462 387.711ZM668.804 401.67V449.741H658.858V401.67H668.804Z" fill="var(--color-illustrationPalette040)"/>
<path d="M690.785 411.092C692.414 407.951 694.74 405.479 697.765 403.676C700.789 401.815 704.279 400.885 708.234 400.885V411.703H705.268C700.906 411.703 697.387 412.779 694.711 414.931C692.094 417.025 690.785 420.515 690.785 425.4V449.741H680.839V401.67H690.785V411.092Z" fill="var(--color-illustrationPalette040)"/>
<path d="M760.355 423.394C760.355 425.022 760.239 426.447 760.006 427.669H723.015C723.189 432.612 724.556 436.277 727.115 438.661C729.674 441.046 732.844 442.238 736.625 442.238C739.94 442.238 742.732 441.395 745 439.708C747.327 438.022 748.752 435.782 749.275 432.991H759.919C759.279 436.364 757.942 439.359 755.906 441.977C753.87 444.594 751.224 446.659 747.967 448.171C744.709 449.625 741.074 450.352 737.061 450.352C732.408 450.352 728.278 449.363 724.672 447.386C721.124 445.408 718.333 442.558 716.297 438.836C714.261 435.113 713.243 430.722 713.243 425.662C713.243 420.66 714.261 416.298 716.297 412.575C718.333 408.853 721.124 406.003 724.672 404.025C728.278 402.048 732.408 401.059 737.061 401.059C741.772 401.059 745.873 402.048 749.362 404.025C752.91 405.945 755.615 408.62 757.476 412.052C759.396 415.425 760.355 419.206 760.355 423.394ZM750.322 423.132C750.439 419.991 749.886 417.374 748.665 415.28C747.501 413.128 745.873 411.557 743.779 410.569C741.743 409.522 739.504 408.998 737.061 408.998C733.164 408.998 729.907 410.191 727.29 412.575C724.672 414.96 723.247 418.479 723.015 423.132H750.322Z" fill="var(--color-illustrationPalette040)"/>
<path d="M792.38 391.724C788.483 391.549 785.75 392.189 784.179 393.643C782.609 395.039 781.824 397.453 781.824 400.885V401.67H792.38V410.22H781.824V449.741H771.79V410.22H765.247V401.67H771.79V400.099C771.79 394.225 773.506 389.834 776.938 386.925C780.369 383.959 785.517 382.65 792.38 382.999V391.724Z" fill="var(--color-illustrationPalette040)"/>
<path d="M822.36 401.059C827.013 401.059 831.201 402.048 834.923 404.025C838.646 406.003 841.554 408.853 843.648 412.575C845.742 416.298 846.789 420.66 846.789 425.662C846.789 430.722 845.742 435.113 843.648 438.836C841.554 442.558 838.646 445.408 834.923 447.386C831.201 449.363 827.013 450.352 822.36 450.352C817.707 450.352 813.519 449.363 809.797 447.386C806.133 445.408 803.225 442.558 801.073 438.836C798.979 435.055 797.932 430.664 797.932 425.662C797.932 420.66 798.979 416.298 801.073 412.575C803.225 408.853 806.133 406.003 809.797 404.025C813.519 402.048 817.707 401.059 822.36 401.059ZM822.36 409.696C819.801 409.696 817.445 410.278 815.293 411.441C813.141 412.604 811.396 414.407 810.059 416.85C808.779 419.235 808.139 422.172 808.139 425.662C808.139 429.21 808.779 432.176 810.059 434.561C811.396 436.946 813.141 438.72 815.293 439.883C817.445 441.046 819.801 441.628 822.36 441.628C824.919 441.628 827.275 441.046 829.427 439.883C831.579 438.72 833.295 436.946 834.574 434.561C835.912 432.176 836.581 429.21 836.581 425.662C836.581 422.172 835.912 419.235 834.574 416.85C833.295 414.407 831.579 412.604 829.427 411.441C827.275 410.278 824.919 409.696 822.36 409.696Z" fill="var(--color-illustrationPalette040)"/>
<path d="M884.793 449.741L873.015 432.729L862.72 449.741H851.64L867.518 424.79L851.465 401.67H862.72L874.236 418.246L884.444 401.67H895.436L879.558 425.924L896.047 449.741H884.793Z" fill="var(--color-illustrationPalette040)"/>
<path d="M552.169 418.711C552.169 426.49 545.863 432.796 538.084 432.796C530.306 432.796 524 426.49 524 418.711C524 410.933 530.306 404.627 538.084 404.627C545.863 404.627 552.169 410.933 552.169 418.711Z" fill="var(--color-illustrationPalette040)"/>
<path d="M654.098 595.082C654.098 598.106 653.371 600.927 651.917 603.544C650.463 606.104 648.253 608.168 645.287 609.739C642.32 611.309 638.685 612.094 634.381 612.094C630.193 612.094 626.442 611.367 623.127 609.913C619.811 608.401 617.165 606.307 615.187 603.632C613.21 600.956 612.076 597.874 611.785 594.384H622.429C622.719 597.059 623.854 599.357 625.831 601.276C627.867 603.195 630.571 604.155 633.945 604.155C636.969 604.155 639.296 603.341 640.924 601.712C642.611 600.084 643.454 597.99 643.454 595.431C643.454 593.22 642.844 591.417 641.622 590.022C640.401 588.567 638.889 587.433 637.086 586.619C635.283 585.805 632.811 584.874 629.67 583.827C625.831 582.606 622.69 581.384 620.247 580.163C617.863 578.941 615.827 577.167 614.14 574.841C612.454 572.514 611.61 569.461 611.61 565.68C611.61 562.365 612.425 559.457 614.053 556.956C615.682 554.455 618.008 552.535 621.033 551.198C624.057 549.802 627.547 549.104 631.502 549.104C637.784 549.104 642.757 550.616 646.421 553.641C650.143 556.665 652.266 560.62 652.79 565.506H642.059C641.651 563.179 640.546 561.202 638.743 559.573C636.998 557.886 634.585 557.043 631.502 557.043C628.71 557.043 626.471 557.77 624.784 559.224C623.097 560.62 622.254 562.656 622.254 565.331C622.254 567.425 622.836 569.17 623.999 570.566C625.162 571.904 626.616 572.98 628.361 573.794C630.164 574.55 632.607 575.452 635.69 576.499C639.587 577.72 642.757 578.971 645.199 580.25C647.7 581.472 649.794 583.275 651.481 585.659C653.226 588.044 654.098 591.185 654.098 595.082Z" fill="var(--color-illustrationPalette040)"/>
<path d="M683.336 562.801C687.698 562.801 691.421 563.877 694.503 566.029C697.586 568.181 699.767 571.031 701.047 574.579V563.412H710.993V611.484H701.047V600.316C699.767 603.864 697.586 606.714 694.503 608.866C691.421 611.018 687.698 612.094 683.336 612.094C679.148 612.094 675.397 611.106 672.082 609.128C668.824 607.151 666.265 604.301 664.404 600.578C662.543 596.856 661.612 592.464 661.612 587.404C661.612 582.402 662.543 578.04 664.404 574.318C666.265 570.595 668.824 567.745 672.082 565.768C675.397 563.79 679.148 562.801 683.336 562.801ZM686.39 571.526C681.969 571.526 678.421 572.951 675.746 575.801C673.129 578.592 671.82 582.46 671.82 587.404C671.82 592.348 673.129 596.245 675.746 599.095C678.421 601.887 681.969 603.283 686.39 603.283C689.182 603.283 691.683 602.643 693.893 601.363C696.103 600.026 697.848 598.164 699.127 595.78C700.407 593.395 701.047 590.603 701.047 587.404C701.047 584.263 700.407 581.501 699.127 579.116C697.848 576.673 696.103 574.812 693.893 573.532C691.683 572.195 689.182 571.526 686.39 571.526Z" fill="var(--color-illustrationPalette040)"/>
<path d="M745.35 553.466C741.453 553.292 738.719 553.931 737.149 555.385C735.579 556.781 734.793 559.195 734.793 562.627V563.412H745.35V571.962H734.793V611.484H724.76V571.962H718.217V563.412H724.76V561.842C724.76 555.967 726.476 551.576 729.908 548.668C733.339 545.701 738.487 544.393 745.35 544.742V553.466Z" fill="var(--color-illustrationPalette040)"/>
<path d="M772.625 562.801C776.988 562.801 780.71 563.877 783.793 566.029C786.875 568.181 789.056 571.031 790.336 574.579V563.412H800.282V611.484H790.336V600.316C789.056 603.864 786.875 606.714 783.793 608.866C780.71 611.018 776.988 612.094 772.625 612.094C768.438 612.094 764.686 611.106 761.371 609.128C758.114 607.151 755.555 604.301 753.693 600.578C751.832 596.856 750.902 592.464 750.902 587.404C750.902 582.402 751.832 578.04 753.693 574.318C755.555 570.595 758.114 567.745 761.371 565.768C764.686 563.79 768.438 562.801 772.625 562.801ZM775.679 571.526C771.259 571.526 767.711 572.951 765.035 575.801C762.418 578.592 761.109 582.46 761.109 587.404C761.109 592.348 762.418 596.245 765.035 599.095C767.711 601.887 771.259 603.283 775.679 603.283C778.471 603.283 780.972 602.643 783.182 601.363C785.392 600.026 787.137 598.164 788.417 595.78C789.696 593.395 790.336 590.603 790.336 587.404C790.336 584.263 789.696 581.501 788.417 579.116C787.137 576.673 785.392 574.812 783.182 573.532C780.972 572.195 778.471 571.526 775.679 571.526Z" fill="var(--color-illustrationPalette040)"/>
<path d="M822.163 572.834C823.792 569.694 826.118 567.222 829.143 565.419C832.167 563.557 835.657 562.627 839.612 562.627V573.445H836.646C832.284 573.445 828.765 574.521 826.089 576.673C823.472 578.767 822.163 582.257 822.163 587.142V611.484H812.217V563.412H822.163V572.834Z" fill="var(--color-illustrationPalette040)"/>
<path d="M845.668 549.453C845.668 547.766 846.25 546.37 847.413 545.265C848.576 544.16 850.118 543.607 852.037 543.607C853.956 543.607 855.498 544.16 856.661 545.265C857.882 546.37 858.493 547.766 858.493 549.453C858.493 551.14 857.882 552.506 856.661 553.553C855.498 554.6 853.956 555.124 852.037 555.124C850.118 555.124 848.576 554.6 847.413 553.553C846.25 552.506 845.668 551.14 845.668 549.453ZM857.01 563.412V611.484H847.064V563.412H857.01Z" fill="var(--color-illustrationPalette040)"/>
<path d="M552.169 580.453C552.169 588.232 545.863 594.538 538.084 594.538C530.306 594.538 524 588.232 524 580.453C524 572.675 530.306 566.369 538.084 566.369C545.863 566.369 552.169 572.675 552.169 580.453Z" fill="var(--color-illustrationPalette040)"/>
</svg>
