<svg
  id="nksvg"
  style="width: 100%; height: 100%"
  width="1490"
  height="838"
  viewBox="0 0 1490 838"
  fill="none"
  xmlns="http://www.w3.org/2000/svg"
  class="css-0"
>
  <rect
    style="fill: var(--color-illustrationBackground010)"
    width="1490"
    height="838"
  ></rect>
  <path
    style="fill: var(--color-illustrationInterface020)"
    opacity="0.6"
    d="M543.763 193.028C543.763 185.948 549.927 180.209 557.53 180.209H1265.13C1272.74 180.209 1278.9 185.948 1278.9 193.028V663.681C1278.9 670.761 1272.74 676.5 1265.13 676.5H557.53C549.927 676.5 543.763 670.761 543.763 663.681V193.028Z"
  ></path>
  <path
    style="fill: var(--color-illustrationInterface020)"
    d="M364.336 628.978C364.336 655.224 343.06 676.5 316.814 676.5C290.569 676.5 269.292 655.224 269.292 628.978C269.292 602.733 290.569 581.457 316.814 581.457C343.06 581.457 364.336 602.733 364.336 628.978Z"
  ></path>
  <path
    style="fill: var(--color-illustrationInterface020)"
    d="M364.336 628.978C364.336 655.224 343.06 676.5 316.814 676.5C290.569 676.5 269.292 655.224 269.292 628.978C269.292 602.733 290.569 581.457 316.814 581.457C343.06 581.457 364.336 602.733 364.336 628.978Z"
  ></path>
  <path
    d="M364.336 628.978C364.336 655.224 343.06 676.5 316.814 676.5C290.569 676.5 269.292 655.224 269.292 628.978C269.292 602.733 290.569 581.457 316.814 581.457C343.06 581.457 364.336 602.733 364.336 628.978Z"
    stroke="#AEBFFF"
    stroke-width="0.888255"
  ></path>
  <path
    style="fill: var(--color-illustrationInterface020)"
    d="M411.137 295.783H219.827C215.175 295.783 211.404 299.554 211.404 304.206V531.7C211.404 536.351 215.175 540.122 219.827 540.122H288.519C290.475 540.122 292.349 540.915 293.711 542.32L310.933 560.084C314.338 563.596 320.009 563.478 323.265 559.828L338.685 542.54C340.057 541.002 342.02 540.122 344.082 540.122H411.137C415.788 540.122 419.559 536.351 419.559 531.7V304.206C419.559 299.554 415.788 295.783 411.137 295.783Z"
    stroke="#2B4AAB"
    stroke-width="1.19123"
  ></path>
  <path
    style="fill: var(--color-illustrationAnatomySubtle)"
    d="M239.542 367.347C238.48 367.347 237.501 367.101 236.603 366.608C235.717 366.105 235.011 365.41 234.486 364.523C233.971 363.626 233.714 362.619 233.714 361.503C233.714 360.386 233.971 359.385 234.486 358.498C235.011 357.612 235.717 356.922 236.603 356.43C237.501 355.927 238.48 355.675 239.542 355.675C240.614 355.675 241.594 355.927 242.48 356.43C243.378 356.922 244.084 357.612 244.598 358.498C245.113 359.385 245.37 360.386 245.37 361.503C245.37 362.619 245.113 363.626 244.598 364.523C244.084 365.41 243.378 366.105 242.48 366.608C241.594 367.101 240.614 367.347 239.542 367.347ZM239.542 365.722C240.297 365.722 240.97 365.552 241.561 365.213C242.152 364.862 242.612 364.37 242.94 363.735C243.279 363.09 243.449 362.345 243.449 361.503C243.449 360.66 243.279 359.921 242.94 359.286C242.612 358.652 242.152 358.165 241.561 357.825C240.97 357.486 240.297 357.316 239.542 357.316C238.787 357.316 238.114 357.486 237.523 357.825C236.932 358.165 236.467 358.652 236.127 359.286C235.799 359.921 235.635 360.66 235.635 361.503C235.635 362.345 235.799 363.09 236.127 363.735C236.467 364.37 236.932 364.862 237.523 365.213C238.114 365.552 238.787 365.722 239.542 365.722Z"
  ></path>
  <path
    style="fill: var(--color-illustrationAnatomySubtle)"
    d="M249.083 359.516C249.4 359.1 249.832 358.75 250.38 358.466C250.927 358.181 251.545 358.039 252.235 358.039C253.023 358.039 253.74 358.236 254.385 358.63C255.042 359.013 255.556 359.555 255.928 360.255C256.301 360.955 256.487 361.76 256.487 362.668C256.487 363.577 256.301 364.392 255.928 365.114C255.556 365.826 255.042 366.384 254.385 366.789C253.74 367.183 253.023 367.38 252.235 367.38C251.545 367.38 250.932 367.243 250.396 366.969C249.86 366.685 249.422 366.334 249.083 365.919V371.533H247.211V358.186H249.083V359.516ZM254.582 362.668C254.582 362.044 254.451 361.508 254.188 361.059C253.937 360.6 253.597 360.255 253.17 360.025C252.755 359.784 252.306 359.664 251.824 359.664C251.354 359.664 250.905 359.784 250.478 360.025C250.062 360.266 249.723 360.616 249.46 361.076C249.209 361.535 249.083 362.077 249.083 362.701C249.083 363.325 249.209 363.872 249.46 364.343C249.723 364.802 250.062 365.153 250.478 365.393C250.905 365.634 251.354 365.754 251.824 365.754C252.306 365.754 252.755 365.634 253.17 365.393C253.597 365.142 253.937 364.78 254.188 364.31C254.451 363.839 254.582 363.292 254.582 362.668Z"
  ></path>
  <path
    style="fill: var(--color-illustrationAnatomySubtle)"
    d="M260.521 359.713V364.72C260.521 365.059 260.597 365.306 260.75 365.459C260.915 365.601 261.188 365.672 261.571 365.672H262.72V367.232H261.243C260.4 367.232 259.755 367.035 259.306 366.641C258.857 366.247 258.633 365.607 258.633 364.72V359.713H257.566V358.186H258.633V355.937H260.521V358.186H262.72V359.713H260.521Z"
  ></path>
  <path
    style="fill: var(--color-illustrationAnatomySubtle)"
    d="M265.397 356.988C265.058 356.988 264.774 356.873 264.544 356.643C264.314 356.414 264.199 356.129 264.199 355.79C264.199 355.45 264.314 355.166 264.544 354.936C264.774 354.706 265.058 354.591 265.397 354.591C265.726 354.591 266.005 354.706 266.235 354.936C266.464 355.166 266.579 355.45 266.579 355.79C266.579 356.129 266.464 356.414 266.235 356.643C266.005 356.873 265.726 356.988 265.397 356.988ZM266.317 358.186V367.232H264.445V358.186H266.317Z"
  ></path>
  <path
    style="fill: var(--color-illustrationAnatomySubtle)"
    d="M272.697 367.38C271.844 367.38 271.072 367.188 270.383 366.805C269.693 366.411 269.151 365.864 268.757 365.163C268.363 364.452 268.166 363.631 268.166 362.701C268.166 361.782 268.369 360.966 268.774 360.255C269.179 359.544 269.731 358.996 270.432 358.613C271.132 358.23 271.915 358.039 272.779 358.039C273.644 358.039 274.427 358.23 275.127 358.613C275.827 358.996 276.38 359.544 276.785 360.255C277.19 360.966 277.392 361.782 277.392 362.701C277.392 363.62 277.184 364.436 276.769 365.147C276.353 365.858 275.784 366.411 275.061 366.805C274.35 367.188 273.562 367.38 272.697 367.38ZM272.697 365.754C273.179 365.754 273.628 365.64 274.043 365.41C274.47 365.18 274.815 364.835 275.078 364.375C275.34 363.916 275.472 363.358 275.472 362.701C275.472 362.044 275.346 361.492 275.094 361.043C274.842 360.583 274.509 360.239 274.093 360.009C273.677 359.779 273.228 359.664 272.747 359.664C272.265 359.664 271.816 359.779 271.4 360.009C270.995 360.239 270.673 360.583 270.432 361.043C270.191 361.492 270.071 362.044 270.071 362.701C270.071 363.675 270.317 364.43 270.809 364.966C271.313 365.492 271.942 365.754 272.697 365.754Z"
  ></path>
  <path
    style="fill: var(--color-illustrationAnatomySubtle)"
    d="M283.806 358.039C284.518 358.039 285.152 358.186 285.711 358.482C286.28 358.777 286.723 359.215 287.04 359.795C287.358 360.375 287.516 361.076 287.516 361.897V367.232H285.661V362.176C285.661 361.366 285.459 360.747 285.054 360.321C284.649 359.883 284.096 359.664 283.396 359.664C282.695 359.664 282.137 359.883 281.721 360.321C281.316 360.747 281.114 361.366 281.114 362.176V367.232H279.242V358.186H281.114V359.221C281.42 358.849 281.809 358.559 282.279 358.351C282.761 358.143 283.27 358.039 283.806 358.039Z"
  ></path>
  <path
    style="fill: var(--color-illustrationAnatomySubtle)"
    d="M295.12 356.988C294.781 356.988 294.496 356.873 294.266 356.643C294.037 356.414 293.922 356.129 293.922 355.79C293.922 355.45 294.037 355.166 294.266 354.936C294.496 354.706 294.781 354.591 295.12 354.591C295.448 354.591 295.727 354.706 295.957 354.936C296.187 355.166 296.302 355.45 296.302 355.79C296.302 356.129 296.187 356.414 295.957 356.643C295.727 356.873 295.448 356.988 295.12 356.988ZM296.039 358.186V367.232H294.168V358.186H296.039Z"
  ></path>
  <path
    style="fill: var(--color-illustrationAnatomySubtle)"
    d="M300.68 359.713V364.72C300.68 365.059 300.756 365.306 300.91 365.459C301.074 365.601 301.347 365.672 301.73 365.672H302.88V367.232H301.402C300.559 367.232 299.914 367.035 299.465 366.641C299.016 366.247 298.792 365.607 298.792 364.72V359.713H297.725V358.186H298.792V355.937H300.68V358.186H302.88V359.713H300.68Z"
  ></path>
  <path
    style="fill: var(--color-illustrationAnatomySubtle)"
    d="M312.895 362.488C312.895 362.827 312.873 363.133 312.829 363.407H305.918C305.972 364.129 306.241 364.709 306.722 365.147C307.204 365.585 307.795 365.804 308.495 365.804C309.502 365.804 310.213 365.382 310.629 364.54H312.648C312.375 365.371 311.877 366.055 311.155 366.592C310.443 367.117 309.557 367.38 308.495 367.38C307.631 367.38 306.853 367.188 306.164 366.805C305.485 366.411 304.949 365.864 304.555 365.163C304.172 364.452 303.981 363.631 303.981 362.701C303.981 361.771 304.167 360.955 304.539 360.255C304.922 359.544 305.453 358.996 306.131 358.613C306.821 358.23 307.609 358.039 308.495 358.039C309.349 358.039 310.109 358.225 310.777 358.597C311.445 358.969 311.964 359.494 312.337 360.173C312.709 360.84 312.895 361.612 312.895 362.488ZM310.941 361.897C310.93 361.207 310.684 360.654 310.202 360.239C309.721 359.823 309.124 359.615 308.413 359.615C307.767 359.615 307.215 359.823 306.755 360.239C306.295 360.643 306.022 361.196 305.934 361.897H310.941Z"
  ></path>
  <path
    style="fill: var(--color-illustrationAnatomySubtle)"
    d="M325.686 358.039C326.398 358.039 327.032 358.186 327.59 358.482C328.16 358.777 328.603 359.215 328.92 359.795C329.248 360.375 329.413 361.076 329.413 361.897V367.232H327.558V362.176C327.558 361.366 327.355 360.747 326.95 360.321C326.545 359.883 325.993 359.664 325.292 359.664C324.592 359.664 324.034 359.883 323.618 360.321C323.213 360.747 323.01 361.366 323.01 362.176V367.232H321.155V362.176C321.155 361.366 320.953 360.747 320.548 360.321C320.143 359.883 319.59 359.664 318.89 359.664C318.189 359.664 317.631 359.883 317.215 360.321C316.81 360.747 316.608 361.366 316.608 362.176V367.232H314.736V358.186H316.608V359.221C316.914 358.849 317.303 358.559 317.773 358.351C318.244 358.143 318.747 358.039 319.284 358.039C320.006 358.039 320.652 358.192 321.221 358.498C321.79 358.805 322.228 359.248 322.534 359.828C322.808 359.281 323.235 358.849 323.815 358.531C324.395 358.203 325.019 358.039 325.686 358.039Z"
  ></path>
  <path
    style="fill: var(--color-illustrationAnatomySubtle)"
    d="M339.982 367.38C339.128 367.38 338.357 367.188 337.667 366.805C336.978 366.411 336.436 365.864 336.042 365.163C335.648 364.452 335.451 363.631 335.451 362.701C335.451 361.782 335.654 360.966 336.058 360.255C336.463 359.544 337.016 358.996 337.717 358.613C338.417 358.23 339.199 358.039 340.064 358.039C340.929 358.039 341.711 358.23 342.412 358.613C343.112 358.996 343.665 359.544 344.07 360.255C344.475 360.966 344.677 361.782 344.677 362.701C344.677 363.62 344.469 364.436 344.053 365.147C343.637 365.858 343.068 366.411 342.346 366.805C341.635 367.188 340.847 367.38 339.982 367.38ZM339.982 365.754C340.464 365.754 340.912 365.64 341.328 365.41C341.755 365.18 342.1 364.835 342.362 364.375C342.625 363.916 342.756 363.358 342.756 362.701C342.756 362.044 342.63 361.492 342.379 361.043C342.127 360.583 341.793 360.239 341.377 360.009C340.961 359.779 340.513 359.664 340.031 359.664C339.55 359.664 339.101 359.779 338.685 360.009C338.28 360.239 337.957 360.583 337.717 361.043C337.476 361.492 337.355 362.044 337.355 362.701C337.355 363.675 337.602 364.43 338.094 364.966C338.598 365.492 339.227 365.754 339.982 365.754Z"
  ></path>
  <path
    style="fill: var(--color-illustrationAnatomySubtle)"
    d="M351.091 358.039C351.802 358.039 352.437 358.186 352.995 358.482C353.564 358.777 354.007 359.215 354.325 359.795C354.642 360.375 354.801 361.076 354.801 361.897V367.232H352.946V362.176C352.946 361.366 352.743 360.747 352.338 360.321C351.934 359.883 351.381 359.664 350.68 359.664C349.98 359.664 349.422 359.883 349.006 360.321C348.601 360.747 348.399 361.366 348.399 362.176V367.232H346.527V358.186H348.399V359.221C348.705 358.849 349.094 358.559 349.564 358.351C350.046 358.143 350.555 358.039 351.091 358.039Z"
  ></path>
  <path
    style="fill: var(--color-illustrationAnatomySubtle)"
    d="M365.478 362.488C365.478 362.827 365.456 363.133 365.413 363.407H358.501C358.556 364.129 358.824 364.709 359.306 365.147C359.787 365.585 360.378 365.804 361.079 365.804C362.086 365.804 362.797 365.382 363.213 364.54H365.232C364.959 365.371 364.461 366.055 363.738 366.592C363.027 367.117 362.14 367.38 361.079 367.38C360.214 367.38 359.437 367.188 358.748 366.805C358.069 366.411 357.533 365.864 357.139 365.163C356.756 364.452 356.564 363.631 356.564 362.701C356.564 361.771 356.75 360.955 357.122 360.255C357.505 359.544 358.036 358.996 358.715 358.613C359.404 358.23 360.192 358.039 361.079 358.039C361.932 358.039 362.693 358.225 363.361 358.597C364.028 358.969 364.548 359.494 364.92 360.173C365.292 360.84 365.478 361.612 365.478 362.488ZM363.525 361.897C363.514 361.207 363.268 360.654 362.786 360.239C362.305 359.823 361.708 359.615 360.997 359.615C360.351 359.615 359.798 359.823 359.339 360.239C358.879 360.643 358.605 361.196 358.518 361.897H363.525Z"
  ></path>
  <path
    style="fill: var(--color-illustrationAnatomySubtle)"
    d="M239.542 410.147C238.48 410.147 237.501 409.9 236.603 409.408C235.717 408.904 235.011 408.209 234.486 407.323C233.971 406.426 233.714 405.419 233.714 404.302C233.714 403.186 233.971 402.185 234.486 401.298C235.011 400.412 235.717 399.722 236.603 399.23C237.501 398.726 238.48 398.475 239.542 398.475C240.614 398.475 241.594 398.726 242.48 399.23C243.378 399.722 244.084 400.412 244.598 401.298C245.113 402.185 245.37 403.186 245.37 404.302C245.37 405.419 245.113 406.426 244.598 407.323C244.084 408.209 243.378 408.904 242.48 409.408C241.594 409.9 240.614 410.147 239.542 410.147ZM239.542 408.521C240.297 408.521 240.97 408.352 241.561 408.013C242.152 407.662 242.612 407.17 242.94 406.535C243.279 405.889 243.449 405.145 243.449 404.302C243.449 403.46 243.279 402.721 242.94 402.086C242.612 401.451 242.152 400.964 241.561 400.625C240.97 400.286 240.297 400.116 239.542 400.116C238.787 400.116 238.114 400.286 237.523 400.625C236.932 400.964 236.467 401.451 236.127 402.086C235.799 402.721 235.635 403.46 235.635 404.302C235.635 405.145 235.799 405.889 236.127 406.535C236.467 407.17 236.932 407.662 237.523 408.013C238.114 408.352 238.787 408.521 239.542 408.521Z"
  ></path>
  <path
    style="fill: var(--color-illustrationAnatomySubtle)"
    d="M249.083 402.316C249.4 401.9 249.832 401.55 250.38 401.265C250.927 400.981 251.545 400.839 252.235 400.839C253.023 400.839 253.74 401.036 254.385 401.43C255.042 401.813 255.556 402.354 255.928 403.055C256.301 403.755 256.487 404.56 256.487 405.468C256.487 406.376 256.301 407.192 255.928 407.914C255.556 408.625 255.042 409.184 254.385 409.588C253.74 409.982 253.023 410.179 252.235 410.179C251.545 410.179 250.932 410.043 250.396 409.769C249.86 409.485 249.422 409.134 249.083 408.718V414.333H247.211V400.986H249.083V402.316ZM254.582 405.468C254.582 404.844 254.451 404.308 254.188 403.859C253.937 403.4 253.597 403.055 253.17 402.825C252.755 402.584 252.306 402.464 251.824 402.464C251.354 402.464 250.905 402.584 250.478 402.825C250.062 403.066 249.723 403.416 249.46 403.876C249.209 404.335 249.083 404.877 249.083 405.501C249.083 406.125 249.209 406.672 249.46 407.142C249.723 407.602 250.062 407.952 250.478 408.193C250.905 408.434 251.354 408.554 251.824 408.554C252.306 408.554 252.755 408.434 253.17 408.193C253.597 407.941 253.937 407.58 254.188 407.11C254.451 406.639 254.582 406.092 254.582 405.468Z"
  ></path>
  <path
    style="fill: var(--color-illustrationAnatomySubtle)"
    d="M260.521 402.513V407.52C260.521 407.859 260.597 408.106 260.75 408.259C260.915 408.401 261.188 408.472 261.571 408.472H262.72V410.032H261.243C260.4 410.032 259.755 409.835 259.306 409.441C258.857 409.047 258.633 408.406 258.633 407.52V402.513H257.566V400.986H258.633V398.737H260.521V400.986H262.72V402.513H260.521Z"
  ></path>
  <path
    style="fill: var(--color-illustrationAnatomySubtle)"
    d="M265.397 399.788C265.058 399.788 264.774 399.673 264.544 399.443C264.314 399.213 264.199 398.929 264.199 398.59C264.199 398.25 264.314 397.966 264.544 397.736C264.774 397.506 265.058 397.391 265.397 397.391C265.726 397.391 266.005 397.506 266.235 397.736C266.464 397.966 266.579 398.25 266.579 398.59C266.579 398.929 266.464 399.213 266.235 399.443C266.005 399.673 265.726 399.788 265.397 399.788ZM266.317 400.986V410.032H264.445V400.986H266.317Z"
  ></path>
  <path
    style="fill: var(--color-illustrationAnatomySubtle)"
    d="M272.697 410.179C271.844 410.179 271.072 409.988 270.383 409.605C269.693 409.211 269.151 408.664 268.757 407.963C268.363 407.252 268.166 406.431 268.166 405.501C268.166 404.581 268.369 403.766 268.774 403.055C269.179 402.343 269.731 401.796 270.432 401.413C271.132 401.03 271.915 400.839 272.779 400.839C273.644 400.839 274.427 401.03 275.127 401.413C275.827 401.796 276.38 402.343 276.785 403.055C277.19 403.766 277.392 404.581 277.392 405.501C277.392 406.42 277.184 407.235 276.769 407.947C276.353 408.658 275.784 409.211 275.061 409.605C274.35 409.988 273.562 410.179 272.697 410.179ZM272.697 408.554C273.179 408.554 273.628 408.439 274.043 408.209C274.47 407.98 274.815 407.635 275.078 407.175C275.34 406.716 275.472 406.157 275.472 405.501C275.472 404.844 275.346 404.291 275.094 403.843C274.842 403.383 274.509 403.038 274.093 402.809C273.677 402.579 273.228 402.464 272.747 402.464C272.265 402.464 271.816 402.579 271.4 402.809C270.995 403.038 270.673 403.383 270.432 403.843C270.191 404.291 270.071 404.844 270.071 405.501C270.071 406.475 270.317 407.23 270.809 407.766C271.313 408.292 271.942 408.554 272.697 408.554Z"
  ></path>
  <path
    style="fill: var(--color-illustrationAnatomySubtle)"
    d="M283.806 400.839C284.518 400.839 285.152 400.986 285.711 401.282C286.28 401.577 286.723 402.015 287.04 402.595C287.358 403.175 287.516 403.876 287.516 404.696V410.032H285.661V404.975C285.661 404.166 285.459 403.547 285.054 403.12C284.649 402.683 284.096 402.464 283.396 402.464C282.695 402.464 282.137 402.683 281.721 403.12C281.316 403.547 281.114 404.166 281.114 404.975V410.032H279.242V400.986H281.114V402.021C281.42 401.648 281.809 401.358 282.279 401.15C282.761 400.943 283.27 400.839 283.806 400.839Z"
  ></path>
  <path
    style="fill: var(--color-illustrationAnatomySubtle)"
    d="M295.12 399.788C294.781 399.788 294.496 399.673 294.266 399.443C294.037 399.213 293.922 398.929 293.922 398.59C293.922 398.25 294.037 397.966 294.266 397.736C294.496 397.506 294.781 397.391 295.12 397.391C295.448 397.391 295.727 397.506 295.957 397.736C296.187 397.966 296.302 398.25 296.302 398.59C296.302 398.929 296.187 399.213 295.957 399.443C295.727 399.673 295.448 399.788 295.12 399.788ZM296.039 400.986V410.032H294.168V400.986H296.039Z"
  ></path>
  <path
    style="fill: var(--color-illustrationAnatomySubtle)"
    d="M300.68 402.513V407.52C300.68 407.859 300.756 408.106 300.91 408.259C301.074 408.401 301.347 408.472 301.73 408.472H302.88V410.032H301.402C300.559 410.032 299.914 409.835 299.465 409.441C299.016 409.047 298.792 408.406 298.792 407.52V402.513H297.725V400.986H298.792V398.737H300.68V400.986H302.88V402.513H300.68Z"
  ></path>
  <path
    style="fill: var(--color-illustrationAnatomySubtle)"
    d="M312.895 405.287C312.895 405.627 312.873 405.933 312.829 406.207H305.918C305.972 406.929 306.241 407.509 306.722 407.947C307.204 408.385 307.795 408.603 308.495 408.603C309.502 408.603 310.213 408.182 310.629 407.339H312.648C312.375 408.171 311.877 408.855 311.155 409.391C310.443 409.917 309.557 410.179 308.495 410.179C307.631 410.179 306.853 409.988 306.164 409.605C305.485 409.211 304.949 408.664 304.555 407.963C304.172 407.252 303.981 406.431 303.981 405.501C303.981 404.571 304.167 403.755 304.539 403.055C304.922 402.343 305.453 401.796 306.131 401.413C306.821 401.03 307.609 400.839 308.495 400.839C309.349 400.839 310.109 401.025 310.777 401.397C311.445 401.769 311.964 402.294 312.337 402.973C312.709 403.64 312.895 404.412 312.895 405.287ZM310.941 404.696C310.93 404.007 310.684 403.454 310.202 403.038C309.721 402.622 309.124 402.415 308.413 402.415C307.767 402.415 307.215 402.622 306.755 403.038C306.295 403.443 306.022 403.996 305.934 404.696H310.941Z"
  ></path>
  <path
    style="fill: var(--color-illustrationAnatomySubtle)"
    d="M325.686 400.839C326.398 400.839 327.032 400.986 327.59 401.282C328.16 401.577 328.603 402.015 328.92 402.595C329.248 403.175 329.413 403.876 329.413 404.696V410.032H327.558V404.975C327.558 404.166 327.355 403.547 326.95 403.12C326.545 402.683 325.993 402.464 325.292 402.464C324.592 402.464 324.034 402.683 323.618 403.12C323.213 403.547 323.01 404.166 323.01 404.975V410.032H321.155V404.975C321.155 404.166 320.953 403.547 320.548 403.12C320.143 402.683 319.59 402.464 318.89 402.464C318.189 402.464 317.631 402.683 317.215 403.12C316.81 403.547 316.608 404.166 316.608 404.975V410.032H314.736V400.986H316.608V402.021C316.914 401.648 317.303 401.358 317.773 401.15C318.244 400.943 318.747 400.839 319.284 400.839C320.006 400.839 320.652 400.992 321.221 401.298C321.79 401.605 322.228 402.048 322.534 402.628C322.808 402.081 323.235 401.648 323.815 401.331C324.395 401.003 325.019 400.839 325.686 400.839Z"
  ></path>
  <path
    style="fill: var(--color-illustrationAnatomySubtle)"
    d="M338.242 402.513V407.52C338.242 407.859 338.318 408.106 338.472 408.259C338.636 408.401 338.909 408.472 339.292 408.472H340.442V410.032H338.964C338.121 410.032 337.476 409.835 337.027 409.441C336.578 409.047 336.354 408.406 336.354 407.52V402.513H335.287V400.986H336.354V398.737H338.242V400.986H340.442V402.513H338.242Z"
  ></path>
  <path
    style="fill: var(--color-illustrationAnatomySubtle)"
    d="M354.315 400.986L351.507 410.032H349.537L347.715 403.35L345.893 410.032H343.923L341.099 400.986H343.004L344.892 408.259L346.812 400.986H348.766L350.605 408.226L352.476 400.986H354.315Z"
  ></path>
  <path
    style="fill: var(--color-illustrationAnatomySubtle)"
    d="M359.637 410.179C358.783 410.179 358.011 409.988 357.322 409.605C356.633 409.211 356.091 408.664 355.697 407.963C355.303 407.252 355.106 406.431 355.106 405.501C355.106 404.581 355.308 403.766 355.713 403.055C356.118 402.343 356.671 401.796 357.371 401.413C358.072 401.03 358.854 400.839 359.719 400.839C360.583 400.839 361.366 401.03 362.066 401.413C362.767 401.796 363.319 402.343 363.724 403.055C364.129 403.766 364.332 404.581 364.332 405.501C364.332 406.42 364.124 407.235 363.708 407.947C363.292 408.658 362.723 409.211 362.001 409.605C361.289 409.988 360.501 410.179 359.637 410.179ZM359.637 408.554C360.118 408.554 360.567 408.439 360.983 408.209C361.41 407.98 361.754 407.635 362.017 407.175C362.28 406.716 362.411 406.157 362.411 405.501C362.411 404.844 362.285 404.291 362.034 403.843C361.782 403.383 361.448 403.038 361.032 402.809C360.616 402.579 360.168 402.464 359.686 402.464C359.204 402.464 358.756 402.579 358.34 402.809C357.935 403.038 357.612 403.383 357.371 403.843C357.13 404.291 357.01 404.844 357.01 405.501C357.01 406.475 357.256 407.23 357.749 407.766C358.252 408.292 358.882 408.554 359.637 408.554Z"
  ></path>
  <path
    style="fill: var(--color-illustrationAnatomySubtle)"
    d="M212 429.342H418.963V465.572H212V429.342Z"
  ></path>
  <path
    style="fill: var(--color-illustrationAnatomySubtle)"
    fill-rule="evenodd"
    clip-rule="evenodd"
    d="M418.377 429.928H212.586V464.985H418.377V429.928ZM212 429.342V465.572H418.963V429.342H212Z"
  ></path>
  <path
    style="fill: var(--color-illustrationInterface060)"
    d="M239.542 453.533C238.48 453.533 237.501 453.287 236.603 452.795C235.717 452.291 235.011 451.596 234.486 450.71C233.971 449.812 233.714 448.805 233.714 447.689C233.714 446.573 233.971 445.571 234.486 444.685C235.011 443.798 235.717 443.109 236.603 442.616C237.501 442.113 238.48 441.861 239.542 441.861C240.614 441.861 241.594 442.113 242.48 442.616C243.378 443.109 244.084 443.798 244.598 444.685C245.113 445.571 245.37 446.573 245.37 447.689C245.37 448.805 245.113 449.812 244.598 450.71C244.084 451.596 243.378 452.291 242.48 452.795C241.594 453.287 240.614 453.533 239.542 453.533ZM239.542 451.908C240.297 451.908 240.97 451.738 241.561 451.399C242.152 451.049 242.612 450.557 242.94 449.922C243.279 449.276 243.449 448.532 243.449 447.689C243.449 446.846 243.279 446.108 242.94 445.473C242.612 444.838 242.152 444.351 241.561 444.012C240.97 443.673 240.297 443.503 239.542 443.503C238.787 443.503 238.114 443.673 237.523 444.012C236.932 444.351 236.467 444.838 236.127 445.473C235.799 446.108 235.635 446.846 235.635 447.689C235.635 448.532 235.799 449.276 236.127 449.922C236.467 450.557 236.932 451.049 237.523 451.399C238.114 451.738 238.787 451.908 239.542 451.908Z"
  ></path>
  <path
    style="fill: var(--color-illustrationInterface060)"
    d="M249.083 445.703C249.4 445.287 249.832 444.937 250.38 444.652C250.927 444.368 251.545 444.225 252.235 444.225C253.023 444.225 253.74 444.422 254.385 444.816C255.042 445.199 255.556 445.741 255.928 446.441C256.301 447.142 256.487 447.946 256.487 448.855C256.487 449.763 256.301 450.578 255.928 451.301C255.556 452.012 255.042 452.57 254.385 452.975C253.74 453.369 253.023 453.566 252.235 453.566C251.545 453.566 250.932 453.429 250.396 453.156C249.86 452.871 249.422 452.521 249.083 452.105V457.72H247.211V444.373H249.083V445.703ZM254.582 448.855C254.582 448.231 254.451 447.695 254.188 447.246C253.937 446.786 253.597 446.441 253.17 446.212C252.755 445.971 252.306 445.85 251.824 445.85C251.354 445.85 250.905 445.971 250.478 446.212C250.062 446.452 249.723 446.803 249.46 447.262C249.209 447.722 249.083 448.264 249.083 448.888C249.083 449.511 249.209 450.059 249.46 450.529C249.723 450.989 250.062 451.339 250.478 451.58C250.905 451.821 251.354 451.941 251.824 451.941C252.306 451.941 252.755 451.821 253.17 451.58C253.597 451.328 253.937 450.967 254.188 450.496C254.451 450.026 254.582 449.479 254.582 448.855Z"
  ></path>
  <path
    style="fill: var(--color-illustrationInterface060)"
    d="M260.521 445.9V450.907C260.521 451.246 260.597 451.492 260.75 451.645C260.915 451.788 261.188 451.859 261.571 451.859H262.72V453.418H261.243C260.4 453.418 259.755 453.221 259.306 452.827C258.857 452.433 258.633 451.793 258.633 450.907V445.9H257.566V444.373H258.633V442.124H260.521V444.373H262.72V445.9H260.521Z"
  ></path>
  <path
    style="fill: var(--color-illustrationInterface060)"
    d="M265.397 443.175C265.058 443.175 264.774 443.06 264.544 442.83C264.314 442.6 264.199 442.315 264.199 441.976C264.199 441.637 264.314 441.352 264.544 441.123C264.774 440.893 265.058 440.778 265.397 440.778C265.726 440.778 266.005 440.893 266.235 441.123C266.465 441.352 266.579 441.637 266.579 441.976C266.579 442.315 266.465 442.6 266.235 442.83C266.005 443.06 265.726 443.175 265.397 443.175ZM266.317 444.373V453.418H264.445V444.373H266.317Z"
  ></path>
  <path
    style="fill: var(--color-illustrationInterface060)"
    d="M272.697 453.566C271.844 453.566 271.072 453.375 270.383 452.992C269.693 452.598 269.151 452.05 268.757 451.35C268.363 450.639 268.166 449.818 268.166 448.888C268.166 447.968 268.369 447.153 268.774 446.441C269.179 445.73 269.731 445.183 270.432 444.8C271.132 444.417 271.915 444.225 272.779 444.225C273.644 444.225 274.427 444.417 275.127 444.8C275.827 445.183 276.38 445.73 276.785 446.441C277.19 447.153 277.392 447.968 277.392 448.888C277.392 449.807 277.184 450.622 276.769 451.334C276.353 452.045 275.784 452.598 275.061 452.992C274.35 453.375 273.562 453.566 272.697 453.566ZM272.697 451.941C273.179 451.941 273.628 451.826 274.043 451.596C274.47 451.366 274.815 451.022 275.078 450.562C275.34 450.102 275.472 449.544 275.472 448.888C275.472 448.231 275.346 447.678 275.094 447.229C274.842 446.77 274.509 446.425 274.093 446.195C273.677 445.965 273.228 445.85 272.747 445.85C272.265 445.85 271.816 445.965 271.4 446.195C270.996 446.425 270.673 446.77 270.432 447.229C270.191 447.678 270.071 448.231 270.071 448.888C270.071 449.862 270.317 450.617 270.809 451.153C271.313 451.678 271.942 451.941 272.697 451.941Z"
  ></path>
  <path
    style="fill: var(--color-illustrationInterface060)"
    d="M283.806 444.225C284.518 444.225 285.152 444.373 285.711 444.669C286.28 444.964 286.723 445.402 287.04 445.982C287.358 446.562 287.516 447.262 287.516 448.083V453.418H285.661V448.362C285.661 447.552 285.459 446.934 285.054 446.507C284.649 446.069 284.096 445.85 283.396 445.85C282.695 445.85 282.137 446.069 281.721 446.507C281.316 446.934 281.114 447.552 281.114 448.362V453.418H279.242V444.373H281.114V445.407C281.42 445.035 281.809 444.745 282.279 444.537C282.761 444.329 283.27 444.225 283.806 444.225Z"
  ></path>
  <path
    style="fill: var(--color-illustrationInterface060)"
    d="M295.12 443.175C294.781 443.175 294.496 443.06 294.266 442.83C294.037 442.6 293.922 442.315 293.922 441.976C293.922 441.637 294.037 441.352 294.266 441.123C294.496 440.893 294.781 440.778 295.12 440.778C295.448 440.778 295.727 440.893 295.957 441.123C296.187 441.352 296.302 441.637 296.302 441.976C296.302 442.315 296.187 442.6 295.957 442.83C295.727 443.06 295.448 443.175 295.12 443.175ZM296.039 444.373V453.418H294.168V444.373H296.039Z"
  ></path>
  <path
    style="fill: var(--color-illustrationInterface060)"
    d="M300.68 445.9V450.907C300.68 451.246 300.756 451.492 300.91 451.645C301.074 451.788 301.347 451.859 301.73 451.859H302.88V453.418H301.402C300.559 453.418 299.914 453.221 299.465 452.827C299.016 452.433 298.792 451.793 298.792 450.907V445.9H297.725V444.373H298.792V442.124H300.68V444.373H302.88V445.9H300.68Z"
  ></path>
  <path
    style="fill: var(--color-illustrationInterface060)"
    d="M312.895 448.674C312.895 449.013 312.873 449.32 312.829 449.593H305.918C305.972 450.316 306.241 450.896 306.722 451.334C307.204 451.771 307.795 451.99 308.495 451.99C309.502 451.99 310.213 451.569 310.629 450.726H312.648C312.375 451.558 311.877 452.242 311.155 452.778C310.443 453.304 309.557 453.566 308.495 453.566C307.631 453.566 306.853 453.375 306.164 452.992C305.485 452.598 304.949 452.05 304.555 451.35C304.172 450.639 303.981 449.818 303.981 448.888C303.981 447.957 304.167 447.142 304.539 446.441C304.922 445.73 305.453 445.183 306.131 444.8C306.821 444.417 307.609 444.225 308.495 444.225C309.349 444.225 310.109 444.411 310.777 444.783C311.445 445.156 311.964 445.681 312.337 446.359C312.709 447.027 312.895 447.799 312.895 448.674ZM310.941 448.083C310.93 447.394 310.684 446.841 310.202 446.425C309.721 446.009 309.124 445.801 308.413 445.801C307.767 445.801 307.215 446.009 306.755 446.425C306.295 446.83 306.022 447.383 305.934 448.083H310.941Z"
  ></path>
  <path
    style="fill: var(--color-illustrationInterface060)"
    d="M325.686 444.225C326.398 444.225 327.032 444.373 327.59 444.669C328.16 444.964 328.603 445.402 328.92 445.982C329.249 446.562 329.413 447.262 329.413 448.083V453.418H327.558V448.362C327.558 447.552 327.355 446.934 326.95 446.507C326.545 446.069 325.993 445.85 325.292 445.85C324.592 445.85 324.034 446.069 323.618 446.507C323.213 446.934 323.01 447.552 323.01 448.362V453.418H321.155V448.362C321.155 447.552 320.953 446.934 320.548 446.507C320.143 446.069 319.59 445.85 318.89 445.85C318.189 445.85 317.631 446.069 317.215 446.507C316.81 446.934 316.608 447.552 316.608 448.362V453.418H314.736V444.373H316.608V445.407C316.914 445.035 317.303 444.745 317.773 444.537C318.244 444.329 318.748 444.225 319.284 444.225C320.006 444.225 320.652 444.378 321.221 444.685C321.79 444.991 322.228 445.435 322.534 446.015C322.808 445.467 323.235 445.035 323.815 444.718C324.395 444.389 325.019 444.225 325.686 444.225Z"
  ></path>
  <path
    style="fill: var(--color-illustrationInterface060)"
    d="M338.242 445.9V450.907C338.242 451.246 338.318 451.492 338.472 451.645C338.636 451.788 338.909 451.859 339.292 451.859H340.442V453.418H338.964C338.121 453.418 337.476 453.221 337.027 452.827C336.578 452.433 336.354 451.793 336.354 450.907V445.9H335.287V444.373H336.354V442.124H338.242V444.373H340.442V445.9H338.242Z"
  ></path>
  <path
    style="fill: var(--color-illustrationInterface060)"
    d="M346.845 444.225C347.535 444.225 348.148 444.373 348.684 444.669C349.231 444.964 349.658 445.402 349.964 445.982C350.282 446.562 350.44 447.262 350.44 448.083V453.418H348.585V448.362C348.585 447.552 348.383 446.934 347.978 446.507C347.573 446.069 347.02 445.85 346.32 445.85C345.619 445.85 345.061 446.069 344.645 446.507C344.24 446.934 344.038 447.552 344.038 448.362V453.418H342.167V441.27H344.038V445.424C344.355 445.041 344.755 444.745 345.236 444.537C345.729 444.329 346.265 444.225 346.845 444.225Z"
  ></path>
  <path
    style="fill: var(--color-illustrationInterface060)"
    d="M354.699 445.686C354.973 445.227 355.334 444.871 355.782 444.619C356.242 444.357 356.784 444.225 357.408 444.225V446.162H356.932C356.198 446.162 355.64 446.348 355.257 446.721C354.885 447.093 354.699 447.738 354.699 448.658V453.418H352.828V444.373H354.699V445.686Z"
  ></path>
  <path
    style="fill: var(--color-illustrationInterface060)"
    d="M367.418 448.674C367.418 449.013 367.396 449.32 367.353 449.593H360.441C360.496 450.316 360.764 450.896 361.246 451.334C361.727 451.771 362.318 451.99 363.019 451.99C364.025 451.99 364.737 451.569 365.153 450.726H367.172C366.898 451.558 366.4 452.242 365.678 452.778C364.967 453.304 364.08 453.566 363.019 453.566C362.154 453.566 361.377 453.375 360.688 452.992C360.009 452.598 359.473 452.05 359.079 451.35C358.696 450.639 358.504 449.818 358.504 448.888C358.504 447.957 358.69 447.142 359.062 446.441C359.445 445.73 359.976 445.183 360.655 444.8C361.344 444.417 362.132 444.225 363.019 444.225C363.872 444.225 364.633 444.411 365.301 444.783C365.968 445.156 366.488 445.681 366.86 446.359C367.232 447.027 367.418 447.799 367.418 448.674ZM365.465 448.083C365.454 447.394 365.207 446.841 364.726 446.425C364.244 446.009 363.648 445.801 362.937 445.801C362.291 445.801 361.738 446.009 361.278 446.425C360.819 446.83 360.545 447.383 360.458 448.083H365.465Z"
  ></path>
  <path
    style="fill: var(--color-illustrationInterface060)"
    d="M377.55 448.674C377.55 449.013 377.528 449.32 377.485 449.593H370.573C370.628 450.316 370.896 450.896 371.378 451.334C371.859 451.771 372.45 451.99 373.151 451.99C374.157 451.99 374.869 451.569 375.285 450.726H377.304C377.03 451.558 376.532 452.242 375.81 452.778C375.099 453.304 374.212 453.566 373.151 453.566C372.286 453.566 371.509 453.375 370.819 452.992C370.141 452.598 369.605 452.05 369.211 451.35C368.828 450.639 368.636 449.818 368.636 448.888C368.636 447.957 368.822 447.142 369.194 446.441C369.577 445.73 370.108 445.183 370.787 444.8C371.476 444.417 372.264 444.225 373.151 444.225C374.004 444.225 374.765 444.411 375.432 444.783C376.1 445.156 376.62 445.681 376.992 446.359C377.364 447.027 377.55 447.799 377.55 448.674ZM375.597 448.083C375.586 447.394 375.339 446.841 374.858 446.425C374.376 446.009 373.78 445.801 373.069 445.801C372.423 445.801 371.87 446.009 371.41 446.425C370.951 446.83 370.677 447.383 370.59 448.083H375.597Z"
  ></path>
  <path
    style="fill: var(--color-illustrationAnatomySubtle)"
    d="M239.542 495.746C238.48 495.746 237.501 495.5 236.603 495.007C235.717 494.504 235.011 493.809 234.486 492.922C233.971 492.025 233.714 491.018 233.714 489.902C233.714 488.785 233.971 487.784 234.486 486.897C235.011 486.011 235.717 485.321 236.603 484.829C237.501 484.326 238.48 484.074 239.542 484.074C240.614 484.074 241.594 484.326 242.48 484.829C243.378 485.321 244.084 486.011 244.598 486.897C245.113 487.784 245.37 488.785 245.37 489.902C245.37 491.018 245.113 492.025 244.598 492.922C244.084 493.809 243.378 494.504 242.48 495.007C241.594 495.5 240.614 495.746 239.542 495.746ZM239.542 494.121C240.297 494.121 240.97 493.951 241.561 493.612C242.152 493.262 242.612 492.769 242.94 492.134C243.279 491.489 243.449 490.744 243.449 489.902C243.449 489.059 243.279 488.32 242.94 487.685C242.612 487.051 242.152 486.564 241.561 486.224C240.97 485.885 240.297 485.715 239.542 485.715C238.787 485.715 238.114 485.885 237.523 486.224C236.932 486.564 236.467 487.051 236.127 487.685C235.799 488.32 235.635 489.059 235.635 489.902C235.635 490.744 235.799 491.489 236.127 492.134C236.467 492.769 236.932 493.262 237.523 493.612C238.114 493.951 238.787 494.121 239.542 494.121Z"
  ></path>
  <path
    style="fill: var(--color-illustrationAnatomySubtle)"
    d="M249.083 487.915C249.4 487.499 249.832 487.149 250.38 486.865C250.927 486.58 251.545 486.438 252.235 486.438C253.023 486.438 253.74 486.635 254.385 487.029C255.042 487.412 255.556 487.954 255.928 488.654C256.301 489.354 256.487 490.159 256.487 491.067C256.487 491.976 256.301 492.791 255.928 493.513C255.556 494.225 255.042 494.783 254.385 495.188C253.74 495.582 253.023 495.779 252.235 495.779C251.545 495.779 250.932 495.642 250.396 495.368C249.86 495.084 249.422 494.734 249.083 494.318V499.932H247.211V486.586H249.083V487.915ZM254.582 491.067C254.582 490.443 254.451 489.907 254.188 489.458C253.937 488.999 253.597 488.654 253.17 488.424C252.755 488.183 252.306 488.063 251.824 488.063C251.354 488.063 250.905 488.183 250.478 488.424C250.062 488.665 249.723 489.015 249.46 489.475C249.209 489.934 249.083 490.476 249.083 491.1C249.083 491.724 249.209 492.271 249.46 492.742C249.723 493.201 250.062 493.552 250.478 493.792C250.905 494.033 251.354 494.153 251.824 494.153C252.306 494.153 252.755 494.033 253.17 493.792C253.597 493.541 253.937 493.179 254.188 492.709C254.451 492.238 254.582 491.691 254.582 491.067Z"
  ></path>
  <path
    style="fill: var(--color-illustrationAnatomySubtle)"
    d="M260.521 488.112V493.119C260.521 493.459 260.597 493.705 260.75 493.858C260.915 494 261.188 494.071 261.571 494.071H262.72V495.631H261.243C260.4 495.631 259.755 495.434 259.306 495.04C258.857 494.646 258.633 494.006 258.633 493.119V488.112H257.566V486.586H258.633V484.336H260.521V486.586H262.72V488.112H260.521Z"
  ></path>
  <path
    style="fill: var(--color-illustrationAnatomySubtle)"
    d="M265.397 485.387C265.058 485.387 264.774 485.272 264.544 485.042C264.314 484.813 264.199 484.528 264.199 484.189C264.199 483.849 264.314 483.565 264.544 483.335C264.774 483.105 265.058 482.99 265.397 482.99C265.726 482.99 266.005 483.105 266.235 483.335C266.465 483.565 266.579 483.849 266.579 484.189C266.579 484.528 266.465 484.813 266.235 485.042C266.005 485.272 265.726 485.387 265.397 485.387ZM266.317 486.586V495.631H264.445V486.586H266.317Z"
  ></path>
  <path
    style="fill: var(--color-illustrationAnatomySubtle)"
    d="M272.697 495.779C271.844 495.779 271.072 495.587 270.383 495.204C269.693 494.81 269.151 494.263 268.757 493.562C268.363 492.851 268.166 492.03 268.166 491.1C268.166 490.181 268.369 489.365 268.774 488.654C269.179 487.943 269.731 487.395 270.432 487.012C271.132 486.629 271.915 486.438 272.779 486.438C273.644 486.438 274.427 486.629 275.127 487.012C275.827 487.395 276.38 487.943 276.785 488.654C277.19 489.365 277.392 490.181 277.392 491.1C277.392 492.019 277.184 492.835 276.769 493.546C276.353 494.257 275.784 494.81 275.061 495.204C274.35 495.587 273.562 495.779 272.697 495.779ZM272.697 494.153C273.179 494.153 273.628 494.039 274.043 493.809C274.47 493.579 274.815 493.234 275.078 492.775C275.34 492.315 275.472 491.757 275.472 491.1C275.472 490.443 275.346 489.891 275.094 489.442C274.842 488.982 274.509 488.638 274.093 488.408C273.677 488.178 273.228 488.063 272.747 488.063C272.265 488.063 271.816 488.178 271.4 488.408C270.996 488.638 270.673 488.982 270.432 489.442C270.191 489.891 270.071 490.443 270.071 491.1C270.071 492.074 270.317 492.829 270.809 493.365C271.313 493.891 271.942 494.153 272.697 494.153Z"
  ></path>
  <path
    style="fill: var(--color-illustrationAnatomySubtle)"
    d="M283.806 486.438C284.518 486.438 285.152 486.586 285.711 486.881C286.28 487.177 286.723 487.614 287.04 488.194C287.358 488.774 287.516 489.475 287.516 490.296V495.631H285.661V490.575C285.661 489.765 285.459 489.146 285.054 488.72C284.649 488.282 284.096 488.063 283.396 488.063C282.695 488.063 282.137 488.282 281.721 488.72C281.316 489.146 281.114 489.765 281.114 490.575V495.631H279.242V486.586H281.114V487.62C281.42 487.248 281.809 486.958 282.279 486.75C282.761 486.542 283.27 486.438 283.806 486.438Z"
  ></path>
  <path
    style="fill: var(--color-illustrationAnatomySubtle)"
    d="M295.12 485.387C294.781 485.387 294.496 485.272 294.266 485.042C294.037 484.813 293.922 484.528 293.922 484.189C293.922 483.849 294.037 483.565 294.266 483.335C294.496 483.105 294.781 482.99 295.12 482.99C295.448 482.99 295.727 483.105 295.957 483.335C296.187 483.565 296.302 483.849 296.302 484.189C296.302 484.528 296.187 484.813 295.957 485.042C295.727 485.272 295.448 485.387 295.12 485.387ZM296.039 486.586V495.631H294.168V486.586H296.039Z"
  ></path>
  <path
    style="fill: var(--color-illustrationAnatomySubtle)"
    d="M300.68 488.112V493.119C300.68 493.459 300.756 493.705 300.91 493.858C301.074 494 301.347 494.071 301.73 494.071H302.88V495.631H301.402C300.559 495.631 299.914 495.434 299.465 495.04C299.016 494.646 298.792 494.006 298.792 493.119V488.112H297.725V486.586H298.792V484.336H300.68V486.586H302.88V488.112H300.68Z"
  ></path>
  <path
    style="fill: var(--color-illustrationAnatomySubtle)"
    d="M312.895 490.887C312.895 491.226 312.873 491.532 312.829 491.806H305.918C305.972 492.528 306.241 493.108 306.722 493.546C307.204 493.984 307.795 494.203 308.495 494.203C309.502 494.203 310.213 493.781 310.629 492.939H312.648C312.375 493.77 311.877 494.454 311.155 494.991C310.443 495.516 309.557 495.779 308.495 495.779C307.631 495.779 306.853 495.587 306.164 495.204C305.485 494.81 304.949 494.263 304.555 493.562C304.172 492.851 303.981 492.03 303.981 491.1C303.981 490.17 304.167 489.354 304.539 488.654C304.922 487.943 305.453 487.395 306.131 487.012C306.821 486.629 307.609 486.438 308.495 486.438C309.349 486.438 310.109 486.624 310.777 486.996C311.445 487.368 311.964 487.893 312.337 488.572C312.709 489.24 312.895 490.011 312.895 490.887ZM310.941 490.296C310.93 489.606 310.684 489.053 310.202 488.638C309.721 488.222 309.124 488.014 308.413 488.014C307.767 488.014 307.215 488.222 306.755 488.638C306.295 489.043 306.022 489.595 305.934 490.296H310.941Z"
  ></path>
  <path
    style="fill: var(--color-illustrationAnatomySubtle)"
    d="M325.686 486.438C326.398 486.438 327.032 486.586 327.59 486.881C328.16 487.177 328.603 487.614 328.92 488.194C329.249 488.774 329.413 489.475 329.413 490.296V495.631H327.558V490.575C327.558 489.765 327.355 489.146 326.95 488.72C326.545 488.282 325.993 488.063 325.292 488.063C324.592 488.063 324.034 488.282 323.618 488.72C323.213 489.146 323.01 489.765 323.01 490.575V495.631H321.155V490.575C321.155 489.765 320.953 489.146 320.548 488.72C320.143 488.282 319.59 488.063 318.89 488.063C318.189 488.063 317.631 488.282 317.215 488.72C316.81 489.146 316.608 489.765 316.608 490.575V495.631H314.736V486.586H316.608V487.62C316.914 487.248 317.303 486.958 317.773 486.75C318.244 486.542 318.748 486.438 319.284 486.438C320.006 486.438 320.652 486.591 321.221 486.897C321.79 487.204 322.228 487.647 322.534 488.227C322.808 487.68 323.235 487.248 323.815 486.93C324.395 486.602 325.019 486.438 325.686 486.438Z"
  ></path>
  <path
    style="fill: var(--color-illustrationAnatomySubtle)"
    d="M339.851 488.112H338.176V495.631H336.288V488.112H335.221V486.586H336.288V485.945C336.288 484.906 336.562 484.15 337.109 483.68C337.667 483.198 338.537 482.958 339.719 482.958V484.517C339.15 484.517 338.751 484.627 338.521 484.845C338.291 485.053 338.176 485.42 338.176 485.945V486.586H339.851V488.112Z"
  ></path>
  <path
    style="fill: var(--color-illustrationAnatomySubtle)"
    d="M345.433 495.779C344.579 495.779 343.808 495.587 343.118 495.204C342.429 494.81 341.887 494.263 341.493 493.562C341.099 492.851 340.902 492.03 340.902 491.1C340.902 490.181 341.104 489.365 341.509 488.654C341.914 487.943 342.467 487.395 343.167 487.012C343.868 486.629 344.65 486.438 345.515 486.438C346.379 486.438 347.162 486.629 347.862 487.012C348.563 487.395 349.115 487.943 349.52 488.654C349.925 489.365 350.128 490.181 350.128 491.1C350.128 492.019 349.92 492.835 349.504 493.546C349.088 494.257 348.519 494.81 347.797 495.204C347.085 495.587 346.297 495.779 345.433 495.779ZM345.433 494.153C345.914 494.153 346.363 494.039 346.779 493.809C347.206 493.579 347.55 493.234 347.813 492.775C348.076 492.315 348.207 491.757 348.207 491.1C348.207 490.443 348.081 489.891 347.83 489.442C347.578 488.982 347.244 488.638 346.828 488.408C346.412 488.178 345.964 488.063 345.482 488.063C345 488.063 344.552 488.178 344.136 488.408C343.731 488.638 343.408 488.982 343.167 489.442C342.926 489.891 342.806 490.443 342.806 491.1C342.806 492.074 343.052 492.829 343.545 493.365C344.048 493.891 344.678 494.153 345.433 494.153Z"
  ></path>
  <path
    style="fill: var(--color-illustrationAnatomySubtle)"
    d="M360.17 486.586V495.631H358.298V494.564C358.003 494.936 357.614 495.231 357.133 495.45C356.662 495.658 356.159 495.762 355.622 495.762C354.911 495.762 354.271 495.615 353.702 495.319C353.143 495.024 352.7 494.586 352.372 494.006C352.054 493.426 351.896 492.725 351.896 491.904V486.586H353.751V491.625C353.751 492.435 353.953 493.059 354.358 493.497C354.763 493.924 355.316 494.137 356.016 494.137C356.717 494.137 357.269 493.924 357.674 493.497C358.09 493.059 358.298 492.435 358.298 491.625V486.586H360.17Z"
  ></path>
  <path
    style="fill: var(--color-illustrationAnatomySubtle)"
    d="M364.51 487.899C364.784 487.439 365.145 487.083 365.594 486.832C366.053 486.569 366.595 486.438 367.219 486.438V488.375H366.743C366.01 488.375 365.452 488.561 365.068 488.933C364.696 489.305 364.51 489.951 364.51 490.87V495.631H362.639V486.586H364.51V487.899Z"
  ></path>
  <path
    style="fill: var(--color-illustrationAnatomySubtle)"
    d="M337.848 629.238C337.848 640.711 328.547 650.012 317.074 650.012C305.6 650.012 296.299 640.711 296.299 629.238C296.299 617.764 305.6 608.463 317.074 608.463C328.547 608.463 337.848 617.764 337.848 629.238Z"
  ></path>
  <path
    style="fill: var(--color-illustrationAnatomySubtle)"
    d="M337.848 629.238C337.848 640.711 328.547 650.012 317.074 650.012C305.6 650.012 296.299 640.711 296.299 629.238C296.299 617.764 305.6 608.463 317.074 608.463C328.547 608.463 337.848 617.764 337.848 629.238Z"
  ></path>
  <path
    d="M337.848 629.238C337.848 640.711 328.547 650.012 317.074 650.012C305.6 650.012 296.299 640.711 296.299 629.238C296.299 617.764 305.6 608.463 317.074 608.463C328.547 608.463 337.848 617.764 337.848 629.238Z"
    stroke="#AEBFFF"
    stroke-width="0.888255"
  ></path>
  <path
    style="fill: var(--color-illustrationInterface020)"
    d="M732.753 300.024C732.753 297.742 734.61 295.893 736.901 295.893H1085.88C1088.17 295.893 1090.03 297.742 1090.03 300.024V566.943C1090.03 569.225 1088.17 571.074 1085.88 571.074H736.901C734.61 571.074 732.753 569.225 732.753 566.943V300.024Z"
  ></path>
  <path
    style="fill: var(--color-illustrationAnatomyBorder020)"
    fill-rule="evenodd"
    clip-rule="evenodd"
    d="M732.753 299.79C732.753 297.219 734.838 295.135 737.41 295.135H1085.37C1087.94 295.135 1090.03 297.219 1090.03 299.79V567.177C1090.03 569.748 1087.94 571.832 1085.37 571.832H737.41C734.838 571.832 732.753 569.748 732.753 567.177V299.79ZM737.41 296.17C735.41 296.17 733.788 297.791 733.788 299.79V567.177C733.788 569.177 735.41 570.798 737.41 570.798H1085.37C1087.37 570.798 1088.99 569.177 1088.99 567.177V299.79C1088.99 297.791 1087.37 296.17 1085.37 296.17H737.41Z"
  ></path>
  <path
    style="fill: var(--color-illustrationPalette040)"
    d="M1065.42 321.566L1064.03 320.268L1058.5 325.414L1052.98 320.268L1051.58 321.566L1057.11 326.712L1051.58 331.857L1052.98 333.155L1058.5 328.01L1064.03 333.155L1065.42 331.857L1059.9 326.712L1065.42 321.566Z"
  ></path>
  <path
    style="fill: var(--color-illustrationAnatomySubtle)"
    d="M765.292 378.018C764.072 378.018 762.947 377.735 761.915 377.169C760.897 376.59 760.085 375.792 759.482 374.773C758.891 373.742 758.595 372.585 758.595 371.302C758.595 370.019 758.891 368.868 759.482 367.849C760.085 366.831 760.897 366.038 761.915 365.472C762.947 364.894 764.072 364.604 765.292 364.604C766.525 364.604 767.65 364.894 768.669 365.472C769.7 366.038 770.512 366.831 771.103 367.849C771.694 368.868 771.989 370.019 771.989 371.302C771.989 372.585 771.694 373.742 771.103 374.773C770.512 375.792 769.7 376.59 768.669 377.169C767.65 377.735 766.525 378.018 765.292 378.018ZM765.292 376.15C766.16 376.15 766.933 375.955 767.613 375.565C768.292 375.163 768.82 374.597 769.197 373.867C769.587 373.125 769.782 372.27 769.782 371.302C769.782 370.333 769.587 369.484 769.197 368.755C768.82 368.025 768.292 367.466 767.613 367.076C766.933 366.686 766.16 366.491 765.292 366.491C764.424 366.491 763.651 366.686 762.972 367.076C762.293 367.466 761.758 368.025 761.368 368.755C760.991 369.484 760.802 370.333 760.802 371.302C760.802 372.27 760.991 373.125 761.368 373.867C761.758 374.597 762.293 375.163 762.972 375.565C763.651 375.955 764.424 376.15 765.292 376.15Z"
  ></path>
  <path
    style="fill: var(--color-illustrationAnatomySubtle)"
    d="M776.256 369.019C776.621 368.541 777.118 368.139 777.747 367.812C778.375 367.485 779.086 367.321 779.878 367.321C780.784 367.321 781.608 367.547 782.35 368C783.104 368.44 783.695 369.063 784.123 369.868C784.551 370.673 784.765 371.597 784.765 372.641C784.765 373.685 784.551 374.622 784.123 375.452C783.695 376.27 783.104 376.911 782.35 377.376C781.608 377.829 780.784 378.055 779.878 378.055C779.086 378.055 778.382 377.898 777.766 377.584C777.149 377.257 776.646 376.854 776.256 376.376V382.828H774.106V367.491H776.256V369.019ZM782.576 372.641C782.576 371.924 782.425 371.308 782.123 370.792C781.834 370.264 781.444 369.868 780.954 369.604C780.476 369.327 779.96 369.189 779.407 369.189C778.866 369.189 778.35 369.327 777.86 369.604C777.382 369.88 776.992 370.283 776.69 370.811C776.401 371.339 776.256 371.962 776.256 372.679C776.256 373.396 776.401 374.025 776.69 374.565C776.992 375.094 777.382 375.496 777.86 375.773C778.35 376.049 778.866 376.188 779.407 376.188C779.96 376.188 780.476 376.049 780.954 375.773C781.444 375.483 781.834 375.068 782.123 374.528C782.425 373.987 782.576 373.358 782.576 372.641Z"
  ></path>
  <path
    style="fill: var(--color-illustrationAnatomySubtle)"
    d="M789.4 369.245V374.999C789.4 375.389 789.488 375.672 789.665 375.848C789.853 376.012 790.168 376.093 790.608 376.093H791.928V377.886H790.23C789.262 377.886 788.52 377.659 788.004 377.207C787.489 376.754 787.231 376.018 787.231 374.999V369.245H786.005V367.491H787.231V364.906H789.4V367.491H791.928V369.245H789.4Z"
  ></path>
  <path
    style="fill: var(--color-illustrationAnatomySubtle)"
    d="M795.005 366.114C794.615 366.114 794.288 365.982 794.024 365.718C793.76 365.453 793.628 365.126 793.628 364.737C793.628 364.347 793.76 364.02 794.024 363.756C794.288 363.491 794.615 363.359 795.005 363.359C795.382 363.359 795.703 363.491 795.967 363.756C796.231 364.02 796.363 364.347 796.363 364.737C796.363 365.126 796.231 365.453 795.967 365.718C795.703 365.982 795.382 366.114 795.005 366.114ZM796.061 367.491V377.886H793.911V367.491H796.061Z"
  ></path>
  <path
    style="fill: var(--color-illustrationAnatomySubtle)"
    d="M803.394 378.055C802.413 378.055 801.526 377.835 800.734 377.395C799.941 376.942 799.319 376.314 798.866 375.509C798.413 374.691 798.187 373.748 798.187 372.679C798.187 371.622 798.419 370.685 798.885 369.868C799.35 369.05 799.985 368.422 800.79 367.981C801.595 367.541 802.494 367.321 803.488 367.321C804.481 367.321 805.381 367.541 806.186 367.981C806.991 368.422 807.626 369.05 808.091 369.868C808.556 370.685 808.789 371.622 808.789 372.679C808.789 373.735 808.55 374.672 808.072 375.49C807.594 376.307 806.94 376.942 806.11 377.395C805.293 377.835 804.387 378.055 803.394 378.055ZM803.394 376.188C803.947 376.188 804.463 376.056 804.941 375.792C805.431 375.527 805.827 375.131 806.129 374.603C806.431 374.075 806.582 373.433 806.582 372.679C806.582 371.924 806.437 371.289 806.148 370.773C805.859 370.245 805.475 369.849 804.997 369.585C804.519 369.321 804.004 369.189 803.45 369.189C802.897 369.189 802.381 369.321 801.903 369.585C801.438 369.849 801.067 370.245 800.79 370.773C800.513 371.289 800.375 371.924 800.375 372.679C800.375 373.798 800.658 374.666 801.224 375.282C801.803 375.886 802.526 376.188 803.394 376.188Z"
  ></path>
  <path
    style="fill: var(--color-illustrationAnatomySubtle)"
    d="M816.16 367.321C816.977 367.321 817.707 367.491 818.348 367.83C819.002 368.17 819.511 368.673 819.876 369.34C820.241 370.006 820.423 370.811 820.423 371.754V377.886H818.291V372.075C818.291 371.144 818.059 370.434 817.593 369.943C817.128 369.44 816.493 369.189 815.688 369.189C814.883 369.189 814.242 369.44 813.764 369.943C813.298 370.434 813.066 371.144 813.066 372.075V377.886H810.915V367.491H813.066V368.679C813.418 368.252 813.864 367.918 814.405 367.68C814.959 367.441 815.543 367.321 816.16 367.321Z"
  ></path>
  <path
    style="fill: var(--color-illustrationAnatomySubtle)"
    d="M829.161 366.114C828.771 366.114 828.444 365.982 828.18 365.718C827.916 365.453 827.784 365.126 827.784 364.737C827.784 364.347 827.916 364.02 828.18 363.756C828.444 363.491 828.771 363.359 829.161 363.359C829.539 363.359 829.859 363.491 830.123 363.756C830.387 364.02 830.52 364.347 830.52 364.737C830.52 365.126 830.387 365.453 830.123 365.718C829.859 365.982 829.539 366.114 829.161 366.114ZM830.218 367.491V377.886H828.067V367.491H830.218Z"
  ></path>
  <path
    style="fill: var(--color-illustrationAnatomySubtle)"
    d="M835.55 369.245V374.999C835.55 375.389 835.638 375.672 835.814 375.848C836.003 376.012 836.318 376.093 836.758 376.093H838.078V377.886H836.38C835.412 377.886 834.67 377.659 834.154 377.207C833.639 376.754 833.381 376.018 833.381 374.999V369.245H832.155V367.491H833.381V364.906H835.55V367.491H838.078V369.245H835.55Z"
  ></path>
  <path
    style="fill: var(--color-illustrationAnatomySubtle)"
    d="M849.587 372.434C849.587 372.823 849.562 373.176 849.512 373.49H841.57C841.633 374.32 841.941 374.987 842.494 375.49C843.048 375.993 843.727 376.244 844.532 376.244C845.689 376.244 846.506 375.76 846.984 374.792H849.304C848.99 375.748 848.418 376.534 847.588 377.15C846.77 377.754 845.752 378.055 844.532 378.055C843.538 378.055 842.645 377.835 841.853 377.395C841.073 376.942 840.457 376.314 840.004 375.509C839.564 374.691 839.344 373.748 839.344 372.679C839.344 371.61 839.557 370.673 839.985 369.868C840.425 369.05 841.035 368.422 841.815 367.981C842.607 367.541 843.513 367.321 844.532 367.321C845.513 367.321 846.387 367.535 847.154 367.963C847.921 368.39 848.518 368.994 848.946 369.774C849.374 370.541 849.587 371.427 849.587 372.434ZM847.342 371.754C847.33 370.962 847.047 370.327 846.494 369.849C845.94 369.371 845.255 369.132 844.437 369.132C843.695 369.132 843.06 369.371 842.532 369.849C842.004 370.314 841.689 370.95 841.589 371.754H847.342Z"
  ></path>
  <path
    style="fill: var(--color-illustrationAnatomySubtle)"
    d="M864.287 367.321C865.105 367.321 865.834 367.491 866.475 367.83C867.129 368.17 867.639 368.673 868.004 369.34C868.381 370.006 868.57 370.811 868.57 371.754V377.886H866.438V372.075C866.438 371.144 866.205 370.434 865.74 369.943C865.274 369.44 864.639 369.189 863.834 369.189C863.029 369.189 862.388 369.44 861.91 369.943C861.445 370.434 861.212 371.144 861.212 372.075V377.886H859.08V372.075C859.08 371.144 858.848 370.434 858.382 369.943C857.917 369.44 857.282 369.189 856.477 369.189C855.672 369.189 855.031 369.44 854.553 369.943C854.087 370.434 853.855 371.144 853.855 372.075V377.886H851.704V367.491H853.855V368.679C854.207 368.252 854.653 367.918 855.194 367.68C855.735 367.441 856.313 367.321 856.93 367.321C857.76 367.321 858.502 367.497 859.156 367.849C859.81 368.201 860.313 368.711 860.665 369.377C860.979 368.749 861.47 368.252 862.136 367.887C862.803 367.51 863.52 367.321 864.287 367.321Z"
  ></path>
  <path
    style="fill: var(--color-illustrationAnatomySubtle)"
    d="M880.716 378.055C879.735 378.055 878.848 377.835 878.056 377.395C877.263 376.942 876.641 376.314 876.188 375.509C875.735 374.691 875.509 373.748 875.509 372.679C875.509 371.622 875.741 370.685 876.207 369.868C876.672 369.05 877.307 368.422 878.112 367.981C878.917 367.541 879.816 367.321 880.81 367.321C881.803 367.321 882.703 367.541 883.508 367.981C884.313 368.422 884.948 369.05 885.413 369.868C885.878 370.685 886.111 371.622 886.111 372.679C886.111 373.735 885.872 374.672 885.394 375.49C884.916 376.307 884.262 376.942 883.432 377.395C882.615 377.835 881.709 378.055 880.716 378.055ZM880.716 376.188C881.269 376.188 881.785 376.056 882.262 375.792C882.753 375.527 883.149 375.131 883.451 374.603C883.753 374.075 883.904 373.433 883.904 372.679C883.904 371.924 883.759 371.289 883.47 370.773C883.181 370.245 882.797 369.849 882.319 369.585C881.841 369.321 881.325 369.189 880.772 369.189C880.219 369.189 879.703 369.321 879.225 369.585C878.76 369.849 878.389 370.245 878.112 370.773C877.835 371.289 877.697 371.924 877.697 372.679C877.697 373.798 877.98 374.666 878.546 375.282C879.125 375.886 879.848 376.188 880.716 376.188Z"
  ></path>
  <path
    style="fill: var(--color-illustrationAnatomySubtle)"
    d="M893.482 367.321C894.299 367.321 895.029 367.491 895.67 367.83C896.324 368.17 896.833 368.673 897.198 369.34C897.563 370.006 897.745 370.811 897.745 371.754V377.886H895.613V372.075C895.613 371.144 895.381 370.434 894.915 369.943C894.45 369.44 893.815 369.189 893.01 369.189C892.205 369.189 891.564 369.44 891.086 369.943C890.62 370.434 890.388 371.144 890.388 372.075V377.886H888.237V367.491H890.388V368.679C890.74 368.252 891.186 367.918 891.727 367.68C892.28 367.441 892.865 367.321 893.482 367.321Z"
  ></path>
  <path
    style="fill: var(--color-illustrationAnatomySubtle)"
    d="M910.015 372.434C910.015 372.823 909.99 373.176 909.94 373.49H901.998C902.061 374.32 902.369 374.987 902.922 375.49C903.475 375.993 904.155 376.244 904.96 376.244C906.117 376.244 906.934 375.76 907.412 374.792H909.732C909.418 375.748 908.846 376.534 908.016 377.15C907.198 377.754 906.179 378.055 904.96 378.055C903.966 378.055 903.073 377.835 902.281 377.395C901.501 376.942 900.885 376.314 900.432 375.509C899.992 374.691 899.772 373.748 899.772 372.679C899.772 371.61 899.985 370.673 900.413 369.868C900.853 369.05 901.463 368.422 902.243 367.981C903.035 367.541 903.941 367.321 904.96 367.321C905.94 367.321 906.815 367.535 907.582 367.963C908.349 368.39 908.946 368.994 909.374 369.774C909.802 370.541 910.015 371.427 910.015 372.434ZM907.77 371.754C907.758 370.962 907.475 370.327 906.921 369.849C906.368 369.371 905.683 369.132 904.865 369.132C904.123 369.132 903.488 369.371 902.96 369.849C902.432 370.314 902.117 370.95 902.017 371.754H907.77Z"
  ></path>
  <path
    style="fill: var(--color-illustrationAnatomySubtle)"
    d="M765.292 427.202C764.072 427.202 762.947 426.919 761.915 426.353C760.897 425.775 760.085 424.976 759.482 423.957C758.891 422.926 758.595 421.769 758.595 420.486C758.595 419.203 758.891 418.053 759.482 417.034C760.085 416.015 760.897 415.223 761.915 414.657C762.947 414.078 764.072 413.789 765.292 413.789C766.525 413.789 767.65 414.078 768.669 414.657C769.7 415.223 770.512 416.015 771.103 417.034C771.694 418.053 771.989 419.203 771.989 420.486C771.989 421.769 771.694 422.926 771.103 423.957C770.512 424.976 769.7 425.775 768.669 426.353C767.65 426.919 766.525 427.202 765.292 427.202ZM765.292 425.335C766.16 425.335 766.933 425.14 767.613 424.75C768.292 424.347 768.82 423.781 769.197 423.052C769.587 422.31 769.782 421.455 769.782 420.486C769.782 419.518 769.587 418.669 769.197 417.939C768.82 417.21 768.292 416.65 767.613 416.26C766.933 415.871 766.16 415.676 765.292 415.676C764.424 415.676 763.651 415.871 762.972 416.26C762.293 416.65 761.758 417.21 761.368 417.939C760.991 418.669 760.802 419.518 760.802 420.486C760.802 421.455 760.991 422.31 761.368 423.052C761.758 423.781 762.293 424.347 762.972 424.75C763.651 425.14 764.424 425.335 765.292 425.335Z"
  ></path>
  <path
    style="fill: var(--color-illustrationAnatomySubtle)"
    d="M776.256 418.204C776.621 417.726 777.118 417.323 777.747 416.996C778.375 416.669 779.086 416.506 779.878 416.506C780.784 416.506 781.608 416.732 782.35 417.185C783.104 417.625 783.695 418.248 784.123 419.052C784.551 419.857 784.765 420.782 784.765 421.826C784.765 422.87 784.551 423.807 784.123 424.637C783.695 425.454 783.104 426.096 782.35 426.561C781.608 427.014 780.784 427.24 779.878 427.24C779.086 427.24 778.382 427.083 777.766 426.768C777.149 426.441 776.646 426.039 776.256 425.561V432.013H774.106V416.675H776.256V418.204ZM782.576 421.826C782.576 421.109 782.425 420.493 782.123 419.977C781.834 419.449 781.444 419.052 780.954 418.788C780.476 418.512 779.96 418.373 779.407 418.373C778.866 418.373 778.35 418.512 777.86 418.788C777.382 419.065 776.992 419.468 776.69 419.996C776.401 420.524 776.256 421.147 776.256 421.863C776.256 422.58 776.401 423.209 776.69 423.75C776.992 424.278 777.382 424.681 777.86 424.957C778.35 425.234 778.866 425.372 779.407 425.372C779.96 425.372 780.476 425.234 780.954 424.957C781.444 424.668 781.834 424.253 782.123 423.712C782.425 423.171 782.576 422.543 782.576 421.826Z"
  ></path>
  <path
    style="fill: var(--color-illustrationAnatomySubtle)"
    d="M789.4 418.43V424.184C789.4 424.574 789.488 424.857 789.665 425.033C789.853 425.196 790.168 425.278 790.608 425.278H791.928V427.07H790.23C789.262 427.07 788.52 426.844 788.004 426.391C787.489 425.938 787.231 425.203 787.231 424.184V418.43H786.005V416.675H787.231V414.091H789.4V416.675H791.928V418.43H789.4Z"
  ></path>
  <path
    style="fill: var(--color-illustrationAnatomySubtle)"
    d="M795.005 415.298C794.615 415.298 794.288 415.166 794.024 414.902C793.76 414.638 793.628 414.311 793.628 413.921C793.628 413.531 793.76 413.204 794.024 412.94C794.288 412.676 794.615 412.544 795.005 412.544C795.382 412.544 795.703 412.676 795.967 412.94C796.231 413.204 796.363 413.531 796.363 413.921C796.363 414.311 796.231 414.638 795.967 414.902C795.703 415.166 795.382 415.298 795.005 415.298ZM796.061 416.675V427.07H793.911V416.675H796.061Z"
  ></path>
  <path
    style="fill: var(--color-illustrationAnatomySubtle)"
    d="M803.394 427.24C802.413 427.24 801.526 427.02 800.734 426.58C799.941 426.127 799.319 425.498 798.866 424.693C798.413 423.876 798.187 422.932 798.187 421.863C798.187 420.807 798.419 419.87 798.885 419.052C799.35 418.235 799.985 417.606 800.79 417.166C801.595 416.726 802.494 416.506 803.488 416.506C804.481 416.506 805.381 416.726 806.186 417.166C806.991 417.606 807.626 418.235 808.091 419.052C808.556 419.87 808.789 420.807 808.789 421.863C808.789 422.92 808.55 423.857 808.072 424.674C807.594 425.492 806.94 426.127 806.11 426.58C805.293 427.02 804.387 427.24 803.394 427.24ZM803.394 425.372C803.947 425.372 804.463 425.24 804.941 424.976C805.431 424.712 805.827 424.316 806.129 423.788C806.431 423.259 806.582 422.618 806.582 421.863C806.582 421.109 806.437 420.474 806.148 419.958C805.859 419.43 805.475 419.034 804.997 418.769C804.519 418.505 804.004 418.373 803.45 418.373C802.897 418.373 802.381 418.505 801.903 418.769C801.438 419.034 801.067 419.43 800.79 419.958C800.513 420.474 800.375 421.109 800.375 421.863C800.375 422.983 800.658 423.851 801.224 424.467C801.803 425.071 802.526 425.372 803.394 425.372Z"
  ></path>
  <path
    style="fill: var(--color-illustrationAnatomySubtle)"
    d="M816.16 416.506C816.977 416.506 817.707 416.675 818.348 417.015C819.002 417.355 819.511 417.858 819.876 418.524C820.241 419.191 820.423 419.996 820.423 420.939V427.07H818.291V421.26C818.291 420.329 818.059 419.618 817.593 419.128C817.128 418.625 816.493 418.373 815.688 418.373C814.883 418.373 814.242 418.625 813.764 419.128C813.298 419.618 813.066 420.329 813.066 421.26V427.07H810.915V416.675H813.066V417.864C813.418 417.436 813.864 417.103 814.405 416.864C814.959 416.625 815.543 416.506 816.16 416.506Z"
  ></path>
  <path
    style="fill: var(--color-illustrationAnatomySubtle)"
    d="M829.161 415.298C828.771 415.298 828.444 415.166 828.18 414.902C827.916 414.638 827.784 414.311 827.784 413.921C827.784 413.531 827.916 413.204 828.18 412.94C828.444 412.676 828.771 412.544 829.161 412.544C829.539 412.544 829.859 412.676 830.123 412.94C830.387 413.204 830.52 413.531 830.52 413.921C830.52 414.311 830.387 414.638 830.123 414.902C829.859 415.166 829.539 415.298 829.161 415.298ZM830.218 416.675V427.07H828.067V416.675H830.218Z"
  ></path>
  <path
    style="fill: var(--color-illustrationAnatomySubtle)"
    d="M835.55 418.43V424.184C835.55 424.574 835.638 424.857 835.814 425.033C836.003 425.196 836.318 425.278 836.758 425.278H838.078V427.07H836.38C835.412 427.07 834.67 426.844 834.154 426.391C833.639 425.938 833.381 425.203 833.381 424.184V418.43H832.155V416.675H833.381V414.091H835.55V416.675H838.078V418.43H835.55Z"
  ></path>
  <path
    style="fill: var(--color-illustrationAnatomySubtle)"
    d="M849.587 421.618C849.587 422.008 849.562 422.36 849.512 422.675H841.57C841.633 423.505 841.941 424.171 842.494 424.674C843.048 425.177 843.727 425.429 844.532 425.429C845.689 425.429 846.506 424.945 846.984 423.976H849.304C848.99 424.932 848.418 425.718 847.588 426.334C846.77 426.938 845.752 427.24 844.532 427.24C843.538 427.24 842.645 427.02 841.853 426.58C841.073 426.127 840.457 425.498 840.004 424.693C839.564 423.876 839.344 422.932 839.344 421.863C839.344 420.794 839.557 419.857 839.985 419.052C840.425 418.235 841.035 417.606 841.815 417.166C842.607 416.726 843.513 416.506 844.532 416.506C845.513 416.506 846.387 416.719 847.154 417.147C847.921 417.575 848.518 418.178 848.946 418.958C849.374 419.725 849.587 420.612 849.587 421.618ZM847.342 420.939C847.33 420.147 847.047 419.512 846.494 419.034C845.94 418.556 845.255 418.317 844.437 418.317C843.695 418.317 843.06 418.556 842.532 419.034C842.004 419.499 841.689 420.134 841.589 420.939H847.342Z"
  ></path>
  <path
    style="fill: var(--color-illustrationAnatomySubtle)"
    d="M864.287 416.506C865.105 416.506 865.834 416.675 866.475 417.015C867.129 417.355 867.639 417.858 868.004 418.524C868.381 419.191 868.57 419.996 868.57 420.939V427.07H866.438V421.26C866.438 420.329 866.205 419.618 865.74 419.128C865.274 418.625 864.639 418.373 863.834 418.373C863.029 418.373 862.388 418.625 861.91 419.128C861.445 419.618 861.212 420.329 861.212 421.26V427.07H859.08V421.26C859.08 420.329 858.848 419.618 858.382 419.128C857.917 418.625 857.282 418.373 856.477 418.373C855.672 418.373 855.031 418.625 854.553 419.128C854.087 419.618 853.855 420.329 853.855 421.26V427.07H851.704V416.675H853.855V417.864C854.207 417.436 854.653 417.103 855.194 416.864C855.735 416.625 856.313 416.506 856.93 416.506C857.76 416.506 858.502 416.682 859.156 417.034C859.81 417.386 860.313 417.895 860.665 418.562C860.979 417.933 861.47 417.436 862.136 417.072C862.803 416.694 863.52 416.506 864.287 416.506Z"
  ></path>
  <path
    style="fill: var(--color-illustrationAnatomySubtle)"
    d="M878.716 418.43V424.184C878.716 424.574 878.804 424.857 878.98 425.033C879.169 425.196 879.483 425.278 879.923 425.278H881.244V427.07H879.546C878.577 427.07 877.835 426.844 877.32 426.391C876.804 425.938 876.546 425.203 876.546 424.184V418.43H875.32V416.675H876.546V414.091H878.716V416.675H881.244V418.43H878.716Z"
  ></path>
  <path
    style="fill: var(--color-illustrationAnatomySubtle)"
    d="M897.186 416.675L893.96 427.07H891.696L889.602 419.392L887.508 427.07H885.245L882 416.675H884.188L886.358 425.033L888.565 416.675H890.81L892.923 424.995L895.073 416.675H897.186Z"
  ></path>
  <path
    style="fill: var(--color-illustrationAnatomySubtle)"
    d="M903.302 427.24C902.321 427.24 901.435 427.02 900.642 426.58C899.85 426.127 899.227 425.498 898.775 424.693C898.322 423.876 898.095 422.932 898.095 421.863C898.095 420.807 898.328 419.87 898.793 419.052C899.259 418.235 899.894 417.606 900.699 417.166C901.504 416.726 902.403 416.506 903.397 416.506C904.39 416.506 905.289 416.726 906.094 417.166C906.899 417.606 907.534 418.235 908 419.052C908.465 419.87 908.698 420.807 908.698 421.863C908.698 422.92 908.459 423.857 907.981 424.674C907.503 425.492 906.849 426.127 906.019 426.58C905.201 427.02 904.296 427.24 903.302 427.24ZM903.302 425.372C903.856 425.372 904.371 425.24 904.849 424.976C905.34 424.712 905.736 424.316 906.038 423.788C906.34 423.259 906.491 422.618 906.491 421.863C906.491 421.109 906.346 420.474 906.057 419.958C905.767 419.43 905.384 419.034 904.906 418.769C904.428 418.505 903.912 418.373 903.359 418.373C902.806 418.373 902.29 418.505 901.812 418.769C901.347 419.034 900.976 419.43 900.699 419.958C900.422 420.474 900.284 421.109 900.284 421.863C900.284 422.983 900.567 423.851 901.133 424.467C901.711 425.071 902.434 425.372 903.302 425.372Z"
  ></path>
  <path
    style="fill: var(--color-illustrationAnatomySubtle)"
    d="M733.642 449.261H1088.71V490.895H733.642V449.261Z"
  ></path>
  <path
    style="fill: var(--color-illustrationAnatomySubtle)"
    fill-rule="evenodd"
    clip-rule="evenodd"
    d="M970.805 449.935H734.315V490.222H970.805V449.935ZM733.642 449.261V490.895H971.479V449.261H733.642Z"
  ></path>
  <path
    style="fill: var(--color-illustrationInterface060)"
    d="M765.292 477.061C764.072 477.061 762.947 476.778 761.915 476.212C760.897 475.633 760.085 474.835 759.482 473.816C758.891 472.785 758.595 471.627 758.595 470.345C758.595 469.062 758.891 467.911 759.482 466.892C760.085 465.874 760.897 465.081 761.915 464.515C762.947 463.937 764.072 463.647 765.292 463.647C766.525 463.647 767.65 463.937 768.669 464.515C769.7 465.081 770.512 465.874 771.103 466.892C771.694 467.911 771.989 469.062 771.989 470.345C771.989 471.627 771.694 472.785 771.103 473.816C770.512 474.835 769.7 475.633 768.669 476.212C767.65 476.778 766.525 477.061 765.292 477.061ZM765.292 475.193C766.16 475.193 766.933 474.998 767.613 474.608C768.292 474.206 768.82 473.64 769.197 472.91C769.587 472.168 769.782 471.313 769.782 470.345C769.782 469.376 769.587 468.527 769.197 467.798C768.82 467.068 768.292 466.509 767.613 466.119C766.933 465.729 766.16 465.534 765.292 465.534C764.424 465.534 763.651 465.729 762.972 466.119C762.293 466.509 761.758 467.068 761.368 467.798C760.991 468.527 760.802 469.376 760.802 470.345C760.802 471.313 760.991 472.168 761.368 472.91C761.758 473.64 762.293 474.206 762.972 474.608C763.651 474.998 764.424 475.193 765.292 475.193Z"
  ></path>
  <path
    style="fill: var(--color-illustrationInterface060)"
    d="M776.256 468.062C776.621 467.584 777.118 467.182 777.747 466.855C778.375 466.528 779.086 466.364 779.878 466.364C780.784 466.364 781.608 466.59 782.35 467.043C783.104 467.483 783.695 468.106 784.123 468.911C784.551 469.716 784.765 470.64 784.765 471.684C784.765 472.728 784.551 473.665 784.123 474.495C783.695 475.312 783.104 475.954 782.35 476.419C781.608 476.872 780.784 477.098 779.878 477.098C779.086 477.098 778.382 476.941 777.766 476.627C777.149 476.3 776.646 475.897 776.256 475.419V481.871H774.106V466.534H776.256V468.062ZM782.576 471.684C782.576 470.967 782.425 470.351 782.123 469.835C781.834 469.307 781.444 468.911 780.954 468.647C780.476 468.37 779.96 468.232 779.407 468.232C778.866 468.232 778.35 468.37 777.86 468.647C777.382 468.923 776.992 469.326 776.69 469.854C776.401 470.382 776.256 471.005 776.256 471.722C776.256 472.439 776.401 473.068 776.69 473.608C776.992 474.137 777.382 474.539 777.86 474.816C778.35 475.092 778.866 475.231 779.407 475.231C779.96 475.231 780.476 475.092 780.954 474.816C781.444 474.526 781.834 474.111 782.123 473.571C782.425 473.03 782.576 472.401 782.576 471.684Z"
  ></path>
  <path
    style="fill: var(--color-illustrationInterface060)"
    d="M789.4 468.288V474.042C789.4 474.432 789.488 474.715 789.665 474.891C789.853 475.055 790.168 475.136 790.608 475.136H791.928V476.929H790.23C789.262 476.929 788.52 476.702 788.004 476.249C787.489 475.797 787.231 475.061 787.231 474.042V468.288H786.005V466.534H787.231V463.949H789.4V466.534H791.928V468.288H789.4Z"
  ></path>
  <path
    style="fill: var(--color-illustrationInterface060)"
    d="M795.005 465.157C794.615 465.157 794.288 465.025 794.024 464.761C793.76 464.496 793.628 464.169 793.628 463.78C793.628 463.39 793.76 463.063 794.024 462.799C794.288 462.534 794.615 462.402 795.005 462.402C795.382 462.402 795.703 462.534 795.967 462.799C796.231 463.063 796.363 463.39 796.363 463.78C796.363 464.169 796.231 464.496 795.967 464.761C795.703 465.025 795.382 465.157 795.005 465.157ZM796.061 466.534V476.929H793.911V466.534H796.061Z"
  ></path>
  <path
    style="fill: var(--color-illustrationInterface060)"
    d="M803.394 477.098C802.413 477.098 801.526 476.878 800.734 476.438C799.941 475.985 799.319 475.357 798.866 474.552C798.413 473.734 798.187 472.791 798.187 471.722C798.187 470.665 798.419 469.728 798.885 468.911C799.35 468.093 799.985 467.465 800.79 467.024C801.595 466.584 802.494 466.364 803.488 466.364C804.481 466.364 805.381 466.584 806.186 467.024C806.991 467.465 807.626 468.093 808.091 468.911C808.556 469.728 808.789 470.665 808.789 471.722C808.789 472.778 808.55 473.715 808.072 474.533C807.594 475.35 806.94 475.985 806.11 476.438C805.293 476.878 804.387 477.098 803.394 477.098ZM803.394 475.231C803.947 475.231 804.463 475.099 804.941 474.835C805.431 474.57 805.827 474.174 806.129 473.646C806.431 473.118 806.582 472.476 806.582 471.722C806.582 470.967 806.437 470.332 806.148 469.816C805.859 469.288 805.475 468.892 804.997 468.628C804.519 468.364 804.004 468.232 803.45 468.232C802.897 468.232 802.381 468.364 801.903 468.628C801.438 468.892 801.067 469.288 800.79 469.816C800.513 470.332 800.375 470.967 800.375 471.722C800.375 472.841 800.658 473.709 801.224 474.325C801.803 474.929 802.526 475.231 803.394 475.231Z"
  ></path>
  <path
    style="fill: var(--color-illustrationInterface060)"
    d="M816.16 466.364C816.977 466.364 817.707 466.534 818.348 466.873C819.002 467.213 819.511 467.716 819.876 468.383C820.241 469.049 820.423 469.854 820.423 470.797V476.929H818.291V471.118C818.291 470.187 818.059 469.477 817.593 468.986C817.128 468.483 816.493 468.232 815.688 468.232C814.883 468.232 814.242 468.483 813.764 468.986C813.298 469.477 813.066 470.187 813.066 471.118V476.929H810.915V466.534H813.066V467.722C813.418 467.295 813.864 466.961 814.405 466.722C814.959 466.484 815.543 466.364 816.16 466.364Z"
  ></path>
  <path
    style="fill: var(--color-illustrationInterface060)"
    d="M829.161 465.157C828.771 465.157 828.444 465.025 828.18 464.761C827.916 464.496 827.784 464.169 827.784 463.78C827.784 463.39 827.916 463.063 828.18 462.799C828.444 462.534 828.771 462.402 829.161 462.402C829.539 462.402 829.859 462.534 830.123 462.799C830.387 463.063 830.52 463.39 830.52 463.78C830.52 464.169 830.387 464.496 830.123 464.761C829.859 465.025 829.539 465.157 829.161 465.157ZM830.218 466.534V476.929H828.067V466.534H830.218Z"
  ></path>
  <path
    style="fill: var(--color-illustrationInterface060)"
    d="M835.55 468.288V474.042C835.55 474.432 835.638 474.715 835.814 474.891C836.003 475.055 836.318 475.136 836.758 475.136H838.078V476.929H836.38C835.412 476.929 834.67 476.702 834.154 476.249C833.639 475.797 833.381 475.061 833.381 474.042V468.288H832.155V466.534H833.381V463.949H835.55V466.534H838.078V468.288H835.55Z"
  ></path>
  <path
    style="fill: var(--color-illustrationInterface060)"
    d="M849.587 471.477C849.587 471.866 849.562 472.219 849.512 472.533H841.57C841.633 473.363 841.941 474.03 842.494 474.533C843.048 475.036 843.727 475.287 844.532 475.287C845.689 475.287 846.506 474.803 846.984 473.835H849.304C848.99 474.791 848.418 475.577 847.588 476.193C846.77 476.797 845.752 477.098 844.532 477.098C843.538 477.098 842.645 476.878 841.853 476.438C841.073 475.985 840.457 475.357 840.004 474.552C839.564 473.734 839.344 472.791 839.344 471.722C839.344 470.653 839.557 469.716 839.985 468.911C840.425 468.093 841.035 467.465 841.815 467.024C842.607 466.584 843.513 466.364 844.532 466.364C845.513 466.364 846.387 466.578 847.154 467.005C847.921 467.433 848.518 468.037 848.946 468.817C849.374 469.584 849.587 470.47 849.587 471.477ZM847.342 470.797C847.33 470.005 847.047 469.37 846.494 468.892C845.94 468.414 845.255 468.175 844.437 468.175C843.695 468.175 843.06 468.414 842.532 468.892C842.004 469.357 841.689 469.992 841.589 470.797H847.342Z"
  ></path>
  <path
    style="fill: var(--color-illustrationInterface060)"
    d="M864.287 466.364C865.105 466.364 865.834 466.534 866.475 466.873C867.129 467.213 867.639 467.716 868.004 468.383C868.381 469.049 868.57 469.854 868.57 470.797V476.929H866.438V471.118C866.438 470.187 866.205 469.477 865.74 468.986C865.274 468.483 864.639 468.232 863.834 468.232C863.029 468.232 862.388 468.483 861.91 468.986C861.445 469.477 861.212 470.187 861.212 471.118V476.929H859.08V471.118C859.08 470.187 858.848 469.477 858.382 468.986C857.917 468.483 857.282 468.232 856.477 468.232C855.672 468.232 855.031 468.483 854.553 468.986C854.087 469.477 853.855 470.187 853.855 471.118V476.929H851.704V466.534H853.855V467.722C854.207 467.295 854.653 466.961 855.194 466.722C855.735 466.484 856.313 466.364 856.93 466.364C857.76 466.364 858.502 466.54 859.156 466.892C859.81 467.244 860.313 467.754 860.665 468.42C860.979 467.792 861.47 467.295 862.136 466.93C862.803 466.553 863.52 466.364 864.287 466.364Z"
  ></path>
  <path
    style="fill: var(--color-illustrationInterface060)"
    d="M878.716 468.288V474.042C878.716 474.432 878.804 474.715 878.98 474.891C879.169 475.055 879.483 475.136 879.923 475.136H881.244V476.929H879.546C878.577 476.929 877.835 476.702 877.32 476.249C876.804 475.797 876.546 475.061 876.546 474.042V468.288H875.32V466.534H876.546V463.949H878.716V466.534H881.244V468.288H878.716Z"
  ></path>
  <path
    style="fill: var(--color-illustrationInterface060)"
    d="M888.603 466.364C889.395 466.364 890.099 466.534 890.715 466.873C891.344 467.213 891.835 467.716 892.187 468.383C892.552 469.049 892.734 469.854 892.734 470.797V476.929H890.602V471.118C890.602 470.187 890.37 469.477 889.904 468.986C889.439 468.483 888.804 468.232 887.999 468.232C887.194 468.232 886.553 468.483 886.075 468.986C885.609 469.477 885.377 470.187 885.377 471.118V476.929H883.226V462.968H885.377V467.741C885.741 467.301 886.2 466.961 886.754 466.722C887.32 466.484 887.936 466.364 888.603 466.364Z"
  ></path>
  <path
    style="fill: var(--color-illustrationInterface060)"
    d="M897.628 468.043C897.942 467.515 898.357 467.106 898.873 466.817C899.401 466.515 900.024 466.364 900.741 466.364V468.59H900.194C899.351 468.59 898.71 468.804 898.269 469.232C897.842 469.659 897.628 470.401 897.628 471.458V476.929H895.477V466.534H897.628V468.043Z"
  ></path>
  <path
    style="fill: var(--color-illustrationInterface060)"
    d="M912.245 471.477C912.245 471.866 912.219 472.219 912.169 472.533H904.227C904.29 473.363 904.598 474.03 905.151 474.533C905.705 475.036 906.384 475.287 907.189 475.287C908.346 475.287 909.163 474.803 909.641 473.835H911.962C911.647 474.791 911.075 475.577 910.245 476.193C909.427 476.797 908.409 477.098 907.189 477.098C906.195 477.098 905.302 476.878 904.51 476.438C903.73 475.985 903.114 475.357 902.661 474.552C902.221 473.734 902.001 472.791 902.001 471.722C902.001 470.653 902.215 469.716 902.642 468.911C903.082 468.093 903.692 467.465 904.472 467.024C905.264 466.584 906.17 466.364 907.189 466.364C908.17 466.364 909.044 466.578 909.811 467.005C910.578 467.433 911.176 468.037 911.603 468.817C912.031 469.584 912.245 470.47 912.245 471.477ZM910 470.797C909.987 470.005 909.704 469.37 909.151 468.892C908.597 468.414 907.912 468.175 907.094 468.175C906.352 468.175 905.717 468.414 905.189 468.892C904.661 469.357 904.346 469.992 904.246 470.797H910Z"
  ></path>
  <path
    style="fill: var(--color-illustrationInterface060)"
    d="M923.888 471.477C923.888 471.866 923.863 472.219 923.813 472.533H915.87C915.933 473.363 916.241 474.03 916.795 474.533C917.348 475.036 918.027 475.287 918.832 475.287C919.989 475.287 920.807 474.803 921.285 473.835H923.605C923.291 474.791 922.718 475.577 921.888 476.193C921.071 476.797 920.052 477.098 918.832 477.098C917.839 477.098 916.946 476.878 916.153 476.438C915.373 475.985 914.757 475.357 914.304 474.552C913.864 473.734 913.644 472.791 913.644 471.722C913.644 470.653 913.858 469.716 914.286 468.911C914.726 468.093 915.336 467.465 916.116 467.024C916.908 466.584 917.813 466.364 918.832 466.364C919.813 466.364 920.687 466.578 921.454 467.005C922.222 467.433 922.819 468.037 923.247 468.817C923.674 469.584 923.888 470.47 923.888 471.477ZM921.643 470.797C921.63 470.005 921.348 469.37 920.794 468.892C920.241 468.414 919.555 468.175 918.738 468.175C917.996 468.175 917.361 468.414 916.832 468.892C916.304 469.357 915.99 469.992 915.889 470.797H921.643Z"
  ></path>
  <path
    style="fill: var(--color-illustrationAnatomySubtle)"
    d="M765.292 525.571C764.072 525.571 762.947 525.288 761.915 524.722C760.897 524.144 760.085 523.345 759.482 522.326C758.891 521.295 758.595 520.138 758.595 518.855C758.595 517.572 758.891 516.421 759.482 515.403C760.085 514.384 760.897 513.592 761.915 513.026C762.947 512.447 764.072 512.158 765.292 512.158C766.525 512.158 767.65 512.447 768.669 513.026C769.7 513.592 770.512 514.384 771.103 515.403C771.694 516.421 771.989 517.572 771.989 518.855C771.989 520.138 771.694 521.295 771.103 522.326C770.512 523.345 769.7 524.144 768.669 524.722C767.65 525.288 766.525 525.571 765.292 525.571ZM765.292 523.703C766.16 523.703 766.933 523.508 767.613 523.119C768.292 522.716 768.82 522.15 769.197 521.421C769.587 520.679 769.782 519.823 769.782 518.855C769.782 517.887 769.587 517.038 769.197 516.308C768.82 515.579 768.292 515.019 767.613 514.629C766.933 514.239 766.16 514.044 765.292 514.044C764.424 514.044 763.651 514.239 762.972 514.629C762.293 515.019 761.758 515.579 761.368 516.308C760.991 517.038 760.802 517.887 760.802 518.855C760.802 519.823 760.991 520.679 761.368 521.421C761.758 522.15 762.293 522.716 762.972 523.119C763.651 523.508 764.424 523.703 765.292 523.703Z"
  ></path>
  <path
    style="fill: var(--color-illustrationAnatomySubtle)"
    d="M776.256 516.572C776.621 516.094 777.118 515.692 777.747 515.365C778.375 515.038 779.086 514.874 779.878 514.874C780.784 514.874 781.608 515.101 782.35 515.554C783.104 515.994 783.695 516.616 784.123 517.421C784.551 518.226 784.765 519.151 784.765 520.194C784.765 521.238 784.551 522.175 784.123 523.005C783.695 523.823 783.104 524.464 782.35 524.93C781.608 525.382 780.784 525.609 779.878 525.609C779.086 525.609 778.382 525.452 777.766 525.137C777.149 524.81 776.646 524.408 776.256 523.93V530.382H774.106V515.044H776.256V516.572ZM782.576 520.194C782.576 519.478 782.425 518.861 782.123 518.346C781.834 517.817 781.444 517.421 780.954 517.157C780.476 516.88 779.96 516.742 779.407 516.742C778.866 516.742 778.35 516.88 777.86 517.157C777.382 517.434 776.992 517.836 776.69 518.365C776.401 518.893 776.256 519.515 776.256 520.232C776.256 520.949 776.401 521.578 776.69 522.119C776.992 522.647 777.382 523.049 777.86 523.326C778.35 523.603 778.866 523.741 779.407 523.741C779.96 523.741 780.476 523.603 780.954 523.326C781.444 523.037 781.834 522.622 782.123 522.081C782.425 521.54 782.576 520.911 782.576 520.194Z"
  ></path>
  <path
    style="fill: var(--color-illustrationAnatomySubtle)"
    d="M789.4 516.799V522.553C789.4 522.943 789.488 523.225 789.665 523.402C789.853 523.565 790.168 523.647 790.608 523.647H791.928V525.439H790.23C789.262 525.439 788.52 525.213 788.004 524.76C787.489 524.307 787.231 523.571 787.231 522.553V516.799H786.005V515.044H787.231V512.46H789.4V515.044H791.928V516.799H789.4Z"
  ></path>
  <path
    style="fill: var(--color-illustrationAnatomySubtle)"
    d="M795.005 513.667C794.615 513.667 794.288 513.535 794.024 513.271C793.76 513.007 793.628 512.68 793.628 512.29C793.628 511.9 793.76 511.573 794.024 511.309C794.288 511.045 794.615 510.913 795.005 510.913C795.382 510.913 795.703 511.045 795.967 511.309C796.231 511.573 796.363 511.9 796.363 512.29C796.363 512.68 796.231 513.007 795.967 513.271C795.703 513.535 795.382 513.667 795.005 513.667ZM796.061 515.044V525.439H793.911V515.044H796.061Z"
  ></path>
  <path
    style="fill: var(--color-illustrationAnatomySubtle)"
    d="M803.394 525.609C802.413 525.609 801.526 525.389 800.734 524.949C799.941 524.496 799.319 523.867 798.866 523.062C798.413 522.244 798.187 521.301 798.187 520.232C798.187 519.176 798.419 518.239 798.885 517.421C799.35 516.604 799.985 515.975 800.79 515.535C801.595 515.095 802.494 514.874 803.488 514.874C804.481 514.874 805.381 515.095 806.186 515.535C806.991 515.975 807.626 516.604 808.091 517.421C808.556 518.239 808.789 519.176 808.789 520.232C808.789 521.289 808.55 522.226 808.072 523.043C807.594 523.861 806.94 524.496 806.11 524.949C805.293 525.389 804.387 525.609 803.394 525.609ZM803.394 523.741C803.947 523.741 804.463 523.609 804.941 523.345C805.431 523.081 805.827 522.685 806.129 522.156C806.431 521.628 806.582 520.987 806.582 520.232C806.582 519.478 806.437 518.842 806.148 518.327C805.859 517.799 805.475 517.402 804.997 517.138C804.519 516.874 804.004 516.742 803.45 516.742C802.897 516.742 802.381 516.874 801.903 517.138C801.438 517.402 801.067 517.799 800.79 518.327C800.513 518.842 800.375 519.478 800.375 520.232C800.375 521.352 800.658 522.219 801.224 522.836C801.803 523.439 802.526 523.741 803.394 523.741Z"
  ></path>
  <path
    style="fill: var(--color-illustrationAnatomySubtle)"
    d="M816.16 514.874C816.977 514.874 817.707 515.044 818.348 515.384C819.002 515.723 819.511 516.226 819.876 516.893C820.241 517.56 820.423 518.365 820.423 519.308V525.439H818.291V519.628C818.291 518.698 818.059 517.987 817.593 517.497C817.128 516.994 816.493 516.742 815.688 516.742C814.883 516.742 814.242 516.994 813.764 517.497C813.298 517.987 813.066 518.698 813.066 519.628V525.439H810.915V515.044H813.066V516.233C813.418 515.805 813.864 515.472 814.405 515.233C814.959 514.994 815.543 514.874 816.16 514.874Z"
  ></path>
  <path
    style="fill: var(--color-illustrationAnatomySubtle)"
    d="M829.161 513.667C828.771 513.667 828.444 513.535 828.18 513.271C827.916 513.007 827.784 512.68 827.784 512.29C827.784 511.9 827.916 511.573 828.18 511.309C828.444 511.045 828.771 510.913 829.161 510.913C829.539 510.913 829.859 511.045 830.123 511.309C830.387 511.573 830.52 511.9 830.52 512.29C830.52 512.68 830.387 513.007 830.123 513.271C829.859 513.535 829.539 513.667 829.161 513.667ZM830.218 515.044V525.439H828.067V515.044H830.218Z"
  ></path>
  <path
    style="fill: var(--color-illustrationAnatomySubtle)"
    d="M835.55 516.799V522.553C835.55 522.943 835.638 523.225 835.814 523.402C836.003 523.565 836.318 523.647 836.758 523.647H838.078V525.439H836.38C835.412 525.439 834.67 525.213 834.154 524.76C833.639 524.307 833.381 523.571 833.381 522.553V516.799H832.155V515.044H833.381V512.46H835.55V515.044H838.078V516.799H835.55Z"
  ></path>
  <path
    style="fill: var(--color-illustrationAnatomySubtle)"
    d="M849.587 519.987C849.587 520.377 849.562 520.729 849.512 521.043H841.57C841.633 521.873 841.941 522.54 842.494 523.043C843.048 523.546 843.727 523.798 844.532 523.798C845.689 523.798 846.506 523.314 846.984 522.345H849.304C848.99 523.301 848.418 524.087 847.588 524.703C846.77 525.307 845.752 525.609 844.532 525.609C843.538 525.609 842.645 525.389 841.853 524.949C841.073 524.496 840.457 523.867 840.004 523.062C839.564 522.244 839.344 521.301 839.344 520.232C839.344 519.163 839.557 518.226 839.985 517.421C840.425 516.604 841.035 515.975 841.815 515.535C842.607 515.095 843.513 514.874 844.532 514.874C845.513 514.874 846.387 515.088 847.154 515.516C847.921 515.943 848.518 516.547 848.946 517.327C849.374 518.094 849.587 518.981 849.587 519.987ZM847.342 519.308C847.33 518.515 847.047 517.88 846.494 517.402C845.94 516.924 845.255 516.686 844.437 516.686C843.695 516.686 843.06 516.924 842.532 517.402C842.004 517.868 841.689 518.503 841.589 519.308H847.342Z"
  ></path>
  <path
    style="fill: var(--color-illustrationAnatomySubtle)"
    d="M864.287 514.874C865.105 514.874 865.834 515.044 866.475 515.384C867.129 515.723 867.639 516.226 868.004 516.893C868.381 517.56 868.57 518.365 868.57 519.308V525.439H866.438V519.628C866.438 518.698 866.205 517.987 865.74 517.497C865.274 516.994 864.639 516.742 863.834 516.742C863.029 516.742 862.388 516.994 861.91 517.497C861.445 517.987 861.212 518.698 861.212 519.628V525.439H859.08V519.628C859.08 518.698 858.848 517.987 858.382 517.497C857.917 516.994 857.282 516.742 856.477 516.742C855.672 516.742 855.031 516.994 854.553 517.497C854.087 517.987 853.855 518.698 853.855 519.628V525.439H851.704V515.044H853.855V516.233C854.207 515.805 854.653 515.472 855.194 515.233C855.735 514.994 856.313 514.874 856.93 514.874C857.76 514.874 858.502 515.051 859.156 515.403C859.81 515.755 860.313 516.264 860.665 516.931C860.979 516.302 861.47 515.805 862.136 515.44C862.803 515.063 863.52 514.874 864.287 514.874Z"
  ></path>
  <path
    style="fill: var(--color-illustrationAnatomySubtle)"
    d="M880.565 516.799H878.64V525.439H876.471V516.799H875.245V515.044H876.471V514.308C876.471 513.114 876.785 512.246 877.414 511.705C878.056 511.152 879.055 510.875 880.414 510.875V512.667C879.76 512.667 879.301 512.793 879.037 513.045C878.772 513.283 878.64 513.705 878.64 514.308V515.044H880.565V516.799Z"
  ></path>
  <path
    style="fill: var(--color-illustrationAnatomySubtle)"
    d="M886.979 525.609C885.998 525.609 885.112 525.389 884.319 524.949C883.527 524.496 882.904 523.867 882.452 523.062C881.999 522.244 881.773 521.301 881.773 520.232C881.773 519.176 882.005 518.239 882.471 517.421C882.936 516.604 883.571 515.975 884.376 515.535C885.181 515.095 886.08 514.874 887.074 514.874C888.067 514.874 888.967 515.095 889.771 515.535C890.576 515.975 891.212 516.604 891.677 517.421C892.142 518.239 892.375 519.176 892.375 520.232C892.375 521.289 892.136 522.226 891.658 523.043C891.18 523.861 890.526 524.496 889.696 524.949C888.879 525.389 887.973 525.609 886.979 525.609ZM886.979 523.741C887.533 523.741 888.048 523.609 888.526 523.345C889.017 523.081 889.413 522.685 889.715 522.156C890.017 521.628 890.168 520.987 890.168 520.232C890.168 519.478 890.023 518.842 889.734 518.327C889.444 517.799 889.061 517.402 888.583 517.138C888.105 516.874 887.589 516.742 887.036 516.742C886.483 516.742 885.967 516.874 885.489 517.138C885.024 517.402 884.653 517.799 884.376 518.327C884.099 518.842 883.961 519.478 883.961 520.232C883.961 521.352 884.244 522.219 884.81 522.836C885.388 523.439 886.112 523.741 886.979 523.741Z"
  ></path>
  <path
    style="fill: var(--color-illustrationAnatomySubtle)"
    d="M903.915 515.044V525.439H901.764V524.213C901.424 524.64 900.978 524.98 900.425 525.231C899.884 525.47 899.305 525.59 898.689 525.59C897.871 525.59 897.136 525.42 896.482 525.081C895.84 524.741 895.331 524.238 894.954 523.571C894.589 522.905 894.407 522.1 894.407 521.157V515.044H896.538V520.836C896.538 521.767 896.771 522.483 897.236 522.987C897.702 523.477 898.337 523.722 899.142 523.722C899.947 523.722 900.582 523.477 901.047 522.987C901.525 522.483 901.764 521.767 901.764 520.836V515.044H903.915Z"
  ></path>
  <path
    style="fill: var(--color-illustrationAnatomySubtle)"
    d="M908.903 516.553C909.217 516.025 909.632 515.616 910.148 515.327C910.676 515.025 911.299 514.874 912.016 514.874V517.101H911.469C910.626 517.101 909.985 517.314 909.544 517.742C909.117 518.17 908.903 518.912 908.903 519.968V525.439H906.752V515.044H908.903V516.553Z"
  ></path>
  <circle cx="616.6" cy="181.542" r="19.5416" fill="#577FFB"></circle>
  <path
    style="fill: var(--color-white)"
    d="M611.121 185.429C611.564 185.077 611.766 184.914 611.727 184.94C613.004 183.885 614.007 183.019 614.737 182.341C615.479 181.664 616.104 180.954 616.613 180.211C617.121 179.469 617.375 178.746 617.375 178.042C617.375 177.508 617.251 177.091 617.003 176.791C616.756 176.492 616.385 176.342 615.889 176.342C615.394 176.342 615.004 176.531 614.717 176.909C614.443 177.273 614.307 177.795 614.307 178.472H611.082C611.108 177.365 611.343 176.44 611.786 175.697C612.242 174.954 612.834 174.407 613.564 174.056C614.307 173.704 615.127 173.528 616.026 173.528C617.577 173.528 618.743 173.925 619.524 174.72C620.319 175.515 620.716 176.55 620.716 177.827C620.716 179.221 620.241 180.517 619.29 181.716C618.339 182.901 617.127 184.061 615.655 185.194H620.931V187.911H611.121V185.429Z"
  ></path>
  <path
    d="M320.811 276.321L320.811 255.711C320.811 245.9 328.765 237.946 338.576 237.946L895.046 237.946C904.858 237.946 912.811 245.9 912.811 255.711L912.811 276.321"
    stroke="#577FFB"
    stroke-width="1.77651"
    stroke-linecap="round"
  ></path>
  <path
    d="M616.811 237.946L616.811 195.31"
    stroke="#577FFB"
    stroke-width="1.77651"
    stroke-linecap="round"
  ></path>
  <path
    style="fill: var(--color-illustrationPalette040)"
    d="M381.136 634.238C383.117 634.238 384.722 632.744 384.722 630.9C384.722 629.055 383.117 627.561 381.136 627.561C379.156 627.561 377.55 629.055 377.55 630.9C377.55 632.744 379.156 634.238 381.136 634.238Z"
  ></path>
  <path
    style="fill: var(--color-illustrationPalette040)"
    d="M384.722 629.946H463.614V631.854H384.722V629.946Z"
  ></path>
  <circle cx="465.486" cy="629.782" r="19.5416" fill="#577FFB"></circle>
  <path
    style="fill: var(--color-white)"
    d="M461.681 625.188V622.081H467.094V636.346H463.615V625.188H461.681Z"
  ></path>
  <circle
    style="fill: var(--color-illustrationInterface050)"
    cx="320.811"
    cy="279.472"
    r="3.33096"
  ></circle>
  <circle
    style="fill: var(--color-illustrationInterface050)"
    cx="912.167"
    cy="279.472"
    r="3.33096"
  ></circle>
</svg>
