<svg id="nksvg" width="1490" height="838" viewBox="0 0 1490 838" fill="none" xmlns="http://www.w3.org/2000/svg">
<path d="M0 0H1490V838H0V0Z" fill="var(--color-illustrationBackground010)"/>
<path d="M241.463 481.951C241.438 465.51 254.745 452.176 271.187 452.168L1244.53 451.73C1260.97 451.723 1274.32 465.045 1274.35 481.486C1274.37 497.927 1261.07 511.261 1244.62 511.269L271.278 511.707C254.837 511.714 241.488 498.392 241.463 481.951Z" fill="var(--color-illustrationInterface030)"/>
<path d="M215.05 481.963C215.022 465.522 228.328 452.188 244.769 452.181L654.013 452.013C670.455 452.007 683.805 465.329 683.833 481.77C683.861 498.212 670.555 511.545 654.114 511.552L244.87 511.72C228.428 511.727 215.078 498.404 215.05 481.963Z" fill="var(--color-illustrationHighlight010)"/>
<path d="M688.216 553.557C649.419 553.589 617.941 522.163 617.909 483.366C617.876 444.568 649.302 413.091 688.099 413.058C726.897 413.026 758.375 444.452 758.407 483.249C758.439 522.047 727.014 553.524 688.216 553.557Z" fill="var(--color-illustrationPalette060)"/>
<path d="M576.019 312.92V303.257L613.773 249.097H629.279V301.796H639.729V312.92H629.279V329.999H616.695V312.92H576.019ZM617.257 262.131L590.739 301.796H617.257V262.131Z" fill="var(--color-illustrationHighlight010)"/>
<path d="M650.343 287.975C650.343 275.016 652.516 264.903 656.861 257.637C661.28 250.296 668.846 246.625 679.558 246.625C690.27 246.625 697.799 250.296 702.143 257.637C706.563 264.903 708.773 275.016 708.773 287.975C708.773 301.084 706.563 311.347 702.143 318.763C697.799 326.104 690.27 329.775 679.558 329.775C668.846 329.775 661.28 326.104 656.861 318.763C652.516 311.347 650.343 301.084 650.343 287.975ZM696.188 287.975C696.188 281.907 695.776 276.776 694.952 272.581C694.203 268.386 692.63 264.978 690.233 262.356C687.836 259.659 684.277 258.311 679.558 258.311C674.839 258.311 671.281 259.659 668.884 262.356C666.486 264.978 664.876 268.386 664.052 272.581C663.303 276.776 662.928 281.907 662.928 287.975C662.928 294.267 663.303 299.549 664.052 303.818C664.801 308.088 666.374 311.534 668.771 314.156C671.243 316.778 674.839 318.089 679.558 318.089C684.277 318.089 687.836 316.778 690.233 314.156C692.705 311.534 694.315 308.088 695.064 303.818C695.814 299.549 696.188 294.267 696.188 287.975Z" fill="var(--color-illustrationHighlight010)"/>
<path d="M720.304 267.862C720.304 262.393 721.877 258.124 725.024 255.052C728.245 251.906 732.365 250.333 737.384 250.333C742.403 250.333 746.485 251.906 749.631 255.052C752.852 258.124 754.463 262.393 754.463 267.862C754.463 273.33 752.852 277.638 749.631 280.784C746.485 283.93 742.403 285.503 737.384 285.503C732.365 285.503 728.245 283.93 725.024 280.784C721.877 277.638 720.304 273.33 720.304 267.862ZM788.847 251.794L744.013 329.999H731.428L776.262 251.794H788.847ZM737.384 258.086C732.664 258.086 730.305 261.345 730.305 267.862C730.305 274.454 732.664 277.75 737.384 277.75C739.631 277.75 741.354 276.963 742.552 275.39C743.826 273.742 744.463 271.233 744.463 267.862C744.463 261.345 742.103 258.086 737.384 258.086ZM766.037 313.819C766.037 308.35 767.61 304.081 770.756 301.009C773.977 297.863 778.097 296.29 783.116 296.29C788.06 296.29 792.105 297.863 795.251 301.009C798.472 304.081 800.083 308.35 800.083 313.819C800.083 319.287 798.472 323.595 795.251 326.741C792.105 329.887 788.06 331.46 783.116 331.46C778.097 331.46 773.977 329.887 770.756 326.741C767.61 323.595 766.037 319.287 766.037 313.819ZM783.004 304.043C778.284 304.043 775.925 307.302 775.925 313.819C775.925 320.336 778.284 323.595 783.004 323.595C787.723 323.595 790.083 320.336 790.083 313.819C790.083 307.302 787.723 304.043 783.004 304.043Z" fill="var(--color-illustrationHighlight010)"/>
</svg>
