<svg
  id="nksvg"
  style="width: 100%; height: 100%"
  width="1490"
  height="838"
  viewBox="0 0 1490 838"
  fill="none"
  xmlns="http://www.w3.org/2000/svg"
  class="css-0"
>
  <path
    style="fill: var(--color-illustrationBackground020)"
    d="M0 0H1490V838H0V0Z"
  ></path>
  <path
    style="fill: var(--color-interface040)"
    d="M389.275 213.37H401.098V217.998H383.539V183.031H389.275V213.37ZM403.983 204.012C403.983 201.228 404.553 198.762 405.693 196.616C406.867 194.469 408.444 192.809 410.423 191.635C412.435 190.427 414.649 189.823 417.064 189.823C419.244 189.823 421.139 190.259 422.749 191.132C424.393 191.97 425.701 193.027 426.674 194.301V190.276H432.46V217.998H426.674V213.873C425.701 215.181 424.376 216.271 422.699 217.143C421.022 218.015 419.11 218.451 416.963 218.451C414.582 218.451 412.402 217.848 410.423 216.64C408.444 215.399 406.867 213.688 405.693 211.508C404.553 209.294 403.983 206.796 403.983 204.012ZM426.674 204.112C426.674 202.2 426.271 200.54 425.466 199.131C424.695 197.723 423.672 196.649 422.397 195.911C421.123 195.173 419.747 194.804 418.272 194.804C416.796 194.804 415.421 195.173 414.146 195.911C412.871 196.616 411.832 197.672 411.027 199.081C410.255 200.456 409.869 202.1 409.869 204.012C409.869 205.923 410.255 207.601 411.027 209.043C411.832 210.485 412.871 211.592 414.146 212.363C415.454 213.101 416.829 213.47 418.272 213.47C419.747 213.47 421.123 213.101 422.397 212.363C423.672 211.626 424.695 210.552 425.466 209.143C426.271 207.701 426.674 206.024 426.674 204.112ZM445.729 194.402C446.702 193.06 448.026 191.97 449.704 191.132C451.414 190.259 453.309 189.823 455.389 189.823C457.837 189.823 460.051 190.41 462.03 191.584C464.009 192.758 465.569 194.435 466.709 196.616C467.85 198.762 468.42 201.228 468.42 204.012C468.42 206.796 467.85 209.294 466.709 211.508C465.569 213.688 463.992 215.399 461.98 216.64C460.001 217.848 457.804 218.451 455.389 218.451C453.242 218.451 451.33 218.032 449.653 217.193C448.01 216.355 446.702 215.282 445.729 213.973V217.998H439.993V180.767H445.729V194.402ZM462.584 204.012C462.584 202.1 462.181 200.456 461.376 199.081C460.605 197.672 459.565 196.616 458.257 195.911C456.982 195.173 455.607 194.804 454.131 194.804C452.689 194.804 451.314 195.173 450.005 195.911C448.731 196.649 447.691 197.723 446.886 199.131C446.115 200.54 445.729 202.2 445.729 204.112C445.729 206.024 446.115 207.701 446.886 209.143C447.691 210.552 448.731 211.626 450.005 212.363C451.314 213.101 452.689 213.47 454.131 213.47C455.607 213.47 456.982 213.101 458.257 212.363C459.565 211.592 460.605 210.485 461.376 209.043C462.181 207.601 462.584 205.923 462.584 204.012ZM499.5 203.458C499.5 204.498 499.432 205.437 499.298 206.276H478.117C478.284 208.489 479.106 210.267 480.582 211.609C482.058 212.95 483.869 213.621 486.016 213.621C489.102 213.621 491.282 212.33 492.556 209.747H498.745C497.906 212.296 496.38 214.393 494.166 216.036C491.986 217.646 489.269 218.451 486.016 218.451C483.366 218.451 480.985 217.864 478.871 216.69C476.792 215.483 475.148 213.806 473.941 211.659C472.767 209.479 472.18 206.963 472.18 204.112C472.18 201.261 472.75 198.762 473.89 196.616C475.064 194.435 476.691 192.758 478.771 191.584C480.884 190.41 483.299 189.823 486.016 189.823C488.632 189.823 490.963 190.394 493.009 191.534C495.055 192.674 496.649 194.284 497.789 196.364C498.929 198.41 499.5 200.775 499.5 203.458ZM493.512 201.647C493.479 199.534 492.724 197.84 491.248 196.565C489.772 195.291 487.944 194.653 485.764 194.653C483.785 194.653 482.091 195.291 480.683 196.565C479.274 197.806 478.435 199.5 478.167 201.647H493.512ZM510.88 180.767V217.998H505.144V180.767H510.88Z"
  ></path>
  <path
    style="fill: var(--color-interface040)"
    d="M422.39 356.371V316.121H434.753C441.845 316.121 447.058 317.923 450.393 321.526C453.766 325.129 455.453 330.074 455.453 336.361C455.453 342.533 453.766 347.42 450.393 351.023C447.058 354.588 441.845 356.371 434.753 356.371H422.39ZM427.22 352.346H434.638C438.548 352.346 441.653 351.713 443.953 350.448C446.291 349.145 447.959 347.305 448.955 344.928C449.952 342.513 450.451 339.658 450.451 336.361C450.451 332.988 449.952 330.093 448.955 327.678C447.959 325.263 446.291 323.404 443.953 322.101C441.653 320.798 438.548 320.146 434.638 320.146H427.22V352.346ZM465.072 321.526C464.114 321.526 463.309 321.219 462.657 320.606C462.044 319.954 461.737 319.149 461.737 318.191C461.737 317.271 462.044 316.504 462.657 315.891C463.309 315.278 464.114 314.971 465.072 314.971C465.992 314.971 466.778 315.278 467.43 315.891C468.081 316.504 468.407 317.271 468.407 318.191C468.407 319.149 468.081 319.954 467.43 320.606C466.778 321.219 465.992 321.526 465.072 321.526ZM462.657 356.371V327.851H467.487V356.371H462.657ZM486.822 357.061C483.41 357.061 480.574 356.198 478.312 354.473C476.05 352.748 474.728 350.41 474.344 347.458H479.289C479.596 348.953 480.382 350.257 481.647 351.368C482.95 352.442 484.694 352.978 486.879 352.978C488.911 352.978 490.406 352.557 491.364 351.713C492.323 350.832 492.802 349.797 492.802 348.608C492.802 346.883 492.169 345.733 490.904 345.158C489.678 344.583 487.934 344.066 485.672 343.606C484.139 343.299 482.605 342.858 481.072 342.283C479.539 341.708 478.254 340.903 477.219 339.868C476.184 338.795 475.667 337.396 475.667 335.671C475.667 333.179 476.587 331.148 478.427 329.576C480.305 327.966 482.835 327.161 486.017 327.161C489.045 327.161 491.518 327.928 493.434 329.461C495.389 330.956 496.52 333.103 496.827 335.901H492.054C491.863 334.444 491.23 333.313 490.157 332.508C489.122 331.665 487.723 331.243 485.959 331.243C484.234 331.243 482.893 331.608 481.934 332.336C481.014 333.064 480.554 334.023 480.554 335.211C480.554 336.361 481.149 337.262 482.337 337.913C483.564 338.565 485.212 339.121 487.282 339.581C489.045 339.964 490.713 340.443 492.284 341.018C493.894 341.555 495.198 342.379 496.194 343.491C497.229 344.564 497.747 346.136 497.747 348.206C497.785 350.774 496.808 352.902 494.814 354.588C492.859 356.237 490.195 357.061 486.822 357.061ZM514.134 357.061C511.758 357.061 509.784 356.658 508.212 355.853C506.64 355.048 505.471 353.975 504.704 352.633C503.938 351.292 503.554 349.835 503.554 348.263C503.554 345.35 504.666 343.108 506.889 341.536C509.113 339.964 512.141 339.178 515.974 339.178H523.679V338.833C523.679 336.342 523.028 334.463 521.724 333.198C520.421 331.895 518.677 331.243 516.492 331.243C514.614 331.243 512.984 331.723 511.604 332.681C510.263 333.601 509.419 334.962 509.074 336.763H504.129C504.321 334.693 505.011 332.949 506.199 331.531C507.426 330.113 508.94 329.039 510.742 328.311C512.544 327.544 514.46 327.161 516.492 327.161C520.479 327.161 523.469 328.234 525.462 330.381C527.494 332.489 528.509 335.307 528.509 338.833V356.371H524.197L523.909 351.253C523.104 352.863 521.916 354.243 520.344 355.393C518.811 356.505 516.741 357.061 514.134 357.061ZM514.882 352.978C516.722 352.978 518.294 352.499 519.597 351.541C520.939 350.583 521.954 349.337 522.644 347.803C523.334 346.27 523.679 344.66 523.679 342.973V342.916H516.377C513.54 342.916 511.528 343.414 510.339 344.411C509.189 345.369 508.614 346.577 508.614 348.033C508.614 349.528 509.151 350.736 510.224 351.656C511.336 352.538 512.889 352.978 514.882 352.978ZM550.993 357.061C548.655 357.061 546.565 356.582 544.725 355.623C542.924 354.665 541.544 353.323 540.585 351.598L540.125 356.371H535.755V314.971H540.585V332.566C541.505 331.186 542.809 329.94 544.495 328.828C546.22 327.717 548.405 327.161 551.05 327.161C553.887 327.161 556.36 327.813 558.468 329.116C560.576 330.419 562.205 332.202 563.355 334.463C564.544 336.725 565.138 339.293 565.138 342.168C565.138 345.043 564.544 347.612 563.355 349.873C562.205 352.097 560.557 353.86 558.41 355.163C556.302 356.428 553.83 357.061 550.993 357.061ZM550.475 352.863C552.392 352.863 554.079 352.423 555.535 351.541C556.992 350.621 558.142 349.356 558.985 347.746C559.829 346.136 560.25 344.258 560.25 342.111C560.25 339.964 559.829 338.086 558.985 336.476C558.142 334.866 556.992 333.62 555.535 332.738C554.079 331.818 552.392 331.358 550.475 331.358C548.559 331.358 546.872 331.818 545.415 332.738C543.959 333.62 542.809 334.866 541.965 336.476C541.122 338.086 540.7 339.964 540.7 342.111C540.7 344.258 541.122 346.136 541.965 347.746C542.809 349.356 543.959 350.621 545.415 351.541C546.872 352.423 548.559 352.863 550.475 352.863ZM571.861 356.371V314.971H576.691V356.371H571.861ZM597.43 357.061C594.709 357.061 592.294 356.448 590.185 355.221C588.077 353.956 586.41 352.212 585.183 349.988C583.995 347.765 583.4 345.139 583.4 342.111C583.4 339.121 583.995 336.514 585.183 334.291C586.371 332.029 588.02 330.285 590.128 329.058C592.275 327.793 594.747 327.161 597.545 327.161C600.305 327.161 602.682 327.793 604.675 329.058C606.707 330.285 608.26 331.914 609.333 333.946C610.406 335.978 610.943 338.163 610.943 340.501C610.943 340.923 610.924 341.344 610.885 341.766C610.885 342.188 610.885 342.667 610.885 343.203H588.173C588.288 345.388 588.786 347.209 589.668 348.666C590.588 350.084 591.719 351.158 593.06 351.886C594.44 352.614 595.897 352.978 597.43 352.978C599.424 352.978 601.091 352.518 602.433 351.598C603.775 350.678 604.752 349.433 605.365 347.861H610.138C609.371 350.506 607.895 352.71 605.71 354.473C603.564 356.198 600.804 357.061 597.43 357.061ZM597.43 331.243C595.13 331.243 593.08 331.953 591.278 333.371C589.515 334.751 588.499 336.783 588.23 339.466H606.17C606.055 336.898 605.174 334.885 603.525 333.428C601.877 331.972 599.845 331.243 597.43 331.243ZM630.282 357.061C627.446 357.061 624.954 356.409 622.807 355.106C620.699 353.803 619.051 352.02 617.862 349.758C616.712 347.497 616.137 344.928 616.137 342.053C616.137 339.178 616.731 336.629 617.92 334.406C619.108 332.144 620.756 330.381 622.865 329.116C624.973 327.813 627.465 327.161 630.34 327.161C632.678 327.161 634.748 327.64 636.55 328.598C638.351 329.557 639.751 330.898 640.747 332.623V314.971H645.577V356.371H641.207L640.747 351.656C639.827 353.036 638.505 354.282 636.78 355.393C635.055 356.505 632.889 357.061 630.282 357.061ZM630.8 352.863C632.716 352.863 634.403 352.423 635.86 351.541C637.355 350.621 638.505 349.356 639.31 347.746C640.153 346.136 640.575 344.258 640.575 342.111C640.575 339.964 640.153 338.086 639.31 336.476C638.505 334.866 637.355 333.62 635.86 332.738C634.403 331.818 632.716 331.358 630.8 331.358C628.921 331.358 627.235 331.818 625.74 332.738C624.283 333.62 623.133 334.866 622.29 336.476C621.485 338.086 621.082 339.964 621.082 342.111C621.082 344.258 621.485 346.136 622.29 347.746C623.133 349.356 624.283 350.621 625.74 351.541C627.235 352.423 628.921 352.863 630.8 352.863Z"
  ></path>
  <rect
    x="372.507"
    y="264.569"
    width="744.987"
    height="315.987"
    rx="21.5575"
    stroke="#EBEBEB"
    stroke-width="5.01337"
  ></rect>
  <path
    style="fill: var(--color-interface040)"
    d="M371.26 647.594L382.096 618.194H385.834L396.628 647.594H392.89L390.202 640.034H377.686L374.956 647.594H371.26ZM378.736 637.178H389.152L383.944 622.646L378.736 637.178ZM408.769 648.098C406.277 648.098 404.205 647.468 402.553 646.208C400.901 644.948 399.935 643.24 399.655 641.084H403.267C403.491 642.176 404.065 643.128 404.989 643.94C405.941 644.724 407.215 645.116 408.811 645.116C410.295 645.116 411.387 644.808 412.087 644.192C412.787 643.548 413.137 642.792 413.137 641.924C413.137 640.664 412.675 639.824 411.751 639.404C410.855 638.984 409.581 638.606 407.929 638.27C406.809 638.046 405.689 637.724 404.569 637.304C403.449 636.884 402.511 636.296 401.755 635.54C400.999 634.756 400.621 633.734 400.621 632.474C400.621 630.654 401.293 629.17 402.637 628.022C404.009 626.846 405.857 626.258 408.181 626.258C410.393 626.258 412.199 626.818 413.599 627.938C415.027 629.03 415.853 630.598 416.077 632.642H412.591C412.451 631.578 411.989 630.752 411.205 630.164C410.449 629.548 409.427 629.24 408.139 629.24C406.879 629.24 405.899 629.506 405.199 630.038C404.527 630.57 404.191 631.27 404.191 632.138C404.191 632.978 404.625 633.636 405.493 634.112C406.389 634.588 407.593 634.994 409.105 635.33C410.393 635.61 411.611 635.96 412.759 636.38C413.935 636.772 414.887 637.374 415.615 638.186C416.371 638.97 416.749 640.118 416.749 641.63C416.777 643.506 416.063 645.06 414.607 646.292C413.179 647.496 411.233 648.098 408.769 648.098ZM429.769 648.098C427.277 648.098 425.205 647.468 423.553 646.208C421.901 644.948 420.935 643.24 420.655 641.084H424.267C424.491 642.176 425.065 643.128 425.989 643.94C426.941 644.724 428.215 645.116 429.811 645.116C431.295 645.116 432.387 644.808 433.087 644.192C433.787 643.548 434.137 642.792 434.137 641.924C434.137 640.664 433.675 639.824 432.751 639.404C431.855 638.984 430.581 638.606 428.929 638.27C427.809 638.046 426.689 637.724 425.569 637.304C424.449 636.884 423.511 636.296 422.755 635.54C421.999 634.756 421.621 633.734 421.621 632.474C421.621 630.654 422.293 629.17 423.637 628.022C425.009 626.846 426.857 626.258 429.181 626.258C431.393 626.258 433.199 626.818 434.599 627.938C436.027 629.03 436.853 630.598 437.077 632.642H433.591C433.451 631.578 432.989 630.752 432.205 630.164C431.449 629.548 430.427 629.24 429.139 629.24C427.879 629.24 426.899 629.506 426.199 630.038C425.527 630.57 425.191 631.27 425.191 632.138C425.191 632.978 425.625 633.636 426.493 634.112C427.389 634.588 428.593 634.994 430.105 635.33C431.393 635.61 432.611 635.96 433.759 636.38C434.935 636.772 435.887 637.374 436.615 638.186C437.371 638.97 437.749 640.118 437.749 641.63C437.777 643.506 437.063 645.06 435.607 646.292C434.179 647.496 432.233 648.098 429.769 648.098ZM444.931 622.142C444.231 622.142 443.643 621.918 443.167 621.47C442.719 620.994 442.495 620.406 442.495 619.706C442.495 619.034 442.719 618.474 443.167 618.026C443.643 617.578 444.231 617.354 444.931 617.354C445.603 617.354 446.177 617.578 446.653 618.026C447.129 618.474 447.367 619.034 447.367 619.706C447.367 620.406 447.129 620.994 446.653 621.47C446.177 621.918 445.603 622.142 444.931 622.142ZM443.167 647.594V626.762H446.695V647.594H443.167ZM460.817 648.098C458.325 648.098 456.253 647.468 454.601 646.208C452.949 644.948 451.983 643.24 451.703 641.084H455.315C455.539 642.176 456.113 643.128 457.037 643.94C457.989 644.724 459.263 645.116 460.859 645.116C462.343 645.116 463.435 644.808 464.135 644.192C464.835 643.548 465.185 642.792 465.185 641.924C465.185 640.664 464.723 639.824 463.799 639.404C462.903 638.984 461.629 638.606 459.977 638.27C458.857 638.046 457.737 637.724 456.617 637.304C455.497 636.884 454.559 636.296 453.803 635.54C453.047 634.756 452.669 633.734 452.669 632.474C452.669 630.654 453.341 629.17 454.685 628.022C456.057 626.846 457.905 626.258 460.229 626.258C462.441 626.258 464.247 626.818 465.647 627.938C467.075 629.03 467.901 630.598 468.125 632.642H464.639C464.499 631.578 464.037 630.752 463.253 630.164C462.497 629.548 461.475 629.24 460.187 629.24C458.927 629.24 457.947 629.506 457.247 630.038C456.575 630.57 456.239 631.27 456.239 632.138C456.239 632.978 456.673 633.636 457.541 634.112C458.437 634.588 459.641 634.994 461.153 635.33C462.441 635.61 463.659 635.96 464.807 636.38C465.983 636.772 466.935 637.374 467.663 638.186C468.419 638.97 468.797 640.118 468.797 641.63C468.825 643.506 468.111 645.06 466.655 646.292C465.227 647.496 463.281 648.098 460.817 648.098ZM481.126 647.594C479.222 647.594 477.724 647.132 476.632 646.208C475.54 645.284 474.994 643.618 474.994 641.21V629.744H471.382V626.762H474.994L475.456 621.764H478.522V626.762H484.654V629.744H478.522V641.21C478.522 642.526 478.788 643.422 479.32 643.898C479.852 644.346 480.79 644.57 482.134 644.57H484.318V647.594H481.126ZM491.278 622.142C490.578 622.142 489.99 621.918 489.514 621.47C489.066 620.994 488.842 620.406 488.842 619.706C488.842 619.034 489.066 618.474 489.514 618.026C489.99 617.578 490.578 617.354 491.278 617.354C491.95 617.354 492.524 617.578 493 618.026C493.476 618.474 493.714 619.034 493.714 619.706C493.714 620.406 493.476 620.994 493 621.47C492.524 621.918 491.95 622.142 491.278 622.142ZM489.514 647.594V626.762H493.042V647.594H489.514ZM505.191 647.594L497.295 626.762H500.991L507.249 644.192L513.549 626.762H517.161L509.265 647.594H505.191ZM529.387 648.098C527.399 648.098 525.635 647.65 524.095 646.754C522.555 645.83 521.337 644.556 520.441 642.932C519.573 641.308 519.139 639.39 519.139 637.178C519.139 634.994 519.573 633.09 520.441 631.466C521.309 629.814 522.513 628.54 524.053 627.644C525.621 626.72 527.427 626.258 529.471 626.258C531.487 626.258 533.223 626.72 534.679 627.644C536.163 628.54 537.297 629.73 538.081 631.214C538.865 632.698 539.257 634.294 539.257 636.002C539.257 636.31 539.243 636.618 539.215 636.926C539.215 637.234 539.215 637.584 539.215 637.976H522.625C522.709 639.572 523.073 640.902 523.717 641.966C524.389 643.002 525.215 643.786 526.195 644.318C527.203 644.85 528.267 645.116 529.387 645.116C530.843 645.116 532.061 644.78 533.041 644.108C534.021 643.436 534.735 642.526 535.183 641.378H538.669C538.109 643.31 537.031 644.92 535.435 646.208C533.867 647.468 531.851 648.098 529.387 648.098ZM529.387 629.24C527.707 629.24 526.209 629.758 524.893 630.794C523.605 631.802 522.863 633.286 522.667 635.246H535.771C535.687 633.37 535.043 631.9 533.839 630.836C532.635 629.772 531.151 629.24 529.387 629.24ZM563.28 647.594C561.376 647.594 559.878 647.132 558.786 646.208C557.694 645.284 557.148 643.618 557.148 641.21V629.744H553.536V626.762H557.148L557.61 621.764H560.676V626.762H566.808V629.744H560.676V641.21C560.676 642.526 560.942 643.422 561.474 643.898C562.006 644.346 562.944 644.57 564.288 644.57H566.472V647.594H563.28ZM580.082 648.098C578.094 648.098 576.33 647.65 574.79 646.754C573.25 645.83 572.032 644.556 571.136 642.932C570.268 641.308 569.834 639.39 569.834 637.178C569.834 634.994 570.268 633.09 571.136 631.466C572.004 629.814 573.208 628.54 574.748 627.644C576.316 626.72 578.122 626.258 580.166 626.258C582.182 626.258 583.918 626.72 585.374 627.644C586.858 628.54 587.992 629.73 588.776 631.214C589.56 632.698 589.952 634.294 589.952 636.002C589.952 636.31 589.938 636.618 589.91 636.926C589.91 637.234 589.91 637.584 589.91 637.976H573.32C573.404 639.572 573.768 640.902 574.412 641.966C575.084 643.002 575.91 643.786 576.89 644.318C577.898 644.85 578.962 645.116 580.082 645.116C581.538 645.116 582.756 644.78 583.736 644.108C584.716 643.436 585.43 642.526 585.878 641.378H589.364C588.804 643.31 587.726 644.92 586.13 646.208C584.562 647.468 582.546 648.098 580.082 648.098ZM580.082 629.24C578.402 629.24 576.904 629.758 575.588 630.794C574.3 631.802 573.558 633.286 573.362 635.246H586.466C586.382 633.37 585.738 631.9 584.534 630.836C583.33 629.772 581.846 629.24 580.082 629.24ZM591.544 647.594L598.768 637.178L591.544 626.762H595.366L601.204 635.372L607.084 626.762H610.864L603.64 637.178L610.864 647.594H607.084L601.204 638.984L595.366 647.594H591.544ZM622.794 647.594C620.89 647.594 619.392 647.132 618.3 646.208C617.208 645.284 616.662 643.618 616.662 641.21V629.744H613.05V626.762H616.662L617.124 621.764H620.19V626.762H626.322V629.744H620.19V641.21C620.19 642.526 620.456 643.422 620.988 643.898C621.52 644.346 622.458 644.57 623.802 644.57H625.986V647.594H622.794Z"
  ></path>
  <path
    style="fill: var(--color-illustrationDisabled)"
    fill-rule="evenodd"
    clip-rule="evenodd"
    d="M1083 567.663C1082.3 568.364 1082.35 569.552 1083.11 570.315C1083.87 571.078 1085.06 571.128 1085.76 570.427L1107.43 548.761C1108.13 548.059 1108.08 546.872 1107.32 546.109C1106.55 545.345 1105.37 545.295 1104.66 545.997L1083 567.663ZM1094.73 567.663C1094.02 568.364 1094.07 569.552 1094.84 570.315C1095.6 571.078 1096.79 571.128 1097.49 570.427L1107.43 560.488C1108.13 559.787 1108.08 558.599 1107.32 557.836C1106.55 557.072 1105.37 557.023 1104.66 557.724L1094.73 567.663Z"
  ></path>
</svg>
