<svg id="components-text-area-states-focus" style="width: 100%; height: 100%" width="1490" height="838" viewBox="0 0 1490 838" fill="none" xmlns="http://www.w3.org/2000/svg" class="css-0"><path style="fill:var(--color-illustrationBackground020)" d="M0 0H1490V838H0V0Z"></path><path style="fill:var(--color-illustrationHighlight010)" d="M379.509 213.369H391.333V217.998H373.773V183.031H379.509V213.369ZM394.217 204.011C394.217 201.227 394.787 198.762 395.928 196.615C397.102 194.469 398.678 192.808 400.657 191.634C402.67 190.427 404.883 189.823 407.298 189.823C409.479 189.823 411.374 190.259 412.984 191.131C414.627 191.97 415.935 193.026 416.908 194.301V190.276H422.694V217.998H416.908V213.872C415.935 215.181 414.611 216.271 412.933 217.143C411.256 218.015 409.345 218.451 407.198 218.451C404.816 218.451 402.636 217.847 400.657 216.64C398.678 215.399 397.102 213.688 395.928 211.508C394.787 209.294 394.217 206.795 394.217 204.011ZM416.908 204.112C416.908 202.2 416.506 200.54 415.701 199.131C414.929 197.722 413.906 196.649 412.632 195.911C411.357 195.173 409.982 194.804 408.506 194.804C407.03 194.804 405.655 195.173 404.38 195.911C403.106 196.615 402.066 197.672 401.261 199.081C400.49 200.456 400.104 202.099 400.104 204.011C400.104 205.923 400.49 207.6 401.261 209.042C402.066 210.485 403.106 211.592 404.38 212.363C405.688 213.101 407.064 213.47 408.506 213.47C409.982 213.47 411.357 213.101 412.632 212.363C413.906 211.625 414.929 210.552 415.701 209.143C416.506 207.701 416.908 206.024 416.908 204.112ZM435.963 194.401C436.936 193.06 438.261 191.97 439.938 191.131C441.649 190.259 443.544 189.823 445.623 189.823C448.072 189.823 450.286 190.41 452.264 191.584C454.243 192.758 455.803 194.435 456.944 196.615C458.084 198.762 458.654 201.227 458.654 204.011C458.654 206.795 458.084 209.294 456.944 211.508C455.803 213.688 454.227 215.399 452.214 216.64C450.235 217.847 448.038 218.451 445.623 218.451C443.477 218.451 441.565 218.032 439.888 217.193C438.244 216.355 436.936 215.281 435.963 213.973V217.998H430.228V180.767H435.963V194.401ZM452.818 204.011C452.818 202.099 452.415 200.456 451.61 199.081C450.839 197.672 449.799 196.615 448.491 195.911C447.216 195.173 445.841 194.804 444.365 194.804C442.923 194.804 441.548 195.173 440.24 195.911C438.965 196.649 437.925 197.722 437.12 199.131C436.349 200.54 435.963 202.2 435.963 204.112C435.963 206.024 436.349 207.701 437.12 209.143C437.925 210.552 438.965 211.625 440.24 212.363C441.548 213.101 442.923 213.47 444.365 213.47C445.841 213.47 447.216 213.101 448.491 212.363C449.799 211.592 450.839 210.485 451.61 209.042C452.415 207.6 452.818 205.923 452.818 204.011ZM489.734 203.458C489.734 204.498 489.667 205.437 489.533 206.275H468.351C468.519 208.489 469.341 210.267 470.816 211.608C472.292 212.95 474.104 213.621 476.25 213.621C479.336 213.621 481.516 212.33 482.791 209.747H488.979C488.141 212.296 486.615 214.392 484.401 216.036C482.221 217.646 479.504 218.451 476.25 218.451C473.6 218.451 471.219 217.864 469.106 216.69C467.026 215.482 465.383 213.805 464.175 211.659C463.001 209.478 462.414 206.963 462.414 204.112C462.414 201.261 462.984 198.762 464.125 196.615C465.299 194.435 466.926 192.758 469.005 191.584C471.118 190.41 473.533 189.823 476.25 189.823C478.866 189.823 481.198 190.393 483.244 191.534C485.29 192.674 486.883 194.284 488.023 196.364C489.164 198.41 489.734 200.774 489.734 203.458ZM483.747 201.646C483.713 199.533 482.959 197.84 481.483 196.565C480.007 195.29 478.179 194.653 475.999 194.653C474.02 194.653 472.326 195.29 470.917 196.565C469.508 197.806 468.67 199.5 468.401 201.646H483.747ZM501.114 180.767V217.998H495.378V180.767H501.114Z"></path><rect style="fill:var(--color-interfaceBackground)" x="373.5" y="265.562" width="743" height="314" rx="20.5"></rect><path style="fill:var(--color-illustrationHighlight010)" d="M422.262 356.242V315.992H427.092V356.242H422.262ZM435.339 356.242V327.722H439.709L439.996 332.84C440.916 331.038 442.239 329.62 443.964 328.585C445.689 327.55 447.644 327.032 449.829 327.032C453.202 327.032 455.886 328.067 457.879 330.137C459.911 332.169 460.926 335.312 460.926 339.567V356.242H456.096V340.085C456.096 334.143 453.643 331.172 448.736 331.172C446.283 331.172 444.232 332.073 442.584 333.875C440.974 335.638 440.169 338.168 440.169 341.465V356.242H435.339ZM468.244 368.892V327.722H472.614L473.074 332.437C473.994 331.057 475.297 329.811 476.984 328.7C478.709 327.588 480.894 327.032 483.539 327.032C486.376 327.032 488.848 327.684 490.957 328.987C493.065 330.291 494.694 332.073 495.844 334.335C497.032 336.596 497.627 339.165 497.627 342.04C497.627 344.915 497.032 347.483 495.844 349.745C494.694 351.968 493.046 353.731 490.899 355.035C488.791 356.3 486.318 356.932 483.482 356.932C481.143 356.932 479.054 356.453 477.214 355.495C475.412 354.536 474.032 353.195 473.074 351.47V368.892H468.244ZM482.964 352.735C484.881 352.735 486.567 352.294 488.024 351.412C489.481 350.492 490.631 349.227 491.474 347.617C492.317 346.007 492.739 344.129 492.739 341.982C492.739 339.836 492.317 337.957 491.474 336.347C490.631 334.737 489.481 333.491 488.024 332.61C486.567 331.69 484.881 331.23 482.964 331.23C481.047 331.23 479.361 331.69 477.904 332.61C476.447 333.491 475.297 334.737 474.454 336.347C473.611 337.957 473.189 339.836 473.189 341.982C473.189 344.129 473.611 346.007 474.454 347.617C475.297 349.227 476.447 350.492 477.904 351.412C479.361 352.294 481.047 352.735 482.964 352.735ZM514.758 356.932C511.384 356.932 508.701 355.916 506.708 353.885C504.714 351.815 503.718 348.652 503.718 344.397V327.722H508.548V343.88C508.548 349.821 510.982 352.792 515.85 352.792C518.342 352.792 520.393 351.911 522.003 350.147C523.651 348.346 524.475 345.796 524.475 342.5V327.722H529.305V356.242H524.935L524.59 351.125C523.708 352.926 522.386 354.345 520.623 355.38C518.898 356.415 516.943 356.932 514.758 356.932ZM548.525 356.242C545.919 356.242 543.868 355.61 542.373 354.345C540.878 353.08 540.13 350.799 540.13 347.502V331.805H535.185V327.722H540.13L540.763 320.88H544.96V327.722H553.355V331.805H544.96V347.502C544.96 349.304 545.325 350.531 546.053 351.182C546.781 351.796 548.065 352.102 549.905 352.102H552.895V356.242H548.525Z"></path><rect x="373.5" y="265.562" width="743" height="314" rx="20.5" stroke="#2B4AAB" stroke-width="7"></rect><path style="fill:var(--color-illustrationHighlight010)" d="M371.26 647.594L382.096 618.194H385.834L396.628 647.594H392.89L390.202 640.034H377.686L374.956 647.594H371.26ZM378.736 637.178H389.152L383.944 622.646L378.736 637.178ZM408.769 648.098C406.277 648.098 404.205 647.468 402.553 646.208C400.901 644.948 399.935 643.24 399.655 641.084H403.267C403.491 642.176 404.065 643.128 404.989 643.94C405.941 644.724 407.215 645.116 408.811 645.116C410.295 645.116 411.387 644.808 412.087 644.192C412.787 643.548 413.137 642.792 413.137 641.924C413.137 640.664 412.675 639.824 411.751 639.404C410.855 638.984 409.581 638.606 407.929 638.27C406.809 638.046 405.689 637.724 404.569 637.304C403.449 636.884 402.511 636.296 401.755 635.54C400.999 634.756 400.621 633.734 400.621 632.474C400.621 630.654 401.293 629.17 402.637 628.022C404.009 626.846 405.857 626.258 408.181 626.258C410.393 626.258 412.199 626.818 413.599 627.938C415.027 629.03 415.853 630.598 416.077 632.642H412.591C412.451 631.578 411.989 630.752 411.205 630.164C410.449 629.548 409.427 629.24 408.139 629.24C406.879 629.24 405.899 629.506 405.199 630.038C404.527 630.57 404.191 631.27 404.191 632.138C404.191 632.978 404.625 633.636 405.493 634.112C406.389 634.588 407.593 634.994 409.105 635.33C410.393 635.61 411.611 635.96 412.759 636.38C413.935 636.772 414.887 637.374 415.615 638.186C416.371 638.97 416.749 640.118 416.749 641.63C416.777 643.506 416.063 645.06 414.607 646.292C413.179 647.496 411.233 648.098 408.769 648.098ZM429.769 648.098C427.277 648.098 425.205 647.468 423.553 646.208C421.901 644.948 420.935 643.24 420.655 641.084H424.267C424.491 642.176 425.065 643.128 425.989 643.94C426.941 644.724 428.215 645.116 429.811 645.116C431.295 645.116 432.387 644.808 433.087 644.192C433.787 643.548 434.137 642.792 434.137 641.924C434.137 640.664 433.675 639.824 432.751 639.404C431.855 638.984 430.581 638.606 428.929 638.27C427.809 638.046 426.689 637.724 425.569 637.304C424.449 636.884 423.511 636.296 422.755 635.54C421.999 634.756 421.621 633.734 421.621 632.474C421.621 630.654 422.293 629.17 423.637 628.022C425.009 626.846 426.857 626.258 429.181 626.258C431.393 626.258 433.199 626.818 434.599 627.938C436.027 629.03 436.853 630.598 437.077 632.642H433.591C433.451 631.578 432.989 630.752 432.205 630.164C431.449 629.548 430.427 629.24 429.139 629.24C427.879 629.24 426.899 629.506 426.199 630.038C425.527 630.57 425.191 631.27 425.191 632.138C425.191 632.978 425.625 633.636 426.493 634.112C427.389 634.588 428.593 634.994 430.105 635.33C431.393 635.61 432.611 635.96 433.759 636.38C434.935 636.772 435.887 637.374 436.615 638.186C437.371 638.97 437.749 640.118 437.749 641.63C437.777 643.506 437.063 645.06 435.607 646.292C434.179 647.496 432.233 648.098 429.769 648.098ZM444.931 622.142C444.231 622.142 443.643 621.918 443.167 621.47C442.719 620.994 442.495 620.406 442.495 619.706C442.495 619.034 442.719 618.474 443.167 618.026C443.643 617.578 444.231 617.354 444.931 617.354C445.603 617.354 446.177 617.578 446.653 618.026C447.129 618.474 447.367 619.034 447.367 619.706C447.367 620.406 447.129 620.994 446.653 621.47C446.177 621.918 445.603 622.142 444.931 622.142ZM443.167 647.594V626.762H446.695V647.594H443.167ZM460.817 648.098C458.325 648.098 456.253 647.468 454.601 646.208C452.949 644.948 451.983 643.24 451.703 641.084H455.315C455.539 642.176 456.113 643.128 457.037 643.94C457.989 644.724 459.263 645.116 460.859 645.116C462.343 645.116 463.435 644.808 464.135 644.192C464.835 643.548 465.185 642.792 465.185 641.924C465.185 640.664 464.723 639.824 463.799 639.404C462.903 638.984 461.629 638.606 459.977 638.27C458.857 638.046 457.737 637.724 456.617 637.304C455.497 636.884 454.559 636.296 453.803 635.54C453.047 634.756 452.669 633.734 452.669 632.474C452.669 630.654 453.341 629.17 454.685 628.022C456.057 626.846 457.905 626.258 460.229 626.258C462.441 626.258 464.247 626.818 465.647 627.938C467.075 629.03 467.901 630.598 468.125 632.642H464.639C464.499 631.578 464.037 630.752 463.253 630.164C462.497 629.548 461.475 629.24 460.187 629.24C458.927 629.24 457.947 629.506 457.247 630.038C456.575 630.57 456.239 631.27 456.239 632.138C456.239 632.978 456.673 633.636 457.541 634.112C458.437 634.588 459.641 634.994 461.153 635.33C462.441 635.61 463.659 635.96 464.807 636.38C465.983 636.772 466.935 637.374 467.663 638.186C468.419 638.97 468.797 640.118 468.797 641.63C468.825 643.506 468.111 645.06 466.655 646.292C465.227 647.496 463.281 648.098 460.817 648.098ZM481.126 647.594C479.222 647.594 477.724 647.132 476.632 646.208C475.54 645.284 474.994 643.618 474.994 641.21V629.744H471.382V626.762H474.994L475.456 621.764H478.522V626.762H484.654V629.744H478.522V641.21C478.522 642.526 478.788 643.422 479.32 643.898C479.852 644.346 480.79 644.57 482.134 644.57H484.318V647.594H481.126ZM491.278 622.142C490.578 622.142 489.99 621.918 489.514 621.47C489.066 620.994 488.842 620.406 488.842 619.706C488.842 619.034 489.066 618.474 489.514 618.026C489.99 617.578 490.578 617.354 491.278 617.354C491.95 617.354 492.524 617.578 493 618.026C493.476 618.474 493.714 619.034 493.714 619.706C493.714 620.406 493.476 620.994 493 621.47C492.524 621.918 491.95 622.142 491.278 622.142ZM489.514 647.594V626.762H493.042V647.594H489.514ZM505.191 647.594L497.295 626.762H500.991L507.249 644.192L513.549 626.762H517.161L509.265 647.594H505.191ZM529.387 648.098C527.399 648.098 525.635 647.65 524.095 646.754C522.555 645.83 521.337 644.556 520.441 642.932C519.573 641.308 519.139 639.39 519.139 637.178C519.139 634.994 519.573 633.09 520.441 631.466C521.309 629.814 522.513 628.54 524.053 627.644C525.621 626.72 527.427 626.258 529.471 626.258C531.487 626.258 533.223 626.72 534.679 627.644C536.163 628.54 537.297 629.73 538.081 631.214C538.865 632.698 539.257 634.294 539.257 636.002C539.257 636.31 539.243 636.618 539.215 636.926C539.215 637.234 539.215 637.584 539.215 637.976H522.625C522.709 639.572 523.073 640.902 523.717 641.966C524.389 643.002 525.215 643.786 526.195 644.318C527.203 644.85 528.267 645.116 529.387 645.116C530.843 645.116 532.061 644.78 533.041 644.108C534.021 643.436 534.735 642.526 535.183 641.378H538.669C538.109 643.31 537.031 644.92 535.435 646.208C533.867 647.468 531.851 648.098 529.387 648.098ZM529.387 629.24C527.707 629.24 526.209 629.758 524.893 630.794C523.605 631.802 522.863 633.286 522.667 635.246H535.771C535.687 633.37 535.043 631.9 533.839 630.836C532.635 629.772 531.151 629.24 529.387 629.24ZM563.28 647.594C561.376 647.594 559.878 647.132 558.786 646.208C557.694 645.284 557.148 643.618 557.148 641.21V629.744H553.536V626.762H557.148L557.61 621.764H560.676V626.762H566.808V629.744H560.676V641.21C560.676 642.526 560.942 643.422 561.474 643.898C562.006 644.346 562.944 644.57 564.288 644.57H566.472V647.594H563.28ZM580.082 648.098C578.094 648.098 576.33 647.65 574.79 646.754C573.25 645.83 572.032 644.556 571.136 642.932C570.268 641.308 569.834 639.39 569.834 637.178C569.834 634.994 570.268 633.09 571.136 631.466C572.004 629.814 573.208 628.54 574.748 627.644C576.316 626.72 578.122 626.258 580.166 626.258C582.182 626.258 583.918 626.72 585.374 627.644C586.858 628.54 587.992 629.73 588.776 631.214C589.56 632.698 589.952 634.294 589.952 636.002C589.952 636.31 589.938 636.618 589.91 636.926C589.91 637.234 589.91 637.584 589.91 637.976H573.32C573.404 639.572 573.768 640.902 574.412 641.966C575.084 643.002 575.91 643.786 576.89 644.318C577.898 644.85 578.962 645.116 580.082 645.116C581.538 645.116 582.756 644.78 583.736 644.108C584.716 643.436 585.43 642.526 585.878 641.378H589.364C588.804 643.31 587.726 644.92 586.13 646.208C584.562 647.468 582.546 648.098 580.082 648.098ZM580.082 629.24C578.402 629.24 576.904 629.758 575.588 630.794C574.3 631.802 573.558 633.286 573.362 635.246H586.466C586.382 633.37 585.738 631.9 584.534 630.836C583.33 629.772 581.846 629.24 580.082 629.24ZM591.544 647.594L598.768 637.178L591.544 626.762H595.366L601.204 635.372L607.084 626.762H610.864L603.64 637.178L610.864 647.594H607.084L601.204 638.984L595.366 647.594H591.544ZM622.794 647.594C620.89 647.594 619.392 647.132 618.3 646.208C617.208 645.284 616.662 643.618 616.662 641.21V629.744H613.05V626.762H616.662L617.124 621.764H620.19V626.762H626.322V629.744H620.19V641.21C620.19 642.526 620.456 643.422 620.988 643.898C621.52 644.346 622.458 644.57 623.802 644.57H625.986V647.594H622.794Z"></path><path style="fill:var(--color-interactiveInput020)" fill-rule="evenodd" clip-rule="evenodd" d="M1083 567.663C1082.3 568.365 1082.35 569.552 1083.11 570.315C1083.87 571.079 1085.06 571.129 1085.76 570.427L1107.43 548.761C1108.13 548.06 1108.08 546.872 1107.32 546.109C1106.55 545.345 1105.37 545.296 1104.66 545.997L1083 567.663ZM1094.73 567.663C1094.02 568.365 1094.07 569.552 1094.84 570.315C1095.6 571.079 1096.79 571.129 1097.49 570.427L1107.43 560.489C1108.13 559.787 1108.08 558.599 1107.32 557.836C1106.55 557.073 1105.37 557.023 1104.66 557.724L1094.73 567.663Z"></path></svg>