<svg
  id="nksvg"
  style="width: 100%; height: 100%"
  width="1490"
  height="838"
  viewBox="0 0 1490 838"
  fill="none"
  xmlns="http://www.w3.org/2000/svg"
  class="css-0"
>
  <g clip-path="url(#nk-1098)">
    <path
      style="fill: var(--color-illustrationBackground020)"
      d="M0 0H1490V838H0V0Z"
    ></path>
    <path
      style="fill: var(--color-illustrationHighlight010)"
      d="M379.509 213.338H391.332V217.967H373.773V183H379.509V213.338ZM394.217 203.98C394.217 201.196 394.787 198.731 395.928 196.584C397.102 194.437 398.678 192.777 400.657 191.603C402.67 190.396 404.883 189.792 407.298 189.792C409.479 189.792 411.374 190.228 412.984 191.1C414.627 191.938 415.935 192.995 416.908 194.27V190.245H422.694V217.967H416.908V213.841C415.935 215.149 414.611 216.239 412.933 217.111C411.256 217.984 409.345 218.42 407.198 218.42C404.816 218.42 402.636 217.816 400.657 216.608C398.678 215.367 397.102 213.657 395.928 211.476C394.787 209.263 394.217 206.764 394.217 203.98ZM416.908 204.081C416.908 202.169 416.506 200.508 415.701 199.1C414.929 197.691 413.906 196.618 412.632 195.88C411.357 195.142 409.982 194.773 408.506 194.773C407.03 194.773 405.655 195.142 404.38 195.88C403.106 196.584 402.066 197.641 401.261 199.049C400.49 200.425 400.104 202.068 400.104 203.98C400.104 205.892 400.49 207.569 401.261 209.011C402.066 210.453 403.106 211.56 404.38 212.332C405.688 213.07 407.064 213.439 408.506 213.439C409.982 213.439 411.357 213.07 412.632 212.332C413.906 211.594 414.929 210.521 415.701 209.112C416.506 207.67 416.908 205.992 416.908 204.081ZM435.963 194.37C436.936 193.029 438.261 191.938 439.938 191.1C441.649 190.228 443.544 189.792 445.623 189.792C448.072 189.792 450.286 190.379 452.264 191.553C454.243 192.727 455.803 194.404 456.944 196.584C458.084 198.731 458.654 201.196 458.654 203.98C458.654 206.764 458.084 209.263 456.944 211.476C455.803 213.657 454.227 215.367 452.214 216.608C450.235 217.816 448.038 218.42 445.623 218.42C443.477 218.42 441.565 218 439.888 217.162C438.244 216.323 436.936 215.25 435.963 213.942V217.967H430.228V180.736H435.963V194.37ZM452.818 203.98C452.818 202.068 452.415 200.425 451.61 199.049C450.839 197.641 449.799 196.584 448.491 195.88C447.216 195.142 445.841 194.773 444.365 194.773C442.923 194.773 441.548 195.142 440.24 195.88C438.965 196.618 437.925 197.691 437.12 199.1C436.349 200.508 435.963 202.169 435.963 204.081C435.963 205.992 436.349 207.67 437.12 209.112C437.925 210.521 438.965 211.594 440.24 212.332C441.548 213.07 442.923 213.439 444.365 213.439C445.841 213.439 447.216 213.07 448.491 212.332C449.799 211.56 450.839 210.453 451.61 209.011C452.415 207.569 452.818 205.892 452.818 203.98ZM489.734 203.426C489.734 204.466 489.667 205.405 489.533 206.244H468.351C468.519 208.458 469.341 210.235 470.816 211.577C472.292 212.919 474.103 213.59 476.25 213.59C479.336 213.59 481.516 212.298 482.791 209.716H488.979C488.141 212.265 486.615 214.361 484.401 216.005C482.221 217.615 479.504 218.42 476.25 218.42C473.6 218.42 471.219 217.833 469.106 216.659C467.026 215.451 465.383 213.774 464.175 211.627C463.001 209.447 462.414 206.932 462.414 204.081C462.414 201.23 462.984 198.731 464.125 196.584C465.299 194.404 466.926 192.727 469.005 191.553C471.118 190.379 473.533 189.792 476.25 189.792C478.866 189.792 481.198 190.362 483.244 191.502C485.29 192.643 486.883 194.253 488.023 196.332C489.164 198.378 489.734 200.743 489.734 203.426ZM483.747 201.615C483.713 199.502 482.958 197.808 481.483 196.534C480.007 195.259 478.179 194.622 475.999 194.622C474.02 194.622 472.326 195.259 470.917 196.534C469.508 197.775 468.67 199.469 468.401 201.615H483.747ZM501.114 180.736V217.967H495.378V180.736H501.114Z"
    ></path>
    <rect
      style="fill: var(--color-illustrationInterface020)"
      x="372.5"
      y="263.592"
      width="745"
      height="316"
      rx="21.5"
    ></rect>
    <path
      style="fill: var(--color-illustrationHighlight010)"
      d="M422.262 357.967V317.717H427.092V335.484H447.965V317.717H452.795V357.967H447.965V339.452H427.092V357.967H422.262ZM473.996 358.657C471.312 358.657 468.897 358.043 466.751 356.817C464.604 355.59 462.898 353.865 461.633 351.642C460.407 349.38 459.793 346.735 459.793 343.707C459.793 340.678 460.426 338.053 461.691 335.829C462.956 333.568 464.662 331.823 466.808 330.597C468.993 329.37 471.427 328.757 474.111 328.757C476.794 328.757 479.209 329.37 481.356 330.597C483.502 331.823 485.189 333.568 486.416 335.829C487.681 338.053 488.313 340.678 488.313 343.707C488.313 346.735 487.681 349.38 486.416 351.642C485.151 353.865 483.426 355.59 481.241 356.817C479.094 358.043 476.679 358.657 473.996 358.657ZM473.996 354.517C475.644 354.517 477.177 354.114 478.596 353.309C480.014 352.504 481.164 351.297 482.046 349.687C482.927 348.077 483.368 346.083 483.368 343.707C483.368 341.33 482.927 339.337 482.046 337.727C481.202 336.117 480.072 334.909 478.653 334.104C477.235 333.299 475.721 332.897 474.111 332.897C472.462 332.897 470.929 333.299 469.511 334.104C468.092 334.909 466.942 336.117 466.061 337.727C465.179 339.337 464.738 341.33 464.738 343.707C464.738 346.083 465.179 348.077 466.061 349.687C466.942 351.297 468.073 352.504 469.453 353.309C470.872 354.114 472.386 354.517 473.996 354.517ZM501.792 357.967L490.982 329.447H496.042L504.609 353.309L513.234 329.447H518.179L507.369 357.967H501.792ZM534.917 358.657C532.195 358.657 529.78 358.043 527.672 356.817C525.564 355.552 523.896 353.808 522.669 351.584C521.481 349.361 520.887 346.735 520.887 343.707C520.887 340.717 521.481 338.11 522.669 335.887C523.858 333.625 525.506 331.881 527.614 330.654C529.761 329.389 532.234 328.757 535.032 328.757C537.792 328.757 540.169 329.389 542.162 330.654C544.194 331.881 545.746 333.51 546.819 335.542C547.893 337.573 548.429 339.758 548.429 342.097C548.429 342.518 548.41 342.94 548.372 343.362C548.372 343.783 548.372 344.263 548.372 344.799H525.659C525.774 346.984 526.273 348.805 527.154 350.262C528.074 351.68 529.205 352.753 530.547 353.482C531.927 354.21 533.384 354.574 534.917 354.574C536.91 354.574 538.578 354.114 539.919 353.194C541.261 352.274 542.239 351.028 542.852 349.457H547.624C546.858 352.102 545.382 354.306 543.197 356.069C541.05 357.794 538.29 358.657 534.917 358.657ZM534.917 332.839C532.617 332.839 530.566 333.548 528.764 334.967C527.001 336.347 525.985 338.378 525.717 341.062H543.657C543.542 338.493 542.66 336.481 541.012 335.024C539.364 333.568 537.332 332.839 534.917 332.839ZM554.831 357.967V329.447H559.201L559.604 334.909C560.485 333.031 561.827 331.536 563.629 330.424C565.43 329.313 567.654 328.757 570.299 328.757V333.817H568.976C567.29 333.817 565.737 334.123 564.319 334.737C562.9 335.312 561.77 336.308 560.926 337.727C560.083 339.145 559.661 341.1 559.661 343.592V357.967H554.831Z"
    ></path>
    <rect
      x="372.5"
      y="263.592"
      width="745"
      height="316"
      rx="21.5"
      stroke="#C0C7CC"
      stroke-width="5"
    ></rect>
    <path
      style="fill: var(--color-illustrationHighlight010)"
      d="M371.26 683.367L382.096 653.967H385.834L396.628 683.367H392.89L390.202 675.807H377.686L374.956 683.367H371.26ZM378.736 672.951H389.152L383.944 658.419L378.736 672.951ZM408.769 683.871C406.277 683.871 404.205 683.241 402.553 681.981C400.901 680.721 399.935 679.013 399.655 676.857H403.267C403.491 677.949 404.065 678.901 404.989 679.713C405.941 680.497 407.215 680.889 408.811 680.889C410.295 680.889 411.387 680.581 412.087 679.965C412.787 679.321 413.137 678.565 413.137 677.697C413.137 676.437 412.675 675.597 411.751 675.177C410.855 674.757 409.581 674.379 407.929 674.043C406.809 673.819 405.689 673.497 404.569 673.077C403.449 672.657 402.511 672.069 401.755 671.313C400.999 670.529 400.621 669.507 400.621 668.247C400.621 666.427 401.293 664.943 402.637 663.795C404.009 662.619 405.857 662.031 408.181 662.031C410.393 662.031 412.199 662.591 413.599 663.711C415.027 664.803 415.853 666.371 416.077 668.415H412.591C412.451 667.351 411.989 666.525 411.205 665.937C410.449 665.321 409.427 665.013 408.139 665.013C406.879 665.013 405.899 665.279 405.199 665.811C404.527 666.343 404.191 667.043 404.191 667.911C404.191 668.751 404.625 669.409 405.493 669.885C406.389 670.361 407.593 670.767 409.105 671.103C410.393 671.383 411.611 671.733 412.759 672.153C413.935 672.545 414.887 673.147 415.615 673.959C416.371 674.743 416.749 675.891 416.749 677.403C416.777 679.279 416.063 680.833 414.607 682.065C413.179 683.269 411.233 683.871 408.769 683.871ZM429.769 683.871C427.277 683.871 425.205 683.241 423.553 681.981C421.901 680.721 420.935 679.013 420.655 676.857H424.267C424.491 677.949 425.065 678.901 425.989 679.713C426.941 680.497 428.215 680.889 429.811 680.889C431.295 680.889 432.387 680.581 433.087 679.965C433.787 679.321 434.137 678.565 434.137 677.697C434.137 676.437 433.675 675.597 432.751 675.177C431.855 674.757 430.581 674.379 428.929 674.043C427.809 673.819 426.689 673.497 425.569 673.077C424.449 672.657 423.511 672.069 422.755 671.313C421.999 670.529 421.621 669.507 421.621 668.247C421.621 666.427 422.293 664.943 423.637 663.795C425.009 662.619 426.857 662.031 429.181 662.031C431.393 662.031 433.199 662.591 434.599 663.711C436.027 664.803 436.853 666.371 437.077 668.415H433.591C433.451 667.351 432.989 666.525 432.205 665.937C431.449 665.321 430.427 665.013 429.139 665.013C427.879 665.013 426.899 665.279 426.199 665.811C425.527 666.343 425.191 667.043 425.191 667.911C425.191 668.751 425.625 669.409 426.493 669.885C427.389 670.361 428.593 670.767 430.105 671.103C431.393 671.383 432.611 671.733 433.759 672.153C434.935 672.545 435.887 673.147 436.615 673.959C437.371 674.743 437.749 675.891 437.749 677.403C437.777 679.279 437.063 680.833 435.607 682.065C434.179 683.269 432.233 683.871 429.769 683.871ZM444.931 657.915C444.231 657.915 443.643 657.691 443.167 657.243C442.719 656.767 442.495 656.179 442.495 655.479C442.495 654.807 442.719 654.247 443.167 653.799C443.643 653.351 444.231 653.127 444.931 653.127C445.603 653.127 446.177 653.351 446.653 653.799C447.129 654.247 447.367 654.807 447.367 655.479C447.367 656.179 447.129 656.767 446.653 657.243C446.177 657.691 445.603 657.915 444.931 657.915ZM443.167 683.367V662.535H446.695V683.367H443.167ZM460.817 683.871C458.325 683.871 456.253 683.241 454.601 681.981C452.949 680.721 451.983 679.013 451.703 676.857H455.315C455.539 677.949 456.113 678.901 457.037 679.713C457.989 680.497 459.263 680.889 460.859 680.889C462.343 680.889 463.435 680.581 464.135 679.965C464.835 679.321 465.185 678.565 465.185 677.697C465.185 676.437 464.723 675.597 463.799 675.177C462.903 674.757 461.629 674.379 459.977 674.043C458.857 673.819 457.737 673.497 456.617 673.077C455.497 672.657 454.559 672.069 453.803 671.313C453.047 670.529 452.669 669.507 452.669 668.247C452.669 666.427 453.341 664.943 454.685 663.795C456.057 662.619 457.905 662.031 460.229 662.031C462.441 662.031 464.247 662.591 465.647 663.711C467.075 664.803 467.901 666.371 468.125 668.415H464.639C464.499 667.351 464.037 666.525 463.253 665.937C462.497 665.321 461.475 665.013 460.187 665.013C458.927 665.013 457.947 665.279 457.247 665.811C456.575 666.343 456.239 667.043 456.239 667.911C456.239 668.751 456.673 669.409 457.541 669.885C458.437 670.361 459.641 670.767 461.153 671.103C462.441 671.383 463.659 671.733 464.807 672.153C465.983 672.545 466.935 673.147 467.663 673.959C468.419 674.743 468.797 675.891 468.797 677.403C468.825 679.279 468.111 680.833 466.655 682.065C465.227 683.269 463.281 683.871 460.817 683.871ZM481.126 683.367C479.222 683.367 477.724 682.905 476.632 681.981C475.54 681.057 474.994 679.391 474.994 676.983V665.517H471.382V662.535H474.994L475.456 657.537H478.522V662.535H484.654V665.517H478.522V676.983C478.522 678.299 478.788 679.195 479.32 679.671C479.852 680.119 480.79 680.343 482.134 680.343H484.318V683.367H481.126ZM491.278 657.915C490.578 657.915 489.99 657.691 489.514 657.243C489.066 656.767 488.842 656.179 488.842 655.479C488.842 654.807 489.066 654.247 489.514 653.799C489.99 653.351 490.578 653.127 491.278 653.127C491.95 653.127 492.524 653.351 493 653.799C493.476 654.247 493.714 654.807 493.714 655.479C493.714 656.179 493.476 656.767 493 657.243C492.524 657.691 491.95 657.915 491.278 657.915ZM489.514 683.367V662.535H493.042V683.367H489.514ZM505.191 683.367L497.295 662.535H500.991L507.249 679.965L513.549 662.535H517.161L509.265 683.367H505.191ZM529.387 683.871C527.399 683.871 525.635 683.423 524.095 682.527C522.555 681.603 521.337 680.329 520.441 678.705C519.573 677.081 519.139 675.163 519.139 672.951C519.139 670.767 519.573 668.863 520.441 667.239C521.309 665.587 522.513 664.313 524.053 663.417C525.621 662.493 527.427 662.031 529.471 662.031C531.487 662.031 533.223 662.493 534.679 663.417C536.163 664.313 537.297 665.503 538.081 666.987C538.865 668.471 539.257 670.067 539.257 671.775C539.257 672.083 539.243 672.391 539.215 672.699C539.215 673.007 539.215 673.357 539.215 673.749H522.625C522.709 675.345 523.073 676.675 523.717 677.739C524.389 678.775 525.215 679.559 526.195 680.091C527.203 680.623 528.267 680.889 529.387 680.889C530.843 680.889 532.061 680.553 533.041 679.881C534.021 679.209 534.735 678.299 535.183 677.151H538.669C538.109 679.083 537.031 680.693 535.435 681.981C533.867 683.241 531.851 683.871 529.387 683.871ZM529.387 665.013C527.707 665.013 526.209 665.531 524.893 666.567C523.605 667.575 522.863 669.059 522.667 671.019H535.771C535.687 669.143 535.043 667.673 533.839 666.609C532.635 665.545 531.151 665.013 529.387 665.013ZM563.28 683.367C561.376 683.367 559.878 682.905 558.786 681.981C557.694 681.057 557.148 679.391 557.148 676.983V665.517H553.536V662.535H557.148L557.61 657.537H560.676V662.535H566.808V665.517H560.676V676.983C560.676 678.299 560.942 679.195 561.474 679.671C562.006 680.119 562.944 680.343 564.288 680.343H566.472V683.367H563.28ZM580.082 683.871C578.094 683.871 576.33 683.423 574.79 682.527C573.25 681.603 572.032 680.329 571.136 678.705C570.268 677.081 569.834 675.163 569.834 672.951C569.834 670.767 570.268 668.863 571.136 667.239C572.004 665.587 573.208 664.313 574.748 663.417C576.316 662.493 578.122 662.031 580.166 662.031C582.182 662.031 583.918 662.493 585.374 663.417C586.858 664.313 587.992 665.503 588.776 666.987C589.56 668.471 589.952 670.067 589.952 671.775C589.952 672.083 589.938 672.391 589.91 672.699C589.91 673.007 589.91 673.357 589.91 673.749H573.32C573.404 675.345 573.768 676.675 574.412 677.739C575.084 678.775 575.91 679.559 576.89 680.091C577.898 680.623 578.962 680.889 580.082 680.889C581.538 680.889 582.756 680.553 583.736 679.881C584.716 679.209 585.43 678.299 585.878 677.151H589.364C588.804 679.083 587.726 680.693 586.13 681.981C584.562 683.241 582.546 683.871 580.082 683.871ZM580.082 665.013C578.402 665.013 576.904 665.531 575.588 666.567C574.3 667.575 573.558 669.059 573.362 671.019H586.466C586.382 669.143 585.738 667.673 584.534 666.609C583.33 665.545 581.846 665.013 580.082 665.013ZM591.544 683.367L598.768 672.951L591.544 662.535H595.366L601.204 671.145L607.084 662.535H610.864L603.64 672.951L610.864 683.367H607.084L601.204 674.757L595.366 683.367H591.544ZM622.794 683.367C620.89 683.367 619.392 682.905 618.3 681.981C617.208 681.057 616.662 679.391 616.662 676.983V665.517H613.05V662.535H616.662L617.124 657.537H620.19V662.535H626.322V665.517H620.19V676.983C620.19 678.299 620.456 679.195 620.988 679.671C621.52 680.119 622.458 680.343 623.802 680.343H625.986V683.367H622.794Z"
    ></path>
    <g >
      <g >
        <path
          style="fill: var(--color-black)"
          fill-rule="evenodd"
          clip-rule="evenodd"
          d="M941 510H919V514H940V597H919V601H941V599H946V601H969V597H947V514H969V510H946V513H941V510Z"
        ></path>
      </g>
      <path
        style="fill: var(--color-white)"
        fill-rule="evenodd"
        clip-rule="evenodd"
        d="M912.562 503.562H975.438V520.438H953.438V590.562H975.438V607.438H912.562V590.562H933.562V520.438H912.562V503.562ZM940 597H919V601H941V599H946V601H969V597H947V514H969V510H946V513H941V510H919V514H940V597Z"
      ></path>
    </g>
    <path
      style="fill: var(--color-illustrationAnatomySubtle)"
      fill-rule="evenodd"
      clip-rule="evenodd"
      d="M1083 567.663C1082.3 568.365 1082.35 569.552 1083.11 570.315C1083.87 571.079 1085.06 571.129 1085.76 570.427L1107.43 548.761C1108.13 548.06 1108.08 546.872 1107.32 546.109C1106.55 545.345 1105.37 545.296 1104.66 545.997L1083 567.663ZM1094.73 567.663C1094.02 568.365 1094.07 569.552 1094.84 570.315C1095.6 571.079 1096.79 571.129 1097.49 570.427L1107.43 560.489C1108.13 559.787 1108.08 558.599 1107.32 557.836C1106.55 557.073 1105.37 557.023 1104.66 557.724L1094.73 567.663Z"
    ></path>
  </g>
  <defs>
    <filter
      id="nk-1099"
      x="785.872"
      y="417.436"
      width="316.257"
      height="316.257"
      filterUnits="userSpaceOnUse"
      color-interpolation-filters="sRGB"
    >
      <feFlood flood-opacity="0" result="BackgroundImageFix"></feFlood>
      <feColorMatrix
        in="SourceAlpha"
        type="matrix"
        values="0 0 0 0 0 0 0 0 0 0 0 0 0 0 0 0 0 0 127 0"
        result="hardAlpha"
      ></feColorMatrix>
      <feOffset dy="18.5642"></feOffset>
      <feGaussianBlur stdDeviation="18.5642"></feGaussianBlur>
      <feColorMatrix
        type="matrix"
        values="0 0 0 0 0.0392157 0 0 0 0 0.0392157 0 0 0 0 0.0392157 0 0 0 0.08 0"
      ></feColorMatrix>
      <feBlend
        mode="normal"
        in2="BackgroundImageFix"
        result="effect1_dropShadow_2657_78758"
      ></feBlend>
      <feBlend
        mode="normal"
        in="SourceGraphic"
        in2="effect1_dropShadow_2657_78758"
        result="shape"
      ></feBlend>
    </filter>
    <filter
      id="nk-1100"
      x="899.688"
      y="497.125"
      width="88.625"
      height="129.625"
      filterUnits="userSpaceOnUse"
      color-interpolation-filters="sRGB"
    >
      <feFlood flood-opacity="0" result="BackgroundImageFix"></feFlood>
      <feColorMatrix
        in="SourceAlpha"
        type="matrix"
        values="0 0 0 0 0 0 0 0 0 0 0 0 0 0 0 0 0 0 127 0"
        result="hardAlpha"
      ></feColorMatrix>
      <feOffset dy="6.4375"></feOffset>
      <feGaussianBlur stdDeviation="9.65625"></feGaussianBlur>
      <feColorMatrix
        type="matrix"
        values="0 0 0 0 0 0 0 0 0 0 0 0 0 0 0 0 0 0 0.25 0"
      ></feColorMatrix>
      <feBlend
        mode="normal"
        in2="BackgroundImageFix"
        result="effect1_dropShadow_2657_78758"
      ></feBlend>
      <feBlend
        mode="normal"
        in="SourceGraphic"
        in2="effect1_dropShadow_2657_78758"
        result="shape"
      ></feBlend>
    </filter>
    <clipPath id="nk-1098">
      <rect style="fill: var(--color-white)" width="1490" height="838"></rect>
    </clipPath>
  </defs>
</svg>
