<svg id="components-text-area-states-invalid" style="width: 100%; height: 100%" width="1490" height="838" viewBox="0 0 1490 838" fill="none" xmlns="http://www.w3.org/2000/svg" class="css-0"><path style="fill:var(--color-illustrationBackground020)" d="M0 0H1490V838H0V0Z"></path><path style="fill:var(--color-illustrationHighlight010)" d="M379.509 213.339H391.333V217.967H373.773V183H379.509V213.339ZM394.217 203.98C394.217 201.196 394.787 198.731 395.928 196.584C397.102 194.438 398.678 192.777 400.657 191.604C402.67 190.396 404.883 189.792 407.298 189.792C409.479 189.792 411.374 190.228 412.984 191.1C414.627 191.939 415.935 192.996 416.908 194.27V190.245H422.694V217.967H416.908V213.842C415.935 215.15 414.611 216.24 412.933 217.112C411.256 217.984 409.345 218.42 407.198 218.42C404.816 218.42 402.636 217.816 400.657 216.609C398.678 215.368 397.102 213.657 395.928 211.477C394.787 209.263 394.217 206.764 394.217 203.98ZM416.908 204.081C416.908 202.169 416.506 200.509 415.701 199.1C414.929 197.691 413.906 196.618 412.632 195.88C411.357 195.142 409.982 194.773 408.506 194.773C407.03 194.773 405.655 195.142 404.38 195.88C403.106 196.584 402.066 197.641 401.261 199.05C400.49 200.425 400.104 202.069 400.104 203.98C400.104 205.892 400.49 207.569 401.261 209.012C402.066 210.454 403.106 211.561 404.38 212.332C405.688 213.07 407.064 213.439 408.506 213.439C409.982 213.439 411.357 213.07 412.632 212.332C413.906 211.594 414.929 210.521 415.701 209.112C416.506 207.67 416.908 205.993 416.908 204.081ZM435.963 194.371C436.936 193.029 438.261 191.939 439.938 191.1C441.649 190.228 443.544 189.792 445.623 189.792C448.072 189.792 450.286 190.379 452.264 191.553C454.243 192.727 455.803 194.404 456.944 196.584C458.084 198.731 458.654 201.196 458.654 203.98C458.654 206.764 458.084 209.263 456.944 211.477C455.803 213.657 454.227 215.368 452.214 216.609C450.235 217.816 448.038 218.42 445.623 218.42C443.477 218.42 441.565 218.001 439.888 217.162C438.244 216.324 436.936 215.25 435.963 213.942V217.967H430.228V180.736H435.963V194.371ZM452.818 203.98C452.818 202.069 452.415 200.425 451.61 199.05C450.839 197.641 449.799 196.584 448.491 195.88C447.216 195.142 445.841 194.773 444.365 194.773C442.923 194.773 441.548 195.142 440.24 195.88C438.965 196.618 437.925 197.691 437.12 199.1C436.349 200.509 435.963 202.169 435.963 204.081C435.963 205.993 436.349 207.67 437.12 209.112C437.925 210.521 438.965 211.594 440.24 212.332C441.548 213.07 442.923 213.439 444.365 213.439C445.841 213.439 447.216 213.07 448.491 212.332C449.799 211.561 450.839 210.454 451.61 209.012C452.415 207.569 452.818 205.892 452.818 203.98ZM489.734 203.427C489.734 204.467 489.667 205.406 489.533 206.244H468.351C468.519 208.458 469.341 210.236 470.816 211.578C472.292 212.919 474.104 213.59 476.25 213.59C479.336 213.59 481.516 212.299 482.791 209.716H488.979C488.141 212.265 486.615 214.362 484.401 216.005C482.221 217.615 479.504 218.42 476.25 218.42C473.6 218.42 471.219 217.833 469.106 216.659C467.026 215.452 465.383 213.775 464.175 211.628C463.001 209.448 462.414 206.932 462.414 204.081C462.414 201.23 462.984 198.731 464.125 196.584C465.299 194.404 466.926 192.727 469.005 191.553C471.118 190.379 473.533 189.792 476.25 189.792C478.866 189.792 481.198 190.362 483.244 191.503C485.29 192.643 486.883 194.253 488.023 196.333C489.164 198.379 489.734 200.744 489.734 203.427ZM483.747 201.616C483.713 199.503 482.959 197.809 481.483 196.534C480.007 195.26 478.179 194.622 475.999 194.622C474.02 194.622 472.326 195.26 470.917 196.534C469.508 197.775 468.67 199.469 468.401 201.616H483.747ZM501.114 180.736V217.967H495.378V180.736H501.114Z"></path><rect style="fill:var(--color-interfaceBackground)" x="372.5" y="263.592" width="745" height="316" rx="21.5"></rect><path style="fill:var(--color-illustrationHighlight010)" d="M422.262 357.967V317.717H427.092V357.967H422.262ZM435.339 357.967V329.447H439.709L439.996 334.565C440.916 332.763 442.239 331.345 443.964 330.31C445.689 329.275 447.644 328.757 449.829 328.757C453.202 328.757 455.885 329.792 457.879 331.862C459.91 333.894 460.926 337.037 460.926 341.292V357.967H456.096V341.81C456.096 335.868 453.643 332.897 448.736 332.897C446.283 332.897 444.232 333.798 442.584 335.6C440.974 337.363 440.169 339.893 440.169 343.19V357.967H435.339ZM475.905 357.967L465.095 329.447H470.155L478.722 353.31L487.347 329.447H492.292L481.482 357.967H475.905ZM505.695 358.657C503.319 358.657 501.344 358.255 499.773 357.45C498.201 356.645 497.032 355.571 496.265 354.23C495.499 352.888 495.115 351.431 495.115 349.86C495.115 346.946 496.227 344.704 498.45 343.132C500.674 341.561 503.702 340.775 507.535 340.775H515.24V340.43C515.24 337.938 514.589 336.06 513.285 334.795C511.982 333.491 510.238 332.84 508.053 332.84C506.174 332.84 504.545 333.319 503.165 334.277C501.824 335.197 500.98 336.558 500.635 338.36H495.69C495.882 336.29 496.572 334.546 497.76 333.127C498.987 331.709 500.501 330.636 502.303 329.907C504.104 329.141 506.021 328.757 508.053 328.757C512.039 328.757 515.029 329.831 517.023 331.977C519.054 334.086 520.07 336.903 520.07 340.43V357.967H515.758L515.47 352.85C514.665 354.46 513.477 355.84 511.905 356.99C510.372 358.101 508.302 358.657 505.695 358.657ZM506.443 354.575C508.283 354.575 509.854 354.096 511.158 353.137C512.499 352.179 513.515 350.933 514.205 349.4C514.895 347.866 515.24 346.256 515.24 344.57V344.512H507.938C505.101 344.512 503.089 345.011 501.9 346.007C500.75 346.966 500.175 348.173 500.175 349.63C500.175 351.125 500.712 352.332 501.785 353.252C502.897 354.134 504.449 354.575 506.443 354.575ZM527.316 357.967V316.567H532.146V357.967H527.316ZM542.995 323.122C542.037 323.122 541.232 322.816 540.58 322.202C539.967 321.551 539.66 320.746 539.66 319.787C539.66 318.867 539.967 318.101 540.58 317.487C541.232 316.874 542.037 316.567 542.995 316.567C543.915 316.567 544.701 316.874 545.353 317.487C546.004 318.101 546.33 318.867 546.33 319.787C546.33 320.746 546.004 321.551 545.353 322.202C544.701 322.816 543.915 323.122 542.995 323.122ZM540.58 357.967V329.447H545.41V357.967H540.58ZM566.758 358.657C563.921 358.657 561.429 358.006 559.283 356.702C557.174 355.399 555.526 353.616 554.338 351.355C553.188 349.093 552.613 346.525 552.613 343.65C552.613 340.775 553.207 338.226 554.395 336.002C555.583 333.741 557.232 331.977 559.34 330.712C561.448 329.409 563.94 328.757 566.815 328.757C569.153 328.757 571.223 329.236 573.025 330.195C574.827 331.153 576.226 332.495 577.223 334.22V316.567H582.053V357.967H577.683L577.223 353.252C576.303 354.632 574.98 355.878 573.255 356.99C571.53 358.101 569.364 358.657 566.758 358.657ZM567.275 354.46C569.192 354.46 570.878 354.019 572.335 353.137C573.83 352.217 574.98 350.952 575.785 349.342C576.628 347.732 577.05 345.854 577.05 343.707C577.05 341.561 576.628 339.682 575.785 338.072C574.98 336.462 573.83 335.216 572.335 334.335C570.878 333.415 569.192 332.955 567.275 332.955C565.397 332.955 563.71 333.415 562.215 334.335C560.758 335.216 559.608 336.462 558.765 338.072C557.96 339.682 557.558 341.561 557.558 343.707C557.558 345.854 557.96 347.732 558.765 349.342C559.608 350.952 560.758 352.217 562.215 353.137C563.71 354.019 565.397 354.46 567.275 354.46ZM605.431 357.967V317.717H610.261V357.967H605.431ZM618.508 357.967V329.447H622.878L623.165 334.565C624.085 332.763 625.408 331.345 627.133 330.31C628.858 329.275 630.813 328.757 632.998 328.757C636.371 328.757 639.054 329.792 641.048 331.862C643.079 333.894 644.095 337.037 644.095 341.292V357.967H639.265V341.81C639.265 335.868 636.812 332.897 631.905 332.897C629.452 332.897 627.401 333.798 625.753 335.6C624.143 337.363 623.338 339.893 623.338 343.19V357.967H618.508ZM651.413 370.617V329.447H655.783L656.243 334.162C657.163 332.782 658.466 331.536 660.153 330.425C661.878 329.313 664.063 328.757 666.708 328.757C669.544 328.757 672.017 329.409 674.125 330.712C676.234 332.016 677.863 333.798 679.013 336.06C680.201 338.321 680.795 340.89 680.795 343.765C680.795 346.64 680.201 349.208 679.013 351.47C677.863 353.693 676.214 355.456 674.068 356.76C671.959 358.025 669.487 358.657 666.65 358.657C664.312 358.657 662.223 358.178 660.383 357.22C658.581 356.261 657.201 354.92 656.243 353.195V370.617H651.413ZM666.133 354.46C668.049 354.46 669.736 354.019 671.193 353.137C672.649 352.217 673.799 350.952 674.643 349.342C675.486 347.732 675.908 345.854 675.908 343.707C675.908 341.561 675.486 339.682 674.643 338.072C673.799 336.462 672.649 335.216 671.193 334.335C669.736 333.415 668.049 332.955 666.133 332.955C664.216 332.955 662.529 333.415 661.073 334.335C659.616 335.216 658.466 336.462 657.623 338.072C656.779 339.682 656.358 341.561 656.358 343.707C656.358 345.854 656.779 347.732 657.623 349.342C658.466 350.952 659.616 352.217 661.073 353.137C662.529 354.019 664.216 354.46 666.133 354.46ZM697.926 358.657C694.553 358.657 691.87 357.641 689.876 355.61C687.883 353.54 686.886 350.377 686.886 346.122V329.447H691.716V345.605C691.716 351.546 694.15 354.517 699.019 354.517C701.51 354.517 703.561 353.636 705.171 351.872C706.82 350.071 707.644 347.521 707.644 344.225V329.447H712.474V357.967H708.104L707.759 352.85C706.877 354.651 705.555 356.07 703.791 357.105C702.066 358.14 700.111 358.657 697.926 358.657ZM731.694 357.967C729.087 357.967 727.037 357.335 725.542 356.07C724.047 354.805 723.299 352.524 723.299 349.227V333.53H718.354V329.447H723.299L723.932 322.605H728.129V329.447H736.524V333.53H728.129V349.227C728.129 351.029 728.493 352.256 729.222 352.907C729.95 353.521 731.234 353.827 733.074 353.827H736.064V357.967H731.694Z"></path><rect x="372.5" y="263.592" width="745" height="316" rx="21.5" stroke="#FE8888" stroke-width="5"></rect><path style="fill:var(--color-red040)" d="M442.626 640.73H432.29L430.386 646H427.122L435.69 622.438H439.26L447.794 646H444.53L442.626 640.73ZM441.742 638.214L437.458 626.246L433.174 638.214H441.742ZM458.124 646.306C456.696 646.306 455.415 646.068 454.282 645.592C453.149 645.093 452.253 644.413 451.596 643.552C450.939 642.668 450.576 641.659 450.508 640.526H453.704C453.795 641.455 454.225 642.215 454.996 642.804C455.789 643.393 456.821 643.688 458.09 643.688C459.269 643.688 460.198 643.427 460.878 642.906C461.558 642.385 461.898 641.727 461.898 640.934C461.898 640.118 461.535 639.517 460.81 639.132C460.085 638.724 458.963 638.327 457.444 637.942C456.061 637.579 454.928 637.217 454.044 636.854C453.183 636.469 452.435 635.913 451.8 635.188C451.188 634.44 450.882 633.465 450.882 632.264C450.882 631.312 451.165 630.439 451.732 629.646C452.299 628.853 453.103 628.229 454.146 627.776C455.189 627.3 456.379 627.062 457.716 627.062C459.779 627.062 461.445 627.583 462.714 628.626C463.983 629.669 464.663 631.097 464.754 632.91H461.66C461.592 631.935 461.195 631.153 460.47 630.564C459.767 629.975 458.815 629.68 457.614 629.68C456.503 629.68 455.619 629.918 454.962 630.394C454.305 630.87 453.976 631.493 453.976 632.264C453.976 632.876 454.169 633.386 454.554 633.794C454.962 634.179 455.461 634.497 456.05 634.746C456.662 634.973 457.501 635.233 458.566 635.528C459.903 635.891 460.991 636.253 461.83 636.616C462.669 636.956 463.383 637.477 463.972 638.18C464.584 638.883 464.901 639.801 464.924 640.934C464.924 641.954 464.641 642.872 464.074 643.688C463.507 644.504 462.703 645.15 461.66 645.626C460.64 646.079 459.461 646.306 458.124 646.306ZM475.888 646.306C474.46 646.306 473.179 646.068 472.046 645.592C470.912 645.093 470.017 644.413 469.36 643.552C468.702 642.668 468.34 641.659 468.272 640.526H471.468C471.558 641.455 471.989 642.215 472.76 642.804C473.553 643.393 474.584 643.688 475.854 643.688C477.032 643.688 477.962 643.427 478.642 642.906C479.322 642.385 479.662 641.727 479.662 640.934C479.662 640.118 479.299 639.517 478.574 639.132C477.848 638.724 476.726 638.327 475.208 637.942C473.825 637.579 472.692 637.217 471.808 636.854C470.946 636.469 470.198 635.913 469.564 635.188C468.952 634.44 468.646 633.465 468.646 632.264C468.646 631.312 468.929 630.439 469.496 629.646C470.062 628.853 470.867 628.229 471.91 627.776C472.952 627.3 474.142 627.062 475.48 627.062C477.542 627.062 479.208 627.583 480.478 628.626C481.747 629.669 482.427 631.097 482.518 632.91H479.424C479.356 631.935 478.959 631.153 478.234 630.564C477.531 629.975 476.579 629.68 475.378 629.68C474.267 629.68 473.383 629.918 472.726 630.394C472.068 630.87 471.74 631.493 471.74 632.264C471.74 632.876 471.932 633.386 472.318 633.794C472.726 634.179 473.224 634.497 473.814 634.746C474.426 634.973 475.264 635.233 476.33 635.528C477.667 635.891 478.755 636.253 479.594 636.616C480.432 636.956 481.146 637.477 481.736 638.18C482.348 638.883 482.665 639.801 482.688 640.934C482.688 641.954 482.404 642.872 481.838 643.688C481.271 644.504 480.466 645.15 479.424 645.626C478.404 646.079 477.225 646.306 475.888 646.306ZM488.654 624.342C488.064 624.342 487.566 624.138 487.158 623.73C486.75 623.322 486.546 622.823 486.546 622.234C486.546 621.645 486.75 621.146 487.158 620.738C487.566 620.33 488.064 620.126 488.654 620.126C489.22 620.126 489.696 620.33 490.082 620.738C490.49 621.146 490.694 621.645 490.694 622.234C490.694 622.823 490.49 623.322 490.082 623.73C489.696 624.138 489.22 624.342 488.654 624.342ZM490.15 627.368V646H487.056V627.368H490.15ZM502.019 646.306C500.591 646.306 499.31 646.068 498.177 645.592C497.043 645.093 496.148 644.413 495.491 643.552C494.833 642.668 494.471 641.659 494.403 640.526H497.599C497.689 641.455 498.12 642.215 498.891 642.804C499.684 643.393 500.715 643.688 501.985 643.688C503.163 643.688 504.093 643.427 504.773 642.906C505.453 642.385 505.793 641.727 505.793 640.934C505.793 640.118 505.43 639.517 504.705 639.132C503.979 638.724 502.857 638.327 501.339 637.942C499.956 637.579 498.823 637.217 497.939 636.854C497.077 636.469 496.329 635.913 495.695 635.188C495.083 634.44 494.777 633.465 494.777 632.264C494.777 631.312 495.06 630.439 495.627 629.646C496.193 628.853 496.998 628.229 498.041 627.776C499.083 627.3 500.273 627.062 501.611 627.062C503.673 627.062 505.339 627.583 506.609 628.626C507.878 629.669 508.558 631.097 508.649 632.91H505.555C505.487 631.935 505.09 631.153 504.365 630.564C503.662 629.975 502.71 629.68 501.509 629.68C500.398 629.68 499.514 629.918 498.857 630.394C498.199 630.87 497.871 631.493 497.871 632.264C497.871 632.876 498.063 633.386 498.449 633.794C498.857 634.179 499.355 634.497 499.945 634.746C500.557 634.973 501.395 635.233 502.461 635.528C503.798 635.891 504.886 636.253 505.725 636.616C506.563 636.956 507.277 637.477 507.867 638.18C508.479 638.883 508.796 639.801 508.819 640.934C508.819 641.954 508.535 642.872 507.969 643.688C507.402 644.504 506.597 645.15 505.555 645.626C504.535 646.079 503.356 646.306 502.019 646.306ZM516.96 629.918V640.9C516.96 641.807 517.153 642.453 517.538 642.838C517.924 643.201 518.592 643.382 519.544 643.382H521.822V646H519.034C517.312 646 516.02 645.603 515.158 644.81C514.297 644.017 513.866 642.713 513.866 640.9V629.918H511.452V627.368H513.866V622.676H516.96V627.368H521.822V629.918H516.96ZM527.169 624.342C526.58 624.342 526.081 624.138 525.673 623.73C525.265 623.322 525.061 622.823 525.061 622.234C525.061 621.645 525.265 621.146 525.673 620.738C526.081 620.33 526.58 620.126 527.169 620.126C527.736 620.126 528.212 620.33 528.597 620.738C529.005 621.146 529.209 621.645 529.209 622.234C529.209 622.823 529.005 623.322 528.597 623.73C528.212 624.138 527.736 624.342 527.169 624.342ZM528.665 627.368V646H525.571V627.368H528.665ZM540.874 643.144L546.654 627.368H549.952L542.642 646H539.038L531.728 627.368H535.06L540.874 643.144ZM569.997 635.97C569.997 636.559 569.963 637.183 569.895 637.84H555.003C555.116 639.676 555.74 641.115 556.873 642.158C558.029 643.178 559.423 643.688 561.055 643.688C562.392 643.688 563.503 643.382 564.387 642.77C565.294 642.135 565.928 641.297 566.291 640.254H569.623C569.124 642.045 568.127 643.507 566.631 644.64C565.135 645.751 563.276 646.306 561.055 646.306C559.287 646.306 557.7 645.909 556.295 645.116C554.912 644.323 553.824 643.201 553.031 641.75C552.238 640.277 551.841 638.577 551.841 636.65C551.841 634.723 552.226 633.035 552.997 631.584C553.768 630.133 554.844 629.023 556.227 628.252C557.632 627.459 559.242 627.062 561.055 627.062C562.823 627.062 564.387 627.447 565.747 628.218C567.107 628.989 568.15 630.054 568.875 631.414C569.623 632.751 569.997 634.27 569.997 635.97ZM566.801 635.324C566.801 634.145 566.54 633.137 566.019 632.298C565.498 631.437 564.784 630.791 563.877 630.36C562.993 629.907 562.007 629.68 560.919 629.68C559.355 629.68 558.018 630.179 556.907 631.176C555.819 632.173 555.196 633.556 555.037 635.324H566.801ZM586.919 629.918V640.9C586.919 641.807 587.112 642.453 587.497 642.838C587.883 643.201 588.551 643.382 589.503 643.382H591.781V646H588.993C587.271 646 585.979 645.603 585.117 644.81C584.256 644.017 583.825 642.713 583.825 640.9V629.918H581.411V627.368H583.825V622.676H586.919V627.368H591.781V629.918H586.919ZM612.53 635.97C612.53 636.559 612.496 637.183 612.428 637.84H597.536C597.649 639.676 598.273 641.115 599.406 642.158C600.562 643.178 601.956 643.688 603.588 643.688C604.925 643.688 606.036 643.382 606.92 642.77C607.827 642.135 608.461 641.297 608.824 640.254H612.156C611.657 642.045 610.66 643.507 609.164 644.64C607.668 645.751 605.809 646.306 603.588 646.306C601.82 646.306 600.233 645.909 598.828 645.116C597.445 644.323 596.357 643.201 595.564 641.75C594.771 640.277 594.374 638.577 594.374 636.65C594.374 634.723 594.759 633.035 595.53 631.584C596.301 630.133 597.377 629.023 598.76 628.252C600.165 627.459 601.775 627.062 603.588 627.062C605.356 627.062 606.92 627.447 608.28 628.218C609.64 628.989 610.683 630.054 611.408 631.414C612.156 632.751 612.53 634.27 612.53 635.97ZM609.334 635.324C609.334 634.145 609.073 633.137 608.552 632.298C608.031 631.437 607.317 630.791 606.41 630.36C605.526 629.907 604.54 629.68 603.452 629.68C601.888 629.68 600.551 630.179 599.44 631.176C598.352 632.173 597.729 633.556 597.57 635.324H609.334ZM626.338 646L621.918 639.064L617.668 646H614.438L620.456 636.752L614.438 627.368H617.94L622.36 634.27L626.576 627.368H629.806L623.822 636.582L629.84 646H626.338ZM636.658 629.918V640.9C636.658 641.807 636.85 642.453 637.236 642.838C637.621 643.201 638.29 643.382 639.242 643.382H641.52V646H638.732C637.009 646 635.717 645.603 634.856 644.81C633.994 644.017 633.564 642.713 633.564 640.9V629.918H631.15V627.368H633.564V622.676H636.658V627.368H641.52V629.918H636.658Z"></path><path style="fill:var(--color-red040)" d="M391 614.5C381.34 614.5 373.5 622.34 373.5 632C373.5 641.66 381.34 649.5 391 649.5C400.66 649.5 408.5 641.66 408.5 632C408.5 622.34 400.66 614.5 391 614.5ZM392.75 640.75H389.25V637.25H392.75V640.75ZM392.75 633.75H389.25V623.25H392.75V633.75Z"></path><path style="fill:var(--color-interactiveInput020)" fill-rule="evenodd" clip-rule="evenodd" d="M1083 567.663C1082.3 568.364 1082.35 569.552 1083.11 570.315C1083.87 571.078 1085.06 571.128 1085.76 570.427L1107.43 548.761C1108.13 548.059 1108.08 546.872 1107.32 546.109C1106.55 545.345 1105.37 545.295 1104.66 545.997L1083 567.663ZM1094.73 567.663C1094.02 568.364 1094.07 569.552 1094.84 570.315C1095.6 571.078 1096.79 571.128 1097.49 570.427L1107.43 560.488C1108.13 559.787 1108.08 558.599 1107.32 557.836C1106.55 557.073 1105.37 557.023 1104.66 557.724L1094.73 567.663Z"></path></svg>