<svg id="components-popover-usage-do2" style="width: 100%; height: 100%" width="1490" height="838" viewBox="0 0 1490 838" fill="none" xmlns="http://www.w3.org/2000/svg" class="css-0"><rect style="fill:var(--color-illustrationBackground010)" width="1490" height="838"></rect><g filter="url(#nk-937)"><path style="fill:var(--color-illustrationInterface010)" fill-rule="evenodd" clip-rule="evenodd" d="M402.605 196C396.196 196 391 201.196 391 207.605V588.395C391 594.804 396.196 600 402.605 600H680.678L726.099 645.421L771.519 600H1055.39C1061.8 600 1067 594.804 1067 588.395V207.605C1067 201.196 1061.8 196 1055.39 196H402.605Z"></path></g><path style="fill:var(--color-illustrationHighlight010)" d="M1024.11 253.767L1020.69 250.344L1007.11 263.917L993.54 250.344L990.116 253.767L1003.69 267.341L990.116 280.914L993.54 284.338L1007.11 270.764L1020.69 284.338L1024.11 280.914L1010.54 267.341L1024.11 253.767Z"></path><path style="fill:var(--color-illustrationInterface020)" d="M434.908 480.142C434.908 475.875 438.367 472.416 442.634 472.416H1009.76C1014.03 472.416 1017.48 475.875 1017.48 480.142C1017.48 484.409 1014.03 487.868 1009.76 487.868H442.634C438.367 487.868 434.908 484.409 434.908 480.142Z"></path><path style="fill:var(--color-illustrationInterface020)" d="M434.908 438.079C434.908 433.338 438.751 429.494 443.492 429.494H1008.9C1013.64 429.494 1017.48 433.338 1017.48 438.079C1017.48 442.82 1013.64 446.663 1008.9 446.663H443.492C438.751 446.663 434.908 442.82 434.908 438.079Z"></path><path style="fill:var(--color-illustrationInterface020)" d="M434.909 396.014C434.909 391.747 438.368 388.288 442.635 388.288H721.317C725.584 388.288 729.043 391.747 729.043 396.014C729.043 400.281 725.584 403.74 721.317 403.74H442.635C438.368 403.74 434.909 400.281 434.909 396.014Z"></path><path style="fill:var(--color-illustrationInterface020)" d="M557.944 522.165C557.944 517.764 561.512 514.196 565.913 514.196H591.566C595.967 514.196 599.535 517.764 599.535 522.165C599.535 526.566 595.967 530.134 591.566 530.134H565.913C561.512 530.134 557.944 526.566 557.944 522.165Z"></path><path style="fill:var(--color-illustrationInterface020)" d="M434.905 522.165C434.905 517.764 438.472 514.196 442.874 514.196H525.713C530.114 514.196 533.682 517.764 533.682 522.165C533.682 526.566 530.114 530.134 525.713 530.134H442.874C438.472 530.134 434.905 526.566 434.905 522.165Z"></path><path style="fill:var(--color-illustrationHighlight010)" fill-rule="evenodd" clip-rule="evenodd" d="M1017.48 334.252H434.905V332.563H1017.48V334.252Z"></path><path style="fill:var(--color-illustrationHighlight010)" d="M458.351 249.093V255.099H450.32V279.865H442.936V255.099H434.905V249.093H458.351Z"></path><path style="fill:var(--color-illustrationHighlight010)" d="M465.77 252.863C464.475 252.863 463.41 252.483 462.575 251.723C461.769 250.934 461.366 249.97 461.366 248.83C461.366 247.662 461.769 246.697 462.575 245.937C463.41 245.148 464.475 244.754 465.77 244.754C467.037 244.754 468.073 245.148 468.879 245.937C469.714 246.697 470.131 247.662 470.131 248.83C470.131 249.97 469.714 250.934 468.879 251.723C468.073 252.483 467.037 252.863 465.77 252.863ZM469.44 255.405V279.865H462.057V255.405H469.44Z"></path><path style="fill:var(--color-illustrationHighlight010)" d="M488.22 273.509V279.865H484.463C481.786 279.865 479.699 279.207 478.202 277.892C476.705 276.548 475.957 274.371 475.957 271.361V261.63H473.021V255.405H475.957V249.444H483.341V255.405H488.177V261.63H483.341V271.449C483.341 272.179 483.513 272.705 483.859 273.027C484.204 273.348 484.78 273.509 485.586 273.509H488.22Z"></path><path style="fill:var(--color-illustrationHighlight010)" d="M499.716 247.428V279.865H492.333V247.428H499.716Z"></path><path style="fill:var(--color-illustrationHighlight010)" d="M527.78 267.241C527.78 267.942 527.736 268.672 527.65 269.432H510.94C511.055 270.952 511.53 272.121 512.365 272.939C513.228 273.728 514.279 274.122 515.517 274.122C517.359 274.122 518.64 273.333 519.36 271.755H527.218C526.815 273.363 526.081 274.809 525.016 276.095C523.98 277.381 522.67 278.389 521.087 279.119C519.504 279.85 517.733 280.215 515.776 280.215C513.415 280.215 511.314 279.704 509.472 278.681C507.629 277.658 506.19 276.197 505.154 274.298C504.117 272.398 503.599 270.177 503.599 267.635C503.599 265.093 504.103 262.872 505.11 260.972C506.147 259.073 507.586 257.612 509.428 256.589C511.271 255.566 513.387 255.055 515.776 255.055C518.107 255.055 520.18 255.552 521.994 256.545C523.807 257.539 525.218 258.956 526.225 260.797C527.261 262.638 527.78 264.786 527.78 267.241ZM520.223 265.268C520.223 263.982 519.791 262.959 518.928 262.2C518.064 261.44 516.985 261.06 515.689 261.06C514.452 261.06 513.401 261.425 512.537 262.156C511.703 262.886 511.184 263.924 510.983 265.268H520.223Z"></path><path style="fill:var(--color-illustrationHighlight010)" fill-rule="evenodd" clip-rule="evenodd" d="M351.98 603.842L311 603.842L311 600L329 600L329 207.842L311 207.842L311 204L351.98 204L351.98 207.842L333 207.842L333 600L351.98 600L351.98 603.842Z"></path><defs><filter id="nk-937" x="356.185" y="184.395" width="745.631" height="519.052" filterUnits="userSpaceOnUse" color-interpolation-filters="sRGB"><feFlood flood-opacity="0" result="BackgroundImageFix"></feFlood><feColorMatrix in="SourceAlpha" type="matrix" values="0 0 0 0 0 0 0 0 0 0 0 0 0 0 0 0 0 0 127 0" result="hardAlpha"></feColorMatrix><feOffset dy="23.2103"></feOffset><feGaussianBlur stdDeviation="17.4077"></feGaussianBlur><feColorMatrix type="matrix" values="0 0 0 0 0.0392157 0 0 0 0 0.0392157 0 0 0 0 0.0392157 0 0 0 0.08 0"></feColorMatrix><feBlend mode="normal" in2="BackgroundImageFix" result="effect1_dropShadow_1862_58848"></feBlend><feBlend mode="normal" in="SourceGraphic" in2="effect1_dropShadow_1862_58848" result="shape"></feBlend></filter></defs></svg>