<svg id="components-popover-usage-dont2" style="width: 100%; height: 100%" width="1490" height="838" viewBox="0 0 1490 838" fill="none" xmlns="http://www.w3.org/2000/svg" class="css-0"><g clip-path="url(#nk-1293)"><rect style="fill:var(--color-illustrationBackground010)" width="1490" height="838"></rect><g filter="url(#nk-1294)"><path style="fill:var(--color-illustrationInterface010)" fill-rule="evenodd" clip-rule="evenodd" d="M402.605 59.0068C396.196 59.0068 391 64.2027 391 70.612V731.733C391 738.142 396.196 743.338 402.605 743.338H684.439L726.099 784.998L767.759 743.338H1055.39C1061.8 743.338 1067 738.142 1067 731.733V70.612C1067 64.2026 1061.8 59.0068 1055.39 59.0068H402.605Z"></path></g><path style="fill:var(--color-illustrationHighlight010)" d="M1024.11 116.767L1020.69 113.344L1007.11 126.917L993.54 113.344L990.116 116.767L1003.69 130.341L990.116 143.914L993.54 147.338L1007.11 133.764L1020.69 147.338L1024.11 143.914L1010.54 130.341L1024.11 116.767Z"></path><path style="fill:var(--color-illustrationInterface020)" d="M434.908 343.142C434.908 338.875 438.367 335.416 442.634 335.416H1009.76C1014.03 335.416 1017.48 338.875 1017.48 343.142C1017.48 347.409 1014.03 350.868 1009.76 350.868H442.634C438.367 350.868 434.908 347.409 434.908 343.142Z"></path><path style="fill:var(--color-illustrationInterface020)" d="M434.908 301.079C434.908 296.338 438.751 292.494 443.492 292.494H1008.9C1013.64 292.494 1017.48 296.338 1017.48 301.079C1017.48 305.82 1013.64 309.663 1008.9 309.663H443.492C438.751 309.663 434.908 305.82 434.908 301.079Z"></path><path style="fill:var(--color-illustrationInterface020)" d="M434.909 259.014C434.909 254.747 438.368 251.288 442.635 251.288H721.317C725.584 251.288 729.043 254.747 729.043 259.014C729.043 263.281 725.584 266.74 721.317 266.74H442.635C438.368 266.74 434.909 263.281 434.909 259.014Z"></path><path style="fill:var(--color-illustrationInterface020)" d="M557.944 385.165C557.944 380.764 561.512 377.196 565.913 377.196H591.566C595.967 377.196 599.535 380.764 599.535 385.165C599.535 389.566 595.967 393.134 591.566 393.134H565.913C561.512 393.134 557.944 389.566 557.944 385.165Z"></path><path style="fill:var(--color-illustrationInterface020)" d="M434.905 385.165C434.905 380.764 438.472 377.196 442.874 377.196H525.713C530.114 377.196 533.682 380.764 533.682 385.165C533.682 389.566 530.114 393.134 525.713 393.134H442.874C438.472 393.134 434.905 389.566 434.905 385.165Z"></path><path style="fill:var(--color-illustrationInterface020)" d="M434.908 603.115C434.908 598.848 438.367 595.389 442.634 595.389H1009.76C1014.03 595.389 1017.48 598.848 1017.48 603.115C1017.48 607.382 1014.03 610.841 1009.76 610.841H442.634C438.367 610.841 434.908 607.382 434.908 603.115Z"></path><path style="fill:var(--color-illustrationInterface020)" d="M434.908 561.051C434.908 556.31 438.751 552.467 443.492 552.467H1008.9C1013.64 552.467 1017.48 556.31 1017.48 561.051C1017.48 565.792 1013.64 569.636 1008.9 569.636H443.492C438.751 569.636 434.908 565.792 434.908 561.051Z"></path><path style="fill:var(--color-illustrationInterface020)" d="M434.909 518.987C434.909 514.72 438.368 511.261 442.635 511.261H959.346C963.612 511.261 967.072 514.72 967.072 518.987C967.072 523.254 963.612 526.713 959.345 526.713H442.635C438.368 526.713 434.909 523.254 434.909 518.987Z"></path><path style="fill:var(--color-illustrationInterface020)" d="M434.905 645.138C434.905 640.737 438.472 637.169 442.874 637.169H656.629C661.03 637.169 664.597 640.737 664.597 645.138C664.597 649.539 661.03 653.107 656.629 653.107H442.874C438.472 653.107 434.905 649.539 434.905 645.138Z"></path><path style="fill:var(--color-illustrationInterface020)" d="M623.078 385.691C623.078 381.424 626.537 377.965 630.804 377.965H909.486C913.753 377.965 917.212 381.424 917.212 385.691C917.212 389.958 913.753 393.417 909.486 393.417H630.804C626.537 393.417 623.078 389.958 623.078 385.691Z"></path><path style="fill:var(--color-illustrationInterface020)" d="M434.908 473.838C434.908 469.571 438.367 466.112 442.634 466.112H1009.76C1014.03 466.112 1017.48 469.571 1017.48 473.838C1017.48 478.105 1014.03 481.564 1009.76 481.564H442.634C438.367 481.564 434.908 478.105 434.908 473.838Z"></path><path style="fill:var(--color-illustrationInterface020)" d="M434.908 431.775C434.908 427.034 438.751 423.19 443.492 423.19H1008.9C1013.64 423.19 1017.48 427.034 1017.48 431.775C1017.48 436.516 1013.64 440.359 1008.9 440.359H443.492C438.751 440.359 434.908 436.516 434.908 431.775Z"></path><path style="fill:var(--color-illustrationHighlight010)" fill-rule="evenodd" clip-rule="evenodd" d="M1017.48 197.252H434.905V195.563H1017.48V197.252Z"></path><path style="fill:var(--color-illustrationHighlight010)" d="M458.351 112.093V118.099H450.32V142.865H442.936V118.099H434.905V112.093H458.351Z"></path><path style="fill:var(--color-illustrationHighlight010)" d="M465.77 115.863C464.475 115.863 463.41 115.483 462.575 114.723C461.769 113.934 461.366 112.97 461.366 111.83C461.366 110.662 461.769 109.697 462.575 108.937C463.41 108.148 464.475 107.754 465.77 107.754C467.037 107.754 468.073 108.148 468.879 108.937C469.714 109.697 470.131 110.662 470.131 111.83C470.131 112.97 469.714 113.934 468.879 114.723C468.073 115.483 467.037 115.863 465.77 115.863ZM469.44 118.405V142.865H462.057V118.405H469.44Z"></path><path style="fill:var(--color-illustrationHighlight010)" d="M488.22 136.509V142.865H484.463C481.786 142.865 479.699 142.207 478.202 140.892C476.705 139.548 475.957 137.371 475.957 134.361V124.63H473.021V118.405H475.957V112.444H483.341V118.405H488.177V124.63H483.341V134.449C483.341 135.179 483.513 135.705 483.859 136.027C484.204 136.348 484.78 136.509 485.586 136.509H488.22Z"></path><path style="fill:var(--color-illustrationHighlight010)" d="M499.716 110.428V142.865H492.333V110.428H499.716Z"></path><path style="fill:var(--color-illustrationHighlight010)" d="M527.78 130.241C527.78 130.942 527.736 131.672 527.65 132.432H510.94C511.055 133.952 511.53 135.121 512.365 135.939C513.228 136.728 514.279 137.122 515.517 137.122C517.359 137.122 518.64 136.333 519.36 134.755H527.218C526.815 136.363 526.081 137.809 525.016 139.095C523.98 140.381 522.67 141.389 521.087 142.119C519.504 142.85 517.733 143.215 515.776 143.215C513.415 143.215 511.314 142.704 509.472 141.681C507.629 140.658 506.19 139.197 505.154 137.298C504.117 135.398 503.599 133.177 503.599 130.635C503.599 128.093 504.103 125.872 505.11 123.972C506.147 122.073 507.586 120.612 509.428 119.589C511.271 118.566 513.387 118.055 515.776 118.055C518.107 118.055 520.18 118.552 521.994 119.545C523.807 120.539 525.218 121.956 526.225 123.797C527.261 125.638 527.78 127.786 527.78 130.241ZM520.223 128.268C520.223 126.982 519.791 125.959 518.928 125.2C518.064 124.44 516.985 124.06 515.689 124.06C514.452 124.06 513.401 124.425 512.537 125.156C511.703 125.886 511.184 126.924 510.983 128.268H520.223Z"></path></g><defs><filter id="nk-1294" x="356.185" y="47.4017" width="745.631" height="795.622" filterUnits="userSpaceOnUse" color-interpolation-filters="sRGB"><feFlood flood-opacity="0" result="BackgroundImageFix"></feFlood><feColorMatrix in="SourceAlpha" type="matrix" values="0 0 0 0 0 0 0 0 0 0 0 0 0 0 0 0 0 0 127 0" result="hardAlpha"></feColorMatrix><feOffset dy="23.2103"></feOffset><feGaussianBlur stdDeviation="17.4077"></feGaussianBlur><feColorMatrix type="matrix" values="0 0 0 0 0.0392157 0 0 0 0 0.0392157 0 0 0 0 0.0392157 0 0 0 0.08 0"></feColorMatrix><feBlend mode="normal" in2="BackgroundImageFix" result="effect1_dropShadow_1862_58986"></feBlend><feBlend mode="normal" in="SourceGraphic" in2="effect1_dropShadow_1862_58986" result="shape"></feBlend></filter><clipPath id="nk-1293"><rect style="fill:var(--color-white)" width="1490" height="838"></rect></clipPath></defs></svg>