<svg id="nksvg" style="width: 100%; height: 100%" width="1490" height="838" viewBox="0 0 1490 838" fill="none" xmlns="http://www.w3.org/2000/svg" class="css-0">
  <path style="fill: var(--color-illustrationBackground010)" d="M0 0H1490V838H0V0Z"></path>
  <path style="fill: var(--color-interfaceBackground)" d="M569.724 110.076C569.724 99.5913 572.495 91.0918 575.914 91.0918H913.638C917.056 91.0918 919.827 99.5913 919.827 110.076V730.622C919.827 741.107 917.056 749.606 913.638 749.606H575.914C572.495 749.606 569.724 741.107 569.724 730.622V110.076Z"></path>
  <path style="fill: var(--color-illustrationPalette040)" d="M569.802 98.6024C569.802 93.7414 571.086 89.8008 572.671 89.8008H917.037C918.622 89.8008 919.907 93.7414 919.907 98.6024V152.512H569.802V98.6024Z"></path>
  <path style="fill: var(--color-white)" d="M587.189 120.607C587.189 118.176 588.618 116.206 590.381 116.206H639.052C640.815 116.206 642.243 118.176 642.243 120.607C642.243 123.037 640.815 125.008 639.052 125.008H590.381C588.618 125.008 587.189 123.037 587.189 120.607Z"></path>
  <path style="fill: var(--color-white)" d="M674.159 120.607C674.159 118.176 675.588 116.206 677.35 116.206H726.022C727.784 116.206 729.213 118.176 729.213 120.607C729.213 123.037 727.784 125.008 726.022 125.008H677.35C675.588 125.008 674.159 123.037 674.159 120.607Z"></path>
  <path style="fill: var(--color-white)" d="M761.128 120.607C761.128 118.176 762.557 116.206 764.32 116.206H812.991C814.754 116.206 816.183 118.176 816.183 120.607C816.183 123.037 814.754 125.008 812.991 125.008H764.32C762.557 125.008 761.128 123.037 761.128 120.607Z"></path>
  <path style="fill: var(--color-white)" d="M848.095 120.607C848.095 118.176 849.524 116.206 851.287 116.206H899.958C901.72 116.206 903.149 118.176 903.149 120.607C903.149 123.037 901.72 125.008 899.958 125.008H851.287C849.524 125.008 848.095 123.037 848.095 120.607Z"></path>
  <path style="fill: var(--color-illustrationInterface020)" d="M592.099 186.585H899.055V289.823H592.099V186.585Z"></path>
  <path style="fill: var(--color-illustrationInterface020)" d="M592.097 573.729H674.521V657.609H592.097V573.729Z"></path>
  <path style="fill: var(--color-illustrationInterface020)" d="M704.837 573.729H787.26V657.609H704.837V573.729Z"></path>
  <path style="fill: var(--color-illustrationInterface020)" d="M816.808 573.729H899.232V657.609H816.808V573.729Z"></path>
  <path style="fill: var(--color-illustrationInterface020)" d="M592.097 319.507H899.053V331.121H592.097V319.507Z"></path>
  <path style="fill: var(--color-illustrationInterface020)" d="M592.097 346.606H899.053V358.221H592.097V346.606Z"></path>
  <path style="fill: var(--color-illustrationInterface020)" d="M592.097 480.814H899.053V492.429H592.097V480.814Z"></path>
  <path style="fill: var(--color-illustrationInterface020)" d="M592.097 430.599H899.053V442.213H592.097V430.599Z"></path>
  <path style="fill: var(--color-illustrationInterface020)" d="M592.097 373.703H899.053V385.317H592.097V373.703Z"></path>
  <path style="fill: var(--color-illustrationInterface020)" d="M592.097 507.915H899.053V519.529H592.097V507.915Z"></path>
  <path style="fill: var(--color-illustrationInterface020)" d="M592.097 673.095H899.053V684.709H592.097V673.095Z"></path>
  <path style="fill: var(--color-illustrationInterface020)" d="M592.097 400.805H899.053V412.419H592.097V400.805Z"></path>
  <path style="fill: var(--color-illustrationInterface020)" d="M592.097 535.015H899.053V546.629H592.097V535.015Z"></path>
  <path style="fill: var(--color-illustrationInterface020)" d="M592.097 700.196H899.053V711.811H592.097V700.196Z"></path>
  <path style="fill: var(--color-illustrationInterface030)" fill-rule="evenodd" clip-rule="evenodd" d="M587.874 73H901.745C921.006 73 936.619 88.7036 936.619 108.075V729.56C936.619 748.931 921.006 764.635 901.745 764.635H587.874C568.614 764.635 553 748.931 553 729.56V108.075C553 88.7037 568.614 73 587.874 73ZM587.874 90.5375C578.244 90.5375 570.437 98.3893 570.437 108.075V729.56C570.437 739.246 578.244 747.098 587.874 747.098H901.745C911.375 747.098 919.182 739.246 919.182 729.56V108.075C919.182 98.3893 911.375 90.5375 901.745 90.5375H587.874Z"></path>
  <path style="fill: var(--color-white)" fill-rule="evenodd" clip-rule="evenodd" d="M851.871 577.125L843.947 565.051C838.536 556.807 827.011 553.799 818.195 558.318L820.249 557.265C818.061 558.387 817.012 561.183 817.913 563.507L828.882 591.808C830.621 596.294 835.062 602.639 838.742 605.827C838.742 605.827 860.809 624.04 860.809 630.869V639.514H896.56H906.336H914.435H923.373V630.869C923.373 624.04 936.859 602.532 936.859 602.532C939.341 598.351 941.41 590.986 941.41 586.096V550.135C941.248 542.173 934.462 535.721 926.087 535.721C921.898 535.721 918.505 538.947 918.505 542.93V545.81C918.505 537.849 911.718 531.396 903.344 531.396C899.154 531.396 895.761 534.622 895.761 538.605V541.486C895.761 533.524 888.974 527.071 880.6 527.071C876.411 527.071 873.017 530.298 873.017 534.281V537.161C873.017 535.881 872.88 534.864 872.615 534.058L870.302 496.921C869.989 491.899 865.745 487.997 860.809 487.997C855.838 487.997 851.871 491.987 851.871 496.908V532.561V577.125Z"></path>
  <path style="fill: var(--color-illustrationPalette040)" fill-rule="evenodd" clip-rule="evenodd" d="M820.423 557.182C827.506 554.589 835.789 556.385 841.216 561.512C842.264 562.503 843.206 563.617 844.012 564.849L851.921 576.936V496.629C851.921 491.702 855.881 487.707 860.843 487.707C865.77 487.707 870.006 491.614 870.318 496.641L872.627 533.821C872.651 533.893 872.674 533.968 872.695 534.044C872.915 534.813 873.028 535.761 873.028 536.927V534.044C873.028 533.961 873.03 533.878 873.033 533.796C873.034 533.759 873.036 533.723 873.038 533.686C873.233 529.865 876.541 526.826 880.597 526.826C881.39 526.826 882.169 526.884 882.929 526.996C884.721 527.261 886.409 527.825 887.935 528.633C891.739 530.648 894.537 534.18 895.428 538.373C895.626 539.305 895.73 540.269 895.73 541.257V538.373C895.73 534.386 899.117 531.156 903.299 531.156C903.635 531.156 903.968 531.166 904.299 531.187C906.588 531.329 908.738 531.957 910.637 532.963C914.441 534.977 917.238 538.51 918.13 542.703C918.328 543.635 918.432 544.599 918.432 545.586V542.703C918.432 538.715 921.819 535.485 926 535.485C926.336 535.485 926.67 535.496 927.001 535.516C934.893 536.007 941.14 542.266 941.295 549.916V585.918C941.295 590.813 939.229 598.187 936.751 602.373C936.751 602.373 923.291 623.905 923.291 630.742V639.396H860.843V630.742C860.843 623.905 838.817 605.671 838.817 605.671C835.143 602.48 830.71 596.127 828.975 591.636L818.026 563.303C817.426 561.75 817.693 559.986 818.586 558.651C818.891 558.196 819.269 557.79 819.71 557.46C819.946 557.362 820.184 557.27 820.423 557.182ZM818.307 558.109C818.768 557.872 819.236 557.656 819.71 557.46C819.913 557.308 820.129 557.172 820.358 557.054L818.307 558.109ZM813.492 548.74C807.761 552.877 805.486 560.552 808.041 567.164L818.989 595.496C821.347 601.599 826.791 609.406 831.797 613.755L831.893 613.838L831.989 613.917L831.991 613.919L832.029 613.952L832.188 614.084C832.331 614.204 832.549 614.388 832.83 614.627C833.393 615.105 834.208 615.804 835.189 616.667C837.162 618.403 839.758 620.755 842.325 623.279C844.94 625.849 847.3 628.379 848.932 630.49C849.494 631.216 849.883 631.783 850.137 632.192V650.104H933.996V630.924C933.997 630.969 933.999 630.992 934.004 630.993C934.042 630.999 934.239 629.993 935.252 627.601C936.326 625.063 937.832 622.063 939.443 619.078C941.034 616.127 942.639 613.355 943.853 611.311C944.458 610.293 944.959 609.465 945.307 608.896C945.48 608.612 945.615 608.394 945.704 608.25L945.803 608.09L945.829 608.049L945.897 607.939L945.963 607.828C947.833 604.67 949.283 600.826 950.268 597.274C951.251 593.728 952 589.65 952 585.918V549.808L951.998 549.699C951.711 535.556 939.837 524.778 926 524.778C923.733 524.778 921.519 525.198 919.458 525.977C914.966 522.489 909.296 520.448 903.299 520.448C901.032 520.448 898.817 520.869 896.757 521.647C892.681 518.483 887.636 516.51 882.257 516.171L881.003 495.977C880.338 485.267 871.386 477 860.843 477C849.944 477 841.216 485.813 841.216 496.629V548.605C833.334 544.68 823.85 544.121 815.505 547.612M850.5 632.857C850.498 632.857 850.479 632.818 850.45 632.744C850.488 632.821 850.503 632.858 850.5 632.857ZM813.492 548.74L813.413 548.586L815.463 547.532"></path>
</svg>
