<svg id="components-banner-banner-options-actionable-illustration" style="width: 100%; height: 100%" width="1491" height="839" viewBox="0 0 1491 839" fill="none" xmlns="http://www.w3.org/2000/svg" class="css-0"><g clip-path="url(#clip0)"><path style="fill:var(--color-illustrationBackground010)" d="M0 4.00001C0 1.79087 1.79086 0 4 0H1486.72C1488.93 0 1490.72 1.79086 1490.72 4V834.004C1490.72 836.213 1488.93 838.004 1486.72 838.004H4.00002C1.79088 838.004 0 836.213 0 834.004V4.00001Z"></path><g filter="url(#nk-234)"><path style="fill:var(--color-illustrationInterface010)" d="M0 279H1162C1175.25 279 1186 289.745 1186 303V535C1186 548.255 1175.25 559 1162 559H0V279Z"></path><path style="fill:var(--color-illustrationInterface020)" d="M-110 367C-117.732 367 -124 373.268 -124 381C-124 388.732 -117.732 395 -110 395H414C421.732 395 428 388.732 428 381C428 373.268 421.732 367 414 367H-110Z"></path><path style="fill:var(--color-illustrationInterface020)" d="M-253 443C-260.732 443 -267 449.268 -267 457C-267 464.732 -260.732 471 -253 471H622C629.732 471 636 464.732 636 457C636 449.268 629.732 443 622 443H-253Z"></path><rect style="fill:var(--color-illustrationHighlight010)" x="780" y="361" width="310" height="115" rx="57.5"></rect><path style="fill:var(--color-illustrationInterface010)" d="M875.431 416.72C877.383 417.136 878.951 418.112 880.135 419.648C881.319 421.152 881.911 422.88 881.911 424.832C881.911 427.648 880.919 429.888 878.935 431.552C876.983 433.184 874.247 434 870.727 434H855.031V400.304H870.199C873.623 400.304 876.295 401.088 878.215 402.656C880.167 404.224 881.143 406.352 881.143 409.04C881.143 411.024 880.615 412.672 879.559 413.984C878.535 415.296 877.159 416.208 875.431 416.72ZM863.239 413.936H868.615C869.959 413.936 870.983 413.648 871.687 413.072C872.423 412.464 872.791 411.584 872.791 410.432C872.791 409.28 872.423 408.4 871.687 407.792C870.983 407.184 869.959 406.88 868.615 406.88H863.239V413.936ZM869.287 427.376C870.663 427.376 871.719 427.072 872.455 426.464C873.223 425.824 873.607 424.912 873.607 423.728C873.607 422.544 873.207 421.616 872.407 420.944C871.639 420.272 870.567 419.936 869.191 419.936H863.239V427.376H869.287ZM913.119 407.216V434H904.911V430.352C904.079 431.536 902.943 432.496 901.503 433.232C900.095 433.936 898.527 434.288 896.799 434.288C894.751 434.288 892.943 433.84 891.375 432.944C889.807 432.016 888.591 430.688 887.727 428.96C886.863 427.232 886.431 425.2 886.431 422.864V407.216H894.591V421.76C894.591 423.552 895.055 424.944 895.983 425.936C896.911 426.928 898.159 427.424 899.727 427.424C901.327 427.424 902.591 426.928 903.519 425.936C904.447 424.944 904.911 423.552 904.911 421.76V407.216H913.119ZM933.943 427.04V434H929.767C926.791 434 924.471 433.28 922.807 431.84C921.143 430.368 920.311 427.984 920.311 424.688V414.032H917.047V407.216H920.311V400.688H928.519V407.216H933.895V414.032H928.519V424.784C928.519 425.584 928.711 426.16 929.095 426.512C929.479 426.864 930.119 427.04 931.015 427.04H933.943ZM953.443 427.04V434H949.267C946.291 434 943.971 433.28 942.307 431.84C940.643 430.368 939.811 427.984 939.811 424.688V414.032H936.547V407.216H939.811V400.688H948.019V407.216H953.395V414.032H948.019V424.784C948.019 425.584 948.211 426.16 948.595 426.512C948.979 426.864 949.619 427.04 950.515 427.04H953.443ZM970.207 434.384C967.583 434.384 965.215 433.824 963.103 432.704C961.023 431.584 959.375 429.984 958.159 427.904C956.975 425.824 956.383 423.392 956.383 420.608C956.383 417.856 956.991 415.44 958.207 413.36C959.423 411.248 961.087 409.632 963.199 408.512C965.311 407.392 967.679 406.832 970.303 406.832C972.927 406.832 975.295 407.392 977.407 408.512C979.519 409.632 981.183 411.248 982.399 413.36C983.615 415.44 984.223 417.856 984.223 420.608C984.223 423.36 983.599 425.792 982.351 427.904C981.135 429.984 979.455 431.584 977.311 432.704C975.199 433.824 972.831 434.384 970.207 434.384ZM970.207 427.28C971.775 427.28 973.103 426.704 974.191 425.552C975.311 424.4 975.871 422.752 975.871 420.608C975.871 418.464 975.327 416.816 974.239 415.664C973.183 414.512 971.871 413.936 970.303 413.936C968.703 413.936 967.375 414.512 966.319 415.664C965.263 416.784 964.735 418.432 964.735 420.608C964.735 422.752 965.247 424.4 966.271 425.552C967.327 426.704 968.639 427.28 970.207 427.28ZM1004.9 406.928C1008.03 406.928 1010.53 407.952 1012.39 410C1014.27 412.016 1015.22 414.8 1015.22 418.352V434H1007.06V419.456C1007.06 417.664 1006.59 416.272 1005.67 415.28C1004.74 414.288 1003.49 413.792 1001.92 413.792C1000.35 413.792 999.106 414.288 998.178 415.28C997.25 416.272 996.786 417.664 996.786 419.456V434H988.578V407.216H996.786V410.768C997.618 409.584 998.738 408.656 1000.15 407.984C1001.55 407.28 1003.14 406.928 1004.9 406.928Z"></path></g></g><defs><filter id="nk-234" x="-283" y="271" width="1485" height="312" filterUnits="userSpaceOnUse" color-interpolation-filters="sRGB"><feFlood flood-opacity="0" result="BackgroundImageFix"></feFlood><feColorMatrix in="SourceAlpha" type="matrix" values="0 0 0 0 0 0 0 0 0 0 0 0 0 0 0 0 0 0 127 0"></feColorMatrix><feOffset dy="8"></feOffset><feGaussianBlur stdDeviation="8"></feGaussianBlur><feColorMatrix type="matrix" values="0 0 0 0 0.0392157 0 0 0 0 0.0392157 0 0 0 0 0.0392157 0 0 0 0.08 0"></feColorMatrix><feBlend mode="normal" in2="BackgroundImageFix" result="effect1_dropShadow"></feBlend><feBlend mode="normal" in="SourceGraphic" in2="effect1_dropShadow" result="shape"></feBlend></filter><clipPath id="nk-233"><rect style="fill:var(--color-white)" width="1490.72" height="838.004"></rect></clipPath></defs></svg>