<svg
  id="nksvg"
  style="width: 100%; height: 100%"
  width="1491"
  height="839"
  viewBox="0 0 1491 839"
  fill="none"
  xmlns="http://www.w3.org/2000/svg"
  class="css-0"
>
  <path
    style="fill: var(--color-illustrationBackground010)"
    d="M0 4.00001C0 1.79087 1.79086 0 4 0H1486.72C1488.93 0 1490.72 1.79086 1490.72 4V834.004C1490.72 836.213 1488.93 838.004 1486.72 838.004H4.00002C1.79088 838.004 0 836.213 0 834.004V4.00001Z"
  ></path>
  <g filter="url(#nk-68)">
    <rect
      style="fill: var(--color-interfaceInformative010)"
      x="188.094"
      y="137"
      width="1113.81"
      height="141.887"
      rx="10.6415"
    ></rect>
  </g>
  <rect
    style="fill: var(--color-whiteTint090)"
    x="234.207"
    y="172.906"
    width="340.528"
    height="18"
    rx="9"
  ></rect>
  <rect
    style="fill: var(--color-whiteTint070)"
    x="234.207"
    y="220.358"
    width="683.717"
    height="18"
    rx="9"
  ></rect>
  <rect
    style="fill: var(--color-whiteTint070)"
    x="1035.87"
    y="176.906"
    width="214.604"
    height="62.0755"
    rx="31.0377"
  ></rect>
  <path
    style="fill: var(--color-teal060)"
    d="M1108.88 208.388C1110 208.596 1110.91 209.154 1111.63 210.062C1112.35 210.97 1112.71 212.011 1112.71 213.184C1112.71 214.243 1112.45 215.18 1111.92 215.993C1111.41 216.788 1110.66 217.412 1109.68 217.866C1108.69 218.32 1107.53 218.547 1106.18 218.547H1097.64V198.74H1105.82C1107.16 198.74 1108.31 198.957 1109.28 199.392C1110.26 199.828 1111 200.433 1111.49 201.209C1112 201.984 1112.26 202.864 1112.26 203.848C1112.26 205.002 1111.95 205.966 1111.32 206.742C1110.72 207.518 1109.9 208.066 1108.88 208.388ZM1101.62 206.912H1105.25C1106.19 206.912 1106.92 206.704 1107.43 206.288C1107.94 205.853 1108.2 205.238 1108.2 204.444C1108.2 203.649 1107.94 203.034 1107.43 202.599C1106.92 202.164 1106.19 201.946 1105.25 201.946H1101.62V206.912ZM1105.62 215.312C1106.58 215.312 1107.33 215.085 1107.86 214.631C1108.41 214.177 1108.68 213.534 1108.68 212.701C1108.68 211.85 1108.4 211.188 1107.83 210.715C1107.26 210.223 1106.5 209.977 1105.53 209.977H1101.62V215.312H1105.62ZM1130.72 202.826V218.547H1126.72V216.561C1126.21 217.242 1125.54 217.781 1124.7 218.178C1123.89 218.557 1123 218.746 1122.04 218.746C1120.81 218.746 1119.72 218.49 1118.77 217.98C1117.83 217.45 1117.08 216.684 1116.53 215.681C1116 214.659 1115.74 213.449 1115.74 212.049V202.826H1119.71V211.481C1119.71 212.73 1120.02 213.695 1120.65 214.376C1121.27 215.038 1122.12 215.369 1123.2 215.369C1124.3 215.369 1125.16 215.038 1125.78 214.376C1126.41 213.695 1126.72 212.73 1126.72 211.481V202.826H1130.72ZM1139.26 206.089V213.695C1139.26 214.224 1139.39 214.612 1139.63 214.858C1139.9 215.085 1140.33 215.199 1140.94 215.199H1142.78V218.547H1140.29C1136.94 218.547 1135.26 216.92 1135.26 213.666V206.089H1133.39V202.826H1135.26V198.938H1139.26V202.826H1142.78V206.089H1139.26ZM1150.27 206.089V213.695C1150.27 214.224 1150.39 214.612 1150.64 214.858C1150.9 215.085 1151.34 215.199 1151.94 215.199H1153.79V218.547H1151.29C1147.94 218.547 1146.27 216.92 1146.27 213.666V206.089H1144.39V202.826H1146.27V198.938H1150.27V202.826H1153.79V206.089H1150.27ZM1163.62 218.803C1162.11 218.803 1160.75 218.471 1159.54 217.809C1158.33 217.128 1157.37 216.173 1156.67 214.943C1155.99 213.714 1155.65 212.295 1155.65 210.687C1155.65 209.079 1156 207.66 1156.7 206.43C1157.42 205.2 1158.39 204.254 1159.62 203.592C1160.85 202.911 1162.22 202.571 1163.74 202.571C1165.25 202.571 1166.62 202.911 1167.85 203.592C1169.08 204.254 1170.05 205.2 1170.75 206.43C1171.46 207.66 1171.82 209.079 1171.82 210.687C1171.82 212.295 1171.46 213.714 1170.72 214.943C1170 216.173 1169.02 217.128 1167.77 217.809C1166.54 218.471 1165.16 218.803 1163.62 218.803ZM1163.62 215.34C1164.34 215.34 1165.01 215.17 1165.64 214.83C1166.28 214.47 1166.79 213.941 1167.17 213.241C1167.55 212.541 1167.74 211.689 1167.74 210.687C1167.74 209.192 1167.34 208.047 1166.55 207.253C1165.77 206.439 1164.82 206.033 1163.68 206.033C1162.54 206.033 1161.59 206.439 1160.81 207.253C1160.06 208.047 1159.68 209.192 1159.68 210.687C1159.68 212.181 1160.05 213.335 1160.79 214.149C1161.54 214.943 1162.49 215.34 1163.62 215.34ZM1183.45 202.599C1185.32 202.599 1186.84 203.195 1187.99 204.387C1189.14 205.56 1189.72 207.206 1189.72 209.324V218.547H1185.75V209.864C1185.75 208.615 1185.44 207.66 1184.81 206.998C1184.19 206.316 1183.34 205.976 1182.26 205.976C1181.16 205.976 1180.29 206.316 1179.65 206.998C1179.02 207.66 1178.71 208.615 1178.71 209.864V218.547H1174.74V202.826H1178.71V204.784C1179.24 204.103 1179.91 203.573 1180.73 203.195C1181.56 202.798 1182.47 202.599 1183.45 202.599Z"
  ></path>
  <g filter="url(#nk-69)">
    <rect
      style="fill: var(--color-interfaceNotice010)"
      x="188.094"
      y="348.057"
      width="1113.81"
      height="141.887"
      rx="10.6415"
    ></rect>
  </g>
  <rect
    style="fill: var(--color-whiteTint090)"
    x="234.207"
    y="383.962"
    width="340.528"
    height="18"
    rx="9"
  ></rect>
  <rect
    style="fill: var(--color-whiteTint070)"
    x="234.207"
    y="431.415"
    width="683.717"
    height="18"
    rx="9"
  ></rect>
  <rect
    style="fill: var(--color-whiteTint070)"
    x="1035.87"
    y="387.962"
    width="214.604"
    height="62.0755"
    rx="31.0377"
  ></rect>
  <path
    style="fill: var(--color-inkNotice)"
    d="M1108.88 419.445C1110 419.653 1110.91 420.211 1111.63 421.119C1112.35 422.027 1112.71 423.068 1112.71 424.24C1112.71 425.3 1112.45 426.236 1111.92 427.05C1111.41 427.844 1110.66 428.469 1109.68 428.923C1108.69 429.377 1107.53 429.604 1106.18 429.604H1097.64V409.796H1105.82C1107.16 409.796 1108.31 410.014 1109.28 410.449C1110.26 410.884 1111 411.49 1111.49 412.265C1112 413.041 1112.26 413.921 1112.26 414.904C1112.26 416.058 1111.95 417.023 1111.32 417.799C1110.72 418.574 1109.9 419.123 1108.88 419.445ZM1101.62 417.969H1105.25C1106.19 417.969 1106.92 417.761 1107.43 417.345C1107.94 416.91 1108.2 416.295 1108.2 415.5C1108.2 414.706 1107.94 414.091 1107.43 413.656C1106.92 413.221 1106.19 413.003 1105.25 413.003H1101.62V417.969ZM1105.62 426.369C1106.58 426.369 1107.33 426.142 1107.86 425.688C1108.41 425.234 1108.68 424.59 1108.68 423.758C1108.68 422.907 1108.4 422.245 1107.83 421.772C1107.26 421.28 1106.5 421.034 1105.53 421.034H1101.62V426.369H1105.62ZM1130.72 413.883V429.604H1126.72V427.617C1126.21 428.298 1125.54 428.838 1124.7 429.235C1123.89 429.613 1123 429.802 1122.04 429.802C1120.81 429.802 1119.72 429.547 1118.77 429.036C1117.83 428.507 1117.08 427.74 1116.53 426.738C1116 425.716 1115.74 424.505 1115.74 423.105V413.883H1119.71V422.538C1119.71 423.786 1120.02 424.751 1120.65 425.432C1121.27 426.094 1122.12 426.425 1123.2 426.425C1124.3 426.425 1125.16 426.094 1125.78 425.432C1126.41 424.751 1126.72 423.786 1126.72 422.538V413.883H1130.72ZM1139.26 417.146V424.751C1139.26 425.281 1139.39 425.669 1139.63 425.915C1139.9 426.142 1140.33 426.255 1140.94 426.255H1142.78V429.604H1140.29C1136.94 429.604 1135.26 427.977 1135.26 424.723V417.146H1133.39V413.883H1135.26V409.995H1139.26V413.883H1142.78V417.146H1139.26ZM1150.27 417.146V424.751C1150.27 425.281 1150.39 425.669 1150.64 425.915C1150.9 426.142 1151.34 426.255 1151.94 426.255H1153.79V429.604H1151.29C1147.94 429.604 1146.27 427.977 1146.27 424.723V417.146H1144.39V413.883H1146.27V409.995H1150.27V413.883H1153.79V417.146H1150.27ZM1163.62 429.859C1162.11 429.859 1160.75 429.528 1159.54 428.866C1158.33 428.185 1157.37 427.23 1156.67 426C1155.99 424.77 1155.65 423.351 1155.65 421.743C1155.65 420.135 1156 418.716 1156.7 417.487C1157.42 416.257 1158.39 415.311 1159.62 414.649C1160.85 413.968 1162.22 413.627 1163.74 413.627C1165.25 413.627 1166.62 413.968 1167.85 414.649C1169.08 415.311 1170.05 416.257 1170.75 417.487C1171.46 418.716 1171.82 420.135 1171.82 421.743C1171.82 423.351 1171.46 424.77 1170.72 426C1170 427.23 1169.02 428.185 1167.77 428.866C1166.54 429.528 1165.16 429.859 1163.62 429.859ZM1163.62 426.397C1164.34 426.397 1165.01 426.227 1165.64 425.886C1166.28 425.527 1166.79 424.997 1167.17 424.297C1167.55 423.597 1167.74 422.746 1167.74 421.743C1167.74 420.249 1167.34 419.104 1166.55 418.31C1165.77 417.496 1164.82 417.089 1163.68 417.089C1162.54 417.089 1161.59 417.496 1160.81 418.31C1160.06 419.104 1159.68 420.249 1159.68 421.743C1159.68 423.238 1160.05 424.392 1160.79 425.205C1161.54 426 1162.49 426.397 1163.62 426.397ZM1183.45 413.656C1185.32 413.656 1186.84 414.252 1187.99 415.443C1189.14 416.616 1189.72 418.262 1189.72 420.381V429.604H1185.75V420.92C1185.75 419.672 1185.44 418.716 1184.81 418.054C1184.19 417.373 1183.34 417.033 1182.26 417.033C1181.16 417.033 1180.29 417.373 1179.65 418.054C1179.02 418.716 1178.71 419.672 1178.71 420.92V429.604H1174.74V413.883H1178.71V415.841C1179.24 415.16 1179.91 414.63 1180.73 414.252C1181.56 413.854 1182.47 413.656 1183.45 413.656Z"
  ></path>
  <g filter="url(#nk-70)">
    <rect
      style="fill: var(--color-interfaceNegative010)"
      x="188.094"
      y="559.113"
      width="1113.81"
      height="141.887"
      rx="10.6415"
    ></rect>
  </g>
  <rect
    style="fill: var(--color-whiteTint090)"
    x="234.207"
    y="595.019"
    width="340.528"
    height="18"
    rx="9"
  ></rect>
  <rect
    style="fill: var(--color-whiteTint070)"
    x="234.207"
    y="642.472"
    width="683.717"
    height="18"
    rx="9"
  ></rect>
  <rect
    style="fill: var(--color-whiteTint070)"
    x="1035.87"
    y="599.019"
    width="214.604"
    height="62.0755"
    rx="31.0377"
  ></rect>
  <path
    style="fill: var(--color-inkNegative)"
    d="M1108.88 630.501C1110 630.709 1110.91 631.267 1111.63 632.175C1112.35 633.083 1112.71 634.124 1112.71 635.297C1112.71 636.356 1112.45 637.293 1111.92 638.106C1111.41 638.901 1110.66 639.525 1109.68 639.979C1108.69 640.433 1107.53 640.66 1106.18 640.66H1097.64V620.853H1105.82C1107.16 620.853 1108.31 621.07 1109.28 621.505C1110.26 621.941 1111 622.546 1111.49 623.322C1112 624.097 1112.26 624.977 1112.26 625.961C1112.26 627.115 1111.95 628.08 1111.32 628.855C1110.72 629.631 1109.9 630.179 1108.88 630.501ZM1101.62 629.025H1105.25C1106.19 629.025 1106.92 628.817 1107.43 628.401C1107.94 627.966 1108.2 627.351 1108.2 626.557C1108.2 625.762 1107.94 625.147 1107.43 624.712C1106.92 624.277 1106.19 624.059 1105.25 624.059H1101.62V629.025ZM1105.62 637.425C1106.58 637.425 1107.33 637.198 1107.86 636.744C1108.41 636.29 1108.68 635.647 1108.68 634.814C1108.68 633.963 1108.4 633.301 1107.83 632.828C1107.26 632.336 1106.5 632.09 1105.53 632.09H1101.62V637.425H1105.62ZM1130.72 624.939V640.66H1126.72V638.674C1126.21 639.355 1125.54 639.894 1124.7 640.291C1123.89 640.67 1123 640.859 1122.04 640.859C1120.81 640.859 1119.72 640.603 1118.77 640.093C1117.83 639.563 1117.08 638.797 1116.53 637.794C1116 636.772 1115.74 635.562 1115.74 634.162V624.939H1119.71V633.594C1119.71 634.843 1120.02 635.808 1120.65 636.489C1121.27 637.151 1122.12 637.482 1123.2 637.482C1124.3 637.482 1125.16 637.151 1125.78 636.489C1126.41 635.808 1126.72 634.843 1126.72 633.594V624.939H1130.72ZM1139.26 628.202V635.808C1139.26 636.337 1139.39 636.725 1139.63 636.971C1139.9 637.198 1140.33 637.312 1140.94 637.312H1142.78V640.66H1140.29C1136.94 640.66 1135.26 639.033 1135.26 635.779V628.202H1133.39V624.939H1135.26V621.051H1139.26V624.939H1142.78V628.202H1139.26ZM1150.27 628.202V635.808C1150.27 636.337 1150.39 636.725 1150.64 636.971C1150.9 637.198 1151.34 637.312 1151.94 637.312H1153.79V640.66H1151.29C1147.94 640.66 1146.27 639.033 1146.27 635.779V628.202H1144.39V624.939H1146.27V621.051H1150.27V624.939H1153.79V628.202H1150.27ZM1163.62 640.916C1162.11 640.916 1160.75 640.584 1159.54 639.922C1158.33 639.241 1157.37 638.286 1156.67 637.056C1155.99 635.827 1155.65 634.408 1155.65 632.8C1155.65 631.192 1156 629.773 1156.7 628.543C1157.42 627.313 1158.39 626.367 1159.62 625.705C1160.85 625.024 1162.22 624.684 1163.74 624.684C1165.25 624.684 1166.62 625.024 1167.85 625.705C1169.08 626.367 1170.05 627.313 1170.75 628.543C1171.46 629.773 1171.82 631.192 1171.82 632.8C1171.82 634.408 1171.46 635.827 1170.72 637.056C1170 638.286 1169.02 639.241 1167.77 639.922C1166.54 640.584 1165.16 640.916 1163.62 640.916ZM1163.62 637.454C1164.34 637.454 1165.01 637.283 1165.64 636.943C1166.28 636.583 1166.79 636.054 1167.17 635.354C1167.55 634.654 1167.74 633.802 1167.74 632.8C1167.74 631.305 1167.34 630.161 1166.55 629.366C1165.77 628.552 1164.82 628.146 1163.68 628.146C1162.54 628.146 1161.59 628.552 1160.81 629.366C1160.06 630.161 1159.68 631.305 1159.68 632.8C1159.68 634.294 1160.05 635.448 1160.79 636.262C1161.54 637.056 1162.49 637.454 1163.62 637.454ZM1183.45 624.712C1185.32 624.712 1186.84 625.308 1187.99 626.5C1189.14 627.673 1189.72 629.319 1189.72 631.438V640.66H1185.75V631.977C1185.75 630.728 1185.44 629.773 1184.81 629.111C1184.19 628.43 1183.34 628.089 1182.26 628.089C1181.16 628.089 1180.29 628.43 1179.65 629.111C1179.02 629.773 1178.71 630.728 1178.71 631.977V640.66H1174.74V624.939H1178.71V626.897C1179.24 626.216 1179.91 625.686 1180.73 625.308C1181.56 624.911 1182.47 624.712 1183.45 624.712Z"
  ></path>
  <defs>
    <filter
      id="nk-68"
      x="173.905"
      y="129.906"
      width="1142.19"
      height="170.264"
      filterUnits="userSpaceOnUse"
      color-interpolation-filters="sRGB"
    >
      <feFlood flood-opacity="0" result="BackgroundImageFix"></feFlood>
      <feColorMatrix
        in="SourceAlpha"
        type="matrix"
        values="0 0 0 0 0 0 0 0 0 0 0 0 0 0 0 0 0 0 127 0"
      ></feColorMatrix>
      <feOffset dy="7.09434"></feOffset>
      <feGaussianBlur stdDeviation="7.09434"></feGaussianBlur>
      <feColorMatrix
        type="matrix"
        values="0 0 0 0 0.0392157 0 0 0 0 0.0392157 0 0 0 0 0.0392157 0 0 0 0.08 0"
      ></feColorMatrix>
      <feBlend
        mode="normal"
        in2="BackgroundImageFix"
        result="effect1_dropShadow"
      ></feBlend>
      <feBlend
        mode="normal"
        in="SourceGraphic"
        in2="effect1_dropShadow"
        result="shape"
      ></feBlend>
    </filter>
    <filter
      id="nk-69"
      x="173.905"
      y="340.962"
      width="1142.19"
      height="170.264"
      filterUnits="userSpaceOnUse"
      color-interpolation-filters="sRGB"
    >
      <feFlood flood-opacity="0" result="BackgroundImageFix"></feFlood>
      <feColorMatrix
        in="SourceAlpha"
        type="matrix"
        values="0 0 0 0 0 0 0 0 0 0 0 0 0 0 0 0 0 0 127 0"
      ></feColorMatrix>
      <feOffset dy="7.09434"></feOffset>
      <feGaussianBlur stdDeviation="7.09434"></feGaussianBlur>
      <feColorMatrix
        type="matrix"
        values="0 0 0 0 0.0392157 0 0 0 0 0.0392157 0 0 0 0 0.0392157 0 0 0 0.08 0"
      ></feColorMatrix>
      <feBlend
        mode="normal"
        in2="BackgroundImageFix"
        result="effect1_dropShadow"
      ></feBlend>
      <feBlend
        mode="normal"
        in="SourceGraphic"
        in2="effect1_dropShadow"
        result="shape"
      ></feBlend>
    </filter>
    <filter
      id="nk-70"
      x="173.905"
      y="552.019"
      width="1142.19"
      height="170.264"
      filterUnits="userSpaceOnUse"
      color-interpolation-filters="sRGB"
    >
      <feFlood flood-opacity="0" result="BackgroundImageFix"></feFlood>
      <feColorMatrix
        in="SourceAlpha"
        type="matrix"
        values="0 0 0 0 0 0 0 0 0 0 0 0 0 0 0 0 0 0 127 0"
      ></feColorMatrix>
      <feOffset dy="7.09434"></feOffset>
      <feGaussianBlur stdDeviation="7.09434"></feGaussianBlur>
      <feColorMatrix
        type="matrix"
        values="0 0 0 0 0.0392157 0 0 0 0 0.0392157 0 0 0 0 0.0392157 0 0 0 0.08 0"
      ></feColorMatrix>
      <feBlend
        mode="normal"
        in2="BackgroundImageFix"
        result="effect1_dropShadow"
      ></feBlend>
      <feBlend
        mode="normal"
        in="SourceGraphic"
        in2="effect1_dropShadow"
        result="shape"
      ></feBlend>
    </filter>
  </defs>
</svg>
