<svg
  id="nksvg"
  style="width: 100%; height: 100%"
  width="1491"
  height="839"
  viewBox="0 0 1491 839"
  fill="none"
  xmlns="http://www.w3.org/2000/svg"
  class="css-0"
>
  <g clip-path="url(#clip0)">
    <path
      style="fill: var(--color-illustrationBackground010)"
      d="M0 4.00001C0 1.79087 1.79086 0 4 0H1486.72C1488.93 0 1490.72 1.79086 1490.72 4V834.004C1490.72 836.213 1488.93 838.004 1486.72 838.004H4.00002C1.79088 838.004 0 836.213 0 834.004V4.00001Z"
    ></path>
    <g filter="url(#nk-64)">
      <g clip-path="url(#clip1)">
        <path
          style="fill: var(--color-illustrationInterface010)"
          d="M0 279H1162C1175.25 279 1186 289.745 1186 303V535C1186 548.255 1175.25 559 1162 559H0V279Z"
        ></path>
        <rect
          style="fill: var(--color-illustrationInterface020)"
          x="580"
          y="354"
          width="310"
          height="130"
          rx="65"
        ></rect>
        <path
          style="fill: var(--color-illustrationInterface010)"
          d="M675.431 418.416C677.383 418.832 678.951 419.808 680.135 421.344C681.319 422.848 681.911 424.576 681.911 426.528C681.911 429.344 680.919 431.584 678.935 433.248C676.983 434.88 674.247 435.696 670.727 435.696H655.031V402H670.199C673.623 402 676.295 402.784 678.215 404.352C680.167 405.92 681.143 408.048 681.143 410.736C681.143 412.72 680.615 414.368 679.559 415.68C678.535 416.992 677.159 417.904 675.431 418.416ZM663.239 415.632H668.615C669.959 415.632 670.983 415.344 671.687 414.768C672.423 414.16 672.791 413.28 672.791 412.128C672.791 410.976 672.423 410.096 671.687 409.488C670.983 408.88 669.959 408.576 668.615 408.576H663.239V415.632ZM669.287 429.072C670.663 429.072 671.719 428.768 672.455 428.16C673.223 427.52 673.607 426.608 673.607 425.424C673.607 424.24 673.207 423.312 672.407 422.64C671.639 421.968 670.567 421.632 669.191 421.632H663.239V429.072H669.287Z"
        ></path>
        <path
          style="fill: var(--color-illustrationInterface010)"
          d="M713.12 408.912V435.696H704.912V432.048C704.08 433.232 702.944 434.192 701.504 434.928C700.096 435.632 698.528 435.984 696.8 435.984C694.752 435.984 692.944 435.536 691.376 434.64C689.808 433.712 688.592 432.384 687.728 430.656C686.864 428.928 686.432 426.896 686.432 424.56V408.912H694.592V423.456C694.592 425.248 695.056 426.64 695.984 427.632C696.912 428.624 698.16 429.12 699.728 429.12C701.328 429.12 702.592 428.624 703.52 427.632C704.448 426.64 704.912 425.248 704.912 423.456V408.912H713.12Z"
        ></path>
        <path
          style="fill: var(--color-illustrationInterface010)"
          d="M733.944 428.736V435.696H729.768C726.792 435.696 724.472 434.976 722.808 433.536C721.144 432.064 720.312 429.68 720.312 426.384V415.728H717.048V408.912H720.312V402.384H728.52V408.912H733.896V415.728H728.52V426.48C728.52 427.28 728.712 427.856 729.096 428.208C729.48 428.56 730.12 428.736 731.016 428.736H733.944Z"
        ></path>
        <path
          style="fill: var(--color-illustrationInterface010)"
          d="M753.444 428.736V435.696H749.268C746.292 435.696 743.972 434.976 742.308 433.536C740.644 432.064 739.812 429.68 739.812 426.384V415.728H736.548V408.912H739.812V402.384H748.02V408.912H753.396V415.728H748.02V426.48C748.02 427.28 748.212 427.856 748.596 428.208C748.98 428.56 749.62 428.736 750.516 428.736H753.444Z"
        ></path>
        <path
          style="fill: var(--color-illustrationInterface010)"
          d="M770.208 436.08C767.584 436.08 765.216 435.52 763.104 434.4C761.024 433.28 759.376 431.68 758.16 429.6C756.976 427.52 756.384 425.088 756.384 422.304C756.384 419.552 756.992 417.136 758.208 415.056C759.424 412.944 761.088 411.328 763.2 410.208C765.312 409.088 767.68 408.528 770.304 408.528C772.928 408.528 775.296 409.088 777.408 410.208C779.52 411.328 781.184 412.944 782.4 415.056C783.616 417.136 784.224 419.552 784.224 422.304C784.224 425.056 783.6 427.488 782.352 429.6C781.136 431.68 779.456 433.28 777.312 434.4C775.2 435.52 772.832 436.08 770.208 436.08ZM770.208 428.976C771.776 428.976 773.104 428.4 774.192 427.248C775.312 426.096 775.872 424.448 775.872 422.304C775.872 420.16 775.328 418.512 774.24 417.36C773.184 416.208 771.872 415.632 770.304 415.632C768.704 415.632 767.376 416.208 766.32 417.36C765.264 418.48 764.736 420.128 764.736 422.304C764.736 424.448 765.248 426.096 766.272 427.248C767.328 428.4 768.64 428.976 770.208 428.976Z"
        ></path>
        <path
          style="fill: var(--color-illustrationInterface010)"
          d="M804.898 408.624C808.034 408.624 810.53 409.648 812.386 411.696C814.274 413.712 815.218 416.496 815.218 420.048V435.696H807.058V421.152C807.058 419.36 806.594 417.968 805.666 416.976C804.738 415.984 803.49 415.488 801.922 415.488C800.354 415.488 799.106 415.984 798.178 416.976C797.25 417.968 796.786 419.36 796.786 421.152V435.696H788.578V408.912H796.786V412.464C797.618 411.28 798.738 410.352 800.146 409.68C801.554 408.976 803.138 408.624 804.898 408.624Z"
        ></path>
        <circle
          style="fill: var(--color-illustrationHighlight010)"
          cx="1045"
          cy="419"
          r="65"
        ></circle>
        <path
          style="fill: var(--color-illustrationInterface010)"
          d="M1074.17 396.958L1068.29 391.083L1045 414.375L1021.71 391.083L1015.83 396.958L1039.12 420.25L1015.83 443.541L1021.71 449.416L1045 426.125L1068.29 449.416L1074.17 443.541L1050.87 420.25L1074.17 396.958Z"
        ></path>
        <path
          style="fill: var(--color-illustrationInterface020)"
          d="M-294 367C-301.732 367 -308 373.268 -308 381C-308 388.732 -301.732 395 -294 395H230C237.732 395 244 388.732 244 381C244 373.268 237.732 367 230 367H-294Z"
        ></path>
        <path
          style="fill: var(--color-illustrationInterface020)"
          d="M-437 443C-444.732 443 -451 449.268 -451 457C-451 464.732 -444.732 471 -437 471H438C445.732 471 452 464.732 452 457C452 449.268 445.732 443 438 443H-437Z"
        ></path>
      </g>
    </g>
  </g>
  <defs>
    <filter
      id="nk-64"
      x="-16"
      y="271"
      width="1218"
      height="312"
      filterUnits="userSpaceOnUse"
      color-interpolation-filters="sRGB"
    >
      <feFlood flood-opacity="0" result="BackgroundImageFix"></feFlood>
      <feColorMatrix
        in="SourceAlpha"
        type="matrix"
        values="0 0 0 0 0 0 0 0 0 0 0 0 0 0 0 0 0 0 127 0"
      ></feColorMatrix>
      <feOffset dy="8"></feOffset>
      <feGaussianBlur stdDeviation="8"></feGaussianBlur>
      <feColorMatrix
        type="matrix"
        values="0 0 0 0 0.0392157 0 0 0 0 0.0392157 0 0 0 0 0.0392157 0 0 0 0.08 0"
      ></feColorMatrix>
      <feBlend
        mode="normal"
        in2="BackgroundImageFix"
        result="effect1_dropShadow"
      ></feBlend>
      <feBlend
        mode="normal"
        in="SourceGraphic"
        in2="effect1_dropShadow"
        result="shape"
      ></feBlend>
    </filter>
    <clipPath id="nk-62">
      <rect
        style="fill: var(--color-white)"
        width="1490.72"
        height="838.004"
      ></rect>
    </clipPath>
    <clipPath id="nk-63">
      <path
        style="fill: var(--color-white)"
        d="M0 279H1162C1175.25 279 1186 289.745 1186 303V535C1186 548.255 1175.25 559 1162 559H0V279Z"
      ></path>
    </clipPath>
  </defs>
</svg>
