<svg id="components-link-states-active" style="width: 100%; height: 100%" width="1490" height="838" viewBox="0 0 1490 838" fill="none" xmlns="http://www.w3.org/2000/svg" class="css-0"><path style="fill:var(--color-illustrationBackground020)" d="M0 0H1490V838H0V0Z"></path><path style="fill:var(--color-illustrationInterface080)" d="M547.406 457.671H583.948V471H530.333V365.268H547.406V457.671Z"></path><path style="fill:var(--color-illustrationInterface080)" d="M594.921 364.519C594.921 361.624 595.919 359.228 597.916 357.331C599.913 355.434 602.558 354.485 605.853 354.485C609.148 354.485 611.794 355.434 613.791 357.331C615.887 359.228 616.936 361.624 616.936 364.519C616.936 367.415 615.887 369.761 613.791 371.558C611.794 373.355 609.148 374.254 605.853 374.254C602.558 374.254 599.913 373.355 597.916 371.558C595.919 369.761 594.921 367.415 594.921 364.519ZM614.39 388.481V471H597.317V388.481H614.39Z"></path><path style="fill:var(--color-illustrationInterface080)" d="M681.176 387.133C690.761 387.133 698.449 390.228 704.24 396.419C710.03 402.609 712.926 411.445 712.926 422.926V471H695.853V424.724C695.853 417.335 693.956 411.644 690.162 407.651C686.368 403.557 681.176 401.511 674.587 401.511C667.798 401.511 662.356 403.707 658.263 408.1C654.169 412.393 652.122 418.733 652.122 427.12V471H635.05V388.481H652.122V406.602C654.319 400.412 658.013 395.62 663.205 392.225C668.397 388.831 674.387 387.133 681.176 387.133Z"></path><path style="fill:var(--color-illustrationInterface080)" d="M779.618 471L749.965 434.308V471H732.892V360.176H749.965V423.675L779.318 388.481H799.835L763.893 429.516L800.734 471H779.618Z"></path><path style="fill:var(--color-illustrationInterface080)" d="M890.688 470.54L939.681 421.439L890.688 372.339L905.771 357.256L969.954 421.439L905.771 485.623L890.688 470.54Z"></path></svg>