<svg id="components-link-states-hover" style="width: 100%; height: 100%" width="1490" height="838" viewBox="0 0 1490 838" fill="none" xmlns="http://www.w3.org/2000/svg" class="css-0"><path style="fill:var(--color-illustrationBackground020)" d="M0 0H1490V838H0V0Z"></path><path style="fill:var(--color-illustrationInterface080)" d="M893.19 464.856L942.183 415.756L893.19 366.655L908.273 351.572L972.457 415.756L908.273 479.939L893.19 464.856Z"></path><path style="fill:var(--color-illustrationInterface080)" d="M545.305 451.538H580.499V465.316H528.232V361.232H545.305V451.538Z"></path><path style="fill:var(--color-illustrationInterface080)" d="M603.463 371.865C600.368 371.865 597.772 370.817 595.675 368.72C593.579 366.624 592.53 364.028 592.53 360.933C592.53 357.838 593.579 355.242 595.675 353.145C597.772 351.048 600.368 350 603.463 350C606.458 350 609.004 351.048 611.101 353.145C613.197 355.242 614.246 357.838 614.246 360.933C614.246 364.028 613.197 366.624 611.101 368.72C609.004 370.817 606.458 371.865 603.463 371.865ZM611.849 382.798V465.316H594.777V382.798H611.849Z"></path><path style="fill:var(--color-illustrationInterface080)" d="M675.898 381.45C682.388 381.45 688.179 382.798 693.271 385.494C698.462 388.189 702.506 392.183 705.401 397.474C708.297 402.766 709.744 409.156 709.744 416.644V465.316H692.821V419.19C692.821 411.802 690.974 406.161 687.28 402.267C683.586 398.273 678.544 396.276 672.154 396.276C665.764 396.276 660.673 398.273 656.879 402.267C653.184 406.161 651.337 411.802 651.337 419.19V465.316H634.265V382.798H651.337V392.233C654.133 388.838 657.677 386.192 661.97 384.295C666.363 382.398 671.006 381.45 675.898 381.45Z"></path><path style="fill:var(--color-illustrationInterface080)" d="M764.17 424.132L802.209 465.316H779.146L748.595 429.823V465.316H731.522V354.493H748.595V418.89L778.547 382.798H802.209L764.17 424.132Z"></path><path style="fill:var(--color-illustrationInterface080)" d="M517 480.293H803.258V487.781H517V480.293Z"></path><g filter="url(#nk-832)"><path style="fill:var(--color-white)" fill-rule="evenodd" clip-rule="evenodd" d="M831.921 520.5L826.463 512.16C822.736 506.466 814.797 504.388 808.725 507.51L810.14 506.783C808.633 507.557 807.91 509.489 808.531 511.094L816.086 530.642C817.284 533.741 820.343 538.123 822.878 540.325C822.878 540.325 838.077 552.906 838.077 557.622V563.594H862.702H869.436H875.015H881.171V557.622C881.171 552.906 890.46 538.049 890.46 538.049C892.169 535.162 893.595 530.074 893.595 526.697V501.858C893.483 496.358 888.809 491.901 883.041 491.901C880.155 491.901 877.818 494.13 877.818 496.881V498.87C877.818 493.371 873.143 488.914 867.375 488.914C864.489 488.914 862.152 491.143 862.152 493.894V495.883C862.152 490.384 857.477 485.927 851.709 485.927C848.823 485.927 846.486 488.155 846.486 490.907V492.896C846.486 492.012 846.392 491.31 846.209 490.753L844.616 465.101C844.401 461.632 841.477 458.938 838.077 458.938C834.653 458.938 831.921 461.693 831.921 465.093V489.719V520.5Z"></path><path style="fill:var(--color-black)" fill-rule="evenodd" clip-rule="evenodd" d="M810.185 506.87C815.072 505.081 820.789 506.32 824.533 509.857C825.257 510.54 825.907 511.309 826.463 512.159L831.921 520.499V465.091C831.921 461.692 834.653 458.936 838.077 458.936C841.477 458.936 844.401 461.631 844.616 465.1L846.209 490.752C846.226 490.802 846.241 490.853 846.256 490.905C846.408 491.436 846.486 492.091 846.486 492.895V490.905C846.486 490.848 846.487 490.791 846.489 490.734C846.49 490.709 846.491 490.684 846.492 490.659C846.627 488.022 848.91 485.926 851.709 485.926C852.256 485.926 852.794 485.966 853.319 486.043C854.555 486.226 855.72 486.615 856.773 487.172C859.398 488.562 861.328 491 861.943 493.893C862.08 494.535 862.152 495.201 862.152 495.882V493.893C862.152 491.141 864.489 488.913 867.375 488.913C867.607 488.913 867.837 488.92 868.065 488.934C869.645 489.033 871.128 489.466 872.439 490.16C875.064 491.55 876.994 493.987 877.609 496.88C877.746 497.523 877.818 498.188 877.818 498.869V496.88C877.818 494.129 880.155 491.9 883.041 491.9C883.272 491.9 883.503 491.907 883.731 491.922C889.177 492.26 893.488 496.578 893.595 501.856V526.696C893.595 530.073 892.169 535.161 890.46 538.048C890.46 538.048 881.171 552.904 881.171 557.621V563.593H838.077V557.621C838.077 552.904 822.878 540.324 822.878 540.324C820.343 538.122 817.284 533.74 816.086 530.641L808.531 511.093C808.116 510.021 808.301 508.804 808.917 507.883C809.128 507.569 809.388 507.289 809.693 507.061C809.856 506.994 810.02 506.93 810.185 506.87ZM808.725 507.509C809.043 507.346 809.366 507.196 809.693 507.061C809.833 506.956 809.982 506.863 810.14 506.782L808.725 507.509ZM805.402 501.045C801.447 503.9 799.877 509.195 801.64 513.756L809.195 533.304C810.823 537.514 814.579 542.901 818.033 545.901L818.1 545.959L818.166 546.014L818.167 546.015L818.194 546.037L818.303 546.128C818.402 546.212 818.553 546.338 818.747 546.503C819.135 546.833 819.697 547.315 820.374 547.911C821.735 549.108 823.527 550.731 825.299 552.472C827.103 554.246 828.732 555.991 829.858 557.448C830.246 557.949 830.514 558.34 830.69 558.622V570.98H888.558V557.747C888.559 557.778 888.56 557.794 888.564 557.795C888.59 557.799 888.726 557.104 889.425 555.454C890.166 553.703 891.205 551.633 892.317 549.574C893.415 547.538 894.523 545.626 895.36 544.215C895.777 543.513 896.124 542.941 896.363 542.549C896.483 542.353 896.576 542.203 896.638 542.103L896.706 541.993L896.723 541.965L896.771 541.889L896.816 541.812C898.107 539.633 899.107 536.981 899.787 534.53C900.466 532.084 900.982 529.271 900.982 526.696V501.782L900.981 501.707C900.783 491.949 892.588 484.513 883.041 484.513C881.476 484.513 879.948 484.803 878.526 485.34C875.426 482.933 871.513 481.526 867.375 481.526C865.81 481.526 864.282 481.815 862.86 482.353C860.048 480.169 856.567 478.808 852.855 478.574L851.989 464.642C851.53 457.253 845.353 451.549 838.077 451.549C830.556 451.549 824.533 457.629 824.533 465.091V500.952C819.094 498.244 812.549 497.858 806.791 500.267M830.94 559.081C830.938 559.08 830.925 559.054 830.906 559.003C830.932 559.056 830.942 559.082 830.94 559.081ZM805.402 501.045L805.347 500.939L806.762 500.211"></path></g><defs><filter id="nk-832" x="721.776" y="406.888" width="257.449" height="257.449" filterUnits="userSpaceOnUse" color-interpolation-filters="sRGB"><feFlood flood-opacity="0" result="BackgroundImageFix"></feFlood><feColorMatrix in="SourceAlpha" type="matrix" values="0 0 0 0 0 0 0 0 0 0 0 0 0 0 0 0 0 0 127 0" result="hardAlpha"></feColorMatrix><feOffset dy="15.1122"></feOffset><feGaussianBlur stdDeviation="15.1122"></feGaussianBlur><feColorMatrix type="matrix" values="0 0 0 0 0.0392157 0 0 0 0 0.0392157 0 0 0 0 0.0392157 0 0 0 0.08 0"></feColorMatrix><feBlend mode="normal" in2="BackgroundImageFix" result="effect1_dropShadow_2355_75750"></feBlend><feBlend mode="normal" in="SourceGraphic" in2="effect1_dropShadow_2355_75750" result="shape"></feBlend></filter></defs></svg>