<svg
  id="nksvg"
  style="width: 100%; height: 100%"
  width="1490"
  height="838"
  viewBox="0 0 1490 838"
  fill="none"
  xmlns="http://www.w3.org/2000/svg"
  class="css-0"
>
  <path
    style="fill: var(--color-illustrationInterface020)"
    d="M0 0H1490V838H0V0Z"
  ></path>
  <path
    style="fill: var(--color-illustrationInterface010)"
    d="M459 374.448C459 365.364 466.364 358 475.448 358H583.552C592.636 358 600 365.364 600 374.448V466.552C600 475.636 592.636 483 583.552 483H475.448C466.364 483 459 475.636 459 466.552V374.448Z"
  ></path>
  <path
    style="fill: var(--color-inkNegative)"
    fill-rule="evenodd"
    clip-rule="evenodd"
    d="M583.552 360.741H475.448C467.878 360.741 461.741 366.878 461.741 374.448V466.552C461.741 474.122 467.878 480.259 475.448 480.259H583.552C591.122 480.259 597.259 474.122 597.259 466.552V374.448C597.259 366.878 591.122 360.741 583.552 360.741ZM475.448 358C466.364 358 459 365.364 459 374.448V466.552C459 475.636 466.364 483 475.448 483H583.552C592.636 483 600 475.636 600 466.552V374.448C600 365.364 592.636 358 583.552 358H475.448Z"
  ></path>
  <path
    style="fill: var(--color-illustrationInterface010)"
    d="M638 374.448C638 365.364 645.364 358 654.448 358H762.552C771.636 358 779 365.364 779 374.448V466.552C779 475.636 771.636 483 762.552 483H654.448C645.364 483 638 475.636 638 466.552V374.448Z"
  ></path>
  <path
    style="fill: var(--color-inkNegative)"
    fill-rule="evenodd"
    clip-rule="evenodd"
    d="M762.552 360.741H654.448C646.878 360.741 640.741 366.878 640.741 374.448V466.552C640.741 474.122 646.878 480.259 654.448 480.259H762.552C770.122 480.259 776.259 474.122 776.259 466.552V374.448C776.259 366.878 770.122 360.741 762.552 360.741ZM654.448 358C645.364 358 638 365.364 638 374.448V466.552C638 475.636 645.364 483 654.448 483H762.552C771.636 483 779 475.636 779 466.552V374.448C779 365.364 771.636 358 762.552 358H654.448Z"
  ></path>
  <path
    style="fill: var(--color-illustrationInterface010)"
    d="M817 374.448C817 365.364 824.364 358 833.448 358H1015.55C1024.64 358 1032 365.364 1032 374.448V466.552C1032 475.636 1024.64 483 1015.55 483H833.448C824.364 483 817 475.636 817 466.552V374.448Z"
  ></path>
  <path
    style="fill: var(--color-inkNegative)"
    fill-rule="evenodd"
    clip-rule="evenodd"
    d="M1015.55 360.741H833.448C825.878 360.741 819.741 366.878 819.741 374.448V466.552C819.741 474.122 825.878 480.259 833.448 480.259H1015.55C1023.12 480.259 1029.26 474.122 1029.26 466.552V374.448C1029.26 366.878 1023.12 360.741 1015.55 360.741ZM833.448 358C824.364 358 817 365.364 817 374.448V466.552C817 475.636 824.364 483 833.448 483H1015.55C1024.64 483 1032 475.636 1032 466.552V374.448C1032 365.364 1024.64 358 1015.55 358H833.448Z"
  ></path>
  <path
    style="fill: var(--color-inkNegative)"
    d="M461.131 528V507.851H467.751C469.325 507.851 470.62 508.11 471.637 508.628C472.654 509.146 473.402 509.847 473.882 510.729C474.381 511.612 474.631 512.61 474.631 513.723C474.631 514.817 474.391 515.805 473.911 516.688C473.431 517.57 472.683 518.28 471.666 518.818C470.649 519.336 469.344 519.595 467.751 519.595H463.549V528H461.131ZM463.549 517.551H467.694C469.306 517.551 470.447 517.215 471.119 516.544C471.81 515.853 472.155 514.913 472.155 513.723C472.155 512.514 471.81 511.574 471.119 510.902C470.447 510.211 469.306 509.866 467.694 509.866H463.549V517.551Z"
  ></path>
  <path
    style="fill: var(--color-inkNegative)"
    d="M477.656 528V507.275H480.074V528H477.656Z"
  ></path>
  <path
    style="fill: var(--color-inkNegative)"
    d="M490.455 528.345C489.093 528.345 487.884 528.038 486.829 527.424C485.773 526.791 484.939 525.918 484.324 524.805C483.73 523.692 483.432 522.377 483.432 520.861C483.432 519.365 483.73 518.06 484.324 516.947C484.919 515.815 485.744 514.942 486.8 514.327C487.874 513.694 489.112 513.378 490.513 513.378C491.895 513.378 493.084 513.694 494.082 514.327C495.099 514.942 495.876 515.757 496.414 516.774C496.951 517.791 497.22 518.885 497.22 520.055C497.22 520.267 497.21 520.478 497.191 520.689C497.191 520.9 497.191 521.14 497.191 521.408H485.821C485.879 522.502 486.128 523.414 486.57 524.143C487.03 524.853 487.596 525.39 488.268 525.755C488.959 526.119 489.688 526.302 490.455 526.302C491.453 526.302 492.288 526.071 492.96 525.611C493.631 525.15 494.121 524.527 494.428 523.74H496.817C496.433 525.064 495.694 526.167 494.6 527.05C493.526 527.914 492.144 528.345 490.455 528.345ZM490.455 515.421C489.304 515.421 488.277 515.776 487.376 516.486C486.493 517.177 485.984 518.194 485.85 519.537H494.831C494.773 518.252 494.332 517.244 493.507 516.515C492.681 515.786 491.664 515.421 490.455 515.421Z"
  ></path>
  <path
    style="fill: var(--color-inkNegative)"
    d="M505.174 528.345C503.984 528.345 502.996 528.144 502.209 527.741C501.422 527.338 500.837 526.801 500.453 526.129C500.069 525.457 499.877 524.728 499.877 523.941C499.877 522.483 500.434 521.36 501.547 520.574C502.66 519.787 504.176 519.393 506.095 519.393H509.952V519.221C509.952 517.973 509.626 517.033 508.973 516.4C508.321 515.747 507.448 515.421 506.354 515.421C505.414 515.421 504.598 515.661 503.907 516.141C503.236 516.601 502.813 517.283 502.641 518.185H500.165C500.261 517.148 500.607 516.275 501.202 515.565C501.816 514.855 502.574 514.318 503.475 513.953C504.377 513.569 505.337 513.378 506.354 513.378C508.35 513.378 509.846 513.915 510.844 514.989C511.861 516.045 512.37 517.455 512.37 519.221V528H510.211L510.067 525.438C509.664 526.244 509.069 526.935 508.282 527.511C507.515 528.067 506.479 528.345 505.174 528.345ZM505.548 526.302C506.469 526.302 507.256 526.062 507.908 525.582C508.58 525.102 509.088 524.479 509.434 523.711C509.779 522.943 509.952 522.138 509.952 521.293V521.264H506.296C504.876 521.264 503.869 521.514 503.274 522.013C502.698 522.493 502.41 523.097 502.41 523.826C502.41 524.575 502.679 525.179 503.216 525.64C503.773 526.081 504.55 526.302 505.548 526.302Z"
  ></path>
  <path
    style="fill: var(--color-inkNegative)"
    d="M521.466 528.345C519.758 528.345 518.338 527.914 517.206 527.05C516.074 526.186 515.412 525.016 515.22 523.538H517.695C517.849 524.287 518.242 524.939 518.875 525.496C519.528 526.033 520.401 526.302 521.495 526.302C522.512 526.302 523.26 526.091 523.74 525.668C524.22 525.227 524.459 524.709 524.459 524.114C524.459 523.25 524.143 522.675 523.51 522.387C522.896 522.099 522.022 521.84 520.89 521.61C520.123 521.456 519.355 521.236 518.588 520.948C517.82 520.66 517.177 520.257 516.659 519.739C516.141 519.202 515.882 518.501 515.882 517.638C515.882 516.39 516.342 515.373 517.263 514.587C518.204 513.781 519.47 513.378 521.063 513.378C522.579 513.378 523.817 513.761 524.776 514.529C525.755 515.277 526.321 516.352 526.474 517.753H524.085C523.989 517.024 523.673 516.457 523.135 516.055C522.617 515.632 521.917 515.421 521.034 515.421C520.171 515.421 519.499 515.604 519.019 515.968C518.559 516.333 518.328 516.812 518.328 517.407C518.328 517.983 518.626 518.434 519.221 518.76C519.835 519.086 520.66 519.365 521.696 519.595C522.579 519.787 523.414 520.027 524.2 520.315C525.006 520.583 525.659 520.996 526.158 521.552C526.676 522.09 526.935 522.876 526.935 523.913C526.954 525.198 526.465 526.263 525.467 527.108C524.488 527.933 523.155 528.345 521.466 528.345Z"
  ></path>
  <path
    style="fill: var(--color-inkNegative)"
    d="M536.808 528.345C535.445 528.345 534.236 528.038 533.181 527.424C532.126 526.791 531.291 525.918 530.677 524.805C530.082 523.692 529.784 522.377 529.784 520.861C529.784 519.365 530.082 518.06 530.677 516.947C531.272 515.815 532.097 514.942 533.152 514.327C534.227 513.694 535.465 513.378 536.865 513.378C538.247 513.378 539.437 513.694 540.435 514.327C541.452 514.942 542.229 515.757 542.766 516.774C543.303 517.791 543.572 518.885 543.572 520.055C543.572 520.267 543.562 520.478 543.543 520.689C543.543 520.9 543.543 521.14 543.543 521.408H532.174C532.231 522.502 532.481 523.414 532.922 524.143C533.382 524.853 533.949 525.39 534.62 525.755C535.311 526.119 536.04 526.302 536.808 526.302C537.806 526.302 538.64 526.071 539.312 525.611C539.984 525.15 540.473 524.527 540.78 523.74H543.169C542.785 525.064 542.046 526.167 540.953 527.05C539.878 527.914 538.496 528.345 536.808 528.345ZM536.808 515.421C535.656 515.421 534.63 515.776 533.728 516.486C532.845 517.177 532.337 518.194 532.202 519.537H541.183C541.125 518.252 540.684 517.244 539.859 516.515C539.034 515.786 538.017 515.421 536.808 515.421Z"
  ></path>
  <path
    style="fill: var(--color-inkNegative)"
    d="M560.813 528.345C559.451 528.345 558.242 528.038 557.186 527.424C556.131 526.791 555.296 525.918 554.682 524.805C554.087 523.692 553.79 522.377 553.79 520.861C553.79 519.365 554.087 518.06 554.682 516.947C555.277 515.815 556.102 514.942 557.158 514.327C558.232 513.694 559.47 513.378 560.871 513.378C562.252 513.378 563.442 513.694 564.44 514.327C565.457 514.942 566.234 515.757 566.771 516.774C567.309 517.791 567.577 518.885 567.577 520.055C567.577 520.267 567.568 520.478 567.549 520.689C567.549 520.9 567.549 521.14 567.549 521.408H556.179C556.236 522.502 556.486 523.414 556.927 524.143C557.388 524.853 557.954 525.39 558.626 525.755C559.316 526.119 560.046 526.302 560.813 526.302C561.811 526.302 562.646 526.071 563.317 525.611C563.989 525.15 564.478 524.527 564.785 523.74H567.174C566.791 525.064 566.052 526.167 564.958 527.05C563.883 527.914 562.502 528.345 560.813 528.345ZM560.813 515.421C559.662 515.421 558.635 515.776 557.733 516.486C556.851 517.177 556.342 518.194 556.208 519.537H565.188C565.131 518.252 564.689 517.244 563.864 516.515C563.039 515.786 562.022 515.421 560.813 515.421Z"
  ></path>
  <path
    style="fill: var(--color-inkNegative)"
    d="M570.782 528V513.723H572.97L573.114 516.285C573.574 515.383 574.236 514.673 575.1 514.155C575.963 513.637 576.942 513.378 578.036 513.378C579.724 513.378 581.068 513.896 582.065 514.932C583.082 515.949 583.591 517.522 583.591 519.653V528H581.173V519.912C581.173 516.937 579.945 515.45 577.489 515.45C576.261 515.45 575.234 515.901 574.409 516.803C573.603 517.686 573.2 518.952 573.2 520.602V528H570.782Z"
  ></path>
  <path
    style="fill: var(--color-inkNegative)"
    d="M592.896 528C591.591 528 590.564 527.683 589.816 527.05C589.068 526.417 588.693 525.275 588.693 523.625V515.767H586.218V513.723H588.693L589.01 510.298H591.111V513.723H595.314V515.767H591.111V523.625C591.111 524.527 591.294 525.141 591.658 525.467C592.023 525.774 592.666 525.927 593.587 525.927H595.083V528H592.896Z"
  ></path>
  <path
    style="fill: var(--color-inkNegative)"
    d="M604.411 528.345C603.048 528.345 601.839 528.038 600.784 527.424C599.729 526.791 598.894 525.918 598.28 524.805C597.685 523.692 597.387 522.377 597.387 520.861C597.387 519.365 597.685 518.06 598.28 516.947C598.875 515.815 599.7 514.942 600.755 514.327C601.83 513.694 603.067 513.378 604.468 513.378C605.85 513.378 607.04 513.694 608.038 514.327C609.055 514.942 609.832 515.757 610.369 516.774C610.906 517.791 611.175 518.885 611.175 520.055C611.175 520.267 611.165 520.478 611.146 520.689C611.146 520.9 611.146 521.14 611.146 521.408H599.777C599.834 522.502 600.084 523.414 600.525 524.143C600.985 524.853 601.552 525.39 602.223 525.755C602.914 526.119 603.643 526.302 604.411 526.302C605.409 526.302 606.243 526.071 606.915 525.611C607.587 525.15 608.076 524.527 608.383 523.74H610.772C610.388 525.064 609.649 526.167 608.556 527.05C607.481 527.914 606.099 528.345 604.411 528.345ZM604.411 515.421C603.259 515.421 602.233 515.776 601.331 516.486C600.448 517.177 599.94 518.194 599.805 519.537H608.786C608.728 518.252 608.287 517.244 607.462 516.515C606.637 515.786 605.62 515.421 604.411 515.421Z"
  ></path>
  <path
    style="fill: var(--color-inkNegative)"
    d="M614.38 528V513.723H616.567L616.769 516.457C617.21 515.517 617.882 514.769 618.784 514.212C619.686 513.656 620.798 513.378 622.123 513.378V515.911H621.461C620.616 515.911 619.839 516.064 619.129 516.371C618.419 516.659 617.853 517.158 617.431 517.868C617.009 518.578 616.798 519.557 616.798 520.804V528H614.38Z"
  ></path>
  <path
    style="fill: var(--color-inkNegative)"
    d="M634.008 534.332L637.549 526.618H636.714L631.044 513.723H633.663L638.383 524.834L643.392 513.723H645.896L636.541 534.332H634.008Z"
  ></path>
  <path
    style="fill: var(--color-inkNegative)"
    d="M653.604 528.345C652.261 528.345 651.052 528.038 649.977 527.424C648.903 526.81 648.049 525.947 647.416 524.834C646.802 523.701 646.494 522.377 646.494 520.861C646.494 519.345 646.811 518.031 647.444 516.918C648.078 515.786 648.932 514.913 650.006 514.299C651.1 513.685 652.318 513.378 653.662 513.378C655.005 513.378 656.214 513.685 657.288 514.299C658.363 514.913 659.207 515.786 659.821 516.918C660.455 518.031 660.771 519.345 660.771 520.861C660.771 522.377 660.455 523.701 659.821 524.834C659.188 525.947 658.325 526.81 657.231 527.424C656.156 528.038 654.947 528.345 653.604 528.345ZM653.604 526.273C654.429 526.273 655.197 526.071 655.907 525.668C656.617 525.265 657.193 524.661 657.634 523.855C658.075 523.049 658.296 522.051 658.296 520.861C658.296 519.672 658.075 518.674 657.634 517.868C657.212 517.062 656.646 516.457 655.936 516.055C655.226 515.652 654.468 515.45 653.662 515.45C652.837 515.45 652.069 515.652 651.359 516.055C650.649 516.457 650.073 517.062 649.632 517.868C649.191 518.674 648.97 519.672 648.97 520.861C648.97 522.051 649.191 523.049 649.632 523.855C650.073 524.661 650.639 525.265 651.33 525.668C652.04 526.071 652.798 526.273 653.604 526.273Z"
  ></path>
  <path
    style="fill: var(--color-inkNegative)"
    d="M669.343 528.345C667.654 528.345 666.311 527.837 665.313 526.82C664.316 525.783 663.817 524.2 663.817 522.07V513.723H666.234V521.811C666.234 524.786 667.453 526.273 669.89 526.273C671.137 526.273 672.164 525.831 672.97 524.949C673.795 524.047 674.208 522.771 674.208 521.12V513.723H676.625V528H674.438L674.265 525.438C673.824 526.34 673.162 527.05 672.279 527.568C671.416 528.086 670.437 528.345 669.343 528.345Z"
  ></path>
  <path
    style="fill: var(--color-inkNegative)"
    d="M680.605 528V513.723H682.793L682.994 516.457C683.436 515.517 684.107 514.769 685.009 514.212C685.911 513.656 687.024 513.378 688.348 513.378V515.911H687.686C686.842 515.911 686.065 516.064 685.355 516.371C684.645 516.659 684.079 517.158 683.656 517.868C683.234 518.578 683.023 519.557 683.023 520.804V528H680.605Z"
  ></path>
  <path
    style="fill: var(--color-inkNegative)"
    d="M705.156 528.345C703.736 528.345 702.489 528.019 701.414 527.367C700.359 526.714 699.534 525.822 698.939 524.69C698.363 523.558 698.075 522.272 698.075 520.833C698.075 519.393 698.373 518.117 698.967 517.004C699.562 515.872 700.387 514.989 701.443 514.356C702.498 513.704 703.746 513.378 705.185 513.378C706.355 513.378 707.392 513.617 708.293 514.097C709.195 514.577 709.896 515.249 710.395 516.112V507.275H712.813V528H710.625L710.395 525.64C709.934 526.33 709.272 526.954 708.409 527.511C707.545 528.067 706.461 528.345 705.156 528.345ZM705.415 526.244C706.375 526.244 707.219 526.023 707.948 525.582C708.696 525.121 709.272 524.488 709.675 523.682C710.097 522.876 710.308 521.936 710.308 520.861C710.308 519.787 710.097 518.847 709.675 518.041C709.272 517.235 708.696 516.611 707.948 516.17C707.219 515.709 706.375 515.479 705.415 515.479C704.475 515.479 703.63 515.709 702.882 516.17C702.153 516.611 701.577 517.235 701.155 518.041C700.752 518.847 700.551 519.787 700.551 520.861C700.551 521.936 700.752 522.876 701.155 523.682C701.577 524.488 702.153 525.121 702.882 525.582C703.63 526.023 704.475 526.244 705.415 526.244Z"
  ></path>
  <path
    style="fill: var(--color-inkNegative)"
    d="M721.503 528.345C720.314 528.345 719.325 528.144 718.539 527.741C717.752 527.338 717.167 526.801 716.783 526.129C716.399 525.457 716.207 524.728 716.207 523.941C716.207 522.483 716.764 521.36 717.877 520.574C718.99 519.787 720.505 519.393 722.424 519.393H726.281V519.221C726.281 517.973 725.955 517.033 725.303 516.4C724.65 515.747 723.777 515.421 722.683 515.421C721.743 515.421 720.928 515.661 720.237 516.141C719.565 516.601 719.143 517.283 718.97 518.185H716.495C716.591 517.148 716.936 516.275 717.531 515.565C718.145 514.855 718.903 514.318 719.805 513.953C720.707 513.569 721.666 513.378 722.683 513.378C724.679 513.378 726.176 513.915 727.174 514.989C728.191 516.045 728.699 517.455 728.699 519.221V528H726.54L726.397 525.438C725.994 526.244 725.399 526.935 724.612 527.511C723.844 528.067 722.808 528.345 721.503 528.345ZM721.878 526.302C722.799 526.302 723.585 526.062 724.238 525.582C724.909 525.102 725.418 524.479 725.763 523.711C726.109 522.943 726.281 522.138 726.281 521.293V521.264H722.626C721.206 521.264 720.198 521.514 719.604 522.013C719.028 522.493 718.74 523.097 718.74 523.826C718.74 524.575 719.009 525.179 719.546 525.64C720.102 526.081 720.88 526.302 721.878 526.302Z"
  ></path>
  <path
    style="fill: var(--color-inkNegative)"
    d="M737.575 528C736.27 528 735.243 527.683 734.495 527.05C733.746 526.417 733.372 525.275 733.372 523.625V515.767H730.897V513.723H733.372L733.689 510.298H735.79V513.723H739.992V515.767H735.79V523.625C735.79 524.527 735.972 525.141 736.337 525.467C736.702 525.774 737.344 525.927 738.265 525.927H739.762V528H737.575Z"
  ></path>
  <path
    style="fill: var(--color-inkNegative)"
    d="M749.09 528.345C747.727 528.345 746.518 528.038 745.463 527.424C744.407 526.791 743.573 525.918 742.959 524.805C742.364 523.692 742.066 522.377 742.066 520.861C742.066 519.365 742.364 518.06 742.959 516.947C743.553 515.815 744.379 514.942 745.434 514.327C746.509 513.694 747.746 513.378 749.147 513.378C750.529 513.378 751.719 513.694 752.716 514.327C753.733 514.942 754.511 515.757 755.048 516.774C755.585 517.791 755.854 518.885 755.854 520.055C755.854 520.267 755.844 520.478 755.825 520.689C755.825 520.9 755.825 521.14 755.825 521.408H744.455C744.513 522.502 744.762 523.414 745.204 524.143C745.664 524.853 746.23 525.39 746.902 525.755C747.593 526.119 748.322 526.302 749.09 526.302C750.087 526.302 750.922 526.071 751.594 525.611C752.265 525.15 752.755 524.527 753.062 523.74H755.451C755.067 525.064 754.328 526.167 753.234 527.05C752.16 527.914 750.778 528.345 749.09 528.345ZM749.09 515.421C747.938 515.421 746.912 515.776 746.01 516.486C745.127 517.177 744.618 518.194 744.484 519.537H753.465C753.407 518.252 752.966 517.244 752.141 516.515C751.316 515.786 750.298 515.421 749.09 515.421Z"
  ></path>
  <path
    style="fill: var(--color-inkNegative)"
    d="M773.181 528.345C771.838 528.345 770.629 528.038 769.555 527.424C768.48 526.81 767.626 525.947 766.993 524.834C766.379 523.701 766.072 522.377 766.072 520.861C766.072 519.345 766.388 518.031 767.022 516.918C767.655 515.786 768.509 514.913 769.583 514.299C770.677 513.685 771.896 513.378 773.239 513.378C774.582 513.378 775.791 513.685 776.866 514.299C777.94 514.913 778.785 515.786 779.399 516.918C780.032 518.031 780.349 519.345 780.349 520.861C780.349 522.377 780.032 523.701 779.399 524.834C778.765 525.947 777.902 526.81 776.808 527.424C775.733 528.038 774.525 528.345 773.181 528.345ZM773.181 526.273C774.006 526.273 774.774 526.071 775.484 525.668C776.194 525.265 776.77 524.661 777.211 523.855C777.652 523.049 777.873 522.051 777.873 520.861C777.873 519.672 777.652 518.674 777.211 517.868C776.789 517.062 776.223 516.457 775.513 516.055C774.803 515.652 774.045 515.45 773.239 515.45C772.414 515.45 771.646 515.652 770.936 516.055C770.226 516.457 769.65 517.062 769.209 517.868C768.768 518.674 768.547 519.672 768.547 520.861C768.547 522.051 768.768 523.049 769.209 523.855C769.65 524.661 770.217 525.265 770.907 525.668C771.617 526.071 772.375 526.273 773.181 526.273Z"
  ></path>
  <path
    style="fill: var(--color-inkNegative)"
    d="M784.488 528V515.767H782.329V513.723H784.488V511.248C784.488 509.866 784.833 508.859 785.524 508.225C786.215 507.592 787.222 507.275 788.546 507.275H789.985V509.348H788.92C788.191 509.348 787.673 509.501 787.366 509.808C787.059 510.096 786.905 510.595 786.905 511.305V513.723H790.417V515.767H786.905V528H784.488Z"
  ></path>
  <path
    style="fill: var(--color-inkNegative)"
    d="M808.541 528.345C807.371 528.345 806.325 528.105 805.404 527.626C804.502 527.146 803.811 526.474 803.331 525.611L803.101 528H800.913V507.275H803.331V516.083C803.792 515.392 804.444 514.769 805.289 514.212C806.152 513.656 807.246 513.378 808.57 513.378C809.99 513.378 811.228 513.704 812.283 514.356C813.338 515.009 814.154 515.901 814.73 517.033C815.325 518.165 815.622 519.451 815.622 520.89C815.622 522.329 815.325 523.615 814.73 524.747C814.154 525.86 813.329 526.743 812.254 527.395C811.199 528.029 809.961 528.345 808.541 528.345ZM808.282 526.244C809.242 526.244 810.086 526.023 810.815 525.582C811.544 525.121 812.12 524.488 812.542 523.682C812.964 522.876 813.175 521.936 813.175 520.861C813.175 519.787 812.964 518.847 812.542 518.041C812.12 517.235 811.544 516.611 810.815 516.17C810.086 515.709 809.242 515.479 808.282 515.479C807.323 515.479 806.478 515.709 805.749 516.17C805.02 516.611 804.444 517.235 804.022 518.041C803.6 518.847 803.389 519.787 803.389 520.861C803.389 521.936 803.6 522.876 804.022 523.682C804.444 524.488 805.02 525.121 805.749 525.582C806.478 526.023 807.323 526.244 808.282 526.244Z"
  ></path>
  <path
    style="fill: var(--color-inkNegative)"
    d="M820.456 510.557C819.976 510.557 819.573 510.403 819.247 510.096C818.94 509.77 818.786 509.367 818.786 508.887C818.786 508.427 818.94 508.043 819.247 507.736C819.573 507.429 819.976 507.275 820.456 507.275C820.916 507.275 821.31 507.429 821.636 507.736C821.962 508.043 822.125 508.427 822.125 508.887C822.125 509.367 821.962 509.77 821.636 510.096C821.31 510.403 820.916 510.557 820.456 510.557ZM819.247 528V513.723H821.665V528H819.247Z"
  ></path>
  <path
    style="fill: var(--color-inkNegative)"
    d="M825.874 528V513.723H828.062L828.263 516.457C828.705 515.517 829.376 514.769 830.278 514.212C831.18 513.656 832.293 513.378 833.617 513.378V515.911H832.955C832.111 515.911 831.334 516.064 830.624 516.371C829.914 516.659 829.348 517.158 828.926 517.868C828.503 518.578 828.292 519.557 828.292 520.804V528H825.874Z"
  ></path>
  <path
    style="fill: var(--color-inkNegative)"
    d="M841.973 528C840.668 528 839.641 527.683 838.893 527.05C838.145 526.417 837.77 525.275 837.77 523.625V515.767H835.295V513.723H837.77L838.087 510.298H840.188V513.723H844.391V515.767H840.188V523.625C840.188 524.527 840.37 525.141 840.735 525.467C841.1 525.774 841.743 525.927 842.664 525.927H844.16V528H841.973Z"
  ></path>
  <path
    style="fill: var(--color-inkNegative)"
    d="M847.462 528V507.275H849.88V516.17C850.36 515.287 851.041 514.606 851.924 514.126C852.807 513.627 853.766 513.378 854.802 513.378C856.453 513.378 857.777 513.896 858.775 514.932C859.772 515.949 860.271 517.522 860.271 519.653V528H857.882V519.912C857.882 516.937 856.683 515.45 854.284 515.45C853.037 515.45 851.991 515.901 851.147 516.803C850.302 517.686 849.88 518.952 849.88 520.602V528H847.462Z"
  ></path>
  <path
    style="fill: var(--color-illustrationInterface060)"
    d="M469.413 304.036C471.965 304.036 474.194 304.53 476.102 305.519C478.033 306.484 479.516 307.886 480.55 309.725C481.608 311.541 482.136 313.668 482.136 316.104C482.136 318.541 481.608 320.656 480.55 322.449C479.516 324.242 478.033 325.621 476.102 326.587C474.194 327.529 471.965 328 469.413 328H461.586V304.036H469.413ZM469.413 324.794C472.218 324.794 474.367 324.035 475.861 322.518C477.355 321.001 478.102 318.863 478.102 316.104C478.102 313.323 477.355 311.151 475.861 309.588C474.367 308.024 472.218 307.243 469.413 307.243H465.517V324.794H469.413Z"
  ></path>
  <path
    style="fill: var(--color-illustrationInterface060)"
    d="M484.722 318.415C484.722 316.507 485.113 314.817 485.894 313.346C486.699 311.875 487.779 310.737 489.136 309.932C490.515 309.105 492.032 308.691 493.687 308.691C495.181 308.691 496.48 308.99 497.583 309.588C498.71 310.162 499.606 310.886 500.273 311.76V309.001H504.238V328H500.273V325.173C499.606 326.069 498.698 326.816 497.549 327.414C496.4 328.012 495.089 328.311 493.618 328.311C491.986 328.311 490.492 327.897 489.136 327.069C487.779 326.219 486.699 325.046 485.894 323.552C485.113 322.035 484.722 320.323 484.722 318.415ZM500.273 318.484C500.273 317.173 499.997 316.035 499.445 315.07C498.917 314.105 498.216 313.369 497.342 312.863C496.468 312.358 495.526 312.105 494.515 312.105C493.503 312.105 492.561 312.358 491.687 312.863C490.814 313.346 490.101 314.07 489.549 315.036C489.021 315.978 488.756 317.104 488.756 318.415C488.756 319.725 489.021 320.874 489.549 321.863C490.101 322.851 490.814 323.61 491.687 324.138C492.584 324.644 493.526 324.897 494.515 324.897C495.526 324.897 496.468 324.644 497.342 324.138C498.216 323.633 498.917 322.897 499.445 321.932C499.997 320.943 500.273 319.794 500.273 318.484Z"
  ></path>
  <path
    style="fill: var(--color-illustrationInterface060)"
    d="M526.504 309.001L514.849 336.931H510.78L514.642 327.69L507.16 309.001H511.539L516.883 323.483L522.435 309.001H526.504Z"
  ></path>
  <path
    style="fill: var(--color-illustrationBorder020)"
    d="M509.348 405.727C512.54 405.727 515.298 406.329 517.622 407.533C519.974 408.709 521.766 410.403 522.998 412.615C524.258 414.827 524.888 417.431 524.888 420.427C524.888 423.423 524.258 426.027 522.998 428.239C521.766 430.423 519.974 432.103 517.622 433.279C515.298 434.427 512.54 435.001 509.348 435.001H500.234V405.727H509.348ZM509.348 431.851C513.128 431.851 516.012 430.857 518 428.869C519.988 426.853 520.982 424.039 520.982 420.427C520.982 416.787 519.974 413.945 517.958 411.901C515.97 409.857 513.1 408.835 509.348 408.835H504.056V431.851H509.348Z"
  ></path>
  <path
    style="fill: var(--color-illustrationBorder020)"
    d="M539.044 405.727C542.236 405.727 544.994 406.329 547.318 407.533C549.67 408.709 551.462 410.403 552.694 412.615C553.954 414.827 554.584 417.431 554.584 420.427C554.584 423.423 553.954 426.027 552.694 428.239C551.462 430.423 549.67 432.103 547.318 433.279C544.994 434.427 542.236 435.001 539.044 435.001H529.93V405.727H539.044ZM539.044 431.851C542.824 431.851 545.708 430.857 547.696 428.869C549.684 426.853 550.678 424.039 550.678 420.427C550.678 416.787 549.67 413.945 547.654 411.901C545.666 409.857 542.796 408.835 539.044 408.835H533.752V431.851H539.044Z"
  ></path>
  <path
    style="fill: var(--color-illustrationBorder020)"
    d="M707.928 405.937V435.001H704.106V413.329L694.446 435.001H691.758L682.056 413.287V435.001H678.234V405.937H682.35L693.102 429.961L703.854 405.937H707.928Z"
  ></path>
  <path
    style="fill: var(--color-illustrationBorder020)"
    d="M744.104 405.937V435.001H740.282V413.329L730.622 435.001H727.934L718.232 413.287V435.001H714.41V405.937H718.526L729.278 429.961L740.03 405.937H744.104Z"
  ></path>
  <path
    style="fill: var(--color-illustrationBorder020)"
    d="M876.731 405.727L867.197 423.955V435.001H863.375V423.955L853.799 405.727H858.041L865.265 420.553L872.489 405.727H876.731Z"
  ></path>
  <path
    style="fill: var(--color-illustrationBorder020)"
    d="M901.258 405.727L891.724 423.955V435.001H887.902V423.955L878.326 405.727H882.568L889.792 420.553L897.016 405.727H901.258Z"
  ></path>
  <path
    style="fill: var(--color-illustrationBorder020)"
    d="M925.786 405.727L916.252 423.955V435.001H912.43V423.955L902.854 405.727H907.096L914.32 420.553L921.544 405.727H925.786Z"
  ></path>
  <path
    style="fill: var(--color-illustrationBorder020)"
    d="M950.313 405.727L940.779 423.955V435.001H936.957V423.955L927.381 405.727H931.623L938.847 420.553L946.071 405.727H950.313Z"
  ></path>
  <path
    style="fill: var(--color-illustrationInterface060)"
    d="M665.826 304.036V328H661.895V311.587L654.585 328H651.861L644.517 311.587V328H640.586V304.036H644.827L653.24 322.828L661.619 304.036H665.826Z"
  ></path>
  <path
    style="fill: var(--color-illustrationInterface060)"
    d="M679.233 328.31C677.44 328.31 675.82 327.908 674.371 327.104C672.923 326.276 671.785 325.127 670.958 323.656C670.13 322.161 669.717 320.437 669.717 318.483C669.717 316.553 670.142 314.84 670.992 313.346C671.843 311.852 673.004 310.702 674.475 309.898C675.946 309.093 677.59 308.691 679.406 308.691C681.222 308.691 682.865 309.093 684.336 309.898C685.808 310.702 686.968 311.852 687.819 313.346C688.67 314.84 689.095 316.553 689.095 318.483C689.095 320.414 688.658 322.127 687.785 323.621C686.911 325.115 685.716 326.276 684.198 327.104C682.704 327.908 681.049 328.31 679.233 328.31ZM679.233 324.897C680.245 324.897 681.187 324.656 682.061 324.173C682.957 323.69 683.681 322.966 684.233 322.001C684.785 321.035 685.061 319.863 685.061 318.483C685.061 317.104 684.796 315.943 684.267 315.001C683.739 314.035 683.038 313.311 682.164 312.829C681.291 312.346 680.348 312.105 679.337 312.105C678.325 312.105 677.383 312.346 676.509 312.829C675.659 313.311 674.981 314.035 674.475 315.001C673.969 315.943 673.716 317.104 673.716 318.483C673.716 320.529 674.234 322.115 675.268 323.242C676.325 324.345 677.647 324.897 679.233 324.897Z"
  ></path>
  <path
    style="fill: var(--color-illustrationInterface060)"
    d="M702.566 308.691C704.06 308.691 705.394 309.001 706.566 309.622C707.761 310.243 708.692 311.162 709.359 312.38C710.026 313.599 710.359 315.07 710.359 316.794V328H706.463V317.38C706.463 315.679 706.037 314.38 705.187 313.484C704.336 312.564 703.175 312.105 701.704 312.105C700.233 312.105 699.061 312.564 698.187 313.484C697.337 314.38 696.911 315.679 696.911 317.38V328H692.981V309.001H696.911V311.174C697.555 310.392 698.371 309.783 699.36 309.346C700.371 308.909 701.44 308.691 702.566 308.691Z"
  ></path>
  <path
    style="fill: var(--color-illustrationInterface060)"
    d="M719.959 312.208V322.725C719.959 323.437 720.12 323.954 720.442 324.276C720.786 324.575 721.361 324.724 722.166 324.724H724.579V328H721.476C719.706 328 718.35 327.586 717.407 326.759C716.465 325.931 715.994 324.587 715.994 322.725V312.208H713.752V309.001H715.994V304.277H719.959V309.001H724.579V312.208H719.959Z"
  ></path>
  <path
    style="fill: var(--color-illustrationInterface060)"
    d="M738.029 308.691C739.477 308.691 740.765 309.001 741.891 309.622C743.04 310.243 743.937 311.162 744.581 312.38C745.247 313.599 745.581 315.07 745.581 316.794V328H741.684V317.38C741.684 315.679 741.259 314.38 740.408 313.484C739.558 312.564 738.397 312.105 736.926 312.105C735.455 312.105 734.282 312.564 733.409 313.484C732.558 314.38 732.133 315.679 732.133 317.38V328H728.202V302.484H732.133V311.208C732.8 310.403 733.639 309.783 734.65 309.346C735.685 308.909 736.811 308.691 738.029 308.691Z"
  ></path>
  <path
    style="fill: var(--color-illustrationInterface060)"
    d="M839.599 303.379L830.789 320.348V330.001H826.423V320.348L817.574 303.379H822.439L828.606 316.441L834.773 303.379H839.599Z"
  ></path>
  <path
    style="fill: var(--color-illustrationInterface060)"
    d="M862.409 318.931C862.409 319.722 862.357 320.437 862.255 321.076H846.129C846.257 322.761 846.882 324.114 848.006 325.136C849.13 326.157 850.509 326.668 852.143 326.668C854.492 326.668 856.152 325.685 857.123 323.719H861.834C861.196 325.659 860.034 327.255 858.348 328.507C856.688 329.732 854.62 330.345 852.143 330.345C850.126 330.345 848.312 329.898 846.704 329.005C845.12 328.085 843.869 326.809 842.95 325.174C842.056 323.514 841.609 321.599 841.609 319.429C841.609 317.258 842.043 315.355 842.912 313.721C843.805 312.061 845.044 310.784 846.627 309.891C848.236 308.997 850.074 308.55 852.143 308.55C854.135 308.55 855.91 308.984 857.467 309.852C859.025 310.721 860.238 311.946 861.106 313.53C861.974 315.087 862.409 316.888 862.409 318.931ZM857.85 317.552C857.825 315.943 857.25 314.653 856.127 313.683C855.003 312.712 853.611 312.227 851.951 312.227C850.445 312.227 849.155 312.712 848.083 313.683C847.01 314.628 846.372 315.917 846.167 317.552H857.85Z"
  ></path>
  <path
    style="fill: var(--color-illustrationInterface060)"
    d="M865.25 319.352C865.25 317.232 865.684 315.355 866.553 313.721C867.446 312.087 868.647 310.823 870.153 309.929C871.685 309.01 873.371 308.55 875.209 308.55C876.869 308.55 878.312 308.882 879.538 309.546C880.789 310.184 881.785 310.989 882.526 311.959V308.895H886.931V330.001H882.526V326.86C881.785 327.856 880.776 328.685 879.5 329.349C878.223 330.013 876.767 330.345 875.133 330.345C873.32 330.345 871.66 329.886 870.153 328.966C868.647 328.022 867.446 326.719 866.553 325.059C865.684 323.374 865.25 321.471 865.25 319.352ZM882.526 319.429C882.526 317.973 882.219 316.709 881.606 315.636C881.019 314.564 880.24 313.747 879.27 313.185C878.299 312.623 877.252 312.342 876.129 312.342C875.005 312.342 873.958 312.623 872.988 313.185C872.017 313.721 871.226 314.526 870.613 315.598C870.026 316.645 869.732 317.896 869.732 319.352C869.732 320.807 870.026 322.084 870.613 323.182C871.226 324.28 872.017 325.123 872.988 325.71C873.984 326.272 875.031 326.553 876.129 326.553C877.252 326.553 878.299 326.272 879.27 325.71C880.24 325.149 881.019 324.332 881.606 323.259C882.219 322.161 882.526 320.884 882.526 319.429Z"
  ></path>
  <path
    style="fill: var(--color-illustrationInterface060)"
    d="M897.033 311.959C897.671 310.887 898.514 310.057 899.561 309.469C900.634 308.856 901.898 308.55 903.353 308.55V313.07H902.242C900.531 313.07 899.229 313.504 898.335 314.372C897.467 315.241 897.033 316.747 897.033 318.892V330.001H892.666V308.895H897.033V311.959Z"
  ></path>
</svg>
