<svg id="nksvg" width="1490" height="838" viewBox="0 0 1490 838" fill="none" xmlns="http://www.w3.org/2000/svg">
<path d="M0 0H1490V838H0V0Z" fill="var(--color-illustrationBackground020)"></path>
<path d="M414 221C414 212.163 421.163 205 430 205H1063C1071.84 205 1079 212.163 1079 221V616C1079 624.837 1071.84 632 1063 632H430C421.163 632 414 624.837 414 616V221Z" fill="var(--color-illustrationInterface020)"></path>
<path d="M618.88 327.538C618.88 362.197 590.783 390.294 556.124 390.294C521.464 390.294 493.367 362.197 493.367 327.538C493.367 292.878 521.464 264.781 556.124 264.781C590.783 264.781 618.88 292.878 618.88 327.538Z" fill="var(--color-illustrationInterface030)"></path>
<path d="M545.28 449.062L422.162 605.554C413.583 616.458 421.351 632.453 435.225 632.453H1057.8C1071.17 632.453 1079.07 617.465 1071.51 606.435L875.886 321.008C868.022 309.535 851.227 309.144 842.838 320.239L698.028 511.766C691.315 520.645 678.716 522.49 669.738 515.908L573.331 445.229C564.476 438.737 552.069 440.433 545.28 449.062Z" fill="var(--color-illustrationPalette030)"></path>
<path fill-rule="evenodd" clip-rule="evenodd" d="M1063 213H430C425.582 213 422 216.582 422 221V616C422 620.418 425.582 624 430 624H1063C1067.42 624 1071 620.418 1071 616V221C1071 216.582 1067.42 213 1063 213ZM430 205C421.163 205 414 212.163 414 221V616C414 624.837 421.163 632 430 632H1063C1071.84 632 1079 624.837 1079 616V221C1079 212.163 1071.84 205 1063 205H430Z" fill="var(--color-illustrationPalette030)"></path>
<path fill-rule="evenodd" clip-rule="evenodd" d="M413 159.5C413 158.395 413.895 157.5 415 157.5H1076.5C1077.6 157.5 1078.5 158.395 1078.5 159.5C1078.5 160.605 1077.6 161.5 1076.5 161.5H415C413.895 161.5 413 160.605 413 159.5Z" fill="var(--color-illustrationPalette050)"></path>
<path fill-rule="evenodd" clip-rule="evenodd" d="M366 628C364.895 628 364 627.105 364 626L364 211.756C364 210.651 364.895 209.756 366 209.756C367.105 209.756 368 210.651 368 211.756L368 626C368 627.105 367.105 628 366 628Z" fill="var(--color-illustrationPalette050)"></path>
<path fill-rule="evenodd" clip-rule="evenodd" d="M1076 138C1077.1 138 1078 138.895 1078 140V177.5C1078 178.605 1077.1 179.5 1076 179.5C1074.9 179.5 1074 178.605 1074 177.5V140C1074 138.895 1074.9 138 1076 138Z" fill="var(--color-illustrationPalette050)"></path>
<path fill-rule="evenodd" clip-rule="evenodd" d="M345 627.242C345 626.138 345.895 625.242 347 625.242H384.5C385.605 625.242 386.5 626.138 386.5 627.242C386.5 628.347 385.605 629.242 384.5 629.242H347C345.895 629.242 345 628.347 345 627.242Z" fill="var(--color-illustrationPalette050)"></path>
<path fill-rule="evenodd" clip-rule="evenodd" d="M414 138C415.105 138 416 138.895 416 140V177.5C416 178.605 415.105 179.5 414 179.5C412.895 179.5 412 178.605 412 177.5V140C412 138.895 412.895 138 414 138Z" fill="var(--color-illustrationPalette050)"></path>
<path fill-rule="evenodd" clip-rule="evenodd" d="M345 210C345 208.895 345.895 208 347 208H384.5C385.605 208 386.5 208.895 386.5 210C386.5 211.105 385.605 212 384.5 212H347C345.895 212 345 211.105 345 210Z" fill="var(--color-illustrationPalette050)"></path>
<path d="M736.716 102.672C738.55 102.672 740.181 103.105 741.608 103.971C743.06 104.838 744.194 106.086 745.01 107.717C745.825 109.348 746.233 111.259 746.233 113.451C746.233 115.667 745.825 117.591 745.01 119.222C744.194 120.853 743.06 122.102 741.608 122.968C740.181 123.834 738.55 124.267 736.716 124.267C734.804 124.267 733.174 123.796 731.823 122.853C730.473 121.91 729.53 120.662 728.995 119.107V134.014H724.637V102.939H728.995V107.832C729.53 106.278 730.473 105.029 731.823 104.086C733.174 103.143 734.804 102.672 736.716 102.672ZM735.378 106.494C734.155 106.494 733.059 106.787 732.091 107.373C731.122 107.934 730.358 108.749 729.797 109.819C729.237 110.864 728.956 112.075 728.956 113.451C728.956 114.852 729.237 116.075 729.797 117.12C730.358 118.165 731.122 118.98 732.091 119.566C733.059 120.127 734.155 120.407 735.378 120.407C737.314 120.407 738.869 119.795 740.041 118.572C741.213 117.324 741.799 115.616 741.799 113.451C741.799 111.31 741.213 109.616 740.041 108.367C738.869 107.118 737.314 106.494 735.378 106.494Z" fill="var(--color-illustrationPalette050)"></path>
<path d="M762.89 124L757.73 116.547L753.22 124H748.366L755.322 113.068L748.289 102.939H753.22L758.265 110.202L762.737 102.939H767.553L760.597 113.565L767.821 124H762.89Z" fill="var(--color-illustrationPalette050)"></path>
<path d="M316.995 405.633C318.702 405.633 320.091 406.168 321.161 407.238C322.231 408.283 322.766 409.71 322.766 411.519C322.766 413.328 322.231 414.755 321.161 415.8C320.091 416.845 318.702 417.367 316.995 417.367C315.287 417.367 313.886 416.845 312.79 415.8C311.72 414.755 311.185 413.328 311.185 411.519C311.185 409.71 311.72 408.283 312.79 407.238C313.886 406.168 315.287 405.633 316.995 405.633ZM333.163 405.977L317.912 433H313.631L328.92 405.977H333.163ZM314.166 411.519C314.166 412.487 314.421 413.265 314.931 413.851C315.44 414.411 316.115 414.691 316.956 414.691C317.797 414.691 318.473 414.398 318.982 413.812C319.517 413.226 319.785 412.462 319.785 411.519C319.785 410.551 319.517 409.774 318.982 409.187C318.473 408.601 317.797 408.308 316.956 408.308C316.115 408.308 315.44 408.601 314.931 409.187C314.421 409.774 314.166 410.551 314.166 411.519ZM329.837 421.61C331.545 421.61 332.933 422.132 334.003 423.177C335.099 424.222 335.647 425.649 335.647 427.458C335.647 429.267 335.099 430.707 334.003 431.777C332.933 432.822 331.545 433.344 329.837 433.344C328.155 433.344 326.767 432.822 325.671 431.777C324.601 430.707 324.066 429.267 324.066 427.458C324.066 425.674 324.601 424.26 325.671 423.215C326.767 422.145 328.155 421.61 329.837 421.61ZM327.047 427.458C327.047 428.426 327.302 429.203 327.811 429.789C328.321 430.375 328.996 430.668 329.837 430.668C330.678 430.668 331.353 430.375 331.863 429.789C332.398 429.203 332.666 428.426 332.666 427.458C332.666 426.515 332.398 425.75 331.863 425.164C331.353 424.578 330.678 424.285 329.837 424.285C328.996 424.285 328.321 424.578 327.811 425.164C327.302 425.75 327.047 426.515 327.047 427.458Z" fill="var(--color-illustrationPalette050)"></path>
</svg>
