<svg id="components-structured-list-options-options-interactive" style="width: 100%; height: 100%" width="1490" height="838" viewBox="0 0 1490 838" fill="none" xmlns="http://www.w3.org/2000/svg" class="css-0"><rect style="fill:var(--color-illustrationBackground020)" width="1490" height="838"></rect><g filter="url(#nk-1368)"><rect style="fill:var(--color-interface030)" width="1072.1" height="137.13" transform="translate(208.948 209.24)"></rect><path style="fill:var(--color-illustrationInterface100)" d="M254.943 261.504V265.404H250.987V289.283H254.943V293.212H246.466V261.504H254.943ZM258.413 277.358C258.413 275.399 258.837 273.656 259.684 272.13C260.532 270.585 261.71 269.389 263.217 268.541C264.743 267.674 266.467 267.241 268.388 267.241C270.743 267.241 272.759 267.863 274.436 269.106C276.113 270.349 277.234 272.045 277.799 274.193H272.486C272.09 273.364 271.525 272.733 270.791 272.299C270.075 271.866 269.255 271.649 268.332 271.649C266.844 271.649 265.638 272.167 264.715 273.204C263.792 274.24 263.33 275.625 263.33 277.358C263.33 279.091 263.792 280.476 264.715 281.512C265.638 282.548 266.844 283.066 268.332 283.066C269.255 283.066 270.075 282.85 270.791 282.416C271.525 281.983 272.09 281.352 272.486 280.523H277.799C277.234 282.671 276.113 284.366 274.436 285.61C272.759 286.834 270.743 287.447 268.388 287.447C266.467 287.447 264.743 287.023 263.217 286.175C261.71 285.308 260.532 284.112 259.684 282.586C258.837 281.06 258.413 279.317 258.413 277.358ZM295.623 279.166C295.623 279.619 295.595 280.09 295.538 280.579H284.602C284.677 281.559 284.988 282.313 285.534 282.84C286.099 283.349 286.787 283.603 287.597 283.603C288.803 283.603 289.641 283.095 290.112 282.077H295.256C294.992 283.113 294.511 284.046 293.814 284.875C293.136 285.704 292.279 286.354 291.243 286.825C290.206 287.296 289.048 287.531 287.767 287.531C286.222 287.531 284.847 287.202 283.641 286.542C282.435 285.883 281.493 284.941 280.815 283.716C280.137 282.492 279.797 281.06 279.797 279.421C279.797 277.782 280.127 276.35 280.787 275.125C281.465 273.901 282.407 272.959 283.612 272.299C284.818 271.64 286.203 271.31 287.767 271.31C289.293 271.31 290.649 271.631 291.836 272.271C293.023 272.912 293.946 273.825 294.606 275.012C295.284 276.199 295.623 277.584 295.623 279.166ZM290.677 277.895C290.677 277.066 290.395 276.406 289.83 275.917C289.264 275.427 288.558 275.182 287.71 275.182C286.9 275.182 286.212 275.417 285.647 275.888C285.101 276.359 284.762 277.028 284.63 277.895H290.677ZM303.005 266.393V287.305H298.172V266.393H303.005ZM311.339 266.393V287.305H306.507V266.393H311.339ZM319.841 271.169V266.676H327.669V287.305H322.638V271.169H319.841ZM340.724 293.212H332.246V289.283H336.202V265.404H332.246V261.504H340.724V293.212Z"></path><path style="fill:var(--color-illustrationInterface100)" d="M712.465 260.911V263.03H709.78V290.414H712.465V292.562H707.378V260.911H712.465ZM716.785 277.443C716.785 275.521 717.218 273.797 718.085 272.271C718.951 270.726 720.129 269.521 721.617 268.654C723.124 267.787 724.792 267.354 726.619 267.354C728.767 267.354 730.641 267.872 732.243 268.908C733.844 269.944 735.012 271.414 735.747 273.317H732.667C732.12 272.13 731.329 271.216 730.293 270.576C729.276 269.935 728.051 269.615 726.619 269.615C725.244 269.615 724.01 269.935 722.917 270.576C721.824 271.216 720.967 272.13 720.345 273.317C719.724 274.485 719.413 275.86 719.413 277.443C719.413 279.006 719.724 280.382 720.345 281.569C720.967 282.737 721.824 283.641 722.917 284.282C724.01 284.922 725.244 285.242 726.619 285.242C728.051 285.242 729.276 284.931 730.293 284.31C731.329 283.669 732.12 282.755 732.667 281.569H735.747C735.012 283.453 733.844 284.913 732.243 285.949C730.641 286.966 728.767 287.475 726.619 287.475C724.792 287.475 723.124 287.051 721.617 286.203C720.129 285.337 718.951 284.14 718.085 282.614C717.218 281.088 716.785 279.364 716.785 277.443ZM753.705 278.969C753.705 279.459 753.677 279.977 753.62 280.523H741.242C741.337 282.049 741.855 283.245 742.797 284.112C743.758 284.96 744.916 285.384 746.273 285.384C747.384 285.384 748.307 285.129 749.042 284.621C749.796 284.093 750.323 283.396 750.625 282.529H753.394C752.98 284.018 752.151 285.233 750.907 286.175C749.664 287.098 748.119 287.56 746.273 287.56C744.803 287.56 743.484 287.23 742.316 286.571C741.167 285.911 740.263 284.979 739.603 283.773C738.944 282.548 738.614 281.135 738.614 279.534C738.614 277.932 738.935 276.529 739.575 275.323C740.216 274.117 741.111 273.194 742.26 272.554C743.428 271.894 744.765 271.565 746.273 271.565C747.742 271.565 749.042 271.885 750.172 272.525C751.303 273.166 752.17 274.051 752.772 275.182C753.394 276.293 753.705 277.556 753.705 278.969ZM751.049 278.432C751.049 277.452 750.832 276.614 750.399 275.917C749.965 275.201 749.372 274.664 748.618 274.306C747.883 273.929 747.064 273.741 746.16 273.741C744.86 273.741 743.748 274.155 742.825 274.984C741.921 275.813 741.403 276.962 741.271 278.432H751.049ZM759.671 266.393V287.305H757.099V266.393H759.671ZM766.626 266.393V287.305H764.054V266.393H766.626ZM777.808 285.242C780.201 283.321 782.075 281.748 783.432 280.523C784.788 279.28 785.928 277.989 786.851 276.651C787.793 275.295 788.264 273.967 788.264 272.667C788.264 271.442 787.963 270.481 787.36 269.784C786.776 269.068 785.824 268.71 784.505 268.71C783.224 268.71 782.226 269.115 781.51 269.926C780.813 270.717 780.436 271.781 780.38 273.119H777.893C777.968 271.009 778.609 269.379 779.814 268.23C781.02 267.081 782.574 266.506 784.477 266.506C786.418 266.506 787.953 267.043 789.084 268.117C790.233 269.191 790.807 270.67 790.807 272.554C790.807 274.117 790.336 275.643 789.394 277.132C788.471 278.601 787.416 279.901 786.229 281.032C785.042 282.143 783.526 283.443 781.679 284.931H791.401V287.079H777.808V285.242ZM800.817 292.562H795.73V290.414H798.415V263.03H795.73V260.911H800.817V292.562Z"></path><mask id="nk-1365" mask-type="alpha" maskUnits="userSpaceOnUse" x="1194" y="244" width="70" height="69"><path d="M1219.38 265.073L1232.41 278.125L1219.38 291.178L1223.39 295.187L1240.45 278.125L1223.39 261.064L1219.38 265.073Z" fill="#0A0A0A"></path></mask><g mask="url(#nk-1365)"><rect style="fill:var(--color-illustrationInterface100)" x="1194.96" y="312.248" width="68.2471" height="68.2471" transform="rotate(-90 1194.96 312.248)"></rect></g></g><rect style="fill:var(--color-interface050)" x="208.948" y="346.37" width="1072.1" height="2"></rect><rect style="fill:var(--color-interfaceBackground)" width="1072.1" height="137.13" transform="translate(208.948 349.5)"></rect><path style="fill:var(--color-illustrationInterface100)" d="M254.943 401.764V405.664H250.987V429.543H254.943V433.471H246.466V401.764H254.943ZM258.413 417.618C258.413 415.658 258.837 413.916 259.684 412.39C260.532 410.845 261.71 409.648 263.217 408.801C264.743 407.934 266.467 407.501 268.388 407.501C270.743 407.501 272.759 408.122 274.436 409.366C276.113 410.609 277.234 412.305 277.799 414.453H272.486C272.09 413.624 271.525 412.992 270.791 412.559C270.075 412.126 269.255 411.909 268.332 411.909C266.844 411.909 265.638 412.427 264.715 413.463C263.792 414.5 263.33 415.884 263.33 417.618C263.33 419.351 263.792 420.736 264.715 421.772C265.638 422.808 266.844 423.326 268.332 423.326C269.255 423.326 270.075 423.109 270.791 422.676C271.525 422.243 272.09 421.612 272.486 420.783H277.799C277.234 422.93 276.113 424.626 274.436 425.869C272.759 427.094 270.743 427.706 268.388 427.706C266.467 427.706 264.743 427.282 263.217 426.435C261.71 425.568 260.532 424.372 259.684 422.846C258.837 421.32 258.413 419.577 258.413 417.618ZM295.623 419.426C295.623 419.878 295.595 420.349 295.538 420.839H284.602C284.677 421.819 284.988 422.573 285.534 423.1C286.099 423.609 286.787 423.863 287.597 423.863C288.803 423.863 289.641 423.354 290.112 422.337H295.256C294.992 423.373 294.511 424.306 293.814 425.135C293.136 425.964 292.279 426.614 291.243 427.085C290.206 427.556 289.048 427.791 287.767 427.791C286.222 427.791 284.847 427.461 283.641 426.802C282.435 426.143 281.493 425.201 280.815 423.976C280.137 422.751 279.797 421.32 279.797 419.681C279.797 418.042 280.127 416.61 280.787 415.385C281.465 414.161 282.407 413.219 283.612 412.559C284.818 411.9 286.203 411.57 287.767 411.57C289.293 411.57 290.649 411.89 291.836 412.531C293.023 413.171 293.946 414.085 294.606 415.272C295.284 416.459 295.623 417.844 295.623 419.426ZM290.677 418.155C290.677 417.326 290.395 416.666 289.83 416.176C289.264 415.687 288.558 415.442 287.71 415.442C286.9 415.442 286.212 415.677 285.647 416.148C285.101 416.619 284.762 417.288 284.63 418.155H290.677ZM303.005 406.653V427.565H298.172V406.653H303.005ZM311.339 406.653V427.565H306.507V406.653H311.339ZM319.841 411.429V406.935H327.669V427.565H322.638V411.429H319.841ZM340.724 433.471H332.246V429.543H336.202V405.664H332.246V401.764H340.724V433.471Z"></path><path style="fill:var(--color-illustrationInterface100)" d="M712.465 401.17V403.29H709.78V430.674H712.465V432.821H707.378V401.17H712.465ZM716.785 417.702C716.785 415.781 717.218 414.057 718.085 412.531C718.951 410.986 720.129 409.78 721.617 408.914C723.124 408.047 724.792 407.614 726.619 407.614C728.767 407.614 730.641 408.132 732.243 409.168C733.844 410.204 735.012 411.674 735.747 413.576H732.667C732.12 412.39 731.329 411.476 730.293 410.835C729.276 410.195 728.051 409.874 726.619 409.874C725.244 409.874 724.01 410.195 722.917 410.835C721.824 411.476 720.967 412.39 720.345 413.576C719.724 414.745 719.413 416.12 719.413 417.702C719.413 419.266 719.724 420.641 720.345 421.828C720.967 422.996 721.824 423.901 722.917 424.541C724.01 425.182 725.244 425.502 726.619 425.502C728.051 425.502 729.276 425.191 730.293 424.57C731.329 423.929 732.12 423.015 732.667 421.828H735.747C735.012 423.712 733.844 425.172 732.243 426.209C730.641 427.226 728.767 427.735 726.619 427.735C724.792 427.735 723.124 427.311 721.617 426.463C720.129 425.596 718.951 424.4 718.085 422.874C717.218 421.348 716.785 419.624 716.785 417.702ZM753.705 419.228C753.705 419.718 753.677 420.236 753.62 420.783H741.242C741.337 422.309 741.855 423.505 742.797 424.372C743.758 425.22 744.916 425.643 746.273 425.643C747.384 425.643 748.307 425.389 749.042 424.88C749.796 424.353 750.323 423.656 750.625 422.789H753.394C752.98 424.278 752.151 425.493 750.907 426.435C749.664 427.358 748.119 427.819 746.273 427.819C744.803 427.819 743.484 427.49 742.316 426.83C741.167 426.171 740.263 425.238 739.603 424.033C738.944 422.808 738.614 421.395 738.614 419.794C738.614 418.192 738.935 416.789 739.575 415.583C740.216 414.377 741.111 413.454 742.26 412.813C743.428 412.154 744.765 411.824 746.273 411.824C747.742 411.824 749.042 412.145 750.172 412.785C751.303 413.426 752.17 414.311 752.772 415.442C753.394 416.553 753.705 417.815 753.705 419.228ZM751.049 418.692C751.049 417.712 750.832 416.873 750.399 416.176C749.965 415.46 749.372 414.924 748.618 414.566C747.883 414.189 747.064 414 746.16 414C744.86 414 743.748 414.415 742.825 415.244C741.921 416.073 741.403 417.222 741.271 418.692H751.049ZM759.671 406.653V427.565H757.099V406.653H759.671ZM766.626 406.653V427.565H764.054V406.653H766.626ZM777.808 425.502C780.201 423.58 782.075 422.007 783.432 420.783C784.788 419.539 785.928 418.249 786.851 416.911C787.793 415.555 788.264 414.226 788.264 412.927C788.264 411.702 787.963 410.741 787.36 410.044C786.776 409.328 785.824 408.97 784.505 408.97C783.224 408.97 782.226 409.375 781.51 410.185C780.813 410.977 780.436 412.041 780.38 413.379H777.893C777.968 411.269 778.609 409.639 779.814 408.49C781.02 407.341 782.574 406.766 784.477 406.766C786.418 406.766 787.953 407.303 789.084 408.377C790.233 409.451 790.807 410.929 790.807 412.813C790.807 414.377 790.336 415.903 789.394 417.392C788.471 418.861 787.416 420.161 786.229 421.291C785.042 422.403 783.526 423.703 781.679 425.191H791.401V427.339H777.808V425.502ZM800.817 432.821H795.73V430.674H798.415V403.29H795.73V401.17H800.817V432.821Z"></path><mask id="nk-1366" mask-type="alpha" maskUnits="userSpaceOnUse" x="1194" y="384" width="70" height="69"><path d="M1219.38 405.333L1232.41 418.385L1219.38 431.438L1223.39 435.447L1240.45 418.385L1223.39 401.323L1219.38 405.333Z" fill="#0A0A0A"></path></mask><g mask="url(#nk-1366)"><rect style="fill:var(--color-illustrationInterface100)" x="1194.96" y="452.508" width="68.2471" height="68.2471" transform="rotate(-90 1194.96 452.508)"></rect></g><rect style="fill:var(--color-interface050)" x="208.948" y="486.63" width="1072.1" height="2"></rect><rect style="fill:var(--color-interfaceBackground)" width="1072.1" height="137.13" transform="translate(208.948 489.63)"></rect><path style="fill:var(--color-illustrationInterface100)" d="M254.943 541.894V545.794H250.987V569.673H254.943V573.601H246.466V541.894H254.943ZM258.413 557.748C258.413 555.788 258.837 554.045 259.684 552.519C260.532 550.975 261.71 549.778 263.217 548.93C264.743 548.064 266.467 547.631 268.388 547.631C270.743 547.631 272.759 548.252 274.436 549.496C276.113 550.739 277.234 552.435 277.799 554.582H272.486C272.09 553.753 271.525 553.122 270.791 552.689C270.075 552.256 269.255 552.039 268.332 552.039C266.844 552.039 265.638 552.557 264.715 553.593C263.792 554.63 263.33 556.014 263.33 557.748C263.33 559.481 263.792 560.866 264.715 561.902C265.638 562.938 266.844 563.456 268.332 563.456C269.255 563.456 270.075 563.239 270.791 562.806C271.525 562.373 272.09 561.742 272.486 560.913H277.799C277.234 563.06 276.113 564.756 274.436 565.999C272.759 567.224 270.743 567.836 268.388 567.836C266.467 567.836 264.743 567.412 263.217 566.565C261.71 565.698 260.532 564.502 259.684 562.976C258.837 561.45 258.413 559.707 258.413 557.748ZM295.623 559.556C295.623 560.008 295.595 560.479 295.538 560.969H284.602C284.677 561.949 284.988 562.702 285.534 563.23C286.099 563.739 286.787 563.993 287.597 563.993C288.803 563.993 289.641 563.484 290.112 562.467H295.256C294.992 563.503 294.511 564.436 293.814 565.265C293.136 566.094 292.279 566.744 291.243 567.215C290.206 567.686 289.048 567.921 287.767 567.921C286.222 567.921 284.847 567.591 283.641 566.932C282.435 566.273 281.493 565.331 280.815 564.106C280.137 562.881 279.797 561.45 279.797 559.81C279.797 558.171 280.127 556.74 280.787 555.515C281.465 554.29 282.407 553.348 283.612 552.689C284.818 552.03 286.203 551.7 287.767 551.7C289.293 551.7 290.649 552.02 291.836 552.661C293.023 553.301 293.946 554.215 294.606 555.402C295.284 556.589 295.623 557.974 295.623 559.556ZM290.677 558.284C290.677 557.456 290.395 556.796 289.83 556.306C289.264 555.816 288.558 555.572 287.71 555.572C286.9 555.572 286.212 555.807 285.647 556.278C285.101 556.749 284.762 557.418 284.63 558.284H290.677ZM303.005 546.783V567.695H298.172V546.783H303.005ZM311.339 546.783V567.695H306.507V546.783H311.339ZM319.841 551.559V547.065H327.669V567.695H322.638V551.559H319.841ZM340.724 573.601H332.246V569.673H336.202V545.794H332.246V541.894H340.724V573.601Z"></path><path style="fill:var(--color-illustrationInterface100)" d="M712.465 541.3V543.42H709.78V570.804H712.465V572.951H707.378V541.3H712.465ZM716.785 557.832C716.785 555.911 717.218 554.187 718.085 552.661C718.951 551.116 720.129 549.91 721.617 549.044C723.124 548.177 724.792 547.744 726.619 547.744C728.767 547.744 730.641 548.262 732.243 549.298C733.844 550.334 735.012 551.804 735.747 553.706H732.667C732.12 552.519 731.329 551.606 730.293 550.965C729.276 550.325 728.051 550.004 726.619 550.004C725.244 550.004 724.01 550.325 722.917 550.965C721.824 551.606 720.967 552.519 720.345 553.706C719.724 554.874 719.413 556.25 719.413 557.832C719.413 559.396 719.724 560.771 720.345 561.958C720.967 563.126 721.824 564.031 722.917 564.671C724.01 565.312 725.244 565.632 726.619 565.632C728.051 565.632 729.276 565.321 730.293 564.699C731.329 564.059 732.12 563.145 732.667 561.958H735.747C735.012 563.842 733.844 565.302 732.243 566.338C730.641 567.356 728.767 567.865 726.619 567.865C724.792 567.865 723.124 567.441 721.617 566.593C720.129 565.726 718.951 564.53 718.085 563.004C717.218 561.478 716.785 559.754 716.785 557.832ZM753.705 559.358C753.705 559.848 753.677 560.366 753.62 560.913H741.242C741.337 562.439 741.855 563.635 742.797 564.502C743.758 565.349 744.916 565.773 746.273 565.773C747.384 565.773 748.307 565.519 749.042 565.01C749.796 564.483 750.323 563.786 750.625 562.919H753.394C752.98 564.407 752.151 565.623 750.907 566.565C749.664 567.488 748.119 567.949 746.273 567.949C744.803 567.949 743.484 567.62 742.316 566.96C741.167 566.301 740.263 565.368 739.603 564.162C738.944 562.938 738.614 561.525 738.614 559.924C738.614 558.322 738.935 556.919 739.575 555.713C740.216 554.507 741.111 553.584 742.26 552.943C743.428 552.284 744.765 551.954 746.273 551.954C747.742 551.954 749.042 552.275 750.172 552.915C751.303 553.556 752.17 554.441 752.772 555.572C753.394 556.683 753.705 557.945 753.705 559.358ZM751.049 558.821C751.049 557.842 750.832 557.003 750.399 556.306C749.965 555.59 749.372 555.053 748.618 554.695C747.883 554.319 747.064 554.13 746.16 554.13C744.86 554.13 743.748 554.545 742.825 555.374C741.921 556.203 741.403 557.352 741.271 558.821H751.049ZM759.671 546.783V567.695H757.099V546.783H759.671ZM766.626 546.783V567.695H764.054V546.783H766.626ZM777.808 565.632C780.201 563.71 782.075 562.137 783.432 560.913C784.788 559.669 785.928 558.379 786.851 557.041C787.793 555.685 788.264 554.356 788.264 553.056C788.264 551.832 787.963 550.871 787.36 550.174C786.776 549.458 785.824 549.1 784.505 549.1C783.224 549.1 782.226 549.505 781.51 550.315C780.813 551.106 780.436 552.171 780.38 553.509H777.893C777.968 551.398 778.609 549.769 779.814 548.62C781.02 547.47 782.574 546.896 784.477 546.896C786.418 546.896 787.953 547.433 789.084 548.507C790.233 549.58 790.807 551.059 790.807 552.943C790.807 554.507 790.336 556.033 789.394 557.521C788.471 558.991 787.416 560.291 786.229 561.421C785.042 562.533 783.526 563.833 781.679 565.321H791.401V567.469H777.808V565.632ZM800.817 572.951H795.73V570.804H798.415V543.42H795.73V541.3H800.817V572.951Z"></path><mask id="nk-1367" mask-type="alpha" maskUnits="userSpaceOnUse" x="1194" y="524" width="70" height="69"><path d="M1219.38 545.463L1232.41 558.515L1219.38 571.567L1223.39 575.577L1240.45 558.515L1223.39 541.453L1219.38 545.463Z" fill="#0A0A0A"></path></mask><g mask="url(#nk-1367)"><rect style="fill:var(--color-illustrationInterface100)" x="1194.96" y="592.637" width="68.2471" height="68.2471" transform="rotate(-90 1194.96 592.637)"></rect></g><rect style="fill:var(--color-interface050)" x="208.948" y="626.76" width="1072.1" height="2"></rect><g filter="url(#nk-1369)"><path style="fill:var(--color-white)" fill-rule="evenodd" clip-rule="evenodd" d="M1047.97 363.875L1043.71 357.372C1040.81 352.931 1034.61 351.311 1029.88 353.745L1030.98 353.178C1029.81 353.782 1029.24 355.289 1029.73 356.54L1035.62 371.784C1036.55 374.2 1038.94 377.618 1040.92 379.334C1040.92 379.334 1052.77 389.145 1052.77 392.823V397.479H1071.97H1077.22H1081.57H1086.37V392.823C1086.37 389.145 1093.62 377.56 1093.62 377.56C1094.95 375.308 1096.06 371.341 1096.06 368.707V349.338C1095.97 345.049 1092.33 341.574 1087.83 341.574C1085.58 341.574 1083.76 343.312 1083.76 345.457V347.008C1083.76 342.72 1080.11 339.244 1075.61 339.244C1073.36 339.244 1071.54 340.982 1071.54 343.128V344.679C1071.54 340.391 1067.9 336.915 1063.4 336.915C1061.15 336.915 1059.33 338.653 1059.33 340.798V342.35C1059.33 341.66 1059.25 341.113 1059.11 340.678L1057.87 320.675C1057.7 317.97 1055.42 315.869 1052.77 315.869C1050.1 315.869 1047.97 318.018 1047.97 320.668V339.872V363.875Z"></path><path style="fill:var(--color-black)" fill-rule="evenodd" clip-rule="evenodd" d="M1031.02 353.246C1034.83 351.851 1039.29 352.817 1042.21 355.576C1042.77 356.109 1043.28 356.708 1043.71 357.371L1047.97 363.874V320.668C1047.97 318.017 1050.1 315.868 1052.77 315.868C1055.42 315.868 1057.7 317.97 1057.87 320.674L1059.11 340.678C1059.12 340.717 1059.13 340.757 1059.15 340.797C1059.26 341.211 1059.33 341.722 1059.33 342.349V340.797C1059.33 340.753 1059.33 340.708 1059.33 340.664C1059.33 340.644 1059.33 340.625 1059.33 340.605C1059.44 338.549 1061.22 336.914 1063.4 336.914C1063.83 336.914 1064.24 336.946 1064.65 337.006C1065.62 337.148 1066.53 337.452 1067.35 337.886C1069.39 338.97 1070.9 340.871 1071.38 343.127C1071.49 343.628 1071.54 344.147 1071.54 344.678V343.127C1071.54 340.981 1073.36 339.244 1075.61 339.244C1075.8 339.244 1075.97 339.249 1076.15 339.26C1077.38 339.337 1078.54 339.675 1079.56 340.216C1081.61 341.3 1083.12 343.2 1083.6 345.456C1083.7 345.958 1083.76 346.476 1083.76 347.008V345.456C1083.76 343.311 1085.58 341.573 1087.83 341.573C1088.01 341.573 1088.19 341.579 1088.37 341.59C1092.62 341.854 1095.98 345.221 1096.06 349.337V368.706C1096.06 371.34 1094.95 375.307 1093.62 377.559C1093.62 377.559 1086.37 389.144 1086.37 392.822V397.479H1052.77V392.822C1052.77 389.144 1040.92 379.334 1040.92 379.334C1038.94 377.617 1036.55 374.199 1035.62 371.783L1029.73 356.54C1029.41 355.704 1029.55 354.755 1030.03 354.037C1030.19 353.792 1030.4 353.573 1030.63 353.396C1030.76 353.343 1030.89 353.293 1031.02 353.246ZM1029.88 353.745C1030.13 353.617 1030.38 353.501 1030.63 353.396C1030.74 353.314 1030.86 353.241 1030.98 353.178L1029.88 353.745ZM1027.29 348.704C1024.2 350.93 1022.98 355.059 1024.35 358.616L1030.25 373.86C1031.52 377.143 1034.44 381.344 1037.14 383.683L1037.19 383.728L1037.24 383.771L1037.24 383.772L1037.26 383.789L1037.35 383.86C1037.43 383.925 1037.54 384.023 1037.69 384.152C1038 384.41 1038.44 384.786 1038.96 385.25C1040.03 386.184 1041.42 387.449 1042.8 388.807C1044.21 390.19 1045.48 391.551 1046.36 392.687C1046.66 393.078 1046.87 393.382 1047.01 393.603V403.239H1092.13V392.92C1092.13 392.944 1092.13 392.957 1092.14 392.958C1092.16 392.961 1092.26 392.419 1092.81 391.132C1093.39 389.767 1094.2 388.153 1095.06 386.547C1095.92 384.959 1096.78 383.468 1097.44 382.368C1097.76 381.82 1098.03 381.375 1098.22 381.069C1098.31 380.916 1098.39 380.799 1098.43 380.721L1098.49 380.635L1098.5 380.613L1098.54 380.554L1098.57 380.494C1099.58 378.795 1100.36 376.727 1100.89 374.816C1101.42 372.908 1101.82 370.714 1101.82 368.706V349.279L1101.82 349.22C1101.67 341.611 1095.28 335.812 1087.83 335.812C1086.61 335.812 1085.42 336.039 1084.31 336.457C1081.89 334.581 1078.84 333.483 1075.61 333.483C1074.39 333.483 1073.2 333.709 1072.09 334.128C1069.9 332.425 1067.19 331.364 1064.29 331.182L1063.62 320.317C1063.26 314.555 1058.44 310.107 1052.77 310.107C1046.9 310.107 1042.21 314.849 1042.21 320.668V348.632C1037.97 346.52 1032.86 346.219 1028.37 348.098M1047.2 393.96C1047.2 393.96 1047.19 393.939 1047.18 393.899C1047.2 393.941 1047.2 393.961 1047.2 393.96ZM1027.29 348.704L1027.25 348.621L1028.35 348.054"></path></g><defs><filter id="nk-1368" x="176.948" y="197.24" width="1136.1" height="201.13" filterUnits="userSpaceOnUse" color-interpolation-filters="sRGB"><feFlood flood-opacity="0" result="BackgroundImageFix"></feFlood><feColorMatrix in="SourceAlpha" type="matrix" values="0 0 0 0 0 0 0 0 0 0 0 0 0 0 0 0 0 0 127 0" result="hardAlpha"></feColorMatrix><feOffset dy="20"></feOffset><feGaussianBlur stdDeviation="16"></feGaussianBlur><feColorMatrix type="matrix" values="0 0 0 0 0.0392157 0 0 0 0 0.0392157 0 0 0 0 0.0392157 0 0 0 0.08 0"></feColorMatrix><feBlend mode="normal" in2="BackgroundImageFix" result="effect1_dropShadow_1407_23866"></feBlend><feBlend mode="normal" in="SourceGraphic" in2="effect1_dropShadow_1407_23866" result="shape"></feBlend></filter><filter id="nk-1369" x="962.077" y="275.28" width="200.758" height="200.758" filterUnits="userSpaceOnUse" color-interpolation-filters="sRGB"><feFlood flood-opacity="0" result="BackgroundImageFix"></feFlood><feColorMatrix in="SourceAlpha" type="matrix" values="0 0 0 0 0 0 0 0 0 0 0 0 0 0 0 0 0 0 127 0" result="hardAlpha"></feColorMatrix><feOffset dy="11.7844"></feOffset><feGaussianBlur stdDeviation="11.7844"></feGaussianBlur><feColorMatrix type="matrix" values="0 0 0 0 0.0392157 0 0 0 0 0.0392157 0 0 0 0 0.0392157 0 0 0 0.08 0"></feColorMatrix><feBlend mode="normal" in2="BackgroundImageFix" result="effect1_dropShadow_1407_23866"></feBlend><feBlend mode="normal" in="SourceGraphic" in2="effect1_dropShadow_1407_23866" result="shape"></feBlend></filter></defs></svg>