<svg id="guides-design-quickstart-step1-access-to-figma-open-in-app" style="width: 100%; height: 100%" width="1345" height="759" viewBox="0 0 1345 759" fill="none" xmlns="http://www.w3.org/2000/svg" class="css-0"><rect style="fill:var(--color-illustrationBackground020)" width="1345" height="759"></rect><path style="fill:var(--color-illustrationInterface010)" d="M313 173C313 164.163 320.163 157 329 157H1016C1024.84 157 1032 164.163 1032 173V587C1032 595.837 1024.84 603 1016 603H329C320.163 603 313 595.837 313 587V173Z"></path><path style="fill:var(--color-illustrationInterface030)" fill-rule="evenodd" clip-rule="evenodd" d="M1016 160H329C321.82 160 316 165.82 316 173V587C316 594.18 321.82 600 329 600H1016C1023.18 600 1029 594.18 1029 587V173C1029 165.82 1023.18 160 1016 160ZM329 157C320.163 157 313 164.163 313 173V587C313 595.837 320.163 603 329 603H1016C1024.84 603 1032 595.837 1032 587V173C1032 164.163 1024.84 157 1016 157H329Z"></path><path style="fill:var(--color-white)" d="M313 173C313 164.163 320.163 157 329 157H1016C1024.84 157 1032 164.163 1032 173V587C1032 595.837 1024.84 603 1016 603H329C320.163 603 313 595.837 313 587V173Z"></path><path style="fill:var(--color-illustrationPalette020)" fill-rule="evenodd" clip-rule="evenodd" d="M1016 160H329C321.82 160 316 165.82 316 173V587C316 594.18 321.82 600 329 600H1016C1023.18 600 1029 594.18 1029 587V173C1029 165.82 1023.18 160 1016 160ZM329 157C320.163 157 313 164.163 313 173V587C313 595.837 320.163 603 329 603H1016C1024.84 603 1032 595.837 1032 587V173C1032 164.163 1024.84 157 1016 157H329Z"></path><path style="fill:var(--color-illustrationPalette020)" d="M313 173C313 164.163 320.163 157 329 157H1016C1024.84 157 1032 164.163 1032 173V217H313V173Z"></path><path style="fill:var(--color-white)" d="M404 183.696C404 176.684 407.582 171 412 171H486C490.418 171 494 176.684 494 183.696V244H404V183.696Z"></path><path style="fill:var(--color-illustrationPalette010)" d="M612 179C612 174.582 615.582 171 620 171H694C698.418 171 702 174.582 702 179V195C702 199.418 698.418 203 694 203H620C615.582 203 612 199.418 612 195V179Z"></path><path style="fill:var(--color-illustrationPalette010)" d="M508 179C508 174.582 511.582 171 516 171H590C594.418 171 598 174.582 598 179V195C598 199.418 594.418 203 590 203H516C511.582 203 508 199.418 508 195V179Z"></path><mask id="nk-869" mask-type="alpha" maskUnits="userSpaceOnUse" x="332" y="163" width="48" height="48"><path fill-rule="evenodd" clip-rule="evenodd" d="M342 171H370C372.22 171 374 172.8 374 175V199C374 201.2 372.2 203 370 203H342C339.78 203 338 201.2 338 199V175C338 172.8 339.78 171 342 171ZM342 199H370V179H342V199Z" fill="#0A0A0A"></path></mask><g mask="url(#nk-869)"><rect style="fill:var(--color-white)" x="332" y="163" width="48" height="48"></rect></g><path style="fill:var(--color-illustrationPalette020)" d="M433 183H465V191H433V183Z"></path><path style="fill:var(--color-illustrationPalette020)" d="M537 183H569V191H537V183Z"></path><path style="fill:var(--color-illustrationPalette020)" d="M641 183H673V191H641V183Z"></path><path style="fill:var(--color-illustrationPalette040)" d="M626.183 331V314.2H628.199V329.392H636.023V331H626.183Z"></path><path style="fill:var(--color-illustrationPalette040)" d="M643.58 331.288C642.46 331.288 641.452 331.032 640.556 330.52C639.66 330.008 638.948 329.288 638.42 328.36C637.908 327.416 637.652 326.312 637.652 325.048C637.652 323.784 637.916 322.688 638.444 321.76C638.972 320.816 639.684 320.088 640.58 319.576C641.492 319.064 642.508 318.808 643.628 318.808C644.748 318.808 645.756 319.064 646.652 319.576C647.548 320.088 648.252 320.816 648.764 321.76C649.292 322.688 649.556 323.784 649.556 325.048C649.556 326.312 649.292 327.416 648.764 328.36C648.236 329.288 647.516 330.008 646.604 330.52C645.708 331.032 644.7 331.288 643.58 331.288ZM643.58 329.56C644.268 329.56 644.908 329.392 645.5 329.056C646.092 328.72 646.572 328.216 646.94 327.544C647.308 326.872 647.492 326.04 647.492 325.048C647.492 324.056 647.308 323.224 646.94 322.552C646.588 321.88 646.116 321.376 645.524 321.04C644.932 320.704 644.3 320.536 643.628 320.536C642.94 320.536 642.3 320.704 641.708 321.04C641.116 321.376 640.636 321.88 640.268 322.552C639.9 323.224 639.716 324.056 639.716 325.048C639.716 326.04 639.9 326.872 640.268 327.544C640.636 328.216 641.108 328.72 641.684 329.056C642.276 329.392 642.908 329.56 643.58 329.56Z"></path><path style="fill:var(--color-illustrationPalette040)" d="M656.548 327.256C655.876 327.256 655.26 327.168 654.7 326.992L653.5 328.12C653.676 328.248 653.892 328.36 654.148 328.456C654.42 328.536 654.804 328.616 655.3 328.696C655.796 328.76 656.492 328.832 657.388 328.912C658.988 329.024 660.132 329.392 660.82 330.016C661.508 330.64 661.852 331.456 661.852 332.464C661.852 333.152 661.66 333.808 661.276 334.432C660.908 335.056 660.332 335.568 659.548 335.968C658.78 336.368 657.788 336.568 656.572 336.568C655.5 336.568 654.548 336.424 653.716 336.136C652.884 335.864 652.236 335.44 651.772 334.864C651.308 334.304 651.076 333.592 651.076 332.728C651.076 332.28 651.196 331.792 651.436 331.264C651.676 330.752 652.124 330.264 652.78 329.8C652.428 329.656 652.124 329.504 651.868 329.344C651.628 329.168 651.404 328.976 651.196 328.768V328.216L653.236 326.2C652.292 325.4 651.82 324.344 651.82 323.032C651.82 322.248 652.004 321.536 652.372 320.896C652.74 320.256 653.276 319.752 653.98 319.384C654.684 319 655.54 318.808 656.548 318.808C657.236 318.808 657.86 318.904 658.42 319.096H662.812V320.608L660.58 320.704C661.044 321.376 661.276 322.152 661.276 323.032C661.276 323.816 661.084 324.528 660.7 325.168C660.332 325.808 659.796 326.32 659.092 326.704C658.404 327.072 657.556 327.256 656.548 327.256ZM656.548 325.6C657.396 325.6 658.068 325.384 658.564 324.952C659.076 324.504 659.332 323.864 659.332 323.032C659.332 322.216 659.076 321.592 658.564 321.16C658.068 320.712 657.396 320.488 656.548 320.488C655.684 320.488 654.996 320.712 654.484 321.16C653.988 321.592 653.74 322.216 653.74 323.032C653.74 323.864 653.988 324.504 654.484 324.952C654.996 325.384 655.684 325.6 656.548 325.6ZM653.044 332.536C653.044 333.336 653.38 333.928 654.052 334.312C654.724 334.712 655.564 334.912 656.572 334.912C657.564 334.912 658.356 334.696 658.948 334.264C659.556 333.832 659.86 333.256 659.86 332.536C659.86 332.024 659.652 331.576 659.236 331.192C658.82 330.824 658.052 330.608 656.932 330.544C656.052 330.48 655.292 330.4 654.652 330.304C653.996 330.656 653.564 331.032 653.356 331.432C653.148 331.848 653.044 332.216 653.044 332.536Z"></path><path style="fill:var(--color-illustrationPalette040)" d="M672.662 316.456C672.262 316.456 671.926 316.328 671.654 316.072C671.398 315.8 671.27 315.464 671.27 315.064C671.27 314.68 671.398 314.36 671.654 314.104C671.926 313.848 672.262 313.72 672.662 313.72C673.046 313.72 673.374 313.848 673.646 314.104C673.918 314.36 674.054 314.68 674.054 315.064C674.054 315.464 673.918 315.8 673.646 316.072C673.374 316.328 673.046 316.456 672.662 316.456ZM671.654 331V319.096H673.67V331H671.654Z"></path><path style="fill:var(--color-illustrationPalette040)" d="M677.18 331V319.096H679.004L679.124 321.232C679.508 320.48 680.06 319.888 680.78 319.456C681.5 319.024 682.316 318.808 683.228 318.808C684.636 318.808 685.756 319.24 686.588 320.104C687.436 320.952 687.86 322.264 687.86 324.04V331H685.844V324.256C685.844 321.776 684.82 320.536 682.772 320.536C681.748 320.536 680.892 320.912 680.204 321.664C679.532 322.4 679.196 323.456 679.196 324.832V331H677.18Z"></path><path style="fill:var(--color-illustrationPalette040)" d="M701.226 331.288C700.234 331.288 699.41 331.12 698.754 330.784C698.098 330.448 697.61 330 697.29 329.44C696.97 328.88 696.81 328.272 696.81 327.616C696.81 326.4 697.274 325.464 698.202 324.808C699.13 324.152 700.394 323.824 701.994 323.824H705.21V323.68C705.21 322.64 704.938 321.856 704.394 321.328C703.85 320.784 703.122 320.512 702.21 320.512C701.426 320.512 700.746 320.712 700.17 321.112C699.61 321.496 699.258 322.064 699.114 322.816H697.05C697.13 321.952 697.418 321.224 697.914 320.632C698.426 320.04 699.058 319.592 699.81 319.288C700.562 318.968 701.362 318.808 702.21 318.808C703.874 318.808 705.122 319.256 705.954 320.152C706.802 321.032 707.226 322.208 707.226 323.68V331H705.426L705.306 328.864C704.97 329.536 704.474 330.112 703.818 330.592C703.178 331.056 702.314 331.288 701.226 331.288ZM701.538 329.584C702.306 329.584 702.962 329.384 703.506 328.984C704.066 328.584 704.49 328.064 704.778 327.424C705.066 326.784 705.21 326.112 705.21 325.408V325.384H702.162C700.978 325.384 700.138 325.592 699.642 326.008C699.162 326.408 698.922 326.912 698.922 327.52C698.922 328.144 699.146 328.648 699.594 329.032C700.058 329.4 700.706 329.584 701.538 329.584Z"></path><path style="fill:var(--color-illustrationPalette040)" d="M714.81 331.288C713.386 331.288 712.202 330.928 711.258 330.208C710.314 329.488 709.762 328.512 709.602 327.28H711.666C711.794 327.904 712.122 328.448 712.65 328.912C713.194 329.36 713.922 329.584 714.834 329.584C715.682 329.584 716.306 329.408 716.706 329.056C717.106 328.688 717.306 328.256 717.306 327.76C717.306 327.04 717.042 326.56 716.514 326.32C716.002 326.08 715.274 325.864 714.33 325.672C713.69 325.544 713.05 325.36 712.41 325.12C711.77 324.88 711.234 324.544 710.802 324.112C710.37 323.664 710.154 323.08 710.154 322.36C710.154 321.32 710.538 320.472 711.306 319.816C712.09 319.144 713.146 318.808 714.474 318.808C715.738 318.808 716.77 319.128 717.57 319.768C718.386 320.392 718.858 321.288 718.986 322.456H716.994C716.914 321.848 716.65 321.376 716.202 321.04C715.77 320.688 715.186 320.512 714.45 320.512C713.73 320.512 713.17 320.664 712.77 320.968C712.386 321.272 712.194 321.672 712.194 322.168C712.194 322.648 712.442 323.024 712.938 323.296C713.45 323.568 714.138 323.8 715.002 323.992C715.738 324.152 716.434 324.352 717.09 324.592C717.762 324.816 718.306 325.16 718.722 325.624C719.154 326.072 719.37 326.728 719.37 327.592C719.386 328.664 718.978 329.552 718.146 330.256C717.33 330.944 716.218 331.288 714.81 331.288Z"></path><path style="fill:var(--color-illustrationPalette040)" d="M546.019 367.28L548.971 360.848H548.275L543.547 350.096H545.731L549.667 359.36L553.843 350.096H555.931L548.131 367.28H546.019Z"></path><path style="fill:var(--color-illustrationPalette040)" d="M562.358 362.288C561.238 362.288 560.23 362.032 559.334 361.52C558.438 361.008 557.726 360.288 557.198 359.36C556.686 358.416 556.43 357.312 556.43 356.048C556.43 354.784 556.694 353.688 557.222 352.76C557.75 351.816 558.462 351.088 559.358 350.576C560.27 350.064 561.286 349.808 562.406 349.808C563.526 349.808 564.534 350.064 565.43 350.576C566.326 351.088 567.03 351.816 567.542 352.76C568.07 353.688 568.334 354.784 568.334 356.048C568.334 357.312 568.07 358.416 567.542 359.36C567.014 360.288 566.294 361.008 565.382 361.52C564.486 362.032 563.478 362.288 562.358 362.288ZM562.358 360.56C563.046 360.56 563.686 360.392 564.278 360.056C564.87 359.72 565.35 359.216 565.718 358.544C566.086 357.872 566.27 357.04 566.27 356.048C566.27 355.056 566.086 354.224 565.718 353.552C565.366 352.88 564.894 352.376 564.302 352.04C563.71 351.704 563.078 351.536 562.406 351.536C561.718 351.536 561.078 351.704 560.486 352.04C559.894 352.376 559.414 352.88 559.046 353.552C558.678 354.224 558.494 355.056 558.494 356.048C558.494 357.04 558.678 357.872 559.046 358.544C559.414 359.216 559.886 359.72 560.462 360.056C561.054 360.392 561.686 360.56 562.358 360.56Z"></path><path style="fill:var(--color-illustrationPalette040)" d="M575.481 362.288C574.073 362.288 572.953 361.864 572.121 361.016C571.289 360.152 570.873 358.832 570.873 357.056V350.096H572.889V356.84C572.889 359.32 573.905 360.56 575.937 360.56C576.977 360.56 577.833 360.192 578.505 359.456C579.193 358.704 579.537 357.64 579.537 356.264V350.096H581.553V362H579.729L579.585 359.864C579.217 360.616 578.665 361.208 577.929 361.64C577.209 362.072 576.393 362.288 575.481 362.288Z"></path><path style="fill:var(--color-illustrationPalette040)" d="M584.871 362V350.096H586.695L586.863 352.376C587.231 351.592 587.791 350.968 588.543 350.504C589.295 350.04 590.223 349.808 591.327 349.808V351.92H590.775C590.071 351.92 589.423 352.048 588.831 352.304C588.239 352.544 587.767 352.96 587.415 353.552C587.063 354.144 586.887 354.96 586.887 356V362H584.871Z"></path><path style="fill:var(--color-illustrationPalette040)" d="M593.325 362.12C592.925 362.12 592.589 361.992 592.317 361.736C592.061 361.464 591.933 361.136 591.933 360.752C591.933 360.368 592.061 360.048 592.317 359.792C592.589 359.52 592.925 359.384 593.325 359.384C593.709 359.384 594.029 359.52 594.285 359.792C594.557 360.048 594.693 360.368 594.693 360.752C594.693 361.136 594.557 361.464 594.285 361.736C594.029 361.992 593.709 362.12 593.325 362.12Z"></path><path style="fill:var(--color-illustrationPalette040)" d="M597.317 362V350.096H599.141L599.261 352.232C599.645 351.48 600.197 350.888 600.917 350.456C601.637 350.024 602.453 349.808 603.365 349.808C604.773 349.808 605.893 350.24 606.725 351.104C607.573 351.952 607.997 353.264 607.997 355.04V362H605.981V355.256C605.981 352.776 604.957 351.536 602.909 351.536C601.885 351.536 601.029 351.912 600.341 352.664C599.669 353.4 599.333 354.456 599.333 355.832V362H597.317Z"></path><path style="fill:var(--color-illustrationPalette040)" d="M615.011 362.288C614.019 362.288 613.195 362.12 612.539 361.784C611.883 361.448 611.395 361 611.075 360.44C610.755 359.88 610.595 359.272 610.595 358.616C610.595 357.4 611.059 356.464 611.987 355.808C612.915 355.152 614.179 354.824 615.779 354.824H618.995V354.68C618.995 353.64 618.723 352.856 618.179 352.328C617.635 351.784 616.907 351.512 615.995 351.512C615.211 351.512 614.531 351.712 613.955 352.112C613.395 352.496 613.043 353.064 612.899 353.816H610.835C610.915 352.952 611.203 352.224 611.699 351.632C612.211 351.04 612.843 350.592 613.595 350.288C614.347 349.968 615.147 349.808 615.995 349.808C617.659 349.808 618.907 350.256 619.739 351.152C620.587 352.032 621.011 353.208 621.011 354.68V362H619.211L619.091 359.864C618.755 360.536 618.259 361.112 617.603 361.592C616.963 362.056 616.099 362.288 615.011 362.288ZM615.323 360.584C616.091 360.584 616.747 360.384 617.291 359.984C617.851 359.584 618.275 359.064 618.563 358.424C618.851 357.784 618.995 357.112 618.995 356.408V356.384H615.947C614.763 356.384 613.923 356.592 613.427 357.008C612.947 357.408 612.707 357.912 612.707 358.52C612.707 359.144 612.931 359.648 613.379 360.032C613.843 360.4 614.491 360.584 615.323 360.584Z"></path><path style="fill:var(--color-illustrationPalette040)" d="M624.035 362V350.096H625.859L626.003 351.824C626.387 351.184 626.899 350.688 627.539 350.336C628.179 349.984 628.899 349.808 629.699 349.808C630.643 349.808 631.451 350 632.123 350.384C632.811 350.768 633.339 351.352 633.707 352.136C634.123 351.416 634.691 350.848 635.411 350.432C636.147 350.016 636.939 349.808 637.787 349.808C639.211 349.808 640.347 350.24 641.195 351.104C642.043 351.952 642.467 353.264 642.467 355.04V362H640.475V355.256C640.475 354.024 640.227 353.096 639.731 352.472C639.235 351.848 638.523 351.536 637.595 351.536C636.635 351.536 635.835 351.912 635.195 352.664C634.571 353.4 634.259 354.456 634.259 355.832V362H632.243V355.256C632.243 354.024 631.995 353.096 631.499 352.472C631.003 351.848 630.291 351.536 629.363 351.536C628.419 351.536 627.627 351.912 626.987 352.664C626.363 353.4 626.051 354.456 626.051 355.832V362H624.035Z"></path><path style="fill:var(--color-illustrationPalette040)" d="M650.856 362.288C649.72 362.288 648.712 362.032 647.832 361.52C646.952 360.992 646.256 360.264 645.744 359.336C645.248 358.408 645 357.312 645 356.048C645 354.8 645.248 353.712 645.744 352.784C646.24 351.84 646.928 351.112 647.808 350.6C648.704 350.072 649.736 349.808 650.904 349.808C652.056 349.808 653.048 350.072 653.88 350.6C654.728 351.112 655.376 351.792 655.824 352.64C656.272 353.488 656.496 354.4 656.496 355.376C656.496 355.552 656.488 355.728 656.472 355.904C656.472 356.08 656.472 356.28 656.472 356.504H646.992C647.04 357.416 647.248 358.176 647.616 358.784C648 359.376 648.472 359.824 649.032 360.128C649.608 360.432 650.216 360.584 650.856 360.584C651.688 360.584 652.384 360.392 652.944 360.008C653.504 359.624 653.912 359.104 654.168 358.448H656.16C655.84 359.552 655.224 360.472 654.312 361.208C653.416 361.928 652.264 362.288 650.856 362.288ZM650.856 351.512C649.896 351.512 649.04 351.808 648.288 352.4C647.552 352.976 647.128 353.824 647.016 354.944H654.504C654.456 353.872 654.088 353.032 653.4 352.424C652.712 351.816 651.864 351.512 650.856 351.512Z"></path><path style="fill:var(--color-illustrationPalette040)" d="M667.88 366.776C666.168 366.776 664.664 366.448 663.368 365.792C662.088 365.136 661.088 364.208 660.368 363.008C659.664 361.808 659.312 360.384 659.312 358.736C659.312 357.04 659.608 355.456 660.2 353.984C660.792 352.512 661.624 351.224 662.696 350.12C663.768 349.016 665.032 348.16 666.488 347.552C667.944 346.944 669.544 346.64 671.288 346.64C673.064 346.64 674.608 346.984 675.92 347.672C677.232 348.344 678.24 349.288 678.944 350.504C679.664 351.704 680.024 353.104 680.024 354.704C680.024 355.616 679.912 356.52 679.688 357.416C679.464 358.296 679.128 359.096 678.68 359.816C678.248 360.52 677.712 361.088 677.072 361.52C676.448 361.936 675.728 362.144 674.912 362.144C674.096 362.144 673.472 361.936 673.04 361.52C672.624 361.104 672.392 360.544 672.344 359.84C671.848 360.56 671.216 361.128 670.448 361.544C669.696 361.944 668.896 362.144 668.048 362.144C666.832 362.144 665.88 361.776 665.192 361.04C664.52 360.304 664.184 359.312 664.184 358.064C664.184 357.184 664.32 356.344 664.592 355.544C664.88 354.728 665.28 354.008 665.792 353.384C666.304 352.744 666.912 352.24 667.616 351.872C668.32 351.504 669.104 351.32 669.968 351.32C671.584 351.32 672.632 351.984 673.112 353.312L673.424 351.584H675.128L673.928 358.448C673.816 359.136 673.848 359.696 674.024 360.128C674.216 360.544 674.608 360.752 675.2 360.752C675.712 360.752 676.168 360.576 676.568 360.224C676.968 359.856 677.304 359.376 677.576 358.784C677.848 358.176 678.048 357.528 678.176 356.84C678.32 356.136 678.392 355.456 678.392 354.8C678.392 352.704 677.736 351.056 676.424 349.856C675.128 348.656 673.336 348.056 671.048 348.056C669.592 348.056 668.248 348.328 667.016 348.872C665.8 349.416 664.736 350.168 663.824 351.128C662.912 352.088 662.2 353.2 661.688 354.464C661.192 355.728 660.944 357.096 660.944 358.568C660.944 360.008 661.24 361.232 661.832 362.24C662.424 363.248 663.264 364.016 664.352 364.544C665.44 365.072 666.736 365.336 668.24 365.336C668.928 365.336 669.616 365.264 670.304 365.12C670.992 364.992 671.632 364.792 672.224 364.52L672.56 365.888C671.12 366.48 669.56 366.776 667.88 366.776ZM668.648 360.608C669.336 360.608 669.968 360.424 670.544 360.056C671.12 359.688 671.592 359.184 671.96 358.544C672.328 357.888 672.552 357.136 672.632 356.288C672.744 355.344 672.576 354.536 672.128 353.864C671.696 353.192 670.992 352.856 670.016 352.856C669.2 352.856 668.488 353.096 667.88 353.576C667.288 354.04 666.832 354.648 666.512 355.4C666.192 356.152 666.032 356.936 666.032 357.752C666.032 358.616 666.248 359.312 666.68 359.84C667.128 360.352 667.784 360.608 668.648 360.608Z"></path><path style="fill:var(--color-illustrationPalette040)" d="M683.473 362V350.096H685.297L685.417 352.232C685.801 351.48 686.353 350.888 687.073 350.456C687.793 350.024 688.609 349.808 689.521 349.808C690.929 349.808 692.049 350.24 692.881 351.104C693.729 351.952 694.153 353.264 694.153 355.04V362H692.137V355.256C692.137 352.776 691.113 351.536 689.065 351.536C688.041 351.536 687.185 351.912 686.497 352.664C685.825 353.4 685.489 354.456 685.489 355.832V362H683.473Z"></path><path style="fill:var(--color-illustrationPalette040)" d="M702.559 362.288C701.423 362.288 700.415 362.032 699.535 361.52C698.655 360.992 697.959 360.264 697.447 359.336C696.951 358.408 696.703 357.312 696.703 356.048C696.703 354.8 696.951 353.712 697.447 352.784C697.943 351.84 698.631 351.112 699.511 350.6C700.407 350.072 701.439 349.808 702.607 349.808C703.759 349.808 704.751 350.072 705.583 350.6C706.431 351.112 707.079 351.792 707.527 352.64C707.975 353.488 708.199 354.4 708.199 355.376C708.199 355.552 708.191 355.728 708.175 355.904C708.175 356.08 708.175 356.28 708.175 356.504H698.695C698.743 357.416 698.951 358.176 699.319 358.784C699.703 359.376 700.175 359.824 700.735 360.128C701.311 360.432 701.919 360.584 702.559 360.584C703.391 360.584 704.087 360.392 704.647 360.008C705.207 359.624 705.615 359.104 705.871 358.448H707.863C707.543 359.552 706.927 360.472 706.015 361.208C705.119 361.928 703.967 362.288 702.559 362.288ZM702.559 351.512C701.599 351.512 700.743 351.808 699.991 352.4C699.255 352.976 698.831 353.824 698.719 354.944H706.207C706.159 353.872 705.791 353.032 705.103 352.424C704.415 351.816 703.567 351.512 702.559 351.512Z"></path><path style="fill:var(--color-illustrationPalette040)" d="M712.803 362L709.323 350.096H711.339L713.859 359.432L716.643 350.096H718.923L721.731 359.432L724.227 350.096H726.267L722.787 362H720.723L717.795 352.184L714.867 362H712.803Z"></path><path style="fill:var(--color-illustrationPalette040)" d="M733.056 362.288C731.632 362.288 730.448 361.928 729.504 361.208C728.56 360.488 728.008 359.512 727.848 358.28H729.912C730.04 358.904 730.368 359.448 730.896 359.912C731.44 360.36 732.168 360.584 733.08 360.584C733.928 360.584 734.552 360.408 734.952 360.056C735.352 359.688 735.552 359.256 735.552 358.76C735.552 358.04 735.288 357.56 734.76 357.32C734.248 357.08 733.52 356.864 732.576 356.672C731.936 356.544 731.296 356.36 730.656 356.12C730.016 355.88 729.48 355.544 729.048 355.112C728.616 354.664 728.4 354.08 728.4 353.36C728.4 352.32 728.784 351.472 729.552 350.816C730.336 350.144 731.392 349.808 732.72 349.808C733.984 349.808 735.016 350.128 735.816 350.768C736.632 351.392 737.104 352.288 737.232 353.456H735.24C735.16 352.848 734.896 352.376 734.448 352.04C734.016 351.688 733.432 351.512 732.696 351.512C731.976 351.512 731.416 351.664 731.016 351.968C730.632 352.272 730.44 352.672 730.44 353.168C730.44 353.648 730.688 354.024 731.184 354.296C731.696 354.568 732.384 354.8 733.248 354.992C733.984 355.152 734.68 355.352 735.336 355.592C736.008 355.816 736.552 356.16 736.968 356.624C737.4 357.072 737.616 357.728 737.616 358.592C737.632 359.664 737.224 360.552 736.392 361.256C735.576 361.944 734.464 362.288 733.056 362.288Z"></path><path style="fill:var(--color-illustrationPalette040)" d="M741.192 362.12C740.792 362.12 740.456 361.992 740.184 361.736C739.928 361.464 739.8 361.136 739.8 360.752C739.8 360.368 739.928 360.048 740.184 359.792C740.456 359.52 740.792 359.384 741.192 359.384C741.576 359.384 741.896 359.52 742.152 359.792C742.424 360.048 742.56 360.368 742.56 360.752C742.56 361.136 742.424 361.464 742.152 361.736C741.896 361.992 741.576 362.12 741.192 362.12Z"></path><path style="fill:var(--color-illustrationPalette040)" d="M750.656 362.288C749.52 362.288 748.496 362.032 747.584 361.52C746.688 360.992 745.976 360.264 745.448 359.336C744.936 358.392 744.68 357.296 744.68 356.048C744.68 354.8 744.936 353.712 745.448 352.784C745.976 351.84 746.688 351.112 747.584 350.6C748.496 350.072 749.52 349.808 750.656 349.808C752.064 349.808 753.248 350.176 754.208 350.912C755.184 351.648 755.8 352.632 756.056 353.864H753.992C753.832 353.128 753.44 352.56 752.816 352.16C752.192 351.744 751.464 351.536 750.632 351.536C749.96 351.536 749.328 351.704 748.736 352.04C748.144 352.376 747.664 352.88 747.296 353.552C746.928 354.224 746.744 355.056 746.744 356.048C746.744 357.04 746.928 357.872 747.296 358.544C747.664 359.216 748.144 359.728 748.736 360.08C749.328 360.416 749.96 360.584 750.632 360.584C751.464 360.584 752.192 360.384 752.816 359.984C753.44 359.568 753.832 358.984 753.992 358.232H756.056C755.816 359.432 755.208 360.408 754.232 361.16C753.256 361.912 752.064 362.288 750.656 362.288Z"></path><path style="fill:var(--color-illustrationPalette040)" d="M764.295 362.288C763.175 362.288 762.167 362.032 761.271 361.52C760.375 361.008 759.663 360.288 759.135 359.36C758.623 358.416 758.367 357.312 758.367 356.048C758.367 354.784 758.631 353.688 759.159 352.76C759.687 351.816 760.399 351.088 761.295 350.576C762.207 350.064 763.223 349.808 764.343 349.808C765.463 349.808 766.471 350.064 767.367 350.576C768.263 351.088 768.967 351.816 769.479 352.76C770.007 353.688 770.271 354.784 770.271 356.048C770.271 357.312 770.007 358.416 769.479 359.36C768.951 360.288 768.231 361.008 767.319 361.52C766.423 362.032 765.415 362.288 764.295 362.288ZM764.295 360.56C764.983 360.56 765.623 360.392 766.215 360.056C766.807 359.72 767.287 359.216 767.655 358.544C768.023 357.872 768.207 357.04 768.207 356.048C768.207 355.056 768.023 354.224 767.655 353.552C767.303 352.88 766.831 352.376 766.239 352.04C765.647 351.704 765.015 351.536 764.343 351.536C763.655 351.536 763.015 351.704 762.423 352.04C761.831 352.376 761.351 352.88 760.983 353.552C760.615 354.224 760.431 355.056 760.431 356.048C760.431 357.04 760.615 357.872 760.983 358.544C761.351 359.216 761.823 359.72 762.399 360.056C762.991 360.392 763.623 360.56 764.295 360.56Z"></path><path style="fill:var(--color-illustrationPalette040)" d="M773.77 362.12C773.37 362.12 773.034 361.992 772.762 361.736C772.506 361.464 772.378 361.136 772.378 360.752C772.378 360.368 772.506 360.048 772.762 359.792C773.034 359.52 773.37 359.384 773.77 359.384C774.154 359.384 774.474 359.52 774.73 359.792C775.002 360.048 775.138 360.368 775.138 360.752C775.138 361.136 775.002 361.464 774.73 361.736C774.474 361.992 774.154 362.12 773.77 362.12Z"></path><path style="fill:var(--color-illustrationPalette040)" d="M782.106 362.288C780.698 362.288 779.578 361.864 778.746 361.016C777.914 360.152 777.498 358.832 777.498 357.056V350.096H779.514V356.84C779.514 359.32 780.53 360.56 782.562 360.56C783.602 360.56 784.458 360.192 785.13 359.456C785.818 358.704 786.162 357.64 786.162 356.264V350.096H788.178V362H786.354L786.21 359.864C785.842 360.616 785.29 361.208 784.554 361.64C783.834 362.072 783.018 362.288 782.106 362.288Z"></path><path style="fill:var(--color-illustrationPalette040)" d="M791.496 362V344.72H793.512V355.112L798.384 350.096H800.856L795.576 355.472L801.528 362H798.96L793.512 355.832V362H791.496Z"></path><path style="fill:var(--color-illustrationPalette040)" d="M558 413C558 417.418 561.582 421 566 421H779C783.418 421 787 417.418 787 413V389C787 384.582 783.418 381 779 381H566C561.582 381 558 384.582 558 389V413Z"></path><path style="fill:var(--color-white)" d="M590.664 406.204C589.496 406.204 588.471 405.949 587.587 405.439C586.714 404.918 586.028 404.192 585.53 403.263C585.042 402.334 584.799 401.263 584.799 400.05C584.799 398.837 585.042 397.772 585.53 396.854C586.028 395.925 586.714 395.199 587.587 394.678C588.471 394.157 589.496 393.896 590.664 393.896C591.842 393.896 592.868 394.157 593.741 394.678C594.625 395.199 595.31 395.925 595.798 396.854C596.285 397.772 596.529 398.837 596.529 400.05C596.529 401.263 596.285 402.334 595.798 403.263C595.31 404.192 594.625 404.918 593.741 405.439C592.868 405.949 591.842 406.204 590.664 406.204ZM590.664 404.946C591.536 404.946 592.301 404.753 592.959 404.368C593.627 403.971 594.143 403.41 594.506 402.685C594.88 401.948 595.067 401.07 595.067 400.05C595.067 399.03 594.88 398.157 594.506 397.432C594.143 396.707 593.627 396.151 592.959 395.766C592.301 395.369 591.536 395.171 590.664 395.171C589.791 395.171 589.02 395.369 588.352 395.766C587.694 396.151 587.179 396.707 586.805 397.432C586.442 398.157 586.261 399.03 586.261 400.05C586.261 401.07 586.442 401.948 586.805 402.685C587.179 403.41 587.694 403.971 588.352 404.368C589.02 404.753 589.791 404.946 590.664 404.946Z"></path><path style="fill:var(--color-white)" d="M598.504 409.74V397.568H599.796L599.932 398.962C600.204 398.554 600.589 398.186 601.088 397.857C601.598 397.528 602.244 397.364 603.026 397.364C603.865 397.364 604.596 397.557 605.219 397.942C605.842 398.327 606.324 398.854 606.664 399.523C607.015 400.192 607.191 400.951 607.191 401.801C607.191 402.651 607.015 403.41 606.664 404.079C606.324 404.736 605.837 405.258 605.202 405.643C604.579 406.017 603.848 406.204 603.009 406.204C602.318 406.204 601.7 406.062 601.156 405.779C600.623 405.496 600.215 405.099 599.932 404.589V409.74H598.504ZM602.856 404.963C603.423 404.963 603.921 404.833 604.352 404.572C604.783 404.3 605.123 403.926 605.372 403.45C605.621 402.974 605.746 402.419 605.746 401.784C605.746 401.149 605.621 400.594 605.372 400.118C605.123 399.642 604.783 399.274 604.352 399.013C603.921 398.741 603.423 398.605 602.856 398.605C602.289 398.605 601.791 398.741 601.36 399.013C600.929 399.274 600.589 399.642 600.34 400.118C600.091 400.594 599.966 401.149 599.966 401.784C599.966 402.419 600.091 402.974 600.34 403.45C600.589 403.926 600.929 404.3 601.36 404.572C601.791 404.833 602.289 404.963 602.856 404.963Z"></path><path style="fill:var(--color-white)" d="M612.97 406.204C612.165 406.204 611.451 406.023 610.828 405.66C610.204 405.286 609.711 404.77 609.349 404.113C608.997 403.456 608.822 402.679 608.822 401.784C608.822 400.9 608.997 400.129 609.349 399.472C609.7 398.803 610.187 398.288 610.811 397.925C611.445 397.551 612.176 397.364 613.004 397.364C613.82 397.364 614.522 397.551 615.112 397.925C615.712 398.288 616.171 398.769 616.489 399.37C616.806 399.971 616.965 400.617 616.965 401.308C616.965 401.433 616.959 401.557 616.948 401.682C616.948 401.807 616.948 401.948 616.948 402.107H610.233C610.267 402.753 610.414 403.291 610.675 403.722C610.947 404.141 611.281 404.459 611.678 404.674C612.086 404.889 612.516 404.997 612.97 404.997C613.559 404.997 614.052 404.861 614.449 404.589C614.845 404.317 615.134 403.949 615.316 403.484H616.727C616.5 404.266 616.064 404.918 615.418 405.439C614.783 405.949 613.967 406.204 612.97 406.204ZM612.97 398.571C612.29 398.571 611.683 398.781 611.151 399.2C610.629 399.608 610.329 400.209 610.25 401.002H615.554C615.52 400.243 615.259 399.648 614.772 399.217C614.284 398.786 613.684 398.571 612.97 398.571Z"></path><path style="fill:var(--color-white)" d="M618.857 406V397.568H620.149L620.234 399.081C620.506 398.548 620.897 398.129 621.407 397.823C621.917 397.517 622.495 397.364 623.141 397.364C624.139 397.364 624.932 397.67 625.521 398.282C626.122 398.883 626.422 399.812 626.422 401.07V406H624.994V401.223C624.994 399.466 624.269 398.588 622.818 398.588C622.093 398.588 621.487 398.854 620.999 399.387C620.523 399.908 620.285 400.656 620.285 401.631V406H618.857Z"></path><path style="fill:var(--color-white)" d="M636.417 406C635.646 406 635.04 405.813 634.598 405.439C634.156 405.065 633.935 404.391 633.935 403.416V398.775H632.473V397.568H633.935L634.122 395.545H635.363V397.568H637.845V398.775H635.363V403.416C635.363 403.949 635.471 404.311 635.686 404.504C635.901 404.685 636.281 404.776 636.825 404.776H637.709V406H636.417Z"></path><path style="fill:var(--color-white)" d="M639.659 406V393.76H641.087V399.013C641.37 398.492 641.773 398.089 642.294 397.806C642.815 397.511 643.382 397.364 643.994 397.364C644.969 397.364 645.751 397.67 646.34 398.282C646.929 398.883 647.224 399.812 647.224 401.07V406H645.813V401.223C645.813 399.466 645.105 398.588 643.688 398.588C642.951 398.588 642.334 398.854 641.835 399.387C641.336 399.908 641.087 400.656 641.087 401.631V406H639.659Z"></path><path style="fill:var(--color-white)" d="M653.179 406.204C652.374 406.204 651.66 406.023 651.037 405.66C650.413 405.286 649.92 404.77 649.558 404.113C649.206 403.456 649.031 402.679 649.031 401.784C649.031 400.9 649.206 400.129 649.558 399.472C649.909 398.803 650.396 398.288 651.02 397.925C651.654 397.551 652.385 397.364 653.213 397.364C654.029 397.364 654.731 397.551 655.321 397.925C655.921 398.288 656.38 398.769 656.698 399.37C657.015 399.971 657.174 400.617 657.174 401.308C657.174 401.433 657.168 401.557 657.157 401.682C657.157 401.807 657.157 401.948 657.157 402.107H650.442C650.476 402.753 650.623 403.291 650.884 403.722C651.156 404.141 651.49 404.459 651.887 404.674C652.295 404.889 652.725 404.997 653.179 404.997C653.768 404.997 654.261 404.861 654.658 404.589C655.054 404.317 655.343 403.949 655.525 403.484H656.936C656.709 404.266 656.273 404.918 655.627 405.439C654.992 405.949 654.176 406.204 653.179 406.204ZM653.179 398.571C652.499 398.571 651.892 398.781 651.36 399.2C650.838 399.608 650.538 400.209 650.459 401.002H655.763C655.729 400.243 655.468 399.648 654.981 399.217C654.493 398.786 653.893 398.571 653.179 398.571Z"></path><path style="fill:var(--color-white)" d="M667.39 406.204C666.552 406.204 665.815 406.011 665.18 405.626C664.557 405.241 664.07 404.714 663.718 404.045C663.378 403.376 663.208 402.617 663.208 401.767C663.208 400.917 663.384 400.163 663.735 399.506C664.087 398.837 664.574 398.316 665.197 397.942C665.821 397.557 666.557 397.364 667.407 397.364C668.099 397.364 668.711 397.506 669.243 397.789C669.776 398.072 670.19 398.469 670.484 398.979V393.76H671.912V406H670.62L670.484 404.606C670.212 405.014 669.821 405.382 669.311 405.711C668.801 406.04 668.161 406.204 667.39 406.204ZM667.543 404.963C668.11 404.963 668.609 404.833 669.039 404.572C669.481 404.3 669.821 403.926 670.059 403.45C670.309 402.974 670.433 402.419 670.433 401.784C670.433 401.149 670.309 400.594 670.059 400.118C669.821 399.642 669.481 399.274 669.039 399.013C668.609 398.741 668.11 398.605 667.543 398.605C666.988 398.605 666.489 398.741 666.047 399.013C665.617 399.274 665.277 399.642 665.027 400.118C664.789 400.594 664.67 401.149 664.67 401.784C664.67 402.419 664.789 402.974 665.027 403.45C665.277 403.926 665.617 404.3 666.047 404.572C666.489 404.833 666.988 404.963 667.543 404.963Z"></path><path style="fill:var(--color-white)" d="M678.031 406.204C677.227 406.204 676.513 406.023 675.889 405.66C675.266 405.286 674.773 404.77 674.41 404.113C674.059 403.456 673.883 402.679 673.883 401.784C673.883 400.9 674.059 400.129 674.41 399.472C674.762 398.803 675.249 398.288 675.872 397.925C676.507 397.551 677.238 397.364 678.065 397.364C678.881 397.364 679.584 397.551 680.173 397.925C680.774 398.288 681.233 398.769 681.55 399.37C681.868 399.971 682.026 400.617 682.026 401.308C682.026 401.433 682.021 401.557 682.009 401.682C682.009 401.807 682.009 401.948 682.009 402.107H675.294C675.328 402.753 675.476 403.291 675.736 403.722C676.008 404.141 676.343 404.459 676.739 404.674C677.147 404.889 677.578 404.997 678.031 404.997C678.621 404.997 679.114 404.861 679.51 404.589C679.907 404.317 680.196 403.949 680.377 403.484H681.788C681.562 404.266 681.125 404.918 680.479 405.439C679.845 405.949 679.029 406.204 678.031 406.204ZM678.031 398.571C677.351 398.571 676.745 398.781 676.212 399.2C675.691 399.608 675.391 400.209 675.311 401.002H680.615C680.581 400.243 680.321 399.648 679.833 399.217C679.346 398.786 678.745 398.571 678.031 398.571Z"></path><path style="fill:var(--color-white)" d="M687.149 406.204C686.14 406.204 685.302 405.949 684.633 405.439C683.964 404.929 683.573 404.238 683.46 403.365H684.922C685.013 403.807 685.245 404.192 685.619 404.521C686.004 404.838 686.52 404.997 687.166 404.997C687.767 404.997 688.209 404.872 688.492 404.623C688.775 404.362 688.917 404.056 688.917 403.705C688.917 403.195 688.73 402.855 688.356 402.685C687.993 402.515 687.478 402.362 686.809 402.226C686.356 402.135 685.902 402.005 685.449 401.835C684.996 401.665 684.616 401.427 684.31 401.121C684.004 400.804 683.851 400.39 683.851 399.88C683.851 399.143 684.123 398.543 684.667 398.078C685.222 397.602 685.97 397.364 686.911 397.364C687.806 397.364 688.537 397.591 689.104 398.044C689.682 398.486 690.016 399.121 690.107 399.948H688.696C688.639 399.517 688.452 399.183 688.135 398.945C687.829 398.696 687.415 398.571 686.894 398.571C686.384 398.571 685.987 398.679 685.704 398.894C685.432 399.109 685.296 399.393 685.296 399.744C685.296 400.084 685.472 400.35 685.823 400.543C686.186 400.736 686.673 400.9 687.285 401.036C687.806 401.149 688.299 401.291 688.764 401.461C689.24 401.62 689.625 401.863 689.92 402.192C690.226 402.509 690.379 402.974 690.379 403.586C690.39 404.345 690.101 404.974 689.512 405.473C688.934 405.96 688.146 406.204 687.149 406.204Z"></path><path style="fill:var(--color-white)" d="M692.419 406V393.76H693.847V401.121L697.298 397.568H699.049L695.309 401.376L699.525 406H697.706L693.847 401.631V406H692.419Z"></path><path style="fill:var(--color-white)" d="M704.317 406C703.547 406 702.94 405.813 702.498 405.439C702.056 405.065 701.835 404.391 701.835 403.416V398.775H700.373V397.568H701.835L702.022 395.545H703.263V397.568H705.745V398.775H703.263V403.416C703.263 403.949 703.371 404.311 703.586 404.504C703.802 404.685 704.181 404.776 704.725 404.776H705.609V406H704.317Z"></path><path style="fill:var(--color-white)" d="M711.169 406.204C710.376 406.204 709.662 406.023 709.027 405.66C708.392 405.297 707.888 404.787 707.514 404.13C707.151 403.461 706.97 402.679 706.97 401.784C706.97 400.889 707.157 400.112 707.531 399.455C707.905 398.786 708.409 398.271 709.044 397.908C709.69 397.545 710.41 397.364 711.203 397.364C711.996 397.364 712.71 397.545 713.345 397.908C713.98 398.271 714.478 398.786 714.841 399.455C715.215 400.112 715.402 400.889 715.402 401.784C715.402 402.679 715.215 403.461 714.841 404.13C714.467 404.787 713.957 405.297 713.311 405.66C712.676 406.023 711.962 406.204 711.169 406.204ZM711.169 404.98C711.656 404.98 712.11 404.861 712.529 404.623C712.948 404.385 713.288 404.028 713.549 403.552C713.81 403.076 713.94 402.487 713.94 401.784C713.94 401.081 713.81 400.492 713.549 400.016C713.3 399.54 712.965 399.183 712.546 398.945C712.127 398.707 711.679 398.588 711.203 398.588C710.716 398.588 710.262 398.707 709.843 398.945C709.424 399.183 709.084 399.54 708.823 400.016C708.562 400.492 708.432 401.081 708.432 401.784C708.432 402.487 708.562 403.076 708.823 403.552C709.084 404.028 709.418 404.385 709.826 404.623C710.245 404.861 710.693 404.98 711.169 404.98Z"></path><path style="fill:var(--color-white)" d="M717.388 409.74V397.568H718.68L718.816 398.962C719.088 398.554 719.473 398.186 719.972 397.857C720.482 397.528 721.128 397.364 721.91 397.364C722.748 397.364 723.479 397.557 724.103 397.942C724.726 398.327 725.208 398.854 725.548 399.523C725.899 400.192 726.075 400.951 726.075 401.801C726.075 402.651 725.899 403.41 725.548 404.079C725.208 404.736 724.72 405.258 724.086 405.643C723.462 406.017 722.731 406.204 721.893 406.204C721.201 406.204 720.584 406.062 720.04 405.779C719.507 405.496 719.099 405.099 718.816 404.589V409.74H717.388ZM721.74 404.963C722.306 404.963 722.805 404.833 723.236 404.572C723.666 404.3 724.006 403.926 724.256 403.45C724.505 402.974 724.63 402.419 724.63 401.784C724.63 401.149 724.505 400.594 724.256 400.118C724.006 399.642 723.666 399.274 723.236 399.013C722.805 398.741 722.306 398.605 721.74 398.605C721.173 398.605 720.674 398.741 720.244 399.013C719.813 399.274 719.473 399.642 719.224 400.118C718.974 400.594 718.85 401.149 718.85 401.784C718.85 402.419 718.974 402.974 719.224 403.45C719.473 403.926 719.813 404.3 720.244 404.572C720.674 404.833 721.173 404.963 721.74 404.963Z"></path><path style="fill:var(--color-white)" d="M735.367 406.204C734.664 406.204 734.08 406.085 733.616 405.847C733.151 405.609 732.805 405.292 732.579 404.895C732.352 404.498 732.239 404.068 732.239 403.603C732.239 402.742 732.567 402.079 733.225 401.614C733.882 401.149 734.777 400.917 735.911 400.917H738.189V400.815C738.189 400.078 737.996 399.523 737.611 399.149C737.225 398.764 736.71 398.571 736.064 398.571C735.508 398.571 735.026 398.713 734.618 398.996C734.222 399.268 733.972 399.67 733.87 400.203H732.409C732.465 399.591 732.669 399.075 733.021 398.656C733.383 398.237 733.831 397.919 734.364 397.704C734.896 397.477 735.463 397.364 736.064 397.364C737.242 397.364 738.126 397.681 738.715 398.316C739.316 398.939 739.617 399.772 739.617 400.815V406H738.342L738.257 404.487C738.019 404.963 737.667 405.371 737.202 405.711C736.749 406.04 736.137 406.204 735.367 406.204ZM735.588 404.997C736.132 404.997 736.596 404.855 736.982 404.572C737.378 404.289 737.679 403.92 737.883 403.467C738.087 403.014 738.189 402.538 738.189 402.039V402.022H736.03C735.191 402.022 734.596 402.169 734.245 402.464C733.905 402.747 733.734 403.104 733.734 403.535C733.734 403.977 733.893 404.334 734.211 404.606C734.539 404.867 734.998 404.997 735.588 404.997Z"></path><path style="fill:var(--color-white)" d="M741.759 409.74V397.568H743.051L743.187 398.962C743.459 398.554 743.844 398.186 744.343 397.857C744.853 397.528 745.499 397.364 746.281 397.364C747.119 397.364 747.85 397.557 748.474 397.942C749.097 398.327 749.579 398.854 749.919 399.523C750.27 400.192 750.446 400.951 750.446 401.801C750.446 402.651 750.27 403.41 749.919 404.079C749.579 404.736 749.091 405.258 748.457 405.643C747.833 406.017 747.102 406.204 746.264 406.204C745.572 406.204 744.955 406.062 744.411 405.779C743.878 405.496 743.47 405.099 743.187 404.589V409.74H741.759ZM746.111 404.963C746.677 404.963 747.176 404.833 747.607 404.572C748.037 404.3 748.377 403.926 748.627 403.45C748.876 402.974 749.001 402.419 749.001 401.784C749.001 401.149 748.876 400.594 748.627 400.118C748.377 399.642 748.037 399.274 747.607 399.013C747.176 398.741 746.677 398.605 746.111 398.605C745.544 398.605 745.045 398.741 744.615 399.013C744.184 399.274 743.844 399.642 743.595 400.118C743.345 400.594 743.221 401.149 743.221 401.784C743.221 402.419 743.345 402.974 743.595 403.45C743.844 403.926 744.184 404.3 744.615 404.572C745.045 404.833 745.544 404.963 746.111 404.963Z"></path><path style="fill:var(--color-white)" d="M752.434 409.74V397.568H753.726L753.862 398.962C754.134 398.554 754.519 398.186 755.018 397.857C755.528 397.528 756.174 397.364 756.956 397.364C757.794 397.364 758.525 397.557 759.149 397.942C759.772 398.327 760.254 398.854 760.594 399.523C760.945 400.192 761.121 400.951 761.121 401.801C761.121 402.651 760.945 403.41 760.594 404.079C760.254 404.736 759.766 405.258 759.132 405.643C758.508 406.017 757.777 406.204 756.939 406.204C756.247 406.204 755.63 406.062 755.086 405.779C754.553 405.496 754.145 405.099 753.862 404.589V409.74H752.434ZM756.786 404.963C757.352 404.963 757.851 404.833 758.282 404.572C758.712 404.3 759.052 403.926 759.302 403.45C759.551 402.974 759.676 402.419 759.676 401.784C759.676 401.149 759.551 400.594 759.302 400.118C759.052 399.642 758.712 399.274 758.282 399.013C757.851 398.741 757.352 398.605 756.786 398.605C756.219 398.605 755.72 398.741 755.29 399.013C754.859 399.274 754.519 399.642 754.27 400.118C754.02 400.594 753.896 401.149 753.896 401.784C753.896 402.419 754.02 402.974 754.27 403.45C754.519 403.926 754.859 404.3 755.29 404.572C755.72 404.833 756.219 404.963 756.786 404.963Z"></path><mask id="nk-870" mask-type="alpha" maskUnits="userSpaceOnUse" x="332" y="233" width="48" height="48"><path d="M350.501 277C354.088 277 356.999 274.013 356.999 270.333V263.667H350.501C346.913 263.667 344.002 266.653 344.002 270.333C344.002 274.013 346.913 277 350.501 277Z" fill="#0A0A0A"></path><path d="M344.002 257C344.002 253.32 346.913 250.333 350.501 250.333H356.999V263.667H350.501C346.913 263.667 344.002 260.68 344.002 257Z" fill="#0A0A0A"></path><path d="M344.004 243.667C344.004 239.987 346.915 237 350.503 237H357.001V250.333H350.503C346.915 250.333 344.004 247.347 344.004 243.667Z" fill="#0A0A0A"></path><path d="M357 237H363.499C367.086 237 369.997 239.987 369.997 243.667C369.997 247.347 367.086 250.333 363.499 250.333H357V237Z" fill="#0A0A0A"></path><path d="M369.997 257C369.997 260.68 367.086 263.667 363.499 263.667C359.911 263.667 357 260.68 357 257C357 253.32 359.911 250.333 363.499 250.333C367.086 250.333 369.997 253.32 369.997 257Z" fill="#0A0A0A"></path></mask><g mask="url(#nk-870)"><rect style="fill:var(--color-illustrationPalette030)" x="332" y="233" width="48" height="48"></rect></g></svg>