<svg id="guides-design-quickstart-step1-access-to-figma-browser-launch" style="width: 100%; height: 100%" width="1345" height="759" viewBox="0 0 1345 759" fill="none" xmlns="http://www.w3.org/2000/svg" class="css-0"><rect style="fill:var(--color-illustrationBackground020)" width="1345" height="759"></rect><path style="fill:var(--color-white)" d="M313 173C313 164.163 320.163 157 329 157H1016C1024.84 157 1032 164.163 1032 173V587C1032 595.837 1024.84 603 1016 603H329C320.163 603 313 595.837 313 587V173Z"></path><path style="fill:var(--color-illustrationPalette020)" fill-rule="evenodd" clip-rule="evenodd" d="M1016 160H329C321.82 160 316 165.82 316 173V587C316 594.18 321.82 600 329 600H1016C1023.18 600 1029 594.18 1029 587V173C1029 165.82 1023.18 160 1016 160ZM329 157C320.163 157 313 164.163 313 173V587C313 595.837 320.163 603 329 603H1016C1024.84 603 1032 595.837 1032 587V173C1032 164.163 1024.84 157 1016 157H329Z"></path><path style="fill:var(--color-illustrationPalette020)" d="M313 173C313 164.163 320.163 157 329 157H1016C1024.84 157 1032 164.163 1032 173V217H313V173Z"></path><mask id="nk-873" mask-type="alpha" maskUnits="userSpaceOnUse" x="332" y="163" width="48" height="48"><path d="M350.501 207C354.088 207 356.999 204.013 356.999 200.333V193.667H350.501C346.913 193.667 344.002 196.653 344.002 200.333C344.002 204.013 346.913 207 350.501 207Z" fill="#0A0A0A"></path><path d="M344.002 187C344.002 183.32 346.913 180.333 350.501 180.333H356.999V193.666H350.501C346.913 193.666 344.002 190.68 344.002 187Z" fill="#0A0A0A"></path><path d="M344.004 173.667C344.004 169.987 346.915 167 350.503 167H357.001V180.333H350.503C346.915 180.333 344.004 177.347 344.004 173.667Z" fill="#0A0A0A"></path><path d="M357 167H363.499C367.086 167 369.997 169.987 369.997 173.667C369.997 177.347 367.086 180.333 363.499 180.333H357V167Z" fill="#0A0A0A"></path><path d="M369.997 187C369.997 190.68 367.086 193.666 363.499 193.666C359.911 193.666 357 190.68 357 187C357 183.32 359.911 180.333 363.499 180.333C367.086 180.333 369.997 183.32 369.997 187Z" fill="#0A0A0A"></path></mask><g mask="url(#nk-873)"><rect style="fill:var(--color-white)" x="332" y="163" width="48" height="48"></rect></g><path style="fill:var(--color-illustrationPalette040)" d="M574.233 347.024L569.625 330.2H571.785L575.409 344.624L579.537 330.2H581.769L585.777 344.624L589.449 330.2H591.609L586.905 347H584.601L580.593 333.128L576.489 347L574.233 347.024Z"></path><path style="fill:var(--color-illustrationPalette040)" d="M597.993 347.288C596.857 347.288 595.849 347.032 594.969 346.52C594.089 345.992 593.393 345.264 592.881 344.336C592.385 343.408 592.137 342.312 592.137 341.048C592.137 339.8 592.385 338.712 592.881 337.784C593.377 336.84 594.065 336.112 594.945 335.6C595.841 335.072 596.873 334.808 598.041 334.808C599.193 334.808 600.185 335.072 601.017 335.6C601.865 336.112 602.513 336.792 602.961 337.64C603.409 338.488 603.633 339.4 603.633 340.376C603.633 340.552 603.625 340.728 603.609 340.904C603.609 341.08 603.609 341.28 603.609 341.504H594.129C594.177 342.416 594.385 343.176 594.753 343.784C595.137 344.376 595.609 344.824 596.169 345.128C596.745 345.432 597.353 345.584 597.993 345.584C598.825 345.584 599.521 345.392 600.081 345.008C600.641 344.624 601.049 344.104 601.305 343.448H603.297C602.977 344.552 602.361 345.472 601.449 346.208C600.553 346.928 599.401 347.288 597.993 347.288ZM597.993 336.512C597.033 336.512 596.177 336.808 595.425 337.4C594.689 337.976 594.265 338.824 594.153 339.944H601.641C601.593 338.872 601.225 338.032 600.537 337.424C599.849 336.816 599.001 336.512 597.993 336.512Z"></path><path style="fill:var(--color-illustrationPalette040)" d="M606.305 347V329.72H608.321V347H606.305Z"></path><path style="fill:var(--color-illustrationPalette040)" d="M617.098 347.288C615.962 347.288 614.938 347.032 614.026 346.52C613.13 345.992 612.418 345.264 611.89 344.336C611.378 343.392 611.122 342.296 611.122 341.048C611.122 339.8 611.378 338.712 611.89 337.784C612.418 336.84 613.13 336.112 614.026 335.6C614.938 335.072 615.962 334.808 617.098 334.808C618.506 334.808 619.69 335.176 620.65 335.912C621.626 336.648 622.242 337.632 622.498 338.864H620.434C620.274 338.128 619.882 337.56 619.258 337.16C618.634 336.744 617.906 336.536 617.074 336.536C616.402 336.536 615.77 336.704 615.178 337.04C614.586 337.376 614.106 337.88 613.738 338.552C613.37 339.224 613.186 340.056 613.186 341.048C613.186 342.04 613.37 342.872 613.738 343.544C614.106 344.216 614.586 344.728 615.178 345.08C615.77 345.416 616.402 345.584 617.074 345.584C617.906 345.584 618.634 345.384 619.258 344.984C619.882 344.568 620.274 343.984 620.434 343.232H622.498C622.258 344.432 621.65 345.408 620.674 346.16C619.698 346.912 618.506 347.288 617.098 347.288Z"></path><path style="fill:var(--color-illustrationPalette040)" d="M630.737 347.288C629.617 347.288 628.609 347.032 627.713 346.52C626.817 346.008 626.105 345.288 625.577 344.36C625.065 343.416 624.809 342.312 624.809 341.048C624.809 339.784 625.073 338.688 625.601 337.76C626.129 336.816 626.841 336.088 627.737 335.576C628.649 335.064 629.665 334.808 630.785 334.808C631.905 334.808 632.913 335.064 633.809 335.576C634.705 336.088 635.409 336.816 635.921 337.76C636.449 338.688 636.713 339.784 636.713 341.048C636.713 342.312 636.449 343.416 635.921 344.36C635.393 345.288 634.673 346.008 633.761 346.52C632.865 347.032 631.857 347.288 630.737 347.288ZM630.737 345.56C631.425 345.56 632.065 345.392 632.657 345.056C633.249 344.72 633.729 344.216 634.097 343.544C634.465 342.872 634.649 342.04 634.649 341.048C634.649 340.056 634.465 339.224 634.097 338.552C633.745 337.88 633.273 337.376 632.681 337.04C632.089 336.704 631.457 336.536 630.785 336.536C630.097 336.536 629.457 336.704 628.865 337.04C628.273 337.376 627.793 337.88 627.425 338.552C627.057 339.224 626.873 340.056 626.873 341.048C626.873 342.04 627.057 342.872 627.425 343.544C627.793 344.216 628.265 344.72 628.841 345.056C629.433 345.392 630.065 345.56 630.737 345.56Z"></path><path style="fill:var(--color-illustrationPalette040)" d="M639.516 347V335.096H641.34L641.484 336.824C641.868 336.184 642.38 335.688 643.02 335.336C643.66 334.984 644.38 334.808 645.18 334.808C646.124 334.808 646.932 335 647.604 335.384C648.292 335.768 648.82 336.352 649.188 337.136C649.604 336.416 650.172 335.848 650.892 335.432C651.628 335.016 652.42 334.808 653.268 334.808C654.692 334.808 655.828 335.24 656.676 336.104C657.524 336.952 657.948 338.264 657.948 340.04V347H655.956V340.256C655.956 339.024 655.708 338.096 655.212 337.472C654.716 336.848 654.004 336.536 653.076 336.536C652.116 336.536 651.316 336.912 650.676 337.664C650.052 338.4 649.74 339.456 649.74 340.832V347H647.724V340.256C647.724 339.024 647.476 338.096 646.98 337.472C646.484 336.848 645.772 336.536 644.844 336.536C643.9 336.536 643.108 336.912 642.468 337.664C641.844 338.4 641.532 339.456 641.532 340.832V347H639.516Z"></path><path style="fill:var(--color-illustrationPalette040)" d="M666.337 347.288C665.201 347.288 664.193 347.032 663.313 346.52C662.433 345.992 661.737 345.264 661.225 344.336C660.729 343.408 660.481 342.312 660.481 341.048C660.481 339.8 660.729 338.712 661.225 337.784C661.721 336.84 662.409 336.112 663.289 335.6C664.185 335.072 665.217 334.808 666.385 334.808C667.537 334.808 668.529 335.072 669.361 335.6C670.209 336.112 670.857 336.792 671.305 337.64C671.753 338.488 671.977 339.4 671.977 340.376C671.977 340.552 671.969 340.728 671.953 340.904C671.953 341.08 671.953 341.28 671.953 341.504H662.473C662.521 342.416 662.729 343.176 663.097 343.784C663.481 344.376 663.953 344.824 664.513 345.128C665.089 345.432 665.697 345.584 666.337 345.584C667.169 345.584 667.865 345.392 668.425 345.008C668.985 344.624 669.393 344.104 669.649 343.448H671.641C671.321 344.552 670.705 345.472 669.793 346.208C668.897 346.928 667.745 347.288 666.337 347.288ZM666.337 336.512C665.377 336.512 664.521 336.808 663.769 337.4C663.033 337.976 662.609 338.824 662.497 339.944H669.985C669.937 338.872 669.569 338.032 668.881 337.424C668.193 336.816 667.345 336.512 666.337 336.512Z"></path><path style="fill:var(--color-illustrationPalette040)" d="M685.705 347C684.617 347 683.761 346.736 683.137 346.208C682.513 345.68 682.201 344.728 682.201 343.352V336.8H680.137V335.096H682.201L682.465 332.24H684.217V335.096H687.721V336.8H684.217V343.352C684.217 344.104 684.369 344.616 684.673 344.888C684.977 345.144 685.513 345.272 686.281 345.272H687.529V347H685.705Z"></path><path style="fill:var(--color-illustrationPalette040)" d="M695.378 347.288C694.258 347.288 693.25 347.032 692.354 346.52C691.458 346.008 690.746 345.288 690.218 344.36C689.706 343.416 689.45 342.312 689.45 341.048C689.45 339.784 689.714 338.688 690.242 337.76C690.77 336.816 691.482 336.088 692.378 335.576C693.29 335.064 694.306 334.808 695.426 334.808C696.546 334.808 697.554 335.064 698.45 335.576C699.346 336.088 700.05 336.816 700.562 337.76C701.09 338.688 701.354 339.784 701.354 341.048C701.354 342.312 701.09 343.416 700.562 344.36C700.034 345.288 699.314 346.008 698.402 346.52C697.506 347.032 696.498 347.288 695.378 347.288ZM695.378 345.56C696.066 345.56 696.706 345.392 697.298 345.056C697.89 344.72 698.37 344.216 698.738 343.544C699.106 342.872 699.29 342.04 699.29 341.048C699.29 340.056 699.106 339.224 698.738 338.552C698.386 337.88 697.914 337.376 697.322 337.04C696.73 336.704 696.098 336.536 695.426 336.536C694.738 336.536 694.098 336.704 693.506 337.04C692.914 337.376 692.434 337.88 692.066 338.552C691.698 339.224 691.514 340.056 691.514 341.048C691.514 342.04 691.698 342.872 692.066 343.544C692.434 344.216 692.906 344.72 693.482 345.056C694.074 345.392 694.706 345.56 695.378 345.56Z"></path><path style="fill:var(--color-illustrationPalette040)" d="M710.629 347V330.2H720.853V331.856H712.645V337.76H719.629V339.392H712.645V347H710.629Z"></path><path style="fill:var(--color-illustrationPalette040)" d="M724.553 332.456C724.153 332.456 723.817 332.328 723.545 332.072C723.289 331.8 723.161 331.464 723.161 331.064C723.161 330.68 723.289 330.36 723.545 330.104C723.817 329.848 724.153 329.72 724.553 329.72C724.937 329.72 725.265 329.848 725.537 330.104C725.809 330.36 725.945 330.68 725.945 331.064C725.945 331.464 725.809 331.8 725.537 332.072C725.265 332.328 724.937 332.456 724.553 332.456ZM723.545 347V335.096H725.561V347H723.545Z"></path><path style="fill:var(--color-illustrationPalette040)" d="M733.775 343.256C733.103 343.256 732.487 343.168 731.927 342.992L730.727 344.12C730.903 344.248 731.119 344.36 731.375 344.456C731.647 344.536 732.031 344.616 732.527 344.696C733.023 344.76 733.719 344.832 734.615 344.912C736.215 345.024 737.359 345.392 738.047 346.016C738.735 346.64 739.079 347.456 739.079 348.464C739.079 349.152 738.887 349.808 738.503 350.432C738.135 351.056 737.559 351.568 736.775 351.968C736.007 352.368 735.015 352.568 733.799 352.568C732.727 352.568 731.775 352.424 730.943 352.136C730.111 351.864 729.463 351.44 728.999 350.864C728.535 350.304 728.303 349.592 728.303 348.728C728.303 348.28 728.423 347.792 728.663 347.264C728.903 346.752 729.351 346.264 730.007 345.8C729.655 345.656 729.351 345.504 729.095 345.344C728.855 345.168 728.631 344.976 728.423 344.768V344.216L730.463 342.2C729.519 341.4 729.047 340.344 729.047 339.032C729.047 338.248 729.231 337.536 729.599 336.896C729.967 336.256 730.503 335.752 731.207 335.384C731.911 335 732.767 334.808 733.775 334.808C734.463 334.808 735.087 334.904 735.647 335.096H740.039V336.608L737.807 336.704C738.271 337.376 738.503 338.152 738.503 339.032C738.503 339.816 738.311 340.528 737.927 341.168C737.559 341.808 737.023 342.32 736.319 342.704C735.631 343.072 734.783 343.256 733.775 343.256ZM733.775 341.6C734.623 341.6 735.295 341.384 735.791 340.952C736.303 340.504 736.559 339.864 736.559 339.032C736.559 338.216 736.303 337.592 735.791 337.16C735.295 336.712 734.623 336.488 733.775 336.488C732.911 336.488 732.223 336.712 731.711 337.16C731.215 337.592 730.967 338.216 730.967 339.032C730.967 339.864 731.215 340.504 731.711 340.952C732.223 341.384 732.911 341.6 733.775 341.6ZM730.271 348.536C730.271 349.336 730.607 349.928 731.279 350.312C731.951 350.712 732.791 350.912 733.799 350.912C734.791 350.912 735.583 350.696 736.175 350.264C736.783 349.832 737.087 349.256 737.087 348.536C737.087 348.024 736.879 347.576 736.463 347.192C736.047 346.824 735.279 346.608 734.159 346.544C733.279 346.48 732.519 346.4 731.879 346.304C731.223 346.656 730.791 347.032 730.583 347.432C730.375 347.848 730.271 348.216 730.271 348.536Z"></path><path style="fill:var(--color-illustrationPalette040)" d="M742.313 347V335.096H744.137L744.281 336.824C744.665 336.184 745.177 335.688 745.817 335.336C746.457 334.984 747.177 334.808 747.977 334.808C748.921 334.808 749.729 335 750.401 335.384C751.089 335.768 751.617 336.352 751.985 337.136C752.401 336.416 752.969 335.848 753.689 335.432C754.425 335.016 755.217 334.808 756.065 334.808C757.489 334.808 758.625 335.24 759.473 336.104C760.321 336.952 760.745 338.264 760.745 340.04V347H758.753V340.256C758.753 339.024 758.505 338.096 758.009 337.472C757.513 336.848 756.801 336.536 755.873 336.536C754.913 336.536 754.113 336.912 753.473 337.664C752.849 338.4 752.537 339.456 752.537 340.832V347H750.521V340.256C750.521 339.024 750.273 338.096 749.777 337.472C749.281 336.848 748.569 336.536 747.641 336.536C746.697 336.536 745.905 336.912 745.265 337.664C744.641 338.4 744.329 339.456 744.329 340.832V347H742.313Z"></path><path style="fill:var(--color-illustrationPalette040)" d="M767.742 347.288C766.75 347.288 765.926 347.12 765.27 346.784C764.614 346.448 764.126 346 763.806 345.44C763.486 344.88 763.326 344.272 763.326 343.616C763.326 342.4 763.79 341.464 764.718 340.808C765.646 340.152 766.91 339.824 768.51 339.824H771.726V339.68C771.726 338.64 771.454 337.856 770.91 337.328C770.366 336.784 769.638 336.512 768.726 336.512C767.942 336.512 767.262 336.712 766.686 337.112C766.126 337.496 765.774 338.064 765.63 338.816H763.566C763.646 337.952 763.934 337.224 764.43 336.632C764.942 336.04 765.574 335.592 766.326 335.288C767.078 334.968 767.878 334.808 768.726 334.808C770.39 334.808 771.638 335.256 772.47 336.152C773.318 337.032 773.742 338.208 773.742 339.68V347H771.942L771.822 344.864C771.486 345.536 770.99 346.112 770.334 346.592C769.694 347.056 768.83 347.288 767.742 347.288ZM768.054 345.584C768.822 345.584 769.478 345.384 770.022 344.984C770.582 344.584 771.006 344.064 771.294 343.424C771.582 342.784 771.726 342.112 771.726 341.408V341.384H768.678C767.494 341.384 766.654 341.592 766.158 342.008C765.678 342.408 765.438 342.912 765.438 343.52C765.438 344.144 765.662 344.648 766.11 345.032C766.574 345.4 767.222 345.584 768.054 345.584Z"></path><path style="fill:var(--color-illustrationPalette040)" d="M573 413C573 417.418 576.582 421 581 421H765C769.418 421 773 417.418 773 413V389C773 384.582 769.418 381 765 381H581C576.582 381 573 384.582 573 389V413Z"></path><path style="fill:var(--color-white)" d="M598.258 406V394.1H599.686V404.861H605.228V406H598.258Z"></path><path style="fill:var(--color-white)" d="M610.581 406.204C609.788 406.204 609.074 406.023 608.439 405.66C607.805 405.297 607.3 404.787 606.926 404.13C606.564 403.461 606.382 402.679 606.382 401.784C606.382 400.889 606.569 400.112 606.943 399.455C607.317 398.786 607.822 398.271 608.456 397.908C609.102 397.545 609.822 397.364 610.615 397.364C611.409 397.364 612.123 397.545 612.757 397.908C613.392 398.271 613.891 398.786 614.253 399.455C614.627 400.112 614.814 400.889 614.814 401.784C614.814 402.679 614.627 403.461 614.253 404.13C613.879 404.787 613.369 405.297 612.723 405.66C612.089 406.023 611.375 406.204 610.581 406.204ZM610.581 404.98C611.069 404.98 611.522 404.861 611.941 404.623C612.361 404.385 612.701 404.028 612.961 403.552C613.222 403.076 613.352 402.487 613.352 401.784C613.352 401.081 613.222 400.492 612.961 400.016C612.712 399.54 612.378 399.183 611.958 398.945C611.539 398.707 611.091 398.588 610.615 398.588C610.128 398.588 609.675 398.707 609.255 398.945C608.836 399.183 608.496 399.54 608.235 400.016C607.975 400.492 607.844 401.081 607.844 401.784C607.844 402.487 607.975 403.076 608.235 403.552C608.496 404.028 608.83 404.385 609.238 404.623C609.658 404.861 610.105 404.98 610.581 404.98Z"></path><path style="fill:var(--color-white)" d="M619.767 403.348C619.291 403.348 618.854 403.286 618.458 403.161L617.608 403.96C617.732 404.051 617.885 404.13 618.067 404.198C618.259 404.255 618.531 404.311 618.883 404.368C619.234 404.413 619.727 404.464 620.362 404.521C621.495 404.6 622.305 404.861 622.793 405.303C623.28 405.745 623.524 406.323 623.524 407.037C623.524 407.524 623.388 407.989 623.116 408.431C622.855 408.873 622.447 409.236 621.892 409.519C621.348 409.802 620.645 409.944 619.784 409.944C619.024 409.944 618.35 409.842 617.761 409.638C617.171 409.445 616.712 409.145 616.384 408.737C616.055 408.34 615.891 407.836 615.891 407.224C615.891 406.907 615.976 406.561 616.146 406.187C616.316 405.824 616.633 405.479 617.098 405.15C616.848 405.048 616.633 404.94 616.452 404.827C616.282 404.702 616.123 404.566 615.976 404.419V404.028L617.421 402.6C616.752 402.033 616.418 401.285 616.418 400.356C616.418 399.801 616.548 399.296 616.809 398.843C617.069 398.39 617.449 398.033 617.948 397.772C618.446 397.5 619.053 397.364 619.767 397.364C620.254 397.364 620.696 397.432 621.093 397.568H624.204V398.639L622.623 398.707C622.951 399.183 623.116 399.733 623.116 400.356C623.116 400.911 622.98 401.416 622.708 401.869C622.447 402.322 622.067 402.685 621.569 402.957C621.081 403.218 620.481 403.348 619.767 403.348ZM619.767 402.175C620.367 402.175 620.843 402.022 621.195 401.716C621.557 401.399 621.739 400.945 621.739 400.356C621.739 399.778 621.557 399.336 621.195 399.03C620.843 398.713 620.367 398.554 619.767 398.554C619.155 398.554 618.667 398.713 618.305 399.03C617.953 399.336 617.778 399.778 617.778 400.356C617.778 400.945 617.953 401.399 618.305 401.716C618.667 402.022 619.155 402.175 619.767 402.175ZM617.285 407.088C617.285 407.655 617.523 408.074 617.999 408.346C618.475 408.629 619.07 408.771 619.784 408.771C620.486 408.771 621.047 408.618 621.467 408.312C621.897 408.006 622.113 407.598 622.113 407.088C622.113 406.725 621.965 406.408 621.671 406.136C621.376 405.875 620.832 405.722 620.039 405.677C619.415 405.632 618.877 405.575 618.424 405.507C617.959 405.756 617.653 406.023 617.506 406.306C617.358 406.601 617.285 406.861 617.285 407.088Z"></path><path style="fill:var(--color-white)" d="M631.18 395.698C630.897 395.698 630.659 395.607 630.466 395.426C630.285 395.233 630.194 394.995 630.194 394.712C630.194 394.44 630.285 394.213 630.466 394.032C630.659 393.851 630.897 393.76 631.18 393.76C631.452 393.76 631.685 393.851 631.877 394.032C632.07 394.213 632.166 394.44 632.166 394.712C632.166 394.995 632.07 395.233 631.877 395.426C631.685 395.607 631.452 395.698 631.18 395.698ZM630.466 406V397.568H631.894V406H630.466Z"></path><path style="fill:var(--color-white)" d="M634.381 406V397.568H635.673L635.758 399.081C636.03 398.548 636.421 398.129 636.931 397.823C637.441 397.517 638.019 397.364 638.665 397.364C639.662 397.364 640.455 397.67 641.045 398.282C641.645 398.883 641.946 399.812 641.946 401.07V406H640.518V401.223C640.518 399.466 639.792 398.588 638.342 398.588C637.616 398.588 637.01 398.854 636.523 399.387C636.047 399.908 635.809 400.656 635.809 401.631V406H634.381Z"></path><path style="fill:var(--color-white)" d="M650.308 406L647.843 397.568H649.271L651.056 404.181L653.028 397.568H654.643L656.632 404.181L658.4 397.568H659.845L657.38 406H655.918L653.844 399.047L651.77 406H650.308Z"></path><path style="fill:var(--color-white)" d="M662.292 395.698C662.008 395.698 661.77 395.607 661.578 395.426C661.396 395.233 661.306 394.995 661.306 394.712C661.306 394.44 661.396 394.213 661.578 394.032C661.77 393.851 662.008 393.76 662.292 393.76C662.564 393.76 662.796 393.851 662.989 394.032C663.181 394.213 663.278 394.44 663.278 394.712C663.278 394.995 663.181 395.233 662.989 395.426C662.796 395.607 662.564 395.698 662.292 395.698ZM661.578 406V397.568H663.006V406H661.578Z"></path><path style="fill:var(--color-white)" d="M668.824 406C668.053 406 667.447 405.813 667.005 405.439C666.563 405.065 666.342 404.391 666.342 403.416V398.775H664.88V397.568H666.342L666.529 395.545H667.77V397.568H670.252V398.775H667.77V403.416C667.77 403.949 667.878 404.311 668.093 404.504C668.308 404.685 668.688 404.776 669.232 404.776H670.116V406H668.824Z"></path><path style="fill:var(--color-white)" d="M672.066 406V393.76H673.494V399.013C673.778 398.492 674.18 398.089 674.701 397.806C675.223 397.511 675.789 397.364 676.401 397.364C677.376 397.364 678.158 397.67 678.747 398.282C679.337 398.883 679.631 399.812 679.631 401.07V406H678.22V401.223C678.22 399.466 677.512 398.588 676.095 398.588C675.359 398.588 674.741 398.854 674.242 399.387C673.744 399.908 673.494 400.656 673.494 401.631V406H672.066Z"></path><path style="fill:var(--color-white)" d="M690.799 406.204C690.108 406.204 689.49 406.062 688.946 405.779C688.413 405.496 688.005 405.099 687.722 404.589L687.586 406H686.294V393.76H687.722V398.962C687.994 398.554 688.379 398.186 688.878 397.857C689.388 397.528 690.034 397.364 690.816 397.364C691.655 397.364 692.386 397.557 693.009 397.942C693.632 398.327 694.114 398.854 694.454 399.523C694.805 400.192 694.981 400.951 694.981 401.801C694.981 402.651 694.805 403.41 694.454 404.079C694.114 404.736 693.627 405.258 692.992 405.643C692.369 406.017 691.638 406.204 690.799 406.204ZM690.646 404.963C691.213 404.963 691.711 404.833 692.142 404.572C692.573 404.3 692.913 403.926 693.162 403.45C693.411 402.974 693.536 402.419 693.536 401.784C693.536 401.149 693.411 400.594 693.162 400.118C692.913 399.642 692.573 399.274 692.142 399.013C691.711 398.741 691.213 398.605 690.646 398.605C690.079 398.605 689.581 398.741 689.15 399.013C688.719 399.274 688.379 399.642 688.13 400.118C687.881 400.594 687.756 401.149 687.756 401.784C687.756 402.419 687.881 402.974 688.13 403.45C688.379 403.926 688.719 404.3 689.15 404.572C689.581 404.833 690.079 404.963 690.646 404.963Z"></path><path style="fill:var(--color-white)" d="M696.969 406V397.568H698.261L698.38 399.183C698.64 398.628 699.037 398.186 699.57 397.857C700.102 397.528 700.76 397.364 701.542 397.364V398.86H701.151C700.652 398.86 700.193 398.951 699.774 399.132C699.354 399.302 699.02 399.597 698.771 400.016C698.521 400.435 698.397 401.013 698.397 401.75V406H696.969Z"></path><path style="fill:var(--color-white)" d="M706.671 406.204C705.878 406.204 705.164 406.023 704.529 405.66C703.894 405.297 703.39 404.787 703.016 404.13C702.653 403.461 702.472 402.679 702.472 401.784C702.472 400.889 702.659 400.112 703.033 399.455C703.407 398.786 703.911 398.271 704.546 397.908C705.192 397.545 705.912 397.364 706.705 397.364C707.498 397.364 708.212 397.545 708.847 397.908C709.482 398.271 709.98 398.786 710.343 399.455C710.717 400.112 710.904 400.889 710.904 401.784C710.904 402.679 710.717 403.461 710.343 404.13C709.969 404.787 709.459 405.297 708.813 405.66C708.178 406.023 707.464 406.204 706.671 406.204ZM706.671 404.98C707.158 404.98 707.612 404.861 708.031 404.623C708.45 404.385 708.79 404.028 709.051 403.552C709.312 403.076 709.442 402.487 709.442 401.784C709.442 401.081 709.312 400.492 709.051 400.016C708.802 399.54 708.467 399.183 708.048 398.945C707.629 398.707 707.181 398.588 706.705 398.588C706.218 398.588 705.764 398.707 705.345 398.945C704.926 399.183 704.586 399.54 704.325 400.016C704.064 400.492 703.934 401.081 703.934 401.784C703.934 402.487 704.064 403.076 704.325 403.552C704.586 404.028 704.92 404.385 705.328 404.623C705.747 404.861 706.195 404.98 706.671 404.98Z"></path><path style="fill:var(--color-white)" d="M714.274 406L711.809 397.568H713.237L715.022 404.181L716.994 397.568H718.609L720.598 404.181L722.366 397.568H723.811L721.346 406H719.884L717.81 399.047L715.736 406H714.274Z"></path><path style="fill:var(--color-white)" d="M728.621 406.204C727.612 406.204 726.773 405.949 726.105 405.439C725.436 404.929 725.045 404.238 724.932 403.365H726.394C726.484 403.807 726.717 404.192 727.091 404.521C727.476 404.838 727.992 404.997 728.638 404.997C729.238 404.997 729.68 404.872 729.964 404.623C730.247 404.362 730.389 404.056 730.389 403.705C730.389 403.195 730.202 402.855 729.828 402.685C729.465 402.515 728.949 402.362 728.281 402.226C727.827 402.135 727.374 402.005 726.921 401.835C726.467 401.665 726.088 401.427 725.782 401.121C725.476 400.804 725.323 400.39 725.323 399.88C725.323 399.143 725.595 398.543 726.139 398.078C726.694 397.602 727.442 397.364 728.383 397.364C729.278 397.364 730.009 397.591 730.576 398.044C731.154 398.486 731.488 399.121 731.579 399.948H730.168C730.111 399.517 729.924 399.183 729.607 398.945C729.301 398.696 728.887 398.571 728.366 398.571C727.856 398.571 727.459 398.679 727.176 398.894C726.904 399.109 726.768 399.393 726.768 399.744C726.768 400.084 726.943 400.35 727.295 400.543C727.657 400.736 728.145 400.9 728.757 401.036C729.278 401.149 729.771 401.291 730.236 401.461C730.712 401.62 731.097 401.863 731.392 402.192C731.698 402.509 731.851 402.974 731.851 403.586C731.862 404.345 731.573 404.974 730.984 405.473C730.406 405.96 729.618 406.204 728.621 406.204Z"></path><path style="fill:var(--color-white)" d="M737.682 406.204C736.877 406.204 736.163 406.023 735.54 405.66C734.916 405.286 734.423 404.77 734.061 404.113C733.709 403.456 733.534 402.679 733.534 401.784C733.534 400.9 733.709 400.129 734.061 399.472C734.412 398.803 734.899 398.288 735.523 397.925C736.157 397.551 736.888 397.364 737.716 397.364C738.532 397.364 739.234 397.551 739.824 397.925C740.424 398.288 740.883 398.769 741.201 399.37C741.518 399.971 741.677 400.617 741.677 401.308C741.677 401.433 741.671 401.557 741.66 401.682C741.66 401.807 741.66 401.948 741.66 402.107H734.945C734.979 402.753 735.126 403.291 735.387 403.722C735.659 404.141 735.993 404.459 736.39 404.674C736.798 404.889 737.228 404.997 737.682 404.997C738.271 404.997 738.764 404.861 739.161 404.589C739.557 404.317 739.846 403.949 740.028 403.484H741.439C741.212 404.266 740.776 404.918 740.13 405.439C739.495 405.949 738.679 406.204 737.682 406.204ZM737.682 398.571C737.002 398.571 736.395 398.781 735.863 399.2C735.341 399.608 735.041 400.209 734.962 401.002H740.266C740.232 400.243 739.971 399.648 739.484 399.217C738.996 398.786 738.396 398.571 737.682 398.571Z"></path><path style="fill:var(--color-white)" d="M743.569 406V397.568H744.861L744.98 399.183C745.241 398.628 745.638 398.186 746.17 397.857C746.703 397.528 747.36 397.364 748.142 397.364V398.86H747.751C747.253 398.86 746.794 398.951 746.374 399.132C745.955 399.302 745.621 399.597 745.371 400.016C745.122 400.435 744.997 401.013 744.997 401.75V406H743.569Z"></path></svg>