<svg id="guides-design-quickstart-step1-hero" style="width: 100%; height: 100%" width="1345" height="759" viewBox="0 0 1345 759" fill="none" xmlns="http://www.w3.org/2000/svg" class="css-0"><g clip-path="url(#nk-871)"><rect style="fill:var(--color-illustrationBackground010)" width="1345" height="759"></rect><rect style="fill:var(--color-illustrationInterface020)" y="333" width="1345" height="426"></rect><g filter="url(#nk-872)"><rect style="fill:var(--color-illustrationInterface050)" x="439" y="165" width="467" height="467" rx="80"></rect></g><g opacity="0.4" filter="url(#nk-873)"><rect style="fill:var(--color-illustrationGradient010)" x="439" y="165" width="467" height="467" rx="80"></rect></g><g opacity="0.6" filter="url(#nk-874)"><rect style="fill:var(--color-illustrationInterface030)" x="148" y="398" width="228" height="228" rx="60"></rect></g><g opacity="0.6" filter="url(#nk-875)"><rect style="fill:var(--color-illustrationInterface030)" x="-132" y="404" width="228" height="228" rx="60"></rect></g><rect style="fill:var(--color-illustrationInterface020)" opacity="0.6" x="-132" y="404" width="228" height="228" rx="60"></rect><g opacity="0.6" filter="url(#nk-876)"><rect style="fill:var(--color-illustrationInterface030)" x="1249" y="392" width="228" height="228" rx="60"></rect></g><rect style="fill:var(--color-illustrationInterface020)" opacity="0.6" x="1249" y="392" width="228" height="228" rx="60"></rect><g opacity="0.6" filter="url(#nk-877)"><rect style="fill:var(--color-illustrationInterface030)" x="969" y="398" width="228" height="228" rx="60"></rect></g><rect style="fill:var(--color-illustrationInterface020)" opacity="0.6" x="969" y="398" width="228" height="228" rx="60"></rect><rect style="fill:var(--color-illustrationInterface020)" opacity="0.6" x="148" y="398" width="228" height="228" rx="60"></rect><path style="fill:var(--color-illustrationPalette030)" d="M617.5 567C647.584 567 672 541.688 672 510.5V454H617.5C587.416 454 563 479.312 563 510.5C563 541.688 587.416 567 617.5 567Z"></path><path style="fill:var(--color-illustrationPalette030)" d="M563 398.5C563 367.864 587.416 343 617.5 343H672V454H617.5C587.416 454 563 429.136 563 398.5Z"></path><path style="fill:var(--color-illustrationPalette010)" d="M563 286.5C563 255.312 587.416 230 617.5 230H672V343H617.5C587.416 343 563 317.688 563 286.5Z"></path><path style="fill:var(--color-illustrationPalette020)" d="M672 230H727C757.36 230 782 255.312 782 286.5C782 317.688 757.36 343 727 343H672V230Z"></path><path style="fill:var(--color-illustrationPalette020)" d="M782 398.5C782 429.136 757.36 454 727 454C696.64 454 672 429.136 672 398.5C672 367.864 696.64 343 727 343C757.36 343 782 367.864 782 398.5Z"></path><circle style="fill:var(--color-illustrationInterface100)" cx="672" cy="697" r="18"></circle></g><defs><filter id="nk-872" x="407" y="153" width="531" height="531" filterUnits="userSpaceOnUse" color-interpolation-filters="sRGB"><feFlood flood-opacity="0" result="BackgroundImageFix"></feFlood><feColorMatrix in="SourceAlpha" type="matrix" values="0 0 0 0 0 0 0 0 0 0 0 0 0 0 0 0 0 0 127 0" result="hardAlpha"></feColorMatrix><feOffset dy="20"></feOffset><feGaussianBlur stdDeviation="16"></feGaussianBlur><feColorMatrix type="matrix" values="0 0 0 0 0.0392157 0 0 0 0 0.0392157 0 0 0 0 0.0392157 0 0 0 0.08 0"></feColorMatrix><feBlend mode="normal" in2="BackgroundImageFix" result="effect1_dropShadow_728_135607"></feBlend><feBlend mode="normal" in="SourceGraphic" in2="effect1_dropShadow_728_135607" result="shape"></feBlend></filter><filter id="nk-873" x="407" y="153" width="531" height="531" filterUnits="userSpaceOnUse" color-interpolation-filters="sRGB"><feFlood flood-opacity="0" result="BackgroundImageFix"></feFlood><feColorMatrix in="SourceAlpha" type="matrix" values="0 0 0 0 0 0 0 0 0 0 0 0 0 0 0 0 0 0 127 0" result="hardAlpha"></feColorMatrix><feOffset dy="20"></feOffset><feGaussianBlur stdDeviation="16"></feGaussianBlur><feColorMatrix type="matrix" values="0 0 0 0 0.0392157 0 0 0 0 0.0392157 0 0 0 0 0.0392157 0 0 0 0.08 0"></feColorMatrix><feBlend mode="normal" in2="BackgroundImageFix" result="effect1_dropShadow_728_135607"></feBlend><feBlend mode="normal" in="SourceGraphic" in2="effect1_dropShadow_728_135607" result="shape"></feBlend></filter><filter id="nk-874" x="140" y="394" width="244" height="244" filterUnits="userSpaceOnUse" color-interpolation-filters="sRGB"><feFlood flood-opacity="0" result="BackgroundImageFix"></feFlood><feColorMatrix in="SourceAlpha" type="matrix" values="0 0 0 0 0 0 0 0 0 0 0 0 0 0 0 0 0 0 127 0" result="hardAlpha"></feColorMatrix><feOffset dy="4"></feOffset><feGaussianBlur stdDeviation="4"></feGaussianBlur><feColorMatrix type="matrix" values="0 0 0 0 0.0392157 0 0 0 0 0.0392157 0 0 0 0 0.0392157 0 0 0 0.08 0"></feColorMatrix><feBlend mode="normal" in2="BackgroundImageFix" result="effect1_dropShadow_728_135607"></feBlend><feBlend mode="normal" in="SourceGraphic" in2="effect1_dropShadow_728_135607" result="shape"></feBlend></filter><filter id="nk-875" x="-140" y="400" width="244" height="244" filterUnits="userSpaceOnUse" color-interpolation-filters="sRGB"><feFlood flood-opacity="0" result="BackgroundImageFix"></feFlood><feColorMatrix in="SourceAlpha" type="matrix" values="0 0 0 0 0 0 0 0 0 0 0 0 0 0 0 0 0 0 127 0" result="hardAlpha"></feColorMatrix><feOffset dy="4"></feOffset><feGaussianBlur stdDeviation="4"></feGaussianBlur><feColorMatrix type="matrix" values="0 0 0 0 0.0392157 0 0 0 0 0.0392157 0 0 0 0 0.0392157 0 0 0 0.08 0"></feColorMatrix><feBlend mode="normal" in2="BackgroundImageFix" result="effect1_dropShadow_728_135607"></feBlend><feBlend mode="normal" in="SourceGraphic" in2="effect1_dropShadow_728_135607" result="shape"></feBlend></filter><filter id="nk-876" x="1241" y="388" width="244" height="244" filterUnits="userSpaceOnUse" color-interpolation-filters="sRGB"><feFlood flood-opacity="0" result="BackgroundImageFix"></feFlood><feColorMatrix in="SourceAlpha" type="matrix" values="0 0 0 0 0 0 0 0 0 0 0 0 0 0 0 0 0 0 127 0" result="hardAlpha"></feColorMatrix><feOffset dy="4"></feOffset><feGaussianBlur stdDeviation="4"></feGaussianBlur><feColorMatrix type="matrix" values="0 0 0 0 0.0392157 0 0 0 0 0.0392157 0 0 0 0 0.0392157 0 0 0 0.08 0"></feColorMatrix><feBlend mode="normal" in2="BackgroundImageFix" result="effect1_dropShadow_728_135607"></feBlend><feBlend mode="normal" in="SourceGraphic" in2="effect1_dropShadow_728_135607" result="shape"></feBlend></filter><filter id="nk-877" x="961" y="394" width="244" height="244" filterUnits="userSpaceOnUse" color-interpolation-filters="sRGB"><feFlood flood-opacity="0" result="BackgroundImageFix"></feFlood><feColorMatrix in="SourceAlpha" type="matrix" values="0 0 0 0 0 0 0 0 0 0 0 0 0 0 0 0 0 0 127 0" result="hardAlpha"></feColorMatrix><feOffset dy="4"></feOffset><feGaussianBlur stdDeviation="4"></feGaussianBlur><feColorMatrix type="matrix" values="0 0 0 0 0.0392157 0 0 0 0 0.0392157 0 0 0 0 0.0392157 0 0 0 0.08 0"></feColorMatrix><feBlend mode="normal" in2="BackgroundImageFix" result="effect1_dropShadow_728_135607"></feBlend><feBlend mode="normal" in="SourceGraphic" in2="effect1_dropShadow_728_135607" result="shape"></feBlend></filter><clipPath id="nk-871"><rect style="fill:var(--color-white)" width="1345" height="759"></rect></clipPath></defs></svg>