<svg id="nksvg" style="width: 100%; height: 100%" width="1345" height="759" viewBox="0 0 1345 759" fill="none" xmlns="http://www.w3.org/2000/svg" class="css-0">
  <g clip-path="url(#nk-1182)">
    <rect style="fill: var(--color-illustrationBackground010)" width="1345" height="759"></rect>
    <rect style="fill: var(--color-illustrationInterface020)" y="333" width="1345" height="426"></rect>
    <g>
      <rect style="fill: var(--color-illustrationInterface050)" x="439" y="165" width="467" height="467" rx="80"></rect>
    </g>
    <g opacity="0.4">
      <rect style="fill: var(--color-illustrationGradient010)" x="439" y="165" width="467" height="467" rx="80"></rect>
    </g>
    <g opacity="0.6">
      <rect style="fill: var(--color-illustrationInterface030)" x="148" y="398" width="228" height="228" rx="60"></rect>
    </g>
    <g opacity="0.6">
      <rect style="fill: var(--color-illustrationInterface030)" x="-132" y="404" width="228" height="228" rx="60"></rect>
    </g>
    <rect style="fill: var(--color-illustrationInterface020)" opacity="0.6" x="-132" y="404" width="228" height="228" rx="60"></rect>
    <g opacity="0.6">
      <rect style="fill: var(--color-illustrationInterface030)" x="1249" y="392" width="228" height="228" rx="60"></rect>
    </g>
    <rect style="fill: var(--color-illustrationInterface020)" opacity="0.6" x="1249" y="392" width="228" height="228" rx="60"></rect>
    <g opacity="0.6">
      <rect style="fill: var(--color-illustrationInterface030)" x="969" y="398" width="228" height="228" rx="60"></rect>
    </g>
    <rect style="fill: var(--color-illustrationInterface020)" opacity="0.6" x="969" y="398" width="228" height="228" rx="60"></rect>
    <rect style="fill: var(--color-illustrationInterface020)" opacity="0.6" x="148" y="398" width="228" height="228" rx="60"></rect>
    <path style="fill: var(--color-illustrationPalette030)" d="M617.5 567C647.584 567 672 541.688 672 510.5V454H617.5C587.416 454 563 479.312 563 510.5C563 541.688 587.416 567 617.5 567Z"></path>
    <path style="fill: var(--color-illustrationPalette030)" d="M563 398.5C563 367.864 587.416 343 617.5 343H672V454H617.5C587.416 454 563 429.136 563 398.5Z"></path>
    <path style="fill: var(--color-illustrationPalette010)" d="M563 286.5C563 255.312 587.416 230 617.5 230H672V343H617.5C587.416 343 563 317.688 563 286.5Z"></path>
    <path style="fill: var(--color-illustrationPalette020)" d="M672 230H727C757.36 230 782 255.312 782 286.5C782 317.688 757.36 343 727 343H672V230Z"></path>
    <path style="fill: var(--color-illustrationPalette020)" d="M782 398.5C782 429.136 757.36 454 727 454C696.64 454 672 429.136 672 398.5C672 367.864 696.64 343 727 343C757.36 343 782 367.864 782 398.5Z"></path>
    <circle style="fill: var(--color-illustrationInterface100)" cx="672" cy="697" r="18"></circle>
  </g>
  <defs>
    
    
    
    
    
    
    <clipPath id="nk-1182">
      <rect style="fill: var(--color-white)" width="1345" height="759"></rect>
    </clipPath>
  </defs>
</svg>
