<svg id="nksvg" style="width: 100%; height: 100%" width="1490" height="838" viewBox="0 0 1490 838" fill="none" xmlns="http://www.w3.org/2000/svg" class="css-0">
  <path style="fill: var(--color-illustrationBackground020)" d="M0 0H1490V838H0V0Z"></path>
  <g>
    <rect style="fill: var(--color-interfaceBackground)" width="1249" height="143.55" transform="translate(120 377)"></rect>
    <g clip-path="url(#nk-727)">
      <rect style="fill: var(--color-illustrationInterface030)" x="167.85" y="400.926" width="95.7001" height="95.7001" rx="47.8501"></rect>
      <g>
        <path style="fill: var(--color-interfaceBackground)" d="M207.725 434.822V462.735L229.656 448.779L207.725 434.822Z"></path>
      </g>
    </g>
    <path style="fill: var(--color-illustrationInterface030)" d="M314.271 447.506C314.271 441.988 315.196 437.681 317.047 434.587C318.929 431.461 322.151 429.898 326.712 429.898C331.274 429.898 334.48 431.461 336.33 434.587C338.212 437.681 339.153 441.988 339.153 447.506C339.153 453.089 338.212 457.459 336.33 460.617C334.48 463.744 331.274 465.307 326.712 465.307C322.151 465.307 318.929 463.744 317.047 460.617C315.196 457.459 314.271 453.089 314.271 447.506ZM333.794 447.506C333.794 444.923 333.619 442.737 333.268 440.951C332.949 439.165 332.279 437.713 331.258 436.597C330.237 435.448 328.722 434.874 326.712 434.874C324.703 434.874 323.187 435.448 322.167 436.597C321.146 437.713 320.46 439.165 320.109 440.951C319.79 442.737 319.631 444.923 319.631 447.506C319.631 450.186 319.79 452.435 320.109 454.253C320.428 456.072 321.098 457.539 322.119 458.655C323.171 459.772 324.703 460.33 326.712 460.33C328.722 460.33 330.237 459.772 331.258 458.655C332.311 457.539 332.997 456.072 333.316 454.253C333.635 452.435 333.794 450.186 333.794 447.506ZM344.925 447.506C344.925 441.988 345.85 437.681 347.701 434.587C349.583 431.461 352.805 429.898 357.366 429.898C361.928 429.898 365.134 431.461 366.984 434.587C368.866 437.681 369.807 441.988 369.807 447.506C369.807 453.089 368.866 457.459 366.984 460.617C365.134 463.744 361.928 465.307 357.366 465.307C352.805 465.307 349.583 463.744 347.701 460.617C345.85 457.459 344.925 453.089 344.925 447.506ZM364.448 447.506C364.448 444.923 364.273 442.737 363.922 440.951C363.603 439.165 362.933 437.713 361.912 436.597C360.891 435.448 359.376 434.874 357.366 434.874C355.357 434.874 353.841 435.448 352.821 436.597C351.8 437.713 351.114 439.165 350.763 440.951C350.444 442.737 350.284 444.923 350.284 447.506C350.284 450.186 350.444 452.435 350.763 454.253C351.082 456.072 351.752 457.539 352.773 458.655C353.825 459.772 355.357 460.33 357.366 460.33C359.376 460.33 360.891 459.772 361.912 458.655C362.965 457.539 363.651 456.072 363.97 454.253C364.289 452.435 364.448 450.186 364.448 447.506ZM378.498 465.737C377.509 465.737 376.68 465.402 376.01 464.732C375.34 464.063 375.005 463.233 375.005 462.244C375.005 461.255 375.34 460.426 376.01 459.756C376.68 459.086 377.509 458.751 378.498 458.751C379.455 458.751 380.269 459.086 380.938 459.756C381.608 460.426 381.943 461.255 381.943 462.244C381.943 463.233 381.608 464.063 380.938 464.732C380.269 465.402 379.455 465.737 378.498 465.737ZM378.498 445.64C377.509 445.64 376.68 445.305 376.01 444.635C375.34 443.966 375.005 443.136 375.005 442.147C375.005 441.158 375.34 440.329 376.01 439.659C376.68 438.989 377.509 438.654 378.498 438.654C379.455 438.654 380.269 438.989 380.938 439.659C381.608 440.329 381.943 441.158 381.943 442.147C381.943 443.136 381.608 443.966 380.938 444.635C380.269 445.305 379.455 445.64 378.498 445.64ZM387.212 439.133C387.404 436.166 388.536 433.853 390.61 432.194C392.715 430.536 395.395 429.706 398.649 429.706C400.882 429.706 402.812 430.105 404.438 430.902C406.065 431.7 407.293 432.785 408.123 434.156C408.952 435.528 409.367 437.075 409.367 438.798C409.367 440.776 408.841 442.466 407.788 443.87C406.735 445.273 405.475 446.214 404.008 446.693V446.884C405.89 447.459 407.357 448.511 408.41 450.042C409.463 451.542 409.989 453.472 409.989 455.832C409.989 457.714 409.558 459.389 408.697 460.857C407.836 462.324 406.56 463.488 404.869 464.35C403.178 465.179 401.153 465.594 398.792 465.594C395.347 465.594 392.508 464.716 390.275 462.962C388.074 461.176 386.893 458.624 386.734 455.306H391.997C392.125 456.997 392.779 458.384 393.959 459.469C395.14 460.522 396.735 461.048 398.744 461.048C400.69 461.048 402.189 460.522 403.242 459.469C404.295 458.384 404.821 456.997 404.821 455.306C404.821 453.073 404.103 451.494 402.668 450.569C401.264 449.612 399.095 449.133 396.16 449.133H394.916V444.635H396.208C398.792 444.604 400.754 444.173 402.094 443.343C403.465 442.514 404.151 441.206 404.151 439.42C404.151 437.889 403.657 436.676 402.668 435.783C401.679 434.858 400.275 434.395 398.457 434.395C396.671 434.395 395.283 434.858 394.294 435.783C393.305 436.676 392.715 437.793 392.524 439.133H387.212ZM415.719 447.506C415.719 441.988 416.644 437.681 418.494 434.587C420.376 431.461 423.598 429.898 428.16 429.898C432.722 429.898 435.928 431.461 437.778 434.587C439.66 437.681 440.601 441.988 440.601 447.506C440.601 453.089 439.66 457.459 437.778 460.617C435.928 463.744 432.722 465.307 428.16 465.307C423.598 465.307 420.376 463.744 418.494 460.617C416.644 457.459 415.719 453.089 415.719 447.506ZM435.242 447.506C435.242 444.923 435.066 442.737 434.716 440.951C434.397 439.165 433.727 437.713 432.706 436.597C431.685 435.448 430.17 434.874 428.16 434.874C426.15 434.874 424.635 435.448 423.614 436.597C422.594 437.713 421.908 439.165 421.557 440.951C421.238 442.737 421.078 444.923 421.078 447.506C421.078 450.186 421.238 452.435 421.557 454.253C421.876 456.072 422.546 457.539 423.566 458.655C424.619 459.772 426.15 460.33 428.16 460.33C430.17 460.33 431.685 459.772 432.706 458.655C433.759 457.539 434.444 456.072 434.763 454.253C435.082 452.435 435.242 450.186 435.242 447.506Z"></path>
    <rect style="fill: var(--color-illustrationInterface020)" x="492" y="437.035" width="660" height="23.925" rx="11.9625"></rect>
    <rect style="fill: var(--color-illustrationHighlight010)" x="492" y="437.035" width="187" height="23.925" rx="11.9625"></rect>
    <rect style="fill: var(--color-illustrationInterface080)" x="662" y="437.035" width="255" height="23.925"></rect>
    <rect style="fill: var(--color-illustrationHighlight010)" x="651.465" y="426.345" width="44.8594" height="44.8594" rx="22.4297"></rect>
    <rect style="stroke: var(--color-undefined)" x="651.465" y="426.345" width="44.8594" height="44.8594" rx="22.4297" stroke-width="2.99063"></rect>
    <path style="fill: var(--color-illustrationInterface030)" d="M1203.6 447.508C1203.6 441.99 1204.53 437.683 1206.38 434.589C1208.26 431.463 1211.48 429.9 1216.04 429.9C1220.6 429.9 1223.81 431.463 1225.66 434.589C1227.54 437.683 1228.48 441.99 1228.48 447.508C1228.48 453.091 1227.54 457.461 1225.66 460.619C1223.81 463.745 1220.6 465.309 1216.04 465.309C1211.48 465.309 1208.26 463.745 1206.38 460.619C1204.53 457.461 1203.6 453.091 1203.6 447.508ZM1223.12 447.508C1223.12 444.924 1222.95 442.739 1222.6 440.953C1222.28 439.167 1221.61 437.715 1220.59 436.599C1219.57 435.45 1218.05 434.876 1216.04 434.876C1214.03 434.876 1212.52 435.45 1211.5 436.599C1210.48 437.715 1209.79 439.167 1209.44 440.953C1209.12 442.739 1208.96 444.924 1208.96 447.508C1208.96 450.188 1209.12 452.437 1209.44 454.255C1209.76 456.074 1210.43 457.541 1211.45 458.657C1212.5 459.774 1214.03 460.332 1216.04 460.332C1218.05 460.332 1219.57 459.774 1220.59 458.657C1221.64 457.541 1222.33 456.074 1222.65 454.255C1222.96 452.437 1223.12 450.188 1223.12 447.508ZM1233.54 435.498V430.522H1243.49V465.404H1237.99V435.498H1233.54ZM1253.9 465.739C1252.91 465.739 1252.08 465.404 1251.41 464.734C1250.74 464.064 1250.41 463.235 1250.41 462.246C1250.41 461.257 1250.74 460.428 1251.41 459.758C1252.08 459.088 1252.91 458.753 1253.9 458.753C1254.86 458.753 1255.67 459.088 1256.34 459.758C1257.01 460.428 1257.35 461.257 1257.35 462.246C1257.35 463.235 1257.01 464.064 1256.34 464.734C1255.67 465.404 1254.86 465.739 1253.9 465.739ZM1253.9 445.642C1252.91 445.642 1252.08 445.307 1251.41 444.637C1250.74 443.967 1250.41 443.138 1250.41 442.149C1250.41 441.16 1250.74 440.331 1251.41 439.661C1252.08 438.991 1252.91 438.656 1253.9 438.656C1254.86 438.656 1255.67 438.991 1256.34 439.661C1257.01 440.331 1257.35 441.16 1257.35 442.149C1257.35 443.138 1257.01 443.967 1256.34 444.637C1255.67 445.307 1254.86 445.642 1253.9 445.642ZM1262.71 447.508C1262.71 441.99 1263.64 437.683 1265.49 434.589C1267.37 431.463 1270.59 429.9 1275.15 429.9C1279.72 429.9 1282.92 431.463 1284.77 434.589C1286.65 437.683 1287.6 441.99 1287.6 447.508C1287.6 453.091 1286.65 457.461 1284.77 460.619C1282.92 463.745 1279.72 465.309 1275.15 465.309C1270.59 465.309 1267.37 463.745 1265.49 460.619C1263.64 457.461 1262.71 453.091 1262.71 447.508ZM1282.24 447.508C1282.24 444.924 1282.06 442.739 1281.71 440.953C1281.39 439.167 1280.72 437.715 1279.7 436.599C1278.68 435.45 1277.16 434.876 1275.15 434.876C1273.14 434.876 1271.63 435.45 1270.61 436.599C1269.59 437.715 1268.9 439.167 1268.55 440.953C1268.23 442.739 1268.07 444.924 1268.07 447.508C1268.07 450.188 1268.23 452.437 1268.55 454.255C1268.87 456.074 1269.54 457.541 1270.56 458.657C1271.61 459.774 1273.14 460.332 1275.15 460.332C1277.16 460.332 1278.68 459.774 1279.7 458.657C1280.75 457.541 1281.44 456.074 1281.76 454.255C1282.08 452.437 1282.24 450.188 1282.24 447.508ZM1293.37 447.508C1293.37 441.99 1294.29 437.683 1296.14 434.589C1298.02 431.463 1301.25 429.9 1305.81 429.9C1310.37 429.9 1313.58 431.463 1315.43 434.589C1317.31 437.683 1318.25 441.99 1318.25 447.508C1318.25 453.091 1317.31 457.461 1315.43 460.619C1313.58 463.745 1310.37 465.309 1305.81 465.309C1301.25 465.309 1298.02 463.745 1296.14 460.619C1294.29 457.461 1293.37 453.091 1293.37 447.508ZM1312.89 447.508C1312.89 444.924 1312.71 442.739 1312.36 440.953C1312.04 439.167 1311.37 437.715 1310.35 436.599C1309.33 435.45 1307.82 434.876 1305.81 434.876C1303.8 434.876 1302.28 435.45 1301.26 436.599C1300.24 437.715 1299.56 439.167 1299.2 440.953C1298.89 442.739 1298.73 444.924 1298.73 447.508C1298.73 450.188 1298.89 452.437 1299.2 454.255C1299.52 456.074 1300.19 457.541 1301.21 458.657C1302.27 459.774 1303.8 460.332 1305.81 460.332C1307.82 460.332 1309.33 459.774 1310.35 458.657C1311.41 457.541 1312.09 456.074 1312.41 454.255C1312.73 452.437 1312.89 450.188 1312.89 447.508Z"></path>
  </g>
  <path style="fill: var(--color-illustrationHighlight010)" fill-rule="evenodd" clip-rule="evenodd" d="M492 340V299H496.211V317.008L717.789 317.008V321.01L496.211 321.01V340H492Z"></path>
  <path style="fill: var(--color-illustrationHighlight010)" fill-rule="evenodd" clip-rule="evenodd" d="M1151.79 340V299H1147.58V317.008L711 317.008V321.01L1147.58 321.01V340H1151.79Z"></path>
  <defs>
    
    
    <clipPath id="nk-727">
      <rect style="fill: var(--color-white)" x="167.85" y="400.926" width="95.7001" height="95.7001" rx="47.8501"></rect>
    </clipPath>
  </defs>
</svg>
