<svg id="components-audio-player-behaviours-buffering" style="width: 100%; height: 100%" width="1490" height="838" viewBox="0 0 1490 838" fill="none" xmlns="http://www.w3.org/2000/svg" class="css-0"><path style="fill:var(--color-illustrationBackground020)" d="M0 0H1490V838H0V0Z"></path><g filter="url(#nk-1067)"><rect style="fill:var(--color-interfaceBackground)" width="1249" height="143.55" transform="translate(120 377)"></rect><path style="fill:var(--color-illustrationInterface030)" d="M167.85 448.776C167.85 422.349 189.273 400.926 215.7 400.926C242.127 400.926 263.55 422.349 263.55 448.776C263.55 475.203 242.127 496.626 215.7 496.626C189.273 496.626 167.85 475.203 167.85 448.776Z"></path><mask id="nk-1066" mask-type="alpha" maskUnits="userSpaceOnUse" x="191" y="424" width="49" height="49"><path d="M207.725 434.822V462.735L229.656 448.779L207.725 434.822Z" fill="#0A0A0A"></path></mask><g mask="url(#nk-1066)"><rect style="fill:var(--color-illustrationBackground020)" x="191.775" y="424.852" width="47.8501" height="47.8501"></rect></g><path style="fill:var(--color-illustrationInterface030)" d="M314.271 446.563C314.271 441.044 315.196 436.738 317.047 433.644C318.929 430.517 322.151 428.954 326.712 428.954C331.274 428.954 334.48 430.517 336.33 433.644C338.212 436.738 339.153 441.044 339.153 446.563C339.153 452.146 338.212 456.516 336.33 459.674C334.48 462.8 331.274 464.363 326.712 464.363C322.151 464.363 318.929 462.8 317.047 459.674C315.196 456.516 314.271 452.146 314.271 446.563ZM333.794 446.563C333.794 443.979 333.619 441.794 333.268 440.008C332.949 438.221 332.279 436.77 331.258 435.653C330.237 434.505 328.722 433.931 326.712 433.931C324.703 433.931 323.187 434.505 322.167 435.653C321.146 436.77 320.46 438.221 320.109 440.008C319.79 441.794 319.631 443.979 319.631 446.563C319.631 449.243 319.79 451.492 320.109 453.31C320.428 455.128 321.098 456.596 322.119 457.712C323.172 458.829 324.703 459.387 326.712 459.387C328.722 459.387 330.237 458.829 331.258 457.712C332.311 456.596 332.997 455.128 333.316 453.31C333.635 451.492 333.794 449.243 333.794 446.563ZM344.925 446.563C344.925 441.044 345.85 436.738 347.701 433.644C349.583 430.517 352.805 428.954 357.366 428.954C361.928 428.954 365.134 430.517 366.984 433.644C368.866 436.738 369.807 441.044 369.807 446.563C369.807 452.146 368.866 456.516 366.984 459.674C365.134 462.8 361.928 464.363 357.366 464.363C352.805 464.363 349.583 462.8 347.701 459.674C345.85 456.516 344.925 452.146 344.925 446.563ZM364.448 446.563C364.448 443.979 364.273 441.794 363.922 440.008C363.603 438.221 362.933 436.77 361.912 435.653C360.891 434.505 359.376 433.931 357.366 433.931C355.357 433.931 353.841 434.505 352.821 435.653C351.8 436.77 351.114 438.221 350.763 440.008C350.444 441.794 350.285 443.979 350.285 446.563C350.285 449.243 350.444 451.492 350.763 453.31C351.082 455.128 351.752 456.596 352.773 457.712C353.825 458.829 355.357 459.387 357.366 459.387C359.376 459.387 360.891 458.829 361.912 457.712C362.965 456.596 363.651 455.128 363.97 453.31C364.289 451.492 364.448 449.243 364.448 446.563ZM378.498 464.794C377.509 464.794 376.68 464.459 376.01 463.789C375.34 463.119 375.005 462.29 375.005 461.301C375.005 460.312 375.34 459.483 376.01 458.813C376.68 458.143 377.509 457.808 378.498 457.808C379.455 457.808 380.269 458.143 380.939 458.813C381.608 459.483 381.943 460.312 381.943 461.301C381.943 462.29 381.608 463.119 380.939 463.789C380.269 464.459 379.455 464.794 378.498 464.794ZM378.498 444.697C377.509 444.697 376.68 444.362 376.01 443.692C375.34 443.022 375.005 442.193 375.005 441.204C375.005 440.215 375.34 439.386 376.01 438.716C376.68 438.046 377.509 437.711 378.498 437.711C379.455 437.711 380.269 438.046 380.939 438.716C381.608 439.386 381.943 440.215 381.943 441.204C381.943 442.193 381.608 443.022 380.939 443.692C380.269 444.362 379.455 444.697 378.498 444.697ZM387.212 438.189C387.404 435.223 388.536 432.91 390.61 431.251C392.715 429.592 395.395 428.763 398.649 428.763C400.882 428.763 402.812 429.162 404.439 429.959C406.065 430.757 407.294 431.841 408.123 433.213C408.952 434.585 409.367 436.132 409.367 437.854C409.367 439.832 408.841 441.523 407.788 442.926C406.735 444.33 405.475 445.271 404.008 445.75V445.941C405.89 446.515 407.357 447.568 408.41 449.099C409.463 450.598 409.989 452.528 409.989 454.889C409.989 456.771 409.558 458.446 408.697 459.913C407.836 461.381 406.56 462.545 404.869 463.406C403.178 464.236 401.153 464.65 398.792 464.65C395.347 464.65 392.508 463.773 390.275 462.019C388.074 460.232 386.893 457.68 386.734 454.363H391.997C392.125 456.053 392.779 457.441 393.959 458.526C395.14 459.578 396.735 460.105 398.744 460.105C400.69 460.105 402.19 459.578 403.242 458.526C404.295 457.441 404.821 456.053 404.821 454.363C404.821 452.13 404.104 450.551 402.668 449.625C401.264 448.668 399.095 448.19 396.16 448.19H394.916V443.692H396.208C398.792 443.66 400.754 443.229 402.094 442.4C403.466 441.571 404.151 440.263 404.151 438.476C404.151 436.945 403.657 435.733 402.668 434.84C401.679 433.915 400.276 433.452 398.457 433.452C396.671 433.452 395.283 433.915 394.294 434.84C393.305 435.733 392.715 436.849 392.524 438.189H387.212ZM415.719 446.563C415.719 441.044 416.644 436.738 418.494 433.644C420.377 430.517 423.598 428.954 428.16 428.954C432.722 428.954 435.928 430.517 437.778 433.644C439.66 436.738 440.601 441.044 440.601 446.563C440.601 452.146 439.66 456.516 437.778 459.674C435.928 462.8 432.722 464.363 428.16 464.363C423.598 464.363 420.377 462.8 418.494 459.674C416.644 456.516 415.719 452.146 415.719 446.563ZM435.242 446.563C435.242 443.979 435.067 441.794 434.716 440.008C434.397 438.221 433.727 436.77 432.706 435.653C431.685 434.505 430.17 433.931 428.16 433.931C426.15 433.931 424.635 434.505 423.614 435.653C422.594 436.77 421.908 438.221 421.557 440.008C421.238 441.794 421.078 443.979 421.078 446.563C421.078 449.243 421.238 451.492 421.557 453.31C421.876 455.128 422.546 456.596 423.567 457.712C424.619 458.829 426.15 459.387 428.16 459.387C430.17 459.387 431.685 458.829 432.706 457.712C433.759 456.596 434.444 455.128 434.763 453.31C435.082 451.492 435.242 449.243 435.242 446.563Z"></path><rect style="fill:var(--color-illustrationInterface020)" x="492" y="437.035" width="660" height="23.925"></rect><rect style="fill:var(--color-illustrationHighlight010)" x="492" y="437.035" width="187" height="23.925"></rect><rect style="fill:var(--color-illustrationInterface080)" x="662" y="437.035" width="255" height="23.925"></rect><path style="fill:var(--color-illustrationHighlight010)" d="M649.969 448.775C649.969 435.561 660.681 424.85 673.895 424.85V424.85C687.108 424.85 697.82 435.561 697.82 448.775V448.775C697.82 461.988 687.108 472.7 673.895 472.7V472.7C660.681 472.7 649.969 461.988 649.969 448.775V448.775Z"></path><path style="fill:var(--color-white)" d="M673.895 469.709C662.333 469.709 652.96 460.336 652.96 448.775H646.979C646.979 463.64 659.029 475.69 673.895 475.69V469.709ZM694.829 448.775C694.829 460.336 685.456 469.709 673.895 469.709V475.69C688.76 475.69 700.81 463.64 700.81 448.775H694.829ZM673.895 427.84C685.456 427.84 694.829 437.213 694.829 448.775H700.81C700.81 433.91 688.76 421.859 673.895 421.859V427.84ZM673.895 421.859C659.029 421.859 646.979 433.91 646.979 448.775H652.96C652.96 437.213 662.333 427.84 673.895 427.84V421.859Z"></path><path style="fill:var(--color-illustrationInterface030)" d="M1203.6 446.565C1203.6 441.046 1204.53 436.74 1206.38 433.645C1208.26 430.519 1211.48 428.956 1216.04 428.956C1220.6 428.956 1223.81 430.519 1225.66 433.645C1227.54 436.74 1228.48 441.046 1228.48 446.565C1228.48 452.148 1227.54 456.518 1225.66 459.676C1223.81 462.802 1220.6 464.365 1216.04 464.365C1211.48 464.365 1208.26 462.802 1206.38 459.676C1204.53 456.518 1203.6 452.148 1203.6 446.565ZM1223.12 446.565C1223.12 443.981 1222.95 441.796 1222.6 440.01C1222.28 438.223 1221.61 436.772 1220.59 435.655C1219.57 434.507 1218.05 433.933 1216.04 433.933C1214.03 433.933 1212.52 434.507 1211.5 435.655C1210.48 436.772 1209.79 438.223 1209.44 440.01C1209.12 441.796 1208.96 443.981 1208.96 446.565C1208.96 449.245 1209.12 451.494 1209.44 453.312C1209.76 455.13 1210.43 456.598 1211.45 457.714C1212.5 458.831 1214.03 459.389 1216.04 459.389C1218.05 459.389 1219.57 458.831 1220.59 457.714C1221.64 456.598 1222.33 455.13 1222.65 453.312C1222.96 451.494 1223.12 449.245 1223.12 446.565ZM1233.54 434.555V429.578H1243.49V464.461H1237.99V434.555H1233.54ZM1253.9 464.796C1252.91 464.796 1252.08 464.461 1251.41 463.791C1250.74 463.121 1250.41 462.292 1250.41 461.303C1250.41 460.314 1250.74 459.485 1251.41 458.815C1252.08 458.145 1252.91 457.81 1253.9 457.81C1254.86 457.81 1255.67 458.145 1256.34 458.815C1257.01 459.485 1257.35 460.314 1257.35 461.303C1257.35 462.292 1257.01 463.121 1256.34 463.791C1255.67 464.461 1254.86 464.796 1253.9 464.796ZM1253.9 444.699C1252.91 444.699 1252.08 444.364 1251.41 443.694C1250.74 443.024 1250.41 442.195 1250.41 441.206C1250.41 440.217 1250.74 439.387 1251.41 438.718C1252.08 438.048 1252.91 437.713 1253.9 437.713C1254.86 437.713 1255.67 438.048 1256.34 438.718C1257.01 439.387 1257.35 440.217 1257.35 441.206C1257.35 442.195 1257.01 443.024 1256.34 443.694C1255.67 444.364 1254.86 444.699 1253.9 444.699ZM1262.71 446.565C1262.71 441.046 1263.64 436.74 1265.49 433.645C1267.37 430.519 1270.59 428.956 1275.15 428.956C1279.72 428.956 1282.92 430.519 1284.77 433.645C1286.65 436.74 1287.6 441.046 1287.6 446.565C1287.6 452.148 1286.65 456.518 1284.77 459.676C1282.92 462.802 1279.72 464.365 1275.15 464.365C1270.59 464.365 1267.37 462.802 1265.49 459.676C1263.64 456.518 1262.71 452.148 1262.71 446.565ZM1282.24 446.565C1282.24 443.981 1282.06 441.796 1281.71 440.01C1281.39 438.223 1280.72 436.772 1279.7 435.655C1278.68 434.507 1277.16 433.933 1275.15 433.933C1273.14 433.933 1271.63 434.507 1270.61 435.655C1269.59 436.772 1268.9 438.223 1268.55 440.01C1268.23 441.796 1268.07 443.981 1268.07 446.565C1268.07 449.245 1268.23 451.494 1268.55 453.312C1268.87 455.13 1269.54 456.598 1270.56 457.714C1271.61 458.831 1273.14 459.389 1275.15 459.389C1277.16 459.389 1278.68 458.831 1279.7 457.714C1280.75 456.598 1281.44 455.13 1281.76 453.312C1282.08 451.494 1282.24 449.245 1282.24 446.565ZM1293.37 446.565C1293.37 441.046 1294.29 436.74 1296.14 433.645C1298.02 430.519 1301.25 428.956 1305.81 428.956C1310.37 428.956 1313.58 430.519 1315.43 433.645C1317.31 436.74 1318.25 441.046 1318.25 446.565C1318.25 452.148 1317.31 456.518 1315.43 459.676C1313.58 462.802 1310.37 464.365 1305.81 464.365C1301.25 464.365 1298.02 462.802 1296.14 459.676C1294.29 456.518 1293.37 452.148 1293.37 446.565ZM1312.89 446.565C1312.89 443.981 1312.71 441.796 1312.36 440.01C1312.04 438.223 1311.37 436.772 1310.35 435.655C1309.33 434.507 1307.82 433.933 1305.81 433.933C1303.8 433.933 1302.28 434.507 1301.26 435.655C1300.24 436.772 1299.56 438.223 1299.2 440.01C1298.89 441.796 1298.73 443.981 1298.73 446.565C1298.73 449.245 1298.89 451.494 1299.2 453.312C1299.52 455.13 1300.19 456.598 1301.21 457.714C1302.27 458.831 1303.8 459.389 1305.81 459.389C1307.82 459.389 1309.33 458.831 1310.35 457.714C1311.41 456.598 1312.09 455.13 1312.41 453.312C1312.73 451.494 1312.89 449.245 1312.89 446.565Z"></path></g><path style="fill:var(--color-illustrationHighlight010)" fill-rule="evenodd" clip-rule="evenodd" d="M492 340V299H496.211V317.008L717.789 317.008V321.01L496.211 321.01V340H492Z"></path><path style="fill:var(--color-illustrationHighlight010)" fill-rule="evenodd" clip-rule="evenodd" d="M1151.79 340V299H1147.58V317.008L711 317.008V321.01L1147.58 321.01V340H1151.79Z"></path><defs><filter id="nk-1067" x="96.075" y="365.037" width="1296.85" height="191.401" filterUnits="userSpaceOnUse" color-interpolation-filters="sRGB"><feFlood flood-opacity="0" result="BackgroundImageFix"></feFlood><feColorMatrix in="SourceAlpha" type="matrix" values="0 0 0 0 0 0 0 0 0 0 0 0 0 0 0 0 0 0 127 0" result="hardAlpha"></feColorMatrix><feOffset dy="11.9625"></feOffset><feGaussianBlur stdDeviation="11.9625"></feGaussianBlur><feColorMatrix type="matrix" values="0 0 0 0 0.0392157 0 0 0 0 0.0392157 0 0 0 0 0.0392157 0 0 0 0.08 0"></feColorMatrix><feBlend mode="normal" in2="BackgroundImageFix" result="effect1_dropShadow_1308_12922"></feBlend><feBlend mode="normal" in="SourceGraphic" in2="effect1_dropShadow_1308_12922" result="shape"></feBlend></filter></defs></svg>