<svg id="components-audio-player-behaviours-skip-previous" style="width: 100%; height: 100%" width="1490" height="838" viewBox="0 0 1490 838" fill="none" xmlns="http://www.w3.org/2000/svg" class="css-0"><g clip-path="url(#nk-748)"><path style="fill:var(--color-illustrationBackground020)" d="M0 0H1490V838H0V0Z"></path><g filter="url(#nk-749)"><rect style="fill:var(--color-interfaceBackground)" x="-185" y="223" width="1792" height="403" rx="8"></rect></g><rect style="fill:var(--color-illustrationHighlight010)" x="151.444" y="313.334" width="222.667" height="222.667" rx="111.333"></rect><path style="fill:var(--color-illustrationInterface010)" fill-rule="evenodd" clip-rule="evenodd" d="M244.222 396.832H234.944V452.499H244.222V396.832ZM290.611 452.499L251.181 424.665L290.611 396.832V452.499Z"></path><path style="fill:var(--color-illustrationInterface030)" fill-rule="evenodd" clip-rule="evenodd" d="M535.414 418.716C536.155 416.386 536.472 413.42 536.472 410.031V402.194C536.472 398.805 536.049 395.945 535.309 393.509C534.568 391.073 533.511 389.061 532.135 387.472C530.76 385.883 529.174 384.718 527.27 383.977C525.366 383.236 523.356 382.918 521.029 382.918C518.702 382.918 516.587 383.236 514.789 383.977C512.991 384.718 511.298 385.883 510.029 387.472C508.76 389.061 507.702 391.179 506.962 393.509C506.221 395.839 505.904 398.805 505.904 402.194V410.031C505.904 413.42 506.327 416.28 507.067 418.716C507.808 421.152 508.865 423.164 510.241 424.753C511.616 426.341 513.202 427.506 515.106 428.248C517.01 428.989 519.02 429.307 521.347 429.307C523.674 429.307 525.789 428.989 527.587 428.248C529.385 427.506 531.078 426.341 532.347 424.753C533.616 423.164 534.674 421.046 535.414 418.716ZM482.211 428.667H491.202V383.443H490.25L471.528 390.116V397.424L482.211 394.14V428.667ZM527.482 400.918C527.482 398.905 527.376 397.211 527.059 395.834C526.742 394.457 526.319 393.398 525.79 392.551C525.261 391.703 524.626 391.068 523.78 390.75C522.934 390.432 522.088 390.221 521.136 390.221C520.184 390.221 519.232 390.432 518.492 390.75C517.751 391.068 517.011 391.703 516.482 392.551C515.953 393.398 515.53 394.457 515.213 395.834C514.895 397.211 514.789 398.905 514.789 400.918V411.191C514.789 413.203 514.895 414.898 515.213 416.275C515.53 417.651 515.953 418.816 516.482 419.664C517.011 420.511 517.645 421.147 518.492 421.464C519.338 421.782 520.184 421.994 521.136 421.994C522.088 421.994 523.04 421.782 523.78 421.464C524.521 421.147 525.261 420.511 525.79 419.664C526.319 418.816 526.742 417.651 526.953 416.275C527.165 414.898 527.376 413.203 527.376 411.191V400.918H527.482ZM522.556 466.417L502.278 452.5L522.556 438.583V466.417ZM501.084 466.417L480.806 452.5L501.084 438.583V466.417Z"></path><rect style="fill:var(--color-illustrationInterface030)" x="633.889" y="313.334" width="222.667" height="222.667" rx="111.333"></rect><path style="fill:var(--color-interfaceBackground)" d="M726.667 392.195V457.14L777.694 424.668L726.667 392.195Z"></path><path style="fill:var(--color-illustrationInterface030)" fill-rule="evenodd" clip-rule="evenodd" d="M1017.86 418.716C1018.6 416.386 1018.92 413.42 1018.92 410.031V402.194C1018.92 398.805 1018.49 395.945 1017.75 393.509C1017.01 391.073 1015.95 389.061 1014.58 387.472C1013.2 385.883 1011.62 384.718 1009.71 383.977C1007.81 383.236 1005.8 382.918 1003.47 382.918C1001.15 382.918 999.031 383.236 997.233 383.977C995.435 384.718 993.743 385.883 992.473 387.472C991.204 389.061 990.146 391.179 989.406 393.509C988.666 395.839 988.348 398.805 988.348 402.194V410.031C988.348 413.42 988.771 416.28 989.512 418.716C990.252 421.152 991.31 423.164 992.685 424.753C994.06 426.341 995.647 427.506 997.55 428.248C999.454 428.989 1001.46 429.307 1003.79 429.307C1006.12 429.307 1008.23 428.989 1010.03 428.248C1011.83 427.506 1013.52 426.341 1014.79 424.753C1016.06 423.164 1017.12 421.046 1017.86 418.716ZM964.655 428.667H973.646V383.443H972.694L953.972 390.116V397.424L964.655 394.14V428.667ZM1009.93 400.918C1009.93 398.905 1009.82 397.211 1009.5 395.834C1009.19 394.457 1008.76 393.398 1008.23 392.551C1007.71 391.703 1007.07 391.068 1006.22 390.75C1005.38 390.432 1004.53 390.221 1003.58 390.221C1002.63 390.221 1001.68 390.432 1000.94 390.75C1000.2 391.068 999.455 391.703 998.926 392.551C998.397 393.398 997.974 394.457 997.657 395.834C997.34 397.211 997.234 398.905 997.234 400.918V411.191C997.234 413.203 997.34 414.898 997.657 416.275C997.974 417.651 998.397 418.816 998.926 419.664C999.455 420.511 1000.09 421.147 1000.94 421.464C1001.78 421.782 1002.63 421.994 1003.58 421.994C1004.53 421.994 1005.48 421.782 1006.22 421.464C1006.96 421.147 1007.71 420.511 1008.23 419.664C1008.76 418.816 1009.19 417.651 1009.4 416.275C1009.61 414.898 1009.82 413.203 1009.82 411.191V400.918H1009.93ZM989.361 466.417L1009.64 452.5L989.361 438.583V466.417ZM967.889 466.417L988.168 452.5L967.889 438.583V466.417Z"></path><path style="fill:var(--color-illustrationInterface030)" fill-rule="evenodd" clip-rule="evenodd" d="M1239.26 424.665L1199.83 452.499V396.832L1239.26 424.665ZM1255.5 452.499H1246.22V396.832H1255.5V452.499Z"></path></g><defs><filter id="nk-749" x="-196.3" y="217.37" width="1814.6" height="425.6" filterUnits="userSpaceOnUse" color-interpolation-filters="sRGB"><feFlood flood-opacity="0" result="BackgroundImageFix"></feFlood><feColorMatrix in="SourceAlpha" type="matrix" values="0 0 0 0 0 0 0 0 0 0 0 0 0 0 0 0 0 0 127 0" result="hardAlpha"></feColorMatrix><feOffset dy="5.67"></feOffset><feGaussianBlur stdDeviation="5.65"></feGaussianBlur><feComposite in2="hardAlpha" operator="out"></feComposite><feColorMatrix type="matrix" values="0 0 0 0 0.0392157 0 0 0 0 0.0392157 0 0 0 0 0.0392157 0 0 0 0.08 0"></feColorMatrix><feBlend mode="normal" in2="BackgroundImageFix" result="effect1_dropShadow_2539_106906"></feBlend><feBlend mode="normal" in="SourceGraphic" in2="effect1_dropShadow_2539_106906" result="shape"></feBlend></filter><clipPath id="nk-748"><rect style="fill:var(--color-white)" width="1490" height="838"></rect></clipPath></defs></svg>