<svg id="components-checkbox-anatomy" style="width: 100%; height: 100%" width="1490" height="838" viewBox="0 0 1490 838" fill="none" xmlns="http://www.w3.org/2000/svg" class="css-0"><rect style="fill:var(--color-illustrationBackground010)" width="1490" height="838"></rect><rect style="fill:var(--color-illustrationInterface020)" x="529" y="274" width="289" height="289" rx="144.5"></rect><rect style="fill:var(--color-illustrationInterface030)" opacity="0.4" x="581.957" y="326.816" width="184.026" height="184.026" rx="30"></rect><path style="fill:var(--color-illustrationAnatomySubtle)" d="M841.396 445.754H864.886V454.922H830V385.668H841.396V445.754Z"></path><path style="fill:var(--color-illustrationAnatomySubtle)" d="M870.618 427.22C870.618 421.706 871.751 416.824 874.016 412.572C876.349 408.321 879.481 405.032 883.413 402.707C887.411 400.316 891.809 399.12 896.607 399.12C900.939 399.12 904.704 399.984 907.903 401.711C911.168 403.371 913.767 405.464 915.7 407.988V400.017H927.195V454.922H915.7V446.751C913.767 449.342 911.135 451.501 907.803 453.228C904.471 454.955 900.673 455.819 896.408 455.819C891.676 455.819 887.344 454.623 883.413 452.231C879.481 449.773 876.349 446.385 874.016 442.067C871.751 437.683 870.618 432.734 870.618 427.22ZM915.7 427.419C915.7 423.633 914.9 420.345 913.301 417.554C911.768 414.764 909.736 412.639 907.203 411.177C904.671 409.716 901.939 408.985 899.007 408.985C896.074 408.985 893.342 409.716 890.81 411.177C888.277 412.572 886.212 414.665 884.612 417.455C883.079 420.178 882.313 423.434 882.313 427.22C882.313 431.007 883.079 434.328 884.612 437.185C886.212 440.041 888.277 442.234 890.81 443.761C893.409 445.223 896.141 445.954 899.007 445.954C901.939 445.954 904.671 445.223 907.203 443.761C909.736 442.3 911.768 440.174 913.301 437.384C914.9 434.528 915.7 431.206 915.7 427.419Z"></path><path style="fill:var(--color-illustrationAnatomySubtle)" d="M953.559 408.188C955.491 405.53 958.123 403.371 961.455 401.711C964.854 399.984 968.619 399.12 972.751 399.12C977.616 399.12 982.014 400.282 985.946 402.608C989.878 404.933 992.976 408.254 995.242 412.572C997.508 416.824 998.641 421.706 998.641 427.22C998.641 432.734 997.508 437.683 995.242 442.067C992.976 446.385 989.844 449.773 985.846 452.231C981.914 454.623 977.549 455.819 972.751 455.819C968.486 455.819 964.688 454.988 961.355 453.327C958.09 451.667 955.491 449.541 953.559 446.95V454.922H942.163V381.184H953.559V408.188ZM987.045 427.22C987.045 423.434 986.246 420.178 984.646 417.455C983.114 414.665 981.048 412.572 978.449 411.177C975.916 409.716 973.184 408.985 970.252 408.985C967.386 408.985 964.654 409.716 962.055 411.177C959.523 412.639 957.457 414.764 955.858 417.554C954.325 420.345 953.559 423.633 953.559 427.419C953.559 431.206 954.325 434.528 955.858 437.384C957.457 440.174 959.523 442.3 962.055 443.761C964.654 445.223 967.386 445.954 970.252 445.954C973.184 445.954 975.916 445.223 978.449 443.761C981.048 442.234 983.114 440.041 984.646 437.185C986.246 434.328 987.045 431.007 987.045 427.22Z"></path><path style="fill:var(--color-illustrationAnatomySubtle)" d="M1060.39 426.124C1060.39 428.183 1060.26 430.043 1059.99 431.704H1017.91C1018.24 436.089 1019.87 439.609 1022.8 442.267C1025.74 444.924 1029.34 446.253 1033.6 446.253C1039.73 446.253 1044.06 443.695 1046.6 438.58H1058.89C1057.22 443.629 1054.19 447.78 1049.79 451.036C1045.46 454.224 1040.06 455.819 1033.6 455.819C1028.34 455.819 1023.6 454.656 1019.41 452.331C1015.27 449.939 1012.01 446.618 1009.61 442.366C1007.28 438.048 1006.11 433.066 1006.11 427.419C1006.11 421.773 1007.24 416.824 1009.51 412.572C1011.84 408.254 1015.07 404.933 1019.21 402.608C1023.4 400.282 1028.2 399.12 1033.6 399.12C1038.8 399.12 1043.43 400.249 1047.5 402.508C1051.56 404.767 1054.73 407.955 1056.99 412.074C1059.26 416.126 1060.39 420.81 1060.39 426.124ZM1048.49 422.537C1048.43 418.352 1046.93 414.997 1044 412.473C1041.06 409.948 1037.43 408.686 1033.1 408.686C1029.17 408.686 1025.8 409.948 1023 412.473C1020.21 414.93 1018.54 418.285 1018.01 422.537H1048.49Z"></path><path style="fill:var(--color-illustrationAnatomySubtle)" d="M1083 381.184V454.922H1071.6V381.184H1083Z"></path><path style="fill:var(--color-illustrationPalette040)" fill-rule="evenodd" clip-rule="evenodd" d="M877 393.129V223.129H879V393.129H877Z"></path><path style="fill:var(--color-illustrationPalette040)" d="M883.066 395.076C883.066 398.005 880.692 400.379 877.764 400.379C874.835 400.379 872.461 398.005 872.461 395.076C872.461 392.148 874.835 389.773 877.764 389.773C880.692 389.773 883.066 392.148 883.066 395.076Z"></path><rect style="fill:var(--color-illustrationPalette040)" x="859.203" y="190" width="37.1188" height="37.1188" rx="18.5594"></rect><path style="fill:var(--color-white)" d="M871.663 213.159V210.838L878.565 200.961H882.005V210.585H883.862V213.159H882.005V216.156H879.05V213.159H871.663ZM879.24 204.127L874.913 210.585H879.24V204.127Z"></path><rect style="fill:var(--color-illustrationPalette040)" x="719" y="610" width="38.5134" height="38.5134" rx="19.2567"></rect><path style="fill:var(--color-white)" d="M733.211 625.411C733.281 624.004 733.774 622.921 734.688 622.161C735.617 621.387 736.834 621 738.339 621C739.367 621 740.246 621.183 740.978 621.549C741.709 621.9 742.258 622.386 742.624 623.005C743.004 623.61 743.193 624.299 743.193 625.073C743.193 625.96 742.961 626.712 742.497 627.331C742.047 627.936 741.505 628.344 740.872 628.555V628.64C741.688 628.893 742.321 629.343 742.771 629.991C743.236 630.638 743.468 631.468 743.468 632.481C743.468 633.325 743.271 634.078 742.877 634.739C742.497 635.4 741.927 635.921 741.167 636.301C740.422 636.667 739.521 636.85 738.466 636.85C736.876 636.85 735.582 636.449 734.583 635.647C733.584 634.845 733.056 633.663 733 632.101H735.87C735.898 632.79 736.131 633.346 736.567 633.768C737.017 634.176 737.629 634.38 738.403 634.38C739.12 634.38 739.669 634.183 740.049 633.789C740.443 633.381 740.64 632.861 740.64 632.228C740.64 631.383 740.373 630.778 739.838 630.413C739.303 630.047 738.473 629.864 737.348 629.864H736.736V627.437H737.348C739.345 627.437 740.344 626.769 740.344 625.432C740.344 624.827 740.161 624.356 739.796 624.018C739.444 623.68 738.93 623.511 738.255 623.511C737.594 623.511 737.08 623.694 736.714 624.06C736.363 624.412 736.159 624.862 736.102 625.411H733.211Z"></path><path style="fill:var(--color-illustrationPalette040)" fill-rule="evenodd" clip-rule="evenodd" d="M737 611L737 541L739 541L739 611L737 611Z"></path><path style="fill:var(--color-illustrationPalette040)" d="M744 543C744 546.314 741.314 549 738 549C734.686 549 732 546.314 732 543C732 539.686 734.686 537 738 537C741.314 537 744 539.686 744 543Z"></path><path style="fill:var(--color-illustrationAnatomySubtle)" d="M654.494 446.231L626.264 418.001L616.651 427.547L654.494 465.39L735.731 384.153L726.186 374.607L654.494 446.231Z"></path><path style="fill:var(--color-illustrationPalette040)" fill-rule="evenodd" clip-rule="evenodd" d="M428.117 419.146H549.509V420.914H428.117V419.146Z"></path><path style="fill:var(--color-illustrationPalette040)" fill-rule="evenodd" clip-rule="evenodd" d="M549 420H550.857V506.65C550.857 508.092 552.104 509.26 553.643 509.26H584.5V511H553.643C551.079 511 549 509.053 549 506.65V420Z"></path><path style="fill:var(--color-illustrationPalette040)" fill-rule="evenodd" clip-rule="evenodd" d="M549 420H550.857V331.35C550.857 329.908 552.104 328.74 553.643 328.74H584.5V327H553.643C551.079 327 549 328.947 549 331.35V420Z"></path><rect style="fill:var(--color-illustrationPalette040)" x="391" y="401.471" width="37.1188" height="37.1188" rx="18.5594"></rect><path style="fill:var(--color-white)" d="M407.016 415.06V412.338H412.103V427.723H409.063V415.06H407.016Z"></path><path style="fill:var(--color-illustrationPalette040)" fill-rule="evenodd" clip-rule="evenodd" d="M624.797 419V223H626.797V419H624.797Z"></path><path style="fill:var(--color-illustrationPalette040)" d="M631.066 418.076C631.066 421.005 628.692 423.379 625.764 423.379C622.835 423.379 620.461 421.005 620.461 418.076C620.461 415.148 622.835 412.773 625.764 412.773C628.692 412.773 631.066 415.148 631.066 418.076Z"></path><rect style="fill:var(--color-illustrationPalette040)" x="607" y="190" width="37.1188" height="37.1188" rx="18.5594"></rect><path style="fill:var(--color-white)" d="M621.603 213.024C622.905 211.939 623.942 211.037 624.715 210.319C625.488 209.586 626.132 208.827 626.648 208.04C627.163 207.254 627.421 206.481 627.421 205.722C627.421 205.03 627.258 204.488 626.932 204.094C626.607 203.701 626.105 203.504 625.427 203.504C624.749 203.504 624.227 203.735 623.861 204.196C623.495 204.644 623.305 205.261 623.291 206.047H620.525C620.579 204.42 621.061 203.186 621.969 202.345C622.891 201.504 624.058 201.084 625.468 201.084C627.014 201.084 628.2 201.498 629.027 202.325C629.855 203.138 630.268 204.216 630.268 205.559C630.268 206.617 629.983 207.627 629.414 208.59C628.844 209.552 628.193 210.393 627.461 211.112C626.729 211.817 625.773 212.671 624.593 213.675H630.594V216.034H620.545V213.919L621.603 213.024Z"></path></svg>