<svg
  id="nksvg"
  style="width: 100%; height: 100%"
  width="1000"
  height="1000"
  viewBox="0 0 1000 1000"
  fill="none"
  xmlns="http://www.w3.org/2000/svg"
  class="css-0"
>
  <g clip-path="url(#nk-1252)">
    <rect
      style="fill: var(--color-illustrationBackground020)"
      width="1000"
      height="1000"
      rx="22"
    ></rect>
    <path
      style="fill: var(--color-illustrationPalette010)"
      d="M110 93C110 84.1635 117.163 77 126 77H1000V923H110V93Z"
    ></path>
    <g opacity="0.2">
      <path
        style="fill: var(--color-illustrationPalette020)"
        fill-rule="evenodd"
        clip-rule="evenodd"
        d="M283.968 181C277.358 181 272 190.185 272 201.515V333.96C272 345.29 277.358 354.476 283.968 354.476H1014.03C1020.64 354.476 1026 345.29 1026 333.96V201.515C1026 190.185 1020.64 181 1014.03 181H283.968ZM272.533 418.914C272.533 402.29 286.008 388.815 302.63 388.815H473.716C490.338 388.815 503.813 402.291 503.813 418.914V604.741C503.813 621.364 490.338 634.839 473.716 634.839H302.63C286.008 634.839 272.533 621.364 272.533 604.74V418.914ZM533.625 418.914C533.625 402.29 547.1 388.815 563.722 388.815H734.808C751.43 388.815 764.905 402.291 764.905 418.914V604.741C764.905 621.364 751.43 634.839 734.808 634.839H563.722C547.1 634.839 533.625 621.364 533.625 604.74V418.914ZM824.817 388.815C808.195 388.815 794.72 402.29 794.72 418.914V604.74C794.72 621.364 808.195 634.839 824.817 634.839H995.903C1012.53 634.839 1026 621.364 1026 604.741V418.914C1026 402.291 1012.53 388.815 995.903 388.815H824.817Z"
      ></path>
      <path
        style="fill: var(--color-illustrationPalette020)"
        d="M272.533 707.074C272.533 690.451 286.008 676.976 302.63 676.976H473.716C490.338 676.976 503.813 690.451 503.813 707.074V923C503.813 923 490.338 923 473.716 923H302.63C272.533 923 272.533 923 272.533 923V707.074Z"
      ></path>
      <path
        style="fill: var(--color-illustrationPalette020)"
        d="M533.625 707.074C533.625 690.451 547.1 676.976 563.722 676.976H734.808C751.43 676.976 764.905 690.451 764.905 707.074V923C764.905 923 751.43 923 734.808 923H563.722C547.1 923 533.625 923 533.625 923V707.074Z"
      ></path>
      <path
        style="fill: var(--color-illustrationPalette020)"
        d="M824.817 676.976C808.195 676.976 794.72 690.451 794.72 707.074V923C794.72 923 808.195 923 824.817 923H995.903C1012.53 923 1026 923 1026 923V707.074C1026 690.451 1012.53 676.976 995.903 676.976H824.817Z"
      ></path>
    </g>
    <path
      style="fill: var(--color-illustrationPalette020)"
      d="M110 77H350V923H110V77Z"
    ></path>
    <path
      style="fill: var(--color-illustrationInterface090)"
      fill-rule="evenodd"
      clip-rule="evenodd"
      d="M635.776 438.603C628.764 434.249 619.686 439.277 619.686 447.513V480.85H389.995C385.027 480.85 381 484.865 381 489.819C381 494.773 385.027 498.789 389.995 498.789H619.686V533.487C619.686 541.721 628.761 546.749 635.773 542.399L705.034 499.428C711.654 495.322 711.656 485.714 705.037 481.605L635.776 438.603Z"
    ></path>
    <path
      style="fill: var(--color-illustrationPalette030)"
      d="M110 205H277.5C284.956 205 291 211.044 291 218.5V218.5C291 225.956 284.956 232 277.5 232H110V205Z"
    ></path>
    <path
      style="fill: var(--color-illustrationPalette030)"
      d="M110 264H181.5C188.404 264 194 269.596 194 276.5V276.5C194 283.404 188.404 289 181.5 289H110V264Z"
    ></path>
    <path
      style="fill: var(--color-white)"
      opacity="0.4"
      d="M110 375H284.5C288.09 375 291 377.91 291 381.5V381.5C291 385.09 288.09 388 284.5 388H110V375Z"
    ></path>
    <path
      style="fill: var(--color-white)"
      opacity="0.4"
      d="M110 409H282C286.971 409 291 413.029 291 418V418C291 422.971 286.971 427 282 427H110V409Z"
    ></path>
    <path
      style="fill: var(--color-white)"
      opacity="0.4"
      d="M110 335H283C287.418 335 291 338.582 291 343V343C291 347.418 287.418 351 283 351H110V335Z"
    ></path>
    <path
      style="fill: var(--color-white)"
      opacity="0.4"
      d="M110 447H143C147.418 447 151 450.582 151 455V455C151 459.418 147.418 463 143 463H110V447Z"
    ></path>
  </g>
  <defs>
    <clipPath id="nk-1252">
      <rect
        style="fill: var(--color-white)"
        width="1000"
        height="1000"
        rx="22"
      ></rect>
    </clipPath>
  </defs>
</svg>
