<svg
  id="nksvg"
  style="width: 100%; height: 100%"
  width="1490"
  height="838"
  viewBox="0 0 1490 838"
  fill="none"
  xmlns="http://www.w3.org/2000/svg"
  class="css-0"
>
  <g clip-path="url(#nk-991)">
    <path
      style="fill: var(--color-illustrationBackground020)"
      d="M0 0H1490V838H0V0Z"
    ></path>
    <path
      style="fill: var(--color-illustrationHighlight010)"
      d="M374.549 292.319H388.196V297.662H367.929V257.302H374.549V292.319Z"
    ></path>
    <path
      style="fill: var(--color-illustrationHighlight010)"
      d="M391.526 281.518C391.526 278.305 392.184 275.459 393.5 272.981C394.855 270.504 396.675 268.587 398.959 267.232C401.282 265.838 403.837 265.142 406.624 265.142C409.141 265.142 411.328 265.645 413.187 266.651C415.084 267.619 416.594 268.839 417.716 270.31V265.664H424.395V297.662H417.716V292.9C416.594 294.41 415.064 295.668 413.129 296.675C411.193 297.681 408.986 298.185 406.508 298.185C403.76 298.185 401.243 297.488 398.959 296.094C396.675 294.662 394.855 292.687 393.5 290.171C392.184 287.616 391.526 284.731 391.526 281.518ZM417.716 281.634C417.716 279.427 417.252 277.511 416.323 275.885C415.432 274.259 414.251 273.02 412.78 272.168C411.309 271.317 409.722 270.891 408.018 270.891C406.315 270.891 404.727 271.317 403.256 272.168C401.785 272.981 400.585 274.201 399.656 275.827C398.765 277.414 398.32 279.311 398.32 281.518C398.32 283.725 398.765 285.66 399.656 287.325C400.585 288.99 401.785 290.268 403.256 291.158C404.766 292.01 406.353 292.436 408.018 292.436C409.722 292.436 411.309 292.01 412.78 291.158C414.251 290.306 415.432 289.067 416.323 287.441C417.252 285.777 417.716 283.841 417.716 281.634Z"
    ></path>
    <path
      style="fill: var(--color-illustrationHighlight010)"
      d="M439.71 270.426C440.833 268.878 442.362 267.619 444.298 266.651C446.273 265.645 448.46 265.142 450.86 265.142C453.686 265.142 456.242 265.819 458.526 267.174C460.81 268.529 462.61 270.465 463.927 272.981C465.243 275.459 465.901 278.305 465.901 281.518C465.901 284.731 465.243 287.616 463.927 290.171C462.61 292.687 460.791 294.662 458.468 296.094C456.184 297.488 453.648 298.185 450.86 298.185C448.383 298.185 446.176 297.701 444.24 296.733C442.343 295.765 440.833 294.526 439.71 293.016V297.662H433.09V254.688H439.71V270.426ZM459.165 281.518C459.165 279.311 458.7 277.414 457.771 275.827C456.88 274.201 455.68 272.981 454.17 272.168C452.699 271.317 451.112 270.891 449.408 270.891C447.744 270.891 446.156 271.317 444.647 272.168C443.175 273.02 441.975 274.259 441.046 275.885C440.156 277.511 439.71 279.427 439.71 281.634C439.71 283.841 440.156 285.777 441.046 287.441C441.975 289.067 443.175 290.306 444.647 291.158C446.156 292.01 447.744 292.436 449.408 292.436C451.112 292.436 452.699 292.01 454.17 291.158C455.68 290.268 456.88 288.99 457.771 287.325C458.7 285.66 459.165 283.725 459.165 281.518Z"
    ></path>
    <path
      style="fill: var(--color-illustrationHighlight010)"
      d="M501.774 280.879C501.774 282.079 501.697 283.163 501.542 284.131H477.094C477.287 286.686 478.236 288.738 479.939 290.287C481.643 291.835 483.733 292.61 486.211 292.61C489.773 292.61 492.289 291.119 493.76 288.138H500.903C499.935 291.081 498.174 293.5 495.619 295.397C493.102 297.256 489.966 298.185 486.211 298.185C483.152 298.185 480.404 297.507 477.965 296.152C475.564 294.758 473.667 292.823 472.274 290.345C470.919 287.828 470.241 284.925 470.241 281.634C470.241 278.343 470.899 275.459 472.215 272.981C473.571 270.465 475.448 268.529 477.849 267.174C480.288 265.819 483.075 265.142 486.211 265.142C489.231 265.142 491.921 265.8 494.283 267.116C496.645 268.432 498.484 270.291 499.8 272.691C501.116 275.053 501.774 277.782 501.774 280.879ZM494.864 278.789C494.825 276.35 493.954 274.394 492.251 272.923C490.547 271.452 488.437 270.716 485.921 270.716C483.636 270.716 481.681 271.452 480.055 272.923C478.429 274.356 477.461 276.311 477.152 278.789H494.864Z"
    ></path>
    <path
      style="fill: var(--color-illustrationHighlight010)"
      d="M514.91 254.688V297.662H508.289V254.688H514.91Z"
    ></path>
    <rect
      style="fill: var(--color-interfaceBackground)"
      x="369.998"
      y="345.928"
      width="750.803"
      height="178.969"
      rx="29.9303"
    ></rect>
    <path
      style="fill: var(--color-illustrationBorder020)"
      d="M430.624 450.613C427.643 450.613 425.05 450.071 422.843 448.987C420.636 447.903 418.933 446.393 417.732 444.457C416.532 442.521 415.932 440.276 415.932 437.72H421.043C421.043 439.308 421.41 440.779 422.146 442.134C422.881 443.45 423.946 444.515 425.34 445.328C426.772 446.102 428.534 446.489 430.624 446.489C433.373 446.489 435.503 445.831 437.012 444.515C438.522 443.199 439.277 441.553 439.277 439.579C439.277 437.953 438.929 436.656 438.232 435.688C437.535 434.681 436.587 433.868 435.386 433.249C434.225 432.629 432.87 432.087 431.321 431.623C429.811 431.158 428.224 430.636 426.559 430.055C423.423 428.971 421.101 427.635 419.591 426.048C418.081 424.422 417.326 422.312 417.326 419.718C417.287 417.55 417.79 415.634 418.836 413.969C419.881 412.265 421.352 410.949 423.249 410.02C425.185 409.052 427.469 408.568 430.102 408.568C432.696 408.568 434.941 409.052 436.838 410.02C438.774 410.988 440.264 412.323 441.31 414.027C442.394 415.73 442.955 417.666 442.994 419.834H437.884C437.884 418.711 437.593 417.608 437.012 416.524C436.432 415.401 435.541 414.491 434.341 413.795C433.18 413.098 431.708 412.749 429.928 412.749C427.721 412.711 425.901 413.272 424.469 414.433C423.075 415.595 422.378 417.202 422.378 419.253C422.378 420.996 422.862 422.331 423.83 423.26C424.837 424.19 426.23 424.964 428.011 425.583C429.792 426.164 431.844 426.842 434.167 427.616C436.103 428.313 437.845 429.126 439.393 430.055C440.942 430.984 442.142 432.184 442.994 433.655C443.884 435.127 444.33 437.004 444.33 439.288C444.33 441.224 443.826 443.063 442.82 444.805C441.813 446.509 440.284 447.903 438.232 448.987C436.219 450.071 433.683 450.613 430.624 450.613Z"
    ></path>
    <path
      style="fill: var(--color-illustrationBorder020)"
      d="M463.907 450.613C461.158 450.613 458.719 449.993 456.59 448.754C454.461 447.477 452.777 445.715 451.538 443.47C450.338 441.224 449.738 438.572 449.738 435.514C449.738 432.494 450.338 429.861 451.538 427.616C452.738 425.332 454.403 423.57 456.532 422.331C458.7 421.054 461.197 420.415 464.023 420.415C466.811 420.415 469.211 421.054 471.224 422.331C473.276 423.57 474.844 425.216 475.928 427.267C477.012 429.319 477.554 431.526 477.554 433.888C477.554 434.314 477.535 434.739 477.496 435.165C477.496 435.591 477.496 436.075 477.496 436.617H454.558C454.674 438.824 455.177 440.663 456.067 442.134C456.997 443.566 458.139 444.65 459.494 445.386C460.887 446.122 462.359 446.489 463.907 446.489C465.92 446.489 467.605 446.025 468.96 445.096C470.315 444.167 471.302 442.908 471.921 441.321H476.741C475.967 443.992 474.476 446.218 472.27 447.999C470.102 449.741 467.314 450.613 463.907 450.613ZM463.907 424.538C461.584 424.538 459.513 425.254 457.693 426.687C455.913 428.08 454.887 430.132 454.616 432.842H472.734C472.618 430.248 471.728 428.216 470.063 426.745C468.398 425.274 466.346 424.538 463.907 424.538Z"
    ></path>
    <path
      style="fill: var(--color-illustrationBorder020)"
      d="M484.02 449.916V408.104H488.898V449.916H484.02Z"
    ></path>
    <path
      style="fill: var(--color-illustrationBorder020)"
      d="M509.843 450.613C507.095 450.613 504.656 449.993 502.526 448.754C500.397 447.477 498.713 445.715 497.474 443.47C496.274 441.224 495.674 438.572 495.674 435.514C495.674 432.494 496.274 429.861 497.474 427.616C498.674 425.332 500.339 423.57 502.468 422.331C504.636 421.054 507.133 420.415 509.96 420.415C512.747 420.415 515.147 421.054 517.161 422.331C519.212 423.57 520.78 425.216 521.864 427.267C522.948 429.319 523.49 431.526 523.49 433.888C523.49 434.314 523.471 434.739 523.432 435.165C523.432 435.591 523.432 436.075 523.432 436.617H500.494C500.61 438.824 501.113 440.663 502.004 442.134C502.933 443.566 504.075 444.65 505.43 445.386C506.824 446.122 508.295 446.489 509.843 446.489C511.857 446.489 513.541 446.025 514.896 445.096C516.251 444.167 517.238 442.908 517.857 441.321H522.677C521.903 443.992 520.413 446.218 518.206 447.999C516.038 449.741 513.25 450.613 509.843 450.613ZM509.843 424.538C507.521 424.538 505.449 425.254 503.63 426.687C501.849 428.08 500.823 430.132 500.552 432.842H518.67C518.554 430.248 517.664 428.216 515.999 426.745C514.334 425.274 512.283 424.538 509.843 424.538Z"
    ></path>
    <path
      style="fill: var(--color-illustrationBorder020)"
      d="M543.197 450.613C540.448 450.613 537.97 449.993 535.763 448.754C533.595 447.477 531.872 445.715 530.595 443.47C529.356 441.185 528.737 438.533 528.737 435.514C528.737 432.494 529.356 429.861 530.595 427.616C531.872 425.332 533.595 423.57 535.763 422.331C537.97 421.054 540.448 420.415 543.197 420.415C546.603 420.415 549.468 421.305 551.791 423.086C554.153 424.867 555.643 427.248 556.263 430.229H551.269C550.881 428.448 549.933 427.074 548.423 426.106C546.913 425.099 545.152 424.596 543.138 424.596C541.512 424.596 539.983 425.003 538.551 425.816C537.118 426.629 535.957 427.848 535.066 429.474C534.176 431.1 533.731 433.113 533.731 435.514C533.731 437.914 534.176 439.927 535.066 441.553C535.957 443.179 537.118 444.418 538.551 445.27C539.983 446.083 541.512 446.489 543.138 446.489C545.152 446.489 546.913 446.005 548.423 445.038C549.933 444.031 550.881 442.618 551.269 440.798H556.263C555.682 443.702 554.211 446.064 551.849 447.883C549.488 449.703 546.603 450.613 543.197 450.613Z"
    ></path>
    <path
      style="fill: var(--color-illustrationBorder020)"
      d="M573.664 449.916C571.031 449.916 568.96 449.277 567.45 447.999C565.94 446.722 565.185 444.418 565.185 441.089V425.235H560.191V421.112H565.185L565.824 414.201H570.063V421.112H578.542V425.235H570.063V441.089C570.063 442.908 570.431 444.147 571.167 444.805C571.902 445.425 573.199 445.734 575.057 445.734H578.077V449.916H573.664Z"
    ></path>
    <path
      style="fill: var(--color-illustrationBorder020)"
      d="M613.232 450.613C610.522 450.613 608.083 449.993 605.915 448.754C603.747 447.515 602.024 445.773 600.747 443.528C599.508 441.244 598.888 438.572 598.888 435.514C598.888 432.455 599.527 429.803 600.805 427.558C602.082 425.274 603.805 423.512 605.973 422.273C608.18 421.034 610.638 420.415 613.349 420.415C616.059 420.415 618.498 421.034 620.666 422.273C622.834 423.512 624.537 425.274 625.776 427.558C627.054 429.803 627.692 432.455 627.692 435.514C627.692 438.572 627.054 441.244 625.776 443.528C624.498 445.773 622.756 447.515 620.55 448.754C618.381 449.993 615.942 450.613 613.232 450.613ZM613.232 446.431C614.897 446.431 616.446 446.025 617.878 445.212C619.311 444.399 620.472 443.179 621.363 441.553C622.253 439.927 622.698 437.914 622.698 435.514C622.698 433.113 622.253 431.1 621.363 429.474C620.511 427.848 619.369 426.629 617.936 425.816C616.504 425.003 614.975 424.596 613.349 424.596C611.684 424.596 610.135 425.003 608.703 425.816C607.27 426.629 606.109 427.848 605.218 429.474C604.328 431.1 603.883 433.113 603.883 435.514C603.883 437.914 604.328 439.927 605.218 441.553C606.109 443.179 607.251 444.399 608.645 445.212C610.077 446.025 611.606 446.431 613.232 446.431Z"
    ></path>
    <path
      style="fill: var(--color-illustrationBorder020)"
      d="M634.475 462.692V421.112H638.889L639.353 425.874C640.282 424.48 641.599 423.222 643.302 422.099C645.044 420.976 647.251 420.415 649.922 420.415C652.787 420.415 655.284 421.073 657.414 422.389C659.543 423.706 661.188 425.506 662.35 427.79C663.55 430.074 664.15 432.668 664.15 435.572C664.15 438.475 663.55 441.069 662.35 443.354C661.188 445.599 659.524 447.38 657.356 448.696C655.226 449.974 652.729 450.613 649.864 450.613C647.503 450.613 645.393 450.129 643.534 449.161C641.715 448.193 640.321 446.838 639.353 445.096V462.692H634.475ZM649.342 446.373C651.277 446.373 652.981 445.928 654.452 445.038C655.923 444.108 657.085 442.831 657.936 441.205C658.788 439.579 659.214 437.682 659.214 435.514C659.214 433.346 658.788 431.449 657.936 429.823C657.085 428.197 655.923 426.938 654.452 426.048C652.981 425.119 651.277 424.654 649.342 424.654C647.406 424.654 645.702 425.119 644.231 426.048C642.76 426.938 641.599 428.197 640.747 429.823C639.895 431.449 639.469 433.346 639.469 435.514C639.469 437.682 639.895 439.579 640.747 441.205C641.599 442.831 642.76 444.108 644.231 445.038C645.702 445.928 647.406 446.373 649.342 446.373Z"
    ></path>
    <path
      style="fill: var(--color-illustrationBorder020)"
      d="M681.189 449.916C678.556 449.916 676.485 449.277 674.975 447.999C673.465 446.722 672.71 444.418 672.71 441.089V425.235H667.716V421.112H672.71L673.349 414.201H677.588V421.112H686.067V425.235H677.588V441.089C677.588 442.908 677.956 444.147 678.691 444.805C679.427 445.425 680.724 445.734 682.582 445.734H685.602V449.916H681.189Z"
    ></path>
    <path
      style="fill: var(--color-illustrationBorder020)"
      d="M695.226 414.724C694.258 414.724 693.445 414.414 692.787 413.795C692.167 413.136 691.858 412.323 691.858 411.356C691.858 410.426 692.167 409.652 692.787 409.033C693.445 408.413 694.258 408.104 695.226 408.104C696.155 408.104 696.949 408.413 697.607 409.033C698.265 409.652 698.594 410.426 698.594 411.356C698.594 412.323 698.265 413.136 697.607 413.795C696.949 414.414 696.155 414.724 695.226 414.724ZM692.787 449.916V421.112H697.665V449.916H692.787Z"
    ></path>
    <path
      style="fill: var(--color-illustrationBorder020)"
      d="M719.283 450.613C716.573 450.613 714.134 449.993 711.966 448.754C709.798 447.515 708.075 445.773 706.797 443.528C705.558 441.244 704.939 438.572 704.939 435.514C704.939 432.455 705.578 429.803 706.855 427.558C708.133 425.274 709.856 423.512 712.024 422.273C714.23 421.034 716.689 420.415 719.399 420.415C722.109 420.415 724.548 421.034 726.716 422.273C728.884 423.512 730.587 425.274 731.826 427.558C733.104 429.803 733.743 432.455 733.743 435.514C733.743 438.572 733.104 441.244 731.826 443.528C730.549 445.773 728.807 447.515 726.6 448.754C724.432 449.993 721.993 450.613 719.283 450.613ZM719.283 446.431C720.947 446.431 722.496 446.025 723.928 445.212C725.361 444.399 726.522 443.179 727.413 441.553C728.303 439.927 728.749 437.914 728.749 435.514C728.749 433.113 728.303 431.1 727.413 429.474C726.561 427.848 725.419 426.629 723.987 425.816C722.554 425.003 721.025 424.596 719.399 424.596C717.734 424.596 716.185 425.003 714.753 425.816C713.321 426.629 712.159 427.848 711.269 429.474C710.378 431.1 709.933 433.113 709.933 435.514C709.933 437.914 710.378 439.927 711.269 441.553C712.159 443.179 713.301 444.399 714.695 445.212C716.127 446.025 717.657 446.431 719.283 446.431Z"
    ></path>
    <path
      style="fill: var(--color-illustrationBorder020)"
      d="M740.525 449.916V421.112H744.939L745.229 426.28C746.158 424.461 747.494 423.028 749.236 421.983C750.978 420.938 752.953 420.415 755.16 420.415C758.567 420.415 761.277 421.46 763.29 423.551C765.342 425.603 766.368 428.777 766.368 433.075V449.916H761.49V433.597C761.49 427.597 759.012 424.596 754.056 424.596C751.579 424.596 749.507 425.506 747.843 427.325C746.217 429.106 745.404 431.662 745.404 434.991V449.916H740.525Z"
    ></path>
    <path
      style="fill: var(--color-illustrationBorder020)"
      fill-rule="evenodd"
      clip-rule="evenodd"
      d="M878.876 435.413C878.876 415.378 895.137 399.118 915.172 399.118C935.207 399.118 951.467 415.378 951.467 435.413C951.467 455.448 935.207 471.709 915.172 471.709C895.137 471.709 878.876 455.448 878.876 435.413ZM918.801 439.043H933.319V431.784H918.801V417.266H911.542V431.784H897.024V439.043H911.542V453.561H918.801V439.043Z"
    ></path>
    <path
      style="fill: var(--color-illustrationHighlight010)"
      d="M1047.98 423.035L1031.32 439.658L1014.66 423.035L1009.54 428.153L1031.32 449.93L1053.09 428.153L1047.98 423.035Z"
    ></path>
    <rect
      x="369.998"
      y="345.928"
      width="750.803"
      height="178.969"
      rx="29.9303"
      stroke="#C0C7CC"
      stroke-width="4.13939"
    ></rect>
    <path
      style="fill: var(--color-illustrationHighlight010)"
      fill-rule="evenodd"
      clip-rule="evenodd"
      d="M925.765 650.375C944.667 650.375 959.99 635.052 959.99 616.15L959.99 576.3C959.99 574.767 961.232 573.525 962.765 573.525C964.298 573.525 965.54 574.767 965.54 576.3L965.54 616.15C965.54 638.117 947.732 655.925 925.765 655.925L899.065 655.925C877.098 655.925 859.29 638.117 859.29 616.15L859.29 576.3C859.29 574.767 860.532 573.525 862.065 573.525C863.598 573.525 864.84 574.767 864.84 576.3L864.84 616.15C864.84 635.052 880.163 650.375 899.065 650.375L925.765 650.375Z"
    ></path>
    <path
      style="fill: var(--color-illustrationHighlight010)"
      fill-rule="evenodd"
      clip-rule="evenodd"
      d="M862.277 567.475C860.744 567.475 859.502 566.232 859.502 564.7L859.502 556.275C859.502 554.742 860.744 553.5 862.277 553.5C863.81 553.5 865.052 554.742 865.052 556.275L865.052 564.7C865.052 566.232 863.81 567.475 862.277 567.475ZM862.277 542.2C860.744 542.2 859.502 540.957 859.502 539.425L859.502 522.575C859.502 521.042 860.744 519.8 862.277 519.8C863.81 519.8 865.052 521.042 865.052 522.575L865.052 539.425C865.052 540.957 863.81 542.2 862.277 542.2ZM862.277 508.5C860.744 508.5 859.502 507.257 859.502 505.725L859.502 497.3C859.502 495.767 860.744 494.525 862.277 494.525C863.81 494.525 865.052 495.767 865.052 497.3L865.052 505.725C865.052 507.257 863.81 508.5 862.277 508.5Z"
    ></path>
    <path
      style="fill: var(--color-illustrationHighlight010)"
      fill-rule="evenodd"
      clip-rule="evenodd"
      d="M962.277 567.475C960.744 567.475 959.502 566.232 959.502 564.7L959.502 556.275C959.502 554.742 960.744 553.5 962.277 553.5C963.81 553.5 965.052 554.742 965.052 556.275L965.052 564.7C965.052 566.232 963.81 567.475 962.277 567.475ZM962.277 542.2C960.744 542.2 959.502 540.957 959.502 539.425L959.502 522.575C959.502 521.042 960.744 519.8 962.277 519.8C963.81 519.8 965.052 521.042 965.052 522.575L965.052 539.425C965.052 540.957 963.81 542.2 962.277 542.2ZM962.277 508.5C960.744 508.5 959.502 507.257 959.502 505.725L959.502 497.3C959.502 495.767 960.744 494.525 962.277 494.525C963.81 494.525 965.052 495.767 965.052 497.3L965.052 505.725C965.052 507.257 963.81 508.5 962.277 508.5Z"
    ></path>
  </g>
  <defs>
    <clipPath id="nk-991">
      <rect style="fill: var(--color-white)" width="1490" height="838"></rect>
    </clipPath>
  </defs>
</svg>
