<svg id="components-select-options-mobile" style="width: 100%; height: 100%" width="1490" height="838" viewBox="0 0 1490 838" fill="none" xmlns="http://www.w3.org/2000/svg" class="css-0"><path style="fill:var(--color-illustrationBackground020)" d="M0 0H1490V838H0V0Z"></path><g clip-path="url(#nk-1607)"><path style="fill:var(--color-illustrationInterface020)" d="M572.278 114.866C572.278 104.594 580.595 96.2676 590.855 96.2676H898.21C908.47 96.2676 916.787 104.594 916.787 114.866V722.802C916.787 733.074 908.47 741.401 898.21 741.401H590.855C580.595 741.401 572.278 733.074 572.278 722.802V114.866Z"></path><path style="fill:var(--color-illustrationHighlight010)" d="M572.278 104.889C572.278 100.127 576.139 96.2666 580.901 96.2666H908.566C913.328 96.2666 917.189 100.127 917.189 104.889V157.176H572.278V104.889Z"></path><path style="fill:var(--color-illustrationInterface010)" d="M816.948 126.72C816.948 124.338 818.879 122.408 821.26 122.408H887.008C889.389 122.408 891.32 124.338 891.32 126.72C891.32 129.101 889.389 131.031 887.008 131.031H821.26C818.879 131.031 816.948 129.101 816.948 126.72Z"></path><g clip-path="url(#nk-1608)" filter="url(#nk-1615)"><path style="fill:var(--color-illustrationInterface010)" d="M572.278 157.344H917.036V231.278H572.278V157.344Z"></path><g clip-path="url(#nk-1609)"><g clip-path="url(#nk-1610)"><rect style="fill:var(--color-illustrationInterface010)" width="77.816" height="51.6082" transform="translate(584.477 167.694)"></rect><mask id="nk-1603" mask-type="alpha" maskUnits="userSpaceOnUse" x="584" y="185" width="16" height="17"><path style="fill:var(--color-black)" fill-rule="evenodd" clip-rule="evenodd" d="M594.8 188.339V190.919H597.38V188.339H594.8ZM587.059 190.919H589.639V188.339H587.059V190.919ZM590.929 198.661H593.51V196.08H590.929V198.661ZM589.639 198.661H587.059V196.08H589.639V198.661ZM587.059 194.79H589.639V192.209H587.059V194.79ZM593.51 194.79H590.929V192.209H593.51V194.79ZM593.51 190.919H590.929V188.339H593.51V190.919ZM594.8 194.79H597.38V192.209H594.8V194.79ZM597.38 198.661H594.8V196.08H597.38V198.661Z"></path></mask><g mask="url(#nk-1603)"><path style="fill:var(--color-illustrationSubtle010)" d="M584.478 185.759H599.96V201.241H584.478V185.759Z"></path></g><path style="fill:var(--color-illustrationSubtle010)" d="M607.64 189.882C608.396 189.882 609.061 190.03 609.632 190.326C610.21 190.621 610.653 191.045 610.963 191.595C611.28 192.139 611.438 192.772 611.438 193.494C611.438 194.217 611.28 194.85 610.963 195.394C610.653 195.93 610.21 196.347 609.632 196.642C609.061 196.938 608.396 197.086 607.64 197.086H605.121V189.882H607.64ZM607.588 195.858C608.345 195.858 608.93 195.652 609.343 195.239C609.756 194.826 609.962 194.244 609.962 193.494C609.962 192.744 609.756 192.159 609.343 191.74C608.93 191.313 608.345 191.1 607.588 191.1H606.566V195.858H607.588Z"></path><path style="fill:var(--color-illustrationSubtle010)" d="M612.148 194.207C612.148 193.629 612.262 193.116 612.489 192.669C612.723 192.221 613.036 191.877 613.428 191.636C613.827 191.396 614.271 191.275 614.759 191.275C615.186 191.275 615.558 191.361 615.874 191.533C616.198 191.705 616.456 191.922 616.648 192.183V191.368H618.104V197.086H616.648V196.25C616.462 196.519 616.204 196.742 615.874 196.921C615.551 197.093 615.176 197.179 614.749 197.179C614.267 197.179 613.827 197.055 613.428 196.808C613.036 196.56 612.723 196.212 612.489 195.765C612.262 195.311 612.148 194.791 612.148 194.207ZM616.648 194.227C616.648 193.876 616.579 193.577 616.442 193.329C616.304 193.075 616.118 192.882 615.884 192.751C615.651 192.614 615.399 192.545 615.131 192.545C614.863 192.545 614.615 192.61 614.388 192.741C614.161 192.872 613.975 193.064 613.83 193.319C613.693 193.567 613.624 193.862 613.624 194.207C613.624 194.551 613.693 194.853 613.83 195.115C613.975 195.369 614.161 195.566 614.388 195.703C614.622 195.841 614.87 195.91 615.131 195.91C615.399 195.91 615.651 195.844 615.884 195.713C616.118 195.576 616.304 195.383 616.442 195.135C616.579 194.881 616.648 194.578 616.648 194.227Z"></path><path style="fill:var(--color-illustrationSubtle010)" d="M621.703 197.179C621.235 197.179 620.815 197.097 620.444 196.931C620.072 196.759 619.776 196.529 619.556 196.24C619.343 195.951 619.226 195.631 619.205 195.28H620.661C620.688 195.5 620.795 195.683 620.981 195.827C621.173 195.972 621.411 196.044 621.693 196.044C621.968 196.044 622.181 195.989 622.333 195.879C622.491 195.769 622.57 195.627 622.57 195.455C622.57 195.27 622.474 195.132 622.281 195.043C622.095 194.946 621.796 194.843 621.383 194.733C620.957 194.63 620.606 194.523 620.33 194.413C620.062 194.303 619.828 194.134 619.628 193.907C619.436 193.68 619.339 193.374 619.339 192.989C619.339 192.672 619.429 192.383 619.608 192.122C619.794 191.86 620.055 191.654 620.392 191.502C620.736 191.351 621.139 191.275 621.6 191.275C622.281 191.275 622.825 191.447 623.231 191.791C623.637 192.128 623.86 192.586 623.902 193.164H622.519C622.498 192.937 622.402 192.758 622.23 192.627C622.064 192.49 621.841 192.421 621.559 192.421C621.297 192.421 621.094 192.469 620.95 192.565C620.812 192.662 620.743 192.796 620.743 192.968C620.743 193.161 620.84 193.309 621.032 193.412C621.225 193.508 621.524 193.608 621.93 193.711C622.343 193.814 622.684 193.921 622.952 194.031C623.22 194.141 623.451 194.313 623.644 194.547C623.843 194.774 623.946 195.077 623.953 195.455C623.953 195.786 623.86 196.082 623.675 196.343C623.496 196.605 623.234 196.811 622.89 196.962C622.553 197.107 622.157 197.179 621.703 197.179Z"></path><path style="fill:var(--color-illustrationSubtle010)" d="M628.36 191.285C628.793 191.285 629.179 191.382 629.516 191.574C629.853 191.76 630.114 192.039 630.3 192.411C630.493 192.775 630.589 193.216 630.589 193.732V197.086H629.144V193.928C629.144 193.474 629.031 193.126 628.804 192.885C628.577 192.638 628.267 192.514 627.875 192.514C627.476 192.514 627.159 192.638 626.925 192.885C626.698 193.126 626.584 193.474 626.584 193.928V197.086H625.139V189.448H626.584V192.08C626.77 191.833 627.018 191.64 627.328 191.502C627.637 191.358 627.981 191.285 628.36 191.285Z"></path><path style="fill:var(--color-illustrationSubtle010)" d="M633.408 192.204C633.594 191.929 633.849 191.705 634.172 191.533C634.503 191.361 634.878 191.275 635.297 191.275C635.786 191.275 636.226 191.396 636.618 191.636C637.018 191.877 637.331 192.221 637.558 192.669C637.792 193.109 637.909 193.622 637.909 194.207C637.909 194.791 637.792 195.311 637.558 195.765C637.331 196.212 637.018 196.56 636.618 196.808C636.226 197.055 635.786 197.179 635.297 197.179C634.871 197.179 634.496 197.097 634.172 196.931C633.856 196.759 633.601 196.539 633.408 196.271V197.086H631.963V189.448H633.408V192.204ZM636.433 194.207C636.433 193.862 636.36 193.567 636.216 193.319C636.078 193.064 635.893 192.872 635.659 192.741C635.431 192.61 635.184 192.545 634.915 192.545C634.654 192.545 634.406 192.614 634.172 192.751C633.945 192.882 633.759 193.075 633.615 193.329C633.477 193.584 633.408 193.883 633.408 194.227C633.408 194.571 633.477 194.871 633.615 195.125C633.759 195.38 633.945 195.576 634.172 195.713C634.406 195.844 634.654 195.91 634.915 195.91C635.184 195.91 635.431 195.841 635.659 195.703C635.893 195.566 636.078 195.369 636.216 195.115C636.36 194.86 636.433 194.557 636.433 194.207Z"></path><path style="fill:var(--color-illustrationSubtle010)" d="M641.498 197.179C640.947 197.179 640.452 197.059 640.012 196.818C639.571 196.57 639.224 196.223 638.969 195.775C638.721 195.328 638.597 194.812 638.597 194.227C638.597 193.642 638.725 193.126 638.979 192.679C639.241 192.232 639.595 191.888 640.042 191.647C640.49 191.399 640.989 191.275 641.539 191.275C642.09 191.275 642.589 191.399 643.036 191.647C643.483 191.888 643.834 192.232 644.089 192.679C644.35 193.126 644.481 193.642 644.481 194.227C644.481 194.812 644.347 195.328 644.078 195.775C643.817 196.223 643.459 196.57 643.005 196.818C642.558 197.059 642.055 197.179 641.498 197.179ZM641.498 195.92C641.759 195.92 642.004 195.858 642.231 195.734C642.465 195.603 642.65 195.411 642.788 195.156C642.926 194.902 642.994 194.592 642.994 194.227C642.994 193.684 642.85 193.267 642.561 192.978C642.279 192.682 641.931 192.534 641.518 192.534C641.106 192.534 640.758 192.682 640.476 192.978C640.201 193.267 640.063 193.684 640.063 194.227C640.063 194.771 640.197 195.191 640.466 195.486C640.741 195.775 641.085 195.92 641.498 195.92Z"></path><path style="fill:var(--color-illustrationSubtle010)" d="M645.169 194.207C645.169 193.629 645.283 193.116 645.51 192.669C645.744 192.221 646.057 191.877 646.449 191.636C646.848 191.396 647.292 191.275 647.781 191.275C648.207 191.275 648.579 191.361 648.895 191.533C649.219 191.705 649.477 191.922 649.669 192.183V191.368H651.125V197.086H649.669V196.25C649.484 196.519 649.226 196.742 648.895 196.921C648.572 197.093 648.197 197.179 647.77 197.179C647.289 197.179 646.848 197.055 646.449 196.808C646.057 196.56 645.744 196.212 645.51 195.765C645.283 195.311 645.169 194.791 645.169 194.207ZM649.669 194.227C649.669 193.876 649.601 193.577 649.463 193.329C649.325 193.075 649.14 192.882 648.906 192.751C648.672 192.614 648.421 192.545 648.152 192.545C647.884 192.545 647.636 192.61 647.409 192.741C647.182 192.872 646.996 193.064 646.852 193.319C646.714 193.567 646.645 193.862 646.645 194.207C646.645 194.551 646.714 194.853 646.852 195.115C646.996 195.369 647.182 195.566 647.409 195.703C647.643 195.841 647.891 195.91 648.152 195.91C648.421 195.91 648.672 195.844 648.906 195.713C649.14 195.576 649.325 195.383 649.463 195.135C649.601 194.881 649.669 194.578 649.669 194.227Z"></path><path style="fill:var(--color-illustrationSubtle010)" d="M653.981 192.256C654.167 191.953 654.408 191.716 654.704 191.544C655.006 191.372 655.35 191.285 655.736 191.285V192.803H655.354C654.9 192.803 654.556 192.909 654.322 193.123C654.095 193.336 653.981 193.708 653.981 194.237V197.086H652.536V191.368H653.981V192.256Z"></path><path style="fill:var(--color-illustrationSubtle010)" d="M656.338 194.207C656.338 193.629 656.451 193.116 656.678 192.669C656.912 192.221 657.229 191.877 657.628 191.636C658.027 191.396 658.471 191.275 658.959 191.275C659.331 191.275 659.685 191.358 660.022 191.523C660.36 191.681 660.628 191.894 660.827 192.163V189.448H662.293V197.086H660.827V196.24C660.649 196.522 660.397 196.749 660.074 196.921C659.751 197.093 659.376 197.179 658.949 197.179C658.467 197.179 658.027 197.055 657.628 196.808C657.229 196.56 656.912 196.212 656.678 195.765C656.451 195.311 656.338 194.791 656.338 194.207ZM660.838 194.227C660.838 193.876 660.769 193.577 660.631 193.329C660.494 193.075 660.308 192.882 660.074 192.751C659.84 192.614 659.589 192.545 659.32 192.545C659.052 192.545 658.804 192.61 658.577 192.741C658.35 192.872 658.164 193.064 658.02 193.319C657.882 193.567 657.814 193.862 657.814 194.207C657.814 194.551 657.882 194.853 658.02 195.115C658.164 195.369 658.35 195.566 658.577 195.703C658.811 195.841 659.059 195.91 659.32 195.91C659.589 195.91 659.84 195.844 660.074 195.713C660.308 195.576 660.494 195.383 660.631 195.135C660.769 194.881 660.838 194.578 660.838 194.227Z"></path></g><rect style="fill:var(--color-illustrationInterface010)" width="77.816" height="1.2902" transform="translate(584.477 219.304)"></rect><path style="fill:var(--color-illustrationInterface010)" d="M584.477 219.305H662.293V220.595H584.477V219.305Z"></path></g><g clip-path="url(#nk-1611)"><rect style="fill:var(--color-illustrationInterface010)" width="127.916" height="69.7912" transform="translate(685.396 157.178)"></rect><mask id="nk-1604" mask-type="alpha" maskUnits="userSpaceOnUse" x="710" y="179" width="26" height="26"><path style="fill:var(--color-black)" fill-rule="evenodd" clip-rule="evenodd" d="M715.423 182.75H729.934C731.073 182.75 732.005 183.672 732.005 184.821V199.322C732.005 200.461 731.073 201.393 729.934 201.393H715.423C714.274 201.393 713.362 200.461 713.362 199.322L713.373 184.821C713.373 183.672 714.274 182.75 715.423 182.75ZM725.791 195.179H729.934V184.821H715.434V195.179H719.577C719.577 196.898 720.975 198.286 722.684 198.286C724.393 198.286 725.791 196.898 725.791 195.179Z"></path></mask><g mask="url(#nk-1604)"><path style="fill:var(--color-illustrationHighlight010)" d="M710.256 179.645H735.113V204.502H710.256V179.645Z"></path></g><path style="fill:var(--color-illustrationHighlight010)" d="M745.719 186.13V197.697H743.399V186.13H745.719Z"></path><path style="fill:var(--color-illustrationHighlight010)" d="M753.099 188.383C754.193 188.383 755.077 188.731 755.751 189.427C756.425 190.112 756.762 191.074 756.762 192.311V197.697H754.441V192.626C754.441 191.897 754.259 191.339 753.895 190.952C753.53 190.554 753.033 190.355 752.403 190.355C751.762 190.355 751.254 190.554 750.879 190.952C750.514 191.339 750.332 191.897 750.332 192.626V197.697H748.012V188.516H750.332V189.659C750.641 189.262 751.033 188.952 751.508 188.731C751.994 188.499 752.525 188.383 753.099 188.383Z"></path><path style="fill:var(--color-illustrationHighlight010)" d="M761.288 189.858C761.586 189.416 761.995 189.057 762.514 188.781C763.044 188.505 763.647 188.367 764.32 188.367C765.105 188.367 765.812 188.56 766.442 188.947C767.082 189.333 767.585 189.886 767.95 190.604C768.325 191.311 768.513 192.134 768.513 193.073C768.513 194.012 768.325 194.846 767.95 195.575C767.585 196.294 767.082 196.852 766.442 197.249C765.812 197.647 765.105 197.846 764.32 197.846C763.635 197.846 763.033 197.713 762.514 197.448C762.006 197.172 761.597 196.818 761.288 196.388V197.697H758.968V185.434H761.288V189.858ZM766.143 193.073C766.143 192.521 766.027 192.046 765.795 191.648C765.574 191.239 765.276 190.93 764.9 190.72C764.536 190.51 764.138 190.405 763.707 190.405C763.287 190.405 762.89 190.516 762.514 190.737C762.15 190.946 761.851 191.256 761.619 191.665C761.398 192.073 761.288 192.554 761.288 193.106C761.288 193.659 761.398 194.139 761.619 194.548C761.851 194.957 762.15 195.272 762.514 195.493C762.89 195.703 763.287 195.807 763.707 195.807C764.138 195.807 764.536 195.697 764.9 195.476C765.276 195.255 765.574 194.94 765.795 194.531C766.027 194.123 766.143 193.637 766.143 193.073Z"></path><path style="fill:var(--color-illustrationHighlight010)" d="M774.276 197.846C773.392 197.846 772.596 197.652 771.889 197.266C771.182 196.868 770.624 196.31 770.216 195.592C769.818 194.874 769.619 194.045 769.619 193.106C769.619 192.167 769.823 191.339 770.232 190.621C770.652 189.902 771.221 189.35 771.939 188.963C772.657 188.566 773.458 188.367 774.342 188.367C775.226 188.367 776.027 188.566 776.745 188.963C777.463 189.35 778.026 189.902 778.435 190.621C778.855 191.339 779.065 192.167 779.065 193.106C779.065 194.045 778.849 194.874 778.419 195.592C777.999 196.31 777.424 196.868 776.695 197.266C775.977 197.652 775.171 197.846 774.276 197.846ZM774.276 195.824C774.695 195.824 775.088 195.725 775.452 195.526C775.828 195.316 776.126 195.007 776.347 194.598C776.568 194.189 776.679 193.692 776.679 193.106C776.679 192.234 776.447 191.565 775.983 191.101C775.53 190.626 774.972 190.389 774.309 190.389C773.646 190.389 773.088 190.626 772.635 191.101C772.193 191.565 771.972 192.234 771.972 193.106C771.972 193.979 772.188 194.653 772.618 195.128C773.06 195.592 773.613 195.824 774.276 195.824Z"></path><path style="fill:var(--color-illustrationHighlight010)" d="M785.838 197.697L783.948 194.846L782.275 197.697H779.789L782.788 193.09L779.756 188.516H782.374L784.247 191.35L785.937 188.516H788.423L785.407 193.09L788.456 197.697H785.838Z"></path><rect style="fill:var(--color-illustrationInterface010)" width="127.916" height="4.14293" transform="translate(685.396 226.968)"></rect><path style="fill:var(--color-illustrationHighlight010)" d="M685.396 226.969H813.313V231.112H685.396V226.969Z"></path></g><g clip-path="url(#nk-1612)"><g clip-path="url(#nk-1613)"><rect style="fill:var(--color-illustrationInterface010)" width="61.6521" height="51.6082" transform="translate(838.672 167.694)"></rect><mask id="nk-1605" mask-type="alpha" maskUnits="userSpaceOnUse" x="838" y="185" width="17" height="17"><path style="fill:var(--color-black)" fill-rule="evenodd" clip-rule="evenodd" d="M839.963 193.499C839.963 189.938 842.853 187.048 846.414 187.048C849.975 187.048 852.865 189.938 852.865 193.499C852.865 197.06 849.975 199.95 846.414 199.95C842.853 199.95 839.963 197.06 839.963 193.499ZM847.059 196.079V197.369H845.769V196.079H847.059ZM846.414 198.66C843.569 198.66 841.253 196.344 841.253 193.499C841.253 190.654 843.569 188.338 846.414 188.338C849.259 188.338 851.575 190.654 851.575 193.499C851.575 196.344 849.259 198.66 846.414 198.66ZM843.834 192.209C843.834 190.783 844.988 189.628 846.414 189.628C847.84 189.628 848.994 190.783 848.994 192.209C848.994 193.036 848.485 193.482 847.988 193.915C847.518 194.327 847.059 194.728 847.059 195.434H845.769C845.769 194.259 846.377 193.793 846.911 193.384C847.33 193.063 847.704 192.776 847.704 192.209C847.704 191.499 847.124 190.918 846.414 190.918C845.704 190.918 845.124 191.499 845.124 192.209H843.834Z"></path></mask><g mask="url(#nk-1605)"><path style="fill:var(--color-illustrationSubtle010)" d="M838.673 185.759H854.155V201.241H838.673V185.759Z"></path></g><path style="fill:var(--color-illustrationSubtle010)" d="M861.99 197.285C861.487 197.285 861.033 197.199 860.627 197.027C860.228 196.855 859.912 196.607 859.678 196.284C859.444 195.961 859.323 195.579 859.316 195.138H860.865C860.885 195.434 860.989 195.668 861.174 195.84C861.367 196.012 861.628 196.098 861.959 196.098C862.296 196.098 862.561 196.019 862.754 195.861C862.946 195.696 863.043 195.482 863.043 195.221C863.043 195.008 862.977 194.832 862.846 194.695C862.716 194.557 862.551 194.45 862.351 194.375C862.158 194.292 861.89 194.203 861.546 194.106C861.078 193.969 860.696 193.834 860.4 193.704C860.111 193.566 859.86 193.363 859.647 193.095C859.44 192.819 859.337 192.455 859.337 192.001C859.337 191.574 859.444 191.202 859.657 190.886C859.87 190.569 860.17 190.328 860.555 190.163C860.94 189.991 861.381 189.905 861.876 189.905C862.619 189.905 863.221 190.088 863.682 190.452C864.15 190.81 864.408 191.312 864.457 191.959H862.867C862.853 191.712 862.747 191.509 862.547 191.35C862.354 191.185 862.096 191.103 861.773 191.103C861.491 191.103 861.264 191.175 861.092 191.319C860.927 191.464 860.844 191.674 860.844 191.949C860.844 192.142 860.906 192.303 861.03 192.434C861.161 192.558 861.319 192.661 861.505 192.744C861.697 192.819 861.966 192.909 862.31 193.012C862.778 193.15 863.159 193.287 863.455 193.425C863.751 193.563 864.006 193.769 864.219 194.044C864.432 194.319 864.539 194.681 864.539 195.128C864.539 195.513 864.439 195.871 864.24 196.201C864.04 196.532 863.748 196.797 863.362 196.996C862.977 197.189 862.52 197.285 861.99 197.285Z"></path><path style="fill:var(--color-illustrationSubtle010)" d="M871.19 191.495V197.213H869.735V196.49C869.549 196.738 869.305 196.934 869.002 197.079C868.706 197.216 868.383 197.285 868.032 197.285C867.584 197.285 867.189 197.192 866.845 197.007C866.501 196.814 866.229 196.535 866.029 196.171C865.837 195.799 865.74 195.359 865.74 194.849V191.495H867.185V194.643C867.185 195.097 867.299 195.448 867.526 195.696C867.753 195.937 868.063 196.057 868.455 196.057C868.854 196.057 869.167 195.937 869.394 195.696C869.621 195.448 869.735 195.097 869.735 194.643V191.495H871.19Z"></path><path style="fill:var(--color-illustrationSubtle010)" d="M874.061 192.321C874.247 192.059 874.501 191.842 874.825 191.67C875.155 191.491 875.53 191.402 875.95 191.402C876.438 191.402 876.879 191.522 877.271 191.763C877.67 192.004 877.983 192.348 878.21 192.795C878.444 193.236 878.561 193.748 878.561 194.333C878.561 194.918 878.444 195.438 878.21 195.892C877.983 196.339 877.67 196.687 877.271 196.934C876.879 197.182 876.438 197.306 875.95 197.306C875.53 197.306 875.158 197.22 874.835 197.048C874.519 196.876 874.26 196.659 874.061 196.398V199.938H872.616V191.495H874.061V192.321ZM877.085 194.333C877.085 193.989 877.013 193.693 876.868 193.446C876.731 193.191 876.545 192.998 876.311 192.868C876.084 192.737 875.836 192.671 875.568 192.671C875.306 192.671 875.059 192.74 874.825 192.878C874.598 193.009 874.412 193.201 874.267 193.456C874.13 193.711 874.061 194.01 874.061 194.354C874.061 194.698 874.13 194.997 874.267 195.252C874.412 195.506 874.598 195.703 874.825 195.84C875.059 195.971 875.306 196.036 875.568 196.036C875.836 196.036 876.084 195.968 876.311 195.83C876.545 195.692 876.731 195.496 876.868 195.242C877.013 194.987 877.085 194.684 877.085 194.333Z"></path><path style="fill:var(--color-illustrationSubtle010)" d="M881.056 192.321C881.242 192.059 881.497 191.842 881.82 191.67C882.15 191.491 882.525 191.402 882.945 191.402C883.434 191.402 883.874 191.522 884.266 191.763C884.665 192.004 884.978 192.348 885.206 192.795C885.44 193.236 885.557 193.748 885.557 194.333C885.557 194.918 885.44 195.438 885.206 195.892C884.978 196.339 884.665 196.687 884.266 196.934C883.874 197.182 883.434 197.306 882.945 197.306C882.525 197.306 882.154 197.22 881.83 197.048C881.514 196.876 881.256 196.659 881.056 196.398V199.938H879.611V191.495H881.056V192.321ZM884.081 194.333C884.081 193.989 884.008 193.693 883.864 193.446C883.726 193.191 883.54 192.998 883.306 192.868C883.079 192.737 882.832 192.671 882.563 192.671C882.302 192.671 882.054 192.74 881.82 192.878C881.593 193.009 881.407 193.201 881.263 193.456C881.125 193.711 881.056 194.01 881.056 194.354C881.056 194.698 881.125 194.997 881.263 195.252C881.407 195.506 881.593 195.703 881.82 195.84C882.054 195.971 882.302 196.036 882.563 196.036C882.832 196.036 883.079 195.968 883.306 195.83C883.54 195.692 883.726 195.496 883.864 195.242C884.008 194.987 884.081 194.684 884.081 194.333Z"></path><path style="fill:var(--color-illustrationSubtle010)" d="M889.146 197.306C888.595 197.306 888.1 197.185 887.659 196.945C887.219 196.697 886.871 196.349 886.617 195.902C886.369 195.455 886.245 194.939 886.245 194.354C886.245 193.769 886.373 193.253 886.627 192.806C886.889 192.358 887.243 192.014 887.69 191.773C888.138 191.526 888.636 191.402 889.187 191.402C889.737 191.402 890.236 191.526 890.684 191.773C891.131 192.014 891.482 192.358 891.736 192.806C891.998 193.253 892.129 193.769 892.129 194.354C892.129 194.939 891.994 195.455 891.726 195.902C891.465 196.349 891.107 196.697 890.653 196.945C890.205 197.185 889.703 197.306 889.146 197.306ZM889.146 196.047C889.407 196.047 889.651 195.985 889.879 195.861C890.112 195.73 890.298 195.537 890.436 195.283C890.574 195.028 890.642 194.719 890.642 194.354C890.642 193.81 890.498 193.394 890.209 193.105C889.927 192.809 889.579 192.661 889.166 192.661C888.753 192.661 888.406 192.809 888.124 193.105C887.849 193.394 887.711 193.81 887.711 194.354C887.711 194.898 887.845 195.317 888.114 195.613C888.389 195.902 888.733 196.047 889.146 196.047Z"></path><path style="fill:var(--color-illustrationSubtle010)" d="M894.634 192.382C894.819 192.08 895.06 191.842 895.356 191.67C895.659 191.498 896.003 191.412 896.388 191.412V192.93H896.006C895.552 192.93 895.208 193.036 894.974 193.249C894.747 193.463 894.634 193.834 894.634 194.364V197.213H893.189V191.495H894.634V192.382Z"></path><path style="fill:var(--color-illustrationSubtle010)" d="M899.044 192.682V195.448C899.044 195.641 899.089 195.782 899.178 195.871C899.275 195.954 899.433 195.995 899.653 195.995H900.324V197.213H899.416C898.198 197.213 897.589 196.621 897.589 195.438V192.682H896.907V191.495H897.589V190.081H899.044V191.495H900.324V192.682H899.044Z"></path></g><rect style="fill:var(--color-illustrationInterface010)" width="61.6521" height="1.2902" transform="translate(838.672 219.304)"></rect><path style="fill:var(--color-illustrationInterface010)" d="M838.672 219.305H900.324V220.595H838.672V219.305Z"></path></g></g><path style="fill:var(--color-illustrationInterface030)" d="M598.626 644.595C598.626 646.701 600.333 648.409 602.439 648.409H739.831C741.937 648.409 743.644 646.701 743.644 644.595C743.644 642.489 741.937 640.782 739.831 640.782H602.439C600.333 640.782 598.626 642.489 598.626 644.595Z" stroke="#AEBFFF" stroke-width="0.692735"></path><path style="fill:var(--color-illustrationInterface030)" d="M598.626 621.801C598.626 624.163 600.538 626.076 602.897 626.076H882.264C884.623 626.076 886.535 624.163 886.535 621.801C886.535 619.44 884.623 617.526 882.264 617.526H602.897C600.538 617.526 598.626 619.44 598.626 621.801Z" stroke="#AEBFFF" stroke-width="0.692735"></path><path style="fill:var(--color-illustrationInterface030)" d="M598.626 599.008C598.626 601.115 600.331 602.822 602.435 602.822H882.726C884.829 602.822 886.535 601.115 886.535 599.008C886.535 596.902 884.829 595.195 882.726 595.195H602.435C600.331 595.195 598.626 596.902 598.626 599.008Z" stroke="#AEBFFF" stroke-width="0.692735"></path><path style="fill:var(--color-illustrationInterface030)" d="M598.626 576.216C598.626 578.578 600.538 580.492 602.897 580.492H882.264C884.623 580.492 886.535 578.578 886.535 576.216C886.535 573.855 884.623 571.941 882.264 571.941H602.897C600.538 571.941 598.626 573.855 598.626 576.216Z" stroke="#AEBFFF" stroke-width="0.692735"></path><path style="fill:var(--color-illustrationInterface030)" d="M598.626 552.96C598.626 555.322 600.538 557.236 602.897 557.236H882.264C884.623 557.236 886.535 555.322 886.535 552.96C886.535 550.599 884.623 548.685 882.264 548.685H602.897C600.538 548.685 598.626 550.599 598.626 552.96Z" stroke="#AEBFFF" stroke-width="0.692735"></path><path style="fill:var(--color-illustrationInterface030)" d="M598.626 507.531C598.626 509.637 600.333 511.344 602.439 511.344H739.831C741.937 511.344 743.644 509.637 743.644 507.531C743.644 505.425 741.937 503.718 739.831 503.718H602.439C600.333 503.718 598.626 505.425 598.626 507.531Z" stroke="#AEBFFF" stroke-width="0.692735"></path><path style="fill:var(--color-illustrationInterface030)" d="M598.626 484.738C598.626 487.099 600.538 489.013 602.897 489.013H882.264C884.623 489.013 886.535 487.099 886.535 484.738C886.535 482.376 884.623 480.462 882.264 480.462H602.897C600.538 480.462 598.626 482.376 598.626 484.738Z" stroke="#AEBFFF" stroke-width="0.692735"></path><path style="fill:var(--color-illustrationInterface030)" d="M598.626 461.944C598.626 464.05 600.331 465.757 602.435 465.757H882.726C884.829 465.757 886.535 464.05 886.535 461.944C886.535 459.838 884.829 458.131 882.726 458.131H602.435C600.331 458.131 598.626 459.838 598.626 461.944Z" stroke="#AEBFFF" stroke-width="0.692735"></path><path style="fill:var(--color-illustrationInterface030)" d="M598.626 439.152C598.626 441.513 600.538 443.427 602.897 443.427H882.264C884.623 443.427 886.535 441.513 886.535 439.152C886.535 436.79 884.623 434.876 882.264 434.876H602.897C600.538 434.876 598.626 436.79 598.626 439.152Z" stroke="#AEBFFF" stroke-width="0.692735"></path><path style="fill:var(--color-illustrationInterface030)" d="M598.279 391.417C598.279 394.988 601.175 397.884 604.746 397.884H666.184C669.755 397.884 672.651 394.988 672.651 391.417V341.836C672.651 338.264 669.755 335.369 666.184 335.369H604.746C601.175 335.369 598.279 338.264 598.279 341.836V391.417Z"></path><path style="fill:var(--color-illustrationInterface030)" d="M705.395 391.417C705.395 394.988 708.29 397.884 711.862 397.884H773.299C776.87 397.884 779.766 394.988 779.766 391.417V341.836C779.766 338.264 776.87 335.369 773.299 335.369H711.862C708.29 335.369 705.395 338.264 705.395 341.836V391.417Z"></path><path style="fill:var(--color-illustrationInterface030)" d="M812.511 391.417C812.511 394.988 815.406 397.884 818.978 397.884H880.415C883.987 397.884 886.882 394.988 886.882 391.417V341.836C886.882 338.264 883.987 335.369 880.415 335.369H818.978C815.406 335.369 812.511 338.264 812.511 341.836V391.417Z"></path><path style="fill:var(--color-illustrationInterface030)" d="M598.279 293.64C598.279 296.448 600.555 298.724 603.363 298.724H881.798C884.605 298.724 886.882 296.448 886.882 293.64C886.882 290.832 884.605 288.556 881.798 288.556H603.363C600.555 288.556 598.279 290.832 598.279 293.64Z"></path><path style="fill:var(--color-illustrationInterface030)" d="M598.279 271C598.279 273.553 600.349 275.622 602.901 275.622H882.26C884.812 275.622 886.882 273.553 886.882 271C886.882 268.448 884.812 266.379 882.26 266.379H602.901C600.349 266.379 598.279 268.448 598.279 271Z"></path><path style="fill:var(--color-illustrationInterface030)" opacity="0.85" d="M589.524 96.2451C579.999 96.2451 572.278 103.966 572.278 113.491V724.718C572.278 734.242 579.999 741.963 589.524 741.963H899.542C909.066 741.963 916.787 734.242 916.787 724.718V113.491C916.787 103.966 909.066 96.2451 899.542 96.2451H589.524Z"></path><g clip-path="url(#nk-1614)" filter="url(#nk-1616)"><g filter="url(#nk-1617)"><path style="fill:var(--color-illustrationInterface010)" d="M593.574 174.439C593.574 171.639 595.883 169.368 598.73 169.368H890.182C893.03 169.368 895.338 171.638 895.338 174.439V671.791C895.338 674.591 893.03 676.862 890.182 676.862H598.73C595.883 676.862 593.574 674.591 593.574 671.791V174.439Z"></path></g><path style="fill:var(--color-illustrationHighlight010)" d="M876.03 186.838L874.5 185.309L868.435 191.373L862.371 185.309L860.841 186.838L866.905 192.903L860.841 198.968L862.371 200.497L868.435 194.433L874.5 200.497L876.03 198.968L869.965 192.903L876.03 186.838Z"></path><rect style="fill:var(--color-transparent)" width="262.996" height="48.8488" transform="translate(612.975 210.221)"></rect><path style="fill:var(--color-illustrationHighlight010)" d="M627.631 240.693L632.042 228.725H633.564L637.957 240.693H636.436L635.342 237.615H630.247L629.135 240.693H627.631ZM630.674 236.453H634.914L632.794 230.537L630.674 236.453Z"></path><path style="fill:var(--color-illustrationHighlight010)" d="M639.651 240.693V232.213H640.951L641.053 233.444C641.327 232.988 641.691 232.634 642.147 232.384C642.603 232.133 643.116 232.007 643.686 232.007C644.359 232.007 644.934 232.144 645.413 232.418C645.903 232.691 646.279 233.107 646.541 233.666C646.838 233.153 647.242 232.748 647.755 232.452C648.279 232.156 648.844 232.007 649.448 232.007C650.462 232.007 651.271 232.315 651.876 232.931C652.48 233.535 652.782 234.469 652.782 235.735V240.693H651.363V235.888C651.363 235.011 651.186 234.35 650.833 233.905C650.479 233.461 649.972 233.238 649.311 233.238C648.627 233.238 648.057 233.506 647.601 234.042C647.157 234.566 646.935 235.319 646.935 236.299V240.693H645.498V235.888C645.498 235.011 645.322 234.35 644.968 233.905C644.615 233.461 644.108 233.238 643.447 233.238C642.774 233.238 642.21 233.506 641.754 234.042C641.31 234.566 641.087 235.319 641.087 236.299V240.693H639.651Z"></path><path style="fill:var(--color-illustrationHighlight010)" d="M658.758 240.898C657.948 240.898 657.23 240.716 656.603 240.351C655.977 239.975 655.481 239.456 655.116 238.795C654.763 238.134 654.586 237.353 654.586 236.453C654.586 235.564 654.763 234.789 655.116 234.127C655.469 233.455 655.959 232.936 656.586 232.572C657.225 232.195 657.96 232.007 658.792 232.007C659.613 232.007 660.319 232.195 660.912 232.572C661.516 232.936 661.978 233.421 662.297 234.025C662.616 234.629 662.776 235.279 662.776 235.974C662.776 236.099 662.77 236.225 662.758 236.35C662.758 236.475 662.758 236.618 662.758 236.777H656.005C656.039 237.427 656.187 237.969 656.45 238.402C656.723 238.823 657.059 239.143 657.458 239.359C657.869 239.576 658.302 239.684 658.758 239.684C659.35 239.684 659.846 239.547 660.245 239.274C660.644 239 660.935 238.63 661.117 238.162H662.536C662.308 238.949 661.869 239.604 661.22 240.129C660.581 240.641 659.761 240.898 658.758 240.898ZM658.758 233.221C658.074 233.221 657.464 233.432 656.928 233.854C656.404 234.264 656.102 234.868 656.022 235.666H661.356C661.322 234.902 661.06 234.304 660.57 233.871C660.08 233.438 659.476 233.221 658.758 233.221Z"></path><path style="fill:var(--color-illustrationHighlight010)" d="M664.679 240.693V232.213H665.978L666.098 233.837C666.36 233.278 666.759 232.834 667.295 232.503C667.831 232.173 668.492 232.007 669.278 232.007V233.512H668.885C668.383 233.512 667.922 233.603 667.5 233.785C667.078 233.956 666.742 234.253 666.491 234.675C666.241 235.096 666.115 235.678 666.115 236.418V240.693H664.679Z"></path><path style="fill:var(--color-illustrationHighlight010)" d="M671.762 230.332C671.477 230.332 671.238 230.241 671.044 230.058C670.862 229.865 670.77 229.625 670.77 229.34C670.77 229.067 670.862 228.839 671.044 228.656C671.238 228.474 671.477 228.383 671.762 228.383C672.036 228.383 672.269 228.474 672.463 228.656C672.657 228.839 672.754 229.067 672.754 229.34C672.754 229.625 672.657 229.865 672.463 230.058C672.269 230.241 672.036 230.332 671.762 230.332ZM671.044 240.693V232.213H672.48V240.693H671.044Z"></path><path style="fill:var(--color-illustrationHighlight010)" d="M678.879 240.898C678.07 240.898 677.34 240.716 676.69 240.351C676.052 239.975 675.545 239.456 675.169 238.795C674.804 238.122 674.622 237.342 674.622 236.453C674.622 235.564 674.804 234.789 675.169 234.127C675.545 233.455 676.052 232.936 676.69 232.572C677.34 232.195 678.07 232.007 678.879 232.007C679.882 232.007 680.725 232.27 681.409 232.794C682.104 233.318 682.543 234.019 682.726 234.897H681.255C681.141 234.372 680.862 233.968 680.418 233.683C679.973 233.387 679.454 233.238 678.862 233.238C678.383 233.238 677.933 233.358 677.511 233.597C677.089 233.837 676.747 234.196 676.485 234.675C676.223 235.153 676.092 235.746 676.092 236.453C676.092 237.159 676.223 237.752 676.485 238.231C676.747 238.709 677.089 239.074 677.511 239.325C677.933 239.564 678.383 239.684 678.862 239.684C679.454 239.684 679.973 239.542 680.418 239.257C680.862 238.96 681.141 238.544 681.255 238.008H682.726C682.555 238.863 682.122 239.559 681.426 240.094C680.731 240.63 679.882 240.898 678.879 240.898Z"></path><path style="fill:var(--color-illustrationHighlight010)" d="M685.603 230.332C685.318 230.332 685.079 230.241 684.885 230.058C684.703 229.865 684.612 229.625 684.612 229.34C684.612 229.067 684.703 228.839 684.885 228.656C685.079 228.474 685.318 228.383 685.603 228.383C685.877 228.383 686.111 228.474 686.304 228.656C686.498 228.839 686.595 229.067 686.595 229.34C686.595 229.625 686.498 229.865 686.304 230.058C686.111 230.241 685.877 230.332 685.603 230.332ZM684.885 240.693V232.213H686.321V240.693H684.885Z"></path><path style="fill:var(--color-illustrationHighlight010)" d="M691.917 240.898C690.914 240.898 690.116 240.596 689.523 239.992C688.93 239.376 688.634 238.436 688.634 237.171V232.213H690.07V237.017C690.07 238.784 690.794 239.667 692.241 239.667C692.982 239.667 693.592 239.405 694.071 238.88C694.561 238.345 694.806 237.587 694.806 236.607V232.213H696.242V240.693H694.943L694.84 239.171C694.578 239.707 694.185 240.129 693.66 240.436C693.148 240.744 692.566 240.898 691.917 240.898Z"></path><path style="fill:var(--color-illustrationHighlight010)" d="M698.606 240.693V232.213H699.905L700.008 233.444C700.282 232.988 700.646 232.634 701.102 232.384C701.558 232.133 702.071 232.007 702.641 232.007C703.313 232.007 703.889 232.144 704.368 232.418C704.858 232.691 705.234 233.107 705.496 233.666C705.793 233.153 706.197 232.748 706.71 232.452C707.234 232.156 707.799 232.007 708.403 232.007C709.417 232.007 710.226 232.315 710.83 232.931C711.435 233.535 711.737 234.469 711.737 235.735V240.693H710.318V235.888C710.318 235.011 710.141 234.35 709.788 233.905C709.434 233.461 708.927 233.238 708.266 233.238C707.582 233.238 707.012 233.506 706.556 234.042C706.112 234.566 705.889 235.319 705.889 236.299V240.693H704.453V235.888C704.453 235.011 704.277 234.35 703.923 233.905C703.57 233.461 703.063 233.238 702.402 233.238C701.729 233.238 701.165 233.506 700.709 234.042C700.264 234.566 700.042 235.319 700.042 236.299V240.693H698.606Z"></path><rect style="fill:var(--color-transparent)" width="262.996" height="48.8488" transform="translate(612.975 259.069)"></rect><path style="fill:var(--color-illustrationHighlight010)" d="M627.631 289.541V277.573H631.837C632.68 277.573 633.375 277.71 633.923 277.984C634.481 278.246 634.897 278.611 635.171 279.078C635.444 279.534 635.581 280.047 635.581 280.617C635.581 281.392 635.37 282.002 634.948 282.446C634.538 282.891 634.042 283.198 633.461 283.369C633.905 283.449 634.31 283.626 634.675 283.899C635.04 284.173 635.325 284.515 635.53 284.925C635.746 285.335 635.855 285.786 635.855 286.276C635.855 286.88 635.706 287.433 635.41 287.934C635.114 288.424 634.675 288.818 634.094 289.114C633.512 289.399 632.806 289.541 631.974 289.541H627.631ZM629.067 282.805H631.734C632.498 282.805 633.085 282.628 633.495 282.275C633.905 281.91 634.111 281.409 634.111 280.771C634.111 280.166 633.905 279.682 633.495 279.317C633.096 278.953 632.492 278.77 631.683 278.77H629.067V282.805ZM629.067 288.345H631.82C632.64 288.345 633.273 288.156 633.717 287.78C634.162 287.393 634.384 286.857 634.384 286.173C634.384 285.501 634.151 284.965 633.683 284.566C633.216 284.156 632.583 283.951 631.785 283.951H629.067V288.345Z"></path><path style="fill:var(--color-illustrationHighlight010)" d="M641.643 289.747C640.834 289.747 640.116 289.564 639.489 289.199C638.862 288.823 638.366 288.305 638.001 287.644C637.648 286.982 637.471 286.202 637.471 285.301C637.471 284.412 637.648 283.637 638.001 282.976C638.355 282.304 638.845 281.785 639.472 281.42C640.11 281.044 640.845 280.856 641.677 280.856C642.498 280.856 643.205 281.044 643.797 281.42C644.401 281.785 644.863 282.269 645.182 282.873C645.501 283.478 645.661 284.127 645.661 284.823C645.661 284.948 645.655 285.073 645.644 285.199C645.644 285.324 645.644 285.467 645.644 285.626H638.89C638.925 286.276 639.073 286.817 639.335 287.25C639.608 287.672 639.945 287.991 640.344 288.208C640.754 288.424 641.187 288.533 641.643 288.533C642.236 288.533 642.731 288.396 643.13 288.122C643.529 287.849 643.82 287.478 644.002 287.011H645.421C645.193 287.797 644.755 288.453 644.105 288.977C643.467 289.49 642.646 289.747 641.643 289.747ZM641.643 282.07C640.959 282.07 640.349 282.281 639.814 282.703C639.289 283.113 638.987 283.717 638.907 284.515H644.242C644.208 283.751 643.945 283.153 643.455 282.72C642.965 282.286 642.361 282.07 641.643 282.07Z"></path><path style="fill:var(--color-illustrationHighlight010)" d="M647.564 289.541V281.061H648.864L648.983 282.685C649.246 282.127 649.644 281.682 650.18 281.352C650.716 281.021 651.377 280.856 652.163 280.856V282.361H651.77C651.269 282.361 650.807 282.452 650.385 282.634C649.964 282.805 649.627 283.101 649.377 283.523C649.126 283.945 649 284.526 649 285.267V289.541H647.564Z"></path><path style="fill:var(--color-illustrationHighlight010)" d="M653.775 289.541V277.231H655.212V284.634L658.682 281.061H660.443L656.682 284.891L660.922 289.541H659.093L655.212 285.147V289.541H653.775Z"></path><path style="fill:var(--color-illustrationHighlight010)" d="M665.586 289.747C664.776 289.747 664.058 289.564 663.431 289.199C662.804 288.823 662.309 288.305 661.944 287.644C661.591 286.982 661.414 286.202 661.414 285.301C661.414 284.412 661.591 283.637 661.944 282.976C662.297 282.304 662.787 281.785 663.414 281.42C664.053 281.044 664.788 280.856 665.62 280.856C666.44 280.856 667.147 281.044 667.74 281.42C668.344 281.785 668.806 282.269 669.125 282.873C669.444 283.478 669.603 284.127 669.603 284.823C669.603 284.948 669.598 285.073 669.586 285.199C669.586 285.324 669.586 285.467 669.586 285.626H662.833C662.867 286.276 663.015 286.817 663.277 287.25C663.551 287.672 663.887 287.991 664.286 288.208C664.697 288.424 665.13 288.533 665.586 288.533C666.178 288.533 666.674 288.396 667.073 288.122C667.472 287.849 667.763 287.478 667.945 287.011H669.364C669.136 287.797 668.697 288.453 668.048 288.977C667.409 289.49 666.589 289.747 665.586 289.747ZM665.586 282.07C664.902 282.07 664.292 282.281 663.756 282.703C663.232 283.113 662.93 283.717 662.85 284.515H668.184C668.15 283.751 667.888 283.153 667.398 282.72C666.908 282.286 666.304 282.07 665.586 282.07Z"></path><path style="fill:var(--color-illustrationHighlight010)" d="M671.507 289.541V277.231H672.943V289.541H671.507Z"></path><path style="fill:var(--color-illustrationHighlight010)" d="M676.169 279.181C675.884 279.181 675.645 279.089 675.451 278.907C675.268 278.713 675.177 278.474 675.177 278.189C675.177 277.915 675.268 277.687 675.451 277.505C675.645 277.323 675.884 277.231 676.169 277.231C676.442 277.231 676.676 277.323 676.87 277.505C677.064 277.687 677.161 277.915 677.161 278.189C677.161 278.474 677.064 278.713 676.87 278.907C676.676 279.089 676.442 279.181 676.169 279.181ZM675.451 289.541V281.061H676.887V289.541H675.451Z"></path><path style="fill:var(--color-illustrationHighlight010)" d="M682.482 289.747C681.479 289.747 680.681 289.444 680.089 288.84C679.496 288.225 679.2 287.285 679.2 286.019V281.061H680.636V285.865C680.636 287.632 681.359 288.516 682.807 288.516C683.548 288.516 684.158 288.253 684.636 287.729C685.127 287.193 685.372 286.435 685.372 285.455V281.061H686.808V289.541H685.508L685.406 288.02C685.144 288.555 684.75 288.977 684.226 289.285C683.713 289.593 683.132 289.747 682.482 289.747Z"></path><path style="fill:var(--color-illustrationHighlight010)" d="M689.172 289.541V281.061H690.471L690.574 282.292C690.847 281.836 691.212 281.483 691.668 281.232C692.124 280.981 692.637 280.856 693.207 280.856C693.879 280.856 694.455 280.993 694.933 281.266C695.423 281.54 695.8 281.956 696.062 282.514C696.358 282.002 696.763 281.597 697.276 281.301C697.8 281.004 698.364 280.856 698.968 280.856C699.983 280.856 700.792 281.164 701.396 281.779C702 282.383 702.302 283.318 702.302 284.583V289.541H700.883V284.737C700.883 283.859 700.706 283.198 700.353 282.754C700 282.309 699.493 282.087 698.831 282.087C698.148 282.087 697.578 282.355 697.122 282.891C696.677 283.415 696.455 284.167 696.455 285.147V289.541H695.019V284.737C695.019 283.859 694.842 283.198 694.489 282.754C694.136 282.309 693.628 282.087 692.967 282.087C692.295 282.087 691.731 282.355 691.275 282.891C690.83 283.415 690.608 284.167 690.608 285.147V289.541H689.172Z"></path><rect style="fill:var(--color-transparent)" width="262.996" height="48.8488" transform="translate(612.975 307.918)"></rect><path style="fill:var(--color-illustrationHighlight010)" d="M633.341 338.595C632.167 338.595 631.153 338.339 630.298 337.826C629.455 337.301 628.799 336.578 628.332 335.654C627.865 334.72 627.631 333.637 627.631 332.406C627.631 331.186 627.865 330.115 628.332 329.192C628.799 328.257 629.455 327.528 630.298 327.003C631.153 326.479 632.167 326.217 633.341 326.217C634.709 326.217 635.82 326.547 636.675 327.208C637.541 327.858 638.094 328.77 638.334 329.944H636.744C636.561 329.203 636.185 328.61 635.615 328.166C635.057 327.71 634.299 327.482 633.341 327.482C632.486 327.482 631.74 327.682 631.102 328.08C630.463 328.468 629.967 329.032 629.614 329.773C629.272 330.503 629.101 331.38 629.101 332.406C629.101 333.432 629.272 334.315 629.614 335.056C629.967 335.786 630.463 336.35 631.102 336.749C631.74 337.136 632.486 337.33 633.341 337.33C634.299 337.33 635.057 337.113 635.615 336.68C636.185 336.236 636.561 335.649 636.744 334.919H638.334C638.094 336.07 637.541 336.971 636.675 337.621C635.82 338.27 634.709 338.595 633.341 338.595Z"></path><path style="fill:var(--color-illustrationHighlight010)" d="M643.133 338.595C642.427 338.595 641.84 338.475 641.372 338.236C640.905 337.997 640.557 337.678 640.329 337.279C640.101 336.88 639.987 336.447 639.987 335.979C639.987 335.113 640.318 334.446 640.979 333.979C641.64 333.512 642.541 333.278 643.68 333.278H645.971V333.175C645.971 332.434 645.778 331.876 645.39 331.5C645.003 331.112 644.484 330.919 643.834 330.919C643.276 330.919 642.791 331.061 642.381 331.346C641.982 331.62 641.731 332.024 641.629 332.56H640.158C640.215 331.944 640.42 331.426 640.774 331.004C641.139 330.582 641.589 330.263 642.125 330.047C642.66 329.819 643.23 329.705 643.834 329.705C645.02 329.705 645.909 330.024 646.501 330.662C647.105 331.289 647.408 332.127 647.408 333.175V338.39H646.125L646.04 336.868C645.8 337.347 645.447 337.757 644.98 338.099C644.524 338.43 643.908 338.595 643.133 338.595ZM643.355 337.381C643.903 337.381 644.37 337.239 644.757 336.954C645.156 336.669 645.458 336.298 645.664 335.843C645.869 335.387 645.971 334.908 645.971 334.406V334.389H643.8C642.957 334.389 642.358 334.537 642.005 334.834C641.663 335.119 641.492 335.478 641.492 335.911C641.492 336.355 641.651 336.714 641.971 336.988C642.301 337.25 642.763 337.381 643.355 337.381Z"></path><path style="fill:var(--color-illustrationHighlight010)" d="M649.562 338.39V326.08H650.998V338.39H649.562Z"></path><path style="fill:var(--color-illustrationHighlight010)" d="M654.224 328.029C653.939 328.029 653.7 327.938 653.506 327.756C653.324 327.562 653.232 327.322 653.232 327.038C653.232 326.764 653.324 326.536 653.506 326.354C653.7 326.171 653.939 326.08 654.224 326.08C654.498 326.08 654.731 326.171 654.925 326.354C655.119 326.536 655.216 326.764 655.216 327.038C655.216 327.322 655.119 327.562 654.925 327.756C654.731 327.938 654.498 328.029 654.224 328.029ZM653.506 338.39V329.91H654.942V338.39H653.506Z"></path><path style="fill:var(--color-illustrationHighlight010)" d="M657.904 338.39V331.124H656.622V329.91H657.904V328.439C657.904 327.619 658.109 327.02 658.52 326.644C658.93 326.268 659.529 326.08 660.315 326.08H661.17V327.311H660.537C660.104 327.311 659.796 327.402 659.614 327.585C659.432 327.756 659.34 328.052 659.34 328.474V329.91H661.426V331.124H659.34V338.39H657.904Z"></path><path style="fill:var(--color-illustrationHighlight010)" d="M666.666 338.595C665.868 338.595 665.15 338.413 664.512 338.048C663.874 337.683 663.366 337.17 662.99 336.509C662.626 335.837 662.443 335.05 662.443 334.15C662.443 333.249 662.631 332.469 663.007 331.808C663.384 331.135 663.891 330.617 664.529 330.252C665.179 329.887 665.902 329.705 666.7 329.705C667.498 329.705 668.216 329.887 668.855 330.252C669.493 330.617 669.994 331.135 670.359 331.808C670.735 332.469 670.923 333.249 670.923 334.15C670.923 335.05 670.735 335.837 670.359 336.509C669.983 337.17 669.47 337.683 668.82 338.048C668.182 338.413 667.464 338.595 666.666 338.595ZM666.666 337.364C667.156 337.364 667.612 337.244 668.034 337.005C668.456 336.766 668.798 336.407 669.06 335.928C669.322 335.449 669.453 334.857 669.453 334.15C669.453 333.443 669.322 332.851 669.06 332.372C668.809 331.893 668.473 331.534 668.051 331.295C667.629 331.055 667.179 330.936 666.7 330.936C666.21 330.936 665.754 331.055 665.333 331.295C664.911 331.534 664.569 331.893 664.307 332.372C664.045 332.851 663.914 333.443 663.914 334.15C663.914 334.857 664.045 335.449 664.307 335.928C664.569 336.407 664.905 336.766 665.315 337.005C665.737 337.244 666.187 337.364 666.666 337.364Z"></path><path style="fill:var(--color-illustrationHighlight010)" d="M672.92 338.39V329.91H674.22L674.339 331.534C674.601 330.976 675 330.531 675.536 330.2C676.072 329.87 676.733 329.705 677.519 329.705V331.209H677.126C676.625 331.209 676.163 331.3 675.741 331.483C675.32 331.654 674.983 331.95 674.733 332.372C674.482 332.794 674.356 333.375 674.356 334.116V338.39H672.92Z"></path><path style="fill:var(--color-illustrationHighlight010)" d="M679.131 338.39V329.91H680.431L680.516 331.431C680.79 330.896 681.183 330.474 681.696 330.166C682.209 329.859 682.79 329.705 683.44 329.705C684.443 329.705 685.241 330.012 685.833 330.628C686.437 331.232 686.739 332.167 686.739 333.432V338.39H685.303V333.586C685.303 331.819 684.574 330.936 683.115 330.936C682.385 330.936 681.776 331.204 681.285 331.739C680.807 332.264 680.567 333.016 680.567 333.996V338.39H679.131Z"></path><path style="fill:var(--color-illustrationHighlight010)" d="M689.787 328.029C689.502 328.029 689.263 327.938 689.069 327.756C688.887 327.562 688.796 327.322 688.796 327.038C688.796 326.764 688.887 326.536 689.069 326.354C689.263 326.171 689.502 326.08 689.787 326.08C690.061 326.08 690.294 326.171 690.488 326.354C690.682 326.536 690.779 326.764 690.779 327.038C690.779 327.322 690.682 327.562 690.488 327.756C690.294 327.938 690.061 328.029 689.787 328.029ZM689.069 338.39V329.91H690.505V338.39H689.069Z"></path><path style="fill:var(--color-illustrationHighlight010)" d="M696.101 338.595C695.097 338.595 694.3 338.293 693.707 337.689C693.114 337.074 692.818 336.133 692.818 334.868V329.91H694.254V334.714C694.254 336.481 694.978 337.364 696.425 337.364C697.166 337.364 697.776 337.102 698.255 336.578C698.745 336.042 698.99 335.284 698.99 334.304V329.91H700.426V338.39H699.127L699.024 336.868C698.762 337.404 698.369 337.826 697.844 338.134C697.331 338.441 696.75 338.595 696.101 338.595Z"></path><path style="fill:var(--color-illustrationHighlight010)" d="M702.79 338.39V329.91H704.089L704.192 331.141C704.466 330.685 704.83 330.332 705.286 330.081C705.742 329.83 706.255 329.705 706.825 329.705C707.497 329.705 708.073 329.841 708.552 330.115C709.042 330.389 709.418 330.805 709.68 331.363C709.976 330.85 710.381 330.446 710.894 330.149C711.418 329.853 711.983 329.705 712.587 329.705C713.601 329.705 714.41 330.012 715.014 330.628C715.619 331.232 715.921 332.167 715.921 333.432V338.39H714.502V333.586C714.502 332.708 714.325 332.047 713.971 331.602C713.618 331.158 713.111 330.936 712.45 330.936C711.766 330.936 711.196 331.204 710.74 331.739C710.296 332.264 710.073 333.016 710.073 333.996V338.39H708.637V333.586C708.637 332.708 708.461 332.047 708.107 331.602C707.754 331.158 707.247 330.936 706.586 330.936C705.913 330.936 705.349 331.204 704.893 331.739C704.448 332.264 704.226 333.016 704.226 333.996V338.39H702.79Z"></path><rect style="fill:var(--color-transparent)" width="262.996" height="48.8488" transform="translate(612.975 356.767)"></rect><path style="fill:var(--color-illustrationHighlight010)" d="M627.631 387.239V375.271H631.307C633.415 375.271 634.966 375.806 635.957 376.878C636.96 377.949 637.462 379.42 637.462 381.289C637.462 383.124 636.96 384.577 635.957 385.649C634.966 386.709 633.415 387.239 631.307 387.239H627.631ZM629.067 386.042H631.273C632.435 386.042 633.358 385.854 634.042 385.478C634.738 385.09 635.233 384.543 635.53 383.836C635.826 383.118 635.974 382.269 635.974 381.289C635.974 380.286 635.826 379.425 635.53 378.707C635.233 377.989 634.738 377.436 634.042 377.049C633.358 376.661 632.435 376.467 631.273 376.467H629.067V386.042Z"></path><path style="fill:var(--color-illustrationHighlight010)" d="M642.544 387.444C641.541 387.444 640.744 387.142 640.151 386.538C639.558 385.922 639.262 384.982 639.262 383.717V378.758H640.698V383.563C640.698 385.329 641.422 386.213 642.869 386.213C643.61 386.213 644.22 385.951 644.699 385.426C645.189 384.891 645.434 384.133 645.434 383.152V378.758H646.87V387.239H645.571L645.468 385.717C645.206 386.253 644.813 386.674 644.288 386.982C643.775 387.29 643.194 387.444 642.544 387.444Z"></path><path style="fill:var(--color-illustrationHighlight010)" d="M653.765 387.444C653.069 387.444 652.448 387.301 651.901 387.016C651.365 386.731 650.955 386.332 650.67 385.82L650.533 387.239H649.234V374.929H650.67V380.16C650.944 379.75 651.331 379.38 651.833 379.049C652.346 378.719 652.995 378.553 653.782 378.553C654.625 378.553 655.36 378.747 655.987 379.135C656.614 379.522 657.099 380.052 657.441 380.725C657.794 381.397 657.971 382.161 657.971 383.016C657.971 383.87 657.794 384.634 657.441 385.307C657.099 385.968 656.608 386.492 655.97 386.88C655.343 387.256 654.608 387.444 653.765 387.444ZM653.611 386.196C654.181 386.196 654.682 386.065 655.115 385.802C655.548 385.529 655.89 385.153 656.141 384.674C656.392 384.195 656.517 383.637 656.517 382.999C656.517 382.36 656.392 381.802 656.141 381.323C655.89 380.844 655.548 380.474 655.115 380.212C654.682 379.938 654.181 379.801 653.611 379.801C653.041 379.801 652.539 379.938 652.106 380.212C651.673 380.474 651.331 380.844 651.08 381.323C650.83 381.802 650.704 382.36 650.704 382.999C650.704 383.637 650.83 384.195 651.08 384.674C651.331 385.153 651.673 385.529 652.106 385.802C652.539 386.065 653.041 386.196 653.611 386.196Z"></path><path style="fill:var(--color-illustrationHighlight010)" d="M659.97 387.239V378.758H661.269L661.355 380.28C661.628 379.744 662.021 379.323 662.534 379.015C663.047 378.707 663.628 378.553 664.278 378.553C665.281 378.553 666.079 378.861 666.672 379.477C667.276 380.081 667.578 381.015 667.578 382.28V387.239H666.142V382.434C666.142 380.668 665.412 379.784 663.953 379.784C663.224 379.784 662.614 380.052 662.124 380.588C661.645 381.112 661.406 381.864 661.406 382.845V387.239H659.97Z"></path><path style="fill:var(--color-illustrationHighlight010)" d="M670.626 376.878C670.341 376.878 670.101 376.787 669.908 376.604C669.725 376.41 669.634 376.171 669.634 375.886C669.634 375.613 669.725 375.385 669.908 375.202C670.101 375.02 670.341 374.929 670.626 374.929C670.899 374.929 671.133 375.02 671.327 375.202C671.52 375.385 671.617 375.613 671.617 375.886C671.617 376.171 671.52 376.41 671.327 376.604C671.133 376.787 670.899 376.878 670.626 376.878ZM669.908 387.239V378.758H671.344V387.239H669.908Z"></path><path style="fill:var(--color-illustrationHighlight010)" d="M676.939 387.444C675.936 387.444 675.138 387.142 674.545 386.538C673.953 385.922 673.656 384.982 673.656 383.717V378.758H675.092V383.563C675.092 385.329 675.816 386.213 677.264 386.213C678.005 386.213 678.614 385.951 679.093 385.426C679.583 384.891 679.828 384.133 679.828 383.152V378.758H681.265V387.239H679.965L679.863 385.717C679.6 386.253 679.207 386.674 678.683 386.982C678.17 387.29 677.589 387.444 676.939 387.444Z"></path><path style="fill:var(--color-illustrationHighlight010)" d="M683.628 387.239V378.758H684.928L685.03 379.989C685.304 379.534 685.669 379.18 686.125 378.929C686.581 378.679 687.093 378.553 687.663 378.553C688.336 378.553 688.911 378.69 689.39 378.964C689.88 379.237 690.256 379.653 690.519 380.212C690.815 379.699 691.22 379.294 691.732 378.998C692.257 378.701 692.821 378.553 693.425 378.553C694.44 378.553 695.249 378.861 695.853 379.477C696.457 380.081 696.759 381.015 696.759 382.28V387.239H695.34V382.434C695.34 381.557 695.163 380.896 694.81 380.451C694.457 380.007 693.949 379.784 693.288 379.784C692.604 379.784 692.035 380.052 691.579 380.588C691.134 381.112 690.912 381.864 690.912 382.845V387.239H689.476V382.434C689.476 381.557 689.299 380.896 688.946 380.451C688.592 380.007 688.085 379.784 687.424 379.784C686.752 379.784 686.187 380.052 685.731 380.588C685.287 381.112 685.065 381.864 685.065 382.845V387.239H683.628Z"></path><rect style="fill:var(--color-illustrationInterface020)" width="262.996" height="48.8488" transform="translate(612.975 405.616)"></rect><path style="fill:var(--color-illustrationHighlight010)" d="M627.631 436.088V424.12H635.034V425.3H629.067V429.472H634.521V430.634H629.067V434.909H635.034V436.088H627.631Z"></path><path style="fill:var(--color-illustrationHighlight010)" d="M638.068 425.727C637.783 425.727 637.544 425.636 637.35 425.454C637.167 425.26 637.076 425.021 637.076 424.736C637.076 424.462 637.167 424.234 637.35 424.052C637.544 423.87 637.783 423.778 638.068 423.778C638.341 423.778 638.575 423.87 638.769 424.052C638.963 424.234 639.059 424.462 639.059 424.736C639.059 425.021 638.963 425.26 638.769 425.454C638.575 425.636 638.341 425.727 638.068 425.727ZM637.35 436.088V427.608H638.786V436.088H637.35Z"></path><path style="fill:var(--color-illustrationHighlight010)" d="M641.286 436.088V427.608H642.586L642.671 429.13C642.945 428.594 643.338 428.172 643.851 427.865C644.364 427.557 644.945 427.403 645.595 427.403C646.598 427.403 647.396 427.711 647.989 428.326C648.593 428.93 648.895 429.865 648.895 431.13V436.088H647.459V431.284C647.459 429.517 646.729 428.634 645.27 428.634C644.541 428.634 643.931 428.902 643.441 429.437C642.962 429.962 642.723 430.714 642.723 431.694V436.088H641.286Z"></path><path style="fill:var(--color-illustrationHighlight010)" d="M654.319 436.293C653.305 436.293 652.461 436.037 651.789 435.524C651.116 435.011 650.723 434.316 650.609 433.438H652.079C652.17 433.883 652.404 434.27 652.78 434.601C653.168 434.92 653.686 435.079 654.336 435.079C654.94 435.079 655.385 434.954 655.67 434.703C655.955 434.441 656.097 434.133 656.097 433.78C656.097 433.267 655.909 432.925 655.533 432.754C655.168 432.583 654.65 432.429 653.977 432.293C653.521 432.201 653.065 432.07 652.609 431.899C652.153 431.728 651.772 431.489 651.464 431.181C651.156 430.862 651.002 430.446 651.002 429.933C651.002 429.192 651.276 428.588 651.823 428.121C652.381 427.642 653.134 427.403 654.08 427.403C654.98 427.403 655.715 427.631 656.285 428.087C656.866 428.531 657.203 429.17 657.294 430.002H655.875C655.818 429.569 655.63 429.232 655.311 428.993C655.003 428.742 654.587 428.617 654.063 428.617C653.55 428.617 653.151 428.725 652.866 428.942C652.592 429.158 652.455 429.443 652.455 429.796C652.455 430.138 652.632 430.406 652.985 430.6C653.35 430.794 653.84 430.959 654.456 431.096C654.98 431.21 655.476 431.352 655.943 431.523C656.422 431.683 656.809 431.928 657.106 432.258C657.414 432.578 657.567 433.045 657.567 433.66C657.579 434.424 657.288 435.057 656.695 435.558C656.114 436.048 655.322 436.293 654.319 436.293Z"></path><path style="fill:var(--color-illustrationHighlight010)" d="M662.586 436.088C661.811 436.088 661.201 435.9 660.757 435.524C660.312 435.148 660.09 434.47 660.09 433.489V428.822H658.62V427.608H660.09L660.278 425.574H661.526V427.608H664.022V428.822H661.526V433.489C661.526 434.025 661.634 434.39 661.851 434.584C662.067 434.766 662.449 434.857 662.996 434.857H663.885V436.088H662.586Z"></path><path style="fill:var(--color-illustrationHighlight010)" d="M669.426 436.293C668.616 436.293 667.898 436.111 667.271 435.746C666.645 435.37 666.149 434.852 665.784 434.19C665.431 433.529 665.254 432.749 665.254 431.848C665.254 430.959 665.431 430.184 665.784 429.523C666.137 428.85 666.628 428.332 667.254 427.967C667.893 427.591 668.628 427.403 669.46 427.403C670.281 427.403 670.987 427.591 671.58 427.967C672.184 428.332 672.646 428.816 672.965 429.42C673.284 430.024 673.444 430.674 673.444 431.369C673.444 431.495 673.438 431.62 673.426 431.746C673.426 431.871 673.426 432.013 673.426 432.173H666.673C666.707 432.823 666.855 433.364 667.118 433.797C667.391 434.219 667.727 434.538 668.126 434.755C668.537 434.971 668.97 435.079 669.426 435.079C670.018 435.079 670.514 434.943 670.913 434.669C671.312 434.396 671.603 434.025 671.785 433.558H673.204C672.976 434.344 672.537 435 671.888 435.524C671.249 436.037 670.429 436.293 669.426 436.293ZM669.426 428.617C668.742 428.617 668.132 428.828 667.596 429.249C667.072 429.66 666.77 430.264 666.69 431.062H672.024C671.99 430.298 671.728 429.7 671.238 429.266C670.748 428.833 670.144 428.617 669.426 428.617Z"></path><path style="fill:var(--color-illustrationHighlight010)" d="M675.347 436.088V427.608H676.646L676.732 429.13C677.005 428.594 677.399 428.172 677.912 427.865C678.425 427.557 679.006 427.403 679.656 427.403C680.659 427.403 681.456 427.711 682.049 428.326C682.653 428.93 682.955 429.865 682.955 431.13V436.088H681.519V431.284C681.519 429.517 680.79 428.634 679.331 428.634C678.601 428.634 677.991 428.902 677.501 429.437C677.023 429.962 676.783 430.714 676.783 431.694V436.088H675.347Z"></path><path style="fill:var(--color-illustrationHighlight010)" d="M686.003 425.727C685.718 425.727 685.479 425.636 685.285 425.454C685.103 425.26 685.011 425.021 685.011 424.736C685.011 424.462 685.103 424.234 685.285 424.052C685.479 423.87 685.718 423.778 686.003 423.778C686.277 423.778 686.51 423.87 686.704 424.052C686.898 424.234 686.995 424.462 686.995 424.736C686.995 425.021 686.898 425.26 686.704 425.454C686.51 425.636 686.277 425.727 686.003 425.727ZM685.285 436.088V427.608H686.721V436.088H685.285Z"></path><path style="fill:var(--color-illustrationHighlight010)" d="M692.316 436.293C691.313 436.293 690.515 435.991 689.923 435.387C689.33 434.772 689.034 433.831 689.034 432.566V427.608H690.47V432.412C690.47 434.179 691.194 435.062 692.641 435.062C693.382 435.062 693.992 434.8 694.471 434.276C694.961 433.74 695.206 432.982 695.206 432.002V427.608H696.642V436.088H695.342L695.24 434.567C694.978 435.102 694.585 435.524 694.06 435.832C693.547 436.14 692.966 436.293 692.316 436.293Z"></path><path style="fill:var(--color-illustrationHighlight010)" d="M699.006 436.088V427.608H700.305L700.408 428.839C700.681 428.383 701.046 428.03 701.502 427.779C701.958 427.528 702.471 427.403 703.041 427.403C703.713 427.403 704.289 427.54 704.768 427.813C705.258 428.087 705.634 428.503 705.896 429.061C706.192 428.548 706.597 428.144 707.11 427.847C707.634 427.551 708.198 427.403 708.802 427.403C709.817 427.403 710.626 427.711 711.23 428.326C711.834 428.93 712.136 429.865 712.136 431.13V436.088H710.717V431.284C710.717 430.406 710.541 429.745 710.187 429.301C709.834 428.856 709.327 428.634 708.666 428.634C707.982 428.634 707.412 428.902 706.956 429.437C706.511 429.962 706.289 430.714 706.289 431.694V436.088H704.853V431.284C704.853 430.406 704.676 429.745 704.323 429.301C703.97 428.856 703.462 428.634 702.801 428.634C702.129 428.634 701.565 428.902 701.109 429.437C700.664 429.962 700.442 430.714 700.442 431.694V436.088H699.006Z"></path><mask id="nk-1606" mask-type="alpha" maskUnits="userSpaceOnUse" x="832" y="415" width="30" height="30"><path d="M842.997 435.132L837.904 430.04L836.17 431.762L842.997 438.588L857.651 423.934L855.929 422.212L842.997 435.132Z" fill="#0A0A0A"></path></mask><g mask="url(#nk-1606)"><path style="fill:var(--color-illustrationHighlight010)" d="M832.006 415.386H861.315V444.695H832.006V415.386Z"></path></g><rect style="fill:var(--color-transparent)" width="262.996" height="48.8488" transform="translate(612.975 454.465)"></rect><path style="fill:var(--color-illustrationHighlight010)" d="M627.631 484.937V472.969H634.914V474.149H629.067V478.354H634.042V479.517H629.067V484.937H627.631Z"></path><path style="fill:var(--color-illustrationHighlight010)" d="M640.124 485.142C639.314 485.142 638.596 484.96 637.969 484.595C637.342 484.219 636.847 483.7 636.482 483.039C636.129 482.378 635.952 481.597 635.952 480.697C635.952 479.808 636.129 479.033 636.482 478.372C636.835 477.699 637.325 477.18 637.952 476.816C638.591 476.44 639.326 476.252 640.158 476.252C640.978 476.252 641.685 476.44 642.278 476.816C642.882 477.18 643.344 477.665 643.663 478.269C643.982 478.873 644.141 479.523 644.141 480.218C644.141 480.343 644.136 480.469 644.124 480.594C644.124 480.72 644.124 480.862 644.124 481.022H637.371C637.405 481.671 637.553 482.213 637.816 482.646C638.089 483.068 638.425 483.387 638.824 483.603C639.235 483.82 639.668 483.928 640.124 483.928C640.716 483.928 641.212 483.791 641.611 483.518C642.01 483.244 642.301 482.874 642.483 482.406H643.902C643.674 483.193 643.235 483.848 642.586 484.373C641.947 484.886 641.127 485.142 640.124 485.142ZM640.124 477.465C639.44 477.465 638.83 477.676 638.294 478.098C637.77 478.508 637.468 479.112 637.388 479.91H642.722C642.688 479.147 642.426 478.548 641.936 478.115C641.446 477.682 640.842 477.465 640.124 477.465Z"></path><path style="fill:var(--color-illustrationHighlight010)" d="M646.045 484.937V476.457H647.344L647.464 478.081C647.726 477.522 648.125 477.078 648.661 476.747C649.197 476.417 649.858 476.252 650.644 476.252V477.756H650.251C649.749 477.756 649.288 477.847 648.866 478.03C648.444 478.201 648.108 478.497 647.857 478.919C647.606 479.34 647.481 479.922 647.481 480.663V484.937H646.045Z"></path><path style="fill:var(--color-illustrationHighlight010)" d="M652.256 484.937V476.457H653.555L653.658 477.688C653.932 477.232 654.296 476.878 654.752 476.628C655.208 476.377 655.721 476.252 656.291 476.252C656.963 476.252 657.539 476.388 658.018 476.662C658.508 476.935 658.884 477.351 659.146 477.91C659.442 477.397 659.847 476.992 660.36 476.696C660.884 476.4 661.449 476.252 662.053 476.252C663.067 476.252 663.876 476.559 664.48 477.175C665.084 477.779 665.387 478.714 665.387 479.979V484.937H663.967V480.133C663.967 479.255 663.791 478.594 663.437 478.149C663.084 477.705 662.577 477.483 661.916 477.483C661.232 477.483 660.662 477.75 660.206 478.286C659.762 478.81 659.539 479.563 659.539 480.543V484.937H658.103V480.133C658.103 479.255 657.927 478.594 657.573 478.149C657.22 477.705 656.713 477.483 656.052 477.483C655.379 477.483 654.815 477.75 654.359 478.286C653.914 478.81 653.692 479.563 653.692 480.543V484.937H652.256Z"></path><path style="fill:var(--color-illustrationHighlight010)" d="M668.422 474.576C668.137 474.576 667.898 474.485 667.704 474.302C667.521 474.109 667.43 473.869 667.43 473.584C667.43 473.311 667.521 473.083 667.704 472.901C667.898 472.718 668.137 472.627 668.422 472.627C668.695 472.627 668.929 472.718 669.123 472.901C669.317 473.083 669.413 473.311 669.413 473.584C669.413 473.869 669.317 474.109 669.123 474.302C668.929 474.485 668.695 474.576 668.422 474.576ZM667.704 484.937V476.457H669.14V484.937H667.704Z"></path><path style="fill:var(--color-illustrationHighlight010)" d="M674.735 485.142C673.732 485.142 672.934 484.84 672.341 484.236C671.749 483.62 671.452 482.68 671.452 481.415V476.457H672.889V481.261C672.889 483.028 673.612 483.911 675.06 483.911C675.801 483.911 676.411 483.649 676.889 483.125C677.379 482.589 677.624 481.831 677.624 480.851V476.457H679.061V484.937H677.761L677.659 483.415C677.396 483.951 677.003 484.373 676.479 484.68C675.966 484.988 675.385 485.142 674.735 485.142Z"></path><path style="fill:var(--color-illustrationHighlight010)" d="M681.425 484.937V476.457H682.724L682.826 477.688C683.1 477.232 683.465 476.878 683.921 476.628C684.377 476.377 684.89 476.252 685.459 476.252C686.132 476.252 686.708 476.388 687.186 476.662C687.676 476.935 688.053 477.351 688.315 477.91C688.611 477.397 689.016 476.992 689.529 476.696C690.053 476.4 690.617 476.252 691.221 476.252C692.236 476.252 693.045 476.559 693.649 477.175C694.253 477.779 694.555 478.714 694.555 479.979V484.937H693.136V480.133C693.136 479.255 692.959 478.594 692.606 478.149C692.253 477.705 691.745 477.483 691.084 477.483C690.401 477.483 689.831 477.75 689.375 478.286C688.93 478.81 688.708 479.563 688.708 480.543V484.937H687.272V480.133C687.272 479.255 687.095 478.594 686.742 478.149C686.388 477.705 685.881 477.483 685.22 477.483C684.548 477.483 683.983 477.75 683.527 478.286C683.083 478.81 682.861 479.563 682.861 480.543V484.937H681.425Z"></path><rect style="fill:var(--color-transparent)" width="262.996" height="48.8488" transform="translate(612.975 503.313)"></rect><path style="fill:var(--color-illustrationHighlight010)" d="M627.631 533.785V521.818H629.067V532.64H634.641V533.785H627.631Z"></path><path style="fill:var(--color-illustrationHighlight010)" d="M639.349 533.991C638.642 533.991 638.055 533.871 637.588 533.632C637.121 533.392 636.773 533.073 636.545 532.674C636.317 532.275 636.203 531.842 636.203 531.375C636.203 530.509 636.534 529.842 637.195 529.374C637.856 528.907 638.756 528.673 639.896 528.673H642.187V528.571C642.187 527.83 641.993 527.271 641.606 526.895C641.218 526.508 640.7 526.314 640.05 526.314C639.492 526.314 639.007 526.457 638.597 526.741C638.198 527.015 637.947 527.42 637.844 527.955H636.374C636.431 527.34 636.636 526.821 636.99 526.4C637.354 525.978 637.805 525.659 638.34 525.442C638.876 525.214 639.446 525.1 640.05 525.1C641.235 525.1 642.124 525.419 642.717 526.058C643.321 526.684 643.623 527.522 643.623 528.571V533.785H642.341L642.256 532.264C642.016 532.743 641.663 533.153 641.196 533.495C640.74 533.825 640.124 533.991 639.349 533.991ZM639.571 532.777C640.118 532.777 640.586 532.634 640.973 532.349C641.372 532.064 641.674 531.694 641.879 531.238C642.085 530.782 642.187 530.303 642.187 529.802V529.785H640.016C639.172 529.785 638.574 529.933 638.221 530.229C637.879 530.514 637.708 530.873 637.708 531.306C637.708 531.751 637.867 532.11 638.186 532.384C638.517 532.646 638.979 532.777 639.571 532.777Z"></path><path style="fill:var(--color-illustrationHighlight010)" d="M647.321 533.785L644.841 525.305H646.278L648.073 531.956L650.056 525.305H651.68L653.681 531.956L655.459 525.305H656.912L654.433 533.785H652.963L650.877 526.793L648.791 533.785H647.321Z"></path><path style="fill:var(--color-illustrationHighlight010)" d="M658.5 533.785V525.305H659.8L659.919 526.93C660.182 526.371 660.581 525.927 661.116 525.596C661.652 525.265 662.313 525.1 663.1 525.1V526.605H662.706C662.205 526.605 661.743 526.696 661.321 526.878C660.9 527.049 660.563 527.346 660.313 527.767C660.062 528.189 659.937 528.77 659.937 529.511V533.785H658.5Z"></path><path style="fill:var(--color-illustrationHighlight010)" d="M668.207 533.991C667.398 533.991 666.68 533.808 666.053 533.444C665.426 533.067 664.93 532.549 664.565 531.888C664.212 531.227 664.035 530.446 664.035 529.545C664.035 528.656 664.212 527.881 664.565 527.22C664.919 526.548 665.409 526.029 666.036 525.664C666.674 525.288 667.409 525.1 668.241 525.1C669.062 525.1 669.768 525.288 670.361 525.664C670.965 526.029 671.427 526.514 671.746 527.118C672.065 527.722 672.225 528.371 672.225 529.067C672.225 529.192 672.219 529.317 672.208 529.443C672.208 529.568 672.208 529.711 672.208 529.87H665.454C665.488 530.52 665.637 531.061 665.899 531.494C666.172 531.916 666.509 532.235 666.908 532.452C667.318 532.668 667.751 532.777 668.207 532.777C668.8 532.777 669.295 532.64 669.694 532.366C670.093 532.093 670.384 531.722 670.566 531.255H671.985C671.757 532.042 671.319 532.697 670.669 533.221C670.031 533.734 669.21 533.991 668.207 533.991ZM668.207 526.314C667.523 526.314 666.913 526.525 666.378 526.947C665.853 527.357 665.551 527.961 665.471 528.759H670.806C670.771 527.995 670.509 527.397 670.019 526.964C669.529 526.531 668.925 526.314 668.207 526.314Z"></path><path style="fill:var(--color-illustrationHighlight010)" d="M674.128 533.785V525.305H675.428L675.513 526.827C675.787 526.291 676.18 525.87 676.693 525.562C677.206 525.254 677.787 525.1 678.437 525.1C679.44 525.1 680.238 525.408 680.83 526.023C681.434 526.628 681.736 527.562 681.736 528.827V533.785H680.3V528.981C680.3 527.215 679.571 526.331 678.112 526.331C677.382 526.331 676.773 526.599 676.282 527.135C675.804 527.659 675.564 528.411 675.564 529.392V533.785H674.128Z"></path><path style="fill:var(--color-illustrationHighlight010)" d="M687.81 533.991C687.001 533.991 686.272 533.808 685.622 533.444C684.984 533.067 684.477 532.549 684.1 531.888C683.736 531.215 683.553 530.434 683.553 529.545C683.553 528.656 683.736 527.881 684.1 527.22C684.477 526.548 684.984 526.029 685.622 525.664C686.272 525.288 687.001 525.1 687.81 525.1C688.813 525.1 689.657 525.362 690.341 525.887C691.036 526.411 691.475 527.112 691.657 527.99H690.187C690.073 527.465 689.794 527.061 689.349 526.776C688.905 526.479 688.386 526.331 687.793 526.331C687.315 526.331 686.864 526.451 686.443 526.69C686.021 526.93 685.679 527.289 685.417 527.767C685.155 528.246 685.024 528.839 685.024 529.545C685.024 530.252 685.155 530.845 685.417 531.324C685.679 531.802 686.021 532.167 686.443 532.418C686.864 532.657 687.315 532.777 687.793 532.777C688.386 532.777 688.905 532.634 689.349 532.349C689.794 532.053 690.073 531.637 690.187 531.101H691.657C691.486 531.956 691.053 532.651 690.358 533.187C689.663 533.723 688.813 533.991 687.81 533.991Z"></path><path style="fill:var(--color-illustrationHighlight010)" d="M694.535 523.425C694.25 523.425 694.011 523.333 693.817 523.151C693.634 522.957 693.543 522.718 693.543 522.433C693.543 522.159 693.634 521.932 693.817 521.749C694.011 521.567 694.25 521.476 694.535 521.476C694.808 521.476 695.042 521.567 695.236 521.749C695.43 521.932 695.527 522.159 695.527 522.433C695.527 522.718 695.43 522.957 695.236 523.151C695.042 523.333 694.808 523.425 694.535 523.425ZM693.817 533.785V525.305H695.253V533.785H693.817Z"></path><path style="fill:var(--color-illustrationHighlight010)" d="M700.848 533.991C699.845 533.991 699.047 533.689 698.455 533.085C697.862 532.469 697.566 531.529 697.566 530.263V525.305H699.002V530.11C699.002 531.876 699.725 532.76 701.173 532.76C701.914 532.76 702.524 532.498 703.002 531.973C703.493 531.437 703.738 530.68 703.738 529.699V525.305H705.174V533.785H703.874L703.772 532.264C703.51 532.8 703.116 533.221 702.592 533.529C702.079 533.837 701.498 533.991 700.848 533.991Z"></path><path style="fill:var(--color-illustrationHighlight010)" d="M707.538 533.785V525.305H708.837L708.94 526.536C709.213 526.08 709.578 525.727 710.034 525.476C710.49 525.226 711.003 525.1 711.573 525.1C712.245 525.1 712.821 525.237 713.299 525.51C713.789 525.784 714.166 526.2 714.428 526.759C714.724 526.246 715.129 525.841 715.642 525.545C716.166 525.248 716.73 525.1 717.334 525.1C718.349 525.1 719.158 525.408 719.762 526.023C720.366 526.628 720.668 527.562 720.668 528.827V533.785H719.249V528.981C719.249 528.104 719.072 527.442 718.719 526.998C718.366 526.553 717.859 526.331 717.198 526.331C716.514 526.331 715.944 526.599 715.488 527.135C715.043 527.659 714.821 528.411 714.821 529.392V533.785H713.385V528.981C713.385 528.104 713.208 527.442 712.855 526.998C712.502 526.553 711.994 526.331 711.333 526.331C710.661 526.331 710.097 526.599 709.641 527.135C709.196 527.659 708.974 528.411 708.974 529.392V533.785H707.538Z"></path><rect style="fill:var(--color-transparent)" width="262.996" height="48.8488" transform="translate(612.975 552.162)"></rect><path style="fill:var(--color-illustrationHighlight010)" d="M627.631 582.634V570.666H629.306L633.615 579.01L637.889 570.666H639.582V582.634H638.146V573.231L634.145 580.924H633.068L629.067 573.248V582.634H627.631Z"></path><path style="fill:var(--color-illustrationHighlight010)" d="M645.834 582.839C645.025 582.839 644.306 582.657 643.68 582.292C643.053 581.916 642.557 581.397 642.192 580.736C641.839 580.075 641.662 579.294 641.662 578.394C641.662 577.505 641.839 576.73 642.192 576.069C642.545 575.396 643.036 574.878 643.662 574.513C644.301 574.137 645.036 573.949 645.868 573.949C646.689 573.949 647.395 574.137 647.988 574.513C648.592 574.878 649.054 575.362 649.373 575.966C649.692 576.57 649.852 577.22 649.852 577.915C649.852 578.041 649.846 578.166 649.834 578.291C649.834 578.417 649.834 578.559 649.834 578.719H643.081C643.115 579.369 643.264 579.91 643.526 580.343C643.799 580.765 644.135 581.084 644.534 581.301C644.945 581.517 645.378 581.625 645.834 581.625C646.426 581.625 646.922 581.489 647.321 581.215C647.72 580.942 648.011 580.571 648.193 580.104H649.612C649.384 580.89 648.945 581.546 648.296 582.07C647.657 582.583 646.837 582.839 645.834 582.839ZM645.834 575.163C645.15 575.163 644.54 575.374 644.004 575.795C643.48 576.206 643.178 576.81 643.098 577.608H648.433C648.398 576.844 648.136 576.246 647.646 575.812C647.156 575.379 646.552 575.163 645.834 575.163Z"></path><path style="fill:var(--color-illustrationHighlight010)" d="M651.755 582.634V574.154H653.054L653.14 575.676C653.414 575.14 653.807 574.718 654.32 574.41C654.833 574.103 655.414 573.949 656.064 573.949C657.067 573.949 657.864 574.257 658.457 574.872C659.061 575.476 659.363 576.411 659.363 577.676V582.634H657.927V577.83C657.927 576.063 657.198 575.18 655.739 575.18C655.009 575.18 654.399 575.448 653.909 575.983C653.431 576.508 653.191 577.26 653.191 578.24V582.634H651.755Z"></path><path style="fill:var(--color-illustrationHighlight010)" d="M665.386 582.839C664.543 582.839 663.802 582.646 663.163 582.258C662.537 581.87 662.046 581.34 661.693 580.668C661.351 579.995 661.18 579.232 661.18 578.377C661.18 577.522 661.357 576.764 661.71 576.103C662.063 575.431 662.554 574.906 663.18 574.53C663.807 574.143 664.548 573.949 665.403 573.949C666.098 573.949 666.714 574.091 667.25 574.376C667.785 574.661 668.201 575.06 668.498 575.573V570.324H669.934V582.634H668.634L668.498 581.232C668.224 581.642 667.831 582.013 667.318 582.343C666.805 582.674 666.161 582.839 665.386 582.839ZM665.54 581.591C666.11 581.591 666.611 581.46 667.044 581.198C667.489 580.924 667.831 580.548 668.07 580.07C668.321 579.591 668.446 579.032 668.446 578.394C668.446 577.756 668.321 577.197 668.07 576.719C667.831 576.24 667.489 575.869 667.044 575.607C666.611 575.334 666.11 575.197 665.54 575.197C664.981 575.197 664.48 575.334 664.035 575.607C663.602 575.869 663.26 576.24 663.01 576.719C662.77 577.197 662.65 577.756 662.65 578.394C662.65 579.032 662.77 579.591 663.01 580.07C663.26 580.548 663.602 580.924 664.035 581.198C664.48 581.46 664.981 581.591 665.54 581.591Z"></path><path style="fill:var(--color-illustrationHighlight010)" d="M676.088 582.839C675.278 582.839 674.56 582.657 673.933 582.292C673.306 581.916 672.811 581.397 672.446 580.736C672.093 580.075 671.916 579.294 671.916 578.394C671.916 577.505 672.093 576.73 672.446 576.069C672.799 575.396 673.289 574.878 673.916 574.513C674.555 574.137 675.29 573.949 676.122 573.949C676.942 573.949 677.649 574.137 678.242 574.513C678.846 574.878 679.308 575.362 679.627 575.966C679.946 576.57 680.105 577.22 680.105 577.915C680.105 578.041 680.1 578.166 680.088 578.291C680.088 578.417 680.088 578.559 680.088 578.719H673.335C673.369 579.369 673.517 579.91 673.779 580.343C674.053 580.765 674.389 581.084 674.788 581.301C675.199 581.517 675.632 581.625 676.088 581.625C676.68 581.625 677.176 581.489 677.575 581.215C677.974 580.942 678.265 580.571 678.447 580.104H679.866C679.638 580.89 679.199 581.546 678.55 582.07C677.911 582.583 677.091 582.839 676.088 582.839ZM676.088 575.163C675.404 575.163 674.794 575.374 674.258 575.795C673.734 576.206 673.432 576.81 673.352 577.608H678.686C678.652 576.844 678.39 576.246 677.9 575.812C677.41 575.379 676.806 575.163 676.088 575.163Z"></path><path style="fill:var(--color-illustrationHighlight010)" d="M682.009 582.634V570.324H683.445V582.634H682.009Z"></path><path style="fill:var(--color-illustrationHighlight010)" d="M689.612 582.839C688.802 582.839 688.084 582.657 687.457 582.292C686.831 581.916 686.335 581.397 685.97 580.736C685.617 580.075 685.44 579.294 685.44 578.394C685.44 577.505 685.617 576.73 685.97 576.069C686.323 575.396 686.813 574.878 687.44 574.513C688.079 574.137 688.814 573.949 689.646 573.949C690.466 573.949 691.173 574.137 691.766 574.513C692.37 574.878 692.832 575.362 693.151 575.966C693.47 576.57 693.629 577.22 693.629 577.915C693.629 578.041 693.624 578.166 693.612 578.291C693.612 578.417 693.612 578.559 693.612 578.719H686.859C686.893 579.369 687.041 579.91 687.304 580.343C687.577 580.765 687.913 581.084 688.312 581.301C688.723 581.517 689.156 581.625 689.612 581.625C690.204 581.625 690.7 581.489 691.099 581.215C691.498 580.942 691.789 580.571 691.971 580.104H693.39C693.162 580.89 692.723 581.546 692.074 582.07C691.435 582.583 690.615 582.839 689.612 582.839ZM689.612 575.163C688.928 575.163 688.318 575.374 687.782 575.795C687.258 576.206 686.956 576.81 686.876 577.608H692.21C692.176 576.844 691.914 576.246 691.424 575.812C690.934 575.379 690.33 575.163 689.612 575.163Z"></path><path style="fill:var(--color-illustrationHighlight010)" d="M697.644 582.634L694.43 574.154H695.934L698.482 581.249L701.046 574.154H702.517L699.302 582.634H697.644Z"></path><path style="fill:var(--color-illustrationHighlight010)" d="M704.987 572.273C704.702 572.273 704.463 572.182 704.269 572C704.086 571.806 703.995 571.567 703.995 571.282C703.995 571.008 704.086 570.78 704.269 570.598C704.463 570.415 704.702 570.324 704.987 570.324C705.26 570.324 705.494 570.415 705.688 570.598C705.882 570.78 705.978 571.008 705.978 571.282C705.978 571.567 705.882 571.806 705.688 572C705.494 572.182 705.26 572.273 704.987 572.273ZM704.269 582.634V574.154H705.705V582.634H704.269Z"></path><path style="fill:var(--color-illustrationHighlight010)" d="M711.3 582.839C710.297 582.839 709.499 582.537 708.907 581.933C708.314 581.318 708.017 580.377 708.017 579.112V574.154H709.454V578.958C709.454 580.725 710.177 581.608 711.625 581.608C712.366 581.608 712.976 581.346 713.454 580.822C713.944 580.286 714.189 579.528 714.189 578.548V574.154H715.626V582.634H714.326L714.224 581.112C713.962 581.648 713.568 582.07 713.044 582.378C712.531 582.685 711.95 582.839 711.3 582.839Z"></path><path style="fill:var(--color-illustrationHighlight010)" d="M717.99 582.634V574.154H719.289L719.392 575.385C719.665 574.929 720.03 574.576 720.486 574.325C720.942 574.074 721.455 573.949 722.024 573.949C722.697 573.949 723.273 574.086 723.751 574.359C724.241 574.633 724.618 575.049 724.88 575.607C725.176 575.094 725.581 574.69 726.094 574.393C726.618 574.097 727.182 573.949 727.786 573.949C728.801 573.949 729.61 574.257 730.214 574.872C730.818 575.476 731.12 576.411 731.12 577.676V582.634H729.701V577.83C729.701 576.952 729.524 576.291 729.171 575.847C728.818 575.402 728.311 575.18 727.649 575.18C726.966 575.18 726.396 575.448 725.94 575.983C725.495 576.508 725.273 577.26 725.273 578.24V582.634H723.837V577.83C723.837 576.952 723.66 576.291 723.307 575.847C722.953 575.402 722.446 575.18 721.785 575.18C721.113 575.18 720.548 575.448 720.093 575.983C719.648 576.508 719.426 577.26 719.426 578.24V582.634H717.99Z"></path><rect style="fill:var(--color-transparent)" width="262.996" height="48.8488" transform="translate(612.975 601.011)"></rect><path style="fill:var(--color-illustrationHighlight010)" d="M627.631 631.483V619.515H629.067L635.444 629.106V619.515H636.88V631.483H635.444L629.067 621.891V631.483H627.631Z"></path><path style="fill:var(--color-illustrationHighlight010)" d="M643.197 631.688C642.399 631.688 641.681 631.506 641.043 631.141C640.404 630.776 639.897 630.263 639.521 629.602C639.156 628.93 638.974 628.143 638.974 627.243C638.974 626.342 639.162 625.561 639.538 624.9C639.914 624.228 640.422 623.709 641.06 623.345C641.709 622.98 642.433 622.797 643.231 622.797C644.029 622.797 644.747 622.98 645.385 623.345C646.024 623.709 646.525 624.228 646.89 624.9C647.266 625.561 647.454 626.342 647.454 627.243C647.454 628.143 647.266 628.93 646.89 629.602C646.514 630.263 646.001 630.776 645.351 631.141C644.713 631.506 643.995 631.688 643.197 631.688ZM643.197 630.457C643.687 630.457 644.143 630.337 644.565 630.098C644.986 629.859 645.328 629.499 645.591 629.021C645.853 628.542 645.984 627.949 645.984 627.243C645.984 626.536 645.853 625.943 645.591 625.465C645.34 624.986 645.004 624.627 644.582 624.387C644.16 624.148 643.71 624.028 643.231 624.028C642.741 624.028 642.285 624.148 641.863 624.387C641.442 624.627 641.1 624.986 640.838 625.465C640.575 625.943 640.444 626.536 640.444 627.243C640.444 627.949 640.575 628.542 640.838 629.021C641.1 629.499 641.436 629.859 641.846 630.098C642.268 630.337 642.718 630.457 643.197 630.457Z"></path><path style="fill:var(--color-illustrationHighlight010)" d="M653.982 631.688C653.286 631.688 652.665 631.545 652.118 631.26C651.582 630.976 651.172 630.577 650.887 630.064L650.75 631.483H649.451V619.173H650.887V624.405C651.161 623.994 651.548 623.624 652.05 623.293C652.563 622.963 653.212 622.797 653.999 622.797C654.842 622.797 655.577 622.991 656.204 623.379C656.831 623.766 657.316 624.296 657.658 624.969C658.011 625.641 658.188 626.405 658.188 627.26C658.188 628.115 658.011 628.878 657.658 629.551C657.316 630.212 656.826 630.736 656.187 631.124C655.56 631.5 654.825 631.688 653.982 631.688ZM653.828 630.44C654.398 630.44 654.899 630.309 655.332 630.047C655.766 629.773 656.107 629.397 656.358 628.918C656.609 628.439 656.734 627.881 656.734 627.243C656.734 626.604 656.609 626.046 656.358 625.567C656.107 625.088 655.766 624.718 655.332 624.456C654.899 624.182 654.398 624.046 653.828 624.046C653.258 624.046 652.756 624.182 652.323 624.456C651.89 624.718 651.548 625.088 651.297 625.567C651.047 626.046 650.921 626.604 650.921 627.243C650.921 627.881 651.047 628.439 651.297 628.918C651.548 629.397 651.89 629.773 652.323 630.047C652.756 630.309 653.258 630.44 653.828 630.44Z"></path><path style="fill:var(--color-illustrationHighlight010)" d="M663.999 631.688C663.19 631.688 662.472 631.506 661.845 631.141C661.218 630.765 660.722 630.246 660.358 629.585C660.004 628.924 659.828 628.143 659.828 627.243C659.828 626.354 660.004 625.579 660.358 624.917C660.711 624.245 661.201 623.726 661.828 623.362C662.466 622.986 663.202 622.797 664.034 622.797C664.854 622.797 665.561 622.986 666.154 623.362C666.758 623.726 667.219 624.211 667.539 624.815C667.858 625.419 668.017 626.069 668.017 626.764C668.017 626.889 668.012 627.015 668 627.14C668 627.265 668 627.408 668 627.568H661.247C661.281 628.217 661.429 628.759 661.691 629.192C661.965 629.613 662.301 629.933 662.7 630.149C663.11 630.366 663.543 630.474 663.999 630.474C664.592 630.474 665.088 630.337 665.487 630.064C665.886 629.79 666.176 629.42 666.359 628.952H667.778C667.55 629.739 667.111 630.394 666.461 630.919C665.823 631.431 665.002 631.688 663.999 631.688ZM663.999 624.011C663.316 624.011 662.706 624.222 662.17 624.644C661.646 625.054 661.344 625.658 661.264 626.456H666.598C666.564 625.693 666.302 625.094 665.812 624.661C665.322 624.228 664.717 624.011 663.999 624.011Z"></path><path style="fill:var(--color-illustrationHighlight010)" d="M669.921 631.483V619.173H671.357V631.483H669.921Z"></path><path style="fill:var(--color-illustrationHighlight010)" d="M674.583 621.122C674.298 621.122 674.058 621.031 673.865 620.848C673.682 620.655 673.591 620.415 673.591 620.13C673.591 619.857 673.682 619.629 673.865 619.446C674.058 619.264 674.298 619.173 674.583 619.173C674.856 619.173 675.09 619.264 675.284 619.446C675.478 619.629 675.574 619.857 675.574 620.13C675.574 620.415 675.478 620.655 675.284 620.848C675.09 621.031 674.856 621.122 674.583 621.122ZM673.865 631.483V623.003H675.301V631.483H673.865Z"></path><path style="fill:var(--color-illustrationHighlight010)" d="M680.896 631.688C679.893 631.688 679.095 631.386 678.502 630.782C677.91 630.166 677.613 629.226 677.613 627.961V623.003H679.05V627.807C679.05 629.574 679.773 630.457 681.221 630.457C681.962 630.457 682.572 630.195 683.05 629.67C683.54 629.135 683.785 628.377 683.785 627.397V623.003H685.222V631.483H683.922L683.82 629.961C683.557 630.497 683.164 630.919 682.64 631.226C682.127 631.534 681.546 631.688 680.896 631.688Z"></path><path style="fill:var(--color-illustrationHighlight010)" d="M687.585 631.483V623.003H688.885L688.987 624.234C689.261 623.778 689.626 623.424 690.082 623.174C690.538 622.923 691.05 622.797 691.62 622.797C692.293 622.797 692.868 622.934 693.347 623.208C693.837 623.481 694.213 623.897 694.476 624.456C694.772 623.943 695.177 623.538 695.69 623.242C696.214 622.946 696.778 622.797 697.382 622.797C698.397 622.797 699.206 623.105 699.81 623.721C700.414 624.325 700.716 625.259 700.716 626.525V631.483H699.297V626.678C699.297 625.801 699.12 625.14 698.767 624.695C698.414 624.251 697.906 624.028 697.245 624.028C696.561 624.028 695.992 624.296 695.536 624.832C695.091 625.356 694.869 626.109 694.869 627.089V631.483H693.433V626.678C693.433 625.801 693.256 625.14 692.903 624.695C692.549 624.251 692.042 624.028 691.381 624.028C690.709 624.028 690.144 624.296 689.688 624.832C689.244 625.356 689.022 626.109 689.022 627.089V631.483H687.585Z"></path><rect style="fill:var(--color-transparent)" width="262.996" height="48.8488" transform="translate(612.975 649.859)"></rect><path style="fill:var(--color-illustrationHighlight010)" d="M627.631 680.331V668.363H631.495C632.429 668.363 633.193 668.517 633.786 668.825C634.379 669.133 634.817 669.555 635.102 670.09C635.387 670.626 635.53 671.219 635.53 671.868C635.53 672.621 635.325 673.299 634.914 673.903C634.515 674.507 633.888 674.934 633.034 675.185L635.649 680.331H633.957L631.529 675.39H631.426H629.067V680.331H627.631ZM629.067 674.262H631.392C632.315 674.262 632.988 674.04 633.41 673.595C633.831 673.151 634.042 672.581 634.042 671.885C634.042 671.179 633.831 670.62 633.41 670.21C632.999 669.788 632.321 669.577 631.375 669.577H629.067V674.262Z"></path><path style="fill:var(--color-illustrationHighlight010)" d="M640.775 680.537C639.772 680.537 638.974 680.234 638.381 679.63C637.788 679.015 637.492 678.075 637.492 676.809V671.851H638.928V676.656C638.928 678.422 639.652 679.306 641.099 679.306C641.84 679.306 642.45 679.043 642.929 678.519C643.419 677.983 643.664 677.225 643.664 676.245V671.851H645.1V680.331H643.801L643.698 678.81C643.436 679.345 643.043 679.767 642.519 680.075C642.006 680.383 641.424 680.537 640.775 680.537Z"></path><path style="fill:var(--color-illustrationHighlight010)" d="M650.815 680.331C650.04 680.331 649.43 680.143 648.986 679.767C648.541 679.391 648.319 678.713 648.319 677.733V673.065H646.849V671.851H648.319L648.507 669.817H649.755V671.851H652.251V673.065H649.755V677.733C649.755 678.268 649.863 678.633 650.08 678.827C650.297 679.009 650.678 679.1 651.225 679.1H652.115V680.331H650.815Z"></path><path style="fill:var(--color-illustrationHighlight010)" d="M654.076 680.331V668.021H655.512V673.304C655.797 672.78 656.202 672.376 656.726 672.091C657.25 671.794 657.82 671.646 658.436 671.646C659.416 671.646 660.202 671.954 660.795 672.569C661.388 673.173 661.684 674.108 661.684 675.373V680.331H660.265V675.527C660.265 673.76 659.553 672.877 658.128 672.877C657.387 672.877 656.766 673.145 656.264 673.681C655.763 674.205 655.512 674.957 655.512 675.937V680.331H654.076Z"></path><path style="fill:var(--color-illustrationHighlight010)" d="M667.673 680.537C666.863 680.537 666.145 680.354 665.518 679.989C664.891 679.613 664.396 679.095 664.031 678.434C663.678 677.773 663.501 676.992 663.501 676.091C663.501 675.202 663.678 674.427 664.031 673.766C664.384 673.094 664.874 672.575 665.501 672.21C666.14 671.834 666.875 671.646 667.707 671.646C668.527 671.646 669.234 671.834 669.827 672.21C670.431 672.575 670.893 673.059 671.212 673.664C671.531 674.268 671.69 674.917 671.69 675.613C671.69 675.738 671.685 675.863 671.673 675.989C671.673 676.114 671.673 676.257 671.673 676.416H664.92C664.954 677.066 665.102 677.607 665.365 678.04C665.638 678.462 665.974 678.781 666.373 678.998C666.784 679.214 667.217 679.323 667.673 679.323C668.265 679.323 668.761 679.186 669.16 678.912C669.559 678.639 669.85 678.268 670.032 677.801H671.451C671.223 678.587 670.784 679.243 670.135 679.767C669.496 680.28 668.676 680.537 667.673 680.537ZM667.673 672.86C666.989 672.86 666.379 673.071 665.843 673.493C665.319 673.903 665.017 674.507 664.937 675.305H670.271C670.237 674.541 669.975 673.943 669.485 673.51C668.995 673.077 668.391 672.86 667.673 672.86Z"></path><path style="fill:var(--color-illustrationHighlight010)" d="M673.594 680.331V671.851H674.893L675.013 673.475C675.275 672.917 675.674 672.472 676.21 672.142C676.746 671.811 677.407 671.646 678.193 671.646V673.151H677.8C677.298 673.151 676.837 673.242 676.415 673.424C675.993 673.595 675.657 673.891 675.406 674.313C675.155 674.735 675.03 675.316 675.03 676.057V680.331H673.594Z"></path><path style="fill:var(--color-illustrationHighlight010)" d="M680.267 680.331V673.065H678.984V671.851H680.267V670.381C680.267 669.56 680.472 668.962 680.882 668.586C681.292 668.21 681.891 668.021 682.677 668.021H683.532V669.252H682.9C682.466 669.252 682.159 669.344 681.976 669.526C681.794 669.697 681.703 669.993 681.703 670.415V671.851H683.789V673.065H681.703V680.331H680.267Z"></path><path style="fill:var(--color-illustrationHighlight010)" d="M689.028 680.537C688.231 680.537 687.513 680.354 686.874 679.989C686.236 679.625 685.729 679.112 685.353 678.451C684.988 677.778 684.805 676.992 684.805 676.091C684.805 675.191 684.994 674.41 685.37 673.749C685.746 673.077 686.253 672.558 686.891 672.193C687.541 671.828 688.265 671.646 689.063 671.646C689.861 671.646 690.579 671.828 691.217 672.193C691.855 672.558 692.357 673.077 692.721 673.749C693.098 674.41 693.286 675.191 693.286 676.091C693.286 676.992 693.098 677.778 692.721 678.451C692.345 679.112 691.832 679.625 691.183 679.989C690.544 680.354 689.826 680.537 689.028 680.537ZM689.028 679.306C689.519 679.306 689.975 679.186 690.396 678.947C690.818 678.707 691.16 678.348 691.422 677.869C691.684 677.391 691.815 676.798 691.815 676.091C691.815 675.385 691.684 674.792 691.422 674.313C691.171 673.834 690.835 673.475 690.413 673.236C689.992 672.997 689.541 672.877 689.063 672.877C688.573 672.877 688.117 672.997 687.695 673.236C687.273 673.475 686.931 673.834 686.669 674.313C686.407 674.792 686.276 675.385 686.276 676.091C686.276 676.798 686.407 677.391 686.669 677.869C686.931 678.348 687.267 678.707 687.678 678.947C688.1 679.186 688.55 679.306 689.028 679.306Z"></path><path style="fill:var(--color-illustrationHighlight010)" d="M695.283 680.331V671.851H696.582L696.702 673.475C696.964 672.917 697.363 672.472 697.898 672.142C698.434 671.811 699.095 671.646 699.882 671.646V673.151H699.488C698.987 673.151 698.525 673.242 698.104 673.424C697.682 673.595 697.346 673.891 697.095 674.313C696.844 674.735 696.719 675.316 696.719 676.057V680.331H695.283Z"></path><path style="fill:var(--color-illustrationHighlight010)" d="M705.023 680.537C704.18 680.537 703.439 680.343 702.801 679.955C702.174 679.568 701.684 679.038 701.33 678.365C700.988 677.693 700.817 676.929 700.817 676.074C700.817 675.219 700.994 674.461 701.347 673.8C701.701 673.128 702.191 672.604 702.818 672.227C703.445 671.84 704.185 671.646 705.04 671.646C705.736 671.646 706.351 671.789 706.887 672.073C707.422 672.358 707.839 672.757 708.135 673.27V668.021H709.571V680.331H708.272L708.135 678.929C707.861 679.34 707.468 679.71 706.955 680.041C706.442 680.371 705.798 680.537 705.023 680.537ZM705.177 679.288C705.747 679.288 706.248 679.157 706.682 678.895C707.126 678.622 707.468 678.246 707.707 677.767C707.958 677.288 708.084 676.73 708.084 676.091C708.084 675.453 707.958 674.895 707.707 674.416C707.468 673.937 707.126 673.567 706.682 673.304C706.248 673.031 705.747 672.894 705.177 672.894C704.619 672.894 704.117 673.031 703.673 673.304C703.239 673.567 702.897 673.937 702.647 674.416C702.407 674.895 702.288 675.453 702.288 676.091C702.288 676.73 702.407 677.288 702.647 677.767C702.897 678.246 703.239 678.622 703.673 678.895C704.117 679.157 704.619 679.288 705.177 679.288Z"></path><path style="fill:var(--color-illustrationHighlight010)" d="M712.784 669.971C712.499 669.971 712.26 669.879 712.066 669.697C711.884 669.503 711.792 669.264 711.792 668.979C711.792 668.705 711.884 668.477 712.066 668.295C712.26 668.113 712.499 668.021 712.784 668.021C713.058 668.021 713.291 668.113 713.485 668.295C713.679 668.477 713.776 668.705 713.776 668.979C713.776 669.264 713.679 669.503 713.485 669.697C713.291 669.879 713.058 669.971 712.784 669.971ZM712.066 680.331V671.851H713.502V680.331H712.066Z"></path><path style="fill:var(--color-illustrationHighlight010)" d="M719.097 680.537C718.094 680.537 717.296 680.234 716.704 679.63C716.111 679.015 715.815 678.075 715.815 676.809V671.851H717.251V676.656C717.251 678.422 717.975 679.306 719.422 679.306C720.163 679.306 720.773 679.043 721.252 678.519C721.742 677.983 721.987 677.225 721.987 676.245V671.851H723.423V680.331H722.123L722.021 678.81C721.759 679.345 721.366 679.767 720.841 680.075C720.328 680.383 719.747 680.537 719.097 680.537Z"></path><path style="fill:var(--color-illustrationHighlight010)" d="M725.787 680.331V671.851H727.086L727.189 673.082C727.462 672.626 727.827 672.273 728.283 672.022C728.739 671.771 729.252 671.646 729.822 671.646C730.494 671.646 731.07 671.783 731.549 672.056C732.039 672.33 732.415 672.746 732.677 673.304C732.973 672.792 733.378 672.387 733.891 672.091C734.415 671.794 734.979 671.646 735.583 671.646C736.598 671.646 737.407 671.954 738.011 672.569C738.615 673.173 738.917 674.108 738.917 675.373V680.331H737.498V675.527C737.498 674.649 737.322 673.988 736.968 673.544C736.615 673.099 736.108 672.877 735.447 672.877C734.763 672.877 734.193 673.145 733.737 673.681C733.292 674.205 733.07 674.957 733.07 675.937V680.331H731.634V675.527C731.634 674.649 731.457 673.988 731.104 673.544C730.751 673.099 730.243 672.877 729.582 672.877C728.91 672.877 728.346 673.145 727.89 673.681C727.445 674.205 727.223 674.957 727.223 675.937V680.331H725.787Z"></path><path style="fill:var(--color-illustrationBorder020)" d="M873.135 227.229C874.776 227.229 876.105 228.559 876.105 230.199L876.105 349.639C876.105 351.279 874.776 352.609 873.136 352.609C871.495 352.609 870.166 351.279 870.166 349.639L870.165 230.199C870.165 228.559 871.495 227.229 873.135 227.229Z"></path></g></g><path style="fill:var(--color-illustrationInterface050)" fill-rule="evenodd" clip-rule="evenodd" d="M589.491 79H899.509C918.558 79 934 94.4422 934 113.491V724.718C934 743.767 918.558 759.209 899.509 759.209H589.491C570.442 759.209 555 743.767 555 724.718V113.491C555 94.4421 570.442 79 589.491 79ZM589.491 96.2455C579.967 96.2455 572.246 103.967 572.246 113.491V724.718C572.246 734.243 579.967 741.964 589.491 741.964H899.509C909.033 741.964 916.754 734.243 916.754 724.718V113.491C916.754 103.967 909.033 96.2455 899.509 96.2455H589.491Z"></path><defs><filter id="nk-1615" x="565.849" y="153.963" width="357.768" height="86.7927" filterUnits="userSpaceOnUse" color-interpolation-filters="sRGB"><feFlood flood-opacity="0" result="BackgroundImageFix"></feFlood><feColorMatrix in="SourceAlpha" type="matrix" values="0 0 0 0 0 0 0 0 0 0 0 0 0 0 0 0 0 0 127 0" result="hardAlpha"></feColorMatrix><feOffset dy="3.21453"></feOffset><feGaussianBlur stdDeviation="3.21453"></feGaussianBlur><feColorMatrix type="matrix" values="0 0 0 0 0.0392157 0 0 0 0 0.0392157 0 0 0 0 0.0392157 0 0 0 0.08 0"></feColorMatrix><feBlend mode="normal" in2="BackgroundImageFix" result="effect1_dropShadow_1310_341135"></feBlend><feBlend mode="normal" in="SourceGraphic" in2="effect1_dropShadow_1310_341135" result="shape"></feBlend></filter><filter id="nk-1616" x="576.329" y="163.62" width="336.255" height="541.984" filterUnits="userSpaceOnUse" color-interpolation-filters="sRGB"><feFlood flood-opacity="0" result="BackgroundImageFix"></feFlood><feColorMatrix in="SourceAlpha" type="matrix" values="0 0 0 0 0 0 0 0 0 0 0 0 0 0 0 0 0 0 127 0" result="hardAlpha"></feColorMatrix><feOffset dy="11.4971"></feOffset><feGaussianBlur stdDeviation="8.62281"></feGaussianBlur><feColorMatrix type="matrix" values="0 0 0 0 0.0392157 0 0 0 0 0.0392157 0 0 0 0 0.0392157 0 0 0 0.08 0"></feColorMatrix><feBlend mode="normal" in2="BackgroundImageFix" result="effect1_dropShadow_1310_341135"></feBlend><feBlend mode="normal" in="SourceGraphic" in2="effect1_dropShadow_1310_341135" result="shape"></feBlend></filter><filter id="nk-1617" x="581.502" y="163.332" width="325.908" height="531.637" filterUnits="userSpaceOnUse" color-interpolation-filters="sRGB"><feFlood flood-opacity="0" result="BackgroundImageFix"></feFlood><feColorMatrix in="SourceAlpha" type="matrix" values="0 0 0 0 0 0 0 0 0 0 0 0 0 0 0 0 0 0 127 0" result="hardAlpha"></feColorMatrix><feOffset dy="6.03597"></feOffset><feGaussianBlur stdDeviation="6.03597"></feGaussianBlur><feColorMatrix type="matrix" values="0 0 0 0 0.0392157 0 0 0 0 0.0392157 0 0 0 0 0.0392157 0 0 0 0.08 0"></feColorMatrix><feBlend mode="normal" in2="BackgroundImageFix" result="effect1_dropShadow_1310_341135"></feBlend><feBlend mode="normal" in="SourceGraphic" in2="effect1_dropShadow_1310_341135" result="shape"></feBlend></filter><clipPath id="nk-1607"><rect style="fill:var(--color-white)" x="572.278" y="96.2686" width="344.509" height="645.629" rx="17.2455"></rect></clipPath><clipPath id="nk-1608"><rect style="fill:var(--color-white)" width="344.91" height="73.9341" transform="translate(572.278 157.178)"></rect></clipPath><clipPath id="nk-1609"><rect style="fill:var(--color-white)" width="103.669" height="73.9341" transform="translate(572.278 157.178)"></rect></clipPath><clipPath id="nk-1610"><rect style="fill:var(--color-white)" width="77.816" height="51.6082" transform="translate(584.477 167.694)"></rect></clipPath><clipPath id="nk-1611"><rect style="fill:var(--color-white)" width="155.101" height="73.9341" transform="translate(675.946 157.178)"></rect></clipPath><clipPath id="nk-1612"><rect style="fill:var(--color-white)" width="86.3904" height="73.9341" transform="translate(831.048 157.178)"></rect></clipPath><clipPath id="nk-1613"><rect style="fill:var(--color-white)" width="61.6521" height="51.6082" transform="translate(838.672 167.694)"></rect></clipPath><clipPath id="nk-1614"><rect style="fill:var(--color-white)" width="301.764" height="507.494" transform="translate(593.574 169.368)"></rect></clipPath></defs></svg>