<svg
  id="nksvg"
  style="width: 100%; height: 100%"
  width="1490"
  height="838"
  viewBox="0 0 1490 838"
  fill="none"
  xmlns="http://www.w3.org/2000/svg"
  class="css-0"
>
  <rect
    style="fill: var(--color-illustrationBackground020)"
    width="1490"
    height="838"
  ></rect>
  <rect
    style="fill: var(--color-illustrationPalette040)"
    x="249.256"
    y="200.621"
    width="551.688"
    height="439.799"
    rx="22.1561"
  ></rect>
  <rect
    style="fill: var(--color-illustrationPalette040)"
    x="851.903"
    y="312.509"
    width="111.888"
    height="387.732"
    rx="22.1561"
    transform="rotate(-90 851.903 312.509)"
  ></rect>
  <rect
    style="fill: var(--color-illustrationPalette040)"
    x="851.903"
    y="476.465"
    width="111.888"
    height="387.732"
    rx="22.1561"
    transform="rotate(-90 851.903 476.465)"
  ></rect>
  <rect
    style="fill: var(--color-illustrationPalette040)"
    x="851.903"
    y="640.42"
    width="111.888"
    height="387.732"
    rx="22.1561"
    transform="rotate(-90 851.903 640.42)"
  ></rect>
  <rect
    x="201.067"
    y="152.431"
    width="1086.76"
    height="535.071"
    rx="19.3866"
    stroke="#577FFB"
    stroke-width="5.53903"
    stroke-dasharray="11.08 11.08"
  ></rect>
  <path
    style="fill: var(--color-interface010)"
    d="M449.377 490.548C449.377 492.005 447.878 492.98 446.547 492.389L325.784 438.799C325.057 438.476 324.587 437.754 324.587 436.958V420.117C324.587 419.354 325.018 418.657 325.699 418.316L446.461 357.811C447.801 357.14 449.377 358.114 449.377 359.612V388.238C449.377 389.023 448.921 389.737 448.209 390.066L369.821 426.321C369.021 426.69 369.048 427.836 369.864 428.167L448.121 459.959C448.881 460.268 449.377 461.006 449.377 461.825V490.548Z"
  ></path>
  <path
    style="fill: var(--color-interface010)"
    d="M566.129 322.48C567.463 322.48 568.428 323.753 568.069 325.037L515.29 513.342C515.047 514.212 514.254 514.813 513.351 514.813H476.352C475.019 514.813 474.054 513.541 474.412 512.257L526.946 323.952C527.189 323.082 527.982 322.48 528.886 322.48H566.129Z"
  ></path>
  <path
    style="fill: var(--color-interface010)"
    d="M593.069 461.825C593.069 461.006 593.565 460.268 594.325 459.959L672.582 428.167C673.398 427.836 673.425 426.69 672.626 426.321L594.237 390.066C593.525 389.737 593.069 389.023 593.069 388.238V359.612C593.069 358.114 594.646 357.14 595.985 357.811L716.747 418.316C717.429 418.657 717.859 419.354 717.859 420.117V436.958C717.859 437.754 717.39 438.476 716.662 438.799L595.9 492.389C594.568 492.98 593.069 492.005 593.069 490.548V461.825Z"
  ></path>
</svg>
