<svg id="theme-hero-borders-illustration" style="width: 100%; height: 100%" width="1490" height="838" viewBox="0 0 1490 838" fill="none" xmlns="http://www.w3.org/2000/svg" class="css-0"><g clip-path="url(#nk-30)"><rect style="fill:var(--color-illustrationBackground020)" width="1490" height="838"></rect><path d="M945 418.875C945 529.452 855.154 619.092 744.322 619.092C633.491 619.092 543.645 529.452 543.645 418.875C543.645 308.298 633.491 218.658 744.322 218.658C855.154 218.658 945 308.298 945 418.875Z" fill="#4C33CC"></path><path d="M766.82 617.848C759.435 618.67 751.928 619.092 744.322 619.092C633.491 619.092 543.645 529.452 543.645 418.875C543.645 338.646 590.942 269.439 659.235 237.494C712.681 231.86 760.985 248.355 791.118 278.025C807.232 293.893 809.442 315.886 812.091 342.256C814.913 370.34 818.233 403.389 839.38 439.29C876.072 501.581 822.644 585.269 766.82 617.848Z" fill="#6454E3"></path><path d="M619.17 575.395C647.112 566.768 674.697 554.809 687.161 533.722C704.991 503.558 697.824 471.683 687.796 434.28C684.402 421.62 683.952 407.262 683.513 393.251C682.745 368.737 682.01 345.289 665.595 333.867C664.532 333.127 622.143 307.746 580.604 303.063C557.329 335.756 543.645 375.721 543.645 418.875C543.645 482.228 573.137 538.708 619.17 575.395Z" fill="#6E61E4"></path><path style="fill:var(--color-illustrationInterface100)" d="M737.197 128.09C733.261 128.188 730.149 131.463 730.246 135.405C730.344 139.348 733.613 142.466 737.549 142.368C739.863 142.311 742.181 142.282 744.502 142.282C748.439 142.282 751.631 139.085 751.631 135.141C751.631 131.197 748.439 128 744.502 128C742.064 128 739.628 128.03 737.197 128.09ZM691.815 132.775C687.942 133.486 685.378 137.207 686.087 141.087C686.797 144.966 690.512 147.535 694.384 146.824C696.66 146.406 698.943 146.017 701.232 145.656C705.122 145.043 707.779 141.388 707.167 137.492C706.556 133.596 702.907 130.934 699.017 131.547C696.609 131.927 694.208 132.336 691.815 132.775ZM647.647 144.568C643.935 145.883 641.99 149.963 643.302 153.681C644.614 157.399 648.687 159.348 652.399 158.033C654.583 157.26 656.776 156.515 658.979 155.797C662.724 154.577 664.772 150.548 663.554 146.797C662.336 143.046 658.314 140.995 654.569 142.215C652.251 142.97 649.944 143.755 647.647 144.568ZM605.935 163.176C602.476 165.06 601.197 169.396 603.077 172.861C604.958 176.326 609.287 177.608 612.745 175.724C614.782 174.615 616.833 173.531 618.897 172.474C622.402 170.678 623.791 166.376 621.998 162.864C620.205 159.353 615.91 157.962 612.405 159.758C610.234 160.87 608.077 162.01 605.935 163.176ZM567.675 188.101C564.552 190.504 563.966 194.987 566.365 198.115C568.763 201.242 573.239 201.83 576.361 199.427C578.199 198.013 580.055 196.621 581.928 195.253C585.109 192.93 585.807 188.463 583.488 185.276C581.168 182.089 576.709 181.389 573.528 183.713C571.558 185.151 569.607 186.614 567.675 188.101ZM533.787 218.679C531.077 221.54 531.194 226.06 534.049 228.775C536.904 231.491 541.417 231.373 544.128 228.513C545.723 226.83 547.339 225.167 548.975 223.524C551.757 220.732 551.752 216.211 548.965 213.425C546.179 210.639 541.665 210.643 538.884 213.435C537.163 215.162 535.464 216.91 533.787 218.679ZM505.014 254.242C502.782 257.491 503.603 261.937 506.846 264.173C510.09 266.408 514.528 265.587 516.76 262.338C518.073 260.426 519.41 258.53 520.771 256.652C523.084 253.46 522.375 248.995 519.189 246.678C516.002 244.362 511.544 245.072 509.232 248.264C507.801 250.239 506.395 252.232 505.014 254.242ZM482.149 293.882C480.454 297.442 481.961 301.704 485.515 303.402C489.069 305.1 493.323 303.59 495.018 300.03C496.015 297.936 497.039 295.855 498.088 293.787C499.872 290.271 498.473 285.972 494.963 284.185C491.454 282.398 487.162 283.799 485.378 287.315C484.274 289.49 483.198 291.679 482.149 293.882ZM465.827 336.55C464.713 340.332 466.872 344.303 470.648 345.419C474.425 346.535 478.389 344.372 479.502 340.59C480.158 338.363 480.841 336.146 481.553 333.938C482.762 330.184 480.704 326.16 476.957 324.949C473.211 323.738 469.193 325.798 467.984 329.552C467.236 331.874 466.517 334.207 465.827 336.55ZM456.43 381.194C455.923 385.105 458.677 388.687 462.582 389.195C466.486 389.702 470.062 386.943 470.569 383.032C470.867 380.729 471.194 378.431 471.55 376.14C472.155 372.243 469.491 368.592 465.601 367.986C461.71 367.381 458.066 370.049 457.461 373.946C457.087 376.355 456.743 378.772 456.43 381.194ZM454.104 426.88C454.209 430.822 457.484 433.933 461.42 433.829C465.356 433.724 468.461 430.443 468.357 426.5C468.295 424.186 468.262 421.868 468.258 419.547C468.25 415.603 465.052 412.412 461.115 412.42C457.178 412.427 453.992 415.631 454 419.574C454.005 422.013 454.039 424.448 454.104 426.88ZM458.872 472.353C459.59 476.231 463.31 478.792 467.181 478.074C471.052 477.355 473.609 473.629 472.891 469.751C472.469 467.468 472.075 465.177 471.71 462.881C471.091 458.986 467.436 456.331 463.548 456.952C459.66 457.572 457.01 461.232 457.63 465.127C458.014 467.543 458.428 469.952 458.872 472.353ZM470.719 516.532C472.039 520.248 476.115 522.189 479.825 520.867C483.535 519.546 485.472 515.462 484.153 511.746C483.376 509.558 482.626 507.359 481.905 505.15C480.68 501.401 476.654 499.357 472.912 500.584C469.17 501.811 467.13 505.844 468.354 509.592C469.114 511.916 469.902 514.23 470.719 516.532ZM489.372 558.277C491.259 561.739 495.59 563.012 499.045 561.122C502.501 559.232 503.772 554.894 501.885 551.432C500.776 549.398 499.693 547.35 498.635 545.288C496.836 541.78 492.538 540.397 489.036 542.2C485.535 544.002 484.154 548.307 485.954 551.815C487.066 553.984 488.206 556.138 489.372 558.277ZM514.348 596.587C516.752 599.71 521.229 600.288 524.347 597.88C527.464 595.471 528.042 590.986 525.637 587.864C524.221 586.025 522.828 584.169 521.459 582.295C519.133 579.113 514.673 578.422 511.496 580.752C508.319 583.082 507.629 587.55 509.955 590.732C511.395 592.702 512.859 594.654 514.348 596.587ZM544.935 630.468C547.795 633.177 552.307 633.051 555.013 630.186C557.718 627.32 557.592 622.8 554.731 620.091C553.049 618.497 551.387 616.883 549.745 615.248C546.953 612.467 542.439 612.48 539.663 615.277C536.887 618.074 536.901 622.596 539.693 625.376C541.419 627.095 543.166 628.792 544.935 630.468ZM580.475 659.209C583.722 661.439 588.159 660.609 590.385 657.355C592.611 654.102 591.782 649.657 588.534 647.428C586.624 646.116 584.729 644.78 582.852 643.421C579.661 641.11 575.204 641.828 572.898 645.025C570.591 648.221 571.308 652.685 574.499 654.996C576.473 656.425 578.465 657.83 580.475 659.209ZM620.12 682.053C623.678 683.744 627.929 682.226 629.617 678.663C631.305 675.099 629.789 670.84 626.232 669.15C624.139 668.155 622.059 667.134 619.992 666.086C616.479 664.306 612.19 665.716 610.413 669.236C608.636 672.755 610.043 677.051 613.557 678.831C615.731 679.933 617.919 681.007 620.12 682.053ZM662.75 698.319C666.529 699.427 670.489 697.256 671.595 693.471C672.701 689.686 670.534 685.72 666.756 684.612C664.533 683.96 662.319 683.28 660.114 682.572C656.365 681.369 652.352 683.438 651.15 687.194C649.949 690.949 652.014 694.97 655.763 696.173C658.082 696.918 660.412 697.633 662.75 698.319ZM707.325 707.641C711.231 708.141 714.801 705.374 715.3 701.462C715.799 697.55 713.038 693.973 709.132 693.474C706.832 693.179 704.538 692.856 702.25 692.504C698.358 691.906 694.719 694.581 694.122 698.48C693.525 702.378 696.195 706.023 700.087 706.621C702.493 706.991 704.906 707.331 707.325 707.641ZM752.942 709.882C756.878 709.769 759.977 706.482 759.865 702.54C759.752 698.597 756.471 695.493 752.535 695.605C750.22 695.671 747.901 695.709 745.578 695.718C741.64 695.733 738.461 698.942 738.476 702.886C738.491 706.83 741.695 710.015 745.632 710C748.072 709.991 750.509 709.951 752.942 709.882ZM798.311 705.019C802.181 704.292 804.73 700.561 804.005 696.685C803.28 692.808 799.555 690.254 795.686 690.98C793.411 691.407 791.129 691.806 788.841 692.175C784.954 692.803 782.311 696.469 782.938 700.363C783.565 704.256 787.225 706.903 791.111 706.275C793.518 705.887 795.918 705.467 798.311 705.019ZM842.379 693.07C846.086 691.741 848.016 687.654 846.69 683.941C845.363 680.227 841.283 678.294 837.576 679.623C835.396 680.404 833.206 681.157 831.006 681.883C827.267 683.117 825.234 687.154 826.466 690.9C827.698 694.646 831.728 696.682 835.467 695.448C837.782 694.685 840.086 693.892 842.379 693.07ZM884.051 674.289C887.502 672.392 888.765 668.051 886.871 664.593C884.977 661.135 880.644 659.87 877.192 661.768C875.162 662.883 873.118 663.974 871.06 665.038C867.562 666.847 866.19 671.155 867.997 674.659C869.803 678.164 874.103 679.538 877.602 677.728C879.766 676.609 881.916 675.462 884.051 674.289ZM922.237 649.199C925.35 646.784 925.919 642.299 923.508 639.181C921.097 636.062 916.619 635.493 913.507 637.908C911.674 639.329 909.824 640.728 907.956 642.104C904.784 644.44 904.103 648.91 906.435 652.087C908.767 655.265 913.229 655.947 916.401 653.611C918.365 652.165 920.31 650.694 922.237 649.199ZM955.986 618.507C958.686 615.637 958.552 611.117 955.686 608.413C952.82 605.708 948.308 605.843 945.609 608.714C944.019 610.404 942.408 612.074 940.777 613.724C938.007 616.526 938.028 621.047 940.826 623.823C943.623 626.598 948.137 626.577 950.907 623.774C952.622 622.04 954.315 620.284 955.986 618.507ZM984.621 582.837C986.84 579.58 986.003 575.137 982.751 572.914C979.499 570.69 975.064 571.529 972.844 574.787C971.539 576.703 970.209 578.603 968.856 580.486C966.556 583.687 967.282 588.15 970.477 590.454C973.672 592.758 978.127 592.031 980.428 588.83C981.85 586.85 983.248 584.852 984.621 582.837ZM1007.35 543.072C1009.03 539.505 1007.51 535.249 1003.95 533.566C1000.39 531.882 996.138 533.409 994.458 536.975C993.468 539.074 992.453 541.161 991.411 543.234C989.641 546.756 991.058 551.05 994.574 552.823C998.091 554.596 1002.38 553.177 1004.15 549.654C1005.24 547.474 1006.31 545.28 1007.35 543.072ZM1023.5 500.353C1024.6 496.566 1022.42 492.603 1018.64 491.503C1014.86 490.402 1010.91 492.58 1009.81 496.368C1009.16 498.597 1008.49 500.817 1007.78 503.027C1006.59 506.786 1008.66 510.802 1012.41 511.998C1016.17 513.195 1020.17 511.118 1021.37 507.36C1022.11 505.034 1022.82 502.698 1023.5 500.353ZM1032.72 455.677C1033.21 451.764 1030.44 448.193 1026.54 447.701C1022.63 447.208 1019.06 449.982 1018.57 453.895C1018.28 456.199 1017.96 458.497 1017.62 460.789C1017.03 464.689 1019.71 468.328 1023.6 468.919C1027.49 469.51 1031.13 466.827 1031.72 462.928C1032.08 460.517 1032.41 458.1 1032.72 455.677ZM1034.87 410C1034.75 406.058 1031.46 402.959 1027.53 403.079C1023.59 403.199 1020.5 406.492 1020.62 410.434C1020.69 412.749 1020.73 415.069 1020.74 417.392C1020.76 421.336 1023.97 424.515 1027.91 424.493C1031.85 424.47 1035.02 421.255 1035 417.311C1034.99 414.87 1034.94 412.433 1034.87 410ZM1029.92 364.527C1029.19 360.652 1025.46 358.105 1021.59 358.839C1017.72 359.573 1015.18 363.309 1015.91 367.184C1016.34 369.466 1016.75 371.755 1017.12 374.051C1017.76 377.943 1021.42 380.583 1025.31 379.948C1029.19 379.312 1031.83 375.641 1031.19 371.749C1030.8 369.334 1030.38 366.927 1029.92 364.527ZM1017.91 320.422C1016.58 316.711 1012.49 314.786 1008.79 316.121C1005.08 317.457 1003.16 321.548 1004.5 325.259C1005.28 327.444 1006.04 329.639 1006.77 331.845C1008.01 335.588 1012.04 337.616 1015.78 336.375C1019.52 335.134 1021.54 331.093 1020.3 327.349C1019.53 325.029 1018.74 322.72 1017.91 320.422ZM999.085 278.726C997.184 275.272 992.848 274.015 989.4 275.919C985.952 277.823 984.698 282.166 986.598 285.62C987.717 287.653 988.81 289.7 989.877 291.761C991.69 295.262 995.993 296.627 999.488 294.811C1002.98 292.995 1004.35 288.685 1002.53 285.184C1001.41 283.017 1000.26 280.864 999.085 278.726ZM973.987 240.549C971.57 237.435 967.092 236.873 963.983 239.294C960.875 241.715 960.314 246.201 962.73 249.315C964.153 251.149 965.553 253 966.93 254.869C969.268 258.042 973.731 258.717 976.899 256.375C980.067 254.033 980.74 249.562 978.403 246.389C976.955 244.424 975.483 242.477 973.987 240.549ZM943.254 206.765C940.383 204.066 935.872 204.21 933.177 207.086C930.483 209.962 930.626 214.481 933.497 217.18C935.186 218.767 936.856 220.376 938.505 222.006C941.307 224.776 945.821 224.745 948.586 221.938C951.351 219.13 951.321 214.609 948.518 211.839C946.785 210.126 945.03 208.434 943.254 206.765ZM907.586 178.148C904.329 175.931 899.895 176.778 897.682 180.04C895.469 183.302 896.315 187.744 899.572 189.961C901.487 191.264 903.386 192.592 905.268 193.943C908.468 196.241 912.921 195.505 915.215 192.3C917.509 189.095 916.774 184.633 913.575 182.336C911.596 180.915 909.599 179.519 907.586 178.148ZM867.868 155.468C864.304 153.792 860.058 155.326 858.384 158.896C856.71 162.466 858.242 166.719 861.806 168.396C863.902 169.382 865.985 170.394 868.054 171.433C871.575 173.199 875.858 171.772 877.621 168.246C879.384 164.72 877.96 160.429 874.44 158.663C872.263 157.571 870.072 156.506 867.868 155.468ZM825.181 139.371C821.398 138.278 817.447 140.463 816.355 144.253C815.264 148.042 817.446 152 821.229 153.094C823.455 153.737 825.672 154.408 827.879 155.107C831.633 156.296 835.638 154.212 836.825 150.451C838.012 146.691 835.931 142.679 832.177 141.49C829.855 140.754 827.523 140.048 825.181 139.371ZM780.549 130.219C776.641 129.734 773.082 132.515 772.598 136.429C772.114 140.343 774.89 143.909 778.797 144.393C781.098 144.678 783.393 144.992 785.682 145.335C789.576 145.918 793.205 143.228 793.786 139.328C794.368 135.427 791.683 131.793 787.789 131.21C785.382 130.849 782.968 130.519 780.549 130.219Z"></path><path style="fill:var(--color-illustrationPalette030)" d="M925 234C905.67 234 890 218.33 890 199C890 179.67 905.67 164 925 164C944.33 164 960 179.67 960 199C960 218.33 944.33 234 925 234Z"></path></g><defs><clipPath id="nk-30"><rect style="fill:var(--color-white)" width="1490" height="838"></rect></clipPath></defs></svg>