<svg id="theme-transition-presets-predefined-transition-presets-bordercolorchange" style="width: 100%; height: 100%" width="1000" height="1000" viewBox="0 0 1000 1000" fill="none" xmlns="http://www.w3.org/2000/svg" class="css-0"><rect style="fill:var(--color-illustrationBackground020)" width="1000" height="1000" rx="22"></rect><mask id="nk-937" mask-type="alpha" maskUnits="userSpaceOnUse" x="94" y="214" width="813" height="571"><path style="fill:var(--color-illustrationPalette070)" fill-rule="evenodd" clip-rule="evenodd" d="M817 240.656H184C148.654 240.656 120 269.31 120 304.656V694.656C120 730.003 148.654 758.656 184 758.656H817C852.346 758.656 881 730.003 881 694.656V304.656C881 269.31 852.346 240.656 817 240.656ZM184 214.656C134.294 214.656 94 254.951 94 304.656V694.656C94 744.362 134.294 784.656 184 784.656H817C866.706 784.656 907 744.362 907 694.656V304.656C907 254.951 866.706 214.656 817 214.656H184Z"></path></mask><g mask="url(#nk-937)"><path style="fill:var(--color-illustrationPalette080)" d="M602.449 215H817C866.706 215 907 255.294 907 305V705C907 749.183 871.183 785 827 785H354L602.449 215Z"></path></g><mask id="nk-938" mask-type="alpha" maskUnits="userSpaceOnUse" x="94" y="214" width="813" height="571"><path style="fill:var(--color-illustrationPalette080)" fill-rule="evenodd" clip-rule="evenodd" d="M184 758.656H817C852.346 758.656 881 730.002 881 694.656V304.656C881 269.31 852.346 240.656 817 240.656H184C148.654 240.656 120 269.31 120 304.656V694.656C120 730.002 148.654 758.656 184 758.656ZM817 784.656C866.706 784.656 907 744.362 907 694.656V304.656C907 254.951 866.706 214.656 817 214.656H184C134.294 214.656 94 254.951 94 304.656V694.656C94 744.362 134.294 784.656 184 784.656H817Z"></path></mask><g mask="url(#nk-938)"><path style="fill:var(--color-illustrationPalette040)" d="M398.551 784.312H184C134.294 784.312 94 744.018 94 694.312V294.312C94 250.13 129.817 214.312 174 214.312H647L398.551 784.312Z"></path></g><path style="fill:var(--color-illustrationPalette040)" d="M285.378 498.006C292.261 499.29 297.92 502.731 302.353 508.331C306.786 513.931 309.003 520.348 309.003 527.581C309.003 534.115 307.37 539.89 304.103 544.906C300.953 549.806 296.345 553.656 290.278 556.456C284.211 559.256 277.036 560.656 268.753 560.656H216.078V438.506H266.478C274.761 438.506 281.878 439.848 287.828 442.531C293.895 445.215 298.445 448.948 301.478 453.731C304.628 458.515 306.203 463.94 306.203 470.006C306.203 477.123 304.278 483.073 300.428 487.856C296.695 492.64 291.678 496.023 285.378 498.006ZM240.578 488.906H262.978C268.811 488.906 273.303 487.623 276.453 485.056C279.603 482.373 281.178 478.581 281.178 473.681C281.178 468.781 279.603 464.99 276.453 462.306C273.303 459.623 268.811 458.281 262.978 458.281H240.578V488.906ZM265.253 540.706C271.203 540.706 275.811 539.306 279.078 536.506C282.461 533.706 284.153 529.74 284.153 524.606C284.153 519.356 282.403 515.273 278.903 512.356C275.403 509.323 270.678 507.806 264.728 507.806H240.578V540.706H265.253Z"></path><path style="fill:var(--color-illustrationPalette040)" d="M420.054 463.706V560.656H395.379V548.406C392.229 552.606 388.088 555.931 382.954 558.381C377.938 560.715 372.454 561.881 366.504 561.881C358.921 561.881 352.213 560.306 346.379 557.156C340.546 553.89 335.938 549.165 332.554 542.981C329.288 536.681 327.654 529.215 327.654 520.581V463.706H352.154V517.081C352.154 524.781 354.079 530.731 357.929 534.931C361.779 539.015 367.029 541.056 373.679 541.056C380.446 541.056 385.754 539.015 389.604 534.931C393.454 530.731 395.379 524.781 395.379 517.081V463.706H420.054Z"></path><path style="fill:var(--color-illustrationPalette040)" d="M472.753 483.831V530.731C472.753 533.998 473.511 536.39 475.028 537.906C476.661 539.306 479.344 540.006 483.078 540.006H494.453V560.656H479.053C458.403 560.656 448.078 550.623 448.078 530.556V483.831H436.528V463.706H448.078V439.731H472.753V463.706H494.453V483.831H472.753Z"></path><path style="fill:var(--color-illustrationPalette040)" d="M540.599 483.831V530.731C540.599 533.998 541.358 536.39 542.874 537.906C544.508 539.306 547.191 540.006 550.924 540.006H562.299V560.656H546.899C526.249 560.656 515.924 550.623 515.924 530.556V483.831H504.374V463.706H515.924V439.731H540.599V463.706H562.299V483.831H540.599Z"></path><path style="fill:var(--color-illustrationPalette040)" d="M622.971 562.231C613.638 562.231 605.238 560.19 597.771 556.106C590.304 551.906 584.413 546.015 580.096 538.431C575.896 530.848 573.796 522.098 573.796 512.181C573.796 502.265 575.954 493.515 580.271 485.931C584.704 478.348 590.713 472.515 598.296 468.431C605.879 464.231 614.338 462.131 623.671 462.131C633.004 462.131 641.463 464.231 649.046 468.431C656.629 472.515 662.579 478.348 666.896 485.931C671.329 493.515 673.546 502.265 673.546 512.181C673.546 522.098 671.271 530.848 666.721 538.431C662.288 546.015 656.221 551.906 648.521 556.106C640.938 560.19 632.421 562.231 622.971 562.231ZM622.971 540.881C627.404 540.881 631.546 539.831 635.396 537.731C639.363 535.515 642.513 532.248 644.846 527.931C647.179 523.615 648.346 518.365 648.346 512.181C648.346 502.965 645.896 495.906 640.996 491.006C636.213 485.99 630.321 483.481 623.321 483.481C616.321 483.481 610.429 485.99 605.646 491.006C600.979 495.906 598.646 502.965 598.646 512.181C598.646 521.398 600.921 528.515 605.471 533.531C610.138 538.431 615.971 540.881 622.971 540.881Z"></path><path style="fill:var(--color-illustrationPalette040)" d="M745.243 462.306C756.793 462.306 766.126 465.981 773.243 473.331C780.359 480.565 783.918 490.715 783.918 503.781V560.656H759.418V507.106C759.418 499.406 757.493 493.515 753.643 489.431C749.793 485.231 744.543 483.131 737.893 483.131C731.126 483.131 725.759 485.231 721.793 489.431C717.943 493.515 716.018 499.406 716.018 507.106V560.656H691.518V463.706H716.018V475.781C719.284 471.581 723.426 468.315 728.443 465.981C733.576 463.531 739.176 462.306 745.243 462.306Z"></path><g filter="url(#nk-939)"><path style="fill:var(--color-white)" fill-rule="evenodd" clip-rule="evenodd" d="M629.655 788.779L619.857 773.808C613.166 763.585 598.915 759.855 588.014 765.46L590.554 764.154C587.848 765.545 586.551 769.012 587.665 771.894L601.228 806.986C603.379 812.549 608.87 820.417 613.421 824.369C613.421 824.369 640.707 846.954 640.707 855.422V866.142H684.914H697.003H707.017H718.069V855.422C718.069 846.954 734.745 820.284 734.745 820.284C737.814 815.1 740.373 805.967 740.373 799.904V755.312C740.173 745.44 731.781 737.439 721.426 737.439C716.246 737.439 712.05 741.439 712.05 746.378V749.95C712.05 740.077 703.658 732.076 693.303 732.076C688.122 732.076 683.926 736.077 683.926 741.016V744.587C683.926 734.715 675.534 726.714 665.179 726.714C659.999 726.714 655.803 730.714 655.803 735.653V739.225C655.803 737.638 655.633 736.377 655.306 735.377L652.446 689.327C652.059 683.1 646.811 678.262 640.707 678.262C634.561 678.262 629.655 683.209 629.655 689.311V733.521V788.779Z"></path></g><g filter="url(#nk-940)"><path style="fill:var(--color-black)" fill-rule="evenodd" clip-rule="evenodd" d="M590.629 764.312C599.403 761.101 609.665 763.325 616.387 769.675C617.686 770.902 618.853 772.283 619.851 773.808L629.65 788.78V689.312C629.65 683.209 634.555 678.262 640.701 678.262C646.805 678.262 652.054 683.1 652.44 689.327L655.3 735.377C655.33 735.467 655.358 735.559 655.385 735.653C655.657 736.606 655.797 737.781 655.797 739.225V735.653C655.797 735.551 655.799 735.448 655.803 735.346C655.804 735.301 655.806 735.256 655.809 735.211C656.05 730.478 660.149 726.714 665.174 726.714C666.156 726.714 667.121 726.786 668.063 726.925C670.283 727.252 672.374 727.951 674.265 728.952C678.977 731.447 682.442 735.823 683.546 741.016C683.792 742.17 683.921 743.364 683.921 744.588V741.016C683.921 736.077 688.117 732.077 693.297 732.077C693.713 732.077 694.127 732.089 694.536 732.115C697.372 732.291 700.035 733.069 702.388 734.314C707.1 736.81 710.565 741.185 711.67 746.379C711.915 747.533 712.044 748.727 712.044 749.95V746.379C712.044 741.44 716.24 737.439 721.42 737.439C721.837 737.439 722.25 737.452 722.659 737.478C732.437 738.086 740.175 745.837 740.367 755.313V799.904C740.367 805.968 737.809 815.101 734.739 820.285C734.739 820.285 718.064 846.955 718.064 855.422V866.142H640.701V855.422C640.701 846.955 613.415 824.37 613.415 824.37C608.865 820.417 603.373 812.55 601.223 806.986L587.659 771.894C586.916 769.97 587.247 767.786 588.353 766.132C588.731 765.568 589.199 765.066 589.746 764.656C590.038 764.535 590.333 764.421 590.629 764.312ZM588.008 765.46C588.578 765.167 589.158 764.899 589.746 764.656C589.997 764.468 590.265 764.3 590.548 764.154L588.008 765.46ZM584.536 752.46C594.874 748.135 606.623 748.827 616.387 753.689V689.312C616.387 675.916 627.2 665 640.701 665C653.763 665 664.853 675.239 665.677 688.505L667.23 713.516C673.894 713.936 680.144 716.38 685.192 720.299C687.745 719.335 690.489 718.814 693.297 718.814C700.727 718.814 707.751 721.342 713.316 725.662C715.868 724.698 718.612 724.177 721.42 724.177C738.561 724.177 753.272 737.527 753.626 755.044L753.629 755.179V799.904C753.629 804.527 752.702 809.578 751.484 813.969C750.263 818.369 748.467 823.13 746.151 827.042L746.069 827.18L745.985 827.314L745.984 827.316L745.952 827.367C745.932 827.399 745.903 827.446 745.865 827.506L745.83 827.564C745.719 827.743 745.552 828.013 745.337 828.365C744.907 829.069 744.285 830.095 743.537 831.356C742.033 833.888 740.045 837.321 738.073 840.976C736.078 844.673 734.212 848.388 732.881 851.532C731.626 854.495 731.382 855.741 731.336 855.734C731.329 855.733 731.327 855.704 731.326 855.649V879.404H627.439V857.219C627.124 856.712 626.642 856.01 625.947 855.111C623.925 852.496 621.001 849.362 617.762 846.179C614.582 843.053 611.365 840.139 608.921 837.99C607.705 836.921 606.697 836.055 605.999 835.462C605.651 835.166 605.381 834.939 605.203 834.79C605.114 834.716 605.048 834.661 605.007 834.626L604.964 834.59L604.959 834.586L604.958 834.585L604.957 834.584L604.838 834.486L604.719 834.383C598.518 828.997 591.774 819.326 588.853 811.768L575.289 776.675C572.124 768.487 574.943 758.981 582.042 753.856L581.944 753.665C581.949 753.663 581.955 753.66 581.96 753.657L584.473 752.365C584.477 752.363 584.481 752.361 584.484 752.36L584.536 752.46ZM627.889 858.043C627.886 858.042 627.862 857.994 627.827 857.902C627.874 857.998 627.892 858.044 627.889 858.043Z"></path></g><defs><filter id="nk-939" x="554.11" y="656.158" width="219.42" height="254.19" filterUnits="userSpaceOnUse" color-interpolation-filters="sRGB"><feFlood flood-opacity="0" result="BackgroundImageFix"></feFlood><feColorMatrix in="SourceAlpha" type="matrix" values="0 0 0 0 0 0 0 0 0 0 0 0 0 0 0 0 0 0 127 0" result="hardAlpha"></feColorMatrix><feOffset dy="11.0518"></feOffset><feGaussianBlur stdDeviation="16.5776"></feGaussianBlur><feColorMatrix type="matrix" values="0 0 0 0 0 0 0 0 0 0 0 0 0 0 0 0 0 0 0.2 0"></feColorMatrix><feBlend mode="normal" in2="BackgroundImageFix" result="effect1_dropShadow_831_135660"></feBlend><feBlend mode="normal" in="SourceGraphic" in2="effect1_dropShadow_831_135660" result="shape"></feBlend></filter><filter id="nk-940" x="540.845" y="642.896" width="245.943" height="280.715" filterUnits="userSpaceOnUse" color-interpolation-filters="sRGB"><feFlood flood-opacity="0" result="BackgroundImageFix"></feFlood><feColorMatrix in="SourceAlpha" type="matrix" values="0 0 0 0 0 0 0 0 0 0 0 0 0 0 0 0 0 0 127 0" result="hardAlpha"></feColorMatrix><feOffset dy="11.0518"></feOffset><feGaussianBlur stdDeviation="16.5776"></feGaussianBlur><feColorMatrix type="matrix" values="0 0 0 0 0 0 0 0 0 0 0 0 0 0 0 0 0 0 0.2 0"></feColorMatrix><feBlend mode="normal" in2="BackgroundImageFix" result="effect1_dropShadow_831_135660"></feBlend><feBlend mode="normal" in="SourceGraphic" in2="effect1_dropShadow_831_135660" result="shape"></feBlend></filter></defs></svg>