<svg id="nksvg" style="width: 100%; height: 100%" width="1000" height="1000" viewBox="0 0 1000 1000" fill="none" xmlns="http://www.w3.org/2000/svg" class="css-0">
  <rect style="fill: var(--color-illustrationBackground020)" width="1000" height="1000" rx="22"></rect>
  <g>
    <path style="fill: var(--color-white)" d="M142 239C142 216.909 159.909 199 182 199H818C840.091 199 858 216.909 858 239V762C858 784.091 840.091 802 818 802H182C159.909 802 142 784.091 142 762V239Z"></path>
  </g>
  <g opacity="0.4">
    <path style="fill: var(--color-illustrationPalette010)" d="M142 239C142 216.909 159.909 199 182 199H818C840.091 199 858 216.909 858 239V762C858 784.091 840.091 802 818 802H182C159.909 802 142 784.091 142 762V239Z"></path>
  </g>
  <path style="fill: var(--color-illustrationPalette010)" d="M579 199H818C840.091 199 858 216.909 858 239V762C858 784.091 840.091 802 818 802H352L579 199Z"></path>
  <path style="fill: var(--color-illustrationPalette010)" d="M233 481.5C233 475.701 237.701 471 243.5 471H690.5C696.299 471 701 475.701 701 481.5C701 487.299 696.299 492 690.5 492H243.5C237.701 492 233 487.299 233 481.5Z"></path>
  <path style="fill: var(--color-illustrationPalette020)" d="M476.5 471H690.5C696.299 471 701 475.701 701 481.5C701 487.299 696.299 492 690.5 492H468.5L476.5 471Z"></path>
  <path style="fill: var(--color-illustrationPalette010)" d="M233 529.5C233 523.701 237.701 519 243.5 519H532.5C538.299 519 543 523.701 543 529.5C543 535.299 538.299 540 532.5 540H243.5C237.701 540 233 535.299 233 529.5Z"></path>
  <path style="fill: var(--color-illustrationPalette020)" d="M458.5 519H532.5C538.299 519 543 523.701 543 529.5C543 535.299 538.299 540 532.5 540H450.5L458.5 519Z"></path>
  <path style="fill: var(--color-illustrationPalette010)" d="M233 401C233 389.954 241.954 381 253 381H681C692.046 381 701 389.954 701 401C701 412.046 692.046 421 681 421H253C241.954 421 233 412.046 233 401Z"></path>
  <path style="fill: var(--color-illustrationPalette020)" d="M510.5 381H681C692.046 381 701 389.954 701 401C701 412.046 692.046 421 681 421H495.375L510.5 381Z"></path>
  <path style="fill: var(--color-illustrationPalette020)" d="M483 697.5C483 676.237 500.237 659 521.5 659H751.5C772.763 659 790 676.237 790 697.5C790 718.763 772.763 736 751.5 736H521.5C500.237 736 483 718.763 483 697.5Z"></path>
  <path style="fill: var(--color-illustrationPalette010)" d="M559 697C559 692.582 562.582 689 567 689H707C711.418 689 715 692.582 715 697C715 701.418 711.418 705 707 705H567C562.582 705 559 701.418 559 697Z"></path>
  <path style="fill: var(--color-illustrationPalette020)" d="M758.605 312L749 303.342L758.605 293.803L807.851 245L817 254.131L758.605 312Z"></path>
  <path style="fill: var(--color-illustrationPalette020)" d="M807.395 312L817 303.342L807.395 293.803L758.149 245L749 254.131L807.395 312Z"></path>
  <defs>
    
    
  </defs>
</svg>
