<svg
  id="nksvg"
  style="width: 100%; height: 100%"
  width="1000"
  height="1000"
  viewBox="0 0 1000 1000"
  fill="none"
  xmlns="http://www.w3.org/2000/svg"
  class="css-0"
>
  <rect
    style="fill: var(--color-illustrationBackground020)"
    width="1000"
    height="1000"
    rx="22"
  ></rect>
  <path
    style="fill: var(--color-illustrationPalette040)"
    d="M857 739C857 813.558 796.558 874 722 874C647.442 874 587 813.558 587 739C587 664.442 647.442 604 722 604C796.558 604 857 664.442 857 739Z"
  ></path>
  <path
    style="fill: var(--color-illustrationPalette040)"
    fill-rule="evenodd"
    clip-rule="evenodd"
    d="M277 858C342.722 858 396 804.722 396 739C396 673.278 342.722 620 277 620C211.278 620 158 673.278 158 739C158 804.722 211.278 858 277 858ZM277 874C351.558 874 412 813.558 412 739C412 664.442 351.558 604 277 604C202.442 604 142 664.442 142 739C142 813.558 202.442 874 277 874Z"
  ></path>
  <path
    style="fill: var(--color-illustrationInterface090)"
    fill-rule="evenodd"
    clip-rule="evenodd"
    d="M242.153 485.791C239.021 490.778 242.639 497.235 248.566 497.235H272.555V562.75C272.555 566.283 275.18 568 278.745 568C285.465 568 285.925 562.751 285.925 562.751L285.465 497.235H310.434C316.36 497.235 319.978 490.78 316.848 485.793L285.925 436.532C282.97 431.824 276.056 431.823 273.099 436.53L242.153 485.791Z"
  ></path>
  <path
    style="fill: var(--color-illustrationPalette040)"
    d="M292.14 763.12H260.7L255.66 778H234.18L264.66 693.76H288.42L318.9 778H297.18L292.14 763.12ZM286.86 747.28L276.42 716.44L266.1 747.28H286.86Z"
  ></path>
  <path
    style="fill: var(--color-illustrationPalette040)"
    fill-rule="evenodd"
    clip-rule="evenodd"
    d="M722 380C787.722 380 841 326.722 841 261C841 195.278 787.722 142 722 142C656.278 142 603 195.278 603 261C603 326.722 656.278 380 722 380ZM722 396C796.558 396 857 335.558 857 261C857 186.442 796.558 126 722 126C647.442 126 587 186.442 587 261C587 335.558 647.442 396 722 396Z"
  ></path>
  <path
    style="fill: var(--color-illustrationPalette040)"
    d="M741.891 256.8C746.771 257.84 750.691 260.28 753.651 264.12C756.611 267.88 758.091 272.2 758.091 277.08C758.091 284.12 755.611 289.72 750.651 293.88C745.771 297.96 738.931 300 730.131 300H690.891V215.76H728.811C737.371 215.76 744.051 217.72 748.851 221.64C753.731 225.56 756.171 230.88 756.171 237.6C756.171 242.56 754.851 246.68 752.211 249.96C749.651 253.24 746.211 255.52 741.891 256.8ZM711.411 249.84H724.851C728.211 249.84 730.771 249.12 732.531 247.68C734.371 246.16 735.291 243.96 735.291 241.08C735.291 238.2 734.371 236 732.531 234.48C730.771 232.96 728.211 232.2 724.851 232.2H711.411V249.84ZM726.531 283.44C729.971 283.44 732.611 282.68 734.451 281.16C736.371 279.56 737.331 277.28 737.331 274.32C737.331 271.36 736.331 269.04 734.331 267.36C732.411 265.68 729.731 264.84 726.291 264.84H711.411V283.44H726.531Z"
  ></path>
  <path
    style="fill: var(--color-white)"
    d="M740.14 766.12H708.7L703.66 781H682.18L712.66 696.76H736.42L766.9 781H745.18L740.14 766.12ZM734.86 750.28L724.42 719.44L714.1 750.28H734.86Z"
  ></path>
  <path
    style="fill: var(--color-illustrationPalette040)"
    d="M412 261C412 335.558 351.558 396 277 396C202.442 396 142 335.558 142 261C142 186.442 202.442 126 277 126C351.558 126 412 186.442 412 261Z"
  ></path>
  <path
    style="fill: var(--color-illustrationInterface090)"
    fill-rule="evenodd"
    clip-rule="evenodd"
    d="M761.847 515.209C764.979 510.222 761.361 503.765 755.434 503.765H731.445V438.25C731.445 434.717 728.82 433 725.255 433C718.535 433 718.075 438.249 718.075 438.249L718.535 503.765H693.566C687.64 503.765 684.022 510.22 687.152 515.207L718.075 564.468C721.03 569.176 727.944 569.177 730.901 564.47L761.847 515.209Z"
  ></path>
  <path
    style="fill: var(--color-white)"
    d="M296.891 256.8C301.771 257.84 305.691 260.28 308.651 264.12C311.611 267.88 313.091 272.2 313.091 277.08C313.091 284.12 310.611 289.72 305.651 293.88C300.771 297.96 293.931 300 285.131 300H245.891V215.76H283.811C292.371 215.76 299.051 217.72 303.851 221.64C308.731 225.56 311.171 230.88 311.171 237.6C311.171 242.56 309.851 246.68 307.211 249.96C304.651 253.24 301.211 255.52 296.891 256.8ZM266.411 249.84H279.851C283.211 249.84 285.771 249.12 287.531 247.68C289.371 246.16 290.291 243.96 290.291 241.08C290.291 238.2 289.371 236 287.531 234.48C285.771 232.96 283.211 232.2 279.851 232.2H266.411V249.84ZM281.531 283.44C284.971 283.44 287.611 282.68 289.451 281.16C291.371 279.56 292.331 277.28 292.331 274.32C292.331 271.36 291.331 269.04 289.331 267.36C287.411 265.68 284.731 264.84 281.291 264.84H266.411V283.44H281.531Z"
  ></path>
</svg>
