<svg id="theme-sizing-touch-target-areas" style="width: 100%; height: 100%" width="1490" height="838" viewBox="0 0 1490 838" fill="none" xmlns="http://www.w3.org/2000/svg" class="css-0"><rect style="fill:var(--color-illustrationBackground020)" width="1490" height="838"></rect><g filter="url(#nk-626)"><path style="fill:var(--color-illustrationInterface010)" d="M445 216.342C445 210.689 449.583 206.105 455.237 206.105H1033.9C1039.55 206.105 1044.13 210.689 1044.13 216.342V670.682C1044.13 676.336 1039.55 680.919 1033.9 680.919H455.237C449.583 680.919 445 676.336 445 670.682V216.342Z"></path></g><path style="fill:var(--color-illustrationHighlight010)" d="M1005.73 257.537L1002.7 254.5L990.657 266.54L978.617 254.5L975.58 257.537L987.62 269.576L975.58 281.616L978.617 284.653L990.657 272.613L1002.7 284.653L1005.73 281.616L993.693 269.576L1005.73 257.537Z"></path><path style="fill:var(--color-illustrationInterface020)" d="M483.947 458.333C483.947 454.548 487.015 451.479 490.8 451.479H993.844C997.628 451.479 1000.7 454.548 1000.7 458.333C1000.7 462.117 997.628 465.186 993.844 465.186H490.8C487.015 465.186 483.947 462.117 483.947 458.333Z"></path><path style="fill:var(--color-illustrationInterface020)" d="M483.947 421.021C483.947 416.815 487.356 413.406 491.562 413.406H993.082C997.288 413.406 1000.7 416.815 1000.7 421.021C1000.7 425.226 997.288 428.635 993.082 428.635H491.562C487.356 428.635 483.947 425.226 483.947 421.021Z"></path><path style="fill:var(--color-illustrationInterface020)" d="M483.947 383.711C483.947 379.927 487.015 376.858 490.8 376.858H737.994C741.779 376.858 744.847 379.927 744.847 383.711C744.847 387.496 741.779 390.565 737.994 390.565H490.8C487.015 390.565 483.947 387.496 483.947 383.711Z"></path><path style="fill:var(--color-illustrationInterface020)" d="M593.08 495.607C593.08 491.703 596.245 488.538 600.149 488.538H622.903C626.806 488.538 629.971 491.703 629.971 495.607C629.971 499.51 626.806 502.675 622.903 502.675H600.149C596.245 502.675 593.08 499.51 593.08 495.607Z"></path><path style="fill:var(--color-illustrationInterface020)" d="M483.945 495.607C483.945 491.703 487.11 488.538 491.014 488.538H564.493C568.397 488.538 571.561 491.703 571.561 495.607C571.561 499.51 568.397 502.675 564.493 502.675H491.014C487.11 502.675 483.945 499.51 483.945 495.607Z"></path><path style="fill:var(--color-illustrationHighlight010)" fill-rule="evenodd" clip-rule="evenodd" d="M1000.7 328.928H483.945V327.43H1000.7V328.928Z"></path><path style="fill:var(--color-illustrationHighlight010)" d="M752.057 597.789C752.057 578.349 767.816 562.59 787.256 562.59H972.987C992.427 562.59 1008.19 578.349 1008.19 597.789C1008.19 617.229 992.427 632.988 972.987 632.988H787.256C767.816 632.988 752.057 617.229 752.057 597.789Z"></path><path style="fill:var(--color-illustrationHighlight010)" d="M504.742 253.391V258.718H497.619V280.685H491.069V258.718H483.945V253.391H504.742Z"></path><path style="fill:var(--color-illustrationHighlight010)" d="M511.323 256.735C510.174 256.735 509.229 256.398 508.489 255.724C507.774 255.024 507.417 254.169 507.417 253.158C507.417 252.121 507.774 251.266 508.489 250.592C509.229 249.892 510.174 249.542 511.323 249.542C512.447 249.542 513.366 249.892 514.081 250.592C514.821 251.266 515.192 252.121 515.192 253.158C515.192 254.169 514.821 255.024 514.081 255.724C513.366 256.398 512.447 256.735 511.323 256.735ZM514.579 258.99V280.685H508.029V258.99H514.579Z"></path><path style="fill:var(--color-illustrationHighlight010)" d="M531.236 275.048V280.685H527.904C525.53 280.685 523.678 280.102 522.351 278.936C521.023 277.743 520.359 275.812 520.359 273.143V264.511H517.755V258.99H520.359V253.702H526.908V258.99H531.198V264.511H526.908V273.22C526.908 273.868 527.062 274.335 527.368 274.62C527.674 274.905 528.185 275.048 528.9 275.048H531.236Z"></path><path style="fill:var(--color-illustrationHighlight010)" d="M541.434 251.914V280.685H534.885V251.914H541.434Z"></path><path style="fill:var(--color-illustrationHighlight010)" d="M566.326 269.488C566.326 270.11 566.288 270.758 566.211 271.432H551.389C551.491 272.78 551.912 273.817 552.653 274.542C553.419 275.242 554.351 275.592 555.449 275.592C557.083 275.592 558.219 274.892 558.858 273.493H565.828C565.471 274.918 564.82 276.201 563.875 277.342C562.956 278.482 561.794 279.376 560.39 280.024C558.985 280.672 557.415 280.997 555.679 280.997C553.585 280.997 551.721 280.543 550.087 279.636C548.453 278.728 547.176 277.432 546.257 275.748C545.338 274.063 544.878 272.093 544.878 269.838C544.878 267.583 545.325 265.613 546.218 263.928C547.138 262.243 548.414 260.947 550.049 260.04C551.683 259.133 553.559 258.679 555.679 258.679C557.747 258.679 559.585 259.12 561.194 260.001C562.803 260.882 564.054 262.139 564.947 263.772C565.867 265.405 566.326 267.31 566.326 269.488ZM559.624 267.738C559.624 266.598 559.241 265.69 558.475 265.017C557.709 264.343 556.751 264.006 555.602 264.006C554.504 264.006 553.572 264.33 552.806 264.978C552.066 265.626 551.606 266.546 551.427 267.738H559.624Z"></path><path style="fill:var(--color-red020)" fill-rule="evenodd" clip-rule="evenodd" d="M947 229.107V226H950.107V229.061H950.061V229.107H947ZM962.536 226H956.321V229.061H962.536V226ZM968.75 226V229.061H974.964V226H968.75ZM981.179 226V229.061H987.393V226H981.179ZM993.607 226V229.061H999.821V226H993.607ZM1006.04 226V229.061H1012.25V226H1006.04ZM1018.46 226V229.061H1024.68V226H1018.46ZM1030.89 226V229.061H1030.94V229.107H1034V226H1030.89ZM1034 235.321H1030.94V241.536H1034V235.321ZM1034 247.75H1030.94V253.964H1034V247.75ZM1034 260.179H1030.94V266.393H1034V260.179ZM1034 272.607H1030.94V278.821H1034V272.607ZM1034 285.036H1030.94V291.25H1034V285.036ZM1034 297.464H1030.94V303.679H1034V297.464ZM1034 309.893H1030.94V309.939H1030.89V313H1034V309.893ZM1024.68 313V309.939H1018.46V313H1024.68ZM1012.25 313V309.939H1006.04V313H1012.25ZM999.821 313V309.939H993.607V313H999.821ZM987.393 313V309.939H981.179V313H987.393ZM974.964 313V309.939H968.75V313H974.964ZM962.536 313V309.939H956.321V313H962.536ZM950.107 313V309.939H950.061V309.893H947V313H950.107ZM947 303.679H950.061V297.464H947V303.679ZM947 291.25H950.061V285.036H947V291.25ZM947 278.821H950.061V272.607H947V278.821ZM947 266.393H950.061V260.179H947V266.393ZM947 253.964H950.061V247.75H947V253.964ZM947 241.536H950.061V235.321H947V241.536Z"></path><path style="fill:var(--color-illustrationHighlight010)" fill-rule="evenodd" clip-rule="evenodd" d="M970.174 167.533C962.826 167.533 956.87 173.489 956.87 180.837V189.337H948V180.837C948 168.591 957.928 158.663 970.174 158.663H1010.46C1022.7 158.663 1032.63 168.591 1032.63 180.837V189.337H1023.76V180.837C1023.76 173.489 1017.81 167.533 1010.46 167.533H970.174Z"></path><path style="fill:var(--color-illustrationHighlight010)" fill-rule="evenodd" clip-rule="evenodd" d="M994.869 122.857L994.5 161.292L985.63 161.207L986 122.771L994.869 122.857Z"></path><path style="fill:var(--color-illustrationHighlight010)" fill-rule="evenodd" clip-rule="evenodd" d="M1084.32 293.471C1084.32 301.056 1078.17 307.205 1070.58 307.205H1061.81V316.36H1070.58C1083.22 316.36 1093.47 306.113 1093.47 293.471V251.889C1093.47 239.248 1083.22 229 1070.58 229H1061.81V238.156H1070.58C1078.17 238.156 1084.32 244.305 1084.32 251.889V293.471Z"></path><path style="fill:var(--color-illustrationHighlight010)" fill-rule="evenodd" clip-rule="evenodd" d="M1130.44 267.845L1090.76 268.226L1090.85 277.381L1130.52 277L1130.44 267.845Z"></path><path style="fill:var(--color-illustrationHighlight010)" d="M947.828 92.068V89.0295L959.609 72H964.447V88.5702H967.708V92.068H964.447V97.4383H960.52V92.068H947.828ZM960.696 76.0984L952.421 88.5702H960.696V76.0984Z"></path><path style="fill:var(--color-illustrationHighlight010)" d="M970.529 92.068V89.0295L982.31 72H987.148V88.5702H990.409V92.068H987.148V97.4383H983.221V92.068H970.529ZM983.397 76.0984L975.122 88.5702H983.397V76.0984Z"></path><path style="fill:var(--color-illustrationHighlight010)" d="M998.244 80.8328C998.922 79.9377 999.845 79.184 1001.01 78.5716C1002.18 77.9592 1003.5 77.653 1004.98 77.653C1006.66 77.653 1008.19 78.0769 1009.57 78.9249C1010.97 79.7493 1012.07 80.9152 1012.86 82.4226C1013.66 83.9301 1014.06 85.6613 1014.06 87.6163C1014.06 89.5713 1013.66 91.3261 1012.86 92.8806C1012.07 94.4116 1010.97 95.6129 1009.57 96.4844C1008.19 97.3323 1006.66 97.7563 1004.98 97.7563C1003.5 97.7563 1002.19 97.4619 1001.05 96.873C999.904 96.2606 998.969 95.5069 998.244 94.6118V106.695H994.247V77.9709H998.244V80.8328ZM1009.99 87.6163C1009.99 86.2737 1009.71 85.1196 1009.15 84.1539C1008.61 83.1646 1007.89 82.4226 1006.97 81.928C1006.09 81.4098 1005.13 81.1507 1004.1 81.1507C1003.09 81.1507 1002.14 81.4098 1001.22 81.928C1000.34 82.4462 999.611 83.1999 999.05 84.1892C998.513 85.1785 998.244 86.3444 998.244 87.687C998.244 89.0295 998.513 90.2072 999.05 91.2201C999.611 92.2093 1000.34 92.9631 1001.22 93.4813C1002.14 93.9994 1003.09 94.2585 1004.1 94.2585C1005.13 94.2585 1006.09 93.9994 1006.97 93.4813C1007.89 92.9395 1008.61 92.1622 1009.15 91.1494C1009.71 90.1366 1009.99 88.9589 1009.99 87.6163Z"></path><path style="fill:var(--color-illustrationHighlight010)" d="M1026.28 87.581L1032.52 97.4383H1028L1023.83 90.8314L1019.9 97.4383H1015.73L1021.97 87.8636L1015.73 77.9709H1020.25L1024.43 84.5778L1028.35 77.9709H1032.52L1026.28 87.581Z"></path><path style="fill:var(--color-illustrationHighlight010)" d="M1147 277.441V274.403L1158.78 257.373H1163.62V273.943H1166.88V277.441H1163.62V282.811H1159.69V277.441H1147ZM1159.87 261.471L1151.59 273.943H1159.87V261.471Z"></path><path style="fill:var(--color-illustrationHighlight010)" d="M1169.7 277.441V274.403L1181.48 257.373H1186.32V273.943H1189.58V277.441H1186.32V282.811H1182.39V277.441H1169.7ZM1182.57 261.471L1174.29 273.943H1182.57V261.471Z"></path><path style="fill:var(--color-illustrationHighlight010)" d="M1197.42 266.206C1198.09 265.311 1199.02 264.557 1200.19 263.945C1201.35 263.332 1202.68 263.026 1204.15 263.026C1205.83 263.026 1207.36 263.45 1208.74 264.298C1210.14 265.122 1211.24 266.288 1212.04 267.796C1212.83 269.303 1213.23 271.034 1213.23 272.989C1213.23 274.944 1212.83 276.699 1212.04 278.254C1211.24 279.785 1210.14 280.986 1208.74 281.857C1207.36 282.705 1205.83 283.129 1204.15 283.129C1202.68 283.129 1201.37 282.835 1200.22 282.246C1199.08 281.634 1198.14 280.88 1197.42 279.985V292.068H1193.42V263.344H1197.42V266.206ZM1209.16 272.989C1209.16 271.647 1208.88 270.493 1208.32 269.527C1207.78 268.538 1207.06 267.796 1206.15 267.301C1205.26 266.783 1204.3 266.524 1203.27 266.524C1202.27 266.524 1201.31 266.783 1200.4 267.301C1199.51 267.819 1198.78 268.573 1198.22 269.562C1197.68 270.552 1197.42 271.717 1197.42 273.06C1197.42 274.403 1197.68 275.58 1198.22 276.593C1198.78 277.582 1199.51 278.336 1200.4 278.854C1201.31 279.372 1202.27 279.632 1203.27 279.632C1204.3 279.632 1205.26 279.372 1206.15 278.854C1207.06 278.313 1207.78 277.535 1208.32 276.522C1208.88 275.51 1209.16 274.332 1209.16 272.989Z"></path><path style="fill:var(--color-illustrationHighlight010)" d="M1225.46 272.954L1231.7 282.811H1227.17L1223 276.204L1219.07 282.811H1214.9L1221.14 273.237L1214.9 263.344H1219.43L1223.6 269.951L1227.52 263.344H1231.7L1225.46 272.954Z"></path><defs><filter id="nk-626" x="421.035" y="194.123" width="647.063" height="522.744" filterUnits="userSpaceOnUse" color-interpolation-filters="sRGB"><feFlood flood-opacity="0" result="BackgroundImageFix"></feFlood><feColorMatrix in="SourceAlpha" type="matrix" values="0 0 0 0 0 0 0 0 0 0 0 0 0 0 0 0 0 0 127 0" result="hardAlpha"></feColorMatrix><feOffset dy="11.9827"></feOffset><feGaussianBlur stdDeviation="11.9827"></feGaussianBlur><feColorMatrix type="matrix" values="0 0 0 0 0.0392157 0 0 0 0 0.0392157 0 0 0 0 0.0392157 0 0 0 0.08 0"></feColorMatrix><feBlend mode="normal" in2="BackgroundImageFix" result="effect1_dropShadow_472_46593"></feBlend><feBlend mode="normal" in="SourceGraphic" in2="effect1_dropShadow_472_46593" result="shape"></feBlend></filter></defs></svg>