<svg id="components-tooltip-usage-do3" style="width: 100%; height: 100%" width="1490" height="838" viewBox="0 0 1490 838" fill="none" xmlns="http://www.w3.org/2000/svg" class="css-0"><rect style="fill:var(--color-illustrationBackground010)" width="1490" height="838"></rect><path style="fill:var(--color-illustrationHighlight010)" fill-rule="evenodd" clip-rule="evenodd" d="M293.606 194C264 194 240 218 240 247.606V361.518C240 391.123 264 415.123 293.606 415.123H711.655L745.233 448.701L778.811 415.123H1196.86C1226.47 415.123 1250.47 391.123 1250.47 361.518V247.606C1250.47 218 1226.47 194 1196.86 194H293.606Z"></path><path style="fill:var(--color-illustrationInterface010)" d="M347.211 338.741C347.211 346.121 353.194 352.104 360.574 352.104H922.387C929.767 352.104 935.75 346.121 935.75 338.741C935.75 331.36 929.767 325.377 922.387 325.377H360.574C353.194 325.377 347.211 331.36 347.211 338.741Z"></path><path style="fill:var(--color-illustrationInterface010)" d="M347.211 273.881C347.211 280.991 352.975 286.755 360.085 286.755H1119.28C1126.39 286.755 1132.15 280.991 1132.15 273.881C1132.15 266.771 1126.39 261.007 1119.28 261.007H360.085C352.975 261.007 347.211 266.771 347.211 273.881Z"></path><circle style="fill:var(--color-illustrationInterface020)" cx="744.833" cy="582.999" r="96.8325"></circle><path style="fill:var(--color-illustrationHighlight010)" d="M739.304 557.019H749.531V567.245H739.304V557.019Z"></path><path style="fill:var(--color-illustrationHighlight010)" d="M739.304 577.471H749.531V608.15H739.304V577.471Z"></path><path style="fill:var(--color-illustrationHighlight010)" fill-rule="evenodd" clip-rule="evenodd" d="M693.286 582.584C693.286 554.36 716.193 531.453 744.417 531.453C772.642 531.453 795.549 554.36 795.549 582.584C795.549 610.809 772.642 633.716 744.417 633.716C716.193 633.716 693.286 610.809 693.286 582.584ZM703.512 582.584C703.512 605.133 721.868 623.489 744.417 623.489C766.966 623.489 785.322 605.133 785.322 582.584C785.322 560.035 766.966 541.679 744.417 541.679C721.868 541.679 703.512 560.035 703.512 582.584Z"></path><g filter="url(#nk-1599)"><path style="fill:var(--color-white)" fill-rule="evenodd" clip-rule="evenodd" d="M1095.63 381.055L1090.81 373.684C1087.52 368.651 1080.5 366.815 1075.13 369.574L1076.38 368.931C1075.05 369.616 1074.41 371.323 1074.96 372.742L1081.64 390.018C1082.7 392.757 1085.4 396.63 1087.64 398.576C1087.64 398.576 1101.07 409.695 1101.07 413.863V419.141H1122.84H1128.79H1133.72H1139.16V413.863C1139.16 409.695 1147.37 396.565 1147.37 396.565C1148.88 394.013 1150.14 389.516 1150.14 386.531V364.578C1150.04 359.718 1145.91 355.779 1140.81 355.779C1138.26 355.779 1136.2 357.749 1136.2 360.18V361.938C1136.2 357.078 1132.07 353.139 1126.97 353.139C1124.42 353.139 1122.35 355.108 1122.35 357.54V359.298C1122.35 354.438 1118.22 350.499 1113.12 350.499C1110.57 350.499 1108.51 352.468 1108.51 354.9V356.658C1108.51 355.877 1108.42 355.256 1108.26 354.764L1106.85 332.093C1106.66 329.027 1104.08 326.646 1101.07 326.646C1098.05 326.646 1095.63 329.081 1095.63 332.085V353.85V381.055Z"></path><path style="fill:var(--color-black)" fill-rule="evenodd" clip-rule="evenodd" d="M1076.42 369.008C1080.74 367.427 1085.8 368.522 1089.1 371.648C1089.74 372.252 1090.32 372.932 1090.81 373.683L1095.63 381.053V332.084C1095.63 329.08 1098.05 326.644 1101.07 326.644C1104.08 326.644 1106.66 329.026 1106.85 332.092L1108.26 354.763C1108.28 354.807 1108.29 354.852 1108.3 354.899C1108.44 355.368 1108.51 355.946 1108.51 356.657V354.899C1108.51 354.848 1108.51 354.798 1108.51 354.748C1108.51 354.725 1108.51 354.703 1108.51 354.681C1108.63 352.351 1110.65 350.498 1113.12 350.498C1113.61 350.498 1114.08 350.533 1114.55 350.602C1115.64 350.763 1116.67 351.107 1117.6 351.599C1119.92 352.828 1121.62 354.982 1122.17 357.539C1122.29 358.107 1122.35 358.695 1122.35 359.297V357.539C1122.35 355.107 1124.42 353.138 1126.97 353.138C1127.17 353.138 1127.38 353.144 1127.58 353.157C1128.97 353.244 1130.29 353.626 1131.44 354.24C1133.76 355.468 1135.47 357.622 1136.01 360.179C1136.13 360.747 1136.2 361.335 1136.2 361.937V360.179C1136.2 357.747 1138.26 355.778 1140.81 355.778C1141.02 355.778 1141.22 355.784 1141.42 355.797C1146.24 356.096 1150.05 359.912 1150.14 364.577V386.53C1150.14 389.515 1148.88 394.011 1147.37 396.564C1147.37 396.564 1139.16 409.694 1139.16 413.862V419.14H1101.07V413.862C1101.07 409.694 1087.64 398.575 1087.64 398.575C1085.4 396.629 1082.7 392.756 1081.64 390.017L1074.96 372.74C1074.6 371.793 1074.76 370.718 1075.3 369.904C1075.49 369.626 1075.72 369.379 1075.99 369.177C1076.13 369.118 1076.28 369.061 1076.42 369.008ZM1075.13 369.573C1075.41 369.428 1075.7 369.297 1075.99 369.177C1076.11 369.085 1076.24 369.002 1076.38 368.93L1075.13 369.573ZM1072.2 363.86C1068.7 366.383 1067.31 371.063 1068.87 375.094L1075.55 392.371C1076.99 396.092 1080.31 400.853 1083.36 403.504L1083.42 403.555L1083.48 403.603L1083.48 403.605L1083.5 403.624L1083.6 403.705C1083.69 403.778 1083.82 403.89 1083.99 404.036C1084.33 404.328 1084.83 404.754 1085.43 405.28C1086.63 406.338 1088.22 407.773 1089.78 409.312C1091.38 410.879 1092.82 412.422 1093.81 413.709C1094.15 414.152 1094.39 414.497 1094.55 414.747V425.669H1145.69V413.974C1145.69 414.001 1145.69 414.015 1145.7 414.016C1145.72 414.019 1145.84 413.406 1146.46 411.947C1147.11 410.399 1148.03 408.57 1149.01 406.75C1149.98 404.951 1150.96 403.261 1151.7 402.014C1152.07 401.393 1152.38 400.888 1152.59 400.542C1152.69 400.369 1152.78 400.235 1152.83 400.147L1152.89 400.05L1152.91 400.025L1152.95 399.958L1152.99 399.89C1154.13 397.964 1155.01 395.62 1155.61 393.454C1156.21 391.292 1156.67 388.806 1156.67 386.53V364.511L1156.67 364.445C1156.49 355.821 1149.25 349.249 1140.81 349.249C1139.43 349.249 1138.08 349.505 1136.82 349.98C1134.08 347.853 1130.63 346.609 1126.97 346.609C1125.59 346.609 1124.24 346.865 1122.98 347.34C1120.49 345.41 1117.42 344.207 1114.14 344L1113.37 331.687C1112.97 325.156 1107.51 320.115 1101.07 320.115C1094.43 320.115 1089.1 325.489 1089.1 332.084V363.778C1084.3 361.384 1078.51 361.043 1073.42 363.173M1094.77 415.152C1094.77 415.152 1094.75 415.128 1094.74 415.083C1094.76 415.13 1094.77 415.153 1094.77 415.152ZM1072.2 363.86L1072.15 363.766L1073.4 363.123"></path></g><defs><filter id="nk-1599" x="998.288" y="280.644" width="227.534" height="227.534" filterUnits="userSpaceOnUse" color-interpolation-filters="sRGB"><feFlood flood-opacity="0" result="BackgroundImageFix"></feFlood><feColorMatrix in="SourceAlpha" type="matrix" values="0 0 0 0 0 0 0 0 0 0 0 0 0 0 0 0 0 0 127 0" result="hardAlpha"></feColorMatrix><feOffset dy="13.3562"></feOffset><feGaussianBlur stdDeviation="13.3562"></feGaussianBlur><feColorMatrix type="matrix" values="0 0 0 0 0.0392157 0 0 0 0 0.0392157 0 0 0 0 0.0392157 0 0 0 0.08 0"></feColorMatrix><feBlend mode="normal" in2="BackgroundImageFix" result="effect1_dropShadow_1890_59125"></feBlend><feBlend mode="normal" in="SourceGraphic" in2="effect1_dropShadow_1890_59125" result="shape"></feBlend></filter></defs></svg>