<svg id="nksvg" style="width: 100%; height: 100%" width="1490" height="838" viewBox="0 0 1490 838" fill="none" xmlns="http://www.w3.org/2000/svg" class="css-0">
  <g clip-path="url(#nk-1178)">
    <rect style="fill: var(--color-illustrationBackground010)" width="1490" height="838"></rect>
    <rect style="fill: var(--color-illustrationBackground010)" width="1490" height="838"></rect>
    <path style="fill: var(--color-illustrationHighlight010)" fill-rule="evenodd" clip-rule="evenodd" d="M215.782 240C171.719 240 136 275.72 136 319.782V489.317C136 533.38 171.719 569.099 215.782 569.099H837.966L887.941 619.075L937.917 569.099H1560.1C1604.16 569.099 1639.88 533.379 1639.88 489.317V319.782C1639.88 275.719 1604.16 240 1560.1 240H215.782Z"></path>
    <path style="fill: var(--color-illustrationInterface030)" d="M496.667 449.057C496.667 440.293 503.772 433.188 512.536 433.188H1426.13C1434.9 433.188 1442 440.293 1442 449.057C1442 457.82 1434.9 464.925 1426.13 464.925H512.536C503.772 464.925 496.667 457.82 496.667 449.057Z"></path>
    <path style="fill: var(--color-illustrationInterface030)" d="M1377.33 370.958C1377.33 362.194 1384.44 355.09 1393.2 355.09H1468.28C1477.05 355.09 1484.15 362.194 1484.15 370.958C1484.15 379.722 1477.05 386.826 1468.28 386.826H1393.2C1384.44 386.826 1377.33 379.722 1377.33 370.958Z"></path>
    <path style="fill: var(--color-illustrationInterface030)" d="M496.669 371.303C496.669 363.415 503.063 357.021 510.95 357.021H1026.08C1033.97 357.021 1040.36 363.415 1040.36 371.303C1040.36 379.19 1033.97 385.584 1026.08 385.584H510.95C503.063 385.584 496.669 379.19 496.669 371.303Z"></path>
    <path style="fill: var(--color-illustrationInterface010)" d="M1087.96 365.405C1087.96 354.26 1097 345.226 1108.14 345.226H1312.41C1323.56 345.226 1332.59 354.26 1332.59 365.405C1332.59 376.55 1323.56 385.585 1312.41 385.585H1108.14C1097 385.585 1087.96 376.55 1087.96 365.405Z"></path>
    <path style="fill: var(--color-illustrationInterface020)" d="M304.105 362.969H320.918V379.783H304.105V362.969Z"></path>
    <path style="fill: var(--color-illustrationInterface020)" d="M304.105 396.596H320.918V447.037H304.105V396.596Z"></path>
    <path style="fill: var(--color-illustrationInterface020)" fill-rule="evenodd" clip-rule="evenodd" d="M228.444 405.003C228.444 358.598 266.106 320.936 312.512 320.936C358.917 320.936 396.579 358.598 396.579 405.003C396.579 451.408 358.917 489.07 312.512 489.07C266.106 489.07 228.444 451.408 228.444 405.003ZM245.258 405.003C245.258 442.077 275.438 472.257 312.512 472.257C349.586 472.257 379.766 442.077 379.766 405.003C379.766 367.929 349.586 337.749 312.512 337.749C275.438 337.749 245.258 367.929 245.258 405.003Z"></path>
  </g>
  <defs>
    <clipPath id="nk-1178">
      <rect style="fill: var(--color-white)" width="1490" height="838"></rect>
    </clipPath>
  </defs>
</svg>
