<svg id="components-flag-usage-dont-01" style="width: 100%; height: 100%" width="1490" height="838" viewBox="0 0 1490 838" fill="none" xmlns="http://www.w3.org/2000/svg" class="css-0"><g clip-path="url(#nk-901)"><rect style="fill:var(--color-illustrationBackground010)" width="1490" height="838"></rect><g filter="url(#nk-902)"><rect style="fill:var(--color-illustrationInterface010)" x="388.068" y="-299.875" width="714.19" height="1054.88" rx="21.9189"></rect><path style="fill:var(--color-illustrationInterface030)" d="M388.068 -281.081C388.068 -293.187 397.881 -303 409.986 -303H1080.34C1092.44 -303 1102.26 -293.187 1102.26 -281.081V159.583H388.068V-281.081Z"></path><rect style="fill:var(--color-illustrationPalette020)" x="445.669" y="308.048" width="595.138" height="36.5315" rx="18.2657"></rect><rect style="fill:var(--color-illustrationPalette020)" x="445.669" y="386.919" width="390.783" height="36.5315" rx="18.2657"></rect><rect style="fill:var(--color-illustrationInterface020)" x="445.669" y="533.274" width="595.138" height="21.511" rx="10.7555"></rect><rect style="fill:var(--color-illustrationInterface020)" x="445.669" y="583.464" width="595.138" height="21.511" rx="10.7555"></rect><rect style="fill:var(--color-illustrationInterface020)" x="445.669" y="483.077" width="595.138" height="21.511" rx="10.7555"></rect><rect style="fill:var(--color-illustrationInterface020)" x="445.669" y="633.654" width="301.154" height="21.511" rx="10.7555"></rect><rect style="fill:var(--color-illustrationHighlight010)" x="446" y="192" width="307" height="72"></rect><path style="fill:var(--color-illustrationInterface010)" d="M473.258 228.788C473.258 226.476 473.791 224.402 474.856 222.566C475.944 220.73 477.406 219.302 479.242 218.282C481.101 217.239 483.129 216.718 485.328 216.718C487.844 216.718 490.077 217.341 492.026 218.588C493.998 219.812 495.426 221.557 496.31 223.824H491.652C491.04 222.577 490.19 221.648 489.102 221.036C488.014 220.424 486.756 220.118 485.328 220.118C483.764 220.118 482.37 220.469 481.146 221.172C479.922 221.875 478.959 222.883 478.256 224.198C477.576 225.513 477.236 227.043 477.236 228.788C477.236 230.533 477.576 232.063 478.256 233.378C478.959 234.693 479.922 235.713 481.146 236.438C482.37 237.141 483.764 237.492 485.328 237.492C486.756 237.492 488.014 237.186 489.102 236.574C490.19 235.962 491.04 235.033 491.652 233.786H496.31C495.426 236.053 493.998 237.798 492.026 239.022C490.077 240.246 487.844 240.858 485.328 240.858C483.107 240.858 481.078 240.348 479.242 239.328C477.406 238.285 475.944 236.846 474.856 235.01C473.791 233.174 473.258 231.1 473.258 228.788Z"></path><path style="fill:var(--color-illustrationInterface010)" d="M499.555 231.202C499.555 229.321 499.94 227.655 500.711 226.204C501.504 224.753 502.57 223.631 503.907 222.838C505.267 222.022 506.763 221.614 508.395 221.614C509.868 221.614 511.149 221.909 512.237 222.498C513.348 223.065 514.232 223.779 514.889 224.64V221.92H518.799V240.654H514.889V237.866C514.232 238.75 513.336 239.487 512.203 240.076C511.07 240.665 509.778 240.96 508.327 240.96C506.718 240.96 505.244 240.552 503.907 239.736C502.57 238.897 501.504 237.741 500.711 236.268C499.94 234.772 499.555 233.083 499.555 231.202ZM514.889 231.27C514.889 229.978 514.617 228.856 514.073 227.904C513.552 226.952 512.86 226.227 511.999 225.728C511.138 225.229 510.208 224.98 509.211 224.98C508.214 224.98 507.284 225.229 506.423 225.728C505.562 226.204 504.859 226.918 504.315 227.87C503.794 228.799 503.533 229.91 503.533 231.202C503.533 232.494 503.794 233.627 504.315 234.602C504.859 235.577 505.562 236.325 506.423 236.846C507.307 237.345 508.236 237.594 509.211 237.594C510.208 237.594 511.138 237.345 511.999 236.846C512.86 236.347 513.552 235.622 514.073 234.67C514.617 233.695 514.889 232.562 514.889 231.27Z"></path><path style="fill:var(--color-illustrationInterface010)" d="M528.412 225.082V235.452C528.412 236.155 528.571 236.665 528.888 236.982C529.228 237.277 529.795 237.424 530.588 237.424H532.968V240.654H529.908C528.163 240.654 526.825 240.246 525.896 239.43C524.967 238.614 524.502 237.288 524.502 235.452V225.082H522.292V221.92H524.502V217.262H528.412V221.92H532.968V225.082H528.412Z"></path><path style="fill:var(--color-illustrationInterface010)" d="M553.71 230.828C553.71 231.531 553.665 232.165 553.574 232.732H539.26C539.374 234.228 539.929 235.429 540.926 236.336C541.924 237.243 543.148 237.696 544.598 237.696C546.684 237.696 548.157 236.823 549.018 235.078H553.2C552.634 236.801 551.602 238.217 550.106 239.328C548.633 240.416 546.797 240.96 544.598 240.96C542.808 240.96 541.198 240.563 539.77 239.77C538.365 238.954 537.254 237.821 536.438 236.37C535.645 234.897 535.248 233.197 535.248 231.27C535.248 229.343 535.634 227.655 536.404 226.204C537.198 224.731 538.297 223.597 539.702 222.804C541.13 222.011 542.762 221.614 544.598 221.614C546.366 221.614 547.942 221.999 549.324 222.77C550.707 223.541 551.784 224.629 552.554 226.034C553.325 227.417 553.71 229.015 553.71 230.828ZM549.664 229.604C549.642 228.176 549.132 227.031 548.134 226.17C547.137 225.309 545.902 224.878 544.428 224.878C543.091 224.878 541.946 225.309 540.994 226.17C540.042 227.009 539.476 228.153 539.294 229.604H549.664Z"></path><path style="fill:var(--color-illustrationInterface010)" d="M565.073 221.614C566.523 221.614 567.804 221.909 568.915 222.498C570.048 223.065 570.932 223.779 571.567 224.64V221.92H575.477V240.96C575.477 242.683 575.114 244.213 574.389 245.55C573.663 246.91 572.609 247.975 571.227 248.746C569.867 249.517 568.235 249.902 566.331 249.902C563.792 249.902 561.684 249.301 560.007 248.1C558.329 246.921 557.377 245.312 557.151 243.272H560.993C561.287 244.247 561.911 245.029 562.863 245.618C563.837 246.23 564.993 246.536 566.331 246.536C567.895 246.536 569.153 246.06 570.105 245.108C571.079 244.156 571.567 242.773 571.567 240.96V237.832C570.909 238.716 570.014 239.464 568.881 240.076C567.77 240.665 566.501 240.96 565.073 240.96C563.441 240.96 561.945 240.552 560.585 239.736C559.247 238.897 558.182 237.741 557.389 236.268C556.618 234.772 556.233 233.083 556.233 231.202C556.233 229.321 556.618 227.655 557.389 226.204C558.182 224.753 559.247 223.631 560.585 222.838C561.945 222.022 563.441 221.614 565.073 221.614ZM571.567 231.27C571.567 229.978 571.295 228.856 570.751 227.904C570.229 226.952 569.538 226.227 568.677 225.728C567.815 225.229 566.886 224.98 565.889 224.98C564.891 224.98 563.962 225.229 563.101 225.728C562.239 226.204 561.537 226.918 560.993 227.87C560.471 228.799 560.211 229.91 560.211 231.202C560.211 232.494 560.471 233.627 560.993 234.602C561.537 235.577 562.239 236.325 563.101 236.846C563.985 237.345 564.914 237.594 565.889 237.594C566.886 237.594 567.815 237.345 568.677 236.846C569.538 236.347 570.229 235.622 570.751 234.67C571.295 233.695 571.567 232.562 571.567 231.27Z"></path><path style="fill:var(--color-illustrationInterface010)" d="M588.694 240.96C586.926 240.96 585.328 240.563 583.9 239.77C582.472 238.954 581.35 237.821 580.534 236.37C579.718 234.897 579.31 233.197 579.31 231.27C579.31 229.366 579.729 227.677 580.568 226.204C581.406 224.731 582.551 223.597 584.002 222.804C585.452 222.011 587.073 221.614 588.864 221.614C590.654 221.614 592.275 222.011 593.726 222.804C595.176 223.597 596.321 224.731 597.16 226.204C597.998 227.677 598.418 229.366 598.418 231.27C598.418 233.174 597.987 234.863 597.126 236.336C596.264 237.809 595.086 238.954 593.59 239.77C592.116 240.563 590.484 240.96 588.694 240.96ZM588.694 237.594C589.691 237.594 590.62 237.356 591.482 236.88C592.366 236.404 593.08 235.69 593.624 234.738C594.168 233.786 594.44 232.63 594.44 231.27C594.44 229.91 594.179 228.765 593.658 227.836C593.136 226.884 592.445 226.17 591.584 225.694C590.722 225.218 589.793 224.98 588.796 224.98C587.798 224.98 586.869 225.218 586.008 225.694C585.169 226.17 584.5 226.884 584.002 227.836C583.503 228.765 583.254 229.91 583.254 231.27C583.254 233.287 583.764 234.851 584.784 235.962C585.826 237.05 587.13 237.594 588.694 237.594Z"></path><path style="fill:var(--color-illustrationInterface010)" d="M606.125 224.64C606.692 223.688 607.44 222.951 608.369 222.43C609.321 221.886 610.443 221.614 611.735 221.614V225.626H610.749C609.231 225.626 608.075 226.011 607.281 226.782C606.511 227.553 606.125 228.89 606.125 230.794V240.654H602.249V221.92H606.125V224.64Z"></path><path style="fill:var(--color-illustrationInterface010)" d="M632.162 221.92L620.67 249.46H616.658L620.466 240.348L613.088 221.92H617.406L622.676 236.2L628.15 221.92H632.162Z"></path><path style="fill:var(--color-illustrationInterface010)" d="M647.795 215.494V240.654H643.919V215.494H647.795Z"></path><path style="fill:var(--color-illustrationInterface010)" d="M651.592 231.202C651.592 229.321 651.977 227.655 652.748 226.204C653.541 224.753 654.607 223.631 655.944 222.838C657.304 222.022 658.8 221.614 660.432 221.614C661.905 221.614 663.186 221.909 664.274 222.498C665.385 223.065 666.269 223.779 666.926 224.64V221.92H670.836V240.654H666.926V237.866C666.269 238.75 665.373 239.487 664.24 240.076C663.107 240.665 661.815 240.96 660.364 240.96C658.755 240.96 657.281 240.552 655.944 239.736C654.607 238.897 653.541 237.741 652.748 236.268C651.977 234.772 651.592 233.083 651.592 231.202ZM666.926 231.27C666.926 229.978 666.654 228.856 666.11 227.904C665.589 226.952 664.897 226.227 664.036 225.728C663.175 225.229 662.245 224.98 661.248 224.98C660.251 224.98 659.321 225.229 658.46 225.728C657.599 226.204 656.896 226.918 656.352 227.87C655.831 228.799 655.57 229.91 655.57 231.202C655.57 232.494 655.831 233.627 656.352 234.602C656.896 235.577 657.599 236.325 658.46 236.846C659.344 237.345 660.273 237.594 661.248 237.594C662.245 237.594 663.175 237.345 664.036 236.846C664.897 236.347 665.589 235.622 666.11 234.67C666.654 233.695 666.926 232.562 666.926 231.27Z"></path><path style="fill:var(--color-illustrationInterface010)" d="M679.803 224.708C680.46 223.801 681.356 223.065 682.489 222.498C683.645 221.909 684.926 221.614 686.331 221.614C687.986 221.614 689.482 222.011 690.819 222.804C692.156 223.597 693.21 224.731 693.981 226.204C694.752 227.655 695.137 229.321 695.137 231.202C695.137 233.083 694.752 234.772 693.981 236.268C693.21 237.741 692.145 238.897 690.785 239.736C689.448 240.552 687.963 240.96 686.331 240.96C684.88 240.96 683.588 240.677 682.455 240.11C681.344 239.543 680.46 238.818 679.803 237.934V240.654H675.927V215.494H679.803V224.708ZM691.193 231.202C691.193 229.91 690.921 228.799 690.377 227.87C689.856 226.918 689.153 226.204 688.269 225.728C687.408 225.229 686.478 224.98 685.481 224.98C684.506 224.98 683.577 225.229 682.693 225.728C681.832 226.227 681.129 226.952 680.585 227.904C680.064 228.856 679.803 229.978 679.803 231.27C679.803 232.562 680.064 233.695 680.585 234.67C681.129 235.622 681.832 236.347 682.693 236.846C683.577 237.345 684.506 237.594 685.481 237.594C686.478 237.594 687.408 237.345 688.269 236.846C689.153 236.325 689.856 235.577 690.377 234.602C690.921 233.627 691.193 232.494 691.193 231.202Z"></path><path style="fill:var(--color-illustrationInterface010)" d="M716.14 230.828C716.14 231.531 716.095 232.165 716.004 232.732H701.69C701.803 234.228 702.359 235.429 703.356 236.336C704.353 237.243 705.577 237.696 707.028 237.696C709.113 237.696 710.587 236.823 711.448 235.078H715.63C715.063 236.801 714.032 238.217 712.536 239.328C711.063 240.416 709.227 240.96 707.028 240.96C705.237 240.96 703.628 240.563 702.2 239.77C700.795 238.954 699.684 237.821 698.868 236.37C698.075 234.897 697.678 233.197 697.678 231.27C697.678 229.343 698.063 227.655 698.834 226.204C699.627 224.731 700.727 223.597 702.132 222.804C703.56 222.011 705.192 221.614 707.028 221.614C708.796 221.614 710.371 221.999 711.754 222.77C713.137 223.541 714.213 224.629 714.984 226.034C715.755 227.417 716.14 229.015 716.14 230.828ZM712.094 229.604C712.071 228.176 711.561 227.031 710.564 226.17C709.567 225.309 708.331 224.878 706.858 224.878C705.521 224.878 704.376 225.309 703.424 226.17C702.472 227.009 701.905 228.153 701.724 229.604H712.094Z"></path><path style="fill:var(--color-illustrationInterface010)" d="M723.83 215.494V240.654H719.954V215.494H723.83Z"></path></g></g><defs><filter id="nk-902" x="358.842" y="-317.613" width="772.64" height="1116.45" filterUnits="userSpaceOnUse" color-interpolation-filters="sRGB"><feFlood flood-opacity="0" result="BackgroundImageFix"></feFlood><feColorMatrix in="SourceAlpha" type="matrix" values="0 0 0 0 0 0 0 0 0 0 0 0 0 0 0 0 0 0 127 0" result="hardAlpha"></feColorMatrix><feOffset dy="14.6126"></feOffset><feGaussianBlur stdDeviation="14.6126"></feGaussianBlur><feColorMatrix type="matrix" values="0 0 0 0 0.0392157 0 0 0 0 0.0392157 0 0 0 0 0.0392157 0 0 0 0.08 0"></feColorMatrix><feBlend mode="normal" in2="BackgroundImageFix" result="effect1_dropShadow_1931_59113"></feBlend><feBlend mode="normal" in="SourceGraphic" in2="effect1_dropShadow_1931_59113" result="shape"></feBlend></filter><clipPath id="nk-901"><rect style="fill:var(--color-white)" width="1490" height="838"></rect></clipPath></defs></svg>