<svg id="components-breadcrumbs-states-base" width="1490" height="838" viewBox="0 0 1490 838" fill="none" xmlns="http://www.w3.org/2000/svg">
<g clip-path="url(#clip0_2765_83447)">
<path d="M0 0H1490V838H0V0Z" fill="var(--color-illustrationBackground020)"/>
<path d="M348.608 416.111C352.084 416.817 354.882 418.474 357.001 421.081C359.173 423.689 360.26 426.731 360.26 430.207C360.26 434.987 358.657 438.79 355.452 441.615C352.247 444.385 347.603 445.77 341.519 445.77H318.622V388.244H341.111C346.87 388.244 351.27 389.547 354.312 392.155C357.408 394.708 358.956 398.239 358.956 402.748C358.956 406.387 358.006 409.348 356.104 411.629C354.203 413.856 351.704 415.35 348.608 416.111ZM327.911 413.014H339.4C342.66 413.014 345.131 412.254 346.815 410.733C348.554 409.212 349.423 407.093 349.423 404.377C349.423 401.715 348.554 399.624 346.815 398.103C345.131 396.582 342.551 395.822 339.074 395.822H327.911V413.014ZM339.645 438.111C343.176 438.111 345.892 437.323 347.793 435.748C349.749 434.118 350.726 431.864 350.726 428.985C350.726 426.106 349.749 423.852 347.793 422.222C345.837 420.592 343.094 419.777 339.563 419.777H327.911V438.111H339.645Z" fill="#3358CC"/>
<path d="M378.281 409.674C379.802 406.74 381.975 404.432 384.799 402.748C387.624 401.009 390.883 400.14 394.577 400.14V410.244H391.807C387.733 410.244 384.446 411.249 381.948 413.259C379.503 415.214 378.281 418.474 378.281 423.037V445.77H368.992V400.873H378.281V409.674Z" fill="#3358CC"/>
<path d="M443.256 421.163C443.256 422.684 443.147 424.015 442.93 425.155H408.382C408.545 429.773 409.821 433.195 412.211 435.422C414.601 437.649 417.562 438.763 421.093 438.763C424.189 438.763 426.797 437.975 428.915 436.4C431.088 434.825 432.419 432.733 432.908 430.126H442.849C442.251 433.276 441.002 436.074 439.101 438.518C437.199 440.963 434.728 442.891 431.686 444.304C428.644 445.662 425.249 446.341 421.5 446.341C417.155 446.341 413.298 445.417 409.93 443.57C406.616 441.723 404.009 439.062 402.107 435.585C400.206 432.108 399.256 428.007 399.256 423.281C399.256 418.61 400.206 414.535 402.107 411.059C404.009 407.582 406.616 404.92 409.93 403.074C413.298 401.227 417.155 400.303 421.5 400.303C425.9 400.303 429.73 401.227 432.989 403.074C436.303 404.866 438.829 407.365 440.567 410.57C442.36 413.721 443.256 417.251 443.256 421.163ZM433.886 420.918C433.994 417.985 433.478 415.54 432.337 413.585C431.251 411.575 429.73 410.108 427.774 409.185C425.873 408.207 423.782 407.718 421.5 407.718C417.861 407.718 414.819 408.832 412.374 411.059C409.93 413.286 408.599 416.572 408.382 420.918H433.886Z" fill="#3358CC"/>
<path d="M470.233 400.303C474.307 400.303 477.783 401.308 480.662 403.318C483.541 405.328 485.578 407.99 486.774 411.303V400.873H496.063V445.77H486.774V435.341C485.578 438.654 483.541 441.316 480.662 443.326C477.783 445.336 474.307 446.341 470.233 446.341C466.321 446.341 462.818 445.417 459.721 443.57C456.679 441.723 454.289 439.062 452.551 435.585C450.813 432.108 449.943 428.007 449.943 423.281C449.943 418.61 450.813 414.535 452.551 411.059C454.289 407.582 456.679 404.92 459.721 403.074C462.818 401.227 466.321 400.303 470.233 400.303ZM473.084 408.451C468.956 408.451 465.642 409.782 463.144 412.444C460.699 415.051 459.477 418.664 459.477 423.281C459.477 427.899 460.699 431.538 463.144 434.2C465.642 436.807 468.956 438.111 473.084 438.111C475.692 438.111 478.028 437.513 480.092 436.318C482.156 435.069 483.786 433.331 484.981 431.103C486.176 428.876 486.774 426.269 486.774 423.281C486.774 420.348 486.176 417.768 484.981 415.54C483.786 413.259 482.156 411.521 480.092 410.325C478.028 409.076 475.692 408.451 473.084 408.451Z" fill="#3358CC"/>
<path d="M525.217 400.303C529.291 400.303 532.768 401.308 535.647 403.318C538.526 405.328 540.536 407.99 541.677 411.303V385.473H551.047V445.77H541.677V435.341C540.536 438.654 538.526 441.316 535.647 443.326C532.768 445.336 529.291 446.341 525.217 446.341C521.306 446.341 517.802 445.417 514.706 443.57C511.664 441.723 509.274 439.062 507.536 435.585C505.797 432.108 504.928 428.007 504.928 423.281C504.928 418.61 505.797 414.535 507.536 411.059C509.274 407.582 511.664 404.92 514.706 403.074C517.802 401.227 521.306 400.303 525.217 400.303ZM528.069 408.451C523.941 408.451 520.627 409.782 518.128 412.444C515.684 415.051 514.462 418.664 514.462 423.281C514.462 427.899 515.684 431.538 518.128 434.2C520.627 436.807 523.941 438.111 528.069 438.111C530.677 438.111 533.012 437.513 535.077 436.318C537.141 435.069 538.771 433.331 539.966 431.103C541.161 428.876 541.758 426.269 541.758 423.281C541.758 420.348 541.161 417.768 539.966 415.54C538.771 413.259 537.141 411.521 535.077 410.325C533.012 409.076 530.677 408.451 528.069 408.451Z" fill="#3358CC"/>
<path d="M582.158 400.303C587.97 400.303 592.778 401.851 596.58 404.948C600.383 407.99 602.746 412.145 603.669 417.414H593.81C593.266 414.59 591.936 412.39 589.817 410.814C587.753 409.185 585.145 408.37 581.995 408.37C578.409 408.37 575.422 409.646 573.032 412.2C570.641 414.698 569.446 418.392 569.446 423.281C569.446 428.17 570.641 431.891 573.032 434.444C575.422 436.997 578.409 438.274 581.995 438.274C585.145 438.274 587.753 437.459 589.817 435.829C591.936 434.2 593.266 431.973 593.81 429.148H603.669C602.746 434.417 600.383 438.6 596.58 441.696C592.778 444.793 587.97 446.341 582.158 446.341C577.812 446.341 573.955 445.417 570.587 443.57C567.274 441.723 564.666 439.062 562.765 435.585C560.864 432.108 559.913 428.007 559.913 423.281C559.913 418.61 560.864 414.535 562.765 411.059C564.666 407.582 567.274 404.92 570.587 403.074C573.955 401.227 577.812 400.303 582.158 400.303Z" fill="#3358CC"/>
<path d="M621.933 409.674C623.454 406.74 625.626 404.432 628.451 402.748C631.276 401.009 634.535 400.14 638.229 400.14V410.244H635.459C631.385 410.244 628.098 411.249 625.599 413.259C623.155 415.214 621.933 418.474 621.933 423.037V445.77H612.644V400.873H621.933V409.674Z" fill="#3358CC"/>
<path d="M686.582 400.873V445.77H677.211V435.992C676.071 439.306 674.088 441.886 671.263 443.733C668.438 445.526 665.152 446.422 661.404 446.422C656.189 446.422 652.006 444.738 648.856 441.37C645.705 438.002 644.13 433.195 644.13 426.948V400.873H653.419V425.97C653.419 430.044 654.451 433.195 656.515 435.422C658.579 437.595 661.404 438.681 664.989 438.681C668.683 438.681 671.643 437.486 673.871 435.096C676.098 432.706 677.211 429.229 677.211 424.666V400.873H686.582Z" fill="#3358CC"/>
<path d="M753.848 400.14C759.172 400.14 763.409 401.824 766.56 405.192C769.765 408.56 771.367 413.367 771.367 419.614V445.77H762.078V420.592C762.078 416.681 761.1 413.666 759.145 411.548C757.189 409.375 754.5 408.288 751.078 408.288C747.438 408.288 744.532 409.456 742.359 411.792C740.241 414.074 739.181 417.442 739.181 421.896V445.77H729.892V420.592C729.892 416.681 728.915 413.666 726.959 411.548C725.003 409.375 722.315 408.288 718.892 408.288C715.253 408.288 712.346 409.456 710.174 411.792C708.055 414.074 706.996 417.442 706.996 421.896V445.77H697.707V400.873H706.996V410.244C708.137 406.985 710.038 404.486 712.7 402.748C715.361 401.009 718.485 400.14 722.07 400.14C725.818 400.14 729.05 401.064 731.767 402.911C734.537 404.757 736.547 407.419 737.796 410.896C739.1 407.528 741.191 404.893 744.07 402.992C746.949 401.091 750.209 400.14 753.848 400.14Z" fill="#3358CC"/>
<path d="M807.962 400.303C811.873 400.303 815.349 401.227 818.391 403.074C821.488 404.92 823.905 407.582 825.643 411.059C827.382 414.535 828.251 418.61 828.251 423.281C828.251 428.007 827.382 432.108 825.643 435.585C823.905 439.062 821.488 441.723 818.391 443.57C815.349 445.417 811.873 446.341 807.962 446.341C803.887 446.341 800.411 445.336 797.532 443.326C794.653 441.316 792.643 438.654 791.502 435.341V445.77H782.213V385.473H791.502V411.303C792.643 407.99 794.653 405.328 797.532 403.318C800.411 401.308 803.887 400.303 807.962 400.303ZM805.11 408.451C802.502 408.451 800.166 409.076 798.102 410.325C796.038 411.521 794.408 413.259 793.213 415.54C792.018 417.768 791.421 420.348 791.421 423.281C791.421 426.269 792.018 428.876 793.213 431.103C794.408 433.331 796.038 435.069 798.102 436.318C800.166 437.513 802.502 438.111 805.11 438.111C809.238 438.111 812.552 436.807 815.051 434.2C817.549 431.538 818.799 427.899 818.799 423.281C818.799 418.718 817.549 415.106 815.051 412.444C812.552 409.782 809.238 408.451 805.11 408.451Z" fill="#3358CC"/>
<path d="M854.992 387.836C854.992 386.261 855.535 384.957 856.621 383.925C857.708 382.893 859.147 382.377 860.94 382.377C862.732 382.377 864.172 382.893 865.258 383.925C866.399 384.957 866.969 386.261 866.969 387.836C866.969 389.412 866.399 390.688 865.258 391.666C864.172 392.644 862.732 393.133 860.94 393.133C859.147 393.133 857.708 392.644 856.621 391.666C855.535 390.688 854.992 389.412 854.992 387.836ZM865.584 400.873V445.77H856.295V400.873H865.584Z" fill="#3358CC"/>
<path d="M899.396 437.704V445.77H893.692C888.912 445.77 885.272 444.63 882.773 442.348C880.329 440.012 879.107 436.155 879.107 430.778V408.777H872.669V400.873H879.107V389.71H888.477V400.873H899.314V408.777H888.477V430.941C888.477 433.494 888.939 435.259 889.862 436.237C890.84 437.215 892.524 437.704 894.914 437.704H899.396Z" fill="#3358CC"/>
<path d="M949.816 421.163C949.816 422.684 949.708 424.015 949.49 425.155H914.942C915.105 429.773 916.381 433.195 918.771 435.422C921.161 437.649 924.122 438.763 927.653 438.763C930.749 438.763 933.357 437.975 935.475 436.4C937.648 434.825 938.979 432.733 939.468 430.126H949.409C948.811 433.276 947.562 436.074 945.661 438.518C943.759 440.963 941.288 442.891 938.246 444.304C935.204 445.662 931.809 446.341 928.06 446.341C923.715 446.341 919.858 445.417 916.49 443.57C913.176 441.723 910.569 439.062 908.668 435.585C906.766 432.108 905.816 428.007 905.816 423.281C905.816 418.61 906.766 414.535 908.668 411.059C910.569 407.582 913.176 404.92 916.49 403.074C919.858 401.227 923.715 400.303 928.06 400.303C932.46 400.303 936.29 401.227 939.549 403.074C942.863 404.866 945.389 407.365 947.127 410.57C948.92 413.721 949.816 417.251 949.816 421.163ZM940.446 420.918C940.554 417.985 940.038 415.54 938.898 413.585C937.811 411.575 936.29 410.108 934.335 409.185C932.433 408.207 930.342 407.718 928.06 407.718C924.421 407.718 921.379 408.832 918.934 411.059C916.49 413.286 915.159 416.572 914.942 420.918H940.446Z" fill="#3358CC"/>
<path d="M1014.93 400.14C1020.25 400.14 1024.49 401.824 1027.64 405.192C1030.84 408.56 1032.45 413.367 1032.45 419.614V445.77H1023.16V420.592C1023.16 416.681 1022.18 413.666 1020.22 411.548C1018.27 409.375 1015.58 408.288 1012.16 408.288C1008.52 408.288 1005.61 409.456 1003.44 411.792C1001.32 414.074 1000.26 417.442 1000.26 421.896V445.77H990.971V420.592C990.971 416.681 989.993 413.666 988.037 411.548C986.082 409.375 983.393 408.288 979.97 408.288C976.331 408.288 973.425 409.456 971.252 411.792C969.133 414.074 968.074 417.442 968.074 421.896V445.77H958.785V400.873H968.074V410.244C969.215 406.985 971.116 404.486 973.778 402.748C976.439 401.009 979.563 400.14 983.148 400.14C986.896 400.14 990.129 401.064 992.845 402.911C995.615 404.757 997.625 407.419 998.874 410.896C1000.18 407.528 1002.27 404.893 1005.15 402.992C1008.03 401.091 1011.29 400.14 1014.93 400.14Z" fill="#3358CC"/>
<path d="M1134.56 445.556L1161.22 418.842L1134.56 392.127L1142.77 383.921L1177.69 418.842L1142.77 453.763L1134.56 445.556Z" fill="#5A6A79"/>
</g>
<defs>
<clipPath id="clip0_2765_83447">
<rect width="1490" height="838" fill="white"/>
</clipPath>
</defs>
</svg>
