<svg id="components-switch-states-hover" style="width: 100%; height: 100%" width="1490" height="838" viewBox="0 0 1490 838" fill="none" xmlns="http://www.w3.org/2000/svg" class="css-0"><g clip-path="url(#nk-1088)"><path style="fill:var(--color-illustrationBackground020)" d="M0 0H1490V838H0V0Z"></path><path style="fill:var(--color-illustrationInterface020)" d="M238 418.81C238 311.772 324.772 225 431.81 225V225C538.849 225 625.621 311.772 625.621 418.81V418.81C625.621 525.849 538.849 612.621 431.81 612.621V612.621C324.772 612.621 238 525.849 238 418.81V418.81Z"></path><rect style="fill:var(--color-illustrationAnatomySubtle)" x="296" y="283" width="509.984" height="272" rx="136"></rect><g clip-path="url(#nk-1089)"><rect style="fill:var(--color-interface010)" width="203.994" height="203.994" transform="translate(329.999 317.006)"></rect></g><path style="fill:var(--color-interface010)" d="M729.486 371.489L717.502 359.504L669.988 407.017L622.475 359.504L610.49 371.489L658.004 419.002L610.49 466.516L622.475 478.5L669.988 430.987L717.502 478.5L729.486 466.516L681.973 419.002L729.486 371.489Z"></path><g filter="url(#nk-1090)"><path style="fill:var(--color-white)" fill-rule="evenodd" clip-rule="evenodd" d="M412.177 549L405.472 538.755C400.894 531.76 391.142 529.208 383.682 533.043L385.42 532.149C383.569 533.101 382.681 535.474 383.444 537.446L392.725 561.459C394.196 565.265 397.954 570.649 401.068 573.354C401.068 573.354 419.739 588.808 419.739 594.602V601.938H449.989H458.261H465.114H472.677V594.602C472.677 588.808 484.087 570.558 484.087 570.558C486.188 567.011 487.939 560.761 487.939 556.612V526.099C487.802 519.344 482.059 513.869 474.974 513.869C471.429 513.869 468.558 516.606 468.558 519.986V522.43C468.558 515.674 462.815 510.199 455.729 510.199C452.185 510.199 449.313 512.937 449.313 516.316V518.76C449.313 512.005 443.571 506.53 436.485 506.53C432.94 506.53 430.069 509.267 430.069 512.647V515.091C430.069 514.005 429.953 513.142 429.729 512.458L427.772 480.947C427.507 476.686 423.916 473.375 419.739 473.375C415.533 473.375 412.177 476.76 412.177 480.936V511.188V549Z"></path><path style="fill:var(--color-black)" fill-rule="evenodd" clip-rule="evenodd" d="M385.476 532.256C391.48 530.059 398.502 531.581 403.102 535.926C403.99 536.766 404.789 537.71 405.472 538.754L412.177 548.999V480.935C412.177 476.759 415.533 473.374 419.739 473.374C423.916 473.374 427.507 476.684 427.772 480.946L429.729 512.457C429.749 512.518 429.768 512.581 429.787 512.646C429.973 513.298 430.069 514.101 430.069 515.089V512.646C430.069 512.575 430.07 512.505 430.073 512.435C430.074 512.404 430.075 512.374 430.077 512.343C430.242 509.104 433.047 506.528 436.485 506.528C437.158 506.528 437.818 506.578 438.462 506.673C439.981 506.897 441.412 507.375 442.706 508.06C445.93 509.767 448.302 512.761 449.057 516.315C449.225 517.105 449.313 517.922 449.313 518.759V516.315C449.313 512.935 452.185 510.198 455.729 510.198C456.014 510.198 456.297 510.207 456.577 510.224C458.518 510.345 460.34 510.877 461.95 511.729C465.175 513.437 467.546 516.431 468.301 519.985C468.469 520.774 468.558 521.592 468.558 522.429V519.985C468.558 516.605 471.429 513.868 474.974 513.868C475.258 513.868 475.541 513.876 475.822 513.894C482.512 514.31 487.807 519.614 487.938 526.098V556.611C487.938 560.76 486.188 567.01 484.087 570.557C484.087 570.557 472.677 588.807 472.677 594.601V601.936H419.739V594.601C419.739 588.807 401.068 573.352 401.068 573.352C397.954 570.648 394.196 565.264 392.725 561.457L383.444 537.444C382.935 536.128 383.161 534.633 383.919 533.502C384.177 533.116 384.497 532.772 384.871 532.492C385.072 532.409 385.273 532.331 385.476 532.256ZM383.682 533.042C384.073 532.841 384.469 532.658 384.871 532.492C385.043 532.363 385.226 532.248 385.42 532.148L383.682 533.042ZM379.6 525.101C374.742 528.608 372.813 535.113 374.979 540.716L384.26 564.729C386.259 569.901 390.874 576.519 395.117 580.204L395.198 580.275L395.28 580.342L395.281 580.343L395.314 580.371L395.449 580.483C395.57 580.585 395.755 580.74 395.993 580.943C396.47 581.348 397.161 581.941 397.992 582.672C399.665 584.143 401.866 586.137 404.042 588.276C406.258 590.454 408.259 592.598 409.643 594.388C410.119 595.003 410.448 595.484 410.664 595.831V611.011H481.752V594.756C481.752 594.794 481.754 594.814 481.759 594.814C481.79 594.819 481.957 593.966 482.816 591.939C483.727 589.788 485.004 587.245 486.369 584.716C487.718 582.215 489.078 579.865 490.107 578.133C490.62 577.27 491.045 576.568 491.34 576.086C491.487 575.846 491.601 575.66 491.677 575.538L491.76 575.403L491.782 575.368L491.84 575.275L491.896 575.181C493.481 572.504 494.71 569.246 495.545 566.235C496.379 563.23 497.013 559.774 497.013 556.611V526.006L497.012 525.914C496.769 513.928 486.702 504.793 474.974 504.793C473.052 504.793 471.175 505.149 469.428 505.809C465.62 502.852 460.813 501.123 455.729 501.123C453.808 501.123 451.93 501.479 450.184 502.139C446.729 499.457 442.452 497.785 437.892 497.498L436.829 480.383C436.266 471.305 428.677 464.299 419.739 464.299C410.5 464.299 403.102 471.768 403.102 480.935V524.987C396.42 521.66 388.38 521.186 381.306 524.146M410.972 596.394C410.97 596.394 410.954 596.361 410.93 596.298C410.962 596.364 410.974 596.395 410.972 596.394ZM379.6 525.101L379.533 524.971L381.271 524.077"></path></g><path style="fill:var(--color-illustrationHighlight010)" d="M868.359 455.381H900.021V467.786H853V374.068H868.359V455.381Z"></path><path style="fill:var(--color-illustrationHighlight010)" d="M907.746 430.299C907.746 422.838 909.272 416.23 912.326 410.477C915.47 404.723 919.692 400.273 924.991 397.127C930.38 393.891 936.308 392.272 942.775 392.272C948.614 392.272 953.688 393.441 958 395.778C962.401 398.026 965.904 400.858 968.509 404.274V393.486H984.003V467.786H968.509V456.729C965.904 460.235 962.356 463.157 957.865 465.494C953.374 467.831 948.254 469 942.506 469C936.129 469 930.29 467.382 924.991 464.146C919.692 460.819 915.47 456.235 912.326 450.391C909.272 444.458 907.746 437.761 907.746 430.299ZM968.509 430.569C968.509 425.445 967.431 420.995 965.275 417.219C963.209 413.443 960.47 410.567 957.057 408.589C953.643 406.611 949.961 405.622 946.009 405.622C942.057 405.622 938.374 406.611 934.961 408.589C931.548 410.477 928.763 413.308 926.608 417.084C924.542 420.77 923.509 425.175 923.509 430.299C923.509 435.423 924.542 439.918 926.608 443.784C928.763 447.649 931.548 450.616 934.961 452.684C938.464 454.661 942.147 455.65 946.009 455.65C949.961 455.65 953.643 454.661 957.057 452.684C960.47 450.706 963.209 447.829 965.275 444.053C967.431 440.188 968.509 435.693 968.509 430.569Z"></path><path style="fill:var(--color-illustrationHighlight010)" d="M1019.54 404.543C1022.14 400.947 1025.69 398.026 1030.18 395.778C1034.76 393.441 1039.83 392.272 1045.4 392.272C1051.96 392.272 1057.89 393.846 1063.19 396.992C1068.49 400.138 1072.66 404.633 1075.72 410.477C1078.77 416.23 1080.3 422.838 1080.3 430.299C1080.3 437.761 1078.77 444.458 1075.72 450.391C1072.66 456.235 1068.44 460.819 1063.05 464.146C1057.75 467.382 1051.87 469 1045.4 469C1039.66 469 1034.54 467.876 1030.04 465.629C1025.64 463.381 1022.14 460.505 1019.54 456.999V467.786H1004.18V368H1019.54V404.543ZM1064.67 430.299C1064.67 425.175 1063.59 420.77 1061.44 417.084C1059.37 413.308 1056.59 410.477 1053.08 408.589C1049.67 406.611 1045.99 405.622 1042.04 405.622C1038.17 405.622 1034.49 406.611 1030.99 408.589C1027.57 410.567 1024.79 413.443 1022.63 417.219C1020.57 420.995 1019.54 425.445 1019.54 430.569C1019.54 435.693 1020.57 440.188 1022.63 444.053C1024.79 447.829 1027.57 450.706 1030.99 452.684C1034.49 454.661 1038.17 455.65 1042.04 455.65C1045.99 455.65 1049.67 454.661 1053.08 452.684C1056.59 450.616 1059.37 447.649 1061.44 443.784C1063.59 439.918 1064.67 435.423 1064.67 430.299Z"></path><path style="fill:var(--color-illustrationHighlight010)" d="M1163.53 428.816C1163.53 431.603 1163.35 434.12 1162.99 436.367H1106.27C1106.71 442.3 1108.92 447.065 1112.87 450.661C1116.82 454.257 1121.67 456.055 1127.42 456.055C1135.68 456.055 1141.52 452.594 1144.93 445.672H1161.5C1159.26 452.504 1155.17 458.122 1149.24 462.527C1143.41 466.842 1136.13 469 1127.42 469C1120.32 469 1113.95 467.427 1108.29 464.28C1102.72 461.044 1098.32 456.549 1095.08 450.796C1091.94 444.952 1090.37 438.21 1090.37 430.569C1090.37 422.927 1091.89 416.23 1094.95 410.477C1098.09 404.633 1102.45 400.138 1108.02 396.992C1113.68 393.846 1120.14 392.272 1127.42 392.272C1134.42 392.272 1140.67 393.801 1146.15 396.857C1151.62 399.914 1155.89 404.229 1158.94 409.802C1162 415.286 1163.53 421.624 1163.53 428.816ZM1147.49 423.961C1147.4 418.298 1145.38 413.758 1141.43 410.342C1137.48 406.926 1132.58 405.218 1126.74 405.218C1121.45 405.218 1116.91 406.926 1113.14 410.342C1109.36 413.668 1107.12 418.208 1106.4 423.961H1147.49Z"></path><path style="fill:var(--color-illustrationHighlight010)" d="M1194 368V467.786H1178.64V368H1194Z"></path></g><defs><filter id="nk-1090" x="276.872" y="409.436" width="316.257" height="316.257" filterUnits="userSpaceOnUse" color-interpolation-filters="sRGB"><feFlood flood-opacity="0" result="BackgroundImageFix"></feFlood><feColorMatrix in="SourceAlpha" type="matrix" values="0 0 0 0 0 0 0 0 0 0 0 0 0 0 0 0 0 0 127 0" result="hardAlpha"></feColorMatrix><feOffset dy="18.5642"></feOffset><feGaussianBlur stdDeviation="18.5642"></feGaussianBlur><feColorMatrix type="matrix" values="0 0 0 0 0.0392157 0 0 0 0 0.0392157 0 0 0 0 0.0392157 0 0 0 0.08 0"></feColorMatrix><feBlend mode="normal" in2="BackgroundImageFix" result="effect1_dropShadow_2040_72729"></feBlend><feBlend mode="normal" in="SourceGraphic" in2="effect1_dropShadow_2040_72729" result="shape"></feBlend></filter><clipPath id="nk-1088"><rect style="fill:var(--color-white)" width="1490" height="838"></rect></clipPath><clipPath id="nk-1089"><rect style="fill:var(--color-white)" x="329.999" y="317.006" width="203.994" height="203.994" rx="101.997"></rect></clipPath></defs></svg>