<svg id="nksvg" width="1490" height="838" viewBox="0 0 1490 838" fill="none" xmlns="http://www.w3.org/2000/svg">
<g clip-path="url(#clip0_969_137260)">
<rect width="1490" height="838" fill="var(--color-illustrationBackground010)"/>
<path d="M391 419.5C391 355.711 442.711 304 506.5 304H983.5C1047.29 304 1099 355.711 1099 419.5C1099 483.289 1047.29 535 983.5 535H506.5C442.711 535 391 483.289 391 419.5Z" fill="white"/>
<path d="M654.81 395.35V411.1H675.96V421.09H654.81V437.74H678.66V448H642.21V385.09H678.66V395.35H654.81Z" fill="#8883F6"/>
<path d="M717.65 448L707.39 432.52L698.3 448H684.8L701.09 422.98L684.62 398.14H698.84L709.01 413.53L718.19 398.14H731.69L715.31 422.98L731.87 448H717.65Z" fill="#8883F6"/>
<path d="M751.314 405.34C752.934 403.06 755.154 401.17 757.974 399.67C760.854 398.11 764.124 397.33 767.784 397.33C772.044 397.33 775.884 398.38 779.304 400.48C782.784 402.58 785.514 405.58 787.494 409.48C789.534 413.32 790.554 417.79 790.554 422.89C790.554 427.99 789.534 432.52 787.494 436.48C785.514 440.38 782.784 443.41 779.304 445.57C775.884 447.73 772.044 448.81 767.784 448.81C764.124 448.81 760.884 448.06 758.064 446.56C755.304 445.06 753.054 443.17 751.314 440.89V471.76H738.714V398.14H751.314V405.34ZM777.684 422.89C777.684 419.89 777.054 417.31 775.794 415.15C774.594 412.93 772.974 411.25 770.934 410.11C768.954 408.97 766.794 408.4 764.454 408.4C762.174 408.4 760.014 409 757.974 410.2C755.994 411.34 754.374 413.02 753.114 415.24C751.914 417.46 751.314 420.07 751.314 423.07C751.314 426.07 751.914 428.68 753.114 430.9C754.374 433.12 755.994 434.83 757.974 436.03C760.014 437.17 762.174 437.74 764.454 437.74C766.794 437.74 768.954 437.14 770.934 435.94C772.974 434.74 774.594 433.03 775.794 430.81C777.054 428.59 777.684 425.95 777.684 422.89Z" fill="#8883F6"/>
<path d="M796.47 422.89C796.47 417.85 797.46 413.38 799.44 409.48C801.48 405.58 804.21 402.58 807.63 400.48C811.11 398.38 814.98 397.33 819.24 397.33C822.96 397.33 826.2 398.08 828.96 399.58C831.78 401.08 834.03 402.97 835.71 405.25V398.14H848.4V448H835.71V440.71C834.09 443.05 831.84 445 828.96 446.56C826.14 448.06 822.87 448.81 819.15 448.81C814.95 448.81 811.11 447.73 807.63 445.57C804.21 443.41 801.48 440.38 799.44 436.48C797.46 432.52 796.47 427.99 796.47 422.89ZM835.71 423.07C835.71 420.01 835.11 417.4 833.91 415.24C832.71 413.02 831.09 411.34 829.05 410.2C827.01 409 824.82 408.4 822.48 408.4C820.14 408.4 817.98 408.97 816 410.11C814.02 411.25 812.4 412.93 811.14 415.15C809.94 417.31 809.34 419.89 809.34 422.89C809.34 425.89 809.94 428.53 811.14 430.81C812.4 433.03 814.02 434.74 816 435.94C818.04 437.14 820.2 437.74 822.48 437.74C824.82 437.74 827.01 437.17 829.05 436.03C831.09 434.83 832.71 433.15 833.91 430.99C835.11 428.77 835.71 426.13 835.71 423.07Z" fill="#8883F6"/>
<path d="M888.336 397.42C894.276 397.42 899.076 399.31 902.736 403.09C906.396 406.81 908.226 412.03 908.226 418.75V448H895.626V420.46C895.626 416.5 894.636 413.47 892.656 411.37C890.676 409.21 887.976 408.13 884.556 408.13C881.076 408.13 878.316 409.21 876.276 411.37C874.296 413.47 873.306 416.5 873.306 420.46V448H860.706V398.14H873.306V404.35C874.986 402.19 877.116 400.51 879.696 399.31C882.336 398.05 885.216 397.42 888.336 397.42Z" fill="#8883F6"/>
<path d="M916.968 422.89C916.968 417.85 917.958 413.38 919.938 409.48C921.978 405.58 924.738 402.58 928.218 400.48C931.698 398.38 935.568 397.33 939.828 397.33C943.068 397.33 946.158 398.05 949.098 399.49C952.038 400.87 954.378 402.73 956.118 405.07V381.4H968.898V448H956.118V440.62C954.558 443.08 952.368 445.06 949.548 446.56C946.728 448.06 943.458 448.81 939.738 448.81C935.538 448.81 931.698 447.73 928.218 445.57C924.738 443.41 921.978 440.38 919.938 436.48C917.958 432.52 916.968 427.99 916.968 422.89ZM956.208 423.07C956.208 420.01 955.608 417.4 954.408 415.24C953.208 413.02 951.588 411.34 949.548 410.2C947.508 409 945.318 408.4 942.978 408.4C940.638 408.4 938.478 408.97 936.498 410.11C934.518 411.25 932.898 412.93 931.638 415.15C930.438 417.31 929.838 419.89 929.838 422.89C929.838 425.89 930.438 428.53 931.638 430.81C932.898 433.03 934.518 434.74 936.498 435.94C938.538 437.14 940.698 437.74 942.978 437.74C945.318 437.74 947.508 437.17 949.548 436.03C951.588 434.83 953.208 433.15 954.408 430.99C955.608 428.77 956.208 426.13 956.208 423.07Z" fill="#8883F6"/>
<path d="M499.333 416L506.148 422.815L533.167 395.845V454.667H542.833V395.845L569.803 422.863L576.667 416L538 377.333L499.333 416Z" fill="#8883F6"/>
</g>
<defs>
<clipPath id="clip0_969_137260">
<rect width="1490" height="838" fill="white"/>
</clipPath>
</defs>
</svg>
