<svg id="nksvg" width="1490" height="838" viewBox="0 0 1490 838" fill="none" xmlns="http://www.w3.org/2000/svg">
<g clip-path="url(#clip0_969_137267)">
<path d="M0 0H1490V838H0V0Z" fill="var(--color-illustrationBackground010)"/>
<path d="M379.855 455.15L359.065 418.43H350.155V455.15H331.255V360.92H366.625C373.915 360.92 380.125 362.225 385.255 364.835C390.385 367.355 394.21 370.82 396.73 375.23C399.34 379.55 400.645 384.41 400.645 389.81C400.645 396.02 398.845 401.645 395.245 406.685C391.645 411.635 386.29 415.055 379.18 416.945L401.725 455.15H379.855ZM350.155 404.255H365.95C371.08 404.255 374.905 403.04 377.425 400.61C379.945 398.09 381.205 394.625 381.205 390.215C381.205 385.895 379.945 382.565 377.425 380.225C374.905 377.795 371.08 376.58 365.95 376.58H350.155V404.255Z" fill="#DEE2E5"/>
<path d="M487.265 416.135C487.265 418.835 487.085 421.265 486.725 423.425H432.05C432.5 428.825 434.39 433.055 437.72 436.115C441.05 439.175 445.145 440.705 450.005 440.705C457.025 440.705 462.02 437.69 464.99 431.66H485.375C483.215 438.86 479.075 444.8 472.955 449.48C466.835 454.07 459.32 456.365 450.41 456.365C443.21 456.365 436.73 454.79 430.97 451.64C425.3 448.4 420.845 443.855 417.605 438.005C414.455 432.155 412.88 425.405 412.88 417.755C412.88 410.015 414.455 403.22 417.605 397.37C420.755 391.52 425.165 387.02 430.835 383.87C436.505 380.72 443.03 379.145 450.41 379.145C457.52 379.145 463.865 380.675 469.445 383.735C475.115 386.795 479.48 391.16 482.54 396.83C485.69 402.41 487.265 408.845 487.265 416.135ZM467.69 410.735C467.6 405.875 465.845 402.005 462.425 399.125C459.005 396.155 454.82 394.67 449.87 394.67C445.19 394.67 441.23 396.11 437.99 398.99C434.84 401.78 432.905 405.695 432.185 410.735H467.69Z" fill="#DEE2E5"/>
<path d="M496.2 417.485C496.2 409.925 497.685 403.22 500.655 397.37C503.715 391.52 507.81 387.02 512.94 383.87C518.16 380.72 523.965 379.145 530.355 379.145C535.935 379.145 540.795 380.27 544.935 382.52C549.165 384.77 552.54 387.605 555.06 391.025V380.36H574.095V455.15H555.06V444.215C552.63 447.725 549.255 450.65 544.935 452.99C540.705 455.24 535.8 456.365 530.22 456.365C523.92 456.365 518.16 454.745 512.94 451.505C507.81 448.265 503.715 443.72 500.655 437.87C497.685 431.93 496.2 425.135 496.2 417.485ZM555.06 417.755C555.06 413.165 554.16 409.25 552.36 406.01C550.56 402.68 548.13 400.16 545.07 398.45C542.01 396.65 538.725 395.75 535.215 395.75C531.705 395.75 528.465 396.605 525.495 398.315C522.525 400.025 520.095 402.545 518.205 405.875C516.405 409.115 515.505 412.985 515.505 417.485C515.505 421.985 516.405 425.945 518.205 429.365C520.095 432.695 522.525 435.26 525.495 437.06C528.555 438.86 531.795 439.76 535.215 439.76C538.725 439.76 542.01 438.905 545.07 437.195C548.13 435.395 550.56 432.875 552.36 429.635C554.16 426.305 555.06 422.345 555.06 417.755Z" fill="#DEE2E5"/>
<path d="M587.694 417.485C587.694 409.925 589.179 403.22 592.149 397.37C595.209 391.52 599.349 387.02 604.569 383.87C609.789 380.72 615.594 379.145 621.984 379.145C626.844 379.145 631.479 380.225 635.889 382.385C640.299 384.455 643.809 387.245 646.419 390.755V355.25H665.589V455.15H646.419V444.08C644.079 447.77 640.794 450.74 636.564 452.99C632.334 455.24 627.429 456.365 621.849 456.365C615.549 456.365 609.789 454.745 604.569 451.505C599.349 448.265 595.209 443.72 592.149 437.87C589.179 431.93 587.694 425.135 587.694 417.485ZM646.554 417.755C646.554 413.165 645.654 409.25 643.854 406.01C642.054 402.68 639.624 400.16 636.564 398.45C633.504 396.65 630.219 395.75 626.709 395.75C623.199 395.75 619.959 396.605 616.989 398.315C614.019 400.025 611.589 402.545 609.699 405.875C607.899 409.115 606.999 412.985 606.999 417.485C606.999 421.985 607.899 425.945 609.699 429.365C611.589 432.695 614.019 435.26 616.989 437.06C620.049 438.86 623.289 439.76 626.709 439.76C630.219 439.76 633.504 438.905 636.564 437.195C639.624 435.395 642.054 432.875 643.854 429.635C645.654 426.305 646.554 422.345 646.554 417.755Z" fill="#DEE2E5"/>
<path d="M809.096 379.28C818.276 379.28 825.656 382.115 831.236 387.785C836.906 393.365 839.741 401.195 839.741 411.275V455.15H820.841V413.84C820.841 407.99 819.356 403.535 816.386 400.475C813.416 397.325 809.366 395.75 804.236 395.75C799.106 395.75 795.011 397.325 791.951 400.475C788.981 403.535 787.496 407.99 787.496 413.84V455.15H768.596V413.84C768.596 407.99 767.111 403.535 764.141 400.475C761.171 397.325 757.121 395.75 751.991 395.75C746.771 395.75 742.631 397.325 739.571 400.475C736.601 403.535 735.116 407.99 735.116 413.84V455.15H716.216V380.36H735.116V389.405C737.546 386.255 740.651 383.78 744.431 381.98C748.301 380.18 752.531 379.28 757.121 379.28C762.971 379.28 768.191 380.54 772.781 383.06C777.371 385.49 780.926 389 783.446 393.59C785.876 389.27 789.386 385.805 793.976 383.195C798.656 380.585 803.696 379.28 809.096 379.28Z" fill="#DEE2E5"/>
<path d="M890.886 456.365C883.686 456.365 877.206 454.79 871.446 451.64C865.686 448.4 861.141 443.855 857.811 438.005C854.571 432.155 852.951 425.405 852.951 417.755C852.951 410.105 854.616 403.355 857.946 397.505C861.366 391.655 866.001 387.155 871.851 384.005C877.701 380.765 884.226 379.145 891.426 379.145C898.626 379.145 905.151 380.765 911.001 384.005C916.851 387.155 921.441 391.655 924.771 397.505C928.191 403.355 929.901 410.105 929.901 417.755C929.901 425.405 928.146 432.155 924.636 438.005C921.216 443.855 916.536 448.4 910.596 451.64C904.746 454.79 898.176 456.365 890.886 456.365ZM890.886 439.895C894.306 439.895 897.501 439.085 900.471 437.465C903.531 435.755 905.961 433.235 907.761 429.905C909.561 426.575 910.461 422.525 910.461 417.755C910.461 410.645 908.571 405.2 904.791 401.42C901.101 397.55 896.556 395.615 891.156 395.615C885.756 395.615 881.211 397.55 877.521 401.42C873.921 405.2 872.121 410.645 872.121 417.755C872.121 424.865 873.876 430.355 877.386 434.225C880.986 438.005 885.486 439.895 890.886 439.895Z" fill="#DEE2E5"/>
<path d="M962.665 391.97C965.095 388.01 968.245 384.905 972.115 382.655C976.075 380.405 980.575 379.28 985.615 379.28V399.125H980.62C974.68 399.125 970.18 400.52 967.12 403.31C964.15 406.1 962.665 410.96 962.665 417.89V455.15H943.765V380.36H962.665V391.97Z" fill="#DEE2E5"/>
<path d="M1067.87 416.135C1067.87 418.835 1067.69 421.265 1067.33 423.425H1012.66C1013.11 428.825 1015 433.055 1018.33 436.115C1021.66 439.175 1025.75 440.705 1030.61 440.705C1037.63 440.705 1042.63 437.69 1045.6 431.66H1065.98C1063.82 438.86 1059.68 444.8 1053.56 449.48C1047.44 454.07 1039.93 456.365 1031.02 456.365C1023.82 456.365 1017.34 454.79 1011.58 451.64C1005.91 448.4 1001.45 443.855 998.21 438.005C995.06 432.155 993.485 425.405 993.485 417.755C993.485 410.015 995.06 403.22 998.21 397.37C1001.36 391.52 1005.77 387.02 1011.44 383.87C1017.11 380.72 1023.64 379.145 1031.02 379.145C1038.13 379.145 1044.47 380.675 1050.05 383.735C1055.72 386.795 1060.09 391.16 1063.15 396.83C1066.3 402.41 1067.87 408.845 1067.87 416.135ZM1048.3 410.735C1048.21 405.875 1046.45 402.005 1043.03 399.125C1039.61 396.155 1035.43 394.67 1030.48 394.67C1025.8 394.67 1021.84 396.11 1018.6 398.99C1015.45 401.78 1013.51 405.695 1012.79 410.735H1048.3Z" fill="#DEE2E5"/>
<path d="M1137.58 368.5L1125.72 380.367L1164.26 419L1125.72 457.632L1137.58 469.5L1188.08 419L1137.58 368.5Z" fill="#DEE2E5"/>
<path fill-rule="evenodd" clip-rule="evenodd" d="M267 418.985C267 416.784 268.784 415 270.985 415H273.62C275.821 415 277.605 416.784 277.605 418.985C277.605 421.186 275.821 422.97 273.62 422.97H270.985C268.784 422.97 267 421.186 267 418.985ZM290.711 418.985C290.711 416.784 292.495 415 294.696 415H299.965C302.166 415 303.95 416.784 303.95 418.985C303.95 421.186 302.166 422.97 299.965 422.97H294.696C292.495 422.97 290.711 421.186 290.711 418.985ZM317.057 418.985C317.057 416.784 318.841 415 321.042 415H326.311C328.512 415 330.296 416.784 330.296 418.985C330.296 421.186 328.512 422.97 326.311 422.97H321.042C318.841 422.97 317.057 421.186 317.057 418.985ZM343.403 418.985C343.403 416.784 345.187 415 347.388 415H352.657C354.858 415 356.642 416.784 356.642 418.985C356.642 421.186 354.858 422.97 352.657 422.97H347.388C345.187 422.97 343.403 421.186 343.403 418.985ZM369.749 418.985C369.749 416.784 371.533 415 373.734 415H379.003C381.204 415 382.988 416.784 382.988 418.985C382.988 421.186 381.204 422.97 379.003 422.97H373.734C371.533 422.97 369.749 421.186 369.749 418.985ZM396.094 418.985C396.094 416.784 397.878 415 400.079 415H405.349C407.549 415 409.334 416.784 409.334 418.985C409.334 421.186 407.549 422.97 405.349 422.97H400.079C397.878 422.97 396.094 421.186 396.094 418.985ZM422.44 418.985C422.44 416.784 424.224 415 426.425 415H431.694C433.895 415 435.679 416.784 435.679 418.985C435.679 421.186 433.895 422.97 431.694 422.97H426.425C424.224 422.97 422.44 421.186 422.44 418.985ZM448.786 418.985C448.786 416.784 450.57 415 452.771 415H458.04C460.241 415 462.025 416.784 462.025 418.985C462.025 421.186 460.241 422.97 458.04 422.97H452.771C450.57 422.97 448.786 421.186 448.786 418.985ZM475.132 418.985C475.132 416.784 476.916 415 479.117 415H484.386C486.587 415 488.371 416.784 488.371 418.985C488.371 421.186 486.587 422.97 484.386 422.97H479.117C476.916 422.97 475.132 421.186 475.132 418.985ZM501.477 418.985C501.477 416.784 503.262 415 505.462 415H510.732C512.932 415 514.717 416.784 514.717 418.985C514.717 421.186 512.932 422.97 510.732 422.97H505.462C503.262 422.97 501.477 421.186 501.477 418.985ZM527.823 418.985C527.823 416.784 529.607 415 531.808 415H537.077C539.278 415 541.062 416.784 541.062 418.985C541.062 421.186 539.278 422.97 537.077 422.97H531.808C529.607 422.97 527.823 421.186 527.823 418.985ZM554.169 418.985C554.169 416.784 555.953 415 558.154 415H563.423C565.624 415 567.408 416.784 567.408 418.985C567.408 421.186 565.624 422.97 563.423 422.97H558.154C555.953 422.97 554.169 421.186 554.169 418.985ZM580.515 418.985C580.515 416.784 582.299 415 584.5 415H589.769C591.97 415 593.754 416.784 593.754 418.985C593.754 421.186 591.97 422.97 589.769 422.97H584.5C582.299 422.97 580.515 421.186 580.515 418.985ZM606.861 418.985C606.861 416.784 608.645 415 610.846 415H616.115C618.316 415 620.1 416.784 620.1 418.985C620.1 421.186 618.316 422.97 616.115 422.97H610.846C608.645 422.97 606.861 421.186 606.861 418.985ZM633.206 418.985C633.206 416.784 634.99 415 637.191 415H642.461C644.661 415 646.446 416.784 646.446 418.985C646.446 421.186 644.661 422.97 642.461 422.97H637.191C634.99 422.97 633.206 421.186 633.206 418.985ZM659.552 418.985C659.552 416.784 661.336 415 663.537 415H668.806C671.007 415 672.791 416.784 672.791 418.985C672.791 421.186 671.007 422.97 668.806 422.97H663.537C661.336 422.97 659.552 421.186 659.552 418.985ZM685.898 418.985C685.898 416.784 687.682 415 689.883 415H695.152C697.353 415 699.137 416.784 699.137 418.985C699.137 421.186 697.353 422.97 695.152 422.97H689.883C687.682 422.97 685.898 421.186 685.898 418.985ZM712.244 418.985C712.244 416.784 714.028 415 716.229 415H721.498C723.699 415 725.483 416.784 725.483 418.985C725.483 421.186 723.699 422.97 721.498 422.97H716.229C714.028 422.97 712.244 421.186 712.244 418.985ZM738.589 418.985C738.589 416.784 740.374 415 742.575 415H747.844C750.045 415 751.829 416.784 751.829 418.985C751.829 421.186 750.045 422.97 747.844 422.97H742.575C740.374 422.97 738.589 421.186 738.589 418.985ZM764.935 418.985C764.935 416.784 766.719 415 768.92 415H774.189C776.39 415 778.175 416.784 778.175 418.985C778.175 421.186 776.39 422.97 774.189 422.97H768.92C766.719 422.97 764.935 421.186 764.935 418.985ZM791.281 418.985C791.281 416.784 793.065 415 795.266 415H800.535C802.736 415 804.52 416.784 804.52 418.985C804.52 421.186 802.736 422.97 800.535 422.97H795.266C793.065 422.97 791.281 421.186 791.281 418.985ZM817.627 418.985C817.627 416.784 819.411 415 821.612 415H826.881C829.082 415 830.866 416.784 830.866 418.985C830.866 421.186 829.082 422.97 826.881 422.97H821.612C819.411 422.97 817.627 421.186 817.627 418.985ZM843.973 418.985C843.973 416.784 845.757 415 847.958 415H853.227C855.428 415 857.212 416.784 857.212 418.985C857.212 421.186 855.428 422.97 853.227 422.97H847.958C845.757 422.97 843.973 421.186 843.973 418.985ZM870.318 418.985C870.318 416.784 872.102 415 874.303 415H879.573C881.773 415 883.558 416.784 883.558 418.985C883.558 421.186 881.773 422.97 879.573 422.97H874.303C872.102 422.97 870.318 421.186 870.318 418.985ZM896.664 418.985C896.664 416.784 898.448 415 900.649 415H905.918C908.119 415 909.903 416.784 909.903 418.985C909.903 421.186 908.119 422.97 905.918 422.97H900.649C898.448 422.97 896.664 421.186 896.664 418.985ZM923.01 418.985C923.01 416.784 924.794 415 926.995 415H932.264C934.465 415 936.249 416.784 936.249 418.985C936.249 421.186 934.465 422.97 932.264 422.97H926.995C924.794 422.97 923.01 421.186 923.01 418.985ZM949.356 418.985C949.356 416.784 951.14 415 953.341 415H958.61C960.811 415 962.595 416.784 962.595 418.985C962.595 421.186 960.811 422.97 958.61 422.97H953.341C951.14 422.97 949.356 421.186 949.356 418.985ZM975.701 418.985C975.701 416.784 977.486 415 979.686 415H984.956C987.156 415 988.941 416.784 988.941 418.985C988.941 421.186 987.156 422.97 984.956 422.97H979.686C977.486 422.97 975.701 421.186 975.701 418.985ZM1002.05 418.985C1002.05 416.784 1003.83 415 1006.03 415H1011.3C1013.5 415 1015.29 416.784 1015.29 418.985C1015.29 421.186 1013.5 422.97 1011.3 422.97H1006.03C1003.83 422.97 1002.05 421.186 1002.05 418.985ZM1028.39 418.985C1028.39 416.784 1030.18 415 1032.38 415H1037.65C1039.85 415 1041.63 416.784 1041.63 418.985C1041.63 421.186 1039.85 422.97 1037.65 422.97H1032.38C1030.18 422.97 1028.39 421.186 1028.39 418.985ZM1054.74 418.985C1054.74 416.784 1056.52 415 1058.72 415H1063.99C1066.19 415 1067.98 416.784 1067.98 418.985C1067.98 421.186 1066.19 422.97 1063.99 422.97H1058.72C1056.52 422.97 1054.74 421.186 1054.74 418.985ZM1081.08 418.985C1081.08 416.784 1082.87 415 1085.07 415H1090.34C1092.54 415 1094.32 416.784 1094.32 418.985C1094.32 421.186 1092.54 422.97 1090.34 422.97H1085.07C1082.87 422.97 1081.08 421.186 1081.08 418.985ZM1107.43 418.985C1107.43 416.784 1109.21 415 1111.42 415H1116.68C1118.89 415 1120.67 416.784 1120.67 418.985C1120.67 421.186 1118.89 422.97 1116.68 422.97H1111.42C1109.21 422.97 1107.43 421.186 1107.43 418.985ZM1133.78 418.985C1133.78 416.784 1135.56 415 1137.76 415H1143.03C1145.23 415 1147.02 416.784 1147.02 418.985C1147.02 421.186 1145.23 422.97 1143.03 422.97H1137.76C1135.56 422.97 1133.78 421.186 1133.78 418.985ZM1160.12 418.985C1160.12 416.784 1161.91 415 1164.11 415H1169.38C1171.58 415 1173.36 416.784 1173.36 418.985C1173.36 421.186 1171.58 422.97 1169.38 422.97H1164.11C1161.91 422.97 1160.12 421.186 1160.12 418.985ZM1186.47 418.985C1186.47 416.784 1188.25 415 1190.45 415H1195.72C1197.92 415 1199.71 416.784 1199.71 418.985C1199.71 421.186 1197.92 422.97 1195.72 422.97H1190.45C1188.25 422.97 1186.47 421.186 1186.47 418.985ZM1212.81 418.985C1212.81 416.784 1214.6 415 1216.8 415H1219.43C1221.63 415 1223.42 416.784 1223.42 418.985C1223.42 421.186 1221.63 422.97 1219.43 422.97H1216.8C1214.6 422.97 1212.81 421.186 1212.81 418.985Z" fill="#8883F6"/>
</g>
<defs>
<clipPath id="clip0_969_137267">
<rect width="1490" height="838" fill="white"/>
</clipPath>
</defs>
</svg>
