<svg id="nksvg" style="width: 100%; height: 100%" width="1490" height="838" viewBox="0 0 1490 838" fill="none" xmlns="http://www.w3.org/2000/svg" class="css-0">
  <rect style="fill: var(--color-illustrationBackground020)" width="1490" height="838"></rect>
  <path d="M686.098 232.5C576.228 261.94 510.972 374.667 540.344 484.284C569.716 593.902 682.593 658.898 792.462 629.459C902.332 600.02 967.588 487.292 938.216 377.675C908.844 268.058 795.967 203.061 686.098 232.5Z" fill="#254CAC"></path>
  <path d="M646.113 247.765C658.636 241.427 672 236.278 686.098 232.5C795.967 203.061 908.844 268.058 938.216 377.675C959.513 457.157 931.059 538.275 871.921 588.091C871.357 588.37 870.792 588.646 870.226 588.92C813.731 616.201 754.339 614.374 712.648 590.731C692.458 579.281 684.426 558.066 674.795 532.629C664.538 505.538 652.468 473.658 621.969 443.686C569.184 391.814 599.628 295.022 646.113 247.765Z" fill="#3358CC"></path>
  <path d="M801.357 234.93C768.913 253.575 729.492 276.803 720.554 308.842C710.892 343.48 726.463 373.175 746.339 407.59C753.066 419.239 757.326 433.353 761.483 447.125C768.756 471.222 775.713 494.272 795.02 501.235C796.553 501.787 869.609 522.588 914.724 501.316C923.424 497.214 930.948 492.206 937.498 486.557C947.261 452.132 948.144 414.726 938.216 377.675C919.366 307.327 866.125 255.356 801.357 234.93Z" fill="#446BE4"></path>
  <path d="M862.694 266.313C850.471 274.662 839.733 284.481 836.397 296.441C830.852 316.318 839.788 333.359 851.194 353.108C855.055 359.793 857.499 367.893 859.885 375.796C864.059 389.625 868.051 402.852 879.13 406.848C879.968 407.15 918.031 417.99 944.019 408.479C942.887 398.231 940.966 387.939 938.216 377.675C925.795 331.319 898.44 292.942 862.694 266.313Z" fill="#577FFB"></path>
  <circle style="fill: var(--color-illustrationPalette030)" cx="355.5" cy="242.5" r="87" stroke="#8BA6F6"></circle>
  <circle style="fill: var(--color-illustrationPalette070)" cx="1064" cy="505" r="60"></circle>
  <circle style="fill: var(--color-illustrationPalette070)" cx="466" cy="613" r="38"></circle>
  <circle style="fill: var(--color-illustrationPalette070)" cx="633" cy="155" r="16"></circle>
  <circle style="fill: var(--color-illustrationPalette020)" cx="1218.5" cy="266.5" r="23.5"></circle>
  <circle style="fill: var(--color-illustrationPalette040)" cx="1187" cy="682" r="17.5" stroke="#577FFB"></circle>
  <circle style="fill: var(--color-illustrationPalette020)" cx="258.5" cy="485.5" r="9.5"></circle>
  <path style="fill: var(--color-white)" d="M722.918 424.964L644.819 368.429C639.893 364.862 633 368.382 633 374.464L633 487.536C633 493.618 639.893 497.138 644.819 493.571L722.918 437.036C727.027 434.061 727.027 427.939 722.918 424.964Z"></path>
  <path style="fill: var(--color-white)" d="M766 378C766 375.791 767.791 374 770 374H792C794.209 374 796 375.791 796 378V483C796 485.209 794.209 487 792 487H770C767.791 487 766 485.209 766 483V378Z"></path>
  <path style="fill: var(--color-white)" d="M824 374C821.791 374 820 375.791 820 378V483C820 485.209 821.791 487 824 487H846C848.209 487 850 485.209 850 483V378C850 375.791 848.209 374 846 374H824Z"></path>
</svg>
