<svg id="components-dropcap-illustration" style="width: 100%; height: 100%" width="1344" height="759" viewBox="0 0 1344 759" fill="none" xmlns="http://www.w3.org/2000/svg" class="css-0"><rect style="fill:var(--color-illustrationBackground020)" width="1344" height="759"></rect><rect style="fill:var(--color-illustrationPalette020)" x="462" y="470" width="420" height="28" rx="14"></rect><rect style="fill:var(--color-illustrationPalette020)" x="462" y="541" width="420" height="28" rx="14"></rect><rect style="fill:var(--color-illustrationPalette020)" x="462" y="399" width="420" height="28" rx="14"></rect><rect style="fill:var(--color-illustrationPalette020)" x="662" y="257" width="220" height="28" rx="14"></rect><rect style="fill:var(--color-illustrationPalette020)" x="662" y="328" width="220" height="28" rx="14"></rect><rect style="fill:var(--color-illustrationPalette020)" x="662" y="186" width="220" height="28" rx="14"></rect><path style="fill:var(--color-illustrationPalette040)" fill-rule="evenodd" clip-rule="evenodd" d="M504.18 359.67C505.254 359.67 506.207 358.985 506.55 357.968L515.722 330.735C516.064 329.717 517.018 329.032 518.091 329.032H578.867C579.94 329.032 580.894 329.717 581.236 330.735L590.408 357.968C590.751 358.985 591.704 359.67 592.778 359.67H631.893C633.624 359.67 634.832 357.953 634.245 356.323L574.237 189.529C573.523 187.544 571.641 186.221 569.532 186.221H527.918C525.809 186.221 523.926 187.544 523.212 189.529L463.204 356.323C462.618 357.953 463.825 359.67 465.557 359.67H504.18ZM569.048 292.953C569.6 294.575 568.394 296.259 566.681 296.259H530.755C529.046 296.259 527.841 294.581 528.386 292.961L546.245 239.854C547.007 237.587 550.211 237.581 550.982 239.845L569.048 292.953Z"></path></svg>