<svg id="components-heading-illustration" style="width: 100%; height: 100%" width="1490" height="838" viewBox="0 0 1490 838" fill="none" xmlns="http://www.w3.org/2000/svg" class="css-0"><rect style="fill:var(--color-illustrationBackground020)" width="1490" height="838"></rect><path style="fill:var(--color-interfaceBrand030)" d="M720.571 373.567C735.686 373.567 747.81 378.606 756.942 388.682C766.075 398.602 770.641 412.3 770.641 429.777V504.771C770.641 505.875 769.745 506.771 768.641 506.771H732.491C731.386 506.771 730.491 505.875 730.491 504.771V435.209C730.491 426.392 728.208 419.543 723.641 414.662C719.075 409.781 712.935 407.34 705.22 407.34C697.505 407.34 691.364 409.781 686.798 414.662C682.232 419.543 679.949 426.392 679.949 435.209V504.771C679.949 505.875 679.053 506.771 677.949 506.771H641.562C640.458 506.771 639.562 505.875 639.562 504.771V334C639.562 332.895 640.458 332 641.562 332H677.949C679.053 332 679.949 332.895 679.949 334V392.697C684.042 386.872 689.632 382.227 696.717 378.763C703.803 375.299 711.754 373.567 720.571 373.567Z"></path><path style="fill:var(--color-interfaceBrand030)" d="M792.439 371.914C791.334 371.914 790.439 371.018 790.439 369.914V336.362C790.439 335.257 791.334 334.362 792.439 334.362H849.86C850.964 334.362 851.86 335.257 851.86 336.362V504.771C851.86 505.875 850.964 506.771 849.86 506.771H815.82C814.716 506.771 813.82 505.875 813.82 504.771V373.914C813.82 372.809 812.925 371.914 811.82 371.914H792.439Z"></path><path style="fill:var(--color-interfaceBrand030)" d="M588.49 487.259C588.49 490.152 585.513 492.088 582.868 490.915L475.378 443.214C473.932 442.573 473 441.14 473 439.558V426.68C473 425.166 473.855 423.782 475.208 423.104L582.699 369.248C585.358 367.916 588.49 369.85 588.49 372.825V394.493C588.49 396.052 587.585 397.469 586.17 398.123L517.096 430.07C515.508 430.804 515.562 433.079 517.182 433.738L585.996 461.693C587.504 462.306 588.49 463.772 588.49 465.399V487.259Z"></path><path style="fill:var(--color-interfaceBrand030)" d="M901.473 465.399C901.473 463.772 902.46 462.306 903.968 461.693L972.781 433.738C974.402 433.079 974.456 430.804 972.868 430.07L903.794 398.123C902.379 397.469 901.473 396.052 901.473 394.493V372.825C901.473 369.85 904.605 367.916 907.265 369.248L1014.76 423.104C1016.11 423.782 1016.96 425.166 1016.96 426.68V439.558C1016.96 441.14 1016.03 442.573 1014.59 443.214L907.096 490.915C904.451 492.088 901.473 490.152 901.473 487.259V465.399Z"></path></svg>