<svg id="components-header-image" style="width: 100%; height: 100%" width="1572" height="997" viewBox="0 0 1572 997" fill="none" xmlns="http://www.w3.org/2000/svg" class="css-0"><g clip-path="url(#nk-42)"><path style="fill:var(--color-illustrationPalette070)" fill-rule="evenodd" clip-rule="evenodd" d="M331.729 164.257C333.372 165.85 335.763 166.344 337.868 165.613L825.018 273.26L652.405 559.15C651.534 559.333 650.69 559.714 649.942 560.3C647.335 562.346 646.879 566.117 648.924 568.724L650.18 570.325C652.165 572.855 655.775 573.36 658.37 571.518L1152.8 221.296L1151.86 219.97C1154.25 218.862 1155.7 216.263 1155.25 213.541C1154.71 210.272 1151.61 208.064 1148.35 208.609L1146.29 208.952C1143.39 209.435 1141.33 211.919 1141.28 214.755L674.905 545.1L839.832 271.941L839.691 271.856C841.832 270.653 843.096 268.2 842.669 265.638C842.124 262.369 839.033 260.161 835.764 260.706L833.708 261.049C832.659 261.224 831.72 261.66 830.946 262.281L337.971 153.346C335.873 151.949 333.033 151.981 330.942 153.621C328.334 155.666 327.879 159.438 329.924 162.045L331.18 163.646C331.286 163.782 331.397 163.912 331.513 164.036L331.477 164.201L331.729 164.257ZM351.036 179.239C353.644 177.194 357.415 177.649 359.46 180.257L361.972 183.459C364.017 186.066 363.562 189.838 360.954 191.883C358.347 193.928 354.575 193.472 352.53 190.865L350.018 187.663C347.973 185.056 348.429 181.284 351.036 179.239ZM372.387 206.457C374.994 204.412 378.765 204.868 380.811 207.475L383.322 210.677C385.368 213.285 384.912 217.056 382.305 219.101C379.697 221.147 375.926 220.691 373.881 218.084L371.369 214.881C369.324 212.274 369.779 208.503 372.387 206.457ZM393.737 233.676C396.344 231.631 400.116 232.087 402.161 234.694L404.673 237.896C406.718 240.503 406.262 244.275 403.655 246.32C401.048 248.365 397.276 247.91 395.231 245.302L392.719 242.1C390.674 239.493 391.13 235.721 393.737 233.676ZM415.088 260.895C417.695 258.85 421.466 259.305 423.512 261.913L426.023 265.115C428.069 267.722 427.613 271.494 425.006 273.539C422.398 275.584 418.627 275.128 416.582 272.521L414.07 269.319C412.025 266.712 412.48 262.94 415.088 260.895ZM436.438 288.114C439.045 286.068 442.817 286.524 444.862 289.131L447.374 292.334C449.419 294.941 448.963 298.712 446.356 300.758C443.749 302.803 439.977 302.347 437.932 299.74L435.42 296.538C433.375 293.93 433.831 290.159 436.438 288.114ZM457.788 315.332C460.396 313.287 464.167 313.743 466.212 316.35L468.724 319.552C470.769 322.16 470.314 325.931 467.706 327.976C465.099 330.021 461.328 329.566 459.282 326.958L456.771 323.756C454.725 321.149 455.181 317.377 457.788 315.332ZM479.139 342.551C481.746 340.506 485.518 340.961 487.563 343.569L490.075 346.771C492.12 349.378 491.664 353.15 489.057 355.195C486.45 357.24 482.678 356.784 480.633 354.177L478.121 350.975C476.076 348.368 476.532 344.596 479.139 342.551ZM500.489 369.77C503.097 367.724 506.868 368.18 508.913 370.787L511.425 373.99C513.47 376.597 513.015 380.368 510.407 382.414C507.8 384.459 504.028 384.003 501.983 381.396L499.471 378.194C497.426 375.586 497.882 371.815 500.489 369.77ZM521.84 396.988C524.447 394.943 528.219 395.399 530.264 398.006L532.776 401.208C534.821 403.816 534.365 407.587 531.758 409.632C529.15 411.677 525.379 411.222 523.334 408.614L520.822 405.412C518.777 402.805 519.232 399.033 521.84 396.988ZM543.19 424.207C545.797 422.162 549.569 422.617 551.614 425.225L554.126 428.427C556.171 431.034 555.715 434.806 553.108 436.851C550.501 438.896 546.729 438.44 544.684 435.833L542.172 432.631C540.127 430.024 540.583 426.252 543.19 424.207ZM564.541 451.426C567.148 449.38 570.919 449.836 572.965 452.443L575.476 455.646C577.522 458.253 577.066 462.025 574.459 464.07C571.851 466.115 568.08 465.659 566.035 463.052L563.523 459.85C561.478 457.242 561.933 453.471 564.541 451.426ZM585.891 478.644C588.498 476.599 592.27 477.055 594.315 479.662L596.827 482.864C598.872 485.472 598.416 489.243 595.809 491.288C593.202 493.334 589.43 492.878 587.385 490.271L584.873 487.068C582.828 484.461 583.284 480.69 585.891 478.644ZM607.241 505.863C609.849 503.818 613.62 504.274 615.665 506.881L618.177 510.083C620.222 512.69 619.767 516.462 617.159 518.507C614.552 520.552 610.781 520.097 608.735 517.489L606.224 514.287C604.178 511.68 604.634 507.908 607.241 505.863ZM628.592 533.082C631.199 531.037 634.971 531.492 637.016 534.1L639.528 537.302C641.573 539.909 641.117 543.681 638.51 545.726C635.903 547.771 632.131 547.315 630.086 544.708L627.574 541.506C625.529 538.898 625.985 535.127 628.592 533.082ZM1122.35 219.025C1122.89 222.294 1120.68 225.385 1117.42 225.93L1113.3 226.615C1110.03 227.16 1106.94 224.952 1106.4 221.683C1105.85 218.415 1108.06 215.323 1111.33 214.778L1115.44 214.093C1118.71 213.548 1121.8 215.756 1122.35 219.025ZM1087.39 224.852C1087.93 228.12 1085.72 231.212 1082.46 231.756L1078.34 232.442C1075.07 232.987 1071.98 230.779 1071.44 227.51C1070.89 224.241 1073.1 221.15 1076.37 220.605L1080.48 219.92C1083.75 219.375 1086.84 221.583 1087.39 224.852ZM1052.43 230.678C1052.97 233.947 1050.76 237.038 1047.5 237.583L1043.38 238.268C1040.11 238.813 1037.02 236.605 1036.48 233.337C1035.93 230.068 1038.14 226.977 1041.41 226.432L1045.52 225.746C1048.79 225.201 1051.88 227.41 1052.43 230.678ZM1017.47 236.505C1018.01 239.773 1015.8 242.865 1012.54 243.41L1008.42 244.095C1005.15 244.64 1002.06 242.432 1001.52 239.163C1000.97 235.895 1003.18 232.803 1006.45 232.258L1010.56 231.573C1013.83 231.028 1016.92 233.236 1017.47 236.505ZM982.508 242.331C983.053 245.6 980.845 248.691 977.576 249.236L973.463 249.922C970.195 250.466 967.103 248.258 966.559 244.99C966.014 241.721 968.222 238.63 971.491 238.085L975.604 237.4C978.872 236.855 981.964 239.063 982.508 242.331ZM947.548 248.158C948.093 251.427 945.885 254.518 942.617 255.063L938.504 255.748C935.235 256.293 932.144 254.085 931.599 250.816C931.054 247.548 933.262 244.456 936.531 243.912L940.644 243.226C943.912 242.681 947.004 244.889 947.548 248.158ZM912.589 253.985C913.133 257.253 910.925 260.345 907.657 260.889L903.544 261.575C900.275 262.12 897.184 259.912 896.639 256.643C896.094 253.374 898.302 250.283 901.571 249.738L905.684 249.053C908.953 248.508 912.044 250.716 912.589 253.985ZM877.629 259.811C878.174 263.08 875.966 266.171 872.697 266.716L868.584 267.402C865.315 267.946 862.224 265.738 861.679 262.47C861.134 259.201 863.343 256.11 866.611 255.565L870.724 254.879C873.993 254.335 877.084 256.543 877.629 259.811Z"></path><path style="fill:var(--color-illustrationPalette060)" d="M333.708 231.383C292.851 231.383 259.731 198.262 259.731 157.406C259.731 116.549 292.851 83.4285 333.708 83.4285C374.565 83.4285 407.685 116.549 407.685 157.406C407.685 198.262 374.565 231.383 333.708 231.383Z"></path><path style="fill:var(--color-illustrationPalette080)" d="M836.567 319.407C808.64 319.407 786 296.348 786 267.903C786 239.459 808.64 216.4 836.567 216.4C864.494 216.4 887.134 239.459 887.134 267.903C887.134 296.348 864.494 319.407 836.567 319.407Z"></path><path style="fill:var(--color-illustrationPalette030)" d="M654.901 680.866C591.806 680.866 540.658 629.298 540.658 565.686C540.658 502.074 591.806 450.506 654.901 450.506C717.996 450.506 769.145 502.074 769.145 565.686C769.145 629.298 717.996 680.866 654.901 680.866Z"></path><mask id="nk-40" mask-type="alpha" maskUnits="userSpaceOnUse" x="981" y="47" width="335" height="335"><path style="fill:var(--color-white)" d="M1064.79 70.0987C984.925 116.21 957.475 218.186 1003.48 297.869C1049.49 377.553 1151.52 404.768 1231.39 358.657C1311.26 312.546 1338.71 210.57 1292.7 130.887C1246.7 51.2034 1144.66 23.9877 1064.79 70.0987Z"></path></mask><g mask="url(#nk-40)"></g><mask id="nk-41" mask-type="alpha" maskUnits="userSpaceOnUse" x="981" y="47" width="335" height="335"><path style="fill:var(--color-white)" d="M1064.79 70.0987C984.925 116.21 957.475 218.186 1003.48 297.869C1049.49 377.553 1151.52 404.768 1231.39 358.657C1311.26 312.546 1338.71 210.57 1292.7 130.887C1246.7 51.2034 1144.66 23.9877 1064.79 70.0987Z"></path></mask><g mask="url(#nk-41)"><path style="fill:var(--color-illustrationPalette070)" d="M1064.79 70.0987C984.925 116.21 957.475 218.186 1003.48 297.869C1049.49 377.553 1151.52 404.768 1231.39 358.657C1311.26 312.546 1338.71 210.57 1292.7 130.887C1246.7 51.2034 1144.66 23.9877 1064.79 70.0987Z"></path><path style="fill:var(--color-illustrationPalette060)" fill-rule="evenodd" clip-rule="evenodd" d="M1306.25 147.682C1268.9 66.8463 1216.47 59.8314 1215.23 59.5411C1178.94 51.0608 1101.17 38.2087 1057.01 68.8412C1012.86 99.4737 991.905 217.029 1056.65 253.661C1115.16 286.764 1120.91 340.024 1158.52 349.791C1196.14 359.559 1243.03 348.526 1281.55 315.306C1320.07 282.086 1343.6 228.518 1306.25 147.682Z"></path><path style="fill:var(--color-illustrationPalette040)" fill-rule="evenodd" clip-rule="evenodd" d="M1279.73 72.0077C1331.01 114.642 1325.8 154.013 1325.77 154.97C1324.8 182.92 1323.8 221.489 1292.94 247.616C1262.07 273.743 1200.49 272.783 1199.17 272.671C1173.11 270.469 1162.61 230.752 1141.4 209.549C1118.61 186.767 1100.18 166.78 1100.48 137.625C1100.78 108.47 1131.14 79.9044 1153.38 57.6756C1175.06 36.0025 1228.46 29.3731 1279.73 72.0077Z"></path><path style="fill:var(--color-illustrationPalette030)" fill-rule="evenodd" clip-rule="evenodd" d="M1274.17 94.326C1297.66 113.856 1295.27 131.89 1295.26 132.328C1294.81 145.132 1294.36 162.799 1280.22 174.767C1266.08 186.734 1237.87 186.295 1237.27 186.244C1225.33 185.235 1220.52 167.042 1210.8 157.329C1200.36 146.894 1191.92 137.738 1192.06 124.383C1192.2 111.028 1206.11 97.9433 1216.29 87.7609C1226.22 77.8332 1250.69 74.7965 1274.17 94.326Z"></path></g><path style="fill:var(--color-illustrationShadow010)" fill-rule="evenodd" clip-rule="evenodd" d="M650.011 912.593L1146.26 868.638L650.011 912.593Z"></path><path style="fill:var(--color-illustrationShadow010)" fill-rule="evenodd" clip-rule="evenodd" d="M670.744 897.015C666.685 896.791 662.553 896.604 658.362 896.458C637.188 895.719 617.448 896.108 600.927 897.385C600.413 896.852 599.746 896.456 598.972 896.273L595.058 895.346C592.909 894.836 590.753 896.166 590.244 898.316C590.238 898.339 590.233 898.362 590.228 898.385C567.804 900.88 553.503 905.243 553.313 910.664C552.969 920.524 599.443 930.15 657.116 932.164C714.788 934.178 761.82 927.817 762.165 917.957C762.285 914.514 756.693 911.098 746.908 908.026L1058.14 880.459C1080.59 883.978 1111.52 886.748 1145.72 887.942C1214.65 890.349 1270.76 885.449 1271.06 876.998C1271.35 868.546 1215.72 859.744 1146.79 857.337C1126.37 856.624 1107.07 856.552 1090.01 857.025C1090.44 854.972 1089.2 852.915 1087.15 852.354L1083.2 851.276C1081.07 850.694 1078.87 851.949 1078.29 854.08C1077.96 855.272 1078.21 856.485 1078.87 857.424C1044.49 858.955 1021.64 862.897 1021.46 868.281C1021.38 870.461 1025.02 872.663 1031.65 874.773L721.223 902.269C710.159 900.442 697.345 898.926 683.409 897.851L825.231 797.467C828.48 797.662 831.812 797.821 835.208 797.94L836.261 797.975C849.178 798.393 861.182 798.161 871.171 797.418C871.167 797.435 871.162 797.452 871.157 797.469C870.575 799.6 871.83 801.8 873.961 802.382L877.906 803.461C880.037 804.043 882.237 802.788 882.82 800.657C883.266 799.023 882.632 797.349 881.352 796.394C892.344 794.944 899.143 792.696 899.238 789.962C899.435 784.328 871.087 778.765 835.92 777.537L834.867 777.501C800.184 776.38 772.085 779.937 771.89 785.515C771.847 786.753 773.182 787.987 775.665 789.173L363.497 827.84C355.842 827.502 347.571 827.318 338.941 827.318C299.61 827.318 267.727 831.149 267.727 835.875C267.727 840.601 299.61 844.432 338.941 844.432C341.233 844.432 343.501 844.419 345.738 844.393C346.013 844.532 346.307 844.64 346.619 844.714L350.533 845.641C352.097 846.012 353.665 845.409 354.598 844.224C358.008 844.132 361.326 844.011 364.531 843.863C364.387 844.144 364.274 844.447 364.198 844.768C363.689 846.917 365.019 849.073 367.169 849.582L371.083 850.509C373.232 851.018 375.388 849.689 375.897 847.539C376.291 845.878 375.586 844.213 374.253 843.307C395.702 841.833 410.155 839.057 410.155 835.875C410.155 834.543 407.624 833.283 403.109 832.159L799.679 794.956C803.724 795.537 808.105 796.057 812.749 796.501L670.744 897.015ZM891.87 803.131C892.453 801 894.652 799.744 896.783 800.327L900.729 801.405C902.86 801.987 904.115 804.187 903.533 806.318C902.95 808.449 900.751 809.704 898.62 809.122L894.674 808.044C892.543 807.461 891.288 805.261 891.87 803.131ZM912.583 808.792C913.166 806.661 915.366 805.405 917.497 805.988L921.442 807.066C923.573 807.648 924.828 809.848 924.246 811.979C923.663 814.11 921.464 815.365 919.333 814.783L915.387 813.705C913.256 813.122 912.001 810.923 912.583 808.792ZM933.297 814.453C933.879 812.322 936.079 811.066 938.21 811.649L942.155 812.727C944.286 813.309 945.541 815.509 944.959 817.64C944.377 819.771 942.177 821.026 940.046 820.444L936.101 819.366C933.97 818.783 932.714 816.584 933.297 814.453ZM954.01 820.114C954.592 817.983 956.792 816.727 958.923 817.31L962.868 818.388C964.999 818.97 966.255 821.17 965.672 823.301C965.09 825.432 962.89 826.687 960.759 826.105L956.814 825.027C954.683 824.444 953.427 822.245 954.01 820.114ZM974.723 825.775C975.305 823.644 977.505 822.388 979.636 822.971L983.581 824.049C985.712 824.632 986.968 826.831 986.385 828.962C985.803 831.093 983.603 832.349 981.472 831.766L977.527 830.688C975.396 830.105 974.141 827.906 974.723 825.775ZM995.436 831.436C996.019 829.305 998.218 828.049 1000.35 828.632L1004.29 829.71C1006.43 830.293 1007.68 832.492 1007.1 834.623C1006.52 836.754 1004.32 838.01 1002.19 837.427L998.24 836.349C996.109 835.766 994.854 833.567 995.436 831.436ZM1016.15 837.097C1016.73 834.966 1018.93 833.711 1021.06 834.293L1025.01 835.371C1027.14 835.954 1028.39 838.153 1027.81 840.284C1027.23 842.415 1025.03 843.671 1022.9 843.088L1018.95 842.01C1016.82 841.428 1015.57 839.228 1016.15 837.097ZM1036.86 842.758C1037.45 840.627 1039.64 839.372 1041.78 839.954L1045.72 841.032C1047.85 841.615 1049.11 843.814 1048.52 845.945C1047.94 848.076 1045.74 849.332 1043.61 848.749L1039.67 847.671C1037.54 847.089 1036.28 844.889 1036.86 842.758ZM1057.58 848.419C1058.16 846.288 1060.36 845.033 1062.49 845.615L1066.43 846.693C1068.57 847.276 1069.82 849.475 1069.24 851.606C1068.66 853.737 1066.46 854.993 1064.33 854.41L1060.38 853.332C1058.25 852.75 1056.99 850.55 1057.58 848.419ZM389.562 846.665C387.413 846.156 385.257 847.486 384.748 849.636C384.239 851.785 385.569 853.941 387.718 854.45L391.632 855.377C393.782 855.886 395.937 854.557 396.447 852.407C396.956 850.257 395.626 848.102 393.476 847.593L389.562 846.665ZM410.112 851.533C407.962 851.024 405.807 852.354 405.298 854.504C404.788 856.653 406.118 858.809 408.268 859.318L412.182 860.245C414.332 860.755 416.487 859.425 416.996 857.275C417.506 855.125 416.176 852.97 414.026 852.461L410.112 851.533ZM430.661 856.401C428.512 855.892 426.356 857.222 425.847 859.372C425.338 861.521 426.668 863.677 428.817 864.186L432.732 865.113C434.881 865.623 437.037 864.293 437.546 862.143C438.055 859.993 436.725 857.838 434.576 857.329L430.661 856.401ZM451.211 861.27C449.061 860.76 446.906 862.09 446.397 864.24C445.887 866.389 447.217 868.545 449.367 869.054L453.281 869.981C455.431 870.491 457.586 869.161 458.095 867.011C458.605 864.861 457.275 862.706 455.125 862.197L451.211 861.27ZM471.761 866.138C469.611 865.628 467.456 866.958 466.946 869.108C466.437 871.257 467.767 873.413 469.917 873.922L473.831 874.849C475.98 875.359 478.136 874.029 478.645 871.879C479.154 869.729 477.824 867.574 475.675 867.065L471.761 866.138ZM492.31 871.006C490.161 870.496 488.005 871.826 487.496 873.976C486.987 876.125 488.316 878.281 490.466 878.79L494.38 879.717C496.53 880.227 498.685 878.897 499.195 876.747C499.704 874.598 498.374 872.442 496.224 871.933L492.31 871.006ZM512.86 875.874C510.71 875.364 508.555 876.694 508.045 878.844C507.536 880.993 508.866 883.149 511.016 883.658L514.93 884.585C517.08 885.095 519.235 883.765 519.744 881.615C520.253 879.466 518.924 877.31 516.774 876.801L512.86 875.874ZM533.409 880.742C531.26 880.232 529.104 881.562 528.595 883.712C528.086 885.862 529.416 888.017 531.565 888.526L535.479 889.453C537.629 889.963 539.785 888.633 540.294 886.483C540.803 884.334 539.473 882.178 537.324 881.669L533.409 880.742ZM553.959 885.61C551.809 885.1 549.654 886.43 549.145 888.58C548.635 890.73 549.965 892.885 552.115 893.394L556.029 894.321C558.179 894.831 560.334 893.501 560.843 891.351C561.353 889.202 560.023 887.046 557.873 886.537L553.959 885.61ZM574.509 890.478C572.359 889.968 570.203 891.298 569.694 893.448C569.185 895.598 570.515 897.753 572.664 898.262L576.579 899.189C578.728 899.699 580.884 898.369 581.393 896.219C581.902 894.07 580.572 891.914 578.423 891.405L574.509 890.478Z"></path></g><defs><clipPath id="nk-42"><rect style="fill:var(--color-white)" width="1572" height="997"></rect></clipPath></defs></svg>