<svg id="nksvg" style="width: 100%; height: 100%" width="1490" height="838" viewBox="0 0 1490 838" fill="none" xmlns="http://www.w3.org/2000/svg" class="css-0">
  <rect style="fill: var(--color-illustrationBackground020)" width="1490" height="838"></rect>
  <path style="fill: var(--color-illustrationPalette060)" d="M293 166C293 157.163 300.163 150 309 150H1182C1190.84 150 1198 157.163 1198 166V672C1198 680.837 1190.84 688 1182 688H309C300.163 688 293 680.837 293 672V166Z"></path>
  <path style="fill: var(--color-illustrationPalette040)" d="M293 166C293 157.163 300.163 150 309 150H576C584.837 150 592 157.163 592 166V672C592 680.837 584.837 688 576 688H309C300.163 688 293 680.837 293 672V166Z"></path>
  <path style="fill: var(--color-white)" d="M338 255C338 249.477 342.477 245 348 245H538C543.523 245 548 249.477 548 255C548 260.523 543.523 265 538 265H348C342.477 265 338 260.523 338 255Z"></path>
  <path style="fill: var(--color-white)" d="M338 298C338 292.477 342.477 288 348 288H466C471.523 288 476 292.477 476 298C476 303.523 471.523 308 466 308H348C342.477 308 338 303.523 338 298Z"></path>
  <path style="fill: var(--color-illustrationPalette010)" d="M338 376.5C338 373.462 340.462 371 343.5 371H542.5C545.538 371 548 373.462 548 376.5C548 379.538 545.538 382 542.5 382H343.5C340.462 382 338 379.538 338 376.5Z"></path>
  <path style="fill: var(--color-illustrationPalette010)" d="M338 404C338 400.686 340.686 398 344 398H542C545.314 398 548 400.686 548 404C548 407.314 545.314 410 542 410H344C340.686 410 338 407.314 338 404Z"></path>
  <path style="fill: var(--color-illustrationPalette010)" d="M338 349C338 345.686 340.686 343 344 343H542C545.314 343 548 345.686 548 349C548 352.314 545.314 355 542 355H344C340.686 355 338 352.314 338 349Z"></path>
  <path style="fill: var(--color-illustrationPalette010)" d="M338 431.5C338 428.462 340.462 426 343.5 426H438.5C441.538 426 444 428.462 444 431.5C444 434.538 441.538 437 438.5 437H343.5C340.462 437 338 434.538 338 431.5Z"></path>
</svg>
