<svg id="components-hero-roadmap-illustration" style="width: 100%; height: 100%" width="1344" height="760" viewBox="0 0 1344 760" fill="none" xmlns="http://www.w3.org/2000/svg" class="css-0"><rect style="fill:var(--color-illustrationBackground020)" width="1344" height="759"></rect><path style="fill:var(--color-interface020)" d="M1344 0.626221H0V758.374H1344V0.626221Z"></path><path d="M506.956 241.368C643.592 225.937 835.077 212.406 980.634 232.194C991.442 233.663 1002 235.316 1012.26 237.165" stroke="#87A4FC" stroke-width="8" stroke-linecap="round" stroke-dasharray="4 20"></path><mask id="nk-31" mask-type="alpha" maskUnits="userSpaceOnUse" x="658" y="155" width="397" height="397"><path style="fill:var(--color-white)" d="M856.581 551.089C966.125 551.089 1054.93 462.49 1054.93 353.198C1054.93 243.906 966.125 155.307 856.581 155.307C747.037 155.307 658.235 243.906 658.235 353.198C658.235 462.49 747.037 551.089 856.581 551.089Z"></path></mask><g mask="url(#nk-31)"><path d="M856.581 551.089C966.125 551.089 1054.93 462.49 1054.93 353.198C1054.93 243.906 966.125 155.307 856.581 155.307C747.037 155.307 658.235 243.906 658.235 353.198C658.235 462.49 747.037 551.089 856.581 551.089Z" fill="#2B4AAB"></path></g><mask id="nk-32" mask-type="alpha" maskUnits="userSpaceOnUse" x="658" y="155" width="397" height="397"><path style="fill:var(--color-white)" d="M856.581 551.089C966.125 551.089 1054.93 462.49 1054.93 353.198C1054.93 243.906 966.125 155.307 856.581 155.307C747.037 155.307 658.235 243.906 658.235 353.198C658.235 462.49 747.037 551.089 856.581 551.089Z"></path></mask><g mask="url(#nk-32)"><path d="M856.581 551.089C966.125 551.089 1054.93 462.49 1054.93 353.198C1054.93 243.906 966.125 155.307 856.581 155.307C747.037 155.307 658.235 243.906 658.235 353.198C658.235 462.49 747.037 551.089 856.581 551.089Z" fill="#2B4AAB"></path><path fill-rule="evenodd" clip-rule="evenodd" d="M659.461 334.154C649.871 439.491 699.64 477.846 700.745 478.882C733.043 509.161 805.412 568.571 869.025 563.283C932.638 557.995 1024.01 449.513 979.164 373.376C938.636 304.574 964.352 246.371 931.462 213.985C898.572 181.598 843.778 165.095 784.424 176.391C725.07 187.688 669.05 228.817 659.461 334.154Z" fill="#3358CC"></path><path fill-rule="evenodd" clip-rule="evenodd" d="M643.519 427.75C616.099 353.442 644.832 316.031 645.435 315.066C663.036 286.892 686.965 247.808 734.236 239.264C781.506 230.721 844.282 268.281 845.57 269.177C871.067 286.919 858.289 334.016 867.514 368.424C877.425 405.393 884.508 436.897 866.886 466.711C849.263 496.525 801.063 507.877 764.988 517.538C729.815 526.957 670.939 502.058 643.519 427.75Z" fill="#446BE4"></path><path fill-rule="evenodd" clip-rule="evenodd" d="M640.893 419.483C625.158 376.84 641.647 355.371 641.992 354.818C652.093 338.65 665.825 316.221 692.952 311.318C720.079 306.415 756.103 327.969 756.843 328.484C771.474 338.665 764.141 365.692 769.435 385.438C775.123 406.653 779.188 424.732 769.075 441.841C758.962 458.95 731.301 465.465 710.599 471.009C690.415 476.414 656.628 462.126 640.893 419.483Z" fill="#87A4FC"></path></g><path d="M258.483 489.008C318.581 496.862 700.557 534.805 928.7 481.292C1126.19 434.968 1150.2 271.095 1029.13 245.15C1019.51 243.054 1006.83 240.73 991.085 238.179" stroke="#87A4FC" stroke-width="8" stroke-linecap="round"></path><path fill-rule="evenodd" clip-rule="evenodd" d="M1054.93 353.198C1054.93 286.034 1021.39 226.686 970.114 190.911C937.95 168.472 865.325 156.518 924.313 193.799C950.316 210.233 971.308 233.675 971.308 267.113C971.308 353.689 984.47 334.372 1010.64 407.182C1037.79 393.909 1054.93 375.914 1054.93 353.198Z" fill="#2B4AAB"></path><path d="M240.97 524.545C216.089 524.545 195.919 504.358 195.919 479.456C195.919 454.554 216.089 434.366 240.97 434.366C265.85 434.366 286.02 454.554 286.02 479.456C286.02 504.358 265.85 524.545 240.97 524.545Z" fill="#AEBFFF"></path><path d="M214 498C204.059 498 196 489.717 196 479.5C196 469.283 204.059 461 214 461C223.941 461 232 469.283 232 479.5C232 489.717 223.941 498 214 498Z" fill="#AEBFFF"></path><path fill-rule="evenodd" clip-rule="evenodd" d="M240.97 434.366C237.973 434.366 235.044 434.659 232.211 435.218C252.898 439.299 268.501 457.553 268.501 479.456C268.501 501.358 252.898 519.612 232.211 523.693C235.044 524.252 237.973 524.545 240.97 524.545C265.851 524.545 286.021 504.358 286.021 479.456C286.021 454.554 265.851 434.366 240.97 434.366Z" fill="#87A4FC"></path><path d="M500.223 264.338L474.214 249.309L489.23 223.276" stroke="#87A4FC" stroke-width="8" stroke-linecap="round" stroke-linejoin="round"></path><mask id="nk-33" mask-type="alpha" maskUnits="userSpaceOnUse" x="0" y="1" width="1344" height="759"><path style="fill:var(--color-white)" d="M1344 1.62622H0V759.374H1344V1.62622Z"></path></mask><g mask="url(#nk-33)"><path style="fill:var(--color-illustrationBackground020)" d="M1344 1.62622H0V759.374H1344V1.62622Z"></path><g opacity="0.3"><path style="fill:var(--color-illustrationShadow010)" fill-rule="evenodd" clip-rule="evenodd" d="M-100.798 1V250.994C-100.798 264.421 -90.0943 275.35 -76.7494 275.723L-76.0447 275.733L183.21 275.733V114.142L142.825 114.142C122.233 114.142 105.489 97.6787 105.044 77.2039V1H118.072V76.3828C118.072 89.8102 128.775 100.739 142.12 101.112L142.825 101.122H473.734C494.325 101.122 511.069 117.585 511.506 138.06L511.515 138.881L511.514 182.828H1178.54V101.679L1122.99 101.68C1102.4 101.68 1085.65 85.216 1085.22 64.7412L1085.21 63.9201V1H1098.24V63.9201C1098.24 77.3475 1108.94 88.2763 1122.29 88.6492L1122.99 88.659L1178.54 88.659L1178.55 1H1191.57L1191.57 182.828L1242.38 182.828C1262.97 182.828 1279.71 199.292 1280.15 219.767L1280.16 220.588L1280.16 373.386L1342.7 373.387V386.408L1280.16 386.407L1280.16 586.924C1280.16 607.503 1263.68 624.238 1243.2 624.674L1242.38 624.683H987.035V611.663H1242.38C1255.81 611.663 1266.75 600.965 1267.12 587.628L1267.13 586.924V220.588C1267.13 207.16 1256.43 196.232 1243.08 195.859L1242.38 195.849L511.514 195.848V275.733L604.013 275.733C624.605 275.733 641.349 292.197 641.786 312.671L641.794 313.493L641.794 460.624L985.732 460.624V473.645H536.268C515.677 473.645 498.933 457.181 498.496 436.707L498.487 435.885L498.486 288.753L-76.0447 288.754C-96.636 288.754 -113.38 272.29 -113.817 251.815L-113.826 250.994V1H-100.798ZM604.013 288.754L511.514 288.753L511.515 435.885C511.515 449.313 522.219 460.242 535.563 460.615L536.268 460.624L628.766 460.624L628.766 313.493C628.766 300.065 618.063 289.136 604.718 288.763L604.013 288.754ZM473.734 114.142L196.238 114.142V275.733H498.486L498.487 138.881C498.487 125.454 487.784 114.525 474.439 114.152L473.734 114.142Z"></path></g><path style="fill:var(--color-illustrationShadow010)" d="M987 629C1035.05 629 1074 625.194 1074 620.5C1074 615.806 1035.05 612 987 612C938.951 612 900 615.806 900 620.5C900 625.194 938.951 629 987 629Z"></path><mask id="nk-34" mask-type="alpha" maskUnits="userSpaceOnUse" x="835" y="107" width="306" height="512"><path fill-rule="evenodd" clip-rule="evenodd" d="M987.978 107.46C1071.95 107.46 1140.02 175.587 1140.02 259.625C1140.02 315 1090.19 433.98 990.518 616.567C990.147 617.247 989.586 617.804 988.904 618.172C986.959 619.219 984.533 618.492 983.486 616.547L980.549 611.089C884.138 431.599 835.933 314.444 835.933 259.625C835.933 175.587 904.006 107.46 987.978 107.46ZM987.978 211.616C954.245 211.616 926.9 239.012 926.9 272.807C926.9 306.602 954.245 333.998 987.978 333.998C1021.71 333.998 1049.06 306.602 1049.06 272.807C1049.06 239.012 1021.71 211.616 987.978 211.616Z" fill="#87A4FC"></path></mask><g mask="url(#nk-34)"><path style="fill:var(--color-blue070)" d="M728.582 471.686C800.051 608.826 968.973 662.162 1105.88 590.814C1242.79 519.467 1295.84 350.454 1224.37 213.314C1152.9 76.174 983.977 22.8385 847.069 94.1858C710.162 165.533 657.113 334.546 728.582 471.686Z"></path><path style="fill:var(--color-blue050)" fill-rule="evenodd" clip-rule="evenodd" d="M871.963 83.1678C733.871 139.844 718.391 227.26 717.816 229.322C701.027 289.565 673.966 419.052 722.15 495.364C770.334 571.677 886.521 662.389 952.5 556.5C978 410.5 1150.46 409.361 1169.5 347C1188.54 284.639 1203.97 204.015 1151.05 136.962C1098.13 69.9081 1010.06 26.492 871.963 83.1678Z"></path><path style="fill:var(--color-blue040)" fill-rule="evenodd" clip-rule="evenodd" d="M744.416 153.636C819.562 70.8192 885.151 82.384 886.751 82.5091C933.512 86.1627 987.5 108.5 1026 144.5C1064.5 180.5 1078.71 249.854 1060.5 292C1042.29 334.147 1015.2 338.757 964.849 395.379C914.5 452 921.327 511.111 872.5 508.5C823.673 505.889 746.889 403.17 711.254 364.306C676.511 326.414 669.27 236.452 744.416 153.636Z"></path><path style="fill:var(--color-blue030)" fill-rule="evenodd" clip-rule="evenodd" d="M753.053 115.981C796.177 68.456 833.816 75.0927 834.734 75.1644C861.568 77.2611 888.661 54.7351 912.5 85.5C942.5 93 975.5 154.5 942.5 193.5C909.5 232.5 865.5 291.06 889 436C912.5 580.94 836.717 292.559 808.697 291.06C780.677 289.562 754.472 259.18 734.023 236.877C714.085 215.132 709.93 163.507 753.053 115.981Z"></path></g></g></svg>