<svg id="components-inline-illustration" style="width: 100%; height: 100%" width="1344" height="759" viewBox="0 0 1344 759" fill="none" xmlns="http://www.w3.org/2000/svg" class="css-0"><rect style="fill:var(--color-illustrationBackground020)" width="1344" height="759"></rect><rect style="fill:var(--color-illustrationPalette040)" x="228.7" y="215" width="468.6" height="330" rx="24"></rect><rect style="fill:var(--color-illustrationPalette010)" width="349.8" height="26.4" rx="13.2" transform="matrix(-1 0 0 1 637.9 344.801)"></rect><rect style="fill:var(--color-illustrationPalette010)" width="176" height="26.4" rx="13.2" transform="matrix(-1 0 0 1 464.1 406.4)"></rect><rect style="fill:var(--color-illustrationPalette040)" width="349.8" height="26.4" rx="13.2" transform="matrix(-1 0 0 1 1115.3 428.4)"></rect><rect style="fill:var(--color-illustrationPalette040)" width="349.8" height="26.4" rx="13.2" transform="matrix(-1 0 0 1 1115.3 366.799)"></rect><rect style="fill:var(--color-illustrationPalette040)" width="349.8" height="26.4" rx="13.2" transform="matrix(-1 0 0 1 1115.3 305.199)"></rect><rect style="fill:var(--color-illustrationPalette040)" width="349.8" height="26.4" rx="13.2" transform="matrix(-1 0 0 1 1115.3 243.6)"></rect><rect style="fill:var(--color-illustrationPalette040)" width="176" height="26.4" rx="13.2" transform="matrix(-1 0 0 1 941.5 490)"></rect></svg>