<svg id="components-ordered-list-illustration" style="width: 100%; height: 100%" width="1344" height="759" viewBox="0 0 1344 759" fill="none" xmlns="http://www.w3.org/2000/svg" class="css-0"><rect style="fill:var(--color-illustrationBackground020)" width="1344" height="759"></rect><path style="fill:var(--color-blue040)" d="M406.237 204.699V184.568H441.308V276.994H418.771V204.699H406.237Z"></path><rect style="fill:var(--color-blue020)" width="402.622" height="30.3865" rx="15.1933" transform="matrix(-1 0 0 1 929 216.797)"></rect><path style="fill:var(--color-blue040)" d="M398.433 407.852C401.303 405.573 402.611 404.518 402.358 404.687C410.63 397.85 417.129 392.237 421.856 387.847C426.667 383.458 430.719 378.858 434.01 374.047C437.302 369.236 438.948 364.551 438.948 359.993C438.948 356.532 438.146 353.831 436.543 351.89C434.939 349.949 432.533 348.978 429.326 348.978C426.118 348.978 423.586 350.202 421.729 352.65C419.957 355.013 419.07 358.389 419.07 362.779H398.18C398.349 355.604 399.868 349.611 402.738 344.8C405.692 339.989 409.532 336.444 414.259 334.165C419.07 331.886 424.388 330.746 430.212 330.746C440.257 330.746 447.811 333.321 452.875 338.469C458.024 343.618 460.599 350.329 460.599 358.6C460.599 367.632 457.518 376.03 451.356 383.796C445.194 391.477 437.345 398.989 427.807 406.333H461.991V423.931H398.433V407.852Z"></path><rect style="fill:var(--color-blue020)" width="402.622" height="30.3865" rx="15.1933" transform="matrix(-1 0 0 1 929 362.975)"></rect><path style="fill:var(--color-blue040)" d="M399.319 505.158C399.657 496.126 402.611 489.163 408.182 484.267C413.753 479.372 421.307 476.924 430.845 476.924C437.176 476.924 442.578 478.021 447.051 480.216C451.609 482.41 455.028 485.407 457.307 489.205C459.67 493.003 460.852 497.266 460.852 501.993C460.852 507.564 459.459 512.122 456.674 515.667C453.888 519.127 450.639 521.491 446.925 522.757V523.263C451.736 524.867 455.534 527.526 458.32 531.24C461.105 534.954 462.498 539.723 462.498 545.547C462.498 550.78 461.274 555.422 458.826 559.474C456.463 563.441 452.96 566.564 448.317 568.843C443.76 571.122 438.315 572.262 431.985 572.262C421.856 572.262 413.753 569.772 407.675 564.792C401.683 559.812 398.517 552.299 398.18 542.255H419.197C419.281 545.969 420.337 548.923 422.362 551.118C424.388 553.228 427.342 554.283 431.225 554.283C434.517 554.283 437.049 553.354 438.822 551.497C440.679 549.556 441.607 547.024 441.607 543.901C441.607 539.849 440.299 536.937 437.682 535.165C435.15 533.308 431.056 532.379 425.401 532.379H421.349V514.78H425.401C429.706 514.78 433.166 514.063 435.783 512.628C438.484 511.109 439.835 508.45 439.835 504.652C439.835 501.613 438.991 499.25 437.302 497.561C435.614 495.873 433.293 495.029 430.339 495.029C427.131 495.029 424.726 496 423.122 497.941C421.603 499.883 420.716 502.288 420.463 505.158H399.319Z"></path><rect style="fill:var(--color-blue020)" width="402.622" height="30.3865" rx="15.1933" transform="matrix(-1 0 0 1 929 510.303)"></rect></svg>