<svg id="components-space-illustration" style="width: 100%; height: 100%" width="1344" height="759" viewBox="0 0 1344 759" fill="none" xmlns="http://www.w3.org/2000/svg" class="css-0"><rect style="fill:var(--color-illustrationBackground020)" width="1344" height="759"></rect><ellipse style="fill:var(--color-illustrationShadow010)" cx="328" cy="553.875" rx="99" ry="10"></ellipse><mask id="nk-61" mask-type="alpha" maskUnits="userSpaceOnUse" x="113" y="166" width="430" height="429"><path style="fill:var(--color-white)" d="M282.416 211.396C188.85 236.467 133.277 332.466 158.291 425.817C183.304 519.168 279.432 574.52 372.997 549.45C466.563 524.379 522.136 428.379 497.122 335.028C472.109 241.677 375.982 186.325 282.416 211.396Z"></path></mask><g mask="url(#nk-61)"><path style="fill:var(--color-illustrationInterface080)" d="M282.416 211.396C188.85 236.467 133.277 332.466 158.291 425.817C183.304 519.168 279.432 574.52 372.997 549.45C466.563 524.379 522.136 428.379 497.122 335.028C472.109 241.677 375.982 186.325 282.416 211.396Z"></path></g><mask id="nk-62" mask-type="alpha" maskUnits="userSpaceOnUse" x="113" y="166" width="430" height="429"><path style="fill:var(--color-white)" d="M282.416 211.396C188.85 236.467 133.277 332.466 158.291 425.817C183.304 519.168 279.432 574.52 372.997 549.45C466.563 524.379 522.136 428.379 497.122 335.028C472.109 241.677 375.982 186.325 282.416 211.396Z"></path></mask><g mask="url(#nk-62)"><path style="fill:var(--color-illustrationPalette060)" d="M282.416 211.396C188.85 236.467 133.277 332.466 158.291 425.817C183.304 519.168 279.432 574.52 372.997 549.45C466.563 524.379 522.136 428.379 497.122 335.028C472.109 241.677 375.982 186.325 282.416 211.396Z"></path><path style="fill:var(--color-illustrationPalette050)" fill-rule="evenodd" clip-rule="evenodd" d="M500.434 351.576C484.517 259.408 433.229 238.038 432.048 237.406C397.532 218.935 322.121 184.754 268.997 203.829C215.872 222.905 162.654 336.476 218.386 391.244C268.748 440.735 260.105 496.334 295.609 516.469C331.114 536.604 381.693 538.16 429.805 514.927C477.916 491.694 516.351 443.743 500.434 351.576Z"></path><path style="fill:var(--color-illustrationPalette040)" fill-rule="evenodd" clip-rule="evenodd" d="M492.629 267.983C533.056 325.177 517.076 363.708 516.783 364.67C508.197 392.763 496.703 431.623 458.283 449.739C419.862 467.855 357.647 450.141 356.341 449.67C330.503 440.351 330.638 397.199 314.884 369.921C297.958 340.613 284.697 315.325 292.926 285.826C301.154 256.328 339.727 235.6 368.329 219.092C396.215 202.997 452.202 210.79 492.629 267.983Z"></path><path style="fill:var(--color-illustrationPalette030)" fill-rule="evenodd" clip-rule="evenodd" d="M496.765 274.443C519.964 307.265 510.794 329.376 510.625 329.928C505.698 346.049 499.102 368.35 477.054 378.746C455.006 389.142 419.303 378.976 418.554 378.706C403.726 373.359 403.804 348.595 394.763 332.941C385.05 316.122 377.44 301.611 382.162 284.683C386.884 267.754 409.019 255.86 425.433 246.386C441.436 237.15 473.565 241.622 496.765 274.443Z"></path></g><ellipse style="fill:var(--color-illustrationShadow010)" rx="74" ry="7" transform="matrix(1 0 0 -1 1003 552)"></ellipse><mask id="nk-63" mask-type="alpha" maskUnits="userSpaceOnUse" x="844" y="263" width="318" height="317"><path style="fill:var(--color-white)" d="M969.111 296.524C900.014 315.038 858.974 385.933 877.446 454.871C895.918 523.81 966.907 564.686 1036 546.172C1105.1 527.657 1146.14 456.763 1127.67 387.824C1109.2 318.886 1038.21 278.009 969.111 296.524Z"></path></mask><g mask="url(#nk-63)"><path style="fill:var(--color-illustrationInterface080)" d="M969.111 296.524C900.014 315.038 858.974 385.933 877.446 454.871C895.918 523.81 966.907 564.686 1036 546.172C1105.1 527.657 1146.14 456.763 1127.67 387.824C1109.2 318.886 1038.21 278.009 969.111 296.524Z"></path></g><mask id="nk-64" mask-type="alpha" maskUnits="userSpaceOnUse" x="844" y="263" width="318" height="317"><path style="fill:var(--color-white)" d="M969.111 296.524C900.014 315.038 858.974 385.933 877.446 454.871C895.918 523.81 966.907 564.686 1036 546.172C1105.1 527.657 1146.14 456.763 1127.67 387.824C1109.2 318.886 1038.21 278.009 969.111 296.524Z"></path></mask><g mask="url(#nk-64)"><path style="fill:var(--color-illustrationPalette060)" d="M969.111 296.524C900.014 315.038 858.974 385.933 877.446 454.871C895.918 523.81 966.907 564.686 1036 546.172C1105.1 527.657 1146.14 456.763 1127.67 387.824C1109.2 318.886 1038.21 278.009 969.111 296.524Z"></path><path style="fill:var(--color-illustrationPalette050)" fill-rule="evenodd" clip-rule="evenodd" d="M1130.11 400.046C1118.36 331.981 1080.48 316.2 1079.61 315.733C1054.12 302.093 998.433 276.85 959.201 290.937C919.969 305.024 880.668 388.895 921.826 429.34C959.018 465.888 952.634 506.948 978.854 521.817C1005.07 536.686 1042.43 537.835 1077.96 520.678C1113.48 503.521 1141.87 468.11 1130.11 400.046Z"></path><path style="fill:var(--color-illustrationPalette040)" fill-rule="evenodd" clip-rule="evenodd" d="M1124.35 338.314C1154.21 380.55 1142.4 409.005 1142.19 409.715C1135.85 430.461 1127.36 459.159 1098.99 472.537C1070.61 485.916 1024.67 472.834 1023.7 472.486C1004.62 465.605 1004.72 433.737 993.088 413.593C980.588 391.949 970.795 373.274 976.872 351.49C982.949 329.706 1011.43 314.399 1032.56 302.208C1053.15 290.322 1094.5 296.077 1124.35 338.314Z"></path><path style="fill:var(--color-illustrationPalette030)" fill-rule="evenodd" clip-rule="evenodd" d="M1127.4 343.085C1144.54 367.323 1137.76 383.652 1137.64 384.06C1134 395.965 1129.13 412.434 1112.85 420.111C1096.57 427.789 1070.2 420.281 1069.65 420.082C1058.7 416.133 1058.75 397.845 1052.08 386.285C1044.9 373.865 1039.28 363.148 1042.77 350.647C1046.26 338.146 1062.61 329.361 1074.73 322.365C1086.55 315.544 1110.27 318.847 1127.4 343.085Z"></path></g><path d="M446 552L911 552" stroke="#BBC3C9" stroke-width="8" stroke-linecap="round" stroke-dasharray="4 20"></path><path style="fill:var(--color-illustrationHighlight010)" fill-rule="evenodd" clip-rule="evenodd" d="M520 379.5C520 377.015 522.015 375 524.5 375C526.985 375 529 377.015 529 379.5V420.5C529 422.985 526.985 425 524.5 425C522.015 425 520 422.985 520 420.5V379.5ZM542 400C542 397.239 544.239 395 547 395H548.938C551.699 395 553.938 397.239 553.938 400C553.938 402.761 551.699 405 548.938 405H547C544.239 405 542 402.761 542 400ZM563.312 400C563.312 397.239 565.551 395 568.312 395H572.188C574.949 395 577.188 397.239 577.188 400C577.188 402.761 574.949 405 572.188 405H568.312C565.551 405 563.312 402.761 563.312 400ZM586.562 400C586.562 397.239 588.801 395 591.562 395H595.438C598.199 395 600.438 397.239 600.438 400C600.438 402.761 598.199 405 595.438 405H591.562C588.801 405 586.562 402.761 586.562 400ZM609.812 400C609.812 397.239 612.051 395 614.812 395H618.688C621.449 395 623.688 397.239 623.688 400C623.688 402.761 621.449 405 618.688 405H614.812C612.051 405 609.812 402.761 609.812 400ZM633.062 400C633.062 397.239 635.301 395 638.062 395H641.938C644.699 395 646.938 397.239 646.938 400C646.938 402.761 644.699 405 641.938 405H638.062C635.301 405 633.062 402.761 633.062 400ZM656.312 400C656.312 397.239 658.551 395 661.312 395H665.188C667.949 395 670.188 397.239 670.188 400C670.188 402.761 667.949 405 665.188 405H661.312C658.551 405 656.312 402.761 656.312 400ZM679.562 400C679.562 397.239 681.801 395 684.562 395H688.437C691.199 395 693.437 397.239 693.437 400C693.437 402.761 691.199 405 688.437 405H684.562C681.801 405 679.562 402.761 679.562 400ZM702.812 400C702.812 397.239 705.051 395 707.812 395H711.688C714.449 395 716.688 397.239 716.688 400C716.688 402.761 714.449 405 711.688 405H707.812C705.051 405 702.812 402.761 702.812 400ZM726.062 400C726.062 397.239 728.301 395 731.062 395H734.938C737.699 395 739.938 397.239 739.938 400C739.938 402.761 737.699 405 734.938 405H731.062C728.301 405 726.062 402.761 726.062 400ZM749.312 400C749.312 397.239 751.551 395 754.312 395H758.187C760.949 395 763.187 397.239 763.187 400C763.187 402.761 760.949 405 758.187 405H754.312C751.551 405 749.312 402.761 749.312 400ZM772.562 400C772.562 397.239 774.801 395 777.562 395H781.438C784.199 395 786.438 397.239 786.438 400C786.438 402.761 784.199 405 781.438 405H777.562C774.801 405 772.562 402.761 772.562 400ZM795.812 400C795.812 397.239 798.051 395 800.812 395H804.688C807.449 395 809.688 397.239 809.688 400C809.688 402.761 807.449 405 804.688 405H800.812C798.051 405 795.812 402.761 795.812 400ZM819.062 400C819.062 397.239 821.301 395 824.062 395H826C828.761 395 831 397.239 831 400C831 402.761 828.761 405 826 405H824.062C821.301 405 819.062 402.761 819.062 400ZM848.5 375C846.015 375 844 377.015 844 379.5V420.5C844 422.985 846.015 425 848.5 425C850.985 425 853 422.985 853 420.5V379.5C853 377.015 850.985 375 848.5 375Z"></path></svg>