<svg id="components-stack-illustration" style="width: 100%; height: 100%" width="1344" height="759" viewBox="0 0 1344 759" fill="none" xmlns="http://www.w3.org/2000/svg" class="css-0"><rect style="fill:var(--color-illustrationBackground020)" width="1344" height="759"></rect><path style="fill:var(--color-illustrationPalette030)" opacity="0.9" d="M443.291 509.095C425.661 498.918 425.661 482.417 443.291 472.239L640.079 358.633C657.709 348.456 686.292 348.456 703.922 358.633L900.71 472.239C918.34 482.417 918.34 498.918 900.71 509.095L703.922 622.701C686.292 632.879 657.709 632.879 640.079 622.701L443.291 509.095Z"></path><path style="fill:var(--color-illustrationPalette040)" opacity="0.9" d="M443.291 435.095C425.661 424.918 425.661 408.417 443.291 398.239L640.079 284.633C657.709 274.456 686.292 274.456 703.922 284.633L900.71 398.239C918.34 408.417 918.34 424.918 900.71 435.095L703.922 548.701C686.292 558.879 657.709 558.879 640.079 548.701L443.291 435.095Z"></path><path style="fill:var(--color-illustrationPalette050)" opacity="0.9" d="M443.291 361.095C425.661 350.918 425.661 334.417 443.291 324.239L640.079 210.633C657.709 200.456 686.292 200.456 703.922 210.633L900.71 324.239C918.34 334.417 918.34 350.918 900.71 361.095L703.922 474.701C686.292 484.879 657.709 484.879 640.079 474.701L443.291 361.095Z"></path><path style="fill:var(--color-illustrationPalette060)" opacity="0.9" d="M443.291 287.595C425.661 277.418 425.661 260.917 443.291 250.739L640.079 137.133C657.709 126.956 686.292 126.956 703.922 137.133L900.71 250.739C918.34 260.917 918.34 277.418 900.71 287.595L703.922 401.201C686.292 411.379 657.709 411.379 640.079 401.201L443.291 287.595Z"></path></svg>