<svg id="components-standfirst-illustration" style="width: 100%; height: 100%" width="1344" height="759" viewBox="0 0 1344 759" fill="none" xmlns="http://www.w3.org/2000/svg" class="css-0"><rect style="fill:var(--color-illustrationBackground020)" width="1344" height="759"></rect><path fill-rule="evenodd" clip-rule="evenodd" d="M347.5 160C335.074 160 325 170.074 325 182.5C325 194.926 335.074 205 347.5 205H980.5C992.926 205 1003 194.926 1003 182.5C1003 170.074 992.926 160 980.5 160H347.5ZM329 453C329 448.029 333.029 444 338 444H997.995C1002.97 444 1007 448.029 1007 453C1007 457.971 1002.97 462 997.995 462H338C333.029 462 329 457.971 329 453ZM338 490C333.029 490 329 494.029 329 499C329 503.971 333.029 508 338 508H997.995C1002.97 508 1007 503.971 1007 499C1007 494.029 1002.97 490 997.995 490H338ZM329 545C329 540.029 333.029 536 338 536H932.555C937.525 536 941.555 540.029 941.555 545C941.555 549.971 937.525 554 932.555 554H338C333.029 554 329 549.971 329 545ZM329 591C329 586.029 333.029 582 338 582H591.655C596.625 582 600.655 586.029 600.655 591C600.655 595.971 596.625 600 591.655 600H338C333.029 600 329 595.971 329 591Z" fill="#AEBFFF"></path><rect x="519" y="346" width="430" height="28" rx="14" fill="#577FFB"></rect><path fill-rule="evenodd" clip-rule="evenodd" d="M349.785 380.029C350.856 380.029 351.809 379.347 352.153 378.333L357.237 363.351C357.581 362.336 358.534 361.654 359.605 361.654H394.922C395.993 361.654 396.945 362.336 397.289 363.351L402.374 378.333C402.718 379.347 403.67 380.029 404.741 380.029H426.257C427.992 380.029 429.199 378.307 428.608 376.677L393.306 279.296C392.588 277.318 390.709 276 388.604 276H366.219C364.114 276 362.235 277.318 361.518 279.296L326.215 376.677C325.624 378.307 326.832 380.029 328.566 380.029H349.785ZM389.239 338.686C389.795 340.309 388.589 341.997 386.874 341.997H367.937C366.225 341.997 365.019 340.316 365.569 338.694L374.982 310.913C375.748 308.654 378.942 308.648 379.716 310.905L389.239 338.686Z" fill="#577FFB"></path><path fill-rule="evenodd" clip-rule="evenodd" d="M433.614 380.823C438.174 380.823 442.175 379.915 445.614 378.1C449.054 376.285 451.74 373.903 453.673 370.953V377.415C453.673 378.796 454.792 379.915 456.173 379.915H471C472.381 379.915 473.5 378.796 473.5 377.415V319.113C473.5 317.732 472.381 316.613 471 316.613H456.173C454.792 316.613 453.673 317.732 453.673 319.113V325.575C451.818 322.625 449.17 320.243 445.73 318.428C442.29 316.613 438.29 315.705 433.73 315.705C428.396 315.705 423.565 317.029 419.236 319.676C414.907 322.323 411.487 326.104 408.974 331.02C406.462 335.936 405.206 341.646 405.206 348.15C405.206 354.655 406.462 360.384 408.974 365.337C411.487 370.291 414.907 374.111 419.236 376.795C423.565 379.48 428.357 380.823 433.614 380.823ZM439.353 364.267C435.453 364.267 432.145 362.818 429.431 359.919C426.716 357.019 425.358 353.096 425.358 348.148C425.358 343.2 426.716 339.315 429.431 336.493C432.145 333.671 435.453 332.26 439.353 332.26C443.253 332.26 446.561 333.691 449.276 336.551C451.99 339.412 453.348 343.316 453.348 348.264C453.348 353.212 451.99 357.116 449.276 359.977C446.561 362.837 443.253 364.267 439.353 364.267Z" fill="#87A4FC"></path><rect x="519" y="289" width="484" height="28" rx="14" fill="#577FFB"></rect></svg>