<svg id="components-url-illustration" style="width: 100%; height: 100%" width="1344" height="759" viewBox="0 0 1344 759" fill="none" xmlns="http://www.w3.org/2000/svg" class="css-0"><rect style="fill:var(--color-illustrationBackground020)" width="1344" height="759"></rect><ellipse style="fill:var(--color-illustrationShadow010)" cx="672.5" cy="588.5" rx="102.5" ry="9.5"></ellipse><mask id="nk-64" mask-type="alpha" maskUnits="userSpaceOnUse" x="466" y="174" width="413" height="412"><path style="fill:var(--color-white)" d="M619.097 181.5C509.228 210.94 443.972 323.667 473.344 433.284C502.716 542.902 615.593 607.898 725.462 578.459C835.331 549.02 900.587 436.292 871.216 326.675C841.844 217.058 728.967 152.061 619.097 181.5Z"></path></mask><g mask="url(#nk-64)"><path style="fill:var(--color-illustrationInterface080)" d="M619.097 181.5C509.228 210.94 443.972 323.667 473.344 433.284C502.716 542.902 615.593 607.898 725.462 578.459C835.331 549.02 900.587 436.292 871.216 326.675C841.844 217.058 728.967 152.061 619.097 181.5Z"></path></g><mask id="nk-65" mask-type="alpha" maskUnits="userSpaceOnUse" x="466" y="174" width="413" height="412"><path style="fill:var(--color-white)" d="M619.097 181.5C509.228 210.94 443.972 323.667 473.344 433.284C502.716 542.902 615.593 607.898 725.462 578.459C835.331 549.02 900.587 436.292 871.216 326.675C841.844 217.058 728.967 152.061 619.097 181.5Z"></path></mask><g mask="url(#nk-65)"><path style="fill:var(--color-illustrationPalette060)" d="M619.097 181.5C509.228 210.94 443.972 323.667 473.344 433.284C502.716 542.902 615.593 607.898 725.462 578.459C835.331 549.02 900.587 436.292 871.216 326.675C841.844 217.058 728.967 152.061 619.097 181.5Z"></path><path style="fill:var(--color-illustrationPalette050)" fill-rule="evenodd" clip-rule="evenodd" d="M886.162 346.105C867.471 237.878 807.247 212.784 805.86 212.042C765.329 190.353 676.778 150.215 614.397 172.615C552.016 195.014 489.525 328.375 554.968 392.686C614.106 450.8 603.956 516.088 645.647 539.731C687.339 563.374 746.731 565.201 803.226 537.92C859.72 510.639 904.853 454.333 886.162 346.105Z"></path><path style="fill:var(--color-illustrationPalette040)" fill-rule="evenodd" clip-rule="evenodd" d="M888.055 236.889C935.526 304.049 916.762 349.294 916.417 350.423C906.336 383.411 892.838 429.042 847.724 450.315C802.609 471.588 729.552 450.787 728.019 450.234C697.678 439.292 697.838 388.621 679.338 356.589C659.463 322.174 643.891 292.48 653.554 257.841C663.216 223.203 708.51 198.864 742.095 179.479C774.841 160.579 840.583 169.73 888.055 236.889Z"></path><path style="fill:var(--color-illustrationPalette030)" fill-rule="evenodd" clip-rule="evenodd" d="M903.968 233.417C931.211 271.958 920.442 297.922 920.244 298.57C914.459 317.501 906.713 343.687 880.824 355.894C854.934 368.102 813.01 356.165 812.13 355.848C794.718 349.569 794.81 320.49 784.193 302.108C772.787 282.359 763.852 265.318 769.397 245.441C774.942 225.563 800.934 211.596 820.207 200.471C838.999 189.625 876.726 194.877 903.968 233.417Z"></path></g><path style="fill:var(--color-illustrationPalette010)" d="M689.144 299.541L656.999 320.416C653.294 322.823 652.241 327.777 654.647 331.483L658.578 337.535C660.984 341.241 665.939 342.294 669.644 339.887L701.789 319.013C717.816 308.604 739.464 313.231 749.896 329.295C760.328 345.359 755.75 367.018 739.723 377.426L707.578 398.301C703.873 400.707 702.82 405.662 705.226 409.367L709.156 415.42C711.563 419.125 716.517 420.178 720.223 417.772L752.367 396.897C779.177 379.487 786.773 343.549 769.323 316.679C751.873 289.809 715.953 282.131 689.144 299.541Z"></path><path style="fill:var(--color-illustrationPalette010)" d="M685.357 422.269C682.951 418.564 677.996 417.51 674.291 419.917L642.146 440.792C626.119 451.2 604.471 446.573 594.039 430.509C583.607 414.445 588.185 392.787 604.212 382.378L636.357 361.503C640.062 359.097 641.115 354.142 638.709 350.437L634.778 344.385C632.372 340.679 627.417 339.626 623.712 342.032L591.567 362.907C564.758 380.317 557.162 416.255 574.612 443.125C592.061 469.995 627.982 477.673 654.791 460.263L686.935 439.388C690.641 436.982 691.694 432.027 689.288 428.321L685.357 422.269Z"></path><path style="fill:var(--color-illustrationPalette010)" d="M631.775 402.832C629.368 399.127 630.421 394.172 634.127 391.766L698.195 350.159C701.901 347.753 706.855 348.806 709.262 352.512L712.805 357.968C715.211 361.673 714.158 366.628 710.453 369.034L646.384 410.641C642.679 413.047 637.724 411.994 635.318 408.289L631.775 402.832Z"></path></svg>