<svg width="1490" height="838" viewBox="0 0 1490 838" fill="none" xmlns="http://www.w3.org/2000/svg">
<g clip-path="url(#clip0_512_58229)">
<path d="M0 0H1490V838H0V0Z" fill="#5E44E4"/>
<path d="M-1601.99 631.999C-1875.6 608.168 -1901.14 622.019 -2054.35 747.051L-1140.21 2135.14L2258.44 548.727C2300.54 529.075 2317.96 477.709 2297.34 433.997C2289.43 417.248 2276.81 403.136 2260.31 395.338C2145.23 340.965 1882.47 278.901 1572.05 390.431C1152.79 541.067 1055.53 517.52 569.211 446.459C82.8905 375.398 -339.832 752.351 -757.703 810.8C-1175.57 869.249 -1314.73 657.02 -1601.99 631.999Z" fill="#442EB5"/>
<path d="M462.112 259.538C462.112 306.227 424.263 344.076 377.573 344.076C330.884 344.076 293.035 306.227 293.035 259.538C293.035 212.849 330.884 175 377.573 175C424.263 175 462.112 212.849 462.112 259.538Z" fill="#442EB5"/>
<path d="M262.198 449.903C262.198 473.1 243.392 491.906 220.195 491.906C196.997 491.906 178.191 473.1 178.191 449.903C178.191 426.705 196.997 407.899 220.195 407.899C243.392 407.899 262.198 426.705 262.198 449.903Z" fill="#E5E0FF"/>
<path d="M179.252 248.925C179.252 257.44 172.349 264.344 163.833 264.344C155.317 264.344 148.414 257.44 148.414 248.925C148.414 240.409 155.317 233.506 163.833 233.506C172.349 233.506 179.252 240.409 179.252 248.925Z" fill="#7264EF"/>
<path d="M1342.58 112.813C1342.58 134.249 1325.21 151.626 1303.77 151.626C1282.33 151.626 1264.96 134.249 1264.96 112.813C1264.96 91.3772 1282.33 74 1303.77 74C1325.21 74 1342.58 91.3772 1342.58 112.813Z" fill="#9B87FC"/>
<path d="M42.6263 112.813C42.6263 134.249 25.249 151.626 3.81314 151.626C-17.6228 151.626 -35 134.249 -35 112.813C-35 91.3772 -17.6228 74 3.81314 74C25.249 74 42.6263 91.3772 42.6263 112.813Z" fill="#9B87FC"/>
<path fill-rule="evenodd" clip-rule="evenodd" d="M1082.2 273L1082.2 273H587.504L439.66 333.507H949.566L1082.2 273L949.566 333.511V629.856L991 597.35V615H1308V614.574L1363.67 565.594L1364.26 393.549L1083.13 393.549L1082.2 393.93V273ZM439.66 333.86H949.566V630.205H439.66V615.242H126V393.549H439.66V393.169H126L255.327 347.904L439.66 347.904V333.86Z" fill="#0A0A0A" fill-opacity="0.3"/>
<rect x="126" y="380.549" width="381.456" height="221.693" fill="#5E44E4"/>
<path d="M507.457 380.17L584.789 334.904V556.598L507.457 601.863V380.17Z" fill="#4C33CC"/>
<path d="M126 380.169H507.456L584.788 334.905H255.327L126 380.169Z" fill="#BBAEFF"/>
<path opacity="0.31" d="M394.602 601.75H439.661L571.5 615.209L584.788 261.755L439.661 334.904L415.668 379.963H425.617L394.602 601.75Z" fill="url(#paint0_linear_512_58229)"/>
<rect x="439.66" y="320.859" width="509.906" height="296.345" fill="#5E44E4"/>
<path d="M949.566 320.511L1082.2 260V512.802L949.566 616.856V320.511Z" fill="#442EB5"/>
<path d="M439.66 320.507H949.566L1082.2 260H587.504L439.66 320.507Z" fill="#BBAEFF"/>
<path opacity="0.31" d="M949.944 616.38L991.492 601.75H1096.83L1081.03 379.964V260L973.351 309.741L948.773 320.86L949.944 616.38Z" fill="url(#paint1_linear_512_58229)"/>
<rect x="991" y="418" width="317" height="184" fill="#5E44E4"/>
<path d="M1307.67 418.075L1364.26 380.549L1363.67 552.594L1307.67 601.863V418.075Z" fill="#36248C"/>
<path d="M991.438 418.074H1307.67L1364.26 380.549H1083.13L991.438 418.074Z" fill="#BBAEFF"/>
<circle r="30.5" transform="matrix(1 1.42105e-10 1.42105e-10 -1 832.5 52)" fill="#36248C"/>
<circle r="17.5" transform="matrix(1 1.42105e-10 1.42105e-10 -1 940.5 192.5)" fill="#7264EF"/>
</g>
<defs>
<linearGradient id="paint0_linear_512_58229" x1="127.685" y1="643.36" x2="653.031" y2="984.523" gradientUnits="userSpaceOnUse">
<stop offset="0.127832" stop-color="#432BBB" stop-opacity="0"/>
<stop offset="0.554923" stop-color="#221465"/>
</linearGradient>
<linearGradient id="paint1_linear_512_58229" x1="683.028" y1="643.36" x2="1208.37" y2="984.524" gradientUnits="userSpaceOnUse">
<stop stop-color="#221465"/>
<stop offset="0.7415" stop-color="#432BBB" stop-opacity="0"/>
</linearGradient>
<clipPath id="clip0_512_58229">
<rect width="1490" height="838" fill="white"/>
</clipPath>
</defs>
</svg>
