<svg width="1344" height="760" viewBox="0 0 1344 760" fill="none" xmlns="http://www.w3.org/2000/svg">
<g clip-path="url(#clip0_12:186415)">
<path d="M0 0.902222H1344V759.902H0V0.902222Z" fill="#5E44E4"/>
<path d="M154.882 344.567C159.474 332.653 172.589 326.419 184.726 330.382L450.697 417.226C457 419.284 460.439 426.063 458.377 432.365L377.047 680.899C370.101 702.126 347.118 713.553 326.001 706.277L261.83 684.169C255.509 681.991 252.187 675.068 254.443 668.775L298.161 546.789C299.394 543.347 295.744 540.191 292.516 541.909L98.0974 645.383C77.6343 656.274 52.2277 647.545 42.7785 626.377L21.7411 579.251C19.1401 573.424 21.554 566.58 27.2352 563.675L214.5 467.909C217.663 466.291 217.305 461.662 213.932 460.549L133.859 434.133C127.345 431.984 123.955 424.822 126.421 418.422L154.882 344.567Z" fill="#442EB5"/>
<path d="M190.401 356.682C194.673 344.196 208.223 337.5 220.736 341.694L452.954 419.518C459.256 421.63 462.641 428.462 460.503 434.756L379.908 672.019C377.805 678.211 371.132 681.579 364.902 679.593L303.424 659.997C297.033 657.959 293.553 651.079 295.699 644.724L331.146 539.76C332.277 536.409 328.823 533.347 325.632 534.871L111.382 637.214C105.428 640.058 98.2946 637.561 95.4137 631.625L71.3543 582.048C68.4993 576.165 70.8802 569.079 76.7084 566.113L294.428 455.335C297.584 453.729 297.251 449.117 293.896 447.981L184.553 410.977C178.261 408.847 174.896 402.011 177.046 395.726L190.401 356.682Z" fill="#BBAEFF"/>
<path d="M198.632 331.952C200.784 325.714 207.57 322.384 213.821 324.499L457.121 406.807C463.406 408.934 466.773 415.757 464.636 422.039L386.06 653.031C383.954 659.222 377.277 662.587 371.048 660.597L321.818 644.872C315.409 642.825 311.935 635.91 314.118 629.547L353.343 515.224C354.495 511.869 351.033 508.786 347.834 510.317L123.27 617.75C117.316 620.599 110.179 618.104 107.296 612.166L88.52 573.491C85.6617 567.603 88.0481 560.511 93.8842 557.549L320.73 442.419C323.904 440.808 323.551 436.166 320.171 435.053L190.647 392.409C184.289 390.316 180.873 383.425 183.056 377.097L198.632 331.952Z" fill="#E5E0FF"/>
<path d="M1117.56 373.627C1100.99 378.928 1083.07 378.057 1067.1 371.173L881.14 291.012C868.967 285.764 863.353 271.642 868.602 259.469L953.821 61.8353C962.925 40.7224 987.911 31.612 1008.47 41.9103L1051.88 63.6563C1057.67 66.5577 1060.11 73.5319 1057.4 79.4134L1014.61 172.126C1013.11 175.38 1016.32 178.815 1019.67 177.541L1210.17 105.063C1230.47 97.34 1253.23 107.227 1261.43 127.337L1276.55 164.391C1279.06 170.549 1276.09 177.575 1269.92 180.058L1047.11 269.709C1044.42 270.789 1043.74 274.274 1045.82 276.289L1124.65 352.824C1131.15 359.135 1128.58 370.099 1119.95 372.862L1117.56 373.627Z" fill="#442EB5"/>
<path d="M1142.37 351.468C1139.73 357.546 1132.66 360.331 1126.58 357.688L914.181 265.329C908.103 262.686 905.319 255.617 907.962 249.539L1000.04 37.7795C1002.69 31.7018 1009.75 28.9173 1015.83 31.56L1064.15 52.5685C1070.22 55.2113 1073.01 62.2806 1070.37 68.3583L1030.42 160.21C1029.02 163.448 1032.19 166.79 1035.5 165.55L1248.03 85.8932C1254.17 83.5928 1261.02 86.6431 1263.42 92.7444L1281.46 138.715C1283.87 144.847 1280.89 151.774 1274.77 154.233L1063.26 239.339C1059.97 240.664 1059.9 245.302 1063.16 246.718L1157.08 287.557C1163.15 290.2 1165.94 297.269 1163.3 303.347L1142.37 351.468Z" fill="#BBAEFF"/>
<mask id="mask0_12:186415" style="mask-type:alpha" maskUnits="userSpaceOnUse" x="906" y="30" width="377" height="329">
<path d="M1142.37 351.468C1139.73 357.546 1132.66 360.331 1126.58 357.688L914.181 265.329C908.103 262.686 905.319 255.617 907.962 249.539L1000.04 37.7795C1002.69 31.7018 1009.75 28.9173 1015.83 31.56L1064.15 52.5685C1070.22 55.2113 1073.01 62.2806 1070.37 68.3583L1030.42 160.21C1029.02 163.448 1032.19 166.79 1035.5 165.55L1248.03 85.8932C1254.17 83.5928 1261.02 86.6431 1263.42 92.7444L1281.46 138.715C1283.87 144.847 1280.89 151.774 1274.77 154.233L1063.26 239.339C1059.97 240.664 1059.9 245.302 1063.16 246.718L1157.08 287.557C1163.15 290.2 1165.94 297.269 1163.3 303.347L1142.37 351.468Z" fill="#BBAEFF"/>
</mask>
<g mask="url(#mask0_12:186415)">
<path d="M1149.48 354.826C1146.82 360.862 1139.77 363.611 1133.72 360.98L921.165 268.575C915.08 265.929 912.297 258.848 914.953 252.767L1003.03 51.0809C1005.65 45.0876 1012.59 42.2938 1018.63 44.7987L1060.12 62.0035C1066.34 64.5803 1069.22 71.7618 1066.51 77.92L1022.98 176.895C1021.55 180.142 1024.74 183.504 1028.05 182.246L1238.25 102.561C1244.42 100.222 1251.33 103.306 1253.7 109.464L1267.03 144.019C1269.38 150.125 1266.41 156.993 1260.35 159.455L1047.47 245.911C1044.17 247.25 1044.14 251.906 1047.41 253.298L1159.91 301.118C1166.07 303.737 1168.9 310.889 1166.19 317.012L1149.48 354.826Z" fill="#E5E0FF"/>
<path d="M1148.13 354.918C1145.5 360.963 1138.49 363.756 1132.42 361.173L895.272 260.174C889.156 257.569 886.323 250.487 888.955 244.382L975.052 44.712C984.156 23.599 1009.14 14.4886 1029.7 24.787L1069.94 44.9457C1075.73 47.8471 1078.17 54.8214 1075.46 60.7029L1034.46 149.539C1032.96 152.793 1036.17 156.228 1039.52 154.954L1221.86 85.5813C1242.16 77.8583 1264.92 87.7454 1273.12 107.855L1287.05 141.993C1289.56 148.151 1286.59 155.177 1280.42 157.66L1069.05 242.706C1065.76 244.031 1065.7 248.669 1068.95 250.085L1162.87 290.924C1168.95 293.567 1171.73 300.636 1169.09 306.714L1148.13 354.918Z" fill="#442EB5"/>
<path d="M1142.37 351.451C1139.73 357.529 1132.66 360.313 1126.58 357.671L914.178 265.312C908.101 262.669 905.316 255.599 907.959 249.522L1000.04 37.7624C1002.68 31.6847 1009.75 28.9002 1015.83 31.543L1064.14 52.5514C1070.22 55.1942 1073 62.2635 1070.36 68.3412L1030.42 160.193C1029.01 163.431 1032.19 166.773 1035.49 165.533L1248.03 85.8761C1254.17 83.5757 1261.02 86.626 1263.41 92.7273L1281.46 138.698C1283.87 144.83 1280.88 151.757 1274.77 154.216L1063.26 239.322C1059.96 240.647 1059.9 245.285 1063.15 246.701L1157.07 287.54C1163.15 290.183 1165.94 297.252 1163.29 303.33L1142.37 351.451Z" fill="#BBAEFF"/>
<path d="M1158.62 337.652C1156.26 344.165 1148.9 347.341 1142.55 344.582L931.299 252.844C925.229 250.208 922.438 243.156 925.062 237.08L1009.45 41.6387C1012.07 35.5804 1019.09 32.7711 1025.16 35.3502L1067.93 53.5105C1074.05 56.1087 1076.89 63.1866 1074.27 69.2943L1036.78 156.517C1035.38 159.771 1038.59 163.104 1041.89 161.828L1249.82 81.58C1255.96 79.2134 1262.85 82.2204 1265.29 88.3245L1281.68 129.374C1284.14 135.537 1281.14 142.527 1274.97 144.977L1050.91 233.959C1047.58 235.278 1047.53 239.96 1050.82 241.358L1163.97 289.456C1169.83 291.948 1172.73 298.586 1170.56 304.577L1158.62 337.652Z" fill="#E5E0FF"/>
</g>
<path d="M840.203 538.606C838.967 539.122 837.554 538.985 836.44 538.241L696.918 445.094C694.458 443.452 691.128 444.954 690.733 447.885L669.126 607.896C668.935 609.304 668.013 610.505 666.703 611.052L553.332 658.391C550.427 659.604 547.325 657.141 547.846 654.037L593.965 379.581C594.227 378.027 593.55 376.463 592.238 375.589L364.979 224.221C362.321 222.45 362.708 218.431 365.656 217.2L482.105 168.576C483.341 168.06 484.753 168.197 485.867 168.941L623.336 260.72C625.797 262.363 629.128 260.858 629.521 257.925L650.664 100.34C650.853 98.9313 651.776 97.7286 653.088 97.1809L766.458 49.8423C769.362 48.6296 772.465 51.0914 771.944 54.1955L726.292 326.236C726.031 327.791 726.708 329.353 728.02 330.227L957.328 482.961C959.986 484.732 959.599 488.751 956.652 489.982L840.203 538.606Z" fill="#BBAEFF"/>
</g>
<defs>
<clipPath id="clip0_12:186415">
<path d="M0 0.902222H1344V759.902H0V0.902222Z" fill="white"/>
</clipPath>
</defs>
</svg>
