<svg width="1490" height="838" viewBox="0 0 1490 838" fill="none" xmlns="http://www.w3.org/2000/svg">
<g clip-path="url(#clip0_512_58142)">
<rect width="1490" height="838" fill="#5E44E4"/>
<path fill-rule="evenodd" clip-rule="evenodd" d="M2297.12 276.233C2201.77 379.535 2185.18 391.834 1990.24 402.392C1910.17 406.728 1843.19 388.636 1774.05 369.962C1666.46 340.901 1553.65 310.43 1378.16 360.885C1263.09 393.969 1152.54 462.853 1039.02 533.591C868.163 640.053 690.569 750.715 480.666 749.852C466.068 749.792 451.957 749.723 438.296 749.656C125.011 748.114 48.7864 747.739 -219.544 889.457C-426.879 998.959 -618.006 981.525 -704.431 954.752C-716.826 950.912 -727.118 942.24 -734.352 931.242C-753.23 902.537 -746.106 864.645 -718.438 846.609L-191.712 503.243C-345.173 542.233 -407.583 569.463 -565.592 691.06C-708.156 800.772 -843.969 822.672 -906.347 819.924C-915.379 819.526 -923.574 815.094 -929.623 808.4C-943.586 792.947 -942.332 769.151 -926.823 755.251L607.746 -620.074L1028.13 -291.958L1515.09 -609.396L2297.12 276.233Z" fill="#4C33CC"/>
<mask id="mask0_512_58142" style="mask-type:alpha" maskUnits="userSpaceOnUse" x="544" y="223" width="379" height="378">
<path d="M675.188 232.505C575.811 264.612 521.22 371.016 553.253 470.164C585.287 569.312 691.816 623.66 791.192 591.552C890.569 559.445 945.16 453.041 913.127 353.893C881.093 254.745 774.564 200.397 675.188 232.505Z" fill="white"/>
</mask>
<g mask="url(#mask0_512_58142)">
<path d="M675.188 232.505C575.811 264.612 521.22 371.016 553.253 470.164C585.287 569.312 691.816 623.66 791.192 591.552C890.569 559.445 945.16 453.041 913.127 353.893C881.093 254.745 774.564 200.397 675.188 232.505Z" fill="#442EB5"/>
</g>
<mask id="mask1_512_58142" style="mask-type:alpha" maskUnits="userSpaceOnUse" x="544" y="223" width="379" height="378">
<path d="M675.188 232.505C575.811 264.612 521.22 371.016 553.253 470.164C585.287 569.312 691.816 623.66 791.192 591.552C890.569 559.445 945.16 453.041 913.127 353.893C881.093 254.745 774.564 200.397 675.188 232.505Z" fill="white"/>
</mask>
<g mask="url(#mask1_512_58142)">
<path d="M675.188 232.505C575.811 264.612 521.22 371.016 553.253 470.164C585.287 569.312 691.816 623.66 791.192 591.552C890.569 559.445 945.16 453.041 913.127 353.893C881.093 254.745 774.564 200.397 675.188 232.505Z" fill="#442EB5"/>
<path fill-rule="evenodd" clip-rule="evenodd" d="M917.598 371.529C895.423 273.158 839.032 252.95 837.725 252.334C799.551 234.332 716.485 201.648 660.326 225.091C604.167 248.533 553.071 373.728 616.073 429.653C673.004 480.19 666.735 540.529 706.065 560.269C745.395 580.009 799.94 578.92 850.474 551.276C901.008 523.631 939.773 469.9 917.598 371.529Z" fill="#5E44E4"/>
<path fill-rule="evenodd" clip-rule="evenodd" d="M904.626 281.948C951.281 341.322 936.18 383.682 935.916 384.734C928.207 415.452 917.953 457.922 877.575 479.528C837.196 501.134 769.238 485.46 767.807 485.024C739.476 476.402 737.264 429.931 718.81 401.42C698.983 370.788 683.323 344.284 690.572 312.072C697.82 279.86 738.22 255.434 768.114 236.097C797.262 217.242 857.971 222.574 904.626 281.948Z" fill="#9B87FC"/>
<path fill-rule="evenodd" clip-rule="evenodd" d="M909.43 288.678C936.204 322.75 927.538 347.06 927.387 347.663C922.963 365.291 917.079 389.663 893.907 402.062C870.735 414.461 831.736 405.466 830.915 405.216C814.657 400.268 813.388 373.6 802.798 357.239C791.42 339.66 782.433 324.45 786.593 305.965C790.752 287.48 813.936 273.463 831.092 262.365C847.818 251.546 882.657 254.605 909.43 288.678Z" fill="#E5E0FF"/>
</g>
<path fill-rule="evenodd" clip-rule="evenodd" d="M533.405 357.687C533.894 355.356 532.401 353.07 530.07 352.581C529.357 352.431 528.645 352.282 527.934 352.133C525.603 351.646 523.318 353.141 522.831 355.473C522.343 357.804 523.838 360.089 526.17 360.576C526.878 360.724 527.588 360.873 528.298 361.022C530.629 361.511 532.915 360.018 533.405 357.687ZM510.077 352.87C510.542 350.534 509.025 348.264 506.689 347.799C505.273 347.517 503.859 347.237 502.45 346.96C500.113 346.499 497.845 348.021 497.385 350.358C496.925 352.695 498.446 354.962 500.783 355.422C502.187 355.699 503.595 355.977 505.006 356.258C507.342 356.723 509.613 355.206 510.077 352.87ZM484.627 347.912C485.063 345.57 483.518 343.319 481.177 342.883C479.747 342.616 478.32 342.352 476.898 342.091C474.556 341.659 472.307 343.209 471.876 345.551C471.445 347.894 472.995 350.142 475.337 350.573C476.753 350.834 478.173 351.097 479.598 351.362C481.939 351.798 484.191 350.253 484.627 347.912ZM459.107 343.274C459.512 340.927 457.937 338.696 455.59 338.292C454.157 338.045 452.729 337.801 451.306 337.559C448.958 337.16 446.731 338.74 446.332 341.088C445.933 343.436 447.513 345.663 449.861 346.062C451.278 346.302 452.699 346.546 454.125 346.792C456.472 347.196 458.703 345.621 459.107 343.274ZM433.497 338.988C433.866 336.635 432.258 334.428 429.905 334.059C428.483 333.836 427.067 333.616 425.656 333.398C423.302 333.035 421.099 334.649 420.736 337.003C420.373 339.357 421.987 341.559 424.341 341.922C425.745 342.139 427.154 342.358 428.568 342.58C430.921 342.949 433.128 341.341 433.497 338.988ZM407.836 335.106C408.165 332.747 406.519 330.569 404.16 330.24C402.733 330.041 401.312 329.845 399.897 329.653C397.537 329.331 395.363 330.984 395.042 333.344C394.721 335.704 396.373 337.877 398.733 338.199C400.139 338.39 401.551 338.585 402.97 338.782C405.329 339.111 407.507 337.465 407.836 335.106ZM940.597 480.427C939.666 482.619 940.689 485.151 942.881 486.082C943.569 486.374 944.254 486.665 944.937 486.957C947.127 487.892 949.661 486.874 950.596 484.683C951.531 482.493 950.513 479.959 948.323 479.024C947.635 478.73 946.944 478.437 946.252 478.143C944.059 477.212 941.528 478.234 940.597 480.427ZM382.115 331.691C382.396 329.326 380.706 327.181 378.341 326.901C376.91 326.731 375.487 326.564 374.072 326.402C371.706 326.13 369.567 327.827 369.295 330.194C369.023 332.56 370.721 334.698 373.087 334.97C374.491 335.132 375.904 335.297 377.324 335.465C379.69 335.746 381.834 334.057 382.115 331.691ZM963.048 490.145C962.067 492.316 963.032 494.87 965.202 495.851C966.564 496.466 967.915 497.08 969.254 497.693C971.42 498.684 973.979 497.732 974.97 495.566C975.961 493.4 975.009 490.841 972.843 489.85C971.491 489.232 970.128 488.612 968.754 487.991C966.583 487.01 964.029 487.975 963.048 490.145ZM356.339 328.836C356.561 326.464 354.818 324.362 352.447 324.14C350.998 324.005 349.559 323.874 348.131 323.747C345.758 323.537 343.664 325.289 343.454 327.662C343.243 330.034 344.996 332.128 347.368 332.338C348.783 332.464 350.209 332.594 351.644 332.728C354.015 332.95 356.118 331.207 356.339 328.836ZM987.279 501.389C986.229 503.527 987.11 506.111 989.248 507.161C990.58 507.815 991.897 508.467 993.199 509.117C995.33 510.18 997.92 509.315 998.983 507.184C1000.05 505.053 999.182 502.463 997.051 501.4C995.732 500.741 994.398 500.081 993.05 499.419C990.913 498.369 988.328 499.251 987.279 501.389ZM330.499 326.68C330.643 324.303 328.834 322.258 326.456 322.113C324.983 322.023 323.524 321.939 322.078 321.861C319.699 321.731 317.667 323.554 317.537 325.933C317.408 328.311 319.231 330.344 321.61 330.473C323.037 330.55 324.477 330.634 325.932 330.722C328.309 330.867 330.354 329.057 330.499 326.68ZM1011.07 513.485C1009.92 515.573 1010.69 518.194 1012.77 519.34C1014.08 520.055 1015.36 520.766 1016.62 521.474C1018.7 522.64 1021.32 521.902 1022.49 519.825C1023.66 517.748 1022.92 515.12 1020.84 513.954C1019.56 513.232 1018.25 512.507 1016.92 511.779C1014.84 510.633 1012.21 511.397 1011.07 513.485ZM304.563 325.46C304.598 323.078 302.696 321.119 300.315 321.084C298.842 321.062 297.387 321.047 295.951 321.04C293.569 321.028 291.628 322.949 291.616 325.331C291.604 327.712 293.525 329.653 295.907 329.665C297.315 329.672 298.741 329.686 300.187 329.708C302.569 329.743 304.528 327.841 304.563 325.46ZM1034.17 526.816C1032.87 528.813 1033.44 531.484 1035.43 532.781C1036.68 533.59 1037.89 534.392 1039.07 535.188C1041.04 536.521 1043.72 536.001 1045.06 534.027C1046.39 532.054 1045.87 529.373 1043.9 528.04C1042.67 527.215 1041.42 526.384 1040.13 525.549C1038.14 524.251 1035.46 524.818 1034.17 526.816ZM278.63 325.631C278.486 323.254 276.442 321.443 274.065 321.587C272.563 321.678 271.09 321.78 269.647 321.894C267.272 322.081 265.499 324.157 265.686 326.532C265.873 328.906 267.95 330.679 270.324 330.492C271.713 330.383 273.134 330.284 274.586 330.196C276.963 330.052 278.774 328.008 278.63 325.631ZM1055.91 542.267C1054.3 544.026 1054.42 546.753 1056.18 548.359C1057.28 549.358 1058.3 550.337 1059.24 551.297C1060.91 552.992 1063.64 553.012 1065.34 551.339C1067.04 549.667 1067.05 546.936 1065.38 545.241C1064.32 544.165 1063.19 543.082 1062 541.991C1060.24 540.384 1057.51 540.508 1055.91 542.267ZM252.818 328.278C252.281 325.957 249.965 324.511 247.644 325.047C246.11 325.402 244.634 325.783 243.22 326.19C240.932 326.849 239.61 329.239 240.269 331.527C240.929 333.816 243.318 335.137 245.607 334.478C246.861 334.117 248.188 333.774 249.587 333.451C251.908 332.914 253.354 330.598 252.818 328.278ZM1072.78 563.043C1070.4 562.888 1068.35 564.689 1068.19 567.065C1068.16 567.536 1068.09 567.987 1067.97 568.424C1067.86 568.834 1067.71 569.237 1067.52 569.635C1066.5 571.785 1067.41 574.359 1069.56 575.384C1071.71 576.41 1074.28 575.498 1075.31 573.349C1075.72 572.48 1076.06 571.579 1076.3 570.648C1076.57 569.657 1076.73 568.648 1076.8 567.627C1076.95 565.25 1075.15 563.198 1072.78 563.043ZM228.613 337.781C226.469 336.743 223.89 337.638 222.851 339.781C222.417 340.677 222.069 341.608 221.812 342.571C221.563 343.503 221.403 344.45 221.33 345.409C221.148 347.784 222.925 349.857 225.3 350.039C227.675 350.221 229.747 348.444 229.93 346.069C229.963 345.63 230.036 345.206 230.145 344.796C230.258 344.371 230.413 343.954 230.613 343.543C231.651 341.4 230.756 338.82 228.613 337.781ZM1058.45 581.475C1057.77 579.192 1055.37 577.893 1053.09 578.573C1051.91 578.924 1050.66 579.259 1049.34 579.576C1047.03 580.135 1045.61 582.465 1046.17 584.78C1046.72 587.095 1049.05 588.519 1051.37 587.96C1052.82 587.61 1054.21 587.237 1055.55 586.839C1057.83 586.159 1059.13 583.757 1058.45 581.475ZM231.896 360.855C230.169 362.496 230.099 365.225 231.739 366.952C232.7 367.963 233.722 368.982 234.803 370.006C236.532 371.645 239.261 371.571 240.9 369.843C242.538 368.114 242.465 365.384 240.736 363.746C239.755 362.816 238.841 361.905 237.993 361.012C236.353 359.285 233.623 359.215 231.896 360.855ZM1033.92 586.536C1033.72 584.163 1031.63 582.404 1029.25 582.607C1027.92 582.721 1026.55 582.826 1025.16 582.919C1022.78 583.079 1020.98 585.135 1021.14 587.511C1021.3 589.888 1023.36 591.685 1025.74 591.525C1027.18 591.428 1028.6 591.32 1029.99 591.201C1032.36 590.997 1034.12 588.909 1033.92 586.536ZM250.642 377.467C249.283 379.423 249.767 382.11 251.723 383.469C252.869 384.265 254.045 385.066 255.251 385.871C257.231 387.194 259.909 386.661 261.232 384.68C262.555 382.699 262.021 380.021 260.041 378.699C258.877 377.921 257.744 377.15 256.644 376.386C254.688 375.027 252 375.511 250.642 377.467ZM1008.79 587.87C1008.79 585.488 1006.86 583.558 1004.48 583.56C1003.1 583.56 1001.71 583.554 1000.29 583.541C997.911 583.518 995.962 585.43 995.94 587.812C995.917 590.193 997.829 592.143 1000.21 592.165C1001.65 592.179 1003.08 592.185 1004.48 592.185C1006.86 592.184 1008.79 590.252 1008.79 587.87ZM271.761 391.145C270.573 393.21 271.284 395.846 273.348 397.034C274.566 397.735 275.804 398.439 277.061 399.146C279.137 400.313 281.766 399.576 282.934 397.5C284.101 395.424 283.364 392.795 281.288 391.627C280.055 390.935 278.843 390.245 277.65 389.559C275.586 388.371 272.949 389.081 271.761 391.145ZM983.607 587.424C983.725 585.045 981.892 583.021 979.513 582.903C978.142 582.835 976.757 582.762 975.359 582.683C972.981 582.55 970.945 584.369 970.812 586.747C970.678 589.125 972.498 591.161 974.876 591.295C976.292 591.374 977.695 591.448 979.086 591.517C981.465 591.635 983.489 589.802 983.607 587.424ZM293.82 403.309C292.737 405.43 293.578 408.028 295.699 409.111C296.939 409.744 298.193 410.379 299.46 411.016C301.588 412.085 304.18 411.227 305.25 409.099C306.319 406.97 305.461 404.378 303.332 403.309C302.081 402.681 300.845 402.054 299.622 401.43C297.501 400.347 294.903 401.188 293.82 403.309ZM958.516 585.872C958.716 583.499 956.954 581.413 954.581 581.213C953.184 581.095 951.776 580.973 950.358 580.846C947.985 580.635 945.891 582.387 945.679 584.759C945.468 587.131 947.219 589.226 949.592 589.437C951.024 589.565 952.446 589.688 953.857 589.807C956.231 590.007 958.317 588.245 958.516 585.872ZM316.346 414.467C315.336 416.624 316.267 419.191 318.424 420.201C319.707 420.801 321.002 421.403 322.307 422.006C324.469 423.004 327.031 422.061 328.03 419.899C329.029 417.737 328.086 415.174 325.924 414.176C324.631 413.579 323.35 412.983 322.08 412.389C319.922 411.379 317.355 412.31 316.346 414.467ZM933.472 583.532C933.734 581.165 932.027 579.033 929.66 578.772C928.281 578.619 926.893 578.463 925.498 578.303C923.131 578.032 920.993 579.73 920.722 582.097C920.451 584.463 922.15 586.601 924.516 586.872C925.923 587.033 927.321 587.19 928.712 587.344C931.079 587.606 933.21 585.899 933.472 583.532ZM339.225 424.919C338.272 427.102 339.27 429.644 341.453 430.596C342.735 431.156 344.026 431.716 345.325 432.277C347.512 433.221 350.05 432.214 350.994 430.028C351.938 427.841 350.931 425.303 348.745 424.359C347.455 423.802 346.174 423.246 344.902 422.691C342.719 421.738 340.178 422.736 339.225 424.919ZM908.406 580.574C908.718 578.212 907.057 576.045 904.696 575.733C903.339 575.554 901.977 575.372 900.607 575.187C898.247 574.868 896.075 576.522 895.756 578.882C895.437 581.243 897.091 583.415 899.451 583.734C900.829 583.92 902.201 584.104 903.566 584.284C905.927 584.596 908.094 582.935 908.406 580.574ZM362.431 434.845C361.525 437.047 362.576 439.567 364.778 440.474C366.052 440.998 367.332 441.522 368.62 442.047C370.825 442.947 373.342 441.888 374.242 439.683C375.141 437.477 374.082 434.96 371.877 434.061C370.598 433.539 369.325 433.018 368.06 432.497C365.858 431.591 363.337 432.642 362.431 434.845ZM883.549 577.138C883.902 574.782 882.28 572.586 879.924 572.233C878.545 572.026 877.161 571.816 875.771 571.604C873.416 571.244 871.216 572.86 870.856 575.215C870.496 577.569 872.113 579.77 874.467 580.13C875.865 580.343 877.257 580.554 878.644 580.762C880.999 581.116 883.195 579.493 883.549 577.138ZM385.694 444.253C384.827 446.471 385.923 448.972 388.141 449.84C389.447 450.35 390.759 450.861 392.077 451.372C394.298 452.234 396.796 451.132 397.657 448.911C398.518 446.691 397.417 444.192 395.196 443.331C393.885 442.823 392.58 442.314 391.281 441.807C389.063 440.94 386.562 442.035 385.694 444.253ZM858.628 573.264C859.018 570.914 857.429 568.693 855.08 568.304C853.715 568.077 852.346 567.848 850.973 567.617C848.624 567.222 846.399 568.805 846.004 571.154C845.609 573.503 847.192 575.727 849.541 576.123C850.921 576.355 852.297 576.585 853.668 576.812C856.018 577.202 858.239 575.613 858.628 573.264ZM409.231 453.313C408.398 455.544 409.531 458.028 411.763 458.861C413.065 459.347 414.372 459.834 415.685 460.32C417.918 461.148 420.399 460.008 421.227 457.775C422.055 455.542 420.915 453.06 418.682 452.232C417.376 451.748 416.075 451.265 414.779 450.781C412.548 449.948 410.064 451.081 409.231 453.313ZM833.859 569.038C834.281 566.694 832.723 564.451 830.379 564.029C829.014 563.784 827.645 563.536 826.272 563.286C823.929 562.859 821.683 564.412 821.256 566.756C820.829 569.099 822.383 571.344 824.726 571.771C826.105 572.022 827.48 572.271 828.851 572.518C831.195 572.94 833.437 571.382 833.859 569.038ZM432.811 461.992C432.009 464.234 433.176 466.703 435.419 467.505C436.182 467.778 436.946 468.051 437.712 468.324C438.263 468.521 438.815 468.717 439.367 468.913C441.612 469.711 444.078 468.538 444.875 466.294C445.673 464.05 444.5 461.584 442.256 460.786C440.941 460.319 439.63 459.852 438.325 459.384C436.082 458.582 433.614 459.749 432.811 461.992ZM809.117 564.479C809.568 562.14 808.038 559.879 805.699 559.428C804.326 559.163 802.949 558.896 801.568 558.627C799.23 558.171 796.966 559.697 796.511 562.035C796.055 564.373 797.581 566.637 799.919 567.093C801.305 567.363 802.687 567.631 804.067 567.897C806.405 568.348 808.667 566.817 809.117 564.479ZM456.534 470.369C455.759 472.621 456.957 475.075 459.21 475.849C460.538 476.306 461.87 476.763 463.206 477.219C465.46 477.989 467.912 476.786 468.682 474.533C469.452 472.279 468.249 469.827 465.995 469.057C464.664 468.603 463.337 468.148 462.014 467.693C459.762 466.919 457.308 468.117 456.534 470.369ZM784.395 559.613C784.872 557.28 783.368 555.001 781.035 554.524C779.669 554.244 778.3 553.962 776.928 553.679C774.595 553.197 772.314 554.697 771.832 557.029C771.35 559.362 772.85 561.643 775.182 562.125C776.559 562.41 777.934 562.693 779.305 562.973C781.638 563.451 783.917 561.947 784.395 559.613ZM480.393 478.471C479.644 480.732 480.87 483.172 483.131 483.92C484.46 484.36 485.792 484.8 487.128 485.239C489.391 485.984 491.828 484.753 492.573 482.491C493.317 480.228 492.087 477.791 489.824 477.047C488.493 476.609 487.166 476.17 485.842 475.732C483.581 474.984 481.141 476.21 480.393 478.471ZM504.313 486.295C503.588 488.564 504.84 490.991 507.109 491.715C508.433 492.137 509.76 492.56 511.09 492.982C513.36 493.702 515.785 492.446 516.505 490.176C517.225 487.906 515.969 485.481 513.699 484.761C512.374 484.34 511.051 483.919 509.732 483.498C507.463 482.774 505.037 484.026 504.313 486.295ZM759.757 554.477C760.26 552.149 758.78 549.854 756.452 549.352C755.099 549.059 753.743 548.765 752.384 548.469C750.057 547.963 747.76 549.439 747.253 551.766C746.746 554.093 748.222 556.39 750.549 556.897C751.913 557.194 753.273 557.489 754.632 557.782C756.96 558.285 759.255 556.805 759.757 554.477ZM735.2 549.087C735.726 546.764 734.27 544.455 731.947 543.928C730.59 543.621 729.232 543.312 727.871 543.001C725.549 542.471 723.237 543.923 722.706 546.245C722.176 548.567 723.629 550.88 725.951 551.41C727.316 551.722 728.68 552.032 730.041 552.34C732.364 552.867 734.674 551.41 735.2 549.087ZM528.29 493.86C527.588 496.136 528.865 498.55 531.141 499.251C532.475 499.662 533.812 500.072 535.151 500.483C537.428 501.18 539.84 499.899 540.537 497.622C541.235 495.345 539.954 492.933 537.677 492.236C536.342 491.827 535.01 491.418 533.681 491.008C531.404 490.307 528.991 491.584 528.29 493.86ZM710.68 543.448C711.229 541.13 709.795 538.806 707.478 538.257C706.119 537.936 704.759 537.613 703.398 537.288C701.081 536.735 698.755 538.165 698.202 540.482C697.65 542.799 699.08 545.125 701.396 545.677C702.763 546.003 704.127 546.328 705.49 546.65C707.807 547.199 710.131 545.765 710.68 543.448ZM552.358 501.189C551.679 503.472 552.98 505.873 555.262 506.552C556.605 506.952 557.949 507.35 559.296 507.749C561.58 508.424 563.979 507.12 564.655 504.836C565.33 502.552 564.026 500.153 561.742 499.478C560.399 499.081 559.059 498.683 557.721 498.285C555.439 497.606 553.037 498.907 552.358 501.189ZM686.205 537.57C686.776 535.258 685.364 532.921 683.052 532.35C681.694 532.015 680.334 531.678 678.972 531.34C676.661 530.766 674.321 532.174 673.747 534.485C673.173 536.797 674.581 539.136 676.893 539.711C678.258 540.05 679.623 540.388 680.985 540.724C683.298 541.295 685.635 539.883 686.205 537.57ZM576.506 508.29C575.849 510.579 577.172 512.968 579.461 513.626C580.81 514.013 582.161 514.4 583.514 514.786C585.804 515.44 588.191 514.114 588.845 511.824C589.499 509.534 588.173 507.147 585.882 506.493C584.533 506.108 583.187 505.722 581.842 505.336C579.553 504.678 577.164 506.001 576.506 508.29ZM661.782 531.464C662.374 529.157 660.983 526.807 658.676 526.215C657.319 525.867 655.96 525.517 654.6 525.166C652.294 524.571 649.941 525.958 649.346 528.264C648.751 530.57 650.138 532.922 652.444 533.518C653.808 533.87 655.171 534.221 656.533 534.57C658.84 535.162 661.19 533.771 661.782 531.464ZM600.724 515.167C600.088 517.462 601.432 519.839 603.727 520.475C605.082 520.851 606.438 521.226 607.797 521.601C610.093 522.234 612.468 520.886 613.101 518.59C613.734 516.293 612.386 513.919 610.09 513.286C608.735 512.912 607.383 512.538 606.033 512.164C603.737 511.527 601.361 512.872 600.724 515.167ZM637.413 525.136C638.026 522.834 636.656 520.472 634.355 519.859C633.677 519.679 632.999 519.498 632.32 519.317C632.011 519.235 631.702 519.152 631.393 519.07C631.024 518.971 630.655 518.872 630.286 518.773C627.986 518.158 625.621 519.523 625.005 521.824C624.389 524.125 625.755 526.489 628.056 527.105C628.735 527.287 629.416 527.469 630.096 527.65C630.777 527.832 631.457 528.013 632.137 528.194C634.438 528.807 636.801 527.438 637.413 525.136Z" fill="#E5E0FF"/>
<path fill-rule="evenodd" clip-rule="evenodd" d="M888.718 301.132C887.921 298.887 889.096 296.422 891.341 295.626C892.042 295.377 892.743 295.129 893.443 294.882C895.688 294.087 898.153 295.264 898.947 297.509C899.741 299.755 898.564 302.219 896.319 303.013C895.621 303.26 894.922 303.507 894.223 303.755C891.979 304.551 889.514 303.377 888.718 301.132ZM911.699 293.061C910.924 290.808 912.122 288.355 914.374 287.58C915.775 287.098 917.174 286.618 918.571 286.14C920.825 285.37 923.276 286.572 924.047 288.825C924.818 291.079 923.616 293.53 921.362 294.301C919.97 294.777 918.576 295.255 917.18 295.736C914.927 296.511 912.473 295.313 911.699 293.061ZM936.823 284.519C936.073 282.259 937.297 279.818 939.557 279.068C940.953 278.604 942.346 278.143 943.737 277.684C945.999 276.938 948.437 278.167 949.183 280.429C949.929 282.691 948.701 285.129 946.439 285.875C945.054 286.332 943.665 286.792 942.275 287.253C940.014 288.004 937.574 286.78 936.823 284.519ZM962.038 276.255C961.314 273.986 962.566 271.56 964.835 270.835C966.25 270.383 967.662 269.934 969.072 269.487C971.342 268.767 973.766 270.024 974.486 272.295C975.206 274.565 973.949 276.989 971.679 277.709C970.275 278.154 968.868 278.602 967.458 279.052C965.189 279.776 962.762 278.524 962.038 276.255ZM987.356 268.285C986.66 266.008 987.942 263.597 990.219 262.9C991.624 262.471 993.026 262.044 994.424 261.62C996.703 260.928 999.111 262.215 999.803 264.494C1000.49 266.773 999.207 269.182 996.928 269.873C995.536 270.295 994.14 270.721 992.741 271.148C990.463 271.845 988.053 270.563 987.356 268.285ZM1012.78 260.637C1012.11 258.35 1013.42 255.956 1015.71 255.291C1017.14 254.876 1018.56 254.464 1019.97 254.055C1022.26 253.395 1024.65 254.715 1025.31 257.004C1025.97 259.292 1024.65 261.682 1022.36 262.342C1020.95 262.749 1019.54 263.159 1018.12 263.572C1015.83 264.238 1013.44 262.923 1012.78 260.637ZM1038.25 253.356C1037.62 251.06 1038.97 248.686 1041.27 248.055C1042.71 247.658 1044.15 247.265 1045.58 246.876C1047.88 246.251 1050.25 247.607 1050.87 249.905C1051.5 252.204 1050.14 254.573 1047.84 255.199C1046.42 255.586 1044.99 255.977 1043.55 256.371C1041.26 257.003 1038.88 255.653 1038.25 253.356ZM1063.92 246.455C1063.33 244.148 1064.72 241.798 1067.03 241.206C1068.45 240.841 1069.87 240.48 1071.28 240.122C1073.59 239.538 1075.93 240.935 1076.52 243.244C1077.1 245.553 1075.7 247.899 1073.4 248.483C1071.99 248.839 1070.58 249.198 1069.17 249.56C1066.86 250.152 1064.51 248.762 1063.92 246.455ZM1089.68 240.026C1089.14 237.707 1090.57 235.386 1092.89 234.841C1094.33 234.503 1095.76 234.169 1097.19 233.84C1099.51 233.304 1101.82 234.75 1102.36 237.071C1102.89 239.391 1101.45 241.707 1099.13 242.244C1097.71 242.57 1096.29 242.901 1094.87 243.237C1092.55 243.782 1090.23 242.344 1089.68 240.026ZM539.453 456.574C540.65 458.633 539.951 461.273 537.892 462.47C537.316 462.805 536.741 463.14 536.169 463.474C534.112 464.676 531.471 463.982 530.27 461.925C529.069 459.869 529.762 457.228 531.819 456.027C532.396 455.689 532.976 455.352 533.557 455.014C535.616 453.817 538.256 454.515 539.453 456.574ZM1115.56 234.157C1115.08 231.825 1116.57 229.54 1118.9 229.053C1120.35 228.75 1121.79 228.452 1123.22 228.16C1125.56 227.683 1127.84 229.189 1128.31 231.523C1128.79 233.856 1127.28 236.134 1124.95 236.611C1123.53 236.9 1122.1 237.195 1120.67 237.495C1118.34 237.983 1116.05 236.488 1115.56 234.157ZM520.635 467.685C521.881 469.715 521.245 472.37 519.215 473.616C518.077 474.314 516.95 475.009 515.833 475.702C513.809 476.958 511.15 476.335 509.895 474.311C508.639 472.287 509.262 469.628 511.286 468.373C512.415 467.672 513.555 466.969 514.704 466.264C516.735 465.019 519.39 465.655 520.635 467.685ZM1141.59 228.988C1141.18 226.642 1142.75 224.407 1145.09 223.995C1146.54 223.739 1147.98 223.491 1149.41 223.25C1151.76 222.852 1153.99 224.434 1154.38 226.782C1154.78 229.131 1153.2 231.356 1150.85 231.754C1149.44 231.992 1148.02 232.237 1146.58 232.489C1144.24 232.902 1142 231.334 1141.59 228.988ZM500.42 480.363C501.733 482.35 501.186 485.025 499.199 486.338C498.094 487.068 497.001 487.795 495.922 488.518C493.944 489.844 491.265 489.315 489.939 487.337C488.613 485.358 489.142 482.679 491.12 481.353C492.216 480.619 493.324 479.882 494.445 479.141C496.432 477.829 499.107 478.375 500.42 480.363ZM1167.73 224.768C1167.42 222.405 1169.09 220.243 1171.45 219.938C1172.97 219.742 1174.47 219.555 1175.95 219.378C1178.32 219.096 1180.46 220.785 1180.75 223.15C1181.03 225.515 1179.34 227.661 1176.97 227.943C1175.52 228.116 1174.05 228.299 1172.56 228.492C1170.19 228.797 1168.03 227.13 1167.73 224.768ZM480.709 493.772C482.115 495.695 481.697 498.393 479.775 499.799C478.704 500.582 477.653 501.359 476.619 502.131C474.711 503.557 472.009 503.166 470.583 501.258C469.158 499.35 469.549 496.648 471.456 495.222C472.514 494.432 473.589 493.637 474.683 492.837C476.605 491.431 479.303 491.85 480.709 493.772ZM1194.15 221.93C1194.02 219.552 1195.85 217.52 1198.23 217.391C1199.76 217.308 1201.27 217.24 1202.75 217.187C1205.13 217.101 1207.13 218.961 1207.21 221.341C1207.3 223.722 1205.44 225.721 1203.06 225.806C1201.63 225.858 1200.18 225.923 1198.69 226.004C1196.31 226.132 1194.28 224.308 1194.15 221.93ZM461.778 508.245C463.331 510.051 463.126 512.774 461.32 514.327C460.317 515.189 459.343 516.041 458.399 516.885C456.623 518.471 453.897 518.317 452.31 516.541C450.724 514.764 450.878 512.038 452.654 510.452C453.64 509.571 454.655 508.682 455.697 507.786C457.503 506.234 460.226 506.439 461.778 508.245ZM1220.71 221.61C1220.97 219.243 1223.11 217.538 1225.47 217.801C1227.05 217.977 1228.57 218.185 1230.03 218.425C1232.38 218.811 1233.98 221.029 1233.59 223.379C1233.2 225.73 1230.99 227.322 1228.64 226.936C1227.33 226.722 1225.96 226.534 1224.52 226.373C1222.15 226.109 1220.45 223.977 1220.71 221.61ZM444.361 524.511C446.203 526.02 446.474 528.737 444.965 530.58C444.136 531.592 443.371 532.578 442.67 533.538C441.265 535.461 438.567 535.882 436.644 534.477C434.72 533.072 434.3 530.374 435.705 528.451C436.508 527.352 437.371 526.24 438.292 525.115C439.801 523.272 442.518 523.002 444.361 524.511ZM1246.39 228.419C1248.4 227.144 1251.06 227.741 1252.34 229.753C1252.88 230.612 1253.34 231.517 1253.71 232.467C1254.06 233.365 1254.32 234.289 1254.5 235.235C1254.94 237.575 1253.4 239.83 1251.06 240.271C1248.72 240.712 1246.46 239.172 1246.02 236.832C1245.94 236.398 1245.82 235.986 1245.67 235.589C1245.51 235.171 1245.3 234.766 1245.05 234.37C1243.78 232.359 1244.37 229.694 1246.39 228.419ZM431.943 544.992C434.28 544.531 436.548 546.051 437.01 548.388C437.091 548.798 437.205 549.19 437.351 549.567C437.505 549.963 437.697 550.348 437.929 550.722C439.183 552.747 438.559 555.405 436.535 556.66C434.51 557.914 431.852 557.29 430.597 555.265C430.091 554.448 429.66 553.589 429.311 552.69C428.979 551.835 428.725 550.957 428.548 550.059C428.087 547.722 429.607 545.454 431.943 544.992ZM448.244 561.498C448.669 559.154 450.914 557.6 453.258 558.026C454.469 558.246 455.745 558.442 457.086 558.614C459.448 558.916 461.118 561.076 460.816 563.439C460.513 565.801 458.353 567.471 455.991 567.169C454.513 566.98 453.088 566.761 451.715 566.512C449.372 566.086 447.818 563.841 448.244 561.498ZM1245.69 251.744C1247.58 253.186 1247.95 255.891 1246.51 257.787C1245.67 258.898 1244.76 260.022 1243.8 261.158C1242.26 262.976 1239.54 263.202 1237.72 261.663C1235.9 260.124 1235.68 257.403 1237.22 255.585C1238.09 254.554 1238.9 253.548 1239.64 252.568C1241.09 250.672 1243.79 250.303 1245.69 251.744ZM473.18 563.844C473.123 561.463 475.006 559.486 477.387 559.428C478.727 559.396 480.096 559.35 481.494 559.29C483.874 559.189 485.885 561.036 485.986 563.415C486.088 565.795 484.241 567.806 481.861 567.907C480.413 567.969 478.991 568.017 477.596 568.051C475.215 568.108 473.238 566.225 473.18 563.844ZM1228.87 270.308C1230.44 272.103 1230.25 274.828 1228.45 276.392C1227.4 277.309 1226.32 278.234 1225.21 279.166C1223.39 280.697 1220.67 280.46 1219.13 278.636C1217.6 276.812 1217.84 274.092 1219.66 272.56C1220.74 271.661 1221.78 270.77 1222.79 269.89C1224.58 268.325 1227.31 268.512 1228.87 270.308ZM498.302 562.42C498.043 560.053 499.752 557.923 502.119 557.663C503.487 557.514 504.873 557.355 506.277 557.186C508.642 556.903 510.788 558.591 511.071 560.956C511.355 563.321 509.667 565.467 507.302 565.75C505.871 565.922 504.456 566.084 503.059 566.237C500.691 566.497 498.562 564.788 498.302 562.42ZM1209.38 286.215C1210.78 288.137 1210.37 290.836 1208.44 292.242C1207.31 293.073 1206.16 293.908 1204.98 294.748C1203.05 296.135 1200.35 295.69 1198.97 293.754C1197.58 291.819 1198.02 289.124 1199.96 287.737C1201.11 286.913 1202.24 286.095 1203.35 285.283C1205.27 283.876 1207.97 284.293 1209.38 286.215ZM523.288 559.22C522.91 556.868 524.511 554.656 526.862 554.278C528.218 554.061 529.586 553.836 530.967 553.605C533.316 553.212 535.539 554.798 535.932 557.147C536.325 559.496 534.739 561.719 532.39 562.112C530.991 562.346 529.604 562.574 528.229 562.794C525.878 563.172 523.665 561.572 523.288 559.22ZM1188.78 300.72C1190.09 302.71 1189.54 305.384 1187.55 306.693C1186.39 307.458 1185.21 308.226 1184.02 308.998C1182.02 310.294 1179.35 309.724 1178.05 307.726C1176.76 305.727 1177.33 303.057 1179.33 301.761C1180.5 301 1181.66 300.241 1182.81 299.487C1184.8 298.178 1187.47 298.73 1188.78 300.72ZM548.057 554.932C547.599 552.594 549.122 550.328 551.459 549.87C552.835 549.6 554.221 549.324 555.617 549.044C557.952 548.574 560.226 550.086 560.696 552.42C561.166 554.755 559.654 557.029 557.319 557.499C555.909 557.783 554.51 558.061 553.119 558.333C550.782 558.792 548.516 557.269 548.057 554.932ZM1167.61 314.276C1168.85 316.31 1168.21 318.964 1166.17 320.203C1164.96 320.94 1163.74 321.68 1162.51 322.422C1160.47 323.651 1157.82 322.994 1156.59 320.954C1155.36 318.915 1156.02 316.264 1158.06 315.035C1159.28 314.3 1160.49 313.568 1161.69 312.838C1163.72 311.598 1166.37 312.242 1167.61 314.276ZM572.695 549.865C572.176 547.541 573.639 545.235 575.963 544.716C577.318 544.413 578.68 544.106 580.05 543.795C582.372 543.266 584.683 544.721 585.211 547.043C585.74 549.365 584.285 551.676 581.963 552.205C580.583 552.519 579.21 552.828 577.845 553.133C575.52 553.653 573.215 552.19 572.695 549.865ZM1146.01 327.169C1147.2 329.235 1146.49 331.87 1144.42 333.056C1143.21 333.753 1141.99 334.451 1140.76 335.151C1138.69 336.329 1136.05 335.606 1134.87 333.536C1133.7 331.465 1134.42 328.832 1136.49 327.655C1137.71 326.96 1138.92 326.267 1140.13 325.576C1142.19 324.39 1144.83 325.104 1146.01 327.169ZM597.287 544.181C596.718 541.868 598.132 539.532 600.445 538.964C601.774 538.637 603.109 538.307 604.449 537.973C606.76 537.398 609.101 538.805 609.676 541.116C610.252 543.427 608.845 545.767 606.534 546.343C605.185 546.679 603.841 547.011 602.504 547.34C600.191 547.908 597.855 546.494 597.287 544.181ZM1124.03 339.575C1125.18 341.665 1124.41 344.285 1122.32 345.427C1121.11 346.087 1119.89 346.749 1118.67 347.412C1116.58 348.547 1113.96 347.77 1112.82 345.677C1111.69 343.583 1112.47 340.965 1114.56 339.83C1115.77 339.171 1116.98 338.514 1118.18 337.858C1120.27 336.716 1122.89 337.485 1124.03 339.575ZM621.619 538.045C621.01 535.743 622.382 533.382 624.685 532.773C626.033 532.417 627.386 532.057 628.745 531.693C631.046 531.078 633.41 532.444 634.025 534.745C634.641 537.046 633.274 539.41 630.973 540.025C629.608 540.391 628.247 540.753 626.891 541.111C624.589 541.721 622.228 540.348 621.619 538.045ZM1101.94 351.473C1103.04 353.583 1102.23 356.189 1100.12 357.294C1098.88 357.944 1097.63 358.596 1096.37 359.248C1094.26 360.347 1091.66 359.525 1090.56 357.412C1089.46 355.299 1090.28 352.695 1092.39 351.596C1093.64 350.948 1094.88 350.3 1096.12 349.653C1098.23 348.548 1100.83 349.363 1101.94 351.473ZM645.966 531.467C645.321 529.175 646.657 526.793 648.95 526.149C650.282 525.774 651.617 525.397 652.958 525.017C655.249 524.367 657.633 525.697 658.283 527.989C658.933 530.28 657.603 532.665 655.311 533.315C653.965 533.697 652.622 534.076 651.284 534.452C648.992 535.096 646.61 533.76 645.966 531.467ZM1079.54 363.054C1080.61 365.181 1079.75 367.774 1077.63 368.846C1076.39 369.472 1075.14 370.098 1073.89 370.726C1071.76 371.793 1069.17 370.932 1068.1 368.802C1067.03 366.673 1067.89 364.082 1070.02 363.015C1071.27 362.391 1072.51 361.767 1073.74 361.145C1075.87 360.072 1078.46 360.927 1079.54 363.054ZM670.123 524.556C669.448 522.272 670.751 519.873 673.035 519.197C674.365 518.803 675.699 518.407 677.036 518.008C679.318 517.328 681.72 518.626 682.401 520.908C683.082 523.191 681.784 525.593 679.501 526.273C678.158 526.674 676.818 527.072 675.482 527.467C673.199 528.143 670.799 526.84 670.123 524.556ZM1057.05 374.262C1058.09 376.403 1057.2 378.984 1055.06 380.027C1053.81 380.637 1052.55 381.248 1051.29 381.859C1049.14 382.898 1046.57 382.002 1045.53 379.858C1044.49 377.715 1045.38 375.136 1047.53 374.097C1048.78 373.489 1050.03 372.881 1051.28 372.273C1053.42 371.23 1056 372.121 1057.05 374.262ZM694.218 517.316C693.514 515.041 694.787 512.626 697.063 511.922C698.399 511.508 699.738 511.092 701.081 510.674C703.355 509.965 705.773 511.234 706.482 513.508C707.19 515.782 705.921 518.2 703.647 518.908C702.299 519.328 700.954 519.746 699.612 520.161C697.337 520.865 694.922 519.592 694.218 517.316ZM1034.38 385.185C1035.4 387.339 1034.48 389.909 1032.32 390.925C1031.05 391.524 1029.78 392.124 1028.5 392.724C1026.35 393.736 1023.78 392.809 1022.76 390.653C1021.75 388.497 1022.68 385.929 1024.84 384.917C1025.45 384.627 1026.07 384.338 1026.68 384.049C1027.34 383.741 1027.99 383.433 1028.64 383.125C1030.8 382.108 1033.37 383.031 1034.38 385.185ZM718.259 509.775C717.529 507.508 718.775 505.078 721.042 504.348C722.369 503.92 723.7 503.491 725.032 503.059C727.298 502.324 729.73 503.566 730.464 505.831C731.199 508.097 729.957 510.529 727.692 511.263C726.354 511.697 725.019 512.128 723.687 512.557C721.419 513.288 718.99 512.042 718.259 509.775ZM1011.56 395.849C1012.55 398.015 1011.59 400.574 1009.43 401.565C1008.64 401.927 1007.85 402.289 1007.05 402.651C1006.57 402.872 1006.09 403.093 1005.6 403.314C1003.43 404.302 1000.88 403.345 999.888 401.178C998.901 399.011 999.857 396.453 1002.02 395.466C1003.3 394.885 1004.57 394.304 1005.84 393.723C1008 392.732 1010.56 393.684 1011.56 395.849ZM742.187 501.973C741.432 499.714 742.652 497.271 744.911 496.517C746.224 496.078 747.54 495.637 748.858 495.195C751.116 494.436 753.561 495.652 754.319 497.909C755.078 500.167 753.862 502.612 751.605 503.371C750.282 503.815 748.961 504.257 747.643 504.697C745.384 505.452 742.941 504.232 742.187 501.973ZM988.635 406.244C989.604 408.42 988.624 410.969 986.448 411.938C985.179 412.503 983.906 413.068 982.63 413.633C980.452 414.597 977.905 413.614 976.941 411.436C975.976 409.258 976.96 406.711 979.137 405.746C980.409 405.183 981.677 404.62 982.942 404.057C985.118 403.089 987.667 404.068 988.635 406.244ZM766.007 493.928C765.229 491.677 766.424 489.221 768.676 488.444C769.99 487.99 771.307 487.534 772.626 487.076C774.876 486.295 777.333 487.486 778.114 489.736C778.895 491.986 777.705 494.443 775.455 495.224C774.131 495.684 772.81 496.141 771.491 496.597C769.24 497.374 766.784 496.179 766.007 493.928ZM965.63 416.388C966.576 418.573 965.571 421.112 963.386 422.058C962.105 422.613 960.821 423.167 959.535 423.721C957.347 424.664 954.81 423.655 953.868 421.467C952.925 419.28 953.934 416.743 956.122 415.8C957.404 415.248 958.683 414.696 959.959 414.143C962.145 413.197 964.684 414.202 965.63 416.388ZM789.762 485.639C788.963 483.395 790.134 480.928 792.378 480.129C793.692 479.661 795.009 479.191 796.327 478.719C798.569 477.916 801.038 479.083 801.841 481.325C802.643 483.568 801.477 486.036 799.234 486.839C797.912 487.312 796.591 487.784 795.272 488.254C793.028 489.053 790.562 487.882 789.762 485.639ZM942.508 426.307C943.433 428.502 942.403 431.031 940.208 431.956C938.918 432.5 937.625 433.043 936.33 433.586C934.134 434.508 931.606 433.474 930.685 431.278C929.764 429.081 930.797 426.554 932.994 425.633C934.285 425.091 935.573 424.55 936.859 424.008C939.054 423.083 941.583 424.112 942.508 426.307ZM813.447 477.118C812.626 474.882 813.774 472.405 816.01 471.584C817.323 471.102 818.638 470.619 819.955 470.134C822.189 469.31 824.669 470.454 825.493 472.688C826.316 474.923 825.173 477.402 822.938 478.226C821.617 478.713 820.298 479.198 818.981 479.682C816.745 480.502 814.267 479.354 813.447 477.118ZM919.282 436.008C920.186 438.212 919.133 440.731 916.93 441.635C915.631 442.168 914.33 442.7 913.028 443.232C910.823 444.133 908.305 443.076 907.404 440.871C906.504 438.666 907.561 436.149 909.766 435.248C911.065 434.717 912.361 434.187 913.655 433.655C915.859 432.751 918.378 433.805 919.282 436.008ZM837.055 468.376C836.214 466.147 837.339 463.659 839.568 462.819C840.879 462.324 842.191 461.828 843.505 461.33C845.732 460.485 848.222 461.607 849.066 463.834C849.91 466.061 848.789 468.551 846.562 469.395C845.244 469.894 843.928 470.392 842.612 470.888C840.384 471.729 837.896 470.604 837.055 468.376ZM895.962 445.494C896.846 447.706 895.77 450.215 893.558 451.099C892.253 451.621 890.946 452.142 889.636 452.663C887.423 453.544 884.916 452.464 884.035 450.251C883.154 448.038 884.235 445.53 886.448 444.649C887.753 444.13 889.056 443.61 890.357 443.09C892.569 442.206 895.078 443.283 895.962 445.494ZM860.585 459.418C859.724 457.198 860.827 454.7 863.048 453.839C863.702 453.585 864.356 453.332 865.01 453.077C865.665 452.823 866.319 452.569 866.973 452.314C869.192 451.45 871.692 452.549 872.556 454.769C873.42 456.988 872.321 459.488 870.102 460.352C869.446 460.607 868.79 460.862 868.133 461.117C867.477 461.372 866.82 461.627 866.164 461.881C863.944 462.742 861.446 461.639 860.585 459.418Z" fill="#E5E0FF"/>
<circle cx="1173.97" cy="225.575" r="20.0205" transform="rotate(-2.90513 1173.97 225.575)" fill="#36248C"/>
<circle cx="332.296" cy="419.113" r="31.4608" transform="rotate(-2.90513 332.296 419.113)" fill="#9B87FC"/>
<circle r="30.5" transform="matrix(1 1.42105e-10 1.42105e-10 -1 128.5 94.5)" fill="#36248C"/>
<circle r="25.5" transform="matrix(1 1.42105e-10 1.42105e-10 -1 1331.5 530.5)" fill="#36248C"/>
<circle r="17.5" transform="matrix(1 1.42105e-10 1.42105e-10 -1 236.5 125.5)" fill="#7264EF"/>
<ellipse cx="1407.5" cy="75.5" rx="9.5" ry="11.5" transform="rotate(90 1407.5 75.5)" fill="#E5E0FF"/>
<ellipse cx="331.5" cy="52" rx="9.5" ry="12" transform="rotate(90 331.5 52)" fill="#E5E0FF"/>
<ellipse cx="979" cy="718.5" rx="10" ry="9.5" fill="#E5E0FF"/>
<ellipse cx="185.5" cy="784" rx="11.5" ry="10" fill="#36248C"/>
</g>
<defs>
<clipPath id="clip0_512_58142">
<rect width="1490" height="838" fill="white"/>
</clipPath>
</defs>
</svg>
