<svg width="1344" height="760" viewBox="0 0 1344 760" fill="none" xmlns="http://www.w3.org/2000/svg">
<g clip-path="url(#clip0_12:186411)">
<path d="M0 0.902344H1344V759.902H0V0.902344Z" fill="#5E44E4"/>
<path d="M-125.802 569.902L1514.42 705.952L1502 770.402L-132.382 649.228L-125.802 569.902Z" fill="#7264EF"/>
<path d="M-124.385 516.517L1515.84 652.566L1513.1 717.517L-127.118 581.468L-124.385 516.517Z" fill="#E5E0FF"/>
<ellipse cx="310.384" cy="581.531" rx="217.905" ry="20.9238" transform="rotate(5.2112 310.384 581.531)" fill="#442EB5"/>
<mask id="mask0_12:186411" style="mask-type:alpha" maskUnits="userSpaceOnUse" x="267" y="155" width="447" height="446">
<circle cx="490.4" cy="378.302" r="222.682" transform="rotate(-4.20178 490.4 378.302)" fill="#BBAEFF"/>
</mask>
<g mask="url(#mask0_12:186411)">
<circle cx="490.4" cy="378.302" r="222.682" transform="rotate(-4.20178 490.4 378.302)" fill="#36248C"/>
<circle cx="546.022" cy="352.298" r="219.95" transform="rotate(-4.20178 546.022 352.298)" fill="#7264EF"/>
<circle cx="597.118" cy="301.97" r="200.824" transform="rotate(-4.20178 597.118 301.97)" fill="#BBAEFF"/>
<circle cx="606.708" cy="255.376" r="146.861" transform="rotate(-4.20178 606.708 255.376)" fill="#E5E0FF"/>
</g>
</g>
<defs>
<clipPath id="clip0_12:186411">
<path d="M0 0.902344H1344V759.902H0V0.902344Z" fill="white"/>
</clipPath>
</defs>
</svg>
