<?xml version="1.0" encoding="UTF-8"?>
<svg width="1074px" height="606px" viewBox="0 0 1074 606" version="1.1" xmlns="http://www.w3.org/2000/svg" xmlns:xlink="http://www.w3.org/1999/xlink">
    <title>Assets/Header-Image/Sizing</title>
    <g id="Assets/Header-Image/Sizing" stroke="none" stroke-width="1" fill="none" fill-rule="evenodd">
        <rect id="Rectangle-Copy" fill="#F4F4F4" x="0" y="0.5" width="1074" height="605" rx="8"></rect>
        <g id="Group" transform="translate(320.000000, 75.739040)">
            <path d="M105.590119,128.82988 C107.798008,128.904172 109.52763,130.754246 109.453338,132.962136 C109.379046,135.170025 107.528972,136.899647 105.321082,136.825355 C104.045453,136.782432 102.757805,136.76096 101.458128,136.76096 C99.2489891,136.76096 97.4581281,134.970099 97.4581281,132.76096 C97.4581281,130.551821 99.2489891,128.76096 101.458128,128.76096 C102.84712,128.76096 104.224454,128.783927 105.590119,128.82988 Z M127.191141,131.708597 C129.337554,132.231289 130.65384,134.395026 130.131148,136.541439 C129.608457,138.687852 127.44472,140.004138 125.298307,139.481446 C124.065705,139.181284 122.81934,138.905931 121.559177,138.655399 C119.392443,138.224632 117.985163,136.118942 118.41593,133.952209 C118.846696,131.785475 120.952386,130.378195 123.11912,130.808961 C124.490428,131.08159 125.84778,131.381464 127.191141,131.708597 Z M147.725765,139.396461 C149.68394,140.419127 150.44232,142.835577 149.419654,144.793752 C148.396988,146.751926 145.980539,147.510306 144.022364,146.48764 C142.89748,145.900165 141.758325,145.339365 140.604848,144.805222 C138.600211,143.87693 137.727662,141.499321 138.655954,139.494684 C139.584246,137.490047 141.961855,136.617498 143.966492,137.54579 C145.235163,138.133277 146.488271,138.750174 147.725765,139.396461 Z M165.803299,151.900671 C167.455841,153.366754 167.606996,155.8949 166.140913,157.547442 C164.67483,159.199984 162.146684,159.351139 160.494142,157.885056 C159.535945,157.034973 158.564432,156.210802 157.579586,155.4125 C155.863435,154.021413 155.599919,151.5025 156.991005,149.786349 C158.382092,148.070198 160.901005,147.806682 162.617156,149.197768 C163.694453,150.071009 164.756506,150.97199 165.803299,151.900671 Z M180.466904,168.173504 C181.750373,169.97156 181.333218,172.469629 179.535163,173.753098 C177.737108,175.036566 175.239039,174.619412 173.95557,172.821357 C173.217783,171.787766 172.454361,170.767161 171.665267,169.759518 C170.303217,168.020232 170.609028,165.506102 172.348314,164.144053 C174.0876,162.782003 176.60173,163.087814 177.963779,164.8271 C178.825779,165.927842 179.660166,167.043318 180.466904,168.173504 Z M190.980503,187.434919 C191.797429,189.487461 190.795765,191.813624 188.743223,192.63055 C186.690681,193.447476 184.364518,192.445812 183.547592,190.39327 C183.076226,189.208954 182.57901,188.038284 182.055933,186.881212 C181.145916,184.868213 182.04006,182.498641 184.053059,181.588624 C186.066058,180.678608 188.435631,181.572752 189.345647,183.585751 C189.919068,184.854184 190.464024,186.137256 190.980503,187.434919 Z M196.678135,208.543074 C197.016548,210.726139 195.521162,212.7702 193.338097,213.108613 C191.155032,213.447026 189.110971,211.95164 188.772558,209.768575 C188.575146,208.495091 188.353944,207.234528 188.108969,205.986855 C187.68334,203.819107 189.095608,201.716759 191.263356,201.29113 C193.431105,200.865501 195.533453,202.277769 195.959082,204.445517 C196.224719,205.798421 196.464398,207.164283 196.678135,208.543074 Z M197.932214,230.294952 C197.857377,232.502823 196.006876,234.231989 193.799005,234.157152 C191.591134,234.082315 189.861968,232.231815 189.936805,230.023944 C189.964891,229.195352 189.983615,228.362077 189.992978,227.523808 L189.999956,226.161548 C189.998073,223.95241 191.787407,222.160023 193.996545,222.158135 C196.13874,222.156314 197.889058,223.838791 197.994888,225.955093 L198,226.262584 C198,227.617628 197.977415,228.961396 197.932214,230.294952 Z M194.99809,251.901412 C194.466875,254.045731 192.297925,255.35341 190.153606,254.822194 C188.009286,254.290979 186.701608,252.122029 187.232823,249.97771 C187.538221,248.744935 187.818362,247.49956 188.073237,246.241547 C188.511899,244.076398 190.622705,242.676804 192.787854,243.115466 C194.953003,243.554128 196.352597,245.664934 195.913935,247.830083 C195.636375,249.200067 195.331096,250.55719 194.99809,251.901412 Z M187.249259,272.403234 C186.224686,274.360412 183.807499,275.116438 181.850321,274.091864 C179.893143,273.067291 179.137118,270.650104 180.161691,268.692926 C180.751821,267.565638 181.315324,266.425588 181.852224,265.272732 C182.784866,263.270115 185.164364,262.40273 187.16698,263.335373 C189.169597,264.268015 190.036982,266.647513 189.104339,268.65013 C188.515168,269.915228 187.8968,271.166278 187.249259,272.403234 Z M174.836197,290.490951 C173.385174,292.156732 170.858505,292.330828 169.192724,290.879805 C167.526942,289.428782 167.352846,286.902113 168.80387,285.236332 C169.647497,284.267843 170.465706,283.287622 171.258532,282.295656 C172.637778,280.569974 175.154819,280.289132 176.8805,281.668378 C178.606182,283.047624 178.887023,285.564664 177.507778,287.290346 C176.644298,288.370712 175.75376,289.437585 174.836197,290.490951 Z M158.708866,305.321974 C156.920242,306.618554 154.41919,306.219674 153.12261,304.43105 C151.82603,302.642426 152.224911,300.141374 154.013535,298.844794 C155.039335,298.101188 156.051494,297.331319 157.050037,296.535148 C158.77733,295.157921 161.294041,295.441706 162.671267,297.168999 C164.048494,298.896292 163.764709,301.413003 162.037416,302.79023 C160.943411,303.662515 159.833886,304.506443 158.708866,305.321974 Z M139.452355,315.91631 C137.399424,316.732258 135.073738,315.729486 134.25779,313.676556 C133.441842,311.623625 134.444614,309.297939 136.497544,308.481991 C137.681293,308.011504 138.850686,307.514555 140.005775,306.991133 C142.017962,306.079322 144.38833,306.971352 145.300142,308.983539 C146.211953,310.995726 145.319922,313.366094 143.307735,314.277906 C142.037986,314.853286 140.752842,315.399424 139.452355,315.91631 Z M118.314259,321.548225 C116.129383,321.874744 114.093496,320.368248 113.766977,318.183373 C113.440458,315.998497 114.946953,313.96261 117.131829,313.636091 C118.406066,313.445662 119.666825,313.231081 120.914135,312.992364 C123.083894,312.577103 125.179466,313.999405 125.594727,316.169164 C126.009988,318.338923 124.587686,320.434495 122.417927,320.849756 C121.063515,321.108971 119.695616,321.341788 118.314259,321.548225 Z M96.5609899,322.66794 C94.3534771,322.583192 92.6326365,320.724947 92.7173848,318.517434 C92.8021331,316.309921 94.660378,314.58908 96.8678908,314.673829 C98.1447658,314.722849 99.4339507,314.751193 100.735453,314.758841 C102.944554,314.771822 104.72486,316.573176 104.711949,318.782277 C104.698897,320.991378 102.897544,322.771684 100.688443,322.758773 C99.3006607,322.750547 97.9248405,322.720299 96.5609899,322.66794 Z M74.9811644,319.754637 C72.8341198,319.234546 71.5152135,317.072405 72.0353047,314.925361 C72.5553959,312.778316 74.7175366,311.45941 76.8645812,311.979501 C78.0984571,312.27839 79.3465555,312.553225 80.6089096,312.80399 C82.7757098,313.234422 84.183314,315.339895 83.7528817,317.506696 C83.3224493,319.673496 81.2169764,321.0811 79.0501762,320.650668 C77.6794568,320.378376 76.3231085,320.079704 74.9811644,319.754637 Z M54.4346382,312.139354 C52.4717283,311.125806 51.7021186,308.71291 52.7156667,306.75 C53.7292149,304.78709 56.1421109,304.017481 58.1050208,305.031029 C59.23205,305.61297 60.3740521,306.168758 61.5310772,306.698411 C63.5397555,307.617925 64.4226976,309.991694 63.5031834,312.000372 C62.5836692,314.009051 60.2099002,314.891993 58.2012218,313.972479 C56.9294815,313.390313 55.6739368,312.779266 54.4346382,312.139354 Z M36.3019595,299.707889 C34.6453116,298.246447 34.4870658,295.718736 35.9485078,294.062088 C37.4099498,292.40544 39.9376611,292.247194 41.594309,293.708636 C42.5535676,294.554863 43.5269891,295.375331 44.5145954,296.17008 C46.2356711,297.555069 46.5081236,300.073032 45.123135,301.794107 C43.7381464,303.515183 41.2201838,303.787635 39.499108,302.402647 C38.4172669,301.532065 37.3515435,300.633799 36.3019595,299.707889 Z M21.5959985,283.47538 C20.3049299,281.682774 20.7115064,279.182961 22.5041126,277.891893 C24.2967188,276.600824 26.7965312,277.007401 28.0875998,278.800007 C28.8296766,279.830356 29.5976265,280.848651 30.3914862,281.854914 C31.7597739,283.589297 31.4629951,286.104508 29.7286123,287.472796 C27.9942294,288.841084 25.479018,288.544305 24.1107303,286.809922 C23.2447145,285.712198 22.4064584,284.600677 21.5959985,283.47538 Z M10.9925156,264.263715 C10.1670872,262.214578 11.1590991,259.884282 13.2082363,259.058853 C15.2573735,258.233425 17.5876693,259.225437 18.4130976,261.274574 C18.888936,262.455849 19.3912915,263.624234 19.9201797,264.779776 C20.8395717,266.788511 19.9564853,269.162226 17.947751,270.081618 C15.9390167,271.00101 13.5653013,270.117923 12.6459093,268.109189 C12.0656057,266.841312 11.5144692,265.559472 10.9925156,264.263715 Z M5.25314895,243.148668 C4.91743024,240.965187 6.41533731,238.922973 8.59881803,238.587254 C10.7822988,238.251535 12.8245134,239.749442 13.1602321,241.932923 C13.3557345,243.204451 13.5759231,244.463569 13.8207832,245.71031 C14.2465251,247.878037 12.8343675,249.980458 10.6666408,250.4062 C8.49891412,250.831942 6.39649243,249.419784 5.97075052,247.252058 C5.70456509,245.896736 5.46536943,244.528929 5.25314895,243.148668 Z M4.09508571,221.380266 C4.18189967,219.172833 6.04175393,217.453732 8.24918648,217.540546 C10.456619,217.62736 12.1757201,219.487214 12.0889061,221.694647 C12.0386986,222.971282 12.009749,224.259521 12.0020755,225.559374 C11.9890345,227.768474 10.1876328,229.548732 7.9785323,229.535762 C5.76943179,229.52265 3.98917387,227.721249 4.00214374,225.512148 C4.01041212,224.123579 4.04136302,222.746281 4.09508571,221.380266 Z M7.06760761,199.800081 C7.5958129,197.655018 9.76292484,196.344296 11.9079876,196.872501 C14.0530504,197.400707 15.3637724,199.567819 14.8355671,201.712881 C14.5317712,202.946609 14.2523591,204.193499 13.9973429,205.453586 C13.5591416,207.618829 11.4486335,209.018872 9.28339111,208.580671 C7.11814868,208.142469 5.71810519,206.031961 6.15630646,203.866719 C6.43334991,202.49779 6.73711298,201.142233 7.06760761,199.800081 Z M14.7365471,179.285249 C15.751345,177.322985 18.1647306,176.554912 20.1269947,177.56971 C22.0892588,178.584508 22.8573318,180.997893 21.8425339,182.960157 C21.2584711,184.08953 20.7004648,185.23248 20.1684956,186.38905 C19.2453605,188.396067 16.870003,189.274727 14.8629861,188.351592 C12.8559693,187.428457 11.9773095,185.053099 12.9004447,183.046082 C13.4838582,181.777665 14.0958988,180.524038 14.7365471,179.285249 Z M27.0814466,161.132068 C28.528077,159.462471 31.0542788,159.28172 32.7238762,160.72835 C34.3934737,162.174981 34.5742243,164.701183 33.127594,166.37078 C32.2877545,167.340063 31.4731855,168.322019 30.6838504,169.316665 C29.3105928,171.047115 26.7945403,171.336677 25.0640899,169.963419 C23.3336395,168.590162 23.0440776,166.074109 24.4173353,164.343659 C25.2783745,163.258658 26.1664238,162.188122 27.0814466,161.132068 Z M43.2103655,146.287043 C45.0006867,144.992808 47.5012139,145.394965 48.7954492,147.185286 C50.0896845,148.975607 49.6875275,151.476134 47.8972063,152.77037 C46.8696873,153.51317 45.8566455,154.282016 44.8580505,155.076946 C43.1296768,156.452817 40.6131897,156.167056 39.2373193,154.438682 C37.861449,152.710309 38.1472095,150.193821 39.8755833,148.817951 C40.9708227,147.946087 42.0824269,147.102437 43.2103655,146.287043 Z M62.4846234,135.722082 C64.5383587,134.908162 66.863053,135.91323 67.6769734,137.966966 C68.4908938,140.020701 67.4858252,142.345395 65.4320899,143.159316 C64.2463932,143.629222 63.0757056,144.125021 61.9199769,144.646723 C59.9064754,145.555627 57.5373975,144.660174 56.6284933,142.646672 C55.719589,140.633171 56.615042,138.264093 58.6285435,137.355189 C59.8979323,136.782181 61.183309,136.237809 62.4846234,135.722082 Z M83.6004018,130.072293 C85.7841136,129.738081 87.8252943,131.237396 88.1595064,133.421108 C88.4937185,135.60482 86.9944028,137.646001 84.8106909,137.980213 C83.5352262,138.17542 82.2736676,138.39404 81.0259883,138.636055 C78.8572718,139.056725 76.7581588,137.639654 76.3374883,135.470938 C75.9168179,133.302221 77.3338892,131.203108 79.5026057,130.782438 C80.8546528,130.520178 82.2205938,130.283469 83.6004018,130.072293 Z M105.454623,132.760851 C105.454623,134.903046 103.770761,136.651976 101.654373,136.75606 L101.216943,136.761219 C99.0078084,136.765514 97.2134507,134.978156 97.2091097,132.769021 C97.2049462,130.62683 98.8854934,128.874659 101.001677,128.766497 L101.454513,128.76096 C103.663652,128.76096 105.454623,130.551712 105.454623,132.760851 Z" id="Mask-Copy-3" fill="#192C48" fill-rule="nonzero"></path>
            <path d="M174.853313,64.8006593 C177.062028,64.8439148 178.817481,66.6694979 178.774225,68.8782134 C178.73097,71.0869289 176.905387,72.8423811 174.696671,72.7991256 C173.397537,72.7736834 172.091422,72.7609603 170.778325,72.7609603 C168.569186,72.7609603 166.778325,70.9700993 166.778325,68.7609603 C166.778325,66.5518213 168.569186,64.7609603 170.778325,64.7609603 C172.143508,64.7609603 173.501837,64.774192 174.853313,64.8006593 Z M200.30779,66.9907574 C202.490118,67.3338912 203.981079,69.3811823 203.637945,71.5635101 C203.294812,73.7458378 201.24752,75.236799 199.065193,74.8936652 C197.784368,74.6922774 196.495738,74.5051428 195.199297,74.3322652 C193.009541,74.0402662 191.471105,72.0284061 191.763104,69.83865 C192.055103,67.648894 194.066963,66.1104579 196.256719,66.402457 C197.614859,66.5835619 198.965218,66.7796607 200.30779,66.9907574 Z M225.240495,72.9246902 C227.341244,73.6081723 228.490166,75.8652378 227.806684,77.965987 C227.123202,80.0667363 224.866137,81.2156583 222.765388,80.5321762 C221.534809,80.1318056 220.295842,79.7468995 219.048477,79.3774586 C216.930289,78.7501006 215.721734,76.5243964 216.349092,74.4062092 C216.97645,72.288022 219.202154,71.0794662 221.320341,71.7068243 C222.635645,72.096387 223.942366,72.502342 225.240495,72.9246902 Z M248.872656,82.9243754 C250.824614,83.9588572 251.568376,86.3798455 250.533895,88.3318041 C249.499413,90.2837628 247.078424,91.0275247 245.126466,89.9930429 C243.981346,89.3861622 242.827659,88.7953372 241.665395,88.220563 C239.685168,87.2412809 238.873741,84.8421242 239.853023,82.8618965 C240.832305,80.8816688 243.231462,80.070242 245.211689,81.0495241 C246.441053,81.6574813 247.661378,82.2824333 248.872656,82.9243754 Z M270.39797,96.8547687 C272.142914,98.2095611 272.459195,100.722395 271.104403,102.46734 C269.749611,104.212284 267.236777,104.528565 265.491832,103.173773 C264.464636,102.376248 263.429175,101.594482 262.385442,100.828467 C260.604479,99.5213839 260.220322,97.0180281 261.527405,95.2370648 C262.834488,93.4561016 265.337844,93.0719455 267.118807,94.3790282 C268.220778,95.187786 269.313835,96.0130355 270.39797,96.8547687 Z M289.306103,114.166269 C290.81427,115.780496 290.728291,118.311697 289.114064,119.819863 C287.499837,121.32803 284.968637,121.24205 283.46047,119.627823 C282.873969,119.000077 282.281177,118.375701 281.681478,117.754055 L280.760279,116.806833 C279.213691,115.229379 279.238713,112.696843 280.816167,111.150255 C282.341039,109.65522 284.758383,109.628767 286.314872,111.053573 L286.490008,111.223753 C287.444742,112.197862 288.382734,113.177965 289.306103,114.166269 Z M305.27025,134.213658 C306.501342,136.047972 306.012334,138.532974 304.17802,139.764066 C302.343706,140.995158 299.858704,140.50615 298.627612,138.671836 C297.90516,137.59539 297.167222,136.526899 296.413792,135.466357 C295.134371,133.665419 295.557144,131.168295 297.358082,129.888873 C299.15902,128.609452 301.656144,129.032225 302.935565,130.833163 C303.730023,131.951458 304.508254,133.078291 305.27025,134.213658 Z M317.717849,156.643584 C318.622281,158.659098 317.721571,161.026183 315.706057,161.930615 C313.690543,162.835047 311.323459,161.934337 310.419026,159.918823 C309.887325,158.733935 309.339997,157.557212 308.777037,156.388645 C307.818242,154.398417 308.654383,152.007762 310.64461,151.048966 C312.634838,150.09017 315.025494,150.926311 315.984289,152.916539 C316.578671,154.150331 317.156525,155.392683 317.717849,156.643584 Z M326.239605,180.849335 C326.801289,182.985876 325.524615,185.173219 323.388075,185.734904 C321.251534,186.296588 319.06419,185.019914 318.502506,182.883373 C318.171292,181.623496 317.825118,180.371549 317.463986,179.127525 C316.848112,177.005971 318.068708,174.786846 320.190262,174.170973 C322.311817,173.555099 324.530941,174.775695 325.146815,176.897249 C325.526894,178.206541 325.891157,179.523906 326.239605,180.849335 Z M330.848278,205.977101 C331.08858,208.173132 329.503149,210.148169 327.307118,210.388471 C325.111088,210.628773 323.13605,209.043342 322.895748,206.847311 C322.753326,205.545763 322.597133,204.251571 322.427173,202.96473 C322.137912,200.774611 323.678863,198.764676 325.868982,198.475415 C328.059102,198.186155 330.069036,199.727105 330.358297,201.917225 C330.536068,203.263206 330.699394,204.6165 330.848278,205.977101 Z M331.963301,231.467752 C331.921033,233.676486 330.096235,235.432754 327.8875,235.390486 C325.678766,235.348218 323.922498,233.52342 323.964766,231.314685 C323.980425,230.496419 323.990865,229.675565 323.996085,228.852121 L323.999886,227.398258 C323.997565,225.18912 325.786543,223.396378 327.995681,223.39405 C330.137875,223.391806 331.888527,225.073936 331.994777,227.190217 L332,227.615014 C332,228.904975 331.987768,230.189221 331.963301,231.467752 Z M329.73866,256.926637 C329.389357,259.107986 327.337859,260.593153 325.15651,260.24385 C322.975161,259.894547 321.489994,257.843049 321.839297,255.6617 C322.044284,254.381587 322.234693,253.094275 322.410521,251.799757 C322.707849,249.610718 324.723447,248.077183 326.912486,248.37451 C329.101525,248.671837 330.63506,250.687435 330.337733,252.876474 C330.153383,254.233725 329.953694,255.583781 329.73866,256.926637 Z M323.71522,281.848664 C323.024167,283.946935 320.762974,285.087711 318.664703,284.396659 C316.566431,283.705606 315.425655,281.444413 316.116708,279.346142 C316.52203,278.115446 316.911723,276.877123 317.285788,275.631162 C317.921011,273.51532 320.151189,272.31504 322.267031,272.950263 C324.382873,273.585485 325.583153,275.815664 324.94793,277.931506 C324.553568,279.245073 324.142665,280.550796 323.71522,281.848664 Z M313.667676,305.439421 C312.632349,307.390932 310.211039,308.133646 308.259528,307.098319 C306.308018,306.062992 305.565304,303.641682 306.600631,301.690172 C307.208638,300.544125 307.80068,299.390421 308.376763,298.229052 C309.358441,296.250011 311.758578,295.441489 313.737619,296.423167 C315.71666,297.404845 316.525182,299.804983 315.543504,301.784023 C314.935069,303.010614 314.309791,304.229083 313.667676,305.439421 Z M299.803756,326.986002 C298.459676,328.739211 295.948826,329.070876 294.195617,327.726796 C292.442407,326.382716 292.110742,323.871866 293.454823,322.118657 C294.247229,321.085047 295.024146,320.044129 295.785583,318.995899 C297.083918,317.208548 299.58536,316.812123 301.37271,318.110458 C303.160061,319.408792 303.556487,321.910235 302.258152,323.697585 C301.456167,324.801636 300.638033,325.897776 299.803756,326.986002 Z M282.69309,346.049866 C281.096767,347.57697 278.564729,347.520857 277.037625,345.924533 C275.510521,344.32821 275.566634,341.796172 277.162958,340.269068 C278.099691,339.372953 279.028637,338.461866 279.949798,337.5358 C281.507741,335.96956 284.040392,335.962834 285.606632,337.520777 C287.172872,339.07872 287.179598,341.611371 285.621655,343.177611 C284.653914,344.150506 283.677725,345.107927 282.69309,346.049866 Z M262.787231,362.205723 C260.96113,363.448964 258.472936,362.976463 257.229694,361.150362 C255.986453,359.324261 256.458954,356.836067 258.285055,355.592825 C259.355523,354.864032 260.417619,354.11935 261.471351,353.35877 C263.262616,352.065841 265.762849,352.469822 267.055778,354.261087 C268.348707,356.052352 267.944725,358.552585 266.153461,359.845514 C265.040381,360.648931 263.918302,361.43567 262.787231,362.205723 Z M240.389121,374.749267 C238.374668,375.656062 236.00653,374.758128 235.099735,372.743675 C234.19294,370.729223 235.090874,368.361084 237.105326,367.454289 C238.288024,366.921905 239.462145,366.373529 240.627701,365.809161 C242.616017,364.846406 245.008331,365.677788 245.971086,367.666104 C246.93384,369.654419 246.102458,372.046734 244.114143,373.009489 C242.881458,373.606362 241.63978,374.186289 240.389121,374.749267 Z M216.149635,383.250641 C214.011265,383.805322 211.828117,382.521489 211.273436,380.38312 C210.718755,378.24475 212.002588,376.061601 214.140957,375.50692 C215.402332,375.179727 216.655392,374.83726 217.900145,374.47952 C220.023338,373.869319 222.239192,375.095842 222.849393,377.219035 C223.459594,379.342228 222.233072,381.558082 220.109878,382.168283 C218.798249,382.545243 217.478165,382.906028 216.149635,383.250641 Z M190.99275,387.742301 C188.795353,387.969762 186.829617,386.372812 186.602157,384.175414 C186.374696,381.978016 187.971646,380.01228 190.169044,379.78482 C191.471465,379.650002 192.766232,379.501226 194.053349,379.338495 C196.245041,379.061398 198.246389,380.613484 198.523486,382.805176 C198.800582,384.996867 197.248496,386.998216 195.056805,387.275312 C193.709717,387.445625 192.355031,387.601287 190.99275,387.742301 Z M165.50049,388.69703 C163.292008,388.643164 161.545346,386.809168 161.599213,384.600686 C161.653079,382.392203 163.487075,380.645542 165.695557,380.699408 C166.995811,380.731122 168.303216,380.750583 169.617773,380.757786 C171.826879,380.76989 173.607901,382.570537 173.595857,384.779643 C173.583691,386.988749 171.783044,388.76977 169.573939,388.757727 C168.209094,388.750187 166.851278,388.729976 165.50049,388.69703 Z M140.071315,386.442403 C137.889124,386.098396 136.398983,384.050508 136.74299,381.868318 C137.086998,379.686127 139.134886,378.195986 141.317076,378.539993 C142.598774,378.742044 143.888502,378.930319 145.186266,379.104813 C147.375702,379.3992 148.911944,381.412737 148.617557,383.602173 C148.32317,385.791609 146.309634,387.327851 144.120197,387.033464 C142.76257,386.85092 141.412941,386.653901 140.071315,386.442403 Z M115.138038,380.550415 C113.034981,379.874067 111.878405,377.620914 112.554753,375.517857 C113.231101,373.4148 115.484254,372.258224 117.587311,372.934572 C118.820342,373.331118 120.062084,373.712603 121.312546,374.079026 C123.432541,374.700248 124.647537,376.922443 124.026315,379.042438 C123.405093,381.162433 121.182897,382.377428 119.062902,381.756206 C117.745729,381.370235 116.437438,380.968305 115.138038,380.550415 Z M91.469016,370.66207 C89.5115968,369.637958 88.7550019,367.220949 89.7791139,365.26353 C90.8032259,363.306111 93.2202345,362.549516 95.1776536,363.573628 C96.3256287,364.174243 97.4825842,364.759096 98.6485306,365.328192 C100.633806,366.2972 101.457653,368.69212 100.488645,370.677395 C99.5196363,372.662671 97.1247162,373.486518 95.1394409,372.517509 C93.9065344,371.915731 92.6830561,371.297249 91.469016,370.66207 Z M69.8686347,356.838382 C68.1177306,355.4913 67.7903682,352.979886 69.1374503,351.228982 C70.4845323,349.478078 72.9959463,349.150715 74.7468503,350.497797 C75.7765917,351.290043 76.8150853,352.066664 77.8623373,352.827669 C79.6494616,354.126315 80.0454514,356.627826 78.7468052,358.41495 C77.4481591,360.202075 74.9466478,360.598064 73.1595235,359.299418 C72.0531571,358.495457 70.9561921,357.675109 69.8686347,356.838382 Z M50.899782,339.577071 C49.3878829,337.966339 49.4680024,335.434947 51.0787339,333.923048 C52.6894655,332.411149 55.2208578,332.491268 56.7327569,334.102 C57.277503,334.682356 57.8277464,335.260137 58.3834888,335.835343 L59.4405319,336.91953 C60.9900127,338.494142 60.9696395,341.02672 59.3950271,342.576201 C57.8204147,344.125682 55.2878367,344.105309 53.7383559,342.530696 L53.5078373,342.29597 C52.6257363,341.395967 51.7563828,340.489668 50.899782,339.577071 Z M34.8613143,319.595813 C33.6209132,317.767781 34.097282,315.280325 35.9253138,314.039924 C37.7533456,312.799522 40.240802,313.275891 41.481203,315.103923 C42.2083192,316.175505 42.9510585,317.239686 43.7094282,318.296472 C44.9974228,320.091288 44.5865626,322.5904 42.7917464,323.878395 C40.9969302,325.166389 38.4978184,324.755529 37.2098238,322.960713 C36.4106498,321.847066 35.6278108,320.725431 34.8613143,319.595813 Z M22.2974779,297.242273 C21.3825147,295.231518 22.27083,292.859754 24.2815855,291.944791 C26.292341,291.029828 28.6641045,291.918143 29.5790676,293.928899 C30.1164759,295.109926 30.6698564,296.283255 31.2392131,297.448893 C32.2087869,299.433893 31.385622,301.829047 29.4006228,302.798621 C27.4156236,303.768195 25.020469,302.94503 24.0508952,300.960031 C23.4495466,299.728896 22.8650728,298.48964 22.2974779,297.242273 Z M13.6764081,273.065644 C13.1095905,270.93046 14.3810032,268.740054 16.5161877,268.173237 C18.6513722,267.606419 20.8417777,268.877832 21.4085952,271.013016 C21.7426275,272.271306 22.0921273,273.522014 22.4570941,274.765151 C23.0794001,276.884828 21.8655411,279.107644 19.7458642,279.72995 C17.6261873,280.352256 15.4033709,279.138398 14.7810649,277.018721 C14.3964833,275.708773 14.0282647,274.391077 13.6764081,273.065644 Z M9.06070149,247.920377 C8.82541201,245.723803 10.4153466,243.752389 12.6119199,243.5171 C14.8084931,243.28181 16.7799074,244.871745 17.0151968,247.068318 C17.1545187,248.368974 17.3081745,249.662537 17.4761606,250.949013 C17.7621984,253.139556 16.218292,255.147221 14.0277493,255.433259 C11.8372066,255.719297 9.82954136,254.17539 9.54350357,251.984848 C9.36751381,250.637078 9.206581,249.282252 9.06070149,247.920377 Z M8.06414882,222.402435 C8.11884923,220.193973 9.95350461,218.448005 12.1619663,218.502705 C14.370428,218.557406 16.1163964,220.392061 16.061696,222.600523 C16.0294676,223.901704 16.0098642,225.209638 16.0028892,226.524327 C15.991169,228.733435 14.1908321,230.51477 11.9817242,230.503107 C9.7726163,230.491329 7.9912816,228.690992 8.00294429,226.481884 C8.01025136,225.115433 8.03063248,223.755616 8.06414882,222.402435 Z M10.3654583,196.969978 C10.7159885,194.788826 12.7683223,193.304814 14.9494743,193.655344 C17.1306262,194.005874 18.6146383,196.058208 18.2641081,198.23936 C18.0582905,199.520047 17.8664965,200.808216 17.6887295,202.103871 C17.3884437,204.292506 15.3707746,205.823316 13.1821395,205.52303 C10.9935044,205.222744 9.46269492,203.205075 9.7629808,201.01644 C9.94906664,199.660152 10.1498913,198.31133 10.3654583,196.969978 Z M16.3414593,172.059571 C17.024772,169.958767 19.2817448,168.809663 21.3825492,169.492976 C23.4833535,170.176289 24.6324575,172.433261 23.9491447,174.534066 C23.5485053,175.765808 23.1630057,177.005549 22.7926465,178.253298 C22.1640325,180.371112 19.937612,181.578348 17.8197972,180.949734 C15.7019824,180.32112 14.4947466,178.0947 15.1233606,175.976885 C15.5133735,174.662923 15.9194062,173.357148 16.3414593,172.059571 Z M26.2730948,148.423512 C27.2975909,146.466294 29.7147479,145.710173 31.6719661,146.734669 C33.6291842,147.759166 34.3853047,150.176323 33.3608086,152.133541 C32.7594133,153.282458 32.1736672,154.439513 31.6035659,155.604715 C30.6326748,157.58907 28.2369743,158.410645 26.2526191,157.439754 C24.2682639,156.468863 23.4466889,154.073162 24.41758,152.088807 C25.0195549,150.858461 25.6380613,149.636693 26.2730948,148.423512 Z M40.0267009,126.801898 C41.3630636,125.042798 43.8724312,124.700103 45.6315304,126.036465 C47.3906296,127.372828 47.7333252,129.882196 46.3969626,131.641295 C45.6097305,132.677555 44.837857,133.721672 44.0813346,134.773652 C42.7915382,136.567174 40.292015,136.975524 38.4984932,135.685727 C36.7049714,134.395931 36.2966212,131.896408 37.5864175,130.102886 C38.3837957,128.994095 39.1972259,127.893763 40.0267009,126.801898 Z M57.0858022,107.686233 C58.6802312,106.157151 61.212337,106.210126 62.7414189,107.804555 C64.2705007,109.398984 64.2175264,111.931089 62.6230975,113.460171 C61.6881083,114.35684 60.7613962,115.268425 59.8429593,116.194933 C58.2877111,117.76385 55.7550754,117.77493 54.1861592,116.219682 C52.6172429,114.664433 52.6061628,112.131798 54.161411,110.562881 C55.1272523,109.588552 56.10205,108.629667 57.0858022,107.686233 Z M77.0010596,91.5225049 C78.8283037,90.2809437 81.3160619,90.7557335 82.5576231,92.5829775 C83.7991844,94.4102216 83.3243946,96.8979798 81.4971506,98.139541 C80.4260467,98.8673261 79.3637805,99.6108223 78.3103446,100.370037 C76.5181505,101.661678 74.0182085,101.255899 72.726568,99.4637045 C71.4349276,97.6715103 71.8407065,95.1715684 73.6329007,93.8799279 C74.7461601,93.0775981 75.8688822,92.2917879 77.0010596,91.5225049 Z M99.4155559,79.0011953 C101.43074,78.0960284 103.798153,78.9958754 104.70332,81.0110598 C105.608486,83.0262442 104.708639,85.3936566 102.693455,86.2988235 C101.509974,86.8304115 100.335459,87.3776658 99.1699005,87.9405892 C97.1806171,88.9013424 94.7891399,88.067554 93.8283867,86.0782706 C92.8676335,84.0889872 93.701422,81.6975101 95.6907054,80.7367568 C96.9229627,80.1416203 98.164583,79.5630989 99.4155559,79.0011953 Z M123.63599,70.4990954 C125.773439,69.9408777 127.958709,71.2210975 128.516927,73.3585464 C129.075145,75.4959954 127.794925,77.6812651 125.657476,78.2394828 C124.395992,78.5689329 123.143121,78.9132317 121.898856,79.272377 C119.776364,79.8850138 117.559104,78.6610346 116.946467,76.5385428 C116.33383,74.4160511 117.55781,72.1987913 119.680301,71.5861544 C120.990129,71.2080851 122.308695,70.8457329 123.63599,70.4990954 Z M148.764253,65.9238744 C150.960419,65.6848103 152.934563,67.2713546 153.173627,69.4675202 C153.412691,71.6636858 151.826147,73.6378296 149.629981,73.8768937 C148.32744,74.0186821 147.032778,74.1739747 145.745991,74.3427677 C143.555616,74.6300878 141.547047,73.0873571 141.259727,70.8969822 C140.972407,68.7066073 142.515138,66.6980386 144.705513,66.4107185 C146.050606,66.2342772 147.403521,66.0719972 148.764253,65.9238744 Z M174.778325,68.7609603 C174.778325,70.9700993 172.987464,72.7609603 170.778325,72.7609603 L170.195479,72.7618057 C167.986348,72.7678246 166.190577,70.9818869 166.184466,68.7727562 C166.178448,66.5636255 167.964385,64.7678548 170.173516,64.7617899 L170.778325,64.7609603 C172.987464,64.7609603 174.778325,66.5518213 174.778325,68.7609603 Z" id="Mask-Copy-3" fill="#192C48" fill-rule="nonzero"></path>
            <path d="M234.645794,0.288874554 C236.854721,0.319436948 238.620635,2.13490228 238.590073,4.34382986 C238.55951,6.55275744 236.744045,8.31867133 234.535117,8.28810894 C233.227022,8.27001033 231.914003,8.26096033 230.596059,8.26096033 C228.38692,8.26096033 226.596059,6.47009933 226.596059,4.26096033 C226.596059,2.05182133 228.38692,0.260960334 230.596059,0.260960334 C231.95083,0.260960334 233.300741,0.270264613 234.645794,0.288874554 Z M255.925788,1.39684647 C258.125666,1.5989141 259.745212,3.54607586 259.543144,5.74595399 C259.341076,7.94583212 257.393915,9.56537753 255.194037,9.3633099 C253.892323,9.24374228 252.58532,9.13389839 251.273025,9.0337797 C249.070288,8.86572654 247.42085,6.94382084 247.588903,4.74108317 C247.756956,2.53834549 249.678862,0.888907795 251.8816,1.05696095 C253.234911,1.16020896 254.582974,1.27350364 255.925788,1.39684647 Z M277.078969,4.24887362 C279.253282,4.63958839 280.699174,6.71895425 280.308459,8.89326726 C279.917744,11.0675803 277.838378,12.5134723 275.664065,12.1227576 C274.379129,11.89186 273.088574,11.6713115 271.792397,11.4611133 C269.611745,11.1074819 268.130653,9.05303989 268.484285,6.87238863 C268.837916,4.69173736 270.892358,3.21064514 273.073009,3.56427656 C274.413951,3.78173413 275.749271,4.00993272 277.078969,4.24887362 Z M297.920712,9.00183776 C300.048744,9.59494366 301.293048,11.8008618 300.699942,13.9288939 C300.106836,16.056926 297.900918,17.3012295 295.772886,16.7081236 C294.513841,16.3572141 293.248886,16.0172332 291.978016,15.6881817 C289.8394,15.1344544 288.554593,12.9518785 289.10832,10.8132618 C289.662047,8.67464512 291.844623,7.38983838 293.98324,7.94356561 C295.30171,8.28494178 296.614202,8.63769894 297.920712,9.00183776 Z M318.233289,15.76788 C320.291249,16.5710589 321.30845,18.8904702 320.505271,20.94843 C319.702092,23.0063899 317.382681,24.0235908 315.324721,23.2204119 C314.108287,22.7456632 312.885778,22.2822154 311.657188,21.8300681 C309.583989,21.0670866 308.521847,18.767908 309.284829,16.6947089 C310.04781,14.6215099 312.346989,13.5593687 314.420188,14.3223502 C315.697448,14.7924091 316.968483,15.2742525 318.233289,15.76788 Z M337.76568,24.5824276 C339.729155,25.5948807 340.50011,28.007347 339.487657,29.970822 C338.475204,31.9342969 336.062738,32.7052525 334.099263,31.6927994 C332.937866,31.0939327 331.770336,30.5065572 330.596668,29.9306713 C328.613409,28.9575419 327.794538,26.5609159 328.767667,24.5776574 C329.740797,22.5943989 332.137423,21.7755275 334.120681,22.748657 C335.342048,23.3479474 336.557049,23.9592049 337.76568,24.5824276 Z M356.227567,35.3566237 C358.075133,36.5677372 358.591079,39.0472867 357.379965,40.8948524 C356.168852,42.7424181 353.689302,43.2583645 351.841737,42.047251 C350.747884,41.3302106 349.647972,40.6246098 348.541997,39.9304459 C346.670882,38.7560428 346.106085,36.2871623 347.280488,34.416047 C348.454891,32.5449317 350.923772,31.9801349 352.794887,33.154538 C353.945473,33.8767017 355.0897,34.6107312 356.227567,35.3566237 Z M373.515428,47.9979785 C375.230705,49.3901426 375.492639,51.9092211 374.100475,53.6244978 C372.708311,55.3397745 370.189233,55.6017091 368.473956,54.209545 C367.456444,53.3837054 366.433053,52.5690383 365.40378,51.7655407 C363.662414,50.4061509 363.352761,47.8924919 364.712151,46.1511262 C366.071541,44.4097605 368.5852,44.1001079 370.326566,45.4594978 C371.395733,46.294139 372.458688,47.1403003 373.515428,47.9979785 Z M389.458099,62.2740699 C391.032161,63.8241104 391.051634,66.3566955 389.501593,67.930757 C387.951553,69.5048185 385.418968,69.5242913 383.844906,67.9742508 C382.9092,67.0528245 381.967883,66.1421115 381.020953,65.2421093 C379.419683,63.7201936 379.355353,61.1883508 380.877268,59.5870801 C382.399184,57.9858095 384.931027,57.9214796 386.532298,59.4433953 C387.513511,60.375982 388.488778,61.3195411 389.458099,62.2740699 Z M403.990337,77.949721 C405.416,79.6372573 405.20371,82.1610044 403.516174,83.5866678 C401.828637,85.0123313 399.30489,84.8000413 397.879227,83.112505 C397.035012,82.1132199 396.18009,81.1194186 395.31446,80.1311001 C393.85892,78.4692634 394.026158,75.9421311 395.687994,74.486592 C397.349831,73.0310528 399.876963,73.19829 401.332502,74.8601267 C402.229443,75.8841934 403.115389,76.9140585 403.990337,77.949721 Z M416.983606,94.917863 C418.239566,96.73524 417.784448,99.226672 415.967071,100.482632 C414.149694,101.738593 411.658262,101.283475 410.402302,99.4660976 C409.659842,98.3917573 408.906356,97.3230965 408.141841,96.2601132 C406.851956,94.4666549 407.260183,91.9671116 409.053641,90.6772268 C410.8471,89.3873421 413.346643,89.795569 414.636528,91.5890273 C415.430281,92.692663 416.212641,93.8022756 416.983606,94.917863 Z M428.267161,113.133317 C429.334228,115.067655 428.631166,117.500775 426.696828,118.567842 C424.762489,119.634908 422.32937,118.931846 421.262303,116.997508 C420.630396,115.852011 419.987271,114.712331 419.332926,113.578467 C418.228726,111.665084 418.884698,109.218849 420.798082,108.114648 C422.711466,107.010448 425.157701,107.666421 426.261901,109.579804 C426.941968,110.75824 427.610388,111.942745 428.267161,113.133317 Z M437.632763,132.350567 C438.49911,134.382743 437.55402,136.73246 435.521844,137.598807 C433.489668,138.465154 431.139951,137.520064 430.273604,135.487888 C429.760668,134.284702 429.236594,133.087335 428.701382,131.895783 C427.796217,129.880598 428.696066,127.513186 430.711251,126.608021 C432.726436,125.702856 435.093848,126.602705 435.999013,128.61789 C436.55519,129.856117 437.099773,131.100344 437.632763,132.350567 Z M445.04235,152.453517 C445.703403,154.561432 444.530489,156.806123 442.422575,157.467176 C440.31466,158.128228 438.069968,156.955315 437.408916,154.8474 C437.016675,153.596654 436.613542,152.351635 436.199515,151.11234 C435.499512,149.017038 436.630624,146.750995 438.725926,146.050992 C440.821228,145.350988 443.087271,146.482101 443.787275,148.577403 C444.216974,149.86361 444.635332,151.155649 445.04235,152.453517 Z M450.454113,173.089176 C450.914723,175.249762 449.536619,177.374662 447.376032,177.835271 C445.215446,178.295881 443.090547,176.917777 442.629937,174.75719 C442.356113,173.47276 442.071821,172.19386 441.777063,170.920488 C441.278868,168.768257 442.619729,166.619663 444.77196,166.121468 C446.92419,165.623273 449.072785,166.964133 449.57098,169.116364 C449.876232,170.43507 450.170609,171.759342 450.454113,173.089176 Z M453.978898,194.156134 C454.249341,196.348657 452.691187,198.345285 450.498664,198.615727 C448.306141,198.88617 446.309514,197.328016 446.039071,195.135493 C445.878013,193.829774 445.707038,192.529308 445.526147,191.234095 C445.220581,189.046191 446.746517,187.024834 448.934422,186.719268 C451.122326,186.413702 453.143683,187.939639 453.449249,190.127543 C453.636064,191.46517 453.812613,192.808034 453.978898,194.156134 Z M455.732097,215.415088 C455.82738,217.622171 454.115427,219.488607 451.908344,219.58389 C449.70126,219.679172 447.834824,217.967219 447.739542,215.760136 C447.682669,214.442744 447.616483,213.130292 447.540985,211.822779 C447.413639,209.617313 449.098287,207.726196 451.303753,207.598849 C453.509218,207.471503 455.400336,209.156152 455.527682,211.361617 C455.605417,212.707885 455.673555,214.059042 455.732097,215.415088 Z M455.863953,236.716364 C455.794802,238.92442 453.94876,240.658345 451.740704,240.589194 C449.532647,240.520043 447.798722,238.674001 447.867874,236.465944 C447.908895,235.15612 447.940365,233.841601 447.962283,232.522386 C447.998981,230.313552 449.819345,228.552688 452.028179,228.589386 C454.237013,228.626085 455.997877,230.446449 455.961179,232.655283 C455.938611,234.013614 455.906203,235.367308 455.863953,236.716364 Z M454.337821,257.994504 C454.088282,260.189504 452.106591,261.766612 449.911591,261.517073 C447.716591,261.267533 446.139483,259.285843 446.389023,257.090843 C446.536861,255.790425 446.674527,254.485015 446.80202,253.17461 C447.015944,250.975853 448.971808,249.366827 451.170564,249.580751 C453.369321,249.794674 454.978347,251.750538 454.764424,253.949295 C454.63275,255.302666 454.49055,256.65107 454.337821,257.994504 Z M450.989909,279.092504 C450.545124,281.256404 448.430368,282.650022 446.266468,282.205238 C444.102568,281.760453 442.70895,279.645697 443.153734,277.481797 C443.416821,276.201867 443.6692,274.916698 443.910871,273.626288 C444.317533,271.454901 446.407455,270.024309 448.578842,270.430971 C450.750229,270.837634 452.180821,272.927555 451.774159,275.098942 C451.523865,276.435396 451.262448,277.766584 450.989909,279.092504 Z M445.699536,299.793657 C445.049667,301.905046 442.811224,303.089842 440.699835,302.439973 C438.588445,301.790103 437.40365,299.55166 438.053519,297.440271 C438.437845,296.191619 438.811034,294.937548 439.173088,293.678055 C439.78341,291.554896 441.999334,290.3285 444.122492,290.938822 C446.245651,291.549144 447.472047,293.765068 446.861725,295.888226 C446.485921,297.195554 446.098525,298.497365 445.699536,299.793657 Z M438.387447,319.918302 C437.529359,321.953979 435.183498,322.908603 433.147822,322.050514 C431.112145,321.192426 430.157521,318.846566 431.01561,316.810889 C431.522934,315.607343 432.018888,314.398302 432.503471,313.183762 C433.322129,311.131911 435.649137,310.13221 437.700988,310.950868 C439.75284,311.769527 440.75254,314.096534 439.933882,316.148386 C439.430239,317.410695 438.91476,318.667335 438.387447,319.918302 Z M429.066535,339.21952 C428.005774,341.157323 425.574957,341.868306 423.637154,340.807545 C421.699351,339.746784 420.988368,337.315968 422.049129,335.378164 C422.677499,334.230255 423.29444,333.076866 423.899955,331.917992 C424.923003,329.960017 427.3396,329.202108 429.297575,330.225156 C431.255551,331.248204 432.01346,333.664801 430.990412,335.622776 C430.360983,336.827418 429.71969,338.026333 429.066535,339.21952 Z M417.884007,357.413792 C416.635093,359.236018 414.145442,359.700779 412.323215,358.451865 C410.500989,357.20295 410.036228,354.713299 411.285142,352.891073 C412.02576,351.810476 412.755143,350.724529 413.473294,349.633231 C414.6877,347.787828 417.168165,347.276303 419.013569,348.490708 C420.858972,349.705113 421.370497,352.185579 420.156092,354.030982 C419.410337,355.164227 418.652975,356.291831 417.884007,357.413792 Z M404.952158,374.452245 C403.534599,376.146595 401.011899,376.370979 399.317548,374.953421 C397.623198,373.535862 397.398814,371.013162 398.816372,369.318811 C399.658701,368.31201 400.49017,367.300066 401.310782,366.28298 C402.697965,364.563672 405.216273,364.294431 406.935581,365.681614 C408.654888,367.068797 408.924129,369.587105 407.536946,371.306413 C406.686502,372.360474 405.824905,373.409085 404.952158,374.452245 Z M390.507842,390.207521 C388.943678,391.767548 386.41102,391.764194 384.850993,390.20003 C383.290966,388.635865 383.29432,386.103208 384.858484,384.54318 C385.46428,383.938987 386.067429,383.330537 386.670125,382.71561 L387.620503,381.740357 C389.157755,380.153804 391.6901,380.113838 393.276653,381.65109 C394.863206,383.188342 394.903172,385.720687 393.36592,387.30724 L392.383551,388.31532 C391.759625,388.951908 391.135133,389.58189 390.507842,390.207521 Z M374.677245,404.57428 C372.971658,405.978298 370.450824,405.733829 369.046806,404.028242 C367.642787,402.322655 367.887257,399.801821 369.592844,398.397803 C370.600252,397.568516 371.601851,396.728182 372.597642,395.876795 C374.276734,394.441196 376.80169,394.638586 378.237289,396.317678 C379.672888,397.996771 379.475498,400.521727 377.796405,401.957326 C376.76283,402.841018 375.723109,403.713336 374.677245,404.57428 Z M357.487956,417.332504 C355.649265,418.557051 353.166022,418.059189 351.941475,416.220499 C350.716929,414.381808 351.214791,411.898565 353.053481,410.674018 C354.139286,409.950885 355.219076,409.216383 356.292852,408.47051 C358.107219,407.210204 360.599733,407.659359 361.860038,409.473725 C363.120344,411.288091 362.671189,413.780605 360.856823,415.040911 C359.740192,415.816552 358.617235,416.580417 357.487956,417.332504 Z M339.084137,428.253567 C337.128067,429.280254 334.710065,428.526841 333.683378,426.570771 C332.656691,424.614702 333.410104,422.196699 335.366173,421.170012 C336.522808,420.562926 337.673319,419.944352 338.817708,419.314287 C340.752926,418.248817 343.185465,418.953887 344.250935,420.889105 C345.316405,422.824323 344.611335,425.256861 342.676117,426.322331 C341.485165,426.978032 340.287837,427.621777 339.084137,428.253567 Z M319.613449,437.20973 C317.561255,438.027529 315.234667,437.026853 314.416868,434.974659 C313.59907,432.922465 314.599746,430.595876 316.65194,429.778078 C317.867401,429.293717 319.076756,428.797989 320.28001,428.290894 C322.315751,427.432957 324.66154,428.387756 325.519476,430.423497 C326.377413,432.459237 325.422614,434.805026 323.386873,435.662963 C322.13534,436.190405 320.877531,436.705994 319.613449,437.20973 Z M299.332624,444.121471 C297.208612,444.728816 294.99441,443.499315 294.387065,441.375303 C293.77972,439.251291 295.009221,437.037088 297.133233,436.429743 C298.393646,436.069338 299.648098,435.697905 300.896595,435.315444 C303.008847,434.668384 305.245711,435.856156 305.892772,437.968408 C306.539832,440.08066 305.35206,442.317525 303.239808,442.964585 C301.943459,443.361704 300.641063,443.747333 299.332624,444.121471 Z M278.56292,449.001493 C276.391149,449.4061 274.302582,447.973532 273.897974,445.801761 C273.493366,443.62999 274.925935,441.541423 277.097705,441.136815 C278.388734,440.896293 279.674055,440.645254 280.953672,440.383701 C283.118061,439.941302 285.23128,441.33725 285.67368,443.501638 C286.11608,445.666027 284.720132,447.779246 282.555743,448.221646 C281.230525,448.492519 279.899583,448.752468 278.56292,449.001493 Z M257.425317,451.982946 C255.22665,452.197796 253.270109,450.589594 253.05526,448.390927 C252.840411,446.19226 254.448613,444.235719 256.647279,444.02087 C257.957484,443.89284 259.262299,443.754899 260.561725,443.607049 C262.756702,443.357302 264.738541,444.934223 264.988288,447.129199 C265.238034,449.324175 263.661114,451.306015 261.466138,451.555762 C260.124555,451.708408 258.777614,451.850803 257.425317,451.982946 Z M236.133246,453.208635 C233.924506,453.250588 232.099958,451.494059 232.058005,449.285319 C232.016052,447.076578 233.772581,445.25203 235.981321,445.210078 C237.300173,445.185027 238.613992,445.150728 239.922779,445.107181 C242.130696,445.033718 243.98012,446.764035 244.053583,448.971953 C244.127046,451.17987 242.396729,453.029294 240.188811,453.102757 C238.841929,453.147571 237.490073,453.182863 236.133246,453.208635 Z M214.844743,452.848044 C212.638725,452.730661 210.945552,450.847172 211.062935,448.641153 C211.180319,446.435135 213.063808,444.741962 215.269826,444.859346 C216.576173,444.928857 217.887743,444.989347 219.204536,445.040814 C221.411989,445.127093 223.131541,446.98653 223.045263,449.193984 C222.958984,451.401438 221.099546,453.120989 218.892093,453.034711 C217.537808,452.981778 216.188691,452.919557 214.844743,452.848044 Z M193.611931,450.888164 C191.422103,450.596706 189.883171,448.585225 190.174629,446.395397 C190.466088,444.205569 192.477568,442.666637 194.667396,442.958095 C195.96467,443.130758 197.26756,443.293716 198.576066,443.446967 C200.770208,443.703943 202.34059,445.690967 202.083614,447.885109 C201.826638,450.079251 199.839614,451.649634 197.645472,451.392657 C196.295369,451.234534 194.950855,451.06637 193.611931,450.888164 Z M172.574422,447.159166 C170.418472,446.677321 169.061342,444.538966 169.543187,442.383016 C170.025032,440.227066 172.163387,438.869935 174.319337,439.35178 C175.595018,439.636889 176.876653,439.911687 178.164243,440.176172 C180.328201,440.620673 181.722097,442.735246 181.277596,444.899204 C180.833096,447.063162 178.718522,448.457058 176.554564,448.012557 C175.221874,447.738808 173.895159,447.454345 172.574422,447.159166 Z M151.971179,441.527642 C149.870652,440.843477 148.722464,438.586038 149.406629,436.485511 C150.090794,434.384984 152.348232,433.236796 154.448759,433.920961 C155.690996,434.325571 156.939456,434.719358 158.194143,435.102321 C160.307051,435.747236 161.497095,437.982893 160.85218,440.095801 C160.207266,442.208709 157.971609,443.398753 155.858701,442.753838 C154.556544,442.356386 153.260702,441.947654 151.971179,441.527642 Z M131.960415,433.881012 C129.939592,432.988503 129.024913,430.626782 129.917422,428.605959 C130.80993,426.585137 133.171651,425.670457 135.192474,426.562966 C136.387129,427.090592 137.588169,427.607049 138.795596,428.112337 C140.833485,428.965159 141.794171,431.308543 140.941349,433.346432 C140.088527,435.38432 137.745143,436.345007 135.707255,435.492185 C134.451747,434.966776 133.202799,434.429718 131.960415,433.881012 Z M112.82289,424.210997 C110.905873,423.113117 110.241832,420.669059 111.339712,418.752043 C112.437593,416.835026 114.88165,416.170985 116.798667,417.268865 C117.932465,417.918194 119.072683,418.556211 120.219324,419.182918 C122.157817,420.242418 122.870382,422.672771 121.810882,424.611264 C120.751381,426.549757 118.321028,427.262322 116.382535,426.202822 C115.189309,425.550654 114.00276,424.886712 112.82289,424.210997 Z M94.8605379,412.644132 C93.0674839,411.353685 92.66004,408.854014 93.9504866,407.06096 C95.2409332,405.267906 97.7406043,404.860462 99.5336583,406.150909 C100.595649,406.915215 101.663969,407.668288 102.73862,408.410131 C104.556654,409.665139 105.013077,412.156332 103.758069,413.974367 C102.503061,415.792401 100.011867,416.248824 98.1938329,414.993816 C97.0760885,414.222225 95.9649893,413.438996 94.8605379,412.644132 Z M78.1429964,399.276203 C76.4886135,397.812197 76.3342821,395.284244 77.7982876,393.629861 C79.2622932,391.975478 81.7902465,391.821147 83.4446294,393.285152 C84.4263167,394.153872 85.4141269,395.011658 86.4080616,395.858512 C88.0896125,397.29123 88.291331,399.815844 86.8586127,401.497395 C85.4258943,403.178946 82.9012803,403.380665 81.2197295,401.947946 C80.187685,401.068622 79.1621069,400.17804 78.1429964,399.276203 Z M62.8156272,384.349221 C61.3052376,382.737074 61.3877285,380.205758 62.9998756,378.695369 C64.6120228,377.184979 67.143339,377.26747 68.6537285,378.879617 C69.5469333,379.832999 70.4505612,380.781458 71.3646147,381.724996 C72.9017239,383.311688 72.8615294,385.844029 71.2748377,387.381138 C69.688146,388.918247 67.1558051,388.878053 65.6186959,387.291361 C64.6736877,386.31587 63.7393307,385.335157 62.8156272,384.349221 Z M48.927563,368.105219 C47.5716761,366.361124 47.8863805,363.848093 49.630475,362.492206 C51.3745695,361.136319 53.887601,361.451023 55.243488,363.195118 C56.0456072,364.226894 56.8586711,365.25348 57.6826822,366.274879 C59.0697833,367.994253 58.8004232,370.512548 57.0810495,371.899649 C55.3616759,373.28675 52.8433806,373.01739 51.4562795,371.298016 C50.6021192,370.239247 49.7592128,369.17498 48.927563,368.105219 Z M36.6360202,350.605695 C35.4568187,348.7376 36.0152773,346.267279 37.8833723,345.088077 C39.7514673,343.908876 42.2217892,344.467334 43.4009907,346.335429 C44.0982802,347.440078 44.806851,348.539344 45.5267057,349.633231 C46.7411111,351.478635 46.229586,353.9591 44.3841824,355.173506 C42.5387788,356.387911 40.0583135,355.876386 38.843908,354.030982 C38.0962766,352.894886 37.3603131,351.753123 36.6360202,350.605695 Z M26.1418753,331.961511 C25.1572895,329.983915 25.9622833,327.582593 27.9398793,326.598007 C29.9174753,325.613421 32.3187981,326.418415 33.3033839,328.396011 C33.8861481,329.566526 34.4803466,330.731545 35.0859814,331.891072 C36.1087356,333.849201 35.3504644,336.265684 33.3923354,337.288438 C31.4342065,338.311192 29.0177233,337.552921 27.9949691,335.594792 C27.365392,334.389426 26.7476934,333.178331 26.1418753,331.961511 Z M17.5836125,312.325646 C16.8047802,310.258349 17.849287,307.951106 19.9165837,307.172274 C21.9838803,306.393441 24.2911237,307.437948 25.0699559,309.505245 C25.53161,310.730638 26.0046283,311.950528 26.4890116,313.164918 C27.3074654,315.216851 26.307533,317.543759 24.2556001,318.362213 C22.2036672,319.180667 19.8767591,318.180734 19.0583053,316.128801 C18.5549095,314.866745 18.063345,313.599026 17.5836125,312.325646 Z M11.0409654,291.932213 C10.47033,289.798045 11.7378231,287.605369 13.8719904,287.034734 C16.0061578,286.464099 18.1988337,287.731592 18.7694691,289.865759 C19.1080493,291.132043 19.4576931,292.392934 19.8184003,293.648435 C20.4284125,295.771683 19.2016928,297.987428 17.0784452,298.59744 C14.9551976,299.207452 12.7394528,297.980732 12.1294407,295.857485 C11.7551014,294.554535 11.3922764,293.24611 11.0409654,291.932213 Z M6.51149992,271.092532 C6.14255533,268.91442 7.60917588,266.849622 9.7872886,266.480677 C11.9654013,266.111732 14.0301992,267.578353 14.3991438,269.756466 C14.618524,271.051605 14.8485193,272.341545 15.0891289,273.626288 C15.495791,275.797675 14.0651989,277.887597 11.8938121,278.294259 C9.72242517,278.700921 7.6325035,277.270329 7.22584134,275.098942 C6.97670805,273.768686 6.73859459,272.433215 6.51149992,271.092532 Z M3.8743102,249.901056 C3.69541481,247.699172 5.33537081,245.76917 7.53725445,245.590274 C9.73913809,245.411379 11.6691408,247.051335 11.8480362,249.253219 C11.9546369,250.565284 12.0712852,251.872413 12.1979796,253.17461 C12.4119029,255.373367 10.8028774,257.329231 8.60412053,257.543154 C6.40536363,257.757077 4.44949984,256.148052 4.2355765,253.949295 C4.10476511,252.604783 3.98434347,251.25537 3.8743102,249.901056 Z M3.00066935,228.586287 C2.99585769,226.377153 4.78280592,224.582388 6.99193965,224.577557 C9.20107339,224.572745 10.9958386,226.359693 11.0006693,228.568827 C11.0035382,229.887576 11.0158291,231.201697 11.0375316,232.51119 C11.0741389,234.720026 9.31319992,236.540317 7.10436425,236.576924 C4.89552858,236.613532 3.07523736,234.852593 3.03863002,232.643757 C3.01629068,231.295832 3.00364083,229.943342 3.00066935,228.586287 Z M3.73701668,207.300285 C3.8971212,205.096955 5.81306317,203.440594 8.01639285,203.600699 C10.2197225,203.760803 11.8760838,205.676745 11.7159793,207.880075 C11.621116,209.185566 11.5356771,210.496055 11.4596639,211.811543 C11.3322252,214.017003 9.44103698,215.701573 7.23557682,215.574134 C5.03011667,215.446695 3.34554744,213.555507 3.47298614,211.350047 C3.55127518,209.995173 3.6392849,208.645252 3.73701668,207.300285 Z M6.14536473,186.108811 C6.4865658,183.92618 8.53253573,182.433406 10.7151665,182.774608 C12.8977972,183.115809 14.3905709,185.161779 14.0493698,187.344409 C13.8475132,188.635667 13.6556739,189.932228 13.4738532,191.234095 C13.1682872,193.422 11.1469303,194.947936 8.95902614,194.64237 C6.771122,194.336804 5.24518543,192.315447 5.55075142,190.127543 C5.73857844,188.78267 5.93678247,187.443092 6.14536473,186.108811 Z M10.3846501,165.147966 C10.9208926,163.004898 13.0929027,161.702309 15.2359704,162.238551 C17.3790381,162.774794 18.6816272,164.946804 18.1453846,167.089872 C17.8281368,168.357738 17.5214488,169.631175 17.2253212,170.910188 C16.7270246,173.062395 14.5783667,174.403155 12.4261596,173.904858 C10.2739525,173.406561 8.93319309,171.257904 9.43148973,169.105696 C9.7382331,167.780833 10.055953,166.461588 10.3846501,165.147966 Z M16.5512422,144.692916 C17.2906224,142.611183 19.5775864,141.522991 21.6593194,142.262371 C23.7410523,143.001752 24.8292442,145.288716 24.0898641,147.370449 C23.6523876,148.602168 23.2258763,149.839644 22.8103299,151.082878 C22.1100176,153.178077 19.8438081,154.308855 17.7486093,153.608543 C15.6534106,152.908231 14.5226318,150.642021 15.2229441,148.546822 C15.6542927,147.256311 16.0970588,145.971675 16.5512422,144.692916 Z M24.7168599,124.89463 C25.6608708,122.897347 28.0452605,122.043502 30.0425433,122.987513 C32.039826,123.931524 32.8936715,126.315913 31.9496606,128.313196 C31.3909261,129.495334 30.8433758,130.683302 30.3070087,131.877105 C29.4016413,133.8922 27.0341393,134.791811 25.019045,133.886444 C23.0039507,132.981076 22.1043393,130.613574 23.0097067,128.59848 C23.5671197,127.357835 24.1361712,126.123217 24.7168599,124.89463 Z M34.814565,106.060507 C35.9554493,104.168768 38.4138766,103.560079 40.305616,104.700963 C42.1973555,105.841848 42.8060439,108.300275 41.6651597,110.192014 C40.9896559,111.31209 40.3253327,112.437954 39.672188,113.569606 C38.5678916,115.482935 36.1216236,116.138784 34.2082954,115.034488 C32.2949673,113.930192 31.6391174,111.483924 32.7434138,109.570595 C33.4221998,108.394516 34.1125842,107.224486 34.814565,106.060507 Z M46.7674634,88.3113545 C48.0904854,86.5422 50.5971898,86.1805381 52.3663443,87.5035601 C54.1354989,88.8265821 54.4971608,91.3332865 53.1741388,93.1024411 C52.3891434,94.1521425 51.61514,95.2074956 50.8521257,96.2685024 C49.5623294,98.0620242 47.0628062,98.4703744 45.2692844,97.1805781 C43.4757625,95.8907817 43.0674124,93.3912585 44.3572087,91.5977367 C45.1492831,90.4963204 45.9527022,89.400859 46.7674634,88.3113545 Z M60.3833418,71.8140949 C61.867961,70.1781851 64.3976496,70.0555399 66.0335594,71.5401591 C67.6694692,73.0247783 67.7921145,75.5544669 66.3074953,77.1903767 C65.425227,78.1625529 64.5535575,79.1401511 63.6924844,80.1231722 C62.2368664,81.7849397 59.7097261,81.9520569 58.0479586,80.4964388 C56.3861911,79.0408208 56.2190739,76.5136805 57.674692,74.851913 C58.5667042,73.833571 59.4695883,72.8209647 60.3833418,71.8140949 Z M75.4647646,56.6552787 C77.0949112,55.1643337 79.6250559,55.2771789 81.1160009,56.9073255 C82.606946,58.5374722 82.4941008,61.0676169 80.8639541,62.5585619 C79.8996024,63.4405657 78.9412866,64.3333626 77.989006,65.2369556 C76.3864796,66.757549 73.8546908,66.6911292 72.3340974,65.0886028 C70.813504,63.4860765 70.8799238,60.9542876 72.4824502,59.4336942 C73.4701744,58.4964698 74.4642795,57.5703303 75.4647646,56.6552787 Z M91.9428312,43.0162472 C93.7132826,41.6949611 96.2196311,42.0590815 97.5409172,43.8295329 C98.8622033,45.5999842 98.4980829,48.1063327 96.7276315,49.4276188 C95.6812865,50.2085051 94.6412092,51.0005361 93.6073976,51.8037147 C91.8628755,53.1590514 89.3499434,52.8435543 87.9946067,51.0990321 C86.6392699,49.35451 86.954767,46.8415779 88.6992892,45.4862412 C89.7738726,44.6513866 90.855054,43.8280543 91.9428312,43.0162472 Z M109.755227,31.1032786 C111.652922,29.9723279 114.108124,30.5938967 115.239075,32.4915915 C116.370026,34.3892863 115.748457,36.8444887 113.850762,37.9754394 C112.729081,38.6439169 111.613799,39.3236934 110.504913,40.014771 C108.630067,41.1832089 106.162998,40.6105519 104.99456,38.7357057 C103.826122,36.8608596 104.398779,34.3937905 106.273625,33.2253526 C107.42748,32.5062496 108.588015,31.7988908 109.755227,31.1032786 Z M128.683461,21.1222491 C130.688506,20.1948398 133.065731,21.0684364 133.99314,23.0734818 C134.920549,25.0785272 134.046953,27.4557515 132.041907,28.3831608 C130.854449,28.932405 129.67341,29.4928995 128.498786,30.0646454 C126.512455,31.0314879 124.118435,30.2050293 123.151593,28.2186984 C122.18475,26.2323675 123.011209,23.8383473 124.99754,22.8715048 C126.219557,22.2766904 127.448198,21.6936048 128.683461,21.1222491 Z M148.565643,13.1347799 C150.654531,12.4158637 152.930707,13.5264455 153.649623,15.6153338 C154.368539,17.7042222 153.257957,19.9803976 151.169069,20.6993138 C149.93037,21.1256271 148.697962,21.5628968 147.471842,22.0111228 C145.396996,22.769613 143.100122,21.7024954 142.341632,19.627649 C141.583142,17.5528026 142.65026,15.2559294 144.725106,14.4974392 C145.998874,14.0317948 147.279054,13.5775751 148.565643,13.1347799 Z M169.132981,7.15939358 C171.281345,6.64478148 173.440114,7.96919937 173.954726,10.1175637 C174.469338,12.2659281 173.144921,14.4246971 170.996556,14.9393092 C169.719959,15.2451012 168.449416,15.5613891 167.184925,15.8881721 C165.046055,16.4409212 162.864067,15.1551163 162.311318,13.0162466 C161.758569,10.8773769 163.044374,8.69538881 165.183243,8.14263973 C166.493724,7.80397163 167.810304,7.47622323 169.132981,7.15939358 Z M190.04727,3.13387698 C192.232745,2.81139502 194.265846,4.3216492 194.588328,6.50712409 C194.91081,8.69259898 193.400555,10.7256997 191.21508,11.0481817 C189.913344,11.2402619 188.617347,11.4422653 187.327087,11.6541906 C185.147158,12.0122442 183.089716,10.535322 182.731662,8.35539249 C182.373609,6.17546297 183.850531,4.11802111 186.03046,3.75996748 C187.36367,3.5409877 188.702607,3.33229132 190.04727,3.13387698 Z M211.254638,0.887819287 C213.458978,0.742291747 215.363923,2.41128938 215.50945,4.61562984 C215.654978,6.8199703 213.98598,8.72491469 211.78164,8.87044223 C210.466184,8.95728684 209.156099,9.05341001 207.851384,9.15881031 C205.649419,9.33669431 203.72017,7.69585199 203.542286,5.49388641 C203.364402,3.29192083 205.005244,1.36267157 207.20721,1.18478757 C208.551028,1.07622826 209.900171,0.977239312 211.254638,0.887819287 Z M230.588674,0.260960422 C232.797813,0.260960422 234.588769,2.05172591 234.588769,4.26086491 C234.588769,6.47000391 232.798004,8.26090767 230.588865,8.26096042 C229.907974,8.26097668 229.228419,8.26330094 228.5502,8.26793303 C226.341112,8.28302061 224.538062,6.50443227 224.522879,4.29534479 C224.507887,2.08625732 226.286475,0.283207183 228.495563,0.268119604 C229.191948,0.263363448 229.889652,0.260960422 230.588674,0.260960422 Z" id="Mask-Copy-3" fill="#192C48" fill-rule="nonzero"></path>
            <path d="M77.8817734,303.76096 C100.279146,303.76096 118.731527,296.360059 133.238916,281.558258 C147.746305,266.756456 155,248.463663 155,226.679879 C155,204.337537 147.746305,185.765465 133.238916,170.963663 C118.731527,156.161861 100.279146,148.76096 77.8817734,148.76096 C54.9753695,148.76096 36.2684729,156.161861 21.7610837,170.963663 C7.25369458,185.765465 0,204.337537 0,226.679879 C0,248.463663 7.25369458,266.756456 21.7610837,281.558258 C36.2684729,296.360059 54.9753695,303.76096 77.8817734,303.76096 Z" id="Mask-Copy-4" fill="#87A4FC"></path>
        </g>
    </g>
</svg>