<svg id="nksvg" width="1490" height="838" viewBox="0 0 1490 838" fill="none" xmlns="http://www.w3.org/2000/svg">
<rect width="1490" height="838" fill="var(--color-illustrationBackground010)"/>
<path d="M271.275 436.025H250.425L246.975 446H235.95L254.775 393.575H267L285.825 446H274.725L271.275 436.025ZM268.425 427.625L260.85 405.725L253.275 427.625H268.425Z" fill="var(--color-illustrationPalette020)"/>
<path d="M332.086 404.45V446H321.511V440.75C320.161 442.55 318.386 443.975 316.186 445.025C314.036 446.025 311.686 446.525 309.136 446.525C305.886 446.525 303.011 445.85 300.511 444.5C298.011 443.1 296.036 441.075 294.586 438.425C293.186 435.725 292.486 432.525 292.486 428.825V404.45H302.986V427.325C302.986 430.625 303.811 433.175 305.461 434.975C307.111 436.725 309.361 437.6 312.211 437.6C315.111 437.6 317.386 436.725 319.036 434.975C320.686 433.175 321.511 430.625 321.511 427.325V404.45H332.086Z" fill="var(--color-illustrationPalette020)"/>
<path d="M354.671 413.075V433.175C354.671 434.575 354.996 435.6 355.646 436.25C356.346 436.85 357.496 437.15 359.096 437.15H363.971V446H357.371C348.521 446 344.096 441.7 344.096 433.1V413.075H339.146V404.45H344.096V394.175H354.671V404.45H363.971V413.075H354.671Z" fill="var(--color-illustrationPalette020)"/>
<path d="M394.924 403.85C398.074 403.85 400.874 404.55 403.324 405.95C405.774 407.3 407.674 409.325 409.024 412.025C410.424 414.675 411.124 417.875 411.124 421.625V446H400.624V423.05C400.624 419.75 399.799 417.225 398.149 415.475C396.499 413.675 394.249 412.775 391.399 412.775C388.499 412.775 386.199 413.675 384.499 415.475C382.849 417.225 382.024 419.75 382.024 423.05V446H371.524V390.5H382.024V409.625C383.374 407.825 385.174 406.425 387.424 405.425C389.674 404.375 392.174 403.85 394.924 403.85Z" fill="var(--color-illustrationPalette020)"/>
<path d="M439.559 446.675C435.559 446.675 431.959 445.8 428.759 444.05C425.559 442.25 423.034 439.725 421.184 436.475C419.384 433.225 418.484 429.475 418.484 425.225C418.484 420.975 419.409 417.225 421.259 413.975C423.159 410.725 425.734 408.225 428.984 406.475C432.234 404.675 435.859 403.775 439.859 403.775C443.859 403.775 447.484 404.675 450.734 406.475C453.984 408.225 456.534 410.725 458.384 413.975C460.284 417.225 461.234 420.975 461.234 425.225C461.234 429.475 460.259 433.225 458.309 436.475C456.409 439.725 453.809 442.25 450.509 444.05C447.259 445.8 443.609 446.675 439.559 446.675ZM439.559 437.525C441.459 437.525 443.234 437.075 444.884 436.175C446.584 435.225 447.934 433.825 448.934 431.975C449.934 430.125 450.434 427.875 450.434 425.225C450.434 421.275 449.384 418.25 447.284 416.15C445.234 414 442.709 412.925 439.709 412.925C436.709 412.925 434.184 414 432.134 416.15C430.134 418.25 429.134 421.275 429.134 425.225C429.134 429.175 430.109 432.225 432.059 434.375C434.059 436.475 436.559 437.525 439.559 437.525Z" fill="var(--color-illustrationPalette020)"/>
<path d="M479.436 410.9C480.786 408.7 482.536 406.975 484.686 405.725C486.886 404.475 489.386 403.85 492.186 403.85V414.875H489.411C486.111 414.875 483.611 415.65 481.911 417.2C480.261 418.75 479.436 421.45 479.436 425.3V446H468.936V404.45H479.436V410.9Z" fill="var(--color-illustrationPalette020)"/>
<path d="M510.733 434.975L501.958 456.05H495.208L500.083 434.975H510.733Z" fill="var(--color-illustrationPalette020)"/>
<path d="M566.697 393.65V430.4C566.697 435.5 565.222 439.475 562.272 442.325C559.322 445.125 555.372 446.525 550.422 446.525C545.422 446.525 541.372 445.075 538.272 442.175C535.222 439.275 533.697 435.225 533.697 430.025H544.197C544.247 432.275 544.772 434.025 545.772 435.275C546.822 436.525 548.322 437.15 550.272 437.15C552.172 437.15 553.622 436.55 554.622 435.35C555.622 434.15 556.122 432.5 556.122 430.4V393.65H566.697Z" fill="var(--color-illustrationPalette020)"/>
<path d="M597.395 446.675C593.395 446.675 589.795 445.8 586.595 444.05C583.395 442.25 580.87 439.725 579.02 436.475C577.22 433.225 576.32 429.475 576.32 425.225C576.32 420.975 577.245 417.225 579.095 413.975C580.995 410.725 583.57 408.225 586.82 406.475C590.07 404.675 593.695 403.775 597.695 403.775C601.695 403.775 605.32 404.675 608.57 406.475C611.82 408.225 614.37 410.725 616.22 413.975C618.12 417.225 619.07 420.975 619.07 425.225C619.07 429.475 618.095 433.225 616.145 436.475C614.245 439.725 611.645 442.25 608.345 444.05C605.095 445.8 601.445 446.675 597.395 446.675ZM597.395 437.525C599.295 437.525 601.07 437.075 602.72 436.175C604.42 435.225 605.77 433.825 606.77 431.975C607.77 430.125 608.27 427.875 608.27 425.225C608.27 421.275 607.22 418.25 605.12 416.15C603.07 414 600.545 412.925 597.545 412.925C594.545 412.925 592.02 414 589.97 416.15C587.97 418.25 586.97 421.275 586.97 425.225C586.97 429.175 587.945 432.225 589.895 434.375C591.895 436.475 594.395 437.525 597.395 437.525Z" fill="var(--color-illustrationPalette020)"/>
<path d="M637.273 410.525C638.623 408.525 640.473 406.9 642.823 405.65C645.223 404.4 647.948 403.775 650.998 403.775C654.548 403.775 657.748 404.65 660.598 406.4C663.498 408.15 665.773 410.65 667.423 413.9C669.123 417.1 669.973 420.825 669.973 425.075C669.973 429.325 669.123 433.1 667.423 436.4C665.773 439.65 663.498 442.175 660.598 443.975C657.748 445.775 654.548 446.675 650.998 446.675C647.898 446.675 645.173 446.075 642.823 444.875C640.523 443.625 638.673 442.025 637.273 440.075V446H626.773V390.5H637.273V410.525ZM659.248 425.075C659.248 422.575 658.723 420.425 657.673 418.625C656.673 416.775 655.323 415.375 653.623 414.425C651.973 413.475 650.173 413 648.223 413C646.323 413 644.523 413.5 642.823 414.5C641.173 415.45 639.823 416.85 638.773 418.7C637.773 420.55 637.273 422.725 637.273 425.225C637.273 427.725 637.773 429.9 638.773 431.75C639.823 433.6 641.173 435.025 642.823 436.025C644.523 436.975 646.323 437.45 648.223 437.45C650.173 437.45 651.973 436.95 653.623 435.95C655.323 434.95 656.673 433.525 657.673 431.675C658.723 429.825 659.248 427.625 659.248 425.075Z" fill="var(--color-illustrationPalette020)"/>
<path d="M731.099 393.65V402.125H717.149V446H706.649V402.125H692.699V393.65H731.099Z" fill="var(--color-illustrationPalette020)"/>
<path d="M744.085 399.5C742.235 399.5 740.685 398.925 739.435 397.775C738.235 396.575 737.635 395.1 737.635 393.35C737.635 391.6 738.235 390.15 739.435 389C740.685 387.8 742.235 387.2 744.085 387.2C745.935 387.2 747.46 387.8 748.66 389C749.91 390.15 750.535 391.6 750.535 393.35C750.535 395.1 749.91 396.575 748.66 397.775C747.46 398.925 745.935 399.5 744.085 399.5ZM749.26 404.45V446H738.76V404.45H749.26Z" fill="var(--color-illustrationPalette020)"/>
<path d="M771.859 413.075V433.175C771.859 434.575 772.184 435.6 772.834 436.25C773.534 436.85 774.684 437.15 776.284 437.15H781.159V446H774.559C765.709 446 761.284 441.7 761.284 433.1V413.075H756.334V404.45H761.284V394.175H771.859V404.45H781.159V413.075H771.859Z" fill="var(--color-illustrationPalette020)"/>
<path d="M799.211 390.5V446H788.711V390.5H799.211Z" fill="var(--color-illustrationPalette020)"/>
<path d="M848.21 424.325C848.21 425.825 848.11 427.175 847.91 428.375H817.535C817.785 431.375 818.835 433.725 820.685 435.425C822.535 437.125 824.81 437.975 827.51 437.975C831.41 437.975 834.185 436.3 835.835 432.95H847.16C845.96 436.95 843.66 440.25 840.26 442.85C836.86 445.4 832.685 446.675 827.735 446.675C823.735 446.675 820.135 445.8 816.935 444.05C813.785 442.25 811.31 439.725 809.51 436.475C807.76 433.225 806.885 429.475 806.885 425.225C806.885 420.925 807.76 417.15 809.51 413.9C811.26 410.65 813.71 408.15 816.86 406.4C820.01 404.65 823.635 403.775 827.735 403.775C831.685 403.775 835.21 404.625 838.31 406.325C841.46 408.025 843.885 410.45 845.585 413.6C847.335 416.7 848.21 420.275 848.21 424.325ZM837.335 421.325C837.285 418.625 836.31 416.475 834.41 414.875C832.51 413.225 830.185 412.4 827.435 412.4C824.835 412.4 822.635 413.2 820.835 414.8C819.085 416.35 818.01 418.525 817.61 421.325H837.335Z" fill="var(--color-illustrationPalette020)"/>
<path d="M867.349 434.975L858.574 456.05H851.824L856.699 434.975H867.349Z" fill="var(--color-illustrationPalette020)"/>
<path d="M903.288 437.675H920.538V446H892.788V393.65H903.288V437.675Z" fill="var(--color-illustrationPalette020)"/>
<path d="M945.662 446.675C941.662 446.675 938.062 445.8 934.862 444.05C931.662 442.25 929.137 439.725 927.287 436.475C925.487 433.225 924.587 429.475 924.587 425.225C924.587 420.975 925.512 417.225 927.362 413.975C929.262 410.725 931.837 408.225 935.087 406.475C938.337 404.675 941.962 403.775 945.962 403.775C949.962 403.775 953.587 404.675 956.837 406.475C960.087 408.225 962.637 410.725 964.487 413.975C966.387 417.225 967.337 420.975 967.337 425.225C967.337 429.475 966.362 433.225 964.412 436.475C962.512 439.725 959.912 442.25 956.612 444.05C953.362 445.8 949.712 446.675 945.662 446.675ZM945.662 437.525C947.562 437.525 949.337 437.075 950.987 436.175C952.687 435.225 954.037 433.825 955.037 431.975C956.037 430.125 956.537 427.875 956.537 425.225C956.537 421.275 955.487 418.25 953.387 416.15C951.337 414 948.812 412.925 945.812 412.925C942.812 412.925 940.287 414 938.237 416.15C936.237 418.25 935.237 421.275 935.237 425.225C935.237 429.175 936.212 432.225 938.162 434.375C940.162 436.475 942.662 437.525 945.662 437.525Z" fill="var(--color-illustrationPalette020)"/>
<path d="M972.339 425.225C972.339 420.925 973.214 417.175 974.964 413.975C976.714 410.725 979.139 408.225 982.239 406.475C985.339 404.675 988.889 403.775 992.889 403.775C998.039 403.775 1002.29 405.075 1005.64 407.675C1009.04 410.225 1011.31 413.825 1012.46 418.475H1001.14C1000.54 416.675 999.514 415.275 998.064 414.275C996.664 413.225 994.914 412.7 992.814 412.7C989.814 412.7 987.439 413.8 985.689 416C983.939 418.15 983.064 421.225 983.064 425.225C983.064 429.175 983.939 432.25 985.689 434.45C987.439 436.6 989.814 437.675 992.814 437.675C997.064 437.675 999.839 435.775 1001.14 431.975H1012.46C1011.31 436.475 1009.04 440.05 1005.64 442.7C1002.24 445.35 997.989 446.675 992.889 446.675C988.889 446.675 985.339 445.8 982.239 444.05C979.139 442.25 976.714 439.75 974.964 436.55C973.214 433.3 972.339 429.525 972.339 425.225Z" fill="var(--color-illustrationPalette020)"/>
<path d="M1017.46 425.075C1017.46 420.875 1018.28 417.15 1019.93 413.9C1021.63 410.65 1023.91 408.15 1026.76 406.4C1029.66 404.65 1032.88 403.775 1036.43 403.775C1039.53 403.775 1042.23 404.4 1044.53 405.65C1046.88 406.9 1048.76 408.475 1050.16 410.375V404.45H1060.73V446H1050.16V439.925C1048.81 441.875 1046.93 443.5 1044.53 444.8C1042.18 446.05 1039.46 446.675 1036.36 446.675C1032.86 446.675 1029.66 445.775 1026.76 443.975C1023.91 442.175 1021.63 439.65 1019.93 436.4C1018.28 433.1 1017.46 429.325 1017.46 425.075ZM1050.16 425.225C1050.16 422.675 1049.66 420.5 1048.66 418.7C1047.66 416.85 1046.31 415.45 1044.61 414.5C1042.91 413.5 1041.08 413 1039.13 413C1037.18 413 1035.38 413.475 1033.73 414.425C1032.08 415.375 1030.73 416.775 1029.68 418.625C1028.68 420.425 1028.18 422.575 1028.18 425.075C1028.18 427.575 1028.68 429.775 1029.68 431.675C1030.73 433.525 1032.08 434.95 1033.73 435.95C1035.43 436.95 1037.23 437.45 1039.13 437.45C1041.08 437.45 1042.91 436.975 1044.61 436.025C1046.31 435.025 1047.66 433.625 1048.66 431.825C1049.66 429.975 1050.16 427.775 1050.16 425.225Z" fill="var(--color-illustrationPalette020)"/>
<path d="M1083.21 413.075V433.175C1083.21 434.575 1083.54 435.6 1084.19 436.25C1084.89 436.85 1086.04 437.15 1087.64 437.15H1092.51V446H1085.91C1077.06 446 1072.64 441.7 1072.64 433.1V413.075H1067.69V404.45H1072.64V394.175H1083.21V404.45H1092.51V413.075H1083.21Z" fill="var(--color-illustrationPalette020)"/>
<path d="M1105.39 399.5C1103.54 399.5 1101.99 398.925 1100.74 397.775C1099.54 396.575 1098.94 395.1 1098.94 393.35C1098.94 391.6 1099.54 390.15 1100.74 389C1101.99 387.8 1103.54 387.2 1105.39 387.2C1107.24 387.2 1108.76 387.8 1109.96 389C1111.21 390.15 1111.84 391.6 1111.84 393.35C1111.84 395.1 1111.21 396.575 1109.96 397.775C1108.76 398.925 1107.24 399.5 1105.39 399.5ZM1110.56 404.45V446H1100.06V404.45H1110.56Z" fill="var(--color-illustrationPalette020)"/>
<path d="M1139.39 446.675C1135.39 446.675 1131.79 445.8 1128.59 444.05C1125.39 442.25 1122.86 439.725 1121.01 436.475C1119.21 433.225 1118.31 429.475 1118.31 425.225C1118.31 420.975 1119.24 417.225 1121.09 413.975C1122.99 410.725 1125.56 408.225 1128.81 406.475C1132.06 404.675 1135.69 403.775 1139.69 403.775C1143.69 403.775 1147.31 404.675 1150.56 406.475C1153.81 408.225 1156.36 410.725 1158.21 413.975C1160.11 417.225 1161.06 420.975 1161.06 425.225C1161.06 429.475 1160.09 433.225 1158.14 436.475C1156.24 439.725 1153.64 442.25 1150.34 444.05C1147.09 445.8 1143.44 446.675 1139.39 446.675ZM1139.39 437.525C1141.29 437.525 1143.06 437.075 1144.71 436.175C1146.41 435.225 1147.76 433.825 1148.76 431.975C1149.76 430.125 1150.26 427.875 1150.26 425.225C1150.26 421.275 1149.21 418.25 1147.11 416.15C1145.06 414 1142.54 412.925 1139.54 412.925C1136.54 412.925 1134.01 414 1131.96 416.15C1129.96 418.25 1128.96 421.275 1128.96 425.225C1128.96 429.175 1129.94 432.225 1131.89 434.375C1133.89 436.475 1136.39 437.525 1139.39 437.525Z" fill="var(--color-illustrationPalette020)"/>
<path d="M1191.79 403.85C1196.74 403.85 1200.74 405.425 1203.79 408.575C1206.84 411.675 1208.36 416.025 1208.36 421.625V446H1197.86V423.05C1197.86 419.75 1197.04 417.225 1195.39 415.475C1193.74 413.675 1191.49 412.775 1188.64 412.775C1185.74 412.775 1183.44 413.675 1181.74 415.475C1180.09 417.225 1179.26 419.75 1179.26 423.05V446H1168.76V404.45H1179.26V409.625C1180.66 407.825 1182.44 406.425 1184.59 405.425C1186.79 404.375 1189.19 403.85 1191.79 403.85Z" fill="var(--color-illustrationPalette020)"/>
<path d="M377.42 353C377.42 356.314 374.796 359 371.559 359C368.323 359 365.699 356.314 365.699 353C365.699 349.686 368.323 347 371.559 347C374.796 347 377.42 349.686 377.42 353Z" fill="var(--color-illustrationPalette040)"/>
<path fill-rule="evenodd" clip-rule="evenodd" d="M372.536 166L372.536 350L370.583 350L370.583 166L372.536 166Z" fill="var(--color-illustrationPalette040)"/>
<rect x="353" y="129" width="37" height="37" rx="18.5" fill="var(--color-illustrationPalette040)"/>
<path d="M368.371 142.259V139.568H373.258V154.777H370.338V142.259H368.371Z" fill="var(--color-white)"/>
<rect x="1258" y="393" width="8" height="53" fill="var(--color-illustrationAnatomySubtle)"/>
<rect x="1245" y="644" width="37" height="37" rx="18.5" fill="var(--color-illustrationPalette040)"/>
<path d="M1259.52 666.469C1260.82 665.388 1261.86 664.489 1262.63 663.773C1263.4 663.043 1264.04 662.286 1264.55 661.502C1265.07 660.718 1265.32 659.948 1265.32 659.191C1265.32 658.501 1265.16 657.961 1264.84 657.569C1264.51 657.177 1264.01 656.981 1263.34 656.981C1262.66 656.981 1262.14 657.21 1261.78 657.67C1261.41 658.116 1261.22 658.731 1261.21 659.515H1258.45C1258.5 657.893 1258.98 656.663 1259.89 655.825C1260.81 654.987 1261.97 654.568 1263.38 654.568C1264.92 654.568 1266.1 654.98 1266.92 655.805C1267.75 656.616 1268.16 657.69 1268.16 659.028C1268.16 660.083 1267.88 661.09 1267.31 662.049C1266.74 663.009 1266.09 663.847 1265.36 664.564C1264.63 665.266 1263.68 666.118 1262.5 667.118H1268.49V669.47H1258.47V667.362L1259.52 666.469Z" fill="var(--color-white)"/>
<path fill-rule="evenodd" clip-rule="evenodd" d="M1263 644V475H1265V644H1263Z" fill="var(--color-illustrationPalette040)"/>
<path d="M1269.72 472C1269.72 475.314 1267.1 478 1263.86 478C1260.62 478 1258 475.314 1258 472C1258 468.686 1260.62 466 1263.86 466C1267.1 466 1269.72 468.686 1269.72 472Z" fill="var(--color-illustrationPalette040)"/>
</svg>
