<svg id="nksvg" width="1490" height="838" viewBox="0 0 1490 838" fill="none" xmlns="http://www.w3.org/2000/svg">
<path d="M0 0H1490V838H0V0Z" fill="var(--color-illustrationBackground010)"></path>
<path d="M641.409 390.087V451.639H631.313V409.482L612.538 451.639H605.541L586.677 409.482V451.639H576.581V390.087H587.474L609.084 438.354L630.605 390.087H641.409Z" fill="#577FFB"></path>
<path d="M651.314 427.018C651.314 422.117 652.318 417.778 654.325 413.999C656.392 410.22 659.167 407.298 662.65 405.231C666.193 403.106 670.09 402.043 674.341 402.043C678.178 402.043 681.514 402.81 684.348 404.345C687.242 405.822 689.544 407.681 691.256 409.925V402.84H701.441V451.639H691.256V444.376C689.544 446.679 687.212 448.598 684.26 450.133C681.308 451.668 677.942 452.436 674.164 452.436C669.972 452.436 666.134 451.373 662.65 449.247C659.167 447.063 656.392 444.052 654.325 440.214C652.318 436.317 651.314 431.918 651.314 427.018ZM691.256 427.195C691.256 423.83 690.548 420.907 689.131 418.427C687.773 415.947 685.972 414.058 683.728 412.759C681.485 411.46 679.064 410.811 676.466 410.811C673.868 410.811 671.448 411.46 669.204 412.759C666.96 413.999 665.13 415.859 663.713 418.339C662.355 420.759 661.676 423.652 661.676 427.018C661.676 430.383 662.355 433.335 663.713 435.874C665.13 438.413 666.96 440.362 669.204 441.72C671.507 443.018 673.927 443.668 676.466 443.668C679.064 443.668 681.485 443.018 683.728 441.72C685.972 440.421 687.773 438.531 689.131 436.051C690.548 433.513 691.256 430.56 691.256 427.195Z" fill="#577FFB"></path>
<path d="M724.799 409.925C726.275 407.445 728.223 405.526 730.644 404.168C733.124 402.751 736.046 402.043 739.412 402.043V412.493H736.843C732.887 412.493 729.876 413.497 727.81 415.505C725.802 417.512 724.799 420.996 724.799 425.955V451.639H714.702V402.84H724.799V409.925Z" fill="#577FFB"></path>
<path d="M767.999 427.284L790.494 451.639H776.856L758.789 430.649V451.639H748.692V386.101H758.789V424.184L776.501 402.84H790.494L767.999 427.284Z" fill="#577FFB"></path>
<path d="M817.372 427.018C817.372 422.117 818.375 417.778 820.383 413.999C822.449 410.22 825.224 407.298 828.708 405.231C832.25 403.106 836.147 402.043 840.398 402.043C844.236 402.043 847.572 402.81 850.406 404.345C853.299 405.822 855.602 407.681 857.314 409.925V402.84H867.499V451.639H857.314V444.376C855.602 446.679 853.27 448.598 850.317 450.133C847.365 451.668 844 452.436 840.221 452.436C836.029 452.436 832.191 451.373 828.708 449.247C825.224 447.063 822.449 444.052 820.383 440.214C818.375 436.317 817.372 431.918 817.372 427.018ZM857.314 427.195C857.314 423.83 856.605 420.907 855.188 418.427C853.83 415.947 852.03 414.058 849.786 412.759C847.542 411.46 845.122 410.811 842.524 410.811C839.926 410.811 837.505 411.46 835.261 412.759C833.018 413.999 831.188 415.859 829.771 418.339C828.413 420.759 827.734 423.652 827.734 427.018C827.734 430.383 828.413 433.335 829.771 435.874C831.188 438.413 833.018 440.362 835.261 441.72C837.564 443.018 839.985 443.668 842.524 443.668C845.122 443.668 847.542 443.018 849.786 441.72C852.03 440.421 853.83 438.531 855.188 436.051C856.605 433.513 857.314 430.56 857.314 427.195Z" fill="#577FFB"></path>
<path d="M890.856 386.101V451.639H880.76V386.101H890.856Z" fill="#577FFB"></path>
<path d="M914.208 386.101V451.639H904.112V386.101H914.208Z" fill="#577FFB"></path>
<path d="M947.104 427.018C947.104 422.117 948.108 417.778 950.115 413.999C952.182 410.22 954.957 407.298 958.44 405.231C961.983 403.106 965.88 402.043 970.131 402.043C973.968 402.043 977.304 402.81 980.138 404.345C983.032 405.822 985.334 407.681 987.046 409.925V402.84H997.231V451.639H987.046V444.376C985.334 446.679 983.002 448.598 980.05 450.133C977.098 451.668 973.732 452.436 969.954 452.436C965.762 452.436 961.924 451.373 958.44 449.247C954.957 447.063 952.182 444.052 950.115 440.214C948.108 436.317 947.104 431.918 947.104 427.018ZM987.046 427.195C987.046 423.83 986.338 420.907 984.921 418.427C983.563 415.947 981.762 414.058 979.518 412.759C977.275 411.46 974.854 410.811 972.256 410.811C969.658 410.811 967.238 411.46 964.994 412.759C962.75 413.999 960.92 415.859 959.503 418.339C958.145 420.759 957.466 423.652 957.466 427.018C957.466 430.383 958.145 433.335 959.503 435.874C960.92 438.413 962.75 440.362 964.994 441.72C967.297 443.018 969.717 443.668 972.256 443.668C974.854 443.668 977.275 443.018 979.518 441.72C981.762 440.421 983.563 438.531 984.921 436.051C986.338 433.513 987.046 430.56 987.046 427.195Z" fill="#577FFB"></path>
<path d="M1028.21 452.436C1024.37 452.436 1020.91 451.757 1017.84 450.399C1014.83 448.982 1012.44 447.092 1010.67 444.731C1008.9 442.31 1007.95 439.623 1007.84 436.671H1018.29C1018.46 438.738 1019.44 440.48 1021.21 441.897C1023.04 443.255 1025.31 443.934 1028.03 443.934C1030.86 443.934 1033.05 443.402 1034.58 442.339C1036.18 441.218 1036.97 439.801 1036.97 438.088C1036.97 436.258 1036.09 434.9 1034.32 434.014C1032.6 433.129 1029.86 432.155 1026.08 431.092C1022.42 430.088 1019.44 429.114 1017.13 428.169C1014.83 427.225 1012.82 425.778 1011.11 423.83C1009.46 421.881 1008.63 419.313 1008.63 416.124C1008.63 413.527 1009.4 411.165 1010.94 409.039C1012.47 406.855 1014.65 405.143 1017.49 403.903C1020.38 402.663 1023.69 402.043 1027.41 402.043C1032.96 402.043 1037.42 403.46 1040.78 406.294C1044.21 409.069 1046.04 412.877 1046.27 417.719H1036.18C1036 415.534 1035.11 413.792 1033.52 412.493C1031.92 411.194 1029.77 410.545 1027.05 410.545C1024.4 410.545 1022.36 411.047 1020.94 412.051C1019.53 413.054 1018.82 414.383 1018.82 416.036C1018.82 417.335 1019.29 418.427 1020.23 419.313C1021.18 420.198 1022.33 420.907 1023.69 421.438C1025.05 421.911 1027.05 422.531 1029.71 423.298C1033.25 424.243 1036.15 425.217 1038.39 426.221C1040.69 427.165 1042.67 428.583 1044.32 430.472C1045.98 432.361 1046.83 434.871 1046.89 438C1046.89 440.775 1046.12 443.255 1044.59 445.439C1043.05 447.624 1040.87 449.336 1038.04 450.576C1035.26 451.816 1031.98 452.436 1028.21 452.436Z" fill="#577FFB"></path>
<path d="M1090.9 409.925C1092.38 407.445 1094.33 405.526 1096.75 404.168C1099.23 402.751 1102.15 402.043 1105.52 402.043V412.493H1102.95C1098.99 412.493 1095.98 413.497 1093.91 415.505C1091.91 417.512 1090.9 420.996 1090.9 425.955V451.639H1080.81V402.84H1090.9V409.925Z" fill="#577FFB"></path>
<path d="M1159.52 426.044C1159.52 427.874 1159.4 429.527 1159.17 431.003H1121.88C1122.18 434.9 1123.62 438.029 1126.22 440.391C1128.82 442.753 1132.01 443.934 1135.79 443.934C1141.22 443.934 1145.06 441.66 1147.3 437.114H1158.19C1156.72 441.601 1154.03 445.292 1150.13 448.185C1146.3 451.019 1141.51 452.436 1135.79 452.436C1131.12 452.436 1126.93 451.402 1123.21 449.336C1119.55 447.21 1116.66 444.258 1114.53 440.48C1112.47 436.642 1111.43 432.214 1111.43 427.195C1111.43 422.176 1112.44 417.778 1114.44 413.999C1116.51 410.161 1119.37 407.209 1123.03 405.143C1126.75 403.076 1131 402.043 1135.79 402.043C1140.39 402.043 1144.5 403.047 1148.1 405.054C1151.7 407.061 1154.5 409.895 1156.51 413.556C1158.52 417.158 1159.52 421.32 1159.52 426.044ZM1148.98 422.855C1148.92 419.136 1147.6 416.154 1145 413.91C1142.4 411.667 1139.18 410.545 1135.34 410.545C1131.86 410.545 1128.88 411.667 1126.4 413.91C1123.92 416.095 1122.44 419.077 1121.97 422.855H1148.98Z" fill="#577FFB"></path>
<path d="M1166.09 427.018C1166.09 422.117 1167.1 417.778 1169.1 413.999C1171.17 410.22 1173.95 407.298 1177.43 405.231C1180.97 403.106 1184.87 402.043 1189.12 402.043C1192.96 402.043 1196.29 402.81 1199.13 404.345C1202.02 405.822 1204.32 407.681 1206.03 409.925V402.84H1216.22V451.639H1206.03V444.376C1204.32 446.679 1201.99 448.598 1199.04 450.133C1196.09 451.668 1192.72 452.436 1188.94 452.436C1184.75 452.436 1180.91 451.373 1177.43 449.247C1173.95 447.063 1171.17 444.052 1169.1 440.214C1167.1 436.317 1166.09 431.918 1166.09 427.018ZM1206.03 427.195C1206.03 423.83 1205.33 420.907 1203.91 418.427C1202.55 415.947 1200.75 414.058 1198.51 412.759C1196.26 411.46 1193.84 410.811 1191.24 410.811C1188.65 410.811 1186.23 411.46 1183.98 412.759C1181.74 413.999 1179.91 415.859 1178.49 418.339C1177.13 420.759 1176.45 423.652 1176.45 427.018C1176.45 430.383 1177.13 433.335 1178.49 435.874C1179.91 438.413 1181.74 440.362 1183.98 441.72C1186.29 443.018 1188.71 443.668 1191.24 443.668C1193.84 443.668 1196.26 443.018 1198.51 441.72C1200.75 440.421 1202.55 438.531 1203.91 436.051C1205.33 433.513 1206.03 430.56 1206.03 427.195Z" fill="#577FFB"></path>
<path d="M1226.12 427.018C1226.12 422.117 1227.12 417.778 1229.13 413.999C1231.19 410.22 1233.97 407.298 1237.45 405.231C1240.99 403.106 1244.92 402.043 1249.23 402.043C1252.42 402.043 1255.55 402.751 1258.62 404.168C1261.75 405.526 1264.23 407.357 1266.06 409.659V386.101H1276.24V451.639H1266.06V444.288C1264.4 446.65 1262.1 448.598 1259.15 450.133C1256.26 451.668 1252.92 452.436 1249.14 452.436C1244.89 452.436 1240.99 451.373 1237.45 449.247C1233.97 447.063 1231.19 444.052 1229.13 440.214C1227.12 436.317 1226.12 431.918 1226.12 427.018ZM1266.06 427.195C1266.06 423.83 1265.35 420.907 1263.93 418.427C1262.57 415.947 1260.77 414.058 1258.53 412.759C1256.29 411.46 1253.87 410.811 1251.27 410.811C1248.67 410.811 1246.25 411.46 1244.01 412.759C1241.76 413.999 1239.93 415.859 1238.51 418.339C1237.16 420.759 1236.48 423.652 1236.48 427.018C1236.48 430.383 1237.16 433.335 1238.51 435.874C1239.93 438.413 1241.76 440.362 1244.01 441.72C1246.31 443.018 1248.73 443.668 1251.27 443.668C1253.87 443.668 1256.29 443.018 1258.53 441.72C1260.77 440.421 1262.57 438.531 1263.93 436.051C1265.35 433.513 1266.06 430.56 1266.06 427.195Z" fill="#577FFB"></path>
<path d="M208 419C208 370.951 246.951 332 295 332H448C496.049 332 535 370.951 535 419C535 467.049 496.049 506 448 506H295C246.951 506 208 467.049 208 419Z" fill="#577FFB"></path>
<path d="M512 420C512 455.899 482.899 485 447 485C411.101 485 382 455.899 382 420C382 384.101 411.101 355 447 355C482.899 355 512 384.101 512 420Z" fill="white"></path>
<path d="M277.886 442.152L254.984 419.25L247.351 426.884L277.886 457.42L343.319 391.986L335.685 384.353L277.886 442.152Z" fill="white"></path>
</svg>
