<svg id="components-switch-usage-do-2" style="width: 100%; height: 100%" width="1490" height="838" viewBox="0 0 1490 838" fill="none" xmlns="http://www.w3.org/2000/svg" class="css-0"><path style="fill:var(--color-illustrationBackground020)" d="M0 0H1490V838H0V0Z"></path><rect style="fill:var(--color-illustrationHighlight010)" x="222" y="340" width="297.617" height="158.732" rx="79.3658"></rect><mask id="nk-1530" mask-type="alpha" maskUnits="userSpaceOnUse" x="241" y="359" width="120" height="120"><path d="M286.483 440.201L265.65 419.368L258.706 426.312L286.483 454.09L346.005 394.567L339.061 387.623L286.483 440.201Z" fill="#0A0A0A"></path></mask><g mask="url(#nk-1530)"><rect style="fill:var(--color-interface010)" x="241.841" y="359.846" width="119.045" height="119.045"></rect></g><g clip-path="url(#nk-1532)"><rect style="fill:var(--color-interface010)" width="119.045" height="119.045" transform="translate(380.731 359.846)"></rect></g><path style="fill:var(--color-illustrationHighlight010)" d="M626.409 390.087V451.639H616.313V409.482L597.538 451.639H590.541L571.677 409.482V451.639H561.581V390.087H572.474L594.084 438.354L615.605 390.087H626.409ZM636.314 427.018C636.314 422.117 637.318 417.778 639.325 413.999C641.392 410.22 644.167 407.298 647.65 405.231C651.193 403.106 655.09 402.043 659.341 402.043C663.178 402.043 666.514 402.81 669.348 404.345C672.242 405.822 674.544 407.681 676.256 409.925V402.84H686.441V451.639H676.256V444.376C674.544 446.679 672.212 448.598 669.26 450.133C666.308 451.668 662.942 452.436 659.164 452.436C654.972 452.436 651.134 451.373 647.65 449.247C644.167 447.063 641.392 444.052 639.325 440.214C637.318 436.317 636.314 431.918 636.314 427.018ZM676.256 427.195C676.256 423.83 675.548 420.907 674.131 418.427C672.773 415.947 670.972 414.058 668.728 412.759C666.485 411.46 664.064 410.811 661.466 410.811C658.868 410.811 656.448 411.46 654.204 412.759C651.96 413.999 650.13 415.859 648.713 418.339C647.355 420.759 646.676 423.652 646.676 427.018C646.676 430.383 647.355 433.335 648.713 435.874C650.13 438.413 651.96 440.362 654.204 441.72C656.507 443.018 658.927 443.668 661.466 443.668C664.064 443.668 666.485 443.018 668.728 441.72C670.972 440.421 672.773 438.531 674.131 436.051C675.548 433.513 676.256 430.56 676.256 427.195ZM709.799 409.925C711.275 407.445 713.223 405.526 715.644 404.168C718.124 402.751 721.046 402.043 724.412 402.043V412.493H721.843C717.887 412.493 714.876 413.497 712.81 415.505C710.802 417.512 709.799 420.996 709.799 425.955V451.639H699.702V402.84H709.799V409.925ZM752.999 427.284L775.494 451.639H761.856L743.789 430.649V451.639H733.692V386.101H743.789V424.184L761.501 402.84H775.494L752.999 427.284ZM802.372 427.018C802.372 422.117 803.375 417.778 805.383 413.999C807.449 410.22 810.224 407.298 813.708 405.231C817.25 403.106 821.147 402.043 825.398 402.043C829.236 402.043 832.572 402.81 835.406 404.345C838.299 405.822 840.602 407.681 842.314 409.925V402.84H852.499V451.639H842.314V444.376C840.602 446.679 838.27 448.598 835.317 450.133C832.365 451.668 829 452.436 825.221 452.436C821.029 452.436 817.191 451.373 813.708 449.247C810.224 447.063 807.449 444.052 805.383 440.214C803.375 436.317 802.372 431.918 802.372 427.018ZM842.314 427.195C842.314 423.83 841.605 420.907 840.188 418.427C838.83 415.947 837.03 414.058 834.786 412.759C832.542 411.46 830.122 410.811 827.524 410.811C824.926 410.811 822.505 411.46 820.261 412.759C818.018 413.999 816.188 415.859 814.771 418.339C813.413 420.759 812.734 423.652 812.734 427.018C812.734 430.383 813.413 433.335 814.771 435.874C816.188 438.413 818.018 440.362 820.261 441.72C822.564 443.018 824.985 443.668 827.524 443.668C830.122 443.668 832.542 443.018 834.786 441.72C837.03 440.421 838.83 438.531 840.188 436.051C841.605 433.513 842.314 430.56 842.314 427.195ZM875.856 386.101V451.639H865.76V386.101H875.856ZM899.208 386.101V451.639H889.112V386.101H899.208ZM932.104 427.018C932.104 422.117 933.108 417.778 935.115 413.999C937.182 410.22 939.957 407.298 943.44 405.231C946.983 403.106 950.88 402.043 955.131 402.043C958.968 402.043 962.304 402.81 965.138 404.345C968.031 405.822 970.334 407.681 972.046 409.925V402.84H982.231V451.639H972.046V444.376C970.334 446.679 968.002 448.598 965.05 450.133C962.098 451.668 958.732 452.436 954.954 452.436C950.762 452.436 946.924 451.373 943.44 449.247C939.957 447.063 937.182 444.052 935.115 440.214C933.108 436.317 932.104 431.918 932.104 427.018ZM972.046 427.195C972.046 423.83 971.338 420.907 969.921 418.427C968.563 415.947 966.762 414.058 964.518 412.759C962.275 411.46 959.854 410.811 957.256 410.811C954.658 410.811 952.238 411.46 949.994 412.759C947.75 413.999 945.92 415.859 944.503 418.339C943.145 420.759 942.466 423.652 942.466 427.018C942.466 430.383 943.145 433.335 944.503 435.874C945.92 438.413 947.75 440.362 949.994 441.72C952.297 443.018 954.717 443.668 957.256 443.668C959.854 443.668 962.275 443.018 964.518 441.72C966.762 440.421 968.563 438.531 969.921 436.051C971.338 433.513 972.046 430.56 972.046 427.195ZM1013.21 452.436C1009.37 452.436 1005.91 451.757 1002.84 450.399C999.832 448.982 997.441 447.092 995.669 444.731C993.898 442.31 992.954 439.623 992.835 436.671H1003.29C1003.46 438.738 1004.44 440.48 1006.21 441.897C1008.04 443.255 1010.31 443.934 1013.03 443.934C1015.86 443.934 1018.05 443.402 1019.58 442.339C1021.18 441.218 1021.97 439.801 1021.97 438.088C1021.97 436.258 1021.09 434.9 1019.32 434.014C1017.6 433.129 1014.86 432.155 1011.08 431.092C1007.42 430.088 1004.44 429.114 1002.13 428.169C999.832 427.225 997.825 425.778 996.112 423.83C994.459 421.881 993.632 419.313 993.632 416.124C993.632 413.527 994.4 411.165 995.935 409.039C997.47 406.855 999.655 405.143 1002.49 403.903C1005.38 402.663 1008.69 402.043 1012.41 402.043C1017.96 402.043 1022.42 403.46 1025.78 406.294C1029.21 409.069 1031.04 412.877 1031.27 417.719H1021.18C1021 415.534 1020.11 413.792 1018.52 412.493C1016.92 411.194 1014.77 410.545 1012.05 410.545C1009.4 410.545 1007.36 411.047 1005.94 412.051C1004.53 413.054 1003.82 414.383 1003.82 416.036C1003.82 417.335 1004.29 418.427 1005.23 419.313C1006.18 420.198 1007.33 420.907 1008.69 421.438C1010.05 421.911 1012.05 422.531 1014.71 423.298C1018.25 424.243 1021.15 425.217 1023.39 426.221C1025.69 427.165 1027.67 428.583 1029.32 430.472C1030.98 432.361 1031.83 434.871 1031.89 438C1031.89 440.775 1031.12 443.255 1029.59 445.439C1028.05 447.624 1025.87 449.336 1023.04 450.576C1020.26 451.816 1016.98 452.436 1013.21 452.436ZM1075.9 409.925C1077.38 407.445 1079.33 405.526 1081.75 404.168C1084.23 402.751 1087.15 402.043 1090.52 402.043V412.493H1087.95C1083.99 412.493 1080.98 413.497 1078.91 415.505C1076.91 417.512 1075.9 420.996 1075.9 425.955V451.639H1065.81V402.84H1075.9V409.925ZM1144.52 426.044C1144.52 427.874 1144.4 429.527 1144.17 431.003H1106.88C1107.18 434.9 1108.62 438.029 1111.22 440.391C1113.82 442.753 1117.01 443.934 1120.79 443.934C1126.22 443.934 1130.06 441.66 1132.3 437.114H1143.19C1141.72 441.601 1139.03 445.292 1135.13 448.185C1131.3 451.019 1126.51 452.436 1120.79 452.436C1116.12 452.436 1111.93 451.403 1108.21 449.336C1104.55 447.21 1101.66 444.258 1099.53 440.48C1097.47 436.642 1096.43 432.214 1096.43 427.195C1096.43 422.176 1097.44 417.778 1099.44 413.999C1101.51 410.161 1104.37 407.209 1108.03 405.143C1111.75 403.076 1116 402.043 1120.79 402.043C1125.39 402.043 1129.5 403.047 1133.1 405.054C1136.7 407.061 1139.5 409.895 1141.51 413.556C1143.52 417.158 1144.52 421.32 1144.52 426.044ZM1133.98 422.855C1133.92 419.136 1132.6 416.154 1130 413.91C1127.4 411.667 1124.18 410.545 1120.34 410.545C1116.86 410.545 1113.88 411.667 1111.4 413.91C1108.92 416.095 1107.44 419.077 1106.97 422.855H1133.98ZM1151.09 427.018C1151.09 422.117 1152.1 417.778 1154.1 413.999C1156.17 410.22 1158.95 407.298 1162.43 405.231C1165.97 403.106 1169.87 402.043 1174.12 402.043C1177.96 402.043 1181.29 402.81 1184.13 404.345C1187.02 405.822 1189.32 407.681 1191.03 409.925V402.84H1201.22V451.639H1191.03V444.376C1189.32 446.679 1186.99 448.598 1184.04 450.133C1181.09 451.668 1177.72 452.436 1173.94 452.436C1169.75 452.436 1165.91 451.373 1162.43 449.247C1158.95 447.063 1156.17 444.052 1154.1 440.214C1152.1 436.317 1151.09 431.918 1151.09 427.018ZM1191.03 427.195C1191.03 423.83 1190.33 420.907 1188.91 418.427C1187.55 415.947 1185.75 414.058 1183.51 412.759C1181.26 411.46 1178.84 410.811 1176.24 410.811C1173.65 410.811 1171.23 411.46 1168.98 412.759C1166.74 413.999 1164.91 415.859 1163.49 418.339C1162.13 420.759 1161.45 423.652 1161.45 427.018C1161.45 430.383 1162.13 433.335 1163.49 435.874C1164.91 438.413 1166.74 440.362 1168.98 441.72C1171.29 443.018 1173.71 443.668 1176.24 443.668C1178.84 443.668 1181.26 443.018 1183.51 441.72C1185.75 440.421 1187.55 438.531 1188.91 436.051C1190.33 433.513 1191.03 430.56 1191.03 427.195ZM1211.12 427.018C1211.12 422.117 1212.12 417.778 1214.13 413.999C1216.19 410.22 1218.97 407.298 1222.45 405.231C1225.99 403.106 1229.92 402.043 1234.23 402.043C1237.42 402.043 1240.55 402.751 1243.62 404.168C1246.75 405.526 1249.23 407.357 1251.06 409.659V386.101H1261.24V451.639H1251.06V444.288C1249.4 446.65 1247.1 448.598 1244.15 450.133C1241.26 451.668 1237.92 452.436 1234.14 452.436C1229.89 452.436 1225.99 451.373 1222.45 449.247C1218.97 447.063 1216.19 444.052 1214.13 440.214C1212.12 436.317 1211.12 431.918 1211.12 427.018ZM1251.06 427.195C1251.06 423.83 1250.35 420.907 1248.93 418.427C1247.57 415.947 1245.77 414.058 1243.53 412.759C1241.29 411.46 1238.87 410.811 1236.27 410.811C1233.67 410.811 1231.25 411.46 1229.01 412.759C1226.76 413.999 1224.93 415.859 1223.51 418.339C1222.16 420.759 1221.48 423.652 1221.48 427.018C1221.48 430.383 1222.16 433.335 1223.51 435.874C1224.93 438.413 1226.76 440.362 1229.01 441.72C1231.31 443.018 1233.73 443.668 1236.27 443.668C1238.87 443.668 1241.29 443.018 1243.53 441.72C1245.77 440.421 1247.57 438.531 1248.93 436.051C1250.35 433.513 1251.06 430.56 1251.06 427.195Z"></path><rect style="fill:var(--color-illustrationHighlight010)" x="222" y="340" width="297.617" height="158.732" rx="79.3658"></rect><mask id="nk-1531" mask-type="alpha" maskUnits="userSpaceOnUse" x="241" y="359" width="120" height="120"><path d="M286.483 440.201L265.65 419.368L258.706 426.312L286.483 454.09L346.005 394.567L339.061 387.623L286.483 440.201Z" fill="#0A0A0A"></path></mask><g mask="url(#nk-1531)"><rect style="fill:var(--color-interface010)" x="241.841" y="359.846" width="119.045" height="119.045"></rect></g><g clip-path="url(#nk-1533)"><rect style="fill:var(--color-interface010)" width="119.045" height="119.045" transform="translate(380.731 359.846)"></rect></g><path style="fill:var(--color-illustrationHighlight010)" d="M626.409 390.087V451.639H616.313V409.482L597.538 451.639H590.541L571.677 409.482V451.639H561.581V390.087H572.474L594.084 438.354L615.605 390.087H626.409ZM636.314 427.018C636.314 422.117 637.318 417.778 639.325 413.999C641.392 410.22 644.167 407.298 647.65 405.231C651.193 403.106 655.09 402.043 659.341 402.043C663.178 402.043 666.514 402.81 669.348 404.345C672.242 405.822 674.544 407.681 676.256 409.925V402.84H686.441V451.639H676.256V444.376C674.544 446.679 672.212 448.598 669.26 450.133C666.308 451.668 662.942 452.436 659.164 452.436C654.972 452.436 651.134 451.373 647.65 449.247C644.167 447.063 641.392 444.052 639.325 440.214C637.318 436.317 636.314 431.918 636.314 427.018ZM676.256 427.195C676.256 423.83 675.548 420.907 674.131 418.427C672.773 415.947 670.972 414.058 668.728 412.759C666.485 411.46 664.064 410.811 661.466 410.811C658.868 410.811 656.448 411.46 654.204 412.759C651.96 413.999 650.13 415.859 648.713 418.339C647.355 420.759 646.676 423.652 646.676 427.018C646.676 430.383 647.355 433.335 648.713 435.874C650.13 438.413 651.96 440.362 654.204 441.72C656.507 443.018 658.927 443.668 661.466 443.668C664.064 443.668 666.485 443.018 668.728 441.72C670.972 440.421 672.773 438.531 674.131 436.051C675.548 433.513 676.256 430.56 676.256 427.195ZM709.799 409.925C711.275 407.445 713.223 405.526 715.644 404.168C718.124 402.751 721.046 402.043 724.412 402.043V412.493H721.843C717.887 412.493 714.876 413.497 712.81 415.505C710.802 417.512 709.799 420.996 709.799 425.955V451.639H699.702V402.84H709.799V409.925ZM752.999 427.284L775.494 451.639H761.856L743.789 430.649V451.639H733.692V386.101H743.789V424.184L761.501 402.84H775.494L752.999 427.284ZM802.372 427.018C802.372 422.117 803.375 417.778 805.383 413.999C807.449 410.22 810.224 407.298 813.708 405.231C817.25 403.106 821.147 402.043 825.398 402.043C829.236 402.043 832.572 402.81 835.406 404.345C838.299 405.822 840.602 407.681 842.314 409.925V402.84H852.499V451.639H842.314V444.376C840.602 446.679 838.27 448.598 835.317 450.133C832.365 451.668 829 452.436 825.221 452.436C821.029 452.436 817.191 451.373 813.708 449.247C810.224 447.063 807.449 444.052 805.383 440.214C803.375 436.317 802.372 431.918 802.372 427.018ZM842.314 427.195C842.314 423.83 841.605 420.907 840.188 418.427C838.83 415.947 837.03 414.058 834.786 412.759C832.542 411.46 830.122 410.811 827.524 410.811C824.926 410.811 822.505 411.46 820.261 412.759C818.018 413.999 816.188 415.859 814.771 418.339C813.413 420.759 812.734 423.652 812.734 427.018C812.734 430.383 813.413 433.335 814.771 435.874C816.188 438.413 818.018 440.362 820.261 441.72C822.564 443.018 824.985 443.668 827.524 443.668C830.122 443.668 832.542 443.018 834.786 441.72C837.03 440.421 838.83 438.531 840.188 436.051C841.605 433.513 842.314 430.56 842.314 427.195ZM875.856 386.101V451.639H865.76V386.101H875.856ZM899.208 386.101V451.639H889.112V386.101H899.208ZM932.104 427.018C932.104 422.117 933.108 417.778 935.115 413.999C937.182 410.22 939.957 407.298 943.44 405.231C946.983 403.106 950.88 402.043 955.131 402.043C958.968 402.043 962.304 402.81 965.138 404.345C968.031 405.822 970.334 407.681 972.046 409.925V402.84H982.231V451.639H972.046V444.376C970.334 446.679 968.002 448.598 965.05 450.133C962.098 451.668 958.732 452.436 954.954 452.436C950.762 452.436 946.924 451.373 943.44 449.247C939.957 447.063 937.182 444.052 935.115 440.214C933.108 436.317 932.104 431.918 932.104 427.018ZM972.046 427.195C972.046 423.83 971.338 420.907 969.921 418.427C968.563 415.947 966.762 414.058 964.518 412.759C962.275 411.46 959.854 410.811 957.256 410.811C954.658 410.811 952.238 411.46 949.994 412.759C947.75 413.999 945.92 415.859 944.503 418.339C943.145 420.759 942.466 423.652 942.466 427.018C942.466 430.383 943.145 433.335 944.503 435.874C945.92 438.413 947.75 440.362 949.994 441.72C952.297 443.018 954.717 443.668 957.256 443.668C959.854 443.668 962.275 443.018 964.518 441.72C966.762 440.421 968.563 438.531 969.921 436.051C971.338 433.513 972.046 430.56 972.046 427.195ZM1013.21 452.436C1009.37 452.436 1005.91 451.757 1002.84 450.399C999.832 448.982 997.441 447.092 995.669 444.731C993.898 442.31 992.954 439.623 992.835 436.671H1003.29C1003.46 438.738 1004.44 440.48 1006.21 441.897C1008.04 443.255 1010.31 443.934 1013.03 443.934C1015.86 443.934 1018.05 443.402 1019.58 442.339C1021.18 441.218 1021.97 439.801 1021.97 438.088C1021.97 436.258 1021.09 434.9 1019.32 434.014C1017.6 433.129 1014.86 432.155 1011.08 431.092C1007.42 430.088 1004.44 429.114 1002.13 428.169C999.832 427.225 997.825 425.778 996.112 423.83C994.459 421.881 993.632 419.313 993.632 416.124C993.632 413.527 994.4 411.165 995.935 409.039C997.47 406.855 999.655 405.143 1002.49 403.903C1005.38 402.663 1008.69 402.043 1012.41 402.043C1017.96 402.043 1022.42 403.46 1025.78 406.294C1029.21 409.069 1031.04 412.877 1031.27 417.719H1021.18C1021 415.534 1020.11 413.792 1018.52 412.493C1016.92 411.194 1014.77 410.545 1012.05 410.545C1009.4 410.545 1007.36 411.047 1005.94 412.051C1004.53 413.054 1003.82 414.383 1003.82 416.036C1003.82 417.335 1004.29 418.427 1005.23 419.313C1006.18 420.198 1007.33 420.907 1008.69 421.438C1010.05 421.911 1012.05 422.531 1014.71 423.298C1018.25 424.243 1021.15 425.217 1023.39 426.221C1025.69 427.165 1027.67 428.583 1029.32 430.472C1030.98 432.361 1031.83 434.871 1031.89 438C1031.89 440.775 1031.12 443.255 1029.59 445.439C1028.05 447.624 1025.87 449.336 1023.04 450.576C1020.26 451.816 1016.98 452.436 1013.21 452.436ZM1075.9 409.925C1077.38 407.445 1079.33 405.526 1081.75 404.168C1084.23 402.751 1087.15 402.043 1090.52 402.043V412.493H1087.95C1083.99 412.493 1080.98 413.497 1078.91 415.505C1076.91 417.512 1075.9 420.996 1075.9 425.955V451.639H1065.81V402.84H1075.9V409.925ZM1144.52 426.044C1144.52 427.874 1144.4 429.527 1144.17 431.003H1106.88C1107.18 434.9 1108.62 438.029 1111.22 440.391C1113.82 442.753 1117.01 443.934 1120.79 443.934C1126.22 443.934 1130.06 441.66 1132.3 437.114H1143.19C1141.72 441.601 1139.03 445.292 1135.13 448.185C1131.3 451.019 1126.51 452.436 1120.79 452.436C1116.12 452.436 1111.93 451.403 1108.21 449.336C1104.55 447.21 1101.66 444.258 1099.53 440.48C1097.47 436.642 1096.43 432.214 1096.43 427.195C1096.43 422.176 1097.44 417.778 1099.44 413.999C1101.51 410.161 1104.37 407.209 1108.03 405.143C1111.75 403.076 1116 402.043 1120.79 402.043C1125.39 402.043 1129.5 403.047 1133.1 405.054C1136.7 407.061 1139.5 409.895 1141.51 413.556C1143.52 417.158 1144.52 421.32 1144.52 426.044ZM1133.98 422.855C1133.92 419.136 1132.6 416.154 1130 413.91C1127.4 411.667 1124.18 410.545 1120.34 410.545C1116.86 410.545 1113.88 411.667 1111.4 413.91C1108.92 416.095 1107.44 419.077 1106.97 422.855H1133.98ZM1151.09 427.018C1151.09 422.117 1152.1 417.778 1154.1 413.999C1156.17 410.22 1158.95 407.298 1162.43 405.231C1165.97 403.106 1169.87 402.043 1174.12 402.043C1177.96 402.043 1181.29 402.81 1184.13 404.345C1187.02 405.822 1189.32 407.681 1191.03 409.925V402.84H1201.22V451.639H1191.03V444.376C1189.32 446.679 1186.99 448.598 1184.04 450.133C1181.09 451.668 1177.72 452.436 1173.94 452.436C1169.75 452.436 1165.91 451.373 1162.43 449.247C1158.95 447.063 1156.17 444.052 1154.1 440.214C1152.1 436.317 1151.09 431.918 1151.09 427.018ZM1191.03 427.195C1191.03 423.83 1190.33 420.907 1188.91 418.427C1187.55 415.947 1185.75 414.058 1183.51 412.759C1181.26 411.46 1178.84 410.811 1176.24 410.811C1173.65 410.811 1171.23 411.46 1168.98 412.759C1166.74 413.999 1164.91 415.859 1163.49 418.339C1162.13 420.759 1161.45 423.652 1161.45 427.018C1161.45 430.383 1162.13 433.335 1163.49 435.874C1164.91 438.413 1166.74 440.362 1168.98 441.72C1171.29 443.018 1173.71 443.668 1176.24 443.668C1178.84 443.668 1181.26 443.018 1183.51 441.72C1185.75 440.421 1187.55 438.531 1188.91 436.051C1190.33 433.513 1191.03 430.56 1191.03 427.195ZM1211.12 427.018C1211.12 422.117 1212.12 417.778 1214.13 413.999C1216.19 410.22 1218.97 407.298 1222.45 405.231C1225.99 403.106 1229.92 402.043 1234.23 402.043C1237.42 402.043 1240.55 402.751 1243.62 404.168C1246.75 405.526 1249.23 407.357 1251.06 409.659V386.101H1261.24V451.639H1251.06V444.288C1249.4 446.65 1247.1 448.598 1244.15 450.133C1241.26 451.668 1237.92 452.436 1234.14 452.436C1229.89 452.436 1225.99 451.373 1222.45 449.247C1218.97 447.063 1216.19 444.052 1214.13 440.214C1212.12 436.317 1211.12 431.918 1211.12 427.018ZM1251.06 427.195C1251.06 423.83 1250.35 420.907 1248.93 418.427C1247.57 415.947 1245.77 414.058 1243.53 412.759C1241.29 411.46 1238.87 410.811 1236.27 410.811C1233.67 410.811 1231.25 411.46 1229.01 412.759C1226.76 413.999 1224.93 415.859 1223.51 418.339C1222.16 420.759 1221.48 423.652 1221.48 427.018C1221.48 430.383 1222.16 433.335 1223.51 435.874C1224.93 438.413 1226.76 440.362 1229.01 441.72C1231.31 443.018 1233.73 443.668 1236.27 443.668C1238.87 443.668 1241.29 443.018 1243.53 441.72C1245.77 440.421 1247.57 438.531 1248.93 436.051C1250.35 433.513 1251.06 430.56 1251.06 427.195Z"></path><defs><clipPath id="nk-1532"><rect style="fill:var(--color-white)" x="380.731" y="359.846" width="119.045" height="119.045" rx="59.5225"></rect></clipPath><clipPath id="nk-1533"><rect style="fill:var(--color-white)" x="380.731" y="359.846" width="119.045" height="119.045" rx="59.5225"></rect></clipPath></defs></svg>