<svg id="nksvg" width="1490" height="838" viewBox="0 0 1490 838" fill="none" xmlns="http://www.w3.org/2000/svg">
<path d="M0 0H1490V838H0V0Z" fill="var(--color-illustrationBackground020)"></path>
<path d="M498.326 129.023C498.315 119.234 506.242 111.294 516.031 111.288L917.04 111.033C926.829 111.027 934.773 118.957 934.784 128.746C934.794 138.534 926.868 146.475 917.079 146.481L516.069 146.735C506.28 146.742 498.337 138.811 498.326 129.023Z" fill="var(--color-illustrationInterface030)"></path>
<path d="M487.167 129.03C487.154 119.241 495.079 111.301 504.868 111.296L720.062 111.181C729.85 111.176 737.796 119.107 737.809 128.895C737.821 138.684 729.896 146.623 720.107 146.629L504.913 146.744C495.125 146.749 487.179 138.818 487.167 129.03Z" fill="var(--color-illustrationHighlight010)"></path>
<path d="M716.108 170.698C693.009 170.717 674.268 152.007 674.249 128.908C674.23 105.809 692.94 87.0676 716.039 87.0484C739.138 87.0292 757.879 105.739 757.898 128.838C757.917 151.937 739.208 170.678 716.108 170.698Z" fill="var(--color-illustrationPalette060)"></path>
<path d="M430.014 126.98C430.014 119.264 431.307 113.244 433.894 108.917C436.525 104.547 441.03 102.361 447.408 102.361C453.785 102.361 458.268 104.547 460.854 108.917C463.486 113.244 464.801 119.264 464.801 126.98C464.801 134.785 463.486 140.895 460.854 145.31C458.268 149.681 453.785 151.867 447.408 151.867C441.03 151.867 436.525 149.681 433.894 145.31C431.307 140.895 430.014 134.785 430.014 126.98ZM457.309 126.98C457.309 123.368 457.063 120.313 456.573 117.815C456.127 115.317 455.19 113.288 453.763 111.727C452.336 110.122 450.217 109.319 447.408 109.319C444.598 109.319 442.479 110.122 441.052 111.727C439.625 113.288 438.666 115.317 438.176 117.815C437.73 120.313 437.507 123.368 437.507 126.98C437.507 130.726 437.73 133.871 438.176 136.413C438.622 138.955 439.558 141.007 440.985 142.568C442.457 144.129 444.598 144.909 447.408 144.909C450.217 144.909 452.336 144.129 453.763 142.568C455.235 141.007 456.194 138.955 456.64 136.413C457.086 133.871 457.309 130.726 457.309 126.98Z" fill="var(--color-illustrationHighlight010)"></path>
<path d="M956.739 110.189V103.231H970.654V152H962.96V110.189H956.739Z" fill="var(--color-illustrationHighlight010)"></path>
<path d="M981.131 126.98C981.131 119.264 982.424 113.244 985.011 108.917C987.642 104.547 992.147 102.361 998.524 102.361C1004.9 102.361 1009.38 104.547 1011.97 108.917C1014.6 113.244 1015.92 119.264 1015.92 126.98C1015.92 134.785 1014.6 140.895 1011.97 145.31C1009.38 149.681 1004.9 151.867 998.524 151.867C992.147 151.867 987.642 149.681 985.011 145.31C982.424 140.895 981.131 134.785 981.131 126.98ZM1008.43 126.98C1008.43 123.368 1008.18 120.313 1007.69 117.815C1007.24 115.317 1006.31 113.288 1004.88 111.727C1003.45 110.122 1001.33 109.319 998.524 109.319C995.715 109.319 993.596 110.122 992.169 111.727C990.742 113.288 989.783 115.317 989.292 117.815C988.846 120.313 988.623 123.368 988.623 126.98C988.623 130.726 988.846 133.871 989.292 136.413C989.738 138.955 990.675 141.007 992.102 142.568C993.574 144.129 995.715 144.909 998.524 144.909C1001.33 144.909 1003.45 144.129 1004.88 142.568C1006.35 141.007 1007.31 138.955 1007.76 136.413C1008.2 133.871 1008.43 130.726 1008.43 126.98Z" fill="var(--color-illustrationHighlight010)"></path>
<path d="M1023.99 126.98C1023.99 119.264 1025.28 113.244 1027.87 108.917C1030.5 104.547 1035 102.361 1041.38 102.361C1047.76 102.361 1052.24 104.547 1054.83 108.917C1057.46 113.244 1058.78 119.264 1058.78 126.98C1058.78 134.785 1057.46 140.895 1054.83 145.31C1052.24 149.681 1047.76 151.867 1041.38 151.867C1035 151.867 1030.5 149.681 1027.87 145.31C1025.28 140.895 1023.99 134.785 1023.99 126.98ZM1051.28 126.98C1051.28 123.368 1051.04 120.313 1050.55 117.815C1050.1 115.317 1049.16 113.288 1047.74 111.727C1046.31 110.122 1044.19 109.319 1041.38 109.319C1038.57 109.319 1036.45 110.122 1035.03 111.727C1033.6 113.288 1032.64 115.317 1032.15 117.815C1031.7 120.313 1031.48 123.368 1031.48 126.98C1031.48 130.726 1031.7 133.871 1032.15 136.413C1032.6 138.955 1033.53 141.007 1034.96 142.568C1036.43 144.129 1038.57 144.909 1041.38 144.909C1044.19 144.909 1046.31 144.129 1047.74 142.568C1049.21 141.007 1050.17 138.955 1050.61 136.413C1051.06 133.871 1051.28 130.726 1051.28 126.98Z" fill="var(--color-illustrationHighlight010)"></path>
<path d="M447.798 419.872C447.783 410.084 455.707 402.145 465.495 402.14L1045 401.879C1054.79 401.875 1062.74 409.807 1062.75 419.595C1062.77 429.384 1054.84 437.323 1045.06 437.327L465.55 437.588C455.761 437.593 447.813 429.661 447.798 419.872Z" fill="var(--color-illustrationInterface030)"></path>
<path d="M432.073 419.879C432.057 410.091 439.978 402.152 449.767 402.148L743.763 402.027C753.552 402.023 761.5 409.955 761.517 419.744C761.533 429.533 753.611 437.471 743.823 437.475L449.827 437.596C440.038 437.6 432.09 429.668 432.073 419.879Z" fill="var(--color-illustrationHighlight010)"></path>
<path d="M746.68 461.42C723.581 461.439 704.84 442.73 704.821 419.63C704.802 396.531 723.512 377.79 746.611 377.771C769.71 377.752 788.451 396.462 788.47 419.561C788.489 442.66 769.779 461.401 746.68 461.42Z" fill="var(--color-illustrationPalette060)"></path>
<path d="M430.014 318.107C430.014 310.391 431.307 304.371 433.894 300.044C436.525 295.674 441.03 293.488 447.408 293.488C453.785 293.488 458.268 295.674 460.854 300.044C463.486 304.371 464.801 310.391 464.801 318.107C464.801 325.912 463.486 332.022 460.854 336.437C458.268 340.808 453.785 342.993 447.408 342.993C441.03 342.993 436.525 340.808 433.894 336.437C431.307 332.022 430.014 325.912 430.014 318.107ZM457.309 318.107C457.309 314.495 457.063 311.439 456.573 308.942C456.127 306.444 455.19 304.415 453.763 302.854C452.336 301.249 450.217 300.446 447.408 300.446C444.598 300.446 442.479 301.249 441.052 302.854C439.625 304.415 438.666 306.444 438.176 308.942C437.73 311.439 437.507 314.495 437.507 318.107C437.507 321.853 437.73 324.998 438.176 327.54C438.622 330.082 439.558 332.134 440.985 333.695C442.457 335.256 444.598 336.036 447.408 336.036C450.217 336.036 452.336 335.256 453.763 333.695C455.235 332.134 456.194 330.082 456.64 327.54C457.086 324.998 457.309 321.853 457.309 318.107Z" fill="var(--color-illustrationHighlight010)"></path>
<path d="M956.739 301.189V294.231H970.654V343H962.96V301.189H956.739Z" fill="var(--color-illustrationHighlight010)"></path>
<path d="M981.131 317.98C981.131 310.264 982.424 304.244 985.011 299.917C987.642 295.547 992.147 293.361 998.524 293.361C1004.9 293.361 1009.38 295.547 1011.97 299.917C1014.6 304.244 1015.92 310.264 1015.92 317.98C1015.92 325.785 1014.6 331.895 1011.97 336.31C1009.38 340.681 1004.9 342.867 998.524 342.867C992.147 342.867 987.642 340.681 985.011 336.31C982.424 331.895 981.131 325.785 981.131 317.98ZM1008.43 317.98C1008.43 314.368 1008.18 311.313 1007.69 308.815C1007.24 306.317 1006.31 304.288 1004.88 302.727C1003.45 301.122 1001.33 300.319 998.524 300.319C995.715 300.319 993.596 301.122 992.169 302.727C990.742 304.288 989.783 306.317 989.292 308.815C988.846 311.313 988.623 314.368 988.623 317.98C988.623 321.726 988.846 324.871 989.292 327.413C989.738 329.955 990.675 332.007 992.102 333.568C993.574 335.129 995.715 335.909 998.524 335.909C1001.33 335.909 1003.45 335.129 1004.88 333.568C1006.35 332.007 1007.31 329.955 1007.76 327.413C1008.2 324.871 1008.43 321.726 1008.43 317.98Z" fill="var(--color-illustrationHighlight010)"></path>
<path d="M1023.99 317.98C1023.99 310.264 1025.28 304.244 1027.87 299.917C1030.5 295.547 1035 293.361 1041.38 293.361C1047.76 293.361 1052.24 295.547 1054.83 299.917C1057.46 304.244 1058.78 310.264 1058.78 317.98C1058.78 325.785 1057.46 331.895 1054.83 336.31C1052.24 340.681 1047.76 342.867 1041.38 342.867C1035 342.867 1030.5 340.681 1027.87 336.31C1025.28 331.895 1023.99 325.785 1023.99 317.98ZM1051.28 317.98C1051.28 314.368 1051.04 311.313 1050.55 308.815C1050.1 306.317 1049.16 304.288 1047.74 302.727C1046.31 301.122 1044.19 300.319 1041.38 300.319C1038.57 300.319 1036.45 301.122 1035.03 302.727C1033.6 304.288 1032.64 306.317 1032.15 308.815C1031.7 311.313 1031.48 314.368 1031.48 317.98C1031.48 321.726 1031.7 324.871 1032.15 327.413C1032.6 329.955 1033.53 332.007 1034.96 333.568C1036.43 335.129 1038.57 335.909 1041.38 335.909C1044.19 335.909 1046.31 335.129 1047.74 333.568C1049.21 332.007 1050.17 329.955 1050.61 327.413C1051.06 324.871 1051.28 321.726 1051.28 317.98Z" fill="var(--color-illustrationHighlight010)"></path>
<path d="M447.798 619.027C447.783 609.238 455.707 601.299 465.495 601.295L1045 601.034C1054.79 601.029 1062.74 608.961 1062.75 618.75C1062.77 628.538 1054.84 636.477 1045.06 636.482L465.55 636.743C455.761 636.747 447.813 628.815 447.798 619.027Z" fill="var(--color-illustrationInterface030)"></path>
<path d="M432.073 619.034C432.057 609.246 439.978 601.307 449.767 601.303L743.763 601.183C753.552 601.179 761.5 609.111 761.517 618.899C761.533 628.688 753.611 636.627 743.823 636.631L449.827 636.751C440.038 636.755 432.09 628.823 432.073 619.034Z" fill="var(--color-illustrationHighlight010)"></path>
<path d="M746.68 660.576C723.581 660.595 704.84 641.885 704.821 618.786C704.802 595.687 723.512 576.946 746.611 576.926C769.71 576.907 788.451 595.617 788.47 618.716C788.489 641.815 769.779 660.556 746.68 660.576Z" fill="var(--color-illustrationPalette060)"></path>
<path d="M430.014 706.516C430.014 698.801 431.307 692.78 433.894 688.454C436.525 684.083 441.03 681.897 447.408 681.897C453.785 681.897 458.268 684.083 460.854 688.454C463.486 692.78 464.801 698.801 464.801 706.516C464.801 714.321 463.486 720.431 460.854 724.847C458.268 729.217 453.785 731.403 447.408 731.403C441.03 731.403 436.525 729.217 433.894 724.847C431.307 720.431 430.014 714.321 430.014 706.516ZM457.309 706.516C457.309 702.904 457.063 699.849 456.573 697.351C456.127 694.854 455.19 692.824 453.763 691.263C452.336 689.658 450.217 688.855 447.408 688.855C444.598 688.855 442.479 689.658 441.052 691.263C439.625 692.824 438.666 694.854 438.176 697.351C437.73 699.849 437.507 702.904 437.507 706.516C437.507 710.263 437.73 713.407 438.176 715.949C438.622 718.491 439.558 720.543 440.985 722.104C442.457 723.665 444.598 724.445 447.408 724.445C450.217 724.445 452.336 723.665 453.763 722.104C455.235 720.543 456.194 718.491 456.64 715.949C457.086 713.407 457.309 710.263 457.309 706.516Z" fill="var(--color-illustrationHighlight010)"></path>
<path d="M956.739 689.598V682.64H970.654V731.41H962.96V689.598H956.739Z" fill="var(--color-illustrationHighlight010)"></path>
<path d="M981.131 706.389C981.131 698.674 982.424 692.653 985.011 688.327C987.642 683.956 992.147 681.771 998.524 681.771C1004.9 681.771 1009.38 683.956 1011.97 688.327C1014.6 692.653 1015.92 698.674 1015.92 706.389C1015.92 714.194 1014.6 720.304 1011.97 724.72C1009.38 729.09 1004.9 731.276 998.524 731.276C992.147 731.276 987.642 729.09 985.011 724.72C982.424 720.304 981.131 714.194 981.131 706.389ZM1008.43 706.389C1008.43 702.777 1008.18 699.722 1007.69 697.224C1007.24 694.727 1006.31 692.697 1004.88 691.136C1003.45 689.531 1001.33 688.728 998.524 688.728C995.715 688.728 993.596 689.531 992.169 691.136C990.742 692.697 989.783 694.727 989.292 697.224C988.846 699.722 988.623 702.777 988.623 706.389C988.623 710.136 988.846 713.28 989.292 715.822C989.738 718.364 990.675 720.416 992.102 721.977C993.574 723.538 995.715 724.318 998.524 724.318C1001.33 724.318 1003.45 723.538 1004.88 721.977C1006.35 720.416 1007.31 718.364 1007.76 715.822C1008.2 713.28 1008.43 710.136 1008.43 706.389Z" fill="var(--color-illustrationHighlight010)"></path>
<path d="M1023.99 706.389C1023.99 698.674 1025.28 692.653 1027.87 688.327C1030.5 683.956 1035 681.771 1041.38 681.771C1047.76 681.771 1052.24 683.956 1054.83 688.327C1057.46 692.653 1058.78 698.674 1058.78 706.389C1058.78 714.194 1057.46 720.304 1054.83 724.72C1052.24 729.09 1047.76 731.276 1041.38 731.276C1035 731.276 1030.5 729.09 1027.87 724.72C1025.28 720.304 1023.99 714.194 1023.99 706.389ZM1051.28 706.389C1051.28 702.777 1051.04 699.722 1050.55 697.224C1050.1 694.727 1049.16 692.697 1047.74 691.136C1046.31 689.531 1044.19 688.728 1041.38 688.728C1038.57 688.728 1036.45 689.531 1035.03 691.136C1033.6 692.697 1032.64 694.727 1032.15 697.224C1031.7 699.722 1031.48 702.777 1031.48 706.389C1031.48 710.136 1031.7 713.28 1032.15 715.822C1032.6 718.364 1033.53 720.416 1034.96 721.977C1036.43 723.538 1038.57 724.318 1041.38 724.318C1044.19 724.318 1046.31 723.538 1047.74 721.977C1049.21 720.416 1050.17 718.364 1050.61 715.822C1051.06 713.28 1051.28 710.136 1051.28 706.389Z" fill="var(--color-illustrationHighlight010)"></path>
</svg>
