<svg id="nksvg" width="1490" height="838" viewBox="0 0 1490 838" fill="none" xmlns="http://www.w3.org/2000/svg">
<path d="M0 0H1490V838H0V0Z" fill="var(--color-illustrationBackground020)"/>
<path d="M246.613 471.951C246.588 455.51 259.895 442.176 276.336 442.168L1249.68 441.73C1266.12 441.723 1279.47 455.045 1279.5 471.486C1279.52 487.927 1266.22 501.261 1249.77 501.269L276.428 501.707C259.987 501.714 246.638 488.392 246.613 471.951Z" fill="var(--color-illustrationInterface030)"/>
<path d="M220.2 471.963C220.172 455.522 233.478 442.188 249.919 442.181L942.151 441.897C958.592 441.891 971.943 455.213 971.971 471.654C971.998 488.096 958.693 501.429 942.252 501.436L250.02 501.72C233.578 501.727 220.228 488.404 220.2 471.963Z" fill="var(--color-illustrationHighlight010)"/>
<path d="M955.366 542.557C916.568 542.589 885.091 511.163 885.058 472.366C885.026 433.568 916.452 402.091 955.249 402.058C994.047 402.026 1025.52 433.452 1025.56 472.249C1025.59 511.047 994.163 542.524 955.366 542.557Z" fill="var(--color-illustrationPalette060)"/>
<path d="M905.563 286.19C897.772 282.294 893.877 276.152 893.877 267.762C893.877 263.717 894.888 260.009 896.911 256.638C898.933 253.267 901.967 250.607 906.012 248.66C910.057 246.637 915.001 245.626 920.844 245.626C926.612 245.626 931.519 246.637 935.564 248.66C939.684 250.607 942.755 253.267 944.778 256.638C946.8 260.009 947.812 263.717 947.812 267.762C947.812 271.957 946.725 275.665 944.553 278.886C942.456 282.032 939.647 284.467 936.126 286.19C940.396 287.763 943.767 290.347 946.239 293.943C948.711 297.463 949.947 301.621 949.947 306.415C949.947 311.284 948.711 315.592 946.239 319.337C943.767 323.082 940.321 325.966 935.901 327.989C931.481 330.012 926.462 331.023 920.844 331.023C915.226 331.023 910.207 330.012 905.787 327.989C901.443 325.966 898.034 323.082 895.562 319.337C893.09 315.592 891.854 311.284 891.854 306.415C891.854 301.546 893.09 297.351 895.562 293.83C898.034 290.31 901.368 287.763 905.563 286.19ZM935.564 269.335C935.564 265.14 934.253 261.919 931.631 259.672C929.009 257.424 925.414 256.301 920.844 256.301C916.35 256.301 912.791 257.424 910.17 259.672C907.548 261.919 906.237 265.177 906.237 269.447C906.237 273.193 907.585 276.264 910.282 278.661C913.054 280.983 916.574 282.144 920.844 282.144C925.114 282.144 928.635 280.946 931.406 278.549C934.178 276.152 935.564 273.08 935.564 269.335ZM920.844 291.808C915.9 291.808 911.855 293.044 908.709 295.516C905.638 297.913 904.102 301.396 904.102 305.966C904.102 310.235 905.6 313.719 908.597 316.416C911.593 319.037 915.675 320.348 920.844 320.348C925.938 320.348 929.946 319 932.867 316.303C935.864 313.606 937.362 310.161 937.362 305.966C937.362 301.471 935.826 297.988 932.755 295.516C929.758 293.044 925.788 291.808 920.844 291.808Z" fill="var(--color-illustrationHighlight010)"/>
<path d="M963.396 286.976C963.396 274.017 965.568 263.904 969.913 256.638C974.333 249.297 981.899 245.626 992.611 245.626C1003.32 245.626 1010.85 249.297 1015.2 256.638C1019.62 263.904 1021.83 274.017 1021.83 286.976C1021.83 300.085 1019.62 310.348 1015.2 317.764C1010.85 325.105 1003.32 328.776 992.611 328.776C981.899 328.776 974.333 325.105 969.913 317.764C965.568 310.348 963.396 300.085 963.396 286.976ZM1009.24 286.976C1009.24 280.908 1008.83 275.777 1008 271.582C1007.26 267.387 1005.68 263.979 1003.29 261.357C1000.89 258.66 997.33 257.312 992.611 257.312C987.892 257.312 984.333 258.66 981.936 261.357C979.539 263.979 977.929 267.387 977.105 271.582C976.355 275.777 975.981 280.908 975.981 286.976C975.981 293.268 976.355 298.55 977.105 302.819C977.854 307.089 979.427 310.535 981.824 313.157C984.296 315.779 987.892 317.09 992.611 317.09C997.33 317.09 1000.89 315.779 1003.29 313.157C1005.76 310.535 1007.37 307.089 1008.12 302.819C1008.87 298.55 1009.24 293.268 1009.24 286.976Z" fill="var(--color-illustrationHighlight010)"/>
</svg>
