<svg
  id="nksvg"
  style="width: 100%; height: 100%"
  width="1490"
  height="838"
  viewBox="0 0 1490 838"
  fill="none"
  xmlns="http://www.w3.org/2000/svg"
  class="css-0"
>
  <g clip-path="url(#nk-1148)">
    <path
      style="fill: var(--color-illustrationBackground010)"
      d="M0 0H1490V838H0V0Z"
    ></path>
    <path
      style="fill: var(--color-illustrationHighlight010)"
      d="M398.854 315.854H384.213L381.698 322.998H375.711L388.238 287.981H394.88L407.407 322.998H401.37L398.854 315.854ZM397.244 311.175L391.559 294.924L385.823 311.175H397.244ZM423.571 317.866L431.42 295.276H437.508L426.942 322.998H420.1L409.584 295.276H415.722L423.571 317.866ZM467.251 308.458C467.251 309.498 467.184 310.437 467.05 311.275H445.868C446.036 313.489 446.858 315.267 448.334 316.608C449.809 317.95 451.621 318.621 453.767 318.621C456.853 318.621 459.033 317.33 460.308 314.747H466.496C465.658 317.296 464.132 319.392 461.918 321.036C459.738 322.646 457.021 323.451 453.767 323.451C451.118 323.451 448.736 322.864 446.623 321.69C444.543 320.482 442.9 318.805 441.692 316.659C440.518 314.478 439.931 311.963 439.931 309.112C439.931 306.261 440.502 303.762 441.642 301.615C442.816 299.435 444.443 297.758 446.522 296.584C448.635 295.41 451.05 294.823 453.767 294.823C456.384 294.823 458.715 295.393 460.761 296.534C462.807 297.674 464.4 299.284 465.54 301.364C466.681 303.41 467.251 305.774 467.251 308.458ZM461.264 306.646C461.23 304.533 460.476 302.84 459 301.565C457.524 300.29 455.696 299.653 453.516 299.653C451.537 299.653 449.843 300.29 448.434 301.565C447.025 302.806 446.187 304.5 445.919 306.646H461.264ZM478.631 299.301C479.47 297.892 480.577 296.802 481.952 296.031C483.361 295.226 485.021 294.823 486.933 294.823V300.76H485.474C483.226 300.76 481.516 301.33 480.342 302.471C479.201 303.611 478.631 305.59 478.631 308.407V322.998H472.896V295.276H478.631V299.301ZM490.293 309.011C490.293 306.227 490.863 303.762 492.004 301.615C493.178 299.469 494.754 297.808 496.733 296.634C498.746 295.427 500.959 294.823 503.374 294.823C505.554 294.823 507.45 295.259 509.06 296.131C510.703 296.97 512.011 298.026 512.984 299.301V295.276H518.77V322.998H512.984V318.872C512.011 320.181 510.686 321.271 509.009 322.143C507.332 323.015 505.42 323.451 503.274 323.451C500.892 323.451 498.712 322.847 496.733 321.64C494.754 320.399 493.178 318.688 492.004 316.508C490.863 314.294 490.293 311.795 490.293 309.011ZM512.984 309.112C512.984 307.2 512.581 305.54 511.776 304.131C511.005 302.722 509.982 301.649 508.707 300.911C507.433 300.173 506.058 299.804 504.582 299.804C503.106 299.804 501.731 300.173 500.456 300.911C499.182 301.615 498.142 302.672 497.337 304.081C496.565 305.456 496.18 307.099 496.18 309.011C496.18 310.923 496.565 312.6 497.337 314.042C498.142 315.485 499.182 316.592 500.456 317.363C501.764 318.101 503.139 318.47 504.582 318.47C506.058 318.47 507.433 318.101 508.707 317.363C509.982 316.625 511.005 315.552 511.776 314.143C512.581 312.701 512.984 311.024 512.984 309.112ZM537.473 294.823C539.619 294.823 541.515 295.259 543.158 296.131C544.835 296.97 546.143 298.026 547.082 299.301V295.276H552.868V323.451C552.868 326 552.332 328.264 551.258 330.243C550.185 332.256 548.625 333.832 546.579 334.972C544.567 336.113 542.152 336.683 539.334 336.683C535.578 336.683 532.458 335.794 529.976 334.016C527.494 332.272 526.085 329.891 525.75 326.872H531.435C531.871 328.314 532.794 329.472 534.202 330.344C535.645 331.249 537.355 331.702 539.334 331.702C541.649 331.702 543.51 330.998 544.919 329.589C546.361 328.18 547.082 326.134 547.082 323.451V318.822C546.11 320.13 544.785 321.237 543.108 322.143C541.464 323.015 539.586 323.451 537.473 323.451C535.058 323.451 532.844 322.847 530.832 321.64C528.853 320.399 527.276 318.688 526.102 316.508C524.962 314.294 524.392 311.795 524.392 309.011C524.392 306.227 524.962 303.762 526.102 301.615C527.276 299.469 528.853 297.808 530.832 296.634C532.844 295.427 535.058 294.823 537.473 294.823ZM547.082 309.112C547.082 307.2 546.68 305.54 545.875 304.131C545.103 302.722 544.08 301.649 542.806 300.911C541.531 300.173 540.156 299.804 538.68 299.804C537.204 299.804 535.829 300.173 534.555 300.911C533.28 301.615 532.24 302.672 531.435 304.081C530.664 305.456 530.278 307.099 530.278 309.011C530.278 310.923 530.664 312.6 531.435 314.042C532.24 315.485 533.28 316.592 534.555 317.363C535.863 318.101 537.238 318.47 538.68 318.47C540.156 318.47 541.531 318.101 542.806 317.363C544.08 316.625 545.103 315.552 545.875 314.143C546.68 312.701 547.082 311.024 547.082 309.112ZM585.81 308.458C585.81 309.498 585.743 310.437 585.608 311.275H564.427C564.595 313.489 565.416 315.267 566.892 316.608C568.368 317.95 570.179 318.621 572.326 318.621C575.412 318.621 577.592 317.33 578.867 314.747H585.055C584.216 317.296 582.69 319.392 580.477 321.036C578.296 322.646 575.58 323.451 572.326 323.451C569.676 323.451 567.295 322.864 565.182 321.69C563.102 320.482 561.458 318.805 560.251 316.659C559.077 314.478 558.49 311.963 558.49 309.112C558.49 306.261 559.06 303.762 560.201 301.615C561.375 299.435 563.001 297.758 565.081 296.584C567.194 295.41 569.609 294.823 572.326 294.823C574.942 294.823 577.273 295.393 579.319 296.534C581.365 297.674 582.959 299.284 584.099 301.364C585.24 303.41 585.81 305.774 585.81 308.458ZM579.823 306.646C579.789 304.533 579.034 302.84 577.558 301.565C576.083 300.29 574.255 299.653 572.074 299.653C570.095 299.653 568.402 300.29 566.993 301.565C565.584 302.806 564.746 304.5 564.477 306.646H579.823ZM614.586 323.451C612.406 323.451 610.444 323.065 608.7 322.294C606.989 321.489 605.63 320.415 604.624 319.074C603.618 317.698 603.081 316.172 603.014 314.495H608.951C609.052 315.669 609.605 316.659 610.611 317.464C611.651 318.235 612.943 318.621 614.485 318.621C616.095 318.621 617.337 318.319 618.209 317.715C619.114 317.078 619.567 316.273 619.567 315.3C619.567 314.26 619.064 313.489 618.058 312.986C617.085 312.483 615.525 311.929 613.379 311.326C611.299 310.755 609.605 310.202 608.297 309.665C606.989 309.129 605.849 308.307 604.876 307.2C603.937 306.093 603.467 304.634 603.467 302.823C603.467 301.347 603.903 300.005 604.775 298.798C605.647 297.557 606.888 296.584 608.498 295.88C610.142 295.175 612.02 294.823 614.133 294.823C617.286 294.823 619.819 295.628 621.73 297.238C623.676 298.815 624.716 300.978 624.85 303.728H619.114C619.014 302.487 618.51 301.498 617.605 300.76C616.699 300.022 615.475 299.653 613.932 299.653C612.423 299.653 611.265 299.938 610.46 300.508C609.655 301.079 609.253 301.833 609.253 302.772C609.253 303.51 609.521 304.131 610.058 304.634C610.595 305.137 611.249 305.54 612.02 305.841C612.792 306.11 613.932 306.462 615.441 306.898C617.454 307.435 619.097 307.988 620.372 308.558C621.68 309.095 622.804 309.9 623.743 310.973C624.682 312.047 625.169 313.472 625.202 315.25C625.202 316.826 624.766 318.235 623.894 319.476C623.022 320.717 621.781 321.69 620.171 322.394C618.594 323.099 616.733 323.451 614.586 323.451ZM637.135 299.351C638.108 298.077 639.433 297.003 641.11 296.131C642.787 295.259 644.682 294.823 646.795 294.823C649.21 294.823 651.407 295.427 653.386 296.634C655.399 297.808 656.975 299.469 658.115 301.615C659.256 303.762 659.826 306.227 659.826 309.011C659.826 311.795 659.256 314.294 658.115 316.508C656.975 318.688 655.399 320.399 653.386 321.64C651.407 322.847 649.21 323.451 646.795 323.451C644.682 323.451 642.804 323.032 641.16 322.193C639.517 321.321 638.175 320.248 637.135 318.973V336.18H631.4V295.276H637.135V299.351ZM653.99 309.011C653.99 307.099 653.587 305.456 652.782 304.081C652.011 302.672 650.971 301.615 649.663 300.911C648.388 300.173 647.013 299.804 645.537 299.804C644.095 299.804 642.72 300.173 641.412 300.911C640.137 301.649 639.097 302.722 638.292 304.131C637.521 305.54 637.135 307.2 637.135 309.112C637.135 311.024 637.521 312.701 638.292 314.143C639.097 315.552 640.137 316.625 641.412 317.363C642.72 318.101 644.095 318.47 645.537 318.47C647.013 318.47 648.388 318.101 649.663 317.363C650.971 316.592 652.011 315.485 652.782 314.042C653.587 312.6 653.99 310.923 653.99 309.011ZM690.906 308.458C690.906 309.498 690.839 310.437 690.705 311.275H669.523C669.691 313.489 670.512 315.267 671.988 316.608C673.464 317.95 675.275 318.621 677.422 318.621C680.508 318.621 682.688 317.33 683.963 314.747H690.151C689.313 317.296 687.786 319.392 685.573 321.036C683.392 322.646 680.676 323.451 677.422 323.451C674.772 323.451 672.391 322.864 670.278 321.69C668.198 320.482 666.555 318.805 665.347 316.659C664.173 314.478 663.586 311.963 663.586 309.112C663.586 306.261 664.156 303.762 665.297 301.615C666.471 299.435 668.097 297.758 670.177 296.584C672.29 295.41 674.705 294.823 677.422 294.823C680.038 294.823 682.369 295.393 684.416 296.534C686.462 297.674 688.055 299.284 689.195 301.364C690.336 303.41 690.906 305.774 690.906 308.458ZM684.919 306.646C684.885 304.533 684.13 302.84 682.655 301.565C681.179 300.29 679.351 299.653 677.171 299.653C675.192 299.653 673.498 300.29 672.089 301.565C670.68 302.806 669.842 304.5 669.573 306.646H684.919ZM721.958 308.458C721.958 309.498 721.891 310.437 721.757 311.275H700.575C700.743 313.489 701.565 315.267 703.041 316.608C704.516 317.95 706.328 318.621 708.474 318.621C711.56 318.621 713.74 317.33 715.015 314.747H721.203C720.365 317.296 718.839 319.392 716.625 321.036C714.445 322.646 711.728 323.451 708.474 323.451C705.825 323.451 703.443 322.864 701.33 321.69C699.25 320.482 697.607 318.805 696.399 316.659C695.225 314.478 694.638 311.963 694.638 309.112C694.638 306.261 695.209 303.762 696.349 301.615C697.523 299.435 699.15 297.758 701.229 296.584C703.342 295.41 705.757 294.823 708.474 294.823C711.091 294.823 713.422 295.393 715.468 296.534C717.514 297.674 719.107 299.284 720.247 301.364C721.388 303.41 721.958 305.774 721.958 308.458ZM715.971 306.646C715.937 304.533 715.183 302.84 713.707 301.565C712.231 300.29 710.403 299.653 708.223 299.653C706.244 299.653 704.55 300.29 703.141 301.565C701.732 302.806 700.894 304.5 700.626 306.646H715.971ZM725.691 309.011C725.691 306.227 726.261 303.762 727.401 301.615C728.575 299.469 730.152 297.808 732.131 296.634C734.143 295.427 736.374 294.823 738.822 294.823C740.633 294.823 742.411 295.226 744.155 296.031C745.933 296.802 747.342 297.842 748.382 299.15V285.767H754.168V322.998H748.382V318.822C747.442 320.164 746.134 321.271 744.457 322.143C742.814 323.015 740.919 323.451 738.772 323.451C736.357 323.451 734.143 322.847 732.131 321.64C730.152 320.399 728.575 318.688 727.401 316.508C726.261 314.294 725.691 311.795 725.691 309.011ZM748.382 309.112C748.382 307.2 747.979 305.54 747.174 304.131C746.403 302.722 745.38 301.649 744.105 300.911C742.83 300.173 741.455 299.804 739.979 299.804C738.504 299.804 737.128 300.173 735.854 300.911C734.579 301.615 733.539 302.672 732.734 304.081C731.963 305.456 731.577 307.099 731.577 309.011C731.577 310.923 731.963 312.6 732.734 314.042C733.539 315.485 734.579 316.592 735.854 317.363C737.162 318.101 738.537 318.47 739.979 318.47C741.455 318.47 742.83 318.101 744.105 317.363C745.38 316.625 746.403 315.552 747.174 314.143C747.979 312.701 748.382 311.024 748.382 309.112Z"
    ></path>
    <rect
      style="fill: var(--color-interfaceBackground)"
      x="376.507"
      y="369.569"
      width="744.987"
      height="177.493"
      rx="21.5575"
    ></rect>
    <path
      style="fill: var(--color-illustrationBorder020)"
      d="M426.39 475.745V435.495H451.288V439.463H431.22V453.493H449.563V457.403H431.22V471.778H451.288V475.745H426.39ZM458.559 475.745V447.225H462.929L463.217 452.343C464.137 450.541 465.459 449.123 467.184 448.088C468.909 447.053 470.864 446.535 473.049 446.535C476.422 446.535 479.106 447.57 481.099 449.64C483.131 451.672 484.147 454.815 484.147 459.07V475.745H479.317V459.588C479.317 453.646 476.863 450.675 471.957 450.675C469.503 450.675 467.452 451.576 465.804 453.378C464.194 455.141 463.389 457.671 463.389 460.968V475.745H458.559ZM502.734 475.745C500.128 475.745 498.077 475.113 496.582 473.848C495.087 472.583 494.339 470.302 494.339 467.005V451.308H489.394V447.225H494.339L494.972 440.383H499.169V447.225H507.564V451.308H499.169V467.005C499.169 468.807 499.533 470.033 500.262 470.685C500.99 471.298 502.274 471.605 504.114 471.605H507.104V475.745H502.734ZM525.737 476.435C523.015 476.435 520.6 475.822 518.492 474.595C516.384 473.33 514.716 471.586 513.49 469.363C512.301 467.139 511.707 464.513 511.707 461.485C511.707 458.495 512.301 455.888 513.49 453.665C514.678 451.403 516.326 449.659 518.435 448.433C520.581 447.168 523.054 446.535 525.852 446.535C528.612 446.535 530.989 447.168 532.982 448.433C535.014 449.659 536.566 451.288 537.64 453.32C538.713 455.352 539.25 457.537 539.25 459.875C539.25 460.297 539.23 460.718 539.192 461.14C539.192 461.562 539.192 462.041 539.192 462.578H516.48C516.595 464.763 517.093 466.583 517.975 468.04C518.895 469.458 520.025 470.532 521.367 471.26C522.747 471.988 524.204 472.353 525.737 472.353C527.73 472.353 529.398 471.893 530.74 470.973C532.081 470.053 533.059 468.807 533.672 467.235H538.445C537.678 469.88 536.202 472.084 534.017 473.848C531.87 475.573 529.11 476.435 525.737 476.435ZM525.737 450.618C523.437 450.618 521.386 451.327 519.585 452.745C517.821 454.125 516.805 456.157 516.537 458.84H534.477C534.362 456.272 533.48 454.259 531.832 452.803C530.184 451.346 528.152 450.618 525.737 450.618ZM545.651 475.745V447.225H550.021L550.424 452.688C551.305 450.809 552.647 449.314 554.449 448.203C556.25 447.091 558.474 446.535 561.119 446.535V451.595H559.796C558.11 451.595 556.557 451.902 555.139 452.515C553.72 453.09 552.59 454.087 551.746 455.505C550.903 456.923 550.481 458.878 550.481 461.37V475.745H545.651ZM589.98 475.745L579.17 447.225H584.23L592.797 471.088L601.422 447.225H606.367L595.557 475.745H589.98ZM619.77 476.435C617.394 476.435 615.419 476.033 613.848 475.228C612.276 474.423 611.107 473.349 610.34 472.008C609.574 470.666 609.19 469.209 609.19 467.638C609.19 464.724 610.302 462.482 612.525 460.91C614.749 459.338 617.777 458.553 621.61 458.553H629.315V458.208C629.315 455.716 628.664 453.838 627.36 452.573C626.057 451.269 624.313 450.618 622.128 450.618C620.249 450.618 618.62 451.097 617.24 452.055C615.899 452.975 615.055 454.336 614.71 456.138H609.765C609.957 454.068 610.647 452.323 611.835 450.905C613.062 449.487 614.576 448.413 616.378 447.685C618.179 446.918 620.096 446.535 622.128 446.535C626.114 446.535 629.104 447.608 631.098 449.755C633.129 451.863 634.145 454.681 634.145 458.208V475.745H629.833L629.545 470.628C628.74 472.238 627.552 473.618 625.98 474.768C624.447 475.879 622.377 476.435 619.77 476.435ZM620.518 472.353C622.358 472.353 623.929 471.873 625.233 470.915C626.574 469.957 627.59 468.711 628.28 467.178C628.97 465.644 629.315 464.034 629.315 462.348V462.29H622.013C619.176 462.29 617.164 462.788 615.975 463.785C614.825 464.743 614.25 465.951 614.25 467.408C614.25 468.903 614.787 470.11 615.86 471.03C616.972 471.912 618.524 472.353 620.518 472.353ZM641.391 475.745V434.345H646.221V475.745H641.391ZM664.545 476.435C661.172 476.435 658.488 475.419 656.495 473.388C654.502 471.318 653.505 468.155 653.505 463.9V447.225H658.335V463.383C658.335 469.324 660.769 472.295 665.638 472.295C668.129 472.295 670.18 471.413 671.79 469.65C673.438 467.848 674.263 465.299 674.263 462.003V447.225H679.093V475.745H674.723L674.378 470.628C673.496 472.429 672.173 473.848 670.41 474.883C668.685 475.918 666.73 476.435 664.545 476.435ZM699.865 476.435C697.144 476.435 694.729 475.822 692.62 474.595C690.512 473.33 688.845 471.586 687.618 469.363C686.43 467.139 685.835 464.513 685.835 461.485C685.835 458.495 686.43 455.888 687.618 453.665C688.806 451.403 690.455 449.659 692.563 448.433C694.71 447.168 697.182 446.535 699.98 446.535C702.74 446.535 705.117 447.168 707.11 448.433C709.142 449.659 710.695 451.288 711.768 453.32C712.841 455.352 713.378 457.537 713.378 459.875C713.378 460.297 713.359 460.718 713.32 461.14C713.32 461.562 713.32 462.041 713.32 462.578H690.608C690.723 464.763 691.221 466.583 692.103 468.04C693.023 469.458 694.154 470.532 695.495 471.26C696.875 471.988 698.332 472.353 699.865 472.353C701.859 472.353 703.526 471.893 704.868 470.973C706.21 470.053 707.187 468.807 707.8 467.235H712.573C711.806 469.88 710.33 472.084 708.145 473.848C705.999 475.573 703.239 476.435 699.865 476.435ZM699.865 450.618C697.565 450.618 695.515 451.327 693.713 452.745C691.95 454.125 690.934 456.157 690.665 458.84H708.605C708.49 456.272 707.609 454.259 705.96 452.803C704.312 451.346 702.28 450.618 699.865 450.618ZM737.93 440.9C736.971 440.9 736.166 440.593 735.515 439.98C734.901 439.328 734.595 438.523 734.595 437.565C734.595 436.645 734.901 435.878 735.515 435.265C736.166 434.652 736.971 434.345 737.93 434.345C738.85 434.345 739.635 434.652 740.287 435.265C740.939 435.878 741.265 436.645 741.265 437.565C741.265 438.523 740.939 439.328 740.287 439.98C739.635 440.593 738.85 440.9 737.93 440.9ZM735.515 475.745V447.225H740.345V475.745H735.515ZM748.754 475.745V447.225H753.124L753.412 452.343C754.332 450.541 755.654 449.123 757.379 448.088C759.104 447.053 761.059 446.535 763.244 446.535C766.618 446.535 769.301 447.57 771.294 449.64C773.326 451.672 774.342 454.815 774.342 459.07V475.745H769.512V459.588C769.512 453.646 767.059 450.675 762.152 450.675C759.699 450.675 757.648 451.576 755.999 453.378C754.389 455.141 753.584 457.671 753.584 460.968V475.745H748.754ZM796.877 475.745V447.225H801.247L801.592 451.365C802.512 449.832 803.739 448.643 805.272 447.8C806.805 446.957 808.53 446.535 810.447 446.535C812.709 446.535 814.644 446.995 816.254 447.915C817.903 448.835 819.168 450.234 820.049 452.113C821.046 450.388 822.407 449.027 824.132 448.03C825.895 447.033 827.793 446.535 829.824 446.535C833.236 446.535 835.958 447.57 837.989 449.64C840.021 451.672 841.037 454.815 841.037 459.07V475.745H836.264V459.588C836.264 456.636 835.67 454.413 834.482 452.918C833.294 451.423 831.588 450.675 829.364 450.675C827.064 450.675 825.148 451.576 823.614 453.378C822.119 455.141 821.372 457.671 821.372 460.968V475.745H816.542V459.588C816.542 456.636 815.948 454.413 814.759 452.918C813.571 451.423 811.865 450.675 809.642 450.675C807.38 450.675 805.483 451.576 803.949 453.378C802.454 455.141 801.707 457.671 801.707 460.968V475.745H796.877ZM848.312 488.395V447.225H852.682L853.142 451.94C854.062 450.56 855.366 449.314 857.052 448.203C858.777 447.091 860.962 446.535 863.607 446.535C866.444 446.535 868.917 447.187 871.025 448.49C873.133 449.793 874.762 451.576 875.912 453.838C877.101 456.099 877.695 458.668 877.695 461.543C877.695 464.418 877.101 466.986 875.912 469.248C874.762 471.471 873.114 473.234 870.967 474.538C868.859 475.803 866.387 476.435 863.55 476.435C861.212 476.435 859.122 475.956 857.282 474.998C855.481 474.039 854.101 472.698 853.142 470.973V488.395H848.312ZM863.032 472.238C864.949 472.238 866.636 471.797 868.092 470.915C869.549 469.995 870.699 468.73 871.542 467.12C872.386 465.51 872.807 463.632 872.807 461.485C872.807 459.338 872.386 457.46 871.542 455.85C870.699 454.24 869.549 452.994 868.092 452.113C866.636 451.193 864.949 450.733 863.032 450.733C861.116 450.733 859.429 451.193 857.972 452.113C856.516 452.994 855.366 454.24 854.522 455.85C853.679 457.46 853.257 459.338 853.257 461.485C853.257 463.632 853.679 465.51 854.522 467.12C855.366 468.73 856.516 469.995 857.972 470.915C859.429 471.797 861.116 472.238 863.032 472.238ZM884.418 475.745V434.345H889.248V452.113C890.207 450.349 891.568 448.988 893.331 448.03C895.094 447.033 897.011 446.535 899.081 446.535C902.378 446.535 905.023 447.57 907.016 449.64C909.009 451.672 910.006 454.815 910.006 459.07V475.745H905.233V459.588C905.233 453.646 902.838 450.675 898.046 450.675C895.554 450.675 893.465 451.576 891.778 453.378C890.092 455.141 889.248 457.671 889.248 460.968V475.745H884.418Z"
    ></path>
    <rect
      x="376.507"
      y="369.569"
      width="744.987"
      height="177.493"
      rx="21.5575"
      stroke="#BBC3C9"
      stroke-width="5.01337"
    ></rect>
  </g>
  <defs>
    <clipPath id="nk-1148">
      <rect style="fill: var(--color-white)" width="1490" height="838"></rect>
    </clipPath>
  </defs>
</svg>
