<svg id="components-text-field-usage-do4" style="width: 100%; height: 100%" width="1490" height="838" viewBox="0 0 1490 838" fill="none" xmlns="http://www.w3.org/2000/svg" class="css-0"><g clip-path="url(#nk-1610)"><path style="fill:var(--color-illustrationBackground010)" d="M0 0H1490V838H0V0Z"></path><path style="fill:var(--color-illustrationHighlight010)" d="M383.509 282.369H395.333V286.998H377.773V252.031H383.509V282.369ZM398.217 273.011C398.217 270.227 398.787 267.762 399.928 265.615C401.102 263.469 402.678 261.808 404.657 260.634C406.67 259.427 408.883 258.823 411.298 258.823C413.479 258.823 415.374 259.259 416.984 260.131C418.627 260.97 419.935 262.026 420.908 263.301V259.276H426.694V286.998H420.908V282.872C419.935 284.181 418.611 285.271 416.933 286.143C415.256 287.015 413.345 287.451 411.198 287.451C408.816 287.451 406.636 286.847 404.657 285.64C402.678 284.399 401.102 282.688 399.928 280.508C398.787 278.294 398.217 275.795 398.217 273.011ZM420.908 273.112C420.908 271.2 420.506 269.54 419.701 268.131C418.929 266.722 417.906 265.649 416.632 264.911C415.357 264.173 413.982 263.804 412.506 263.804C411.03 263.804 409.655 264.173 408.38 264.911C407.106 265.615 406.066 266.672 405.261 268.081C404.49 269.456 404.104 271.099 404.104 273.011C404.104 274.923 404.49 276.6 405.261 278.042C406.066 279.485 407.106 280.592 408.38 281.363C409.688 282.101 411.064 282.47 412.506 282.47C413.982 282.47 415.357 282.101 416.632 281.363C417.906 280.625 418.929 279.552 419.701 278.143C420.506 276.701 420.908 275.024 420.908 273.112ZM439.963 263.401C440.936 262.06 442.261 260.97 443.938 260.131C445.649 259.259 447.544 258.823 449.623 258.823C452.072 258.823 454.286 259.41 456.264 260.584C458.243 261.758 459.803 263.435 460.944 265.615C462.084 267.762 462.654 270.227 462.654 273.011C462.654 275.795 462.084 278.294 460.944 280.508C459.803 282.688 458.227 284.399 456.214 285.64C454.235 286.847 452.038 287.451 449.623 287.451C447.477 287.451 445.565 287.032 443.888 286.193C442.244 285.355 440.936 284.281 439.963 282.973V286.998H434.228V249.767H439.963V263.401ZM456.818 273.011C456.818 271.099 456.415 269.456 455.61 268.081C454.839 266.672 453.799 265.615 452.491 264.911C451.216 264.173 449.841 263.804 448.365 263.804C446.923 263.804 445.548 264.173 444.24 264.911C442.965 265.649 441.925 266.722 441.12 268.131C440.349 269.54 439.963 271.2 439.963 273.112C439.963 275.024 440.349 276.701 441.12 278.143C441.925 279.552 442.965 280.625 444.24 281.363C445.548 282.101 446.923 282.47 448.365 282.47C449.841 282.47 451.216 282.101 452.491 281.363C453.799 280.592 454.839 279.485 455.61 278.042C456.415 276.6 456.818 274.923 456.818 273.011ZM493.734 272.458C493.734 273.498 493.667 274.437 493.533 275.275H472.351C472.519 277.489 473.341 279.267 474.816 280.608C476.292 281.95 478.104 282.621 480.25 282.621C483.336 282.621 485.516 281.33 486.791 278.747H492.979C492.141 281.296 490.615 283.392 488.401 285.036C486.221 286.646 483.504 287.451 480.25 287.451C477.6 287.451 475.219 286.864 473.106 285.69C471.026 284.482 469.383 282.805 468.175 280.659C467.001 278.478 466.414 275.963 466.414 273.112C466.414 270.261 466.984 267.762 468.125 265.615C469.299 263.435 470.926 261.758 473.005 260.584C475.118 259.41 477.533 258.823 480.25 258.823C482.866 258.823 485.198 259.393 487.244 260.534C489.29 261.674 490.883 263.284 492.023 265.364C493.164 267.41 493.734 269.774 493.734 272.458ZM487.747 270.646C487.713 268.533 486.959 266.84 485.483 265.565C484.007 264.29 482.179 263.653 479.999 263.653C478.02 263.653 476.326 264.29 474.917 265.565C473.508 266.806 472.67 268.5 472.401 270.646H487.747ZM505.114 249.767V286.998H499.378V249.767H505.114Z"></path><rect style="fill:var(--color-interfaceBackground)" x="377.5" y="334.562" width="743" height="175.25" rx="20.5"></rect><mask id="nk-1609" mask-type="alpha" maskUnits="userSpaceOnUse" x="989" y="379" width="87" height="87"><path d="M1032.88 386.25C1013.04 386.25 996.938 402.35 996.938 422.188C996.938 442.025 1013.04 458.125 1032.88 458.125C1052.71 458.125 1068.81 442.025 1068.81 422.188C1068.81 402.35 1052.71 386.25 1032.88 386.25ZM1036.47 440.156H1029.28V432.969H1036.47V440.156ZM1036.47 425.781H1029.28V404.219H1036.47V425.781Z" fill="#0A0A0A"></path></mask><g mask="url(#nk-1609)"><rect style="fill:var(--color-inkNegative)" x="989.75" y="379.062" width="86.25" height="86.25"></rect></g><rect x="377.5" y="334.562" width="743" height="175.25" rx="20.5" stroke="#D20600" stroke-width="7"></rect><path style="fill:var(--color-inkNegative)" d="M377.108 577.844V548.444H395.294V551.342H380.636V561.59H394.034V564.446H380.636V574.946H395.294V577.844H377.108ZM400.605 577.844V557.012H403.797L404.091 561.002C404.735 559.63 405.715 558.538 407.031 557.726C408.347 556.914 409.971 556.508 411.903 556.508V560.204H410.937C409.705 560.204 408.571 560.428 407.535 560.876C406.499 561.296 405.673 562.024 405.057 563.06C404.441 564.096 404.133 565.524 404.133 567.344V577.844H400.605ZM415.863 577.844V557.012H419.055L419.349 561.002C419.993 559.63 420.973 558.538 422.289 557.726C423.605 556.914 425.229 556.508 427.161 556.508V560.204H426.195C424.963 560.204 423.829 560.428 422.793 560.876C421.757 561.296 420.931 562.024 420.315 563.06C419.699 564.096 419.391 565.524 419.391 567.344V577.844H415.863ZM439.833 578.348C437.873 578.348 436.109 577.9 434.541 577.004C432.973 576.108 431.727 574.848 430.803 573.224C429.907 571.572 429.459 569.64 429.459 567.428C429.459 565.216 429.921 563.298 430.845 561.674C431.769 560.022 433.015 558.748 434.583 557.852C436.179 556.956 437.957 556.508 439.917 556.508C441.877 556.508 443.641 556.956 445.209 557.852C446.777 558.748 448.009 560.022 448.905 561.674C449.829 563.298 450.291 565.216 450.291 567.428C450.291 569.64 449.829 571.572 448.905 573.224C447.981 574.848 446.721 576.108 445.125 577.004C443.557 577.9 441.793 578.348 439.833 578.348ZM439.833 575.324C441.037 575.324 442.157 575.03 443.193 574.442C444.229 573.854 445.069 572.972 445.713 571.796C446.357 570.62 446.679 569.164 446.679 567.428C446.679 565.692 446.357 564.236 445.713 563.06C445.097 561.884 444.271 561.002 443.235 560.414C442.199 559.826 441.093 559.532 439.917 559.532C438.713 559.532 437.593 559.826 436.557 560.414C435.521 561.002 434.681 561.884 434.037 563.06C433.393 564.236 433.071 565.692 433.071 567.428C433.071 569.164 433.393 570.62 434.037 571.796C434.681 572.972 435.507 573.854 436.515 574.442C437.551 575.03 438.657 575.324 439.833 575.324ZM455.197 577.844V557.012H458.389L458.683 561.002C459.327 559.63 460.307 558.538 461.623 557.726C462.939 556.914 464.563 556.508 466.495 556.508V560.204H465.529C464.297 560.204 463.163 560.428 462.127 560.876C461.091 561.296 460.265 562.024 459.649 563.06C459.033 564.096 458.725 565.524 458.725 567.344V577.844H455.197ZM481.57 577.844V557.012H484.762L485.014 560.036C485.686 558.916 486.582 558.048 487.702 557.432C488.822 556.816 490.082 556.508 491.482 556.508C493.134 556.508 494.548 556.844 495.724 557.516C496.928 558.188 497.852 559.21 498.496 560.582C499.224 559.322 500.218 558.328 501.478 557.6C502.766 556.872 504.152 556.508 505.636 556.508C508.128 556.508 510.116 557.264 511.6 558.776C513.084 560.26 513.826 562.556 513.826 565.664V577.844H510.34V566.042C510.34 563.886 509.906 562.262 509.038 561.17C508.17 560.078 506.924 559.532 505.3 559.532C503.62 559.532 502.22 560.19 501.1 561.506C500.008 562.794 499.462 564.642 499.462 567.05V577.844H495.934V566.042C495.934 563.886 495.5 562.262 494.632 561.17C493.764 560.078 492.518 559.532 490.894 559.532C489.242 559.532 487.856 560.19 486.736 561.506C485.644 562.794 485.098 564.642 485.098 567.05V577.844H481.57ZM528.506 578.348C526.518 578.348 524.754 577.9 523.214 577.004C521.674 576.08 520.456 574.806 519.56 573.182C518.692 571.558 518.258 569.64 518.258 567.428C518.258 565.244 518.692 563.34 519.56 561.716C520.428 560.064 521.632 558.79 523.172 557.894C524.74 556.97 526.546 556.508 528.59 556.508C530.606 556.508 532.342 556.97 533.798 557.894C535.282 558.79 536.416 559.98 537.2 561.464C537.984 562.948 538.376 564.544 538.376 566.252C538.376 566.56 538.362 566.868 538.334 567.176C538.334 567.484 538.334 567.834 538.334 568.226H521.744C521.828 569.822 522.192 571.152 522.836 572.216C523.508 573.252 524.334 574.036 525.314 574.568C526.322 575.1 527.386 575.366 528.506 575.366C529.962 575.366 531.18 575.03 532.16 574.358C533.14 573.686 533.854 572.776 534.302 571.628H537.788C537.228 573.56 536.15 575.17 534.554 576.458C532.986 577.718 530.97 578.348 528.506 578.348ZM528.506 559.49C526.826 559.49 525.328 560.008 524.012 561.044C522.724 562.052 521.982 563.536 521.786 565.496H534.89C534.806 563.62 534.162 562.15 532.958 561.086C531.754 560.022 530.27 559.49 528.506 559.49ZM551.032 578.348C548.54 578.348 546.468 577.718 544.816 576.458C543.164 575.198 542.198 573.49 541.918 571.334H545.53C545.754 572.426 546.328 573.378 547.252 574.19C548.204 574.974 549.478 575.366 551.074 575.366C552.558 575.366 553.65 575.058 554.35 574.442C555.05 573.798 555.4 573.042 555.4 572.174C555.4 570.914 554.938 570.074 554.014 569.654C553.118 569.234 551.844 568.856 550.192 568.52C549.072 568.296 547.952 567.974 546.832 567.554C545.712 567.134 544.774 566.546 544.018 565.79C543.262 565.006 542.884 563.984 542.884 562.724C542.884 560.904 543.556 559.42 544.9 558.272C546.272 557.096 548.12 556.508 550.444 556.508C552.656 556.508 554.462 557.068 555.862 558.188C557.29 559.28 558.116 560.848 558.34 562.892H554.854C554.714 561.828 554.252 561.002 553.468 560.414C552.712 559.798 551.69 559.49 550.402 559.49C549.142 559.49 548.162 559.756 547.462 560.288C546.79 560.82 546.454 561.52 546.454 562.388C546.454 563.228 546.888 563.886 547.756 564.362C548.652 564.838 549.856 565.244 551.368 565.58C552.656 565.86 553.874 566.21 555.022 566.63C556.198 567.022 557.15 567.624 557.878 568.436C558.634 569.22 559.012 570.368 559.012 571.88C559.04 573.756 558.326 575.31 556.87 576.542C555.442 577.746 553.496 578.348 551.032 578.348ZM572.032 578.348C569.54 578.348 567.468 577.718 565.816 576.458C564.164 575.198 563.198 573.49 562.918 571.334H566.53C566.754 572.426 567.328 573.378 568.252 574.19C569.204 574.974 570.478 575.366 572.074 575.366C573.558 575.366 574.65 575.058 575.35 574.442C576.05 573.798 576.4 573.042 576.4 572.174C576.4 570.914 575.938 570.074 575.014 569.654C574.118 569.234 572.844 568.856 571.192 568.52C570.072 568.296 568.952 567.974 567.832 567.554C566.712 567.134 565.774 566.546 565.018 565.79C564.262 565.006 563.884 563.984 563.884 562.724C563.884 560.904 564.556 559.42 565.9 558.272C567.272 557.096 569.12 556.508 571.444 556.508C573.656 556.508 575.462 557.068 576.862 558.188C578.29 559.28 579.116 560.848 579.34 562.892H575.854C575.714 561.828 575.252 561.002 574.468 560.414C573.712 559.798 572.69 559.49 571.402 559.49C570.142 559.49 569.162 559.756 568.462 560.288C567.79 560.82 567.454 561.52 567.454 562.388C567.454 563.228 567.888 563.886 568.756 564.362C569.652 564.838 570.856 565.244 572.368 565.58C573.656 565.86 574.874 566.21 576.022 566.63C577.198 567.022 578.15 567.624 578.878 568.436C579.634 569.22 580.012 570.368 580.012 571.88C580.04 573.756 579.326 575.31 577.87 576.542C576.442 577.746 574.496 578.348 572.032 578.348ZM591.982 578.348C590.246 578.348 588.804 578.054 587.656 577.466C586.508 576.878 585.654 576.094 585.094 575.114C584.534 574.134 584.254 573.07 584.254 571.922C584.254 569.794 585.066 568.156 586.69 567.008C588.314 565.86 590.526 565.286 593.326 565.286H598.954V565.034C598.954 563.214 598.478 561.842 597.526 560.918C596.574 559.966 595.3 559.49 593.704 559.49C592.332 559.49 591.142 559.84 590.134 560.54C589.154 561.212 588.538 562.206 588.286 563.522H584.674C584.814 562.01 585.318 560.736 586.186 559.7C587.082 558.664 588.188 557.88 589.504 557.348C590.82 556.788 592.22 556.508 593.704 556.508C596.616 556.508 598.8 557.292 600.256 558.86C601.74 560.4 602.482 562.458 602.482 565.034V577.844H599.332L599.122 574.106C598.534 575.282 597.666 576.29 596.518 577.13C595.398 577.942 593.886 578.348 591.982 578.348ZM592.528 575.366C593.872 575.366 595.02 575.016 595.972 574.316C596.952 573.616 597.694 572.706 598.198 571.586C598.702 570.466 598.954 569.29 598.954 568.058V568.016H593.62C591.548 568.016 590.078 568.38 589.21 569.108C588.37 569.808 587.95 570.69 587.95 571.754C587.95 572.846 588.342 573.728 589.126 574.4C589.938 575.044 591.072 575.366 592.528 575.366ZM616.007 571.292C614.831 571.292 613.753 571.138 612.773 570.83L610.673 572.804C610.981 573.028 611.359 573.224 611.807 573.392C612.283 573.532 612.955 573.672 613.823 573.812C614.691 573.924 615.909 574.05 617.477 574.19C620.277 574.386 622.279 575.03 623.483 576.122C624.687 577.214 625.289 578.642 625.289 580.406C625.289 581.61 624.953 582.758 624.281 583.85C623.637 584.942 622.629 585.838 621.257 586.538C619.913 587.238 618.177 587.588 616.049 587.588C614.173 587.588 612.507 587.336 611.051 586.832C609.595 586.356 608.461 585.614 607.649 584.606C606.837 583.626 606.431 582.38 606.431 580.868C606.431 580.084 606.641 579.23 607.061 578.306C607.481 577.41 608.265 576.556 609.413 575.744C608.797 575.492 608.265 575.226 607.817 574.946C607.397 574.638 607.005 574.302 606.641 573.938V572.972L610.211 569.444C608.559 568.044 607.733 566.196 607.733 563.9C607.733 562.528 608.055 561.282 608.699 560.162C609.343 559.042 610.281 558.16 611.513 557.516C612.745 556.844 614.243 556.508 616.007 556.508C617.211 556.508 618.303 556.676 619.283 557.012H626.969V559.658L623.063 559.826C623.875 561.002 624.281 562.36 624.281 563.9C624.281 565.272 623.945 566.518 623.273 567.638C622.629 568.758 621.691 569.654 620.459 570.326C619.255 570.97 617.771 571.292 616.007 571.292ZM616.007 568.394C617.491 568.394 618.667 568.016 619.535 567.26C620.431 566.476 620.879 565.356 620.879 563.9C620.879 562.472 620.431 561.38 619.535 560.624C618.667 559.84 617.491 559.448 616.007 559.448C614.495 559.448 613.291 559.84 612.395 560.624C611.527 561.38 611.093 562.472 611.093 563.9C611.093 565.356 611.527 566.476 612.395 567.26C613.291 568.016 614.495 568.394 616.007 568.394ZM609.875 580.532C609.875 581.932 610.463 582.968 611.639 583.64C612.815 584.34 614.285 584.69 616.049 584.69C617.785 584.69 619.171 584.312 620.207 583.556C621.271 582.8 621.803 581.792 621.803 580.532C621.803 579.636 621.439 578.852 620.711 578.18C619.983 577.536 618.639 577.158 616.679 577.046C615.139 576.934 613.809 576.794 612.689 576.626C611.541 577.242 610.785 577.9 610.421 578.6C610.057 579.328 609.875 579.972 609.875 580.532ZM639.494 578.348C637.506 578.348 635.742 577.9 634.202 577.004C632.662 576.08 631.444 574.806 630.548 573.182C629.68 571.558 629.246 569.64 629.246 567.428C629.246 565.244 629.68 563.34 630.548 561.716C631.416 560.064 632.62 558.79 634.16 557.894C635.728 556.97 637.534 556.508 639.578 556.508C641.594 556.508 643.33 556.97 644.786 557.894C646.27 558.79 647.404 559.98 648.188 561.464C648.972 562.948 649.364 564.544 649.364 566.252C649.364 566.56 649.35 566.868 649.322 567.176C649.322 567.484 649.322 567.834 649.322 568.226H632.732C632.816 569.822 633.18 571.152 633.824 572.216C634.496 573.252 635.322 574.036 636.302 574.568C637.31 575.1 638.374 575.366 639.494 575.366C640.95 575.366 642.168 575.03 643.148 574.358C644.128 573.686 644.842 572.776 645.29 571.628H648.776C648.216 573.56 647.138 575.17 645.542 576.458C643.974 577.718 641.958 578.348 639.494 578.348ZM639.494 559.49C637.814 559.49 636.316 560.008 635 561.044C633.712 562.052 632.97 563.536 632.774 565.496H645.878C645.794 563.62 645.15 562.15 643.946 561.086C642.742 560.022 641.258 559.49 639.494 559.49Z"></path></g><defs><clipPath id="nk-1610"><rect style="fill:var(--color-white)" width="1490" height="838"></rect></clipPath></defs></svg>