<svg id="nksvg" width="1490" height="838" viewBox="0 0 1490 838" fill="none" xmlns="http://www.w3.org/2000/svg">
<g clip-path="url(#clip0_1691_59155)">
<path d="M0 0H1490V838H0V0Z" fill="var(--color-illustrationBackground010)"/>
<path d="M478 283C478 269.745 488.745 259 502 259H988C1001.25 259 1012 269.745 1012 283V363C1012 376.255 1001.25 387 988 387H502C488.745 387 478 376.255 478 363V283Z" fill="white"/>
<path fill-rule="evenodd" clip-rule="evenodd" d="M988 263H502C490.954 263 482 271.954 482 283V363C482 374.045 490.954 383 502 383H988C999.046 383 1008 374.045 1008 363V283C1008 271.954 999.046 263 988 263ZM502 259C488.745 259 478 269.745 478 283V363C478 376.255 488.745 387 502 387H988C1001.25 387 1012 376.255 1012 363V283C1012 269.745 1001.25 259 988 259H502Z" fill="#85939C"/>
<path d="M478 522C478 508.745 488.745 498 502 498H724C737.255 498 748 508.745 748 522V602C748 615.255 737.255 626 724 626H502C488.745 626 478 615.255 478 602V522Z" fill="white"/>
<path fill-rule="evenodd" clip-rule="evenodd" d="M724 502H502C490.954 502 482 510.954 482 522V602C482 613.045 490.954 622 502 622H724C735.046 622 744 613.045 744 602V522C744 510.954 735.046 502 724 502ZM502 498C488.745 498 478 508.745 478 522V602C478 615.255 488.745 626 502 626H724C737.255 626 748 615.255 748 602V522C748 508.745 737.255 498 724 498H502Z" fill="#85939C"/>
<path d="M491.079 216.302V219.276H481.645V225.832H489V228.806H481.645V238.527H478V216.302H491.079Z" fill="#577FFB"/>
<path d="M510.414 220.907V238.527H506.768V236.448C506.193 237.173 505.436 237.749 504.498 238.175C503.581 238.58 502.601 238.783 501.556 238.783C500.17 238.783 498.923 238.495 497.815 237.919C496.728 237.344 495.864 236.491 495.225 235.361C494.606 234.231 494.297 232.867 494.297 231.268V220.907H497.911V230.724C497.911 232.302 498.305 233.517 499.094 234.37C499.883 235.201 500.959 235.617 502.324 235.617C503.688 235.617 504.765 235.201 505.553 234.37C506.363 233.517 506.768 232.302 506.768 230.724V220.907H510.414Z" fill="#577FFB"/>
<path d="M518.869 214.863V238.527H515.224V214.863H518.869Z" fill="#577FFB"/>
<path d="M527.301 214.863V238.527H523.655V214.863H527.301Z" fill="#577FFB"/>
<path d="M549.283 220.619C550.669 220.619 551.906 220.907 552.993 221.483C554.101 222.058 554.965 222.911 555.583 224.041C556.201 225.171 556.51 226.535 556.51 228.134V238.527H552.897V228.678C552.897 227.1 552.503 225.896 551.714 225.064C550.925 224.211 549.848 223.785 548.484 223.785C547.12 223.785 546.032 224.211 545.222 225.064C544.433 225.896 544.039 227.1 544.039 228.678V238.527H540.394V220.907H544.039V222.922C544.636 222.197 545.393 221.632 546.31 221.227C547.248 220.822 548.239 220.619 549.283 220.619Z" fill="#577FFB"/>
<path d="M559.945 229.637C559.945 227.868 560.308 226.301 561.032 224.936C561.779 223.572 562.781 222.517 564.038 221.77C565.317 221.003 566.724 220.619 568.259 220.619C569.645 220.619 570.85 220.896 571.873 221.451C572.917 221.984 573.749 222.655 574.367 223.465V220.907H578.045V238.527H574.367V235.905C573.749 236.736 572.907 237.429 571.841 237.983C570.775 238.537 569.56 238.814 568.195 238.814C566.682 238.814 565.296 238.431 564.038 237.663C562.781 236.875 561.779 235.787 561.032 234.402C560.308 232.995 559.945 231.406 559.945 229.637ZM574.367 229.701C574.367 228.486 574.111 227.43 573.6 226.535C573.109 225.64 572.459 224.958 571.649 224.489C570.839 224.02 569.965 223.785 569.027 223.785C568.089 223.785 567.215 224.02 566.405 224.489C565.595 224.936 564.934 225.608 564.422 226.503C563.932 227.377 563.687 228.422 563.687 229.637C563.687 230.852 563.932 231.918 564.422 232.835C564.934 233.751 565.595 234.455 566.405 234.945C567.236 235.414 568.11 235.649 569.027 235.649C569.965 235.649 570.839 235.414 571.649 234.945C572.459 234.476 573.109 233.794 573.6 232.899C574.111 231.982 574.367 230.916 574.367 229.701Z" fill="#577FFB"/>
<path d="M604.162 220.619C605.547 220.619 606.784 220.907 607.871 221.483C608.98 222.058 609.843 222.911 610.461 224.041C611.101 225.171 611.421 226.535 611.421 228.134V238.527H607.807V228.678C607.807 227.1 607.413 225.896 606.624 225.064C605.835 224.211 604.759 223.785 603.394 223.785C602.03 223.785 600.943 224.211 600.133 225.064C599.344 225.896 598.949 227.1 598.949 228.678V238.527H595.336V228.678C595.336 227.1 594.942 225.896 594.153 225.064C593.364 224.211 592.287 223.785 590.923 223.785C589.559 223.785 588.471 224.211 587.661 225.064C586.873 225.896 586.478 227.1 586.478 228.678V238.527H582.833V220.907H586.478V222.922C587.075 222.197 587.832 221.632 588.749 221.227C589.665 220.822 590.646 220.619 591.69 220.619C593.097 220.619 594.355 220.918 595.464 221.515C596.572 222.112 597.425 222.975 598.022 224.105C598.555 223.039 599.386 222.197 600.516 221.579C601.646 220.939 602.861 220.619 604.162 220.619Z" fill="#577FFB"/>
<path d="M632.208 229.285C632.208 229.946 632.165 230.543 632.08 231.076H618.618C618.724 232.483 619.246 233.613 620.184 234.466C621.123 235.318 622.274 235.745 623.638 235.745C625.599 235.745 626.985 234.924 627.795 233.282H631.728C631.195 234.903 630.225 236.235 628.818 237.28C627.433 238.303 625.706 238.814 623.638 238.814C621.954 238.814 620.44 238.441 619.097 237.695C617.776 236.928 616.731 235.862 615.963 234.498C615.217 233.112 614.844 231.513 614.844 229.701C614.844 227.889 615.207 226.301 615.931 224.936C616.678 223.551 617.712 222.485 619.033 221.738C620.376 220.992 621.911 220.619 623.638 220.619C625.301 220.619 626.783 220.982 628.083 221.706C629.383 222.431 630.396 223.455 631.121 224.776C631.846 226.077 632.208 227.58 632.208 229.285ZM628.403 228.134C628.381 226.791 627.902 225.714 626.964 224.904C626.026 224.094 624.864 223.689 623.478 223.689C622.22 223.689 621.144 224.094 620.248 224.904C619.353 225.693 618.82 226.77 618.65 228.134H628.403Z" fill="#577FFB"/>
<path d="M486.958 450.959C489.153 450.959 491.071 451.385 492.712 452.235C494.373 453.065 495.649 454.272 496.539 455.854C497.448 457.416 497.903 459.245 497.903 461.341C497.903 463.437 497.448 465.257 496.539 466.799C495.649 468.341 494.373 469.528 492.712 470.358C491.071 471.169 489.153 471.575 486.958 471.575H480.225V450.959H486.958ZM486.958 468.816C489.37 468.816 491.219 468.163 492.505 466.858C493.79 465.553 494.433 463.714 494.433 461.341C494.433 458.948 493.79 457.08 492.505 455.735C491.219 454.39 489.37 453.718 486.958 453.718H483.606V468.816H486.958Z" fill="#577FFB"/>
<path d="M500.127 463.329C500.127 461.687 500.464 460.234 501.136 458.968C501.828 457.703 502.757 456.724 503.924 456.032C505.111 455.32 506.416 454.964 507.84 454.964C509.125 454.964 510.242 455.221 511.191 455.735C512.16 456.229 512.932 456.852 513.505 457.604V455.231H516.916V471.575H513.505V469.142C512.932 469.913 512.15 470.556 511.162 471.07C510.173 471.584 509.046 471.842 507.78 471.842C506.376 471.842 505.091 471.486 503.924 470.774C502.757 470.042 501.828 469.034 501.136 467.748C500.464 466.443 500.127 464.97 500.127 463.329ZM513.505 463.388C513.505 462.261 513.268 461.282 512.793 460.451C512.338 459.621 511.735 458.988 510.984 458.553C510.232 458.118 509.422 457.9 508.551 457.9C507.681 457.9 506.871 458.118 506.119 458.553C505.368 458.968 504.755 459.591 504.28 460.422C503.825 461.232 503.598 462.201 503.598 463.329C503.598 464.456 503.825 465.444 504.28 466.295C504.755 467.145 505.368 467.798 506.119 468.252C506.89 468.687 507.701 468.905 508.551 468.905C509.422 468.905 510.232 468.687 510.984 468.252C511.735 467.817 512.338 467.185 512.793 466.354C513.268 465.504 513.505 464.515 513.505 463.388Z" fill="#577FFB"/>
<path d="M525.303 457.989V467.036C525.303 467.649 525.441 468.094 525.718 468.371C526.015 468.628 526.509 468.757 527.201 468.757H529.277V471.575H526.608C525.085 471.575 523.918 471.219 523.108 470.507C522.297 469.795 521.892 468.638 521.892 467.036V457.989H519.963V455.231H521.892V451.167H525.303V455.231H529.277V457.989H525.303Z" fill="#577FFB"/>
<path d="M547.373 463.002C547.373 463.615 547.334 464.169 547.255 464.663H534.767C534.866 465.968 535.35 467.016 536.22 467.807C537.09 468.598 538.158 468.994 539.424 468.994C541.243 468.994 542.529 468.233 543.28 466.71H546.928C546.434 468.213 545.534 469.449 544.229 470.418C542.944 471.367 541.342 471.842 539.424 471.842C537.862 471.842 536.458 471.495 535.212 470.803C533.986 470.091 533.017 469.103 532.305 467.837C531.613 466.552 531.267 465.069 531.267 463.388C531.267 461.707 531.603 460.234 532.275 458.968C532.967 457.683 533.927 456.694 535.153 456.002C536.398 455.31 537.822 454.964 539.424 454.964C540.966 454.964 542.341 455.3 543.547 455.972C544.753 456.645 545.693 457.594 546.365 458.82C547.037 460.026 547.373 461.42 547.373 463.002ZM543.844 461.934C543.824 460.689 543.379 459.69 542.509 458.939C541.639 458.187 540.561 457.811 539.276 457.811C538.109 457.811 537.11 458.187 536.28 458.939C535.449 459.67 534.955 460.669 534.797 461.934H543.844Z" fill="#577FFB"/>
<path d="M565.496 471.842C563.953 471.842 562.559 471.495 561.313 470.803C560.067 470.091 559.089 469.103 558.377 467.837C557.665 466.552 557.309 465.069 557.309 463.388C557.309 461.727 557.675 460.254 558.406 458.968C559.138 457.683 560.137 456.694 561.402 456.002C562.668 455.31 564.082 454.964 565.644 454.964C567.206 454.964 568.62 455.31 569.886 456.002C571.151 456.694 572.15 457.683 572.881 458.968C573.613 460.254 573.979 461.727 573.979 463.388C573.979 465.049 573.603 466.522 572.852 467.807C572.1 469.093 571.072 470.091 569.767 470.803C568.482 471.495 567.058 471.842 565.496 471.842ZM565.496 468.905C566.366 468.905 567.176 468.697 567.928 468.282C568.699 467.867 569.322 467.244 569.797 466.413C570.271 465.583 570.508 464.574 570.508 463.388C570.508 462.201 570.281 461.203 569.826 460.392C569.371 459.561 568.768 458.939 568.017 458.523C567.265 458.108 566.455 457.9 565.585 457.9C564.714 457.9 563.904 458.108 563.152 458.523C562.421 458.939 561.837 459.561 561.402 460.392C560.967 461.203 560.75 462.201 560.75 463.388C560.75 465.148 561.195 466.512 562.084 467.481C562.994 468.43 564.131 468.905 565.496 468.905Z" fill="#577FFB"/>
<path d="M584.174 457.989H581.148V471.575H577.737V457.989H575.809V455.231H577.737V454.074C577.737 452.195 578.231 450.831 579.22 449.981C580.229 449.11 581.801 448.675 583.936 448.675V451.493C582.908 451.493 582.186 451.691 581.771 452.087C581.356 452.462 581.148 453.125 581.148 454.074V455.231H584.174V457.989Z" fill="#577FFB"/>
<path d="M598.257 457.663C598.831 456.872 599.612 456.229 600.6 455.735C601.609 455.221 602.726 454.964 603.952 454.964C605.396 454.964 606.701 455.31 607.868 456.002C609.034 456.694 609.954 457.683 610.626 458.968C611.299 460.234 611.635 461.687 611.635 463.329C611.635 464.97 611.299 466.443 610.626 467.748C609.954 469.034 609.024 470.042 607.838 470.774C606.671 471.486 605.376 471.842 603.952 471.842C602.687 471.842 601.56 471.594 600.571 471.1C599.602 470.606 598.831 469.973 598.257 469.202V471.575H594.876V449.625H598.257V457.663ZM608.194 463.329C608.194 462.201 607.957 461.232 607.482 460.422C607.027 459.591 606.414 458.968 605.643 458.553C604.892 458.118 604.081 457.9 603.211 457.9C602.36 457.9 601.55 458.118 600.778 458.553C600.027 458.988 599.414 459.621 598.939 460.451C598.485 461.282 598.257 462.261 598.257 463.388C598.257 464.515 598.485 465.504 598.939 466.354C599.414 467.185 600.027 467.817 600.778 468.252C601.55 468.687 602.36 468.905 603.211 468.905C604.081 468.905 604.892 468.687 605.643 468.252C606.414 467.798 607.027 467.145 607.482 466.295C607.957 465.444 608.194 464.456 608.194 463.329Z" fill="#577FFB"/>
<path d="M616.699 453.065C616.086 453.065 615.572 452.858 615.157 452.442C614.741 452.027 614.534 451.513 614.534 450.9C614.534 450.287 614.741 449.773 615.157 449.358C615.572 448.942 616.086 448.735 616.699 448.735C617.292 448.735 617.797 448.942 618.212 449.358C618.627 449.773 618.835 450.287 618.835 450.9C618.835 451.513 618.627 452.027 618.212 452.442C617.797 452.858 617.292 453.065 616.699 453.065ZM618.36 455.231V471.575H614.979V455.231H618.36Z" fill="#577FFB"/>
<path d="M626.181 457.604C626.676 456.773 627.328 456.13 628.139 455.676C628.97 455.201 629.948 454.964 631.076 454.964V458.464H630.215C628.89 458.464 627.882 458.8 627.19 459.472C626.517 460.145 626.181 461.311 626.181 462.973V471.575H622.8V455.231H626.181V457.604Z" fill="#577FFB"/>
<path d="M638.129 457.989V467.036C638.129 467.649 638.267 468.094 638.544 468.371C638.841 468.628 639.335 468.757 640.027 468.757H642.104V471.575H639.434C637.911 471.575 636.745 471.219 635.934 470.507C635.123 469.795 634.718 468.638 634.718 467.036V457.989H632.79V455.231H634.718V451.167H638.129V455.231H642.104V457.989H638.129Z" fill="#577FFB"/>
<path d="M653.674 454.964C654.92 454.964 656.027 455.231 656.996 455.765C657.985 456.299 658.756 457.09 659.31 458.138C659.883 459.186 660.17 460.451 660.17 461.934V471.575H656.818V462.439C656.818 460.975 656.452 459.858 655.721 459.087C654.989 458.296 653.99 457.9 652.725 457.9C651.459 457.9 650.451 458.296 649.699 459.087C648.968 459.858 648.602 460.975 648.602 462.439V471.575H645.22V449.625H648.602V457.129C649.175 456.437 649.897 455.903 650.767 455.527C651.657 455.152 652.626 454.964 653.674 454.964Z" fill="#577FFB"/>
<path d="M507 573.032V549.303H514.288C518.469 549.303 521.543 550.365 523.509 552.489C525.498 554.613 526.492 557.529 526.492 561.235C526.492 564.874 525.498 567.755 523.509 569.88C521.543 571.981 518.469 573.032 514.288 573.032H507ZM509.847 570.659H514.22C516.526 570.659 518.356 570.286 519.712 569.541C521.091 568.772 522.074 567.687 522.661 566.286C523.249 564.862 523.543 563.179 523.543 561.235C523.543 559.246 523.249 557.54 522.661 556.116C522.074 554.693 521.091 553.596 519.712 552.828C518.356 552.06 516.526 551.675 514.22 551.675H509.847V570.659Z" fill="#C0C7CC"/>
<path d="M530.604 573.032V549.303H537.892C542.073 549.303 545.147 550.365 547.113 552.489C549.102 554.613 550.096 557.529 550.096 561.235C550.096 564.874 549.102 567.755 547.113 569.88C545.147 571.981 542.073 573.032 537.892 573.032H530.604ZM533.451 570.659H537.824C540.13 570.659 541.96 570.286 543.316 569.541C544.695 568.772 545.678 567.687 546.265 566.286C546.853 564.862 547.147 563.179 547.147 561.235C547.147 559.246 546.853 557.54 546.265 556.116C545.678 554.693 544.695 553.596 543.316 552.828C541.96 552.06 540.13 551.675 537.824 551.675H533.451V570.659Z" fill="#C0C7CC"/>
<path d="M563.179 573.032V549.303H566.501L575.044 565.846L583.519 549.303H586.875V573.032H584.027V554.387L576.095 569.642H573.959L566.027 554.421V573.032H563.179Z" fill="#C0C7CC"/>
<path d="M591.881 573.032V549.303H595.203L603.746 565.846L612.221 549.303H615.577V573.032H612.73V554.387L604.797 569.642H602.661L594.729 554.421V573.032H591.881Z" fill="#C0C7CC"/>
<path d="M635.453 573.032V564.015L627.724 549.303H630.945L636.877 561.303L642.81 549.303H645.996L638.301 564.015V573.032H635.453Z" fill="#C0C7CC"/>
<path d="M655.085 573.032V564.015L647.356 549.303H650.576L656.508 561.303L662.441 549.303H665.627L657.932 564.015V573.032H655.085Z" fill="#C0C7CC"/>
<path d="M674.716 573.032V564.015L666.987 549.303H670.207L676.14 561.303L682.072 549.303H685.259L677.564 564.015V573.032H674.716Z" fill="#C0C7CC"/>
<path d="M694.347 573.032V564.015L686.618 549.303H689.839L695.771 561.303L701.704 549.303H704.89L697.195 564.015V573.032H694.347Z" fill="#C0C7CC"/>
</g>
<defs>
<clipPath id="clip0_1691_59155">
<rect width="1490" height="838" fill="white"/>
</clipPath>
</defs>
</svg>
