<svg id="brands-factiva" style="width: 100%; height: 100%" width="1344" height="759" viewBox="0 0 1344 759" fill="none" xmlns="http://www.w3.org/2000/svg" class="css-0"><g clip-path="url(#nk-8)"><path style="fill:var(--color-illustrationInterface100)" d="M192.975 363.653C192.924 362.26 192.716 360.877 192.357 359.531C191.382 356.165 189.339 353.207 186.537 351.103C183.734 348.999 180.323 347.863 176.819 347.867H145.66V411.008H161.487V426.876H129.875V332.082H177.025C185.416 332.071 193.47 335.388 199.419 341.307C205.368 347.225 208.727 355.261 208.76 363.653H192.975Z"></path><path style="fill:var(--color-illustrationInterface100)" d="M208.76 379.602V395.263C208.619 403.703 205.164 411.749 199.142 417.664C193.119 423.578 185.012 426.887 176.571 426.875H177.23V411.007H176.447C180.763 411.008 184.907 409.316 187.99 406.296C191.072 403.275 192.847 399.166 192.933 394.851V379.602H208.76Z"></path><path style="fill:var(--color-illustrationInterface100)" d="M303.433 408.823V349.227H327.708C343.328 349.227 352.437 358.088 352.437 371.359V386.856C352.437 400.044 343.535 408.906 327.955 408.906L303.433 408.823ZM340.073 371.359C340.089 369.941 339.826 368.533 339.298 367.217C338.77 365.901 337.989 364.701 336.997 363.687C336.006 362.673 334.825 361.864 333.521 361.306C332.217 360.748 330.816 360.453 329.398 360.437L327.708 360.519H315.756V397.613H327.708C329.22 397.787 330.751 397.64 332.201 397.181C333.652 396.722 334.989 395.962 336.125 394.95C337.262 393.938 338.171 392.698 338.795 391.31C339.418 389.922 339.741 388.418 339.743 386.897L340.073 371.359Z"></path><path style="fill:var(--color-illustrationInterface100)" d="M390.726 409.688C375.147 409.688 366.244 400.827 366.244 387.638V370.41C366.244 357.222 375.147 348.566 390.726 348.566C406.305 348.566 415.207 357.222 415.207 370.41V387.597C415.207 400.827 406.016 409.688 390.726 409.688ZM402.76 370.451C402.458 367.465 401.057 364.697 398.83 362.684C396.602 360.671 393.707 359.557 390.705 359.557C387.703 359.557 384.808 360.671 382.581 362.684C380.353 364.697 378.953 367.465 378.65 370.451V387.638C378.953 390.625 380.353 393.393 382.581 395.405C384.808 397.418 387.703 398.533 390.705 398.533C393.707 398.533 396.602 397.418 398.83 395.405C401.057 393.393 402.458 390.625 402.76 387.638V370.451Z"></path><path style="fill:var(--color-illustrationInterface100)" d="M462.767 375.48L452.258 408.864H438.986L426.622 349.227H438.986L446.488 389.576L458.522 349.227H466.229L478.264 389.576L485.765 349.227H498.13L486.177 408.823H472.865L462.767 375.48Z"></path><path style="fill:var(--color-illustrationInterface100)" d="M558.881 349.227H571.246V391.966C571.246 403.795 564.116 409.853 551.957 409.853C539.799 409.853 532.669 403.795 532.669 391.966H545.033C545.006 392.8 545.143 393.631 545.437 394.411C545.731 395.192 546.175 395.907 546.746 396.516C547.316 397.124 548.001 397.614 548.761 397.958C549.52 398.302 550.341 398.493 551.174 398.519H551.793C552.707 398.591 553.626 398.46 554.485 398.137C555.344 397.814 556.121 397.306 556.762 396.649C557.402 395.993 557.891 395.204 558.193 394.337C558.496 393.471 558.604 392.549 558.511 391.637L558.881 349.227Z"></path><path style="fill:var(--color-illustrationInterface100)" d="M610.895 409.689C595.315 409.689 586.413 400.828 586.413 387.639V370.411C586.413 357.223 595.315 348.361 610.895 348.361C626.474 348.361 635.376 357.223 635.376 370.411V387.598C635.335 400.828 626.433 409.689 610.895 409.689ZM622.929 370.452C622.626 367.466 621.226 364.698 618.998 362.685C616.771 360.672 613.876 359.558 610.874 359.558C607.872 359.558 604.977 360.672 602.75 362.685C600.522 364.698 599.122 367.466 598.819 370.452V387.639C599.122 390.626 600.522 393.394 602.75 395.406C604.977 397.419 607.872 398.534 610.874 398.534C613.876 398.534 616.771 397.419 618.998 395.406C621.226 393.394 622.626 390.626 622.929 387.639V370.452Z"></path><path style="fill:var(--color-illustrationInterface100)" d="M699.422 408.823H687.057L662.946 370.411V408.823H650.582V349.227H662.946L687.057 387.639V349.227H699.422V408.823Z"></path><path style="fill:var(--color-illustrationInterface100)" d="M728.274 373.049H752.22V384.383H728.027V397.489H755.064V408.823H715.58V349.227H755.064V360.561H728.027L728.274 373.049Z"></path><path style="fill:var(--color-illustrationInterface100)" d="M768.374 389.991H781.068C781.56 392.522 782.986 394.775 785.063 396.302C787.14 397.83 789.716 398.519 792.279 398.234C797.76 398.234 801.552 396.379 801.552 392.258C801.552 388.919 799.409 387.065 794.875 385.952L783.953 383.232C774.02 380.759 769.116 374.37 769.116 365.592C769.116 353.681 779.296 348.24 790.63 348.24C803.613 348.24 811.649 355.206 813.051 365.344H800.274C799.468 363.463 798.081 361.888 796.316 360.85C794.552 359.812 792.502 359.365 790.465 359.574C785.272 359.574 781.563 361.429 781.563 365.633C781.563 369.136 784.53 370.661 788.033 371.527L798.584 374.164C808.6 376.637 813.958 382.407 813.958 392.299C813.958 403.015 806.374 409.568 792.279 409.568C778.183 409.568 769.033 401.861 768.374 389.991Z"></path><path style="fill:var(--color-illustrationInterface100)" d="M878.747 374.328H904.712V383.313H878.747V408.783H869.68V349.352H904.712V358.336H878.747V374.328Z"></path><path style="fill:var(--color-illustrationInterface100)" d="M950.049 394.441H927.793L922.806 408.783H913.45L934.058 349.352H943.413L964.021 408.783H954.995L950.049 394.441ZM947.164 386.198L938.921 362.581L930.678 386.198H947.164Z"></path><path style="fill:var(--color-illustrationInterface100)" d="M996.374 409.646C993.55 409.857 990.714 409.461 988.055 408.486C985.397 407.511 982.977 405.978 980.96 403.992C978.942 402.005 977.372 399.61 976.355 396.967C975.339 394.324 974.899 391.494 975.066 388.668V369.462C975.11 363.987 977.261 358.74 981.07 354.808C984.88 350.877 990.057 348.562 995.527 348.345C1001 348.128 1006.34 350.024 1010.45 353.641C1014.56 357.258 1017.12 362.318 1017.6 367.772H1008.49C1007.83 364.909 1006.16 362.376 1003.8 360.628C1001.43 358.881 998.524 358.033 995.592 358.236C992.659 358.44 989.895 359.681 987.795 361.739C985.695 363.796 984.397 366.534 984.133 369.462V388.668C984.397 391.596 985.695 394.334 987.795 396.391C989.895 398.448 992.659 399.69 995.592 399.893C998.524 400.096 1001.43 399.248 1003.8 397.501C1006.16 395.753 1007.83 393.221 1008.49 390.358H1017.6C1017.54 393.04 1016.93 395.681 1015.82 398.122C1014.71 400.563 1013.11 402.753 1011.13 404.557C1009.14 406.361 1006.81 407.743 1004.27 408.617C1001.74 409.492 999.049 409.842 996.374 409.646V409.646Z"></path><path style="fill:var(--color-illustrationInterface100)" d="M1055.31 358.336V408.783H1046.24V358.336H1029.51V349.352H1072.05V358.336H1055.31Z"></path><path style="fill:var(--color-illustrationInterface100)" d="M1095.25 408.783H1086.06V349.352H1095.13L1095.25 408.783Z"></path><path style="fill:var(--color-illustrationInterface100)" d="M1139.39 408.783H1130.03L1109.43 349.352H1118.78L1134.9 395.718L1151.01 349.352H1160.24L1139.39 408.783Z"></path><path style="fill:var(--color-illustrationInterface100)" d="M1198.74 394.441H1176.48L1171.45 408.783H1162.1L1182.71 349.352H1192.06L1212.67 408.783H1203.31L1198.74 394.441ZM1195.85 386.198L1187.61 362.581L1179.37 386.198H1195.85Z"></path></g><defs><clipPath id="nk-8"><rect style="fill:var(--color-white)" width="1083.08" height="95" transform="translate(130 332)"></rect></clipPath></defs></svg>