<svg id="nksvg" style="width: 100%; height: 100%" width="1490" height="838" viewBox="0 0 1490 838" fill="none" xmlns="http://www.w3.org/2000/svg" class="css-0">
  <path style="fill: var(--color-illustrationBackground010)" d="M0 0H1490V838H0V0Z"></path>
  <path style="fill: var(--color-illustrationPalette040)" d="M295 164C295 159.582 298.582 156 303 156H407C411.418 156 415 159.582 415 164V675C415 679.418 411.418 683 407 683H303C298.582 683 295 679.418 295 675V164Z"></path>
  <path style="fill: var(--color-illustrationPalette040)" d="M1105 164C1105 159.582 1108.58 156 1113 156H1217C1221.42 156 1225 159.582 1225 164V675C1225 679.418 1221.42 683 1217 683H1113C1108.58 683 1105 679.418 1105 675V164Z"></path>
  <path style="fill: var(--color-illustrationPalette040)" d="M565 164C565 159.582 568.582 156 573 156H677C681.418 156 685 159.582 685 164V675C685 679.418 681.418 683 677 683H573C568.582 683 565 679.418 565 675V164Z"></path>
  <path style="fill: var(--color-illustrationPalette040)" d="M835 164C835 159.582 838.582 156 843 156H947C951.418 156 955 159.582 955 164V675C955 679.418 951.418 683 947 683H843C838.582 683 835 679.418 835 675V164Z"></path>
  <path style="fill: var(--color-red020)" opacity="0.6" d="M425 156L555 156V683H425L425 156Z"></path>
  <path style="fill: var(--color-red020)" opacity="0.6" d="M695 156L825 156V683H695V156Z"></path>
  <path style="fill: var(--color-red020)" opacity="0.6" d="M965 156L1095 156V683H965V156Z"></path>
  <path style="fill: var(--color-illustrationHighlight010)" fill-rule="evenodd" clip-rule="evenodd" d="M1094.53 88L1094.53 126L1091 126L1091 109.309L968.535 109.309L968.535 126L965 126L965 88.0002L968.535 88.0002L968.535 105.6L1091 105.6L1091 88L1094.53 88Z"></path>
</svg>
