<svg id="nksvg" width="1490" height="838" viewBox="0 0 1490 838" fill="none" xmlns="http://www.w3.org/2000/svg">
<g clip-path="url(#clip0_3097_169129)">
<rect width="1490" height="838" fill="var(--color-illustrationBackground010)"></rect>
<line x1="223" y1="248" x2="1267" y2="248" stroke="#8BA6F6" stroke-width="2"></line>
<path d="M226.6 190V185.76L234.36 183.92L233.16 185.68V138.48L234.6 140.32L226.6 138.64V134.4L247.88 134V138.24L239.96 140.32L241.32 138.48V159.84L239.96 158.48H269.56L268.12 159.84V138.48L269.56 140.24L261.56 138.64V134.4L282.92 134V138.24L275.08 140.24L276.36 138.48V185.68L275.08 183.92L282.92 185.76V190H261.56V185.76L269.32 183.92L268.12 185.68V163.12L269.56 164.48H239.96L241.32 163.12V185.68L240.12 183.92L247.88 185.76V190H226.6ZM307.346 190.8C303.666 190.8 300.412 190 297.586 188.4C294.812 186.747 292.626 184.347 291.026 181.2C289.479 178 288.706 174.107 288.706 169.52C288.706 164.827 289.506 160.8 291.106 157.44C292.759 154.027 295.079 151.413 298.066 149.6C301.106 147.733 304.652 146.8 308.706 146.8C312.599 146.8 315.772 147.6 318.226 149.2C320.732 150.8 322.572 153.013 323.746 155.84C324.972 158.613 325.586 161.787 325.586 165.36C325.586 166.053 325.559 166.747 325.506 167.44C325.452 168.133 325.372 168.933 325.266 169.84H294.946V164.32H318.066L317.346 164.8C317.399 162.613 317.132 160.613 316.546 158.8C315.959 156.987 314.972 155.547 313.586 154.48C312.199 153.36 310.359 152.8 308.066 152.8C305.559 152.8 303.479 153.493 301.826 154.88C300.172 156.213 298.946 158.053 298.146 160.4C297.346 162.747 296.946 165.44 296.946 168.48C296.946 171.733 297.399 174.587 298.306 177.04C299.212 179.44 300.572 181.333 302.386 182.72C304.252 184.053 306.546 184.72 309.266 184.72C311.186 184.72 313.266 184.347 315.506 183.6C317.799 182.853 320.146 181.733 322.546 180.24L325.346 184.64C322.359 186.72 319.319 188.267 316.226 189.28C313.186 190.293 310.226 190.8 307.346 190.8ZM365.736 185.68L364.536 184L371.736 185.68V189.92L359.576 190.48L358.456 182.8L359.096 183.04C356.802 185.653 354.322 187.6 351.656 188.88C348.989 190.16 346.402 190.8 343.896 190.8C340.802 190.8 338.136 189.787 335.896 187.76C333.709 185.733 332.616 182.693 332.616 178.64C332.616 175.547 333.282 173.147 334.616 171.44C335.949 169.68 337.816 168.427 340.216 167.68C342.616 166.933 345.442 166.56 348.696 166.56H358.456L357.736 167.44V160.56C357.736 157.787 357.016 155.813 355.576 154.64C354.136 153.413 352.136 152.8 349.576 152.8C348.242 152.8 346.829 152.933 345.336 153.2C343.896 153.467 342.322 153.893 340.616 154.48L341.736 153.36L340.856 160.48H335.576L334.936 149.84C338.189 148.827 341.176 148.08 343.896 147.6C346.669 147.067 349.229 146.8 351.576 146.8C356.056 146.8 359.522 147.787 361.976 149.76C364.482 151.733 365.736 154.853 365.736 159.12V185.68ZM340.696 178.08C340.696 180.373 341.256 182.08 342.376 183.2C343.496 184.267 344.909 184.8 346.616 184.8C348.322 184.8 350.189 184.267 352.216 183.2C354.296 182.08 356.296 180.613 358.216 178.8L357.736 180.8V170.88L358.456 171.68H349.976C346.456 171.68 344.029 172.213 342.696 173.28C341.362 174.347 340.696 175.947 340.696 178.08ZM392.278 190.8C389.291 190.8 386.598 190 384.198 188.4C381.798 186.747 379.905 184.347 378.518 181.2C377.185 178 376.518 174.107 376.518 169.52C376.518 161.947 378.438 156.267 382.278 152.48C386.118 148.693 391.451 146.8 398.278 146.8C399.611 146.8 400.971 146.907 402.358 147.12C403.798 147.28 405.265 147.547 406.758 147.92L405.158 148.8V133.68L405.958 134.64L398.838 132.88V128.64L413.158 128.08V185.28L412.118 184L419.158 185.68V189.92L406.998 190.48L405.878 183.6L406.758 183.92C404.358 186.213 401.958 187.947 399.558 189.12C397.211 190.24 394.785 190.8 392.278 190.8ZM395.238 184.8C396.945 184.8 398.705 184.347 400.518 183.44C402.385 182.533 404.278 181.173 406.198 179.36L405.158 181.92V152.08L406.198 154C403.211 153.093 400.491 152.64 398.038 152.64C393.665 152.64 390.358 154.08 388.118 156.96C385.931 159.787 384.838 163.733 384.838 168.8C384.838 172.107 385.265 174.96 386.118 177.36C387.025 179.76 388.251 181.6 389.798 182.88C391.398 184.16 393.211 184.8 395.238 184.8ZM437.533 185.12L436.813 184.16L443.533 185.76V190H423.613V185.76L430.333 184.16L429.533 185.12V152.88L430.253 153.6L423.613 152.08V147.84L437.533 147.36V185.12ZM433.133 139.52C431.693 139.52 430.493 139.067 429.533 138.16C428.626 137.253 428.173 135.973 428.173 134.32C428.173 132.613 428.653 131.333 429.613 130.48C430.573 129.573 431.773 129.12 433.213 129.12C434.706 129.12 435.906 129.573 436.813 130.48C437.773 131.333 438.253 132.613 438.253 134.32C438.253 136.027 437.746 137.333 436.733 138.24C435.773 139.093 434.573 139.52 433.133 139.52ZM447.988 190V185.76L455.028 184.08L453.908 185.44V152.32L455.028 153.76L447.988 152.08V147.84L460.148 147.28L461.188 155.04L460.148 154.64C462.761 151.973 465.508 150 468.388 148.72C471.321 147.44 474.094 146.8 476.708 146.8C480.281 146.8 483.241 147.893 485.587 150.08C487.934 152.267 489.081 155.653 489.028 160.24V185.44L488.148 184.16L494.948 185.76V190H475.428V185.76L482.068 184.16L481.028 185.52V161.92C481.028 158.827 480.334 156.56 478.948 155.12C477.561 153.68 475.721 152.96 473.428 152.96C471.614 152.96 469.641 153.467 467.508 154.48C465.428 155.44 463.374 156.933 461.348 158.96L461.908 157.52V185.52L461.028 184.24L467.508 185.76V190H447.988ZM517.085 209.2C510.738 209.2 505.992 208.293 502.845 206.48C499.698 204.72 498.125 202.133 498.125 198.72C498.125 196.213 498.952 194.027 500.605 192.16C502.312 190.347 504.792 188.773 508.045 187.44V189.04C506.232 188.933 504.792 188.533 503.725 187.84C502.712 187.093 502.205 186.08 502.205 184.8C502.205 184.373 502.258 183.947 502.365 183.52C502.525 183.04 502.765 182.4 503.085 181.6C503.458 180.8 503.965 179.76 504.605 178.48C505.245 177.2 506.072 175.547 507.085 173.52L507.245 174.88C504.845 173.653 503.005 171.973 501.725 169.84C500.445 167.653 499.805 165.093 499.805 162.16C499.805 157.413 501.378 153.68 504.525 150.96C507.725 148.187 512.125 146.8 517.725 146.8C521.565 146.8 524.872 147.467 527.645 148.8L525.645 148.4L538.445 147.84L538.525 152.56L531.485 153.92L532.045 152.8C533.058 153.813 533.832 155.067 534.365 156.56C534.898 158 535.165 159.653 535.165 161.52C535.165 166.32 533.538 170.107 530.285 172.88C527.032 175.6 522.712 176.96 517.325 176.96C514.392 176.96 511.645 176.507 509.085 175.6L510.925 174.72L509.085 184.56L507.405 183.76H523.165C528.392 183.76 532.338 184.773 535.005 186.8C537.725 188.827 539.085 191.733 539.085 195.52C539.085 199.947 537.245 203.333 533.565 205.68C529.885 208.027 524.392 209.2 517.085 209.2ZM517.805 203.2C522.498 203.2 525.938 202.613 528.125 201.44C530.312 200.267 531.405 198.507 531.405 196.16C531.405 194.08 530.605 192.507 529.005 191.44C527.405 190.373 525.032 189.84 521.885 189.84H508.765L510.845 189.36C507.058 191.76 505.165 194.347 505.165 197.12C505.165 199.147 506.178 200.667 508.205 201.68C510.285 202.693 513.485 203.2 517.805 203.2ZM517.245 171.44C520.392 171.44 522.818 170.613 524.525 168.96C526.285 167.253 527.165 164.827 527.165 161.68C527.165 158.533 526.338 156.187 524.685 154.64C523.085 153.093 520.738 152.32 517.645 152.32C514.498 152.32 512.072 153.147 510.365 154.8C508.712 156.4 507.885 158.773 507.885 161.92C507.885 165.013 508.685 167.387 510.285 169.04C511.885 170.64 514.205 171.44 517.245 171.44ZM580.19 185.92L578.51 183.76L589.15 185.68V190H561.07V185.68L573.71 183.92L572.03 185.92V140.8L574.19 140.96L560.51 148.8L557.87 143.76L573.47 133.76H580.19V185.92Z" fill="var(--color-illustrationPalette030)"></path>
<line x1="223" y1="486" x2="1267" y2="486" stroke="#8BA6F6" stroke-width="2"></line>
<path d="M225.7 432V428.82L231.52 427.44L230.62 428.76V393.36L231.7 394.74L225.7 393.48V390.3L241.66 390V393.18L235.72 394.74L236.74 393.36V409.38L235.72 408.36H257.92L256.84 409.38V393.36L257.92 394.68L251.92 393.48V390.3L267.94 390V393.18L262.06 394.68L263.02 393.36V428.76L262.06 427.44L267.94 428.82V432H251.92V428.82L257.74 427.44L256.84 428.76V411.84L257.92 412.86H235.72L236.74 411.84V428.76L235.84 427.44L241.66 428.82V432H225.7ZM286.259 432.6C283.499 432.6 281.059 432 278.939 430.8C276.859 429.56 275.219 427.76 274.019 425.4C272.859 423 272.279 420.08 272.279 416.64C272.279 413.12 272.879 410.1 274.079 407.58C275.319 405.02 277.059 403.06 279.299 401.7C281.579 400.3 284.239 399.6 287.279 399.6C290.199 399.6 292.579 400.2 294.419 401.4C296.299 402.6 297.679 404.26 298.559 406.38C299.479 408.46 299.939 410.84 299.939 413.52C299.939 414.04 299.919 414.56 299.879 415.08C299.839 415.6 299.779 416.2 299.699 416.88H276.959V412.74H294.299L293.759 413.1C293.799 411.46 293.599 409.96 293.159 408.6C292.719 407.24 291.979 406.16 290.939 405.36C289.899 404.52 288.519 404.1 286.799 404.1C284.919 404.1 283.359 404.62 282.119 405.66C280.879 406.66 279.959 408.04 279.359 409.8C278.759 411.56 278.459 413.58 278.459 415.86C278.459 418.3 278.799 420.44 279.479 422.28C280.159 424.08 281.179 425.5 282.539 426.54C283.939 427.54 285.659 428.04 287.699 428.04C289.139 428.04 290.699 427.76 292.379 427.2C294.099 426.64 295.859 425.8 297.659 424.68L299.759 427.98C297.519 429.54 295.239 430.7 292.919 431.46C290.639 432.22 288.419 432.6 286.259 432.6ZM330.052 428.76L329.152 427.5L334.552 428.76V431.94L325.432 432.36L324.592 426.6L325.072 426.78C323.352 428.74 321.492 430.2 319.492 431.16C317.492 432.12 315.552 432.6 313.672 432.6C311.352 432.6 309.352 431.84 307.672 430.32C306.032 428.8 305.212 426.52 305.212 423.48C305.212 421.16 305.712 419.36 306.712 418.08C307.712 416.76 309.112 415.82 310.912 415.26C312.712 414.7 314.832 414.42 317.272 414.42H324.592L324.052 415.08V409.92C324.052 407.84 323.512 406.36 322.432 405.48C321.352 404.56 319.852 404.1 317.932 404.1C316.932 404.1 315.872 404.2 314.752 404.4C313.672 404.6 312.492 404.92 311.212 405.36L312.052 404.52L311.392 409.86H307.432L306.952 401.88C309.392 401.12 311.632 400.56 313.672 400.2C315.752 399.8 317.672 399.6 319.432 399.6C322.792 399.6 325.392 400.34 327.232 401.82C329.112 403.3 330.052 405.64 330.052 408.84V428.76ZM311.272 423.06C311.272 424.78 311.692 426.06 312.532 426.9C313.372 427.7 314.432 428.1 315.712 428.1C316.992 428.1 318.392 427.7 319.912 426.9C321.472 426.06 322.972 424.96 324.412 423.6L324.052 425.1V417.66L324.592 418.26H318.232C315.592 418.26 313.772 418.66 312.772 419.46C311.772 420.26 311.272 421.46 311.272 423.06ZM349.959 432.6C347.719 432.6 345.699 432 343.899 430.8C342.099 429.56 340.679 427.76 339.639 425.4C338.639 423 338.139 420.08 338.139 416.64C338.139 410.96 339.579 406.7 342.459 403.86C345.339 401.02 349.339 399.6 354.459 399.6C355.459 399.6 356.479 399.68 357.519 399.84C358.599 399.96 359.699 400.16 360.819 400.44L359.619 401.1V389.76L360.219 390.48L354.879 389.16V385.98L365.619 385.56V428.46L364.839 427.5L370.119 428.76V431.94L360.999 432.36L360.159 427.2L360.819 427.44C359.019 429.16 357.219 430.46 355.419 431.34C353.659 432.18 351.839 432.6 349.959 432.6ZM352.179 428.1C353.459 428.1 354.779 427.76 356.139 427.08C357.539 426.4 358.959 425.38 360.399 424.02L359.619 425.94V403.56L360.399 405C358.159 404.32 356.119 403.98 354.279 403.98C350.999 403.98 348.519 405.06 346.839 407.22C345.199 409.34 344.379 412.3 344.379 416.1C344.379 418.58 344.699 420.72 345.339 422.52C346.019 424.32 346.939 425.7 348.099 426.66C349.299 427.62 350.659 428.1 352.179 428.1ZM383.899 428.34L383.359 427.62L388.399 428.82V432H373.459V428.82L378.499 427.62L377.899 428.34V404.16L378.439 404.7L373.459 403.56V400.38L383.899 400.02V428.34ZM380.599 394.14C379.519 394.14 378.619 393.8 377.899 393.12C377.219 392.44 376.879 391.48 376.879 390.24C376.879 388.96 377.239 388 377.959 387.36C378.679 386.68 379.579 386.34 380.659 386.34C381.779 386.34 382.679 386.68 383.359 387.36C384.079 388 384.439 388.96 384.439 390.24C384.439 391.52 384.059 392.5 383.299 393.18C382.579 393.82 381.679 394.14 380.599 394.14ZM391.741 432V428.82L397.021 427.56L396.181 428.58V403.74L397.021 404.82L391.741 403.56V400.38L400.861 399.96L401.641 405.78L400.861 405.48C402.821 403.48 404.881 402 407.041 401.04C409.241 400.08 411.321 399.6 413.281 399.6C415.961 399.6 418.181 400.42 419.941 402.06C421.701 403.7 422.561 406.24 422.521 409.68V428.58L421.861 427.62L426.961 428.82V432H412.321V428.82L417.301 427.62L416.521 428.64V410.94C416.521 408.62 416.001 406.92 414.961 405.84C413.921 404.76 412.541 404.22 410.821 404.22C409.461 404.22 407.981 404.6 406.381 405.36C404.821 406.08 403.281 407.2 401.761 408.72L402.181 407.64V428.64L401.521 427.68L406.381 428.82V432H391.741ZM443.564 446.4C438.804 446.4 435.244 445.72 432.884 444.36C430.524 443.04 429.344 441.1 429.344 438.54C429.344 436.66 429.964 435.02 431.204 433.62C432.484 432.26 434.344 431.08 436.784 430.08V431.28C435.424 431.2 434.344 430.9 433.544 430.38C432.784 429.82 432.404 429.06 432.404 428.1C432.404 427.78 432.444 427.46 432.524 427.14C432.644 426.78 432.824 426.3 433.064 425.7C433.344 425.1 433.724 424.32 434.204 423.36C434.684 422.4 435.304 421.16 436.064 419.64L436.184 420.66C434.384 419.74 433.004 418.48 432.044 416.88C431.084 415.24 430.604 413.32 430.604 411.12C430.604 407.56 431.784 404.76 434.144 402.72C436.544 400.64 439.844 399.6 444.044 399.6C446.924 399.6 449.404 400.1 451.484 401.1L449.984 400.8L459.584 400.38L459.644 403.92L454.364 404.94L454.784 404.1C455.544 404.86 456.124 405.8 456.524 406.92C456.924 408 457.124 409.24 457.124 410.64C457.124 414.24 455.904 417.08 453.464 419.16C451.024 421.2 447.784 422.22 443.744 422.22C441.544 422.22 439.484 421.88 437.564 421.2L438.944 420.54L437.564 427.92L436.304 427.32H448.124C452.044 427.32 455.004 428.08 457.004 429.6C459.044 431.12 460.064 433.3 460.064 436.14C460.064 439.46 458.684 442 455.924 443.76C453.164 445.52 449.044 446.4 443.564 446.4ZM444.104 441.9C447.624 441.9 450.204 441.46 451.844 440.58C453.484 439.7 454.304 438.38 454.304 436.62C454.304 435.06 453.704 433.88 452.504 433.08C451.304 432.28 449.524 431.88 447.164 431.88H437.324L438.884 431.52C436.044 433.32 434.624 435.26 434.624 437.34C434.624 438.86 435.384 440 436.904 440.76C438.464 441.52 440.864 441.9 444.104 441.9ZM443.684 418.08C446.044 418.08 447.864 417.46 449.144 416.22C450.464 414.94 451.124 413.12 451.124 410.76C451.124 408.4 450.504 406.64 449.264 405.48C448.064 404.32 446.304 403.74 443.984 403.74C441.624 403.74 439.804 404.36 438.524 405.6C437.284 406.8 436.664 408.58 436.664 410.94C436.664 413.26 437.264 415.04 438.464 416.28C439.664 417.48 441.404 418.08 443.684 418.08ZM475.713 432V426.78C480.393 422.66 484.253 419.1 487.293 416.1C490.373 413.06 492.653 410.34 494.133 407.94C495.653 405.54 496.413 403.24 496.413 401.04C496.413 398.64 495.633 396.88 494.073 395.76C492.513 394.64 490.533 394.08 488.133 394.08C487.053 394.08 485.853 394.22 484.533 394.5C483.213 394.74 481.853 395.08 480.453 395.52L481.232 394.38L480.273 401.52H476.553L475.953 391.68C478.313 390.96 480.613 390.4 482.853 390C485.093 389.6 487.173 389.4 489.093 389.4C491.773 389.4 494.133 389.78 496.173 390.54C498.253 391.26 499.893 392.42 501.093 394.02C502.293 395.62 502.893 397.68 502.893 400.2C502.893 403 502.113 405.78 500.553 408.54C499.033 411.26 496.773 414.18 493.773 417.3C490.813 420.38 487.173 423.9 482.853 427.86L482.793 427.08H503.853V432H475.713Z" fill="var(--color-illustrationPalette030)"></path>
<line x1="223" y1="719" x2="1267" y2="719" stroke="#8BA6F6" stroke-width="2"></line>
<path d="M253.7 634.15V669H249.15V653.2H231.4V669H226.85V634.15H231.4V649.45H249.15V634.15H253.7ZM286.469 654.25C286.469 655.117 286.419 656.033 286.319 657H264.419C264.586 659.7 265.502 661.817 267.169 663.35C268.869 664.85 270.919 665.6 273.319 665.6C275.286 665.6 276.919 665.15 278.219 664.25C279.552 663.317 280.486 662.083 281.019 660.55H285.919C285.186 663.183 283.719 665.333 281.519 667C279.319 668.633 276.586 669.45 273.319 669.45C270.719 669.45 268.386 668.867 266.319 667.7C264.286 666.533 262.686 664.883 261.519 662.75C260.352 660.583 259.769 658.083 259.769 655.25C259.769 652.417 260.336 649.933 261.469 647.8C262.602 645.667 264.186 644.033 266.219 642.9C268.286 641.733 270.652 641.15 273.319 641.15C275.919 641.15 278.219 641.717 280.219 642.85C282.219 643.983 283.752 645.55 284.819 647.55C285.919 649.517 286.469 651.75 286.469 654.25ZM281.769 653.3C281.769 651.567 281.386 650.083 280.619 648.85C279.852 647.583 278.802 646.633 277.469 646C276.169 645.333 274.719 645 273.119 645C270.819 645 268.852 645.733 267.219 647.2C265.619 648.667 264.702 650.7 264.469 653.3H281.769ZM290.775 655.2C290.775 652.4 291.342 649.95 292.475 647.85C293.608 645.717 295.158 644.067 297.125 642.9C299.125 641.733 301.342 641.15 303.775 641.15C306.175 641.15 308.258 641.667 310.025 642.7C311.792 643.733 313.108 645.033 313.975 646.6V641.6H318.575V669H313.975V663.9C313.075 665.5 311.725 666.833 309.925 667.9C308.158 668.933 306.092 669.45 303.725 669.45C301.292 669.45 299.092 668.85 297.125 667.65C295.158 666.45 293.608 664.767 292.475 662.6C291.342 660.433 290.775 657.967 290.775 655.2ZM313.975 655.25C313.975 653.183 313.558 651.383 312.725 649.85C311.892 648.317 310.758 647.15 309.325 646.35C307.925 645.517 306.375 645.1 304.675 645.1C302.975 645.1 301.425 645.5 300.025 646.3C298.625 647.1 297.508 648.267 296.675 649.8C295.842 651.333 295.425 653.133 295.425 655.2C295.425 657.3 295.842 659.133 296.675 660.7C297.508 662.233 298.625 663.417 300.025 664.25C301.425 665.05 302.975 665.45 304.675 665.45C306.375 665.45 307.925 665.05 309.325 664.25C310.758 663.417 311.892 662.233 312.725 660.7C313.558 659.133 313.975 657.317 313.975 655.25ZM324.564 655.2C324.564 652.4 325.131 649.95 326.264 647.85C327.397 645.717 328.947 644.067 330.914 642.9C332.914 641.733 335.147 641.15 337.614 641.15C339.747 641.15 341.731 641.65 343.564 642.65C345.397 643.617 346.797 644.9 347.764 646.5V632H352.364V669H347.764V663.85C346.864 665.483 345.531 666.833 343.764 667.9C341.997 668.933 339.931 669.45 337.564 669.45C335.131 669.45 332.914 668.85 330.914 667.65C328.947 666.45 327.397 664.767 326.264 662.6C325.131 660.433 324.564 657.967 324.564 655.2ZM347.764 655.25C347.764 653.183 347.347 651.383 346.514 649.85C345.681 648.317 344.547 647.15 343.114 646.35C341.714 645.517 340.164 645.1 338.464 645.1C336.764 645.1 335.214 645.5 333.814 646.3C332.414 647.1 331.297 648.267 330.464 649.8C329.631 651.333 329.214 653.133 329.214 655.2C329.214 657.3 329.631 659.133 330.464 660.7C331.297 662.233 332.414 663.417 333.814 664.25C335.214 665.05 336.764 665.45 338.464 665.45C340.164 665.45 341.714 665.05 343.114 664.25C344.547 663.417 345.681 662.233 346.514 660.7C347.347 659.133 347.764 657.317 347.764 655.25ZM362.403 637.15C361.536 637.15 360.803 636.85 360.203 636.25C359.603 635.65 359.303 634.917 359.303 634.05C359.303 633.183 359.603 632.45 360.203 631.85C360.803 631.25 361.536 630.95 362.403 630.95C363.236 630.95 363.936 631.25 364.503 631.85C365.103 632.45 365.403 633.183 365.403 634.05C365.403 634.917 365.103 635.65 364.503 636.25C363.936 636.85 363.236 637.15 362.403 637.15ZM364.603 641.6V669H360.053V641.6H364.603ZM385.708 641.1C389.041 641.1 391.741 642.117 393.808 644.15C395.874 646.15 396.908 649.05 396.908 652.85V669H392.408V653.5C392.408 650.767 391.724 648.683 390.358 647.25C388.991 645.783 387.124 645.05 384.758 645.05C382.358 645.05 380.441 645.8 379.008 647.3C377.608 648.8 376.908 650.983 376.908 653.85V669H372.358V641.6H376.908V645.5C377.808 644.1 379.024 643.017 380.558 642.25C382.124 641.483 383.841 641.1 385.708 641.1ZM415.64 641.15C418.007 641.15 420.074 641.667 421.84 642.7C423.64 643.733 424.974 645.033 425.84 646.6V641.6H430.44V669.6C430.44 672.1 429.907 674.317 428.84 676.25C427.774 678.217 426.24 679.75 424.24 680.85C422.274 681.95 419.974 682.5 417.34 682.5C413.74 682.5 410.74 681.65 408.34 679.95C405.94 678.25 404.524 675.933 404.09 673H408.59C409.09 674.667 410.124 676 411.69 677C413.257 678.033 415.14 678.55 417.34 678.55C419.84 678.55 421.874 677.767 423.44 676.2C425.04 674.633 425.84 672.433 425.84 669.6V663.85C424.94 665.45 423.607 666.783 421.84 667.85C420.074 668.917 418.007 669.45 415.64 669.45C413.207 669.45 410.99 668.85 408.99 667.65C407.024 666.45 405.474 664.767 404.34 662.6C403.207 660.433 402.64 657.967 402.64 655.2C402.64 652.4 403.207 649.95 404.34 647.85C405.474 645.717 407.024 644.067 408.99 642.9C410.99 641.733 413.207 641.15 415.64 641.15ZM425.84 655.25C425.84 653.183 425.424 651.383 424.59 649.85C423.757 648.317 422.624 647.15 421.19 646.35C419.79 645.517 418.24 645.1 416.54 645.1C414.84 645.1 413.29 645.5 411.89 646.3C410.49 647.1 409.374 648.267 408.54 649.8C407.707 651.333 407.29 653.133 407.29 655.2C407.29 657.3 407.707 659.133 408.54 660.7C409.374 662.233 410.49 663.417 411.89 664.25C413.29 665.05 414.84 665.45 416.54 665.45C418.24 665.45 419.79 665.05 421.19 664.25C422.624 663.417 423.757 662.233 424.59 660.7C425.424 659.133 425.84 657.317 425.84 655.25ZM450.609 641.95C450.843 638.883 452.026 636.483 454.159 634.75C456.293 633.017 459.059 632.15 462.459 632.15C464.726 632.15 466.676 632.567 468.309 633.4C469.976 634.2 471.226 635.3 472.059 636.7C472.926 638.1 473.359 639.683 473.359 641.45C473.359 643.517 472.759 645.3 471.559 646.8C470.393 648.3 468.859 649.267 466.959 649.7V649.95C469.126 650.483 470.843 651.533 472.109 653.1C473.376 654.667 474.009 656.717 474.009 659.25C474.009 661.15 473.576 662.867 472.709 664.4C471.843 665.9 470.543 667.083 468.809 667.95C467.076 668.817 464.993 669.25 462.559 669.25C459.026 669.25 456.126 668.333 453.859 666.5C451.593 664.633 450.326 662 450.059 658.6H454.459C454.693 660.6 455.509 662.233 456.909 663.5C458.309 664.767 460.176 665.4 462.509 665.4C464.843 665.4 466.609 664.8 467.809 663.6C469.043 662.367 469.659 660.783 469.659 658.85C469.659 656.35 468.826 654.55 467.159 653.45C465.493 652.35 462.976 651.8 459.609 651.8H458.459V648H459.659C462.726 647.967 465.043 647.467 466.609 646.5C468.176 645.5 468.959 643.967 468.959 641.9C468.959 640.133 468.376 638.717 467.209 637.65C466.076 636.583 464.443 636.05 462.309 636.05C460.243 636.05 458.576 636.583 457.309 637.65C456.043 638.717 455.293 640.15 455.059 641.95H450.609Z" fill="var(--color-illustrationPalette030)"></path>
</g>
<defs>
<clipPath id="clip0_3097_169129">
<rect width="1490" height="838" fill="white"></rect>
</clipPath>
</defs>
</svg>
