<svg id="nksvg" width="1490" height="838" viewBox="0 0 1490 838" fill="none" xmlns="http://www.w3.org/2000/svg">
<g clip-path="url(#clip0_3290_104266)">
<path d="M0 0H1490V838H0V0Z" fill="var(--color-illustrationBackground020)"></path>
<path d="M356.067 410.112C351.104 410.112 347.044 414.172 347.044 419.135C347.044 424.097 351.104 428.157 356.067 428.157C361.029 428.157 365.089 424.097 365.089 419.135C365.089 414.172 361.029 410.112 356.067 410.112Z" fill="var(--color-illustrationPalette020)"></path>
<path d="M410.2 410.112C405.238 410.112 401.178 414.172 401.178 419.135C401.178 424.097 405.238 428.157 410.2 428.157C415.162 428.157 419.222 424.097 419.222 419.135C419.222 414.172 415.162 410.112 410.2 410.112Z" fill="var(--color-illustrationPalette020)"></path>
<path d="M383.133 410.112C378.171 410.112 374.111 414.172 374.111 419.135C374.111 424.097 378.171 428.157 383.133 428.157C388.096 428.157 392.156 424.097 392.156 419.135C392.156 414.172 388.096 410.112 383.133 410.112Z" fill="var(--color-illustrationPalette020)"></path>
<path d="M1081.07 410.112C1076.1 410.112 1072.04 414.172 1072.04 419.135C1072.04 424.097 1076.1 428.157 1081.07 428.157C1086.03 428.157 1090.09 424.097 1090.09 419.135C1090.09 414.172 1086.03 410.112 1081.07 410.112Z" fill="var(--color-illustrationPalette020)"></path>
<path d="M1135.2 410.112C1130.24 410.112 1126.18 414.172 1126.18 419.135C1126.18 424.097 1130.24 428.157 1135.2 428.157C1140.16 428.157 1144.22 424.097 1144.22 419.135C1144.22 414.172 1140.16 410.112 1135.2 410.112Z" fill="var(--color-illustrationPalette020)"></path>
<path d="M1108.13 410.112C1103.17 410.112 1099.11 414.172 1099.11 419.135C1099.11 424.097 1103.17 428.157 1108.13 428.157C1113.1 428.157 1117.16 424.097 1117.16 419.135C1117.16 414.172 1113.1 410.112 1108.13 410.112Z" fill="var(--color-illustrationPalette020)"></path>
<path d="M233.43 378.07L221.36 366L170 417.36L221.36 468.721L233.43 456.651L194.225 417.36L233.43 378.07Z" fill="var(--color-illustrationPalette020)"></path>
<path d="M586.506 392.68C585.612 388.939 583.985 386.133 581.626 384.262C579.268 382.392 575.974 381.456 571.744 381.456C565.319 381.456 560.52 383.937 557.348 388.898C554.176 393.778 552.509 401.912 552.346 413.298C554.461 409.72 557.552 406.954 561.618 405.002C565.685 403.05 570.077 402.074 574.794 402.074C580.162 402.074 584.88 403.254 588.946 405.612C593.094 407.89 596.307 411.224 598.584 415.616C600.943 420.008 602.122 425.254 602.122 431.354C602.122 437.048 600.984 442.131 598.706 446.604C596.51 451.078 593.216 454.616 588.824 457.218C584.432 459.74 579.146 461 572.964 461C564.587 461 557.999 459.17 553.2 455.51C548.483 451.769 545.148 446.523 543.196 439.772C541.326 433.022 540.39 424.604 540.39 414.518C540.39 384.75 550.882 369.866 571.866 369.866C580 369.866 586.384 372.062 591.02 376.454C595.738 380.846 598.503 386.255 599.316 392.68H586.506ZM571.744 413.786C566.783 413.786 562.554 415.291 559.056 418.3C555.64 421.228 553.932 425.498 553.932 431.11C553.932 436.722 555.518 441.196 558.69 444.53C561.944 447.784 566.458 449.41 572.232 449.41C577.356 449.41 581.382 447.824 584.31 444.652C587.32 441.48 588.824 437.251 588.824 431.964C588.824 426.434 587.36 422.042 584.432 418.788C581.586 415.454 577.356 413.786 571.744 413.786Z" fill="var(--color-illustrationHighlight010)"></path>
<path d="M770.05 382.798L736.134 461H722.104L756.386 384.262H711.246V372.428H770.05V382.798Z" fill="var(--color-illustrationHighlight010)"></path>
<path d="M897.427 414.518C888.968 410.288 884.739 403.619 884.739 394.51C884.739 390.118 885.837 386.092 888.033 382.432C890.229 378.772 893.523 375.884 897.915 373.77C902.307 371.574 907.675 370.476 914.019 370.476C920.281 370.476 925.609 371.574 930.001 373.77C934.474 375.884 937.809 378.772 940.005 382.432C942.201 386.092 943.299 390.118 943.299 394.51C943.299 399.064 942.119 403.09 939.761 406.588C937.483 410.004 934.433 412.647 930.611 414.518C935.247 416.226 938.907 419.032 941.591 422.936C944.275 426.758 945.617 431.272 945.617 436.478C945.617 441.764 944.275 446.441 941.591 450.508C938.907 454.574 935.165 457.706 930.367 459.902C925.568 462.098 920.119 463.196 914.019 463.196C907.919 463.196 902.469 462.098 897.671 459.902C892.953 457.706 889.253 454.574 886.569 450.508C883.885 446.441 882.543 441.764 882.543 436.478C882.543 431.191 883.885 426.636 886.569 422.814C889.253 418.991 892.872 416.226 897.427 414.518ZM930.001 396.218C930.001 391.663 928.577 388.166 925.731 385.726C922.884 383.286 918.98 382.066 914.019 382.066C909.139 382.066 905.275 383.286 902.429 385.726C899.582 388.166 898.159 391.704 898.159 396.34C898.159 400.406 899.623 403.741 902.551 406.344C905.56 408.865 909.383 410.126 914.019 410.126C918.655 410.126 922.477 408.824 925.487 406.222C928.496 403.619 930.001 400.284 930.001 396.218ZM914.019 420.618C908.651 420.618 904.259 421.96 900.843 424.644C897.508 427.246 895.841 431.028 895.841 435.99C895.841 440.626 897.467 444.408 900.721 447.336C903.974 450.182 908.407 451.606 914.019 451.606C919.549 451.606 923.901 450.142 927.073 447.214C930.326 444.286 931.953 440.544 931.953 435.99C931.953 431.11 930.285 427.328 926.951 424.644C923.697 421.96 919.387 420.618 914.019 420.618Z" fill="var(--color-illustrationHighlight010)"></path>
<path d="M1257 457.93L1269.07 470L1320.43 418.64L1269.07 367.279L1257 379.349L1296.21 418.64L1257 457.93Z" fill="var(--color-illustrationPalette020)"></path>
<path d="M475 335V293C475 288.582 478.582 285 483 285H1000C1004.42 285 1008 288.582 1008 293V335" stroke="#577FFB" stroke-width="4"></path>
</g>
<defs>
<clipPath id="clip0_3290_104266">
<rect width="1490" height="838" fill="white"></rect>
</clipPath>
</defs>
</svg>
