<svg id="components-block-anatomy" style="width: 100%; height: 100%" width="1600" height="901" viewBox="0 0 1600 901" fill="none" xmlns="http://www.w3.org/2000/svg" class="css-0"><g clip-path="url(#nk-249)"><rect style="fill:var(--color-illustrationBackground020)" y="0.902344" width="1600" height="900" rx="8"></rect><path style="fill:var(--color-illustrationInterface020)" d="M499 191.902C499 187.484 502.582 183.902 507 183.902H1180C1184.42 183.902 1188 187.484 1188 191.902V708.862C1188 713.281 1184.42 716.862 1180 716.862H507C502.582 716.862 499 713.281 499 708.862V191.902Z"></path><path style="fill:var(--color-illustrationAnatomyBorder020)" fill-rule="evenodd" clip-rule="evenodd" d="M498 191.902C498 186.932 502.029 182.902 507 182.902H1179.5C1184.47 182.902 1188.5 186.932 1188.5 191.902V708.862C1188.5 713.833 1184.47 717.862 1179.5 717.862H507C502.029 717.862 498 713.833 498 708.862V191.902ZM507 184.902C503.134 184.902 500 188.036 500 191.902V708.862C500 712.728 503.134 715.862 507 715.862H1179.5C1183.37 715.862 1186.5 712.728 1186.5 708.862V191.902C1186.5 188.036 1183.37 184.902 1179.5 184.902H507Z"></path><rect style="fill:var(--color-illustrationAnatomyBorder020)" x="314" y="441.396" width="31.9046" height="31.9046" rx="15.9523"></rect><path style="fill:var(--color-white)" d="M328.133 454.642V452.553H331.772V462.143H329.433V454.642H328.133Z"></path><path style="fill:var(--color-illustrationAnatomyBorder020)" d="M345.905 456.41H431.607V458.286H345.905V456.41Z"></path><path style="fill:var(--color-illustrationAnatomyBorder020)" fill-rule="evenodd" clip-rule="evenodd" d="M432.175 691.642C432.175 701.489 440.158 709.471 450.004 709.471L475.36 709.471C475.878 709.471 476.299 709.891 476.299 710.409C476.299 710.928 475.878 711.348 475.36 711.348L450.004 711.348C439.121 711.348 430.299 702.525 430.299 691.642L430.299 204.053C430.299 193.17 439.121 184.348 450.004 184.348L475.36 184.348C475.878 184.348 476.299 184.768 476.299 185.286C476.299 185.804 475.878 186.224 475.36 186.224L450.004 186.224C440.158 186.224 432.175 194.207 432.175 204.053L432.175 691.642Z"></path></g><defs><clipPath id="nk-249"><path style="fill:var(--color-white)" d="M0 8.90235C0 4.48408 3.58172 0.902344 8 0.902344H1592C1596.42 0.902344 1600 4.48407 1600 8.90234V892.902C1600 897.321 1596.42 900.902 1592 900.902H7.99999C3.58171 900.902 0 897.321 0 892.902V8.90235Z"></path></clipPath></defs></svg>