<svg id="nksvg" width="1490" height="838" viewBox="0 0 1490 838" fill="none" xmlns="http://www.w3.org/2000/svg">
<rect width="1490" height="838" fill="var(--color-illustrationBackground010)"/>
<path d="M315.004 381.419V416H306.581V401.764H293.478V416H285.054V381.419H293.478V394.966H306.581V381.419H315.004ZM346.996 401.813C346.996 402.601 346.947 403.422 346.848 404.276H327.785C327.916 405.984 328.458 407.297 329.41 408.217C330.395 409.104 331.594 409.547 333.006 409.547C335.108 409.547 336.569 408.66 337.39 406.887H346.356C345.896 408.693 345.058 410.319 343.843 411.764C342.661 413.209 341.167 414.342 339.361 415.163C337.554 415.984 335.535 416.394 333.302 416.394C330.609 416.394 328.211 415.819 326.11 414.67C324.008 413.521 322.366 411.879 321.184 409.744C320.001 407.609 319.41 405.114 319.41 402.256C319.41 399.399 319.985 396.904 321.134 394.769C322.317 392.634 323.959 390.992 326.06 389.843C328.162 388.694 330.576 388.119 333.302 388.119C335.962 388.119 338.326 388.677 340.395 389.794C342.464 390.91 344.073 392.503 345.223 394.572C346.405 396.641 346.996 399.055 346.996 401.813ZM338.375 399.596C338.375 398.151 337.883 397.002 336.898 396.148C335.912 395.294 334.681 394.867 333.203 394.867C331.791 394.867 330.592 395.278 329.607 396.099C328.655 396.92 328.064 398.086 327.834 399.596H338.375ZM349.765 402.207C349.765 399.383 350.29 396.904 351.341 394.769C352.425 392.634 353.886 390.992 355.725 389.843C357.564 388.694 359.617 388.119 361.883 388.119C363.82 388.119 365.512 388.513 366.957 389.301C368.434 390.089 369.567 391.124 370.356 392.404V388.513H378.779V416H370.356V412.108C369.535 413.389 368.385 414.424 366.907 415.212C365.462 416 363.771 416.394 361.834 416.394C359.6 416.394 357.564 415.819 355.725 414.67C353.886 413.488 352.425 411.829 351.341 409.695C350.29 407.527 349.765 405.031 349.765 402.207ZM370.356 402.256C370.356 400.155 369.764 398.496 368.582 397.281C367.433 396.066 366.021 395.459 364.346 395.459C362.671 395.459 361.242 396.066 360.06 397.281C358.911 398.463 358.336 400.105 358.336 402.207C358.336 404.309 358.911 405.984 360.06 407.232C361.242 408.447 362.671 409.054 364.346 409.054C366.021 409.054 367.433 408.447 368.582 407.232C369.764 406.017 370.356 404.358 370.356 402.256ZM383.198 402.207C383.198 399.383 383.724 396.904 384.775 394.769C385.858 392.634 387.32 390.992 389.159 389.843C390.998 388.694 393.05 388.119 395.316 388.119C397.122 388.119 398.764 388.496 400.242 389.252C401.753 390.007 402.935 391.025 403.789 392.306V379.548H412.212V416H403.789V412.059C403.001 413.373 401.868 414.424 400.39 415.212C398.945 416 397.254 416.394 395.316 416.394C393.05 416.394 390.998 415.819 389.159 414.67C387.32 413.488 385.858 411.829 384.775 409.695C383.724 407.527 383.198 405.031 383.198 402.207ZM403.789 402.256C403.789 400.155 403.198 398.496 402.016 397.281C400.866 396.066 399.454 395.459 397.779 395.459C396.104 395.459 394.676 396.066 393.494 397.281C392.344 398.463 391.769 400.105 391.769 402.207C391.769 404.309 392.344 405.984 393.494 407.232C394.676 408.447 396.104 409.054 397.779 409.054C399.454 409.054 400.866 408.447 402.016 407.232C403.198 406.017 403.789 404.358 403.789 402.256ZM422.543 385.656C421.065 385.656 419.85 385.229 418.898 384.375C417.978 383.488 417.518 382.405 417.518 381.124C417.518 379.81 417.978 378.727 418.898 377.873C419.85 376.986 421.065 376.543 422.543 376.543C423.988 376.543 425.17 376.986 426.09 377.873C427.042 378.727 427.518 379.81 427.518 381.124C427.518 382.405 427.042 383.488 426.09 384.375C425.17 385.229 423.988 385.656 422.543 385.656ZM426.73 388.513V416H418.306V388.513H426.73ZM449.583 388.217C452.801 388.217 455.363 389.268 457.267 391.37C459.205 393.439 460.174 396.296 460.174 399.941V416H451.799V401.074C451.799 399.235 451.323 397.807 450.371 396.789C449.419 395.771 448.138 395.262 446.529 395.262C444.919 395.262 443.639 395.771 442.686 396.789C441.734 397.807 441.258 399.235 441.258 401.074V416H432.834V388.513H441.258V392.158C442.112 390.943 443.261 389.991 444.706 389.301C446.151 388.579 447.777 388.217 449.583 388.217ZM476.47 388.119C478.408 388.119 480.099 388.513 481.544 389.301C483.022 390.089 484.155 391.124 484.943 392.404V388.513H493.366V415.951C493.366 418.479 492.857 420.762 491.839 422.798C490.854 424.867 489.327 426.509 487.258 427.724C485.222 428.939 482.677 429.547 479.623 429.547C475.551 429.547 472.25 428.578 469.722 426.64C467.193 424.735 465.748 422.141 465.387 418.857H473.712C473.974 419.908 474.598 420.729 475.584 421.32C476.569 421.944 477.784 422.256 479.229 422.256C480.969 422.256 482.349 421.747 483.367 420.729C484.418 419.744 484.943 418.151 484.943 415.951V412.059C484.122 413.34 482.989 414.391 481.544 415.212C480.099 416 478.408 416.394 476.47 416.394C474.204 416.394 472.152 415.819 470.313 414.67C468.474 413.488 467.012 411.829 465.929 409.695C464.878 407.527 464.352 405.031 464.352 402.207C464.352 399.383 464.878 396.904 465.929 394.769C467.012 392.634 468.474 390.992 470.313 389.843C472.152 388.694 474.204 388.119 476.47 388.119ZM484.943 402.256C484.943 400.155 484.352 398.496 483.17 397.281C482.02 396.066 480.608 395.459 478.933 395.459C477.258 395.459 475.83 396.066 474.648 397.281C473.498 398.463 472.924 400.105 472.924 402.207C472.924 404.309 473.498 405.984 474.648 407.232C475.83 408.447 477.258 409.054 478.933 409.054C480.608 409.054 482.02 408.447 483.17 407.232C484.352 406.017 484.943 404.358 484.943 402.256Z" fill="var(--color-illustrationAnatomySubtle)"/>
<path d="M1203.99 410.351H1209.47V413H1200.65V396.345H1203.99V410.351ZM1213.29 398.206C1212.7 398.206 1212.21 398.023 1211.81 397.657C1211.43 397.276 1211.24 396.806 1211.24 396.25C1211.24 395.693 1211.43 395.232 1211.81 394.866C1212.21 394.484 1212.7 394.293 1213.29 394.293C1213.88 394.293 1214.37 394.484 1214.75 394.866C1215.15 395.232 1215.34 395.693 1215.34 396.25C1215.34 396.806 1215.15 397.276 1214.75 397.657C1214.37 398.023 1213.88 398.206 1213.29 398.206ZM1214.94 399.781V413H1211.6V399.781H1214.94ZM1225.56 399.59C1227.14 399.59 1228.41 400.091 1229.38 401.093C1230.35 402.08 1230.84 403.464 1230.84 405.245V413H1227.5V405.699C1227.5 404.649 1227.23 403.845 1226.71 403.289C1226.18 402.716 1225.47 402.43 1224.56 402.43C1223.64 402.43 1222.91 402.716 1222.37 403.289C1221.84 403.845 1221.58 404.649 1221.58 405.699V413H1218.24V399.781H1221.58V401.427C1222.03 400.855 1222.59 400.409 1223.27 400.091C1223.97 399.757 1224.74 399.59 1225.56 399.59ZM1241.84 413L1237.35 407.369V413H1234.01V395.343H1237.35V405.388L1241.79 399.781H1246.14L1240.31 406.414L1246.18 413H1241.84Z" fill="var(--color-illustrationAnatomySubtle)"/>
<path d="M1257.75 411.702L1264.02 405.421L1257.75 399.14L1259.68 397.21L1267.89 405.421L1259.68 413.632L1257.75 411.702Z" fill="var(--color-illustrationAnatomySubtle)"/>
<line x1="261" y1="454" x2="1311" y2="454" stroke="#AEBFFF" stroke-width="2"/>
<path d="M395 351C395 354.314 392.314 357 389 357C385.686 357 383 354.314 383 351C383 347.686 385.686 345 389 345C392.314 345 395 347.686 395 351Z" fill="var(--color-illustrationPalette040)"/>
<path fill-rule="evenodd" clip-rule="evenodd" d="M390 265L390 349L388 349L388 265L390 265Z" fill="var(--color-illustrationPalette040)"/>
<rect x="407" y="230" width="36" height="36" rx="18" transform="rotate(90 407 230)" fill="var(--color-illustrationPalette040)"/>
<path d="M386.097 243V240.42H390.917V255H388.037V243H386.097Z" fill="var(--color-illustrationInterface010)"/>
<path d="M1233 351C1233 354.314 1230.31 357 1227 357C1223.69 357 1221 354.314 1221 351C1221 347.686 1223.69 345 1227 345C1230.31 345 1233 347.686 1233 351Z" fill="var(--color-illustrationPalette040)"/>
<path fill-rule="evenodd" clip-rule="evenodd" d="M1228 265L1228 349L1226 349L1226 265L1228 265Z" fill="var(--color-illustrationPalette040)"/>
<rect x="1245" y="230" width="36" height="36" rx="18" transform="rotate(90 1245 230)" fill="var(--color-illustrationPalette040)"/>
<path d="M1222.11 244.26C1222.18 242.927 1222.65 241.9 1223.51 241.18C1224.39 240.447 1225.55 240.08 1226.97 240.08C1227.95 240.08 1228.78 240.253 1229.47 240.6C1230.17 240.933 1230.69 241.393 1231.03 241.98C1231.39 242.553 1231.57 243.207 1231.57 243.94C1231.57 244.78 1231.35 245.493 1230.91 246.08C1230.49 246.653 1229.97 247.04 1229.37 247.24V247.32C1230.15 247.56 1230.75 247.987 1231.17 248.6C1231.61 249.213 1231.83 250 1231.83 250.96C1231.83 251.76 1231.65 252.473 1231.27 253.1C1230.91 253.727 1230.37 254.22 1229.65 254.58C1228.95 254.927 1228.09 255.1 1227.09 255.1C1225.59 255.1 1224.36 254.72 1223.41 253.96C1222.47 253.2 1221.97 252.08 1221.91 250.6H1224.63C1224.66 251.253 1224.88 251.78 1225.29 252.18C1225.72 252.567 1226.3 252.76 1227.03 252.76C1227.71 252.76 1228.23 252.573 1228.59 252.2C1228.97 251.813 1229.15 251.32 1229.15 250.72C1229.15 249.92 1228.9 249.347 1228.39 249C1227.89 248.653 1227.1 248.48 1226.03 248.48H1225.45V246.18H1226.03C1227.93 246.18 1228.87 245.547 1228.87 244.28C1228.87 243.707 1228.7 243.26 1228.35 242.94C1228.02 242.62 1227.53 242.46 1226.89 242.46C1226.27 242.46 1225.78 242.633 1225.43 242.98C1225.1 243.313 1224.91 243.74 1224.85 244.26H1222.11Z" fill="var(--color-illustrationInterface010)"/>
<path fill-rule="evenodd" clip-rule="evenodd" d="M190 404L244 404L244 406L190 406L190 404Z" fill="var(--color-illustrationPalette040)"/>
<path fill-rule="evenodd" clip-rule="evenodd" d="M244 356L244 453H242L242 356H244Z" fill="var(--color-illustrationPalette040)"/>
<path fill-rule="evenodd" clip-rule="evenodd" d="M242 354L251 354L251 356L242 356L242 354Z" fill="var(--color-illustrationPalette040)"/>
<path fill-rule="evenodd" clip-rule="evenodd" d="M242 453L251 453L251 455L242 455L242 453Z" fill="var(--color-illustrationPalette040)"/>
<rect x="157" y="422" width="36" height="36" rx="18" transform="rotate(-90 157 422)" fill="var(--color-illustrationPalette040)"/>
<path d="M171.198 407.84C172.478 406.773 173.498 405.887 174.258 405.18C175.018 404.46 175.651 403.713 176.158 402.94C176.664 402.167 176.918 401.407 176.918 400.66C176.918 399.98 176.758 399.447 176.438 399.06C176.118 398.673 175.624 398.48 174.958 398.48C174.291 398.48 173.778 398.707 173.418 399.16C173.058 399.6 172.871 400.207 172.858 400.98L170.138 400.98C170.191 399.38 170.664 398.167 171.558 397.34C172.464 396.513 173.611 396.1 174.998 396.1C176.518 396.1 177.684 396.507 178.498 397.32C179.311 398.12 179.718 399.18 179.718 400.5C179.718 401.54 179.438 402.533 178.878 403.48C178.318 404.427 177.678 405.253 176.958 405.96C176.238 406.653 175.298 407.493 174.138 408.48L180.038 408.48L180.038 410.8L170.158 410.8L170.158 408.72L171.198 407.84Z" fill="var(--color-illustrationInterface010)"/>
</svg>
