<svg id="components-link-usage-do-01" style="width: 100%; height: 100%" width="1490" height="838" viewBox="0 0 1490 838" fill="none" xmlns="http://www.w3.org/2000/svg" class="css-0"><g clip-path="url(#nk-782)"><path style="fill:var(--color-illustrationBackground010)" d="M0 0H1490V838H0V0Z"></path><path style="fill:var(--color-illustrationInterface010)" d="M149 148.783C149 131.23 163.23 117 180.783 117H1914.94C1932.49 117 1946.72 131.23 1946.72 148.783V1187.69C1946.72 1205.24 1932.49 1219.47 1914.94 1219.47H180.783C163.23 1219.47 149 1205.24 149 1187.69V148.783Z"></path><path style="fill:var(--color-illustrationInterface020)" d="M732.892 339.393C732.892 321.348 740.379 306.719 749.616 306.719H1769.75C1778.99 306.719 1786.48 321.348 1786.48 339.393V550.334C1786.48 568.38 1778.99 583.008 1769.75 583.008H749.616C740.379 583.008 732.892 568.38 732.892 550.334V339.393Z"></path><g filter="url(#nk-783)"><path style="fill:var(--color-illustrationInterface010)" d="M555 231.328C555 226.176 555.224 222 555.5 222H577.5C577.776 222 578 226.176 578 231.328V1210.67C578 1215.82 577.776 1220 577.5 1220H555.5C555.224 1220 555 1215.82 555 1210.67V231.328Z"></path></g><path style="fill:var(--color-illustrationInterface010)" d="M149 231.321C149 226.168 153.178 221.99 158.331 221.99H568.839C573.992 221.99 578.17 226.168 578.17 231.321V1210.99C578.17 1216.14 573.992 1220.32 568.839 1220.32H158.331C153.178 1220.32 149 1216.14 149 1210.99V231.321Z"></path><path style="fill:var(--color-illustrationHighlight010)" d="M191.365 290.143C191.365 286.074 194.663 282.775 198.732 282.775H405.029C409.098 282.775 412.396 286.074 412.396 290.143C412.396 294.212 409.098 297.511 405.029 297.511H198.732C194.663 297.511 191.365 294.212 191.365 290.143Z"></path><path style="fill:var(--color-illustrationHighlight010)" d="M499.542 276.602L503.046 273.098L516.937 286.989L530.829 273.098L534.333 276.602L520.441 290.493L534.333 304.385L530.829 307.889L516.937 293.997L503.046 307.889L499.542 304.385L513.433 290.493L499.542 276.602Z"></path><path style="fill:var(--color-illustrationInterface020)" d="M191.528 441.673C191.528 438.017 194.492 435.053 198.148 435.053H525.926C529.582 435.053 532.546 438.017 532.546 441.673C532.546 445.329 529.582 448.293 525.926 448.293H198.148C194.492 448.293 191.528 445.329 191.528 441.673Z"></path><path style="fill:var(--color-illustrationInterface020)" d="M191.528 669.704C191.528 666.048 194.492 663.084 198.148 663.084H525.926C529.582 663.084 532.546 666.048 532.546 669.704C532.546 673.36 529.582 676.324 525.926 676.324H198.148C194.492 676.324 191.528 673.36 191.528 669.704Z"></path><path style="fill:var(--color-illustrationInterface020)" d="M191.528 477.379C191.528 473.502 194.671 470.359 198.548 470.359H525.526C529.403 470.359 532.546 473.502 532.546 477.379V478.051C532.546 481.928 529.403 485.071 525.526 485.071H198.548C194.671 485.071 191.528 481.928 191.528 478.051V477.379Z"></path><path style="fill:var(--color-illustrationInterface020)" d="M191.528 514.159C191.528 510.282 194.671 507.139 198.548 507.139H525.526C529.403 507.139 532.546 510.282 532.546 514.159V514.83C532.546 518.707 529.403 521.85 525.526 521.85H198.548C194.671 521.85 191.528 518.707 191.528 514.83V514.159Z"></path><path style="fill:var(--color-illustrationInterface020)" d="M191.528 705.411C191.528 701.534 194.671 698.391 198.548 698.391H525.526C529.403 698.391 532.546 701.534 532.546 705.411V706.082C532.546 709.959 529.403 713.102 525.526 713.102H198.548C194.671 713.102 191.528 709.959 191.528 706.082V705.411Z"></path><path style="fill:var(--color-illustrationInterface020)" d="M191.528 405.293C191.528 401.416 194.671 398.273 198.548 398.273H525.526C529.403 398.273 532.546 401.416 532.546 405.293V405.965C532.546 409.842 529.403 412.985 525.526 412.985H198.548C194.671 412.985 191.528 409.842 191.528 405.965V405.293Z"></path><path style="fill:var(--color-illustrationInterface020)" d="M191.528 633.323C191.528 629.446 194.671 626.303 198.548 626.303H525.526C529.403 626.303 532.546 629.446 532.546 633.323V633.995C532.546 637.871 529.403 641.014 525.526 641.014H198.548C194.671 641.014 191.528 637.871 191.528 633.995V633.323Z"></path><path style="fill:var(--color-illustrationInterface030)" d="M191.528 369.585C191.528 365.929 194.492 362.965 198.148 362.965H357.083C360.739 362.965 363.703 365.929 363.703 369.585C363.703 373.241 360.739 376.205 357.083 376.205H198.148C194.492 376.205 191.528 373.241 191.528 369.585Z"></path><path style="fill:var(--color-illustrationInterface030)" d="M191.528 599.087C191.528 595.431 194.492 592.467 198.148 592.467H357.083C360.739 592.467 363.703 595.431 363.703 599.087C363.703 602.743 360.739 605.707 357.083 605.707H198.148C194.492 605.707 191.528 602.743 191.528 599.087Z"></path><path style="fill:var(--color-inkSubtle)" d="M766.471 645.483V647.909H756.539V655.612H764.603V658.037H756.539V668.33H753.556V645.483H766.471ZM777.908 668.625C776.226 668.625 774.696 668.243 773.319 667.478C771.964 666.713 770.893 665.631 770.107 664.233C769.342 662.812 768.96 661.173 768.96 659.316C768.96 657.48 769.353 655.863 770.14 654.465C770.948 653.044 772.041 651.962 773.417 651.219C774.794 650.455 776.335 650.072 778.039 650.072C779.744 650.072 781.284 650.455 782.661 651.219C784.038 651.962 785.12 653.033 785.906 654.432C786.715 655.83 787.119 657.458 787.119 659.316C787.119 661.173 786.704 662.812 785.874 664.233C785.065 665.631 783.961 666.713 782.563 667.478C781.164 668.243 779.613 668.625 777.908 668.625ZM777.908 666.003C778.979 666.003 779.984 665.751 780.924 665.249C781.864 664.746 782.617 663.992 783.186 662.987C783.776 661.982 784.071 660.758 784.071 659.316C784.071 657.874 783.787 656.65 783.218 655.645C782.65 654.639 781.907 653.896 780.989 653.416C780.072 652.913 779.077 652.662 778.007 652.662C776.914 652.662 775.909 652.913 774.991 653.416C774.095 653.896 773.374 654.639 772.827 655.645C772.281 656.65 772.008 657.874 772.008 659.316C772.008 660.78 772.27 662.015 772.795 663.02C773.341 664.025 774.062 664.779 774.958 665.282C775.854 665.762 776.837 666.003 777.908 666.003ZM794.024 653.284C794.548 652.257 795.291 651.46 796.253 650.892C797.236 650.323 798.427 650.039 799.826 650.039V653.121H799.039C795.696 653.121 794.024 654.934 794.024 658.562V668.33H791.041V650.367H794.024V653.284ZM810.894 659.283C810.894 657.447 811.265 655.841 812.008 654.465C812.751 653.066 813.767 651.984 815.057 651.219C816.368 650.455 817.821 650.072 819.416 650.072C820.99 650.072 822.355 650.411 823.514 651.088C824.672 651.766 825.535 652.618 826.103 653.645V650.367H829.119V668.33H826.103V664.987C825.513 666.036 824.628 666.91 823.448 667.609C822.29 668.286 820.935 668.625 819.383 668.625C817.788 668.625 816.346 668.232 815.057 667.445C813.767 666.658 812.751 665.555 812.008 664.134C811.265 662.714 810.894 661.097 810.894 659.283ZM826.103 659.316C826.103 657.961 825.83 656.781 825.284 655.776C824.737 654.77 823.994 654.006 823.055 653.481C822.137 652.935 821.121 652.662 820.006 652.662C818.892 652.662 817.876 652.924 816.958 653.448C816.04 653.973 815.308 654.738 814.762 655.743C814.215 656.748 813.942 657.928 813.942 659.283C813.942 660.66 814.215 661.862 814.762 662.889C815.308 663.894 816.04 664.67 816.958 665.216C817.876 665.741 818.892 666.003 820.006 666.003C821.121 666.003 822.137 665.741 823.055 665.216C823.994 664.67 824.737 663.894 825.284 662.889C825.83 661.862 826.103 660.671 826.103 659.316ZM842.912 650.039C845.097 650.039 846.867 650.706 848.222 652.039C849.577 653.35 850.254 655.251 850.254 657.742V668.33H847.304V658.169C847.304 656.377 846.856 655.011 845.96 654.071C845.064 653.11 843.84 652.629 842.289 652.629C840.715 652.629 839.459 653.121 838.519 654.104C837.601 655.087 837.142 656.519 837.142 658.398V668.33H834.16V650.367H837.142V652.924C837.733 652.006 838.53 651.296 839.535 650.793C840.562 650.291 841.688 650.039 842.912 650.039ZM870.598 650.367L859.781 676.787H856.7L860.24 668.133L852.996 650.367H856.307L861.945 664.921L867.517 650.367H870.598ZM898.725 658.66C898.725 659.228 898.693 659.829 898.627 660.463H884.27C884.379 662.233 884.98 663.621 886.073 664.626C887.187 665.609 888.531 666.101 890.104 666.101C891.394 666.101 892.465 665.806 893.317 665.216C894.191 664.604 894.803 663.796 895.152 662.79H898.365C897.884 664.517 896.923 665.926 895.48 667.019C894.038 668.09 892.246 668.625 890.104 668.625C888.4 668.625 886.87 668.243 885.515 667.478C884.182 666.713 883.133 665.631 882.369 664.233C881.604 662.812 881.221 661.173 881.221 659.316C881.221 657.458 881.593 655.83 882.336 654.432C883.079 653.033 884.117 651.962 885.45 651.219C886.805 650.455 888.356 650.072 890.104 650.072C891.809 650.072 893.317 650.444 894.628 651.187C895.939 651.93 896.944 652.957 897.644 654.268C898.365 655.557 898.725 657.021 898.725 658.66ZM895.644 658.037C895.644 656.901 895.393 655.929 894.89 655.12C894.388 654.29 893.699 653.667 892.825 653.252C891.973 652.815 891.022 652.596 889.973 652.596C888.466 652.596 887.176 653.077 886.105 654.038C885.056 655 884.456 656.333 884.303 658.037H895.644ZM911.415 650.039C913.6 650.039 915.37 650.706 916.725 652.039C918.08 653.35 918.757 655.251 918.757 657.742V668.33H915.807V658.169C915.807 656.377 915.359 655.011 914.463 654.071C913.567 653.11 912.343 652.629 910.792 652.629C909.218 652.629 907.962 653.121 907.022 654.104C906.104 655.087 905.646 656.519 905.646 658.398V668.33H902.663V650.367H905.646V652.924C906.236 652.006 907.033 651.296 908.038 650.793C909.066 650.291 910.191 650.039 911.415 650.039ZM922.515 659.283C922.515 657.447 922.887 655.841 923.63 654.465C924.373 653.066 925.389 651.984 926.678 651.219C927.989 650.455 929.453 650.072 931.071 650.072C932.622 650.072 933.977 650.422 935.135 651.121C936.315 651.799 937.178 652.64 937.725 653.645V650.367H940.74V676.853H937.725V665.019C937.157 666.025 936.282 666.877 935.102 667.576C933.922 668.275 932.546 668.625 930.972 668.625C929.399 668.625 927.968 668.232 926.678 667.445C925.389 666.658 924.373 665.555 923.63 664.134C922.887 662.714 922.515 661.097 922.515 659.283ZM937.725 659.316C937.725 657.961 937.452 656.781 936.905 655.776C936.359 654.77 935.616 654.006 934.676 653.481C933.758 652.935 932.742 652.662 931.628 652.662C930.513 652.662 929.497 652.924 928.579 653.448C927.662 653.973 926.93 654.738 926.383 655.743C925.837 656.748 925.564 657.928 925.564 659.283C925.564 660.66 925.837 661.862 926.383 662.889C926.93 663.894 927.662 664.67 928.579 665.216C929.497 665.741 930.513 666.003 931.628 666.003C932.742 666.003 933.758 665.741 934.676 665.216C935.616 664.67 936.359 663.894 936.905 662.889C937.452 661.862 937.725 660.671 937.725 659.316ZM961.712 650.367V668.33H958.729V665.675C958.161 666.593 957.363 667.314 956.336 667.838C955.331 668.341 954.216 668.592 952.993 668.592C951.594 668.592 950.337 668.308 949.223 667.74C948.109 667.15 947.223 666.276 946.568 665.118C945.934 663.96 945.617 662.55 945.617 660.889V650.367H948.567V660.496C948.567 662.266 949.015 663.632 949.911 664.593C950.807 665.533 952.031 666.003 953.583 666.003C955.178 666.003 956.434 665.511 957.352 664.528C958.27 663.544 958.729 662.113 958.729 660.234V650.367H961.712ZM968.289 647.45C967.721 647.45 967.24 647.253 966.847 646.86C966.453 646.466 966.257 645.986 966.257 645.418C966.257 644.849 966.453 644.369 966.847 643.975C967.24 643.582 967.721 643.385 968.289 643.385C968.835 643.385 969.294 643.582 969.666 643.975C970.059 644.369 970.256 644.849 970.256 645.418C970.256 645.986 970.059 646.466 969.666 646.86C969.294 647.253 968.835 647.45 968.289 647.45ZM969.731 650.367V668.33H966.748V650.367H969.731ZM977.798 653.284C978.322 652.257 979.065 651.46 980.027 650.892C981.01 650.323 982.201 650.039 983.6 650.039V653.121H982.813C979.47 653.121 977.798 654.934 977.798 658.562V668.33H974.815V650.367H977.798V653.284ZM988.584 647.45C988.016 647.45 987.535 647.253 987.141 646.86C986.748 646.466 986.551 645.986 986.551 645.418C986.551 644.849 986.748 644.369 987.141 643.975C987.535 643.582 988.016 643.385 988.584 643.385C989.13 643.385 989.589 643.582 989.96 643.975C990.354 644.369 990.55 644.849 990.55 645.418C990.55 645.986 990.354 646.466 989.96 646.86C989.589 647.253 989.13 647.45 988.584 647.45ZM990.026 650.367V668.33H987.043V650.367H990.026ZM1011.5 658.66C1011.5 659.228 1011.47 659.829 1011.4 660.463H997.044C997.153 662.233 997.754 663.621 998.847 664.626C999.961 665.609 1001.31 666.101 1002.88 666.101C1004.17 666.101 1005.24 665.806 1006.09 665.216C1006.96 664.604 1007.58 663.796 1007.93 662.79H1011.14C1010.66 664.517 1009.7 665.926 1008.25 667.019C1006.81 668.09 1005.02 668.625 1002.88 668.625C1001.17 668.625 999.644 668.243 998.289 667.478C996.956 666.713 995.907 665.631 995.143 664.233C994.378 662.812 993.995 661.173 993.995 659.316C993.995 657.458 994.367 655.83 995.11 654.432C995.853 653.033 996.891 651.962 998.224 651.219C999.579 650.455 1001.13 650.072 1002.88 650.072C1004.58 650.072 1006.09 650.444 1007.4 651.187C1008.71 651.93 1009.72 652.957 1010.42 654.268C1011.14 655.557 1011.5 657.021 1011.5 658.66ZM1008.42 658.037C1008.42 656.901 1008.17 655.929 1007.66 655.12C1007.16 654.29 1006.47 653.667 1005.6 653.252C1004.75 652.815 1003.8 652.596 1002.75 652.596C1001.24 652.596 999.95 653.077 998.879 654.038C997.83 655 997.23 656.333 997.077 658.037H1008.42ZM1021.8 668.625C1020.42 668.625 1019.18 668.396 1018.09 667.937C1017 667.456 1016.14 666.8 1015.5 665.97C1014.87 665.118 1014.52 664.145 1014.45 663.053H1017.53C1017.62 663.949 1018.04 664.681 1018.78 665.249C1019.54 665.817 1020.54 666.101 1021.76 666.101C1022.9 666.101 1023.8 665.85 1024.45 665.347C1025.11 664.845 1025.43 664.211 1025.43 663.446C1025.43 662.659 1025.08 662.08 1024.39 661.709C1023.69 661.315 1022.6 660.933 1021.14 660.561C1019.81 660.212 1018.71 659.862 1017.86 659.513C1017.03 659.141 1016.31 658.606 1015.7 657.906C1015.11 657.185 1014.81 656.246 1014.81 655.087C1014.81 654.17 1015.09 653.328 1015.63 652.563C1016.18 651.799 1016.96 651.198 1017.96 650.761C1018.97 650.302 1020.11 650.072 1021.4 650.072C1023.39 650.072 1025 650.575 1026.22 651.58C1027.44 652.585 1028.1 653.962 1028.19 655.71H1025.2C1025.14 654.77 1024.76 654.017 1024.06 653.448C1023.38 652.88 1022.46 652.596 1021.3 652.596C1020.23 652.596 1019.38 652.826 1018.75 653.284C1018.11 653.743 1017.8 654.344 1017.8 655.087C1017.8 655.677 1017.98 656.169 1018.35 656.562C1018.75 656.934 1019.23 657.24 1019.8 657.48C1020.39 657.699 1021.19 657.95 1022.22 658.234C1023.51 658.584 1024.56 658.933 1025.37 659.283C1026.18 659.611 1026.87 660.113 1027.43 660.791C1028.02 661.468 1028.33 662.353 1028.35 663.446C1028.35 664.429 1028.08 665.314 1027.53 666.101C1026.99 666.888 1026.21 667.511 1025.2 667.97C1024.22 668.407 1023.09 668.625 1021.8 668.625ZM1044.28 653.284C1044.81 652.257 1045.55 651.46 1046.51 650.892C1047.5 650.323 1048.69 650.039 1050.09 650.039V653.121H1049.3C1045.96 653.121 1044.28 654.934 1044.28 658.562V668.33H1041.3V650.367H1044.28V653.284ZM1069.92 658.66C1069.92 659.228 1069.89 659.829 1069.82 660.463H1055.46C1055.57 662.233 1056.17 663.621 1057.27 664.626C1058.38 665.609 1059.72 666.101 1061.3 666.101C1062.59 666.101 1063.66 665.806 1064.51 665.216C1065.38 664.604 1066 663.796 1066.35 662.79H1069.56C1069.08 664.517 1068.12 665.926 1066.67 667.019C1065.23 668.09 1063.44 668.625 1061.3 668.625C1059.59 668.625 1058.06 668.243 1056.71 667.478C1055.38 666.713 1054.33 665.631 1053.56 664.233C1052.8 662.812 1052.42 661.173 1052.42 659.316C1052.42 657.458 1052.79 655.83 1053.53 654.432C1054.27 653.033 1055.31 651.962 1056.64 651.219C1058 650.455 1059.55 650.072 1061.3 650.072C1063 650.072 1064.51 650.444 1065.82 651.187C1067.13 651.93 1068.14 652.957 1068.84 654.268C1069.56 655.557 1069.92 657.021 1069.92 658.66ZM1066.84 658.037C1066.84 656.901 1066.59 655.929 1066.08 655.12C1065.58 654.29 1064.89 653.667 1064.02 653.252C1063.17 652.815 1062.22 652.596 1061.17 652.596C1059.66 652.596 1058.37 653.077 1057.3 654.038C1056.25 655 1055.65 656.333 1055.5 658.037H1066.84ZM1076.84 644.074V668.33H1073.86V644.074H1076.84ZM1080.81 659.283C1080.81 657.447 1081.18 655.841 1081.92 654.465C1082.67 653.066 1083.68 651.984 1084.97 651.219C1086.28 650.455 1087.74 650.072 1089.33 650.072C1090.9 650.072 1092.27 650.411 1093.43 651.088C1094.59 651.766 1095.45 652.618 1096.02 653.645V650.367H1099.03V668.33H1096.02V664.987C1095.43 666.036 1094.54 666.91 1093.36 667.609C1092.2 668.286 1090.85 668.625 1089.3 668.625C1087.7 668.625 1086.26 668.232 1084.97 667.445C1083.68 666.658 1082.67 665.555 1081.92 664.134C1081.18 662.714 1080.81 661.097 1080.81 659.283ZM1096.02 659.316C1096.02 657.961 1095.74 656.781 1095.2 655.776C1094.65 654.77 1093.91 654.006 1092.97 653.481C1092.05 652.935 1091.04 652.662 1089.92 652.662C1088.81 652.662 1087.79 652.924 1086.87 653.448C1085.95 653.973 1085.22 654.738 1084.68 655.743C1084.13 656.748 1083.86 657.928 1083.86 659.283C1083.86 660.66 1084.13 661.862 1084.68 662.889C1085.22 663.894 1085.95 664.67 1086.87 665.216C1087.79 665.741 1088.81 666.003 1089.92 666.003C1091.04 666.003 1092.05 665.741 1092.97 665.216C1093.91 664.67 1094.65 663.894 1095.2 662.889C1095.74 661.862 1096.02 660.671 1096.02 659.316ZM1107.71 652.826V663.413C1107.71 664.287 1107.9 664.91 1108.27 665.282C1108.64 665.631 1109.29 665.806 1110.2 665.806H1112.4V668.33H1109.71C1108.05 668.33 1106.81 667.948 1105.98 667.183C1105.15 666.418 1104.73 665.161 1104.73 663.413V652.826H1102.4V650.367H1104.73V645.844H1107.71V650.367H1112.4V652.826H1107.71ZM1132.4 658.66C1132.4 659.228 1132.37 659.829 1132.31 660.463H1117.95C1118.06 662.233 1118.66 663.621 1119.75 664.626C1120.87 665.609 1122.21 666.101 1123.78 666.101C1125.07 666.101 1126.14 665.806 1127 665.216C1127.87 664.604 1128.48 663.796 1128.83 662.79H1132.04C1131.56 664.517 1130.6 665.926 1129.16 667.019C1127.72 668.09 1125.92 668.625 1123.78 668.625C1122.08 668.625 1120.55 668.243 1119.19 667.478C1117.86 666.713 1116.81 665.631 1116.05 664.233C1115.28 662.812 1114.9 661.173 1114.9 659.316C1114.9 657.458 1115.27 655.83 1116.01 654.432C1116.76 653.033 1117.8 651.962 1119.13 651.219C1120.48 650.455 1122.03 650.072 1123.78 650.072C1125.49 650.072 1127 650.444 1128.31 651.187C1129.62 651.93 1130.62 652.957 1131.32 654.268C1132.04 655.557 1132.4 657.021 1132.4 658.66ZM1129.32 658.037C1129.32 656.901 1129.07 655.929 1128.57 655.12C1128.07 654.29 1127.38 653.667 1126.5 653.252C1125.65 652.815 1124.7 652.596 1123.65 652.596C1122.14 652.596 1120.85 653.077 1119.78 654.038C1118.74 655 1118.13 656.333 1117.98 658.037H1129.32ZM1135.23 659.283C1135.23 657.447 1135.6 655.841 1136.34 654.465C1137.08 653.066 1138.1 651.984 1139.39 651.219C1140.7 650.455 1142.17 650.072 1143.78 650.072C1145.18 650.072 1146.48 650.4 1147.68 651.056C1148.88 651.689 1149.8 652.531 1150.44 653.58V644.074H1153.45V668.33H1150.44V664.954C1149.85 666.025 1148.97 666.91 1147.81 667.609C1146.66 668.286 1145.3 668.625 1143.75 668.625C1142.15 668.625 1140.7 668.232 1139.39 667.445C1138.1 666.658 1137.08 665.555 1136.34 664.134C1135.6 662.714 1135.23 661.097 1135.23 659.283ZM1150.44 659.316C1150.44 657.961 1150.16 656.781 1149.62 655.776C1149.07 654.77 1148.33 654.006 1147.39 653.481C1146.47 652.935 1145.45 652.662 1144.34 652.662C1143.22 652.662 1142.21 652.924 1141.29 653.448C1140.37 653.973 1139.64 654.738 1139.09 655.743C1138.55 656.748 1138.28 657.928 1138.28 659.283C1138.28 660.66 1138.55 661.862 1139.09 662.889C1139.64 663.894 1140.37 664.67 1141.29 665.216C1142.21 665.741 1143.22 666.003 1144.34 666.003C1145.45 666.003 1146.47 665.741 1147.39 665.216C1148.33 664.67 1149.07 663.894 1149.62 662.889C1150.16 661.862 1150.44 660.671 1150.44 659.316ZM1170.87 652.826V663.413C1170.87 664.287 1171.06 664.91 1171.43 665.282C1171.8 665.631 1172.44 665.806 1173.36 665.806H1175.56V668.33H1172.87C1171.21 668.33 1169.96 667.948 1169.13 667.183C1168.3 666.418 1167.89 665.161 1167.89 663.413V652.826H1165.56V650.367H1167.89V645.844H1170.87V650.367H1175.56V652.826H1170.87ZM1187.01 668.625C1185.32 668.625 1183.79 668.243 1182.42 667.478C1181.06 666.713 1179.99 665.631 1179.2 664.233C1178.44 662.812 1178.06 661.173 1178.06 659.316C1178.06 657.48 1178.45 655.863 1179.24 654.465C1180.05 653.044 1181.14 651.962 1182.52 651.219C1183.89 650.455 1185.43 650.072 1187.14 650.072C1188.84 650.072 1190.38 650.455 1191.76 651.219C1193.14 651.962 1194.22 653.033 1195 654.432C1195.81 655.83 1196.22 657.458 1196.22 659.316C1196.22 661.173 1195.8 662.812 1194.97 664.233C1194.16 665.631 1193.06 666.713 1191.66 667.478C1190.26 668.243 1188.71 668.625 1187.01 668.625ZM1187.01 666.003C1188.08 666.003 1189.08 665.751 1190.02 665.249C1190.96 664.746 1191.72 663.992 1192.28 662.987C1192.87 661.982 1193.17 660.758 1193.17 659.316C1193.17 657.874 1192.88 656.65 1192.32 655.645C1191.75 654.639 1191.01 653.896 1190.09 653.416C1189.17 652.913 1188.18 652.662 1187.1 652.662C1186.01 652.662 1185.01 652.913 1184.09 653.416C1183.19 653.896 1182.47 654.639 1181.93 655.645C1181.38 656.65 1181.11 657.874 1181.11 659.316C1181.11 660.78 1181.37 662.015 1181.89 663.02C1182.44 664.025 1183.16 664.779 1184.06 665.282C1184.95 665.762 1185.94 666.003 1187.01 666.003ZM1212.52 652.826V663.413C1212.52 664.287 1212.7 664.91 1213.07 665.282C1213.45 665.631 1214.09 665.806 1215.01 665.806H1217.2V668.33H1214.52C1212.85 668.33 1211.61 667.948 1210.78 667.183C1209.95 666.418 1209.53 665.161 1209.53 663.413V652.826H1207.21V650.367H1209.53V645.844H1212.52V650.367H1217.2V652.826H1212.52ZM1228.65 668.625C1226.97 668.625 1225.44 668.243 1224.06 667.478C1222.71 666.713 1221.64 665.631 1220.85 664.233C1220.09 662.812 1219.7 661.173 1219.7 659.316C1219.7 657.48 1220.1 655.863 1220.88 654.465C1221.69 653.044 1222.78 651.962 1224.16 651.219C1225.54 650.455 1227.08 650.072 1228.78 650.072C1230.49 650.072 1232.03 650.455 1233.4 651.219C1234.78 651.962 1235.86 653.033 1236.65 654.432C1237.46 655.83 1237.86 657.458 1237.86 659.316C1237.86 661.173 1237.45 662.812 1236.62 664.233C1235.81 665.631 1234.71 666.713 1233.31 667.478C1231.91 668.243 1230.36 668.625 1228.65 668.625ZM1228.65 666.003C1229.72 666.003 1230.73 665.751 1231.67 665.249C1232.61 664.746 1233.36 663.992 1233.93 662.987C1234.52 661.982 1234.81 660.758 1234.81 659.316C1234.81 657.874 1234.53 656.65 1233.96 655.645C1233.39 654.639 1232.65 653.896 1231.73 653.416C1230.82 652.913 1229.82 652.662 1228.75 652.662C1227.66 652.662 1226.65 652.913 1225.73 653.416C1224.84 653.896 1224.12 654.639 1223.57 655.645C1223.02 656.65 1222.75 657.874 1222.75 659.316C1222.75 660.78 1223.01 662.015 1223.54 663.02C1224.08 664.025 1224.81 664.779 1225.7 665.282C1226.6 665.762 1227.58 666.003 1228.65 666.003ZM771.519 717.33H768.536L756.539 699.138V717.33H753.556V694.45H756.539L768.536 712.61V694.45H771.519V717.33ZM792.994 707.66C792.994 708.228 792.961 708.829 792.895 709.463H778.538C778.647 711.233 779.248 712.621 780.341 713.626C781.456 714.609 782.799 715.101 784.373 715.101C785.662 715.101 786.733 714.806 787.585 714.216C788.459 713.604 789.071 712.796 789.421 711.79H792.633C792.152 713.517 791.191 714.926 789.749 716.019C788.306 717.09 786.514 717.625 784.373 717.625C782.668 717.625 781.139 717.243 779.784 716.478C778.451 715.713 777.402 714.631 776.637 713.233C775.872 711.812 775.49 710.173 775.49 708.316C775.49 706.458 775.861 704.83 776.604 703.432C777.347 702.033 778.385 700.962 779.718 700.219C781.073 699.455 782.625 699.072 784.373 699.072C786.077 699.072 787.585 699.444 788.896 700.187C790.208 700.93 791.213 701.957 791.912 703.268C792.633 704.557 792.994 706.021 792.994 707.66ZM789.913 707.037C789.913 705.901 789.661 704.929 789.159 704.12C788.656 703.29 787.968 702.667 787.094 702.252C786.241 701.815 785.291 701.596 784.242 701.596C782.734 701.596 781.445 702.077 780.374 703.038C779.325 704 778.724 705.333 778.571 707.037H789.913ZM820.86 699.367L815.255 717.33H812.173L807.846 703.071L803.52 717.33H800.438L794.8 699.367H797.849L801.979 714.446L806.437 699.367H809.485L813.845 714.478L817.91 699.367H820.86ZM830.179 717.625C828.803 717.625 827.568 717.396 826.475 716.937C825.383 716.456 824.519 715.8 823.886 714.97C823.252 714.118 822.902 713.145 822.837 712.053H825.918C826.005 712.949 826.421 713.681 827.164 714.249C827.928 714.817 828.923 715.101 830.146 715.101C831.283 715.101 832.179 714.85 832.834 714.347C833.49 713.845 833.818 713.211 833.818 712.446C833.818 711.659 833.468 711.08 832.769 710.709C832.07 710.315 830.988 709.933 829.524 709.561C828.191 709.212 827.098 708.862 826.246 708.513C825.415 708.141 824.694 707.606 824.082 706.906C823.492 706.185 823.197 705.246 823.197 704.087C823.197 703.17 823.47 702.328 824.017 701.563C824.563 700.799 825.339 700.198 826.344 699.761C827.349 699.302 828.497 699.072 829.786 699.072C831.775 699.072 833.381 699.575 834.604 700.58C835.828 701.585 836.484 702.962 836.571 704.71H833.588C833.523 703.77 833.14 703.017 832.441 702.448C831.764 701.88 830.846 701.596 829.688 701.596C828.617 701.596 827.765 701.826 827.131 702.284C826.497 702.743 826.18 703.344 826.18 704.087C826.18 704.677 826.366 705.169 826.737 705.562C827.131 705.934 827.612 706.24 828.18 706.48C828.77 706.699 829.578 706.95 830.605 707.234C831.895 707.584 832.944 707.933 833.752 708.283C834.561 708.611 835.249 709.113 835.817 709.791C836.407 710.468 836.713 711.353 836.735 712.446C836.735 713.429 836.462 714.314 835.916 715.101C835.369 715.888 834.594 716.511 833.588 716.97C832.605 717.407 831.469 717.625 830.179 717.625ZM850.976 717.33L843.929 709.398V717.33H840.946V693.074H843.929V707.332L850.845 699.367H855.008L846.551 708.316L855.041 717.33H850.976ZM859.356 696.45C858.788 696.45 858.307 696.253 857.914 695.86C857.521 695.466 857.324 694.986 857.324 694.418C857.324 693.849 857.521 693.369 857.914 692.975C858.307 692.582 858.788 692.385 859.356 692.385C859.903 692.385 860.361 692.582 860.733 692.975C861.126 693.369 861.323 693.849 861.323 694.418C861.323 694.986 861.126 695.466 860.733 695.86C860.361 696.253 859.903 696.45 859.356 696.45ZM860.798 699.367V717.33H857.816V699.367H860.798ZM869.521 701.826V712.413C869.521 713.287 869.707 713.91 870.078 714.282C870.45 714.631 871.094 714.806 872.012 714.806H874.208V717.33H871.52C869.859 717.33 868.614 716.948 867.783 716.183C866.953 715.418 866.538 714.161 866.538 712.413V701.826H864.211V699.367H866.538V694.844H869.521V699.367H874.208V701.826H869.521ZM880.904 713.2L877.232 722.017H875.233L877.626 713.2H880.904ZM896.042 702.678C896.632 701.651 897.506 700.799 898.665 700.121C899.845 699.422 901.211 699.072 902.762 699.072C904.357 699.072 905.8 699.455 907.089 700.219C908.4 700.984 909.427 702.066 910.17 703.465C910.913 704.841 911.285 706.447 911.285 708.283C911.285 710.097 910.913 711.714 910.17 713.134C909.427 714.555 908.4 715.658 907.089 716.445C905.8 717.232 904.357 717.625 902.762 717.625C901.232 717.625 899.877 717.286 898.697 716.609C897.539 715.91 896.654 715.046 896.042 714.019V725.853H893.059V699.367H896.042V702.678ZM908.236 708.283C908.236 706.928 907.963 705.748 907.417 704.743C906.87 703.738 906.127 702.973 905.188 702.448C904.27 701.924 903.254 701.662 902.139 701.662C901.047 701.662 900.03 701.935 899.091 702.481C898.173 703.006 897.43 703.781 896.862 704.808C896.315 705.814 896.042 706.983 896.042 708.316C896.042 709.671 896.315 710.862 896.862 711.889C897.43 712.894 898.173 713.67 899.091 714.216C900.03 714.741 901.047 715.003 902.139 715.003C903.254 715.003 904.27 714.741 905.188 714.216C906.127 713.67 906.87 712.894 907.417 711.889C907.963 710.862 908.236 709.66 908.236 708.283ZM918.194 693.074V717.33H915.211V693.074H918.194ZM939.667 707.66C939.667 708.228 939.634 708.829 939.569 709.463H925.212C925.321 711.233 925.922 712.621 927.014 713.626C928.129 714.609 929.473 715.101 931.046 715.101C932.336 715.101 933.406 714.806 934.259 714.216C935.133 713.604 935.745 712.796 936.094 711.79H939.307C938.826 713.517 937.864 714.926 936.422 716.019C934.98 717.09 933.188 717.625 931.046 717.625C929.342 717.625 927.812 717.243 926.457 716.478C925.124 715.713 924.075 714.631 923.31 713.233C922.546 711.812 922.163 710.173 922.163 708.316C922.163 706.458 922.535 704.83 923.278 703.432C924.021 702.033 925.059 700.962 926.392 700.219C927.746 699.455 929.298 699.072 931.046 699.072C932.751 699.072 934.259 699.444 935.57 700.187C936.881 700.93 937.886 701.957 938.585 703.268C939.307 704.557 939.667 706.021 939.667 707.66ZM936.586 707.037C936.586 705.901 936.335 704.929 935.832 704.12C935.329 703.29 934.641 702.667 933.767 702.252C932.915 701.815 931.964 701.596 930.915 701.596C929.407 701.596 928.118 702.077 927.047 703.038C925.998 704 925.397 705.333 925.244 707.037H936.586ZM942.49 708.283C942.49 706.447 942.861 704.841 943.604 703.465C944.347 702.066 945.364 700.984 946.653 700.219C947.964 699.455 949.417 699.072 951.013 699.072C952.586 699.072 953.952 699.411 955.11 700.088C956.268 700.766 957.131 701.618 957.699 702.645V699.367H960.715V717.33H957.699V713.987C957.109 715.036 956.224 715.91 955.044 716.609C953.886 717.286 952.531 717.625 950.98 717.625C949.385 717.625 947.942 717.232 946.653 716.445C945.364 715.658 944.347 714.555 943.604 713.134C942.861 711.714 942.49 710.097 942.49 708.283ZM957.699 708.316C957.699 706.961 957.426 705.781 956.88 704.776C956.334 703.77 955.591 703.006 954.651 702.481C953.733 701.935 952.717 701.662 951.603 701.662C950.488 701.662 949.472 701.924 948.554 702.448C947.636 702.973 946.904 703.738 946.358 704.743C945.812 705.748 945.538 706.928 945.538 708.283C945.538 709.66 945.812 710.862 946.358 711.889C946.904 712.894 947.636 713.67 948.554 714.216C949.472 714.741 950.488 715.003 951.603 715.003C952.717 715.003 953.733 714.741 954.651 714.216C955.591 713.67 956.334 712.894 956.88 711.889C957.426 710.862 957.699 709.671 957.699 708.316ZM972.115 717.625C970.738 717.625 969.504 717.396 968.411 716.937C967.318 716.456 966.455 715.8 965.821 714.97C965.188 714.118 964.838 713.145 964.773 712.053H967.854C967.941 712.949 968.356 713.681 969.099 714.249C969.864 714.817 970.859 715.101 972.082 715.101C973.219 715.101 974.115 714.85 974.77 714.347C975.426 713.845 975.754 713.211 975.754 712.446C975.754 711.659 975.404 711.08 974.705 710.709C974.005 710.315 972.924 709.933 971.459 709.561C970.126 709.212 969.034 708.862 968.182 708.513C967.351 708.141 966.63 707.606 966.018 706.906C965.428 706.185 965.133 705.246 965.133 704.087C965.133 703.17 965.406 702.328 965.953 701.563C966.499 700.799 967.275 700.198 968.28 699.761C969.285 699.302 970.432 699.072 971.722 699.072C973.71 699.072 975.316 699.575 976.54 700.58C977.764 701.585 978.42 702.962 978.507 704.71H975.524C975.459 703.77 975.076 703.017 974.377 702.448C973.699 701.88 972.782 701.596 971.623 701.596C970.553 701.596 969.7 701.826 969.067 702.284C968.433 702.743 968.116 703.344 968.116 704.087C968.116 704.677 968.302 705.169 968.673 705.562C969.067 705.934 969.547 706.24 970.116 706.48C970.706 706.699 971.514 706.95 972.541 707.234C973.831 707.584 974.879 707.933 975.688 708.283C976.497 708.611 977.185 709.113 977.753 709.791C978.343 710.468 978.649 711.353 978.671 712.446C978.671 713.429 978.398 714.314 977.851 715.101C977.305 715.888 976.529 716.511 975.524 716.97C974.541 717.407 973.404 717.625 972.115 717.625ZM999.271 707.66C999.271 708.228 999.238 708.829 999.173 709.463H984.816C984.925 711.233 985.526 712.621 986.619 713.626C987.733 714.609 989.077 715.101 990.65 715.101C991.94 715.101 993.01 714.806 993.863 714.216C994.737 713.604 995.349 712.796 995.698 711.79H998.911C998.43 713.517 997.468 714.926 996.026 716.019C994.584 717.09 992.792 717.625 990.65 717.625C988.946 717.625 987.416 717.243 986.061 716.478C984.728 715.713 983.679 714.631 982.914 713.233C982.15 711.812 981.767 710.173 981.767 708.316C981.767 706.458 982.139 704.83 982.882 703.432C983.625 702.033 984.663 700.962 985.996 700.219C987.351 699.455 988.902 699.072 990.65 699.072C992.355 699.072 993.863 699.444 995.174 700.187C996.485 700.93 997.49 701.957 998.19 703.268C998.911 704.557 999.271 706.021 999.271 707.66ZM996.19 707.037C996.19 705.901 995.939 704.929 995.436 704.12C994.933 703.29 994.245 702.667 993.371 702.252C992.519 701.815 991.568 701.596 990.519 701.596C989.011 701.596 987.722 702.077 986.651 703.038C985.602 704 985.001 705.333 984.848 707.037H996.19ZM1018.31 717.625C1016.93 717.625 1015.7 717.396 1014.6 716.937C1013.51 716.456 1012.65 715.8 1012.01 714.97C1011.38 714.118 1011.03 713.145 1010.96 712.053H1014.05C1014.13 712.949 1014.55 713.681 1015.29 714.249C1016.06 714.817 1017.05 715.101 1018.27 715.101C1019.41 715.101 1020.31 714.85 1020.96 714.347C1021.62 713.845 1021.95 713.211 1021.95 712.446C1021.95 711.659 1021.6 711.08 1020.9 710.709C1020.2 710.315 1019.12 709.933 1017.65 709.561C1016.32 709.212 1015.23 708.862 1014.37 708.513C1013.54 708.141 1012.82 707.606 1012.21 706.906C1011.62 706.185 1011.32 705.246 1011.32 704.087C1011.32 703.17 1011.6 702.328 1012.14 701.563C1012.69 700.799 1013.47 700.198 1014.47 699.761C1015.48 699.302 1016.62 699.072 1017.91 699.072C1019.9 699.072 1021.51 699.575 1022.73 700.58C1023.96 701.585 1024.61 702.962 1024.7 704.71H1021.72C1021.65 703.77 1021.27 703.017 1020.57 702.448C1019.89 701.88 1018.97 701.596 1017.81 701.596C1016.74 701.596 1015.89 701.826 1015.26 702.284C1014.62 702.743 1014.31 703.344 1014.31 704.087C1014.31 704.677 1014.49 705.169 1014.86 705.562C1015.26 705.934 1015.74 706.24 1016.31 706.48C1016.9 706.699 1017.71 706.95 1018.73 707.234C1020.02 707.584 1021.07 707.933 1021.88 708.283C1022.69 708.611 1023.38 709.113 1023.94 709.791C1024.53 710.468 1024.84 711.353 1024.86 712.446C1024.86 713.429 1024.59 714.314 1024.04 715.101C1023.5 715.888 1022.72 716.511 1021.72 716.97C1020.73 717.407 1019.6 717.625 1018.31 717.625ZM1045.46 707.66C1045.46 708.228 1045.43 708.829 1045.36 709.463H1031.01C1031.12 711.233 1031.72 712.621 1032.81 713.626C1033.92 714.609 1035.27 715.101 1036.84 715.101C1038.13 715.101 1039.2 714.806 1040.05 714.216C1040.93 713.604 1041.54 712.796 1041.89 711.79H1045.1C1044.62 713.517 1043.66 714.926 1042.22 716.019C1040.78 717.09 1038.98 717.625 1036.84 717.625C1035.14 717.625 1033.61 717.243 1032.25 716.478C1030.92 715.713 1029.87 714.631 1029.11 713.233C1028.34 711.812 1027.96 710.173 1027.96 708.316C1027.96 706.458 1028.33 704.83 1029.07 703.432C1029.82 702.033 1030.85 700.962 1032.19 700.219C1033.54 699.455 1035.09 699.072 1036.84 699.072C1038.55 699.072 1040.05 699.444 1041.37 700.187C1042.68 700.93 1043.68 701.957 1044.38 703.268C1045.1 704.557 1045.46 706.021 1045.46 707.66ZM1042.38 707.037C1042.38 705.901 1042.13 704.929 1041.63 704.12C1041.13 703.29 1040.44 702.667 1039.56 702.252C1038.71 701.815 1037.76 701.596 1036.71 701.596C1035.2 701.596 1033.91 702.077 1032.84 703.038C1031.79 704 1031.19 705.333 1031.04 707.037H1042.38ZM1058.15 699.039C1060.34 699.039 1062.11 699.706 1063.46 701.039C1064.82 702.35 1065.49 704.251 1065.49 706.742V717.33H1062.54V707.169C1062.54 705.377 1062.1 704.011 1061.2 703.071C1060.3 702.11 1059.08 701.629 1057.53 701.629C1055.96 701.629 1054.7 702.121 1053.76 703.104C1052.84 704.087 1052.38 705.519 1052.38 707.398V717.33H1049.4V699.367H1052.38V701.924C1052.97 701.006 1053.77 700.296 1054.78 699.793C1055.8 699.291 1056.93 699.039 1058.15 699.039ZM1069.25 708.283C1069.25 706.447 1069.62 704.841 1070.37 703.465C1071.11 702.066 1072.13 700.984 1073.42 700.219C1074.73 699.455 1076.19 699.072 1077.81 699.072C1079.21 699.072 1080.51 699.4 1081.71 700.056C1082.91 700.689 1083.83 701.531 1084.46 702.58V693.074H1087.48V717.33H1084.46V713.954C1083.87 715.025 1083 715.91 1081.84 716.609C1080.68 717.286 1079.33 717.625 1077.78 717.625C1076.18 717.625 1074.73 717.232 1073.42 716.445C1072.13 715.658 1071.11 714.555 1070.37 713.134C1069.62 711.714 1069.25 710.097 1069.25 708.283ZM1084.46 708.316C1084.46 706.961 1084.19 705.781 1083.64 704.776C1083.1 703.77 1082.35 703.006 1081.41 702.481C1080.5 701.935 1079.48 701.662 1078.37 701.662C1077.25 701.662 1076.23 701.924 1075.32 702.448C1074.4 702.973 1073.67 703.738 1073.12 704.743C1072.57 705.748 1072.3 706.928 1072.3 708.283C1072.3 709.66 1072.57 710.862 1073.12 711.889C1073.67 712.894 1074.4 713.67 1075.32 714.216C1076.23 714.741 1077.25 715.003 1078.37 715.003C1079.48 715.003 1080.5 714.741 1081.41 714.216C1082.35 713.67 1083.1 712.894 1083.64 711.889C1084.19 710.862 1084.46 709.671 1084.46 708.316ZM1100.14 708.283C1100.14 706.447 1100.51 704.841 1101.26 703.465C1102 702.066 1103.02 700.984 1104.31 700.219C1105.62 699.455 1107.07 699.072 1108.67 699.072C1110.24 699.072 1111.6 699.411 1112.76 700.088C1113.92 700.766 1114.78 701.618 1115.35 702.645V699.367H1118.37V717.33H1115.35V713.987C1114.76 715.036 1113.88 715.91 1112.7 716.609C1111.54 717.286 1110.18 717.625 1108.63 717.625C1107.04 717.625 1105.6 717.232 1104.31 716.445C1103.02 715.658 1102 714.555 1101.26 713.134C1100.51 711.714 1100.14 710.097 1100.14 708.283ZM1115.35 708.316C1115.35 706.961 1115.08 705.781 1114.53 704.776C1113.99 703.77 1113.24 703.006 1112.3 702.481C1111.39 701.935 1110.37 701.662 1109.26 701.662C1108.14 701.662 1107.13 701.924 1106.21 702.448C1105.29 702.973 1104.56 703.738 1104.01 704.743C1103.46 705.748 1103.19 706.928 1103.19 708.283C1103.19 709.66 1103.46 710.862 1104.01 711.889C1104.56 712.894 1105.29 713.67 1106.21 714.216C1107.13 714.741 1108.14 715.003 1109.26 715.003C1110.37 715.003 1111.39 714.741 1112.3 714.216C1113.24 713.67 1113.99 712.894 1114.53 711.889C1115.08 710.862 1115.35 709.671 1115.35 708.316ZM1132.16 699.039C1134.35 699.039 1136.12 699.706 1137.47 701.039C1138.83 702.35 1139.5 704.251 1139.5 706.742V717.33H1136.55V707.169C1136.55 705.377 1136.11 704.011 1135.21 703.071C1134.31 702.11 1133.09 701.629 1131.54 701.629C1129.96 701.629 1128.71 702.121 1127.77 703.104C1126.85 704.087 1126.39 705.519 1126.39 707.398V717.33H1123.41V699.367H1126.39V701.924C1126.98 701.006 1127.78 700.296 1128.78 699.793C1129.81 699.291 1130.94 699.039 1132.16 699.039ZM1169.5 707.66C1169.5 708.228 1169.47 708.829 1169.41 709.463H1155.05C1155.16 711.233 1155.76 712.621 1156.85 713.626C1157.97 714.609 1159.31 715.101 1160.88 715.101C1162.17 715.101 1163.24 714.806 1164.1 714.216C1164.97 713.604 1165.58 712.796 1165.93 711.79H1169.14C1168.66 713.517 1167.7 714.926 1166.26 716.019C1164.82 717.09 1163.03 717.625 1160.88 717.625C1159.18 717.625 1157.65 717.243 1156.29 716.478C1154.96 715.713 1153.91 714.631 1153.15 713.233C1152.38 711.812 1152 710.173 1152 708.316C1152 706.458 1152.37 704.83 1153.12 703.432C1153.86 702.033 1154.9 700.962 1156.23 700.219C1157.58 699.455 1159.14 699.072 1160.88 699.072C1162.59 699.072 1164.1 699.444 1165.41 700.187C1166.72 700.93 1167.72 701.957 1168.42 703.268C1169.14 704.557 1169.5 706.021 1169.5 707.66ZM1166.42 707.037C1166.42 705.901 1166.17 704.929 1165.67 704.12C1165.17 703.29 1164.48 702.667 1163.6 702.252C1162.75 701.815 1161.8 701.596 1160.75 701.596C1159.24 701.596 1157.96 702.077 1156.88 703.038C1155.84 704 1155.23 705.333 1155.08 707.037H1166.42ZM1195.04 699.039C1196.44 699.039 1197.69 699.334 1198.78 699.924C1199.87 700.493 1200.74 701.356 1201.37 702.514C1202 703.672 1202.32 705.082 1202.32 706.742V717.33H1199.37V707.169C1199.37 705.377 1198.92 704.011 1198.03 703.071C1197.15 702.11 1195.96 701.629 1194.45 701.629C1192.9 701.629 1191.67 702.132 1190.75 703.137C1189.83 704.12 1189.37 705.551 1189.37 707.431V717.33H1186.42V707.169C1186.42 705.377 1185.97 704.011 1185.08 703.071C1184.2 702.11 1183.01 701.629 1181.51 701.629C1179.95 701.629 1178.72 702.132 1177.8 703.137C1176.88 704.12 1176.42 705.551 1176.42 707.431V717.33H1173.44V699.367H1176.42V701.957C1177.01 701.017 1177.8 700.296 1178.78 699.793C1179.79 699.291 1180.89 699.039 1182.1 699.039C1183.6 699.039 1184.94 699.378 1186.09 700.056C1187.25 700.733 1188.12 701.727 1188.68 703.038C1189.19 701.771 1190.02 700.788 1191.18 700.088C1192.33 699.389 1193.62 699.039 1195.04 699.039ZM1206.1 708.283C1206.1 706.447 1206.47 704.841 1207.21 703.465C1207.96 702.066 1208.97 700.984 1210.26 700.219C1211.57 699.455 1213.03 699.072 1214.62 699.072C1216.19 699.072 1217.56 699.411 1218.72 700.088C1219.88 700.766 1220.74 701.618 1221.31 702.645V699.367H1224.32V717.33H1221.31V713.987C1220.72 715.036 1219.83 715.91 1218.65 716.609C1217.49 717.286 1216.14 717.625 1214.59 717.625C1212.99 717.625 1211.55 717.232 1210.26 716.445C1208.97 715.658 1207.96 714.555 1207.21 713.134C1206.47 711.714 1206.1 710.097 1206.1 708.283ZM1221.31 708.316C1221.31 706.961 1221.04 705.781 1220.49 704.776C1219.94 703.77 1219.2 703.006 1218.26 702.481C1217.34 701.935 1216.33 701.662 1215.21 701.662C1214.1 701.662 1213.08 701.924 1212.16 702.448C1211.25 702.973 1210.51 703.738 1209.97 704.743C1209.42 705.748 1209.15 706.928 1209.15 708.283C1209.15 709.66 1209.42 710.862 1209.97 711.889C1210.51 712.894 1211.25 713.67 1212.16 714.216C1213.08 714.741 1214.1 715.003 1215.21 715.003C1216.33 715.003 1217.34 714.741 1218.26 714.216C1219.2 713.67 1219.94 712.894 1220.49 711.889C1221.04 710.862 1221.31 709.671 1221.31 708.316ZM1230.91 696.45C1230.34 696.45 1229.86 696.253 1229.46 695.86C1229.07 695.466 1228.87 694.986 1228.87 694.418C1228.87 693.849 1229.07 693.369 1229.46 692.975C1229.86 692.582 1230.34 692.385 1230.91 692.385C1231.45 692.385 1231.91 692.582 1232.28 692.975C1232.68 693.369 1232.87 693.849 1232.87 694.418C1232.87 694.986 1232.68 695.466 1232.28 695.86C1231.91 696.253 1231.45 696.45 1230.91 696.45ZM1232.35 699.367V717.33H1229.36V699.367H1232.35ZM1240.41 693.074V717.33H1237.43V693.074H1240.41ZM1257.88 701.826V712.413C1257.88 713.287 1258.06 713.91 1258.43 714.282C1258.8 714.631 1259.45 714.806 1260.37 714.806H1262.56V717.33H1259.88C1258.21 717.33 1256.97 716.948 1256.14 716.183C1255.31 715.418 1254.89 714.161 1254.89 712.413V701.826H1252.57V699.367H1254.89V694.844H1257.88V699.367H1262.56V701.826H1257.88ZM1274.01 717.625C1272.33 717.625 1270.8 717.243 1269.42 716.478C1268.07 715.713 1267 714.631 1266.21 713.233C1265.45 711.812 1265.06 710.173 1265.06 708.316C1265.06 706.48 1265.46 704.863 1266.24 703.465C1267.05 702.044 1268.14 700.962 1269.52 700.219C1270.9 699.455 1272.44 699.072 1274.14 699.072C1275.85 699.072 1277.39 699.455 1278.76 700.219C1280.14 700.962 1281.22 702.033 1282.01 703.432C1282.82 704.83 1283.22 706.458 1283.22 708.316C1283.22 710.173 1282.81 711.812 1281.98 713.233C1281.17 714.631 1280.06 715.713 1278.67 716.478C1277.27 717.243 1275.72 717.625 1274.01 717.625ZM1274.01 715.003C1275.08 715.003 1276.09 714.751 1277.03 714.249C1277.97 713.746 1278.72 712.992 1279.29 711.987C1279.88 710.982 1280.17 709.758 1280.17 708.316C1280.17 706.874 1279.89 705.65 1279.32 704.645C1278.75 703.639 1278.01 702.896 1277.09 702.416C1276.17 701.913 1275.18 701.662 1274.11 701.662C1273.02 701.662 1272.01 701.913 1271.09 702.416C1270.2 702.896 1269.48 703.639 1268.93 704.645C1268.38 705.65 1268.11 706.874 1268.11 708.316C1268.11 709.78 1268.37 711.015 1268.9 712.02C1269.44 713.025 1270.17 713.779 1271.06 714.282C1271.96 714.762 1272.94 715.003 1274.01 715.003ZM1288.09 717.527C1287.53 717.527 1287.05 717.33 1286.65 716.937C1286.26 716.543 1286.06 716.063 1286.06 715.494C1286.06 714.926 1286.26 714.446 1286.65 714.052C1287.05 713.659 1287.53 713.462 1288.09 713.462C1288.64 713.462 1289.1 713.659 1289.47 714.052C1289.86 714.446 1290.06 714.926 1290.06 715.494C1290.06 716.063 1289.86 716.543 1289.47 716.937C1289.1 717.33 1288.64 717.527 1288.09 717.527ZM1288.09 703.497C1287.53 703.497 1287.05 703.301 1286.65 702.907C1286.26 702.514 1286.06 702.033 1286.06 701.465C1286.06 700.897 1286.26 700.416 1286.65 700.023C1287.05 699.629 1287.53 699.433 1288.09 699.433C1288.64 699.433 1289.1 699.629 1289.47 700.023C1289.86 700.416 1290.06 700.897 1290.06 701.465C1290.06 702.033 1289.86 702.514 1289.47 702.907C1289.1 703.301 1288.64 703.497 1288.09 703.497Z"></path><path style="fill:var(--color-illustrationHighlight010)" d="M762.898 749.039C764.996 749.039 766.69 749.716 767.979 751.071C769.268 752.404 769.913 754.338 769.913 756.873V767.329H766.93V757.135C766.93 755.343 766.471 753.967 765.554 753.005C764.636 752.044 763.39 751.563 761.817 751.563C760.178 751.563 758.867 752.098 757.883 753.169C756.9 754.218 756.408 755.758 756.408 757.791V767.329H753.425V749.334H756.408V753.595C756.867 752.131 757.676 751.005 758.834 750.219C760.014 749.432 761.369 749.039 762.898 749.039Z"></path><path style="fill:var(--color-illustrationHighlight010)" d="M791.042 757.332C791.042 757.966 790.998 758.512 790.911 758.971H776.521C776.586 761.025 777.165 762.566 778.258 763.593C779.372 764.62 780.727 765.133 782.323 765.133C783.765 765.133 784.967 764.773 785.928 764.052C786.912 763.309 787.513 762.325 787.731 761.101H790.911C790.692 762.347 790.2 763.462 789.436 764.445C788.693 765.428 787.72 766.193 786.518 766.739C785.316 767.286 783.962 767.559 782.454 767.559C780.727 767.559 779.198 767.187 777.865 766.444C776.532 765.701 775.483 764.642 774.718 763.265C773.975 761.866 773.603 760.227 773.603 758.348C773.603 756.469 773.975 754.83 774.718 753.431C775.483 752.033 776.532 750.962 777.865 750.219C779.198 749.476 780.727 749.104 782.454 749.104C784.202 749.104 785.721 749.476 787.01 750.219C788.321 750.962 789.315 751.956 789.993 753.202C790.692 754.447 791.042 755.824 791.042 757.332ZM788.026 757.529C788.092 756.196 787.873 755.081 787.371 754.185C786.868 753.289 786.18 752.623 785.305 752.186C784.431 751.748 783.481 751.53 782.454 751.53C780.815 751.53 779.438 752.044 778.324 753.071C777.209 754.076 776.608 755.562 776.521 757.529H788.026Z"></path><path style="fill:var(--color-illustrationHighlight010)" d="M819.659 749.334L814.48 767.329H811.267L806.318 752.677L801.335 767.329H798.09L792.977 749.334H795.992L799.827 764.478L804.81 749.334H807.924L812.939 764.445L816.807 749.334H819.659Z"></path><path style="fill:var(--color-illustrationHighlight010)" d="M828.079 749.104C830.111 749.104 831.739 749.64 832.963 750.71C834.208 751.759 834.962 753.18 835.224 754.972H832.373C832.241 753.901 831.793 753.027 831.029 752.349C830.286 751.65 829.28 751.301 828.013 751.301C826.942 751.301 826.101 751.563 825.489 752.087C824.899 752.59 824.604 753.278 824.604 754.152C824.604 754.808 824.801 755.343 825.194 755.758C825.609 756.152 826.112 756.458 826.702 756.676C827.314 756.873 828.144 757.091 829.193 757.332C830.526 757.638 831.597 757.955 832.405 758.282C833.236 758.588 833.935 759.091 834.503 759.79C835.093 760.49 835.388 761.429 835.388 762.609C835.388 764.073 834.831 765.264 833.717 766.182C832.624 767.1 831.16 767.559 829.324 767.559C827.183 767.559 825.434 767.045 824.079 766.018C822.725 764.991 821.927 763.56 821.687 761.724H824.571C824.68 762.817 825.15 763.702 825.981 764.379C826.833 765.057 827.947 765.395 829.324 765.395C830.351 765.395 831.149 765.133 831.717 764.609C832.307 764.084 832.602 763.396 832.602 762.544C832.602 761.844 832.394 761.287 831.979 760.872C831.564 760.457 831.05 760.14 830.439 759.921C829.827 759.703 828.985 759.473 827.915 759.233C826.582 758.927 825.511 758.621 824.702 758.315C823.916 758.009 823.238 757.529 822.67 756.873C822.124 756.196 821.851 755.289 821.851 754.152C821.851 752.644 822.408 751.432 823.522 750.514C824.637 749.574 826.156 749.104 828.079 749.104Z"></path><path style="fill:var(--color-illustrationHighlight010)" d="M849.241 767.329L842.357 759.233V767.329H839.374V743.073H842.357V757.168L849.142 749.334H852.781L844.717 758.282L852.978 767.329H849.241Z"></path><path style="fill:var(--color-illustrationHighlight010)" d="M855.079 744.056C855.079 743.51 855.265 743.073 855.636 742.745C856.008 742.396 856.5 742.221 857.112 742.221C857.723 742.221 858.215 742.396 858.587 742.745C858.958 743.073 859.144 743.51 859.144 744.056C859.144 744.603 858.958 745.051 858.587 745.4C858.215 745.728 857.723 745.892 857.112 745.892C856.5 745.892 856.008 745.728 855.636 745.4C855.265 745.051 855.079 744.603 855.079 744.056ZM858.587 749.334V767.329H855.604V749.334H858.587Z"></path><path style="fill:var(--color-illustrationHighlight010)" d="M871.97 764.707V767.329H869.741C867.906 767.329 866.529 766.892 865.611 766.018C864.715 765.144 864.267 763.68 864.267 761.626V751.923H861.579V749.334H864.267V744.843H867.283V749.334H871.938V751.923H867.283V761.691C867.283 762.85 867.491 763.647 867.906 764.084C868.343 764.5 869.086 764.707 870.135 764.707H871.97Z"></path><path style="fill:var(--color-illustrationHighlight010)" d="M893.573 741.467C896.895 741.467 899.736 742.079 902.096 743.302C904.456 744.504 906.248 746.22 907.472 748.449C908.695 750.678 909.307 753.289 909.307 756.283C909.307 758.403 908.936 760.337 908.193 762.085C907.45 763.811 906.456 765.177 905.21 766.182C903.964 767.166 902.62 767.657 901.178 767.657C899.845 767.657 898.796 767.319 898.031 766.641C897.288 765.942 896.961 764.816 897.048 763.265C895.431 766.193 893.082 767.657 890 767.657C888.646 767.657 887.433 767.329 886.362 766.674C885.313 766.018 884.494 765.1 883.904 763.92C883.314 762.719 883.019 761.331 883.019 759.758C883.019 757.725 883.445 755.901 884.297 754.283C885.149 752.644 886.307 751.366 887.771 750.448C889.257 749.509 890.907 749.039 892.721 749.039C894.316 749.039 895.693 749.356 896.851 749.989C898.009 750.623 898.884 751.497 899.474 752.612C900.085 753.726 900.391 754.994 900.391 756.414C900.391 756.764 900.348 757.288 900.26 757.987L899.539 762.347C899.495 762.784 899.474 763.068 899.474 763.199C899.474 763.877 899.637 764.357 899.965 764.642C900.293 764.904 900.763 765.035 901.375 765.035C902.227 765.035 903.025 764.696 903.768 764.019C904.533 763.319 905.133 762.314 905.57 761.003C906.029 759.692 906.259 758.151 906.259 756.381C906.259 753.89 905.756 751.716 904.751 749.858C903.746 748.001 902.26 746.558 900.293 745.531C898.348 744.482 895.977 743.958 893.18 743.958C889.968 743.958 887.192 744.657 884.854 746.056C882.538 747.433 880.768 749.323 879.544 751.727C878.342 754.109 877.741 756.786 877.741 759.758C877.741 764.128 878.965 767.45 881.412 769.722C883.882 772.017 887.378 773.186 891.902 773.23L891.344 775.688C886.1 775.601 882.024 774.191 879.118 771.46C876.233 768.75 874.791 764.849 874.791 759.758C874.791 756.305 875.578 753.191 877.151 750.415C878.724 747.618 880.932 745.433 883.772 743.86C886.635 742.264 889.902 741.467 893.573 741.467ZM890.918 765.035C892.098 765.035 893.18 764.718 894.163 764.084C895.147 763.429 895.933 762.5 896.523 761.298C897.114 760.074 897.409 758.654 897.409 757.037C897.409 755.376 896.961 754.076 896.065 753.136C895.169 752.175 893.901 751.694 892.262 751.694C891.06 751.694 889.968 752.011 888.984 752.644C888.023 753.278 887.269 754.174 886.723 755.332C886.176 756.491 885.903 757.834 885.903 759.364C885.903 761.047 886.362 762.413 887.28 763.462C888.198 764.51 889.41 765.035 890.918 765.035Z"></path><path style="fill:var(--color-illustrationHighlight010)" d="M922.472 749.039C924.57 749.039 926.264 749.716 927.553 751.071C928.842 752.404 929.487 754.338 929.487 756.873V767.329H926.504V757.135C926.504 755.343 926.045 753.967 925.127 753.005C924.209 752.044 922.964 751.563 921.39 751.563C919.752 751.563 918.44 752.098 917.457 753.169C916.474 754.218 915.982 755.758 915.982 757.791V767.329H912.999V749.334H915.982V753.595C916.441 752.131 917.249 751.005 918.408 750.219C919.588 749.432 920.943 749.039 922.472 749.039Z"></path><path style="fill:var(--color-illustrationHighlight010)" d="M950.616 757.332C950.616 757.966 950.572 758.512 950.484 758.971H936.094C936.16 761.025 936.739 762.566 937.832 763.593C938.946 764.62 940.301 765.133 941.896 765.133C943.339 765.133 944.541 764.773 945.502 764.052C946.485 763.309 947.086 762.325 947.305 761.101H950.484C950.266 762.347 949.774 763.462 949.009 764.445C948.266 765.428 947.294 766.193 946.092 766.739C944.89 767.286 943.535 767.559 942.027 767.559C940.301 767.559 938.771 767.187 937.438 766.444C936.105 765.701 935.056 764.642 934.292 763.265C933.549 761.866 933.177 760.227 933.177 758.348C933.177 756.469 933.549 754.83 934.292 753.431C935.056 752.033 936.105 750.962 937.438 750.219C938.771 749.476 940.301 749.104 942.027 749.104C943.776 749.104 945.294 749.476 946.584 750.219C947.895 750.962 948.889 751.956 949.567 753.202C950.266 754.447 950.616 755.824 950.616 757.332ZM947.6 757.529C947.665 756.196 947.447 755.081 946.944 754.185C946.442 753.289 945.753 752.623 944.879 752.186C944.005 751.748 943.055 751.53 942.027 751.53C940.389 751.53 939.012 752.044 937.897 753.071C936.783 754.076 936.182 755.562 936.094 757.529H947.6Z"></path><path style="fill:var(--color-illustrationHighlight010)" d="M979.232 749.334L974.053 767.329H970.841L965.891 752.677L960.909 767.329H957.664L952.55 749.334H955.566L959.401 764.478L964.384 749.334H967.498L972.513 764.445L976.381 749.334H979.232Z"></path><path style="fill:var(--color-illustrationHighlight010)" d="M987.652 749.104C989.685 749.104 991.313 749.64 992.536 750.71C993.782 751.759 994.536 753.18 994.798 754.972H991.946C991.815 753.901 991.367 753.027 990.602 752.349C989.859 751.65 988.854 751.301 987.587 751.301C986.516 751.301 985.675 751.563 985.063 752.087C984.473 752.59 984.178 753.278 984.178 754.152C984.178 754.808 984.374 755.343 984.768 755.758C985.183 756.152 985.686 756.458 986.276 756.676C986.887 756.873 987.718 757.091 988.767 757.332C990.1 757.638 991.171 757.955 991.979 758.282C992.81 758.588 993.509 759.091 994.077 759.79C994.667 760.49 994.962 761.429 994.962 762.609C994.962 764.073 994.405 765.264 993.29 766.182C992.198 767.1 990.734 767.559 988.898 767.559C986.756 767.559 985.008 767.045 983.653 766.018C982.298 764.991 981.501 763.56 981.26 761.724H984.145C984.254 762.817 984.724 763.702 985.554 764.379C986.407 765.057 987.521 765.395 988.898 765.395C989.925 765.395 990.723 765.133 991.291 764.609C991.881 764.084 992.176 763.396 992.176 762.544C992.176 761.844 991.968 761.287 991.553 760.872C991.138 760.457 990.624 760.14 990.012 759.921C989.401 759.703 988.559 759.473 987.488 759.233C986.155 758.927 985.085 758.621 984.276 758.315C983.489 758.009 982.812 757.529 982.244 756.873C981.697 756.196 981.424 755.289 981.424 754.152C981.424 752.644 981.982 751.432 983.096 750.514C984.21 749.574 985.729 749.104 987.652 749.104Z"></path><path style="fill:var(--color-illustrationHighlight010)" d="M1001.14 763.822V767.329H997.538V763.822H1001.14Z"></path><path style="fill:var(--color-illustrationHighlight010)" d="M1012.52 749.104C1014.81 749.104 1016.71 749.716 1018.22 750.94C1019.73 752.164 1020.66 753.803 1021 755.857H1017.86C1017.64 754.567 1017.04 753.562 1016.06 752.841C1015.09 752.098 1013.89 751.727 1012.45 751.727C1011.4 751.727 1010.44 751.967 1009.57 752.448C1008.71 752.929 1008.02 753.672 1007.5 754.677C1006.98 755.66 1006.71 756.884 1006.71 758.348C1006.71 759.812 1006.98 761.047 1007.5 762.052C1008.02 763.035 1008.71 763.767 1009.57 764.248C1010.44 764.729 1011.4 764.969 1012.45 764.969C1013.89 764.969 1015.09 764.598 1016.06 763.855C1017.04 763.112 1017.64 762.096 1017.86 760.806H1021C1020.66 762.882 1019.73 764.532 1018.22 765.756C1016.71 766.958 1014.81 767.559 1012.52 767.559C1010.79 767.559 1009.26 767.187 1007.93 766.444C1006.59 765.701 1005.54 764.642 1004.78 763.265C1004.04 761.866 1003.66 760.227 1003.66 758.348C1003.66 756.469 1004.04 754.83 1004.78 753.431C1005.54 752.033 1006.59 750.962 1007.93 750.219C1009.26 749.476 1010.79 749.104 1012.52 749.104Z"></path><path style="fill:var(--color-illustrationHighlight010)" d="M1033.07 749.104C1034.8 749.104 1036.34 749.476 1037.69 750.219C1039.07 750.962 1040.14 752.033 1040.9 753.431C1041.69 754.83 1042.08 756.469 1042.08 758.348C1042.08 760.227 1041.69 761.866 1040.9 763.265C1040.14 764.642 1039.07 765.701 1037.69 766.444C1036.34 767.187 1034.8 767.559 1033.07 767.559C1031.34 767.559 1029.79 767.187 1028.42 766.444C1027.06 765.701 1025.99 764.642 1025.2 763.265C1024.42 761.866 1024.02 760.227 1024.02 758.348C1024.02 756.469 1024.42 754.83 1025.2 753.431C1025.99 752.033 1027.06 750.962 1028.42 750.219C1029.79 749.476 1031.34 749.104 1033.07 749.104ZM1033.07 751.727C1032 751.727 1031.01 751.967 1030.09 752.448C1029.19 752.929 1028.46 753.672 1027.89 754.677C1027.35 755.66 1027.07 756.884 1027.07 758.348C1027.07 759.79 1027.35 761.014 1027.89 762.019C1028.46 763.003 1029.19 763.735 1030.09 764.215C1031.01 764.696 1032 764.937 1033.07 764.937C1034.14 764.937 1035.12 764.696 1036.02 764.215C1036.94 763.735 1037.67 763.003 1038.22 762.019C1038.79 761.014 1039.07 759.79 1039.07 758.348C1039.07 756.884 1038.79 755.66 1038.22 754.677C1037.67 753.672 1036.94 752.929 1036.02 752.448C1035.12 751.967 1034.14 751.727 1033.07 751.727Z"></path><path style="fill:var(--color-illustrationHighlight010)" d="M1048.17 763.822V767.329H1044.56V763.822H1048.17Z"></path><path style="fill:var(--color-illustrationHighlight010)" d="M1067.57 749.334V767.329H1064.59V763.101C1064.13 764.565 1063.31 765.691 1062.13 766.477C1060.97 767.242 1059.62 767.624 1058.06 767.624C1055.99 767.624 1054.31 766.958 1053.02 765.625C1051.73 764.27 1051.08 762.336 1051.08 759.823V749.334H1054.06V759.528C1054.06 761.32 1054.52 762.708 1055.44 763.691C1056.36 764.653 1057.61 765.133 1059.18 765.133C1060.82 765.133 1062.13 764.609 1063.11 763.56C1064.1 762.489 1064.59 760.938 1064.59 758.905V749.334H1067.57Z"></path><path style="fill:var(--color-illustrationHighlight010)" d="M1082.22 767.329L1075.33 759.233V767.329H1072.35V743.073H1075.33V757.168L1082.12 749.334H1085.76L1077.69 758.282L1085.95 767.329H1082.22Z"></path><path style="fill:var(--color-illustrationHighlight010)" d="M1090.77 763.822V767.329H1087.17V763.822H1090.77Z"></path><path style="fill:var(--color-illustrationHighlight010)" d="M180.783 117C163.23 117 149 131.23 149 148.783V221.99H1946.72V148.783C1946.72 131.23 1932.49 117 1914.94 117H180.783Z"></path><path style="fill:var(--color-illustrationInterface010)" fill-rule="evenodd" clip-rule="evenodd" d="M219.463 148.312V158.907H230.057V148.312H219.463ZM187.68 158.907H198.275V148.313H187.68V158.907ZM203.572 190.69H214.166V180.095H203.572V190.69ZM198.274 190.69H187.68V180.095H198.274V190.69ZM187.68 174.798H198.274V164.204H187.68V174.798ZM214.166 174.798H203.572V164.204H214.166V174.798ZM214.166 158.907H203.572V148.312H214.166V158.907ZM219.463 174.798H230.057V164.204H219.463V174.798ZM230.057 190.69H219.463V180.095H230.057V190.69Z"></path><path style="fill:var(--color-illustrationInterface010)" d="M1186.01 161.207C1181.94 161.207 1178.64 164.506 1178.64 168.575C1178.64 172.644 1181.94 175.942 1186.01 175.942H1298.37C1302.43 175.942 1305.73 172.644 1305.73 168.575C1305.73 164.506 1302.43 161.207 1298.37 161.207H1186.01Z"></path><path style="fill:var(--color-illustrationInterface010)" d="M1386.78 161.207C1382.71 161.207 1379.41 164.506 1379.41 168.575C1379.41 172.644 1382.71 175.942 1386.78 175.942H1499.14C1503.2 175.942 1506.5 172.644 1506.5 168.575C1506.5 164.506 1503.2 161.207 1499.14 161.207H1386.78Z"></path><path style="fill:var(--color-illustrationInterface010)" d="M1580.18 168.575C1580.18 164.506 1583.48 161.207 1587.55 161.207H1699.91C1703.98 161.207 1707.27 164.506 1707.27 168.575C1707.27 172.644 1703.98 175.942 1699.91 175.942H1587.55C1583.48 175.942 1580.18 172.644 1580.18 168.575Z"></path><path style="fill:var(--color-illustrationInterface010)" d="M1788.32 161.207C1784.25 161.207 1780.95 164.506 1780.95 168.575C1780.95 172.644 1784.25 175.942 1788.32 175.942H1900.68C1904.75 175.942 1908.04 172.644 1908.04 168.575C1908.04 164.506 1904.75 161.207 1900.68 161.207H1788.32Z"></path></g><defs><filter id="nk-783" x="525.529" y="207.265" width="81.9418" height="1056.94" filterUnits="userSpaceOnUse" color-interpolation-filters="sRGB"><feFlood flood-opacity="0" result="BackgroundImageFix"></feFlood><feColorMatrix in="SourceAlpha" type="matrix" values="0 0 0 0 0 0 0 0 0 0 0 0 0 0 0 0 0 0 127 0" result="hardAlpha"></feColorMatrix><feOffset dy="14.7354"></feOffset><feGaussianBlur stdDeviation="14.7354"></feGaussianBlur><feColorMatrix type="matrix" values="0 0 0 0 0.0392157 0 0 0 0 0.0392157 0 0 0 0 0.0392157 0 0 0 0.08 0"></feColorMatrix><feBlend mode="normal" in2="BackgroundImageFix" result="effect1_dropShadow_2355_76479"></feBlend><feBlend mode="normal" in="SourceGraphic" in2="effect1_dropShadow_2355_76479" result="shape"></feBlend></filter><clipPath id="nk-782"><rect style="fill:var(--color-white)" width="1490" height="838"></rect></clipPath></defs></svg>