<svg
  id="nksvg"
  style="width: 100%; height: 100%"
  width="1490"
  height="838"
  viewBox="0 0 1490 838"
  fill="none"
  xmlns="http://www.w3.org/2000/svg"
  class="css-0"
>
  <path
    style="fill: var(--color-illustrationBackground020)"
    d="M0 0H1490V838H0V0Z"
  ></path>
  <path
    style="fill: var(--color-illustrationHighlight010)"
    d="M726.677 132C728.67 132 730.448 132.427 732.012 133.281C733.606 134.135 734.848 135.401 735.737 137.077C736.657 138.754 737.117 140.779 737.117 143.151V158.573H731.92V143.958C731.92 141.617 731.353 139.83 730.218 138.596C729.084 137.33 727.535 136.698 725.573 136.698C723.611 136.698 722.047 137.33 720.882 138.596C719.747 139.83 719.18 141.617 719.18 143.958V158.573H713.983V143.958C713.983 141.617 713.416 139.83 712.281 138.596C711.147 137.33 709.598 136.698 707.636 136.698C705.674 136.698 704.11 137.33 702.945 138.596C701.81 139.83 701.243 141.617 701.243 143.958V158.573H696V132.427H701.243V135.417C702.102 134.341 703.19 133.503 704.509 132.902C705.827 132.301 707.237 132 708.74 132C710.763 132 712.573 132.443 714.167 133.329C715.761 134.214 716.988 135.496 717.846 137.172C718.613 135.591 719.809 134.341 721.434 133.424C723.059 132.475 724.806 132 726.677 132Z"
  ></path>
  <path
    style="fill: var(--color-illustrationHighlight010)"
    d="M742.041 145.381C742.041 142.756 742.562 140.431 743.605 138.406C744.678 136.381 746.119 134.815 747.928 133.708C749.768 132.569 751.791 132 753.999 132C755.992 132 757.724 132.411 759.196 133.234C760.699 134.025 761.894 135.021 762.784 136.223V132.427H768.073V158.573H762.784V154.682C761.894 155.916 760.683 156.944 759.15 157.766C757.617 158.589 755.869 159 753.907 159C751.73 159 749.737 158.431 747.928 157.292C746.119 156.121 744.678 154.508 743.605 152.452C742.562 150.364 742.041 148.007 742.041 145.381ZM762.784 145.476C762.784 143.673 762.416 142.107 761.68 140.779C760.974 139.45 760.039 138.438 758.874 137.742C757.709 137.046 756.452 136.698 755.103 136.698C753.754 136.698 752.497 137.046 751.331 137.742C750.166 138.406 749.216 139.402 748.48 140.731C747.775 142.028 747.422 143.578 747.422 145.381C747.422 147.185 747.775 148.766 748.48 150.127C749.216 151.487 750.166 152.531 751.331 153.258C752.527 153.954 753.784 154.302 755.103 154.302C756.452 154.302 757.709 153.954 758.874 153.258C760.039 152.562 760.974 151.55 761.68 150.221C762.416 148.861 762.784 147.279 762.784 145.476Z"
  ></path>
  <path
    style="fill: var(--color-illustrationHighlight010)"
    d="M785.813 145.334L794 158.573H788.067L782.594 149.699L777.443 158.573H771.97L780.156 145.714L771.97 132.427H777.903L783.376 141.301L788.527 132.427H794L785.813 145.334Z"
  ></path>
  <path
    style="fill: var(--color-illustrationPalette040)"
    d="M304 271C304 266.582 307.582 263 312 263H354.401C358.819 263 362.401 266.582 362.401 271V710C362.401 714.418 358.819 718 354.401 718H312C307.582 718 304 714.418 304 710V271Z"
  ></path>
  <path
    style="fill: var(--color-illustrationPalette040)"
    d="M603.791 271C603.791 266.582 607.373 263 611.791 263H654.192C658.61 263 662.192 266.582 662.192 271V710C662.192 714.418 658.61 718 654.192 718H611.791C607.373 718 603.791 714.418 603.791 710V271Z"
  ></path>
  <path
    style="fill: var(--color-illustrationPalette040)"
    d="M902.48 271C902.48 266.582 906.062 263 910.48 263H952.881C957.3 263 960.881 266.582 960.881 271V710C960.881 714.418 957.3 718 952.881 718H910.48C906.062 718 902.48 714.418 902.48 710V271Z"
  ></path>
  <path
    style="fill: var(--color-illustrationPalette040)"
    d="M529.119 271C529.119 266.582 532.7 263 537.119 263H579.52C583.938 263 587.52 266.582 587.52 271V710C587.52 714.418 583.938 718 579.52 718H537.119C532.7 718 529.119 714.418 529.119 710V271Z"
  ></path>
  <path
    style="fill: var(--color-illustrationPalette040)"
    d="M827.808 271C827.808 266.582 831.39 263 835.808 263H878.209C882.627 263 886.209 266.582 886.209 271V710C886.209 714.418 882.627 718 878.209 718H835.808C831.39 718 827.808 714.418 827.808 710V271Z"
  ></path>
  <path
    style="fill: var(--color-illustrationPalette040)"
    d="M1127.6 271C1127.6 266.582 1131.18 263 1135.6 263H1178C1182.42 263 1186 266.582 1186 271V710C1186 714.418 1182.42 718 1178 718H1135.6C1131.18 718 1127.6 714.418 1127.6 710V271Z"
  ></path>
  <path
    style="fill: var(--color-illustrationPalette040)"
    d="M378.672 271C378.672 266.582 382.254 263 386.672 263H429.073C433.492 263 437.073 266.582 437.073 271V710C437.073 714.418 433.492 718 429.073 718H386.672C382.254 718 378.672 714.418 378.672 710V271Z"
  ></path>
  <path
    style="fill: var(--color-illustrationPalette040)"
    d="M678.463 271C678.463 266.582 682.045 263 686.463 263H728.864C733.283 263 736.864 266.582 736.864 271V710C736.864 714.418 733.283 718 728.864 718H686.463C682.045 718 678.463 714.418 678.463 710V271Z"
  ></path>
  <path
    style="fill: var(--color-illustrationPalette040)"
    d="M977.152 271C977.152 266.582 980.734 263 985.152 263H1028.66C1033.07 263 1036.66 266.582 1036.66 271V710C1036.66 714.418 1033.07 718 1028.66 718H985.152C980.734 718 977.152 714.418 977.152 710V271Z"
  ></path>
  <path
    style="fill: var(--color-illustrationPalette040)"
    d="M453.345 271C453.345 266.582 456.926 263 461.345 263H504.848C509.266 263 512.848 266.582 512.848 271V710C512.848 714.418 509.266 718 504.848 718H461.345C456.926 718 453.345 714.418 453.345 710V271Z"
  ></path>
  <path
    style="fill: var(--color-illustrationPalette040)"
    d="M753.136 271C753.136 266.582 756.717 263 761.136 263H803.537C807.955 263 811.537 266.582 811.537 271V710C811.537 714.418 807.955 718 803.537 718H761.136C756.717 718 753.136 714.418 753.136 710V271Z"
  ></path>
  <path
    style="fill: var(--color-illustrationPalette040)"
    d="M1052.93 271C1052.93 266.582 1056.51 263 1060.93 263H1103.33C1107.75 263 1111.33 266.582 1111.33 271V710C1111.33 714.418 1107.75 718 1103.33 718H1060.93C1056.51 718 1052.93 714.418 1052.93 710V271Z"
  ></path>
  <path
    style="fill: var(--color-illustrationHighlight010)"
    fill-rule="evenodd"
    clip-rule="evenodd"
    d="M1186 184L1186 222L1182.47 222L1182.47 205.309L308 205.309L308 222L304.465 222L304.465 184L308 184L308 201.6L1182.47 201.6L1182.47 184L1186 184Z"
  ></path>
</svg>
