<svg id="theme-motion-do-01" style="width: 100%; height: 100%" width="1491" height="839" viewBox="0 0 1491 839" fill="none" xmlns="http://www.w3.org/2000/svg" class="css-0"><path style="fill:var(--color-illustrationBackground020)" d="M0 4.90235C0 2.69321 1.79 0.902344 3.99807 0.902344H1486C1488.21 0.902344 1490 2.6932 1490 4.90234V834.906C1490 837.115 1488.21 838.906 1486 838.906H3.99809C1.79002 838.906 0 837.115 0 834.906V4.90235Z"></path><rect style="fill:var(--color-illustrationHighlight010)" x="-2" y="408.902" width="652" height="23"></rect><rect style="fill:var(--color-illustrationShadow010)" x="839" y="408.902" width="652" height="23"></rect><g filter="url(#filter0_nk-792)"><circle style="fill:var(--color-illustrationHighlight010)" cx="745" cy="419.902" r="148"></circle></g><path style="fill:var(--color-illustrationInterface010)" d="M720.875 452.241L688.037 419.402L676.854 430.506L720.875 474.527L815.375 380.027L804.272 368.923L720.875 452.241Z"></path><rect style="fill:var(--color-illustrationHighlight010)" x="479.8" y="523.839" width="11.0105" height="77.0736" rx="5.50526" transform="rotate(-110.192 479.8 523.839)"></rect><rect style="fill:var(--color-illustrationHighlight010)" x="750" y="693.976" width="11.0105" height="77.0736" rx="5.50526" transform="rotate(-180 750 693.976)"></rect><rect style="fill:var(--color-illustrationHighlight010)" x="560.691" y="671.319" width="11.0105" height="105.982" rx="5.50526" transform="rotate(-142.126 560.691 671.319)"></rect><rect style="fill:var(--color-illustrationHighlight010)" x="1009.2" y="316.039" width="11.0105" height="77.0736" rx="5.50526" transform="rotate(69.8083 1009.2 316.039)"></rect><rect style="fill:var(--color-illustrationHighlight010)" x="739" y="145.902" width="11.0105" height="77.0736" rx="5.50526"></rect><rect style="fill:var(--color-illustrationHighlight010)" x="928.309" y="168.559" width="11.0105" height="105.982" rx="5.50526" transform="rotate(37.8744 928.309 168.559)"></rect><defs><filter id="filter0_nk-792" x="581" y="263.902" width="328" height="328" filterUnits="userSpaceOnUse" color-interpolation-filters="sRGB"><feFlood flood-opacity="0" result="BackgroundImageFix"></feFlood><feColorMatrix in="SourceAlpha" type="matrix" values="0 0 0 0 0 0 0 0 0 0 0 0 0 0 0 0 0 0 127 0" result="hardAlpha"></feColorMatrix><feOffset dy="8"></feOffset><feGaussianBlur stdDeviation="8"></feGaussianBlur><feColorMatrix type="matrix" values="0 0 0 0 0.0392157 0 0 0 0 0.0392157 0 0 0 0 0.0392157 0 0 0 0.08 0"></feColorMatrix><feBlend mode="normal" in2="BackgroundImageFix" result="effect1_dropShadow_12:186495"></feBlend><feBlend mode="normal" in="SourceGraphic" in2="effect1_dropShadow_12:186495" result="shape"></feBlend></filter></defs></svg>