<?xml version="1.0" encoding="UTF-8"?>
<svg height="100%" width="100%" xmlns="http://www.w3.org/2000/svg">
	<defs>
		<font horiz-adv-x="562" id="web">
			<font-face alphabetic="0" ascent="992" descent="-319" font-family="" panose-1="2 10 5 4 6 5 6 9 2 4"/>
			<missing-glyph d="M0 770H427V0H0ZM60 712V58H367V712Z" horiz-adv-x="427"/>
			<glyph d="" horiz-adv-x="238" unicode=" "/>
			<glyph d="M130 726Q162 726 179 705T197 653Q197 616 190 563L145 201H115L72 563Q71 571 69 586T65 619T63 653Q63 685 80 705T130 726ZM130 131Q166 131 186 111T206 56Q206 21 185 1T130 -19Q95 -19 74 1T54 56Q54 92 74 111T130 131Z" horiz-adv-x="246" unicode="!"/>
			<glyph d="M114 750Q141 750 156 731T172 681Q172 661 167 635T154 568Q153 563 145 530T133 462H93Q86 510 71 571Q62 611 57 636T53 681Q53 712 69 731T114 750ZM285 750Q312 750 327 731T343 681Q343 661 338 635T325 568Q324 563 316 530T304 462H264Q257 510 242 571Q233 611 228 636T224 681Q224 712 240 731T285 750Z" horiz-adv-x="397" unicode="&quot;"/>
			<glyph d="M228 682L278 673L237 477H430L473 682L523 673L483 477H588V428H471L435 245H549V197H425L381 -14L332 -2L373 197H180L136 -14L86 -2L127 197H18V245H137L175 428H58V477H186ZM227 428L189 245H383L420 428Z" horiz-adv-x="598" unicode="#"/>
			<glyph d="M236 705H283V650Q320 648 359 634T426 595T453 532Q453 506 436 487T394 469Q368 469 348 485T329 527Q329 547 339 564T368 588Q349 600 328 606T283 614V373Q359 326 394 299T448 240T467 161Q467 112 441 75T373 17T283 -8V-84H236V-9Q195 -7 151 7T76 49T45 117Q45 144 62 162T108 181Q133 181 151 164T170 122Q170 101 158 84T127 60Q150 42 176 34T236 25V266Q178 297 141 323T81 389T57 484Q57 533 82 569T147 625T236 649ZM236 613Q196 608 172 585T149 523Q149 495 160 473T190 435T236 400ZM283 241V27Q326 32 351 57T377 124Q377 150 363 171T331 207T283 241Z" horiz-adv-x="514" unicode="$"/>
			<glyph d="M185 736Q239 736 273 704T324 624T340 524Q340 474 323 426T271 347T185 316Q133 316 98 347T46 426T29 524Q29 577 44 625T95 704T185 736ZM185 711Q140 711 126 651T112 524Q112 458 126 399T185 341Q229 341 242 399T255 524Q255 591 242 651T185 711ZM586 682L627 656L189 -15L147 12ZM649 405Q703 405 738 373T789 293T805 193Q805 143 788 95T736 16T649 -15Q598 -15 562 16T510 95T493 193Q493 245 509 293T560 373T649 405ZM649 380Q605 380 591 320T578 193Q578 126 591 68T649 11Q721 11 721 193Q721 380 649 380Z" horiz-adv-x="834" unicode="%"/>
			<glyph d="M341 727Q382 727 415 712T468 670T487 611Q487 570 466 537T405 468L316 399Q349 346 390 289T473 182Q515 244 545 328L452 363V384H682V363L602 327Q547 219 499 151L589 48L652 21V0H490L432 70Q387 27 335 6T222 -15Q160 -15 115 5T45 62T21 151Q21 201 45 241T109 312L207 385Q142 502 142 563Q142 612 168 649T239 706T341 727ZM325 688Q286 688 262 661T238 588Q238 538 295 434L326 460Q355 483 375 520T396 595Q396 640 377 664T325 688ZM231 344Q187 303 165 273T136 222T129 173Q129 135 143 102T183 48T246 28Q288 28 328 47T406 101Q303 226 231 344Z" horiz-adv-x="692" unicode="&amp;"/>
			<glyph d="M114 750Q141 750 156 731T172 681Q172 661 167 635T154 568Q153 563 145 530T133 462H93Q86 510 71 571Q62 611 57 636T53 681Q53 712 69 731T114 750Z" horiz-adv-x="225" unicode="'"/>
			<glyph d="M311 770L325 756Q234 677 188 562T142 320Q142 192 188 78T325 -117L311 -132Q182 -55 111 60T40 320Q40 464 111 579T311 770Z" horiz-adv-x="340" unicode="("/>
			<glyph d="M29 770Q158 694 229 579T300 320Q300 175 229 60T29 -132L15 -117Q107 -38 153 76T199 320Q199 448 153 562T15 756Z" horiz-adv-x="340" unicode=")"/>
			<glyph d="M147 694Q170 694 183 671Q195 649 212 567Q214 559 215 553T218 542L197 531Q191 537 169 558T130 598T107 629Q102 639 102 650Q102 668 115 681T147 694ZM299 694Q317 694 330 681T344 650Q344 639 339 629Q333 618 313 597T280 563T262 545L247 531L228 542Q229 547 235 576T248 633T262 671Q277 694 299 694ZM74 555Q90 555 117 547T165 532T192 523L191 496Q149 483 121 475T74 468Q55 468 42 480T30 512Q30 530 42 542T74 555ZM372 555Q390 555 403 542T416 512Q416 493 403 480T372 468Q356 468 328 475T277 489Q272 491 254 496L252 523L273 530Q279 532 302 539T343 551T372 555ZM196 488L218 475Q216 469 215 462T213 451Q206 418 199 394T184 354Q179 343 169 337T148 331Q129 331 116 344T103 376Q103 386 108 396Q117 414 155 449T196 488ZM248 487L266 470Q330 409 338 396Q343 386 343 376Q343 357 330 344T299 331Q276 331 261 354Q250 374 235 444L228 475Z" horiz-adv-x="446" unicode="*"/>
			<glyph d="M198 557H262V374H431V314H262V127H198V314H30V374H198Z" horiz-adv-x="461" unicode="+"/>
			<glyph d="M118 131Q159 131 180 107T201 32Q201 -20 169 -75T85 -174L51 -138Q76 -105 91 -79T117 -20Q83 -19 64 1T45 56Q45 91 64 111T118 131Z" horiz-adv-x="246" unicode=","/>
			<glyph d="M25 344H310V255H25Z" horiz-adv-x="335" unicode="-"/>
			<glyph d="M119 131Q155 131 175 111T195 56Q195 21 174 1T119 -19Q84 -19 64 1T44 56Q44 92 64 111T119 131Z" horiz-adv-x="239" unicode="."/>
			<glyph d="M298 770L345 756L60 -125L11 -109Z" horiz-adv-x="333" unicode="/"/>
			<glyph d="M306 687Q384 687 442 644T531 521T563 334Q563 229 531 151T442 30T306 -12Q227 -12 168 30T77 150T46 334Q46 442 77 521T168 644T306 687ZM306 647Q234 647 197 568T161 334Q161 182 197 104T306 27Q376 27 412 104T448 334Q448 489 412 568T306 647Z" horiz-adv-x="610" unicode="0"/>
			<glyph d="M242 684V56L325 21V0H56V21L140 56V599L56 637V658Z" horiz-adv-x="370" unicode="1"/>
			<glyph d="M241 687Q306 687 353 666T427 608T453 518Q453 456 414 388T310 250T150 99H414L454 179H475V0H26V32Q148 148 243 279T338 521Q338 583 307 615T217 647Q169 647 133 626Q166 589 166 556Q166 528 148 510T104 493Q77 493 58 511T40 557Q40 596 65 625T136 671T241 687Z" horiz-adv-x="534" unicode="2"/>
			<glyph d="M267 687Q325 687 370 666T439 608T464 522Q464 475 443 438T385 377T303 344V339Q383 331 434 291T486 175Q486 120 456 77T373 11T250 -12Q192 -12 147 4T77 49T52 118Q52 145 70 164T116 183Q142 183 160 164T178 118Q178 97 167 79T142 47Q159 38 182 33T229 28Q274 28 306 44T354 91T371 162Q371 237 316 277T154 326V349Q251 358 301 402T351 516Q351 574 322 609T233 644Q193 644 166 632Q180 618 190 599T200 559Q200 541 191 526T168 502T138 494Q111 494 93 513T75 560Q75 597 99 625T168 670T267 687Z" horiz-adv-x="537" unicode="3"/>
			<glyph d="M394 687H422V245H514V173H422V56L505 21V0H237V21L320 56V173H19V205ZM320 533L105 245H320Z" horiz-adv-x="561" unicode="4"/>
			<glyph d="M85 675H434V575H127L109 402Q182 421 239 421Q310 421 361 395T439 322T466 209Q466 141 434 91T348 14T227 -12Q170 -12 128 4T63 50T40 120Q40 147 57 165T102 184Q128 184 146 166T164 124Q164 100 151 83T118 51Q136 40 159 34T207 29Q250 29 282 48T332 102T350 183Q350 255 313 296T208 338Q153 338 93 316L73 330Z" horiz-adv-x="525" unicode="5"/>
			<glyph d="M317 687Q357 687 396 674T462 634T488 567Q488 539 470 520T425 501Q400 501 382 517T365 560Q365 580 375 597T403 630Q376 644 329 644Q277 644 239 607T181 501T161 333Q204 374 248 397T340 421Q396 421 434 394T492 319T511 213Q511 146 482 95T402 16T284 -12Q199 -12 145 34T69 154T46 315Q46 423 80 507T176 639T317 687ZM295 355Q263 355 231 339T161 296Q161 166 193 96T287 27Q320 27 344 47T382 106T395 198Q395 275 369 315T295 355Z" horiz-adv-x="570" unicode="6"/>
			<glyph d="M33 675H441V642L226 0H90L379 575H97L54 496H33Z" horiz-adv-x="465" unicode="7"/>
			<glyph d="M274 687Q335 687 382 668T455 616T481 538Q481 480 443 437T347 369Q394 345 428 320T483 260T505 182Q505 124 476 80T397 12T279 -12Q211 -12 158 8T77 67T49 155Q49 219 89 262T195 332Q137 367 104 411T72 513Q72 564 97 603T168 665T274 687ZM273 647Q242 647 218 634T182 597T169 544Q169 510 190 481T240 433T311 391Q348 414 367 452T387 530Q387 563 373 590T334 632T273 647ZM232 313Q192 292 170 249T149 164Q149 101 184 64T282 27Q320 27 348 41T391 82T407 144Q407 183 380 215T316 269T232 313Z" horiz-adv-x="554" unicode="8"/>
			<glyph d="M286 687Q371 687 424 640T501 520T524 360Q524 251 491 166T397 35T253 -12Q212 -12 172 1T107 41T81 108Q81 136 99 155T145 174Q170 174 187 157T205 114Q205 96 195 79T167 44Q182 39 203 34T241 30Q293 30 331 67T389 174T409 342Q366 300 322 276T230 253Q174 253 135 280T78 355T59 462Q59 529 87 580T167 659T286 687ZM283 647Q232 647 203 604T175 477Q175 320 275 320Q307 320 340 336T409 379Q409 509 376 578T283 647Z" horiz-adv-x="570" unicode="9"/>
			<glyph d="M119 486Q155 486 175 466T195 411Q195 376 174 356T119 336Q84 336 64 356T44 411Q44 447 64 466T119 486ZM119 131Q155 131 175 111T195 56Q195 21 174 1T119 -19Q84 -19 64 1T44 56Q44 92 64 111T119 131Z" horiz-adv-x="239" unicode=":"/>
			<glyph d="M120 486Q156 486 176 466T196 411Q196 376 175 356T120 336Q85 336 65 356T45 411Q45 447 65 466T120 486ZM119 131Q160 131 181 107T202 32Q202 -20 170 -75T86 -174L52 -138Q77 -105 92 -79T118 -20Q84 -19 65 1T46 56Q46 91 65 111T119 131Z" horiz-adv-x="247" unicode=";"/>
			<glyph d="M493 525L516 465L117 295L516 124L493 65L15 272V318Z" horiz-adv-x="531" unicode="&lt;"/>
			<glyph d="M30 446H410V385H30ZM30 301H410V241H30Z" horiz-adv-x="440" unicode="="/>
			<glyph d="M38 525L516 318V272L38 65L15 124L414 295L15 465Z" horiz-adv-x="531" unicode="&gt;"/>
			<glyph d="M228 726Q289 726 336 703T408 641T434 554Q434 516 415 482T370 422T297 353Q259 317 237 283T215 213V201L199 198Q186 219 179 240T172 285Q172 308 181 329T204 369T241 416Q266 444 282 466T308 513T319 568Q319 600 306 627T269 670T209 686Q181 686 161 681T126 666Q162 630 162 593Q162 566 144 549T100 533Q73 533 55 551T37 596Q37 635 61 664T128 710T228 726ZM215 131Q251 131 271 111T291 56Q291 21 271 1T215 -19Q180 -19 160 1T140 56Q140 92 160 111T215 131Z" horiz-adv-x="452" unicode="?"/>
			<glyph d="M444 619Q536 619 615 580T741 473T788 318Q788 244 759 183T675 86T547 50Q500 50 479 68T457 119Q456 123 456 132Q434 98 398 77T323 56Q269 56 238 91T208 189Q208 258 232 324T312 435T456 480Q478 480 498 474T539 458L590 476H607L552 161Q550 151 550 135Q550 120 559 109T584 99Q634 99 662 135T702 220T713 309Q713 387 682 449T590 547T440 583Q341 583 270 538T164 418T128 256Q128 158 167 86T283 -25T465 -65Q519 -65 573 -49T679 -4L694 -30Q632 -71 565 -91T426 -112Q315 -112 228 -66T94 61T46 249Q46 356 98 440T241 572T444 619ZM446 442Q404 442 372 403T323 304T306 187Q306 149 321 130T362 112Q415 112 465 191L503 413Q494 427 479 434T446 442Z" horiz-adv-x="834" unicode="@"/>
			<glyph d="M351 727H395L659 56L741 21V0H463V21L548 56L469 257H216L141 56L226 21V0H-5V21L77 56ZM340 584L231 295H454Z" horiz-adv-x="736" unicode="A"/>
			<glyph d="M35 713H285Q425 713 497 670T570 542Q570 496 545 461T480 404T395 374V372Q451 367 498 347T576 289T607 195Q607 129 569 85T471 21T349 0H35V21L119 56V657L35 691ZM226 674V386L279 389Q326 392 364 408T426 456T449 533Q449 597 409 633T297 672ZM226 349V39L259 40Q281 40 325 42Q372 45 408 62T466 112T487 187Q487 259 450 293T362 337T226 349Z" horiz-adv-x="656" unicode="B"/>
			<glyph d="M391 727Q419 727 441 722T494 708Q512 703 531 698T566 694H600V490H555Q532 564 508 607T457 668T395 686Q326 686 274 647T194 536T166 368Q166 268 197 195T284 85T411 48Q455 48 488 55T536 68T590 93L606 68Q555 27 497 6T372 -14Q274 -14 200 30T85 155T45 347Q45 459 89 545T211 679T391 727Z" horiz-adv-x="654" unicode="C"/>
			<glyph d="M35 713H312Q422 713 505 668T635 543T681 356Q681 250 635 169T505 44T312 0H35V21L119 56V657L35 691ZM226 673V40H293Q372 40 432 79T526 190T560 356Q560 450 526 522T432 633T293 673Z" horiz-adv-x="727" unicode="D"/>
			<glyph d="M35 713H545V520H523Q494 587 471 619T420 662T348 673H226V385H269Q321 385 347 391T390 417T425 477H446V254H425Q407 296 390 314T348 339T269 346H226V40H363Q408 40 435 51T485 97T538 202H559V0H35V21L119 56V657L35 691Z" horiz-adv-x="594" unicode="E"/>
			<glyph d="M35 713H535V520H514Q485 586 461 618T411 662T339 673H226V372H269Q322 372 348 378T390 403T425 464H446V241H425Q407 283 390 301T348 326T269 333H226V56L309 21V0H35V21L119 56V657L35 691Z" horiz-adv-x="563" unicode="F"/>
			<glyph d="M389 727Q419 727 441 722T496 708Q513 703 531 698T566 694H601V500H556Q532 571 508 611T458 669T395 686Q326 686 274 647T194 536T166 368Q166 259 195 182T279 66T416 26Q465 26 506 48V282L422 317V338H686V317L612 286V44Q509 -14 387 -14Q282 -14 205 29T86 154T45 347Q45 459 88 545T210 679T389 727Z" horiz-adv-x="695" unicode="G"/>
			<glyph d="M35 713H309V691L226 657V385H556V657L472 691V713H746V691L663 657V56L746 21V0H472V21L556 56V346H226V56L309 21V0H35V21L119 56V657L35 691Z" horiz-adv-x="781" unicode="H"/>
			<glyph d="M35 713H309V691L226 657V56L309 21V0H35V21L119 56V657L35 691Z" horiz-adv-x="344" unicode="I"/>
			<glyph d="M146 713H420V691L336 657V193Q336 94 293 40T163 -14Q116 -14 81 0T28 38T10 94Q10 123 26 141T72 159Q100 159 116 141T132 94Q132 80 127 68T117 47T109 34Q127 26 149 26Q190 26 210 57T230 163V657L146 691Z" horiz-adv-x="440" unicode="J"/>
			<glyph d="M35 713H309V691L226 657V357L289 399L522 657L431 691V713H676V691L593 657L376 427L633 56H634L713 21V0H416V21L503 56L306 346L226 304V56L309 21V0H35V21L119 56V657L35 691Z" horiz-adv-x="705" unicode="K"/>
			<glyph d="M35 713H309V691L226 657V40H326Q376 40 406 54T463 108T522 232H543V0H35V21L119 56V657L35 691Z" unicode="L"/>
			<glyph d="M35 713H228L463 192L704 713H889V691L806 657V56L889 21V0H617V21L700 56V564L443 36H419L168 596V56L251 21V0H35V21L119 56V657L35 691Z" horiz-adv-x="924" unicode="M"/>
			<glyph d="M35 713H201L599 181V657L515 691V713H731V691L647 657V-9H609L168 579V56L251 21V0H35V21L119 56V657L35 691Z" horiz-adv-x="757" unicode="N"/>
			<glyph d="M389 727Q491 727 569 681T690 550T733 356Q733 246 690 162T569 32T389 -14Q287 -14 209 32T88 162T45 356Q45 466 88 550T209 681T389 727ZM389 687Q323 687 272 646T194 530T166 356Q166 258 194 183T272 67T389 26Q455 26 505 67T584 183T612 356Q612 455 584 530T505 646T389 687Z" horiz-adv-x="778" unicode="O"/>
			<glyph d="M35 713H299Q381 713 441 687T533 615T565 508Q565 440 531 388T435 308T291 280Q257 280 226 283V56L309 21V0H35V21L119 56V657L35 691ZM226 673V320Q337 320 390 370T444 508Q444 557 423 594T365 652T279 673Z" horiz-adv-x="596" unicode="P"/>
			<glyph d="M389 727Q491 727 569 681T690 550T733 356Q733 252 694 170T583 41T418 -13V-16L553 -77Q605 -100 656 -100Q674 -100 700 -93T745 -78L763 -97Q733 -125 708 -143T655 -174T597 -187Q556 -187 522 -169T456 -119L352 -12Q260 -4 190 44T83 172T45 356Q45 466 88 550T209 681T389 727ZM389 687Q323 687 272 646T194 530T166 356Q166 258 194 183T272 67T389 26Q455 26 505 67T584 183T612 356Q612 455 584 530T505 646T389 687Z" horiz-adv-x="778" unicode="Q"/>
			<glyph d="M35 713H309Q382 713 437 690T522 627T552 532Q552 479 525 438T452 373T346 339V337Q381 328 408 310T464 258T529 163L598 48L661 21V0H499L419 144Q379 215 349 253T292 308T226 329V56L309 21V0H35V21L119 56V657L35 690ZM226 673V366Q331 366 381 410T432 532Q432 574 414 606T363 655T288 673Z" horiz-adv-x="646" unicode="R"/>
			<glyph d="M268 727Q298 727 320 722T369 709Q390 702 407 698T445 694H465V529H425Q400 590 375 624T325 672T266 686Q213 686 184 659T155 585Q155 546 176 515T230 463T316 412Q377 378 413 352T474 289T500 200Q500 135 469 86T381 12T251 -14Q218 -14 192 -8T140 6Q123 11 106 15T75 19H54V197H94Q127 104 167 65T262 26Q327 26 365 58T403 149Q403 186 381 216T327 268T242 320Q181 355 144 381T82 445T56 533Q56 591 83 635T158 703T268 727Z" horiz-adv-x="556" unicode="S"/>
			<glyph d="M12 713H624V499H602Q574 569 546 607T487 659T418 673H371V56L454 21V0H181V21L265 56V673H218Q178 673 148 659T89 607T33 499H12Z" horiz-adv-x="636" unicode="T"/>
			<glyph d="M20 713H294V691L211 657V249Q211 148 255 96T384 44Q471 44 514 94T558 245V657L474 691V713H690V691L610 657V247Q610 118 547 52T359 -14Q235 -14 169 53T104 252V657L20 691Z" horiz-adv-x="710" unicode="U"/>
			<glyph d="M-10 713H270V691L184 657L387 126L574 657L481 691V713H717V691L635 657L380 -14H328L72 657L-10 691Z" horiz-adv-x="707" unicode="V"/>
			<glyph d="M-10 713H268V691L183 657H182L349 134L508 675H561L745 136L894 657L805 691V713H1040V691L954 657L741 -14H688L512 494L341 -14H289L72 657L-10 691Z" horiz-adv-x="1029" unicode="W"/>
			<glyph d="M31 713H312V691L235 657L378 422L516 657L431 691V713H665V691L585 657L400 386L601 56L681 21V0H401V21L478 56L318 318L165 56L252 21V0H16V21L96 56L296 354L111 657L31 691Z" horiz-adv-x="697" unicode="X"/>
			<glyph d="M-10 713H278V691L192 657L344 395L484 657L398 691V713H633V691L552 657L366 346V56L449 21V0H176V21L260 56V331L71 657L-10 691Z" horiz-adv-x="623" unicode="Y"/>
			<glyph d="M53 713H562V685L163 41L344 44Q392 45 416 56T463 101T528 219H559V0H30V28L430 672L256 668Q209 667 185 656T140 612T83 500H53Z" horiz-adv-x="621" unicode="Z"/>
			<glyph d="M79 770H270V735H178V-95H270V-129H79Z" horiz-adv-x="285" unicode="["/>
			<glyph d="M46 771L332 -109L285 -125L-2 757Z" horiz-adv-x="343" unicode="\"/>
			<glyph d="M15 770H205V-129H15V-95H106V735H15Z" horiz-adv-x="285" unicode="]"/>
			<glyph d="M231 691H251L467 356L448 341L241 558L34 341L15 355Z" horiz-adv-x="482" unicode="^"/>
			<glyph d="M0 -49H334V-115H0Z" horiz-adv-x="334" unicode="_"/>
			<glyph d="M126 741L187 589L169 577L30 729Z" horiz-adv-x="210" unicode="`"/>
			<glyph d="M247 523Q343 523 385 481T428 349V100Q428 69 436 56T462 43Q480 43 506 57L518 39Q491 13 465 1T411 -10Q339 -10 333 62Q297 24 260 7T179 -10Q115 -10 78 22T42 111Q42 165 72 202T166 263T332 304V364Q332 425 307 454T230 484Q186 484 155 471Q164 454 169 441T174 414Q174 388 158 371T116 354Q90 354 74 370T59 414Q59 444 84 469T152 508T247 523ZM332 269Q236 248 191 211T146 119Q146 84 164 66T219 48Q249 48 276 60T332 98Z" horiz-adv-x="525" unicode="a"/>
			<glyph d="M172 770V426Q207 475 246 499T333 523Q427 523 475 457T524 264Q524 182 495 120T410 24T276 -10Q169 -10 77 24L76 698L2 721V742ZM300 452Q261 452 228 433T172 381V86Q195 58 222 44T282 30Q325 30 356 57T403 135T420 257Q420 317 405 361T364 428T300 452Z" horiz-adv-x="567" unicode="b"/>
			<glyph d="M294 523Q339 523 372 510T422 473T440 420Q440 389 422 372T376 356Q347 356 331 372T316 420Q316 435 321 449T336 482Q316 487 294 487Q249 487 216 461T165 385T148 266Q148 197 168 148T225 73T316 47Q342 47 369 54T418 74L430 49Q351 -10 264 -10Q195 -10 145 19T69 106T43 247Q43 329 75 391T164 488T294 523Z" horiz-adv-x="466" unicode="c"/>
			<glyph d="M491 770V54L565 34V14L395 -10V87Q360 37 321 13T235 -10Q140 -10 91 56T43 249Q43 331 72 393T158 489T291 523Q349 523 395 501V698L320 721V742ZM285 483Q242 483 211 456T163 378T147 257Q147 194 161 148T203 77T268 53Q308 53 340 74T395 134V411Q351 483 285 483Z" horiz-adv-x="593" unicode="d"/>
			<glyph d="M267 523Q333 523 379 494T448 413T471 289Q471 273 469 255H148Q148 192 169 146T228 77T320 53Q353 53 386 60T446 82L458 57Q376 -10 279 -10Q206 -10 153 20T71 111T43 257Q43 336 71 396T151 490T267 523ZM265 487Q213 487 183 436T149 292L366 305Q366 392 341 439T265 487Z" horiz-adv-x="518" unicode="e"/>
			<glyph d="M284 770Q335 770 362 749T389 694Q389 671 376 657T338 644Q314 644 301 657T288 694Q288 712 296 733H286Q250 733 232 705T215 612V513H347V473H215V56L308 21V0H45V21L119 56V473H28V513H119V580Q119 669 160 719T284 770Z" horiz-adv-x="365" unicode="f"/>
			<glyph d="M451 578Q473 578 485 566T497 535Q497 511 482 498T438 486H370Q431 440 431 350Q431 297 408 258T343 199T241 179Q203 179 171 188L139 129Q142 108 160 98T217 88H336Q413 88 453 54T494 -41Q494 -95 465 -138T380 -205T242 -230Q133 -230 79 -198T26 -107Q26 -77 35 -56T63 -20T115 13Q89 26 75 47T62 93Q62 124 80 147T142 198Q99 218 75 257T52 350Q52 404 74 443T139 502T241 523Q297 523 337 505L403 559Q415 569 427 573T451 578ZM241 487Q199 487 175 450T151 350Q151 286 175 250T241 214Q284 214 308 250T332 350Q332 415 308 451T241 487ZM139 4Q123 -19 115 -38T108 -83Q108 -133 142 -163T242 -194Q297 -194 334 -178T388 -136T406 -79Q406 -41 385 -22T327 -4H202Q168 -4 139 4Z" horiz-adv-x="512" unicode="g"/>
			<glyph d="M196 770V425Q280 523 365 523Q435 523 472 482T510 371V56L584 21V0H342V21L414 55V354Q414 451 318 451Q289 451 255 432T196 382V55L268 21V0H26V21L100 56V698L26 721V742Z" horiz-adv-x="607" unicode="h"/>
			<glyph d="M153 751Q183 751 199 735T215 690Q215 661 199 644T153 628Q124 628 108 644T92 690Q92 719 108 735T153 751ZM205 523V56L279 21V0H35V21L109 56V451L35 474V495Z" horiz-adv-x="307" unicode="i"/>
			<glyph d="M154 751Q183 751 199 735T216 690Q216 661 199 644T154 628Q125 628 109 644T93 690Q93 719 109 735T154 751ZM206 523V-40Q206 -130 163 -180T37 -230Q-24 -230 -54 -208T-85 -150Q-85 -126 -71 -111T-31 -97Q-7 -97 7 -111T21 -149Q21 -167 13 -189Q21 -193 35 -193Q72 -193 91 -166T110 -78V451L35 474V495Z" horiz-adv-x="298" unicode="j"/>
			<glyph d="M196 770V278L243 309L380 456L306 492V513H540V492L466 456L325 342L511 54L580 21V0H345V21L399 51L265 258L196 235V56L261 21V0H26V21L100 56V698L26 721V742Z" horiz-adv-x="580" unicode="k"/>
			<glyph d="M196 770V56L270 21V0H26V21L100 56V698L26 721V742Z" horiz-adv-x="298" unicode="l"/>
			<glyph d="M205 523V425Q245 472 285 497T369 523Q424 523 458 496T504 421Q544 469 585 496T673 523Q741 523 777 482T813 371V56L887 21V0H650V21L717 55V354Q717 402 695 426T630 451Q598 451 567 434T509 387V371V55L576 21V0H346V21L413 55V354Q413 401 391 426T328 451Q297 451 264 432T205 383V55L272 21V0H35V21L109 56V451L35 474V495Z" horiz-adv-x="910" unicode="m"/>
			<glyph d="M205 523V425Q289 523 374 523Q444 523 481 482T519 371V56L593 21V0H351V23L423 55V354Q423 401 400 426T331 451Q299 451 265 432T205 383V55L277 21V0H35V21L109 56V451L35 474V495Z" horiz-adv-x="616" unicode="n"/>
			<glyph d="M282 523Q399 523 459 455T520 257Q520 126 459 58T282 -10Q165 -10 104 58T43 257Q43 387 104 455T282 523ZM282 483Q240 483 210 456T164 378T148 257Q148 186 164 135T210 57T282 30Q323 30 353 57T399 135T415 257Q415 327 399 378T353 456T282 483Z" unicode="o"/>
			<glyph d="M197 523V426Q232 475 271 499T358 523Q452 523 500 457T549 264Q549 182 520 120T435 24T301 -10Q242 -10 197 7V-175L271 -209V-230H27V-209L101 -175V453L27 476V497ZM325 452Q286 452 253 433T197 381V86Q220 58 247 44T307 30Q350 30 381 57T428 135T445 257Q445 317 430 361T389 428T325 452Z" horiz-adv-x="592" unicode="p"/>
			<glyph d="M472 537H491V-169L565 -198V-230H320V-198L395 -169V87Q360 37 321 13T235 -10Q140 -10 91 56T43 249Q43 331 72 393T158 489T291 523Q367 523 421 503ZM285 483Q242 483 211 456T163 378T147 257Q147 194 161 148T203 77T268 53Q308 53 340 74T395 134V419Q350 483 285 483Z" horiz-adv-x="557" unicode="q"/>
			<glyph d="M205 523V425Q246 477 277 500T340 523Q372 523 390 505T408 458Q408 432 392 416T352 400Q332 400 318 413T286 451Q237 422 205 375V56L298 21V0H35V21L109 56V451L35 474V495Z" horiz-adv-x="408" unicode="r"/>
			<glyph d="M222 523Q243 523 261 520T301 511Q314 507 327 504T353 502H377V371H343Q319 415 300 439T263 474T222 485Q187 485 168 467T149 418Q149 392 163 372T200 337T259 302Q303 278 329 259T375 211T394 144Q394 98 373 63T315 9T227 -10Q203 -10 183 -6T141 3Q125 7 107 10T74 13H50V151H84Q113 100 133 74T175 38T227 28Q249 28 267 38T295 67T305 110Q305 135 290 154T255 188T196 224Q152 249 125 268T79 316T60 383Q60 426 80 457T136 506T222 523Z" horiz-adv-x="446" unicode="s"/>
			<glyph d="M205 657V513H337V474H205V149Q205 93 221 68T274 43Q299 43 331 59L345 38Q319 13 288 1T219 -10Q179 -10 155 4T120 51T109 135V473H18V513H109L110 619Z" horiz-adv-x="365" unicode="t"/>
			<glyph d="M192 523V159Q192 108 215 81T283 54Q318 54 352 74T410 131V451L336 474V495L506 523V54L580 34V14L410 -10V88Q369 41 326 15T237 -10Q170 -10 133 31T96 143V451L22 474V495Z" horiz-adv-x="608" unicode="u"/>
			<glyph d="M-10 513H231V492L164 460L301 112L427 459L352 492V513H549V492L478 458L291 -14H248L61 458L-10 492Z" horiz-adv-x="539" unicode="v"/>
			<glyph d="M-10 513H237V492L160 458L278 120L398 503H436L572 118L677 458L593 492V513H800V492L728 458L564 -14H522L395 344L268 -14H226L61 458L-10 492Z" horiz-adv-x="790" unicode="w"/>
			<glyph d="M16 513H266V492L197 459L300 312L395 458L327 492V513H521V492L461 458L323 280L489 55L552 21V0H305V21L373 55L254 227L146 56L210 21V0H11V21L74 56L231 260L80 459L16 492Z" horiz-adv-x="563" unicode="x"/>
			<glyph d="M-10 513H240V492L163 458L303 118L427 458L342 492V513H549V492L477 458L257 -98Q239 -146 223 -173T182 -215T118 -230Q88 -230 69 -212T51 -167Q51 -141 68 -123T111 -105Q134 -105 147 -119T174 -162L252 -4L61 458L-10 492Z" horiz-adv-x="539" unicode="y"/>
			<glyph d="M46 513H441V486L149 35L271 37Q311 38 338 51T378 89L409 157H438V0H30V27L324 478L214 476Q168 475 141 463T105 426L77 360H46Z" horiz-adv-x="479" unicode="z"/>
			<glyph d="M314 770L316 751Q263 744 242 705T222 607V462Q222 396 184 364T78 320Q147 309 184 277T222 179V34Q222 -25 242 -64T316 -110L314 -129Q232 -124 180 -86T129 28V191Q129 240 109 271T44 306L15 309V332L44 335Q89 339 109 370T129 450V613Q129 689 180 727T314 770Z" horiz-adv-x="331" unicode="{"/>
			<glyph d="M70 757H133V-119H70Z" horiz-adv-x="203" unicode="|"/>
			<glyph d="M17 770Q98 765 150 727T202 613V450Q202 402 222 370T286 335L316 332V309L286 306Q242 302 222 271T202 191V28Q202 -48 150 -86T17 -129L15 -110Q68 -104 88 -64T109 34V179Q109 245 146 277T252 320Q183 332 146 364T109 462V607Q109 666 88 705T15 751Z" horiz-adv-x="331" unicode="}"/>
			<glyph d="M471 420L492 415Q481 361 470 329T435 273T368 249Q342 249 315 258T248 288Q210 306 185 315T137 325Q85 325 53 246L30 252Q42 301 54 333T92 390T159 414Q187 414 216 403T285 374Q325 356 347 348T390 340Q420 340 440 363T471 420Z" horiz-adv-x="522" unicode="~"/>
			<glyph d="" horiz-adv-x="238" unicode=" "/>
			<glyph d="M131 529Q166 529 186 509T206 454Q206 418 186 398T131 379Q95 379 74 398T54 454Q54 489 74 509T131 529ZM115 309H145L188 -53Q197 -107 197 -143Q197 -175 180 -195T130 -216Q98 -216 80 -195T63 -143Q63 -101 71 -53Z" horiz-adv-x="246" unicode="¡"/>
			<glyph d="M229 668H282V566Q314 565 346 555T401 526T423 474Q423 448 406 431T364 414Q349 414 335 421T312 441T304 469Q304 488 313 502T340 522Q315 534 285 534Q237 534 208 505T166 432T154 339Q154 287 169 244T219 175T306 150Q366 150 421 166L428 151Q390 129 355 116T282 100V0H229V100Q171 106 129 137T65 217T44 326Q44 383 66 432T131 516T229 560Z" horiz-adv-x="455" unicode="¢"/>
			<glyph d="M288 687Q324 687 362 674T426 636T452 575Q452 546 434 528T389 511Q361 511 343 529T325 574Q325 595 337 611T370 633Q356 645 337 651T297 657Q252 657 223 632T194 563Q194 543 198 522T218 441Q230 396 239 360H400V321H246Q251 291 251 268Q251 214 223 160T154 71L157 65Q183 81 206 89T254 98Q267 98 281 95T305 90T320 87Q359 76 384 76Q415 76 437 90T469 133L485 129Q474 66 442 26T354 -13Q332 -13 311 -7T262 8Q232 18 211 23T169 28Q140 28 113 16T52 -15L39 7Q88 46 121 100T155 212Q155 237 151 263T140 321H39V360H128Q112 411 102 454T92 530Q92 581 120 616T193 669T288 687Z" horiz-adv-x="506" unicode="£"/>
			<glyph d="M46 560L129 477Q185 525 268 525Q307 525 342 512T406 475L482 552L509 526L432 449Q455 422 467 388T480 316Q480 278 467 241T431 174L517 90L491 64L407 148Q351 99 268 99Q230 99 194 112T131 149L55 72L28 98L105 175Q81 203 68 238T55 311Q55 348 67 385T104 452L20 534ZM269 484Q215 484 175 458T116 392T96 309Q96 265 119 226T182 163T269 140Q322 140 360 166T418 232T438 316Q438 361 415 399T353 461T269 484Z" horiz-adv-x="537" unicode="¤"/>
			<glyph d="M12 675H302V654L208 623L356 361L485 623L410 654V675H620V654L548 623L405 376H537V336H383L374 317V260H537V221H374V53L465 21V0H178V21L270 53V221H103V260H270V315L256 336H103V376H236L95 620L12 654Z" horiz-adv-x="632" unicode="¥"/>
			<glyph d="M70 757H133V387H70ZM70 254H133V-119H70Z" horiz-adv-x="203" unicode="¦"/>
			<glyph d="M216 728Q250 728 277 717T321 688T337 646Q337 623 323 609T284 595Q260 595 246 609T232 645Q232 665 241 690Q228 695 209 695Q166 695 141 673T116 614Q116 590 124 572T154 533T222 473Q280 425 311 392T356 333T370 278Q370 248 351 217T294 155Q335 116 352 80T370 -1Q370 -45 347 -78T284 -128T193 -146Q159 -146 131 -135T88 -106T72 -64Q72 -41 85 -27T125 -13Q149 -13 163 -27T177 -64Q177 -84 168 -108Q181 -113 200 -113Q243 -113 268 -91T293 -32Q293 -7 283 12T246 57T161 129Q95 183 67 222T39 304Q39 363 115 426Q74 464 56 500T39 583Q39 627 62 660T125 710T216 728ZM134 409Q118 395 111 380T104 348Q104 330 114 312T149 273T215 220Q247 198 275 173Q305 196 305 234Q305 252 294 270T260 309T194 362Q172 377 134 409Z" horiz-adv-x="409" unicode="§"/>
			<glyph d="M76 717Q102 717 116 702T131 661Q131 635 116 620T76 606Q49 606 34 620T20 661Q20 688 34 702T76 717ZM261 717Q287 717 301 702T316 661Q316 635 301 620T261 606Q234 606 219 620T205 661Q205 688 219 702T261 717Z" horiz-adv-x="336" unicode="¨"/>
			<glyph d="M414 681Q314 681 229 631T95 497T45 313Q45 212 95 127T229 -7T414 -57Q514 -57 599 -7T733 127T783 313Q783 413 733 497T599 631T414 681ZM414 648Q505 648 582 603T705 481T750 313Q750 221 705 143T583 21T414 -24Q322 -24 245 21T123 143T78 313Q78 404 123 481T245 603T414 648ZM428 560Q447 560 462 557T501 547Q513 543 525 540T549 538H573V403H540Q523 450 507 477T472 518T430 531Q383 531 348 506T294 435T275 328Q275 264 297 217T357 146T444 122Q486 122 513 129T567 149L578 132Q506 78 412 78Q342 78 289 106T208 187T180 313Q180 386 211 442T299 529T428 560Z" horiz-adv-x="828" unicode="©"/>
			<glyph d="M191 770Q270 770 305 740T341 648V482Q341 462 347 453T366 445Q380 445 399 454L408 436Q363 397 316 397Q260 397 249 443Q221 419 193 408T134 397Q85 397 57 419T29 482Q29 519 51 544T121 585T247 613V659Q247 699 230 719T178 739Q150 739 128 729Q135 717 139 706T144 683Q144 660 130 645T93 631Q69 631 55 645T42 683Q42 707 61 727T115 758T191 770ZM247 587Q185 573 157 549T129 489Q129 447 178 447Q214 447 247 472Z" horiz-adv-x="408" unicode="ª"/>
			<glyph d="M206 512H233L154 328L233 140H206L40 327ZM404 512H430L351 328L430 140H404L237 327Z" horiz-adv-x="460" unicode="«"/>
			<glyph d="M30 374H401V183H340V314H30Z" horiz-adv-x="431" unicode="¬"/>
			<glyph d="M25 344H310V255H25Z" horiz-adv-x="335" unicode="­"/>
			<glyph d="M414 681Q514 681 599 631T733 497T783 313Q783 212 733 127T599 -7T414 -57Q314 -57 229 -7T95 127T45 313Q45 413 95 497T229 631T414 681ZM414 648Q323 648 245 603T123 481T78 313Q78 221 123 143T245 21T414 -24Q506 -24 583 21T705 143T750 313Q750 404 705 481T582 603T414 648ZM215 548H414Q466 548 505 533T566 492T588 431Q588 381 548 348T443 306V305Q486 295 519 270T573 190L600 119L642 102V85H521L485 179Q466 231 432 260T357 298V122L415 102V85H215V102L273 122V511L215 531ZM357 521V324Q427 324 460 352T494 431Q494 472 467 496T398 521Z" horiz-adv-x="828" unicode="®"/>
			<glyph d="M20 664H317V603H20Z" horiz-adv-x="337" unicode="¯"/>
			<glyph d="M158 687Q197 687 228 670T278 622T296 554Q296 516 277 483T227 431T158 412Q119 412 87 429T38 477T20 546Q20 584 38 616T87 668T158 687ZM158 650Q131 650 109 636T76 599T64 549Q64 522 76 499T109 463T158 450Q184 450 205 464T239 501T251 551Q251 578 239 601T205 637T158 650Z" horiz-adv-x="316" unicode="°"/>
			<glyph d="M199 557H262V374H431V314H262V127H199V314H30V374H199ZM45 61H416V0H45Z" horiz-adv-x="461" unicode="±"/>
			<glyph d="M162 777Q203 777 232 764T278 729T294 675Q294 626 251 572T126 450H257L279 495H306V372H31V391Q204 564 204 676Q204 711 188 729T144 747Q125 747 103 737Q124 716 124 695Q124 677 112 666T82 655Q64 655 52 666T40 696Q40 719 55 737T98 766T162 777Z" horiz-adv-x="357" unicode="²"/>
			<glyph d="M183 777Q219 777 246 764T289 730T305 679Q305 639 279 611T212 575V573Q258 568 289 544T320 477Q320 444 301 418T249 379T173 365Q136 365 108 375T64 404T49 445Q49 463 61 474T91 486Q110 486 121 474T133 445Q133 423 111 403Q129 394 151 394Q187 394 207 415T228 471Q228 516 199 538T112 563V580Q216 587 216 674Q216 705 199 725T152 746Q139 746 126 741Q134 733 139 721T145 696Q145 679 133 668T105 658Q86 658 74 669T62 699Q62 721 77 739T120 767T183 777Z" horiz-adv-x="364" unicode="³"/>
			<glyph d="M75 741H190L44 577H20Z" horiz-adv-x="210" unicode="´"/>
			<glyph d="M96 513H192V159Q192 108 215 81T283 54Q318 54 352 74T410 131V513H506V100Q506 69 514 56T539 43Q556 43 584 57L596 39Q569 13 543 1T489 -10Q446 -10 428 13T410 88Q326 -10 249 -10Q227 -10 211 -4T184 15L192 -230H96Z" horiz-adv-x="608" unicode="µ"/>
			<glyph d="M300 681V271Q215 271 150 297T50 370T15 476Q15 576 87 628T300 681ZM350 681H535V671L460 641V182Q460 119 434 75T362 9T253 -13Q212 -13 169 2T98 47T70 120Q70 149 89 168T136 187Q164 187 182 170T200 126Q200 100 183 81T141 56Q163 37 186 28T239 20Q275 20 300 36T337 81T350 144Z" horiz-adv-x="556" unicode="¶"/>
			<glyph d="M118 417Q153 417 173 397T194 342Q194 308 173 288T118 268Q84 268 64 288T44 342Q44 377 63 397T118 417Z" horiz-adv-x="237" unicode="·"/>
			<glyph d="M138 22H157L140 -54Q172 -67 193 -89T215 -141Q215 -170 199 -190T159 -222T106 -233Q73 -233 46 -221T20 -182Q20 -166 30 -154T56 -143Q73 -143 84 -153T95 -181Q95 -190 91 -198T80 -211Q94 -213 101 -213Q127 -213 144 -200T161 -163Q161 -137 140 -122T87 -97Z" horiz-adv-x="235" unicode="¸"/>
			<glyph d="M178 775V417L227 398V372H49V398L98 417V708L49 730V758Z" horiz-adv-x="269" unicode="¹"/>
			<glyph d="M221 770Q315 770 363 722T412 584Q412 492 363 444T221 397Q127 397 78 444T30 584Q30 675 78 722T221 770ZM221 738Q180 738 156 697T133 584Q133 511 156 470T221 429Q262 429 285 470T309 584Q309 657 285 697T221 738Z" horiz-adv-x="441" unicode="º"/>
			<glyph d="M30 512H57L224 327L57 140H30L110 328ZM227 512H254L422 327L254 140H227L308 328Z" horiz-adv-x="462" unicode="»"/>
			<glyph d="M178 718V360L227 341V315H49V341L98 360V651L49 673V701ZM504 728L545 708L146 -15L104 7ZM578 405H601V151H649V100H601V45L649 26V0H471V26L520 45V100H349V119ZM520 294L412 151H520Z" horiz-adv-x="693" unicode="¼"/>
			<glyph d="M178 718V360L227 341V315H49V341L98 360V651L49 673V701ZM504 728L545 708L146 -15L104 7ZM542 405Q583 405 612 392T658 357T674 303Q674 254 631 200T506 78H637L659 123H686V0H411V19Q584 192 584 304Q584 339 568 357T524 375Q505 375 483 365Q504 344 504 323Q504 305 492 294T462 283Q444 283 432 294T420 324Q420 347 435 365T478 394T542 405Z" horiz-adv-x="736" unicode="½"/>
			<glyph d="M183 720Q219 720 246 707T289 673T305 622Q305 582 279 554T212 518V516Q258 511 289 487T320 420Q320 387 301 361T249 322T173 308Q136 308 108 318T64 347T49 388Q49 406 61 417T91 429Q110 429 121 417T133 388Q133 365 110 346Q128 337 151 337Q187 337 207 358T228 414Q228 459 199 481T112 506V523Q216 530 216 617Q216 648 199 668T152 689Q136 689 126 684Q145 663 145 639Q145 622 133 611T105 601Q86 601 74 612T62 642Q62 664 77 682T120 710T183 720ZM599 728L640 708L241 -15L199 7ZM673 405H696V151H744V100H696V45L744 26V0H566V26L615 45V100H444V119ZM615 294L507 151H615Z" horiz-adv-x="789" unicode="¾"/>
			<glyph d="M255 529Q290 529 310 509T330 454Q330 418 310 398T255 379Q219 379 199 398T179 454Q179 489 199 509T255 529ZM272 312Q285 291 292 270T299 225Q299 202 289 180T267 141T230 94Q205 66 189 44T162 -3T152 -58Q152 -90 164 -117T201 -160T261 -176Q289 -176 309 -171T344 -156Q308 -120 308 -83Q308 -56 326 -39T370 -23Q397 -23 415 -41T434 -86Q434 -125 410 -154T342 -200T243 -216Q182 -216 135 -193T62 -131T37 -44Q37 -6 56 28T100 87T173 157Q211 193 233 226T256 297V309Z" horiz-adv-x="452" unicode="¿"/>
			<glyph d="M351 727H395L659 56L741 21V0H463V21L548 56L469 257H216L141 56L226 21V0H-5V21L77 56ZM340 584L231 295H454ZM282 917L458 788L437 773L215 844Z" horiz-adv-x="736" unicode="À"/>
			<glyph d="M351 727H395L659 56L741 21V0H463V21L548 56L469 257H216L141 56L226 21V0H-5V21L77 56ZM340 584L231 295H454ZM483 917L550 844L328 773L307 788Z" horiz-adv-x="736" unicode="Á"/>
			<glyph d="M351 727H395L659 56L741 21V0H463V21L548 56L469 257H216L141 56L226 21V0H-5V21L77 56ZM340 584L231 295H454ZM379 918L510 770L493 759L380 826L264 763L231 759L355 907Z" horiz-adv-x="736" unicode="Â"/>
			<glyph d="M351 727H395L659 56L741 21V0H463V21L548 56L469 257H216L141 56L226 21V0H-5V21L77 56ZM340 584L231 295H454ZM509 908L530 902Q524 868 516 845T491 806T444 790Q427 790 410 795T364 813Q341 823 324 828T294 834Q254 834 239 788L217 793Q225 827 233 849T259 886T305 902Q323 902 340 896T381 881Q407 871 423 866T456 861Q478 861 489 872T509 908Z" horiz-adv-x="736" unicode="Ã"/>
			<glyph d="M351 727H395L659 56L741 21V0H463V21L548 56L469 257H216L141 56L226 21V0H-5V21L77 56ZM340 584L231 295H454ZM294 902Q310 902 323 894T345 872T354 843Q354 827 346 812T324 789T294 781Q277 781 262 789T240 812T232 843Q232 868 250 885T294 902ZM453 902Q469 902 483 894T505 872T513 843Q513 827 505 812T483 789T453 781Q436 781 422 789T400 812T392 843Q392 868 409 885T453 902Z" horiz-adv-x="736" unicode="Ä"/>
			<glyph d="M351 727H395L659 56L741 21V0H463V21L548 56L469 257H216L141 56L226 21V0H-5V21L77 56ZM340 584L231 295H454ZM373 984Q399 984 420 972T454 940T466 893Q466 866 454 845T420 813T373 802Q347 802 326 813T292 846T280 893Q280 919 292 940T326 972T373 984ZM373 943Q347 943 338 928T330 893Q330 872 338 857T373 843Q400 843 408 857T417 893Q417 915 408 929T373 943Z" horiz-adv-x="736" unicode="Å"/>
			<glyph d="M476 713H929V520H907Q878 587 855 619T804 662T732 673H565L604 385H653Q705 385 731 391T774 417T809 477H830V254H809Q791 296 774 314T732 339T653 346H610L652 40H777Q822 40 849 51T899 97T952 202H973V0H452V21L545 56L519 256H274L168 55L250 21V0H5V21L98 56ZM470 626L294 295H513Z" horiz-adv-x="1008" unicode="Æ"/>
			<glyph d="M391 727Q419 727 441 722T494 708Q512 703 531 698T566 694H600V490H555Q532 564 508 607T457 668T395 686Q326 686 274 647T194 536T166 368Q166 268 197 195T284 85T411 48Q455 48 488 55T536 68T590 93L606 68Q555 27 497 6T372 -14H367L358 -54Q390 -67 411 -89T433 -141Q433 -170 417 -190T377 -222T324 -233Q291 -233 264 -221T238 -182Q238 -166 248 -154T274 -143Q291 -143 302 -153T313 -181Q313 -190 309 -198T298 -211Q312 -213 319 -213Q345 -213 362 -200T379 -163Q379 -137 358 -122T305 -97L341 -13Q251 -6 184 39T81 164T45 347Q45 459 89 545T211 679T391 727Z" horiz-adv-x="654" unicode="Ç"/>
			<glyph d="M35 713H545V520H523Q494 587 471 619T420 662T348 673H226V385H269Q321 385 347 391T390 417T425 477H446V254H425Q407 296 390 314T348 339T269 346H226V40H363Q408 40 435 51T485 97T538 202H559V0H35V21L119 56V657L35 691ZM199 917L375 788L354 773L132 844Z" horiz-adv-x="594" unicode="È"/>
			<glyph d="M35 713H545V520H523Q494 587 471 619T420 662T348 673H226V385H269Q321 385 347 391T390 417T425 477H446V254H425Q407 296 390 314T348 339T269 346H226V40H363Q408 40 435 51T485 97T538 202H559V0H35V21L119 56V657L35 691ZM400 917L467 844L245 773L224 788Z" horiz-adv-x="594" unicode="É"/>
			<glyph d="M35 713H545V520H523Q494 587 471 619T420 662T348 673H226V385H269Q321 385 347 391T390 417T425 477H446V254H425Q407 296 390 314T348 339T269 346H226V40H363Q408 40 435 51T485 97T538 202H559V0H35V21L119 56V657L35 691ZM296 918L427 770L410 759L297 826L181 763L148 759L272 907Z" horiz-adv-x="594" unicode="Ê"/>
			<glyph d="M35 713H545V520H523Q494 587 471 619T420 662T348 673H226V385H269Q321 385 347 391T390 417T425 477H446V254H425Q407 296 390 314T348 339T269 346H226V40H363Q408 40 435 51T485 97T538 202H559V0H35V21L119 56V657L35 691ZM211 902Q227 902 240 894T262 872T271 843Q271 827 263 812T241 789T211 781Q194 781 179 789T157 812T149 843Q149 868 167 885T211 902ZM370 902Q386 902 400 894T422 872T430 843Q430 827 422 812T400 789T370 781Q353 781 339 789T317 812T309 843Q309 868 326 885T370 902Z" horiz-adv-x="594" unicode="Ë"/>
			<glyph d="M35 713H309V691L226 657V56L309 21V0H35V21L119 56V657L35 691ZM82 917L258 788L237 773L15 844Z" horiz-adv-x="344" unicode="Ì"/>
			<glyph d="M35 713H309V691L226 657V56L309 21V0H35V21L119 56V657L35 691ZM282 917L349 844L127 773L106 788Z" horiz-adv-x="344" unicode="Í"/>
			<glyph d="M35 713H309V691L226 657V56L309 21V0H35V21L119 56V657L35 691ZM178 918L309 770L292 759L179 826L63 763L30 759L154 907Z" horiz-adv-x="344" unicode="Î"/>
			<glyph d="M35 713H309V691L226 657V56L309 21V0H35V21L119 56V657L35 691ZM93 902Q109 902 122 894T144 872T153 843Q153 827 145 812T123 789T93 781Q76 781 61 789T39 812T31 843Q31 868 49 885T93 902ZM252 902Q268 902 282 894T304 872T312 843Q312 827 304 812T282 789T252 781Q235 781 221 789T199 812T191 843Q191 868 208 885T252 902Z" horiz-adv-x="344" unicode="Ï"/>
			<glyph d="M35 713H312Q422 713 505 668T635 543T681 356Q681 250 635 169T505 44T312 0H35V21L119 56V329H4V388H119V657L35 691ZM226 673V388H355V329H226V40H293Q372 40 432 79T526 190T560 356Q560 450 526 522T432 633T293 673Z" horiz-adv-x="727" unicode="Ð"/>
			<glyph d="M35 713H201L599 181V657L515 691V713H731V691L647 657V-9H609L168 579V56L251 21V0H35V21L119 56V657L35 691ZM518 908L539 902Q533 868 525 845T500 806T453 790Q436 790 419 795T373 813Q350 823 333 828T303 834Q263 834 248 788L226 793Q234 827 242 849T268 886T314 902Q332 902 349 896T390 881Q416 871 432 866T465 861Q487 861 498 872T518 908Z" horiz-adv-x="757" unicode="Ñ"/>
			<glyph d="M389 727Q491 727 569 681T690 550T733 356Q733 246 690 162T569 32T389 -14Q287 -14 209 32T88 162T45 356Q45 466 88 550T209 681T389 727ZM389 687Q323 687 272 646T194 530T166 356Q166 258 194 183T272 67T389 26Q455 26 505 67T584 183T612 356Q612 455 584 530T505 646T389 687ZM298 917L474 788L453 773L231 844Z" horiz-adv-x="778" unicode="Ò"/>
			<glyph d="M389 727Q491 727 569 681T690 550T733 356Q733 246 690 162T569 32T389 -14Q287 -14 209 32T88 162T45 356Q45 466 88 550T209 681T389 727ZM389 687Q323 687 272 646T194 530T166 356Q166 258 194 183T272 67T389 26Q455 26 505 67T584 183T612 356Q612 455 584 530T505 646T389 687ZM499 917L566 844L344 773L323 788Z" horiz-adv-x="778" unicode="Ó"/>
			<glyph d="M389 727Q491 727 569 681T690 550T733 356Q733 246 690 162T569 32T389 -14Q287 -14 209 32T88 162T45 356Q45 466 88 550T209 681T389 727ZM389 687Q323 687 272 646T194 530T166 356Q166 258 194 183T272 67T389 26Q455 26 505 67T584 183T612 356Q612 455 584 530T505 646T389 687ZM395 918L526 770L509 759L396 826L280 763L247 759L371 907Z" horiz-adv-x="778" unicode="Ô"/>
			<glyph d="M389 727Q491 727 569 681T690 550T733 356Q733 246 690 162T569 32T389 -14Q287 -14 209 32T88 162T45 356Q45 466 88 550T209 681T389 727ZM389 687Q323 687 272 646T194 530T166 356Q166 258 194 183T272 67T389 26Q455 26 505 67T584 183T612 356Q612 455 584 530T505 646T389 687ZM525 908L546 902Q540 868 532 845T507 806T460 790Q443 790 426 795T380 813Q357 823 340 828T310 834Q270 834 255 788L233 793Q241 827 249 849T275 886T321 902Q339 902 356 896T397 881Q423 871 439 866T472 861Q494 861 505 872T525 908Z" horiz-adv-x="778" unicode="Õ"/>
			<glyph d="M389 727Q491 727 569 681T690 550T733 356Q733 246 690 162T569 32T389 -14Q287 -14 209 32T88 162T45 356Q45 466 88 550T209 681T389 727ZM389 687Q323 687 272 646T194 530T166 356Q166 258 194 183T272 67T389 26Q455 26 505 67T584 183T612 356Q612 455 584 530T505 646T389 687ZM310 902Q326 902 339 894T361 872T370 843Q370 827 362 812T340 789T310 781Q293 781 278 789T256 812T248 843Q248 868 266 885T310 902ZM469 902Q485 902 499 894T521 872T529 843Q529 827 521 812T499 789T469 781Q452 781 438 789T416 812T408 843Q408 868 425 885T469 902Z" horiz-adv-x="778" unicode="Ö"/>
			<glyph d="M68 524L224 364L380 524L419 486L261 326L419 165L380 127L224 287L67 127L29 165L186 326L29 486Z" horiz-adv-x="449" unicode="×"/>
			<glyph d="M501 820L548 806L516 706Q583 682 632 632T707 512T733 356Q733 246 690 162T569 32T389 -14Q339 -14 287 -1L263 -75L214 -59L239 17Q179 44 135 93T68 209T45 356Q45 466 88 550T209 681T389 727Q428 727 468 719ZM389 687Q323 687 272 646T194 530T166 356Q166 264 190 192T259 79L454 676Q423 687 389 687ZM498 652L302 47Q341 26 389 26Q455 26 505 67T584 183T612 356Q612 458 582 535T498 652Z" horiz-adv-x="778" unicode="Ø"/>
			<glyph d="M20 713H294V691L211 657V249Q211 148 255 96T384 44Q471 44 514 94T558 245V657L474 691V713H690V691L610 657V247Q610 118 547 52T359 -14Q235 -14 169 53T104 252V657L20 691ZM293 917L469 788L448 773L226 844Z" horiz-adv-x="710" unicode="Ù"/>
			<glyph d="M20 713H294V691L211 657V249Q211 148 255 96T384 44Q471 44 514 94T558 245V657L474 691V713H690V691L610 657V247Q610 118 547 52T359 -14Q235 -14 169 53T104 252V657L20 691ZM494 917L561 844L339 773L318 788Z" horiz-adv-x="710" unicode="Ú"/>
			<glyph d="M20 713H294V691L211 657V249Q211 148 255 96T384 44Q471 44 514 94T558 245V657L474 691V713H690V691L610 657V247Q610 118 547 52T359 -14Q235 -14 169 53T104 252V657L20 691ZM390 918L521 770L504 759L391 826L275 763L242 759L366 907Z" horiz-adv-x="710" unicode="Û"/>
			<glyph d="M20 713H294V691L211 657V249Q211 148 255 96T384 44Q471 44 514 94T558 245V657L474 691V713H690V691L610 657V247Q610 118 547 52T359 -14Q235 -14 169 53T104 252V657L20 691ZM305 902Q321 902 334 894T356 872T365 843Q365 827 357 812T335 789T305 781Q288 781 273 789T251 812T243 843Q243 868 261 885T305 902ZM464 902Q480 902 494 894T516 872T524 843Q524 827 516 812T494 789T464 781Q447 781 433 789T411 812T403 843Q403 868 420 885T464 902Z" horiz-adv-x="710" unicode="Ü"/>
			<glyph d="M-10 713H278V691L192 657L344 395L484 657L398 691V713H633V691L552 657L366 346V56L449 21V0H176V21L260 56V331L71 657L-10 691ZM448 917L515 844L293 773L272 788Z" horiz-adv-x="623" unicode="Ý"/>
			<glyph d="M35 713H309V691L226 657V580H299Q381 580 441 554T533 482T565 375Q565 307 531 255T435 174T291 146Q256 146 226 149V56L309 21V0H35V21L119 56V657L35 691ZM226 540V187Q337 187 390 237T444 375Q444 424 423 461T365 519T279 540Z" horiz-adv-x="596" unicode="Þ"/>
			<glyph d="M346 771Q404 771 445 752T508 701T530 630Q530 605 519 583T494 545T457 508Q410 463 410 425Q410 406 420 389T447 359T490 327Q529 298 553 276T594 221T612 143Q612 99 589 64T530 9T454 -10Q404 -10 364 4T300 45T277 111Q277 138 295 156T341 175Q367 175 385 157T403 111Q403 90 393 73T367 39Q379 33 392 31T425 28Q452 28 474 39T510 71T523 123Q523 152 509 176T474 218T420 261Q387 286 368 302T335 341T322 390Q322 409 330 427T352 461T390 506Q419 540 429 563T439 618Q439 669 413 702T339 735Q277 735 246 679T215 517V0H45V21L119 56V473H28V513H119Q121 591 147 649T224 739T346 771Z" horiz-adv-x="655" unicode="ß"/>
			<glyph d="M247 523Q343 523 385 481T428 349V100Q428 69 436 56T462 43Q480 43 506 57L518 39Q491 13 465 1T411 -10Q339 -10 333 62Q297 24 260 7T179 -10Q115 -10 78 22T42 111Q42 165 72 202T166 263T332 304V364Q332 425 307 454T230 484Q186 484 155 471Q164 454 169 441T174 414Q174 388 158 371T116 354Q90 354 74 370T59 414Q59 444 84 469T152 508T247 523ZM332 269Q236 248 191 211T146 119Q146 84 164 66T219 48Q249 48 276 60T332 98ZM215 741L276 589L258 577L119 729Z" horiz-adv-x="525" unicode="à"/>
			<glyph d="M247 523Q343 523 385 481T428 349V100Q428 69 436 56T462 43Q480 43 506 57L518 39Q491 13 465 1T411 -10Q339 -10 333 62Q297 24 260 7T179 -10Q115 -10 78 22T42 111Q42 165 72 202T166 263T332 304V364Q332 425 307 454T230 484Q186 484 155 471Q164 454 169 441T174 414Q174 388 158 371T116 354Q90 354 74 370T59 414Q59 444 84 469T152 508T247 523ZM332 269Q236 248 191 211T146 119Q146 84 164 66T219 48Q249 48 276 60T332 98ZM259 741H374L228 577H204Z" horiz-adv-x="525" unicode="á"/>
			<glyph d="M247 523Q343 523 385 481T428 349V100Q428 69 436 56T462 43Q480 43 506 57L518 39Q491 13 465 1T411 -10Q339 -10 333 62Q297 24 260 7T179 -10Q115 -10 78 22T42 111Q42 165 72 202T166 263T332 304V364Q332 425 307 454T230 484Q186 484 155 471Q164 454 169 441T174 414Q174 388 158 371T116 354Q90 354 74 370T59 414Q59 444 84 469T152 508T247 523ZM332 269Q236 248 191 211T146 119Q146 84 164 66T219 48Q249 48 276 60T332 98ZM247 737H259L354 583L323 578L236 649L161 589H137Z" horiz-adv-x="525" unicode="â"/>
			<glyph d="M247 523Q343 523 385 481T428 349V100Q428 69 436 56T462 43Q480 43 506 57L518 39Q491 13 465 1T411 -10Q339 -10 333 62Q297 24 260 7T179 -10Q115 -10 78 22T42 111Q42 165 72 202T166 263T332 304V364Q332 425 307 454T230 484Q186 484 155 471Q164 454 169 441T174 414Q174 388 158 371T116 354Q90 354 74 370T59 414Q59 444 84 469T152 508T247 523ZM332 269Q236 248 191 211T146 119Q146 84 164 66T219 48Q249 48 276 60T332 98ZM381 718L402 712Q396 678 388 655T363 616T316 600Q299 600 282 605T236 623Q213 633 196 638T166 644Q127 644 111 599L89 604Q97 638 105 660T131 697T177 713Q195 713 212 707T253 692Q279 682 295 677T328 672Q350 672 361 683T381 718Z" horiz-adv-x="525" unicode="ã"/>
			<glyph d="M247 523Q343 523 385 481T428 349V100Q428 69 436 56T462 43Q480 43 506 57L518 39Q491 13 465 1T411 -10Q339 -10 333 62Q297 24 260 7T179 -10Q115 -10 78 22T42 111Q42 165 72 202T166 263T332 304V364Q332 425 307 454T230 484Q186 484 155 471Q164 454 169 441T174 414Q174 388 158 371T116 354Q90 354 74 370T59 414Q59 444 84 469T152 508T247 523ZM332 269Q236 248 191 211T146 119Q146 84 164 66T219 48Q249 48 276 60T332 98ZM152 717Q179 717 193 702T208 661Q208 635 193 620T152 606Q126 606 111 620T97 661Q97 688 111 702T152 717ZM337 717Q364 717 378 702T393 661Q393 635 378 620T337 606Q311 606 296 620T282 661Q282 688 296 702T337 717Z" horiz-adv-x="525" unicode="ä"/>
			<glyph d="M247 523Q343 523 385 481T428 349V100Q428 69 436 56T462 43Q480 43 506 57L518 39Q491 13 465 1T411 -10Q339 -10 333 62Q297 24 260 7T179 -10Q115 -10 78 22T42 111Q42 165 72 202T166 263T332 304V364Q332 425 307 454T230 484Q186 484 155 471Q164 454 169 441T174 414Q174 388 158 371T116 354Q90 354 74 370T59 414Q59 444 84 469T152 508T247 523ZM332 269Q236 248 191 211T146 119Q146 84 164 66T219 48Q249 48 276 60T332 98ZM244 773Q270 773 291 761T325 729T337 683Q337 656 325 635T291 603T244 592Q218 592 197 603T163 635T151 683Q151 709 163 729T197 761T244 773ZM244 732Q218 732 209 718T201 683Q201 662 209 647T244 633Q271 633 279 647T288 683Q288 705 279 718T244 732Z" horiz-adv-x="525" unicode="å"/>
			<glyph d="M247 523Q302 523 338 507T394 456Q423 488 462 505T548 523Q614 523 660 494T729 413T752 289Q752 273 750 255H429Q430 191 451 146T510 77T602 53Q635 53 667 60T727 82L739 57Q698 24 654 7T560 -10Q498 -10 449 12T371 80Q326 34 280 12T179 -10Q115 -10 78 22T42 111Q42 165 72 202T166 263T332 304V364Q332 425 307 454T230 484Q186 484 155 471Q164 454 169 441T174 414Q174 388 158 371T116 354Q90 354 74 370T59 414Q59 444 84 469T152 508T247 523ZM547 487Q495 487 465 436T430 292L648 305Q648 392 623 439T547 487ZM332 269Q236 248 191 211T146 119Q146 84 164 66T219 48Q253 48 285 65T350 120Q332 164 332 251Z" horiz-adv-x="799" unicode="æ"/>
			<glyph d="M294 523Q339 523 372 510T422 473T440 420Q440 389 422 372T376 356Q347 356 331 372T316 420Q316 435 321 449T336 482Q316 487 294 487Q249 487 216 461T165 385T148 266Q148 197 168 148T225 73T316 47Q342 47 369 54T418 74L430 49Q351 -10 264 -10L254 -54Q286 -67 307 -89T329 -141Q329 -170 313 -190T273 -222T220 -233Q188 -233 161 -221T134 -182Q134 -166 145 -154T170 -143Q187 -143 198 -153T209 -181Q209 -190 205 -198T194 -211Q208 -213 216 -213Q241 -213 258 -200T275 -163Q275 -137 254 -122T201 -97L239 -9Q146 -1 94 65T43 247Q43 329 75 391T164 488T294 523Z" horiz-adv-x="466" unicode="ç"/>
			<glyph d="M267 523Q333 523 379 494T448 413T471 289Q471 273 469 255H148Q148 192 169 146T228 77T320 53Q353 53 386 60T446 82L458 57Q376 -10 279 -10Q206 -10 153 20T71 111T43 257Q43 336 71 396T151 490T267 523ZM265 487Q213 487 183 436T149 292L366 305Q366 392 341 439T265 487ZM227 741L288 589L270 577L131 729Z" horiz-adv-x="518" unicode="è"/>
			<glyph d="M267 523Q333 523 379 494T448 413T471 289Q471 273 469 255H148Q148 192 169 146T228 77T320 53Q353 53 386 60T446 82L458 57Q376 -10 279 -10Q206 -10 153 20T71 111T43 257Q43 336 71 396T151 490T267 523ZM265 487Q213 487 183 436T149 292L366 305Q366 392 341 439T265 487ZM270 741H385L239 577H215Z" horiz-adv-x="518" unicode="é"/>
			<glyph d="M267 523Q333 523 379 494T448 413T471 289Q471 273 469 255H148Q148 192 169 146T228 77T320 53Q353 53 386 60T446 82L458 57Q376 -10 279 -10Q206 -10 153 20T71 111T43 257Q43 336 71 396T151 490T267 523ZM265 487Q213 487 183 436T149 292L366 305Q366 392 341 439T265 487ZM259 737H271L366 583L335 578L248 649L173 589H149Z" horiz-adv-x="518" unicode="ê"/>
			<glyph d="M267 523Q333 523 379 494T448 413T471 289Q471 273 469 255H148Q148 192 169 146T228 77T320 53Q353 53 386 60T446 82L458 57Q376 -10 279 -10Q206 -10 153 20T71 111T43 257Q43 336 71 396T151 490T267 523ZM265 487Q213 487 183 436T149 292L366 305Q366 392 341 439T265 487ZM164 717Q191 717 205 702T220 661Q220 635 205 620T164 606Q138 606 123 620T109 661Q109 688 123 702T164 717ZM349 717Q376 717 390 702T405 661Q405 635 390 620T349 606Q323 606 308 620T294 661Q294 688 308 702T349 717Z" horiz-adv-x="518" unicode="ë"/>
			<glyph d="M205 523V56L279 21V0H35V21L109 56V451L35 474V495ZM128 741L189 589L171 577L32 729Z" horiz-adv-x="307" unicode="ì"/>
			<glyph d="M205 523V56L279 21V0H35V21L109 56V451L35 474V495ZM171 741H286L140 577H116Z" horiz-adv-x="307" unicode="í"/>
			<glyph d="M205 523V56L279 21V0H35V21L109 56V451L35 474V495ZM159 737H171L266 583L235 578L148 649L73 589H49Z" horiz-adv-x="307" unicode="î"/>
			<glyph d="M205 523V56L279 21V0H35V21L109 56V451L35 474V495ZM64 717Q91 717 105 702T120 661Q120 635 105 620T64 606Q38 606 23 620T9 661Q9 688 23 702T64 717ZM249 717Q276 717 290 702T305 661Q305 635 290 620T249 606Q223 606 208 620T194 661Q194 688 208 702T249 717Z" horiz-adv-x="307" unicode="ï"/>
			<glyph d="M164 768Q246 747 313 707L447 767L470 716L365 668Q520 534 520 257Q520 126 459 58T282 -10Q165 -10 104 58T43 257Q43 387 104 455T282 523Q337 523 387 494Q359 572 295 636L150 571L127 623L248 678Q213 707 151 743ZM282 483Q240 483 210 456T164 378T148 257Q148 186 164 135T210 57T282 30Q323 30 353 57T399 135T415 257Q415 327 399 378T353 456T282 483Z" unicode="ð"/>
			<glyph d="M205 523V425Q289 523 374 523Q444 523 481 482T519 371V56L593 21V0H351V23L423 55V354Q423 401 400 426T331 451Q299 451 265 432T205 383V55L277 21V0H35V21L109 56V451L35 474V495ZM452 718L473 712Q467 678 459 655T434 616T387 600Q370 600 353 605T307 623Q284 633 267 638T237 644Q198 644 182 599L160 604Q168 638 176 660T202 697T248 713Q266 713 283 707T324 692Q350 682 366 677T399 672Q421 672 432 683T452 718Z" horiz-adv-x="616" unicode="ñ"/>
			<glyph d="M282 523Q399 523 459 455T520 257Q520 126 459 58T282 -10Q165 -10 104 58T43 257Q43 387 104 455T282 523ZM282 483Q240 483 210 456T164 378T148 257Q148 186 164 135T210 57T282 30Q323 30 353 57T399 135T415 257Q415 327 399 378T353 456T282 483ZM252 741L313 589L295 577L156 729Z" unicode="ò"/>
			<glyph d="M282 523Q399 523 459 455T520 257Q520 126 459 58T282 -10Q165 -10 104 58T43 257Q43 387 104 455T282 523ZM282 483Q240 483 210 456T164 378T148 257Q148 186 164 135T210 57T282 30Q323 30 353 57T399 135T415 257Q415 327 399 378T353 456T282 483ZM295 741H410L264 577H240Z" unicode="ó"/>
			<glyph d="M282 523Q399 523 459 455T520 257Q520 126 459 58T282 -10Q165 -10 104 58T43 257Q43 387 104 455T282 523ZM282 483Q240 483 210 456T164 378T148 257Q148 186 164 135T210 57T282 30Q323 30 353 57T399 135T415 257Q415 327 399 378T353 456T282 483ZM284 737H296L391 583L360 578L273 649L198 589H174Z" unicode="ô"/>
			<glyph d="M282 523Q399 523 459 455T520 257Q520 126 459 58T282 -10Q165 -10 104 58T43 257Q43 387 104 455T282 523ZM282 483Q240 483 210 456T164 378T148 257Q148 186 164 135T210 57T282 30Q323 30 353 57T399 135T415 257Q415 327 399 378T353 456T282 483ZM417 718L438 712Q432 678 424 655T399 616T352 600Q335 600 318 605T272 623Q249 633 232 638T202 644Q163 644 147 599L125 604Q133 638 141 660T167 697T213 713Q231 713 248 707T289 692Q315 682 331 677T364 672Q386 672 397 683T417 718Z" unicode="õ"/>
			<glyph d="M282 523Q399 523 459 455T520 257Q520 126 459 58T282 -10Q165 -10 104 58T43 257Q43 387 104 455T282 523ZM282 483Q240 483 210 456T164 378T148 257Q148 186 164 135T210 57T282 30Q323 30 353 57T399 135T415 257Q415 327 399 378T353 456T282 483ZM189 717Q216 717 230 702T245 661Q245 635 230 620T189 606Q163 606 148 620T134 661Q134 688 148 702T189 717ZM374 717Q401 717 415 702T430 661Q430 635 415 620T374 606Q348 606 333 620T319 661Q319 688 333 702T374 717Z" unicode="ö"/>
			<glyph d="M216 557Q237 557 252 542T267 505Q267 484 252 469T216 455Q194 455 179 469T164 505Q164 527 179 542T216 557ZM30 369H404V318H30ZM216 229Q237 229 252 214T267 178Q267 156 252 141T216 127Q194 127 179 141T164 178Q164 199 179 214T216 229Z" horiz-adv-x="434" unicode="÷"/>
			<glyph d="M358 593L405 579L382 507Q450 482 485 419T520 257Q520 126 459 58T282 -10Q243 -10 215 -3L192 -73L144 -57L166 12Q106 40 74 102T43 257Q43 387 104 455T282 523Q312 523 333 519ZM282 483Q240 483 210 456T164 378T148 257Q148 140 189 81L319 477Q303 483 282 483ZM362 447L230 42Q252 30 282 30Q323 30 353 57T399 135T415 257Q415 322 401 370T362 447Z" horiz-adv-x="563" unicode="ø"/>
			<glyph d="M192 523V159Q192 108 215 81T283 54Q318 54 352 74T410 131V451L336 474V495L506 523V54L580 34V14L410 -10V88Q369 41 326 15T237 -10Q170 -10 133 31T96 143V451L22 474V495ZM271 741L332 589L314 577L175 729Z" horiz-adv-x="608" unicode="ù"/>
			<glyph d="M192 523V159Q192 108 215 81T283 54Q318 54 352 74T410 131V451L336 474V495L506 523V54L580 34V14L410 -10V88Q369 41 326 15T237 -10Q170 -10 133 31T96 143V451L22 474V495ZM314 741H429L283 577H259Z" horiz-adv-x="608" unicode="ú"/>
			<glyph d="M192 523V159Q192 108 215 81T283 54Q318 54 352 74T410 131V451L336 474V495L506 523V54L580 34V14L410 -10V88Q369 41 326 15T237 -10Q170 -10 133 31T96 143V451L22 474V495ZM302 737H314L409 583L378 578L291 649L216 589H192Z" horiz-adv-x="608" unicode="û"/>
			<glyph d="M192 523V159Q192 108 215 81T283 54Q318 54 352 74T410 131V451L336 474V495L506 523V54L580 34V14L410 -10V88Q369 41 326 15T237 -10Q170 -10 133 31T96 143V451L22 474V495ZM207 717Q234 717 248 702T263 661Q263 635 248 620T207 606Q181 606 166 620T152 661Q152 688 166 702T207 717ZM392 717Q419 717 433 702T448 661Q448 635 433 620T392 606Q366 606 351 620T337 661Q337 688 351 702T392 717Z" horiz-adv-x="608" unicode="ü"/>
			<glyph d="M-10 513H240V492L163 458L303 118L427 458L342 492V513H549V492L477 458L257 -98Q239 -146 223 -173T182 -215T118 -230Q88 -230 69 -212T51 -167Q51 -141 68 -123T111 -105Q134 -105 147 -119T174 -162L252 -4L61 458L-10 492ZM315 741H430L284 577H260Z" horiz-adv-x="539" unicode="ý"/>
			<glyph d="M172 770V426Q207 475 246 499T333 523Q427 523 475 457T524 264Q524 182 495 120T410 24T276 -10Q217 -10 172 7V-175L246 -209V-230H2V-209L76 -175V700L2 723V744ZM300 452Q261 452 228 433T172 381V86Q195 58 222 44T282 30Q325 30 356 57T403 135T420 257Q420 317 405 361T364 428T300 452Z" horiz-adv-x="567" unicode="þ"/>
			<glyph d="M-10 513H240V492L163 458L303 118L427 458L342 492V513H549V492L477 458L257 -98Q239 -146 223 -173T182 -215T118 -230Q88 -230 69 -212T51 -167Q51 -141 68 -123T111 -105Q134 -105 147 -119T174 -162L252 -4L61 458L-10 492ZM208 717Q235 717 249 702T264 661Q264 635 249 620T208 606Q182 606 167 620T153 661Q153 688 167 702T208 717ZM393 717Q420 717 434 702T449 661Q449 635 434 620T393 606Q367 606 352 620T338 661Q338 688 352 702T393 717Z" horiz-adv-x="539" unicode="ÿ"/>
			<glyph d="M351 727H395L659 56L741 21V0H463V21L548 56L469 257H216L141 56L226 21V0H-5V21L77 56ZM340 584L231 295H454ZM221 872H525V811H221Z" horiz-adv-x="736" unicode="Ā"/>
			<glyph d="M247 523Q343 523 385 481T428 349V100Q428 69 436 56T462 43Q480 43 506 57L518 39Q491 13 465 1T411 -10Q339 -10 333 62Q297 24 260 7T179 -10Q115 -10 78 22T42 111Q42 165 72 202T166 263T332 304V364Q332 425 307 454T230 484Q186 484 155 471Q164 454 169 441T174 414Q174 388 158 371T116 354Q90 354 74 370T59 414Q59 444 84 469T152 508T247 523ZM332 269Q236 248 191 211T146 119Q146 84 164 66T219 48Q249 48 276 60T332 98ZM97 682H394V622H97Z" horiz-adv-x="525" unicode="ā"/>
			<glyph d="M351 727H395L659 56L741 21V0H463V21L548 56L469 257H216L141 56L226 21V0H-5V21L77 56ZM340 584L231 295H454ZM243 910H265Q267 900 276 887T308 865T372 855Q412 855 435 865T468 887T479 910H501Q501 849 466 815T372 781Q313 781 278 815T243 910Z" horiz-adv-x="736" unicode="Ă"/>
			<glyph d="M247 523Q343 523 385 481T428 349V100Q428 69 436 56T462 43Q480 43 506 57L518 39Q491 13 465 1T411 -10Q339 -10 333 62Q297 24 260 7T179 -10Q115 -10 78 22T42 111Q42 165 72 202T166 263T332 304V364Q332 425 307 454T230 484Q186 484 155 471Q164 454 169 441T174 414Q174 388 158 371T116 354Q90 354 74 370T59 414Q59 444 84 469T152 508T247 523ZM332 269Q236 248 191 211T146 119Q146 84 164 66T219 48Q249 48 276 60T332 98ZM114 733H136Q138 722 147 706T179 677T243 664Q283 664 306 677T339 706T350 733H372Q372 692 356 659T310 608T243 590Q205 590 175 608T130 659T114 733Z" horiz-adv-x="525" unicode="ă"/>
			<glyph d="M351 727H395L659 56L741 21V0H463V21L548 56L469 257H216L141 56L226 21V0H-5V21L77 56ZM340 584L231 295H454ZM697 0H741Q695 -34 669 -71T643 -140Q643 -164 656 -177T691 -190Q714 -190 741 -175L753 -194Q734 -209 708 -219T653 -230Q607 -230 578 -207T549 -137Q549 -111 567 -85T619 -37T697 0Z" horiz-adv-x="736" unicode="Ą"/>
			<glyph d="M247 523Q343 523 385 481T428 349V100Q428 69 436 56T462 43Q480 43 506 57L518 39L515 35Q468 -8 441 -53T414 -140Q414 -164 427 -177T462 -190Q485 -190 512 -175L524 -194Q505 -209 479 -219T424 -230Q378 -230 348 -207T319 -137Q319 -71 437 -7Q424 -10 411 -10Q339 -10 333 62Q297 24 260 7T179 -10Q115 -10 78 22T42 111Q42 165 72 202T166 263T332 304V364Q332 425 307 454T230 484Q186 484 155 471Q164 454 169 441T174 414Q174 388 158 371T116 354Q90 354 74 370T59 414Q59 444 84 469T152 508T247 523ZM332 269Q236 248 191 211T146 119Q146 84 164 66T219 48Q249 48 276 60T332 98Z" horiz-adv-x="525" unicode="ą"/>
			<glyph d="M391 727Q419 727 441 722T494 708Q512 703 531 698T566 694H600V490H555Q532 564 508 607T457 668T395 686Q326 686 274 647T194 536T166 368Q166 268 197 195T284 85T411 48Q455 48 488 55T536 68T590 93L606 68Q555 27 497 6T372 -14Q274 -14 200 30T85 155T45 347Q45 459 89 545T211 679T391 727ZM463 917L530 844L308 773L287 788Z" horiz-adv-x="654" unicode="Ć"/>
			<glyph d="M294 523Q339 523 372 510T422 473T440 420Q440 389 422 372T376 356Q347 356 331 372T316 420Q316 435 321 449T336 482Q316 487 294 487Q249 487 216 461T165 385T148 266Q148 197 168 148T225 73T316 47Q342 47 369 54T418 74L430 49Q351 -10 264 -10Q195 -10 145 19T69 106T43 247Q43 329 75 391T164 488T294 523ZM266 741H381L235 577H211Z" horiz-adv-x="466" unicode="ć"/>
			<glyph d="M391 727Q419 727 441 722T494 708Q512 703 531 698T566 694H600V490H555Q532 564 508 607T457 668T395 686Q326 686 274 647T194 536T166 368Q166 268 197 195T284 85T411 48Q455 48 488 55T536 68T590 93L606 68Q555 27 497 6T372 -14Q274 -14 200 30T85 155T45 347Q45 459 89 545T211 679T391 727ZM359 918L490 770L473 759L360 826L244 763L211 759L335 907Z" horiz-adv-x="654" unicode="Ĉ"/>
			<glyph d="M294 523Q339 523 372 510T422 473T440 420Q440 389 422 372T376 356Q347 356 331 372T316 420Q316 435 321 449T336 482Q316 487 294 487Q249 487 216 461T165 385T148 266Q148 197 168 148T225 73T316 47Q342 47 369 54T418 74L430 49Q351 -10 264 -10Q195 -10 145 19T69 106T43 247Q43 329 75 391T164 488T294 523ZM254 737H266L361 583L330 578L243 649L168 589H144Z" horiz-adv-x="466" unicode="ĉ"/>
			<glyph d="M391 727Q419 727 441 722T494 708Q512 703 531 698T566 694H600V490H555Q532 564 508 607T457 668T395 686Q326 686 274 647T194 536T166 368Q166 268 197 195T284 85T411 48Q455 48 488 55T536 68T590 93L606 68Q555 27 497 6T372 -14Q274 -14 200 30T85 155T45 347Q45 459 89 545T211 679T391 727ZM353 904Q382 904 398 888T414 843Q414 814 398 798T353 782Q324 782 308 798T292 843Q292 872 308 888T353 904Z" horiz-adv-x="654" unicode="Ċ"/>
			<glyph d="M294 523Q339 523 372 510T422 473T440 420Q440 389 422 372T376 356Q347 356 331 372T316 420Q316 435 321 449T336 482Q316 487 294 487Q249 487 216 461T165 385T148 266Q148 197 168 148T225 73T316 47Q342 47 369 54T418 74L430 49Q351 -10 264 -10Q195 -10 145 19T69 106T43 247Q43 329 75 391T164 488T294 523ZM252 741Q281 741 297 725T313 680Q313 651 297 635T252 619Q223 619 207 635T191 680Q191 709 207 725T252 741Z" horiz-adv-x="466" unicode="ċ"/>
			<glyph d="M391 727Q419 727 441 722T494 708Q512 703 531 698T566 694H600V490H555Q532 564 508 607T457 668T395 686Q326 686 274 647T194 536T166 368Q166 268 197 195T284 85T411 48Q455 48 488 55T536 68T590 93L606 68Q555 27 497 6T372 -14Q274 -14 200 30T85 155T45 347Q45 459 89 545T211 679T391 727ZM207 918H237L353 847L470 918H500L362 759H344Z" horiz-adv-x="654" unicode="Č"/>
			<glyph d="M294 523Q339 523 372 510T422 473T440 420Q440 389 422 372T376 356Q347 356 331 372T316 420Q316 435 321 449T336 482Q316 487 294 487Q249 487 216 461T165 385T148 266Q148 197 168 148T225 73T316 47Q342 47 369 54T418 74L430 49Q351 -10 264 -10Q195 -10 145 19T69 106T43 247Q43 329 75 391T164 488T294 523ZM134 741H164L252 664L341 741H371L262 570H244Z" horiz-adv-x="466" unicode="č"/>
			<glyph d="M35 713H312Q422 713 505 668T635 543T681 356Q681 250 635 169T505 44T312 0H35V21L119 56V657L35 691ZM226 673V40H293Q372 40 432 79T526 190T560 356Q560 450 526 522T432 633T293 673ZM216 918H246L362 847L479 918H509L371 759H353Z" horiz-adv-x="727" unicode="Ď"/>
			<glyph d="M491 770V54L565 34V14L395 -10V87Q360 37 321 13T235 -10Q140 -10 91 56T43 249Q43 331 72 393T158 489T291 523Q349 523 395 501V698L320 721V742ZM285 483Q242 483 211 456T163 378T147 257Q147 194 161 148T203 77T268 53Q308 53 340 74T395 134V411Q351 483 285 483ZM557 770H649L565 606H541Z" horiz-adv-x="593" unicode="ď"/>
			<glyph d="M35 713H312Q422 713 505 668T635 543T681 356Q681 250 635 169T505 44T312 0H35V21L119 56V329H4V388H119V657L35 691ZM226 673V388H355V329H226V40H293Q372 40 432 79T526 190T560 356Q560 450 526 522T432 633T293 673Z" horiz-adv-x="727" unicode="Đ"/>
			<glyph d="M491 770V647H569V588H491V54L565 34V14L395 -10V87Q360 37 321 13T235 -10Q140 -10 91 56T43 249Q43 331 72 393T158 489T291 523Q349 523 395 501V588H218V647H395V698L320 721V742ZM285 483Q242 483 211 456T163 378T147 257Q147 194 161 148T203 77T268 53Q308 53 340 74T395 134V411Q351 483 285 483Z" horiz-adv-x="593" unicode="đ"/>
			<glyph d="M35 713H545V520H523Q494 587 471 619T420 662T348 673H226V385H269Q321 385 347 391T390 417T425 477H446V254H425Q407 296 390 314T348 339T269 346H226V40H363Q408 40 435 51T485 97T538 202H559V0H35V21L119 56V657L35 691ZM138 872H442V811H138Z" horiz-adv-x="594" unicode="Ē"/>
			<glyph d="M267 523Q333 523 379 494T448 413T471 289Q471 273 469 255H148Q148 192 169 146T228 77T320 53Q353 53 386 60T446 82L458 57Q376 -10 279 -10Q206 -10 153 20T71 111T43 257Q43 336 71 396T151 490T267 523ZM265 487Q213 487 183 436T149 292L366 305Q366 392 341 439T265 487ZM108 682H405V622H108Z" horiz-adv-x="518" unicode="ē"/>
			<glyph d="M35 713H545V520H523Q494 587 471 619T420 662T348 673H226V385H269Q321 385 347 391T390 417T425 477H446V254H425Q407 296 390 314T348 339T269 346H226V40H363Q408 40 435 51T485 97T538 202H559V0H35V21L119 56V657L35 691ZM160 910H182Q184 900 193 887T225 865T289 855Q329 855 352 865T385 887T396 910H418Q418 849 383 815T289 781Q230 781 195 815T160 910Z" horiz-adv-x="594" unicode="Ĕ"/>
			<glyph d="M267 523Q333 523 379 494T448 413T471 289Q471 273 469 255H148Q148 192 169 146T228 77T320 53Q353 53 386 60T446 82L458 57Q376 -10 279 -10Q206 -10 153 20T71 111T43 257Q43 336 71 396T151 490T267 523ZM265 487Q213 487 183 436T149 292L366 305Q366 392 341 439T265 487ZM125 733H147Q149 722 158 706T190 677T254 664Q294 664 317 677T350 706T361 733H383Q383 692 367 659T321 608T254 590Q216 590 186 608T141 659T125 733Z" horiz-adv-x="518" unicode="ĕ"/>
			<glyph d="M35 713H545V520H523Q494 587 471 619T420 662T348 673H226V385H269Q321 385 347 391T390 417T425 477H446V254H425Q407 296 390 314T348 339T269 346H226V40H363Q408 40 435 51T485 97T538 202H559V0H35V21L119 56V657L35 691ZM290 904Q319 904 335 888T351 843Q351 814 335 798T290 782Q261 782 245 798T229 843Q229 872 245 888T290 904Z" horiz-adv-x="594" unicode="Ė"/>
			<glyph d="M267 523Q333 523 379 494T448 413T471 289Q471 273 469 255H148Q148 192 169 146T228 77T320 53Q353 53 386 60T446 82L458 57Q376 -10 279 -10Q206 -10 153 20T71 111T43 257Q43 336 71 396T151 490T267 523ZM265 487Q213 487 183 436T149 292L366 305Q366 392 341 439T265 487ZM257 741Q286 741 302 725T318 680Q318 651 302 635T257 619Q228 619 212 635T196 680Q196 709 212 725T257 741Z" horiz-adv-x="518" unicode="ė"/>
			<glyph d="M35 713H545V520H523Q494 587 471 619T420 662T348 673H226V385H269Q321 385 347 391T390 417T425 477H446V254H425Q407 296 390 314T348 339T269 346H226V40H363Q408 40 435 51T485 97T538 202H559V0H35V21L119 56V657L35 691ZM515 0H559Q513 -34 487 -71T461 -140Q461 -164 474 -177T509 -190Q532 -190 559 -175L571 -194Q552 -209 526 -219T471 -230Q425 -230 396 -207T367 -137Q367 -111 385 -85T437 -37T515 0Z" horiz-adv-x="594" unicode="Ę"/>
			<glyph d="M267 523Q333 523 379 494T448 413T471 289Q471 273 469 255H148Q148 192 169 146T228 77T320 53Q353 53 386 60T446 82L458 57Q409 9 381 -42T353 -140Q353 -164 366 -177T401 -190Q424 -190 451 -175L463 -194Q444 -209 418 -219T363 -230Q317 -230 287 -207T258 -137Q258 -102 287 -64T362 3Q324 -10 279 -10Q206 -10 153 20T71 111T43 257Q43 336 71 396T151 490T267 523ZM265 487Q213 487 183 436T149 292L366 305Q366 392 341 439T265 487Z" horiz-adv-x="518" unicode="ę"/>
			<glyph d="M35 713H545V520H523Q494 587 471 619T420 662T348 673H226V385H269Q321 385 347 391T390 417T425 477H446V254H425Q407 296 390 314T348 339T269 346H226V40H363Q408 40 435 51T485 97T538 202H559V0H35V21L119 56V657L35 691ZM144 918H174L290 847L407 918H437L299 759H281Z" horiz-adv-x="594" unicode="Ě"/>
			<glyph d="M267 523Q333 523 379 494T448 413T471 289Q471 273 469 255H148Q148 192 169 146T228 77T320 53Q353 53 386 60T446 82L458 57Q376 -10 279 -10Q206 -10 153 20T71 111T43 257Q43 336 71 396T151 490T267 523ZM265 487Q213 487 183 436T149 292L366 305Q366 392 341 439T265 487ZM138 741H168L256 664L345 741H375L266 570H248Z" horiz-adv-x="518" unicode="ě"/>
			<glyph d="M389 727Q419 727 441 722T496 708Q513 703 531 698T566 694H601V500H556Q532 571 508 611T458 669T395 686Q326 686 274 647T194 536T166 368Q166 259 195 182T279 66T416 26Q465 26 506 48V282L422 317V338H686V317L612 286V44Q509 -14 387 -14Q282 -14 205 29T86 154T45 347Q45 459 88 545T210 679T389 727ZM361 918L492 770L475 759L362 826L246 763L213 759L337 907Z" horiz-adv-x="695" unicode="Ĝ"/>
			<glyph d="M451 578Q473 578 485 566T497 535Q497 511 482 498T438 486H370Q431 440 431 350Q431 297 408 258T343 199T241 179Q203 179 171 188L139 129Q142 108 160 98T217 88H336Q413 88 453 54T494 -41Q494 -95 465 -138T380 -205T242 -230Q133 -230 79 -198T26 -107Q26 -77 35 -56T63 -20T115 13Q89 26 75 47T62 93Q62 124 80 147T142 198Q99 218 75 257T52 350Q52 404 74 443T139 502T241 523Q297 523 337 505L403 559Q415 569 427 573T451 578ZM241 487Q199 487 175 450T151 350Q151 286 175 250T241 214Q284 214 308 250T332 350Q332 415 308 451T241 487ZM139 4Q123 -19 115 -38T108 -83Q108 -133 142 -163T242 -194Q297 -194 334 -178T388 -136T406 -79Q406 -41 385 -22T327 -4H202Q168 -4 139 4ZM243 737H255L350 583L319 578L232 649L157 589H133Z" horiz-adv-x="512" unicode="ĝ"/>
			<glyph d="M389 727Q419 727 441 722T496 708Q513 703 531 698T566 694H601V500H556Q532 571 508 611T458 669T395 686Q326 686 274 647T194 536T166 368Q166 259 195 182T279 66T416 26Q465 26 506 48V282L422 317V338H686V317L612 286V44Q509 -14 387 -14Q282 -14 205 29T86 154T45 347Q45 459 88 545T210 679T389 727ZM225 910H247Q249 900 258 887T290 865T354 855Q394 855 417 865T450 887T461 910H483Q483 849 448 815T354 781Q295 781 260 815T225 910Z" horiz-adv-x="695" unicode="Ğ"/>
			<glyph d="M451 578Q473 578 485 566T497 535Q497 511 482 498T438 486H370Q431 440 431 350Q431 297 408 258T343 199T241 179Q203 179 171 188L139 129Q142 108 160 98T217 88H336Q413 88 453 54T494 -41Q494 -95 465 -138T380 -205T242 -230Q133 -230 79 -198T26 -107Q26 -77 35 -56T63 -20T115 13Q89 26 75 47T62 93Q62 124 80 147T142 198Q99 218 75 257T52 350Q52 404 74 443T139 502T241 523Q297 523 337 505L403 559Q415 569 427 573T451 578ZM241 487Q199 487 175 450T151 350Q151 286 175 250T241 214Q284 214 308 250T332 350Q332 415 308 451T241 487ZM139 4Q123 -19 115 -38T108 -83Q108 -133 142 -163T242 -194Q297 -194 334 -178T388 -136T406 -79Q406 -41 385 -22T327 -4H202Q168 -4 139 4ZM110 733H132Q134 722 143 706T175 677T239 664Q279 664 302 677T335 706T346 733H368Q368 692 352 659T306 608T239 590Q201 590 171 608T126 659T110 733Z" horiz-adv-x="512" unicode="ğ"/>
			<glyph d="M389 727Q419 727 441 722T496 708Q513 703 531 698T566 694H601V500H556Q532 571 508 611T458 669T395 686Q326 686 274 647T194 536T166 368Q166 259 195 182T279 66T416 26Q465 26 506 48V282L422 317V338H686V317L612 286V44Q509 -14 387 -14Q282 -14 205 29T86 154T45 347Q45 459 88 545T210 679T389 727ZM355 904Q384 904 400 888T416 843Q416 814 400 798T355 782Q326 782 310 798T294 843Q294 872 310 888T355 904Z" horiz-adv-x="695" unicode="Ġ"/>
			<glyph d="M451 578Q473 578 485 566T497 535Q497 511 482 498T438 486H370Q431 440 431 350Q431 297 408 258T343 199T241 179Q203 179 171 188L139 129Q142 108 160 98T217 88H336Q413 88 453 54T494 -41Q494 -95 465 -138T380 -205T242 -230Q133 -230 79 -198T26 -107Q26 -77 35 -56T63 -20T115 13Q89 26 75 47T62 93Q62 124 80 147T142 198Q99 218 75 257T52 350Q52 404 74 443T139 502T241 523Q297 523 337 505L403 559Q415 569 427 573T451 578ZM241 487Q199 487 175 450T151 350Q151 286 175 250T241 214Q284 214 308 250T332 350Q332 415 308 451T241 487ZM139 4Q123 -19 115 -38T108 -83Q108 -133 142 -163T242 -194Q297 -194 334 -178T388 -136T406 -79Q406 -41 385 -22T327 -4H202Q168 -4 139 4ZM242 741Q271 741 287 725T303 680Q303 651 287 635T242 619Q213 619 197 635T181 680Q181 709 197 725T242 741Z" horiz-adv-x="512" unicode="ġ"/>
			<glyph d="M389 727Q419 727 441 722T496 708Q513 703 531 698T566 694H601V500H556Q532 571 508 611T458 669T395 686Q326 686 274 647T194 536T166 368Q166 259 195 182T279 66T416 26Q465 26 506 48V282L422 317V338H686V317L612 286V44Q509 -14 387 -14Q282 -14 205 29T86 154T45 347Q45 459 88 545T210 679T389 727ZM359 -46Q421 -46 421 -121Q421 -159 397 -200T333 -274L308 -247Q327 -222 338 -203T358 -160Q332 -159 317 -143T303 -103Q303 -77 317 -61T359 -46Z" horiz-adv-x="695" unicode="Ģ"/>
			<glyph d="M451 578Q473 578 485 566T497 535Q497 511 482 498T438 486H370Q431 440 431 350Q431 297 408 258T343 199T241 179Q203 179 171 188L139 129Q142 108 160 98T217 88H336Q413 88 453 54T494 -41Q494 -95 465 -138T380 -205T242 -230Q133 -230 79 -198T26 -107Q26 -77 35 -56T63 -20T115 13Q89 26 75 47T62 93Q62 124 80 147T142 198Q99 218 75 257T52 350Q52 404 74 443T139 502T241 523Q297 523 337 505L403 559Q415 569 427 573T451 578ZM241 487Q199 487 175 450T151 350Q151 286 175 250T241 214Q284 214 308 250T332 350Q332 415 308 451T241 487ZM139 4Q123 -19 115 -38T108 -83Q108 -133 142 -163T242 -194Q297 -194 334 -178T388 -136T406 -79Q406 -41 385 -22T327 -4H202Q168 -4 139 4ZM272 803L297 776Q278 751 267 732T247 689Q273 688 287 672T302 632Q302 606 287 590T246 575Q184 575 184 650Q184 689 208 730T272 803Z" horiz-adv-x="512" unicode="ģ"/>
			<glyph d="M35 713H309V691L226 657V385H556V657L472 691V713H746V691L663 657V56L746 21V0H472V21L556 56V346H226V56L309 21V0H35V21L119 56V657L35 691ZM396 918L527 770L510 759L397 826L281 763L248 759L372 907Z" horiz-adv-x="781" unicode="Ĥ"/>
			<glyph d="M196 770V425Q280 523 365 523Q435 523 472 482T510 371V56L584 21V0H342V21L414 55V354Q414 451 318 451Q289 451 255 432T196 382V55L268 21V0H26V21L100 56V698L26 721V742ZM311 950L442 802L425 791L312 858L196 795L163 791L287 939Z" horiz-adv-x="607" unicode="ĥ"/>
			<glyph d="M35 713H309V691L226 657V543H556V657L472 691V713H746V691L663 657V543H746V504H663V56L746 21V0H472V21L556 56V346H226V56L309 21V0H35V21L119 56V504H36V543H119V657L35 691ZM226 504V385H556V504Z" horiz-adv-x="781" unicode="Ħ"/>
			<glyph d="M196 770V647H381V588H196V425Q280 523 365 523Q435 523 472 482T510 371V56L584 21V0H342V21L414 55V354Q414 451 318 451Q289 451 255 432T196 382V55L268 21V0H26V21L100 56V588H30V647H100V698L26 721V742Z" horiz-adv-x="607" unicode="ħ"/>
			<glyph d="M35 713H309V691L226 657V56L309 21V0H35V21L119 56V657L35 691ZM308 908L329 902Q323 868 315 845T290 806T243 790Q226 790 209 795T163 813Q140 823 123 828T93 834Q53 834 38 788L16 793Q24 827 32 849T58 886T104 902Q122 902 139 896T180 881Q206 871 222 866T255 861Q277 861 288 872T308 908Z" horiz-adv-x="344" unicode="Ĩ"/>
			<glyph d="M205 523V56L279 21V0H35V21L109 56V451L35 474V495ZM293 718L314 712Q308 678 300 655T275 616T228 600Q211 600 194 605T148 623Q125 633 108 638T78 644Q39 644 23 599L1 604Q9 638 17 660T43 697T89 713Q107 713 124 707T165 692Q191 682 207 677T240 672Q262 672 273 683T293 718Z" horiz-adv-x="307" unicode="ĩ"/>
			<glyph d="M35 713H309V691L226 657V56L309 21V0H35V21L119 56V657L35 691ZM21 872H325V811H21Z" horiz-adv-x="344" unicode="Ī"/>
			<glyph d="M205 523V56L279 21V0H35V21L109 56V451L35 474V495ZM9 682H306V622H9Z" horiz-adv-x="307" unicode="ī"/>
			<glyph d="M35 713H309V691L226 657V56L309 21V0H35V21L119 56V657L35 691ZM42 910H64Q66 900 75 887T107 865T171 855Q211 855 234 865T267 887T278 910H300Q300 849 265 815T171 781Q112 781 77 815T42 910Z" horiz-adv-x="344" unicode="Ĭ"/>
			<glyph d="M205 523V56L279 21V0H35V21L109 56V451L35 474V495ZM26 733H48Q50 722 59 706T91 677T155 664Q195 664 218 677T251 706T262 733H284Q284 692 268 659T222 608T155 590Q117 590 87 608T42 659T26 733Z" horiz-adv-x="307" unicode="ĭ"/>
			<glyph d="M35 713H309V691L226 657V56L309 21V0H35V21L119 56V657L35 691ZM265 0H309Q263 -34 237 -71T211 -140Q211 -164 224 -177T259 -190Q282 -190 309 -175L321 -194Q302 -209 276 -219T221 -230Q175 -230 146 -207T117 -137Q117 -111 135 -85T187 -37T265 0Z" horiz-adv-x="344" unicode="Į"/>
			<glyph d="M205 523V56L279 21V0H35V21L109 56V451L35 474V495ZM158 741Q187 741 203 725T219 680Q219 651 203 635T158 619Q129 619 113 635T97 680Q97 709 113 725T158 741ZM235 0H279Q233 -34 207 -71T181 -140Q181 -164 194 -177T229 -190Q252 -190 279 -175L291 -194Q272 -209 246 -219T191 -230Q145 -230 116 -207T87 -137Q87 -111 105 -85T157 -37T235 0Z" horiz-adv-x="307" unicode="į"/>
			<glyph d="M35 713H309V691L226 657V56L309 21V0H35V21L119 56V657L35 691ZM173 904Q202 904 218 888T234 843Q234 814 218 798T173 782Q144 782 128 798T112 843Q112 872 128 888T173 904Z" horiz-adv-x="344" unicode="İ"/>
			<glyph d="M205 523V56L279 21V0H35V21L109 56V451L35 474V495Z" horiz-adv-x="307" unicode="ı"/>
			<glyph d="M35 713H309V691L226 657V56L309 21V0H35V21L119 56V657L35 691ZM490 713H764V691L680 657V193Q680 94 637 40T507 -14Q460 -14 425 0T372 38T354 94Q354 123 370 141T416 159Q444 159 460 141T476 94Q476 80 471 68T461 47T453 34Q471 26 493 26Q534 26 554 57T574 163V657L490 691Z" horiz-adv-x="784" unicode="Ĳ"/>
			<glyph d="M153 751Q183 751 199 735T215 690Q215 661 199 644T153 628Q124 628 108 644T92 690Q92 719 108 735T153 751ZM205 523V56L279 21V0H35V21L109 56V451L35 474V495ZM461 751Q490 751 506 735T523 690Q523 661 506 644T461 628Q432 628 416 644T400 690Q400 719 416 735T461 751ZM513 523V-40Q513 -130 470 -180T344 -230Q283 -230 252 -208T222 -150Q222 -126 236 -111T276 -97Q300 -97 314 -111T328 -149Q328 -167 320 -189Q328 -193 342 -193Q379 -193 398 -166T417 -78V451L342 474V495Z" horiz-adv-x="604" unicode="ĳ"/>
			<glyph d="M146 713H420V691L336 657V193Q336 94 293 40T163 -14Q116 -14 81 0T28 38T10 94Q10 123 26 141T72 159Q100 159 116 141T132 94Q132 80 127 68T117 47T109 34Q127 26 149 26Q190 26 210 57T230 163V657L146 691ZM289 918L420 770L403 759L290 826L174 763L141 759L265 907Z" horiz-adv-x="440" unicode="Ĵ"/>
			<glyph d="M207 523V-40Q207 -130 164 -180T38 -230Q-23 -230 -53 -208T-84 -150Q-84 -126 -70 -111T-30 -97Q-6 -97 8 -111T22 -149Q22 -169 13 -189Q22 -193 36 -193Q73 -193 92 -166T111 -78V451L36 474V495ZM157 737H169L264 583L233 578L146 649L71 589H47Z" horiz-adv-x="299" unicode="ĵ"/>
			<glyph d="M35 713H309V691L226 657V357L289 399L522 657L431 691V713H676V691L593 657L376 427L633 56H634L713 21V0H416V21L503 56L306 346L226 304V56L309 21V0H35V21L119 56V657L35 691ZM363 -46Q425 -46 425 -121Q425 -159 401 -200T337 -274L312 -247Q331 -222 342 -203T362 -160Q336 -159 321 -143T307 -103Q307 -77 321 -61T363 -46Z" horiz-adv-x="705" unicode="Ķ"/>
			<glyph d="M196 770V278L243 309L380 456L306 492V513H540V492L466 456L325 342L511 54L580 21V0H345V21L399 51L265 258L196 235V56L261 21V0H26V21L100 56V698L26 721V742ZM303 -46Q365 -46 365 -121Q365 -159 341 -200T277 -274L252 -247Q271 -222 282 -203T302 -160Q276 -159 261 -143T247 -103Q247 -77 261 -61T303 -46Z" horiz-adv-x="580" unicode="ķ"/>
			<glyph d="M196 523V278L243 309L380 456L306 492V513H540V492L466 456L325 342L511 54L580 21V0H345V21L399 51L265 258L196 235V56L261 21V0H26V21L100 56V451L26 474V495Z" horiz-adv-x="580" unicode="ĸ"/>
			<glyph d="M35 713H309V691L226 657V40H326Q376 40 406 54T463 108T522 232H543V0H35V21L119 56V657L35 691ZM282 917L349 844L127 773L106 788Z" unicode="Ĺ"/>
			<glyph d="M196 770V56L270 21V0H26V21L100 56V698L26 721V742ZM237 956L304 883L82 812L61 827Z" horiz-adv-x="298" unicode="ĺ"/>
			<glyph d="M35 713H309V691L226 657V40H326Q376 40 406 54T463 108T522 232H543V0H35V21L119 56V657L35 691ZM290 -46Q352 -46 352 -121Q352 -159 328 -200T264 -274L239 -247Q258 -222 269 -203T289 -160Q263 -159 248 -143T234 -103Q234 -77 248 -61T290 -46Z" unicode="Ļ"/>
			<glyph d="M196 770V56L270 21V0H26V21L100 56V698L26 721V742ZM148 -46Q210 -46 210 -121Q210 -159 186 -200T122 -274L97 -247Q116 -222 127 -203T147 -160Q121 -159 106 -143T92 -103Q92 -77 106 -61T148 -46Z" horiz-adv-x="298" unicode="ļ"/>
			<glyph d="M35 713H309V691L226 657V40H326Q376 40 406 54T463 108T522 232H543V0H35V21L119 56V657L35 691ZM387 741H479L395 577H371Z" unicode="Ľ"/>
			<glyph d="M196 770V56L270 21V0H26V21L100 56V698L26 721V742ZM262 770H354L270 606H246Z" horiz-adv-x="298" unicode="ľ"/>
			<glyph d="M35 713H309V691L226 657V40H326Q376 40 406 54T463 108T522 232H543V0H35V21L119 56V657L35 691ZM473 449Q508 449 528 429T549 374Q549 340 528 320T473 300Q439 300 419 320T399 374Q399 409 418 429T473 449Z" unicode="Ŀ"/>
			<glyph d="M196 770V56L270 21V0H26V21L100 56V698L26 721V742ZM333 417Q368 417 388 397T409 342Q409 308 388 288T333 268Q299 268 279 288T259 342Q259 377 278 397T333 417Z" horiz-adv-x="370" unicode="ŀ"/>
			<glyph d="M35 713H309V691L226 657V409L356 464L379 410L226 345V40H326Q376 40 406 54T463 108T522 232H543V0H35V21L119 56V300L52 272L30 326L119 364V657L35 691Z" unicode="Ł"/>
			<glyph d="M197 770V478L268 508L291 454L197 415V56L271 21V0H27V21L101 56V375L29 345L7 399L101 438V698L27 721V742Z" horiz-adv-x="299" unicode="ł"/>
			<glyph d="M35 713H201L599 181V657L515 691V713H731V691L647 657V-9H609L168 579V56L251 21V0H35V21L119 56V657L35 691ZM493 917L560 844L338 773L317 788Z" horiz-adv-x="757" unicode="Ń"/>
			<glyph d="M205 523V425Q289 523 374 523Q444 523 481 482T519 371V56L593 21V0H351V23L423 55V354Q423 401 400 426T331 451Q299 451 265 432T205 383V55L277 21V0H35V21L109 56V451L35 474V495ZM331 741H446L300 577H276Z" horiz-adv-x="616" unicode="ń"/>
			<glyph d="M35 713H201L599 181V657L515 691V713H731V691L647 657V-9H609L168 579V56L251 21V0H35V21L119 56V657L35 691ZM390 -46Q452 -46 452 -121Q452 -159 428 -200T364 -274L339 -247Q358 -222 369 -203T389 -160Q363 -159 348 -143T334 -103Q334 -77 348 -61T390 -46Z" horiz-adv-x="757" unicode="Ņ"/>
			<glyph d="M205 523V425Q289 523 374 523Q444 523 481 482T519 371V56L593 21V0H351V23L423 55V354Q423 401 400 426T331 451Q299 451 265 432T205 383V55L277 21V0H35V21L109 56V451L35 474V495ZM314 -46Q376 -46 376 -121Q376 -159 352 -200T288 -274L263 -247Q282 -222 293 -203T313 -160Q287 -159 272 -143T258 -103Q258 -77 272 -61T314 -46Z" horiz-adv-x="616" unicode="ņ"/>
			<glyph d="M35 713H201L599 181V657L515 691V713H731V691L647 657V-9H609L168 579V56L251 21V0H35V21L119 56V657L35 691ZM236 918H266L382 847L499 918H529L391 759H373Z" horiz-adv-x="757" unicode="Ň"/>
			<glyph d="M205 523V425Q289 523 374 523Q444 523 481 482T519 371V56L593 21V0H351V23L423 55V354Q423 401 400 426T331 451Q299 451 265 432T205 383V55L277 21V0H35V21L109 56V451L35 474V495ZM198 741H228L316 664L405 741H435L326 570H308Z" horiz-adv-x="616" unicode="ň"/>
			<glyph d="M12 741Q46 741 64 720T83 659Q83 624 63 588T16 525L-11 548Q-2 562 6 581T18 618Q-15 618 -31 633T-48 679Q-48 709 -32 725T12 741ZM205 523V425Q289 523 374 523Q444 523 481 482T519 371V56L593 21V0H351V23L423 55V354Q423 401 400 426T331 451Q299 451 265 432T205 383V55L277 21V0H35V21L109 56V451L35 474V495Z" horiz-adv-x="616" unicode="ŉ"/>
			<glyph d="M35 713H201L599 181V657L515 691V713H731V691L647 657V-40Q647 -130 604 -180T478 -230Q417 -230 386 -208T356 -150Q356 -126 370 -111T410 -97Q434 -97 448 -111T462 -149Q462 -167 454 -189Q462 -193 476 -193Q513 -193 532 -166T551 -78V68L168 579V56L251 21V0H35V21L119 56V657L35 691Z" horiz-adv-x="757" unicode="Ŋ"/>
			<glyph d="M205 523V425Q289 523 374 523Q444 523 481 482T519 371V-40Q519 -130 476 -180T350 -230Q289 -230 258 -208T228 -150Q228 -126 242 -111T282 -97Q306 -97 320 -111T334 -149Q334 -167 326 -189Q334 -193 348 -193Q385 -193 404 -166T423 -78V354Q423 401 400 426T331 451Q299 451 265 432T205 383V55L277 21V0H35V21L109 56V451L35 474V495Z" horiz-adv-x="611" unicode="ŋ"/>
			<glyph d="M389 727Q491 727 569 681T690 550T733 356Q733 246 690 162T569 32T389 -14Q287 -14 209 32T88 162T45 356Q45 466 88 550T209 681T389 727ZM389 687Q323 687 272 646T194 530T166 356Q166 258 194 183T272 67T389 26Q455 26 505 67T584 183T612 356Q612 455 584 530T505 646T389 687ZM237 872H541V811H237Z" horiz-adv-x="778" unicode="Ō"/>
			<glyph d="M282 523Q399 523 459 455T520 257Q520 126 459 58T282 -10Q165 -10 104 58T43 257Q43 387 104 455T282 523ZM282 483Q240 483 210 456T164 378T148 257Q148 186 164 135T210 57T282 30Q323 30 353 57T399 135T415 257Q415 327 399 378T353 456T282 483ZM133 682H430V622H133Z" unicode="ō"/>
			<glyph d="M389 727Q491 727 569 681T690 550T733 356Q733 246 690 162T569 32T389 -14Q287 -14 209 32T88 162T45 356Q45 466 88 550T209 681T389 727ZM389 687Q323 687 272 646T194 530T166 356Q166 258 194 183T272 67T389 26Q455 26 505 67T584 183T612 356Q612 455 584 530T505 646T389 687ZM259 910H281Q283 900 292 887T324 865T388 855Q428 855 451 865T484 887T495 910H517Q517 849 482 815T388 781Q329 781 294 815T259 910Z" horiz-adv-x="778" unicode="Ŏ"/>
			<glyph d="M282 523Q399 523 459 455T520 257Q520 126 459 58T282 -10Q165 -10 104 58T43 257Q43 387 104 455T282 523ZM282 483Q240 483 210 456T164 378T148 257Q148 186 164 135T210 57T282 30Q323 30 353 57T399 135T415 257Q415 327 399 378T353 456T282 483ZM150 733H172Q174 722 183 706T215 677T279 664Q319 664 342 677T375 706T386 733H408Q408 692 392 659T346 608T279 590Q241 590 211 608T166 659T150 733Z" unicode="ŏ"/>
			<glyph d="M389 727Q491 727 569 681T690 550T733 356Q733 246 690 162T569 32T389 -14Q287 -14 209 32T88 162T45 356Q45 466 88 550T209 681T389 727ZM389 687Q323 687 272 646T194 530T166 356Q166 258 194 183T272 67T389 26Q455 26 505 67T584 183T612 356Q612 455 584 530T505 646T389 687ZM358 921H468L333 758H309ZM472 921H582L446 758H422Z" horiz-adv-x="778" unicode="Ő"/>
			<glyph d="M282 523Q399 523 459 455T520 257Q520 126 459 58T282 -10Q165 -10 104 58T43 257Q43 387 104 455T282 523ZM282 483Q240 483 210 456T164 378T148 257Q148 186 164 135T210 57T282 30Q323 30 353 57T399 135T415 257Q415 327 399 378T353 456T282 483ZM255 741H365L230 577H206ZM369 741H479L343 577H319Z" unicode="ő"/>
			<glyph d="M360 727Q414 727 464 713H966V520H944Q915 587 892 619T842 662T769 673H647V385H691Q743 385 769 391T812 417T847 477H868V254H847Q829 295 812 314T769 339T691 346H647V40H784Q829 40 856 51T906 97T959 202H980V0H464Q414 -14 360 -14Q266 -14 195 32T84 162T45 356Q45 466 84 550T195 681T360 727ZM360 687Q303 687 259 646T190 529T166 356Q166 258 190 183T259 67T360 26Q418 26 465 52T541 127V584Q511 633 465 660T360 687Z" horiz-adv-x="1016" unicode="Œ"/>
			<glyph d="M263 523Q319 523 360 501T427 437Q455 478 495 500T585 522Q646 522 688 493T752 412T774 288Q774 272 772 254H483Q483 191 502 145T555 76T637 52Q668 52 698 59T753 81L764 56Q686 -11 596 -11Q540 -11 496 10T425 72Q372 -10 263 -10Q156 -10 99 58T43 257Q43 387 99 455T263 523ZM582 486Q539 486 513 435T483 292L669 304Q669 391 647 438T582 486ZM263 483Q227 483 201 456T161 378T148 257Q148 186 161 135T201 57T263 30Q299 30 325 57T364 135T378 257Q378 328 364 378T325 456T263 483Z" horiz-adv-x="821" unicode="œ"/>
			<glyph d="M35 713H309Q382 713 437 690T522 627T552 532Q552 479 525 438T452 373T346 339V337Q381 328 408 310T464 258T529 163L598 48L661 21V0H499L419 144Q379 215 349 253T292 308T226 329V56L309 21V0H35V21L119 56V657L35 690ZM226 673V366Q331 366 381 410T432 532Q432 574 414 606T363 655T288 673ZM404 917L471 844L249 773L228 788Z" horiz-adv-x="646" unicode="Ŕ"/>
			<glyph d="M205 523V425Q246 477 277 500T340 523Q372 523 390 505T408 458Q408 432 392 416T352 400Q332 400 318 413T286 451Q237 422 205 375V56L298 21V0H35V21L109 56V451L35 474V495ZM246 741H361L215 577H191Z" horiz-adv-x="408" unicode="ŕ"/>
			<glyph d="M35 713H309Q382 713 437 690T522 627T552 532Q552 479 525 438T452 373T346 339V337Q381 328 408 310T464 258T529 163L598 48L661 21V0H499L419 144Q379 215 349 253T292 308T226 329V56L309 21V0H35V21L119 56V657L35 690ZM226 673V366Q331 366 381 410T432 532Q432 574 414 606T363 655T288 673ZM382 -46Q444 -46 444 -121Q444 -159 420 -200T356 -274L331 -247Q350 -222 361 -203T381 -160Q355 -159 340 -143T326 -103Q326 -77 340 -61T382 -46Z" horiz-adv-x="646" unicode="Ŗ"/>
			<glyph d="M205 523V425Q246 477 277 500T340 523Q372 523 390 505T408 458Q408 432 392 416T352 400Q332 400 318 413T286 451Q237 422 205 375V56L298 21V0H35V21L109 56V451L35 474V495ZM167 -46Q229 -46 229 -121Q229 -159 205 -200T141 -274L116 -247Q135 -222 146 -203T166 -160Q140 -159 125 -143T111 -103Q111 -77 125 -61T167 -46Z" horiz-adv-x="408" unicode="ŗ"/>
			<glyph d="M35 713H309Q382 713 437 690T522 627T552 532Q552 479 525 438T452 373T346 339V337Q381 328 408 310T464 258T529 163L598 48L661 21V0H499L419 144Q379 215 349 253T292 308T226 329V56L309 21V0H35V21L119 56V657L35 690ZM226 673V366Q331 366 381 410T432 532Q432 574 414 606T363 655T288 673ZM148 918H178L294 847L411 918H441L303 759H285Z" horiz-adv-x="646" unicode="Ř"/>
			<glyph d="M205 523V425Q246 477 277 500T340 523Q372 523 390 505T408 458Q408 432 392 416T352 400Q332 400 318 413T286 451Q237 422 205 375V56L298 21V0H35V21L109 56V451L35 474V495ZM114 741H144L232 664L321 741H351L242 570H224Z" horiz-adv-x="408" unicode="ř"/>
			<glyph d="M268 727Q298 727 320 722T369 709Q390 702 407 698T445 694H465V529H425Q400 590 375 624T325 672T266 686Q213 686 184 659T155 585Q155 546 176 515T230 463T316 412Q377 378 413 352T474 289T500 200Q500 135 469 86T381 12T251 -14Q218 -14 192 -8T140 6Q123 11 106 15T75 19H54V197H94Q127 104 167 65T262 26Q327 26 365 58T403 149Q403 186 381 216T327 268T242 320Q181 355 144 381T82 445T56 533Q56 591 83 635T158 703T268 727ZM371 917L438 844L216 773L195 788Z" horiz-adv-x="556" unicode="Ś"/>
			<glyph d="M222 523Q243 523 261 520T301 511Q314 507 327 504T353 502H377V371H343Q319 415 300 439T263 474T222 485Q187 485 168 467T149 418Q149 392 163 372T200 337T259 302Q303 278 329 259T375 211T394 144Q394 98 373 63T315 9T227 -10Q203 -10 183 -6T141 3Q125 7 107 10T74 13H50V151H84Q113 100 133 74T175 38T227 28Q249 28 267 38T295 67T305 110Q305 135 290 154T255 188T196 224Q152 249 125 268T79 316T60 383Q60 426 80 457T136 506T222 523ZM234 741H349L203 577H179Z" horiz-adv-x="446" unicode="ś"/>
			<glyph d="M268 727Q298 727 320 722T369 709Q390 702 407 698T445 694H465V529H425Q400 590 375 624T325 672T266 686Q213 686 184 659T155 585Q155 546 176 515T230 463T316 412Q377 378 413 352T474 289T500 200Q500 135 469 86T381 12T251 -14Q218 -14 192 -8T140 6Q123 11 106 15T75 19H54V197H94Q127 104 167 65T262 26Q327 26 365 58T403 149Q403 186 381 216T327 268T242 320Q181 355 144 381T82 445T56 533Q56 591 83 635T158 703T268 727ZM267 918L398 770L381 759L268 826L152 763L119 759L243 907Z" horiz-adv-x="556" unicode="Ŝ"/>
			<glyph d="M222 523Q243 523 261 520T301 511Q314 507 327 504T353 502H377V371H343Q319 415 300 439T263 474T222 485Q187 485 168 467T149 418Q149 392 163 372T200 337T259 302Q303 278 329 259T375 211T394 144Q394 98 373 63T315 9T227 -10Q203 -10 183 -6T141 3Q125 7 107 10T74 13H50V151H84Q113 100 133 74T175 38T227 28Q249 28 267 38T295 67T305 110Q305 135 290 154T255 188T196 224Q152 249 125 268T79 316T60 383Q60 426 80 457T136 506T222 523ZM222 737H234L329 583L298 578L211 649L136 589H112Z" horiz-adv-x="446" unicode="ŝ"/>
			<glyph d="M268 727Q298 727 320 722T369 709Q390 702 407 698T445 694H465V529H425Q400 590 375 624T325 672T266 686Q213 686 184 659T155 585Q155 546 176 515T230 463T316 412Q377 378 413 352T474 289T500 200Q500 142 475 97T405 25T300 -11L290 -54Q322 -67 343 -89T365 -141Q365 -170 349 -190T309 -222T256 -233Q223 -233 196 -221T170 -182Q170 -166 180 -154T206 -143Q223 -143 234 -153T245 -181Q245 -190 241 -198T230 -211Q244 -213 251 -213Q277 -213 294 -200T311 -163Q311 -137 290 -122T237 -97L273 -13Q266 -14 251 -14Q218 -14 192 -8T140 6Q123 11 106 15T75 19H54V197H94Q127 104 167 65T262 26Q327 26 365 58T403 149Q403 186 381 216T327 268T242 320Q181 355 144 381T82 445T56 533Q56 591 83 635T158 703T268 727Z" horiz-adv-x="556" unicode="Ş"/>
			<glyph d="M222 523Q243 523 261 520T301 511Q314 507 327 504T353 502H377V371H343Q319 415 300 439T263 474T222 485Q187 485 168 467T149 418Q149 392 163 372T200 337T259 302Q303 278 329 259T375 211T394 144Q394 98 373 63T316 9T229 -10L219 -54Q251 -67 272 -89T294 -141Q294 -170 278 -190T238 -222T185 -233Q153 -233 126 -221T99 -182Q99 -166 110 -154T135 -143Q152 -143 163 -153T174 -181Q174 -190 170 -198T159 -211Q173 -213 181 -213Q206 -213 223 -200T240 -163Q240 -137 219 -122T166 -97L204 -9Q179 -7 141 3Q125 7 107 10T74 13H50V151H84Q113 100 133 74T175 38T227 28Q249 28 267 38T295 67T305 110Q305 135 290 154T255 188T196 224Q152 249 125 268T79 316T60 383Q60 426 80 457T136 506T222 523Z" horiz-adv-x="446" unicode="ş"/>
			<glyph d="M268 727Q298 727 320 722T369 709Q390 702 407 698T445 694H465V529H425Q400 590 375 624T325 672T266 686Q213 686 184 659T155 585Q155 546 176 515T230 463T316 412Q377 378 413 352T474 289T500 200Q500 135 469 86T381 12T251 -14Q218 -14 192 -8T140 6Q123 11 106 15T75 19H54V197H94Q127 104 167 65T262 26Q327 26 365 58T403 149Q403 186 381 216T327 268T242 320Q181 355 144 381T82 445T56 533Q56 591 83 635T158 703T268 727ZM115 918H145L261 847L378 918H408L270 759H252Z" horiz-adv-x="556" unicode="Š"/>
			<glyph d="M222 523Q243 523 261 520T301 511Q314 507 327 504T353 502H377V371H343Q319 415 300 439T263 474T222 485Q187 485 168 467T149 418Q149 392 163 372T200 337T259 302Q303 278 329 259T375 211T394 144Q394 98 373 63T315 9T227 -10Q203 -10 183 -6T141 3Q125 7 107 10T74 13H50V151H84Q113 100 133 74T175 38T227 28Q249 28 267 38T295 67T305 110Q305 135 290 154T255 188T196 224Q152 249 125 268T79 316T60 383Q60 426 80 457T136 506T222 523ZM101 741H131L219 664L308 741H338L229 570H211Z" horiz-adv-x="446" unicode="š"/>
			<glyph d="M12 713H624V499H602Q574 569 546 607T487 659T418 673H371V56L454 21V0H181V21L265 56V673H218Q178 673 148 659T89 607T33 499H12ZM318 -46Q380 -46 380 -121Q380 -159 356 -200T292 -274L267 -247Q286 -222 297 -203T317 -160Q291 -159 276 -143T262 -103Q262 -77 276 -61T318 -46Z" horiz-adv-x="636" unicode="Ţ"/>
			<glyph d="M205 657V513H337V474H205V149Q205 93 221 68T274 43Q299 43 331 59L345 38Q319 13 288 1T219 -10Q179 -10 155 4T120 51T109 135V473H18V513H109L110 619ZM218 -46Q280 -46 280 -121Q280 -159 256 -200T192 -274L167 -247Q186 -222 197 -203T217 -160Q191 -159 176 -143T162 -103Q162 -77 176 -61T218 -46Z" horiz-adv-x="365" unicode="ţ"/>
			<glyph d="M12 713H624V499H602Q574 569 546 607T487 659T418 673H371V56L454 21V0H181V21L265 56V673H218Q178 673 148 659T89 607T33 499H12ZM172 918H202L318 847L435 918H465L327 759H309Z" horiz-adv-x="636" unicode="Ť"/>
			<glyph d="M205 657V513H337V474H205V149Q205 93 221 68T274 43Q299 43 331 59L345 38Q319 13 288 1T219 -10Q179 -10 155 4T120 51T109 135V473H18V513H109L110 619ZM268 741H360L276 577H252Z" horiz-adv-x="365" unicode="ť"/>
			<glyph d="M12 713H624V499H602Q574 569 546 607T487 659T418 673H371V388H491V329H371V56L454 21V0H181V21L265 56V329H140V388H265V673H218Q178 673 148 659T89 607T33 499H12Z" horiz-adv-x="636" unicode="Ŧ"/>
			<glyph d="M205 657V513H337V474H205V318H337V279H205V149Q205 93 221 68T274 43Q299 43 331 59L345 38Q319 13 288 1T219 -10Q179 -10 155 4T120 51T109 135V279H17V318H109V473H18V513H109L110 619Z" horiz-adv-x="365" unicode="ŧ"/>
			<glyph d="M20 713H294V691L211 657V249Q211 148 255 96T384 44Q471 44 514 94T558 245V657L474 691V713H690V691L610 657V247Q610 118 547 52T359 -14Q235 -14 169 53T104 252V657L20 691ZM520 908L541 902Q535 868 527 845T502 806T455 790Q438 790 421 795T375 813Q352 823 335 828T305 834Q265 834 250 788L228 793Q236 827 244 849T270 886T316 902Q334 902 351 896T392 881Q418 871 434 866T467 861Q489 861 500 872T520 908Z" horiz-adv-x="710" unicode="Ũ"/>
			<glyph d="M192 523V159Q192 108 215 81T283 54Q318 54 352 74T410 131V451L336 474V495L506 523V54L580 34V14L410 -10V88Q369 41 326 15T237 -10Q170 -10 133 31T96 143V451L22 474V495ZM436 718L457 712Q451 678 443 655T418 616T371 600Q354 600 337 605T291 623Q268 633 251 638T221 644Q182 644 166 599L144 604Q152 638 160 660T186 697T232 713Q250 713 267 707T308 692Q334 682 350 677T383 672Q405 672 416 683T436 718Z" horiz-adv-x="608" unicode="ũ"/>
			<glyph d="M20 713H294V691L211 657V249Q211 148 255 96T384 44Q471 44 514 94T558 245V657L474 691V713H690V691L610 657V247Q610 118 547 52T359 -14Q235 -14 169 53T104 252V657L20 691ZM232 872H536V811H232Z" horiz-adv-x="710" unicode="Ū"/>
			<glyph d="M192 523V159Q192 108 215 81T283 54Q318 54 352 74T410 131V451L336 474V495L506 523V54L580 34V14L410 -10V88Q369 41 326 15T237 -10Q170 -10 133 31T96 143V451L22 474V495ZM152 682H449V622H152Z" horiz-adv-x="608" unicode="ū"/>
			<glyph d="M20 713H294V691L211 657V249Q211 148 255 96T384 44Q471 44 514 94T558 245V657L474 691V713H690V691L610 657V247Q610 118 547 52T359 -14Q235 -14 169 53T104 252V657L20 691ZM254 910H276Q278 900 287 887T319 865T383 855Q423 855 446 865T479 887T490 910H512Q512 849 477 815T383 781Q324 781 289 815T254 910Z" horiz-adv-x="710" unicode="Ŭ"/>
			<glyph d="M192 523V159Q192 108 215 81T283 54Q318 54 352 74T410 131V451L336 474V495L506 523V54L580 34V14L410 -10V88Q369 41 326 15T237 -10Q170 -10 133 31T96 143V451L22 474V495ZM169 733H191Q193 722 202 706T234 677T298 664Q338 664 361 677T394 706T405 733H427Q427 692 411 659T365 608T298 590Q260 590 230 608T185 659T169 733Z" horiz-adv-x="608" unicode="ŭ"/>
			<glyph d="M20 713H294V691L211 657V249Q211 148 255 96T384 44Q471 44 514 94T558 245V657L474 691V713H690V691L610 657V247Q610 118 547 52T359 -14Q235 -14 169 53T104 252V657L20 691ZM384 984Q410 984 431 972T465 940T477 893Q477 866 465 845T431 813T384 802Q358 802 337 813T303 846T291 893Q291 919 303 940T337 972T384 984ZM384 943Q358 943 349 928T341 893Q341 872 349 857T384 843Q411 843 419 857T428 893Q428 915 419 929T384 943Z" horiz-adv-x="710" unicode="Ů"/>
			<glyph d="M192 523V159Q192 108 215 81T283 54Q318 54 352 74T410 131V451L336 474V495L506 523V54L580 34V14L410 -10V88Q369 41 326 15T237 -10Q170 -10 133 31T96 143V451L22 474V495ZM300 773Q326 773 347 761T381 729T393 683Q393 656 381 635T347 603T300 592Q274 592 253 603T219 635T207 683Q207 709 219 729T253 761T300 773ZM300 732Q274 732 265 718T257 683Q257 662 265 647T300 633Q327 633 335 647T344 683Q344 705 335 718T300 732Z" horiz-adv-x="608" unicode="ů"/>
			<glyph d="M20 713H294V691L211 657V249Q211 148 255 96T384 44Q471 44 514 94T558 245V657L474 691V713H690V691L610 657V247Q610 118 547 52T359 -14Q235 -14 169 53T104 252V657L20 691ZM353 921H463L328 758H304ZM467 921H577L441 758H417Z" horiz-adv-x="710" unicode="Ű"/>
			<glyph d="M192 523V159Q192 108 215 81T283 54Q318 54 352 74T410 131V451L336 474V495L506 523V54L580 34V14L410 -10V88Q369 41 326 15T237 -10Q170 -10 133 31T96 143V451L22 474V495ZM274 741H384L249 577H225ZM388 741H498L362 577H338Z" horiz-adv-x="608" unicode="ű"/>
			<glyph d="M20 713H294V691L211 657V249Q211 148 255 96T384 44Q471 44 514 94T558 245V657L474 691V713H690V691L610 657V247Q610 99 528 35Q483 -9 457 -54T431 -140Q431 -164 444 -177T479 -190Q502 -190 529 -175L541 -194Q522 -209 495 -219T440 -230Q395 -230 365 -207T336 -137Q336 -103 363 -71T438 -6Q400 -14 359 -14Q235 -14 169 53T104 252V657L20 691Z" horiz-adv-x="710" unicode="Ų"/>
			<glyph d="M192 523V159Q192 108 215 81T283 54Q318 54 352 74T410 131V451L336 474V495L506 523V54L580 34V14Q534 -24 508 -64T482 -140Q482 -164 495 -177T530 -190Q553 -190 580 -175L592 -194Q573 -209 547 -219T492 -230Q446 -230 417 -207T388 -137Q388 -98 424 -59T519 5L410 -10V88Q369 41 326 15T237 -10Q170 -10 133 31T96 143V451L22 474V495Z" horiz-adv-x="608" unicode="ų"/>
			<glyph d="M-10 713H268V691L183 657H182L349 134L508 675H561L745 136L894 657L805 691V713H1040V691L954 657L741 -14H688L512 494L341 -14H289L72 657L-10 691ZM542 918L673 770L656 759L543 826L427 763L394 759L518 907Z" horiz-adv-x="1029" unicode="Ŵ"/>
			<glyph d="M-10 513H237V492L160 458L278 120L398 503H436L572 118L677 458L593 492V513H800V492L728 458L564 -14H522L395 344L268 -14H226L61 458L-10 492ZM420 737H432L527 583L496 578L409 649L334 589H310Z" horiz-adv-x="790" unicode="ŵ"/>
			<glyph d="M-10 713H278V691L192 657L344 395L484 657L398 691V713H633V691L552 657L366 346V56L449 21V0H176V21L260 56V331L71 657L-10 691ZM343 918L474 770L457 759L344 826L228 763L195 759L319 907Z" horiz-adv-x="623" unicode="Ŷ"/>
			<glyph d="M-10 513H240V492L163 458L303 118L427 458L342 492V513H549V492L477 458L257 -98Q239 -146 223 -173T182 -215T118 -230Q88 -230 69 -212T51 -167Q51 -141 68 -123T111 -105Q134 -105 147 -119T174 -162L252 -4L61 458L-10 492ZM303 737H315L410 583L379 578L292 649L217 589H193Z" horiz-adv-x="539" unicode="ŷ"/>
			<glyph d="M-10 713H278V691L192 657L344 395L484 657L398 691V713H633V691L552 657L366 346V56L449 21V0H176V21L260 56V331L71 657L-10 691ZM258 902Q274 902 287 894T309 872T318 843Q318 827 310 812T288 789T258 781Q241 781 226 789T204 812T196 843Q196 868 214 885T258 902ZM417 902Q433 902 447 894T469 872T477 843Q477 827 469 812T447 789T417 781Q400 781 386 789T364 812T356 843Q356 868 373 885T417 902Z" horiz-adv-x="623" unicode="Ÿ"/>
			<glyph d="M53 713H562V685L163 41L344 44Q392 45 416 56T463 101T528 219H559V0H30V28L430 672L256 668Q209 667 185 656T140 612T83 500H53ZM418 917L485 844L263 773L242 788Z" horiz-adv-x="621" unicode="Ź"/>
			<glyph d="M46 513H441V486L149 35L271 37Q311 38 338 51T378 89L409 157H438V0H30V27L324 478L214 476Q168 475 141 463T105 426L77 360H46ZM258 741H373L227 577H203Z" horiz-adv-x="479" unicode="ź"/>
			<glyph d="M53 713H562V685L163 41L344 44Q392 45 416 56T463 101T528 219H559V0H30V28L430 672L256 668Q209 667 185 656T140 612T83 500H53ZM308 904Q337 904 353 888T369 843Q369 814 353 798T308 782Q279 782 263 798T247 843Q247 872 263 888T308 904Z" horiz-adv-x="621" unicode="Ż"/>
			<glyph d="M46 513H441V486L149 35L271 37Q311 38 338 51T378 89L409 157H438V0H30V27L324 478L214 476Q168 475 141 463T105 426L77 360H46ZM244 741Q273 741 289 725T305 680Q305 651 289 635T244 619Q215 619 199 635T183 680Q183 709 199 725T244 741Z" horiz-adv-x="479" unicode="ż"/>
			<glyph d="M53 713H562V685L163 41L344 44Q392 45 416 56T463 101T528 219H559V0H30V28L430 672L256 668Q209 667 185 656T140 612T83 500H53ZM162 918H192L308 847L425 918H455L317 759H299Z" horiz-adv-x="621" unicode="Ž"/>
			<glyph d="M46 513H441V486L149 35L271 37Q311 38 338 51T378 89L409 157H438V0H30V27L324 478L214 476Q168 475 141 463T105 426L77 360H46ZM125 741H155L243 664L332 741H362L253 570H235Z" horiz-adv-x="479" unicode="ž"/>
			<glyph d="M357 687Q384 687 411 676T456 646T474 598Q474 573 458 556T417 540Q393 540 376 555T360 594Q360 614 371 628T400 647Q383 658 360 658Q328 658 313 638T296 592T293 529V365H423V326H293V182Q293 92 251 39T122 -13Q94 -13 67 -3T23 27T6 76Q6 101 21 117T62 134Q87 134 103 118T120 79Q120 61 108 46T79 26Q95 15 119 15Q151 15 166 35T184 81T187 144V326H75V345L187 367V492Q187 582 228 634T357 687Z" horiz-adv-x="479" unicode="ƒ"/>
			<glyph d="M268 727Q298 727 320 722T369 709Q390 702 407 698T445 694H465V529H425Q400 590 375 624T325 672T266 686Q213 686 184 659T155 585Q155 546 176 515T230 463T316 412Q377 378 413 352T474 289T500 200Q500 135 469 86T381 12T251 -14Q218 -14 192 -8T140 6Q123 11 106 15T75 19H54V197H94Q127 104 167 65T262 26Q327 26 365 58T403 149Q403 186 381 216T327 268T242 320Q181 355 144 381T82 445T56 533Q56 591 83 635T158 703T268 727ZM268 -46Q330 -46 330 -121Q330 -159 306 -200T242 -274L217 -247Q236 -222 247 -203T267 -160Q241 -159 226 -143T212 -103Q212 -77 226 -61T268 -46Z" horiz-adv-x="556" unicode="Ș"/>
			<glyph d="M222 523Q243 523 261 520T301 511Q314 507 327 504T353 502H377V371H343Q319 415 300 439T263 474T222 485Q187 485 168 467T149 418Q149 392 163 372T200 337T259 302Q303 278 329 259T375 211T394 144Q394 98 373 63T315 9T227 -10Q203 -10 183 -6T141 3Q125 7 107 10T74 13H50V151H84Q113 100 133 74T175 38T227 28Q249 28 267 38T295 67T305 110Q305 135 290 154T255 188T196 224Q152 249 125 268T79 316T60 383Q60 426 80 457T136 506T222 523ZM221 -46Q283 -46 283 -121Q283 -159 259 -200T195 -274L170 -247Q189 -222 200 -203T220 -160Q194 -159 179 -143T165 -103Q165 -77 179 -61T221 -46Z" horiz-adv-x="446" unicode="ș"/>
			<glyph d="M12 713H624V499H602Q574 569 546 607T487 659T418 673H371V56L454 21V0H181V21L265 56V673H218Q178 673 148 659T89 607T33 499H12ZM318 -46Q380 -46 380 -121Q380 -159 356 -200T292 -274L267 -247Q286 -222 297 -203T317 -160Q291 -159 276 -143T262 -103Q262 -77 276 -61T318 -46Z" horiz-adv-x="636" unicode="Ț"/>
			<glyph d="M205 657V513H337V474H205V149Q205 93 221 68T274 43Q299 43 331 59L345 38Q319 13 288 1T219 -10Q179 -10 155 4T120 51T109 135V473H18V513H109L110 619ZM218 -46Q280 -46 280 -121Q280 -159 256 -200T192 -274L167 -247Q186 -222 197 -203T217 -160Q191 -159 176 -143T162 -103Q162 -77 176 -61T218 -46Z" horiz-adv-x="365" unicode="ț"/>
			<glyph d="M207 523V-40Q207 -130 164 -180T38 -230Q-23 -230 -53 -208T-84 -150Q-84 -126 -70 -111T-30 -97Q-6 -97 8 -111T22 -149Q22 -169 13 -189Q22 -193 36 -193Q73 -193 92 -166T111 -78V451L36 474V495Z" horiz-adv-x="299" unicode="ȷ"/>
			<glyph d="M140 737H152L248 583L216 578L129 649L54 589H30Z" horiz-adv-x="277" unicode="ˆ"/>
			<glyph d="M20 741H50L138 664L227 741H257L148 570H130Z" horiz-adv-x="277" unicode="ˇ"/>
			<glyph d="M21 664H318V603H21Z" horiz-adv-x="338" unicode="ˉ"/>
			<glyph d="M20 733H42Q44 722 53 706T85 677T149 664Q189 664 212 677T245 706T256 733H278Q278 692 262 659T216 608T149 590Q111 590 81 608T36 659T20 733Z" horiz-adv-x="298" unicode="˘"/>
			<glyph d="M81 741Q110 741 126 725T142 680Q142 651 126 635T81 619Q52 619 36 635T20 680Q20 709 36 725T81 741Z" horiz-adv-x="162" unicode="˙"/>
			<glyph d="M113 782Q139 782 160 770T194 738T206 692Q206 665 194 644T160 612T113 601Q87 601 66 612T32 644T20 692Q20 718 32 738T66 770T113 782ZM113 741Q87 741 78 727T70 692Q70 671 78 656T113 642Q140 642 148 656T157 692Q157 714 148 727T113 741Z" horiz-adv-x="226" unicode="˚"/>
			<glyph d="M164 0H208Q162 -34 136 -71T110 -140Q110 -164 123 -177T158 -190Q181 -190 208 -175L220 -194Q201 -209 175 -219T120 -230Q74 -230 45 -207T16 -137Q16 -111 34 -85T86 -37T164 0Z" horiz-adv-x="200" unicode="˛"/>
			<glyph d="M312 718L333 712Q327 678 319 655T294 616T247 600Q230 600 213 605T167 623Q144 633 127 638T97 644Q58 644 42 599L20 604Q28 638 36 660T62 697T108 713Q126 713 143 707T184 692Q210 682 226 677T259 672Q281 672 292 683T312 718Z" horiz-adv-x="353" unicode="˜"/>
			<glyph d="M80 741H190L55 577H31ZM194 741H304L168 577H144Z" horiz-adv-x="335" unicode="˝"/>
			<glyph d="M-64 741L-3 589L-21 577L-160 729Z" horiz-adv-x="0" unicode="̀"/>
			<glyph d="M-115 741H0L-146 577H-170Z" horiz-adv-x="0" unicode="́"/>
			<glyph d="M-115 737H-103L-8 583L-39 578L-126 649L-201 589H-225Z" horiz-adv-x="0" unicode="̂"/>
			<glyph d="M-21 718L0 712Q-6 678 -14 655T-39 616T-86 600Q-103 600 -119 605T-166 623Q-189 633 -205 638T-236 644Q-275 644 -291 599L-313 604Q-305 638 -296 660T-271 697T-225 713Q-207 713 -190 707T-149 692Q-123 682 -107 677T-74 672Q-52 672 -40 683T-21 718Z" horiz-adv-x="0" unicode="̃"/>
			<glyph d="M-297 682H0V622H-297Z" horiz-adv-x="0" unicode="̄"/>
			<glyph d="M-258 733H-236Q-234 722 -225 706T-192 677T-129 664Q-89 664 -65 677T-33 706T-22 733H0Q0 692 -16 659T-61 608T-129 590Q-167 590 -196 608T-242 659T-258 733Z" horiz-adv-x="0" unicode="̆"/>
			<glyph d="M-61 741Q-32 741 -16 725T0 680Q0 651 -16 635T-61 619Q-90 619 -106 635T-122 680Q-122 709 -106 725T-61 741Z" horiz-adv-x="0" unicode="̇"/>
			<glyph d="M-241 717Q-214 717 -199 702T-185 661Q-185 635 -199 620T-241 606Q-267 606 -281 620T-296 661Q-296 688 -281 702T-241 717ZM-56 717Q-29 717 -14 702T0 661Q0 635 -14 620T-56 606Q-82 606 -96 620T-111 661Q-111 688 -96 702T-56 717Z" horiz-adv-x="0" unicode="̈"/>
			<glyph d="M-93 782Q-67 782 -45 770T-12 738T0 692Q0 665 -12 644T-45 612T-93 601Q-119 601 -140 612T-173 644T-186 692Q-186 718 -173 738T-140 770T-93 782ZM-93 741Q-119 741 -127 727T-136 692Q-136 671 -127 656T-93 642Q-66 642 -57 656T-49 692Q-49 714 -57 727T-93 741Z" horiz-adv-x="0" unicode="̊"/>
			<glyph d="M-235 741H-125L-260 577H-284ZM-121 741H-11L-147 577H-171Z" horiz-adv-x="0" unicode="̋"/>
			<glyph d="M-237 741H-207L-119 664L-30 741H0L-109 570H-127Z" horiz-adv-x="0" unicode="̌"/>
			<glyph d="M-58 -46Q4 -46 4 -121Q4 -159 -20 -200T-84 -274L-109 -247Q-90 -222 -79 -203T-59 -160Q-85 -159 -99 -143T-114 -103Q-114 -77 -99 -61T-58 -46Z" horiz-adv-x="0" unicode="̦"/>
			<glyph d="M-55 0H-11Q-57 -34 -83 -71T-109 -140Q-109 -164 -96 -177T-61 -190Q-38 -190 -11 -175L1 -194Q-18 -209 -44 -219T-99 -230Q-145 -230 -174 -207T-203 -137Q-203 -111 -184 -85T-132 -37T-55 0Z" horiz-adv-x="0" unicode="̨"/>
			<glyph d="M303 727H348L625 21V0H14V21ZM293 584L85 39H507Z" horiz-adv-x="639" unicode="Δ"/>
			<glyph d="M412 727Q514 727 592 681T712 550T755 356Q755 261 704 179T563 40H604Q643 40 673 51T732 93T788 180H810V0H488V41Q556 101 595 184T635 356Q635 454 607 529T528 646T412 687Q346 687 295 646T216 529T188 356Q188 270 226 188T330 44V0H29V180H50Q79 123 107 93T165 51T236 40H258Q168 98 118 180T68 356Q68 466 111 550T232 681T412 727Z" horiz-adv-x="839" unicode="Ω"/>
			<glyph d="M96 513H192V159Q192 108 215 81T283 54Q318 54 352 74T410 131V513H506V100Q506 69 514 56T539 43Q556 43 584 57L596 39Q569 13 543 1T489 -10Q446 -10 428 13T410 88Q326 -10 249 -10Q227 -10 211 -4T184 15L192 -230H96Z" horiz-adv-x="608" unicode="μ"/>
			<glyph d="M-10 713H268V691L183 657H182L349 134L508 675H561L745 136L894 657L805 691V713H1040V691L954 657L741 -14H688L512 494L341 -14H289L72 657L-10 691ZM445 917L621 788L600 773L378 844Z" horiz-adv-x="1029" unicode="Ẁ"/>
			<glyph d="M-10 513H237V492L160 458L278 120L398 503H436L572 118L677 458L593 492V513H800V492L728 458L564 -14H522L395 344L268 -14H226L61 458L-10 492ZM389 741L450 589L432 577L293 729Z" horiz-adv-x="790" unicode="ẁ"/>
			<glyph d="M-10 713H268V691L183 657H182L349 134L508 675H561L745 136L894 657L805 691V713H1040V691L954 657L741 -14H688L512 494L341 -14H289L72 657L-10 691ZM646 917L713 844L491 773L470 788Z" horiz-adv-x="1029" unicode="Ẃ"/>
			<glyph d="M-10 513H237V492L160 458L278 120L398 503H436L572 118L677 458L593 492V513H800V492L728 458L564 -14H522L395 344L268 -14H226L61 458L-10 492ZM432 741H547L401 577H377Z" horiz-adv-x="790" unicode="ẃ"/>
			<glyph d="M-10 713H268V691L183 657H182L349 134L508 675H561L745 136L894 657L805 691V713H1040V691L954 657L741 -14H688L512 494L341 -14H289L72 657L-10 691ZM457 902Q473 902 486 894T508 872T517 843Q517 827 509 812T487 789T457 781Q440 781 425 789T403 812T395 843Q395 868 413 885T457 902ZM616 902Q632 902 646 894T668 872T676 843Q676 827 668 812T646 789T616 781Q599 781 585 789T563 812T555 843Q555 868 572 885T616 902Z" horiz-adv-x="1029" unicode="Ẅ"/>
			<glyph d="M-10 513H237V492L160 458L278 120L398 503H436L572 118L677 458L593 492V513H800V492L728 458L564 -14H522L395 344L268 -14H226L61 458L-10 492ZM325 717Q352 717 366 702T381 661Q381 635 366 620T325 606Q299 606 284 620T270 661Q270 688 284 702T325 717ZM510 717Q537 717 551 702T566 661Q566 635 551 620T510 606Q484 606 469 620T455 661Q455 688 469 702T510 717Z" horiz-adv-x="790" unicode="ẅ"/>
			<glyph d="M390 727Q480 727 535 680T614 537L602 517Q556 509 526 493T482 457T469 418Q469 392 484 372T523 337T584 302Q630 278 658 259T705 211T725 144Q725 98 704 63T645 9T557 -10Q533 -10 513 -6T471 3Q455 7 437 10T404 13H381V151H414Q443 100 464 74T506 38T557 28Q591 28 613 51T635 110Q635 135 619 154T579 188T513 224Q464 249 433 268T382 316T361 383Q361 426 385 456T444 507T530 545Q525 588 506 620T458 669T391 686Q341 686 301 660T238 579T215 437V56L298 22V0H25V22L109 56V413Q109 521 146 591T246 694T390 727Z" horiz-adv-x="760" unicode="ẞ"/>
			<glyph d="M-10 713H278V691L192 657L344 395L484 657L398 691V713H633V691L552 657L366 346V56L449 21V0H176V21L260 56V331L71 657L-10 691ZM247 917L423 788L402 773L180 844Z" horiz-adv-x="623" unicode="Ỳ"/>
			<glyph d="M-10 513H240V492L163 458L303 118L427 458L342 492V513H549V492L477 458L257 -98Q239 -146 223 -173T182 -215T118 -230Q88 -230 69 -212T51 -167Q51 -141 68 -123T111 -105Q134 -105 147 -119T174 -162L252 -4L61 458L-10 492ZM272 741L333 589L315 577L176 729Z" horiz-adv-x="539" unicode="ỳ"/>
			<glyph d="M4 328H355V269H4Z" horiz-adv-x="359" unicode="–"/>
			<glyph d="M4 328H762V269H4Z" horiz-adv-x="766" unicode="—"/>
			<glyph d="M164 746L192 719Q152 664 125 592Q159 592 177 574T196 523Q196 491 178 472T129 454Q91 454 70 477T49 547Q49 598 79 650T164 746Z" horiz-adv-x="245" unicode="‘"/>
			<glyph d="M116 745Q154 745 175 721T196 652Q196 601 165 548T81 453L53 480Q94 536 120 607Q85 608 67 625T49 676Q49 708 67 726T116 745Z" horiz-adv-x="245" unicode="’"/>
			<glyph d="M118 131Q159 131 180 107T201 32Q201 -20 169 -75T85 -174L51 -138Q76 -105 91 -79T117 -20Q83 -19 64 1T45 56Q45 91 64 111T118 131Z" horiz-adv-x="246" unicode="‚"/>
			<glyph d="M369 746L397 719Q357 664 330 592Q364 592 382 574T401 523Q401 491 383 472T334 454Q296 454 275 477T254 547Q254 598 284 650T369 746ZM164 746L192 719Q152 664 125 592Q159 592 177 574T196 523Q196 491 178 472T129 454Q91 454 70 477T49 547Q49 598 79 650T164 746Z" horiz-adv-x="450" unicode="“"/>
			<glyph d="M116 745Q154 745 175 721T196 652Q196 601 165 548T81 453L53 480Q94 536 120 607Q85 608 67 625T49 676Q49 708 67 726T116 745ZM323 745Q360 745 381 721T402 652Q402 601 371 548T287 453L259 480Q299 532 326 607Q256 610 256 676Q256 708 274 726T323 745Z" horiz-adv-x="452" unicode="”"/>
			<glyph d="M325 131Q366 131 387 107T408 32Q408 -20 376 -75T292 -174L258 -138Q283 -105 298 -79T324 -20Q290 -19 271 1T252 56Q252 91 271 111T325 131ZM118 131Q159 131 180 107T201 32Q201 -20 169 -75T85 -174L51 -138Q76 -105 91 -79T117 -20Q83 -19 64 1T45 56Q45 91 64 111T118 131Z" horiz-adv-x="452" unicode="„"/>
			<glyph d="M176 727Q198 727 211 711T225 673Q225 658 219 634T208 587L201 558L191 512Q195 514 216 523T255 538T287 544Q309 544 324 531T339 497Q339 478 325 464T292 450Q273 450 259 463T245 497H196L173 486Q136 468 113 459T68 450Q46 450 30 463T15 497Q15 517 28 530T61 544Q80 544 93 530T108 497H165L152 558Q151 566 142 598Q137 619 132 641T127 675Q127 697 141 712T176 727ZM170 464H183L231 383L183 -60H170L122 383Z" horiz-adv-x="354" unicode="†"/>
			<glyph d="M176 728Q198 728 211 712T225 674Q225 659 219 635T208 588L201 559L191 513Q195 515 216 524T255 539T287 545Q309 545 324 532T339 498Q339 479 325 465T292 451Q273 451 259 464T245 498H196L173 487Q136 469 113 460T68 451Q46 451 30 464T15 498Q15 518 28 531T61 545Q80 545 93 531T108 498H165L152 559L145 587Q139 611 133 636T127 676Q127 698 141 713T176 728ZM169 465H183L221 337L183 208H170L133 337ZM68 221Q90 221 113 212T173 185L196 174H245Q246 194 259 207T292 221Q312 221 325 207T339 174Q339 153 324 140T287 127Q268 127 246 135T191 159L201 113L208 84Q214 61 219 37T225 -2Q225 -24 211 -40T176 -56Q155 -56 141 -41T127 -4Q127 10 133 35T145 85L152 113L166 174H108Q107 154 93 140T61 127Q41 127 28 140T15 174Q15 195 30 208T68 221Z" horiz-adv-x="354" unicode="‡"/>
			<glyph d="M191 533Q261 533 300 494T340 386Q340 317 300 278T191 240Q122 240 83 278T44 386Q44 455 83 494T191 533Z" horiz-adv-x="383" unicode="•"/>
			<glyph d="M119 131Q155 131 175 111T195 56Q195 21 174 1T119 -19Q84 -19 64 1T44 56Q44 92 64 111T119 131ZM334 131Q370 131 390 111T410 56Q410 21 389 1T334 -19Q299 -19 279 1T259 56Q259 92 279 111T334 131ZM550 131Q586 131 606 111T626 56Q626 21 605 1T550 -19Q515 -19 495 1T475 56Q475 92 495 111T550 131Z" horiz-adv-x="670" unicode="…"/>
			<glyph d="M185 736Q239 736 273 704T324 624T340 524Q340 474 323 426T271 347T185 316Q133 316 98 347T46 426T29 524Q29 577 44 625T95 704T185 736ZM185 711Q140 711 126 651T112 524Q112 458 126 399T185 341Q229 341 242 399T255 524Q255 591 242 651T185 711ZM617 682L658 656L220 -15L179 12ZM670 405Q724 405 758 373T808 293T824 193Q824 143 807 95T756 16T670 -15Q618 -15 582 16T530 94T514 193Q514 245 529 293T580 373T670 405ZM1050 405Q1104 405 1138 373T1188 293T1204 193Q1204 142 1187 94T1136 16T1050 -15Q998 -15 963 16T911 94T895 193Q895 245 910 293T961 373T1050 405ZM670 380Q625 380 611 320T598 193Q598 126 611 68T670 11Q714 11 727 68T740 193Q740 260 727 320T670 380ZM1050 380Q1005 380 991 320T978 193Q978 126 991 68T1050 11Q1094 11 1107 68T1121 193Q1121 261 1107 320T1050 380Z" horiz-adv-x="1219" unicode="‰"/>
			<glyph d="M206 512H233L154 328L233 140H206L40 327Z" horiz-adv-x="253" unicode="‹"/>
			<glyph d="M20 512H47L214 327L47 140H20L100 328Z" horiz-adv-x="254" unicode="›"/>
			<glyph d="M235 728L276 708L-123 -15L-165 7Z" horiz-adv-x="111" unicode="⁄"/>
			<glyph d="M207 777Q257 777 293 751T350 679T370 569Q370 507 350 461T293 390T207 365Q157 365 120 390T63 461T43 569Q43 633 63 679T120 751T207 777ZM207 748Q169 748 151 704T133 569Q133 479 151 436T207 393Q243 393 261 436T279 569Q279 661 261 704T207 748Z" horiz-adv-x="412" unicode="⁰"/>
			<glyph d="M258 777H281V523H329V472H281V417L329 398V372H151V398L200 417V472H29V491ZM200 666L92 523H200Z" horiz-adv-x="374" unicode="⁴"/>
			<glyph d="M66 770H281V694H93L83 607Q129 618 161 618Q227 618 263 585T300 494Q300 454 280 424T227 380T154 365Q120 365 93 375T53 403T39 445Q39 462 51 473T80 485Q98 485 110 474T123 446Q123 422 97 404Q115 395 136 395Q170 395 189 417T209 478Q209 516 188 538T130 561Q102 561 71 549L59 557Z" horiz-adv-x="351" unicode="⁵"/>
			<glyph d="M214 777Q244 777 269 767T308 740T323 701Q323 681 311 669T279 657Q261 657 249 668T238 698Q238 719 257 738Q242 746 220 746Q179 746 156 703T133 580Q155 598 177 607T227 617Q261 617 285 601T322 558T335 497Q335 456 316 426T265 380T191 365Q142 365 109 389T59 457T43 558Q43 622 64 672T125 749T214 777ZM193 576Q180 576 168 570T146 559T133 551Q133 393 193 393Q217 393 230 418T244 489Q244 532 231 554T193 576Z" horiz-adv-x="386" unicode="⁶"/>
			<glyph d="M37 770H285V747L161 372H64L240 691H88L64 647H37Z" horiz-adv-x="317" unicode="⁷"/>
			<glyph d="M187 777Q225 777 253 766T297 734T313 688Q313 656 291 632T236 596Q264 580 283 565T314 530T327 484Q327 448 309 421T260 379T186 365Q144 365 112 377T62 411T45 462Q45 527 128 560Q94 580 76 606T58 668Q58 700 74 725T119 763T187 777ZM186 748Q164 748 150 733T136 694Q136 667 156 648T213 609Q228 623 235 642T243 683Q243 711 228 729T186 748ZM150 547Q134 533 126 512T118 471Q118 434 136 413T188 393Q216 393 232 408T249 450Q249 473 233 491T201 518T150 547Z" horiz-adv-x="372" unicode="⁸"/>
			<glyph d="M195 777Q243 777 276 752T327 684T344 583Q344 518 322 469T262 392T171 365Q141 365 116 374T76 401T62 440Q62 460 74 472T106 485Q124 485 136 473T148 443Q148 424 129 403Q147 395 166 395Q207 395 229 438T252 562Q230 543 207 533T158 524Q124 524 100 540T63 583T51 644Q51 685 69 715T119 761T195 777ZM193 748Q169 748 155 723T142 653Q142 566 193 566Q219 566 252 591Q252 748 193 748Z" horiz-adv-x="386" unicode="⁹"/>
			<glyph d="M113 672H159V575H253V532H159V432H113V532H20V575H113Z" horiz-adv-x="273" unicode="⁺"/>
			<glyph d="M20 574H237V531H20Z" horiz-adv-x="257" unicode="⁻"/>
			<glyph d="M12 619H232V576H12ZM12 529H232V485H12Z" horiz-adv-x="244" unicode="⁼"/>
			<glyph d="M180 804L190 794Q141 750 119 687T97 552Q97 480 119 417T190 310L180 300Q20 396 20 552Q20 708 180 804Z" horiz-adv-x="190" unicode="⁽"/>
			<glyph d="M10 804Q170 708 170 552Q170 396 10 300L0 310Q49 354 71 417T94 552Q94 623 71 686T0 794Z" horiz-adv-x="190" unicode="⁾"/>
			<glyph d="M207 255Q257 255 293 229T350 157T370 47Q370 -15 350 -61T293 -132T207 -157Q157 -157 120 -132T63 -61T43 47Q43 111 63 157T120 229T207 255ZM207 226Q169 226 151 182T133 47Q133 -43 151 -86T207 -129Q243 -129 261 -85T279 47Q279 139 261 182T207 226Z" horiz-adv-x="412" unicode="₀"/>
			<glyph d="M178 253V-105L227 -124V-150H49V-124L98 -105V186L49 208V236Z" horiz-adv-x="269" unicode="₁"/>
			<glyph d="M162 255Q203 255 232 242T278 207T294 153Q294 104 251 50T126 -72H257L279 -27H306V-150H31V-131Q204 42 204 154Q204 189 188 207T144 225Q125 225 103 215Q124 194 124 173Q124 155 112 144T82 133Q64 133 52 144T40 174Q40 197 55 215T98 244T162 255Z" horiz-adv-x="357" unicode="₂"/>
			<glyph d="M183 255Q219 255 246 242T289 208T305 157Q305 117 279 89T212 53V51Q258 46 289 22T320 -45Q320 -78 301 -103T249 -143T173 -157Q136 -157 108 -146T64 -118T49 -77Q49 -59 61 -47T91 -36Q110 -36 121 -47T133 -77Q133 -99 111 -119Q129 -128 151 -128Q187 -128 207 -107T228 -51Q228 -6 199 16T112 41V58Q216 65 216 152Q216 183 199 203T152 224Q139 224 126 219Q134 211 139 199T145 174Q145 157 133 146T105 136Q86 136 74 147T62 177Q62 199 77 217T120 245T183 255Z" horiz-adv-x="364" unicode="₃"/>
			<glyph d="M258 255H281V1H329V-50H281V-105L329 -124V-150H151V-124L200 -105V-50H29V-31ZM200 144L92 1H200Z" horiz-adv-x="374" unicode="₄"/>
			<glyph d="M66 248H281V172H93L83 85Q129 96 161 96Q227 96 263 63T300 -28Q300 -68 280 -97T227 -142T154 -157Q120 -157 93 -147T53 -118T39 -77Q39 -60 51 -48T80 -37Q98 -37 110 -48T123 -76Q123 -100 97 -118Q115 -127 136 -127Q170 -127 189 -105T209 -44Q209 -6 188 16T130 39Q102 39 71 27L59 35Z" horiz-adv-x="351" unicode="₅"/>
			<glyph d="M214 255Q244 255 269 245T308 218T323 179Q323 159 311 147T279 135Q261 135 249 146T238 176Q238 197 257 216Q242 224 220 224Q179 224 156 181T133 58Q155 76 177 85T227 95Q261 95 285 79T322 36T335 -25Q335 -66 316 -96T265 -141T191 -157Q142 -157 109 -132T59 -64T43 36Q43 100 64 150T125 227T214 255ZM193 54Q180 54 168 48T146 37T133 29Q133 -129 193 -129Q217 -129 230 -104T244 -33Q244 10 231 32T193 54Z" horiz-adv-x="386" unicode="₆"/>
			<glyph d="M37 248H285V225L161 -150H64L240 169H88L64 125H37Z" horiz-adv-x="317" unicode="₇"/>
			<glyph d="M187 255Q225 255 253 244T297 212T313 166Q313 134 291 110T236 74Q264 58 283 43T314 8T327 -38Q327 -74 309 -101T260 -142T186 -157Q144 -157 112 -145T62 -111T45 -60Q45 5 128 38Q94 58 76 84T58 146Q58 178 74 203T119 241T187 255ZM186 226Q164 226 150 211T136 172Q136 145 156 126T213 87Q228 101 235 120T243 161Q243 189 228 207T186 226ZM150 25Q134 11 126 -9T118 -51Q118 -88 136 -108T188 -129Q216 -129 232 -113T249 -72Q249 -49 233 -31T201 -3T150 25Z" horiz-adv-x="372" unicode="₈"/>
			<glyph d="M195 255Q243 255 276 230T327 162T344 61Q344 -4 322 -53T262 -129T171 -157Q141 -157 116 -147T76 -121T62 -82Q62 -62 74 -49T106 -37Q124 -37 136 -48T148 -79Q148 -98 129 -119Q147 -127 166 -127Q207 -127 229 -84T252 40Q230 21 207 11T158 2Q124 2 100 18T63 61T51 122Q51 163 69 193T119 239T195 255ZM193 226Q169 226 155 201T142 131Q142 44 193 44Q219 44 252 69Q252 226 193 226Z" horiz-adv-x="386" unicode="₉"/>
			<glyph d="M113 159H159V62H253V19H159V-81H113V19H20V62H113Z" horiz-adv-x="273" unicode="₊"/>
			<glyph d="M20 61H237V18H20Z" horiz-adv-x="257" unicode="₋"/>
			<glyph d="M12 106H232V63H12ZM12 16H232V-28H12Z" horiz-adv-x="244" unicode="₌"/>
			<glyph d="M166 291L176 281Q127 237 105 174T83 39Q83 -33 105 -96T176 -203L166 -213Q6 -117 6 39Q6 195 166 291Z" horiz-adv-x="185" unicode="₍"/>
			<glyph d="M19 291Q179 195 179 39Q179 -117 19 -213L9 -203Q58 -159 80 -96T103 39Q103 110 80 173T9 281Z" horiz-adv-x="185" unicode="₎"/>
			<glyph d="M429 687Q472 687 517 674T593 634T624 565Q624 537 607 519T563 502Q536 502 518 519T501 565Q501 582 507 600T523 633Q504 643 479 648T433 653Q340 653 289 589T226 407H514V366H224Q222 320 226 283H514V243H231Q251 145 312 92T466 39Q547 39 617 62L625 44Q580 17 526 2T424 -13Q340 -13 275 17T168 104T112 243H29V283H107Q105 313 105 330Q105 354 106 366H29V407H111Q124 493 167 556T277 653T429 687Z" horiz-adv-x="669" unicode="€"/>
			<glyph d="M21 675H481L448 626H302Q323 610 337 589T358 543H481L448 494H362Q358 425 304 380T166 322V320Q208 312 233 295T279 250T340 155L406 47L465 21V0H306L230 137Q189 213 158 250T98 299T22 314L21 348H51Q146 348 193 386T243 494H21V543H240Q231 583 199 604T109 626H21Z" horiz-adv-x="508" unicode="₹"/>
			<glyph d="M36 675H309V653L226 619V474L379 530V484L226 428V350L379 406V362L226 306V56Q321 56 375 82T449 161Q424 180 409 198T394 238Q394 264 411 280T454 297Q481 297 498 278T516 232Q516 116 438 58T211 0H36V21L120 56V267L36 237V280L120 311V389L36 358V404L120 435V619L36 653Z" horiz-adv-x="531" unicode="₺"/>
			<glyph d="M176 788Q246 788 278 741T311 612Q311 535 277 457T185 310L184 115Q184 85 197 66T232 47Q248 47 259 53T285 71L304 49Q253 -10 187 -10Q139 -10 113 19T88 96V219Q55 194 31 179L10 206Q49 230 88 267L89 630Q88 711 110 749T176 788ZM208 705Q201 705 196 700T188 678T185 629V382Q221 437 240 495T260 606Q260 651 247 678T208 705Z" horiz-adv-x="331" unicode="ℓ"/>
			<glyph d="M414 681Q514 681 599 631T733 497T783 313Q783 212 733 127T599 -7T414 -57Q314 -57 229 -7T95 127T45 313Q45 413 95 497T229 631T414 681ZM414 648Q323 648 245 603T123 481T78 313Q78 221 123 143T245 21T414 -24Q506 -24 583 21T705 143T750 313Q750 404 705 481T582 603T414 648ZM239 550H430Q490 550 533 533T599 487T622 417Q622 372 598 338T529 285T427 267Q410 267 380 269V125L438 103V87H239V103L296 125V512L239 533ZM380 522V296Q455 296 491 328T528 417Q528 448 514 472T474 509T416 522Z" horiz-adv-x="828" unicode="℗"/>
			<glyph d="M15 713H368V587H349Q331 631 317 652T290 680T253 687H238V388L284 375V356H99V375L145 388V687H130Q107 687 93 680T65 652T34 587H15ZM410 713H545L657 493L767 713H906V693L860 681V388L906 375V356H724V375L770 388V638L632 374H613L488 631V388L534 375V356H410V375L456 388V681L410 693Z" horiz-adv-x="921" unicode="™"/>
			<glyph d="M412 727Q514 727 592 681T712 550T755 356Q755 261 704 179T563 40H604Q643 40 673 51T732 93T788 180H810V0H488V41Q556 101 595 184T635 356Q635 454 607 529T528 646T412 687Q346 687 295 646T216 529T188 356Q188 270 226 188T330 44V0H29V180H50Q79 123 107 93T165 51T236 40H258Q168 98 118 180T68 356Q68 466 111 550T232 681T412 727Z" horiz-adv-x="839" unicode="Ω"/>
			<glyph d="M430 687Q547 687 633 638T766 506T812 326H202Q196 326 192 322T189 314V148Q189 131 192 121T204 104Q297 13 430 13Q502 13 565 43T668 122H737Q712 87 670 57T567 7T430 -12Q316 -12 229 32T94 156T47 336Q47 435 93 515T226 641T430 687ZM430 661Q297 661 204 568Q195 559 192 550T189 527V361Q189 355 192 351T202 348H656Q662 348 665 351T669 361V527Q669 542 666 550T654 568Q605 616 548 638T430 661Z" horiz-adv-x="859" unicode="℮"/>
			<glyph d="M295 770Q371 770 424 717T503 577T530 389Q530 287 502 195T418 45T286 -12Q219 -12 167 16T87 96T59 213Q59 272 78 319T136 395T231 423Q275 423 327 402T420 351V385Q420 489 402 566T350 685T263 728Q224 728 194 715Q208 701 218 682T228 642Q228 624 219 609T196 586T166 578Q138 578 120 596T103 643Q103 680 127 708T196 753T295 770ZM274 355Q225 355 199 315T174 199Q174 147 187 108T225 48T283 27Q320 27 348 65T394 167T418 309Q383 328 343 341T274 355Z" horiz-adv-x="576" unicode="∂"/>
			<glyph d="M303 727H348L625 21V0H14V21ZM293 584L85 39H507Z" horiz-adv-x="639" unicode="∆"/>
			<glyph d="M9 713H684V691L600 657L601 -156L684 -191L683 -212H409L410 -191L494 -156L492 672H197L198 -156L282 -191V-212H9L10 -191L93 -156L92 657L9 691Z" horiz-adv-x="696" unicode="∏"/>
			<glyph d="M37 714H547V520H525Q496 587 473 619T423 662T351 673H157L352 250L128 -130H381Q427 -130 459 -120T517 -84T559 -10H581L551 -213H39V-184L262 195L37 685Z" horiz-adv-x="621" unicode="∑"/>
			<glyph d="M30 374H404V314H30Z" horiz-adv-x="434" unicode="−"/>
			<glyph d="M348 739L388 721L-3 -27L-44 -7Z" horiz-adv-x="263" unicode="∕"/>
			<glyph d="M104 417Q139 417 159 397T180 342Q180 308 159 288T104 268Q70 268 50 288T30 342Q30 377 49 397T104 417Z" horiz-adv-x="210" unicode="∙"/>
			<glyph d="M430 915L479 898L413 -127L356 -158L148 119L96 85L61 128L185 213L367 -30Z" horiz-adv-x="485" unicode="√"/>
			<glyph d="M148 497Q193 497 227 469T281 398Q309 446 342 471T423 497Q466 497 497 476T544 419T561 335Q561 295 548 259T509 200T443 178Q399 178 365 206T311 278Q282 230 248 204T168 178Q125 178 94 198T46 256T30 340Q30 380 42 416T81 474T148 497ZM157 422Q111 422 88 397T66 336Q66 299 87 276T144 254Q171 254 192 268T229 305T263 364Q244 393 216 407T157 422ZM448 421Q421 421 400 406T364 369T330 311Q349 282 376 267T435 253Q481 253 503 278T526 339Q526 376 504 398T448 421Z" horiz-adv-x="591" unicode="∞"/>
			<glyph d="M367 890Q418 890 445 869T472 814Q472 791 458 777T420 764Q397 764 383 777T370 814Q370 833 378 852Q376 853 369 853Q333 853 315 825T298 732V-40Q298 -130 257 -180T134 -230Q83 -230 55 -209T28 -154Q28 -131 41 -117T80 -104Q103 -104 116 -117T130 -154Q130 -173 122 -192Q125 -193 131 -193Q167 -193 184 -165T202 -72V700Q202 790 243 840T367 890Z" horiz-adv-x="447" unicode="∫"/>
			<glyph d="M471 481L492 476Q481 422 470 390T435 334T368 310Q342 310 315 319T248 349Q210 367 185 376T137 386Q85 386 53 307L30 313Q42 362 54 394T92 451T159 475Q187 475 216 464T285 435Q325 417 347 409T390 401Q420 401 440 424T471 481ZM471 309L492 304Q481 250 470 218T435 162T368 138Q342 138 315 147T248 177Q210 195 185 204T137 214Q85 214 53 135L30 141Q42 190 54 222T92 279T159 303Q187 303 216 292T285 263Q325 245 347 237T390 229Q420 229 440 252T471 309Z" horiz-adv-x="522" unicode="≈"/>
			<glyph d="M341 770L389 756L288 446H410V385H269L241 301H410V241H222L103 -125L55 -109L169 241H30V301H188L216 385H30V446H236Z" horiz-adv-x="440" unicode="≠"/>
			<glyph d="M493 575L516 515L117 345L516 174L493 115L15 322V368ZM15 60H498V0H15Z" horiz-adv-x="531" unicode="≤"/>
			<glyph d="M38 575L516 368V322L38 115L15 174L414 345L15 515ZM30 60H513V0H30Z" horiz-adv-x="528" unicode="≥"/>
			<glyph d="M247 713H290L478 349L288 -13H245L58 349ZM267 646L111 349L267 53L427 349Z" horiz-adv-x="490" unicode="◊"/>
			<glyph d="M0 770H427V0H0ZM60 712V58H367V712Z" horiz-adv-x="427" unicode=""/>
			<glyph d="M284 770Q335 770 362 749T389 694Q389 671 376 657T338 644Q314 644 301 657T288 694Q288 712 296 733H286Q250 733 232 705T215 612V513H347V473H215V56L308 21V0H45V21L119 56V473H28V513H119V580Q119 669 160 719T284 770ZM535 751Q565 751 581 735T597 690Q597 661 581 644T535 628Q506 628 490 644T474 690Q474 719 490 735T535 751ZM587 523V56L661 21V0H417V21L491 56V451L417 474V495Z" horiz-adv-x="689" unicode="ﬁ"/>
			<glyph d="M284 770Q335 770 362 749T389 694Q389 671 376 657T338 644Q314 644 301 657T288 694Q288 712 296 733H286Q250 733 232 705T215 612V513H347V473H215V56L308 21V0H45V21L119 56V473H28V513H119V580Q119 669 160 719T284 770ZM578 770V56L652 21V0H408V21L482 56V698L408 721V742Z" horiz-adv-x="680" unicode="ﬂ"/>
		</font>
</defs>
</svg>
