<?xml  version="1.0" encoding="UTF-8"?>
<!DOCTYPE svg PUBLIC "-//W3C//DTD SVG 1.0//EN" "http://www.w3.org/TR/2001/REC-SVG-20010904/DTD/svg10.dtd" >
<svg xmlns="http://www.w3.org/2000/svg" >
<metadata>
<version>1.0</version>
<id><![CDATA[Times Modern Regular]]></id>
<vendor>Monotype Imaging Inc.</vendor>
<credits>
<name>Fonts.com WebFonts</name>
<URL>http://webfonts.fonts.com</URL>
<role>Home of the Web fonts</role>
</credits>
<license>
<URL>http://webfonts.fonts.com/Legal</URL>
</license>
<copyright><![CDATA[Copyright (c) 2008 News International Newspapers Limited. All rights reserved.]]></copyright>
<trademark></trademark>
<licensee>
<name></name>
</licensee>
</metadata>
<defs >
<font horiz-adv-x="481" id="184b51c4-4734-4774-accf-178fe65d8eb5">
<font-face font-family="" panose-1="2 0 5 3 8 0 0 2 0 4" ascent="695" descent="-172" units-per-em="1000" alphabetic="0">
</font-face>
<missing-glyph horiz-adv-x="718" d="M147 671H626V0H147V671ZM550 623H224L387 379L550 623ZM578 91V580L415 335L578 91ZM550 48L387 292L224 48H550ZM195 91L358 335L195 580V91Z"  />

<glyph unicode="&#xA;" />
<glyph unicode="&#xD;" />
<glyph unicode=" " horiz-adv-x="185" />
<glyph unicode="!" horiz-adv-x="191" d="M162 620Q162 600 160 581T156 542Q153 509 149 477T141 411L115 203H95L70 411Q66 444 63 477T55 542Q53 562 51 581T49 620Q49 646 62 665T105 684Q134 684 148 665T162 620ZM166 48Q166 23 149 5T106 -13Q80 -13 63 4T45 48Q45 74 63 91T106 108Q131 108 148 91T166 48Z"  />
<glyph unicode="&quot;" horiz-adv-x="293" d="M273 630Q273 614 268 593T257 548T243 504T229 466H210Q204 482 197 503T183 548T171 592T166 630Q166 653 181 668T220 684Q243 684 258 669T273 630ZM127 630Q127 614 122 593T111 548T97 504T84 466H64Q59 481 52 503T37 548T25 593T20 630Q20 653 35 668T74 684Q97 684 112 669T127 630Z"  />
<glyph unicode="#" horiz-adv-x="562" d="M444 400L409 231H515V184H400L359 -13L310 -2L348 184H170L129 -13L80 -2L118 184H17V231H128L163 400H54V448H173L213 640L262 631L224 448H403L443 640L492 631L454 448H552V400H444ZM214 400L179 231H358L393 400H214Z"  />
<glyph unicode="$" horiz-adv-x="465" d="M440 158Q440 121 425 92T384 41T326 8T259 -8L261 -82H211L213 -9Q188 -8 156 -1T94 21T45 59T25 114Q25 140 42 158T86 177Q111 177 129 161T148 118Q148 97 137 81T105 57Q130 39 156 32T213 23V263Q178 281 147 300T91 345T52 402T37 477Q37 514 51 543T90 592T147 624T213 639L211 694H261L259 640Q282 638 311 631T366 611T409 576T427 525Q427 500 411 482T368 464Q343 464 324 479T305 521Q305 541 315 556T343 580Q323 593 303 599T259 607V366Q282 352 305 337T350 306Q372 290 389 276T417 245T434 207T440 158ZM213 606Q175 601 151 579T126 515Q126 493 133 476T153 444T180 417T213 393V606ZM352 122Q352 143 344 160T322 191T292 216T259 238V25Q300 30 326 54T352 122Z"  />
<glyph unicode="%" horiz-adv-x="785" d="M757 181Q757 148 749 113T723 50T677 4T610 -14Q571 -14 543 4T498 50T472 113T463 181Q463 215 471 250T496 314T541 361T610 380Q650 380 678 362T724 315T749 251T757 181ZM182 -14L142 12L554 640L593 615L182 -14ZM322 485Q322 452 314 417T288 354T242 308T175 290Q136 290 108 308T63 354T37 417T28 485Q28 519 36 554T61 618T106 665T175 684Q215 684 243 666T289 619T314 555T322 485ZM676 181Q676 197 675 226T667 284T648 334T610 356Q586 356 573 335T553 285T546 227T544 181Q544 165 545 136T553 79T572 31T610 10Q634 10 647 30T667 79T674 136T676 181ZM241 485Q241 501 240 530T232 588T213 638T175 660Q151 660 138 639T118 589T111 531T109 485Q109 469 110 440T118 383T137 335T175 314Q199 314 212 334T232 383T239 440T241 485Z"  />
<glyph unicode="&amp;" horiz-adv-x="630" d="M625 27Q599 8 568 -2T505 -12Q482 -12 464 -6T430 12T401 38T373 69Q343 29 300 8T207 -13Q168 -13 134 0T75 36T35 92T20 165Q20 199 32 228T66 280T114 322T170 352Q156 373 143 395T119 439T102 486T95 536Q95 574 110 602T150 648T207 675T274 684Q296 684 323 678T375 659T415 627T431 579Q431 552 414 533T369 513Q344 513 327 530T310 572Q310 593 322 608T355 631Q320 654 276 654Q237 654 211 630T185 565Q185 526 203 490T244 423L410 190Q410 189 410 189T411 188L467 361L406 392V402H578V392L516 361L426 167Q441 147 456 127T488 88Q503 70 523 51T570 32Q583 32 595 34T619 40L625 27ZM181 336Q148 310 134 270T120 188Q120 158 128 132T153 86T194 55T251 43Q283 43 310 53T361 86L181 336Z"  />
<glyph unicode="&apos;" horiz-adv-x="147" d="M127 630Q127 615 122 593T110 547T96 503T83 466H64Q59 481 52 502T37 547T25 592T20 630Q20 653 35 668T74 684Q97 684 112 669T127 630Z"  />
<glyph unicode="(" horiz-adv-x="294" d="M265 -130Q206 -95 159 -51T79 47T28 162T10 293Q10 433 78 539T265 716L279 702Q235 663 203 616T151 517T121 407T111 293Q111 236 121 180T151 71T203 -29T279 -116L265 -130Z"  />
<glyph unicode=")" horiz-adv-x="294" d="M284 293Q284 153 216 47T29 -130L15 -116Q104 -38 144 69T184 293Q184 409 144 516T15 702L29 716Q147 645 215 539T284 293Z"  />
<glyph unicode="*" horiz-adv-x="400" d="M319 640Q319 630 314 620Q309 611 297 598T272 570T245 543T224 523L205 534Q207 545 210 562T218 599T228 635T239 661Q252 684 275 684Q293 684 306 671T319 640ZM390 504Q390 486 378 474T347 461Q335 461 320 464T289 471T258 481T231 489L229 515Q239 518 255 523T287 534T320 543T347 547Q365 547 377 535T390 504ZM175 523Q168 530 155 542T128 569T102 597T86 620Q81 630 81 640Q81 658 93 671T125 684Q148 684 161 661Q166 652 171 635T180 599T188 563T195 534L175 523ZM318 370Q318 352 306 339T275 326Q251 326 238 349Q233 357 229 373T220 407T212 441T205 468L225 480Q230 475 243 463T271 436T298 409T313 390Q318 380 318 370ZM169 489Q158 486 143 481T112 472T80 464T53 461Q35 461 23 473T10 504Q10 522 22 534T53 547Q63 547 79 544T112 535T144 524T170 515L169 489ZM195 468Q192 455 189 440T182 408T173 376T162 349Q150 326 126 326Q108 326 95 338T82 370Q82 380 87 390Q91 397 102 410T127 436T154 462T174 481L195 468Z"  />
<glyph unicode="+" horiz-adv-x="408" d="M234 294V119H174V294H16V350H174V523H234V350H392V294H234Z"  />
<glyph unicode="&#x2c;" horiz-adv-x="176" d="M151 38Q151 13 142 -11T118 -58T84 -98T46 -131L35 -119Q55 -98 69 -70T90 -13Q64 -11 47 5T30 48Q30 74 47 90T90 107Q119 107 135 87T151 38Z"  />
<glyph unicode="-" horiz-adv-x="332" d="M25 213V278H307V213H25Z"  />
<glyph unicode="." horiz-adv-x="176" d="M151 48Q151 23 134 5T91 -13Q65 -13 48 4T30 48Q30 74 48 91T91 108Q116 108 133 91T151 48Z"  />
<glyph unicode="/" horiz-adv-x="339" d="M328 705Q261 497 194 291T59 -123L11 -107Q79 101 146 306T281 719L328 705H328Z"  />
<glyph unicode="0" horiz-adv-x="525" d="M499 311Q499 255 487 198T447 94T374 17T263 -13Q197 -13 152 17T79 93T39 197T26 311Q26 367 38 425T77 531T150 609T263 640Q329 640 374 610T447 531T487 425T499 311ZM384 311Q384 331 384 361T380 424T369 491T348 551T314 595T263 612Q233 612 213 595T178 552T157 492T146 425T142 361T141 311Q141 291 141 262T146 199T157 134T178 75T212 33T263 16Q293 16 313 32T347 75T368 133T379 199T383 261T384 311Z"  />
<glyph unicode="1" horiz-adv-x="342" d="M30 0V11L125 43V561L32 602V614L227 641V43L322 11V0H30Z"  />
<glyph unicode="2" horiz-adv-x="467" d="M20 0V17Q59 57 109 112T203 231T278 360T309 486Q309 511 304 533T286 572T255 598T207 608Q183 608 161 601T119 579Q141 571 154 555T167 515Q167 489 149 473T105 457Q78 457 60 474T42 519Q42 553 61 576T107 613T167 633T227 640Q264 640 299 632T362 604T405 555T422 483Q422 447 407 409T366 334T310 262T245 194T179 135T122 85H373L422 160H432V0H20Z"  />
<glyph unicode="3" horiz-adv-x="470" d="M435 162Q435 117 416 85T365 30T295 -2T216 -13Q190 -13 159 -7T100 12T54 48T35 104Q35 130 53 149T97 168Q123 168 140 151T158 108Q158 86 146 71T114 47Q132 33 158 28T206 23Q265 23 297 58T330 150Q330 192 312 220T264 264T199 289T128 299V328Q163 333 194 342T249 369T287 414T301 481Q301 530 277 564T200 599Q183 599 166 595T134 580Q156 574 167 558T178 519Q178 494 160 478T118 462Q90 462 73 480T56 526Q56 557 74 579T119 615T177 635T233 641Q268 641 301 632T359 603T399 554T414 486Q414 452 402 425T370 376T322 341T263 320V315Q297 312 328 302T383 273T421 228T435 162Z"  />
<glyph unicode="4" horiz-adv-x="495" d="M175 0V10L278 42V162H10V182L358 640H380V231H467V162H380V42L475 10V0H175ZM278 488L97 231H278V488Z"  />
<glyph unicode="5" horiz-adv-x="471" d="M426 193Q426 145 409 107T362 42T292 1T206 -13Q179 -13 149 -8T93 11T52 47T35 104Q35 131 52 149T97 168Q123 168 140 151T158 108Q158 84 145 69T109 45Q127 31 147 26T191 21Q223 21 247 33T286 65T310 113T318 169Q318 233 284 270T184 307Q155 307 130 302T77 287L64 296L77 627H356Q364 636 371 645T387 664H397V541H111L93 362Q123 371 154 376T218 381Q263 381 301 370T367 335T410 276T426 193Z"  />
<glyph unicode="6" horiz-adv-x="486" d="M451 197Q451 150 436 112T394 46T329 3T244 -13Q180 -13 138 14T71 86T36 184T26 292Q26 352 41 414T90 526T173 608T293 640Q317 640 344 635T394 616T433 583T449 534Q449 507 432 488T387 469Q361 469 345 485T328 528Q328 548 339 563T368 587Q353 598 336 602T299 607Q264 607 239 592T195 552T166 496T149 431T140 366T138 308Q172 337 211 356T295 375Q334 375 363 361T412 323T441 267T451 197ZM344 183Q344 207 341 233T327 280T297 316T248 330Q219 330 190 315T138 283Q138 266 139 240T143 183T153 123T172 69T203 30T247 15Q277 15 296 32T325 76T340 131T344 183Z"  />
<glyph unicode="7" horiz-adv-x="437" d="M210 0H91L359 542H94L45 467H35V627H412V611L210 0Z"  />
<glyph unicode="8" horiz-adv-x="474" d="M449 166Q449 122 431 89T383 33T315 -1T236 -13Q200 -13 163 -5T95 22T45 71T25 143Q25 174 36 199T66 245T109 279T161 305Q111 335 79 377T46 480Q46 518 62 548T105 598T166 629T235 640Q266 640 300 633T362 608T409 565T427 501Q427 473 417 450T390 408T350 375T304 351Q331 336 357 318T404 278T436 229T449 166ZM341 494Q341 543 314 576T235 610Q192 610 165 584T138 514Q138 485 152 462T188 421T235 389T282 362Q311 385 326 421T341 494ZM356 128Q356 160 338 185T293 231T236 267T181 294Q165 283 153 267T133 231T120 192T116 152Q116 94 147 56T239 17Q290 17 323 46T356 128Z"  />
<glyph unicode="9" horiz-adv-x="486" d="M460 335Q460 272 446 210T401 98T318 17T193 -14Q170 -14 143 -8T92 10T53 43T37 93Q37 120 54 138T99 156Q124 156 141 141T158 99Q158 79 147 63T118 39Q133 28 150 24T187 20Q241 20 273 50T321 124T343 218T348 309Q312 278 276 260T191 242Q151 242 122 257T74 297T45 355T35 425Q35 470 50 509T92 578T157 623T242 640Q306 640 348 613T415 541T450 443T460 335ZM348 334Q348 351 348 378T344 437T333 499T314 555T284 596T239 612Q209 612 190 594T161 548T146 491T142 439Q142 415 145 389T159 340T189 302T238 287Q269 287 296 301T348 334Z"  />
<glyph unicode=":" horiz-adv-x="197" d="M172 420Q172 395 154 378T111 360Q86 360 68 377T50 420Q50 445 68 462T111 480Q136 480 154 463T172 420ZM172 48Q172 23 154 5T111 -13Q86 -13 68 5T50 48Q50 73 68 90T111 108Q136 108 154 91T172 48Z"  />
<glyph unicode=";" horiz-adv-x="196" d="M171 420Q171 395 154 378T111 360Q86 360 68 377T50 420Q50 446 68 463T111 480Q136 480 153 463T171 420ZM171 38Q171 13 162 -11T138 -58T104 -98T66 -131L55 -119Q75 -98 89 -70T110 -13Q84 -11 67 5T50 48Q50 74 67 90T110 107Q139 107 155 87T171 38Z"  />
<glyph unicode="&lt;" horiz-adv-x="506" d="M464 65L14 261V298L464 494L482 449L83 279L482 110L464 65Z"  />
<glyph unicode="=" horiz-adv-x="408" d="M26 361V417H382V361H26ZM26 227V283H382V227H26Z"  />
<glyph unicode="&gt;" horiz-adv-x="506" d="M42 65L25 110L423 279L25 449L42 494L492 298V261L42 65Z"  />
<glyph unicode="?" horiz-adv-x="386" d="M371 553Q371 517 358 488T324 432T281 382T237 333T204 279T190 217V204L175 201Q161 222 154 244T147 291Q147 332 166 365T208 431T250 496T269 569Q269 611 242 632T176 654Q154 654 133 648T94 628Q115 620 127 606T139 568Q139 544 122 528T81 512Q54 512 37 530T20 575Q20 605 37 626T80 659T135 678T189 684Q219 684 251 677T310 655T354 614T371 553ZM247 48Q247 23 230 5T187 -13Q161 -13 144 4T126 48Q126 74 144 91T187 108Q212 108 229 91T247 48Z"  />
<glyph unicode="@" horiz-adv-x="780" d="M750 318Q750 283 743 247T722 179T684 120T628 76Q589 55 545 55Q520 55 495 63T458 95Q435 78 409 67T353 55Q311 55 282 78T253 146Q253 181 274 205T326 246T392 271T454 284V313Q454 334 454 356T448 396T428 426T385 438Q368 438 351 433T320 417Q337 412 346 400T356 370Q356 351 342 340T310 329Q289 329 276 343T263 377Q263 401 278 418T315 445T361 461T405 466Q444 466 469 457T508 429T528 384T534 322V135Q534 116 541 101T571 86Q604 86 624 112T656 174T671 248T675 309Q675 370 659 423T611 516T529 579T415 602Q341 602 284 574T189 498T132 387T112 255Q112 178 134 117T197 12T299 -54T438 -78Q498 -78 556 -65T668 -26L677 -40Q613 -82 545 -104T400 -126Q318 -126 250 -98T133 -21T57 97T30 247Q30 331 59 401T141 522T265 601T419 630Q486 630 546 607T651 543T723 444T750 318ZM454 263Q434 258 413 250T374 228T346 197T335 154Q335 127 349 111T391 94Q408 94 423 100T454 114V263Z"  />
<glyph unicode="A" horiz-adv-x="658" d="M399 0V10L471 40L396 235H194L130 42L203 10V0H5V10L74 43L313 678H339L588 42L653 10V0H399ZM289 517L204 264H385L289 517Z"  />
<glyph unicode="B" horiz-adv-x="579" d="M559 183Q559 134 537 100T479 43T400 11T314 0H20V10L94 40V631L20 661V671H259Q298 671 344 666T431 643T497 595T524 511Q524 475 509 448T469 401T413 369T350 352Q387 349 424 339T492 308T540 257T559 183ZM406 502Q406 568 369 604T267 642Q251 643 235 643T203 644V359Q214 360 225 360T248 361Q279 363 308 372T358 399T393 441T406 502ZM441 176Q441 232 420 263T365 309T289 328T203 334V27L293 30Q325 31 352 41T399 71T430 116T441 176Z"  />
<glyph unicode="C" horiz-adv-x="613" d="M593 52Q537 20 480 4T359 -13Q284 -13 224 13T120 85T54 193T30 329Q30 404 55 468T125 581T234 656T374 684Q426 684 475 678T575 657V483H560L524 542Q509 566 496 586T465 620T426 642T373 650Q318 650 273 623Q236 602 212 571T174 502T153 423T147 343Q147 277 163 221T213 125T298 62T421 39Q463 39 504 46T586 67L593 52H593Z"  />
<glyph unicode="D" horiz-adv-x="686" d="M656 347Q656 270 630 206T557 97T446 26T305 0H20V10L95 40V631L20 661V671H288Q366 671 433 652T549 594T627 493T656 347ZM538 347Q538 410 522 462T474 554T394 616T279 642Q260 643 242 643T204 644V26Q226 27 248 27T292 29Q361 32 408 59T484 129T525 229T538 347Z"  />
<glyph unicode="E" horiz-adv-x="559" d="M20 0V10L94 40V631L20 661V671H499V507H483L448 566Q436 587 424 601T397 624T365 637T322 642L203 644V354Q240 354 270 354T326 360T372 384T411 440H426V234H411Q400 260 389 277T363 306T328 321T280 327L203 329V27L320 29Q371 30 401 46T458 106L499 173H514V0H20Z"  />
<glyph unicode="F" horiz-adv-x="525" d="M472 507L437 566Q425 587 413 601T386 624T354 637T311 642L204 644V349Q241 349 271 349T327 355T372 379T412 435H426V229H412Q401 255 390 272T363 301T328 316T280 322L204 324V40L288 10V0H20V10L95 40V631L20 661V671H488V507H472Z"  />
<glyph unicode="G" horiz-adv-x="682" d="M603 287V45Q549 15 489 1T367 -13Q291 -13 229 11T123 79T54 185T30 323Q30 399 57 465T131 579T244 656T387 684Q439 684 488 678T588 657V483H573L537 542Q522 566 508 586T477 620T438 642T385 650Q321 650 276 621T203 547T161 445T147 334Q147 276 161 220T204 121T281 51T394 24Q420 24 445 26T494 37V287L414 317V327H677V317L603 287Z"  />
<glyph unicode="H" horiz-adv-x="726" d="M448 0V10L523 40V331H203V40L278 10V0H20V10L94 40V631L20 661V671H278V661L203 631V361H523V631L448 661V671H706V661L632 631V40L706 10V0H448Z"  />
<glyph unicode="I" horiz-adv-x="298" d="M20 0V10L95 40V631L20 661V671H278V661L204 631V40L278 10V0H20Z"  />
<glyph unicode="J" horiz-adv-x="420" d="M325 631V241Q325 217 325 192T321 143T311 95T289 50Q266 15 227 1T147 -13Q123 -13 99 -7T54 11T21 44T8 92Q8 120 25 137T71 155Q97 155 114 138T132 95Q132 72 119 57T85 35Q110 21 137 21Q151 21 165 25T190 41Q200 51 205 68T212 105T214 143T215 175Q215 196 215 216T216 257V631L138 661V671H400V661L325 631Z"  />
<glyph unicode="K" horiz-adv-x="676" d="M393 0V10L467 43L274 324L204 286V40L278 10V0H20V10L95 40V631L20 661V671H278V661L204 631V331H234L487 632L421 661V671H623V661L554 631L342 407L601 42L671 10V0H393Z"  />
<glyph unicode="L" horiz-adv-x="531" d="M20 0V10L95 40V631L20 661V671H282V661L204 631V27L303 30Q331 31 353 35T393 50T427 77T457 118L500 189H516V0H20Z"  />
<glyph unicode="M" horiz-adv-x="824" d="M546 0V10L620 40V526L399 10H371L136 568V44L206 10V0H20V10L90 44V633L21 661V671H206L424 159L627 671H804V661L729 631V40L804 10V0H546Z"  />
<glyph unicode="N" horiz-adv-x="689" d="M599 628V-9H564L140 543V44L215 10V0H24V10L94 44V631L20 661V671H174L554 186V627L478 660V670H669V660L599 628Z"  />
<glyph unicode="O" horiz-adv-x="731" d="M701 334Q701 260 677 197T609 87T502 14T365 -13Q290 -13 229 13T123 87T54 197T30 334Q30 407 54 471T122 582T228 657T365 684Q441 684 503 657T609 583T677 472T701 334ZM583 334Q583 386 573 442T538 544T471 620T365 650Q302 650 260 620T193 544T158 442T148 334Q148 282 158 227T193 126T260 51T365 21Q428 21 470 50T537 125T572 226T583 334Z"  />
<glyph unicode="P" horiz-adv-x="555" d="M533 469Q533 418 509 381T446 318T362 280T272 267Q255 267 238 267T203 269V40L288 10V0H20V10L94 40V631L20 661V671H273Q322 671 369 661T452 626T511 564T533 469ZM416 468Q416 503 408 534T383 588T338 626T272 642Q255 643 238 643T203 644V295Q214 296 225 296T248 297Q325 302 370 345T416 468Z"  />
<glyph unicode="Q" horiz-adv-x="731" d="M747 -97Q728 -112 708 -126T667 -151T624 -169T576 -176Q530 -176 495 -157T428 -105Q405 -82 383 -59T337 -12Q266 -7 210 22T113 97T52 204T30 334Q30 407 54 471T122 582T228 657T365 684Q441 684 503 657T609 583T677 472T701 334Q701 264 679 202T615 94T515 19T384 -12L543 -81Q568 -92 595 -100T649 -108Q670 -108 695 -101T739 -85L747 -97ZM583 334Q583 386 573 442T538 544T471 620T365 650Q302 650 260 620T193 544T158 442T148 334Q148 282 158 227T193 126T260 51T365 21Q428 21 470 50T537 125T572 226T583 334Z"  />
<glyph unicode="R" horiz-adv-x="639" d="M467 0L381 153Q368 177 350 204T310 254T261 294T204 311V40L278 10V0H20V10L95 40V631L20 661V671H271Q313 671 358 664T440 637T502 584T526 499Q526 457 507 426T457 373T389 341T315 325Q376 314 415 275T485 184L570 42L639 10V0H467ZM408 492Q408 562 371 599T264 641L204 644V337Q213 338 221 338T239 339Q272 341 302 351T356 381T394 428T408 492Z"  />
<glyph unicode="S" horiz-adv-x="466" d="M441 179Q441 132 422 97T371 38T298 2T214 -10Q169 -10 126 -4T38 13V179H52Q68 153 85 126T125 76T174 39T236 24Q287 24 320 51T353 132Q353 143 352 154T345 177Q337 195 321 211T284 242T243 267T206 288Q174 305 143 325T88 372T50 430T35 503Q35 548 51 582T96 638T163 672T243 684Q284 684 323 679T402 666V500H386Q371 526 356 553T322 602T278 638T219 652Q173 652 148 625T122 553Q122 508 145 477T204 422T281 377T358 330T417 267T441 179Z"  />
<glyph unicode="T" horiz-adv-x="572" d="M541 491Q528 518 516 544T486 592T445 627T388 643Q377 644 365 644T342 645V40L427 10V0H148V10L233 40V645Q222 644 211 644T188 643Q156 641 132 627T90 592T59 544T32 492H15V671H557V491H541Z"  />
<glyph unicode="U" horiz-adv-x="648" d="M568 627V298Q568 268 567 238T560 179T543 123T513 71Q481 29 434 8T334 -13Q213 -13 149 51T85 236V631L10 661V671H267V661L194 631V243Q194 201 202 165T228 101T278 59T356 43Q412 43 445 68T495 133T518 219T523 309V627L452 660V670H638V660L568 627Z"  />
<glyph unicode="V" horiz-adv-x="659" d="M588 631L361 -7H334L77 632L5 661V671H282V661L194 631L381 153L531 631L462 661V671H654V661L588 631Z"  />
<glyph unicode="W" horiz-adv-x="965" d="M894 631L684 -7H658L490 453L329 -7H304L81 630L5 661V671H278V661L195 630L355 171L502 661H527L706 164L838 631L768 661V671H960V661L894 631Z"  />
<glyph unicode="X" horiz-adv-x="646" d="M357 0V10L437 42L285 299L143 40L212 10V0H15V10L81 41V40L266 331L91 628L10 661V671H287V661L207 630L341 407L467 631L397 661V671H593V661L527 631L359 376L558 44L636 10V0H357Z"  />
<glyph unicode="Y" horiz-adv-x="599" d="M529 631L365 328V40L449 10V0H171V10L256 40V321L84 629L5 661V671H285V661L197 631L348 368L467 631L398 661V671H594V661L529 631Z"  />
<glyph unicode="Z" horiz-adv-x="557" d="M30 0V13L390 644Q357 643 324 643T258 642Q232 642 213 637T179 622T150 598T122 562L79 500H64V671H519V658L155 27L290 30Q319 31 344 34T390 46T429 70T464 112L508 182H522V0H30Z"  />
<glyph unicode="[" horiz-adv-x="247" d="M50 -129V715H232V682H146V-96H232V-129H50Z"  />
<glyph unicode="\" horiz-adv-x="339" d="M281 -123L11 705L58 719Q126 511 193 306T328 -107L281 -123Z"  />
<glyph unicode="]" horiz-adv-x="247" d="M15 -129V-96H101V682H15V715H197V-129H15Z"  />
<glyph unicode="^" horiz-adv-x="486" d="M447 336Q396 390 345 443T243 550Q192 496 141 443T39 336L20 350Q74 434 126 516T233 681H253L466 351L447 336Z"  />
<glyph unicode="_" horiz-adv-x="313" d="M0 -108V-46H313V-108H0Z"  />
<glyph unicode="`" horiz-adv-x="169" d="M134 541L-4 694H105L155 541H134Z"  />
<glyph unicode="a" horiz-adv-x="441" d="M441 28Q418 11 392 0T336 -11Q312 -11 292 0T267 37Q239 17 207 2T140 -13Q86 -13 52 15T17 100Q17 143 43 173T106 222T187 252T263 268V305Q263 317 263 333T262 366T258 399T249 426Q238 447 220 454T178 462Q157 462 137 456T99 437Q120 432 132 417T144 379Q144 356 128 342T88 327Q63 327 47 343T31 384Q31 415 49 435T94 469T151 487T206 493Q253 493 283 482T332 449T357 393T364 317V86Q364 66 369 52T398 37Q407 37 416 38T435 41L441 28ZM263 247Q238 241 213 230T166 203T132 163T119 110Q119 77 136 56T189 34Q210 34 227 40T263 55V247Z"  />
<glyph unicode="b" horiz-adv-x="471" d="M461 248Q461 193 447 146T404 63T332 7T229 -13Q187 -13 144 -6T62 19V615L-5 650V659L164 695V433Q189 459 220 476T289 493Q338 493 371 470T424 412T452 333T461 248ZM352 243Q352 266 349 300T336 367T307 423T254 446Q227 446 206 436T164 408V52Q180 32 198 22T243 12Q281 12 302 38T335 101T349 177T352 243Z"  />
<glyph unicode="c" horiz-adv-x="414" d="M399 44Q356 17 314 2T219 -13Q168 -13 129 7T64 60T24 137T10 228Q10 280 26 327T72 412T147 471T246 493Q268 493 293 488T341 472T377 443T392 397Q392 373 376 356T334 338Q310 338 292 353T274 394Q274 434 312 447Q298 456 283 459T252 462Q212 462 186 440T145 385T125 315T119 246Q119 208 127 171T154 105T202 58T276 39Q334 39 393 56L399 44H399Z"  />
<glyph unicode="d" horiz-adv-x="485" d="M308 -14V54Q284 23 252 5T179 -13Q131 -13 99 10T47 68T19 147T10 230Q10 282 24 329T65 413T135 471T234 493Q269 493 307 485V614L240 649V659L408 695V53L475 22V12L308 -14ZM307 425Q291 444 272 456T227 468Q190 468 169 442T136 378T122 302T119 236Q119 213 122 179T135 112T164 57T216 34Q243 34 265 48T307 79V425Z"  />
<glyph unicode="e" horiz-adv-x="418" d="M401 245H119Q120 207 128 170T156 104T205 57T279 39Q337 39 394 56L400 44Q357 16 314 2T219 -13Q166 -13 127 8T62 64T23 143T10 236Q10 283 22 329T59 411T123 470T215 493Q266 493 301 473T359 418T391 342T401 254V245ZM293 276Q293 296 291 328T281 390T256 442T210 464Q180 464 162 441T135 386T122 320T119 265L293 276Z"  />
<glyph unicode="f" horiz-adv-x="322" d="M372 614Q372 590 357 575T317 560Q294 560 278 575T262 613Q262 630 271 642T295 661Q278 667 261 667Q236 667 221 656T198 627T187 588T184 547V480H299V440H184V39L260 10V0H16V10L83 39V440H0V458L83 480Q83 493 83 505T85 530Q93 605 136 650T258 695Q276 695 296 691T333 677T361 652T372 614Z"  />
<glyph unicode="g" horiz-adv-x="464" d="M459 504Q459 482 445 473T410 464H334Q369 441 388 406T407 328Q407 289 393 259T353 207T295 175T225 164Q205 164 186 167T147 177L123 120Q125 106 133 98T152 87T177 83T201 82H298Q328 82 356 77T406 60T442 25T456 -34Q456 -77 433 -106T375 -152T300 -177T225 -185Q202 -185 166 -182T95 -169T35 -138T10 -85Q10 -67 18 -53T40 -28T68 -8T98 7Q79 18 65 35T51 75Q51 93 58 108T77 137T103 162T131 184Q89 206 67 243T44 328Q44 367 58 397T97 449T155 482T225 493Q249 493 272 489T318 473Q327 482 338 494T363 517T390 536T418 544Q435 544 447 533T459 504ZM306 328Q306 348 303 372T292 418T267 453T225 468Q199 468 184 454T160 418T149 372T146 328Q146 309 149 285T160 240T183 205T225 191Q251 191 267 205T291 239T303 284T306 328ZM385 -64Q385 -43 375 -31T349 -14T315 -8T281 -7H176Q160 -7 144 -6T113 1Q91 -30 91 -67Q91 -93 103 -110T135 -138T177 -153T222 -157Q244 -157 272 -154T325 -140T367 -111T385 -64Z"  />
<glyph unicode="h" horiz-adv-x="535" d="M299 0V10L357 39V308Q357 328 357 351T350 393T330 424T287 437Q261 437 234 426T183 402V39L241 10V0H15V10L81 39V614L15 649V659L183 695V424Q214 450 255 471T338 493Q366 493 392 482T435 447Q451 421 454 385T458 319V39L525 10V0H299Z"  />
<glyph unicode="i" horiz-adv-x="259" d="M195 628Q195 601 177 583T131 565Q105 565 87 583T68 628Q68 654 86 673T131 692Q157 692 176 673T195 628ZM15 0V10L81 39V415L15 450V459L183 495V39L249 10V0H15Z"  />
<glyph unicode="j" horiz-adv-x="226" d="M186 628Q186 601 168 583T122 565Q96 565 78 583T59 628Q59 654 77 673T122 692Q148 692 167 673T186 628ZM176 3Q176 -38 167 -72T138 -132T87 -171T11 -185Q-8 -185 -28 -181T-66 -167T-95 -142T-107 -103Q-107 -80 -92 -64T-53 -48Q-30 -48 -14 -63T2 -101Q2 -117 -7 -129T-30 -149Q-22 -154 -14 -155T3 -156Q28 -156 42 -145T63 -117T73 -79T75 -39V415L6 450V459L176 495V3Z"  />
<glyph unicode="k" horiz-adv-x="530" d="M292 0V10L349 38L234 239H183V39L241 10V0H15V10L82 39V614L15 649V659L183 695V260H193L365 441L312 469V479H487V469L467 459L428 439L339 364L295 327L463 41L525 10V0H292Z"  />
<glyph unicode="l" horiz-adv-x="260" d="M15 0V10L82 39V614L15 649V659L183 695V39L250 10V0H15Z"  />
<glyph unicode="m" horiz-adv-x="791" d="M555 0V10L613 39V308Q613 328 613 350T606 392T586 424T544 437Q532 437 519 434T492 424T466 412T443 399Q447 379 447 359T448 319V39L506 10V0H288V10L346 39V308Q346 327 346 349T340 391T321 424T280 437Q256 437 230 425T183 401V39L241 10V0H15V10L81 39V415L15 450V459L183 495V423Q214 449 252 471T332 493Q370 493 398 474T437 418Q453 431 472 444T511 469T552 486T596 493Q622 493 646 483T687 452Q708 423 711 388T714 319V39L781 10V0H555Z"  />
<glyph unicode="n" horiz-adv-x="534" d="M298 0V10L356 39V309Q356 329 356 352T349 394T329 425T286 438Q260 438 233 428T183 404V39L241 10V0H15V10L82 39V420L15 455V464L183 495V426Q214 452 255 473T338 494Q366 494 392 483T434 448Q450 422 453 386T457 320V39L524 10V0H298Z"  />
<glyph unicode="o" horiz-adv-x="461" d="M451 240Q451 190 437 144T395 63T326 8T230 -13Q176 -13 135 8T67 64T25 144T10 240Q10 290 24 335T66 416T135 472T230 493Q284 493 325 473T395 417T437 336T451 240ZM341 240Q341 267 338 305T324 378T290 439T230 464Q192 464 171 439T138 379T123 305T120 240Q120 214 123 176T137 102T170 42T230 17Q268 17 290 41T323 101T338 175T341 240Z"  />
<glyph unicode="p" horiz-adv-x="485" d="M475 250Q475 198 462 151T421 67T352 10T253 -11Q234 -11 216 -9T178 -1V-134L253 -162V-172H10V-162L76 -134V415L10 450V459L178 495V426Q202 457 234 475T306 493Q354 493 386 470T438 412T466 333T475 250ZM365 244Q365 267 362 301T350 368T321 423T268 446Q241 446 219 432T178 400V61Q192 40 211 28T256 15Q293 15 315 41T348 103T362 179T365 244Z"  />
<glyph unicode="q" horiz-adv-x="476" d="M232 -172V-162L308 -134V50Q283 22 252 6T183 -11Q134 -11 101 12T48 70T19 149T10 233Q10 286 24 333T66 415T136 472T236 493Q293 493 347 475L399 513H409V-134L476 -162V-172H232ZM308 415Q294 439 276 453T229 468Q191 468 170 442T137 380T123 304T120 239Q120 215 123 180T136 114T167 60T221 37Q247 37 267 46T308 72V415Z"  />
<glyph unicode="r" horiz-adv-x="371" d="M366 433Q366 409 350 394T310 378Q290 378 275 389T251 417L183 372V39L259 10V0H15V10L82 39V415L15 450V459L183 495V394Q194 409 207 426T236 458T270 483T309 493Q335 493 350 476T366 433Z"  />
<glyph unicode="s" horiz-adv-x="367" d="M349 131Q349 95 335 68T298 23T244 -4T181 -13Q146 -13 111 -9T41 5V142H55Q67 125 81 103T113 62T151 29T196 16Q226 16 249 33T272 83Q272 111 255 130T212 166T156 199T100 237T57 286T40 357Q40 391 52 417T87 459T137 484T198 493Q230 493 262 490T325 476V343H311Q300 361 288 382T261 422T227 453T184 466Q153 466 133 450T112 401Q112 372 129 351T173 313T230 279T287 242T331 195T349 131Z"  />
<glyph unicode="t" horiz-adv-x="320" d="M315 34Q283 14 249 1T176 -13Q153 -13 134 -5T101 20Q91 32 86 45T79 74T76 104T75 133V440H0V451Q6 455 19 465T48 485T76 505T93 519Q97 523 106 535T127 561T147 589T162 608H176V480H301V440H176V123Q176 106 177 91T183 64T200 45T232 38Q252 38 271 40T309 47L315 34H315Z"  />
<glyph unicode="u" horiz-adv-x="522" d="M346 -14V55Q314 29 274 8T191 -13Q163 -13 137 -2T95 33Q87 46 82 62T75 95T73 129T72 161V415L5 450V459L173 495V172Q173 152 173 129T180 87T200 56T243 43Q269 43 295 53T344 76V415L278 450V459L446 495V53L512 22V12L346 -14Z"  />
<glyph unicode="v" horiz-adv-x="495" d="M430 439L265 -8H247L61 443L0 470V480H243V470L171 442L290 141L381 439L326 470V480H485V470L430 439Z"  />
<glyph unicode="w" horiz-adv-x="704" d="M639 440L494 -8H477L352 303L236 -8H219L63 442L0 470V480H240V470L168 442L267 153L364 466H388L516 151L592 440L536 470V480H694V470L639 440Z"  />
<glyph unicode="x" horiz-adv-x="514" d="M265 0V10L331 36L222 206L124 41L182 10V0H9V10L70 41L206 231L72 442L5 470V480H249V470L182 444L276 300L357 439L301 470V480H469V470L409 439L291 276L447 36L509 10V0H265Z"  />
<glyph unicode="y" horiz-adv-x="490" d="M429 440L231 -70Q224 -88 215 -108T194 -145T164 -174T124 -185Q99 -185 81 -169T62 -127Q62 -104 77 -87T117 -70Q155 -70 171 -105L235 6L65 443L5 470V480H241V470L173 444L284 144L380 441L325 470V480H485V470L429 440Z"  />
<glyph unicode="z" horiz-adv-x="441" d="M142 28L236 30Q267 31 293 41T338 77L389 146H403V0H25V11L290 453Q261 452 240 452T201 451T172 447T148 439Q128 428 109 406T56 340H44V480H406V470L142 28Z"  />
<glyph unicode="{" horiz-adv-x="326" d="M309 -130Q273 -128 240 -119T183 -91T143 -44T128 25V165Q128 187 124 206T110 241T84 266T44 279Q36 280 30 280T15 282V304Q23 305 29 305T44 307Q68 310 84 320T109 345T123 379T128 421V561Q128 601 143 629T182 676T240 704T309 716L311 697Q282 694 265 681T237 648T223 604T219 555V432Q219 397 209 373T179 333T134 308T77 293Q108 288 134 279T179 253T208 213T219 154V31Q219 6 222 -18T236 -61T264 -94T311 -111L309 -130Z"  />
<glyph unicode="|" horiz-adv-x="193" d="M67 -111V710H126V-111H67Z"  />
<glyph unicode="}" horiz-adv-x="326" d="M311 282Q303 281 297 281T282 279Q258 276 242 266T217 241T203 207T198 165V25Q198 -16 183 -44T144 -90T86 -118T17 -130L15 -111Q43 -108 61 -95T89 -62T103 -18T107 31V154Q107 188 117 212T147 253T192 278T249 293Q218 298 192 307T147 333T118 373T107 432V555Q107 580 104 604T90 647T61 680T15 697L17 716Q53 714 86 705T143 677T183 630T198 561V421Q198 399 202 380T216 345T242 320T282 307Q290 306 296 306T311 304V282H311Z"  />
<glyph unicode="~" horiz-adv-x="516" d="M486 409Q480 382 473 353T453 300T419 261T363 245Q335 245 306 256T247 282T189 308T135 320Q119 320 106 313T83 295T66 270T53 243L30 249Q36 275 44 303T67 354T102 393T157 408Q186 408 216 397T276 372T333 347T385 335Q401 335 414 342T437 361T453 386T465 414L486 409H486Z"  />
<glyph unicode="&#xA0;" horiz-adv-x="185" />
<glyph unicode="&#xA1;" horiz-adv-x="191" d="M166 425Q166 399 148 382T105 365Q80 365 63 382T45 425Q45 450 62 467T105 485Q130 485 148 468T166 425ZM162 -148Q162 -174 149 -193T106 -212Q77 -212 63 -193T49 -148Q49 -128 51 -109T55 -70Q58 -38 62 -5T70 61L96 269H116L141 61Q145 28 149 -5T156 -70Q158 -90 160 -109T162 -148Z"  />
<glyph unicode="&#xA2;" horiz-adv-x="398" d="M378 142Q346 122 312 110T240 94V0H190V94Q148 98 116 116T61 162T27 227T15 304Q15 344 27 381T62 447T117 496T190 525V627H240V530Q259 530 282 526T325 511T359 485T373 444Q373 420 358 404T318 387Q296 387 279 402T261 440Q261 457 269 470T295 489Q269 501 243 501Q207 501 184 483T147 438T128 379T122 317Q122 282 129 251T154 194T198 155T264 140Q319 140 372 155L378 142H378Z"  />
<glyph unicode="&#xA3;" horiz-adv-x="453" d="M443 126Q438 99 429 74T405 30T367 -1T314 -13Q290 -13 268 -7T224 8T180 22T133 29Q101 29 73 15T19 -15L6 7Q28 24 48 44T85 87T110 136T120 192Q120 219 116 246T105 300H5V338H93Q82 372 70 411T58 486Q58 525 75 554T119 602T180 630T250 640Q274 640 302 634T354 615T394 581T411 531Q411 503 394 486T349 468Q322 468 304 486T286 531Q286 551 298 566T329 588Q315 602 296 607T258 612Q215 612 186 588T156 518Q156 485 166 453T186 390Q190 377 193 364T200 338H358V300H207Q209 286 210 274T212 247Q212 192 184 147T116 67L119 62Q141 75 165 85T215 95Q248 95 279 84T343 73Q373 73 395 87T427 130L443 126H443Z"  />
<glyph unicode="&#xA4;" horiz-adv-x="591" d="M586 43Q541 17 488 2T383 -13Q324 -13 274 4T184 54T118 133T81 239H0V275H76Q75 283 75 290T75 305Q75 311 75 316T76 328H0V364H79Q88 425 115 476T183 563T277 620T394 640Q421 640 454 634T516 615T565 578T585 521Q585 493 567 476T522 459Q495 459 477 476T458 521Q458 541 469 556T499 580Q476 596 450 602T396 608Q345 608 308 587T245 531T207 453T190 364H476V328H188Q188 314 188 302T190 275H476V239H195Q213 144 271 91T429 37Q507 37 579 59L586 43H586Z"  />
<glyph unicode="&#xA5;" horiz-adv-x="582" d="M511 587L376 346H498V309H356L347 292V256H498V220H347V40L432 10V0H162V10L247 40V220H93V256H247V289L235 309H93V346H215L82 585L5 617V627H277V617L190 587L330 332L450 587L381 617V627H577V617L511 587Z"  />
<glyph unicode="&#xA6;" horiz-adv-x="193" d="M67 363V710H126V363H67ZM67 -111V238H126V-111H67Z"  />
<glyph unicode="&#xA7;" horiz-adv-x="356" d="M322 555Q322 532 306 515T266 497Q243 497 227 512T210 550Q210 571 221 584T253 603Q243 610 231 612T206 615Q174 615 158 598T136 557T129 505T129 455Q215 451 265 407T316 272V183Q316 142 307 107T277 45T225 3T149 -13Q130 -13 109 -8T71 7T42 34T30 73Q30 96 46 113T86 130Q109 130 125 115T142 77Q142 57 130 44T99 24Q109 17 121 15T146 12Q178 12 194 29T216 70T223 123T223 173Q137 176 87 220T36 355V445Q36 486 45 521T75 583T127 625T203 640Q222 640 243 635T281 620T310 594T322 555ZM223 298Q223 324 220 347T207 389T179 419T129 432V316Q129 292 133 271T148 233T177 207T223 196V298Z"  />
<glyph unicode="&#xA8;" horiz-adv-x="300" d="M284 620Q284 597 267 579T226 561Q202 561 185 578T167 620Q167 644 184 661T226 678Q249 678 266 661T284 620ZM110 620Q110 597 93 579T52 561Q28 561 11 578T-7 620Q-7 644 10 661T52 678Q75 678 92 661T110 620Z"  />
<glyph unicode="&#xA9;" horiz-adv-x="730" d="M700 336Q700 262 676 199T608 88T502 14T365 -13Q290 -13 228 14T122 88T54 198T30 336Q30 409 54 473T122 583T228 657T365 684Q440 684 502 657T608 584T676 473T700 336ZM627 336Q627 378 619 419T594 497T550 566T486 620Q430 652 365 652Q300 652 244 620Q206 598 180 567T136 498T111 419T103 336Q103 294 111 253T136 175T179 106T244 52Q300 20 365 20Q430 20 486 52Q523 74 550 105T594 174T619 253T627 336ZM515 172Q485 155 452 145T383 134Q340 134 305 148T246 188T208 250T194 328Q194 370 208 407T249 471T311 513T390 529Q419 529 446 525T503 514V416H489Q480 431 471 447T451 475T425 496T390 505Q357 505 335 489T299 447T279 393T273 336Q273 304 280 274T304 220T347 183T409 169Q435 169 459 173T508 185L515 172Z"  />
<glyph unicode="&#xAA;" horiz-adv-x="308" d="M299 404Q285 394 268 388T234 382Q220 382 205 389T185 410Q168 397 149 389T108 381Q76 381 52 397T28 449Q28 475 44 493T85 522T135 540T182 550V569Q182 585 182 601T178 631T163 653T131 662Q107 662 87 649Q98 646 104 637T111 616Q111 602 101 592T76 582Q59 582 49 593T39 620Q39 638 51 650T80 669T115 680T148 684Q202 684 227 659T252 579V441Q252 430 254 421T271 412Q284 412 296 415L299 404ZM182 533Q167 529 152 523T125 508T105 486T97 455Q97 437 107 425T137 412Q149 412 160 416T182 426V533Z"  />
<glyph unicode="&#xAB;" horiz-adv-x="438" d="M382 131L225 307L382 480H408L335 308L408 131H382ZM197 131L40 307L197 480H223L150 308L223 131H197Z"  />
<glyph unicode="&#xAC;" horiz-adv-x="408" d="M321 171V294H30V350H379V171H321Z"  />
<glyph unicode="&#xAE;" horiz-adv-x="730" d="M700 336Q700 262 676 199T608 88T502 14T365 -13Q290 -13 228 14T122 88T54 198T30 336Q30 409 54 473T122 583T228 657T365 684Q440 684 502 657T608 584T676 473T700 336ZM627 336Q627 378 619 419T594 497T550 566T486 620Q430 652 365 652Q300 652 244 620Q206 598 180 567T136 498T111 419T103 336Q103 294 111 253T136 175T179 106T244 52Q300 20 365 20Q430 20 486 52Q523 74 550 105T594 174T619 253T627 336ZM444 147L401 232Q394 245 387 259T371 286T349 308T320 320V176L362 159V147H212V159L254 176V491L212 509V520H351Q374 520 399 516T446 501T481 472T495 424Q495 401 485 384T458 356T422 338T382 328Q401 323 415 313T441 288T461 257T479 225L508 173L548 159V147H444ZM425 422Q425 449 417 464T395 486T361 496T320 499V339Q329 340 338 341T357 343Q389 347 407 368T425 422Z"  />
<glyph unicode="&#xAF;" horiz-adv-x="274" d="M-11 565V620H267V565H-11Z"  />
<glyph unicode="&#xB0;" horiz-adv-x="308" d="M289 503Q289 474 279 449T250 406T208 377T154 366Q125 366 101 376T58 405T30 449T19 503Q19 532 29 557T57 600T100 629T154 640Q183 640 207 630T250 601T278 557T289 503ZM217 503Q217 518 215 538T206 575T187 604T154 616Q133 616 121 604T103 575T94 538T92 503Q92 488 94 469T102 432T121 402T154 390Q174 390 186 402T205 431T214 468T217 503Z"  />
<glyph unicode="&#xB1;" horiz-adv-x="408" d="M233 294V119H175V294H16V350H175V523H233V350H392V294H233ZM30 0V56H378V0H30Z"  />
<glyph unicode="&#xB2;" horiz-adv-x="281" d="M10 298V312Q34 336 63 369T119 439T162 515T180 591Q180 621 168 641T122 661Q109 661 97 657T74 645Q87 641 95 631T103 607Q103 590 92 580T64 569Q47 569 35 581T22 610Q22 630 33 644T62 667T99 680T135 684Q157 684 178 679T217 663T245 633T256 590Q256 558 237 525T191 460T134 402T82 355H222L250 401H261V298H10Z"  />
<glyph unicode="&#xB3;" horiz-adv-x="301" d="M271 392Q271 365 259 345T227 311T183 292T135 285Q119 285 100 289T65 301T37 323T25 357Q25 374 36 385T64 397Q80 397 91 388T102 361Q102 332 73 322Q85 313 100 310T129 307Q164 307 182 329T200 384Q200 410 190 426T163 453T125 468T82 476V492Q103 494 122 500T155 518T177 546T186 586Q186 615 172 637T125 659Q114 659 104 656T85 646Q113 638 113 609Q113 593 102 584T76 574Q59 574 48 585T37 613Q37 632 48 646T76 668T112 680T146 684Q167 684 187 678T222 660T247 631T257 589Q257 548 229 522T162 487V485Q183 483 202 478T237 461T262 433T271 392Z"  />
<glyph unicode="&#xB4;" horiz-adv-x="176" d="M24 541H3L54 694H162L24 541Z"  />
<glyph unicode="&#xB5;" horiz-adv-x="718" d="M147 671H626V0H147V671ZM550 623H224L387 379L550 623ZM578 91V580L415 335L578 91ZM550 48L387 292L224 48H550ZM195 91L358 335L195 580V91Z"  />
<glyph unicode="&#xB6;" horiz-adv-x="512" d="M453 631V179Q453 84 398 36T250 -13Q222 -13 190 -5T131 19T87 60T69 118Q69 146 87 165T134 184Q161 184 179 168T197 124Q197 98 181 80T139 55Q181 20 236 20Q290 20 317 55T345 142V671H527V661L453 631ZM276 267Q232 267 186 279T102 317T40 380T15 469Q15 525 37 563T95 626T179 660T275 671H296V267H276Z"  />
<glyph unicode="&#xB7;" horiz-adv-x="176" d="M149 322Q149 297 131 280T88 262Q63 262 45 279T27 322Q27 347 45 364T88 382Q113 382 131 365T149 322Z"  />
<glyph unicode="&#xB8;" horiz-adv-x="145" d="M181 -132Q181 -153 172 -169T149 -196T117 -213T79 -219Q67 -219 53 -217T27 -210T7 -195T-2 -170Q-2 -156 8 -146T32 -135Q48 -135 58 -144T68 -170Q68 -188 54 -199Q59 -200 64 -200T74 -201Q96 -201 113 -190T130 -154Q130 -140 124 -130T107 -113T85 -101T61 -92L109 21H126L110 -50Q136 -61 158 -80T181 -132Z"  />
<glyph unicode="&#xB9;" horiz-adv-x="261" d="M50 298V310L105 327V636L51 659V671L173 684V327L227 310V298H50Z"  />
<glyph unicode="&#xBA;" horiz-adv-x="296" d="M284 530Q284 500 275 473T249 424T206 391T148 379Q116 379 91 391T49 424T22 472T12 530Q12 560 21 587T47 636T90 669T148 682Q181 682 206 670T248 637T275 589T284 530ZM208 530Q208 544 207 566T199 610T181 646T148 661Q127 661 115 646T97 609T90 566T88 530Q88 516 90 494T98 451T116 415T148 400Q169 400 181 415T199 451T206 494T208 530Z"  />
<glyph unicode="&#xBB;" horiz-adv-x="438" d="M241 131H215L289 308L215 480H241L399 307L241 131ZM56 131H30L104 308L30 480H56L214 307L56 131Z"  />
<glyph unicode="&#xBC;" horiz-adv-x="670" d="M420 0V12L482 29V93H321V105L536 386H550V142H602V93H550V29L607 12V0H420ZM145 -14L105 12L517 640L556 615L145 -14ZM61 298V310L116 327V636L62 659V671L184 684V327L238 310V298H61ZM482 278L382 142H482V278Z"  />
<glyph unicode="&#xBD;" horiz-adv-x="670" d="M378 0V14Q402 38 431 71T487 141T530 217T548 293Q548 323 536 343T490 363Q477 363 465 359T442 347Q455 343 463 333T471 309Q471 292 460 282T432 271Q415 271 403 283T390 312Q390 332 401 346T430 369T467 382T503 386Q525 386 546 381T585 365T613 335T624 292Q624 260 605 227T559 162T502 104T450 57H590L618 103H629V0H378ZM41 298V310L96 327V636L42 659V671L164 684V327L218 310V298H41ZM117 -14L77 12L489 640L528 615L117 -14Z"  />
<glyph unicode="&#xBE;" horiz-adv-x="670" d="M449 0V12L511 29V93H350V105L565 386H579V142H631V93H579V29L636 12V0H449ZM178 -14L138 12L550 640L589 615L178 -14ZM281 392Q281 365 269 345T237 311T193 292T145 285Q129 285 110 289T75 301T47 323T35 357Q35 374 46 385T74 397Q90 397 101 388T112 361Q112 332 83 322Q95 313 110 310T139 307Q174 307 192 329T210 384Q210 410 200 426T173 453T135 468T92 476V492Q113 494 132 500T165 518T187 546T196 586Q196 615 182 637T135 659Q124 659 114 656T95 646Q123 638 123 609Q123 593 112 584T86 574Q69 574 58 585T47 613Q47 632 58 646T86 668T122 680T156 684Q177 684 197 678T232 660T257 631T267 589Q267 548 239 522T172 487V485Q193 483 212 478T247 461T272 433T281 392ZM511 278L411 142H511V278Z"  />
<glyph unicode="&#xBF;" horiz-adv-x="386" d="M260 424Q260 398 242 381T199 364Q174 364 157 381T139 424Q139 449 156 467T199 485Q225 485 242 468T260 424ZM366 -103Q366 -133 349 -154T306 -187T251 -206T197 -212Q167 -212 135 -205T76 -183T32 -142T15 -81Q15 -45 28 -16T62 40T105 90T149 139T182 193T196 255V268L211 271Q225 250 232 228T239 181Q239 140 220 107T178 41T136 -24T117 -97Q117 -139 144 -160T210 -182Q232 -182 253 -176T292 -156Q271 -148 259 -134T247 -96Q247 -72 264 -56T305 -40Q332 -40 349 -58T366 -103Z"  />
<glyph unicode="&#xC0;" horiz-adv-x="658" d="M399 0V10L471 40L396 235H194L130 42L203 10V0H5V10L74 43L313 678H339L588 42L653 10V0H399ZM289 517L204 264H385L289 517ZM364 697L226 850H335L385 697H364Z"  />
<glyph unicode="&#xC1;" horiz-adv-x="658" d="M399 0V10L471 40L396 235H194L130 42L203 10V0H5V10L74 43L313 678H339L588 42L653 10V0H399ZM289 517L204 264H385L289 517ZM280 697H259L310 850H418L280 697Z"  />
<glyph unicode="&#xC2;" horiz-adv-x="658" d="M399 0V10L471 40L396 235H194L130 42L203 10V0H5V10L74 43L313 678H339L588 42L653 10V0H399ZM289 517L204 264H385L289 517ZM404 697L321 767L238 697H211L313 857H329L431 697H404Z"  />
<glyph unicode="&#xC3;" horiz-adv-x="658" d="M399 0V10L471 40L396 235H194L130 42L203 10V0H5V10L74 43L313 678H339L588 42L653 10V0H399ZM289 517L204 264H385L289 517ZM469 816Q466 797 462 778T449 744T426 720T388 710Q370 710 352 716T315 730T280 744T247 751Q226 751 215 740T196 709L176 714Q180 731 185 749T200 782T223 806T258 816Q277 816 294 810T329 797T365 783T401 777Q423 777 433 789T450 821L469 816H469Z"  />
<glyph unicode="&#xC4;" horiz-adv-x="658" d="M399 0V10L471 40L396 235H194L130 42L203 10V0H5V10L74 43L313 678H339L588 42L653 10V0H399ZM289 517L204 264H385L289 517ZM468 782Q468 759 451 741T410 723Q386 723 369 740T351 782Q351 806 368 823T410 840Q433 840 450 823T468 782ZM294 782Q294 759 277 741T236 723Q212 723 195 740T177 782Q177 806 194 823T236 840Q259 840 276 823T294 782Z"  />
<glyph unicode="&#xC5;" horiz-adv-x="658" d="M399 0V10L471 40L396 235H194L130 42L203 10V0H5V10L74 43L309 667Q276 672 256 694T236 750Q236 788 261 811T323 834Q360 834 385 811T410 750Q410 719 392 697T343 668L588 42L653 10V0H399ZM354 750Q354 757 353 768T349 790T340 808T323 816Q312 816 306 809T297 791T293 769T292 750Q292 743 293 732T297 711T306 693T323 685Q334 685 340 692T349 710T353 731T354 750ZM289 517L204 264H385L289 517Z"  />
<glyph unicode="&#xC6;" horiz-adv-x="904" d="M360 0V10L440 40V248H249L134 39L205 10V0H5V10L70 40L424 635L363 661V671H844V507H829L797 561Q784 583 772 598T745 623T712 637T667 642L549 644V359Q586 359 616 359T672 365T718 389T757 445H771V238H757Q746 264 735 282T708 311T673 327T625 332L549 333V27L665 29Q715 30 747 46T805 106L844 173H859V0H360ZM440 592L266 277H440V592Z"  />
<glyph unicode="&#xC7;" horiz-adv-x="613" d="M593 52Q535 20 478 4T354 -13L346 -50Q372 -61 394 -80T417 -132Q417 -153 408 -169T385 -196T353 -213T315 -219Q303 -219 289 -217T263 -210T243 -195T234 -170Q234 -156 244 -146T268 -135Q284 -135 294 -144T304 -170Q304 -188 290 -199Q295 -200 300 -200T310 -201Q332 -201 349 -190T366 -154Q366 -140 360 -130T343 -113T321 -101T297 -92L331 -12Q261 -7 205 21T110 95T51 200T30 329Q30 404 55 468T125 581T234 656T374 684Q426 684 475 677T575 657V483H560L524 542Q509 566 496 586T465 620T426 642T373 650Q318 650 271 622Q235 601 211 569T173 500T153 423T147 343Q147 277 163 221T213 125T298 62T421 39Q463 39 504 46T586 67L593 52H593Z"  />
<glyph unicode="&#xC8;" horiz-adv-x="559" d="M20 0V10L94 40V631L20 661V671H499V507H483L448 566Q436 587 424 601T397 624T365 637T322 642L203 644V354Q240 354 270 354T326 360T372 384T411 440H426V234H411Q400 260 389 277T363 306T328 321T280 327L203 329V27L320 29Q371 30 401 46T458 106L499 173H514V0H20ZM340 697L202 850H311L361 697H340Z"  />
<glyph unicode="&#xC9;" horiz-adv-x="559" d="M20 0V10L94 40V631L20 661V671H499V507H483L448 566Q436 587 424 601T397 624T365 637T322 642L203 644V354Q240 354 270 354T326 360T372 384T411 440H426V234H411Q400 260 389 277T363 306T328 321T280 327L203 329V27L320 29Q371 30 401 46T458 106L499 173H514V0H20ZM244 697H223L274 850H382L244 697Z"  />
<glyph unicode="&#xCA;" horiz-adv-x="559" d="M20 0V10L94 40V631L20 661V671H499V507H483L448 566Q436 587 424 601T397 624T365 637T322 642L203 644V354Q240 354 270 354T326 360T372 384T411 440H426V234H411Q400 260 389 277T363 306T328 321T280 327L203 329V27L320 29Q371 30 401 46T458 106L499 173H514V0H20ZM379 697L296 767L213 697H186L288 857H304L406 697H379Z"  />
<glyph unicode="&#xCB;" horiz-adv-x="559" d="M20 0V10L94 40V631L20 661V671H499V507H483L448 566Q436 587 424 601T397 624T365 637T322 642L203 644V354Q240 354 270 354T326 360T372 384T411 440H426V234H411Q400 260 389 277T363 306T328 321T280 327L203 329V27L320 29Q371 30 401 46T458 106L499 173H514V0H20ZM425 782Q425 759 408 741T367 723Q343 723 326 740T308 782Q308 806 325 823T367 840Q390 840 407 823T425 782ZM251 782Q251 759 234 741T193 723Q169 723 152 740T134 782Q134 806 151 823T193 840Q216 840 233 823T251 782Z"  />
<glyph unicode="&#xCC;" horiz-adv-x="298" d="M20 0V10L95 40V631L20 661V671H278V661L204 631V40L278 10V0H20ZM207 697L69 850H178L228 697H207Z"  />
<glyph unicode="&#xCD;" horiz-adv-x="298" d="M20 0V10L95 40V631L20 661V671H278V661L204 631V40L278 10V0H20ZM100 697H79L130 850H238L100 697Z"  />
<glyph unicode="&#xCE;" horiz-adv-x="298" d="M20 0V10L95 40V631L20 661V671H278V661L204 631V40L278 10V0H20ZM228 696L145 766L62 696H35L137 856H153L255 696H228Z"  />
<glyph unicode="&#xCF;" horiz-adv-x="298" d="M20 0V10L95 40V631L20 661V671H278V661L204 631V40L278 10V0H20ZM297 782Q297 759 280 741T239 723Q215 723 198 740T180 782Q180 806 197 823T239 840Q262 840 279 823T297 782ZM123 782Q123 759 106 741T65 723Q41 723 24 740T6 782Q6 806 23 823T65 840Q88 840 105 823T123 782Z"  />
<glyph unicode="&#xD0;" horiz-adv-x="686" d="M656 347Q656 270 630 206T557 97T446 26T305 0H20V10L95 40V320H20V359H95V631L20 661V671H288Q366 671 433 652T549 594T627 493T656 347ZM538 347Q538 410 522 462T474 554T394 616T279 642Q260 643 242 643T204 644V359H379V320H204V26Q226 27 248 27T292 29Q361 32 408 59T484 129T525 229T538 347Z"  />
<glyph unicode="&#xD1;" horiz-adv-x="689" d="M599 628V-9H564L140 543V44L215 10V0H24V10L94 44V631L20 661V671H174L554 186V627L478 660V670H669V660L599 628ZM495 817Q492 798 488 779T475 745T452 721T414 711Q396 711 378 717T341 731T306 745T273 752Q252 752 241 741T222 710L202 715Q206 732 211 750T226 783T249 807T284 817Q303 817 320 811T355 798T391 784T427 778Q449 778 459 790T476 822L495 817H495Z"  />
<glyph unicode="&#xD2;" horiz-adv-x="731" d="M701 334Q701 260 677 197T609 87T502 14T365 -13Q290 -13 229 13T123 87T54 197T30 334Q30 407 54 471T122 582T228 657T365 684Q441 684 503 657T609 583T677 472T701 334ZM583 334Q583 386 573 442T538 544T471 620T365 650Q302 650 260 620T193 544T158 442T148 334Q148 282 158 227T193 126T260 51T365 21Q428 21 470 50T537 125T572 226T583 334ZM407 697L269 850H378L428 697H407Z"  />
<glyph unicode="&#xD3;" horiz-adv-x="731" d="M701 334Q701 260 677 197T609 87T502 14T365 -13Q290 -13 229 13T123 87T54 197T30 334Q30 407 54 471T122 582T228 657T365 684Q441 684 503 657T609 583T677 472T701 334ZM583 334Q583 386 573 442T538 544T471 620T365 650Q302 650 260 620T193 544T158 442T148 334Q148 282 158 227T193 126T260 51T365 21Q428 21 470 50T537 125T572 226T583 334ZM318 697H297L348 850H456L318 697Z"  />
<glyph unicode="&#xD4;" horiz-adv-x="731" d="M701 334Q701 260 677 197T609 87T502 14T365 -13Q290 -13 229 13T123 87T54 197T30 334Q30 407 54 471T122 582T228 657T365 684Q441 684 503 657T609 583T677 472T701 334ZM583 334Q583 386 573 442T538 544T471 620T365 650Q302 650 260 620T193 544T158 442T148 334Q148 282 158 227T193 126T260 51T365 21Q428 21 470 50T537 125T572 226T583 334ZM447 697L364 767L281 697H254L356 857H372L474 697H447Z"  />
<glyph unicode="&#xD5;" horiz-adv-x="731" d="M701 334Q701 260 677 197T609 87T502 14T365 -13Q290 -13 229 13T123 87T54 197T30 334Q30 407 54 471T122 582T228 657T365 684Q441 684 503 657T609 583T677 472T701 334ZM583 334Q583 386 573 442T538 544T471 620T365 650Q302 650 260 620T193 544T158 442T148 334Q148 282 158 227T193 126T260 51T365 21Q428 21 470 50T537 125T572 226T583 334ZM516 815Q513 796 509 777T496 743T473 719T435 709Q417 709 399 715T362 729T327 743T294 750Q273 750 262 739T243 708L223 713Q227 730 232 748T247 781T270 805T305 815Q324 815 341 809T376 796T412 782T448 776Q470 776 480 788T497 820L516 815H516Z"  />
<glyph unicode="&#xD6;" horiz-adv-x="731" d="M701 334Q701 260 677 197T609 87T502 14T365 -13Q290 -13 229 13T123 87T54 197T30 334Q30 407 54 471T122 582T228 657T365 684Q441 684 503 657T609 583T677 472T701 334ZM583 334Q583 386 573 442T538 544T471 620T365 650Q302 650 260 620T193 544T158 442T148 334Q148 282 158 227T193 126T260 51T365 21Q428 21 470 50T537 125T572 226T583 334ZM513 782Q513 759 496 741T455 723Q431 723 414 740T396 782Q396 806 413 823T455 840Q478 840 495 823T513 782ZM339 782Q339 759 322 741T281 723Q257 723 240 740T222 782Q222 806 239 823T281 840Q304 840 321 823T339 782Z"  />
<glyph unicode="&#xD7;" horiz-adv-x="408" d="M361 125Q322 166 283 206T204 287Q164 246 125 206T46 125L13 158Q53 199 92 239T171 321Q131 362 92 402T13 483L47 516Q86 475 125 435T204 354Q243 395 282 435T361 516L394 483Q354 442 315 402T236 321Q276 280 315 240T395 158L361 125Z"  />
<glyph unicode="&#xD8;" horiz-adv-x="731" d="M701 334Q701 260 677 197T609 87T502 14T365 -13Q306 -13 251 4T150 60L89 -13L57 15L120 89Q75 139 53 203T30 334Q30 407 54 471T122 582T228 657T365 684Q420 684 471 669T568 620L631 694L663 668L599 592Q650 541 675 474T701 334ZM524 567Q466 650 365 650Q302 650 260 620T193 544T158 442T148 334Q148 289 154 245T178 158L524 567ZM583 334Q583 384 575 434T546 529L198 116Q227 70 269 46T365 21Q428 21 470 50T537 125T572 226T583 334Z"  />
<glyph unicode="&#xD9;" horiz-adv-x="648" d="M568 627V298Q568 268 567 238T560 179T543 123T513 71Q481 29 434 8T334 -13Q213 -13 149 51T85 236V631L10 661V671H267V661L194 631V243Q194 201 202 165T228 101T278 59T356 43Q412 43 445 68T495 133T518 219T523 309V627L452 660V670H638V660L568 627ZM392 697L254 850H363L413 697H392Z"  />
<glyph unicode="&#xDA;" horiz-adv-x="648" d="M568 627V298Q568 268 567 238T560 179T543 123T513 71Q481 29 434 8T334 -13Q213 -13 149 51T85 236V631L10 661V671H267V661L194 631V243Q194 201 202 165T228 101T278 59T356 43Q412 43 445 68T495 133T518 219T523 309V627L452 660V670H638V660L568 627ZM291 697H270L321 850H429L291 697Z"  />
<glyph unicode="&#xDB;" horiz-adv-x="648" d="M568 627V298Q568 268 567 238T560 179T543 123T513 71Q481 29 434 8T334 -13Q213 -13 149 51T85 236V631L10 661V671H267V661L194 631V243Q194 201 202 165T228 101T278 59T356 43Q412 43 445 68T495 133T518 219T523 309V627L452 660V670H638V660L568 627ZM422 697L339 767L256 697H229L331 857H347L449 697H422Z"  />
<glyph unicode="&#xDC;" horiz-adv-x="648" d="M568 627V298Q568 268 567 238T560 179T543 123T513 71Q481 29 434 8T334 -13Q213 -13 149 51T85 236V631L10 661V671H267V661L194 631V243Q194 201 202 165T228 101T278 59T356 43Q412 43 445 68T495 133T518 219T523 309V627L452 660V670H638V660L568 627ZM483 782Q483 759 466 741T425 723Q401 723 384 740T366 782Q366 806 383 823T425 840Q448 840 465 823T483 782ZM309 782Q309 759 292 741T251 723Q227 723 210 740T192 782Q192 806 209 823T251 840Q274 840 291 823T309 782Z"  />
<glyph unicode="&#xDD;" horiz-adv-x="599" d="M529 631L365 328V40L449 10V0H171V10L256 40V321L84 629L5 661V671H285V661L197 631L348 368L467 631L398 661V671H594V661L529 631ZM271 697H250L301 850H409L271 697Z"  />
<glyph unicode="&#xDE;" horiz-adv-x="555" d="M533 332Q533 281 509 244T446 181T362 143T271 130Q254 130 237 130T203 132V40L288 10V0H20V10L94 40V631L20 661V671H278V661L203 631V534H273Q322 534 369 524T452 489T511 427T533 332ZM415 331Q415 367 407 398T382 452T337 489T271 505Q254 506 237 506T203 507V158Q214 159 225 159T247 160Q324 165 369 208T415 331Z"  />
<glyph unicode="&#xDF;" horiz-adv-x="524" d="M510 120Q510 88 497 63T462 21T413 -4T355 -13Q337 -13 317 -9T278 5T248 30T236 68Q236 90 251 105T288 120Q308 120 323 105T339 69Q339 38 310 24Q320 18 331 16T353 14Q386 14 405 34T424 87Q424 125 399 158T343 221T287 279T261 337Q261 355 271 371T296 402T327 427T358 447Q358 468 356 505T346 577T319 639T269 665Q245 665 229 652T202 619T187 573T179 521T177 472T177 432V0H9V10L76 39V451Q76 499 86 543T119 620T180 674T271 694Q316 694 350 678T407 634T443 569T458 490Q438 476 420 463T381 435Q367 425 355 413T343 382Q343 361 369 334T426 273T484 201T510 120Z"  />
<glyph unicode="&#xE0;" horiz-adv-x="441" d="M441 28Q418 11 392 0T336 -11Q312 -11 292 0T267 37Q239 17 207 2T140 -13Q86 -13 52 15T17 100Q17 143 43 173T106 222T187 252T263 268V305Q263 317 263 333T262 366T258 399T249 426Q238 447 220 454T178 462Q157 462 137 456T99 437Q120 432 132 417T144 379Q144 356 128 342T88 327Q63 327 47 343T31 384Q31 415 49 435T94 469T151 487T206 493Q253 493 283 482T332 449T357 393T364 317V86Q364 66 369 52T398 37Q407 37 416 38T435 41L441 28ZM263 247Q238 241 213 230T166 203T132 163T119 110Q119 77 136 56T189 34Q210 34 227 40T263 55V247ZM263 541L125 694H234L284 541H263Z"  />
<glyph unicode="&#xE1;" horiz-adv-x="441" d="M441 28Q418 11 392 0T336 -11Q312 -11 292 0T267 37Q239 17 207 2T140 -13Q86 -13 52 15T17 100Q17 143 43 173T106 222T187 252T263 268V305Q263 317 263 333T262 366T258 399T249 426Q238 447 220 454T178 462Q157 462 137 456T99 437Q120 432 132 417T144 379Q144 356 128 342T88 327Q63 327 47 343T31 384Q31 415 49 435T94 469T151 487T206 493Q253 493 283 482T332 449T357 393T364 317V86Q364 66 369 52T398 37Q407 37 416 38T435 41L441 28ZM263 247Q238 241 213 230T166 203T132 163T119 110Q119 77 136 56T189 34Q210 34 227 40T263 55V247ZM165 541H144L195 694H303L165 541Z"  />
<glyph unicode="&#xE2;" horiz-adv-x="441" d="M441 28Q418 11 392 0T336 -11Q312 -11 292 0T267 37Q239 17 207 2T140 -13Q86 -13 52 15T17 100Q17 143 43 173T106 222T187 252T263 268V305Q263 317 263 333T262 366T258 399T249 426Q238 447 220 454T178 462Q157 462 137 456T99 437Q120 432 132 417T144 379Q144 356 128 342T88 327Q63 327 47 343T31 384Q31 415 49 435T94 469T151 487T206 493Q253 493 283 482T332 449T357 393T364 317V86Q364 66 369 52T398 37Q407 37 416 38T435 41L441 28ZM263 247Q238 241 213 230T166 203T132 163T119 110Q119 77 136 56T189 34Q210 34 227 40T263 55V247ZM296 541L213 611L130 541H103L205 701H221L323 541H296Z"  />
<glyph unicode="&#xE3;" horiz-adv-x="441" d="M441 28Q418 11 392 0T336 -11Q312 -11 292 0T267 37Q239 17 207 2T140 -13Q86 -13 52 15T17 100Q17 143 43 173T106 222T187 252T263 268V305Q263 317 263 333T262 366T258 399T249 426Q238 447 220 454T178 462Q157 462 137 456T99 437Q120 432 132 417T144 379Q144 356 128 342T88 327Q63 327 47 343T31 384Q31 415 49 435T94 469T151 487T206 493Q253 493 283 482T332 449T357 393T364 317V86Q364 66 369 52T398 37Q407 37 416 38T435 41L441 28ZM263 247Q238 241 213 230T166 203T132 163T119 110Q119 77 136 56T189 34Q210 34 227 40T263 55V247ZM355 668Q352 649 348 630T335 596T312 572T274 562Q256 562 238 568T201 582T166 596T133 603Q112 603 101 592T82 561L62 566Q66 583 71 601T86 634T109 658T144 668Q163 668 180 662T215 649T251 635T287 629Q309 629 319 641T336 673L355 668H355Z"  />
<glyph unicode="&#xE4;" horiz-adv-x="441" d="M441 28Q418 11 392 0T336 -11Q312 -11 292 0T267 37Q239 17 207 2T140 -13Q86 -13 52 15T17 100Q17 143 43 173T106 222T187 252T263 268V305Q263 317 263 333T262 366T258 399T249 426Q238 447 220 454T178 462Q157 462 137 456T99 437Q120 432 132 417T144 379Q144 356 128 342T88 327Q63 327 47 343T31 384Q31 415 49 435T94 469T151 487T206 493Q253 493 283 482T332 449T357 393T364 317V86Q364 66 369 52T398 37Q407 37 416 38T435 41L441 28ZM263 247Q238 241 213 230T166 203T132 163T119 110Q119 77 136 56T189 34Q210 34 227 40T263 55V247ZM351 634Q351 611 334 593T293 575Q269 575 252 592T234 634Q234 658 251 675T293 692Q316 692 333 675T351 634ZM177 634Q177 611 160 593T119 575Q95 575 78 592T60 634Q60 658 77 675T119 692Q142 692 159 675T177 634Z"  />
<glyph unicode="&#xE5;" horiz-adv-x="441" d="M441 28Q418 11 392 0T336 -11Q312 -11 292 0T267 37Q239 17 207 2T140 -13Q86 -13 52 15T17 100Q17 143 43 173T106 222T187 252T263 268V305Q263 317 263 333T262 366T258 399T249 426Q238 447 220 454T178 462Q157 462 137 456T99 437Q120 432 132 417T144 379Q144 356 128 342T88 327Q63 327 47 343T31 384Q31 415 49 435T94 469T151 487T206 493Q253 493 283 482T332 449T357 393T364 317V86Q364 66 369 52T398 37Q407 37 416 38T435 41L441 28ZM263 247Q238 241 213 230T166 203T132 163T119 110Q119 77 136 56T189 34Q210 34 227 40T263 55V247ZM294 625Q294 587 269 564T207 541Q170 541 145 564T120 625Q120 663 145 686T207 709Q244 709 269 686T294 625ZM238 625Q238 632 237 643T233 665T224 683T207 691Q196 691 190 684T181 666T177 644T176 625Q176 618 177 607T181 586T190 568T207 560Q218 560 224 567T233 585T237 606T238 625Z"  />
<glyph unicode="&#xE6;" horiz-adv-x="672" d="M655 245H373Q374 207 382 170T410 104T459 57T533 39Q591 39 648 56L654 44Q611 16 568 2T473 -13Q420 -13 381 8T316 64T277 143T264 236V247Q240 241 215 230T168 203T134 164T120 114Q120 73 141 54T203 34Q223 34 241 37T278 47L283 36Q252 14 216 1T141 -13Q88 -13 53 15T17 100Q17 143 43 172T107 221T188 252T264 268V305Q264 317 264 333T263 366T259 399T250 426Q239 447 221 454T180 462Q159 462 139 456T101 437Q122 432 134 417T146 379Q146 356 130 342T90 327Q65 327 49 343T33 384Q33 414 50 434T91 468T144 487T197 493Q237 493 273 480T331 430Q386 493 469 493Q520 493 555 473T613 418T645 342T655 254V245ZM547 276Q547 296 545 328T535 390T510 442T464 464Q434 464 416 441T389 386T376 320T373 265L547 276Z"  />
<glyph unicode="&#xE7;" horiz-adv-x="414" d="M399 44Q358 18 318 4T230 -13L222 -50Q248 -61 270 -80T293 -132Q293 -153 284 -169T261 -196T229 -213T191 -219Q179 -219 165 -217T139 -210T119 -195T110 -170Q110 -156 120 -146T144 -135Q160 -135 170 -144T180 -170Q180 -188 166 -199Q171 -200 176 -200T186 -201Q208 -201 225 -190T242 -154Q242 -140 236 -130T219 -113T197 -101T173 -92L206 -13Q157 -10 121 11T60 65T23 140T10 228Q10 280 26 327T72 412T147 471T246 493Q268 493 293 488T341 472T377 443T392 397Q392 373 376 356T334 338Q310 338 292 353T274 394Q274 434 312 447Q298 456 283 459T252 462Q212 462 186 440T145 385T125 315T119 246Q119 208 127 171T154 105T202 58T276 39Q334 39 393 56L399 44H399Z"  />
<glyph unicode="&#xE8;" horiz-adv-x="418" d="M401 245H119Q120 207 128 170T156 104T205 57T279 39Q337 39 394 56L400 44Q357 16 314 2T219 -13Q166 -13 127 8T62 64T23 143T10 236Q10 283 22 329T59 411T123 470T215 493Q266 493 301 473T359 418T391 342T401 254V245ZM293 276Q293 296 291 328T281 390T256 442T210 464Q180 464 162 441T135 386T122 320T119 265L293 276ZM272 541L134 694H243L293 541H272Z"  />
<glyph unicode="&#xE9;" horiz-adv-x="418" d="M401 245H119Q120 207 128 170T156 104T205 57T279 39Q337 39 394 56L400 44Q357 16 314 2T219 -13Q166 -13 127 8T62 64T23 143T10 236Q10 283 22 329T59 411T123 470T215 493Q266 493 301 473T359 418T391 342T401 254V245ZM293 276Q293 296 291 328T281 390T256 442T210 464Q180 464 162 441T135 386T122 320T119 265L293 276ZM168 541H147L198 694H306L168 541Z"  />
<glyph unicode="&#xEA;" horiz-adv-x="418" d="M401 245H119Q120 207 128 170T156 104T205 57T279 39Q337 39 394 56L400 44Q357 16 314 2T219 -13Q166 -13 127 8T62 64T23 143T10 236Q10 283 22 329T59 411T123 470T215 493Q266 493 301 473T359 418T391 342T401 254V245ZM293 276Q293 296 291 328T281 390T256 442T210 464Q180 464 162 441T135 386T122 320T119 265L293 276ZM294 541L211 611L128 541H101L203 701H219L321 541H294Z"  />
<glyph unicode="&#xEB;" horiz-adv-x="418" d="M401 245H119Q120 207 128 170T156 104T205 57T279 39Q337 39 394 56L400 44Q357 16 314 2T219 -13Q166 -13 127 8T62 64T23 143T10 236Q10 283 22 329T59 411T123 470T215 493Q266 493 301 473T359 418T391 342T401 254V245ZM293 276Q293 296 291 328T281 390T256 442T210 464Q180 464 162 441T135 386T122 320T119 265L293 276ZM356 634Q356 611 339 593T298 575Q274 575 257 592T239 634Q239 658 256 675T298 692Q321 692 338 675T356 634ZM182 634Q182 611 165 593T124 575Q100 575 83 592T65 634Q65 658 82 675T124 692Q147 692 164 675T182 634Z"  />
<glyph unicode="&#xEC;" horiz-adv-x="259" d="M15 0V10L81 39V415L15 450V459L183 495V39L249 10V0H15ZM180 541L42 694H151L201 541H180Z"  />
<glyph unicode="&#xED;" horiz-adv-x="259" d="M15 0V10L81 39V415L15 450V459L183 495V39L249 10V0H15ZM79 541H58L109 694H217L79 541Z"  />
<glyph unicode="&#xEE;" horiz-adv-x="259" d="M15 0V10L81 39V415L15 450V459L183 495V39L249 10V0H15ZM214 542L131 612L48 542H21L123 702H139L241 542H214Z"  />
<glyph unicode="&#xEF;" horiz-adv-x="259" d="M15 0V10L81 39V415L15 450V459L183 495V39L249 10V0H15ZM276 634Q276 611 259 593T218 575Q194 575 177 592T159 634Q159 658 176 675T218 692Q241 692 258 675T276 634ZM102 634Q102 611 85 593T44 575Q20 575 3 592T-15 634Q-15 658 2 675T44 692Q67 692 84 675T102 634Z"  />
<glyph unicode="&#xF0;" horiz-adv-x="461" d="M451 248Q451 197 438 150T397 67T328 9T230 -13Q176 -13 135 8T67 64T25 144T10 240Q10 301 29 355Q39 382 54 406T91 450T138 481T195 493Q229 493 255 481T305 445V446Q277 519 232 583L105 520L89 554L209 614Q197 631 185 646T160 679L173 694Q192 679 210 664T246 632L367 692L383 659L275 604Q311 565 343 526T399 443T437 352T451 248ZM341 240Q341 323 320 403Q299 423 276 438T223 453Q188 453 168 429T137 371T123 301T120 240Q120 214 123 176T137 102T170 42T230 17Q268 17 290 41T323 101T338 175T341 240Z"  />
<glyph unicode="&#xF1;" horiz-adv-x="534" d="M298 0V10L356 39V309Q356 329 356 352T349 394T329 425T286 438Q260 438 233 428T183 404V39L241 10V0H15V10L82 39V420L15 455V464L183 495V426Q214 452 255 473T338 494Q366 494 392 483T434 448Q450 422 453 386T457 320V39L524 10V0H298ZM419 668Q416 649 412 630T399 596T376 572T338 562Q320 562 302 568T265 582T230 596T197 603Q176 603 165 592T146 561L126 566Q130 583 135 601T150 634T173 658T208 668Q227 668 244 662T279 649T315 635T351 629Q373 629 383 641T400 673L419 668H419Z"  />
<glyph unicode="&#xF2;" horiz-adv-x="461" d="M451 240Q451 190 437 144T395 63T326 8T230 -13Q176 -13 135 8T67 64T25 144T10 240Q10 290 24 335T66 416T135 472T230 493Q284 493 325 473T395 417T437 336T451 240ZM341 240Q341 267 338 305T324 378T290 439T230 464Q192 464 171 439T138 379T123 305T120 240Q120 214 123 176T137 102T170 42T230 17Q268 17 290 41T323 101T338 175T341 240ZM287 541L149 694H258L308 541H287Z"  />
<glyph unicode="&#xF3;" horiz-adv-x="461" d="M451 240Q451 190 437 144T395 63T326 8T230 -13Q176 -13 135 8T67 64T25 144T10 240Q10 290 24 335T66 416T135 472T230 493Q284 493 325 473T395 417T437 336T451 240ZM341 240Q341 267 338 305T324 378T290 439T230 464Q192 464 171 439T138 379T123 305T120 240Q120 214 123 176T137 102T170 42T230 17Q268 17 290 41T323 101T338 175T341 240ZM187 541H166L217 694H325L187 541Z"  />
<glyph unicode="&#xF4;" horiz-adv-x="461" d="M451 240Q451 190 437 144T395 63T326 8T230 -13Q176 -13 135 8T67 64T25 144T10 240Q10 290 24 335T66 416T135 472T230 493Q284 493 325 473T395 417T437 336T451 240ZM341 240Q341 267 338 305T324 378T290 439T230 464Q192 464 171 439T138 379T123 305T120 240Q120 214 123 176T137 102T170 42T230 17Q268 17 290 41T323 101T338 175T341 240ZM320 542L237 612L154 542H127L229 702H245L347 542H320Z"  />
<glyph unicode="&#xF5;" horiz-adv-x="461" d="M451 240Q451 190 437 144T395 63T326 8T230 -13Q176 -13 135 8T67 64T25 144T10 240Q10 290 24 335T66 416T135 472T230 493Q284 493 325 473T395 417T437 336T451 240ZM341 240Q341 267 338 305T324 378T290 439T230 464Q192 464 171 439T138 379T123 305T120 240Q120 214 123 176T137 102T170 42T230 17Q268 17 290 41T323 101T338 175T341 240ZM383 668Q380 649 376 630T363 596T340 572T302 562Q284 562 266 568T229 582T194 596T161 603Q140 603 129 592T110 561L90 566Q94 583 99 601T114 634T137 658T172 668Q191 668 208 662T243 649T279 635T315 629Q337 629 347 641T364 673L383 668H383Z"  />
<glyph unicode="&#xF6;" horiz-adv-x="461" d="M451 240Q451 190 437 144T395 63T326 8T230 -13Q176 -13 135 8T67 64T25 144T10 240Q10 290 24 335T66 416T135 472T230 493Q284 493 325 473T395 417T437 336T451 240ZM341 240Q341 267 338 305T324 378T290 439T230 464Q192 464 171 439T138 379T123 305T120 240Q120 214 123 176T137 102T170 42T230 17Q268 17 290 41T323 101T338 175T341 240ZM381 634Q381 611 364 593T323 575Q299 575 282 592T264 634Q264 658 281 675T323 692Q346 692 363 675T381 634ZM207 634Q207 611 190 593T149 575Q125 575 108 592T90 634Q90 658 107 675T149 692Q172 692 189 675T207 634Z"  />
<glyph unicode="&#xF7;" horiz-adv-x="408" d="M252 474Q252 454 238 440T203 426Q183 426 169 440T155 474Q155 494 169 508T203 523Q223 523 237 509T252 474ZM29 298V346H379V298H29ZM252 167Q252 147 238 133T203 119Q183 119 169 133T155 167Q155 187 169 201T203 216Q223 216 237 202T252 167Z"  />
<glyph unicode="&#xF8;" horiz-adv-x="461" d="M401 408Q427 372 439 329T451 240Q451 190 437 144T395 63T326 8T230 -13Q191 -13 155 -1T90 38L31 -32L3 -7L64 66Q35 103 23 148T10 240Q10 290 24 335T66 416T135 472T230 493Q272 493 309 480T376 437L434 506L463 482L401 408ZM324 376Q313 410 291 437T230 464Q192 464 171 439T138 379T123 305T120 240Q120 215 121 191T127 141L324 376ZM341 240Q341 263 340 285T335 330L139 97Q150 65 171 41T230 17Q268 17 290 41T323 101T338 175T341 240Z"  />
<glyph unicode="&#xF9;" horiz-adv-x="522" d="M346 -14V55Q314 29 274 8T191 -13Q163 -13 137 -2T95 33Q87 46 82 62T75 95T73 129T72 161V415L5 450V459L173 495V172Q173 152 173 129T180 87T200 56T243 43Q269 43 295 53T344 76V415L278 450V459L446 495V53L512 22V12L346 -14ZM296 541L158 694H267L317 541H296Z"  />
<glyph unicode="&#xFA;" horiz-adv-x="522" d="M346 -14V55Q314 29 274 8T191 -13Q163 -13 137 -2T95 33Q87 46 82 62T75 95T73 129T72 161V415L5 450V459L173 495V172Q173 152 173 129T180 87T200 56T243 43Q269 43 295 53T344 76V415L278 450V459L446 495V53L512 22V12L346 -14ZM209 541H188L239 694H347L209 541Z"  />
<glyph unicode="&#xFB;" horiz-adv-x="522" d="M346 -14V55Q314 29 274 8T191 -13Q163 -13 137 -2T95 33Q87 46 82 62T75 95T73 129T72 161V415L5 450V459L173 495V172Q173 152 173 129T180 87T200 56T243 43Q269 43 295 53T344 76V415L278 450V459L446 495V53L512 22V12L346 -14ZM341 542L258 612L175 542H148L250 702H266L368 542H341Z"  />
<glyph unicode="&#xFC;" horiz-adv-x="522" d="M346 -14V55Q314 29 274 8T191 -13Q163 -13 137 -2T95 33Q87 46 82 62T75 95T73 129T72 161V415L5 450V459L173 495V172Q173 152 173 129T180 87T200 56T243 43Q269 43 295 53T344 76V415L278 450V459L446 495V53L512 22V12L346 -14ZM398 634Q398 611 381 593T340 575Q316 575 299 592T281 634Q281 658 298 675T340 692Q363 692 380 675T398 634ZM224 634Q224 611 207 593T166 575Q142 575 125 592T107 634Q107 658 124 675T166 692Q189 692 206 675T224 634Z"  />
<glyph unicode="&#xFD;" horiz-adv-x="490" d="M429 440L231 -70Q224 -88 215 -108T194 -145T164 -174T124 -185Q99 -185 81 -169T62 -127Q62 -104 77 -87T117 -70Q155 -70 171 -105L235 6L65 443L5 470V480H241V470L173 444L284 144L380 441L325 470V480H485V470L429 440ZM212 541H191L242 694H350L212 541Z"  />
<glyph unicode="&#xFE;" horiz-adv-x="485" d="M475 250Q475 197 462 150T420 67T350 10T250 -11Q232 -11 214 -9T178 -2V-134L253 -162V-172H10V-162L76 -134V614L10 649V658L178 694V426Q202 457 234 475T306 493Q354 493 386 470T438 412T466 333T475 250ZM365 244Q365 267 362 301T350 368T321 423T268 446Q241 446 219 432T178 400V61Q192 39 211 27T257 15Q294 15 315 41T348 103T362 179T365 244Z"  />
<glyph unicode="&#xFF;" horiz-adv-x="490" d="M429 440L231 -70Q224 -88 215 -108T194 -145T164 -174T124 -185Q99 -185 81 -169T62 -127Q62 -104 77 -87T117 -70Q155 -70 171 -105L235 6L65 443L5 470V480H241V470L173 444L284 144L380 441L325 470V480H485V470L429 440ZM404 634Q404 611 387 593T346 575Q322 575 305 592T287 634Q287 658 304 675T346 692Q369 692 386 675T404 634ZM230 634Q230 611 213 593T172 575Q148 575 131 592T113 634Q113 658 130 675T172 692Q195 692 212 675T230 634Z"  />
<glyph unicode="&#x131;" horiz-adv-x="259" d="M15 0V10L81 39V415L15 450V459L183 495V39L249 10V0H15Z"  />
<glyph unicode="&#x141;" horiz-adv-x="531" d="M20 0V10L95 40V269L21 213L-5 246L95 322V631L20 661V671H282V661L204 631V404L347 513L373 481L204 352V27L303 30Q331 31 353 35T393 50T427 77T457 118L500 189H516V0H20Z"  />
<glyph unicode="&#x142;" horiz-adv-x="260" d="M183 424V39L250 10V0H15V10L82 39V338L-1 267L-26 296L82 388V614L15 649V659L183 695V474L257 537L282 509L183 424Z"  />
<glyph unicode="&#x152;" horiz-adv-x="944" d="M365 0Q293 0 232 25T125 95T55 201T30 335Q30 407 55 468T125 575T231 645T365 671H884V507H868Q859 522 851 536T833 566Q821 587 809 601T782 624T750 637T707 642Q677 643 648 643T588 644V359Q608 359 626 359T665 360Q691 360 710 364T745 379T772 405T796 445H811V238H796Q785 264 774 282T748 311T713 327T665 332Q645 332 627 332T588 333V27Q617 28 646 28T705 29Q730 30 750 34T786 46T817 69T844 106Q854 123 864 139T884 173H899V0H365ZM479 610Q453 626 424 632T365 639Q303 639 261 611T194 539T158 441T147 335Q147 282 157 229T193 132T260 61T365 33Q394 33 423 38T479 58V610Z"  />
<glyph unicode="&#x153;" horiz-adv-x="750" d="M733 245H451Q452 207 460 170T488 104T537 57T611 39Q669 39 726 56L732 44Q689 16 645 2T550 -13Q499 -13 461 10T393 75Q365 33 324 10T231 -13Q177 -13 136 8T67 64T25 144T10 240Q10 290 24 335T66 416T135 472T231 493Q282 493 323 468T394 402Q421 442 458 467T547 493Q598 493 633 473T691 418T723 342T733 254V245ZM625 276Q625 296 623 328T613 390T587 442T541 464Q511 464 494 441T467 385T454 320T451 265L625 276ZM342 240Q342 267 339 305T325 378T291 439T231 464Q193 464 171 439T138 379T123 305T120 240Q120 213 123 175T137 102T171 42T231 17Q269 17 291 42T324 102T339 175T342 240Z"  />
<glyph unicode="&#x160;" horiz-adv-x="466" d="M441 179Q441 132 422 97T371 38T298 2T214 -10Q169 -10 126 -4T38 13V179H52Q68 153 85 126T125 76T174 39T236 24Q287 24 320 51T353 132Q353 143 352 154T345 177Q337 195 321 211T284 242T243 267T206 288Q174 305 143 325T88 372T50 430T35 503Q35 548 51 582T96 638T163 672T243 684Q284 684 323 679T402 666V500H386Q371 526 356 553T322 602T278 638T219 652Q173 652 148 625T122 553Q122 508 145 477T204 422T281 377T358 330T417 267T441 179ZM239 697H223L121 857H148L231 787L314 857H341L239 697Z"  />
<glyph unicode="&#x161;" horiz-adv-x="367" d="M349 131Q349 95 335 68T298 23T244 -4T181 -13Q146 -13 111 -9T41 5V142H55Q67 125 81 103T113 62T151 29T196 16Q226 16 249 33T272 83Q272 111 255 130T212 166T156 199T100 237T57 286T40 357Q40 391 52 417T87 459T137 484T198 493Q230 493 262 490T325 476V343H311Q300 361 288 382T261 422T227 453T184 466Q153 466 133 450T112 401Q112 372 129 351T173 313T230 279T287 242T331 195T349 131ZM200 534H184L82 694H109L192 624L275 694H302L200 534Z"  />
<glyph unicode="&#x178;" horiz-adv-x="599" d="M529 631L365 328V40L449 10V0H171V10L256 40V321L84 629L5 661V671H285V661L197 631L348 368L467 631L398 661V671H594V661L529 631ZM460 782Q460 759 443 741T402 723Q378 723 361 740T343 782Q343 806 360 823T402 840Q425 840 442 823T460 782ZM286 782Q286 759 269 741T228 723Q204 723 187 740T169 782Q169 806 186 823T228 840Q251 840 268 823T286 782Z"  />
<glyph unicode="&#x17D;" horiz-adv-x="557" d="M30 0V13L390 644Q357 643 324 643T258 642Q232 642 213 637T179 622T150 598T122 562L79 500H64V671H519V658L155 27L290 30Q319 31 344 34T390 46T429 70T464 112L508 182H522V0H30ZM300 697H284L182 857H209L292 787L375 857H402L300 697Z"  />
<glyph unicode="&#x17E;" horiz-adv-x="441" d="M142 28L236 30Q267 31 293 41T338 77L389 146H403V0H25V11L290 453Q261 452 240 452T201 451T172 447T148 439Q128 428 109 406T56 340H44V480H406V470L142 28ZM233 541H217L115 701H142L225 631L308 701H335L233 541Z"  />
<glyph unicode="&#x192;" horiz-adv-x="469" d="M464 555Q464 531 449 515T408 498Q385 498 369 513T352 552Q352 571 363 584T392 603Q375 614 352 614Q326 614 313 601T293 569T287 527T286 486V359H414V321H286V179Q286 137 277 102T247 42T196 2T119 -13Q100 -13 80 -8T44 8T16 35T5 73Q5 97 20 113T61 130Q84 130 100 115T117 76Q117 57 106 44T77 25Q86 19 96 17T117 14Q142 14 155 27T175 59T182 101T183 142V321H74V339Q101 344 128 350T183 361V449Q183 491 192 526T222 586T273 626T350 641Q369 641 389 636T425 620T453 593T464 555Z"  />
<glyph unicode="&#x2C6;" horiz-adv-x="250" d="M202 542L119 612L36 542H9L111 702H127L229 542H202Z"  />
<glyph unicode="&#x2C7;" horiz-adv-x="250" d="M121 534H105L3 694H30L113 624L196 694H223L121 534Z"  />
<glyph unicode="&#x2D8;" horiz-adv-x="308" d="M249 694Q249 665 242 639T219 594T180 562T126 550Q95 550 72 562T34 593T11 639T3 694H63Q64 679 66 659T74 619T93 587T126 573Q147 573 159 586T178 618T187 658T190 694H249H249Z"  />
<glyph unicode="&#x2D9;" horiz-adv-x="110" d="M139 620Q139 589 117 567T64 545Q33 545 11 567T-11 620Q-11 651 11 673T64 695Q95 695 117 673T139 620Z"  />
<glyph unicode="&#x2DA;" horiz-adv-x="174" d="M169 650Q169 612 144 589T82 566Q45 566 20 589T-5 650Q-5 688 20 711T82 734Q119 734 144 711T169 650ZM113 650Q113 657 112 668T108 690T99 708T82 716Q71 716 65 709T56 691T52 669T51 650Q51 643 52 632T56 611T65 593T82 585Q93 585 99 592T108 610T112 631T113 650Z"  />
<glyph unicode="&#x2DB;" horiz-adv-x="153" d="M152 -168Q128 -176 104 -176Q84 -176 65 -171T30 -156T6 -129T-4 -89Q-4 -59 8 -34T42 11H114Q93 -10 75 -35T56 -93Q56 -117 71 -132T110 -148Q129 -148 144 -144Q146 -150 148 -156T152 -168Z"  />
<glyph unicode="&#x2DC;" horiz-adv-x="310" d="M293 668Q290 649 286 630T273 596T250 572T212 562Q194 562 176 568T139 582T104 596T71 603Q50 603 39 592T20 561L0 566Q4 583 9 601T24 634T47 658T82 668Q101 668 118 662T153 649T189 635T225 629Q247 629 257 641T274 673L293 668H293Z"  />
<glyph unicode="&#x2DD;" horiz-adv-x="285" d="M149 541H128L174 694H275L149 541ZM24 541H3L49 694H150L24 541Z"  />
<glyph unicode="&#x394;" horiz-adv-x="718" d="M147 671H626V0H147V671ZM550 623H224L387 379L550 623ZM578 91V580L415 335L578 91ZM550 48L387 292L224 48H550ZM195 91L358 335L195 580V91Z"  />
<glyph unicode="&#x3A9;" horiz-adv-x="718" d="M147 671H626V0H147V671ZM550 623H224L387 379L550 623ZM578 91V580L415 335L578 91ZM550 48L387 292L224 48H550ZM195 91L358 335L195 580V91Z"  />
<glyph unicode="&#x3BC;" horiz-adv-x="718" d="M147 671H626V0H147V671ZM550 623H224L387 379L550 623ZM578 91V580L415 335L578 91ZM550 48L387 292L224 48H550ZM195 91L358 335L195 580V91Z"  />
<glyph unicode="&#x3C0;" horiz-adv-x="718" d="M147 671H626V0H147V671ZM550 623H224L387 379L550 623ZM578 91V580L415 335L578 91ZM550 48L387 292L224 48H550ZM195 91L358 335L195 580V91Z"  />
<glyph unicode="&#x2013;" horiz-adv-x="403" d="M4 256V312H399V256H4Z"  />
<glyph unicode="&#x2014;" horiz-adv-x="806" d="M4 256V312H802V256H4Z"  />
<glyph unicode="&#x2018;" horiz-adv-x="161" d="M141 515Q141 490 124 473T81 456Q52 456 36 476T20 525Q20 550 29 574T52 619T86 659T125 690L136 678Q116 657 102 631T81 576Q107 574 124 558T141 515Z"  />
<glyph unicode="&#x2019;" horiz-adv-x="162" d="M142 620Q142 595 133 571T109 526T75 486T37 455L26 468Q46 490 60 515T81 570Q55 572 38 588T20 630Q20 656 38 672T81 689Q110 689 126 668T142 620Z"  />
<glyph unicode="&#x201A;" horiz-adv-x="161" d="M141 40Q141 14 133 -10T110 -55T76 -95T36 -127L25 -115Q45 -94 59 -68T80 -13Q55 -11 38 5T20 47Q20 73 38 90T81 107Q110 107 125 87T141 40Z"  />
<glyph unicode="&#x201C;" horiz-adv-x="322" d="M20 524Q20 549 29 573T53 618T86 658T125 689L136 676Q116 655 102 629T81 574Q107 572 124 556T141 514Q141 488 124 472T81 455Q52 455 36 475T20 524ZM180 524Q180 549 189 573T213 618T246 658T285 689L296 676Q276 654 262 629T241 574Q267 572 284 556T302 514Q302 488 284 472T241 455Q212 455 196 476T180 524Z"  />
<glyph unicode="&#x201D;" horiz-adv-x="322" d="M302 620Q302 595 293 571T269 526T235 486T197 455L186 468Q206 489 220 515T241 570Q215 572 198 588T181 630Q181 656 198 672T241 689Q270 689 286 669T302 620ZM142 620Q142 595 133 571T109 526T75 486T37 455L26 468Q46 490 60 515T81 570Q55 572 38 588T20 630Q20 656 38 672T81 689Q110 689 126 668T142 620Z"  />
<glyph unicode="&#x201E;" horiz-adv-x="322" d="M302 38Q302 13 293 -11T269 -56T235 -96T197 -127L186 -114Q206 -93 220 -67T241 -12Q215 -10 198 6T181 48Q181 74 198 90T241 107Q270 107 286 87T302 38ZM142 38Q142 13 133 -11T109 -56T75 -96T37 -127L26 -114Q46 -92 60 -67T81 -12Q55 -10 38 6T20 48Q20 74 38 90T81 107Q110 107 126 86T142 38Z"  />
<glyph unicode="&#x2020;" horiz-adv-x="349" d="M334 467Q334 447 321 434T288 421Q268 421 255 434T242 467H194Q181 461 165 453T133 438T99 426T67 421Q47 421 31 433T15 467Q15 487 27 500T60 513Q80 513 93 500T107 467H163L150 527Q148 538 144 553T136 585T129 617T126 643Q126 664 139 679T174 694Q196 694 209 678T222 641Q222 630 219 615T213 585T205 554T198 527L188 482Q208 490 235 501T283 513Q303 513 318 501T334 467ZM181 -82H168L120 355L168 434H181L228 355L181 -82Z"  />
<glyph unicode="&#x2021;" horiz-adv-x="349" d="M334 467Q334 447 321 434T288 421Q268 421 255 434T242 467H194Q181 461 165 453T133 438T99 426T67 421Q47 421 31 433T15 467Q15 487 27 500T60 513Q80 513 93 500T107 467H163L150 527Q148 538 144 553T136 585T129 617T126 643Q126 664 139 679T174 694Q196 694 209 678T222 641Q222 630 219 615T213 585T205 554T198 527L188 482Q208 490 235 501T283 513Q303 513 318 501T334 467ZM181 181H168L131 308L167 434H181L218 308L181 181ZM334 148Q334 126 319 114T283 102Q261 102 235 113T188 133L198 88Q201 76 205 61T212 31T219 0T222 -26Q222 -46 209 -62T174 -79Q153 -79 140 -64T126 -28Q126 -18 129 -3T136 29T144 61T150 88L163 148H107Q106 128 93 115T60 102Q40 102 28 115T15 148Q15 170 31 182T67 194Q82 194 99 189T132 177T165 162T194 148H242Q242 168 255 181T288 194Q308 194 321 181T334 148Z"  />
<glyph unicode="&#x2022;" horiz-adv-x="401" d="M387 339Q387 300 373 267T333 208T273 168T201 153Q162 153 128 167T69 207T29 266T14 339Q14 378 28 411T68 470T128 510T200 525Q239 525 273 511T332 471T372 412T387 339Z"  />
<glyph unicode="&#x2026;" horiz-adv-x="555" d="M535 48Q535 23 517 5T474 -13Q449 -13 431 5T413 48Q413 73 431 90T474 108Q499 108 517 91T535 48ZM339 48Q339 23 321 5T278 -13Q253 -13 235 5T217 48Q217 73 235 90T278 108Q303 108 321 91T339 48ZM142 48Q142 23 124 5T81 -13Q56 -13 38 5T20 48Q20 73 38 90T81 108Q106 108 124 91T142 48Z"  />
<glyph unicode="&#x2030;" horiz-adv-x="1162" d="M1134 181Q1134 148 1126 113T1100 50T1054 4T987 -14Q948 -14 920 4T875 50T849 113T840 181Q840 215 848 250T873 314T918 361T987 380Q1027 380 1055 362T1101 315T1126 251T1134 181ZM777 181Q777 148 769 113T743 50T697 4T630 -14Q591 -14 563 4T518 50T492 113T483 181Q483 215 491 250T516 314T561 361T630 380Q670 380 698 362T744 315T769 251T777 181ZM210 -14L170 12L582 640L621 615L210 -14ZM322 485Q322 452 314 417T288 354T242 308T175 290Q136 290 108 308T63 354T37 417T28 485Q28 519 36 554T61 618T106 665T175 684Q215 684 243 666T289 619T314 555T322 485ZM1053 181Q1053 197 1052 226T1044 284T1025 334T987 356Q963 356 950 335T930 285T923 227T921 181Q921 165 922 136T930 79T949 31T987 10Q1011 10 1024 30T1044 79T1051 136T1053 181ZM696 181Q696 197 695 226T687 284T668 334T630 356Q606 356 593 335T573 285T566 227T564 181Q564 165 565 136T573 79T592 31T630 10Q654 10 667 30T687 79T694 136T696 181ZM241 485Q241 501 240 530T232 588T213 638T175 660Q151 660 138 639T118 589T111 531T109 485Q109 469 110 440T118 383T137 335T175 314Q199 314 212 334T232 383T239 440T241 485Z"  />
<glyph unicode="&#x2039;" horiz-adv-x="244" d="M197 131L40 307L197 480H223L150 308L223 131H197Z"  />
<glyph unicode="&#x203A;" horiz-adv-x="244" d="M46 131H20L94 308L20 480H46L204 307L46 131Z"  />
<glyph unicode="&#x2044;" horiz-adv-x="421" d="M25 -14L-15 12L397 640L436 615L25 -14Z"  />
<glyph unicode="&#x20AC;" horiz-adv-x="591" d="M586 43Q541 17 488 2T383 -13Q324 -13 274 4T184 54T118 133T81 239H0V275H76Q75 283 75 290T75 305Q75 311 75 316T76 328H0V364H79Q88 425 115 476T183 563T277 620T394 640Q421 640 454 634T516 615T565 578T585 521Q585 493 567 476T522 459Q495 459 477 476T458 521Q458 541 469 556T499 580Q476 596 450 602T396 608Q345 608 308 587T245 531T207 453T190 364H476V328H188Q188 314 188 302T190 275H476V239H195Q213 144 271 91T429 37Q507 37 579 59L586 43H586Z"  />
<glyph unicode="&#x2122;" horiz-adv-x="802" d="M641 299V311L682 328V579L562 305H543L418 593V328L459 311V299H348V311L389 328V642L348 660V671H453L576 398L687 671H790V660L749 642V328L790 311V299H641ZM307 569Q301 582 294 596T277 621T256 640T227 650L203 652V328L249 311V299H90V311L136 328V652L113 650Q96 648 84 641T62 622T45 597T31 569H17V671H321V569H307Z"  />
<glyph unicode="&#x2126;" horiz-adv-x="718" d="M147 671H626V0H147V671ZM550 623H224L387 379L550 623ZM578 91V580L415 335L578 91ZM550 48L387 292L224 48H550ZM195 91L358 335L195 580V91Z"  />
<glyph unicode="&#x2202;" horiz-adv-x="718" d="M147 671H626V0H147V671ZM550 623H224L387 379L550 623ZM578 91V580L415 335L578 91ZM550 48L387 292L224 48H550ZM195 91L358 335L195 580V91Z"  />
<glyph unicode="&#x2206;" horiz-adv-x="718" d="M147 671H626V0H147V671ZM550 623H224L387 379L550 623ZM578 91V580L415 335L578 91ZM550 48L387 292L224 48H550ZM195 91L358 335L195 580V91Z"  />
<glyph unicode="&#x220F;" horiz-adv-x="718" d="M147 671H626V0H147V671ZM550 623H224L387 379L550 623ZM578 91V580L415 335L578 91ZM550 48L387 292L224 48H550ZM195 91L358 335L195 580V91Z"  />
<glyph unicode="&#x2211;" horiz-adv-x="718" d="M147 671H626V0H147V671ZM550 623H224L387 379L550 623ZM578 91V580L415 335L578 91ZM550 48L387 292L224 48H550ZM195 91L358 335L195 580V91Z"  />
<glyph unicode="&#x2212;" horiz-adv-x="408" d="M29 294V350H379V294H29Z"  />
<glyph unicode="&#x221A;" horiz-adv-x="718" d="M147 671H626V0H147V671ZM550 623H224L387 379L550 623ZM578 91V580L415 335L578 91ZM550 48L387 292L224 48H550ZM195 91L358 335L195 580V91Z"  />
<glyph unicode="&#x221E;" horiz-adv-x="718" d="M147 671H626V0H147V671ZM550 623H224L387 379L550 623ZM578 91V580L415 335L578 91ZM550 48L387 292L224 48H550ZM195 91L358 335L195 580V91Z"  />
<glyph unicode="&#x222B;" horiz-adv-x="718" d="M147 671H626V0H147V671ZM550 623H224L387 379L550 623ZM578 91V580L415 335L578 91ZM550 48L387 292L224 48H550ZM195 91L358 335L195 580V91Z"  />
<glyph unicode="&#x2248;" horiz-adv-x="718" d="M147 671H626V0H147V671ZM550 623H224L387 379L550 623ZM578 91V580L415 335L578 91ZM550 48L387 292L224 48H550ZM195 91L358 335L195 580V91Z"  />
<glyph unicode="&#x2260;" horiz-adv-x="718" d="M147 671H626V0H147V671ZM550 623H224L387 379L550 623ZM578 91V580L415 335L578 91ZM550 48L387 292L224 48H550ZM195 91L358 335L195 580V91Z"  />
<glyph unicode="&#x2264;" horiz-adv-x="718" d="M147 671H626V0H147V671ZM550 623H224L387 379L550 623ZM578 91V580L415 335L578 91ZM550 48L387 292L224 48H550ZM195 91L358 335L195 580V91Z"  />
<glyph unicode="&#x2265;" horiz-adv-x="718" d="M147 671H626V0H147V671ZM550 623H224L387 379L550 623ZM578 91V580L415 335L578 91ZM550 48L387 292L224 48H550ZM195 91L358 335L195 580V91Z"  />
<glyph unicode="&#x25CA;" horiz-adv-x="718" d="M147 671H626V0H147V671ZM550 623H224L387 379L550 623ZM578 91V580L415 335L578 91ZM550 48L387 292L224 48H550ZM195 91L358 335L195 580V91Z"  />
<glyph unicode="&#xFB01;" horiz-adv-x="547" d="M303 0V10L369 39V415L306 450V459L471 495V39L537 10V0H303ZM425 608Q425 584 409 568T368 552Q344 552 327 567T309 608Q309 625 317 636T339 656Q316 667 289 667Q253 667 233 648T202 600T188 539T184 480H280V440H184V39L260 10V0H16V10L83 39V440H0V458L83 480Q83 528 96 567T136 634T200 678T287 694Q306 694 330 690T375 675T410 649T425 608Z"  />
<glyph unicode="&#xFB02;" horiz-adv-x="553" d="M308 0V10L375 39V554Q370 552 367 552T358 552Q334 552 317 567T299 608Q299 625 307 636T329 656Q306 667 279 667Q243 667 224 647T196 599T186 538T184 480H316V440H184V39L260 10V0H16V10L83 39V440H0V458L83 480Q83 525 95 564T132 632T193 677T277 694Q301 694 325 689T370 672L476 695V39L543 10V0H308Z"  />

</font>
</defs>
</svg>
