<svg id="components-grid-layout-options-order" style="width: 100%; height: 100%" width="1490" height="838" viewBox="0 0 1490 838" fill="none" xmlns="http://www.w3.org/2000/svg" class="css-0"><rect style="fill:var(--color-illustrationBackground020)" width="1490" height="838"></rect><path style="fill:var(--color-illustrationInterface020)" d="M159 175C159 163.954 167.954 155 179 155H379C390.046 155 399 163.954 399 175V375C399 386.046 390.046 395 379 395H179C167.954 395 159 386.046 159 375V175Z"></path><path style="fill:var(--color-illustrationInterface020)" d="M447 462C447 450.954 455.954 442 467 442H667C678.046 442 687 450.954 687 462V662C687 673.046 678.046 682 667 682H467C455.954 682 447 673.046 447 662V462Z"></path><path style="fill:var(--color-illustrationHighlight010)" d="M159 462C159 450.954 167.954 442 179 442H379C390.046 442 399 450.954 399 462V662C399 673.046 390.046 682 379 682H179C167.954 682 159 673.046 159 662V462Z"></path><path style="fill:var(--color-illustrationInterface020)" d="M1028 313C1028 301.954 1036.95 293 1048 293H1298C1309.05 293 1318 301.954 1318 313V387C1318 398.046 1309.05 407 1298 407H1048C1036.95 407 1028 398.046 1028 387V313Z"></path><path style="fill:var(--color-illustrationInterface020)" d="M1028 588C1028 576.954 1036.95 568 1048 568H1298C1309.05 568 1318 576.954 1318 588V662C1318 673.046 1309.05 682 1298 682H1048C1036.95 682 1028 673.046 1028 662V588Z"></path><path style="fill:var(--color-illustrationInterface020)" d="M447 175C447 163.954 455.954 155 467 155H667C678.046 155 687 163.954 687 175V375C687 386.046 678.046 395 667 395H467C455.954 395 447 386.046 447 375V175Z"></path><path style="fill:var(--color-illustrationHighlight010)" d="M1028 175C1028 163.954 1036.95 155 1048 155H1298C1309.05 155 1318 163.954 1318 175V249C1318 260.046 1309.05 269 1298 269H1048C1036.95 269 1028 260.046 1028 249V175Z"></path><path style="fill:var(--color-illustrationInterface020)" d="M1028 450C1028 438.954 1036.95 430 1048 430H1298C1309.05 430 1318 438.954 1318 450V524C1318 535.046 1309.05 544 1298 544H1048C1036.95 544 1028 535.046 1028 524V450Z"></path><path style="fill:var(--color-illustrationHighlight010)" d="M273.44 265V259.84H283.08V289H277.32V265H273.44Z"></path><path style="fill:var(--color-illustrationHighlight010)" d="M1168.44 340V334.84H1178.08V364H1172.32V340H1168.44Z"></path><path style="fill:var(--color-illustrationHighlight010)" d="M556.88 282.68C559.44 280.547 561.48 278.774 563 277.36C564.52 275.92 565.787 274.427 566.8 272.88C567.813 271.334 568.32 269.814 568.32 268.32C568.32 266.96 568 265.894 567.36 265.12C566.72 264.347 565.733 263.96 564.4 263.96C563.067 263.96 562.04 264.414 561.32 265.32C560.6 266.2 560.227 267.414 560.2 268.96H554.76C554.867 265.76 555.813 263.334 557.6 261.68C559.413 260.027 561.707 259.2 564.48 259.2C567.52 259.2 569.853 260.014 571.48 261.64C573.107 263.24 573.92 265.36 573.92 268C573.92 270.08 573.36 272.067 572.24 273.96C571.12 275.854 569.84 277.507 568.4 278.92C566.96 280.307 565.08 281.987 562.76 283.96H574.56V288.6H554.8V284.44L556.88 282.68Z"></path><path style="fill:var(--color-illustrationInterface010)" d="M1165.2 204.52C1165.33 201.853 1166.27 199.8 1168 198.36C1169.76 196.893 1172.07 196.16 1174.92 196.16C1176.87 196.16 1178.53 196.507 1179.92 197.2C1181.31 197.867 1182.35 198.787 1183.04 199.96C1183.76 201.107 1184.12 202.413 1184.12 203.88C1184.12 205.56 1183.68 206.987 1182.8 208.16C1181.95 209.307 1180.92 210.08 1179.72 210.48V210.64C1181.27 211.12 1182.47 211.973 1183.32 213.2C1184.2 214.427 1184.64 216 1184.64 217.92C1184.64 219.52 1184.27 220.947 1183.52 222.2C1182.8 223.453 1181.72 224.44 1180.28 225.16C1178.87 225.853 1177.16 226.2 1175.16 226.2C1172.15 226.2 1169.69 225.44 1167.8 223.92C1165.91 222.4 1164.91 220.16 1164.8 217.2H1170.24C1170.29 218.507 1170.73 219.56 1171.56 220.36C1172.41 221.133 1173.57 221.52 1175.04 221.52C1176.4 221.52 1177.44 221.147 1178.16 220.4C1178.91 219.627 1179.28 218.64 1179.28 217.44C1179.28 215.84 1178.77 214.693 1177.76 214C1176.75 213.307 1175.17 212.96 1173.04 212.96H1171.88V208.36H1173.04C1176.83 208.36 1178.72 207.093 1178.72 204.56C1178.72 203.413 1178.37 202.52 1177.68 201.88C1177.01 201.24 1176.04 200.92 1174.76 200.92C1173.51 200.92 1172.53 201.267 1171.84 201.96C1171.17 202.627 1170.79 203.48 1170.68 204.52H1165.2Z"></path><path style="fill:var(--color-illustrationInterface010)" d="M265.2 554.52C265.333 551.853 266.267 549.8 268 548.36C269.76 546.893 272.067 546.16 274.92 546.16C276.867 546.16 278.533 546.507 279.92 547.2C281.307 547.867 282.347 548.787 283.04 549.96C283.76 551.107 284.12 552.413 284.12 553.88C284.12 555.56 283.68 556.987 282.8 558.16C281.947 559.307 280.92 560.08 279.72 560.48V560.64C281.267 561.12 282.467 561.973 283.32 563.2C284.2 564.427 284.64 566 284.64 567.92C284.64 569.52 284.267 570.947 283.52 572.2C282.8 573.453 281.72 574.44 280.28 575.16C278.867 575.853 277.16 576.2 275.16 576.2C272.147 576.2 269.693 575.44 267.8 573.92C265.907 572.4 264.907 570.16 264.8 567.2H270.24C270.293 568.507 270.733 569.56 271.56 570.36C272.413 571.133 273.573 571.52 275.04 571.52C276.4 571.52 277.44 571.147 278.16 570.4C278.907 569.627 279.28 568.64 279.28 567.44C279.28 565.84 278.773 564.693 277.76 564C276.747 563.307 275.173 562.96 273.04 562.96H271.88V558.36H273.04C276.827 558.36 278.72 557.093 278.72 554.56C278.72 553.413 278.373 552.52 277.68 551.88C277.013 551.24 276.04 550.92 274.76 550.92C273.507 550.92 272.533 551.267 271.84 551.96C271.173 552.627 270.787 553.48 270.68 554.52H265.2Z"></path><path style="fill:var(--color-illustrationHighlight010)" d="M554.88 570.32V565.92L567.96 547.2H574.48V565.44H578V570.32H574.48V576H568.88V570.32H554.88ZM569.24 553.2L561.04 565.44H569.24V553.2Z"></path><path style="fill:var(--color-illustrationHighlight010)" d="M1165.88 494.68C1168.44 492.547 1170.48 490.774 1172 489.36C1173.52 487.92 1174.79 486.427 1175.8 484.88C1176.81 483.334 1177.32 481.814 1177.32 480.32C1177.32 478.96 1177 477.894 1176.36 477.12C1175.72 476.347 1174.73 475.96 1173.4 475.96C1172.07 475.96 1171.04 476.414 1170.32 477.32C1169.6 478.2 1169.23 479.414 1169.2 480.96H1163.76C1163.87 477.76 1164.81 475.334 1166.6 473.68C1168.41 472.027 1170.71 471.2 1173.48 471.2C1176.52 471.2 1178.85 472.014 1180.48 473.64C1182.11 475.24 1182.92 477.36 1182.92 480C1182.92 482.08 1182.36 484.067 1181.24 485.96C1180.12 487.854 1178.84 489.507 1177.4 490.92C1175.96 492.307 1174.08 493.987 1171.76 495.96H1183.56V500.6H1163.8V496.44L1165.88 494.68Z"></path><path style="fill:var(--color-illustrationHighlight010)" d="M1162.88 633.32V628.92L1175.96 610.2H1182.48V628.44H1186V633.32H1182.48V639H1176.88V633.32H1162.88ZM1177.24 616.2L1169.04 628.44H1177.24V616.2Z"></path><path style="fill:var(--color-illustrationHighlight010)" d="M913.64 417.682L899.513 410.418C897.881 409.579 895.941 410.764 895.941 412.598L895.941 426.725C895.941 428.535 897.835 429.721 899.463 428.93L913.59 422.066C915.407 421.184 915.436 418.606 913.64 417.682Z"></path><path style="fill:var(--color-illustrationHighlight010)" fill-rule="evenodd" clip-rule="evenodd" d="M781.221 419.612C781.221 420.627 782.044 421.45 783.059 421.45L787.763 421.45C788.778 421.45 789.601 420.627 789.601 419.612C789.601 418.597 788.778 417.774 787.763 417.774L783.059 417.774C782.044 417.774 781.221 418.597 781.221 419.612ZM795.331 419.612C795.331 420.627 796.154 421.45 797.17 421.45L806.576 421.45C807.592 421.45 808.415 420.627 808.415 419.612C808.415 418.597 807.592 417.774 806.576 417.774L797.17 417.774C796.154 417.774 795.331 418.597 795.331 419.612ZM814.145 419.612C814.145 420.627 814.968 421.45 815.983 421.45L825.39 421.45C826.405 421.45 827.228 420.627 827.228 419.612C827.228 418.597 826.405 417.774 825.39 417.774L815.983 417.774C814.968 417.774 814.145 418.597 814.145 419.612ZM832.958 419.612C832.958 420.627 833.781 421.45 834.797 421.45L844.203 421.45C845.219 421.45 846.042 420.627 846.042 419.612C846.042 418.597 845.219 417.774 844.203 417.774L834.797 417.774C833.781 417.774 832.958 418.597 832.958 419.612ZM851.772 419.612C851.772 420.627 852.595 421.45 853.61 421.45L863.017 421.45C864.032 421.45 864.855 420.627 864.855 419.612C864.855 418.597 864.032 417.774 863.017 417.774L853.61 417.774C852.595 417.774 851.772 418.597 851.772 419.612ZM870.585 419.612C870.585 420.627 871.408 421.45 872.424 421.45L881.83 421.45C882.846 421.45 883.669 420.627 883.669 419.612C883.669 418.597 882.846 417.774 881.83 417.774L872.424 417.774C871.408 417.774 870.585 418.597 870.585 419.612ZM889.399 419.612C889.399 420.627 890.222 421.45 891.237 421.45L895.94 421.45C896.956 421.45 897.779 420.627 897.779 419.612C897.779 418.597 896.956 417.774 895.94 417.774L891.237 417.774C890.222 417.774 889.399 418.597 889.399 419.612Z"></path></svg>