<svg id="nksvg" style="width: 100%; height: 100%" width="1000" height="1001" viewBox="0 0 1000 1001" fill="none" xmlns="http://www.w3.org/2000/svg" class="css-0">
  <rect style="fill: var(--color-illustrationBackground020)" y="0.34375" width="1000" height="1000" rx="22"></rect>
  <path style="fill: var(--color-interactiveNegative040)" d="M215 295C215 250.817 250.817 215 295 215H704.186C748.368 215 784.186 250.817 784.186 295V704.186C784.186 748.368 748.368 784.186 704.186 784.186H295C250.817 784.186 215 748.368 215 704.186V295Z"></path>
  <path style="fill: var(--color-white)" d="M428.375 598.363L329.511 499.5L295.845 532.928L428.375 665.458L712.875 380.958L679.446 347.529L428.375 598.363Z"></path>
  <path style="fill: var(--color-illustrationPalette070)" fill-rule="evenodd" clip-rule="evenodd" d="M263.629 837.526L266.734 821.83C273.923 823.252 281.366 824 289 824H315.312V840H289C280.318 840 271.835 839.149 263.629 837.526ZM683.688 840V824H710C717.634 824 725.077 823.252 732.266 821.83L735.371 837.526C727.165 839.149 718.682 840 710 840H683.688ZM782.23 818.104L773.329 804.808C785.768 796.48 796.48 785.768 804.808 773.329L818.104 782.23C808.612 796.407 796.407 808.612 782.23 818.104ZM840 315.312H824V289C824 281.366 823.252 273.923 821.83 266.734L837.526 263.629C839.149 271.835 840 280.318 840 289V315.312ZM818.104 216.77L804.808 225.671C796.48 213.232 785.768 202.52 773.329 194.192L782.23 180.896C796.407 190.388 808.612 202.593 818.104 216.77ZM315.312 159H289C280.318 159 271.835 159.851 263.629 161.474L266.734 177.17C273.923 175.748 281.366 175 289 175H315.312V159ZM216.77 180.896L225.671 194.192C213.232 202.52 202.52 213.232 194.192 225.671L180.896 216.77C190.388 202.593 202.593 190.388 216.77 180.896ZM159 683.688H175V710C175 717.634 175.748 725.077 177.17 732.266L161.474 735.371C159.851 727.165 159 718.682 159 710V683.688ZM180.896 782.23L194.192 773.329C202.52 785.768 213.232 796.48 225.671 804.808L216.77 818.104C202.593 808.612 190.388 796.407 180.896 782.23ZM159 631.063H175V578.438H159V631.063ZM159 525.812H175V473.188H159V525.812ZM159 420.562H175V367.938H159V420.562ZM159 315.312H175V289C175 281.366 175.748 273.923 177.17 266.734L161.474 263.629C159.851 271.835 159 280.318 159 289V315.312ZM367.938 159V175H420.562V159H367.938ZM473.188 159V175H525.812V159H473.188ZM578.438 159V175H631.063V159H578.438ZM683.688 159V175H710C717.634 175 725.077 175.748 732.266 177.17L735.371 161.474C727.165 159.851 718.682 159 710 159H683.688ZM840 367.938H824V420.562H840V367.938ZM840 473.188H824V525.812H840V473.188ZM840 578.438H824V631.063H840V578.438ZM840 683.688H824V710C824 717.634 823.252 725.077 821.83 732.266L837.526 735.371C839.149 727.165 840 718.682 840 710V683.688ZM631.063 840V824H578.438V840H631.063ZM525.812 840V824H473.188V840H525.812ZM420.562 840V824H367.938V840H420.562Z"></path>
  <path style="fill: var(--color-interactiveNegative050)" d="M736.833 655C678.413 655 631 702.413 631 760.833C631 819.253 678.413 866.667 736.833 866.667C795.253 866.667 842.667 819.253 842.667 760.833C842.667 702.413 795.253 655 736.833 655Z"></path>
  <path style="fill: var(--color-inkInverse)" d="M697.667 816.278L682 802.028L697.667 786.328L777.994 706L792.916 721.028L697.667 816.278Z"></path>
  <path style="fill: var(--color-inkInverse)" d="M777.25 816.278L792.917 802.028L777.25 786.328L696.922 706L682 721.028L777.25 816.278Z"></path>
</svg>
