<svg id="theme-style-presets-selected-disabled" style="width: 100%; height: 100%" width="1000" height="1001" viewBox="0 0 1000 1001" fill="none" xmlns="http://www.w3.org/2000/svg" class="css-0"><rect style="fill:var(--color-illustrationBackground020)" y="0.34375" width="1000" height="1000" rx="22"></rect><path style="fill:var(--color-darkBlue020)" d="M184 223C134.294 223 94 268.079 94 323.687V760H175H833L907 760V323.687C907 268.079 866.706 223 817 223H184Z"></path><path style="fill:var(--color-darkBlue040)" fill-rule="evenodd" clip-rule="evenodd" d="M107.5 749C100.044 749 94 755.044 94 762.5C94 769.956 100.044 776 107.5 776H893.5C900.956 776 907 769.956 907 762.5C907 755.044 900.956 749 893.5 749H107.5Z"></path><path style="fill:var(--color-darkBlue040)" d="M425.2 429.85V449.625H392.65V552H368.15V449.625H335.6V429.85H425.2Z"></path><path style="fill:var(--color-darkBlue040)" d="M436.776 503.175C436.776 493.375 438.701 484.683 442.551 477.1C446.518 469.517 451.826 463.683 458.476 459.6C465.243 455.517 472.768 453.475 481.051 453.475C488.284 453.475 494.584 454.933 499.951 457.85C505.434 460.767 509.809 464.442 513.076 468.875V455.05H537.751V552H513.076V537.825C509.926 542.375 505.551 546.167 499.951 549.2C494.468 552.117 488.109 553.575 480.876 553.575C472.709 553.575 465.243 551.475 458.476 547.275C451.826 543.075 446.518 537.183 442.551 529.6C438.701 521.9 436.776 513.092 436.776 503.175ZM513.076 503.525C513.076 497.575 511.909 492.5 509.576 488.3C507.243 483.983 504.093 480.717 500.126 478.5C496.159 476.167 491.901 475 487.351 475C482.801 475 478.601 476.108 474.751 478.325C470.901 480.542 467.751 483.808 465.301 488.125C462.968 492.325 461.801 497.342 461.801 503.175C461.801 509.008 462.968 514.142 465.301 518.575C467.751 522.892 470.901 526.217 474.751 528.55C478.718 530.883 482.918 532.05 487.351 532.05C491.901 532.05 496.159 530.942 500.126 528.725C504.093 526.392 507.243 523.125 509.576 518.925C511.909 514.608 513.076 509.475 513.076 503.525Z"></path><path style="fill:var(--color-darkBlue040)" d="M586.18 469.225C589.33 464.558 593.646 460.767 599.13 457.85C604.73 454.933 611.088 453.475 618.205 453.475C626.488 453.475 633.955 455.517 640.605 459.6C647.371 463.683 652.68 469.517 656.53 477.1C660.496 484.567 662.48 493.258 662.48 503.175C662.48 513.092 660.496 521.9 656.53 529.6C652.68 537.183 647.371 543.075 640.605 547.275C633.955 551.475 626.488 553.575 618.205 553.575C610.971 553.575 604.613 552.175 599.13 549.375C593.763 546.458 589.446 542.725 586.18 538.175V552H561.68V422.5H586.18V469.225ZM637.455 503.175C637.455 497.342 636.23 492.325 633.78 488.125C631.446 483.808 628.296 480.542 624.33 478.325C620.48 476.108 616.28 475 611.73 475C607.296 475 603.096 476.167 599.13 478.5C595.28 480.717 592.13 483.983 589.68 488.3C587.346 492.617 586.18 497.692 586.18 503.525C586.18 509.358 587.346 514.433 589.68 518.75C592.13 523.067 595.28 526.392 599.13 528.725C603.096 530.942 607.296 532.05 611.73 532.05C616.28 532.05 620.48 530.883 624.33 528.55C628.296 526.217 631.446 522.892 633.78 518.575C636.23 514.258 637.455 509.125 637.455 503.175Z"></path><g filter="url(#nk-234)"><path style="fill:var(--color-black)" fill-rule="evenodd" clip-rule="evenodd" d="M697 641.234L552 576L586.295 730L628.2 669.174L697 641.234Z"></path><path style="stroke:var(--color-undefined)" d="M699.079 646.354L711.046 641.494L699.267 636.195L554.267 570.961L544.209 566.435L546.606 577.201L580.901 731.201L583.656 743.571L590.845 733.135L631.812 673.672L699.079 646.354Z" stroke-width="11.0518"></path></g><g filter="url(#nk-235)"><mask id="path-7-outside-1_526_32705" maskUnits="userSpaceOnUse" x="605.504" y="671.011" width="251" height="251" fill="black"><rect style="fill:var(--color-white)" x="605.504" y="671.011" width="251" height="251"></rect><path fill-rule="evenodd" clip-rule="evenodd" d="M780.32 865.889C766.405 875.798 749.382 881.625 730.999 881.625C683.988 881.625 645.878 843.515 645.878 796.504C645.878 778.121 651.705 761.098 661.614 747.183L780.32 865.889V865.889ZM800.383 845.827C810.292 831.912 816.12 814.89 816.12 796.506C816.12 749.495 778.01 711.385 730.999 711.385C712.615 711.385 695.592 717.213 681.678 727.122L800.383 845.827ZM730.999 910C793.68 910 844.493 859.187 844.493 796.505C844.493 733.824 793.68 683.011 730.999 683.011C668.317 683.011 617.504 733.824 617.504 796.505C617.504 859.187 668.317 910 730.999 910Z"></path></mask><path style="fill:var(--color-black)" fill-rule="evenodd" clip-rule="evenodd" d="M780.32 865.889C766.405 875.798 749.382 881.625 730.999 881.625C683.988 881.625 645.878 843.515 645.878 796.504C645.878 778.121 651.705 761.098 661.614 747.183L780.32 865.889V865.889ZM800.383 845.827C810.292 831.912 816.12 814.89 816.12 796.506C816.12 749.495 778.01 711.385 730.999 711.385C712.615 711.385 695.592 717.213 681.678 727.122L800.383 845.827ZM730.999 910C793.68 910 844.493 859.187 844.493 796.505C844.493 733.824 793.68 683.011 730.999 683.011C668.317 683.011 617.504 733.824 617.504 796.505C617.504 859.187 668.317 910 730.999 910Z"></path><path style="fill:var(--color-white)" d="M661.614 747.183L669.429 739.369L660.191 730.13L652.612 740.773L661.614 747.183ZM800.383 845.827L792.568 853.642L801.807 862.88L809.385 852.238L800.383 845.827ZM681.678 727.122L675.267 718.119L664.624 725.698L673.863 734.936L681.678 727.122ZM773.909 856.886C761.804 865.506 747.01 870.574 730.999 870.574V892.677C751.755 892.677 771.006 886.089 786.73 874.891L773.909 856.886ZM730.999 870.574C690.091 870.574 656.929 837.412 656.929 796.504H634.826C634.826 849.619 677.884 892.677 730.999 892.677V870.574ZM656.929 796.504C656.929 780.493 661.997 765.699 670.617 753.594L652.612 740.773C641.414 756.497 634.826 775.748 634.826 796.504H656.929ZM653.8 754.998L772.505 873.703L788.134 858.074L669.429 739.369L653.8 754.998ZM809.385 852.238C820.583 836.513 827.171 817.262 827.171 796.506H805.068C805.068 812.517 800 827.311 791.38 839.416L809.385 852.238ZM827.171 796.506C827.171 743.391 784.113 700.333 730.999 700.333V722.437C771.906 722.437 805.068 755.599 805.068 796.506H827.171ZM730.999 700.333C710.242 700.333 690.992 706.921 675.267 718.119L688.088 736.124C700.193 727.504 714.988 722.437 730.999 722.437V700.333ZM673.863 734.936L792.568 853.642L808.198 838.012L689.492 719.307L673.863 734.936ZM730.999 921.052C799.784 921.052 855.545 865.291 855.545 796.505H833.441C833.441 853.083 787.576 898.948 730.999 898.948V921.052ZM855.545 796.505C855.545 727.72 799.784 671.959 730.999 671.959V694.062C787.576 694.062 833.441 739.928 833.441 796.505H855.545ZM730.999 671.959C662.213 671.959 606.452 727.72 606.452 796.505H628.556C628.556 739.928 674.421 694.062 730.999 694.062V671.959ZM606.452 796.505C606.452 865.29 662.213 921.052 730.999 921.052V898.948C674.421 898.948 628.556 853.083 628.556 796.505H606.452Z" mask="url(#path-7-outside-1_526_32705)"></path></g><defs><filter id="nk-234" x="503.262" y="534.768" width="254.985" height="266.581" filterUnits="userSpaceOnUse" color-interpolation-filters="sRGB"><feFlood flood-opacity="0" result="BackgroundImageFix"></feFlood><feColorMatrix in="SourceAlpha" type="matrix" values="0 0 0 0 0 0 0 0 0 0 0 0 0 0 0 0 0 0 127 0" result="hardAlpha"></feColorMatrix><feOffset dy="11.0518"></feOffset><feGaussianBlur stdDeviation="16.5776"></feGaussianBlur><feColorMatrix type="matrix" values="0 0 0 0 0 0 0 0 0 0 0 0 0 0 0 0 0 0 0.25 0"></feColorMatrix><feBlend mode="normal" in2="BackgroundImageFix" result="effect1_dropShadow_526_32705"></feBlend><feBlend mode="normal" in="SourceGraphic" in2="effect1_dropShadow_526_32705" result="shape"></feBlend></filter><filter id="nk-235" x="573.297" y="649.855" width="315.403" height="315.403" filterUnits="userSpaceOnUse" color-interpolation-filters="sRGB"><feFlood flood-opacity="0" result="BackgroundImageFix"></feFlood><feColorMatrix in="SourceAlpha" type="matrix" values="0 0 0 0 0 0 0 0 0 0 0 0 0 0 0 0 0 0 127 0" result="hardAlpha"></feColorMatrix><feOffset dy="11.0518"></feOffset><feGaussianBlur stdDeviation="16.5776"></feGaussianBlur><feColorMatrix type="matrix" values="0 0 0 0 0 0 0 0 0 0 0 0 0 0 0 0 0 0 0.25 0"></feColorMatrix><feBlend mode="normal" in2="BackgroundImageFix" result="effect1_dropShadow_526_32705"></feBlend><feBlend mode="normal" in="SourceGraphic" in2="effect1_dropShadow_526_32705" result="shape"></feBlend></filter></defs></svg>