<svg id="nksvg" style="width: 100%; height: 100%" width="1000" height="1000" viewBox="0 0 1000 1000" fill="none" xmlns="http://www.w3.org/2000/svg" class="css-0">
  <rect style="fill: var(--color-illustrationBackground020)" width="1000" height="1000" rx="22"></rect>
  <path style="fill: var(--color-illustrationPalette010)" d="M184 222.656C134.294 222.656 94 267.736 94 323.344V759.656H175H833L907 759.656V323.344C907 267.736 866.706 222.656 817 222.656H184Z"></path>
  <path style="fill: var(--color-illustrationPalette060)" fill-rule="evenodd" clip-rule="evenodd" d="M107.5 748.656C100.044 748.656 94 754.7 94 762.156C94 769.612 100.044 775.656 107.5 775.656H893.5C900.956 775.656 907 769.612 907 762.156C907 754.7 900.956 748.656 893.5 748.656H107.5Z"></path>
  <path style="fill: var(--color-illustrationPalette060)" d="M425.2 429.506V449.281H392.65V551.656H368.15V449.281H335.6V429.506H425.2Z"></path>
  <path style="fill: var(--color-illustrationPalette060)" d="M436.776 502.831C436.776 493.031 438.701 484.34 442.551 476.756C446.518 469.173 451.826 463.34 458.476 459.256C465.243 455.173 472.768 453.131 481.051 453.131C488.284 453.131 494.584 454.59 499.951 457.506C505.434 460.423 509.809 464.098 513.076 468.531V454.706H537.751V551.656H513.076V537.481C509.926 542.031 505.551 545.823 499.951 548.856C494.468 551.773 488.109 553.231 480.876 553.231C472.709 553.231 465.243 551.131 458.476 546.931C451.826 542.731 446.518 536.84 442.551 529.256C438.701 521.556 436.776 512.748 436.776 502.831ZM513.076 503.181C513.076 497.231 511.909 492.156 509.576 487.956C507.243 483.64 504.093 480.373 500.126 478.156C496.159 475.823 491.901 474.656 487.351 474.656C482.801 474.656 478.601 475.765 474.751 477.981C470.901 480.198 467.751 483.465 465.301 487.781C462.968 491.981 461.801 496.998 461.801 502.831C461.801 508.665 462.968 513.798 465.301 518.231C467.751 522.548 470.901 525.873 474.751 528.206C478.718 530.54 482.918 531.706 487.351 531.706C491.901 531.706 496.159 530.598 500.126 528.381C504.093 526.048 507.243 522.781 509.576 518.581C511.909 514.265 513.076 509.131 513.076 503.181Z"></path>
  <path style="fill: var(--color-illustrationPalette060)" d="M586.18 468.881C589.33 464.215 593.646 460.423 599.13 457.506C604.73 454.59 611.088 453.131 618.205 453.131C626.488 453.131 633.955 455.173 640.605 459.256C647.371 463.34 652.68 469.173 656.53 476.756C660.496 484.223 662.48 492.915 662.48 502.831C662.48 512.748 660.496 521.556 656.53 529.256C652.68 536.84 647.371 542.731 640.605 546.931C633.955 551.131 626.488 553.231 618.205 553.231C610.971 553.231 604.613 551.831 599.13 549.031C593.763 546.115 589.446 542.381 586.18 537.831V551.656H561.68V422.156H586.18V468.881ZM637.455 502.831C637.455 496.998 636.23 491.981 633.78 487.781C631.446 483.465 628.296 480.198 624.33 477.981C620.48 475.765 616.28 474.656 611.73 474.656C607.296 474.656 603.096 475.823 599.13 478.156C595.28 480.373 592.13 483.64 589.68 487.956C587.346 492.273 586.18 497.348 586.18 503.181C586.18 509.015 587.346 514.09 589.68 518.406C592.13 522.723 595.28 526.048 599.13 528.381C603.096 530.598 607.296 531.706 611.73 531.706C616.28 531.706 620.48 530.54 624.33 528.206C628.296 525.873 631.446 522.548 633.78 518.231C636.23 513.915 637.455 508.781 637.455 502.831Z"></path>
  <path style="fill: var(--color-illustrationPalette070)" fill-rule="evenodd" clip-rule="evenodd" d="M131.629 839.182L134.734 823.486C141.923 824.908 149.366 825.656 157 825.656H181.464V841.656H157C148.318 841.656 139.835 840.805 131.629 839.182ZM817.536 841.656V825.656H842C849.634 825.656 857.077 824.908 864.266 823.486L867.371 839.182C859.165 840.805 850.682 841.656 842 841.656H817.536ZM914.23 819.76L905.329 806.464C917.768 798.137 928.48 787.424 936.808 774.985L950.104 783.886C940.612 798.063 928.407 810.269 914.23 819.76ZM972 311.344H956V284.656C956 277.022 955.252 269.579 953.83 262.39L969.526 259.285C971.149 267.491 972 275.974 972 284.656V311.344ZM950.104 212.426L936.808 221.327C928.48 208.889 917.768 198.176 905.329 189.848L914.23 176.553C928.407 186.044 940.612 198.25 950.104 212.426ZM181.464 154.656H157C148.318 154.656 139.835 155.507 131.629 157.131L134.734 172.826C141.923 171.404 149.366 170.656 157 170.656H181.464V154.656ZM84.77 176.553L93.6711 189.848C81.2323 198.176 70.5195 208.889 62.192 221.327L48.8965 212.426C58.3875 198.25 70.5933 186.044 84.77 176.553ZM27 684.969H43V711.656C43 719.29 43.7481 726.734 45.1702 733.922L29.4744 737.027C27.8511 728.822 27 720.338 27 711.656V684.969ZM48.8965 783.886L62.192 774.985C70.5195 787.424 81.2323 798.137 93.6711 806.464L84.77 819.76C70.5933 810.269 58.3876 798.063 48.8965 783.886ZM27 631.594H43V578.219H27V631.594ZM27 524.844H43V471.469H27V524.844ZM27 418.094H43V364.719H27V418.094ZM27 311.344H43V284.656C43 277.022 43.7481 269.579 45.1702 262.39L29.4744 259.285C27.8511 267.491 27 275.974 27 284.656V311.344ZM230.393 154.656V170.656H279.321V154.656H230.393ZM328.25 154.656V170.656H377.179V154.656H328.25ZM426.107 154.656V170.656H475.036V154.656H426.107ZM523.964 154.656V170.656H572.893V154.656H523.964ZM621.821 154.656V170.656H670.75V154.656H621.821ZM719.679 154.656V170.656H768.607V154.656H719.679ZM817.536 154.656V170.656H842C849.634 170.656 857.077 171.404 864.266 172.826L867.371 157.131C859.165 155.507 850.682 154.656 842 154.656H817.536ZM972 364.719H956V418.094H972V364.719ZM972 471.469H956V524.844H972V471.469ZM972 578.219H956V631.594H972V578.219ZM972 684.969H956V711.656C956 719.29 955.252 726.734 953.83 733.922L969.526 737.027C971.149 728.822 972 720.338 972 711.656V684.969ZM768.607 841.656V825.656H719.679V841.656H768.607ZM670.75 841.656V825.656H621.821V841.656H670.75ZM572.893 841.656V825.656H523.964V841.656H572.893ZM475.036 841.656V825.656H426.107V841.656H475.036ZM377.179 841.656V825.656H328.25V841.656H377.179ZM279.321 841.656V825.656H230.393V841.656H279.321Z"></path>
</svg>
