<svg
  id="nksvg"
  style="width: 100%; height: 100%"
  width="1490"
  height="838"
  viewBox="0 0 1490 838"
  fill="none"
  xmlns="http://www.w3.org/2000/svg"
  class="css-0"
>
  <rect
    style="fill: var(--color-illustrationBackground020)"
    width="1490"
    height="838"
  ></rect>
  <circle
    style="fill: var(--color-illustrationInterface020)"
    cx="494.272"
    cy="418.501"
    r="71.4514"
  ></circle>
  <path
    style="fill: var(--color-illustrationHighlight010)"
    d="M490.193 399.331H497.739V406.877H490.193V399.331Z"
  ></path>
  <path
    style="fill: var(--color-illustrationHighlight010)"
    d="M490.193 414.422H497.739V437.06H490.193V414.422Z"
  ></path>
  <path
    style="fill: var(--color-illustrationHighlight010)"
    fill-rule="evenodd"
    clip-rule="evenodd"
    d="M456.237 418.195C456.237 397.369 473.139 380.466 493.966 380.466C514.792 380.466 531.695 397.369 531.695 418.195C531.695 439.022 514.792 455.924 493.966 455.924C473.139 455.924 456.237 439.022 456.237 418.195ZM463.783 418.195C463.783 434.834 477.327 448.379 493.966 448.379C510.604 448.379 524.149 434.834 524.149 418.195C524.149 401.557 510.604 388.012 493.966 388.012C477.327 388.012 463.783 401.557 463.783 418.195Z"
  ></path>
  <path
    style="fill: var(--color-illustrationHighlight010)"
    fill-rule="evenodd"
    clip-rule="evenodd"
    d="M160.555 129C138.709 129 121 146.709 121 168.555V252.609C121 274.455 138.709 292.164 160.555 292.164H470.184L494.272 316.252L518.36 292.164H827.055C848.9 292.164 866.61 274.455 866.61 252.609V168.555C866.61 146.709 848.9 129 827.055 129H160.555Z"
  ></path>
  <path
    style="fill: var(--color-illustrationInterface010)"
    d="M200.11 235.802C200.11 241.248 204.524 245.663 209.97 245.663H624.524C629.97 245.663 634.385 241.248 634.385 235.802C634.385 230.356 629.97 225.941 624.524 225.941H209.97C204.524 225.941 200.11 230.356 200.11 235.802Z"
  ></path>
  <path
    style="fill: var(--color-illustrationInterface010)"
    d="M200.11 187.943C200.11 193.189 204.363 197.443 209.609 197.443H769.809C775.056 197.443 779.309 193.189 779.309 187.943C779.309 182.696 775.056 178.443 769.809 178.443H209.609C204.363 178.443 200.11 182.696 200.11 187.943Z"
  ></path>
  <path
    style="fill: var(--color-illustrationHighlight010)"
    fill-rule="evenodd"
    clip-rule="evenodd"
    d="M972.257 545.389L996.896 520.751L1021.53 545.389H1329.68C1351.52 545.389 1369.23 563.099 1369.23 584.944V668.998C1369.23 690.844 1351.52 708.553 1329.68 708.553H663.179C641.333 708.553 623.624 690.844 623.624 668.998V584.944C623.624 563.099 641.333 545.389 663.179 545.389H972.257Z"
  ></path>
  <path
    style="fill: var(--color-illustrationInterface010)"
    d="M702.734 652.191C702.734 657.637 707.148 662.052 712.594 662.052H1127.15C1132.59 662.052 1137.01 657.637 1137.01 652.191C1137.01 646.745 1132.59 642.331 1127.15 642.331H712.594C707.148 642.331 702.734 646.745 702.734 652.191Z"
  ></path>
  <path
    style="fill: var(--color-illustrationInterface010)"
    d="M702.734 604.332C702.734 609.579 706.987 613.832 712.233 613.832H1272.43C1277.68 613.832 1281.93 609.579 1281.93 604.332C1281.93 599.086 1277.68 594.833 1272.43 594.833H712.233C706.987 594.833 702.734 599.086 702.734 604.332Z"
  ></path>
  <circle
    style="fill: var(--color-illustrationInterface020)"
    cx="996.896"
    cy="418.501"
    r="71.4514"
  ></circle>
  <path
    style="fill: var(--color-illustrationHighlight010)"
    d="M992.817 399.331H1000.36V406.877H992.817V399.331Z"
  ></path>
  <path
    style="fill: var(--color-illustrationHighlight010)"
    d="M992.817 414.422H1000.36V437.06H992.817V414.422Z"
  ></path>
  <path
    style="fill: var(--color-illustrationHighlight010)"
    fill-rule="evenodd"
    clip-rule="evenodd"
    d="M958.86 418.195C958.86 397.369 975.763 380.466 996.589 380.466C1017.42 380.466 1034.32 397.369 1034.32 418.195C1034.32 439.022 1017.42 455.924 996.589 455.924C975.763 455.924 958.86 439.022 958.86 418.195ZM966.406 418.195C966.406 434.834 979.951 448.379 996.589 448.379C1013.23 448.379 1026.77 434.834 1026.77 418.195C1026.77 401.557 1013.23 388.012 996.589 388.012C979.951 388.012 966.406 401.557 966.406 418.195Z"
  ></path>
  <path
    style="fill: var(--color-illustrationHighlight010)"
    d="M811.664 417.418L794.26 408.47C792.251 407.436 789.86 408.895 789.86 411.155L789.86 428.559C789.86 430.788 792.194 432.249 794.199 431.275L811.603 422.819C813.841 421.732 813.877 418.556 811.664 417.418Z"
  ></path>
  <path
    style="fill: var(--color-illustrationHighlight010)"
    fill-rule="evenodd"
    clip-rule="evenodd"
    d="M648.535 419.795C648.535 421.046 649.549 422.06 650.799 422.06L656.593 422.06C657.844 422.06 658.858 421.046 658.858 419.795C658.858 418.545 657.844 417.531 656.593 417.531L650.799 417.531C649.549 417.531 648.535 418.545 648.535 419.795ZM665.917 419.795C665.917 421.046 666.931 422.06 668.182 422.06L679.77 422.06C681.021 422.06 682.035 421.046 682.035 419.795C682.035 418.545 681.021 417.531 679.77 417.531L668.182 417.531C666.931 417.531 665.917 418.545 665.917 419.795ZM689.094 419.795C689.094 421.046 690.108 422.06 691.359 422.06L702.947 422.06C704.198 422.06 705.212 421.046 705.212 419.795C705.212 418.545 704.198 417.531 702.947 417.531L691.359 417.531C690.108 417.531 689.094 418.545 689.094 419.795ZM712.271 419.795C712.271 421.046 713.285 422.06 714.535 422.06L726.124 422.06C727.374 422.06 728.388 421.046 728.388 419.795C728.388 418.545 727.374 417.531 726.124 417.531L714.535 417.531C713.285 417.531 712.271 418.545 712.271 419.795ZM735.447 419.795C735.447 421.046 736.461 422.06 737.712 422.06L749.3 422.06C750.551 422.06 751.565 421.046 751.565 419.795C751.565 418.545 750.551 417.531 749.3 417.531L737.712 417.531C736.461 417.531 735.447 418.545 735.447 419.795ZM758.624 419.795C758.624 421.046 759.638 422.06 760.889 422.06L772.477 422.06C773.728 422.06 774.742 421.046 774.742 419.795C774.742 418.545 773.728 417.531 772.477 417.531L760.889 417.531C759.638 417.531 758.624 418.545 758.624 419.795ZM781.801 419.795C781.801 421.046 782.815 422.06 784.066 422.06L789.86 422.06C791.111 422.06 792.124 421.046 792.124 419.795C792.124 418.545 791.111 417.531 789.86 417.531L784.066 417.531C782.815 417.531 781.801 418.545 781.801 419.795Z"
  ></path>
</svg>
