<svg id="components-text-block-usage-do-01" style="width: 100%; height: 100%" width="1490" height="838" viewBox="0 0 1490 838" fill="none" xmlns="http://www.w3.org/2000/svg" class="css-0"><g clip-path="url(#nk-985)"><rect style="fill:var(--color-illustrationBackground010)" width="1490" height="838"></rect><rect style="fill:var(--color-illustrationInterface010)" x="315" y="303" width="860" height="233" rx="88"></rect><path style="fill:var(--color-illustrationInterface020)" d="M415 373H1076V466H415V373Z"></path><g opacity="0.25"><path style="fill:var(--color-illustrationShadow010)" d="M415 376.758L418.758 373H423L415 381V376.758Z"></path><path style="fill:var(--color-illustrationShadow010)" d="M415 399V394.758L436.758 373H441L415 399Z"></path><path style="fill:var(--color-illustrationShadow010)" d="M415 417V412.758L454.758 373H459L415 417Z"></path><path style="fill:var(--color-illustrationShadow010)" d="M415 435V430.758L472.758 373H477L415 435Z"></path><path style="fill:var(--color-illustrationShadow010)" d="M415 453V448.758L490.758 373H495L415 453Z"></path><path style="fill:var(--color-illustrationShadow010)" d="M420 466H415.758L508.758 373H513L420 466Z"></path><path style="fill:var(--color-illustrationShadow010)" d="M438 466H433.758L526.758 373H531L438 466Z"></path><path style="fill:var(--color-illustrationShadow010)" d="M456 466H451.758L544.758 373H549L456 466Z"></path><path style="fill:var(--color-illustrationShadow010)" d="M474 466H469.758L562.758 373H567L474 466Z"></path><path style="fill:var(--color-illustrationShadow010)" d="M492 466H487.758L580.758 373H585L492 466Z"></path><path style="fill:var(--color-illustrationShadow010)" d="M510 466H505.758L598.758 373H603L510 466Z"></path><path style="fill:var(--color-illustrationShadow010)" d="M528 466H523.758L616.758 373H621L528 466Z"></path><path style="fill:var(--color-illustrationShadow010)" d="M546 466H541.758L634.758 373H639L546 466Z"></path><path style="fill:var(--color-illustrationShadow010)" d="M564 466H559.758L652.758 373H657L564 466Z"></path><path style="fill:var(--color-illustrationShadow010)" d="M582 466H577.758L670.758 373H675L582 466Z"></path><path style="fill:var(--color-illustrationShadow010)" d="M600 466H595.758L688.758 373H693L600 466Z"></path><path style="fill:var(--color-illustrationShadow010)" d="M618 466H613.758L706.758 373H711L618 466Z"></path><path style="fill:var(--color-illustrationShadow010)" d="M636 466H631.758L724.758 373H729L636 466Z"></path><path style="fill:var(--color-illustrationShadow010)" d="M654 466H649.758L742.758 373H747L654 466Z"></path><path style="fill:var(--color-illustrationShadow010)" d="M672 466H667.758L760.758 373H765L672 466Z"></path><path style="fill:var(--color-illustrationShadow010)" d="M690 466H685.758L778.758 373H783L690 466Z"></path><path style="fill:var(--color-illustrationShadow010)" d="M708 466H703.758L796.758 373H801L708 466Z"></path><path style="fill:var(--color-illustrationShadow010)" d="M726 466H721.758L814.758 373H819L726 466Z"></path><path style="fill:var(--color-illustrationShadow010)" d="M744 466H739.758L832.758 373H837L744 466Z"></path><path style="fill:var(--color-illustrationShadow010)" d="M762 466H757.758L850.758 373H855L762 466Z"></path><path style="fill:var(--color-illustrationShadow010)" d="M780 466H775.758L868.758 373H873L780 466Z"></path><path style="fill:var(--color-illustrationShadow010)" d="M798 466H793.758L886.758 373H891L798 466Z"></path><path style="fill:var(--color-illustrationShadow010)" d="M816 466H811.758L904.758 373H909L816 466Z"></path><path style="fill:var(--color-illustrationShadow010)" d="M834 466H829.758L922.758 373H927L834 466Z"></path><path style="fill:var(--color-illustrationShadow010)" d="M852 466H847.758L940.758 373H945L852 466Z"></path><path style="fill:var(--color-illustrationShadow010)" d="M870 466H865.758L958.758 373H963L870 466Z"></path><path style="fill:var(--color-illustrationShadow010)" d="M888 466H883.758L976.758 373H981L888 466Z"></path><path style="fill:var(--color-illustrationShadow010)" d="M906 466H901.758L994.758 373H999L906 466Z"></path><path style="fill:var(--color-illustrationShadow010)" d="M924 466H919.758L1012.76 373H1017L924 466Z"></path><path style="fill:var(--color-illustrationShadow010)" d="M942 466H937.758L1030.76 373H1035L942 466Z"></path><path style="fill:var(--color-illustrationShadow010)" d="M960 466H955.758L1048.76 373H1053L960 466Z"></path><path style="fill:var(--color-illustrationShadow010)" d="M978 466H973.758L1066.76 373H1071L978 466Z"></path><path style="fill:var(--color-illustrationShadow010)" d="M996 466H991.758L1076 381.758V386L996 466Z"></path><path style="fill:var(--color-illustrationShadow010)" d="M1014 466H1009.76L1076 399.758V404L1014 466Z"></path><path style="fill:var(--color-illustrationShadow010)" d="M1032 466H1027.76L1076 417.758V422L1032 466Z"></path><path style="fill:var(--color-illustrationShadow010)" d="M1050 466H1045.76L1076 435.758V440L1050 466Z"></path><path style="fill:var(--color-illustrationShadow010)" d="M1068 466H1063.76L1076 453.758V458L1068 466Z"></path></g><path style="fill:var(--color-illustrationHighlight010)" d="M479.747 372.008V384.425H455.05V464.798H439.831V384.425H415V372.008H479.747Z"></path><path style="fill:var(--color-illustrationHighlight010)" d="M562.577 426.214C562.577 428.973 562.399 431.465 562.043 433.69H505.84C506.285 439.565 508.465 444.282 512.381 447.842C516.297 451.403 521.103 453.183 526.799 453.183C534.987 453.183 540.772 449.756 544.154 442.903H560.574C558.349 449.667 554.3 455.23 548.426 459.591C542.641 463.864 535.432 466 526.799 466C519.768 466 513.449 464.442 507.842 461.327C502.324 458.123 497.963 453.672 494.759 447.976C491.644 442.19 490.087 435.515 490.087 427.949C490.087 420.384 491.6 413.753 494.626 408.056C497.741 402.271 502.057 397.82 507.575 394.705C513.182 391.59 519.59 390.032 526.799 390.032C533.741 390.032 539.926 391.545 545.355 394.571C550.784 397.598 555.012 401.87 558.038 407.389C561.064 412.818 562.577 419.093 562.577 426.214ZM546.69 421.407C546.601 415.8 544.599 411.305 540.683 407.923C536.767 404.54 531.916 402.849 526.131 402.849C520.88 402.849 516.386 404.54 512.648 407.923C508.91 411.216 506.685 415.711 505.973 421.407H546.69Z"></path><path style="fill:var(--color-illustrationHighlight010)" d="M609.059 427.549L632.822 464.798H615.601L599.714 439.832L584.762 464.798H568.876L592.639 428.617L568.876 391.234H586.097L601.984 416.2L616.936 391.234H632.822L609.059 427.549Z"></path><path style="fill:var(--color-illustrationHighlight010)" d="M661.928 403.65V444.371C661.928 447.13 662.551 449.133 663.797 450.379C665.132 451.536 667.357 452.115 670.472 452.115H679.817V464.798H667.802C660.949 464.798 655.698 463.196 652.049 459.992C648.4 456.788 646.575 451.581 646.575 444.371V403.65H637.898V391.234H646.575V372.943H661.928V391.234H679.817V403.65H661.928Z"></path><path style="fill:var(--color-illustrationHighlight010)" d="M778.183 417.135C783.167 418.025 787.395 420.651 790.866 425.012C794.337 429.373 796.072 434.313 796.072 439.832C796.072 444.549 794.826 448.822 792.334 452.649C789.931 456.387 786.416 459.369 781.788 461.594C777.16 463.73 771.775 464.798 765.634 464.798H728.522V372.008H763.899C770.218 372.008 775.647 373.076 780.186 375.212C784.725 377.348 788.151 380.241 790.465 383.891C792.779 387.451 793.936 391.456 793.936 395.907C793.936 401.247 792.512 405.697 789.664 409.258C786.816 412.818 782.989 415.444 778.183 417.135ZM743.741 410.993H762.564C767.548 410.993 771.419 409.881 774.178 407.656C777.026 405.341 778.45 402.048 778.45 397.776C778.45 393.592 777.026 390.344 774.178 388.029C771.419 385.626 767.548 384.425 762.564 384.425H743.741V410.993ZM764.299 452.382C769.461 452.382 773.511 451.136 776.448 448.644C779.385 446.151 780.853 442.68 780.853 438.23C780.853 433.69 779.296 430.085 776.181 427.415C773.066 424.745 768.927 423.41 763.765 423.41H743.741V452.382H764.299Z"></path><path style="fill:var(--color-illustrationHighlight010)" d="M827.829 366V464.798H812.61V366H827.829Z"></path><path style="fill:var(--color-illustrationHighlight010)" d="M879.716 466C872.774 466 866.5 464.442 860.893 461.327C855.286 458.123 850.881 453.672 847.677 447.976C844.473 442.19 842.871 435.515 842.871 427.949C842.871 420.473 844.517 413.842 847.81 408.056C851.103 402.271 855.598 397.82 861.293 394.705C866.989 391.59 873.353 390.032 880.384 390.032C887.415 390.032 893.778 391.59 899.474 394.705C905.17 397.82 909.664 402.271 912.957 408.056C916.25 413.842 917.897 420.473 917.897 427.949C917.897 435.426 916.206 442.057 912.824 447.842C909.442 453.628 904.814 458.123 898.94 461.327C893.155 464.442 886.747 466 879.716 466ZM879.716 452.782C883.632 452.782 887.281 451.848 890.663 449.979C894.134 448.109 896.938 445.306 899.074 441.567C901.21 437.829 902.278 433.29 902.278 427.949C902.278 422.609 901.254 418.114 899.207 414.465C897.16 410.726 894.446 407.923 891.064 406.053C887.682 404.184 884.033 403.25 880.117 403.25C876.201 403.25 872.552 404.184 869.17 406.053C865.877 407.923 863.251 410.726 861.293 414.465C859.336 418.114 858.357 422.609 858.357 427.949C858.357 435.871 860.359 442.012 864.364 446.374C868.458 450.646 873.575 452.782 879.716 452.782Z"></path><path style="fill:var(--color-illustrationHighlight010)" d="M927.869 427.949C927.869 420.384 929.382 413.753 932.408 408.056C935.523 402.271 939.795 397.82 945.223 394.705C950.652 391.59 956.882 390.032 963.913 390.032C972.813 390.032 980.156 392.168 985.941 396.441C991.815 400.624 995.775 406.632 997.822 414.465H981.402C980.067 410.815 977.931 407.967 974.994 405.92C972.057 403.873 968.363 402.849 963.913 402.849C957.683 402.849 952.699 405.074 948.961 409.525C945.312 413.886 943.488 420.028 943.488 427.949C943.488 435.871 945.312 442.057 948.961 446.507C952.699 450.958 957.683 453.183 963.913 453.183C972.724 453.183 978.554 449.311 981.402 441.567H997.822C995.686 449.044 991.681 455.008 985.807 459.458C979.933 463.819 972.635 466 963.913 466C956.882 466 950.652 464.442 945.223 461.327C939.795 458.123 935.523 453.672 932.408 447.976C929.382 442.19 927.869 435.515 927.869 427.949Z"></path><path style="fill:var(--color-illustrationHighlight010)" d="M1042.09 428.083L1076 464.798H1055.44L1028.21 433.156V464.798H1012.99V366H1028.21V423.41L1054.91 391.234H1076L1042.09 428.083Z"></path><rect x="315" y="303" width="860" height="233" rx="88" stroke="#577FFB" stroke-width="6" stroke-linecap="round" stroke-dasharray="10 20"></rect></g><defs><clipPath id="nk-985"><rect style="fill:var(--color-white)" width="1490" height="838"></rect></clipPath></defs></svg>