<svg
  id="nksvg"
  style="width: 100%; height: 100%"
  width="1490"
  height="838"
  viewBox="0 0 1490 838"
  fill="none"
  xmlns="http://www.w3.org/2000/svg"
  class="css-0"
>
  <rect
    style="fill: var(--color-illustrationBackground020)"
    width="1490"
    height="838"
  ></rect>
  <g filter="url(#nk-935)">
    <path
      style="fill: var(--color-illustrationInterface010)"
      fill-rule="evenodd"
      clip-rule="evenodd"
      d="M470.751 220C465.366 220 461 224.366 461 229.751V660.017C461 665.403 465.366 669.768 470.751 669.768H703.558L742.562 708.773L781.567 669.768H1019.25C1024.63 669.768 1029 665.403 1029 660.017V229.751C1029 224.366 1024.63 220 1019.25 220H470.751Z"
    ></path>
  </g>
  <path
    style="fill: var(--color-illustrationHighlight010)"
    d="M992.962 268.533L990.086 265.657L978.681 277.062L967.276 265.657L964.399 268.533L975.804 279.938L964.399 291.343L967.276 294.22L978.681 282.815L990.086 294.22L992.962 291.343L981.557 279.938L992.962 268.533Z"
  ></path>
  <path
    style="fill: var(--color-illustrationInterface020)"
    d="M497.893 458.492C497.893 454.906 500.799 452 504.385 452H980.903C984.489 452 987.395 454.906 987.395 458.492C987.395 462.077 984.489 464.983 980.903 464.983H504.385C500.799 464.983 497.893 462.077 497.893 458.492Z"
  ></path>
  <path
    style="fill: var(--color-illustrationInterface020)"
    d="M497.893 423.398C497.893 419.414 501.122 416.185 505.106 416.185H980.182C984.166 416.185 987.395 419.414 987.395 423.398C987.395 427.381 984.166 430.611 980.182 430.611H505.106C501.122 430.611 497.893 427.381 497.893 423.398Z"
  ></path>
  <path
    style="fill: var(--color-illustrationInterface020)"
    d="M497.894 388.054C497.894 384.468 500.8 381.562 504.385 381.562H738.545C742.13 381.562 745.036 384.468 745.036 388.054C745.036 391.639 742.13 394.545 738.545 394.545H504.385C500.8 394.545 497.894 391.639 497.894 388.054Z"
  ></path>
  <path
    style="fill: var(--color-illustrationInterface020)"
    d="M601.272 494.05C601.272 490.352 604.27 487.354 607.968 487.354H629.523C633.22 487.354 636.218 490.352 636.218 494.05C636.218 497.748 633.22 500.746 629.523 500.746H607.968C604.27 500.746 601.272 497.748 601.272 494.05Z"
  ></path>
  <path
    style="fill: var(--color-illustrationInterface020)"
    d="M497.89 494.05C497.89 490.352 500.888 487.354 504.586 487.354H574.191C577.889 487.354 580.887 490.352 580.887 494.05C580.887 497.748 577.889 500.746 574.191 500.746H504.586C500.888 500.746 497.89 497.748 497.89 494.05Z"
  ></path>
  <path
    style="fill: var(--color-illustrationHighlight010)"
    fill-rule="evenodd"
    clip-rule="evenodd"
    d="M987.395 336.159H497.89V334.74H987.395V336.159Z"
  ></path>
  <path
    style="fill: var(--color-illustrationHighlight010)"
    d="M751.865 590.843C751.865 572.428 766.794 557.5 785.209 557.5H961.147C979.561 557.5 994.49 572.428 994.49 590.843C994.49 609.258 979.562 624.186 961.147 624.186H785.209C766.794 624.186 751.865 609.258 751.865 590.843Z"
  ></path>
  <path
    style="fill: var(--color-illustrationHighlight010)"
    d="M517.591 264.606V269.651H510.843V290.461H504.639V269.651H497.89V264.606H517.591Z"
  ></path>
  <path
    style="fill: var(--color-illustrationHighlight010)"
    d="M523.825 267.773C522.736 267.773 521.841 267.454 521.14 266.816C520.463 266.153 520.124 265.342 520.124 264.385C520.124 263.403 520.463 262.592 521.14 261.954C521.841 261.291 522.736 260.959 523.825 260.959C524.889 260.959 525.76 261.291 526.437 261.954C527.138 262.592 527.489 263.403 527.489 264.385C527.489 265.342 527.138 266.153 526.437 266.816C525.76 267.454 524.889 267.773 523.825 267.773ZM526.908 269.909V290.461H520.704V269.909H526.908Z"
  ></path>
  <path
    style="fill: var(--color-illustrationHighlight010)"
    d="M542.688 285.12V290.461H539.531C537.282 290.461 535.528 289.908 534.271 288.803C533.013 287.674 532.384 285.845 532.384 283.316V275.139H529.917V269.909H532.384V264.9H538.588V269.909H542.652V275.139H538.588V283.389C538.588 284.003 538.733 284.445 539.023 284.715C539.314 284.985 539.797 285.12 540.475 285.12H542.688Z"
  ></path>
  <path
    style="fill: var(--color-illustrationHighlight010)"
    d="M552.348 263.206V290.461H546.144V263.206H552.348Z"
  ></path>
  <path
    style="fill: var(--color-illustrationHighlight010)"
    d="M575.927 279.854C575.927 280.443 575.891 281.057 575.818 281.695H561.778C561.875 282.972 562.274 283.954 562.975 284.642C563.701 285.305 564.583 285.636 565.624 285.636C567.172 285.636 568.248 284.973 568.853 283.647H575.456C575.117 284.998 574.5 286.213 573.605 287.293C572.735 288.374 571.634 289.221 570.304 289.835C568.973 290.449 567.486 290.755 565.841 290.755C563.858 290.755 562.092 290.326 560.544 289.466C558.996 288.607 557.787 287.379 556.916 285.783C556.045 284.187 555.61 282.321 555.61 280.185C555.61 278.049 556.033 276.183 556.88 274.587C557.751 272.991 558.96 271.763 560.508 270.904C562.056 270.044 563.834 269.615 565.841 269.615C567.8 269.615 569.542 270.032 571.066 270.867C572.589 271.702 573.775 272.893 574.621 274.439C575.492 275.986 575.927 277.791 575.927 279.854ZM569.578 278.196C569.578 277.116 569.215 276.256 568.49 275.618C567.764 274.98 566.857 274.66 565.769 274.66C564.729 274.66 563.846 274.967 563.12 275.581C562.419 276.195 561.983 277.067 561.814 278.196H569.578Z"
  ></path>
  <path
    style="fill: var(--color-illustrationHighlight010)"
    fill-rule="evenodd"
    clip-rule="evenodd"
    d="M421.98 668.842L381 668.842L381 665L399 665L399 224.842L381 224.842L381 221L421.98 221L421.98 224.842L403 224.842L403 665L421.98 665L421.98 668.842Z"
  ></path>
  <path
    style="fill: var(--color-illustrationHighlight010)"
    fill-rule="evenodd"
    clip-rule="evenodd"
    d="M460 184.98L460 144L463.842 144L463.842 162L1023 162L1023 144L1026.84 144L1026.84 184.98L1023 184.98L1023 166L463.842 166L463.842 184.98L460 184.98Z"
  ></path>
  <path
    style="fill: var(--color-illustrationHighlight010)"
    d="M690.228 107.96C691.701 107.96 693.016 108.266 694.172 108.878C695.351 109.49 696.269 110.396 696.926 111.598C697.606 112.799 697.946 114.25 697.946 115.95V127H694.104V116.528C694.104 114.85 693.685 113.57 692.846 112.686C692.007 111.779 690.863 111.326 689.412 111.326C687.961 111.326 686.805 111.779 685.944 112.686C685.105 113.57 684.686 114.85 684.686 116.528V127H680.844V116.528C680.844 114.85 680.425 113.57 679.586 112.686C678.747 111.779 677.603 111.326 676.152 111.326C674.701 111.326 673.545 111.779 672.684 112.686C671.845 113.57 671.426 114.85 671.426 116.528V127H667.55V108.266H671.426V110.408C672.061 109.637 672.865 109.036 673.84 108.606C674.815 108.175 675.857 107.96 676.968 107.96C678.464 107.96 679.801 108.277 680.98 108.912C682.159 109.546 683.065 110.464 683.7 111.666C684.267 110.532 685.151 109.637 686.352 108.98C687.553 108.3 688.845 107.96 690.228 107.96Z"
  ></path>
  <path
    style="fill: var(--color-illustrationHighlight010)"
    d="M704.85 105.784C704.148 105.784 703.558 105.546 703.082 105.07C702.606 104.594 702.368 104.004 702.368 103.302C702.368 102.599 702.606 102.01 703.082 101.534C703.558 101.058 704.148 100.82 704.85 100.82C705.53 100.82 706.108 101.058 706.584 101.534C707.06 102.01 707.298 102.599 707.298 103.302C707.298 104.004 707.06 104.594 706.584 105.07C706.108 105.546 705.53 105.784 704.85 105.784ZM706.754 108.266V127H702.878V108.266H706.754Z"
  ></path>
  <path
    style="fill: var(--color-illustrationHighlight010)"
    d="M721.295 107.96C722.768 107.96 724.083 108.266 725.239 108.878C726.418 109.49 727.336 110.396 727.993 111.598C728.65 112.799 728.979 114.25 728.979 115.95V127H725.137V116.528C725.137 114.85 724.718 113.57 723.879 112.686C723.04 111.779 721.896 111.326 720.445 111.326C718.994 111.326 717.838 111.779 716.977 112.686C716.138 113.57 715.719 114.85 715.719 116.528V127H711.843V108.266H715.719V110.408C716.354 109.637 717.158 109.036 718.133 108.606C719.13 108.175 720.184 107.96 721.295 107.96Z"
  ></path>
  <path
    style="fill: var(--color-illustrationHighlight010)"
    d="M746.503 94.9038L737.255 132.95H733.447L742.661 94.9038H746.503Z"
  ></path>
  <path
    style="fill: var(--color-illustrationHighlight010)"
    d="M774.066 107.96C775.539 107.96 776.854 108.266 778.01 108.878C779.189 109.49 780.107 110.396 780.764 111.598C781.444 112.799 781.784 114.25 781.784 115.95V127H777.942V116.528C777.942 114.85 777.523 113.57 776.684 112.686C775.845 111.779 774.701 111.326 773.25 111.326C771.799 111.326 770.643 111.779 769.782 112.686C768.943 113.57 768.524 114.85 768.524 116.528V127H764.682V116.528C764.682 114.85 764.263 113.57 763.424 112.686C762.585 111.779 761.441 111.326 759.99 111.326C758.539 111.326 757.383 111.779 756.522 112.686C755.683 113.57 755.264 114.85 755.264 116.528V127H751.388V108.266H755.264V110.408C755.899 109.637 756.703 109.036 757.678 108.606C758.653 108.175 759.695 107.96 760.806 107.96C762.302 107.96 763.639 108.277 764.818 108.912C765.997 109.546 766.903 110.464 767.538 111.666C768.105 110.532 768.989 109.637 770.19 108.98C771.391 108.3 772.683 107.96 774.066 107.96Z"
  ></path>
  <path
    style="fill: var(--color-illustrationHighlight010)"
    d="M785.424 117.548C785.424 115.666 785.809 114 786.58 112.55C787.373 111.099 788.439 109.977 789.776 109.184C791.136 108.368 792.632 107.96 794.264 107.96C795.737 107.96 797.018 108.254 798.106 108.844C799.217 109.41 800.101 110.124 800.758 110.986V108.266H804.668V127H800.758V124.212C800.101 125.096 799.205 125.832 798.072 126.422C796.939 127.011 795.647 127.306 794.196 127.306C792.587 127.306 791.113 126.898 789.776 126.082C788.439 125.243 787.373 124.087 786.58 122.614C785.809 121.118 785.424 119.429 785.424 117.548ZM800.758 117.616C800.758 116.324 800.486 115.202 799.942 114.25C799.421 113.298 798.729 112.572 797.868 112.074C797.007 111.575 796.077 111.326 795.08 111.326C794.083 111.326 793.153 111.575 792.292 112.074C791.431 112.55 790.728 113.264 790.184 114.216C789.663 115.145 789.402 116.256 789.402 117.548C789.402 118.84 789.663 119.973 790.184 120.948C790.728 121.922 791.431 122.67 792.292 123.192C793.176 123.69 794.105 123.94 795.08 123.94C796.077 123.94 797.007 123.69 797.868 123.192C798.729 122.693 799.421 121.968 799.942 121.016C800.486 120.041 800.758 118.908 800.758 117.616Z"
  ></path>
  <path
    style="fill: var(--color-illustrationHighlight010)"
    d="M817.783 117.514L823.835 127H819.449L815.403 120.642L811.595 127H807.549L813.601 117.786L807.549 108.266H811.935L815.981 114.624L819.789 108.266H823.835L817.783 117.514Z"
  ></path>
  <path
    style="fill: var(--color-illustrationHighlight010)"
    d="M285.258 447.548C285.258 445.667 285.643 444.001 286.414 442.55C287.207 441.099 288.273 439.977 289.61 439.184C290.97 438.368 292.466 437.96 294.098 437.96C295.571 437.96 296.852 438.255 297.94 438.844C299.051 439.411 299.935 440.125 300.592 440.986V438.266H304.502V457H300.592V454.212C299.935 455.096 299.039 455.833 297.906 456.422C296.773 457.011 295.481 457.306 294.03 457.306C292.421 457.306 290.947 456.898 289.61 456.082C288.273 455.243 287.207 454.087 286.414 452.614C285.643 451.118 285.258 449.429 285.258 447.548ZM300.592 447.616C300.592 446.324 300.32 445.202 299.776 444.25C299.255 443.298 298.563 442.573 297.702 442.074C296.841 441.575 295.911 441.326 294.914 441.326C293.917 441.326 292.987 441.575 292.126 442.074C291.265 442.55 290.562 443.264 290.018 444.216C289.497 445.145 289.236 446.256 289.236 447.548C289.236 448.84 289.497 449.973 290.018 450.948C290.562 451.923 291.265 452.671 292.126 453.192C293.01 453.691 293.939 453.94 294.914 453.94C295.911 453.94 296.841 453.691 297.702 453.192C298.563 452.693 299.255 451.968 299.776 451.016C300.32 450.041 300.592 448.908 300.592 447.616Z"
  ></path>
  <path
    style="fill: var(--color-illustrationHighlight010)"
    d="M326.559 438.266V457H322.683V454.79C322.071 455.561 321.266 456.173 320.269 456.626C319.294 457.057 318.252 457.272 317.141 457.272C315.668 457.272 314.342 456.966 313.163 456.354C312.007 455.742 311.089 454.835 310.409 453.634C309.752 452.433 309.423 450.982 309.423 449.282V438.266H313.265V448.704C313.265 450.381 313.684 451.673 314.523 452.58C315.362 453.464 316.506 453.906 317.957 453.906C319.408 453.906 320.552 453.464 321.391 452.58C322.252 451.673 322.683 450.381 322.683 448.704V438.266H326.559Z"
  ></path>
  <path
    style="fill: var(--color-illustrationHighlight010)"
    d="M336.195 441.428V451.798C336.195 452.501 336.354 453.011 336.671 453.328C337.011 453.623 337.578 453.77 338.371 453.77H340.751V457H337.691C335.946 457 334.608 456.592 333.679 455.776C332.75 454.96 332.285 453.634 332.285 451.798V441.428H330.075V438.266H332.285V433.608H336.195V438.266H340.751V441.428H336.195Z"
  ></path>
  <path
    style="fill: var(--color-illustrationHighlight010)"
    d="M352.449 457.306C350.681 457.306 349.083 456.909 347.655 456.116C346.227 455.3 345.105 454.167 344.289 452.716C343.473 451.243 343.065 449.543 343.065 447.616C343.065 445.712 343.485 444.023 344.323 442.55C345.162 441.077 346.307 439.943 347.757 439.15C349.208 438.357 350.829 437.96 352.619 437.96C354.41 437.96 356.031 438.357 357.481 439.15C358.932 439.943 360.077 441.077 360.915 442.55C361.754 444.023 362.173 445.712 362.173 447.616C362.173 449.52 361.743 451.209 360.881 452.682C360.02 454.155 358.841 455.3 357.345 456.116C355.872 456.909 354.24 457.306 352.449 457.306ZM352.449 453.94C353.447 453.94 354.376 453.702 355.237 453.226C356.121 452.75 356.835 452.036 357.379 451.084C357.923 450.132 358.195 448.976 358.195 447.616C358.195 446.256 357.935 445.111 357.413 444.182C356.892 443.23 356.201 442.516 355.339 442.04C354.478 441.564 353.549 441.326 352.551 441.326C351.554 441.326 350.625 441.564 349.763 442.04C348.925 442.516 348.256 443.23 347.757 444.182C347.259 445.111 347.009 446.256 347.009 447.616C347.009 449.633 347.519 451.197 348.539 452.308C349.582 453.396 350.885 453.94 352.449 453.94Z"
  ></path>
  <defs>
    <filter
      id="nk-935"
      x="431.747"
      y="210.249"
      width="626.506"
      height="547.279"
      filterUnits="userSpaceOnUse"
      color-interpolation-filters="sRGB"
    >
      <feFlood flood-opacity="0" result="BackgroundImageFix"></feFlood>
      <feColorMatrix
        in="SourceAlpha"
        type="matrix"
        values="0 0 0 0 0 0 0 0 0 0 0 0 0 0 0 0 0 0 127 0"
        result="hardAlpha"
      ></feColorMatrix>
      <feOffset dy="19.5021"></feOffset>
      <feGaussianBlur stdDeviation="14.6266"></feGaussianBlur>
      <feColorMatrix
        type="matrix"
        values="0 0 0 0 0.0392157 0 0 0 0 0.0392157 0 0 0 0 0.0392157 0 0 0 0.08 0"
      ></feColorMatrix>
      <feBlend
        mode="normal"
        in2="BackgroundImageFix"
        result="effect1_dropShadow_1870_59333"
      ></feBlend>
      <feBlend
        mode="normal"
        in="SourceGraphic"
        in2="effect1_dropShadow_1870_59333"
        result="shape"
      ></feBlend>
    </filter>
  </defs>
</svg>
