<svg id="nksvg" width="1490" height="842" viewBox="0 0 1490 842" fill="none" xmlns="http://www.w3.org/2000/svg">
<g clip-path="url(#clip0_2515_79246)">
<rect width="1490" height="841.451" fill="var(--color-illustrationInterface020)"></rect>
<path d="M879.581 707.789C879.581 719.177 815.573 728.409 736.616 728.409C657.659 728.409 593.651 719.177 593.651 707.789C593.651 696.401 657.659 687.169 736.616 687.169C815.573 687.169 879.581 696.401 879.581 707.789Z" fill="var(--color-illustrationPalette050)"></path>
<path d="M624.985 175.231C511.157 242.618 471.383 390.489 536.147 505.511C600.91 620.533 745.687 659.148 859.515 591.761C973.343 524.374 1013.12 376.503 948.354 261.481C883.59 146.459 738.813 107.844 624.985 175.231Z" fill="white"></path>
<path d="M624.877 175.117C511.11 242.442 471.433 390.314 536.257 505.397C601.081 620.481 745.858 659.197 859.625 591.872C973.393 524.547 1013.07 376.676 948.246 261.592C883.422 146.508 738.645 107.792 624.877 175.117Z" fill="#005B65"></path>
<path d="M562.57 228.211C579.811 207.624 600.714 189.598 624.983 175.23C661.79 153.44 701.833 142.734 741.361 142.11C765.988 143.613 789.332 147.161 808.531 150.905C862.136 166.092 910.318 200.513 942.28 251.288C947.72 260.72 953.039 271.076 958.15 282.445C961.88 290.741 965.175 298.84 968.058 306.746C987.604 368.204 981.414 434.374 953.431 490.604C944.297 503.609 933.588 515.199 921.926 525.466C866.961 573.86 800.237 590.164 746.848 576.27C720.993 569.542 705.825 547.986 687.639 522.14C668.271 494.614 645.479 462.222 602.707 437.695C535.511 399.16 533.901 297.46 562.57 228.211Z" fill="var(--color-illustrationPalette070)"></path>
<path d="M755.136 142.301C749.11 145.76 743.845 149.792 739.477 154.255C737.753 156.017 735.995 157.806 734.211 159.62C703.191 191.181 664.454 230.592 663.869 270.583C663.251 312.873 689.269 341.738 721.458 374.626C732.353 385.758 741.224 400.451 749.88 414.788C765.025 439.874 779.511 463.869 803.035 465.788C804.903 465.94 892.292 466.911 936.276 428.803C961.121 407.276 972.464 380.057 977.914 353.136C974.407 321.706 964.717 290.545 948.352 261.481C906.968 187.981 832.911 145.68 755.136 142.301Z" fill="var(--color-illustrationPalette040)"></path>
<path d="M836.785 160.914C831.391 163.319 826.808 166.45 823.257 170.078C822.268 171.089 821.259 172.116 820.235 173.157C802.434 191.268 780.204 213.885 779.868 236.834C779.514 261.103 794.444 277.668 812.916 296.541C819.169 302.929 824.26 311.361 829.227 319.588C837.918 333.984 846.231 347.754 859.731 348.855C860.802 348.943 910.952 349.5 936.193 327.631C950.228 315.47 956.755 300.144 959.939 284.931C956.537 276.99 952.678 269.162 948.353 261.48C921.953 214.595 882.259 180.404 836.785 160.914Z" fill="var(--color-illustrationPalette030)"></path>
<path fill-rule="evenodd" clip-rule="evenodd" d="M871.773 309.327L847.564 285.107L697.731 435.001L626.764 364.005L602.555 388.224L697.683 483.392L698.493 482.581L698.542 482.629L871.773 309.327Z" fill="var(--color-white)"></path>
</g>
<defs>
<clipPath id="clip0_2515_79246">
<rect width="1490" height="841.451" fill="white"></rect>
</clipPath>
</defs>
</svg>
