<svg id="components-text-block-options-render" style="width: 100%; height: 100%" width="1491" height="839" viewBox="0 0 1491 839" fill="none" xmlns="http://www.w3.org/2000/svg" class="css-0"><path style="fill:var(--color-illustrationBackground020)" d="M0 4.00001C0 1.79087 1.79086 0 4 0H1486.72C1488.93 0 1490.72 1.79086 1490.72 4V834.004C1490.72 836.213 1488.93 838.004 1486.72 838.004H4.00002C1.79088 838.004 0 836.213 0 834.004V4.00001Z"></path><g clip-path="url(#nk-1493)"><path style="fill:var(--color-illustrationInterface020)" d="M131 332H690V560H131V332Z"></path><g opacity="0.25"><path style="fill:var(--color-illustrationShadow010)" fill-rule="evenodd" clip-rule="evenodd" d="M183 289L-210 682L-212.121 679.879L180.879 286.879L183 289Z"></path><path style="fill:var(--color-illustrationShadow010)" fill-rule="evenodd" clip-rule="evenodd" d="M201 289L-192 682L-194.121 679.879L198.879 286.879L201 289Z"></path><path style="fill:var(--color-illustrationShadow010)" fill-rule="evenodd" clip-rule="evenodd" d="M219 289L-174 682L-176.121 679.879L216.879 286.879L219 289Z"></path><path style="fill:var(--color-illustrationShadow010)" fill-rule="evenodd" clip-rule="evenodd" d="M237 289L-156 682L-158.121 679.879L234.879 286.879L237 289Z"></path><path style="fill:var(--color-illustrationShadow010)" fill-rule="evenodd" clip-rule="evenodd" d="M255 289L-138 682L-140.121 679.879L252.879 286.879L255 289Z"></path><path style="fill:var(--color-illustrationShadow010)" fill-rule="evenodd" clip-rule="evenodd" d="M273 289L-120 682L-122.121 679.879L270.879 286.879L273 289Z"></path><path style="fill:var(--color-illustrationShadow010)" fill-rule="evenodd" clip-rule="evenodd" d="M291 289L-102 682L-104.121 679.879L288.879 286.879L291 289Z"></path><path style="fill:var(--color-illustrationShadow010)" fill-rule="evenodd" clip-rule="evenodd" d="M309 289L-83.9998 682L-86.1211 679.879L306.879 286.879L309 289Z"></path><path style="fill:var(--color-illustrationShadow010)" fill-rule="evenodd" clip-rule="evenodd" d="M327 289L-65.9998 682L-68.1211 679.879L324.879 286.879L327 289Z"></path><path style="fill:var(--color-illustrationShadow010)" fill-rule="evenodd" clip-rule="evenodd" d="M345 289L-47.9998 682L-50.1211 679.879L342.879 286.879L345 289Z"></path><path style="fill:var(--color-illustrationShadow010)" fill-rule="evenodd" clip-rule="evenodd" d="M363 289L-29.9998 682L-32.1211 679.879L360.879 286.879L363 289Z"></path><path style="fill:var(--color-illustrationShadow010)" fill-rule="evenodd" clip-rule="evenodd" d="M381 289L-11.9998 682L-14.1211 679.879L378.879 286.879L381 289Z"></path><path style="fill:var(--color-illustrationShadow010)" fill-rule="evenodd" clip-rule="evenodd" d="M399 289L6.00023 682L3.87891 679.879L396.879 286.879L399 289Z"></path><path style="fill:var(--color-illustrationShadow010)" fill-rule="evenodd" clip-rule="evenodd" d="M417 289L24.0002 682L21.8789 679.879L414.879 286.879L417 289Z"></path><path style="fill:var(--color-illustrationShadow010)" fill-rule="evenodd" clip-rule="evenodd" d="M435 289L42.0002 682L39.8789 679.879L432.879 286.879L435 289Z"></path><path style="fill:var(--color-illustrationShadow010)" fill-rule="evenodd" clip-rule="evenodd" d="M453 289L60.0002 682L57.8789 679.879L450.879 286.879L453 289Z"></path><path style="fill:var(--color-illustrationShadow010)" fill-rule="evenodd" clip-rule="evenodd" d="M471 289L78.0002 682L75.8789 679.879L468.879 286.879L471 289Z"></path><path style="fill:var(--color-illustrationShadow010)" fill-rule="evenodd" clip-rule="evenodd" d="M489 289L96.0002 682L93.8789 679.879L486.879 286.879L489 289Z"></path><path style="fill:var(--color-illustrationShadow010)" fill-rule="evenodd" clip-rule="evenodd" d="M507 289L114 682L111.879 679.879L504.879 286.879L507 289Z"></path><path style="fill:var(--color-illustrationShadow010)" fill-rule="evenodd" clip-rule="evenodd" d="M525 289L132 682L129.879 679.879L522.879 286.879L525 289Z"></path><path style="fill:var(--color-illustrationShadow010)" fill-rule="evenodd" clip-rule="evenodd" d="M543 289L150 682L147.879 679.879L540.879 286.879L543 289Z"></path><path style="fill:var(--color-illustrationShadow010)" fill-rule="evenodd" clip-rule="evenodd" d="M561 289L168 682L165.879 679.879L558.879 286.879L561 289Z"></path><path style="fill:var(--color-illustrationShadow010)" fill-rule="evenodd" clip-rule="evenodd" d="M579 289L186 682L183.879 679.879L576.879 286.879L579 289Z"></path><path style="fill:var(--color-illustrationShadow010)" fill-rule="evenodd" clip-rule="evenodd" d="M597 289L204 682L201.879 679.879L594.879 286.879L597 289Z"></path><path style="fill:var(--color-illustrationShadow010)" fill-rule="evenodd" clip-rule="evenodd" d="M615 289L222 682L219.879 679.879L612.879 286.879L615 289Z"></path><path style="fill:var(--color-illustrationShadow010)" fill-rule="evenodd" clip-rule="evenodd" d="M633 289L240 682L237.879 679.879L630.879 286.879L633 289Z"></path><path style="fill:var(--color-illustrationShadow010)" fill-rule="evenodd" clip-rule="evenodd" d="M651 289L258 682L255.879 679.879L648.879 286.879L651 289Z"></path><path style="fill:var(--color-illustrationShadow010)" fill-rule="evenodd" clip-rule="evenodd" d="M669 289L276 682L273.879 679.879L666.879 286.879L669 289Z"></path><path style="fill:var(--color-illustrationShadow010)" fill-rule="evenodd" clip-rule="evenodd" d="M687 289L294 682L291.879 679.879L684.879 286.879L687 289Z"></path><path style="fill:var(--color-illustrationShadow010)" fill-rule="evenodd" clip-rule="evenodd" d="M705 289L312 682L309.879 679.879L702.879 286.879L705 289Z"></path><path style="fill:var(--color-illustrationShadow010)" fill-rule="evenodd" clip-rule="evenodd" d="M723 289L330 682L327.879 679.879L720.879 286.879L723 289Z"></path><path style="fill:var(--color-illustrationShadow010)" fill-rule="evenodd" clip-rule="evenodd" d="M741 289L348 682L345.879 679.879L738.879 286.879L741 289Z"></path><path style="fill:var(--color-illustrationShadow010)" fill-rule="evenodd" clip-rule="evenodd" d="M759 289L366 682L363.879 679.879L756.879 286.879L759 289Z"></path><path style="fill:var(--color-illustrationShadow010)" fill-rule="evenodd" clip-rule="evenodd" d="M777 289L384 682L381.879 679.879L774.879 286.879L777 289Z"></path><path style="fill:var(--color-illustrationShadow010)" fill-rule="evenodd" clip-rule="evenodd" d="M795 289L402 682L399.879 679.879L792.879 286.879L795 289Z"></path><path style="fill:var(--color-illustrationShadow010)" fill-rule="evenodd" clip-rule="evenodd" d="M813 289L420 682L417.879 679.879L810.879 286.879L813 289Z"></path><path style="fill:var(--color-illustrationShadow010)" fill-rule="evenodd" clip-rule="evenodd" d="M831 289L438 682L435.879 679.879L828.879 286.879L831 289Z"></path><path style="fill:var(--color-illustrationShadow010)" fill-rule="evenodd" clip-rule="evenodd" d="M849 289L456 682L453.879 679.879L846.879 286.879L849 289Z"></path><path style="fill:var(--color-illustrationShadow010)" fill-rule="evenodd" clip-rule="evenodd" d="M867 289L474 682L471.879 679.879L864.879 286.879L867 289Z"></path><path style="fill:var(--color-illustrationShadow010)" fill-rule="evenodd" clip-rule="evenodd" d="M885 289L492 682L489.879 679.879L882.879 286.879L885 289Z"></path><path style="fill:var(--color-illustrationShadow010)" fill-rule="evenodd" clip-rule="evenodd" d="M903 289L510 682L507.879 679.879L900.879 286.879L903 289Z"></path><path style="fill:var(--color-illustrationShadow010)" fill-rule="evenodd" clip-rule="evenodd" d="M921 289L528 682L525.879 679.879L918.879 286.879L921 289Z"></path><path style="fill:var(--color-illustrationShadow010)" fill-rule="evenodd" clip-rule="evenodd" d="M939 289L546 682L543.879 679.879L936.879 286.879L939 289Z"></path><path style="fill:var(--color-illustrationShadow010)" fill-rule="evenodd" clip-rule="evenodd" d="M957 289L564 682L561.879 679.879L954.879 286.879L957 289Z"></path><path style="fill:var(--color-illustrationShadow010)" fill-rule="evenodd" clip-rule="evenodd" d="M975 289L582 682L579.879 679.879L972.879 286.879L975 289Z"></path><path style="fill:var(--color-illustrationShadow010)" fill-rule="evenodd" clip-rule="evenodd" d="M993 289L600 682L597.879 679.879L990.879 286.879L993 289Z"></path><path style="fill:var(--color-illustrationShadow010)" fill-rule="evenodd" clip-rule="evenodd" d="M1011 289L618 682L615.879 679.879L1008.88 286.879L1011 289Z"></path><path style="fill:var(--color-illustrationShadow010)" fill-rule="evenodd" clip-rule="evenodd" d="M1029 289L636 682L633.879 679.879L1026.88 286.879L1029 289Z"></path><path style="fill:var(--color-illustrationShadow010)" fill-rule="evenodd" clip-rule="evenodd" d="M1047 289L654 682L651.879 679.879L1044.88 286.879L1047 289Z"></path><path style="fill:var(--color-illustrationShadow010)" fill-rule="evenodd" clip-rule="evenodd" d="M1065 289L672 682L669.879 679.879L1062.88 286.879L1065 289Z"></path><path style="fill:var(--color-illustrationShadow010)" fill-rule="evenodd" clip-rule="evenodd" d="M1083 289L690 682L687.879 679.879L1080.88 286.879L1083 289Z"></path><path style="fill:var(--color-illustrationShadow010)" fill-rule="evenodd" clip-rule="evenodd" d="M1101 289L708 682L705.879 679.879L1098.88 286.879L1101 289Z"></path><path style="fill:var(--color-illustrationShadow010)" fill-rule="evenodd" clip-rule="evenodd" d="M1119 289L726 682L723.879 679.879L1116.88 286.879L1119 289Z"></path><path style="fill:var(--color-illustrationShadow010)" fill-rule="evenodd" clip-rule="evenodd" d="M1137 289L744 682L741.879 679.879L1134.88 286.879L1137 289Z"></path><path style="fill:var(--color-illustrationShadow010)" fill-rule="evenodd" clip-rule="evenodd" d="M1155 289L762 682L759.879 679.879L1152.88 286.879L1155 289Z"></path><path style="fill:var(--color-illustrationShadow010)" fill-rule="evenodd" clip-rule="evenodd" d="M1173 289L780 682L777.879 679.879L1170.88 286.879L1173 289Z"></path><path style="fill:var(--color-illustrationShadow010)" fill-rule="evenodd" clip-rule="evenodd" d="M1191 289L798 682L795.879 679.879L1188.88 286.879L1191 289Z"></path><path style="fill:var(--color-illustrationShadow010)" fill-rule="evenodd" clip-rule="evenodd" d="M1209 289L816 682L813.879 679.879L1206.88 286.879L1209 289Z"></path><path style="fill:var(--color-illustrationShadow010)" fill-rule="evenodd" clip-rule="evenodd" d="M1227 289L834 682L831.879 679.879L1224.88 286.879L1227 289Z"></path><path style="fill:var(--color-illustrationShadow010)" fill-rule="evenodd" clip-rule="evenodd" d="M1245 289L852 682L849.879 679.879L1242.88 286.879L1245 289Z"></path><path style="fill:var(--color-illustrationShadow010)" fill-rule="evenodd" clip-rule="evenodd" d="M1263 289L870 682L867.879 679.879L1260.88 286.879L1263 289Z"></path><path style="fill:var(--color-illustrationShadow010)" fill-rule="evenodd" clip-rule="evenodd" d="M1281 289L888 682L885.879 679.879L1278.88 286.879L1281 289Z"></path><path style="fill:var(--color-illustrationShadow010)" fill-rule="evenodd" clip-rule="evenodd" d="M1299 289L906 682L903.879 679.879L1296.88 286.879L1299 289Z"></path><path style="fill:var(--color-illustrationShadow010)" fill-rule="evenodd" clip-rule="evenodd" d="M1317 289L924 682L921.879 679.879L1314.88 286.879L1317 289Z"></path><path style="fill:var(--color-illustrationShadow010)" fill-rule="evenodd" clip-rule="evenodd" d="M1335 289L942 682L939.879 679.879L1332.88 286.879L1335 289Z"></path><path style="fill:var(--color-illustrationShadow010)" fill-rule="evenodd" clip-rule="evenodd" d="M1353 289L960 682L957.879 679.879L1350.88 286.879L1353 289Z"></path><path style="fill:var(--color-illustrationShadow010)" fill-rule="evenodd" clip-rule="evenodd" d="M1371 289L978 682L975.879 679.879L1368.88 286.879L1371 289Z"></path><path style="fill:var(--color-illustrationShadow010)" fill-rule="evenodd" clip-rule="evenodd" d="M1389 289L996 682L993.879 679.879L1386.88 286.879L1389 289Z"></path><path style="fill:var(--color-illustrationShadow010)" fill-rule="evenodd" clip-rule="evenodd" d="M1407 289L1014 682L1011.88 679.879L1404.88 286.879L1407 289Z"></path><path style="fill:var(--color-illustrationShadow010)" fill-rule="evenodd" clip-rule="evenodd" d="M1425 289L1032 682L1029.88 679.879L1422.88 286.879L1425 289Z"></path></g></g><path style="fill:var(--color-illustrationPalette040)" fill-rule="evenodd" clip-rule="evenodd" d="M141.789 364C138.04 364 135 367.041 135 370.791C135 374.542 138.04 377.582 141.789 377.582H678.128C681.877 377.582 684.917 374.542 684.917 370.791C684.917 367.041 681.877 364 678.128 364H141.789ZM141.79 399.314C138.04 399.314 135.001 402.355 135.001 406.106C135.001 409.856 138.04 412.897 141.79 412.897H562.714C566.463 412.897 569.503 409.856 569.503 406.106C569.503 402.355 566.463 399.314 562.714 399.314H141.79ZM141.79 469.943C138.04 469.943 135.001 472.984 135.001 476.734C135.001 480.485 138.04 483.526 141.79 483.526H678.128C681.878 483.526 684.918 480.485 684.918 476.734C684.918 472.984 681.878 469.943 678.128 469.943H141.79ZM135.001 547.363C135.001 543.612 138.04 540.572 141.79 540.572H678.128C681.878 540.572 684.918 543.612 684.918 547.363C684.918 551.114 681.878 554.154 678.128 554.154H141.79C138.04 554.154 135.001 551.114 135.001 547.363ZM141.79 434.629C138.04 434.629 135.001 437.669 135.001 441.42C135.001 445.171 138.04 448.211 141.79 448.211H678.128C681.878 448.211 684.918 445.171 684.918 441.42C684.918 437.669 681.878 434.629 678.128 434.629H141.79ZM135.001 512.049C135.001 508.298 138.04 505.257 141.79 505.257H678.128C681.878 505.257 684.918 508.298 684.918 512.049C684.918 515.799 681.878 518.84 678.128 518.84H141.79C138.04 518.84 135.001 515.799 135.001 512.049Z"></path><path style="fill:var(--color-illustrationHighlight010)" d="M159.85 312.35H145.95L143.65 319H136.3L148.85 284.05H157L169.55 319H162.15L159.85 312.35ZM157.95 306.75L152.9 292.15L147.85 306.75H157.95Z"></path><path style="fill:var(--color-illustrationHighlight010)" d="M184.841 319.45C182.574 319.45 180.541 319.05 178.741 318.25C176.941 317.416 175.508 316.3 174.441 314.9C173.408 313.5 172.841 311.95 172.741 310.25H179.791C179.924 311.316 180.441 312.2 181.341 312.9C182.274 313.6 183.424 313.95 184.791 313.95C186.124 313.95 187.158 313.683 187.891 313.15C188.658 312.616 189.041 311.933 189.041 311.1C189.041 310.2 188.574 309.533 187.641 309.1C186.741 308.633 185.291 308.133 183.291 307.6C181.224 307.1 179.524 306.583 178.191 306.05C176.891 305.516 175.758 304.7 174.791 303.6C173.858 302.5 173.391 301.016 173.391 299.15C173.391 297.616 173.824 296.216 174.691 294.95C175.591 293.683 176.858 292.683 178.491 291.95C180.158 291.216 182.108 290.85 184.341 290.85C187.641 290.85 190.274 291.683 192.241 293.35C194.208 294.983 195.291 297.2 195.491 300H188.791C188.691 298.9 188.224 298.033 187.391 297.4C186.591 296.733 185.508 296.4 184.141 296.4C182.874 296.4 181.891 296.633 181.191 297.1C180.524 297.566 180.191 298.216 180.191 299.05C180.191 299.983 180.658 300.7 181.591 301.2C182.524 301.666 183.974 302.15 185.941 302.65C187.941 303.15 189.591 303.666 190.891 304.2C192.191 304.733 193.308 305.566 194.241 306.7C195.208 307.8 195.708 309.266 195.741 311.1C195.741 312.7 195.291 314.133 194.391 315.4C193.524 316.666 192.258 317.666 190.591 318.4C188.958 319.1 187.041 319.45 184.841 319.45Z"></path><path style="fill:var(--color-illustrationHighlight010)" d="M229.001 290.9C231.101 290.9 232.968 291.366 234.601 292.3C236.235 293.2 237.501 294.55 238.401 296.35C239.335 298.116 239.801 300.25 239.801 302.75V319H232.801V303.7C232.801 301.5 232.251 299.816 231.151 298.65C230.051 297.45 228.551 296.85 226.651 296.85C224.718 296.85 223.185 297.45 222.051 298.65C220.951 299.816 220.401 301.5 220.401 303.7V319H213.401V282H220.401V294.75C221.301 293.55 222.501 292.616 224.001 291.95C225.501 291.25 227.168 290.9 229.001 290.9Z"></path><path style="fill:var(--color-illustrationHighlight010)" d="M272.208 304.55C272.208 305.55 272.141 306.45 272.008 307.25H251.758C251.925 309.25 252.625 310.816 253.858 311.95C255.091 313.083 256.608 313.65 258.408 313.65C261.008 313.65 262.858 312.533 263.958 310.3H271.508C270.708 312.966 269.175 315.166 266.908 316.9C264.641 318.6 261.858 319.45 258.558 319.45C255.891 319.45 253.491 318.866 251.358 317.7C249.258 316.5 247.608 314.816 246.408 312.65C245.241 310.483 244.658 307.983 244.658 305.15C244.658 302.283 245.241 299.766 246.408 297.6C247.575 295.433 249.208 293.766 251.308 292.6C253.408 291.433 255.825 290.85 258.558 290.85C261.191 290.85 263.541 291.416 265.608 292.55C267.708 293.683 269.325 295.3 270.458 297.4C271.625 299.466 272.208 301.85 272.208 304.55ZM264.958 302.55C264.925 300.75 264.275 299.316 263.008 298.25C261.741 297.15 260.191 296.6 258.358 296.6C256.625 296.6 255.158 297.133 253.958 298.2C252.791 299.233 252.075 300.683 251.808 302.55H264.958Z"></path><path style="fill:var(--color-illustrationHighlight010)" d="M275.517 305.05C275.517 302.25 276.067 299.766 277.167 297.6C278.301 295.433 279.817 293.766 281.717 292.6C283.651 291.433 285.801 290.85 288.167 290.85C290.234 290.85 292.034 291.266 293.567 292.1C295.134 292.933 296.384 293.983 297.317 295.25V291.3H304.367V319H297.317V314.95C296.417 316.25 295.167 317.333 293.567 318.2C292.001 319.033 290.184 319.45 288.117 319.45C285.784 319.45 283.651 318.85 281.717 317.65C279.817 316.45 278.301 314.766 277.167 312.6C276.067 310.4 275.517 307.883 275.517 305.05ZM297.317 305.15C297.317 303.45 296.984 302 296.317 300.8C295.651 299.566 294.751 298.633 293.617 298C292.484 297.333 291.267 297 289.967 297C288.667 297 287.467 297.316 286.367 297.95C285.267 298.583 284.367 299.516 283.667 300.75C283.001 301.95 282.667 303.383 282.667 305.05C282.667 306.716 283.001 308.183 283.667 309.45C284.367 310.683 285.267 311.633 286.367 312.3C287.501 312.966 288.701 313.3 289.967 313.3C291.267 313.3 292.484 312.983 293.617 312.35C294.751 311.683 295.651 310.75 296.317 309.55C296.984 308.316 297.317 306.85 297.317 305.15Z"></path><path style="fill:var(--color-illustrationHighlight010)" d="M309.404 305.05C309.404 302.25 309.954 299.766 311.054 297.6C312.187 295.433 313.721 293.766 315.654 292.6C317.587 291.433 319.737 290.85 322.104 290.85C323.904 290.85 325.621 291.25 327.254 292.05C328.887 292.816 330.187 293.85 331.154 295.15V282H338.254V319H331.154V314.9C330.287 316.266 329.071 317.366 327.504 318.2C325.937 319.033 324.121 319.45 322.054 319.45C319.721 319.45 317.587 318.85 315.654 317.65C313.721 316.45 312.187 314.766 311.054 312.6C309.954 310.4 309.404 307.883 309.404 305.05ZM331.204 305.15C331.204 303.45 330.871 302 330.204 300.8C329.537 299.566 328.637 298.633 327.504 298C326.371 297.333 325.154 297 323.854 297C322.554 297 321.354 297.316 320.254 297.95C319.154 298.583 318.254 299.516 317.554 300.75C316.887 301.95 316.554 303.383 316.554 305.05C316.554 306.716 316.887 308.183 317.554 309.45C318.254 310.683 319.154 311.633 320.254 312.3C321.387 312.966 322.587 313.3 323.854 313.3C325.154 313.3 326.371 312.983 327.504 312.35C328.637 311.683 329.537 310.75 330.204 309.55C330.871 308.316 331.204 306.85 331.204 305.15Z"></path><path style="fill:var(--color-illustrationHighlight010)" d="M348.641 288C347.407 288 346.374 287.616 345.541 286.85C344.741 286.05 344.341 285.066 344.341 283.9C344.341 282.733 344.741 281.766 345.541 281C346.374 280.2 347.407 279.8 348.641 279.8C349.874 279.8 350.891 280.2 351.691 281C352.524 281.766 352.941 282.733 352.941 283.9C352.941 285.066 352.524 286.05 351.691 286.85C350.891 287.616 349.874 288 348.641 288ZM352.091 291.3V319H345.091V291.3H352.091Z"></path><path style="fill:var(--color-illustrationHighlight010)" d="M374.357 290.9C377.657 290.9 380.323 291.95 382.357 294.05C384.39 296.116 385.407 299.016 385.407 302.75V319H378.407V303.7C378.407 301.5 377.857 299.816 376.757 298.65C375.657 297.45 374.157 296.85 372.257 296.85C370.323 296.85 368.79 297.45 367.657 298.65C366.557 299.816 366.007 301.5 366.007 303.7V319H359.007V291.3H366.007V294.75C366.94 293.55 368.123 292.616 369.557 291.95C371.023 291.25 372.623 290.9 374.357 290.9Z"></path><path style="fill:var(--color-illustrationHighlight010)" d="M402.913 290.85C404.98 290.85 406.797 291.266 408.363 292.1C409.93 292.9 411.163 293.95 412.063 295.25V291.3H419.113V319.2C419.113 321.766 418.597 324.05 417.563 326.05C416.53 328.083 414.98 329.683 412.913 330.85C410.847 332.05 408.347 332.65 405.413 332.65C401.48 332.65 398.247 331.733 395.713 329.9C393.213 328.066 391.797 325.566 391.463 322.4H398.413C398.78 323.666 399.563 324.666 400.763 325.4C401.997 326.166 403.48 326.55 405.213 326.55C407.247 326.55 408.897 325.933 410.163 324.7C411.43 323.5 412.063 321.666 412.063 319.2V314.9C411.163 316.2 409.913 317.283 408.313 318.15C406.747 319.016 404.947 319.45 402.913 319.45C400.58 319.45 398.447 318.85 396.513 317.65C394.58 316.45 393.047 314.766 391.913 312.6C390.813 310.4 390.263 307.883 390.263 305.05C390.263 302.25 390.813 299.766 391.913 297.6C393.047 295.433 394.563 293.766 396.463 292.6C398.397 291.433 400.547 290.85 402.913 290.85ZM412.063 305.15C412.063 303.45 411.73 302 411.063 300.8C410.397 299.566 409.497 298.633 408.363 298C407.23 297.333 406.013 297 404.713 297C403.413 297 402.213 297.316 401.113 297.95C400.013 298.583 399.113 299.516 398.413 300.75C397.747 301.95 397.413 303.383 397.413 305.05C397.413 306.716 397.747 308.183 398.413 309.45C399.113 310.683 400.013 311.633 401.113 312.3C402.247 312.966 403.447 313.3 404.713 313.3C406.013 313.3 407.23 312.983 408.363 312.35C409.497 311.683 410.397 310.75 411.063 309.55C411.73 308.316 412.063 306.85 412.063 305.15Z"></path><g clip-path="url(#nk-1494)"><path style="fill:var(--color-illustrationInterface020)" d="M800 336H1359V564H800V336Z"></path><g opacity="0.25"><path style="fill:var(--color-illustrationShadow010)" fill-rule="evenodd" clip-rule="evenodd" d="M852 293L459 686L456.879 683.879L849.879 290.879L852 293Z"></path><path style="fill:var(--color-illustrationShadow010)" fill-rule="evenodd" clip-rule="evenodd" d="M870 293L477 686L474.879 683.879L867.879 290.879L870 293Z"></path><path style="fill:var(--color-illustrationShadow010)" fill-rule="evenodd" clip-rule="evenodd" d="M888 293L495 686L492.879 683.879L885.879 290.879L888 293Z"></path><path style="fill:var(--color-illustrationShadow010)" fill-rule="evenodd" clip-rule="evenodd" d="M906 293L513 686L510.879 683.879L903.879 290.879L906 293Z"></path><path style="fill:var(--color-illustrationShadow010)" fill-rule="evenodd" clip-rule="evenodd" d="M924 293L531 686L528.879 683.879L921.879 290.879L924 293Z"></path><path style="fill:var(--color-illustrationShadow010)" fill-rule="evenodd" clip-rule="evenodd" d="M942 293L549 686L546.879 683.879L939.879 290.879L942 293Z"></path><path style="fill:var(--color-illustrationShadow010)" fill-rule="evenodd" clip-rule="evenodd" d="M960 293L567 686L564.879 683.879L957.879 290.879L960 293Z"></path><path style="fill:var(--color-illustrationShadow010)" fill-rule="evenodd" clip-rule="evenodd" d="M978 293L585 686L582.879 683.879L975.879 290.879L978 293Z"></path><path style="fill:var(--color-illustrationShadow010)" fill-rule="evenodd" clip-rule="evenodd" d="M996 293L603 686L600.879 683.879L993.879 290.879L996 293Z"></path><path style="fill:var(--color-illustrationShadow010)" fill-rule="evenodd" clip-rule="evenodd" d="M1014 293L621 686L618.879 683.879L1011.88 290.879L1014 293Z"></path><path style="fill:var(--color-illustrationShadow010)" fill-rule="evenodd" clip-rule="evenodd" d="M1032 293L639 686L636.879 683.879L1029.88 290.879L1032 293Z"></path><path style="fill:var(--color-illustrationShadow010)" fill-rule="evenodd" clip-rule="evenodd" d="M1050 293L657 686L654.879 683.879L1047.88 290.879L1050 293Z"></path><path style="fill:var(--color-illustrationShadow010)" fill-rule="evenodd" clip-rule="evenodd" d="M1068 293L675 686L672.879 683.879L1065.88 290.879L1068 293Z"></path><path style="fill:var(--color-illustrationShadow010)" fill-rule="evenodd" clip-rule="evenodd" d="M1086 293L693 686L690.879 683.879L1083.88 290.879L1086 293Z"></path><path style="fill:var(--color-illustrationShadow010)" fill-rule="evenodd" clip-rule="evenodd" d="M1104 293L711 686L708.879 683.879L1101.88 290.879L1104 293Z"></path><path style="fill:var(--color-illustrationShadow010)" fill-rule="evenodd" clip-rule="evenodd" d="M1122 293L729 686L726.879 683.879L1119.88 290.879L1122 293Z"></path><path style="fill:var(--color-illustrationShadow010)" fill-rule="evenodd" clip-rule="evenodd" d="M1140 293L747 686L744.879 683.879L1137.88 290.879L1140 293Z"></path><path style="fill:var(--color-illustrationShadow010)" fill-rule="evenodd" clip-rule="evenodd" d="M1158 293L765 686L762.879 683.879L1155.88 290.879L1158 293Z"></path><path style="fill:var(--color-illustrationShadow010)" fill-rule="evenodd" clip-rule="evenodd" d="M1176 293L783 686L780.879 683.879L1173.88 290.879L1176 293Z"></path><path style="fill:var(--color-illustrationShadow010)" fill-rule="evenodd" clip-rule="evenodd" d="M1194 293L801 686L798.879 683.879L1191.88 290.879L1194 293Z"></path><path style="fill:var(--color-illustrationShadow010)" fill-rule="evenodd" clip-rule="evenodd" d="M1212 293L819 686L816.879 683.879L1209.88 290.879L1212 293Z"></path><path style="fill:var(--color-illustrationShadow010)" fill-rule="evenodd" clip-rule="evenodd" d="M1230 293L837 686L834.879 683.879L1227.88 290.879L1230 293Z"></path><path style="fill:var(--color-illustrationShadow010)" fill-rule="evenodd" clip-rule="evenodd" d="M1248 293L855 686L852.879 683.879L1245.88 290.879L1248 293Z"></path><path style="fill:var(--color-illustrationShadow010)" fill-rule="evenodd" clip-rule="evenodd" d="M1266 293L873 686L870.879 683.879L1263.88 290.879L1266 293Z"></path><path style="fill:var(--color-illustrationShadow010)" fill-rule="evenodd" clip-rule="evenodd" d="M1284 293L891 686L888.879 683.879L1281.88 290.879L1284 293Z"></path><path style="fill:var(--color-illustrationShadow010)" fill-rule="evenodd" clip-rule="evenodd" d="M1302 293L909 686L906.879 683.879L1299.88 290.879L1302 293Z"></path><path style="fill:var(--color-illustrationShadow010)" fill-rule="evenodd" clip-rule="evenodd" d="M1320 293L927 686L924.879 683.879L1317.88 290.879L1320 293Z"></path><path style="fill:var(--color-illustrationShadow010)" fill-rule="evenodd" clip-rule="evenodd" d="M1338 293L945 686L942.879 683.879L1335.88 290.879L1338 293Z"></path><path style="fill:var(--color-illustrationShadow010)" fill-rule="evenodd" clip-rule="evenodd" d="M1356 293L963 686L960.879 683.879L1353.88 290.879L1356 293Z"></path><path style="fill:var(--color-illustrationShadow010)" fill-rule="evenodd" clip-rule="evenodd" d="M1374 293L981 686L978.879 683.879L1371.88 290.879L1374 293Z"></path><path style="fill:var(--color-illustrationShadow010)" fill-rule="evenodd" clip-rule="evenodd" d="M1392 293L999 686L996.879 683.879L1389.88 290.879L1392 293Z"></path><path style="fill:var(--color-illustrationShadow010)" fill-rule="evenodd" clip-rule="evenodd" d="M1410 293L1017 686L1014.88 683.879L1407.88 290.879L1410 293Z"></path><path style="fill:var(--color-illustrationShadow010)" fill-rule="evenodd" clip-rule="evenodd" d="M1428 293L1035 686L1032.88 683.879L1425.88 290.879L1428 293Z"></path><path style="fill:var(--color-illustrationShadow010)" fill-rule="evenodd" clip-rule="evenodd" d="M1446 293L1053 686L1050.88 683.879L1443.88 290.879L1446 293Z"></path><path style="fill:var(--color-illustrationShadow010)" fill-rule="evenodd" clip-rule="evenodd" d="M1464 293L1071 686L1068.88 683.879L1461.88 290.879L1464 293Z"></path><path style="fill:var(--color-illustrationShadow010)" fill-rule="evenodd" clip-rule="evenodd" d="M1482 293L1089 686L1086.88 683.879L1479.88 290.879L1482 293Z"></path><path style="fill:var(--color-illustrationShadow010)" fill-rule="evenodd" clip-rule="evenodd" d="M1500 293L1107 686L1104.88 683.879L1497.88 290.879L1500 293Z"></path><path style="fill:var(--color-illustrationShadow010)" fill-rule="evenodd" clip-rule="evenodd" d="M1518 293L1125 686L1122.88 683.879L1515.88 290.879L1518 293Z"></path><path style="fill:var(--color-illustrationShadow010)" fill-rule="evenodd" clip-rule="evenodd" d="M1536 293L1143 686L1140.88 683.879L1533.88 290.879L1536 293Z"></path><path style="fill:var(--color-illustrationShadow010)" fill-rule="evenodd" clip-rule="evenodd" d="M1554 293L1161 686L1158.88 683.879L1551.88 290.879L1554 293Z"></path><path style="fill:var(--color-illustrationShadow010)" fill-rule="evenodd" clip-rule="evenodd" d="M1572 293L1179 686L1176.88 683.879L1569.88 290.879L1572 293Z"></path><path style="fill:var(--color-illustrationShadow010)" fill-rule="evenodd" clip-rule="evenodd" d="M1590 293L1197 686L1194.88 683.879L1587.88 290.879L1590 293Z"></path><path style="fill:var(--color-illustrationShadow010)" fill-rule="evenodd" clip-rule="evenodd" d="M1608 293L1215 686L1212.88 683.879L1605.88 290.879L1608 293Z"></path><path style="fill:var(--color-illustrationShadow010)" fill-rule="evenodd" clip-rule="evenodd" d="M1626 293L1233 686L1230.88 683.879L1623.88 290.879L1626 293Z"></path><path style="fill:var(--color-illustrationShadow010)" fill-rule="evenodd" clip-rule="evenodd" d="M1644 293L1251 686L1248.88 683.879L1641.88 290.879L1644 293Z"></path><path style="fill:var(--color-illustrationShadow010)" fill-rule="evenodd" clip-rule="evenodd" d="M1662 293L1269 686L1266.88 683.879L1659.88 290.879L1662 293Z"></path><path style="fill:var(--color-illustrationShadow010)" fill-rule="evenodd" clip-rule="evenodd" d="M1680 293L1287 686L1284.88 683.879L1677.88 290.879L1680 293Z"></path><path style="fill:var(--color-illustrationShadow010)" fill-rule="evenodd" clip-rule="evenodd" d="M1698 293L1305 686L1302.88 683.879L1695.88 290.879L1698 293Z"></path><path style="fill:var(--color-illustrationShadow010)" fill-rule="evenodd" clip-rule="evenodd" d="M1716 293L1323 686L1320.88 683.879L1713.88 290.879L1716 293Z"></path><path style="fill:var(--color-illustrationShadow010)" fill-rule="evenodd" clip-rule="evenodd" d="M1734 293L1341 686L1338.88 683.879L1731.88 290.879L1734 293Z"></path><path style="fill:var(--color-illustrationShadow010)" fill-rule="evenodd" clip-rule="evenodd" d="M1752 293L1359 686L1356.88 683.879L1749.88 290.879L1752 293Z"></path><path style="fill:var(--color-illustrationShadow010)" fill-rule="evenodd" clip-rule="evenodd" d="M1770 293L1377 686L1374.88 683.879L1767.88 290.879L1770 293Z"></path><path style="fill:var(--color-illustrationShadow010)" fill-rule="evenodd" clip-rule="evenodd" d="M1788 293L1395 686L1392.88 683.879L1785.88 290.879L1788 293Z"></path><path style="fill:var(--color-illustrationShadow010)" fill-rule="evenodd" clip-rule="evenodd" d="M1806 293L1413 686L1410.88 683.879L1803.88 290.879L1806 293Z"></path><path style="fill:var(--color-illustrationShadow010)" fill-rule="evenodd" clip-rule="evenodd" d="M1824 293L1431 686L1428.88 683.879L1821.88 290.879L1824 293Z"></path><path style="fill:var(--color-illustrationShadow010)" fill-rule="evenodd" clip-rule="evenodd" d="M1842 293L1449 686L1446.88 683.879L1839.88 290.879L1842 293Z"></path><path style="fill:var(--color-illustrationShadow010)" fill-rule="evenodd" clip-rule="evenodd" d="M1860 293L1467 686L1464.88 683.879L1857.88 290.879L1860 293Z"></path><path style="fill:var(--color-illustrationShadow010)" fill-rule="evenodd" clip-rule="evenodd" d="M1878 293L1485 686L1482.88 683.879L1875.88 290.879L1878 293Z"></path><path style="fill:var(--color-illustrationShadow010)" fill-rule="evenodd" clip-rule="evenodd" d="M1896 293L1503 686L1500.88 683.879L1893.88 290.879L1896 293Z"></path><path style="fill:var(--color-illustrationShadow010)" fill-rule="evenodd" clip-rule="evenodd" d="M1914 293L1521 686L1518.88 683.879L1911.88 290.879L1914 293Z"></path><path style="fill:var(--color-illustrationShadow010)" fill-rule="evenodd" clip-rule="evenodd" d="M1932 293L1539 686L1536.88 683.879L1929.88 290.879L1932 293Z"></path><path style="fill:var(--color-illustrationShadow010)" fill-rule="evenodd" clip-rule="evenodd" d="M1950 293L1557 686L1554.88 683.879L1947.88 290.879L1950 293Z"></path><path style="fill:var(--color-illustrationShadow010)" fill-rule="evenodd" clip-rule="evenodd" d="M1968 293L1575 686L1572.88 683.879L1965.88 290.879L1968 293Z"></path><path style="fill:var(--color-illustrationShadow010)" fill-rule="evenodd" clip-rule="evenodd" d="M1986 293L1593 686L1590.88 683.879L1983.88 290.879L1986 293Z"></path><path style="fill:var(--color-illustrationShadow010)" fill-rule="evenodd" clip-rule="evenodd" d="M2004 293L1611 686L1608.88 683.879L2001.88 290.879L2004 293Z"></path><path style="fill:var(--color-illustrationShadow010)" fill-rule="evenodd" clip-rule="evenodd" d="M2022 293L1629 686L1626.88 683.879L2019.88 290.879L2022 293Z"></path><path style="fill:var(--color-illustrationShadow010)" fill-rule="evenodd" clip-rule="evenodd" d="M2040 293L1647 686L1644.88 683.879L2037.88 290.879L2040 293Z"></path><path style="fill:var(--color-illustrationShadow010)" fill-rule="evenodd" clip-rule="evenodd" d="M2058 293L1665 686L1662.88 683.879L2055.88 290.879L2058 293Z"></path><path style="fill:var(--color-illustrationShadow010)" fill-rule="evenodd" clip-rule="evenodd" d="M2076 293L1683 686L1680.88 683.879L2073.88 290.879L2076 293Z"></path><path style="fill:var(--color-illustrationShadow010)" fill-rule="evenodd" clip-rule="evenodd" d="M2094 293L1701 686L1698.88 683.879L2091.88 290.879L2094 293Z"></path></g></g><path style="fill:var(--color-illustrationPalette040)" fill-rule="evenodd" clip-rule="evenodd" d="M811.707 364C807.957 364 804.918 367.041 804.918 370.791C804.918 374.542 807.957 377.582 811.707 377.582H1348.05C1351.79 377.582 1354.83 374.542 1354.83 370.791C1354.83 367.041 1351.79 364 1348.05 364H811.707ZM811.708 399.314C807.958 399.314 804.918 402.355 804.918 406.106C804.918 409.856 807.958 412.897 811.708 412.897H1232.63C1236.38 412.897 1239.42 409.856 1239.42 406.106C1239.42 402.355 1236.38 399.314 1232.63 399.314H811.708ZM811.708 469.943C807.958 469.943 804.918 472.984 804.918 476.734C804.918 480.485 807.958 483.526 811.708 483.526H1348.05C1351.8 483.526 1354.84 480.485 1354.84 476.734C1354.84 472.984 1351.8 469.943 1348.05 469.943H811.708ZM804.918 547.363C804.918 543.612 807.958 540.572 811.708 540.572H1348.05C1351.8 540.572 1354.84 543.612 1354.84 547.363C1354.84 551.114 1351.8 554.154 1348.05 554.154H811.708C807.958 554.154 804.918 551.114 804.918 547.363ZM811.708 434.629C807.958 434.629 804.918 437.669 804.918 441.42C804.918 445.171 807.958 448.211 811.708 448.211H1348.05C1351.8 448.211 1354.84 445.171 1354.84 441.42C1354.84 437.669 1351.8 434.629 1348.05 434.629H811.708ZM804.918 512.049C804.918 508.298 807.958 505.257 811.708 505.257H1348.05C1351.8 505.257 1354.84 508.298 1354.84 512.049C1354.84 515.799 1351.8 518.84 1348.05 518.84H811.708C807.958 518.84 804.918 515.799 804.918 512.049Z"></path><path style="fill:var(--color-illustrationHighlight010)" d="M829.768 312.35H815.868L813.568 319H806.218L818.768 284.05H826.918L839.468 319H832.068L829.768 312.35ZM827.868 306.75L822.818 292.15L817.768 306.75H827.868Z"></path><path style="fill:var(--color-illustrationHighlight010)" d="M854.759 319.45C852.492 319.45 850.459 319.05 848.659 318.25C846.859 317.416 845.425 316.3 844.359 314.9C843.325 313.5 842.759 311.95 842.659 310.25H849.709C849.842 311.316 850.359 312.2 851.259 312.9C852.192 313.6 853.342 313.95 854.709 313.95C856.042 313.95 857.075 313.683 857.809 313.15C858.575 312.616 858.959 311.933 858.959 311.1C858.959 310.2 858.492 309.533 857.559 309.1C856.659 308.633 855.209 308.133 853.209 307.6C851.142 307.1 849.442 306.583 848.109 306.05C846.809 305.516 845.675 304.7 844.709 303.6C843.775 302.5 843.309 301.016 843.309 299.15C843.309 297.616 843.742 296.216 844.609 294.95C845.509 293.683 846.775 292.683 848.409 291.95C850.075 291.216 852.025 290.85 854.259 290.85C857.559 290.85 860.192 291.683 862.159 293.35C864.125 294.983 865.209 297.2 865.409 300H858.709C858.609 298.9 858.142 298.033 857.309 297.4C856.509 296.733 855.425 296.4 854.059 296.4C852.792 296.4 851.809 296.633 851.109 297.1C850.442 297.566 850.109 298.216 850.109 299.05C850.109 299.983 850.575 300.7 851.509 301.2C852.442 301.666 853.892 302.15 855.859 302.65C857.859 303.15 859.509 303.666 860.809 304.2C862.109 304.733 863.225 305.566 864.159 306.7C865.125 307.8 865.625 309.266 865.659 311.1C865.659 312.7 865.209 314.133 864.309 315.4C863.442 316.666 862.175 317.666 860.509 318.4C858.875 319.1 856.959 319.45 854.759 319.45Z"></path><path style="fill:var(--color-illustrationHighlight010)" d="M881.519 305.05C881.519 302.25 882.069 299.766 883.169 297.6C884.302 295.433 885.835 293.766 887.769 292.6C889.702 291.433 891.852 290.85 894.219 290.85C896.019 290.85 897.735 291.25 899.369 292.05C901.002 292.816 902.302 293.85 903.269 295.15V282H910.369V319H903.269V314.9C902.402 316.266 901.185 317.366 899.619 318.2C898.052 319.033 896.235 319.45 894.169 319.45C891.835 319.45 889.702 318.85 887.769 317.65C885.835 316.45 884.302 314.766 883.169 312.6C882.069 310.4 881.519 307.883 881.519 305.05ZM903.319 305.15C903.319 303.45 902.985 302 902.319 300.8C901.652 299.566 900.752 298.633 899.619 298C898.485 297.333 897.269 297 895.969 297C894.669 297 893.469 297.316 892.369 297.95C891.269 298.583 890.369 299.516 889.669 300.75C889.002 301.95 888.669 303.383 888.669 305.05C888.669 306.716 889.002 308.183 889.669 309.45C890.369 310.683 891.269 311.633 892.369 312.3C893.502 312.966 894.702 313.3 895.969 313.3C897.269 313.3 898.485 312.983 899.619 312.35C900.752 311.683 901.652 310.75 902.319 309.55C902.985 308.316 903.319 306.85 903.319 305.15Z"></path><path style="fill:var(--color-illustrationHighlight010)" d="M920.755 288C919.522 288 918.489 287.616 917.655 286.85C916.855 286.05 916.455 285.066 916.455 283.9C916.455 282.733 916.855 281.766 917.655 281C918.489 280.2 919.522 279.8 920.755 279.8C921.989 279.8 923.005 280.2 923.805 281C924.639 281.766 925.055 282.733 925.055 283.9C925.055 285.066 924.639 286.05 923.805 286.85C923.005 287.616 921.989 288 920.755 288ZM924.205 291.3V319H917.205V291.3H924.205Z"></path><path style="fill:var(--color-illustrationHighlight010)" d="M942.671 312.55L949.671 291.3H957.121L946.871 319H938.371L928.171 291.3H935.671L942.671 312.55Z"></path><defs><clipPath id="nk-1493"><rect style="fill:var(--color-white)" width="558" height="206" transform="translate(132 354)"></rect></clipPath><clipPath id="nk-1494"><rect style="fill:var(--color-white)" width="558" height="206" transform="translate(801 358)"></rect></clipPath></defs></svg>