<svg id="nksvg" width="1490" height="838" viewBox="0 0 1490 838" fill="none" xmlns="http://www.w3.org/2000/svg">
<g clip-path="url(#clip0_969_138416)">
<rect width="1490" height="838" fill="var(--color-illustrationBackground010)"/>
<path d="M269 126.174C269 118.844 274.942 112.902 282.272 112.902H1006.43C1013.76 112.902 1019.7 118.844 1019.7 126.174V560.007C1019.7 567.337 1013.76 573.279 1006.43 573.279H282.272C274.942 573.279 269 567.337 269 560.007V126.174Z" fill="white"/>
<path d="M269 119.056C269 115.657 271.755 112.902 275.153 112.902H1013.55C1016.95 112.902 1019.71 115.657 1019.71 119.056V156.745H269V119.056Z" fill="#8883F6"/>
<path fill-rule="evenodd" clip-rule="evenodd" d="M297.491 127.446V134.082H304.127V145.142H284.219V129.658H290.855V127.446L294.173 124.128L297.491 127.446ZM286.431 142.93H288.643V140.718H286.431V142.93ZM288.643 138.506H286.431V136.294H288.643V138.506ZM286.431 134.082H288.643V131.87H286.431V134.082ZM295.279 142.93H293.067V140.718H295.279V142.93ZM293.067 138.506H295.279V136.294H293.067V138.506ZM295.279 134.082H293.067V131.87H295.279V134.082ZM293.067 129.658H295.279V127.446H293.067V129.658ZM301.915 142.93H299.703V140.718H301.915V142.93ZM299.703 138.506H301.915V136.294H299.703V138.506Z" fill="white"/>
<path d="M698.964 134.439C698.964 132.74 700.341 131.362 702.04 131.362H748.96C750.659 131.362 752.036 132.74 752.036 134.439C752.036 136.138 750.659 137.516 748.96 137.516H702.04C700.341 137.516 698.964 136.138 698.964 134.439Z" fill="white"/>
<path d="M782.803 134.439C782.803 132.74 784.18 131.362 785.88 131.362H832.799C834.498 131.362 835.875 132.74 835.875 134.439C835.875 136.138 834.498 137.516 832.799 137.516H785.88C784.18 137.516 782.803 136.138 782.803 134.439Z" fill="white"/>
<path d="M866.642 134.439C866.642 132.74 868.019 131.362 869.719 131.362H916.638C918.337 131.362 919.714 132.74 919.714 134.439C919.714 136.138 918.337 137.516 916.638 137.516H869.719C868.019 137.516 866.642 136.138 866.642 134.439Z" fill="white"/>
<path d="M950.481 134.439C950.481 132.74 951.859 131.362 953.558 131.362H1000.48C1002.18 131.362 1003.55 132.74 1003.55 134.439C1003.55 136.138 1002.18 137.516 1000.48 137.516H953.558C951.859 137.516 950.481 136.138 950.481 134.439Z" fill="white"/>
<path d="M401.565 195.203C397.169 195.203 393.605 201.312 393.605 208.848V296.934C393.605 304.469 397.169 310.578 401.565 310.578H887.141C891.537 310.578 895.101 304.469 895.101 296.934V208.848C895.101 201.312 891.537 195.203 887.141 195.203H401.565Z" fill="#A3A3FB"/>
<path d="M393.959 353.434C393.959 342.379 402.922 333.416 413.977 333.416H527.769C538.825 333.416 547.787 342.379 547.787 353.434V477.024C547.787 488.08 538.825 497.042 527.769 497.042H413.977C402.922 497.042 393.959 488.08 393.959 477.024V353.434Z" fill="#A3A3FB"/>
<path d="M567.616 353.434C567.616 342.379 576.578 333.416 587.634 333.416H701.426C712.481 333.416 721.444 342.379 721.444 353.434V477.024C721.444 488.08 712.481 497.042 701.426 497.042H587.634C576.578 497.042 567.616 488.08 567.616 477.024V353.434Z" fill="#A3A3FB"/>
<path d="M761.292 333.416C750.236 333.416 741.274 342.379 741.274 353.434V477.024C741.274 488.08 750.236 497.042 761.292 497.042H875.083C886.139 497.042 895.102 488.08 895.102 477.024V353.434C895.102 342.379 886.139 333.416 875.084 333.416H761.292Z" fill="#A3A3FB"/>
<path d="M393.958 538.645C393.958 527.589 402.921 518.627 413.976 518.627H527.768C538.824 518.627 547.786 527.589 547.786 538.645V573.633H393.958V538.645Z" fill="#A3A3FB"/>
<path d="M587.634 518.627C576.578 518.627 567.616 527.589 567.616 538.645V573.633H721.444V538.645C721.444 527.589 712.481 518.627 701.426 518.627H587.634Z" fill="#A3A3FB"/>
<path d="M741.274 538.645C741.274 527.589 750.236 518.627 761.292 518.627H875.084C886.139 518.627 895.102 527.589 895.102 538.645V573.633H741.274V538.645Z" fill="#A3A3FB"/>
<path d="M394 243.132C394 238.035 398.132 233.902 403.23 233.902H1136.25C1141.34 233.902 1145.48 238.035 1145.48 243.132V685.403C1145.48 690.5 1141.34 694.633 1136.25 694.633H403.23C398.132 694.633 394 690.5 394 685.403V243.132Z" fill="#0A0A0A" fill-opacity="0.3"/>
<path d="M681 463.132C681 458.035 685.132 453.902 690.23 453.902H1209.39C1214.49 453.902 1218.62 458.035 1218.62 463.132V746.207C1218.62 751.305 1214.49 755.437 1209.39 755.437H690.23C685.132 755.437 681 751.305 681 746.207V463.132Z" fill="white"/>
<path d="M862.155 667.782C862.155 658.099 870.004 650.25 879.686 650.25H1021.1C1030.79 650.25 1038.63 658.099 1038.63 667.782C1038.63 677.464 1030.79 685.313 1021.1 685.313H879.686C870.004 685.313 862.155 677.464 862.155 667.782Z" fill="#8883F6"/>
<path d="M860.986 529.87C860.986 526.643 863.602 524.027 866.83 524.027H1031.62C1034.85 524.027 1037.47 526.643 1037.47 529.87C1037.47 533.098 1034.85 535.714 1031.62 535.714H866.83C863.602 535.714 860.986 533.098 860.986 529.87Z" fill="#8883F6"/>
<path d="M761.643 556.751C761.643 553.524 764.259 550.908 767.487 550.908H1130.96C1134.19 550.908 1136.81 553.524 1136.81 556.751C1136.81 559.979 1134.19 562.595 1130.96 562.595H767.487C764.259 562.595 761.643 559.979 761.643 556.751Z" fill="#A3A3FB"/>
<path d="M761.643 583.632C761.643 580.405 764.259 577.789 767.487 577.789H1130.96C1134.19 577.789 1136.81 580.405 1136.81 583.632C1136.81 586.86 1134.19 589.476 1130.96 589.476H767.487C764.259 589.476 761.643 586.86 761.643 583.632Z" fill="#A3A3FB"/>
</g>
<defs>
<clipPath id="clip0_969_138416">
<rect width="1490" height="838" fill="white"/>
</clipPath>
</defs>
</svg>
