<svg id="components-checkbox-usage-do-1" style="width: 100%; height: 100%" width="1490" height="838" viewBox="0 0 1490 838" fill="none" xmlns="http://www.w3.org/2000/svg" class="css-0"><path style="fill:var(--color-illustrationBackground020)" d="M0 0H1490V838H0V0Z"></path><path style="fill:var(--color-interface010)" d="M640.821 553.106C640.821 544.752 647.593 537.98 655.946 537.98H721.715C730.068 537.98 736.84 544.752 736.84 553.106V618.874C736.84 627.227 730.068 633.999 721.715 633.999H655.946C647.593 633.999 640.821 627.227 640.821 618.874V553.106Z"></path><path style="fill:var(--color-illustrationPalette040)" d="M641.191 277.633C641.191 269.28 647.963 262.508 656.317 262.508H722.085C730.438 262.508 737.21 269.28 737.21 277.633V343.401C737.21 351.755 730.438 358.526 722.085 358.526H656.317C647.963 358.526 641.191 351.755 641.191 343.401V277.633Z"></path><path style="fill:var(--color-illustrationHighlight010)" d="M679.459 132.763V142.957H658.178V153.97H674.101V163.867H658.178V184.999H645.453V132.763H679.459Z"></path><path style="fill:var(--color-illustrationHighlight010)" d="M683.617 164.164C683.617 159.898 684.41 156.153 685.998 152.928C687.635 149.704 689.842 147.224 692.62 145.487C695.398 143.751 698.499 142.883 701.922 142.883C704.848 142.883 707.403 143.478 709.586 144.669C711.818 145.859 713.53 147.422 714.72 149.357V143.478H727.444V184.999H714.72V179.121C713.48 181.056 711.744 182.618 709.511 183.809C707.329 184.999 704.774 185.595 701.847 185.595C698.474 185.595 695.398 184.726 692.62 182.99C689.842 181.204 687.635 178.699 685.998 175.475C684.41 172.201 683.617 168.431 683.617 164.164ZM714.72 164.239C714.72 161.064 713.827 158.559 712.041 156.723C710.305 154.888 708.172 153.97 705.642 153.97C703.112 153.97 700.954 154.888 699.168 156.723C697.432 158.509 696.564 160.99 696.564 164.164C696.564 167.339 697.432 169.869 699.168 171.754C700.954 173.59 703.112 174.507 705.642 174.507C708.172 174.507 710.305 173.59 712.041 171.754C713.827 169.919 714.72 167.414 714.72 164.239Z"></path><path style="fill:var(--color-illustrationHighlight010)" d="M755.327 173.094L764.331 143.478H777.873L763.14 184.999H747.439L732.706 143.478H746.323L755.327 173.094Z"></path><path style="fill:var(--color-illustrationHighlight010)" d="M802.129 185.595C798.062 185.595 794.391 184.726 791.117 182.99C787.892 181.254 785.337 178.774 783.452 175.549C781.617 172.325 780.699 168.555 780.699 164.239C780.699 159.973 781.642 156.227 783.527 153.003C785.412 149.729 787.991 147.224 791.265 145.487C794.539 143.751 798.21 142.883 802.278 142.883C806.346 142.883 810.017 143.751 813.291 145.487C816.565 147.224 819.145 149.729 821.03 153.003C822.915 156.227 823.857 159.973 823.857 164.239C823.857 168.505 822.89 172.275 820.955 175.549C819.07 178.774 816.466 181.254 813.142 182.99C809.868 184.726 806.197 185.595 802.129 185.595ZM802.129 174.582C804.56 174.582 806.619 173.689 808.305 171.903C810.042 170.117 810.91 167.562 810.91 164.239C810.91 160.915 810.066 158.36 808.38 156.574C806.743 154.789 804.709 153.896 802.278 153.896C799.798 153.896 797.739 154.789 796.102 156.574C794.465 158.311 793.646 160.865 793.646 164.239C793.646 167.562 794.44 170.117 796.028 171.903C797.665 173.689 799.699 174.582 802.129 174.582Z"></path><path style="fill:var(--color-illustrationHighlight010)" d="M843.332 150.398C844.82 148.116 846.68 146.331 848.913 145.041C851.145 143.701 853.625 143.032 856.354 143.032V156.5H852.856C849.681 156.5 847.3 157.195 845.713 158.584C844.125 159.923 843.332 162.304 843.332 165.727V184.999H830.608V143.478H843.332V150.398Z"></path><path style="fill:var(--color-illustrationHighlight010)" d="M868.835 139.162C866.602 139.162 864.767 138.518 863.328 137.228C861.939 135.888 861.245 134.251 861.245 132.317C861.245 130.332 861.939 128.695 863.328 127.406C864.767 126.066 866.602 125.396 868.835 125.396C871.018 125.396 872.803 126.066 874.192 127.406C875.631 128.695 876.35 130.332 876.35 132.317C876.35 134.251 875.631 135.888 874.192 137.228C872.803 138.518 871.018 139.162 868.835 139.162ZM875.16 143.478V184.999H862.436V143.478H875.16Z"></path><path style="fill:var(--color-illustrationHighlight010)" d="M907.522 174.21V184.999H901.049C896.435 184.999 892.839 183.883 890.259 181.651C887.68 179.369 886.39 175.673 886.39 170.564V154.045H881.33V143.478H886.39V133.358H899.114V143.478H907.448V154.045H899.114V170.712C899.114 171.953 899.412 172.846 900.007 173.391C900.602 173.937 901.594 174.21 902.983 174.21H907.522Z"></path><path style="fill:var(--color-illustrationHighlight010)" d="M953.75 163.569C953.75 164.76 953.676 166 953.527 167.29H924.73C924.928 169.869 925.747 171.853 927.185 173.242C928.674 174.582 930.484 175.252 932.617 175.252C935.792 175.252 938 173.912 939.24 171.233H952.783C952.088 173.962 950.823 176.417 948.988 178.6C947.202 180.783 944.945 182.494 942.216 183.734C939.488 184.974 936.437 185.595 933.064 185.595C928.996 185.595 925.375 184.726 922.2 182.99C919.025 181.254 916.545 178.774 914.759 175.549C912.973 172.325 912.08 168.555 912.08 164.239C912.08 159.923 912.948 156.153 914.684 152.928C916.47 149.704 918.951 147.224 922.125 145.487C925.3 143.751 928.946 142.883 933.064 142.883C937.082 142.883 940.654 143.726 943.779 145.413C946.904 147.1 949.335 149.505 951.071 152.631C952.857 155.756 953.75 159.402 953.75 163.569ZM940.728 160.221C940.728 158.038 939.984 156.302 938.496 155.012C937.008 153.722 935.147 153.077 932.915 153.077C930.782 153.077 928.971 153.697 927.483 154.937C926.044 156.178 925.152 157.939 924.804 160.221H940.728Z"></path><path style="fill:var(--color-illustrationHighlight010)" d="M973.701 164.164C973.701 159.898 974.495 156.153 976.082 152.928C977.719 149.704 979.927 147.224 982.705 145.487C985.483 143.751 988.583 142.883 992.006 142.883C994.933 142.883 997.488 143.478 999.671 144.669C1001.9 145.859 1003.61 147.422 1004.8 149.357V143.478H1017.53V184.999H1004.8V179.121C1003.56 181.056 1001.83 182.618 999.596 183.809C997.413 184.999 994.859 185.595 991.932 185.595C988.559 185.595 985.483 184.726 982.705 182.99C979.927 181.204 977.719 178.699 976.082 175.475C974.495 172.201 973.701 168.431 973.701 164.164ZM1004.8 164.239C1004.8 161.064 1003.91 158.559 1002.13 156.723C1000.39 154.888 998.257 153.97 995.727 153.97C993.197 153.97 991.039 154.888 989.253 156.723C987.517 158.509 986.649 160.99 986.649 164.164C986.649 167.339 987.517 169.869 989.253 171.754C991.039 173.59 993.197 174.507 995.727 174.507C998.257 174.507 1000.39 173.59 1002.13 171.754C1003.91 169.919 1004.8 167.414 1004.8 164.239Z"></path><path style="fill:var(--color-illustrationHighlight010)" d="M1024.2 164.239C1024.2 159.923 1025.07 156.153 1026.81 152.928C1028.59 149.704 1031.05 147.224 1034.18 145.487C1037.35 143.751 1040.97 142.883 1045.04 142.883C1050.25 142.883 1054.59 144.247 1058.06 146.976C1061.58 149.704 1063.89 153.548 1064.98 158.509H1051.44C1050.3 155.334 1048.09 153.747 1044.82 153.747C1042.48 153.747 1040.62 154.665 1039.24 156.5C1037.85 158.286 1037.15 160.865 1037.15 164.239C1037.15 167.612 1037.85 170.216 1039.24 172.052C1040.62 173.838 1042.48 174.731 1044.82 174.731C1048.09 174.731 1050.3 173.143 1051.44 169.968H1064.98C1063.89 174.83 1061.58 178.65 1058.06 181.428C1054.54 184.206 1050.2 185.595 1045.04 185.595C1040.97 185.595 1037.35 184.726 1034.18 182.99C1031.05 181.254 1028.59 178.774 1026.81 175.549C1025.07 172.325 1024.2 168.555 1024.2 164.239Z"></path><path style="fill:var(--color-illustrationHighlight010)" d="M1094.93 174.21V184.999H1088.46C1083.84 184.999 1080.25 183.883 1077.67 181.651C1075.09 179.369 1073.8 175.673 1073.8 170.564V154.045H1068.74V143.478H1073.8V133.358H1086.52V143.478H1094.85V154.045H1086.52V170.712C1086.52 171.953 1086.82 172.846 1087.41 173.391C1088.01 173.937 1089 174.21 1090.39 174.21H1094.93Z"></path><path style="fill:var(--color-illustrationHighlight010)" d="M1108.42 139.162C1106.18 139.162 1104.35 138.518 1102.91 137.228C1101.52 135.888 1100.83 134.251 1100.83 132.317C1100.83 130.332 1101.52 128.695 1102.91 127.406C1104.35 126.066 1106.18 125.396 1108.42 125.396C1110.6 125.396 1112.38 126.066 1113.77 127.406C1115.21 128.695 1115.93 130.332 1115.93 132.317C1115.93 134.251 1115.21 135.888 1113.77 137.228C1112.38 138.518 1110.6 139.162 1108.42 139.162ZM1114.74 143.478V184.999H1102.02V143.478H1114.74Z"></path><path style="fill:var(--color-illustrationHighlight010)" d="M1142.64 173.094L1151.64 143.478H1165.19L1150.45 184.999H1134.75L1120.02 143.478H1133.64L1142.64 173.094Z"></path><path style="fill:var(--color-illustrationHighlight010)" d="M1176.94 139.162C1174.71 139.162 1172.87 138.518 1171.43 137.228C1170.05 135.888 1169.35 134.251 1169.35 132.317C1169.35 130.332 1170.05 128.695 1171.43 127.406C1172.87 126.066 1174.71 125.396 1176.94 125.396C1179.12 125.396 1180.91 126.066 1182.3 127.406C1183.74 128.695 1184.46 130.332 1184.46 132.317C1184.46 134.251 1183.74 135.888 1182.3 137.228C1180.91 138.518 1179.12 139.162 1176.94 139.162ZM1183.27 143.478V184.999H1170.54V143.478H1183.27Z"></path><path style="fill:var(--color-illustrationHighlight010)" d="M1215.63 174.21V184.999H1209.15C1204.54 184.999 1200.94 183.883 1198.37 181.651C1195.79 179.369 1194.5 175.673 1194.5 170.564V154.045H1189.44V143.478H1194.5V133.358H1207.22V143.478H1215.55V154.045H1207.22V170.712C1207.22 171.953 1207.52 172.846 1208.11 173.391C1208.71 173.937 1209.7 174.21 1211.09 174.21H1215.63Z"></path><path style="fill:var(--color-illustrationHighlight010)" d="M1229.12 139.162C1226.88 139.162 1225.05 138.518 1223.61 137.228C1222.22 135.888 1221.53 134.251 1221.53 132.317C1221.53 130.332 1222.22 128.695 1223.61 127.406C1225.05 126.066 1226.88 125.396 1229.12 125.396C1231.3 125.396 1233.08 126.066 1234.47 127.406C1235.91 128.695 1236.63 130.332 1236.63 132.317C1236.63 134.251 1235.91 135.888 1234.47 137.228C1233.08 138.518 1231.3 139.162 1229.12 139.162ZM1235.44 143.478V184.999H1222.72V143.478H1235.44Z"></path><path style="fill:var(--color-illustrationHighlight010)" d="M1283.8 163.569C1283.8 164.76 1283.73 166 1283.58 167.29H1254.78C1254.98 169.869 1255.8 171.853 1257.24 173.242C1258.72 174.582 1260.54 175.252 1262.67 175.252C1265.84 175.252 1268.05 173.912 1269.29 171.233H1282.83C1282.14 173.962 1280.87 176.417 1279.04 178.6C1277.25 180.783 1275 182.494 1272.27 183.734C1269.54 184.974 1266.49 185.595 1263.12 185.595C1259.05 185.595 1255.43 184.726 1252.25 182.99C1249.08 181.254 1246.6 178.774 1244.81 175.549C1243.02 172.325 1242.13 168.555 1242.13 164.239C1242.13 159.923 1243 156.153 1244.74 152.928C1246.52 149.704 1249 147.224 1252.18 145.487C1255.35 143.751 1259 142.883 1263.12 142.883C1267.13 142.883 1270.7 143.726 1273.83 145.413C1276.96 147.1 1279.39 149.505 1281.12 152.631C1282.91 155.756 1283.8 159.402 1283.8 163.569ZM1270.78 160.221C1270.78 158.038 1270.04 156.302 1268.55 155.012C1267.06 153.722 1265.2 153.077 1262.97 153.077C1260.83 153.077 1259.02 153.697 1257.53 154.937C1256.1 156.178 1255.2 157.939 1254.86 160.221H1270.78Z"></path><path style="fill:var(--color-illustrationHighlight010)" d="M1307.4 185.595C1303.78 185.595 1300.56 184.974 1297.73 183.734C1294.9 182.494 1292.67 180.807 1291.03 178.674C1289.4 176.492 1288.48 174.061 1288.28 171.382H1300.86C1301.01 172.821 1301.68 173.987 1302.87 174.879C1304.06 175.772 1305.52 176.219 1307.26 176.219C1308.84 176.219 1310.06 175.921 1310.9 175.326C1311.8 174.681 1312.24 173.863 1312.24 172.87C1312.24 171.68 1311.62 170.812 1310.38 170.266C1309.14 169.671 1307.13 169.026 1304.35 168.331C1301.38 167.637 1298.9 166.918 1296.91 166.173C1294.93 165.38 1293.22 164.164 1291.78 162.527C1290.34 160.841 1289.62 158.584 1289.62 155.756C1289.62 153.375 1290.27 151.217 1291.56 149.282C1292.89 147.298 1294.83 145.735 1297.36 144.594C1299.94 143.453 1302.99 142.883 1306.51 142.883C1311.72 142.883 1315.81 144.173 1318.79 146.752C1321.82 149.332 1323.55 152.755 1324 157.021H1312.24C1312.04 155.582 1311.4 154.441 1310.31 153.598C1309.27 152.755 1307.88 152.333 1306.14 152.333C1304.65 152.333 1303.51 152.631 1302.72 153.226C1301.92 153.772 1301.53 154.541 1301.53 155.533C1301.53 156.723 1302.15 157.616 1303.39 158.212C1304.68 158.807 1306.66 159.402 1309.34 159.997C1312.42 160.791 1314.92 161.585 1316.86 162.378C1318.79 163.123 1320.48 164.363 1321.91 166.099C1323.4 167.786 1324.17 170.068 1324.22 172.945C1324.22 175.376 1323.53 177.558 1322.14 179.493C1320.8 181.378 1318.84 182.866 1316.26 183.958C1313.73 185.049 1310.78 185.595 1307.4 185.595Z"></path><path style="fill:var(--color-illustrationHighlight010)" fill-rule="evenodd" clip-rule="evenodd" d="M526.853 389.664L523.577 389.664L523.577 135.697L508.839 135.697L508.839 132.551L542.395 132.551L542.395 135.697L526.853 135.697L526.853 389.664Z"></path><path style="fill:var(--color-illustrationHighlight010)" fill-rule="evenodd" clip-rule="evenodd" d="M526.853 388.25L523.577 388.25L523.577 701.583L508.839 701.583L508.839 704.729L542.395 704.729L542.395 701.583L526.853 701.583L526.853 388.25Z"></path><path style="fill:var(--color-white)" d="M679.332 324.462L665.615 310.869L660.944 315.465L679.332 333.688L718.807 294.569L714.168 289.973L679.332 324.462Z"></path><path style="fill:var(--color-darkBlue050)" d="M654.623 706.323C652.496 706.323 650.584 705.953 648.888 705.213C647.223 704.442 645.912 703.394 644.956 702.068C644.001 700.711 643.507 699.154 643.476 697.396H647.963C648.117 698.907 648.734 700.187 649.813 701.235C650.923 702.253 652.527 702.761 654.623 702.761C656.628 702.761 658.2 702.268 659.341 701.281C660.513 700.264 661.099 698.969 661.099 697.396C661.099 696.163 660.76 695.16 660.081 694.39C659.403 693.619 658.555 693.033 657.537 692.632C656.52 692.231 655.148 691.799 653.421 691.337C651.293 690.782 649.582 690.227 648.287 689.672C647.022 689.117 645.928 688.253 645.003 687.081C644.108 685.879 643.661 684.275 643.661 682.271C643.661 680.513 644.108 678.956 645.003 677.599C645.897 676.243 647.146 675.194 648.749 674.454C650.384 673.714 652.249 673.344 654.346 673.344C657.368 673.344 659.835 674.1 661.747 675.611C663.689 677.121 664.784 679.126 665.031 681.624H660.405C660.251 680.39 659.603 679.311 658.463 678.386C657.322 677.43 655.811 676.952 653.93 676.952C652.172 676.952 650.738 677.414 649.628 678.34C648.518 679.234 647.963 680.498 647.963 682.132C647.963 683.304 648.287 684.26 648.934 685C649.613 685.74 650.43 686.311 651.386 686.711C652.372 687.081 653.745 687.513 655.502 688.007C657.63 688.592 659.341 689.178 660.636 689.764C661.932 690.319 663.042 691.198 663.967 692.401C664.892 693.572 665.354 695.176 665.354 697.211C665.354 698.784 664.938 700.264 664.105 701.651C663.273 703.039 662.039 704.164 660.405 705.028C658.771 705.891 656.844 706.323 654.623 706.323Z"></path><path style="fill:var(--color-darkBlue050)" d="M694.675 692.354C694.675 693.156 694.629 694.004 694.536 694.898H674.277C674.431 697.396 675.279 699.354 676.821 700.773C678.394 702.16 680.29 702.854 682.51 702.854C684.33 702.854 685.841 702.438 687.043 701.605C688.277 700.742 689.14 699.601 689.633 698.182H694.166C693.488 700.618 692.131 702.607 690.096 704.149C688.061 705.66 685.532 706.415 682.51 706.415C680.105 706.415 677.947 705.876 676.035 704.797C674.154 703.717 672.674 702.191 671.595 700.217C670.515 698.213 669.976 695.9 669.976 693.279C669.976 690.658 670.5 688.361 671.548 686.388C672.597 684.414 674.061 682.903 675.942 681.855C677.854 680.776 680.044 680.236 682.51 680.236C684.916 680.236 687.043 680.76 688.893 681.809C690.744 682.857 692.162 684.306 693.149 686.156C694.166 687.976 694.675 690.042 694.675 692.354ZM690.327 691.476C690.327 689.872 689.973 688.5 689.263 687.359C688.554 686.187 687.583 685.308 686.349 684.723C685.147 684.106 683.806 683.797 682.325 683.797C680.198 683.797 678.378 684.476 676.867 685.833C675.387 687.189 674.539 689.07 674.324 691.476H690.327Z"></path><path style="fill:var(--color-darkBlue050)" d="M704.44 671.771V705.999H700.231V671.771H704.44Z"></path><path style="fill:var(--color-darkBlue050)" d="M734.741 692.354C734.741 693.156 734.694 694.004 734.602 694.898H714.343C714.497 697.396 715.345 699.354 716.887 700.773C718.459 702.16 720.356 702.854 722.576 702.854C724.395 702.854 725.906 702.438 727.109 701.605C728.342 700.742 729.206 699.601 729.699 698.182H734.232C733.553 700.618 732.197 702.607 730.161 704.149C728.126 705.66 725.598 706.415 722.576 706.415C720.171 706.415 718.012 705.876 716.1 704.797C714.219 703.717 712.739 702.191 711.66 700.217C710.581 698.213 710.041 695.9 710.041 693.279C710.041 690.658 710.565 688.361 711.614 686.388C712.662 684.414 714.127 682.903 716.008 681.855C717.92 680.776 720.109 680.236 722.576 680.236C724.981 680.236 727.109 680.76 728.959 681.809C730.809 682.857 732.227 684.306 733.214 686.156C734.232 687.976 734.741 690.042 734.741 692.354ZM730.393 691.476C730.393 689.872 730.038 688.5 729.329 687.359C728.62 686.187 727.648 685.308 726.415 684.723C725.212 684.106 723.871 683.797 722.391 683.797C720.263 683.797 718.444 684.476 716.933 685.833C715.453 687.189 714.605 689.07 714.389 691.476H730.393Z"></path><path style="fill:var(--color-darkBlue050)" d="M738.724 693.279C738.724 690.658 739.248 688.377 740.296 686.434C741.345 684.46 742.794 682.934 744.644 681.855C746.525 680.776 748.668 680.236 751.074 680.236C754.188 680.236 756.747 680.991 758.752 682.502C760.787 684.013 762.128 686.11 762.776 688.793H758.243C757.811 687.251 756.963 686.033 755.699 685.139C754.465 684.245 752.924 683.797 751.074 683.797C748.668 683.797 746.726 684.63 745.246 686.295C743.765 687.929 743.025 690.258 743.025 693.279C743.025 696.332 743.765 698.691 745.246 700.356C746.726 702.021 748.668 702.854 751.074 702.854C752.924 702.854 754.465 702.422 755.699 701.559C756.932 700.695 757.78 699.462 758.243 697.859H762.776C762.097 700.449 760.741 702.53 758.705 704.103C756.67 705.645 754.126 706.415 751.074 706.415C748.668 706.415 746.525 705.876 744.644 704.797C742.794 703.717 741.345 702.191 740.296 700.217C739.248 698.244 738.724 695.931 738.724 693.279Z"></path><path style="fill:var(--color-darkBlue050)" d="M773.526 684.121V699.061C773.526 700.295 773.788 701.173 774.312 701.698C774.837 702.191 775.746 702.438 777.041 702.438H780.14V705.999H776.348C774.004 705.999 772.246 705.46 771.075 704.38C769.903 703.301 769.317 701.528 769.317 699.061V684.121H766.033V680.652H769.317V674.269H773.526V680.652H780.14V684.121H773.526Z"></path><path style="fill:var(--color-darkBlue050)" d="M795.999 693.233C795.999 690.643 796.523 688.377 797.571 686.434C798.62 684.46 800.054 682.934 801.873 681.855C803.723 680.776 805.774 680.236 808.025 680.236C810.245 680.236 812.172 680.714 813.806 681.67C815.441 682.626 816.659 683.828 817.461 685.278V680.652H821.716V705.999H817.461V701.281C816.628 702.761 815.379 703.995 813.714 704.982C812.08 705.938 810.168 706.415 807.979 706.415C805.727 706.415 803.692 705.86 801.873 704.75C800.054 703.64 798.62 702.083 797.571 700.079C796.523 698.074 795.999 695.793 795.999 693.233ZM817.461 693.279C817.461 691.368 817.075 689.702 816.304 688.284C815.533 686.866 814.485 685.786 813.159 685.046C811.864 684.275 810.43 683.89 808.857 683.89C807.285 683.89 805.851 684.26 804.556 685C803.261 685.74 802.228 686.819 801.457 688.238C800.686 689.656 800.3 691.321 800.3 693.233C800.3 695.176 800.686 696.872 801.457 698.321C802.228 699.74 803.261 700.834 804.556 701.605C805.851 702.345 807.285 702.715 808.857 702.715C810.43 702.715 811.864 702.345 813.159 701.605C814.485 700.834 815.533 699.74 816.304 698.321C817.075 696.872 817.461 695.191 817.461 693.279Z"></path><path style="fill:var(--color-darkBlue050)" d="M833.038 671.771V705.999H828.829V671.771H833.038Z"></path><path style="fill:var(--color-darkBlue050)" d="M844.421 671.771V705.999H840.212V671.771H844.421Z"></path><path style="fill:var(--color-darkBlue050)" d="M869.06 684.121V699.061C869.06 700.295 869.322 701.173 869.846 701.698C870.37 702.191 871.28 702.438 872.575 702.438H875.674V705.999H871.881C869.538 705.999 867.78 705.46 866.608 704.38C865.437 703.301 864.851 701.528 864.851 699.061V684.121H861.567V680.652H864.851V674.269H869.06V680.652H875.674V684.121H869.06Z"></path><path style="fill:var(--color-darkBlue050)" d="M893.355 680.19C895.267 680.19 896.993 680.606 898.535 681.438C900.077 682.24 901.28 683.458 902.143 685.093C903.037 686.727 903.484 688.716 903.484 691.059V705.999H899.322V691.661C899.322 689.132 898.689 687.205 897.425 685.879C896.161 684.522 894.434 683.844 892.245 683.844C890.025 683.844 888.251 684.537 886.926 685.925C885.63 687.313 884.983 689.332 884.983 691.984V705.999H880.774V671.771H884.983V684.26C885.815 682.965 886.956 681.963 888.406 681.253C889.886 680.544 891.535 680.19 893.355 680.19Z"></path><path style="fill:var(--color-darkBlue050)" d="M908.787 693.233C908.787 690.643 909.311 688.377 910.36 686.434C911.408 684.46 912.842 682.934 914.661 681.855C916.512 680.776 918.562 680.236 920.813 680.236C923.033 680.236 924.961 680.714 926.595 681.67C928.229 682.626 929.447 683.828 930.249 685.278V680.652H934.504V705.999H930.249V701.281C929.416 702.761 928.168 703.995 926.502 704.982C924.868 705.938 922.956 706.415 920.767 706.415C918.516 706.415 916.481 705.86 914.661 704.75C912.842 703.64 911.408 702.083 910.36 700.079C909.311 698.074 908.787 695.793 908.787 693.233ZM930.249 693.279C930.249 691.368 929.864 689.702 929.093 688.284C928.322 686.866 927.273 685.786 925.947 685.046C924.652 684.275 923.218 683.89 921.646 683.89C920.073 683.89 918.639 684.26 917.344 685C916.049 685.74 915.016 686.819 914.245 688.238C913.474 689.656 913.089 691.321 913.089 693.233C913.089 695.176 913.474 696.872 914.245 698.321C915.016 699.74 916.049 700.834 917.344 701.605C918.639 702.345 920.073 702.715 921.646 702.715C923.218 702.715 924.652 702.345 925.947 701.605C927.273 700.834 928.322 699.74 929.093 698.321C929.864 696.872 930.249 695.191 930.249 693.279Z"></path><path style="fill:var(--color-darkBlue050)" d="M946.751 684.121V699.061C946.751 700.295 947.014 701.173 947.538 701.698C948.062 702.191 948.972 702.438 950.267 702.438H953.366V705.999H949.573C947.229 705.999 945.472 705.46 944.3 704.38C943.128 703.301 942.542 701.528 942.542 699.061V684.121H939.258V680.652H942.542V674.269H946.751V680.652H953.366V684.121H946.751Z"></path><path style="fill:var(--color-darkBlue050)" d="M969.224 693.233C969.224 690.643 969.748 688.377 970.797 686.434C971.845 684.46 973.279 682.934 975.098 681.855C976.949 680.776 978.999 680.236 981.25 680.236C983.47 680.236 985.398 680.714 987.032 681.67C988.666 682.626 989.884 683.828 990.686 685.278V680.652H994.941V705.999H990.686V701.281C989.853 702.761 988.604 703.995 986.939 704.982C985.305 705.938 983.393 706.415 981.204 706.415C978.953 706.415 976.918 705.86 975.098 704.75C973.279 703.64 971.845 702.083 970.797 700.079C969.748 698.074 969.224 695.793 969.224 693.233ZM990.686 693.279C990.686 691.368 990.3 689.702 989.53 688.284C988.759 686.866 987.71 685.786 986.384 685.046C985.089 684.275 983.655 683.89 982.083 683.89C980.51 683.89 979.076 684.26 977.781 685C976.486 685.74 975.453 686.819 974.682 688.238C973.911 689.656 973.526 691.321 973.526 693.233C973.526 695.176 973.911 696.872 974.682 698.321C975.453 699.74 976.486 700.834 977.781 701.605C979.076 702.345 980.51 702.715 982.083 702.715C983.655 702.715 985.089 702.345 986.384 701.605C987.71 700.834 988.759 699.74 989.53 698.321C990.3 696.872 990.686 695.191 990.686 693.279Z"></path><path style="fill:var(--color-darkBlue050)" d="M1006.26 685.324C1007.1 683.875 1008.33 682.672 1009.96 681.716C1011.63 680.729 1013.56 680.236 1015.75 680.236C1018 680.236 1020.03 680.776 1021.85 681.855C1023.7 682.934 1025.15 684.46 1026.2 686.434C1027.25 688.377 1027.77 690.643 1027.77 693.233C1027.77 695.793 1027.25 698.074 1026.2 700.079C1025.15 702.083 1023.7 703.64 1021.85 704.75C1020.03 705.86 1018 706.415 1015.75 706.415C1013.59 706.415 1011.67 705.938 1010.01 704.982C1008.38 703.995 1007.13 702.777 1006.26 701.328V718.025H1002.05V680.652H1006.26V685.324ZM1023.47 693.233C1023.47 691.321 1023.08 689.656 1022.31 688.238C1021.54 686.819 1020.49 685.74 1019.17 685C1017.87 684.26 1016.44 683.89 1014.87 683.89C1013.32 683.89 1011.89 684.275 1010.56 685.046C1009.27 685.786 1008.22 686.881 1007.42 688.33C1006.65 689.749 1006.26 691.398 1006.26 693.279C1006.26 695.191 1006.65 696.872 1007.42 698.321C1008.22 699.74 1009.27 700.834 1010.56 701.605C1011.89 702.345 1013.32 702.715 1014.87 702.715C1016.44 702.715 1017.87 702.345 1019.17 701.605C1020.49 700.834 1021.54 699.74 1022.31 698.321C1023.08 696.872 1023.47 695.176 1023.47 693.233Z"></path><path style="fill:var(--color-darkBlue050)" d="M1037.52 685.324C1038.35 683.875 1039.59 682.672 1041.22 681.716C1042.89 680.729 1044.81 680.236 1047 680.236C1049.25 680.236 1051.29 680.776 1053.11 681.855C1054.96 682.934 1056.41 684.46 1057.46 686.434C1058.5 688.377 1059.03 690.643 1059.03 693.233C1059.03 695.793 1058.5 698.074 1057.46 700.079C1056.41 702.083 1054.96 703.64 1053.11 704.75C1051.29 705.86 1049.25 706.415 1047 706.415C1044.84 706.415 1042.93 705.938 1041.27 704.982C1039.63 703.995 1038.38 702.777 1037.52 701.328V718.025H1033.31V680.652H1037.52V685.324ZM1054.73 693.233C1054.73 691.321 1054.34 689.656 1053.57 688.238C1052.8 686.819 1051.75 685.74 1050.43 685C1049.13 684.26 1047.7 683.89 1046.12 683.89C1044.58 683.89 1043.15 684.275 1041.82 685.046C1040.53 685.786 1039.48 686.881 1038.68 688.33C1037.91 689.749 1037.52 691.398 1037.52 693.279C1037.52 695.191 1037.91 696.872 1038.68 698.321C1039.48 699.74 1040.53 700.834 1041.82 701.605C1043.15 702.345 1044.58 702.715 1046.12 702.715C1047.7 702.715 1049.13 702.345 1050.43 701.605C1051.75 700.834 1052.8 699.74 1053.57 698.321C1054.34 696.872 1054.73 695.176 1054.73 693.233Z"></path><path style="fill:var(--color-darkBlue050)" d="M1068.78 671.771V705.999H1064.57V671.771H1068.78Z"></path><path style="fill:var(--color-darkBlue050)" d="M1097.78 680.652L1082.52 717.933H1078.17L1083.17 705.722L1072.95 680.652H1077.62L1085.57 701.189L1093.44 680.652H1097.78Z"></path><path style="fill:var(--color-illustrationHighlight010)" d="M179.52 381.757V387.677H155.28V406.477H174.96V412.397H155.28V437.517H148V381.757H179.52Z"></path><path style="fill:var(--color-illustrationHighlight010)" d="M192.073 386.557C190.686 386.557 189.513 386.077 188.553 385.117C187.593 384.157 187.112 382.983 187.112 381.597C187.112 380.21 187.593 379.037 188.553 378.077C189.513 377.117 190.686 376.637 192.073 376.637C193.406 376.637 194.526 377.117 195.432 378.077C196.392 379.037 196.873 380.21 196.873 381.597C196.873 382.983 196.392 384.157 195.432 385.117C194.526 386.077 193.406 386.557 192.073 386.557ZM195.593 393.677V437.517H188.312V393.677H195.593Z"></path><path style="fill:var(--color-illustrationHighlight010)" d="M248 413.917C248 415.303 247.92 416.77 247.76 418.317H212.72C212.987 422.637 214.453 426.023 217.12 428.477C219.84 430.877 223.12 432.077 226.96 432.077C230.107 432.077 232.72 431.357 234.8 429.917C236.933 428.423 238.427 426.45 239.28 423.997H247.12C245.947 428.21 243.6 431.65 240.08 434.317C236.56 436.93 232.187 438.237 226.96 438.237C222.8 438.237 219.067 437.303 215.76 435.437C212.507 433.57 209.947 430.93 208.08 427.517C206.213 424.05 205.28 420.05 205.28 415.517C205.28 410.983 206.187 407.01 208 403.597C209.813 400.183 212.347 397.57 215.6 395.757C218.907 393.89 222.693 392.957 226.96 392.957C231.12 392.957 234.8 393.863 238 395.677C241.2 397.49 243.653 399.997 245.36 403.197C247.12 406.343 248 409.917 248 413.917ZM240.48 412.397C240.48 409.623 239.867 407.25 238.64 405.277C237.413 403.25 235.733 401.73 233.6 400.717C231.52 399.65 229.2 399.117 226.64 399.117C222.96 399.117 219.813 400.29 217.2 402.637C214.64 404.983 213.173 408.237 212.8 412.397H240.48Z"></path><path style="fill:var(--color-illustrationHighlight010)" d="M264.889 378.317V437.517H257.609V378.317H264.889Z"></path><path style="fill:var(--color-illustrationHighlight010)" d="M274.577 415.437C274.577 410.957 275.484 407.037 277.297 403.677C279.11 400.263 281.59 397.623 284.737 395.757C287.937 393.89 291.51 392.957 295.457 392.957C298.87 392.957 302.044 393.757 304.977 395.357C307.91 396.903 310.15 398.957 311.697 401.517V378.317H319.057V437.517H311.697V429.277C310.257 431.89 308.124 434.05 305.297 435.757C302.47 437.41 299.164 438.237 295.377 438.237C291.484 438.237 287.937 437.277 284.737 435.357C281.59 433.437 279.11 430.743 277.297 427.277C275.484 423.81 274.577 419.863 274.577 415.437ZM311.697 415.517C311.697 412.21 311.03 409.33 309.697 406.877C308.364 404.423 306.55 402.557 304.257 401.277C302.017 399.943 299.537 399.277 296.817 399.277C294.097 399.277 291.617 399.917 289.377 401.197C287.137 402.477 285.35 404.343 284.017 406.797C282.684 409.25 282.017 412.13 282.017 415.437C282.017 418.797 282.684 421.73 284.017 424.237C285.35 426.69 287.137 428.583 289.377 429.917C291.617 431.197 294.097 431.837 296.817 431.837C299.537 431.837 302.017 431.197 304.257 429.917C306.55 428.583 308.364 426.69 309.697 424.237C311.03 421.73 311.697 418.823 311.697 415.517Z"></path><path style="fill:var(--color-illustrationHighlight010)" d="M346.879 438.237C343.519 438.237 340.506 437.677 337.839 436.557C335.173 435.383 333.066 433.783 331.519 431.757C329.973 429.677 329.119 427.303 328.959 424.637H336.479C336.693 426.823 337.706 428.61 339.519 429.997C341.386 431.383 343.813 432.077 346.799 432.077C349.573 432.077 351.759 431.463 353.359 430.237C354.959 429.01 355.759 427.463 355.759 425.597C355.759 423.677 354.906 422.263 353.199 421.357C351.493 420.397 348.853 419.463 345.279 418.557C342.026 417.703 339.359 416.85 337.279 415.997C335.253 415.09 333.493 413.783 331.999 412.077C330.559 410.317 329.839 408.023 329.839 405.197C329.839 402.957 330.506 400.903 331.839 399.037C333.173 397.17 335.066 395.703 337.519 394.637C339.973 393.517 342.773 392.957 345.919 392.957C350.773 392.957 354.693 394.183 357.679 396.637C360.666 399.09 362.266 402.45 362.479 406.717H355.199C355.039 404.423 354.106 402.583 352.399 401.197C350.746 399.81 348.506 399.117 345.679 399.117C343.066 399.117 340.986 399.677 339.439 400.797C337.893 401.917 337.119 403.383 337.119 405.197C337.119 406.637 337.573 407.837 338.479 408.797C339.439 409.703 340.613 410.45 341.999 411.037C343.439 411.57 345.413 412.183 347.919 412.877C351.066 413.73 353.626 414.583 355.599 415.437C357.573 416.237 359.253 417.463 360.639 419.117C362.079 420.77 362.826 422.93 362.879 425.597C362.879 427.997 362.213 430.157 360.879 432.077C359.546 433.997 357.653 435.517 355.199 436.637C352.799 437.703 350.026 438.237 346.879 438.237Z"></path><path style="fill:var(--color-illustrationHighlight010)" d="M413.156 413.917C413.156 415.303 413.076 416.77 412.916 418.317H377.876C378.143 422.637 379.61 426.023 382.276 428.477C384.996 430.877 388.276 432.077 392.116 432.077C395.263 432.077 397.876 431.357 399.956 429.917C402.09 428.423 403.583 426.45 404.436 423.997H412.276C411.103 428.21 408.756 431.65 405.236 434.317C401.716 436.93 397.343 438.237 392.116 438.237C387.956 438.237 384.223 437.303 380.916 435.437C377.663 433.57 375.103 430.93 373.236 427.517C371.37 424.05 370.436 420.05 370.436 415.517C370.436 410.983 371.343 407.01 373.156 403.597C374.97 400.183 377.503 397.57 380.756 395.757C384.063 393.89 387.85 392.957 392.116 392.957C396.276 392.957 399.956 393.863 403.156 395.677C406.356 397.49 408.81 399.997 410.516 403.197C412.276 406.343 413.156 409.917 413.156 413.917ZM405.636 412.397C405.636 409.623 405.023 407.25 403.796 405.277C402.57 403.25 400.89 401.73 398.756 400.717C396.676 399.65 394.356 399.117 391.796 399.117C388.116 399.117 384.97 400.29 382.356 402.637C379.796 404.983 378.33 408.237 377.956 412.397H405.636Z"></path><path style="fill:var(--color-illustrationHighlight010)" d="M431.646 399.677V425.517C431.646 427.65 432.099 429.17 433.006 430.077C433.912 430.93 435.486 431.357 437.726 431.357H443.086V437.517H436.526C432.472 437.517 429.432 436.583 427.406 434.717C425.379 432.85 424.366 429.783 424.366 425.517V399.677H418.686V393.677H424.366V382.637H431.646V393.677H443.086V399.677H431.646Z"></path><path style="fill:var(--color-illustrationHighlight010)" d="M782.18 329.999L773.615 315.117H768.957V329.999H762.855V292.794H775.703C778.558 292.794 780.967 293.294 782.929 294.293C784.928 295.292 786.409 296.631 787.373 298.308C788.372 299.985 788.872 301.859 788.872 303.929C788.872 306.356 788.158 308.568 786.73 310.567C785.338 312.53 783.179 313.868 780.253 314.582L789.46 329.999H782.18ZM768.957 310.246H775.703C777.987 310.246 779.7 309.675 780.842 308.533C782.019 307.391 782.608 305.856 782.608 303.929C782.608 302.002 782.037 300.503 780.895 299.432C779.753 298.326 778.022 297.773 775.703 297.773H768.957V310.246Z"></path><path style="fill:var(--color-illustrationHighlight010)" d="M823.712 314.528C823.712 315.635 823.641 316.634 823.498 317.526H800.961C801.14 319.882 802.014 321.773 803.584 323.201C805.155 324.628 807.082 325.342 809.366 325.342C812.649 325.342 814.969 323.968 816.325 321.22H822.909C822.017 323.932 820.393 326.163 818.038 327.912C815.718 329.625 812.827 330.481 809.366 330.481C806.546 330.481 804.012 329.857 801.764 328.607C799.551 327.323 797.803 325.538 796.518 323.254C795.269 320.934 794.644 318.258 794.644 315.224C794.644 312.191 795.251 309.532 796.464 307.248C797.713 304.928 799.444 303.144 801.657 301.895C803.905 300.646 806.475 300.021 809.366 300.021C812.149 300.021 814.63 300.628 816.807 301.841C818.984 303.055 820.679 304.768 821.892 306.98C823.106 309.157 823.712 311.673 823.712 314.528ZM817.342 312.601C817.306 310.353 816.503 308.551 814.933 307.194C813.363 305.838 811.418 305.16 809.098 305.16C806.992 305.16 805.19 305.838 803.691 307.194C802.192 308.515 801.3 310.317 801.015 312.601H817.342Z"></path><path style="fill:var(--color-illustrationHighlight010)" d="M827.684 315.117C827.684 312.155 828.291 309.532 829.504 307.248C830.753 304.964 832.43 303.197 834.536 301.948C836.677 300.664 839.033 300.021 841.602 300.021C843.922 300.021 845.938 300.485 847.651 301.413C849.4 302.305 850.792 303.429 851.827 304.786V300.503H857.983V329.999H851.827V325.61C850.792 327.001 849.382 328.161 847.598 329.089C845.814 330.017 843.779 330.481 841.495 330.481C838.961 330.481 836.642 329.839 834.536 328.554C832.43 327.233 830.753 325.413 829.504 323.094C828.291 320.738 827.684 318.079 827.684 315.117ZM851.827 315.224C851.827 313.19 851.399 311.424 850.542 309.925C849.721 308.426 848.633 307.284 847.277 306.499C845.921 305.713 844.457 305.321 842.887 305.321C841.317 305.321 839.854 305.713 838.497 306.499C837.141 307.248 836.035 308.372 835.178 309.871C834.358 311.334 833.947 313.083 833.947 315.117C833.947 317.152 834.358 318.936 835.178 320.471C836.035 322.005 837.141 323.183 838.497 324.004C839.889 324.789 841.352 325.181 842.887 325.181C844.457 325.181 845.921 324.789 847.277 324.004C848.633 323.219 849.721 322.076 850.542 320.578C851.399 319.043 851.827 317.259 851.827 315.224Z"></path><path style="fill:var(--color-illustrationHighlight010)" d="M863.965 315.117C863.965 312.155 864.571 309.532 865.785 307.248C867.034 304.964 868.711 303.197 870.817 301.948C872.958 300.664 875.331 300.021 877.937 300.021C879.864 300.021 881.755 300.449 883.611 301.306C885.503 302.127 887.001 303.233 888.108 304.625V290.385H894.264V329.999H888.108V325.556C887.109 326.984 885.717 328.161 883.932 329.089C882.184 330.017 880.167 330.481 877.883 330.481C875.314 330.481 872.958 329.839 870.817 328.554C868.711 327.233 867.034 325.413 865.785 323.094C864.571 320.738 863.965 318.079 863.965 315.117ZM888.108 315.224C888.108 313.19 887.68 311.424 886.823 309.925C886.002 308.426 884.914 307.284 883.558 306.499C882.201 305.713 880.738 305.321 879.168 305.321C877.598 305.321 876.134 305.713 874.778 306.499C873.422 307.248 872.316 308.372 871.459 309.871C870.638 311.334 870.228 313.083 870.228 315.117C870.228 317.152 870.638 318.936 871.459 320.471C872.316 322.005 873.422 323.183 874.778 324.004C876.17 324.789 877.633 325.181 879.168 325.181C880.738 325.181 882.201 324.789 883.558 324.004C884.914 323.219 886.002 322.076 886.823 320.578C887.68 319.043 888.108 317.259 888.108 315.224Z"></path><path style="fill:var(--color-illustrationHighlight010)" d="M905.385 296.595C904.278 296.595 903.35 296.22 902.601 295.471C901.851 294.721 901.477 293.794 901.477 292.687C901.477 291.581 901.851 290.653 902.601 289.903C903.35 289.154 904.278 288.779 905.385 288.779C906.455 288.779 907.365 289.154 908.115 289.903C908.864 290.653 909.239 291.581 909.239 292.687C909.239 293.794 908.864 294.721 908.115 295.471C907.365 296.22 906.455 296.595 905.385 296.595ZM908.382 300.503V329.999H902.28V300.503H908.382Z"></path><path style="fill:var(--color-illustrationHighlight010)" d="M931.277 300.021C933.596 300.021 935.666 300.503 937.486 301.466C939.342 302.43 940.788 303.858 941.823 305.749C942.858 307.641 943.375 309.925 943.375 312.601V329.999H937.326V313.511C937.326 310.87 936.666 308.854 935.345 307.462C934.025 306.035 932.222 305.321 929.938 305.321C927.654 305.321 925.834 306.035 924.478 307.462C923.158 308.854 922.497 310.87 922.497 313.511V329.999H916.395V300.503H922.497V303.875C923.497 302.662 924.764 301.716 926.298 301.038C927.868 300.36 929.528 300.021 931.277 300.021Z"></path><path style="fill:var(--color-illustrationHighlight010)" d="M963.044 300.021C965.328 300.021 967.344 300.485 969.093 301.413C970.877 302.305 972.269 303.429 973.268 304.786V300.503H979.425V330.481C979.425 333.193 978.854 335.602 977.712 337.708C976.569 339.849 974.91 341.527 972.733 342.74C970.592 343.953 968.022 344.56 965.024 344.56C961.027 344.56 957.708 343.614 955.067 341.723C952.426 339.867 950.927 337.333 950.571 334.121H956.62C957.084 335.656 958.065 336.887 959.564 337.815C961.099 338.779 962.919 339.26 965.024 339.26C967.487 339.26 969.468 338.511 970.966 337.012C972.501 335.513 973.268 333.336 973.268 330.481V325.556C972.233 326.948 970.824 328.126 969.039 329.089C967.291 330.017 965.292 330.481 963.044 330.481C960.474 330.481 958.119 329.839 955.977 328.554C953.872 327.233 952.194 325.413 950.945 323.094C949.732 320.738 949.125 318.079 949.125 315.117C949.125 312.155 949.732 309.532 950.945 307.248C952.194 304.964 953.872 303.197 955.977 301.948C958.119 300.664 960.474 300.021 963.044 300.021ZM973.268 315.224C973.268 313.19 972.84 311.424 971.984 309.925C971.163 308.426 970.074 307.284 968.718 306.499C967.362 305.713 965.899 305.321 964.328 305.321C962.758 305.321 961.295 305.713 959.939 306.499C958.583 307.248 957.476 308.372 956.62 309.871C955.799 311.334 955.388 313.083 955.388 315.117C955.388 317.152 955.799 318.936 956.62 320.471C957.476 322.005 958.583 323.183 959.939 324.004C961.331 324.789 962.794 325.181 964.328 325.181C965.899 325.181 967.362 324.789 968.718 324.004C970.074 323.219 971.163 322.076 971.984 320.578C972.84 319.043 973.268 317.259 973.268 315.224Z"></path><path style="fill:var(--color-illustrationHighlight010)" d="M792.565 430.794V467.999H786.463V451.725H768.957V467.999H762.855V430.794H768.957V446.747H786.463V430.794H792.565Z"></path><path style="fill:var(--color-illustrationHighlight010)" d="M803.704 434.595C802.598 434.595 801.67 434.22 800.921 433.471C800.171 432.721 799.796 431.794 799.796 430.687C799.796 429.581 800.171 428.653 800.921 427.903C801.67 427.154 802.598 426.779 803.704 426.779C804.775 426.779 805.685 427.154 806.434 427.903C807.184 428.653 807.559 429.581 807.559 430.687C807.559 431.794 807.184 432.721 806.434 433.471C805.685 434.22 804.775 434.595 803.704 434.595ZM806.702 438.503V467.999H800.599V438.503H806.702Z"></path><path style="fill:var(--color-illustrationHighlight010)" d="M826.384 453.278L839.982 467.999H831.738L820.817 455.312V467.999H814.714V428.385H820.817V451.404L831.524 438.503H839.982L826.384 453.278Z"></path><path style="fill:var(--color-illustrationHighlight010)" d="M847.461 434.595C846.354 434.595 845.427 434.22 844.677 433.471C843.928 432.721 843.553 431.794 843.553 430.687C843.553 429.581 843.928 428.653 844.677 427.903C845.427 427.154 846.354 426.779 847.461 426.779C848.531 426.779 849.441 427.154 850.191 427.903C850.94 428.653 851.315 429.581 851.315 430.687C851.315 431.794 850.94 432.721 850.191 433.471C849.441 434.22 848.531 434.595 847.461 434.595ZM850.459 438.503V467.999H844.356V438.503H850.459Z"></path><path style="fill:var(--color-illustrationHighlight010)" d="M873.353 438.021C875.673 438.021 877.743 438.503 879.563 439.466C881.418 440.43 882.864 441.858 883.899 443.749C884.934 445.641 885.451 447.925 885.451 450.601V467.999H879.402V451.511C879.402 448.87 878.742 446.854 877.421 445.462C876.101 444.035 874.299 443.321 872.015 443.321C869.731 443.321 867.91 444.035 866.554 445.462C865.234 446.854 864.574 448.87 864.574 451.511V467.999H858.471V438.503H864.574V441.875C865.573 440.662 866.84 439.716 868.374 439.038C869.945 438.36 871.604 438.021 873.353 438.021Z"></path><path style="fill:var(--color-illustrationHighlight010)" d="M905.12 438.021C907.404 438.021 909.42 438.485 911.169 439.413C912.953 440.305 914.345 441.429 915.345 442.786V438.503H921.501V468.481C921.501 471.193 920.93 473.602 919.788 475.708C918.646 477.849 916.986 479.527 914.809 480.74C912.668 481.953 910.098 482.56 907.101 482.56C903.103 482.56 899.784 481.614 897.143 479.723C894.503 477.867 893.004 475.333 892.647 472.121H898.696C899.16 473.656 900.141 474.887 901.64 475.815C903.175 476.779 904.995 477.26 907.101 477.26C909.563 477.26 911.544 476.511 913.043 475.012C914.577 473.513 915.345 471.336 915.345 468.481V463.556C914.31 464.948 912.9 466.126 911.115 467.089C909.367 468.017 907.368 468.481 905.12 468.481C902.55 468.481 900.195 467.839 898.054 466.554C895.948 465.233 894.271 463.413 893.021 461.094C891.808 458.738 891.201 456.079 891.201 453.117C891.201 450.155 891.808 447.532 893.021 445.248C894.271 442.964 895.948 441.197 898.054 439.948C900.195 438.664 902.55 438.021 905.12 438.021ZM915.345 453.224C915.345 451.19 914.916 449.424 914.06 447.925C913.239 446.426 912.15 445.284 910.794 444.499C909.438 443.713 907.975 443.321 906.405 443.321C904.834 443.321 903.371 443.713 902.015 444.499C900.659 445.248 899.552 446.372 898.696 447.871C897.875 449.334 897.465 451.083 897.465 453.117C897.465 455.152 897.875 456.936 898.696 458.471C899.552 460.005 900.659 461.183 902.015 462.004C903.407 462.789 904.87 463.181 906.405 463.181C907.975 463.181 909.438 462.789 910.794 462.004C912.15 461.219 913.239 460.076 914.06 458.578C914.916 457.043 915.345 455.259 915.345 453.224Z"></path><path style="fill:var(--color-illustrationHighlight010)" d="M760.821 587.316C760.821 583.676 761.659 580.411 763.337 577.52C765.05 574.629 767.352 572.381 770.242 570.775C773.169 569.133 776.363 568.312 779.825 568.312C783.786 568.312 787.301 569.294 790.37 571.257C793.475 573.184 795.724 575.932 797.116 579.501H789.782C788.818 577.538 787.48 576.075 785.767 575.111C784.054 574.147 782.073 573.666 779.825 573.666C777.362 573.666 775.167 574.219 773.24 575.325C771.313 576.432 769.796 578.02 768.69 580.09C767.619 582.16 767.084 584.568 767.084 587.316C767.084 590.064 767.619 592.473 768.69 594.543C769.796 596.613 771.313 598.219 773.24 599.361C775.167 600.468 777.362 601.021 779.825 601.021C782.073 601.021 784.054 600.539 785.767 599.575C787.48 598.612 788.818 597.149 789.782 595.186H797.116C795.724 598.755 793.475 601.503 790.37 603.43C787.301 605.357 783.786 606.32 779.825 606.32C776.327 606.32 773.133 605.517 770.242 603.912C767.352 602.27 765.05 600.004 763.337 597.113C761.659 594.222 760.821 590.957 760.821 587.316Z"></path><path style="fill:var(--color-illustrationHighlight010)" d="M817.053 606.481C814.269 606.481 811.753 605.857 809.505 604.607C807.257 603.323 805.49 601.538 804.205 599.254C802.92 596.934 802.278 594.258 802.278 591.224C802.278 588.227 802.938 585.568 804.259 583.248C805.579 580.928 807.382 579.144 809.666 577.895C811.95 576.646 814.501 576.021 817.321 576.021C820.14 576.021 822.692 576.646 824.976 577.895C827.26 579.144 829.062 580.928 830.383 583.248C831.703 585.568 832.363 588.227 832.363 591.224C832.363 594.222 831.685 596.881 830.329 599.201C828.973 601.52 827.117 603.323 824.762 604.607C822.442 605.857 819.872 606.481 817.053 606.481ZM817.053 601.181C818.623 601.181 820.087 600.807 821.443 600.057C822.835 599.308 823.959 598.184 824.815 596.685C825.672 595.186 826.1 593.366 826.1 591.224C826.1 589.083 825.69 587.281 824.869 585.818C824.048 584.319 822.959 583.194 821.603 582.445C820.247 581.696 818.784 581.321 817.214 581.321C815.643 581.321 814.18 581.696 812.824 582.445C811.504 583.194 810.451 584.319 809.666 585.818C808.88 587.281 808.488 589.083 808.488 591.224C808.488 594.401 809.291 596.863 810.897 598.612C812.538 600.325 814.591 601.181 817.053 601.181Z"></path><path style="fill:var(--color-illustrationHighlight010)" d="M851.19 606.481C848.407 606.481 845.891 605.857 843.642 604.607C841.394 603.323 839.627 601.538 838.343 599.254C837.058 596.934 836.416 594.258 836.416 591.224C836.416 588.227 837.076 585.568 838.396 583.248C839.717 580.928 841.519 579.144 843.803 577.895C846.087 576.646 848.639 576.021 851.458 576.021C854.278 576.021 856.829 576.646 859.113 577.895C861.397 579.144 863.2 580.928 864.52 583.248C865.841 585.568 866.501 588.227 866.501 591.224C866.501 594.222 865.823 596.881 864.467 599.201C863.11 601.52 861.255 603.323 858.899 604.607C856.579 605.857 854.01 606.481 851.19 606.481ZM851.19 601.181C852.761 601.181 854.224 600.807 855.58 600.057C856.972 599.308 858.096 598.184 858.953 596.685C859.809 595.186 860.237 593.366 860.237 591.224C860.237 589.083 859.827 587.281 859.006 585.818C858.185 584.319 857.097 583.194 855.741 582.445C854.385 581.696 852.921 581.321 851.351 581.321C849.781 581.321 848.318 581.696 846.961 582.445C845.641 583.194 844.588 584.319 843.803 585.818C843.018 587.281 842.625 589.083 842.625 591.224C842.625 594.401 843.428 596.863 845.034 598.612C846.676 600.325 848.728 601.181 851.19 601.181Z"></path><path style="fill:var(--color-illustrationHighlight010)" d="M884.204 591.278L897.801 605.999H889.557L878.636 593.312V605.999H872.534V566.385H878.636V589.404L889.343 576.503H897.801L884.204 591.278Z"></path><path style="fill:var(--color-illustrationHighlight010)" d="M905.28 572.595C904.174 572.595 903.246 572.22 902.496 571.471C901.747 570.721 901.372 569.794 901.372 568.687C901.372 567.581 901.747 566.653 902.496 565.903C903.246 565.154 904.174 564.779 905.28 564.779C906.351 564.779 907.261 565.154 908.01 565.903C908.76 566.653 909.134 567.581 909.134 568.687C909.134 569.794 908.76 570.721 908.01 571.471C907.261 572.22 906.351 572.595 905.28 572.595ZM908.278 576.503V605.999H902.175V576.503H908.278Z"></path><path style="fill:var(--color-illustrationHighlight010)" d="M931.172 576.021C933.492 576.021 935.562 576.503 937.382 577.466C939.238 578.43 940.683 579.858 941.718 581.749C942.753 583.641 943.27 585.925 943.27 588.601V605.999H937.221V589.511C937.221 586.87 936.561 584.854 935.241 583.462C933.92 582.035 932.118 581.321 929.834 581.321C927.55 581.321 925.73 582.035 924.374 583.462C923.053 584.854 922.393 586.87 922.393 589.511V605.999H916.29V576.503H922.393V579.875C923.392 578.662 924.659 577.716 926.194 577.038C927.764 576.36 929.423 576.021 931.172 576.021Z"></path><path style="fill:var(--color-illustrationHighlight010)" d="M962.939 576.021C965.223 576.021 967.24 576.485 968.988 577.413C970.773 578.305 972.164 579.429 973.164 580.786V576.503H979.32V606.481C979.32 609.193 978.749 611.602 977.607 613.708C976.465 615.849 974.805 617.527 972.628 618.74C970.487 619.953 967.918 620.56 964.92 620.56C960.923 620.56 957.604 619.614 954.963 617.723C952.322 615.867 950.823 613.333 950.466 610.121H956.515C956.979 611.656 957.961 612.887 959.459 613.815C960.994 614.779 962.814 615.26 964.92 615.26C967.382 615.26 969.363 614.511 970.862 613.012C972.396 611.513 973.164 609.336 973.164 606.481V601.556C972.129 602.948 970.719 604.126 968.935 605.089C967.186 606.017 965.187 606.481 962.939 606.481C960.37 606.481 958.014 605.839 955.873 604.554C953.767 603.233 952.09 601.413 950.841 599.094C949.627 596.738 949.021 594.079 949.021 591.117C949.021 588.155 949.627 585.532 950.841 583.248C952.09 580.964 953.767 579.197 955.873 577.948C958.014 576.664 960.37 576.021 962.939 576.021ZM973.164 591.224C973.164 589.19 972.736 587.424 971.879 585.925C971.058 584.426 969.97 583.284 968.614 582.499C967.257 581.713 965.794 581.321 964.224 581.321C962.654 581.321 961.19 581.713 959.834 582.499C958.478 583.248 957.372 584.372 956.515 585.871C955.694 587.334 955.284 589.083 955.284 591.117C955.284 593.152 955.694 594.936 956.515 596.471C957.372 598.005 958.478 599.183 959.834 600.004C961.226 600.789 962.689 601.181 964.224 601.181C965.794 601.181 967.257 600.789 968.614 600.004C969.97 599.219 971.058 598.076 971.879 596.578C972.736 595.043 973.164 593.259 973.164 591.224Z"></path><path style="fill:var(--color-illustrationPalette040)" d="M641.191 415.434C641.191 407.08 647.963 400.309 656.317 400.309H722.085C730.438 400.309 737.21 407.08 737.21 415.434V481.202C737.21 489.555 730.438 496.327 722.085 496.327H656.317C647.963 496.327 641.191 489.555 641.191 481.202V415.434Z"></path><path style="fill:var(--color-white)" d="M679.332 462.267L665.615 448.673L660.944 453.27L679.332 471.492L718.807 432.374L714.168 427.777L679.332 462.267Z"></path><path style="fill:var(--color-illustrationBorder020)" fill-rule="evenodd" clip-rule="evenodd" d="M724.89 543.975H652.79C649.49 543.975 646.815 546.65 646.815 549.95V622.05C646.815 625.35 649.49 628.025 652.79 628.025H724.89C728.19 628.025 730.865 625.35 730.865 622.05V549.95C730.865 546.65 728.19 543.975 724.89 543.975ZM652.79 538C646.19 538 640.84 543.35 640.84 549.95V622.05C640.84 628.65 646.19 634 652.79 634H724.89C731.49 634 736.84 628.65 736.84 622.05V549.95C736.84 543.35 731.49 538 724.89 538H652.79Z"></path></svg>