<svg id="nksvg" width="1490" height="838" viewBox="0 0 1490 838" fill="none" xmlns="http://www.w3.org/2000/svg">
<g clip-path="url(#clip0_973_179622)">
<rect width="1490" height="838" fill="var(--color-illustrationBackground010)"/>
<path d="M442 -49.6078C442 -54.7949 446.205 -59 451.392 -59H1038.61C1043.79 -59 1048 -54.795 1048 -49.6078V887.608C1048 892.795 1043.79 897 1038.61 897H451.392C446.205 897 442 892.795 442 887.608V-49.6078Z" fill="white"/>
<path d="M526.227 326.59C526.227 321.235 530.567 316.895 535.922 316.895H578.081C583.435 316.895 587.776 321.235 587.776 326.59V368.749C587.776 374.103 583.435 378.444 578.081 378.444H535.922C530.567 378.444 526.227 374.103 526.227 368.749V326.59Z" fill="#577FFB"/>
<path d="M550.755 233.722V240.257H537.113V247.316H547.321V253.66H537.113V267.207H528.957V233.722H550.755Z" fill="#577FFB"/>
<path d="M553.42 253.851C553.42 251.116 553.929 248.715 554.947 246.648C555.996 244.582 557.411 242.992 559.192 241.879C560.973 240.766 562.96 240.209 565.154 240.209C567.03 240.209 568.668 240.591 570.067 241.354C571.498 242.117 572.595 243.119 573.358 244.359V240.591H581.515V267.207H573.358V263.438C572.563 264.678 571.45 265.68 570.019 266.443C568.62 267.207 566.983 267.588 565.107 267.588C562.944 267.588 560.973 267.032 559.192 265.919C557.411 264.774 555.996 263.168 554.947 261.101C553.929 259.002 553.42 256.586 553.42 253.851ZM573.358 253.899C573.358 251.863 572.786 250.258 571.641 249.081C570.528 247.905 569.161 247.316 567.539 247.316C565.917 247.316 564.534 247.905 563.389 249.081C562.276 250.226 561.72 251.816 561.72 253.851C561.72 255.886 562.276 257.508 563.389 258.716C564.534 259.893 565.917 260.481 567.539 260.481C569.161 260.481 570.528 259.893 571.641 258.716C572.786 257.54 573.358 255.934 573.358 253.899Z" fill="#577FFB"/>
<path d="M599.388 259.575L605.16 240.591H613.841L604.396 267.207H594.332L584.888 240.591H593.616L599.388 259.575Z" fill="#577FFB"/>
<path d="M629.389 267.588C626.782 267.588 624.429 267.032 622.33 265.919C620.263 264.806 618.625 263.216 617.417 261.149C616.24 259.082 615.652 256.665 615.652 253.899C615.652 251.164 616.256 248.763 617.465 246.696C618.673 244.597 620.327 242.992 622.425 241.879C624.524 240.766 626.877 240.209 629.485 240.209C632.092 240.209 634.445 240.766 636.544 241.879C638.643 242.992 640.296 244.597 641.505 246.696C642.713 248.763 643.317 251.164 643.317 253.899C643.317 256.633 642.697 259.05 641.457 261.149C640.249 263.216 638.579 264.806 636.449 265.919C634.35 267.032 631.997 267.588 629.389 267.588ZM629.389 260.529C630.947 260.529 632.267 259.956 633.348 258.812C634.461 257.667 635.018 256.029 635.018 253.899C635.018 251.768 634.477 250.13 633.396 248.986C632.347 247.841 631.043 247.269 629.485 247.269C627.895 247.269 626.575 247.841 625.526 248.986C624.476 250.099 623.952 251.736 623.952 253.899C623.952 256.029 624.46 257.667 625.478 258.812C626.527 259.956 627.831 260.529 629.389 260.529Z" fill="#577FFB"/>
<path d="M655.801 245.027C656.755 243.564 657.947 242.419 659.378 241.592C660.809 240.734 662.399 240.305 664.148 240.305V248.938H661.906C659.871 248.938 658.345 249.383 657.327 250.274C656.31 251.132 655.801 252.658 655.801 254.853V267.207H647.644V240.591H655.801V245.027Z" fill="#577FFB"/>
<path d="M672.149 237.824C670.718 237.824 669.541 237.411 668.619 236.584C667.729 235.726 667.283 234.676 667.283 233.436C667.283 232.164 667.729 231.115 668.619 230.288C669.541 229.429 670.718 229 672.149 229C673.548 229 674.693 229.429 675.583 230.288C676.505 231.115 676.966 232.164 676.966 233.436C676.966 234.676 676.505 235.726 675.583 236.584C674.693 237.411 673.548 237.824 672.149 237.824ZM676.203 240.591V267.207H668.047V240.591H676.203Z" fill="#577FFB"/>
<path d="M696.948 260.29V267.207H692.798C689.841 267.207 687.536 266.491 685.882 265.06C684.229 263.597 683.402 261.228 683.402 257.953V247.364H680.158V240.591H683.402V234.104H691.558V240.591H696.9V247.364H691.558V258.048C691.558 258.843 691.749 259.416 692.131 259.766C692.512 260.115 693.148 260.29 694.039 260.29H696.948Z" fill="#577FFB"/>
<path d="M726.581 253.469C726.581 254.233 726.533 255.028 726.438 255.854H707.978C708.106 257.508 708.63 258.78 709.553 259.67C710.506 260.529 711.667 260.958 713.035 260.958C715.07 260.958 716.485 260.099 717.28 258.382H725.961C725.516 260.131 724.705 261.705 723.528 263.104C722.383 264.504 720.937 265.601 719.188 266.396C717.439 267.191 715.483 267.588 713.321 267.588C710.713 267.588 708.392 267.032 706.357 265.919C704.322 264.806 702.732 263.216 701.587 261.149C700.442 259.082 699.87 256.665 699.87 253.899C699.87 251.132 700.426 248.715 701.539 246.648C702.684 244.582 704.274 242.992 706.309 241.879C708.344 240.766 710.681 240.209 713.321 240.209C715.896 240.209 718.186 240.75 720.189 241.831C722.193 242.912 723.751 244.454 724.864 246.458C726.009 248.461 726.581 250.798 726.581 253.469ZM718.234 251.323C718.234 249.924 717.757 248.811 716.803 247.984C715.849 247.157 714.656 246.744 713.225 246.744C711.858 246.744 710.697 247.141 709.743 247.936C708.821 248.731 708.249 249.86 708.026 251.323H718.234Z" fill="#577FFB"/>
<path d="M739.37 253.851C739.37 251.116 739.879 248.715 740.896 246.648C741.946 244.582 743.361 242.992 745.142 241.879C746.922 240.766 748.91 240.209 751.104 240.209C752.98 240.209 754.618 240.591 756.017 241.354C757.448 242.117 758.545 243.119 759.308 244.359V240.591H767.464V267.207H759.308V263.438C758.513 264.678 757.4 265.68 755.969 266.443C754.57 267.207 752.932 267.588 751.056 267.588C748.894 267.588 746.922 267.032 745.142 265.919C743.361 264.774 741.946 263.168 740.896 261.101C739.879 259.002 739.37 256.586 739.37 253.851ZM759.308 253.899C759.308 251.863 758.736 250.258 757.591 249.081C756.478 247.905 755.111 247.316 753.489 247.316C751.867 247.316 750.484 247.905 749.339 249.081C748.226 250.226 747.67 251.816 747.67 253.851C747.67 255.886 748.226 257.508 749.339 258.716C750.484 259.893 751.867 260.481 753.489 260.481C755.111 260.481 756.478 259.893 757.591 258.716C758.736 257.54 759.308 255.934 759.308 253.899Z" fill="#577FFB"/>
<path d="M771.744 253.899C771.744 251.132 772.3 248.715 773.413 246.648C774.558 244.582 776.132 242.992 778.135 241.879C780.17 240.766 782.492 240.209 785.099 240.209C788.438 240.209 791.22 241.084 793.446 242.833C795.704 244.582 797.183 247.046 797.882 250.226H789.201C788.47 248.191 787.055 247.173 784.956 247.173C783.462 247.173 782.269 247.761 781.379 248.938C780.488 250.083 780.043 251.736 780.043 253.899C780.043 256.061 780.488 257.73 781.379 258.907C782.269 260.052 783.462 260.624 784.956 260.624C787.055 260.624 788.47 259.607 789.201 257.571H797.882C797.183 260.688 795.704 263.136 793.446 264.917C791.189 266.698 788.406 267.588 785.099 267.588C782.492 267.588 780.17 267.032 778.135 265.919C776.132 264.806 774.558 263.216 773.413 261.149C772.3 259.082 771.744 256.665 771.744 253.899Z" fill="#577FFB"/>
<path d="M817.08 260.29V267.207H812.93C809.972 267.207 807.667 266.491 806.013 265.06C804.36 263.597 803.533 261.228 803.533 257.953V247.364H800.29V240.591H803.533V234.104H811.69V240.591H817.032V247.364H811.69V258.048C811.69 258.843 811.88 259.416 812.262 259.766C812.644 260.115 813.28 260.29 814.17 260.29H817.08Z" fill="#577FFB"/>
<path d="M825.725 237.824C824.294 237.824 823.117 237.411 822.195 236.584C821.305 235.726 820.86 234.676 820.86 233.436C820.86 232.164 821.305 231.115 822.195 230.288C823.117 229.429 824.294 229 825.725 229C827.124 229 828.269 229.429 829.159 230.288C830.081 231.115 830.542 232.164 830.542 233.436C830.542 234.676 830.081 235.726 829.159 236.584C828.269 237.411 827.124 237.824 825.725 237.824ZM829.779 240.591V267.207H821.623V240.591H829.779Z" fill="#577FFB"/>
<path d="M847.662 259.575L853.434 240.591H862.115L852.671 267.207H842.606L833.162 240.591H841.891L847.662 259.575Z" fill="#577FFB"/>
<path d="M869.65 237.824C868.219 237.824 867.043 237.411 866.121 236.584C865.23 235.726 864.785 234.676 864.785 233.436C864.785 232.164 865.23 231.115 866.121 230.288C867.043 229.429 868.219 229 869.65 229C871.049 229 872.194 229.429 873.085 230.288C874.007 231.115 874.468 232.164 874.468 233.436C874.468 234.676 874.007 235.726 873.085 236.584C872.194 237.411 871.049 237.824 869.65 237.824ZM873.705 240.591V267.207H865.548V240.591H873.705Z" fill="#577FFB"/>
<path d="M894.45 260.29V267.207H890.3C887.343 267.207 885.037 266.491 883.384 265.06C881.73 263.597 880.903 261.228 880.903 257.953V247.364H877.66V240.591H880.903V234.104H889.06V240.591H894.402V247.364H889.06V258.048C889.06 258.843 889.251 259.416 889.632 259.766C890.014 260.115 890.65 260.29 891.54 260.29H894.45Z" fill="#577FFB"/>
<path d="M903.095 237.824C901.664 237.824 900.488 237.411 899.565 236.584C898.675 235.726 898.23 234.676 898.23 233.436C898.23 232.164 898.675 231.115 899.565 230.288C900.488 229.429 901.664 229 903.095 229C904.494 229 905.639 229.429 906.529 230.288C907.452 231.115 907.913 232.164 907.913 233.436C907.913 234.676 907.452 235.726 906.529 236.584C905.639 237.411 904.494 237.824 903.095 237.824ZM907.15 240.591V267.207H898.993V240.591H907.15Z" fill="#577FFB"/>
<path d="M938.15 253.469C938.15 254.233 938.102 255.028 938.007 255.854H919.547C919.675 257.508 920.199 258.78 921.122 259.67C922.075 260.529 923.236 260.958 924.603 260.958C926.639 260.958 928.054 260.099 928.849 258.382H937.53C937.085 260.131 936.274 261.705 935.097 263.104C933.952 264.504 932.506 265.601 930.757 266.396C929.008 267.191 927.052 267.588 924.89 267.588C922.282 267.588 919.961 267.032 917.926 265.919C915.891 264.806 914.301 263.216 913.156 261.149C912.011 259.082 911.439 256.665 911.439 253.899C911.439 251.132 911.995 248.715 913.108 246.648C914.253 244.582 915.843 242.992 917.878 241.879C919.913 240.766 922.25 240.209 924.89 240.209C927.465 240.209 929.755 240.75 931.758 241.831C933.762 242.912 935.32 244.454 936.433 246.458C937.578 248.461 938.15 250.798 938.15 253.469ZM929.803 251.323C929.803 249.924 929.326 248.811 928.372 247.984C927.418 247.157 926.225 246.744 924.794 246.744C923.427 246.744 922.266 247.141 921.312 247.936C920.39 248.731 919.818 249.86 919.595 251.323H929.803Z" fill="#577FFB"/>
<path d="M953.28 267.588C950.959 267.588 948.892 267.191 947.08 266.396C945.267 265.601 943.836 264.519 942.787 263.152C941.737 261.753 941.149 260.195 941.022 258.478H949.083C949.178 259.4 949.608 260.147 950.371 260.72C951.134 261.292 952.072 261.578 953.185 261.578C954.203 261.578 954.982 261.387 955.522 261.006C956.095 260.592 956.381 260.068 956.381 259.432C956.381 258.668 955.983 258.112 955.188 257.762C954.393 257.381 953.105 256.967 951.325 256.522C949.417 256.077 947.827 255.616 946.555 255.139C945.283 254.63 944.186 253.851 943.264 252.802C942.342 251.72 941.88 250.274 941.88 248.461C941.88 246.935 942.294 245.551 943.121 244.311C943.979 243.039 945.219 242.038 946.841 241.306C948.495 240.575 950.45 240.209 952.708 240.209C956.047 240.209 958.67 241.036 960.578 242.689C962.518 244.343 963.631 246.537 963.917 249.272H956.381C956.254 248.35 955.84 247.618 955.141 247.078C954.473 246.537 953.582 246.267 952.469 246.267C951.515 246.267 950.784 246.458 950.275 246.839C949.767 247.189 949.512 247.682 949.512 248.318C949.512 249.081 949.91 249.653 950.705 250.035C951.531 250.417 952.803 250.798 954.521 251.18C956.492 251.689 958.098 252.197 959.338 252.706C960.578 253.183 961.659 253.978 962.582 255.091C963.536 256.172 964.028 257.635 964.06 259.479C964.06 261.037 963.615 262.437 962.725 263.677C961.866 264.885 960.61 265.839 958.956 266.539C957.335 267.238 955.443 267.588 953.28 267.588Z" fill="#577FFB"/>
<path d="M550.677 356.602L541.884 347.888L538.89 350.835L550.677 362.516L575.981 337.44L573.008 334.494L550.677 356.602Z" fill="white"/>
<path d="M534.841 601.386C533.477 601.386 532.251 601.149 531.164 600.675C530.097 600.181 529.257 599.509 528.644 598.659C528.031 597.789 527.715 596.791 527.695 595.664H530.571C530.67 596.633 531.065 597.453 531.757 598.125C532.469 598.777 533.497 599.103 534.841 599.103C536.126 599.103 537.134 598.787 537.865 598.155C538.616 597.502 538.992 596.672 538.992 595.664C538.992 594.873 538.774 594.231 538.339 593.737C537.905 593.243 537.361 592.867 536.709 592.61C536.056 592.353 535.177 592.077 534.07 591.78C532.706 591.424 531.609 591.068 530.779 590.713C529.968 590.357 529.267 589.803 528.674 589.052C528.101 588.281 527.814 587.253 527.814 585.969C527.814 584.842 528.101 583.844 528.674 582.974C529.247 582.104 530.048 581.432 531.075 580.958C532.123 580.484 533.319 580.246 534.663 580.246C536.6 580.246 538.181 580.731 539.407 581.699C540.652 582.668 541.354 583.953 541.512 585.554H538.547C538.448 584.763 538.033 584.071 537.302 583.478C536.57 582.865 535.602 582.559 534.396 582.559C533.269 582.559 532.35 582.855 531.639 583.448C530.927 584.022 530.571 584.832 530.571 585.88C530.571 586.631 530.779 587.244 531.194 587.718C531.629 588.192 532.153 588.558 532.765 588.815C533.398 589.052 534.277 589.329 535.404 589.645C536.768 590.021 537.865 590.396 538.695 590.772C539.525 591.128 540.237 591.691 540.83 592.462C541.423 593.213 541.72 594.241 541.72 595.545C541.72 596.554 541.453 597.502 540.919 598.392C540.385 599.281 539.595 600.003 538.547 600.556C537.499 601.11 536.264 601.386 534.841 601.386Z" fill="#85939C"/>
<path d="M560.515 592.432C560.515 592.946 560.485 593.49 560.426 594.063H547.439C547.538 595.664 548.082 596.919 549.07 597.828C550.078 598.718 551.294 599.163 552.717 599.163C553.883 599.163 554.852 598.896 555.623 598.362C556.413 597.809 556.967 597.077 557.283 596.168H560.189C559.754 597.73 558.884 599.005 557.579 599.993C556.275 600.961 554.654 601.446 552.717 601.446C551.175 601.446 549.791 601.1 548.566 600.408C547.36 599.716 546.411 598.738 545.72 597.473C545.028 596.188 544.682 594.705 544.682 593.025C544.682 591.345 545.018 589.873 545.69 588.607C546.362 587.342 547.301 586.374 548.507 585.702C549.732 585.01 551.136 584.664 552.717 584.664C554.259 584.664 555.623 585 556.809 585.672C557.995 586.344 558.904 587.273 559.536 588.459C560.189 589.626 560.515 590.95 560.515 592.432ZM557.728 591.869C557.728 590.841 557.5 589.962 557.046 589.23C556.591 588.479 555.968 587.916 555.178 587.54C554.407 587.145 553.547 586.947 552.598 586.947C551.234 586.947 550.068 587.382 549.1 588.252C548.151 589.121 547.607 590.327 547.469 591.869H557.728Z" fill="#85939C"/>
<path d="M566.774 579.238V601.179H564.076V579.238H566.774Z" fill="#85939C"/>
<path d="M586.197 592.432C586.197 592.946 586.168 593.49 586.108 594.063H573.122C573.221 595.664 573.764 596.919 574.753 597.828C575.761 598.718 576.976 599.163 578.4 599.163C579.566 599.163 580.534 598.896 581.305 598.362C582.096 597.809 582.649 597.077 582.966 596.168H585.871C585.436 597.73 584.567 599.005 583.262 599.993C581.958 600.961 580.337 601.446 578.4 601.446C576.858 601.446 575.474 601.1 574.249 600.408C573.043 599.716 572.094 598.738 571.402 597.473C570.71 596.188 570.365 594.705 570.365 593.025C570.365 591.345 570.701 589.873 571.373 588.607C572.045 587.342 572.984 586.374 574.189 585.702C575.415 585.01 576.818 584.664 578.4 584.664C579.941 584.664 581.305 585 582.491 585.672C583.677 586.344 584.586 587.273 585.219 588.459C585.871 589.626 586.197 590.95 586.197 592.432ZM583.41 591.869C583.41 590.841 583.183 589.962 582.728 589.23C582.274 588.479 581.651 587.916 580.86 587.54C580.09 587.145 579.23 586.947 578.281 586.947C576.917 586.947 575.751 587.382 574.782 588.252C573.834 589.121 573.29 590.327 573.152 591.869H583.41Z" fill="#85939C"/>
<path d="M588.751 593.025C588.751 591.345 589.087 589.882 589.759 588.637C590.431 587.372 591.36 586.394 592.546 585.702C593.752 585.01 595.125 584.664 596.667 584.664C598.664 584.664 600.304 585.148 601.589 586.117C602.894 587.085 603.753 588.43 604.168 590.149H601.263C600.986 589.161 600.442 588.38 599.632 587.807C598.841 587.234 597.853 586.947 596.667 586.947C595.125 586.947 593.88 587.481 592.931 588.548C591.983 589.596 591.508 591.088 591.508 593.025C591.508 594.982 591.983 596.494 592.931 597.562C593.88 598.629 595.125 599.163 596.667 599.163C597.853 599.163 598.841 598.886 599.632 598.333C600.423 597.779 600.966 596.988 601.263 595.961H604.168C603.734 597.621 602.864 598.955 601.559 599.963C600.255 600.952 598.624 601.446 596.667 601.446C595.125 601.446 593.752 601.1 592.546 600.408C591.36 599.716 590.431 598.738 589.759 597.473C589.087 596.208 588.751 594.725 588.751 593.025Z" fill="#85939C"/>
<path d="M611.06 587.155V596.731C611.06 597.522 611.228 598.085 611.564 598.422C611.9 598.738 612.483 598.896 613.313 598.896H615.299V601.179H612.868C611.366 601.179 610.239 600.833 609.488 600.141C608.737 599.449 608.362 598.313 608.362 596.731V587.155H606.256V584.931H608.362V580.839H611.06V584.931H615.299V587.155H611.06Z" fill="#85939C"/>
<path d="M625.465 592.996C625.465 591.335 625.801 589.882 626.473 588.637C627.145 587.372 628.064 586.394 629.231 585.702C630.417 585.01 631.731 584.664 633.174 584.664C634.597 584.664 635.833 584.97 636.88 585.583C637.928 586.196 638.709 586.967 639.222 587.896V584.931H641.95V601.179H639.222V598.155C638.689 599.103 637.888 599.894 636.821 600.527C635.773 601.139 634.548 601.446 633.144 601.446C631.701 601.446 630.397 601.09 629.231 600.378C628.064 599.667 627.145 598.669 626.473 597.384C625.801 596.099 625.465 594.636 625.465 592.996ZM639.222 593.025C639.222 591.8 638.975 590.732 638.481 589.823C637.987 588.914 637.315 588.222 636.465 587.748C635.635 587.254 634.716 587.006 633.708 587.006C632.7 587.006 631.78 587.244 630.95 587.718C630.12 588.192 629.458 588.884 628.964 589.794C628.47 590.703 628.222 591.77 628.222 592.996C628.222 594.241 628.47 595.328 628.964 596.257C629.458 597.166 630.12 597.868 630.95 598.362C631.78 598.837 632.7 599.074 633.708 599.074C634.716 599.074 635.635 598.837 636.465 598.362C637.315 597.868 637.987 597.166 638.481 596.257C638.975 595.328 639.222 594.251 639.222 593.025Z" fill="#85939C"/>
<path d="M649.208 579.238V601.179H646.51V579.238H649.208Z" fill="#85939C"/>
<path d="M656.504 579.238V601.179H653.806V579.238H656.504Z" fill="#85939C"/>
<path d="M672.298 587.155V596.731C672.298 597.522 672.466 598.085 672.803 598.422C673.139 598.738 673.722 598.896 674.552 598.896H676.538V601.179H674.107C672.605 601.179 671.478 600.833 670.727 600.141C669.976 599.449 669.6 598.313 669.6 596.731V587.155H667.495V584.931H669.6V580.839H672.298V584.931H676.538V587.155H672.298Z" fill="#85939C"/>
<path d="M687.872 584.634C689.098 584.634 690.205 584.901 691.193 585.435C692.181 585.949 692.952 586.73 693.506 587.777C694.079 588.825 694.365 590.1 694.365 591.602V601.179H691.697V591.988C691.697 590.367 691.292 589.131 690.481 588.281C689.671 587.412 688.564 586.977 687.161 586.977C685.737 586.977 684.601 587.422 683.751 588.311C682.921 589.201 682.506 590.495 682.506 592.195V601.179H679.807V579.238H682.506V587.244C683.039 586.413 683.771 585.771 684.7 585.316C685.648 584.862 686.706 584.634 687.872 584.634Z" fill="#85939C"/>
<path d="M697.765 592.996C697.765 591.335 698.101 589.882 698.773 588.637C699.445 587.372 700.364 586.394 701.53 585.702C702.716 585.01 704.031 584.664 705.473 584.664C706.897 584.664 708.132 584.97 709.18 585.583C710.227 586.196 711.008 586.967 711.522 587.896V584.931H714.25V601.179H711.522V598.155C710.988 599.103 710.188 599.894 709.12 600.527C708.073 601.139 706.847 601.446 705.444 601.446C704.001 601.446 702.696 601.09 701.53 600.378C700.364 599.667 699.445 598.669 698.773 597.384C698.101 596.099 697.765 594.636 697.765 592.996ZM711.522 593.025C711.522 591.8 711.275 590.732 710.781 589.823C710.287 588.914 709.615 588.222 708.765 587.748C707.934 587.254 707.015 587.006 706.007 587.006C704.999 587.006 704.08 587.244 703.25 587.718C702.42 588.192 701.757 588.884 701.263 589.794C700.769 590.703 700.522 591.77 700.522 592.996C700.522 594.241 700.769 595.328 701.263 596.257C701.757 597.166 702.42 597.868 703.25 598.362C704.08 598.837 704.999 599.074 706.007 599.074C707.015 599.074 707.934 598.837 708.765 598.362C709.615 597.868 710.287 597.166 710.781 596.257C711.275 595.328 711.522 594.251 711.522 593.025Z" fill="#85939C"/>
<path d="M722.1 587.155V596.731C722.1 597.522 722.268 598.085 722.604 598.422C722.94 598.738 723.524 598.896 724.354 598.896H726.34V601.179H723.909C722.407 601.179 721.28 600.833 720.529 600.141C719.778 599.449 719.402 598.313 719.402 596.731V587.155H717.297V584.931H719.402V580.839H722.1V584.931H726.34V587.155H722.1Z" fill="#85939C"/>
<path d="M736.506 592.996C736.506 591.335 736.842 589.882 737.514 588.637C738.186 587.372 739.105 586.394 740.271 585.702C741.457 585.01 742.772 584.664 744.215 584.664C745.638 584.664 746.873 584.97 747.921 585.583C748.968 586.196 749.749 586.967 750.263 587.896V584.931H752.991V601.179H750.263V598.155C749.729 599.103 748.929 599.894 747.862 600.527C746.814 601.139 745.588 601.446 744.185 601.446C742.742 601.446 741.437 601.09 740.271 600.378C739.105 599.667 738.186 598.669 737.514 597.384C736.842 596.099 736.506 594.636 736.506 592.996ZM750.263 593.025C750.263 591.8 750.016 590.732 749.522 589.823C749.028 588.914 748.356 588.222 747.506 587.748C746.676 587.254 745.756 587.006 744.748 587.006C743.74 587.006 742.821 587.244 741.991 587.718C741.161 588.192 740.499 588.884 740.004 589.794C739.51 590.703 739.263 591.77 739.263 592.996C739.263 594.241 739.51 595.328 740.004 596.257C740.499 597.166 741.161 597.868 741.991 598.362C742.821 598.837 743.74 599.074 744.748 599.074C745.756 599.074 746.676 598.837 747.506 598.362C748.356 597.868 749.028 597.166 749.522 596.257C750.016 595.328 750.263 594.251 750.263 593.025Z" fill="#85939C"/>
<path d="M760.249 587.926C760.782 586.997 761.573 586.226 762.62 585.613C763.688 584.98 764.923 584.664 766.327 584.664C767.77 584.664 769.074 585.01 770.24 585.702C771.426 586.394 772.355 587.372 773.027 588.637C773.699 589.882 774.036 591.335 774.036 592.996C774.036 594.636 773.699 596.099 773.027 597.384C772.355 598.669 771.426 599.667 770.24 600.378C769.074 601.09 767.77 601.446 766.327 601.446C764.943 601.446 763.717 601.139 762.65 600.527C761.603 599.894 760.802 599.113 760.249 598.184V608.888H757.55V584.931H760.249V587.926ZM771.278 592.996C771.278 591.77 771.031 590.703 770.537 589.794C770.043 588.884 769.371 588.192 768.521 587.718C767.691 587.244 766.771 587.006 765.763 587.006C764.775 587.006 763.856 587.254 763.006 587.748C762.176 588.222 761.504 588.924 760.99 589.853C760.496 590.762 760.249 591.82 760.249 593.025C760.249 594.251 760.496 595.328 760.99 596.257C761.504 597.166 762.176 597.868 763.006 598.362C763.856 598.837 764.775 599.074 765.763 599.074C766.771 599.074 767.691 598.837 768.521 598.362C769.371 597.868 770.043 597.166 770.537 596.257C771.031 595.328 771.278 594.241 771.278 592.996Z" fill="#85939C"/>
<path d="M780.285 587.926C780.819 586.997 781.609 586.226 782.657 585.613C783.724 584.98 784.96 584.664 786.363 584.664C787.806 584.664 789.111 585.01 790.277 585.702C791.463 586.394 792.392 587.372 793.064 588.637C793.736 589.882 794.072 591.335 794.072 592.996C794.072 594.636 793.736 596.099 793.064 597.384C792.392 598.669 791.463 599.667 790.277 600.378C789.111 601.09 787.806 601.446 786.363 601.446C784.98 601.446 783.754 601.139 782.687 600.527C781.639 599.894 780.839 599.113 780.285 598.184V608.888H777.587V584.931H780.285V587.926ZM791.315 592.996C791.315 591.77 791.068 590.703 790.573 589.794C790.079 588.884 789.407 588.192 788.557 587.718C787.727 587.244 786.808 587.006 785.8 587.006C784.812 587.006 783.892 587.254 783.042 587.748C782.212 588.222 781.54 588.924 781.026 589.853C780.532 590.762 780.285 591.82 780.285 593.025C780.285 594.251 780.532 595.328 781.026 596.257C781.54 597.166 782.212 597.868 783.042 598.362C783.892 598.837 784.812 599.074 785.8 599.074C786.808 599.074 787.727 598.837 788.557 598.362C789.407 597.868 790.079 597.166 790.573 596.257C791.068 595.328 791.315 594.241 791.315 592.996Z" fill="#85939C"/>
<path d="M800.322 579.238V601.179H797.624V579.238H800.322Z" fill="#85939C"/>
<path d="M818.915 584.931L809.13 608.828H806.343L809.545 601.001L802.993 584.931H805.987L811.087 598.095L816.128 584.931H818.915Z" fill="#85939C"/>
<path d="M628.603 360.149L623.112 350.61H620.127V360.149H616.215V336.3H624.451C626.281 336.3 627.825 336.62 629.083 337.261C630.364 337.902 631.314 338.759 631.931 339.835C632.572 340.91 632.892 342.111 632.892 343.438C632.892 344.993 632.435 346.412 631.519 347.693C630.627 348.951 629.243 349.809 627.367 350.267L633.27 360.149H628.603ZM620.127 347.487H624.451C625.915 347.487 627.013 347.121 627.745 346.389C628.5 345.657 628.877 344.673 628.877 343.438C628.877 342.202 628.511 341.242 627.779 340.555C627.047 339.846 625.938 339.492 624.451 339.492H620.127V347.487Z" fill="#577FFB"/>
<path d="M655.226 350.232C655.226 350.941 655.18 351.582 655.088 352.154H640.642C640.756 353.664 641.317 354.876 642.323 355.791C643.33 356.706 644.565 357.164 646.029 357.164C648.134 357.164 649.621 356.283 650.49 354.522H654.711C654.139 356.26 653.098 357.69 651.588 358.811C650.101 359.909 648.248 360.458 646.029 360.458C644.222 360.458 642.598 360.058 641.156 359.257C639.738 358.434 638.617 357.29 637.794 355.826C636.993 354.339 636.593 352.623 636.593 350.678C636.593 348.734 636.981 347.029 637.759 345.565C638.56 344.078 639.669 342.935 641.088 342.134C642.529 341.333 644.176 340.933 646.029 340.933C647.814 340.933 649.404 341.322 650.799 342.099C652.195 342.877 653.281 343.975 654.059 345.394C654.837 346.789 655.226 348.402 655.226 350.232ZM651.142 348.997C651.119 347.556 650.605 346.4 649.598 345.531C648.591 344.662 647.345 344.227 645.858 344.227C644.508 344.227 643.353 344.662 642.392 345.531C641.431 346.377 640.859 347.533 640.676 348.997H651.142Z" fill="#577FFB"/>
<path d="M657.771 350.61C657.771 348.711 658.16 347.029 658.938 345.565C659.739 344.101 660.814 342.969 662.164 342.168C663.536 341.345 665.046 340.933 666.693 340.933C668.18 340.933 669.473 341.23 670.571 341.825C671.692 342.397 672.584 343.118 673.248 343.987V341.242H677.194V360.149H673.248V357.336C672.584 358.228 671.681 358.971 670.537 359.566C669.393 360.161 668.089 360.458 666.625 360.458C665.001 360.458 663.514 360.046 662.164 359.223C660.814 358.376 659.739 357.21 658.938 355.723C658.16 354.213 657.771 352.508 657.771 350.61ZM673.248 350.678C673.248 349.374 672.973 348.242 672.424 347.281C671.898 346.32 671.2 345.588 670.331 345.085C669.462 344.582 668.524 344.33 667.517 344.33C666.51 344.33 665.572 344.582 664.703 345.085C663.834 345.565 663.125 346.286 662.576 347.247C662.049 348.185 661.786 349.306 661.786 350.61C661.786 351.914 662.049 353.058 662.576 354.041C663.125 355.025 663.834 355.78 664.703 356.306C665.595 356.809 666.533 357.061 667.517 357.061C668.524 357.061 669.462 356.809 670.331 356.306C671.2 355.803 671.898 355.071 672.424 354.11C672.973 353.126 673.248 351.982 673.248 350.678Z" fill="#577FFB"/>
<path d="M681.028 350.61C681.028 348.711 681.417 347.029 682.195 345.565C682.996 344.101 684.071 342.969 685.421 342.168C686.793 341.345 688.314 340.933 689.984 340.933C691.22 340.933 692.432 341.207 693.622 341.756C694.834 342.283 695.795 342.992 696.504 343.884V334.756H700.451V360.149H696.504V357.301C695.864 358.216 694.972 358.971 693.828 359.566C692.707 360.161 691.414 360.458 689.95 360.458C688.303 360.458 686.793 360.046 685.421 359.223C684.071 358.376 682.996 357.21 682.195 355.723C681.417 354.213 681.028 352.508 681.028 350.61ZM696.504 350.678C696.504 349.374 696.23 348.242 695.681 347.281C695.155 346.32 694.457 345.588 693.588 345.085C692.718 344.582 691.78 344.33 690.774 344.33C689.767 344.33 688.829 344.582 687.96 345.085C687.091 345.565 686.381 346.286 685.832 347.247C685.306 348.185 685.043 349.306 685.043 350.61C685.043 351.914 685.306 353.058 685.832 354.041C686.381 355.025 687.091 355.78 687.96 356.306C688.852 356.809 689.79 357.061 690.774 357.061C691.78 357.061 692.718 356.809 693.588 356.306C694.457 355.803 695.155 355.071 695.681 354.11C696.23 353.126 696.504 351.982 696.504 350.678Z" fill="#577FFB"/>
<path d="M707.579 338.737C706.87 338.737 706.275 338.496 705.795 338.016C705.314 337.536 705.074 336.941 705.074 336.232C705.074 335.522 705.314 334.928 705.795 334.447C706.275 333.967 706.87 333.727 707.579 333.727C708.265 333.727 708.849 333.967 709.329 334.447C709.81 334.928 710.05 335.522 710.05 336.232C710.05 336.941 709.81 337.536 709.329 338.016C708.849 338.496 708.265 338.737 707.579 338.737ZM709.501 341.242V360.149H705.589V341.242H709.501Z" fill="#577FFB"/>
<path d="M724.176 340.933C725.663 340.933 726.99 341.242 728.157 341.859C729.347 342.477 730.273 343.392 730.937 344.605C731.6 345.817 731.932 347.281 731.932 348.997V360.149H728.054V349.58C728.054 347.887 727.631 346.595 726.784 345.703C725.938 344.788 724.783 344.33 723.319 344.33C721.854 344.33 720.688 344.788 719.818 345.703C718.972 346.595 718.549 347.887 718.549 349.58V360.149H714.637V341.242H718.549V343.403C719.189 342.626 720.001 342.019 720.985 341.585C721.992 341.15 723.055 340.933 724.176 340.933Z" fill="#577FFB"/>
<path d="M744.54 340.933C746.004 340.933 747.296 341.23 748.417 341.825C749.561 342.397 750.453 343.118 751.094 343.987V341.242H755.04V360.458C755.04 362.197 754.674 363.741 753.942 365.091C753.21 366.463 752.146 367.539 750.751 368.316C749.378 369.094 747.731 369.483 745.809 369.483C743.247 369.483 741.12 368.877 739.427 367.664C737.734 366.475 736.773 364.851 736.544 362.792H740.422C740.719 363.775 741.348 364.565 742.309 365.159C743.293 365.777 744.46 366.086 745.809 366.086C747.388 366.086 748.657 365.605 749.618 364.645C750.602 363.684 751.094 362.288 751.094 360.458V357.301C750.43 358.193 749.527 358.948 748.383 359.566C747.262 360.161 745.981 360.458 744.54 360.458C742.892 360.458 741.383 360.046 740.01 359.223C738.66 358.376 737.585 357.21 736.784 355.723C736.007 354.213 735.618 352.508 735.618 350.61C735.618 348.711 736.007 347.029 736.784 345.565C737.585 344.101 738.66 342.969 740.01 342.168C741.383 341.345 742.892 340.933 744.54 340.933ZM751.094 350.678C751.094 349.374 750.819 348.242 750.27 347.281C749.744 346.32 749.046 345.588 748.177 345.085C747.308 344.582 746.37 344.33 745.363 344.33C744.357 344.33 743.419 344.582 742.549 345.085C741.68 345.565 740.971 346.286 740.422 347.247C739.896 348.185 739.633 349.306 739.633 350.61C739.633 351.914 739.896 353.058 740.422 354.041C740.971 355.025 741.68 355.78 742.549 356.306C743.442 356.809 744.379 357.061 745.363 357.061C746.37 357.061 747.308 356.809 748.177 356.306C749.046 355.803 749.744 355.071 750.27 354.11C750.819 353.126 751.094 351.982 751.094 350.678Z" fill="#577FFB"/>
<path d="M635.26 424.769V448.618H631.348V438.186H620.127V448.618H616.215V424.769H620.127V434.995H631.348V424.769H635.26Z" fill="#577FFB"/>
<path d="M642.4 427.205C641.691 427.205 641.096 426.965 640.616 426.485C640.135 426.004 639.895 425.41 639.895 424.7C639.895 423.991 640.135 423.396 640.616 422.916C641.096 422.436 641.691 422.195 642.4 422.195C643.086 422.195 643.67 422.436 644.15 422.916C644.631 423.396 644.871 423.991 644.871 424.7C644.871 425.41 644.631 426.004 644.15 426.485C643.67 426.965 643.086 427.205 642.4 427.205ZM644.322 429.71V448.618H640.41V429.71H644.322Z" fill="#577FFB"/>
<path d="M656.939 439.181L665.655 448.618H660.37L653.37 440.485V448.618H649.458V423.225H653.37V437.98L660.233 429.71H665.655L656.939 439.181Z" fill="#577FFB"/>
<path d="M670.449 427.205C669.74 427.205 669.145 426.965 668.664 426.485C668.184 426.004 667.944 425.41 667.944 424.7C667.944 423.991 668.184 423.396 668.664 422.916C669.145 422.436 669.74 422.195 670.449 422.195C671.135 422.195 671.719 422.436 672.199 422.916C672.679 423.396 672.92 423.991 672.92 424.7C672.92 425.41 672.679 426.004 672.199 426.485C671.719 426.965 671.135 427.205 670.449 427.205ZM672.371 429.71V448.618H668.459V429.71H672.371Z" fill="#577FFB"/>
<path d="M687.046 429.402C688.533 429.402 689.86 429.71 691.027 430.328C692.216 430.946 693.143 431.861 693.806 433.073C694.47 434.286 694.801 435.75 694.801 437.466V448.618H690.924V438.049C690.924 436.356 690.501 435.064 689.654 434.171C688.808 433.256 687.652 432.799 686.188 432.799C684.724 432.799 683.557 433.256 682.688 434.171C681.842 435.064 681.418 436.356 681.418 438.049V448.618H677.507V429.71H681.418V431.872C682.059 431.094 682.871 430.488 683.855 430.054C684.861 429.619 685.925 429.402 687.046 429.402Z" fill="#577FFB"/>
<path d="M707.409 429.402C708.874 429.402 710.166 429.699 711.287 430.294C712.431 430.866 713.323 431.586 713.964 432.456V429.71H717.91V448.927C717.91 450.666 717.544 452.21 716.812 453.56C716.08 454.932 715.016 456.007 713.62 456.785C712.248 457.563 710.601 457.952 708.679 457.952C706.117 457.952 703.989 457.346 702.296 456.133C700.604 454.944 699.643 453.319 699.414 451.26H703.292C703.589 452.244 704.218 453.033 705.179 453.628C706.163 454.246 707.329 454.555 708.679 454.555C710.258 454.555 711.527 454.074 712.488 453.113C713.472 452.153 713.964 450.757 713.964 448.927V445.77C713.3 446.662 712.397 447.417 711.253 448.035C710.132 448.63 708.851 448.927 707.409 448.927C705.762 448.927 704.252 448.515 702.88 447.692C701.53 446.845 700.455 445.678 699.654 444.191C698.876 442.682 698.487 440.977 698.487 439.078C698.487 437.18 698.876 435.498 699.654 434.034C700.455 432.57 701.53 431.438 702.88 430.637C704.252 429.813 705.762 429.402 707.409 429.402ZM713.964 439.147C713.964 437.843 713.689 436.711 713.14 435.75C712.614 434.789 711.916 434.057 711.047 433.554C710.177 433.05 709.24 432.799 708.233 432.799C707.226 432.799 706.288 433.05 705.419 433.554C704.55 434.034 703.841 434.755 703.292 435.716C702.765 436.653 702.502 437.774 702.502 439.078C702.502 440.382 702.765 441.526 703.292 442.51C703.841 443.494 704.55 444.249 705.419 444.775C706.311 445.278 707.249 445.53 708.233 445.53C709.24 445.53 710.177 445.278 711.047 444.775C711.916 444.271 712.614 443.539 713.14 442.579C713.689 441.595 713.964 440.451 713.964 439.147Z" fill="#577FFB"/>
<path d="M615.914 525.099C615.914 522.766 616.452 520.672 617.527 518.819C618.625 516.966 620.101 515.525 621.954 514.496C623.829 513.443 625.877 512.917 628.096 512.917C630.635 512.917 632.889 513.546 634.856 514.805C636.846 516.04 638.288 517.801 639.18 520.089H634.479C633.861 518.831 633.003 517.893 631.905 517.275C630.807 516.658 629.537 516.349 628.096 516.349C626.517 516.349 625.111 516.703 623.875 517.412C622.64 518.122 621.668 519.14 620.958 520.466C620.272 521.793 619.929 523.338 619.929 525.099C619.929 526.861 620.272 528.405 620.958 529.732C621.668 531.058 622.64 532.088 623.875 532.82C625.111 533.529 626.517 533.884 628.096 533.884C629.537 533.884 630.807 533.575 631.905 532.957C633.003 532.34 633.861 531.402 634.479 530.143H639.18C638.288 532.431 636.846 534.193 634.856 535.428C632.889 536.663 630.635 537.281 628.096 537.281C625.854 537.281 623.807 536.766 621.954 535.737C620.101 534.684 618.625 533.232 617.527 531.379C616.452 529.526 615.914 527.433 615.914 525.099Z" fill="#577FFB"/>
<path d="M651.96 537.384C650.176 537.384 648.563 536.984 647.122 536.183C645.68 535.359 644.548 534.216 643.724 532.751C642.901 531.264 642.489 529.549 642.489 527.604C642.489 525.682 642.912 523.978 643.759 522.491C644.605 521.004 645.761 519.86 647.225 519.06C648.689 518.259 650.324 517.859 652.132 517.859C653.939 517.859 655.575 518.259 657.039 519.06C658.503 519.86 659.658 521.004 660.505 522.491C661.351 523.978 661.774 525.682 661.774 527.604C661.774 529.526 661.34 531.23 660.47 532.717C659.601 534.204 658.411 535.359 656.902 536.183C655.415 536.984 653.767 537.384 651.96 537.384ZM651.96 533.987C652.967 533.987 653.905 533.747 654.774 533.266C655.666 532.786 656.387 532.065 656.936 531.104C657.485 530.143 657.759 528.977 657.759 527.604C657.759 526.232 657.496 525.076 656.97 524.138C656.444 523.177 655.746 522.457 654.877 521.976C654.008 521.496 653.07 521.256 652.063 521.256C651.057 521.256 650.119 521.496 649.249 521.976C648.403 522.457 647.728 523.177 647.225 524.138C646.721 525.076 646.47 526.232 646.47 527.604C646.47 529.64 646.984 531.219 648.014 532.34C649.066 533.438 650.382 533.987 651.96 533.987Z" fill="#577FFB"/>
<path d="M673.843 537.384C672.058 537.384 670.446 536.984 669.004 536.183C667.563 535.359 666.431 534.216 665.607 532.751C664.784 531.264 664.372 529.549 664.372 527.604C664.372 525.682 664.795 523.978 665.642 522.491C666.488 521.004 667.643 519.86 669.107 519.06C670.571 518.259 672.207 517.859 674.014 517.859C675.822 517.859 677.457 518.259 678.922 519.06C680.386 519.86 681.541 521.004 682.387 522.491C683.234 523.978 683.657 525.682 683.657 527.604C683.657 529.526 683.222 531.23 682.353 532.717C681.484 534.204 680.294 535.359 678.784 536.183C677.297 536.984 675.65 537.384 673.843 537.384ZM673.843 533.987C674.849 533.987 675.787 533.747 676.657 533.266C677.549 532.786 678.27 532.065 678.819 531.104C679.368 530.143 679.642 528.977 679.642 527.604C679.642 526.232 679.379 525.076 678.853 524.138C678.327 523.177 677.629 522.457 676.76 521.976C675.89 521.496 674.952 521.256 673.946 521.256C672.939 521.256 672.001 521.496 671.132 521.976C670.286 522.457 669.611 523.177 669.107 524.138C668.604 525.076 668.352 526.232 668.352 527.604C668.352 529.64 668.867 531.219 669.897 532.34C670.949 533.438 672.264 533.987 673.843 533.987Z" fill="#577FFB"/>
<path d="M695.005 527.638L703.721 537.075H698.436L691.436 528.942V537.075H687.524V511.682H691.436V526.437L698.299 518.167H703.721L695.005 527.638Z" fill="#577FFB"/>
<path d="M708.515 515.662C707.806 515.662 707.211 515.422 706.731 514.942C706.25 514.461 706.01 513.867 706.01 513.157C706.01 512.448 706.25 511.853 706.731 511.373C707.211 510.893 707.806 510.652 708.515 510.652C709.202 510.652 709.785 510.893 710.265 511.373C710.746 511.853 710.986 512.448 710.986 513.157C710.986 513.867 710.746 514.461 710.265 514.942C709.785 515.422 709.202 515.662 708.515 515.662ZM710.437 518.167V537.075H706.525V518.167H710.437Z" fill="#577FFB"/>
<path d="M725.113 517.859C726.6 517.859 727.926 518.167 729.093 518.785C730.283 519.403 731.209 520.318 731.873 521.53C732.536 522.743 732.868 524.207 732.868 525.923V537.075H728.99V526.506C728.99 524.813 728.567 523.521 727.721 522.628C726.874 521.713 725.719 521.256 724.255 521.256C722.791 521.256 721.624 521.713 720.755 522.628C719.908 523.521 719.485 524.813 719.485 526.506V537.075H715.573V518.167H719.485V520.329C720.125 519.551 720.938 518.945 721.921 518.511C722.928 518.076 723.992 517.859 725.113 517.859Z" fill="#577FFB"/>
<path d="M745.476 517.859C746.94 517.859 748.232 518.156 749.353 518.751C750.497 519.323 751.389 520.043 752.03 520.913V518.167H755.976V537.384C755.976 539.123 755.61 540.667 754.878 542.017C754.146 543.389 753.082 544.464 751.687 545.242C750.314 546.02 748.667 546.409 746.745 546.409C744.183 546.409 742.056 545.803 740.363 544.59C738.67 543.401 737.709 541.776 737.48 539.717H741.358C741.655 540.701 742.284 541.49 743.245 542.085C744.229 542.703 745.396 543.012 746.745 543.012C748.324 543.012 749.594 542.531 750.554 541.57C751.538 540.61 752.03 539.214 752.03 537.384V534.227C751.367 535.119 750.463 535.874 749.319 536.492C748.198 537.087 746.917 537.384 745.476 537.384C743.829 537.384 742.319 536.972 740.946 536.149C739.596 535.302 738.521 534.135 737.721 532.648C736.943 531.139 736.554 529.434 736.554 527.535C736.554 525.637 736.943 523.955 737.721 522.491C738.521 521.027 739.596 519.895 740.946 519.094C742.319 518.27 743.829 517.859 745.476 517.859ZM752.03 527.604C752.03 526.3 751.755 525.168 751.206 524.207C750.68 523.246 749.983 522.514 749.113 522.011C748.244 521.507 747.306 521.256 746.299 521.256C745.293 521.256 744.355 521.507 743.486 522.011C742.616 522.491 741.907 523.212 741.358 524.173C740.832 525.11 740.569 526.231 740.569 527.535C740.569 528.839 740.832 529.983 741.358 530.967C741.907 531.951 742.616 532.706 743.486 533.232C744.378 533.735 745.316 533.987 746.299 533.987C747.306 533.987 748.244 533.735 749.113 533.232C749.983 532.729 750.68 531.996 751.206 531.036C751.755 530.052 752.03 528.908 752.03 527.604Z" fill="#577FFB"/>
<path d="M526.227 414.918C526.227 409.563 530.567 405.223 535.922 405.223H578.081C583.435 405.223 587.776 409.563 587.776 414.918V457.077C587.776 462.432 583.435 466.772 578.081 466.772H535.922C530.567 466.772 526.227 462.432 526.227 457.077V414.918Z" fill="#577FFB"/>
<path d="M550.677 444.942L541.884 436.228L538.89 439.175L550.677 450.856L575.981 425.78L573.008 422.833L550.677 444.942Z" fill="white"/>
<path fill-rule="evenodd" clip-rule="evenodd" d="M579.877 497.315H533.66C531.545 497.315 529.83 499.029 529.83 501.145V547.362C529.83 549.477 531.545 551.192 533.66 551.192H579.877C581.993 551.192 583.708 549.477 583.708 547.362V501.145C583.708 499.029 581.993 497.315 579.877 497.315ZM533.66 493.484C529.43 493.484 526 496.914 526 501.145V547.362C526 551.593 529.43 555.022 533.66 555.022H579.877C584.108 555.022 587.538 551.593 587.538 547.362V501.145C587.538 496.914 584.108 493.484 579.877 493.484H533.66Z" fill="#C0C7CC"/>
</g>
<defs>
<clipPath id="clip0_973_179622">
<rect width="1490" height="838" fill="white"/>
</clipPath>
</defs>
</svg>
