<svg
  id="nksvg"
  style="width: 100%; height: 100%"
  width="1490"
  height="838"
  viewBox="0 0 1490 838"
  fill="none"
  xmlns="http://www.w3.org/2000/svg"
  class="css-0"
>
  <g clip-path="url(#nk-879)">
    <rect
      style="fill: var(--color-illustrationBackground020)"
      width="1490"
      height="838"
    ></rect>
    <path
      style="fill: var(--color-interface010)"
      d="M321.938 401.388C321.938 385.766 334.268 373.102 349.478 373.102H469.233C484.444 373.102 496.774 385.766 496.774 401.388V524.385C496.774 540.008 484.444 552.672 469.233 552.672H349.478C334.268 552.672 321.938 540.008 321.938 524.385V401.388Z"
    ></path>
    <path
      style="fill: var(--color-illustrationPalette040)"
      d="M317.656 -114.676C317.656 -130.319 330.337 -143 345.98 -143H469.141C484.784 -143 497.465 -130.319 497.465 -114.676V8.48486C497.465 24.1278 484.784 36.8088 469.141 36.8088H345.98C330.337 36.8088 317.656 24.1278 317.656 8.48486V-114.676Z"
    ></path>
    <path
      style="fill: var(--color-darkBlue050)"
      d="M342.812 688.113C338.828 688.113 335.248 687.42 332.072 686.034C328.953 684.59 326.499 682.627 324.709 680.144C322.919 677.603 321.995 674.687 321.938 671.396H330.339C330.628 674.225 331.783 676.622 333.804 678.585C335.883 680.491 338.886 681.443 342.812 681.443C346.566 681.443 349.511 680.519 351.647 678.672C353.841 676.766 354.938 674.341 354.938 671.396C354.938 669.086 354.303 667.209 353.033 665.766C351.763 664.322 350.175 663.225 348.269 662.474C346.363 661.724 343.794 660.915 340.56 660.049C336.576 659.01 333.371 657.97 330.946 656.931C328.578 655.891 326.528 654.275 324.796 652.08C323.121 649.828 322.284 646.826 322.284 643.072C322.284 639.781 323.121 636.865 324.796 634.324C326.47 631.783 328.809 629.82 331.812 628.434C334.872 627.048 338.366 626.355 342.292 626.355C347.951 626.355 352.571 627.77 356.151 630.599C359.789 633.429 361.839 637.182 362.301 641.86H353.639C353.351 639.55 352.138 637.529 350.001 635.796C347.865 634.006 345.035 633.111 341.513 633.111C338.221 633.111 335.536 633.977 333.458 635.71C331.379 637.384 330.339 639.752 330.339 642.812C330.339 645.007 330.946 646.797 332.158 648.183C333.429 649.568 334.959 650.637 336.749 651.387C338.597 652.08 341.166 652.889 344.458 653.813C348.442 654.91 351.647 656.007 354.072 657.104C356.498 658.143 358.576 659.789 360.309 662.041C362.041 664.236 362.907 667.238 362.907 671.049C362.907 673.994 362.128 676.766 360.569 679.365C359.009 681.963 356.7 684.071 353.639 685.688C350.579 687.304 346.97 688.113 342.812 688.113Z"
    ></path>
    <path
      style="fill: var(--color-darkBlue050)"
      d="M417.815 661.955C417.815 663.456 417.728 665.044 417.555 666.719H379.617C379.906 671.396 381.494 675.063 384.381 677.719C387.326 680.317 390.877 681.617 395.035 681.617C398.442 681.617 401.271 680.837 403.523 679.278C405.833 677.661 407.45 675.525 408.374 672.868H416.862C415.592 677.43 413.051 681.155 409.24 684.042C405.429 686.871 400.694 688.286 395.035 688.286C390.531 688.286 386.488 687.276 382.908 685.255C379.386 683.233 376.614 680.375 374.593 676.679C372.572 672.926 371.561 668.595 371.561 663.687C371.561 658.779 372.543 654.477 374.506 650.781C376.47 647.085 379.213 644.256 382.735 642.293C386.315 640.272 390.415 639.261 395.035 639.261C399.539 639.261 403.523 640.243 406.988 642.206C410.452 644.169 413.109 646.883 414.956 650.348C416.862 653.755 417.815 657.624 417.815 661.955ZM409.673 660.309C409.673 657.306 409.009 654.737 407.681 652.6C406.353 650.406 404.534 648.76 402.224 647.663C399.972 646.508 397.46 645.931 394.688 645.931C390.704 645.931 387.297 647.201 384.467 649.742C381.696 652.282 380.108 655.805 379.703 660.309H409.673Z"
    ></path>
    <path
      style="fill: var(--color-darkBlue050)"
      d="M436.101 623.41V687.507H428.219V623.41H436.101Z"
    ></path>
    <path
      style="fill: var(--color-darkBlue050)"
      d="M492.843 661.955C492.843 663.456 492.757 665.044 492.583 666.719H454.645C454.934 671.396 456.522 675.063 459.409 677.719C462.354 680.317 465.905 681.617 470.063 681.617C473.47 681.617 476.299 680.837 478.551 679.278C480.861 677.661 482.478 675.525 483.402 672.868H491.89C490.62 677.43 488.079 681.155 484.268 684.042C480.457 686.871 475.722 688.286 470.063 688.286C465.559 688.286 461.517 687.276 457.937 685.255C454.414 683.233 451.643 680.375 449.621 676.679C447.6 672.926 446.59 668.595 446.59 663.687C446.59 658.779 447.572 654.477 449.535 650.781C451.498 647.085 454.241 644.256 457.763 642.293C461.344 640.272 465.443 639.261 470.063 639.261C474.567 639.261 478.551 640.243 482.016 642.206C485.481 644.169 488.137 646.883 489.985 650.348C491.89 653.755 492.843 657.624 492.843 661.955ZM484.701 660.309C484.701 657.306 484.037 654.737 482.709 652.6C481.381 650.406 479.562 648.76 477.252 647.663C475 646.508 472.488 645.931 469.717 645.931C465.732 645.931 462.325 647.201 459.496 649.742C456.724 652.282 455.136 655.805 454.732 660.309H484.701Z"
    ></path>
    <path
      style="fill: var(--color-darkBlue050)"
      d="M500.302 663.687C500.302 658.779 501.284 654.506 503.247 650.868C505.211 647.172 507.925 644.314 511.389 642.293C514.912 640.272 518.925 639.261 523.429 639.261C529.261 639.261 534.054 640.676 537.807 643.505C541.619 646.335 544.13 650.261 545.343 655.285H536.855C536.046 652.398 534.458 650.117 532.091 648.442C529.781 646.768 526.894 645.931 523.429 645.931C518.925 645.931 515.287 647.49 512.515 650.608C509.744 653.668 508.358 658.028 508.358 663.687C508.358 669.404 509.744 673.821 512.515 676.939C515.287 680.058 518.925 681.617 523.429 681.617C526.894 681.617 529.781 680.808 532.091 679.191C534.401 677.575 535.989 675.265 536.855 672.262H545.343C544.073 677.113 541.532 681.01 537.721 683.955C533.91 686.843 529.146 688.286 523.429 688.286C518.925 688.286 514.912 687.276 511.389 685.255C507.925 683.233 505.211 680.375 503.247 676.679C501.284 672.984 500.302 668.653 500.302 663.687Z"
    ></path>
    <path
      style="fill: var(--color-darkBlue050)"
      d="M565.475 646.537V674.514C565.475 676.824 565.966 678.47 566.947 679.451C567.929 680.375 569.632 680.837 572.058 680.837H577.861V687.507H570.758C566.37 687.507 563.078 686.496 560.884 684.475C558.69 682.454 557.593 679.134 557.593 674.514V646.537H551.443V640.041H557.593V628.087H565.475V640.041H577.861V646.537H565.475Z"
    ></path>
    <path
      style="fill: var(--color-darkBlue050)"
      d="M607.558 663.6C607.558 658.75 608.54 654.506 610.503 650.868C612.467 647.172 615.152 644.314 618.559 642.293C622.023 640.272 625.863 639.261 630.079 639.261C634.236 639.261 637.845 640.156 640.906 641.946C643.966 643.736 646.247 645.988 647.749 648.702V640.041H655.717V687.507H647.749V678.672C646.189 681.443 643.851 683.753 640.733 685.601C637.672 687.391 634.092 688.286 629.992 688.286C625.777 688.286 621.966 687.247 618.559 685.168C615.152 683.089 612.467 680.173 610.503 676.42C608.54 672.666 607.558 668.393 607.558 663.6ZM647.749 663.687C647.749 660.107 647.027 656.989 645.583 654.332C644.139 651.676 642.176 649.655 639.693 648.269C637.268 646.826 634.583 646.104 631.638 646.104C628.693 646.104 626.008 646.797 623.582 648.183C621.157 649.568 619.223 651.589 617.779 654.246C616.335 656.902 615.614 660.02 615.614 663.6C615.614 667.238 616.335 670.414 617.779 673.128C619.223 675.784 621.157 677.834 623.582 679.278C626.008 680.664 628.693 681.357 631.638 681.357C634.583 681.357 637.268 680.664 639.693 679.278C642.176 677.834 644.139 675.784 645.583 673.128C647.027 670.414 647.749 667.267 647.749 663.687Z"
    ></path>
    <path
      style="fill: var(--color-darkBlue050)"
      d="M676.919 623.41V687.507H669.037V623.41H676.919Z"
    ></path>
    <path
      style="fill: var(--color-darkBlue050)"
      d="M698.235 623.41V687.507H690.353V623.41H698.235Z"
    ></path>
    <path
      style="fill: var(--color-darkBlue050)"
      d="M744.376 646.537V674.514C744.376 676.824 744.866 678.47 745.848 679.451C746.83 680.375 748.533 680.837 750.958 680.837H756.762V687.507H749.659C745.271 687.507 741.979 686.496 739.785 684.475C737.591 682.454 736.493 679.134 736.493 674.514V646.537H730.344V640.041H736.493V628.087H744.376V640.041H756.762V646.537H744.376Z"
    ></path>
    <path
      style="fill: var(--color-darkBlue050)"
      d="M789.872 639.174C793.452 639.174 796.686 639.954 799.573 641.513C802.46 643.014 804.712 645.295 806.329 648.356C808.004 651.416 808.841 655.141 808.841 659.529V687.507H801.045V660.655C801.045 655.92 799.862 652.311 797.494 649.828C795.126 647.288 791.893 646.017 787.793 646.017C783.635 646.017 780.315 647.316 777.832 649.915C775.407 652.513 774.194 656.296 774.194 661.262V687.507H766.312V623.41H774.194V646.797C775.753 644.371 777.89 642.495 780.604 641.167C783.375 639.838 786.465 639.174 789.872 639.174Z"
    ></path>
    <path
      style="fill: var(--color-darkBlue050)"
      d="M818.771 663.6C818.771 658.75 819.753 654.506 821.716 650.868C823.68 647.172 826.365 644.314 829.772 642.293C833.236 640.272 837.076 639.261 841.292 639.261C845.449 639.261 849.058 640.156 852.119 641.946C855.179 643.736 857.46 645.988 858.961 648.702V640.041H866.93V687.507H858.961V678.672C857.402 681.443 855.064 683.753 851.946 685.601C848.885 687.391 845.305 688.286 841.205 688.286C836.99 688.286 833.179 687.247 829.772 685.168C826.365 683.089 823.68 680.173 821.716 676.42C819.753 672.666 818.771 668.393 818.771 663.6ZM858.961 663.687C858.961 660.107 858.24 656.989 856.796 654.332C855.352 651.676 853.389 649.655 850.906 648.269C848.481 646.826 845.796 646.104 842.851 646.104C839.906 646.104 837.221 646.797 834.795 648.183C832.37 649.568 830.436 651.589 828.992 654.246C827.548 656.902 826.827 660.02 826.827 663.6C826.827 667.238 827.548 670.414 828.992 673.128C830.436 675.784 832.37 677.834 834.795 679.278C837.221 680.664 839.906 681.357 842.851 681.357C845.796 681.357 848.481 680.664 850.906 679.278C853.389 677.834 855.352 675.784 856.796 673.128C858.24 670.414 858.961 667.267 858.961 663.687Z"
    ></path>
    <path
      style="fill: var(--color-darkBlue050)"
      d="M889.865 646.537V674.514C889.865 676.824 890.356 678.47 891.337 679.451C892.319 680.375 894.022 680.837 896.448 680.837H902.251V687.507H895.148C890.76 687.507 887.468 686.496 885.274 684.475C883.08 682.454 881.983 679.134 881.983 674.514V646.537H875.833V640.041H881.983V628.087H889.865V640.041H902.251V646.537H889.865Z"
    ></path>
    <path
      style="fill: var(--color-darkBlue050)"
      d="M931.948 663.6C931.948 658.75 932.93 654.506 934.893 650.868C936.857 647.172 939.542 644.314 942.949 642.293C946.413 640.272 950.253 639.261 954.469 639.261C958.626 639.261 962.235 640.156 965.296 641.946C968.356 643.736 970.637 645.988 972.138 648.702V640.041H980.107V687.507H972.138V678.672C970.579 681.443 968.241 683.753 965.123 685.601C962.062 687.391 958.482 688.286 954.382 688.286C950.167 688.286 946.356 687.247 942.949 685.168C939.542 683.089 936.857 680.173 934.893 676.42C932.93 672.666 931.948 668.393 931.948 663.6ZM972.138 663.687C972.138 660.107 971.417 656.989 969.973 654.332C968.529 651.676 966.566 649.655 964.083 648.269C961.658 646.826 958.973 646.104 956.028 646.104C953.083 646.104 950.398 646.797 947.972 648.183C945.547 649.568 943.613 651.589 942.169 654.246C940.725 656.902 940.004 660.02 940.004 663.6C940.004 667.238 940.725 670.414 942.169 673.128C943.613 675.784 945.547 677.834 947.972 679.278C950.398 680.664 953.083 681.357 956.028 681.357C958.973 681.357 961.658 680.664 964.083 679.278C966.566 677.834 968.529 675.784 969.973 673.128C971.417 670.414 972.138 667.267 972.138 663.687Z"
    ></path>
    <path
      style="fill: var(--color-darkBlue050)"
      d="M1001.31 648.789C1002.87 646.075 1005.18 643.823 1008.24 642.033C1011.36 640.185 1014.97 639.261 1019.07 639.261C1023.28 639.261 1027.09 640.272 1030.5 642.293C1033.96 644.314 1036.68 647.172 1038.64 650.868C1040.6 654.506 1041.59 658.75 1041.59 663.6C1041.59 668.393 1040.6 672.666 1038.64 676.42C1036.68 680.173 1033.96 683.089 1030.5 685.168C1027.09 687.247 1023.28 688.286 1019.07 688.286C1015.02 688.286 1011.44 687.391 1008.33 685.601C1005.26 683.753 1002.93 681.472 1001.31 678.758V710.027H993.427V640.041H1001.31V648.789ZM1033.53 663.6C1033.53 660.02 1032.81 656.902 1031.37 654.246C1029.92 651.589 1027.96 649.568 1025.48 648.183C1023.05 646.797 1020.37 646.104 1017.42 646.104C1014.53 646.104 1011.85 646.826 1009.36 648.269C1006.94 649.655 1004.98 651.705 1003.47 654.419C1002.03 657.075 1001.31 660.165 1001.31 663.687C1001.31 667.267 1002.03 670.414 1003.47 673.128C1004.98 675.784 1006.94 677.834 1009.36 679.278C1011.85 680.664 1014.53 681.357 1017.42 681.357C1020.37 681.357 1023.05 680.664 1025.48 679.278C1027.96 677.834 1029.92 675.784 1031.37 673.128C1032.81 670.414 1033.53 667.238 1033.53 663.6Z"
    ></path>
    <path
      style="fill: var(--color-darkBlue050)"
      d="M1059.84 648.789C1061.4 646.075 1063.71 643.823 1066.77 642.033C1069.89 640.185 1073.5 639.261 1077.6 639.261C1081.82 639.261 1085.63 640.272 1089.03 642.293C1092.5 644.314 1095.21 647.172 1097.18 650.868C1099.14 654.506 1100.12 658.75 1100.12 663.6C1100.12 668.393 1099.14 672.666 1097.18 676.42C1095.21 680.173 1092.5 683.089 1089.03 685.168C1085.63 687.247 1081.82 688.286 1077.6 688.286C1073.56 688.286 1069.98 687.391 1066.86 685.601C1063.8 683.753 1061.46 681.472 1059.84 678.758V710.027H1051.96V640.041H1059.84V648.789ZM1092.06 663.6C1092.06 660.02 1091.34 656.902 1089.9 654.246C1088.46 651.589 1086.49 649.568 1084.01 648.183C1081.58 646.797 1078.9 646.104 1075.95 646.104C1073.07 646.104 1070.38 646.826 1067.9 648.269C1065.47 649.655 1063.51 651.705 1062.01 654.419C1060.57 657.075 1059.84 660.165 1059.84 663.687C1059.84 667.267 1060.57 670.414 1062.01 673.128C1063.51 675.784 1065.47 677.834 1067.9 679.278C1070.38 680.664 1073.07 681.357 1075.95 681.357C1078.9 681.357 1081.58 680.664 1084.01 679.278C1086.49 677.834 1088.46 675.784 1089.9 673.128C1091.34 670.414 1092.06 667.238 1092.06 663.6Z"
    ></path>
    <path
      style="fill: var(--color-darkBlue050)"
      d="M1118.38 623.41V687.507H1110.5V623.41H1118.38Z"
    ></path>
    <path
      style="fill: var(--color-darkBlue050)"
      d="M1172.69 640.041L1144.11 709.854H1135.97L1145.32 686.987L1126.18 640.041H1134.93L1149.83 678.498L1164.55 640.041H1172.69Z"
    ></path>
    <path
      style="fill: var(--color-illustrationHighlight010)"
      d="M601.13 172.144V241.816H589.701V211.34H556.92V241.816H545.492V172.144H556.92V202.017H589.701V172.144H601.13Z"
    ></path>
    <path
      style="fill: var(--color-illustrationHighlight010)"
      d="M621.989 179.261C619.917 179.261 618.179 178.559 616.776 177.156C615.372 175.752 614.671 174.015 614.671 171.943C614.671 169.871 615.372 168.134 616.776 166.73C618.179 165.327 619.917 164.625 621.989 164.625C623.994 164.625 625.698 165.327 627.101 166.73C628.505 168.134 629.207 169.871 629.207 171.943C629.207 174.015 628.505 175.752 627.101 177.156C625.698 178.559 623.994 179.261 621.989 179.261ZM627.603 186.579V241.816H616.174V186.579H627.603Z"
    ></path>
    <path
      style="fill: var(--color-illustrationHighlight010)"
      d="M664.461 214.247L689.924 241.816H674.486L654.035 218.057V241.816H642.607V167.632H654.035V210.739L674.085 186.579H689.924L664.461 214.247Z"
    ></path>
    <path
      style="fill: var(--color-illustrationHighlight010)"
      d="M703.929 179.261C701.858 179.261 700.12 178.559 698.716 177.156C697.313 175.752 696.611 174.015 696.611 171.943C696.611 169.871 697.313 168.134 698.716 166.73C700.12 165.327 701.858 164.625 703.929 164.625C705.934 164.625 707.638 165.327 709.042 166.73C710.445 168.134 711.147 169.871 711.147 171.943C711.147 174.015 710.445 175.752 709.042 177.156C707.638 178.559 705.934 179.261 703.929 179.261ZM709.543 186.579V241.816H698.115V186.579H709.543Z"
    ></path>
    <path
      style="fill: var(--color-illustrationHighlight010)"
      d="M752.416 185.677C756.76 185.677 760.636 186.579 764.045 188.384C767.52 190.188 770.227 192.861 772.165 196.403C774.103 199.946 775.072 204.223 775.072 209.235V241.816H763.744V210.939C763.744 205.994 762.508 202.218 760.035 199.611C757.562 196.938 754.187 195.601 749.91 195.601C745.633 195.601 742.224 196.938 739.685 199.611C737.212 202.218 735.976 205.994 735.976 210.939V241.816H724.547V186.579H735.976V192.895C737.847 190.622 740.219 188.851 743.093 187.582C746.034 186.312 749.141 185.677 752.416 185.677Z"
    ></path>
    <path
      style="fill: var(--color-illustrationHighlight010)"
      d="M811.904 185.677C816.182 185.677 819.958 186.546 823.232 188.283C826.574 189.954 829.18 192.059 831.052 194.599V186.579H842.58V242.718C842.58 247.797 841.511 252.308 839.372 256.251C837.234 260.261 834.126 263.402 830.049 265.674C826.039 267.947 821.227 269.083 815.614 269.083C808.128 269.083 801.913 267.312 796.968 263.77C792.022 260.294 789.215 255.549 788.547 249.535H799.875C800.744 252.408 802.581 254.714 805.388 256.452C808.262 258.256 811.67 259.158 815.614 259.158C820.225 259.158 823.934 257.755 826.741 254.948C829.615 252.141 831.052 248.064 831.052 242.718V233.495C829.114 236.101 826.474 238.307 823.132 240.111C819.857 241.849 816.115 242.718 811.904 242.718C807.093 242.718 802.682 241.515 798.672 239.109C794.729 236.636 791.588 233.228 789.248 228.884C786.976 224.473 785.84 219.494 785.84 213.947C785.84 208.4 786.976 203.488 789.248 199.21C791.588 194.933 794.729 191.625 798.672 189.286C802.682 186.88 807.093 185.677 811.904 185.677ZM831.052 214.147C831.052 210.338 830.25 207.03 828.646 204.223C827.109 201.416 825.07 199.277 822.531 197.807C819.991 196.337 817.251 195.601 814.31 195.601C811.37 195.601 808.63 196.337 806.09 197.807C803.55 199.21 801.479 201.316 799.875 204.122C798.338 206.863 797.569 210.137 797.569 213.947C797.569 217.756 798.338 221.098 799.875 223.971C801.479 226.845 803.55 229.051 806.09 230.588C808.696 232.058 811.437 232.793 814.31 232.793C817.251 232.793 819.991 232.058 822.531 230.588C825.07 229.118 827.109 226.979 828.646 224.172C830.25 221.298 831.052 217.957 831.052 214.147Z"
    ></path>
    <path
      style="fill: var(--color-illustrationHighlight010)"
      d="M541.68 465.255C541.68 458.438 543.25 452.323 546.391 446.91C549.599 441.496 553.91 437.286 559.323 434.278C564.803 431.204 570.785 429.667 577.268 429.667C584.686 429.667 591.269 431.505 597.016 435.181C602.831 438.79 607.041 443.936 609.647 450.619H595.914C594.109 446.943 591.603 444.203 588.395 442.399C585.187 440.594 581.478 439.692 577.268 439.692C572.656 439.692 568.546 440.728 564.937 442.8C561.328 444.871 558.488 447.845 556.416 451.722C554.411 455.598 553.409 460.109 553.409 465.255C553.409 470.401 554.411 474.912 556.416 478.788C558.488 482.665 561.328 485.672 564.937 487.811C568.546 489.882 572.656 490.918 577.268 490.918C581.478 490.918 585.187 490.016 588.395 488.212C591.603 486.407 594.109 483.667 595.914 479.991H609.647C607.041 486.674 602.831 491.821 597.016 495.429C591.269 499.038 584.686 500.843 577.268 500.843C570.718 500.843 564.737 499.339 559.323 496.332C553.91 493.257 549.599 489.014 546.391 483.6C543.25 478.187 541.68 472.072 541.68 465.255Z"
    ></path>
    <path
      style="fill: var(--color-illustrationHighlight010)"
      d="M646.983 501.144C641.77 501.144 637.059 499.974 632.848 497.635C628.638 495.229 625.33 491.887 622.924 487.61C620.518 483.266 619.315 478.254 619.315 472.573C619.315 466.959 620.551 461.98 623.024 457.636C625.497 453.292 628.872 449.951 633.149 447.611C637.426 445.272 642.205 444.103 647.485 444.103C652.764 444.103 657.543 445.272 661.82 447.611C666.097 449.951 669.472 453.292 671.945 457.636C674.418 461.98 675.654 466.959 675.654 472.573C675.654 478.187 674.384 483.166 671.845 487.51C669.305 491.854 665.83 495.229 661.419 497.635C657.075 499.974 652.263 501.144 646.983 501.144ZM646.983 491.219C649.924 491.219 652.664 490.517 655.204 489.114C657.81 487.71 659.915 485.605 661.519 482.798C663.123 479.991 663.925 476.583 663.925 472.573C663.925 468.563 663.157 465.188 661.619 462.448C660.082 459.641 658.044 457.536 655.504 456.132C652.965 454.729 650.225 454.027 647.284 454.027C644.343 454.027 641.603 454.729 639.064 456.132C636.591 457.536 634.619 459.641 633.149 462.448C631.679 465.188 630.944 468.563 630.944 472.573C630.944 478.521 632.447 483.132 635.455 486.407C638.529 489.615 642.372 491.219 646.983 491.219Z"
    ></path>
    <path
      style="fill: var(--color-illustrationHighlight010)"
      d="M710.911 501.144C705.698 501.144 700.986 499.974 696.776 497.635C692.565 495.229 689.257 491.887 686.851 487.61C684.445 483.266 683.242 478.254 683.242 472.573C683.242 466.959 684.479 461.98 686.952 457.636C689.424 453.292 692.799 449.951 697.076 447.611C701.354 445.272 706.132 444.103 711.412 444.103C716.692 444.103 721.47 445.272 725.747 447.611C730.024 449.951 733.399 453.292 735.872 457.636C738.345 461.98 739.581 466.959 739.581 472.573C739.581 478.187 738.312 483.166 735.772 487.51C733.232 491.854 729.757 495.229 725.346 497.635C721.002 499.974 716.19 501.144 710.911 501.144ZM710.911 491.219C713.851 491.219 716.591 490.517 719.131 489.114C721.737 487.71 723.843 485.605 725.447 482.798C727.05 479.991 727.852 476.583 727.852 472.573C727.852 468.563 727.084 465.188 725.547 462.448C724.01 459.641 721.971 457.536 719.432 456.132C716.892 454.729 714.152 454.027 711.211 454.027C708.271 454.027 705.531 454.729 702.991 456.132C700.518 457.536 698.547 459.641 697.076 462.448C695.606 465.188 694.871 468.563 694.871 472.573C694.871 478.521 696.375 483.132 699.382 486.407C702.456 489.615 706.299 491.219 710.911 491.219Z"
    ></path>
    <path
      style="fill: var(--color-illustrationHighlight010)"
      d="M772.733 472.673L798.196 500.241H782.757L762.307 476.483V500.241H750.879V426.058H762.307V469.165L782.356 445.005H798.196L772.733 472.673Z"
    ></path>
    <path
      style="fill: var(--color-illustrationHighlight010)"
      d="M812.201 437.687C810.129 437.687 808.392 436.985 806.988 435.582C805.585 434.178 804.883 432.441 804.883 430.369C804.883 428.297 805.585 426.559 806.988 425.156C808.392 423.753 810.129 423.051 812.201 423.051C814.206 423.051 815.91 423.753 817.314 425.156C818.717 426.559 819.419 428.297 819.419 430.369C819.419 432.441 818.717 434.178 817.314 435.582C815.91 436.985 814.206 437.687 812.201 437.687ZM817.815 445.005V500.241H806.387V445.005H817.815Z"
    ></path>
    <path
      style="fill: var(--color-illustrationHighlight010)"
      d="M860.688 444.103C865.032 444.103 868.908 445.005 872.317 446.809C875.792 448.614 878.499 451.287 880.437 454.829C882.375 458.371 883.344 462.649 883.344 467.661V500.241H872.016V469.365C872.016 464.42 870.78 460.644 868.307 458.037C865.834 455.364 862.459 454.027 858.182 454.027C853.905 454.027 850.496 455.364 847.957 458.037C845.484 460.644 844.248 464.42 844.248 469.365V500.241H832.819V445.005H844.248V451.321C846.119 449.048 848.491 447.277 851.365 446.007C854.306 444.738 857.413 444.103 860.688 444.103Z"
    ></path>
    <path
      style="fill: var(--color-illustrationHighlight010)"
      d="M920.176 444.103C924.454 444.103 928.23 444.972 931.504 446.709C934.846 448.38 937.452 450.485 939.324 453.025V445.005H950.852V501.144C950.852 506.223 949.783 510.734 947.644 514.677C945.506 518.687 942.398 521.828 938.321 524.1C934.311 526.372 929.499 527.509 923.885 527.509C916.4 527.509 910.185 525.738 905.239 522.195C900.294 518.72 897.487 513.975 896.819 507.96H908.147C909.015 510.834 910.853 513.14 913.66 514.877C916.534 516.682 919.942 517.584 923.885 517.584C928.497 517.584 932.206 516.181 935.013 513.374C937.887 510.567 939.324 506.49 939.324 501.144V491.921C937.385 494.527 934.746 496.733 931.404 498.537C928.129 500.275 924.387 501.144 920.176 501.144C915.364 501.144 910.954 499.941 906.944 497.535C903.001 495.062 899.86 491.653 897.52 487.309C895.248 482.898 894.112 477.92 894.112 472.373C894.112 466.825 895.248 461.913 897.52 457.636C899.86 453.359 903.001 450.051 906.944 447.712C910.954 445.306 915.364 444.103 920.176 444.103ZM939.324 472.573C939.324 468.764 938.522 465.455 936.918 462.649C935.381 459.842 933.342 457.703 930.803 456.233C928.263 454.762 925.523 454.027 922.582 454.027C919.642 454.027 916.902 454.762 914.362 456.233C911.822 457.636 909.751 459.741 908.147 462.548C906.61 465.288 905.841 468.563 905.841 472.373C905.841 476.182 906.61 479.523 908.147 482.397C909.751 485.271 911.822 487.476 914.362 489.014C916.968 490.484 919.708 491.219 922.582 491.219C925.523 491.219 928.263 490.484 930.803 489.014C933.342 487.543 935.381 485.405 936.918 482.598C938.522 479.724 939.324 476.382 939.324 472.573Z"
    ></path>
    <path
      style="fill: var(--color-illustrationPalette040)"
      d="M317.656 143.375C317.656 127.732 330.337 115.051 345.98 115.051H469.141C484.784 115.051 497.465 127.732 497.465 143.375V266.536C497.465 282.179 484.784 294.86 469.141 294.86H345.98C330.337 294.86 317.656 282.179 317.656 266.536V143.375Z"
    ></path>
    <path
      style="fill: var(--color-white)"
      d="M389.082 231.079L363.394 205.623L354.647 214.23L389.082 248.355L463.003 175.1L454.317 166.492L389.082 231.079Z"
    ></path>
    <path
      style="fill: var(--color-illustrationBorder020)"
      fill-rule="evenodd"
      clip-rule="evenodd"
      d="M474.396 384.088H339.379C333.199 384.088 328.189 389.097 328.189 395.277V530.294C328.189 536.474 333.199 541.483 339.379 541.483H474.396C480.575 541.483 485.585 536.474 485.585 530.294V395.277C485.585 389.097 480.575 384.088 474.396 384.088ZM339.379 372.898C327.019 372.898 317 382.918 317 395.277V530.294C317 542.653 327.019 552.673 339.379 552.673H474.396C486.755 552.673 496.774 542.653 496.774 530.294V395.277C496.774 382.918 486.755 372.898 474.396 372.898H339.379Z"
    ></path>
  </g>
  <defs>
    <clipPath id="nk-879">
      <rect style="fill: var(--color-white)" width="1490" height="838"></rect>
    </clipPath>
  </defs>
</svg>
