<svg id="components-checkbox-usage-dont-3" style="width: 100%; height: 100%" width="1490" height="838" viewBox="0 0 1490 838" fill="none" xmlns="http://www.w3.org/2000/svg" class="css-0"><rect style="fill:var(--color-illustrationBackground020)" width="1490" height="838"></rect><path style="fill:var(--color-interface010)" d="M582.809 330.341C582.809 319.826 591.355 311.301 601.897 311.301H684.896C695.438 311.301 703.984 319.826 703.984 330.341V413.135C703.984 423.651 695.438 432.176 684.896 432.176H601.897C591.355 432.176 582.809 423.651 582.809 413.135V330.341Z"></path><path style="fill:var(--color-illustrationInterface010)" d="M214.72 388.79L197.38 371.588L191.476 377.405L214.72 400.464L264.617 350.963L258.754 345.146L214.72 388.79Z"></path><path style="fill:var(--color-illustrationPalette040)" d="M167 330.146C167 319.572 175.572 311 186.146 311H269.4C279.975 311 288.547 319.572 288.547 330.146V413.4C288.547 423.975 279.975 432.547 269.4 432.547H186.146C175.572 432.547 167 423.975 167 413.4V330.146Z"></path><path style="fill:var(--color-white)" d="M215.281 389.407L197.917 372.199L192.004 378.018L215.281 401.086L265.251 351.567L259.379 345.748L215.281 389.407Z"></path><path style="fill:var(--color-illustrationBorder020)" fill-rule="evenodd" clip-rule="evenodd" d="M688.9 318.542H597.893C593.727 318.542 590.351 321.919 590.351 326.084V417.092C590.351 421.257 593.727 424.634 597.893 424.634H688.9C693.066 424.634 696.442 421.257 696.442 417.092V326.084C696.442 321.919 693.066 318.542 688.9 318.542ZM597.893 311C589.562 311 582.809 317.753 582.809 326.084V417.092C582.809 425.422 589.562 432.176 597.893 432.176H688.9C697.231 432.176 703.984 425.422 703.984 417.092V326.084C703.984 317.753 697.231 311 688.9 311H597.893Z"></path><path style="fill:var(--color-interface010)" d="M997.828 329.959C997.828 319.443 1006.37 310.918 1016.92 310.918H1099.92C1110.46 310.918 1119 319.443 1119 329.959V412.752C1119 423.268 1110.46 431.793 1099.92 431.793H1016.92C1006.37 431.793 997.828 423.268 997.828 412.752V329.959Z"></path><path style="fill:var(--color-illustrationHighlight010)" d="M743.485 389.858H759.382V396.081H735.773V349.067H743.485V389.858Z"></path><path style="fill:var(--color-illustrationHighlight010)" d="M763.26 377.276C763.26 373.533 764.027 370.218 765.56 367.332C767.138 364.445 769.258 362.213 771.919 360.635C774.625 359.011 777.601 358.2 780.848 358.2C783.779 358.2 786.327 358.786 788.492 359.958C790.702 361.086 792.46 362.506 793.768 364.22V358.808H801.547V396.081H793.768V390.534C792.46 392.293 790.679 393.758 788.424 394.931C786.169 396.103 783.599 396.69 780.713 396.69C777.511 396.69 774.579 395.878 771.919 394.254C769.258 392.586 767.138 390.286 765.56 387.355C764.027 384.378 763.26 381.019 763.26 377.276ZM793.768 377.411C793.768 374.84 793.227 372.608 792.145 370.714C791.107 368.82 789.732 367.377 788.018 366.385C786.305 365.393 784.456 364.896 782.471 364.896C780.487 364.896 778.638 365.393 776.924 366.385C775.211 367.332 773.813 368.752 772.73 370.646C771.693 372.495 771.175 374.705 771.175 377.276C771.175 379.846 771.693 382.101 772.73 384.04C773.813 385.979 775.211 387.467 776.924 388.505C778.683 389.497 780.532 389.993 782.471 389.993C784.456 389.993 786.305 389.497 788.018 388.505C789.732 387.513 791.107 386.069 792.145 384.175C793.227 382.236 793.768 379.981 793.768 377.411Z"></path><path style="fill:var(--color-illustrationHighlight010)" d="M819.388 364.355C820.696 362.551 822.477 361.086 824.732 359.958C827.032 358.786 829.58 358.2 832.376 358.2C835.668 358.2 838.644 358.989 841.305 360.567C843.965 362.146 846.062 364.4 847.596 367.332C849.129 370.218 849.896 373.533 849.896 377.276C849.896 381.019 849.129 384.378 847.596 387.355C846.062 390.286 843.943 392.586 841.237 394.254C838.576 395.878 835.623 396.69 832.376 396.69C829.489 396.69 826.919 396.126 824.664 394.999C822.454 393.871 820.696 392.428 819.388 390.669V396.081H811.676V346.023H819.388V364.355ZM842.049 377.276C842.049 374.705 841.508 372.495 840.425 370.646C839.388 368.752 837.99 367.332 836.231 366.385C834.518 365.393 832.669 364.896 830.684 364.896C828.745 364.896 826.896 365.393 825.138 366.385C823.424 367.377 822.026 368.82 820.944 370.714C819.906 372.608 819.388 374.84 819.388 377.411C819.388 379.981 819.906 382.236 820.944 384.175C822.026 386.069 823.424 387.513 825.138 388.505C826.896 389.497 828.745 389.993 830.684 389.993C832.669 389.993 834.518 389.497 836.231 388.505C837.99 387.467 839.388 385.979 840.425 384.04C841.508 382.101 842.049 379.846 842.049 377.276Z"></path><path style="fill:var(--color-illustrationHighlight010)" d="M891.682 376.531C891.682 377.929 891.592 379.192 891.412 380.32H862.933C863.159 383.296 864.264 385.686 866.248 387.49C868.232 389.294 870.667 390.196 873.554 390.196C877.702 390.196 880.634 388.46 882.347 384.987H890.668C889.54 388.414 887.488 391.233 884.512 393.443C881.581 395.607 877.928 396.69 873.554 396.69C869.991 396.69 866.789 395.901 863.948 394.322C861.152 392.699 858.942 390.444 857.319 387.558C855.74 384.626 854.951 381.244 854.951 377.411C854.951 373.578 855.718 370.218 857.251 367.332C858.829 364.4 861.017 362.146 863.813 360.567C866.654 358.989 869.901 358.2 873.554 358.2C877.071 358.2 880.205 358.966 882.956 360.5C885.707 362.033 887.849 364.197 889.383 366.993C890.916 369.744 891.682 372.924 891.682 376.531ZM883.633 374.096C883.588 371.255 882.573 368.978 880.589 367.264C878.604 365.55 876.147 364.694 873.215 364.694C870.555 364.694 868.277 365.55 866.383 367.264C864.489 368.933 863.362 371.21 863.001 374.096H883.633Z"></path><path style="fill:var(--color-illustrationHighlight010)" d="M906.983 346.023V396.081H899.271V346.023H906.983Z"></path><path style="fill:var(--color-illustrationBorder020)" fill-rule="evenodd" clip-rule="evenodd" d="M1103.92 318.542H1012.91C1008.75 318.542 1005.37 321.919 1005.37 326.084V417.092C1005.37 421.257 1008.75 424.634 1012.91 424.634H1103.92C1108.09 424.634 1111.46 421.257 1111.46 417.092V326.084C1111.46 321.919 1108.09 318.542 1103.92 318.542ZM1012.91 311C1004.58 311 997.828 317.753 997.828 326.084V417.092C997.828 425.422 1004.58 432.176 1012.91 432.176H1103.92C1112.25 432.176 1119 425.422 1119 417.092V326.084C1119 317.753 1112.25 311 1103.92 311H1012.91Z"></path><path style="fill:var(--color-illustrationHighlight010)" d="M1158.5 389.858H1174.4V396.081H1150.79V349.067H1158.5V389.858Z"></path><path style="fill:var(--color-illustrationHighlight010)" d="M1178.28 377.276C1178.28 373.533 1179.05 370.218 1180.58 367.332C1182.16 364.445 1184.28 362.213 1186.94 360.635C1189.64 359.011 1192.62 358.2 1195.87 358.2C1198.8 358.2 1201.35 358.786 1203.51 359.958C1205.72 361.086 1207.48 362.506 1208.79 364.22V358.808H1216.57V396.081H1208.79V390.534C1207.48 392.293 1205.7 393.758 1203.44 394.931C1201.19 396.103 1198.62 396.69 1195.73 396.69C1192.53 396.69 1189.6 395.878 1186.94 394.254C1184.28 392.586 1182.16 390.286 1180.58 387.355C1179.05 384.378 1178.28 381.019 1178.28 377.276ZM1208.79 377.411C1208.79 374.84 1208.25 372.608 1207.16 370.714C1206.13 368.82 1204.75 367.377 1203.04 366.385C1201.32 365.393 1199.48 364.896 1197.49 364.896C1195.51 364.896 1193.66 365.393 1191.94 366.385C1190.23 367.332 1188.83 368.752 1187.75 370.646C1186.71 372.495 1186.19 374.705 1186.19 377.276C1186.19 379.846 1186.71 382.101 1187.75 384.04C1188.83 385.979 1190.23 387.467 1191.94 388.505C1193.7 389.497 1195.55 389.993 1197.49 389.993C1199.48 389.993 1201.32 389.497 1203.04 388.505C1204.75 387.513 1206.13 386.069 1207.16 384.175C1208.25 382.236 1208.79 379.981 1208.79 377.411Z"></path><path style="fill:var(--color-illustrationHighlight010)" d="M1234.41 364.355C1235.72 362.551 1237.5 361.086 1239.75 359.958C1242.05 358.786 1244.6 358.2 1247.4 358.2C1250.69 358.2 1253.66 358.989 1256.32 360.567C1258.98 362.146 1261.08 364.4 1262.62 367.332C1264.15 370.218 1264.92 373.533 1264.92 377.276C1264.92 381.019 1264.15 384.378 1262.62 387.355C1261.08 390.286 1258.96 392.586 1256.26 394.254C1253.6 395.878 1250.64 396.69 1247.4 396.69C1244.51 396.69 1241.94 396.126 1239.68 394.999C1237.47 393.871 1235.72 392.428 1234.41 390.669V396.081H1226.7V346.023H1234.41V364.355ZM1257.07 377.276C1257.07 374.705 1256.53 372.495 1255.44 370.646C1254.41 368.752 1253.01 367.332 1251.25 366.385C1249.54 365.393 1247.69 364.896 1245.7 364.896C1243.76 364.896 1241.92 365.393 1240.16 366.385C1238.44 367.377 1237.05 368.82 1235.96 370.714C1234.93 372.608 1234.41 374.84 1234.41 377.411C1234.41 379.981 1234.93 382.236 1235.96 384.175C1237.05 386.069 1238.44 387.513 1240.16 388.505C1241.92 389.497 1243.76 389.993 1245.7 389.993C1247.69 389.993 1249.54 389.497 1251.25 388.505C1253.01 387.467 1254.41 385.979 1255.44 384.04C1256.53 382.101 1257.07 379.846 1257.07 377.276Z"></path><path style="fill:var(--color-illustrationHighlight010)" d="M1306.7 376.531C1306.7 377.929 1306.61 379.192 1306.43 380.32H1277.95C1278.18 383.296 1279.28 385.686 1281.27 387.49C1283.25 389.294 1285.69 390.196 1288.57 390.196C1292.72 390.196 1295.65 388.46 1297.37 384.987H1305.69C1304.56 388.414 1302.51 391.233 1299.53 393.443C1296.6 395.607 1292.95 396.69 1288.57 396.69C1285.01 396.69 1281.81 395.901 1278.97 394.322C1276.17 392.699 1273.96 390.444 1272.34 387.558C1270.76 384.626 1269.97 381.244 1269.97 377.411C1269.97 373.578 1270.74 370.218 1272.27 367.332C1273.85 364.4 1276.04 362.146 1278.83 360.567C1281.67 358.989 1284.92 358.2 1288.57 358.2C1292.09 358.2 1295.22 358.966 1297.98 360.5C1300.73 362.033 1302.87 364.197 1304.4 366.993C1305.94 369.744 1306.7 372.924 1306.7 376.531ZM1298.65 374.096C1298.61 371.255 1297.59 368.978 1295.61 367.264C1293.62 365.55 1291.17 364.694 1288.23 364.694C1285.57 364.694 1283.3 365.55 1281.4 367.264C1279.51 368.933 1278.38 371.21 1278.02 374.096H1298.65Z"></path><path style="fill:var(--color-illustrationHighlight010)" d="M1322 346.023V396.081H1314.29V346.023H1322Z"></path><path style="fill:var(--color-illustrationHighlight010)" d="M328.136 390.264H344.078V396.506H320.402V349.357H328.136V390.264Z"></path><path style="fill:var(--color-illustrationHighlight010)" d="M347.968 377.646C347.968 373.893 348.737 370.568 350.274 367.674C351.857 364.78 353.983 362.541 356.651 360.958C359.365 359.33 362.35 358.516 365.606 358.516C368.546 358.516 371.101 359.104 373.272 360.28C375.488 361.41 377.252 362.835 378.563 364.553V359.126H386.365V396.506H378.563V390.943C377.252 392.707 375.465 394.177 373.204 395.352C370.943 396.528 368.365 397.116 365.47 397.116C362.259 397.116 359.32 396.302 356.651 394.674C353.983 393.001 351.857 390.694 350.274 387.754C348.737 384.769 347.968 381.4 347.968 377.646ZM378.563 377.782C378.563 375.204 378.021 372.965 376.935 371.066C375.895 369.166 374.516 367.719 372.797 366.724C371.078 365.729 369.224 365.232 367.234 365.232C365.244 365.232 363.39 365.729 361.671 366.724C359.953 367.674 358.551 369.099 357.465 370.998C356.425 372.852 355.905 375.068 355.905 377.646C355.905 380.224 356.425 382.486 357.465 384.43C358.551 386.375 359.953 387.867 361.671 388.908C363.435 389.903 365.289 390.4 367.234 390.4C369.224 390.4 371.078 389.903 372.797 388.908C374.516 387.913 375.895 386.465 376.935 384.566C378.021 382.621 378.563 380.36 378.563 377.782Z"></path><path style="fill:var(--color-illustrationHighlight010)" d="M404.256 364.689C405.568 362.88 407.354 361.41 409.616 360.28C411.922 359.104 414.477 358.516 417.281 358.516C420.583 358.516 423.568 359.307 426.236 360.89C428.905 362.473 431.008 364.734 432.545 367.674C434.083 370.568 434.852 373.893 434.852 377.646C434.852 381.4 434.083 384.769 432.545 387.754C431.008 390.694 428.882 393.001 426.168 394.674C423.5 396.302 420.538 397.116 417.281 397.116C414.387 397.116 411.809 396.551 409.548 395.42C407.332 394.29 405.568 392.842 404.256 391.079V396.506H396.523V346.305H404.256V364.689ZM426.982 377.646C426.982 375.068 426.44 372.852 425.354 370.998C424.314 369.099 422.912 367.674 421.148 366.724C419.43 365.729 417.575 365.232 415.585 365.232C413.641 365.232 411.786 365.729 410.023 366.724C408.304 367.719 406.902 369.166 405.817 371.066C404.776 372.965 404.256 375.204 404.256 377.782C404.256 380.36 404.776 382.621 405.817 384.566C406.902 386.465 408.304 387.913 410.023 388.908C411.786 389.903 413.641 390.4 415.585 390.4C417.575 390.4 419.43 389.903 421.148 388.908C422.912 387.867 424.314 386.375 425.354 384.43C426.44 382.486 426.982 380.224 426.982 377.646Z"></path><path style="fill:var(--color-illustrationHighlight010)" d="M476.758 376.9C476.758 378.302 476.668 379.568 476.487 380.699H447.927C448.153 383.684 449.261 386.081 451.251 387.89C453.241 389.699 455.683 390.604 458.577 390.604C462.738 390.604 465.678 388.862 467.396 385.38H475.741C474.61 388.817 472.552 391.644 469.567 393.86C466.628 396.031 462.964 397.116 458.577 397.116C455.005 397.116 451.793 396.325 448.944 394.742C446.14 393.114 443.924 390.852 442.296 387.958C440.713 385.018 439.922 381.626 439.922 377.782C439.922 373.938 440.69 370.568 442.228 367.674C443.811 364.734 446.005 362.473 448.809 360.89C451.658 359.307 454.914 358.516 458.577 358.516C462.105 358.516 465.248 359.285 468.007 360.822C470.766 362.36 472.914 364.531 474.452 367.335C475.989 370.094 476.758 373.282 476.758 376.9ZM468.685 374.458C468.64 371.609 467.623 369.325 465.633 367.606C463.643 365.888 461.178 365.028 458.238 365.028C455.57 365.028 453.286 365.888 451.386 367.606C449.487 369.28 448.356 371.563 447.995 374.458H468.685Z"></path><path style="fill:var(--color-illustrationHighlight010)" d="M492.103 346.305V396.506H484.369V346.305H492.103Z"></path><path style="fill:var(--color-illustrationHighlight010)" d="M169.083 549.844L191.203 538.469C193.757 537.156 196.795 539.01 196.795 541.882L196.795 564.006C196.795 566.84 193.83 568.697 191.281 567.458L169.161 556.71C166.316 555.328 166.27 551.291 169.083 549.844Z"></path><path style="fill:var(--color-illustrationHighlight010)" d="M1319.7 549.844L1297.58 538.469C1295.03 537.156 1291.99 539.01 1291.99 541.882L1291.99 564.006C1291.99 566.84 1294.95 568.697 1297.5 567.458L1319.62 556.71C1322.47 555.328 1322.51 551.291 1319.7 549.844Z"></path><path style="fill:var(--color-illustrationHighlight010)" fill-rule="evenodd" clip-rule="evenodd" d="M187 550.039H1302V556.039H187V550.039Z"></path></svg>