<svg
  id="nksvg"
  style="width: 100%; height: 100%"
  width="1490"
  height="838"
  viewBox="0 0 1490 838"
  fill="none"
  xmlns="http://www.w3.org/2000/svg"
  class="css-0"
>
  <path
    style="fill: var(--color-illustrationBackground020)"
    d="M0 0H1490V838H0V0Z"
  ></path>
  <path
    style="fill: var(--color-illustrationHighlight010)"
    d="M383.509 282.339H395.333V286.967H377.773V252H383.509V282.339ZM398.217 272.98C398.217 270.196 398.787 267.731 399.928 265.584C401.102 263.438 402.678 261.777 404.657 260.604C406.67 259.396 408.883 258.792 411.298 258.792C413.479 258.792 415.374 259.228 416.984 260.1C418.627 260.939 419.935 261.996 420.908 263.27V259.245H426.694V286.967H420.908V282.842C419.935 284.15 418.611 285.24 416.933 286.112C415.256 286.984 413.345 287.42 411.198 287.42C408.816 287.42 406.636 286.816 404.657 285.609C402.678 284.368 401.102 282.657 399.928 280.477C398.787 278.263 398.217 275.764 398.217 272.98ZM420.908 273.081C420.908 271.169 420.506 269.509 419.701 268.1C418.929 266.691 417.906 265.618 416.632 264.88C415.357 264.142 413.982 263.773 412.506 263.773C411.03 263.773 409.655 264.142 408.38 264.88C407.106 265.584 406.066 266.641 405.261 268.05C404.49 269.425 404.104 271.069 404.104 272.98C404.104 274.892 404.49 276.569 405.261 278.012C406.066 279.454 407.106 280.561 408.38 281.332C409.688 282.07 411.064 282.439 412.506 282.439C413.982 282.439 415.357 282.07 416.632 281.332C417.906 280.594 418.929 279.521 419.701 278.112C420.506 276.67 420.908 274.993 420.908 273.081ZM439.963 263.371C440.936 262.029 442.261 260.939 443.938 260.1C445.649 259.228 447.544 258.792 449.623 258.792C452.072 258.792 454.286 259.379 456.264 260.553C458.243 261.727 459.803 263.404 460.944 265.584C462.084 267.731 462.654 270.196 462.654 272.98C462.654 275.764 462.084 278.263 460.944 280.477C459.803 282.657 458.227 284.368 456.214 285.609C454.235 286.816 452.038 287.42 449.623 287.42C447.477 287.42 445.565 287.001 443.888 286.162C442.244 285.324 440.936 284.25 439.963 282.942V286.967H434.228V249.736H439.963V263.371ZM456.818 272.98C456.818 271.069 456.415 269.425 455.61 268.05C454.839 266.641 453.799 265.584 452.491 264.88C451.216 264.142 449.841 263.773 448.365 263.773C446.923 263.773 445.548 264.142 444.24 264.88C442.965 265.618 441.925 266.691 441.12 268.1C440.349 269.509 439.963 271.169 439.963 273.081C439.963 274.993 440.349 276.67 441.12 278.112C441.925 279.521 442.965 280.594 444.24 281.332C445.548 282.07 446.923 282.439 448.365 282.439C449.841 282.439 451.216 282.07 452.491 281.332C453.799 280.561 454.839 279.454 455.61 278.012C456.415 276.569 456.818 274.892 456.818 272.98ZM493.734 272.427C493.734 273.467 493.667 274.406 493.533 275.244H472.351C472.519 277.458 473.341 279.236 474.816 280.578C476.292 281.919 478.104 282.59 480.25 282.59C483.336 282.59 485.516 281.299 486.791 278.716H492.979C492.141 281.265 490.615 283.362 488.401 285.005C486.221 286.615 483.504 287.42 480.25 287.42C477.6 287.42 475.219 286.833 473.106 285.659C471.026 284.452 469.383 282.775 468.175 280.628C467.001 278.448 466.414 275.932 466.414 273.081C466.414 270.23 466.984 267.731 468.125 265.584C469.299 263.404 470.926 261.727 473.005 260.553C475.118 259.379 477.533 258.792 480.25 258.792C482.866 258.792 485.198 259.362 487.244 260.503C489.29 261.643 490.883 263.253 492.023 265.333C493.164 267.379 493.734 269.744 493.734 272.427ZM487.747 270.616C487.713 268.503 486.959 266.809 485.483 265.534C484.007 264.26 482.179 263.622 479.999 263.622C478.02 263.622 476.326 264.26 474.917 265.534C473.508 266.775 472.67 268.469 472.401 270.616H487.747ZM505.114 249.736V286.967H499.378V249.736H505.114Z"
  ></path>
  <rect
    style="fill: var(--color-interfaceBackground)"
    x="376.5"
    y="332.592"
    width="745"
    height="177.25"
    rx="21.5"
  ></rect>
  <path
    style="fill: var(--color-illustrationHighlight010)"
    d="M426.262 441.342V401.092H431.092V441.342H426.262ZM439.339 441.342V412.822H443.709L443.996 417.94C444.916 416.138 446.239 414.72 447.964 413.685C449.689 412.65 451.644 412.132 453.829 412.132C457.202 412.132 459.886 413.167 461.879 415.237C463.911 417.269 464.926 420.412 464.926 424.667V441.342H460.096V425.185C460.096 419.243 457.643 416.272 452.736 416.272C450.283 416.272 448.232 417.173 446.584 418.975C444.974 420.738 444.169 423.268 444.169 426.565V441.342H439.339ZM479.905 441.342L469.095 412.822H474.155L482.723 436.685L491.348 412.822H496.293L485.483 441.342H479.905ZM509.696 442.032C507.319 442.032 505.345 441.63 503.773 440.825C502.201 440.02 501.032 438.946 500.266 437.605C499.499 436.263 499.116 434.806 499.116 433.235C499.116 430.321 500.227 428.079 502.451 426.507C504.674 424.936 507.702 424.15 511.536 424.15H519.241V423.805C519.241 421.313 518.589 419.435 517.286 418.17C515.982 416.866 514.238 416.215 512.053 416.215C510.175 416.215 508.546 416.694 507.166 417.652C505.824 418.572 504.981 419.933 504.636 421.735H499.691C499.882 419.665 500.572 417.921 501.761 416.502C502.987 415.084 504.501 414.011 506.303 413.282C508.105 412.516 510.021 412.132 512.053 412.132C516.04 412.132 519.03 413.206 521.023 415.352C523.055 417.461 524.071 420.278 524.071 423.805V441.342H519.758L519.471 436.225C518.666 437.835 517.477 439.215 515.906 440.365C514.372 441.476 512.302 442.032 509.696 442.032ZM510.443 437.95C512.283 437.95 513.855 437.471 515.158 436.512C516.5 435.554 517.516 434.308 518.206 432.775C518.896 431.241 519.241 429.631 519.241 427.945V427.887H511.938C509.101 427.887 507.089 428.386 505.901 429.382C504.751 430.341 504.176 431.548 504.176 433.005C504.176 434.5 504.712 435.707 505.786 436.627C506.897 437.509 508.45 437.95 510.443 437.95ZM531.316 441.342V399.942H536.146V441.342H531.316ZM546.996 406.497C546.037 406.497 545.232 406.191 544.581 405.577C543.967 404.926 543.661 404.121 543.661 403.162C543.661 402.242 543.967 401.476 544.581 400.862C545.232 400.249 546.037 399.942 546.996 399.942C547.916 399.942 548.701 400.249 549.353 400.862C550.005 401.476 550.331 402.242 550.331 403.162C550.331 404.121 550.005 404.926 549.353 405.577C548.701 406.191 547.916 406.497 546.996 406.497ZM544.581 441.342V412.822H549.411V441.342H544.581ZM570.758 442.032C567.921 442.032 565.43 441.381 563.283 440.077C561.175 438.774 559.526 436.991 558.338 434.73C557.188 432.468 556.613 429.9 556.613 427.025C556.613 424.15 557.207 421.601 558.395 419.377C559.584 417.116 561.232 415.352 563.34 414.087C565.449 412.784 567.94 412.132 570.815 412.132C573.154 412.132 575.224 412.611 577.025 413.57C578.827 414.528 580.226 415.87 581.223 417.595V399.942H586.053V441.342H581.683L581.223 436.627C580.303 438.007 578.98 439.253 577.255 440.365C575.53 441.476 573.365 442.032 570.758 442.032ZM571.275 437.835C573.192 437.835 574.879 437.394 576.335 436.512C577.83 435.592 578.98 434.327 579.785 432.717C580.629 431.107 581.05 429.229 581.05 427.082C581.05 424.936 580.629 423.057 579.785 421.447C578.98 419.837 577.83 418.591 576.335 417.71C574.879 416.79 573.192 416.33 571.275 416.33C569.397 416.33 567.71 416.79 566.215 417.71C564.759 418.591 563.609 419.837 562.765 421.447C561.96 423.057 561.558 424.936 561.558 427.082C561.558 429.229 561.96 431.107 562.765 432.717C563.609 434.327 564.759 435.592 566.215 436.512C567.71 437.394 569.397 437.835 571.275 437.835ZM609.431 441.342V401.092H614.261V441.342H609.431ZM622.508 441.342V412.822H626.878L627.165 417.94C628.085 416.138 629.408 414.72 631.133 413.685C632.858 412.65 634.813 412.132 636.998 412.132C640.371 412.132 643.055 413.167 645.048 415.237C647.08 417.269 648.095 420.412 648.095 424.667V441.342H643.265V425.185C643.265 419.243 640.812 416.272 635.905 416.272C633.452 416.272 631.401 417.173 629.753 418.975C628.143 420.738 627.338 423.268 627.338 426.565V441.342H622.508ZM655.413 453.992V412.822H659.783L660.243 417.537C661.163 416.157 662.467 414.911 664.153 413.8C665.878 412.688 668.063 412.132 670.708 412.132C673.545 412.132 676.017 412.784 678.126 414.087C680.234 415.391 681.863 417.173 683.013 419.435C684.202 421.696 684.796 424.265 684.796 427.14C684.796 430.015 684.202 432.583 683.013 434.845C681.863 437.068 680.215 438.831 678.068 440.135C675.96 441.4 673.487 442.032 670.651 442.032C668.312 442.032 666.223 441.553 664.383 440.595C662.582 439.636 661.202 438.295 660.243 436.57V453.992H655.413ZM670.133 437.835C672.05 437.835 673.737 437.394 675.193 436.512C676.65 435.592 677.8 434.327 678.643 432.717C679.487 431.107 679.908 429.229 679.908 427.082C679.908 424.936 679.487 423.057 678.643 421.447C677.8 419.837 676.65 418.591 675.193 417.71C673.737 416.79 672.05 416.33 670.133 416.33C668.217 416.33 666.53 416.79 665.073 417.71C663.617 418.591 662.467 419.837 661.623 421.447C660.78 423.057 660.358 424.936 660.358 427.082C660.358 429.229 660.78 431.107 661.623 432.717C662.467 434.327 663.617 435.592 665.073 436.512C666.53 437.394 668.217 437.835 670.133 437.835ZM701.927 442.032C698.553 442.032 695.87 441.016 693.877 438.985C691.883 436.915 690.887 433.752 690.887 429.497V412.822H695.717V428.98C695.717 434.921 698.151 437.892 703.019 437.892C705.511 437.892 707.562 437.011 709.172 435.247C710.82 433.446 711.644 430.896 711.644 427.6V412.822H716.474V441.342H712.104L711.759 436.225C710.877 438.026 709.555 439.445 707.792 440.48C706.067 441.515 704.112 442.032 701.927 442.032ZM735.694 441.342C733.088 441.342 731.037 440.71 729.542 439.445C728.047 438.18 727.299 435.899 727.299 432.602V416.905H722.354V412.822H727.299L727.932 405.98H732.129V412.822H740.524V416.905H732.129V432.602C732.129 434.404 732.494 435.631 733.222 436.282C733.95 436.896 735.234 437.202 737.074 437.202H740.064V441.342H735.694Z"
  ></path>
  <path
    style="fill: var(--color-inkNegative)"
    d="M1032.88 385.28C1013.04 385.28 996.938 401.38 996.938 421.217C996.938 441.055 1013.04 457.155 1032.88 457.155C1052.71 457.155 1068.81 441.055 1068.81 421.217C1068.81 401.38 1052.71 385.28 1032.88 385.28ZM1036.47 439.186H1029.28V431.999H1036.47V439.186ZM1036.47 424.811H1029.28V403.249H1036.47V424.811Z"
  ></path>
  <rect
    x="376.5"
    y="332.592"
    width="745"
    height="177.25"
    rx="21.5"
    stroke="#D60000"
    stroke-width="5"
  ></rect>
  <path
    style="fill: var(--color-inkNegative)"
    d="M375.26 577.871L386.096 548.471H389.834L400.628 577.871H396.89L394.202 570.311H381.686L378.956 577.871H375.26ZM382.736 567.455H393.152L387.944 552.923L382.736 567.455ZM412.769 578.375C410.277 578.375 408.205 577.745 406.553 576.485C404.901 575.225 403.935 573.517 403.655 571.361H407.267C407.491 572.453 408.065 573.405 408.989 574.217C409.941 575.001 411.215 575.393 412.811 575.393C414.295 575.393 415.387 575.085 416.087 574.469C416.787 573.825 417.137 573.069 417.137 572.201C417.137 570.941 416.675 570.101 415.751 569.681C414.855 569.261 413.581 568.883 411.929 568.547C410.809 568.323 409.689 568.001 408.569 567.581C407.449 567.161 406.511 566.573 405.755 565.817C404.999 565.033 404.621 564.011 404.621 562.751C404.621 560.931 405.293 559.447 406.637 558.299C408.009 557.123 409.857 556.535 412.181 556.535C414.393 556.535 416.199 557.095 417.599 558.215C419.027 559.307 419.853 560.875 420.077 562.919H416.591C416.451 561.855 415.989 561.029 415.205 560.441C414.449 559.825 413.427 559.517 412.139 559.517C410.879 559.517 409.899 559.783 409.199 560.315C408.527 560.847 408.191 561.547 408.191 562.415C408.191 563.255 408.625 563.913 409.493 564.389C410.389 564.865 411.593 565.271 413.105 565.607C414.393 565.887 415.611 566.237 416.759 566.657C417.935 567.049 418.887 567.651 419.615 568.463C420.371 569.247 420.749 570.395 420.749 571.907C420.777 573.783 420.063 575.337 418.607 576.569C417.179 577.773 415.233 578.375 412.769 578.375ZM433.769 578.375C431.277 578.375 429.205 577.745 427.553 576.485C425.901 575.225 424.935 573.517 424.655 571.361H428.267C428.491 572.453 429.065 573.405 429.989 574.217C430.941 575.001 432.215 575.393 433.811 575.393C435.295 575.393 436.387 575.085 437.087 574.469C437.787 573.825 438.137 573.069 438.137 572.201C438.137 570.941 437.675 570.101 436.751 569.681C435.855 569.261 434.581 568.883 432.929 568.547C431.809 568.323 430.689 568.001 429.569 567.581C428.449 567.161 427.511 566.573 426.755 565.817C425.999 565.033 425.621 564.011 425.621 562.751C425.621 560.931 426.293 559.447 427.637 558.299C429.009 557.123 430.857 556.535 433.181 556.535C435.393 556.535 437.199 557.095 438.599 558.215C440.027 559.307 440.853 560.875 441.077 562.919H437.591C437.451 561.855 436.989 561.029 436.205 560.441C435.449 559.825 434.427 559.517 433.139 559.517C431.879 559.517 430.899 559.783 430.199 560.315C429.527 560.847 429.191 561.547 429.191 562.415C429.191 563.255 429.625 563.913 430.493 564.389C431.389 564.865 432.593 565.271 434.105 565.607C435.393 565.887 436.611 566.237 437.759 566.657C438.935 567.049 439.887 567.651 440.615 568.463C441.371 569.247 441.749 570.395 441.749 571.907C441.777 573.783 441.063 575.337 439.607 576.569C438.179 577.773 436.233 578.375 433.769 578.375ZM448.931 552.419C448.231 552.419 447.643 552.195 447.167 551.747C446.719 551.271 446.495 550.683 446.495 549.983C446.495 549.311 446.719 548.751 447.167 548.303C447.643 547.855 448.231 547.631 448.931 547.631C449.603 547.631 450.177 547.855 450.653 548.303C451.129 548.751 451.367 549.311 451.367 549.983C451.367 550.683 451.129 551.271 450.653 551.747C450.177 552.195 449.603 552.419 448.931 552.419ZM447.167 577.871V557.039H450.695V577.871H447.167ZM464.817 578.375C462.325 578.375 460.253 577.745 458.601 576.485C456.949 575.225 455.983 573.517 455.703 571.361H459.315C459.539 572.453 460.113 573.405 461.037 574.217C461.989 575.001 463.263 575.393 464.859 575.393C466.343 575.393 467.435 575.085 468.135 574.469C468.835 573.825 469.185 573.069 469.185 572.201C469.185 570.941 468.723 570.101 467.799 569.681C466.903 569.261 465.629 568.883 463.977 568.547C462.857 568.323 461.737 568.001 460.617 567.581C459.497 567.161 458.559 566.573 457.803 565.817C457.047 565.033 456.669 564.011 456.669 562.751C456.669 560.931 457.341 559.447 458.685 558.299C460.057 557.123 461.905 556.535 464.229 556.535C466.441 556.535 468.247 557.095 469.647 558.215C471.075 559.307 471.901 560.875 472.125 562.919H468.639C468.499 561.855 468.037 561.029 467.253 560.441C466.497 559.825 465.475 559.517 464.187 559.517C462.927 559.517 461.947 559.783 461.247 560.315C460.575 560.847 460.239 561.547 460.239 562.415C460.239 563.255 460.673 563.913 461.541 564.389C462.437 564.865 463.641 565.271 465.153 565.607C466.441 565.887 467.659 566.237 468.807 566.657C469.983 567.049 470.935 567.651 471.663 568.463C472.419 569.247 472.797 570.395 472.797 571.907C472.825 573.783 472.111 575.337 470.655 576.569C469.227 577.773 467.281 578.375 464.817 578.375ZM485.126 577.871C483.222 577.871 481.724 577.409 480.632 576.485C479.54 575.561 478.994 573.895 478.994 571.487V560.021H475.382V557.039H478.994L479.456 552.041H482.522V557.039H488.654V560.021H482.522V571.487C482.522 572.803 482.788 573.699 483.32 574.175C483.852 574.623 484.79 574.847 486.134 574.847H488.318V577.871H485.126ZM495.278 552.419C494.578 552.419 493.99 552.195 493.514 551.747C493.066 551.271 492.842 550.683 492.842 549.983C492.842 549.311 493.066 548.751 493.514 548.303C493.99 547.855 494.578 547.631 495.278 547.631C495.95 547.631 496.524 547.855 497 548.303C497.476 548.751 497.714 549.311 497.714 549.983C497.714 550.683 497.476 551.271 497 551.747C496.524 552.195 495.95 552.419 495.278 552.419ZM493.514 577.871V557.039H497.042V577.871H493.514ZM509.191 577.871L501.295 557.039H504.991L511.249 574.469L517.549 557.039H521.161L513.265 577.871H509.191ZM533.387 578.375C531.399 578.375 529.635 577.927 528.095 577.031C526.555 576.107 525.337 574.833 524.441 573.209C523.573 571.585 523.139 569.667 523.139 567.455C523.139 565.271 523.573 563.367 524.441 561.743C525.309 560.091 526.513 558.817 528.053 557.921C529.621 556.997 531.427 556.535 533.471 556.535C535.487 556.535 537.223 556.997 538.679 557.921C540.163 558.817 541.297 560.007 542.081 561.491C542.865 562.975 543.257 564.571 543.257 566.279C543.257 566.587 543.243 566.895 543.215 567.203C543.215 567.511 543.215 567.861 543.215 568.253H526.625C526.709 569.849 527.073 571.179 527.717 572.243C528.389 573.279 529.215 574.063 530.195 574.595C531.203 575.127 532.267 575.393 533.387 575.393C534.843 575.393 536.061 575.057 537.041 574.385C538.021 573.713 538.735 572.803 539.183 571.655H542.669C542.109 573.587 541.031 575.197 539.435 576.485C537.867 577.745 535.851 578.375 533.387 578.375ZM533.387 559.517C531.707 559.517 530.209 560.035 528.893 561.071C527.605 562.079 526.863 563.563 526.667 565.523H539.771C539.687 563.647 539.043 562.177 537.839 561.113C536.635 560.049 535.151 559.517 533.387 559.517ZM567.28 577.871C565.376 577.871 563.878 577.409 562.786 576.485C561.694 575.561 561.148 573.895 561.148 571.487V560.021H557.536V557.039H561.148L561.61 552.041H564.676V557.039H570.808V560.021H564.676V571.487C564.676 572.803 564.942 573.699 565.474 574.175C566.006 574.623 566.944 574.847 568.288 574.847H570.472V577.871H567.28ZM584.082 578.375C582.094 578.375 580.33 577.927 578.79 577.031C577.25 576.107 576.032 574.833 575.136 573.209C574.268 571.585 573.834 569.667 573.834 567.455C573.834 565.271 574.268 563.367 575.136 561.743C576.004 560.091 577.208 558.817 578.748 557.921C580.316 556.997 582.122 556.535 584.166 556.535C586.182 556.535 587.918 556.997 589.374 557.921C590.858 558.817 591.992 560.007 592.776 561.491C593.56 562.975 593.952 564.571 593.952 566.279C593.952 566.587 593.938 566.895 593.91 567.203C593.91 567.511 593.91 567.861 593.91 568.253H577.32C577.404 569.849 577.768 571.179 578.412 572.243C579.084 573.279 579.91 574.063 580.89 574.595C581.898 575.127 582.962 575.393 584.082 575.393C585.538 575.393 586.756 575.057 587.736 574.385C588.716 573.713 589.43 572.803 589.878 571.655H593.364C592.804 573.587 591.726 575.197 590.13 576.485C588.562 577.745 586.546 578.375 584.082 578.375ZM584.082 559.517C582.402 559.517 580.904 560.035 579.588 561.071C578.3 562.079 577.558 563.563 577.362 565.523H590.466C590.382 563.647 589.738 562.177 588.534 561.113C587.33 560.049 585.846 559.517 584.082 559.517ZM595.544 577.871L602.768 567.455L595.544 557.039H599.366L605.204 565.649L611.084 557.039H614.864L607.64 567.455L614.864 577.871H611.084L605.204 569.261L599.366 577.871H595.544ZM626.794 577.871C624.89 577.871 623.392 577.409 622.3 576.485C621.208 575.561 620.662 573.895 620.662 571.487V560.021H617.05V557.039H620.662L621.124 552.041H624.19V557.039H630.322V560.021H624.19V571.487C624.19 572.803 624.456 573.699 624.988 574.175C625.52 574.623 626.458 574.847 627.802 574.847H629.986V577.871H626.794Z"
  ></path>
</svg>
