<svg id="components-accordion-behaviours-firstexpandedonload" style="width: 100%; height: 100%" width="1490" height="838" viewBox="0 0 1490 838" fill="none" xmlns="http://www.w3.org/2000/svg" class="css-0"><g clip-path="url(#nk-1013)"><path style="fill:var(--color-illustrationBackground020)" d="M0 0H1490V838H0V0Z"></path><g filter="url(#nk-1014)"><path style="fill:var(--color-illustrationInterface010)" d="M457 113.434C457 101.044 467.044 91 479.434 91H1009.57C1021.96 91 1032 101.044 1032 113.434V241H457V113.434Z"></path><path style="fill:var(--color-illustrationHighlight010)" d="M972.683 179.666L957 164.018L941.317 179.666L936.5 174.849L957 154.349L977.5 174.849L972.683 179.666Z"></path><path style="fill:var(--color-illustrationInterface030)" d="M512 166C512 159.373 514.798 154 518.249 154H742.751C746.202 154 749 159.373 749 166C749 172.627 746.202 178 742.751 178H518.249C514.798 178 512 172.627 512 166Z"></path></g><g filter="url(#nk-1015)"><path style="fill:var(--color-illustrationInterface010)" d="M457 242H1032V545H457V242Z"></path><path style="fill:var(--color-illustrationInterface020)" d="M512 242H977V482C977 486.418 973.418 490 969 490H520C515.582 490 512 486.418 512 482V242Z"></path></g><g filter="url(#nk-1016)"><path style="fill:var(--color-illustrationInterface010)" d="M457 551H1032V701H457V551Z"></path><path style="fill:var(--color-illustrationHighlight010)" d="M972.683 614.349L957 629.997L941.317 614.349L936.5 619.167L957 639.667L977.5 619.167L972.683 614.349Z"></path><path style="fill:var(--color-illustrationInterface020)" d="M512 626C512 619.373 516.415 614 521.861 614H876.139C881.585 614 886 619.373 886 626C886 632.627 881.585 638 876.139 638H521.861C516.415 638 512 632.627 512 626Z"></path></g><g filter="url(#nk-1017)"><path style="fill:var(--color-illustrationInterface010)" d="M457 707H1032V834.566C1032 846.956 1021.96 857 1009.57 857H479.434C467.044 857 457 846.956 457 834.566V707Z"></path><path style="fill:var(--color-illustrationHighlight010)" d="M972.683 770.349L957 785.997L941.317 770.349L936.5 775.167L957 795.667L977.5 775.167L972.683 770.349Z"></path><path style="fill:var(--color-illustrationInterface020)" d="M512 782C512 775.373 516.415 770 521.861 770H876.139C881.585 770 886 775.373 886 782C886 788.627 881.585 794 876.139 794H521.861C516.415 794 512 788.627 512 782Z"></path></g><path style="fill:var(--color-illustrationHighlight010)" fill-rule="evenodd" clip-rule="evenodd" d="M1078.5 539.379V97.5H1081.5V539.379L1088.49 532.393C1089.07 531.808 1090.02 531.808 1090.61 532.393C1091.19 532.979 1091.19 533.929 1090.61 534.515L1081.06 544.061C1080.47 544.646 1079.53 544.646 1078.94 544.061L1069.39 534.515C1068.81 533.929 1068.81 532.979 1069.39 532.393C1069.98 531.808 1070.93 531.808 1071.51 532.393L1078.5 539.379Z"></path></g><defs><filter id="nk-1014" x="441" y="83" width="607" height="182" filterUnits="userSpaceOnUse" color-interpolation-filters="sRGB"><feFlood flood-opacity="0" result="BackgroundImageFix"></feFlood><feColorMatrix in="SourceAlpha" type="matrix" values="0 0 0 0 0 0 0 0 0 0 0 0 0 0 0 0 0 0 127 0" result="hardAlpha"></feColorMatrix><feOffset dy="8"></feOffset><feGaussianBlur stdDeviation="8"></feGaussianBlur><feColorMatrix type="matrix" values="0 0 0 0 0.0392157 0 0 0 0 0.0392157 0 0 0 0 0.0392157 0 0 0 0.08 0"></feColorMatrix><feBlend mode="normal" in2="BackgroundImageFix" result="effect1_dropShadow_1798_58635"></feBlend><feBlend mode="normal" in="SourceGraphic" in2="effect1_dropShadow_1798_58635" result="shape"></feBlend></filter><filter id="nk-1015" x="441" y="234" width="607" height="335" filterUnits="userSpaceOnUse" color-interpolation-filters="sRGB"><feFlood flood-opacity="0" result="BackgroundImageFix"></feFlood><feColorMatrix in="SourceAlpha" type="matrix" values="0 0 0 0 0 0 0 0 0 0 0 0 0 0 0 0 0 0 127 0" result="hardAlpha"></feColorMatrix><feOffset dy="8"></feOffset><feGaussianBlur stdDeviation="8"></feGaussianBlur><feColorMatrix type="matrix" values="0 0 0 0 0.0392157 0 0 0 0 0.0392157 0 0 0 0 0.0392157 0 0 0 0.08 0"></feColorMatrix><feBlend mode="normal" in2="BackgroundImageFix" result="effect1_dropShadow_1798_58635"></feBlend><feBlend mode="normal" in="SourceGraphic" in2="effect1_dropShadow_1798_58635" result="shape"></feBlend></filter><filter id="nk-1016" x="441" y="543" width="607" height="182" filterUnits="userSpaceOnUse" color-interpolation-filters="sRGB"><feFlood flood-opacity="0" result="BackgroundImageFix"></feFlood><feColorMatrix in="SourceAlpha" type="matrix" values="0 0 0 0 0 0 0 0 0 0 0 0 0 0 0 0 0 0 127 0" result="hardAlpha"></feColorMatrix><feOffset dy="8"></feOffset><feGaussianBlur stdDeviation="8"></feGaussianBlur><feColorMatrix type="matrix" values="0 0 0 0 0.0392157 0 0 0 0 0.0392157 0 0 0 0 0.0392157 0 0 0 0.08 0"></feColorMatrix><feBlend mode="normal" in2="BackgroundImageFix" result="effect1_dropShadow_1798_58635"></feBlend><feBlend mode="normal" in="SourceGraphic" in2="effect1_dropShadow_1798_58635" result="shape"></feBlend></filter><filter id="nk-1017" x="441" y="699" width="607" height="182" filterUnits="userSpaceOnUse" color-interpolation-filters="sRGB"><feFlood flood-opacity="0" result="BackgroundImageFix"></feFlood><feColorMatrix in="SourceAlpha" type="matrix" values="0 0 0 0 0 0 0 0 0 0 0 0 0 0 0 0 0 0 127 0" result="hardAlpha"></feColorMatrix><feOffset dy="8"></feOffset><feGaussianBlur stdDeviation="8"></feGaussianBlur><feColorMatrix type="matrix" values="0 0 0 0 0.0392157 0 0 0 0 0.0392157 0 0 0 0 0.0392157 0 0 0 0.08 0"></feColorMatrix><feBlend mode="normal" in2="BackgroundImageFix" result="effect1_dropShadow_1798_58635"></feBlend><feBlend mode="normal" in="SourceGraphic" in2="effect1_dropShadow_1798_58635" result="shape"></feBlend></filter><clipPath id="nk-1013"><rect style="fill:var(--color-white)" width="1490" height="838"></rect></clipPath></defs></svg>