<svg id="guides-overview-design-overview" style="width: 100%; height: 100%" width="1345" height="759" viewBox="0 0 1345 759" fill="none" xmlns="http://www.w3.org/2000/svg" class="css-0"><rect style="fill:var(--color-illustrationBackground020)" width="1345" height="759"></rect><path style="fill:var(--color-illustrationPalette040)" d="M673 609C545.975 609 443 506.025 443 379C443 251.975 545.975 149 673 149C800.025 149 903 251.975 903 379C903 506.025 800.025 609 673 609Z"></path><path style="fill:var(--color-illustrationPalette020)" fill-rule="evenodd" clip-rule="evenodd" d="M428 134H918V624H428V134ZM443 149V609H903V149H443Z"></path><path style="fill:var(--color-interface010)" d="M442.5 171C430.626 171 421 161.374 421 149.5C421 137.626 430.626 128 442.5 128C454.374 128 464 137.626 464 149.5C464 161.374 454.374 171 442.5 171Z"></path><path style="fill:var(--color-illustrationPalette020)" fill-rule="evenodd" clip-rule="evenodd" d="M406 149.5C406 169.658 422.342 186 442.5 186C462.658 186 479 169.658 479 149.5C479 129.342 462.658 113 442.5 113C422.342 113 406 129.342 406 149.5ZM421 149.5C421 161.374 430.626 171 442.5 171C454.374 171 464 161.374 464 149.5C464 137.626 454.374 128 442.5 128C430.626 128 421 137.626 421 149.5Z"></path><path style="fill:var(--color-interface010)" d="M902.5 171C890.626 171 881 161.374 881 149.5C881 137.626 890.626 128 902.5 128C914.374 128 924 137.626 924 149.5C924 161.374 914.374 171 902.5 171Z"></path><path style="fill:var(--color-illustrationPalette020)" fill-rule="evenodd" clip-rule="evenodd" d="M866 149.5C866 169.658 882.342 186 902.5 186C922.658 186 939 169.658 939 149.5C939 129.342 922.658 113 902.5 113C882.342 113 866 129.342 866 149.5ZM881 149.5C881 161.374 890.626 171 902.5 171C914.374 171 924 161.374 924 149.5C924 137.626 914.374 128 902.5 128C890.626 128 881 137.626 881 149.5Z"></path><path style="fill:var(--color-interface010)" d="M442.5 631C430.626 631 421 621.374 421 609.5C421 597.626 430.626 588 442.5 588C454.374 588 464 597.626 464 609.5C464 621.374 454.374 631 442.5 631Z"></path><path style="fill:var(--color-illustrationPalette020)" fill-rule="evenodd" clip-rule="evenodd" d="M406 609.5C406 629.658 422.342 646 442.5 646C462.658 646 479 629.658 479 609.5C479 589.342 462.658 573 442.5 573C422.342 573 406 589.342 406 609.5ZM421 609.5C421 621.374 430.626 631 442.5 631C454.374 631 464 621.374 464 609.5C464 597.626 454.374 588 442.5 588C430.626 588 421 597.626 421 609.5Z"></path><path style="fill:var(--color-interface010)" d="M902.5 631C890.626 631 881 621.374 881 609.5C881 597.626 890.626 588 902.5 588C914.374 588 924 597.626 924 609.5C924 621.374 914.374 631 902.5 631Z"></path><path style="fill:var(--color-illustrationPalette030)" fill-rule="evenodd" clip-rule="evenodd" d="M866 609.5C866 629.658 882.342 646 902.5 646C922.658 646 939 629.658 939 609.5C939 589.342 922.658 573 902.5 573C882.342 573 866 589.342 866 609.5ZM881 609.5C881 621.374 890.626 631 902.5 631C914.374 631 924 621.374 924 609.5C924 597.626 914.374 588 902.5 588C890.626 588 881 597.626 881 609.5Z"></path><path style="fill:var(--color-illustrationPalette050)" d="M906.5 613.5L801.5 657.425V663.142L841.4 678.6L856.8 718.5H862.517L906.5 613.5Z"></path></svg>