<svg id="guides-overview-instrumentation-setup" style="width: 100%; height: 100%" width="1345" height="759" viewBox="0 0 1345 759" fill="none" xmlns="http://www.w3.org/2000/svg" class="css-0"><rect style="fill:var(--color-illustrationBackground020)" width="1345" height="759"></rect><path style="fill:var(--color-illustrationPalette030)" fill-rule="evenodd" clip-rule="evenodd" d="M439 224C439 217.925 443.925 213 450 213H688C694.075 213 699 217.925 699 224C699 230.075 694.075 235 688 235H450C443.925 235 439 230.075 439 224Z"></path><path style="fill:var(--color-illustrationPalette020)" fill-rule="evenodd" clip-rule="evenodd" d="M749 224C749 217.925 753.925 213 760 213H896C902.075 213 907 217.925 907 224C907 230.075 902.075 235 896 235H760C753.925 235 749 230.075 749 224Z"></path><path style="fill:var(--color-illustrationPalette020)" fill-rule="evenodd" clip-rule="evenodd" d="M643 380C643 373.925 647.925 369 654 369H896C902.075 369 907 373.925 907 380C907 386.075 902.075 391 896 391H654C647.925 391 643 386.075 643 380Z"></path><path style="fill:var(--color-illustrationPalette020)" fill-rule="evenodd" clip-rule="evenodd" d="M643 533C643 526.925 647.925 522 654 522H896C902.075 522 907 526.925 907 533C907 539.075 902.075 544 896 544H654C647.925 544 643 539.075 643 533Z"></path><path style="fill:var(--color-illustrationPalette030)" fill-rule="evenodd" clip-rule="evenodd" d="M439 380C439 373.925 443.925 369 450 369H587C593.075 369 598 373.925 598 380C598 386.075 593.075 391 587 391H450C443.925 391 439 386.075 439 380Z"></path><path style="fill:var(--color-illustrationPalette030)" fill-rule="evenodd" clip-rule="evenodd" d="M439 533C439 526.925 443.925 522 450 522H587C593.075 522 598 526.925 598 533C598 539.075 593.075 544 587 544H450C443.925 544 439 539.075 439 533Z"></path><rect style="fill:var(--color-illustrationPalette040)" x="532" y="291" width="72" height="176" rx="17"></rect><rect style="fill:var(--color-illustrationPalette040)" x="731" y="133" width="72" height="176" rx="17"></rect><rect style="fill:var(--color-illustrationPalette040)" x="632" y="442" width="72" height="176" rx="17"></rect></svg>