<svg
  id="nksvg"
  style="width: 100%; height: 100%"
  width="1345"
  height="759"
  viewBox="0 0 1345 759"
  fill="none"
  xmlns="http://www.w3.org/2000/svg"
  class="css-0"
>
  <rect
    style="fill: var(--color-illustrationBackground020)"
    width="1345"
    height="759"
  ></rect>
  <g >
    <rect
      style="fill: var(--color-illustrationInterface010)"
      x="454"
      y="62.9143"
      width="437.424"
      height="636.086"
      rx="13.4248"
    ></rect>
    <path
      style="fill: var(--color-illustrationInterface030)"
      d="M454 74.4248C454 67.0105 460.01 61 467.425 61H877.999C885.413 61 891.424 67.0105 891.424 74.4248V344.321H454V74.4248Z"
    ></path>
    <rect
      style="fill: var(--color-illustrationPalette020)"
      x="489.28"
      y="391"
      width="364.507"
      height="22.3746"
      rx="11.1873"
    ></rect>
    <rect
      style="fill: var(--color-illustrationPalette020)"
      x="489.28"
      y="439.306"
      width="239.345"
      height="22.3746"
      rx="11.1873"
    ></rect>
    <rect
      style="fill: var(--color-illustrationInterface020)"
      x="489.279"
      y="524.947"
      width="364.507"
      height="13.175"
      rx="6.58748"
    ></rect>
    <rect
      style="fill: var(--color-illustrationInterface020)"
      x="489.28"
      y="494.202"
      width="364.507"
      height="13.175"
      rx="6.58748"
    ></rect>
    <rect
      style="fill: var(--color-illustrationInterface020)"
      x="489.279"
      y="556"
      width="184.45"
      height="13.175"
      rx="6.58748"
    ></rect>
    <path
      style="fill: var(--color-illustrationHighlight010)"
      d="M683 644.5C683 631.521 693.521 621 706.5 621H830.5C843.479 621 854 631.521 854 644.5C854 657.479 843.479 668 830.5 668H706.5C693.521 668 683 657.479 683 644.5Z"
    ></path>
  </g>
  <rect
    x="456.5"
    y="63.5"
    width="432"
    height="278"
    rx="17.5"
    stroke="#577FFB"
    stroke-width="5"
    stroke-dasharray="10 10"
  ></rect>
  <rect
    x="2.5"
    y="-2.5"
    width="432"
    height="248"
    rx="17.5"
    transform="matrix(1 0 0 -1 454 588)"
    stroke="#577FFB"
    stroke-width="5"
    stroke-dasharray="10 10"
  ></rect>
  <rect
    x="456.5"
    y="592.5"
    width="432"
    height="104"
    rx="17.5"
    stroke="#577FFB"
    stroke-width="5"
    stroke-dasharray="10 10"
  ></rect>
  <path
    style="fill: var(--color-illustrationHighlight010)"
    d="M922.48 90.1601C921.691 90.1601 921.029 89.9148 920.496 89.4241C919.984 88.9121 919.728 88.2828 919.728 87.5361C919.728 86.7894 919.984 86.1708 920.496 85.6801C921.029 85.1681 921.691 84.9121 922.48 84.9121C923.269 84.9121 923.92 85.1681 924.432 85.6801C924.965 86.1708 925.232 86.7894 925.232 87.5361C925.232 88.2828 924.965 88.9121 924.432 89.4241C923.92 89.9148 923.269 90.1601 922.48 90.1601ZM924.688 92.2721V110H920.208V92.2721H924.688Z"
  ></path>
  <path
    style="fill: var(--color-illustrationHighlight010)"
    d="M951.13 92.0161C953.306 92.0161 955.056 92.6881 956.378 94.0321C957.722 95.3548 958.394 97.2108 958.394 99.6001V110H953.914V100.208C953.914 98.8214 953.562 97.7654 952.858 97.0401C952.154 96.2934 951.194 95.9201 949.978 95.9201C948.762 95.9201 947.792 96.2934 947.066 97.0401C946.362 97.7654 946.01 98.8214 946.01 100.208V110H941.53V100.208C941.53 98.8214 941.178 97.7654 940.474 97.0401C939.77 96.2934 938.81 95.9201 937.594 95.9201C936.357 95.9201 935.376 96.2934 934.65 97.0401C933.946 97.7654 933.594 98.8214 933.594 100.208V110H929.114V92.2721H933.594V94.4161C934.17 93.6694 934.906 93.0828 935.802 92.6561C936.72 92.2294 937.722 92.0161 938.81 92.0161C940.197 92.0161 941.434 92.3148 942.522 92.9121C943.61 93.4881 944.453 94.3201 945.05 95.4081C945.626 94.3841 946.458 93.5628 947.546 92.9441C948.656 92.3254 949.85 92.0161 951.13 92.0161Z"
  ></path>
  <path
    style="fill: var(--color-illustrationHighlight010)"
    d="M961.494 101.072C961.494 99.2801 961.846 97.6908 962.55 96.3041C963.275 94.9174 964.246 93.8508 965.462 93.1041C966.699 92.3574 968.075 91.9841 969.59 91.9841C970.912 91.9841 972.064 92.2508 973.046 92.7841C974.048 93.3174 974.848 93.9894 975.446 94.8001V92.2721H979.958V110H975.446V107.408C974.87 108.24 974.07 108.933 973.046 109.488C972.043 110.021 970.88 110.288 969.558 110.288C968.064 110.288 966.699 109.904 965.462 109.136C964.246 108.368 963.275 107.291 962.55 105.904C961.846 104.496 961.494 102.885 961.494 101.072ZM975.446 101.136C975.446 100.048 975.232 99.1201 974.806 98.3521C974.379 97.5628 973.803 96.9654 973.078 96.5601C972.352 96.1334 971.574 95.9201 970.742 95.9201C969.91 95.9201 969.142 96.1228 968.438 96.5281C967.734 96.9334 967.158 97.5308 966.71 98.3201C966.283 99.0881 966.07 100.005 966.07 101.072C966.07 102.139 966.283 103.077 966.71 103.888C967.158 104.677 967.734 105.285 968.438 105.712C969.163 106.139 969.931 106.352 970.742 106.352C971.574 106.352 972.352 106.149 973.078 105.744C973.803 105.317 974.379 104.72 974.806 103.952C975.232 103.163 975.446 102.224 975.446 101.136Z"
  ></path>
  <path
    style="fill: var(--color-illustrationHighlight010)"
    d="M991.277 91.9841C992.6 91.9841 993.762 92.2508 994.765 92.7841C995.768 93.2961 996.557 93.9681 997.133 94.8001V92.2721H1001.65V110.128C1001.65 111.771 1001.31 113.232 1000.65 114.512C999.992 115.813 999 116.837 997.677 117.584C996.354 118.352 994.754 118.736 992.877 118.736C990.36 118.736 988.29 118.149 986.669 116.976C985.069 115.803 984.162 114.203 983.949 112.176H988.397C988.632 112.987 989.133 113.627 989.901 114.096C990.69 114.587 991.64 114.832 992.749 114.832C994.05 114.832 995.106 114.437 995.917 113.648C996.728 112.88 997.133 111.707 997.133 110.128V107.376C996.557 108.208 995.757 108.901 994.733 109.456C993.73 110.011 992.578 110.288 991.277 110.288C989.784 110.288 988.418 109.904 987.181 109.136C985.944 108.368 984.962 107.291 984.237 105.904C983.533 104.496 983.181 102.885 983.181 101.072C983.181 99.2801 983.533 97.6908 984.237 96.3041C984.962 94.9174 985.933 93.8508 987.149 93.1041C988.386 92.3574 989.762 91.9841 991.277 91.9841ZM997.133 101.136C997.133 100.048 996.92 99.1201 996.493 98.3521C996.066 97.5628 995.49 96.9654 994.765 96.5601C994.04 96.1334 993.261 95.9201 992.429 95.9201C991.597 95.9201 990.829 96.1228 990.125 96.5281C989.421 96.9334 988.845 97.5308 988.397 98.3201C987.97 99.0881 987.757 100.005 987.757 101.072C987.757 102.139 987.97 103.077 988.397 103.888C988.845 104.677 989.421 105.285 990.125 105.712C990.85 106.139 991.618 106.352 992.429 106.352C993.261 106.352 994.04 106.149 994.765 105.744C995.49 105.317 996.066 104.72 996.493 103.952C996.92 103.163 997.133 102.224 997.133 101.136Z"
  ></path>
  <path
    style="fill: var(--color-illustrationHighlight010)"
    d="M1022.5 100.752C1022.5 101.392 1022.46 101.968 1022.37 102.48H1009.41C1009.52 103.76 1009.97 104.763 1010.76 105.488C1011.55 106.213 1012.52 106.576 1013.67 106.576C1015.33 106.576 1016.52 105.861 1017.22 104.432H1022.05C1021.54 106.139 1020.56 107.547 1019.11 108.656C1017.66 109.744 1015.88 110.288 1013.76 110.288C1012.06 110.288 1010.52 109.915 1009.16 109.168C1007.81 108.4 1006.76 107.323 1005.99 105.936C1005.24 104.549 1004.87 102.949 1004.87 101.136C1004.87 99.3014 1005.24 97.6908 1005.99 96.3041C1006.74 94.9174 1007.78 93.8508 1009.12 93.1041C1010.47 92.3574 1012.02 91.9841 1013.76 91.9841C1015.45 91.9841 1016.95 92.3468 1018.28 93.0721C1019.62 93.7974 1020.66 94.8321 1021.38 96.1761C1022.13 97.4988 1022.5 99.0241 1022.5 100.752ZM1017.86 99.4721C1017.84 98.3201 1017.42 97.4028 1016.61 96.7201C1015.8 96.0161 1014.81 95.6641 1013.64 95.6641C1012.53 95.6641 1011.59 96.0054 1010.82 96.6881C1010.07 97.3494 1009.62 98.2774 1009.44 99.4721H1017.86Z"
  ></path>
  <path
    style="fill: var(--color-illustrationHighlight010)"
    d="M919.056 378.136C919.056 376.301 919.429 374.701 920.176 373.336C920.923 371.949 921.957 370.883 923.28 370.136C924.603 369.368 926.117 368.984 927.824 368.984C930.021 368.984 931.835 369.539 933.264 370.648C934.715 371.736 935.685 373.272 936.176 375.256H931.344C931.088 374.488 930.651 373.891 930.032 373.464C929.435 373.016 928.688 372.792 927.792 372.792C926.512 372.792 925.499 373.261 924.752 374.2C924.005 375.117 923.632 376.429 923.632 378.136C923.632 379.821 924.005 381.133 924.752 382.072C925.499 382.989 926.512 383.448 927.792 383.448C929.605 383.448 930.789 382.637 931.344 381.016H936.176C935.685 382.936 934.715 384.461 933.264 385.592C931.813 386.723 930 387.288 927.824 387.288C926.117 387.288 924.603 386.915 923.28 386.168C921.957 385.4 920.923 384.333 920.176 382.968C919.429 381.581 919.056 379.971 919.056 378.136Z"
  ></path>
  <path
    style="fill: var(--color-illustrationHighlight010)"
    d="M947.33 387.288C945.623 387.288 944.087 386.915 942.722 386.168C941.357 385.4 940.279 384.323 939.49 382.936C938.722 381.549 938.338 379.949 938.338 378.136C938.338 376.323 938.733 374.723 939.522 373.336C940.333 371.949 941.431 370.883 942.818 370.136C944.205 369.368 945.751 368.984 947.458 368.984C949.165 368.984 950.711 369.368 952.098 370.136C953.485 370.883 954.573 371.949 955.362 373.336C956.173 374.723 956.578 376.323 956.578 378.136C956.578 379.949 956.162 381.549 955.33 382.936C954.519 384.323 953.41 385.4 952.002 386.168C950.615 386.915 949.058 387.288 947.33 387.288ZM947.33 383.384C948.141 383.384 948.898 383.192 949.602 382.808C950.327 382.403 950.903 381.805 951.33 381.016C951.757 380.227 951.97 379.267 951.97 378.136C951.97 376.451 951.522 375.16 950.626 374.264C949.751 373.347 948.674 372.888 947.394 372.888C946.114 372.888 945.037 373.347 944.162 374.264C943.309 375.16 942.882 376.451 942.882 378.136C942.882 379.821 943.298 381.123 944.13 382.04C944.983 382.936 946.05 383.384 947.33 383.384Z"
  ></path>
  <path
    style="fill: var(--color-illustrationHighlight010)"
    d="M969.688 369.016C971.8 369.016 973.507 369.688 974.808 371.032C976.11 372.355 976.76 374.211 976.76 376.6V387H972.28V377.208C972.28 375.8 971.928 374.723 971.224 373.976C970.52 373.208 969.56 372.824 968.344 372.824C967.107 372.824 966.126 373.208 965.4 373.976C964.696 374.723 964.344 375.8 964.344 377.208V387H959.864V369.272H964.344V371.48C964.942 370.712 965.699 370.115 966.616 369.688C967.555 369.24 968.579 369.016 969.688 369.016Z"
  ></path>
  <path
    style="fill: var(--color-illustrationHighlight010)"
    d="M986.237 372.952V381.528C986.237 382.125 986.375 382.563 986.653 382.84C986.951 383.096 987.442 383.224 988.125 383.224H990.205V387H987.389C983.613 387 981.725 385.165 981.725 381.496V372.952H979.613V369.272H981.725V364.888H986.237V369.272H990.205V372.952H986.237Z"
  ></path>
  <path
    style="fill: var(--color-illustrationHighlight010)"
    d="M1009.91 377.752C1009.91 378.392 1009.86 378.968 1009.78 379.48H996.819C996.925 380.76 997.373 381.763 998.163 382.488C998.952 383.213 999.923 383.576 1001.07 383.576C1002.74 383.576 1003.92 382.861 1004.63 381.432H1009.46C1008.95 383.139 1007.97 384.547 1006.51 385.656C1005.06 386.744 1003.28 387.288 1001.17 387.288C999.464 387.288 997.928 386.915 996.563 386.168C995.219 385.4 994.163 384.323 993.395 382.936C992.648 381.549 992.275 379.949 992.275 378.136C992.275 376.301 992.648 374.691 993.395 373.304C994.141 371.917 995.187 370.851 996.531 370.104C997.875 369.357 999.421 368.984 1001.17 368.984C1002.86 368.984 1004.36 369.347 1005.68 370.072C1007.03 370.797 1008.06 371.832 1008.79 373.176C1009.53 374.499 1009.91 376.024 1009.91 377.752ZM1005.27 376.472C1005.25 375.32 1004.83 374.403 1004.02 373.72C1003.21 373.016 1002.22 372.664 1001.04 372.664C999.933 372.664 998.995 373.005 998.227 373.688C997.48 374.349 997.021 375.277 996.851 376.472H1005.27Z"
  ></path>
  <path
    style="fill: var(--color-illustrationHighlight010)"
    d="M1023 369.016C1025.11 369.016 1026.82 369.688 1028.12 371.032C1029.42 372.355 1030.07 374.211 1030.07 376.6V387H1025.59V377.208C1025.59 375.8 1025.24 374.723 1024.54 373.976C1023.83 373.208 1022.87 372.824 1021.66 372.824C1020.42 372.824 1019.44 373.208 1018.71 373.976C1018.01 374.723 1017.66 375.8 1017.66 377.208V387H1013.18V369.272H1017.66V371.48C1018.25 370.712 1019.01 370.115 1019.93 369.688C1020.87 369.24 1021.89 369.016 1023 369.016Z"
  ></path>
  <path
    style="fill: var(--color-illustrationHighlight010)"
    d="M1039.55 372.952V381.528C1039.55 382.125 1039.69 382.563 1039.97 382.84C1040.26 383.096 1040.75 383.224 1041.44 383.224H1043.52V387H1040.7C1036.93 387 1035.04 385.165 1035.04 381.496V372.952H1032.93V369.272H1035.04V364.888H1039.55V369.272H1043.52V372.952H1039.55Z"
  ></path>
  <path
    style="fill: var(--color-illustrationHighlight010)"
    d="M919.056 630.072C919.056 628.28 919.408 626.691 920.112 625.304C920.837 623.917 921.808 622.851 923.024 622.104C924.261 621.357 925.637 620.984 927.152 620.984C928.475 620.984 929.627 621.251 930.608 621.784C931.611 622.317 932.411 622.989 933.008 623.8V621.272H937.52V639H933.008V636.408C932.432 637.24 931.632 637.933 930.608 638.488C929.605 639.021 928.443 639.288 927.12 639.288C925.627 639.288 924.261 638.904 923.024 638.136C921.808 637.368 920.837 636.291 920.112 634.904C919.408 633.496 919.056 631.885 919.056 630.072ZM933.008 630.136C933.008 629.048 932.795 628.12 932.368 627.352C931.941 626.563 931.365 625.965 930.64 625.56C929.915 625.133 929.136 624.92 928.304 624.92C927.472 624.92 926.704 625.123 926 625.528C925.296 625.933 924.72 626.531 924.272 627.32C923.845 628.088 923.632 629.005 923.632 630.072C923.632 631.139 923.845 632.077 924.272 632.888C924.72 633.677 925.296 634.285 926 634.712C926.725 635.139 927.493 635.352 928.304 635.352C929.136 635.352 929.915 635.149 930.64 634.744C931.365 634.317 931.941 633.72 932.368 632.952C932.795 632.163 933.008 631.224 933.008 630.136Z"
  ></path>
  <path
    style="fill: var(--color-illustrationHighlight010)"
    d="M940.744 630.136C940.744 628.301 941.117 626.701 941.864 625.336C942.61 623.949 943.645 622.883 944.968 622.136C946.29 621.368 947.805 620.984 949.512 620.984C951.709 620.984 953.522 621.539 954.952 622.648C956.402 623.736 957.373 625.272 957.864 627.256H953.032C952.776 626.488 952.338 625.891 951.72 625.464C951.122 625.016 950.376 624.792 949.48 624.792C948.2 624.792 947.186 625.261 946.44 626.2C945.693 627.117 945.32 628.429 945.32 630.136C945.32 631.821 945.693 633.133 946.44 634.072C947.186 634.989 948.2 635.448 949.48 635.448C951.293 635.448 952.477 634.637 953.032 633.016H957.864C957.373 634.936 956.402 636.461 954.952 637.592C953.501 638.723 951.688 639.288 949.512 639.288C947.805 639.288 946.29 638.915 944.968 638.168C943.645 637.4 942.61 636.333 941.864 634.968C941.117 633.581 940.744 631.971 940.744 630.136Z"
  ></path>
  <path
    style="fill: var(--color-illustrationHighlight010)"
    d="M966.362 624.952V633.528C966.362 634.125 966.5 634.563 966.778 634.84C967.076 635.096 967.567 635.224 968.25 635.224H970.33V639H967.514C963.738 639 961.85 637.165 961.85 633.496V624.952H959.738V621.272H961.85V616.888H966.362V621.272H970.33V624.952H966.362Z"
  ></path>
  <path
    style="fill: var(--color-illustrationHighlight010)"
    d="M975.824 619.16C975.034 619.16 974.373 618.915 973.84 618.424C973.328 617.912 973.072 617.283 973.072 616.536C973.072 615.789 973.328 615.171 973.84 614.68C974.373 614.168 975.034 613.912 975.824 613.912C976.613 613.912 977.264 614.168 977.776 614.68C978.309 615.171 978.576 615.789 978.576 616.536C978.576 617.283 978.309 617.912 977.776 618.424C977.264 618.915 976.613 619.16 975.824 619.16ZM978.032 621.272V639H973.552V621.272H978.032Z"
  ></path>
  <path
    style="fill: var(--color-illustrationHighlight010)"
    d="M990.33 639.288C988.623 639.288 987.087 638.915 985.722 638.168C984.357 637.4 983.279 636.323 982.49 634.936C981.722 633.549 981.338 631.949 981.338 630.136C981.338 628.323 981.733 626.723 982.522 625.336C983.333 623.949 984.431 622.883 985.818 622.136C987.205 621.368 988.751 620.984 990.458 620.984C992.165 620.984 993.711 621.368 995.098 622.136C996.485 622.883 997.573 623.949 998.362 625.336C999.173 626.723 999.578 628.323 999.578 630.136C999.578 631.949 999.162 633.549 998.33 634.936C997.519 636.323 996.41 637.4 995.002 638.168C993.615 638.915 992.058 639.288 990.33 639.288ZM990.33 635.384C991.141 635.384 991.898 635.192 992.602 634.808C993.327 634.403 993.903 633.805 994.33 633.016C994.757 632.227 994.97 631.267 994.97 630.136C994.97 628.451 994.522 627.16 993.626 626.264C992.751 625.347 991.674 624.888 990.394 624.888C989.114 624.888 988.037 625.347 987.162 626.264C986.309 627.16 985.882 628.451 985.882 630.136C985.882 631.821 986.298 633.123 987.13 634.04C987.983 634.936 989.05 635.384 990.33 635.384Z"
  ></path>
  <path
    style="fill: var(--color-illustrationHighlight010)"
    d="M1012.69 621.016C1014.8 621.016 1016.51 621.688 1017.81 623.032C1019.11 624.355 1019.76 626.211 1019.76 628.6V639H1015.28V629.208C1015.28 627.8 1014.93 626.723 1014.22 625.976C1013.52 625.208 1012.56 624.824 1011.34 624.824C1010.11 624.824 1009.13 625.208 1008.4 625.976C1007.7 626.723 1007.34 627.8 1007.34 629.208V639H1002.86V621.272H1007.34V623.48C1007.94 622.712 1008.7 622.115 1009.62 621.688C1010.55 621.24 1011.58 621.016 1012.69 621.016Z"
  ></path>
  <defs>
    <filter
      id="nk-1215"
      x="436.1"
      y="52.0502"
      width="473.223"
      height="673.799"
      filterUnits="userSpaceOnUse"
      color-interpolation-filters="sRGB"
    >
      <feFlood flood-opacity="0" result="BackgroundImageFix"></feFlood>
      <feColorMatrix
        in="SourceAlpha"
        type="matrix"
        values="0 0 0 0 0 0 0 0 0 0 0 0 0 0 0 0 0 0 127 0"
        result="hardAlpha"
      ></feColorMatrix>
      <feOffset dy="8.94985"></feOffset>
      <feGaussianBlur stdDeviation="8.94985"></feGaussianBlur>
      <feColorMatrix
        type="matrix"
        values="0 0 0 0 0.0392157 0 0 0 0 0.0392157 0 0 0 0 0.0392157 0 0 0 0.08 0"
      ></feColorMatrix>
      <feBlend
        mode="normal"
        in2="BackgroundImageFix"
        result="effect1_dropShadow_2001_73159"
      ></feBlend>
      <feBlend
        mode="normal"
        in="SourceGraphic"
        in2="effect1_dropShadow_2001_73159"
        result="shape"
      ></feBlend>
    </filter>
  </defs>
</svg>
