<svg width="1344" height="759" viewBox="0 0 1344 759" xmlns="http://www.w3.org/2000/svg">
  <g clip-path="url(#Number=05__clip0)">
    <path d="M0 0h1344v759H0V0z" fill="#213A82"/>
    <path fill-rule="evenodd" clip-rule="evenodd" d="M776.017 463.114c204.651-174.126 194.398-322.298 194.502-325.921 3.033-105.845 8.535-251.982-102.221-343.724-110.756-91.741-344.473-73.304-349.492-72.565C419.475-264.477 370.08-111.219 284.563-25.65c-91.88 91.934-166.551 172.219-172.43 282.796-5.879 110.577 102.381 211.697 181.342 290.718 76.983 77.051 277.89 89.376 482.542-84.75z" fill="#87A4FC"/>
    <path fill-rule="evenodd" clip-rule="evenodd" d="M543.347 307.318l.031-.046c28.712-42.425 74.521-62.472 133.651-62.472 59.099 0 104.774 20.033 133.121 62.517 27.411 40.529 40.239 94.637 40.239 160.683 0 66.748-12.811 121.248-40.239 161.803-28.347 42.484-74.022 62.517-133.121 62.517-59.13 0-104.939-20.047-133.651-62.472l-.031-.047-.031-.046c-27.028-40.542-39.647-95.02-39.647-161.755 0-66.033 12.636-120.118 39.647-160.635l.031-.047zM796.869 620.88c25.013-36.96 37.52-87.92 37.52-152.88 0-64.213-12.507-114.8-37.52-151.76-24.64-36.96-64.587-55.44-119.84-55.44-55.254 0-95.387 18.48-120.4 55.44-24.64 36.96-36.96 87.547-36.96 151.76 0 64.96 12.32 115.92 36.96 152.88 25.013 36.96 65.146 55.44 120.4 55.44 55.253 0 95.2-18.48 119.84-55.44zm-83.717-233.69l-.019-.048c-2.97-7.424-7.144-12.22-12.32-15.349-5.357-3.237-12.97-5.393-23.784-5.393-10.814 0-18.428 2.156-23.784 5.393-5.177 3.129-9.351 7.925-12.321 15.349l-.019.048-.019.047c-7.06 17.329-11.137 43.834-11.137 80.763 0 24.839 1.467 44.907 4.228 60.45 2.561 14.065 7.464 24.639 14.111 32.492 5.468 5.776 14.227 9.778 28.941 9.778 14.933 0 23.351-4.113 28.361-9.75l.012-.013.012-.013c7.018-7.861 12.104-18.423 14.667-32.494 2.76-15.542 4.228-35.611 4.228-60.45 0-36.929-4.078-63.434-11.138-80.763l-.019-.047zm22.677 144.09c-2.987 16.427-9.147 29.867-18.48 40.32-8.96 10.08-22.4 15.12-40.32 15.12s-31.547-5.04-40.88-15.12c-8.96-10.453-14.934-23.893-17.92-40.32-2.987-16.8-4.48-37.893-4.48-63.28 0-37.707 4.106-66.64 12.32-86.8 8.213-20.533 25.2-30.8 50.96-30.8s42.746 10.267 50.96 30.8c8.213 20.16 12.32 49.093 12.32 86.8 0 25.387-1.494 46.48-4.48 63.28zm452.991-162.64H1014.1v30.362a130.39 130.39 0 019.56-4.154c15.45-6.006 31.99-8.928 49.48-8.928 30.39 0 56.92 6.901 78.5 21.853 21.09 14.357 36.73 33.151 46.54 56.197 9.49 22.285 14.16 46.275 14.16 71.79 0 46.82-13.3 85.842-41.4 115.22l-.04.042-.04.042c-28.4 29.267-67.73 42.936-115.64 42.936-31.64 0-59.953-5.339-84.497-16.571l-.101-.046-.101-.048c-24.372-11.567-43.756-27.787-57.496-48.826-13.652-20.905-20.946-44.815-22.186-71.28l-.785-16.749h123.486l2.51 12.96c1.58 8.176 5.25 14.748 11.17 20.207 4.87 4.169 12.46 7.153 24.64 7.153 13.91 0 21.68-4.239 26.5-10.535 5.85-7.623 9.58-18.784 9.58-35.065 0-15.83-3.86-25.371-9.2-31.148-5.08-5.513-13.32-9.412-27.44-9.412-9.96 0-16.74 2.447-21.58 6.181l-.18.142-.19.137c-5.13 3.733-8.45 8.565-10.16 15.155l-3.11 11.985H895.301v-275.6h293.519v116zM1016.58 585.6c-8.59-7.84-14-17.547-16.24-29.12h-93.519c.257 5.481.799 10.814 1.625 16 2.777 17.423 8.769 33.183 17.975 47.28 11.947 18.293 28.934 32.667 50.96 43.12 22.027 10.08 47.969 15.12 77.839 15.12 44.8 0 79.52-12.693 104.16-38.08 24.64-25.76 36.96-60.48 36.96-104.16 0-23.52-4.29-45.36-12.88-65.52-8.59-20.16-22.21-36.587-40.88-49.28-18.29-12.693-41.44-19.04-69.44-19.04-15.68 0-30.24 2.613-43.68 7.84-5.65 2.196-10.77 4.656-15.36 7.379-6.34 3.759-11.67 8.019-15.999 12.781v-77.28h174.719v-84H911.301v243.6h92.399c2.61-10.08 8.03-18.107 16.24-24.08 8.21-6.347 18.67-9.52 31.36-9.52 17.17 0 30.24 4.853 39.2 14.56 8.96 9.707 13.44 23.707 13.44 42 0 18.667-4.29 33.6-12.88 44.8-8.59 11.2-21.65 16.8-39.2 16.8-14.93 0-26.69-3.733-35.28-11.2z" fill="#fff"/>
    <path fill-rule="evenodd" clip-rule="evenodd" d="M-501.803-129.368c-.201.372-.333.615-.4.724l-1.57 2.548C-569.27-19.82-656.043 120.98-599.33 273.766c28.477 76.721 103.496 144.707 173.414 194.216 34.773 24.624 67.919 44.425 92.717 58.205 12.394 6.888 22.687 12.263 30.036 15.976a502.367 502.367 0 008.693 4.296c1.043.501 1.865.888 2.456 1.161.521.241.761.346.811.369.014.006.012.006-.004-.001 51.234 20.314 110.67 1.158 176.736-29.8 18.065-8.466 35.963-17.471 54.138-26.616 15.273-7.684 30.742-15.468 46.671-23.112 34.28-16.451 69.282-31.528 104.289-40.919 147.861-39.667 267.664-76.91 336.612-182.905 33.935-52.17 39.156-118.733 31.183-189.067-7.104-62.664-24.514-127.12-40.265-185.434-1.918-7.101-3.812-14.111-5.659-21.016-15.707-58.723-71.001-120.64-161.698-160.928-90.483-40.192-215.621-58.515-369.379-30.316-153.897 28.225-249.34 81.087-306.427 126.923-53.575 43.017-73.653 80.038-76.797 85.834zm-6.809-4.198c6.6-12.145 87.614-161.229 388.59-216.428 310.223-56.894 507.214 73.543 540.248 197.046a9195.032 9195.032 0 005.655 20.999c33.388 123.587 75.082 277.918 8.064 380.947C363.073 357.95 240.052 395.738 92.7 435.268c-49.877 13.38-100.152 38.665-149.208 63.336-85.834 43.169-167.937 84.46-237.647 56.821-5.535-2.195-253.932-120.617-312.675-278.875-58.081-156.471 30.572-300.297 95.599-405.793l2.217-3.598c.067-.108.199-.352.402-.725z" fill="#AEBFFF"/>
  </g>
  <defs>
    <clipPath id="Number=05__clip0">
      <path d="M0 0h1344v759H0V0z" fill="#fff"/>
    </clipPath>
  </defs>
</svg>
