<?xml version="1.0" encoding="UTF-8"?>
<svg width="1273px" height="322px" viewBox="0 0 1273 322" version="1.1" xmlns="http://www.w3.org/2000/svg" xmlns:xlink="http://www.w3.org/1999/xlink">
    <title>Group 4</title>
    <defs>
        <rect id="path-1" x="0.871868717" y="0.957856717" width="1271.00079" height="320"></rect>
        <ellipse id="path-3" cx="72.9426551" cy="72.7725857" rx="62.9505106" ry="62.8037383"></ellipse>
        <ellipse id="path-5" cx="275.783189" cy="72.7725857" rx="62.9505106" ry="62.8037383"></ellipse>
    </defs>
    <g id="Page-1" stroke="none" stroke-width="1" fill="none" fill-rule="evenodd">
        <g id="Tier-2/FoundationXL" transform="translate(-367.000000, -3522.000000)">
            <g id="Group-4" transform="translate(367.127446, 3522.039150)">
                <g id="Mask-Copy-7-+-Mask-Copy-7-Mask">
                    <mask id="mask-2" fill="white">
                        <use xlink:href="#path-1"></use>
                    </mask>
                    <use id="Mask" fill="#577FFB" xlink:href="#path-1"></use>
                    <path d="M1110.71861,408.798946 C1332.05345,429.328517 1460.14238,315.088216 1507.19166,224.124436 C1554.24094,133.160657 1560.59328,-30.7274953 1422.61785,-144.954862 C1284.64242,-259.182228 1280.99414,-274.379269 1179.2421,-246.786068 C1077.49007,-219.192868 1006.79619,-331.956115 864.46007,-288.644953 C722.123954,-245.333791 777.593636,-38.3181169 808.656212,76.9905762 C839.718788,192.299269 889.383761,388.269375 1110.71861,408.798946 Z" id="Mask-Copy-7" fill="#87A4FC" mask="url(#mask-2)" transform="translate(1154.528762, 56.275536) rotate(-75.000000) translate(-1154.528762, -56.275536) "></path>
                    <g id="Group-6" mask="url(#mask-2)">
                        <g transform="translate(231.690408, 233.232000)">
                            <ellipse id="Oval-Copy-6" fill="#87A4FC" transform="translate(24.416802, 36.872847) rotate(155.000000) translate(-24.416802, -36.872847) " cx="24.4168019" cy="36.8728472" rx="17.9783777" ry="17.9514224"></ellipse>
                            <ellipse id="Oval-Copy-7" fill="#AEBFFF" transform="translate(80.563744, 10.752142) rotate(155.000000) translate(-80.563744, -10.752142) " cx="80.5637441" cy="10.7521421" rx="7.99039007" ry="7.97840996"></ellipse>
                        </g>
                    </g>
                    <path d="M1364.16585,226.41091 C1554.64466,243.706601 1665.06377,145.444075 1705.69525,67.2841178 C1746.32672,-10.8758398 1752.03726,-151.579169 1633.44716,-249.435782 C1514.85706,-347.292396 1465.9519,-286.561921 1375.5652,-286.483905 C1283.12425,-286.404116 1288.72787,-417.405247 1158.82942,-393.192872 C1028.93097,-368.980498 1049.18649,-123.045103 1075.75204,-24.1015516 C1102.31759,74.8420004 1173.68705,209.115218 1364.16585,226.41091 Z" id="Mask-Copy-7" fill="#AEBFFF" mask="url(#mask-2)" transform="translate(1394.039900, -83.882643) rotate(-141.000000) translate(-1394.039900, 83.882643) "></path>
                    <g id="Group-10" mask="url(#mask-2)">
                        <g transform="translate(842.210439, 61.318020)">
                            <path d="M10.991359,9.89302334 L55.128485,3.08246775 C68.1388975,1.07490303 81.452236,3.06512542 93.3067539,8.7897699 L125.901021,24.5298105 L125.901021,24.5298105" id="Path-2" stroke="#052E4D" stroke-width="5" stroke-linecap="round"></path>
                            <g id="Group-5" stroke="none" stroke-width="1" fill-rule="evenodd" transform="translate(0.000000, 34.343887)">
                                <polygon id="Rectangle" fill="#3358CC" points="145.88531 53.7210107 175.213 46.8535826 202.840534 53.7210107 202.840534 77.7570093 145.88531 77.7570093"></polygon>
                                <ellipse id="Oval-Copy-3" fill="#3358CC" cx="276.782404" cy="148.535826" rx="57.9544383" ry="2.99065421"></ellipse>
                                <ellipse id="Oval-Copy-4" fill="#3358CC" cx="72.9426551" cy="148.535826" rx="57.9544383" ry="2.99065421"></ellipse>
                                <path d="M161.671271,7.97507788 L167.868028,47.0709268 L143.064,53.8317757 C137.260507,34.3464478 125.877299,19.3536903 108.914375,8.85350345 C131.680792,13.3425845 149.266423,13.049776 161.671271,7.97507788 Z" id="Path" fill="#577FFB"></path>
                                <ellipse id="Oval" stroke="#052E4D" stroke-width="4" fill="#577FFB" cx="73.4422624" cy="72.7725857" rx="73.4422624" ry="72.7725857"></ellipse>
                                <path d="M100.92066,4.98442368 C116.89228,8.97196262 128.882853,10.9657321 136.89238,10.9657321 C144.901907,10.9657321 156.892481,8.97196262 172.864101,4.98442368" id="Path-38" stroke="#052E4D" stroke-width="4"></path>
                                <line x1="180.085506" y1="45.8566978" x2="145.424314" y2="53.8317757" id="Path-39" stroke="#052E4D" stroke-width="4"></line>
                                <path d="M233.614711,7.97507788 L239.811469,47.0709268 L215.00744,53.8317757 C209.203948,34.3464478 197.82074,19.3536903 180.857816,8.85350345 C203.624232,13.3425845 221.209864,13.049776 233.614711,7.97507788 Z" id="Path" fill="#577FFB" transform="translate(210.334643, 30.903427) scale(-1, 1) translate(-210.334643, -30.903427) "></path>
                                <ellipse id="Oval" stroke="#052E4D" stroke-width="4" fill="#577FFB" transform="translate(276.282797, 72.772586) scale(-1, 1) translate(-276.282797, -72.772586) " cx="276.282797" cy="72.7725857" rx="73.4422624" ry="72.7725857"></ellipse>
                                <path d="M176.860958,4.98442368 C192.832578,8.97196262 204.823152,10.9657321 212.832679,10.9657321 C220.842206,10.9657321 232.832779,8.97196262 248.804399,4.98442368" id="Path-38" stroke="#052E4D" stroke-width="4" transform="translate(212.832679, 7.975078) scale(-1, 1) translate(-212.832679, -7.975078) "></path>
                                <line x1="204.066653" y1="45.8566978" x2="169.405461" y2="53.8317757" id="Path-39" stroke="#052E4D" stroke-width="4" transform="translate(186.853103, 49.844237) scale(-1, 1) translate(-186.853103, -49.844237) "></line>
                                <path d="M195.846033,46.8535826 C177.911472,36.9219484 175.066036,24.6270366 187.309728,9.96884735" id="Path-3" stroke="#979797" fill="#577FFB" transform="translate(187.852317, 28.411215) scale(-1, 1) translate(-187.852317, -28.411215) "></path>
                                <ellipse id="Oval" stroke="#052E4D" stroke-width="4" fill="#E0E7FF" cx="174.862529" cy="25.9190031" rx="20.9835035" ry="20.9345794"></ellipse>
                                <path d="M146.884525,76.7601246 C162.545144,76.7601246 180.864076,76.7601246 201.84132,76.7601246" id="Path-40" stroke="#052E4D" stroke-width="4"></path>
                                <mask id="mask-4" fill="white">
                                    <use xlink:href="#path-3"></use>
                                </mask>
                                <ellipse stroke="#052E4D" stroke-width="4" cx="72.9426551" cy="72.7725857" rx="64.9505106" ry="64.8037383"></ellipse>
                                <path d="M113.249065,11.9626168 L122.903378,21.6114675 L76.966718,67.5216168 L95.5968564,67.6651496 L31.6370312,131.588785 L21.982718,121.939934 L67.918718,76.0296168 L49.2892394,75.8862523 L113.249065,11.9626168 Z" id="Combined-Shape" fill="#FFFFFF" mask="url(#mask-4)"></path>
                                <mask id="mask-6" fill="white">
                                    <use xlink:href="#path-5"></use>
                                </mask>
                                <ellipse stroke="#052E4D" stroke-width="4" cx="275.783189" cy="72.7725857" rx="64.9505106" ry="64.8037383"></ellipse>
                                <path d="M315.090384,11.9626168 L324.744698,21.6114675 L278.808038,67.5216168 L297.438176,67.6651496 L233.478351,131.588785 L223.824038,121.939934 L269.760038,76.0296168 L251.130559,75.8862523 L315.090384,11.9626168 Z" id="Combined-Shape" fill="#FFFFFF" mask="url(#mask-6)"></path>
                            </g>
                            <path d="M223.852716,22.1005314 L263.341499,17.8378716 C281.860592,15.8388078 300.569945,19.0518176 317.361054,27.1148016 L339.762465,37.8718165 L339.762465,37.8718165" id="Path-4" stroke="#052E4D" stroke-width="5" stroke-linecap="round" transform="translate(281.807591, 26.325703) rotate(-6.000000) translate(-281.807591, -26.325703) "></path>
                        </g>
                    </g>
                </g>
                <ellipse id="Oval-Copy-7" fill="#577FFB" transform="translate(1200.555801, 274.887569) rotate(155.000000) translate(-1200.555801, -274.887569) " cx="1200.5558" cy="274.887569" rx="7.99039007" ry="7.97840996"></ellipse>
                <ellipse id="Oval-Copy-7" fill="#577FFB" transform="translate(1239.525165, 285.853301) rotate(155.000000) translate(-1239.525165, -285.853301) " cx="1239.52517" cy="285.853301" rx="15.9807801" ry="15.9568199"></ellipse>
                <ellipse id="Oval-Copy-3" fill="#87A4FC" opacity="0.5" cx="760.274854" cy="37.8425919" rx="17.9858602" ry="17.9439252"></ellipse>
                <ellipse id="Oval-Copy-4" fill="#87A4FC" cx="776.262285" cy="100.64633" rx="24.9803614" ry="24.9221184"></ellipse>
                <ellipse id="Oval-Copy-5" fill="#AEBFFF" opacity="0.5" cx="701.321201" cy="23.8862056" rx="7.99371563" ry="7.97507788"></ellipse>
            </g>
        </g>
    </g>
</svg>