<svg width="373" height="306" viewBox="0 0 373 306" fill="none" xmlns="http://www.w3.org/2000/svg">
<g clip-path="url(#clip0_2955_115373)">
<rect width="372.5" height="306" fill="var(--color-interactivePrimary010)"/>
<path d="M262.427 220.946C305.939 220.946 341.213 185.766 341.213 142.37C341.213 98.9739 305.939 63.7944 262.427 63.7944C218.914 63.7944 183.64 98.9739 183.64 142.37C183.64 185.766 218.914 220.946 262.427 220.946Z" fill="#2B4AAB"/>
<path d="M262.427 220.946C305.939 220.946 341.213 185.766 341.213 142.37C341.213 98.9739 305.939 63.7944 262.427 63.7944C218.914 63.7944 183.64 98.9739 183.64 142.37C183.64 185.766 218.914 220.946 262.427 220.946Z" fill="#254CAC"/>
<path fill-rule="evenodd" clip-rule="evenodd" d="M184.127 134.808C180.318 176.634 200.087 191.864 200.526 192.275C213.355 204.298 229.5 222 268 220.5C293.268 218.4 328.933 180.614 311.118 150.382C295.02 123.063 305.235 99.9527 292.171 87.0933C279.106 74.2338 264.577 66.5145 241 71C217.424 75.4855 187.936 92.9826 184.127 134.808Z" fill="#3358CC"/>
<path fill-rule="evenodd" clip-rule="evenodd" d="M188.697 174.038C177.805 144.533 189.218 129.678 189.457 129.295C196.449 118.108 205.954 102.589 224.731 99.1967C243.507 95.8043 268.443 110.718 268.955 111.074C279.083 118.119 274.007 136.819 277.671 150.482C281.608 165.161 284.422 177.67 277.422 189.508C270.422 201.346 251.276 205.853 236.946 209.689C222.975 213.43 199.588 203.543 188.697 174.038Z" fill="#577FFB"/>
<path fill-rule="evenodd" clip-rule="evenodd" d="M186.752 168.69C180.501 151.758 187.051 143.233 187.188 143.013C191.2 136.593 196.655 127.688 207.43 125.741C218.205 123.794 232.515 132.353 232.809 132.557C238.621 136.6 235.708 147.331 237.811 155.172C240.07 163.595 241.685 170.774 237.668 177.567C233.651 184.361 222.663 186.947 214.44 189.149C206.423 191.295 193.002 185.622 186.752 168.69Z" fill="#AEBFFF"/>
<path fill-rule="evenodd" clip-rule="evenodd" d="M201.089 91.5389C201.134 92.4149 200.46 93.1615 199.583 93.2064C199.062 93.2331 198.54 93.2602 198.019 93.2877C197.142 93.3339 196.394 92.6613 196.348 91.7853C196.302 90.9093 196.975 90.1618 197.851 90.1156C198.374 90.088 198.897 90.0608 199.421 90.034C200.297 89.9891 201.044 90.6629 201.089 91.5389ZM191.671 92.0493C191.723 92.9249 191.056 93.6773 190.18 93.7299C189.657 93.7613 189.134 93.7931 188.612 93.8252C187.736 93.879 186.983 93.2129 186.929 92.3374C186.875 91.4619 187.541 90.7085 188.417 90.6547C188.941 90.6225 189.465 90.5906 189.99 90.5591C190.865 90.5065 191.618 91.1737 191.671 92.0493ZM182.259 92.6409C182.319 93.516 181.658 94.274 180.782 94.3339C180.26 94.3696 179.739 94.4057 179.218 94.442C178.343 94.5031 177.583 93.8432 177.522 92.9682C177.461 92.0931 178.121 91.3343 178.997 91.2732C179.519 91.2368 180.042 91.2006 180.565 91.1648C181.441 91.1049 182.199 91.7658 182.259 92.6409ZM172.848 93.31C172.915 94.1846 172.26 94.9478 171.385 95.0146C170.863 95.0545 170.341 95.0947 169.82 95.1352C168.945 95.2032 168.181 94.5493 168.113 93.6748C168.045 92.8002 168.699 92.0362 169.574 91.9682C170.096 91.9276 170.619 91.8874 171.143 91.8473C172.018 91.7805 172.781 92.4353 172.848 93.31ZM163.454 94.0516C163.528 94.9257 162.878 95.6938 162.004 95.7673C161.479 95.8114 160.955 95.8558 160.432 95.9004C159.558 95.9749 158.788 95.3269 158.714 94.4529C158.639 93.5789 159.288 92.8099 160.162 92.7353C160.686 92.6906 161.211 92.6462 161.738 92.602C162.612 92.5285 163.381 93.1775 163.454 94.0516ZM154.049 94.8651C154.128 95.7386 153.485 96.5115 152.611 96.5913C152.091 96.6389 151.572 96.6866 151.054 96.7345C150.18 96.8154 149.406 96.173 149.326 95.2995C149.245 94.4261 149.887 93.6525 150.761 93.5716C151.28 93.5235 151.8 93.4756 152.322 93.428C153.196 93.3481 153.969 93.9915 154.049 94.8651ZM144.658 95.7456C144.744 96.6186 144.106 97.396 143.233 97.482C142.71 97.5335 142.189 97.5851 141.669 97.637C140.796 97.724 140.018 97.087 139.931 96.2141C139.843 95.3413 140.481 94.5632 141.354 94.4761C141.875 94.4242 142.397 94.3724 142.921 94.3208C143.794 94.2348 144.572 94.8727 144.658 95.7456ZM135.283 96.691C135.375 97.5633 134.742 98.3451 133.87 98.4371C133.344 98.4925 132.82 98.5481 132.298 98.6038C131.426 98.6968 130.643 98.0652 130.55 97.1929C130.457 96.3207 131.089 95.5382 131.961 95.4452C132.484 95.3894 133.009 95.3337 133.536 95.2781C134.409 95.1861 135.191 95.8186 135.283 96.691ZM125.901 97.7019C125.999 98.5736 125.372 99.3596 124.5 99.4576C124.242 99.4865 123.985 99.5155 123.728 99.5445C122.856 99.6429 122.069 99.0161 121.971 98.1445C121.872 97.2729 122.499 96.4865 123.371 96.3881C123.629 96.359 123.887 96.3299 124.145 96.3009C125.017 96.2029 125.803 96.8302 125.901 97.7019Z" fill="#C0C7CC"/>
<path fill-rule="evenodd" clip-rule="evenodd" d="M314.285 96.4459C314.426 95.58 315.242 94.9919 316.108 95.1322C322.372 96.147 327.44 97.0746 331.302 97.9152C343.677 100.567 352.514 106.786 357.421 115.069C362.325 123.346 363.192 133.496 359.989 143.787C353.59 164.351 331.005 185.5 291.436 194.778C245.914 205.452 185.154 206.99 132.885 205.489C80.587 203.987 36.6336 199.437 24.6456 197.871C23.7754 197.757 23.1623 196.96 23.276 196.09C23.3897 195.22 24.1873 194.607 25.0574 194.721C36.9411 196.273 80.7875 200.815 132.977 202.314C185.196 203.813 245.611 202.26 290.71 191.686C329.589 182.57 350.997 161.987 356.955 142.844C359.931 133.281 359.068 124.082 354.687 116.687C350.308 109.297 342.304 103.521 330.635 101.021L330.63 101.02C326.846 100.196 321.84 99.2787 315.6 98.2678C314.733 98.1275 314.145 97.3118 314.285 96.4459Z" fill="#C0C7CC"/>
<path fill-rule="evenodd" clip-rule="evenodd" d="M341.213 142.37C341.213 115.702 327.892 92.1363 307.524 77.9315C294.748 69.0215 265.9 64.2751 289.331 79.0782C299.66 85.6035 307.998 94.9117 307.998 108.188C307.998 142.565 313.226 134.895 323.621 163.805C334.406 158.535 341.213 151.39 341.213 142.37Z" fill="#254CAC"/>
<path fill-rule="evenodd" clip-rule="evenodd" d="M117.302 89.4068C118.062 89.8451 118.323 90.8164 117.885 91.5762L112.713 100.538L121.67 105.712C122.43 106.151 122.69 107.122 122.251 107.882C121.812 108.641 120.84 108.901 120.08 108.462L109.748 102.494C108.989 102.056 108.729 101.085 109.167 100.325L115.132 89.989C115.571 89.2291 116.542 88.9685 117.302 89.4068Z" fill="#C0C7CC"/>
<path d="M17.8948 210.406C8.01181 210.406 5.466e-05 202.39 5.466e-05 192.503C5.466e-05 182.615 8.01181 174.599 17.8948 174.599C27.7778 174.599 35.7896 182.615 35.7896 192.503C35.7896 202.39 27.7778 210.406 17.8948 210.406Z" fill="#8BA6F6"/>
<path d="M9.53322 202.456C4.26817 202.456 0 198.101 0 192.728C0 187.355 4.26817 183 9.53322 183C14.7983 183 19.0664 187.355 19.0664 192.728C19.0664 198.101 14.7983 202.456 9.53322 202.456Z" fill="#AEBFFF"/>
<path fill-rule="evenodd" clip-rule="evenodd" d="M18.4653 174.66C17.017 174.66 17 174.5 14.2327 175C24.2286 176.629 27.5349 183.256 27.5349 192C27.5349 200.744 20.9959 207.371 11 209C14 210.5 17.017 210.5 18.4653 210.5C30.4871 210.5 36 201.941 36 192C36 182.059 26.5 174.5 18.4653 174.66Z" fill="#577FFB"/>
</g>
<defs>
<clipPath id="clip0_2955_115373">
<rect width="372.5" height="306" fill="white"/>
</clipPath>
</defs>
</svg>
