<svg width="1344" height="759" viewBox="0 0 1344 759" fill="none" xmlns="http://www.w3.org/2000/svg">
<g clip-path="url(#clip0)">
<path d="M0 0H1344V759H0V0Z" fill="#3358CC"/>
<path fill-rule="evenodd" clip-rule="evenodd" d="M776.017 463.114C980.668 288.988 970.415 140.816 970.519 137.193C973.552 31.3483 979.054 -114.789 868.298 -206.531C757.542 -298.272 523.825 -279.835 518.806 -279.096C419.475 -264.477 370.08 -111.219 284.563 -25.6503C192.683 66.2845 118.012 146.569 112.133 257.146C106.254 367.723 214.514 468.843 293.475 547.865C370.458 624.915 571.365 637.24 776.017 463.114Z" fill="#87A4FC"/>
<path d="M556.629 316.24L543.378 307.272L543.347 307.318L543.316 307.365L556.629 316.24ZM796.869 316.24L783.556 325.115L783.587 325.162L783.618 325.208L796.869 316.24ZM796.869 620.88L783.618 611.912L783.587 611.958L783.556 612.005L796.869 620.88ZM556.629 620.88L543.316 629.755L543.347 629.802L543.378 629.848L556.629 620.88ZM727.989 381.2L713.133 387.142L713.152 387.19L713.171 387.237L727.989 381.2ZM626.069 381.2L640.886 387.237L640.905 387.19L640.924 387.142L626.069 381.2ZM618.229 531.28L602.476 534.081L602.481 534.111L602.487 534.142L618.229 531.28ZM636.149 571.6L624.001 582.013L624.2 582.245L624.409 582.471L636.149 571.6ZM717.349 571.6L705.414 560.944L705.402 560.957L705.39 560.97L717.349 571.6ZM735.829 531.28L751.571 534.142L751.576 534.111L751.582 534.081L735.829 531.28ZM535.669 468C535.669 405.606 547.673 358.518 569.942 325.115L543.316 307.365C516.305 347.882 503.669 401.967 503.669 468H535.669ZM569.879 325.208C591.194 293.713 625.652 276.8 677.029 276.8V244.8C617.899 244.8 572.09 264.847 543.378 307.272L569.879 325.208ZM677.029 276.8C728.414 276.8 762.62 293.712 783.556 325.115L810.182 307.365C781.837 264.848 736.15 244.8 677.029 244.8V276.8ZM783.618 325.208C806.213 358.594 818.389 405.644 818.389 468H850.389C850.389 401.929 837.551 347.806 810.119 307.272L783.618 325.208ZM818.389 468C818.389 531.148 806.195 578.552 783.618 611.912L810.119 629.848C837.569 589.288 850.389 534.772 850.389 468H818.389ZM783.556 612.005C762.62 643.408 728.414 660.32 677.029 660.32V692.32C736.15 692.32 781.837 672.272 810.182 629.755L783.556 612.005ZM677.029 660.32C625.652 660.32 591.194 643.407 569.879 611.912L543.378 629.848C572.09 672.273 617.899 692.32 677.029 692.32V660.32ZM569.942 612.005C547.69 578.627 535.669 531.185 535.669 468H503.669C503.669 534.735 516.288 589.213 543.316 629.755L569.942 612.005ZM756.309 468C756.309 429.516 752.173 398.154 742.806 375.163L713.171 387.237C720.231 404.566 724.309 431.071 724.309 468H756.309ZM742.844 375.258C737.601 362.149 729.175 351.545 717.365 344.407C705.735 337.378 691.975 334.4 677.029 334.4V366.4C687.843 366.4 695.456 368.556 700.813 371.793C705.989 374.922 710.163 379.718 713.133 387.142L742.844 375.258ZM677.029 334.4C662.083 334.4 648.323 337.378 636.693 344.407C624.883 351.545 616.457 362.149 611.213 375.258L640.924 387.142C643.894 379.718 648.068 374.922 653.245 371.793C658.601 368.556 666.215 366.4 677.029 366.4V334.4ZM611.251 375.163C601.885 398.154 597.749 429.516 597.749 468H629.749C629.749 431.071 633.826 404.566 640.886 387.237L611.251 375.163ZM597.749 468C597.749 493.919 599.266 516.027 602.476 534.081L633.982 528.479C631.218 512.933 629.749 492.854 629.749 468H597.749ZM602.487 534.142C605.873 552.767 612.838 568.99 624.001 582.013L648.297 561.187C641.539 553.303 636.558 542.646 633.971 528.418L602.487 534.142ZM624.409 582.471C637.621 596.74 656.082 602.72 677.029 602.72V570.72C662.136 570.72 653.343 566.62 647.889 560.729L624.409 582.471ZM677.029 602.72C697.935 602.72 716.397 596.753 729.307 582.23L705.39 560.97C700.38 566.607 691.962 570.72 677.029 570.72V602.72ZM729.284 582.256C740.927 569.216 748.159 552.908 751.571 534.142L720.087 528.418C717.526 542.505 712.438 553.077 705.414 560.944L729.284 582.256ZM751.582 534.081C754.791 516.027 756.309 493.919 756.309 468H724.309C724.309 492.854 722.84 512.933 720.076 528.479L751.582 534.081ZM1172.82 352.64V368.64H1188.82V352.64H1172.82ZM998.101 352.64V336.64H982.101V352.64H998.101ZM998.101 429.92H982.101V471.306L1009.94 440.683L998.101 429.92ZM1029.46 409.76L1023.66 394.848L1029.46 409.76ZM1142.58 420.96L1133.46 434.105L1133.52 434.148L1133.58 434.191L1142.58 420.96ZM1183.46 470.24L1198.18 463.97L1183.46 470.24ZM1159.38 639.92L1170.86 651.064L1170.9 651.022L1170.94 650.98L1159.38 639.92ZM977.381 662.88L970.521 677.335L970.622 677.383L970.723 677.429L977.381 662.88ZM926.421 619.76L913.025 628.509L926.421 619.76ZM906.821 556.48V540.48H890.054L890.839 557.229L906.821 556.48ZM1000.34 556.48L1016.05 553.44L1013.54 540.48H1000.34V556.48ZM1016.58 585.6L1005.79 597.416L1005.94 597.547L1006.08 597.674L1016.58 585.6ZM1090.5 493.2L1102.26 482.348L1090.5 493.2ZM1019.94 488.16L1029.35 501.1L1029.54 500.963L1029.72 500.821L1019.94 488.16ZM1003.7 512.24V528.24H1016.08L1019.19 516.255L1003.7 512.24ZM911.301 512.24H895.301V528.24H911.301V512.24ZM911.301 268.64V252.64H895.301V268.64H911.301ZM1172.82 268.64H1188.82V252.64H1172.82V268.64ZM1172.82 336.64H998.101V368.64H1172.82V336.64ZM982.101 352.64V429.92H1014.1V352.64H982.101ZM1009.94 440.683C1015.32 434.765 1023.46 429.26 1035.26 424.672L1023.66 394.848C1008.58 400.713 995.816 408.648 986.262 419.157L1009.94 440.683ZM1035.26 424.672C1046.7 420.225 1059.27 417.92 1073.14 417.92V385.92C1055.65 385.92 1039.11 388.842 1023.66 394.848L1035.26 424.672ZM1073.14 417.92C1098.72 417.92 1118.46 423.699 1133.46 434.105L1151.7 407.815C1130.11 392.834 1103.56 385.92 1073.14 385.92V417.92ZM1133.58 434.191C1149.8 445.215 1161.39 459.259 1168.74 476.51L1198.18 463.97C1188.36 440.901 1172.7 422.092 1151.58 407.729L1133.58 434.191ZM1168.74 476.51C1176.42 494.545 1180.34 514.235 1180.34 535.76H1212.34C1212.34 510.245 1207.67 486.255 1198.18 463.97L1168.74 476.51ZM1180.34 535.76C1180.34 576.3 1169 606.718 1147.82 628.86L1170.94 650.98C1199.04 621.602 1212.34 582.58 1212.34 535.76H1180.34ZM1147.9 628.776C1127.03 650.282 1096.91 662 1055.22 662V694C1103.13 694 1142.46 680.331 1170.86 651.064L1147.9 628.776ZM1055.22 662C1027.13 662 1003.55 657.259 984.039 648.331L970.723 677.429C995.267 688.661 1023.58 694 1055.22 694V662ZM984.241 648.425C964.56 639.085 949.971 626.558 939.818 611.011L913.025 628.509C926.765 649.548 946.149 665.768 970.521 677.335L984.241 648.425ZM939.818 611.011C929.576 595.329 923.803 577.053 922.804 555.731L890.839 557.229C892.079 583.694 899.373 607.604 913.025 628.509L939.818 611.011ZM906.821 572.48H1000.34V540.48H906.821V572.48ZM984.633 559.52C987.517 574.421 994.628 587.221 1005.79 597.416L1027.37 573.784C1021.36 568.299 1017.65 561.685 1016.05 553.44L984.633 559.52ZM1006.08 597.674C1018.39 608.375 1034.3 612.8 1051.86 612.8V580.8C1039.56 580.8 1031.95 577.758 1027.08 573.526L1006.08 597.674ZM1051.86 612.8C1073.04 612.8 1091.41 605.839 1103.76 589.735L1078.36 570.265C1073.54 576.561 1065.77 580.8 1051.86 580.8V612.8ZM1103.76 589.735C1115.09 574.958 1119.94 556.252 1119.94 535.2H1087.94C1087.94 551.481 1084.21 562.642 1078.36 570.265L1103.76 589.735ZM1119.94 535.2C1119.94 514.443 1114.85 495.984 1102.26 482.348L1078.74 504.052C1084.08 509.829 1087.94 519.37 1087.94 535.2H1119.94ZM1102.26 482.348C1089.43 468.447 1071.53 462.64 1051.3 462.64V494.64C1065.42 494.64 1073.66 498.539 1078.74 504.052L1102.26 482.348ZM1051.3 462.64C1035.88 462.64 1021.75 466.54 1010.16 475.499L1029.72 500.821C1034.56 497.087 1041.34 494.64 1051.3 494.64V462.64ZM1010.53 475.22C999.237 483.434 991.731 494.655 988.213 508.225L1019.19 516.255C1020.9 509.665 1024.22 504.833 1029.35 501.1L1010.53 475.22ZM1003.7 496.24H911.301V528.24H1003.7V496.24ZM927.301 512.24V268.64H895.301V512.24H927.301ZM911.301 284.64H1172.82V252.64H911.301V284.64ZM1156.82 268.64V352.64H1188.82V268.64H1156.82Z" fill="white"/>
<path fill-rule="evenodd" clip-rule="evenodd" d="M-501.803 -129.368C-502.004 -128.996 -502.136 -128.753 -502.203 -128.645L-503.773 -126.096C-569.27 -19.8203 -656.043 120.979 -599.33 273.766C-570.853 350.486 -495.834 418.473 -425.916 467.982C-391.143 492.605 -357.997 512.407 -333.199 526.187C-320.805 533.074 -310.512 538.449 -303.163 542.162C-299.488 544.019 -296.555 545.457 -294.47 546.458C-293.427 546.959 -292.605 547.347 -292.014 547.62C-291.493 547.861 -291.253 547.966 -291.203 547.988C-291.189 547.995 -291.191 547.994 -291.207 547.988C-239.973 568.301 -180.537 549.146 -114.471 518.187C-96.4056 509.722 -78.5082 500.717 -60.333 491.572C-45.0603 483.887 -29.5914 476.104 -13.6616 468.459C20.6174 452.009 55.6196 436.932 90.6267 427.54C238.488 387.874 358.291 350.63 427.239 244.635C461.174 192.466 466.395 125.903 458.422 55.5686C451.318 -7.09564 433.908 -71.5505 418.157 -129.866C416.239 -136.966 414.345 -143.976 412.498 -150.881C396.791 -209.605 341.497 -271.521 250.8 -311.809C160.317 -352.002 35.1786 -370.324 -118.579 -342.125C-272.476 -313.901 -367.919 -261.039 -425.006 -215.202C-478.581 -172.185 -498.659 -135.165 -501.803 -129.368ZM-508.612 -133.566C-502.012 -145.712 -420.998 -294.795 -120.022 -349.994C190.201 -406.888 387.192 -276.451 420.226 -152.948C422.069 -146.061 423.961 -139.056 425.881 -131.95C459.269 -8.36284 500.963 145.969 433.945 248.997C363.073 357.95 240.052 395.737 92.6995 435.267C42.8226 448.648 -7.45203 473.932 -56.5077 498.604C-142.342 541.772 -224.445 583.064 -294.155 555.425C-299.69 553.23 -548.087 434.807 -606.83 276.55C-664.911 120.079 -576.258 -23.7469 -511.231 -129.244C-510.489 -130.448 -509.75 -131.647 -509.014 -132.842C-508.947 -132.949 -508.815 -133.193 -508.612 -133.566Z" fill="#AEBFFF"/>
</g>
<defs>
<clipPath id="clip0">
<path d="M0 0H1344V759H0V0Z" fill="white"/>
</clipPath>
</defs>
</svg>
