<?xml version="1.0" encoding="UTF-8"?>
<svg width="1074px" height="606px" viewBox="0 0 1074 606" version="1.1" xmlns="http://www.w3.org/2000/svg" xmlns:xlink="http://www.w3.org/1999/xlink">
    <title>Assets/Header-Image/Roadmap</title>
    <defs>
        <rect id="path-1" x="0" y="0.5" width="1074" height="605"></rect>
        <linearGradient x1="0%" y1="40.8480216%" x2="93.0255679%" y2="58.7375021%" id="linearGradient-3">
            <stop stop-color="#213A82" offset="0%"></stop>
            <stop stop-color="#4774FF" offset="100%"></stop>
        </linearGradient>
    </defs>
    <g id="Assets/Header-Image/Roadmap" stroke="none" stroke-width="1" fill="none" fill-rule="evenodd">
        <mask id="mask-2" fill="white">
            <use xlink:href="#path-1"></use>
        </mask>
        <use id="Rectangle-Copy" fill="#213A82" xlink:href="#path-1"></use>
        <g id="Group-3" mask="url(#mask-2)">
            <g transform="translate(-91.450820, 0.000000)">
                <g id="Group" stroke-width="1" fill="none" transform="translate(0.450820, 0.000000)">
                    <path d="M10.4517857,-1.13686838e-13 L10.4517857,199.6 C10.4517857,210.320692 19.0050076,219.046528 29.6689676,219.344232 L30.2321429,219.352083 L237.405071,219.352 L237.405071,90.334 L205.132143,90.334946 C188.67747,90.334946 175.297329,77.1901293 174.941071,60.8426145 L174.941071,-1.13686838e-13 L185.351786,-1.13686838e-13 L185.351786,60.1870294 C185.351786,70.9077214 193.905008,79.633557 204.568968,79.931261 L205.132143,79.9391127 L469.564286,79.9391127 C486.018958,79.9391127 499.3991,93.0839294 499.74836,109.431444 L499.755357,110.087029 L499.755071,145.175 L1032.78307,145.175 L1032.78307,80.384 L988.3891,80.3844793 C971.934428,80.3844793 958.554286,67.2396626 958.205026,50.8921478 L958.198029,50.2365627 L958.198029,-1.13686838e-13 L968.608743,-1.13686838e-13 L968.608743,50.2365627 C968.608743,60.9572547 977.161965,69.6830903 987.825925,69.9807943 L988.3891,69.988646 L1032.78307,69.988 L1032.78393,-2.27373675e-13 L1043.19464,-2.27373675e-13 L1043.19407,145.175 L1083.79202,145.175209 C1100.2467,145.175209 1113.62684,158.320025 1113.9761,174.66754 L1113.98309,175.323125 L1113.98307,297.32 L1163.95893,297.320833 L1163.95893,307.716667 L1113.98307,307.716 L1113.98309,467.8125 C1113.98309,484.243653 1100.81946,497.604669 1084.44855,497.95343 L1083.79202,497.960417 L879.746429,497.960417 L879.746429,487.564583 L1083.79202,487.564583 C1094.52806,487.564583 1103.26639,479.023587 1103.56452,468.37487 L1103.57238,467.8125 L1103.57238,175.323125 C1103.57238,164.602433 1095.01916,155.876598 1084.3552,155.578894 L1083.79202,155.571042 L499.755071,155.571 L499.755071,219.352 L573.671429,219.352083 C590.126101,219.352083 603.506243,232.4969 603.855503,248.844415 L603.8625,249.5 L603.862071,366.972 L878.705357,366.972917 L878.705357,377.36875 L519.535714,377.36875 C503.081042,377.36875 489.7009,364.223933 489.35164,347.876418 L489.344643,347.220833 L489.344071,229.747 L30.2321429,229.747917 C13.7774702,229.747917 0.39732862,216.6031 0.0480684324,200.255585 L0.0410714286,199.6 L0.0410714286,-1.13686838e-13 L10.4517857,-1.13686838e-13 Z M573.671429,229.747917 L499.755071,229.747 L499.755357,347.220833 C499.755357,357.941525 508.308579,366.667361 518.972539,366.965065 L519.535714,366.972917 L593.451071,366.972 L593.451786,249.5 C593.451786,238.779308 584.898564,230.053472 574.234604,229.755768 L573.671429,229.747917 Z M469.564286,90.334946 L247.815071,90.334 L247.815071,219.352 L489.344071,219.352 L489.344643,110.087029 C489.344643,99.3663373 480.791421,90.6405017 470.127461,90.3427977 L469.564286,90.334946 Z" id="Combined-Shape" fill="url(#linearGradient-3)"></path>
                </g>
                <ellipse id="Oval" fill="#4570F6" cx="879.95082" cy="493.5" rx="69.5" ry="14.5"></ellipse>
                <path d="M880.95082,85 C948.053417,85 1002.45082,139.39334 1002.45082,206.490924 C1002.45082,250.571595 962.864107,345.134629 883.690681,490.180026 C883.319516,490.859999 882.758886,491.417563 882.076888,491.784994 C880.13204,492.832794 877.706019,492.105592 876.65822,490.160744 L876.65822,490.160744 L874.325801,485.824848 C797.74248,343.240162 759.45082,250.128854 759.45082,206.490924 C759.45082,139.39334 813.848223,85 880.95082,85 Z M880.95082,168.159563 C853.995076,168.159563 832.143127,190.033248 832.143127,217.015807 C832.143127,243.998365 853.995076,265.87205 880.95082,265.87205 C907.906564,265.87205 929.758512,243.998365 929.758512,217.015807 C929.758512,190.033248 907.906564,168.159563 880.95082,168.159563 Z" id="Combined-Shape" fill="#E0E7FF"></path>
            </g>
        </g>
    </g>
</svg>