<svg id="landing-page-github" style="width: 100%; height: 100%" width="1490" height="547" viewBox="0 0 1490 547" fill="none" xmlns="http://www.w3.org/2000/svg" class="css-0"><g clip-path="url(#nk-21)"><path style="fill:var(--color-illustrationInterface100)" fill-rule="evenodd" clip-rule="evenodd" d="M116.004 159.43C88.49 159.421 61.8715 169.205 40.9138 187.031C19.956 204.857 6.02768 229.561 1.62239 256.72C-2.78289 283.878 2.62256 311.718 16.871 335.255C31.1194 358.792 53.2803 376.489 79.3861 385.177C85.1406 386.251 87.2889 382.664 87.2889 379.595C87.2889 376.833 87.193 367.722 87.1354 358.035C54.9105 365.036 48.1202 344.378 48.1202 344.378C42.8453 330.951 35.2495 327.421 35.2495 327.421C24.738 320.228 36.0359 320.382 36.0359 320.382C47.6791 321.207 53.798 332.313 53.798 332.313C64.1368 350.017 80.9015 344.915 87.4999 341.903C88.5549 334.423 91.5472 329.32 94.8656 326.424C69.2199 323.527 42.0781 313.591 42.0781 269.205C41.9059 257.677 46.1862 246.526 54.0281 238.074C52.8197 235.158 48.8491 223.381 55.1407 207.383C55.1407 207.383 64.8657 204.276 87.0012 219.257C105.994 214.065 126.032 214.065 145.025 219.257C167.046 204.353 176.847 207.383 176.847 207.383C183.139 223.342 179.188 235.12 177.979 238.074C185.8 246.521 190.065 257.657 189.891 269.167C189.891 313.668 162.807 323.451 137.007 326.328C141.151 329.915 144.853 336.974 144.853 347.773C144.853 363.272 144.738 375.759 144.738 379.557C144.738 382.645 146.809 386.251 152.679 385.119C178.747 376.398 200.864 358.691 215.077 335.163C229.29 311.635 234.674 283.819 230.265 256.687C225.856 229.555 211.942 204.874 191.01 187.057C170.078 169.24 143.492 159.448 116.004 159.43Z"></path><path style="fill:var(--color-illustrationInterface100)" d="M44.0372 325.734C43.7879 326.309 42.8863 326.482 42.1191 326.098C41.3518 325.715 40.7956 324.928 41.0641 324.353C41.3326 323.777 42.2342 323.605 42.9823 323.988C43.7303 324.372 44.3058 325.158 44.0181 325.734H44.0372Z"></path><path style="fill:var(--color-illustrationInterface100)" d="M48.7333 330.972C48.177 331.49 47.1028 331.241 46.3548 330.435C46.0051 330.152 45.7767 329.747 45.7161 329.301C45.6554 328.855 45.7673 328.403 46.0287 328.038C46.6041 327.52 47.6399 327.769 48.4072 328.575C49.1744 329.38 49.3087 330.493 48.7333 330.972Z"></path><path style="fill:var(--color-illustrationInterface100)" d="M53.2984 337.646C52.5887 338.145 51.3803 337.646 50.7089 336.649C50.0376 335.651 49.9992 334.385 50.7089 333.886C51.4186 333.388 52.6271 333.886 53.2984 334.865C53.9698 335.843 54.0081 337.147 53.2984 337.646V337.646Z"></path><path style="fill:var(--color-illustrationInterface100)" d="M59.6282 344.091C59.3949 344.26 59.1302 344.381 58.8497 344.446C58.5693 344.512 58.2785 344.521 57.9946 344.472C57.7106 344.424 57.4392 344.32 57.196 344.166C56.9528 344.011 56.7428 343.81 56.5783 343.574C55.5617 342.634 55.274 341.31 55.9262 340.62C56.5783 339.929 57.8443 340.102 58.9185 341.061C59.9926 342.02 60.2228 343.324 59.5515 344.015L59.6282 344.091Z"></path><path style="fill:var(--color-illustrationInterface100)" d="M68.1863 347.832C67.8986 348.733 66.6134 349.155 65.2899 348.772C63.9664 348.388 63.1224 347.314 63.3717 346.393C63.6211 345.473 64.9446 345.051 66.2681 345.453C67.5917 345.856 68.4357 346.911 68.1863 347.832Z"></path><path style="fill:var(--color-illustrationInterface100)" d="M77.6633 348.522C77.6633 349.481 76.5892 350.268 75.2081 350.287C73.827 350.306 72.7145 349.558 72.6953 348.599C72.6761 347.64 73.7695 346.854 75.1697 346.834C76.57 346.815 77.6633 347.582 77.6633 348.522V348.522Z"></path><path style="fill:var(--color-illustrationInterface100)" d="M86.4869 347.025C86.6595 347.965 85.7004 348.943 84.3385 349.173C82.9767 349.403 81.749 348.847 81.5764 347.907C81.4038 346.967 82.382 345.989 83.7247 345.759C85.0674 345.529 86.3142 346.085 86.4869 347.025Z"></path></g><defs><clipPath id="nk-21"><rect style="fill:var(--color-white)" width="231.674" height="225.939" transform="translate(0.167969 159.43)"></rect></clipPath></defs></svg>