<svg
  id="nksvg"
  style="width: 100%; height: 100%"
  width="1490"
  height="838"
  viewBox="0 0 1490 838"
  fill="none"
  xmlns="http://www.w3.org/2000/svg"
  class="css-0"
>
  <path
    style="fill: var(--color-illustrationInterface020)"
    d="M0 0H1490V838H0V0Z"
  ></path>
  <path
    style="fill: var(--color-illustrationInterface010)"
    d="M379 373.448C379 364.364 386.364 357 395.448 357H1095.55C1104.64 357 1112 364.364 1112 373.448V465.552C1112 474.636 1104.64 482 1095.55 482H395.448C386.364 482 379 474.636 379 465.552V373.448Z"
  ></path>
  <path
    style="fill: var(--color-inkNegative)"
    fill-rule="evenodd"
    clip-rule="evenodd"
    d="M1095.55 359.741H395.448C387.878 359.741 381.741 365.878 381.741 373.448V465.552C381.741 473.122 387.878 479.259 395.448 479.259H1095.55C1103.12 479.259 1109.26 473.122 1109.26 465.552V373.448C1109.26 365.878 1103.12 359.741 1095.55 359.741ZM395.448 357C386.364 357 379 364.364 379 373.448V465.552C379 474.636 386.364 482 395.448 482H1095.55C1104.64 482 1112 474.636 1112 465.552V373.448C1112 364.364 1104.64 357 1095.55 357H395.448Z"
  ></path>
  <path
    style="fill: var(--color-inkNegative)"
    d="M1055.19 394.857C1041.59 394.857 1030.56 405.891 1030.56 419.487C1030.56 433.082 1041.59 444.116 1055.19 444.116C1068.78 444.116 1079.81 433.082 1079.81 419.487C1079.81 405.891 1068.78 394.857 1055.19 394.857ZM1057.65 431.801H1052.72V426.875H1057.65V431.801ZM1057.65 421.949H1052.72V407.172H1057.65V421.949Z"
  ></path>
  <path
    style="fill: var(--color-inkNegative)"
    d="M380.13 526V505.851H386.75C388.324 505.851 389.619 506.11 390.636 506.628C391.653 507.146 392.401 507.847 392.881 508.729C393.38 509.612 393.63 510.61 393.63 511.723C393.63 512.817 393.39 513.805 392.91 514.688C392.43 515.57 391.682 516.28 390.665 516.818C389.648 517.336 388.343 517.595 386.75 517.595H382.548V526H380.13ZM382.548 515.551H386.693C388.305 515.551 389.446 515.215 390.118 514.544C390.809 513.853 391.154 512.913 391.154 511.723C391.154 510.514 390.809 509.574 390.118 508.902C389.446 508.211 388.305 507.866 386.693 507.866H382.548V515.551Z"
  ></path>
  <path
    style="fill: var(--color-inkNegative)"
    d="M396.655 526V505.275H399.073V526H396.655Z"
  ></path>
  <path
    style="fill: var(--color-inkNegative)"
    d="M409.454 526.345C408.092 526.345 406.883 526.038 405.828 525.424C404.772 524.791 403.938 523.918 403.323 522.805C402.729 521.692 402.431 520.377 402.431 518.861C402.431 517.365 402.729 516.06 403.323 514.947C403.918 513.815 404.743 512.942 405.799 512.327C406.873 511.694 408.111 511.378 409.512 511.378C410.894 511.378 412.083 511.694 413.081 512.327C414.098 512.942 414.875 513.757 415.413 514.774C415.95 515.791 416.219 516.885 416.219 518.055C416.219 518.267 416.209 518.478 416.19 518.689C416.19 518.9 416.19 519.14 416.19 519.408H404.82C404.878 520.502 405.127 521.414 405.569 522.143C406.029 522.853 406.595 523.39 407.267 523.755C407.958 524.119 408.687 524.302 409.454 524.302C410.452 524.302 411.287 524.071 411.959 523.611C412.63 523.15 413.12 522.527 413.427 521.74H415.816C415.432 523.064 414.693 524.167 413.599 525.05C412.525 525.914 411.143 526.345 409.454 526.345ZM409.454 513.421C408.303 513.421 407.276 513.776 406.375 514.486C405.492 515.177 404.983 516.194 404.849 517.537H413.83C413.772 516.252 413.331 515.244 412.506 514.515C411.68 513.786 410.663 513.421 409.454 513.421Z"
  ></path>
  <path
    style="fill: var(--color-inkNegative)"
    d="M424.173 526.345C422.983 526.345 421.995 526.144 421.208 525.741C420.421 525.338 419.836 524.801 419.452 524.129C419.068 523.457 418.876 522.728 418.876 521.941C418.876 520.483 419.433 519.36 420.546 518.574C421.659 517.787 423.175 517.393 425.094 517.393H428.951V517.221C428.951 515.973 428.625 515.033 427.972 514.4C427.32 513.747 426.447 513.421 425.353 513.421C424.413 513.421 423.597 513.661 422.906 514.141C422.235 514.601 421.812 515.283 421.64 516.185H419.164C419.26 515.148 419.606 514.275 420.201 513.565C420.815 512.855 421.573 512.318 422.474 511.953C423.376 511.569 424.336 511.378 425.353 511.378C427.349 511.378 428.845 511.915 429.843 512.989C430.86 514.045 431.369 515.455 431.369 517.221V526H429.21L429.066 523.438C428.663 524.244 428.068 524.935 427.281 525.511C426.514 526.067 425.478 526.345 424.173 526.345ZM424.547 524.302C425.468 524.302 426.255 524.062 426.907 523.582C427.579 523.102 428.087 522.479 428.433 521.711C428.778 520.943 428.951 520.138 428.951 519.293V519.264H425.295C423.875 519.264 422.868 519.514 422.273 520.013C421.697 520.493 421.409 521.097 421.409 521.826C421.409 522.575 421.678 523.179 422.215 523.64C422.772 524.081 423.549 524.302 424.547 524.302Z"
  ></path>
  <path
    style="fill: var(--color-inkNegative)"
    d="M440.465 526.345C438.757 526.345 437.337 525.914 436.205 525.05C435.073 524.186 434.411 523.016 434.219 521.538H436.694C436.848 522.287 437.241 522.939 437.874 523.496C438.527 524.033 439.4 524.302 440.494 524.302C441.511 524.302 442.259 524.091 442.739 523.668C443.219 523.227 443.458 522.709 443.458 522.114C443.458 521.25 443.142 520.675 442.509 520.387C441.895 520.099 441.021 519.84 439.889 519.61C439.122 519.456 438.354 519.236 437.587 518.948C436.819 518.66 436.176 518.257 435.658 517.739C435.14 517.202 434.881 516.501 434.881 515.638C434.881 514.39 435.341 513.373 436.262 512.587C437.203 511.781 438.469 511.378 440.062 511.378C441.578 511.378 442.816 511.761 443.775 512.529C444.754 513.277 445.32 514.352 445.473 515.753H443.084C442.988 515.024 442.672 514.457 442.134 514.055C441.616 513.632 440.916 513.421 440.033 513.421C439.17 513.421 438.498 513.604 438.018 513.968C437.558 514.333 437.327 514.812 437.327 515.407C437.327 515.983 437.625 516.434 438.22 516.76C438.834 517.086 439.659 517.365 440.695 517.595C441.578 517.787 442.413 518.027 443.199 518.315C444.005 518.583 444.658 518.996 445.157 519.552C445.675 520.09 445.934 520.876 445.934 521.913C445.953 523.198 445.464 524.263 444.466 525.108C443.487 525.933 442.154 526.345 440.465 526.345Z"
  ></path>
  <path
    style="fill: var(--color-inkNegative)"
    d="M455.807 526.345C454.444 526.345 453.235 526.038 452.18 525.424C451.125 524.791 450.29 523.918 449.676 522.805C449.081 521.692 448.783 520.377 448.783 518.861C448.783 517.365 449.081 516.06 449.676 514.947C450.271 513.815 451.096 512.942 452.151 512.327C453.226 511.694 454.464 511.378 455.864 511.378C457.246 511.378 458.436 511.694 459.434 512.327C460.451 512.942 461.228 513.757 461.765 514.774C462.302 515.791 462.571 516.885 462.571 518.055C462.571 518.267 462.561 518.478 462.542 518.689C462.542 518.9 462.542 519.14 462.542 519.408H451.173C451.23 520.502 451.48 521.414 451.921 522.143C452.381 522.853 452.948 523.39 453.619 523.755C454.31 524.119 455.039 524.302 455.807 524.302C456.805 524.302 457.639 524.071 458.311 523.611C458.983 523.15 459.472 522.527 459.779 521.74H462.168C461.784 523.064 461.045 524.167 459.952 525.05C458.877 525.914 457.495 526.345 455.807 526.345ZM455.807 513.421C454.655 513.421 453.629 513.776 452.727 514.486C451.844 515.177 451.336 516.194 451.201 517.537H460.182C460.124 516.252 459.683 515.244 458.858 514.515C458.033 513.786 457.016 513.421 455.807 513.421Z"
  ></path>
  <path
    style="fill: var(--color-inkNegative)"
    d="M479.812 526.345C478.45 526.345 477.241 526.038 476.185 525.424C475.13 524.791 474.295 523.918 473.681 522.805C473.086 521.692 472.789 520.377 472.789 518.861C472.789 517.365 473.086 516.06 473.681 514.947C474.276 513.815 475.101 512.942 476.157 512.327C477.231 511.694 478.469 511.378 479.87 511.378C481.251 511.378 482.441 511.694 483.439 512.327C484.456 512.942 485.233 513.757 485.77 514.774C486.308 515.791 486.576 516.885 486.576 518.055C486.576 518.267 486.567 518.478 486.548 518.689C486.548 518.9 486.548 519.14 486.548 519.408H475.178C475.236 520.502 475.485 521.414 475.926 522.143C476.387 522.853 476.953 523.39 477.625 523.755C478.315 524.119 479.045 524.302 479.812 524.302C480.81 524.302 481.645 524.071 482.316 523.611C482.988 523.15 483.477 522.527 483.784 521.74H486.173C485.79 523.064 485.051 524.167 483.957 525.05C482.882 525.914 481.501 526.345 479.812 526.345ZM479.812 513.421C478.661 513.421 477.634 513.776 476.732 514.486C475.85 515.177 475.341 516.194 475.207 517.537H484.187C484.13 516.252 483.688 515.244 482.863 514.515C482.038 513.786 481.021 513.421 479.812 513.421Z"
  ></path>
  <path
    style="fill: var(--color-inkNegative)"
    d="M489.781 526V511.723H491.969L492.113 514.285C492.573 513.383 493.235 512.673 494.099 512.155C494.962 511.637 495.941 511.378 497.035 511.378C498.723 511.378 500.067 511.896 501.064 512.932C502.081 513.949 502.59 515.522 502.59 517.653V526H500.172V517.912C500.172 514.937 498.944 513.45 496.488 513.45C495.26 513.45 494.233 513.901 493.408 514.803C492.602 515.686 492.199 516.952 492.199 518.602V526H489.781Z"
  ></path>
  <path
    style="fill: var(--color-inkNegative)"
    d="M511.895 526C510.59 526 509.563 525.683 508.815 525.05C508.067 524.417 507.692 523.275 507.692 521.625V513.767H505.217V511.723H507.692L508.009 508.298H510.11V511.723H514.313V513.767H510.11V521.625C510.11 522.527 510.293 523.141 510.657 523.467C511.022 523.774 511.665 523.927 512.586 523.927H514.082V526H511.895Z"
  ></path>
  <path
    style="fill: var(--color-inkNegative)"
    d="M523.41 526.345C522.047 526.345 520.838 526.038 519.783 525.424C518.728 524.791 517.893 523.918 517.279 522.805C516.684 521.692 516.386 520.377 516.386 518.861C516.386 517.365 516.684 516.06 517.279 514.947C517.874 513.815 518.699 512.942 519.754 512.327C520.829 511.694 522.067 511.378 523.467 511.378C524.849 511.378 526.039 511.694 527.037 512.327C528.054 512.942 528.831 513.757 529.368 514.774C529.905 515.791 530.174 516.885 530.174 518.055C530.174 518.267 530.164 518.478 530.145 518.689C530.145 518.9 530.145 519.14 530.145 519.408H518.776C518.833 520.502 519.083 521.414 519.524 522.143C519.984 522.853 520.551 523.39 521.222 523.755C521.913 524.119 522.642 524.302 523.41 524.302C524.408 524.302 525.242 524.071 525.914 523.611C526.586 523.15 527.075 522.527 527.382 521.74H529.771C529.387 523.064 528.648 524.167 527.555 525.05C526.48 525.914 525.098 526.345 523.41 526.345ZM523.41 513.421C522.258 513.421 521.232 513.776 520.33 514.486C519.447 515.177 518.939 516.194 518.804 517.537H527.785C527.727 516.252 527.286 515.244 526.461 514.515C525.636 513.786 524.619 513.421 523.41 513.421Z"
  ></path>
  <path
    style="fill: var(--color-inkNegative)"
    d="M533.379 526V511.723H535.566L535.768 514.457C536.209 513.517 536.881 512.769 537.783 512.212C538.685 511.656 539.798 511.378 541.122 511.378V513.911H540.46C539.615 513.911 538.838 514.064 538.128 514.371C537.418 514.659 536.852 515.158 536.43 515.868C536.008 516.578 535.797 517.557 535.797 518.804V526H533.379Z"
  ></path>
  <path
    style="fill: var(--color-inkNegative)"
    d="M553.007 532.332L556.548 524.618H555.713L550.043 511.723H552.662L557.382 522.834L562.391 511.723H564.895L555.54 532.332H553.007Z"
  ></path>
  <path
    style="fill: var(--color-inkNegative)"
    d="M572.603 526.345C571.26 526.345 570.051 526.038 568.976 525.424C567.902 524.81 567.048 523.947 566.415 522.834C565.801 521.701 565.494 520.377 565.494 518.861C565.494 517.345 565.81 516.031 566.443 514.918C567.077 513.786 567.931 512.913 569.005 512.299C570.099 511.685 571.317 511.378 572.661 511.378C574.004 511.378 575.213 511.685 576.288 512.299C577.362 512.913 578.206 513.786 578.82 514.918C579.454 516.031 579.77 517.345 579.77 518.861C579.77 520.377 579.454 521.701 578.82 522.834C578.187 523.947 577.324 524.81 576.23 525.424C575.155 526.038 573.946 526.345 572.603 526.345ZM572.603 524.273C573.428 524.273 574.196 524.071 574.906 523.668C575.616 523.265 576.192 522.661 576.633 521.855C577.074 521.049 577.295 520.051 577.295 518.861C577.295 517.672 577.074 516.674 576.633 515.868C576.211 515.062 575.645 514.457 574.935 514.055C574.225 513.652 573.467 513.45 572.661 513.45C571.836 513.45 571.068 513.652 570.358 514.055C569.648 514.457 569.072 515.062 568.631 515.868C568.19 516.674 567.969 517.672 567.969 518.861C567.969 520.051 568.19 521.049 568.631 521.855C569.072 522.661 569.638 523.265 570.329 523.668C571.039 524.071 571.797 524.273 572.603 524.273Z"
  ></path>
  <path
    style="fill: var(--color-inkNegative)"
    d="M588.342 526.345C586.653 526.345 585.31 525.837 584.312 524.82C583.315 523.783 582.816 522.2 582.816 520.07V511.723H585.233V519.811C585.233 522.786 586.452 524.273 588.889 524.273C590.136 524.273 591.163 523.831 591.969 522.949C592.794 522.047 593.207 520.771 593.207 519.12V511.723H595.624V526H593.437L593.264 523.438C592.823 524.34 592.161 525.05 591.278 525.568C590.415 526.086 589.436 526.345 588.342 526.345Z"
  ></path>
  <path
    style="fill: var(--color-inkNegative)"
    d="M599.604 526V511.723H601.792L601.993 514.457C602.435 513.517 603.106 512.769 604.008 512.212C604.91 511.656 606.023 511.378 607.347 511.378V513.911H606.685C605.841 513.911 605.064 514.064 604.354 514.371C603.644 514.659 603.078 515.158 602.655 515.868C602.233 516.578 602.022 517.557 602.022 518.804V526H599.604Z"
  ></path>
  <path
    style="fill: var(--color-inkNegative)"
    d="M624.097 526.345C622.735 526.345 621.526 526.038 620.471 525.424C619.415 524.791 618.581 523.918 617.966 522.805C617.372 521.692 617.074 520.377 617.074 518.861C617.074 517.365 617.372 516.06 617.966 514.947C618.561 513.815 619.386 512.942 620.442 512.327C621.516 511.694 622.754 511.378 624.155 511.378C625.537 511.378 626.726 511.694 627.724 512.327C628.741 512.942 629.518 513.757 630.056 514.774C630.593 515.791 630.862 516.885 630.862 518.055C630.862 518.267 630.852 518.478 630.833 518.689C630.833 518.9 630.833 519.14 630.833 519.408H619.463C619.521 520.502 619.77 521.414 620.212 522.143C620.672 522.853 621.238 523.39 621.91 523.755C622.601 524.119 623.33 524.302 624.097 524.302C625.095 524.302 625.93 524.071 626.602 523.611C627.273 523.15 627.763 522.527 628.07 521.74H630.459C630.075 523.064 629.336 524.167 628.242 525.05C627.168 525.914 625.786 526.345 624.097 526.345ZM624.097 513.421C622.946 513.421 621.919 513.776 621.018 514.486C620.135 515.177 619.626 516.194 619.492 517.537H628.473C628.415 516.252 627.974 515.244 627.149 514.515C626.323 513.786 625.306 513.421 624.097 513.421Z"
  ></path>
  <path
    style="fill: var(--color-inkNegative)"
    d="M634.066 526V511.723H636.254L636.427 513.795C636.887 513.028 637.501 512.433 638.269 512.011C639.036 511.589 639.9 511.378 640.859 511.378C641.992 511.378 642.961 511.608 643.767 512.068C644.592 512.529 645.225 513.229 645.666 514.17C646.165 513.306 646.846 512.625 647.71 512.126C648.593 511.627 649.543 511.378 650.56 511.378C652.267 511.378 653.63 511.896 654.647 512.932C655.664 513.949 656.172 515.522 656.172 517.653V526H653.783V517.912C653.783 516.434 653.486 515.321 652.891 514.573C652.296 513.824 651.442 513.45 650.329 513.45C649.178 513.45 648.219 513.901 647.451 514.803C646.703 515.686 646.328 516.952 646.328 518.602V526H643.911V517.912C643.911 516.434 643.613 515.321 643.018 514.573C642.423 513.824 641.569 513.45 640.456 513.45C639.324 513.45 638.374 513.901 637.607 514.803C636.858 515.686 636.484 516.952 636.484 518.602V526H634.066Z"
  ></path>
  <path
    style="fill: var(--color-inkNegative)"
    d="M664.564 526.345C663.374 526.345 662.386 526.144 661.599 525.741C660.812 525.338 660.227 524.801 659.843 524.129C659.46 523.457 659.268 522.728 659.268 521.941C659.268 520.483 659.824 519.36 660.937 518.574C662.05 517.787 663.566 517.393 665.485 517.393H669.342V517.221C669.342 515.973 669.016 515.033 668.363 514.4C667.711 513.747 666.838 513.421 665.744 513.421C664.804 513.421 663.988 513.661 663.297 514.141C662.626 514.601 662.204 515.283 662.031 516.185H659.556C659.651 515.148 659.997 514.275 660.592 513.565C661.206 512.855 661.964 512.318 662.866 511.953C663.768 511.569 664.727 511.378 665.744 511.378C667.74 511.378 669.237 511.915 670.234 512.989C671.251 514.045 671.76 515.455 671.76 517.221V526H669.601L669.457 523.438C669.054 524.244 668.459 524.935 667.673 525.511C666.905 526.067 665.869 526.345 664.564 526.345ZM664.938 524.302C665.859 524.302 666.646 524.062 667.298 523.582C667.97 523.102 668.479 522.479 668.824 521.711C669.169 520.943 669.342 520.138 669.342 519.293V519.264H665.686C664.266 519.264 663.259 519.514 662.664 520.013C662.088 520.493 661.801 521.097 661.801 521.826C661.801 522.575 662.069 523.179 662.607 523.64C663.163 524.081 663.94 524.302 664.938 524.302Z"
  ></path>
  <path
    style="fill: var(--color-inkNegative)"
    d="M676.855 508.557C676.375 508.557 675.972 508.403 675.646 508.096C675.339 507.77 675.186 507.367 675.186 506.887C675.186 506.427 675.339 506.043 675.646 505.736C675.972 505.429 676.375 505.275 676.855 505.275C677.316 505.275 677.709 505.429 678.035 505.736C678.362 506.043 678.525 506.427 678.525 506.887C678.525 507.367 678.362 507.77 678.035 508.096C677.709 508.403 677.316 508.557 676.855 508.557ZM675.646 526V511.723H678.064V526H675.646Z"
  ></path>
  <path
    style="fill: var(--color-inkNegative)"
    d="M682.274 526V505.275H684.692V526H682.274Z"
  ></path>
  <path
    style="fill: var(--color-inkNegative)"
    d="M701.022 526.345C699.832 526.345 698.844 526.144 698.057 525.741C697.27 525.338 696.685 524.801 696.301 524.129C695.917 523.457 695.726 522.728 695.726 521.941C695.726 520.483 696.282 519.36 697.395 518.574C698.508 517.787 700.024 517.393 701.943 517.393H705.8V517.221C705.8 515.973 705.474 515.033 704.821 514.4C704.169 513.747 703.296 513.421 702.202 513.421C701.262 513.421 700.446 513.661 699.755 514.141C699.084 514.601 698.661 515.283 698.489 516.185H696.013C696.109 515.148 696.455 514.275 697.05 513.565C697.664 512.855 698.422 512.318 699.324 511.953C700.225 511.569 701.185 511.378 702.202 511.378C704.198 511.378 705.694 511.915 706.692 512.989C707.709 514.045 708.218 515.455 708.218 517.221V526H706.059L705.915 523.438C705.512 524.244 704.917 524.935 704.13 525.511C703.363 526.067 702.327 526.345 701.022 526.345ZM701.396 524.302C702.317 524.302 703.104 524.062 703.756 523.582C704.428 523.102 704.936 522.479 705.282 521.711C705.627 520.943 705.8 520.138 705.8 519.293V519.264H702.144C700.724 519.264 699.717 519.514 699.122 520.013C698.546 520.493 698.259 521.097 698.259 521.826C698.259 522.575 698.527 523.179 699.064 523.64C699.621 524.081 700.398 524.302 701.396 524.302Z"
  ></path>
  <path
    style="fill: var(--color-inkNegative)"
    d="M718.321 526.345C716.901 526.345 715.654 526.019 714.579 525.367C713.524 524.714 712.699 523.822 712.104 522.69C711.528 521.558 711.241 520.272 711.241 518.833C711.241 517.393 711.538 516.117 712.133 515.004C712.728 513.872 713.553 512.989 714.608 512.356C715.664 511.704 716.911 511.378 718.35 511.378C719.521 511.378 720.557 511.617 721.459 512.097C722.361 512.577 723.061 513.249 723.56 514.112V505.275H725.978V526H723.79L723.56 523.64C723.1 524.33 722.438 524.954 721.574 525.511C720.71 526.067 719.626 526.345 718.321 526.345ZM718.58 524.244C719.54 524.244 720.384 524.023 721.113 523.582C721.862 523.121 722.437 522.488 722.84 521.682C723.263 520.876 723.474 519.936 723.474 518.861C723.474 517.787 723.263 516.847 722.84 516.041C722.437 515.235 721.862 514.611 721.113 514.17C720.384 513.709 719.54 513.479 718.58 513.479C717.64 513.479 716.796 513.709 716.047 514.17C715.318 514.611 714.743 515.235 714.32 516.041C713.917 516.847 713.716 517.787 713.716 518.861C713.716 519.936 713.917 520.876 714.32 521.682C714.743 522.488 715.318 523.121 716.047 523.582C716.796 524.023 717.64 524.244 718.58 524.244Z"
  ></path>
  <path
    style="fill: var(--color-inkNegative)"
    d="M736.396 526.345C734.976 526.345 733.728 526.019 732.654 525.367C731.598 524.714 730.773 523.822 730.178 522.69C729.603 521.558 729.315 520.272 729.315 518.833C729.315 517.393 729.612 516.117 730.207 515.004C730.802 513.872 731.627 512.989 732.683 512.356C733.738 511.704 734.985 511.378 736.424 511.378C737.595 511.378 738.631 511.617 739.533 512.097C740.435 512.577 741.135 513.249 741.634 514.112V505.275H744.052V526H741.865L741.634 523.64C741.174 524.33 740.512 524.954 739.648 525.511C738.785 526.067 737.701 526.345 736.396 526.345ZM736.655 524.244C737.614 524.244 738.459 524.023 739.188 523.582C739.936 523.121 740.512 522.488 740.915 521.682C741.337 520.876 741.548 519.936 741.548 518.861C741.548 517.787 741.337 516.847 740.915 516.041C740.512 515.235 739.936 514.611 739.188 514.17C738.459 513.709 737.614 513.479 736.655 513.479C735.714 513.479 734.87 513.709 734.122 514.17C733.393 514.611 732.817 515.235 732.395 516.041C731.992 516.847 731.79 517.787 731.79 518.861C731.79 519.936 731.992 520.876 732.395 521.682C732.817 522.488 733.393 523.121 734.122 523.582C734.87 524.023 735.714 524.244 736.655 524.244Z"
  ></path>
  <path
    style="fill: var(--color-inkNegative)"
    d="M747.994 526V511.723H750.181L750.383 514.457C750.824 513.517 751.496 512.769 752.398 512.212C753.299 511.656 754.412 511.378 755.736 511.378V513.911H755.074C754.23 513.911 753.453 514.064 752.743 514.371C752.033 514.659 751.467 515.158 751.045 515.868C750.623 516.578 750.411 517.557 750.411 518.804V526H747.994Z"
  ></path>
  <path
    style="fill: var(--color-inkNegative)"
    d="M764.335 526.345C762.973 526.345 761.764 526.038 760.708 525.424C759.653 524.791 758.818 523.918 758.204 522.805C757.609 521.692 757.312 520.377 757.312 518.861C757.312 517.365 757.609 516.06 758.204 514.947C758.799 513.815 759.624 512.942 760.679 512.327C761.754 511.694 762.992 511.378 764.393 511.378C765.774 511.378 766.964 511.694 767.962 512.327C768.979 512.942 769.756 513.757 770.293 514.774C770.831 515.791 771.099 516.885 771.099 518.055C771.099 518.267 771.09 518.478 771.07 518.689C771.07 518.9 771.07 519.14 771.07 519.408H759.701C759.758 520.502 760.008 521.414 760.449 522.143C760.91 522.853 761.476 523.39 762.147 523.755C762.838 524.119 763.567 524.302 764.335 524.302C765.333 524.302 766.168 524.071 766.839 523.611C767.511 523.15 768 522.527 768.307 521.74H770.696C770.312 523.064 769.574 524.167 768.48 525.05C767.405 525.914 766.024 526.345 764.335 526.345ZM764.335 513.421C763.184 513.421 762.157 513.776 761.255 514.486C760.372 515.177 759.864 516.194 759.73 517.537H768.71C768.653 516.252 768.211 515.244 767.386 514.515C766.561 513.786 765.544 513.421 764.335 513.421Z"
  ></path>
  <path
    style="fill: var(--color-inkNegative)"
    d="M779.773 526.345C778.065 526.345 776.645 525.914 775.513 525.05C774.381 524.186 773.719 523.016 773.527 521.538H776.002C776.156 522.287 776.549 522.939 777.182 523.496C777.835 524.033 778.708 524.302 779.802 524.302C780.819 524.302 781.567 524.091 782.047 523.668C782.527 523.227 782.766 522.709 782.766 522.114C782.766 521.25 782.45 520.675 781.817 520.387C781.203 520.099 780.329 519.84 779.197 519.61C778.43 519.456 777.662 519.236 776.895 518.948C776.127 518.66 775.484 518.257 774.966 517.739C774.448 517.202 774.189 516.501 774.189 515.638C774.189 514.39 774.649 513.373 775.57 512.587C776.511 511.781 777.777 511.378 779.37 511.378C780.886 511.378 782.124 511.761 783.083 512.529C784.062 513.277 784.628 514.352 784.781 515.753H782.392C782.296 515.024 781.98 514.457 781.442 514.055C780.924 513.632 780.224 513.421 779.341 513.421C778.478 513.421 777.806 513.604 777.326 513.968C776.866 514.333 776.635 514.812 776.635 515.407C776.635 515.983 776.933 516.434 777.528 516.76C778.142 517.086 778.967 517.365 780.003 517.595C780.886 517.787 781.721 518.027 782.507 518.315C783.313 518.583 783.966 518.996 784.465 519.552C784.983 520.09 785.242 520.876 785.242 521.913C785.261 523.198 784.772 524.263 783.774 525.108C782.795 525.933 781.462 526.345 779.773 526.345Z"
  ></path>
  <path
    style="fill: var(--color-inkNegative)"
    d="M794.165 526.345C792.457 526.345 791.037 525.914 789.905 525.05C788.773 524.186 788.111 523.016 787.919 521.538H790.394C790.548 522.287 790.941 522.939 791.574 523.496C792.227 524.033 793.1 524.302 794.194 524.302C795.211 524.302 795.959 524.091 796.439 523.668C796.919 523.227 797.158 522.709 797.158 522.114C797.158 521.25 796.842 520.675 796.209 520.387C795.595 520.099 794.721 519.84 793.589 519.61C792.822 519.456 792.054 519.236 791.286 518.948C790.519 518.66 789.876 518.257 789.358 517.739C788.84 517.202 788.581 516.501 788.581 515.638C788.581 514.39 789.041 513.373 789.962 512.587C790.903 511.781 792.169 511.378 793.762 511.378C795.278 511.378 796.516 511.761 797.475 512.529C798.454 513.277 799.02 514.352 799.173 515.753H796.784C796.688 515.024 796.372 514.457 795.834 514.055C795.316 513.632 794.616 513.421 793.733 513.421C792.87 513.421 792.198 513.604 791.718 513.968C791.258 514.333 791.027 514.812 791.027 515.407C791.027 515.983 791.325 516.434 791.92 516.76C792.534 517.086 793.359 517.365 794.395 517.595C795.278 517.787 796.113 518.027 796.899 518.315C797.705 518.583 798.358 518.996 798.857 519.552C799.375 520.09 799.634 520.876 799.634 521.913C799.653 523.198 799.164 524.263 798.166 525.108C797.187 525.933 795.854 526.345 794.165 526.345Z"
  ></path>
  <path
    style="fill: var(--color-illustrationInterface060)"
    d="M384.517 306.208V313.243H392.792V316.449H384.517V323.794H393.827V327H380.586V303.002H393.827V306.208H384.517Z"
  ></path>
  <path
    style="fill: var(--color-illustrationInterface060)"
    d="M421.667 307.691C423.161 307.691 424.494 308.001 425.667 308.622C426.862 309.243 427.793 310.162 428.46 311.381C429.149 312.599 429.494 314.07 429.494 315.794V327H425.598V316.38C425.598 314.679 425.172 313.38 424.322 312.484C423.471 311.565 422.31 311.105 420.839 311.105C419.368 311.105 418.196 311.565 417.322 312.484C416.472 313.38 416.046 314.679 416.046 316.38V327H412.15V316.38C412.15 314.679 411.725 313.38 410.874 312.484C410.024 311.565 408.863 311.105 407.392 311.105C405.921 311.105 404.748 311.565 403.875 312.484C403.024 313.38 402.599 314.679 402.599 316.38V327H398.668V308.001H402.599V310.174C403.243 309.392 404.059 308.783 405.047 308.346C406.036 307.91 407.093 307.691 408.219 307.691C409.736 307.691 411.093 308.013 412.288 308.657C413.483 309.3 414.403 310.231 415.047 311.45C415.621 310.3 416.518 309.392 417.736 308.726C418.954 308.036 420.265 307.691 421.667 307.691Z"
  ></path>
  <path
    style="fill: var(--color-illustrationInterface060)"
    d="M433.186 317.415C433.186 315.507 433.576 313.817 434.358 312.346C435.162 310.875 436.243 309.737 437.599 308.932C438.978 308.105 440.496 307.691 442.151 307.691C443.645 307.691 444.944 307.99 446.047 308.588C447.173 309.162 448.07 309.886 448.736 310.76V308.001H452.702V327H448.736V324.173C448.07 325.069 447.162 325.817 446.012 326.414C444.863 327.012 443.553 327.311 442.082 327.311C440.45 327.311 438.955 326.897 437.599 326.069C436.243 325.219 435.162 324.047 434.358 322.552C433.576 321.035 433.186 319.323 433.186 317.415ZM448.736 317.484C448.736 316.173 448.461 315.036 447.909 314.07C447.38 313.105 446.679 312.369 445.806 311.863C444.932 311.358 443.99 311.105 442.978 311.105C441.967 311.105 441.024 311.358 440.151 311.863C439.277 312.346 438.565 313.07 438.013 314.036C437.484 314.978 437.22 316.104 437.22 317.415C437.22 318.725 437.484 319.874 438.013 320.863C438.565 321.851 439.277 322.61 440.151 323.139C441.047 323.644 441.99 323.897 442.978 323.897C443.99 323.897 444.932 323.644 445.806 323.139C446.679 322.633 447.38 321.897 447.909 320.932C448.461 319.943 448.736 318.794 448.736 317.484Z"
  ></path>
  <path
    style="fill: var(--color-illustrationInterface060)"
    d="M459.865 305.484C459.152 305.484 458.554 305.243 458.072 304.76C457.589 304.278 457.347 303.68 457.347 302.967C457.347 302.255 457.589 301.657 458.072 301.174C458.554 300.692 459.152 300.45 459.865 300.45C460.554 300.45 461.14 300.692 461.623 301.174C462.106 301.657 462.347 302.255 462.347 302.967C462.347 303.68 462.106 304.278 461.623 304.76C461.14 305.243 460.554 305.484 459.865 305.484ZM461.796 308.001V327H457.865V308.001H461.796Z"
  ></path>
  <path
    style="fill: var(--color-illustrationInterface060)"
    d="M470.887 301.485V327H466.956V301.485H470.887Z"
  ></path>
  <path
    style="fill: var(--color-illustrationInterface060)"
    d="M483.695 317.415C483.695 315.507 484.085 313.817 484.867 312.346C485.671 310.875 486.752 309.737 488.108 308.932C489.487 308.105 491.005 307.691 492.66 307.691C494.154 307.691 495.453 307.99 496.556 308.588C497.682 309.162 498.579 309.886 499.245 310.76V308.001H503.211V327H499.245V324.173C498.579 325.069 497.671 325.817 496.521 326.414C495.372 327.012 494.062 327.311 492.591 327.311C490.959 327.311 489.464 326.897 488.108 326.069C486.752 325.219 485.671 324.047 484.867 322.552C484.085 321.035 483.695 319.323 483.695 317.415ZM499.245 317.484C499.245 316.173 498.97 315.036 498.418 314.07C497.889 313.105 497.188 312.369 496.315 311.863C495.441 311.358 494.499 311.105 493.487 311.105C492.476 311.105 491.533 311.358 490.66 311.863C489.786 312.346 489.074 313.07 488.522 314.036C487.993 314.978 487.729 316.104 487.729 317.415C487.729 318.725 487.993 319.874 488.522 320.863C489.074 321.851 489.786 322.61 490.66 323.139C491.556 323.644 492.499 323.897 493.487 323.897C494.499 323.897 495.441 323.644 496.315 323.139C497.188 322.633 497.889 321.897 498.418 320.932C498.97 319.943 499.245 318.794 499.245 317.484Z"
  ></path>
  <path
    style="fill: var(--color-illustrationInterface060)"
    d="M507.063 317.415C507.063 315.507 507.454 313.817 508.236 312.346C509.04 310.875 510.121 309.737 511.477 308.932C512.856 308.105 514.385 307.691 516.063 307.691C517.304 307.691 518.523 307.967 519.718 308.519C520.936 309.047 521.902 309.76 522.614 310.657V301.485H526.58V327H522.614V324.139C521.971 325.058 521.074 325.817 519.925 326.414C518.798 327.012 517.5 327.311 516.028 327.311C514.373 327.311 512.856 326.897 511.477 326.069C510.121 325.219 509.04 324.047 508.236 322.552C507.454 321.035 507.063 319.323 507.063 317.415ZM522.614 317.484C522.614 316.173 522.338 315.036 521.787 314.07C521.258 313.105 520.557 312.369 519.683 311.863C518.81 311.358 517.867 311.105 516.856 311.105C515.845 311.105 514.902 311.358 514.029 311.863C513.155 312.346 512.442 313.07 511.891 314.036C511.362 314.978 511.098 316.104 511.098 317.415C511.098 318.725 511.362 319.874 511.891 320.863C512.442 321.851 513.155 322.61 514.029 323.139C514.925 323.644 515.868 323.897 516.856 323.897C517.867 323.897 518.81 323.644 519.683 323.139C520.557 322.633 521.258 321.897 521.787 320.932C522.338 319.943 522.614 318.794 522.614 317.484Z"
  ></path>
  <path
    style="fill: var(--color-illustrationInterface060)"
    d="M530.432 317.415C530.432 315.507 530.823 313.817 531.605 312.346C532.409 310.875 533.49 309.737 534.846 308.932C536.225 308.105 537.754 307.691 539.432 307.691C540.673 307.691 541.891 307.967 543.087 308.519C544.305 309.047 545.27 309.76 545.983 310.657V301.485H549.948V327H545.983V324.139C545.339 325.058 544.443 325.817 543.294 326.414C542.167 327.012 540.868 327.311 539.397 327.311C537.742 327.311 536.225 326.897 534.846 326.069C533.49 325.219 532.409 324.047 531.605 322.552C530.823 321.035 530.432 319.323 530.432 317.415ZM545.983 317.484C545.983 316.173 545.707 315.036 545.156 314.07C544.627 313.105 543.926 312.369 543.052 311.863C542.179 311.358 541.236 311.105 540.225 311.105C539.213 311.105 538.271 311.358 537.397 311.863C536.524 312.346 535.811 313.07 535.26 314.036C534.731 314.978 534.466 316.104 534.466 317.415C534.466 318.725 534.731 319.874 535.26 320.863C535.811 321.851 536.524 322.61 537.397 323.139C538.294 323.644 539.236 323.897 540.225 323.897C541.236 323.897 542.179 323.644 543.052 323.139C543.926 322.633 544.627 321.897 545.156 320.932C545.707 319.943 545.983 318.794 545.983 317.484Z"
  ></path>
  <path
    style="fill: var(--color-illustrationInterface060)"
    d="M559.042 310.76C559.617 309.794 560.375 309.047 561.318 308.519C562.283 307.967 563.421 307.691 564.731 307.691V311.76H563.732C562.191 311.76 561.019 312.151 560.214 312.932C559.433 313.714 559.042 315.07 559.042 317.001V327H555.111V308.001H559.042V310.76Z"
  ></path>
  <path
    style="fill: var(--color-illustrationInterface060)"
    d="M585.758 317.035C585.758 317.748 585.712 318.392 585.62 318.966H571.103C571.218 320.484 571.781 321.702 572.793 322.621C573.804 323.541 575.045 324.001 576.517 324.001C578.631 324.001 580.126 323.116 580.999 321.346H585.24C584.666 323.093 583.62 324.529 582.103 325.656C580.608 326.759 578.746 327.311 576.517 327.311C574.701 327.311 573.069 326.908 571.62 326.104C570.195 325.276 569.069 324.127 568.241 322.656C567.437 321.162 567.034 319.438 567.034 317.484C567.034 315.53 567.425 313.817 568.207 312.346C569.011 310.852 570.126 309.703 571.551 308.898C573 308.093 574.655 307.691 576.517 307.691C578.31 307.691 579.907 308.082 581.309 308.864C582.712 309.645 583.804 310.748 584.585 312.174C585.367 313.576 585.758 315.196 585.758 317.035ZM581.654 315.794C581.631 314.346 581.114 313.185 580.103 312.312C579.091 311.438 577.838 311.001 576.344 311.001C574.988 311.001 573.827 311.438 572.862 312.312C571.896 313.162 571.322 314.323 571.138 315.794H581.654Z"
  ></path>
  <path
    style="fill: var(--color-illustrationInterface060)"
    d="M596.522 327.311C595.028 327.311 593.683 327.046 592.488 326.518C591.315 325.966 590.384 325.23 589.695 324.311C589.005 323.368 588.637 322.323 588.591 321.173H592.66C592.729 321.978 593.108 322.656 593.798 323.208C594.511 323.736 595.396 324.001 596.453 324.001C597.556 324.001 598.407 323.794 599.005 323.38C599.625 322.943 599.936 322.391 599.936 321.725C599.936 321.012 599.591 320.484 598.901 320.139C598.235 319.794 597.166 319.415 595.694 319.001C594.269 318.61 593.108 318.231 592.212 317.863C591.315 317.495 590.534 316.932 589.867 316.173C589.224 315.415 588.902 314.415 588.902 313.174C588.902 312.162 589.201 311.243 589.798 310.415C590.396 309.565 591.246 308.898 592.35 308.415C593.476 307.933 594.763 307.691 596.212 307.691C598.372 307.691 600.108 308.243 601.418 309.346C602.751 310.427 603.464 311.909 603.556 313.794H599.625C599.556 312.944 599.211 312.266 598.591 311.76C597.97 311.254 597.131 311.001 596.074 311.001C595.039 311.001 594.246 311.197 593.695 311.587C593.143 311.978 592.867 312.495 592.867 313.139C592.867 313.645 593.051 314.07 593.419 314.415C593.786 314.76 594.235 315.036 594.763 315.242C595.292 315.426 596.074 315.668 597.108 315.967C598.487 316.334 599.614 316.714 600.487 317.104C601.384 317.472 602.154 318.024 602.797 318.76C603.441 319.495 603.774 320.472 603.797 321.69C603.797 322.771 603.499 323.736 602.901 324.587C602.303 325.437 601.453 326.104 600.349 326.587C599.269 327.069 597.993 327.311 596.522 327.311Z"
  ></path>
  <path
    style="fill: var(--color-illustrationInterface060)"
    d="M614.941 327.311C613.447 327.311 612.102 327.046 610.907 326.518C609.734 325.966 608.803 325.23 608.114 324.311C607.424 323.368 607.056 322.323 607.01 321.173H611.079C611.148 321.978 611.527 322.656 612.217 323.208C612.93 323.736 613.815 324.001 614.872 324.001C615.975 324.001 616.826 323.794 617.424 323.38C618.044 322.943 618.355 322.391 618.355 321.725C618.355 321.012 618.01 320.484 617.32 320.139C616.653 319.794 615.585 319.415 614.113 319.001C612.688 318.61 611.527 318.231 610.631 317.863C609.734 317.495 608.953 316.932 608.286 316.173C607.642 315.415 607.321 314.415 607.321 313.174C607.321 312.162 607.619 311.243 608.217 310.415C608.815 309.565 609.665 308.898 610.769 308.415C611.895 307.933 613.182 307.691 614.631 307.691C616.791 307.691 618.527 308.243 619.837 309.346C621.17 310.427 621.883 311.909 621.975 313.794H618.044C617.975 312.944 617.63 312.266 617.01 311.76C616.389 311.254 615.55 311.001 614.493 311.001C613.458 311.001 612.665 311.197 612.113 311.587C611.562 311.978 611.286 312.495 611.286 313.139C611.286 313.645 611.47 314.07 611.838 314.415C612.205 314.76 612.654 315.036 613.182 315.242C613.711 315.426 614.493 315.668 615.527 315.967C616.906 316.334 618.033 316.714 618.906 317.104C619.803 317.472 620.573 318.024 621.216 318.76C621.86 319.495 622.193 320.472 622.216 321.69C622.216 322.771 621.918 323.736 621.32 324.587C620.722 325.437 619.872 326.104 618.768 326.587C617.688 327.069 616.412 327.311 614.941 327.311Z"
  ></path>
</svg>
