<svg id="nksvg" style="width: 100%; height: 100%" width="1490" height="838" viewBox="0 0 1490 838" fill="none" xmlns="http://www.w3.org/2000/svg" class="css-0">
  <rect style="fill: var(--color-illustrationBackground010)" width="1490" height="838"></rect>
  <path style="fill: var(--color-interactiveNegative030)" d="M216.119 566.975L200.804 596.256V613.999H194.664V596.256L179.282 566.975H186.096L197.7 590.791L209.304 566.975H216.119Z"></path>
  <path style="fill: var(--color-interactiveNegative030)" d="M238.719 614.607C235.255 614.607 232.107 613.819 229.273 612.245C226.485 610.671 224.281 608.445 222.662 605.566C221.088 602.643 220.3 599.269 220.3 595.446C220.3 591.668 221.11 588.34 222.729 585.461C224.393 582.538 226.642 580.311 229.476 578.782C232.309 577.208 235.48 576.421 238.989 576.421C242.497 576.421 245.668 577.208 248.501 578.782C251.335 580.311 253.561 582.515 255.181 585.394C256.845 588.272 257.677 591.623 257.677 595.446C257.677 599.269 256.822 602.643 255.113 605.566C253.449 608.445 251.178 610.671 248.299 612.245C245.42 613.819 242.227 614.607 238.719 614.607ZM238.719 609.209C240.923 609.209 242.992 608.692 244.926 607.658C246.86 606.623 248.411 605.071 249.581 603.002C250.795 600.933 251.402 598.415 251.402 595.446C251.402 592.478 250.818 589.959 249.648 587.89C248.479 585.821 246.95 584.292 245.061 583.302C243.172 582.268 241.125 581.75 238.921 581.75C236.672 581.75 234.603 582.268 232.714 583.302C230.87 584.292 229.386 585.821 228.261 587.89C227.137 589.959 226.575 592.478 226.575 595.446C226.575 598.46 227.115 601.001 228.194 603.07C229.318 605.139 230.803 606.691 232.647 607.725C234.491 608.715 236.515 609.209 238.719 609.209Z"></path>
  <path style="fill: var(--color-interactiveNegative030)" d="M298.538 577.028V613.999H292.398V608.535C291.229 610.424 289.587 611.908 287.473 612.987C285.404 614.022 283.11 614.539 280.592 614.539C277.713 614.539 275.127 613.954 272.833 612.785C270.539 611.571 268.718 609.771 267.368 607.388C266.064 605.004 265.412 602.103 265.412 598.685V577.028H271.484V597.875C271.484 601.518 272.406 604.329 274.25 606.308C276.094 608.242 278.613 609.209 281.806 609.209C285.089 609.209 287.676 608.197 289.565 606.173C291.454 604.149 292.398 601.203 292.398 597.335V577.028H298.538Z"></path>
  <path style="fill: var(--color-interactiveNegative030)" d="M344.904 576.353C349.402 576.353 353.045 577.725 355.834 580.469C358.622 583.167 360.017 587.08 360.017 592.208V613.999H353.945V593.085C353.945 589.397 353.023 586.586 351.178 584.651C349.334 582.672 346.816 581.683 343.622 581.683C340.384 581.683 337.798 582.695 335.864 584.719C333.975 586.743 333.03 589.689 333.03 593.557V613.999H326.891V577.028H333.03V582.29C334.244 580.401 335.886 578.939 337.955 577.905C340.069 576.87 342.385 576.353 344.904 576.353Z"></path>
  <path style="fill: var(--color-interactiveNegative030)" d="M403.779 594.097C403.779 595.266 403.711 596.503 403.576 597.807H374.026C374.251 601.451 375.488 604.307 377.737 606.376C380.03 608.4 382.797 609.412 386.035 609.412C388.689 609.412 390.892 608.804 392.647 607.59C394.446 606.331 395.705 604.667 396.425 602.598H403.036C402.047 606.151 400.068 609.052 397.099 611.301C394.131 613.505 390.443 614.607 386.035 614.607C382.527 614.607 379.378 613.819 376.59 612.245C373.846 610.671 371.687 608.445 370.113 605.566C368.539 602.643 367.751 599.269 367.751 595.446C367.751 591.623 368.516 588.272 370.045 585.394C371.575 582.515 373.711 580.311 376.455 578.782C379.243 577.208 382.437 576.421 386.035 576.421C389.543 576.421 392.647 577.185 395.345 578.714C398.044 580.244 400.113 582.358 401.552 585.056C403.036 587.71 403.779 590.723 403.779 594.097ZM397.437 592.815C397.437 590.476 396.919 588.475 395.885 586.81C394.851 585.101 393.434 583.819 391.635 582.965C389.88 582.065 387.924 581.615 385.765 581.615C382.662 581.615 380.008 582.605 377.804 584.584C375.645 586.563 374.408 589.307 374.093 592.815H397.437Z"></path>
  <path style="fill: var(--color-interactiveNegative030)" d="M445.616 594.097C445.616 595.266 445.548 596.503 445.413 597.807H415.863C416.088 601.451 417.325 604.307 419.574 606.376C421.867 608.4 424.634 609.412 427.872 609.412C430.526 609.412 432.73 608.804 434.484 607.59C436.283 606.331 437.542 604.667 438.262 602.598H444.874C443.884 606.151 441.905 609.052 438.936 611.301C435.968 613.505 432.28 614.607 427.872 614.607C424.364 614.607 421.215 613.819 418.427 612.245C415.683 610.671 413.524 608.445 411.95 605.566C410.376 602.643 409.589 599.269 409.589 595.446C409.589 591.623 410.353 588.272 411.882 585.394C413.412 582.515 415.548 580.311 418.292 578.782C421.08 577.208 424.274 576.421 427.872 576.421C431.38 576.421 434.484 577.185 437.182 578.714C439.881 580.244 441.95 582.358 443.389 585.056C444.874 587.71 445.616 590.723 445.616 594.097ZM439.274 592.815C439.274 590.476 438.757 588.475 437.722 586.81C436.688 585.101 435.271 583.819 433.472 582.965C431.718 582.065 429.761 581.615 427.602 581.615C424.499 581.615 421.845 582.605 419.641 584.584C417.482 586.563 416.245 589.307 415.93 592.815H439.274Z"></path>
  <path style="fill: var(--color-interactiveNegative030)" d="M451.426 595.379C451.426 591.601 452.19 588.295 453.72 585.461C455.249 582.583 457.34 580.356 459.994 578.782C462.693 577.208 465.706 576.421 469.034 576.421C471.913 576.421 474.589 577.095 477.063 578.445C479.537 579.749 481.426 581.481 482.73 583.639V564.074H488.937V613.999H482.73V607.05C481.516 609.254 479.717 611.076 477.333 612.515C474.949 613.909 472.16 614.607 468.967 614.607C465.684 614.607 462.693 613.797 459.994 612.178C457.34 610.559 455.249 608.287 453.72 605.364C452.19 602.44 451.426 599.112 451.426 595.379ZM482.73 595.446C482.73 592.658 482.168 590.229 481.043 588.16C479.919 586.091 478.39 584.517 476.456 583.437C474.567 582.313 472.475 581.75 470.181 581.75C467.888 581.75 465.796 582.29 463.907 583.37C462.018 584.449 460.511 586.023 459.387 588.092C458.262 590.161 457.7 592.59 457.7 595.379C457.7 598.212 458.262 600.686 459.387 602.8C460.511 604.869 462.018 606.466 463.907 607.59C465.796 608.67 467.888 609.209 470.181 609.209C472.475 609.209 474.567 608.67 476.456 607.59C478.39 606.466 479.919 604.869 481.043 602.8C482.168 600.686 482.73 598.235 482.73 595.446Z"></path>
  <path style="fill: var(--color-interactiveNegative030)" d="M524.788 582.088V603.879C524.788 605.679 525.17 606.96 525.934 607.725C526.699 608.445 528.026 608.804 529.915 608.804H534.435V613.999H528.903C525.485 613.999 522.921 613.212 521.212 611.638C519.503 610.064 518.648 607.478 518.648 603.879V582.088H513.858V577.028H518.648V567.717H524.788V577.028H534.435V582.088H524.788Z"></path>
  <path style="fill: var(--color-interactiveNegative030)" d="M557.998 614.607C554.535 614.607 551.387 613.819 548.553 612.245C545.765 610.671 543.561 608.445 541.941 605.566C540.367 602.643 539.58 599.269 539.58 595.446C539.58 591.668 540.39 588.34 542.009 585.461C543.673 582.538 545.922 580.311 548.756 578.782C551.589 577.208 554.76 576.421 558.268 576.421C561.777 576.421 564.947 577.208 567.781 578.782C570.615 580.311 572.841 582.515 574.46 585.394C576.124 588.272 576.957 591.623 576.957 595.446C576.957 599.269 576.102 602.643 574.393 605.566C572.729 608.445 570.457 610.671 567.579 612.245C564.7 613.819 561.507 614.607 557.998 614.607ZM557.998 609.209C560.202 609.209 562.271 608.692 564.205 607.658C566.139 606.623 567.691 605.071 568.861 603.002C570.075 600.933 570.682 598.415 570.682 595.446C570.682 592.478 570.097 589.959 568.928 587.89C567.759 585.821 566.229 584.292 564.34 583.302C562.451 582.268 560.405 581.75 558.201 581.75C555.952 581.75 553.883 582.268 551.994 583.302C550.15 584.292 548.666 585.821 547.541 587.89C546.417 589.959 545.854 592.478 545.854 595.446C545.854 598.46 546.394 601.001 547.474 603.07C548.598 605.139 550.082 606.691 551.926 607.725C553.771 608.715 555.795 609.209 557.998 609.209Z"></path>
  <path style="fill: var(--color-interactiveNegative030)" d="M600.722 595.379C600.722 591.601 601.486 588.295 603.015 585.461C604.545 582.583 606.636 580.356 609.29 578.782C611.988 577.208 614.979 576.421 618.263 576.421C621.501 576.421 624.312 577.118 626.696 578.512C629.08 579.906 630.857 581.66 632.026 583.774V577.028H638.233V613.999H632.026V607.118C630.812 609.277 628.99 611.076 626.561 612.515C624.177 613.909 621.389 614.607 618.195 614.607C614.912 614.607 611.943 613.797 609.29 612.178C606.636 610.559 604.545 608.287 603.015 605.364C601.486 602.44 600.722 599.112 600.722 595.379ZM632.026 595.446C632.026 592.658 631.464 590.229 630.339 588.16C629.215 586.091 627.686 584.517 625.752 583.437C623.863 582.313 621.771 581.75 619.477 581.75C617.183 581.75 615.092 582.29 613.203 583.37C611.314 584.449 609.807 586.023 608.683 588.092C607.558 590.161 606.996 592.59 606.996 595.379C606.996 598.212 607.558 600.686 608.683 602.8C609.807 604.869 611.314 606.466 613.203 607.59C615.092 608.67 617.183 609.209 619.477 609.209C621.771 609.209 623.863 608.67 625.752 607.59C627.686 606.466 629.215 604.869 630.339 602.8C631.464 600.686 632.026 598.235 632.026 595.446Z"></path>
  <path style="fill: var(--color-interactiveNegative030)" d="M646.314 595.446C646.314 591.623 647.079 588.295 648.608 585.461C650.137 582.583 652.251 580.356 654.95 578.782C657.693 577.208 660.819 576.421 664.328 576.421C668.87 576.421 672.604 577.523 675.527 579.726C678.496 581.93 680.452 584.989 681.397 588.902H674.785C674.155 586.653 672.918 584.876 671.074 583.572C669.275 582.268 667.026 581.615 664.328 581.615C660.819 581.615 657.986 582.83 655.827 585.259C653.668 587.642 652.589 591.038 652.589 595.446C652.589 599.899 653.668 603.34 655.827 605.768C657.986 608.197 660.819 609.412 664.328 609.412C667.026 609.412 669.275 608.782 671.074 607.523C672.873 606.263 674.11 604.464 674.785 602.125H681.397C680.407 605.903 678.428 608.939 675.46 611.233C672.491 613.482 668.78 614.607 664.328 614.607C660.819 614.607 657.693 613.819 654.95 612.245C652.251 610.671 650.137 608.445 648.608 605.566C647.079 602.688 646.314 599.314 646.314 595.446Z"></path>
  <path style="fill: var(--color-interactiveNegative030)" d="M687.295 595.446C687.295 591.623 688.059 588.295 689.589 585.461C691.118 582.583 693.232 580.356 695.93 578.782C698.674 577.208 701.8 576.421 705.308 576.421C709.851 576.421 713.584 577.523 716.508 579.726C719.476 581.93 721.433 584.989 722.377 588.902H715.766C715.136 586.653 713.899 584.876 712.055 583.572C710.256 582.268 708.007 581.615 705.308 581.615C701.8 581.615 698.966 582.83 696.807 585.259C694.649 587.642 693.569 591.038 693.569 595.446C693.569 599.899 694.649 603.34 696.807 605.768C698.966 608.197 701.8 609.412 705.308 609.412C708.007 609.412 710.256 608.782 712.055 607.523C713.854 606.263 715.091 604.464 715.766 602.125H722.377C721.388 605.903 719.409 608.939 716.44 611.233C713.472 613.482 709.761 614.607 705.308 614.607C701.8 614.607 698.674 613.819 695.93 612.245C693.232 610.671 691.118 608.445 689.589 605.566C688.059 602.688 687.295 599.314 687.295 595.446Z"></path>
  <path style="fill: var(--color-interactiveNegative030)" d="M764.302 594.097C764.302 595.266 764.235 596.503 764.1 597.807H734.55C734.775 601.451 736.011 604.307 738.26 606.376C740.554 608.4 743.32 609.412 746.559 609.412C749.212 609.412 751.416 608.804 753.17 607.59C754.97 606.331 756.229 604.667 756.949 602.598H763.56C762.571 606.151 760.592 609.052 757.623 611.301C754.655 613.505 750.967 614.607 746.559 614.607C743.05 614.607 739.902 613.819 737.113 612.245C734.37 610.671 732.211 608.445 730.637 605.566C729.062 602.643 728.275 599.269 728.275 595.446C728.275 591.623 729.04 588.272 730.569 585.394C732.098 582.515 734.235 580.311 736.979 578.782C739.767 577.208 742.961 576.421 746.559 576.421C750.067 576.421 753.17 577.185 755.869 578.714C758.568 580.244 760.637 582.358 762.076 585.056C763.56 587.71 764.302 590.723 764.302 594.097ZM757.961 592.815C757.961 590.476 757.443 588.475 756.409 586.81C755.374 585.101 753.958 583.819 752.158 582.965C750.404 582.065 748.448 581.615 746.289 581.615C743.185 581.615 740.532 582.605 738.328 584.584C736.169 586.563 734.932 589.307 734.617 592.815H757.961Z"></path>
  <path style="fill: var(--color-interactiveNegative030)" d="M778.546 583.842C779.76 581.728 781.559 579.974 783.943 578.58C786.372 577.14 789.183 576.421 792.376 576.421C795.66 576.421 798.628 577.208 801.282 578.782C803.981 580.356 806.095 582.583 807.624 585.461C809.153 588.295 809.918 591.601 809.918 595.379C809.918 599.112 809.153 602.44 807.624 605.364C806.095 608.287 803.981 610.559 801.282 612.178C798.628 613.797 795.66 614.607 792.376 614.607C789.228 614.607 786.439 613.909 784.01 612.515C781.627 611.076 779.805 609.299 778.546 607.185V631.541H772.406V577.028H778.546V583.842ZM803.643 595.379C803.643 592.59 803.081 590.161 801.957 588.092C800.832 586.023 799.303 584.449 797.369 583.37C795.48 582.29 793.388 581.75 791.094 581.75C788.846 581.75 786.754 582.313 784.82 583.437C782.931 584.517 781.402 586.113 780.232 588.227C779.108 590.296 778.546 592.702 778.546 595.446C778.546 598.235 779.108 600.686 780.232 602.8C781.402 604.869 782.931 606.466 784.82 607.59C786.754 608.67 788.846 609.209 791.094 609.209C793.388 609.209 795.48 608.67 797.369 607.59C799.303 606.466 800.832 604.869 801.957 602.8C803.081 600.686 803.643 598.212 803.643 595.379Z"></path>
  <path style="fill: var(--color-interactiveNegative030)" d="M825.488 582.088V603.879C825.488 605.679 825.87 606.96 826.635 607.725C827.399 608.445 828.726 608.804 830.615 608.804H835.135V613.999H829.603C826.185 613.999 823.621 613.212 821.912 611.638C820.203 610.064 819.348 607.478 819.348 603.879V582.088H814.558V577.028H819.348V567.717H825.488V577.028H835.135V582.088H825.488Z"></path>
  <path style="fill: var(--color-interactiveNegative030)" d="M868.049 582.088V603.879C868.049 605.679 868.432 606.96 869.196 607.725C869.961 608.445 871.288 608.804 873.177 608.804H877.697V613.999H872.165C868.747 613.999 866.183 613.212 864.474 611.638C862.765 610.064 861.91 607.478 861.91 603.879V582.088H857.12V577.028H861.91V567.717H868.049V577.028H877.697V582.088H868.049Z"></path>
  <path style="fill: var(--color-interactiveNegative030)" d="M903.487 576.353C906.275 576.353 908.794 576.96 911.043 578.175C913.292 579.344 915.046 581.121 916.305 583.505C917.61 585.888 918.262 588.789 918.262 592.208V613.999H912.19V593.085C912.19 589.397 911.268 586.586 909.424 584.651C907.58 582.672 905.061 581.683 901.867 581.683C898.629 581.683 896.043 582.695 894.109 584.719C892.22 586.743 891.275 589.689 891.275 593.557V613.999H885.136V564.074H891.275V582.29C892.49 580.401 894.154 578.939 896.268 577.905C898.427 576.87 900.833 576.353 903.487 576.353Z"></path>
  <path style="fill: var(--color-interactiveNegative030)" d="M962.024 594.097C962.024 595.266 961.956 596.503 961.822 597.807H932.271C932.496 601.451 933.733 604.307 935.982 606.376C938.276 608.4 941.042 609.412 944.28 609.412C946.934 609.412 949.138 608.804 950.892 607.59C952.691 606.331 953.95 604.667 954.67 602.598H961.282C960.292 606.151 958.313 609.052 955.345 611.301C952.376 613.505 948.688 614.607 944.28 614.607C940.772 614.607 937.624 613.819 934.835 612.245C932.091 610.671 929.932 608.445 928.358 605.566C926.784 602.643 925.997 599.269 925.997 595.446C925.997 591.623 926.761 588.272 928.291 585.394C929.82 582.515 931.956 580.311 934.7 578.782C937.489 577.208 940.682 576.421 944.28 576.421C947.788 576.421 950.892 577.185 953.591 578.714C956.289 580.244 958.358 582.358 959.797 585.056C961.282 587.71 962.024 590.723 962.024 594.097ZM955.682 592.815C955.682 590.476 955.165 588.475 954.13 586.81C953.096 585.101 951.679 583.819 949.88 582.965C948.126 582.065 946.169 581.615 944.01 581.615C940.907 581.615 938.253 582.605 936.049 584.584C933.89 586.563 932.654 589.307 932.339 592.815H955.682Z"></path>
  <path style="fill: var(--color-interactiveNegative030)" d="M995.603 582.088V603.879C995.603 605.679 995.985 606.96 996.75 607.725C997.515 608.445 998.842 608.804 1000.73 608.804H1005.25V613.999H999.719C996.3 613.999 993.737 613.212 992.027 611.638C990.318 610.064 989.464 607.478 989.464 603.879V582.088H984.674V577.028H989.464V567.717H995.603V577.028H1005.25V582.088H995.603Z"></path>
  <path style="fill: var(--color-interactiveNegative030)" d="M1046.42 594.097C1046.42 595.266 1046.36 596.503 1046.22 597.807H1016.67C1016.9 601.451 1018.13 604.307 1020.38 606.376C1022.67 608.4 1025.44 609.412 1028.68 609.412C1031.33 609.412 1033.54 608.804 1035.29 607.59C1037.09 606.331 1038.35 604.667 1039.07 602.598H1045.68C1044.69 606.151 1042.71 609.052 1039.74 611.301C1036.78 613.505 1033.09 614.607 1028.68 614.607C1025.17 614.607 1022.02 613.819 1019.23 612.245C1016.49 610.671 1014.33 608.445 1012.76 605.566C1011.18 602.643 1010.4 599.269 1010.4 595.446C1010.4 591.623 1011.16 588.272 1012.69 585.394C1014.22 582.515 1016.36 580.311 1019.1 578.782C1021.89 577.208 1025.08 576.421 1028.68 576.421C1032.19 576.421 1035.29 577.185 1037.99 578.714C1040.69 580.244 1042.76 582.358 1044.2 585.056C1045.68 587.71 1046.42 590.723 1046.42 594.097ZM1040.08 592.815C1040.08 590.476 1039.56 588.475 1038.53 586.81C1037.49 585.101 1036.08 583.819 1034.28 582.965C1032.52 582.065 1030.57 581.615 1028.41 581.615C1025.31 581.615 1022.65 582.605 1020.45 584.584C1018.29 586.563 1017.05 589.307 1016.74 592.815H1040.08Z"></path>
  <path style="fill: var(--color-interactiveNegative030)" d="M1060.67 583.032C1061.75 580.918 1063.27 579.277 1065.25 578.107C1067.28 576.938 1069.73 576.353 1072.61 576.353V582.695H1070.99C1064.11 582.695 1060.67 586.428 1060.67 593.894V613.999H1054.53V577.028H1060.67V583.032Z"></path>
  <path style="fill: var(--color-interactiveNegative030)" d="M1124.16 576.353C1127.03 576.353 1129.6 576.96 1131.85 578.175C1134.1 579.344 1135.87 581.121 1137.18 583.505C1138.48 585.888 1139.13 588.789 1139.13 592.208V613.999H1133.06V593.085C1133.06 589.397 1132.14 586.586 1130.29 584.651C1128.5 582.672 1126.04 581.683 1122.94 581.683C1119.75 581.683 1117.21 582.717 1115.32 584.786C1113.43 586.81 1112.48 589.756 1112.48 593.625V613.999H1106.41V593.085C1106.41 589.397 1105.49 586.586 1103.65 584.651C1101.85 582.672 1099.4 581.683 1096.29 581.683C1093.1 581.683 1090.56 582.717 1088.67 584.786C1086.78 586.81 1085.83 589.756 1085.83 593.625V613.999H1079.69V577.028H1085.83V582.358C1087.05 580.424 1088.67 578.939 1090.69 577.905C1092.76 576.87 1095.03 576.353 1097.51 576.353C1100.61 576.353 1103.35 577.05 1105.74 578.445C1108.12 579.839 1109.9 581.885 1111.07 584.584C1112.1 581.975 1113.81 579.951 1116.19 578.512C1118.58 577.073 1121.23 576.353 1124.16 576.353Z"></path>
  <path style="fill: var(--color-interactiveNegative030)" d="M1162.29 614.607C1159.46 614.607 1156.92 614.134 1154.67 613.19C1152.42 612.2 1150.64 610.851 1149.34 609.142C1148.03 607.388 1147.31 605.386 1147.18 603.137H1153.52C1153.7 604.981 1154.56 606.488 1156.09 607.658C1157.66 608.827 1159.71 609.412 1162.22 609.412C1164.56 609.412 1166.41 608.894 1167.76 607.86C1169.11 606.825 1169.78 605.521 1169.78 603.947C1169.78 602.328 1169.06 601.136 1167.62 600.371C1166.18 599.562 1163.96 598.774 1160.94 598.01C1158.2 597.29 1155.95 596.571 1154.2 595.851C1152.49 595.086 1151 593.984 1149.74 592.545C1148.53 591.061 1147.92 589.127 1147.92 586.743C1147.92 584.854 1148.48 583.122 1149.61 581.548C1150.73 579.974 1152.33 578.737 1154.4 577.837C1156.47 576.893 1158.83 576.421 1161.48 576.421C1165.58 576.421 1168.88 577.455 1171.4 579.524C1173.92 581.593 1175.27 584.427 1175.45 588.025H1169.31C1169.17 586.091 1168.39 584.539 1166.95 583.37C1165.55 582.2 1163.66 581.615 1161.28 581.615C1159.08 581.615 1157.32 582.088 1156.02 583.032C1154.71 583.977 1154.06 585.214 1154.06 586.743C1154.06 587.957 1154.44 588.969 1155.21 589.779C1156.02 590.544 1157.01 591.173 1158.18 591.668C1159.39 592.118 1161.06 592.635 1163.17 593.22C1165.82 593.939 1167.98 594.659 1169.65 595.379C1171.31 596.053 1172.73 597.088 1173.9 598.482C1175.11 599.876 1175.74 601.698 1175.79 603.947C1175.79 605.971 1175.22 607.792 1174.1 609.412C1172.97 611.031 1171.38 612.313 1169.31 613.257C1167.28 614.157 1164.95 614.607 1162.29 614.607Z"></path>
  <path style="fill: var(--color-illustrationHighlight010)" d="M364.758 212.731V266.999H355.856V212.731H364.758Z"></path>
  <path style="fill: var(--color-illustrationHighlight010)" d="M454.51 223.975L441.158 266.999H431.787L423.12 235.219L414.453 266.999H405.083L391.653 223.975H400.71L409.69 258.566L418.826 223.975H428.118L436.863 258.41L445.764 223.975H454.51Z"></path>
  <path style="fill: var(--color-illustrationHighlight010)" d="M479.824 267.702C475.764 267.702 472.094 266.791 468.814 264.969C465.535 263.095 462.958 260.492 461.084 257.161C459.21 253.777 458.273 249.873 458.273 245.448C458.273 241.076 459.236 237.197 461.162 233.814C463.088 230.43 465.717 227.827 469.049 226.005C472.38 224.184 476.102 223.273 480.214 223.273C484.327 223.273 488.049 224.184 491.38 226.005C494.712 227.827 497.341 230.43 499.267 233.814C501.193 237.197 502.156 241.076 502.156 245.448C502.156 249.821 501.167 253.699 499.189 257.083C497.211 260.466 494.504 263.095 491.068 264.969C487.684 266.791 483.936 267.702 479.824 267.702ZM479.824 259.972C482.115 259.972 484.249 259.425 486.227 258.332C488.257 257.239 489.897 255.599 491.146 253.413C492.396 251.226 493.02 248.572 493.02 245.448C493.02 242.325 492.422 239.696 491.224 237.562C490.027 235.375 488.439 233.736 486.461 232.643C484.483 231.549 482.349 231.003 480.058 231.003C477.768 231.003 475.634 231.549 473.655 232.643C471.729 233.736 470.194 235.375 469.049 237.562C467.903 239.696 467.331 242.325 467.331 245.448C467.331 250.081 468.502 253.673 470.844 256.224C473.239 258.722 476.232 259.972 479.824 259.972Z"></path>
  <path style="fill: var(--color-illustrationHighlight010)" d="M549.919 223.975V266.999H541.018V261.924C539.612 263.694 537.764 265.099 535.474 266.14C533.235 267.129 530.841 267.624 528.29 267.624C524.907 267.624 521.861 266.921 519.154 265.516C516.5 264.11 514.391 262.028 512.83 259.269C511.32 256.51 510.565 253.179 510.565 249.274V223.975H519.389V247.947C519.389 251.799 520.352 254.766 522.278 256.848C524.204 258.879 526.833 259.894 530.164 259.894C533.496 259.894 536.125 258.879 538.051 256.848C540.029 254.766 541.018 251.799 541.018 247.947V223.975H549.919Z"></path>
  <path style="fill: var(--color-illustrationHighlight010)" d="M570.566 209.218V266.999H561.664V209.218H570.566Z"></path>
  <path style="fill: var(--color-illustrationHighlight010)" d="M579.285 245.292C579.285 240.971 580.17 237.145 581.94 233.814C583.762 230.482 586.209 227.905 589.28 226.084C592.403 224.21 595.865 223.273 599.665 223.273C602.476 223.273 605.235 223.897 607.942 225.147C610.701 226.344 612.887 227.958 614.501 229.988V209.218H623.481V266.999H614.501V260.518C613.043 262.601 611.013 264.318 608.41 265.672C605.86 267.025 602.919 267.702 599.587 267.702C595.839 267.702 592.403 266.765 589.28 264.891C586.209 262.965 583.762 260.31 581.94 256.927C580.17 253.491 579.285 249.613 579.285 245.292ZM614.501 245.448C614.501 242.481 613.876 239.904 612.627 237.718C611.43 235.532 609.842 233.866 607.864 232.721C605.886 231.575 603.751 231.003 601.461 231.003C599.171 231.003 597.036 231.575 595.058 232.721C593.08 233.814 591.466 235.454 590.217 237.64C589.02 239.774 588.421 242.325 588.421 245.292C588.421 248.259 589.02 250.862 590.217 253.1C591.466 255.339 593.08 257.057 595.058 258.254C597.088 259.399 599.223 259.972 601.461 259.972C603.751 259.972 605.886 259.399 607.864 258.254C609.842 257.109 611.43 255.443 612.627 253.257C613.876 251.018 614.501 248.415 614.501 245.448Z"></path>
  <path style="fill: var(--color-illustrationHighlight010)" d="M664.357 209.218V266.999H655.456V209.218H664.357Z"></path>
  <path style="fill: var(--color-illustrationHighlight010)" d="M680.573 218.275C678.959 218.275 677.606 217.729 676.513 216.635C675.42 215.542 674.873 214.189 674.873 212.575C674.873 210.961 675.42 209.608 676.513 208.515C677.606 207.422 678.959 206.875 680.573 206.875C682.135 206.875 683.462 207.422 684.555 208.515C685.648 209.608 686.195 210.961 686.195 212.575C686.195 214.189 685.648 215.542 684.555 216.635C683.462 217.729 682.135 218.275 680.573 218.275ZM684.946 223.975V266.999H676.044V223.975H684.946Z"></path>
  <path style="fill: var(--color-illustrationHighlight010)" d="M713.655 245.526L733.488 266.999H721.463L705.534 248.493V266.999H696.633V209.218H705.534V242.793L721.151 223.975H733.488L713.655 245.526Z"></path>
  <path style="fill: var(--color-illustrationHighlight010)" d="M779.3 244.433C779.3 246.047 779.196 247.504 778.988 248.806H746.115C746.375 252.242 747.651 255 749.941 257.083C752.231 259.165 755.042 260.206 758.374 260.206C763.163 260.206 766.547 258.202 768.525 254.194H778.129C776.828 258.15 774.459 261.403 771.024 263.954C767.64 266.453 763.423 267.702 758.374 267.702C754.262 267.702 750.566 266.791 747.286 264.969C744.059 263.095 741.508 260.492 739.634 257.161C737.812 253.777 736.901 249.873 736.901 245.448C736.901 241.024 737.786 237.145 739.556 233.814C741.378 230.43 743.903 227.827 747.13 226.005C750.41 224.184 754.158 223.273 758.374 223.273C762.434 223.273 766.052 224.157 769.228 225.927C772.403 227.697 774.876 230.196 776.646 233.423C778.415 236.599 779.3 240.269 779.3 244.433ZM770.009 241.622C769.956 238.343 768.785 235.714 766.495 233.736C764.204 231.758 761.367 230.769 757.984 230.769C754.912 230.769 752.284 231.758 750.097 233.736C747.911 235.662 746.609 238.291 746.193 241.622H770.009Z"></path>
  <path style="fill: var(--color-illustrationHighlight010)" d="M818.729 231.237V255.053C818.729 256.666 819.093 257.837 819.822 258.566C820.603 259.243 821.904 259.581 823.726 259.581H829.192V266.999H822.165C818.156 266.999 815.085 266.062 812.951 264.188C810.816 262.314 809.749 259.269 809.749 255.053V231.237H804.674V223.975H809.749V213.278H818.729V223.975H829.192V231.237H818.729Z"></path>
  <path style="fill: var(--color-illustrationHighlight010)" d="M856.058 267.702C851.998 267.702 848.328 266.791 845.049 264.969C841.769 263.095 839.192 260.492 837.318 257.161C835.444 253.777 834.507 249.873 834.507 245.448C834.507 241.076 835.47 237.197 837.396 233.814C839.322 230.43 841.951 227.827 845.283 226.005C848.614 224.184 852.336 223.273 856.449 223.273C860.561 223.273 864.283 224.184 867.615 226.005C870.946 227.827 873.575 230.43 875.501 233.814C877.427 237.197 878.39 241.076 878.39 245.448C878.39 249.821 877.401 253.699 875.423 257.083C873.445 260.466 870.738 263.095 867.302 264.969C863.919 266.791 860.171 267.702 856.058 267.702ZM856.058 259.972C858.349 259.972 860.483 259.425 862.461 258.332C864.491 257.239 866.131 255.599 867.38 253.413C868.63 251.226 869.254 248.572 869.254 245.448C869.254 242.325 868.656 239.696 867.458 237.562C866.261 235.375 864.674 233.736 862.695 232.643C860.717 231.549 858.583 231.003 856.293 231.003C854.002 231.003 851.868 231.549 849.89 232.643C847.964 233.736 846.428 235.375 845.283 237.562C844.138 239.696 843.565 242.325 843.565 245.448C843.565 250.081 844.736 253.673 847.079 256.224C849.473 258.722 852.466 259.972 856.058 259.972Z"></path>
  <path style="fill: var(--color-illustrationHighlight010)" d="M929.727 223.273C933.006 223.273 935.922 223.975 938.472 225.381C941.075 226.786 943.105 228.869 944.563 231.627C946.073 234.386 946.827 237.718 946.827 241.622V266.999H938.004V242.95C938.004 239.097 937.041 236.156 935.115 234.126C933.189 232.044 930.56 231.003 927.228 231.003C923.897 231.003 921.242 232.044 919.264 234.126C917.338 236.156 916.375 239.097 916.375 242.95V266.999H907.473V209.218H916.375V228.973C917.884 227.151 919.784 225.745 922.075 224.756C924.417 223.767 926.968 223.273 929.727 223.273Z"></path>
  <path style="fill: var(--color-illustrationHighlight010)" d="M997.614 244.433C997.614 246.047 997.51 247.504 997.302 248.806H964.428C964.689 252.242 965.964 255 968.254 257.083C970.545 259.165 973.356 260.206 976.688 260.206C981.477 260.206 984.86 258.202 986.838 254.194H996.443C995.141 258.15 992.773 261.403 989.337 263.954C985.953 266.453 981.737 267.702 976.688 267.702C972.575 267.702 968.879 266.791 965.6 264.969C962.372 263.095 959.821 260.492 957.947 257.161C956.125 253.777 955.215 249.873 955.215 245.448C955.215 241.024 956.099 237.145 957.869 233.814C959.691 230.43 962.216 227.827 965.443 226.005C968.723 224.184 972.471 223.273 976.688 223.273C980.748 223.273 984.366 224.157 987.541 225.927C990.716 227.697 993.189 230.196 994.959 233.423C996.729 236.599 997.614 240.269 997.614 244.433ZM988.322 241.622C988.27 238.343 987.099 235.714 984.808 233.736C982.518 231.758 979.681 230.769 976.297 230.769C973.226 230.769 970.597 231.758 968.411 233.736C966.224 235.662 964.923 238.291 964.506 241.622H988.322Z"></path>
  <path style="fill: var(--color-illustrationHighlight010)" d="M1003.41 245.292C1003.41 240.971 1004.29 237.145 1006.06 233.814C1007.88 230.482 1010.33 227.905 1013.4 226.084C1016.52 224.21 1019.96 223.273 1023.71 223.273C1027.09 223.273 1030.03 223.949 1032.53 225.303C1035.08 226.604 1037.11 228.244 1038.62 230.222V223.975H1047.6V266.999H1038.62V260.596C1037.11 262.627 1035.06 264.318 1032.45 265.672C1029.85 267.025 1026.88 267.702 1023.55 267.702C1019.86 267.702 1016.47 266.765 1013.4 264.891C1010.33 262.965 1007.88 260.31 1006.06 256.927C1004.29 253.491 1003.41 249.613 1003.41 245.292ZM1038.62 245.448C1038.62 242.481 1038 239.904 1036.75 237.718C1035.55 235.532 1033.96 233.866 1031.99 232.721C1030.01 231.575 1027.87 231.003 1025.58 231.003C1023.29 231.003 1021.16 231.575 1019.18 232.721C1017.2 233.814 1015.59 235.454 1014.34 237.64C1013.14 239.774 1012.54 242.325 1012.54 245.292C1012.54 248.259 1013.14 250.862 1014.34 253.1C1015.59 255.339 1017.2 257.057 1019.18 258.254C1021.21 259.399 1023.34 259.972 1025.58 259.972C1027.87 259.972 1030.01 259.399 1031.99 258.254C1033.96 257.109 1035.55 255.443 1036.75 253.257C1038 251.018 1038.62 248.415 1038.62 245.448Z"></path>
  <path style="fill: var(--color-illustrationHighlight010)" d="M1068.2 230.222C1069.5 228.036 1071.21 226.344 1073.35 225.147C1075.54 223.897 1078.11 223.273 1081.08 223.273V232.486H1078.81C1075.33 232.486 1072.67 233.371 1070.85 235.141C1069.08 236.911 1068.2 239.982 1068.2 244.355V266.999H1059.29V223.975H1068.2V230.222Z"></path>
  <path style="fill: var(--color-illustrationHighlight010)" d="M1161.63 223.273C1165.01 223.273 1168.03 223.975 1170.68 225.381C1173.39 226.786 1175.5 228.869 1177.01 231.627C1178.57 234.386 1179.35 237.718 1179.35 241.622V266.999H1170.53V242.95C1170.53 239.097 1169.56 236.156 1167.64 234.126C1165.71 232.044 1163.08 231.003 1159.75 231.003C1156.42 231.003 1153.77 232.044 1151.79 234.126C1149.86 236.156 1148.9 239.097 1148.9 242.95V266.999H1140.08V242.95C1140.08 239.097 1139.11 236.156 1137.19 234.126C1135.26 232.044 1132.63 231.003 1129.3 231.003C1125.97 231.003 1123.31 232.044 1121.34 234.126C1119.41 236.156 1118.45 239.097 1118.45 242.95V266.999H1109.54V223.975H1118.45V228.895C1119.9 227.125 1121.75 225.745 1123.99 224.756C1126.23 223.767 1128.62 223.273 1131.17 223.273C1134.61 223.273 1137.68 224.001 1140.39 225.459C1143.09 226.916 1145.18 229.025 1146.63 231.784C1147.94 229.181 1149.97 227.125 1152.72 225.615C1155.48 224.053 1158.45 223.273 1161.63 223.273Z"></path>
  <path style="fill: var(--color-illustrationHighlight010)" d="M1209.34 267.702C1205.28 267.702 1201.61 266.791 1198.33 264.969C1195.05 263.095 1192.47 260.492 1190.6 257.161C1188.73 253.777 1187.79 249.873 1187.79 245.448C1187.79 241.076 1188.75 237.197 1190.68 233.814C1192.6 230.43 1195.23 227.827 1198.56 226.005C1201.9 224.184 1205.62 223.273 1209.73 223.273C1213.84 223.273 1217.57 224.184 1220.9 226.005C1224.23 227.827 1226.86 230.43 1228.78 233.814C1230.71 237.197 1231.67 241.076 1231.67 245.448C1231.67 249.821 1230.68 253.699 1228.7 257.083C1226.73 260.466 1224.02 263.095 1220.58 264.969C1217.2 266.791 1213.45 267.702 1209.34 267.702ZM1209.34 259.972C1211.63 259.972 1213.77 259.425 1215.74 258.332C1217.77 257.239 1219.41 255.599 1220.66 253.413C1221.91 251.226 1222.54 248.572 1222.54 245.448C1222.54 242.325 1221.94 239.696 1220.74 237.562C1219.54 235.375 1217.96 233.736 1215.98 232.643C1214 231.549 1211.86 231.003 1209.57 231.003C1207.28 231.003 1205.15 231.549 1203.17 232.643C1201.25 233.736 1199.71 235.375 1198.56 237.562C1197.42 239.696 1196.85 242.325 1196.85 245.448C1196.85 250.081 1198.02 253.673 1200.36 256.224C1202.76 258.722 1205.75 259.972 1209.34 259.972Z"></path>
  <path style="fill: var(--color-illustrationHighlight010)" d="M1249.37 230.222C1250.67 228.036 1252.39 226.344 1254.53 225.147C1256.71 223.897 1259.29 223.273 1262.26 223.273V232.486H1259.99C1256.5 232.486 1253.85 233.371 1252.03 235.141C1250.26 236.911 1249.37 239.982 1249.37 244.355V266.999H1240.47V223.975H1249.37V230.222Z"></path>
  <path style="fill: var(--color-illustrationHighlight010)" d="M1309.87 244.433C1309.87 246.047 1309.77 247.504 1309.56 248.806H1276.69C1276.95 252.242 1278.22 255 1280.51 257.083C1282.8 259.165 1285.61 260.206 1288.95 260.206C1293.73 260.206 1297.12 258.202 1299.1 254.194H1308.7C1307.4 258.15 1305.03 261.403 1301.59 263.954C1298.21 266.453 1293.99 267.702 1288.95 267.702C1284.83 267.702 1281.14 266.791 1277.86 264.969C1274.63 263.095 1272.08 260.492 1270.21 257.161C1268.38 253.777 1267.47 249.873 1267.47 245.448C1267.47 241.024 1268.36 237.145 1270.13 233.814C1271.95 230.43 1274.47 227.827 1277.7 226.005C1280.98 224.184 1284.73 223.273 1288.95 223.273C1293.01 223.273 1296.62 224.157 1299.8 225.927C1302.97 227.697 1305.45 230.196 1307.22 233.423C1308.99 236.599 1309.87 240.269 1309.87 244.433ZM1300.58 241.622C1300.53 238.343 1299.36 235.714 1297.07 233.736C1294.78 231.758 1291.94 230.769 1288.55 230.769C1285.48 230.769 1282.85 231.758 1280.67 233.736C1278.48 235.662 1277.18 238.291 1276.76 241.622H1300.58Z"></path>
  <path style="fill: var(--color-illustrationHighlight010)" d="M364.961 414.123V468.391H356.059V414.123H364.961Z"></path>
  <path style="fill: var(--color-illustrationHighlight010)" d="M393.964 446.684C393.964 442.363 394.849 438.537 396.619 435.206C398.441 431.874 400.887 429.297 403.959 427.475C407.082 425.601 410.518 424.664 414.266 424.664C417.649 424.664 420.59 425.341 423.089 426.695C425.64 427.996 427.67 429.636 429.18 431.614V425.367H438.159V468.391H429.18V461.988C427.67 464.018 425.614 465.71 423.011 467.064C420.408 468.417 417.441 469.094 414.11 469.094C410.414 469.094 407.03 468.157 403.959 466.283C400.887 464.357 398.441 461.702 396.619 458.318C394.849 454.883 393.964 451.005 393.964 446.684ZM429.18 446.84C429.18 443.873 428.555 441.296 427.306 439.11C426.108 436.924 424.521 435.258 422.543 434.112C420.564 432.967 418.43 432.395 416.14 432.395C413.849 432.395 411.715 432.967 409.737 434.112C407.759 435.206 406.145 436.845 404.896 439.032C403.698 441.166 403.1 443.717 403.1 446.684C403.1 449.651 403.698 452.254 404.896 454.492C406.145 456.731 407.759 458.449 409.737 459.646C411.767 460.791 413.901 461.364 416.14 461.364C418.43 461.364 420.564 460.791 422.543 459.646C424.521 458.501 426.108 456.835 427.306 454.648C428.555 452.41 429.18 449.807 429.18 446.84Z"></path>
  <path style="fill: var(--color-illustrationHighlight010)" d="M446.884 446.84C446.884 442.415 447.769 438.537 449.539 435.206C451.361 431.822 453.859 429.219 457.035 427.397C460.21 425.575 463.854 424.664 467.966 424.664C473.172 424.664 477.467 425.914 480.85 428.412C484.286 430.859 486.602 434.373 487.8 438.954H478.195C477.414 436.819 476.165 435.154 474.447 433.956C472.729 432.759 470.569 432.16 467.966 432.16C464.322 432.16 461.407 433.462 459.221 436.065C457.087 438.615 456.02 442.207 456.02 446.84C456.02 451.473 457.087 455.091 459.221 457.694C461.407 460.296 464.322 461.598 467.966 461.598C473.12 461.598 476.53 459.333 478.195 454.805H487.8C486.55 459.177 484.208 462.665 480.772 465.268C477.336 467.819 473.068 469.094 467.966 469.094C463.854 469.094 460.21 468.183 457.035 466.361C453.859 464.487 451.361 461.884 449.539 458.553C447.769 455.169 446.884 451.265 446.884 446.84Z"></path>
  <path style="fill: var(--color-illustrationHighlight010)" d="M493.703 446.84C493.703 442.415 494.588 438.537 496.358 435.206C498.18 431.822 500.679 429.219 503.854 427.397C507.03 425.575 510.674 424.664 514.786 424.664C519.992 424.664 524.286 425.914 527.67 428.412C531.105 430.859 533.422 434.373 534.619 438.954H525.015C524.234 436.819 522.985 435.154 521.267 433.956C519.549 432.759 517.389 432.16 514.786 432.16C511.142 432.16 508.227 433.462 506.041 436.065C503.906 438.615 502.839 442.207 502.839 446.84C502.839 451.473 503.906 455.091 506.041 457.694C508.227 460.296 511.142 461.598 514.786 461.598C519.939 461.598 523.349 459.333 525.015 454.805H534.619C533.37 459.177 531.027 462.665 527.592 465.268C524.156 467.819 519.887 469.094 514.786 469.094C510.674 469.094 507.03 468.183 503.854 466.361C500.679 464.487 498.18 461.884 496.358 458.553C494.588 455.169 493.703 451.265 493.703 446.84Z"></path>
  <path style="fill: var(--color-illustrationHighlight010)" d="M582.922 445.825C582.922 447.439 582.818 448.896 582.61 450.198H549.737C549.997 453.633 551.272 456.392 553.563 458.475C555.853 460.557 558.664 461.598 561.996 461.598C566.785 461.598 570.169 459.594 572.147 455.585H581.751C580.45 459.542 578.081 462.795 574.645 465.346C571.262 467.845 567.045 469.094 561.996 469.094C557.884 469.094 554.188 468.183 550.908 466.361C547.681 464.487 545.13 461.884 543.256 458.553C541.434 455.169 540.523 451.265 540.523 446.84C540.523 442.415 541.408 438.537 543.178 435.206C545 431.822 547.524 429.219 550.752 427.397C554.031 425.575 557.779 424.664 561.996 424.664C566.056 424.664 569.674 425.549 572.85 427.319C576.025 429.089 578.498 431.588 580.267 434.815C582.037 437.991 582.922 441.661 582.922 445.825ZM573.63 443.014C573.578 439.735 572.407 437.106 570.117 435.128C567.826 433.149 564.989 432.16 561.606 432.16C558.534 432.16 555.905 433.149 553.719 435.128C551.533 437.054 550.231 439.682 549.815 443.014H573.63Z"></path>
  <path style="fill: var(--color-illustrationHighlight010)" d="M600.584 431.692C602.093 429.714 604.15 428.048 606.752 426.695C609.355 425.341 612.296 424.664 615.576 424.664C619.324 424.664 622.733 425.601 625.805 427.475C628.928 429.297 631.375 431.874 633.145 435.206C634.915 438.537 635.799 442.363 635.799 446.684C635.799 451.005 634.915 454.883 633.145 458.318C631.375 461.702 628.928 464.357 625.805 466.283C622.733 468.157 619.324 469.094 615.576 469.094C612.296 469.094 609.381 468.443 606.831 467.142C604.28 465.788 602.198 464.123 600.584 462.144V488.849H591.682V425.367H600.584V431.692ZM626.742 446.684C626.742 443.717 626.117 441.166 624.868 439.032C623.671 436.845 622.057 435.206 620.027 434.112C618.048 432.967 615.914 432.395 613.624 432.395C611.385 432.395 609.251 432.967 607.221 434.112C605.243 435.258 603.629 436.924 602.38 439.11C601.182 441.296 600.584 443.873 600.584 446.84C600.584 449.807 601.182 452.41 602.38 454.648C603.629 456.835 605.243 458.501 607.221 459.646C609.251 460.791 611.385 461.364 613.624 461.364C615.914 461.364 618.048 460.791 620.027 459.646C622.057 458.449 623.671 456.731 624.868 454.492C626.117 452.254 626.742 449.651 626.742 446.684Z"></path>
  <path style="fill: var(--color-illustrationHighlight010)" d="M654.987 432.629V456.444C654.987 458.058 655.352 459.229 656.08 459.958C656.861 460.635 658.163 460.973 659.985 460.973H665.45V468.391H658.423C654.415 468.391 651.343 467.454 649.209 465.58C647.075 463.706 646.008 460.661 646.008 456.444V432.629H640.932V425.367H646.008V414.67H654.987V425.367H665.45V432.629H654.987Z"></path>
  <path style="fill: var(--color-illustrationHighlight010)" d="M704.323 432.629V456.444C704.323 458.058 704.688 459.229 705.416 459.958C706.197 460.635 707.499 460.973 709.321 460.973H714.786V468.391H707.759C703.751 468.391 700.679 467.454 698.545 465.58C696.411 463.706 695.344 460.661 695.344 456.444V432.629H690.268V425.367H695.344V414.67H704.323V425.367H714.786V432.629H704.323Z"></path>
  <path style="fill: var(--color-illustrationHighlight010)" d="M745.244 424.664C748.524 424.664 751.439 425.367 753.99 426.773C756.593 428.178 758.623 430.26 760.08 433.019C761.59 435.778 762.345 439.11 762.345 443.014V468.391H753.521V444.341C753.521 440.489 752.558 437.548 750.632 435.518C748.706 433.436 746.077 432.395 742.746 432.395C739.414 432.395 736.759 433.436 734.781 435.518C732.855 437.548 731.892 440.489 731.892 444.341V468.391H722.991V410.609H731.892V430.364C733.402 428.543 735.302 427.137 737.592 426.148C739.935 425.159 742.485 424.664 745.244 424.664Z"></path>
  <path style="fill: var(--color-illustrationHighlight010)" d="M813.131 445.825C813.131 447.439 813.027 448.896 812.819 450.198H779.946C780.206 453.633 781.481 456.392 783.772 458.475C786.062 460.557 788.873 461.598 792.205 461.598C796.994 461.598 800.378 459.594 802.356 455.585H811.96C810.659 459.542 808.29 462.795 804.854 465.346C801.471 467.845 797.254 469.094 792.205 469.094C788.093 469.094 784.397 468.183 781.117 466.361C777.89 464.487 775.339 461.884 773.465 458.553C771.643 455.169 770.732 451.265 770.732 446.84C770.732 442.415 771.617 438.537 773.387 435.206C775.209 431.822 777.733 429.219 780.961 427.397C784.24 425.575 787.988 424.664 792.205 424.664C796.265 424.664 799.883 425.549 803.059 427.319C806.234 429.089 808.707 431.588 810.476 434.815C812.246 437.991 813.131 441.661 813.131 445.825ZM803.839 443.014C803.787 439.735 802.616 437.106 800.326 435.128C798.035 433.149 795.198 432.16 791.815 432.16C788.743 432.16 786.114 433.149 783.928 435.128C781.742 437.054 780.44 439.682 780.024 443.014H803.839Z"></path>
  <path style="fill: var(--color-illustrationHighlight010)" d="M852.56 432.629V456.444C852.56 458.058 852.924 459.229 853.653 459.958C854.434 460.635 855.735 460.973 857.557 460.973H863.023V468.391H855.995C851.987 468.391 848.916 467.454 846.782 465.58C844.647 463.706 843.58 460.661 843.58 456.444V432.629H838.505V425.367H843.58V414.67H852.56V425.367H863.023V432.629H852.56Z"></path>
  <path style="fill: var(--color-illustrationHighlight010)" d="M910.659 445.825C910.659 447.439 910.555 448.896 910.347 450.198H877.474C877.734 453.633 879.01 456.392 881.3 458.475C883.59 460.557 886.401 461.598 889.733 461.598C894.522 461.598 897.906 459.594 899.884 455.585H909.488C908.187 459.542 905.818 462.795 902.383 465.346C898.999 467.845 894.782 469.094 889.733 469.094C885.621 469.094 881.925 468.183 878.645 466.361C875.418 464.487 872.867 461.884 870.993 458.553C869.171 455.169 868.26 451.265 868.26 446.84C868.26 442.415 869.145 438.537 870.915 435.206C872.737 431.822 875.262 429.219 878.489 427.397C881.768 425.575 885.517 424.664 889.733 424.664C893.793 424.664 897.411 425.549 900.587 427.319C903.762 429.089 906.235 431.588 908.005 434.815C909.774 437.991 910.659 441.661 910.659 445.825ZM901.367 443.014C901.315 439.735 900.144 437.106 897.854 435.128C895.563 433.149 892.726 432.16 889.343 432.16C886.271 432.16 883.643 433.149 881.456 435.128C879.27 437.054 877.968 439.682 877.552 443.014H901.367Z"></path>
  <path style="fill: var(--color-illustrationHighlight010)" d="M928.321 431.614C929.622 429.427 931.34 427.736 933.474 426.538C935.661 425.289 938.237 424.664 941.205 424.664V433.878H938.94C935.453 433.878 932.798 434.763 930.976 436.533C929.206 438.303 928.321 441.374 928.321 445.747V468.391H919.419V425.367H928.321V431.614Z"></path>
  <path style="fill: var(--color-illustrationHighlight010)" d="M1001.47 424.664C1004.85 424.664 1007.87 425.367 1010.53 426.773C1013.23 428.178 1015.34 430.26 1016.85 433.019C1018.41 435.778 1019.19 439.11 1019.19 443.014V468.391H1010.37V444.341C1010.37 440.489 1009.41 437.548 1007.48 435.518C1005.55 433.436 1002.93 432.395 999.595 432.395C996.263 432.395 993.608 433.436 991.63 435.518C989.704 437.548 988.741 440.489 988.741 444.341V468.391H979.918V444.341C979.918 440.489 978.955 437.548 977.029 435.518C975.102 433.436 972.474 432.395 969.142 432.395C965.811 432.395 963.156 433.436 961.178 435.518C959.251 437.548 958.288 440.489 958.288 444.341V468.391H949.387V425.367H958.288V430.286C959.746 428.517 961.594 427.137 963.832 426.148C966.071 425.159 968.465 424.664 971.016 424.664C974.452 424.664 977.523 425.393 980.23 426.851C982.937 428.308 985.019 430.417 986.477 433.175C987.778 430.573 989.808 428.517 992.567 427.007C995.326 425.445 998.293 424.664 1001.47 424.664Z"></path>
  <path style="fill: var(--color-illustrationHighlight010)" d="M1046.14 469.094C1042.75 469.094 1039.71 468.495 1037 467.298C1034.35 466.049 1032.24 464.383 1030.68 462.301C1029.12 460.166 1028.28 457.798 1028.18 455.195H1037.39C1037.55 457.017 1038.41 458.553 1039.97 459.802C1041.58 460.999 1043.59 461.598 1045.98 461.598C1048.48 461.598 1050.41 461.129 1051.76 460.192C1053.16 459.203 1053.87 457.954 1053.87 456.444C1053.87 454.831 1053.09 453.633 1051.53 452.853C1050.02 452.072 1047.59 451.213 1044.26 450.276C1041.04 449.391 1038.41 448.532 1036.38 447.699C1034.35 446.866 1032.58 445.591 1031.07 443.873C1029.61 442.155 1028.88 439.891 1028.88 437.08C1028.88 434.789 1029.56 432.707 1030.91 430.833C1032.26 428.907 1034.19 427.397 1036.69 426.304C1039.24 425.211 1042.16 424.664 1045.43 424.664C1050.33 424.664 1054.26 425.914 1057.23 428.412C1060.24 430.859 1061.86 434.217 1062.07 438.485H1053.16C1053.01 436.559 1052.23 435.023 1050.82 433.878C1049.42 432.733 1047.52 432.16 1045.12 432.16C1042.78 432.16 1040.98 432.603 1039.73 433.488C1038.49 434.373 1037.86 435.544 1037.86 437.002C1037.86 438.147 1038.28 439.11 1039.11 439.891C1039.94 440.672 1040.96 441.296 1042.16 441.765C1043.35 442.181 1045.12 442.728 1047.46 443.404C1050.59 444.237 1053.14 445.096 1055.12 445.981C1057.15 446.814 1058.89 448.063 1060.35 449.729C1061.81 451.395 1062.56 453.607 1062.61 456.366C1062.61 458.813 1061.94 460.999 1060.58 462.925C1059.23 464.851 1057.3 466.361 1054.8 467.454C1052.36 468.547 1049.47 469.094 1046.14 469.094Z"></path>
  <path style="fill: var(--color-illustrationPalette040)" d="M178.543 189.999C178.543 177.815 188.42 167.938 200.605 167.938H296.536C308.72 167.938 318.597 177.815 318.597 189.999V285.93C318.597 298.115 308.72 307.992 296.536 307.992H200.605C188.42 307.992 178.543 298.115 178.543 285.93V189.999Z"></path>
  <path style="fill: var(--color-white)" d="M234.18 258.313L214.171 238.485L207.358 245.189L234.18 271.77L291.757 214.71L284.992 208.006L234.18 258.313Z"></path>
  <path style="fill: var(--color-interactiveNegative030)" opacity="0.1" d="M178.812 385.769C178.812 376.182 186.584 368.41 196.172 368.41H300.905C310.492 368.41 318.264 376.182 318.264 385.769V490.503C318.264 500.09 310.492 507.862 300.905 507.862H196.172C186.584 507.862 178.812 500.09 178.812 490.503V385.769Z"></path>
  <path style="fill: var(--color-interactiveNegative030)" fill-rule="evenodd" clip-rule="evenodd" d="M300.905 377.09H196.172C191.378 377.09 187.492 380.976 187.492 385.769V490.503C187.492 495.296 191.378 499.182 196.172 499.182H300.905C305.698 499.182 309.584 495.296 309.584 490.503V385.769C309.584 380.976 305.698 377.09 300.905 377.09ZM196.172 368.41C186.584 368.41 178.812 376.182 178.812 385.769V490.503C178.812 500.09 186.584 507.862 196.172 507.862H300.905C310.492 507.862 318.264 500.09 318.264 490.503V385.769C318.264 376.182 310.492 368.41 300.905 368.41H196.172Z"></path>
</svg>
