<svg id="nksvg" width="1490" height="838" viewBox="0 0 1490 838" fill="none" xmlns="http://www.w3.org/2000/svg">
<rect width="1490" height="838" fill="var(--color-illustrationBackground010)"></rect>
<path d="M473.913 344.423C473.913 286.152 521.151 238.914 579.422 238.914C637.693 238.914 684.931 286.152 684.931 344.423C684.931 402.694 637.693 449.932 579.422 449.932C521.151 449.932 473.913 402.694 473.913 344.423Z" fill="#F0F1F3"></path>
<path fill-rule="evenodd" clip-rule="evenodd" d="M579.422 463.845C513.467 463.845 460 410.378 460 344.422C460 278.467 513.467 225 579.422 225C645.378 225 698.845 278.467 698.845 344.422C698.845 410.378 645.378 463.845 579.422 463.845ZM579.422 238.914C521.151 238.914 473.913 286.152 473.913 344.423C473.913 402.694 521.151 449.932 579.422 449.932C637.693 449.932 684.931 402.694 684.931 344.423C684.931 286.152 637.693 238.914 579.422 238.914Z" fill="#C0C7CC"></path>
<path d="M765.259 379.208H794.463V390.64H751.092V304.272H765.259V379.208Z" fill="#577FFB"></path>
<path d="M801.588 356.093C801.588 349.217 802.996 343.127 805.813 337.825C808.713 332.523 812.607 328.422 817.495 325.522C822.466 322.54 827.934 321.049 833.899 321.049C839.284 321.049 843.965 322.126 847.941 324.28C852.001 326.351 855.232 328.96 857.634 332.109V322.167H871.926V390.64H857.634V380.45C855.232 383.681 851.959 386.374 847.817 388.528C843.675 390.682 838.952 391.759 833.65 391.759C827.768 391.759 822.383 390.268 817.495 387.285C812.607 384.22 808.713 379.995 805.813 374.609C802.996 369.142 801.588 362.969 801.588 356.093ZM857.634 356.342C857.634 351.619 856.64 347.518 854.652 344.039C852.746 340.559 850.219 337.908 847.071 336.085C843.923 334.263 840.526 333.351 836.881 333.351C833.236 333.351 829.839 334.263 826.691 336.085C823.543 337.825 820.974 340.435 818.986 343.914C817.08 347.311 816.128 351.371 816.128 356.093C816.128 360.815 817.08 364.958 818.986 368.52C820.974 372.083 823.543 374.817 826.691 376.722C829.922 378.545 833.319 379.456 836.881 379.456C840.526 379.456 843.923 378.545 847.071 376.722C850.219 374.899 852.746 372.248 854.652 368.769C856.64 365.206 857.634 361.064 857.634 356.342Z" fill="#577FFB"></path>
<path d="M904.7 332.357C907.103 329.043 910.375 326.351 914.518 324.28C918.743 322.126 923.424 321.049 928.56 321.049C934.608 321.049 940.076 322.498 944.964 325.398C949.852 328.298 953.704 332.44 956.521 337.825C959.338 343.127 960.747 349.217 960.747 356.093C960.747 362.969 959.338 369.142 956.521 374.609C953.704 379.995 949.811 384.22 944.84 387.285C939.952 390.268 934.525 391.759 928.56 391.759C923.258 391.759 918.536 390.723 914.393 388.652C910.334 386.581 907.103 383.93 904.7 380.699V390.64H890.533V298.68H904.7V332.357ZM946.331 356.093C946.331 351.371 945.337 347.311 943.349 343.914C941.443 340.435 938.875 337.825 935.644 336.085C932.496 334.263 929.099 333.351 925.453 333.351C921.891 333.351 918.494 334.263 915.263 336.085C912.115 337.908 909.547 340.559 907.558 344.039C905.653 347.518 904.7 351.619 904.7 356.342C904.7 361.064 905.653 365.206 907.558 368.769C909.547 372.248 912.115 374.899 915.263 376.722C918.494 378.545 921.891 379.456 925.453 379.456C929.099 379.456 932.496 378.545 935.644 376.722C938.875 374.817 941.443 372.083 943.349 368.52C945.337 364.958 946.331 360.815 946.331 356.093Z" fill="#577FFB"></path>
<path d="M1037.51 354.726C1037.51 357.294 1037.35 359.614 1037.02 361.685H984.698C985.112 367.153 987.142 371.544 990.787 374.858C994.432 378.172 998.906 379.829 1004.21 379.829C1011.83 379.829 1017.22 376.639 1020.36 370.26H1035.65C1033.58 376.556 1029.81 381.734 1024.34 385.794C1018.96 389.771 1012.24 391.759 1004.21 391.759C997.664 391.759 991.781 390.309 986.562 387.409C981.425 384.427 977.366 380.285 974.383 374.982C971.484 369.597 970.034 363.384 970.034 356.342C970.034 349.3 971.442 343.127 974.259 337.825C977.159 332.44 981.177 328.298 986.313 325.398C991.533 322.498 997.498 321.049 1004.21 321.049C1010.67 321.049 1016.43 322.457 1021.48 325.274C1026.54 328.091 1030.47 332.067 1033.29 337.204C1036.1 342.257 1037.51 348.098 1037.51 354.726ZM1022.72 350.252C1022.64 345.033 1020.78 340.849 1017.13 337.701C1013.49 334.553 1008.97 332.979 1003.59 332.979C998.699 332.979 994.515 334.553 991.036 337.701C987.556 340.766 985.485 344.95 984.822 350.252H1022.72Z" fill="#577FFB"></path>
<path d="M1065.62 298.68V390.64H1051.45V298.68H1065.62Z" fill="#577FFB"></path>
<path fill-rule="evenodd" clip-rule="evenodd" d="M739.525 433C739.525 431.467 740.767 430.225 742.3 430.225H750.725C752.258 430.225 753.5 431.467 753.5 433C753.5 434.533 752.258 435.775 750.725 435.775H742.3C740.767 435.775 739.525 434.533 739.525 433ZM764.8 433C764.8 431.467 766.042 430.225 767.575 430.225H784.425C785.958 430.225 787.2 431.467 787.2 433C787.2 434.533 785.958 435.775 784.425 435.775H767.575C766.042 435.775 764.8 434.533 764.8 433ZM798.5 433C798.5 431.467 799.742 430.225 801.275 430.225H809.7C811.233 430.225 812.475 431.467 812.475 433C812.475 434.533 811.233 435.775 809.7 435.775H801.275C799.742 435.775 798.5 434.533 798.5 433Z" fill="#577FFB"></path>
<path fill-rule="evenodd" clip-rule="evenodd" d="M455.525 596C455.525 594.467 456.767 593.225 458.3 593.225H466.725C468.258 593.225 469.5 594.467 469.5 596C469.5 597.533 468.258 598.775 466.725 598.775H458.3C456.767 598.775 455.525 597.533 455.525 596ZM480.8 596C480.8 594.467 482.042 593.225 483.575 593.225H500.425C501.958 593.225 503.2 594.467 503.2 596C503.2 597.533 501.958 598.775 500.425 598.775H483.575C482.042 598.775 480.8 597.533 480.8 596ZM514.5 596C514.5 594.467 515.742 593.225 517.275 593.225H525.7C527.233 593.225 528.475 594.467 528.475 596C528.475 597.533 527.233 598.775 525.7 598.775H517.275C515.742 598.775 514.5 597.533 514.5 596Z" fill="#577FFB"></path>
<path d="M472.044 554L489.624 506.302H495.689L513.201 554H507.136L502.775 541.735H482.47L478.041 554H472.044ZM484.173 537.101H501.072L492.623 513.525L484.173 537.101Z" fill="#85939C"></path>
<path d="M532.897 554.818C528.855 554.818 525.493 553.796 522.813 551.751C520.133 549.707 518.565 546.936 518.111 543.438H523.971C524.335 545.21 525.266 546.754 526.765 548.072C528.309 549.344 530.376 549.98 532.966 549.98C535.373 549.98 537.145 549.48 538.281 548.481C539.416 547.436 539.984 546.209 539.984 544.801C539.984 542.757 539.235 541.394 537.735 540.713C536.282 540.031 534.215 539.418 531.535 538.873C529.718 538.51 527.901 537.987 526.084 537.306C524.266 536.624 522.745 535.67 521.518 534.444C520.292 533.172 519.678 531.514 519.678 529.47C519.678 526.517 520.769 524.109 522.949 522.247C525.175 520.339 528.173 519.385 531.944 519.385C535.532 519.385 538.462 520.293 540.734 522.11C543.05 523.882 544.39 526.426 544.754 529.742H539.098C538.871 528.016 538.122 526.676 536.85 525.722C535.623 524.723 533.965 524.223 531.875 524.223C529.831 524.223 528.241 524.654 527.106 525.517C526.015 526.381 525.47 527.516 525.47 528.924C525.47 530.287 526.174 531.355 527.583 532.127C529.036 532.899 530.99 533.558 533.443 534.103C535.532 534.557 537.508 535.125 539.371 535.807C541.279 536.443 542.823 537.419 544.004 538.737C545.231 540.009 545.844 541.871 545.844 544.324C545.89 547.368 544.731 549.889 542.369 551.888C540.052 553.841 536.895 554.818 532.897 554.818Z" fill="#85939C"></path>
<path d="M566.967 554.818C562.925 554.818 559.563 553.796 556.883 551.751C554.203 549.707 552.635 546.936 552.181 543.438H558.041C558.405 545.21 559.336 546.754 560.835 548.072C562.379 549.344 564.446 549.98 567.036 549.98C569.443 549.98 571.215 549.48 572.351 548.481C573.486 547.436 574.054 546.209 574.054 544.801C574.054 542.757 573.305 541.394 571.805 540.713C570.352 540.031 568.285 539.418 565.605 538.873C563.788 538.51 561.971 537.987 560.153 537.306C558.336 536.624 556.815 535.67 555.588 534.444C554.362 533.172 553.748 531.514 553.748 529.47C553.748 526.517 554.839 524.109 557.019 522.247C559.245 520.339 562.243 519.385 566.014 519.385C569.602 519.385 572.532 520.293 574.804 522.11C577.12 523.882 578.46 526.426 578.824 529.742H573.168C572.941 528.016 572.192 526.676 570.92 525.722C569.693 524.723 568.035 524.223 565.945 524.223C563.901 524.223 562.311 524.654 561.176 525.517C560.085 526.381 559.54 527.516 559.54 528.924C559.54 530.287 560.244 531.355 561.653 532.127C563.106 532.899 565.06 533.558 567.513 534.103C569.602 534.557 571.578 535.125 573.441 535.807C575.349 536.443 576.893 537.419 578.074 538.737C579.301 540.009 579.914 541.871 579.914 544.324C579.96 547.368 578.801 549.889 576.439 551.888C574.122 553.841 570.965 554.818 566.967 554.818Z" fill="#85939C"></path>
<path d="M591.566 512.707C590.43 512.707 589.476 512.344 588.704 511.617C587.977 510.845 587.614 509.891 587.614 508.755C587.614 507.665 587.977 506.756 588.704 506.029C589.476 505.303 590.43 504.939 591.566 504.939C592.656 504.939 593.588 505.303 594.36 506.029C595.132 506.756 595.518 507.665 595.518 508.755C595.518 509.891 595.132 510.845 594.36 511.617C593.588 512.344 592.656 512.707 591.566 512.707ZM588.704 554V520.203H594.428V554H588.704Z" fill="#85939C"></path>
<path d="M617.341 554.818C613.298 554.818 609.936 553.796 607.256 551.751C604.576 549.707 603.008 546.936 602.554 543.438H608.414C608.778 545.21 609.709 546.754 611.208 548.072C612.752 549.344 614.819 549.98 617.409 549.98C619.816 549.98 621.588 549.48 622.724 548.481C623.859 547.436 624.427 546.209 624.427 544.801C624.427 542.757 623.678 541.394 622.178 540.713C620.725 540.031 618.658 539.418 615.978 538.873C614.161 538.51 612.344 537.987 610.527 537.306C608.709 536.624 607.188 535.67 605.961 534.444C604.735 533.172 604.121 531.514 604.121 529.47C604.121 526.517 605.212 524.109 607.392 522.247C609.618 520.339 612.616 519.385 616.387 519.385C619.975 519.385 622.905 520.293 625.177 522.11C627.493 523.882 628.833 526.426 629.197 529.742H623.541C623.314 528.016 622.565 526.676 621.293 525.722C620.066 524.723 618.408 524.223 616.318 524.223C614.274 524.223 612.684 524.654 611.549 525.517C610.458 526.381 609.913 527.516 609.913 528.924C609.913 530.287 610.617 531.355 612.026 532.127C613.479 532.899 615.433 533.558 617.886 534.103C619.975 534.557 621.951 535.125 623.814 535.807C625.722 536.443 627.266 537.419 628.447 538.737C629.674 540.009 630.287 541.871 630.287 544.324C630.333 547.368 629.174 549.889 626.812 551.888C624.495 553.841 621.338 554.818 617.341 554.818Z" fill="#85939C"></path>
<path d="M650.289 554C647.2 554 644.77 553.25 642.998 551.751C641.226 550.252 640.34 547.549 640.34 543.643V525.04H634.48V520.203H640.34L641.09 512.094H646.064V520.203H656.013V525.04H646.064V543.643C646.064 545.778 646.496 547.231 647.359 548.004C648.222 548.731 649.744 549.094 651.924 549.094H655.468V554H650.289Z" fill="#85939C"></path>
<path d="M666.76 512.707C665.624 512.707 664.67 512.344 663.898 511.617C663.171 510.845 662.807 509.891 662.807 508.755C662.807 507.665 663.171 506.756 663.898 506.029C664.67 505.303 665.624 504.939 666.76 504.939C667.85 504.939 668.781 505.303 669.553 506.029C670.326 506.756 670.712 507.665 670.712 508.755C670.712 509.891 670.326 510.845 669.553 511.617C668.781 512.344 667.85 512.707 666.76 512.707ZM663.898 554V520.203H669.621V554H663.898Z" fill="#85939C"></path>
<path d="M689.332 554L676.521 520.203H682.518L692.67 548.481L702.891 520.203H708.751L695.941 554H689.332Z" fill="#85939C"></path>
<path d="M728.587 554.818C725.361 554.818 722.499 554.091 720.001 552.637C717.502 551.138 715.526 549.071 714.073 546.436C712.664 543.802 711.96 540.69 711.96 537.101C711.96 533.558 712.664 530.469 714.073 527.834C715.481 525.154 717.434 523.087 719.933 521.633C722.477 520.134 725.407 519.385 728.723 519.385C731.994 519.385 734.81 520.134 737.172 521.633C739.58 523.087 741.42 525.018 742.692 527.425C743.963 529.833 744.599 532.422 744.599 535.193C744.599 535.693 744.577 536.193 744.531 536.692C744.531 537.192 744.531 537.76 744.531 538.396H717.616C717.752 540.985 718.343 543.143 719.388 544.869C720.478 546.55 721.818 547.822 723.408 548.685C725.043 549.548 726.769 549.98 728.587 549.98C730.949 549.98 732.925 549.435 734.515 548.344C736.105 547.254 737.263 545.778 737.99 543.915H743.645C742.737 547.05 740.988 549.662 738.399 551.751C735.855 553.796 732.584 554.818 728.587 554.818ZM728.587 524.223C725.861 524.223 723.431 525.063 721.296 526.744C719.206 528.379 718.002 530.787 717.684 533.967H738.944C738.808 530.923 737.763 528.538 735.809 526.812C733.856 525.086 731.448 524.223 728.587 524.223Z" fill="#85939C"></path>
<path d="M783.574 554C780.485 554 778.055 553.25 776.283 551.751C774.512 550.252 773.626 547.549 773.626 543.643V525.04H767.766V520.203H773.626L774.376 512.094H779.35V520.203H789.298V525.04H779.35V543.643C779.35 545.778 779.781 547.231 780.644 548.004C781.508 548.731 783.029 549.094 785.21 549.094H788.753V554H783.574Z" fill="#85939C"></path>
<path d="M810.834 554.818C807.608 554.818 804.746 554.091 802.248 552.637C799.75 551.138 797.773 549.071 796.32 546.436C794.912 543.802 794.207 540.69 794.207 537.101C794.207 533.558 794.912 530.469 796.32 527.834C797.728 525.154 799.681 523.087 802.18 521.633C804.724 520.134 807.654 519.385 810.97 519.385C814.241 519.385 817.057 520.134 819.419 521.633C821.827 523.087 823.667 525.018 824.939 527.425C826.211 529.833 826.847 532.422 826.847 535.193C826.847 535.693 826.824 536.193 826.778 536.692C826.778 537.192 826.778 537.76 826.778 538.396H799.863C799.999 540.985 800.59 543.143 801.635 544.869C802.725 546.55 804.065 547.822 805.655 548.685C807.29 549.548 809.017 549.98 810.834 549.98C813.196 549.98 815.172 549.435 816.762 548.344C818.352 547.254 819.51 545.778 820.237 543.915H825.893C824.984 547.05 823.235 549.662 820.646 551.751C818.102 553.796 814.831 554.818 810.834 554.818ZM810.834 524.223C808.108 524.223 805.678 525.063 803.543 526.744C801.453 528.379 800.249 530.787 799.931 533.967H821.191C821.055 530.923 820.01 528.538 818.056 526.812C816.103 525.086 813.696 524.223 810.834 524.223Z" fill="#85939C"></path>
<path d="M829.429 554L841.149 537.101L829.429 520.203H835.63L845.101 534.171L854.641 520.203H860.773L849.053 537.101L860.773 554H854.641L845.101 540.031L835.63 554H829.429Z" fill="#85939C"></path>
<path d="M880.128 554C877.039 554 874.609 553.25 872.837 551.751C871.066 550.252 870.18 547.549 870.18 543.643V525.04H864.32V520.203H870.18L870.929 512.094H875.904V520.203H885.852V525.04H875.904V543.643C875.904 545.778 876.335 547.231 877.198 548.004C878.061 548.731 879.583 549.094 881.764 549.094H885.307V554H880.128Z" fill="#85939C"></path>
</svg>
