<svg id="nksvg" style="width: 100%; height: 100%" width="1490" height="838" viewBox="0 0 1490 838" fill="none" xmlns="http://www.w3.org/2000/svg" class="css-0">
  <rect style="fill: var(--color-illustrationBackground010)" width="1490" height="838"></rect>
  <path style="fill: var(--color-illustrationPalette040)" d="M484.313 289.08C484.313 281.636 490.347 275.602 497.791 275.602H556.398C563.842 275.602 569.877 281.636 569.877 289.08V347.687C569.877 355.131 563.842 361.165 556.398 361.165H497.791C490.347 361.165 484.313 355.131 484.313 347.687V289.08Z"></path>
  <path style="fill: var(--color-illustrationHighlight010)" d="M514.106 162.862V170.655H497.838V179.074H510.011V186.639H497.838V202.794H488.11V162.862H514.106Z"></path>
  <path style="fill: var(--color-illustrationHighlight010)" d="M517.285 186.867C517.285 183.606 517.891 180.742 519.105 178.277C520.356 175.812 522.044 173.916 524.168 172.589C526.291 171.262 528.661 170.598 531.278 170.598C533.515 170.598 535.468 171.053 537.137 171.963C538.844 172.873 540.152 174.068 541.062 175.547V171.053H550.789V202.794H541.062V198.3C540.114 199.779 538.787 200.974 537.08 201.884C535.412 202.794 533.459 203.249 531.221 203.249C528.642 203.249 526.291 202.586 524.168 201.258C522.044 199.893 520.356 197.978 519.105 195.513C517.891 193.01 517.285 190.128 517.285 186.867ZM541.062 186.924C541.062 184.497 540.379 182.582 539.014 181.178C537.687 179.775 536.056 179.074 534.122 179.074C532.188 179.074 530.539 179.775 529.173 181.178C527.846 182.544 527.182 184.44 527.182 186.867C527.182 189.294 527.846 191.228 529.173 192.669C530.539 194.072 532.188 194.774 534.122 194.774C536.056 194.774 537.687 194.072 539.014 192.669C540.379 191.266 541.062 189.351 541.062 186.924Z"></path>
  <path style="fill: var(--color-illustrationHighlight010)" d="M572.104 193.693L578.987 171.053H589.34L578.077 202.794H566.074L554.811 171.053H565.221L572.104 193.693Z"></path>
  <path style="fill: var(--color-illustrationHighlight010)" d="M607.883 203.249C604.773 203.249 601.967 202.586 599.464 201.258C596.999 199.931 595.046 198.035 593.605 195.57C592.202 193.105 591.5 190.223 591.5 186.924C591.5 183.662 592.221 180.799 593.662 178.334C595.103 175.831 597.075 173.916 599.578 172.589C602.08 171.262 604.887 170.598 607.996 170.598C611.106 170.598 613.912 171.262 616.415 172.589C618.918 173.916 620.89 175.831 622.331 178.334C623.772 180.799 624.493 183.662 624.493 186.924C624.493 190.185 623.753 193.067 622.274 195.57C620.833 198.035 618.842 199.931 616.301 201.258C613.798 202.586 610.992 203.249 607.883 203.249ZM607.883 194.831C609.741 194.831 611.315 194.148 612.604 192.783C613.931 191.418 614.595 189.465 614.595 186.924C614.595 184.383 613.95 182.43 612.661 181.065C611.409 179.7 609.855 179.017 607.996 179.017C606.1 179.017 604.526 179.7 603.275 181.065C602.024 182.392 601.398 184.345 601.398 186.924C601.398 189.465 602.005 191.418 603.218 192.783C604.47 194.148 606.024 194.831 607.883 194.831Z"></path>
  <path style="fill: var(--color-illustrationHighlight010)" d="M639.38 176.343C640.518 174.599 641.94 173.234 643.646 172.248C645.353 171.224 647.249 170.712 649.335 170.712V181.008H646.661C644.234 181.008 642.414 181.539 641.2 182.601C639.987 183.624 639.38 185.445 639.38 188.061V202.794H629.653V171.053H639.38V176.343Z"></path>
  <path style="fill: var(--color-illustrationHighlight010)" d="M658.876 167.754C657.17 167.754 655.766 167.261 654.667 166.275C653.605 165.251 653.074 164 653.074 162.521C653.074 161.004 653.605 159.752 654.667 158.766C655.766 157.742 657.17 157.23 658.876 157.23C660.545 157.23 661.91 157.742 662.972 158.766C664.071 159.752 664.621 161.004 664.621 162.521C664.621 164 664.071 165.251 662.972 166.275C661.91 167.261 660.545 167.754 658.876 167.754ZM663.711 171.053V202.794H653.984V171.053H663.711Z"></path>
  <path style="fill: var(--color-illustrationHighlight010)" d="M688.451 194.546V202.794H683.502C679.975 202.794 677.226 201.941 675.254 200.235C673.282 198.49 672.296 195.665 672.296 191.759V179.131H668.428V171.053H672.296V163.317H682.023V171.053H688.394V179.131H682.023V191.873C682.023 192.821 682.251 193.503 682.706 193.92C683.161 194.338 683.919 194.546 684.981 194.546H688.451Z"></path>
  <path style="fill: var(--color-illustrationHighlight010)" d="M723.79 186.412C723.79 187.322 723.733 188.27 723.619 189.256H701.605C701.757 191.228 702.383 192.745 703.483 193.807C704.62 194.831 706.004 195.343 707.635 195.343C710.062 195.343 711.75 194.319 712.698 192.271H723.051C722.52 194.357 721.553 196.234 720.15 197.902C718.784 199.571 717.059 200.879 714.973 201.827C712.887 202.775 710.555 203.249 707.976 203.249C704.867 203.249 702.098 202.586 699.671 201.258C697.244 199.931 695.348 198.035 693.983 195.57C692.618 193.105 691.935 190.223 691.935 186.924C691.935 183.624 692.599 180.742 693.926 178.277C695.291 175.812 697.188 173.916 699.615 172.589C702.042 171.262 704.829 170.598 707.976 170.598C711.048 170.598 713.779 171.243 716.168 172.532C718.557 173.822 720.415 175.661 721.742 178.05C723.107 180.439 723.79 183.226 723.79 186.412ZM713.835 183.852C713.835 182.183 713.267 180.856 712.129 179.87C710.991 178.884 709.569 178.391 707.863 178.391C706.232 178.391 704.848 178.865 703.71 179.813C702.61 180.761 701.928 182.108 701.662 183.852H713.835Z"></path>
  <path style="fill: var(--color-illustrationHighlight010)" d="M739.042 186.867C739.042 183.606 739.649 180.742 740.862 178.277C742.114 175.812 743.801 173.916 745.925 172.589C748.049 171.262 750.419 170.598 753.035 170.598C755.273 170.598 757.226 171.053 758.894 171.963C760.601 172.873 761.909 174.068 762.819 175.547V171.053H772.547V202.794H762.819V198.3C761.871 199.779 760.544 200.974 758.838 201.884C757.169 202.794 755.216 203.249 752.979 203.249C750.4 203.249 748.049 202.586 745.925 201.258C743.801 199.893 742.114 197.978 740.862 195.513C739.649 193.01 739.042 190.128 739.042 186.867ZM762.819 186.924C762.819 184.497 762.137 182.582 760.772 181.178C759.444 179.775 757.814 179.074 755.88 179.074C753.946 179.074 752.296 179.775 750.931 181.178C749.603 182.544 748.94 184.44 748.94 186.867C748.94 189.294 749.603 191.228 750.931 192.669C752.296 194.072 753.946 194.774 755.88 194.774C757.814 194.774 759.444 194.072 760.772 192.669C762.137 191.266 762.819 189.351 762.819 186.924Z"></path>
  <path style="fill: var(--color-illustrationHighlight010)" d="M777.65 186.924C777.65 183.624 778.313 180.742 779.641 178.277C781.006 175.812 782.883 173.916 785.272 172.589C787.699 171.262 790.467 170.598 793.577 170.598C797.559 170.598 800.877 171.641 803.532 173.727C806.224 175.812 807.988 178.751 808.822 182.544H798.469C797.597 180.117 795.909 178.903 793.406 178.903C791.624 178.903 790.202 179.605 789.14 181.008C788.078 182.373 787.547 184.345 787.547 186.924C787.547 189.502 788.078 191.493 789.14 192.897C790.202 194.262 791.624 194.944 793.406 194.944C795.909 194.944 797.597 193.731 798.469 191.304H808.822C807.988 195.02 806.224 197.94 803.532 200.064C800.839 202.188 797.521 203.249 793.577 203.249C790.467 203.249 787.699 202.586 785.272 201.258C782.883 199.931 781.006 198.035 779.641 195.57C778.313 193.105 777.65 190.223 777.65 186.924Z"></path>
  <path style="fill: var(--color-illustrationHighlight010)" d="M831.716 194.546V202.794H826.767C823.24 202.794 820.491 201.941 818.519 200.235C816.547 198.49 815.561 195.665 815.561 191.759V179.131H811.693V171.053H815.561V163.317H825.288V171.053H831.659V179.131H825.288V191.873C825.288 192.821 825.515 193.503 825.97 193.92C826.426 194.338 827.184 194.546 828.246 194.546H831.716Z"></path>
  <path style="fill: var(--color-illustrationHighlight010)" d="M842.026 167.754C840.319 167.754 838.916 167.261 837.816 166.275C836.755 165.251 836.224 164 836.224 162.521C836.224 161.004 836.755 159.752 837.816 158.766C838.916 157.742 840.319 157.23 842.026 157.23C843.694 157.23 845.06 157.742 846.122 158.766C847.221 159.752 847.771 161.004 847.771 162.521C847.771 164 847.221 165.251 846.122 166.275C845.06 167.261 843.694 167.754 842.026 167.754ZM846.861 171.053V202.794H837.134V171.053H846.861Z"></path>
  <path style="fill: var(--color-illustrationHighlight010)" d="M868.188 193.693L875.071 171.053H885.424L874.161 202.794H862.158L850.895 171.053H861.305L868.188 193.693Z"></path>
  <path style="fill: var(--color-illustrationHighlight010)" d="M894.41 167.754C892.703 167.754 891.3 167.261 890.201 166.275C889.139 165.251 888.608 164 888.608 162.521C888.608 161.004 889.139 159.752 890.201 158.766C891.3 157.742 892.703 157.23 894.41 157.23C896.079 157.23 897.444 157.742 898.506 158.766C899.605 159.752 900.155 161.004 900.155 162.521C900.155 164 899.605 165.251 898.506 166.275C897.444 167.261 896.079 167.754 894.41 167.754ZM899.245 171.053V202.794H889.518V171.053H899.245Z"></path>
  <path style="fill: var(--color-illustrationHighlight010)" d="M923.985 194.546V202.794H919.036C915.509 202.794 912.76 201.941 910.788 200.235C908.816 198.49 907.83 195.665 907.83 191.759V179.131H903.962V171.053H907.83V163.317H917.557V171.053H923.928V179.131H917.557V191.873C917.557 192.821 917.785 193.503 918.24 193.92C918.695 194.338 919.453 194.546 920.515 194.546H923.985Z"></path>
  <path style="fill: var(--color-illustrationHighlight010)" d="M934.295 167.754C932.589 167.754 931.186 167.261 930.086 166.275C929.024 165.251 928.493 164 928.493 162.521C928.493 161.004 929.024 159.752 930.086 158.766C931.186 157.742 932.589 157.23 934.295 157.23C935.964 157.23 937.329 157.742 938.391 158.766C939.491 159.752 940.04 161.004 940.04 162.521C940.04 164 939.491 165.251 938.391 166.275C937.329 167.261 935.964 167.754 934.295 167.754ZM939.13 171.053V202.794H929.403V171.053H939.13Z"></path>
  <path style="fill: var(--color-illustrationHighlight010)" d="M976.1 186.412C976.1 187.322 976.043 188.27 975.93 189.256H953.916C954.067 191.228 954.693 192.745 955.793 193.807C956.93 194.831 958.315 195.343 959.945 195.343C962.372 195.343 964.06 194.319 965.008 192.271H975.361C974.83 194.357 973.863 196.234 972.46 197.902C971.094 199.571 969.369 200.879 967.283 201.827C965.198 202.775 962.865 203.249 960.287 203.249C957.177 203.249 954.409 202.586 951.982 201.258C949.555 199.931 947.658 198.035 946.293 195.57C944.928 193.105 944.245 190.223 944.245 186.924C944.245 183.624 944.909 180.742 946.236 178.277C947.602 175.812 949.498 173.916 951.925 172.589C954.352 171.262 957.139 170.598 960.287 170.598C963.358 170.598 966.089 171.243 968.478 172.532C970.867 173.822 972.725 175.661 974.052 178.05C975.418 180.439 976.1 183.226 976.1 186.412ZM966.146 183.852C966.146 182.183 965.577 180.856 964.439 179.87C963.301 178.884 961.879 178.391 960.173 178.391C958.542 178.391 957.158 178.865 956.02 179.813C954.921 180.761 954.238 182.108 953.973 183.852H966.146Z"></path>
  <path style="fill: var(--color-illustrationHighlight010)" d="M994.144 203.249C991.376 203.249 988.911 202.775 986.749 201.827C984.588 200.879 982.881 199.59 981.63 197.959C980.379 196.291 979.677 194.432 979.525 192.385H989.139C989.252 193.484 989.764 194.375 990.674 195.058C991.585 195.741 992.703 196.082 994.031 196.082C995.244 196.082 996.173 195.854 996.818 195.399C997.501 194.906 997.842 194.281 997.842 193.522C997.842 192.612 997.368 191.948 996.42 191.531C995.472 191.076 993.936 190.583 991.812 190.052C989.537 189.521 987.641 188.972 986.124 188.403C984.607 187.796 983.299 186.867 982.199 185.615C981.099 184.326 980.549 182.601 980.549 180.439C980.549 178.619 981.042 176.969 982.028 175.49C983.052 173.973 984.531 172.779 986.465 171.906C988.437 171.034 990.769 170.598 993.462 170.598C997.444 170.598 1000.57 171.584 1002.85 173.556C1005.16 175.528 1006.49 178.145 1006.83 181.406H997.842C997.69 180.306 997.197 179.434 996.363 178.789C995.566 178.145 994.505 177.822 993.177 177.822C992.04 177.822 991.167 178.05 990.561 178.505C989.954 178.922 989.651 179.51 989.651 180.268C989.651 181.178 990.125 181.861 991.073 182.316C992.059 182.771 993.576 183.226 995.623 183.681C997.975 184.288 999.89 184.895 1001.37 185.502C1002.85 186.07 1004.14 187.019 1005.24 188.346C1006.37 189.635 1006.96 191.38 1007 193.579C1007 195.437 1006.47 197.106 1005.41 198.585C1004.38 200.026 1002.89 201.164 1000.91 201.998C998.979 202.832 996.723 203.249 994.144 203.249Z"></path>
  <path style="fill: var(--color-white)" d="M518.302 330.808L506.078 318.695L501.916 322.791L518.302 339.029L553.478 304.17L549.345 300.074L518.302 330.808Z"></path>
  <path style="fill: var(--color-darkBlue050)" d="M496.284 671.092C494.388 671.092 492.684 670.762 491.173 670.103C489.689 669.416 488.521 668.482 487.67 667.3C486.818 666.091 486.378 664.703 486.351 663.137H490.349C490.486 664.484 491.036 665.624 491.997 666.558C492.987 667.465 494.415 667.918 496.284 667.918C498.07 667.918 499.471 667.479 500.488 666.599C501.532 665.693 502.054 664.539 502.054 663.137C502.054 662.038 501.752 661.145 501.148 660.458C500.543 659.771 499.787 659.249 498.881 658.892C497.974 658.535 496.751 658.15 495.212 657.738C493.316 657.243 491.791 656.748 490.637 656.254C489.511 655.759 488.535 654.99 487.711 653.946C486.914 652.874 486.515 651.445 486.515 649.659C486.515 648.093 486.914 646.705 487.711 645.496C488.508 644.287 489.62 643.353 491.049 642.693C492.506 642.034 494.168 641.704 496.037 641.704C498.73 641.704 500.928 642.377 502.631 643.724C504.363 645.07 505.338 646.856 505.558 649.082H501.436C501.299 647.983 500.722 647.021 499.705 646.197C498.688 645.345 497.342 644.919 495.666 644.919C494.099 644.919 492.822 645.331 491.832 646.156C490.843 646.952 490.349 648.079 490.349 649.535C490.349 650.58 490.637 651.431 491.214 652.091C491.819 652.75 492.547 653.259 493.399 653.616C494.278 653.946 495.501 654.33 497.067 654.77C498.963 655.292 500.488 655.814 501.642 656.336C502.796 656.831 503.786 657.614 504.61 658.686C505.434 659.73 505.846 661.159 505.846 662.972C505.846 664.374 505.475 665.693 504.734 666.929C503.992 668.166 502.892 669.169 501.436 669.938C499.98 670.707 498.262 671.092 496.284 671.092Z"></path>
  <path style="fill: var(--color-darkBlue050)" d="M531.975 658.644C531.975 659.359 531.933 660.115 531.851 660.911H513.798C513.935 663.137 514.691 664.882 516.065 666.146C517.466 667.383 519.156 668.001 521.135 668.001C522.756 668.001 524.102 667.63 525.174 666.888C526.273 666.119 527.042 665.102 527.482 663.838H531.521C530.917 666.009 529.708 667.781 527.894 669.155C526.081 670.501 523.827 671.175 521.135 671.175C518.991 671.175 517.068 670.694 515.364 669.732C513.688 668.77 512.369 667.41 511.407 665.651C510.445 663.865 509.965 661.804 509.965 659.469C509.965 657.133 510.432 655.086 511.366 653.327C512.3 651.569 513.605 650.222 515.282 649.288C516.985 648.326 518.936 647.846 521.135 647.846C523.278 647.846 525.174 648.313 526.823 649.247C528.471 650.181 529.735 651.473 530.615 653.121C531.521 654.743 531.975 656.584 531.975 658.644ZM528.1 657.861C528.1 656.432 527.784 655.21 527.152 654.193C526.52 653.149 525.655 652.366 524.556 651.844C523.484 651.294 522.289 651.019 520.97 651.019C519.074 651.019 517.452 651.624 516.106 652.833C514.787 654.042 514.031 655.718 513.839 657.861H528.1Z"></path>
  <path style="fill: var(--color-darkBlue050)" d="M540.676 640.303V670.804H536.926V640.303H540.676Z"></path>
  <path style="fill: var(--color-darkBlue050)" d="M567.678 658.644C567.678 659.359 567.636 660.115 567.554 660.911H549.501C549.638 663.137 550.394 664.882 551.768 666.146C553.169 667.383 554.859 668.001 556.837 668.001C558.459 668.001 559.805 667.63 560.877 666.888C561.976 666.119 562.745 665.102 563.185 663.838H567.224C566.62 666.009 565.411 667.781 563.597 669.155C561.784 670.501 559.53 671.175 556.837 671.175C554.694 671.175 552.771 670.694 551.067 669.732C549.391 668.77 548.072 667.41 547.11 665.651C546.148 663.865 545.668 661.804 545.668 659.469C545.668 657.133 546.135 655.086 547.069 653.327C548.003 651.569 549.308 650.222 550.985 649.288C552.688 648.326 554.639 647.846 556.837 647.846C558.981 647.846 560.877 648.313 562.525 649.247C564.174 650.181 565.438 651.473 566.317 653.121C567.224 654.743 567.678 656.584 567.678 658.644ZM563.803 657.861C563.803 656.432 563.487 655.21 562.855 654.193C562.223 653.149 561.358 652.366 560.259 651.844C559.187 651.294 557.992 651.019 556.673 651.019C554.777 651.019 553.155 651.624 551.809 652.833C550.49 654.042 549.734 655.718 549.542 657.861H563.803Z"></path>
  <path style="fill: var(--color-darkBlue050)" d="M571.227 659.469C571.227 657.133 571.694 655.1 572.629 653.369C573.563 651.61 574.854 650.25 576.503 649.288C578.179 648.326 580.089 647.846 582.232 647.846C585.007 647.846 587.288 648.519 589.074 649.865C590.888 651.212 592.083 653.08 592.66 655.471H588.621C588.236 654.097 587.481 653.011 586.354 652.215C585.255 651.418 583.881 651.019 582.232 651.019C580.089 651.019 578.358 651.761 577.039 653.245C575.72 654.701 575.06 656.776 575.06 659.469C575.06 662.189 575.72 664.291 577.039 665.775C578.358 667.259 580.089 668.001 582.232 668.001C583.881 668.001 585.255 667.616 586.354 666.847C587.453 666.077 588.209 664.978 588.621 663.549H592.66C592.056 665.858 590.847 667.712 589.033 669.114C587.219 670.488 584.953 671.175 582.232 671.175C580.089 671.175 578.179 670.694 576.503 669.732C574.854 668.77 573.563 667.41 572.629 665.651C571.694 663.893 571.227 661.832 571.227 659.469Z"></path>
  <path style="fill: var(--color-darkBlue050)" d="M602.24 651.308V664.621C602.24 665.72 602.474 666.503 602.941 666.97C603.408 667.41 604.218 667.63 605.373 667.63H608.134V670.804H604.754C602.666 670.804 601.1 670.323 600.055 669.361C599.011 668.399 598.489 666.819 598.489 664.621V651.308H595.563V648.216H598.489V642.528H602.24V648.216H608.134V651.308H602.24Z"></path>
  <path style="fill: var(--color-darkBlue050)" d="M622.266 659.428C622.266 657.119 622.733 655.1 623.667 653.369C624.602 651.61 625.879 650.25 627.5 649.288C629.149 648.326 630.976 647.846 632.982 647.846C634.961 647.846 636.678 648.271 638.135 649.123C639.591 649.975 640.676 651.047 641.391 652.338V648.216H645.183V670.804H641.391V666.599C640.649 667.918 639.536 669.018 638.052 669.897C636.596 670.749 634.892 671.175 632.941 671.175C630.935 671.175 629.122 670.68 627.5 669.691C625.879 668.702 624.602 667.314 623.667 665.528C622.733 663.742 622.266 661.708 622.266 659.428ZM641.391 659.469C641.391 657.765 641.047 656.281 640.36 655.017C639.673 653.753 638.739 652.792 637.558 652.132C636.403 651.445 635.126 651.102 633.724 651.102C632.323 651.102 631.045 651.431 629.891 652.091C628.737 652.75 627.816 653.712 627.13 654.976C626.443 656.24 626.099 657.724 626.099 659.428C626.099 661.159 626.443 662.67 627.13 663.962C627.816 665.226 628.737 666.201 629.891 666.888C631.045 667.547 632.323 667.877 633.724 667.877C635.126 667.877 636.403 667.547 637.558 666.888C638.739 666.201 639.673 665.226 640.36 663.962C641.047 662.67 641.391 661.172 641.391 659.469Z"></path>
  <path style="fill: var(--color-darkBlue050)" d="M655.272 640.303V670.804H651.521V640.303H655.272Z"></path>
  <path style="fill: var(--color-darkBlue050)" d="M665.415 640.303V670.804H661.665V640.303H665.415Z"></path>
  <path style="fill: var(--color-darkBlue050)" d="M687.372 651.308V664.621C687.372 665.72 687.605 666.503 688.072 666.97C688.539 667.41 689.35 667.63 690.504 667.63H693.266V670.804H689.886C687.798 670.804 686.231 670.323 685.187 669.361C684.143 668.399 683.621 666.819 683.621 664.621V651.308H680.694V648.216H683.621V642.528H687.372V648.216H693.266V651.308H687.372Z"></path>
  <path style="fill: var(--color-darkBlue050)" d="M709.021 647.804C710.725 647.804 712.264 648.175 713.638 648.917C715.012 649.632 716.083 650.717 716.853 652.173C717.65 653.63 718.048 655.402 718.048 657.49V670.804H714.338V658.026C714.338 655.773 713.775 654.056 712.649 652.874C711.522 651.665 709.983 651.06 708.032 651.06C706.054 651.06 704.474 651.679 703.292 652.915C702.138 654.152 701.561 655.952 701.561 658.315V670.804H697.81V640.303H701.561V651.431C702.303 650.277 703.32 649.384 704.611 648.752C705.93 648.12 707.4 647.804 709.021 647.804Z"></path>
  <path style="fill: var(--color-darkBlue050)" d="M722.774 659.428C722.774 657.119 723.241 655.1 724.175 653.369C725.109 651.61 726.387 650.25 728.008 649.288C729.657 648.326 731.484 647.846 733.49 647.846C735.468 647.846 737.186 648.271 738.642 649.123C740.099 649.975 741.184 651.047 741.898 652.338V648.216H745.69V670.804H741.898V666.599C741.156 667.918 740.044 669.018 738.56 669.897C737.103 670.749 735.4 671.175 733.449 671.175C731.443 671.175 729.629 670.68 728.008 669.691C726.387 668.702 725.109 667.314 724.175 665.528C723.241 663.742 722.774 661.708 722.774 659.428ZM741.898 659.469C741.898 657.765 741.555 656.281 740.868 655.017C740.181 653.753 739.247 652.792 738.065 652.132C736.911 651.445 735.633 651.102 734.232 651.102C732.831 651.102 731.553 651.431 730.399 652.091C729.245 652.75 728.324 653.712 727.637 654.976C726.95 656.24 726.607 657.724 726.607 659.428C726.607 661.159 726.95 662.67 727.637 663.962C728.324 665.226 729.245 666.201 730.399 666.888C731.553 667.547 732.831 667.877 734.232 667.877C735.633 667.877 736.911 667.547 738.065 666.888C739.247 666.201 740.181 665.226 740.868 663.962C741.555 662.67 741.898 661.172 741.898 659.469Z"></path>
  <path style="fill: var(--color-darkBlue050)" d="M756.604 651.308V664.621C756.604 665.72 756.838 666.503 757.305 666.97C757.772 667.41 758.582 667.63 759.737 667.63H762.498V670.804H759.118C757.03 670.804 755.464 670.323 754.419 669.361C753.375 668.399 752.853 666.819 752.853 664.621V651.308H749.927V648.216H752.853V642.528H756.604V648.216H762.498V651.308H756.604Z"></path>
  <path style="fill: var(--color-darkBlue050)" d="M776.63 659.428C776.63 657.119 777.097 655.1 778.031 653.369C778.965 651.61 780.243 650.25 781.864 649.288C783.513 648.326 785.34 647.846 787.346 647.846C789.325 647.846 791.042 648.271 792.499 649.123C793.955 649.975 795.04 651.047 795.755 652.338V648.216H799.547V670.804H795.755V666.599C795.013 667.918 793.9 669.018 792.416 669.897C790.96 670.749 789.256 671.175 787.305 671.175C785.299 671.175 783.486 670.68 781.864 669.691C780.243 668.702 778.965 667.314 778.031 665.528C777.097 663.742 776.63 661.708 776.63 659.428ZM795.755 659.469C795.755 657.765 795.411 656.281 794.724 655.017C794.037 653.753 793.103 652.792 791.921 652.132C790.767 651.445 789.49 651.102 788.088 651.102C786.687 651.102 785.409 651.431 784.255 652.091C783.101 652.75 782.18 653.712 781.493 654.976C780.807 656.24 780.463 657.724 780.463 659.428C780.463 661.159 780.807 662.67 781.493 663.962C782.18 665.226 783.101 666.201 784.255 666.888C785.409 667.547 786.687 667.877 788.088 667.877C789.49 667.877 790.767 667.547 791.921 666.888C793.103 666.201 794.037 665.226 794.724 663.962C795.411 662.67 795.755 661.172 795.755 659.469Z"></path>
  <path style="fill: var(--color-darkBlue050)" d="M809.636 652.379C810.378 651.088 811.477 650.016 812.933 649.164C814.417 648.285 816.135 647.846 818.086 647.846C820.091 647.846 821.905 648.326 823.526 649.288C825.175 650.25 826.466 651.61 827.401 653.369C828.335 655.1 828.802 657.119 828.802 659.428C828.802 661.708 828.335 663.742 827.401 665.528C826.466 667.314 825.175 668.702 823.526 669.691C821.905 670.68 820.091 671.175 818.086 671.175C816.162 671.175 814.458 670.749 812.975 669.897C811.518 669.018 810.405 667.932 809.636 666.641V681.52H805.885V648.216H809.636V652.379ZM824.969 659.428C824.969 657.724 824.625 656.24 823.938 654.976C823.251 653.712 822.317 652.75 821.136 652.091C819.981 651.431 818.704 651.102 817.302 651.102C815.928 651.102 814.651 651.445 813.469 652.132C812.315 652.792 811.381 653.767 810.666 655.059C809.979 656.323 809.636 657.793 809.636 659.469C809.636 661.172 809.979 662.67 810.666 663.962C811.381 665.226 812.315 666.201 813.469 666.888C814.651 667.547 815.928 667.877 817.302 667.877C818.704 667.877 819.981 667.547 821.136 666.888C822.317 666.201 823.251 665.226 823.938 663.962C824.625 662.67 824.969 661.159 824.969 659.428Z"></path>
  <path style="fill: var(--color-darkBlue050)" d="M837.49 652.379C838.232 651.088 839.331 650.016 840.787 649.164C842.271 648.285 843.988 647.846 845.939 647.846C847.945 647.846 849.759 648.326 851.38 649.288C853.029 650.25 854.32 651.61 855.255 653.369C856.189 655.1 856.656 657.119 856.656 659.428C856.656 661.708 856.189 663.742 855.255 665.528C854.32 667.314 853.029 668.702 851.38 669.691C849.759 670.68 847.945 671.175 845.939 671.175C844.016 671.175 842.312 670.749 840.828 669.897C839.372 669.018 838.259 667.932 837.49 666.641V681.52H833.739V648.216H837.49V652.379ZM852.823 659.428C852.823 657.724 852.479 656.24 851.792 654.976C851.105 653.712 850.171 652.75 848.99 652.091C847.835 651.431 846.558 651.102 845.156 651.102C843.782 651.102 842.505 651.445 841.323 652.132C840.169 652.792 839.235 653.767 838.52 655.059C837.833 656.323 837.49 657.793 837.49 659.469C837.49 661.172 837.833 662.67 838.52 663.962C839.235 665.226 840.169 666.201 841.323 666.888C842.505 667.547 843.782 667.877 845.156 667.877C846.558 667.877 847.835 667.547 848.99 666.888C850.171 666.201 851.105 665.226 851.792 663.962C852.479 662.67 852.823 661.159 852.823 659.428Z"></path>
  <path style="fill: var(--color-darkBlue050)" d="M865.344 640.303V670.804H861.593V640.303H865.344Z"></path>
  <path style="fill: var(--color-darkBlue050)" d="M891.191 648.216L877.589 681.438H873.715L878.166 670.556L869.057 648.216H873.22L880.31 666.517L887.317 648.216H891.191Z"></path>
  <path style="fill: var(--color-illustrationHighlight010)" d="M609.952 335.744L602.319 322.482H598.169V335.744H592.731V302.589H604.18C606.724 302.589 608.871 303.035 610.62 303.925C612.401 304.816 613.72 306.008 614.579 307.503C615.47 308.998 615.915 310.667 615.915 312.512C615.915 314.674 615.279 316.646 614.007 318.427C612.766 320.176 610.842 321.369 608.235 322.005L616.44 335.744H609.952ZM598.169 318.141H604.18C606.215 318.141 607.742 317.632 608.759 316.614C609.809 315.597 610.333 314.229 610.333 312.512C610.333 310.795 609.825 309.459 608.807 308.505C607.789 307.519 606.247 307.026 604.18 307.026H598.169V318.141Z"></path>
  <path style="fill: var(--color-illustrationHighlight010)" d="M646.962 321.957C646.962 322.943 646.898 323.834 646.771 324.629H626.688C626.847 326.728 627.626 328.413 629.025 329.685C630.425 330.957 632.142 331.593 634.177 331.593C637.103 331.593 639.17 330.369 640.379 327.92H646.247C645.451 330.337 644.004 332.325 641.905 333.883C639.838 335.41 637.262 336.173 634.177 336.173C631.665 336.173 629.407 335.616 627.404 334.503C625.432 333.358 623.873 331.768 622.729 329.733C621.616 327.666 621.059 325.281 621.059 322.577C621.059 319.874 621.6 317.505 622.681 315.469C623.794 313.402 625.336 311.812 627.308 310.699C629.312 309.586 631.601 309.029 634.177 309.029C636.658 309.029 638.868 309.57 640.808 310.651C642.748 311.733 644.259 313.259 645.34 315.231C646.421 317.171 646.962 319.413 646.962 321.957ZM641.285 320.24C641.254 318.236 640.538 316.63 639.139 315.422C637.739 314.213 636.006 313.609 633.939 313.609C632.063 313.609 630.457 314.213 629.121 315.422C627.785 316.598 626.99 318.204 626.736 320.24H641.285Z"></path>
  <path style="fill: var(--color-illustrationHighlight010)" d="M650.501 322.482C650.501 319.842 651.042 317.505 652.123 315.469C653.236 313.434 654.731 311.86 656.607 310.747C658.515 309.602 660.614 309.029 662.904 309.029C664.971 309.029 666.768 309.443 668.295 310.27C669.853 311.065 671.093 312.067 672.015 313.275V309.459H677.501V335.744H672.015V331.832C671.093 333.072 669.837 334.106 668.247 334.933C666.657 335.759 664.844 336.173 662.809 336.173C660.551 336.173 658.483 335.6 656.607 334.456C654.731 333.279 653.236 331.657 652.123 329.59C651.042 327.491 650.501 325.122 650.501 322.482ZM672.015 322.577C672.015 320.765 671.634 319.19 670.871 317.855C670.139 316.519 669.169 315.501 667.961 314.802C666.752 314.102 665.448 313.752 664.049 313.752C662.65 313.752 661.346 314.102 660.137 314.802C658.929 315.469 657.943 316.471 657.18 317.807C656.448 319.111 656.082 320.669 656.082 322.482C656.082 324.295 656.448 325.885 657.18 327.252C657.943 328.62 658.929 329.669 660.137 330.401C661.378 331.1 662.681 331.45 664.049 331.45C665.448 331.45 666.752 331.1 667.961 330.401C669.169 329.701 670.139 328.683 670.871 327.348C671.634 325.98 672.015 324.39 672.015 322.577Z"></path>
  <path style="fill: var(--color-illustrationHighlight010)" d="M682.831 322.482C682.831 319.842 683.372 317.505 684.453 315.469C685.566 313.434 687.061 311.86 688.938 310.747C690.846 309.602 692.961 309.029 695.282 309.029C696.999 309.029 698.685 309.411 700.339 310.174C702.024 310.906 703.36 311.892 704.346 313.132V300.443H709.832V335.744H704.346V331.784C703.455 333.056 702.215 334.106 700.625 334.933C699.067 335.759 697.27 336.173 695.234 336.173C692.945 336.173 690.846 335.6 688.938 334.456C687.061 333.279 685.566 331.657 684.453 329.59C683.372 327.491 682.831 325.122 682.831 322.482ZM704.346 322.577C704.346 320.765 703.964 319.19 703.201 317.855C702.469 316.519 701.5 315.501 700.291 314.802C699.083 314.102 697.779 313.752 696.379 313.752C694.98 313.752 693.676 314.102 692.468 314.802C691.259 315.469 690.273 316.471 689.51 317.807C688.779 319.111 688.413 320.669 688.413 322.482C688.413 324.295 688.779 325.885 689.51 327.252C690.273 328.62 691.259 329.669 692.468 330.401C693.708 331.1 695.012 331.45 696.379 331.45C697.779 331.45 699.083 331.1 700.291 330.401C701.5 329.701 702.469 328.683 703.201 327.348C703.964 325.98 704.346 324.39 704.346 322.577Z"></path>
  <path style="fill: var(--color-illustrationHighlight010)" d="M719.741 305.976C718.756 305.976 717.929 305.643 717.261 304.975C716.593 304.307 716.259 303.48 716.259 302.494C716.259 301.508 716.593 300.681 717.261 300.013C717.929 299.346 718.756 299.012 719.741 299.012C720.696 299.012 721.506 299.346 722.174 300.013C722.842 300.681 723.176 301.508 723.176 302.494C723.176 303.48 722.842 304.307 722.174 304.975C721.506 305.643 720.696 305.976 719.741 305.976ZM722.413 309.459V335.744H716.975V309.459H722.413Z"></path>
  <path style="fill: var(--color-illustrationHighlight010)" d="M742.814 309.029C744.882 309.029 746.726 309.459 748.348 310.317C750.002 311.176 751.29 312.448 752.212 314.134C753.134 315.819 753.595 317.855 753.595 320.24V335.744H748.205V321.051C748.205 318.697 747.617 316.901 746.44 315.66C745.263 314.388 743.657 313.752 741.622 313.752C739.586 313.752 737.964 314.388 736.756 315.66C735.579 316.901 734.991 318.697 734.991 321.051V335.744H729.553V309.459H734.991V312.464C735.881 311.383 737.01 310.54 738.378 309.936C739.777 309.332 741.256 309.029 742.814 309.029Z"></path>
  <path style="fill: var(--color-illustrationHighlight010)" d="M771.122 309.029C773.158 309.029 774.955 309.443 776.513 310.27C778.103 311.065 779.343 312.067 780.234 313.275V309.459H785.72V336.173C785.72 338.59 785.211 340.737 784.193 342.613C783.176 344.521 781.697 346.016 779.757 347.097C777.849 348.178 775.559 348.719 772.887 348.719C769.326 348.719 766.368 347.876 764.015 346.191C761.661 344.537 760.325 342.279 760.007 339.417H765.398C765.811 340.784 766.686 341.881 768.022 342.708C769.389 343.567 771.011 343.996 772.887 343.996C775.082 343.996 776.847 343.328 778.183 341.993C779.55 340.657 780.234 338.717 780.234 336.173V331.784C779.312 333.024 778.055 334.074 776.465 334.933C774.907 335.759 773.126 336.173 771.122 336.173C768.833 336.173 766.734 335.6 764.826 334.456C762.949 333.279 761.454 331.657 760.341 329.59C759.26 327.491 758.719 325.122 758.719 322.482C758.719 319.842 759.26 317.505 760.341 315.469C761.454 313.434 762.949 311.86 764.826 310.747C766.734 309.602 768.833 309.029 771.122 309.029ZM780.234 322.577C780.234 320.765 779.852 319.19 779.089 317.855C778.357 316.519 777.387 315.501 776.179 314.802C774.97 314.102 773.667 313.752 772.267 313.752C770.868 313.752 769.564 314.102 768.356 314.802C767.147 315.469 766.161 316.471 765.398 317.807C764.666 319.111 764.301 320.669 764.301 322.482C764.301 324.295 764.666 325.885 765.398 327.252C766.161 328.62 767.147 329.669 768.356 330.401C769.596 331.1 770.9 331.45 772.267 331.45C773.667 331.45 774.97 331.1 776.179 330.401C777.387 329.701 778.357 328.683 779.089 327.348C779.852 325.98 780.234 324.39 780.234 322.577Z"></path>
  <path style="fill: var(--color-illustrationHighlight010)" d="M619.206 425.562V458.716H613.768V444.214H598.169V458.716H592.731V425.562H598.169V439.778H613.768V425.562H619.206Z"></path>
  <path style="fill: var(--color-illustrationHighlight010)" d="M629.132 428.949C628.147 428.949 627.32 428.615 626.652 427.947C625.984 427.279 625.65 426.453 625.65 425.467C625.65 424.481 625.984 423.654 626.652 422.986C627.32 422.318 628.147 421.984 629.132 421.984C630.087 421.984 630.897 422.318 631.565 422.986C632.233 423.654 632.567 424.481 632.567 425.467C632.567 426.453 632.233 427.279 631.565 427.947C630.897 428.615 630.087 428.949 629.132 428.949ZM631.804 432.431V458.716H626.366V432.431H631.804Z"></path>
  <path style="fill: var(--color-illustrationHighlight010)" d="M649.343 445.598L661.46 458.716H654.114L644.382 447.41V458.716H638.944V423.415H644.382V443.928L653.923 432.431H661.46L649.343 445.598Z"></path>
  <path style="fill: var(--color-illustrationHighlight010)" d="M668.125 428.949C667.139 428.949 666.312 428.615 665.644 427.947C664.976 427.279 664.642 426.453 664.642 425.467C664.642 424.481 664.976 423.654 665.644 422.986C666.312 422.318 667.139 421.984 668.125 421.984C669.079 421.984 669.89 422.318 670.557 422.986C671.225 423.654 671.559 424.481 671.559 425.467C671.559 426.453 671.225 427.279 670.557 427.947C669.89 428.615 669.079 428.949 668.125 428.949ZM670.796 432.431V458.716H665.358V432.431H670.796Z"></path>
  <path style="fill: var(--color-illustrationHighlight010)" d="M691.198 432.002C693.265 432.002 695.109 432.431 696.731 433.29C698.385 434.149 699.673 435.421 700.595 437.106C701.517 438.792 701.979 440.827 701.979 443.213V458.716H696.588V444.023C696.588 441.67 696 439.873 694.823 438.633C693.646 437.361 692.04 436.725 690.005 436.725C687.97 436.725 686.348 437.361 685.139 438.633C683.962 439.873 683.374 441.67 683.374 444.023V458.716H677.936V432.431H683.374V435.437C684.265 434.356 685.394 433.513 686.761 432.909C688.16 432.304 689.639 432.002 691.198 432.002Z"></path>
  <path style="fill: var(--color-illustrationHighlight010)" d="M719.506 432.002C721.541 432.002 723.338 432.416 724.896 433.242C726.486 434.037 727.726 435.039 728.617 436.248V432.431H734.103V459.146C734.103 461.563 733.594 463.709 732.576 465.586C731.559 467.494 730.08 468.988 728.14 470.07C726.232 471.151 723.942 471.692 721.271 471.692C717.709 471.692 714.751 470.849 712.398 469.163C710.044 467.51 708.709 465.252 708.391 462.389H713.781C714.195 463.757 715.069 464.854 716.405 465.681C717.772 466.54 719.394 466.969 721.271 466.969C723.465 466.969 725.23 466.301 726.566 464.965C727.933 463.63 728.617 461.69 728.617 459.146V454.757C727.695 455.997 726.438 457.047 724.848 457.905C723.29 458.732 721.509 459.146 719.506 459.146C717.216 459.146 715.117 458.573 713.209 457.428C711.332 456.252 709.838 454.63 708.725 452.562C707.643 450.463 707.103 448.094 707.103 445.455C707.103 442.815 707.643 440.477 708.725 438.442C709.838 436.407 711.332 434.833 713.209 433.719C715.117 432.575 717.216 432.002 719.506 432.002ZM728.617 445.55C728.617 443.737 728.235 442.163 727.472 440.827C726.741 439.492 725.771 438.474 724.562 437.774C723.354 437.075 722.05 436.725 720.65 436.725C719.251 436.725 717.947 437.075 716.739 437.774C715.53 438.442 714.544 439.444 713.781 440.78C713.05 442.084 712.684 443.642 712.684 445.455C712.684 447.267 713.05 448.857 713.781 450.225C714.544 451.592 715.53 452.642 716.739 453.373C717.979 454.073 719.283 454.423 720.65 454.423C722.05 454.423 723.354 454.073 724.562 453.373C725.771 452.674 726.741 451.656 727.472 450.32C728.235 448.953 728.617 447.363 728.617 445.55Z"></path>
  <path style="fill: var(--color-illustrationHighlight010)" d="M590.917 565.04C590.917 561.796 591.664 558.886 593.159 556.311C594.686 553.735 596.737 551.731 599.313 550.3C601.921 548.837 604.767 548.105 607.852 548.105C611.382 548.105 614.514 548.98 617.249 550.729C620.016 552.447 622.02 554.895 623.26 558.076H616.725C615.866 556.326 614.673 555.023 613.147 554.164C611.62 553.305 609.855 552.876 607.852 552.876C605.657 552.876 603.702 553.369 601.984 554.355C600.267 555.341 598.915 556.756 597.929 558.6C596.975 560.445 596.498 562.591 596.498 565.04C596.498 567.489 596.975 569.636 597.929 571.48C598.915 573.325 600.267 574.756 601.984 575.774C603.702 576.759 605.657 577.252 607.852 577.252C609.855 577.252 611.62 576.823 613.147 575.964C614.673 575.106 615.866 573.802 616.725 572.053H623.26C622.02 575.233 620.016 577.682 617.249 579.399C614.514 581.116 611.382 581.975 607.852 581.975C604.735 581.975 601.889 581.26 599.313 579.828C596.737 578.365 594.686 576.346 593.159 573.77C591.664 571.194 590.917 568.284 590.917 565.04Z"></path>
  <path style="fill: var(--color-illustrationHighlight010)" d="M641.027 582.118C638.546 582.118 636.304 581.562 634.3 580.449C632.297 579.304 630.723 577.714 629.578 575.678C628.433 573.611 627.86 571.226 627.86 568.523C627.86 565.851 628.449 563.482 629.626 561.415C630.802 559.348 632.408 557.758 634.444 556.644C636.479 555.531 638.753 554.975 641.265 554.975C643.778 554.975 646.051 555.531 648.087 556.644C650.122 557.758 651.728 559.348 652.905 561.415C654.082 563.482 654.67 565.851 654.67 568.523C654.67 571.194 654.066 573.563 652.857 575.63C651.649 577.698 649.995 579.304 647.896 580.449C645.829 581.562 643.539 582.118 641.027 582.118ZM641.027 577.396C642.426 577.396 643.73 577.062 644.938 576.394C646.179 575.726 647.18 574.724 647.944 573.388C648.707 572.053 649.089 570.431 649.089 568.523C649.089 566.614 648.723 565.008 647.991 563.705C647.26 562.369 646.29 561.367 645.082 560.699C643.873 560.031 642.569 559.697 641.17 559.697C639.771 559.697 638.467 560.031 637.258 560.699C636.081 561.367 635.143 562.369 634.444 563.705C633.744 565.008 633.394 566.614 633.394 568.523C633.394 571.353 634.11 573.547 635.541 575.106C637.004 576.632 638.832 577.396 641.027 577.396Z"></path>
  <path style="fill: var(--color-illustrationHighlight010)" d="M671.447 582.118C668.967 582.118 666.724 581.562 664.721 580.449C662.717 579.304 661.143 577.714 659.998 575.678C658.853 573.611 658.281 571.226 658.281 568.523C658.281 565.851 658.869 563.482 660.046 561.415C661.223 559.348 662.829 557.758 664.864 556.644C666.899 555.531 669.173 554.975 671.686 554.975C674.198 554.975 676.472 555.531 678.507 556.644C680.543 557.758 682.149 559.348 683.325 561.415C684.502 563.482 685.09 565.851 685.09 568.523C685.09 571.194 684.486 573.563 683.278 575.63C682.069 577.698 680.415 579.304 678.316 580.449C676.249 581.562 673.959 582.118 671.447 582.118ZM671.447 577.396C672.846 577.396 674.15 577.062 675.359 576.394C676.599 575.726 677.601 574.724 678.364 573.388C679.127 572.053 679.509 570.431 679.509 568.523C679.509 566.614 679.143 565.008 678.412 563.705C677.68 562.369 676.71 561.367 675.502 560.699C674.293 560.031 672.99 559.697 671.59 559.697C670.191 559.697 668.887 560.031 667.679 560.699C666.502 561.367 665.564 562.369 664.864 563.705C664.164 565.008 663.815 566.614 663.815 568.523C663.815 571.353 664.53 573.547 665.961 575.106C667.424 576.632 669.253 577.396 671.447 577.396Z"></path>
  <path style="fill: var(--color-illustrationHighlight010)" d="M700.866 568.57L712.982 581.689H705.636L695.905 570.383V581.689H690.466V546.388H695.905V566.901L705.445 555.404H712.982L700.866 568.57Z"></path>
  <path style="fill: var(--color-illustrationHighlight010)" d="M719.647 551.922C718.661 551.922 717.834 551.588 717.167 550.92C716.499 550.252 716.165 549.425 716.165 548.439C716.165 547.454 716.499 546.627 717.167 545.959C717.834 545.291 718.661 544.957 719.647 544.957C720.601 544.957 721.412 545.291 722.08 545.959C722.748 546.627 723.082 547.454 723.082 548.439C723.082 549.425 722.748 550.252 722.08 550.92C721.412 551.588 720.601 551.922 719.647 551.922ZM722.319 555.404V581.689H716.88V555.404H722.319Z"></path>
  <path style="fill: var(--color-illustrationHighlight010)" d="M742.72 554.975C744.787 554.975 746.632 555.404 748.254 556.263C749.907 557.121 751.195 558.394 752.118 560.079C753.04 561.765 753.501 563.8 753.501 566.185V581.689H748.111V566.996C748.111 564.643 747.522 562.846 746.346 561.606C745.169 560.334 743.563 559.697 741.528 559.697C739.492 559.697 737.87 560.334 736.662 561.606C735.485 562.846 734.897 564.643 734.897 566.996V581.689H729.458V555.404H734.897V558.409C735.787 557.328 736.916 556.485 738.284 555.881C739.683 555.277 741.162 554.975 742.72 554.975Z"></path>
  <path style="fill: var(--color-illustrationHighlight010)" d="M771.028 554.975C773.063 554.975 774.86 555.388 776.419 556.215C778.009 557.01 779.249 558.012 780.14 559.22V555.404H785.625V582.118C785.625 584.535 785.117 586.682 784.099 588.558C783.081 590.466 781.602 591.961 779.662 593.042C777.754 594.124 775.465 594.664 772.793 594.664C769.231 594.664 766.274 593.821 763.92 592.136C761.567 590.482 760.231 588.224 759.913 585.362H765.304C765.717 586.73 766.592 587.827 767.927 588.654C769.295 589.512 770.917 589.942 772.793 589.942C774.988 589.942 776.753 589.274 778.088 587.938C779.456 586.602 780.14 584.662 780.14 582.118V577.729C779.217 578.97 777.961 580.019 776.371 580.878C774.813 581.705 773.032 582.118 771.028 582.118C768.738 582.118 766.639 581.546 764.731 580.401C762.855 579.224 761.36 577.602 760.247 575.535C759.166 573.436 758.625 571.067 758.625 568.427C758.625 565.788 759.166 563.45 760.247 561.415C761.36 559.379 762.855 557.805 764.731 556.692C766.639 555.547 768.738 554.975 771.028 554.975ZM780.14 568.523C780.14 566.71 779.758 565.136 778.995 563.8C778.263 562.464 777.293 561.447 776.085 560.747C774.876 560.047 773.572 559.697 772.173 559.697C770.774 559.697 769.47 560.047 768.261 560.747C767.053 561.415 766.067 562.417 765.304 563.752C764.572 565.056 764.207 566.614 764.207 568.427C764.207 570.24 764.572 571.83 765.304 573.198C766.067 574.565 767.053 575.615 768.261 576.346C769.502 577.046 770.805 577.396 772.173 577.396C773.572 577.396 774.876 577.046 776.085 576.346C777.293 575.646 778.263 574.629 778.995 573.293C779.758 571.925 780.14 570.335 780.14 568.523Z"></path>
  <path style="fill: var(--color-illustrationPalette040)" d="M484.313 411.875C484.313 404.431 490.347 398.396 497.791 398.396H556.398C563.842 398.396 569.877 404.431 569.877 411.875V470.482C569.877 477.926 563.842 483.96 556.398 483.96H497.791C490.347 483.96 484.313 477.926 484.313 470.482V411.875Z"></path>
  <path style="fill: var(--color-white)" d="M518.302 453.607L506.078 441.494L501.916 445.59L518.302 461.828L553.478 426.969L549.345 422.873L518.302 453.607Z"></path>
  <path style="fill: var(--color-illustrationBorder020)" fill-rule="evenodd" clip-rule="evenodd" d="M558.898 526.416H494.649C491.708 526.416 489.325 528.8 489.325 531.741V595.99C489.325 598.931 491.708 601.314 494.649 601.314H558.898C561.839 601.314 564.223 598.931 564.223 595.99V531.741C564.223 528.8 561.839 526.416 558.898 526.416ZM494.649 521.092C488.768 521.092 484 525.86 484 531.741V595.99C484 601.871 488.768 606.639 494.649 606.639H558.898C564.779 606.639 569.547 601.871 569.547 595.99V531.741C569.547 525.86 564.779 521.092 558.898 521.092H494.649Z"></path>
</svg>
