<svg id="theme-colours-hero" style="width: 100%; height: 100%" width="1345" height="760" viewBox="0 0 1345 760" fill="none" xmlns="http://www.w3.org/2000/svg" class="css-0"><rect style="fill:var(--color-illustrationBackground020)" width="1344" height="759" transform="translate(0.439453 0.902222)"></rect><path style="fill:var(--color-illustrationPalette030)" d="M822.439 594.902C703.698 594.902 607.439 498.867 607.439 380.402C607.439 261.937 703.698 165.902 822.439 165.902C941.181 165.902 1037.44 261.937 1037.44 380.402C1037.44 498.867 941.181 594.902 822.439 594.902Z"></path><path style="fill:var(--color-illustrationPalette050)" d="M523.439 594.902C404.698 594.902 308.439 498.867 308.439 380.402C308.439 261.937 404.698 165.902 523.439 165.902C642.181 165.902 738.439 261.937 738.439 380.402C738.439 498.867 642.181 594.902 523.439 594.902Z"></path><path style="fill:var(--color-illustrationInterface100)" fill-rule="evenodd" clip-rule="evenodd" d="M672.939 226.247C713.33 265.243 738.439 319.897 738.439 380.402C738.439 440.907 713.33 495.561 672.939 534.558C632.549 495.561 607.439 440.907 607.439 380.402C607.439 319.897 632.549 265.243 672.939 226.247Z"></path></svg>