<svg id="theme-colours-overview" style="width: 100%; height: 100%" width="4912" height="2193" viewBox="0 0 4912 2193" fill="none" xmlns="http://www.w3.org/2000/svg" class="css-0"><rect style="fill:var(--color-illustrationBackground020)" x="0.439453" y="0.902222" width="4911" height="2191.61" rx="12.8729"></rect><path style="fill:var(--color-inkBase)" d="M1688.1 1177.66V1171.18H1703.31V1121.59C1703.31 1120.09 1702.56 1119.34 1701.06 1119.34H1689.72V1112.86H1702.86C1705.44 1112.86 1707.42 1113.55 1708.8 1114.93C1710.18 1116.31 1710.87 1118.29 1710.87 1120.87V1171.18H1726.08V1177.66H1688.1ZM1761.77 1125.1C1759.97 1125.1 1758.47 1124.5 1757.27 1123.3C1756.07 1122.1 1755.47 1120.66 1755.47 1118.98C1755.47 1117.24 1756.07 1115.8 1757.27 1114.66C1758.47 1113.46 1759.97 1112.86 1761.77 1112.86C1763.51 1112.86 1764.98 1113.46 1766.18 1114.66C1767.44 1115.8 1768.07 1117.24 1768.07 1118.98C1768.07 1120.66 1767.44 1122.1 1766.18 1123.3C1764.98 1124.5 1763.51 1125.1 1761.77 1125.1ZM1744.31 1177.66V1171.18H1758.53V1141.75C1758.53 1140.25 1757.78 1139.5 1756.28 1139.5H1745.84V1133.02H1758.08C1763.42 1133.02 1766.09 1135.69 1766.09 1141.03V1171.18H1780.31V1177.66H1744.31ZM1820.96 1177.66C1816.88 1177.66 1813.67 1176.67 1811.33 1174.69C1808.99 1172.71 1807.82 1169.14 1807.82 1163.98V1139.5H1796.48V1133.02H1803.23C1806.29 1133.02 1808.06 1131.52 1808.54 1128.52L1809.8 1121.59H1815.38V1133.02H1833.2V1139.5H1815.38V1163.98C1815.38 1166.5 1815.95 1168.27 1817.09 1169.29C1818.29 1170.31 1820.33 1170.82 1823.21 1170.82H1833.2V1177.66H1820.96ZM1870.69 1178.74C1866.49 1178.74 1862.77 1177.78 1859.53 1175.86C1856.35 1173.88 1853.83 1171.15 1851.97 1167.67C1850.11 1164.13 1849.18 1160.02 1849.18 1155.34C1849.18 1150.66 1850.08 1146.58 1851.88 1143.1C1853.74 1139.56 1856.29 1136.83 1859.53 1134.91C1862.77 1132.93 1866.55 1131.94 1870.87 1131.94C1875.19 1131.94 1878.88 1132.93 1881.94 1134.91C1885 1136.83 1887.34 1139.38 1888.96 1142.56C1890.58 1145.74 1891.39 1149.16 1891.39 1152.82C1891.39 1153.48 1891.36 1154.14 1891.3 1154.8C1891.3 1155.46 1891.3 1156.21 1891.3 1157.05H1856.65C1856.83 1160.35 1857.58 1163.11 1858.9 1165.33C1860.28 1167.49 1861.99 1169.11 1864.03 1170.19C1866.13 1171.27 1868.35 1171.81 1870.69 1171.81C1873.99 1171.81 1876.57 1171.12 1878.43 1169.74C1880.29 1168.36 1881.7 1166.44 1882.66 1163.98H1890.13C1889.11 1168.12 1886.98 1171.63 1883.74 1174.51C1880.5 1177.33 1876.15 1178.74 1870.69 1178.74ZM1870.69 1138.69C1867.21 1138.69 1864.15 1139.74 1861.51 1141.84C1858.93 1143.94 1857.34 1146.88 1856.74 1150.66H1883.92C1883.68 1146.94 1882.33 1144.03 1879.87 1141.93C1877.47 1139.77 1874.41 1138.69 1870.69 1138.69ZM1904.77 1177.66V1171.18H1916.2V1141.75C1916.2 1140.25 1915.48 1139.5 1914.04 1139.5H1905.94V1133.02H1916.83C1918.81 1133.02 1920.4 1133.56 1921.6 1134.64C1922.8 1135.72 1923.4 1137.31 1923.4 1139.41V1141.3H1923.76C1924.48 1138.3 1925.83 1135.99 1927.81 1134.37C1929.85 1132.75 1932.67 1131.94 1936.27 1131.94H1944.46V1139.95H1935.19C1931.53 1139.95 1928.71 1141.18 1926.73 1143.64C1924.75 1146.04 1923.76 1149.13 1923.76 1152.91V1171.18H1937.8V1177.66H1904.77ZM1974.39 1178.74C1970.85 1178.74 1967.91 1178.11 1965.57 1176.85C1963.23 1175.59 1961.49 1173.94 1960.35 1171.9C1959.21 1169.8 1958.64 1167.52 1958.64 1165.06C1958.64 1160.5 1960.29 1157.05 1963.59 1154.71C1966.95 1152.31 1971.42 1151.11 1977 1151.11H1989.24V1150.21C1989.24 1142.41 1985.67 1138.51 1978.53 1138.51C1975.65 1138.51 1973.22 1139.14 1971.24 1140.4C1969.32 1141.66 1968.09 1143.64 1967.55 1146.34H1959.81C1960.11 1143.34 1961.1 1140.76 1962.78 1138.6C1964.52 1136.44 1966.74 1134.79 1969.44 1133.65C1972.14 1132.51 1975.17 1131.94 1978.53 1131.94C1984.89 1131.94 1989.51 1133.62 1992.39 1136.98C1995.33 1140.28 1996.8 1144.69 1996.8 1150.21V1177.66H1990.32L1989.69 1170.73H1989.06C1987.74 1172.89 1985.97 1174.78 1983.75 1176.4C1981.59 1177.96 1978.47 1178.74 1974.39 1178.74ZM1975.74 1172.08C1978.62 1172.08 1981.05 1171.39 1983.03 1170.01C1985.07 1168.63 1986.6 1166.8 1987.62 1164.52C1988.7 1162.24 1989.24 1159.75 1989.24 1157.05H1977.63C1973.55 1157.05 1970.67 1157.74 1968.99 1159.12C1967.37 1160.5 1966.56 1162.33 1966.56 1164.61C1966.56 1166.95 1967.34 1168.78 1968.9 1170.1C1970.46 1171.42 1972.74 1172.08 1975.74 1172.08ZM2011.89 1177.66V1171.18H2027.1V1121.59C2027.1 1120.09 2026.35 1119.34 2024.85 1119.34H2013.51V1112.86H2026.65C2029.23 1112.86 2031.21 1113.55 2032.59 1114.93C2033.97 1116.31 2034.66 1118.29 2034.66 1120.87V1171.18H2049.87V1177.66H2011.89Z"></path><path style="fill:var(--color-inkBase)" d="M2959.96 1178.74C2955.94 1178.74 2952.34 1177.81 2949.16 1175.95C2946.04 1174.09 2943.55 1171.42 2941.69 1167.94C2939.83 1164.4 2938.9 1160.2 2938.9 1155.34C2938.9 1150.48 2939.83 1146.31 2941.69 1142.83C2943.55 1139.29 2946.07 1136.59 2949.25 1134.73C2952.49 1132.87 2956.06 1131.94 2959.96 1131.94C2965.48 1131.94 2969.89 1133.32 2973.19 1136.08C2976.49 1138.84 2978.59 1142.53 2979.49 1147.15H2971.75C2971.03 1144.69 2969.65 1142.74 2967.61 1141.3C2965.57 1139.8 2962.99 1139.05 2959.87 1139.05C2957.59 1139.05 2955.43 1139.65 2953.39 1140.85C2951.35 1142.05 2949.7 1143.85 2948.44 1146.25C2947.18 1148.65 2946.55 1151.68 2946.55 1155.34C2946.55 1159 2947.18 1162.06 2948.44 1164.52C2949.7 1166.92 2951.35 1168.72 2953.39 1169.92C2955.43 1171.12 2957.59 1171.72 2959.87 1171.72C2963.17 1171.72 2965.78 1170.97 2967.7 1169.47C2969.68 1167.97 2971.03 1165.99 2971.75 1163.53H2979.49C2978.35 1168.27 2976.1 1171.99 2972.74 1174.69C2969.44 1177.39 2965.18 1178.74 2959.96 1178.74ZM3013.2 1178.74C3009 1178.74 3005.28 1177.78 3002.04 1175.86C2998.8 1173.94 2996.25 1171.24 2994.39 1167.76C2992.53 1164.22 2991.6 1160.08 2991.6 1155.34C2991.6 1150.6 2992.53 1146.49 2994.39 1143.01C2996.25 1139.47 2998.8 1136.74 3002.04 1134.82C3005.28 1132.9 3009 1131.94 3013.2 1131.94C3017.4 1131.94 3021.12 1132.9 3024.36 1134.82C3027.6 1136.74 3030.15 1139.47 3032.01 1143.01C3033.87 1146.49 3034.8 1150.6 3034.8 1155.34C3034.8 1160.08 3033.87 1164.22 3032.01 1167.76C3030.15 1171.24 3027.6 1173.94 3024.36 1175.86C3021.12 1177.78 3017.4 1178.74 3013.2 1178.74ZM3013.2 1171.54C3015.78 1171.54 3018.12 1170.97 3020.22 1169.83C3022.32 1168.69 3023.97 1166.92 3025.17 1164.52C3026.43 1162.12 3027.06 1159.06 3027.06 1155.34C3027.06 1151.62 3026.43 1148.56 3025.17 1146.16C3023.97 1143.76 3022.32 1141.99 3020.22 1140.85C3018.12 1139.71 3015.78 1139.14 3013.2 1139.14C3010.68 1139.14 3008.37 1139.71 3006.27 1140.85C3004.17 1141.99 3002.49 1143.76 3001.23 1146.16C2999.97 1148.56 2999.34 1151.62 2999.34 1155.34C2999.34 1160.92 3000.69 1165.03 3003.39 1167.67C3006.09 1170.25 3009.36 1171.54 3013.2 1171.54ZM3048.09 1177.66V1133.02H3054.39L3055.2 1139.77H3055.65C3056.85 1137.61 3058.74 1135.78 3061.32 1134.28C3063.9 1132.72 3066.87 1131.94 3070.23 1131.94C3075.69 1131.94 3079.77 1133.56 3082.47 1136.8C3085.23 1140.04 3086.61 1144.72 3086.61 1150.84V1177.66H3079.05V1151.74C3079.05 1147.78 3078.18 1144.69 3076.44 1142.47C3074.7 1140.19 3072 1139.05 3068.34 1139.05C3064.8 1139.05 3061.8 1140.28 3059.34 1142.74C3056.88 1145.14 3055.65 1148.62 3055.65 1153.18V1177.66H3048.09ZM3125.81 1177.66C3121.73 1177.66 3118.52 1176.67 3116.18 1174.69C3113.84 1172.71 3112.67 1169.14 3112.67 1163.98V1139.5H3101.33V1133.02H3108.08C3111.14 1133.02 3112.91 1131.52 3113.39 1128.52L3114.65 1121.59H3120.23V1133.02H3138.05V1139.5H3120.23V1163.98C3120.23 1166.5 3120.8 1168.27 3121.94 1169.29C3123.14 1170.31 3125.18 1170.82 3128.06 1170.82H3138.05V1177.66H3125.81ZM3175.54 1178.74C3171.34 1178.74 3167.62 1177.78 3164.38 1175.86C3161.2 1173.88 3158.68 1171.15 3156.82 1167.67C3154.96 1164.13 3154.03 1160.02 3154.03 1155.34C3154.03 1150.66 3154.93 1146.58 3156.73 1143.1C3158.59 1139.56 3161.14 1136.83 3164.38 1134.91C3167.62 1132.93 3171.4 1131.94 3175.72 1131.94C3180.04 1131.94 3183.73 1132.93 3186.79 1134.91C3189.85 1136.83 3192.19 1139.38 3193.81 1142.56C3195.43 1145.74 3196.24 1149.16 3196.24 1152.82C3196.24 1153.48 3196.21 1154.14 3196.15 1154.8C3196.15 1155.46 3196.15 1156.21 3196.15 1157.05H3161.5C3161.68 1160.35 3162.43 1163.11 3163.75 1165.33C3165.13 1167.49 3166.84 1169.11 3168.88 1170.19C3170.98 1171.27 3173.2 1171.81 3175.54 1171.81C3178.84 1171.81 3181.42 1171.12 3183.28 1169.74C3185.14 1168.36 3186.55 1166.44 3187.51 1163.98H3194.98C3193.96 1168.12 3191.83 1171.63 3188.59 1174.51C3185.35 1177.33 3181 1178.74 3175.54 1178.74ZM3175.54 1138.69C3172.06 1138.69 3169 1139.74 3166.36 1141.84C3163.78 1143.94 3162.19 1146.88 3161.59 1150.66H3188.77C3188.53 1146.94 3187.18 1144.03 3184.72 1141.93C3182.32 1139.77 3179.26 1138.69 3175.54 1138.69ZM3208.63 1177.66L3223.84 1155.34L3208.27 1133.02H3216.64L3229.06 1151.02L3241.48 1133.02H3249.85L3234.28 1155.34L3249.49 1177.66H3241.12L3229.06 1159.57L3216.91 1177.66H3208.63ZM3287.7 1177.66C3283.62 1177.66 3280.41 1176.67 3278.07 1174.69C3275.73 1172.71 3274.56 1169.14 3274.56 1163.98V1139.5H3263.22V1133.02H3269.97C3273.03 1133.02 3274.8 1131.52 3275.28 1128.52L3276.54 1121.59H3282.12V1133.02H3299.94V1139.5H3282.12V1163.98C3282.12 1166.5 3282.69 1168.27 3283.83 1169.29C3285.03 1170.31 3287.07 1170.82 3289.95 1170.82H3299.94V1177.66H3287.7ZM3333.84 1178.74C3328.44 1178.74 3324.36 1177.12 3321.6 1173.88C3318.84 1170.64 3317.46 1165.96 3317.46 1159.84V1133.02H3325.02V1158.94C3325.02 1162.9 3325.89 1166.02 3327.63 1168.3C3329.43 1170.52 3332.13 1171.63 3335.73 1171.63C3339.33 1171.63 3342.36 1170.43 3344.82 1168.03C3347.28 1165.57 3348.51 1162.06 3348.51 1157.5V1133.02H3356.07V1177.66H3349.77L3348.96 1170.91H3348.51C3347.31 1173.07 3345.42 1174.93 3342.84 1176.49C3340.26 1177.99 3337.26 1178.74 3333.84 1178.74ZM3387.17 1178.74C3383.63 1178.74 3380.69 1178.11 3378.35 1176.85C3376.01 1175.59 3374.27 1173.94 3373.13 1171.9C3371.99 1169.8 3371.42 1167.52 3371.42 1165.06C3371.42 1160.5 3373.07 1157.05 3376.37 1154.71C3379.73 1152.31 3384.2 1151.11 3389.78 1151.11H3402.02V1150.21C3402.02 1142.41 3398.45 1138.51 3391.31 1138.51C3388.43 1138.51 3386 1139.14 3384.02 1140.4C3382.1 1141.66 3380.87 1143.64 3380.33 1146.34H3372.59C3372.89 1143.34 3373.88 1140.76 3375.56 1138.6C3377.3 1136.44 3379.52 1134.79 3382.22 1133.65C3384.92 1132.51 3387.95 1131.94 3391.31 1131.94C3397.67 1131.94 3402.29 1133.62 3405.17 1136.98C3408.11 1140.28 3409.58 1144.69 3409.58 1150.21V1177.66H3403.1L3402.47 1170.73H3401.84C3400.52 1172.89 3398.75 1174.78 3396.53 1176.4C3394.37 1177.96 3391.25 1178.74 3387.17 1178.74ZM3388.52 1172.08C3391.4 1172.08 3393.83 1171.39 3395.81 1170.01C3397.85 1168.63 3399.38 1166.8 3400.4 1164.52C3401.48 1162.24 3402.02 1159.75 3402.02 1157.05H3390.41C3386.33 1157.05 3383.45 1157.74 3381.77 1159.12C3380.15 1160.5 3379.34 1162.33 3379.34 1164.61C3379.34 1166.95 3380.12 1168.78 3381.68 1170.1C3383.24 1171.42 3385.52 1172.08 3388.52 1172.08ZM3424.67 1177.66V1171.18H3439.88V1121.59C3439.88 1120.09 3439.13 1119.34 3437.63 1119.34H3426.29V1112.86H3439.43C3442.01 1112.86 3443.99 1113.55 3445.37 1114.93C3446.75 1116.31 3447.44 1118.29 3447.44 1120.87V1171.18H3462.65V1177.66H3424.67Z"></path><rect style="fill:var(--color-interface010)" x="3881.61" y="1510.25" width="833.518" height="234.93" rx="117.465"></rect><path style="fill:var(--color-inkBase)" d="M4020.01 1657.81C4014.88 1657.81 4010.28 1656.62 4006.21 1654.24C4002.23 1651.87 3999.04 1648.45 3996.67 1644.01C3994.29 1639.48 3993.1 1634.12 3993.1 1627.91C3993.1 1621.7 3994.29 1616.37 3996.67 1611.92C3999.04 1607.4 4002.26 1603.95 4006.33 1601.57C4010.47 1599.2 4015.03 1598.01 4020.01 1598.01C4027.07 1598.01 4032.7 1599.77 4036.92 1603.3C4041.13 1606.82 4043.82 1611.54 4044.97 1617.44H4035.08C4034.16 1614.3 4032.39 1611.81 4029.79 1609.97C4027.18 1608.05 4023.88 1607.09 4019.9 1607.09C4016.98 1607.09 4014.22 1607.86 4011.62 1609.39C4009.01 1610.93 4006.9 1613.23 4005.29 1616.29C4003.68 1619.36 4002.88 1623.23 4002.88 1627.91C4002.88 1632.58 4003.68 1636.49 4005.29 1639.64C4006.9 1642.7 4009.01 1645 4011.62 1646.54C4014.22 1648.07 4016.98 1648.84 4019.9 1648.84C4024.11 1648.84 4027.45 1647.88 4029.9 1645.96C4032.43 1644.05 4034.16 1641.52 4035.08 1638.37H4044.97C4043.51 1644.43 4040.64 1649.18 4036.34 1652.63C4032.13 1656.08 4026.68 1657.81 4020.01 1657.81ZM4088.05 1657.81C4082.68 1657.81 4077.93 1656.58 4073.79 1654.13C4069.65 1651.67 4066.39 1648.22 4064.01 1643.78C4061.64 1639.25 4060.45 1633.96 4060.45 1627.91C4060.45 1621.85 4061.64 1616.6 4064.01 1612.15C4066.39 1607.63 4069.65 1604.14 4073.79 1601.69C4077.93 1599.23 4082.68 1598.01 4088.05 1598.01C4093.41 1598.01 4098.17 1599.23 4102.31 1601.69C4106.45 1604.14 4109.71 1607.63 4112.08 1612.15C4114.46 1616.6 4115.65 1621.85 4115.65 1627.91C4115.65 1633.96 4114.46 1639.25 4112.08 1643.78C4109.71 1648.22 4106.45 1651.67 4102.31 1654.13C4098.17 1656.58 4093.41 1657.81 4088.05 1657.81ZM4088.05 1648.61C4091.34 1648.61 4094.33 1647.88 4097.02 1646.42C4099.7 1644.97 4101.81 1642.7 4103.34 1639.64C4104.95 1636.57 4105.76 1632.66 4105.76 1627.91C4105.76 1623.15 4104.95 1619.24 4103.34 1616.18C4101.81 1613.11 4099.7 1610.85 4097.02 1609.39C4094.33 1607.94 4091.34 1607.21 4088.05 1607.21C4084.83 1607.21 4081.88 1607.94 4079.19 1609.39C4076.51 1610.85 4074.36 1613.11 4072.75 1616.18C4071.14 1619.24 4070.34 1623.15 4070.34 1627.91C4070.34 1635.04 4072.06 1640.29 4075.51 1643.66C4078.96 1646.96 4083.14 1648.61 4088.05 1648.61ZM4126.76 1656.43V1599.39H4134.69L4135.73 1606.06H4136.3C4137.3 1603.76 4138.79 1601.84 4140.79 1600.31C4142.86 1598.77 4145.35 1598.01 4148.26 1598.01C4151.18 1598.01 4153.63 1598.74 4155.62 1600.19C4157.69 1601.57 4159.19 1603.53 4160.11 1606.06H4160.57C4161.56 1603.76 4163.17 1601.84 4165.4 1600.31C4167.62 1598.77 4170.3 1598.01 4173.45 1598.01C4177.82 1598.01 4181.08 1599.5 4183.22 1602.49C4185.45 1605.41 4186.56 1609.32 4186.56 1614.22V1656.43H4177.13V1615.72C4177.13 1612.96 4176.55 1610.77 4175.4 1609.16C4174.33 1607.55 4172.57 1606.75 4170.11 1606.75C4167.58 1606.75 4165.51 1607.71 4163.9 1609.62C4162.29 1611.54 4161.49 1614.26 4161.49 1617.79V1656.43H4151.94V1615.72C4151.94 1612.96 4151.41 1610.77 4150.33 1609.16C4149.26 1607.55 4147.5 1606.75 4145.04 1606.75C4142.51 1606.75 4140.4 1607.71 4138.72 1609.62C4137.11 1611.54 4136.3 1614.26 4136.3 1617.79V1656.43H4126.76ZM4200.43 1681.73V1599.39H4208.25L4209.4 1608.82H4210.09C4211.54 1605.75 4213.88 1603.18 4217.1 1601.11C4220.32 1599.04 4224.12 1598.01 4228.49 1598.01C4233.09 1598.01 4237.23 1599.16 4240.91 1601.46C4244.66 1603.76 4247.62 1607.17 4249.76 1611.69C4251.91 1616.14 4252.98 1621.58 4252.98 1628.02C4252.98 1634.39 4251.87 1639.79 4249.65 1644.24C4247.5 1648.68 4244.51 1652.06 4240.68 1654.36C4236.92 1656.66 4232.59 1657.81 4227.68 1657.81C4223.31 1657.81 4219.59 1656.89 4216.53 1655.05C4213.54 1653.13 4211.39 1650.91 4210.09 1648.38V1681.73H4200.43ZM4226.53 1648.61C4231.36 1648.61 4235.35 1646.92 4238.49 1643.55C4241.64 1640.1 4243.21 1634.88 4243.21 1627.91C4243.21 1620.93 4241.64 1615.76 4238.49 1612.38C4235.35 1608.93 4231.36 1607.21 4226.53 1607.21C4221.7 1607.21 4217.72 1608.93 4214.57 1612.38C4211.43 1615.76 4209.86 1620.93 4209.86 1627.91C4209.86 1634.88 4211.43 1640.1 4214.57 1643.55C4217.72 1646.92 4221.7 1648.61 4226.53 1648.61ZM4294.91 1657.81C4289.55 1657.81 4284.79 1656.58 4280.65 1654.13C4276.51 1651.67 4273.25 1648.22 4270.88 1643.78C4268.5 1639.25 4267.31 1633.96 4267.31 1627.91C4267.31 1621.85 4268.5 1616.6 4270.88 1612.15C4273.25 1607.63 4276.51 1604.14 4280.65 1601.69C4284.79 1599.23 4289.55 1598.01 4294.91 1598.01C4300.28 1598.01 4305.03 1599.23 4309.17 1601.69C4313.31 1604.14 4316.57 1607.63 4318.95 1612.15C4321.32 1616.6 4322.51 1621.85 4322.51 1627.91C4322.51 1633.96 4321.32 1639.25 4318.95 1643.78C4316.57 1648.22 4313.31 1651.67 4309.17 1654.13C4305.03 1656.58 4300.28 1657.81 4294.91 1657.81ZM4294.91 1648.61C4298.21 1648.61 4301.2 1647.88 4303.88 1646.42C4306.57 1644.97 4308.67 1642.7 4310.21 1639.64C4311.82 1636.57 4312.62 1632.66 4312.62 1627.91C4312.62 1623.15 4311.82 1619.24 4310.21 1616.18C4308.67 1613.11 4306.57 1610.85 4303.88 1609.39C4301.2 1607.94 4298.21 1607.21 4294.91 1607.21C4291.69 1607.21 4288.74 1607.94 4286.06 1609.39C4283.37 1610.85 4281.23 1613.11 4279.62 1616.18C4278.01 1619.24 4277.2 1623.15 4277.2 1627.91C4277.2 1635.04 4278.93 1640.29 4282.38 1643.66C4285.83 1646.96 4290.01 1648.61 4294.91 1648.61ZM4339.49 1656.43V1599.39H4347.54L4348.57 1608.01H4349.15C4350.68 1605.25 4353.1 1602.91 4356.39 1601C4359.69 1599 4363.48 1598.01 4367.78 1598.01C4374.75 1598.01 4379.97 1600.08 4383.42 1604.22C4386.94 1608.36 4388.71 1614.34 4388.71 1622.16V1656.43H4379.05V1623.31C4379.05 1618.25 4377.94 1614.3 4375.71 1611.46C4373.49 1608.55 4370.04 1607.09 4365.36 1607.09C4360.84 1607.09 4357.01 1608.66 4353.86 1611.81C4350.72 1614.87 4349.15 1619.32 4349.15 1625.15V1656.43H4339.49ZM4433.4 1657.81C4428.03 1657.81 4423.28 1656.58 4419.14 1654.13C4415.07 1651.6 4411.85 1648.11 4409.48 1643.66C4407.1 1639.14 4405.91 1633.89 4405.91 1627.91C4405.91 1621.93 4407.06 1616.71 4409.36 1612.27C4411.74 1607.74 4415 1604.26 4419.14 1601.8C4423.28 1599.27 4428.11 1598.01 4433.63 1598.01C4439.15 1598.01 4443.86 1599.27 4447.77 1601.8C4451.68 1604.26 4454.67 1607.51 4456.74 1611.58C4458.81 1615.64 4459.85 1620.01 4459.85 1624.69C4459.85 1625.53 4459.81 1626.37 4459.73 1627.22C4459.73 1628.06 4459.73 1629.02 4459.73 1630.09H4415.46C4415.69 1634.31 4416.65 1637.84 4418.33 1640.67C4420.1 1643.43 4422.28 1645.5 4424.89 1646.88C4427.57 1648.26 4430.41 1648.95 4433.4 1648.95C4437.61 1648.95 4440.91 1648.07 4443.29 1646.31C4445.66 1644.54 4447.47 1642.09 4448.69 1638.95H4458.24C4456.93 1644.24 4454.21 1648.72 4450.07 1652.4C4445.93 1656.01 4440.37 1657.81 4433.4 1657.81ZM4433.4 1606.63C4428.95 1606.63 4425.04 1607.97 4421.67 1610.66C4418.37 1613.34 4416.34 1617.1 4415.57 1621.93H4450.3C4450 1617.17 4448.27 1613.46 4445.13 1610.77C4442.06 1608.01 4438.15 1606.63 4433.4 1606.63ZM4477.4 1656.43V1599.39H4485.45L4486.48 1608.01H4487.06C4488.59 1605.25 4491.01 1602.91 4494.3 1601C4497.6 1599 4501.39 1598.01 4505.69 1598.01C4512.66 1598.01 4517.88 1600.08 4521.33 1604.22C4524.85 1608.36 4526.62 1614.34 4526.62 1622.16V1656.43H4516.96V1623.31C4516.96 1618.25 4515.85 1614.3 4513.62 1611.46C4511.4 1608.55 4507.95 1607.09 4503.27 1607.09C4498.75 1607.09 4494.92 1608.66 4491.77 1611.81C4488.63 1614.87 4487.06 1619.32 4487.06 1625.15V1656.43H4477.4ZM4576.71 1656.43C4571.5 1656.43 4567.4 1655.16 4564.41 1652.63C4561.42 1650.1 4559.92 1645.54 4559.92 1638.95V1607.67H4545.43V1599.39H4554.06C4557.97 1599.39 4560.23 1597.47 4560.84 1593.64L4562.45 1584.78H4569.58V1599.39H4592.35V1607.67H4569.58V1638.95C4569.58 1642.17 4570.31 1644.43 4571.77 1645.73C4573.3 1647.04 4575.91 1647.69 4579.59 1647.69H4592.35V1656.43H4576.71Z"></path><rect style="fill:var(--color-interface010)" x="206.405" y="1510.25" width="833.518" height="234.93" rx="117.465"></rect><path style="fill:var(--color-inkBase)" d="M478.246 1656.43L453.176 1599.39H464.216L483.881 1645.85L503.661 1599.39H514.586L489.401 1656.43H478.246ZM548.006 1657.81C543.483 1657.81 539.726 1657 536.736 1655.39C533.746 1653.78 531.523 1651.67 530.066 1649.07C528.609 1646.38 527.881 1643.47 527.881 1640.33C527.881 1634.5 529.989 1630.09 534.206 1627.1C538.499 1624.04 544.211 1622.5 551.341 1622.5H566.981V1621.35C566.981 1611.39 562.419 1606.4 553.296 1606.4C549.616 1606.4 546.511 1607.21 543.981 1608.82C541.528 1610.43 539.956 1612.96 539.266 1616.41H529.376C529.759 1612.57 531.024 1609.28 533.171 1606.52C535.394 1603.76 538.231 1601.65 541.681 1600.19C545.131 1598.74 549.003 1598.01 553.296 1598.01C561.423 1598.01 567.326 1600.15 571.006 1604.45C574.763 1608.66 576.641 1614.3 576.641 1621.35V1656.43H568.361L567.556 1647.57H566.751C565.064 1650.33 562.803 1652.75 559.966 1654.82C557.206 1656.81 553.219 1657.81 548.006 1657.81ZM549.731 1649.3C553.411 1649.3 556.516 1648.42 559.046 1646.65C561.653 1644.89 563.608 1642.55 564.911 1639.64C566.291 1636.72 566.981 1633.54 566.981 1630.09H552.146C546.933 1630.09 543.253 1630.97 541.106 1632.74C539.036 1634.5 538.001 1636.84 538.001 1639.75C538.001 1642.74 538.998 1645.08 540.991 1646.77C542.984 1648.45 545.898 1649.3 549.731 1649.3ZM595.916 1656.43V1648.15H615.351V1584.78C615.351 1582.87 614.393 1581.91 612.476 1581.91H597.986V1573.63H614.776C618.073 1573.63 620.603 1574.51 622.366 1576.27C624.129 1578.04 625.011 1580.57 625.011 1583.86V1648.15H644.446V1656.43H595.916ZM686.721 1657.81C679.821 1657.81 674.608 1655.74 671.081 1651.6C667.554 1647.46 665.791 1641.48 665.791 1633.66V1599.39H675.451V1632.51C675.451 1637.57 676.563 1641.55 678.786 1644.47C681.086 1647.3 684.536 1648.72 689.136 1648.72C693.736 1648.72 697.608 1647.19 700.751 1644.12C703.894 1640.98 705.466 1636.49 705.466 1630.67V1599.39H715.126V1656.43H707.076L706.041 1647.8H705.466C703.933 1650.56 701.518 1652.94 698.221 1654.93C694.924 1656.85 691.091 1657.81 686.721 1657.81ZM760.276 1657.81C754.91 1657.81 750.156 1656.58 746.016 1654.13C741.953 1651.6 738.733 1648.11 736.356 1643.66C733.98 1639.14 732.791 1633.89 732.791 1627.91C732.791 1621.93 733.941 1616.71 736.241 1612.27C738.618 1607.74 741.876 1604.26 746.016 1601.8C750.156 1599.27 754.986 1598.01 760.506 1598.01C766.026 1598.01 770.741 1599.27 774.651 1601.8C778.561 1604.26 781.551 1607.51 783.621 1611.58C785.691 1615.64 786.726 1620.01 786.726 1624.69C786.726 1625.53 786.688 1626.37 786.611 1627.22C786.611 1628.06 786.611 1629.02 786.611 1630.09H742.336C742.566 1634.31 743.525 1637.84 745.211 1640.67C746.975 1643.43 749.16 1645.5 751.766 1646.88C754.45 1648.26 757.286 1648.95 760.276 1648.95C764.493 1648.95 767.79 1648.07 770.166 1646.31C772.543 1644.54 774.345 1642.09 775.571 1638.95H785.116C783.813 1644.24 781.091 1648.72 776.951 1652.4C772.811 1656.01 767.253 1657.81 760.276 1657.81ZM760.276 1606.63C755.83 1606.63 751.92 1607.97 748.546 1610.66C745.25 1613.34 743.218 1617.1 742.451 1621.93H777.181C776.875 1617.17 775.15 1613.46 772.006 1610.77C768.94 1608.01 765.03 1606.63 760.276 1606.63Z"></path><rect style="fill:var(--color-interface010)" x="1387.49" y="1510.25" width="2136.9" height="234.93" rx="117.465"></rect><path style="fill:var(--color-inkBase)" d="M2287.23 1656.43C2282.02 1656.43 2277.92 1655.16 2274.93 1652.63C2271.94 1650.1 2270.44 1645.54 2270.44 1638.95V1607.67H2255.95V1599.39H2264.58C2268.49 1599.39 2270.75 1597.47 2271.36 1593.64L2272.97 1584.78H2280.1V1599.39H2302.87V1607.67H2280.1V1638.95C2280.1 1642.17 2280.83 1644.43 2282.29 1645.73C2283.82 1647.04 2286.43 1647.69 2290.11 1647.69H2302.87V1656.43H2287.23ZM2350.21 1657.81C2344.84 1657.81 2340.09 1656.58 2335.95 1654.13C2331.81 1651.67 2328.55 1648.22 2326.17 1643.78C2323.8 1639.25 2322.61 1633.96 2322.61 1627.91C2322.61 1621.85 2323.8 1616.6 2326.17 1612.15C2328.55 1607.63 2331.81 1604.14 2335.95 1601.69C2340.09 1599.23 2344.84 1598.01 2350.21 1598.01C2355.58 1598.01 2360.33 1599.23 2364.47 1601.69C2368.61 1604.14 2371.87 1607.63 2374.24 1612.15C2376.62 1616.6 2377.81 1621.85 2377.81 1627.91C2377.81 1633.96 2376.62 1639.25 2374.24 1643.78C2371.87 1648.22 2368.61 1651.67 2364.47 1654.13C2360.33 1656.58 2355.58 1657.81 2350.21 1657.81ZM2350.21 1648.61C2353.51 1648.61 2356.5 1647.88 2359.18 1646.42C2361.86 1644.97 2363.97 1642.7 2365.5 1639.64C2367.11 1636.57 2367.92 1632.66 2367.92 1627.91C2367.92 1623.15 2367.11 1619.24 2365.5 1616.18C2363.97 1613.11 2361.86 1610.85 2359.18 1609.39C2356.5 1607.94 2353.51 1607.21 2350.21 1607.21C2346.99 1607.21 2344.04 1607.94 2341.35 1609.39C2338.67 1610.85 2336.52 1613.11 2334.91 1616.18C2333.3 1619.24 2332.5 1623.15 2332.5 1627.91C2332.5 1635.04 2334.22 1640.29 2337.67 1643.66C2341.12 1646.96 2345.3 1648.61 2350.21 1648.61ZM2397.43 1656.43V1573.63H2407.09V1623.54L2430.9 1599.39H2443.2L2417.79 1624.8V1625.49L2446.31 1656.43H2434.35L2407.09 1626.76V1656.43H2397.43ZM2488.7 1657.81C2483.33 1657.81 2478.58 1656.58 2474.44 1654.13C2470.37 1651.6 2467.15 1648.11 2464.78 1643.66C2462.4 1639.14 2461.21 1633.89 2461.21 1627.91C2461.21 1621.93 2462.36 1616.71 2464.66 1612.27C2467.04 1607.74 2470.3 1604.26 2474.44 1601.8C2478.58 1599.27 2483.41 1598.01 2488.93 1598.01C2494.45 1598.01 2499.16 1599.27 2503.07 1601.8C2506.98 1604.26 2509.97 1607.51 2512.04 1611.58C2514.11 1615.64 2515.15 1620.01 2515.15 1624.69C2515.15 1625.53 2515.11 1626.37 2515.03 1627.22C2515.03 1628.06 2515.03 1629.02 2515.03 1630.09H2470.76C2470.99 1634.31 2471.94 1637.84 2473.63 1640.67C2475.39 1643.43 2477.58 1645.5 2480.19 1646.88C2482.87 1648.26 2485.71 1648.95 2488.7 1648.95C2492.91 1648.95 2496.21 1648.07 2498.59 1646.31C2500.96 1644.54 2502.76 1642.09 2503.99 1638.95H2513.54C2512.23 1644.24 2509.51 1648.72 2505.37 1652.4C2501.23 1656.01 2495.67 1657.81 2488.7 1657.81ZM2488.7 1606.63C2484.25 1606.63 2480.34 1607.97 2476.97 1610.66C2473.67 1613.34 2471.64 1617.1 2470.87 1621.93H2505.6C2505.29 1617.17 2503.57 1613.46 2500.43 1610.77C2497.36 1608.01 2493.45 1606.63 2488.7 1606.63ZM2532.7 1656.43V1599.39H2540.75L2541.78 1608.01H2542.36C2543.89 1605.25 2546.3 1602.91 2549.6 1601C2552.9 1599 2556.69 1598.01 2560.99 1598.01C2567.96 1598.01 2573.18 1600.08 2576.63 1604.22C2580.15 1608.36 2581.92 1614.34 2581.92 1622.16V1656.43H2572.26V1623.31C2572.26 1618.25 2571.14 1614.3 2568.92 1611.46C2566.7 1608.55 2563.25 1607.09 2558.57 1607.09C2554.05 1607.09 2550.21 1608.66 2547.07 1611.81C2543.93 1614.87 2542.36 1619.32 2542.36 1625.15V1656.43H2532.7ZM2626.61 1657.81C2619.32 1657.81 2613.42 1656.12 2608.9 1652.75C2604.45 1649.3 2601.96 1644.58 2601.42 1638.6H2611.43C2611.89 1641.75 2613.42 1644.31 2616.03 1646.31C2618.71 1648.3 2622.31 1649.3 2626.84 1649.3C2631.13 1649.3 2634.31 1648.38 2636.38 1646.54C2638.53 1644.7 2639.6 1642.59 2639.6 1640.21C2639.6 1636.99 2638.34 1634.81 2635.81 1633.66C2633.28 1632.43 2629.48 1631.51 2624.42 1630.9C2618.36 1630.21 2613.34 1628.56 2609.36 1625.95C2605.37 1623.35 2603.38 1619.44 2603.38 1614.22C2603.38 1609.55 2605.33 1605.67 2609.24 1602.61C2613.15 1599.54 2618.48 1598.01 2625.23 1598.01C2631.9 1598.01 2637.15 1599.54 2640.98 1602.61C2644.81 1605.6 2647 1609.89 2647.54 1615.49H2637.99C2637.76 1612.73 2636.42 1610.54 2633.97 1608.93C2631.59 1607.25 2628.6 1606.4 2625 1606.4C2621.24 1606.4 2618.33 1607.13 2616.26 1608.59C2614.19 1609.97 2613.15 1611.81 2613.15 1614.11C2613.15 1616.41 2614.3 1618.32 2616.6 1619.86C2618.98 1621.31 2622.7 1622.27 2627.76 1622.73C2631.74 1623.19 2635.38 1623.96 2638.68 1625.03C2641.98 1626.11 2644.58 1627.79 2646.5 1630.09C2648.49 1632.39 2649.49 1635.61 2649.49 1639.75C2649.57 1643.2 2648.61 1646.31 2646.62 1649.07C2644.7 1651.75 2642.02 1653.9 2638.57 1655.51C2635.12 1657.04 2631.13 1657.81 2626.61 1657.81Z"></path><rect style="fill:var(--color-illustrationPalette040)" x="315.825" y="522.496" width="617.898" height="617.898" rx="35.5741"></rect><path style="fill:var(--color-white)" d="M417.697 1067.6L420.673 1048.69H410.785V1041.59H421.729L424.129 1026.42H414.625V1019.32H425.281L428.161 1000.4H435.841L432.865 1019.32H447.649L450.529 1000.4H458.209L455.233 1019.32H465.121V1026.42H454.177L451.777 1041.59H461.377V1048.69H450.625L447.745 1067.6H440.065L443.041 1048.69H428.257L425.377 1067.6H417.697ZM429.409 1041.59H444.097L446.497 1026.42H431.809L429.409 1041.59ZM495.516 1068.76C490.908 1068.76 486.94 1067.89 483.612 1066.16C480.284 1064.44 477.66 1062.1 475.74 1059.16C473.82 1056.21 472.668 1052.85 472.284 1049.08H480.54C481.116 1052.72 482.748 1055.7 485.436 1058C488.124 1060.24 491.516 1061.36 495.612 1061.36C500.412 1061.36 504.188 1059.83 506.94 1056.76C509.692 1053.62 511.068 1049.68 511.068 1044.95C511.068 1039.96 509.66 1036.05 506.844 1033.24C504.028 1030.36 500.38 1028.92 495.9 1028.92C492.316 1028.92 489.244 1029.75 486.684 1031.41C484.188 1033.01 482.172 1035.06 480.636 1037.56H472.956L478.716 1000.4H514.62V1007.8H485.052L481.5 1027.76H481.98C483.452 1026.16 485.436 1024.76 487.932 1023.54C490.492 1022.32 493.436 1021.72 496.764 1021.72C501.18 1021.72 505.02 1022.68 508.284 1024.6C511.612 1026.45 514.204 1029.14 516.06 1032.66C517.916 1036.12 518.844 1040.18 518.844 1044.85C518.844 1049.2 517.916 1053.2 516.06 1056.85C514.268 1060.44 511.612 1063.32 508.092 1065.49C504.636 1067.67 500.444 1068.76 495.516 1068.76ZM532.534 1067.6V1000.4H574.486V1007.7H540.598V1030.07H571.606V1037.36H540.598V1060.31H574.486V1067.6H532.534ZM618.897 1067.6V1052.05H586.737V1045.81L617.361 1000.4H626.961V1044.76H636.561V1052.05H626.961V1067.6H618.897ZM595.761 1044.76H619.281V1009.81L595.761 1044.76ZM676.459 1067.6V1052.05H644.299V1045.81L674.923 1000.4H684.523V1044.76H694.123V1052.05H684.523V1067.6H676.459ZM653.323 1044.76H676.843V1009.81L653.323 1044.76ZM705.222 1067.6V1000.4H747.174V1007.7H713.286V1030.07H744.294V1037.36H713.286V1060.31H747.174V1067.6H705.222ZM791.584 1067.6V1052.05H759.424V1045.81L790.048 1000.4H799.648V1044.76H809.248V1052.05H799.648V1067.6H791.584ZM768.448 1044.76H791.968V1009.81L768.448 1044.76Z"></path><path style="fill:var(--color-illustrationBorder020)" fill-rule="evenodd" clip-rule="evenodd" d="M1223.55 792.511C1219.26 789.841 1213.71 792.924 1213.71 797.975V824.217H1004.52C1000.97 824.217 998.087 827.098 998.087 830.653C998.087 834.208 1000.97 837.09 1004.52 837.09H1213.71V864.914C1213.71 869.964 1219.26 873.047 1223.55 870.38L1277.33 836.922C1281.37 834.404 1281.37 828.513 1277.33 825.993L1223.55 792.511Z"></path><rect style="fill:var(--color-white)" x="1346.23" y="691.343" width="946.374" height="280.203" rx="34.0741" stroke="#BBC3C9" stroke-width="3"></rect><ellipse style="fill:var(--color-illustrationPalette040)" cx="1500.8" cy="831.444" rx="65.9735" ry="64.3643"></ellipse><path style="fill:var(--color-illustrationPalette100)" d="M1657.48 887.302V814.27H1664.42L1665.44 822.634H1666.05C1667.34 819.914 1669.42 817.636 1672.27 815.8C1675.13 813.964 1678.5 813.046 1682.37 813.046C1686.45 813.046 1690.12 814.066 1693.39 816.106C1696.72 818.146 1699.34 821.172 1701.24 825.184C1703.15 829.128 1704.1 833.956 1704.1 839.668C1704.1 845.312 1703.11 850.106 1701.14 854.05C1699.24 857.994 1696.58 860.986 1693.18 863.026C1689.85 865.066 1686.01 866.086 1681.66 866.086C1677.78 866.086 1674.48 865.27 1671.76 863.638C1669.11 861.938 1667.21 859.966 1666.05 857.722V887.302H1657.48ZM1680.64 857.926C1684.92 857.926 1688.46 856.43 1691.25 853.438C1694.03 850.378 1695.43 845.754 1695.43 839.566C1695.43 833.378 1694.03 828.788 1691.25 825.796C1688.46 822.736 1684.92 821.206 1680.64 821.206C1676.35 821.206 1672.82 822.736 1670.03 825.796C1667.24 828.788 1665.85 833.378 1665.85 839.566C1665.85 845.754 1667.24 850.378 1670.03 853.438C1672.82 856.43 1676.35 857.926 1680.64 857.926ZM1737.72 866.086C1731.6 866.086 1726.97 864.25 1723.85 860.578C1720.72 856.906 1719.15 851.602 1719.15 844.666V814.27H1727.72V843.646C1727.72 848.134 1728.71 851.67 1730.68 854.254C1732.72 856.77 1735.78 858.028 1739.86 858.028C1743.94 858.028 1747.37 856.668 1750.16 853.948C1752.95 851.16 1754.34 847.182 1754.34 842.014V814.27H1762.91V864.862H1755.77L1754.85 857.212H1754.34C1752.98 859.66 1750.84 861.768 1747.92 863.536C1744.99 865.236 1741.59 866.086 1737.72 866.086ZM1780.42 864.862V857.518H1793.37V824.164C1793.37 822.464 1792.55 821.614 1790.92 821.614H1781.74V814.27H1794.08C1796.33 814.27 1798.13 814.882 1799.49 816.106C1800.85 817.33 1801.53 819.132 1801.53 821.512V823.654H1801.94C1802.75 820.254 1804.28 817.636 1806.53 815.8C1808.84 813.964 1812.04 813.046 1816.12 813.046H1825.4V822.124H1814.89C1810.74 822.124 1807.55 823.518 1805.3 826.306C1803.06 829.026 1801.94 832.528 1801.94 836.812V857.518H1817.85V864.862H1780.42ZM1840.96 887.302V814.27H1847.9L1848.92 822.634H1849.53C1850.82 819.914 1852.9 817.636 1855.75 815.8C1858.61 813.964 1861.98 813.046 1865.85 813.046C1869.93 813.046 1873.6 814.066 1876.87 816.106C1880.2 818.146 1882.82 821.172 1884.72 825.184C1886.63 829.128 1887.58 833.956 1887.58 839.668C1887.58 845.312 1886.59 850.106 1884.62 854.05C1882.72 857.994 1880.06 860.986 1876.66 863.026C1873.33 865.066 1869.49 866.086 1865.14 866.086C1861.26 866.086 1857.96 865.27 1855.24 863.638C1852.59 861.938 1850.69 859.966 1849.53 857.722V887.302H1840.96ZM1864.12 857.926C1868.4 857.926 1871.94 856.43 1874.73 853.438C1877.51 850.378 1878.91 845.754 1878.91 839.566C1878.91 833.378 1877.51 828.788 1874.73 825.796C1871.94 822.736 1868.4 821.206 1864.12 821.206C1859.83 821.206 1856.3 822.736 1853.51 825.796C1850.72 828.788 1849.33 833.378 1849.33 839.566C1849.33 845.754 1850.72 850.378 1853.51 853.438C1856.3 856.43 1859.83 857.926 1864.12 857.926ZM1901.82 864.862V857.518H1919.06V801.316C1919.06 799.616 1918.21 798.766 1916.51 798.766H1903.65V791.422H1918.55C1921.47 791.422 1923.71 792.204 1925.28 793.768C1926.84 795.332 1927.62 797.576 1927.62 800.5V857.518H1944.86V864.862H1901.82ZM1986.44 866.086C1981.68 866.086 1977.46 864.998 1973.79 862.822C1970.19 860.578 1967.33 857.484 1965.22 853.54C1963.12 849.528 1962.06 844.87 1962.06 839.566C1962.06 834.262 1963.08 829.638 1965.12 825.694C1967.23 821.682 1970.12 818.588 1973.79 816.412C1977.46 814.168 1981.75 813.046 1986.64 813.046C1991.54 813.046 1995.72 814.168 1999.19 816.412C2002.66 818.588 2005.31 821.478 2007.15 825.082C2008.98 828.686 2009.9 832.562 2009.9 836.71C2009.9 837.458 2009.87 838.206 2009.8 838.954C2009.8 839.702 2009.8 840.552 2009.8 841.504H1970.53C1970.73 845.244 1971.58 848.372 1973.08 850.888C1974.64 853.336 1976.58 855.172 1978.89 856.396C1981.27 857.62 1983.79 858.232 1986.44 858.232C1990.18 858.232 1993.1 857.45 1995.21 855.886C1997.32 854.322 1998.92 852.146 2000.01 849.358H2008.47C2007.32 854.05 2004.9 858.028 2001.23 861.292C1997.56 864.488 1992.63 866.086 1986.44 866.086ZM1986.44 820.696C1982.5 820.696 1979.03 821.886 1976.04 824.266C1973.11 826.646 1971.31 829.978 1970.63 834.262H2001.43C2001.16 830.046 1999.63 826.748 1996.84 824.368C1994.12 821.92 1990.66 820.696 1986.44 820.696ZM2047.09 866.086C2041.72 866.086 2036.96 864.59 2032.81 861.598C2028.73 858.606 2025.53 854.356 2023.22 848.848C2020.98 843.34 2019.86 836.778 2019.86 829.162C2019.86 821.546 2020.98 814.984 2023.22 809.476C2025.53 803.968 2028.73 799.718 2032.81 796.726C2036.96 793.734 2041.72 792.238 2047.09 792.238C2052.53 792.238 2057.29 793.734 2061.37 796.726C2065.45 799.718 2068.61 803.968 2070.86 809.476C2073.17 814.984 2074.32 821.546 2074.32 829.162C2074.32 836.778 2073.17 843.34 2070.86 848.848C2068.61 854.356 2065.45 858.606 2061.37 861.598C2057.29 864.59 2052.53 866.086 2047.09 866.086ZM2028.63 829.162C2028.63 833.786 2029.1 837.968 2030.06 841.708C2031.08 845.38 2032.47 848.474 2034.24 850.99L2054.03 801.928C2051.92 800.772 2049.61 800.194 2047.09 800.194C2043.49 800.194 2040.29 801.384 2037.5 803.764C2034.71 806.076 2032.54 809.408 2030.97 813.76C2029.41 818.044 2028.63 823.178 2028.63 829.162ZM2047.09 858.232C2050.69 858.232 2053.89 857.076 2056.68 854.764C2059.47 852.384 2061.64 849.018 2063.21 844.666C2064.77 840.314 2065.55 835.146 2065.55 829.162C2065.55 824.538 2065.04 820.39 2064.02 816.718C2063.07 812.978 2061.71 809.85 2059.94 807.334L2040.05 856.498C2042.23 857.654 2044.57 858.232 2047.09 858.232ZM2108.25 866.086C2103.35 866.086 2099.14 865.168 2095.6 863.332C2092.07 861.496 2089.28 859.014 2087.24 855.886C2085.2 852.758 2083.97 849.188 2083.57 845.176H2092.34C2092.95 849.052 2094.68 852.214 2097.54 854.662C2100.4 857.042 2104 858.232 2108.35 858.232C2113.45 858.232 2117.46 856.6 2120.39 853.336C2123.31 850.004 2124.77 845.822 2124.77 840.79C2124.77 835.486 2123.28 831.338 2120.29 828.346C2117.29 825.286 2113.42 823.756 2108.66 823.756C2104.85 823.756 2101.59 824.64 2098.87 826.408C2096.21 828.108 2094.07 830.284 2092.44 832.936H2084.28L2090.4 793.462H2128.55V801.316H2097.13L2093.36 822.532H2093.87C2095.43 820.832 2097.54 819.336 2100.19 818.044C2102.91 816.752 2106.04 816.106 2109.58 816.106C2114.27 816.106 2118.35 817.126 2121.82 819.166C2125.35 821.138 2128.11 823.994 2130.08 827.734C2132.05 831.406 2133.04 835.724 2133.04 840.688C2133.04 845.312 2132.05 849.562 2130.08 853.438C2128.17 857.246 2125.35 860.306 2121.61 862.618C2117.94 864.93 2113.49 866.086 2108.25 866.086ZM2169.41 866.086C2164.04 866.086 2159.28 864.59 2155.13 861.598C2151.05 858.606 2147.85 854.356 2145.54 848.848C2143.3 843.34 2142.18 836.778 2142.18 829.162C2142.18 821.546 2143.3 814.984 2145.54 809.476C2147.85 803.968 2151.05 799.718 2155.13 796.726C2159.28 793.734 2164.04 792.238 2169.41 792.238C2174.85 792.238 2179.61 793.734 2183.69 796.726C2187.77 799.718 2190.93 803.968 2193.18 809.476C2195.49 814.984 2196.64 821.546 2196.64 829.162C2196.64 836.778 2195.49 843.34 2193.18 848.848C2190.93 854.356 2187.77 858.606 2183.69 861.598C2179.61 864.59 2174.85 866.086 2169.41 866.086ZM2150.95 829.162C2150.95 833.786 2151.42 837.968 2152.38 841.708C2153.4 845.38 2154.79 848.474 2156.56 850.99L2176.35 801.928C2174.24 800.772 2171.93 800.194 2169.41 800.194C2165.81 800.194 2162.61 801.384 2159.82 803.764C2157.03 806.076 2154.86 809.408 2153.29 813.76C2151.73 818.044 2150.95 823.178 2150.95 829.162ZM2169.41 858.232C2173.01 858.232 2176.21 857.076 2179 854.764C2181.79 852.384 2183.96 849.018 2185.53 844.666C2187.09 840.314 2187.87 835.146 2187.87 829.162C2187.87 824.538 2187.36 820.39 2186.34 816.718C2185.39 812.978 2184.03 809.85 2182.26 807.334L2162.37 856.498C2164.55 857.654 2166.89 858.232 2169.41 858.232Z"></path><path style="fill:var(--color-illustrationBorder020)" fill-rule="evenodd" clip-rule="evenodd" d="M2583.93 792.511C2579.64 789.841 2574.09 792.924 2574.09 797.975V824.217H2364.9C2361.35 824.217 2358.46 827.098 2358.46 830.653C2358.46 834.208 2361.35 837.09 2364.9 837.09H2574.09V864.914C2574.09 869.964 2579.64 873.047 2583.93 870.38L2637.7 836.922C2641.75 834.404 2641.75 828.513 2637.71 825.993L2583.93 792.511Z"></path><rect style="fill:var(--color-white)" x="2706.6" y="691.343" width="888.446" height="280.203" rx="34.0741" stroke="#BBC3C9" stroke-width="3"></rect><ellipse style="fill:var(--color-illustrationPalette040)" cx="2862.1" cy="831.444" rx="65.9735" ry="64.3643"></ellipse><path style="fill:var(--color-illustrationPalette100)" d="M3034.39 805.294C3032.35 805.294 3030.65 804.614 3029.29 803.254C3027.93 801.894 3027.25 800.262 3027.25 798.358C3027.25 796.386 3027.93 794.754 3029.29 793.462C3030.65 792.102 3032.35 791.422 3034.39 791.422C3036.36 791.422 3038.02 792.102 3039.38 793.462C3040.81 794.754 3041.53 796.386 3041.53 798.358C3041.53 800.262 3040.81 801.894 3039.38 803.254C3038.02 804.614 3036.36 805.294 3034.39 805.294ZM3014.6 864.862V857.518H3030.71V824.164C3030.71 822.464 3029.86 821.614 3028.16 821.614H3016.33V814.27H3030.2C3036.26 814.27 3039.28 817.296 3039.28 823.348V857.518H3055.4V864.862H3014.6ZM3074.53 864.862V814.27H3081.67L3082.59 821.92H3083.1C3084.46 819.472 3086.6 817.398 3089.53 815.698C3092.45 813.93 3095.82 813.046 3099.63 813.046C3105.81 813.046 3110.44 814.882 3113.5 818.554C3116.63 822.226 3118.19 827.53 3118.19 834.466V864.862H3109.62V835.486C3109.62 830.998 3108.64 827.496 3106.66 824.98C3104.69 822.396 3101.63 821.104 3097.48 821.104C3093.47 821.104 3090.07 822.498 3087.28 825.286C3084.5 828.006 3083.1 831.95 3083.1 837.118V864.862H3074.53ZM3138.04 864.862V791.422H3146.61V835.69L3167.72 814.27H3178.64L3156.09 836.812V837.424L3181.39 864.862H3170.78L3146.61 838.546V864.862H3138.04ZM3194.61 864.862V793.462H3218.38C3225.79 793.462 3231.36 795.162 3235.1 798.562C3238.84 801.962 3240.71 806.314 3240.71 811.618C3240.71 815.766 3239.59 819.2 3237.35 821.92C3235.1 824.572 3232.59 826.442 3229.8 827.53V828.244C3233.13 829.332 3236.06 831.304 3238.57 834.16C3241.09 837.016 3242.35 840.688 3242.35 845.176C3242.35 848.848 3241.43 852.18 3239.59 855.172C3237.82 858.096 3235.21 860.442 3231.74 862.21C3228.34 863.978 3224.16 864.862 3219.19 864.862H3194.61ZM3203.18 824.266H3217.76C3222.32 824.266 3225.79 823.28 3228.17 821.308C3230.62 819.268 3231.84 816.344 3231.84 812.536C3231.84 808.932 3230.65 806.144 3228.27 804.172C3225.89 802.2 3222.29 801.214 3217.46 801.214H3203.18V824.266ZM3203.18 857.008H3218.27C3223.17 857.008 3226.94 855.92 3229.6 853.744C3232.25 851.5 3233.57 848.372 3233.57 844.36C3233.57 840.348 3232.18 837.254 3229.39 835.078C3226.6 832.834 3222.83 831.712 3218.07 831.712H3203.18V857.008ZM3257.61 864.862V857.518H3270.56V824.164C3270.56 822.464 3269.74 821.614 3268.11 821.614H3258.93V814.27H3271.27C3273.52 814.27 3275.32 814.882 3276.68 816.106C3278.04 817.33 3278.72 819.132 3278.72 821.512V823.654H3279.13C3279.94 820.254 3281.47 817.636 3283.72 815.8C3286.03 813.964 3289.23 813.046 3293.31 813.046H3302.59V822.124H3292.08C3287.93 822.124 3284.74 823.518 3282.49 826.306C3280.25 829.026 3279.13 832.528 3279.13 836.812V857.518H3295.04V864.862H3257.61ZM3336.51 866.086C3332.5 866.086 3329.17 865.372 3326.52 863.944C3323.87 862.516 3321.89 860.646 3320.6 858.334C3319.31 855.954 3318.66 853.37 3318.66 850.582C3318.66 845.414 3320.53 841.504 3324.27 838.852C3328.08 836.132 3333.15 834.772 3339.47 834.772H3353.34V833.752C3353.34 824.912 3349.3 820.492 3341.21 820.492C3337.94 820.492 3335.19 821.206 3332.94 822.634C3330.77 824.062 3329.37 826.306 3328.76 829.366H3319.99C3320.33 825.966 3321.45 823.042 3323.36 820.594C3325.33 818.146 3327.84 816.276 3330.9 814.984C3333.96 813.692 3337.4 813.046 3341.21 813.046C3348.41 813.046 3353.65 814.95 3356.91 818.758C3360.25 822.498 3361.91 827.496 3361.91 833.752V864.862H3354.57L3353.85 857.008H3353.14C3351.64 859.456 3349.64 861.598 3347.12 863.434C3344.67 865.202 3341.14 866.086 3336.51 866.086ZM3338.04 858.538C3341.31 858.538 3344.06 857.756 3346.31 856.192C3348.62 854.628 3350.35 852.554 3351.51 849.97C3352.73 847.386 3353.34 844.564 3353.34 841.504H3340.19C3335.56 841.504 3332.3 842.286 3330.39 843.85C3328.56 845.414 3327.64 847.488 3327.64 850.072C3327.64 852.724 3328.52 854.798 3330.29 856.294C3332.06 857.79 3334.64 858.538 3338.04 858.538ZM3380.33 864.862V814.27H3387.47L3388.39 821.92H3388.9C3390.26 819.472 3392.4 817.398 3395.33 815.698C3398.25 813.93 3401.62 813.046 3405.43 813.046C3411.61 813.046 3416.24 814.882 3419.3 818.554C3422.43 822.226 3423.99 827.53 3423.99 834.466V864.862H3415.42V835.486C3415.42 830.998 3414.44 827.496 3412.46 824.98C3410.49 822.396 3407.43 821.104 3403.28 821.104C3399.27 821.104 3395.87 822.498 3393.08 825.286C3390.3 828.006 3388.9 831.95 3388.9 837.118V864.862H3380.33ZM3461.38 866.086C3457.1 866.086 3453.26 865.066 3449.86 863.026C3446.53 860.986 3443.91 857.994 3442 854.05C3440.1 850.038 3439.15 845.176 3439.15 839.464C3439.15 833.82 3440.1 829.026 3442 825.082C3443.91 821.138 3446.53 818.146 3449.86 816.106C3453.26 814.066 3457.1 813.046 3461.38 813.046C3465.4 813.046 3468.69 813.828 3471.28 815.392C3473.93 816.956 3475.9 818.996 3477.19 821.512V791.422H3485.76V864.862H3478.72L3477.81 857.008H3477.19C3475.83 859.796 3473.83 862.006 3471.18 863.638C3468.52 865.27 3465.26 866.086 3461.38 866.086ZM3462.51 857.926C3466.79 857.926 3470.33 856.43 3473.11 853.438C3475.9 850.378 3477.3 845.754 3477.3 839.566C3477.3 833.378 3475.9 828.788 3473.11 825.796C3470.33 822.736 3466.79 821.206 3462.51 821.206C3458.22 821.206 3454.69 822.736 3451.9 825.796C3449.18 828.788 3447.82 833.378 3447.82 839.566C3447.82 845.754 3449.18 850.378 3451.9 853.438C3454.69 856.43 3458.22 857.926 3462.51 857.926Z"></path><path style="fill:var(--color-illustrationBorder020)" fill-rule="evenodd" clip-rule="evenodd" d="M3886.38 792.511C3882.09 789.841 3876.54 792.924 3876.54 797.975V824.217H3667.35C3663.8 824.217 3660.91 827.098 3660.91 830.653C3660.91 834.208 3663.8 837.09 3667.35 837.09H3876.54V864.914C3876.54 869.964 3882.09 873.047 3886.38 870.38L3940.15 836.922C3944.2 834.404 3944.2 828.513 3940.15 825.993L3886.38 792.511Z"></path><rect style="fill:var(--color-white)" x="4008" y="767" width="586" height="438" rx="25.7457"></rect><mask id="nk-99" mask-type="alpha" maskUnits="userSpaceOnUse" x="4007" y="457" width="587" height="748"><rect style="fill:var(--color-white)" x="4007.55" y="457.889" width="586.137" height="746.626" rx="25.7457"></rect></mask><g mask="url(#nk-99)"><rect style="fill:var(--color-illustrationShadow010)" x="4004.61" y="454.944" width="588.667" height="314.937"></rect></g><path style="fill:var(--color-illustrationShadow010)" fill-rule="evenodd" clip-rule="evenodd" d="M4054.64 964.892C4054.64 960.016 4058.6 956.062 4063.47 956.062H4534.41C4539.28 956.062 4543.24 960.016 4543.24 964.892C4543.24 969.769 4539.28 973.722 4534.41 973.722H4063.47C4058.6 973.722 4054.64 969.769 4054.64 964.892ZM4063.47 997.27C4058.6 997.27 4054.64 1001.22 4054.64 1006.1C4054.64 1010.98 4058.6 1014.93 4063.47 1014.93H4534.41C4539.28 1014.93 4543.24 1010.98 4543.24 1006.1C4543.24 1001.22 4539.28 997.27 4534.41 997.27H4063.47ZM4063.47 1038.48C4058.6 1038.48 4054.64 1042.43 4054.64 1047.31C4054.64 1052.18 4058.6 1056.14 4063.47 1056.14H4534.41C4539.28 1056.14 4543.24 1052.18 4543.24 1047.31C4543.24 1042.43 4539.28 1038.48 4534.41 1038.48H4063.47ZM4063.47 1079.68C4058.6 1079.68 4054.64 1083.63 4054.64 1088.51C4054.64 1093.39 4058.6 1097.34 4063.47 1097.34H4293.05C4297.93 1097.34 4301.88 1093.39 4301.88 1088.51C4301.88 1083.63 4297.93 1079.68 4293.05 1079.68H4063.47Z"></path><rect style="fill:var(--color-illustrationPalette040)" x="4054.65" y="830.568" width="488.594" height="30.4228" rx="15.2114"></rect><rect style="fill:var(--color-illustrationPalette040)" x="4054.65" y="883.81" width="320.824" height="30.4228" rx="15.2114"></rect></svg>