<svg id="nksvg" style="width: 100%; height: 100%" width="1490" height="600" viewBox="0 0 1490 600" fill="none" xmlns="http://www.w3.org/2000/svg" class="css-0">
  <g clip-path="url(#nk-576)">
    <path style="fill: var(--color-illustrationBackground020)" d="M0 2.86396C0 1.28224 1.7912 0 4.00075 0H1487C1489.21 0 1491 1.28223 1491 2.86395V597.136C1491 598.718 1489.21 600 1487 600H4.00077C1.79122 600 0 598.718 0 597.136V2.86396Z"></path>
    <path style="fill: var(--color-inkBase)" d="M540.46 321.075V319.359H544.489V306.223C544.489 305.826 544.29 305.628 543.893 305.628H540.889V303.911H544.37C545.053 303.911 545.577 304.094 545.943 304.459C546.308 304.825 546.491 305.349 546.491 306.033V319.359H550.52V321.075H540.46Z"></path>
    <path style="fill: var(--color-inkBase)" d="M559.975 307.153C559.498 307.153 559.1 306.994 558.783 306.676C558.465 306.359 558.306 305.977 558.306 305.532C558.306 305.071 558.465 304.69 558.783 304.388C559.1 304.07 559.498 303.911 559.975 303.911C560.435 303.911 560.825 304.07 561.143 304.388C561.476 304.69 561.643 305.071 561.643 305.532C561.643 305.977 561.476 306.359 561.143 306.676C560.825 306.994 560.435 307.153 559.975 307.153ZM555.35 321.075V319.359H559.116V311.563C559.116 311.166 558.918 310.967 558.52 310.967H555.755V309.251H558.997C560.412 309.251 561.119 309.958 561.119 311.373V319.359H564.885V321.075H555.35Z"></path>
    <path style="fill: var(--color-inkBase)" d="M575.651 321.075C574.57 321.075 573.72 320.813 573.1 320.288C572.481 319.764 572.171 318.818 572.171 317.452V310.967H569.167V309.251H570.955C571.765 309.251 572.234 308.854 572.361 308.059L572.695 306.223H574.173V309.251H578.893V310.967H574.173V317.452C574.173 318.119 574.324 318.588 574.626 318.858C574.944 319.128 575.484 319.263 576.247 319.263H578.893V321.075H575.651Z"></path>
    <path style="fill: var(--color-inkBase)" d="M588.825 321.361C587.712 321.361 586.727 321.107 585.869 320.598C585.026 320.074 584.359 319.351 583.866 318.429C583.373 317.491 583.127 316.403 583.127 315.163C583.127 313.923 583.366 312.843 583.842 311.921C584.335 310.983 585.01 310.26 585.869 309.752C586.727 309.227 587.728 308.965 588.872 308.965C590.017 308.965 590.994 309.227 591.804 309.752C592.615 310.26 593.235 310.936 593.664 311.778C594.093 312.62 594.307 313.526 594.307 314.496C594.307 314.67 594.3 314.845 594.284 315.02C594.284 315.195 594.284 315.393 594.284 315.616H585.106C585.153 316.49 585.352 317.221 585.702 317.809C586.067 318.381 586.52 318.81 587.061 319.096C587.617 319.382 588.205 319.525 588.825 319.525C589.699 319.525 590.382 319.343 590.875 318.977C591.367 318.612 591.741 318.103 591.995 317.452H593.974C593.704 318.548 593.139 319.478 592.281 320.241C591.423 320.988 590.271 321.361 588.825 321.361ZM588.825 310.753C587.903 310.753 587.092 311.031 586.393 311.587C585.71 312.143 585.289 312.922 585.13 313.923H592.329C592.265 312.938 591.908 312.167 591.256 311.611C590.62 311.039 589.81 310.753 588.825 310.753Z"></path>
    <path style="fill: var(--color-inkBase)" d="M597.85 321.075V319.359H600.878V311.563C600.878 311.166 600.687 310.967 600.306 310.967H598.16V309.251H601.045C601.569 309.251 601.99 309.394 602.308 309.68C602.626 309.966 602.785 310.387 602.785 310.944V311.444H602.88C603.071 310.65 603.428 310.038 603.953 309.609C604.493 309.179 605.24 308.965 606.194 308.965H608.363V311.087H605.908C604.938 311.087 604.191 311.412 603.667 312.064C603.142 312.7 602.88 313.518 602.88 314.519V319.359H606.599V321.075H597.85Z"></path>
    <path style="fill: var(--color-inkBase)" d="M616.292 321.361C615.354 321.361 614.576 321.194 613.956 320.86C613.336 320.527 612.875 320.09 612.573 319.549C612.271 318.993 612.12 318.389 612.12 317.738C612.12 316.53 612.557 315.616 613.431 314.996C614.321 314.36 615.505 314.043 616.983 314.043H620.225V313.804C620.225 311.738 619.28 310.705 617.389 310.705C616.626 310.705 615.982 310.872 615.458 311.206C614.949 311.54 614.623 312.064 614.48 312.779H612.43C612.51 311.985 612.772 311.301 613.217 310.729C613.678 310.157 614.266 309.72 614.981 309.418C615.696 309.116 616.499 308.965 617.389 308.965C619.073 308.965 620.297 309.41 621.06 310.3C621.838 311.174 622.228 312.342 622.228 313.804V321.075H620.511L620.345 319.239H620.178C619.828 319.812 619.359 320.312 618.771 320.741C618.199 321.154 617.373 321.361 616.292 321.361ZM616.65 319.597C617.412 319.597 618.056 319.414 618.581 319.049C619.121 318.683 619.526 318.198 619.796 317.595C620.082 316.991 620.225 316.331 620.225 315.616H617.15C616.07 315.616 615.307 315.799 614.862 316.164C614.433 316.53 614.218 317.014 614.218 317.618C614.218 318.238 614.425 318.723 614.838 319.073C615.251 319.422 615.855 319.597 616.65 319.597Z"></path>
    <path style="fill: var(--color-inkBase)" d="M626.223 321.075V319.359H630.252V306.223C630.252 305.826 630.054 305.628 629.656 305.628H626.653V303.911H630.133C630.816 303.911 631.341 304.094 631.706 304.459C632.072 304.825 632.255 305.349 632.255 306.033V319.359H636.283V321.075H626.223Z"></path>
    <path style="fill: var(--color-inkBase)" d="M877.343 321.361C876.278 321.361 875.325 321.115 874.482 320.622C873.656 320.129 872.996 319.422 872.504 318.5C872.011 317.563 871.765 316.45 871.765 315.163C871.765 313.876 872.011 312.771 872.504 311.849C872.996 310.912 873.664 310.197 874.506 309.704C875.364 309.211 876.31 308.965 877.343 308.965C878.805 308.965 879.973 309.33 880.847 310.062C881.721 310.793 882.278 311.77 882.516 312.994H880.466C880.275 312.342 879.91 311.826 879.369 311.444C878.829 311.047 878.145 310.848 877.319 310.848C876.715 310.848 876.143 311.007 875.603 311.325C875.062 311.643 874.625 312.12 874.292 312.755C873.958 313.391 873.791 314.194 873.791 315.163C873.791 316.132 873.958 316.943 874.292 317.595C874.625 318.23 875.062 318.707 875.603 319.025C876.143 319.343 876.715 319.502 877.319 319.502C878.193 319.502 878.884 319.303 879.393 318.906C879.917 318.508 880.275 317.984 880.466 317.332H882.516C882.214 318.588 881.618 319.573 880.728 320.288C879.854 321.003 878.726 321.361 877.343 321.361Z"></path>
    <path style="fill: var(--color-inkBase)" d="M891.446 321.361C890.334 321.361 889.348 321.107 888.49 320.598C887.632 320.09 886.956 319.375 886.464 318.453C885.971 317.515 885.725 316.419 885.725 315.163C885.725 313.907 885.971 312.819 886.464 311.897C886.956 310.959 887.632 310.236 888.49 309.728C889.348 309.219 890.334 308.965 891.446 308.965C892.559 308.965 893.544 309.219 894.402 309.728C895.26 310.236 895.936 310.959 896.428 311.897C896.921 312.819 897.167 313.907 897.167 315.163C897.167 316.419 896.921 317.515 896.428 318.453C895.936 319.375 895.26 320.09 894.402 320.598C893.544 321.107 892.559 321.361 891.446 321.361ZM891.446 319.454C892.129 319.454 892.749 319.303 893.306 319.001C893.862 318.699 894.299 318.23 894.617 317.595C894.95 316.959 895.117 316.148 895.117 315.163C895.117 314.178 894.95 313.367 894.617 312.731C894.299 312.096 893.862 311.627 893.306 311.325C892.749 311.023 892.129 310.872 891.446 310.872C890.779 310.872 890.167 311.023 889.611 311.325C889.054 311.627 888.609 312.096 888.276 312.731C887.942 313.367 887.775 314.178 887.775 315.163C887.775 316.641 888.133 317.73 888.848 318.429C889.563 319.112 890.429 319.454 891.446 319.454Z"></path>
    <path style="fill: var(--color-inkBase)" d="M900.686 321.075V309.251H902.355L902.569 311.039H902.689C903.007 310.467 903.507 309.982 904.191 309.585C904.874 309.172 905.661 308.965 906.551 308.965C907.997 308.965 909.077 309.394 909.793 310.252C910.524 311.11 910.889 312.35 910.889 313.971V321.075H908.887V314.209C908.887 313.161 908.656 312.342 908.195 311.754C907.735 311.15 907.019 310.848 906.05 310.848C905.112 310.848 904.318 311.174 903.666 311.826C903.014 312.461 902.689 313.383 902.689 314.591V321.075H900.686Z"></path>
    <path style="fill: var(--color-inkBase)" d="M921.274 321.075C920.193 321.075 919.343 320.813 918.723 320.288C918.103 319.764 917.793 318.818 917.793 317.452V310.967H914.789V309.251H916.577C917.388 309.251 917.857 308.854 917.984 308.059L918.318 306.223H919.796V309.251H924.516V310.967H919.796V317.452C919.796 318.119 919.947 318.588 920.248 318.858C920.566 319.128 921.107 319.263 921.87 319.263H924.516V321.075H921.274Z"></path>
    <path style="fill: var(--color-inkBase)" d="M934.447 321.361C933.335 321.361 932.349 321.107 931.491 320.598C930.649 320.074 929.981 319.351 929.489 318.429C928.996 317.491 928.75 316.403 928.75 315.163C928.75 313.923 928.988 312.843 929.465 311.921C929.957 310.983 930.633 310.26 931.491 309.752C932.349 309.227 933.35 308.965 934.495 308.965C935.639 308.965 936.616 309.227 937.427 309.752C938.237 310.26 938.857 310.936 939.286 311.778C939.715 312.62 939.93 313.526 939.93 314.496C939.93 314.67 939.922 314.845 939.906 315.02C939.906 315.195 939.906 315.393 939.906 315.616H930.728C930.776 316.49 930.975 317.221 931.324 317.809C931.69 318.381 932.143 318.81 932.683 319.096C933.239 319.382 933.827 319.525 934.447 319.525C935.321 319.525 936.005 319.343 936.497 318.977C936.99 318.612 937.363 318.103 937.618 317.452H939.596C939.326 318.548 938.762 319.478 937.904 320.241C937.045 320.988 935.893 321.361 934.447 321.361ZM934.447 310.753C933.525 310.753 932.715 311.031 932.015 311.587C931.332 312.143 930.911 312.922 930.752 313.923H937.951C937.888 312.938 937.53 312.167 936.879 311.611C936.243 311.039 935.432 310.753 934.447 310.753Z"></path>
    <path style="fill: var(--color-inkBase)" d="M943.21 321.075L947.239 315.163L943.115 309.251H945.332L948.622 314.019L951.911 309.251H954.129L950.004 315.163L954.033 321.075H951.816L948.622 316.283L945.404 321.075H943.21Z"></path>
    <path style="fill: var(--color-inkBase)" d="M964.155 321.075C963.075 321.075 962.224 320.813 961.605 320.288C960.985 319.764 960.675 318.818 960.675 317.452V310.967H957.671V309.251H959.459C960.27 309.251 960.738 308.854 960.866 308.059L961.199 306.223H962.677V309.251H967.397V310.967H962.677V317.452C962.677 318.119 962.828 318.588 963.13 318.858C963.448 319.128 963.988 319.263 964.751 319.263H967.397V321.075H964.155Z"></path>
    <path style="fill: var(--color-inkBase)" d="M976.375 321.361C974.945 321.361 973.864 320.932 973.133 320.074C972.402 319.216 972.037 317.976 972.037 316.355V309.251H974.039V316.117C974.039 317.165 974.269 317.992 974.73 318.596C975.207 319.184 975.922 319.478 976.876 319.478C977.829 319.478 978.632 319.16 979.284 318.524C979.935 317.873 980.261 316.943 980.261 315.735V309.251H982.263V321.075H980.595L980.38 319.287H980.261C979.943 319.859 979.442 320.352 978.759 320.765C978.076 321.162 977.281 321.361 976.375 321.361Z"></path>
    <path style="fill: var(--color-inkBase)" d="M990.502 321.361C989.565 321.361 988.786 321.194 988.166 320.86C987.546 320.527 987.085 320.09 986.783 319.549C986.481 318.993 986.33 318.389 986.33 317.738C986.33 316.53 986.768 315.616 987.642 314.996C988.532 314.36 989.716 314.043 991.194 314.043H994.436V313.804C994.436 311.738 993.49 310.705 991.599 310.705C990.836 310.705 990.192 310.872 989.668 311.206C989.159 311.54 988.834 312.064 988.691 312.779H986.64C986.72 311.985 986.982 311.301 987.427 310.729C987.888 310.157 988.476 309.72 989.191 309.418C989.906 309.116 990.709 308.965 991.599 308.965C993.283 308.965 994.507 309.41 995.27 310.3C996.049 311.174 996.438 312.342 996.438 313.804V321.075H994.722L994.555 319.239H994.388C994.038 319.812 993.57 320.312 992.981 320.741C992.409 321.154 991.583 321.361 990.502 321.361ZM990.86 319.597C991.623 319.597 992.266 319.414 992.791 319.049C993.331 318.683 993.736 318.198 994.007 317.595C994.293 316.991 994.436 316.331 994.436 315.616H991.36C990.28 315.616 989.517 315.799 989.072 316.164C988.643 316.53 988.428 317.014 988.428 317.618C988.428 318.238 988.635 318.723 989.048 319.073C989.461 319.422 990.065 319.597 990.86 319.597Z"></path>
    <path style="fill: var(--color-inkBase)" d="M1000.43 321.075V319.359H1004.46V306.223C1004.46 305.826 1004.26 305.628 1003.87 305.628H1000.86V303.911H1004.34C1005.03 303.911 1005.55 304.094 1005.92 304.459C1006.28 304.825 1006.46 305.349 1006.46 306.033V319.359H1010.49V321.075H1000.43Z"></path>
    <rect style="fill: var(--color-interface010)" x="1121.47" y="408.742" width="220.778" height="62.2269" rx="31.1135"></rect>
    <path style="fill: var(--color-inkBase)" d="M1159.62 448.801C1158.26 448.801 1157.04 448.487 1155.97 447.857C1154.91 447.228 1154.07 446.324 1153.44 445.146C1152.81 443.948 1152.5 442.527 1152.5 440.882C1152.5 439.237 1152.81 437.825 1153.44 436.648C1154.07 435.45 1154.92 434.536 1156 433.906C1157.09 433.277 1158.3 432.962 1159.62 432.962C1161.49 432.962 1162.98 433.429 1164.1 434.363C1165.22 435.297 1165.93 436.546 1166.23 438.11H1163.61C1163.37 437.277 1162.9 436.617 1162.21 436.13C1161.52 435.622 1160.65 435.368 1159.59 435.368C1158.82 435.368 1158.09 435.571 1157.4 435.978C1156.71 436.384 1156.15 436.993 1155.72 437.805C1155.3 438.617 1155.08 439.643 1155.08 440.882C1155.08 442.12 1155.3 443.156 1155.72 443.989C1156.15 444.801 1156.71 445.41 1157.4 445.816C1158.09 446.222 1158.82 446.426 1159.59 446.426C1160.71 446.426 1161.59 446.172 1162.24 445.664C1162.91 445.156 1163.37 444.486 1163.61 443.654H1166.23C1165.85 445.258 1165.09 446.517 1163.95 447.431C1162.83 448.345 1161.39 448.801 1159.62 448.801Z"></path>
    <path style="fill: var(--color-inkBase)" d="M1177.64 448.801C1176.22 448.801 1174.96 448.477 1173.87 447.827C1172.77 447.177 1171.91 446.263 1171.28 445.085C1170.65 443.887 1170.33 442.486 1170.33 440.882C1170.33 439.277 1170.65 437.886 1171.28 436.709C1171.91 435.51 1172.77 434.587 1173.87 433.937C1174.96 433.287 1176.22 432.962 1177.64 432.962C1179.07 432.962 1180.32 433.287 1181.42 433.937C1182.52 434.587 1183.38 435.51 1184.01 436.709C1184.64 437.886 1184.95 439.277 1184.95 440.882C1184.95 442.486 1184.64 443.887 1184.01 445.085C1183.38 446.263 1182.52 447.177 1181.42 447.827C1180.32 448.477 1179.07 448.801 1177.64 448.801ZM1177.64 446.365C1178.52 446.365 1179.31 446.172 1180.02 445.786C1180.73 445.4 1181.29 444.801 1181.69 443.989C1182.12 443.176 1182.33 442.141 1182.33 440.882C1182.33 439.623 1182.12 438.587 1181.69 437.775C1181.29 436.962 1180.73 436.363 1180.02 435.978C1179.31 435.592 1178.52 435.399 1177.64 435.399C1176.79 435.399 1176.01 435.592 1175.3 435.978C1174.59 436.363 1174.02 436.962 1173.59 437.775C1173.17 438.587 1172.95 439.623 1172.95 440.882C1172.95 442.77 1173.41 444.161 1174.32 445.055C1175.24 445.928 1176.34 446.365 1177.64 446.365Z"></path>
    <path style="fill: var(--color-inkBase)" d="M1187.9 448.436V433.327H1190L1190.27 435.094H1190.43C1190.69 434.485 1191.09 433.977 1191.61 433.571C1192.16 433.165 1192.82 432.962 1193.59 432.962C1194.36 432.962 1195.01 433.155 1195.54 433.541C1196.09 433.906 1196.49 434.424 1196.73 435.094H1196.85C1197.12 434.485 1197.54 433.977 1198.13 433.571C1198.72 433.165 1199.43 432.962 1200.26 432.962C1201.42 432.962 1202.28 433.358 1202.85 434.15C1203.44 434.922 1203.74 435.957 1203.74 437.257V448.436H1201.24V437.653C1201.24 436.922 1201.09 436.343 1200.78 435.917C1200.5 435.49 1200.03 435.277 1199.38 435.277C1198.71 435.277 1198.16 435.531 1197.74 436.038C1197.31 436.546 1197.1 437.267 1197.1 438.201V448.436H1194.57V437.653C1194.57 436.922 1194.43 436.343 1194.14 435.917C1193.86 435.49 1193.39 435.277 1192.74 435.277C1192.07 435.277 1191.51 435.531 1191.06 436.038C1190.64 436.546 1190.43 437.267 1190.43 438.201V448.436H1187.9Z"></path>
    <path style="fill: var(--color-inkBase)" d="M1207.41 455.137V433.327H1209.48L1209.79 435.825H1209.97C1210.35 435.013 1210.97 434.333 1211.83 433.784C1212.68 433.236 1213.69 432.962 1214.84 432.962C1216.06 432.962 1217.16 433.267 1218.13 433.876C1219.13 434.485 1219.91 435.389 1220.48 436.587C1221.05 437.765 1221.33 439.206 1221.33 440.912C1221.33 442.598 1221.04 444.029 1220.45 445.207C1219.88 446.385 1219.09 447.278 1218.07 447.888C1217.08 448.497 1215.93 448.801 1214.63 448.801C1213.47 448.801 1212.49 448.558 1211.67 448.07C1210.88 447.563 1210.31 446.974 1209.97 446.304V455.137H1207.41ZM1214.32 446.365C1215.6 446.365 1216.66 445.918 1217.49 445.024C1218.33 444.111 1218.74 442.73 1218.74 440.882C1218.74 439.034 1218.33 437.663 1217.49 436.77C1216.66 435.856 1215.6 435.399 1214.32 435.399C1213.05 435.399 1211.99 435.856 1211.16 436.77C1210.32 437.663 1209.91 439.034 1209.91 440.882C1209.91 442.73 1210.32 444.111 1211.16 445.024C1211.99 445.918 1213.05 446.365 1214.32 446.365Z"></path>
    <path style="fill: var(--color-inkBase)" d="M1232.44 448.801C1231.02 448.801 1229.76 448.477 1228.66 447.827C1227.56 447.177 1226.7 446.263 1226.07 445.085C1225.44 443.887 1225.13 442.486 1225.13 440.882C1225.13 439.277 1225.44 437.886 1226.07 436.709C1226.7 435.51 1227.56 434.587 1228.66 433.937C1229.76 433.287 1231.02 432.962 1232.44 432.962C1233.86 432.962 1235.12 433.287 1236.21 433.937C1237.31 434.587 1238.17 435.51 1238.8 436.709C1239.43 437.886 1239.75 439.277 1239.75 440.882C1239.75 442.486 1239.43 443.887 1238.8 445.085C1238.17 446.263 1237.31 447.177 1236.21 447.827C1235.12 448.477 1233.86 448.801 1232.44 448.801ZM1232.44 446.365C1233.31 446.365 1234.1 446.172 1234.81 445.786C1235.52 445.4 1236.08 444.801 1236.49 443.989C1236.91 443.176 1237.13 442.141 1237.13 440.882C1237.13 439.623 1236.91 438.587 1236.49 437.775C1236.08 436.962 1235.52 436.363 1234.81 435.978C1234.1 435.592 1233.31 435.399 1232.44 435.399C1231.58 435.399 1230.8 435.592 1230.09 435.978C1229.38 436.363 1228.81 436.962 1228.39 437.775C1227.96 438.587 1227.75 439.623 1227.75 440.882C1227.75 442.77 1228.2 444.161 1229.12 445.055C1230.03 445.928 1231.14 446.365 1232.44 446.365Z"></path>
    <path style="fill: var(--color-inkBase)" d="M1244.24 448.436V433.327H1246.38L1246.65 435.612H1246.8C1247.21 434.881 1247.85 434.262 1248.72 433.754C1249.59 433.226 1250.6 432.962 1251.74 432.962C1253.59 432.962 1254.97 433.51 1255.88 434.607C1256.81 435.703 1257.28 437.287 1257.28 439.359V448.436H1254.72V439.663C1254.72 438.323 1254.43 437.277 1253.84 436.526C1253.25 435.754 1252.34 435.368 1251.1 435.368C1249.9 435.368 1248.88 435.785 1248.05 436.617C1247.22 437.43 1246.8 438.607 1246.8 440.151V448.436H1244.24Z"></path>
    <path style="fill: var(--color-inkBase)" d="M1269.12 448.801C1267.7 448.801 1266.44 448.477 1265.34 447.827C1264.26 447.157 1263.41 446.233 1262.78 445.055C1262.15 443.857 1261.84 442.466 1261.84 440.882C1261.84 439.298 1262.14 437.917 1262.75 436.739C1263.38 435.541 1264.24 434.617 1265.34 433.967C1266.44 433.297 1267.72 432.962 1269.18 432.962C1270.64 432.962 1271.89 433.297 1272.93 433.967C1273.96 434.617 1274.75 435.48 1275.3 436.556C1275.85 437.633 1276.12 438.79 1276.12 440.029C1276.12 440.252 1276.11 440.476 1276.09 440.699C1276.09 440.922 1276.09 441.176 1276.09 441.46H1264.37C1264.43 442.577 1264.68 443.511 1265.13 444.263C1265.59 444.994 1266.17 445.542 1266.86 445.908C1267.57 446.273 1268.33 446.456 1269.12 446.456C1270.24 446.456 1271.11 446.222 1271.74 445.755C1272.37 445.288 1272.84 444.639 1273.17 443.806H1275.7C1275.35 445.207 1274.63 446.395 1273.53 447.37C1272.44 448.324 1270.97 448.801 1269.12 448.801ZM1269.12 435.246C1267.94 435.246 1266.9 435.602 1266.01 436.313C1265.14 437.023 1264.6 438.018 1264.4 439.298H1273.6C1273.51 438.039 1273.06 437.054 1272.23 436.343C1271.41 435.612 1270.38 435.246 1269.12 435.246Z"></path>
    <path style="fill: var(--color-inkBase)" d="M1280.77 448.436V433.327H1282.9L1283.18 435.612H1283.33C1283.74 434.881 1284.38 434.262 1285.25 433.754C1286.12 433.226 1287.13 432.962 1288.27 432.962C1290.11 432.962 1291.49 433.51 1292.41 434.607C1293.34 435.703 1293.81 437.287 1293.81 439.359V448.436H1291.25V439.663C1291.25 438.323 1290.96 437.277 1290.37 436.526C1289.78 435.754 1288.87 435.368 1287.63 435.368C1286.43 435.368 1285.41 435.785 1284.58 436.617C1283.75 437.43 1283.33 438.607 1283.33 440.151V448.436H1280.77Z"></path>
    <path style="fill: var(--color-inkBase)" d="M1307.08 448.436C1305.7 448.436 1304.61 448.101 1303.82 447.431C1303.03 446.761 1302.63 445.552 1302.63 443.806V435.521H1298.79V433.327H1301.08C1302.11 433.327 1302.71 432.82 1302.88 431.804L1303.3 429.459H1305.19V433.327H1311.22V435.521H1305.19V443.806C1305.19 444.659 1305.38 445.258 1305.77 445.603C1306.18 445.948 1306.87 446.121 1307.84 446.121H1311.22V448.436H1307.08Z"></path>
    <rect style="fill: var(--color-interface010)" x="148" y="408.742" width="220.778" height="62.2269" rx="31.1135"></rect>
    <path style="fill: var(--color-inkBase)" d="M220.855 448.081L214.214 432.973H217.139L222.347 445.279L227.587 432.973H230.48L223.809 448.081H220.855Z"></path>
    <path style="fill: var(--color-inkBase)" d="M239.332 448.447C238.134 448.447 237.139 448.233 236.347 447.807C235.555 447.38 234.966 446.822 234.581 446.132C234.195 445.421 234.002 444.649 234.002 443.817C234.002 442.273 234.56 441.106 235.677 440.314C236.814 439.501 238.327 439.095 240.216 439.095H244.358V438.791C244.358 436.151 243.15 434.831 240.734 434.831C239.759 434.831 238.936 435.044 238.266 435.47C237.616 435.897 237.2 436.567 237.017 437.481H234.398C234.499 436.465 234.834 435.592 235.403 434.861C235.992 434.13 236.743 433.572 237.657 433.186C238.571 432.8 239.596 432.607 240.734 432.607C242.886 432.607 244.45 433.176 245.425 434.313C246.42 435.43 246.917 436.922 246.917 438.791V448.081H244.724L244.511 445.736H244.297C243.851 446.467 243.252 447.106 242.5 447.655C241.769 448.183 240.713 448.447 239.332 448.447ZM239.789 446.192C240.764 446.192 241.587 445.959 242.257 445.492C242.947 445.025 243.465 444.405 243.81 443.634C244.176 442.862 244.358 442.019 244.358 441.106H240.429C239.048 441.106 238.073 441.339 237.505 441.806C236.957 442.273 236.682 442.893 236.682 443.664C236.682 444.456 236.946 445.076 237.474 445.522C238.002 445.969 238.774 446.192 239.789 446.192Z"></path>
    <path style="fill: var(--color-inkBase)" d="M252.023 448.081V445.888H257.17V429.104C257.17 428.596 256.917 428.343 256.409 428.343H252.571V426.149H257.018C257.891 426.149 258.561 426.383 259.029 426.85C259.496 427.317 259.729 427.987 259.729 428.86V445.888H264.877V448.081H252.023Z"></path>
    <path style="fill: var(--color-inkBase)" d="M276.075 448.447C274.247 448.447 272.866 447.898 271.932 446.802C270.998 445.705 270.531 444.121 270.531 442.05V432.973H273.089V441.745C273.089 443.085 273.384 444.141 273.973 444.913C274.582 445.664 275.496 446.04 276.714 446.04C277.933 446.04 278.958 445.634 279.791 444.822C280.623 443.989 281.04 442.801 281.04 441.258V432.973H283.598V448.081H281.466L281.192 445.796H281.04C280.633 446.528 279.994 447.157 279.121 447.685C278.247 448.193 277.232 448.447 276.075 448.447Z"></path>
    <path style="fill: var(--color-inkBase)" d="M295.557 448.447C294.136 448.447 292.877 448.122 291.78 447.472C290.704 446.802 289.851 445.878 289.222 444.7C288.592 443.502 288.277 442.111 288.277 440.527C288.277 438.943 288.582 437.562 289.191 436.384C289.821 435.186 290.684 434.262 291.78 433.612C292.877 432.942 294.156 432.607 295.618 432.607C297.08 432.607 298.329 432.942 299.365 433.612C300.401 434.262 301.193 435.125 301.741 436.201C302.289 437.278 302.563 438.435 302.563 439.674C302.563 439.897 302.553 440.121 302.533 440.344C302.533 440.567 302.533 440.821 302.533 441.106H290.806C290.866 442.222 291.12 443.157 291.567 443.908C292.034 444.639 292.613 445.187 293.303 445.553C294.014 445.918 294.765 446.101 295.557 446.101C296.674 446.101 297.547 445.868 298.177 445.4C298.807 444.933 299.284 444.284 299.609 443.451H302.137C301.792 444.852 301.071 446.04 299.974 447.015C298.878 447.969 297.405 448.447 295.557 448.447ZM295.557 434.892C294.38 434.892 293.344 435.247 292.45 435.958C291.577 436.668 291.039 437.664 290.836 438.943H300.035C299.954 437.684 299.497 436.699 298.664 435.988C297.852 435.257 296.816 434.892 295.557 434.892Z"></path>
    <rect style="fill: var(--color-interface010)" x="460.84" y="408.742" width="566.009" height="62.2269" rx="31.1135"></rect>
    <path style="fill: var(--color-inkBase)" d="M700.01 448.081C698.629 448.081 697.543 447.746 696.751 447.076C695.959 446.406 695.563 445.197 695.563 443.451V435.166H691.725V432.973H694.01C695.045 432.973 695.644 432.465 695.807 431.45L696.233 429.104H698.122V432.973H704.153V435.166H698.122V443.451C698.122 444.304 698.315 444.903 698.701 445.248C699.107 445.593 699.797 445.766 700.772 445.766H704.153V448.081H700.01Z"></path>
    <path style="fill: var(--color-inkBase)" d="M716.691 448.447C715.269 448.447 714.01 448.122 712.914 447.472C711.817 446.822 710.954 445.908 710.325 444.73C709.695 443.532 709.38 442.131 709.38 440.527C709.38 438.923 709.695 437.532 710.325 436.354C710.954 435.156 711.817 434.232 712.914 433.582C714.01 432.932 715.269 432.607 716.691 432.607C718.112 432.607 719.371 432.932 720.468 433.582C721.565 434.232 722.428 435.156 723.057 436.354C723.687 437.532 724.001 438.923 724.001 440.527C724.001 442.131 723.687 443.532 723.057 444.73C722.428 445.908 721.565 446.822 720.468 447.472C719.371 448.122 718.112 448.447 716.691 448.447ZM716.691 446.01C717.564 446.01 718.356 445.817 719.067 445.431C719.778 445.045 720.336 444.446 720.742 443.634C721.169 442.821 721.382 441.786 721.382 440.527C721.382 439.268 721.169 438.232 720.742 437.42C720.336 436.608 719.778 436.008 719.067 435.623C718.356 435.237 717.564 435.044 716.691 435.044C715.838 435.044 715.056 435.237 714.345 435.623C713.635 436.008 713.066 436.608 712.64 437.42C712.213 438.232 712 439.268 712 440.527C712 442.415 712.457 443.806 713.371 444.7C714.284 445.573 715.391 446.01 716.691 446.01Z"></path>
    <path style="fill: var(--color-inkBase)" d="M729.198 448.081V426.149H731.757V439.369L738.062 432.973H741.322L734.59 439.704V439.887L742.144 448.081H738.976L731.757 440.222V448.081H729.198Z"></path>
    <path style="fill: var(--color-inkBase)" d="M753.372 448.447C751.951 448.447 750.692 448.122 749.595 447.472C748.519 446.802 747.666 445.878 747.036 444.7C746.407 443.502 746.092 442.111 746.092 440.527C746.092 438.943 746.397 437.562 747.006 436.384C747.635 435.186 748.498 434.262 749.595 433.612C750.692 432.942 751.971 432.607 753.433 432.607C754.895 432.607 756.144 432.942 757.18 433.612C758.215 434.262 759.007 435.125 759.556 436.201C760.104 437.278 760.378 438.435 760.378 439.674C760.378 439.897 760.368 440.121 760.348 440.344C760.348 440.567 760.348 440.821 760.348 441.106H748.62C748.681 442.222 748.935 443.157 749.382 443.908C749.849 444.639 750.428 445.187 751.118 445.553C751.829 445.918 752.58 446.101 753.372 446.101C754.489 446.101 755.362 445.868 755.992 445.4C756.621 444.933 757.098 444.284 757.423 443.451H759.952C759.606 444.852 758.885 446.04 757.789 447.015C756.692 447.969 755.22 448.447 753.372 448.447ZM753.372 434.892C752.194 434.892 751.159 435.247 750.265 435.958C749.392 436.668 748.854 437.664 748.651 438.943H757.85C757.769 437.684 757.312 436.699 756.479 435.988C755.667 435.257 754.631 434.892 753.372 434.892Z"></path>
    <path style="fill: var(--color-inkBase)" d="M765.027 448.081V432.973H767.159L767.433 435.257H767.585C767.991 434.526 768.631 433.907 769.504 433.399C770.377 432.871 771.383 432.607 772.52 432.607C774.368 432.607 775.749 433.155 776.662 434.252C777.597 435.349 778.064 436.932 778.064 439.004V448.081H775.505V439.308C775.505 437.968 775.211 436.922 774.622 436.171C774.033 435.399 773.119 435.013 771.88 435.013C770.682 435.013 769.667 435.43 768.834 436.262C768.002 437.075 767.585 438.252 767.585 439.796V448.081H765.027Z"></path>
    <path style="fill: var(--color-inkBase)" d="M789.901 448.447C787.972 448.447 786.408 448 785.21 447.106C784.032 446.192 783.372 444.944 783.23 443.36H785.88C786.002 444.192 786.408 444.873 787.099 445.4C787.809 445.928 788.764 446.192 789.962 446.192C791.099 446.192 791.942 445.949 792.49 445.461C793.059 444.974 793.343 444.416 793.343 443.786C793.343 442.933 793.008 442.354 792.338 442.05C791.668 441.725 790.662 441.481 789.322 441.319C787.718 441.136 786.388 440.699 785.332 440.009C784.276 439.319 783.748 438.283 783.748 436.902C783.748 435.663 784.266 434.638 785.301 433.825C786.337 433.013 787.748 432.607 789.535 432.607C791.302 432.607 792.693 433.013 793.709 433.825C794.724 434.617 795.303 435.755 795.445 437.237H792.917C792.856 436.506 792.5 435.927 791.85 435.501C791.221 435.054 790.429 434.831 789.474 434.831C788.479 434.831 787.708 435.024 787.159 435.409C786.611 435.775 786.337 436.262 786.337 436.872C786.337 437.481 786.642 437.988 787.251 438.395C787.88 438.78 788.865 439.034 790.206 439.156C791.262 439.278 792.226 439.481 793.099 439.765C793.972 440.05 794.663 440.496 795.171 441.106C795.699 441.715 795.963 442.568 795.963 443.664C795.983 444.578 795.729 445.4 795.201 446.132C794.693 446.842 793.983 447.411 793.069 447.837C792.155 448.243 791.099 448.447 789.901 448.447Z"></path>
    <path style="fill: var(--color-illustrationPalette040)" d="M176.978 156.535C176.978 151.331 181.197 147.112 186.401 147.112H331.221C336.425 147.112 340.643 151.331 340.643 156.535V301.355C340.643 306.559 336.425 310.778 331.221 310.778H186.401C181.197 310.778 176.978 306.559 176.978 301.355V156.535Z"></path>
    <path style="fill: var(--color-white)" d="M203.959 291.334L204.747 286.324H202.128V284.443H205.027L205.662 280.425H203.145V278.543H205.968L206.73 273.534H208.765L207.976 278.543H211.892L212.655 273.534H214.689L213.901 278.543H216.52V280.425H213.621L212.986 284.443H215.528V286.324H212.681L211.918 291.334H209.883L210.672 286.324H206.756L205.993 291.334H203.959ZM207.061 284.443H210.951L211.587 280.425H207.697L207.061 284.443Z"></path>
    <path style="fill: var(--color-white)" d="M224.571 291.639C223.35 291.639 222.299 291.41 221.418 290.952C220.536 290.495 219.841 289.876 219.333 289.096C218.824 288.316 218.519 287.426 218.417 286.426H220.604C220.757 287.392 221.189 288.181 221.901 288.791C222.613 289.384 223.511 289.681 224.596 289.681C225.868 289.681 226.868 289.274 227.597 288.46C228.326 287.63 228.69 286.587 228.69 285.333C228.69 284.01 228.317 282.976 227.571 282.231C226.825 281.468 225.859 281.086 224.673 281.086C223.723 281.086 222.91 281.307 222.232 281.747C221.57 282.171 221.036 282.714 220.63 283.375H218.595L220.121 273.534H229.631V275.492H221.799L220.858 280.781H220.986C221.375 280.357 221.901 279.984 222.562 279.662C223.24 279.34 224.02 279.179 224.901 279.179C226.071 279.179 227.088 279.433 227.953 279.942C228.834 280.434 229.521 281.146 230.012 282.078C230.504 282.993 230.75 284.07 230.75 285.307C230.75 286.46 230.504 287.52 230.012 288.486C229.538 289.435 228.834 290.198 227.902 290.774C226.987 291.351 225.876 291.639 224.571 291.639Z"></path>
    <path style="fill: var(--color-white)" d="M234.376 291.334V273.534H245.488V275.467H236.512V281.391H244.725V283.324H236.512V289.401H245.488V291.334H234.376Z"></path>
    <path style="fill: var(--color-white)" d="M257.251 291.334V287.214H248.733V285.562L256.845 273.534H259.387V285.282H261.93V287.214H259.387V291.334H257.251ZM251.123 285.282H257.353V276.026L251.123 285.282Z"></path>
    <path style="fill: var(--color-white)" d="M272.498 291.334V287.214H263.98V285.562L272.091 273.534H274.634V285.282H277.177V287.214H274.634V291.334H272.498ZM266.37 285.282H272.6V276.026L266.37 285.282Z"></path>
    <path style="fill: var(--color-white)" d="M280.117 291.334V273.534H291.229V275.467H282.253V281.391H290.466V283.324H282.253V289.401H291.229V291.334H280.117Z"></path>
    <path style="fill: var(--color-white)" d="M302.992 291.334V287.214H294.474V285.562L302.585 273.534H305.128V285.282H307.671V287.214H305.128V291.334H302.992ZM296.864 285.282H303.094V276.026L296.864 285.282Z"></path>
    <path style="fill: var(--color-illustrationBorder020)" fill-rule="evenodd" clip-rule="evenodd" d="M417.412 218.632C416.277 217.925 414.806 218.742 414.806 220.08V227.03H359.397C358.455 227.03 357.692 227.794 357.692 228.735C357.692 229.677 358.455 230.44 359.397 230.44H414.806V237.81C414.806 239.148 416.276 239.964 417.412 239.258L431.656 230.396C432.728 229.729 432.728 228.168 431.656 227.501L417.412 218.632Z"></path>
    <path style="fill: var(--color-white)" d="M449.508 200.861C449.508 195.657 453.727 191.438 458.931 191.438H691.551C696.755 191.438 700.973 195.657 700.973 200.861V257.029C700.973 262.233 696.755 266.452 691.551 266.452H458.931C453.727 266.452 449.508 262.233 449.508 257.029V200.861Z"></path>
    <path style="fill: var(--color-illustrationBorder020)" fill-rule="evenodd" clip-rule="evenodd" d="M691.551 192.233H458.931C454.166 192.233 450.303 196.096 450.303 200.861V257.029C450.303 261.794 454.166 265.657 458.931 265.657H691.551C696.316 265.657 700.179 261.794 700.179 257.029V200.861C700.179 196.096 696.316 192.233 691.551 192.233ZM458.931 191.438C453.727 191.438 449.508 195.657 449.508 200.861V257.029C449.508 262.233 453.727 266.452 458.931 266.452H691.551C696.755 266.452 700.973 262.233 700.973 257.029V200.861C700.973 195.657 696.755 191.438 691.551 191.438H458.931Z"></path>
    <path style="fill: var(--color-illustrationPalette040)" d="M508.324 228.944C508.324 238.36 500.5 245.992 490.849 245.992C481.198 245.992 473.375 238.36 473.375 228.944C473.375 219.528 481.198 211.896 490.849 211.896C500.5 211.896 508.324 219.528 508.324 228.944Z"></path>
    <path style="fill: var(--color-illustrationPalette100)" d="M532.351 243.988V224.644H534.188L534.458 226.859H534.62C534.962 226.139 535.512 225.535 536.268 225.049C537.025 224.563 537.916 224.319 538.943 224.319C540.023 224.319 540.996 224.59 541.861 225.13C542.743 225.67 543.437 226.472 543.941 227.534C544.445 228.579 544.697 229.858 544.697 231.371C544.697 232.866 544.436 234.136 543.914 235.18C543.41 236.225 542.707 237.018 541.807 237.558C540.924 238.098 539.906 238.368 538.754 238.368C537.727 238.368 536.853 238.152 536.133 237.72C535.431 237.27 534.926 236.747 534.62 236.153V243.988H532.351ZM538.483 236.207C539.618 236.207 540.555 235.811 541.293 235.018C542.032 234.208 542.401 232.983 542.401 231.344C542.401 229.705 542.032 228.489 541.293 227.697C540.555 226.886 539.618 226.481 538.483 226.481C537.349 226.481 536.412 226.886 535.674 227.697C534.935 228.489 534.566 229.705 534.566 231.344C534.566 232.983 534.935 234.208 535.674 235.018C536.412 235.811 537.349 236.207 538.483 236.207Z"></path>
    <path style="fill: var(--color-illustrationPalette100)" d="M553.603 238.368C551.982 238.368 550.757 237.882 549.928 236.909C549.1 235.937 548.685 234.532 548.685 232.695V224.644H550.955V232.425C550.955 233.613 551.216 234.55 551.738 235.234C552.279 235.901 553.089 236.234 554.17 236.234C555.251 236.234 556.16 235.874 556.899 235.153C557.637 234.415 558.006 233.361 558.006 231.992V224.644H560.276V238.044H558.385L558.141 236.018H558.006C557.646 236.666 557.079 237.225 556.304 237.693C555.53 238.143 554.629 238.368 553.603 238.368Z"></path>
    <path style="fill: var(--color-illustrationPalette100)" d="M564.912 238.044V236.099H568.343V227.264C568.343 226.814 568.127 226.589 567.695 226.589H565.263V224.644H568.533C569.127 224.644 569.604 224.806 569.964 225.13C570.325 225.454 570.505 225.931 570.505 226.562V227.129H570.613C570.829 226.229 571.234 225.535 571.829 225.049C572.441 224.563 573.288 224.319 574.368 224.319H576.827V226.724H574.044C572.945 226.724 572.099 227.093 571.504 227.832C570.91 228.552 570.613 229.48 570.613 230.614V236.099H574.828V238.044H564.912Z"></path>
    <path style="fill: var(--color-illustrationPalette100)" d="M580.95 243.988V224.644H582.787L583.057 226.859H583.219C583.562 226.139 584.111 225.535 584.867 225.049C585.624 224.563 586.515 224.319 587.542 224.319C588.623 224.319 589.595 224.59 590.46 225.13C591.343 225.67 592.036 226.472 592.54 227.534C593.045 228.579 593.297 229.858 593.297 231.371C593.297 232.866 593.036 234.136 592.513 235.18C592.009 236.225 591.306 237.018 590.406 237.558C589.523 238.098 588.506 238.368 587.353 238.368C586.326 238.368 585.453 238.152 584.732 237.72C584.03 237.27 583.526 236.747 583.219 236.153V243.988H580.95ZM587.083 236.207C588.218 236.207 589.154 235.811 589.893 235.018C590.631 234.208 591 232.983 591 231.344C591 229.705 590.631 228.489 589.893 227.697C589.154 226.886 588.218 226.481 587.083 226.481C585.948 226.481 585.011 226.886 584.273 227.697C583.535 228.489 583.165 229.705 583.165 231.344C583.165 232.983 583.535 234.208 584.273 235.018C585.011 235.811 585.948 236.207 587.083 236.207Z"></path>
    <path style="fill: var(--color-illustrationPalette100)" d="M597.069 238.044V236.099H601.635V221.212C601.635 220.762 601.409 220.537 600.959 220.537H597.555V218.592H601.499C602.274 218.592 602.868 218.799 603.283 219.213C603.697 219.627 603.904 220.222 603.904 220.996V236.099H608.47V238.044H597.069Z"></path>
    <path style="fill: var(--color-illustrationPalette100)" d="M619.482 238.368C618.222 238.368 617.105 238.08 616.132 237.504C615.178 236.909 614.421 236.09 613.863 235.045C613.304 233.983 613.025 232.749 613.025 231.344C613.025 229.939 613.295 228.714 613.836 227.67C614.394 226.607 615.16 225.787 616.132 225.211C617.105 224.617 618.24 224.319 619.536 224.319C620.833 224.319 621.941 224.617 622.859 225.211C623.778 225.787 624.481 226.553 624.967 227.507C625.453 228.462 625.696 229.489 625.696 230.587C625.696 230.786 625.687 230.984 625.669 231.182C625.669 231.38 625.669 231.605 625.669 231.857H615.268C615.322 232.848 615.547 233.676 615.943 234.343C616.357 234.991 616.871 235.478 617.483 235.802C618.113 236.126 618.78 236.288 619.482 236.288C620.473 236.288 621.247 236.081 621.806 235.667C622.364 235.252 622.787 234.676 623.076 233.938H625.318C625.012 235.18 624.372 236.234 623.4 237.099C622.427 237.945 621.121 238.368 619.482 238.368ZM619.482 226.346C618.438 226.346 617.519 226.661 616.727 227.291C615.952 227.922 615.475 228.804 615.295 229.939H623.454C623.382 228.822 622.977 227.949 622.238 227.318C621.518 226.67 620.599 226.346 619.482 226.346Z"></path>
    <path style="fill: var(--color-illustrationPalette100)" d="M635.547 238.368C634.124 238.368 632.863 237.972 631.765 237.18C630.684 236.387 629.837 235.261 629.225 233.802C628.631 232.344 628.333 230.605 628.333 228.588C628.333 226.571 628.631 224.833 629.225 223.374C629.837 221.915 630.684 220.789 631.765 219.997C632.863 219.204 634.124 218.808 635.547 218.808C636.988 218.808 638.249 219.204 639.329 219.997C640.41 220.789 641.248 221.915 641.842 223.374C642.454 224.833 642.761 226.571 642.761 228.588C642.761 230.605 642.454 232.344 641.842 233.802C641.248 235.261 640.41 236.387 639.329 237.18C638.249 237.972 636.988 238.368 635.547 238.368ZM630.657 228.588C630.657 229.813 630.783 230.921 631.035 231.911C631.305 232.884 631.675 233.703 632.143 234.37L637.384 221.375C636.826 221.068 636.213 220.915 635.547 220.915C634.592 220.915 633.746 221.23 633.007 221.861C632.269 222.473 631.693 223.356 631.278 224.509C630.864 225.643 630.657 227.003 630.657 228.588ZM635.547 236.288C636.502 236.288 637.348 235.982 638.087 235.369C638.825 234.739 639.401 233.848 639.816 232.695C640.23 231.542 640.437 230.173 640.437 228.588C640.437 227.363 640.302 226.265 640.032 225.292C639.78 224.301 639.419 223.473 638.951 222.806L633.683 235.829C634.259 236.135 634.881 236.288 635.547 236.288Z"></path>
    <path style="fill: var(--color-illustrationPalette100)" d="M651.747 238.368C650.45 238.368 649.333 238.125 648.397 237.639C647.46 237.153 646.722 236.495 646.181 235.667C645.641 234.838 645.317 233.893 645.209 232.83H647.532C647.694 233.857 648.153 234.694 648.91 235.342C649.666 235.973 650.621 236.288 651.774 236.288C653.125 236.288 654.187 235.856 654.962 234.991C655.736 234.109 656.124 233.001 656.124 231.668C656.124 230.263 655.727 229.165 654.935 228.372C654.142 227.562 653.116 227.156 651.855 227.156C650.846 227.156 649.982 227.39 649.261 227.859C648.559 228.309 647.991 228.885 647.559 229.588H645.398L647.019 219.132H657.123V221.212H648.802L647.802 226.832H647.937C648.352 226.382 648.91 225.986 649.612 225.643C650.333 225.301 651.161 225.13 652.098 225.13C653.341 225.13 654.421 225.4 655.34 225.94C656.277 226.463 657.006 227.219 657.528 228.21C658.051 229.183 658.312 230.326 658.312 231.641C658.312 232.866 658.051 233.992 657.528 235.018C657.024 236.027 656.277 236.837 655.286 237.45C654.313 238.062 653.134 238.368 651.747 238.368Z"></path>
    <path style="fill: var(--color-illustrationPalette100)" d="M667.947 238.368C666.524 238.368 665.263 237.972 664.164 237.18C663.083 236.387 662.237 235.261 661.625 233.802C661.03 232.344 660.733 230.605 660.733 228.588C660.733 226.571 661.03 224.833 661.625 223.374C662.237 221.915 663.083 220.789 664.164 219.997C665.263 219.204 666.524 218.808 667.947 218.808C669.387 218.808 670.648 219.204 671.729 219.997C672.81 220.789 673.647 221.915 674.242 223.374C674.854 224.833 675.16 226.571 675.16 228.588C675.16 230.605 674.854 232.344 674.242 233.802C673.647 235.261 672.81 236.387 671.729 237.18C670.648 237.972 669.387 238.368 667.947 238.368ZM663.056 228.588C663.056 229.813 663.183 230.921 663.435 231.911C663.705 232.884 664.074 233.703 664.542 234.37L669.784 221.375C669.225 221.068 668.613 220.915 667.947 220.915C666.992 220.915 666.145 221.23 665.407 221.861C664.668 222.473 664.092 223.356 663.678 224.509C663.264 225.643 663.056 227.003 663.056 228.588ZM667.947 236.288C668.901 236.288 669.748 235.982 670.486 235.369C671.225 234.739 671.801 233.848 672.215 232.695C672.63 231.542 672.837 230.173 672.837 228.588C672.837 227.363 672.702 226.265 672.431 225.292C672.179 224.301 671.819 223.473 671.351 222.806L666.082 235.829C666.659 236.135 667.28 236.288 667.947 236.288Z"></path>
    <path style="fill: var(--color-illustrationBorder020)" fill-rule="evenodd" clip-rule="evenodd" d="M777.742 218.632C776.607 217.925 775.136 218.742 775.136 220.08V227.03H719.727C718.785 227.03 718.022 227.794 718.022 228.735C718.022 229.677 718.785 230.44 719.727 230.44H775.136V237.81C775.136 239.148 776.606 239.964 777.742 239.258L791.986 230.396C793.058 229.729 793.058 228.168 791.986 227.501L777.742 218.632Z"></path>
    <path style="fill: var(--color-white)" d="M809.838 200.861C809.838 195.657 814.057 191.438 819.261 191.438H1036.54C1041.74 191.438 1045.96 195.657 1045.96 200.861V257.029C1045.96 262.233 1041.74 266.452 1036.54 266.452H819.261C814.057 266.452 809.838 262.233 809.838 257.029V200.861Z"></path>
    <path style="fill: var(--color-illustrationBorder020)" fill-rule="evenodd" clip-rule="evenodd" d="M1036.54 192.233H819.261C814.496 192.233 810.633 196.096 810.633 200.861V257.029C810.633 261.794 814.496 265.657 819.261 265.657H1036.54C1041.3 265.657 1045.17 261.794 1045.17 257.029V200.861C1045.17 196.096 1041.3 192.233 1036.54 192.233ZM819.261 191.438C814.057 191.438 809.838 195.657 809.838 200.861V257.029C809.838 262.233 814.057 266.452 819.261 266.452H1036.54C1041.74 266.452 1045.96 262.233 1045.96 257.029V200.861C1045.96 195.657 1041.74 191.438 1036.54 191.438H819.261Z"></path>
    <path style="fill: var(--color-illustrationPalette040)" d="M868.9 228.945C868.9 238.361 861.076 245.993 851.425 245.993C841.774 245.993 833.95 238.361 833.95 228.945C833.95 219.529 841.774 211.896 851.425 211.896C861.076 211.896 868.9 219.529 868.9 228.945Z"></path>
    <path style="fill: var(--color-illustrationPalette100)" d="M897.058 222.266C896.517 222.266 896.067 222.086 895.707 221.726C895.347 221.366 895.167 220.933 895.167 220.429C895.167 219.907 895.347 219.474 895.707 219.132C896.067 218.772 896.517 218.592 897.058 218.592C897.58 218.592 898.021 218.772 898.382 219.132C898.76 219.474 898.949 219.907 898.949 220.429C898.949 220.933 898.76 221.366 898.382 221.726C898.021 222.086 897.58 222.266 897.058 222.266ZM891.816 238.044V236.099H896.085V227.264C896.085 226.814 895.86 226.589 895.41 226.589H892.276V224.644H895.95C897.553 224.644 898.355 225.445 898.355 227.048V236.099H902.623V238.044H891.816Z"></path>
    <path style="fill: var(--color-illustrationPalette100)" d="M907.692 238.044V224.644H909.583L909.826 226.67H909.961C910.322 226.022 910.889 225.472 911.663 225.022C912.438 224.554 913.33 224.319 914.338 224.319C915.977 224.319 917.202 224.806 918.013 225.778C918.841 226.751 919.255 228.156 919.255 229.993V238.044H916.986V230.263C916.986 229.074 916.725 228.147 916.202 227.48C915.68 226.796 914.87 226.454 913.771 226.454C912.708 226.454 911.808 226.823 911.069 227.562C910.331 228.282 909.961 229.327 909.961 230.696V238.044H907.692Z"></path>
    <path style="fill: var(--color-illustrationPalette100)" d="M924.513 238.044V218.592H926.783V230.317L932.375 224.644H935.266L929.295 230.614V230.777L935.995 238.044H933.186L926.783 231.074V238.044H924.513Z"></path>
    <path style="fill: var(--color-illustrationPalette100)" d="M939.497 238.044V219.132H945.792C947.755 219.132 949.232 219.582 950.223 220.483C951.214 221.384 951.709 222.536 951.709 223.941C951.709 225.04 951.412 225.949 950.817 226.67C950.223 227.372 949.557 227.868 948.818 228.156V228.345C949.701 228.633 950.475 229.156 951.142 229.912C951.808 230.668 952.141 231.641 952.141 232.83C952.141 233.802 951.898 234.685 951.412 235.478C950.943 236.252 950.25 236.873 949.331 237.342C948.431 237.81 947.323 238.044 946.008 238.044H939.497ZM941.767 227.291H945.63C946.837 227.291 947.755 227.03 948.386 226.508C949.034 225.967 949.358 225.193 949.358 224.184C949.358 223.23 949.043 222.491 948.413 221.969C947.782 221.447 946.828 221.185 945.549 221.185H941.767V227.291ZM941.767 235.964H945.765C947.062 235.964 948.062 235.676 948.764 235.099C949.466 234.505 949.818 233.676 949.818 232.614C949.818 231.551 949.448 230.732 948.71 230.155C947.972 229.561 946.972 229.264 945.711 229.264H941.767V235.964Z"></path>
    <path style="fill: var(--color-illustrationPalette100)" d="M956.183 238.044V236.099H959.614V227.264C959.614 226.814 959.398 226.589 958.966 226.589H956.534V224.644H959.803C960.398 224.644 960.875 224.806 961.235 225.13C961.596 225.454 961.776 225.931 961.776 226.562V227.129H961.884C962.1 226.229 962.505 225.535 963.1 225.049C963.712 224.563 964.559 224.319 965.639 224.319H968.098V226.724H965.315C964.216 226.724 963.37 227.093 962.775 227.832C962.181 228.552 961.884 229.48 961.884 230.614V236.099H966.099V238.044H956.183Z"></path>
    <path style="fill: var(--color-illustrationPalette100)" d="M977.084 238.368C976.021 238.368 975.139 238.179 974.436 237.801C973.734 237.423 973.211 236.927 972.869 236.315C972.527 235.685 972.356 235 972.356 234.262C972.356 232.893 972.851 231.857 973.842 231.155C974.851 230.434 976.192 230.074 977.867 230.074H981.542V229.804C981.542 227.462 980.47 226.292 978.327 226.292C977.462 226.292 976.733 226.481 976.138 226.859C975.562 227.237 975.193 227.832 975.031 228.642H972.707C972.797 227.742 973.094 226.967 973.599 226.319C974.121 225.67 974.787 225.175 975.598 224.833C976.409 224.491 977.318 224.319 978.327 224.319C980.236 224.319 981.623 224.824 982.487 225.832C983.37 226.823 983.811 228.147 983.811 229.804V238.044H981.866L981.677 235.964H981.488C981.092 236.612 980.56 237.18 979.894 237.666C979.245 238.134 978.309 238.368 977.084 238.368ZM977.489 236.369C978.354 236.369 979.083 236.162 979.678 235.748C980.29 235.333 980.749 234.784 981.055 234.1C981.38 233.415 981.542 232.668 981.542 231.857H978.057C976.832 231.857 975.967 232.064 975.463 232.479C974.977 232.893 974.733 233.442 974.733 234.127C974.733 234.829 974.968 235.378 975.436 235.775C975.904 236.171 976.589 236.369 977.489 236.369Z"></path>
    <path style="fill: var(--color-illustrationPalette100)" d="M988.691 238.044V224.644H990.582L990.825 226.67H990.96C991.32 226.022 991.888 225.472 992.662 225.022C993.437 224.554 994.328 224.319 995.337 224.319C996.976 224.319 998.201 224.806 999.011 225.778C999.84 226.751 1000.25 228.156 1000.25 229.993V238.044H997.985V230.263C997.985 229.074 997.724 228.147 997.201 227.48C996.679 226.796 995.868 226.454 994.77 226.454C993.707 226.454 992.806 226.823 992.068 227.562C991.329 228.282 990.96 229.327 990.96 230.696V238.044H988.691Z"></path>
    <path style="fill: var(--color-illustrationPalette100)" d="M1010.16 238.368C1009.02 238.368 1008.01 238.098 1007.11 237.558C1006.22 237.018 1005.53 236.225 1005.03 235.18C1004.52 234.118 1004.27 232.83 1004.27 231.317C1004.27 229.822 1004.52 228.552 1005.03 227.507C1005.53 226.463 1006.22 225.67 1007.11 225.13C1008.01 224.59 1009.02 224.319 1010.16 224.319C1011.22 224.319 1012.1 224.527 1012.78 224.941C1013.48 225.355 1014 225.895 1014.35 226.562V218.592H1016.62V238.044H1014.75L1014.51 235.964H1014.35C1013.99 236.702 1013.46 237.288 1012.75 237.72C1012.05 238.152 1011.19 238.368 1010.16 238.368ZM1010.46 236.207C1011.59 236.207 1012.53 235.811 1013.27 235.018C1014 234.208 1014.37 232.983 1014.37 231.344C1014.37 229.705 1014 228.489 1013.27 227.697C1012.53 226.886 1011.59 226.481 1010.46 226.481C1009.32 226.481 1008.38 226.886 1007.65 227.697C1006.93 228.489 1006.57 229.705 1006.57 231.344C1006.57 232.983 1006.93 234.208 1007.65 235.018C1008.38 235.811 1009.32 236.207 1010.46 236.207Z"></path>
    <path style="fill: var(--color-illustrationBorder020)" fill-rule="evenodd" clip-rule="evenodd" d="M1122.73 218.632C1121.59 217.925 1120.12 218.742 1120.12 220.08V227.03H1064.71C1063.77 227.03 1063.01 227.794 1063.01 228.735C1063.01 229.677 1063.77 230.44 1064.71 230.44H1120.12V237.81C1120.12 239.148 1121.59 239.964 1122.73 239.258L1136.97 230.396C1138.04 229.729 1138.04 228.168 1136.97 227.501L1122.73 218.632Z"></path>
    <path style="fill: var(--color-white)" d="M1154.94 218.694C1154.94 214.928 1158 211.875 1161.76 211.875H1303.34C1307.11 211.875 1310.16 214.928 1310.16 218.694V321.071C1310.16 324.837 1307.11 327.89 1303.34 327.89H1161.76C1158 327.89 1154.94 324.837 1154.94 321.071V218.694Z"></path>
    <path style="fill: var(--color-illustrationSubtle010)" d="M1309.97 135.607V212.639H1154.82V136.819C1154.82 133.053 1157.88 130 1161.64 130H1303.26C1306.61 130 1309.4 132.419 1309.97 135.607Z"></path>
    <path style="fill: var(--color-illustrationShadow010)" fill-rule="evenodd" clip-rule="evenodd" d="M1167.29 264.293C1167.29 263.001 1168.34 261.954 1169.63 261.954H1294.37C1295.66 261.954 1296.71 263.001 1296.71 264.293C1296.71 265.585 1295.66 266.632 1294.37 266.632H1169.63C1168.34 266.632 1167.29 265.585 1167.29 264.293ZM1169.63 272.869C1168.34 272.869 1167.29 273.916 1167.29 275.208C1167.29 276.5 1168.34 277.547 1169.63 277.547H1294.37C1295.66 277.547 1296.71 276.5 1296.71 275.208C1296.71 273.916 1295.66 272.869 1294.37 272.869H1169.63ZM1169.63 283.784C1168.34 283.784 1167.29 284.831 1167.29 286.123C1167.29 287.415 1168.34 288.462 1169.63 288.462H1294.37C1295.66 288.462 1296.71 287.415 1296.71 286.123C1296.71 284.831 1295.66 283.784 1294.37 283.784H1169.63ZM1169.63 294.697C1168.34 294.697 1167.29 295.744 1167.29 297.036C1167.29 298.328 1168.34 299.375 1169.63 299.375H1230.44C1231.73 299.375 1232.78 298.328 1232.78 297.036C1232.78 295.744 1231.73 294.697 1230.44 294.697H1169.63Z"></path>
    <path style="fill: var(--color-illustrationPalette040)" d="M1167.3 232.742C1167.3 230.517 1169.1 228.713 1171.33 228.713H1292.68C1294.91 228.713 1296.71 230.517 1296.71 232.742V232.742C1296.71 234.967 1294.91 236.771 1292.68 236.771H1171.33C1169.1 236.771 1167.3 234.967 1167.3 232.742V232.742Z"></path>
    <path style="fill: var(--color-illustrationPalette040)" d="M1167.3 246.845C1167.3 244.619 1169.1 242.815 1171.33 242.815H1248.25C1250.47 242.815 1252.27 244.619 1252.27 246.845V246.845C1252.27 249.07 1250.47 250.874 1248.25 250.874H1171.33C1169.1 250.874 1167.3 249.07 1167.3 246.845V246.845Z"></path>
  </g>
  <defs>
    <clipPath id="nk-576">
      <rect style="fill: var(--color-white)" width="1490" height="600"></rect>
    </clipPath>
  </defs>
</svg>
