<svg id="nksvg" width="1490" height="838" viewBox="0 0 1490 838" fill="none" xmlns="http://www.w3.org/2000/svg">
<g clip-path="url(#clip0_973_180837)">
<path d="M0 0H1490V838H0V0Z" fill="var(--color-illustrationBackground010)"/>
<path d="M494 122.55C494 105.678 507.678 92 524.55 92H2191.45C2208.32 92 2222 105.678 2222 122.55V1121.16C2222 1138.03 2208.32 1151.71 2191.45 1151.71H524.55C507.678 1151.71 494 1138.04 494 1121.16V122.55Z" fill="#D5E0FC"/>
<path d="M1483.71 141.574C1483.71 137.663 1486.88 134.492 1490.79 134.492H1598.79C1602.7 134.492 1605.87 137.663 1605.87 141.574C1605.87 145.485 1602.7 148.656 1598.79 148.656H1490.79C1486.88 148.656 1483.71 145.485 1483.71 141.574Z" fill="white"/>
<path d="M494 106.164C494 98.3414 500.341 92 508.164 92H2207.84C2215.66 92 2222 98.3414 2222 106.164V192.918H494V106.164Z" fill="#577FFB"/>
<path d="M1676.69 141.574C1676.69 137.663 1679.86 134.492 1683.77 134.492H1791.77C1795.69 134.492 1798.86 137.663 1798.86 141.574C1798.86 145.485 1795.69 148.656 1791.77 148.656H1683.77C1679.86 148.656 1676.69 145.485 1676.69 141.574Z" fill="white"/>
<path d="M1869.68 141.574C1869.68 137.663 1872.85 134.492 1876.76 134.492H1984.76C1988.67 134.492 1991.84 137.663 1991.84 141.574C1991.84 145.485 1988.67 148.656 1984.76 148.656H1876.76C1872.85 148.656 1869.68 145.485 1869.68 141.574Z" fill="white"/>
<path d="M2062.66 141.574C2062.66 137.663 2065.83 134.492 2069.74 134.492H2177.74C2181.65 134.492 2184.82 137.663 2184.82 141.574C2184.82 145.485 2181.65 148.656 2177.74 148.656H2069.74C2065.83 148.656 2062.66 145.485 2062.66 141.574Z" fill="white"/>
<path d="M494 193H911V912H494V193Z" fill="white"/>
<path d="M543.542 256.864H535.83L534.594 260.514H529.325L536.801 239.85H542.63L550.106 260.514H544.778L543.542 256.864ZM542.247 252.978L539.686 245.413L537.155 252.978H542.247Z" fill="#85939C"/>
<path d="M551.381 252.301C551.381 250.594 551.724 249.102 552.411 247.827C553.118 246.551 554.089 245.57 555.325 244.883C556.581 244.196 558.014 243.853 559.623 243.853C561.684 243.853 563.401 244.393 564.774 245.472C566.168 246.551 567.08 248.072 567.512 250.035H562.155C561.703 248.779 560.83 248.151 559.535 248.151C558.612 248.151 557.877 248.514 557.327 249.24C556.778 249.946 556.503 250.967 556.503 252.301C556.503 253.636 556.778 254.666 557.327 255.392C557.877 256.098 558.612 256.452 559.535 256.452C560.83 256.452 561.703 255.824 562.155 254.568H567.512C567.08 256.491 566.168 258.002 564.774 259.101C563.381 260.2 561.664 260.749 559.623 260.749C558.014 260.749 556.581 260.406 555.325 259.719C554.089 259.032 553.118 258.051 552.411 256.775C551.724 255.5 551.381 254.008 551.381 252.301Z" fill="#85939C"/>
<path d="M569.204 252.301C569.204 250.594 569.547 249.102 570.234 247.827C570.94 246.551 571.912 245.57 573.148 244.883C574.404 244.196 575.836 243.853 577.446 243.853C579.506 243.853 581.223 244.393 582.597 245.472C583.99 246.551 584.903 248.072 585.334 250.035H579.977C579.526 248.779 578.653 248.151 577.357 248.151C576.435 248.151 575.699 248.514 575.15 249.24C574.6 249.946 574.325 250.967 574.325 252.301C574.325 253.636 574.6 254.666 575.15 255.392C575.699 256.098 576.435 256.452 577.357 256.452C578.653 256.452 579.526 255.824 579.977 254.568H585.334C584.903 256.491 583.99 258.002 582.597 259.101C581.204 260.2 579.487 260.749 577.446 260.749C575.836 260.749 574.404 260.406 573.148 259.719C571.912 259.032 570.94 258.051 570.234 256.775C569.547 255.5 569.204 254.008 569.204 252.301Z" fill="#85939C"/>
<path d="M595.504 260.749C593.895 260.749 592.442 260.406 591.147 259.719C589.872 259.032 588.861 258.051 588.115 256.775C587.389 255.5 587.026 254.008 587.026 252.301C587.026 250.613 587.399 249.132 588.145 247.856C588.89 246.561 589.911 245.57 591.206 244.883C592.501 244.196 593.953 243.853 595.563 243.853C597.172 243.853 598.624 244.196 599.919 244.883C601.214 245.57 602.235 246.561 602.98 247.856C603.726 249.132 604.099 250.613 604.099 252.301C604.099 253.989 603.716 255.48 602.951 256.775C602.205 258.051 601.175 259.032 599.86 259.719C598.565 260.406 597.113 260.749 595.504 260.749ZM595.504 256.393C596.465 256.393 597.28 256.039 597.947 255.333C598.634 254.627 598.977 253.616 598.977 252.301C598.977 250.986 598.643 249.976 597.976 249.269C597.329 248.563 596.524 248.209 595.563 248.209C594.581 248.209 593.767 248.563 593.119 249.269C592.472 249.956 592.148 250.967 592.148 252.301C592.148 253.616 592.462 254.627 593.09 255.333C593.738 256.039 594.542 256.393 595.504 256.393Z" fill="#85939C"/>
<path d="M622.989 244.088V260.514H617.955V258.277C617.445 259.003 616.748 259.591 615.865 260.043C615.002 260.474 614.04 260.69 612.98 260.69C611.724 260.69 610.616 260.416 609.654 259.866C608.692 259.297 607.947 258.483 607.417 257.423C606.887 256.363 606.622 255.117 606.622 253.685V244.088H611.626V253.008C611.626 254.106 611.911 254.96 612.48 255.568C613.049 256.177 613.814 256.481 614.776 256.481C615.757 256.481 616.532 256.177 617.101 255.568C617.67 254.96 617.955 254.106 617.955 253.008V244.088H622.989Z" fill="#85939C"/>
<path d="M636.612 243.912C638.535 243.912 640.066 244.54 641.204 245.796C642.362 247.032 642.941 248.739 642.941 250.918V260.514H637.937V251.595C637.937 250.496 637.652 249.642 637.083 249.034C636.514 248.425 635.749 248.121 634.787 248.121C633.826 248.121 633.06 248.425 632.491 249.034C631.922 249.642 631.638 250.496 631.638 251.595V260.514H626.604V244.088H631.638V246.267C632.148 245.541 632.835 244.972 633.698 244.559C634.562 244.128 635.533 243.912 636.612 243.912Z" fill="#85939C"/>
<path d="M655.593 256.245V260.514H653.032C651.207 260.514 649.785 260.072 648.764 259.189C647.744 258.286 647.234 256.824 647.234 254.803V248.268H645.232V244.088H647.234V240.085H652.267V244.088H655.564V248.268H652.267V254.862C652.267 255.353 652.385 255.706 652.62 255.922C652.856 256.138 653.248 256.245 653.798 256.245H655.593Z" fill="#85939C"/>
<path d="M588.408 378.434C588.408 379.313 588.196 380.137 587.773 380.907C587.364 381.676 586.713 382.296 585.818 382.767C584.939 383.238 583.824 383.473 582.474 383.473H579.719V389.784H576.422V373.347H582.474C583.746 373.347 584.829 373.567 585.724 374.007C586.619 374.446 587.286 375.051 587.725 375.82C588.181 376.589 588.408 377.461 588.408 378.434ZM582.333 380.812C583.243 380.812 583.918 380.608 584.358 380.2C584.798 379.776 585.017 379.188 585.017 378.434C585.017 376.833 584.122 376.032 582.333 376.032H579.719V380.812H582.333Z" fill="#85939C"/>
<path d="M602.877 382.979C602.877 383.45 602.845 383.874 602.782 384.251H593.245C593.324 385.192 593.653 385.93 594.234 386.464C594.815 386.998 595.529 387.265 596.377 387.265C597.602 387.265 598.473 386.739 598.991 385.687H602.547C602.17 386.943 601.448 387.979 600.381 388.795C599.313 389.596 598.002 389.996 596.448 389.996C595.192 389.996 594.062 389.722 593.057 389.172C592.068 388.607 591.291 387.814 590.726 386.794C590.176 385.773 589.901 384.596 589.901 383.262C589.901 381.911 590.176 380.726 590.726 379.706C591.275 378.685 592.044 377.9 593.033 377.351C594.022 376.801 595.161 376.527 596.448 376.527C597.688 376.527 598.795 376.793 599.768 377.327C600.757 377.861 601.519 378.622 602.052 379.611C602.602 380.585 602.877 381.707 602.877 382.979ZM599.462 382.037C599.446 381.189 599.14 380.514 598.544 380.012C597.947 379.494 597.217 379.235 596.354 379.235C595.537 379.235 594.847 379.486 594.281 379.988C593.732 380.475 593.394 381.158 593.269 382.037H599.462Z" fill="#85939C"/>
<path d="M608.58 378.764C609.004 378.073 609.553 377.531 610.228 377.139C610.919 376.746 611.704 376.55 612.583 376.55V380.012H611.712C610.676 380.012 609.891 380.255 609.357 380.742C608.839 381.228 608.58 382.076 608.58 383.285V389.784H605.283V376.738H608.58V378.764Z" fill="#85939C"/>
<path d="M619.796 389.996C618.729 389.996 617.771 389.808 616.923 389.431C616.075 389.039 615.4 388.513 614.898 387.854C614.411 387.194 614.144 386.464 614.097 385.663H617.418C617.48 386.166 617.724 386.582 618.148 386.912C618.587 387.241 619.129 387.406 619.773 387.406C620.4 387.406 620.887 387.28 621.233 387.029C621.594 386.778 621.774 386.456 621.774 386.064C621.774 385.64 621.554 385.326 621.115 385.122C620.691 384.902 620.008 384.667 619.066 384.415C618.093 384.18 617.292 383.937 616.664 383.685C616.052 383.434 615.518 383.05 615.063 382.531C614.623 382.013 614.403 381.315 614.403 380.436C614.403 379.713 614.607 379.054 615.016 378.458C615.44 377.861 616.036 377.39 616.805 377.045C617.59 376.699 618.509 376.527 619.561 376.527C621.115 376.527 622.355 376.919 623.281 377.704C624.208 378.473 624.718 379.517 624.812 380.836H621.656C621.609 380.318 621.39 379.91 620.997 379.611C620.62 379.297 620.11 379.14 619.466 379.14C618.87 379.14 618.407 379.25 618.077 379.47C617.763 379.69 617.606 379.996 617.606 380.389C617.606 380.828 617.826 381.166 618.265 381.401C618.705 381.621 619.388 381.849 620.314 382.084C621.256 382.32 622.033 382.563 622.645 382.814C623.258 383.065 623.784 383.458 624.223 383.992C624.679 384.51 624.914 385.2 624.93 386.064C624.93 386.817 624.718 387.492 624.294 388.089C623.886 388.686 623.289 389.157 622.504 389.502C621.735 389.832 620.832 389.996 619.796 389.996Z" fill="#85939C"/>
<path d="M633.429 389.996C632.173 389.996 631.043 389.722 630.038 389.172C629.033 388.607 628.24 387.814 627.66 386.794C627.094 385.773 626.812 384.596 626.812 383.262C626.812 381.927 627.102 380.75 627.683 379.729C628.28 378.709 629.088 377.924 630.109 377.374C631.129 376.809 632.267 376.527 633.523 376.527C634.779 376.527 635.917 376.809 636.938 377.374C637.958 377.924 638.759 378.709 639.34 379.729C639.936 380.75 640.235 381.927 640.235 383.262C640.235 384.596 639.928 385.773 639.316 386.794C638.72 387.814 637.903 388.607 636.867 389.172C635.847 389.722 634.701 389.996 633.429 389.996ZM633.429 387.123C634.026 387.123 634.583 386.982 635.101 386.7C635.635 386.401 636.059 385.962 636.373 385.381C636.687 384.8 636.844 384.094 636.844 383.262C636.844 382.021 636.514 381.071 635.854 380.412C635.211 379.737 634.418 379.4 633.476 379.4C632.534 379.4 631.741 379.737 631.098 380.412C630.47 381.071 630.156 382.021 630.156 383.262C630.156 384.502 630.462 385.459 631.074 386.134C631.702 386.794 632.487 387.123 633.429 387.123Z" fill="#85939C"/>
<path d="M649.882 376.55C651.437 376.55 652.692 377.045 653.65 378.034C654.608 379.007 655.087 380.373 655.087 382.131V389.784H651.79V382.579C651.79 381.542 651.531 380.75 651.013 380.2C650.495 379.635 649.788 379.352 648.893 379.352C647.983 379.352 647.261 379.635 646.727 380.2C646.209 380.75 645.95 381.542 645.95 382.579V389.784H642.653V376.738H645.95V378.363C646.389 377.798 646.947 377.359 647.622 377.045C648.312 376.715 649.066 376.55 649.882 376.55Z" fill="#85939C"/>
<path d="M657.374 383.214C657.374 381.896 657.633 380.726 658.151 379.706C658.685 378.685 659.399 377.9 660.294 377.351C661.205 376.801 662.217 376.527 663.332 376.527C664.305 376.527 665.153 376.723 665.875 377.115C666.613 377.508 667.202 378.002 667.641 378.599V376.738H670.962V389.784H667.641V387.877C667.217 388.489 666.629 389 665.875 389.408C665.137 389.8 664.282 389.996 663.308 389.996C662.209 389.996 661.205 389.714 660.294 389.149C659.399 388.584 658.685 387.791 658.151 386.77C657.633 385.734 657.374 384.549 657.374 383.214ZM667.641 383.262C667.641 382.461 667.484 381.778 667.17 381.213C666.856 380.632 666.432 380.192 665.899 379.894C665.365 379.58 664.792 379.423 664.18 379.423C663.567 379.423 663.002 379.572 662.484 379.87C661.966 380.169 661.542 380.608 661.212 381.189C660.898 381.754 660.741 382.429 660.741 383.214C660.741 383.999 660.898 384.69 661.212 385.287C661.542 385.868 661.966 386.315 662.484 386.629C663.018 386.943 663.583 387.1 664.18 387.1C664.792 387.1 665.365 386.951 665.899 386.653C666.432 386.339 666.856 385.899 667.17 385.334C667.484 384.753 667.641 384.062 667.641 383.262Z" fill="#85939C"/>
<path d="M677.478 372.358V389.784H674.182V372.358H677.478Z" fill="#85939C"/>
<path d="M685.499 383.214C685.499 381.896 685.758 380.726 686.276 379.706C686.81 378.685 687.532 377.9 688.443 377.351C689.353 376.801 690.366 376.527 691.48 376.527C692.328 376.527 693.137 376.715 693.906 377.092C694.675 377.453 695.287 377.939 695.743 378.552V372.358H699.087V389.784H695.743V387.854C695.335 388.497 694.762 389.015 694.024 389.408C693.286 389.8 692.43 389.996 691.457 389.996C690.358 389.996 689.353 389.714 688.443 389.149C687.532 388.584 686.81 387.791 686.276 386.77C685.758 385.734 685.499 384.549 685.499 383.214ZM695.766 383.262C695.766 382.461 695.609 381.778 695.295 381.213C694.981 380.632 694.557 380.192 694.024 379.894C693.49 379.58 692.917 379.423 692.305 379.423C691.692 379.423 691.127 379.572 690.609 379.87C690.091 380.169 689.667 380.608 689.338 381.189C689.024 381.754 688.867 382.429 688.867 383.214C688.867 383.999 689.024 384.69 689.338 385.287C689.667 385.868 690.091 386.315 690.609 386.629C691.143 386.943 691.708 387.1 692.305 387.1C692.917 387.1 693.49 386.951 694.024 386.653C694.557 386.339 694.981 385.899 695.295 385.334C695.609 384.753 695.766 384.062 695.766 383.262Z" fill="#85939C"/>
<path d="M714.434 382.979C714.434 383.45 714.403 383.874 714.34 384.251H704.803C704.881 385.192 705.211 385.93 705.792 386.464C706.373 386.998 707.087 387.265 707.935 387.265C709.159 387.265 710.031 386.739 710.549 385.687H714.105C713.728 386.943 713.006 387.979 711.938 388.795C710.871 389.596 709.56 389.996 708.005 389.996C706.749 389.996 705.619 389.722 704.614 389.172C703.625 388.607 702.848 387.814 702.283 386.794C701.734 385.773 701.459 384.596 701.459 383.262C701.459 381.911 701.734 380.726 702.283 379.706C702.833 378.685 703.602 377.9 704.591 377.351C705.58 376.801 706.718 376.527 708.005 376.527C709.246 376.527 710.352 376.793 711.326 377.327C712.315 377.861 713.076 378.622 713.61 379.611C714.159 380.585 714.434 381.707 714.434 382.979ZM711.02 382.037C711.004 381.189 710.698 380.514 710.101 380.012C709.505 379.494 708.775 379.235 707.911 379.235C707.095 379.235 706.404 379.486 705.839 379.988C705.289 380.475 704.952 381.158 704.826 382.037H711.02Z" fill="#85939C"/>
<path d="M720.679 379.447V385.758C720.679 386.197 720.781 386.519 720.985 386.723C721.205 386.912 721.566 387.006 722.068 387.006H723.599V389.784H721.527C718.748 389.784 717.359 388.434 717.359 385.734V379.447H715.804V376.738H717.359V373.512H720.679V376.738H723.599V379.447H720.679Z" fill="#85939C"/>
<path d="M725.123 383.214C725.123 381.896 725.382 380.726 725.9 379.706C726.433 378.685 727.148 377.9 728.043 377.351C728.953 376.801 729.966 376.527 731.08 376.527C732.054 376.527 732.901 376.723 733.624 377.115C734.362 377.508 734.95 378.002 735.39 378.599V376.738H738.71V389.784H735.39V387.877C734.966 388.489 734.377 389 733.624 389.408C732.886 389.8 732.03 389.996 731.057 389.996C729.958 389.996 728.953 389.714 728.043 389.149C727.148 388.584 726.433 387.791 725.9 386.77C725.382 385.734 725.123 384.549 725.123 383.214ZM735.39 383.262C735.39 382.461 735.233 381.778 734.919 381.213C734.605 380.632 734.181 380.192 733.647 379.894C733.113 379.58 732.54 379.423 731.928 379.423C731.316 379.423 730.751 379.572 730.233 379.87C729.715 380.169 729.291 380.608 728.961 381.189C728.647 381.754 728.49 382.429 728.49 383.214C728.49 383.999 728.647 384.69 728.961 385.287C729.291 385.868 729.715 386.315 730.233 386.629C730.766 386.943 731.332 387.1 731.928 387.1C732.54 387.1 733.113 386.951 733.647 386.653C734.181 386.339 734.605 385.899 734.919 385.334C735.233 384.753 735.39 384.062 735.39 383.262Z" fill="#85939C"/>
<path d="M743.602 375.184C743.021 375.184 742.535 375.004 742.142 374.643C741.765 374.266 741.577 373.803 741.577 373.253C741.577 372.704 741.765 372.249 742.142 371.887C742.535 371.511 743.021 371.322 743.602 371.322C744.183 371.322 744.662 371.511 745.039 371.887C745.431 372.249 745.627 372.704 745.627 373.253C745.627 373.803 745.431 374.266 745.039 374.643C744.662 375.004 744.183 375.184 743.602 375.184ZM745.227 376.738V389.784H741.93V376.738H745.227Z" fill="#85939C"/>
<path d="M751.781 372.358V389.784H748.484V372.358H751.781Z" fill="#85939C"/>
<path d="M760.031 389.996C758.963 389.996 758.005 389.808 757.158 389.431C756.31 389.039 755.635 388.513 755.133 387.854C754.646 387.194 754.379 386.464 754.332 385.663H757.652C757.715 386.166 757.958 386.582 758.382 386.912C758.822 387.241 759.363 387.406 760.007 387.406C760.635 387.406 761.122 387.28 761.467 387.029C761.828 386.778 762.009 386.456 762.009 386.064C762.009 385.64 761.789 385.326 761.349 385.122C760.925 384.902 760.243 384.667 759.301 384.415C758.327 384.18 757.527 383.937 756.899 383.685C756.286 383.434 755.753 383.05 755.297 382.531C754.858 382.013 754.638 381.315 754.638 380.436C754.638 379.713 754.842 379.054 755.25 378.458C755.674 377.861 756.271 377.39 757.04 377.045C757.825 376.699 758.743 376.527 759.795 376.527C761.349 376.527 762.59 376.919 763.516 377.704C764.442 378.473 764.952 379.517 765.047 380.836H761.891C761.844 380.318 761.624 379.91 761.232 379.611C760.855 379.297 760.345 379.14 759.701 379.14C759.104 379.14 758.641 379.25 758.312 379.47C757.998 379.69 757.841 379.996 757.841 380.389C757.841 380.828 758.06 381.166 758.5 381.401C758.94 381.621 759.622 381.849 760.549 382.084C761.491 382.32 762.268 382.563 762.88 382.814C763.492 383.065 764.018 383.458 764.458 383.992C764.913 384.51 765.149 385.2 765.164 386.064C765.164 386.817 764.952 387.492 764.528 388.089C764.12 388.686 763.524 389.157 762.739 389.502C761.969 389.832 761.067 389.996 760.031 389.996Z" fill="#85939C"/>
<path d="M908.225 439.955V322.211H911.169V439.955H908.225Z" fill="white"/>
<path d="M582.521 516.359C581.375 516.359 580.339 516.163 579.413 515.77C578.502 515.378 577.78 514.813 577.246 514.075C576.712 513.337 576.438 512.466 576.422 511.461H579.954C580.001 512.136 580.237 512.67 580.661 513.062C581.1 513.455 581.697 513.651 582.451 513.651C583.22 513.651 583.824 513.47 584.264 513.109C584.703 512.732 584.923 512.246 584.923 511.649C584.923 511.163 584.774 510.762 584.476 510.448C584.177 510.134 583.801 509.891 583.345 509.718C582.906 509.53 582.294 509.326 581.509 509.106C580.441 508.792 579.57 508.486 578.895 508.188C578.235 507.874 577.662 507.41 577.176 506.798C576.705 506.17 576.469 505.338 576.469 504.302C576.469 503.329 576.712 502.481 577.199 501.759C577.686 501.037 578.369 500.487 579.248 500.11C580.127 499.718 581.132 499.522 582.262 499.522C583.958 499.522 585.331 499.938 586.383 500.77C587.451 501.586 588.039 502.732 588.149 504.208H584.523C584.491 503.643 584.248 503.18 583.793 502.818C583.353 502.442 582.765 502.253 582.027 502.253C581.383 502.253 580.865 502.418 580.472 502.748C580.096 503.077 579.907 503.556 579.907 504.184C579.907 504.624 580.049 504.993 580.331 505.291C580.629 505.574 580.991 505.809 581.414 505.997C581.854 506.17 582.466 506.374 583.251 506.61C584.319 506.924 585.19 507.238 585.865 507.552C586.54 507.866 587.121 508.337 587.608 508.965C588.094 509.593 588.338 510.417 588.338 511.437C588.338 512.316 588.11 513.133 587.655 513.886C587.2 514.64 586.532 515.244 585.653 515.7C584.774 516.139 583.73 516.359 582.521 516.359Z" fill="#577FFB"/>
<path d="M603.512 503.148V516.194H600.192V514.546C599.768 515.111 599.21 515.558 598.52 515.888C597.845 516.202 597.107 516.359 596.306 516.359C595.286 516.359 594.383 516.147 593.598 515.723C592.813 515.284 592.193 514.648 591.738 513.816C591.298 512.968 591.078 511.963 591.078 510.801V503.148H594.375V510.33C594.375 511.367 594.634 512.167 595.152 512.732C595.67 513.282 596.377 513.557 597.272 513.557C598.182 513.557 598.896 513.282 599.414 512.732C599.933 512.167 600.192 511.367 600.192 510.33V503.148H603.512Z" fill="#577FFB"/>
<path d="M610.062 505.056C610.485 504.428 611.066 503.917 611.804 503.525C612.558 503.132 613.413 502.936 614.371 502.936C615.486 502.936 616.49 503.211 617.385 503.76C618.296 504.31 619.01 505.095 619.528 506.115C620.062 507.12 620.329 508.29 620.329 509.624C620.329 510.958 620.062 512.144 619.528 513.18C619.01 514.2 618.296 514.993 617.385 515.558C616.49 516.123 615.486 516.406 614.371 516.406C613.398 516.406 612.542 516.218 611.804 515.841C611.082 515.448 610.501 514.946 610.062 514.334V516.194H606.765V498.768H610.062V505.056ZM616.961 509.624C616.961 508.839 616.797 508.164 616.467 507.599C616.153 507.018 615.729 506.578 615.195 506.28C614.677 505.982 614.112 505.833 613.5 505.833C612.903 505.833 612.338 505.99 611.804 506.304C611.286 506.602 610.862 507.042 610.533 507.622C610.219 508.203 610.062 508.886 610.062 509.671C610.062 510.456 610.219 511.139 610.533 511.72C610.862 512.301 611.286 512.748 611.804 513.062C612.338 513.36 612.903 513.51 613.5 513.51C614.112 513.51 614.677 513.353 615.195 513.039C615.729 512.725 616.153 512.277 616.467 511.696C616.797 511.115 616.961 510.425 616.961 509.624Z" fill="#577FFB"/>
<path d="M627.717 516.406C626.649 516.406 625.692 516.218 624.844 515.841C623.996 515.448 623.321 514.922 622.819 514.263C622.332 513.604 622.065 512.874 622.018 512.073H625.338C625.401 512.575 625.645 512.991 626.068 513.321C626.508 513.651 627.05 513.816 627.693 513.816C628.321 513.816 628.808 513.69 629.153 513.439C629.514 513.188 629.695 512.866 629.695 512.473C629.695 512.05 629.475 511.736 629.036 511.531C628.612 511.312 627.929 511.076 626.987 510.825C626.014 510.59 625.213 510.346 624.585 510.095C623.973 509.844 623.439 509.459 622.984 508.941C622.544 508.423 622.324 507.724 622.324 506.845C622.324 506.123 622.528 505.464 622.937 504.867C623.36 504.271 623.957 503.8 624.726 503.454C625.511 503.109 626.43 502.936 627.481 502.936C629.036 502.936 630.276 503.329 631.202 504.114C632.128 504.883 632.639 505.927 632.733 507.246H629.577C629.53 506.728 629.31 506.319 628.918 506.021C628.541 505.707 628.031 505.55 627.387 505.55C626.791 505.55 626.328 505.66 625.998 505.88C625.684 506.1 625.527 506.406 625.527 506.798C625.527 507.238 625.747 507.575 626.186 507.811C626.626 508.031 627.309 508.258 628.235 508.494C629.177 508.729 629.954 508.973 630.566 509.224C631.179 509.475 631.704 509.867 632.144 510.401C632.599 510.919 632.835 511.61 632.851 512.473C632.851 513.227 632.639 513.902 632.215 514.499C631.807 515.095 631.21 515.566 630.425 515.912C629.656 516.241 628.753 516.406 627.717 516.406Z" fill="#577FFB"/>
<path d="M634.709 509.671C634.709 508.321 634.984 507.144 635.533 506.139C636.083 505.118 636.844 504.333 637.817 503.784C638.791 503.219 639.905 502.936 641.161 502.936C642.778 502.936 644.113 503.344 645.165 504.161C646.232 504.961 646.947 506.092 647.308 507.552H643.752C643.563 506.987 643.242 506.547 642.786 506.233C642.347 505.903 641.797 505.738 641.138 505.738C640.196 505.738 639.45 506.084 638.901 506.775C638.351 507.45 638.077 508.415 638.077 509.671C638.077 510.911 638.351 511.877 638.901 512.568C639.45 513.243 640.196 513.58 641.138 513.58C642.472 513.58 643.344 512.984 643.752 511.79H647.308C646.947 513.203 646.232 514.326 645.165 515.158C644.097 515.99 642.763 516.406 641.161 516.406C639.905 516.406 638.791 516.131 637.817 515.582C636.844 515.017 636.083 514.232 635.533 513.227C634.984 512.207 634.709 511.021 634.709 509.671Z" fill="#577FFB"/>
<path d="M653.02 505.173C653.444 504.483 653.993 503.941 654.668 503.548C655.359 503.156 656.144 502.96 657.023 502.96V506.421H656.152C655.116 506.421 654.331 506.665 653.797 507.151C653.279 507.638 653.02 508.486 653.02 509.695V516.194H649.723V503.148H653.02V505.173Z" fill="#577FFB"/>
<path d="M660.915 501.594C660.335 501.594 659.848 501.413 659.455 501.052C659.079 500.675 658.89 500.212 658.89 499.663C658.89 499.113 659.079 498.658 659.455 498.297C659.848 497.92 660.335 497.732 660.915 497.732C661.496 497.732 661.975 497.92 662.352 498.297C662.744 498.658 662.941 499.113 662.941 499.663C662.941 500.212 662.744 500.675 662.352 501.052C661.975 501.413 661.496 501.594 660.915 501.594ZM662.54 503.148V516.194H659.243V503.148H662.54Z" fill="#577FFB"/>
<path d="M669.094 505.032C669.518 504.435 670.099 503.941 670.837 503.548C671.591 503.14 672.446 502.936 673.404 502.936C674.518 502.936 675.523 503.211 676.418 503.76C677.329 504.31 678.043 505.095 678.561 506.115C679.095 507.12 679.362 508.29 679.362 509.624C679.362 510.958 679.095 512.144 678.561 513.18C678.043 514.2 677.329 514.993 676.418 515.558C675.523 516.123 674.518 516.406 673.404 516.406C672.446 516.406 671.598 516.21 670.861 515.817C670.138 515.425 669.55 514.93 669.094 514.334V522.411H665.798V503.148H669.094V505.032ZM675.994 509.624C675.994 508.839 675.829 508.164 675.5 507.599C675.186 507.018 674.762 506.578 674.228 506.28C673.71 505.982 673.145 505.833 672.533 505.833C671.936 505.833 671.371 505.99 670.837 506.304C670.319 506.602 669.895 507.042 669.565 507.622C669.251 508.203 669.094 508.886 669.094 509.671C669.094 510.456 669.251 511.139 669.565 511.72C669.895 512.301 670.319 512.748 670.837 513.062C671.371 513.36 671.936 513.51 672.533 513.51C673.145 513.51 673.71 513.353 674.228 513.039C674.762 512.725 675.186 512.277 675.5 511.696C675.829 511.115 675.994 510.425 675.994 509.624Z" fill="#577FFB"/>
<path d="M685.596 505.856V512.167C685.596 512.607 685.698 512.929 685.902 513.133C686.122 513.321 686.483 513.415 686.985 513.415H688.516V516.194H686.444C683.665 516.194 682.275 514.844 682.275 512.144V505.856H680.721V503.148H682.275V499.922H685.596V503.148H688.516V505.856H685.596Z" fill="#577FFB"/>
<path d="M692.559 501.594C691.978 501.594 691.492 501.413 691.099 501.052C690.722 500.675 690.534 500.212 690.534 499.663C690.534 499.113 690.722 498.658 691.099 498.297C691.492 497.92 691.978 497.732 692.559 497.732C693.14 497.732 693.619 497.92 693.996 498.297C694.388 498.658 694.584 499.113 694.584 499.663C694.584 500.212 694.388 500.675 693.996 501.052C693.619 501.413 693.14 501.594 692.559 501.594ZM694.184 503.148V516.194H690.887V503.148H694.184Z" fill="#577FFB"/>
<path d="M703.234 516.406C701.978 516.406 700.848 516.131 699.843 515.582C698.838 515.017 698.046 514.224 697.465 513.203C696.9 512.183 696.617 511.006 696.617 509.671C696.617 508.337 696.907 507.159 697.488 506.139C698.085 505.118 698.893 504.333 699.914 503.784C700.934 503.219 702.072 502.936 703.328 502.936C704.584 502.936 705.723 503.219 706.743 503.784C707.763 504.333 708.564 505.118 709.145 506.139C709.742 507.159 710.04 508.337 710.04 509.671C710.04 511.006 709.734 512.183 709.121 513.203C708.525 514.224 707.708 515.017 706.672 515.582C705.652 516.131 704.506 516.406 703.234 516.406ZM703.234 513.533C703.831 513.533 704.388 513.392 704.906 513.109C705.44 512.811 705.864 512.371 706.178 511.79C706.492 511.21 706.649 510.503 706.649 509.671C706.649 508.431 706.319 507.481 705.66 506.822C705.016 506.147 704.223 505.809 703.281 505.809C702.339 505.809 701.547 506.147 700.903 506.822C700.275 507.481 699.961 508.431 699.961 509.671C699.961 510.911 700.267 511.869 700.879 512.544C701.507 513.203 702.292 513.533 703.234 513.533Z" fill="#577FFB"/>
<path d="M719.688 502.96C721.242 502.96 722.498 503.454 723.455 504.443C724.413 505.417 724.892 506.782 724.892 508.541V516.194H721.595V508.988C721.595 507.952 721.336 507.159 720.818 506.61C720.3 506.045 719.593 505.762 718.699 505.762C717.788 505.762 717.066 506.045 716.532 506.61C716.014 507.159 715.755 507.952 715.755 508.988V516.194H712.458V503.148H715.755V504.773C716.195 504.208 716.752 503.768 717.427 503.454C718.118 503.125 718.871 502.96 719.688 502.96Z" fill="#577FFB"/>
<path d="M746.284 516.194L744.494 514.428C742.971 515.794 741.111 516.477 738.913 516.477C737.704 516.477 736.637 516.273 735.71 515.864C734.8 515.441 734.093 514.852 733.591 514.098C733.089 513.329 732.838 512.442 732.838 511.437C732.838 510.354 733.144 509.381 733.756 508.517C734.368 507.654 735.271 506.955 736.464 506.421C736.04 505.903 735.734 505.409 735.546 504.938C735.357 504.451 735.263 503.933 735.263 503.384C735.263 502.63 735.459 501.955 735.852 501.358C736.244 500.746 736.802 500.267 737.524 499.922C738.262 499.577 739.117 499.404 740.091 499.404C741.08 499.404 741.927 499.592 742.634 499.969C743.34 500.346 743.866 500.848 744.212 501.476C744.557 502.104 744.706 502.803 744.659 503.572H741.456C741.472 503.054 741.346 502.661 741.08 502.395C740.813 502.112 740.452 501.971 739.996 501.971C739.557 501.971 739.188 502.104 738.89 502.371C738.607 502.622 738.466 502.952 738.466 503.36C738.466 503.753 738.583 504.145 738.819 504.537C739.054 504.914 739.439 505.385 739.973 505.95L744.117 510.048C744.149 510.016 744.172 509.985 744.188 509.954C744.204 509.922 744.219 509.891 744.235 509.859L745.577 507.622H749.016L747.367 510.519C747.053 511.131 746.716 511.712 746.355 512.261L750.334 516.194H746.284ZM739.007 513.745C740.295 513.745 741.433 513.29 742.422 512.379L738.371 508.376C736.849 509.051 736.087 510.009 736.087 511.249C736.087 511.955 736.354 512.552 736.888 513.039C737.422 513.51 738.128 513.745 739.007 513.745Z" fill="#577FFB"/>
<path d="M760.875 505.056C761.299 504.428 761.879 503.917 762.617 503.525C763.371 503.132 764.227 502.936 765.184 502.936C766.299 502.936 767.304 503.211 768.198 503.76C769.109 504.31 769.823 505.095 770.341 506.115C770.875 507.12 771.142 508.29 771.142 509.624C771.142 510.958 770.875 512.144 770.341 513.18C769.823 514.2 769.109 514.993 768.198 515.558C767.304 516.123 766.299 516.406 765.184 516.406C764.211 516.406 763.355 516.218 762.617 515.841C761.895 515.448 761.314 514.946 760.875 514.334V516.194H757.578V498.768H760.875V505.056ZM767.775 509.624C767.775 508.839 767.61 508.164 767.28 507.599C766.966 507.018 766.542 506.578 766.008 506.28C765.49 505.982 764.925 505.833 764.313 505.833C763.716 505.833 763.151 505.99 762.617 506.304C762.099 506.602 761.675 507.042 761.346 507.622C761.032 508.203 760.875 508.886 760.875 509.671C760.875 510.456 761.032 511.139 761.346 511.72C761.675 512.301 762.099 512.748 762.617 513.062C763.151 513.36 763.716 513.51 764.313 513.51C764.925 513.51 765.49 513.353 766.008 513.039C766.542 512.725 766.966 512.277 767.28 511.696C767.61 511.115 767.775 510.425 767.775 509.624Z" fill="#577FFB"/>
<path d="M775.21 501.594C774.629 501.594 774.142 501.413 773.75 501.052C773.373 500.675 773.184 500.212 773.184 499.663C773.184 499.113 773.373 498.658 773.75 498.297C774.142 497.92 774.629 497.732 775.21 497.732C775.79 497.732 776.269 497.92 776.646 498.297C777.039 498.658 777.235 499.113 777.235 499.663C777.235 500.212 777.039 500.675 776.646 501.052C776.269 501.413 775.79 501.594 775.21 501.594ZM776.835 503.148V516.194H773.538V503.148H776.835Z" fill="#577FFB"/>
<path d="M783.389 498.768V516.194H780.092V498.768H783.389Z" fill="#577FFB"/>
<path d="M789.943 498.768V516.194H786.646V498.768H789.943Z" fill="#577FFB"/>
<path d="M794.872 501.594C794.291 501.594 793.804 501.413 793.412 501.052C793.035 500.675 792.847 500.212 792.847 499.663C792.847 499.113 793.035 498.658 793.412 498.297C793.804 497.92 794.291 497.732 794.872 497.732C795.453 497.732 795.932 497.92 796.308 498.297C796.701 498.658 796.897 499.113 796.897 499.663C796.897 500.212 796.701 500.675 796.308 501.052C795.932 501.413 795.453 501.594 794.872 501.594ZM796.497 503.148V516.194H793.2V503.148H796.497Z" fill="#577FFB"/>
<path d="M806.983 502.96C808.538 502.96 809.794 503.454 810.751 504.443C811.709 505.417 812.188 506.782 812.188 508.541V516.194H808.891V508.988C808.891 507.952 808.632 507.159 808.114 506.61C807.596 506.045 806.889 505.762 805.994 505.762C805.084 505.762 804.362 506.045 803.828 506.61C803.31 507.159 803.051 507.952 803.051 508.988V516.194H799.754V503.148H803.051V504.773C803.49 504.208 804.048 503.768 804.723 503.454C805.414 503.125 806.167 502.96 806.983 502.96Z" fill="#577FFB"/>
<path d="M820.433 502.936C821.406 502.936 822.262 503.132 823 503.525C823.738 503.902 824.318 504.396 824.742 505.008V503.148H828.063V516.288C828.063 517.497 827.819 518.573 827.333 519.514C826.846 520.472 826.116 521.226 825.143 521.775C824.169 522.34 822.992 522.623 821.61 522.623C819.758 522.623 818.235 522.191 817.042 521.328C815.864 520.464 815.197 519.287 815.04 517.795H818.314C818.486 518.392 818.855 518.863 819.42 519.208C820.001 519.569 820.7 519.75 821.516 519.75C822.474 519.75 823.251 519.46 823.848 518.879C824.444 518.313 824.742 517.45 824.742 516.288V514.263C824.318 514.875 823.73 515.386 822.976 515.794C822.238 516.202 821.391 516.406 820.433 516.406C819.334 516.406 818.329 516.123 817.419 515.558C816.508 514.993 815.786 514.2 815.252 513.18C814.734 512.144 814.475 510.958 814.475 509.624C814.475 508.305 814.734 507.136 815.252 506.115C815.786 505.095 816.5 504.31 817.395 503.76C818.306 503.211 819.318 502.936 820.433 502.936ZM824.742 509.671C824.742 508.87 824.585 508.188 824.271 507.622C823.957 507.042 823.534 506.602 823 506.304C822.466 505.99 821.893 505.833 821.281 505.833C820.668 505.833 820.103 505.982 819.585 506.28C819.067 506.578 818.643 507.018 818.314 507.599C818 508.164 817.843 508.839 817.843 509.624C817.843 510.409 818 511.1 818.314 511.696C818.643 512.277 819.067 512.725 819.585 513.039C820.119 513.353 820.684 513.51 821.281 513.51C821.893 513.51 822.466 513.36 823 513.062C823.534 512.748 823.957 512.309 824.271 511.743C824.585 511.163 824.742 510.472 824.742 509.671Z" fill="#577FFB"/>
<path d="M908.225 569.473V451.729H914.112V569.473H908.225Z" fill="#577FFB"/>
<path d="M590.482 648.267H587.185L579.72 636.987V648.267H576.424V631.807H579.72L587.185 643.11V631.807H590.482V648.267Z" fill="#85939C"/>
<path d="M605.868 641.462C605.868 641.933 605.836 642.356 605.774 642.733H596.236C596.315 643.675 596.644 644.413 597.225 644.947C597.806 645.481 598.521 645.747 599.368 645.747C600.593 645.747 601.464 645.222 601.982 644.17H605.538C605.161 645.426 604.439 646.462 603.372 647.278C602.304 648.079 600.993 648.479 599.439 648.479C598.183 648.479 597.053 648.204 596.048 647.655C595.059 647.09 594.282 646.297 593.717 645.277C593.167 644.256 592.892 643.079 592.892 641.744C592.892 640.394 593.167 639.209 593.717 638.188C594.266 637.168 595.035 636.383 596.024 635.833C597.013 635.284 598.152 635.009 599.439 635.009C600.679 635.009 601.786 635.276 602.759 635.81C603.748 636.344 604.51 637.105 605.044 638.094C605.593 639.068 605.868 640.19 605.868 641.462ZM602.453 640.52C602.437 639.672 602.131 638.997 601.535 638.495C600.938 637.976 600.208 637.717 599.345 637.717C598.528 637.717 597.838 637.969 597.272 638.471C596.723 638.958 596.385 639.641 596.26 640.52H602.453Z" fill="#85939C"/>
<path d="M626.36 635.221L622.545 648.267H618.989L616.61 639.154L614.232 648.267H610.653L606.814 635.221H610.158L612.466 645.159L614.962 635.221H618.447L620.896 645.135L623.204 635.221H626.36Z" fill="#85939C"/>
<path d="M633.136 648.479C632.068 648.479 631.11 648.291 630.263 647.914C629.415 647.522 628.74 646.996 628.238 646.336C627.751 645.677 627.484 644.947 627.437 644.146H630.757C630.82 644.649 631.063 645.065 631.487 645.394C631.927 645.724 632.468 645.889 633.112 645.889C633.74 645.889 634.227 645.763 634.572 645.512C634.933 645.261 635.114 644.939 635.114 644.547C635.114 644.123 634.894 643.809 634.454 643.605C634.031 643.385 633.348 643.149 632.406 642.898C631.432 642.663 630.632 642.419 630.004 642.168C629.391 641.917 628.858 641.532 628.402 641.014C627.963 640.496 627.743 639.798 627.743 638.918C627.743 638.196 627.947 637.537 628.355 636.94C628.779 636.344 629.376 635.873 630.145 635.527C630.93 635.182 631.848 635.009 632.9 635.009C634.454 635.009 635.695 635.402 636.621 636.187C637.547 636.956 638.057 638 638.152 639.319H634.996C634.949 638.801 634.729 638.392 634.337 638.094C633.96 637.78 633.45 637.623 632.806 637.623C632.209 637.623 631.746 637.733 631.417 637.953C631.103 638.173 630.946 638.479 630.946 638.871C630.946 639.311 631.165 639.648 631.605 639.884C632.045 640.104 632.728 640.331 633.654 640.567C634.596 640.802 635.373 641.046 635.985 641.297C636.597 641.548 637.123 641.94 637.563 642.474C638.018 642.992 638.254 643.683 638.269 644.547C638.269 645.3 638.057 645.975 637.633 646.572C637.225 647.168 636.629 647.639 635.844 647.985C635.075 648.314 634.172 648.479 633.136 648.479Z" fill="#85939C"/>
<path d="M644.272 630.841V648.267H640.976V630.841H644.272Z" fill="#85939C"/>
<path d="M659.657 641.462C659.657 641.933 659.626 642.356 659.563 642.733H650.026C650.104 643.675 650.434 644.413 651.015 644.947C651.596 645.481 652.31 645.747 653.158 645.747C654.382 645.747 655.254 645.222 655.772 644.17H659.328C658.951 645.426 658.229 646.462 657.161 647.278C656.094 648.079 654.783 648.479 653.228 648.479C651.973 648.479 650.842 648.204 649.837 647.655C648.848 647.09 648.071 646.297 647.506 645.277C646.957 644.256 646.682 643.079 646.682 641.744C646.682 640.394 646.957 639.209 647.506 638.188C648.056 637.168 648.825 636.383 649.814 635.833C650.803 635.284 651.941 635.009 653.228 635.009C654.469 635.009 655.575 635.276 656.549 635.81C657.538 636.344 658.299 637.105 658.833 638.094C659.383 639.068 659.657 640.19 659.657 641.462ZM656.243 640.52C656.227 639.672 655.921 638.997 655.324 638.495C654.728 637.976 653.998 637.717 653.134 637.717C652.318 637.717 651.627 637.969 651.062 638.471C650.513 638.958 650.175 639.641 650.049 640.52H656.243Z" fill="#85939C"/>
<path d="M665.902 637.929V644.24C665.902 644.68 666.004 645.002 666.208 645.206C666.428 645.394 666.789 645.488 667.291 645.488H668.822V648.267H666.75C663.971 648.267 662.582 646.917 662.582 644.217V637.929H661.028V635.221H662.582V631.995H665.902V635.221H668.822V637.929H665.902Z" fill="#85939C"/>
<path d="M675.032 637.929V644.24C675.032 644.68 675.134 645.002 675.338 645.206C675.558 645.394 675.919 645.488 676.421 645.488H677.952V648.267H675.88C673.101 648.267 671.711 646.917 671.711 644.217V637.929H670.157V635.221H671.711V631.995H675.032V635.221H677.952V637.929H675.032Z" fill="#85939C"/>
<path d="M692.451 641.462C692.451 641.933 692.419 642.356 692.357 642.733H682.819C682.898 643.675 683.227 644.413 683.808 644.947C684.389 645.481 685.104 645.747 685.951 645.747C687.176 645.747 688.047 645.222 688.565 644.17H692.121C691.744 645.426 691.022 646.462 689.955 647.278C688.887 648.079 687.576 648.479 686.022 648.479C684.766 648.479 683.636 648.204 682.631 647.655C681.642 647.09 680.865 646.297 680.3 645.277C679.75 644.256 679.475 643.079 679.475 641.744C679.475 640.394 679.75 639.209 680.3 638.188C680.849 637.168 681.618 636.383 682.607 635.833C683.596 635.284 684.735 635.009 686.022 635.009C687.262 635.009 688.369 635.276 689.342 635.81C690.331 636.344 691.093 637.105 691.627 638.094C692.176 639.068 692.451 640.19 692.451 641.462ZM689.036 640.52C689.02 639.672 688.714 638.997 688.118 638.495C687.521 637.976 686.791 637.717 685.928 637.717C685.111 637.717 684.421 637.969 683.855 638.471C683.306 638.958 682.968 639.641 682.843 640.52H689.036Z" fill="#85939C"/>
<path d="M698.154 637.246C698.578 636.556 699.127 636.014 699.802 635.622C700.493 635.229 701.278 635.033 702.157 635.033V638.495H701.286C700.25 638.495 699.465 638.738 698.931 639.224C698.413 639.711 698.154 640.559 698.154 641.768V648.267H694.857V635.221H698.154V637.246Z" fill="#85939C"/>
<path d="M722.635 648.267L720.845 646.501C719.322 647.867 717.462 648.55 715.264 648.55C714.055 648.55 712.988 648.346 712.061 647.938C711.151 647.514 710.444 646.925 709.942 646.171C709.44 645.402 709.188 644.515 709.188 643.51C709.188 642.427 709.494 641.454 710.107 640.59C710.719 639.727 711.622 639.028 712.815 638.495C712.391 637.976 712.085 637.482 711.896 637.011C711.708 636.524 711.614 636.006 711.614 635.457C711.614 634.703 711.81 634.028 712.203 633.432C712.595 632.819 713.152 632.34 713.875 631.995C714.612 631.65 715.468 631.477 716.441 631.477C717.43 631.477 718.278 631.665 718.985 632.042C719.691 632.419 720.217 632.921 720.562 633.549C720.908 634.177 721.057 634.876 721.01 635.645H717.807C717.823 635.127 717.697 634.735 717.43 634.468C717.164 634.185 716.802 634.044 716.347 634.044C715.908 634.044 715.539 634.177 715.24 634.444C714.958 634.695 714.816 635.025 714.816 635.433C714.816 635.826 714.934 636.218 715.17 636.611C715.405 636.987 715.79 637.458 716.324 638.023L720.468 642.121C720.5 642.09 720.523 642.058 720.539 642.027C720.555 641.995 720.57 641.964 720.586 641.933L721.928 639.695H725.366L723.718 642.592C723.404 643.204 723.066 643.785 722.705 644.335L726.685 648.267H722.635ZM715.358 645.818C716.645 645.818 717.784 645.363 718.773 644.452L714.722 640.449C713.199 641.124 712.438 642.082 712.438 643.322C712.438 644.028 712.705 644.625 713.239 645.112C713.773 645.583 714.479 645.818 715.358 645.818Z" fill="#85939C"/>
<path d="M733.081 641.697C733.081 640.378 733.34 639.209 733.858 638.188C734.392 637.168 735.106 636.383 736.001 635.833C736.912 635.284 737.924 635.009 739.039 635.009C740.012 635.009 740.86 635.206 741.582 635.598C742.32 635.991 742.909 636.485 743.348 637.082V635.221H746.669V648.267H743.348V646.36C742.924 646.972 742.336 647.482 741.582 647.89C740.844 648.283 739.989 648.479 739.015 648.479C737.916 648.479 736.912 648.197 736.001 647.631C735.106 647.066 734.392 646.273 733.858 645.253C733.34 644.217 733.081 643.032 733.081 641.697ZM743.348 641.744C743.348 640.944 743.191 640.261 742.877 639.695C742.563 639.115 742.139 638.675 741.606 638.377C741.072 638.063 740.499 637.906 739.887 637.906C739.274 637.906 738.709 638.055 738.191 638.353C737.673 638.651 737.249 639.091 736.919 639.672C736.605 640.237 736.448 640.912 736.448 641.697C736.448 642.482 736.605 643.173 736.919 643.769C737.249 644.35 737.673 644.798 738.191 645.112C738.725 645.426 739.29 645.583 739.887 645.583C740.499 645.583 741.072 645.434 741.606 645.135C742.139 644.821 742.563 644.382 742.877 643.817C743.191 643.236 743.348 642.545 743.348 641.744Z" fill="#85939C"/>
<path d="M753.185 630.841V648.267H749.888V630.841H753.185Z" fill="#85939C"/>
<path d="M768.57 641.462C768.57 641.933 768.539 642.356 768.476 642.733H758.939C759.017 643.675 759.347 644.413 759.928 644.947C760.509 645.481 761.223 645.747 762.071 645.747C763.295 645.747 764.167 645.222 764.685 644.17H768.24C767.864 645.426 767.142 646.462 766.074 647.278C765.007 648.079 763.696 648.479 762.141 648.479C760.885 648.479 759.755 648.204 758.75 647.655C757.761 647.09 756.984 646.297 756.419 645.277C755.87 644.256 755.595 643.079 755.595 641.744C755.595 640.394 755.87 639.209 756.419 638.188C756.969 637.168 757.738 636.383 758.727 635.833C759.716 635.284 760.854 635.009 762.141 635.009C763.382 635.009 764.488 635.276 765.462 635.81C766.451 636.344 767.212 637.105 767.746 638.094C768.295 639.068 768.57 640.19 768.57 641.462ZM765.156 640.52C765.14 639.672 764.834 638.997 764.237 638.495C763.641 637.976 762.911 637.717 762.047 637.717C761.231 637.717 760.54 637.969 759.975 638.471C759.425 638.958 759.088 639.641 758.962 640.52H765.156Z" fill="#85939C"/>
<path d="M774.273 637.246C774.697 636.556 775.247 636.014 775.922 635.622C776.613 635.229 777.398 635.033 778.277 635.033V638.495H777.405C776.369 638.495 775.584 638.738 775.05 639.224C774.532 639.711 774.273 640.559 774.273 641.768V648.267H770.977V635.221H774.273V637.246Z" fill="#85939C"/>
<path d="M784.336 637.929V644.24C784.336 644.68 784.438 645.002 784.642 645.206C784.862 645.394 785.223 645.488 785.725 645.488H787.256V648.267H785.183C782.405 648.267 781.015 646.917 781.015 644.217V637.929H779.461V635.221H781.015V631.995H784.336V635.221H787.256V637.929H784.336Z" fill="#85939C"/>
<path d="M794.619 648.479C793.552 648.479 792.594 648.291 791.746 647.914C790.899 647.522 790.224 646.996 789.721 646.336C789.235 645.677 788.968 644.947 788.921 644.146H792.241C792.304 644.649 792.547 645.065 792.971 645.394C793.41 645.724 793.952 645.889 794.596 645.889C795.224 645.889 795.71 645.763 796.056 645.512C796.417 645.261 796.597 644.939 796.597 644.547C796.597 644.123 796.378 643.809 795.938 643.605C795.514 643.385 794.831 643.149 793.889 642.898C792.916 642.663 792.115 642.419 791.487 642.168C790.875 641.917 790.341 641.532 789.886 641.014C789.446 640.496 789.227 639.798 789.227 638.918C789.227 638.196 789.431 637.537 789.839 636.94C790.263 636.344 790.859 635.873 791.629 635.527C792.414 635.182 793.332 635.009 794.384 635.009C795.938 635.009 797.178 635.402 798.105 636.187C799.031 636.956 799.541 638 799.635 639.319H796.48C796.433 638.801 796.213 638.392 795.82 638.094C795.444 637.78 794.933 637.623 794.29 637.623C793.693 637.623 793.23 637.733 792.9 637.953C792.586 638.173 792.429 638.479 792.429 638.871C792.429 639.311 792.649 639.648 793.089 639.884C793.528 640.104 794.211 640.331 795.137 640.567C796.079 640.802 796.856 641.046 797.469 641.297C798.081 641.548 798.607 641.94 799.046 642.474C799.502 642.992 799.737 643.683 799.753 644.547C799.753 645.3 799.541 645.975 799.117 646.572C798.709 647.168 798.112 647.639 797.327 647.985C796.558 648.314 795.655 648.479 794.619 648.479Z" fill="#85939C"/>
<path d="M908.225 698.991V581.247H911.169V698.991H908.225Z" fill="white"/>
<path fill-rule="evenodd" clip-rule="evenodd" d="M1036.11 269C1026.43 269 1018.58 282.452 1018.58 299.047V493.027C1018.58 509.621 1026.43 523.074 1036.11 523.074H2105.42C2115.11 523.074 2122.95 509.621 2122.95 493.027V299.047C2122.95 282.452 2115.11 269 2105.42 269H1036.11ZM1401.78 605.881C1401.78 587.924 1416.34 573.367 1434.29 573.367H1708.02C1725.98 573.367 1740.53 587.924 1740.53 605.881V901.183C1740.53 919.14 1725.98 933.696 1708.02 933.696H1434.29C1416.34 933.696 1401.78 919.14 1401.78 901.183V605.881ZM1019.36 605.881C1019.36 587.924 1033.92 573.367 1051.87 573.367H1325.6C1343.56 573.367 1358.11 587.924 1358.11 605.881V901.183C1358.11 919.14 1343.56 933.697 1325.6 933.697H1051.87C1033.92 933.697 1019.36 919.14 1019.36 901.183V605.881ZM1816.72 573.367C1798.76 573.367 1784.2 587.924 1784.2 605.881V901.183C1784.2 919.14 1798.76 933.696 1816.72 933.696H2090.44C2108.4 933.696 2122.96 919.14 2122.96 901.183V605.881C2122.96 587.924 2108.4 573.367 2090.44 573.367H1816.72ZM1019.36 1013.74C1019.36 995.787 1033.92 981.23 1051.87 981.23H1325.6C1343.55 981.23 1358.11 995.787 1358.11 1013.74V1102.36H1019.36V1013.74ZM1434.29 981.23C1416.34 981.23 1401.78 995.787 1401.78 1013.74V1102.36H1740.53V1013.74C1740.53 995.787 1725.98 981.23 1708.02 981.23H1434.29ZM1784.2 1013.74C1784.2 995.787 1798.76 981.23 1816.72 981.23H2090.44C2108.4 981.23 2122.96 995.787 2122.96 1013.74V1102.36H1784.2V1013.74Z" fill="#AEBFFF"/>
<path fill-rule="evenodd" clip-rule="evenodd" d="M546.986 367.365C538.862 367.365 532.268 373.959 532.268 382.083C532.268 390.208 538.862 396.801 546.986 396.801C555.11 396.801 561.704 390.208 561.704 382.083C561.704 373.959 555.11 367.365 546.986 367.365ZM539.731 391.326C540.364 390.002 544.22 388.707 546.987 388.707C549.754 388.707 553.625 390.002 554.243 391.326C552.241 392.916 549.724 393.858 546.987 393.858C544.249 393.858 541.733 392.916 539.731 391.326ZM546.986 385.763C549.135 385.763 554.242 386.631 556.347 389.192C557.848 387.22 558.761 384.762 558.761 382.083C558.761 375.593 553.477 370.309 546.986 370.309C540.496 370.309 535.212 375.593 535.212 382.083C535.212 384.762 536.125 387.22 537.626 389.192C539.73 386.631 544.838 385.763 546.986 385.763ZM546.986 373.253C544.131 373.253 541.835 375.549 541.835 378.404C541.835 381.259 544.131 383.555 546.986 383.555C549.842 383.555 552.138 381.259 552.138 378.404C552.138 375.549 549.842 373.253 546.986 373.253ZM544.779 378.404C544.779 379.626 545.765 380.612 546.986 380.612C548.208 380.612 549.194 379.626 549.194 378.404C549.194 377.182 548.208 376.196 546.986 376.196C545.765 376.196 544.779 377.182 544.779 378.404Z" fill="#85939C"/>
<path fill-rule="evenodd" clip-rule="evenodd" d="M557.762 628.345H534.213C532.594 628.345 531.284 629.669 531.284 631.288L531.27 648.95C531.27 650.569 532.594 651.893 534.213 651.893H557.762C559.381 651.893 560.706 650.569 560.706 648.95V631.288C560.706 629.669 559.381 628.345 557.762 628.345ZM534.213 634.232L545.988 641.591L557.762 634.232V648.95H534.213V634.232ZM534.213 631.289L545.988 638.648L557.762 631.289H534.213Z" fill="#85939C"/>
<path fill-rule="evenodd" clip-rule="evenodd" d="M557.761 496.826H534.212C532.578 496.826 531.283 498.136 531.283 499.77L531.268 517.431C531.268 519.065 532.578 520.375 534.212 520.375H557.761C559.394 520.375 560.704 519.065 560.704 517.431V499.77C560.704 498.136 559.394 496.826 557.761 496.826ZM557.761 517.432H534.212V508.601H557.761V517.432ZM534.212 502.714H557.761V499.77H534.212V502.714Z" fill="#577FFB"/>
</g>
<defs>
<clipPath id="clip0_973_180837">
<rect width="1490" height="838" fill="white"/>
</clipPath>
</defs>
</svg>
