<svg id="components-audio-player-layout-examples-inline-player" style="width: 100%; height: 100%" width="1490" height="838" viewBox="0 0 1490 838" fill="none" xmlns="http://www.w3.org/2000/svg" class="css-0"><rect style="fill:var(--color-illustrationBackground010)" width="1490" height="838"></rect><path style="fill:var(--color-illustrationHighlight010)" d="M231.828 309.558L226.505 300.156H224.224V309.558H219.385V285.432H228.441C230.307 285.432 231.897 285.766 233.211 286.434C234.524 287.079 235.503 287.966 236.149 289.096C236.817 290.202 237.151 291.446 237.151 292.829C237.151 294.418 236.69 295.859 235.768 297.149C234.847 298.416 233.476 299.292 231.655 299.776L237.427 309.558H231.828ZM224.224 296.527H228.268C229.581 296.527 230.561 296.216 231.206 295.594C231.851 294.948 232.174 294.061 232.174 292.932C232.174 291.826 231.851 290.974 231.206 290.374C230.561 289.752 229.581 289.441 228.268 289.441H224.224V296.527ZM259.328 299.569C259.328 300.26 259.282 300.882 259.19 301.435H245.191C245.307 302.818 245.791 303.901 246.643 304.684C247.496 305.468 248.544 305.859 249.789 305.859C251.586 305.859 252.865 305.087 253.625 303.543H258.844C258.291 305.387 257.231 306.908 255.664 308.106C254.098 309.281 252.173 309.869 249.892 309.869C248.049 309.869 246.39 309.465 244.915 308.659C243.463 307.829 242.323 306.666 241.493 305.168C240.687 303.67 240.283 301.942 240.283 299.983C240.283 298.002 240.687 296.262 241.493 294.764C242.3 293.266 243.429 292.114 244.88 291.308C246.332 290.501 248.003 290.098 249.892 290.098C251.713 290.098 253.337 290.49 254.766 291.273C256.217 292.057 257.335 293.174 258.119 294.626C258.925 296.055 259.328 297.702 259.328 299.569ZM254.316 298.186C254.293 296.942 253.844 295.951 252.968 295.213C252.093 294.453 251.021 294.073 249.754 294.073C248.556 294.073 247.542 294.442 246.712 295.179C245.906 295.893 245.41 296.896 245.226 298.186H254.316ZM261.616 299.983C261.616 298.002 262.019 296.273 262.826 294.799C263.632 293.301 264.75 292.149 266.178 291.342C267.607 290.513 269.243 290.098 271.087 290.098C273.46 290.098 275.419 290.697 276.962 291.895C278.529 293.07 279.578 294.73 280.108 296.873H274.889C274.612 296.043 274.14 295.398 273.472 294.937C272.826 294.453 272.02 294.211 271.052 294.211C269.669 294.211 268.575 294.718 267.768 295.732C266.962 296.723 266.559 298.14 266.559 299.983C266.559 301.804 266.962 303.221 267.768 304.235C268.575 305.226 269.669 305.721 271.052 305.721C273.011 305.721 274.29 304.845 274.889 303.094H280.108C279.578 305.168 278.529 306.816 276.962 308.037C275.396 309.258 273.437 309.869 271.087 309.869C269.243 309.869 267.607 309.465 266.178 308.659C264.75 307.829 263.632 306.677 262.826 305.203C262.019 303.705 261.616 301.965 261.616 299.983ZM292.156 309.869C290.312 309.869 288.653 309.465 287.178 308.659C285.704 307.829 284.54 306.666 283.687 305.168C282.858 303.67 282.443 301.942 282.443 299.983C282.443 298.025 282.869 296.296 283.722 294.799C284.598 293.301 285.784 292.149 287.282 291.342C288.78 290.513 290.45 290.098 292.294 290.098C294.137 290.098 295.808 290.513 297.306 291.342C298.804 292.149 299.979 293.301 300.831 294.799C301.707 296.296 302.145 298.025 302.145 299.983C302.145 301.942 301.695 303.67 300.797 305.168C299.921 306.666 298.723 307.829 297.202 308.659C295.704 309.465 294.022 309.869 292.156 309.869ZM292.156 305.652C293.031 305.652 293.849 305.444 294.61 305.03C295.393 304.592 296.015 303.947 296.476 303.094C296.937 302.242 297.167 301.205 297.167 299.983C297.167 298.163 296.684 296.769 295.716 295.801C294.771 294.81 293.607 294.315 292.225 294.315C290.842 294.315 289.679 294.81 288.734 295.801C287.812 296.769 287.351 298.163 287.351 299.983C287.351 301.804 287.801 303.209 288.699 304.2C289.621 305.168 290.773 305.652 292.156 305.652ZM310.533 293.382C311.155 292.368 311.962 291.573 312.953 290.997C313.967 290.421 315.119 290.133 316.409 290.133V295.213H315.13C313.61 295.213 312.457 295.571 311.674 296.285C310.914 296.999 310.533 298.244 310.533 300.018V309.558H305.694V290.409H310.533V293.382ZM318.424 299.914C318.424 297.979 318.804 296.262 319.565 294.764C320.348 293.266 321.408 292.114 322.745 291.308C324.081 290.501 325.567 290.098 327.204 290.098C328.448 290.098 329.635 290.374 330.764 290.927C331.893 291.457 332.791 292.172 333.46 293.07V283.98H338.368V309.558H333.46V306.723C332.861 307.668 332.019 308.429 330.936 309.005C329.853 309.581 328.598 309.869 327.169 309.869C325.556 309.869 324.081 309.454 322.745 308.624C321.408 307.795 320.348 306.631 319.565 305.133C318.804 303.613 318.424 301.873 318.424 299.914ZM333.494 299.983C333.494 298.808 333.264 297.806 332.803 296.976C332.342 296.124 331.72 295.478 330.936 295.041C330.153 294.58 329.312 294.349 328.413 294.349C327.515 294.349 326.685 294.568 325.925 295.006C325.164 295.444 324.542 296.089 324.058 296.942C323.597 297.771 323.367 298.762 323.367 299.914C323.367 301.066 323.597 302.08 324.058 302.956C324.542 303.808 325.164 304.465 325.925 304.926C326.708 305.387 327.538 305.617 328.413 305.617C329.312 305.617 330.153 305.398 330.936 304.961C331.72 304.5 332.342 303.855 332.803 303.025C333.264 302.172 333.494 301.159 333.494 299.983ZM360.895 299.569C360.895 300.26 360.848 300.882 360.756 301.435H346.758C346.873 302.818 347.357 303.901 348.209 304.684C349.062 305.468 350.11 305.859 351.355 305.859C353.152 305.859 354.431 305.087 355.191 303.543H360.411C359.858 305.387 358.798 306.908 357.231 308.106C355.664 309.281 353.74 309.869 351.458 309.869C349.615 309.869 347.956 309.465 346.481 308.659C345.03 307.829 343.889 306.666 343.059 305.168C342.253 303.67 341.85 301.942 341.85 299.983C341.85 298.002 342.253 296.262 343.059 294.764C343.866 293.266 344.995 292.114 346.447 291.308C347.898 290.501 349.569 290.098 351.458 290.098C353.279 290.098 354.903 290.49 356.332 291.273C357.784 292.057 358.901 293.174 359.685 294.626C360.491 296.055 360.895 297.702 360.895 299.569ZM355.883 298.186C355.86 296.942 355.41 295.951 354.535 295.213C353.659 294.453 352.588 294.073 351.32 294.073C350.122 294.073 349.108 294.442 348.279 295.179C347.472 295.893 346.977 296.896 346.792 298.186H355.883ZM363.182 299.914C363.182 297.979 363.562 296.262 364.323 294.764C365.106 293.266 366.166 292.114 367.503 291.308C368.839 290.501 370.326 290.098 371.962 290.098C373.206 290.098 374.393 290.374 375.522 290.927C376.651 291.457 377.549 292.172 378.218 293.07V283.98H383.126V309.558H378.218V306.723C377.619 307.668 376.778 308.429 375.694 309.005C374.611 309.581 373.356 309.869 371.927 309.869C370.314 309.869 368.839 309.454 367.503 308.624C366.166 307.795 365.106 306.631 364.323 305.133C363.562 303.613 363.182 301.873 363.182 299.914ZM378.252 299.983C378.252 298.808 378.022 297.806 377.561 296.976C377.1 296.124 376.478 295.478 375.694 295.041C374.911 294.58 374.07 294.349 373.171 294.349C372.273 294.349 371.443 294.568 370.683 295.006C369.922 295.444 369.3 296.089 368.816 296.942C368.355 297.771 368.125 298.762 368.125 299.914C368.125 301.066 368.355 302.08 368.816 302.956C369.3 303.808 369.922 304.465 370.683 304.926C371.466 305.387 372.296 305.617 373.171 305.617C374.07 305.617 374.911 305.398 375.694 304.961C376.478 304.5 377.1 303.855 377.561 303.025C378.022 302.172 378.252 301.159 378.252 299.983Z"></path><path style="fill:var(--color-illustrationHighlight010)" d="M224.224 548.046H232.174V551.883H219.385V527.757H224.224V548.046ZM237.703 530.453C236.851 530.453 236.137 530.188 235.56 529.658C235.007 529.105 234.731 528.425 234.731 527.619C234.731 526.812 235.007 526.144 235.56 525.614C236.137 525.061 236.851 524.784 237.703 524.784C238.556 524.784 239.259 525.061 239.812 525.614C240.388 526.144 240.676 526.812 240.676 527.619C240.676 528.425 240.388 529.105 239.812 529.658C239.259 530.188 238.556 530.453 237.703 530.453ZM240.088 532.734V551.883H235.249V532.734H240.088ZM252.854 547.424L257.693 532.734H262.843L255.757 551.883H249.881L242.83 532.734H248.015L252.854 547.424ZM283.361 541.894C283.361 542.585 283.315 543.207 283.223 543.76H269.224C269.34 545.143 269.824 546.226 270.676 547.009C271.529 547.793 272.577 548.184 273.821 548.184C275.619 548.184 276.898 547.413 277.658 545.869H282.877C282.324 547.712 281.264 549.233 279.697 550.431C278.13 551.606 276.206 552.194 273.925 552.194C272.082 552.194 270.423 551.791 268.948 550.984C267.496 550.155 266.356 548.991 265.526 547.493C264.72 545.995 264.316 544.267 264.316 542.309C264.316 540.327 264.72 538.587 265.526 537.089C266.333 535.592 267.462 534.439 268.913 533.633C270.365 532.826 272.036 532.423 273.925 532.423C275.746 532.423 277.37 532.815 278.799 533.598C280.25 534.382 281.368 535.499 282.151 536.951C282.958 538.38 283.361 540.027 283.361 541.894ZM278.349 540.511C278.326 539.267 277.877 538.276 277.001 537.539C276.126 536.778 275.054 536.398 273.787 536.398C272.589 536.398 271.575 536.767 270.745 537.504C269.939 538.218 269.443 539.221 269.259 540.511H278.349Z"></path><g filter="url(#nk-1088)"><rect style="fill:var(--color-interfaceBackground)" width="787.667" height="68" transform="translate(494 264)"></rect><path style="fill:var(--color-illustrationPalette040)" d="M516.667 298C516.667 285.482 526.815 275.333 539.333 275.333V275.333C551.852 275.333 562 285.482 562 298V298C562 310.519 551.852 320.667 539.333 320.667V320.667C526.815 320.667 516.667 310.519 516.667 298V298Z"></path><mask id="nk-1078" mask-type="alpha" maskUnits="userSpaceOnUse" x="528" y="286" width="23" height="24"><path d="M535.555 291.389V304.611L545.944 298L535.555 291.389Z" fill="#0A0A0A"></path></mask><g mask="url(#nk-1078)"><rect style="fill:var(--color-inkInverse)" x="528" y="286.667" width="22.6667" height="22.6667"></rect></g><mask id="nk-1079" mask-type="alpha" maskUnits="userSpaceOnUse" x="596" y="286" width="23" height="24"><path fill-rule="evenodd" clip-rule="evenodd" d="M600.722 300.833V295.167H604.5L609.222 290.444V305.555L604.5 300.833H600.722ZM611.111 294.193C612.509 294.892 613.472 296.328 613.472 298C613.472 299.671 612.509 301.107 611.111 301.796V294.193Z" fill="#0A0A0A"></path></mask><g mask="url(#nk-1079)"><rect style="fill:var(--color-illustrationPalette040)" x="596" y="286.667" width="22.6667" height="22.6667"></rect></g><path style="fill:var(--color-illustrationHighlight010)" d="M654.027 296.899C654.027 294.285 654.465 292.245 655.341 290.779C656.233 289.298 657.759 288.558 659.92 288.558C662.081 288.558 663.6 289.298 664.476 290.779C665.368 292.245 665.813 294.285 665.813 296.899C665.813 299.544 665.368 301.614 664.476 303.11C663.6 304.591 662.081 305.331 659.92 305.331C657.759 305.331 656.233 304.591 655.341 303.11C654.465 301.614 654.027 299.544 654.027 296.899ZM663.275 296.899C663.275 295.675 663.192 294.64 663.025 293.794C662.874 292.948 662.557 292.26 662.073 291.731C661.59 291.187 660.872 290.915 659.92 290.915C658.968 290.915 658.25 291.187 657.767 291.731C657.283 292.26 656.958 292.948 656.792 293.794C656.641 294.64 656.565 295.675 656.565 296.899C656.565 298.168 656.641 299.234 656.792 300.095C656.943 300.956 657.261 301.652 657.744 302.18C658.243 302.709 658.968 302.974 659.92 302.974C660.872 302.974 661.59 302.709 662.073 302.18C662.572 301.652 662.897 300.956 663.048 300.095C663.199 299.234 663.275 298.168 663.275 296.899ZM668.548 296.899C668.548 294.285 668.986 292.245 669.862 290.779C670.754 289.298 672.28 288.558 674.441 288.558C676.602 288.558 678.12 289.298 678.997 290.779C679.888 292.245 680.334 294.285 680.334 296.899C680.334 299.544 679.888 301.614 678.997 303.11C678.12 304.591 676.602 305.331 674.441 305.331C672.28 305.331 670.754 304.591 669.862 303.11C668.986 301.614 668.548 299.544 668.548 296.899ZM677.796 296.899C677.796 295.675 677.712 294.64 677.546 293.794C677.395 292.948 677.078 292.26 676.594 291.731C676.111 291.187 675.393 290.915 674.441 290.915C673.489 290.915 672.771 291.187 672.288 291.731C671.804 292.26 671.479 292.948 671.313 293.794C671.162 294.64 671.086 295.675 671.086 296.899C671.086 298.168 671.162 299.234 671.313 300.095C671.464 300.956 671.781 301.652 672.265 302.18C672.764 302.709 673.489 302.974 674.441 302.974C675.393 302.974 676.111 302.709 676.594 302.18C677.093 301.652 677.418 300.956 677.569 300.095C677.72 299.234 677.796 298.168 677.796 296.899ZM684.451 305.535C683.983 305.535 683.59 305.376 683.272 305.059C682.955 304.742 682.796 304.349 682.796 303.88C682.796 303.412 682.955 303.019 683.272 302.702C683.59 302.384 683.983 302.226 684.451 302.226C684.904 302.226 685.29 302.384 685.607 302.702C685.924 303.019 686.083 303.412 686.083 303.88C686.083 304.349 685.924 304.742 685.607 305.059C685.29 305.376 684.904 305.535 684.451 305.535ZM684.451 296.015C683.983 296.015 683.59 295.856 683.272 295.539C682.955 295.222 682.796 294.829 682.796 294.36C682.796 293.892 682.955 293.499 683.272 293.182C683.59 292.864 683.983 292.706 684.451 292.706C684.904 292.706 685.29 292.864 685.607 293.182C685.924 293.499 686.083 293.892 686.083 294.36C686.083 294.829 685.924 295.222 685.607 295.539C685.29 295.856 684.904 296.015 684.451 296.015ZM688.579 292.932C688.67 291.527 689.206 290.432 690.188 289.646C691.186 288.86 692.455 288.467 693.996 288.467C695.054 288.467 695.968 288.656 696.739 289.034C697.51 289.412 698.092 289.925 698.484 290.575C698.877 291.225 699.074 291.958 699.074 292.774C699.074 293.711 698.824 294.512 698.326 295.176C697.827 295.841 697.23 296.287 696.535 296.514V296.604C697.427 296.876 698.122 297.375 698.62 298.1C699.119 298.811 699.368 299.725 699.368 300.843C699.368 301.735 699.164 302.528 698.756 303.223C698.348 303.918 697.744 304.47 696.943 304.878C696.142 305.271 695.183 305.467 694.064 305.467C692.432 305.467 691.088 305.052 690.03 304.22C688.987 303.374 688.428 302.165 688.352 300.594H690.846C690.906 301.395 691.216 302.052 691.775 302.566C692.334 303.064 693.09 303.314 694.042 303.314C694.964 303.314 695.674 303.064 696.172 302.566C696.671 302.052 696.92 301.395 696.92 300.594C696.92 299.536 696.58 298.788 695.9 298.35C695.236 297.896 694.208 297.67 692.818 297.67H692.228V295.539H692.84C694.064 295.524 694.994 295.32 695.628 294.927C696.278 294.534 696.603 293.915 696.603 293.068C696.603 292.343 696.369 291.769 695.9 291.346C695.432 290.908 694.767 290.688 693.906 290.688C693.06 290.688 692.402 290.908 691.934 291.346C691.465 291.769 691.186 292.298 691.095 292.932H688.579ZM702.083 296.899C702.083 294.285 702.521 292.245 703.397 290.779C704.289 289.298 705.815 288.558 707.976 288.558C710.137 288.558 711.656 289.298 712.532 290.779C713.424 292.245 713.869 294.285 713.869 296.899C713.869 299.544 713.424 301.614 712.532 303.11C711.656 304.591 710.137 305.331 707.976 305.331C705.815 305.331 704.289 304.591 703.397 303.11C702.521 301.614 702.083 299.544 702.083 296.899ZM711.331 296.899C711.331 295.675 711.248 294.64 711.081 293.794C710.93 292.948 710.613 292.26 710.129 291.731C709.646 291.187 708.928 290.915 707.976 290.915C707.024 290.915 706.306 291.187 705.823 291.731C705.339 292.26 705.014 292.948 704.848 293.794C704.697 294.64 704.621 295.675 704.621 296.899C704.621 298.168 704.697 299.234 704.848 300.095C704.999 300.956 705.317 301.652 705.8 302.18C706.299 302.709 707.024 302.974 707.976 302.974C708.928 302.974 709.646 302.709 710.129 302.18C710.628 301.652 710.953 300.956 711.104 300.095C711.255 299.234 711.331 298.168 711.331 296.899Z"></path><g clip-path="url(#nk-1084)"><rect style="fill:var(--color-illustrationInterface020)" x="738.333" y="292.333" width="371.5" height="11.3333"></rect></g><g clip-path="url(#nk-1085)"><rect style="fill:var(--color-illustrationPalette040)" x="738.333" y="292.333" width="186" height="11.3333"></rect></g><path style="fill:var(--color-illustrationPalette040)" d="M912.75 298C912.75 291.741 917.824 286.667 924.083 286.667V286.667C930.343 286.667 935.417 291.741 935.417 298V298C935.417 304.259 930.343 309.333 924.083 309.333V309.333C917.824 309.333 912.75 304.259 912.75 298V298Z"></path><path style="fill:var(--color-white)" d="M924.083 307.917C918.607 307.917 914.167 303.477 914.167 298H911.333C911.333 305.041 917.042 310.75 924.083 310.75V307.917ZM934 298C934 303.477 929.56 307.917 924.083 307.917V310.75C931.125 310.75 936.833 305.041 936.833 298H934ZM924.083 288.083C929.56 288.083 934 292.523 934 298H936.833C936.833 290.958 931.125 285.25 924.083 285.25V288.083ZM924.083 285.25C917.042 285.25 911.333 290.958 911.333 298H914.167C914.167 292.523 918.607 288.083 924.083 288.083V285.25Z"></path><path style="fill:var(--color-illustrationHighlight010)" d="M1135.32 296.9C1135.32 294.285 1135.76 292.245 1136.63 290.78C1137.52 289.299 1139.05 288.558 1141.21 288.558C1143.37 288.558 1144.89 289.299 1145.77 290.78C1146.66 292.245 1147.1 294.285 1147.1 296.9C1147.1 299.544 1146.66 301.614 1145.77 303.11C1144.89 304.591 1143.37 305.332 1141.21 305.332C1139.05 305.332 1137.52 304.591 1136.63 303.11C1135.76 301.614 1135.32 299.544 1135.32 296.9ZM1144.57 296.9C1144.57 295.676 1144.48 294.641 1144.32 293.794C1144.16 292.948 1143.85 292.261 1143.36 291.732C1142.88 291.188 1142.16 290.916 1141.21 290.916C1140.26 290.916 1139.54 291.188 1139.06 291.732C1138.57 292.261 1138.25 292.948 1138.08 293.794C1137.93 294.641 1137.86 295.676 1137.86 296.9C1137.86 298.169 1137.93 299.234 1138.08 300.096C1138.23 300.957 1138.55 301.652 1139.03 302.181C1139.53 302.71 1140.26 302.974 1141.21 302.974C1142.16 302.974 1142.88 302.71 1143.36 302.181C1143.86 301.652 1144.19 300.957 1144.34 300.096C1144.49 299.234 1144.57 298.169 1144.57 296.9ZM1149.5 291.21V288.853H1154.21V305.377H1151.61V291.21H1149.5ZM1159.15 305.536C1158.68 305.536 1158.28 305.377 1157.97 305.06C1157.65 304.742 1157.49 304.349 1157.49 303.881C1157.49 303.413 1157.65 303.02 1157.97 302.702C1158.28 302.385 1158.68 302.226 1159.15 302.226C1159.6 302.226 1159.98 302.385 1160.3 302.702C1160.62 303.02 1160.78 303.413 1160.78 303.881C1160.78 304.349 1160.62 304.742 1160.3 305.06C1159.98 305.377 1159.6 305.536 1159.15 305.536ZM1159.15 296.016C1158.68 296.016 1158.28 295.857 1157.97 295.54C1157.65 295.222 1157.49 294.829 1157.49 294.361C1157.49 293.893 1157.65 293.5 1157.97 293.182C1158.28 292.865 1158.68 292.706 1159.15 292.706C1159.6 292.706 1159.98 292.865 1160.3 293.182C1160.62 293.5 1160.78 293.893 1160.78 294.361C1160.78 294.829 1160.62 295.222 1160.3 295.54C1159.98 295.857 1159.6 296.016 1159.15 296.016ZM1163.32 296.9C1163.32 294.285 1163.76 292.245 1164.63 290.78C1165.52 289.299 1167.05 288.558 1169.21 288.558C1171.37 288.558 1172.89 289.299 1173.77 290.78C1174.66 292.245 1175.1 294.285 1175.1 296.9C1175.1 299.544 1174.66 301.614 1173.77 303.11C1172.89 304.591 1171.37 305.332 1169.21 305.332C1167.05 305.332 1165.52 304.591 1164.63 303.11C1163.76 301.614 1163.32 299.544 1163.32 296.9ZM1172.57 296.9C1172.57 295.676 1172.48 294.641 1172.32 293.794C1172.17 292.948 1171.85 292.261 1171.36 291.732C1170.88 291.188 1170.16 290.916 1169.21 290.916C1168.26 290.916 1167.54 291.188 1167.06 291.732C1166.57 292.261 1166.25 292.948 1166.08 293.794C1165.93 294.641 1165.86 295.676 1165.86 296.9C1165.86 298.169 1165.93 299.234 1166.08 300.096C1166.23 300.957 1166.55 301.652 1167.04 302.181C1167.53 302.71 1168.26 302.974 1169.21 302.974C1170.16 302.974 1170.88 302.71 1171.36 302.181C1171.86 301.652 1172.19 300.957 1172.34 300.096C1172.49 299.234 1172.57 298.169 1172.57 296.9ZM1177.84 296.9C1177.84 294.285 1178.28 292.245 1179.15 290.78C1180.05 289.299 1181.57 288.558 1183.73 288.558C1185.89 288.558 1187.41 289.299 1188.29 290.78C1189.18 292.245 1189.63 294.285 1189.63 296.9C1189.63 299.544 1189.18 301.614 1188.29 303.11C1187.41 304.591 1185.89 305.332 1183.73 305.332C1181.57 305.332 1180.05 304.591 1179.15 303.11C1178.28 301.614 1177.84 299.544 1177.84 296.9ZM1187.09 296.9C1187.09 295.676 1187 294.641 1186.84 293.794C1186.69 292.948 1186.37 292.261 1185.89 291.732C1185.4 291.188 1184.68 290.916 1183.73 290.916C1182.78 290.916 1182.06 291.188 1181.58 291.732C1181.1 292.261 1180.77 292.948 1180.6 293.794C1180.45 294.641 1180.38 295.676 1180.38 296.9C1180.38 298.169 1180.45 299.234 1180.6 300.096C1180.76 300.957 1181.07 301.652 1181.56 302.181C1182.06 302.71 1182.78 302.974 1183.73 302.974C1184.68 302.974 1185.4 302.71 1185.89 302.181C1186.38 301.652 1186.71 300.957 1186.86 300.096C1187.01 299.234 1187.09 298.169 1187.09 296.9Z"></path><mask id="nk-1080" mask-type="alpha" maskUnits="userSpaceOnUse" x="1225" y="286" width="23" height="24"><path fill-rule="evenodd" clip-rule="evenodd" d="M1235.39 288.603V290.511C1234.01 290.681 1232.75 291.229 1231.71 292.041L1230.36 290.69C1231.76 289.547 1233.49 288.792 1235.39 288.603ZM1237.33 295.913L1234.44 293.75V302.25L1237.33 300.087L1240.11 298L1237.33 295.913ZM1230.37 293.372L1229.02 292.031C1227.88 293.429 1227.13 295.157 1226.94 297.056H1228.84C1229.01 295.677 1229.56 294.421 1230.37 293.372ZM1226.94 298.944H1228.84C1229.01 300.323 1229.56 301.579 1230.37 302.618L1229.02 303.969C1227.88 302.571 1227.13 300.843 1226.94 298.944ZM1230.36 305.31C1231.76 306.453 1233.5 307.208 1235.39 307.397V305.489C1234.01 305.319 1232.75 304.772 1231.71 303.959L1230.36 305.31ZM1237.33 307.397C1242.08 306.897 1245.78 302.874 1245.78 298C1245.78 293.127 1242.08 289.104 1237.33 288.603V290.511C1241.03 291.002 1243.89 294.175 1243.89 298C1243.89 301.825 1241.03 304.999 1237.33 305.49V307.397Z" fill="#0A0A0A"></path></mask><g mask="url(#nk-1080)"><rect style="fill:var(--color-illustrationPalette040)" x="1225" y="286.667" width="22.6667" height="22.6667"></rect></g></g><g filter="url(#nk-1089)"><rect style="fill:var(--color-interfaceBackground)" width="788" height="67.9995" transform="translate(494 506)"></rect><path style="fill:var(--color-illustrationPalette040)" d="M516.667 540C516.667 527.482 526.815 517.333 539.333 517.333V517.333C551.851 517.333 562 527.482 562 540V540C562 552.518 551.851 562.667 539.333 562.667V562.667C526.815 562.667 516.667 552.518 516.667 540V540Z"></path><mask id="nk-1081" mask-type="alpha" maskUnits="userSpaceOnUse" x="527" y="528" width="24" height="24"><path d="M535.555 533.389V546.611L545.944 540L535.555 533.389Z" fill="#0A0A0A"></path></mask><g mask="url(#nk-1081)"><rect style="fill:var(--color-inkInverse)" x="528" y="528.667" width="22.6665" height="22.6665"></rect></g><mask id="nk-1082" mask-type="alpha" maskUnits="userSpaceOnUse" x="595" y="528" width="24" height="24"><path fill-rule="evenodd" clip-rule="evenodd" d="M600.721 542.833V537.166H604.499L609.221 532.444V547.555L604.499 542.833H600.721ZM611.11 536.193C612.508 536.892 613.471 538.328 613.471 539.999C613.471 541.671 612.508 543.106 611.11 543.796V536.193Z" fill="#0A0A0A"></path></mask><g mask="url(#nk-1082)"><rect style="fill:var(--color-illustrationPalette040)" x="595.999" y="528.667" width="22.6665" height="22.6665"></rect></g><g clip-path="url(#nk-1086)"><rect style="fill:var(--color-illustrationInterface020)" x="646.999" y="537.167" width="106.249" height="5.66663"></rect></g><g clip-path="url(#nk-1087)"><rect style="fill:var(--color-illustrationPalette040)" x="646.999" y="537.167" width="53.833" height="5.66663"></rect></g><path style="fill:var(--color-illustrationPalette040)" d="M689.499 540C689.499 533.741 694.573 528.667 700.832 528.667V528.667C707.091 528.667 712.165 533.741 712.165 540V540C712.165 546.259 707.091 551.333 700.832 551.333V551.333C694.573 551.333 689.499 546.259 689.499 540V540Z"></path><path style="fill:var(--color-white)" d="M700.832 549.916C695.355 549.916 690.915 545.477 690.915 540H688.082C688.082 547.041 693.79 552.75 700.832 552.75V549.916ZM710.749 540C710.749 545.477 706.309 549.916 700.832 549.916V552.75C707.874 552.75 713.582 547.041 713.582 540H710.749ZM700.832 530.083C706.309 530.083 710.749 534.523 710.749 540H713.582C713.582 532.958 707.874 527.25 700.832 527.25V530.083ZM700.832 527.25C693.79 527.25 688.082 532.958 688.082 540H690.915C690.915 534.523 695.355 530.083 700.832 530.083V527.25Z"></path><mask id="nk-1083" mask-type="alpha" maskUnits="userSpaceOnUse" x="1181" y="528" width="23" height="24"><path fill-rule="evenodd" clip-rule="evenodd" d="M1191.39 549.444H1193.28V530.556H1191.39V549.444ZM1187.61 545.666H1189.5V534.333H1187.61V545.666ZM1185.72 541.889H1183.83V538.111H1185.72V541.889ZM1195.17 545.666H1197.06V534.333H1195.17V545.666ZM1198.94 541.889V538.111H1200.83V541.889H1198.94Z" fill="#0A0A0A"></path></mask><g mask="url(#nk-1083)"><rect style="fill:var(--color-illustrationHighlight010)" x="1181" y="528.667" width="22.6665" height="22.6665"></rect></g><path style="fill:var(--color-illustrationHighlight010)" d="M1218.21 543.709H1222.21V545.273H1216.27V533.459H1218.21V543.709ZM1224.81 534.666C1224.46 534.666 1224.17 534.547 1223.93 534.309C1223.69 534.071 1223.57 533.776 1223.57 533.425C1223.57 533.073 1223.69 532.779 1223.93 532.541C1224.17 532.303 1224.46 532.184 1224.81 532.184C1225.15 532.184 1225.44 532.303 1225.68 532.541C1225.92 532.779 1226.04 533.073 1226.04 533.425C1226.04 533.776 1225.92 534.071 1225.68 534.309C1225.44 534.547 1225.15 534.666 1224.81 534.666ZM1225.77 535.906V545.273H1223.83V535.906H1225.77ZM1231.93 543.539L1234.58 535.906H1236.64L1233.07 545.273H1230.76L1227.21 535.906H1229.28L1231.93 543.539ZM1246.69 540.36C1246.69 540.712 1246.67 541.029 1246.62 541.312H1239.47C1239.52 542.06 1239.8 542.661 1240.3 543.114C1240.8 543.568 1241.41 543.794 1242.13 543.794C1243.18 543.794 1243.91 543.358 1244.34 542.485H1246.44C1246.15 543.347 1245.64 544.055 1244.89 544.61C1244.15 545.154 1243.23 545.426 1242.13 545.426C1241.24 545.426 1240.43 545.228 1239.72 544.831C1239.02 544.423 1238.46 543.857 1238.05 543.131C1237.66 542.395 1237.46 541.545 1237.46 540.581C1237.46 539.618 1237.65 538.774 1238.04 538.048C1238.43 537.312 1238.98 536.745 1239.69 536.348C1240.4 535.952 1241.22 535.754 1242.13 535.754C1243.02 535.754 1243.81 535.946 1244.5 536.331C1245.19 536.717 1245.73 537.261 1246.11 537.963C1246.5 538.655 1246.69 539.454 1246.69 540.36ZM1244.67 539.748C1244.66 539.034 1244.4 538.462 1243.9 538.031C1243.4 537.601 1242.79 537.385 1242.05 537.385C1241.38 537.385 1240.81 537.601 1240.33 538.031C1239.86 538.451 1239.57 539.023 1239.48 539.748H1244.67Z"></path></g><defs><filter id="nk-1088" x="482.667" y="258.333" width="810.333" height="90.6667" filterUnits="userSpaceOnUse" color-interpolation-filters="sRGB"><feFlood flood-opacity="0" result="BackgroundImageFix"></feFlood><feColorMatrix in="SourceAlpha" type="matrix" values="0 0 0 0 0 0 0 0 0 0 0 0 0 0 0 0 0 0 127 0" result="hardAlpha"></feColorMatrix><feOffset dy="5.66667"></feOffset><feGaussianBlur stdDeviation="5.66667"></feGaussianBlur><feColorMatrix type="matrix" values="0 0 0 0 0.0392157 0 0 0 0 0.0392157 0 0 0 0 0.0392157 0 0 0 0.08 0"></feColorMatrix><feBlend mode="normal" in2="BackgroundImageFix" result="effect1_dropShadow_1942_60145"></feBlend><feBlend mode="normal" in="SourceGraphic" in2="effect1_dropShadow_1942_60145" result="shape"></feBlend></filter><filter id="nk-1089" x="482.667" y="500.333" width="810.667" height="90.666" filterUnits="userSpaceOnUse" color-interpolation-filters="sRGB"><feFlood flood-opacity="0" result="BackgroundImageFix"></feFlood><feColorMatrix in="SourceAlpha" type="matrix" values="0 0 0 0 0 0 0 0 0 0 0 0 0 0 0 0 0 0 127 0" result="hardAlpha"></feColorMatrix><feOffset dy="5.66663"></feOffset><feGaussianBlur stdDeviation="5.66663"></feGaussianBlur><feColorMatrix type="matrix" values="0 0 0 0 0.0392157 0 0 0 0 0.0392157 0 0 0 0 0.0392157 0 0 0 0.08 0"></feColorMatrix><feBlend mode="normal" in2="BackgroundImageFix" result="effect1_dropShadow_1942_60145"></feBlend><feBlend mode="normal" in="SourceGraphic" in2="effect1_dropShadow_1942_60145" result="shape"></feBlend></filter><clipPath id="nk-1084"><path style="fill:var(--color-white)" d="M738.333 298C738.333 294.871 740.87 292.333 744 292.333H1104.17C1107.3 292.333 1109.83 294.871 1109.83 298V298C1109.83 301.13 1107.3 303.667 1104.17 303.667H744C740.87 303.667 738.333 301.13 738.333 298V298Z"></path></clipPath><clipPath id="nk-1085"><path style="fill:var(--color-white)" d="M738.333 298C738.333 294.871 740.87 292.333 744 292.333H918.667C921.796 292.333 924.333 294.871 924.333 298V298C924.333 301.13 921.796 303.667 918.667 303.667H744C740.87 303.667 738.333 301.13 738.333 298V298Z"></path></clipPath><clipPath id="nk-1086"><path style="fill:var(--color-white)" d="M646.999 540C646.999 538.435 648.268 537.167 649.832 537.167H750.415C751.98 537.167 753.248 538.435 753.248 540V540C753.248 541.565 751.98 542.833 750.415 542.833H649.832C648.268 542.833 646.999 541.565 646.999 540V540Z"></path></clipPath><clipPath id="nk-1087"><path style="fill:var(--color-white)" d="M646.999 540C646.999 538.435 648.268 537.167 649.832 537.167H697.29C698.855 537.167 700.124 538.435 700.124 540V540C700.124 541.565 698.855 542.833 697.29 542.833H649.832C648.268 542.833 646.999 541.565 646.999 540V540Z"></path></clipPath></defs></svg>