<svg id="nksvg" style="width: 100%; height: 100%" width="1490" height="838" viewBox="0 0 1490 838" fill="none" xmlns="http://www.w3.org/2000/svg" class="css-0">
  <path style="fill: var(--color-illustrationInterface020)" d="M0 0H1490V838H0V0Z"></path>
  <g>
    <path style="fill: var(--color-illustrationInterface010)" d="M414 146.694C414 129.742 427.742 116 444.694 116H1046.31C1063.26 116 1077 129.742 1077 146.694V691.009C1077 707.961 1063.26 721.704 1046.31 721.704H444.694C427.742 721.704 414 707.961 414 691.009V146.694Z"></path>
    <g clip-path="url(#nk-1243)">
      <path style="fill: var(--color-illustrationSubtle010)" d="M474 161.943V184.796H469.417V169.932L463.294 184.796H459.824L453.668 169.932V184.796H449.085V161.943H454.29L461.559 178.936L468.827 161.943H474ZM477.353 175.662C477.353 173.828 477.714 172.202 478.434 170.783C479.176 169.365 480.169 168.273 481.413 167.509C482.679 166.745 484.087 166.363 485.637 166.363C486.99 166.363 488.169 166.636 489.173 167.182C490.199 167.728 491.017 168.415 491.628 169.245V166.658H496.245V184.796H491.628V182.144C491.039 182.996 490.221 183.705 489.173 184.273C488.147 184.818 486.957 185.091 485.604 185.091C484.076 185.091 482.679 184.698 481.413 183.912C480.169 183.127 479.176 182.024 478.434 180.606C477.714 179.165 477.353 177.517 477.353 175.662ZM491.628 175.727C491.628 174.614 491.41 173.665 490.974 172.879C490.537 172.071 489.948 171.46 489.206 171.045C488.463 170.609 487.667 170.39 486.816 170.39C485.964 170.39 485.178 170.598 484.458 171.013C483.738 171.427 483.149 172.038 482.69 172.846C482.254 173.632 482.035 174.57 482.035 175.662C482.035 176.753 482.254 177.713 482.69 178.543C483.149 179.351 483.738 179.973 484.458 180.409C485.2 180.846 485.986 181.064 486.816 181.064C487.667 181.064 488.463 180.857 489.206 180.442C489.948 180.005 490.537 179.394 490.974 178.608C491.41 177.801 491.628 176.84 491.628 175.727ZM518.074 166.658L506.844 193.374H501.966L505.895 184.338L498.626 166.658H503.767L508.448 179.329L513.196 166.658H518.074ZM529.263 179.623C531.359 177.877 533.029 176.426 534.273 175.269C535.517 174.09 536.554 172.868 537.383 171.602C538.213 170.336 538.627 169.092 538.627 167.869C538.627 166.756 538.365 165.883 537.841 165.25C537.318 164.617 536.51 164.301 535.419 164.301C534.327 164.301 533.487 164.672 532.898 165.414C532.308 166.134 532.003 167.127 531.981 168.393H527.528C527.615 165.774 528.39 163.788 529.853 162.434C531.337 161.081 533.214 160.405 535.484 160.405C537.972 160.405 539.882 161.07 541.214 162.402C542.545 163.711 543.211 165.447 543.211 167.607C543.211 169.31 542.753 170.936 541.836 172.486C540.919 174.036 539.871 175.389 538.693 176.546C537.514 177.681 535.975 179.056 534.076 180.671H543.735V184.469H527.561V181.064L529.263 179.623ZM546.623 172.551C546.623 168.775 547.3 165.818 548.653 163.679C550.028 161.54 552.298 160.47 555.463 160.47C558.628 160.47 560.887 161.54 562.24 163.679C563.616 165.818 564.303 168.775 564.303 172.551C564.303 176.349 563.616 179.329 562.24 181.49C560.887 183.65 558.628 184.731 555.463 184.731C552.298 184.731 550.028 183.65 548.653 181.49C547.3 179.329 546.623 176.349 546.623 172.551ZM559.785 172.551C559.785 170.936 559.676 169.583 559.458 168.491C559.261 167.378 558.846 166.472 558.213 165.774C557.602 165.076 556.685 164.726 555.463 164.726C554.241 164.726 553.313 165.076 552.68 165.774C552.069 166.472 551.654 167.378 551.436 168.491C551.24 169.583 551.141 170.936 551.141 172.551C551.141 174.21 551.24 175.607 551.436 176.742C551.632 177.855 552.047 178.761 552.68 179.46C553.313 180.136 554.241 180.475 555.463 180.475C556.685 180.475 557.613 180.136 558.246 179.46C558.879 178.761 559.294 177.855 559.49 176.742C559.687 175.607 559.785 174.21 559.785 172.551ZM569.23 179.623C571.326 177.877 572.995 176.426 574.239 175.269C575.484 174.09 576.52 172.868 577.35 171.602C578.179 170.336 578.594 169.092 578.594 167.869C578.594 166.756 578.332 165.883 577.808 165.25C577.284 164.617 576.477 164.301 575.385 164.301C574.294 164.301 573.454 164.672 572.864 165.414C572.275 166.134 571.969 167.127 571.948 168.393H567.495C567.582 165.774 568.357 163.788 569.819 162.434C571.304 161.081 573.181 160.405 575.451 160.405C577.939 160.405 579.849 161.07 581.18 162.402C582.512 163.711 583.178 165.447 583.178 167.607C583.178 169.31 582.719 170.936 581.803 172.486C580.886 174.036 579.838 175.389 578.659 176.546C577.481 177.681 575.942 179.056 574.043 180.671H583.702V184.469H567.528V181.064L569.23 179.623ZM588.03 179.623C590.126 177.877 591.796 176.426 593.04 175.269C594.284 174.09 595.321 172.868 596.15 171.602C596.98 170.336 597.394 169.092 597.394 167.869C597.394 166.756 597.132 165.883 596.609 165.25C596.085 164.617 595.277 164.301 594.186 164.301C593.094 164.301 592.254 164.672 591.665 165.414C591.075 166.134 590.77 167.127 590.748 168.393H586.295C586.383 165.774 587.157 163.788 588.62 162.434C590.104 161.081 591.981 160.405 594.251 160.405C596.739 160.405 598.649 161.07 599.981 162.402C601.312 163.711 601.978 165.447 601.978 167.607C601.978 169.31 601.52 170.936 600.603 172.486C599.686 174.036 598.638 175.389 597.46 176.546C596.281 177.681 594.742 179.056 592.843 180.671H602.502V184.469H586.328V181.064L588.03 179.623Z"></path>
      <path style="fill: var(--color-illustrationBorder020)" fill-rule="evenodd" clip-rule="evenodd" d="M627.333 168.281C627.866 167.749 628.73 167.749 629.262 168.281L636.483 175.502L643.704 168.281C644.236 167.749 645.1 167.749 645.633 168.281C646.166 168.814 646.166 169.678 645.633 170.211L637.592 178.251C636.98 178.864 635.986 178.864 635.374 178.251L627.333 170.211C626.8 169.678 626.8 168.814 627.333 168.281Z"></path>
    </g>
    <path style="fill: var(--color-illustrationBorder020)" fill-rule="evenodd" clip-rule="evenodd" d="M978.114 159.572C978.913 160.371 978.913 161.666 978.114 162.465L967.283 173.296L978.114 184.127C978.913 184.926 978.913 186.222 978.114 187.021C977.314 187.82 976.019 187.82 975.22 187.021L963.159 174.96C962.24 174.041 962.24 172.551 963.159 171.632L975.22 159.572C976.019 158.772 977.314 158.772 978.114 159.572Z"></path>
    <path style="fill: var(--color-illustrationBorder020)" fill-rule="evenodd" clip-rule="evenodd" d="M1012.18 187.021C1011.38 186.222 1011.38 184.926 1012.18 184.127L1023.01 173.297L1012.18 162.466C1011.38 161.667 1011.38 160.371 1012.18 159.572C1012.98 158.773 1014.28 158.773 1015.08 159.572L1027.14 171.633C1028.06 172.552 1028.06 174.042 1027.14 174.961L1015.08 187.021C1014.28 187.82 1012.98 187.82 1012.18 187.021Z"></path>
    <g clip-path="url(#nk-1244)">
      <path style="fill: var(--color-illustrationSubtle010)" d="M496.448 248.734C496.309 247.556 495.743 246.641 494.751 245.99C493.759 245.339 492.542 245.014 491.1 245.014C490.046 245.014 489.124 245.184 488.333 245.525C487.55 245.866 486.938 246.335 486.496 246.932C486.062 247.529 485.845 248.207 485.845 248.967C485.845 249.602 485.996 250.149 486.298 250.606C486.608 251.056 487.004 251.432 487.484 251.734C487.965 252.028 488.469 252.273 488.996 252.466C489.523 252.652 490.007 252.804 490.449 252.92L492.867 253.571C493.487 253.734 494.177 253.958 494.937 254.245C495.704 254.532 496.437 254.923 497.134 255.42C497.84 255.908 498.421 256.536 498.878 257.303C499.336 258.07 499.564 259.012 499.564 260.128C499.564 261.415 499.227 262.578 498.553 263.616C497.886 264.655 496.91 265.48 495.623 266.093C494.344 266.705 492.79 267.011 490.961 267.011C489.255 267.011 487.779 266.736 486.531 266.186C485.291 265.636 484.314 264.868 483.601 263.884C482.896 262.899 482.496 261.756 482.403 260.454H485.38C485.457 261.353 485.76 262.097 486.287 262.686C486.822 263.268 487.496 263.702 488.31 263.988C489.131 264.267 490.015 264.407 490.961 264.407C492.061 264.407 493.05 264.229 493.925 263.872C494.801 263.508 495.495 263.004 496.007 262.361C496.518 261.71 496.774 260.95 496.774 260.082C496.774 259.291 496.553 258.648 496.111 258.152C495.669 257.656 495.088 257.253 494.367 256.943C493.646 256.633 492.867 256.361 492.03 256.129L489.1 255.292C487.24 254.757 485.767 253.993 484.682 253.001C483.597 252.009 483.054 250.711 483.054 249.106C483.054 247.773 483.415 246.61 484.136 245.618C484.864 244.618 485.841 243.843 487.066 243.293C488.298 242.735 489.674 242.456 491.193 242.456C492.728 242.456 494.092 242.731 495.286 243.281C496.479 243.824 497.425 244.568 498.123 245.514C498.828 246.459 499.2 247.533 499.239 248.734H496.448Z"></path>
      <path style="fill: var(--color-illustrationSubtle010)" d="M564.068 242.781H567.509L575.601 262.547H575.88L583.972 242.781H587.414V266.593H584.717V248.502H584.484L577.043 266.593H574.439L566.998 248.502H566.765V266.593H564.068V242.781Z"></path>
      <path style="fill: var(--color-illustrationSubtle010)" d="M652.277 245.339V242.781H670.136V245.339H662.648V266.593H659.765V245.339H652.277Z"></path>
      <path style="fill: var(--color-illustrationSubtle010)" d="M737.091 266.593L730.58 242.781H733.51L738.487 262.175H738.719L743.788 242.781H747.044L752.113 262.175H752.346L757.322 242.781H760.252L753.741 266.593H750.764L745.509 247.618H745.323L740.068 266.593H737.091Z"></path>
      <path style="fill: var(--color-illustrationSubtle010)" d="M823 245.339V242.781H840.858V245.339H833.371V266.593H830.487V245.339H823Z"></path>
      <path style="fill: var(--color-illustrationSubtle010)" d="M909.555 266.593V242.781H923.832V245.339H912.438V253.385H922.763V255.943H912.438V266.593H909.555Z"></path>
      <path style="fill: var(--color-illustrationSubtle010)" d="M1008.6 248.734C1008.47 247.556 1007.9 246.641 1006.91 245.99C1005.92 245.339 1004.7 245.014 1003.26 245.014C1002.2 245.014 1001.28 245.184 1000.49 245.525C999.706 245.866 999.094 246.335 998.652 246.932C998.218 247.529 998.001 248.207 998.001 248.967C998.001 249.602 998.152 250.149 998.455 250.606C998.765 251.056 999.16 251.432 999.64 251.734C1000.12 252.028 1000.62 252.273 1001.15 252.466C1001.68 252.652 1002.16 252.804 1002.61 252.92L1005.02 253.571C1005.64 253.734 1006.33 253.958 1007.09 254.245C1007.86 254.532 1008.59 254.923 1009.29 255.42C1010 255.908 1010.58 256.536 1011.03 257.303C1011.49 258.07 1011.72 259.012 1011.72 260.128C1011.72 261.415 1011.38 262.578 1010.71 263.616C1010.04 264.655 1009.07 265.48 1007.78 266.093C1006.5 266.705 1004.95 267.011 1003.12 267.011C1001.41 267.011 999.935 266.736 998.687 266.186C997.447 265.636 996.47 264.868 995.757 263.884C995.052 262.899 994.653 261.756 994.56 260.454H997.536C997.614 261.353 997.916 262.097 998.443 262.686C998.978 263.268 999.652 263.702 1000.47 263.988C1001.29 264.267 1002.17 264.407 1003.12 264.407C1004.22 264.407 1005.21 264.229 1006.08 263.872C1006.96 263.508 1007.65 263.004 1008.16 262.361C1008.67 261.71 1008.93 260.95 1008.93 260.082C1008.93 259.291 1008.71 258.648 1008.27 258.152C1007.83 257.656 1007.24 257.253 1006.52 256.943C1005.8 256.633 1005.02 256.361 1004.19 256.129L1001.26 255.292C999.396 254.757 997.924 253.993 996.838 253.001C995.753 252.009 995.211 250.711 995.211 249.106C995.211 247.773 995.571 246.61 996.292 245.618C997.021 244.618 997.997 243.843 999.222 243.293C1000.45 242.735 1001.83 242.456 1003.35 242.456C1004.88 242.456 1006.25 242.731 1007.44 243.281C1008.64 243.824 1009.58 244.568 1010.28 245.514C1010.98 246.459 1011.36 247.533 1011.4 248.734H1008.6Z"></path>
    </g>
    <path style="fill: var(--color-illustrationInterface100)" d="M492.754 316.448V340.259H489.87V319.471H489.731L483.917 323.331V320.401L489.87 316.448H492.754Z"></path>
    <path style="fill: var(--color-illustrationInterface100)" d="M567.393 340.259V338.166L575.253 329.563C576.175 328.555 576.935 327.679 577.531 326.935C578.128 326.183 578.57 325.478 578.857 324.819C579.151 324.152 579.299 323.455 579.299 322.726C579.299 321.889 579.097 321.164 578.694 320.552C578.299 319.94 577.756 319.467 577.066 319.134C576.377 318.8 575.601 318.634 574.741 318.634C573.826 318.634 573.028 318.824 572.346 319.203C571.672 319.575 571.148 320.099 570.776 320.773C570.412 321.447 570.23 322.238 570.23 323.145H567.486C567.486 321.75 567.808 320.525 568.451 319.471C569.094 318.417 569.97 317.595 571.079 317.006C572.195 316.417 573.447 316.122 574.834 316.122C576.229 316.122 577.466 316.417 578.543 317.006C579.62 317.595 580.465 318.389 581.078 319.389C581.69 320.389 581.996 321.502 581.996 322.726C581.996 323.602 581.837 324.459 581.519 325.296C581.209 326.125 580.667 327.051 579.892 328.075C579.124 329.09 578.058 330.33 576.694 331.795L571.346 337.515V337.701H582.415V340.259H567.393Z"></path>
    <path style="fill: var(--color-illustrationInterface100)" d="M661.786 340.585C660.252 340.585 658.884 340.321 657.682 339.794C656.489 339.267 655.539 338.535 654.834 337.597C654.136 336.651 653.756 335.554 653.694 334.306H656.624C656.686 335.074 656.95 335.736 657.415 336.295C657.88 336.845 658.488 337.271 659.24 337.574C659.992 337.876 660.825 338.027 661.74 338.027C662.763 338.027 663.67 337.849 664.461 337.492C665.251 337.136 665.871 336.64 666.321 336.004C666.77 335.368 666.995 334.632 666.995 333.795C666.995 332.919 666.778 332.148 666.344 331.481C665.91 330.807 665.274 330.28 664.437 329.9C663.6 329.52 662.577 329.33 661.368 329.33H659.461V326.772H661.368C662.313 326.772 663.143 326.602 663.856 326.261C664.577 325.92 665.139 325.439 665.542 324.819C665.953 324.199 666.158 323.47 666.158 322.633C666.158 321.827 665.98 321.126 665.623 320.529C665.267 319.932 664.763 319.467 664.112 319.134C663.468 318.8 662.709 318.634 661.833 318.634C661.011 318.634 660.236 318.785 659.508 319.087C658.787 319.382 658.198 319.812 657.74 320.378C657.283 320.936 657.035 321.61 656.996 322.401H654.206C654.252 321.153 654.628 320.06 655.334 319.122C656.039 318.176 656.961 317.44 658.101 316.913C659.248 316.386 660.507 316.122 661.879 316.122C663.352 316.122 664.616 316.421 665.67 317.018C666.724 317.607 667.534 318.386 668.1 319.354C668.666 320.323 668.948 321.37 668.948 322.494C668.948 323.835 668.596 324.978 667.89 325.924C667.193 326.869 666.243 327.524 665.042 327.888V328.075C666.546 328.323 667.72 328.962 668.565 329.993C669.41 331.016 669.832 332.283 669.832 333.795C669.832 335.089 669.479 336.252 668.774 337.283C668.076 338.306 667.123 339.112 665.914 339.701C664.705 340.29 663.329 340.585 661.786 340.585Z"></path>
    <path style="fill: var(--color-illustrationInterface100)" d="M737.964 335.376V333.004L748.428 316.448H750.149V320.122H748.986L741.08 332.632V332.818H755.172V335.376H737.964ZM749.172 340.259V334.655V333.551V316.448H751.916V340.259H749.172Z"></path>
    <path style="fill: var(--color-illustrationInterface100)" d="M830.868 340.585C829.504 340.585 828.275 340.314 827.182 339.771C826.09 339.228 825.214 338.484 824.555 337.539C823.896 336.593 823.536 335.516 823.474 334.306H826.264C826.372 335.384 826.861 336.275 827.729 336.981C828.605 337.678 829.651 338.027 830.868 338.027C831.845 338.027 832.713 337.798 833.472 337.341C834.24 336.884 834.841 336.256 835.275 335.457C835.716 334.651 835.937 333.741 835.937 332.725C835.937 331.687 835.709 330.76 835.251 329.946C834.802 329.125 834.182 328.478 833.391 328.005C832.6 327.532 831.697 327.292 830.682 327.284C829.953 327.276 829.205 327.389 828.438 327.621C827.671 327.846 827.039 328.137 826.543 328.493L823.846 328.168L825.287 316.448H837.658V319.006H827.706L826.869 326.028H827.008C827.496 325.641 828.109 325.319 828.845 325.063C829.581 324.807 830.349 324.68 831.147 324.68C832.604 324.68 833.903 325.028 835.042 325.726C836.189 326.416 837.088 327.361 837.739 328.563C838.398 329.764 838.728 331.136 838.728 332.679C838.728 334.198 838.387 335.554 837.705 336.748C837.03 337.934 836.1 338.872 834.914 339.562C833.728 340.244 832.38 340.585 830.868 340.585Z"></path>
    <path style="fill: var(--color-illustrationInterface100)" d="M916.935 340.585C915.958 340.569 914.982 340.383 914.005 340.027C913.028 339.67 912.137 339.069 911.331 338.225C910.525 337.372 909.877 336.221 909.389 334.771C908.901 333.314 908.657 331.485 908.657 329.284C908.657 327.168 908.854 325.292 909.25 323.656C909.645 322.013 910.218 320.63 910.97 319.506C911.722 318.382 912.629 317.529 913.691 316.948C914.761 316.366 915.966 316.076 917.307 316.076C918.64 316.076 919.826 316.343 920.865 316.878C921.911 317.413 922.764 318.157 923.422 319.11C924.081 320.056 924.508 321.153 924.701 322.401H921.865C921.601 321.308 921.089 320.409 920.33 319.703C919.57 318.99 918.563 318.634 917.307 318.634C915.462 318.634 914.009 319.44 912.947 321.052C911.893 322.656 911.362 324.92 911.354 327.842H911.54C911.974 327.183 912.49 326.621 913.086 326.156C913.691 325.683 914.358 325.319 915.086 325.063C915.815 324.807 916.586 324.68 917.4 324.68C918.764 324.68 920.012 325.021 921.144 325.703C922.275 326.377 923.182 327.311 923.864 328.505C924.546 329.691 924.887 331.051 924.887 332.586C924.887 334.058 924.558 335.407 923.899 336.632C923.24 337.849 922.314 338.818 921.12 339.538C919.934 340.252 918.539 340.6 916.935 340.585ZM916.935 338.027C917.911 338.027 918.787 337.783 919.562 337.294C920.345 336.806 920.962 336.151 921.411 335.33C921.868 334.508 922.097 333.593 922.097 332.586C922.097 331.601 921.876 330.706 921.434 329.9C921 329.086 920.4 328.439 919.632 327.958C918.873 327.478 918.004 327.237 917.028 327.237C916.291 327.237 915.605 327.385 914.97 327.679C914.334 327.966 913.776 328.361 913.296 328.865C912.823 329.369 912.451 329.946 912.179 330.598C911.908 331.241 911.773 331.919 911.773 332.632C911.773 333.578 911.993 334.461 912.435 335.283C912.885 336.105 913.497 336.767 914.272 337.271C915.055 337.775 915.943 338.027 916.935 338.027Z"></path>
    <path style="fill: var(--color-illustrationInterface100)" d="M995.995 340.259L1006.65 319.192V319.006H994.368V316.448H1009.62V319.145L999.018 340.259H995.995Z"></path>
    <path style="fill: var(--color-illustrationInterface100)" d="M489.987 422.437C488.39 422.437 486.979 422.154 485.755 421.589C484.538 421.015 483.588 420.228 482.906 419.228C482.224 418.221 481.887 417.074 481.895 415.787C481.887 414.779 482.085 413.849 482.488 412.996C482.891 412.136 483.441 411.419 484.139 410.846C484.844 410.264 485.631 409.896 486.499 409.741V409.602C485.359 409.307 484.452 408.667 483.778 407.683C483.104 406.691 482.77 405.563 482.778 404.3C482.77 403.091 483.077 402.009 483.697 401.056C484.317 400.103 485.169 399.351 486.255 398.8C487.348 398.25 488.592 397.975 489.987 397.975C491.366 397.975 492.599 398.25 493.684 398.8C494.769 399.351 495.622 400.103 496.242 401.056C496.87 402.009 497.188 403.091 497.195 404.3C497.188 405.563 496.843 406.691 496.161 407.683C495.486 408.667 494.591 409.307 493.475 409.602V409.741C494.335 409.896 495.11 410.264 495.8 410.846C496.49 411.419 497.04 412.136 497.451 412.996C497.862 413.849 498.071 414.779 498.079 415.787C498.071 417.074 497.722 418.221 497.033 419.228C496.35 420.228 495.401 421.015 494.184 421.589C492.975 422.154 491.576 422.437 489.987 422.437ZM489.987 419.879C491.064 419.879 491.994 419.705 492.777 419.356C493.56 419.007 494.165 418.515 494.591 417.88C495.017 417.244 495.234 416.5 495.242 415.647C495.234 414.748 495.002 413.954 494.544 413.264C494.087 412.574 493.463 412.031 492.673 411.636C491.89 411.241 490.994 411.043 489.987 411.043C488.971 411.043 488.065 411.241 487.266 411.636C486.476 412.031 485.852 412.574 485.394 413.264C484.945 413.954 484.724 414.748 484.732 415.647C484.724 416.5 484.929 417.244 485.348 417.88C485.774 418.515 486.383 419.007 487.173 419.356C487.964 419.705 488.902 419.879 489.987 419.879ZM489.987 408.578C490.839 408.578 491.595 408.408 492.254 408.067C492.921 407.726 493.444 407.249 493.824 406.637C494.203 406.024 494.397 405.307 494.405 404.486C494.397 403.68 494.207 402.978 493.835 402.381C493.463 401.777 492.948 401.312 492.289 400.986C491.63 400.653 490.863 400.486 489.987 400.486C489.095 400.486 488.316 400.653 487.65 400.986C486.983 401.312 486.468 401.777 486.103 402.381C485.739 402.978 485.561 403.68 485.569 404.486C485.561 405.307 485.743 406.024 486.115 406.637C486.495 407.249 487.018 407.726 487.685 408.067C488.351 408.408 489.119 408.578 489.987 408.578Z"></path>
    <path style="fill: var(--color-illustrationBorder020)" d="M574.986 397.928C575.963 397.936 576.939 398.122 577.916 398.486C578.893 398.851 579.784 399.455 580.59 400.3C581.396 401.145 582.044 402.296 582.532 403.753C583.02 405.203 583.264 407.028 583.264 409.229C583.264 411.346 583.063 413.225 582.66 414.868C582.265 416.504 581.691 417.884 580.939 419.007C580.195 420.131 579.288 420.984 578.218 421.565C577.157 422.147 575.955 422.437 574.614 422.437C573.281 422.437 572.091 422.174 571.045 421.647C570.006 421.112 569.153 420.372 568.487 419.426C567.828 418.473 567.406 417.368 567.22 416.112H570.056C570.312 417.205 570.82 418.108 571.58 418.821C572.347 419.527 573.358 419.879 574.614 419.879C576.451 419.879 577.901 419.077 578.963 417.473C580.032 415.868 580.567 413.601 580.567 410.671H580.381C579.947 411.322 579.431 411.884 578.835 412.357C578.238 412.83 577.575 413.194 576.846 413.45C576.118 413.706 575.343 413.834 574.521 413.834C573.157 413.834 571.905 413.496 570.766 412.822C569.634 412.14 568.727 411.206 568.045 410.02C567.371 408.826 567.034 407.462 567.034 405.927C567.034 404.455 567.359 403.11 568.01 401.893C568.669 400.676 569.591 399.707 570.777 398.986C571.971 398.265 573.374 397.913 574.986 397.928ZM574.986 400.486C574.01 400.486 573.13 400.73 572.347 401.219C571.572 401.707 570.956 402.362 570.498 403.184C570.049 404.005 569.824 404.92 569.824 405.927C569.824 406.92 570.041 407.823 570.475 408.636C570.917 409.443 571.518 410.086 572.277 410.567C573.045 411.039 573.917 411.276 574.893 411.276C575.63 411.276 576.316 411.132 576.951 410.846C577.587 410.551 578.141 410.152 578.614 409.648C579.094 409.136 579.47 408.559 579.742 407.916C580.013 407.265 580.148 406.586 580.148 405.881C580.148 404.935 579.924 404.052 579.474 403.23C579.032 402.408 578.42 401.746 577.637 401.242C576.862 400.738 575.978 400.486 574.986 400.486Z"></path>
    <path style="fill: var(--color-illustrationBorder020)" d="M564.941 411.392H585.357V413.624H564.941V411.392Z"></path>
    <path style="fill: var(--color-illustrationBorder020)" d="M653.009 398.3V422.112H650.125V401.323H649.986L644.172 405.183V402.253L650.125 398.3H653.009ZM667.623 422.437C665.872 422.437 664.379 421.961 663.147 421.007C661.915 420.046 660.973 418.655 660.322 416.833C659.671 415.004 659.345 412.795 659.345 410.206C659.345 407.633 659.671 405.435 660.322 403.614C660.981 401.784 661.926 400.389 663.159 399.428C664.399 398.459 665.887 397.975 667.623 397.975C669.36 397.975 670.844 398.459 672.076 399.428C673.317 400.389 674.262 401.784 674.913 403.614C675.572 405.435 675.902 407.633 675.902 410.206C675.902 412.795 675.576 415.004 674.925 416.833C674.274 418.655 673.332 420.046 672.1 421.007C670.867 421.961 669.375 422.437 667.623 422.437ZM667.623 419.879C669.36 419.879 670.708 419.042 671.669 417.368C672.631 415.694 673.111 413.307 673.111 410.206C673.111 408.144 672.89 406.389 672.448 404.939C672.014 403.49 671.387 402.385 670.565 401.626C669.751 400.866 668.771 400.486 667.623 400.486C665.903 400.486 664.558 401.335 663.589 403.032C662.62 404.722 662.136 407.113 662.136 410.206C662.136 412.268 662.353 414.02 662.787 415.461C663.221 416.903 663.845 418 664.659 418.752C665.48 419.504 666.468 419.879 667.623 419.879Z"></path>
    <path style="fill: var(--color-illustrationBorder020)" d="M642.173 411.392H677.855V413.624H642.173V411.392Z"></path>
    <path style="fill: var(--color-illustrationBorder020)" d="M741.492 398.3V422.112H738.608V401.323H738.469L732.655 405.183V402.253L738.608 398.3H741.492ZM756.711 398.3V422.112H753.828V401.323H753.688L747.875 405.183V402.253L753.828 398.3H756.711Z"></path>
    <path style="fill: var(--color-illustrationBorder020)" d="M730.656 411.392H761.083V413.624H730.656V411.392Z"></path>
    <path style="fill: var(--color-illustrationBorder020)" d="M824.051 398.3V422.112H821.168V401.323H821.028L815.215 405.183V402.253L821.168 398.3H824.051ZM830.899 422.112V420.019L838.759 411.415C839.681 410.408 840.441 409.532 841.038 408.788C841.634 408.036 842.076 407.33 842.363 406.672C842.658 406.005 842.805 405.307 842.805 404.579C842.805 403.742 842.603 403.017 842.2 402.405C841.805 401.792 841.262 401.319 840.573 400.986C839.883 400.653 839.108 400.486 838.247 400.486C837.333 400.486 836.534 400.676 835.852 401.056C835.178 401.428 834.655 401.951 834.282 402.625C833.918 403.3 833.736 404.09 833.736 404.997H830.992C830.992 403.602 831.314 402.377 831.957 401.323C832.6 400.269 833.476 399.448 834.585 398.858C835.701 398.269 836.953 397.975 838.34 397.975C839.735 397.975 840.972 398.269 842.049 398.858C843.126 399.448 843.971 400.242 844.584 401.242C845.196 402.242 845.502 403.354 845.502 404.579C845.502 405.455 845.343 406.311 845.026 407.148C844.715 407.978 844.173 408.904 843.398 409.927C842.63 410.942 841.565 412.183 840.2 413.648L834.852 419.368V419.554H845.921V422.112H830.899Z"></path>
    <path style="fill: var(--color-illustrationBorder020)" d="M813.215 411.392H848.246V413.624H813.215V411.392Z"></path>
    <path style="fill: var(--color-illustrationBorder020)" d="M909.399 398.3V422.112H906.515V401.323H906.376L900.563 405.183V402.253L906.515 398.3H909.399ZM924.293 422.437C922.758 422.437 921.39 422.174 920.188 421.647C918.995 421.12 918.045 420.387 917.34 419.449C916.642 418.504 916.262 417.407 916.2 416.159H919.13C919.192 416.926 919.456 417.589 919.921 418.147C920.386 418.697 920.994 419.124 921.746 419.426C922.498 419.728 923.331 419.879 924.246 419.879C925.269 419.879 926.176 419.701 926.967 419.345C927.757 418.988 928.377 418.492 928.827 417.856C929.277 417.221 929.501 416.485 929.501 415.647C929.501 414.772 929.284 414 928.85 413.334C928.416 412.659 927.781 412.132 926.943 411.752C926.106 411.373 925.083 411.183 923.874 411.183H921.967V408.625H923.874C924.82 408.625 925.649 408.454 926.362 408.113C927.083 407.772 927.645 407.292 928.048 406.672C928.459 406.051 928.664 405.323 928.664 404.486C928.664 403.68 928.486 402.978 928.129 402.381C927.773 401.784 927.269 401.319 926.618 400.986C925.975 400.653 925.215 400.486 924.339 400.486C923.517 400.486 922.742 400.637 922.014 400.94C921.293 401.234 920.704 401.664 920.246 402.23C919.789 402.788 919.541 403.463 919.502 404.253H916.712C916.758 403.005 917.134 401.912 917.84 400.975C918.545 400.029 919.467 399.293 920.607 398.765C921.754 398.238 923.014 397.975 924.386 397.975C925.858 397.975 927.122 398.273 928.176 398.87C929.23 399.459 930.04 400.238 930.606 401.207C931.172 402.176 931.455 403.222 931.455 404.346C931.455 405.687 931.102 406.83 930.397 407.776C929.699 408.722 928.749 409.377 927.548 409.741V409.927C929.052 410.175 930.226 410.815 931.071 411.845C931.916 412.869 932.338 414.136 932.338 415.647C932.338 416.942 931.986 418.104 931.28 419.135C930.583 420.159 929.629 420.965 928.42 421.554C927.211 422.143 925.835 422.437 924.293 422.437Z"></path>
    <path style="fill: var(--color-illustrationBorder020)" d="M898.563 411.392H934.617V413.624H898.563V411.392Z"></path>
    <path style="fill: var(--color-illustrationInterface100)" d="M994.676 398.3V422.112H991.793V401.323H991.653L985.84 405.183V402.253L991.793 398.3H994.676ZM1000.97 417.229V414.857L1011.43 398.3H1013.15V401.974H1011.99L1004.08 414.485V414.671H1018.17V417.229H1000.97ZM1012.17 422.112V416.508V415.403V398.3H1014.92V422.112H1012.17Z"></path>
    <path style="fill: var(--color-illustrationInterface100)" d="M482.564 480.151V503.963H479.68V483.174H479.541L473.727 487.034V484.105L479.68 480.151H482.564ZM496.853 504.288C495.489 504.288 494.26 504.017 493.167 503.475C492.074 502.932 491.198 502.188 490.539 501.242C489.881 500.297 489.52 499.219 489.458 498.01H492.249C492.357 499.087 492.845 499.979 493.714 500.684C494.589 501.382 495.636 501.731 496.853 501.731C497.829 501.731 498.698 501.502 499.457 501.045C500.225 500.587 500.825 499.959 501.259 499.161C501.701 498.355 501.922 497.444 501.922 496.429C501.922 495.39 501.693 494.464 501.236 493.65C500.786 492.828 500.166 492.181 499.376 491.708C498.585 491.236 497.682 490.995 496.667 490.988C495.938 490.98 495.19 491.092 494.423 491.325C493.655 491.549 493.024 491.84 492.528 492.197L489.83 491.871L491.272 480.151H503.643V482.709H493.69L492.853 489.732H492.993C493.481 489.344 494.093 489.023 494.83 488.767C495.566 488.511 496.333 488.383 497.132 488.383C498.589 488.383 499.887 488.732 501.027 489.43C502.174 490.119 503.073 491.065 503.724 492.266C504.383 493.468 504.712 494.84 504.712 496.382C504.712 497.902 504.371 499.258 503.689 500.452C503.015 501.638 502.085 502.575 500.899 503.265C499.713 503.947 498.364 504.288 496.853 504.288Z"></path>
    <path style="fill: var(--color-illustrationInterface100)" d="M567.667 480.151V503.963H564.784V483.174H564.644L558.831 487.034V484.105L564.784 480.151H567.667ZM582.421 504.288C581.445 504.273 580.468 504.087 579.491 503.73C578.515 503.374 577.623 502.773 576.817 501.928C576.011 501.076 575.364 499.925 574.876 498.475C574.387 497.018 574.143 495.189 574.143 492.987C574.143 490.871 574.341 488.995 574.736 487.36C575.131 485.717 575.705 484.333 576.457 483.209C577.209 482.085 578.116 481.233 579.178 480.651C580.247 480.07 581.453 479.779 582.793 479.779C584.127 479.779 585.313 480.047 586.351 480.582C587.398 481.116 588.25 481.861 588.909 482.814C589.568 483.76 589.994 484.856 590.188 486.104H587.351C587.088 485.011 586.576 484.112 585.816 483.407C585.057 482.694 584.049 482.337 582.793 482.337C580.949 482.337 579.495 483.143 578.433 484.756C577.379 486.36 576.848 488.623 576.841 491.546H577.027C577.461 490.887 577.976 490.325 578.573 489.86C579.178 489.387 579.844 489.023 580.573 488.767C581.301 488.511 582.073 488.383 582.886 488.383C584.251 488.383 585.499 488.724 586.63 489.406C587.762 490.081 588.669 491.015 589.351 492.208C590.033 493.394 590.374 494.755 590.374 496.289C590.374 497.762 590.045 499.111 589.386 500.335C588.727 501.552 587.801 502.521 586.607 503.242C585.421 503.955 584.026 504.304 582.421 504.288ZM582.421 501.731C583.398 501.731 584.274 501.486 585.049 500.998C585.832 500.51 586.448 499.855 586.898 499.033C587.355 498.212 587.584 497.297 587.584 496.289C587.584 495.305 587.363 494.41 586.921 493.604C586.487 492.79 585.886 492.142 585.119 491.662C584.359 491.181 583.491 490.941 582.514 490.941C581.778 490.941 581.092 491.088 580.457 491.383C579.821 491.67 579.263 492.065 578.782 492.569C578.309 493.073 577.937 493.65 577.666 494.301C577.395 494.944 577.259 495.623 577.259 496.336C577.259 497.281 577.48 498.165 577.922 498.987C578.371 499.808 578.984 500.471 579.759 500.975C580.542 501.479 581.429 501.731 582.421 501.731Z"></path>
    <rect x="628.713" y="460.801" width="63.4352" height="63.4352" rx="31.7176" stroke="#BBC3C9" stroke-width="2.0463"></rect>
    <path style="fill: var(--color-illustrationInterface100)" d="M654.935 480.151V503.963H652.051V483.174H651.912L646.098 487.034V484.105L652.051 480.151H654.935ZM662.527 503.963L673.177 482.895V482.709H660.899V480.151H676.153V482.849L665.55 503.963H662.527Z"></path>
    <path style="fill: var(--color-illustrationInterface100)" d="M738.514 480.151V503.963H735.63V483.174H735.491L729.678 487.034V484.105L735.63 480.151H738.514ZM752.989 504.288C751.392 504.288 749.982 504.006 748.757 503.44C747.54 502.866 746.59 502.079 745.908 501.079C745.226 500.072 744.889 498.925 744.897 497.638C744.889 496.63 745.087 495.7 745.49 494.848C745.893 493.987 746.443 493.27 747.141 492.697C747.846 492.115 748.633 491.747 749.501 491.592V491.453C748.362 491.158 747.455 490.519 746.78 489.534C746.106 488.542 745.773 487.414 745.78 486.151C745.773 484.942 746.079 483.86 746.699 482.907C747.319 481.954 748.172 481.202 749.257 480.651C750.35 480.101 751.594 479.826 752.989 479.826C754.369 479.826 755.601 480.101 756.686 480.651C757.771 481.202 758.624 481.954 759.244 482.907C759.872 483.86 760.19 484.942 760.198 486.151C760.19 487.414 759.845 488.542 759.163 489.534C758.488 490.519 757.593 491.158 756.477 491.453V491.592C757.337 491.747 758.113 492.115 758.802 492.697C759.492 493.27 760.043 493.987 760.453 494.848C760.864 495.7 761.073 496.63 761.081 497.638C761.073 498.925 760.725 500.072 760.035 501.079C759.353 502.079 758.403 502.866 757.186 503.44C755.977 504.006 754.578 504.288 752.989 504.288ZM752.989 501.731C754.066 501.731 754.997 501.556 755.779 501.207C756.562 500.859 757.167 500.366 757.593 499.731C758.02 499.095 758.237 498.351 758.244 497.498C758.237 496.599 758.004 495.805 757.547 495.115C757.089 494.425 756.465 493.883 755.675 493.487C754.892 493.092 753.997 492.894 752.989 492.894C751.974 492.894 751.067 493.092 750.268 493.487C749.478 493.883 748.854 494.425 748.396 495.115C747.947 495.805 747.726 496.599 747.734 497.498C747.726 498.351 747.931 499.095 748.35 499.731C748.776 500.366 749.385 500.859 750.175 501.207C750.966 501.556 751.904 501.731 752.989 501.731ZM752.989 490.429C753.842 490.429 754.597 490.259 755.256 489.918C755.923 489.577 756.446 489.1 756.826 488.488C757.206 487.875 757.399 487.158 757.407 486.337C757.399 485.531 757.21 484.829 756.837 484.232C756.465 483.628 755.95 483.163 755.291 482.837C754.632 482.504 753.865 482.337 752.989 482.337C752.098 482.337 751.319 482.504 750.652 482.837C749.985 483.163 749.47 483.628 749.106 484.232C748.741 484.829 748.563 485.531 748.571 486.337C748.563 487.158 748.745 487.875 749.117 488.488C749.497 489.1 750.02 489.577 750.687 489.918C751.354 490.259 752.121 490.429 752.989 490.429Z"></path>
    <path style="fill: var(--color-illustrationInterface100)" d="M823.747 480.151V503.963H820.864V483.174H820.724L814.911 487.034V484.105L820.864 480.151H823.747ZM838.176 479.779C839.153 479.787 840.129 479.973 841.106 480.337C842.083 480.702 842.974 481.306 843.78 482.151C844.586 482.996 845.233 484.147 845.722 485.604C846.21 487.054 846.454 488.879 846.454 491.081C846.454 493.197 846.253 495.076 845.85 496.719C845.454 498.355 844.881 499.735 844.129 500.859C843.385 501.982 842.478 502.835 841.408 503.416C840.346 503.998 839.145 504.288 837.804 504.288C836.471 504.288 835.281 504.025 834.235 503.498C833.196 502.963 832.343 502.223 831.677 501.277C831.018 500.324 830.595 499.219 830.409 497.964H833.246C833.502 499.056 834.01 499.959 834.769 500.673C835.537 501.378 836.548 501.731 837.804 501.731C839.641 501.731 841.09 500.928 842.152 499.324C843.222 497.719 843.757 495.452 843.757 492.522H843.571C843.137 493.173 842.621 493.735 842.024 494.208C841.428 494.681 840.765 495.045 840.036 495.301C839.308 495.557 838.533 495.685 837.711 495.685C836.347 495.685 835.095 495.348 833.955 494.673C832.824 493.991 831.917 493.057 831.235 491.871C830.56 490.677 830.223 489.313 830.223 487.779C830.223 486.306 830.549 484.961 831.2 483.744C831.859 482.527 832.781 481.558 833.967 480.837C835.161 480.117 836.564 479.764 838.176 479.779ZM838.176 482.337C837.199 482.337 836.32 482.581 835.537 483.07C834.762 483.558 834.145 484.213 833.688 485.035C833.238 485.856 833.014 486.771 833.014 487.779C833.014 488.771 833.231 489.674 833.665 490.488C834.107 491.294 834.707 491.937 835.467 492.418C836.234 492.89 837.106 493.127 838.083 493.127C838.819 493.127 839.505 492.983 840.141 492.697C840.776 492.402 841.331 492.003 841.803 491.499C842.284 490.988 842.66 490.41 842.931 489.767C843.203 489.116 843.338 488.437 843.338 487.732C843.338 486.786 843.113 485.903 842.664 485.081C842.222 484.26 841.61 483.597 840.827 483.093C840.052 482.589 839.168 482.337 838.176 482.337Z"></path>
    <path style="fill: var(--color-illustrationInterface100)" d="M898.87 503.963V501.87L906.73 493.266C907.652 492.259 908.412 491.383 909.009 490.639C909.606 489.887 910.048 489.181 910.334 488.523C910.629 487.856 910.776 487.158 910.776 486.43C910.776 485.593 910.575 484.868 910.172 484.256C909.776 483.643 909.234 483.171 908.544 482.837C907.854 482.504 907.079 482.337 906.219 482.337C905.304 482.337 904.506 482.527 903.823 482.907C903.149 483.279 902.626 483.802 902.254 484.477C901.89 485.151 901.707 485.942 901.707 486.848H898.963C898.963 485.453 899.285 484.229 899.928 483.174C900.572 482.12 901.448 481.299 902.556 480.71C903.672 480.12 904.924 479.826 906.312 479.826C907.707 479.826 908.943 480.12 910.02 480.71C911.098 481.299 911.943 482.093 912.555 483.093C913.167 484.093 913.474 485.205 913.474 486.43C913.474 487.306 913.315 488.162 912.997 488.999C912.687 489.829 912.144 490.755 911.369 491.778C910.602 492.794 909.536 494.034 908.172 495.499L902.824 501.219V501.405H913.892V503.963H898.87ZM926.461 504.288C924.709 504.288 923.217 503.812 921.984 502.858C920.752 501.897 919.81 500.506 919.159 498.684C918.508 496.855 918.182 494.646 918.182 492.057C918.182 489.484 918.508 487.286 919.159 485.465C919.818 483.636 920.764 482.24 921.996 481.279C923.236 480.31 924.724 479.826 926.461 479.826C928.197 479.826 929.681 480.31 930.914 481.279C932.154 482.24 933.099 483.636 933.751 485.465C934.409 487.286 934.739 489.484 934.739 492.057C934.739 494.646 934.413 496.855 933.762 498.684C933.111 500.506 932.169 501.897 930.937 502.858C929.704 503.812 928.212 504.288 926.461 504.288ZM926.461 501.731C928.197 501.731 929.546 500.893 930.507 499.219C931.468 497.545 931.948 495.158 931.948 492.057C931.948 489.995 931.727 488.24 931.286 486.79C930.852 485.341 930.224 484.236 929.402 483.477C928.588 482.717 927.608 482.337 926.461 482.337C924.74 482.337 923.395 483.186 922.426 484.884C921.457 486.573 920.973 488.964 920.973 492.057C920.973 494.119 921.19 495.871 921.624 497.312C922.058 498.754 922.682 499.851 923.496 500.603C924.317 501.355 925.306 501.731 926.461 501.731Z"></path>
    <path style="fill: var(--color-illustrationInterface100)" d="M986.397 503.963V501.87L994.256 493.266C995.179 492.259 995.938 491.383 996.535 490.639C997.132 489.887 997.574 489.181 997.86 488.523C998.155 487.856 998.302 487.158 998.302 486.43C998.302 485.593 998.101 484.868 997.698 484.256C997.302 483.643 996.76 483.171 996.07 482.837C995.38 482.504 994.605 482.337 993.745 482.337C992.83 482.337 992.032 482.527 991.35 482.907C990.675 483.279 990.152 483.802 989.78 484.477C989.416 485.151 989.233 485.942 989.233 486.848H986.49C986.49 485.453 986.811 484.229 987.455 483.174C988.098 482.12 988.974 481.299 990.082 480.71C991.198 480.12 992.45 479.826 993.838 479.826C995.233 479.826 996.469 480.12 997.547 480.71C998.624 481.299 999.469 482.093 1000.08 483.093C1000.69 484.093 1001 485.205 1001 486.43C1001 487.306 1000.84 488.162 1000.52 488.999C1000.21 489.829 999.67 490.755 998.895 491.778C998.128 492.794 997.062 494.034 995.698 495.499L990.35 501.219V501.405H1001.42V503.963H986.397ZM1014.59 480.151V503.963H1011.71V483.174H1011.57L1005.75 487.034V484.105L1011.71 480.151H1014.59Z"></path>
    <path style="fill: var(--color-illustrationInterface100)" d="M471.891 585.815V583.722L479.751 575.118C480.673 574.111 481.433 573.235 482.03 572.491C482.627 571.739 483.068 571.034 483.355 570.375C483.65 569.708 483.797 569.011 483.797 568.282C483.797 567.445 483.596 566.72 483.192 566.108C482.797 565.495 482.255 565.023 481.565 564.689C480.875 564.356 480.1 564.189 479.239 564.189C478.325 564.189 477.526 564.379 476.844 564.759C476.17 565.131 475.647 565.654 475.275 566.329C474.91 567.003 474.728 567.794 474.728 568.7H471.984C471.984 567.305 472.306 566.081 472.949 565.026C473.593 563.972 474.469 563.151 475.577 562.562C476.693 561.972 477.945 561.678 479.332 561.678C480.728 561.678 481.964 561.972 483.041 562.562C484.119 563.151 484.964 563.945 485.576 564.945C486.188 565.945 486.494 567.057 486.494 568.282C486.494 569.158 486.336 570.014 486.018 570.851C485.708 571.681 485.165 572.607 484.39 573.63C483.623 574.646 482.557 575.886 481.193 577.351L475.844 583.071V583.257H486.913V585.815H471.891ZM491.715 585.815V583.722L499.574 575.118C500.497 574.111 501.256 573.235 501.853 572.491C502.45 571.739 502.892 571.034 503.179 570.375C503.473 569.708 503.621 569.011 503.621 568.282C503.621 567.445 503.419 566.72 503.016 566.108C502.621 565.495 502.078 565.023 501.388 564.689C500.698 564.356 499.923 564.189 499.063 564.189C498.148 564.189 497.35 564.379 496.668 564.759C495.993 565.131 495.47 565.654 495.098 566.329C494.734 567.003 494.552 567.794 494.552 568.7H491.808C491.808 567.305 492.13 566.081 492.773 565.026C493.416 563.972 494.292 563.151 495.401 562.562C496.517 561.972 497.768 561.678 499.156 561.678C500.551 561.678 501.787 561.972 502.865 562.562C503.942 563.151 504.787 563.945 505.399 564.945C506.012 565.945 506.318 567.057 506.318 568.282C506.318 569.158 506.159 570.014 505.841 570.851C505.531 571.681 504.989 572.607 504.214 573.63C503.446 574.646 502.38 575.886 501.016 577.351L495.668 583.071V583.257H506.737V585.815H491.715Z"></path>
    <rect style="fill: var(--color-illustrationInterface040)" x="574.779" y="541.63" width="42.6799" height="65.4815"></rect>
    <rect style="fill: var(--color-illustrationInterface060)" x="542.332" y="541.63" width="65.4815" height="65.4815" rx="32.7407"></rect>
    <path style="fill: var(--color-illustrationInterface020)" d="M557.286 585.815V583.722L565.146 575.118C566.068 574.111 566.828 573.235 567.425 572.491C568.021 571.739 568.463 571.034 568.75 570.375C569.044 569.708 569.192 569.011 569.192 568.282C569.192 567.445 568.99 566.72 568.587 566.108C568.192 565.495 567.649 565.023 566.959 564.689C566.27 564.356 565.494 564.189 564.634 564.189C563.719 564.189 562.921 564.379 562.239 564.759C561.565 565.131 561.041 565.654 560.669 566.329C560.305 567.003 560.123 567.794 560.123 568.7H557.379C557.379 567.305 557.701 566.081 558.344 565.026C558.987 563.972 559.863 563.151 560.972 562.562C562.088 561.972 563.34 561.678 564.727 561.678C566.122 561.678 567.359 561.972 568.436 562.562C569.513 563.151 570.358 563.945 570.971 564.945C571.583 565.945 571.889 567.057 571.889 568.282C571.889 569.158 571.73 570.014 571.412 570.851C571.102 571.681 570.56 572.607 569.785 573.63C569.017 574.646 567.952 575.886 566.587 577.351L561.239 583.071V583.257H572.308V585.815H557.286ZM585.155 586.14C583.62 586.14 582.252 585.877 581.051 585.35C579.857 584.823 578.908 584.09 578.202 583.152C577.505 582.207 577.125 581.11 577.063 579.862H579.993C580.055 580.629 580.318 581.292 580.784 581.85C581.249 582.401 581.857 582.827 582.609 583.129C583.361 583.431 584.194 583.583 585.109 583.583C586.132 583.583 587.039 583.404 587.829 583.048C588.62 582.691 589.24 582.195 589.69 581.56C590.139 580.924 590.364 580.188 590.364 579.351C590.364 578.475 590.147 577.703 589.713 577.037C589.279 576.362 588.643 575.835 587.806 575.456C586.969 575.076 585.946 574.886 584.737 574.886H582.83V572.328H584.737C585.682 572.328 586.512 572.157 587.225 571.816C587.946 571.475 588.508 570.995 588.911 570.375C589.321 569.755 589.527 569.026 589.527 568.189C589.527 567.383 589.349 566.681 588.992 566.084C588.635 565.488 588.132 565.023 587.481 564.689C586.837 564.356 586.078 564.189 585.202 564.189C584.38 564.189 583.605 564.34 582.876 564.643C582.156 564.937 581.566 565.367 581.109 565.933C580.652 566.491 580.404 567.166 580.365 567.956H577.575C577.621 566.708 577.997 565.616 578.702 564.678C579.408 563.732 580.33 562.996 581.47 562.469C582.617 561.941 583.876 561.678 585.248 561.678C586.721 561.678 587.984 561.976 589.039 562.573C590.093 563.162 590.903 563.941 591.468 564.91C592.034 565.879 592.317 566.925 592.317 568.049C592.317 569.39 591.965 570.534 591.259 571.479C590.562 572.425 589.612 573.08 588.411 573.444V573.63C589.914 573.878 591.089 574.518 591.934 575.549C592.778 576.572 593.201 577.839 593.201 579.351C593.201 580.645 592.848 581.808 592.143 582.839C591.445 583.862 590.492 584.668 589.283 585.257C588.073 585.846 586.698 586.14 585.155 586.14Z"></path>
    <rect style="fill: var(--color-illustrationInterface030)" x="617.459" y="541.63" width="85.9445" height="65.4815"></rect>
    <rect style="fill: var(--color-illustrationInterface030)" x="702.82" y="541.63" width="85.9445" height="65.4815"></rect>
    <rect style="fill: var(--color-illustrationInterface030)" x="788.18" y="541.63" width="85.9445" height="65.4815"></rect>
    <rect style="fill: var(--color-illustrationInterface030)" x="873.539" y="541.63" width="85.9445" height="65.4815"></rect>
    <rect style="fill: var(--color-illustrationInterface040)" x="958.898" y="541.63" width="42.6799" height="65.4815"></rect>
    <rect style="fill: var(--color-illustrationInterface060)" x="969.129" y="541.63" width="65.4815" height="65.4815" rx="32.7407"></rect>
    <path style="fill: var(--color-illustrationInterface020)" d="M983.919 585.815V583.722L991.778 575.118C992.701 574.111 993.46 573.235 994.057 572.491C994.654 571.739 995.096 571.034 995.383 570.375C995.677 569.708 995.824 569.011 995.824 568.282C995.824 567.445 995.623 566.72 995.22 566.108C994.824 565.495 994.282 565.023 993.592 564.689C992.902 564.356 992.127 564.189 991.267 564.189C990.352 564.189 989.554 564.379 988.872 564.759C988.197 565.131 987.674 565.654 987.302 566.329C986.938 567.003 986.756 567.794 986.756 568.7H984.012C984.012 567.305 984.333 566.081 984.977 565.026C985.62 563.972 986.496 563.151 987.604 562.562C988.72 561.972 989.972 561.678 991.36 561.678C992.755 561.678 993.991 561.972 995.069 562.562C996.146 563.151 996.991 563.945 997.603 564.945C998.216 565.945 998.522 567.057 998.522 568.282C998.522 569.158 998.363 570.014 998.045 570.851C997.735 571.681 997.192 572.607 996.417 573.63C995.65 574.646 994.584 575.886 993.22 577.351L987.872 583.071V583.257H998.94V585.815H983.919ZM1011.37 586.14C1009.77 586.14 1008.36 585.858 1007.14 585.292C1005.92 584.718 1004.97 583.931 1004.29 582.932C1003.61 581.924 1003.27 580.777 1003.28 579.49C1003.27 578.482 1003.47 577.552 1003.87 576.7C1004.27 575.839 1004.82 575.122 1005.52 574.549C1006.23 573.967 1007.01 573.599 1007.88 573.444V573.305C1006.74 573.01 1005.83 572.371 1005.16 571.386C1004.49 570.394 1004.15 569.266 1004.16 568.003C1004.15 566.794 1004.46 565.712 1005.08 564.759C1005.7 563.806 1006.55 563.054 1007.64 562.503C1008.73 561.953 1009.97 561.678 1011.37 561.678C1012.75 561.678 1013.98 561.953 1015.07 562.503C1016.15 563.054 1017 563.806 1017.62 564.759C1018.25 565.712 1018.57 566.794 1018.58 568.003C1018.57 569.266 1018.23 570.394 1017.54 571.386C1016.87 572.371 1015.97 573.01 1014.86 573.305V573.444C1015.72 573.599 1016.49 573.967 1017.18 574.549C1017.87 575.122 1018.42 575.839 1018.83 576.7C1019.24 577.552 1019.45 578.482 1019.46 579.49C1019.45 580.777 1019.1 581.924 1018.42 582.932C1017.73 583.931 1016.78 584.718 1015.57 585.292C1014.36 585.858 1012.96 586.14 1011.37 586.14ZM1011.37 583.583C1012.45 583.583 1013.38 583.408 1014.16 583.059C1014.94 582.711 1015.55 582.218 1015.97 581.583C1016.4 580.947 1016.62 580.203 1016.62 579.351C1016.62 578.451 1016.38 577.657 1015.93 576.967C1015.47 576.277 1014.85 575.735 1014.05 575.339C1013.27 574.944 1012.38 574.746 1011.37 574.746C1010.35 574.746 1009.45 574.944 1008.65 575.339C1007.86 575.735 1007.23 576.277 1006.78 576.967C1006.33 577.657 1006.11 578.451 1006.11 579.351C1006.11 580.203 1006.31 580.947 1006.73 581.583C1007.16 582.218 1007.76 582.711 1008.56 583.059C1009.35 583.408 1010.28 583.583 1011.37 583.583ZM1011.37 572.281C1012.22 572.281 1012.98 572.111 1013.64 571.77C1014.3 571.429 1014.83 570.952 1015.21 570.34C1015.59 569.727 1015.78 569.011 1015.79 568.189C1015.78 567.383 1015.59 566.681 1015.22 566.084C1014.85 565.48 1014.33 565.015 1013.67 564.689C1013.01 564.356 1012.25 564.189 1011.37 564.189C1010.48 564.189 1009.7 564.356 1009.03 564.689C1008.37 565.015 1007.85 565.48 1007.49 566.084C1007.12 566.681 1006.94 567.383 1006.95 568.189C1006.94 569.011 1007.13 569.727 1007.5 570.34C1007.88 570.952 1008.4 571.429 1009.07 571.77C1009.73 572.111 1010.5 572.281 1011.37 572.281Z"></path>
    <path style="fill: var(--color-illustrationInterface100)" d="M472.088 667.667V665.574L479.947 656.97C480.87 655.962 481.629 655.086 482.226 654.342C482.823 653.59 483.265 652.885 483.552 652.226C483.846 651.56 483.993 650.862 483.993 650.133C483.993 649.296 483.792 648.572 483.389 647.959C482.993 647.347 482.451 646.874 481.761 646.541C481.071 646.208 480.296 646.041 479.436 646.041C478.521 646.041 477.723 646.231 477.041 646.611C476.366 646.983 475.843 647.506 475.471 648.18C475.107 648.855 474.925 649.645 474.925 650.552H472.181C472.181 649.157 472.502 647.932 473.146 646.878C473.789 645.824 474.665 645.002 475.773 644.413C476.889 643.824 478.141 643.53 479.529 643.53C480.924 643.53 482.16 643.824 483.238 644.413C484.315 645.002 485.16 645.797 485.772 646.797C486.385 647.797 486.691 648.909 486.691 650.133C486.691 651.009 486.532 651.866 486.214 652.703C485.904 653.532 485.361 654.459 484.586 655.482C483.819 656.497 482.753 657.737 481.389 659.202L476.041 664.923V665.109H487.109V667.667H472.088ZM499.492 643.483C500.468 643.491 501.445 643.677 502.422 644.041C503.398 644.405 504.29 645.01 505.096 645.855C505.902 646.7 506.549 647.851 507.037 649.308C507.526 650.757 507.77 652.583 507.77 654.784C507.77 656.9 507.568 658.78 507.165 660.423C506.77 662.059 506.196 663.438 505.445 664.562C504.7 665.686 503.794 666.539 502.724 667.12C501.662 667.701 500.461 667.992 499.12 667.992C497.786 667.992 496.597 667.729 495.55 667.201C494.512 666.667 493.659 665.926 492.992 664.981C492.334 664.027 491.911 662.923 491.725 661.667H494.562C494.818 662.76 495.325 663.663 496.085 664.376C496.852 665.082 497.864 665.434 499.12 665.434C500.957 665.434 502.406 664.632 503.468 663.027C504.538 661.423 505.073 659.156 505.073 656.226H504.886C504.452 656.877 503.937 657.439 503.34 657.912C502.743 658.385 502.081 658.749 501.352 659.005C500.623 659.26 499.848 659.388 499.027 659.388C497.662 659.388 496.411 659.051 495.271 658.377C494.14 657.695 493.233 656.761 492.551 655.575C491.876 654.381 491.539 653.017 491.539 651.482C491.539 650.009 491.865 648.665 492.516 647.448C493.175 646.231 494.097 645.262 495.283 644.541C496.477 643.82 497.879 643.467 499.492 643.483ZM499.492 646.041C498.515 646.041 497.635 646.285 496.852 646.773C496.077 647.262 495.461 647.917 495.004 648.738C494.554 649.56 494.329 650.475 494.329 651.482C494.329 652.474 494.546 653.377 494.981 654.191C495.422 654.997 496.023 655.641 496.783 656.121C497.55 656.594 498.422 656.83 499.399 656.83C500.135 656.83 500.821 656.687 501.457 656.4C502.092 656.106 502.646 655.707 503.119 655.203C503.6 654.691 503.976 654.114 504.247 653.47C504.518 652.819 504.654 652.141 504.654 651.436C504.654 650.49 504.429 649.606 503.98 648.785C503.538 647.963 502.925 647.3 502.143 646.797C501.367 646.293 500.484 646.041 499.492 646.041Z"></path>
    <path style="fill: var(--color-illustrationInterface100)" d="M565.465 667.992C563.93 667.992 562.562 667.729 561.361 667.201C560.167 666.674 559.218 665.942 558.512 665.004C557.815 664.058 557.435 662.962 557.373 661.714H560.303C560.365 662.481 560.628 663.144 561.093 663.702C561.559 664.252 562.167 664.678 562.919 664.981C563.671 665.283 564.504 665.434 565.419 665.434C566.442 665.434 567.349 665.256 568.139 664.899C568.93 664.543 569.55 664.047 570 663.411C570.449 662.776 570.674 662.039 570.674 661.202C570.674 660.326 570.457 659.555 570.023 658.888C569.589 658.214 568.953 657.687 568.116 657.307C567.279 656.927 566.256 656.737 565.047 656.737H563.14V654.18H565.047C565.992 654.18 566.822 654.009 567.535 653.668C568.255 653.327 568.817 652.846 569.221 652.226C569.631 651.606 569.837 650.878 569.837 650.04C569.837 649.234 569.658 648.533 569.302 647.936C568.945 647.339 568.442 646.874 567.79 646.541C567.147 646.208 566.387 646.041 565.512 646.041C564.69 646.041 563.915 646.192 563.186 646.494C562.465 646.789 561.876 647.219 561.419 647.785C560.962 648.343 560.714 649.017 560.675 649.808H557.884C557.931 648.56 558.307 647.467 559.012 646.529C559.718 645.584 560.64 644.847 561.779 644.32C562.927 643.793 564.186 643.53 565.558 643.53C567.031 643.53 568.294 643.828 569.348 644.425C570.403 645.014 571.213 645.793 571.778 646.762C572.344 647.731 572.627 648.777 572.627 649.901C572.627 651.242 572.274 652.385 571.569 653.331C570.872 654.276 569.922 654.931 568.721 655.296V655.482C570.224 655.73 571.399 656.369 572.243 657.4C573.088 658.423 573.511 659.691 573.511 661.202C573.511 662.497 573.158 663.659 572.453 664.69C571.755 665.713 570.802 666.519 569.593 667.108C568.383 667.698 567.008 667.992 565.465 667.992ZM586.033 667.992C584.281 667.992 582.789 667.515 581.556 666.562C580.324 665.601 579.382 664.21 578.731 662.388C578.08 660.559 577.754 658.35 577.754 655.761C577.754 653.187 578.08 650.99 578.731 649.168C579.39 647.339 580.336 645.944 581.568 644.983C582.808 644.014 584.296 643.53 586.033 643.53C587.769 643.53 589.253 644.014 590.486 644.983C591.726 645.944 592.672 647.339 593.323 649.168C593.981 650.99 594.311 653.187 594.311 655.761C594.311 658.35 593.985 660.559 593.334 662.388C592.683 664.21 591.741 665.601 590.509 666.562C589.277 667.515 587.784 667.992 586.033 667.992ZM586.033 665.434C587.769 665.434 589.118 664.597 590.079 662.923C591.04 661.249 591.52 658.861 591.52 655.761C591.52 653.699 591.3 651.943 590.858 650.494C590.424 649.044 589.796 647.94 588.974 647.18C588.16 646.421 587.18 646.041 586.033 646.041C584.312 646.041 582.967 646.89 581.998 648.587C581.029 650.277 580.545 652.668 580.545 655.761C580.545 657.823 580.762 659.574 581.196 661.016C581.63 662.458 582.254 663.555 583.068 664.306C583.89 665.058 584.878 665.434 586.033 665.434Z"></path>
    <path style="fill: var(--color-illustrationInterface100)" d="M652.991 667.992C651.456 667.992 650.088 667.729 648.887 667.201C647.693 666.674 646.744 665.942 646.038 665.004C645.341 664.058 644.961 662.962 644.899 661.714H647.829C647.891 662.481 648.155 663.144 648.62 663.702C649.085 664.252 649.693 664.678 650.445 664.981C651.197 665.283 652.03 665.434 652.945 665.434C653.968 665.434 654.875 665.256 655.665 664.899C656.456 664.543 657.076 664.047 657.526 663.411C657.975 662.776 658.2 662.039 658.2 661.202C658.2 660.326 657.983 659.555 657.549 658.888C657.115 658.214 656.479 657.687 655.642 657.307C654.805 656.927 653.782 656.737 652.573 656.737H650.666V654.18H652.573C653.518 654.18 654.348 654.009 655.061 653.668C655.782 653.327 656.344 652.846 656.747 652.226C657.157 651.606 657.363 650.878 657.363 650.04C657.363 649.234 657.185 648.533 656.828 647.936C656.471 647.339 655.968 646.874 655.317 646.541C654.673 646.208 653.914 646.041 653.038 646.041C652.216 646.041 651.441 646.192 650.712 646.494C649.992 646.789 649.402 647.219 648.945 647.785C648.488 648.343 648.24 649.017 648.201 649.808H645.411C645.457 648.56 645.833 647.467 646.538 646.529C647.244 645.584 648.166 644.847 649.306 644.32C650.453 643.793 651.712 643.53 653.084 643.53C654.557 643.53 655.82 643.828 656.875 644.425C657.929 645.014 658.739 645.793 659.304 646.762C659.87 647.731 660.153 648.777 660.153 649.901C660.153 651.242 659.801 652.385 659.095 653.331C658.398 654.276 657.448 654.931 656.247 655.296V655.482C657.75 655.73 658.925 656.369 659.77 657.4C660.614 658.423 661.037 659.691 661.037 661.202C661.037 662.497 660.684 663.659 659.979 664.69C659.281 665.713 658.328 666.519 657.119 667.108C655.91 667.698 654.534 667.992 652.991 667.992ZM674.163 643.855V667.667H671.28V646.878H671.14L665.327 650.738V647.808L671.28 643.855H674.163Z"></path>
    <path style="fill: var(--color-illustrationInterface100)" d="M748.834 643.855V667.667H745.95V646.878H745.811L739.998 650.738V647.808L745.95 643.855H748.834Z"></path>
    <path style="fill: var(--color-illustrationInterface100)" d="M823.475 667.667V665.574L831.335 656.97C832.257 655.962 833.017 655.086 833.613 654.342C834.21 653.59 834.652 652.885 834.939 652.226C835.233 651.56 835.381 650.862 835.381 650.133C835.381 649.296 835.179 648.572 834.776 647.959C834.381 647.347 833.838 646.874 833.148 646.541C832.459 646.208 831.683 646.041 830.823 646.041C829.908 646.041 829.11 646.231 828.428 646.611C827.754 646.983 827.23 647.506 826.858 648.18C826.494 648.855 826.312 649.645 826.312 650.552H823.568C823.568 649.157 823.89 647.932 824.533 646.878C825.176 645.824 826.052 645.002 827.161 644.413C828.277 643.824 829.529 643.53 830.916 643.53C832.311 643.53 833.548 643.824 834.625 644.413C835.702 645.002 836.547 645.797 837.16 646.797C837.772 647.797 838.078 648.909 838.078 650.133C838.078 651.009 837.919 651.866 837.601 652.703C837.291 653.532 836.749 654.459 835.974 655.482C835.206 656.497 834.141 657.737 832.776 659.202L827.428 664.923V665.109H838.497V667.667H823.475Z"></path>
    <path style="fill: var(--color-illustrationInterface100)" d="M917.866 667.992C916.332 667.992 914.964 667.729 913.762 667.201C912.569 666.674 911.619 665.942 910.914 665.004C910.216 664.058 909.836 662.962 909.774 661.714H912.704C912.766 662.481 913.03 663.144 913.495 663.702C913.96 664.252 914.568 664.678 915.32 664.981C916.072 665.283 916.905 665.434 917.82 665.434C918.843 665.434 919.75 665.256 920.541 664.899C921.331 664.543 921.951 664.047 922.401 663.411C922.85 662.776 923.075 662.039 923.075 661.202C923.075 660.326 922.858 659.555 922.424 658.888C921.99 658.214 921.355 657.687 920.517 657.307C919.68 656.927 918.657 656.737 917.448 656.737H915.541V654.18H917.448C918.394 654.18 919.223 654.009 919.936 653.668C920.657 653.327 921.219 652.846 921.622 652.226C922.033 651.606 922.238 650.878 922.238 650.04C922.238 649.234 922.06 648.533 921.703 647.936C921.347 647.339 920.843 646.874 920.192 646.541C919.548 646.208 918.789 646.041 917.913 646.041C917.091 646.041 916.316 646.192 915.588 646.494C914.867 646.789 914.278 647.219 913.82 647.785C913.363 648.343 913.115 649.017 913.076 649.808H910.286C910.332 648.56 910.708 647.467 911.414 646.529C912.119 645.584 913.041 644.847 914.181 644.32C915.328 643.793 916.588 643.53 917.96 643.53C919.432 643.53 920.696 643.828 921.75 644.425C922.804 645.014 923.614 645.793 924.18 646.762C924.746 647.731 925.029 648.777 925.029 649.901C925.029 651.242 924.676 652.385 923.971 653.331C923.273 654.276 922.323 654.931 921.122 655.296V655.482C922.626 655.73 923.8 656.369 924.645 657.4C925.49 658.423 925.912 659.691 925.912 661.202C925.912 662.497 925.559 663.659 924.854 664.69C924.157 665.713 923.203 666.519 921.994 667.108C920.785 667.698 919.409 667.992 917.866 667.992Z"></path>
    <path style="fill: var(--color-illustrationInterface100)" d="M994.042 662.783V660.411L1004.51 643.855H1006.23V647.529H1005.06L997.158 660.039V660.225H1011.25V662.783H994.042ZM1005.25 667.667V662.062V660.958V643.855H1007.99V667.667H1005.25Z"></path>
  </g>
  <path style="fill: var(--color-illustrationInterface100)" d="M899.797 585.815V583.722L907.657 575.118C908.579 574.111 909.339 573.235 909.935 572.491C910.532 571.739 910.974 571.033 911.261 570.374C911.555 569.708 911.703 569.01 911.703 568.282C911.703 567.445 911.501 566.72 911.098 566.108C910.703 565.495 910.16 565.022 909.47 564.689C908.78 564.356 908.005 564.189 907.145 564.189C906.23 564.189 905.432 564.379 904.75 564.759C904.075 565.131 903.552 565.654 903.18 566.328C902.816 567.003 902.634 567.793 902.634 568.7H899.89C899.89 567.305 900.212 566.08 900.855 565.026C901.498 563.972 902.374 563.15 903.483 562.561C904.599 561.972 905.851 561.678 907.238 561.678C908.633 561.678 909.869 561.972 910.947 562.561C912.024 563.15 912.869 563.945 913.481 564.945C914.094 565.945 914.4 567.057 914.4 568.282C914.4 569.158 914.241 570.014 913.923 570.851C913.613 571.681 913.071 572.607 912.296 573.63C911.528 574.645 910.462 575.886 909.098 577.351L903.75 583.071V583.257H914.819V585.815H899.797Z"></path>
  <path style="fill: var(--color-illustrationInterface100)" d="M920.364 585.815L931.015 564.747V564.561H918.737V562.003H933.991V564.701L923.387 585.815H920.364Z"></path>
  <path style="fill: var(--color-illustrationInterface100)" d="M813.574 585.815V583.722L821.434 575.118C822.356 574.111 823.116 573.235 823.713 572.491C824.31 571.739 824.751 571.033 825.038 570.375C825.333 569.708 825.48 569.01 825.48 568.282C825.48 567.445 825.278 566.72 824.875 566.108C824.48 565.495 823.937 565.022 823.248 564.689C822.558 564.356 821.783 564.189 820.922 564.189C820.008 564.189 819.209 564.379 818.527 564.759C817.853 565.131 817.33 565.654 816.958 566.329C816.593 567.003 816.411 567.793 816.411 568.7H813.667C813.667 567.305 813.989 566.08 814.632 565.026C815.276 563.972 816.151 563.151 817.26 562.561C818.376 561.972 819.628 561.678 821.015 561.678C822.41 561.678 823.647 561.972 824.724 562.561C825.802 563.151 826.646 563.945 827.259 564.945C827.871 565.945 828.177 567.057 828.177 568.282C828.177 569.158 828.018 570.014 827.701 570.851C827.391 571.681 826.848 572.607 826.073 573.63C825.306 574.645 824.24 575.886 822.876 577.351L817.527 583.071V583.257H828.596V585.815H813.574Z"></path>
  <path style="fill: var(--color-illustrationInterface100)" d="M841.304 586.14C840.327 586.125 839.351 585.939 838.374 585.582C837.397 585.226 836.506 584.625 835.7 583.78C834.894 582.928 834.246 581.777 833.758 580.327C833.27 578.87 833.026 577.041 833.026 574.839C833.026 572.723 833.223 570.847 833.619 569.212C834.014 567.569 834.588 566.185 835.339 565.061C836.091 563.937 836.998 563.085 838.06 562.503C839.13 561.922 840.335 561.631 841.676 561.631C843.009 561.631 844.195 561.899 845.234 562.434C846.28 562.968 847.133 563.713 847.792 564.666C848.45 565.612 848.877 566.708 849.07 567.956H846.234C845.97 566.863 845.458 565.964 844.699 565.259C843.939 564.546 842.932 564.189 841.676 564.189C839.831 564.189 838.378 564.995 837.316 566.608C836.262 568.212 835.731 570.475 835.723 573.398H835.909C836.343 572.739 836.859 572.177 837.455 571.712C838.06 571.239 838.727 570.875 839.455 570.619C840.184 570.363 840.955 570.235 841.769 570.235C843.133 570.235 844.381 570.576 845.513 571.258C846.644 571.933 847.551 572.867 848.233 574.06C848.915 575.246 849.257 576.607 849.257 578.141C849.257 579.614 848.927 580.963 848.268 582.187C847.609 583.404 846.683 584.373 845.489 585.094C844.304 585.807 842.908 586.156 841.304 586.14ZM841.304 583.583C842.281 583.583 843.156 583.338 843.931 582.85C844.714 582.362 845.331 581.707 845.78 580.885C846.237 580.064 846.466 579.149 846.466 578.141C846.466 577.157 846.245 576.262 845.803 575.455C845.369 574.642 844.769 573.994 844.001 573.514C843.242 573.033 842.374 572.793 841.397 572.793C840.661 572.793 839.975 572.94 839.339 573.235C838.703 573.522 838.145 573.917 837.665 574.421C837.192 574.925 836.82 575.502 836.549 576.153C836.277 576.796 836.142 577.475 836.142 578.188C836.142 579.133 836.363 580.017 836.804 580.839C837.254 581.66 837.866 582.323 838.641 582.827C839.424 583.331 840.312 583.583 841.304 583.583Z"></path>
  <path style="fill: var(--color-illustrationInterface100)" d="M727.969 585.815V583.722L735.828 575.118C736.751 574.111 737.51 573.235 738.107 572.491C738.704 571.739 739.146 571.033 739.433 570.374C739.727 569.708 739.874 569.01 739.874 568.282C739.874 567.445 739.673 566.72 739.27 566.108C738.875 565.495 738.332 565.022 737.642 564.689C736.952 564.356 736.177 564.189 735.317 564.189C734.402 564.189 733.604 564.379 732.922 564.759C732.247 565.131 731.724 565.654 731.352 566.328C730.988 567.003 730.806 567.793 730.806 568.7H728.062C728.062 567.305 728.383 566.08 729.027 565.026C729.67 563.972 730.546 563.15 731.654 562.561C732.771 561.972 734.022 561.678 735.41 561.678C736.805 561.678 738.041 561.972 739.119 562.561C740.196 563.15 741.041 563.945 741.653 564.945C742.266 565.945 742.572 567.057 742.572 568.282C742.572 569.158 742.413 570.014 742.095 570.851C741.785 571.681 741.243 572.607 740.467 573.63C739.7 574.645 738.634 575.886 737.27 577.351L731.922 583.071V583.257H742.99V585.815H727.969Z"></path>
  <path style="fill: var(--color-illustrationInterface100)" d="M755.233 586.14C753.869 586.14 752.641 585.869 751.548 585.326C750.455 584.784 749.579 584.04 748.92 583.094C748.261 582.148 747.901 581.071 747.839 579.862H750.629C750.738 580.939 751.226 581.831 752.094 582.536C752.97 583.234 754.016 583.582 755.233 583.582C756.21 583.582 757.078 583.354 757.838 582.896C758.605 582.439 759.206 581.811 759.64 581.013C760.082 580.207 760.303 579.296 760.303 578.281C760.303 577.242 760.074 576.316 759.617 575.502C759.167 574.68 758.547 574.033 757.756 573.56C756.966 573.087 756.063 572.847 755.047 572.839C754.319 572.832 753.571 572.944 752.803 573.177C752.036 573.401 751.404 573.692 750.908 574.049L748.211 573.723L749.653 562.003H762.023V564.561H752.071L751.234 571.584H751.373C751.862 571.196 752.474 570.874 753.21 570.619C753.947 570.363 754.714 570.235 755.512 570.235C756.97 570.235 758.268 570.584 759.407 571.281C760.554 571.971 761.454 572.917 762.105 574.118C762.764 575.32 763.093 576.692 763.093 578.234C763.093 579.753 762.752 581.11 762.07 582.303C761.395 583.489 760.465 584.427 759.279 585.117C758.093 585.799 756.745 586.14 755.233 586.14Z"></path>
  <path style="fill: var(--color-illustrationInterface100)" d="M642.82 585.815V583.722L650.68 575.118C651.602 574.111 652.362 573.235 652.959 572.491C653.556 571.739 653.997 571.033 654.284 570.374C654.579 569.708 654.726 569.01 654.726 568.282C654.726 567.445 654.525 566.72 654.121 566.108C653.726 565.495 653.184 565.022 652.494 564.689C651.804 564.356 651.029 564.189 650.168 564.189C649.254 564.189 648.455 564.379 647.773 564.759C647.099 565.131 646.576 565.654 646.204 566.328C645.839 567.003 645.657 567.793 645.657 568.7H642.913C642.913 567.305 643.235 566.08 643.878 565.026C644.522 563.972 645.398 563.15 646.506 562.561C647.622 561.972 648.874 561.678 650.261 561.678C651.657 561.678 652.893 561.972 653.97 562.561C655.048 563.15 655.893 563.945 656.505 564.945C657.117 565.945 657.423 567.057 657.423 568.282C657.423 569.158 657.265 570.014 656.947 570.851C656.637 571.681 656.094 572.607 655.319 573.63C654.552 574.645 653.486 575.886 652.122 577.351L646.773 583.071V583.257H657.842V585.815H642.82Z"></path>
  <path style="fill: var(--color-illustrationInterface100)" d="M661.574 580.932V578.56L672.038 562.003H673.759V565.677H672.596L664.69 578.188V578.374H678.782V580.932H661.574ZM672.782 585.815V580.211V579.106V562.003H675.526V585.815H672.782Z"></path>
  <defs>
    
    <clipPath id="nk-1243">
      <rect style="fill: var(--color-white)" width="206.111" height="49" transform="translate(446.74 148.796)"></rect>
    </clipPath>
    <clipPath id="nk-1244">
      <rect style="fill: var(--color-white)" width="597.519" height="49.1111" transform="translate(446.74 230.593)"></rect>
    </clipPath>
  </defs>
</svg>
