<svg id="components-select-usage-do-2" style="width: 100%; height: 100%" width="1490" height="838" viewBox="0 0 1490 838" fill="none" xmlns="http://www.w3.org/2000/svg" class="css-0"><path style="fill:var(--color-illustrationBackground010)" d="M0 0H1490V838H0V0Z"></path><path style="fill:var(--color-illustrationHighlight010)" d="M589.621 163.665V165.898H582.538V170.82H588.06V173.053H582.538V180.353H579.801V163.665H589.621ZM604.139 167.123V180.353H601.402V178.792C600.969 179.336 600.401 179.768 599.697 180.088C599.008 180.393 598.272 180.545 597.488 180.545C596.447 180.545 595.511 180.329 594.679 179.896C593.862 179.464 593.214 178.824 592.734 177.976C592.27 177.127 592.038 176.103 592.038 174.902V167.123H594.751V174.494C594.751 175.679 595.047 176.591 595.639 177.231C596.231 177.855 597.04 178.168 598.064 178.168C599.089 178.168 599.897 177.855 600.489 177.231C601.097 176.591 601.402 175.679 601.402 174.494V167.123H604.139ZM610.487 162.585V180.353H607.75V162.585H610.487ZM616.818 162.585V180.353H614.081V162.585H616.818ZM633.324 166.907C634.364 166.907 635.292 167.123 636.109 167.555C636.941 167.987 637.589 168.628 638.054 169.476C638.518 170.324 638.75 171.349 638.75 172.549V180.353H636.037V172.957C636.037 171.773 635.741 170.869 635.148 170.244C634.556 169.604 633.748 169.284 632.723 169.284C631.699 169.284 630.883 169.604 630.274 170.244C629.682 170.869 629.386 171.773 629.386 172.957V180.353H626.649V167.123H629.386V168.636C629.834 168.091 630.402 167.667 631.091 167.363C631.795 167.059 632.539 166.907 633.324 166.907ZM641.329 173.678C641.329 172.349 641.601 171.173 642.145 170.148C642.706 169.124 643.458 168.331 644.402 167.771C645.363 167.195 646.419 166.907 647.572 166.907C648.612 166.907 649.516 167.115 650.285 167.531C651.069 167.931 651.693 168.435 652.158 169.044V167.123H654.919V180.353H652.158V178.384C651.693 179.008 651.061 179.528 650.261 179.944C649.46 180.361 648.548 180.569 647.524 180.569C646.387 180.569 645.347 180.281 644.402 179.704C643.458 179.112 642.706 178.296 642.145 177.255C641.601 176.199 641.329 175.006 641.329 173.678ZM652.158 173.726C652.158 172.813 651.966 172.021 651.581 171.349C651.213 170.676 650.725 170.164 650.117 169.812C649.508 169.46 648.852 169.284 648.148 169.284C647.444 169.284 646.787 169.46 646.179 169.812C645.571 170.148 645.075 170.652 644.69 171.325C644.322 171.981 644.138 172.765 644.138 173.678C644.138 174.59 644.322 175.39 644.69 176.079C645.075 176.767 645.571 177.295 646.179 177.663C646.803 178.016 647.46 178.192 648.148 178.192C648.852 178.192 649.508 178.016 650.117 177.663C650.725 177.311 651.213 176.799 651.581 176.127C651.966 175.438 652.158 174.638 652.158 173.726ZM674.529 166.907C675.569 166.907 676.498 167.123 677.314 167.555C678.146 167.987 678.795 168.628 679.259 169.476C679.739 170.324 679.979 171.349 679.979 172.549V180.353H677.266V172.957C677.266 171.773 676.97 170.869 676.378 170.244C675.785 169.604 674.977 169.284 673.952 169.284C672.928 169.284 672.112 169.604 671.503 170.244C670.911 170.869 670.615 171.773 670.615 172.957V180.353H667.902V172.957C667.902 171.773 667.606 170.869 667.014 170.244C666.421 169.604 665.613 169.284 664.589 169.284C663.564 169.284 662.748 169.604 662.139 170.244C661.547 170.869 661.251 171.773 661.251 172.957V180.353H658.514V167.123H661.251V168.636C661.699 168.091 662.268 167.667 662.956 167.363C663.644 167.059 664.38 166.907 665.165 166.907C666.221 166.907 667.166 167.131 667.998 167.579C668.83 168.027 669.471 168.676 669.919 169.524C670.319 168.724 670.943 168.091 671.792 167.627C672.64 167.147 673.552 166.907 674.529 166.907ZM695.587 173.414C695.587 173.91 695.555 174.358 695.491 174.758H685.383C685.463 175.815 685.855 176.663 686.559 177.303C687.264 177.944 688.128 178.264 689.152 178.264C690.625 178.264 691.666 177.647 692.274 176.415H695.227C694.827 177.631 694.099 178.632 693.042 179.416C692.002 180.184 690.705 180.569 689.152 180.569C687.888 180.569 686.751 180.289 685.743 179.728C684.751 179.152 683.966 178.352 683.39 177.327C682.83 176.287 682.55 175.086 682.55 173.726C682.55 172.365 682.822 171.173 683.366 170.148C683.926 169.108 684.703 168.307 685.695 167.747C686.703 167.187 687.856 166.907 689.152 166.907C690.401 166.907 691.513 167.179 692.49 167.723C693.466 168.267 694.227 169.036 694.771 170.028C695.315 171.005 695.587 172.133 695.587 173.414ZM692.73 172.549C692.714 171.541 692.354 170.732 691.65 170.124C690.945 169.516 690.073 169.212 689.032 169.212C688.088 169.212 687.28 169.516 686.607 170.124C685.935 170.716 685.535 171.525 685.407 172.549H692.73Z"></path><rect style="fill:var(--color-interfaceBackground)" x="578.71" y="210.73" width="330.58" height="94.6005" rx="11.29"></rect><rect x="578.71" y="210.73" width="330.58" height="94.6005" rx="11.29" stroke="#BBC3C9" stroke-width="1.41992"></rect><path style="fill:var(--color-illustrationHighlight010)" d="M585.299 364.59C584.179 364.59 583.17 364.398 582.274 364.014C581.377 363.614 580.673 363.053 580.161 362.333C579.649 361.613 579.393 360.772 579.393 359.812H582.322C582.386 360.532 582.666 361.124 583.162 361.589C583.674 362.053 584.387 362.285 585.299 362.285C586.244 362.285 586.98 362.061 587.508 361.613C588.036 361.148 588.3 360.556 588.3 359.836C588.3 359.276 588.132 358.819 587.796 358.467C587.476 358.115 587.068 357.843 586.572 357.651C586.091 357.459 585.419 357.251 584.555 357.027C583.466 356.739 582.578 356.45 581.89 356.162C581.217 355.858 580.641 355.394 580.161 354.77C579.681 354.146 579.441 353.313 579.441 352.273C579.441 351.312 579.681 350.472 580.161 349.752C580.641 349.031 581.313 348.479 582.178 348.095C583.042 347.711 584.043 347.519 585.179 347.519C586.796 347.519 588.116 347.927 589.141 348.743C590.181 349.544 590.757 350.648 590.869 352.057H587.844C587.796 351.448 587.508 350.928 586.98 350.496C586.452 350.064 585.755 349.848 584.891 349.848C584.107 349.848 583.466 350.048 582.97 350.448C582.474 350.848 582.226 351.424 582.226 352.177C582.226 352.689 582.378 353.113 582.682 353.449C583.002 353.769 583.402 354.025 583.883 354.218C584.363 354.41 585.019 354.618 585.851 354.842C586.956 355.146 587.852 355.45 588.54 355.754C589.245 356.058 589.837 356.531 590.317 357.171C590.813 357.795 591.062 358.635 591.062 359.692C591.062 360.54 590.829 361.341 590.365 362.093C589.917 362.845 589.253 363.453 588.372 363.918C587.508 364.366 586.484 364.59 585.299 364.59ZM600.03 364.638C598.781 364.638 597.653 364.358 596.644 363.798C595.636 363.221 594.844 362.421 594.267 361.397C593.691 360.356 593.403 359.156 593.403 357.795C593.403 356.45 593.699 355.258 594.291 354.218C594.884 353.177 595.692 352.377 596.716 351.817C597.741 351.256 598.885 350.976 600.15 350.976C601.414 350.976 602.559 351.256 603.583 351.817C604.608 352.377 605.416 353.177 606.008 354.218C606.601 355.258 606.897 356.45 606.897 357.795C606.897 359.14 606.593 360.332 605.984 361.373C605.376 362.413 604.544 363.221 603.487 363.798C602.447 364.358 601.294 364.638 600.03 364.638ZM600.03 362.261C600.734 362.261 601.39 362.093 601.999 361.757C602.623 361.421 603.127 360.916 603.511 360.244C603.895 359.572 604.087 358.755 604.087 357.795C604.087 356.835 603.903 356.026 603.535 355.37C603.167 354.698 602.679 354.194 602.071 353.857C601.462 353.521 600.806 353.353 600.102 353.353C599.397 353.353 598.741 353.521 598.133 353.857C597.541 354.194 597.068 354.698 596.716 355.37C596.364 356.026 596.188 356.835 596.188 357.795C596.188 359.22 596.548 360.324 597.269 361.108C598.005 361.877 598.925 362.261 600.03 362.261ZM608.69 357.795C608.69 356.434 608.962 355.242 609.506 354.218C610.067 353.177 610.835 352.377 611.811 351.817C612.788 351.256 613.908 350.976 615.173 350.976C616.774 350.976 618.094 351.36 619.135 352.129C620.191 352.881 620.903 353.961 621.271 355.37H618.318C618.078 354.714 617.694 354.202 617.166 353.833C616.637 353.465 615.973 353.281 615.173 353.281C614.052 353.281 613.156 353.681 612.484 354.482C611.827 355.266 611.499 356.37 611.499 357.795C611.499 359.22 611.827 360.332 612.484 361.132C613.156 361.933 614.052 362.333 615.173 362.333C616.758 362.333 617.806 361.637 618.318 360.244H621.271C620.887 361.589 620.167 362.661 619.111 363.461C618.054 364.246 616.742 364.638 615.173 364.638C613.908 364.638 612.788 364.358 611.811 363.798C610.835 363.221 610.067 362.421 609.506 361.397C608.962 360.356 608.69 359.156 608.69 357.795ZM625.392 349.44C624.896 349.44 624.479 349.271 624.143 348.935C623.807 348.599 623.639 348.183 623.639 347.687C623.639 347.191 623.807 346.774 624.143 346.438C624.479 346.102 624.896 345.934 625.392 345.934C625.872 345.934 626.28 346.102 626.616 346.438C626.953 346.774 627.121 347.191 627.121 347.687C627.121 348.183 626.953 348.599 626.616 348.935C626.28 349.271 625.872 349.44 625.392 349.44ZM626.736 351.192V364.422H623.999V351.192H626.736ZM629.418 357.747C629.418 356.418 629.69 355.242 630.234 354.218C630.794 353.193 631.547 352.401 632.491 351.841C633.451 351.264 634.508 350.976 635.66 350.976C636.701 350.976 637.605 351.184 638.373 351.6C639.158 352.001 639.782 352.505 640.246 353.113V351.192H643.007V364.422H640.246V362.453C639.782 363.077 639.15 363.598 638.349 364.014C637.549 364.43 636.637 364.638 635.612 364.638C634.476 364.638 633.435 364.35 632.491 363.774C631.547 363.181 630.794 362.365 630.234 361.325C629.69 360.268 629.418 359.076 629.418 357.747ZM640.246 357.795C640.246 356.883 640.054 356.09 639.67 355.418C639.302 354.746 638.814 354.234 638.205 353.881C637.597 353.529 636.941 353.353 636.237 353.353C635.532 353.353 634.876 353.529 634.268 353.881C633.659 354.218 633.163 354.722 632.779 355.394C632.411 356.05 632.227 356.835 632.227 357.747C632.227 358.659 632.411 359.46 632.779 360.148C633.163 360.836 633.659 361.365 634.268 361.733C634.892 362.085 635.548 362.261 636.237 362.261C636.941 362.261 637.597 362.085 638.205 361.733C638.814 361.381 639.302 360.868 639.67 360.196C640.054 359.508 640.246 358.707 640.246 357.795ZM649.34 346.654V364.422H646.603V346.654H649.34ZM663.973 364.638C662.932 364.638 661.996 364.454 661.163 364.086C660.347 363.702 659.699 363.189 659.218 362.549C658.738 361.893 658.482 361.164 658.45 360.364H661.283C661.331 360.924 661.595 361.397 662.076 361.781C662.572 362.149 663.188 362.333 663.924 362.333C664.693 362.333 665.285 362.189 665.701 361.901C666.133 361.597 666.35 361.213 666.35 360.748C666.35 360.252 666.109 359.884 665.629 359.644C665.165 359.404 664.421 359.14 663.396 358.852C662.404 358.579 661.595 358.315 660.971 358.059C660.347 357.803 659.803 357.411 659.339 356.883C658.89 356.354 658.666 355.658 658.666 354.794C658.666 354.089 658.874 353.449 659.291 352.873C659.707 352.281 660.299 351.817 661.067 351.48C661.852 351.144 662.748 350.976 663.756 350.976C665.261 350.976 666.47 351.36 667.382 352.129C668.31 352.881 668.807 353.913 668.871 355.226H666.133C666.085 354.634 665.845 354.162 665.413 353.809C664.981 353.457 664.397 353.281 663.66 353.281C662.94 353.281 662.388 353.417 662.004 353.689C661.62 353.961 661.427 354.322 661.427 354.77C661.427 355.122 661.555 355.418 661.812 355.658C662.068 355.898 662.38 356.09 662.748 356.234C663.116 356.362 663.66 356.531 664.381 356.739C665.341 356.995 666.125 357.259 666.734 357.531C667.358 357.787 667.894 358.171 668.342 358.683C668.791 359.196 669.023 359.876 669.039 360.724C669.039 361.477 668.831 362.149 668.414 362.741C667.998 363.333 667.406 363.798 666.638 364.134C665.885 364.47 664.997 364.638 663.973 364.638ZM684.121 357.483C684.121 357.979 684.089 358.427 684.025 358.827H673.917C673.997 359.884 674.389 360.732 675.094 361.373C675.798 362.013 676.662 362.333 677.687 362.333C679.159 362.333 680.2 361.717 680.808 360.484H683.761C683.361 361.701 682.633 362.701 681.576 363.485C680.536 364.254 679.239 364.638 677.687 364.638C676.422 364.638 675.286 364.358 674.277 363.798C673.285 363.221 672.5 362.421 671.924 361.397C671.364 360.356 671.084 359.156 671.084 357.795C671.084 356.434 671.356 355.242 671.9 354.218C672.46 353.177 673.237 352.377 674.229 351.817C675.238 351.256 676.39 350.976 677.687 350.976C678.935 350.976 680.048 351.248 681.024 351.793C682 352.337 682.761 353.105 683.305 354.097C683.849 355.074 684.121 356.202 684.121 357.483ZM681.264 356.619C681.248 355.61 680.888 354.802 680.184 354.194C679.479 353.585 678.607 353.281 677.567 353.281C676.622 353.281 675.814 353.585 675.142 354.194C674.469 354.786 674.069 355.594 673.941 356.619H681.264ZM685.903 357.795C685.903 356.434 686.175 355.242 686.719 354.218C687.279 353.177 688.048 352.377 689.024 351.817C690 351.256 691.121 350.976 692.385 350.976C693.986 350.976 695.307 351.36 696.347 352.129C697.404 352.881 698.116 353.961 698.484 355.37H695.531C695.291 354.714 694.906 354.202 694.378 353.833C693.85 353.465 693.186 353.281 692.385 353.281C691.265 353.281 690.369 353.681 689.696 354.482C689.04 355.266 688.712 356.37 688.712 357.795C688.712 359.22 689.04 360.332 689.696 361.132C690.369 361.933 691.265 362.333 692.385 362.333C693.97 362.333 695.019 361.637 695.531 360.244H698.484C698.1 361.589 697.38 362.661 696.323 363.461C695.267 364.246 693.954 364.638 692.385 364.638C691.121 364.638 690 364.358 689.024 363.798C688.048 363.221 687.279 362.421 686.719 361.397C686.175 360.356 685.903 359.156 685.903 357.795ZM713.193 351.192V364.422H710.456V362.861C710.024 363.405 709.455 363.838 708.751 364.158C708.063 364.462 707.326 364.614 706.542 364.614C705.502 364.614 704.565 364.398 703.733 363.966C702.917 363.533 702.268 362.893 701.788 362.045C701.324 361.197 701.092 360.172 701.092 358.972V351.192H703.805V358.563C703.805 359.748 704.101 360.66 704.693 361.301C705.286 361.925 706.094 362.237 707.118 362.237C708.143 362.237 708.951 361.925 709.543 361.301C710.152 360.66 710.456 359.748 710.456 358.563V351.192H713.193ZM719.542 353.113C719.942 352.441 720.47 351.921 721.126 351.552C721.798 351.168 722.591 350.976 723.503 350.976V353.809H722.807C721.734 353.809 720.918 354.081 720.358 354.626C719.814 355.17 719.542 356.114 719.542 357.459V364.422H716.804V351.192H719.542V353.113ZM727.412 349.44C726.916 349.44 726.499 349.271 726.163 348.935C725.827 348.599 725.659 348.183 725.659 347.687C725.659 347.191 725.827 346.774 726.163 346.438C726.499 346.102 726.916 345.934 727.412 345.934C727.892 345.934 728.3 346.102 728.636 346.438C728.972 346.774 729.141 347.191 729.141 347.687C729.141 348.183 728.972 348.599 728.636 348.935C728.3 349.271 727.892 349.44 727.412 349.44ZM728.756 351.192V364.422H726.019V351.192H728.756ZM735.543 353.425V360.748C735.543 361.245 735.655 361.605 735.88 361.829C736.12 362.037 736.52 362.141 737.08 362.141H738.761V364.422H736.6C735.367 364.422 734.423 364.134 733.767 363.558C733.11 362.981 732.782 362.045 732.782 360.748V353.425H731.222V351.192H732.782V347.903H735.543V351.192H738.761V353.425H735.543ZM753.193 351.192L745.077 370.641H742.244L744.933 364.206L739.723 351.192H742.772L746.494 361.277L750.359 351.192H753.193ZM768.17 350.976C769.211 350.976 770.139 351.192 770.955 351.624C771.788 352.057 772.436 352.697 772.9 353.545C773.364 354.394 773.596 355.418 773.596 356.619V364.422H770.883V357.027C770.883 355.842 770.587 354.938 769.995 354.314C769.403 353.673 768.594 353.353 767.57 353.353C766.545 353.353 765.729 353.673 765.121 354.314C764.529 354.938 764.232 355.842 764.232 357.027V364.422H761.495V351.192H764.232V352.705C764.681 352.161 765.249 351.736 765.937 351.432C766.641 351.128 767.386 350.976 768.17 350.976ZM789.069 351.192V364.422H786.332V362.861C785.9 363.405 785.331 363.838 784.627 364.158C783.939 364.462 783.202 364.614 782.418 364.614C781.378 364.614 780.441 364.398 779.609 363.966C778.793 363.533 778.144 362.893 777.664 362.045C777.2 361.197 776.968 360.172 776.968 358.972V351.192H779.681V358.563C779.681 359.748 779.977 360.66 780.569 361.301C781.162 361.925 781.97 362.237 782.994 362.237C784.019 362.237 784.827 361.925 785.419 361.301C786.028 360.66 786.332 359.748 786.332 358.563V351.192H789.069ZM808.695 350.976C809.736 350.976 810.664 351.192 811.48 351.624C812.313 352.057 812.961 352.697 813.425 353.545C813.905 354.394 814.146 355.418 814.146 356.619V364.422H811.432V357.027C811.432 355.842 811.136 354.938 810.544 354.314C809.952 353.673 809.143 353.353 808.119 353.353C807.095 353.353 806.278 353.673 805.67 354.314C805.078 354.938 804.782 355.842 804.782 357.027V364.422H802.068V357.027C802.068 355.842 801.772 354.938 801.18 354.314C800.588 353.673 799.779 353.353 798.755 353.353C797.731 353.353 796.914 353.673 796.306 354.314C795.714 354.938 795.418 355.842 795.418 357.027V364.422H792.68V351.192H795.418V352.705C795.866 352.161 796.434 351.736 797.122 351.432C797.811 351.128 798.547 350.976 799.331 350.976C800.388 350.976 801.332 351.2 802.164 351.648C802.997 352.097 803.637 352.745 804.085 353.593C804.485 352.793 805.11 352.161 805.958 351.696C806.806 351.216 807.719 350.976 808.695 350.976ZM820.366 353.161C820.83 352.521 821.462 352.001 822.262 351.6C823.079 351.184 823.983 350.976 824.976 350.976C826.144 350.976 827.201 351.256 828.145 351.817C829.089 352.377 829.834 353.177 830.378 354.218C830.922 355.242 831.194 356.418 831.194 357.747C831.194 359.076 830.922 360.268 830.378 361.325C829.834 362.365 829.081 363.181 828.121 363.774C827.177 364.35 826.128 364.638 824.976 364.638C823.951 364.638 823.039 364.438 822.238 364.038C821.454 363.638 820.83 363.125 820.366 362.501V364.422H817.628V346.654H820.366V353.161ZM828.409 357.747C828.409 356.835 828.217 356.05 827.833 355.394C827.465 354.722 826.968 354.218 826.344 353.881C825.736 353.529 825.08 353.353 824.375 353.353C823.687 353.353 823.031 353.529 822.407 353.881C821.798 354.234 821.302 354.746 820.918 355.418C820.55 356.09 820.366 356.883 820.366 357.795C820.366 358.707 820.55 359.508 820.918 360.196C821.302 360.868 821.798 361.381 822.407 361.733C823.031 362.085 823.687 362.261 824.375 362.261C825.08 362.261 825.736 362.085 826.344 361.733C826.968 361.365 827.465 360.836 827.833 360.148C828.217 359.46 828.409 358.659 828.409 357.747ZM846.026 357.483C846.026 357.979 845.994 358.427 845.93 358.827H835.822C835.902 359.884 836.294 360.732 836.998 361.373C837.703 362.013 838.567 362.333 839.591 362.333C841.064 362.333 842.105 361.717 842.713 360.484H845.666C845.266 361.701 844.538 362.701 843.481 363.485C842.441 364.254 841.144 364.638 839.591 364.638C838.327 364.638 837.19 364.358 836.182 363.798C835.19 363.221 834.405 362.421 833.829 361.397C833.269 360.356 832.989 359.156 832.989 357.795C832.989 356.434 833.261 355.242 833.805 354.218C834.365 353.177 835.142 352.377 836.134 351.817C837.142 351.256 838.295 350.976 839.591 350.976C840.84 350.976 841.952 351.248 842.929 351.793C843.905 352.337 844.666 353.105 845.21 354.097C845.754 355.074 846.026 356.202 846.026 357.483ZM843.169 356.619C843.153 355.61 842.793 354.802 842.089 354.194C841.384 353.585 840.512 353.281 839.471 353.281C838.527 353.281 837.719 353.585 837.046 354.194C836.374 354.786 835.974 355.594 835.846 356.619H843.169ZM851.457 353.113C851.857 352.441 852.385 351.921 853.042 351.552C853.714 351.168 854.506 350.976 855.419 350.976V353.809H854.722C853.65 353.809 852.834 354.081 852.273 354.626C851.729 355.17 851.457 356.114 851.457 357.459V364.422H848.72V351.192H851.457V353.113Z"></path><rect style="fill:var(--color-interfaceBackground)" x="578.71" y="394.8" width="330.58" height="94.6005" rx="11.29"></rect><rect x="578.71" y="394.8" width="330.58" height="94.6005" rx="11.29" stroke="#BBC3C9" stroke-width="1.41992"></rect><path style="fill:var(--color-illustrationHighlight010)" d="M582.538 531.807V548.494H579.801V531.807H582.538ZM592.806 535.048C593.847 535.048 594.775 535.265 595.592 535.697C596.424 536.129 597.072 536.769 597.536 537.618C598.001 538.466 598.233 539.49 598.233 540.691V548.494H595.52V541.099C595.52 539.914 595.223 539.01 594.631 538.386C594.039 537.746 593.231 537.425 592.206 537.425C591.182 537.425 590.365 537.746 589.757 538.386C589.165 539.01 588.869 539.914 588.869 541.099V548.494H586.132V535.265H588.869V536.777C589.317 536.233 589.885 535.809 590.573 535.505C591.278 535.2 592.022 535.048 592.806 535.048ZM625.729 535.265L621.623 548.494H618.742L616.077 538.722L613.412 548.494H610.53L606.401 535.265H609.186L611.947 545.901L614.756 535.265H617.613L620.302 545.853L623.04 535.265H625.729ZM634.617 535.048C635.626 535.048 636.522 535.265 637.306 535.697C638.107 536.129 638.731 536.769 639.179 537.618C639.643 538.466 639.875 539.49 639.875 540.691V548.494H637.162V541.099C637.162 539.914 636.866 539.01 636.274 538.386C635.682 537.746 634.873 537.425 633.849 537.425C632.824 537.425 632.008 537.746 631.4 538.386C630.808 539.01 630.511 539.914 630.511 541.099V548.494H627.774V530.727H630.511V536.801C630.976 536.241 631.56 535.809 632.264 535.505C632.985 535.2 633.769 535.048 634.617 535.048ZM644.759 533.512C644.263 533.512 643.847 533.344 643.511 533.008C643.175 532.671 643.007 532.255 643.007 531.759C643.007 531.263 643.175 530.847 643.511 530.51C643.847 530.174 644.263 530.006 644.759 530.006C645.24 530.006 645.648 530.174 645.984 530.51C646.32 530.847 646.488 531.263 646.488 531.759C646.488 532.255 646.32 532.671 645.984 533.008C645.648 533.344 645.24 533.512 644.759 533.512ZM646.104 535.265V548.494H643.367V535.265H646.104ZM648.785 541.867C648.785 540.507 649.057 539.314 649.602 538.29C650.162 537.249 650.93 536.449 651.907 535.889C652.883 535.329 654.004 535.048 655.268 535.048C656.869 535.048 658.189 535.433 659.23 536.201C660.286 536.953 660.998 538.034 661.367 539.442H658.413C658.173 538.786 657.789 538.274 657.261 537.906C656.733 537.537 656.068 537.353 655.268 537.353C654.148 537.353 653.251 537.754 652.579 538.554C651.923 539.338 651.594 540.443 651.594 541.867C651.594 543.292 651.923 544.404 652.579 545.205C653.251 546.005 654.148 546.405 655.268 546.405C656.853 546.405 657.901 545.709 658.413 544.316H661.367C660.982 545.661 660.262 546.733 659.206 547.534C658.149 548.318 656.837 548.71 655.268 548.71C654.004 548.71 652.883 548.43 651.907 547.87C650.93 547.294 650.162 546.493 649.602 545.469C649.057 544.428 648.785 543.228 648.785 541.867ZM670.937 535.048C671.946 535.048 672.842 535.265 673.626 535.697C674.427 536.129 675.051 536.769 675.499 537.618C675.963 538.466 676.196 539.49 676.196 540.691V548.494H673.482V541.099C673.482 539.914 673.186 539.01 672.594 538.386C672.002 537.746 671.193 537.425 670.169 537.425C669.145 537.425 668.328 537.746 667.72 538.386C667.128 539.01 666.832 539.914 666.832 541.099V548.494H664.094V530.727H666.832V536.801C667.296 536.241 667.88 535.809 668.584 535.505C669.305 535.2 670.089 535.048 670.937 535.048ZM688.661 537.209C689.125 536.601 689.758 536.089 690.558 535.673C691.358 535.257 692.263 535.048 693.271 535.048C694.424 535.048 695.472 535.337 696.416 535.913C697.377 536.473 698.129 537.265 698.673 538.29C699.218 539.314 699.49 540.491 699.49 541.819C699.49 543.148 699.218 544.34 698.673 545.397C698.129 546.437 697.377 547.254 696.416 547.846C695.472 548.422 694.424 548.71 693.271 548.71C692.263 548.71 691.366 548.51 690.582 548.11C689.798 547.694 689.157 547.182 688.661 546.573V554.785H685.924V535.265H688.661V537.209ZM696.705 541.819C696.705 540.907 696.513 540.123 696.128 539.466C695.76 538.794 695.264 538.29 694.64 537.954C694.031 537.602 693.375 537.425 692.671 537.425C691.983 537.425 691.326 537.602 690.702 537.954C690.094 538.306 689.598 538.818 689.213 539.49C688.845 540.163 688.661 540.955 688.661 541.867C688.661 542.78 688.845 543.58 689.213 544.268C689.598 544.941 690.094 545.453 690.702 545.805C691.326 546.157 691.983 546.333 692.671 546.333C693.375 546.333 694.031 546.157 694.64 545.805C695.264 545.437 695.76 544.909 696.128 544.22C696.513 543.532 696.705 542.732 696.705 541.819ZM704.934 530.727V548.494H702.197V530.727H704.934ZM707.615 541.819C707.615 540.491 707.887 539.314 708.431 538.29C708.992 537.265 709.744 536.473 710.688 535.913C711.649 535.337 712.705 535.048 713.858 535.048C714.898 535.048 715.802 535.257 716.571 535.673C717.355 536.073 717.979 536.577 718.444 537.185V535.265H721.205V548.494H718.444V546.525C717.979 547.15 717.347 547.67 716.547 548.086C715.746 548.502 714.834 548.71 713.81 548.71C712.673 548.71 711.633 548.422 710.688 547.846C709.744 547.254 708.992 546.437 708.431 545.397C707.887 544.34 707.615 543.148 707.615 541.819ZM718.444 541.867C718.444 540.955 718.252 540.163 717.867 539.49C717.499 538.818 717.011 538.306 716.403 537.954C715.794 537.602 715.138 537.425 714.434 537.425C713.73 537.425 713.073 537.602 712.465 537.954C711.857 538.29 711.361 538.794 710.976 539.466C710.608 540.123 710.424 540.907 710.424 541.819C710.424 542.732 710.608 543.532 710.976 544.22C711.361 544.909 711.857 545.437 712.465 545.805C713.089 546.157 713.746 546.333 714.434 546.333C715.138 546.333 715.794 546.157 716.403 545.805C717.011 545.453 717.499 544.941 717.867 544.268C718.252 543.58 718.444 542.78 718.444 541.867ZM731.475 535.048C732.515 535.048 733.444 535.265 734.26 535.697C735.092 536.129 735.741 536.769 736.205 537.618C736.669 538.466 736.901 539.49 736.901 540.691V548.494H734.188V541.099C734.188 539.914 733.892 539.01 733.3 538.386C732.707 537.746 731.899 537.425 730.875 537.425C729.85 537.425 729.034 537.746 728.425 538.386C727.833 539.01 727.537 539.914 727.537 541.099V548.494H724.8V535.265H727.537V536.777C727.985 536.233 728.554 535.809 729.242 535.505C729.946 535.2 730.69 535.048 731.475 535.048ZM752.518 541.555C752.518 542.051 752.486 542.5 752.422 542.9H742.313C742.393 543.956 742.786 544.805 743.49 545.445C744.194 546.085 745.058 546.405 746.083 546.405C747.556 546.405 748.596 545.789 749.204 544.556H752.158C751.757 545.773 751.029 546.773 749.973 547.558C748.932 548.326 747.636 548.71 746.083 548.71C744.818 548.71 743.682 548.43 742.673 547.87C741.681 547.294 740.897 546.493 740.32 545.469C739.76 544.428 739.48 543.228 739.48 541.867C739.48 540.507 739.752 539.314 740.296 538.29C740.857 537.249 741.633 536.449 742.625 535.889C743.634 535.329 744.786 535.048 746.083 535.048C747.331 535.048 748.444 535.321 749.42 535.865C750.397 536.409 751.157 537.177 751.701 538.17C752.246 539.146 752.518 540.275 752.518 541.555ZM749.66 540.691C749.644 539.682 749.284 538.874 748.58 538.266C747.876 537.658 747.003 537.353 745.963 537.353C745.018 537.353 744.21 537.658 743.538 538.266C742.866 538.858 742.465 539.666 742.337 540.691H749.66ZM758.405 537.497V544.821C758.405 545.317 758.517 545.677 758.741 545.901C758.981 546.109 759.381 546.213 759.941 546.213H761.622V548.494H759.461C758.229 548.494 757.284 548.206 756.628 547.63C755.972 547.054 755.643 546.117 755.643 544.821V537.497H754.083V535.265H755.643V531.975H758.405V535.265H761.622V537.497H758.405ZM769.469 541.819C769.469 540.491 769.742 539.314 770.286 538.29C770.846 537.265 771.598 536.473 772.543 535.913C773.503 535.337 774.568 535.048 775.736 535.048C776.6 535.048 777.449 535.241 778.281 535.625C779.13 535.993 779.802 536.489 780.298 537.113V530.727H783.059V548.494H780.298V546.501C779.85 547.142 779.226 547.67 778.425 548.086C777.641 548.502 776.737 548.71 775.712 548.71C774.56 548.71 773.503 548.422 772.543 547.846C771.598 547.254 770.846 546.437 770.286 545.397C769.742 544.34 769.469 543.148 769.469 541.819ZM780.298 541.867C780.298 540.955 780.106 540.163 779.722 539.49C779.354 538.818 778.865 538.306 778.257 537.954C777.649 537.602 776.993 537.425 776.288 537.425C775.584 537.425 774.928 537.602 774.319 537.954C773.711 538.29 773.215 538.794 772.831 539.466C772.463 540.123 772.279 540.907 772.279 541.819C772.279 542.732 772.463 543.532 772.831 544.22C773.215 544.909 773.711 545.437 774.319 545.805C774.944 546.157 775.6 546.333 776.288 546.333C776.993 546.333 777.649 546.157 778.257 545.805C778.865 545.453 779.354 544.941 779.722 544.268C780.106 543.58 780.298 542.78 780.298 541.867ZM792.393 548.71C791.144 548.71 790.016 548.43 789.007 547.87C787.999 547.294 787.207 546.493 786.63 545.469C786.054 544.428 785.766 543.228 785.766 541.867C785.766 540.523 786.062 539.33 786.654 538.29C787.247 537.249 788.055 536.449 789.079 535.889C790.104 535.329 791.248 535.048 792.513 535.048C793.777 535.048 794.922 535.329 795.946 535.889C796.971 536.449 797.779 537.249 798.371 538.29C798.964 539.33 799.26 540.523 799.26 541.867C799.26 543.212 798.956 544.404 798.347 545.445C797.739 546.485 796.907 547.294 795.85 547.87C794.81 548.43 793.657 548.71 792.393 548.71ZM792.393 546.333C793.097 546.333 793.753 546.165 794.362 545.829C794.986 545.493 795.49 544.989 795.874 544.316C796.258 543.644 796.451 542.828 796.451 541.867C796.451 540.907 796.266 540.099 795.898 539.442C795.53 538.77 795.042 538.266 794.434 537.93C793.825 537.594 793.169 537.425 792.465 537.425C791.761 537.425 791.104 537.594 790.496 537.93C789.904 538.266 789.432 538.77 789.079 539.442C788.727 540.099 788.551 540.907 788.551 541.867C788.551 543.292 788.911 544.396 789.632 545.181C790.368 545.949 791.288 546.333 792.393 546.333ZM820.112 535.265L811.996 554.713H809.163L811.852 548.278L806.642 535.265H809.691L813.413 545.349L817.278 535.265H820.112ZM827.916 548.71C826.667 548.71 825.539 548.43 824.53 547.87C823.522 547.294 822.73 546.493 822.153 545.469C821.577 544.428 821.289 543.228 821.289 541.867C821.289 540.523 821.585 539.33 822.177 538.29C822.77 537.249 823.578 536.449 824.602 535.889C825.627 535.329 826.771 535.048 828.036 535.048C829.3 535.048 830.445 535.329 831.469 535.889C832.494 536.449 833.302 537.249 833.894 538.29C834.487 539.33 834.783 540.523 834.783 541.867C834.783 543.212 834.479 544.404 833.87 545.445C833.262 546.485 832.43 547.294 831.373 547.87C830.333 548.43 829.18 548.71 827.916 548.71ZM827.916 546.333C828.62 546.333 829.276 546.165 829.885 545.829C830.509 545.493 831.013 544.989 831.397 544.316C831.781 543.644 831.973 542.828 831.973 541.867C831.973 540.907 831.789 540.099 831.421 539.442C831.053 538.77 830.565 538.266 829.957 537.93C829.348 537.594 828.692 537.425 827.988 537.425C827.283 537.425 826.627 537.594 826.019 537.93C825.427 538.266 824.954 538.77 824.602 539.442C824.25 540.099 824.074 540.907 824.074 541.867C824.074 543.292 824.434 544.396 825.155 545.181C825.891 545.949 826.811 546.333 827.916 546.333ZM849.47 535.265V548.494H846.732V546.933C846.3 547.478 845.732 547.91 845.028 548.23C844.339 548.534 843.603 548.686 842.819 548.686C841.778 548.686 840.842 548.47 840.01 548.038C839.193 547.606 838.545 546.965 838.065 546.117C837.601 545.269 837.368 544.244 837.368 543.044V535.265H840.082V542.636C840.082 543.82 840.378 544.733 840.97 545.373C841.562 545.997 842.371 546.309 843.395 546.309C844.419 546.309 845.228 545.997 845.82 545.373C846.428 544.733 846.732 543.82 846.732 542.636V535.265H849.47ZM862.055 530.727V548.494H859.318V530.727H862.055ZM867.042 533.512C866.545 533.512 866.129 533.344 865.793 533.008C865.457 532.671 865.289 532.255 865.289 531.759C865.289 531.263 865.457 530.847 865.793 530.51C866.129 530.174 866.545 530.006 867.042 530.006C867.522 530.006 867.93 530.174 868.266 530.51C868.602 530.847 868.77 531.263 868.77 531.759C868.77 532.255 868.602 532.671 868.266 533.008C867.93 533.344 867.522 533.512 867.042 533.512ZM868.386 535.265V548.494H865.649V535.265H868.386ZM877.094 546.045L880.839 535.265H883.745L878.703 548.494H875.437L870.419 535.265H873.348L877.094 546.045ZM897.939 541.555C897.939 542.051 897.907 542.5 897.843 542.9H887.735C887.815 543.956 888.207 544.805 888.911 545.445C889.615 546.085 890.48 546.405 891.504 546.405C892.977 546.405 894.017 545.789 894.625 544.556H897.579C897.179 545.773 896.45 546.773 895.394 547.558C894.353 548.326 893.057 548.71 891.504 548.71C890.24 548.71 889.103 548.43 888.095 547.87C887.102 547.294 886.318 546.493 885.742 545.469C885.181 544.428 884.901 543.228 884.901 541.867C884.901 540.507 885.173 539.314 885.718 538.29C886.278 537.249 887.054 536.449 888.047 535.889C889.055 535.329 890.208 535.048 891.504 535.048C892.753 535.048 893.865 535.321 894.842 535.865C895.818 536.409 896.578 537.177 897.123 538.17C897.667 539.146 897.939 540.275 897.939 541.555ZM895.082 540.691C895.066 539.682 894.706 538.874 894.001 538.266C893.297 537.658 892.425 537.353 891.384 537.353C890.44 537.353 889.631 537.658 888.959 538.266C888.287 538.858 887.887 539.666 887.759 540.691H895.082ZM905.122 531.567C906.755 531.567 908.06 532.015 909.036 532.912C910.029 533.808 910.525 535.032 910.525 536.585C910.525 538.202 910.013 539.418 908.988 540.235C907.964 541.051 906.603 541.459 904.906 541.459L904.81 543.356H902.433L902.313 539.586H903.106C904.658 539.586 905.843 539.378 906.659 538.962C907.491 538.546 907.908 537.754 907.908 536.585C907.908 535.737 907.66 535.072 907.163 534.592C906.683 534.112 906.011 533.872 905.146 533.872C904.282 533.872 903.602 534.104 903.106 534.568C902.609 535.032 902.361 535.681 902.361 536.513H899.792C899.792 535.553 900.008 534.696 900.44 533.944C900.873 533.192 901.489 532.607 902.289 532.191C903.106 531.775 904.05 531.567 905.122 531.567ZM903.586 548.662C903.09 548.662 902.673 548.494 902.337 548.158C902.001 547.822 901.833 547.406 901.833 546.909C901.833 546.413 902.001 545.997 902.337 545.661C902.673 545.325 903.09 545.157 903.586 545.157C904.066 545.157 904.474 545.325 904.81 545.661C905.146 545.997 905.315 546.413 905.315 546.909C905.315 547.406 905.146 547.822 904.81 548.158C904.474 548.494 904.066 548.662 903.586 548.662Z"></path><rect style="fill:var(--color-interfaceBackground)" x="578.71" y="578.87" width="330.58" height="94.6005" rx="11.29"></rect><path style="fill:var(--color-illustrationHighlight010)" d="M602.002 636.079V616.47H614.131V618.403H604.355V625.238H613.291V627.143H604.355V634.146H614.131V636.079H602.002Z"></path><path style="fill:var(--color-illustrationHighlight010)" d="M622.295 636.415C621.137 636.415 620.176 636.219 619.41 635.827C618.644 635.434 618.075 634.912 617.701 634.258C617.328 633.604 617.141 632.895 617.141 632.129C617.141 630.71 617.683 629.617 618.766 628.852C619.849 628.086 621.324 627.703 623.192 627.703H626.945V627.535C626.945 626.321 626.628 625.406 625.993 624.79C625.358 624.155 624.508 623.838 623.444 623.838C622.529 623.838 621.735 624.071 621.063 624.538C620.409 624.986 619.998 625.649 619.83 626.527H617.421C617.515 625.518 617.851 624.669 618.43 623.978C619.027 623.287 619.765 622.764 620.643 622.409C621.52 622.035 622.454 621.849 623.444 621.849C625.386 621.849 626.843 622.372 627.814 623.417C628.803 624.444 629.298 625.817 629.298 627.535V636.079H627.197L627.057 633.586C626.665 634.37 626.086 635.042 625.321 635.603C624.574 636.144 623.565 636.415 622.295 636.415ZM622.659 634.426C623.556 634.426 624.321 634.193 624.956 633.726C625.61 633.259 626.105 632.652 626.441 631.905C626.777 631.158 626.945 630.374 626.945 629.552V629.524H623.388C622.006 629.524 621.025 629.767 620.446 630.252C619.886 630.719 619.606 631.307 619.606 632.017C619.606 632.745 619.868 633.334 620.39 633.782C620.932 634.211 621.688 634.426 622.659 634.426Z"></path><path style="fill:var(--color-illustrationHighlight010)" d="M632.828 636.079V622.185H634.957L635.153 624.846C635.583 623.931 636.236 623.203 637.114 622.661C637.992 622.119 639.075 621.849 640.363 621.849V624.314H639.719C638.897 624.314 638.141 624.463 637.45 624.762C636.759 625.042 636.208 625.528 635.797 626.219C635.387 626.91 635.181 627.862 635.181 629.076V636.079H632.828Z"></path><path style="fill:var(--color-illustrationHighlight010)" d="M648.495 636.079C647.225 636.079 646.226 635.771 645.497 635.154C644.769 634.538 644.405 633.427 644.405 631.821V624.174H641.996V622.185H644.405L644.713 618.851H646.758V622.185H650.848V624.174H646.758V631.821C646.758 632.699 646.935 633.296 647.29 633.614C647.645 633.912 648.271 634.062 649.167 634.062H650.624V636.079H648.495Z"></path><path style="fill:var(--color-illustrationHighlight010)" d="M653.837 636.079V615.91H656.19V624.566C656.657 623.707 657.32 623.044 658.179 622.577C659.038 622.091 659.972 621.849 660.98 621.849C662.586 621.849 663.875 622.353 664.846 623.361C665.817 624.351 666.302 625.882 666.302 627.955V636.079H663.977V628.207C663.977 625.313 662.81 623.866 660.476 623.866C659.262 623.866 658.244 624.304 657.423 625.182C656.601 626.041 656.19 627.274 656.19 628.88V636.079H653.837Z"></path><mask id="nk-1547" mask-type="alpha" maskUnits="userSpaceOnUse" x="837" y="602" width="49" height="49"><path d="M871.173 619.348L861.989 628.512L852.806 619.348L849.984 622.169L861.989 634.174L873.995 622.169L871.173 619.348Z" fill="#0A0A0A"></path></mask><g mask="url(#nk-1547)"><path style="fill:var(--color-illustrationHighlight010)" d="M837.979 602.16H886V650.181H837.979V602.16Z"></path></g><rect x="578.71" y="578.87" width="330.58" height="94.6005" rx="11.29" stroke="#BBC3C9" stroke-width="1.41992"></rect></svg>