<svg id="components-select-usage-dont-3" style="width: 100%; height: 100%" width="1490" height="838" viewBox="0 0 1490 838" fill="none" xmlns="http://www.w3.org/2000/svg" class="css-0"><g clip-path="url(#nk-1030)"><path style="fill:var(--color-illustrationBackground010)" d="M0 0H1490V838H0V0Z"></path><path style="fill:var(--color-illustrationHighlight010)" d="M589.12 171.41C590.049 171.575 590.837 172.065 591.484 172.877C592.131 173.69 592.454 174.611 592.454 175.639C592.454 176.518 592.222 177.314 591.758 178.027C591.31 178.724 590.655 179.279 589.792 179.694C588.93 180.092 587.926 180.291 586.782 180.291H579.866V163.001H586.459C587.636 163.001 588.648 163.2 589.494 163.598C590.34 163.996 590.978 164.535 591.409 165.215C591.84 165.878 592.056 166.625 592.056 167.454C592.056 168.449 591.791 169.278 591.26 169.942C590.729 170.605 590.016 171.094 589.12 171.41ZM582.702 170.265H586.21C587.139 170.265 587.86 170.058 588.374 169.643C588.905 169.212 589.17 168.598 589.17 167.802C589.17 167.023 588.905 166.417 588.374 165.986C587.86 165.538 587.139 165.314 586.21 165.314H582.702V170.265ZM586.533 177.977C587.495 177.977 588.25 177.745 588.797 177.281C589.344 176.816 589.618 176.17 589.618 175.34C589.618 174.494 589.328 173.823 588.747 173.325C588.167 172.828 587.396 172.579 586.434 172.579H582.702V177.977H586.533ZM598.372 168.573C598.787 167.877 599.334 167.338 600.014 166.956C600.711 166.558 601.532 166.359 602.477 166.359V169.295H601.756C600.644 169.295 599.799 169.577 599.218 170.141C598.654 170.705 598.372 171.683 598.372 173.076V180.291H595.536V166.583H598.372V168.573ZM604.139 173.375C604.139 171.998 604.421 170.779 604.985 169.718C605.565 168.656 606.345 167.835 607.323 167.255C608.318 166.658 609.413 166.359 610.607 166.359C611.685 166.359 612.622 166.575 613.418 167.006C614.231 167.421 614.878 167.943 615.359 168.573V166.583H618.22V180.291H615.359V178.251C614.878 178.898 614.223 179.437 613.393 179.868C612.564 180.299 611.619 180.515 610.557 180.515C609.38 180.515 608.302 180.216 607.323 179.619C606.345 179.006 605.565 178.16 604.985 177.082C604.421 175.987 604.139 174.752 604.139 173.375ZM615.359 173.425C615.359 172.479 615.16 171.658 614.762 170.962C614.38 170.265 613.874 169.734 613.244 169.37C612.614 169.005 611.934 168.822 611.204 168.822C610.474 168.822 609.794 169.005 609.164 169.37C608.534 169.718 608.02 170.24 607.622 170.937C607.24 171.617 607.049 172.43 607.049 173.375C607.049 174.32 607.24 175.15 607.622 175.863C608.02 176.576 608.534 177.123 609.164 177.505C609.811 177.87 610.491 178.052 611.204 178.052C611.934 178.052 612.614 177.87 613.244 177.505C613.874 177.14 614.38 176.609 614.762 175.912C615.16 175.199 615.359 174.37 615.359 173.425ZM628.861 166.359C629.939 166.359 630.901 166.583 631.747 167.031C632.609 167.479 633.281 168.142 633.762 169.021C634.243 169.9 634.483 170.962 634.483 172.206V180.291H631.672V172.629C631.672 171.401 631.365 170.464 630.752 169.817C630.138 169.154 629.3 168.822 628.239 168.822C627.177 168.822 626.332 169.154 625.701 169.817C625.088 170.464 624.781 171.401 624.781 172.629V180.291H621.945V166.583H624.781V168.151C625.245 167.587 625.834 167.147 626.547 166.832C627.277 166.517 628.048 166.359 628.861 166.359ZM637.156 173.375C637.156 171.998 637.437 170.779 638.001 169.718C638.582 168.656 639.361 167.835 640.34 167.255C641.335 166.658 642.438 166.359 643.649 166.359C644.544 166.359 645.423 166.558 646.286 166.956C647.165 167.338 647.861 167.852 648.376 168.499V161.881H651.237V180.291H648.376V178.226C647.911 178.89 647.264 179.437 646.435 179.868C645.622 180.299 644.685 180.515 643.624 180.515C642.43 180.515 641.335 180.216 640.34 179.619C639.361 179.006 638.582 178.16 638.001 177.082C637.437 175.987 637.156 174.752 637.156 173.375ZM648.376 173.425C648.376 172.479 648.177 171.658 647.778 170.962C647.397 170.265 646.891 169.734 646.261 169.37C645.631 169.005 644.951 168.822 644.221 168.822C643.491 168.822 642.811 169.005 642.181 169.37C641.551 169.718 641.037 170.24 640.638 170.937C640.257 171.617 640.066 172.43 640.066 173.375C640.066 174.32 640.257 175.15 640.638 175.863C641.037 176.576 641.551 177.123 642.181 177.505C642.828 177.87 643.508 178.052 644.221 178.052C644.951 178.052 645.631 177.87 646.261 177.505C646.891 177.14 647.397 176.609 647.778 175.912C648.177 175.199 648.376 174.37 648.376 173.425Z"></path><rect style="fill:var(--color-interfaceBackground)" x="578.71" y="205.878" width="330.58" height="96.3362" rx="11.29"></rect><path style="fill:var(--color-illustrationHighlight010)" d="M870.637 246.977L861.122 256.472L851.606 246.977L848.683 249.9L861.122 262.339L873.561 249.9L870.637 246.977Z"></path><rect x="578.71" y="205.878" width="330.58" height="96.3362" rx="11.29" stroke="#C0C7CC" stroke-width="1.41992"></rect><path style="fill:var(--color-illustrationHighlight010)" d="M585.563 360.465C584.402 360.465 583.357 360.266 582.428 359.868C581.5 359.453 580.77 358.873 580.239 358.127C579.708 357.38 579.443 356.51 579.443 355.514H582.478C582.544 356.261 582.835 356.874 583.349 357.355C583.88 357.836 584.618 358.077 585.563 358.077C586.541 358.077 587.304 357.845 587.852 357.38C588.399 356.899 588.673 356.286 588.673 355.539C588.673 354.959 588.499 354.486 588.15 354.121C587.819 353.756 587.396 353.474 586.881 353.275C586.384 353.076 585.687 352.861 584.792 352.629C583.664 352.33 582.743 352.032 582.03 351.733C581.334 351.418 580.737 350.937 580.239 350.29C579.741 349.643 579.493 348.781 579.493 347.703C579.493 346.708 579.741 345.837 580.239 345.091C580.737 344.344 581.433 343.772 582.329 343.374C583.224 342.976 584.261 342.777 585.439 342.777C587.114 342.777 588.482 343.2 589.543 344.046C590.621 344.875 591.219 346.019 591.335 347.479H588.2C588.15 346.849 587.852 346.31 587.304 345.862C586.757 345.414 586.036 345.19 585.14 345.19C584.327 345.19 583.664 345.397 583.15 345.812C582.636 346.227 582.379 346.824 582.379 347.603C582.379 348.134 582.536 348.573 582.851 348.922C583.183 349.253 583.598 349.519 584.095 349.718C584.593 349.917 585.273 350.132 586.135 350.365C587.28 350.68 588.208 350.995 588.921 351.31C589.651 351.625 590.265 352.114 590.762 352.778C591.277 353.425 591.534 354.295 591.534 355.39C591.534 356.269 591.293 357.098 590.812 357.878C590.348 358.657 589.66 359.288 588.747 359.769C587.852 360.233 586.79 360.465 585.563 360.465ZM596.323 344.767C595.809 344.767 595.378 344.593 595.029 344.245C594.681 343.896 594.507 343.465 594.507 342.951C594.507 342.437 594.681 342.006 595.029 341.657C595.378 341.309 595.809 341.135 596.323 341.135C596.821 341.135 597.244 341.309 597.592 341.657C597.94 342.006 598.114 342.437 598.114 342.951C598.114 343.465 597.94 343.896 597.592 344.245C597.244 344.593 596.821 344.767 596.323 344.767ZM597.716 346.583V360.291H594.88V346.583H597.716ZM603.952 357.977H610.172V360.291H600.669V357.977L606.913 348.897H600.669V346.583H610.172V348.897L603.952 357.977ZM625.713 353.101C625.713 353.615 625.68 354.08 625.614 354.494H615.14C615.223 355.589 615.629 356.468 616.359 357.132C617.089 357.795 617.985 358.127 619.046 358.127C620.572 358.127 621.65 357.488 622.28 356.211H625.34C624.926 357.472 624.171 358.508 623.076 359.321C621.998 360.117 620.655 360.515 619.046 360.515C617.736 360.515 616.558 360.225 615.513 359.644C614.485 359.047 613.672 358.218 613.075 357.156C612.495 356.078 612.205 354.834 612.205 353.425C612.205 352.015 612.487 350.779 613.05 349.718C613.631 348.64 614.435 347.811 615.464 347.23C616.509 346.65 617.703 346.359 619.046 346.359C620.34 346.359 621.492 346.641 622.504 347.205C623.516 347.769 624.304 348.565 624.868 349.593C625.431 350.605 625.713 351.774 625.713 353.101ZM622.753 352.206C622.736 351.161 622.363 350.323 621.633 349.693C620.904 349.063 620 348.748 618.922 348.748C617.943 348.748 617.106 349.063 616.409 349.693C615.712 350.307 615.298 351.144 615.165 352.206H622.753Z"></path><rect style="fill:var(--color-interfaceBackground)" x="578.71" y="385.878" width="330.58" height="96.3362" rx="11.29"></rect><path style="fill:var(--color-illustrationHighlight010)" d="M870.637 426.977L861.122 436.472L851.606 426.977L848.683 429.9L861.122 442.339L873.561 429.9L870.637 426.977Z"></path><rect x="578.71" y="385.878" width="330.58" height="96.3362" rx="11.29" stroke="#C0C7CC" stroke-width="1.41992"></rect><path style="fill:var(--color-illustrationHighlight010)" d="M578.92 531.609C578.92 529.917 579.31 528.399 580.09 527.056C580.886 525.712 581.956 524.668 583.299 523.921C584.659 523.158 586.143 522.777 587.752 522.777C589.593 522.777 591.227 523.233 592.653 524.145C594.096 525.041 595.141 526.318 595.788 527.976H592.38C591.932 527.064 591.31 526.384 590.514 525.936C589.718 525.489 588.797 525.265 587.752 525.265C586.608 525.265 585.588 525.522 584.692 526.036C583.797 526.55 583.092 527.288 582.578 528.25C582.08 529.212 581.831 530.332 581.831 531.609C581.831 532.886 582.08 534.005 582.578 534.967C583.092 535.929 583.797 536.675 584.692 537.206C585.588 537.72 586.608 537.977 587.752 537.977C588.797 537.977 589.718 537.753 590.514 537.306C591.31 536.858 591.932 536.178 592.38 535.266H595.788C595.141 536.924 594.096 538.201 592.653 539.097C591.227 539.992 589.593 540.44 587.752 540.44C586.127 540.44 584.642 540.067 583.299 539.321C581.956 538.558 580.886 537.505 580.09 536.161C579.31 534.818 578.92 533.3 578.92 531.609ZM605.053 540.515C603.76 540.515 602.59 540.225 601.546 539.644C600.501 539.047 599.68 538.218 599.083 537.156C598.486 536.078 598.187 534.834 598.187 533.425C598.187 532.032 598.494 530.796 599.107 529.718C599.721 528.64 600.559 527.811 601.62 527.23C602.682 526.65 603.867 526.359 605.178 526.359C606.488 526.359 607.674 526.65 608.735 527.23C609.797 527.811 610.634 528.64 611.248 529.718C611.862 530.796 612.168 532.032 612.168 533.425C612.168 534.818 611.853 536.053 611.223 537.132C610.593 538.21 609.73 539.047 608.636 539.644C607.558 540.225 606.364 540.515 605.053 540.515ZM605.053 538.052C605.783 538.052 606.463 537.878 607.093 537.53C607.74 537.181 608.263 536.659 608.661 535.962C609.059 535.266 609.258 534.42 609.258 533.425C609.258 532.43 609.067 531.592 608.686 530.912C608.304 530.215 607.798 529.693 607.168 529.345C606.538 528.996 605.858 528.822 605.128 528.822C604.398 528.822 603.718 528.996 603.088 529.345C602.474 529.693 601.985 530.215 601.62 530.912C601.255 531.592 601.073 532.43 601.073 533.425C601.073 534.901 601.446 536.045 602.192 536.858C602.955 537.654 603.909 538.052 605.053 538.052ZM617.808 521.881V540.291H614.972V521.881H617.808ZM627.478 540.515C626.184 540.515 625.015 540.225 623.97 539.644C622.925 539.047 622.104 538.218 621.507 537.156C620.91 536.078 620.611 534.834 620.611 533.425C620.611 532.032 620.918 530.796 621.532 529.718C622.145 528.64 622.983 527.811 624.044 527.23C625.106 526.65 626.292 526.359 627.602 526.359C628.912 526.359 630.098 526.65 631.16 527.23C632.221 527.811 633.059 528.64 633.672 529.718C634.286 530.796 634.593 532.032 634.593 533.425C634.593 534.818 634.278 536.053 633.647 537.132C633.017 538.21 632.155 539.047 631.06 539.644C629.982 540.225 628.788 540.515 627.478 540.515ZM627.478 538.052C628.207 538.052 628.887 537.878 629.518 537.53C630.164 537.181 630.687 536.659 631.085 535.962C631.483 535.266 631.682 534.42 631.682 533.425C631.682 532.43 631.491 531.592 631.11 530.912C630.728 530.215 630.222 529.693 629.592 529.345C628.962 528.996 628.282 528.822 627.552 528.822C626.822 528.822 626.142 528.996 625.512 529.345C624.899 529.693 624.409 530.215 624.044 530.912C623.68 531.592 623.497 532.43 623.497 533.425C623.497 534.901 623.87 536.045 624.617 536.858C625.38 537.654 626.333 538.052 627.478 538.052ZM649.81 526.583V540.291H646.974V538.674C646.527 539.238 645.938 539.686 645.208 540.017C644.495 540.332 643.732 540.49 642.919 540.49C641.841 540.49 640.871 540.266 640.009 539.818C639.163 539.371 638.491 538.707 637.993 537.828C637.512 536.949 637.272 535.888 637.272 534.644V526.583H640.083V534.221C640.083 535.448 640.39 536.393 641.004 537.057C641.617 537.704 642.455 538.027 643.516 538.027C644.578 538.027 645.415 537.704 646.029 537.057C646.659 536.393 646.974 535.448 646.974 534.221V526.583H649.81ZM656.389 528.573C656.803 527.877 657.351 527.338 658.031 526.956C658.727 526.558 659.548 526.359 660.493 526.359V529.295H659.772C658.661 529.295 657.815 529.577 657.234 530.141C656.671 530.705 656.389 531.683 656.389 533.076V540.291H653.553V526.583H656.389V528.573Z"></path><rect style="fill:var(--color-interfaceBackground)" x="578.71" y="565.878" width="330.58" height="96.3362" rx="11.29"></rect><path style="fill:var(--color-illustrationHighlight010)" d="M870.637 606.977L861.122 616.472L851.606 606.977L848.683 609.9L861.122 622.339L873.561 609.9L870.637 606.977Z"></path><rect x="578.71" y="565.878" width="330.58" height="96.3362" rx="11.29" stroke="#C0C7CC" stroke-width="1.41992"></rect></g><defs><clipPath id="nk-1030"><rect style="fill:var(--color-white)" width="1490" height="838"></rect></clipPath></defs></svg>