<svg width="693" height="304" viewBox="0 0 693 304" fill="none" xmlns="http://www.w3.org/2000/svg">
<g clip-path="url(#clip0)">
<g clip-path="url(#clip1)">
<path fill-rule="evenodd" clip-rule="evenodd" d="M605.594 451.634C607.692 451.634 609.392 453.335 609.392 455.432V515.441H669.401C671.498 515.441 673.199 517.142 673.199 519.239V543.547C673.199 545.644 671.498 547.345 669.401 547.345H609.392V607.354C609.392 609.451 607.692 611.152 605.594 611.152H581.287C579.189 611.152 577.489 609.451 577.489 607.354V547.345H517.48C515.382 547.345 513.682 545.644 513.682 543.547V519.239C513.682 517.142 515.382 515.441 517.48 515.441H577.489V455.432C577.489 453.335 579.189 451.634 581.287 451.634H605.594ZM286.56 451.634C288.658 451.634 290.358 453.335 290.358 455.432V515.441H350.367C352.464 515.441 354.165 517.142 354.165 519.239V543.547C354.165 545.644 352.464 547.345 350.367 547.345H290.358V607.354C290.358 609.451 288.658 611.152 286.56 611.152H262.253C260.155 611.152 258.455 609.451 258.455 607.354V547.345H198.446C196.348 547.345 194.648 545.644 194.648 543.547V519.239C194.648 517.142 196.348 515.441 198.446 515.441H258.455V455.432C258.455 453.335 260.155 451.634 262.253 451.634H286.56ZM94.7598 388.018C96.8574 388.018 98.5579 389.718 98.5579 391.816V451.823L158.567 451.824C160.664 451.824 162.365 453.525 162.365 455.622V479.93C162.365 482.027 160.664 483.728 158.567 483.728H98.5579V543.737C98.5579 545.834 96.8574 547.535 94.7598 547.535H70.4525C68.3549 547.535 66.6545 545.834 66.6545 543.737V483.728H6.64568C4.54809 483.728 2.84766 482.027 2.84766 479.93V455.622C2.84766 453.525 4.54809 451.824 6.64568 451.824L66.6545 451.823V391.816C66.6545 389.718 68.3549 388.018 70.4525 388.018H94.7598ZM733.777 388.018C735.875 388.018 737.575 389.718 737.575 391.816V451.823L797.584 451.824C799.682 451.824 801.382 453.525 801.382 455.622V479.93C801.382 482.027 799.682 483.728 797.584 483.728L737.575 483.727V543.737C737.575 545.834 735.875 547.535 733.777 547.535H709.47C707.372 547.535 705.672 545.834 705.672 543.737V483.727L645.663 483.728C643.566 483.728 641.865 482.027 641.865 479.93V455.622C641.865 453.525 643.566 451.824 645.663 451.824L705.672 451.823V391.816C705.672 389.718 707.372 388.018 709.47 388.018H733.777ZM413.794 388.018C415.892 388.018 417.592 389.718 417.592 391.816V451.824H477.601C479.698 451.824 481.399 453.525 481.399 455.622V479.93C481.399 482.027 479.698 483.728 477.601 483.728H417.592V543.737C417.592 545.834 415.892 547.535 413.794 547.535H389.486C387.389 547.535 385.688 545.834 385.688 543.737V483.728H325.68C323.582 483.728 321.882 482.027 321.882 479.93V455.622C321.882 453.525 323.582 451.824 325.68 451.824H385.688V391.816C385.688 389.718 387.389 388.018 389.486 388.018H413.794ZM541.977 323.451C544.075 323.451 545.775 325.152 545.775 327.249V387.258H605.784C607.882 387.258 609.582 388.958 609.582 391.056V415.363C609.582 417.461 607.882 419.161 605.784 419.161H545.775V479.17C545.775 481.268 544.075 482.968 541.977 482.968H517.67C515.572 482.968 513.872 481.268 513.872 479.17V419.161H453.863C451.765 419.161 450.065 417.461 450.065 415.363V391.056C450.065 388.958 451.765 387.258 453.863 387.258H513.872V327.249C513.872 325.152 515.572 323.451 517.67 323.451H541.977ZM222.943 323.451C225.041 323.451 226.741 325.152 226.741 327.249V387.258H286.75C288.848 387.258 290.548 388.958 290.548 391.056V415.363C290.548 417.461 288.848 419.161 286.75 419.161H226.741V479.17C226.741 481.268 225.041 482.968 222.943 482.968H198.636C196.538 482.968 194.838 481.268 194.838 479.17V419.161H134.829C132.731 419.161 131.031 417.461 131.031 415.363V391.056C131.031 388.958 132.731 387.258 134.829 387.258H194.838V327.249C194.838 325.152 196.538 323.451 198.636 323.451H222.943ZM350.177 259.834C352.275 259.834 353.975 261.535 353.975 263.632V323.64L413.984 323.641C416.081 323.641 417.782 325.341 417.782 327.439V351.746C417.782 353.844 416.081 355.544 413.984 355.544L353.975 355.544V415.553C353.975 417.651 352.275 419.351 350.177 419.351H325.87C323.772 419.351 322.072 417.651 322.072 415.553V355.544L262.063 355.544C259.965 355.544 258.265 353.844 258.265 351.746V327.439C258.265 325.341 259.965 323.641 262.063 323.641L322.072 323.64V263.632C322.072 261.535 323.772 259.834 325.87 259.834H350.177ZM669.211 259.834C671.309 259.834 673.009 261.535 673.009 263.632V323.64L733.018 323.641C735.115 323.641 736.816 325.341 736.816 327.439V351.746C736.816 353.844 735.115 355.544 733.018 355.544L673.009 355.544V415.553C673.009 417.651 671.309 419.351 669.211 419.351H644.904C642.806 419.351 641.106 417.651 641.106 415.553V355.544L581.097 355.544C578.999 355.544 577.299 353.844 577.299 351.746V327.439C577.299 325.341 578.999 323.641 581.097 323.641L641.106 323.64V263.632C641.106 261.535 642.806 259.834 644.904 259.834H669.211ZM158.377 196.217C160.474 196.217 162.175 197.918 162.175 200.015V260.023L222.184 260.024C224.281 260.024 225.982 261.725 225.982 263.822V288.13C225.982 290.227 224.281 291.928 222.184 291.928L162.175 291.927V351.936C162.175 354.034 160.474 355.734 158.377 355.734H134.069C131.972 355.734 130.271 354.034 130.271 351.936V291.927L70.2626 291.928C68.165 291.928 66.4646 290.227 66.4646 288.13V263.822C66.4646 261.725 68.165 260.024 70.2626 260.024L130.271 260.023V200.015C130.271 197.918 131.972 196.217 134.069 196.217H158.377ZM478.36 196.217C480.458 196.217 482.158 197.918 482.158 200.015V260.024H542.167C544.265 260.024 545.965 261.725 545.965 263.822V288.13C545.965 290.227 544.265 291.928 542.167 291.928H482.158V351.936C482.158 354.034 480.458 355.734 478.36 355.734H454.053C451.955 355.734 450.255 354.034 450.255 351.936V291.928H390.246C388.149 291.928 386.448 290.227 386.448 288.13V263.822C386.448 261.725 388.149 260.024 390.246 260.024H450.255V200.015C450.255 197.918 451.955 196.217 454.053 196.217H478.36ZM797.394 196.217C799.492 196.217 801.192 197.918 801.192 200.015V260.023L861.201 260.024C863.299 260.024 864.999 261.725 864.999 263.822V288.13C864.999 290.227 863.299 291.928 861.201 291.928L801.192 291.927V351.936C801.192 354.034 799.492 355.734 797.394 355.734H773.087C770.989 355.734 769.289 354.034 769.289 351.936V291.927L709.28 291.928C707.183 291.928 705.482 290.227 705.482 288.13V263.822C705.482 261.725 707.183 260.024 709.28 260.024L769.289 260.023V200.015C769.289 197.918 770.989 196.217 773.087 196.217H797.394ZM286.56 132.6C288.658 132.6 290.358 134.301 290.358 136.398V196.406L350.367 196.407C352.464 196.407 354.165 198.108 354.165 200.205V224.513C354.165 226.61 352.464 228.311 350.367 228.311L290.358 228.31V288.319C290.358 290.417 288.658 292.117 286.56 292.117H262.253C260.155 292.117 258.455 290.417 258.455 288.319V228.31L198.446 228.311C196.348 228.311 194.648 226.61 194.648 224.513V200.205C194.648 198.108 196.348 196.407 198.446 196.407L258.455 196.406V136.398C258.455 134.301 260.155 132.6 262.253 132.6H286.56ZM605.594 132.6C607.692 132.6 609.392 134.301 609.392 136.398V196.406L669.401 196.407C671.498 196.407 673.199 198.108 673.199 200.205V224.513C673.199 226.61 671.498 228.311 669.401 228.311L609.392 228.31V288.319C609.392 290.417 607.692 292.117 605.594 292.117H581.287C579.189 292.117 577.489 290.417 577.489 288.319V228.31L517.48 228.311C515.382 228.311 513.682 226.61 513.682 224.513V200.205C513.682 198.108 515.382 196.407 517.48 196.407L577.489 196.406V136.398C577.489 134.301 579.189 132.6 581.287 132.6H605.594ZM413.794 68.034C415.892 68.034 417.592 69.7345 417.592 71.8321V131.841H477.601C479.698 131.841 481.399 133.541 481.399 135.639V159.946C481.399 162.044 479.698 163.744 477.601 163.744H417.592V223.753C417.592 225.851 415.892 227.551 413.794 227.551H389.486C387.389 227.551 385.688 225.851 385.688 223.753V163.744H325.68C323.582 163.744 321.882 162.044 321.882 159.946V135.639C321.882 133.541 323.582 131.841 325.68 131.841H385.688V71.8321C385.688 69.7345 387.389 68.034 389.486 68.034H413.794ZM733.777 68.034C735.875 68.034 737.575 69.7345 737.575 71.8321V131.84L797.584 131.841C799.682 131.841 801.382 133.541 801.382 135.639V159.946C801.382 162.044 799.682 163.744 797.584 163.744L737.575 163.743V223.753C737.575 225.851 735.875 227.551 733.777 227.551H709.47C707.372 227.551 705.672 225.851 705.672 223.753V163.743L645.663 163.744C643.566 163.744 641.865 162.044 641.865 159.946V135.639C641.865 133.541 643.566 131.841 645.663 131.841L705.672 131.84V71.8321C705.672 69.7345 707.372 68.034 709.47 68.034H733.777ZM222.943 4.41713C225.041 4.41713 226.741 6.11755 226.741 8.21515V68.223L286.75 68.2239C288.848 68.2239 290.548 69.9244 290.548 72.022V96.3293C290.548 98.4269 288.848 100.127 286.75 100.127L226.741 100.126V160.136C226.741 162.234 225.041 163.934 222.943 163.934H198.636C196.538 163.934 194.838 162.234 194.838 160.136V100.126L134.829 100.127C132.731 100.127 131.031 98.4269 131.031 96.3293V72.022C131.031 69.9244 132.731 68.2239 134.829 68.2239L194.838 68.223V8.21515C194.838 6.11755 196.538 4.41713 198.636 4.41713H222.943ZM541.977 4.41713C544.075 4.41713 545.775 6.11755 545.775 8.21515V68.2239H605.784C607.882 68.2239 609.582 69.9244 609.582 72.022V96.3293C609.582 98.4269 607.882 100.127 605.784 100.127H545.775V160.136C545.775 162.234 544.075 163.934 541.977 163.934H517.67C515.572 163.934 513.872 162.234 513.872 160.136V100.127H453.863C451.765 100.127 450.065 98.4269 450.065 96.3293V72.022C450.065 69.9244 451.765 68.2239 453.863 68.2239H513.872V8.21515C513.872 6.11755 515.572 4.41713 517.67 4.41713H541.977ZM350.177 -59.1998C352.275 -59.1998 353.975 -57.4993 353.975 -55.4017V4.60609L413.984 4.60704C416.081 4.60704 417.782 6.30746 417.782 8.40506V32.7124C417.782 34.81 416.081 36.5104 413.984 36.5104L353.975 36.5095V96.5192C353.975 98.6168 352.275 100.317 350.177 100.317H325.87C323.772 100.317 322.072 98.6168 322.072 96.5192V36.5095L262.063 36.5104C259.965 36.5104 258.265 34.81 258.265 32.7124V8.40506C258.265 6.30746 259.965 4.60704 262.063 4.60704L322.072 4.60609V-55.4017C322.072 -57.4993 323.772 -59.1998 325.87 -59.1998H350.177ZM669.211 -59.1998C671.309 -59.1998 673.009 -57.4993 673.009 -55.4017V4.60609L733.018 4.60704C735.115 4.60704 736.816 6.30746 736.816 8.40506V32.7124C736.816 34.81 735.115 36.5104 733.018 36.5104L673.009 36.5095V96.5192C673.009 98.6168 671.309 100.317 669.211 100.317H644.904C642.806 100.317 641.106 98.6168 641.106 96.5192V36.5095L581.097 36.5104C578.999 36.5104 577.299 34.81 577.299 32.7124V8.40506C577.299 6.30746 578.999 4.60704 581.097 4.60704L641.106 4.60609V-55.4017C641.106 -57.4993 642.806 -59.1998 644.904 -59.1998H669.211ZM158.377 -122.817C160.474 -122.817 162.175 -121.116 162.175 -119.019V-59.0099H222.184C224.281 -59.0099 225.982 -57.3094 225.982 -55.2119V-30.9045C225.982 -28.8069 224.281 -27.1065 222.184 -27.1065H162.175V32.9023C162.175 34.9999 160.474 36.7003 158.377 36.7003H134.069C131.972 36.7003 130.271 34.9999 130.271 32.9023V-27.1065H70.2626C68.165 -27.1065 66.4646 -28.8069 66.4646 -30.9045V-55.2119C66.4646 -57.3094 68.165 -59.0099 70.2626 -59.0099H130.271V-119.019C130.271 -121.116 131.972 -122.817 134.069 -122.817H158.377ZM478.36 -122.817C480.458 -122.817 482.158 -121.116 482.158 -119.019V-59.0108L542.167 -59.0099C544.265 -59.0099 545.965 -57.3094 545.965 -55.2119V-30.9045C545.965 -28.8069 544.265 -27.1065 542.167 -27.1065L482.158 -27.1074V32.9023C482.158 34.9999 480.458 36.7003 478.36 36.7003H454.053C451.955 36.7003 450.255 34.9999 450.255 32.9023V-27.1074L390.246 -27.1065C388.149 -27.1065 386.448 -28.8069 386.448 -30.9045V-55.2119C386.448 -57.3094 388.149 -59.0099 390.246 -59.0099L450.255 -59.0108V-119.019C450.255 -121.116 451.955 -122.817 454.053 -122.817H478.36ZM797.394 -122.817C799.492 -122.817 801.192 -121.116 801.192 -119.019V-59.0108L861.201 -59.0099C863.299 -59.0099 864.999 -57.3094 864.999 -55.2119V-30.9045C864.999 -28.8069 863.299 -27.1065 861.201 -27.1065L801.192 -27.1074V32.9023C801.192 34.9999 799.492 36.7003 797.394 36.7003H773.087C770.989 36.7003 769.289 34.9999 769.289 32.9023V-27.1074L709.28 -27.1065C707.183 -27.1065 705.482 -28.8069 705.482 -30.9045V-55.2119C705.482 -57.3094 707.183 -59.0099 709.28 -59.0099L769.289 -59.0108V-119.019C769.289 -121.116 770.989 -122.817 773.087 -122.817H797.394ZM286.56 -187.383C288.658 -187.383 290.358 -185.683 290.358 -183.585V-123.577L350.367 -123.576C352.464 -123.576 354.165 -121.876 354.165 -119.778V-95.4709C354.165 -93.3733 352.464 -91.6729 350.367 -91.6729H290.358V-31.6641C290.358 -29.5665 288.658 -27.8661 286.56 -27.8661H262.253C260.155 -27.8661 258.455 -29.5665 258.455 -31.6641V-91.6738L198.446 -91.6729C196.348 -91.6729 194.648 -93.3733 194.648 -95.4709V-119.778C194.648 -121.876 196.348 -123.576 198.446 -123.576L258.455 -123.577V-183.585C258.455 -185.683 260.155 -187.383 262.253 -187.383H286.56ZM605.594 -187.383C607.692 -187.383 609.392 -185.683 609.392 -183.585V-123.577L669.401 -123.576C671.498 -123.576 673.199 -121.876 673.199 -119.778V-95.4709C673.199 -93.3733 671.498 -91.6729 669.401 -91.6729L609.392 -91.6738V-31.6641C609.392 -29.5665 607.692 -27.8661 605.594 -27.8661H581.287C579.189 -27.8661 577.489 -29.5665 577.489 -31.6641V-91.6738L517.48 -91.6729C515.382 -91.6729 513.682 -93.3733 513.682 -95.4709V-119.778C513.682 -121.876 515.382 -123.576 517.48 -123.576L577.489 -123.577V-183.585C577.489 -185.683 579.189 -187.383 581.287 -187.383H605.594ZM413.794 -251C415.892 -251 417.592 -249.3 417.592 -247.202V-187.194L477.601 -187.193C479.698 -187.193 481.399 -185.493 481.399 -183.395V-159.088C481.399 -156.99 479.698 -155.29 477.601 -155.29L417.592 -155.291V-95.281C417.592 -93.1834 415.892 -91.483 413.794 -91.483H389.486C387.389 -91.483 385.688 -93.1834 385.688 -95.281V-155.291L325.68 -155.29C323.582 -155.29 321.882 -156.99 321.882 -159.088V-183.395C321.882 -185.493 323.582 -187.193 325.68 -187.193L385.688 -187.194V-247.202C385.688 -249.3 387.389 -251 389.486 -251H413.794ZM733.777 -251C735.875 -251 737.575 -249.3 737.575 -247.202V-187.194L797.584 -187.193C799.682 -187.193 801.382 -185.493 801.382 -183.395V-159.088C801.382 -156.99 799.682 -155.29 797.584 -155.29L737.575 -155.291V-95.281C737.575 -93.1834 735.875 -91.483 733.777 -91.483H709.47C707.372 -91.483 705.672 -93.1834 705.672 -95.281V-155.291L645.663 -155.29C643.566 -155.29 641.865 -156.99 641.865 -159.088V-183.395C641.865 -185.493 643.566 -187.193 645.663 -187.193L705.672 -187.194V-247.202C705.672 -249.3 707.372 -251 709.47 -251H733.777Z" fill="url(#paint0_linear)"/>
<path fill-rule="evenodd" clip-rule="evenodd" d="M91.0848 68.6099C94.2686 68.6099 96.8496 71.2053 96.8496 74.4068V134.114L155.651 134.116C158.835 134.116 161.416 136.711 161.416 139.913V161.072C161.416 164.273 158.835 166.869 155.651 166.869L96.8496 166.867V226.578C96.8496 229.779 94.2686 232.375 91.0848 232.375H70.3313C67.1474 232.375 64.5664 229.779 64.5664 226.578L64.565 166.867L5.76486 166.869C2.58101 166.869 0 164.273 0 161.072V139.913C0 136.711 2.58101 134.116 5.76486 134.116L64.565 134.114L64.5664 74.4068C64.5664 71.2053 67.1474 68.6099 70.3313 68.6099H91.0848Z" fill="#A8E0E6"/>
</g>
</g>
<defs>
<linearGradient id="paint0_linear" x1="2.84767" y1="119.351" x2="709.165" y2="372.635" gradientUnits="userSpaceOnUse">
<stop stop-color="#81D2DA"/>
<stop offset="1" stop-color="#65BBC4"/>
</linearGradient>
<clipPath id="clip0">
<rect width="693" height="304" fill="white"/>
</clipPath>
<clipPath id="clip1">
<rect width="864.999" height="862.151" fill="white" transform="translate(0 -251)"/>
</clipPath>
</defs>
</svg>
