<svg width="213" height="176" viewBox="0 0 213 176" fill="none" xmlns="http://www.w3.org/2000/svg">
<mask id="mask0" mask-type="alpha" maskUnits="userSpaceOnUse" x="-2" y="0" width="215" height="176">
<rect x="-2" y="0.6875" width="215" height="175" fill="#C4C4C4"/>
</mask>
<g mask="url(#mask0)">
<path opacity="0.2" d="M233.453 34.3271L236.163 31.4987L225.625 20.4987C219.142 13.7304 208.682 13.6437 202.096 20.2384L201.842 20.4987C196.85 25.7101 188.804 25.7915 183.717 20.743L183.477 20.4987C176.993 13.7304 166.533 13.6437 159.948 20.2384L159.693 20.4987C154.701 25.7101 146.656 25.7915 141.568 20.743L141.328 20.4987C134.845 13.7304 124.384 13.6437 117.799 20.2384L117.544 20.4987C112.552 25.7101 104.507 25.7915 99.4194 20.743L99.1794 20.4987C92.6959 13.7304 82.2357 13.6437 75.6502 20.2384L75.3956 20.4987C70.4035 25.7101 62.3582 25.7915 57.2707 20.743L57.0307 20.4987C50.5472 13.7304 40.087 13.6437 33.5016 20.2384L33.247 20.4987C28.2549 25.7101 20.2096 25.7915 15.1221 20.743L14.8821 20.4987L13.0742 18.6114C9.44081 14.8184 4.51285 12.6875 -0.625582 12.6875C-11.2155 12.6875 -19.8209 21.557 -19.9972 32.5681L-20 32.9129H-16.1683C-16.1683 23.9519 -9.20959 16.6875 -0.625582 16.6875C3.36364 16.6875 7.19472 18.2885 10.0795 21.1496L10.3648 21.4398L12.1726 23.3271C18.6561 30.0954 29.1163 30.1822 35.7018 23.5875L35.9564 23.3271C40.9485 18.1158 48.9938 18.0344 54.0813 23.0829L54.3213 23.3271C60.8048 30.0954 71.265 30.1822 77.8505 23.5875L78.1051 23.3271C83.0972 18.1158 91.1425 18.0344 96.23 23.0829L96.47 23.3271C102.953 30.0954 113.414 30.1822 119.999 23.5875L120.254 23.3271C125.246 18.1158 133.291 18.0344 138.379 23.0829L138.619 23.3271C145.102 30.0954 155.562 30.1822 162.148 23.5875L162.402 23.3271C167.394 18.1158 175.44 18.0344 180.527 23.0829L180.767 23.3271C187.251 30.0954 197.711 30.1822 204.296 23.5875L204.551 23.3271C209.543 18.1158 217.588 18.0344 222.676 23.0829L222.916 23.3271L233.453 34.3271ZM233.453 56.3271L236.163 53.4987L225.625 42.4987C219.142 35.7304 208.682 35.6437 202.096 42.2384L201.842 42.4987C196.85 47.7101 188.804 47.7915 183.717 42.743L183.477 42.4987C176.993 35.7304 166.533 35.6437 159.948 42.2384L159.693 42.4987C154.701 47.7101 146.656 47.7915 141.568 42.743L141.328 42.4987C134.845 35.7304 124.384 35.6437 117.799 42.2384L117.544 42.4987C112.552 47.7101 104.507 47.7915 99.4194 42.743L99.1794 42.4987C92.6959 35.7304 82.2357 35.6437 75.6502 42.2384L75.3956 42.4987C70.4035 47.7101 62.3582 47.7915 57.2707 42.743L57.0307 42.4987C50.5472 35.7304 40.087 35.6437 33.5016 42.2384L33.247 42.4987C28.2549 47.7101 20.2096 47.7915 15.1221 42.743L14.8821 42.4987L13.0742 40.6114C9.44081 36.8184 4.51285 34.6875 -0.625582 34.6875C-11.2155 34.6875 -19.8209 43.557 -19.9972 54.5681L-20 54.9129H-16.1683C-16.1683 45.9519 -9.20959 38.6875 -0.625582 38.6875C3.36364 38.6875 7.19472 40.2885 10.0795 43.1496L10.3648 43.4399L12.1726 45.3271C18.6561 52.0954 29.1163 52.1822 35.7018 45.5875L35.9564 45.3271C40.9485 40.1158 48.9938 40.0344 54.0813 45.0829L54.3213 45.3271C60.8048 52.0954 71.265 52.1822 77.8505 45.5875L78.1051 45.3271C83.0972 40.1158 91.1425 40.0344 96.23 45.0829L96.47 45.3271C102.953 52.0954 113.414 52.1822 119.999 45.5875L120.254 45.3271C125.246 40.1158 133.291 40.0344 138.379 45.0829L138.619 45.3271C145.102 52.0954 155.562 52.1822 162.148 45.5875L162.402 45.3271C167.394 40.1158 175.44 40.0344 180.527 45.0829L180.767 45.3271C187.251 52.0954 197.711 52.1822 204.296 45.5875L204.551 45.3271C209.543 40.1158 217.588 40.0344 222.676 45.0829L222.916 45.3271L233.453 56.3271ZM233.453 78.3271L236.163 75.4987L225.625 64.4987C219.142 57.7304 208.682 57.6437 202.096 64.2384L201.842 64.4987C196.85 69.7101 188.804 69.7915 183.717 64.743L183.477 64.4987C176.993 57.7304 166.533 57.6437 159.948 64.2384L159.693 64.4987C154.701 69.7101 146.656 69.7915 141.568 64.743L141.328 64.4987C134.845 57.7304 124.384 57.6437 117.799 64.2384L117.544 64.4987C112.552 69.7101 104.507 69.7915 99.4194 64.743L99.1794 64.4987C92.6959 57.7304 82.2357 57.6437 75.6502 64.2384L75.3956 64.4987C70.4035 69.7101 62.3582 69.7915 57.2707 64.743L57.0307 64.4987C50.5472 57.7304 40.087 57.6437 33.5016 64.2384L33.247 64.4987C28.2549 69.7101 20.2096 69.7915 15.1221 64.743L14.8821 64.4987L13.0742 62.6114C9.44081 58.8184 4.51285 56.6875 -0.625582 56.6875C-11.2155 56.6875 -19.8209 65.557 -19.9972 76.5681L-20 76.9129H-16.1683C-16.1683 67.9519 -9.20959 60.6875 -0.625582 60.6875C3.36364 60.6875 7.19472 62.2885 10.0795 65.1496L10.3648 65.4399L12.1726 67.3271C18.6561 74.0954 29.1163 74.1822 35.7018 67.5875L35.9564 67.3271C40.9485 62.1158 48.9938 62.0344 54.0813 67.0829L54.3213 67.3271C60.8048 74.0954 71.265 74.1822 77.8505 67.5875L78.1051 67.3271C83.0972 62.1158 91.1425 62.0344 96.23 67.0829L96.47 67.3271C102.953 74.0954 113.414 74.1822 119.999 67.5875L120.254 67.3271C125.246 62.1158 133.291 62.0344 138.379 67.0829L138.619 67.3271C145.102 74.0954 155.562 74.1822 162.148 67.5875L162.402 67.3271C167.394 62.1158 175.44 62.0344 180.527 67.0829L180.767 67.3271C187.251 74.0954 197.711 74.1822 204.296 67.5875L204.551 67.3271C209.543 62.1158 217.588 62.0344 222.676 67.0829L222.916 67.3271L233.453 78.3271ZM233.453 100.327L236.163 97.4987L225.625 86.4987C219.142 79.7304 208.682 79.6437 202.096 86.2384L201.842 86.4987C196.85 91.7101 188.804 91.7915 183.717 86.743L183.477 86.4987C176.993 79.7304 166.533 79.6437 159.948 86.2384L159.693 86.4987C154.701 91.7101 146.656 91.7915 141.568 86.743L141.328 86.4987C134.845 79.7304 124.384 79.6437 117.799 86.2384L117.544 86.4987C112.552 91.7101 104.507 91.7915 99.4194 86.743L99.1794 86.4987C92.6959 79.7304 82.2357 79.6437 75.6502 86.2384L75.3956 86.4987C70.4035 91.7101 62.3582 91.7915 57.2707 86.743L57.0307 86.4987C50.5472 79.7304 40.087 79.6437 33.5016 86.2384L33.247 86.4987C28.2549 91.7101 20.2096 91.7915 15.1221 86.743L14.8821 86.4987L13.0742 84.6114C9.44081 80.8184 4.51285 78.6875 -0.625582 78.6875C-11.2155 78.6875 -19.8209 87.557 -19.9972 98.5681L-20 98.9129H-16.1683C-16.1683 89.9519 -9.20959 82.6875 -0.625582 82.6875C3.36364 82.6875 7.19472 84.2885 10.0795 87.1496L10.3648 87.4399L12.1726 89.3271C18.6561 96.0954 29.1163 96.1822 35.7018 89.5875L35.9564 89.3271C40.9485 84.1158 48.9938 84.0344 54.0813 89.0829L54.3213 89.3271C60.8048 96.0954 71.265 96.1822 77.8505 89.5875L78.1051 89.3271C83.0972 84.1158 91.1425 84.0344 96.23 89.0829L96.47 89.3271C102.953 96.0954 113.414 96.1822 119.999 89.5875L120.254 89.3271C125.246 84.1158 133.291 84.0344 138.379 89.0829L138.619 89.3271C145.102 96.0954 155.562 96.1822 162.148 89.5875L162.402 89.3271C167.394 84.1158 175.44 84.0344 180.527 89.0829L180.767 89.3271C187.251 96.0954 197.711 96.1822 204.296 89.5875L204.551 89.3271C209.543 84.1158 217.588 84.0344 222.676 89.0829L222.916 89.3271L233.453 100.327ZM233.453 123.327L236.163 120.499L225.625 109.499C222.469 106.204 218.37 104.492 214.234 104.364L213.899 104.357L213.564 104.357C209.427 104.401 205.302 106.028 202.096 109.238L201.842 109.499C199.385 112.063 196.19 113.385 192.971 113.465L192.659 113.469L192.348 113.465C189.233 113.388 186.139 112.147 183.717 109.743L183.477 109.499C180.32 106.204 176.221 104.492 172.086 104.364L171.75 104.357L171.415 104.357C167.278 104.401 163.154 106.028 159.948 109.238L159.693 109.499C157.237 112.063 154.041 113.385 150.822 113.465L150.511 113.469L150.199 113.465C147.084 113.388 143.991 112.147 141.568 109.743L141.328 109.499C138.172 106.204 134.073 104.492 129.937 104.364L129.602 104.357L129.266 104.357C125.129 104.401 121.005 106.028 117.799 109.238L117.544 109.499C115.088 112.063 111.892 113.385 108.673 113.465L108.362 113.469L108.05 113.465C104.935 113.388 101.842 112.147 99.4194 109.743L99.1794 109.499C96.0229 106.204 91.924 104.492 87.7884 104.364L87.453 104.357L87.1176 104.357C82.9808 104.401 78.8563 106.028 75.6502 109.238L75.3956 109.499C72.9392 112.063 69.7435 113.385 66.5247 113.465L66.2132 113.469L65.9016 113.465C62.7867 113.388 59.6933 112.147 57.2707 109.743L57.0307 109.499C53.8743 106.204 49.7753 104.492 45.6398 104.364L45.3044 104.357L44.969 104.357C40.8321 104.401 36.7077 106.028 33.5016 109.238L33.247 109.499C30.7113 112.146 27.3879 113.469 24.0645 113.469L23.753 113.465C20.638 113.388 17.5447 112.147 15.1221 109.743L14.8821 109.499L13.0742 107.611C9.54173 103.924 4.78562 101.807 -0.197891 101.692L-0.625582 101.688C-11.2155 101.688 -19.8209 110.557 -19.9972 121.568L-20 121.913H-16.1683C-16.1683 112.952 -9.20959 105.688 -0.625582 105.688C3.36364 105.688 7.19472 107.288 10.0795 110.15L10.3648 110.44L12.1726 112.327C18.6561 119.095 29.1163 119.182 35.7018 112.587L35.9564 112.327C38.4921 109.68 41.8155 108.357 45.1388 108.357L45.4504 108.36C48.5654 108.438 51.6587 109.679 54.0813 112.083L54.3213 112.327C57.6484 115.8 62.0226 117.514 66.3831 117.468L66.7184 117.461C70.7422 117.336 74.731 115.711 77.8505 112.587L78.1051 112.327C80.6407 109.68 83.9641 108.357 87.2875 108.357L87.5991 108.36C90.714 108.438 93.8074 109.679 96.23 112.083L96.47 112.327C99.797 115.8 104.171 117.514 108.532 117.468L108.867 117.461C112.891 117.336 116.88 115.711 119.999 112.587L120.254 112.327C122.789 109.68 126.113 108.357 129.436 108.357L129.748 108.36C132.863 108.438 135.956 109.679 138.379 112.083L138.619 112.327C141.946 115.8 146.32 117.514 150.68 117.468L151.016 117.461C155.04 117.336 159.028 115.711 162.148 112.587L162.402 112.327C164.938 109.68 168.261 108.357 171.585 108.357L171.896 108.36C175.011 108.438 178.105 109.679 180.527 112.083L180.767 112.327C184.094 115.8 188.469 117.514 192.829 117.468L193.164 117.461C197.188 117.336 201.177 115.711 204.296 112.587L204.551 112.327C207.087 109.68 210.41 108.357 213.734 108.357L214.045 108.36C217.16 108.438 220.253 109.679 222.676 112.083L222.916 112.327L233.453 123.327ZM233.453 145.327L236.163 142.499L225.625 131.499C219.142 124.73 208.682 124.644 202.096 131.238L201.842 131.499C196.85 136.71 188.804 136.792 183.717 131.743L183.477 131.499C176.993 124.73 166.533 124.644 159.948 131.238L159.693 131.499C154.701 136.71 146.656 136.792 141.568 131.743L141.328 131.499C134.845 124.73 124.384 124.644 117.799 131.238L117.544 131.499C112.552 136.71 104.507 136.792 99.4194 131.743L99.1794 131.499C92.6959 124.73 82.2357 124.644 75.6502 131.238L75.3956 131.499C70.4035 136.71 62.3582 136.792 57.2707 131.743L57.0307 131.499C50.5472 124.73 40.087 124.644 33.5016 131.238L33.247 131.499C28.2549 136.71 20.2096 136.792 15.1221 131.743L14.8821 131.499L13.0742 129.611C9.44081 125.818 4.51285 123.688 -0.625582 123.688C-11.2155 123.688 -19.8209 132.557 -19.9972 143.568L-20 143.913H-16.1683C-16.1683 134.952 -9.20959 127.688 -0.625582 127.688C3.36364 127.688 7.19472 129.288 10.0795 132.15L10.3648 132.44L12.1726 134.327C18.6561 141.095 29.1163 141.182 35.7018 134.587L35.9564 134.327C40.9485 129.116 48.9938 129.034 54.0813 134.083L54.3213 134.327C60.8048 141.095 71.265 141.182 77.8505 134.587L78.1051 134.327C83.0972 129.116 91.1425 129.034 96.23 134.083L96.47 134.327C102.953 141.095 113.414 141.182 119.999 134.587L120.254 134.327C125.246 129.116 133.291 129.034 138.379 134.083L138.619 134.327C145.102 141.095 155.562 141.182 162.148 134.587L162.402 134.327C167.394 129.116 175.44 129.034 180.527 134.083L180.767 134.327C187.251 141.095 197.711 141.182 204.296 134.587L204.551 134.327C209.543 129.116 217.588 129.034 222.676 134.083L222.916 134.327L233.453 145.327ZM233.453 166.327L236.163 163.499L225.625 152.499C219.142 145.73 208.682 145.644 202.096 152.238L201.842 152.499C196.85 157.71 188.804 157.792 183.717 152.743L183.477 152.499C176.993 145.73 166.533 145.644 159.948 152.238L159.693 152.499C154.701 157.71 146.656 157.792 141.568 152.743L141.328 152.499C134.845 145.73 124.384 145.644 117.799 152.238L117.544 152.499C112.552 157.71 104.507 157.792 99.4194 152.743L99.1794 152.499C92.6959 145.73 82.2357 145.644 75.6502 152.238L75.3956 152.499C70.4035 157.71 62.3582 157.792 57.2707 152.743L57.0307 152.499C50.5472 145.73 40.087 145.644 33.5016 152.238L33.247 152.499C28.2549 157.71 20.2096 157.792 15.1221 152.743L14.8821 152.499L13.0742 150.611C9.44081 146.818 4.51285 144.688 -0.625582 144.688C-11.2155 144.688 -19.8209 153.557 -19.9972 164.568L-20 164.913H-16.1683C-16.1683 155.952 -9.20959 148.688 -0.625582 148.688C3.36364 148.688 7.19472 150.288 10.0795 153.15L10.3648 153.44L12.1726 155.327C18.6561 162.095 29.1163 162.182 35.7018 155.587L35.9564 155.327C40.9485 150.116 48.9938 150.034 54.0813 155.083L54.3213 155.327C60.8048 162.095 71.265 162.182 77.8505 155.587L78.1051 155.327C83.0972 150.116 91.1425 150.034 96.23 155.083L96.47 155.327C102.953 162.095 113.414 162.182 119.999 155.587L120.254 155.327C125.246 150.116 133.291 150.034 138.379 155.083L138.619 155.327C145.102 162.095 155.562 162.182 162.148 155.587L162.402 155.327C167.394 150.116 175.44 150.034 180.527 155.083L180.767 155.327C187.251 162.095 197.711 162.182 204.296 155.587L204.551 155.327C209.543 150.116 217.588 150.034 222.676 155.083L222.916 155.327L233.453 166.327Z" fill="#0A0A0A" fill-opacity="0.6"/>
</g>
</svg>
