<svg width="1344" height="759" viewBox="0 0 1344 759" fill="none" xmlns="http://www.w3.org/2000/svg">
<rect width="1344" height="759" fill="#F0F3FF"/>
<path fill-rule="evenodd" clip-rule="evenodd" d="M868.666 674H671.999V379H868.666V674ZM868.666 379H674.212C673.474 379 672.736 379 671.999 379C671.999 324.692 716.025 280.667 770.333 280.667C824.641 280.667 868.666 324.692 868.666 379Z" fill="#AEBFFF"/>
<path d="M1065.33 182.333C1065.33 128.025 1109.36 84 1163.67 84C1217.97 84 1262 128.025 1262 182.333C1262 236.641 1217.97 280.667 1163.67 280.667C1109.36 280.667 1065.33 236.641 1065.33 182.333Z" fill="#213A82"/>
<path d="M699.247 379C699.247 339.741 731.073 307.916 770.332 307.916C809.59 307.916 841.416 339.741 841.416 379C841.416 418.259 809.59 450.085 770.332 450.085C731.073 450.085 699.247 418.259 699.247 379Z" fill="#213A82"/>
<path fill-rule="evenodd" clip-rule="evenodd" d="M868.667 575.667C868.667 521.359 912.693 477.334 967.001 477.334C1021.31 477.334 1065.33 521.359 1065.33 575.667C1065.33 629.975 1021.31 674 967.001 674C950.702 674 917.924 674 868.667 674C868.667 628.351 868.667 595.574 868.667 575.667Z" fill="#213A82"/>
<path fill-rule="evenodd" clip-rule="evenodd" d="M699.247 575.667C699.247 536.408 731.073 504.583 770.332 504.583C809.59 504.583 841.416 536.408 841.416 575.667C841.416 614.926 809.59 646.751 770.332 646.751C758.549 646.751 734.855 646.751 699.247 646.751C699.247 613.752 699.247 590.057 699.247 575.667Z" fill="#577FFB"/>
<mask id="mask0" mask-type="alpha" maskUnits="userSpaceOnUse" x="1065" y="280" width="198" height="198">
<path d="M1065.33 379C1065.33 433.308 1109.36 477.334 1163.67 477.334C1217.97 477.334 1262 433.308 1262 379C1262 324.692 1217.97 280.667 1163.67 280.667C1109.36 280.667 1065.33 324.692 1065.33 379Z" fill="white"/>
</mask>
<g mask="url(#mask0)">
<path d="M1065.33 379C1065.33 324.692 1109.36 280.667 1163.67 280.667C1217.97 280.667 1262 324.692 1262 379C1262 433.308 1217.97 477.334 1163.67 477.334C1109.36 477.334 1065.33 433.308 1065.33 379Z" fill="#213A82"/>
<path fill-rule="evenodd" clip-rule="evenodd" d="M1163.67 379C1163.67 433.308 1119.64 477.334 1065.33 477.334C1065.33 403.296 1065.33 339.629 1065.33 280.667C1119.64 280.667 1163.67 324.692 1163.67 379Z" fill="#577FFB"/>
<path fill-rule="evenodd" clip-rule="evenodd" d="M1163.67 379C1163.67 324.692 1207.69 280.667 1262 280.667C1262 354.705 1262 418.372 1262 477.334C1207.69 477.334 1163.67 433.308 1163.67 379Z" fill="#AEBFFF"/>
</g>
<path d="M927.903 380.185C927.903 357.938 945.937 339.904 968.184 339.904C990.43 339.904 1008.46 357.938 1008.46 380.185C1008.46 402.432 990.43 420.466 968.184 420.466C945.937 420.466 927.903 402.432 927.903 380.185Z" fill="#3358CC"/>
<path fill-rule="evenodd" clip-rule="evenodd" d="M1065.33 477.334H868.667V280.667H1065.33V477.334ZM1051.92 379C1051.92 332.098 1013.9 294.076 967.001 294.076C920.098 294.076 882.076 332.098 882.076 379C882.076 425.903 920.098 463.925 967.001 463.925C1013.9 463.925 1051.92 425.903 1051.92 379Z" fill="#3358CC"/>
<path fill-rule="evenodd" clip-rule="evenodd" d="M1262 674.001H1065.33V477.334H1262V674.001ZM1248.59 575.667C1248.59 528.765 1210.57 490.743 1163.67 490.743C1116.76 490.743 1078.74 528.765 1078.74 575.667C1078.74 622.57 1116.76 660.591 1163.67 660.591C1210.57 660.591 1248.59 622.57 1248.59 575.667Z" fill="#3358CC"/>
<path fill-rule="evenodd" clip-rule="evenodd" d="M868.666 182.333C868.666 236.641 824.641 280.667 770.333 280.667C716.025 280.667 671.999 236.641 671.999 182.333C671.999 128.025 716.025 84 770.333 84C824.641 84 868.666 128.025 868.666 182.333ZM819.499 182.333C819.499 155.179 797.487 133.167 770.333 133.167C743.179 133.167 721.166 155.179 721.166 182.333C721.166 209.487 743.179 231.5 770.333 231.5C797.487 231.5 819.499 209.487 819.499 182.333Z" fill="#3358CC"/>
<path fill-rule="evenodd" clip-rule="evenodd" d="M966.407 182.926C966.407 128.618 1010.43 84.5924 1064.74 84.5924C1064.74 158.631 1064.74 222.297 1064.74 281.259C1010.43 281.259 966.407 237.234 966.407 182.926Z" fill="#577FFB"/>
<path fill-rule="evenodd" clip-rule="evenodd" d="M966.408 182.926C966.408 237.234 922.382 281.259 868.074 281.259C868.074 207.221 868.074 143.554 868.074 84.5923C922.382 84.5923 966.408 128.618 966.408 182.926Z" fill="#AEBFFF"/>
<path d="M895.917 575.667C895.917 536.408 927.743 504.583 967.002 504.583C1006.26 504.583 1038.09 536.408 1038.09 575.667C1038.09 614.926 1006.26 646.751 967.002 646.751C927.743 646.751 895.917 614.926 895.917 575.667Z" fill="#213A5F"/>
</svg>
