<svg width="1344" height="759" viewBox="0 0 1344 759" fill="none" xmlns="http://www.w3.org/2000/svg">
<rect width="1344" height="759" fill="#F0F3FF"/>
<path fill-rule="evenodd" clip-rule="evenodd" d="M531.458 161.281L531.502 161.337C532.717 162.885 534.847 163.294 536.526 162.4L878.797 237.984L757.433 438.864C756.61 438.889 755.787 439.168 755.089 439.716C753.352 441.08 753.049 443.594 754.413 445.332L755.617 446.867C756.942 448.555 759.352 448.889 761.081 447.658L1108.94 201.418L1108.28 200.481C1109.89 199.753 1110.88 198.008 1110.57 196.179C1110.21 194 1108.15 192.528 1105.97 192.891L1104.11 193.201C1102.07 193.541 1100.64 195.373 1100.77 197.396L772.102 430.055L888.683 237.092L888.67 237.085C890.341 236.384 891.375 234.605 891.064 232.74C890.701 230.561 888.641 229.089 886.461 229.452L884.601 229.761C883.866 229.884 883.211 230.2 882.679 230.649L535.694 154.023C534.292 153.069 532.379 153.082 530.974 154.185C529.236 155.549 528.933 158.064 530.297 159.801L531.299 161.078L531.264 161.238L531.458 161.281ZM550.253 178.747C551.99 177.383 554.505 177.686 555.869 179.424L558.279 182.494C559.643 184.232 559.34 186.746 557.602 188.11C555.864 189.474 553.35 189.171 551.986 187.433L549.576 184.363C548.212 182.625 548.515 180.111 550.253 178.747ZM570.736 204.844C572.474 203.48 574.988 203.783 576.352 205.521L578.762 208.591C580.126 210.329 579.823 212.843 578.086 214.207C576.348 215.571 573.833 215.268 572.469 213.53L570.059 210.46C568.695 208.722 568.998 206.208 570.736 204.844ZM591.22 230.941C592.958 229.577 595.472 229.88 596.836 231.618L599.246 234.688C600.61 236.426 600.307 238.94 598.569 240.304C596.831 241.668 594.317 241.365 592.953 239.627L590.543 236.557C589.179 234.819 589.482 232.305 591.22 230.941ZM611.704 257.038C613.441 255.674 615.956 255.977 617.32 257.714L619.73 260.785C621.094 262.522 620.791 265.037 619.053 266.401C617.315 267.765 614.801 267.462 613.437 265.724L611.027 262.654C609.663 260.916 609.966 258.402 611.704 257.038ZM632.187 283.134C633.925 281.771 636.439 282.074 637.803 283.811L640.213 286.882C641.577 288.619 641.274 291.134 639.537 292.498C637.799 293.862 635.284 293.559 633.92 291.821L631.51 288.751C630.146 287.013 630.449 284.498 632.187 283.134ZM652.671 309.231C654.409 307.867 656.923 308.17 658.287 309.908L660.697 312.978C662.061 314.716 661.758 317.231 660.02 318.595C658.282 319.959 655.768 319.656 654.404 317.918L651.994 314.848C650.63 313.11 650.933 310.595 652.671 309.231ZM673.155 335.328C674.892 333.964 677.407 334.267 678.771 336.005L681.181 339.075C682.545 340.813 682.242 343.328 680.504 344.691C678.766 346.055 676.252 345.752 674.888 344.015L672.478 340.944C671.114 339.207 671.417 336.692 673.155 335.328ZM693.638 361.425C695.376 360.061 697.891 360.364 699.255 362.102L701.664 365.172C703.028 366.91 702.725 369.424 700.988 370.788C699.25 372.152 696.735 371.849 695.371 370.112L692.962 367.041C691.598 365.304 691.901 362.789 693.638 361.425ZM714.122 387.522C715.86 386.158 718.374 386.461 719.738 388.199L722.148 391.269C723.512 393.007 723.209 395.521 721.471 396.885C719.733 398.249 717.219 397.946 715.855 396.208L713.445 393.138C712.081 391.4 712.384 388.886 714.122 387.522ZM734.606 413.619C736.343 412.255 738.858 412.558 740.222 414.296L742.632 417.366C743.996 419.104 743.693 421.618 741.955 422.982C740.217 424.346 737.703 424.043 736.339 422.305L733.929 419.235C732.565 417.497 732.868 414.983 734.606 413.619ZM1080.81 201.137C1081.17 203.316 1079.7 205.376 1077.52 205.739L1073.8 206.359C1071.62 206.722 1069.56 205.25 1069.2 203.071C1068.83 200.891 1070.31 198.831 1072.48 198.468L1076.21 197.848C1078.38 197.485 1080.44 198.957 1080.81 201.137ZM1049.18 206.404C1049.55 208.583 1048.07 210.644 1045.9 211.007L1042.18 211.626C1040 211.989 1037.94 210.517 1037.57 208.338C1037.21 206.159 1038.68 204.098 1040.86 203.735L1044.58 203.115C1046.76 202.752 1048.82 204.225 1049.18 206.404ZM1017.56 211.671C1017.92 213.85 1016.45 215.911 1014.27 216.274L1010.55 216.894C1008.37 217.257 1006.31 215.784 1005.95 213.605C1005.59 211.426 1007.06 209.365 1009.24 209.002L1012.96 208.383C1015.14 208.02 1017.2 209.492 1017.56 211.671ZM985.936 216.938C986.299 219.117 984.827 221.178 982.648 221.541L978.927 222.161C976.748 222.524 974.687 221.051 974.324 218.872C973.961 216.693 975.434 214.632 977.613 214.27L981.333 213.65C983.512 213.287 985.573 214.759 985.936 216.938ZM954.312 222.206C954.675 224.385 953.203 226.445 951.024 226.808L947.303 227.428C945.124 227.791 943.063 226.319 942.7 224.14C942.337 221.96 943.81 219.9 945.989 219.537L949.709 218.917C951.888 218.554 953.949 220.026 954.312 222.206ZM922.688 227.473C923.051 229.652 921.579 231.713 919.4 232.076L915.679 232.695C913.5 233.058 911.439 231.586 911.076 229.407C910.714 227.228 912.186 225.167 914.365 224.804L918.085 224.184C920.265 223.821 922.325 225.294 922.688 227.473Z" fill="#213A82"/>
<path d="M532.784 208.688C504.039 208.688 480.737 185.4 480.737 156.674C480.737 127.947 504.039 104.659 532.784 104.659C561.529 104.659 584.832 127.947 584.832 156.674C584.832 185.4 561.529 208.688 532.784 208.688Z" fill="#3358CC"/>
<path d="M886.577 270.578C866.929 270.578 851 254.365 851 234.365C851 214.366 866.929 198.153 886.577 198.153C906.226 198.153 922.154 214.366 922.154 234.365C922.154 254.365 906.226 270.578 886.577 270.578Z" fill="#213A82"/>
<path d="M758.763 524.723C714.372 524.723 678.386 488.466 678.386 443.739C678.386 399.013 714.372 362.755 758.763 362.755C803.154 362.755 839.141 399.013 839.141 443.739C839.141 488.466 803.154 524.723 758.763 524.723Z" fill="#87A4FC"/>
<mask id="mask0" mask-type="alpha" maskUnits="userSpaceOnUse" x="988" y="79" width="236" height="235">
<path d="M1047.13 95.2735C990.95 127.687 971.649 199.388 1004.02 255.421C1036.4 311.455 1108.19 330.603 1164.37 298.189C1220.56 265.775 1239.86 194.075 1207.48 138.041C1175.11 82.0077 1103.32 62.8599 1047.13 95.2735Z" fill="white"/>
</mask>
<g mask="url(#mask0)">
<path d="M1047.14 95.2751C990.951 127.69 971.649 199.39 1004.02 255.423C1036.4 311.456 1108.19 330.602 1164.37 298.187C1220.56 265.773 1239.86 194.072 1207.48 138.04C1175.11 82.007 1103.32 62.8607 1047.14 95.2751Z" fill="#2B4AAB"/>
</g>
<mask id="mask1" mask-type="alpha" maskUnits="userSpaceOnUse" x="988" y="79" width="236" height="235">
<path d="M1047.13 95.2735C990.95 127.687 971.649 199.388 1004.02 255.421C1036.4 311.455 1108.19 330.603 1164.37 298.189C1220.56 265.775 1239.86 194.075 1207.48 138.041C1175.11 82.0077 1103.32 62.8599 1047.13 95.2735Z" fill="white"/>
</mask>
<g mask="url(#mask1)">
<path d="M1047.14 95.2751C990.951 127.69 971.649 199.39 1004.02 255.423C1036.4 311.456 1108.19 330.602 1164.37 298.187C1220.56 265.773 1239.86 194.072 1207.48 138.04C1175.11 82.007 1103.32 62.8607 1047.14 95.2751Z" fill="#2B4AAB"/>
<path fill-rule="evenodd" clip-rule="evenodd" d="M1217.02 149.849C1190.74 93.0075 1153.85 88.0701 1152.98 87.8659C1127.44 81.8995 1072.73 72.8553 1041.67 94.3895C1010.61 115.924 995.876 198.578 1041.43 224.341C1082.6 247.623 1086.65 285.072 1113.11 291.943C1139.57 298.815 1172.56 291.062 1199.66 267.708C1226.76 244.353 1243.31 206.691 1217.02 149.849Z" fill="#3358CC"/>
<path fill-rule="evenodd" clip-rule="evenodd" d="M1198.36 96.6357C1234.44 126.617 1230.79 154.299 1230.76 154.971C1230.08 174.623 1229.38 201.741 1207.67 220.108C1185.95 238.474 1142.63 237.794 1141.7 237.715C1123.37 236.164 1115.97 208.238 1101.05 193.328C1085.02 177.308 1072.05 163.253 1072.26 142.754C1072.46 122.255 1093.82 102.173 1109.47 86.5464C1124.72 71.3101 1162.29 66.6542 1198.36 96.6357Z" fill="#577FFB"/>
<path fill-rule="evenodd" clip-rule="evenodd" d="M1194.45 112.324C1210.98 126.058 1209.31 138.738 1209.29 139.046C1208.98 148.048 1208.66 160.47 1198.72 168.883C1188.77 177.296 1168.92 176.984 1168.5 176.948C1160.1 176.238 1156.71 163.446 1149.88 156.616C1142.53 149.278 1136.59 142.84 1136.69 133.45C1136.78 124.06 1146.57 114.861 1153.73 107.703C1160.72 100.724 1177.93 98.5909 1194.45 112.324Z" fill="#87A4FC"/>
</g>
<path d="M761.182 676.808C781.451 677.515 799.74 679.559 812.921 682.287C819.515 683.652 824.808 685.184 828.425 686.794C830.236 687.6 831.598 688.413 832.493 689.215C833.393 690.021 833.754 690.754 833.731 691.407C833.709 692.061 833.297 692.766 832.343 693.507C831.395 694.245 829.979 694.961 828.116 695.639C824.395 696.993 819.009 698.152 812.335 699.054C798.996 700.857 780.609 701.621 760.34 700.913C740.071 700.206 721.782 698.162 708.601 695.434C702.007 694.069 696.715 692.537 693.097 690.927C691.286 690.121 689.924 689.308 689.029 688.506C688.13 687.7 687.768 686.968 687.791 686.314C687.814 685.66 688.225 684.955 689.179 684.214C690.128 683.476 691.544 682.76 693.406 682.082C697.127 680.728 702.513 679.569 709.187 678.667C722.526 676.864 740.913 676.1 761.182 676.808ZM1104.82 649.302C1129.06 650.147 1150.94 652.116 1166.74 654.614C1174.64 655.863 1181 657.242 1185.36 658.672C1187.54 659.388 1189.2 660.108 1190.29 660.815C1191.42 661.545 1191.79 662.154 1191.77 662.608C1191.75 663.062 1191.35 663.644 1190.17 664.294C1189.03 664.923 1187.33 665.526 1185.1 666.088C1180.65 667.21 1174.21 668.142 1166.24 668.838C1150.31 670.228 1128.34 670.666 1104.11 669.821C1079.87 668.975 1057.99 667.006 1042.19 664.508C1034.29 663.259 1027.93 661.88 1023.57 660.451C1021.38 659.734 1019.73 659.014 1018.64 658.308C1017.51 657.578 1017.14 656.968 1017.16 656.514C1017.17 656.061 1017.58 655.478 1018.76 654.828C1019.9 654.2 1021.6 653.597 1023.83 653.034C1028.28 651.912 1034.72 650.98 1042.69 650.285C1058.62 648.894 1080.59 648.456 1104.82 649.302ZM533.254 627.559C545.611 627.991 556.769 628.982 564.817 630.235C568.844 630.862 572.074 631.551 574.281 632.262C575.389 632.618 576.21 632.972 576.742 633.309C577.313 633.671 577.385 633.908 577.382 633.985C577.38 634.063 577.291 634.294 576.696 634.615C576.142 634.915 575.298 635.21 574.169 635.488C571.917 636.044 568.647 636.506 564.586 636.851C556.47 637.539 545.27 637.75 532.913 637.319C520.555 636.888 509.397 635.896 501.35 634.644C497.322 634.017 494.092 633.328 491.885 632.617C490.778 632.26 489.956 631.907 489.425 631.57C488.854 631.207 488.781 630.971 488.784 630.893C488.787 630.816 488.876 630.585 489.47 630.263C490.024 629.964 490.868 629.669 491.998 629.39C494.249 628.835 497.52 628.373 501.581 628.028C509.696 627.34 520.896 627.128 533.254 627.559ZM930.171 601.412C930.162 601.678 929.983 602.022 929.432 602.427C928.89 602.826 928.065 603.223 926.959 603.602C924.753 604.36 921.545 605.01 917.553 605.517C909.577 606.53 898.562 606.958 886.378 606.564L885.639 606.539C885.639 606.539 885.638 606.539 885.638 606.539C873.286 606.108 862.142 604.916 854.114 603.342C850.095 602.554 846.88 601.674 844.689 600.756C843.591 600.296 842.779 599.838 842.255 599.397C841.721 598.949 841.564 598.588 841.573 598.32C841.582 598.055 841.761 597.71 842.312 597.305C842.854 596.906 843.679 596.51 844.785 596.13C846.991 595.373 850.199 594.722 854.191 594.215C862.167 593.203 873.182 592.775 885.365 593.168C885.365 593.168 885.366 593.168 885.366 593.168L886.105 593.193C886.105 593.193 886.105 593.193 886.106 593.193C898.458 593.624 909.602 594.816 917.631 596.39C921.649 597.178 924.864 598.058 927.055 598.976C928.153 599.436 928.965 599.894 929.49 600.335C930.023 600.783 930.181 601.144 930.171 601.412Z" fill="#BBC3C9" stroke="#BBC3C9"/>
<path fill-rule="evenodd" clip-rule="evenodd" d="M884.607 598.025L532.187 632.407L884.607 598.025ZM755.323 690.465L1104.46 659.56Z" fill="#BBC3C9"/>
<path d="M755.323 690.465L1104.46 659.56M884.607 598.025L532.187 632.407L884.607 598.025Z" stroke="#BBC3C9" stroke-width="2"/>
<path d="M755.324 690.462L885.931 598.075" stroke="#BBC3C9" stroke-width="2"/>
<path d="M885.869 599.868L1104.46 659.573" stroke="#BBC3C9" stroke-width="2" stroke-dasharray="4 7"/>
<path d="M529.436 634.093L760.762 688.857" stroke="#BBC3C9" stroke-width="2" stroke-dasharray="4 8"/>
</svg>
