<svg width="205" height="143" viewBox="0 0 205 143" fill="none" xmlns="http://www.w3.org/2000/svg">
<path d="M203.24 138.268H202.47C201.618 138.268 200.928 139.204 200.928 140.36C200.928 141.515 201.618 142.451 202.47 142.451H203.24C204.092 142.451 204.782 141.515 204.782 140.36C204.782 139.204 204.092 138.268 203.24 138.268ZM187.821 138.268H187.05C186.198 138.268 185.508 139.204 185.508 140.36C185.508 141.515 186.198 142.451 187.05 142.451H187.821C188.672 142.451 189.362 141.515 189.362 140.36C189.362 139.204 188.672 138.268 187.821 138.268ZM172.409 138.268H171.638C170.787 138.268 170.097 139.204 170.097 140.36C170.097 141.515 170.787 142.451 171.638 142.451H172.409C173.261 142.451 173.951 141.515 173.951 140.36C173.951 139.204 173.261 138.268 172.409 138.268ZM156.993 138.268H156.222C155.371 138.268 154.681 139.204 154.681 140.36C154.681 141.515 155.371 142.451 156.222 142.451H156.993C157.845 142.451 158.535 141.515 158.535 140.36C158.535 139.204 157.845 138.268 156.993 138.268ZM141.575 138.268H140.805C139.953 138.268 139.263 139.204 139.263 140.36C139.263 141.515 139.953 142.451 140.805 142.451H141.575C142.427 142.451 143.117 141.515 143.117 140.36C143.117 139.204 142.427 138.268 141.575 138.268ZM126.159 138.268H125.388C124.536 138.268 123.846 139.204 123.846 140.36C123.846 141.515 124.536 142.451 125.388 142.451H126.159C127.01 142.451 127.7 141.515 127.7 140.36C127.7 139.204 127.01 138.268 126.159 138.268ZM110.738 138.268H109.967C109.116 138.268 108.425 139.204 108.425 140.36C108.425 141.515 109.116 142.451 109.967 142.451H110.738C111.589 142.451 112.28 141.515 112.28 140.36C112.28 139.204 111.589 138.268 110.738 138.268ZM95.3262 138.268H94.5554C93.7039 138.268 93.0136 139.204 93.0136 140.36C93.0136 141.515 93.7039 142.451 94.5554 142.451H95.3262C96.1777 142.451 96.868 141.515 96.868 140.36C96.868 139.204 96.1777 138.268 95.3262 138.268ZM79.9087 138.268H79.1378C78.2863 138.268 77.5961 139.204 77.5961 140.36C77.5961 141.515 78.2863 142.451 79.1378 142.451H79.9087C80.7602 142.451 81.4504 141.515 81.4504 140.36C81.4504 139.204 80.7602 138.268 79.9087 138.268ZM64.4883 138.268H63.7175C62.866 138.268 62.1757 139.204 62.1757 140.36C62.1757 141.515 62.866 142.451 63.7175 142.451H64.4883C65.3398 142.451 66.0301 141.515 66.0301 140.36C66.0301 139.204 65.3398 138.268 64.4883 138.268ZM49.0682 138.268H48.2974C47.4459 138.268 46.7556 139.204 46.7556 140.36C46.7556 141.515 47.4459 142.451 48.2974 142.451H49.0682C49.9197 142.451 50.61 141.515 50.61 140.36C50.61 139.204 49.9197 138.268 49.0682 138.268ZM33.6522 138.268H32.8813C32.0298 138.268 31.3395 139.204 31.3395 140.36C31.3395 141.515 32.0298 142.451 32.8813 142.451H33.6522C34.5037 142.451 35.1939 141.515 35.1939 140.36C35.1939 139.204 34.5037 138.268 33.6522 138.268ZM18.2356 138.268H17.4648C16.6133 138.268 15.923 139.204 15.923 140.36C15.923 141.515 16.6133 142.451 17.4648 142.451H18.2356C19.0871 142.451 19.7774 141.515 19.7774 140.36C19.7774 139.204 19.0871 138.268 18.2356 138.268ZM2.81385 138.268H2.04297C1.19148 138.268 0.501215 139.204 0.501215 140.36C0.501215 141.515 1.19148 142.451 2.04297 142.451H2.81385C3.66534 142.451 4.3556 141.515 4.3556 140.36C4.3556 139.204 3.66534 138.268 2.81385 138.268Z" fill="#E0E7FF"/>
<path d="M203.24 118.398H202.47C201.618 118.398 200.928 119.334 200.928 120.489C200.928 121.645 201.618 122.581 202.47 122.581H203.24C204.092 122.581 204.782 121.645 204.782 120.489C204.782 119.334 204.092 118.398 203.24 118.398ZM187.821 118.398H187.05C186.198 118.398 185.508 119.334 185.508 120.489C185.508 121.645 186.198 122.581 187.05 122.581H187.821C188.672 122.581 189.362 121.645 189.362 120.489C189.362 119.334 188.672 118.398 187.821 118.398ZM172.409 118.398H171.638C170.787 118.398 170.097 119.334 170.097 120.489C170.097 121.645 170.787 122.581 171.638 122.581H172.409C173.261 122.581 173.951 121.645 173.951 120.489C173.951 119.334 173.261 118.398 172.409 118.398ZM156.993 118.398H156.222C155.371 118.398 154.681 119.334 154.681 120.489C154.681 121.645 155.371 122.581 156.222 122.581H156.993C157.845 122.581 158.535 121.645 158.535 120.489C158.535 119.334 157.845 118.398 156.993 118.398ZM141.575 118.398H140.805C139.953 118.398 139.263 119.334 139.263 120.489C139.263 121.645 139.953 122.581 140.805 122.581H141.575C142.427 122.581 143.117 121.645 143.117 120.489C143.117 119.334 142.427 118.398 141.575 118.398ZM126.159 118.398H125.388C124.536 118.398 123.846 119.334 123.846 120.489C123.846 121.645 124.536 122.581 125.388 122.581H126.159C127.01 122.581 127.7 121.645 127.7 120.489C127.7 119.334 127.01 118.398 126.159 118.398ZM110.738 118.398H109.967C109.116 118.398 108.425 119.334 108.425 120.489C108.425 121.645 109.116 122.581 109.967 122.581H110.738C111.589 122.581 112.28 121.645 112.28 120.489C112.28 119.334 111.589 118.398 110.738 118.398ZM95.3262 118.398H94.5554C93.7039 118.398 93.0136 119.334 93.0136 120.489C93.0136 121.645 93.7039 122.581 94.5554 122.581H95.3262C96.1777 122.581 96.868 121.645 96.868 120.489C96.868 119.334 96.1777 118.398 95.3262 118.398ZM79.9087 118.398H79.1378C78.2863 118.398 77.5961 119.334 77.5961 120.489C77.5961 121.645 78.2863 122.581 79.1378 122.581H79.9087C80.7602 122.581 81.4504 121.645 81.4504 120.489C81.4504 119.334 80.7602 118.398 79.9087 118.398ZM64.4883 118.398H63.7175C62.866 118.398 62.1757 119.334 62.1757 120.489C62.1757 121.645 62.866 122.581 63.7175 122.581H64.4883C65.3398 122.581 66.0301 121.645 66.0301 120.489C66.0301 119.334 65.3398 118.398 64.4883 118.398ZM49.0682 118.398H48.2974C47.4459 118.398 46.7556 119.334 46.7556 120.489C46.7556 121.645 47.4459 122.581 48.2974 122.581H49.0682C49.9197 122.581 50.61 121.645 50.61 120.489C50.61 119.334 49.9197 118.398 49.0682 118.398ZM33.6522 118.398H32.8813C32.0298 118.398 31.3395 119.334 31.3395 120.489C31.3395 121.645 32.0298 122.581 32.8813 122.581H33.6522C34.5037 122.581 35.1939 121.645 35.1939 120.489C35.1939 119.334 34.5037 118.398 33.6522 118.398ZM18.2356 118.398H17.4648C16.6133 118.398 15.923 119.334 15.923 120.489C15.923 121.645 16.6133 122.581 17.4648 122.581H18.2356C19.0871 122.581 19.7774 121.645 19.7774 120.489C19.7774 119.334 19.0871 118.398 18.2356 118.398ZM2.81385 118.398H2.04297C1.19148 118.398 0.501215 119.334 0.501215 120.489C0.501215 121.645 1.19148 122.581 2.04297 122.581H2.81385C3.66534 122.581 4.3556 121.645 4.3556 120.489C4.3556 119.334 3.66534 118.398 2.81385 118.398Z" fill="#E0E7FF"/>
<path d="M203.24 98.5278H202.47C201.618 98.5278 200.928 99.4642 200.928 100.619C200.928 101.775 201.618 102.711 202.47 102.711H203.24C204.092 102.711 204.782 101.775 204.782 100.619C204.782 99.4642 204.092 98.5278 203.24 98.5278ZM187.821 98.5278H187.05C186.198 98.5278 185.508 99.4642 185.508 100.619C185.508 101.775 186.198 102.711 187.05 102.711H187.821C188.672 102.711 189.362 101.775 189.362 100.619C189.362 99.4642 188.672 98.5278 187.821 98.5278ZM172.409 98.5278H171.638C170.787 98.5278 170.097 99.4642 170.097 100.619C170.097 101.775 170.787 102.711 171.638 102.711H172.409C173.261 102.711 173.951 101.775 173.951 100.619C173.951 99.4642 173.261 98.5278 172.409 98.5278ZM156.993 98.5278H156.222C155.371 98.5278 154.681 99.4642 154.681 100.619C154.681 101.775 155.371 102.711 156.222 102.711H156.993C157.845 102.711 158.535 101.775 158.535 100.619C158.535 99.4642 157.845 98.5278 156.993 98.5278ZM141.575 98.5278H140.805C139.953 98.5278 139.263 99.4642 139.263 100.619C139.263 101.775 139.953 102.711 140.805 102.711H141.575C142.427 102.711 143.117 101.775 143.117 100.619C143.117 99.4642 142.427 98.5278 141.575 98.5278ZM126.159 98.5278H125.388C124.536 98.5278 123.846 99.4642 123.846 100.619C123.846 101.775 124.536 102.711 125.388 102.711H126.159C127.01 102.711 127.7 101.775 127.7 100.619C127.7 99.4642 127.01 98.5278 126.159 98.5278ZM110.738 98.5278H109.967C109.116 98.5278 108.425 99.4642 108.425 100.619C108.425 101.775 109.116 102.711 109.967 102.711H110.738C111.589 102.711 112.28 101.775 112.28 100.619C112.28 99.4642 111.589 98.5278 110.738 98.5278ZM95.3262 98.5278H94.5554C93.7039 98.5278 93.0136 99.4642 93.0136 100.619C93.0136 101.775 93.7039 102.711 94.5554 102.711H95.3262C96.1777 102.711 96.868 101.775 96.868 100.619C96.868 99.4642 96.1777 98.5278 95.3262 98.5278ZM79.9087 98.5278H79.1378C78.2863 98.5278 77.5961 99.4642 77.5961 100.619C77.5961 101.775 78.2863 102.711 79.1378 102.711H79.9087C80.7602 102.711 81.4504 101.775 81.4504 100.619C81.4504 99.4642 80.7602 98.5278 79.9087 98.5278ZM64.4883 98.5278H63.7175C62.866 98.5278 62.1757 99.4642 62.1757 100.619C62.1757 101.775 62.866 102.711 63.7175 102.711H64.4883C65.3398 102.711 66.0301 101.775 66.0301 100.619C66.0301 99.4642 65.3398 98.5278 64.4883 98.5278ZM49.0682 98.5278H48.2974C47.4459 98.5278 46.7556 99.4642 46.7556 100.619C46.7556 101.775 47.4459 102.711 48.2974 102.711H49.0682C49.9197 102.711 50.61 101.775 50.61 100.619C50.61 99.4642 49.9197 98.5278 49.0682 98.5278ZM33.6522 98.5278H32.8813C32.0298 98.5278 31.3395 99.4642 31.3395 100.619C31.3395 101.775 32.0298 102.711 32.8813 102.711H33.6522C34.5037 102.711 35.1939 101.775 35.1939 100.619C35.1939 99.4642 34.5037 98.5278 33.6522 98.5278ZM18.2356 98.5278H17.4648C16.6133 98.5278 15.923 99.4642 15.923 100.619C15.923 101.775 16.6133 102.711 17.4648 102.711H18.2356C19.0871 102.711 19.7774 101.775 19.7774 100.619C19.7774 99.4642 19.0871 98.5278 18.2356 98.5278ZM2.81385 98.5278H2.04297C1.19148 98.5278 0.501215 99.4642 0.501215 100.619C0.501215 101.775 1.19148 102.711 2.04297 102.711H2.81385C3.66534 102.711 4.3556 101.775 4.3556 100.619C4.3556 99.4642 3.66534 98.5278 2.81385 98.5278Z" fill="#E0E7FF"/>
<path d="M203.24 78.6587H202.47C201.618 78.6587 200.928 79.5951 200.928 80.7502C200.928 81.9054 201.618 82.8418 202.47 82.8418H203.24C204.092 82.8418 204.782 81.9054 204.782 80.7502C204.782 79.5951 204.092 78.6587 203.24 78.6587ZM187.821 78.6587H187.05C186.198 78.6587 185.508 79.5951 185.508 80.7502C185.508 81.9054 186.198 82.8418 187.05 82.8418H187.821C188.672 82.8418 189.362 81.9054 189.362 80.7502C189.362 79.5951 188.672 78.6587 187.821 78.6587ZM172.409 78.6587H171.638C170.787 78.6587 170.097 79.5951 170.097 80.7502C170.097 81.9054 170.787 82.8418 171.638 82.8418H172.409C173.261 82.8418 173.951 81.9054 173.951 80.7502C173.951 79.5951 173.261 78.6587 172.409 78.6587ZM156.993 78.6587H156.222C155.371 78.6587 154.681 79.5951 154.681 80.7502C154.681 81.9054 155.371 82.8418 156.222 82.8418H156.993C157.845 82.8418 158.535 81.9054 158.535 80.7502C158.535 79.5951 157.845 78.6587 156.993 78.6587ZM141.575 78.6587H140.805C139.953 78.6587 139.263 79.5951 139.263 80.7502C139.263 81.9054 139.953 82.8418 140.805 82.8418H141.575C142.427 82.8418 143.117 81.9054 143.117 80.7502C143.117 79.5951 142.427 78.6587 141.575 78.6587ZM126.159 78.6587H125.388C124.536 78.6587 123.846 79.5951 123.846 80.7502C123.846 81.9054 124.536 82.8418 125.388 82.8418H126.159C127.01 82.8418 127.7 81.9054 127.7 80.7502C127.7 79.5951 127.01 78.6587 126.159 78.6587ZM110.738 78.6587H109.967C109.116 78.6587 108.425 79.5951 108.425 80.7502C108.425 81.9054 109.116 82.8418 109.967 82.8418H110.738C111.589 82.8418 112.28 81.9054 112.28 80.7502C112.28 79.5951 111.589 78.6587 110.738 78.6587ZM95.3262 78.6587H94.5554C93.7039 78.6587 93.0136 79.5951 93.0136 80.7502C93.0136 81.9054 93.7039 82.8418 94.5554 82.8418H95.3262C96.1777 82.8418 96.868 81.9054 96.868 80.7502C96.868 79.5951 96.1777 78.6587 95.3262 78.6587ZM79.9087 78.6587H79.1378C78.2863 78.6587 77.5961 79.5951 77.5961 80.7502C77.5961 81.9054 78.2863 82.8418 79.1378 82.8418H79.9087C80.7602 82.8418 81.4504 81.9054 81.4504 80.7502C81.4504 79.5951 80.7602 78.6587 79.9087 78.6587ZM64.4883 78.6587H63.7175C62.866 78.6587 62.1757 79.5951 62.1757 80.7502C62.1757 81.9054 62.866 82.8418 63.7175 82.8418H64.4883C65.3398 82.8418 66.0301 81.9054 66.0301 80.7502C66.0301 79.5951 65.3398 78.6587 64.4883 78.6587ZM49.0682 78.6587H48.2974C47.4459 78.6587 46.7556 79.5951 46.7556 80.7502C46.7556 81.9054 47.4459 82.8418 48.2974 82.8418H49.0682C49.9197 82.8418 50.61 81.9054 50.61 80.7502C50.61 79.5951 49.9197 78.6587 49.0682 78.6587ZM33.6522 78.6587H32.8813C32.0298 78.6587 31.3395 79.5951 31.3395 80.7502C31.3395 81.9054 32.0298 82.8418 32.8813 82.8418H33.6522C34.5037 82.8418 35.1939 81.9054 35.1939 80.7502C35.1939 79.5951 34.5037 78.6587 33.6522 78.6587ZM18.2356 78.6587H17.4648C16.6133 78.6587 15.923 79.5951 15.923 80.7502C15.923 81.9054 16.6133 82.8418 17.4648 82.8418H18.2356C19.0871 82.8418 19.7774 81.9054 19.7774 80.7502C19.7774 79.5951 19.0871 78.6587 18.2356 78.6587ZM2.81385 78.6587H2.04297C1.19148 78.6587 0.501215 79.5951 0.501215 80.7502C0.501215 81.9054 1.19148 82.8418 2.04297 82.8418H2.81385C3.66534 82.8418 4.3556 81.9054 4.3556 80.7502C4.3556 79.5951 3.66534 78.6587 2.81385 78.6587Z" fill="#E0E7FF"/>
<path d="M203.24 59.8344H202.47C201.618 59.8344 200.928 60.7709 200.928 61.926C200.928 63.0812 201.618 64.0176 202.47 64.0176H203.24C204.092 64.0176 204.782 63.0812 204.782 61.926C204.782 60.7709 204.092 59.8344 203.24 59.8344ZM187.821 59.8344H187.05C186.198 59.8344 185.508 60.7709 185.508 61.926C185.508 63.0812 186.198 64.0176 187.05 64.0176H187.821C188.672 64.0176 189.362 63.0812 189.362 61.926C189.362 60.7709 188.672 59.8344 187.821 59.8344ZM172.409 59.8344H171.638C170.787 59.8344 170.097 60.7709 170.097 61.926C170.097 63.0812 170.787 64.0176 171.638 64.0176H172.409C173.261 64.0176 173.951 63.0812 173.951 61.926C173.951 60.7709 173.261 59.8344 172.409 59.8344ZM156.993 59.8344H156.222C155.371 59.8344 154.681 60.7709 154.681 61.926C154.681 63.0812 155.371 64.0176 156.222 64.0176H156.993C157.845 64.0176 158.535 63.0812 158.535 61.926C158.535 60.7709 157.845 59.8344 156.993 59.8344ZM141.575 59.8344H140.805C139.953 59.8344 139.263 60.7709 139.263 61.926C139.263 63.0812 139.953 64.0176 140.805 64.0176H141.575C142.427 64.0176 143.117 63.0812 143.117 61.926C143.117 60.7709 142.427 59.8344 141.575 59.8344ZM126.159 59.8344H125.388C124.536 59.8344 123.846 60.7709 123.846 61.926C123.846 63.0812 124.536 64.0176 125.388 64.0176H126.159C127.01 64.0176 127.7 63.0812 127.7 61.926C127.7 60.7709 127.01 59.8344 126.159 59.8344ZM110.738 59.8344H109.967C109.116 59.8344 108.425 60.7709 108.425 61.926C108.425 63.0812 109.116 64.0176 109.967 64.0176H110.738C111.589 64.0176 112.28 63.0812 112.28 61.926C112.28 60.7709 111.589 59.8344 110.738 59.8344ZM95.3262 59.8344H94.5554C93.7039 59.8344 93.0136 60.7709 93.0136 61.926C93.0136 63.0812 93.7039 64.0176 94.5554 64.0176H95.3262C96.1777 64.0176 96.868 63.0812 96.868 61.926C96.868 60.7709 96.1777 59.8344 95.3262 59.8344ZM79.9087 59.8344H79.1378C78.2863 59.8344 77.5961 60.7709 77.5961 61.926C77.5961 63.0812 78.2863 64.0176 79.1378 64.0176H79.9087C80.7602 64.0176 81.4504 63.0812 81.4504 61.926C81.4504 60.7709 80.7602 59.8344 79.9087 59.8344ZM64.4883 59.8344H63.7175C62.866 59.8344 62.1757 60.7709 62.1757 61.926C62.1757 63.0812 62.866 64.0176 63.7175 64.0176H64.4883C65.3398 64.0176 66.0301 63.0812 66.0301 61.926C66.0301 60.7709 65.3398 59.8344 64.4883 59.8344ZM49.0682 59.8344H48.2974C47.4459 59.8344 46.7556 60.7709 46.7556 61.926C46.7556 63.0812 47.4459 64.0176 48.2974 64.0176H49.0682C49.9197 64.0176 50.61 63.0812 50.61 61.926C50.61 60.7709 49.9197 59.8344 49.0682 59.8344ZM33.6522 59.8344H32.8813C32.0298 59.8344 31.3395 60.7709 31.3395 61.926C31.3395 63.0812 32.0298 64.0176 32.8813 64.0176H33.6522C34.5037 64.0176 35.1939 63.0812 35.1939 61.926C35.1939 60.7709 34.5037 59.8344 33.6522 59.8344ZM18.2356 59.8344H17.4648C16.6133 59.8344 15.923 60.7709 15.923 61.926C15.923 63.0812 16.6133 64.0176 17.4648 64.0176H18.2356C19.0871 64.0176 19.7774 63.0812 19.7774 61.926C19.7774 60.7709 19.0871 59.8344 18.2356 59.8344ZM2.81385 59.8344H2.04297C1.19148 59.8344 0.501215 60.7709 0.501215 61.926C0.501215 63.0812 1.19148 64.0176 2.04297 64.0176H2.81385C3.66534 64.0176 4.3556 63.0812 4.3556 61.926C4.3556 60.7709 3.66534 59.8344 2.81385 59.8344Z" fill="#E0E7FF"/>
<path d="M203.24 39.9643H202.47C201.618 39.9643 200.928 40.9008 200.928 42.0559C200.928 43.211 201.618 44.1475 202.47 44.1475H203.24C204.092 44.1475 204.782 43.211 204.782 42.0559C204.782 40.9008 204.092 39.9643 203.24 39.9643ZM187.821 39.9643H187.05C186.198 39.9643 185.508 40.9008 185.508 42.0559C185.508 43.211 186.198 44.1475 187.05 44.1475H187.821C188.672 44.1475 189.362 43.211 189.362 42.0559C189.362 40.9008 188.672 39.9643 187.821 39.9643ZM172.409 39.9643H171.638C170.787 39.9643 170.097 40.9008 170.097 42.0559C170.097 43.211 170.787 44.1475 171.638 44.1475H172.409C173.261 44.1475 173.951 43.211 173.951 42.0559C173.951 40.9008 173.261 39.9643 172.409 39.9643ZM156.993 39.9643H156.222C155.371 39.9643 154.681 40.9008 154.681 42.0559C154.681 43.211 155.371 44.1475 156.222 44.1475H156.993C157.845 44.1475 158.535 43.211 158.535 42.0559C158.535 40.9008 157.845 39.9643 156.993 39.9643ZM141.575 39.9643H140.805C139.953 39.9643 139.263 40.9008 139.263 42.0559C139.263 43.211 139.953 44.1475 140.805 44.1475H141.575C142.427 44.1475 143.117 43.211 143.117 42.0559C143.117 40.9008 142.427 39.9643 141.575 39.9643ZM126.159 39.9643H125.388C124.536 39.9643 123.846 40.9008 123.846 42.0559C123.846 43.211 124.536 44.1475 125.388 44.1475H126.159C127.01 44.1475 127.7 43.211 127.7 42.0559C127.7 40.9008 127.01 39.9643 126.159 39.9643ZM110.738 39.9643H109.967C109.116 39.9643 108.425 40.9008 108.425 42.0559C108.425 43.211 109.116 44.1475 109.967 44.1475H110.738C111.589 44.1475 112.28 43.211 112.28 42.0559C112.28 40.9008 111.589 39.9643 110.738 39.9643ZM95.3262 39.9643H94.5554C93.7039 39.9643 93.0136 40.9008 93.0136 42.0559C93.0136 43.211 93.7039 44.1475 94.5554 44.1475H95.3262C96.1777 44.1475 96.868 43.211 96.868 42.0559C96.868 40.9008 96.1777 39.9643 95.3262 39.9643ZM79.9087 39.9643H79.1378C78.2863 39.9643 77.5961 40.9008 77.5961 42.0559C77.5961 43.211 78.2863 44.1475 79.1378 44.1475H79.9087C80.7602 44.1475 81.4504 43.211 81.4504 42.0559C81.4504 40.9008 80.7602 39.9643 79.9087 39.9643ZM64.4883 39.9643H63.7175C62.866 39.9643 62.1757 40.9008 62.1757 42.0559C62.1757 43.211 62.866 44.1475 63.7175 44.1475H64.4883C65.3398 44.1475 66.0301 43.211 66.0301 42.0559C66.0301 40.9008 65.3398 39.9643 64.4883 39.9643ZM49.0682 39.9643H48.2974C47.4459 39.9643 46.7556 40.9008 46.7556 42.0559C46.7556 43.211 47.4459 44.1475 48.2974 44.1475H49.0682C49.9197 44.1475 50.61 43.211 50.61 42.0559C50.61 40.9008 49.9197 39.9643 49.0682 39.9643ZM33.6522 39.9643H32.8813C32.0298 39.9643 31.3395 40.9008 31.3395 42.0559C31.3395 43.211 32.0298 44.1475 32.8813 44.1475H33.6522C34.5037 44.1475 35.1939 43.211 35.1939 42.0559C35.1939 40.9008 34.5037 39.9643 33.6522 39.9643ZM18.2356 39.9643H17.4648C16.6133 39.9643 15.923 40.9008 15.923 42.0559C15.923 43.211 16.6133 44.1475 17.4648 44.1475H18.2356C19.0871 44.1475 19.7774 43.211 19.7774 42.0559C19.7774 40.9008 19.0871 39.9643 18.2356 39.9643ZM2.81385 39.9643H2.04297C1.19148 39.9643 0.501215 40.9008 0.501215 42.0559C0.501215 43.211 1.19148 44.1475 2.04297 44.1475H2.81385C3.66534 44.1475 4.3556 43.211 4.3556 42.0559C4.3556 40.9008 3.66534 39.9643 2.81385 39.9643Z" fill="#E0E7FF"/>
<path d="M203.24 20.0942H202.47C201.618 20.0942 200.928 21.0306 200.928 22.1858C200.928 23.3409 201.618 24.2773 202.47 24.2773H203.24C204.092 24.2773 204.782 23.3409 204.782 22.1858C204.782 21.0306 204.092 20.0942 203.24 20.0942ZM187.821 20.0942H187.05C186.198 20.0942 185.508 21.0306 185.508 22.1858C185.508 23.3409 186.198 24.2773 187.05 24.2773H187.821C188.672 24.2773 189.362 23.3409 189.362 22.1858C189.362 21.0306 188.672 20.0942 187.821 20.0942ZM172.409 20.0942H171.638C170.787 20.0942 170.097 21.0306 170.097 22.1858C170.097 23.3409 170.787 24.2773 171.638 24.2773H172.409C173.261 24.2773 173.951 23.3409 173.951 22.1858C173.951 21.0306 173.261 20.0942 172.409 20.0942ZM156.993 20.0942H156.222C155.371 20.0942 154.681 21.0306 154.681 22.1858C154.681 23.3409 155.371 24.2773 156.222 24.2773H156.993C157.845 24.2773 158.535 23.3409 158.535 22.1858C158.535 21.0306 157.845 20.0942 156.993 20.0942ZM141.575 20.0942H140.805C139.953 20.0942 139.263 21.0306 139.263 22.1858C139.263 23.3409 139.953 24.2773 140.805 24.2773H141.575C142.427 24.2773 143.117 23.3409 143.117 22.1858C143.117 21.0306 142.427 20.0942 141.575 20.0942ZM126.159 20.0942H125.388C124.536 20.0942 123.846 21.0306 123.846 22.1858C123.846 23.3409 124.536 24.2773 125.388 24.2773H126.159C127.01 24.2773 127.7 23.3409 127.7 22.1858C127.7 21.0306 127.01 20.0942 126.159 20.0942ZM110.738 20.0942H109.967C109.116 20.0942 108.425 21.0306 108.425 22.1858C108.425 23.3409 109.116 24.2773 109.967 24.2773H110.738C111.589 24.2773 112.28 23.3409 112.28 22.1858C112.28 21.0306 111.589 20.0942 110.738 20.0942ZM95.3262 20.0942H94.5554C93.7039 20.0942 93.0136 21.0306 93.0136 22.1858C93.0136 23.3409 93.7039 24.2773 94.5554 24.2773H95.3262C96.1777 24.2773 96.868 23.3409 96.868 22.1858C96.868 21.0306 96.1777 20.0942 95.3262 20.0942ZM79.9087 20.0942H79.1378C78.2863 20.0942 77.5961 21.0306 77.5961 22.1858C77.5961 23.3409 78.2863 24.2773 79.1378 24.2773H79.9087C80.7602 24.2773 81.4504 23.3409 81.4504 22.1858C81.4504 21.0306 80.7602 20.0942 79.9087 20.0942ZM64.4883 20.0942H63.7175C62.866 20.0942 62.1757 21.0306 62.1757 22.1858C62.1757 23.3409 62.866 24.2773 63.7175 24.2773H64.4883C65.3398 24.2773 66.0301 23.3409 66.0301 22.1858C66.0301 21.0306 65.3398 20.0942 64.4883 20.0942ZM49.0682 20.0942H48.2974C47.4459 20.0942 46.7556 21.0306 46.7556 22.1858C46.7556 23.3409 47.4459 24.2773 48.2974 24.2773H49.0682C49.9197 24.2773 50.61 23.3409 50.61 22.1858C50.61 21.0306 49.9197 20.0942 49.0682 20.0942ZM33.6522 20.0942H32.8813C32.0298 20.0942 31.3395 21.0306 31.3395 22.1858C31.3395 23.3409 32.0298 24.2773 32.8813 24.2773H33.6522C34.5037 24.2773 35.1939 23.3409 35.1939 22.1858C35.1939 21.0306 34.5037 20.0942 33.6522 20.0942ZM18.2356 20.0942H17.4648C16.6133 20.0942 15.923 21.0306 15.923 22.1858C15.923 23.3409 16.6133 24.2773 17.4648 24.2773H18.2356C19.0871 24.2773 19.7774 23.3409 19.7774 22.1858C19.7774 21.0306 19.0871 20.0942 18.2356 20.0942ZM2.81385 20.0942H2.04297C1.19148 20.0942 0.501215 21.0306 0.501215 22.1858C0.501215 23.3409 1.19148 24.2773 2.04297 24.2773H2.81385C3.66534 24.2773 4.3556 23.3409 4.3556 22.1858C4.3556 21.0306 3.66534 20.0942 2.81385 20.0942Z" fill="#E0E7FF"/>
<path d="M203.24 0.22507H202.47C201.618 0.22507 200.928 1.1615 200.928 2.31664C200.928 3.47178 201.618 4.4082 202.47 4.4082H203.24C204.092 4.4082 204.782 3.47178 204.782 2.31664C204.782 1.1615 204.092 0.22507 203.24 0.22507ZM187.821 0.22507H187.05C186.198 0.22507 185.508 1.1615 185.508 2.31664C185.508 3.47178 186.198 4.4082 187.05 4.4082H187.821C188.672 4.4082 189.362 3.47178 189.362 2.31664C189.362 1.1615 188.672 0.22507 187.821 0.22507ZM172.409 0.22507H171.638C170.787 0.22507 170.097 1.1615 170.097 2.31664C170.097 3.47178 170.787 4.4082 171.638 4.4082H172.409C173.261 4.4082 173.951 3.47178 173.951 2.31664C173.951 1.1615 173.261 0.22507 172.409 0.22507ZM156.993 0.22507H156.222C155.371 0.22507 154.681 1.1615 154.681 2.31664C154.681 3.47178 155.371 4.4082 156.222 4.4082H156.993C157.845 4.4082 158.535 3.47178 158.535 2.31664C158.535 1.1615 157.845 0.22507 156.993 0.22507ZM141.575 0.22507H140.805C139.953 0.22507 139.263 1.1615 139.263 2.31664C139.263 3.47178 139.953 4.4082 140.805 4.4082H141.575C142.427 4.4082 143.117 3.47178 143.117 2.31664C143.117 1.1615 142.427 0.22507 141.575 0.22507ZM126.159 0.22507H125.388C124.536 0.22507 123.846 1.1615 123.846 2.31664C123.846 3.47178 124.536 4.4082 125.388 4.4082H126.159C127.01 4.4082 127.7 3.47178 127.7 2.31664C127.7 1.1615 127.01 0.22507 126.159 0.22507ZM110.738 0.22507H109.967C109.116 0.22507 108.425 1.1615 108.425 2.31664C108.425 3.47178 109.116 4.4082 109.967 4.4082H110.738C111.589 4.4082 112.28 3.47178 112.28 2.31664C112.28 1.1615 111.589 0.22507 110.738 0.22507ZM95.3262 0.22507H94.5554C93.7039 0.22507 93.0136 1.1615 93.0136 2.31664C93.0136 3.47178 93.7039 4.4082 94.5554 4.4082H95.3262C96.1777 4.4082 96.868 3.47178 96.868 2.31664C96.868 1.1615 96.1777 0.22507 95.3262 0.22507ZM79.9087 0.22507H79.1378C78.2863 0.22507 77.5961 1.1615 77.5961 2.31664C77.5961 3.47178 78.2863 4.4082 79.1378 4.4082H79.9087C80.7602 4.4082 81.4504 3.47178 81.4504 2.31664C81.4504 1.1615 80.7602 0.22507 79.9087 0.22507ZM64.4883 0.22507H63.7175C62.866 0.22507 62.1757 1.1615 62.1757 2.31664C62.1757 3.47178 62.866 4.4082 63.7175 4.4082H64.4883C65.3398 4.4082 66.0301 3.47178 66.0301 2.31664C66.0301 1.1615 65.3398 0.22507 64.4883 0.22507ZM49.0682 0.22507H48.2974C47.4459 0.22507 46.7556 1.1615 46.7556 2.31664C46.7556 3.47178 47.4459 4.4082 48.2974 4.4082H49.0682C49.9197 4.4082 50.61 3.47178 50.61 2.31664C50.61 1.1615 49.9197 0.22507 49.0682 0.22507ZM33.6522 0.22507H32.8813C32.0298 0.22507 31.3395 1.1615 31.3395 2.31664C31.3395 3.47178 32.0298 4.4082 32.8813 4.4082H33.6522C34.5037 4.4082 35.1939 3.47178 35.1939 2.31664C35.1939 1.1615 34.5037 0.22507 33.6522 0.22507ZM18.2356 0.22507H17.4648C16.6133 0.22507 15.923 1.1615 15.923 2.31664C15.923 3.47178 16.6133 4.4082 17.4648 4.4082H18.2356C19.0871 4.4082 19.7774 3.47178 19.7774 2.31664C19.7774 1.1615 19.0871 0.22507 18.2356 0.22507ZM2.81385 0.22507H2.04297C1.19148 0.22507 0.501215 1.1615 0.501215 2.31664C0.501215 3.47178 1.19148 4.4082 2.04297 4.4082H2.81385C3.66534 4.4082 4.3556 3.47178 4.3556 2.31664C4.3556 1.1615 3.66534 0.22507 2.81385 0.22507Z" fill="#E0E7FF"/>
</svg>
