<svg
  id="nksvg"
  style="width: 100%; height: 100%"
  width="1490"
  height="838"
  viewBox="0 0 1490 838"
  fill="none"
  xmlns="http://www.w3.org/2000/svg"
  class="css-0"
>
  <g clip-path="url(#nk-623)">
    <rect
      style="fill: var(--color-illustrationBackground020)"
      width="1490"
      height="838"
    ></rect>
    <path
      style="fill: var(--color-illustrationInterface020)"
      d="M326.637 954.461H1163.63V282.923C1163.63 233.615 1123.66 193.643 1074.35 193.643H415.916C366.608 193.643 326.637 233.615 326.637 282.923V954.461Z"
    ></path>
    <path
      style="fill: var(--color-illustrationInterface030)"
      fill-rule="evenodd"
      clip-rule="evenodd"
      d="M282 999.101H1208.27V282.923C1208.27 208.961 1148.31 149.004 1074.35 149.004H415.919C341.958 149.004 282 208.961 282 282.923V999.101ZM326.64 954.461V282.923C326.64 233.615 366.611 193.643 415.919 193.643H1074.35C1123.66 193.643 1163.63 233.615 1163.63 282.923V954.461H326.64Z"
    ></path>
    <rect
      style="fill: var(--color-illustrationInterface010)"
      x="326.637"
      y="282.004"
      width="837.285"
      height="169.577"
    ></rect>
    <path
      style="fill: var(--color-illustrationHighlight010)"
      d="M755.675 352.705V357.495H747.789V382.296H741.854V357.495H733.969V352.705H755.675ZM758.479 370.468C758.479 368.094 758.945 365.988 759.878 364.151C760.839 362.314 762.125 360.901 763.736 359.912C765.375 358.923 767.198 358.428 769.205 358.428C770.957 358.428 772.483 358.781 773.783 359.488C775.112 360.194 776.172 361.085 776.963 362.159V358.81H782.941V382.296H776.963V378.862C776.2 379.964 775.14 380.883 773.783 381.618C772.455 382.324 770.915 382.677 769.162 382.677C767.184 382.677 765.375 382.169 763.736 381.151C762.125 380.134 760.839 378.707 759.878 376.869C758.945 375.004 758.479 372.87 758.479 370.468ZM776.963 370.553C776.963 369.111 776.68 367.882 776.115 366.864C775.55 365.819 774.787 365.027 773.826 364.49C772.865 363.925 771.833 363.642 770.731 363.642C769.629 363.642 768.611 363.911 767.679 364.448C766.746 364.985 765.983 365.776 765.389 366.822C764.824 367.839 764.541 369.055 764.541 370.468C764.541 371.881 764.824 373.125 765.389 374.199C765.983 375.244 766.746 376.05 767.679 376.615C768.64 377.18 769.657 377.463 770.731 377.463C771.833 377.463 772.865 377.194 773.826 376.657C774.787 376.092 775.55 375.301 776.115 374.283C776.68 373.238 776.963 371.994 776.963 370.553ZM794.672 362.243C795.436 361.113 796.481 360.194 797.81 359.488C799.166 358.781 800.707 358.428 802.431 358.428C804.437 358.428 806.246 358.923 807.857 359.912C809.496 360.901 810.782 362.314 811.715 364.151C812.676 365.96 813.156 368.066 813.156 370.468C813.156 372.87 812.676 375.004 811.715 376.869C810.782 378.707 809.496 380.134 807.857 381.151C806.246 382.169 804.437 382.677 802.431 382.677C800.678 382.677 799.138 382.338 797.81 381.66C796.51 380.953 795.464 380.049 794.672 378.947V382.296H788.737V350.924H794.672V362.243ZM807.094 370.468C807.094 369.055 806.797 367.839 806.204 366.822C805.638 365.776 804.875 364.985 803.914 364.448C802.982 363.911 801.964 363.642 800.862 363.642C799.788 363.642 798.771 363.925 797.81 364.49C796.877 365.027 796.114 365.819 795.52 366.864C794.955 367.91 794.672 369.14 794.672 370.553C794.672 371.966 794.955 373.195 795.52 374.241C796.114 375.287 796.877 376.092 797.81 376.657C798.771 377.194 799.788 377.463 800.862 377.463C801.964 377.463 802.982 377.18 803.914 376.615C804.875 376.05 805.638 375.244 806.204 374.199C806.797 373.153 807.094 371.909 807.094 370.468Z"
    ></path>
    <path
      style="fill: var(--color-illustrationSubtle010)"
      d="M950.688 352.705V357.495H942.803V382.296H936.867V357.495H928.982V352.705H950.688ZM953.492 370.468C953.492 368.094 953.959 365.988 954.891 364.151C955.852 362.314 957.138 360.901 958.749 359.912C960.388 358.923 962.211 358.428 964.218 358.428C965.97 358.428 967.497 358.781 968.797 359.488C970.125 360.194 971.185 361.085 971.976 362.159V358.81H977.954V382.296H971.976V378.862C971.213 379.964 970.153 380.883 968.797 381.618C967.468 382.324 965.928 382.677 964.176 382.677C962.197 382.677 960.388 382.169 958.749 381.151C957.138 380.134 955.852 378.707 954.891 376.869C953.959 375.004 953.492 372.87 953.492 370.468ZM971.976 370.553C971.976 369.111 971.694 367.882 971.128 366.864C970.563 365.819 969.8 365.027 968.839 364.49C967.878 363.925 966.846 363.642 965.744 363.642C964.642 363.642 963.624 363.911 962.692 364.448C961.759 364.985 960.996 365.776 960.403 366.822C959.837 367.839 959.555 369.055 959.555 370.468C959.555 371.881 959.837 373.125 960.403 374.199C960.996 375.244 961.759 376.05 962.692 376.615C963.653 377.18 964.67 377.463 965.744 377.463C966.846 377.463 967.878 377.194 968.839 376.657C969.8 376.092 970.563 375.301 971.128 374.283C971.694 373.238 971.976 371.994 971.976 370.553ZM989.686 362.243C990.449 361.113 991.494 360.194 992.823 359.488C994.179 358.781 995.72 358.428 997.444 358.428C999.45 358.428 1001.26 358.923 1002.87 359.912C1004.51 360.901 1005.8 362.314 1006.73 364.151C1007.69 365.96 1008.17 368.066 1008.17 370.468C1008.17 372.87 1007.69 375.004 1006.73 376.869C1005.8 378.707 1004.51 380.134 1002.87 381.151C1001.26 382.169 999.45 382.677 997.444 382.677C995.692 382.677 994.151 382.338 992.823 381.66C991.523 380.953 990.477 380.049 989.686 378.947V382.296H983.75V350.924H989.686V362.243ZM1002.11 370.468C1002.11 369.055 1001.81 367.839 1001.22 366.822C1000.65 365.776 999.889 364.985 998.928 364.448C997.995 363.911 996.977 363.642 995.875 363.642C994.801 363.642 993.784 363.925 992.823 364.49C991.89 365.027 991.127 365.819 990.534 366.864C989.968 367.91 989.686 369.14 989.686 370.553C989.686 371.966 989.968 373.195 990.534 374.241C991.127 375.287 991.89 376.092 992.823 376.657C993.784 377.194 994.801 377.463 995.875 377.463C996.977 377.463 997.995 377.18 998.928 376.615C999.889 376.05 1000.65 375.244 1001.22 374.199C1001.81 373.153 1002.11 371.909 1002.11 370.468Z"
    ></path>
    <path
      style="fill: var(--color-illustrationSubtle010)"
      d="M560.662 352.705V357.495H552.776V382.296H546.841V357.495H538.956V352.705H560.662ZM563.466 370.468C563.466 368.094 563.932 365.988 564.865 364.151C565.826 362.314 567.112 360.901 568.723 359.912C570.362 358.923 572.185 358.428 574.192 358.428C575.944 358.428 577.47 358.781 578.77 359.488C580.099 360.194 581.158 361.085 581.95 362.159V358.81H587.927V382.296H581.95V378.862C581.187 379.964 580.127 380.883 578.77 381.618C577.442 382.324 575.902 382.677 574.149 382.677C572.171 382.677 570.362 382.169 568.723 381.151C567.112 380.134 565.826 378.707 564.865 376.869C563.932 375.004 563.466 372.87 563.466 370.468ZM581.95 370.553C581.95 369.111 581.667 367.882 581.102 366.864C580.537 365.819 579.774 365.027 578.813 364.49C577.852 363.925 576.82 363.642 575.718 363.642C574.616 363.642 573.598 363.911 572.665 364.448C571.733 364.985 570.97 365.776 570.376 366.822C569.811 367.839 569.528 369.055 569.528 370.468C569.528 371.881 569.811 373.125 570.376 374.199C570.97 375.244 571.733 376.05 572.665 376.615C573.626 377.18 574.644 377.463 575.718 377.463C576.82 377.463 577.852 377.194 578.813 376.657C579.774 376.092 580.537 375.301 581.102 374.283C581.667 373.238 581.95 371.994 581.95 370.553ZM599.659 362.243C600.422 361.113 601.468 360.194 602.796 359.488C604.153 358.781 605.693 358.428 607.417 358.428C609.424 358.428 611.233 358.923 612.844 359.912C614.483 360.901 615.769 362.314 616.702 364.151C617.663 365.96 618.143 368.066 618.143 370.468C618.143 372.87 617.663 375.004 616.702 376.869C615.769 378.707 614.483 380.134 612.844 381.151C611.233 382.169 609.424 382.677 607.417 382.677C605.665 382.677 604.125 382.338 602.796 381.66C601.496 380.953 600.451 380.049 599.659 378.947V382.296H593.724V350.924H599.659V362.243ZM612.081 370.468C612.081 369.055 611.784 367.839 611.191 366.822C610.625 365.776 609.862 364.985 608.901 364.448C607.969 363.911 606.951 363.642 605.849 363.642C604.775 363.642 603.757 363.925 602.796 364.49C601.864 365.027 601.101 365.819 600.507 366.864C599.942 367.91 599.659 369.14 599.659 370.553C599.659 371.966 599.942 373.195 600.507 374.241C601.101 375.287 601.864 376.092 602.796 376.657C603.757 377.194 604.775 377.463 605.849 377.463C606.951 377.463 607.969 377.18 608.901 376.615C609.862 376.05 610.625 375.244 611.191 374.199C611.784 373.153 612.081 371.909 612.081 370.468Z"
    ></path>
    <rect
      style="fill: var(--color-illustrationHighlight010)"
      x="677.131"
      y="445.222"
      width="192.894"
      height="6.35913"
    ></rect>
    <rect
      style="fill: var(--color-illustrationBorder010)"
      width="2.11971"
      height="169.577"
      transform="translate(479.999 282.004)"
    ></rect>
    <rect
      style="fill: var(--color-illustrationBorder010)"
      width="2.11971"
      height="169.577"
      transform="translate(675.012 282.004)"
    ></rect>
    <rect
      style="fill: var(--color-illustrationBorder010)"
      width="2.11971"
      height="169.577"
      transform="translate(870.025 282.004)"
    ></rect>
    <circle
      style="fill: var(--color-illustrationInterface040)"
      cx="1071.71"
      cy="366.792"
      r="45.5737"
    ></circle>
    <path
      style="fill: var(--color-illustrationInterface010)"
      d="M1065.75 347.715L1061.12 352.199L1076.18 366.793L1061.12 381.387L1065.75 385.87L1085.49 366.793L1065.75 347.715Z"
    ></path>
    <circle
      style="fill: var(--color-illustrationInterface040)"
      r="45.5737"
      transform="matrix(-1 0 0 1 419.206 366.792)"
    ></circle>
    <path
      style="fill: var(--color-illustrationInterface010)"
      d="M425.166 347.715L429.805 352.199L414.738 366.793L429.805 381.387L425.166 385.87L405.428 366.793L425.166 347.715Z"
    ></path>
    <rect
      style="fill: var(--color-illustrationInterface030)"
      x="365"
      y="487.004"
      width="363"
      height="311"
      rx="16"
    ></rect>
    <rect
      style="fill: var(--color-illustrationInterface030)"
      x="761"
      y="487.004"
      width="363"
      height="311"
      rx="16"
    ></rect>
    <rect
      style="fill: var(--color-illustrationInterface010)"
      opacity="0.9"
      width="170"
      height="10"
      transform="matrix(4.37114e-08 -1 -1 -4.37114e-08 412 452)"
    ></rect>
    <rect
      style="fill: var(--color-illustrationInterface010)"
      opacity="0.95"
      x="365"
      y="452"
      width="170"
      height="37"
      transform="rotate(-90 365 452)"
    ></rect>
    <rect
      style="fill: var(--color-illustrationInterface010)"
      opacity="0.85"
      width="170"
      height="10"
      transform="matrix(4.37114e-08 -1 -1 -4.37114e-08 422 452)"
    ></rect>
    <rect
      style="fill: var(--color-illustrationInterface010)"
      opacity="0.8"
      width="170"
      height="10"
      transform="matrix(4.37114e-08 -1 -1 -4.37114e-08 432 452)"
    ></rect>
    <rect
      style="fill: var(--color-illustrationInterface010)"
      opacity="0.75"
      width="170"
      height="10"
      transform="matrix(4.37114e-08 -1 -1 -4.37114e-08 442 452)"
    ></rect>
    <rect
      style="fill: var(--color-illustrationInterface010)"
      opacity="0.7"
      width="170"
      height="10"
      transform="matrix(4.37114e-08 -1 -1 -4.37114e-08 452 452)"
    ></rect>
    <rect
      style="fill: var(--color-illustrationInterface010)"
      opacity="0.65"
      width="170"
      height="10"
      transform="matrix(4.37114e-08 -1 -1 -4.37114e-08 462 452)"
    ></rect>
    <rect
      style="fill: var(--color-illustrationInterface010)"
      opacity="0.6"
      width="170"
      height="10"
      transform="matrix(4.37114e-08 -1 -1 -4.37114e-08 472 452)"
    ></rect>
    <rect
      style="fill: var(--color-illustrationInterface010)"
      opacity="0.3"
      width="170"
      height="10"
      transform="matrix(4.37114e-08 -1 -1 -4.37114e-08 482 452)"
    ></rect>
    <rect
      style="fill: var(--color-illustrationInterface010)"
      opacity="0.2"
      width="170"
      height="10"
      transform="matrix(4.37114e-08 -1 -1 -4.37114e-08 492 452)"
    ></rect>
    <rect
      style="fill: var(--color-illustrationInterface010)"
      opacity="0.1"
      width="170"
      height="10"
      transform="matrix(4.37114e-08 -1 -1 -4.37114e-08 502 452)"
    ></rect>
    <rect
      style="fill: var(--color-illustrationInterface010)"
      opacity="0.9"
      x="1083"
      y="452"
      width="170"
      height="10"
      transform="rotate(-90 1083 452)"
    ></rect>
    <rect
      style="fill: var(--color-illustrationInterface010)"
      opacity="0.95"
      width="170"
      height="37"
      transform="matrix(-4.37114e-08 -1 -1 4.37114e-08 1130 452)"
    ></rect>
    <rect
      style="fill: var(--color-illustrationInterface010)"
      opacity="0.85"
      x="1073"
      y="452"
      width="170"
      height="10"
      transform="rotate(-90 1073 452)"
    ></rect>
    <rect
      style="fill: var(--color-illustrationInterface010)"
      opacity="0.8"
      x="1063"
      y="452"
      width="170"
      height="10"
      transform="rotate(-90 1063 452)"
    ></rect>
    <rect
      style="fill: var(--color-illustrationInterface010)"
      opacity="0.75"
      x="1053"
      y="452"
      width="170"
      height="10"
      transform="rotate(-90 1053 452)"
    ></rect>
    <rect
      style="fill: var(--color-illustrationInterface010)"
      opacity="0.7"
      x="1043"
      y="452"
      width="170"
      height="10"
      transform="rotate(-90 1043 452)"
    ></rect>
    <rect
      style="fill: var(--color-illustrationInterface010)"
      opacity="0.65"
      x="1033"
      y="452"
      width="170"
      height="10"
      transform="rotate(-90 1033 452)"
    ></rect>
    <rect
      style="fill: var(--color-illustrationInterface010)"
      opacity="0.6"
      x="1023"
      y="452"
      width="170"
      height="10"
      transform="rotate(-90 1023 452)"
    ></rect>
    <rect
      style="fill: var(--color-illustrationInterface010)"
      opacity="0.3"
      x="1013"
      y="452"
      width="170"
      height="10"
      transform="rotate(-90 1013 452)"
    ></rect>
    <rect
      style="fill: var(--color-illustrationInterface010)"
      opacity="0.2"
      x="1003"
      y="452"
      width="170"
      height="10"
      transform="rotate(-90 1003 452)"
    ></rect>
    <rect
      style="fill: var(--color-illustrationInterface010)"
      opacity="0.1"
      x="993"
      y="452"
      width="170"
      height="10"
      transform="rotate(-90 993 452)"
    ></rect>
  </g>
  <defs>
    <clipPath id="nk-623">
      <rect style="fill: var(--color-white)" width="1490" height="838"></rect>
    </clipPath>
  </defs>
</svg>
