<svg id="components-switch-behaviours-clickable-area" style="width: 100%; height: 100%" width="1490" height="838" viewBox="0 0 1490 838" fill="none" xmlns="http://www.w3.org/2000/svg" class="css-0"><path style="fill:var(--color-illustrationBackground020)" d="M0 0H1490V838H0V0Z"></path><path style="fill:var(--color-illustrationBackground010)" fill-rule="evenodd" clip-rule="evenodd" d="M288 229C271.431 229 255.5 239.931 255.5 256.5V575C255.5 591.569 271.431 598 288 598H801C817.568 598 831 584.569 831 568V534H1208C1224.57 534 1238 520.569 1238 504V323C1238 306.431 1224.57 293 1208 293H831V259C831 242.431 817.568 229 801 229H288Z"></path><path style="fill:var(--color-illustrationHighlight010)" fill-rule="evenodd" clip-rule="evenodd" d="M831 534V548.5C827.686 548.5 825 545.814 825 542.5V528H842.781C846.095 528 848.781 530.686 848.781 534H831ZM895.906 534C895.906 530.686 893.22 528 889.906 528H866.344C863.03 528 860.344 530.686 860.344 534H895.906ZM943.031 534C943.031 530.686 940.345 528 937.031 528H913.469C910.155 528 907.469 530.686 907.469 534H943.031ZM990.156 534C990.156 530.686 987.47 528 984.156 528H960.594C957.28 528 954.594 530.686 954.594 534H990.156ZM1037.28 534C1037.28 530.686 1034.59 528 1031.28 528H1007.72C1004.41 528 1001.72 530.686 1001.72 534H1037.28ZM1084.41 534C1084.41 530.686 1081.72 528 1078.41 528H1054.84C1051.53 528 1048.84 530.686 1048.84 534H1084.41ZM1131.53 534C1131.53 530.686 1128.84 528 1125.53 528H1101.97C1098.66 528 1095.97 530.686 1095.97 534H1131.53ZM1178.66 534C1178.66 530.686 1175.97 528 1172.66 528H1149.09C1145.78 528 1143.09 530.686 1143.09 534H1178.66ZM1224.77 528.88C1223.33 526.196 1220.06 524.99 1217.19 526.181C1214.36 527.351 1211.27 528 1208 528H1196.22C1192.91 528 1190.22 530.686 1190.22 534H1208C1212.07 534 1215.95 533.19 1219.48 531.724C1220.41 531.339 1221.32 530.909 1222.19 530.437C1223.08 529.96 1223.94 529.44 1224.77 528.88ZM1238 486.688C1234.69 486.688 1232 489.374 1232 492.688V504C1232 507.265 1231.35 510.364 1230.18 513.185C1228.99 516.058 1230.2 519.328 1232.88 520.768C1233.44 519.938 1233.96 519.079 1234.44 518.194C1234.91 517.316 1235.34 516.411 1235.72 515.484C1237.19 511.946 1238 508.068 1238 504V486.688ZM1238 441.438C1234.69 441.438 1232 444.124 1232 447.438V470.062C1232 473.376 1234.69 476.062 1238 476.062V441.438ZM1238 396.188C1234.69 396.188 1232 398.874 1232 402.188V424.812C1232 428.126 1234.69 430.812 1238 430.812V396.188ZM1238 350.938C1234.69 350.938 1232 353.624 1232 356.938V379.562C1232 382.876 1234.69 385.562 1238 385.562V350.938ZM1232.88 306.232C1230.2 307.672 1228.99 310.942 1230.18 313.815C1231.35 316.636 1232 319.735 1232 323V334.312C1232 337.626 1234.69 340.312 1238 340.312V323C1238 318.932 1237.19 315.054 1235.72 311.516C1235.34 310.589 1234.91 309.684 1234.44 308.806C1233.96 307.921 1233.44 307.062 1232.88 306.232ZM1190.22 293C1190.22 296.314 1192.91 299 1196.22 299H1208C1211.27 299 1214.36 299.649 1217.19 300.819C1220.06 302.01 1223.33 300.804 1224.77 298.12C1223.94 297.56 1223.08 297.04 1222.19 296.563C1221.32 296.091 1220.41 295.661 1219.48 295.276C1215.95 293.81 1212.07 293 1208 293H1190.22ZM1143.09 293C1143.09 296.314 1145.78 299 1149.09 299H1172.66C1175.97 299 1178.66 296.314 1178.66 293H1143.09ZM1095.97 293C1095.97 296.314 1098.66 299 1101.97 299H1125.53C1128.84 299 1131.53 296.314 1131.53 293H1095.97ZM1048.84 293C1048.84 296.314 1051.53 299 1054.84 299H1078.41C1081.72 299 1084.41 296.314 1084.41 293H1048.84ZM1001.72 293C1001.72 296.314 1004.41 299 1007.72 299H1031.28C1034.59 299 1037.28 296.314 1037.28 293H1001.72ZM954.594 293C954.594 296.314 957.28 299 960.594 299H984.156C987.47 299 990.156 296.314 990.156 293H954.594ZM907.469 293C907.469 296.314 910.155 299 913.469 299H937.031C940.345 299 943.031 296.314 943.031 293H907.469ZM860.344 293C860.344 296.314 863.03 299 866.344 299H889.906C893.22 299 895.906 296.314 895.906 293H860.344ZM848.781 293C848.781 296.314 846.095 299 842.781 299H825V284.5C825 281.186 827.686 278.5 831 278.5V293H848.781ZM831 273.5C827.686 273.5 825 270.814 825 267.5V259C825 255.735 824.351 252.636 823.181 249.815C821.99 246.942 823.196 243.672 825.88 242.232C826.44 243.062 826.96 243.921 827.437 244.806C827.909 245.684 828.339 246.589 828.724 247.516C830.19 251.054 831 254.932 831 259V273.5ZM782.125 229C782.125 232.314 784.811 235 788.125 235H801C804.265 235 807.364 235.649 810.185 236.819C813.058 238.01 816.328 236.804 817.768 234.12C816.938 233.56 816.079 233.04 815.194 232.563C814.316 232.091 813.411 231.661 812.484 231.276C808.946 229.81 805.068 229 801 229H782.125ZM730.625 229C730.625 232.314 733.311 235 736.625 235H762.375C765.689 235 768.375 232.314 768.375 229H730.625ZM679.125 229C679.125 232.314 681.811 235 685.125 235H710.875C714.189 235 716.875 232.314 716.875 229H679.125ZM627.625 229C627.625 232.314 630.311 235 633.625 235H659.375C662.689 235 665.375 232.314 665.375 229H627.625ZM576.125 229C576.125 232.314 578.811 235 582.125 235H607.875C611.189 235 613.875 232.314 613.875 229H576.125ZM524.625 229C524.625 232.314 527.311 235 530.625 235H556.375C559.689 235 562.375 232.314 562.375 229H524.625ZM265.232 234.12C266.672 236.804 269.942 238.01 272.815 236.819C275.636 235.649 278.735 235 282 235H294.875C298.189 235 300.875 232.314 300.875 229H282C277.932 229 274.054 229.81 270.516 231.276C269.589 231.661 268.684 232.091 267.806 232.563C266.921 233.04 266.062 233.56 265.232 234.12ZM252 277.875C255.314 277.875 258 275.189 258 271.875V259C258 255.735 258.649 252.636 259.819 249.815C261.01 246.942 259.804 243.672 257.12 242.232C256.56 243.062 256.04 243.921 255.563 244.806C255.091 245.684 254.661 246.589 254.276 247.516C252.81 251.054 252 254.932 252 259V277.875ZM252 329.375C255.314 329.375 258 326.689 258 323.375V297.625C258 294.311 255.314 291.625 252 291.625V329.375ZM252 380.875C255.314 380.875 258 378.189 258 374.875V349.125C258 345.811 255.314 343.125 252 343.125V380.875ZM252 432.375C255.314 432.375 258 429.689 258 426.375V400.625C258 397.311 255.314 394.625 252 394.625V432.375ZM252 483.875C255.314 483.875 258 481.189 258 477.875V452.125C258 448.811 255.314 446.125 252 446.125V483.875ZM252 535.375C255.314 535.375 258 532.689 258 529.375V503.625C258 500.311 255.314 497.625 252 497.625V535.375ZM257.12 584.768C259.804 583.328 261.01 580.058 259.819 577.185C258.649 574.364 258 571.265 258 568V555.125C258 551.811 255.314 549.125 252 549.125V568C252 572.068 252.81 575.946 254.276 579.484C254.661 580.411 255.091 581.316 255.563 582.194C256.04 583.079 256.56 583.938 257.12 584.768ZM300.875 598C300.875 594.686 298.189 592 294.875 592H282C278.735 592 275.636 591.351 272.815 590.181C269.942 588.99 266.672 590.196 265.232 592.88C266.062 593.44 266.921 593.96 267.806 594.437C268.684 594.909 269.589 595.339 270.516 595.724C274.054 597.19 277.932 598 282 598H300.875ZM562.375 598C562.375 594.686 559.689 592 556.375 592H530.625C527.311 592 524.625 594.686 524.625 598H562.375ZM613.875 598C613.875 594.686 611.189 592 607.875 592H582.125C578.811 592 576.125 594.686 576.125 598H613.875ZM665.375 598C665.375 594.686 662.689 592 659.375 592H633.625C630.311 592 627.625 594.686 627.625 598H665.375ZM716.875 598C716.875 594.686 714.189 592 710.875 592H685.125C681.811 592 679.125 594.686 679.125 598H716.875ZM768.375 598C768.375 594.686 765.689 592 762.375 592H736.625C733.311 592 730.625 594.686 730.625 598H768.375ZM817.768 592.88C816.328 590.196 813.058 588.99 810.185 590.181C807.364 591.351 804.265 592 801 592H788.125C784.811 592 782.125 594.686 782.125 598H801C805.068 598 808.946 597.19 812.484 595.724C813.411 595.339 814.316 594.909 815.194 594.437C816.079 593.96 816.938 593.44 817.768 592.88ZM831 553.5C827.686 553.5 825 556.186 825 559.5V568C825 571.265 824.351 574.364 823.181 577.185C821.99 580.058 823.196 583.328 825.88 584.768C826.44 583.938 826.96 583.079 827.437 582.194C827.909 581.316 828.339 580.411 828.724 579.484C830.19 575.946 831 572.068 831 568V553.5Z"></path><path style="fill:var(--color-illustrationHighlight010)" d="M477.125 235C473.811 235 471.125 232.314 471.125 229H508.875C508.875 232.314 506.189 235 502.875 235H477.125Z"></path><path style="fill:var(--color-illustrationHighlight010)" d="M425.625 235C422.311 235 419.625 232.314 419.625 229H457.375C457.375 232.314 454.689 235 451.375 235H425.625Z"></path><path style="fill:var(--color-illustrationHighlight010)" d="M374.125 235C370.811 235 368.125 232.314 368.125 229H405.875C405.875 232.314 403.189 235 399.875 235H374.125Z"></path><path style="fill:var(--color-illustrationHighlight010)" d="M322.625 235C319.311 235 316.625 232.314 316.625 229H354.375C354.375 232.314 351.689 235 348.375 235H322.625Z"></path><path style="fill:var(--color-illustrationHighlight010)" d="M348.375 592C351.689 592 354.375 594.686 354.375 598H316.625C316.625 594.686 319.311 592 322.625 592H348.375Z"></path><path style="fill:var(--color-illustrationHighlight010)" d="M399.875 592C403.189 592 405.875 594.686 405.875 598H368.125C368.125 594.686 370.811 592 374.125 592H399.875Z"></path><path style="fill:var(--color-illustrationHighlight010)" d="M451.375 592C454.689 592 457.375 594.686 457.375 598H419.625C419.625 594.686 422.311 592 425.625 592H451.375Z"></path><path style="fill:var(--color-illustrationHighlight010)" d="M502.875 592C506.189 592 508.875 594.686 508.875 598H471.125C471.125 594.686 473.811 592 477.125 592H502.875Z"></path><rect style="fill:var(--color-illustrationAnatomySubtle)" x="313" y="293" width="451.861" height="241" rx="120.5"></rect><rect style="fill:var(--color-interface010)" x="343.124" y="323.131" width="180.744" height="180.744" rx="90.3722"></rect><path style="fill:var(--color-interface010)" d="M697.082 371.405L686.463 360.787L644.365 402.885L602.266 360.787L591.647 371.405L633.746 413.504L591.647 455.602L602.266 466.221L644.365 424.122L686.463 466.221L697.082 455.602L654.983 413.504L697.082 371.405Z"></path><g filter="url(#nk-977)"><path style="fill:var(--color-white)" fill-rule="evenodd" clip-rule="evenodd" d="M425.177 544L418.472 533.755C413.894 526.76 404.142 524.208 396.682 528.043L398.42 527.149C396.569 528.101 395.681 530.474 396.444 532.446L405.725 556.459C407.196 560.265 410.954 565.649 414.068 568.354C414.068 568.354 432.739 583.808 432.739 589.602V596.938H462.989H471.261H478.114H485.677V589.602C485.677 583.808 497.087 565.558 497.087 565.558C499.188 562.011 500.939 555.761 500.939 551.612V521.099C500.802 514.344 495.059 508.869 487.974 508.869C484.429 508.869 481.558 511.606 481.558 514.986V517.43C481.558 510.674 475.815 505.199 468.729 505.199C465.185 505.199 462.313 507.937 462.313 511.316V513.76C462.313 507.005 456.571 501.53 449.485 501.53C445.94 501.53 443.069 504.267 443.069 507.647V510.091C443.069 509.005 442.953 508.142 442.729 507.458L440.772 475.947C440.507 471.686 436.916 468.375 432.739 468.375C428.533 468.375 425.177 471.76 425.177 475.936V506.188V544Z"></path><path style="fill:var(--color-black)" fill-rule="evenodd" clip-rule="evenodd" d="M398.476 527.257C404.48 525.059 411.502 526.581 416.102 530.927C416.99 531.766 417.789 532.711 418.472 533.755L425.177 543.999V475.935C425.177 471.76 428.533 468.374 432.739 468.374C436.916 468.374 440.507 471.685 440.772 475.946L442.729 507.457C442.749 507.519 442.768 507.582 442.787 507.646C442.973 508.298 443.069 509.102 443.069 510.09V507.646C443.069 507.576 443.07 507.506 443.073 507.436C443.074 507.405 443.075 507.374 443.077 507.343C443.242 504.104 446.047 501.529 449.485 501.529C450.158 501.529 450.818 501.578 451.462 501.673C452.981 501.897 454.412 502.375 455.706 503.06C458.93 504.768 461.302 507.762 462.057 511.316C462.225 512.105 462.313 512.923 462.313 513.759V511.316C462.313 507.936 465.185 505.198 468.729 505.198C469.014 505.198 469.297 505.207 469.577 505.225C471.518 505.345 473.34 505.877 474.95 506.73C478.175 508.437 480.546 511.431 481.301 514.985C481.469 515.775 481.558 516.592 481.558 517.429V514.985C481.558 511.605 484.429 508.868 487.974 508.868C488.258 508.868 488.541 508.877 488.822 508.894C495.512 509.31 500.807 514.615 500.938 521.099V551.612C500.938 555.761 499.188 562.01 497.087 565.558C497.087 565.558 485.677 583.807 485.677 589.601V596.937H432.739V589.601C432.739 583.807 414.068 568.353 414.068 568.353C410.954 565.648 407.196 560.265 405.725 556.458L396.444 532.445C395.935 531.129 396.161 529.634 396.919 528.502C397.177 528.116 397.497 527.772 397.871 527.492C398.072 527.41 398.273 527.331 398.476 527.257ZM396.682 528.042C397.073 527.841 397.469 527.658 397.871 527.492C398.043 527.364 398.226 527.248 398.42 527.149L396.682 528.042ZM392.6 520.102C387.742 523.608 385.813 530.113 387.979 535.717L397.26 559.73C399.259 564.902 403.874 571.519 408.117 575.204L408.198 575.275L408.28 575.342L408.281 575.344L408.314 575.371L408.449 575.483C408.57 575.585 408.755 575.741 408.993 575.943C409.47 576.349 410.161 576.942 410.992 577.673C412.665 579.144 414.866 581.138 417.042 583.277C419.258 585.455 421.259 587.599 422.643 589.388C423.119 590.004 423.448 590.484 423.664 590.831V606.012H494.752V589.756C494.752 589.794 494.754 589.814 494.759 589.815C494.79 589.82 494.957 588.967 495.816 586.939C496.727 584.788 498.004 582.246 499.369 579.716C500.718 577.215 502.078 574.866 503.107 573.133C503.62 572.27 504.045 571.568 504.34 571.087C504.487 570.846 504.601 570.661 504.677 570.539L504.76 570.404L504.782 570.369L504.84 570.276L504.896 570.181C506.481 567.505 507.71 564.246 508.545 561.236C509.379 558.231 510.013 554.775 510.013 551.612V521.007L510.012 520.915C509.769 508.928 499.702 499.793 487.974 499.793C486.052 499.793 484.175 500.149 482.428 500.809C478.62 497.853 473.813 496.123 468.729 496.123C466.808 496.123 464.93 496.48 463.184 497.14C459.729 494.458 455.452 492.785 450.892 492.498L449.829 475.383C449.266 466.306 441.677 459.299 432.739 459.299C423.5 459.299 416.102 466.769 416.102 475.935V519.987C409.42 516.661 401.38 516.187 394.306 519.146M423.972 591.395C423.97 591.394 423.954 591.361 423.93 591.298C423.962 591.364 423.974 591.395 423.972 591.395ZM392.6 520.102L392.533 519.971L394.271 519.078"></path></g><path style="fill:var(--color-illustrationAnatomyBorder020)" d="M844.359 450.381H876.021V462.786H829V369.068H844.359V450.381Z"></path><path style="fill:var(--color-illustrationAnatomyBorder020)" d="M883.746 425.299C883.746 417.838 885.272 411.23 888.326 405.477C891.47 399.723 895.692 395.273 900.991 392.127C906.38 388.891 912.308 387.272 918.775 387.272C924.614 387.272 929.688 388.441 934 390.778C938.401 393.026 941.904 395.858 944.509 399.274V388.486H960.003V462.786H944.509V451.729C941.904 455.235 938.356 458.157 933.865 460.494C929.374 462.831 924.254 464 918.506 464C912.129 464 906.29 462.382 900.991 459.146C895.692 455.819 891.47 451.235 888.326 445.391C885.272 439.458 883.746 432.761 883.746 425.299ZM944.509 425.569C944.509 420.445 943.431 415.995 941.275 412.219C939.209 408.443 936.47 405.567 933.057 403.589C929.643 401.611 925.961 400.622 922.009 400.622C918.057 400.622 914.374 401.611 910.961 403.589C907.548 405.477 904.763 408.308 902.608 412.084C900.542 415.77 899.509 420.175 899.509 425.299C899.509 430.423 900.542 434.918 902.608 438.784C904.763 442.649 907.548 445.616 910.961 447.684C914.464 449.661 918.147 450.65 922.009 450.65C925.961 450.65 929.643 449.661 933.057 447.684C936.47 445.706 939.209 442.829 941.275 439.053C943.431 435.188 944.509 430.693 944.509 425.569Z"></path><path style="fill:var(--color-illustrationAnatomyBorder020)" d="M995.535 399.543C998.14 395.947 1001.69 393.026 1006.18 390.778C1010.76 388.441 1015.83 387.272 1021.4 387.272C1027.96 387.272 1033.89 388.846 1039.19 391.992C1044.49 395.138 1048.66 399.633 1051.72 405.477C1054.77 411.23 1056.3 417.838 1056.3 425.299C1056.3 432.761 1054.77 439.458 1051.72 445.391C1048.66 451.235 1044.44 455.819 1039.05 459.146C1033.75 462.382 1027.87 464 1021.4 464C1015.66 464 1010.54 462.876 1006.04 460.629C1001.64 458.381 998.14 455.505 995.535 451.999V462.786H980.176V363H995.535V399.543ZM1040.67 425.299C1040.67 420.175 1039.59 415.77 1037.44 412.084C1035.37 408.308 1032.59 405.477 1029.08 403.589C1025.67 401.611 1021.99 400.622 1018.04 400.622C1014.17 400.622 1010.49 401.611 1006.99 403.589C1003.57 405.567 1000.79 408.443 998.634 412.219C996.568 415.995 995.535 420.445 995.535 425.569C995.535 430.693 996.568 435.188 998.634 439.053C1000.79 442.829 1003.57 445.706 1006.99 447.684C1010.49 449.661 1014.17 450.65 1018.04 450.65C1021.99 450.65 1025.67 449.661 1029.08 447.684C1032.59 445.616 1035.37 442.649 1037.44 438.784C1039.59 434.918 1040.67 430.423 1040.67 425.299Z"></path><path style="fill:var(--color-illustrationAnatomyBorder020)" d="M1139.53 423.816C1139.53 426.603 1139.35 429.12 1138.99 431.367H1082.27C1082.71 437.3 1084.92 442.065 1088.87 445.661C1092.82 449.257 1097.67 451.055 1103.42 451.055C1111.68 451.055 1117.52 447.594 1120.93 440.672H1137.5C1135.26 447.504 1131.17 453.122 1125.24 457.527C1119.41 461.842 1112.13 464 1103.42 464C1096.32 464 1089.95 462.427 1084.29 459.28C1078.72 456.044 1074.32 451.549 1071.08 445.796C1067.94 439.952 1066.37 433.21 1066.37 425.569C1066.37 417.927 1067.89 411.23 1070.95 405.477C1074.09 399.633 1078.45 395.138 1084.02 391.992C1089.68 388.846 1096.14 387.272 1103.42 387.272C1110.42 387.272 1116.67 388.801 1122.15 391.857C1127.62 394.914 1131.89 399.229 1134.94 404.802C1138 410.286 1139.53 416.624 1139.53 423.816ZM1123.49 418.961C1123.4 413.298 1121.38 408.758 1117.43 405.342C1113.48 401.926 1108.58 400.218 1102.74 400.218C1097.45 400.218 1092.91 401.926 1089.14 405.342C1085.36 408.668 1083.12 413.208 1082.4 418.961H1123.49Z"></path><path style="fill:var(--color-illustrationAnatomyBorder020)" d="M1170 363V462.786H1154.64V363H1170Z"></path><path style="fill:var(--color-illustrationHighlight010)" d="M844.359 450.381H876.021V462.786H829V369.068H844.359V450.381Z"></path><path style="fill:var(--color-illustrationHighlight010)" d="M883.746 425.299C883.746 417.838 885.272 411.23 888.326 405.477C891.47 399.723 895.692 395.273 900.991 392.127C906.38 388.891 912.308 387.272 918.775 387.272C924.614 387.272 929.688 388.441 934 390.778C938.401 393.026 941.904 395.858 944.509 399.274V388.486H960.003V462.786H944.509V451.729C941.904 455.235 938.356 458.157 933.865 460.494C929.374 462.831 924.254 464 918.506 464C912.129 464 906.29 462.382 900.991 459.146C895.692 455.819 891.47 451.235 888.326 445.391C885.272 439.458 883.746 432.761 883.746 425.299ZM944.509 425.569C944.509 420.445 943.431 415.995 941.275 412.219C939.209 408.443 936.47 405.567 933.057 403.589C929.643 401.611 925.961 400.622 922.009 400.622C918.057 400.622 914.374 401.611 910.961 403.589C907.548 405.477 904.763 408.308 902.608 412.084C900.542 415.77 899.509 420.175 899.509 425.299C899.509 430.423 900.542 434.918 902.608 438.784C904.763 442.649 907.548 445.616 910.961 447.684C914.464 449.661 918.147 450.65 922.009 450.65C925.961 450.65 929.643 449.661 933.057 447.684C936.47 445.706 939.209 442.829 941.275 439.053C943.431 435.188 944.509 430.693 944.509 425.569Z"></path><path style="fill:var(--color-illustrationHighlight010)" d="M995.535 399.543C998.14 395.947 1001.69 393.026 1006.18 390.778C1010.76 388.441 1015.83 387.272 1021.4 387.272C1027.96 387.272 1033.89 388.846 1039.19 391.992C1044.49 395.138 1048.66 399.633 1051.72 405.477C1054.77 411.23 1056.3 417.838 1056.3 425.299C1056.3 432.761 1054.77 439.458 1051.72 445.391C1048.66 451.235 1044.44 455.819 1039.05 459.146C1033.75 462.382 1027.87 464 1021.4 464C1015.66 464 1010.54 462.876 1006.04 460.629C1001.64 458.381 998.14 455.505 995.535 451.999V462.786H980.176V363H995.535V399.543ZM1040.67 425.299C1040.67 420.175 1039.59 415.77 1037.44 412.084C1035.37 408.308 1032.59 405.477 1029.08 403.589C1025.67 401.611 1021.99 400.622 1018.04 400.622C1014.17 400.622 1010.49 401.611 1006.99 403.589C1003.57 405.567 1000.79 408.443 998.634 412.219C996.568 415.995 995.535 420.445 995.535 425.569C995.535 430.693 996.568 435.188 998.634 439.053C1000.79 442.829 1003.57 445.706 1006.99 447.684C1010.49 449.661 1014.17 450.65 1018.04 450.65C1021.99 450.65 1025.67 449.661 1029.08 447.684C1032.59 445.616 1035.37 442.649 1037.44 438.784C1039.59 434.918 1040.67 430.423 1040.67 425.299Z"></path><path style="fill:var(--color-illustrationHighlight010)" d="M1139.53 423.816C1139.53 426.603 1139.35 429.12 1138.99 431.367H1082.27C1082.71 437.3 1084.92 442.065 1088.87 445.661C1092.82 449.257 1097.67 451.055 1103.42 451.055C1111.68 451.055 1117.52 447.594 1120.93 440.672H1137.5C1135.26 447.504 1131.17 453.122 1125.24 457.527C1119.41 461.842 1112.13 464 1103.42 464C1096.32 464 1089.95 462.427 1084.29 459.28C1078.72 456.044 1074.32 451.549 1071.08 445.796C1067.94 439.952 1066.37 433.21 1066.37 425.569C1066.37 417.927 1067.89 411.23 1070.95 405.477C1074.09 399.633 1078.45 395.138 1084.02 391.992C1089.68 388.846 1096.14 387.272 1103.42 387.272C1110.42 387.272 1116.67 388.801 1122.15 391.857C1127.62 394.914 1131.89 399.229 1134.94 404.802C1138 410.286 1139.53 416.624 1139.53 423.816ZM1123.49 418.961C1123.4 413.298 1121.38 408.758 1117.43 405.342C1113.48 401.926 1108.58 400.218 1102.74 400.218C1097.45 400.218 1092.91 401.926 1089.14 405.342C1085.36 408.668 1083.12 413.208 1082.4 418.961H1123.49Z"></path><path style="fill:var(--color-illustrationHighlight010)" d="M1170 363V462.786H1154.64V363H1170Z"></path><defs><filter id="nk-977" x="289.872" y="404.436" width="316.257" height="316.257" filterUnits="userSpaceOnUse" color-interpolation-filters="sRGB"><feFlood flood-opacity="0" result="BackgroundImageFix"></feFlood><feColorMatrix in="SourceAlpha" type="matrix" values="0 0 0 0 0 0 0 0 0 0 0 0 0 0 0 0 0 0 127 0" result="hardAlpha"></feColorMatrix><feOffset dy="18.5642"></feOffset><feGaussianBlur stdDeviation="18.5642"></feGaussianBlur><feColorMatrix type="matrix" values="0 0 0 0 0.0392157 0 0 0 0 0.0392157 0 0 0 0 0.0392157 0 0 0 0.08 0"></feColorMatrix><feBlend mode="normal" in2="BackgroundImageFix" result="effect1_dropShadow_2040_73201"></feBlend><feBlend mode="normal" in="SourceGraphic" in2="effect1_dropShadow_2040_73201" result="shape"></feBlend></filter></defs></svg>