<svg id="nksvg" width="1490" height="883" viewBox="0 0 1490 883" fill="none" xmlns="http://www.w3.org/2000/svg">
<g clip-path="url(#clip0_3295_104994)">
<rect width="1490" height="883" fill="white"></rect>
<rect width="1490" height="883" fill="var(--color-illustrationBackground010)"></rect>
<path d="M1283.72 424.45L1281.33 426.835L1289.08 434.6L1281.33 442.365L1283.72 444.75L1293.87 434.6L1283.72 424.45Z" fill="var(--color-illustrationPalette030)"></path>
<path fill-rule="evenodd" clip-rule="evenodd" d="M1393.87 434.6L1386.1 426.835L1388.49 424.45L1398.64 434.6L1388.49 444.75L1386.1 442.365L1393.87 434.6ZM1407.1 424.45H1403.71V444.75H1407.1V424.45Z" fill="var(--color-illustrationPalette030)"></path>
<path d="M1166.63 445.3V443.412C1168.15 442.217 1169.58 441.012 1170.92 439.796C1172.28 438.559 1173.49 437.343 1174.54 436.148C1175.6 434.953 1176.43 433.78 1177.03 432.628C1177.65 431.476 1177.96 430.367 1177.96 429.3C1177.96 428.511 1177.82 427.775 1177.54 427.092C1177.29 426.409 1176.86 425.865 1176.26 425.46C1175.67 425.033 1174.86 424.82 1173.83 424.82C1172.85 424.82 1172.03 425.044 1171.37 425.492C1170.71 425.919 1170.2 426.495 1169.86 427.22C1169.54 427.945 1169.38 428.724 1169.38 429.556H1166.79C1166.79 428.084 1167.1 426.825 1167.72 425.78C1168.34 424.713 1169.18 423.903 1170.25 423.348C1171.31 422.793 1172.52 422.516 1173.86 422.516C1175.85 422.516 1177.47 423.081 1178.73 424.212C1180.01 425.321 1180.65 426.985 1180.65 429.204C1180.65 430.527 1180.32 431.839 1179.66 433.14C1178.99 434.42 1178.15 435.668 1177.13 436.884C1176.1 438.079 1175 439.199 1173.83 440.244C1172.68 441.289 1171.6 442.228 1170.6 443.06H1181.42V445.3H1166.63Z" fill="var(--color-illustrationPalette030)"></path>
<path d="M1187.5 445.3V425.908L1183.89 426.708V424.852L1188.4 422.9H1190.22V445.3H1187.5Z" fill="var(--color-illustrationPalette030)"></path>
<path d="M1051.52 445.3V443.412C1053.04 442.217 1054.47 441.012 1055.81 439.796C1057.18 438.559 1058.38 437.343 1059.43 436.148C1060.49 434.953 1061.32 433.78 1061.92 432.628C1062.54 431.476 1062.85 430.367 1062.85 429.3C1062.85 428.511 1062.71 427.775 1062.43 427.092C1062.18 426.409 1061.75 425.865 1061.15 425.46C1060.56 425.033 1059.75 424.82 1058.72 424.82C1057.74 424.82 1056.92 425.044 1056.26 425.492C1055.6 425.919 1055.1 426.495 1054.75 427.22C1054.43 427.945 1054.27 428.724 1054.27 429.556H1051.68C1051.68 428.084 1051.99 426.825 1052.61 425.78C1053.23 424.713 1054.07 423.903 1055.14 423.348C1056.2 422.793 1057.41 422.516 1058.75 422.516C1060.74 422.516 1062.36 423.081 1063.62 424.212C1064.9 425.321 1065.54 426.985 1065.54 429.204C1065.54 430.527 1065.21 431.839 1064.55 433.14C1063.88 434.42 1063.04 435.668 1062.02 436.884C1060.99 438.079 1059.9 439.199 1058.72 440.244C1057.57 441.289 1056.49 442.228 1055.49 443.06H1066.31V445.3H1051.52Z" fill="var(--color-illustrationPalette030)"></path>
<path d="M1078.61 445.684C1076.63 445.684 1074.91 445.204 1073.46 444.244C1072.03 443.263 1070.93 441.908 1070.16 440.18C1069.39 438.431 1069.01 436.404 1069.01 434.1C1069.01 431.796 1069.39 429.78 1070.16 428.052C1070.93 426.303 1072.03 424.948 1073.46 423.988C1074.91 423.007 1076.63 422.516 1078.61 422.516C1080.59 422.516 1082.3 423.007 1083.73 423.988C1085.16 424.948 1086.26 426.303 1087.03 428.052C1087.79 429.78 1088.18 431.796 1088.18 434.1C1088.18 436.404 1087.79 438.431 1087.03 440.18C1086.26 441.908 1085.16 443.263 1083.73 444.244C1082.3 445.204 1080.59 445.684 1078.61 445.684ZM1078.61 443.316C1079.91 443.316 1081.07 442.953 1082.1 442.228C1083.14 441.481 1083.95 440.425 1084.53 439.06C1085.13 437.673 1085.43 436.02 1085.43 434.1C1085.43 432.18 1085.13 430.537 1084.53 429.172C1083.95 427.807 1083.14 426.761 1082.1 426.036C1081.07 425.289 1079.91 424.916 1078.61 424.916C1077.29 424.916 1076.11 425.289 1075.09 426.036C1074.07 426.761 1073.26 427.807 1072.66 429.172C1072.06 430.537 1071.76 432.18 1071.76 434.1C1071.76 436.02 1072.06 437.673 1072.66 439.06C1073.26 440.425 1074.07 441.481 1075.09 442.228C1076.11 442.953 1077.29 443.316 1078.61 443.316Z" fill="var(--color-illustrationPalette030)"></path>
<path fill-rule="evenodd" clip-rule="evenodd" d="M970.75 434.217C968.889 434.217 967.367 435.739 967.367 437.6C967.367 439.461 968.889 440.983 970.75 440.983C972.611 440.983 974.133 439.461 974.133 437.6C974.133 435.739 972.611 434.217 970.75 434.217ZM950.45 434.217C948.589 434.217 947.067 435.739 947.067 437.6C947.067 439.461 948.589 440.984 950.45 440.984C952.311 440.984 953.833 439.461 953.833 437.6C953.833 435.739 952.311 434.217 950.45 434.217ZM957.217 437.6C957.217 435.739 958.739 434.217 960.6 434.217C962.461 434.217 963.983 435.739 963.983 437.6C963.983 439.461 962.461 440.983 960.6 440.983C958.739 440.983 957.217 439.461 957.217 437.6Z" fill="var(--color-illustrationPalette030)"></path>
<path d="M845.52 445.3V425.908L841.904 426.708V424.852L846.416 422.9H848.24V445.3H845.52Z" fill="var(--color-illustrationPalette030)"></path>
<path d="M855.176 445.3V425.908L851.56 426.708V424.852L856.072 422.9H857.896V445.3H855.176Z" fill="var(--color-illustrationPalette030)"></path>
<rect x="701" y="395" width="81.2" height="81.2" rx="20" fill="var(--color-illustrationPalette030)"></rect>
<path d="M729.333 446.6V428.872L725.653 429.736V426.6L731.061 424.2H733.589V446.6H729.333Z" fill="var(--color-illustrationPalette010)"></path>
<path d="M747.116 446.984C745.047 446.984 743.276 446.504 741.804 445.544C740.332 444.563 739.191 443.208 738.38 441.48C737.591 439.731 737.196 437.704 737.196 435.4C737.196 433.117 737.591 431.101 738.38 429.352C739.191 427.603 740.332 426.248 741.804 425.288C743.276 424.307 745.047 423.816 747.116 423.816C749.186 423.816 750.956 424.307 752.428 425.288C753.9 426.248 755.031 427.603 755.82 429.352C756.631 431.101 757.036 433.117 757.036 435.4C757.036 437.704 756.631 439.731 755.82 441.48C755.031 443.208 753.9 444.563 752.428 445.544C750.956 446.504 749.186 446.984 747.116 446.984ZM747.116 443.304C748.802 443.304 750.178 442.6 751.244 441.192C752.311 439.784 752.844 437.853 752.844 435.4C752.844 432.947 752.311 431.016 751.244 429.608C750.178 428.2 748.802 427.496 747.116 427.496C745.41 427.496 744.023 428.2 742.956 429.608C741.911 431.016 741.388 432.947 741.388 435.4C741.388 437.853 741.911 439.784 742.956 441.192C744.023 442.6 745.41 443.304 747.116 443.304Z" fill="var(--color-illustrationPalette010)"></path>
<path d="M632.282 445.684C630.874 445.684 629.669 445.407 628.666 444.852C627.663 444.297 626.863 443.561 626.266 442.644C625.69 441.705 625.338 440.671 625.21 439.54H627.706C627.919 440.756 628.431 441.695 629.242 442.356C630.053 443.017 631.077 443.348 632.314 443.348C634.021 443.348 635.439 442.559 636.57 440.98C637.701 439.38 638.309 436.895 638.394 433.524C637.882 434.527 637.061 435.401 635.93 436.148C634.821 436.873 633.477 437.236 631.898 437.236C630.639 437.236 629.445 436.937 628.314 436.34C627.183 435.743 626.266 434.911 625.562 433.844C624.858 432.756 624.506 431.487 624.506 430.036C624.506 428.777 624.815 427.572 625.434 426.42C626.074 425.268 626.97 424.329 628.122 423.604C629.274 422.879 630.65 422.516 632.25 422.516C633.871 422.516 635.237 422.825 636.346 423.444C637.455 424.041 638.341 424.852 639.002 425.876C639.685 426.9 640.175 428.052 640.474 429.332C640.794 430.591 640.954 431.881 640.954 433.204C640.954 435.679 640.613 437.855 639.93 439.732C639.247 441.588 638.255 443.049 636.954 444.116C635.674 445.161 634.117 445.684 632.282 445.684ZM632.442 434.9C633.445 434.9 634.341 434.676 635.13 434.228C635.919 433.759 636.549 433.14 637.018 432.372C637.487 431.604 637.722 430.772 637.722 429.876C637.722 428.916 637.487 428.063 637.018 427.316C636.549 426.548 635.919 425.951 635.13 425.524C634.341 425.097 633.445 424.884 632.442 424.884C631.439 424.884 630.543 425.097 629.754 425.524C628.965 425.951 628.346 426.548 627.898 427.316C627.45 428.063 627.226 428.927 627.226 429.908C627.226 431.423 627.717 432.639 628.698 433.556C629.701 434.452 630.949 434.9 632.442 434.9Z" fill="var(--color-illustrationPalette030)"></path>
<path fill-rule="evenodd" clip-rule="evenodd" d="M530.75 432.217C528.889 432.217 527.367 433.739 527.367 435.6C527.367 437.461 528.889 438.983 530.75 438.983C532.611 438.983 534.133 437.461 534.133 435.6C534.133 433.739 532.611 432.217 530.75 432.217ZM510.45 432.217C508.589 432.217 507.067 433.739 507.067 435.6C507.067 437.461 508.589 438.984 510.45 438.984C512.311 438.984 513.833 437.461 513.833 435.6C513.833 433.739 512.311 432.217 510.45 432.217ZM517.217 435.6C517.217 433.739 518.739 432.217 520.6 432.217C522.461 432.217 523.983 433.739 523.983 435.6C523.983 437.461 522.461 438.983 520.6 438.983C518.739 438.983 517.217 437.461 517.217 435.6Z" fill="var(--color-illustrationPalette030)"></path>
<path d="M415.538 445.684C414.108 445.684 412.818 445.428 411.666 444.916C410.514 444.383 409.586 443.593 408.882 442.548C408.199 441.503 407.836 440.201 407.794 438.644H410.514C410.535 439.924 410.983 441.033 411.858 441.972C412.732 442.889 413.959 443.348 415.538 443.348C417.116 443.348 418.3 442.911 419.09 442.036C419.9 441.161 420.306 440.105 420.306 438.868C420.306 437.823 420.05 436.969 419.538 436.308C419.047 435.647 418.375 435.156 417.522 434.836C416.69 434.516 415.772 434.356 414.77 434.356H413.106V432.084H414.77C416.22 432.084 417.351 431.753 418.162 431.092C418.994 430.431 419.41 429.503 419.41 428.308C419.41 427.305 419.079 426.484 418.418 425.844C417.778 425.183 416.818 424.852 415.538 424.852C414.3 424.852 413.308 425.225 412.562 425.972C411.815 426.697 411.399 427.615 411.314 428.724H408.594C408.658 427.508 408.978 426.431 409.554 425.492C410.151 424.553 410.962 423.828 411.986 423.316C413.01 422.783 414.194 422.516 415.538 422.516C416.988 422.516 418.194 422.772 419.154 423.284C420.135 423.796 420.871 424.479 421.362 425.332C421.874 426.185 422.13 427.124 422.13 428.148C422.13 429.279 421.82 430.313 421.202 431.252C420.583 432.169 419.655 432.788 418.418 433.108C419.74 433.385 420.839 434.015 421.714 434.996C422.588 435.977 423.026 437.268 423.026 438.868C423.026 440.105 422.738 441.247 422.162 442.292C421.607 443.316 420.775 444.137 419.666 444.756C418.556 445.375 417.18 445.684 415.538 445.684Z" fill="var(--color-illustrationPalette030)"></path>
<path d="M299.46 445.3V443.412C300.974 442.217 302.404 441.012 303.748 439.796C305.113 438.559 306.318 437.343 307.364 436.148C308.43 434.953 309.262 433.78 309.86 432.628C310.478 431.476 310.788 430.367 310.788 429.3C310.788 428.511 310.649 427.775 310.372 427.092C310.116 426.409 309.689 425.865 309.092 425.46C308.494 425.033 307.684 424.82 306.66 424.82C305.678 424.82 304.857 425.044 304.196 425.492C303.534 425.919 303.033 426.495 302.692 427.22C302.372 427.945 302.212 428.724 302.212 429.556H299.62C299.62 428.084 299.929 426.825 300.548 425.78C301.166 424.713 302.009 423.903 303.076 423.348C304.142 422.793 305.348 422.516 306.692 422.516C308.676 422.516 310.297 423.081 311.556 424.212C312.836 425.321 313.476 426.985 313.476 429.204C313.476 430.527 313.145 431.839 312.484 433.14C311.822 434.42 310.98 435.668 309.956 436.884C308.932 438.079 307.833 439.199 306.66 440.244C305.508 441.289 304.43 442.228 303.428 443.06H314.244V445.3H299.46Z" fill="var(--color-illustrationPalette030)"></path>
<path d="M203.369 426.835L200.983 424.45L190.833 434.6L200.983 444.75L203.369 442.365L195.621 434.6L203.369 426.835Z" fill="var(--color-illustrationPalette030)"></path>
<path fill-rule="evenodd" clip-rule="evenodd" d="M81.4864 424.45H78.103V444.75H81.4864V424.45ZM91.332 434.6L99.0967 442.365L96.7114 444.75L86.5615 434.6L96.7114 424.45L99.0967 426.835L91.332 434.6Z" fill="var(--color-illustrationPalette030)"></path>
<circle cx="88.5" cy="523.5" r="3.5" fill="#577FFB"></circle>
<circle cx="89" cy="711" r="18" fill="#577FFB"></circle>
<path d="M90 527H88V694H90V527Z" fill="#577FFB"></path>
<path d="M85.032 714.744C85.3947 714.456 85.56 714.323 85.528 714.344C86.5733 713.48 87.3947 712.771 87.992 712.216C88.6 711.661 89.112 711.08 89.528 710.472C89.944 709.864 90.152 709.272 90.152 708.696C90.152 708.259 90.0507 707.917 89.848 707.672C89.6453 707.427 89.3413 707.304 88.936 707.304C88.5307 707.304 88.2107 707.459 87.976 707.768C87.752 708.067 87.64 708.493 87.64 709.048H85C85.0213 708.141 85.2133 707.384 85.576 706.776C85.9493 706.168 86.4347 705.72 87.032 705.432C87.64 705.144 88.312 705 89.048 705C90.3173 705 91.272 705.325 91.912 705.976C92.5627 706.627 92.888 707.475 92.888 708.52C92.888 709.661 92.4987 710.723 91.72 711.704C90.9413 712.675 89.9493 713.624 88.744 714.552H93.064V716.776H85.032V714.744Z" fill="white"></path>
<circle cx="198" cy="523.5" r="3.5" fill="#577FFB"></circle>
<path d="M199 527H197V694H199V527Z" fill="#577FFB"></path>
<circle cx="198" cy="711" r="18" fill="#577FFB"></circle>
<path d="M194.08 708.568C194.123 707.427 194.496 706.547 195.2 705.928C195.904 705.309 196.859 705 198.064 705C198.864 705 199.547 705.139 200.112 705.416C200.688 705.693 201.12 706.072 201.408 706.552C201.707 707.032 201.856 707.571 201.856 708.168C201.856 708.872 201.68 709.448 201.328 709.896C200.976 710.333 200.565 710.632 200.096 710.792V710.856C200.704 711.059 201.184 711.395 201.536 711.864C201.888 712.333 202.064 712.936 202.064 713.672C202.064 714.333 201.909 714.92 201.6 715.432C201.301 715.933 200.859 716.328 200.272 716.616C199.696 716.904 199.008 717.048 198.208 717.048C196.928 717.048 195.904 716.733 195.136 716.104C194.379 715.475 193.979 714.525 193.936 713.256H196.592C196.603 713.725 196.736 714.099 196.992 714.376C197.248 714.643 197.621 714.776 198.112 714.776C198.528 714.776 198.848 714.659 199.072 714.424C199.307 714.179 199.424 713.859 199.424 713.464C199.424 712.952 199.259 712.584 198.928 712.36C198.608 712.125 198.091 712.008 197.376 712.008H196.864V709.784H197.376C197.92 709.784 198.357 709.693 198.688 709.512C199.029 709.32 199.2 708.984 199.2 708.504C199.2 708.12 199.093 707.821 198.88 707.608C198.667 707.395 198.373 707.288 198 707.288C197.595 707.288 197.291 707.411 197.088 707.656C196.896 707.901 196.784 708.205 196.752 708.568H194.08Z" fill="white"></path>
<path d="M362 541H360V694H362V541Z" fill="#577FFB"></path>
<circle cx="361" cy="711" r="18" fill="#577FFB"></circle>
<path d="M356.877 714.26V712.328L361.301 706H363.975V712.188H365.123V714.26H363.975V716.08H361.581V714.26H356.877ZM361.749 708.632L359.397 712.188H361.749V708.632Z" fill="white"></path>
<circle cx="521" cy="523.5" r="3.5" fill="#577FFB"></circle>
<circle cx="521" cy="711" r="18" fill="#577FFB"></circle>
<path d="M522 527H520V694H522V527Z" fill="#577FFB"></path>
<path d="M524.464 707.4H519.472V709.608C519.685 709.373 519.984 709.181 520.368 709.032C520.752 708.883 521.168 708.808 521.616 708.808C522.416 708.808 523.077 708.989 523.6 709.352C524.133 709.715 524.523 710.184 524.768 710.76C525.013 711.336 525.136 711.96 525.136 712.632C525.136 713.88 524.784 714.872 524.08 715.608C523.376 716.333 522.384 716.696 521.104 716.696C520.251 716.696 519.509 716.552 518.88 716.264C518.251 715.965 517.765 715.555 517.424 715.032C517.083 714.509 516.896 713.907 516.864 713.224H519.536C519.6 713.555 519.755 713.832 520 714.056C520.245 714.269 520.581 714.376 521.008 714.376C521.509 714.376 521.883 714.216 522.128 713.896C522.373 713.576 522.496 713.149 522.496 712.616C522.496 712.093 522.368 711.693 522.112 711.416C521.856 711.139 521.483 711 520.992 711C520.629 711 520.331 711.091 520.096 711.272C519.861 711.443 519.707 711.672 519.632 711.96H516.992V705H524.464V707.4Z" fill="white"></path>
<circle cx="961" cy="523.5" r="3.5" fill="#577FFB"></circle>
<path d="M743 541H741V694H743V541Z" fill="#577FFB"></path>
<path d="M962 527H960V694H962V527Z" fill="#577FFB"></path>
<circle cx="961" cy="711" r="18" fill="#577FFB"></circle>
<path d="M964.464 707.4H959.472V709.608C959.685 709.373 959.984 709.181 960.368 709.032C960.752 708.883 961.168 708.808 961.616 708.808C962.416 708.808 963.077 708.989 963.6 709.352C964.133 709.715 964.523 710.184 964.768 710.76C965.013 711.336 965.136 711.96 965.136 712.632C965.136 713.88 964.784 714.872 964.08 715.608C963.376 716.333 962.384 716.696 961.104 716.696C960.251 716.696 959.509 716.552 958.88 716.264C958.251 715.965 957.765 715.555 957.424 715.032C957.083 714.509 956.896 713.907 956.864 713.224H959.536C959.6 713.555 959.755 713.832 960 714.056C960.245 714.269 960.581 714.376 961.008 714.376C961.509 714.376 961.883 714.216 962.128 713.896C962.373 713.576 962.496 713.149 962.496 712.616C962.496 712.093 962.368 711.693 962.112 711.416C961.856 711.139 961.483 711 960.992 711C960.629 711 960.331 711.091 960.096 711.272C959.861 711.443 959.707 711.672 959.632 711.96H956.992V705H964.464V707.4Z" fill="white"></path>
<circle cx="742" cy="711" r="18" fill="#577FFB"></circle>
<path d="M743.155 708.968C743.08 708.623 742.95 708.366 742.763 708.198C742.576 708.021 742.31 707.932 741.965 707.932C741.433 707.932 741.05 708.165 740.817 708.632C740.584 709.089 740.462 709.817 740.453 710.816C740.658 710.489 740.952 710.233 741.335 710.046C741.727 709.859 742.156 709.766 742.623 709.766C743.538 709.766 744.27 710.055 744.821 710.634C745.381 711.213 745.661 712.02 745.661 713.056C745.661 713.737 745.521 714.335 745.241 714.848C744.97 715.361 744.569 715.763 744.037 716.052C743.514 716.341 742.894 716.486 742.175 716.486C740.738 716.486 739.739 716.038 739.179 715.142C738.619 714.237 738.339 712.939 738.339 711.25C738.339 709.477 738.633 708.161 739.221 707.302C739.818 706.434 740.77 706 742.077 706C742.777 706 743.365 706.14 743.841 706.42C744.326 706.691 744.69 707.05 744.933 707.498C745.185 707.946 745.334 708.436 745.381 708.968H743.155ZM742.049 711.656C741.648 711.656 741.312 711.777 741.041 712.02C740.78 712.253 740.649 712.589 740.649 713.028C740.649 713.476 740.77 713.826 741.013 714.078C741.265 714.33 741.62 714.456 742.077 714.456C742.488 714.456 742.81 714.335 743.043 714.092C743.286 713.84 743.407 713.499 743.407 713.07C743.407 712.631 743.29 712.286 743.057 712.034C742.824 711.782 742.488 711.656 742.049 711.656Z" fill="white"></path>
<path d="M1120 541H1118V694H1120V541Z" fill="#577FFB"></path>
<circle cx="1118" cy="711" r="18" fill="#577FFB"></circle>
<path d="M1113.88 714.26V712.328L1118.3 706H1120.97V712.188H1122.12V714.26H1120.97V716.08H1118.58V714.26H1113.88ZM1118.75 708.632L1116.4 712.188H1118.75V708.632Z" fill="white"></path>
<circle cx="1288" cy="523.5" r="3.5" fill="#577FFB"></circle>
<path d="M1288 527H1286V694H1288V527Z" fill="#577FFB"></path>
<circle cx="1287" cy="711" r="18" fill="#577FFB"></circle>
<path d="M1291.15 707.778L1287.64 716.206H1285.19L1288.75 708.044H1284.39V706H1291.15V707.778Z" fill="white"></path>
<circle cx="1397" cy="523.5" r="3.5" fill="#577FFB"></circle>
<path d="M1398 527H1396V694H1398V527Z" fill="#577FFB"></path>
<circle cx="1397" cy="711" r="18" fill="#577FFB"></circle>
<path d="M1394.46 710.648C1393.45 710.115 1392.95 709.277 1392.95 708.136C1392.95 707.56 1393.1 707.037 1393.4 706.568C1393.7 706.088 1394.15 705.709 1394.76 705.432C1395.37 705.144 1396.11 705 1397 705C1397.89 705 1398.63 705.144 1399.22 705.432C1399.83 705.709 1400.29 706.088 1400.58 706.568C1400.88 707.037 1401.03 707.56 1401.03 708.136C1401.03 708.712 1400.89 709.213 1400.62 709.64C1400.35 710.067 1399.99 710.403 1399.53 710.648C1400.1 710.925 1400.55 711.309 1400.86 711.8C1401.17 712.28 1401.32 712.845 1401.32 713.496C1401.32 714.253 1401.13 714.909 1400.74 715.464C1400.36 716.008 1399.84 716.424 1399.18 716.712C1398.53 717 1397.8 717.144 1397 717.144C1396.2 717.144 1395.47 717 1394.81 716.712C1394.16 716.424 1393.64 716.008 1393.26 715.464C1392.87 714.909 1392.68 714.253 1392.68 713.496C1392.68 712.835 1392.83 712.264 1393.14 711.784C1393.45 711.293 1393.89 710.915 1394.46 710.648ZM1398.38 708.552C1398.38 708.115 1398.25 707.779 1397.99 707.544C1397.75 707.299 1397.42 707.176 1397 707.176C1396.58 707.176 1396.25 707.299 1395.99 707.544C1395.75 707.789 1395.62 708.131 1395.62 708.568C1395.62 708.984 1395.75 709.315 1396.01 709.56C1396.26 709.795 1396.59 709.912 1397 709.912C1397.41 709.912 1397.74 709.789 1397.99 709.544C1398.25 709.299 1398.38 708.968 1398.38 708.552ZM1397 711.832C1396.5 711.832 1396.09 711.971 1395.78 712.248C1395.47 712.515 1395.32 712.888 1395.32 713.368C1395.32 713.816 1395.47 714.184 1395.77 714.472C1396.08 714.76 1396.49 714.904 1397 714.904C1397.51 714.904 1397.91 714.76 1398.2 714.472C1398.5 714.184 1398.65 713.816 1398.65 713.368C1398.65 712.899 1398.49 712.525 1398.18 712.248C1397.89 711.971 1397.49 711.832 1397 711.832Z" fill="white"></path>
<rect x="724.784" y="143" width="32.432" height="34" rx="16.216" fill="#577FFB"></rect>
<path d="M740 177H742V343H740V177Z" fill="#577FFB"></path>
<path d="M738.784 156.704V154.16H743.216V165.84H740.368V156.704H738.784Z" fill="white"></path>
<rect x="47" y="341" width="2" height="20" rx="1" fill="#577FFB"></rect>
<path d="M744.5 341H48V343H744.5V341Z" fill="#577FFB"></path>
<path d="M744.5 341H1441V343H744.5V341Z" fill="#577FFB"></path>
<rect x="1440" y="341" width="2" height="20" rx="1" fill="#577FFB"></rect>
<rect x="1028" y="521" width="2" height="20" rx="1" fill="#577FFB"></rect>
<path d="M1218 539H1029V541H1218V539Z" fill="#577FFB"></path>
<rect x="1217" y="521" width="2" height="20" rx="1" fill="#577FFB"></rect>
<rect x="266" y="521" width="2" height="20" rx="1" fill="#577FFB"></rect>
<path d="M456 539H267V541H456V539Z" fill="#577FFB"></path>
<rect x="455" y="521" width="2" height="20" rx="1" fill="#577FFB"></rect>
<rect x="591" y="521" width="2" height="20" rx="1" fill="#577FFB"></rect>
<path d="M891 539H592V541H891V539Z" fill="#577FFB"></path>
<rect x="890" y="521" width="2" height="20" rx="1" fill="#577FFB"></rect>
</g>
<defs>
<clipPath id="clip0_3295_104994">
<rect width="1490" height="883" fill="white"></rect>
</clipPath>
</defs>
</svg>
