<svg id="nksvg" style="width: 100%; height: 100%" width="1490" height="838" viewBox="0 0 1490 838" fill="none" xmlns="http://www.w3.org/2000/svg" class="css-0">
  <path style="fill: var(--color-illustrationBackground020)" d="M0 0H1490V838H0V0Z"></path>
  <path style="fill: var(--color-illustrationBackground010)" d="M369 262.859C369 249.682 379.682 239 392.859 239H1099.14C1112.32 239 1123 249.682 1123 262.859V515.141C1123 528.318 1112.32 539 1099.14 539H392.859C379.682 539 369 528.318 369 515.141V262.859Z"></path>
  <path style="fill: var(--color-illustrationInterface030)" fill-rule="evenodd" clip-rule="evenodd" d="M392.859 539C389.624 539 386.539 538.356 383.726 537.19C382.797 536.804 381.898 536.362 381.033 535.868C380.158 535.367 379.318 534.813 378.517 534.21C379.994 531.622 383.2 530.476 386.024 531.647C388.122 532.517 390.426 533 392.859 533H405.471C408.785 533 411.471 535.686 411.471 539H392.859ZM461.92 539C461.92 535.686 459.233 533 455.92 533H430.695C427.382 533 424.695 535.686 424.695 539H461.92ZM512.368 539C512.368 535.686 509.682 533 506.368 533H481.144C477.83 533 475.144 535.686 475.144 539H512.368ZM562.817 539C562.817 535.686 560.131 533 556.817 533H531.593C528.279 533 525.593 535.686 525.593 539H562.817ZM613.266 539C613.266 535.686 610.58 533 607.266 533H582.042C578.728 533 576.042 535.686 576.042 539H613.266ZM663.715 539C663.715 535.686 661.028 533 657.715 533H632.49C629.177 533 626.49 535.686 626.49 539H663.715ZM714.163 539C714.163 535.686 711.477 533 708.163 533H682.939C679.625 533 676.939 535.686 676.939 539H714.163ZM764.612 539C764.612 535.686 761.926 533 758.612 533H733.388C730.074 533 727.388 535.686 727.388 539H764.612ZM815.061 539C815.061 535.686 812.375 533 809.061 533H783.837C780.523 533 777.837 535.686 777.837 539H815.061ZM865.51 539C865.51 535.686 862.823 533 859.51 533H834.285C830.972 533 828.285 535.686 828.285 539H865.51ZM915.958 539C915.958 535.686 913.272 533 909.958 533H884.734C881.42 533 878.734 535.686 878.734 539H915.958ZM966.407 539C966.407 535.686 963.721 533 960.407 533H935.183C931.869 533 929.183 535.686 929.183 539H966.407ZM1016.86 539C1016.86 535.686 1014.17 533 1010.86 533H985.631C982.318 533 979.631 535.686 979.631 539H1016.86ZM1067.3 539C1067.3 535.686 1064.62 533 1061.3 533H1036.08C1032.77 533 1030.08 535.686 1030.08 539H1067.3ZM1113.48 534.21C1112.01 531.622 1108.8 530.476 1105.98 531.647C1103.88 532.517 1101.57 533 1099.14 533H1086.53C1083.22 533 1080.53 535.686 1080.53 539H1099.14C1102.38 539 1105.46 538.356 1108.27 537.19C1109.2 536.804 1110.1 536.362 1110.97 535.868C1111.84 535.367 1112.68 534.813 1113.48 534.21ZM1123 496.527C1119.69 496.527 1117 499.213 1117 502.527V515.141C1117 517.574 1116.52 519.878 1115.65 521.976C1114.48 524.8 1115.62 528.006 1118.21 529.483C1118.81 528.682 1119.37 527.842 1119.87 526.967C1120.36 526.102 1120.8 525.203 1121.19 524.274C1122.36 521.461 1123 518.376 1123 515.141V496.527ZM1123 446.07C1119.69 446.07 1117 448.757 1117 452.07V477.299C1117 480.612 1119.69 483.299 1123 483.299V446.07ZM1123 395.614C1119.69 395.614 1117 398.3 1117 401.614V426.842C1117 430.156 1119.69 432.842 1123 432.842V395.614ZM1123 345.158C1119.69 345.158 1117 347.844 1117 351.158V376.386C1117 379.7 1119.69 382.386 1123 382.386V345.158ZM1123 294.701C1119.69 294.701 1117 297.388 1117 300.701V325.93C1117 329.243 1119.69 331.93 1123 331.93V294.701ZM1118.21 248.517C1115.62 249.994 1114.48 253.2 1115.65 256.024C1116.52 258.122 1117 260.426 1117 262.859V275.473C1117 278.787 1119.69 281.473 1123 281.473V262.859C1123 259.624 1122.36 256.539 1121.19 253.726C1120.8 252.797 1120.36 251.898 1119.87 251.033C1119.37 250.158 1118.81 249.318 1118.21 248.517ZM1080.53 239C1080.53 242.314 1083.22 245 1086.53 245H1099.14C1101.57 245 1103.88 245.483 1105.98 246.353C1108.8 247.524 1112.01 246.378 1113.48 243.79C1112.68 243.187 1111.84 242.633 1110.97 242.132C1110.1 241.638 1109.2 241.196 1108.27 240.81C1105.46 239.644 1102.38 239 1099.14 239H1080.53ZM1030.08 239C1030.08 242.314 1032.77 245 1036.08 245H1061.3C1064.62 245 1067.3 242.314 1067.3 239H1030.08ZM979.632 239C979.632 242.314 982.318 245 985.632 245H1010.86C1014.17 245 1016.86 242.314 1016.86 239H979.632ZM929.183 239C929.183 242.314 931.869 245 935.183 245H960.407C963.721 245 966.407 242.314 966.407 239H929.183ZM878.734 239C878.734 242.314 881.42 245 884.734 245H909.958C913.272 245 915.958 242.314 915.958 239H878.734ZM828.285 239C828.285 242.314 830.972 245 834.285 245H859.51C862.823 245 865.51 242.314 865.51 239H828.285ZM777.837 239C777.837 242.314 780.523 245 783.837 245H809.061C812.375 245 815.061 242.314 815.061 239H777.837ZM727.388 239C727.388 242.314 730.074 245 733.388 245H758.612C761.926 245 764.612 242.314 764.612 239H727.388ZM676.939 239C676.939 242.314 679.625 245 682.939 245H708.163C711.477 245 714.163 242.314 714.163 239H676.939ZM626.49 239C626.49 242.314 629.177 245 632.49 245H657.715C661.028 245 663.715 242.314 663.715 239H626.49ZM576.042 239C576.042 242.314 578.728 245 582.042 245H607.266C610.58 245 613.266 242.314 613.266 239H576.042ZM525.593 239C525.593 242.314 528.279 245 531.593 245H556.817C560.131 245 562.817 242.314 562.817 239H525.593ZM475.144 239C475.144 242.314 477.831 245 481.144 245H506.369C509.682 245 512.369 242.314 512.369 239H475.144ZM424.696 239C424.696 242.314 427.382 245 430.696 245H455.92C459.234 245 461.92 242.314 461.92 239H424.696ZM411.471 239C411.471 242.314 408.785 245 405.471 245H392.859C390.426 245 388.122 245.483 386.024 246.353C383.2 247.524 379.994 246.378 378.517 243.79C379.318 243.187 380.158 242.633 381.033 242.132C381.898 241.638 382.797 241.196 383.726 240.81C386.539 239.644 389.624 239 392.859 239H411.471ZM369 281.473C372.314 281.473 375 278.787 375 275.473V262.859C375 260.426 375.483 258.122 376.353 256.024C377.524 253.2 376.378 249.994 373.79 248.517C373.187 249.318 372.633 250.158 372.132 251.033C371.638 251.898 371.196 252.797 370.81 253.726C369.644 256.539 369 259.624 369 262.859V281.473ZM369 331.93C372.314 331.93 375 329.243 375 325.93V300.701C375 297.388 372.314 294.701 369 294.701V331.93ZM369 382.386C372.314 382.386 375 379.7 375 376.386V351.158C375 347.844 372.314 345.158 369 345.158V382.386ZM369 432.842C372.314 432.842 375 430.156 375 426.842V401.614C375 398.3 372.314 395.614 369 395.614V432.842ZM369 483.299C372.314 483.299 375 480.612 375 477.299V452.07C375 448.757 372.314 446.07 369 446.07V483.299ZM373.79 529.483C376.378 528.006 377.524 524.8 376.353 521.976C375.483 519.878 375 517.574 375 515.141V502.527C375 499.213 372.314 496.527 369 496.527V515.141C369 518.376 369.644 521.461 370.81 524.274C371.196 525.203 371.638 526.102 372.132 526.967C372.633 527.842 373.187 528.682 373.79 529.483Z"></path>
  <path style="fill: var(--color-illustrationHighlight010)" d="M437 331.906C437 315.942 449.951 303 465.927 303L1025.07 303C1041.05 303 1054 315.942 1054 331.906V447.094C1054 463.058 1041.05 476 1025.07 476H465.927C449.951 476 437 463.058 437 447.094V331.906Z"></path>
  <path style="fill: var(--color-illustrationInterface010)" d="M689.998 388.444C691.704 388.749 693.151 389.648 694.339 391.14C695.527 392.633 696.121 394.324 696.121 396.212C696.121 397.827 695.694 399.289 694.842 400.599C694.019 401.878 692.816 402.899 691.232 403.66C689.648 404.391 687.805 404.757 685.703 404.757H673V373H685.109C687.272 373 689.13 373.366 690.683 374.097C692.237 374.828 693.41 375.818 694.202 377.067C694.994 378.285 695.39 379.656 695.39 381.179C695.39 383.007 694.902 384.53 693.928 385.748C692.953 386.967 691.643 387.866 689.998 388.444ZM678.209 386.343H684.652C686.358 386.343 687.683 385.962 688.627 385.2C689.602 384.408 690.089 383.281 690.089 381.819C690.089 380.387 689.602 379.275 688.627 378.483C687.683 377.661 686.358 377.249 684.652 377.249H678.209V386.343ZM685.246 400.508C687.013 400.508 688.399 400.081 689.404 399.228C690.409 398.375 690.912 397.187 690.912 395.664C690.912 394.11 690.379 392.877 689.313 391.963C688.246 391.049 686.83 390.592 685.063 390.592H678.209V400.508H685.246Z"></path>
  <path style="fill: var(--color-illustrationInterface010)" d="M724.583 379.58V404.757H719.374V401.787C718.551 402.823 717.47 403.645 716.129 404.254C714.819 404.833 713.418 405.123 711.926 405.123C709.945 405.123 708.163 404.711 706.579 403.889C705.026 403.066 703.792 401.848 702.878 400.233C701.995 398.619 701.553 396.669 701.553 394.385V379.58H706.716V393.608C706.716 395.862 707.28 397.598 708.407 398.817C709.534 400.005 711.073 400.599 713.022 400.599C714.972 400.599 716.51 400.005 717.637 398.817C718.795 397.598 719.374 395.862 719.374 393.608V379.58H724.583Z"></path>
  <path style="fill: var(--color-illustrationInterface010)" d="M737.533 383.829V397.766C737.533 398.71 737.746 399.396 738.173 399.822C738.629 400.218 739.391 400.416 740.457 400.416H743.656V404.757H739.543C737.198 404.757 735.4 404.209 734.152 403.112C732.903 402.015 732.278 400.233 732.278 397.766V383.829H729.308V379.58H732.278V373.32H737.533V379.58H743.656V383.829H737.533Z"></path>
  <path style="fill: var(--color-illustrationInterface010)" d="M754.534 383.829V397.766C754.534 398.71 754.747 399.396 755.174 399.822C755.631 400.218 756.392 400.416 757.458 400.416H760.657V404.757H756.545C754.199 404.757 752.402 404.209 751.153 403.112C749.904 402.015 749.279 400.233 749.279 397.766V383.829H746.309V379.58H749.279V373.32H754.534V379.58H760.657V383.829H754.534Z"></path>
  <path style="fill: var(--color-illustrationInterface010)" d="M776.379 405.168C774.003 405.168 771.855 404.635 769.936 403.569C768.017 402.472 766.509 400.949 765.412 399C764.316 397.02 763.767 394.735 763.767 392.146C763.767 389.587 764.331 387.317 765.458 385.337C766.585 383.357 768.123 381.834 770.073 380.768C772.023 379.702 774.201 379.169 776.607 379.169C779.014 379.169 781.192 379.702 783.141 380.768C785.091 381.834 786.629 383.357 787.756 385.337C788.884 387.317 789.447 389.587 789.447 392.146C789.447 394.704 788.868 396.974 787.711 398.954C786.553 400.934 784.969 402.472 782.959 403.569C780.979 404.635 778.785 405.168 776.379 405.168ZM776.379 400.645C777.719 400.645 778.968 400.325 780.126 399.685C781.314 399.045 782.273 398.086 783.004 396.806C783.735 395.527 784.101 393.973 784.101 392.146C784.101 390.318 783.751 388.78 783.05 387.531C782.349 386.251 781.42 385.292 780.263 384.652C779.105 384.012 777.856 383.692 776.516 383.692C775.175 383.692 773.927 384.012 772.769 384.652C771.642 385.292 770.743 386.251 770.073 387.531C769.403 388.78 769.068 390.318 769.068 392.146C769.068 394.857 769.753 396.959 771.124 398.451C772.525 399.913 774.277 400.645 776.379 400.645Z"></path>
  <path style="fill: var(--color-illustrationInterface010)" d="M807.299 379.169C809.279 379.169 811.046 379.58 812.6 380.402C814.184 381.225 815.418 382.443 816.301 384.058C817.184 385.672 817.626 387.622 817.626 389.907V404.757H812.463V390.683C812.463 388.429 811.899 386.708 810.772 385.52C809.645 384.302 808.107 383.692 806.157 383.692C804.207 383.692 802.654 384.302 801.496 385.52C800.369 386.708 799.806 388.429 799.806 390.683V404.757H794.597V379.58H799.806V382.459C800.659 381.423 801.74 380.616 803.05 380.037C804.39 379.458 805.807 379.169 807.299 379.169Z"></path>
  <g>
    <path style="fill: var(--color-white)" fill-rule="evenodd" clip-rule="evenodd" d="M901.921 533.5L896.463 525.16C892.736 519.466 884.797 517.388 878.725 520.51L880.14 519.783C878.633 520.557 877.91 522.489 878.531 524.094L886.086 543.642C887.284 546.741 890.343 551.123 892.878 553.325C892.878 553.325 908.077 565.906 908.077 570.622V576.594H932.702H939.436H945.015H951.171V570.622C951.171 565.906 960.46 551.049 960.46 551.049C962.169 548.162 963.595 543.074 963.595 539.697V514.858C963.483 509.358 958.809 504.901 953.041 504.901C950.155 504.901 947.818 507.13 947.818 509.881V511.87C947.818 506.371 943.143 501.914 937.375 501.914C934.489 501.914 932.152 504.143 932.152 506.894V508.883C932.152 503.384 927.477 498.927 921.709 498.927C918.823 498.927 916.486 501.155 916.486 503.907V505.896C916.486 505.012 916.392 504.31 916.209 503.753L914.616 478.101C914.401 474.632 911.477 471.938 908.077 471.938C904.653 471.938 901.921 474.693 901.921 478.093V502.719V533.5Z"></path>
    <path style="fill: var(--color-black)" fill-rule="evenodd" clip-rule="evenodd" d="M880.185 519.87C885.072 518.081 890.789 519.32 894.533 522.857C895.257 523.54 895.907 524.309 896.463 525.159L901.921 533.499V478.091C901.921 474.692 904.653 471.936 908.077 471.936C911.477 471.936 914.401 474.631 914.616 478.1L916.209 503.752C916.226 503.802 916.241 503.853 916.256 503.905C916.408 504.436 916.486 505.091 916.486 505.895V503.905C916.486 503.848 916.487 503.791 916.489 503.734C916.49 503.709 916.491 503.684 916.492 503.659C916.627 501.022 918.91 498.926 921.709 498.926C922.256 498.926 922.794 498.966 923.319 499.043C924.555 499.226 925.72 499.615 926.773 500.172C929.398 501.562 931.328 504 931.943 506.893C932.08 507.535 932.152 508.201 932.152 508.882V506.893C932.152 504.141 934.489 501.913 937.375 501.913C937.607 501.913 937.837 501.92 938.065 501.934C939.645 502.033 941.128 502.466 942.439 503.16C945.064 504.55 946.994 506.987 947.609 509.88C947.746 510.523 947.818 511.188 947.818 511.869V509.88C947.818 507.129 950.155 504.9 953.041 504.9C953.272 504.9 953.503 504.907 953.731 504.922C959.177 505.26 963.488 509.578 963.595 514.856V539.696C963.595 543.073 962.169 548.161 960.46 551.048C960.46 551.048 951.171 565.904 951.171 570.621V576.593H908.077V570.621C908.077 565.904 892.878 553.324 892.878 553.324C890.343 551.122 887.284 546.74 886.086 543.641L878.531 524.093C878.116 523.021 878.301 521.804 878.917 520.883C879.128 520.569 879.388 520.289 879.693 520.061C879.856 519.994 880.02 519.93 880.185 519.87ZM878.725 520.509C879.043 520.346 879.366 520.196 879.693 520.061C879.833 519.956 879.982 519.863 880.14 519.782L878.725 520.509ZM875.402 514.045C871.447 516.9 869.877 522.195 871.64 526.756L879.195 546.304C880.823 550.514 884.579 555.901 888.033 558.901L888.1 558.959L888.166 559.014L888.167 559.015L888.194 559.037L888.303 559.128C888.402 559.212 888.553 559.338 888.747 559.503C889.135 559.833 889.697 560.315 890.374 560.911C891.735 562.108 893.527 563.731 895.299 565.472C897.103 567.246 898.732 568.991 899.858 570.448C900.246 570.949 900.514 571.34 900.69 571.622V583.98H958.558V570.747C958.559 570.778 958.56 570.794 958.564 570.795C958.59 570.799 958.726 570.104 959.425 568.454C960.166 566.703 961.205 564.633 962.317 562.574C963.415 560.538 964.523 558.626 965.36 557.215C965.777 556.513 966.124 555.941 966.363 555.549C966.483 555.353 966.576 555.203 966.638 555.103L966.706 554.993L966.723 554.965L966.771 554.889L966.816 554.812C968.107 552.633 969.107 549.981 969.787 547.53C970.466 545.084 970.982 542.271 970.982 539.696V514.782L970.981 514.707C970.783 504.949 962.588 497.513 953.041 497.513C951.476 497.513 949.948 497.803 948.526 498.34C945.426 495.933 941.513 494.526 937.375 494.526C935.81 494.526 934.282 494.815 932.86 495.353C930.048 493.169 926.567 491.808 922.855 491.574L921.989 477.642C921.53 470.253 915.353 464.549 908.077 464.549C900.556 464.549 894.533 470.629 894.533 478.091V513.952C889.094 511.244 882.549 510.858 876.791 513.267M900.94 572.081C900.938 572.08 900.925 572.054 900.906 572.003C900.932 572.056 900.942 572.082 900.94 572.081ZM875.402 514.045L875.347 513.939L876.762 513.211"></path>
  </g>
  <defs>
    
  </defs>
</svg>
