<svg id="guides-engineering-overview-accessible" style="width: 100%; height: 100%" width="1345" height="759" viewBox="0 0 1345 759" fill="none" xmlns="http://www.w3.org/2000/svg" class="css-0"><g clip-path="url(#nk-694)"><rect style="fill:var(--color-illustrationPalette050)" width="1345" height="759"></rect><path style="fill:var(--color-illustrationPalette040)" d="M-164.371 289.106C-316.633 264.082 -328.94 253.123 -397.805 164.88L265.996 -453.408L1934.26 867.228C1954.93 883.588 1958.35 913.549 1941.91 934.148C1935.61 942.04 1927.04 947.866 1917.1 949.769C1847.8 963.034 1696.94 960.018 1540.61 857.295C1329.47 718.554 1273.55 717.745 999.512 688.662C725.471 659.579 539.264 398.957 317.957 309.86C96.6507 220.763 -4.50643 315.38 -164.371 289.106Z"></path><path style="fill:var(--color-illustrationPalette030)" d="M498.462 -55.3758C377.594 -104.07 368.326 -115.094 317.981 -198.126L885.779 -562.731L2156.43 806.267C2169.27 820.103 2168.42 841.684 2154.53 854.47C2148.52 860.009 2140.75 863.327 2132.57 862.935C2076.04 860.226 1955.28 829.161 1835.73 718.278C1673.97 568.24 1629.11 557.005 1410.68 482.02C1192.24 407.035 1057.35 165.056 884.63 52.4649C711.915 -60.1265 625.365 -4.25054 498.462 -55.3758Z"></path><path style="fill:var(--color-illustrationPalette070)" fill-rule="evenodd" clip-rule="evenodd" d="M569.848 347.981C527.87 375.601 471.449 363.961 443.829 321.983C416.209 280.005 427.849 223.584 469.827 195.964C511.805 168.344 568.226 179.984 595.846 221.962C623.466 263.94 611.826 320.361 569.848 347.981ZM311.94 557.571C304.525 539.156 313.443 518.217 331.858 510.802C405.349 481.211 606.755 376.127 805.553 198.74C820.365 185.523 843.087 186.816 856.304 201.629C869.521 216.441 868.228 239.163 853.416 252.38C791.979 307.2 730.237 355.417 671.707 396.946C766.463 525.03 918.751 644.243 986.089 689.401C1002.58 700.458 1006.98 722.788 995.922 739.275C984.865 755.762 962.536 760.165 946.048 749.108C903.494 720.57 827.867 663.508 752.18 592.252L752.18 592.399C729.066 581.791 722.531 601.15 722.152 612.156L721.984 612.021C757.485 709.756 779.966 801.825 789.335 852.212C792.965 871.729 780.085 890.493 760.568 894.122C741.05 897.751 722.287 884.871 718.657 865.354C703.864 785.797 654.816 599.334 574.966 461.702C480.107 521.481 401.558 560.235 358.709 577.488C340.294 584.903 319.355 575.986 311.94 557.571Z"></path><path style="fill:var(--color-illustrationPalette070)" d="M441.498 192C432.7 221.894 429.5 254.541 429 266L465.496 310.58L539.487 333L606.478 300.117C621.277 260.657 624.309 236.177 623.976 228.869L441.498 192Z"></path><path style="fill:var(--color-illustrationPalette070)" d="M1016 675C1016 699.56 1002.83 725.833 998 736L982 703.999L993 679.499L1016 672.5V675Z"></path><path style="fill:var(--color-illustrationPalette020)" d="M623.686 216.581C627.471 268.107 588.769 312.947 537.243 316.732C485.716 320.518 440.877 281.816 437.092 230.289C433.306 178.763 472.008 133.923 523.534 130.138C575.061 126.352 619.9 165.054 623.686 216.581Z"></path><path style="fill:var(--color-illustrationPalette010)" d="M506.837 132.883C512.216 131.49 517.796 130.56 523.534 130.138C575.061 126.352 619.9 165.054 623.686 216.581C626.166 250.338 610.41 281.225 584.758 299.578C577.122 302.292 568.999 304.039 560.526 304.661C509.631 308.4 465.342 270.174 461.603 219.279C458.942 183.054 477.541 150.175 506.837 132.883Z"></path><path style="fill:var(--color-illustrationPalette070)" d="M679.07 -28.5664C672.512 -28.4041 667.328 -22.9456 667.49 -16.3743C667.651 -9.80311 673.099 -4.60762 679.657 -4.76988C683.512 -4.86527 687.373 -4.91303 691.241 -4.91303C697.8 -4.91303 703.118 -10.2417 703.118 -16.8149C703.118 -23.3881 697.8 -28.7168 691.241 -28.7168C687.178 -28.7168 683.121 -28.6666 679.07 -28.5664ZM603.458 -20.7578C597.006 -19.573 592.734 -13.3712 593.916 -6.90564C595.099 -0.44006 601.288 3.8409 607.74 2.65615C611.532 1.95988 615.335 1.31106 619.15 0.709949C625.63 -0.311302 630.057 -6.40314 629.037 -12.8966C628.018 -19.39 621.939 -23.826 615.459 -22.8048C611.447 -22.1725 607.447 -21.4901 603.458 -20.7578ZM529.871 -1.1035C523.687 1.08749 520.445 7.88757 522.632 14.0849C524.818 20.2822 531.604 23.53 537.789 21.339C541.427 20.0504 545.081 18.8076 548.752 17.6111C554.99 15.578 558.402 8.86241 556.373 2.61152C554.344 -3.63936 547.643 -7.05851 541.405 -5.02536C537.543 -3.76658 533.698 -2.45917 529.871 -1.1035ZM460.375 29.9101C454.612 33.0499 452.481 40.2766 455.614 46.0515C458.747 51.8264 465.959 53.9625 471.722 50.8227C475.115 48.9741 478.532 47.1683 481.971 45.4059C487.811 42.4129 490.124 35.2424 487.137 29.3901C484.151 23.5378 476.995 21.2199 471.155 24.2128C467.537 26.0665 463.944 27.9658 460.375 29.9101ZM396.63 71.4522C391.428 75.4568 390.451 82.9288 394.447 88.1413C398.443 93.3539 405.9 94.3332 411.102 90.3286C414.164 87.971 417.256 85.652 420.376 83.3722C425.677 79.4995 426.841 72.0545 422.976 66.7432C419.111 61.4318 411.682 60.2656 406.381 64.1382C403.1 66.5352 399.85 68.9735 396.63 71.4522ZM340.17 122.416C335.654 127.183 335.849 134.716 340.607 139.242C345.364 143.767 352.882 143.572 357.398 138.805C360.056 135.999 362.748 133.228 365.475 130.49C370.109 125.837 370.102 118.301 365.459 113.658C360.816 109.015 353.295 109.022 348.661 113.675C345.795 116.553 342.964 119.467 340.17 122.416ZM292.232 181.686C288.513 187.101 289.88 194.512 295.284 198.238C300.688 201.964 308.083 200.594 311.801 195.179C313.989 191.993 316.217 188.834 318.484 185.703C322.337 180.383 321.156 172.941 315.847 169.08C310.538 165.22 303.111 166.403 299.259 171.723C296.875 175.014 294.532 178.336 292.232 181.686ZM254.137 247.754C251.313 253.687 253.823 260.79 259.744 263.62C265.665 266.449 272.754 263.934 275.578 258.001C277.239 254.51 278.944 251.041 280.692 247.595C283.665 241.735 281.334 234.57 275.486 231.592C269.639 228.613 262.489 230.949 259.516 236.808C257.677 240.434 255.884 244.082 254.137 247.754ZM226.942 318.866C225.086 325.171 228.683 331.789 234.975 333.648C241.266 335.508 247.871 331.904 249.727 325.599C250.819 321.888 251.958 318.192 253.142 314.513C255.157 308.257 251.729 301.55 245.487 299.531C239.244 297.512 232.55 300.947 230.536 307.203C229.289 311.074 228.091 314.962 226.942 318.866ZM211.285 393.273C210.441 399.792 215.03 405.762 221.535 406.608C228.041 407.454 233.998 402.855 234.843 396.337C235.34 392.497 235.885 388.668 236.477 384.849C237.485 378.354 233.047 372.27 226.565 371.26C220.083 370.251 214.012 374.698 213.004 381.193C212.381 385.209 211.808 389.236 211.285 393.273ZM207.41 469.416C207.585 475.987 213.042 481.172 219.599 480.998C226.157 480.823 231.331 475.354 231.157 468.783C231.055 464.927 231 461.064 230.992 457.195C230.979 450.621 225.651 445.303 219.092 445.316C212.532 445.328 207.225 450.667 207.237 457.241C207.245 461.305 207.303 465.364 207.41 469.416ZM215.355 545.205C216.55 551.669 222.748 555.937 229.198 554.739C235.648 553.541 239.907 547.331 238.712 540.868C238.008 537.062 237.352 533.245 236.744 529.418C235.712 522.926 229.624 518.502 223.146 519.536C216.668 520.57 212.253 526.671 213.285 533.162C213.925 537.188 214.615 541.203 215.355 545.205ZM235.094 618.837C237.292 625.03 244.084 628.265 250.264 626.062C256.445 623.86 259.673 617.054 257.475 610.86C256.18 607.213 254.932 603.548 253.729 599.866C251.689 593.619 244.981 590.212 238.746 592.257C232.512 594.301 229.112 601.023 231.153 607.27C232.418 611.143 233.732 614.999 235.094 618.837ZM266.17 688.412C269.314 694.181 276.53 696.304 282.287 693.154C288.044 690.003 290.163 682.772 287.019 677.003C285.171 673.613 283.366 670.199 281.604 666.763C278.606 660.916 271.446 658.612 265.611 661.616C259.777 664.62 257.477 671.795 260.475 677.642C262.328 681.256 264.227 684.846 266.17 688.412ZM307.782 752.261C311.789 757.466 319.247 758.431 324.441 754.416C329.635 750.401 330.598 742.927 326.591 737.723C324.232 734.658 321.912 731.564 319.63 728.442C315.755 723.138 308.323 721.987 303.031 725.87C297.738 729.753 296.589 737.2 300.464 742.504C302.862 745.787 305.302 749.04 307.782 752.261ZM358.743 808.729C363.509 813.246 371.027 813.035 375.534 808.26C380.041 803.484 379.831 795.951 375.065 791.434C372.262 788.779 369.493 786.088 366.757 783.363C362.105 778.728 354.585 778.75 349.96 783.412C345.336 788.074 345.358 795.609 350.01 800.244C352.885 803.109 355.797 805.937 358.743 808.729ZM417.956 856.632C423.367 860.347 430.759 858.964 434.467 853.542C438.176 848.12 436.795 840.712 431.384 836.996C428.201 834.81 425.044 832.584 421.916 830.318C416.6 826.467 409.175 827.664 405.332 832.991C401.489 838.318 402.684 845.759 408 849.609C411.289 851.992 414.608 854.333 417.956 856.632ZM484.009 894.705C489.936 897.523 497.02 894.993 499.832 889.054C502.644 883.116 500.119 876.017 494.192 873.199C490.705 871.541 487.239 869.839 483.795 868.094C477.942 865.127 470.797 867.477 467.836 873.343C464.875 879.208 467.22 886.368 473.074 889.335C476.696 891.171 480.341 892.961 484.009 894.705ZM555.035 921.814C561.33 923.661 567.928 920.044 569.77 913.735C571.613 907.427 568.004 900.816 561.708 898.969C558.004 897.883 554.316 896.75 550.643 895.57C544.396 893.565 537.709 897.013 535.708 903.273C533.706 909.532 537.147 916.233 543.394 918.239C547.258 919.479 551.138 920.672 555.035 921.814ZM629.301 937.351C635.808 938.184 641.756 933.574 642.588 927.054C643.419 920.533 638.818 914.572 632.312 913.739C628.479 913.249 624.657 912.71 620.844 912.124C614.361 911.127 608.298 915.586 607.303 922.083C606.308 928.58 610.757 934.655 617.241 935.652C621.25 936.269 625.271 936.835 629.301 937.351ZM705.303 941.086C711.86 940.898 717.024 935.42 716.836 928.849C716.649 922.279 711.182 917.104 704.625 917.292C700.767 917.402 696.903 917.465 693.033 917.479C686.473 917.504 681.176 922.853 681.201 929.427C681.226 936 686.564 941.308 693.123 941.283C697.189 941.268 701.249 941.202 705.303 941.086ZM780.891 932.981C787.338 931.771 791.586 925.552 790.378 919.091C789.171 912.63 782.965 908.374 776.517 909.584C772.727 910.295 768.926 910.959 765.113 911.576C758.637 912.622 754.234 918.732 755.279 925.221C756.324 931.71 762.42 936.122 768.896 935.076C772.906 934.427 776.904 933.729 780.891 932.981ZM854.313 913.067C860.489 910.852 863.705 904.04 861.495 897.851C859.285 891.662 852.487 888.44 846.311 890.654C842.679 891.956 839.03 893.212 835.365 894.422C829.135 896.479 825.748 903.207 827.8 909.45C829.853 915.694 836.567 919.087 842.798 917.031C846.654 915.758 850.492 914.436 854.313 913.067ZM923.741 881.765C929.492 878.603 931.596 871.368 928.441 865.605C925.285 859.842 918.065 857.734 912.314 860.896C908.932 862.756 905.527 864.573 902.098 866.346C896.27 869.362 893.984 876.542 896.994 882.382C900.004 888.223 907.168 890.513 912.997 887.497C916.603 885.631 920.184 883.721 923.741 881.765ZM987.364 839.948C992.55 835.923 993.498 828.448 989.481 823.251C985.465 818.054 978.004 817.104 972.818 821.129C969.765 823.499 966.682 825.83 963.57 828.123C958.285 832.016 957.15 839.466 961.036 844.762C964.921 850.058 972.355 851.195 977.641 847.302C980.912 844.891 984.154 842.44 987.364 839.948ZM1043.59 788.796C1048.09 784.011 1047.87 776.479 1043.09 771.971C1038.32 767.464 1030.8 767.688 1026.3 772.473C1023.65 775.29 1020.97 778.073 1018.25 780.823C1013.64 785.493 1013.67 793.029 1018.33 797.655C1022.99 802.28 1030.51 802.244 1035.13 797.574C1037.99 794.683 1040.81 791.757 1043.59 788.796ZM1091.3 729.346C1095 723.916 1093.6 716.511 1088.19 712.806C1082.77 709.101 1075.38 710.498 1071.68 715.928C1069.51 719.122 1067.29 722.288 1065.04 725.427C1061.2 730.761 1062.41 738.199 1067.74 742.039C1073.06 745.88 1080.48 744.668 1084.31 739.333C1086.69 736.033 1089.01 732.704 1091.3 729.346ZM1129.17 663.07C1131.97 657.125 1129.43 650.032 1123.5 647.226C1117.57 644.42 1110.49 646.965 1107.69 652.909C1106.04 656.407 1104.35 659.884 1102.61 663.339C1099.67 669.211 1102.03 676.366 1107.88 679.321C1113.74 682.276 1120.88 679.912 1123.83 674.041C1125.66 670.407 1127.44 666.749 1129.17 663.07ZM1156.07 591.872C1157.91 585.56 1154.28 578.956 1147.98 577.121C1141.68 575.287 1135.09 578.917 1133.26 585.229C1132.19 588.945 1131.06 592.645 1129.89 596.329C1127.9 602.593 1131.36 609.286 1137.61 611.28C1143.86 613.274 1150.54 609.813 1152.53 603.549C1153.76 599.673 1154.94 595.781 1156.07 591.872ZM1171.44 517.412C1172.26 510.89 1167.64 504.938 1161.13 504.117C1154.63 503.297 1148.69 507.919 1147.87 514.441C1147.39 518.281 1146.86 522.112 1146.28 525.932C1145.3 532.431 1149.76 538.497 1156.24 539.482C1162.73 540.466 1168.78 535.995 1169.77 529.496C1170.37 525.478 1170.93 521.45 1171.44 517.412ZM1175.02 441.283C1174.82 434.713 1169.34 429.549 1162.78 429.748C1156.23 429.948 1151.07 435.436 1151.27 442.006C1151.39 445.866 1151.46 449.732 1151.48 453.604C1151.52 460.177 1156.87 465.475 1163.43 465.438C1169.99 465.4 1175.27 460.041 1175.24 453.468C1175.21 449.4 1175.14 445.338 1175.02 441.283ZM1166.78 365.494C1165.56 359.036 1159.34 354.792 1152.9 356.015C1146.45 357.238 1142.22 363.466 1143.44 369.924C1144.16 373.727 1144.83 377.542 1145.45 381.368C1146.51 387.855 1152.61 392.255 1159.09 391.196C1165.56 390.136 1169.95 384.019 1168.89 377.531C1168.24 373.507 1167.53 369.495 1166.78 365.494ZM1146.76 291.986C1144.54 285.801 1137.74 282.592 1131.57 284.819C1125.39 287.045 1122.19 293.864 1124.41 300.049C1125.72 303.69 1126.98 307.349 1128.2 311.024C1130.26 317.263 1136.99 320.644 1143.21 318.575C1149.44 316.506 1152.81 309.772 1150.75 303.532C1149.47 299.666 1148.14 295.817 1146.76 291.986ZM1115.4 222.493C1112.23 216.736 1105.01 214.642 1099.26 217.815C1093.52 220.988 1091.43 228.227 1094.6 233.983C1096.46 237.371 1098.28 240.783 1100.06 244.218C1103.08 250.053 1110.25 252.329 1116.07 249.302C1121.89 246.275 1124.17 239.092 1121.14 233.257C1119.27 229.644 1117.36 226.056 1115.4 222.493ZM1073.58 158.865C1069.56 153.675 1062.1 152.739 1056.92 156.773C1051.74 160.807 1050.8 168.285 1054.83 173.475C1057.2 176.531 1059.53 179.617 1061.83 182.732C1065.72 188.021 1073.16 189.144 1078.44 185.242C1083.71 181.339 1084.84 173.887 1080.94 168.598C1078.53 165.323 1076.08 162.078 1073.58 158.865ZM1022.38 102.558C1017.6 98.0603 1010.08 98.2995 1005.59 103.093C1001.1 107.886 1001.34 115.418 1006.12 119.916C1008.94 122.562 1011.72 125.244 1014.47 127.96C1019.14 132.576 1026.66 132.526 1031.26 127.846C1035.87 123.167 1035.82 115.631 1031.15 111.015C1028.26 108.16 1025.34 105.34 1022.38 102.558ZM962.953 54.8628C957.527 51.1683 950.14 52.5805 946.453 58.0172C942.766 63.4539 944.176 70.8563 949.601 74.5508C952.792 76.7236 955.956 78.9365 959.091 81.1888C964.423 85.0186 971.843 83.7923 975.664 78.45C979.486 73.1077 978.263 65.6722 972.931 61.8425C969.634 59.4742 966.308 57.1475 962.953 54.8628ZM896.779 17.064C890.842 14.2694 883.768 16.8269 880.979 22.7765C878.19 28.7261 880.742 35.8146 886.68 38.6093C890.171 40.2527 893.642 41.9402 897.09 43.6712C902.955 46.6151 910.092 44.2373 913.029 38.3602C915.967 32.4831 913.594 25.3322 907.729 22.3883C904.102 20.5676 900.452 18.7927 896.779 17.064ZM825.66 -9.76495C819.357 -11.5871 812.773 -7.9444 810.955 -1.62878C809.137 4.68684 812.772 11.2838 819.075 13.106C822.783 14.1782 826.477 15.2971 830.154 16.4623C836.409 18.444 843.082 14.9697 845.06 8.70235C847.038 2.43496 843.57 -4.25225 837.316 -6.23394C833.447 -7.45979 829.561 -8.63692 825.66 -9.76495ZM751.298 -25.0185C744.788 -25.826 738.857 -21.1924 738.051 -14.6689C737.245 -8.14551 741.869 -2.20256 748.379 -1.395C752.213 -0.919437 756.037 -0.396021 759.851 0.175045C766.339 1.14649 772.384 -3.33613 773.353 -9.83718C774.323 -16.3382 769.849 -22.3959 763.362 -23.3673C759.351 -23.9679 755.329 -24.5184 751.298 -25.0185Z"></path><path style="fill:var(--color-illustrationPalette070)" d="M325.5 480.5C315.1 505.3 310.5 531.833 309.5 542L330 549.5L357.5 496L325.5 480.5Z"></path><path style="fill:var(--color-illustrationPalette010)" fill-rule="evenodd" clip-rule="evenodd" d="M345.857 461.802C327.442 469.217 318.525 490.156 325.94 508.571C333.355 526.986 354.294 535.903 372.709 528.489C415.558 511.235 494.107 472.481 588.965 412.702C668.816 550.334 717.864 736.797 732.657 816.354C736.286 835.871 755.05 848.751 774.567 845.122C794.084 841.493 806.964 822.729 803.335 803.211C793.966 752.825 771.484 660.756 735.984 563.021L736.152 563.156C736.53 552.15 743.065 532.791 766.18 543.399L766.179 543.252C841.867 614.508 917.494 671.57 960.048 700.108C976.535 711.165 998.864 706.762 1009.92 690.275C1020.98 673.788 1016.58 651.458 1000.09 640.401C932.75 595.243 780.462 476.03 685.707 347.946C744.237 306.417 805.979 258.2 867.415 203.38C882.228 190.163 883.521 167.441 870.304 152.629C857.087 137.816 834.365 136.523 819.552 149.74C620.755 327.127 419.348 432.211 345.857 461.802Z"></path><path style="fill:var(--color-illustrationPalette020)" d="M363.5 503.5C337.1 500.7 340.5 474.333 345.5 461.5C320.7 471.1 320.834 493.5 324 503.5C329.6 532.7 357.334 533.333 370.5 530C402.5 517.5 417.5 509.5 448 494C472.4 481.6 552.5 435.167 589.5 413.5C603.5 436.7 633.667 500.833 647 530C686.2 630.4 711.667 724.833 719.5 759.5L755 770C737.8 688.4 694.5 569.333 675 520C657.4 468.8 620 408.333 603.5 384.5C599.9 379.3 591 382.333 587 384.5L411.5 487.5C382.7 503.9 367.5 505 363.5 503.5Z"></path><path style="fill:var(--color-illustrationPalette020)" d="M680.5 336.5C681.5 341 683.5 344.5 685.5 348C692.3 344.8 728.833 317.333 746 304C833.6 236.8 867.666 204.833 873.5 197C885.5 181 878.333 164 874 157.5C874.333 159 875.8 163.1 875 169.5C874 177.5 859 188.5 847.5 198C838.3 205.6 736 284.833 686 323.5C683 326.667 679.641 332.634 680.5 336.5Z"></path><path style="fill:var(--color-illustrationPalette020)" d="M773.5 536.501C759 534.999 751.333 540.334 749 541.001C755 541.001 759.5 540 766.5 544.501C773.3 551.301 822.667 594.001 846.5 614.501C884.9 647.301 935.167 683.501 955.5 697.501C955.5 697.501 968.048 708.472 985 706.501C1006.5 704.001 1016.5 685.499 1016.5 667.499C1003.5 691.999 975.5 681.001 970.5 678.501C965.5 676.001 933.5 650.999 926.5 646.999C926.5 644.498 792 547.001 787.5 544.501C783 542.001 777.976 536.964 773.5 536.501Z"></path></g><defs><clipPath id="nk-694"><rect style="fill:var(--color-white)" width="1345" height="759"></rect></clipPath></defs></svg>