<svg id="guides-engineering-overview-adaptive" style="width: 100%; height: 100%" width="1345" height="759" viewBox="0 0 1345 759" fill="none" xmlns="http://www.w3.org/2000/svg" class="css-0"><g clip-path="url(#nk-123)"><rect style="fill:var(--color-illustrationPalette050)" width="1345" height="759"></rect><path style="fill:var(--color-illustrationPalette040)" fill-rule="evenodd" clip-rule="evenodd" d="M549.962 828.095C135.057 766.074 34.5574 537.329 31.6147 532.075C-54.3609 378.557 -97.0886 163.577 -64.9302 -31.5252C-32.7718 -226.627 154.051 -415.384 323.478 -446.34C492.905 -477.296 563.718 -402.349 845.246 -363.154C1126.77 -323.96 1297.01 -468.358 1390.54 -310.563C1484.07 -152.769 1323.45 300.735 1276.39 492.859C1230.5 680.18 964.867 890.115 549.962 828.095Z"></path><path style="fill:var(--color-illustrationPalette030)" fill-rule="evenodd" clip-rule="evenodd" d="M-989.964 695.461C-916.054 1161.12 -658.586 1272.2 -652.665 1275.47C-479.674 1370.83 -101.296 1548.08 168.285 1455.39C437.866 1362.71 801.109 1071.45 523.537 791.718C93.2626 607.28 231.391 169.091 37.1699 -27.5082C-157.051 -224.108 -377.317 -237.338 -621.878 -123.369C-866.438 -9.40003 -1063.87 229.805 -989.964 695.461Z"></path><path style="fill:var(--color-illustrationPalette070)" d="M1242.87 717.344C1213.28 726.816 1181.27 725.259 1152.74 712.961L779.344 552.006C757.596 542.632 747.567 517.401 756.944 495.655L928.907 96.8493C945.171 59.1304 989.81 42.8544 1026.54 61.2527L1120.3 108.224C1130.64 113.407 1135.01 125.867 1130.16 136.375L1044.57 321.844C1041.89 327.657 1047.61 333.794 1053.6 331.517L1435.71 186.144C1471.98 172.347 1512.63 190.01 1527.28 225.936L1560.39 307.058C1564.87 318.058 1559.56 330.611 1548.54 335.046L1108.09 512.266C1103.29 514.196 1102.07 520.422 1105.78 524.023L1263.87 677.51C1275.49 688.787 1270.89 708.374 1255.47 713.31L1242.87 717.344Z"></path><path style="fill:var(--color-illustrationPalette020)" d="M1295.29 674.331C1290.57 685.189 1277.94 690.164 1267.08 685.442L846.167 502.415C835.309 497.694 830.335 485.064 835.056 474.206L1017.54 54.5521C1022.26 43.6941 1034.89 38.7194 1045.75 43.4409L1144.5 86.3806C1155.35 91.102 1160.33 103.732 1155.61 114.59L1075.68 298.404C1073.16 304.19 1078.83 310.159 1084.74 307.945L1505.55 150.23C1516.51 146.12 1528.75 151.57 1533.03 162.47L1570 256.631C1574.3 267.587 1568.96 279.961 1558.04 284.355L1139.24 452.864C1133.36 455.232 1133.24 463.519 1139.06 466.047L1326.95 547.75C1337.81 552.472 1342.79 565.101 1338.06 575.959L1295.29 674.331Z"></path><mask id="nk-122" mask-type="alpha" maskUnits="userSpaceOnUse" x="833" y="41" width="739" height="647"><path style="fill:var(--color-illustrationPalette020)" d="M1295.29 674.331C1290.57 685.189 1277.94 690.164 1267.08 685.442L846.167 502.415C835.309 497.694 830.335 485.064 835.056 474.206L1017.54 54.5521C1022.26 43.6941 1034.89 38.7194 1045.75 43.4409L1144.5 86.3806C1155.35 91.102 1160.33 103.732 1155.61 114.59L1075.68 298.404C1073.16 304.19 1078.83 310.159 1084.74 307.945L1505.55 150.23C1516.51 146.12 1528.75 151.57 1533.03 162.47L1570 256.631C1574.3 267.587 1568.96 279.961 1558.04 284.355L1139.24 452.864C1133.36 455.232 1133.24 463.519 1139.06 466.047L1326.95 547.75C1337.81 552.472 1342.79 565.101 1338.06 575.959L1295.29 674.331Z"></path></mask><g mask="url(#nk-122)"><path style="fill:var(--color-illustrationPalette010)" d="M1309.25 680.906C1304.49 691.689 1291.91 696.602 1281.09 691.901L859.882 508.786C849.011 504.06 844.039 491.409 848.783 480.545L1023.4 80.7044C1028.08 69.9972 1040.47 65.006 1051.26 69.481L1136.66 104.889C1147.76 109.492 1152.91 122.322 1148.07 133.324L1061.04 331.178C1058.49 336.978 1064.19 342.983 1070.12 340.737L1486.36 182.94C1497.39 178.76 1509.72 184.27 1513.97 195.272L1541.64 267.03C1545.85 277.94 1540.54 290.208 1529.7 294.608L1108.24 465.777C1102.35 468.169 1102.28 476.487 1108.13 478.974L1332.56 574.37C1343.56 579.049 1348.61 591.827 1343.78 602.766L1309.25 680.906Z"></path><path style="fill:var(--color-illustrationPalette070)" d="M1306.6 681.091C1301.91 691.891 1289.38 696.881 1278.54 692.266L809.031 492.307C798.103 487.652 793.042 475.001 797.745 464.094L970.595 63.232C986.859 25.5131 1031.5 9.23703 1068.22 27.6353L1155.76 71.4902C1166.11 76.6737 1170.48 89.1333 1165.63 99.6409L1083.55 277.499C1080.86 283.313 1086.59 289.449 1092.58 287.173L1458.66 147.896C1494.93 134.099 1535.58 151.763 1550.24 187.689L1581 263.084C1585.49 274.085 1580.18 286.638 1569.16 291.073L1150.62 459.476C1144.74 461.844 1144.62 470.131 1150.44 472.659L1338.33 554.362C1349.19 559.084 1354.16 571.713 1349.44 582.571L1306.6 681.091Z"></path><path style="fill:var(--color-illustrationPalette020)" d="M1295.29 674.296C1290.57 685.154 1277.94 690.129 1267.08 685.407L846.167 502.38C835.309 497.659 830.335 485.029 835.056 474.171L1017.54 54.517C1022.26 43.6591 1034.89 38.6844 1045.75 43.4058L1144.5 86.3456C1155.35 91.067 1160.33 103.697 1155.61 114.555L1075.68 298.369C1073.16 304.155 1078.83 310.124 1084.74 307.91L1505.55 150.195C1516.51 146.085 1528.75 151.535 1533.03 162.435L1570 256.596C1574.3 267.552 1568.96 279.926 1558.04 284.32L1139.24 452.829C1133.36 455.197 1133.24 463.484 1139.06 466.012L1326.95 547.715C1337.81 552.437 1342.79 565.066 1338.06 575.924L1295.29 674.296Z"></path><path style="fill:var(--color-illustrationPalette010)" d="M1327.26 647.384C1323.06 659.019 1309.91 664.692 1298.56 659.765L879.78 477.905C868.935 473.195 863.95 460.596 868.637 449.742L1036 62.1374C1040.68 51.3142 1053.21 46.2953 1064.07 50.9029L1151.94 88.2156C1162.87 92.8574 1167.95 105.502 1163.26 116.414L1088.15 291.167C1085.66 296.981 1091.39 302.934 1097.29 300.655L1509.06 141.738C1520.02 137.51 1532.33 142.882 1536.69 153.787L1570.44 238.304C1574.84 249.315 1569.47 261.804 1558.45 266.18L1114.96 442.305C1109.02 444.662 1108.92 453.026 1114.8 455.524L1340.39 551.417C1350.87 555.868 1356.04 567.727 1352.17 578.43L1327.26 647.384Z"></path></g><path style="fill:var(--color-illustrationPalette070)" d="M32.823 2.4711C43.3664 -24.8887 73.4854 -39.2039 101.358 -30.103L780.12 191.524C794.594 196.25 802.492 211.819 797.757 226.291L588.779 864.902C572.827 913.648 520.048 939.888 471.555 923.182L298.261 863.477C283.746 858.476 276.116 842.578 281.295 828.126L393.355 515.449C396.188 507.545 387.804 500.296 380.392 504.241L-120.953 771.068C-167.945 796.078 -226.29 776.034 -247.99 727.424L-306.11 597.226C-312.083 583.845 -306.54 568.129 -293.493 561.457L183.36 317.597C190.622 313.883 189.802 303.251 182.055 300.695L-24.8172 232.449C-39.7756 227.514 -47.5618 211.067 -41.8978 196.369L32.823 2.4711Z"></path><path style="fill:var(--color-illustrationPalette020)" d="M122.363 32.7931C132.172 4.11896 163.29 -11.257 192.025 -1.62702L785.824 197.376C800.297 202.226 808.07 217.916 803.161 232.369L598.018 836.292C593.188 850.511 577.863 858.245 563.555 853.685L403.206 802.573C388.53 797.895 380.538 782.094 385.467 767.5L476.502 497.929C479.1 490.234 471.168 483.2 463.84 486.701L-81.264 747.086C-94.9372 753.617 -111.318 747.883 -117.934 734.251L-181.006 604.283C-187.563 590.773 -182.095 574.501 -168.711 567.691L385.071 285.921C392.319 282.233 391.553 271.64 383.85 269.033L103.257 174.073C88.8071 169.183 81.0793 153.484 86.0165 139.051L122.363 32.7931Z"></path><path style="fill:var(--color-illustrationPalette010)" d="M142.268 -27.0502C147.21 -41.3764 162.794 -49.023 177.149 -44.1665L796.336 165.305C810.77 170.188 818.502 185.858 813.594 200.284L613.544 788.373C608.708 802.591 593.376 810.319 579.07 805.749L449.62 764.4C434.903 759.699 426.926 743.819 431.94 729.206L532.542 435.995C535.186 428.29 527.237 421.212 519.889 424.727L-51.2573 697.969C-64.9309 704.511 -81.3206 698.782 -87.9405 685.146L-137.682 582.687C-144.246 569.167 -138.766 552.88 -125.364 546.078L451.481 253.315C458.77 249.616 457.96 238.955 450.197 236.399L118.604 127.227C104.003 122.42 96.1577 106.596 101.171 92.0644L142.268 -27.0502Z"></path></g><defs><clipPath id="nk-123"><rect style="fill:var(--color-white)" width="1345" height="759"></rect></clipPath></defs></svg>