<svg id="components-button-hero" style="width: 100%; height: 100%" width="1490" height="838" viewBox="0 0 1490 838" fill="none" xmlns="http://www.w3.org/2000/svg" class="css-0"><rect style="fill:var(--color-illustrationBackground020)" width="1490" height="838"></rect><g clip-path="url(#nk-138)"><path style="fill:var(--color-illustrationPalette070)" d="M888.851 547.023H603.904C580.07 547.023 560.749 566.344 560.749 590.179C560.749 614.013 580.07 633.334 603.904 633.334H888.851C912.686 633.334 932.007 614.013 932.007 590.179C932.007 566.344 912.686 547.023 888.851 547.023Z"></path><path style="fill:var(--color-illustrationPalette030)" d="M887.39 204.717H603.904C580.07 204.717 560.749 224.039 560.749 247.873C560.749 271.707 580.07 291.029 603.904 291.029H887.39C911.224 291.029 930.545 271.707 930.545 247.873C930.545 224.039 911.224 204.717 887.39 204.717Z"></path><path style="fill:var(--color-illustrationPalette030)" fill-rule="evenodd" clip-rule="evenodd" d="M887.39 205.885H603.904C580.715 205.885 561.917 224.684 561.917 247.873C561.917 271.062 580.715 289.861 603.904 289.861H887.39C910.579 289.861 929.377 271.062 929.377 247.873C929.377 224.684 910.579 205.885 887.39 205.885ZM603.904 204.717H887.39C911.224 204.717 930.545 224.039 930.545 247.873C930.545 271.707 911.224 291.029 887.39 291.029H603.904C580.07 291.029 560.749 271.707 560.749 247.873C560.749 224.039 580.07 204.717 603.904 204.717Z"></path><path style="fill:var(--color-illustrationPalette040)" d="M384 418.302C384 371.534 421.913 333.621 468.681 333.621H1022.32C1069.09 333.621 1107 371.534 1107 418.302V418.302C1107 465.07 1069.09 502.983 1022.32 502.983H468.681C421.913 502.983 384 465.07 384 418.302V418.302Z"></path><path style="fill:var(--color-illustrationPalette040)" fill-rule="evenodd" clip-rule="evenodd" d="M1022.32 334.789H468.681C422.558 334.789 385.168 372.179 385.168 418.302C385.168 464.425 422.558 501.815 468.681 501.815H1022.32C1068.44 501.815 1105.83 464.425 1105.83 418.302C1105.83 372.179 1068.44 334.789 1022.32 334.789ZM468.681 333.621C421.913 333.621 384 371.534 384 418.302C384 465.07 421.913 502.983 468.681 502.983H1022.32C1069.09 502.983 1107 465.07 1107 418.302C1107 371.534 1069.09 333.621 1022.32 333.621H468.681Z"></path></g><defs><clipPath id="nk-138"><rect style="fill:var(--color-white)" width="723" height="429.829" transform="translate(384 204.086)"></rect></clipPath></defs></svg>