<svg
  id="nksvg"
  style="width: 100%; height: 100%"
  width="1490"
  height="838"
  viewBox="0 0 1490 838"
  fill="none"
  xmlns="http://www.w3.org/2000/svg"
  class="css-0"
>
  <path
    style="fill: var(--color-illustrationInterface020)"
    d="M0 0H1490V838H0V0Z"
  ></path>
  <path
    style="fill: var(--color-illustrationInterface010)"
    d="M458 119.165C458 114.656 461.656 111 466.165 111H1019.84C1024.34 111 1028 114.656 1028 119.165V163.835C1028 168.344 1024.34 172 1019.84 172H466.165C461.656 172 458 168.344 458 163.835V119.165Z"
  ></path>
  <path
    style="fill: var(--color-illustrationInterface060)"
    d="M464.758 187.882C464.758 188.711 464.472 189.401 463.901 189.954C463.339 190.497 462.477 190.768 461.315 190.768H459.4V194.926H458.1V184.967H461.315C462.439 184.967 463.291 185.239 463.872 185.782C464.463 186.325 464.758 187.025 464.758 187.882ZM461.315 189.697C462.038 189.697 462.572 189.539 462.915 189.225C463.258 188.911 463.429 188.463 463.429 187.882C463.429 186.653 462.724 186.039 461.315 186.039H459.4V189.697H461.315Z"
  ></path>
  <path
    style="fill: var(--color-illustrationInterface060)"
    d="M467.674 184.353V194.926H466.374V184.353H467.674Z"
  ></path>
  <path
    style="fill: var(--color-illustrationInterface060)"
    d="M477.035 190.711C477.035 190.959 477.02 191.221 476.992 191.497H470.733C470.781 192.269 471.043 192.873 471.519 193.312C472.005 193.74 472.591 193.955 473.277 193.955C473.839 193.955 474.306 193.826 474.677 193.569C475.058 193.302 475.325 192.95 475.477 192.511H476.878C476.668 193.264 476.249 193.878 475.62 194.355C474.991 194.821 474.21 195.055 473.277 195.055C472.534 195.055 471.867 194.888 471.276 194.555C470.695 194.221 470.238 193.75 469.905 193.14C469.571 192.521 469.405 191.807 469.405 190.997C469.405 190.187 469.567 189.478 469.89 188.868C470.214 188.258 470.667 187.791 471.248 187.468C471.838 187.134 472.515 186.967 473.277 186.967C474.02 186.967 474.677 187.129 475.249 187.453C475.82 187.777 476.258 188.225 476.563 188.796C476.878 189.358 477.035 189.997 477.035 190.711ZM475.692 190.44C475.692 189.944 475.582 189.52 475.363 189.168C475.144 188.806 474.844 188.534 474.463 188.353C474.091 188.163 473.677 188.068 473.22 188.068C472.562 188.068 472 188.277 471.534 188.696C471.076 189.116 470.814 189.697 470.748 190.44H475.692Z"
  ></path>
  <path
    style="fill: var(--color-illustrationInterface060)"
    d="M478.265 190.983C478.265 190.182 478.427 189.482 478.751 188.882C479.075 188.273 479.518 187.801 480.08 187.468C480.651 187.134 481.285 186.967 481.98 186.967C482.666 186.967 483.261 187.115 483.766 187.41C484.271 187.706 484.647 188.077 484.895 188.525V187.096H486.21V194.926H484.895V193.469C484.638 193.926 484.252 194.307 483.738 194.612C483.233 194.907 482.642 195.055 481.966 195.055C481.271 195.055 480.642 194.883 480.08 194.54C479.518 194.198 479.075 193.716 478.751 193.097C478.427 192.478 478.265 191.773 478.265 190.983ZM484.895 190.997C484.895 190.406 484.776 189.892 484.538 189.454C484.3 189.016 483.976 188.682 483.566 188.454C483.166 188.215 482.723 188.096 482.237 188.096C481.752 188.096 481.309 188.211 480.909 188.439C480.509 188.668 480.189 189.001 479.951 189.439C479.713 189.878 479.594 190.392 479.594 190.983C479.594 191.583 479.713 192.107 479.951 192.554C480.189 192.993 480.509 193.331 480.909 193.569C481.309 193.797 481.752 193.912 482.237 193.912C482.723 193.912 483.166 193.797 483.566 193.569C483.976 193.331 484.3 192.993 484.538 192.554C484.776 192.107 484.895 191.587 484.895 190.997Z"
  ></path>
  <path
    style="fill: var(--color-illustrationInterface060)"
    d="M491.179 195.055C490.579 195.055 490.041 194.955 489.564 194.755C489.088 194.545 488.712 194.259 488.436 193.897C488.159 193.526 488.007 193.102 487.978 192.626H489.321C489.36 193.016 489.541 193.335 489.864 193.583C490.198 193.831 490.631 193.955 491.165 193.955C491.66 193.955 492.051 193.845 492.336 193.626C492.622 193.407 492.765 193.131 492.765 192.797C492.765 192.454 492.613 192.202 492.308 192.04C492.003 191.868 491.531 191.702 490.893 191.54C490.312 191.387 489.836 191.235 489.464 191.083C489.102 190.921 488.788 190.687 488.521 190.382C488.264 190.068 488.135 189.659 488.135 189.154C488.135 188.754 488.255 188.387 488.493 188.053C488.731 187.72 489.069 187.458 489.507 187.268C489.945 187.068 490.445 186.967 491.007 186.967C491.874 186.967 492.574 187.187 493.108 187.625C493.641 188.063 493.927 188.663 493.965 189.425H492.665C492.636 189.016 492.47 188.687 492.165 188.439C491.87 188.192 491.469 188.068 490.965 188.068C490.498 188.068 490.126 188.168 489.85 188.368C489.574 188.568 489.436 188.83 489.436 189.154C489.436 189.411 489.517 189.625 489.679 189.797C489.85 189.959 490.06 190.092 490.307 190.197C490.565 190.292 490.917 190.402 491.365 190.525C491.927 190.678 492.384 190.83 492.736 190.983C493.089 191.125 493.389 191.345 493.637 191.64C493.894 191.935 494.027 192.321 494.037 192.797C494.037 193.226 493.918 193.612 493.679 193.955C493.441 194.298 493.103 194.569 492.665 194.769C492.236 194.96 491.741 195.055 491.179 195.055Z"
  ></path>
  <path
    style="fill: var(--color-illustrationInterface060)"
    d="M503.016 190.711C503.016 190.959 503.002 191.221 502.974 191.497H496.715C496.763 192.269 497.025 192.873 497.501 193.312C497.987 193.74 498.573 193.955 499.259 193.955C499.821 193.955 500.287 193.826 500.659 193.569C501.04 193.302 501.307 192.95 501.459 192.511H502.859C502.65 193.264 502.231 193.878 501.602 194.355C500.973 194.821 500.192 195.055 499.259 195.055C498.516 195.055 497.849 194.888 497.258 194.555C496.677 194.221 496.22 193.75 495.886 193.14C495.553 192.521 495.386 191.807 495.386 190.997C495.386 190.187 495.548 189.478 495.872 188.868C496.196 188.258 496.649 187.791 497.23 187.468C497.82 187.134 498.497 186.967 499.259 186.967C500.002 186.967 500.659 187.129 501.23 187.453C501.802 187.777 502.24 188.225 502.545 188.796C502.859 189.358 503.016 189.997 503.016 190.711ZM501.673 190.44C501.673 189.944 501.564 189.52 501.345 189.168C501.126 188.806 500.826 188.534 500.445 188.353C500.073 188.163 499.659 188.068 499.201 188.068C498.544 188.068 497.982 188.277 497.515 188.696C497.058 189.116 496.796 189.697 496.729 190.44H501.673Z"
  ></path>
  <path
    style="fill: var(--color-illustrationInterface060)"
    d="M515.686 190.711C515.686 190.959 515.672 191.221 515.644 191.497H509.385C509.433 192.269 509.695 192.873 510.171 193.312C510.657 193.74 511.243 193.955 511.929 193.955C512.491 193.955 512.957 193.826 513.329 193.569C513.71 193.302 513.977 192.95 514.129 192.511H515.529C515.32 193.264 514.901 193.878 514.272 194.355C513.643 194.821 512.862 195.055 511.929 195.055C511.185 195.055 510.519 194.888 509.928 194.555C509.347 194.221 508.89 193.75 508.556 193.14C508.223 192.521 508.056 191.807 508.056 190.997C508.056 190.187 508.218 189.478 508.542 188.868C508.866 188.258 509.318 187.791 509.9 187.468C510.49 187.134 511.166 186.967 511.929 186.967C512.672 186.967 513.329 187.129 513.9 187.453C514.472 187.777 514.91 188.225 515.215 188.796C515.529 189.358 515.686 189.997 515.686 190.711ZM514.343 190.44C514.343 189.944 514.234 189.52 514.015 189.168C513.796 188.806 513.495 188.534 513.114 188.353C512.743 188.163 512.329 188.068 511.871 188.068C511.214 188.068 510.652 188.277 510.185 188.696C509.728 189.116 509.466 189.697 509.399 190.44H514.343Z"
  ></path>
  <path
    style="fill: var(--color-illustrationInterface060)"
    d="M521.218 186.953C522.17 186.953 522.942 187.244 523.532 187.825C524.123 188.396 524.418 189.225 524.418 190.311V194.926H523.132V190.497C523.132 189.716 522.937 189.12 522.547 188.711C522.156 188.292 521.623 188.082 520.946 188.082C520.26 188.082 519.713 188.296 519.303 188.725C518.903 189.154 518.703 189.778 518.703 190.597V194.926H517.403V187.096H518.703V188.211C518.96 187.811 519.308 187.501 519.746 187.282C520.194 187.063 520.684 186.953 521.218 186.953Z"
  ></path>
  <path
    style="fill: var(--color-illustrationInterface060)"
    d="M528.128 188.168V192.783C528.128 193.164 528.209 193.435 528.371 193.597C528.533 193.75 528.814 193.826 529.214 193.826H530.172V194.926H529C528.276 194.926 527.733 194.76 527.371 194.426C527.009 194.093 526.828 193.545 526.828 192.783V188.168H525.814V187.096H526.828V185.124H528.128V187.096H530.172V188.168H528.128Z"
  ></path>
  <path
    style="fill: var(--color-illustrationInterface060)"
    d="M538.891 190.711C538.891 190.959 538.877 191.221 538.848 191.497H532.59C532.638 192.269 532.9 192.873 533.376 193.312C533.862 193.74 534.448 193.955 535.133 193.955C535.695 193.955 536.162 193.826 536.534 193.569C536.915 193.302 537.181 192.95 537.334 192.511H538.734C538.525 193.264 538.105 193.878 537.477 194.355C536.848 194.821 536.067 195.055 535.133 195.055C534.39 195.055 533.724 194.888 533.133 194.555C532.552 194.221 532.095 193.75 531.761 193.14C531.428 192.521 531.261 191.807 531.261 190.997C531.261 190.187 531.423 189.478 531.747 188.868C532.071 188.258 532.523 187.791 533.104 187.468C533.695 187.134 534.371 186.967 535.133 186.967C535.876 186.967 536.534 187.129 537.105 187.453C537.677 187.777 538.115 188.225 538.42 188.796C538.734 189.358 538.891 189.997 538.891 190.711ZM537.548 190.44C537.548 189.944 537.439 189.52 537.22 189.168C537 188.806 536.7 188.534 536.319 188.353C535.948 188.163 535.534 188.068 535.076 188.068C534.419 188.068 533.857 188.277 533.39 188.696C532.933 189.116 532.671 189.697 532.604 190.44H537.548Z"
  ></path>
  <path
    style="fill: var(--color-illustrationInterface060)"
    d="M541.908 188.368C542.137 187.92 542.46 187.572 542.88 187.325C543.308 187.077 543.827 186.953 544.437 186.953V188.296H544.094C542.637 188.296 541.908 189.087 541.908 190.668V194.926H540.608V187.096H541.908V188.368Z"
  ></path>
  <path
    style="fill: var(--color-illustrationInterface060)"
    d="M549.261 190.983C549.261 190.182 549.423 189.482 549.747 188.882C550.071 188.273 550.514 187.801 551.076 187.468C551.648 187.134 552.281 186.967 552.977 186.967C553.662 186.967 554.258 187.115 554.763 187.41C555.267 187.706 555.644 188.077 555.891 188.525V187.096H557.206V194.926H555.891V193.469C555.634 193.926 555.248 194.307 554.734 194.612C554.229 194.907 553.639 195.055 552.962 195.055C552.267 195.055 551.638 194.883 551.076 194.54C550.514 194.198 550.071 193.716 549.747 193.097C549.423 192.478 549.261 191.773 549.261 190.983ZM555.891 190.997C555.891 190.406 555.772 189.892 555.534 189.454C555.296 189.016 554.972 188.682 554.563 188.454C554.162 188.215 553.72 188.096 553.234 188.096C552.748 188.096 552.305 188.211 551.905 188.439C551.505 188.668 551.186 189.001 550.948 189.439C550.709 189.878 550.59 190.392 550.59 190.983C550.59 191.583 550.709 192.107 550.948 192.554C551.186 192.993 551.505 193.331 551.905 193.569C552.305 193.797 552.748 193.912 553.234 193.912C553.72 193.912 554.162 193.797 554.563 193.569C554.972 193.331 555.296 192.993 555.534 192.554C555.772 192.107 555.891 191.587 555.891 190.997Z"
  ></path>
  <path
    style="fill: var(--color-illustrationInterface060)"
    d="M566.399 188.168H564.756V194.926H563.455V188.168H562.441V187.096H563.455V186.539C563.455 185.662 563.679 185.024 564.127 184.624C564.584 184.215 565.313 184.01 566.313 184.01V185.096C565.742 185.096 565.337 185.21 565.099 185.439C564.87 185.658 564.756 186.024 564.756 186.539V187.096H566.399V188.168Z"
  ></path>
  <path
    style="fill: var(--color-illustrationInterface060)"
    d="M568.587 185.824C568.339 185.824 568.129 185.739 567.958 185.567C567.786 185.396 567.701 185.186 567.701 184.939C567.701 184.691 567.786 184.481 567.958 184.31C568.129 184.138 568.339 184.053 568.587 184.053C568.825 184.053 569.025 184.138 569.187 184.31C569.358 184.481 569.444 184.691 569.444 184.939C569.444 185.186 569.358 185.396 569.187 185.567C569.025 185.739 568.825 185.824 568.587 185.824ZM569.215 187.096V194.926H567.915V187.096H569.215Z"
  ></path>
  <path
    style="fill: var(--color-illustrationInterface060)"
    d="M572.732 188.368C572.96 187.92 573.284 187.572 573.703 187.325C574.132 187.077 574.651 186.953 575.261 186.953V188.296H574.918C573.46 188.296 572.732 189.087 572.732 190.668V194.926H571.431V187.096H572.732V188.368Z"
  ></path>
  <path
    style="fill: var(--color-illustrationInterface060)"
    d="M579.534 195.055C578.933 195.055 578.395 194.955 577.919 194.755C577.443 194.545 577.066 194.259 576.79 193.897C576.514 193.526 576.362 193.102 576.333 192.626H577.676C577.714 193.016 577.895 193.335 578.219 193.583C578.552 193.831 578.986 193.955 579.519 193.955C580.015 193.955 580.405 193.845 580.691 193.626C580.977 193.407 581.12 193.131 581.12 192.797C581.12 192.454 580.967 192.202 580.662 192.04C580.358 191.868 579.886 191.702 579.248 191.54C578.667 191.387 578.19 191.235 577.819 191.083C577.457 190.921 577.143 190.687 576.876 190.382C576.619 190.068 576.49 189.659 576.49 189.154C576.49 188.754 576.609 188.387 576.847 188.053C577.085 187.72 577.424 187.458 577.862 187.268C578.3 187.068 578.8 186.967 579.362 186.967C580.229 186.967 580.929 187.187 581.463 187.625C581.996 188.063 582.282 188.663 582.32 189.425H581.02C580.991 189.016 580.824 188.687 580.519 188.439C580.224 188.192 579.824 188.068 579.319 188.068C578.852 188.068 578.481 188.168 578.205 188.368C577.928 188.568 577.79 188.83 577.79 189.154C577.79 189.411 577.871 189.625 578.033 189.797C578.205 189.959 578.414 190.092 578.662 190.197C578.919 190.292 579.272 190.402 579.719 190.525C580.281 190.678 580.739 190.83 581.091 190.983C581.443 191.125 581.744 191.345 581.991 191.64C582.248 191.935 582.382 192.321 582.391 192.797C582.391 193.226 582.272 193.612 582.034 193.955C581.796 194.298 581.458 194.569 581.02 194.769C580.591 194.96 580.096 195.055 579.534 195.055Z"
  ></path>
  <path
    style="fill: var(--color-illustrationInterface060)"
    d="M585.813 188.168V192.783C585.813 193.164 585.894 193.435 586.056 193.597C586.218 193.75 586.499 193.826 586.899 193.826H587.856V194.926H586.684C585.96 194.926 585.418 194.76 585.056 194.426C584.694 194.093 584.513 193.545 584.513 192.783V188.168H583.498V187.096H584.513V185.124H585.813V187.096H587.856V188.168H585.813Z"
  ></path>
  <path
    style="fill: var(--color-illustrationInterface060)"
    d="M594.541 184.353V194.926H593.241V184.353H594.541Z"
  ></path>
  <path
    style="fill: var(--color-illustrationInterface060)"
    d="M597.429 185.824C597.181 185.824 596.972 185.739 596.8 185.567C596.629 185.396 596.543 185.186 596.543 184.939C596.543 184.691 596.629 184.481 596.8 184.31C596.972 184.138 597.181 184.053 597.429 184.053C597.667 184.053 597.867 184.138 598.029 184.31C598.2 184.481 598.286 184.691 598.286 184.939C598.286 185.186 598.2 185.396 598.029 185.567C597.867 185.739 597.667 185.824 597.429 185.824ZM598.057 187.096V194.926H596.757V187.096H598.057Z"
  ></path>
  <path
    style="fill: var(--color-illustrationInterface060)"
    d="M604.089 186.953C605.041 186.953 605.813 187.244 606.403 187.825C606.994 188.396 607.289 189.225 607.289 190.311V194.926H606.003V190.497C606.003 189.716 605.808 189.12 605.417 188.711C605.027 188.292 604.493 188.082 603.817 188.082C603.131 188.082 602.584 188.296 602.174 188.725C601.774 189.154 601.574 189.778 601.574 190.597V194.926H600.274V187.096H601.574V188.211C601.831 187.811 602.179 187.501 602.617 187.282C603.065 187.063 603.555 186.953 604.089 186.953Z"
  ></path>
  <path
    style="fill: var(--color-illustrationInterface060)"
    d="M616.557 190.711C616.557 190.959 616.543 191.221 616.515 191.497H610.256C610.304 192.269 610.566 192.873 611.042 193.312C611.528 193.74 612.114 193.955 612.8 193.955C613.362 193.955 613.828 193.826 614.2 193.569C614.581 193.302 614.848 192.95 615 192.511H616.4C616.191 193.264 615.772 193.878 615.143 194.355C614.514 194.821 613.733 195.055 612.8 195.055C612.057 195.055 611.39 194.888 610.799 194.555C610.218 194.221 609.761 193.75 609.427 193.14C609.094 192.521 608.927 191.807 608.927 190.997C608.927 190.187 609.089 189.478 609.413 188.868C609.737 188.258 610.19 187.791 610.771 187.468C611.361 187.134 612.038 186.967 612.8 186.967C613.543 186.967 614.2 187.129 614.771 187.453C615.343 187.777 615.781 188.225 616.086 188.796C616.4 189.358 616.557 189.997 616.557 190.711ZM615.214 190.44C615.214 189.944 615.105 189.52 614.886 189.168C614.667 188.806 614.367 188.534 613.986 188.353C613.614 188.163 613.2 188.068 612.742 188.068C612.085 188.068 611.523 188.277 611.056 188.696C610.599 189.116 610.337 189.697 610.27 190.44H615.214Z"
  ></path>
  <path
    style="fill: var(--color-illustrationInterface060)"
    d="M625.498 195.055C624.765 195.055 624.098 194.888 623.498 194.555C622.907 194.221 622.44 193.75 622.097 193.14C621.764 192.521 621.597 191.807 621.597 190.997C621.597 190.197 621.769 189.492 622.112 188.882C622.464 188.263 622.94 187.791 623.541 187.468C624.141 187.134 624.812 186.967 625.555 186.967C626.298 186.967 626.97 187.134 627.57 187.468C628.17 187.791 628.642 188.258 628.984 188.868C629.337 189.478 629.513 190.187 629.513 190.997C629.513 191.807 629.332 192.521 628.97 193.14C628.618 193.75 628.137 194.221 627.527 194.555C626.917 194.888 626.241 195.055 625.498 195.055ZM625.498 193.912C625.965 193.912 626.403 193.802 626.813 193.583C627.222 193.364 627.551 193.035 627.799 192.597C628.056 192.159 628.184 191.626 628.184 190.997C628.184 190.368 628.06 189.835 627.813 189.397C627.565 188.958 627.241 188.634 626.841 188.425C626.441 188.206 626.008 188.096 625.541 188.096C625.065 188.096 624.626 188.206 624.226 188.425C623.836 188.634 623.521 188.958 623.283 189.397C623.045 189.835 622.926 190.368 622.926 190.997C622.926 191.635 623.04 192.173 623.269 192.611C623.507 193.05 623.822 193.378 624.212 193.597C624.603 193.807 625.031 193.912 625.498 193.912Z"
  ></path>
  <path
    style="fill: var(--color-illustrationInterface060)"
    d="M632.523 188.368C632.752 187.92 633.076 187.572 633.495 187.325C633.923 187.077 634.442 186.953 635.052 186.953V188.296H634.709C633.252 188.296 632.523 189.087 632.523 190.668V194.926H631.223V187.096H632.523V188.368Z"
  ></path>
  <path
    style="fill: var(--color-illustrationInterface060)"
    d="M647.107 187.096L642.391 198.613H641.048L642.591 194.84L639.434 187.096H640.877L643.334 193.44L645.763 187.096H647.107Z"
  ></path>
  <path
    style="fill: var(--color-illustrationInterface060)"
    d="M665.874 187.096V194.926H664.574V193.769C664.326 194.169 663.979 194.483 663.531 194.712C663.093 194.931 662.607 195.041 662.073 195.041C661.464 195.041 660.916 194.917 660.43 194.669C659.944 194.412 659.559 194.031 659.273 193.526C658.997 193.021 658.859 192.407 658.859 191.683V187.096H660.145V191.511C660.145 192.283 660.34 192.878 660.73 193.297C661.121 193.707 661.654 193.912 662.331 193.912C663.026 193.912 663.574 193.697 663.974 193.269C664.374 192.84 664.574 192.216 664.574 191.397V187.096H665.874Z"
  ></path>
  <path
    style="fill: var(--color-illustrationInterface060)"
    d="M669.37 188.368C669.599 187.92 669.922 187.572 670.342 187.325C670.77 187.077 671.289 186.953 671.899 186.953V188.296H671.556C670.099 188.296 669.37 189.087 669.37 190.668V194.926H668.07V187.096H669.37V188.368Z"
  ></path>
  <path
    style="fill: var(--color-illustrationInterface060)"
    d="M676.723 190.983C676.723 190.182 676.885 189.482 677.209 188.882C677.533 188.273 677.976 187.801 678.538 187.468C679.11 187.134 679.743 186.967 680.439 186.967C681.124 186.967 681.72 187.115 682.225 187.41C682.729 187.706 683.106 188.077 683.353 188.525V187.096H684.668V194.926H683.353V193.469C683.096 193.926 682.71 194.307 682.196 194.612C681.691 194.907 681.101 195.055 680.424 195.055C679.729 195.055 679.1 194.883 678.538 194.54C677.976 194.198 677.533 193.716 677.209 193.097C676.885 192.478 676.723 191.773 676.723 190.983ZM683.353 190.997C683.353 190.406 683.234 189.892 682.996 189.454C682.758 189.016 682.434 188.682 682.025 188.454C681.624 188.215 681.182 188.096 680.696 188.096C680.21 188.096 679.767 188.211 679.367 188.439C678.967 188.668 678.648 189.001 678.41 189.439C678.171 189.878 678.052 190.392 678.052 190.983C678.052 191.583 678.171 192.107 678.41 192.554C678.648 192.993 678.967 193.331 679.367 193.569C679.767 193.797 680.21 193.912 680.696 193.912C681.182 193.912 681.624 193.797 682.025 193.569C682.434 193.331 682.758 192.993 682.996 192.554C683.234 192.107 683.353 191.587 683.353 190.997Z"
  ></path>
  <path
    style="fill: var(--color-illustrationInterface060)"
    d="M686.379 190.983C686.379 190.182 686.541 189.482 686.865 188.882C687.189 188.273 687.632 187.801 688.194 187.468C688.766 187.134 689.404 186.967 690.109 186.967C690.718 186.967 691.285 187.11 691.809 187.396C692.333 187.672 692.733 188.039 693.009 188.496V184.353H694.324V194.926H693.009V193.455C692.752 193.921 692.371 194.307 691.866 194.612C691.361 194.907 690.771 195.055 690.094 195.055C689.399 195.055 688.766 194.883 688.194 194.54C687.632 194.198 687.189 193.716 686.865 193.097C686.541 192.478 686.379 191.773 686.379 190.983ZM693.009 190.997C693.009 190.406 692.89 189.892 692.652 189.454C692.414 189.016 692.09 188.682 691.68 188.454C691.28 188.215 690.837 188.096 690.352 188.096C689.866 188.096 689.423 188.211 689.023 188.439C688.623 188.668 688.304 189.001 688.065 189.439C687.827 189.878 687.708 190.392 687.708 190.983C687.708 191.583 687.827 192.107 688.065 192.554C688.304 192.993 688.623 193.331 689.023 193.569C689.423 193.797 689.866 193.912 690.352 193.912C690.837 193.912 691.28 193.797 691.68 193.569C692.09 193.331 692.414 192.993 692.652 192.554C692.89 192.107 693.009 191.587 693.009 190.997Z"
  ></path>
  <path
    style="fill: var(--color-illustrationInterface060)"
    d="M707.821 188.368C708.05 187.92 708.374 187.572 708.793 187.325C709.222 187.077 709.741 186.953 710.351 186.953V188.296H710.008C708.55 188.296 707.821 189.087 707.821 190.668V194.926H706.521V187.096H707.821V188.368Z"
  ></path>
  <path
    style="fill: var(--color-illustrationInterface060)"
    d="M718.996 190.711C718.996 190.959 718.981 191.221 718.953 191.497H712.694C712.742 192.269 713.004 192.873 713.48 193.312C713.966 193.74 714.552 193.955 715.238 193.955C715.8 193.955 716.267 193.826 716.638 193.569C717.019 193.302 717.286 192.95 717.438 192.511H718.839C718.629 193.264 718.21 193.878 717.581 194.355C716.952 194.821 716.171 195.055 715.238 195.055C714.495 195.055 713.828 194.888 713.237 194.555C712.656 194.221 712.199 193.75 711.866 193.14C711.532 192.521 711.366 191.807 711.366 190.997C711.366 190.187 711.528 189.478 711.851 188.868C712.175 188.258 712.628 187.791 713.209 187.468C713.799 187.134 714.476 186.967 715.238 186.967C715.981 186.967 716.638 187.129 717.21 187.453C717.781 187.777 718.219 188.225 718.524 188.796C718.839 189.358 718.996 189.997 718.996 190.711ZM717.653 190.44C717.653 189.944 717.543 189.52 717.324 189.168C717.105 188.806 716.805 188.534 716.424 188.353C716.052 188.163 715.638 188.068 715.181 188.068C714.523 188.068 713.961 188.277 713.495 188.696C713.037 189.116 712.775 189.697 712.709 190.44H717.653Z"
  ></path>
  <path
    style="fill: var(--color-illustrationInterface060)"
    d="M723.484 195.055C722.884 195.055 722.346 194.955 721.869 194.755C721.393 194.545 721.017 194.259 720.741 193.897C720.464 193.526 720.312 193.102 720.283 192.626H721.627C721.665 193.016 721.846 193.335 722.169 193.583C722.503 193.831 722.936 193.955 723.47 193.955C723.965 193.955 724.356 193.845 724.641 193.626C724.927 193.407 725.07 193.131 725.07 192.797C725.07 192.454 724.918 192.202 724.613 192.04C724.308 191.868 723.836 191.702 723.198 191.54C722.617 191.387 722.141 191.235 721.769 191.083C721.407 190.921 721.093 190.687 720.826 190.382C720.569 190.068 720.441 189.659 720.441 189.154C720.441 188.754 720.56 188.387 720.798 188.053C721.036 187.72 721.374 187.458 721.812 187.268C722.25 187.068 722.751 186.967 723.313 186.967C724.179 186.967 724.88 187.187 725.413 187.625C725.946 188.063 726.232 188.663 726.27 189.425H724.97C724.941 189.016 724.775 188.687 724.47 188.439C724.175 188.192 723.775 188.068 723.27 188.068C722.803 188.068 722.431 188.168 722.155 188.368C721.879 188.568 721.741 188.83 721.741 189.154C721.741 189.411 721.822 189.625 721.984 189.797C722.155 189.959 722.365 190.092 722.612 190.197C722.87 190.292 723.222 190.402 723.67 190.525C724.232 190.678 724.689 190.83 725.042 190.983C725.394 191.125 725.694 191.345 725.942 191.64C726.199 191.935 726.332 192.321 726.342 192.797C726.342 193.226 726.223 193.612 725.985 193.955C725.746 194.298 725.408 194.569 724.97 194.769C724.541 194.96 724.046 195.055 723.484 195.055Z"
  ></path>
  <path
    style="fill: var(--color-illustrationInterface060)"
    d="M730.949 195.055C730.349 195.055 729.811 194.955 729.335 194.755C728.858 194.545 728.482 194.259 728.206 193.897C727.93 193.526 727.777 193.102 727.749 192.626H729.092C729.13 193.016 729.311 193.335 729.635 193.583C729.968 193.831 730.401 193.955 730.935 193.955C731.43 193.955 731.821 193.845 732.107 193.626C732.392 193.407 732.535 193.131 732.535 192.797C732.535 192.454 732.383 192.202 732.078 192.04C731.773 191.868 731.302 191.702 730.663 191.54C730.082 191.387 729.606 191.235 729.235 191.083C728.873 190.921 728.558 190.687 728.292 190.382C728.034 190.068 727.906 189.659 727.906 189.154C727.906 188.754 728.025 188.387 728.263 188.053C728.501 187.72 728.839 187.458 729.277 187.268C729.716 187.068 730.216 186.967 730.778 186.967C731.645 186.967 732.345 187.187 732.878 187.625C733.412 188.063 733.697 188.663 733.736 189.425H732.435C732.407 189.016 732.24 188.687 731.935 188.439C731.64 188.192 731.24 188.068 730.735 188.068C730.268 188.068 729.897 188.168 729.62 188.368C729.344 188.568 729.206 188.83 729.206 189.154C729.206 189.411 729.287 189.625 729.449 189.797C729.62 189.959 729.83 190.092 730.078 190.197C730.335 190.292 730.687 190.402 731.135 190.525C731.697 190.678 732.154 190.83 732.507 190.983C732.859 191.125 733.159 191.345 733.407 191.64C733.664 191.935 733.797 192.321 733.807 192.797C733.807 193.226 733.688 193.612 733.45 193.955C733.212 194.298 732.873 194.569 732.435 194.769C732.007 194.96 731.511 195.055 730.949 195.055Z"
  ></path>
  <path
    style="fill: var(--color-illustrationInterface060)"
    d="M696.379 190.982C696.379 190.182 696.541 189.482 696.865 188.882C697.189 188.272 697.632 187.801 698.194 187.467C698.765 187.134 699.403 186.967 700.108 186.967C700.718 186.967 701.285 187.11 701.809 187.396C702.332 187.672 702.733 188.039 703.009 188.496V184.353H704.323V194.926H703.009V193.454C702.752 193.921 702.371 194.307 701.866 194.612C701.361 194.907 700.77 195.055 700.094 195.055C699.399 195.055 698.765 194.883 698.194 194.54C697.632 194.197 697.189 193.716 696.865 193.097C696.541 192.478 696.379 191.773 696.379 190.982ZM703.009 190.997C703.009 190.406 702.89 189.892 702.652 189.454C702.413 189.015 702.09 188.682 701.68 188.453C701.28 188.215 700.837 188.096 700.351 188.096C699.865 188.096 699.422 188.21 699.022 188.439C698.622 188.668 698.303 189.001 698.065 189.439C697.827 189.877 697.708 190.392 697.708 190.982C697.708 191.583 697.827 192.106 698.065 192.554C698.303 192.992 698.622 193.331 699.022 193.569C699.422 193.797 699.865 193.912 700.351 193.912C700.837 193.912 701.28 193.797 701.68 193.569C702.09 193.331 702.413 192.992 702.652 192.554C702.89 192.106 703.009 191.587 703.009 190.997Z"
  ></path>
  <path
    style="fill: var(--color-illustrationInterface060)"
    d="M652.498 195.055C651.765 195.055 651.098 194.888 650.498 194.555C649.907 194.222 649.441 193.75 649.098 193.14C648.764 192.521 648.598 191.807 648.598 190.997C648.598 190.197 648.769 189.492 649.112 188.882C649.464 188.263 649.941 187.792 650.541 187.468C651.141 187.134 651.813 186.968 652.556 186.968C653.299 186.968 653.97 187.134 654.57 187.468C655.17 187.792 655.642 188.259 655.985 188.868C656.337 189.478 656.514 190.187 656.514 190.997C656.514 191.807 656.333 192.521 655.971 193.14C655.618 193.75 655.137 194.222 654.527 194.555C653.918 194.888 653.241 195.055 652.498 195.055ZM652.498 193.912C652.965 193.912 653.403 193.802 653.813 193.583C654.223 193.364 654.551 193.036 654.799 192.597C655.056 192.159 655.185 191.626 655.185 190.997C655.185 190.368 655.061 189.835 654.813 189.397C654.566 188.959 654.242 188.635 653.842 188.425C653.441 188.206 653.008 188.097 652.541 188.097C652.065 188.097 651.627 188.206 651.227 188.425C650.836 188.635 650.522 188.959 650.284 189.397C650.046 189.835 649.926 190.368 649.926 190.997C649.926 191.635 650.041 192.174 650.269 192.612C650.508 193.05 650.822 193.379 651.212 193.598C651.603 193.807 652.032 193.912 652.498 193.912Z"
  ></path>
  <path
    style="fill: var(--color-illustrationInterface070)"
    d="M465.456 92.5695H460.475L459.619 95H457.582L461.844 83.0869H464.103L468.365 95H466.311L465.456 92.5695ZM464.908 90.9776L462.974 85.449L461.022 90.9776H464.908Z"
  ></path>
  <path
    style="fill: var(--color-illustrationInterface070)"
    d="M469.568 90.2416C469.568 89.2945 469.762 88.4558 470.15 87.7255C470.549 86.9952 471.086 86.4304 471.759 86.031C472.444 85.6202 473.203 85.4148 474.036 85.4148C474.652 85.4148 475.257 85.5517 475.85 85.8256C476.455 86.088 476.934 86.4418 477.288 86.8868V82.3338H479.256V95H477.288V93.5793C476.968 94.0358 476.523 94.4124 475.953 94.709C475.393 95.0057 474.749 95.1541 474.018 95.1541C473.197 95.1541 472.444 94.9487 471.759 94.5379C471.086 94.1157 470.549 93.5337 470.15 92.792C469.762 92.0389 469.568 91.1887 469.568 90.2416ZM477.288 90.2759C477.288 89.6254 477.151 89.0606 476.877 88.5813C476.614 88.1021 476.266 87.7369 475.833 87.4859C475.399 87.2348 474.931 87.1093 474.429 87.1093C473.927 87.1093 473.459 87.2348 473.026 87.4859C472.592 87.7255 472.238 88.085 471.964 88.5642C471.702 89.0321 471.571 89.5912 471.571 90.2416C471.571 90.8921 471.702 91.4626 471.964 91.9533C472.238 92.444 472.592 92.8205 473.026 93.083C473.471 93.334 473.939 93.4595 474.429 93.4595C474.931 93.4595 475.399 93.334 475.833 93.083C476.266 92.8319 476.614 92.4668 476.877 91.9875C477.151 91.4968 477.288 90.9263 477.288 90.2759Z"
  ></path>
  <path
    style="fill: var(--color-illustrationInterface070)"
    d="M481.169 90.2416C481.169 89.2945 481.363 88.4558 481.751 87.7255C482.15 86.9952 482.686 86.4304 483.359 86.031C484.044 85.6202 484.803 85.4148 485.636 85.4148C486.252 85.4148 486.857 85.5517 487.45 85.8256C488.055 86.088 488.534 86.4418 488.888 86.8868V82.3338H490.857V95H488.888V93.5793C488.569 94.0358 488.124 94.4124 487.553 94.709C486.994 95.0057 486.349 95.1541 485.619 95.1541C484.797 95.1541 484.044 94.9487 483.359 94.5379C482.686 94.1157 482.15 93.5337 481.751 92.792C481.363 92.0389 481.169 91.1887 481.169 90.2416ZM488.888 90.2759C488.888 89.6254 488.751 89.0606 488.477 88.5813C488.215 88.1021 487.867 87.7369 487.433 87.4859C487 87.2348 486.532 87.1093 486.03 87.1093C485.528 87.1093 485.06 87.2348 484.626 87.4859C484.192 87.7255 483.839 88.085 483.565 88.5642C483.302 89.0321 483.171 89.5912 483.171 90.2416C483.171 90.8921 483.302 91.4626 483.565 91.9533C483.839 92.444 484.192 92.8205 484.626 93.083C485.071 93.334 485.539 93.4595 486.03 93.4595C486.532 93.4595 487 93.334 487.433 93.083C487.867 92.8319 488.215 92.4668 488.477 91.9875C488.751 91.4968 488.888 90.9263 488.888 90.2759Z"
  ></path>
  <path
    style="fill: var(--color-illustrationInterface070)"
    d="M495.371 86.9381C495.656 86.4589 496.033 86.088 496.5 85.8256C496.98 85.5517 497.545 85.4148 498.195 85.4148V87.4345H497.699C496.934 87.4345 496.352 87.6285 495.953 88.0165C495.565 88.4045 495.371 89.0777 495.371 90.0362V95H493.419V85.5688H495.371V86.9381Z"
  ></path>
  <path
    style="fill: var(--color-illustrationInterface070)"
    d="M508.632 90.0534C508.632 90.4071 508.61 90.7266 508.564 91.0119H501.358C501.415 91.765 501.695 92.3698 502.197 92.8262C502.699 93.2827 503.315 93.5109 504.045 93.5109C505.095 93.5109 505.837 93.0716 506.27 92.1929H508.376C508.09 93.0601 507.571 93.7733 506.818 94.3325C506.076 94.8802 505.152 95.1541 504.045 95.1541C503.144 95.1541 502.334 94.9544 501.615 94.555C500.907 94.1442 500.348 93.5736 499.937 92.8433C499.538 92.1016 499.338 91.2458 499.338 90.2759C499.338 89.3059 499.532 88.4558 499.92 87.7255C500.319 86.9838 500.873 86.4132 501.58 86.0139C502.299 85.6145 503.121 85.4148 504.045 85.4148C504.935 85.4148 505.728 85.6088 506.424 85.9967C507.12 86.3847 507.662 86.9324 508.05 87.6399C508.438 88.336 508.632 89.1405 508.632 90.0534ZM506.596 89.4372C506.584 88.7183 506.327 88.142 505.825 87.7084C505.323 87.2748 504.701 87.058 503.96 87.058C503.286 87.058 502.71 87.2748 502.231 87.7084C501.752 88.1306 501.466 88.7069 501.375 89.4372H506.596Z"
  ></path>
  <path
    style="fill: var(--color-illustrationInterface070)"
    d="M513.976 95.1541C513.234 95.1541 512.567 95.0228 511.973 94.7604C511.391 94.4865 510.929 94.1214 510.587 93.6649C510.245 93.1971 510.062 92.6779 510.039 92.1073H512.059C512.093 92.5067 512.281 92.8433 512.624 93.1172C512.977 93.3797 513.417 93.5109 513.942 93.5109C514.489 93.5109 514.912 93.4082 515.208 93.2028C515.516 92.986 515.67 92.7121 515.67 92.3812C515.67 92.0275 515.499 91.765 515.157 91.5938C514.826 91.4227 514.295 91.2344 513.565 91.029C512.858 90.835 512.281 90.6467 511.836 90.4641C511.391 90.2816 511.003 90.002 510.672 89.6254C510.353 89.2489 510.193 88.7525 510.193 88.1363C510.193 87.6342 510.342 87.1778 510.638 86.767C510.935 86.3448 511.357 86.0139 511.905 85.7742C512.464 85.5346 513.103 85.4148 513.822 85.4148C514.895 85.4148 515.756 85.6886 516.406 86.2364C517.068 86.7727 517.422 87.5087 517.468 88.4444H515.516C515.482 88.0222 515.311 87.6856 515.003 87.4345C514.695 87.1835 514.278 87.058 513.753 87.058C513.24 87.058 512.846 87.155 512.572 87.3489C512.299 87.5429 512.162 87.7997 512.162 88.1192C512.162 88.3702 512.253 88.5813 512.435 88.7525C512.618 88.9237 512.841 89.0606 513.103 89.1633C513.365 89.2546 513.753 89.3744 514.267 89.5227C514.952 89.7053 515.511 89.8936 515.944 90.0876C516.389 90.2702 516.772 90.544 517.091 90.9092C517.411 91.2743 517.576 91.7593 517.588 92.3641C517.588 92.9004 517.439 93.3797 517.143 93.8019C516.846 94.2241 516.424 94.555 515.876 94.7946C515.34 95.0343 514.706 95.1541 513.976 95.1541Z"
  ></path>
  <path
    style="fill: var(--color-illustrationInterface070)"
    d="M523.119 95.1541C522.378 95.1541 521.71 95.0228 521.117 94.7604C520.535 94.4865 520.073 94.1214 519.73 93.6649C519.388 93.1971 519.205 92.6779 519.182 92.1073H521.202C521.236 92.5067 521.425 92.8433 521.767 93.1172C522.121 93.3797 522.56 93.5109 523.085 93.5109C523.633 93.5109 524.055 93.4082 524.352 93.2028C524.66 92.986 524.814 92.7121 524.814 92.3812C524.814 92.0275 524.643 91.765 524.3 91.5938C523.969 91.4227 523.439 91.2344 522.708 91.029C522.001 90.835 521.425 90.6467 520.98 90.4641C520.535 90.2816 520.147 90.002 519.816 89.6254C519.496 89.2489 519.336 88.7525 519.336 88.1363C519.336 87.6342 519.485 87.1778 519.782 86.767C520.078 86.3448 520.5 86.0139 521.048 85.7742C521.607 85.5346 522.246 85.4148 522.965 85.4148C524.038 85.4148 524.899 85.6886 525.55 86.2364C526.212 86.7727 526.565 87.5087 526.611 88.4444H524.66C524.625 88.0222 524.454 87.6856 524.146 87.4345C523.838 87.1835 523.422 87.058 522.897 87.058C522.383 87.058 521.99 87.155 521.716 87.3489C521.442 87.5429 521.305 87.7997 521.305 88.1192C521.305 88.3702 521.396 88.5813 521.579 88.7525C521.761 88.9237 521.984 89.0606 522.246 89.1633C522.509 89.2546 522.897 89.3744 523.41 89.5227C524.095 89.7053 524.654 89.8936 525.088 90.0876C525.533 90.2702 525.915 90.544 526.234 90.9092C526.554 91.2743 526.719 91.7593 526.731 92.3641C526.731 92.9004 526.582 93.3797 526.286 93.8019C525.989 94.2241 525.567 94.555 525.019 94.7946C524.483 95.0343 523.85 95.1541 523.119 95.1541Z"
  ></path>
  <path
    style="fill: var(--color-illustrationInterface070)"
    d="M535.237 82.3338V95H533.286V82.3338H535.237Z"
  ></path>
  <path
    style="fill: var(--color-illustrationInterface070)"
    d="M538.791 84.3193C538.438 84.3193 538.141 84.1995 537.901 83.9599C537.662 83.7202 537.542 83.4236 537.542 83.0698C537.542 82.7161 537.662 82.4194 537.901 82.1798C538.141 81.9401 538.438 81.8203 538.791 81.8203C539.134 81.8203 539.425 81.9401 539.664 82.1798C539.904 82.4194 540.024 82.7161 540.024 83.0698C540.024 83.4236 539.904 83.7202 539.664 83.9599C539.425 84.1995 539.134 84.3193 538.791 84.3193ZM539.75 85.5688V95H537.799V85.5688H539.75Z"
  ></path>
  <path
    style="fill: var(--color-illustrationInterface070)"
    d="M547.07 85.4148C547.812 85.4148 548.474 85.5688 549.056 85.8769C549.649 86.185 550.111 86.6415 550.442 87.2462C550.773 87.851 550.938 88.5813 550.938 89.4372V95H549.004V89.7281C549.004 88.8837 548.793 88.239 548.371 87.794C547.949 87.3375 547.373 87.1093 546.642 87.1093C545.912 87.1093 545.33 87.3375 544.896 87.794C544.474 88.239 544.263 88.8837 544.263 89.7281V95H542.312V85.5688H544.263V86.6472C544.583 86.2592 544.988 85.9568 545.478 85.74C545.98 85.5232 546.511 85.4148 547.07 85.4148Z"
  ></path>
  <path
    style="fill: var(--color-illustrationInterface070)"
    d="M562.071 90.0534C562.071 90.4071 562.048 90.7266 562.003 91.0119H554.797C554.854 91.765 555.133 92.3698 555.636 92.8262C556.138 93.2827 556.754 93.5109 557.484 93.5109C558.534 93.5109 559.276 93.0716 559.709 92.1929H561.815C561.529 93.0601 561.01 93.7733 560.257 94.3325C559.515 94.8802 558.591 95.1541 557.484 95.1541C556.583 95.1541 555.772 94.9544 555.054 94.555C554.346 94.1442 553.787 93.5736 553.376 92.8433C552.977 92.1016 552.777 91.2458 552.777 90.2759C552.777 89.3059 552.971 88.4558 553.359 87.7255C553.758 86.9838 554.312 86.4132 555.019 86.0139C555.738 85.6145 556.56 85.4148 557.484 85.4148C558.374 85.4148 559.167 85.6088 559.863 85.9967C560.559 86.3847 561.101 86.9324 561.489 87.6399C561.877 88.336 562.071 89.1405 562.071 90.0534ZM560.034 89.4372C560.023 88.7183 559.766 88.142 559.264 87.7084C558.762 87.2748 558.14 87.058 557.399 87.058C556.725 87.058 556.149 87.2748 555.67 87.7084C555.19 88.1306 554.905 88.7069 554.814 89.4372H560.034Z"
  ></path>
  <path
    style="fill: var(--color-illustrationInterface070)"
    d="M567.924 84.3022V82.5221H571.485V95H569.516V84.3022H567.924Z"
  ></path>
  <path
    style="fill: var(--color-illustrationInterface010)"
    d="M458 277.165C458 272.656 461.656 269 466.165 269H1019.84C1024.34 269 1028 272.656 1028 277.165V321.835C1028 326.344 1024.34 330 1019.84 330H466.165C461.656 330 458 326.344 458 321.835V277.165Z"
  ></path>
  <path
    style="fill: var(--color-illustrationInterface070)"
    d="M465.456 250.569H460.475L459.619 253H457.582L461.844 241.087H464.103L468.365 253H466.311L465.456 250.569ZM464.908 248.978L462.974 243.449L461.022 248.978H464.908Z"
  ></path>
  <path
    style="fill: var(--color-illustrationInterface070)"
    d="M469.568 248.242C469.568 247.295 469.762 246.456 470.15 245.726C470.549 244.995 471.086 244.43 471.759 244.031C472.444 243.62 473.203 243.415 474.036 243.415C474.652 243.415 475.257 243.552 475.85 243.826C476.455 244.088 476.934 244.442 477.288 244.887V240.334H479.256V253H477.288V251.579C476.968 252.036 476.523 252.412 475.953 252.709C475.393 253.006 474.749 253.154 474.018 253.154C473.197 253.154 472.444 252.949 471.759 252.538C471.086 252.116 470.549 251.534 470.15 250.792C469.762 250.039 469.568 249.189 469.568 248.242ZM477.288 248.276C477.288 247.625 477.151 247.061 476.877 246.581C476.614 246.102 476.266 245.737 475.833 245.486C475.399 245.235 474.931 245.109 474.429 245.109C473.927 245.109 473.459 245.235 473.026 245.486C472.592 245.726 472.238 246.085 471.964 246.564C471.702 247.032 471.571 247.591 471.571 248.242C471.571 248.892 471.702 249.463 471.964 249.953C472.238 250.444 472.592 250.821 473.026 251.083C473.471 251.334 473.939 251.46 474.429 251.46C474.931 251.46 475.399 251.334 475.833 251.083C476.266 250.832 476.614 250.467 476.877 249.988C477.151 249.497 477.288 248.926 477.288 248.276Z"
  ></path>
  <path
    style="fill: var(--color-illustrationInterface070)"
    d="M481.169 248.242C481.169 247.295 481.363 246.456 481.751 245.726C482.15 244.995 482.686 244.43 483.359 244.031C484.044 243.62 484.803 243.415 485.636 243.415C486.252 243.415 486.857 243.552 487.45 243.826C488.055 244.088 488.534 244.442 488.888 244.887V240.334H490.857V253H488.888V251.579C488.569 252.036 488.124 252.412 487.553 252.709C486.994 253.006 486.349 253.154 485.619 253.154C484.797 253.154 484.044 252.949 483.359 252.538C482.686 252.116 482.15 251.534 481.751 250.792C481.363 250.039 481.169 249.189 481.169 248.242ZM488.888 248.276C488.888 247.625 488.751 247.061 488.477 246.581C488.215 246.102 487.867 245.737 487.433 245.486C487 245.235 486.532 245.109 486.03 245.109C485.528 245.109 485.06 245.235 484.626 245.486C484.192 245.726 483.839 246.085 483.565 246.564C483.302 247.032 483.171 247.591 483.171 248.242C483.171 248.892 483.302 249.463 483.565 249.953C483.839 250.444 484.192 250.821 484.626 251.083C485.071 251.334 485.539 251.46 486.03 251.46C486.532 251.46 487 251.334 487.433 251.083C487.867 250.832 488.215 250.467 488.477 249.988C488.751 249.497 488.888 248.926 488.888 248.276Z"
  ></path>
  <path
    style="fill: var(--color-illustrationInterface070)"
    d="M495.371 244.938C495.656 244.459 496.033 244.088 496.5 243.826C496.98 243.552 497.545 243.415 498.195 243.415V245.435H497.699C496.934 245.435 496.352 245.629 495.953 246.016C495.565 246.404 495.371 247.078 495.371 248.036V253H493.419V243.569H495.371V244.938Z"
  ></path>
  <path
    style="fill: var(--color-illustrationInterface070)"
    d="M508.632 248.053C508.632 248.407 508.61 248.727 508.564 249.012H501.358C501.415 249.765 501.695 250.37 502.197 250.826C502.699 251.283 503.315 251.511 504.045 251.511C505.095 251.511 505.837 251.072 506.27 250.193H508.376C508.09 251.06 507.571 251.773 506.818 252.332C506.076 252.88 505.152 253.154 504.045 253.154C503.144 253.154 502.334 252.954 501.615 252.555C500.907 252.144 500.348 251.574 499.937 250.843C499.538 250.102 499.338 249.246 499.338 248.276C499.338 247.306 499.532 246.456 499.92 245.726C500.319 244.984 500.873 244.413 501.58 244.014C502.299 243.614 503.121 243.415 504.045 243.415C504.935 243.415 505.728 243.609 506.424 243.997C507.12 244.385 507.662 244.932 508.05 245.64C508.438 246.336 508.632 247.14 508.632 248.053ZM506.596 247.437C506.584 246.718 506.327 246.142 505.825 245.708C505.323 245.275 504.701 245.058 503.96 245.058C503.286 245.058 502.71 245.275 502.231 245.708C501.752 246.131 501.466 246.707 501.375 247.437H506.596Z"
  ></path>
  <path
    style="fill: var(--color-illustrationInterface070)"
    d="M513.976 253.154C513.234 253.154 512.567 253.023 511.973 252.76C511.391 252.487 510.929 252.121 510.587 251.665C510.245 251.197 510.062 250.678 510.039 250.107H512.059C512.093 250.507 512.281 250.843 512.624 251.117C512.977 251.38 513.417 251.511 513.942 251.511C514.489 251.511 514.912 251.408 515.208 251.203C515.516 250.986 515.67 250.712 515.67 250.381C515.67 250.027 515.499 249.765 515.157 249.594C514.826 249.423 514.295 249.234 513.565 249.029C512.858 248.835 512.281 248.647 511.836 248.464C511.391 248.282 511.003 248.002 510.672 247.625C510.353 247.249 510.193 246.752 510.193 246.136C510.193 245.634 510.342 245.178 510.638 244.767C510.935 244.345 511.357 244.014 511.905 243.774C512.464 243.535 513.103 243.415 513.822 243.415C514.895 243.415 515.756 243.689 516.406 244.236C517.068 244.773 517.422 245.509 517.468 246.444H515.516C515.482 246.022 515.311 245.686 515.003 245.435C514.695 245.183 514.278 245.058 513.753 245.058C513.24 245.058 512.846 245.155 512.572 245.349C512.299 245.543 512.162 245.8 512.162 246.119C512.162 246.37 512.253 246.581 512.435 246.752C512.618 246.924 512.841 247.061 513.103 247.163C513.365 247.255 513.753 247.374 514.267 247.523C514.952 247.705 515.511 247.894 515.944 248.088C516.389 248.27 516.772 248.544 517.091 248.909C517.411 249.274 517.576 249.759 517.588 250.364C517.588 250.9 517.439 251.38 517.143 251.802C516.846 252.224 516.424 252.555 515.876 252.795C515.34 253.034 514.706 253.154 513.976 253.154Z"
  ></path>
  <path
    style="fill: var(--color-illustrationInterface070)"
    d="M523.119 253.154C522.378 253.154 521.71 253.023 521.117 252.76C520.535 252.487 520.073 252.121 519.73 251.665C519.388 251.197 519.205 250.678 519.182 250.107H521.202C521.236 250.507 521.425 250.843 521.767 251.117C522.121 251.38 522.56 251.511 523.085 251.511C523.633 251.511 524.055 251.408 524.352 251.203C524.66 250.986 524.814 250.712 524.814 250.381C524.814 250.027 524.643 249.765 524.3 249.594C523.969 249.423 523.439 249.234 522.708 249.029C522.001 248.835 521.425 248.647 520.98 248.464C520.535 248.282 520.147 248.002 519.816 247.625C519.496 247.249 519.336 246.752 519.336 246.136C519.336 245.634 519.485 245.178 519.782 244.767C520.078 244.345 520.5 244.014 521.048 243.774C521.607 243.535 522.246 243.415 522.965 243.415C524.038 243.415 524.899 243.689 525.55 244.236C526.212 244.773 526.565 245.509 526.611 246.444H524.66C524.625 246.022 524.454 245.686 524.146 245.435C523.838 245.183 523.422 245.058 522.897 245.058C522.383 245.058 521.99 245.155 521.716 245.349C521.442 245.543 521.305 245.8 521.305 246.119C521.305 246.37 521.396 246.581 521.579 246.752C521.761 246.924 521.984 247.061 522.246 247.163C522.509 247.255 522.897 247.374 523.41 247.523C524.095 247.705 524.654 247.894 525.088 248.088C525.533 248.27 525.915 248.544 526.234 248.909C526.554 249.274 526.719 249.759 526.731 250.364C526.731 250.9 526.582 251.38 526.286 251.802C525.989 252.224 525.567 252.555 525.019 252.795C524.483 253.034 523.85 253.154 523.119 253.154Z"
  ></path>
  <path
    style="fill: var(--color-illustrationInterface070)"
    d="M535.237 240.334V253H533.286V240.334H535.237Z"
  ></path>
  <path
    style="fill: var(--color-illustrationInterface070)"
    d="M538.791 242.319C538.438 242.319 538.141 242.2 537.901 241.96C537.662 241.72 537.542 241.424 537.542 241.07C537.542 240.716 537.662 240.419 537.901 240.18C538.141 239.94 538.438 239.82 538.791 239.82C539.134 239.82 539.425 239.94 539.664 240.18C539.904 240.419 540.024 240.716 540.024 241.07C540.024 241.424 539.904 241.72 539.664 241.96C539.425 242.2 539.134 242.319 538.791 242.319ZM539.75 243.569V253H537.799V243.569H539.75Z"
  ></path>
  <path
    style="fill: var(--color-illustrationInterface070)"
    d="M547.07 243.415C547.812 243.415 548.474 243.569 549.056 243.877C549.649 244.185 550.111 244.641 550.442 245.246C550.773 245.851 550.938 246.581 550.938 247.437V253H549.004V247.728C549.004 246.884 548.793 246.239 548.371 245.794C547.949 245.338 547.373 245.109 546.642 245.109C545.912 245.109 545.33 245.338 544.896 245.794C544.474 246.239 544.263 246.884 544.263 247.728V253H542.312V243.569H544.263V244.647C544.583 244.259 544.988 243.957 545.478 243.74C545.98 243.523 546.511 243.415 547.07 243.415Z"
  ></path>
  <path
    style="fill: var(--color-illustrationInterface070)"
    d="M562.071 248.053C562.071 248.407 562.048 248.727 562.003 249.012H554.797C554.854 249.765 555.133 250.37 555.636 250.826C556.138 251.283 556.754 251.511 557.484 251.511C558.534 251.511 559.276 251.072 559.709 250.193H561.815C561.529 251.06 561.01 251.773 560.257 252.332C559.515 252.88 558.591 253.154 557.484 253.154C556.583 253.154 555.772 252.954 555.054 252.555C554.346 252.144 553.787 251.574 553.376 250.843C552.977 250.102 552.777 249.246 552.777 248.276C552.777 247.306 552.971 246.456 553.359 245.726C553.758 244.984 554.312 244.413 555.019 244.014C555.738 243.614 556.56 243.415 557.484 243.415C558.374 243.415 559.167 243.609 559.863 243.997C560.559 244.385 561.101 244.932 561.489 245.64C561.877 246.336 562.071 247.14 562.071 248.053ZM560.034 247.437C560.023 246.718 559.766 246.142 559.264 245.708C558.762 245.275 558.14 245.058 557.399 245.058C556.725 245.058 556.149 245.275 555.67 245.708C555.19 246.131 554.905 246.707 554.814 247.437H560.034Z"
  ></path>
  <path
    style="fill: var(--color-illustrationInterface070)"
    d="M569.259 250.347C570.355 249.4 571.216 248.624 571.844 248.019C572.483 247.403 573.014 246.764 573.436 246.102C573.858 245.44 574.069 244.778 574.069 244.117C574.069 243.432 573.904 242.896 573.573 242.508C573.253 242.12 572.746 241.926 572.049 241.926C571.376 241.926 570.851 242.142 570.475 242.576C570.11 242.998 569.916 243.569 569.893 244.288H568.01C568.044 242.987 568.432 241.994 569.174 241.309C569.927 240.613 570.88 240.265 572.032 240.265C573.276 240.265 574.246 240.608 574.942 241.292C575.65 241.977 576.003 242.89 576.003 244.031C576.003 244.853 575.792 245.646 575.37 246.41C574.959 247.163 574.463 247.842 573.881 248.447C573.31 249.04 572.58 249.731 571.69 250.518L570.92 251.203H576.346V252.829H568.027V251.408L569.259 250.347Z"
  ></path>
  <path
    style="fill: var(--color-illustrationPalette050)"
    d="M922.703 353.038H919.082V356.71H917.637V353.038H914.033V351.729H917.637V348.04H919.082V351.729H922.703V353.038Z"
  ></path>
  <path
    style="fill: var(--color-illustrationPalette050)"
    d="M932.472 355.962H927.304L926.352 358.597H924.72L929.004 346.816H930.789L935.056 358.597H933.424L932.472 355.962ZM932.03 354.704L929.888 348.72L927.746 354.704H932.03Z"
  ></path>
  <path
    style="fill: var(--color-illustrationPalette050)"
    d="M936.345 353.905C936.345 352.953 936.537 352.12 936.923 351.406C937.308 350.681 937.835 350.12 938.504 349.723C939.184 349.326 939.943 349.128 940.782 349.128C941.507 349.128 942.181 349.298 942.805 349.638C943.428 349.967 943.904 350.403 944.233 350.947V346.017H945.797V358.597H944.233V356.846C943.927 357.401 943.473 357.86 942.873 358.223C942.272 358.574 941.569 358.75 940.765 358.75C939.937 358.75 939.184 358.546 938.504 358.138C937.835 357.73 937.308 357.158 936.923 356.421C936.537 355.684 936.345 354.846 936.345 353.905ZM944.233 353.922C944.233 353.219 944.091 352.607 943.808 352.086C943.524 351.565 943.139 351.168 942.652 350.896C942.176 350.613 941.649 350.471 941.071 350.471C940.493 350.471 939.966 350.607 939.49 350.879C939.014 351.151 938.634 351.548 938.351 352.069C938.067 352.59 937.926 353.202 937.926 353.905C937.926 354.619 938.067 355.242 938.351 355.775C938.634 356.296 939.014 356.699 939.49 356.982C939.966 357.254 940.493 357.39 941.071 357.39C941.649 357.39 942.176 357.254 942.652 356.982C943.139 356.699 943.524 356.296 943.808 355.775C944.091 355.242 944.233 354.625 944.233 353.922Z"
  ></path>
  <path
    style="fill: var(--color-illustrationPalette050)"
    d="M947.833 353.905C947.833 352.953 948.026 352.12 948.411 351.406C948.796 350.681 949.323 350.12 949.992 349.723C950.672 349.326 951.431 349.128 952.27 349.128C952.995 349.128 953.67 349.298 954.293 349.638C954.916 349.967 955.392 350.403 955.721 350.947V346.017H957.285V358.597H955.721V356.846C955.415 357.401 954.962 357.86 954.361 358.223C953.76 358.574 953.058 358.75 952.253 358.75C951.426 358.75 950.672 358.546 949.992 358.138C949.323 357.73 948.796 357.158 948.411 356.421C948.026 355.684 947.833 354.846 947.833 353.905ZM955.721 353.922C955.721 353.219 955.579 352.607 955.296 352.086C955.013 351.565 954.627 351.168 954.14 350.896C953.664 350.613 953.137 350.471 952.559 350.471C951.981 350.471 951.454 350.607 950.978 350.879C950.502 351.151 950.122 351.548 949.839 352.069C949.556 352.59 949.414 353.202 949.414 353.905C949.414 354.619 949.556 355.242 949.839 355.775C950.122 356.296 950.502 356.699 950.978 356.982C951.454 357.254 951.981 357.39 952.559 357.39C953.137 357.39 953.664 357.254 954.14 356.982C954.627 356.699 955.013 356.296 955.296 355.775C955.579 355.242 955.721 354.625 955.721 353.922Z"
  ></path>
  <path
    style="fill: var(--color-illustrationPalette050)"
    d="M961.446 350.794C961.718 350.261 962.104 349.848 962.602 349.553C963.112 349.258 963.73 349.111 964.455 349.111V350.709H964.047C962.313 350.709 961.446 351.65 961.446 353.531V358.597H959.899V349.281H961.446V350.794Z"
  ></path>
  <path
    style="fill: var(--color-illustrationPalette050)"
    d="M974.741 353.582C974.741 353.877 974.724 354.188 974.69 354.517H967.244C967.301 355.435 967.612 356.155 968.179 356.676C968.757 357.186 969.454 357.441 970.27 357.441C970.939 357.441 971.494 357.288 971.936 356.982C972.389 356.665 972.707 356.245 972.888 355.724H974.554C974.305 356.619 973.806 357.35 973.058 357.917C972.31 358.472 971.381 358.75 970.27 358.75C969.386 358.75 968.593 358.552 967.89 358.155C967.199 357.758 966.655 357.197 966.258 356.472C965.861 355.735 965.663 354.885 965.663 353.922C965.663 352.959 965.856 352.114 966.241 351.389C966.626 350.664 967.165 350.108 967.856 349.723C968.559 349.326 969.363 349.128 970.27 349.128C971.154 349.128 971.936 349.321 972.616 349.706C973.296 350.091 973.817 350.624 974.18 351.304C974.554 351.973 974.741 352.732 974.741 353.582ZM973.143 353.259C973.143 352.67 973.013 352.165 972.752 351.746C972.491 351.315 972.134 350.992 971.681 350.777C971.239 350.55 970.746 350.437 970.202 350.437C969.42 350.437 968.751 350.686 968.196 351.185C967.652 351.684 967.34 352.375 967.261 353.259H973.143Z"
  ></path>
  <path
    style="fill: var(--color-illustrationPalette050)"
    d="M980.081 358.75C979.367 358.75 978.727 358.631 978.16 358.393C977.593 358.144 977.146 357.804 976.817 357.373C976.488 356.931 976.307 356.427 976.273 355.86H977.871C977.916 356.325 978.132 356.704 978.517 356.999C978.914 357.294 979.429 357.441 980.064 357.441C980.653 357.441 981.118 357.311 981.458 357.05C981.798 356.789 981.968 356.461 981.968 356.064C981.968 355.656 981.787 355.356 981.424 355.163C981.061 354.959 980.5 354.761 979.741 354.568C979.05 354.387 978.483 354.205 978.041 354.024C977.61 353.831 977.236 353.554 976.919 353.191C976.613 352.817 976.46 352.33 976.46 351.729C976.46 351.253 976.602 350.817 976.885 350.42C977.168 350.023 977.571 349.712 978.092 349.485C978.613 349.247 979.208 349.128 979.877 349.128C980.908 349.128 981.741 349.389 982.376 349.91C983.011 350.431 983.351 351.145 983.396 352.052H981.849C981.815 351.565 981.617 351.174 981.254 350.879C980.903 350.584 980.427 350.437 979.826 350.437C979.271 350.437 978.829 350.556 978.5 350.794C978.171 351.032 978.007 351.344 978.007 351.729C978.007 352.035 978.103 352.29 978.296 352.494C978.5 352.687 978.749 352.845 979.044 352.97C979.35 353.083 979.769 353.214 980.302 353.361C980.971 353.542 981.515 353.724 981.934 353.905C982.353 354.075 982.71 354.336 983.005 354.687C983.311 355.038 983.47 355.497 983.481 356.064C983.481 356.574 983.339 357.033 983.056 357.441C982.773 357.849 982.37 358.172 981.849 358.41C981.339 358.637 980.75 358.75 980.081 358.75Z"
  ></path>
  <path
    style="fill: var(--color-illustrationPalette050)"
    d="M988.963 358.75C988.249 358.75 987.609 358.631 987.042 358.393C986.475 358.144 986.028 357.804 985.699 357.373C985.37 356.931 985.189 356.427 985.155 355.86H986.753C986.798 356.325 987.014 356.704 987.399 356.999C987.796 357.294 988.311 357.441 988.946 357.441C989.535 357.441 990 357.311 990.34 357.05C990.68 356.789 990.85 356.461 990.85 356.064C990.85 355.656 990.669 355.356 990.306 355.163C989.943 354.959 989.382 354.761 988.623 354.568C987.932 354.387 987.365 354.205 986.923 354.024C986.492 353.831 986.118 353.554 985.801 353.191C985.495 352.817 985.342 352.33 985.342 351.729C985.342 351.253 985.484 350.817 985.767 350.42C986.05 350.023 986.453 349.712 986.974 349.485C987.495 349.247 988.09 349.128 988.759 349.128C989.79 349.128 990.623 349.389 991.258 349.91C991.893 350.431 992.233 351.145 992.278 352.052H990.731C990.697 351.565 990.499 351.174 990.136 350.879C989.785 350.584 989.309 350.437 988.708 350.437C988.153 350.437 987.711 350.556 987.382 350.794C987.053 351.032 986.889 351.344 986.889 351.729C986.889 352.035 986.985 352.29 987.178 352.494C987.382 352.687 987.631 352.845 987.926 352.97C988.232 353.083 988.651 353.214 989.184 353.361C989.853 353.542 990.397 353.724 990.816 353.905C991.235 354.075 991.592 354.336 991.887 354.687C992.193 355.038 992.352 355.497 992.363 356.064C992.363 356.574 992.221 357.033 991.938 357.441C991.655 357.849 991.252 358.172 990.731 358.41C990.221 358.637 989.632 358.75 988.963 358.75Z"
  ></path>
  <path
    style="fill: var(--color-illustrationPalette050)"
    d="M1000.63 346.017V358.597H999.079V346.017H1000.63Z"
  ></path>
  <path
    style="fill: var(--color-illustrationPalette050)"
    d="M1004.06 347.768C1003.77 347.768 1003.52 347.666 1003.31 347.462C1003.11 347.258 1003.01 347.009 1003.01 346.714C1003.01 346.419 1003.11 346.17 1003.31 345.966C1003.52 345.762 1003.77 345.66 1004.06 345.66C1004.34 345.66 1004.58 345.762 1004.78 345.966C1004.98 346.17 1005.08 346.419 1005.08 346.714C1005.08 347.009 1004.98 347.258 1004.78 347.462C1004.58 347.666 1004.34 347.768 1004.06 347.768ZM1004.81 349.281V358.597H1003.26V349.281H1004.81Z"
  ></path>
  <path
    style="fill: var(--color-illustrationPalette050)"
    d="M1011.99 349.111C1013.12 349.111 1014.04 349.457 1014.74 350.148C1015.44 350.828 1015.79 351.814 1015.79 353.106V358.597H1014.26V353.327C1014.26 352.398 1014.03 351.689 1013.57 351.202C1013.1 350.703 1012.47 350.454 1011.66 350.454C1010.85 350.454 1010.19 350.709 1009.71 351.219C1009.23 351.729 1008.99 352.471 1008.99 353.446V358.597H1007.45V349.281H1008.99V350.607C1009.3 350.131 1009.71 349.763 1010.23 349.502C1010.77 349.241 1011.35 349.111 1011.99 349.111Z"
  ></path>
  <path
    style="fill: var(--color-illustrationPalette050)"
    d="M1026.82 353.582C1026.82 353.877 1026.8 354.188 1026.77 354.517H1019.32C1019.38 355.435 1019.69 356.155 1020.26 356.676C1020.84 357.186 1021.53 357.441 1022.35 357.441C1023.02 357.441 1023.57 357.288 1024.02 356.982C1024.47 356.665 1024.79 356.245 1024.97 355.724H1026.63C1026.38 356.619 1025.89 357.35 1025.14 357.917C1024.39 358.472 1023.46 358.75 1022.35 358.75C1021.47 358.75 1020.67 358.552 1019.97 358.155C1019.28 357.758 1018.73 357.197 1018.34 356.472C1017.94 355.735 1017.74 354.885 1017.74 353.922C1017.74 352.959 1017.93 352.114 1018.32 351.389C1018.71 350.664 1019.24 350.108 1019.94 349.723C1020.64 349.326 1021.44 349.128 1022.35 349.128C1023.23 349.128 1024.02 349.321 1024.7 349.706C1025.38 350.091 1025.9 350.624 1026.26 351.304C1026.63 351.973 1026.82 352.732 1026.82 353.582ZM1025.22 353.259C1025.22 352.67 1025.09 352.165 1024.83 351.746C1024.57 351.315 1024.21 350.992 1023.76 350.777C1023.32 350.55 1022.83 350.437 1022.28 350.437C1021.5 350.437 1020.83 350.686 1020.28 351.185C1019.73 351.684 1019.42 352.375 1019.34 353.259H1025.22Z"
  ></path>
  <path
    style="fill: var(--color-illustrationInterface010)"
    d="M458 438.165C458 433.656 461.656 430 466.165 430H1019.84C1024.34 430 1028 433.656 1028 438.165V482.835C1028 487.344 1024.34 491 1019.84 491H466.165C461.656 491 458 487.344 458 482.835V438.165Z"
  ></path>
  <path
    style="fill: var(--color-illustrationInterface070)"
    d="M465.969 402.104V403.696H462.803V414H460.852V403.696H457.668V402.104H465.969Z"
  ></path>
  <path
    style="fill: var(--color-illustrationInterface070)"
    d="M472.036 414.154C471.146 414.154 470.342 413.954 469.623 413.555C468.904 413.144 468.339 412.574 467.929 411.843C467.518 411.102 467.312 410.246 467.312 409.276C467.312 408.317 467.523 407.467 467.946 406.726C468.368 405.984 468.944 405.413 469.674 405.014C470.405 404.614 471.221 404.415 472.122 404.415C473.024 404.415 473.839 404.614 474.57 405.014C475.3 405.413 475.876 405.984 476.298 406.726C476.721 407.467 476.932 408.317 476.932 409.276C476.932 410.234 476.715 411.085 476.281 411.826C475.848 412.568 475.254 413.144 474.501 413.555C473.76 413.954 472.938 414.154 472.036 414.154ZM472.036 412.46C472.539 412.46 473.006 412.34 473.44 412.1C473.885 411.86 474.244 411.501 474.518 411.022C474.792 410.542 474.929 409.961 474.929 409.276C474.929 408.591 474.798 408.015 474.535 407.547C474.273 407.068 473.925 406.708 473.491 406.469C473.058 406.229 472.59 406.109 472.088 406.109C471.586 406.109 471.118 406.229 470.684 406.469C470.262 406.708 469.925 407.068 469.674 407.547C469.423 408.015 469.298 408.591 469.298 409.276C469.298 410.291 469.555 411.079 470.068 411.638C470.593 412.186 471.249 412.46 472.036 412.46Z"
  ></path>
  <path
    style="fill: var(--color-illustrationInterface070)"
    d="M491.527 404.569L488.6 414H486.546L484.646 407.034L482.746 414H480.692L477.748 404.569H479.734L481.702 412.151L483.705 404.569H485.742L487.659 412.117L489.61 404.569H491.527Z"
  ></path>
  <path
    style="fill: var(--color-illustrationInterface070)"
    d="M497.744 404.415C498.485 404.415 499.147 404.569 499.729 404.877C500.322 405.185 500.785 405.641 501.116 406.246C501.446 406.851 501.612 407.581 501.612 408.437V414H499.678V408.728C499.678 407.884 499.467 407.239 499.044 406.794C498.622 406.338 498.046 406.109 497.316 406.109C496.585 406.109 496.003 406.338 495.57 406.794C495.148 407.239 494.936 407.884 494.936 408.728V414H492.985V404.569H494.936V405.647C495.256 405.259 495.661 404.957 496.152 404.74C496.654 404.523 497.184 404.415 497.744 404.415Z"
  ></path>
  <path
    style="fill: var(--color-illustrationInterface070)"
    d="M512.638 414.154C511.748 414.154 510.943 413.954 510.225 413.555C509.506 413.144 508.941 412.574 508.53 411.843C508.119 411.102 507.914 410.246 507.914 409.276C507.914 408.317 508.125 407.467 508.547 406.726C508.969 405.984 509.546 405.413 510.276 405.014C511.006 404.614 511.822 404.415 512.724 404.415C513.625 404.415 514.441 404.614 515.171 405.014C515.902 405.413 516.478 405.984 516.9 406.726C517.322 407.467 517.533 408.317 517.533 409.276C517.533 410.234 517.317 411.085 516.883 411.826C516.449 412.568 515.856 413.144 515.103 413.555C514.361 413.954 513.539 414.154 512.638 414.154ZM512.638 412.46C513.14 412.46 513.608 412.34 514.042 412.1C514.487 411.86 514.846 411.501 515.12 411.022C515.394 410.542 515.531 409.961 515.531 409.276C515.531 408.591 515.399 408.015 515.137 407.547C514.875 407.068 514.527 406.708 514.093 406.469C513.659 406.229 513.191 406.109 512.689 406.109C512.187 406.109 511.719 406.229 511.286 406.469C510.864 406.708 510.527 407.068 510.276 407.547C510.025 408.015 509.899 408.591 509.899 409.276C509.899 410.291 510.156 411.079 510.67 411.638C511.195 412.186 511.851 412.46 512.638 412.46Z"
  ></path>
  <path
    style="fill: var(--color-illustrationInterface070)"
    d="M521.414 405.938C521.699 405.459 522.075 405.088 522.543 404.826C523.023 404.552 523.587 404.415 524.238 404.415V406.435H523.741C522.977 406.435 522.395 406.629 521.996 407.016C521.608 407.404 521.414 408.078 521.414 409.036V414H519.462V404.569H521.414V405.938Z"
  ></path>
  <path
    style="fill: var(--color-illustrationInterface070)"
    d="M529.827 409.276C529.827 408.306 530.021 407.456 530.409 406.726C530.809 405.984 531.356 405.413 532.052 405.014C532.748 404.614 533.547 404.415 534.449 404.415C535.59 404.415 536.531 404.689 537.273 405.236C538.026 405.773 538.534 406.543 538.796 407.547H536.691C536.52 407.079 536.246 406.714 535.869 406.452C535.493 406.189 535.019 406.058 534.449 406.058C533.65 406.058 533.011 406.343 532.532 406.914C532.064 407.473 531.83 408.26 531.83 409.276C531.83 410.291 532.064 411.085 532.532 411.655C533.011 412.226 533.65 412.511 534.449 412.511C535.578 412.511 536.326 412.015 536.691 411.022H538.796C538.522 411.98 538.009 412.745 537.256 413.315C536.503 413.874 535.567 414.154 534.449 414.154C533.547 414.154 532.748 413.954 532.052 413.555C531.356 413.144 530.809 412.574 530.409 411.843C530.021 411.102 529.827 410.246 529.827 409.276Z"
  ></path>
  <path
    style="fill: var(--color-illustrationInterface070)"
    d="M541.734 403.319C541.38 403.319 541.083 403.2 540.844 402.96C540.604 402.72 540.484 402.424 540.484 402.07C540.484 401.716 540.604 401.419 540.844 401.18C541.083 400.94 541.38 400.82 541.734 400.82C542.076 400.82 542.367 400.94 542.607 401.18C542.846 401.419 542.966 401.716 542.966 402.07C542.966 402.424 542.846 402.72 542.607 402.96C542.367 403.2 542.076 403.319 541.734 403.319ZM542.692 404.569V414H540.741V404.569H542.692Z"
  ></path>
  <path
    style="fill: var(--color-illustrationInterface070)"
    d="M547.531 406.161V411.381C547.531 411.735 547.61 411.992 547.77 412.151C547.941 412.3 548.227 412.374 548.626 412.374H549.824V414H548.284C547.405 414 546.732 413.795 546.264 413.384C545.796 412.973 545.562 412.305 545.562 411.381V406.161H544.45V404.569H545.562V402.224H547.531V404.569H549.824V406.161H547.531Z"
  ></path>
  <path
    style="fill: var(--color-illustrationInterface070)"
    d="M560.112 404.569L554.327 418.433H552.307L554.224 413.846L550.51 404.569H552.684L555.337 411.758L558.093 404.569H560.112Z"
  ></path>
  <path
    style="fill: var(--color-illustrationInterface010)"
    d="M458 573.165C458 568.656 461.656 565 466.165 565H1019.84C1024.34 565 1028 568.656 1028 573.165V617.835C1028 622.344 1024.34 626 1019.84 626H466.165C461.656 626 458 622.344 458 617.835V573.165Z"
  ></path>
  <path
    style="fill: var(--color-illustrationInterface070)"
    d="M457.633 543.027C457.633 541.863 457.901 540.819 458.437 539.895C458.985 538.97 459.721 538.251 460.645 537.738C461.581 537.213 462.602 536.95 463.709 536.95C464.976 536.95 466.1 537.264 467.081 537.892C468.074 538.508 468.793 539.387 469.238 540.528H466.893C466.585 539.9 466.157 539.432 465.609 539.124C465.061 538.816 464.428 538.662 463.709 538.662C462.922 538.662 462.22 538.839 461.604 539.193C460.988 539.546 460.503 540.054 460.149 540.716C459.807 541.378 459.635 542.148 459.635 543.027C459.635 543.905 459.807 544.676 460.149 545.338C460.503 545.999 460.988 546.513 461.604 546.878C462.22 547.232 462.922 547.409 463.709 547.409C464.428 547.409 465.061 547.255 465.609 546.947C466.157 546.638 466.585 546.171 466.893 545.543H469.238C468.793 546.684 468.074 547.563 467.081 548.179C466.1 548.795 464.976 549.103 463.709 549.103C462.591 549.103 461.57 548.846 460.645 548.333C459.721 547.808 458.985 547.083 458.437 546.159C457.901 545.235 457.633 544.191 457.633 543.027Z"
  ></path>
  <path
    style="fill: var(--color-illustrationInterface070)"
    d="M475.613 549.155C474.723 549.155 473.918 548.955 473.199 548.555C472.48 548.145 471.915 547.574 471.505 546.844C471.094 546.102 470.888 545.246 470.888 544.276C470.888 543.318 471.1 542.468 471.522 541.726C471.944 540.984 472.52 540.414 473.251 540.014C473.981 539.615 474.797 539.415 475.698 539.415C476.6 539.415 477.416 539.615 478.146 540.014C478.876 540.414 479.452 540.984 479.875 541.726C480.297 542.468 480.508 543.318 480.508 544.276C480.508 545.235 480.291 546.085 479.858 546.827C479.424 547.568 478.831 548.145 478.077 548.555C477.336 548.955 476.514 549.155 475.613 549.155ZM475.613 547.46C476.115 547.46 476.583 547.34 477.016 547.101C477.461 546.861 477.821 546.501 478.095 546.022C478.368 545.543 478.505 544.961 478.505 544.276C478.505 543.592 478.374 543.015 478.112 542.548C477.849 542.068 477.501 541.709 477.068 541.469C476.634 541.23 476.166 541.11 475.664 541.11C475.162 541.11 474.694 541.23 474.26 541.469C473.838 541.709 473.502 542.068 473.251 542.548C473 543.015 472.874 543.592 472.874 544.276C472.874 545.292 473.131 546.079 473.644 546.638C474.169 547.186 474.825 547.46 475.613 547.46Z"
  ></path>
  <path
    style="fill: var(--color-illustrationInterface070)"
    d="M490.978 539.569V549H489.027V547.888C488.719 548.276 488.314 548.584 487.811 548.812C487.321 549.029 486.796 549.137 486.237 549.137C485.495 549.137 484.828 548.983 484.234 548.675C483.652 548.367 483.19 547.911 482.848 547.306C482.517 546.701 482.351 545.971 482.351 545.115V539.569H484.285V544.824C484.285 545.668 484.497 546.319 484.919 546.775C485.341 547.22 485.917 547.443 486.648 547.443C487.378 547.443 487.954 547.22 488.376 546.775C488.81 546.319 489.027 545.668 489.027 544.824V539.569H490.978Z"
  ></path>
  <path
    style="fill: var(--color-illustrationInterface070)"
    d="M498.311 539.415C499.053 539.415 499.715 539.569 500.296 539.877C500.89 540.185 501.352 540.642 501.683 541.247C502.014 541.851 502.179 542.582 502.179 543.438V549H500.245V543.729C500.245 542.884 500.034 542.239 499.612 541.794C499.19 541.338 498.613 541.11 497.883 541.11C497.153 541.11 496.571 541.338 496.137 541.794C495.715 542.239 495.504 542.884 495.504 543.729V549H493.553V539.569H495.504V540.648C495.823 540.26 496.228 539.957 496.719 539.74C497.221 539.524 497.752 539.415 498.311 539.415Z"
  ></path>
  <path
    style="fill: var(--color-illustrationInterface070)"
    d="M506.945 541.161V546.382C506.945 546.735 507.025 546.992 507.184 547.152C507.356 547.3 507.641 547.374 508.04 547.374H509.238V549H507.698C506.819 549 506.146 548.795 505.678 548.384C505.21 547.973 504.976 547.306 504.976 546.382V541.161H503.864V539.569H504.976V537.224H506.945V539.569H509.238V541.161H506.945Z"
  ></path>
  <path
    style="fill: var(--color-illustrationInterface070)"
    d="M519.527 539.569L513.741 553.434H511.721L513.639 548.846L509.924 539.569H512.098L514.751 546.758L517.507 539.569H519.527Z"
  ></path>
  <path
    style="fill: var(--color-illustrationInterface070)"
    d="M529.759 552.184C528.641 551.112 527.779 549.748 527.174 548.093C526.581 546.439 526.284 544.664 526.284 542.77C526.284 540.83 526.604 538.999 527.243 537.276C527.893 535.553 528.846 534.132 530.101 533.014H532.121V533.202C530.809 534.412 529.822 535.861 529.16 537.55C528.498 539.238 528.167 540.979 528.167 542.77C528.167 544.493 528.475 546.159 529.091 547.768C529.707 549.377 530.603 550.786 531.779 551.996V552.184H529.759Z"
  ></path>
  <path
    style="fill: var(--color-illustrationInterface070)"
    d="M539.296 549.12C538.189 549.12 537.168 548.864 536.232 548.35C535.308 547.825 534.572 547.101 534.024 546.176C533.488 545.241 533.22 544.191 533.22 543.027C533.22 541.863 533.488 540.819 534.024 539.895C534.572 538.97 535.308 538.251 536.232 537.738C537.168 537.213 538.189 536.95 539.296 536.95C540.414 536.95 541.435 537.213 542.36 537.738C543.295 538.251 544.031 538.97 544.568 539.895C545.104 540.819 545.372 541.863 545.372 543.027C545.372 544.191 545.104 545.241 544.568 546.176C544.031 547.101 543.295 547.825 542.36 548.35C541.435 548.864 540.414 549.12 539.296 549.12ZM539.296 547.426C540.083 547.426 540.785 547.249 541.401 546.895C542.017 546.53 542.497 546.017 542.839 545.355C543.193 544.681 543.37 543.905 543.37 543.027C543.37 542.148 543.193 541.378 542.839 540.716C542.497 540.054 542.017 539.546 541.401 539.193C540.785 538.839 540.083 538.662 539.296 538.662C538.509 538.662 537.807 538.839 537.191 539.193C536.574 539.546 536.089 540.054 535.736 540.716C535.393 541.378 535.222 542.148 535.222 543.027C535.222 543.905 535.393 544.681 535.736 545.355C536.089 546.017 536.574 546.53 537.191 546.895C537.807 547.249 538.509 547.426 539.296 547.426Z"
  ></path>
  <path
    style="fill: var(--color-illustrationInterface070)"
    d="M549.244 540.956C549.575 540.522 550.025 540.157 550.596 539.86C551.166 539.564 551.811 539.415 552.53 539.415C553.352 539.415 554.099 539.621 554.772 540.031C555.457 540.431 555.993 540.996 556.381 541.726C556.769 542.456 556.963 543.295 556.963 544.242C556.963 545.189 556.769 546.039 556.381 546.792C555.993 547.534 555.457 548.116 554.772 548.538C554.099 548.949 553.352 549.155 552.53 549.155C551.811 549.155 551.172 549.012 550.613 548.727C550.054 548.43 549.597 548.065 549.244 547.631V553.485H547.292V539.569H549.244V540.956ZM554.978 544.242C554.978 543.592 554.841 543.033 554.567 542.565C554.304 542.085 553.951 541.726 553.506 541.486C553.072 541.235 552.604 541.11 552.102 541.11C551.611 541.11 551.144 541.235 550.699 541.486C550.265 541.737 549.911 542.103 549.637 542.582C549.375 543.061 549.244 543.626 549.244 544.276C549.244 544.927 549.375 545.497 549.637 545.988C549.911 546.467 550.265 546.832 550.699 547.083C551.144 547.334 551.611 547.46 552.102 547.46C552.604 547.46 553.072 547.334 553.506 547.083C553.951 546.821 554.304 546.444 554.567 545.954C554.841 545.463 554.978 544.893 554.978 544.242Z"
  ></path>
  <path
    style="fill: var(--color-illustrationInterface070)"
    d="M561.169 541.161V546.382C561.169 546.735 561.249 546.992 561.409 547.152C561.58 547.3 561.865 547.374 562.265 547.374H563.463V549H561.922C561.044 549 560.371 548.795 559.903 548.384C559.435 547.973 559.201 547.306 559.201 546.382V541.161H558.088V539.569H559.201V537.224H561.169V539.569H563.463V541.161H561.169Z"
  ></path>
  <path
    style="fill: var(--color-illustrationInterface070)"
    d="M566.254 538.32C565.9 538.32 565.604 538.2 565.364 537.96C565.124 537.721 565.005 537.424 565.005 537.07C565.005 536.717 565.124 536.42 565.364 536.18C565.604 535.941 565.9 535.821 566.254 535.821C566.596 535.821 566.887 535.941 567.127 536.18C567.367 536.42 567.487 536.717 567.487 537.07C567.487 537.424 567.367 537.721 567.127 537.96C566.887 538.2 566.596 538.32 566.254 538.32ZM567.213 539.569V549H565.261V539.569H567.213Z"
  ></path>
  <path
    style="fill: var(--color-illustrationInterface070)"
    d="M573.865 549.155C572.975 549.155 572.171 548.955 571.452 548.555C570.733 548.145 570.168 547.574 569.757 546.844C569.347 546.102 569.141 545.246 569.141 544.276C569.141 543.318 569.352 542.468 569.775 541.726C570.197 540.984 570.773 540.414 571.503 540.014C572.234 539.615 573.049 539.415 573.951 539.415C574.852 539.415 575.668 539.615 576.399 540.014C577.129 540.414 577.705 540.984 578.127 541.726C578.55 542.468 578.761 543.318 578.761 544.276C578.761 545.235 578.544 546.085 578.11 546.827C577.677 547.568 577.083 548.145 576.33 548.555C575.588 548.955 574.767 549.155 573.865 549.155ZM573.865 547.46C574.367 547.46 574.835 547.34 575.269 547.101C575.714 546.861 576.073 546.501 576.347 546.022C576.621 545.543 576.758 544.961 576.758 544.276C576.758 543.592 576.627 543.015 576.364 542.548C576.102 542.068 575.754 541.709 575.32 541.469C574.887 541.23 574.419 541.11 573.917 541.11C573.415 541.11 572.947 541.23 572.513 541.469C572.091 541.709 571.754 542.068 571.503 542.548C571.252 543.015 571.127 543.592 571.127 544.276C571.127 545.292 571.383 546.079 571.897 546.638C572.422 547.186 573.078 547.46 573.865 547.46Z"
  ></path>
  <path
    style="fill: var(--color-illustrationInterface070)"
    d="M585.448 539.415C586.19 539.415 586.852 539.569 587.434 539.877C588.027 540.185 588.489 540.642 588.82 541.247C589.151 541.851 589.316 542.582 589.316 543.438V549H587.382V543.729C587.382 542.884 587.171 542.239 586.749 541.794C586.327 541.338 585.75 541.11 585.02 541.11C584.29 541.11 583.708 541.338 583.274 541.794C582.852 542.239 582.641 542.884 582.641 543.729V549H580.69V539.569H582.641V540.648C582.96 540.26 583.365 539.957 583.856 539.74C584.358 539.524 584.889 539.415 585.448 539.415Z"
  ></path>
  <path
    style="fill: var(--color-illustrationInterface070)"
    d="M591.155 544.242C591.155 543.295 591.349 542.456 591.737 541.726C592.136 540.996 592.673 540.431 593.346 540.031C594.03 539.621 594.784 539.415 595.605 539.415C596.347 539.415 596.992 539.564 597.539 539.86C598.098 540.146 598.544 540.505 598.874 540.939V539.569H600.843V549H598.874V547.597C598.544 548.042 598.093 548.413 597.522 548.71C596.952 549.006 596.301 549.155 595.571 549.155C594.761 549.155 594.019 548.949 593.346 548.538C592.673 548.116 592.136 547.534 591.737 546.792C591.349 546.039 591.155 545.189 591.155 544.242ZM598.874 544.276C598.874 543.626 598.738 543.061 598.464 542.582C598.201 542.103 597.853 541.737 597.42 541.486C596.986 541.235 596.518 541.11 596.016 541.11C595.514 541.11 595.046 541.235 594.612 541.486C594.179 541.726 593.825 542.085 593.551 542.565C593.289 543.033 593.158 543.592 593.158 544.242C593.158 544.893 593.289 545.463 593.551 545.954C593.825 546.444 594.179 546.821 594.612 547.083C595.057 547.334 595.525 547.46 596.016 547.46C596.518 547.46 596.986 547.334 597.42 547.083C597.853 546.832 598.201 546.467 598.464 545.988C598.738 545.497 598.874 544.927 598.874 544.276Z"
  ></path>
  <path
    style="fill: var(--color-illustrationInterface070)"
    d="M605.357 536.334V549H603.406V536.334H605.357Z"
  ></path>
  <path
    style="fill: var(--color-illustrationInterface070)"
    d="M607.44 552.184V551.996C608.615 550.786 609.511 549.377 610.127 547.768C610.743 546.159 611.051 544.493 611.051 542.77C611.051 540.979 610.72 539.238 610.058 537.55C609.397 535.861 608.41 534.412 607.097 533.202V533.014H609.117C610.372 534.132 611.319 535.553 611.958 537.276C612.609 538.999 612.934 540.83 612.934 542.77C612.934 544.664 612.632 546.439 612.027 548.093C611.433 549.748 610.578 551.112 609.459 552.184H607.44Z"
  ></path>
  <path
    style="fill: var(--color-illustrationInterface010)"
    d="M458 708.165C458 703.656 461.656 700 466.165 700H1019.84C1024.34 700 1028 703.656 1028 708.165V752.835C1028 757.344 1024.34 761 1019.84 761H466.165C461.656 761 458 757.344 458 752.835V708.165Z"
  ></path>
  <path
    style="fill: var(--color-illustrationInterface070)"
    d="M466.602 675.647C466.602 676.252 466.459 676.823 466.174 677.359C465.889 677.895 465.432 678.335 464.805 678.677C464.177 679.008 463.373 679.173 462.391 679.173H460.234V684H458.283V672.104H462.391C463.304 672.104 464.074 672.264 464.702 672.583C465.341 672.892 465.814 673.314 466.123 673.85C466.442 674.386 466.602 674.986 466.602 675.647ZM462.391 677.582C463.133 677.582 463.686 677.416 464.051 677.085C464.417 676.743 464.599 676.264 464.599 675.647C464.599 674.346 463.863 673.696 462.391 673.696H460.234V677.582H462.391Z"
  ></path>
  <path
    style="fill: var(--color-illustrationInterface070)"
    d="M472.554 684.154C471.664 684.154 470.859 683.955 470.14 683.555C469.421 683.144 468.857 682.574 468.446 681.844C468.035 681.102 467.83 680.246 467.83 679.276C467.83 678.318 468.041 677.467 468.463 676.726C468.885 675.984 469.461 675.413 470.192 675.014C470.922 674.615 471.738 674.415 472.639 674.415C473.541 674.415 474.357 674.615 475.087 675.014C475.817 675.413 476.393 675.984 476.816 676.726C477.238 677.467 477.449 678.318 477.449 679.276C477.449 680.235 477.232 681.085 476.799 681.826C476.365 682.568 475.772 683.144 475.018 683.555C474.277 683.955 473.455 684.154 472.554 684.154ZM472.554 682.46C473.056 682.46 473.524 682.34 473.957 682.1C474.402 681.861 474.762 681.501 475.036 681.022C475.309 680.543 475.446 679.961 475.446 679.276C475.446 678.591 475.315 678.015 475.053 677.547C474.79 677.068 474.442 676.709 474.009 676.469C473.575 676.229 473.107 676.109 472.605 676.109C472.103 676.109 471.635 676.229 471.201 676.469C470.779 676.709 470.443 677.068 470.192 677.547C469.941 678.015 469.815 678.591 469.815 679.276C469.815 680.292 470.072 681.079 470.585 681.638C471.11 682.186 471.766 682.46 472.554 682.46Z"
  ></path>
  <path
    style="fill: var(--color-illustrationInterface070)"
    d="M482.801 684.154C482.06 684.154 481.392 684.023 480.799 683.761C480.217 683.487 479.755 683.122 479.412 682.665C479.07 682.197 478.887 681.678 478.864 681.108H480.884C480.918 681.507 481.107 681.844 481.449 682.117C481.803 682.38 482.242 682.511 482.767 682.511C483.315 682.511 483.737 682.408 484.034 682.203C484.342 681.986 484.496 681.712 484.496 681.381C484.496 681.028 484.325 680.765 483.982 680.594C483.651 680.423 483.121 680.235 482.39 680.029C481.683 679.835 481.107 679.647 480.662 679.464C480.217 679.282 479.829 679.002 479.498 678.626C479.178 678.249 479.019 677.753 479.019 677.136C479.019 676.634 479.167 676.178 479.464 675.767C479.76 675.345 480.182 675.014 480.73 674.774C481.289 674.535 481.928 674.415 482.647 674.415C483.72 674.415 484.581 674.689 485.232 675.237C485.894 675.773 486.247 676.509 486.293 677.445H484.342C484.308 677.022 484.136 676.686 483.828 676.435C483.52 676.184 483.104 676.058 482.579 676.058C482.065 676.058 481.672 676.155 481.398 676.349C481.124 676.543 480.987 676.8 480.987 677.119C480.987 677.37 481.078 677.582 481.261 677.753C481.443 677.924 481.666 678.061 481.928 678.163C482.191 678.255 482.579 678.375 483.092 678.523C483.777 678.705 484.336 678.894 484.77 679.088C485.215 679.27 485.597 679.544 485.916 679.909C486.236 680.275 486.401 680.759 486.413 681.364C486.413 681.901 486.264 682.38 485.968 682.802C485.671 683.224 485.249 683.555 484.701 683.795C484.165 684.034 483.532 684.154 482.801 684.154Z"
  ></path>
  <path
    style="fill: var(--color-illustrationInterface070)"
    d="M490.798 676.161V681.381C490.798 681.735 490.878 681.992 491.037 682.152C491.209 682.3 491.494 682.374 491.893 682.374H493.091V684H491.551C490.672 684 489.999 683.795 489.531 683.384C489.063 682.973 488.829 682.306 488.829 681.381V676.161H487.717V674.569H488.829V672.224H490.798V674.569H493.091V676.161H490.798Z"
  ></path>
  <path
    style="fill: var(--color-illustrationInterface070)"
    d="M494.239 679.276C494.239 678.306 494.433 677.456 494.821 676.726C495.221 675.984 495.768 675.413 496.465 675.014C497.161 674.615 497.959 674.415 498.861 674.415C500.002 674.415 500.943 674.689 501.685 675.237C502.438 675.773 502.946 676.543 503.208 677.547H501.103C500.932 677.079 500.658 676.714 500.281 676.452C499.905 676.189 499.431 676.058 498.861 676.058C498.062 676.058 497.423 676.343 496.944 676.914C496.476 677.473 496.242 678.26 496.242 679.276C496.242 680.292 496.476 681.085 496.944 681.655C497.423 682.226 498.062 682.511 498.861 682.511C499.99 682.511 500.738 682.015 501.103 681.022H503.208C502.935 681.98 502.421 682.745 501.668 683.316C500.915 683.875 499.979 684.154 498.861 684.154C497.959 684.154 497.161 683.955 496.465 683.555C495.768 683.144 495.221 682.574 494.821 681.844C494.433 681.102 494.239 680.246 494.239 679.276Z"
  ></path>
  <path
    style="fill: var(--color-illustrationInterface070)"
    d="M509.244 684.154C508.354 684.154 507.549 683.955 506.83 683.555C506.112 683.144 505.547 682.574 505.136 681.844C504.725 681.102 504.52 680.246 504.52 679.276C504.52 678.318 504.731 677.467 505.153 676.726C505.575 675.984 506.151 675.413 506.882 675.014C507.612 674.615 508.428 674.415 509.329 674.415C510.231 674.415 511.047 674.615 511.777 675.014C512.507 675.413 513.084 675.984 513.506 676.726C513.928 677.467 514.139 678.318 514.139 679.276C514.139 680.235 513.922 681.085 513.489 681.826C513.055 682.568 512.462 683.144 511.709 683.555C510.967 683.955 510.145 684.154 509.244 684.154ZM509.244 682.46C509.746 682.46 510.214 682.34 510.647 682.1C511.092 681.861 511.452 681.501 511.726 681.022C512 680.543 512.137 679.961 512.137 679.276C512.137 678.591 512.005 678.015 511.743 677.547C511.48 677.068 511.132 676.709 510.699 676.469C510.265 676.229 509.797 676.109 509.295 676.109C508.793 676.109 508.325 676.229 507.892 676.469C507.469 676.709 507.133 677.068 506.882 677.547C506.631 678.015 506.505 678.591 506.505 679.276C506.505 680.292 506.762 681.079 507.275 681.638C507.8 682.186 508.456 682.46 509.244 682.46Z"
  ></path>
  <path
    style="fill: var(--color-illustrationInterface070)"
    d="M515.418 679.242C515.418 678.295 515.612 677.456 516 676.726C516.399 675.995 516.935 675.431 517.609 675.031C518.293 674.62 519.052 674.415 519.885 674.415C520.501 674.415 521.106 674.552 521.699 674.826C522.304 675.088 522.783 675.442 523.137 675.887V671.334H525.106V684H523.137V682.58C522.818 683.036 522.373 683.413 521.802 683.709C521.243 684.006 520.598 684.154 519.868 684.154C519.046 684.154 518.293 683.949 517.609 683.538C516.935 683.116 516.399 682.534 516 681.792C515.612 681.039 515.418 680.189 515.418 679.242ZM523.137 679.276C523.137 678.626 523 678.061 522.726 677.582C522.464 677.102 522.116 676.737 521.682 676.486C521.249 676.235 520.781 676.109 520.279 676.109C519.777 676.109 519.309 676.235 518.875 676.486C518.442 676.726 518.088 677.085 517.814 677.564C517.552 678.032 517.42 678.591 517.42 679.242C517.42 679.892 517.552 680.463 517.814 680.953C518.088 681.444 518.442 681.821 518.875 682.083C519.32 682.334 519.788 682.46 520.279 682.46C520.781 682.46 521.249 682.334 521.682 682.083C522.116 681.832 522.464 681.467 522.726 680.988C523 680.497 523.137 679.926 523.137 679.276Z"
  ></path>
  <path
    style="fill: var(--color-illustrationInterface070)"
    d="M536.312 679.054C536.312 679.407 536.29 679.727 536.244 680.012H529.038C529.095 680.765 529.374 681.37 529.877 681.826C530.379 682.283 530.995 682.511 531.725 682.511C532.775 682.511 533.517 682.072 533.95 681.193H536.056C535.77 682.06 535.251 682.774 534.498 683.333C533.756 683.88 532.832 684.154 531.725 684.154C530.824 684.154 530.014 683.955 529.295 683.555C528.587 683.144 528.028 682.574 527.617 681.844C527.218 681.102 527.018 680.246 527.018 679.276C527.018 678.306 527.212 677.456 527.6 676.726C527.999 675.984 528.553 675.413 529.26 675.014C529.979 674.615 530.801 674.415 531.725 674.415C532.615 674.415 533.408 674.609 534.104 674.997C534.8 675.385 535.342 675.933 535.73 676.64C536.118 677.336 536.312 678.141 536.312 679.054ZM534.276 678.437C534.264 677.718 534.007 677.142 533.505 676.709C533.003 676.275 532.381 676.058 531.64 676.058C530.966 676.058 530.39 676.275 529.911 676.709C529.432 677.131 529.146 677.707 529.055 678.437H534.276Z"
  ></path>
</svg>
