<svg id="theme-fonts-buttonnocrop" style="width: 100%; height: 100%" width="1490" height="838" viewBox="0 0 1490 838" fill="none" xmlns="http://www.w3.org/2000/svg" class="css-0"><g clip-path="url(#nk-596)"><rect style="fill:var(--color-illustrationBackground020)" width="1490" height="838"></rect><rect style="fill:var(--color-whiteTint030)" x="396" y="267" width="699" height="295" rx="88"></rect><path style="fill:var(--color-illustrationPalette010)" opacity="0.5" d="M499 337H993V492H499V337Z"></path><g opacity="0.25"><path style="fill:var(--color-illustrationShadow010)" d="M499 341.758L503.758 337H508L499 346V341.758Z"></path><path style="fill:var(--color-illustrationShadow010)" d="M499 364V359.758L521.758 337H526L499 364Z"></path><path style="fill:var(--color-illustrationShadow010)" d="M499 382V377.758L539.758 337H544L499 382Z"></path><path style="fill:var(--color-illustrationShadow010)" d="M499 400V395.758L557.758 337H562L499 400Z"></path><path style="fill:var(--color-illustrationShadow010)" d="M499 418V413.758L575.758 337H580L499 418Z"></path><path style="fill:var(--color-illustrationShadow010)" d="M499 436V431.758L593.758 337H598L499 436Z"></path><path style="fill:var(--color-illustrationShadow010)" d="M499 454V449.758L611.758 337H616L499 454Z"></path><path style="fill:var(--color-illustrationShadow010)" d="M499 472V467.758L629.758 337H634L499 472Z"></path><path style="fill:var(--color-illustrationShadow010)" d="M499 490V485.758L647.758 337H652L499 490Z"></path><path style="fill:var(--color-illustrationShadow010)" d="M515 492H510.758L665.758 337H670L515 492Z"></path><path style="fill:var(--color-illustrationShadow010)" d="M533 492H528.758L683.758 337H688L533 492Z"></path><path style="fill:var(--color-illustrationShadow010)" d="M551 492H546.758L701.758 337H706L551 492Z"></path><path style="fill:var(--color-illustrationShadow010)" d="M569 492H564.758L719.758 337H724L569 492Z"></path><path style="fill:var(--color-illustrationShadow010)" d="M587 492H582.758L737.758 337H742L587 492Z"></path><path style="fill:var(--color-illustrationShadow010)" d="M605 492H600.758L755.758 337H760L605 492Z"></path><path style="fill:var(--color-illustrationShadow010)" d="M623 492H618.758L773.758 337H778L623 492Z"></path><path style="fill:var(--color-illustrationShadow010)" d="M641 492H636.758L791.758 337H796L641 492Z"></path><path style="fill:var(--color-illustrationShadow010)" d="M659 492H654.758L809.758 337H814L659 492Z"></path><path style="fill:var(--color-illustrationShadow010)" d="M677 492H672.758L827.758 337H832L677 492Z"></path><path style="fill:var(--color-illustrationShadow010)" d="M695 492H690.758L845.758 337H850L695 492Z"></path><path style="fill:var(--color-illustrationShadow010)" d="M713 492H708.758L863.758 337H868L713 492Z"></path><path style="fill:var(--color-illustrationShadow010)" d="M731 492H726.758L881.758 337H886L731 492Z"></path><path style="fill:var(--color-illustrationShadow010)" d="M749 492H744.758L899.758 337H904L749 492Z"></path><path style="fill:var(--color-illustrationShadow010)" d="M767 492H762.758L917.758 337H922L767 492Z"></path><path style="fill:var(--color-illustrationShadow010)" d="M785 492H780.758L935.758 337H940L785 492Z"></path><path style="fill:var(--color-illustrationShadow010)" d="M803 492H798.758L953.758 337H958L803 492Z"></path><path style="fill:var(--color-illustrationShadow010)" d="M821 492H816.758L971.758 337H976L821 492Z"></path><path style="fill:var(--color-illustrationShadow010)" d="M839 492H834.758L989.758 337H993V338L839 492Z"></path><path style="fill:var(--color-illustrationShadow010)" d="M857 492H852.758L993 351.758V356L857 492Z"></path><path style="fill:var(--color-illustrationShadow010)" d="M875 492H870.758L993 369.758V374L875 492Z"></path><path style="fill:var(--color-illustrationShadow010)" d="M893 492H888.758L993 387.758V392L893 492Z"></path><path style="fill:var(--color-illustrationShadow010)" d="M911 492H906.758L993 405.758V410L911 492Z"></path><path style="fill:var(--color-illustrationShadow010)" d="M929 492H924.758L993 423.758V428L929 492Z"></path><path style="fill:var(--color-illustrationShadow010)" d="M947 492H942.758L993 441.758V446L947 492Z"></path><path style="fill:var(--color-illustrationShadow010)" d="M965 492H960.758L993 459.758V464L965 492Z"></path><path style="fill:var(--color-illustrationShadow010)" d="M983 492H978.758L993 477.758V482L983 492Z"></path></g><path style="fill:var(--color-illustrationPalette050)" d="M579.883 375.44C574.029 372.916 562.057 368 548.088 368C519.354 368 499 389.656 499 414.633C499 435.757 514.165 461 547.822 461C559.396 461 570.304 458.741 580.814 453.029V438.813C571.236 445.057 560.061 448.91 548.62 448.91C524.542 448.91 512.569 431.639 512.569 414.766C512.569 396.564 526.537 380.356 548.487 380.356C559.529 380.356 570.304 383.943 579.883 389.39V375.44Z"></path><path style="fill:var(--color-illustrationPalette050)" d="M623.784 398.956C603.829 398.956 591.59 413.171 591.59 429.911C591.59 446.917 604.228 461 623.385 461C638.151 461 655.445 451.434 655.445 430.177C655.445 411.311 641.61 398.956 623.784 398.956ZM623.119 409.584C631.633 409.584 643.339 414.899 643.339 429.911C643.339 442.001 635.357 450.371 623.651 450.371C614.871 450.371 603.696 445.057 603.696 430.044C603.696 416.891 612.476 409.584 623.119 409.584Z"></path><path style="fill:var(--color-illustrationPalette050)" d="M668.317 400.151V459.804H680.423V417.157C684.014 411.976 689.07 408.787 694.524 408.787C698.515 408.787 701.175 409.983 703.437 412.507C706.63 416.094 706.63 419.416 706.63 425.793V459.804H718.602V425.793C718.602 414.899 717.139 411.444 715.277 408.521C710.355 400.284 702.107 398.956 698.382 398.956C692.794 398.956 685.744 401.746 680.423 407.724V400.151H668.317Z"></path><path style="fill:var(--color-illustrationPalette050)" d="M748.933 387.796L726.717 409.584V410.78H737.094V437.219C737.094 442.666 737.094 449.043 740.02 453.427C744.144 459.273 751.461 461 755.585 461C759.044 461 765.296 460.07 770.883 457.014V445.987C764.365 449.973 759.842 450.239 757.447 450.239C756.25 450.239 753.323 450.106 751.062 447.714C749.199 445.589 749.066 444.26 748.933 436.82V410.78H767.824V400.151H748.933V387.796Z"></path><path style="fill:var(--color-illustrationPalette050)" d="M787.337 375.041C783.346 375.041 780.419 378.629 780.419 381.95C780.419 384.873 782.814 388.991 787.337 388.991C791.195 388.991 794.387 385.67 794.387 381.95C794.387 378.23 791.328 375.041 787.337 375.041ZM793.323 400.151H781.483V459.804H793.323V400.151Z"></path><path style="fill:var(--color-illustrationPalette050)" d="M810.052 400.151V459.804H822.157V417.157C825.749 411.976 830.804 408.787 836.259 408.787C840.25 408.787 842.91 409.983 845.172 412.507C848.364 416.094 848.364 419.416 848.364 425.793V459.804H860.337V425.793C860.337 414.899 858.874 411.444 857.011 408.521C852.089 400.284 843.841 398.956 840.117 398.956C834.529 398.956 827.479 401.746 822.157 407.724V400.151H810.052Z"></path><path style="fill:var(--color-illustrationPalette050)" d="M925.42 459.804V400.151H913.448V442.799C909.856 447.847 904.801 451.169 899.213 451.169C887.108 451.169 887.108 440.939 887.108 434.163V400.151H875.135V434.163C875.135 445.057 876.598 448.511 878.461 451.434C883.383 459.671 891.631 461 895.355 461C900.943 461 907.993 458.21 913.448 452.231V459.804H925.42Z"></path><path style="fill:var(--color-illustrationPalette050)" d="M991.936 442.4C985.55 447.05 977.968 449.707 970.252 449.707C957.215 449.707 951.361 439.876 950.962 430.974H993C993 428.716 993 426.059 992.335 422.073C990.339 408.92 980.894 398.956 966.926 398.956C950.696 398.956 938.99 411.046 938.99 429.646C938.99 435.359 940.054 444.526 947.903 452.63C955.086 460.07 962.27 461 968.522 461C981.027 461 987.812 456.616 991.936 453.959V442.4ZM951.228 423.933C951.627 421.276 952.16 417.689 955.352 414.234C958.545 410.647 963.068 409.186 966.793 409.186C980.229 409.186 981.16 421.541 981.293 423.933H951.228Z"></path><rect x="396" y="267" width="699" height="295" rx="88" stroke="#8883F6" stroke-width="6" stroke-linecap="round" stroke-dasharray="10 20"></rect></g><defs><clipPath id="nk-596"><rect style="fill:var(--color-white)" width="1490" height="838"></rect></clipPath></defs></svg>