<svg id="nksvg" width="1490" height="838" viewBox="0 0 1490 838" fill="none" xmlns="http://www.w3.org/2000/svg">
<rect width="1490" height="838" fill="var(--color-illustrationBackground020)"/>
<path d="M686.098 232.5C576.228 261.94 510.972 374.667 540.344 484.284C569.716 593.902 682.593 658.898 792.463 629.459C902.332 600.02 967.588 487.292 938.216 377.675C908.844 268.058 795.967 203.061 686.098 232.5Z" fill="#254CAC"/>
<path d="M646.113 247.765C658.636 241.427 672 236.278 686.098 232.5C795.967 203.061 908.844 268.058 938.216 377.675C959.513 457.157 931.059 538.275 871.921 588.091C871.357 588.37 870.792 588.646 870.226 588.92C813.731 616.201 754.339 614.374 712.648 590.731C692.458 579.281 684.426 558.066 674.795 532.629C664.538 505.538 652.468 473.658 621.969 443.686C569.184 391.814 599.628 295.022 646.113 247.765Z" fill="#3358CC"/>
<path d="M801.357 234.93C768.913 253.575 729.492 276.803 720.554 308.842C710.892 343.48 726.463 373.175 746.339 407.59C753.066 419.239 757.326 433.353 761.483 447.125C768.756 471.222 775.713 494.272 795.02 501.235C796.553 501.787 869.609 522.588 914.724 501.316C923.424 497.214 930.948 492.206 937.498 486.557C947.261 452.132 948.144 414.726 938.216 377.675C919.366 307.327 866.125 255.356 801.357 234.93Z" fill="#446BE4"/>
<path d="M862.694 266.313C850.471 274.662 839.733 284.481 836.397 296.441C830.852 316.318 839.788 333.359 851.194 353.108C855.055 359.793 857.5 367.893 859.885 375.796C864.059 389.625 868.051 402.852 879.13 406.848C879.968 407.15 918.031 417.99 944.019 408.479C942.887 398.231 940.966 387.939 938.216 377.675C925.795 331.319 898.44 292.942 862.694 266.313Z" fill="#577FFB"/>
<path d="M443 242.5C443 290.825 403.825 330 355.5 330C307.175 330 268 290.825 268 242.5C268 194.175 307.175 155 355.5 155C403.825 155 443 194.175 443 242.5Z" fill="#8BA6F6"/>
<path d="M1124 505C1124 538.137 1097.14 565 1064 565C1030.86 565 1004 538.137 1004 505C1004 471.863 1030.86 445 1064 445C1097.14 445 1124 471.863 1124 505Z" fill="#254CAC"/>
<path d="M504 613C504 633.987 486.987 651 466 651C445.013 651 428 633.987 428 613C428 592.013 445.013 575 466 575C486.987 575 504 592.013 504 613Z" fill="#254CAC"/>
<path d="M649 155C649 163.837 641.837 171 633 171C624.163 171 617 163.837 617 155C617 146.163 624.163 139 633 139C641.837 139 649 146.163 649 155Z" fill="#254CAC"/>
<path d="M1242 266.5C1242 279.479 1231.48 290 1218.5 290C1205.52 290 1195 279.479 1195 266.5C1195 253.521 1205.52 243 1218.5 243C1231.48 243 1242 253.521 1242 266.5Z" fill="#AEBFFF"/>
<path d="M1205 682C1205 691.941 1196.94 700 1187 700C1177.06 700 1169 691.941 1169 682C1169 672.059 1177.06 664 1187 664C1196.94 664 1205 672.059 1205 682Z" fill="#577FFB"/>
<path d="M268 485.5C268 490.747 263.747 495 258.5 495C253.253 495 249 490.747 249 485.5C249 480.253 253.253 476 258.5 476C263.747 476 268 480.253 268 485.5Z" fill="#AEBFFF"/>
<path d="M722.918 424.964L644.819 368.429C639.893 364.862 633 368.382 633 374.464V487.536C633 493.618 639.893 497.138 644.819 493.571L722.918 437.036C727.027 434.061 727.027 427.939 722.918 424.964Z" fill="white"/>
<path d="M766 378C766 375.791 767.791 374 770 374H792C794.209 374 796 375.791 796 378V483C796 485.209 794.209 487 792 487H770C767.791 487 766 485.209 766 483V378Z" fill="white"/>
<path d="M824 374C821.791 374 820 375.791 820 378V483C820 485.209 821.791 487 824 487H846C848.209 487 850 485.209 850 483V378C850 375.791 848.209 374 846 374H824Z" fill="white"/>
</svg>
