<svg id="components-select-states-hover" style="width: 100%; height: 100%" width="1490" height="838" viewBox="0 0 1490 838" fill="none" xmlns="http://www.w3.org/2000/svg" class="css-0"><path style="fill:var(--color-illustrationBackground020)" d="M0 0H1490V838H0V0Z"></path><rect style="fill:var(--color-illustrationInterface020)" x="371.452" y="332.452" width="748.097" height="180.197" rx="21.5485"></rect><path style="fill:var(--color-illustrationHighlight010)" d="M434.645 441.813C431.596 441.813 428.943 441.259 426.686 440.15C424.429 439.041 422.686 437.497 421.459 435.517C420.231 433.537 419.617 431.24 419.617 428.626H424.844C424.844 430.25 425.221 431.755 425.973 433.141C426.725 434.487 427.814 435.576 429.24 436.408C430.705 437.2 432.507 437.596 434.645 437.596C437.457 437.596 439.635 436.922 441.179 435.576C442.724 434.23 443.496 432.547 443.496 430.527C443.496 428.864 443.14 427.537 442.427 426.547C441.714 425.518 440.744 424.686 439.516 424.052C438.328 423.419 436.942 422.864 435.358 422.389C433.814 421.914 432.19 421.379 430.487 420.785C427.28 419.677 424.904 418.31 423.359 416.687C421.815 415.024 421.043 412.865 421.043 410.212C421.003 407.994 421.518 406.034 422.587 404.331C423.656 402.589 425.161 401.243 427.102 400.292C429.082 399.302 431.418 398.807 434.111 398.807C436.764 398.807 439.061 399.302 441.001 400.292C442.981 401.282 444.506 402.648 445.575 404.391C446.684 406.133 447.258 408.113 447.298 410.331H442.071C442.071 409.182 441.774 408.054 441.179 406.945C440.585 405.797 439.675 404.866 438.447 404.153C437.259 403.44 435.754 403.084 433.933 403.084C431.675 403.044 429.814 403.619 428.349 404.807C426.923 405.995 426.211 407.638 426.211 409.737C426.211 411.519 426.706 412.885 427.696 413.836C428.725 414.786 430.151 415.578 431.972 416.212C433.794 416.806 435.893 417.499 438.269 418.291C440.249 419.003 442.031 419.835 443.615 420.785C445.199 421.736 446.427 422.963 447.298 424.468C448.209 425.973 448.664 427.894 448.664 430.23C448.664 432.21 448.149 434.091 447.12 435.873C446.09 437.615 444.526 439.041 442.427 440.15C440.368 441.259 437.774 441.813 434.645 441.813Z"></path><path style="fill:var(--color-illustrationHighlight010)" d="M468.689 441.813C465.878 441.813 463.383 441.179 461.205 439.912C459.027 438.605 457.304 436.804 456.037 434.507C454.809 432.21 454.196 429.497 454.196 426.369C454.196 423.28 454.809 420.587 456.037 418.291C457.265 415.954 458.967 414.152 461.145 412.885C463.363 411.578 465.917 410.925 468.808 410.925C471.659 410.925 474.114 411.578 476.174 412.885C478.273 414.152 479.876 415.835 480.985 417.934C482.094 420.033 482.648 422.29 482.648 424.706C482.648 425.141 482.629 425.577 482.589 426.013C482.589 426.448 482.589 426.943 482.589 427.498H459.126C459.245 429.755 459.759 431.636 460.67 433.141C461.621 434.606 462.789 435.715 464.175 436.467C465.6 437.219 467.105 437.596 468.689 437.596C470.748 437.596 472.471 437.12 473.857 436.17C475.243 435.22 476.253 433.933 476.887 432.309H481.817C481.025 435.041 479.5 437.318 477.243 439.14C475.025 440.922 472.174 441.813 468.689 441.813ZM468.689 415.142C466.313 415.142 464.195 415.875 462.333 417.34C460.512 418.766 459.462 420.865 459.185 423.637H477.718C477.599 420.983 476.688 418.904 474.986 417.4C473.283 415.895 471.184 415.142 468.689 415.142Z"></path><path style="fill:var(--color-illustrationHighlight010)" d="M489.262 441.1V398.332H494.251V441.1H489.262Z"></path><path style="fill:var(--color-illustrationHighlight010)" d="M515.676 441.813C512.864 441.813 510.369 441.179 508.191 439.912C506.013 438.605 504.291 436.804 503.024 434.507C501.796 432.21 501.182 429.497 501.182 426.369C501.182 423.28 501.796 420.587 503.024 418.291C504.251 415.954 505.954 414.152 508.132 412.885C510.35 411.578 512.904 410.925 515.795 410.925C518.646 410.925 521.101 411.578 523.16 412.885C525.259 414.152 526.863 415.835 527.972 417.934C529.08 420.033 529.635 422.29 529.635 424.706C529.635 425.141 529.615 425.577 529.576 426.013C529.576 426.448 529.576 426.943 529.576 427.498H506.112C506.231 429.755 506.746 431.636 507.657 433.141C508.607 434.606 509.775 435.715 511.161 436.467C512.587 437.219 514.092 437.596 515.676 437.596C517.735 437.596 519.458 437.12 520.844 436.17C522.23 435.22 523.239 433.933 523.873 432.309H528.803C528.011 435.041 526.487 437.318 524.229 439.14C522.012 440.922 519.161 441.813 515.676 441.813ZM515.676 415.142C513.3 415.142 511.181 415.875 509.32 417.34C507.498 418.766 506.449 420.865 506.172 423.637H524.705C524.586 420.983 523.675 418.904 521.972 417.4C520.269 415.895 518.171 415.142 515.676 415.142Z"></path><path style="fill:var(--color-illustrationHighlight010)" d="M549.792 441.813C546.98 441.813 544.446 441.179 542.188 439.912C539.971 438.605 538.208 436.804 536.902 434.507C535.634 432.17 535.001 429.458 535.001 426.369C535.001 423.28 535.634 420.587 536.902 418.291C538.208 415.954 539.971 414.152 542.188 412.885C544.446 411.578 546.98 410.925 549.792 410.925C553.276 410.925 556.207 411.836 558.583 413.657C560.998 415.479 562.523 417.914 563.157 420.964H558.048C557.652 419.142 556.682 417.736 555.138 416.746C553.593 415.717 551.791 415.202 549.732 415.202C548.069 415.202 546.505 415.618 545.04 416.449C543.574 417.281 542.386 418.528 541.476 420.191C540.565 421.855 540.109 423.914 540.109 426.369C540.109 428.824 540.565 430.883 541.476 432.547C542.386 434.21 543.574 435.477 545.04 436.348C546.505 437.18 548.069 437.596 549.732 437.596C551.791 437.596 553.593 437.101 555.138 436.111C556.682 435.081 557.652 433.636 558.048 431.774H563.157C562.563 434.744 561.058 437.16 558.642 439.021C556.227 440.882 553.276 441.813 549.792 441.813Z"></path><path style="fill:var(--color-illustrationHighlight010)" d="M580.955 441.1C578.263 441.1 576.144 440.447 574.6 439.14C573.055 437.833 572.283 435.477 572.283 432.071V415.855H567.174V411.638H572.283L572.936 404.569H577.273V411.638H585.945V415.855H577.273V432.071C577.273 433.933 577.649 435.2 578.401 435.873C579.154 436.507 580.48 436.823 582.381 436.823H585.47V441.1H580.955Z"></path><path style="fill:var(--color-illustrationHighlight010)" d="M621.429 441.813C618.657 441.813 616.162 441.179 613.944 439.912C611.727 438.645 609.965 436.863 608.658 434.566C607.391 432.23 606.757 429.497 606.757 426.369C606.757 423.241 607.41 420.528 608.717 418.231C610.024 415.895 611.786 414.093 614.004 412.826C616.261 411.558 618.776 410.925 621.548 410.925C624.32 410.925 626.814 411.558 629.032 412.826C631.25 414.093 632.992 415.895 634.259 418.231C635.566 420.528 636.219 423.241 636.219 426.369C636.219 429.497 635.566 432.23 634.259 434.566C632.952 436.863 631.17 438.645 628.913 439.912C626.696 441.179 624.201 441.813 621.429 441.813ZM621.429 437.536C623.132 437.536 624.716 437.12 626.181 436.289C627.646 435.457 628.834 434.21 629.745 432.547C630.656 430.883 631.111 428.824 631.111 426.369C631.111 423.914 630.656 421.855 629.745 420.191C628.874 418.528 627.705 417.281 626.24 416.449C624.775 415.618 623.211 415.202 621.548 415.202C619.845 415.202 618.261 415.618 616.796 416.449C615.33 417.281 614.142 418.528 613.232 420.191C612.321 421.855 611.865 423.914 611.865 426.369C611.865 428.824 612.321 430.883 613.232 432.547C614.142 434.21 615.311 435.457 616.736 436.289C618.201 437.12 619.766 437.536 621.429 437.536Z"></path><path style="fill:var(--color-illustrationHighlight010)" d="M643.157 454.168V411.638H647.672L648.147 416.509C649.097 415.083 650.444 413.796 652.186 412.648C653.968 411.499 656.225 410.925 658.958 410.925C661.888 410.925 664.442 411.598 666.62 412.945C668.798 414.291 670.481 416.132 671.669 418.469C672.897 420.805 673.511 423.458 673.511 426.428C673.511 429.398 672.897 432.052 671.669 434.388C670.481 436.685 668.779 438.506 666.561 439.853C664.383 441.16 661.829 441.813 658.898 441.813C656.483 441.813 654.324 441.318 652.424 440.328C650.562 439.338 649.137 437.952 648.147 436.17V454.168H643.157ZM658.364 437.477C660.344 437.477 662.086 437.021 663.591 436.111C665.096 435.16 666.284 433.853 667.155 432.19C668.026 430.527 668.462 428.587 668.462 426.369C668.462 424.151 668.026 422.211 667.155 420.548C666.284 418.885 665.096 417.598 663.591 416.687C662.086 415.736 660.344 415.261 658.364 415.261C656.384 415.261 654.641 415.736 653.136 416.687C651.632 417.598 650.444 418.885 649.572 420.548C648.701 422.211 648.266 424.151 648.266 426.369C648.266 428.587 648.701 430.527 649.572 432.19C650.444 433.853 651.632 435.16 653.136 436.111C654.641 437.021 656.384 437.477 658.364 437.477Z"></path><path style="fill:var(--color-illustrationHighlight010)" d="M690.939 441.1C688.246 441.1 686.127 440.447 684.583 439.14C683.038 437.833 682.266 435.477 682.266 432.071V415.855H677.158V411.638H682.266L682.92 404.569H687.256V411.638H695.928V415.855H687.256V432.071C687.256 433.933 687.632 435.2 688.385 435.873C689.137 436.507 690.464 436.823 692.364 436.823H695.453V441.1H690.939Z"></path><path style="fill:var(--color-illustrationHighlight010)" d="M705.297 405.104C704.307 405.104 703.475 404.787 702.802 404.153C702.168 403.48 701.852 402.648 701.852 401.658C701.852 400.708 702.168 399.916 702.802 399.282C703.475 398.649 704.307 398.332 705.297 398.332C706.247 398.332 707.059 398.649 707.732 399.282C708.406 399.916 708.742 400.708 708.742 401.658C708.742 402.648 708.406 403.48 707.732 404.153C707.059 404.787 706.247 405.104 705.297 405.104ZM702.802 441.1V411.638H707.792V441.1H702.802Z"></path><path style="fill:var(--color-illustrationHighlight010)" d="M729.904 441.813C727.132 441.813 724.637 441.179 722.42 439.912C720.202 438.645 718.44 436.863 717.133 434.566C715.866 432.23 715.232 429.497 715.232 426.369C715.232 423.241 715.885 420.528 717.192 418.231C718.499 415.895 720.261 414.093 722.479 412.826C724.736 411.558 727.251 410.925 730.023 410.925C732.795 410.925 735.29 411.558 737.507 412.826C739.725 414.093 741.467 415.895 742.734 418.231C744.041 420.528 744.695 423.241 744.695 426.369C744.695 429.497 744.041 432.23 742.734 434.566C741.428 436.863 739.646 438.645 737.388 439.912C735.171 441.179 732.676 441.813 729.904 441.813ZM729.904 437.536C731.607 437.536 733.191 437.12 734.656 436.289C736.121 435.457 737.309 434.21 738.22 432.547C739.131 430.883 739.586 428.824 739.586 426.369C739.586 423.914 739.131 421.855 738.22 420.191C737.349 418.528 736.181 417.281 734.715 416.449C733.25 415.618 731.686 415.202 730.023 415.202C728.32 415.202 726.736 415.618 725.271 416.449C723.806 417.281 722.618 418.528 721.707 420.191C720.796 421.855 720.34 423.914 720.34 426.369C720.34 428.824 720.796 430.883 721.707 432.547C722.618 434.21 723.786 435.457 725.211 436.289C726.677 437.12 728.241 437.536 729.904 437.536Z"></path><path style="fill:var(--color-illustrationHighlight010)" d="M751.632 441.1V411.638H756.147L756.444 416.924C757.394 415.063 758.76 413.598 760.542 412.529C762.324 411.459 764.344 410.925 766.601 410.925C770.086 410.925 772.858 411.994 774.917 414.133C777.016 416.231 778.066 419.479 778.066 423.874V441.1H773.076V424.409C773.076 418.271 770.541 415.202 765.473 415.202C762.938 415.202 760.82 416.132 759.117 417.994C757.454 419.815 756.622 422.429 756.622 425.834V441.1H751.632Z"></path><mask id="nk-1359" mask-type="alpha" maskUnits="userSpaceOnUse" x="984" y="378" width="90" height="90"><path d="M1046.49 409.886L1029.45 426.89L1012.41 409.886L1007.17 415.121L1029.45 437.396L1051.73 415.121L1046.49 409.886Z" fill="#0A0A0A"></path></mask><g mask="url(#nk-1359)"><rect style="fill:var(--color-illustrationHighlight010)" x="984.899" y="378" width="89.1004" height="89.1004"></rect></g><rect x="371.452" y="332.452" width="748.097" height="180.197" rx="21.5485" stroke="#BBC3C9" stroke-width="4.90307"></rect><g filter="url(#nk-1360)"><path style="fill:var(--color-white)" fill-rule="evenodd" clip-rule="evenodd" d="M862.177 549L855.472 538.755C850.894 531.76 841.142 529.208 833.683 533.043L835.421 532.149C833.57 533.101 832.682 535.474 833.444 537.446L842.725 561.459C844.197 565.265 847.955 570.649 851.068 573.354C851.068 573.354 869.74 588.808 869.74 594.602V601.938H899.99H908.262H915.115H922.677V594.602C922.677 588.808 934.088 570.558 934.088 570.558C936.188 567.011 937.939 560.761 937.939 556.612V526.099C937.802 519.344 932.06 513.869 924.974 513.869C921.429 513.869 918.558 516.606 918.558 519.986V522.43C918.558 515.674 912.816 510.199 905.73 510.199C902.185 510.199 899.314 512.937 899.314 516.316V518.76C899.314 512.005 893.571 506.53 886.486 506.53C882.941 506.53 880.07 509.267 880.07 512.647V515.091C880.07 514.005 879.954 513.142 879.729 512.458L877.772 480.947C877.508 476.686 873.916 473.375 869.74 473.375C865.534 473.375 862.177 476.76 862.177 480.936V511.188V549Z"></path><path style="fill:var(--color-black)" fill-rule="evenodd" clip-rule="evenodd" d="M835.476 532.257C841.479 530.059 848.501 531.581 853.102 535.927C853.99 536.766 854.788 537.711 855.472 538.755L862.177 548.999V480.935C862.177 476.76 865.533 473.374 869.739 473.374C873.916 473.374 877.507 476.685 877.772 480.946L879.729 512.457C879.749 512.519 879.768 512.582 879.787 512.646C879.973 513.298 880.069 514.102 880.069 515.09V512.646C880.069 512.576 880.07 512.506 880.073 512.436C880.074 512.405 880.075 512.374 880.077 512.343C880.242 509.104 883.047 506.529 886.485 506.529C887.157 506.529 887.818 506.578 888.462 506.673C889.981 506.897 891.412 507.375 892.706 508.06C895.93 509.768 898.302 512.762 899.057 516.316C899.225 517.105 899.313 517.923 899.313 518.759V516.316C899.313 512.936 902.184 510.198 905.729 510.198C906.014 510.198 906.297 510.207 906.577 510.225C908.518 510.345 910.34 510.877 911.95 511.73C915.174 513.437 917.546 516.431 918.301 519.985C918.469 520.775 918.557 521.592 918.557 522.429V519.985C918.557 516.605 921.429 513.868 924.973 513.868C925.258 513.868 925.541 513.877 925.821 513.894C932.512 514.31 937.807 519.615 937.938 526.099V556.612C937.938 560.761 936.188 567.01 934.087 570.558C934.087 570.558 922.677 588.807 922.677 594.601V601.937H869.739V594.601C869.739 588.807 851.068 573.353 851.068 573.353C847.954 570.648 844.196 565.265 842.725 561.458L833.443 537.445C832.935 536.129 833.161 534.634 833.918 533.502C834.177 533.116 834.497 532.772 834.871 532.492C835.071 532.41 835.273 532.331 835.476 532.257ZM833.682 533.042C834.072 532.841 834.469 532.658 834.871 532.492C835.043 532.364 835.226 532.248 835.42 532.149L833.682 533.042ZM829.6 525.102C824.742 528.608 822.813 535.113 824.979 540.717L834.26 564.73C836.259 569.902 840.874 576.519 845.117 580.204L845.198 580.275L845.279 580.342L845.281 580.344L845.314 580.371L845.448 580.483C845.57 580.585 845.755 580.741 845.993 580.943C846.47 581.349 847.161 581.942 847.992 582.673C849.665 584.144 851.866 586.138 854.042 588.277C856.258 590.455 858.259 592.599 859.643 594.388C860.119 595.004 860.448 595.484 860.664 595.831V611.012H931.752V594.756C931.752 594.794 931.754 594.814 931.759 594.815C931.79 594.82 931.957 593.967 932.816 591.939C933.727 589.788 935.003 587.246 936.368 584.716C937.718 582.215 939.078 579.866 940.107 578.133C940.62 577.27 941.045 576.568 941.339 576.087C941.487 575.846 941.601 575.661 941.676 575.539L941.76 575.404L941.782 575.369L941.84 575.276L941.896 575.181C943.481 572.505 944.71 569.246 945.545 566.236C946.379 563.231 947.013 559.775 947.013 556.612V526.007L947.012 525.915C946.769 513.928 936.702 504.793 924.973 504.793C923.052 504.793 921.174 505.149 919.428 505.809C915.62 502.853 910.813 501.123 905.729 501.123C903.808 501.123 901.93 501.48 900.183 502.14C896.729 499.458 892.452 497.785 887.892 497.498L886.829 480.383C886.266 471.306 878.677 464.299 869.739 464.299C860.5 464.299 853.102 471.769 853.102 480.935V524.987C846.42 521.661 838.38 521.187 831.306 524.146M860.972 596.395C860.97 596.394 860.954 596.361 860.93 596.298C860.962 596.364 860.974 596.395 860.972 596.395ZM829.6 525.102L829.533 524.971L831.271 524.078"></path></g><defs><filter id="nk-1360" x="726.872" y="409.436" width="316.257" height="316.257" filterUnits="userSpaceOnUse" color-interpolation-filters="sRGB"><feFlood flood-opacity="0" result="BackgroundImageFix"></feFlood><feColorMatrix in="SourceAlpha" type="matrix" values="0 0 0 0 0 0 0 0 0 0 0 0 0 0 0 0 0 0 127 0" result="hardAlpha"></feColorMatrix><feOffset dy="18.5642"></feOffset><feGaussianBlur stdDeviation="18.5642"></feGaussianBlur><feColorMatrix type="matrix" values="0 0 0 0 0.0392157 0 0 0 0 0.0392157 0 0 0 0 0.0392157 0 0 0 0.08 0"></feColorMatrix><feBlend mode="normal" in2="BackgroundImageFix" result="effect1_dropShadow_1310_341883"></feBlend><feBlend mode="normal" in="SourceGraphic" in2="effect1_dropShadow_1310_341883" result="shape"></feBlend></filter></defs></svg>