<svg id="components-grid-cell-anatomy" style="width: 100%; height: 100%" width="1490" height="838" viewBox="0 0 1490 838" fill="none" xmlns="http://www.w3.org/2000/svg" class="css-0"><path style="fill:var(--color-illustrationBackground010)" d="M0 0H1490V838H0V0Z"></path><path style="fill:var(--color-illustrationAnatomyBorder020)" fill-rule="evenodd" clip-rule="evenodd" d="M283 238V234H286.983V236H285V238H283ZM302.914 234H294.949V236H302.914V234ZM310.88 234V236H318.845V234H310.88ZM326.811 234V236H334.776V234H326.811ZM342.742 234V236H350.707V234H342.742ZM358.673 234V236H366.638V234H358.673ZM374.604 234V236H382.569V234H374.604ZM390.535 234V236H398.5V234H390.535ZM406.466 234V236H414.431V234H406.466ZM422.397 234V236H430.362V234H422.397ZM438.328 234V236H446.293V234H438.328ZM454.259 234V236H462.224V234H454.259ZM470.19 234V236H478.155V234H470.19ZM486.121 234V236H494.086V234H486.121ZM502.052 234V236H510.017V234H502.052ZM517.983 234V236H525.948V234H517.983ZM533.914 234V236H541.879V234H533.914ZM549.845 234V236H557.81V234H549.845ZM565.776 234V236H573.742V234H565.776ZM581.707 234V236H589.673V234H581.707ZM597.638 234V236H605.604V234H597.638ZM613.569 234V236H621.535V234H613.569ZM629.5 234V236H637.466V234H629.5ZM645.431 234V236H653.397V234H645.431ZM661.362 234V236H669.328V234H661.362ZM677.293 234V236H685.259V234H677.293ZM693.224 234V236H701.19V234H693.224ZM709.155 234V236H717.121V234H709.155ZM725.086 234V236H733.052V234H725.086ZM741.017 234V236H748.983V234H741.017ZM756.948 234V236H764.914V234H756.948ZM772.879 234V236H780.845V234H772.879ZM788.81 234V236H796.776V234H788.81ZM804.741 234V236H812.707V234H804.741ZM820.672 234V236H828.638V234H820.672ZM836.604 234V236H844.569V234H836.604ZM852.535 234V236H860.5V234H852.535ZM868.466 234V236H876.431V234H868.466ZM884.397 234V236H892.362V234H884.397ZM900.328 234V236H908.293V234H900.328ZM916.259 234V236H924.224V234H916.259ZM932.19 234V236H940.155V234H932.19ZM948.121 234V236H956.086V234H948.121ZM964.052 234V236H972.017V234H964.052ZM979.983 234V236H987.948V234H979.983ZM995.914 234V236H1003.88V234H995.914ZM1011.84 234V236H1019.81V234H1011.84ZM1027.78 234V236H1035.74V234H1027.78ZM1043.71 234V236H1051.67V234H1043.71ZM1059.64 234V236H1067.6V234H1059.64ZM1075.57 234V236H1083.53V234H1075.57ZM1091.5 234V236H1099.47V234H1091.5ZM1107.43 234V236H1115.4V234H1107.43ZM1123.36 234V236H1131.33V234H1123.36ZM1139.29 234V236H1147.26V234H1139.29ZM1155.22 234V236H1163.19V234H1155.22ZM1171.16 234V236H1179.12V234H1171.16ZM1187.09 234V236H1195.05V234H1187.09ZM1203.02 234V236H1205V238H1207V234H1203.02ZM1207 246H1205V254H1207V246ZM1207 262H1205V270H1207V262ZM1207 278H1205V286H1207V278ZM1207 294H1205V302H1207V294ZM1207 310H1205V318H1207V310ZM1207 326H1205V334H1207V326ZM1207 342H1205V350H1207V342ZM1207 358H1205V366H1207V358ZM1207 374H1205V382H1207V374ZM1207 390H1205V398H1207V390ZM1207 406H1205V414H1207V406ZM1207 422H1205V430H1207V422ZM1207 438H1205V446H1207V438ZM1207 454H1205V462H1207V454ZM1207 470H1205V478H1207V470ZM1207 486H1205V494H1207V486ZM1207 502H1205V510H1207V502ZM1207 518H1205V526H1207V518ZM1207 534H1205V542H1207V534ZM1207 550H1205V558H1207V550ZM1207 566H1205V574H1207V566ZM1207 582H1205V590H1207V582ZM1207 598H1205V600H1203.02V602H1207V598ZM1195.05 602V600H1187.09V602H1195.05ZM1179.12 602V600H1171.15V602H1179.12ZM1163.19 602V600H1155.22V602H1163.19ZM1147.26 602V600H1139.29V602H1147.26ZM1131.33 602V600H1123.36V602H1131.33ZM1115.4 602V600H1107.43V602H1115.4ZM1099.47 602V600H1091.5V602H1099.47ZM1083.53 602V600H1075.57V602H1083.53ZM1067.6 602V600H1059.64V602H1067.6ZM1051.67 602V600H1043.71V602H1051.67ZM1035.74 602V600H1027.78V602H1035.74ZM1019.81 602V600H1011.84V602H1019.81ZM1003.88 602V600H995.914V602H1003.88ZM987.948 602V600H979.983V602H987.948ZM972.017 602V600H964.052V602H972.017ZM956.086 602V600H948.121V602H956.086ZM940.155 602V600H932.19V602H940.155ZM924.224 602V600H916.258V602H924.224ZM908.293 602V600H900.327V602H908.293ZM892.362 602V600H884.396V602H892.362ZM876.431 602V600H868.465V602H876.431ZM860.5 602V600H852.534V602H860.5ZM844.569 602V600H836.603V602H844.569ZM828.638 602V600H820.672V602H828.638ZM812.707 602V600H804.741V602H812.707ZM796.776 602V600H788.81V602H796.776ZM780.845 602V600H772.879V602H780.845ZM764.914 602V600H756.948V602H764.914ZM748.983 602V600H741.017V602H748.983ZM733.052 602V600H725.086V602H733.052ZM717.121 602V600H709.155V602H717.121ZM701.19 602V600H693.224V602H701.19ZM685.259 602V600H677.293V602H685.259ZM669.328 602V600H661.362V602H669.328ZM653.396 602V600H645.431V602H653.396ZM637.465 602V600H629.5V602H637.465ZM621.534 602V600H613.569V602H621.534ZM605.603 602V600H597.638V602H605.603ZM589.672 602V600H581.707V602H589.672ZM573.741 602V600H565.776V602H573.741ZM557.81 602V600H549.845V602H557.81ZM541.879 602V600H533.914V602H541.879ZM525.948 602V600H517.983V602H525.948ZM510.017 602V600H502.052V602H510.017ZM494.086 602V600H486.121V602H494.086ZM478.155 602V600H470.19V602H478.155ZM462.224 602V600H454.259V602H462.224ZM446.293 602V600H438.328V602H446.293ZM430.362 602V600H422.397V602H430.362ZM414.431 602V600H406.465V602H414.431ZM398.5 602V600H390.534V602H398.5ZM382.569 602V600H374.603V602H382.569ZM366.638 602V600H358.672V602H366.638ZM350.707 602V600H342.741V602H350.707ZM334.776 602V600H326.81V602H334.776ZM318.845 602V600H310.879V602H318.845ZM302.914 602V600H294.948V602H302.914ZM286.983 602V600H285V598H283V602H286.983ZM283 590H285V582H283V590ZM283 574H285V566H283V574ZM283 558H285V550H283V558ZM283 542H285V534H283V542ZM283 526H285V518H283V526ZM283 510H285V502H283V510ZM283 494H285V486H283V494ZM283 478H285V470H283V478ZM283 462H285V454H283V462ZM283 446H285V438H283V446ZM283 430H285V422H283V430ZM283 414H285V406H283V414ZM283 398H285V390H283V398ZM283 382H285V374H283V382ZM283 366H285V358H283V366ZM283 350H285V342H283V350ZM283 334H285V326H283V334ZM283 318H285V310H283V318ZM283 302H285V294H283V302ZM283 286H285V278H283V286ZM283 270H285V262H283V270ZM283 254H285V246H283V254Z"></path><path style="fill:var(--color-illustrationInterface020)" d="M584 292C584 287.582 587.582 284 592 284H898C902.418 284 906 287.582 906 292V406C906 410.418 902.418 414 898 414H592C587.582 414 584 410.418 584 406V292Z"></path><path style="fill:var(--color-illustrationAnatomyBorder020)" fill-rule="evenodd" clip-rule="evenodd" d="M898 285H592C588.134 285 585 288.134 585 292V406C585 409.866 588.134 413 592 413H898C901.866 413 905 409.866 905 406V292C905 288.134 901.866 285 898 285ZM592 284C587.582 284 584 287.582 584 292V406C584 410.418 587.582 414 592 414H898C902.418 414 906 410.418 906 406V292C906 287.582 902.418 284 898 284H592Z"></path><path style="fill:var(--color-illustrationInterface020)" d="M584 439C584 434.582 587.582 431 592 431H898C902.418 431 906 434.582 906 439V553C906 557.418 902.418 561 898 561H592C587.582 561 584 557.418 584 553V439Z"></path><path style="fill:var(--color-illustrationAnatomyBorder020)" fill-rule="evenodd" clip-rule="evenodd" d="M898 432H592C588.134 432 585 435.134 585 439V553C585 556.866 588.134 560 592 560H898C901.866 560 905 556.866 905 553V439C905 435.134 901.866 432 898 432ZM592 431C587.582 431 584 434.582 584 439V553C584 557.418 587.582 561 592 561H898C902.418 561 906 557.418 906 553V439C906 434.582 902.418 431 898 431H592Z"></path><g opacity="0.25"><path style="fill:var(--color-illustrationAnatomySubtle)" d="M415 254C415 249.582 418.582 246 423 246H447.333C451.752 246 455.333 249.582 455.333 254V583C455.333 587.418 451.752 591 447.333 591H423C418.582 591 415 587.418 415 583V254Z"></path><path style="fill:var(--color-illustrationAnatomySubtle)" d="M471.333 254C471.333 249.582 474.915 246 479.333 246H503.667C508.085 246 511.667 249.582 511.667 254V583C511.667 587.418 508.085 591 503.667 591H479.333C474.915 591 471.333 587.418 471.333 583V254Z"></path><path style="fill:var(--color-illustrationAnatomySubtle)" d="M527.667 254C527.667 249.582 531.248 246 535.667 246H560C564.418 246 568 249.582 568 254V583C568 587.418 564.418 591 560 591H535.667C531.248 591 527.667 587.418 527.667 583V254Z"></path><path style="fill:var(--color-illustrationAnatomySubtle)" d="M584 254C584 249.582 587.582 246 592 246H616.333C620.752 246 624.333 249.582 624.333 254V583C624.333 587.418 620.752 591 616.333 591H592C587.582 591 584 587.418 584 583V254Z"></path><path style="fill:var(--color-illustrationAnatomySubtle)" d="M640.333 254C640.333 249.582 643.915 246 648.333 246H672.667C677.085 246 680.667 249.582 680.667 254V583C680.667 587.418 677.085 591 672.667 591H648.333C643.915 591 640.333 587.418 640.333 583V254Z"></path><path style="fill:var(--color-illustrationAnatomySubtle)" d="M696.667 254C696.667 249.582 700.248 246 704.667 246H729C733.418 246 737 249.582 737 254V583C737 587.418 733.418 591 729 591H704.667C700.248 591 696.667 587.418 696.667 583V254Z"></path><path style="fill:var(--color-illustrationAnatomySubtle)" d="M753 254C753 249.582 756.582 246 761 246H785.333C789.752 246 793.333 249.582 793.333 254V583C793.333 587.418 789.752 591 785.333 591H761C756.582 591 753 587.418 753 583V254Z"></path><path style="fill:var(--color-illustrationAnatomySubtle)" d="M809.333 254C809.333 249.582 812.915 246 817.333 246H841.667C846.085 246 849.667 249.582 849.667 254V583C849.667 587.418 846.085 591 841.667 591H817.333C812.915 591 809.333 587.418 809.333 583V254Z"></path><path style="fill:var(--color-illustrationAnatomySubtle)" d="M865.667 254C865.667 249.582 869.248 246 873.667 246H898C902.418 246 906 249.582 906 254V583C906 587.418 902.418 591 898 591H873.667C869.248 591 865.667 587.418 865.667 583V254Z"></path><path style="fill:var(--color-illustrationAnatomySubtle)" d="M922 254C922 249.582 925.582 246 930 246H954.333C958.752 246 962.333 249.582 962.333 254V583C962.333 587.418 958.752 591 954.333 591H930C925.582 591 922 587.418 922 583V254Z"></path><path style="fill:var(--color-illustrationAnatomySubtle)" d="M978.333 254C978.333 249.582 981.915 246 986.333 246H1010.67C1015.08 246 1018.67 249.582 1018.67 254V583C1018.67 587.418 1015.08 591 1010.67 591H986.333C981.915 591 978.333 587.418 978.333 583V254Z"></path><path style="fill:var(--color-illustrationAnatomySubtle)" d="M1034.67 254C1034.67 249.582 1038.25 246 1042.67 246H1067C1071.42 246 1075 249.582 1075 254V583C1075 587.418 1071.42 591 1067 591H1042.67C1038.25 591 1034.67 587.418 1034.67 583V254Z"></path></g><path style="fill:var(--color-illustrationPalette040)" d="M434 271C437.314 271 440 273.686 440 277C440 280.314 437.314 283 434 283C430.686 283 428 280.314 428 277C428 273.686 430.686 271 434 271Z"></path><path style="fill:var(--color-illustrationPalette040)" fill-rule="evenodd" clip-rule="evenodd" d="M247 276L431 276L431 278L247 278L247 276Z"></path><rect style="fill:var(--color-illustrationPalette040)" x="212" y="259" width="36" height="36" rx="18"></rect><path style="fill:var(--color-white)" d="M227.097 273V270.42H231.917V285H229.037V273H227.097Z"></path><rect style="fill:var(--color-illustrationPalette040)" x="980" y="405" width="36" height="36" rx="18"></rect><path style="fill:var(--color-white)" d="M1001.92 418.84H995.444V422.26C995.724 421.913 996.124 421.633 996.644 421.42C997.164 421.193 997.718 421.08 998.304 421.08C999.371 421.08 1000.24 421.313 1000.92 421.78C1001.6 422.247 1002.1 422.847 1002.4 423.58C1002.71 424.3 1002.86 425.073 1002.86 425.9C1002.86 427.433 1002.42 428.667 1001.54 429.6C1000.68 430.533 999.438 431 997.824 431C996.304 431 995.091 430.62 994.184 429.86C993.278 429.1 992.764 428.107 992.644 426.88H995.364C995.484 427.413 995.751 427.84 996.164 428.16C996.591 428.48 997.131 428.64 997.784 428.64C998.571 428.64 999.164 428.393 999.564 427.9C999.964 427.407 1000.16 426.753 1000.16 425.94C1000.16 425.113 999.958 424.487 999.544 424.06C999.144 423.62 998.551 423.4 997.764 423.4C997.204 423.4 996.738 423.54 996.364 423.82C995.991 424.1 995.724 424.473 995.564 424.94H992.884V416.38H1001.92V418.84Z"></path><path style="fill:var(--color-illustrationPalette040)" fill-rule="evenodd" clip-rule="evenodd" d="M908 416L912 416C915.866 416 919 419.134 919 423C919 426.866 915.866 430 912 430L908 430L908 432L912 432C916.971 432 921 427.971 921 423C921 418.029 916.971 414 912 414L908 414L908 416Z"></path><path style="fill:var(--color-illustrationPalette040)" fill-rule="evenodd" clip-rule="evenodd" d="M981 424H920V422H981V424Z"></path><path style="fill:var(--color-illustrationPalette040)" d="M832 344C828.686 344 826 346.686 826 350C826 353.314 828.686 356 832 356C835.314 356 838 353.314 838 350C838 346.686 835.314 344 832 344Z"></path><path style="fill:var(--color-illustrationPalette040)" fill-rule="evenodd" clip-rule="evenodd" d="M1146 351L836 351L836 349L1146 349L1146 351Z"></path><rect style="fill:var(--color-illustrationPalette040)" x="1122" y="331" width="36" height="36" rx="18"></rect><path style="fill:var(--color-white)" d="M1133.33 353.16V350.96L1139.87 341.6H1143.13V350.72H1144.89V353.16H1143.13V356H1140.33V353.16H1133.33ZM1140.51 344.6L1136.41 350.72H1140.51V344.6Z"></path><rect style="fill:var(--color-illustrationPalette040)" x="340" y="678" width="36" height="36" rx="18"></rect><path style="fill:var(--color-white)" d="M353.114 693.26C353.18 691.927 353.647 690.9 354.514 690.18C355.394 689.447 356.547 689.08 357.974 689.08C358.947 689.08 359.78 689.253 360.474 689.6C361.167 689.933 361.687 690.393 362.034 690.98C362.394 691.553 362.574 692.207 362.574 692.94C362.574 693.78 362.354 694.493 361.914 695.08C361.487 695.653 360.974 696.04 360.374 696.24V696.32C361.147 696.56 361.747 696.987 362.174 697.6C362.614 698.213 362.834 699 362.834 699.96C362.834 700.76 362.647 701.473 362.274 702.1C361.914 702.727 361.374 703.22 360.654 703.58C359.947 703.927 359.094 704.1 358.094 704.1C356.587 704.1 355.36 703.72 354.414 702.96C353.467 702.2 352.967 701.08 352.914 699.6H355.634C355.66 700.253 355.88 700.78 356.294 701.18C356.72 701.567 357.3 701.76 358.034 701.76C358.714 701.76 359.234 701.573 359.594 701.2C359.967 700.813 360.154 700.32 360.154 699.72C360.154 698.92 359.9 698.347 359.394 698C358.887 697.653 358.1 697.48 357.034 697.48H356.454V695.18H357.034C358.927 695.18 359.874 694.547 359.874 693.28C359.874 692.707 359.7 692.26 359.354 691.94C359.02 691.62 358.534 691.46 357.894 691.46C357.267 691.46 356.78 691.633 356.434 691.98C356.1 692.313 355.907 692.74 355.854 693.26H353.114Z"></path><path style="fill:var(--color-illustrationPalette040)" fill-rule="evenodd" clip-rule="evenodd" d="M303 614V618C303 621.866 306.134 625 310 625H406C409.866 625 413 621.866 413 618V614H415V618C415 622.971 410.971 627 406 627H310C305.029 627 301 622.971 301 618V614H303Z"></path><path style="fill:var(--color-illustrationPalette040)" fill-rule="evenodd" clip-rule="evenodd" d="M357 684V626H359V684H357Z"></path><rect style="fill:var(--color-illustrationPalette040)" x="727" y="129" width="36" height="36" rx="18"></rect><path style="fill:var(--color-white)" d="M741.198 151.84C742.478 150.773 743.498 149.887 744.258 149.18C745.018 148.46 745.651 147.713 746.158 146.94C746.664 146.167 746.918 145.407 746.918 144.66C746.918 143.98 746.758 143.447 746.438 143.06C746.118 142.673 745.624 142.48 744.958 142.48C744.291 142.48 743.778 142.707 743.418 143.16C743.058 143.6 742.871 144.207 742.858 144.98H740.138C740.191 143.38 740.664 142.167 741.558 141.34C742.464 140.513 743.611 140.1 744.998 140.1C746.518 140.1 747.684 140.507 748.498 141.32C749.311 142.12 749.718 143.18 749.718 144.5C749.718 145.54 749.438 146.533 748.878 147.48C748.318 148.427 747.678 149.253 746.958 149.96C746.238 150.653 745.298 151.493 744.138 152.48H750.038V154.8H740.158V152.72L741.198 151.84Z"></path><path style="fill:var(--color-illustrationPalette040)" fill-rule="evenodd" clip-rule="evenodd" d="M738 228V224C738 220.134 741.134 217 745 217C748.866 217 752 220.134 752 224V228H754V224C754 219.029 749.971 215 745 215C740.029 215 736 219.029 736 224V228H738Z"></path><path style="fill:var(--color-illustrationPalette040)" fill-rule="evenodd" clip-rule="evenodd" d="M744 158V216H746V158H744Z"></path></svg>