<svg width="1491" height="839" viewBox="0 0 1491 839" xmlns="http://www.w3.org/2000/svg">
  <path d="M0 4a4 4 0 014-4h1482.72a4 4 0 014 4v830.004a4 4 0 01-4 4H4a4 4 0 01-4-4V4z" fill="#F0F3FF"/>
  <g filter="url(#tabs-options-indicator-weight__filter0_d)">
    <g clip-path="url(#tabs-options-indicator-weight__clip0)">
      <path fill="#fff" d="M200.629 237h256.879v207.838H200.629z"/>
      <path d="M306.832 322.652v5.872h-9.664v30.396h-7.274v-30.396h-9.665v-5.872h26.603zm3.437 21.771c0-2.91.572-5.49 1.715-7.742 1.178-2.251 2.754-3.983 4.728-5.196 2.01-1.212 4.244-1.818 6.703-1.818 2.148 0 4.018.433 5.612 1.299 1.628.866 2.927 1.957 3.897 3.273v-4.105h7.326v28.786h-7.326v-4.209c-.935 1.351-2.234 2.477-3.897 3.378-1.628.866-3.516 1.299-5.664 1.299-2.425 0-4.641-.624-6.651-1.871-1.974-1.247-3.55-2.996-4.728-5.248-1.143-2.286-1.715-4.901-1.715-7.846zm22.655.104c0-1.766-.347-3.273-1.039-4.52-.693-1.282-1.628-2.252-2.806-2.91a7.354 7.354 0 00-3.793-1.039 7.368 7.368 0 00-3.741.987c-1.143.658-2.079 1.628-2.806 2.91-.693 1.247-1.039 2.736-1.039 4.468 0 1.732.346 3.256 1.039 4.573.727 1.281 1.663 2.269 2.806 2.961 1.177.693 2.424 1.04 3.741 1.04 1.351 0 2.615-.33 3.793-.988 1.178-.692 2.113-1.662 2.806-2.909.692-1.282 1.039-2.806 1.039-4.573zm21.705-10.184c.935-1.386 2.217-2.511 3.845-3.377 1.663-.866 3.551-1.299 5.664-1.299 2.459 0 4.676.606 6.651 1.818 2.009 1.213 3.585 2.945 4.728 5.196 1.178 2.217 1.766 4.798 1.766 7.742 0 2.945-.588 5.56-1.766 7.846-1.143 2.252-2.719 4.001-4.728 5.248-1.975 1.247-4.192 1.871-6.651 1.871-2.148 0-4.036-.416-5.664-1.247-1.593-.866-2.875-1.975-3.845-3.326v4.105h-7.274v-38.45h7.274v13.873zm15.224 10.08c0-1.732-.363-3.221-1.091-4.468-.693-1.282-1.628-2.252-2.806-2.91a7.368 7.368 0 00-3.741-.987c-1.316 0-2.563.346-3.741 1.039-1.143.658-2.078 1.628-2.806 2.91-.693 1.281-1.039 2.788-1.039 4.52 0 1.732.346 3.239 1.039 4.521.728 1.281 1.663 2.269 2.806 2.961a7.558 7.558 0 003.741.988 7.083 7.083 0 003.741-1.04c1.178-.692 2.113-1.68 2.806-2.961.728-1.282 1.091-2.806 1.091-4.573z" fill="#577FFB"/>
      <g clip-path="url(#tabs-options-indicator-weight__clip1)">
        <path fill="#577FFB" d="M207 444.838h243.919v3.247H207z"/>
      </g>
    </g>
  </g>
  <path d="M190.038 645.64a5.766 5.766 0 012.76 1.24 6.971 6.971 0 012 2.48c.507.986.76 2.04.76 3.16 0 1.413-.36 2.693-1.08 3.84-.72 1.12-1.773 2.013-3.16 2.68-1.36.64-2.973.96-4.84.96h-10.4v-27.88h10c1.893 0 3.507.32 4.84.96 1.333.613 2.333 1.453 3 2.52.667 1.066 1 2.266 1 3.6 0 1.653-.453 3.026-1.36 4.12-.88 1.066-2.053 1.84-3.52 2.32zm-10.32-1.48h6.12c1.707 0 3.027-.4 3.96-1.2.933-.8 1.4-1.907 1.4-3.32 0-1.414-.467-2.52-1.4-3.32-.933-.8-2.28-1.2-4.04-1.2h-6.04v9.04zm6.44 12.84c1.813 0 3.227-.427 4.24-1.28 1.013-.854 1.52-2.04 1.52-3.56 0-1.547-.533-2.76-1.6-3.64-1.067-.907-2.493-1.36-4.28-1.36h-6.32V657h6.44zm24.011 3.36c-2.053 0-3.92-.467-5.6-1.4-1.653-.934-2.96-2.254-3.92-3.96-.933-1.734-1.4-3.734-1.4-6 0-2.24.48-4.214 1.44-5.92.987-1.734 2.32-3.054 4-3.96 1.68-.934 3.56-1.4 5.64-1.4 2.08 0 3.96.466 5.64 1.4 1.68.906 3 2.213 3.96 3.92.987 1.706 1.48 3.693 1.48 5.96 0 2.266-.506 4.266-1.52 6a10.3 10.3 0 01-4.04 3.96c-1.706.933-3.6 1.4-5.68 1.4zm0-3.2a7.687 7.687 0 003.68-.92c1.147-.614 2.067-1.534 2.76-2.76.72-1.227 1.08-2.72 1.08-4.48 0-1.76-.346-3.254-1.04-4.48-.693-1.227-1.6-2.134-2.72-2.72a7.449 7.449 0 00-3.64-.92c-1.333 0-2.56.306-3.68.92-1.093.586-1.973 1.493-2.64 2.72-.666 1.226-1 2.72-1 4.48 0 1.786.32 3.293.96 4.52.667 1.226 1.547 2.146 2.64 2.76 1.094.586 2.294.88 3.6.88zm19.666-15.52c.64-1.254 1.547-2.227 2.72-2.92 1.2-.694 2.654-1.04 4.36-1.04v3.76h-.96c-4.08 0-6.12 2.213-6.12 6.64V660h-3.64v-21.92h3.64v3.56zm9.922 7.32c0-2.24.454-4.2 1.36-5.88.907-1.707 2.147-3.027 3.72-3.96 1.6-.934 3.387-1.4 5.36-1.4 1.707 0 3.294.4 4.76 1.2 1.467.773 2.587 1.8 3.36 3.08v-11.6h3.68V660h-3.68v-4.12c-.72 1.306-1.786 2.386-3.2 3.24-1.413.826-3.066 1.24-4.96 1.24-1.946 0-3.72-.48-5.32-1.44-1.573-.96-2.813-2.307-3.72-4.04-.906-1.734-1.36-3.707-1.36-5.92zm18.56.04c0-1.654-.333-3.094-1-4.32-.666-1.227-1.573-2.16-2.72-2.8-1.12-.667-2.36-1-3.72-1-1.36 0-2.6.32-3.72.96-1.12.64-2.013 1.573-2.68 2.8-.666 1.226-1 2.666-1 4.32 0 1.68.334 3.146 1 4.4.667 1.226 1.56 2.173 2.68 2.84 1.12.64 2.36.96 3.72.96 1.36 0 2.6-.32 3.72-.96 1.147-.667 2.054-1.614 2.72-2.84.667-1.254 1-2.707 1-4.36zm29.831-.8c0 .693-.04 1.426-.12 2.2h-17.52c.134 2.16.867 3.853 2.2 5.08 1.36 1.2 3 1.8 4.92 1.8 1.574 0 2.88-.36 3.92-1.08a5.89 5.89 0 002.24-2.96h3.92c-.586 2.106-1.76 3.826-3.52 5.16-1.76 1.306-3.946 1.96-6.56 1.96-2.08 0-3.946-.467-5.6-1.4-1.626-.934-2.906-2.254-3.84-3.96-.933-1.734-1.4-3.734-1.4-6 0-2.267.454-4.254 1.36-5.96.907-1.707 2.174-3.014 3.8-3.92 1.654-.934 3.547-1.4 5.68-1.4 2.08 0 3.92.453 5.52 1.36a9.243 9.243 0 013.68 3.76c.88 1.573 1.32 3.36 1.32 5.36zm-3.76-.76c0-1.387-.306-2.574-.92-3.56a5.778 5.778 0 00-2.52-2.28c-1.04-.534-2.2-.8-3.48-.8-1.84 0-3.413.586-4.72 1.76-1.28 1.173-2.013 2.8-2.2 4.88h13.84zm12.205-5.8c.64-1.254 1.547-2.227 2.72-2.92 1.2-.694 2.653-1.04 4.36-1.04v3.76h-.96c-4.08 0-6.12 2.213-6.12 6.64V660h-3.64v-21.92h3.64v3.56zm46.322-9.52l-8.08 27.88h-4.08l-6.48-22.44-6.72 22.44-4.04.04-7.8-27.92h3.88l6.08 23.64 6.72-23.64h4.08l6.4 23.56 6.12-23.56h3.92zm5.863 2.4c-.693 0-1.28-.24-1.76-.72a2.395 2.395 0 01-.72-1.76c0-.694.24-1.28.72-1.76s1.067-.72 1.76-.72c.667 0 1.227.24 1.68.72.48.48.72 1.066.72 1.76 0 .693-.24 1.28-.72 1.76-.453.48-1.013.72-1.68.72zm1.76 3.56V660h-3.64v-21.92h3.64zm4.844 10.88c0-2.24.454-4.2 1.36-5.88.907-1.707 2.147-3.027 3.72-3.96 1.6-.934 3.387-1.4 5.36-1.4 1.707 0 3.294.4 4.76 1.2 1.467.773 2.587 1.8 3.36 3.08v-11.6h3.68V660h-3.68v-4.12c-.72 1.306-1.786 2.386-3.2 3.24-1.413.826-3.066 1.24-4.96 1.24-1.946 0-3.72-.48-5.32-1.44-1.573-.96-2.813-2.307-3.72-4.04-.906-1.734-1.36-3.707-1.36-5.92zm18.56.04c0-1.654-.333-3.094-1-4.32-.666-1.227-1.573-2.16-2.72-2.8-1.12-.667-2.36-1-3.72-1-1.36 0-2.6.32-3.72.96-1.12.64-2.013 1.573-2.68 2.8-.666 1.226-1 2.666-1 4.32 0 1.68.334 3.146 1 4.4.667 1.226 1.56 2.173 2.68 2.84 1.12.64 2.36.96 3.72.96 1.36 0 2.6-.32 3.72-.96 1.147-.667 2.054-1.614 2.72-2.84.667-1.254 1-2.707 1-4.36zm14.271-7.92V654c0 1.066.227 1.826.68 2.28.454.426 1.24.64 2.36.64h2.68V660h-3.28c-2.026 0-3.546-.467-4.56-1.4-1.013-.934-1.52-2.467-1.52-4.6v-12.92h-2.84v-3h2.84v-5.52h3.64v5.52h5.72v3h-5.72zm21.011-3.4c1.653 0 3.146.36 4.48 1.08 1.333.693 2.373 1.746 3.12 3.16.773 1.413 1.16 3.133 1.16 5.16V660h-3.6v-12.4c0-2.187-.547-3.854-1.64-5-1.094-1.174-2.587-1.76-4.48-1.76-1.92 0-3.454.6-4.6 1.8-1.12 1.2-1.68 2.946-1.68 5.24V660h-3.64v-29.6h3.64v10.8c.72-1.12 1.706-1.987 2.96-2.6 1.28-.614 2.706-.92 4.28-.92zm14.106 7.56c0-4.587.746-8.16 2.24-10.72 1.493-2.587 4.106-3.88 7.84-3.88 3.706 0 6.306 1.293 7.8 3.88 1.493 2.56 2.24 6.133 2.24 10.72 0 4.666-.747 8.293-2.24 10.88-1.494 2.586-4.094 3.88-7.8 3.88-3.734 0-6.347-1.294-7.84-3.88-1.494-2.587-2.24-6.214-2.24-10.88zm16.52 0c0-2.32-.16-4.28-.48-5.88-.294-1.627-.92-2.934-1.88-3.92-.934-.987-2.294-1.48-4.08-1.48-1.814 0-3.2.493-4.16 1.48-.934.986-1.56 2.293-1.88 3.92-.294 1.6-.44 3.56-.44 5.88 0 2.4.146 4.413.44 6.04.32 1.626.946 2.933 1.88 3.92.96.986 2.346 1.48 4.16 1.48 1.786 0 3.146-.494 4.08-1.48.96-.987 1.586-2.294 1.88-3.92.32-1.627.48-3.64.48-6.04zm7.637-10.84v-3.32h7.52V660h-3.68v-25.6h-3.84zm13.772 10.84c0-4.587.747-8.16 2.24-10.72 1.494-2.587 4.107-3.88 7.84-3.88 3.707 0 6.307 1.293 7.8 3.88 1.494 2.56 2.24 6.133 2.24 10.72 0 4.666-.746 8.293-2.24 10.88-1.493 2.586-4.093 3.88-7.8 3.88-3.733 0-6.346-1.294-7.84-3.88-1.493-2.587-2.24-6.214-2.24-10.88zm16.52 0c0-2.32-.16-4.28-.48-5.88-.293-1.627-.92-2.934-1.88-3.92-.933-.987-2.293-1.48-4.08-1.48-1.813 0-3.2.493-4.16 1.48-.933.986-1.56 2.293-1.88 3.92-.293 1.6-.44 3.56-.44 5.88 0 2.4.147 4.413.44 6.04.32 1.626.947 2.933 1.88 3.92.96.986 2.347 1.48 4.16 1.48 1.787 0 3.147-.494 4.08-1.48.96-.987 1.587-2.294 1.88-3.92.32-1.627.48-3.64.48-6.04z" fill="#577FFB"/>
  <g filter="url(#tabs-options-indicator-weight__filter1_d)">
    <g clip-path="url(#tabs-options-indicator-weight__clip2)">
      <path fill="#fff" d="M616.629 234h256.879v207.838H616.629z"/>
      <path d="M722.832 319.652v5.872h-9.664v30.396h-7.274v-30.396h-9.665v-5.872h26.603zm3.437 21.771c0-2.91.572-5.49 1.715-7.742 1.178-2.251 2.754-3.983 4.728-5.196 2.01-1.212 4.244-1.818 6.703-1.818 2.148 0 4.018.433 5.612 1.299 1.628.866 2.927 1.957 3.897 3.273v-4.105h7.326v28.786h-7.326v-4.209c-.935 1.351-2.234 2.477-3.897 3.378-1.628.866-3.516 1.299-5.664 1.299-2.425 0-4.641-.624-6.651-1.871-1.974-1.247-3.55-2.996-4.728-5.248-1.143-2.286-1.715-4.901-1.715-7.846zm22.655.104c0-1.766-.347-3.273-1.039-4.52-.693-1.282-1.628-2.252-2.806-2.91a7.354 7.354 0 00-3.793-1.039 7.368 7.368 0 00-3.741.987c-1.143.658-2.079 1.628-2.806 2.91-.693 1.247-1.039 2.736-1.039 4.468 0 1.732.346 3.256 1.039 4.573.727 1.281 1.663 2.269 2.806 2.961 1.177.693 2.424 1.04 3.741 1.04 1.351 0 2.615-.33 3.793-.988 1.178-.692 2.113-1.662 2.806-2.909.692-1.282 1.039-2.806 1.039-4.573zm21.705-10.184c.935-1.386 2.217-2.511 3.845-3.377 1.663-.866 3.551-1.299 5.664-1.299 2.459 0 4.676.606 6.651 1.818 2.009 1.213 3.585 2.945 4.728 5.196 1.178 2.217 1.766 4.798 1.766 7.742 0 2.945-.588 5.56-1.766 7.846-1.143 2.252-2.719 4.001-4.728 5.248-1.975 1.247-4.192 1.871-6.651 1.871-2.148 0-4.036-.416-5.664-1.247-1.593-.866-2.875-1.975-3.845-3.326v4.105h-7.274v-38.45h7.274v13.873zm15.224 10.08c0-1.732-.363-3.221-1.091-4.468-.693-1.282-1.628-2.252-2.806-2.91a7.368 7.368 0 00-3.741-.987c-1.316 0-2.563.346-3.741 1.039-1.143.658-2.078 1.628-2.806 2.91-.693 1.281-1.039 2.788-1.039 4.52 0 1.732.346 3.239 1.039 4.521.728 1.281 1.663 2.269 2.806 2.961a7.558 7.558 0 003.741.988 7.083 7.083 0 003.741-1.04c1.178-.692 2.113-1.68 2.806-2.961.728-1.282 1.091-2.806 1.091-4.573z" fill="#577FFB"/>
      <g clip-path="url(#tabs-options-indicator-weight__clip3)">
        <path fill="#577FFB" d="M623 441.838h243.919v6.495H623z"/>
      </g>
    </g>
  </g>
  <path d="M601.038 644.64a5.766 5.766 0 012.76 1.24 6.971 6.971 0 012 2.48c.507.986.76 2.04.76 3.16 0 1.413-.36 2.693-1.08 3.84-.72 1.12-1.773 2.013-3.16 2.68-1.36.64-2.973.96-4.84.96h-10.4v-27.88h10c1.893 0 3.507.32 4.84.96 1.333.613 2.333 1.453 3 2.52.667 1.066 1 2.266 1 3.6 0 1.653-.453 3.026-1.36 4.12-.88 1.066-2.053 1.84-3.52 2.32zm-10.32-1.48h6.12c1.707 0 3.027-.4 3.96-1.2.933-.8 1.4-1.907 1.4-3.32 0-1.414-.467-2.52-1.4-3.32-.933-.8-2.28-1.2-4.04-1.2h-6.04v9.04zm6.44 12.84c1.813 0 3.227-.427 4.24-1.28 1.013-.854 1.52-2.04 1.52-3.56 0-1.547-.533-2.76-1.6-3.64-1.067-.907-2.493-1.36-4.28-1.36h-6.32V656h6.44zm24.011 3.36c-2.053 0-3.92-.467-5.6-1.4-1.653-.934-2.96-2.254-3.92-3.96-.933-1.734-1.4-3.734-1.4-6 0-2.24.48-4.214 1.44-5.92.987-1.734 2.32-3.054 4-3.96 1.68-.934 3.56-1.4 5.64-1.4 2.08 0 3.96.466 5.64 1.4 1.68.906 3 2.213 3.96 3.92.987 1.706 1.48 3.693 1.48 5.96 0 2.266-.506 4.266-1.52 6a10.3 10.3 0 01-4.04 3.96c-1.706.933-3.6 1.4-5.68 1.4zm0-3.2a7.687 7.687 0 003.68-.92c1.147-.614 2.067-1.534 2.76-2.76.72-1.227 1.08-2.72 1.08-4.48 0-1.76-.346-3.254-1.04-4.48-.693-1.227-1.6-2.134-2.72-2.72a7.449 7.449 0 00-3.64-.92c-1.333 0-2.56.306-3.68.92-1.093.586-1.973 1.493-2.64 2.72-.666 1.226-1 2.72-1 4.48 0 1.786.32 3.293.96 4.52.667 1.226 1.547 2.146 2.64 2.76 1.094.586 2.294.88 3.6.88zm19.666-15.52c.64-1.254 1.547-2.227 2.72-2.92 1.2-.694 2.654-1.04 4.36-1.04v3.76h-.96c-4.08 0-6.12 2.213-6.12 6.64V659h-3.64v-21.92h3.64v3.56zm9.922 7.32c0-2.24.454-4.2 1.36-5.88.907-1.707 2.147-3.027 3.72-3.96 1.6-.934 3.387-1.4 5.36-1.4 1.707 0 3.294.4 4.76 1.2 1.467.773 2.587 1.8 3.36 3.08v-11.6h3.68V659h-3.68v-4.12c-.72 1.306-1.786 2.386-3.2 3.24-1.413.826-3.066 1.24-4.96 1.24-1.946 0-3.72-.48-5.32-1.44-1.573-.96-2.813-2.307-3.72-4.04-.906-1.734-1.36-3.707-1.36-5.92zm18.56.04c0-1.654-.333-3.094-1-4.32-.666-1.227-1.573-2.16-2.72-2.8-1.12-.667-2.36-1-3.72-1-1.36 0-2.6.32-3.72.96-1.12.64-2.013 1.573-2.68 2.8-.666 1.226-1 2.666-1 4.32 0 1.68.334 3.146 1 4.4.667 1.226 1.56 2.173 2.68 2.84 1.12.64 2.36.96 3.72.96 1.36 0 2.6-.32 3.72-.96 1.147-.667 2.054-1.614 2.72-2.84.667-1.254 1-2.707 1-4.36zm29.831-.8c0 .693-.04 1.426-.12 2.2h-17.52c.134 2.16.867 3.853 2.2 5.08 1.36 1.2 3 1.8 4.92 1.8 1.574 0 2.88-.36 3.92-1.08a5.89 5.89 0 002.24-2.96h3.92c-.586 2.106-1.76 3.826-3.52 5.16-1.76 1.306-3.946 1.96-6.56 1.96-2.08 0-3.946-.467-5.6-1.4-1.626-.934-2.906-2.254-3.84-3.96-.933-1.734-1.4-3.734-1.4-6 0-2.267.454-4.254 1.36-5.96.907-1.707 2.174-3.014 3.8-3.92 1.654-.934 3.547-1.4 5.68-1.4 2.08 0 3.92.453 5.52 1.36a9.243 9.243 0 013.68 3.76c.88 1.573 1.32 3.36 1.32 5.36zm-3.76-.76c0-1.387-.306-2.574-.92-3.56a5.778 5.778 0 00-2.52-2.28c-1.04-.534-2.2-.8-3.48-.8-1.84 0-3.413.586-4.72 1.76-1.28 1.173-2.013 2.8-2.2 4.88h13.84zm12.205-5.8c.64-1.254 1.547-2.227 2.72-2.92 1.2-.694 2.653-1.04 4.36-1.04v3.76h-.96c-4.08 0-6.12 2.213-6.12 6.64V659h-3.64v-21.92h3.64v3.56zm46.322-9.52l-8.08 27.88h-4.08l-6.48-22.44-6.72 22.44-4.04.04-7.8-27.92h3.88l6.08 23.64 6.72-23.64h4.08l6.4 23.56 6.12-23.56h3.92zm5.863 2.4c-.693 0-1.28-.24-1.76-.72a2.395 2.395 0 01-.72-1.76c0-.694.24-1.28.72-1.76s1.067-.72 1.76-.72c.667 0 1.227.24 1.68.72.48.48.72 1.066.72 1.76 0 .693-.24 1.28-.72 1.76-.453.48-1.013.72-1.68.72zm1.76 3.56V659h-3.64v-21.92h3.64zm4.844 10.88c0-2.24.454-4.2 1.36-5.88.907-1.707 2.147-3.027 3.72-3.96 1.6-.934 3.387-1.4 5.36-1.4 1.707 0 3.294.4 4.76 1.2 1.467.773 2.587 1.8 3.36 3.08v-11.6h3.68V659h-3.68v-4.12c-.72 1.306-1.786 2.386-3.2 3.24-1.413.826-3.066 1.24-4.96 1.24-1.946 0-3.72-.48-5.32-1.44-1.573-.96-2.813-2.307-3.72-4.04-.906-1.734-1.36-3.707-1.36-5.92zm18.56.04c0-1.654-.333-3.094-1-4.32-.666-1.227-1.573-2.16-2.72-2.8-1.12-.667-2.36-1-3.72-1-1.36 0-2.6.32-3.72.96-1.12.64-2.013 1.573-2.68 2.8-.666 1.226-1 2.666-1 4.32 0 1.68.334 3.146 1 4.4.667 1.226 1.56 2.173 2.68 2.84 1.12.64 2.36.96 3.72.96 1.36 0 2.6-.32 3.72-.96 1.147-.667 2.054-1.614 2.72-2.84.667-1.254 1-2.707 1-4.36zm14.271-7.92V653c0 1.066.227 1.826.68 2.28.454.426 1.24.64 2.36.64h2.68V659h-3.28c-2.026 0-3.546-.467-4.56-1.4-1.013-.934-1.52-2.467-1.52-4.6v-12.92h-2.84v-3h2.84v-5.52h3.64v5.52h5.72v3h-5.72zm21.011-3.4c1.653 0 3.146.36 4.48 1.08 1.333.693 2.373 1.746 3.12 3.16.773 1.413 1.16 3.133 1.16 5.16V659h-3.6v-12.4c0-2.187-.547-3.854-1.64-5-1.094-1.174-2.587-1.76-4.48-1.76-1.92 0-3.454.6-4.6 1.8-1.12 1.2-1.68 2.946-1.68 5.24V659h-3.64v-29.6h3.64v10.8c.72-1.12 1.706-1.987 2.96-2.6 1.28-.614 2.706-.92 4.28-.92zm14.106 7.56c0-4.587.746-8.16 2.24-10.72 1.493-2.587 4.106-3.88 7.84-3.88 3.706 0 6.306 1.293 7.8 3.88 1.493 2.56 2.24 6.133 2.24 10.72 0 4.666-.747 8.293-2.24 10.88-1.494 2.586-4.094 3.88-7.8 3.88-3.734 0-6.347-1.294-7.84-3.88-1.494-2.587-2.24-6.214-2.24-10.88zm16.52 0c0-2.32-.16-4.28-.48-5.88-.294-1.627-.92-2.934-1.88-3.92-.934-.987-2.294-1.48-4.08-1.48-1.814 0-3.2.493-4.16 1.48-.934.986-1.56 2.293-1.88 3.92-.294 1.6-.44 3.56-.44 5.88 0 2.4.146 4.413.44 6.04.32 1.626.946 2.933 1.88 3.92.96.986 2.346 1.48 4.16 1.48 1.786 0 3.146-.494 4.08-1.48.96-.987 1.586-2.294 1.88-3.92.32-1.627.48-3.64.48-6.04zm8.157 11.84c3.387-2.72 6.04-4.947 7.96-6.68 1.92-1.76 3.533-3.587 4.84-5.48 1.333-1.92 2-3.8 2-5.64 0-1.734-.427-3.094-1.28-4.08-.827-1.014-2.173-1.52-4.04-1.52-1.813 0-3.227.573-4.24 1.72-.987 1.12-1.52 2.626-1.6 4.52h-3.52c.107-2.987 1.013-5.294 2.72-6.92 1.707-1.627 3.907-2.44 6.6-2.44 2.747 0 4.92.76 6.52 2.28 1.627 1.52 2.44 3.613 2.44 6.28 0 2.213-.667 4.373-2 6.48-1.307 2.08-2.8 3.92-4.48 5.52-1.68 1.573-3.827 3.413-6.44 5.52h13.76v3.04h-19.24v-2.6zm23.448-11.84c0-4.587.746-8.16 2.24-10.72 1.493-2.587 4.106-3.88 7.84-3.88 3.706 0 6.306 1.293 7.8 3.88 1.493 2.56 2.24 6.133 2.24 10.72 0 4.666-.747 8.293-2.24 10.88-1.494 2.586-4.094 3.88-7.8 3.88-3.734 0-6.347-1.294-7.84-3.88-1.494-2.587-2.24-6.214-2.24-10.88zm16.52 0c0-2.32-.16-4.28-.48-5.88-.294-1.627-.92-2.934-1.88-3.92-.934-.987-2.294-1.48-4.08-1.48-1.814 0-3.2.493-4.16 1.48-.934.986-1.56 2.293-1.88 3.92-.294 1.6-.44 3.56-.44 5.88 0 2.4.146 4.413.44 6.04.32 1.626.946 2.933 1.88 3.92.96.986 2.346 1.48 4.16 1.48 1.786 0 3.146-.494 4.08-1.48.96-.987 1.586-2.294 1.88-3.92.32-1.627.48-3.64.48-6.04z" fill="#577FFB"/>
  <g filter="url(#tabs-options-indicator-weight__filter2_d)">
    <g clip-path="url(#tabs-options-indicator-weight__clip4)">
      <path fill="#fff" d="M1033.63 227h256.879v207.838H1033.63z"/>
      <path d="M1139.83 312.652v5.872h-9.66v30.396h-7.28v-30.396h-9.66v-5.872h26.6zm3.44 21.771c0-2.91.57-5.49 1.71-7.742 1.18-2.251 2.76-3.983 4.73-5.196 2.01-1.212 4.25-1.818 6.71-1.818 2.14 0 4.01.433 5.61 1.299 1.62.866 2.92 1.957 3.89 3.273v-4.105h7.33v28.786h-7.33v-4.209c-.93 1.351-2.23 2.477-3.89 3.378-1.63.866-3.52 1.299-5.67 1.299-2.42 0-4.64-.624-6.65-1.871-1.97-1.247-3.55-2.996-4.73-5.248-1.14-2.286-1.71-4.901-1.71-7.846zm22.65.104c0-1.766-.34-3.273-1.04-4.52-.69-1.282-1.62-2.252-2.8-2.91a7.35 7.35 0 00-3.79-1.039c-1.36 0-2.6.329-3.75.987-1.14.658-2.07 1.628-2.8 2.91-.69 1.247-1.04 2.736-1.04 4.468 0 1.732.35 3.256 1.04 4.573.73 1.281 1.66 2.269 2.8 2.961 1.18.693 2.43 1.04 3.75 1.04 1.35 0 2.61-.33 3.79-.988 1.18-.692 2.11-1.662 2.8-2.909.7-1.282 1.04-2.806 1.04-4.573zm21.71-10.184c.93-1.386 2.22-2.511 3.84-3.377 1.67-.866 3.55-1.299 5.67-1.299 2.46 0 4.67.606 6.65 1.818 2.01 1.213 3.58 2.945 4.73 5.196 1.17 2.217 1.76 4.798 1.76 7.742 0 2.945-.59 5.56-1.76 7.846-1.15 2.252-2.72 4.001-4.73 5.248-1.98 1.247-4.19 1.871-6.65 1.871-2.15 0-4.04-.416-5.67-1.247-1.59-.866-2.87-1.975-3.84-3.326v4.105h-7.28v-38.45h7.28v13.873zm15.22 10.08c0-1.732-.36-3.221-1.09-4.468-.69-1.282-1.63-2.252-2.8-2.91a7.386 7.386 0 00-3.74-.987c-1.32 0-2.57.346-3.75 1.039-1.14.658-2.07 1.628-2.8 2.91-.69 1.281-1.04 2.788-1.04 4.52 0 1.732.35 3.239 1.04 4.521.73 1.281 1.66 2.269 2.8 2.961 1.18.658 2.43.988 3.75.988a7.1 7.1 0 003.74-1.04c1.17-.692 2.11-1.68 2.8-2.961.73-1.282 1.09-2.806 1.09-4.573z" fill="#577FFB"/>
      <g clip-path="url(#tabs-options-indicator-weight__clip5)">
        <path fill="#577FFB" d="M1040 434.838h243.919v12.99H1040z"/>
      </g>
    </g>
  </g>
  <path d="M1018.04 644.64a5.79 5.79 0 012.76 1.24 7.003 7.003 0 012 2.48c.5.986.76 2.04.76 3.16 0 1.413-.36 2.693-1.08 3.84-.72 1.12-1.78 2.013-3.16 2.68-1.36.64-2.98.96-4.84.96h-10.4v-27.88h10c1.89 0 3.5.32 4.84.96 1.33.613 2.33 1.453 3 2.52.66 1.066 1 2.266 1 3.6 0 1.653-.46 3.026-1.36 4.12-.88 1.066-2.06 1.84-3.52 2.32zm-10.32-1.48h6.12c1.7 0 3.02-.4 3.96-1.2.93-.8 1.4-1.907 1.4-3.32 0-1.414-.47-2.52-1.4-3.32-.94-.8-2.28-1.2-4.04-1.2h-6.04v9.04zm6.44 12.84c1.81 0 3.22-.427 4.24-1.28 1.01-.854 1.52-2.04 1.52-3.56 0-1.547-.54-2.76-1.6-3.64-1.07-.907-2.5-1.36-4.28-1.36h-6.32V656h6.44zm24.01 3.36c-2.05 0-3.92-.467-5.6-1.4-1.65-.934-2.96-2.254-3.92-3.96-.93-1.734-1.4-3.734-1.4-6 0-2.24.48-4.214 1.44-5.92.99-1.734 2.32-3.054 4-3.96 1.68-.934 3.56-1.4 5.64-1.4 2.08 0 3.96.466 5.64 1.4 1.68.906 3 2.213 3.96 3.92.99 1.706 1.48 3.693 1.48 5.96 0 2.266-.51 4.266-1.52 6-.99 1.706-2.33 3.026-4.04 3.96-1.71.933-3.6 1.4-5.68 1.4zm0-3.2a7.69 7.69 0 003.68-.92c1.15-.614 2.07-1.534 2.76-2.76.72-1.227 1.08-2.72 1.08-4.48 0-1.76-.35-3.254-1.04-4.48-.69-1.227-1.6-2.134-2.72-2.72a7.44 7.44 0 00-3.64-.92c-1.33 0-2.56.306-3.68.92-1.09.586-1.97 1.493-2.64 2.72-.67 1.226-1 2.72-1 4.48 0 1.786.32 3.293.96 4.52.67 1.226 1.55 2.146 2.64 2.76 1.09.586 2.29.88 3.6.88zm19.67-15.52c.64-1.254 1.54-2.227 2.72-2.92 1.2-.694 2.65-1.04 4.36-1.04v3.76h-.96c-4.08 0-6.12 2.213-6.12 6.64V659h-3.64v-21.92h3.64v3.56zm9.92 7.32c0-2.24.45-4.2 1.36-5.88.9-1.707 2.14-3.027 3.72-3.96 1.6-.934 3.38-1.4 5.36-1.4 1.7 0 3.29.4 4.76 1.2 1.46.773 2.58 1.8 3.36 3.08v-11.6h3.68V659h-3.68v-4.12c-.72 1.306-1.79 2.386-3.2 3.24-1.42.826-3.07 1.24-4.96 1.24-1.95 0-3.72-.48-5.32-1.44-1.58-.96-2.82-2.307-3.72-4.04-.91-1.734-1.36-3.707-1.36-5.92zm18.56.04c0-1.654-.34-3.094-1-4.32-.67-1.227-1.58-2.16-2.72-2.8-1.12-.667-2.36-1-3.72-1-1.36 0-2.6.32-3.72.96-1.12.64-2.02 1.573-2.68 2.8-.67 1.226-1 2.666-1 4.32 0 1.68.33 3.146 1 4.4.66 1.226 1.56 2.173 2.68 2.84 1.12.64 2.36.96 3.72.96 1.36 0 2.6-.32 3.72-.96 1.14-.667 2.05-1.614 2.72-2.84.66-1.254 1-2.707 1-4.36zm29.83-.8c0 .693-.04 1.426-.12 2.2h-17.52c.13 2.16.87 3.853 2.2 5.08 1.36 1.2 3 1.8 4.92 1.8 1.57 0 2.88-.36 3.92-1.08a5.896 5.896 0 002.24-2.96h3.92c-.59 2.106-1.76 3.826-3.52 5.16-1.76 1.306-3.95 1.96-6.56 1.96-2.08 0-3.95-.467-5.6-1.4-1.63-.934-2.91-2.254-3.84-3.96-.93-1.734-1.4-3.734-1.4-6 0-2.267.45-4.254 1.36-5.96.91-1.707 2.17-3.014 3.8-3.92 1.65-.934 3.55-1.4 5.68-1.4 2.08 0 3.92.453 5.52 1.36 1.6.906 2.83 2.16 3.68 3.76.88 1.573 1.32 3.36 1.32 5.36zm-3.76-.76c0-1.387-.31-2.574-.92-3.56a5.746 5.746 0 00-2.52-2.28c-1.04-.534-2.2-.8-3.48-.8-1.84 0-3.41.586-4.72 1.76-1.28 1.173-2.01 2.8-2.2 4.88h13.84zm12.2-5.8c.64-1.254 1.55-2.227 2.72-2.92 1.2-.694 2.66-1.04 4.36-1.04v3.76h-.96c-4.08 0-6.12 2.213-6.12 6.64V659h-3.64v-21.92h3.64v3.56zm46.32-9.52l-8.07 27.88h-4.08l-6.49-22.44-6.72 22.44-4.04.04-7.8-27.92h3.89l6.08 23.64 6.72-23.64h4.08l6.4 23.56 6.11-23.56h3.92zm5.87 2.4a2.4 2.4 0 01-1.76-.72 2.395 2.395 0 01-.72-1.76c0-.694.24-1.28.72-1.76a2.4 2.4 0 011.76-.72c.67 0 1.23.24 1.68.72.48.48.72 1.066.72 1.76 0 .693-.24 1.28-.72 1.76-.45.48-1.01.72-1.68.72zm1.76 3.56V659h-3.64v-21.92h3.64zm4.84 10.88c0-2.24.46-4.2 1.36-5.88.91-1.707 2.15-3.027 3.72-3.96 1.6-.934 3.39-1.4 5.36-1.4 1.71 0 3.3.4 4.76 1.2 1.47.773 2.59 1.8 3.36 3.08v-11.6h3.68V659h-3.68v-4.12c-.72 1.306-1.78 2.386-3.2 3.24-1.41.826-3.06 1.24-4.96 1.24-1.94 0-3.72-.48-5.32-1.44-1.57-.96-2.81-2.307-3.72-4.04-.9-1.734-1.36-3.707-1.36-5.92zm18.56.04c0-1.654-.33-3.094-1-4.32-.66-1.227-1.57-2.16-2.72-2.8-1.12-.667-2.36-1-3.72-1-1.36 0-2.6.32-3.72.96-1.12.64-2.01 1.573-2.68 2.8-.66 1.226-1 2.666-1 4.32 0 1.68.34 3.146 1 4.4.67 1.226 1.56 2.173 2.68 2.84 1.12.64 2.36.96 3.72.96 1.36 0 2.6-.32 3.72-.96 1.15-.667 2.06-1.614 2.72-2.84.67-1.254 1-2.707 1-4.36zm14.27-7.92V653c0 1.066.23 1.826.68 2.28.46.426 1.24.64 2.36.64h2.68V659h-3.28c-2.02 0-3.54-.467-4.56-1.4-1.01-.934-1.52-2.467-1.52-4.6v-12.92h-2.84v-3h2.84v-5.52h3.64v5.52h5.72v3h-5.72zm21.01-3.4c1.66 0 3.15.36 4.48 1.08 1.34.693 2.38 1.746 3.12 3.16.78 1.413 1.16 3.133 1.16 5.16V659h-3.6v-12.4c0-2.187-.54-3.854-1.64-5-1.09-1.174-2.58-1.76-4.48-1.76-1.92 0-3.45.6-4.6 1.8-1.12 1.2-1.68 2.946-1.68 5.24V659h-3.64v-29.6h3.64v10.8c.72-1.12 1.71-1.987 2.96-2.6 1.28-.614 2.71-.92 4.28-.92zm14.11 7.56c0-4.587.75-8.16 2.24-10.72 1.49-2.587 4.11-3.88 7.84-3.88 3.71 0 6.31 1.293 7.8 3.88 1.49 2.56 2.24 6.133 2.24 10.72 0 4.666-.75 8.293-2.24 10.88-1.49 2.586-4.09 3.88-7.8 3.88-3.73 0-6.35-1.294-7.84-3.88-1.49-2.587-2.24-6.214-2.24-10.88zm16.52 0c0-2.32-.16-4.28-.48-5.88-.29-1.627-.92-2.934-1.88-3.92-.93-.987-2.29-1.48-4.08-1.48-1.81 0-3.2.493-4.16 1.48-.93.986-1.56 2.293-1.88 3.92-.29 1.6-.44 3.56-.44 5.88 0 2.4.15 4.413.44 6.04.32 1.626.95 2.933 1.88 3.92.96.986 2.35 1.48 4.16 1.48 1.79 0 3.15-.494 4.08-1.48.96-.987 1.59-2.294 1.88-3.92.32-1.627.48-3.64.48-6.04zm8.52-6.88c.18-2.454 1.13-4.374 2.84-5.76 1.7-1.387 3.92-2.08 6.64-2.08 1.81 0 3.37.333 4.68 1 1.33.64 2.33 1.52 3 2.64.69 1.12 1.04 2.386 1.04 3.8 0 1.653-.48 3.08-1.44 4.28-.94 1.2-2.16 1.973-3.68 2.32v.2c1.73.426 3.1 1.266 4.12 2.52 1.01 1.253 1.52 2.893 1.52 4.92 0 1.52-.35 2.893-1.04 4.12-.7 1.2-1.74 2.146-3.12 2.84-1.39.693-3.06 1.04-5 1.04-2.83 0-5.15-.734-6.96-2.2-1.82-1.494-2.83-3.6-3.04-6.32h3.52c.18 1.6.84 2.906 1.96 3.92 1.12 1.013 2.61 1.52 4.48 1.52 1.86 0 3.28-.48 4.24-1.44.98-.987 1.48-2.254 1.48-3.8 0-2-.67-3.44-2-4.32-1.34-.88-3.35-1.32-6.04-1.32h-.92v-3.04h.96c2.45-.027 4.3-.427 5.56-1.2 1.25-.8 1.88-2.027 1.88-3.68 0-1.414-.47-2.547-1.4-3.4-.91-.854-2.22-1.28-3.92-1.28-1.66 0-2.99.426-4 1.28-1.02.853-1.62 2-1.8 3.44h-3.56zm23.63 6.88c0-4.587.75-8.16 2.24-10.72 1.49-2.587 4.11-3.88 7.84-3.88 3.71 0 6.31 1.293 7.8 3.88 1.49 2.56 2.24 6.133 2.24 10.72 0 4.666-.75 8.293-2.24 10.88-1.49 2.586-4.09 3.88-7.8 3.88-3.73 0-6.35-1.294-7.84-3.88-1.49-2.587-2.24-6.214-2.24-10.88zm16.52 0c0-2.32-.16-4.28-.48-5.88-.29-1.627-.92-2.934-1.88-3.92-.93-.987-2.29-1.48-4.08-1.48-1.81 0-3.2.493-4.16 1.48-.93.986-1.56 2.293-1.88 3.92-.29 1.6-.44 3.56-.44 5.88 0 2.4.15 4.413.44 6.04.32 1.626.95 2.933 1.88 3.92.96.986 2.35 1.48 4.16 1.48 1.79 0 3.15-.494 4.08-1.48.96-.987 1.59-2.294 1.88-3.92.32-1.627.48-3.64.48-6.04z" fill="#577FFB"/>
  <defs>
    <clipPath id="tabs-options-indicator-weight__clip0">
      <rect x="207" y="237" width="244.134" height="211.086" rx="2.463" fill="#fff"/>
    </clipPath>
    <clipPath id="tabs-options-indicator-weight__clip1">
      <path fill="#fff" transform="translate(207 444.838)" d="M0 0h244.134v3.247H0z"/>
    </clipPath>
    <clipPath id="tabs-options-indicator-weight__clip2">
      <rect x="623" y="234" width="244.134" height="214.333" rx="8" fill="#fff"/>
    </clipPath>
    <clipPath id="tabs-options-indicator-weight__clip3">
      <path fill="#fff" transform="translate(623 441.838)" d="M0 0h244.134v6.495H0z"/>
    </clipPath>
    <clipPath id="tabs-options-indicator-weight__clip4">
      <rect x="1040" y="227" width="244.134" height="220.828" rx="2.463" fill="#fff"/>
    </clipPath>
    <clipPath id="tabs-options-indicator-weight__clip5">
      <path fill="#fff" transform="translate(1040 434.838)" d="M0 0h244.134v12.99H0z"/>
    </clipPath>
    <filter id="tabs-options-indicator-weight__filter0_d" x="191" y="229" width="276.134" height="243.086" filterUnits="userSpaceOnUse" color-interpolation-filters="sRGB">
      <feFlood flood-opacity="0" result="BackgroundImageFix"/>
      <feColorMatrix in="SourceAlpha" values="0 0 0 0 0 0 0 0 0 0 0 0 0 0 0 0 0 0 127 0"/>
      <feOffset dy="8"/>
      <feGaussianBlur stdDeviation="8"/>
      <feColorMatrix values="0 0 0 0 0.0392157 0 0 0 0 0.0392157 0 0 0 0 0.0392157 0 0 0 0.08 0"/>
      <feBlend in2="BackgroundImageFix" result="effect1_dropShadow"/>
      <feBlend in="SourceGraphic" in2="effect1_dropShadow" result="shape"/>
    </filter>
    <filter id="tabs-options-indicator-weight__filter1_d" x="607" y="226" width="276.134" height="246.333" filterUnits="userSpaceOnUse" color-interpolation-filters="sRGB">
      <feFlood flood-opacity="0" result="BackgroundImageFix"/>
      <feColorMatrix in="SourceAlpha" values="0 0 0 0 0 0 0 0 0 0 0 0 0 0 0 0 0 0 127 0"/>
      <feOffset dy="8"/>
      <feGaussianBlur stdDeviation="8"/>
      <feColorMatrix values="0 0 0 0 0.0392157 0 0 0 0 0.0392157 0 0 0 0 0.0392157 0 0 0 0.08 0"/>
      <feBlend in2="BackgroundImageFix" result="effect1_dropShadow"/>
      <feBlend in="SourceGraphic" in2="effect1_dropShadow" result="shape"/>
    </filter>
    <filter id="tabs-options-indicator-weight__filter2_d" x="1024" y="219" width="276.134" height="252.828" filterUnits="userSpaceOnUse" color-interpolation-filters="sRGB">
      <feFlood flood-opacity="0" result="BackgroundImageFix"/>
      <feColorMatrix in="SourceAlpha" values="0 0 0 0 0 0 0 0 0 0 0 0 0 0 0 0 0 0 127 0"/>
      <feOffset dy="8"/>
      <feGaussianBlur stdDeviation="8"/>
      <feColorMatrix values="0 0 0 0 0.0392157 0 0 0 0 0.0392157 0 0 0 0 0.0392157 0 0 0 0.08 0"/>
      <feBlend in2="BackgroundImageFix" result="effect1_dropShadow"/>
      <feBlend in="SourceGraphic" in2="effect1_dropShadow" result="shape"/>
    </filter>
  </defs>
</svg>
