<svg width="1491" height="838" viewBox="0 0 1491 838" xmlns="http://www.w3.org/2000/svg">
  <g clip-path="url(#tabs-behaviours-tabOverflow__clip0)">
    <path d="M0 8.424A8.424 8.424 0 018.424 0H1482.58c4.65 0 8.42 3.771 8.42 8.424v821.313a8.422 8.422 0 01-8.42 8.424H8.424A8.423 8.423 0 010 829.737V8.424z" fill="#F0F3FF"/>
    <path d="M1166 352a4 4 0 014-4h317a4 4 0 014 4v133a4 4 0 01-4 4h-317a4 4 0 01-4-4V352z" fill="#E5EBFF"/>
    <path fill-rule="evenodd" clip-rule="evenodd" d="M1168.26 488.605l.87-1.802c.26.126.56.197.87.197h3.94v2H1170a4.03 4.03 0 01-1.74-.395zm314.8.395v-2h3.94c.31 0 .61-.071.87-.197l.87 1.802a4.03 4.03 0 01-1.74.395h-3.94zm7.94-133.2h-2V352c0-.315-.07-.607-.2-.867l1.8-.869c.26.525.4 1.114.4 1.736v3.8zm-317.06-7.8H1170c-.62 0-1.21.142-1.74.395l.87 1.802c.26-.126.56-.197.87-.197h3.94v-2zM1166 481.2h2v3.8c0 .315.07.607.2.867l-1.8.869a3.896 3.896 0 01-.4-1.736v-3.8zm0-5.7h2v-7.6h-2v7.6zm0-13.3h2v-7.6h-2v7.6zm0-13.3h2v-7.6h-2v7.6zm0-13.3h2V428h-2v7.6zm0-13.3h2v-7.6h-2v7.6zm0-13.3h2v-7.6h-2v7.6zm0-13.3h2v-7.6h-2v7.6zm0-13.3h2v-7.6h-2v7.6zm0-13.3h2v-7.6h-2v7.6zm0-13.3h2V352c0-.315.07-.607.2-.867l-1.8-.869c-.26.525-.4 1.114-.4 1.736v3.8zm13.84-7.8v2h7.88v-2h-7.88zm13.79 0v2h7.87v-2h-7.87zm13.78 0v2h7.88v-2h-7.88zm13.78 0v2h7.88v-2h-7.88zm13.79 0v2h7.87v-2h-7.87zm13.78 0v2h7.87v-2h-7.87zm13.78 0v2h7.88v-2h-7.88zm13.78 0v2h7.88v-2h-7.88zm13.79 0v2h7.87v-2h-7.87zm13.78 0v2h7.87v-2h-7.87zm13.78 0v2h7.88v-2h-7.88zm13.78 0v2h7.88v-2h-7.88zm13.79 0v2h7.87v-2h-7.87zm13.78 0v2h7.87v-2h-7.87zm13.78 0v2h7.88v-2h-7.88zm13.78 0v2h7.88v-2h-7.88zm13.79 0v2h7.87v-2h-7.87zm13.78 0v2h7.87v-2h-7.87zm13.78 0v2h7.88v-2h-7.88zm13.78 0v2h7.88v-2h-7.88zm13.79 0v2h7.87v-2h-7.87zm13.78 0v2h7.88v-2h-7.88zm13.78 0v2h3.94c.31 0 .61.071.87.197l.87-1.802A4.03 4.03 0 001487 348h-3.94zm7.94 13.5h-2v7.6h2v-7.6zm0 13.3h-2v7.6h2v-7.6zm0 13.3h-2v7.6h2v-7.6zm0 13.3h-2v7.6h2v-7.6zm0 13.3h-2v7.6h2v-7.6zm0 13.3h-2v7.6h2V428zm0 13.3h-2v7.6h2v-7.6zm0 13.3h-2v7.6h2v-7.6zm0 13.3h-2v7.6h2v-7.6zm0 13.3h-2v3.8c0 .315-.07.607-.2.867l1.8.869c.26-.525.4-1.114.4-1.736v-3.8zm-13.84 7.8v-2h-7.88v2h7.88zm-13.79 0v-2h-7.87v2h7.87zm-13.78 0v-2h-7.88v2h7.88zm-13.78 0v-2h-7.88v2h7.88zm-13.79 0v-2h-7.87v2h7.87zm-13.78 0v-2h-7.87v2h7.87zm-13.78 0v-2h-7.88v2h7.88zm-13.78 0v-2h-7.88v2h7.88zm-13.79 0v-2h-7.87v2h7.87zm-13.78 0v-2h-7.87v2h7.87zm-13.78 0v-2h-7.88v2h7.88zm-13.78 0v-2h-7.88v2h7.88zm-13.79 0v-2h-7.87v2h7.87zm-13.78 0v-2h-7.87v2h7.87zm-13.78 0v-2h-7.88v2h7.88zm-13.78 0v-2h-7.88v2h7.88zm-13.79 0v-2h-7.87v2h7.87zm-13.78 0v-2h-7.87v2h7.87zm-13.78 0v-2h-7.88v2h7.88zm-13.78 0v-2h-7.88v2h7.88zm-13.79 0v-2h-7.87v2h7.87zm-13.78 0v-2h-7.88v2h7.88z" fill="#AEBFFF"/>
    <g clip-path="url(#tabs-behaviours-tabOverflow__clip1)">
      <path d="M1274.32 406.7v4.52h-7.44v23.4h-5.6v-23.4h-7.44v-4.52h20.48zm2.64 16.76c0-2.24.44-4.227 1.32-5.96.91-1.733 2.12-3.067 3.64-4 1.55-.933 3.27-1.4 5.16-1.4 1.66 0 3.1.333 4.32 1 1.26.667 2.26 1.507 3 2.52v-3.16h5.64v22.16h-5.64v-3.24c-.72 1.04-1.72 1.907-3 2.6-1.25.667-2.7 1-4.36 1-1.86 0-3.57-.48-5.12-1.44-1.52-.96-2.73-2.307-3.64-4.04-.88-1.76-1.32-3.773-1.32-6.04zm17.44.08c0-1.36-.26-2.52-.8-3.48-.53-.987-1.25-1.733-2.16-2.24-.9-.533-1.88-.8-2.92-.8s-2 .253-2.88.76c-.88.507-1.6 1.253-2.16 2.24-.53.96-.8 2.107-.8 3.44 0 1.333.27 2.507.8 3.52.56.987 1.28 1.747 2.16 2.28.91.533 1.87.8 2.88.8 1.04 0 2.02-.253 2.92-.76a5.77 5.77 0 002.16-2.24c.54-.987.8-2.16.8-3.52zm16.71-7.84c.72-1.067 1.71-1.933 2.96-2.6 1.28-.667 2.73-1 4.36-1 1.89 0 3.6.467 5.12 1.4 1.55.933 2.76 2.267 3.64 4 .91 1.707 1.36 3.693 1.36 5.96s-.45 4.28-1.36 6.04c-.88 1.733-2.09 3.08-3.64 4.04-1.52.96-3.23 1.44-5.12 1.44-1.65 0-3.11-.32-4.36-.96-1.23-.667-2.21-1.52-2.96-2.56v3.16h-5.6v-29.6h5.6v10.68zm11.72 7.76c0-1.333-.28-2.48-.84-3.44-.53-.987-1.25-1.733-2.16-2.24a5.668 5.668 0 00-2.88-.76c-1.01 0-1.97.267-2.88.8-.88.507-1.6 1.253-2.16 2.24-.53.987-.8 2.147-.8 3.48 0 1.333.27 2.493.8 3.48.56.987 1.28 1.747 2.16 2.28.91.507 1.87.76 2.88.76 1.04 0 2-.267 2.88-.8.91-.533 1.63-1.293 2.16-2.28.56-.987.84-2.16.84-3.52z" fill="#AEBFFF"/>
      <path fill="#E0E7FF" d="M1399.38 353h2.106v135h-2.106z"/>
      <path d="M1492.81 407.2v4.52h-7.44v23.4h-5.6v-23.4h-7.44v-4.52h20.48zm2.64 16.76c0-2.24.44-4.227 1.32-5.96.91-1.733 2.12-3.067 3.64-4 1.55-.933 3.27-1.4 5.16-1.4 1.66 0 3.1.333 4.32 1 1.26.667 2.26 1.507 3 2.52v-3.16h5.64v22.16h-5.64v-3.24c-.72 1.04-1.72 1.907-3 2.6-1.25.667-2.7 1-4.36 1-1.86 0-3.57-.48-5.12-1.44-1.52-.96-2.73-2.307-3.64-4.04-.88-1.76-1.32-3.773-1.32-6.04zm17.44.08c0-1.36-.26-2.52-.8-3.48-.53-.987-1.25-1.733-2.16-2.24-.9-.533-1.88-.8-2.92-.8s-2 .253-2.88.76c-.88.507-1.6 1.253-2.16 2.24-.53.96-.8 2.107-.8 3.44 0 1.333.27 2.507.8 3.52.56.987 1.28 1.747 2.16 2.28.91.533 1.87.8 2.88.8 1.04 0 2.02-.253 2.92-.76a5.77 5.77 0 002.16-2.24c.54-.987.8-2.16.8-3.52zm16.71-7.84c.72-1.067 1.71-1.933 2.96-2.6 1.28-.667 2.74-1 4.36-1 1.9 0 3.6.467 5.12 1.4 1.55.933 2.76 2.267 3.64 4 .91 1.707 1.36 3.693 1.36 5.96s-.45 4.28-1.36 6.04c-.88 1.733-2.09 3.08-3.64 4.04-1.52.96-3.22 1.44-5.12 1.44-1.65 0-3.1-.32-4.36-.96-1.22-.667-2.21-1.52-2.96-2.56v3.16h-5.6v-29.6h5.6v10.68zm11.72 7.76c0-1.333-.28-2.48-.84-3.44-.53-.987-1.25-1.733-2.16-2.24a5.668 5.668 0 00-2.88-.76c-1.01 0-1.97.267-2.88.8-.88.507-1.6 1.253-2.16 2.24-.53.987-.8 2.147-.8 3.48 0 1.333.27 2.493.8 3.48.56.987 1.28 1.747 2.16 2.28.91.507 1.87.76 2.88.76 1.04 0 2-.267 2.88-.8.91-.533 1.63-1.293 2.16-2.28.56-.987.84-2.16.84-3.52z" fill="#AEBFFF"/>
    </g>
    <path d="M351 901.419h789.72V267.805c0-46.523-37.71-84.237-84.23-84.237H435.237c-46.523 0-84.237 37.714-84.237 84.237v633.614z" fill="#E0E7FF"/>
    <path fill-rule="evenodd" clip-rule="evenodd" d="M308.883 943.538h873.957V267.805c0-69.784-56.57-126.356-126.35-126.356H435.239c-69.785 0-126.356 56.572-126.356 126.356v675.733zm42.118-42.119V267.805c0-46.523 37.715-84.237 84.238-84.237h621.251c46.52 0 84.24 37.714 84.24 84.237v633.614H351.001z" fill="#AEBFFF"/>
    <g clip-path="url(#tabs-behaviours-tabOverflow__clip2)">
      <g clip-path="url(#tabs-behaviours-tabOverflow__clip3)">
        <path fill="#fff" d="M351.656 349.568h216.385v134.78H351.656z"/>
        <path d="M442.955 402.538v4.52h-7.44v23.4h-5.6v-23.4h-7.44v-4.52h20.48zm2.646 16.76c0-2.24.44-4.227 1.32-5.96.907-1.733 2.12-3.067 3.64-4 1.547-.933 3.267-1.4 5.16-1.4 1.654 0 3.094.333 4.32 1 1.254.667 2.254 1.507 3 2.52v-3.16h5.64v22.16h-5.64v-3.24c-.72 1.04-1.72 1.907-3 2.6-1.253.667-2.706 1-4.36 1-1.866 0-3.573-.48-5.12-1.44-1.52-.96-2.733-2.307-3.64-4.04-.88-1.76-1.32-3.773-1.32-6.04zm17.44.08c0-1.36-.266-2.52-.8-3.48-.533-.987-1.253-1.733-2.16-2.24a5.664 5.664 0 00-2.92-.8c-1.04 0-2 .253-2.88.76-.88.507-1.6 1.253-2.16 2.24-.533.96-.8 2.107-.8 3.44 0 1.333.267 2.507.8 3.52.56.987 1.28 1.747 2.16 2.28.907.533 1.867.8 2.88.8 1.04 0 2.014-.253 2.92-.76.907-.533 1.627-1.28 2.16-2.24.534-.987.8-2.16.8-3.52zm16.71-7.84c.72-1.067 1.706-1.933 2.96-2.6 1.28-.667 2.733-1 4.36-1 1.893 0 3.6.467 5.12 1.4 1.546.933 2.76 2.267 3.64 4 .906 1.707 1.36 3.693 1.36 5.96s-.454 4.28-1.36 6.04c-.88 1.733-2.094 3.08-3.64 4.04-1.52.96-3.227 1.44-5.12 1.44-1.654 0-3.107-.32-4.36-.96-1.227-.667-2.214-1.52-2.96-2.56v3.16h-5.6v-29.6h5.6v10.68zm11.72 7.76c0-1.333-.28-2.48-.84-3.44-.534-.987-1.254-1.733-2.16-2.24a5.668 5.668 0 00-2.88-.76 5.591 5.591 0 00-2.88.8c-.88.507-1.6 1.253-2.16 2.24-.534.987-.8 2.147-.8 3.48 0 1.333.266 2.493.8 3.48.56.987 1.28 1.747 2.16 2.28.906.507 1.866.76 2.88.76 1.04 0 2-.267 2.88-.8.906-.533 1.626-1.293 2.16-2.28.56-.987.84-2.16.84-3.52z" fill="#808E99"/>
        <path fill="#EBEBEB" d="M568.039 349.568h2.106V488.56h-2.106z"/>
        <path fill="#fff" d="M570.148 349.568h216.385v134.78H570.148z"/>
        <path d="M661.448 402.538v4.52h-7.44v23.4h-5.6v-23.4h-7.44v-4.52h20.48zm2.645 16.76c0-2.24.44-4.227 1.32-5.96.907-1.733 2.12-3.067 3.64-4 1.547-.933 3.267-1.4 5.16-1.4 1.654 0 3.094.333 4.32 1 1.254.667 2.254 1.507 3 2.52v-3.16h5.64v22.16h-5.64v-3.24c-.72 1.04-1.72 1.907-3 2.6-1.253.667-2.706 1-4.36 1-1.866 0-3.573-.48-5.12-1.44-1.52-.96-2.733-2.307-3.64-4.04-.88-1.76-1.32-3.773-1.32-6.04zm17.44.08c0-1.36-.266-2.52-.8-3.48-.533-.987-1.253-1.733-2.16-2.24a5.664 5.664 0 00-2.92-.8c-1.04 0-2 .253-2.88.76-.88.507-1.6 1.253-2.16 2.24-.533.96-.8 2.107-.8 3.44 0 1.333.267 2.507.8 3.52.56.987 1.28 1.747 2.16 2.28.907.533 1.867.8 2.88.8 1.04 0 2.014-.253 2.92-.76.907-.533 1.627-1.28 2.16-2.24.534-.987.8-2.16.8-3.52zm16.71-7.84c.72-1.067 1.706-1.933 2.96-2.6 1.28-.667 2.733-1 4.36-1 1.893 0 3.6.467 5.12 1.4 1.546.933 2.76 2.267 3.64 4 .906 1.707 1.36 3.693 1.36 5.96s-.454 4.28-1.36 6.04c-.88 1.733-2.094 3.08-3.64 4.04-1.52.96-3.227 1.44-5.12 1.44-1.654 0-3.107-.32-4.36-.96-1.227-.667-2.214-1.52-2.96-2.56v3.16h-5.6v-29.6h5.6v10.68zm11.72 7.76c0-1.333-.28-2.48-.84-3.44-.534-.987-1.254-1.733-2.16-2.24a5.668 5.668 0 00-2.88-.76 5.591 5.591 0 00-2.88.8c-.88.507-1.6 1.253-2.16 2.24-.534.987-.8 2.147-.8 3.48 0 1.333.266 2.493.8 3.48.56.987 1.28 1.747 2.16 2.28.906.507 1.866.76 2.88.76 1.04 0 2-.267 2.88-.8.906-.533 1.626-1.293 2.16-2.28.56-.987.84-2.16.84-3.52z" fill="#577FFB"/>
        <g clip-path="url(#tabs-behaviours-tabOverflow__clip4)">
          <path fill="#577FFB" d="M570.148 484.348h216.911v4.212H570.148z"/>
        </g>
        <path fill="#EBEBEB" d="M786.531 349.568h2.106V488.56h-2.106z"/>
        <path fill="#fff" d="M788.637 349.568h216.385v134.78H788.637z"/>
        <path d="M879.936 402.538v4.52h-7.44v23.4h-5.6v-23.4h-7.44v-4.52h20.48zm2.646 16.76c0-2.24.44-4.227 1.32-5.96.906-1.733 2.12-3.067 3.64-4 1.546-.933 3.266-1.4 5.16-1.4 1.653 0 3.093.333 4.32 1 1.253.667 2.253 1.507 3 2.52v-3.16h5.64v22.16h-5.64v-3.24c-.72 1.04-1.72 1.907-3 2.6-1.254.667-2.707 1-4.36 1-1.867 0-3.574-.48-5.12-1.44-1.52-.96-2.734-2.307-3.64-4.04-.88-1.76-1.32-3.773-1.32-6.04zm17.44.08c0-1.36-.267-2.52-.8-3.48-.534-.987-1.254-1.733-2.16-2.24a5.666 5.666 0 00-2.92-.8c-1.04 0-2 .253-2.88.76-.88.507-1.6 1.253-2.16 2.24-.534.96-.8 2.107-.8 3.44 0 1.333.266 2.507.8 3.52.56.987 1.28 1.747 2.16 2.28.906.533 1.866.8 2.88.8 1.04 0 2.013-.253 2.92-.76.906-.533 1.626-1.28 2.16-2.24.533-.987.8-2.16.8-3.52zm16.709-7.84c.72-1.067 1.707-1.933 2.96-2.6 1.28-.667 2.733-1 4.36-1 1.893 0 3.6.467 5.12 1.4 1.547.933 2.76 2.267 3.64 4 .907 1.707 1.36 3.693 1.36 5.96s-.453 4.28-1.36 6.04c-.88 1.733-2.093 3.08-3.64 4.04-1.52.96-3.227 1.44-5.12 1.44-1.653 0-3.107-.32-4.36-.96-1.227-.667-2.213-1.52-2.96-2.56v3.16h-5.6v-29.6h5.6v10.68zm11.72 7.76c0-1.333-.28-2.48-.84-3.44-.533-.987-1.253-1.733-2.16-2.24a5.668 5.668 0 00-2.88-.76 5.597 5.597 0 00-2.88.8c-.88.507-1.6 1.253-2.16 2.24-.533.987-.8 2.147-.8 3.48 0 1.333.267 2.493.8 3.48.56.987 1.28 1.747 2.16 2.28.907.507 1.867.76 2.88.76 1.04 0 2-.267 2.88-.8.907-.533 1.627-1.293 2.16-2.28.56-.987.84-2.16.84-3.52z" fill="#808E99"/>
        <path fill="#EBEBEB" d="M1005.02 349.568h2.106V488.56h-2.106z"/>
        <path fill="#fff" d="M1007.13 349.568h216.385v134.78H1007.13z"/>
        <path d="M1098.44 403.658v4.52H1091v23.4h-5.6v-23.4h-7.44v-4.52h20.48zm2.65 16.76c0-2.24.44-4.227 1.32-5.96.9-1.733 2.12-3.067 3.64-4 1.54-.933 3.26-1.4 5.16-1.4 1.65 0 3.09.333 4.32 1 1.25.667 2.25 1.507 3 2.52v-3.16h5.64v22.16h-5.64v-3.24c-.72 1.04-1.72 1.907-3 2.6-1.26.667-2.71 1-4.36 1-1.87 0-3.58-.48-5.12-1.44-1.52-.96-2.74-2.307-3.64-4.04-.88-1.76-1.32-3.773-1.32-6.04zm17.44.08c0-1.36-.27-2.52-.8-3.48-.54-.987-1.26-1.733-2.16-2.24-.91-.533-1.88-.8-2.92-.8s-2 .253-2.88.76c-.88.507-1.6 1.253-2.16 2.24-.54.96-.8 2.107-.8 3.44 0 1.333.26 2.507.8 3.52.56.987 1.28 1.747 2.16 2.28.9.533 1.86.8 2.88.8 1.04 0 2.01-.253 2.92-.76.9-.533 1.62-1.28 2.16-2.24.53-.987.8-2.16.8-3.52zm16.71-7.84c.72-1.067 1.7-1.933 2.96-2.6 1.28-.667 2.73-1 4.36-1 1.89 0 3.6.467 5.12 1.4 1.54.933 2.76 2.267 3.64 4 .9 1.707 1.36 3.693 1.36 5.96s-.46 4.28-1.36 6.04c-.88 1.733-2.1 3.08-3.64 4.04-1.52.96-3.23 1.44-5.12 1.44-1.66 0-3.11-.32-4.36-.96-1.23-.667-2.22-1.52-2.96-2.56v3.16h-5.6v-29.6h5.6v10.68zm11.72 7.76c0-1.333-.28-2.48-.84-3.44-.54-.987-1.26-1.733-2.16-2.24a5.668 5.668 0 00-2.88-.76 5.56 5.56 0 00-2.88.8c-.88.507-1.6 1.253-2.16 2.24-.54.987-.8 2.147-.8 3.48 0 1.333.26 2.493.8 3.48.56.987 1.28 1.747 2.16 2.28.9.507 1.86.76 2.88.76 1.04 0 2-.267 2.88-.8.9-.533 1.62-1.293 2.16-2.28.56-.987.84-2.16.84-3.52z" fill="#808E99"/>
      </g>
    </g>
    <path fill="#fff" d="M351 490.184h789v380H351z"/>
    <path fill-rule="evenodd" clip-rule="evenodd" d="M395.016 538.184c-2.21 0-4 1.79-4 4v15a4 4 0 004 4h244a4 4 0 004-4v-15a4 4 0 00-4-4h-244zM391 599.055c0-3.243 2.702-5.871 6.034-5.871h354.232c3.332 0 6.034 2.628 6.034 5.871v1.467c0 3.243-2.702 5.871-6.034 5.871H397.034c-3.332 0-6.034-2.628-6.034-5.871v-1.467zm0 135.032c0-3.243 2.702-5.871 6.034-5.871h354.232c3.332 0 6.034 2.628 6.034 5.871v1.468c0 3.242-2.702 5.871-6.034 5.871H397.034c-3.332 0-6.034-2.629-6.034-5.871v-1.468zm357.804-101.274c0-3.243 2.701-5.871 6.034-5.871h338.182c3.33 0 6.03 2.628 6.03 5.871v1.467c0 3.243-2.7 5.871-6.03 5.871H754.838c-3.333 0-6.034-2.628-6.034-5.871v-1.467zm0 67.516c0-3.243 2.701-5.871 6.034-5.871h338.182c3.33 0 6.03 2.628 6.03 5.871v1.468c0 3.242-2.7 5.87-6.03 5.87H754.838c-3.333 0-6.034-2.628-6.034-5.87v-1.468zM391 666.571c0-3.243 2.702-5.871 6.034-5.871h354.232c3.332 0 6.034 2.628 6.034 5.871v1.467c0 3.243-2.702 5.871-6.034 5.871H397.034c-3.332 0-6.034-2.628-6.034-5.871v-1.467zm0-33.758c0-3.243 2.702-5.871 6.034-5.871h106.885c3.333 0 6.034 2.628 6.034 5.871v1.467c0 3.243-2.701 5.871-6.034 5.871H397.034c-3.332 0-6.034-2.628-6.034-5.871v-1.467zm0 135.032c0-3.243 2.702-5.871 6.034-5.871h106.885c3.333 0 6.034 2.628 6.034 5.871v1.468c0 3.242-2.701 5.871-6.034 5.871H397.034c-3.332 0-6.034-2.629-6.034-5.871v-1.468zm383.291-101.254c0-3.243 2.701-5.871 6.034-5.871H887.21c3.332 0 6.034 2.628 6.034 5.871v1.468c0 3.242-2.702 5.87-6.034 5.87H780.325c-3.333 0-6.034-2.628-6.034-5.87v-1.468zM391 700.329c0-3.243 2.702-5.871 6.034-5.871h147.48c3.333 0 6.034 2.628 6.034 5.871v1.468c0 3.242-2.701 5.87-6.034 5.87h-147.48c-3.332 0-6.034-2.628-6.034-5.87v-1.468zm379.519-101.254c0-3.243 2.701-5.871 6.034-5.871h147.48c3.332 0 6.034 2.628 6.034 5.871v1.467c0 3.243-2.702 5.871-6.034 5.871h-147.48c-3.333 0-6.034-2.628-6.034-5.871v-1.467zm-.944 135.032c0-3.243 2.702-5.871 6.034-5.871h147.48c3.333 0 6.034 2.628 6.034 5.871v1.468c0 3.242-2.701 5.871-6.034 5.871h-147.48c-3.332 0-6.034-2.629-6.034-5.871v-1.468zM534.501 632.813c0-3.243 2.701-5.871 6.034-5.871h177.69c3.333 0 6.034 2.628 6.034 5.871v1.467c0 3.243-2.701 5.871-6.034 5.871h-177.69c-3.333 0-6.034-2.628-6.034-5.871v-1.467zm-3.778 135.032c0-3.243 2.701-5.871 6.034-5.871h177.69c3.333 0 6.034 2.628 6.034 5.871v1.468c0 3.242-2.701 5.871-6.034 5.871h-177.69c-3.333 0-6.034-2.629-6.034-5.871v-1.468zm379.519-101.254c0-3.243 2.701-5.871 6.034-5.871h177.694c3.33 0 6.03 2.628 6.03 5.871v1.468c0 3.242-2.7 5.87-6.03 5.87H916.276c-3.333 0-6.034-2.628-6.034-5.87v-1.468zm-338.923 33.718c0-3.243 2.701-5.871 6.034-5.871h144.648c3.332 0 6.034 2.628 6.034 5.871v1.467c0 3.243-2.702 5.871-6.034 5.871H577.353c-3.333 0-6.034-2.628-6.034-5.871v-1.467zm371.963-101.254c0-3.243 2.701-5.871 6.034-5.871h144.644c3.34 0 6.04 2.628 6.04 5.871v1.467c0 3.243-2.7 5.871-6.04 5.871H949.316c-3.333 0-6.034-2.628-6.034-5.871v-1.467z" fill="#E0E7FF"/>
  </g>
  <defs>
    <clipPath id="tabs-behaviours-tabOverflow__clip0">
      <path fill="#fff" d="M0 0h1491v838H0z"/>
    </clipPath>
    <clipPath id="tabs-behaviours-tabOverflow__clip1">
      <path fill="#fff" transform="translate(1183 353)" d="M0 0h871.856v135H0z"/>
    </clipPath>
    <clipPath id="tabs-behaviours-tabOverflow__clip2">
      <path fill="#fff" transform="translate(350.621 349.576)" d="M0 0h789.739v138.999H0z"/>
    </clipPath>
    <clipPath id="tabs-behaviours-tabOverflow__clip3">
      <path fill="#fff" transform="translate(351.656 349.568)" d="M0 0h871.856v138.992H0z"/>
    </clipPath>
    <clipPath id="tabs-behaviours-tabOverflow__clip4">
      <path fill="#fff" transform="translate(570.148 484.348)" d="M0 0h216.385v4.212H0z"/>
    </clipPath>
  </defs>
</svg>
