<svg width="1491" height="839" viewBox="0 0 1491 839" xmlns="http://www.w3.org/2000/svg">
  <path d="M0 4a4 4 0 014-4h1482.72a4 4 0 014 4v830.004a4 4 0 01-4 4H4a4 4 0 01-4-4V4z" fill="#F0F3FF"/>
  <g filter="url(#tabs-do-06__filter0_d)">
    <g clip-path="url(#tabs-do-06__clip0)">
      <g clip-path="url(#tabs-do-06__clip1)">
        <path fill="#fff" d="M451 121.899h147.25v96.542H451z"/>
        <path d="M504.278 160.016v3.182h-5.238v16.473h-3.942v-16.473h-5.237v-3.182h14.417zm1.862 11.799c0-1.577.31-2.976.93-4.196.638-1.22 1.492-2.159 2.562-2.816 1.089-.657 2.3-.985 3.632-.985 1.164 0 2.178.234 3.042.704.882.469 1.586 1.06 2.111 1.774v-2.225h3.971v15.6h-3.971v-2.281c-.506.732-1.21 1.342-2.111 1.83-.883.47-1.906.704-3.07.704a6.706 6.706 0 01-3.604-1.013c-1.07-.676-1.924-1.624-2.562-2.844-.62-1.239-.93-2.657-.93-4.252zm12.277.056c0-.957-.187-1.774-.563-2.45-.375-.694-.882-1.22-1.52-1.577a3.994 3.994 0 00-2.056-.563c-.732 0-1.408.179-2.027.535-.62.357-1.127.883-1.521 1.577-.375.676-.563 1.483-.563 2.422 0 .938.188 1.764.563 2.478.394.694.901 1.229 1.521 1.605a3.94 3.94 0 002.027.563c.732 0 1.417-.178 2.056-.535a4.096 4.096 0 001.52-1.577c.376-.695.563-1.521.563-2.478zm11.763-5.519c.507-.751 1.202-1.361 2.084-1.83.901-.47 1.924-.704 3.069-.704 1.333 0 2.534.328 3.604.985 1.089.657 1.943 1.596 2.563 2.816.638 1.202.957 2.6.957 4.196 0 1.595-.319 3.013-.957 4.252-.62 1.22-1.474 2.168-2.563 2.844-1.07.675-2.271 1.013-3.604 1.013-1.164 0-2.187-.225-3.069-.675-.864-.47-1.558-1.07-2.084-1.803v2.225h-3.942v-20.837h3.942v7.518zm8.25 5.463c0-.939-.197-1.746-.591-2.422-.375-.694-.882-1.22-1.52-1.577a4.003 4.003 0 00-2.028-.535 3.94 3.94 0 00-2.027.563c-.62.357-1.127.883-1.521 1.577-.375.695-.563 1.511-.563 2.45 0 .939.188 1.755.563 2.45.394.694.901 1.229 1.521 1.605a4.09 4.09 0 002.027.535c.732 0 1.408-.188 2.028-.563a4.052 4.052 0 001.52-1.605c.394-.695.591-1.521.591-2.478zm12.672-9.039v-3.632h6.786v20.527h-4.055v-16.895h-2.731z" fill="#577FFB"/>
        <g clip-path="url(#tabs-do-06__clip2)">
          <path fill="#577FFB" d="M451 218.441h146.825v4.023H451z"/>
        </g>
        <path fill="#fff" d="M598.25 121.899H745.5v96.542H598.25z"/>
        <path d="M648.544 160.016v3.182h-5.237v16.473h-3.942v-16.473h-5.238v-3.182h14.417zm1.863 11.799c0-1.577.31-2.976.929-4.196.638-1.22 1.493-2.159 2.563-2.816 1.088-.657 2.299-.985 3.632-.985 1.164 0 2.177.234 3.041.704.882.469 1.586 1.06 2.112 1.774v-2.225h3.97v15.6h-3.97v-2.281c-.507.732-1.211 1.342-2.112 1.83-.882.47-1.905.704-3.069.704a6.704 6.704 0 01-3.604-1.013c-1.07-.676-1.925-1.624-2.563-2.844-.619-1.239-.929-2.657-.929-4.252zm12.277.056c0-.957-.188-1.774-.563-2.45-.376-.694-.883-1.22-1.521-1.577a3.988 3.988 0 00-2.055-.563c-.732 0-1.408.179-2.028.535-.619.357-1.126.883-1.52 1.577-.376.676-.563 1.483-.563 2.422 0 .938.187 1.764.563 2.478.394.694.901 1.229 1.52 1.605a3.94 3.94 0 002.028.563 4.14 4.14 0 002.055-.535 4.106 4.106 0 001.521-1.577c.375-.695.563-1.521.563-2.478zm11.763-5.519c.506-.751 1.201-1.361 2.083-1.83.901-.47 1.924-.704 3.069-.704 1.333 0 2.535.328 3.605.985 1.089.657 1.943 1.596 2.562 2.816.638 1.202.957 2.6.957 4.196 0 1.595-.319 3.013-.957 4.252-.619 1.22-1.473 2.168-2.562 2.844-1.07.675-2.272 1.013-3.605 1.013-1.163 0-2.186-.225-3.069-.675-.863-.47-1.558-1.07-2.083-1.803v2.225h-3.943v-20.837h3.943v7.518zm8.25 5.463c0-.939-.197-1.746-.591-2.422-.376-.694-.883-1.22-1.521-1.577a3.997 3.997 0 00-2.027-.535 3.94 3.94 0 00-2.028.563c-.619.357-1.126.883-1.52 1.577-.376.695-.563 1.511-.563 2.45 0 .939.187 1.755.563 2.45.394.694.901 1.229 1.52 1.605a4.09 4.09 0 002.028.535 3.84 3.84 0 002.027-.563 4.061 4.061 0 001.521-1.605c.394-.695.591-1.521.591-2.478zm14.389 3.407c1.802-1.502 3.238-2.75 4.308-3.745 1.07-1.014 1.962-2.065 2.675-3.154.714-1.089 1.07-2.159 1.07-3.21 0-.957-.225-1.708-.675-2.253-.451-.544-1.145-.816-2.084-.816-.939 0-1.661.319-2.168.957-.507.62-.77 1.474-.789 2.563h-3.829c.075-2.253.741-3.961 1.999-5.125 1.277-1.164 2.891-1.746 4.843-1.746 2.14 0 3.783.573 4.928 1.718 1.145 1.126 1.718 2.618 1.718 4.477 0 1.464-.395 2.863-1.183 4.195-.789 1.333-1.69 2.497-2.703 3.492-1.014.976-2.337 2.159-3.971 3.548h8.307v3.266h-13.91v-2.928l1.464-1.239z" fill="#808E99"/>
        <g clip-path="url(#tabs-do-06__clip3)">
          <path fill="#AEBFFF" d="M598.25 218.441h146.825v4.023H598.25z"/>
        </g>
        <path fill="#fff" d="M745.5 121.899h147.25v96.542H745.5z"/>
        <path d="M795.451 160.016v3.182h-5.238v16.473h-3.942v-16.473h-5.237v-3.182h14.417zm1.862 11.799c0-1.577.31-2.976.929-4.196.639-1.22 1.493-2.159 2.563-2.816 1.089-.657 2.299-.985 3.632-.985 1.164 0 2.178.234 3.041.704.883.469 1.587 1.06 2.112 1.774v-2.225h3.97v15.6h-3.97v-2.281c-.507.732-1.211 1.342-2.112 1.83-.882.47-1.905.704-3.069.704a6.706 6.706 0 01-3.604-1.013c-1.07-.676-1.924-1.624-2.563-2.844-.619-1.239-.929-2.657-.929-4.252zm12.277.056c0-.957-.188-1.774-.563-2.45-.375-.694-.882-1.22-1.521-1.577a3.988 3.988 0 00-2.055-.563c-.732 0-1.408.179-2.027.535-.62.357-1.127.883-1.521 1.577-.375.676-.563 1.483-.563 2.422 0 .938.188 1.764.563 2.478.394.694.901 1.229 1.521 1.605a3.94 3.94 0 002.027.563 4.14 4.14 0 002.055-.535 4.092 4.092 0 001.521-1.577c.375-.695.563-1.521.563-2.478zm11.763-5.519c.507-.751 1.201-1.361 2.084-1.83.901-.47 1.924-.704 3.069-.704 1.333 0 2.534.328 3.604.985 1.089.657 1.943 1.596 2.562 2.816.639 1.202.958 2.6.958 4.196 0 1.595-.319 3.013-.958 4.252-.619 1.22-1.473 2.168-2.562 2.844-1.07.675-2.271 1.013-3.604 1.013-1.164 0-2.187-.225-3.069-.675-.864-.47-1.559-1.07-2.084-1.803v2.225h-3.942v-20.837h3.942v7.518zm8.25 5.463c0-.939-.197-1.746-.591-2.422-.376-.694-.882-1.22-1.521-1.577a3.997 3.997 0 00-2.027-.535 3.94 3.94 0 00-2.027.563c-.62.357-1.127.883-1.521 1.577-.375.695-.563 1.511-.563 2.45 0 .939.188 1.755.563 2.45.394.694.901 1.229 1.521 1.605a4.09 4.09 0 002.027.535 3.84 3.84 0 002.027-.563c.639-.376 1.145-.911 1.521-1.605.394-.695.591-1.521.591-2.478zm13.207-7.265c.094-1.877.751-3.323 1.971-4.336 1.239-1.033 2.863-1.549 4.871-1.549 1.371 0 2.544.244 3.52.732.976.469 1.708 1.117 2.196 1.943.507.807.761 1.727.761 2.759 0 1.183-.31 2.187-.93 3.013-.6.808-1.323 1.352-2.168 1.634v.112c1.089.338 1.934.939 2.534 1.802.62.864.93 1.971.93 3.323 0 1.126-.263 2.131-.789 3.013-.507.882-1.267 1.577-2.281 2.084-.995.488-2.196.732-3.604.732-2.121 0-3.848-.535-5.181-1.605-1.333-1.07-2.037-2.647-2.112-4.731h3.83c.037.92.347 1.661.929 2.225.601.544 1.417.816 2.45.816.957 0 1.689-.263 2.196-.788.526-.545.788-1.239.788-2.084 0-1.126-.356-1.933-1.07-2.422-.713-.488-1.82-.732-3.322-.732h-.817v-3.238h.817c2.665 0 3.998-.892 3.998-2.675 0-.807-.244-1.436-.732-1.886-.469-.451-1.154-.676-2.055-.676-.883 0-1.568.244-2.056.732-.469.469-.741 1.07-.817 1.802h-3.857z" fill="#808E99"/>
        <g clip-path="url(#tabs-do-06__clip4)">
          <path fill="#AEBFFF" d="M745.5 218.441h146.825v4.023H745.5z"/>
        </g>
        <path fill="#fff" d="M892.75 121.899H1040v96.542H892.75z"/>
        <path d="M941.821 160.016v3.182h-5.238v16.473h-3.942v-16.473h-5.237v-3.182h14.417zm1.862 11.799c0-1.577.31-2.976.929-4.196.639-1.22 1.493-2.159 2.563-2.816 1.089-.657 2.299-.985 3.632-.985 1.164 0 2.178.234 3.041.704.883.469 1.587 1.06 2.112 1.774v-2.225h3.971v15.6h-3.971v-2.281c-.507.732-1.211 1.342-2.112 1.83-.882.47-1.905.704-3.069.704a6.706 6.706 0 01-3.604-1.013c-1.07-.676-1.924-1.624-2.563-2.844-.619-1.239-.929-2.657-.929-4.252zm12.277.056c0-.957-.188-1.774-.563-2.45-.375-.694-.882-1.22-1.52-1.577a3.994 3.994 0 00-2.056-.563c-.732 0-1.408.179-2.027.535-.62.357-1.127.883-1.521 1.577-.375.676-.563 1.483-.563 2.422 0 .938.188 1.764.563 2.478.394.694.901 1.229 1.521 1.605a3.94 3.94 0 002.027.563c.732 0 1.417-.178 2.056-.535a4.096 4.096 0 001.52-1.577c.375-.695.563-1.521.563-2.478zm11.763-5.519c.507-.751 1.201-1.361 2.084-1.83.901-.47 1.924-.704 3.069-.704 1.333 0 2.534.328 3.604.985 1.089.657 1.943 1.596 2.562 2.816.639 1.202.958 2.6.958 4.196 0 1.595-.319 3.013-.958 4.252-.619 1.22-1.473 2.168-2.562 2.844-1.07.675-2.271 1.013-3.604 1.013-1.164 0-2.187-.225-3.069-.675-.864-.47-1.559-1.07-2.084-1.803v2.225h-3.942v-20.837h3.942v7.518zm8.25 5.463c0-.939-.197-1.746-.591-2.422-.376-.694-.882-1.22-1.521-1.577a3.997 3.997 0 00-2.027-.535 3.94 3.94 0 00-2.027.563c-.62.357-1.127.883-1.521 1.577-.375.695-.563 1.511-.563 2.45 0 .939.188 1.755.563 2.45.394.694.901 1.229 1.521 1.605a4.09 4.09 0 002.027.535 3.84 3.84 0 002.027-.563c.639-.376 1.145-.911 1.521-1.605.394-.695.591-1.521.591-2.478zm12.982 3.857v-3.097l9.207-13.178h4.588v12.84h2.48v3.435h-2.48v3.999h-3.94v-3.999h-9.855zm10.108-12.051l-5.772 8.616h5.772v-8.616z" fill="#808E99"/>
        <g clip-path="url(#tabs-do-06__clip5)">
          <path fill="#AEBFFF" d="M892.75 218.441h146.825v4.023H892.75z"/>
        </g>
      </g>
      <path fill="#fff" d="M451 222.017h500.585v494.084H451z"/>
      <path fill-rule="evenodd" clip-rule="evenodd" d="M508.228 274.025a5.202 5.202 0 00-5.201 5.201v19.504a5.2 5.2 0 005.201 5.2h317.254a5.2 5.2 0 005.201-5.2v-19.504a5.2 5.2 0 00-5.201-5.201H508.228zm-5.22 66.312c0-2.873 1.511-5.201 3.375-5.201h198.134c1.864 0 3.375 2.328 3.375 5.201v1.3c0 2.872-1.511 5.201-3.375 5.201H506.383c-1.864 0-3.375-2.329-3.375-5.201v-1.3zm0 119.62c0-2.872 1.511-5.201 3.375-5.201h198.134c1.864 0 3.375 2.329 3.375 5.201v1.3c0 2.873-1.511 5.201-3.375 5.201H506.383c-1.864 0-3.375-2.328-3.375-5.201v-1.3zm200.132-89.715c0-2.873 1.511-5.201 3.375-5.201h189.158c1.864 0 3.375 2.328 3.375 5.201v1.3c0 2.872-1.511 5.201-3.375 5.201H706.515c-1.864 0-3.375-2.329-3.375-5.201v-1.3zm0 59.81c0-2.872 1.511-5.201 3.375-5.201h189.158c1.864 0 3.375 2.329 3.375 5.201v1.3c0 2.873-1.511 5.201-3.375 5.201H706.515c-1.864 0-3.375-2.328-3.375-5.201v-1.3zm-200.132-29.905c0-2.873 1.511-5.201 3.375-5.201h198.134c1.864 0 3.375 2.328 3.375 5.201v1.3c0 2.872-1.511 5.201-3.375 5.201H506.383c-1.864 0-3.375-2.329-3.375-5.201v-1.3zm0-29.905c0-2.873 1.511-5.201 3.375-5.201h59.784c1.864 0 3.375 2.328 3.375 5.201v1.3c0 2.872-1.511 5.201-3.375 5.201h-59.784c-1.864 0-3.375-2.329-3.375-5.201v-1.3zm0 119.62c0-2.872 1.511-5.201 3.375-5.201h59.784c1.864 0 3.375 2.329 3.375 5.201v1.3c0 2.873-1.511 5.201-3.375 5.201h-59.784c-1.864 0-3.375-2.328-3.375-5.201v-1.3zm214.388-89.697c0-2.873 1.511-5.201 3.375-5.201h59.785c1.864 0 3.375 2.328 3.375 5.201v1.3c0 2.872-1.511 5.201-3.375 5.201h-59.785c-1.864 0-3.375-2.329-3.375-5.201v-1.3zm-214.388 29.887c0-2.872 1.511-5.201 3.375-5.201h82.491c1.864 0 3.375 2.329 3.375 5.201v1.3c0 2.873-1.511 5.201-3.375 5.201h-82.491c-1.864 0-3.375-2.328-3.375-5.201v-1.3zm212.278-89.698c0-2.872 1.511-5.2 3.375-5.2h82.491c1.864 0 3.375 2.328 3.375 5.2v1.301c0 2.872-1.511 5.201-3.375 5.201h-82.491c-1.864 0-3.375-2.329-3.375-5.201v-1.301zm-.528 119.621c0-2.873 1.511-5.201 3.375-5.201h82.491c1.864 0 3.375 2.328 3.375 5.201v1.3c0 2.872-1.511 5.201-3.375 5.201h-82.491c-1.864 0-3.375-2.329-3.375-5.201v-1.3zm-131.485-89.733c0-2.873 1.511-5.201 3.375-5.201h99.388c1.864 0 3.376 2.328 3.376 5.201v1.3c0 2.872-1.512 5.201-3.376 5.201h-99.388c-1.864 0-3.375-2.329-3.375-5.201v-1.3zm-2.113 119.62c0-2.872 1.511-5.201 3.375-5.201h99.388c1.864 0 3.375 2.329 3.375 5.201v1.3c0 2.873-1.511 5.201-3.375 5.201h-99.388c-1.864 0-3.375-2.328-3.375-5.201v-1.3zm212.278-89.697c0-2.873 1.511-5.201 3.375-5.201h99.389c1.864 0 3.375 2.328 3.375 5.201v1.3c0 2.872-1.511 5.201-3.375 5.201h-99.389c-1.864 0-3.375-2.329-3.375-5.201v-1.3zm-189.571 29.869c0-2.872 1.511-5.201 3.375-5.201h80.906c1.864 0 3.375 2.329 3.375 5.201v1.3c0 2.873-1.511 5.201-3.375 5.201h-80.906c-1.864 0-3.375-2.328-3.375-5.201v-1.3zm208.052-89.697c0-2.873 1.511-5.201 3.375-5.201H896.2c1.864 0 3.375 2.328 3.375 5.201v1.3c0 2.872-1.511 5.201-3.375 5.201h-80.906c-1.864 0-3.375-2.329-3.375-5.201v-1.3z" fill="#E0E7FF"/>
      <path fill="#AEBFFF" d="M1040 222.017h-88.415v494.084H1040z"/>
    </g>
  </g>
  <defs>
    <clipPath id="tabs-do-06__clip0">
      <rect x="451" y="121.899" width="589.001" height="594.201" rx="10.402" fill="#fff"/>
    </clipPath>
    <clipPath id="tabs-do-06__clip1">
      <path fill="#fff" transform="translate(451 121.899)" d="M0 0h589.001v100.565H0z"/>
    </clipPath>
    <clipPath id="tabs-do-06__clip2">
      <path fill="#fff" transform="translate(451 218.441)" d="M0 0h147.25v4.023H0z"/>
    </clipPath>
    <clipPath id="tabs-do-06__clip3">
      <path fill="#fff" transform="translate(598.25 218.441)" d="M0 0h147.25v4.023H0z"/>
    </clipPath>
    <clipPath id="tabs-do-06__clip4">
      <path fill="#fff" transform="translate(745.5 218.441)" d="M0 0h147.25v4.023H0z"/>
    </clipPath>
    <clipPath id="tabs-do-06__clip5">
      <path fill="#fff" transform="translate(892.75 218.441)" d="M0 0h147.25v4.023H0z"/>
    </clipPath>
    <filter id="tabs-do-06__filter0_d" x="435" y="113.899" width="621.001" height="626.201" filterUnits="userSpaceOnUse" color-interpolation-filters="sRGB">
      <feFlood flood-opacity="0" result="BackgroundImageFix"/>
      <feColorMatrix in="SourceAlpha" values="0 0 0 0 0 0 0 0 0 0 0 0 0 0 0 0 0 0 127 0"/>
      <feOffset dy="8"/>
      <feGaussianBlur stdDeviation="8"/>
      <feColorMatrix values="0 0 0 0 0.0392157 0 0 0 0 0.0392157 0 0 0 0 0.0392157 0 0 0 0.08 0"/>
      <feBlend in2="BackgroundImageFix" result="effect1_dropShadow"/>
      <feBlend in="SourceGraphic" in2="effect1_dropShadow" result="shape"/>
    </filter>
  </defs>
</svg>
