<svg width="1498" height="1381" viewBox="0 0 1498 1381" xmlns="http://www.w3.org/2000/svg">
  <path d="M7 4a4 4 0 014-4h1483a4 4 0 014 4v1366c0 2.21-1.79 4-4 4H11a4 4 0 01-4-4V4z" fill="#F0F3FF"/>
  <rect x="399" y="263.146" width="936" height="226.708" rx="11.854" fill="#E0E7FF"/>
  <g clip-path="url(#tabs-options-distribution__clip0)">
    <g clip-path="url(#tabs-options-distribution__clip1)">
      <path fill="#fff" d="M410.855 275h241.242v195.356H410.855z"/>
      <path d="M506.969 352.906v6.439h-10.598v33.333h-7.977v-33.333h-10.598v-6.439h29.173zm3.769 23.875c0-3.191.627-6.021 1.881-8.49 1.291-2.469 3.019-4.369 5.185-5.698 2.203-1.33 4.653-1.994 7.35-1.994 2.355 0 4.406.474 6.154 1.424 1.785.95 3.209 2.146 4.273 3.59v-4.502h8.034v31.567h-8.034v-4.616c-1.026 1.482-2.45 2.716-4.273 3.704-1.786.95-3.856 1.425-6.211 1.425-2.659 0-5.09-.684-7.293-2.052-2.166-1.367-3.894-3.285-5.185-5.755-1.254-2.507-1.881-5.375-1.881-8.603zm24.843.114c0-1.938-.38-3.59-1.14-4.958-.759-1.405-1.785-2.469-3.076-3.19a8.065 8.065 0 00-4.16-1.14 8.075 8.075 0 00-4.102 1.083c-1.254.721-2.279 1.785-3.077 3.19-.76 1.368-1.14 3.001-1.14 4.901 0 1.899.38 3.57 1.14 5.014.798 1.405 1.823 2.488 3.077 3.248 1.291.759 2.659 1.139 4.102 1.139a8.4 8.4 0 004.16-1.082c1.291-.76 2.317-1.824 3.076-3.191.76-1.406 1.14-3.077 1.14-5.014zm23.802-11.168c1.026-1.52 2.431-2.754 4.217-3.704 1.823-.95 3.893-1.424 6.21-1.424 2.697 0 5.128.664 7.294 1.994 2.203 1.329 3.931 3.229 5.185 5.698 1.291 2.431 1.937 5.261 1.937 8.49 0 3.228-.646 6.096-1.937 8.603-1.254 2.47-2.982 4.388-5.185 5.755-2.166 1.368-4.597 2.052-7.294 2.052-2.355 0-4.425-.456-6.21-1.368-1.748-.95-3.153-2.165-4.217-3.647v4.502h-7.977v-42.165h7.977v15.214zm16.695 11.054c0-1.9-.399-3.533-1.197-4.901-.759-1.405-1.785-2.469-3.076-3.19a8.081 8.081 0 00-4.103-1.083c-1.443 0-2.811.38-4.102 1.14-1.254.721-2.28 1.785-3.077 3.19-.76 1.406-1.14 3.058-1.14 4.958 0 1.899.38 3.551 1.14 4.957.797 1.405 1.823 2.488 3.077 3.248a8.29 8.29 0 004.102 1.082 7.78 7.78 0 004.103-1.139c1.291-.76 2.317-1.843 3.076-3.248.798-1.406 1.197-3.077 1.197-5.014z" fill="#577FFB"/>
      <g clip-path="url(#tabs-options-distribution__clip2)">
        <path fill="#577FFB" d="M410.855 470.356h241.238v8.14H410.855z"/>
      </g>
      <path fill="#EBEBEB" d="M652.098 275h4.07v203.496h-4.07z"/>
      <path fill="#fff" d="M656.168 275H897.41v195.356H656.168z"/>
      <path d="M752.282 352.906v6.439h-10.598v33.333h-7.977v-33.333h-10.599v-6.439h29.174zm3.769 23.875c0-3.191.627-6.021 1.88-8.49 1.292-2.469 3.02-4.369 5.185-5.698 2.203-1.33 4.653-1.994 7.35-1.994 2.356 0 4.407.474 6.154 1.424 1.785.95 3.21 2.146 4.274 3.59v-4.502h8.034v31.567h-8.034v-4.616c-1.026 1.482-2.451 2.716-4.274 3.704-1.785.95-3.855 1.425-6.211 1.425-2.659 0-5.09-.684-7.293-2.052-2.165-1.367-3.893-3.285-5.185-5.755-1.253-2.507-1.88-5.375-1.88-8.603zm24.843.114c0-1.938-.38-3.59-1.14-4.958-.76-1.405-1.785-2.469-3.077-3.19a8.062 8.062 0 00-4.159-1.14 8.078 8.078 0 00-4.103 1.083c-1.253.721-2.279 1.785-3.077 3.19-.759 1.368-1.139 3.001-1.139 4.901 0 1.899.38 3.57 1.139 5.014.798 1.405 1.824 2.488 3.077 3.248 1.292.759 2.659 1.139 4.103 1.139a8.396 8.396 0 004.159-1.082c1.292-.76 2.317-1.824 3.077-3.191.76-1.406 1.14-3.077 1.14-5.014zm23.802-11.168c1.025-1.52 2.431-2.754 4.216-3.704 1.823-.95 3.894-1.424 6.211-1.424 2.697 0 5.128.664 7.293 1.994 2.203 1.329 3.932 3.229 5.185 5.698 1.292 2.431 1.937 5.261 1.937 8.49 0 3.228-.645 6.096-1.937 8.603-1.253 2.47-2.982 4.388-5.185 5.755-2.165 1.368-4.596 2.052-7.293 2.052-2.355 0-4.426-.456-6.211-1.368-1.747-.95-3.153-2.165-4.216-3.647v4.502h-7.977v-42.165h7.977v15.214zm16.694 11.054c0-1.9-.398-3.533-1.196-4.901-.76-1.405-1.785-2.469-3.077-3.19a8.077 8.077 0 00-4.102-1.083c-1.444 0-2.811.38-4.103 1.14-1.253.721-2.279 1.785-3.077 3.19-.76 1.406-1.139 3.058-1.139 4.958 0 1.899.379 3.551 1.139 4.957.798 1.405 1.824 2.488 3.077 3.248a8.293 8.293 0 004.103 1.082c1.481 0 2.848-.38 4.102-1.139 1.292-.76 2.317-1.843 3.077-3.248.798-1.406 1.196-3.077 1.196-5.014z" fill="#808E99"/>
      <g clip-path="url(#tabs-options-distribution__clip3)">
        <path fill="#AEBFFF" d="M656.168 470.356h241.238v8.14H656.168z"/>
      </g>
      <path fill="#EBEBEB" d="M897.41 275h4.07v203.496h-4.07z"/>
      <path fill="#fff" d="M901.477 275h241.242v195.356H901.477z"/>
      <path d="M997.59 352.906v6.439h-10.598v33.333h-7.977v-33.333h-10.598v-6.439h29.173zm3.77 23.875c0-3.191.63-6.021 1.88-8.49 1.29-2.469 3.02-4.369 5.18-5.698 2.21-1.33 4.66-1.994 7.36-1.994 2.35 0 4.4.474 6.15 1.424 1.78.95 3.21 2.146 4.27 3.59v-4.502h8.04v31.567h-8.04v-4.616c-1.02 1.482-2.45 2.716-4.27 3.704-1.79.95-3.86 1.425-6.21 1.425-2.66 0-5.09-.684-7.3-2.052-2.16-1.367-3.89-3.285-5.18-5.755-1.25-2.507-1.88-5.375-1.88-8.603zm24.84.114c0-1.938-.38-3.59-1.14-4.958-.76-1.405-1.78-2.469-3.07-3.19a8.092 8.092 0 00-4.16-1.14c-1.49 0-2.85.361-4.11 1.083-1.25.721-2.28 1.785-3.07 3.19-.76 1.368-1.14 3.001-1.14 4.901 0 1.899.38 3.57 1.14 5.014.79 1.405 1.82 2.488 3.07 3.248 1.3.759 2.66 1.139 4.11 1.139 1.48 0 2.86-.361 4.16-1.082 1.29-.76 2.31-1.824 3.07-3.191.76-1.406 1.14-3.077 1.14-5.014zm23.8-11.168c1.03-1.52 2.44-2.754 4.22-3.704 1.82-.95 3.89-1.424 6.21-1.424 2.7 0 5.13.664 7.29 1.994 2.21 1.329 3.94 3.229 5.19 5.698 1.29 2.431 1.94 5.261 1.94 8.49 0 3.228-.65 6.096-1.94 8.603-1.25 2.47-2.98 4.388-5.19 5.755-2.16 1.368-4.59 2.052-7.29 2.052-2.35 0-4.42-.456-6.21-1.368-1.75-.95-3.15-2.165-4.22-3.647v4.502h-7.97v-42.165h7.97v15.214zm16.7 11.054c0-1.9-.4-3.533-1.2-4.901-.76-1.405-1.78-2.469-3.07-3.19a8.125 8.125 0 00-4.11-1.083c-1.44 0-2.81.38-4.1 1.14-1.25.721-2.28 1.785-3.08 3.19-.76 1.406-1.14 3.058-1.14 4.958 0 1.899.38 3.551 1.14 4.957.8 1.405 1.83 2.488 3.08 3.248a8.288 8.288 0 004.1 1.082c1.48 0 2.85-.38 4.11-1.139 1.29-.76 2.31-1.843 3.07-3.248.8-1.406 1.2-3.077 1.2-5.014z" fill="#808E99"/>
      <g clip-path="url(#tabs-options-distribution__clip4)">
        <path fill="#AEBFFF" d="M901.477 470.356h241.238v8.14H901.477z"/>
      </g>
    </g>
  </g>
  <rect x="399" y="608" width="936" height="229" rx="8" fill="#E0E7FF"/>
  <g clip-path="url(#tabs-options-distribution__clip5)">
    <path fill="#fff" d="M411 621.504h421.242V816.86H411z"/>
    <path d="M507.245 699.41v6.439h-10.598v33.333h-7.977v-33.333h-10.598v-6.439h29.173zm3.769 23.875c0-3.191.627-6.021 1.881-8.49 1.291-2.469 3.019-4.369 5.185-5.698 2.203-1.33 4.653-1.994 7.35-1.994 2.355 0 4.406.474 6.154 1.424 1.785.95 3.209 2.146 4.273 3.59v-4.502h8.034v31.567h-8.034v-4.616c-1.026 1.482-2.45 2.716-4.273 3.704-1.786.95-3.856 1.424-6.211 1.424-2.659 0-5.09-.683-7.293-2.051-2.166-1.367-3.894-3.286-5.185-5.755-1.254-2.507-1.881-5.375-1.881-8.603zm24.843.113c0-1.937-.38-3.589-1.14-4.957-.759-1.405-1.785-2.469-3.076-3.191a8.074 8.074 0 00-4.16-1.139 8.075 8.075 0 00-4.102 1.083c-1.254.721-2.28 1.785-3.077 3.19-.76 1.368-1.14 3.001-1.14 4.901 0 1.899.38 3.57 1.14 5.014.797 1.405 1.823 2.488 3.077 3.247 1.291.76 2.659 1.14 4.102 1.14a8.39 8.39 0 004.16-1.083c1.291-.759 2.317-1.823 3.076-3.19.76-1.406 1.14-3.077 1.14-5.015zm23.802-11.167c1.026-1.52 2.431-2.754 4.217-3.704 1.823-.95 3.893-1.424 6.21-1.424 2.697 0 5.128.664 7.294 1.994 2.203 1.329 3.931 3.229 5.185 5.698 1.291 2.431 1.937 5.261 1.937 8.49 0 3.228-.646 6.096-1.937 8.603-1.254 2.469-2.982 4.388-5.185 5.755-2.166 1.368-4.597 2.051-7.294 2.051-2.355 0-4.425-.455-6.21-1.367-1.748-.95-3.153-2.165-4.217-3.647v4.502h-7.977v-42.165h7.977v15.214zm16.695 11.054c0-1.9-.399-3.533-1.197-4.901-.759-1.405-1.785-2.469-3.077-3.19a8.075 8.075 0 00-4.102-1.083c-1.443 0-2.811.38-4.102 1.139-1.254.722-2.28 1.786-3.077 3.191-.76 1.406-1.14 3.058-1.14 4.957 0 1.9.38 3.552 1.14 4.958.797 1.405 1.823 2.488 3.077 3.247a8.28 8.28 0 004.102 1.083c1.481 0 2.849-.38 4.102-1.14 1.292-.759 2.318-1.842 3.077-3.247.798-1.406 1.197-3.077 1.197-5.014zm31.567-19.43c-1.405 0-2.583-.437-3.533-1.311-.911-.911-1.367-2.032-1.367-3.362 0-1.329.456-2.431 1.367-3.304.95-.912 2.128-1.368 3.533-1.368 1.406 0 2.564.456 3.476 1.368.949.873 1.424 1.975 1.424 3.304 0 1.33-.475 2.451-1.424 3.362-.912.874-2.07 1.311-3.476 1.311zm3.932 3.76v31.567h-7.977v-31.567h7.977zm17.169 6.553v15.27c0 1.064.246 1.843.74 2.336.532.456 1.406.684 2.621.684h3.704v6.724h-5.014c-6.724 0-10.085-3.267-10.085-9.801v-15.213h-3.761v-6.553h3.761v-7.806h8.034v7.806h7.065v6.553h-7.065zm42.147 8.547c0 1.139-.076 2.165-.228 3.077h-23.077c.19 2.279.988 4.064 2.393 5.356 1.406 1.291 3.134 1.937 5.185 1.937 2.963 0 5.072-1.273 6.325-3.818h8.604c-.912 3.039-2.659 5.546-5.242 7.522-2.583 1.937-5.755 2.905-9.516 2.905-3.039 0-5.774-.664-8.205-1.994-2.393-1.367-4.273-3.286-5.641-5.755-1.329-2.469-1.994-5.318-1.994-8.547 0-3.266.665-6.134 1.994-8.603 1.33-2.469 3.191-4.369 5.584-5.698 2.394-1.33 5.147-1.994 8.262-1.994 3.001 0 5.679.645 8.034 1.937a13.36 13.36 0 015.527 5.527c1.33 2.355 1.995 5.071 1.995 8.148zm-8.262-2.279c-.038-2.052-.779-3.685-2.223-4.901-1.443-1.253-3.209-1.88-5.299-1.88-1.975 0-3.646.608-5.014 1.823-1.329 1.178-2.146 2.83-2.45 4.958h14.986zm53.286-13.277c3.874 0 6.989 1.197 9.344 3.59 2.393 2.355 3.59 5.66 3.59 9.914v18.519h-7.977v-17.436c0-2.469-.627-4.349-1.881-5.641-1.253-1.329-2.962-1.994-5.128-1.994-2.165 0-3.893.665-5.185 1.994-1.253 1.292-1.88 3.172-1.88 5.641v17.436h-7.977v-17.436c0-2.469-.627-4.349-1.88-5.641-1.254-1.329-2.963-1.994-5.128-1.994-2.204 0-3.951.665-5.243 1.994-1.253 1.292-1.88 3.172-1.88 5.641v17.436h-7.977v-31.567h7.977v3.818c1.026-1.33 2.336-2.374 3.932-3.134 1.633-.76 3.418-1.14 5.356-1.14 2.469 0 4.672.532 6.609 1.596 1.938 1.026 3.438 2.507 4.502 4.444 1.025-1.823 2.507-3.286 4.444-4.387a12.886 12.886 0 016.382-1.653zm32.2-2.165v-7.35h13.732v41.538h-8.205v-34.188h-5.527z" fill="#577FFB"/>
    <g clip-path="url(#tabs-options-distribution__clip6)">
      <path fill="#577FFB" d="M411 816.86h421.238V825H411z"/>
    </g>
    <path fill="#EBEBEB" d="M832.242 621.504h4.07V825h-4.07z"/>
    <path fill="#fff" d="M836.312 621.504h241.242V816.86H836.312z"/>
    <path d="M932.867 699.41v6.439h-10.598v33.333h-7.977v-33.333h-10.598v-6.439h29.173zm3.769 23.875c0-3.191.627-6.021 1.88-8.49 1.292-2.469 3.02-4.369 5.185-5.698 2.204-1.33 4.654-1.994 7.351-1.994 2.355 0 4.406.474 6.153 1.424 1.786.95 3.21 2.146 4.274 3.59v-4.502h8.034v31.567h-8.034v-4.616c-1.026 1.482-2.45 2.716-4.274 3.704-1.785.95-3.855 1.424-6.21 1.424-2.659 0-5.09-.683-7.294-2.051-2.165-1.367-3.893-3.286-5.185-5.755-1.253-2.507-1.88-5.375-1.88-8.603zm24.843.113c0-1.937-.38-3.589-1.14-4.957-.759-1.405-1.785-2.469-3.077-3.191a8.07 8.07 0 00-4.159-1.139 8.081 8.081 0 00-4.103 1.083c-1.253.721-2.279 1.785-3.076 3.19-.76 1.368-1.14 3.001-1.14 4.901 0 1.899.38 3.57 1.14 5.014.797 1.405 1.823 2.488 3.076 3.247 1.292.76 2.66 1.14 4.103 1.14a8.387 8.387 0 004.159-1.083c1.292-.759 2.318-1.823 3.077-3.19.76-1.406 1.14-3.077 1.14-5.015zm23.802-11.167c1.026-1.52 2.431-2.754 4.216-3.704 1.824-.95 3.894-1.424 6.211-1.424 2.697 0 5.132.664 7.292 1.994 2.2 1.329 3.93 3.229 5.19 5.698 1.29 2.431 1.93 5.261 1.93 8.49 0 3.228-.64 6.096-1.93 8.603-1.26 2.469-2.99 4.388-5.19 5.755-2.16 1.368-4.595 2.051-7.292 2.051-2.355 0-4.425-.455-6.211-1.367-1.747-.95-3.152-2.165-4.216-3.647v4.502h-7.977v-42.165h7.977v15.214zm16.699 11.054c0-1.9-.4-3.533-1.2-4.901-.76-1.405-1.786-2.469-3.078-3.19a8.075 8.075 0 00-4.102-1.083c-1.444 0-2.811.38-4.103 1.139-1.253.722-2.279 1.786-3.076 3.191-.76 1.406-1.14 3.058-1.14 4.957 0 1.9.38 3.552 1.14 4.958.797 1.405 1.823 2.488 3.076 3.247a8.284 8.284 0 004.103 1.083c1.481 0 2.849-.38 4.102-1.14 1.292-.759 2.318-1.842 3.078-3.247.8-1.406 1.2-3.077 1.2-5.014z" fill="#808E99"/>
    <g clip-path="url(#tabs-options-distribution__clip7)">
      <path fill="#AEBFFF" d="M836.312 816.86h241.238V825H836.312z"/>
    </g>
    <path fill="#EBEBEB" d="M1077.55 621.504h4.07V825h-4.07z"/>
    <path fill="#fff" d="M1081.62 621.504h241.242V816.86H1081.62z"/>
    <path d="M1178.18 699.41v6.439h-10.6v33.333h-7.98v-33.333h-10.59v-6.439h29.17zm3.77 23.875c0-3.191.63-6.021 1.88-8.49 1.29-2.469 3.02-4.369 5.18-5.698 2.21-1.33 4.66-1.994 7.35-1.994 2.36 0 4.41.474 6.16 1.424 1.78.95 3.21 2.146 4.27 3.59v-4.502h8.04v31.567h-8.04v-4.616c-1.02 1.482-2.45 2.716-4.27 3.704-1.79.95-3.86 1.424-6.21 1.424-2.66 0-5.09-.683-7.3-2.051-2.16-1.367-3.89-3.286-5.18-5.755-1.25-2.507-1.88-5.375-1.88-8.603zm24.84.113c0-1.937-.38-3.589-1.14-4.957-.76-1.405-1.78-2.469-3.08-3.191a8.039 8.039 0 00-4.15-1.139c-1.49 0-2.85.361-4.11 1.083-1.25.721-2.28 1.785-3.07 3.19-.76 1.368-1.14 3.001-1.14 4.901 0 1.899.38 3.57 1.14 5.014.79 1.405 1.82 2.488 3.07 3.247 1.29.76 2.66 1.14 4.11 1.14 1.48 0 2.86-.361 4.15-1.083 1.3-.759 2.32-1.823 3.08-3.19.76-1.406 1.14-3.077 1.14-5.015zm23.8-11.167c1.03-1.52 2.43-2.754 4.22-3.704 1.82-.95 3.89-1.424 6.21-1.424 2.7 0 5.13.664 7.29 1.994 2.21 1.329 3.94 3.229 5.19 5.698 1.29 2.431 1.94 5.261 1.94 8.49 0 3.228-.65 6.096-1.94 8.603-1.25 2.469-2.98 4.388-5.19 5.755-2.16 1.368-4.59 2.051-7.29 2.051-2.35 0-4.42-.455-6.21-1.367-1.75-.95-3.15-2.165-4.22-3.647v4.502h-7.97v-42.165h7.97v15.214zm16.7 11.054c0-1.9-.4-3.533-1.2-4.901-.76-1.405-1.78-2.469-3.08-3.19a8.062 8.062 0 00-4.1-1.083c-1.44 0-2.81.38-4.1 1.139-1.25.722-2.28 1.786-3.08 3.191-.76 1.406-1.14 3.058-1.14 4.957 0 1.9.38 3.552 1.14 4.958.8 1.405 1.83 2.488 3.08 3.247a8.278 8.278 0 004.1 1.083c1.48 0 2.85-.38 4.1-1.14 1.3-.759 2.32-1.842 3.08-3.247.8-1.406 1.2-3.077 1.2-5.014z" fill="#808E99"/>
    <g clip-path="url(#tabs-options-distribution__clip8)">
      <path fill="#AEBFFF" d="M1081.62 816.86h241.242V825H1081.62z"/>
    </g>
  </g>
  <rect x="399" y="970" width="936" height="227.204" rx="11.854" fill="#E0E7FF"/>
  <g clip-path="url(#tabs-options-distribution__clip9)">
    <g clip-path="url(#tabs-options-distribution__clip10)">
      <path fill="#fff" d="M411.562 981.967H712.23v195.356H411.562z"/>
      <path d="M537.832 1059.87v6.44h-10.598v33.33h-7.977v-33.33h-10.598v-6.44h29.173zm3.769 23.88c0-3.19.627-6.02 1.88-8.49 1.292-2.47 3.02-4.37 5.185-5.7 2.203-1.33 4.654-1.99 7.351-1.99 2.355 0 4.406.47 6.153 1.42 1.786.95 3.21 2.15 4.274 3.59v-4.5h8.034v31.56h-8.034v-4.61c-1.026 1.48-2.45 2.72-4.274 3.7-1.785.95-3.855 1.43-6.21 1.43-2.659 0-5.091-.69-7.294-2.05-2.165-1.37-3.893-3.29-5.185-5.76-1.253-2.51-1.88-5.37-1.88-8.6zm24.843.11c0-1.94-.38-3.59-1.14-4.96-.76-1.4-1.785-2.46-3.077-3.19a8.062 8.062 0 00-4.159-1.14c-1.482 0-2.849.36-4.103 1.09-1.253.72-2.279 1.78-3.077 3.19-.759 1.36-1.139 3-1.139 4.9 0 1.9.38 3.57 1.139 5.01.798 1.41 1.824 2.49 3.077 3.25 1.292.76 2.659 1.14 4.103 1.14 1.481 0 2.868-.36 4.159-1.08 1.292-.76 2.317-1.83 3.077-3.19.76-1.41 1.14-3.08 1.14-5.02zm23.802-11.17c1.025-1.52 2.431-2.75 4.216-3.7 1.824-.95 3.894-1.42 6.211-1.42 2.697 0 5.128.66 7.293 1.99 2.203 1.33 3.932 3.23 5.185 5.7 1.292 2.43 1.938 5.26 1.938 8.49 0 3.23-.646 6.09-1.938 8.6-1.253 2.47-2.982 4.39-5.185 5.76-2.165 1.36-4.596 2.05-7.293 2.05-2.355 0-4.425-.46-6.211-1.37-1.747-.95-3.153-2.17-4.216-3.65v4.5h-7.977v-42.16h7.977v15.21zm16.695 11.06c0-1.9-.399-3.54-1.197-4.9-.76-1.41-1.785-2.47-3.077-3.19-1.253-.73-2.621-1.09-4.102-1.09-1.444 0-2.811.38-4.103 1.14-1.253.73-2.279 1.79-3.077 3.19-.759 1.41-1.139 3.06-1.139 4.96s.38 3.55 1.139 4.96c.798 1.4 1.824 2.49 3.077 3.25a8.301 8.301 0 004.103 1.08c1.481 0 2.849-.38 4.102-1.14 1.292-.76 2.317-1.84 3.077-3.25.798-1.4 1.197-3.08 1.197-5.01z" fill="#577FFB"/>
      <g clip-path="url(#tabs-options-distribution__clip11)">
        <path fill="#577FFB" d="M411.562 1177.32H712.8v8.14H411.562z"/>
      </g>
      <path fill="#EBEBEB" d="M712.23 981.967h4.07v203.496h-4.07z"/>
      <path fill="#fff" d="M716.301 981.967h300.668v195.356H716.301z"/>
      <path d="M842.57 1059.87v6.44h-10.598v33.33h-7.977v-33.33h-10.598v-6.44h29.173zm3.769 23.88c0-3.19.627-6.02 1.881-8.49 1.291-2.47 3.019-4.37 5.185-5.7 2.203-1.33 4.653-1.99 7.35-1.99 2.355 0 4.406.47 6.154 1.42 1.785.95 3.209 2.15 4.273 3.59v-4.5h8.034v31.56h-8.034v-4.61c-1.026 1.48-2.45 2.72-4.273 3.7-1.786.95-3.856 1.43-6.211 1.43-2.659 0-5.09-.69-7.293-2.05-2.166-1.37-3.894-3.29-5.185-5.76-1.254-2.51-1.881-5.37-1.881-8.6zm24.843.11c0-1.94-.38-3.59-1.14-4.96-.759-1.4-1.785-2.46-3.076-3.19a8.065 8.065 0 00-4.16-1.14c-1.481 0-2.849.36-4.102 1.09-1.254.72-2.28 1.78-3.077 3.19-.76 1.36-1.14 3-1.14 4.9 0 1.9.38 3.57 1.14 5.01.797 1.41 1.823 2.49 3.077 3.25 1.291.76 2.659 1.14 4.102 1.14 1.482 0 2.868-.36 4.16-1.08 1.291-.76 2.317-1.83 3.076-3.19.76-1.41 1.14-3.08 1.14-5.02zm23.802-11.17c1.026-1.52 2.431-2.75 4.216-3.7 1.824-.95 3.894-1.42 6.211-1.42 2.697 0 5.128.66 7.293 1.99 2.204 1.33 3.932 3.23 5.186 5.7 1.291 2.43 1.937 5.26 1.937 8.49 0 3.23-.646 6.09-1.937 8.6-1.254 2.47-2.982 4.39-5.186 5.76-2.165 1.36-4.596 2.05-7.293 2.05-2.355 0-4.425-.46-6.211-1.37-1.747-.95-3.152-2.17-4.216-3.65v4.5h-7.977v-42.16h7.977v15.21zm16.695 11.06c0-1.9-.399-3.54-1.197-4.9-.759-1.41-1.785-2.47-3.077-3.19-1.253-.73-2.621-1.09-4.102-1.09-1.443 0-2.811.38-4.103 1.14-1.253.73-2.279 1.79-3.076 3.19-.76 1.41-1.14 3.06-1.14 4.96s.38 3.55 1.14 4.96c.797 1.4 1.823 2.49 3.076 3.25a8.304 8.304 0 004.103 1.08c1.481 0 2.849-.38 4.102-1.14 1.292-.76 2.318-1.84 3.077-3.25.798-1.4 1.197-3.08 1.197-5.01z" fill="#808E99"/>
      <g clip-path="url(#tabs-options-distribution__clip12)">
        <path fill="#AEBFFF" d="M716.301 1177.32h301.238v8.14H716.301z"/>
      </g>
      <path fill="#EBEBEB" d="M1016.97 981.967h4.07v203.496h-4.07z"/>
      <path fill="#fff" d="M1021.04 981.967h300.668v195.356H1021.04z"/>
      <path d="M1147.31 1059.87v6.44h-10.6v33.33h-7.98v-33.33h-10.59v-6.44h29.17zm3.77 23.88c0-3.19.62-6.02 1.88-8.49 1.29-2.47 3.02-4.37 5.18-5.7 2.21-1.33 4.66-1.99 7.35-1.99 2.36 0 4.41.47 6.16 1.42 1.78.95 3.21 2.15 4.27 3.59v-4.5h8.03v31.56h-8.03v-4.61c-1.03 1.48-2.45 2.72-4.27 3.7-1.79.95-3.86 1.43-6.21 1.43-2.66 0-5.09-.69-7.3-2.05-2.16-1.37-3.89-3.29-5.18-5.76-1.26-2.51-1.88-5.37-1.88-8.6zm24.84.11c0-1.94-.38-3.59-1.14-4.96-.76-1.4-1.78-2.46-3.08-3.19a8.04 8.04 0 00-4.16-1.14c-1.48 0-2.84.36-4.1 1.09-1.25.72-2.28 1.78-3.07 3.19-.76 1.36-1.14 3-1.14 4.9 0 1.9.38 3.57 1.14 5.01.79 1.41 1.82 2.49 3.07 3.25 1.29.76 2.66 1.14 4.1 1.14 1.49 0 2.87-.36 4.16-1.08 1.3-.76 2.32-1.83 3.08-3.19.76-1.41 1.14-3.08 1.14-5.02zm23.8-11.17c1.03-1.52 2.43-2.75 4.22-3.7 1.82-.95 3.89-1.42 6.21-1.42 2.7 0 5.13.66 7.29 1.99 2.21 1.33 3.93 3.23 5.19 5.7 1.29 2.43 1.94 5.26 1.94 8.49 0 3.23-.65 6.09-1.94 8.6-1.26 2.47-2.98 4.39-5.19 5.76-2.16 1.36-4.59 2.05-7.29 2.05-2.36 0-4.43-.46-6.21-1.37-1.75-.95-3.15-2.17-4.22-3.65v4.5h-7.97v-42.16h7.97v15.21zm16.7 11.06c0-1.9-.4-3.54-1.2-4.9-.76-1.41-1.78-2.47-3.08-3.19-1.25-.73-2.62-1.09-4.1-1.09-1.44 0-2.81.38-4.1 1.14-1.25.73-2.28 1.79-3.08 3.19-.76 1.41-1.14 3.06-1.14 4.96s.38 3.55 1.14 4.96c.8 1.4 1.83 2.49 3.08 3.25 1.29.72 2.66 1.08 4.1 1.08 1.48 0 2.85-.38 4.1-1.14 1.3-.76 2.32-1.84 3.08-3.25.8-1.4 1.2-3.08 1.2-5.01z" fill="#808E99"/>
      <g clip-path="url(#tabs-options-distribution__clip13)">
        <path fill="#AEBFFF" d="M1021.04 1177.32h301.238v8.14H1021.04z"/>
      </g>
    </g>
  </g>
  <path d="M164.921 391.28c-1.84 0-3.493-.32-4.96-.96-1.44-.667-2.573-1.574-3.4-2.72-.826-1.174-1.253-2.52-1.28-4.04h3.88c.134 1.306.667 2.413 1.6 3.32.96.88 2.347 1.32 4.16 1.32 1.734 0 3.094-.427 4.08-1.28 1.014-.88 1.52-2 1.52-3.36 0-1.067-.293-1.934-.88-2.6a5.607 5.607 0 00-2.2-1.52c-.88-.347-2.066-.72-3.56-1.12-1.84-.48-3.32-.96-4.44-1.44-1.093-.48-2.04-1.227-2.84-2.24-.773-1.04-1.16-2.427-1.16-4.16 0-1.52.387-2.867 1.16-4.04.774-1.174 1.854-2.08 3.24-2.72 1.414-.64 3.027-.96 4.84-.96 2.614 0 4.747.653 6.4 1.96 1.68 1.306 2.627 3.04 2.84 5.2h-4c-.133-1.067-.693-2-1.68-2.8-.986-.827-2.293-1.24-3.92-1.24-1.52 0-2.76.4-3.72 1.2-.96.773-1.44 1.866-1.44 3.28 0 1.013.28 1.84.84 2.48a5.98 5.98 0 002.12 1.48c.854.32 2.04.693 3.56 1.12 1.84.506 3.32 1.013 4.44 1.52 1.12.48 2.08 1.24 2.88 2.28.8 1.013 1.2 2.4 1.2 4.16 0 1.36-.36 2.64-1.08 3.84-.72 1.2-1.786 2.173-3.2 2.92-1.413.746-3.08 1.12-5 1.12zm19.077-19.2V385c0 1.066.226 1.826.68 2.28.453.426 1.24.64 2.36.64h2.68V391h-3.28c-2.027 0-3.547-.467-4.56-1.4-1.014-.934-1.52-2.467-1.52-4.6v-12.92h-2.84v-3h2.84v-5.52h3.64v5.52h5.72v3h-5.72zm8.77 7.88c0-2.24.453-4.2 1.36-5.88.907-1.707 2.147-3.027 3.72-3.96 1.6-.934 3.373-1.4 5.32-1.4 1.92 0 3.587.413 5 1.24 1.413.826 2.467 1.866 3.16 3.12v-4h3.68V391h-3.68v-4.08c-.72 1.28-1.8 2.346-3.24 3.2-1.413.826-3.067 1.24-4.96 1.24-1.947 0-3.707-.48-5.28-1.44-1.573-.96-2.813-2.307-3.72-4.04-.907-1.734-1.36-3.707-1.36-5.92zm18.56.04c0-1.654-.333-3.094-1-4.32-.667-1.227-1.573-2.16-2.72-2.8-1.12-.667-2.36-1-3.72-1-1.36 0-2.6.32-3.72.96-1.12.64-2.013 1.573-2.68 2.8-.667 1.226-1 2.666-1 4.32 0 1.68.333 3.146 1 4.4.667 1.226 1.56 2.173 2.68 2.84 1.12.64 2.36.96 3.72.96 1.36 0 2.6-.32 3.72-.96 1.147-.667 2.053-1.614 2.72-2.84.667-1.254 1-2.707 1-4.36zm13.471-7.36c.64-1.254 1.547-2.227 2.72-2.92 1.2-.694 2.654-1.04 4.36-1.04v3.76h-.96c-4.08 0-6.12 2.213-6.12 6.64V391h-3.64v-21.92h3.64v3.56zm15.722-.56V385c0 1.066.227 1.826.68 2.28.454.426 1.24.64 2.36.64h2.68V391h-3.28c-2.026 0-3.546-.467-4.56-1.4-1.013-.934-1.52-2.467-1.52-4.6v-12.92h-2.84v-3h2.84v-5.52h3.64v5.52h5.72v3h-5.72zM768 138.04c0-2.72.613-5.16 1.84-7.32 1.227-2.187 2.893-3.894 5-5.12 2.133-1.227 4.493-1.84 7.08-1.84 3.04 0 5.693.733 7.96 2.2 2.267 1.466 3.92 3.546 4.96 6.24h-4.36c-.773-1.68-1.893-2.974-3.36-3.88-1.44-.907-3.173-1.36-5.2-1.36-1.947 0-3.693.453-5.24 1.36-1.547.906-2.76 2.2-3.64 3.88-.88 1.653-1.32 3.6-1.32 5.84 0 2.213.44 4.16 1.32 5.84.88 1.653 2.093 2.933 3.64 3.84 1.547.906 3.293 1.36 5.24 1.36 2.027 0 3.76-.44 5.2-1.32 1.467-.907 2.587-2.2 3.36-3.88h4.36c-1.04 2.666-2.693 4.733-4.96 6.2-2.267 1.44-4.92 2.16-7.96 2.16-2.587 0-4.947-.6-7.08-1.8-2.107-1.227-3.773-2.92-5-5.08-1.227-2.16-1.84-4.6-1.84-7.32zm41.818 14.32c-2.053 0-3.92-.467-5.6-1.4-1.653-.934-2.96-2.254-3.92-3.96-.933-1.734-1.4-3.734-1.4-6 0-2.24.48-4.214 1.44-5.92.987-1.734 2.32-3.054 4-3.96 1.68-.934 3.56-1.4 5.64-1.4 2.08 0 3.96.466 5.64 1.4 1.68.906 3 2.213 3.96 3.92.987 1.706 1.48 3.693 1.48 5.96 0 2.266-.506 4.266-1.52 6a10.3 10.3 0 01-4.04 3.96c-1.706.933-3.6 1.4-5.68 1.4zm0-3.2a7.687 7.687 0 003.68-.92c1.147-.614 2.067-1.534 2.76-2.76.72-1.227 1.08-2.72 1.08-4.48 0-1.76-.346-3.254-1.04-4.48-.693-1.227-1.6-2.134-2.72-2.72a7.449 7.449 0 00-3.64-.92c-1.333 0-2.56.306-3.68.92-1.093.586-1.973 1.493-2.64 2.72-.666 1.226-1 2.72-1 4.48 0 1.786.32 3.293.96 4.52.667 1.226 1.547 2.146 2.64 2.76 1.094.586 2.294.88 3.6.88zm26.706-19.48c2.667 0 4.827.813 6.48 2.44 1.654 1.6 2.48 3.92 2.48 6.96V152h-3.6v-12.4c0-2.187-.546-3.854-1.64-5-1.093-1.174-2.586-1.76-4.48-1.76-1.92 0-3.453.6-4.6 1.8-1.12 1.2-1.68 2.946-1.68 5.24V152h-3.64v-21.92h3.64v3.12a7.259 7.259 0 012.92-2.6c1.254-.614 2.627-.92 4.12-.92zm19.346 3.4V146c0 1.066.227 1.826.68 2.28.454.426 1.24.64 2.36.64h2.68V152h-3.28c-2.026 0-3.546-.467-4.56-1.4-1.013-.934-1.52-2.467-1.52-4.6v-12.92h-2.84v-3h2.84v-5.52h3.64v5.52h5.72v3h-5.72zm30.131 7.12c0 .693-.04 1.426-.12 2.2h-17.52c.133 2.16.866 3.853 2.2 5.08 1.36 1.2 3 1.8 4.92 1.8 1.573 0 2.88-.36 3.92-1.08a5.901 5.901 0 002.24-2.96h3.92c-.587 2.106-1.76 3.826-3.52 5.16-1.76 1.306-3.947 1.96-6.56 1.96-2.08 0-3.947-.467-5.6-1.4-1.627-.934-2.907-2.254-3.84-3.96-.934-1.734-1.4-3.734-1.4-6 0-2.267.453-4.254 1.36-5.96.906-1.707 2.173-3.014 3.8-3.92 1.653-.934 3.546-1.4 5.68-1.4 2.08 0 3.92.453 5.52 1.36a9.25 9.25 0 013.68 3.76c.88 1.573 1.32 3.36 1.32 5.36zm-3.76-.76c0-1.387-.307-2.574-.92-3.56a5.79 5.79 0 00-2.52-2.28c-1.04-.534-2.2-.8-3.48-.8-1.84 0-3.414.586-4.72 1.76-1.28 1.173-2.014 2.8-2.2 4.88h13.84zm19.244-9.76c2.667 0 4.827.813 6.48 2.44 1.654 1.6 2.48 3.92 2.48 6.96V152h-3.6v-12.4c0-2.187-.546-3.854-1.64-5-1.093-1.174-2.586-1.76-4.48-1.76-1.92 0-3.453.6-4.6 1.8-1.12 1.2-1.68 2.946-1.68 5.24V152h-3.64v-21.92h3.64v3.12a7.259 7.259 0 012.92-2.6c1.254-.614 2.627-.92 4.12-.92zm19.346 3.4V146c0 1.066.227 1.826.68 2.28.454.426 1.24.64 2.36.64h2.68V152h-3.28c-2.026 0-3.546-.467-4.56-1.4-1.013-.934-1.52-2.467-1.52-4.6v-12.92h-2.84v-3h2.84v-5.52h3.64v5.52h5.72v3h-5.72zm19.435 7.88c0-2.24.453-4.2 1.36-5.88.906-1.707 2.146-3.027 3.72-3.96 1.6-.934 3.373-1.4 5.32-1.4 1.92 0 3.586.413 5 1.24 1.413.826 2.466 1.866 3.16 3.12v-4h3.68V152h-3.68v-4.08c-.72 1.28-1.8 2.346-3.24 3.2-1.414.826-3.067 1.24-4.96 1.24-1.947 0-3.707-.48-5.28-1.44-1.574-.96-2.814-2.307-3.72-4.04-.907-1.734-1.36-3.707-1.36-5.92zm18.56.04c0-1.654-.334-3.094-1-4.32-.667-1.227-1.574-2.16-2.72-2.8-1.12-.667-2.36-1-3.72-1-1.36 0-2.6.32-3.72.96-1.12.64-2.014 1.573-2.68 2.8-.667 1.226-1 2.666-1 4.32 0 1.68.333 3.146 1 4.4.666 1.226 1.56 2.173 2.68 2.84 1.12.64 2.36.96 3.72.96 1.36 0 2.6-.32 3.72-.96 1.146-.667 2.053-1.614 2.72-2.84.666-1.254 1-2.707 1-4.36zm13.471-7.36c.64-1.254 1.547-2.227 2.72-2.92 1.2-.694 2.653-1.04 4.36-1.04v3.76h-.96c-4.08 0-6.12 2.213-6.12 6.64V152h-3.64v-21.92h3.64v3.56zm31.283 6.56c0 .693-.04 1.426-.12 2.2h-17.521c.133 2.16.866 3.853 2.2 5.08 1.36 1.2 3 1.8 4.92 1.8 1.573 0 2.88-.36 3.92-1.08a5.901 5.901 0 002.24-2.96h3.921c-.59 2.106-1.76 3.826-3.521 5.16-1.76 1.306-3.947 1.96-6.56 1.96-2.08 0-3.947-.467-5.6-1.4-1.627-.934-2.907-2.254-3.84-3.96-.934-1.734-1.4-3.734-1.4-6 0-2.267.453-4.254 1.36-5.96.906-1.707 2.173-3.014 3.8-3.92 1.653-.934 3.546-1.4 5.68-1.4 2.08 0 3.92.453 5.52 1.36 1.601.906 2.831 2.16 3.681 3.76.88 1.573 1.32 3.36 1.32 5.36zm-3.761-.76c0-1.387-.307-2.574-.92-3.56a5.79 5.79 0 00-2.52-2.28c-1.04-.534-2.2-.8-3.48-.8-1.84 0-3.414.586-4.72 1.76-1.28 1.173-2.014 2.8-2.2 4.88h13.84zm7.201 1.52c0-2.24.46-4.2 1.36-5.88.91-1.707 2.15-3.027 3.72-3.96 1.6-.934 3.38-1.4 5.32-1.4 1.92 0 3.59.413 5 1.24 1.42.826 2.47 1.866 3.16 3.12v-4h3.68V152h-3.68v-4.08c-.72 1.28-1.8 2.346-3.24 3.2-1.41.826-3.06 1.24-4.96 1.24-1.94 0-3.7-.48-5.28-1.44-1.57-.96-2.81-2.307-3.72-4.04-.9-1.734-1.36-3.707-1.36-5.92zm18.56.04c0-1.654-.33-3.094-1-4.32-.66-1.227-1.57-2.16-2.72-2.8-1.12-.667-2.36-1-3.72-1-1.36 0-2.6.32-3.72.96-1.12.64-2.01 1.573-2.68 2.8-.66 1.226-1 2.666-1 4.32 0 1.68.34 3.146 1 4.4.67 1.226 1.56 2.173 2.68 2.84 1.12.64 2.36.96 3.72.96 1.36 0 2.6-.32 3.72-.96 1.15-.667 2.06-1.614 2.72-2.84.67-1.254 1-2.707 1-4.36zM177.199 717.2c-.774-1.627-1.894-2.88-3.36-3.76-1.467-.907-3.174-1.36-5.12-1.36-1.947 0-3.707.453-5.28 1.36-1.547.88-2.774 2.16-3.68 3.84-.88 1.653-1.32 3.573-1.32 5.76 0 2.186.44 4.106 1.32 5.76.906 1.653 2.133 2.933 3.68 3.84 1.573.88 3.333 1.32 5.28 1.32 2.72 0 4.96-.814 6.72-2.44 1.76-1.627 2.786-3.827 3.08-6.6h-11.12v-2.96h15v2.8a13.992 13.992 0 01-2.16 6.32 13.585 13.585 0 01-4.84 4.52c-2 1.093-4.227 1.64-6.68 1.64-2.587 0-4.947-.6-7.08-1.8-2.134-1.227-3.827-2.92-5.08-5.08-1.227-2.16-1.84-4.6-1.84-7.32 0-2.72.613-5.16 1.84-7.32 1.253-2.187 2.946-3.88 5.08-5.08 2.133-1.227 4.493-1.84 7.08-1.84 2.96 0 5.573.733 7.84 2.2 2.293 1.466 3.96 3.533 5 6.2h-4.36zm13.653 1.44c.64-1.254 1.546-2.227 2.72-2.92 1.2-.694 2.653-1.04 4.36-1.04v3.76h-.96c-4.08 0-6.12 2.213-6.12 6.64V737h-3.64v-21.92h3.64v3.56zm20.841 18.72c-2.053 0-3.92-.467-5.6-1.4-1.653-.934-2.96-2.254-3.92-3.96-.933-1.734-1.4-3.734-1.4-6 0-2.24.48-4.214 1.44-5.92.987-1.734 2.32-3.054 4-3.96 1.68-.934 3.56-1.4 5.64-1.4 2.08 0 3.96.466 5.64 1.4 1.68.906 3 2.213 3.96 3.92.987 1.706 1.48 3.693 1.48 5.96 0 2.266-.506 4.266-1.52 6a10.3 10.3 0 01-4.04 3.96c-1.706.933-3.6 1.4-5.68 1.4zm0-3.2a7.687 7.687 0 003.68-.92c1.147-.614 2.067-1.534 2.76-2.76.72-1.227 1.08-2.72 1.08-4.48 0-1.76-.346-3.254-1.04-4.48-.693-1.227-1.6-2.134-2.72-2.72a7.449 7.449 0 00-3.64-.92c-1.333 0-2.56.306-3.68.92-1.093.586-1.973 1.493-2.64 2.72-.666 1.226-1 2.72-1 4.48 0 1.786.32 3.293.96 4.52.667 1.226 1.547 2.146 2.64 2.76 1.094.586 2.294.88 3.6.88zm45.226-19.08l-6.84 21.92h-3.76l-5.28-17.4-5.28 17.4h-3.76l-6.88-21.92h3.72l5.04 18.4 5.44-18.4h3.72l5.32 18.44 4.96-18.44h3.6zm-95.201 358v9.32h10.16v3h-10.16v9.6h11.36v3h-15v-27.92h15v3h-11.36zm15.508 13.88c0-2.24.453-4.2 1.36-5.88.907-1.71 2.147-3.03 3.72-3.96 1.6-.93 3.387-1.4 5.36-1.4 1.893 0 3.547.43 4.96 1.28 1.44.83 2.493 1.85 3.16 3.08v-4h3.68v32.32h-3.68v-14.44c-.693 1.23-1.76 2.27-3.2 3.12-1.44.85-3.12 1.28-5.04 1.28s-3.667-.48-5.24-1.44c-1.573-.96-2.813-2.31-3.72-4.04s-1.36-3.71-1.36-5.92zm18.56.04c0-1.65-.333-3.09-1-4.32-.667-1.23-1.573-2.16-2.72-2.8-1.12-.67-2.36-1-3.72-1-1.36 0-2.6.32-3.72.96-1.12.64-2.013 1.57-2.68 2.8-.667 1.23-1 2.67-1 4.32 0 1.68.333 3.15 1 4.4.667 1.23 1.56 2.17 2.68 2.84 1.12.64 2.36.96 3.72.96 1.36 0 2.6-.32 3.72-.96 1.147-.67 2.053-1.61 2.72-2.84.667-1.25 1-2.71 1-4.36zm29.271-10.92V1098h-3.64v-3.24c-.693 1.12-1.666 2-2.92 2.64-1.226.61-2.586.92-4.08.92-1.706 0-3.24-.35-4.6-1.04-1.36-.72-2.44-1.79-3.24-3.2-.773-1.41-1.16-3.13-1.16-5.16v-12.84h3.6v12.36c0 2.16.547 3.83 1.64 5 1.094 1.15 2.587 1.72 4.48 1.72 1.947 0 3.48-.6 4.6-1.8 1.12-1.2 1.68-2.95 1.68-5.24v-12.04h3.64zm4.786 10.88c0-2.24.453-4.2 1.36-5.88.907-1.71 2.147-3.03 3.72-3.96 1.6-.93 3.373-1.4 5.32-1.4 1.92 0 3.587.41 5 1.24 1.413.83 2.467 1.87 3.16 3.12v-4h3.68V1098h-3.68v-4.08c-.72 1.28-1.8 2.35-3.24 3.2-1.413.83-3.067 1.24-4.96 1.24-1.947 0-3.707-.48-5.28-1.44-1.573-.96-2.813-2.31-3.72-4.04s-1.36-3.71-1.36-5.92zm18.56.04c0-1.65-.333-3.09-1-4.32-.667-1.23-1.573-2.16-2.72-2.8-1.12-.67-2.36-1-3.72-1-1.36 0-2.6.32-3.72.96-1.12.64-2.013 1.57-2.68 2.8-.667 1.23-1 2.67-1 4.32 0 1.68.333 3.15 1 4.4.667 1.23 1.56 2.17 2.68 2.84 1.12.64 2.36.96 3.72.96 1.36 0 2.6-.32 3.72-.96 1.147-.67 2.053-1.61 2.72-2.84.667-1.25 1-2.71 1-4.36zm13.471-18.6v29.6h-3.64v-29.6h3.64z" fill="#577FFB"/>
  <path fill-rule="evenodd" clip-rule="evenodd" d="M419.462 198.011c-11.275 0-20.415 8.826-20.415 19.714V243H398v-25.275c0-11.446 9.609-20.725 21.462-20.725h894.078c11.85 0 21.46 9.279 21.46 20.725V243h-1.05v-25.275c0-10.888-9.14-19.714-20.41-19.714H419.462z" fill="#577FFB"/>
  <defs>
    <clipPath id="tabs-options-distribution__clip0">
      <rect x="410.855" y="275" width="732" height="203" rx="8" fill="#fff"/>
    </clipPath>
    <clipPath id="tabs-options-distribution__clip1">
      <path fill="#fff" transform="translate(410.855 275)" d="M0 0h731.865v203.496H0z"/>
    </clipPath>
    <clipPath id="tabs-options-distribution__clip2">
      <path fill="#fff" transform="translate(410.855 470.356)" d="M0 0h241.242v8.14H0z"/>
    </clipPath>
    <clipPath id="tabs-options-distribution__clip3">
      <path fill="#fff" transform="translate(656.168 470.356)" d="M0 0h241.242v8.14H0z"/>
    </clipPath>
    <clipPath id="tabs-options-distribution__clip4">
      <path fill="#fff" transform="translate(901.477 470.356)" d="M0 0h241.242v8.14H0z"/>
    </clipPath>
    <clipPath id="tabs-options-distribution__clip5">
      <path fill="#fff" transform="translate(411 621.504)" d="M0 0h912v203.496H0z"/>
    </clipPath>
    <clipPath id="tabs-options-distribution__clip6">
      <path fill="#fff" transform="translate(411 816.86)" d="M0 0h421.242v8.14H0z"/>
    </clipPath>
    <clipPath id="tabs-options-distribution__clip7">
      <path fill="#fff" transform="translate(836.312 816.86)" d="M0 0h241.242v8.14H0z"/>
    </clipPath>
    <clipPath id="tabs-options-distribution__clip8">
      <path fill="#fff" transform="translate(1081.62 816.86)" d="M0 0h241.242v8.14H0z"/>
    </clipPath>
    <clipPath id="tabs-options-distribution__clip9">
      <rect x="411.562" y="981.967" width="910.144" height="203.496" rx="8" fill="#fff"/>
    </clipPath>
    <clipPath id="tabs-options-distribution__clip10">
      <path fill="#fff" transform="translate(411.562 981.967)" d="M0 0h910.144v203.496H0z"/>
    </clipPath>
    <clipPath id="tabs-options-distribution__clip11">
      <path fill="#fff" transform="translate(411.562 1177.32)" d="M0 0h300.668v8.14H0z"/>
    </clipPath>
    <clipPath id="tabs-options-distribution__clip12">
      <path fill="#fff" transform="translate(716.301 1177.32)" d="M0 0h300.668v8.14H0z"/>
    </clipPath>
    <clipPath id="tabs-options-distribution__clip13">
      <path fill="#fff" transform="translate(1021.04 1177.32)" d="M0 0h300.668v8.14H0z"/>
    </clipPath>
  </defs>
</svg>
