<svg width="1491" height="837" viewBox="0 0 1491 837" xmlns="http://www.w3.org/2000/svg">
  <g clip-path="url(#tabs-dont-01__clip0)">
    <path d="M0 3.99a4 4 0 014-4h1482.72a4 4 0 014 4v830.004a4 4 0 01-4 4H4a4 4 0 01-4-4V3.99z" fill="#F0F3FF"/>
    <path fill-rule="evenodd" clip-rule="evenodd" d="M115 861h954V4c0-33.137-49.38-60-82.517-60h-788C165.346-56 115-29.137 115 4v857zm43.483-20V4c0-22.091 17.909-40 40-40h788c22.087 0 39.997 17.909 39.997 40v837H158.483z" fill="#AEBFFF"/>
    <g filter="url(#tabs-dont-01__filter0_d)">
      <path d="M157.984 841h867.996V4c0-22.091-17.9-40-39.996-40h-788c-22.091 0-40 17.909-40 40v837z" fill="#E0E7FF"/>
    </g>
    <rect x="206.984" y="675.986" width="770" height="297" rx="8" fill="#F0F3FF"/>
    <rect x="206.984" y="-53" width="770" height="221" rx="8" fill="#F0F3FF"/>
    <g clip-path="url(#tabs-dont-01__clip1)">
      <path d="M207 285.6h770v359.6H207V285.6z" fill="#fff"/>
      <path fill-rule="evenodd" clip-rule="evenodd" d="M251.016 330.691a4 4 0 00-4 4v17.927a4 4 0 004 4h244a4 4 0 004-4v-17.927a4 4 0 00-4-4h-244zM247 389.927a4 4 0 014-4h349.001a4 4 0 014 4v2.146a4 4 0 01-4 4H251a4 4 0 01-4-4v-2.146zm0 103.709a4 4 0 014-4h349.001a4 4 0 014 4v2.146a4 4 0 01-4 4H251a4 4 0 01-4-4v-2.146zm352.722-81.782a4 4 0 00-4 4V418a4 4 0 004 4h333.359a4 4 0 004-4v-2.146a4 4 0 00-4-4H599.722zm-4 55.855a4 4 0 014-4h333.359a4 4 0 014 4v2.145a4 4 0 01-4 4H599.722a4 4 0 01-4-4v-2.145zM251 437.782a4 4 0 00-4 4v2.145a4 4 0 004 4h349.001a4 4 0 004-4v-2.145a4 4 0 00-4-4H251zm-4-21.927a4 4 0 014-4h107.933c2.21 0 4 1.79 4 4V418a4 4 0 01-4 4H251a4 4 0 01-4-4v-2.145zm4 99.709a4 4 0 00-4 4v2.145a4 4 0 004 4h107.933a4 4 0 004-4v-2.145c0-2.21-1.79-4-4-4H251zm369.564-73.767a4 4 0 014-4h107.933a4 4 0 014 4v2.146a4 4 0 01-4 4H624.564a4 4 0 01-4-4v-2.146zM251 463.709a4 4 0 00-4 4v2.146a4 4 0 004 4h147.498a4 4 0 004-4v-2.146a4 4 0 00-4-4H251zm365.884-73.766a4 4 0 014-4h147.498a4 4 0 014 4v2.145a4 4 0 01-4 4H620.884a4 4 0 01-4-4v-2.145zm3.08 99.709a4 4 0 00-4 4v2.145a4 4 0 004 4h147.498a4 4 0 004-4v-2.145a4 4 0 00-4-4H619.964zm-233.109-73.798a4 4 0 014-4h176.942a4 4 0 014 4V418a4 4 0 01-4 4H390.855a4 4 0 01-4-4v-2.146zm.322 99.709a4 4 0 00-4 4v2.146a4 4 0 004 4h176.941a4 4 0 004-4v-2.146a4 4 0 00-4-4H387.177zm365.883-73.766a4 4 0 014-4h176.941a4 4 0 014 4v2.146a4 4 0 01-4 4H757.06a4 4 0 01-4-4v-2.146zm-326.319 21.897a4 4 0 00-4 4v2.145a4 4 0 004 4h144.738a4 4 0 004-4v-2.145a4 4 0 00-4-4H426.741zm358.521-73.767a4 4 0 014-4H934a4 4 0 014 4v2.146a4 4 0 01-4 4H789.262a4 4 0 01-4-4v-2.146z" fill="#E0E7FF"/>
      <path fill="#fff" d="M207 194h193.667v88.32H207z"/>
      <path d="M283.599 228.116v3.164h-5.208v16.38h-3.92v-16.38h-5.208v-3.164h14.336zm1.852 11.732c0-1.568.308-2.959.924-4.172.635-1.213 1.484-2.147 2.548-2.8 1.083-.653 2.287-.98 3.612-.98 1.158 0 2.166.233 3.024.7.878.467 1.578 1.055 2.1 1.764v-2.212h3.948v15.512h-3.948v-2.268c-.504.728-1.204 1.335-2.1 1.82-.877.467-1.894.7-3.052.7a6.665 6.665 0 01-3.584-1.008c-1.064-.672-1.913-1.615-2.548-2.828-.616-1.232-.924-2.641-.924-4.228zm12.208.056c0-.952-.186-1.764-.56-2.436-.373-.691-.877-1.213-1.512-1.568a3.965 3.965 0 00-2.044-.56c-.728 0-1.4.177-2.016.532-.616.355-1.12.877-1.512 1.568-.373.672-.56 1.475-.56 2.408 0 .933.187 1.755.56 2.464.392.691.896 1.223 1.512 1.596a3.92 3.92 0 002.016.56c.728 0 1.41-.177 2.044-.532a4.066 4.066 0 001.512-1.568c.374-.691.56-1.512.56-2.464zm11.697-5.488c.504-.747 1.195-1.353 2.072-1.82.896-.467 1.913-.7 3.052-.7 1.325 0 2.52.327 3.584.98 1.083.653 1.932 1.587 2.548 2.8.635 1.195.952 2.585.952 4.172 0 1.587-.317 2.996-.952 4.228-.616 1.213-1.465 2.156-2.548 2.828-1.064.672-2.259 1.008-3.584 1.008-1.157 0-2.175-.224-3.052-.672-.859-.467-1.549-1.064-2.072-1.792v2.212h-3.92v-20.72h3.92v7.476zm8.204 5.432c0-.933-.196-1.736-.588-2.408-.373-.691-.877-1.213-1.512-1.568a3.967 3.967 0 00-2.016-.532 3.92 3.92 0 00-2.016.56c-.616.355-1.12.877-1.512 1.568-.373.691-.56 1.503-.56 2.436s.187 1.745.56 2.436c.392.691.896 1.223 1.512 1.596a4.07 4.07 0 002.016.532c.728 0 1.4-.187 2.016-.56.635-.373 1.139-.905 1.512-1.596.392-.691.588-1.512.588-2.464zm12.6-8.988v-3.612h6.748v20.412h-4.032v-16.8h-2.716z" fill="#808E99"/>
      <g clip-path="url(#tabs-dont-01__clip2)">
        <path fill="#AEBFFF" d="M207 282.32h193.88V286H207z"/>
      </g>
      <path fill="#fff" d="M400.668 194h189v88.32h-189z"/>
      <path d="M471.968 228.116v3.164h-5.208v16.38h-3.92v-16.38h-5.208v-3.164h14.336zm1.852 11.732c0-1.568.308-2.959.924-4.172.635-1.213 1.484-2.147 2.548-2.8 1.083-.653 2.287-.98 3.612-.98 1.158 0 2.166.233 3.024.7.878.467 1.578 1.055 2.1 1.764v-2.212h3.948v15.512h-3.948v-2.268c-.504.728-1.204 1.335-2.1 1.82-.877.467-1.894.7-3.052.7a6.665 6.665 0 01-3.584-1.008c-1.064-.672-1.913-1.615-2.548-2.828-.616-1.232-.924-2.641-.924-4.228zm12.208.056c0-.952-.186-1.764-.56-2.436-.373-.691-.877-1.213-1.512-1.568a3.965 3.965 0 00-2.044-.56c-.728 0-1.4.177-2.016.532-.616.355-1.12.877-1.512 1.568-.373.672-.56 1.475-.56 2.408 0 .933.187 1.755.56 2.464.392.691.896 1.223 1.512 1.596a3.92 3.92 0 002.016.56c.728 0 1.41-.177 2.044-.532a4.066 4.066 0 001.512-1.568c.374-.691.56-1.512.56-2.464zm11.697-5.488c.504-.747 1.195-1.353 2.072-1.82.896-.467 1.913-.7 3.052-.7 1.325 0 2.52.327 3.584.98 1.083.653 1.932 1.587 2.548 2.8.635 1.195.952 2.585.952 4.172 0 1.587-.317 2.996-.952 4.228-.616 1.213-1.465 2.156-2.548 2.828-1.064.672-2.259 1.008-3.584 1.008-1.157 0-2.175-.224-3.052-.672-.859-.467-1.549-1.064-2.072-1.792v2.212h-3.92v-20.72h3.92v7.476zm8.204 5.432c0-.933-.196-1.736-.588-2.408-.373-.691-.877-1.213-1.512-1.568a3.967 3.967 0 00-2.016-.532 3.92 3.92 0 00-2.016.56c-.616.355-1.12.877-1.512 1.568-.373.691-.56 1.503-.56 2.436s.187 1.745.56 2.436c.392.691.896 1.223 1.512 1.596a4.07 4.07 0 002.016.532c.728 0 1.4-.187 2.016-.56.635-.373 1.139-.905 1.512-1.596.392-.691.588-1.512.588-2.464zm14.308 3.388c1.792-1.493 3.22-2.735 4.284-3.724 1.064-1.008 1.951-2.053 2.66-3.136.71-1.083 1.064-2.147 1.064-3.192 0-.952-.224-1.699-.672-2.24-.448-.541-1.138-.812-2.072-.812-.933 0-1.652.317-2.156.952-.504.616-.765 1.465-.784 2.548h-3.808c.075-2.24.738-3.939 1.988-5.096 1.27-1.157 2.875-1.736 4.816-1.736 2.128 0 3.762.569 4.9 1.708 1.139 1.12 1.708 2.604 1.708 4.452 0 1.456-.392 2.847-1.176 4.172-.784 1.325-1.68 2.483-2.688 3.472-1.008.971-2.324 2.147-3.948 3.528h8.26v3.248h-13.832v-2.912l1.456-1.232z" fill="#577FFB"/>
      <g clip-path="url(#tabs-dont-01__clip3)">
        <path fill="#577FFB" d="M400.668 282.32h188.88V286h-188.88z"/>
      </g>
      <path fill="#fff" d="M589.668 194h193.667v88.32H589.668z"/>
      <path d="M662.959 228.116v3.164h-5.208v16.38h-3.92v-16.38h-5.208v-3.164h14.336zm1.852 11.732c0-1.568.308-2.959.924-4.172.634-1.213 1.484-2.147 2.548-2.8 1.082-.653 2.286-.98 3.612-.98 1.157 0 2.165.233 3.024.7.877.467 1.577 1.055 2.1 1.764v-2.212h3.948v15.512h-3.948v-2.268c-.504.728-1.204 1.335-2.1 1.82-.878.467-1.895.7-3.052.7a6.66 6.66 0 01-3.584-1.008c-1.064-.672-1.914-1.615-2.548-2.828-.616-1.232-.924-2.641-.924-4.228zm12.208.056c0-.952-.187-1.764-.56-2.436-.374-.691-.878-1.213-1.512-1.568a3.968 3.968 0 00-2.044-.56c-.728 0-1.4.177-2.016.532-.616.355-1.12.877-1.512 1.568-.374.672-.56 1.475-.56 2.408 0 .933.186 1.755.56 2.464.392.691.896 1.223 1.512 1.596.634.373 1.306.56 2.016.56a4.12 4.12 0 002.044-.532 4.08 4.08 0 001.512-1.568c.373-.691.56-1.512.56-2.464zm11.696-5.488c.504-.747 1.195-1.353 2.072-1.82.896-.467 1.914-.7 3.052-.7 1.326 0 2.52.327 3.584.98 1.083.653 1.932 1.587 2.548 2.8.635 1.195.952 2.585.952 4.172 0 1.587-.317 2.996-.952 4.228-.616 1.213-1.465 2.156-2.548 2.828-1.064.672-2.258 1.008-3.584 1.008-1.157 0-2.174-.224-3.052-.672-.858-.467-1.549-1.064-2.072-1.792v2.212h-3.92v-20.72h3.92v7.476zm8.204 5.432c0-.933-.196-1.736-.588-2.408-.373-.691-.877-1.213-1.512-1.568a3.967 3.967 0 00-2.016-.532 3.92 3.92 0 00-2.016.56c-.616.355-1.12.877-1.512 1.568-.373.691-.56 1.503-.56 2.436s.187 1.745.56 2.436c.392.691.896 1.223 1.512 1.596a4.07 4.07 0 002.016.532c.728 0 1.4-.187 2.016-.56.635-.373 1.139-.905 1.512-1.596.392-.691.588-1.512.588-2.464zm13.133-7.224c.093-1.867.746-3.304 1.96-4.312 1.232-1.027 2.846-1.54 4.844-1.54 1.362 0 2.529.243 3.5.728.97.467 1.698 1.111 2.184 1.932.504.803.756 1.717.756 2.744 0 1.176-.308 2.175-.924 2.996-.598.803-1.316 1.344-2.156 1.624v.112c1.082.336 1.922.933 2.52 1.792.616.859.924 1.96.924 3.304 0 1.12-.262 2.119-.784 2.996-.504.877-1.26 1.568-2.268 2.072-.99.485-2.184.728-3.584.728-2.11 0-3.827-.532-5.152-1.596-1.326-1.064-2.026-2.632-2.1-4.704h3.808c.037.915.345 1.652.924 2.212.597.541 1.409.812 2.436.812.952 0 1.68-.261 2.184-.784.522-.541.784-1.232.784-2.072 0-1.12-.355-1.923-1.064-2.408-.71-.485-1.811-.728-3.304-.728h-.812v-3.22h.812c2.65 0 3.976-.887 3.976-2.66 0-.803-.243-1.428-.728-1.876-.467-.448-1.148-.672-2.044-.672-.878 0-1.559.243-2.044.728-.467.467-.738 1.064-.812 1.792h-3.836z" fill="#808E99"/>
      <g clip-path="url(#tabs-dont-01__clip4)">
        <path fill="#AEBFFF" d="M589.668 282.32h193.88V286h-193.88z"/>
      </g>
      <path fill="#fff" d="M783.332 194h193.667v88.32H783.332z"/>
      <path d="M855.748 228.116v3.164h-5.208v16.38h-3.92v-16.38h-5.208v-3.164h14.336zm1.852 11.732c0-1.568.308-2.959.924-4.172.634-1.213 1.484-2.147 2.548-2.8 1.082-.653 2.286-.98 3.612-.98 1.157 0 2.165.233 3.024.7.877.467 1.577 1.055 2.1 1.764v-2.212h3.948v15.512h-3.948v-2.268c-.504.728-1.204 1.335-2.1 1.82-.878.467-1.895.7-3.052.7a6.66 6.66 0 01-3.584-1.008c-1.064-.672-1.914-1.615-2.548-2.828-.616-1.232-.924-2.641-.924-4.228zm12.208.056c0-.952-.187-1.764-.56-2.436-.374-.691-.878-1.213-1.512-1.568a3.968 3.968 0 00-2.044-.56c-.728 0-1.4.177-2.016.532-.616.355-1.12.877-1.512 1.568-.374.672-.56 1.475-.56 2.408 0 .933.186 1.755.56 2.464.392.691.896 1.223 1.512 1.596.634.373 1.306.56 2.016.56a4.12 4.12 0 002.044-.532 4.08 4.08 0 001.512-1.568c.373-.691.56-1.512.56-2.464zm11.696-5.488c.504-.747 1.195-1.353 2.072-1.82.896-.467 1.914-.7 3.052-.7 1.326 0 2.52.327 3.584.98 1.083.653 1.932 1.587 2.548 2.8.635 1.195.952 2.585.952 4.172 0 1.587-.317 2.996-.952 4.228-.616 1.213-1.465 2.156-2.548 2.828-1.064.672-2.258 1.008-3.584 1.008-1.157 0-2.174-.224-3.052-.672-.858-.467-1.549-1.064-2.072-1.792v2.212h-3.92v-20.72h3.92v7.476zm8.204 5.432c0-.933-.196-1.736-.588-2.408-.373-.691-.877-1.213-1.512-1.568a3.967 3.967 0 00-2.016-.532 3.92 3.92 0 00-2.016.56c-.616.355-1.12.877-1.512 1.568-.373.691-.56 1.503-.56 2.436s.187 1.745.56 2.436c.392.691.896 1.223 1.512 1.596a4.07 4.07 0 002.016.532c.728 0 1.4-.187 2.016-.56.635-.373 1.139-.905 1.512-1.596.392-.691.588-1.512.588-2.464zm12.909 3.836v-3.08l9.156-13.104h4.564v12.768h2.464v3.416h-2.464v3.976h-3.92v-3.976h-9.8zm10.052-11.984l-5.74 8.568h5.74V231.7z" fill="#808E99"/>
      <g clip-path="url(#tabs-dont-01__clip5)">
        <path fill="#AEBFFF" d="M783.332 282.32h193.88V286h-193.88z"/>
      </g>
    </g>
    <path fill="#EBEBEB" d="M400.668 194h1v92h-1z"/>
    <path fill="#E0E7FF" d="M400.668 194h1v92h-1z"/>
    <path fill="#EBEBEB" d="M589.828 194h1v92h-1z"/>
    <path fill="#E0E7FF" d="M589.828 194h1v92h-1z"/>
    <path fill="#EBEBEB" d="M783.656 194h1v92h-1z"/>
    <path fill="#E0E7FF" d="M783.656 194h1v92h-1z"/>
    <path fill-rule="evenodd" clip-rule="evenodd" d="M509 281c0 7.732-6.268 14-14 14s-14-6.268-14-14 6.268-14 14-14 14 6.268 14 14zm-13.5 18.921a2 2 0 012 2v9.958a2 2 0 11-4 0v-9.958a2 2 0 012-2zm0 23.9a2 2 0 012 2v9.958a2 2 0 11-4 0v-9.958a2 2 0 012-2zm0 23.9a2 2 0 012 2v9.958a2 2 0 11-4 0v-9.958a2 2 0 012-2zm0 23.9a2 2 0 012 2v9.958a2 2 0 11-4 0v-9.958a2 2 0 012-2zm0 23.9a2 2 0 012 2v9.958a2 2 0 11-4 0v-9.958a2 2 0 012-2zm0 23.9a2 2 0 012 2v9.958a2 2 0 11-4 0v-9.958a2 2 0 012-2zm0 23.9a2 2 0 012 2v9.958a2 2 0 11-4 0v-9.958a2 2 0 012-2zm0 23.9a2 2 0 012 2v9.958a2 2 0 11-4 0v-9.958a2 2 0 012-2zm0 23.9a2 2 0 012 2v9.958a2 2 0 11-4 0v-9.958a2 2 0 012-2zm0 23.9a2 2 0 012 2V522c0 1.768.096 3.513.282 5.23a2.001 2.001 0 01-3.977.431A52.423 52.423 0 01493.5 522v-4.979a2 2 0 012-2zm3.417 25.292a2 2 0 012.636 1.023 47.912 47.912 0 005.234 9.047 2 2 0 01-3.224 2.368 51.943 51.943 0 01-5.67-9.802 1.998 1.998 0 011.024-2.636zm15.404 20.828a2 2 0 012.796-.428 47.912 47.912 0 009.047 5.234 2 2 0 01-1.613 3.66 51.943 51.943 0 01-9.802-5.67 2 2 0 01-.428-2.796zm23.745 10.35a2 2 0 012.204-1.773 48.55 48.55 0 005.23.282h4.861a2 2 0 110 4H545.5c-1.912 0-3.801-.103-5.661-.305a2 2 0 01-1.773-2.204zm23.906.509a2 2 0 012-2h9.722a2 2 0 110 4h-9.722a2 2 0 01-2-2zm23.334 0a2 2 0 012-2h9.722a2 2 0 010 4h-9.722a2 2 0 01-2-2zm23.333 0a2 2 0 012-2h9.722a2 2 0 110 4h-9.722a2 2 0 01-2-2zm23.333 0a2 2 0 012-2h9.722a2 2 0 110 4h-9.722a2 2 0 01-2-2zm23.334 0a2 2 0 012-2h9.722a2 2 0 010 4h-9.722a2 2 0 01-2-2zm27.387 11.639l18.559-9.539c2.36-1.213 2.322-4.599-.065-5.758l-18.56-9.014c-2.138-1.039-4.627.518-4.627 2.895v18.554c0 2.409 2.55 3.964 4.693 2.862z" fill="#577FFB"/>
    <g filter="url(#tabs-dont-01__filter1_d)">
      <g clip-path="url(#tabs-dont-01__clip6)">
        <path d="M721 328h653v633H721V328z" fill="#fff"/>
        <path fill-rule="evenodd" clip-rule="evenodd" d="M773.839 393.241a5.275 5.275 0 015.276-5.275h537.515c2.92 0 5.28 2.361 5.28 5.275v182.154a5.275 5.275 0 01-5.28 5.276H779.115a5.276 5.276 0 01-5.276-5.276V393.241zm-.085 231.039a5.275 5.275 0 015.275-5.275h272.651c2.91 0 5.27 2.362 5.27 5.275v3.072a5.273 5.273 0 01-5.27 5.276H779.029a5.276 5.276 0 01-5.275-5.276v-3.072zm0 136.778a5.275 5.275 0 015.275-5.275h272.651c2.91 0 5.27 2.362 5.27 5.275v3.072a5.273 5.273 0 01-5.27 5.276H779.029a5.276 5.276 0 01-5.275-5.276v-3.072zm281.906-107.859a5.273 5.273 0 00-5.27 5.276v3.072a5.273 5.273 0 005.27 5.275h260.24c2.92 0 5.28-2.362 5.28-5.275v-3.072a5.275 5.275 0 00-5.28-5.276h-260.24zm-5.27 73.665a5.273 5.273 0 015.27-5.276h260.24c2.92 0 5.28 2.362 5.28 5.276v3.072a5.275 5.275 0 01-5.28 5.275h-260.24a5.273 5.273 0 01-5.27-5.275v-3.072zm-271.361-39.47a5.275 5.275 0 00-5.275 5.275v3.072a5.276 5.276 0 005.275 5.276h272.651c2.91 0 5.27-2.362 5.27-5.276v-3.072a5.273 5.273 0 00-5.27-5.275H779.029zm-5.275-28.919a5.276 5.276 0 015.275-5.276h81.417a5.276 5.276 0 015.275 5.276v3.072a5.275 5.275 0 01-5.275 5.275h-81.417a5.275 5.275 0 01-5.275-5.275v-3.072zm5.275 131.502a5.276 5.276 0 00-5.275 5.276v3.072a5.275 5.275 0 005.275 5.275h81.417a5.275 5.275 0 005.275-5.275v-3.072a5.276 5.276 0 00-5.275-5.276h-81.417zm291.061-97.288a5.275 5.275 0 015.28-5.275h81.41c2.92 0 5.28 2.362 5.28 5.275v3.072a5.275 5.275 0 01-5.28 5.276h-81.41a5.275 5.275 0 01-5.28-5.276v-3.072zm-291.061 28.899a5.276 5.276 0 00-5.275 5.276v3.072a5.275 5.275 0 005.275 5.275h112.802a5.276 5.276 0 005.276-5.275v-3.072a5.276 5.276 0 00-5.276-5.276H779.029zM1067.17 624.3a5.282 5.282 0 015.28-5.275h112.8c2.92 0 5.28 2.362 5.28 5.275v3.072a5.275 5.275 0 01-5.28 5.276h-112.8a5.282 5.282 0 01-5.28-5.276V624.3zm4.55 131.503a5.275 5.275 0 00-5.28 5.276v3.072a5.275 5.275 0 005.28 5.275h112.8c2.91 0 5.27-2.362 5.27-5.275v-3.072a5.273 5.273 0 00-5.27-5.276h-112.8zM884.7 658.475a5.276 5.276 0 015.276-5.276h136.154c2.92 0 5.28 2.362 5.28 5.276v3.072a5.275 5.275 0 01-5.28 5.275H889.976a5.276 5.276 0 01-5.276-5.275v-3.072zm2.358 131.502a5.276 5.276 0 00-5.276 5.276v3.072a5.276 5.276 0 005.276 5.275h136.162c2.91 0 5.27-2.362 5.27-5.275v-3.072a5.273 5.273 0 00-5.27-5.276H887.058zm288.142-97.288a5.273 5.273 0 015.27-5.275h136.16c2.92 0 5.28 2.362 5.28 5.275v3.072a5.275 5.275 0 01-5.28 5.276h-136.16a5.273 5.273 0 01-5.27-5.276v-3.072zm-256.757 28.879a5.276 5.276 0 00-5.276 5.275v3.072a5.276 5.276 0 005.276 5.276h110.617c2.91 0 5.27-2.362 5.27-5.276v-3.072a5.273 5.273 0 00-5.27-5.275H918.443zm282.297-97.288a5.282 5.282 0 015.28-5.275h110.61c2.92 0 5.28 2.362 5.28 5.275v3.072a5.275 5.275 0 01-5.28 5.276h-110.61a5.282 5.282 0 01-5.28-5.276v-3.072zM777.898 843.923a5.276 5.276 0 015.276-5.276h272.646c2.92 0 5.28 2.362 5.28 5.276v2.829a5.275 5.275 0 01-5.28 5.276H783.174a5.276 5.276 0 01-5.276-5.276v-2.829zm0 136.778a5.276 5.276 0 015.276-5.276h272.646c2.92 0 5.28 2.362 5.28 5.276v2.829a5.275 5.275 0 01-5.28 5.276H783.174a5.276 5.276 0 01-5.276-5.276v-2.829zm281.912-107.859a5.275 5.275 0 00-5.28 5.275v2.83a5.275 5.275 0 005.28 5.275h260.24c2.91 0 5.27-2.362 5.27-5.275v-2.83a5.273 5.273 0 00-5.27-5.275h-260.24zm-5.28 73.664a5.275 5.275 0 015.28-5.275h260.24c2.91 0 5.27 2.362 5.27 5.275v2.83a5.273 5.273 0 01-5.27 5.275h-260.24a5.275 5.275 0 01-5.28-5.275v-2.83zm-271.356-39.47a5.276 5.276 0 00-5.276 5.276v2.829a5.276 5.276 0 005.276 5.276h272.646c2.92 0 5.28-2.362 5.28-5.276v-2.829a5.275 5.275 0 00-5.28-5.276H783.174zm-5.276-28.919a5.276 5.276 0 015.276-5.275h81.416a5.276 5.276 0 015.276 5.275v2.83a5.276 5.276 0 01-5.276 5.275h-81.416a5.276 5.276 0 01-5.276-5.275v-2.83zm5.276 131.503a5.273 5.273 0 00-5.276 5.27v2.83c0 2.92 2.362 5.28 5.276 5.28h81.416a5.275 5.275 0 005.276-5.28v-2.83c0-2.91-2.362-5.27-5.276-5.27h-81.416zm291.066-97.288a5.273 5.273 0 015.27-5.276h81.42c2.91 0 5.27 2.362 5.27 5.276v2.829a5.273 5.273 0 01-5.27 5.276h-81.42a5.273 5.273 0 01-5.27-5.276v-2.829zm-291.066 28.899a5.276 5.276 0 00-5.276 5.275v2.83a5.276 5.276 0 005.276 5.275h112.802a5.275 5.275 0 005.275-5.275v-2.83a5.275 5.275 0 00-5.275-5.275H783.174zm288.146-97.288a5.273 5.273 0 015.27-5.276h112.81c2.91 0 5.27 2.362 5.27 5.276v2.829a5.273 5.273 0 01-5.27 5.276h-112.81a5.273 5.273 0 01-5.27-5.276v-2.829zm4.54 131.503a5.273 5.273 0 00-5.27 5.275v2.83a5.273 5.273 0 005.27 5.275h112.8c2.92 0 5.28-2.362 5.28-5.275v-2.83a5.275 5.275 0 00-5.28-5.275h-112.8zm-187.015-97.329a5.275 5.275 0 015.275-5.275h136.16c2.91 0 5.27 2.362 5.27 5.275v2.83a5.273 5.273 0 01-5.27 5.275H894.12a5.275 5.275 0 01-5.275-5.275v-2.83zm2.357 131.503a5.273 5.273 0 00-5.275 5.27v2.83c0 2.92 2.362 5.28 5.275 5.28h136.158c2.91 0 5.28-2.36 5.28-5.28v-2.83c0-2.91-2.37-5.27-5.28-5.27H891.202zm288.138-97.288a5.282 5.282 0 015.28-5.276h136.16c2.91 0 5.27 2.362 5.27 5.276v2.829a5.273 5.273 0 01-5.27 5.276h-136.16a5.282 5.282 0 01-5.28-5.276v-2.829zM922.587 941.21a5.276 5.276 0 00-5.275 5.276v2.829a5.276 5.276 0 005.275 5.276H1033.2c2.91 0 5.28-2.362 5.28-5.276v-2.829a5.282 5.282 0 00-5.28-5.276H922.587zm282.303-97.287a5.273 5.273 0 015.27-5.276h110.62c2.91 0 5.27 2.362 5.27 5.276v2.829a5.273 5.273 0 01-5.27 5.276h-110.62a5.273 5.273 0 01-5.27-5.276v-2.829z" fill="#E0E7FF"/>
      </g>
    </g>
  </g>
  <defs>
    <clipPath id="tabs-dont-01__clip0">
      <path fill="#fff" d="M0 0h1491v837H0z"/>
    </clipPath>
    <clipPath id="tabs-dont-01__clip1">
      <rect x="207" y="194" width="770" height="451" rx="8" fill="#fff"/>
    </clipPath>
    <clipPath id="tabs-dont-01__clip2">
      <path fill="#fff" transform="translate(207 282.32)" d="M0 0h193.667v3.68H0z"/>
    </clipPath>
    <clipPath id="tabs-dont-01__clip3">
      <path fill="#fff" transform="translate(400.668 282.32)" d="M0 0h189v3.68H0z"/>
    </clipPath>
    <clipPath id="tabs-dont-01__clip4">
      <path fill="#fff" transform="translate(589.668 282.32)" d="M0 0h193.667v3.68H0z"/>
    </clipPath>
    <clipPath id="tabs-dont-01__clip5">
      <path fill="#fff" transform="translate(783.332 282.32)" d="M0 0h193.667v3.68H0z"/>
    </clipPath>
    <clipPath id="tabs-dont-01__clip6">
      <path fill="#fff" transform="translate(721 328)" d="M0 0h653v633H0z"/>
    </clipPath>
    <filter id="tabs-dont-01__filter0_d" x="141.984" y="-44" width="900" height="909" filterUnits="userSpaceOnUse" color-interpolation-filters="sRGB">
      <feFlood flood-opacity="0" result="BackgroundImageFix"/>
      <feColorMatrix in="SourceAlpha" values="0 0 0 0 0 0 0 0 0 0 0 0 0 0 0 0 0 0 127 0"/>
      <feOffset dy="8"/>
      <feGaussianBlur stdDeviation="8"/>
      <feColorMatrix values="0 0 0 0 0.0392157 0 0 0 0 0.0392157 0 0 0 0 0.0392157 0 0 0 0.08 0"/>
      <feBlend in2="BackgroundImageFix" result="effect1_dropShadow"/>
      <feBlend in="SourceGraphic" in2="effect1_dropShadow" result="shape"/>
    </filter>
    <filter id="tabs-dont-01__filter1_d" x="687.846" y="314.567" width="719.307" height="762.307" filterUnits="userSpaceOnUse" color-interpolation-filters="sRGB">
      <feFlood flood-opacity="0" result="BackgroundImageFix"/>
      <feColorMatrix in="SourceAlpha" values="0 0 0 0 0 0 0 0 0 0 0 0 0 0 0 0 0 0 127 0"/>
      <feOffset dy="20.721"/>
      <feGaussianBlur stdDeviation="16.577"/>
      <feColorMatrix values="0 0 0 0 0.0392157 0 0 0 0 0.0392157 0 0 0 0 0.0392157 0 0 0 0.08 0"/>
      <feBlend in2="BackgroundImageFix" result="effect1_dropShadow"/>
      <feBlend in="SourceGraphic" in2="effect1_dropShadow" result="shape"/>
    </filter>
  </defs>
</svg>
