<svg width="1491" height="839" viewBox="0 0 1491 839" xmlns="http://www.w3.org/2000/svg">
  <path d="M0 4a4 4 0 014-4h1482.72a4 4 0 014 4v830.004a4 4 0 01-4 4H4a4 4 0 01-4-4V4z" fill="#F0F3FF"/>
  <g filter="url(#tabs-options-size__filter0_d)">
    <g clip-path="url(#tabs-options-size__clip0)">
      <rect x="207" y="357" width="163" height="115.911" rx="8" fill="#fff"/>
      <path d="M270.848 399.684v4.746h-7.812V429h-5.88v-24.57h-7.812v-4.746h21.504zm2.778 17.598c0-2.352.462-4.438 1.386-6.258.952-1.82 2.226-3.22 3.822-4.2 1.624-.98 3.43-1.47 5.418-1.47 1.736 0 3.248.35 4.536 1.05 1.316.7 2.366 1.582 3.15 2.646v-3.318h5.922V429h-5.922v-3.402c-.756 1.092-1.806 2.002-3.15 2.73-1.316.7-2.842 1.05-4.578 1.05-1.96 0-3.752-.504-5.376-1.512-1.596-1.008-2.87-2.422-3.822-4.242-.924-1.848-1.386-3.962-1.386-6.342zm18.312.084c0-1.428-.28-2.646-.84-3.654-.56-1.036-1.316-1.82-2.268-2.352a5.945 5.945 0 00-3.066-.84c-1.092 0-2.1.266-3.024.798-.924.532-1.68 1.316-2.268 2.352-.56 1.008-.84 2.212-.84 3.612s.28 2.632.84 3.696c.588 1.036 1.344 1.834 2.268 2.394.952.56 1.96.84 3.024.84a6.185 6.185 0 003.066-.798c.952-.56 1.708-1.344 2.268-2.352.56-1.036.84-2.268.84-3.696zm17.545-8.232c.756-1.12 1.792-2.03 3.108-2.73 1.344-.7 2.87-1.05 4.578-1.05 1.988 0 3.78.49 5.376 1.47 1.624.98 2.898 2.38 3.822 4.2.952 1.792 1.428 3.878 1.428 6.258s-.476 4.494-1.428 6.342c-.924 1.82-2.198 3.234-3.822 4.242-1.596 1.008-3.388 1.512-5.376 1.512-1.736 0-3.262-.336-4.578-1.008-1.288-.7-2.324-1.596-3.108-2.688V429h-5.88v-31.08h5.88v11.214zm12.306 8.148c0-1.4-.294-2.604-.882-3.612-.56-1.036-1.316-1.82-2.268-2.352a5.955 5.955 0 00-3.024-.798c-1.064 0-2.072.28-3.024.84-.924.532-1.68 1.316-2.268 2.352-.56 1.036-.84 2.254-.84 3.654s.28 2.618.84 3.654c.588 1.036 1.344 1.834 2.268 2.394.952.532 1.96.798 3.024.798 1.092 0 2.1-.28 3.024-.84.952-.56 1.708-1.358 2.268-2.394.588-1.036.882-2.268.882-3.696zM207 472.911h163v7.244H207z" fill="#577FFB"/>
    </g>
  </g>
  <path d="M244.218 660.28c-1.84 0-3.493-.32-4.96-.96-1.44-.667-2.573-1.573-3.4-2.72-.827-1.173-1.253-2.52-1.28-4.04h3.88c.133 1.307.667 2.413 1.6 3.32.96.88 2.347 1.32 4.16 1.32 1.733 0 3.093-.427 4.08-1.28 1.013-.88 1.52-2 1.52-3.36 0-1.067-.293-1.933-.88-2.6a5.624 5.624 0 00-2.2-1.52c-.88-.347-2.067-.72-3.56-1.12-1.84-.48-3.32-.96-4.44-1.44-1.093-.48-2.04-1.227-2.84-2.24-.773-1.04-1.16-2.427-1.16-4.16 0-1.52.387-2.867 1.16-4.04.773-1.173 1.853-2.08 3.24-2.72 1.413-.64 3.027-.96 4.84-.96 2.613 0 4.747.653 6.4 1.96 1.68 1.307 2.627 3.04 2.84 5.2h-4c-.133-1.067-.693-2-1.68-2.8-.987-.827-2.293-1.24-3.92-1.24-1.52 0-2.76.4-3.72 1.2-.96.773-1.44 1.867-1.44 3.28 0 1.013.28 1.84.84 2.48a5.971 5.971 0 002.12 1.48c.853.32 2.04.693 3.56 1.12 1.84.507 3.32 1.013 4.44 1.52 1.12.48 2.08 1.24 2.88 2.28.8 1.013 1.2 2.4 1.2 4.16 0 1.36-.36 2.64-1.08 3.84-.72 1.2-1.787 2.173-3.2 2.92-1.413.747-3.08 1.12-5 1.12zm40.997-22.6c1.706 0 3.226.36 4.56 1.08 1.333.693 2.386 1.747 3.16 3.16.773 1.413 1.16 3.133 1.16 5.16V660h-3.6v-12.4c0-2.187-.547-3.853-1.64-5-1.067-1.173-2.52-1.76-4.36-1.76-1.894 0-3.4.613-4.52 1.84-1.12 1.2-1.68 2.947-1.68 5.24V660h-3.6v-12.4c0-2.187-.547-3.853-1.64-5-1.067-1.173-2.52-1.76-4.36-1.76-1.894 0-3.4.613-4.52 1.84-1.12 1.2-1.68 2.947-1.68 5.24V660h-3.64v-21.92h3.64v3.16a7.221 7.221 0 012.88-2.64c1.226-.613 2.573-.92 4.04-.92 1.84 0 3.466.413 4.88 1.24 1.413.827 2.466 2.04 3.16 3.64.613-1.547 1.626-2.747 3.04-3.6 1.413-.853 2.986-1.28 4.72-1.28zm13.491 11.28c0-2.24.453-4.2 1.36-5.88.906-1.707 2.146-3.027 3.72-3.96 1.6-.933 3.373-1.4 5.32-1.4 1.92 0 3.586.413 5 1.24 1.413.827 2.466 1.867 3.16 3.12v-4h3.68V660h-3.68v-4.08c-.72 1.28-1.8 2.347-3.24 3.2-1.414.827-3.067 1.24-4.96 1.24-1.947 0-3.707-.48-5.28-1.44-1.574-.96-2.814-2.307-3.72-4.04-.907-1.733-1.36-3.707-1.36-5.92zm18.56.04c0-1.653-.334-3.093-1-4.32-.667-1.227-1.574-2.16-2.72-2.8-1.12-.667-2.36-1-3.72-1-1.36 0-2.6.32-3.72.96-1.12.64-2.014 1.573-2.68 2.8-.667 1.227-1 2.667-1 4.32 0 1.68.333 3.147 1 4.4.666 1.227 1.56 2.173 2.68 2.84 1.12.64 2.36.96 3.72.96 1.36 0 2.6-.32 3.72-.96 1.146-.667 2.053-1.613 2.72-2.84.666-1.253 1-2.707 1-4.36zm13.471-18.6V660h-3.64v-29.6h3.64zm9.844 0V660h-3.64v-29.6h3.64z" fill="#577FFB"/>
  <g filter="url(#tabs-options-size__filter1_d)">
    <g clip-path="url(#tabs-options-size__clip1)">
      <rect x="573" y="281" width="221.43" height="191.139" rx="8" fill="#fff"/>
      <path fill="#577FFB" d="M573 472.139h222.996v7.964H573z"/>
    </g>
  </g>
  <path d="M633.393 632.32V660h-3.64v-20.64l-9.2 20.64h-2.56l-9.24-20.68V660h-3.64v-27.68h3.92l10.24 22.88 10.24-22.88h3.88zm26.173 15.88c0 .693-.04 1.427-.12 2.2h-17.52c.134 2.16.867 3.853 2.2 5.08 1.36 1.2 3 1.8 4.92 1.8 1.574 0 2.88-.36 3.92-1.08a5.886 5.886 0 002.24-2.96h3.92c-.586 2.107-1.76 3.827-3.52 5.16-1.76 1.307-3.946 1.96-6.56 1.96-2.08 0-3.946-.467-5.6-1.4-1.626-.933-2.906-2.253-3.84-3.96-.933-1.733-1.4-3.733-1.4-6s.454-4.253 1.36-5.96c.907-1.707 2.174-3.013 3.8-3.92 1.654-.933 3.547-1.4 5.68-1.4 2.08 0 3.92.453 5.52 1.36 1.6.907 2.827 2.16 3.68 3.76.88 1.573 1.32 3.36 1.32 5.36zm-3.76-.76c0-1.387-.306-2.573-.92-3.56a5.79 5.79 0 00-2.52-2.28c-1.04-.533-2.2-.8-3.48-.8-1.84 0-3.413.587-4.72 1.76-1.28 1.173-2.013 2.8-2.2 4.88h13.84zm7.205 1.52c0-2.24.453-4.2 1.36-5.88.907-1.707 2.147-3.027 3.72-3.96 1.6-.933 3.387-1.4 5.36-1.4 1.707 0 3.293.4 4.76 1.2 1.467.773 2.587 1.8 3.36 3.08v-11.6h3.68V660h-3.68v-4.12c-.72 1.307-1.787 2.387-3.2 3.24-1.413.827-3.067 1.24-4.96 1.24-1.947 0-3.72-.48-5.32-1.44-1.573-.96-2.813-2.307-3.72-4.04s-1.36-3.707-1.36-5.92zm18.56.04c0-1.653-.333-3.093-1-4.32-.667-1.227-1.573-2.16-2.72-2.8-1.12-.667-2.36-1-3.72-1-1.36 0-2.6.32-3.72.96-1.12.64-2.013 1.573-2.68 2.8-.667 1.227-1 2.667-1 4.32 0 1.68.333 3.147 1 4.4.667 1.227 1.56 2.173 2.68 2.84 1.12.64 2.36.96 3.72.96 1.36 0 2.6-.32 3.72-.96 1.147-.667 2.053-1.613 2.72-2.84.667-1.253 1-2.707 1-4.36zm11.711-14.48c-.693 0-1.28-.24-1.76-.72a2.395 2.395 0 01-.72-1.76c0-.693.24-1.28.72-1.76s1.067-.72 1.76-.72c.667 0 1.227.24 1.68.72.48.48.72 1.067.72 1.76 0 .693-.24 1.28-.72 1.76-.453.48-1.013.72-1.68.72zm1.76 3.56V660h-3.64v-21.92h3.64zm25.644 0V660h-3.64v-3.24c-.693 1.12-1.667 2-2.92 2.64-1.227.613-2.587.92-4.08.92-1.707 0-3.24-.347-4.6-1.04-1.36-.72-2.44-1.787-3.24-3.2-.773-1.413-1.16-3.133-1.16-5.16v-12.84h3.6v12.36c0 2.16.547 3.827 1.64 5 1.093 1.147 2.587 1.72 4.48 1.72 1.947 0 3.48-.6 4.6-1.8 1.12-1.2 1.68-2.947 1.68-5.24v-12.04h3.64zm32.506-.4c1.707 0 3.227.36 4.56 1.08 1.333.693 2.387 1.747 3.16 3.16.773 1.413 1.16 3.133 1.16 5.16V660h-3.6v-12.4c0-2.187-.547-3.853-1.64-5-1.067-1.173-2.52-1.76-4.36-1.76-1.893 0-3.4.613-4.52 1.84-1.12 1.2-1.68 2.947-1.68 5.24V660h-3.6v-12.4c0-2.187-.547-3.853-1.64-5-1.067-1.173-2.52-1.76-4.36-1.76-1.893 0-3.4.613-4.52 1.84-1.12 1.2-1.68 2.947-1.68 5.24V660h-3.64v-21.92h3.64v3.16a7.221 7.221 0 012.88-2.64c1.227-.613 2.573-.92 4.04-.92 1.84 0 3.467.413 4.88 1.24 1.413.827 2.467 2.04 3.16 3.64.613-1.547 1.627-2.747 3.04-3.6 1.413-.853 2.987-1.28 4.72-1.28z" fill="#577FFB"/>
  <g filter="url(#tabs-options-size__filter2_d)">
    <g clip-path="url(#tabs-options-size__clip2)">
      <rect x="999.516" y="230" width="283.972" height="242.629" rx="8" fill="#fff"/>
      <g clip-path="url(#tabs-options-size__clip3)">
        <path fill="#577FFB" d="M999 472.629h284.331v7.582H999z"/>
      </g>
    </g>
  </g>
  <path d="M1092.19 656.04h9.76V659h-13.4v-27.88h3.64v24.92zm12.27-8.08c0-2.24.45-4.2 1.36-5.88.9-1.707 2.14-3.027 3.72-3.96 1.6-.933 3.37-1.4 5.32-1.4 1.92 0 3.58.413 5 1.24 1.41.827 2.46 1.867 3.16 3.12v-4h3.68V659h-3.68v-4.08c-.72 1.28-1.8 2.347-3.24 3.2-1.42.827-3.07 1.24-4.96 1.24-1.95 0-3.71-.48-5.28-1.44-1.58-.96-2.82-2.307-3.72-4.04-.91-1.733-1.36-3.707-1.36-5.92zm18.56.04c0-1.653-.34-3.093-1-4.32-.67-1.227-1.58-2.16-2.72-2.8-1.12-.667-2.36-1-3.72-1-1.36 0-2.6.32-3.72.96-1.12.64-2.02 1.573-2.68 2.8-.67 1.227-1 2.667-1 4.32 0 1.68.33 3.147 1 4.4.66 1.227 1.56 2.173 2.68 2.84 1.12.64 2.36.96 3.72.96 1.36 0 2.6-.32 3.72-.96 1.14-.667 2.05-1.613 2.72-2.84.66-1.253 1-2.707 1-4.36zm13.47-7.36c.64-1.253 1.54-2.227 2.72-2.92 1.2-.693 2.65-1.04 4.36-1.04v3.76h-.96c-4.08 0-6.12 2.213-6.12 6.64V659h-3.64v-21.92h3.64v3.56zm20.32-3.92c1.89 0 3.55.413 4.96 1.24 1.44.827 2.51 1.867 3.2 3.12v-4h3.68v22.4c0 2-.43 3.773-1.28 5.32-.85 1.573-2.08 2.8-3.68 3.68-1.57.88-3.41 1.32-5.52 1.32-2.88 0-5.28-.68-7.2-2.04-1.92-1.36-3.05-3.213-3.4-5.56h3.6c.4 1.333 1.23 2.4 2.48 3.2 1.25.827 2.76 1.24 4.52 1.24 2 0 3.63-.627 4.88-1.88 1.28-1.253 1.92-3.013 1.92-5.28v-4.6c-.72 1.28-1.79 2.347-3.2 3.2-1.41.853-3.07 1.28-4.96 1.28-1.95 0-3.72-.48-5.32-1.44-1.57-.96-2.81-2.307-3.72-4.04-.91-1.733-1.36-3.707-1.36-5.92 0-2.24.45-4.2 1.36-5.88.91-1.707 2.15-3.027 3.72-3.96 1.6-.933 3.37-1.4 5.32-1.4zm8.16 11.28c0-1.653-.33-3.093-1-4.32-.67-1.227-1.57-2.16-2.72-2.8-1.12-.667-2.36-1-3.72-1-1.36 0-2.6.32-3.72.96-1.12.64-2.01 1.573-2.68 2.8-.67 1.227-1 2.667-1 4.32 0 1.68.33 3.147 1 4.4.67 1.227 1.56 2.173 2.68 2.84 1.12.64 2.36.96 3.72.96 1.36 0 2.6-.32 3.72-.96 1.15-.667 2.05-1.613 2.72-2.84.67-1.253 1-2.707 1-4.36zm29.83-.8c0 .693-.04 1.427-.12 2.2h-17.52c.13 2.16.87 3.853 2.2 5.08 1.36 1.2 3 1.8 4.92 1.8 1.57 0 2.88-.36 3.92-1.08a5.891 5.891 0 002.24-2.96h3.92c-.59 2.107-1.76 3.827-3.52 5.16-1.76 1.307-3.95 1.96-6.56 1.96-2.08 0-3.95-.467-5.6-1.4-1.63-.933-2.91-2.253-3.84-3.96-.93-1.733-1.4-3.733-1.4-6s.45-4.253 1.36-5.96c.91-1.707 2.17-3.013 3.8-3.92 1.65-.933 3.55-1.4 5.68-1.4 2.08 0 3.92.453 5.52 1.36 1.6.907 2.83 2.16 3.68 3.76.88 1.573 1.32 3.36 1.32 5.36zm-3.76-.76c0-1.387-.31-2.573-.92-3.56a5.758 5.758 0 00-2.52-2.28c-1.04-.533-2.2-.8-3.48-.8-1.84 0-3.41.587-4.72 1.76-1.28 1.173-2.01 2.8-2.2 4.88h13.84zm-79.87-317.696v8.136h-13.39V379h-10.08v-42.12h-13.4v-8.136h36.87zm4.76 30.168c0-4.032.79-7.608 2.38-10.728 1.63-3.12 3.81-5.52 6.55-7.2 2.78-1.68 5.88-2.52 9.29-2.52 2.97 0 5.56.6 7.77 1.8 2.26 1.2 4.06 2.712 5.4 4.536v-5.688h10.15V379h-10.15v-5.832c-1.29 1.872-3.09 3.432-5.4 4.68-2.25 1.2-4.87 1.8-7.85 1.8-3.36 0-6.43-.864-9.21-2.592-2.74-1.728-4.92-4.152-6.55-7.272-1.59-3.168-2.38-6.792-2.38-10.872zm31.39.144c0-2.448-.48-4.536-1.44-6.264-.96-1.776-2.25-3.12-3.89-4.032-1.63-.96-3.38-1.44-5.25-1.44s-3.6.456-5.19 1.368c-1.58.912-2.88 2.256-3.88 4.032-.96 1.728-1.44 3.792-1.44 6.192 0 2.4.48 4.512 1.44 6.336 1 1.776 2.3 3.144 3.88 4.104 1.64.96 3.36 1.44 5.19 1.44 1.87 0 3.62-.456 5.25-1.368 1.64-.96 2.93-2.304 3.89-4.032.96-1.776 1.44-3.888 1.44-6.336zm30.08-14.112c1.3-1.92 3.07-3.48 5.33-4.68 2.3-1.2 4.92-1.8 7.85-1.8 3.4 0 6.48.84 9.21 2.52 2.79 1.68 4.97 4.08 6.55 7.2 1.64 3.072 2.45 6.648 2.45 10.728s-.81 7.704-2.45 10.872c-1.58 3.12-3.76 5.544-6.55 7.272-2.73 1.728-5.81 2.592-9.21 2.592-2.98 0-5.6-.576-7.85-1.728-2.21-1.2-3.99-2.736-5.33-4.608V379h-10.08v-53.28h10.08v19.224zm21.1 13.968c0-2.4-.51-4.464-1.52-6.192-.96-1.776-2.25-3.12-3.88-4.032-1.59-.912-3.32-1.368-5.19-1.368-1.82 0-3.55.48-5.18 1.44-1.59.912-2.88 2.256-3.89 4.032-.96 1.776-1.44 3.864-1.44 6.264 0 2.4.48 4.488 1.44 6.264 1.01 1.776 2.3 3.144 3.89 4.104 1.63.912 3.36 1.368 5.18 1.368 1.87 0 3.6-.48 5.19-1.44 1.63-.96 2.92-2.328 3.88-4.104 1.01-1.776 1.52-3.888 1.52-6.336zm-539.948-2.396v6.554h-10.788V397h-8.12v-33.93h-10.788v-6.554h29.696zm3.837 24.302c0-3.248.638-6.129 1.914-8.642 1.314-2.513 3.074-4.447 5.278-5.8 2.242-1.353 4.736-2.03 7.482-2.03 2.397 0 4.485.483 6.264 1.45 1.817.967 3.267 2.185 4.35 3.654v-4.582h8.178V397h-8.178v-4.698c-1.044 1.508-2.494 2.765-4.35 3.77-1.818.967-3.925 1.45-6.322 1.45-2.707 0-5.182-.696-7.424-2.088-2.204-1.392-3.964-3.345-5.278-5.858-1.276-2.552-1.914-5.471-1.914-8.758zm25.288.116c0-1.972-.387-3.654-1.16-5.046-.774-1.431-1.818-2.513-3.132-3.248a8.214 8.214 0 00-4.234-1.16 8.22 8.22 0 00-4.176 1.102c-1.276.735-2.32 1.817-3.132 3.248-.774 1.392-1.16 3.055-1.16 4.988 0 1.933.386 3.635 1.16 5.104.812 1.431 1.856 2.533 3.132 3.306 1.314.773 2.706 1.16 4.176 1.16a8.539 8.539 0 004.234-1.102c1.314-.773 2.358-1.856 3.132-3.248.773-1.431 1.16-3.132 1.16-5.104zm24.228-11.368c1.044-1.547 2.475-2.803 4.292-3.77 1.856-.967 3.964-1.45 6.322-1.45 2.746 0 5.22.677 7.424 2.03 2.243 1.353 4.002 3.287 5.278 5.8 1.315 2.475 1.972 5.355 1.972 8.642 0 3.287-.657 6.206-1.972 8.758-1.276 2.513-3.035 4.466-5.278 5.858-2.204 1.392-4.678 2.088-7.424 2.088-2.397 0-4.504-.464-6.322-1.392-1.778-.967-3.209-2.204-4.292-3.712V397h-8.12v-42.92h8.12v15.486zm16.994 11.252c0-1.933-.406-3.596-1.218-4.988-.773-1.431-1.817-2.513-3.132-3.248a8.22 8.22 0 00-4.176-1.102c-1.469 0-2.861.387-4.176 1.16-1.276.735-2.32 1.817-3.132 3.248-.773 1.431-1.16 3.113-1.16 5.046 0 1.933.387 3.615 1.16 5.046.812 1.431 1.856 2.533 3.132 3.306a8.431 8.431 0 004.176 1.102c1.508 0 2.9-.387 4.176-1.16 1.315-.773 2.359-1.875 3.132-3.306.812-1.431 1.218-3.132 1.218-5.104z" fill="#577FFB"/>
  <defs>
    <clipPath id="tabs-options-size__clip0">
      <rect x="207" y="357" width="163" height="123.155" rx="8" fill="#fff"/>
    </clipPath>
    <clipPath id="tabs-options-size__clip1">
      <rect x="573" y="281" width="223" height="199.104" rx="8" fill="#fff"/>
    </clipPath>
    <clipPath id="tabs-options-size__clip2">
      <rect x="999" y="230" width="285" height="250.211" rx="8" fill="#fff"/>
    </clipPath>
    <clipPath id="tabs-options-size__clip3">
      <path fill="#fff" transform="translate(999 472.629)" d="M0 0h285v7.582H0z"/>
    </clipPath>
    <filter id="tabs-options-size__filter0_d" x="191" y="349" width="195" height="155.155" filterUnits="userSpaceOnUse" color-interpolation-filters="sRGB">
      <feFlood flood-opacity="0" result="BackgroundImageFix"/>
      <feColorMatrix in="SourceAlpha" values="0 0 0 0 0 0 0 0 0 0 0 0 0 0 0 0 0 0 127 0"/>
      <feOffset dy="8"/>
      <feGaussianBlur stdDeviation="8"/>
      <feColorMatrix values="0 0 0 0 0.0392157 0 0 0 0 0.0392157 0 0 0 0 0.0392157 0 0 0 0.08 0"/>
      <feBlend in2="BackgroundImageFix" result="effect1_dropShadow"/>
      <feBlend in="SourceGraphic" in2="effect1_dropShadow" result="shape"/>
    </filter>
    <filter id="tabs-options-size__filter1_d" x="557" y="273" width="255" height="231.104" filterUnits="userSpaceOnUse" color-interpolation-filters="sRGB">
      <feFlood flood-opacity="0" result="BackgroundImageFix"/>
      <feColorMatrix in="SourceAlpha" values="0 0 0 0 0 0 0 0 0 0 0 0 0 0 0 0 0 0 127 0"/>
      <feOffset dy="8"/>
      <feGaussianBlur stdDeviation="8"/>
      <feColorMatrix values="0 0 0 0 0.0392157 0 0 0 0 0.0392157 0 0 0 0 0.0392157 0 0 0 0.08 0"/>
      <feBlend in2="BackgroundImageFix" result="effect1_dropShadow"/>
      <feBlend in="SourceGraphic" in2="effect1_dropShadow" result="shape"/>
    </filter>
    <filter id="tabs-options-size__filter2_d" x="983" y="222" width="317" height="282.211" filterUnits="userSpaceOnUse" color-interpolation-filters="sRGB">
      <feFlood flood-opacity="0" result="BackgroundImageFix"/>
      <feColorMatrix in="SourceAlpha" values="0 0 0 0 0 0 0 0 0 0 0 0 0 0 0 0 0 0 127 0"/>
      <feOffset dy="8"/>
      <feGaussianBlur stdDeviation="8"/>
      <feColorMatrix values="0 0 0 0 0.0392157 0 0 0 0 0.0392157 0 0 0 0 0.0392157 0 0 0 0.08 0"/>
      <feBlend in2="BackgroundImageFix" result="effect1_dropShadow"/>
      <feBlend in="SourceGraphic" in2="effect1_dropShadow" result="shape"/>
    </filter>
  </defs>
</svg>
