<svg width="1491" height="839" viewBox="0 0 1491 839" xmlns="http://www.w3.org/2000/svg">
  <path d="M0 4a4 4 0 014-4h1482.72a4 4 0 014 4v830.004a4 4 0 01-4 4H4a4 4 0 01-4-4V4z" fill="#F0F3FF"/>
  <g filter="url(#tabs-dont-02__filter0_d)">
    <g clip-path="url(#tabs-dont-02__clip0)">
      <path d="M293 282.098h904v359.6H293v-359.6z" fill="#fff"/>
      <path fill-rule="evenodd" clip-rule="evenodd" d="M343.977 327.189a4 4 0 00-4 4v17.927a4 4 0 004 4h287.854a4 4 0 004-4v-17.927a4 4 0 00-4-4H343.977zm-4.016 59.236a4 4 0 014-4H755.09a4 4 0 014 4v2.146a4 4 0 01-4 4H343.961a4 4 0 01-4-4v-2.146zm0 103.709a4 4 0 014-4H755.09a4 4 0 014 4v2.146a4 4 0 01-4 4H343.961a4 4 0 01-4-4v-2.146zm413.408-81.781a4 4 0 00-4 4v2.145a4 4 0 004 4h392.761a4 4 0 004-4v-2.145c0-2.21-1.79-4-4-4H753.369zm-4 55.854a4 4 0 014-4h392.761a4 4 0 014 4v2.145c0 2.21-1.79 4-4 4H753.369a4 4 0 01-4-4v-2.145zM343.961 434.28a4 4 0 00-4 4v2.145a4 4 0 004 4H755.09a4 4 0 004-4v-2.145a4 4 0 00-4-4H343.961zm-4-21.927a4 4 0 014-4H472.07a4 4 0 014 4v2.145a4 4 0 01-4 4H343.961a4 4 0 01-4-4v-2.145zm4 99.709a4 4 0 00-4 4v2.145a4 4 0 004 4H472.07a4 4 0 004-4v-2.145a4 4 0 00-4-4H343.961zm434.575-73.767a4 4 0 014-4h128.109a4 4 0 014 4v2.145a4 4 0 01-4 4H782.536a4 4 0 01-4-4v-2.145zm-434.575 21.912a4 4 0 00-4 4v2.146a4 4 0 004 4H518.52a4 4 0 004-4v-2.146a4 4 0 00-4-4H343.961zm430.251-73.767a4 4 0 014-4h174.559a4 4 0 014 4v2.146a4 4 0 01-4 4H778.212a4 4 0 01-4-4v-2.146zm2.92 99.71a4 4 0 00-4 4v2.145a4 4 0 004 4h174.559a4 4 0 004-4v-2.145a4 4 0 00-4-4H777.132zm-272.977-73.797a4 4 0 014-4h209.126a4 4 0 014 4v2.145a4 4 0 01-4 4H508.155a4 4 0 01-4-4v-2.145zm-.318 99.709a4 4 0 00-4 4v2.145a4 4 0 004 4h209.126a4 4 0 004-4v-2.145c0-2.21-1.79-4-4-4H503.837zm430.252-73.767a4 4 0 014-4h209.131c2.2 0 4 1.791 4 4v2.145c0 2.21-1.8 4-4 4H938.089a4 4 0 01-4-4v-2.145zm-383.801 21.896a4 4 0 00-4 4v2.146a4 4 0 004 4h171.318a4 4 0 004-4v-2.146a4 4 0 00-4-4H550.288zm421.606-73.766a4 4 0 014-4h171.316a4 4 0 014 4v2.146a4 4 0 01-4 4H975.894a4 4 0 01-4-4v-2.146z" fill="#E0E7FF"/>
      <g clip-path="url(#tabs-dont-02__clip1)">
        <path fill="#fff" d="M293 195.297h127.837v83.713H293z"/>
        <path d="M346.607 228.611v2.759h-4.542v14.284h-3.418V231.37h-4.541v-2.759h12.501zm1.615 10.23c0-1.367.268-2.58.806-3.638.553-1.058 1.294-1.871 2.221-2.441.945-.57 1.994-.855 3.15-.855 1.009 0 1.888.204 2.637.611.765.407 1.376.919 1.831 1.538v-1.929h3.443v13.527h-3.443v-1.978c-.439.635-1.05 1.164-1.831 1.587-.765.407-1.652.61-2.661.61a5.813 5.813 0 01-3.126-.879c-.927-.586-1.668-1.408-2.221-2.466-.538-1.074-.806-2.303-.806-3.687zm10.645.049c0-.83-.162-1.538-.488-2.124-.326-.602-.765-1.058-1.318-1.367a3.456 3.456 0 00-1.783-.489c-.635 0-1.221.155-1.758.464-.537.31-.976.765-1.318 1.368-.326.586-.489 1.286-.489 2.099 0 .814.163 1.531.489 2.149.342.602.781 1.066 1.318 1.392.554.325 1.14.488 1.758.488.635 0 1.229-.155 1.783-.464a3.552 3.552 0 001.318-1.367c.326-.602.488-1.319.488-2.149zm10.2-4.785c.439-.651 1.042-1.18 1.807-1.587.781-.407 1.668-.611 2.661-.611 1.156 0 2.197.285 3.125.855.944.57 1.685 1.383 2.222 2.441.554 1.042.83 2.255.83 3.638 0 1.384-.276 2.613-.83 3.687-.537 1.058-1.278 1.88-2.222 2.466-.928.586-1.969.879-3.125.879-1.009 0-1.896-.195-2.661-.586-.749-.407-1.351-.927-1.807-1.562v1.929h-3.418v-18.068h3.418v6.519zm7.154 4.736c0-.813-.171-1.513-.513-2.099a3.34 3.34 0 00-1.318-1.368 3.47 3.47 0 00-1.758-.464c-.619 0-1.205.163-1.758.489-.538.309-.977.765-1.319 1.367-.325.602-.488 1.31-.488 2.124 0 .814.163 1.522.488 2.124.342.603.781 1.067 1.319 1.392a3.55 3.55 0 001.758.464c.634 0 1.22-.163 1.758-.488.553-.326.993-.79 1.318-1.392.342-.602.513-1.318.513-2.149z" fill="#577FFB"/>
        <g clip-path="url(#tabs-dont-02__clip2)">
          <path fill="#577FFB" d="M293 279.01h127.313v3.488H293z"/>
        </g>
        <path fill="#EBEBEB" d="M420.836 195.297h1.744v87.201h-1.744z"/>
        <path fill="#fff" d="M422.582 195.297h127.837v83.713H422.582z"/>
        <path d="M466.27 228.611v2.759h-4.542v14.284h-3.418V231.37h-4.541v-2.759h12.501zm1.615 10.23c0-1.367.268-2.58.806-3.638.553-1.058 1.294-1.871 2.221-2.441.945-.57 1.994-.855 3.15-.855 1.009 0 1.888.204 2.637.611.765.407 1.376.919 1.831 1.538v-1.929h3.443v13.527h-3.443v-1.978c-.439.635-1.05 1.164-1.831 1.587-.765.407-1.652.61-2.661.61a5.813 5.813 0 01-3.126-.879c-.927-.586-1.668-1.408-2.221-2.466-.538-1.074-.806-2.303-.806-3.687zm10.645.049c0-.83-.162-1.538-.488-2.124-.326-.602-.765-1.058-1.319-1.367a3.45 3.45 0 00-1.782-.489c-.635 0-1.221.155-1.758.464-.537.31-.977.765-1.318 1.368-.326.586-.489 1.286-.489 2.099 0 .814.163 1.531.489 2.149.341.602.781 1.066 1.318 1.392.554.325 1.14.488 1.758.488.635 0 1.229-.155 1.782-.464a3.548 3.548 0 001.319-1.367c.326-.602.488-1.319.488-2.149zm10.2-4.785c.439-.651 1.042-1.18 1.807-1.587.781-.407 1.668-.611 2.661-.611 1.156 0 2.197.285 3.125.855.944.57 1.685 1.383 2.222 2.441.554 1.042.83 2.255.83 3.638 0 1.384-.276 2.613-.83 3.687-.537 1.058-1.278 1.88-2.222 2.466-.928.586-1.969.879-3.125.879-1.009 0-1.896-.195-2.661-.586-.749-.407-1.351-.927-1.807-1.562v1.929h-3.418v-18.068h3.418v6.519zm7.154 4.736c0-.813-.171-1.513-.513-2.099-.326-.603-.765-1.058-1.318-1.368a3.47 3.47 0 00-1.758-.464c-.619 0-1.205.163-1.758.489-.538.309-.977.765-1.319 1.367-.325.602-.488 1.31-.488 2.124 0 .814.163 1.522.488 2.124.342.603.781 1.067 1.319 1.392a3.55 3.55 0 001.758.464c.634 0 1.22-.163 1.758-.488a3.52 3.52 0 001.318-1.392c.342-.602.513-1.318.513-2.149zm12.477 2.955c1.562-1.302 2.808-2.385 3.736-3.248.927-.879 1.701-1.79 2.319-2.734.619-.944.928-1.872.928-2.784 0-.83-.195-1.481-.586-1.953-.391-.472-.993-.708-1.807-.708s-1.44.277-1.88.83c-.439.537-.667 1.278-.684 2.222h-3.32c.065-1.953.643-3.435 1.733-4.444 1.107-1.009 2.507-1.514 4.2-1.514 1.856 0 3.28.497 4.273 1.49.993.977 1.489 2.271 1.489 3.882 0 1.27-.342 2.482-1.025 3.638a14.709 14.709 0 01-2.344 3.028c-.879.846-2.027 1.872-3.443 3.076h7.203v2.832h-12.062v-2.539l1.27-1.074z" fill="#808E99"/>
        <g clip-path="url(#tabs-dont-02__clip3)">
          <path fill="#AEBFFF" d="M422.582 279.01h127.313v3.488H422.582z"/>
        </g>
        <path fill="#EBEBEB" d="M550.418 195.297h1.744v87.201h-1.744z"/>
        <path fill="#fff" d="M552.164 195.297h127.837v83.713H552.164z"/>
        <path d="M595.554 228.611v2.759h-4.542v14.284h-3.418V231.37h-4.541v-2.759h12.501zm1.615 10.23c0-1.367.268-2.58.806-3.638.553-1.058 1.294-1.871 2.221-2.441.945-.57 1.994-.855 3.15-.855 1.009 0 1.888.204 2.637.611.765.407 1.376.919 1.831 1.538v-1.929h3.443v13.527h-3.443v-1.978c-.439.635-1.05 1.164-1.831 1.587-.765.407-1.652.61-2.661.61a5.813 5.813 0 01-3.126-.879c-.927-.586-1.668-1.408-2.221-2.466-.538-1.074-.806-2.303-.806-3.687zm10.645.049c0-.83-.162-1.538-.488-2.124-.326-.602-.765-1.058-1.319-1.367a3.45 3.45 0 00-1.782-.489c-.635 0-1.221.155-1.758.464-.537.31-.977.765-1.318 1.368-.326.586-.489 1.286-.489 2.099 0 .814.163 1.531.489 2.149.341.602.781 1.066 1.318 1.392.554.325 1.14.488 1.758.488.635 0 1.229-.155 1.782-.464a3.548 3.548 0 001.319-1.367c.326-.602.488-1.319.488-2.149zm10.2-4.785c.439-.651 1.042-1.18 1.807-1.587.781-.407 1.668-.611 2.661-.611 1.156 0 2.197.285 3.125.855.944.57 1.685 1.383 2.222 2.441.554 1.042.83 2.255.83 3.638 0 1.384-.276 2.613-.83 3.687-.537 1.058-1.278 1.88-2.222 2.466-.928.586-1.969.879-3.125.879-1.009 0-1.896-.195-2.661-.586-.749-.407-1.351-.927-1.807-1.562v1.929h-3.418v-18.068h3.418v6.519zm7.154 4.736c0-.813-.171-1.513-.513-2.099-.326-.603-.765-1.058-1.318-1.368a3.47 3.47 0 00-1.758-.464c-.619 0-1.205.163-1.758.489-.538.309-.977.765-1.319 1.367-.325.602-.488 1.31-.488 2.124 0 .814.163 1.522.488 2.124.342.603.781 1.067 1.319 1.392a3.55 3.55 0 001.758.464c.634 0 1.22-.163 1.758-.488a3.52 3.52 0 001.318-1.392c.342-.602.513-1.318.513-2.149zm11.451-6.299c.082-1.628.651-2.881 1.709-3.76 1.075-.895 2.483-1.343 4.224-1.343 1.189 0 2.206.212 3.052.635.847.407 1.482.968 1.905 1.685.439.7.659 1.497.659 2.392 0 1.026-.268 1.897-.806 2.613-.52.7-1.147 1.172-1.88 1.416v.098c.945.293 1.677.814 2.198 1.562.537.749.806 1.71.806 2.881 0 .977-.228 1.848-.684 2.613-.44.765-1.099 1.367-1.978 1.807-.862.423-1.904.635-3.125.635-1.839 0-3.337-.464-4.493-1.392-1.155-.928-1.766-2.295-1.831-4.102h3.321c.032.798.301 1.441.806 1.929.52.472 1.228.708 2.124.708.83 0 1.465-.228 1.904-.684.456-.472.684-1.074.684-1.807 0-.976-.309-1.676-.928-2.099-.619-.424-1.579-.635-2.881-.635h-.708v-2.808h.708c2.311 0 3.467-.773 3.467-2.32 0-.699-.212-1.245-.635-1.635-.407-.391-1.001-.586-1.782-.586-.765 0-1.359.211-1.783.634-.407.407-.643.928-.708 1.563h-3.345z" fill="#808E99"/>
        <g clip-path="url(#tabs-dont-02__clip4)">
          <path fill="#AEBFFF" d="M552.164 279.01h127.313v3.488H552.164z"/>
        </g>
      </g>
      <g clip-path="url(#tabs-dont-02__clip5)">
        <path fill="#fff" d="M681 195.297h127.942v83.713H681z"/>
        <path d="M723.677 228.611v2.759h-4.541v14.284h-3.418V231.37h-4.542v-2.759h12.501zm1.616 10.23c0-1.367.268-2.58.805-3.638.554-1.058 1.294-1.871 2.222-2.441.944-.57 1.994-.855 3.15-.855 1.009 0 1.888.204 2.637.611.765.407 1.375.919 1.831 1.538v-1.929h3.443v13.527h-3.443v-1.978c-.44.635-1.05 1.164-1.831 1.587-.765.407-1.652.61-2.662.61a5.81 5.81 0 01-3.125-.879c-.928-.586-1.668-1.408-2.222-2.466-.537-1.074-.805-2.303-.805-3.687zm10.645.049c0-.83-.163-1.538-.488-2.124-.326-.602-.765-1.058-1.319-1.367a3.45 3.45 0 00-1.782-.489c-.635 0-1.221.155-1.758.464-.537.31-.977.765-1.319 1.368-.325.586-.488 1.286-.488 2.099 0 .814.163 1.531.488 2.149.342.602.782 1.066 1.319 1.392a3.416 3.416 0 001.758.488c.635 0 1.229-.155 1.782-.464a3.548 3.548 0 001.319-1.367c.325-.602.488-1.319.488-2.149zm10.199-4.785c.44-.651 1.042-1.18 1.807-1.587.782-.407 1.669-.611 2.662-.611 1.155 0 2.197.285 3.125.855.944.57 1.685 1.383 2.222 2.441.553 1.042.83 2.255.83 3.638 0 1.384-.277 2.613-.83 3.687-.537 1.058-1.278 1.88-2.222 2.466-.928.586-1.97.879-3.125.879-1.01 0-1.897-.195-2.662-.586-.748-.407-1.351-.927-1.807-1.562v1.929h-3.418v-18.068h3.418v6.519zm7.154 4.736c0-.813-.17-1.513-.512-2.099-.326-.603-.765-1.058-1.319-1.368a3.464 3.464 0 00-1.758-.464c-.618 0-1.204.163-1.758.489-.537.309-.976.765-1.318 1.367-.326.602-.489 1.31-.489 2.124 0 .814.163 1.522.489 2.124.342.603.781 1.067 1.318 1.392.554.309 1.14.464 1.758.464.635 0 1.221-.163 1.758-.488.554-.326.993-.79 1.319-1.392.342-.602.512-1.318.512-2.149zm11.257 3.345v-2.685l7.984-11.427h3.98v11.134h2.148v2.978h-2.148v3.468h-3.419v-3.468h-8.545zm8.765-10.45l-5.005 7.472h5.005v-7.472z" fill="#808E99"/>
        <g clip-path="url(#tabs-dont-02__clip6)">
          <path fill="#AEBFFF" d="M681 279.01h127.313v3.488H681z"/>
        </g>
        <path fill="#EBEBEB" d="M808.941 195.297h1.744v87.201h-1.744z"/>
        <path fill="#fff" d="M810.688 195.297H938.63v83.713H810.688z"/>
        <path d="M853.58 228.611v2.759h-4.542v14.284h-3.418V231.37h-4.542v-2.759h12.502zm1.615 10.23c0-1.367.268-2.58.805-3.638.554-1.058 1.294-1.871 2.222-2.441.944-.57 1.994-.855 3.15-.855 1.009 0 1.888.204 2.637.611.765.407 1.375.919 1.831 1.538v-1.929h3.443v13.527h-3.443v-1.978c-.439.635-1.05 1.164-1.831 1.587-.765.407-1.652.61-2.662.61a5.81 5.81 0 01-3.125-.879c-.928-.586-1.668-1.408-2.222-2.466-.537-1.074-.805-2.303-.805-3.687zm10.645.049c0-.83-.163-1.538-.488-2.124-.326-.602-.765-1.058-1.319-1.367a3.45 3.45 0 00-1.782-.489c-.635 0-1.221.155-1.758.464-.537.31-.977.765-1.319 1.368-.325.586-.488 1.286-.488 2.099 0 .814.163 1.531.488 2.149.342.602.782 1.066 1.319 1.392a3.416 3.416 0 001.758.488c.635 0 1.229-.155 1.782-.464a3.548 3.548 0 001.319-1.367c.325-.602.488-1.319.488-2.149zm10.2-4.785c.439-.651 1.041-1.18 1.806-1.587.782-.407 1.669-.611 2.662-.611 1.155 0 2.197.285 3.125.855.944.57 1.685 1.383 2.222 2.441.553 1.042.83 2.255.83 3.638 0 1.384-.277 2.613-.83 3.687-.537 1.058-1.278 1.88-2.222 2.466-.928.586-1.97.879-3.125.879-1.009 0-1.897-.195-2.662-.586-.748-.407-1.351-.927-1.806-1.562v1.929h-3.419v-18.068h3.419v6.519zm7.154 4.736c0-.813-.171-1.513-.513-2.099-.326-.603-.765-1.058-1.319-1.368a3.464 3.464 0 00-1.758-.464c-.618 0-1.204.163-1.758.489-.537.309-.976.765-1.318 1.367-.326.602-.488 1.31-.488 2.124 0 .814.162 1.522.488 2.124.342.603.781 1.067 1.318 1.392.554.309 1.14.464 1.758.464.635 0 1.221-.163 1.758-.488.554-.326.993-.79 1.319-1.392.342-.602.513-1.318.513-2.149zm23.366-8.033h-7.911v4.176c.342-.424.831-.765 1.465-1.026a5.015 5.015 0 012.027-.415c1.302 0 2.368.285 3.198.855a4.92 4.92 0 011.807 2.197 7.14 7.14 0 01.562 2.832c0 1.872-.537 3.378-1.612 4.517-1.058 1.14-2.571 1.71-4.541 1.71-1.856 0-3.337-.464-4.444-1.392-1.107-.928-1.733-2.141-1.88-3.638h3.321c.146.651.472 1.172.976 1.562.521.391 1.18.586 1.978.586.96 0 1.685-.301 2.173-.903.488-.602.733-1.4.733-2.393 0-1.009-.253-1.774-.757-2.295-.489-.537-1.213-.806-2.173-.806-.684 0-1.254.171-1.709.513a2.797 2.797 0 00-.977 1.367h-3.272v-10.45h11.036v3.003z" fill="#808E99"/>
        <g clip-path="url(#tabs-dont-02__clip7)">
          <path fill="#AEBFFF" d="M810.688 279.01h127.313v3.488H810.688z"/>
        </g>
        <path fill="#EBEBEB" d="M938.629 195.297h1.744v87.201h-1.744z"/>
        <path fill="#fff" d="M940.371 195.297h127.942v83.713H940.371z"/>
        <path d="M983.311 228.611v2.759h-4.542v14.284h-3.418V231.37h-4.541v-2.759h12.501zm1.615 10.23c0-1.367.268-2.58.806-3.638.553-1.058 1.294-1.871 2.221-2.441.945-.57 1.994-.855 3.15-.855 1.009 0 1.888.204 2.637.611.765.407 1.376.919 1.831 1.538v-1.929h3.443v13.527h-3.443v-1.978c-.439.635-1.05 1.164-1.831 1.587-.765.407-1.652.61-2.661.61a5.813 5.813 0 01-3.126-.879c-.927-.586-1.668-1.408-2.221-2.466-.538-1.074-.806-2.303-.806-3.687zm10.645.049c0-.83-.162-1.538-.488-2.124-.326-.602-.765-1.058-1.318-1.367a3.456 3.456 0 00-1.783-.489c-.635 0-1.221.155-1.758.464-.537.31-.976.765-1.318 1.368-.326.586-.489 1.286-.489 2.099 0 .814.163 1.531.489 2.149.342.602.781 1.066 1.318 1.392.554.325 1.14.488 1.758.488.635 0 1.229-.155 1.783-.464a3.552 3.552 0 001.318-1.367c.326-.602.488-1.319.488-2.149zm10.199-4.785c.44-.651 1.04-1.18 1.81-1.587.78-.407 1.67-.611 2.66-.611 1.15 0 2.2.285 3.12.855.95.57 1.69 1.383 2.23 2.441.55 1.042.83 2.255.83 3.638 0 1.384-.28 2.613-.83 3.687-.54 1.058-1.28 1.88-2.23 2.466-.92.586-1.97.879-3.12.879-1.01 0-1.9-.195-2.66-.586a5.328 5.328 0 01-1.81-1.562v1.929h-3.42v-18.068h3.42v6.519zm7.15 4.736c0-.813-.17-1.513-.51-2.099a3.272 3.272 0 00-1.32-1.368 3.43 3.43 0 00-1.75-.464c-.62 0-1.21.163-1.76.489-.54.309-.98.765-1.32 1.367-.33.602-.49 1.31-.49 2.124 0 .814.16 1.522.49 2.124.34.603.78 1.067 1.32 1.392.55.309 1.14.464 1.76.464a3.3 3.3 0 001.75-.488c.56-.326 1-.79 1.32-1.392.34-.602.51-1.318.51-2.149zm20.64-6.543c-.17-.684-.45-1.197-.86-1.538-.39-.342-.96-.513-1.71-.513-1.12 0-1.95.456-2.49 1.367-.52.895-.79 2.36-.8 4.395.39-.651.96-1.156 1.71-1.514a5.351 5.351 0 012.44-.561c1.06 0 1.99.228 2.81.683.81.456 1.44 1.124 1.9 2.003.46.862.68 1.904.68 3.125 0 1.156-.23 2.189-.7 3.101a5.002 5.002 0 01-2.03 2.099c-.9.505-1.96.757-3.2.757-1.69 0-3.03-.374-4-1.123-.96-.749-1.64-1.79-2.03-3.125-.37-1.351-.56-3.011-.56-4.981 0-2.979.51-5.225 1.54-6.739 1.02-1.53 2.64-2.295 4.86-2.295 1.7 0 3.03.464 3.98 1.392.94.928 1.48 2.083 1.63 3.467h-3.17zm-2.49 4.444c-.87 0-1.59.252-2.18.757-.58.504-.88 1.237-.88 2.197s.27 1.717.81 2.271c.55.553 1.33.83 2.32.83.88 0 1.57-.269 2.08-.806.52-.537.78-1.261.78-2.173 0-.944-.26-1.693-.76-2.246-.49-.554-1.21-.83-2.17-.83z" fill="#808E99"/>
        <g clip-path="url(#tabs-dont-02__clip8)">
          <path fill="#AEBFFF" d="M940.371 279.01h127.313v3.488H940.371z"/>
        </g>
        <path fill="#EBEBEB" d="M1068.31 195.297h1.744v87.201h-1.744z"/>
        <path fill="#fff" d="M1070.06 195.297h127.942v83.713H1070.06z"/>
        <path d="M1114.12 228.611v2.759h-4.54v14.284h-3.42V231.37h-4.54v-2.759h12.5zm1.61 10.23c0-1.367.27-2.58.81-3.638.55-1.058 1.29-1.871 2.22-2.441.95-.57 2-.855 3.15-.855 1.01 0 1.89.204 2.64.611.76.407 1.37.919 1.83 1.538v-1.929h3.44v13.527h-3.44v-1.978c-.44.635-1.05 1.164-1.83 1.587-.77.407-1.65.61-2.66.61-1.14 0-2.18-.293-3.13-.879-.93-.586-1.67-1.408-2.22-2.466-.54-1.074-.81-2.303-.81-3.687zm10.65.049c0-.83-.16-1.538-.49-2.124a3.27 3.27 0 00-1.32-1.367 3.422 3.422 0 00-1.78-.489c-.63 0-1.22.155-1.76.464-.53.31-.97.765-1.32 1.368-.32.586-.48 1.286-.48 2.099 0 .814.16 1.531.48 2.149.35.602.79 1.066 1.32 1.392.56.325 1.14.488 1.76.488.64 0 1.23-.155 1.78-.464.56-.325 1-.781 1.32-1.367.33-.602.49-1.319.49-2.149zm10.2-4.785c.44-.651 1.04-1.18 1.81-1.587.78-.407 1.66-.611 2.66-.611 1.15 0 2.19.285 3.12.855.95.57 1.69 1.383 2.22 2.441.56 1.042.83 2.255.83 3.638 0 1.384-.27 2.613-.83 3.687-.53 1.058-1.27 1.88-2.22 2.466-.93.586-1.97.879-3.12.879-1.01 0-1.9-.195-2.66-.586-.75-.407-1.36-.927-1.81-1.562v1.929h-3.42v-18.068h3.42v6.519zm7.15 4.736c0-.813-.17-1.513-.51-2.099-.33-.603-.76-1.058-1.32-1.368a3.466 3.466 0 00-1.76-.464c-.61 0-1.2.163-1.75.489-.54.309-.98.765-1.32 1.367-.33.602-.49 1.31-.49 2.124 0 .814.16 1.522.49 2.124.34.603.78 1.067 1.32 1.392.55.309 1.14.464 1.75.464.64 0 1.22-.163 1.76-.488.56-.326.99-.79 1.32-1.392.34-.602.51-1.318.51-2.149zm22.73-8.399l-6.49 15.212h-3.47l6.55-14.821h-8.35v-2.93h11.76v2.539z" fill="#808E99"/>
        <g clip-path="url(#tabs-dont-02__clip9)">
          <path fill="#AEBFFF" d="M1070.06 279.01h127.313v3.488H1070.06z"/>
        </g>
      </g>
      <path fill="#EBEBEB" d="M680 192.498h1.744v87.201H680z"/>
    </g>
  </g>
  <defs>
    <clipPath id="tabs-dont-02__clip0">
      <rect x="293" y="195.498" width="904" height="446.2" rx="8" fill="#fff"/>
    </clipPath>
    <clipPath id="tabs-dont-02__clip1">
      <path fill="#fff" transform="translate(293 195.297)" d="M0 0h387v87.201H0z"/>
    </clipPath>
    <clipPath id="tabs-dont-02__clip2">
      <path fill="#fff" transform="translate(293 279.01)" d="M0 0h127.837v3.488H0z"/>
    </clipPath>
    <clipPath id="tabs-dont-02__clip3">
      <path fill="#fff" transform="translate(422.582 279.01)" d="M0 0h127.837v3.488H0z"/>
    </clipPath>
    <clipPath id="tabs-dont-02__clip4">
      <path fill="#fff" transform="translate(552.164 279.01)" d="M0 0h127.837v3.488H0z"/>
    </clipPath>
    <clipPath id="tabs-dont-02__clip5">
      <path fill="#fff" transform="translate(681 195.297)" d="M0 0h517v87.201H0z"/>
    </clipPath>
    <clipPath id="tabs-dont-02__clip6">
      <path fill="#fff" transform="translate(681 279.01)" d="M0 0h127.942v3.488H0z"/>
    </clipPath>
    <clipPath id="tabs-dont-02__clip7">
      <path fill="#fff" transform="translate(810.688 279.01)" d="M0 0h127.942v3.488H0z"/>
    </clipPath>
    <clipPath id="tabs-dont-02__clip8">
      <path fill="#fff" transform="translate(940.371 279.01)" d="M0 0h127.942v3.488H0z"/>
    </clipPath>
    <clipPath id="tabs-dont-02__clip9">
      <path fill="#fff" transform="translate(1070.06 279.01)" d="M0 0h127.942v3.488H0z"/>
    </clipPath>
    <filter id="tabs-dont-02__filter0_d" x="277" y="187.498" width="936" height="478.2" filterUnits="userSpaceOnUse" color-interpolation-filters="sRGB">
      <feFlood flood-opacity="0" result="BackgroundImageFix"/>
      <feColorMatrix in="SourceAlpha" values="0 0 0 0 0 0 0 0 0 0 0 0 0 0 0 0 0 0 127 0"/>
      <feOffset dy="8"/>
      <feGaussianBlur stdDeviation="8"/>
      <feColorMatrix values="0 0 0 0 0.0392157 0 0 0 0 0.0392157 0 0 0 0 0.0392157 0 0 0 0.08 0"/>
      <feBlend in2="BackgroundImageFix" result="effect1_dropShadow"/>
      <feBlend in="SourceGraphic" in2="effect1_dropShadow" result="shape"/>
    </filter>
  </defs>
</svg>
