<svg width="1491" height="839" viewBox="0 0 1491 839" xmlns="http://www.w3.org/2000/svg">
  <path d="M0 4a4 4 0 014-4h1482.72a4 4 0 014 4v830.004a4 4 0 01-4 4H4a4 4 0 01-4-4V4z" fill="#F0F3FF"/>
  <g filter="url(#tabs-options-label__filter0_d)">
    <g clip-path="url(#tabs-options-label__clip0)">
      <path fill="#fff" d="M573 227h345v295.709H573z"/>
      <path d="M708.915 344.653v9.746h-16.042v50.455h-12.075v-50.455h-16.042v-9.746h44.159zm5.705 36.138c0-4.83.949-9.113 2.847-12.851 1.955-3.737 4.571-6.612 7.848-8.625 3.335-2.012 7.044-3.018 11.126-3.018 3.565 0 6.67.718 9.315 2.156 2.703 1.437 4.859 3.249 6.469 5.433v-6.813h12.161v47.781h-12.161v-6.986c-1.553 2.243-3.709 4.112-6.469 5.607-2.702 1.437-5.836 2.156-9.401 2.156-4.025 0-7.705-1.035-11.04-3.105-3.277-2.07-5.893-4.974-7.848-8.711-1.898-3.795-2.847-8.136-2.847-13.024zm37.605.173c0-2.933-.575-5.434-1.725-7.504-1.15-2.127-2.703-3.737-4.658-4.83-1.955-1.15-4.053-1.725-6.296-1.725-2.242 0-4.312.546-6.21 1.639-1.897 1.092-3.45 2.702-4.657 4.83-1.15 2.07-1.725 4.542-1.725 7.417s.575 5.405 1.725 7.59c1.207 2.127 2.76 3.766 4.657 4.916 1.955 1.15 4.025 1.725 6.21 1.725 2.243 0 4.341-.546 6.296-1.639 1.955-1.15 3.508-2.76 4.658-4.829 1.15-2.128 1.725-4.658 1.725-7.59zm36.029-16.905c1.552-2.3 3.68-4.169 6.382-5.606 2.76-1.438 5.894-2.156 9.401-2.156 4.083 0 7.763 1.006 11.04 3.018 3.335 2.013 5.951 4.888 7.849 8.625 1.955 3.68 2.932 7.964 2.932 12.851 0 4.888-.977 9.229-2.932 13.024-1.898 3.737-4.514 6.641-7.849 8.711-3.277 2.07-6.957 3.105-11.04 3.105-3.565 0-6.698-.69-9.401-2.07-2.645-1.438-4.772-3.278-6.382-5.52v6.813h-12.075v-63.823h12.075v23.028zm25.271 16.732c0-2.875-.604-5.347-1.812-7.417-1.15-2.128-2.702-3.738-4.657-4.83-1.898-1.093-3.968-1.639-6.21-1.639-2.185 0-4.255.575-6.21 1.725-1.897 1.093-3.45 2.703-4.657 4.83-1.15 2.128-1.725 4.629-1.725 7.504s.575 5.376 1.725 7.503c1.207 2.128 2.76 3.766 4.657 4.916 1.955 1.093 4.025 1.639 6.21 1.639 2.242 0 4.312-.575 6.21-1.725 1.955-1.15 3.507-2.789 4.657-4.916 1.208-2.127 1.812-4.657 1.812-7.59z" fill="#577FFB"/>
      <g clip-path="url(#tabs-options-label__clip1)">
        <path fill="#577FFB" d="M573 522.709h345.139v12.321H573z"/>
      </g>
    </g>
  </g>
  <path d="M700.73 656.04h9.76V659h-13.4v-27.88h3.64v24.92zm12.265-8.08c0-2.24.454-4.2 1.36-5.88.907-1.707 2.147-3.027 3.72-3.96 1.6-.933 3.374-1.4 5.32-1.4 1.92 0 3.587.413 5 1.24 1.414.827 2.467 1.867 3.16 3.12v-4h3.68V659h-3.68v-4.08c-.72 1.28-1.8 2.347-3.24 3.2-1.413.827-3.066 1.24-4.96 1.24-1.946 0-3.706-.48-5.28-1.44-1.573-.96-2.813-2.307-3.72-4.04-.906-1.733-1.36-3.707-1.36-5.92zm18.56.04c0-1.653-.333-3.093-1-4.32-.666-1.227-1.573-2.16-2.72-2.8-1.12-.667-2.36-1-3.72-1-1.36 0-2.6.32-3.72.96-1.12.64-2.013 1.573-2.68 2.8-.666 1.227-1 2.667-1 4.32 0 1.68.334 3.147 1 4.4.667 1.227 1.56 2.173 2.68 2.84 1.12.64 2.36.96 3.72.96 1.36 0 2.6-.32 3.72-.96 1.147-.667 2.054-1.613 2.72-2.84.667-1.253 1-2.707 1-4.36zm13.472-6.84c.746-1.307 1.84-2.373 3.28-3.2 1.44-.827 3.08-1.24 4.92-1.24 1.973 0 3.746.467 5.32 1.4 1.573.933 2.813 2.253 3.72 3.96.906 1.68 1.36 3.64 1.36 5.88 0 2.213-.454 4.187-1.36 5.92-.907 1.733-2.16 3.08-3.76 4.04-1.574.96-3.334 1.44-5.28 1.44-1.894 0-3.56-.413-5-1.24-1.414-.827-2.48-1.88-3.2-3.16V659h-3.64v-29.6h3.64v11.76zm14.88 6.8c0-1.653-.334-3.093-1-4.32-.667-1.227-1.574-2.16-2.72-2.8-1.12-.64-2.36-.96-3.72-.96a7.268 7.268 0 00-3.72 1c-1.12.64-2.027 1.587-2.72 2.84-.667 1.227-1 2.653-1 4.28 0 1.653.333 3.107 1 4.36.693 1.227 1.6 2.173 2.72 2.84 1.146.64 2.386.96 3.72.96 1.36 0 2.6-.32 3.72-.96 1.146-.667 2.053-1.613 2.72-2.84.666-1.253 1-2.72 1-4.4zm28.511-.76c0 .693-.04 1.427-.12 2.2h-17.52c.133 2.16.867 3.853 2.2 5.08 1.36 1.2 3 1.8 4.92 1.8 1.573 0 2.88-.36 3.92-1.08a5.891 5.891 0 002.24-2.96h3.92c-.587 2.107-1.76 3.827-3.52 5.16-1.76 1.307-3.947 1.96-6.56 1.96-2.08 0-3.947-.467-5.6-1.4-1.627-.933-2.907-2.253-3.84-3.96-.933-1.733-1.4-3.733-1.4-6s.453-4.253 1.36-5.96c.907-1.707 2.173-3.013 3.8-3.92 1.653-.933 3.547-1.4 5.68-1.4 2.08 0 3.92.453 5.52 1.36 1.6.907 2.827 2.16 3.68 3.76.88 1.573 1.32 3.36 1.32 5.36zm-3.76-.76c0-1.387-.307-2.573-.92-3.56a5.79 5.79 0 00-2.52-2.28c-1.04-.533-2.2-.8-3.48-.8-1.84 0-3.413.587-4.72 1.76-1.28 1.173-2.013 2.8-2.2 4.88h13.84zm12.205-17.04V659h-3.64v-29.6h3.64z" fill="#577FFB"/>
  <path d="M747 423v172" stroke="#577FFB" stroke-width="4"/>
  <circle cx="747" cy="418" r="5.5" fill="#577FFB" stroke="#577FFB"/>
  <defs>
    <clipPath id="tabs-options-label__clip0">
      <rect x="573" y="227" width="345" height="308.03" rx="8" fill="#fff"/>
    </clipPath>
    <clipPath id="tabs-options-label__clip1">
      <path fill="#fff" transform="translate(573 522.709)" d="M0 0h345v12.321H0z"/>
    </clipPath>
    <filter id="tabs-options-label__filter0_d" x="557" y="219" width="377" height="340.03" filterUnits="userSpaceOnUse" color-interpolation-filters="sRGB">
      <feFlood flood-opacity="0" result="BackgroundImageFix"/>
      <feColorMatrix in="SourceAlpha" values="0 0 0 0 0 0 0 0 0 0 0 0 0 0 0 0 0 0 127 0"/>
      <feOffset dy="8"/>
      <feGaussianBlur stdDeviation="8"/>
      <feColorMatrix values="0 0 0 0 0.0392157 0 0 0 0 0.0392157 0 0 0 0 0.0392157 0 0 0 0.08 0"/>
      <feBlend in2="BackgroundImageFix" result="effect1_dropShadow"/>
      <feBlend in="SourceGraphic" in2="effect1_dropShadow" result="shape"/>
    </filter>
  </defs>
</svg>
