<svg width="1491" height="839" viewBox="0 0 1491 839" xmlns="http://www.w3.org/2000/svg">
  <path d="M.016 4a4 4 0 014-4H1486.74c2.2 0 4 1.79 4 4v830.004c0 2.209-1.8 4-4 4H4.016a4 4 0 01-4-4V4z" fill="#F0F3FF"/>
  <g filter="url(#tabs-do-04__filter0_d)">
    <g clip-path="url(#tabs-do-04__clip0)">
      <path d="M268 236.997h273v365H268v-365z" fill="#fff"/>
      <g clip-path="url(#tabs-do-04__clip1)">
        <path fill="#fff" d="M347.691 236.506h193.496v121.995H347.691z"/>
        <path d="M408.913 304.447h-8.478l-1.403 4.056h-4.484l7.656-21.318h4.971l7.655 21.318h-4.514l-1.403-4.056zm-1.159-3.416l-3.08-8.905-3.08 8.905h6.16zm14.909-5.916v8.173c0 .569.132.986.396 1.251.285.244.752.366 1.403.366h1.983v3.598h-2.684c-3.599 0-5.399-1.748-5.399-5.245v-8.143h-2.013v-3.508h2.013v-4.178h4.301v4.178h3.782v3.508h-3.782zm14.355 13.663c-1.626 0-3.09-.356-4.392-1.068a8.003 8.003 0 01-3.08-3.08c-.732-1.322-1.098-2.846-1.098-4.575 0-1.728.376-3.253 1.129-4.575a7.936 7.936 0 013.141-3.049c1.322-.732 2.796-1.098 4.422-1.098 1.627 0 3.101.366 4.423 1.098a7.738 7.738 0 013.11 3.049c.773 1.322 1.159 2.847 1.159 4.575 0 1.729-.396 3.253-1.189 4.575a8.103 8.103 0 01-3.172 3.08c-1.322.712-2.806 1.068-4.453 1.068zm0-3.721c.773 0 1.495-.183 2.166-.549.691-.386 1.24-.956 1.647-1.708.406-.752.61-1.667.61-2.745 0-1.606-.427-2.836-1.281-3.69-.834-.874-1.861-1.311-3.081-1.311s-2.246.437-3.08 1.311c-.813.854-1.22 2.084-1.22 3.69 0 1.607.396 2.847 1.189 3.721.814.854 1.83 1.281 3.05 1.281zm32.93-13.694c2.073 0 3.741.641 5.001 1.922 1.281 1.26 1.922 3.029 1.922 5.306v9.912h-4.27v-9.332c0-1.322-.336-2.328-1.007-3.02-.671-.711-1.585-1.067-2.744-1.067-1.159 0-2.085.356-2.776 1.067-.671.692-1.006 1.698-1.006 3.02v9.332h-4.27v-9.332c0-1.322-.336-2.328-1.007-3.02-.671-.711-1.585-1.067-2.744-1.067-1.18 0-2.115.356-2.806 1.067-.671.692-1.007 1.698-1.007 3.02v9.332h-4.27v-16.896h4.27v2.044a5.715 5.715 0 012.105-1.678c.874-.407 1.83-.61 2.867-.61 1.321 0 2.5.285 3.537.854a5.787 5.787 0 012.41 2.379c.549-.976 1.342-1.759 2.379-2.348a6.897 6.897 0 013.416-.885zm17.44 17.415c-1.382 0-2.623-.244-3.721-.732-1.098-.508-1.972-1.19-2.622-2.043a5.196 5.196 0 01-1.037-2.837h4.3c.081.651.396 1.19.945 1.617.57.427 1.271.64 2.105.64.813 0 1.443-.163 1.891-.488.467-.325.701-.742.701-1.25 0-.549-.285-.956-.854-1.22-.549-.285-1.433-.59-2.653-.915-1.261-.305-2.298-.62-3.111-.946a5.527 5.527 0 01-2.074-1.494c-.569-.671-.854-1.576-.854-2.715 0-.935.264-1.789.793-2.561.549-.773 1.322-1.383 2.318-1.83 1.017-.448 2.206-.671 3.568-.671 2.013 0 3.619.508 4.819 1.525 1.2.996 1.86 2.348 1.982 4.056h-4.086c-.061-.671-.346-1.2-.854-1.586-.488-.407-1.149-.61-1.983-.61-.772 0-1.372.142-1.799.427-.407.285-.61.681-.61 1.189 0 .57.285 1.007.854 1.312.569.285 1.454.579 2.653.884 1.22.305 2.227.62 3.02.946a5.14 5.14 0 012.043 1.525c.59.671.895 1.565.915 2.684a4.42 4.42 0 01-.824 2.623c-.528.772-1.301 1.382-2.317 1.829-.997.427-2.166.641-3.508.641z" fill="#577FFB"/>
        <g clip-path="url(#tabs-do-04__clip2)">
          <path fill="#577FFB" d="M541.188 358.501V236.506H545v121.995z"/>
        </g>
        <path fill="#fff" d="M292.691 358.501h248.496v121.995H292.691z"/>
        <path d="M364.118 409.21v21.288h-4.27v-13.846l-5.703 13.846h-3.233l-5.734-13.846v13.846h-4.269V409.21h4.849l6.771 15.829 6.77-15.829h4.819zm11.724 21.563c-1.626 0-3.09-.356-4.392-1.068a8.01 8.01 0 01-3.08-3.08c-.732-1.322-1.098-2.847-1.098-4.575 0-1.728.376-3.253 1.129-4.575a7.945 7.945 0 013.141-3.05c1.322-.732 2.796-1.098 4.422-1.098 1.627 0 3.101.366 4.423 1.098a7.747 7.747 0 013.11 3.05c.773 1.322 1.159 2.847 1.159 4.575 0 1.728-.396 3.253-1.189 4.575a8.11 8.11 0 01-3.172 3.08c-1.322.712-2.806 1.068-4.453 1.068zm0-3.721c.773 0 1.495-.183 2.166-.549.691-.387 1.24-.956 1.647-1.708.406-.753.61-1.667.61-2.745 0-1.606-.427-2.836-1.281-3.69-.834-.875-1.861-1.312-3.081-1.312s-2.247.437-3.08 1.312c-.813.854-1.22 2.084-1.22 3.69 0 1.606.396 2.846 1.189 3.721.814.854 1.83 1.281 3.05 1.281zm16.216-19.123v22.569h-4.27v-22.569h4.27zm19.926 13.755c0 .61-.041 1.159-.122 1.647H399.51c.101 1.22.528 2.175 1.281 2.867.752.691 1.677 1.037 2.775 1.037 1.586 0 2.714-.681 3.385-2.044h4.606c-.488 1.627-1.424 2.969-2.806 4.026-1.383 1.037-3.081 1.556-5.094 1.556-1.626 0-3.09-.356-4.391-1.068a7.861 7.861 0 01-3.02-3.08c-.711-1.322-1.067-2.847-1.067-4.575 0-1.749.356-3.284 1.067-4.605.712-1.322 1.708-2.339 2.989-3.05 1.281-.712 2.755-1.068 4.422-1.068 1.607 0 3.04.346 4.301 1.037a7.156 7.156 0 012.958 2.959c.712 1.26 1.068 2.714 1.068 4.361zm-4.423-1.22c-.02-1.098-.417-1.972-1.189-2.623-.773-.671-1.718-1.006-2.837-1.006-1.057 0-1.951.325-2.683.976-.712.63-1.149 1.514-1.312 2.653h8.021zm6.441 1.586c0-1.749.356-3.274 1.068-4.575.711-1.321 1.697-2.338 2.958-3.05 1.261-.732 2.704-1.098 4.331-1.098 2.094 0 3.822.529 5.185 1.586 1.382 1.037 2.307 2.501 2.775 4.392h-4.605c-.244-.732-.661-1.301-1.251-1.708-.569-.427-1.281-.64-2.135-.64-1.22 0-2.185.447-2.897 1.342-.712.874-1.067 2.124-1.067 3.751 0 1.606.355 2.857 1.067 3.751.712.875 1.677 1.312 2.897 1.312 1.729 0 2.857-.773 3.386-2.318h4.605c-.468 1.83-1.393 3.283-2.775 4.361-1.383 1.078-3.111 1.617-5.185 1.617-1.627 0-3.07-.356-4.331-1.068a7.756 7.756 0 01-2.958-3.05c-.712-1.321-1.068-2.856-1.068-4.605zm35.396-8.448v16.896h-4.3v-2.135c-.549.732-1.271 1.312-2.166 1.739-.874.406-1.83.61-2.867.61-1.321 0-2.49-.275-3.507-.824-1.017-.569-1.82-1.393-2.409-2.47-.57-1.098-.854-2.4-.854-3.904v-9.912h4.269v9.302c0 1.342.336 2.379 1.007 3.111.671.711 1.586 1.067 2.745 1.067 1.179 0 2.104-.356 2.775-1.067.671-.732 1.007-1.769 1.007-3.111v-9.302h4.3zm8.483-5.673v22.569h-4.27v-22.569h4.27zm19.925 13.755c0 .61-.041 1.159-.122 1.647h-12.352c.102 1.22.529 2.175 1.281 2.867.752.691 1.677 1.037 2.775 1.037 1.586 0 2.715-.681 3.386-2.044h4.605c-.488 1.627-1.423 2.969-2.806 4.026-1.383 1.037-3.08 1.556-5.093 1.556-1.627 0-3.091-.356-4.392-1.068-1.281-.732-2.287-1.759-3.019-3.08-.712-1.322-1.068-2.847-1.068-4.575 0-1.749.356-3.284 1.068-4.605.711-1.322 1.708-2.339 2.988-3.05 1.281-.712 2.756-1.068 4.423-1.068 1.606 0 3.04.346 4.3 1.037a7.156 7.156 0 012.958 2.959c.712 1.26 1.068 2.714 1.068 4.361zm-4.422-1.22c-.021-1.098-.417-1.972-1.19-2.623-.772-.671-1.718-1.006-2.836-1.006-1.057 0-1.952.325-2.684.976-.712.63-1.149 1.514-1.312 2.653h8.022zm14.004 10.309c-1.382 0-2.623-.244-3.721-.732-1.098-.509-1.972-1.19-2.622-2.044a5.193 5.193 0 01-1.037-2.836h4.3c.081.65.396 1.189.945 1.616.57.427 1.271.641 2.105.641.813 0 1.443-.163 1.891-.488.467-.326.701-.742.701-1.251 0-.549-.285-.955-.854-1.22-.549-.284-1.433-.589-2.653-.915-1.261-.305-2.298-.62-3.111-.945a5.53 5.53 0 01-2.074-1.495c-.569-.671-.854-1.575-.854-2.714 0-.935.264-1.789.793-2.562.549-.772 1.322-1.382 2.318-1.83 1.017-.447 2.206-.671 3.568-.671 2.013 0 3.619.509 4.819 1.525 1.2.997 1.86 2.349 1.982 4.057h-4.086c-.061-.671-.346-1.2-.854-1.586-.488-.407-1.149-.61-1.983-.61-.772 0-1.372.142-1.799.427-.407.284-.61.681-.61 1.189 0 .569.285 1.007.854 1.312.569.284 1.454.579 2.653.884 1.22.305 2.227.62 3.02.945a5.16 5.16 0 012.043 1.525c.59.671.895 1.566.915 2.684 0 .976-.275 1.851-.824 2.623-.528.773-1.301 1.383-2.317 1.83-.997.427-2.166.641-3.508.641z" fill="#808E99"/>
        <g clip-path="url(#tabs-do-04__clip3)">
          <path fill="#AEBFFF" d="M541.188 480.496V358.501H545v121.995z"/>
        </g>
        <path fill="#fff" d="M277.691 480.496h263.496v121.995H277.691z"/>
        <path d="M335.958 552.706c-1.993 0-3.823-.467-5.49-1.403a10.507 10.507 0 01-3.965-3.873c-.976-1.667-1.464-3.548-1.464-5.642 0-2.074.488-3.935 1.464-5.582a10.441 10.441 0 013.965-3.903c1.667-.936 3.497-1.403 5.49-1.403 2.013 0 3.843.467 5.49 1.403a10.223 10.223 0 013.934 3.903c.976 1.647 1.464 3.508 1.464 5.582 0 2.094-.488 3.975-1.464 5.642a10.285 10.285 0 01-3.934 3.873c-1.668.936-3.498 1.403-5.49 1.403zm0-3.812c1.281 0 2.409-.285 3.385-.854.976-.59 1.739-1.423 2.288-2.501.549-1.078.823-2.328.823-3.751 0-1.424-.274-2.664-.823-3.721-.549-1.078-1.312-1.901-2.288-2.471-.976-.569-2.104-.854-3.385-.854-1.281 0-2.42.285-3.416.854-.976.57-1.738 1.393-2.287 2.471-.549 1.057-.824 2.297-.824 3.721 0 1.423.275 2.673.824 3.751.549 1.078 1.311 1.911 2.287 2.501.996.569 2.135.854 3.416.854zm18.334-10.675a6.047 6.047 0 012.135-2.104c.895-.508 1.911-.763 3.05-.763v4.484h-1.128c-1.342 0-2.359.315-3.05.945-.671.63-1.007 1.728-1.007 3.294v8.418h-4.27v-16.897h4.27v2.623zm14.679-2.897c1.261 0 2.369.254 3.325.762.955.488 1.707 1.129 2.256 1.922v-2.41h4.301v17.019c0 1.565-.315 2.958-.946 4.178-.63 1.24-1.575 2.216-2.836 2.928-1.261.732-2.786 1.098-4.575 1.098-2.399 0-4.371-.559-5.917-1.678-1.525-1.118-2.389-2.643-2.592-4.574h4.239c.224.772.702 1.382 1.434 1.83.752.467 1.657.701 2.714.701 1.24 0 2.247-.376 3.02-1.128.772-.732 1.158-1.851 1.158-3.355v-2.623c-.549.793-1.311 1.454-2.287 1.982-.956.529-2.054.793-3.294.793a7.26 7.26 0 01-3.904-1.098c-1.179-.732-2.114-1.759-2.806-3.08-.67-1.342-1.006-2.877-1.006-4.605 0-1.708.336-3.223 1.006-4.545.692-1.321 1.617-2.338 2.776-3.05 1.179-.711 2.491-1.067 3.934-1.067zm5.581 8.723c0-1.037-.203-1.922-.61-2.654-.406-.752-.955-1.321-1.646-1.708a4.327 4.327 0 00-2.227-.61c-.793 0-1.525.193-2.196.58-.671.386-1.22.955-1.647 1.708-.406.732-.61 1.606-.61 2.623 0 1.016.204 1.911.61 2.683.427.753.976 1.332 1.647 1.739.692.407 1.424.61 2.196.61.793 0 1.535-.193 2.227-.58a4.428 4.428 0 001.646-1.708c.407-.752.61-1.647.61-2.683zm7.373-.061c0-1.708.336-3.223 1.006-4.545.692-1.321 1.617-2.338 2.776-3.05 1.179-.711 2.491-1.067 3.934-1.067 1.261 0 2.359.254 3.294.762.956.509 1.718 1.149 2.287 1.922v-2.41h4.301v16.897h-4.301v-2.471c-.549.793-1.311 1.454-2.287 1.983-.956.508-2.064.762-3.324.762-1.424 0-2.725-.366-3.904-1.098-1.159-.732-2.084-1.759-2.776-3.08-.67-1.342-1.006-2.877-1.006-4.605zm13.297.061c0-1.037-.203-1.922-.61-2.654-.406-.752-.955-1.321-1.646-1.708a4.327 4.327 0 00-2.227-.61c-.793 0-1.525.193-2.196.58-.671.386-1.22.955-1.647 1.708-.406.732-.61 1.606-.61 2.623 0 1.016.204 1.911.61 2.683.427.753.976 1.332 1.647 1.739.692.407 1.424.61 2.196.61.793 0 1.535-.193 2.227-.58a4.428 4.428 0 001.646-1.708c.407-.752.61-1.647.61-2.683zm17.834-8.693c2.013 0 3.64.641 4.88 1.922 1.24 1.26 1.86 3.029 1.86 5.307v9.912h-4.27v-9.333c0-1.342-.335-2.369-1.006-3.08-.671-.732-1.586-1.098-2.745-1.098-1.179 0-2.114.366-2.806 1.098-.671.711-1.006 1.738-1.006 3.08v9.333h-4.27v-16.897h4.27v2.105a5.79 5.79 0 012.165-1.708 6.712 6.712 0 012.928-.641zm12.966-1.768c-.752 0-1.383-.234-1.891-.702-.488-.488-.732-1.088-.732-1.799 0-.712.244-1.302.732-1.769.508-.488 1.139-.732 1.891-.732s1.372.244 1.86.732c.509.467.763 1.057.763 1.769 0 .711-.254 1.311-.763 1.799-.488.468-1.108.702-1.86.702zm2.104 2.012v16.897h-4.269v-16.897h4.269zm10.685 17.171c-1.383 0-2.623-.244-3.721-.732-1.098-.508-1.972-1.189-2.623-2.043a5.204 5.204 0 01-1.037-2.837h4.3c.082.651.397 1.19.946 1.617.569.427 1.271.64 2.104.64.814 0 1.444-.162 1.891-.488.468-.325.702-.742.702-1.25 0-.549-.285-.956-.854-1.22-.549-.285-1.434-.59-2.654-.915-1.26-.305-2.297-.62-3.111-.945a5.53 5.53 0 01-2.073-1.495c-.57-.671-.854-1.576-.854-2.714 0-.936.264-1.79.793-2.562.549-.773 1.321-1.383 2.317-1.83 1.017-.447 2.207-.671 3.569-.671 2.013 0 3.619.508 4.819 1.525 1.199.996 1.86 2.348 1.982 4.056h-4.087c-.061-.671-.345-1.199-.854-1.586-.488-.406-1.149-.61-1.982-.61-.773 0-1.373.143-1.8.427-.406.285-.61.681-.61 1.19 0 .569.285 1.006.854 1.311.57.285 1.454.58 2.654.885 1.22.305 2.226.62 3.019.945a5.16 5.16 0 012.044 1.525c.589.671.894 1.566.914 2.684 0 .976-.274 1.85-.823 2.623-.529.772-1.301 1.382-2.318 1.83-.996.427-2.165.64-3.507.64zm31.137-17.415c2.073 0 3.741.641 5.001 1.922 1.281 1.26 1.922 3.029 1.922 5.307v9.912h-4.27v-9.333c0-1.322-.336-2.328-1.007-3.019-.671-.712-1.585-1.068-2.744-1.068-1.159 0-2.085.356-2.776 1.068-.671.691-1.006 1.697-1.006 3.019v9.333h-4.27v-9.333c0-1.322-.336-2.328-1.007-3.019-.671-.712-1.585-1.068-2.744-1.068-1.18 0-2.115.356-2.806 1.068-.671.691-1.007 1.697-1.007 3.019v9.333h-4.27v-16.897h4.27v2.044a5.715 5.715 0 012.105-1.678c.874-.406 1.83-.61 2.867-.61 1.321 0 2.5.285 3.537.854a5.787 5.787 0 012.41 2.379c.549-.976 1.342-1.758 2.379-2.348a6.897 6.897 0 013.416-.885zm17.44 17.415c-1.382 0-2.623-.244-3.721-.732-1.098-.508-1.972-1.189-2.622-2.043a5.196 5.196 0 01-1.037-2.837h4.3c.081.651.396 1.19.945 1.617.57.427 1.271.64 2.105.64.813 0 1.443-.162 1.891-.488.467-.325.701-.742.701-1.25 0-.549-.285-.956-.854-1.22-.549-.285-1.433-.59-2.653-.915-1.261-.305-2.298-.62-3.111-.945a5.54 5.54 0 01-2.074-1.495c-.569-.671-.854-1.576-.854-2.714 0-.936.264-1.79.793-2.562.549-.773 1.322-1.383 2.318-1.83 1.017-.447 2.206-.671 3.568-.671 2.013 0 3.619.508 4.819 1.525 1.2.996 1.86 2.348 1.982 4.056h-4.086c-.061-.671-.346-1.199-.854-1.586-.488-.406-1.149-.61-1.983-.61-.772 0-1.372.143-1.799.427-.407.285-.61.681-.61 1.19 0 .569.285 1.006.854 1.311.569.285 1.454.58 2.653.885 1.22.305 2.227.62 3.02.945a5.15 5.15 0 012.043 1.525c.59.671.895 1.566.915 2.684a4.42 4.42 0 01-.824 2.623c-.528.772-1.301 1.382-2.317 1.83-.997.427-2.166.64-3.508.64z" fill="#808E99"/>
        <g clip-path="url(#tabs-do-04__clip4)">
          <path fill="#AEBFFF" d="M541.188 602.49V480.495H545V602.49z"/>
        </g>
      </g>
      <path fill="#fff" d="M545 236.997h678v367H545z"/>
      <path fill-rule="evenodd" clip-rule="evenodd" d="M599.495 285.796a4.93 4.93 0 00-4.929 4.929v18.484a4.929 4.929 0 004.929 4.929h300.671a4.928 4.928 0 004.929-4.929v-18.484a4.929 4.929 0 00-4.929-4.929H599.495zm-4.948 62.846a4.93 4.93 0 014.929-4.929h289.362a4.93 4.93 0 014.929 4.929v1.232a4.93 4.93 0 01-4.929 4.929H599.476a4.93 4.93 0 01-4.929-4.929v-1.232zm0 113.368a4.929 4.929 0 014.929-4.929h289.362a4.929 4.929 0 014.929 4.929v1.232a4.93 4.93 0 01-4.929 4.929H599.476a4.93 4.93 0 01-4.929-4.929v-1.232zm292.28-85.026a4.93 4.93 0 014.929-4.929h276.254c2.72 0 4.93 2.207 4.93 4.929v1.232a4.931 4.931 0 01-4.93 4.929H891.756a4.93 4.93 0 01-4.929-4.929v-1.232zm0 56.684a4.929 4.929 0 014.929-4.929h276.254a4.93 4.93 0 014.93 4.929v1.232a4.931 4.931 0 01-4.93 4.929H891.756a4.93 4.93 0 01-4.929-4.929v-1.232zm-292.28-28.342a4.93 4.93 0 014.929-4.929h289.362a4.93 4.93 0 014.929 4.929v1.232a4.93 4.93 0 01-4.929 4.929H599.476a4.93 4.93 0 01-4.929-4.929v-1.232zm0-28.342a4.93 4.93 0 014.929-4.929h87.311a4.929 4.929 0 014.929 4.929v1.232a4.929 4.929 0 01-4.929 4.929h-87.311a4.93 4.93 0 01-4.929-4.929v-1.232zm0 113.368a4.929 4.929 0 014.929-4.929h87.311a4.928 4.928 0 014.929 4.929v1.232a4.929 4.929 0 01-4.929 4.929h-87.311a4.93 4.93 0 01-4.929-4.929v-1.232zm313.1-85.009a4.928 4.928 0 014.929-4.929h87.311a4.931 4.931 0 014.933 4.929v1.232a4.932 4.932 0 01-4.933 4.929h-87.311a4.929 4.929 0 01-4.929-4.929v-1.232zm-313.1 28.325a4.929 4.929 0 014.929-4.929h120.472a4.928 4.928 0 014.929 4.929v1.232a4.929 4.929 0 01-4.929 4.929H599.476a4.93 4.93 0 01-4.929-4.929v-1.232zm310.018-85.009a4.93 4.93 0 014.929-4.929h120.476c2.72 0 4.93 2.207 4.93 4.929v1.232a4.931 4.931 0 01-4.93 4.929H909.494a4.93 4.93 0 01-4.929-4.929v-1.232zm-.771 113.368a4.93 4.93 0 014.929-4.93H1029.2c2.72 0 4.92 2.207 4.92 4.93v1.232c0 2.722-2.2 4.929-4.92 4.929H908.723a4.93 4.93 0 01-4.929-4.929v-1.232zm-192.025-85.043a4.929 4.929 0 014.929-4.929h145.15a4.93 4.93 0 014.929 4.929v1.232a4.93 4.93 0 01-4.929 4.929h-145.15a4.929 4.929 0 01-4.929-4.929v-1.232zm-3.086 113.368a4.928 4.928 0 014.929-4.929h145.15a4.929 4.929 0 014.929 4.929v1.232a4.93 4.93 0 01-4.929 4.929h-145.15a4.929 4.929 0 01-4.929-4.929v-1.232zm310.017-85.009a4.93 4.93 0 014.93-4.929h145.15a4.93 4.93 0 014.93 4.929v1.232a4.931 4.931 0 01-4.93 4.929h-145.15a4.931 4.931 0 01-4.93-4.929v-1.232zm-276.856 28.308a4.93 4.93 0 014.929-4.929h118.159a4.929 4.929 0 014.929 4.929v1.232a4.929 4.929 0 01-4.929 4.929H746.773a4.93 4.93 0 01-4.929-4.929v-1.232zm303.846-85.009a4.931 4.931 0 014.93-4.929h118.16c2.72 0 4.93 2.207 4.93 4.929v1.232a4.931 4.931 0 01-4.93 4.929h-118.16a4.931 4.931 0 01-4.93-4.929v-1.232z" fill="#E0E7FF"/>
    </g>
  </g>
  <defs>
    <clipPath id="tabs-do-04__clip0">
      <rect x="268" y="236.506" width="955" height="365.984" rx="9.858" fill="#fff"/>
    </clipPath>
    <clipPath id="tabs-do-04__clip1">
      <path fill="#fff" transform="translate(277.691 236.506)" d="M0 0h267.309v365.984H0z"/>
    </clipPath>
    <clipPath id="tabs-do-04__clip2">
      <path fill="#fff" transform="rotate(-90 449.844 -91.344)" d="M0 0h121.995v3.812H0z"/>
    </clipPath>
    <clipPath id="tabs-do-04__clip3">
      <path fill="#fff" transform="rotate(-90 510.842 -30.346)" d="M0 0h121.995v3.812H0z"/>
    </clipPath>
    <clipPath id="tabs-do-04__clip4">
      <path fill="#fff" transform="rotate(-90 571.839 30.651)" d="M0 0h121.995v3.812H0z"/>
    </clipPath>
    <filter id="tabs-do-04__filter0_d" x="252" y="228.506" width="987" height="397.984" filterUnits="userSpaceOnUse" color-interpolation-filters="sRGB">
      <feFlood flood-opacity="0" result="BackgroundImageFix"/>
      <feColorMatrix in="SourceAlpha" values="0 0 0 0 0 0 0 0 0 0 0 0 0 0 0 0 0 0 127 0"/>
      <feOffset dy="8"/>
      <feGaussianBlur stdDeviation="8"/>
      <feColorMatrix values="0 0 0 0 0.0392157 0 0 0 0 0.0392157 0 0 0 0 0.0392157 0 0 0 0.08 0"/>
      <feBlend in2="BackgroundImageFix" result="effect1_dropShadow"/>
      <feBlend in="SourceGraphic" in2="effect1_dropShadow" result="shape"/>
    </filter>
  </defs>
</svg>
