<svg
  id="nksvg"
  style="width: 100%; height: 100%"
  width="1490"
  height="838"
  viewBox="0 0 1490 838"
  fill="none"
  xmlns="http://www.w3.org/2000/svg"
  class="css-0"
>
  <path
    style="fill: var(--color-illustrationInterface020)"
    d="M0 0H1490V838H0V0Z"
  ></path>
  <path
    style="fill: var(--color-illustrationInterface010)"
    d="M460 543.448C460 534.364 467.364 527 476.448 527H1013.55C1022.64 527 1030 534.364 1030 543.448V635.552C1030 644.636 1022.64 652 1013.55 652H476.448C467.364 652 460 644.636 460 635.552V543.448Z"
  ></path>
  <path
    style="fill: var(--color-illustrationInterface010)"
    d="M460 269.448C460 260.364 467.364 253 476.448 253H1013.55C1022.64 253 1030 260.364 1030 269.448V361.552C1030 370.636 1022.64 378 1013.55 378H476.448C467.364 378 460 370.636 460 361.552V269.448Z"
  ></path>
  <path
    style="fill: var(--color-illustrationInterface060)"
    d="M495.817 329V301.416H499.679L509.61 320.646L519.461 301.416H523.363V329H520.052V307.327L510.831 325.06H508.349L499.128 307.366V329H495.817Z"
  ></path>
  <path
    style="fill: var(--color-illustrationInterface060)"
    d="M535.487 329.473C533.858 329.473 532.505 329.197 531.428 328.646C530.351 328.094 529.55 327.358 529.025 326.439C528.499 325.519 528.236 324.521 528.236 323.444C528.236 321.447 528.998 319.91 530.522 318.833C532.046 317.756 534.121 317.218 536.748 317.218H542.029V316.981C542.029 315.274 541.582 313.986 540.689 313.119C539.796 312.226 538.6 311.779 537.103 311.779C535.816 311.779 534.699 312.108 533.753 312.765C532.834 313.395 532.256 314.328 532.019 315.563H528.63C528.762 314.144 529.235 312.949 530.049 311.977C530.89 311.004 531.928 310.269 533.162 309.77C534.397 309.244 535.711 308.982 537.103 308.982C539.835 308.982 541.884 309.717 543.25 311.188C544.643 312.633 545.339 314.564 545.339 316.981V329H542.383L542.186 325.493C541.635 326.596 540.82 327.542 539.743 328.33C538.692 329.092 537.274 329.473 535.487 329.473ZM536 326.675C537.261 326.675 538.338 326.347 539.231 325.69C540.15 325.033 540.847 324.179 541.319 323.129C541.792 322.078 542.029 320.974 542.029 319.818V319.779H537.024C535.08 319.779 533.701 320.121 532.886 320.804C532.098 321.46 531.704 322.288 531.704 323.286C531.704 324.311 532.072 325.138 532.808 325.769C533.569 326.373 534.633 326.675 536 326.675Z"
  ></path>
  <path
    style="fill: var(--color-illustrationInterface060)"
    d="M550.305 329V309.454H553.3L553.576 313.198C554.18 311.911 555.099 310.886 556.334 310.124C557.569 309.363 559.092 308.982 560.905 308.982V312.449H559.999C558.843 312.449 557.779 312.66 556.807 313.08C555.835 313.474 555.06 314.157 554.482 315.129C553.904 316.101 553.615 317.441 553.615 319.149V329H550.305Z"
  ></path>
  <path
    style="fill: var(--color-illustrationInterface060)"
    d="M566.748 337.67L571.595 327.109H570.453L562.69 309.454H566.276L572.738 324.665L579.595 309.454H583.023L570.216 337.67H566.748Z"
  ></path>
  <path
    style="fill: var(--color-illustrationInterface060)"
    d="M595.409 329L605.576 301.416H609.083L619.211 329H615.704L613.182 321.907H601.439L598.877 329H595.409ZM602.424 319.227H612.197L607.31 305.593L602.424 319.227Z"
  ></path>
  <path
    style="fill: var(--color-illustrationInterface060)"
    d="M623.115 329V309.454H626.11L626.307 312.962C626.937 311.727 627.843 310.755 629.026 310.046C630.208 309.336 631.548 308.982 633.045 308.982C635.357 308.982 637.196 309.691 638.562 311.11C639.954 312.502 640.651 314.656 640.651 317.572V329H637.34V317.927C637.34 313.855 635.659 311.819 632.296 311.819C630.615 311.819 629.21 312.436 628.08 313.671C626.977 314.879 626.425 316.613 626.425 318.873V329H623.115Z"
  ></path>
  <path
    style="fill: var(--color-illustrationInterface060)"
    d="M645.666 329V309.454H648.661L648.858 312.962C649.488 311.727 650.395 310.755 651.577 310.046C652.759 309.336 654.099 308.982 655.596 308.982C657.908 308.982 659.747 309.691 661.113 311.11C662.505 312.502 663.202 314.656 663.202 317.572V329H659.892V317.927C659.892 313.855 658.21 311.819 654.847 311.819C653.166 311.819 651.761 312.436 650.631 313.671C649.528 314.879 648.976 316.613 648.976 318.873V329H645.666Z"
  ></path>
  <path
    style="fill: var(--color-illustrationInterface060)"
    d="M501.492 601.465L493.926 573.841H497.472L503.423 597.524L510.201 573.841H513.866L520.446 597.524L526.476 573.841H530.022L522.299 601.426H518.516L511.935 578.648L505.196 601.426L501.492 601.465Z"
  ></path>
  <path
    style="fill: var(--color-illustrationInterface060)"
    d="M535.728 577.545C535.071 577.545 534.52 577.335 534.073 576.915C533.653 576.468 533.443 575.916 533.443 575.26C533.443 574.629 533.653 574.104 534.073 573.683C534.52 573.263 535.071 573.053 535.728 573.053C536.359 573.053 536.897 573.263 537.344 573.683C537.79 574.104 538.014 574.629 538.014 575.26C538.014 575.916 537.79 576.468 537.344 576.915C536.897 577.335 536.359 577.545 535.728 577.545ZM534.073 601.426V581.88H537.383V601.426H534.073Z"
  ></path>
  <path
    style="fill: var(--color-illustrationInterface060)"
    d="M543.147 601.426V573.053H546.457V601.426H543.147Z"
  ></path>
  <path
    style="fill: var(--color-illustrationInterface060)"
    d="M551.882 601.426V573.053H555.193V601.426H551.882Z"
  ></path>
  <path
    style="fill: var(--color-illustrationInterface060)"
    d="M562.628 577.545C561.971 577.545 561.419 577.335 560.973 576.915C560.552 576.468 560.342 575.916 560.342 575.26C560.342 574.629 560.552 574.104 560.973 573.683C561.419 573.263 561.971 573.053 562.628 573.053C563.258 573.053 563.797 573.263 564.244 573.683C564.69 574.104 564.913 574.629 564.913 575.26C564.913 575.916 564.69 576.468 564.244 576.915C563.797 577.335 563.258 577.545 562.628 577.545ZM560.973 601.426V581.88H564.283V601.426H560.973Z"
  ></path>
  <path
    style="fill: var(--color-illustrationInterface060)"
    d="M576.549 601.898C574.92 601.898 573.567 601.623 572.49 601.071C571.413 600.519 570.611 599.784 570.086 598.864C569.56 597.945 569.298 596.946 569.298 595.869C569.298 593.873 570.06 592.336 571.583 591.259C573.107 590.181 575.182 589.643 577.81 589.643H583.09V589.406C583.09 587.699 582.643 586.412 581.75 585.545C580.857 584.651 579.662 584.205 578.164 584.205C576.877 584.205 575.76 584.533 574.815 585.19C573.895 585.82 573.317 586.753 573.081 587.988H569.692C569.823 586.569 570.296 585.374 571.11 584.402C571.951 583.43 572.989 582.694 574.224 582.195C575.458 581.67 576.772 581.407 578.164 581.407C580.896 581.407 582.946 582.143 584.312 583.614C585.704 585.059 586.4 586.99 586.4 589.406V601.426H583.445L583.248 597.918C582.696 599.022 581.882 599.967 580.804 600.756C579.754 601.517 578.335 601.898 576.549 601.898ZM577.061 599.101C578.322 599.101 579.399 598.772 580.292 598.115C581.212 597.459 581.908 596.605 582.381 595.554C582.854 594.503 583.09 593.4 583.09 592.244V592.204H578.085C576.141 592.204 574.762 592.546 573.948 593.229C573.16 593.886 572.766 594.713 572.766 595.712C572.766 596.736 573.133 597.564 573.869 598.194C574.631 598.798 575.695 599.101 577.061 599.101Z"
  ></path>
  <path
    style="fill: var(--color-illustrationInterface060)"
    d="M591.366 601.426V581.88H594.361L594.597 584.717C595.228 583.666 596.069 582.852 597.119 582.274C598.17 581.696 599.352 581.407 600.666 581.407C602.216 581.407 603.543 581.722 604.646 582.353C605.776 582.983 606.643 583.942 607.247 585.229C607.93 584.047 608.863 583.115 610.045 582.432C611.253 581.748 612.554 581.407 613.946 581.407C616.284 581.407 618.149 582.116 619.542 583.535C620.934 584.927 621.63 587.081 621.63 589.998V601.426H618.36V590.352C618.36 588.329 617.952 586.806 617.138 585.781C616.324 584.757 615.155 584.244 613.631 584.244C612.055 584.244 610.741 584.862 609.69 586.096C608.666 587.305 608.153 589.039 608.153 591.298V601.426H604.843V590.352C604.843 588.329 604.436 586.806 603.622 585.781C602.807 584.757 601.638 584.244 600.114 584.244C598.564 584.244 597.264 584.862 596.213 586.096C595.189 587.305 594.676 589.039 594.676 591.298V601.426H591.366Z"
  ></path>
  <path
    style="fill: var(--color-illustrationInterface060)"
    d="M634.104 601.898C631.766 601.898 629.822 601.307 628.272 600.125C626.722 598.943 625.815 597.34 625.553 595.317H628.942C629.152 596.342 629.69 597.235 630.557 597.997C631.45 598.733 632.646 599.101 634.143 599.101C635.536 599.101 636.56 598.812 637.217 598.234C637.874 597.629 638.202 596.92 638.202 596.106C638.202 594.923 637.769 594.135 636.902 593.741C636.061 593.347 634.866 592.992 633.316 592.677C632.265 592.467 631.214 592.165 630.163 591.771C629.112 591.377 628.232 590.825 627.523 590.116C626.814 589.38 626.459 588.421 626.459 587.239C626.459 585.532 627.089 584.139 628.35 583.062C629.638 581.959 631.372 581.407 633.552 581.407C635.628 581.407 637.322 581.932 638.636 582.983C639.975 584.008 640.75 585.479 640.961 587.397H637.69C637.558 586.398 637.125 585.623 636.389 585.072C635.68 584.494 634.721 584.205 633.513 584.205C632.331 584.205 631.411 584.454 630.754 584.954C630.124 585.453 629.808 586.109 629.808 586.924C629.808 587.712 630.216 588.329 631.03 588.776C631.871 589.223 633 589.604 634.419 589.919C635.628 590.181 636.77 590.51 637.847 590.904C638.951 591.272 639.844 591.837 640.527 592.598C641.236 593.334 641.591 594.411 641.591 595.83C641.617 597.59 640.947 599.048 639.581 600.204C638.242 601.334 636.416 601.898 634.104 601.898Z"
  ></path>
  <path
    style="fill: var(--color-illustrationInterface060)"
    d="M466.517 493.828H474.62V497H462.586V473.036H466.517V493.828Z"
  ></path>
  <path
    style="fill: var(--color-illustrationInterface060)"
    d="M476.597 487.414C476.597 485.506 476.988 483.817 477.769 482.345C478.574 480.874 479.654 479.736 481.01 478.932C482.39 478.104 483.907 477.691 485.562 477.691C487.056 477.691 488.355 477.989 489.458 478.587C490.584 479.162 491.481 479.886 492.148 480.759V478.001H496.113V497H492.148V494.172C491.481 495.069 490.573 495.816 489.424 496.414C488.274 497.011 486.964 497.31 485.493 497.31C483.861 497.31 482.367 496.896 481.01 496.069C479.654 495.218 478.574 494.046 477.769 492.552C476.988 491.035 476.597 489.322 476.597 487.414ZM492.148 487.483C492.148 486.173 491.872 485.035 491.32 484.07C490.791 483.104 490.09 482.368 489.217 481.863C488.343 481.357 487.401 481.104 486.389 481.104C485.378 481.104 484.435 481.357 483.562 481.863C482.688 482.345 481.976 483.07 481.424 484.035C480.895 484.977 480.631 486.104 480.631 487.414C480.631 488.724 480.895 489.874 481.424 490.862C481.976 491.851 482.688 492.609 483.562 493.138C484.458 493.644 485.401 493.897 486.389 493.897C487.401 493.897 488.343 493.644 489.217 493.138C490.09 492.632 490.791 491.897 491.32 490.931C491.872 489.943 492.148 488.793 492.148 487.483Z"
  ></path>
  <path
    style="fill: var(--color-illustrationInterface060)"
    d="M508.172 497.31C506.678 497.31 505.333 497.046 504.138 496.517C502.965 495.965 502.034 495.23 501.345 494.31C500.655 493.368 500.287 492.322 500.241 491.173H504.31C504.379 491.977 504.758 492.655 505.448 493.207C506.161 493.736 507.046 494 508.103 494C509.206 494 510.057 493.793 510.655 493.379C511.275 492.943 511.586 492.391 511.586 491.724C511.586 491.012 511.241 490.483 510.551 490.138C509.885 489.793 508.816 489.414 507.344 489C505.919 488.609 504.758 488.23 503.862 487.862C502.965 487.495 502.184 486.931 501.517 486.173C500.874 485.414 500.552 484.414 500.552 483.173C500.552 482.162 500.851 481.242 501.448 480.415C502.046 479.564 502.896 478.897 504 478.415C505.126 477.932 506.413 477.691 507.862 477.691C510.022 477.691 511.758 478.242 513.068 479.346C514.402 480.426 515.114 481.909 515.206 483.794H511.275C511.206 482.943 510.861 482.265 510.241 481.759C509.62 481.254 508.781 481.001 507.724 481.001C506.689 481.001 505.896 481.196 505.345 481.587C504.793 481.978 504.517 482.495 504.517 483.139C504.517 483.644 504.701 484.07 505.069 484.414C505.437 484.759 505.885 485.035 506.413 485.242C506.942 485.426 507.724 485.667 508.758 485.966C510.137 486.334 511.264 486.713 512.137 487.104C513.034 487.472 513.804 488.023 514.447 488.759C515.091 489.494 515.424 490.471 515.447 491.69C515.447 492.77 515.149 493.736 514.551 494.586C513.953 495.437 513.103 496.103 511.999 496.586C510.919 497.069 509.643 497.31 508.172 497.31Z"
  ></path>
  <path
    style="fill: var(--color-illustrationInterface060)"
    d="M524.281 481.208V491.724C524.281 492.437 524.442 492.954 524.763 493.276C525.108 493.575 525.683 493.724 526.487 493.724H528.901V497H525.798C524.028 497 522.672 496.586 521.729 495.758C520.787 494.931 520.315 493.586 520.315 491.724V481.208H518.074V478.001H520.315V473.277H524.281V478.001H528.901V481.208H524.281Z"
  ></path>
  <path
    style="fill: var(--color-illustrationInterface060)"
    d="M551.067 477.691C552.561 477.691 553.894 478.001 555.066 478.622C556.262 479.242 557.193 480.162 557.859 481.38C558.526 482.598 558.859 484.07 558.859 485.794V497H554.963V486.38C554.963 484.679 554.538 483.38 553.687 482.483C552.837 481.564 551.676 481.104 550.205 481.104C548.733 481.104 547.561 481.564 546.688 482.483C545.837 483.38 545.412 484.679 545.412 486.38V497H541.481V478.001H545.412V480.173C546.055 479.392 546.871 478.782 547.86 478.346C548.871 477.909 549.94 477.691 551.067 477.691Z"
  ></path>
  <path
    style="fill: var(--color-illustrationInterface060)"
    d="M562.563 487.414C562.563 485.506 562.954 483.817 563.735 482.345C564.54 480.874 565.62 479.736 566.977 478.932C568.356 478.104 569.873 477.691 571.528 477.691C573.022 477.691 574.321 477.989 575.424 478.587C576.551 479.162 577.447 479.886 578.114 480.759V478.001H582.079V497H578.114V494.172C577.447 495.069 576.539 495.816 575.39 496.414C574.241 497.011 572.93 497.31 571.459 497.31C569.827 497.31 568.333 496.896 566.977 496.069C565.62 495.218 564.54 494.046 563.735 492.552C562.954 491.035 562.563 489.322 562.563 487.414ZM578.114 487.483C578.114 486.173 577.838 485.035 577.286 484.07C576.758 483.104 576.057 482.368 575.183 481.863C574.309 481.357 573.367 481.104 572.356 481.104C571.344 481.104 570.402 481.357 569.528 481.863C568.655 482.345 567.942 483.07 567.39 484.035C566.862 484.977 566.597 486.104 566.597 487.414C566.597 488.724 566.862 489.874 567.39 490.862C567.942 491.851 568.655 492.609 569.528 493.138C570.425 493.644 571.367 493.897 572.356 493.897C573.367 493.897 574.309 493.644 575.183 493.138C576.057 492.632 576.758 491.897 577.286 490.931C577.838 489.943 578.114 488.793 578.114 487.483Z"
  ></path>
  <path
    style="fill: var(--color-illustrationInterface060)"
    d="M610.241 477.691C611.735 477.691 613.068 478.001 614.241 478.622C615.436 479.242 616.367 480.162 617.034 481.38C617.723 482.598 618.068 484.07 618.068 485.794V497H614.172V486.38C614.172 484.679 613.746 483.38 612.896 482.483C612.045 481.564 610.884 481.104 609.413 481.104C607.942 481.104 606.77 481.564 605.896 482.483C605.046 483.38 604.62 484.679 604.62 486.38V497H600.724V486.38C600.724 484.679 600.299 483.38 599.448 482.483C598.598 481.564 597.437 481.104 595.966 481.104C594.495 481.104 593.322 481.564 592.449 482.483C591.598 483.38 591.173 484.679 591.173 486.38V497H587.242V478.001H591.173V480.173C591.817 479.392 592.633 478.782 593.621 478.346C594.61 477.909 595.667 477.691 596.793 477.691C598.31 477.691 599.667 478.012 600.862 478.656C602.057 479.3 602.977 480.231 603.621 481.449C604.195 480.3 605.092 479.392 606.31 478.725C607.528 478.035 608.839 477.691 610.241 477.691Z"
  ></path>
  <path
    style="fill: var(--color-illustrationInterface060)"
    d="M640.483 487.035C640.483 487.747 640.437 488.391 640.345 488.966H625.828C625.943 490.483 626.506 491.701 627.518 492.621C628.529 493.54 629.771 494 631.242 494C633.357 494 634.851 493.115 635.724 491.345H639.965C639.391 493.092 638.345 494.529 636.828 495.655C635.334 496.758 633.472 497.31 631.242 497.31C629.426 497.31 627.794 496.908 626.346 496.103C624.92 495.276 623.794 494.126 622.966 492.655C622.162 491.161 621.76 489.437 621.76 487.483C621.76 485.529 622.15 483.817 622.932 482.345C623.736 480.851 624.851 479.702 626.277 478.897C627.725 478.093 629.38 477.691 631.242 477.691C633.035 477.691 634.632 478.081 636.035 478.863C637.437 479.644 638.529 480.748 639.31 482.173C640.092 483.575 640.483 485.196 640.483 487.035ZM636.379 485.794C636.356 484.345 635.839 483.184 634.828 482.311C633.816 481.437 632.564 481.001 631.069 481.001C629.713 481.001 628.552 481.437 627.587 482.311C626.621 483.162 626.047 484.322 625.863 485.794H636.379Z"
  ></path>
  <path
    style="fill: var(--color-illustrationInterface060)"
    d="M476.689 199.036V202.242H466.517V209.311H474.447V212.518H466.517V223H462.586V199.036H476.689Z"
  ></path>
  <path
    style="fill: var(--color-illustrationInterface060)"
    d="M482.331 201.484C481.619 201.484 481.021 201.243 480.538 200.76C480.056 200.277 479.814 199.679 479.814 198.967C479.814 198.254 480.056 197.657 480.538 197.174C481.021 196.691 481.619 196.45 482.331 196.45C483.021 196.45 483.607 196.691 484.09 197.174C484.573 197.657 484.814 198.254 484.814 198.967C484.814 199.679 484.573 200.277 484.09 200.76C483.607 201.243 483.021 201.484 482.331 201.484ZM484.262 204.001V223H480.331V204.001H484.262Z"
  ></path>
  <path
    style="fill: var(--color-illustrationInterface060)"
    d="M493.354 206.759C493.929 205.794 494.687 205.047 495.63 204.518C496.595 203.967 497.733 203.691 499.043 203.691V207.759H498.043C496.503 207.759 495.331 208.15 494.526 208.932C493.745 209.713 493.354 211.07 493.354 213V223H489.423V204.001H493.354V206.759Z"
  ></path>
  <path
    style="fill: var(--color-illustrationInterface060)"
    d="M509.553 223.31C508.058 223.31 506.714 223.046 505.518 222.517C504.346 221.966 503.415 221.23 502.725 220.31C502.036 219.368 501.668 218.322 501.622 217.173H505.691C505.76 217.977 506.139 218.655 506.829 219.207C507.541 219.736 508.426 220 509.484 220C510.587 220 511.438 219.793 512.035 219.379C512.656 218.943 512.966 218.391 512.966 217.724C512.966 217.012 512.621 216.483 511.932 216.138C511.265 215.793 510.196 215.414 508.725 215C507.3 214.61 506.139 214.23 505.242 213.863C504.346 213.495 503.564 212.932 502.898 212.173C502.254 211.414 501.932 210.414 501.932 209.173C501.932 208.162 502.231 207.242 502.829 206.415C503.426 205.564 504.277 204.898 505.38 204.415C506.507 203.932 507.794 203.691 509.242 203.691C511.403 203.691 513.139 204.242 514.449 205.346C515.782 206.426 516.495 207.909 516.587 209.794H512.656C512.587 208.943 512.242 208.265 511.621 207.759C511.001 207.254 510.162 207.001 509.104 207.001C508.07 207.001 507.277 207.196 506.725 207.587C506.173 207.978 505.898 208.495 505.898 209.139C505.898 209.644 506.081 210.07 506.449 210.414C506.817 210.759 507.265 211.035 507.794 211.242C508.323 211.426 509.104 211.667 510.139 211.966C511.518 212.334 512.644 212.713 513.518 213.104C514.414 213.472 515.184 214.023 515.828 214.759C516.472 215.495 516.805 216.472 516.828 217.69C516.828 218.77 516.529 219.736 515.932 220.586C515.334 221.437 514.483 222.103 513.38 222.586C512.3 223.069 511.024 223.31 509.553 223.31Z"
  ></path>
  <path
    style="fill: var(--color-illustrationInterface060)"
    d="M525.661 207.208V217.724C525.661 218.437 525.822 218.954 526.144 219.276C526.489 219.575 527.064 219.724 527.868 219.724H530.282V223H527.178C525.408 223 524.052 222.586 523.11 221.759C522.167 220.931 521.696 219.586 521.696 217.724V207.208H519.455V204.001H521.696V199.277H525.661V204.001H530.282V207.208H525.661Z"
  ></path>
  <path
    style="fill: var(--color-illustrationInterface060)"
    d="M552.447 203.691C553.941 203.691 555.275 204.001 556.447 204.622C557.642 205.242 558.573 206.162 559.24 207.38C559.907 208.598 560.24 210.07 560.24 211.794V223H556.344V212.38C556.344 210.679 555.918 209.38 555.068 208.484C554.217 207.564 553.056 207.104 551.585 207.104C550.114 207.104 548.942 207.564 548.068 208.484C547.218 209.38 546.792 210.679 546.792 212.38V223H542.862V204.001H546.792V206.173C547.436 205.392 548.252 204.783 549.241 204.346C550.252 203.909 551.321 203.691 552.447 203.691Z"
  ></path>
  <path
    style="fill: var(--color-illustrationInterface060)"
    d="M563.944 213.414C563.944 211.506 564.334 209.817 565.116 208.346C565.921 206.874 567.001 205.737 568.357 204.932C569.736 204.104 571.254 203.691 572.909 203.691C574.403 203.691 575.702 203.99 576.805 204.587C577.931 205.162 578.828 205.886 579.494 206.759V204.001H583.46V223H579.494V220.173C578.828 221.069 577.92 221.816 576.77 222.414C575.621 223.011 574.311 223.31 572.84 223.31C571.208 223.31 569.713 222.896 568.357 222.069C567.001 221.218 565.921 220.046 565.116 218.552C564.334 217.035 563.944 215.322 563.944 213.414ZM579.494 213.483C579.494 212.173 579.219 211.035 578.667 210.07C578.138 209.104 577.437 208.369 576.564 207.863C575.69 207.357 574.748 207.104 573.736 207.104C572.725 207.104 571.782 207.357 570.909 207.863C570.035 208.346 569.323 209.07 568.771 210.035C568.242 210.978 567.978 212.104 567.978 213.414C567.978 214.725 568.242 215.874 568.771 216.862C569.323 217.851 570.035 218.609 570.909 219.138C571.805 219.644 572.748 219.897 573.736 219.897C574.748 219.897 575.69 219.644 576.564 219.138C577.437 218.632 578.138 217.897 578.667 216.931C579.219 215.943 579.494 214.793 579.494 213.483Z"
  ></path>
  <path
    style="fill: var(--color-illustrationInterface060)"
    d="M611.621 203.691C613.116 203.691 614.449 204.001 615.621 204.622C616.817 205.242 617.747 206.162 618.414 207.38C619.104 208.598 619.449 210.07 619.449 211.794V223H615.552V212.38C615.552 210.679 615.127 209.38 614.276 208.484C613.426 207.564 612.265 207.104 610.794 207.104C609.323 207.104 608.15 207.564 607.277 208.484C606.426 209.38 606.001 210.679 606.001 212.38V223H602.105V212.38C602.105 210.679 601.679 209.38 600.829 208.484C599.978 207.564 598.818 207.104 597.346 207.104C595.875 207.104 594.703 207.564 593.829 208.484C592.979 209.38 592.554 210.679 592.554 212.38V223H588.623V204.001H592.554V206.173C593.197 205.392 594.013 204.783 595.002 204.346C595.99 203.909 597.048 203.691 598.174 203.691C599.691 203.691 601.047 204.012 602.243 204.656C603.438 205.3 604.357 206.231 605.001 207.449C605.576 206.3 606.472 205.392 607.691 204.725C608.909 204.035 610.219 203.691 611.621 203.691Z"
  ></path>
  <path
    style="fill: var(--color-illustrationInterface060)"
    d="M641.863 213.035C641.863 213.748 641.817 214.391 641.725 214.966H627.209C627.324 216.483 627.887 217.701 628.898 218.621C629.91 219.54 631.151 220 632.622 220C634.737 220 636.231 219.115 637.105 217.345H641.346C640.771 219.092 639.725 220.529 638.208 221.655C636.714 222.759 634.852 223.31 632.622 223.31C630.806 223.31 629.174 222.908 627.726 222.103C626.301 221.276 625.175 220.127 624.347 218.655C623.542 217.161 623.14 215.437 623.14 213.483C623.14 211.529 623.531 209.817 624.312 208.346C625.117 206.851 626.232 205.702 627.657 204.898C629.105 204.093 630.76 203.691 632.622 203.691C634.415 203.691 636.013 204.081 637.415 204.863C638.817 205.645 639.909 206.748 640.691 208.173C641.472 209.575 641.863 211.196 641.863 213.035ZM637.76 211.794C637.737 210.345 637.22 209.185 636.208 208.311C635.197 207.438 633.944 207.001 632.45 207.001C631.094 207.001 629.933 207.438 628.967 208.311C628.002 209.162 627.427 210.322 627.243 211.794H637.76Z"
  ></path>
</svg>
