<svg id="patterns-forms-passwords-error-state" style="width: 100%; height: 100%" width="1490" height="838" viewBox="0 0 1490 838" fill="none" xmlns="http://www.w3.org/2000/svg" class="css-0"><path style="fill:var(--color-illustrationInterface020)" d="M0 0H1490V838H0V0Z"></path><path style="fill:var(--color-illustrationInterface010)" d="M460 374.448C460 365.364 467.364 358 476.448 358H1019.55C1028.64 358 1036 365.364 1036 374.448V466.552C1036 475.636 1028.64 483 1019.55 483H476.448C467.364 483 460 475.636 460 466.552V374.448Z"></path><path style="fill:var(--color-inkNegative)" fill-rule="evenodd" clip-rule="evenodd" d="M1019.55 360.741H476.448C468.878 360.741 462.741 366.878 462.741 374.448V466.552C462.741 474.122 468.878 480.259 476.448 480.259H1019.55C1027.12 480.259 1033.26 474.122 1033.26 466.552V374.448C1033.26 366.878 1027.12 360.741 1019.55 360.741ZM476.448 358C467.364 358 460 365.364 460 374.448V466.552C460 475.636 467.364 483 476.448 483H1019.55C1028.64 483 1036 475.636 1036 466.552V374.448C1036 365.364 1028.64 358 1019.55 358H476.448Z"></path><path style="fill:var(--color-inkNegative)" d="M979.184 395.857C965.589 395.857 954.555 406.891 954.555 420.487C954.555 434.082 965.589 445.116 979.184 445.116C992.779 445.116 1003.81 434.082 1003.81 420.487C1003.81 406.891 992.779 395.857 979.184 395.857ZM981.647 432.801H976.721V427.875H981.647V432.801ZM981.647 422.949H976.721V408.172H981.647V422.949Z"></path><path style="fill:var(--color-inkNegative)" d="M462.129 527V506.851H468.749C470.323 506.851 471.618 507.11 472.635 507.628C473.652 508.146 474.4 508.847 474.88 509.729C475.379 510.612 475.629 511.61 475.629 512.723C475.629 513.817 475.389 514.805 474.909 515.688C474.429 516.57 473.681 517.28 472.664 517.818C471.647 518.336 470.342 518.595 468.749 518.595H464.547V527H462.129ZM464.547 516.551H468.692C470.304 516.551 471.445 516.215 472.117 515.544C472.808 514.853 473.153 513.913 473.153 512.723C473.153 511.514 472.808 510.574 472.117 509.902C471.445 509.211 470.304 508.866 468.692 508.866H464.547V516.551Z"></path><path style="fill:var(--color-inkNegative)" d="M478.654 527V506.275H481.072V527H478.654Z"></path><path style="fill:var(--color-inkNegative)" d="M491.453 527.345C490.091 527.345 488.882 527.038 487.827 526.424C486.771 525.791 485.937 524.918 485.322 523.805C484.728 522.692 484.43 521.377 484.43 519.861C484.43 518.365 484.728 517.06 485.322 515.947C485.917 514.815 486.743 513.942 487.798 513.327C488.873 512.694 490.11 512.378 491.511 512.378C492.893 512.378 494.082 512.694 495.08 513.327C496.097 513.942 496.874 514.757 497.412 515.774C497.949 516.791 498.218 517.885 498.218 519.055C498.218 519.267 498.208 519.478 498.189 519.689C498.189 519.9 498.189 520.14 498.189 520.408H486.819C486.877 521.502 487.126 522.414 487.568 523.143C488.028 523.853 488.594 524.39 489.266 524.755C489.957 525.119 490.686 525.302 491.453 525.302C492.451 525.302 493.286 525.071 493.958 524.611C494.629 524.15 495.119 523.527 495.426 522.74H497.815C497.431 524.064 496.692 525.167 495.598 526.05C494.524 526.914 493.142 527.345 491.453 527.345ZM491.453 514.421C490.302 514.421 489.275 514.776 488.374 515.486C487.491 516.177 486.982 517.194 486.848 518.537H495.829C495.771 517.252 495.33 516.244 494.505 515.515C493.679 514.786 492.662 514.421 491.453 514.421Z"></path><path style="fill:var(--color-inkNegative)" d="M506.172 527.345C504.982 527.345 503.994 527.144 503.207 526.741C502.42 526.338 501.835 525.801 501.451 525.129C501.067 524.457 500.876 523.728 500.876 522.941C500.876 521.483 501.432 520.36 502.545 519.574C503.658 518.787 505.174 518.393 507.093 518.393H510.95V518.221C510.95 516.973 510.624 516.033 509.971 515.4C509.319 514.747 508.446 514.421 507.352 514.421C506.412 514.421 505.596 514.661 504.905 515.141C504.234 515.601 503.811 516.283 503.639 517.185H501.163C501.259 516.148 501.605 515.275 502.2 514.565C502.814 513.855 503.572 513.318 504.474 512.953C505.375 512.569 506.335 512.378 507.352 512.378C509.348 512.378 510.844 512.915 511.842 513.989C512.859 515.045 513.368 516.455 513.368 518.221V527H511.209L511.065 524.438C510.662 525.244 510.067 525.935 509.28 526.511C508.513 527.067 507.477 527.345 506.172 527.345ZM506.546 525.302C507.467 525.302 508.254 525.062 508.906 524.582C509.578 524.102 510.086 523.479 510.432 522.711C510.777 521.943 510.95 521.138 510.95 520.293V520.264H507.294C505.874 520.264 504.867 520.514 504.272 521.013C503.696 521.493 503.409 522.097 503.409 522.826C503.409 523.575 503.677 524.179 504.214 524.64C504.771 525.081 505.548 525.302 506.546 525.302Z"></path><path style="fill:var(--color-inkNegative)" d="M522.464 527.345C520.756 527.345 519.336 526.914 518.204 526.05C517.072 525.186 516.41 524.016 516.218 522.538H518.693C518.847 523.287 519.24 523.939 519.873 524.496C520.526 525.033 521.399 525.302 522.493 525.302C523.51 525.302 524.258 525.091 524.738 524.668C525.218 524.227 525.457 523.709 525.457 523.114C525.457 522.25 525.141 521.675 524.508 521.387C523.894 521.099 523.02 520.84 521.888 520.61C521.121 520.456 520.353 520.236 519.586 519.948C518.818 519.66 518.175 519.257 517.657 518.739C517.139 518.202 516.88 517.501 516.88 516.638C516.88 515.39 517.34 514.373 518.261 513.587C519.202 512.781 520.468 512.378 522.061 512.378C523.577 512.378 524.815 512.761 525.774 513.529C526.753 514.277 527.319 515.352 527.472 516.753H525.083C524.987 516.024 524.671 515.457 524.133 515.055C523.615 514.632 522.915 514.421 522.032 514.421C521.169 514.421 520.497 514.604 520.017 514.968C519.557 515.333 519.326 515.812 519.326 516.407C519.326 516.983 519.624 517.434 520.219 517.76C520.833 518.086 521.658 518.365 522.694 518.595C523.577 518.787 524.412 519.027 525.198 519.315C526.004 519.583 526.657 519.996 527.156 520.552C527.674 521.09 527.933 521.876 527.933 522.913C527.952 524.198 527.463 525.263 526.465 526.108C525.486 526.933 524.153 527.345 522.464 527.345Z"></path><path style="fill:var(--color-inkNegative)" d="M537.806 527.345C536.443 527.345 535.234 527.038 534.179 526.424C533.124 525.791 532.289 524.918 531.675 523.805C531.08 522.692 530.783 521.377 530.783 519.861C530.783 518.365 531.08 517.06 531.675 515.947C532.27 514.815 533.095 513.942 534.15 513.327C535.225 512.694 536.463 512.378 537.863 512.378C539.245 512.378 540.435 512.694 541.433 513.327C542.45 513.942 543.227 514.757 543.764 515.774C544.301 516.791 544.57 517.885 544.57 519.055C544.57 519.267 544.56 519.478 544.541 519.689C544.541 519.9 544.541 520.14 544.541 520.408H533.172C533.229 521.502 533.479 522.414 533.92 523.143C534.381 523.853 534.947 524.39 535.618 524.755C536.309 525.119 537.038 525.302 537.806 525.302C538.804 525.302 539.638 525.071 540.31 524.611C540.982 524.15 541.471 523.527 541.778 522.74H544.167C543.783 524.064 543.044 525.167 541.951 526.05C540.876 526.914 539.494 527.345 537.806 527.345ZM537.806 514.421C536.654 514.421 535.628 514.776 534.726 515.486C533.843 516.177 533.335 517.194 533.2 518.537H542.181C542.123 517.252 541.682 516.244 540.857 515.515C540.032 514.786 539.015 514.421 537.806 514.421Z"></path><path style="fill:var(--color-inkNegative)" d="M561.811 527.345C560.449 527.345 559.24 527.038 558.184 526.424C557.129 525.791 556.294 524.918 555.68 523.805C555.085 522.692 554.788 521.377 554.788 519.861C554.788 518.365 555.085 517.06 555.68 515.947C556.275 514.815 557.1 513.942 558.156 513.327C559.23 512.694 560.468 512.378 561.869 512.378C563.25 512.378 564.44 512.694 565.438 513.327C566.455 513.942 567.232 514.757 567.769 515.774C568.307 516.791 568.575 517.885 568.575 519.055C568.575 519.267 568.566 519.478 568.547 519.689C568.547 519.9 568.547 520.14 568.547 520.408H557.177C557.235 521.502 557.484 522.414 557.925 523.143C558.386 523.853 558.952 524.39 559.624 524.755C560.314 525.119 561.044 525.302 561.811 525.302C562.809 525.302 563.644 525.071 564.315 524.611C564.987 524.15 565.476 523.527 565.783 522.74H568.172C567.789 524.064 567.05 525.167 565.956 526.05C564.881 526.914 563.5 527.345 561.811 527.345ZM561.811 514.421C560.66 514.421 559.633 514.776 558.731 515.486C557.849 516.177 557.34 517.194 557.206 518.537H566.186C566.129 517.252 565.687 516.244 564.862 515.515C564.037 514.786 563.02 514.421 561.811 514.421Z"></path><path style="fill:var(--color-inkNegative)" d="M571.78 527V512.723H573.968L574.112 515.285C574.572 514.383 575.234 513.673 576.098 513.155C576.961 512.637 577.94 512.378 579.034 512.378C580.722 512.378 582.066 512.896 583.063 513.932C584.08 514.949 584.589 516.522 584.589 518.653V527H582.171V518.912C582.171 515.937 580.943 514.45 578.487 514.45C577.259 514.45 576.232 514.901 575.407 515.803C574.601 516.686 574.198 517.952 574.198 519.602V527H571.78Z"></path><path style="fill:var(--color-inkNegative)" d="M593.894 527C592.589 527 591.562 526.683 590.814 526.05C590.066 525.417 589.691 524.275 589.691 522.625V514.767H587.216V512.723H589.691L590.008 509.298H592.109V512.723H596.312V514.767H592.109V522.625C592.109 523.527 592.292 524.141 592.656 524.467C593.021 524.774 593.664 524.927 594.585 524.927H596.081V527H593.894Z"></path><path style="fill:var(--color-inkNegative)" d="M605.409 527.345C604.046 527.345 602.837 527.038 601.782 526.424C600.727 525.791 599.892 524.918 599.278 523.805C598.683 522.692 598.385 521.377 598.385 519.861C598.385 518.365 598.683 517.06 599.278 515.947C599.873 514.815 600.698 513.942 601.753 513.327C602.828 512.694 604.066 512.378 605.466 512.378C606.848 512.378 608.038 512.694 609.036 513.327C610.053 513.942 610.83 514.757 611.367 515.774C611.904 516.791 612.173 517.885 612.173 519.055C612.173 519.267 612.163 519.478 612.144 519.689C612.144 519.9 612.144 520.14 612.144 520.408H600.775C600.832 521.502 601.082 522.414 601.523 523.143C601.983 523.853 602.55 524.39 603.221 524.755C603.912 525.119 604.641 525.302 605.409 525.302C606.407 525.302 607.241 525.071 607.913 524.611C608.585 524.15 609.074 523.527 609.381 522.74H611.77C611.386 524.064 610.647 525.167 609.554 526.05C608.479 526.914 607.097 527.345 605.409 527.345ZM605.409 514.421C604.257 514.421 603.231 514.776 602.329 515.486C601.446 516.177 600.938 517.194 600.803 518.537H609.784C609.726 517.252 609.285 516.244 608.46 515.515C607.635 514.786 606.618 514.421 605.409 514.421Z"></path><path style="fill:var(--color-inkNegative)" d="M615.378 527V512.723H617.565L617.767 515.457C618.208 514.517 618.88 513.769 619.782 513.212C620.684 512.656 621.797 512.378 623.121 512.378V514.911H622.459C621.614 514.911 620.837 515.064 620.127 515.371C619.417 515.659 618.851 516.158 618.429 516.868C618.007 517.578 617.796 518.557 617.796 519.804V527H615.378Z"></path><path style="fill:var(--color-inkNegative)" d="M638.201 527.345C637.012 527.345 636.023 527.144 635.237 526.741C634.45 526.338 633.865 525.801 633.481 525.129C633.097 524.457 632.905 523.728 632.905 522.941C632.905 521.483 633.462 520.36 634.575 519.574C635.688 518.787 637.204 518.393 639.122 518.393H642.98V518.221C642.98 516.973 642.653 516.033 642.001 515.4C641.348 514.747 640.475 514.421 639.382 514.421C638.441 514.421 637.626 514.661 636.935 515.141C636.263 515.601 635.841 516.283 635.668 517.185H633.193C633.289 516.148 633.634 515.275 634.229 514.565C634.843 513.855 635.601 513.318 636.503 512.953C637.405 512.569 638.364 512.378 639.382 512.378C641.377 512.378 642.874 512.915 643.872 513.989C644.889 515.045 645.397 516.455 645.397 518.221V527H643.239L643.095 524.438C642.692 525.244 642.097 525.935 641.31 526.511C640.542 527.067 639.506 527.345 638.201 527.345ZM638.576 525.302C639.497 525.302 640.283 525.062 640.936 524.582C641.607 524.102 642.116 523.479 642.461 522.711C642.807 521.943 642.98 521.138 642.98 520.293V520.264H639.324C637.904 520.264 636.896 520.514 636.302 521.013C635.726 521.493 635.438 522.097 635.438 522.826C635.438 523.575 635.707 524.179 636.244 524.64C636.801 525.081 637.578 525.302 638.576 525.302Z"></path><path style="fill:var(--color-inkNegative)" d="M656.642 533.332V512.723H658.83L659.06 515.083C659.521 514.392 660.173 513.769 661.017 513.212C661.881 512.656 662.975 512.378 664.299 512.378C665.719 512.378 666.956 512.704 668.012 513.356C669.067 514.009 669.883 514.901 670.459 516.033C671.053 517.165 671.351 518.451 671.351 519.89C671.351 521.329 671.053 522.615 670.459 523.747C669.883 524.86 669.058 525.743 667.983 526.395C666.928 527.029 665.69 527.345 664.27 527.345C663.099 527.345 662.054 527.105 661.133 526.626C660.231 526.146 659.54 525.474 659.06 524.611V533.332H656.642ZM664.011 525.244C664.97 525.244 665.815 525.023 666.544 524.582C667.273 524.121 667.849 523.488 668.271 522.682C668.693 521.876 668.904 520.936 668.904 519.861C668.904 518.787 668.693 517.847 668.271 517.041C667.849 516.235 667.273 515.611 666.544 515.17C665.815 514.709 664.97 514.479 664.011 514.479C663.051 514.479 662.207 514.709 661.478 515.17C660.749 515.611 660.173 516.235 659.751 517.041C659.329 517.847 659.118 518.787 659.118 519.861C659.118 520.936 659.329 521.876 659.751 522.682C660.173 523.488 660.749 524.121 661.478 524.582C662.207 525.023 663.051 525.244 664.011 525.244Z"></path><path style="fill:var(--color-inkNegative)" d="M679.466 527.345C678.276 527.345 677.288 527.144 676.501 526.741C675.714 526.338 675.129 525.801 674.745 525.129C674.362 524.457 674.17 523.728 674.17 522.941C674.17 521.483 674.726 520.36 675.839 519.574C676.952 518.787 678.468 518.393 680.387 518.393H684.244V518.221C684.244 516.973 683.918 516.033 683.265 515.4C682.613 514.747 681.74 514.421 680.646 514.421C679.706 514.421 678.89 514.661 678.199 515.141C677.528 515.601 677.106 516.283 676.933 517.185H674.457C674.553 516.148 674.899 515.275 675.494 514.565C676.108 513.855 676.866 513.318 677.768 512.953C678.67 512.569 679.629 512.378 680.646 512.378C682.642 512.378 684.139 512.915 685.136 513.989C686.153 515.045 686.662 516.455 686.662 518.221V527H684.503L684.359 524.438C683.956 525.244 683.361 525.935 682.575 526.511C681.807 527.067 680.771 527.345 679.466 527.345ZM679.84 525.302C680.761 525.302 681.548 525.062 682.2 524.582C682.872 524.102 683.381 523.479 683.726 522.711C684.071 521.943 684.244 521.138 684.244 520.293V520.264H680.588C679.168 520.264 678.161 520.514 677.566 521.013C676.99 521.493 676.703 522.097 676.703 522.826C676.703 523.575 676.971 524.179 677.509 524.64C678.065 525.081 678.842 525.302 679.84 525.302Z"></path><path style="fill:var(--color-inkNegative)" d="M695.758 527.345C694.05 527.345 692.63 526.914 691.498 526.05C690.366 525.186 689.704 524.016 689.512 522.538H691.987C692.141 523.287 692.534 523.939 693.168 524.496C693.82 525.033 694.693 525.302 695.787 525.302C696.804 525.302 697.552 525.091 698.032 524.668C698.512 524.227 698.752 523.709 698.752 523.114C698.752 522.25 698.435 521.675 697.802 521.387C697.188 521.099 696.315 520.84 695.182 520.61C694.415 520.456 693.647 520.236 692.88 519.948C692.112 519.66 691.469 519.257 690.951 518.739C690.433 518.202 690.174 517.501 690.174 516.638C690.174 515.39 690.635 514.373 691.556 513.587C692.496 512.781 693.762 512.378 695.355 512.378C696.871 512.378 698.109 512.761 699.068 513.529C700.047 514.277 700.613 515.352 700.766 516.753H698.377C698.281 516.024 697.965 515.457 697.428 515.055C696.909 514.632 696.209 514.421 695.326 514.421C694.463 514.421 693.791 514.604 693.311 514.968C692.851 515.333 692.621 515.812 692.621 516.407C692.621 516.983 692.918 517.434 693.513 517.76C694.127 518.086 694.952 518.365 695.988 518.595C696.871 518.787 697.706 519.027 698.493 519.315C699.299 519.583 699.951 519.996 700.45 520.552C700.968 521.09 701.227 521.876 701.227 522.913C701.246 524.198 700.757 525.263 699.759 526.108C698.78 526.933 697.447 527.345 695.758 527.345Z"></path><path style="fill:var(--color-inkNegative)" d="M710.15 527.345C708.442 527.345 707.022 526.914 705.89 526.05C704.758 525.186 704.096 524.016 703.904 522.538H706.379C706.533 523.287 706.926 523.939 707.56 524.496C708.212 525.033 709.085 525.302 710.179 525.302C711.196 525.302 711.944 525.091 712.424 524.668C712.904 524.227 713.144 523.709 713.144 523.114C713.144 522.25 712.827 521.675 712.194 521.387C711.58 521.099 710.707 520.84 709.574 520.61C708.807 520.456 708.039 520.236 707.272 519.948C706.504 519.66 705.861 519.257 705.343 518.739C704.825 518.202 704.566 517.501 704.566 516.638C704.566 515.39 705.027 514.373 705.948 513.587C706.888 512.781 708.154 512.378 709.747 512.378C711.263 512.378 712.501 512.761 713.46 513.529C714.439 514.277 715.005 515.352 715.158 516.753H712.769C712.673 516.024 712.357 515.457 711.82 515.055C711.301 514.632 710.601 514.421 709.718 514.421C708.855 514.421 708.183 514.604 707.703 514.968C707.243 515.333 707.013 515.812 707.013 516.407C707.013 516.983 707.31 517.434 707.905 517.76C708.519 518.086 709.344 518.365 710.38 518.595C711.263 518.787 712.098 519.027 712.885 519.315C713.691 519.583 714.343 519.996 714.842 520.552C715.36 521.09 715.619 521.876 715.619 522.913C715.638 524.198 715.149 525.263 714.151 526.108C713.172 526.933 711.839 527.345 710.15 527.345Z"></path><path style="fill:var(--color-inkNegative)" d="M721.417 527L717.244 512.723H719.662L722.684 523.92L726.023 512.723H728.757L732.125 523.92L735.119 512.723H737.565L733.392 527H730.916L727.405 515.227L723.893 527H721.417Z"></path><path style="fill:var(--color-inkNegative)" d="M746.211 527.345C744.867 527.345 743.658 527.038 742.584 526.424C741.509 525.81 740.655 524.947 740.022 523.834C739.408 522.701 739.101 521.377 739.101 519.861C739.101 518.345 739.418 517.031 740.051 515.918C740.684 514.786 741.538 513.913 742.613 513.299C743.706 512.685 744.925 512.378 746.268 512.378C747.611 512.378 748.82 512.685 749.895 513.299C750.97 513.913 751.814 514.786 752.428 515.918C753.061 517.031 753.378 518.345 753.378 519.861C753.378 521.377 753.061 522.701 752.428 523.834C751.795 524.947 750.931 525.81 749.837 526.424C748.763 527.038 747.554 527.345 746.211 527.345ZM746.211 525.273C747.036 525.273 747.803 525.071 748.513 524.668C749.223 524.265 749.799 523.661 750.24 522.855C750.682 522.049 750.902 521.051 750.902 519.861C750.902 518.672 750.682 517.674 750.24 516.868C749.818 516.062 749.252 515.457 748.542 515.055C747.832 514.652 747.074 514.45 746.268 514.45C745.443 514.45 744.675 514.652 743.965 515.055C743.255 515.457 742.68 516.062 742.238 516.868C741.797 517.674 741.576 518.672 741.576 519.861C741.576 521.051 741.797 522.049 742.238 522.855C742.68 523.661 743.246 524.265 743.937 524.668C744.647 525.071 745.405 525.273 746.211 525.273Z"></path><path style="fill:var(--color-inkNegative)" d="M756.74 527V512.723H758.927L759.129 515.457C759.57 514.517 760.242 513.769 761.144 513.212C762.046 512.656 763.158 512.378 764.483 512.378V514.911H763.821C762.976 514.911 762.199 515.064 761.489 515.371C760.779 515.659 760.213 516.158 759.791 516.868C759.369 517.578 759.158 518.557 759.158 519.804V527H756.74Z"></path><path style="fill:var(--color-inkNegative)" d="M773.139 527.345C771.719 527.345 770.471 527.019 769.397 526.367C768.341 525.714 767.516 524.822 766.921 523.69C766.346 522.558 766.058 521.272 766.058 519.833C766.058 518.393 766.355 517.117 766.95 516.004C767.545 514.872 768.37 513.989 769.426 513.356C770.481 512.704 771.728 512.378 773.167 512.378C774.338 512.378 775.374 512.617 776.276 513.097C777.178 513.577 777.878 514.249 778.377 515.112V506.275H780.795V527H778.608L778.377 524.64C777.917 525.33 777.255 525.954 776.391 526.511C775.528 527.067 774.444 527.345 773.139 527.345ZM773.398 525.244C774.357 525.244 775.202 525.023 775.931 524.582C776.679 524.121 777.255 523.488 777.658 522.682C778.08 521.876 778.291 520.936 778.291 519.861C778.291 518.787 778.08 517.847 777.658 517.041C777.255 516.235 776.679 515.611 775.931 515.17C775.202 514.709 774.357 514.479 773.398 514.479C772.457 514.479 771.613 514.709 770.865 515.17C770.136 515.611 769.56 516.235 769.138 517.041C768.735 517.847 768.533 518.787 768.533 519.861C768.533 520.936 768.735 521.876 769.138 522.682C769.56 523.488 770.136 524.121 770.865 524.582C771.613 525.023 772.457 525.244 773.398 525.244Z"></path><path style="fill:var(--color-illustrationInterface060)" d="M479.344 311.174C479.344 312.392 479.056 313.541 478.482 314.622C477.907 315.702 476.987 316.587 475.723 317.277C474.459 317.943 472.838 318.277 470.861 318.277H466.517V328H462.586V304.036H470.861C472.7 304.036 474.252 304.358 475.516 305.001C476.804 305.622 477.757 306.473 478.378 307.553C479.022 308.633 479.344 309.84 479.344 311.174ZM470.861 315.07C472.355 315.07 473.47 314.737 474.206 314.07C474.942 313.38 475.309 312.415 475.309 311.174C475.309 308.553 473.827 307.243 470.861 307.243H466.517V315.07H470.861Z"></path><path style="fill:var(--color-illustrationInterface060)" d="M481.782 318.415C481.782 316.507 482.173 314.817 482.955 313.346C483.759 311.875 484.84 310.737 486.196 309.932C487.575 309.105 489.092 308.691 490.747 308.691C492.241 308.691 493.54 308.99 494.644 309.587C495.77 310.162 496.667 310.886 497.333 311.76V309.001H501.298V328H497.333V325.173C496.667 326.069 495.759 326.816 494.609 327.414C493.46 328.012 492.15 328.31 490.678 328.31C489.046 328.31 487.552 327.897 486.196 327.069C484.84 326.219 483.759 325.046 482.955 323.552C482.173 322.035 481.782 320.322 481.782 318.415ZM497.333 318.483C497.333 317.173 497.057 316.035 496.506 315.07C495.977 314.104 495.276 313.369 494.402 312.863C493.529 312.357 492.586 312.105 491.575 312.105C490.563 312.105 489.621 312.357 488.747 312.863C487.874 313.346 487.161 314.07 486.61 315.035C486.081 315.978 485.817 317.104 485.817 318.415C485.817 319.725 486.081 320.874 486.61 321.863C487.161 322.851 487.874 323.61 488.747 324.138C489.644 324.644 490.586 324.897 491.575 324.897C492.586 324.897 493.529 324.644 494.402 324.138C495.276 323.633 495.977 322.897 496.506 321.932C497.057 320.943 497.333 319.794 497.333 318.483Z"></path><path style="fill:var(--color-illustrationInterface060)" d="M513.358 328.31C511.863 328.31 510.519 328.046 509.323 327.517C508.151 326.966 507.22 326.23 506.53 325.311C505.841 324.368 505.473 323.322 505.427 322.173H509.496C509.565 322.977 509.944 323.656 510.634 324.207C511.346 324.736 512.231 325 513.289 325C514.392 325 515.243 324.793 515.84 324.38C516.461 323.943 516.771 323.391 516.771 322.725C516.771 322.012 516.426 321.483 515.737 321.138C515.07 320.794 514.001 320.414 512.53 320.001C511.105 319.61 509.944 319.231 509.047 318.863C508.151 318.495 507.369 317.932 506.703 317.173C506.059 316.415 505.737 315.415 505.737 314.173C505.737 313.162 506.036 312.242 506.634 311.415C507.231 310.564 508.082 309.898 509.185 309.415C510.312 308.932 511.599 308.691 513.047 308.691C515.208 308.691 516.944 309.243 518.254 310.346C519.587 311.426 520.3 312.909 520.392 314.794H516.461C516.392 313.943 516.047 313.265 515.426 312.76C514.806 312.254 513.967 312.001 512.909 312.001C511.875 312.001 511.082 312.196 510.53 312.587C509.978 312.978 509.703 313.495 509.703 314.139C509.703 314.645 509.887 315.07 510.254 315.415C510.622 315.759 511.07 316.035 511.599 316.242C512.128 316.426 512.909 316.667 513.944 316.966C515.323 317.334 516.449 317.713 517.323 318.104C518.219 318.472 518.989 319.024 519.633 319.759C520.277 320.495 520.61 321.472 520.633 322.69C520.633 323.771 520.334 324.736 519.737 325.587C519.139 326.437 518.288 327.104 517.185 327.586C516.105 328.069 514.829 328.31 513.358 328.31Z"></path><path style="fill:var(--color-illustrationInterface060)" d="M531.777 328.31C530.282 328.31 528.938 328.046 527.742 327.517C526.57 326.966 525.639 326.23 524.949 325.311C524.26 324.368 523.892 323.322 523.846 322.173H527.915C527.984 322.977 528.363 323.656 529.053 324.207C529.765 324.736 530.65 325 531.708 325C532.811 325 533.661 324.793 534.259 324.38C534.88 323.943 535.19 323.391 535.19 322.725C535.19 322.012 534.845 321.483 534.156 321.138C533.489 320.794 532.42 320.414 530.949 320.001C529.524 319.61 528.363 319.231 527.466 318.863C526.57 318.495 525.788 317.932 525.122 317.173C524.478 316.415 524.156 315.415 524.156 314.173C524.156 313.162 524.455 312.242 525.053 311.415C525.65 310.564 526.501 309.898 527.604 309.415C528.731 308.932 530.018 308.691 531.466 308.691C533.627 308.691 535.363 309.243 536.673 310.346C538.006 311.426 538.719 312.909 538.811 314.794H534.88C534.811 313.943 534.466 313.265 533.845 312.76C533.225 312.254 532.386 312.001 531.328 312.001C530.294 312.001 529.501 312.196 528.949 312.587C528.397 312.978 528.122 313.495 528.122 314.139C528.122 314.645 528.305 315.07 528.673 315.415C529.041 315.759 529.489 316.035 530.018 316.242C530.547 316.426 531.328 316.667 532.363 316.966C533.742 317.334 534.868 317.713 535.742 318.104C536.638 318.472 537.408 319.024 538.052 319.759C538.696 320.495 539.029 321.472 539.052 322.69C539.052 323.771 538.753 324.736 538.155 325.587C537.558 326.437 536.707 327.104 535.604 327.586C534.523 328.069 533.248 328.31 531.777 328.31Z"></path><path style="fill:var(--color-illustrationInterface060)" d="M568.815 309.001L562.919 328H558.781L554.954 313.966L551.126 328H546.989L541.058 309.001H545.058L549.023 324.276L553.057 309.001H557.161L561.022 324.207L564.953 309.001H568.815Z"></path><path style="fill:var(--color-illustrationInterface060)" d="M579.994 328.31C578.201 328.31 576.58 327.908 575.132 327.104C573.684 326.276 572.546 325.127 571.718 323.656C570.891 322.161 570.477 320.437 570.477 318.483C570.477 316.553 570.902 314.84 571.753 313.346C572.603 311.852 573.764 310.702 575.235 309.898C576.706 309.093 578.35 308.691 580.166 308.691C581.982 308.691 583.626 309.093 585.097 309.898C586.568 310.702 587.729 311.852 588.579 313.346C589.43 314.84 589.855 316.553 589.855 318.483C589.855 320.414 589.418 322.127 588.545 323.621C587.671 325.115 586.476 326.276 584.959 327.104C583.465 327.908 581.81 328.31 579.994 328.31ZM579.994 324.897C581.005 324.897 581.948 324.656 582.821 324.173C583.718 323.69 584.442 322.966 584.993 322.001C585.545 321.035 585.821 319.863 585.821 318.483C585.821 317.104 585.557 315.943 585.028 315.001C584.499 314.035 583.798 313.311 582.924 312.829C582.051 312.346 581.108 312.105 580.097 312.105C579.086 312.105 578.143 312.346 577.27 312.829C576.419 313.311 575.741 314.035 575.235 315.001C574.73 315.943 574.477 317.104 574.477 318.483C574.477 320.529 574.994 322.115 576.028 323.242C577.086 324.345 578.407 324.897 579.994 324.897Z"></path><path style="fill:var(--color-illustrationInterface060)" d="M597.672 311.76C598.246 310.794 599.005 310.047 599.947 309.518C600.913 308.967 602.051 308.691 603.361 308.691V312.76H602.361C600.821 312.76 599.649 313.15 598.844 313.932C598.063 314.714 597.672 316.07 597.672 318.001V328H593.741V309.001H597.672V311.76Z"></path><path style="fill:var(--color-illustrationInterface060)" d="M605.664 318.415C605.664 316.507 606.055 314.817 606.836 313.346C607.641 311.875 608.721 310.737 610.078 309.932C611.457 309.105 612.985 308.691 614.664 308.691C615.905 308.691 617.123 308.967 618.318 309.518C619.537 310.047 620.502 310.76 621.215 311.656V302.484H625.18V328H621.215V325.138C620.571 326.058 619.675 326.816 618.525 327.414C617.399 328.012 616.1 328.31 614.629 328.31C612.974 328.31 611.457 327.897 610.078 327.069C608.721 326.219 607.641 325.046 606.836 323.552C606.055 322.035 605.664 320.322 605.664 318.415ZM621.215 318.483C621.215 317.173 620.939 316.035 620.387 315.07C619.859 314.104 619.158 313.369 618.284 312.863C617.41 312.357 616.468 312.105 615.457 312.105C614.445 312.105 613.503 312.357 612.629 312.863C611.756 313.346 611.043 314.07 610.491 315.035C609.963 315.978 609.698 317.104 609.698 318.415C609.698 319.725 609.963 320.874 610.491 321.863C611.043 322.851 611.756 323.61 612.629 324.138C613.526 324.644 614.468 324.897 615.457 324.897C616.468 324.897 617.41 324.644 618.284 324.138C619.158 323.633 619.859 322.897 620.387 321.932C620.939 320.943 621.215 319.794 621.215 318.483Z"></path></svg>