<svg id="nksvg" style="width: 100%; height: 100%" width="1490" height="838" viewBox="0 0 1490 838" fill="none" xmlns="http://www.w3.org/2000/svg" class="css-0">
  <rect style="fill: var(--color-illustrationBackground010)" width="1490" height="838"></rect>
  <rect style="fill: var(--color-illustrationBackground010)" width="1490" height="838"></rect>
  <rect style="fill: var(--color-illustrationInterface020)" x="443" y="196" width="604" height="446"></rect>
  <rect x="443.5" y="196.5" width="603" height="445" stroke="#AEBFFF"></rect>
  <rect style="fill: var(--color-illustrationAnatomySubtle)" x="765" y="439" width="242" height="163" rx="8"></rect>
  <rect style="fill: var(--color-illustrationAnatomySubtle)" x="483" y="439" width="242" height="163" rx="8"></rect>
  <rect style="fill: var(--color-illustrationAnatomySubtle)" x="483" y="236" width="242" height="163" rx="8"></rect>
  <rect style="fill: var(--color-illustrationAnatomySubtle)" x="765" y="236" width="242" height="163" rx="8"></rect>
  <path style="fill: var(--color-illustrationPalette040)" d="M443 413C446.314 413 449 415.686 449 419C449 422.314 446.314 425 443 425C439.686 425 437 422.314 437 419C437 415.686 439.686 413 443 413Z"></path>
  <path style="fill: var(--color-illustrationPalette040)" fill-rule="evenodd" clip-rule="evenodd" d="M256 418L440 418L440 420L256 420L256 418Z"></path>
  <rect style="fill: var(--color-illustrationPalette040)" x="217" y="400" width="38.5134" height="38.5134" rx="19.2567"></rect>
  <path style="fill: var(--color-white)" d="M233 413.801V411H238.086V426.832H235.047V413.801H233Z"></path>
  <rect style="fill: var(--color-illustrationPalette040)" x="1078" y="299" width="38.5134" height="38.5134" rx="19.2567"></rect>
  <path style="fill: var(--color-white)" d="M1093.12 322.388C1094.47 321.263 1095.55 320.327 1096.35 319.581C1097.15 318.822 1097.82 318.034 1098.35 317.218C1098.89 316.402 1099.15 315.6 1099.15 314.812C1099.15 314.094 1098.99 313.531 1098.65 313.123C1098.31 312.715 1097.79 312.511 1097.09 312.511C1096.38 312.511 1095.84 312.751 1095.46 313.229C1095.08 313.693 1094.88 314.333 1094.87 315.15H1092C1092.06 313.461 1092.56 312.181 1093.5 311.308C1094.46 310.436 1095.67 310 1097.13 310C1098.73 310 1099.96 310.429 1100.82 311.287C1101.68 312.132 1102.11 313.25 1102.11 314.643C1102.11 315.74 1101.81 316.789 1101.22 317.788C1100.63 318.787 1099.96 319.659 1099.2 320.405C1098.44 321.136 1097.44 322.023 1096.22 323.064H1102.45V325.512H1092.02V323.317L1093.12 322.388Z"></path>
  <path style="fill: var(--color-illustrationPalette040)" d="M891 313C887.686 313 885 315.686 885 319C885 322.314 887.686 325 891 325C894.314 325 897 322.314 897 319C897 315.686 894.314 313 891 313Z"></path>
  <path style="fill: var(--color-illustrationPalette040)" fill-rule="evenodd" clip-rule="evenodd" d="M1078 318L894 318L894 320L1078 320L1078 318Z"></path>
</svg>
