<svg id="nksvg" width="1490" height="838" viewBox="0 0 1490 838" fill="none" xmlns="http://www.w3.org/2000/svg">
  <g clip-path="url(#clip0_3105_108253)">
    <path d="M0 0H1490V838H0V0Z" fill="var(--color-illustrationBackground010)" />
    <path
      d="M329.335 602.685H314.045L311.515 610H303.43L317.235 571.555H326.2L340.005 610H331.865L329.335 602.685ZM327.245 596.525L321.69 580.465L316.135 596.525H327.245Z"
      fill="var(--color-illustrationPalette030)" />
    <path d="M352.865 603.895H365.515V610H345.165V571.61H352.865V603.895Z" fill="var(--color-illustrationPalette030)" />
    <path
      d="M393.949 602.685H378.659L376.129 610H368.044L381.849 571.555H390.814L404.619 610H396.479L393.949 602.685ZM391.859 596.525L386.304 580.465L380.749 596.525H391.859Z"
      fill="var(--color-illustrationPalette030)" />
    <path
      d="M451.635 571.61V610H443.935V585.03L433.65 610H427.82L417.48 585.03V610H409.78V571.61H418.525L430.735 600.155L442.945 571.61H451.635Z"
      fill="var(--color-illustrationPalette030)" />
    <path
      d="M489.772 571.61L476.792 596.635V610H469.092V596.635L456.057 571.61H464.747L472.997 589.155L481.192 571.61H489.772Z"
      fill="var(--color-illustrationPalette030)" />
    <path
      d="M377.15 461.65L362.525 514H350.15L340.325 476.725L330.05 514L317.75 514.075L303.65 461.65H314.9L324.125 502.3L334.775 461.65H346.475L356.525 502.075L365.825 461.65H377.15Z"
      fill="var(--color-illustrationPalette030)" />
    <path
      d="M389.331 467.5C387.481 467.5 385.931 466.925 384.681 465.775C383.481 464.575 382.881 463.1 382.881 461.35C382.881 459.6 383.481 458.15 384.681 457C385.931 455.8 387.481 455.2 389.331 455.2C391.181 455.2 392.706 455.8 393.906 457C395.156 458.15 395.781 459.6 395.781 461.35C395.781 463.1 395.156 464.575 393.906 465.775C392.706 466.925 391.181 467.5 389.331 467.5ZM394.506 472.45V514H384.006V472.45H394.506Z"
      fill="var(--color-illustrationPalette030)" />
    <path d="M415.38 458.5V514H404.88V458.5H415.38Z" fill="var(--color-illustrationPalette030)" />
    <path
      d="M423.054 493.075C423.054 488.875 423.879 485.15 425.529 481.9C427.229 478.65 429.529 476.15 432.429 474.4C435.329 472.65 438.554 471.775 442.104 471.775C444.804 471.775 447.379 472.375 449.829 473.575C452.279 474.725 454.229 476.275 455.679 478.225V458.5H466.329V514H455.679V507.85C454.379 509.9 452.554 511.55 450.204 512.8C447.854 514.05 445.129 514.675 442.029 514.675C438.529 514.675 435.329 513.775 432.429 511.975C429.529 510.175 427.229 507.65 425.529 504.4C423.879 501.1 423.054 497.325 423.054 493.075ZM455.754 493.225C455.754 490.675 455.254 488.5 454.254 486.7C453.254 484.85 451.904 483.45 450.204 482.5C448.504 481.5 446.679 481 444.729 481C442.779 481 440.979 481.475 439.329 482.425C437.679 483.375 436.329 484.775 435.279 486.625C434.279 488.425 433.779 490.575 433.779 493.075C433.779 495.575 434.279 497.775 435.279 499.675C436.329 501.525 437.679 502.95 439.329 503.95C441.029 504.95 442.829 505.45 444.729 505.45C446.679 505.45 448.504 504.975 450.204 504.025C451.904 503.025 453.254 501.625 454.254 499.825C455.254 497.975 455.754 495.775 455.754 493.225Z"
      fill="var(--color-illustrationPalette030)" />
    <path
      d="M491.755 493.225C491.755 488.925 492.63 485.175 494.38 481.975C496.13 478.725 498.555 476.225 501.655 474.475C504.755 472.675 508.305 471.775 512.305 471.775C517.455 471.775 521.705 473.075 525.055 475.675C528.455 478.225 530.73 481.825 531.88 486.475H520.555C519.955 484.675 518.93 483.275 517.48 482.275C516.08 481.225 514.33 480.7 512.23 480.7C509.23 480.7 506.855 481.8 505.105 484C503.355 486.15 502.48 489.225 502.48 493.225C502.48 497.175 503.355 500.25 505.105 502.45C506.855 504.6 509.23 505.675 512.23 505.675C516.48 505.675 519.255 503.775 520.555 499.975H531.88C530.73 504.475 528.455 508.05 525.055 510.7C521.655 513.35 517.405 514.675 512.305 514.675C508.305 514.675 504.755 513.8 501.655 512.05C498.555 510.25 496.13 507.75 494.38 504.55C492.63 501.3 491.755 497.525 491.755 493.225Z"
      fill="var(--color-illustrationPalette030)" />
    <path
      d="M536.872 493.075C536.872 488.875 537.697 485.15 539.347 481.9C541.047 478.65 543.322 476.15 546.172 474.4C549.072 472.65 552.297 471.775 555.847 471.775C558.947 471.775 561.647 472.4 563.947 473.65C566.297 474.9 568.172 476.475 569.572 478.375V472.45H580.147V514H569.572V507.925C568.222 509.875 566.347 511.5 563.947 512.8C561.597 514.05 558.872 514.675 555.772 514.675C552.272 514.675 549.072 513.775 546.172 511.975C543.322 510.175 541.047 507.65 539.347 504.4C537.697 501.1 536.872 497.325 536.872 493.075ZM569.572 493.225C569.572 490.675 569.072 488.5 568.072 486.7C567.072 484.85 565.722 483.45 564.022 482.5C562.322 481.5 560.497 481 558.547 481C556.597 481 554.797 481.475 553.147 482.425C551.497 483.375 550.147 484.775 549.097 486.625C548.097 488.425 547.597 490.575 547.597 493.075C547.597 495.575 548.097 497.775 549.097 499.675C550.147 501.525 551.497 502.95 553.147 503.95C554.847 504.95 556.647 505.45 558.547 505.45C560.497 505.45 562.322 504.975 564.022 504.025C565.722 503.025 567.072 501.625 568.072 499.825C569.072 497.975 569.572 495.775 569.572 493.225Z"
      fill="var(--color-illustrationPalette030)" />
    <path
      d="M642.002 471.85C647.102 471.85 651.202 473.425 654.302 476.575C657.452 479.675 659.027 484.025 659.027 489.625V514H648.527V491.05C648.527 487.8 647.702 485.325 646.052 483.625C644.402 481.875 642.152 481 639.302 481C636.452 481 634.177 481.875 632.477 483.625C630.827 485.325 630.002 487.8 630.002 491.05V514H619.502V491.05C619.502 487.8 618.677 485.325 617.027 483.625C615.377 481.875 613.127 481 610.277 481C607.377 481 605.077 481.875 603.377 483.625C601.727 485.325 600.902 487.8 600.902 491.05V514H590.402V472.45H600.902V477.475C602.252 475.725 603.977 474.35 606.077 473.35C608.227 472.35 610.577 471.85 613.127 471.85C616.377 471.85 619.277 472.55 621.827 473.95C624.377 475.3 626.352 477.25 627.752 479.8C629.102 477.4 631.052 475.475 633.602 474.025C636.202 472.575 639.002 471.85 642.002 471.85Z"
      fill="var(--color-illustrationPalette030)" />
    <path
      d="M679.491 478.45C680.841 476.55 682.691 474.975 685.041 473.725C687.441 472.425 690.166 471.775 693.216 471.775C696.766 471.775 699.966 472.65 702.816 474.4C705.716 476.15 707.991 478.65 709.641 481.9C711.341 485.1 712.191 488.825 712.191 493.075C712.191 497.325 711.341 501.1 709.641 504.4C707.991 507.65 705.716 510.175 702.816 511.975C699.966 513.775 696.766 514.675 693.216 514.675C690.166 514.675 687.466 514.05 685.116 512.8C682.816 511.55 680.941 509.975 679.491 508.075V533.8H668.991V472.45H679.491V478.45ZM701.466 493.075C701.466 490.575 700.941 488.425 699.891 486.625C698.891 484.775 697.541 483.375 695.841 482.425C694.191 481.475 692.391 481 690.441 481C688.541 481 686.741 481.5 685.041 482.5C683.391 483.45 682.041 484.85 680.991 486.7C679.991 488.55 679.491 490.725 679.491 493.225C679.491 495.725 679.991 497.9 680.991 499.75C682.041 501.6 683.391 503.025 685.041 504.025C686.741 504.975 688.541 505.45 690.441 505.45C692.391 505.45 694.191 504.95 695.841 503.95C697.541 502.95 698.891 501.525 699.891 499.675C700.941 497.825 701.466 495.625 701.466 493.075Z"
      fill="var(--color-illustrationPalette030)" />
    <path
      d="M725.146 467.5C723.296 467.5 721.746 466.925 720.496 465.775C719.296 464.575 718.696 463.1 718.696 461.35C718.696 459.6 719.296 458.15 720.496 457C721.746 455.8 723.296 455.2 725.146 455.2C726.996 455.2 728.521 455.8 729.721 457C730.971 458.15 731.596 459.6 731.596 461.35C731.596 463.1 730.971 464.575 729.721 465.775C728.521 466.925 726.996 467.5 725.146 467.5ZM730.321 472.45V514H719.821V472.45H730.321Z"
      fill="var(--color-illustrationPalette030)" />
    <path
      d="M763.72 471.85C768.67 471.85 772.67 473.425 775.72 476.575C778.77 479.675 780.295 484.025 780.295 489.625V514H769.795V491.05C769.795 487.75 768.97 485.225 767.32 483.475C765.67 481.675 763.42 480.775 760.57 480.775C757.67 480.775 755.37 481.675 753.67 483.475C752.02 485.225 751.195 487.75 751.195 491.05V514H740.695V472.45H751.195V477.625C752.595 475.825 754.37 474.425 756.52 473.425C758.72 472.375 761.12 471.85 763.72 471.85Z"
      fill="var(--color-illustrationPalette030)" />
    <path
      d="M806.555 471.775C809.655 471.775 812.38 472.4 814.73 473.65C817.08 474.85 818.93 476.425 820.28 478.375V472.45H830.855V514.3C830.855 518.15 830.08 521.575 828.53 524.575C826.98 527.625 824.655 530.025 821.555 531.775C818.455 533.575 814.705 534.475 810.305 534.475C804.405 534.475 799.555 533.1 795.755 530.35C792.005 527.6 789.88 523.85 789.38 519.1H799.805C800.355 521 801.53 522.5 803.33 523.6C805.18 524.75 807.405 525.325 810.005 525.325C813.055 525.325 815.53 524.4 817.43 522.55C819.33 520.75 820.28 518 820.28 514.3V507.85C818.93 509.8 817.055 511.425 814.655 512.725C812.305 514.025 809.605 514.675 806.555 514.675C803.055 514.675 799.855 513.775 796.955 511.975C794.055 510.175 791.755 507.65 790.055 504.4C788.405 501.1 787.58 497.325 787.58 493.075C787.58 488.875 788.405 485.15 790.055 481.9C791.755 478.65 794.03 476.15 796.88 474.4C799.78 472.65 803.005 471.775 806.555 471.775ZM820.28 493.225C820.28 490.675 819.78 488.5 818.78 486.7C817.78 484.85 816.43 483.45 814.73 482.5C813.03 481.5 811.205 481 809.255 481C807.305 481 805.505 481.475 803.855 482.425C802.205 483.375 800.855 484.775 799.805 486.625C798.805 488.425 798.305 490.575 798.305 493.075C798.305 495.575 798.805 497.775 799.805 499.675C800.855 501.525 802.205 502.95 803.855 503.95C805.555 504.95 807.355 505.45 809.255 505.45C811.205 505.45 813.03 504.975 814.73 504.025C816.43 503.025 817.78 501.625 818.78 499.825C819.78 497.975 820.28 495.775 820.28 493.225Z"
      fill="var(--color-illustrationPalette030)" />
    <path
      d="M864.307 467.5C862.457 467.5 860.907 466.925 859.657 465.775C858.457 464.575 857.857 463.1 857.857 461.35C857.857 459.6 858.457 458.15 859.657 457C860.907 455.8 862.457 455.2 864.307 455.2C866.157 455.2 867.682 455.8 868.882 457C870.132 458.15 870.757 459.6 870.757 461.35C870.757 463.1 870.132 464.575 868.882 465.775C867.682 466.925 866.157 467.5 864.307 467.5ZM869.482 472.45V514H858.982V472.45H869.482Z"
      fill="var(--color-illustrationPalette030)" />
    <path
      d="M902.881 471.85C907.831 471.85 911.831 473.425 914.881 476.575C917.931 479.675 919.456 484.025 919.456 489.625V514H908.956V491.05C908.956 487.75 908.131 485.225 906.481 483.475C904.831 481.675 902.581 480.775 899.731 480.775C896.831 480.775 894.531 481.675 892.831 483.475C891.181 485.225 890.356 487.75 890.356 491.05V514H879.856V472.45H890.356V477.625C891.756 475.825 893.531 474.425 895.681 473.425C897.881 472.375 900.281 471.85 902.881 471.85Z"
      fill="var(--color-illustrationPalette030)" />
    <path
      d="M965.612 461.65C971.112 461.65 975.937 462.725 980.087 464.875C984.287 467.025 987.512 470.1 989.762 474.1C992.062 478.05 993.212 482.65 993.212 487.9C993.212 493.15 992.062 497.75 989.762 501.7C987.512 505.6 984.287 508.625 980.087 510.775C975.937 512.925 971.112 514 965.612 514H947.312V461.65H965.612ZM965.237 505.075C970.737 505.075 974.987 503.575 977.987 500.575C980.987 497.575 982.487 493.35 982.487 487.9C982.487 482.45 980.987 478.2 977.987 475.15C974.987 472.05 970.737 470.5 965.237 470.5H957.812V505.075H965.237Z"
      fill="var(--color-illustrationPalette030)" />
    <path
      d="M1019.52 514.675C1015.52 514.675 1011.92 513.8 1008.72 512.05C1005.52 510.25 1003 507.725 1001.15 504.475C999.346 501.225 998.446 497.475 998.446 493.225C998.446 488.975 999.371 485.225 1001.22 481.975C1003.12 478.725 1005.7 476.225 1008.95 474.475C1012.2 472.675 1015.82 471.775 1019.82 471.775C1023.82 471.775 1027.45 472.675 1030.7 474.475C1033.95 476.225 1036.5 478.725 1038.35 481.975C1040.25 485.225 1041.2 488.975 1041.2 493.225C1041.2 497.475 1040.22 501.225 1038.27 504.475C1036.37 507.725 1033.77 510.25 1030.47 512.05C1027.22 513.8 1023.57 514.675 1019.52 514.675ZM1019.52 505.525C1021.42 505.525 1023.2 505.075 1024.85 504.175C1026.55 503.225 1027.9 501.825 1028.9 499.975C1029.9 498.125 1030.4 495.875 1030.4 493.225C1030.4 489.275 1029.35 486.25 1027.25 484.15C1025.2 482 1022.67 480.925 1019.67 480.925C1016.67 480.925 1014.15 482 1012.1 484.15C1010.1 486.25 1009.1 489.275 1009.1 493.225C1009.1 497.175 1010.07 500.225 1012.02 502.375C1014.02 504.475 1016.52 505.525 1019.52 505.525Z"
      fill="var(--color-illustrationPalette030)" />
    <path
      d="M1059.4 478.9C1060.75 476.7 1062.5 474.975 1064.65 473.725C1066.85 472.475 1069.35 471.85 1072.15 471.85V482.875H1069.37C1066.07 482.875 1063.57 483.65 1061.87 485.2C1060.22 486.75 1059.4 489.45 1059.4 493.3V514H1048.9V472.45H1059.4V478.9Z"
      fill="var(--color-illustrationPalette030)" />
    <path
      d="M1095.12 514.675C1091.72 514.675 1088.67 514.075 1085.97 512.875C1083.27 511.625 1081.12 509.95 1079.52 507.85C1077.97 505.75 1077.12 503.425 1076.97 500.875H1087.55C1087.75 502.475 1088.52 503.8 1089.87 504.85C1091.27 505.9 1093 506.425 1095.05 506.425C1097.05 506.425 1098.6 506.025 1099.7 505.225C1100.85 504.425 1101.42 503.4 1101.42 502.15C1101.42 500.8 1100.72 499.8 1099.32 499.15C1097.97 498.45 1095.8 497.7 1092.8 496.9C1089.7 496.15 1087.15 495.375 1085.15 494.575C1083.2 493.775 1081.5 492.55 1080.05 490.9C1078.65 489.25 1077.95 487.025 1077.95 484.225C1077.95 481.925 1078.6 479.825 1079.9 477.925C1081.25 476.025 1083.15 474.525 1085.6 473.425C1088.1 472.325 1091.02 471.775 1094.37 471.775C1099.32 471.775 1103.27 473.025 1106.22 475.525C1109.17 477.975 1110.8 481.3 1111.1 485.5H1101.05C1100.9 483.85 1100.2 482.55 1098.95 481.6C1097.75 480.6 1096.12 480.1 1094.07 480.1C1092.17 480.1 1090.7 480.45 1089.65 481.15C1088.65 481.85 1088.15 482.825 1088.15 484.075C1088.15 485.475 1088.85 486.55 1090.25 487.3C1091.65 488 1093.82 488.725 1096.77 489.475C1099.77 490.225 1102.25 491 1104.2 491.8C1106.15 492.6 1107.82 493.85 1109.22 495.55C1110.67 497.2 1111.42 499.4 1111.47 502.15C1111.47 504.55 1110.8 506.7 1109.45 508.6C1108.15 510.5 1106.25 512 1103.75 513.1C1101.3 514.15 1098.42 514.675 1095.12 514.675Z"
      fill="var(--color-illustrationPalette030)" />
    <path
      d="M1158.71 492.325C1158.71 493.825 1158.61 495.175 1158.41 496.375H1128.04C1128.29 499.375 1129.34 501.725 1131.19 503.425C1133.04 505.125 1135.31 505.975 1138.01 505.975C1141.91 505.975 1144.69 504.3 1146.34 500.95H1157.66C1156.46 504.95 1154.16 508.25 1150.76 510.85C1147.36 513.4 1143.19 514.675 1138.24 514.675C1134.24 514.675 1130.64 513.8 1127.44 512.05C1124.29 510.25 1121.81 507.725 1120.01 504.475C1118.26 501.225 1117.39 497.475 1117.39 493.225C1117.39 488.925 1118.26 485.15 1120.01 481.9C1121.76 478.65 1124.21 476.15 1127.36 474.4C1130.51 472.65 1134.14 471.775 1138.24 471.775C1142.19 471.775 1145.71 472.625 1148.81 474.325C1151.96 476.025 1154.39 478.45 1156.09 481.6C1157.84 484.7 1158.71 488.275 1158.71 492.325ZM1147.84 489.325C1147.79 486.625 1146.81 484.475 1144.91 482.875C1143.01 481.225 1140.69 480.4 1137.94 480.4C1135.34 480.4 1133.14 481.2 1131.34 482.8C1129.59 484.35 1128.51 486.525 1128.11 489.325H1147.84Z"
      fill="var(--color-illustrationPalette030)" />
    <path
      d="M1178.6 481.075V501.175C1178.6 502.575 1178.93 503.6 1179.58 504.25C1180.28 504.85 1181.43 505.15 1183.03 505.15H1187.9V514H1181.3C1172.45 514 1168.03 509.7 1168.03 501.1V481.075H1163.08V472.45H1168.03V462.175H1178.6V472.45H1187.9V481.075H1178.6Z"
      fill="var(--color-illustrationPalette030)" />
    <path opacity="0.5"
      d="M96.5 0.5H1393.5V214C1393.5 233.606 1377.61 249.5 1358 249.5H132C112.394 249.5 96.5 233.606 96.5 214V0.5Z"
      fill="var(--color-illustrationPalette020)" stroke="#AEBFFF" />
    <path opacity="0.2" d="M664 -169L962.779 249.5H365.221L664 -169Z" fill="var(--color-illustrationPalette030)" />
    <path opacity="0.2" d="M1058 -169L1356.78 249.5H759.221L1058 -169Z" fill="var(--color-illustrationPalette030)" />
    <rect opacity="0.3" x="299" y="451" width="899" height="163" rx="8" stroke="#577FFB" stroke-width="4"
      stroke-dasharray="4 4" />
    <path d="M282 484L282 452L284 452L284 484H282Z" fill="var(--color-illustrationHighlight010)" />
    <path d="M97 469L97 467L283 467V469L97 469Z" fill="var(--color-illustrationHighlight010)" />
    <path d="M96 484L96 452L98 452L98 484H96Z" fill="var(--color-illustrationHighlight010)" />
    <path d="M1213 484L1213 452L1215 452L1215 484H1213Z" fill="var(--color-illustrationHighlight010)" />
    <path d="M1213 469L1213 467L1394 467V469L1213 469Z" fill="var(--color-illustrationHighlight010)" />
    <path d="M1392 484L1392 452L1394 452L1394 484H1392Z" fill="var(--color-illustrationHighlight010)" />
    <path d="M300 434H332L332 436H300L300 434Z" fill="var(--color-illustrationHighlight010)" />
    <path d="M315 250H317L317 436H315L315 250Z" fill="var(--color-illustrationHighlight010)" />
    <path d="M300 250H332L332 252H300L300 250Z" fill="var(--color-illustrationHighlight010)" />
    <path d="M300 813H332L332 815H300L300 813Z" fill="var(--color-illustrationHighlight010)" />
    <path d="M315 629H317L317 815H315L315 629Z" fill="var(--color-illustrationHighlight010)" />
    <path d="M300 629H332L332 631H300L300 629Z" fill="var(--color-illustrationHighlight010)" />
  </g>
  <defs>
    <clipPath id="clip0_3105_108253">
      <rect width="1490" height="838" fill="white" />
    </clipPath>
  </defs>
</svg>