<svg id="nksvg" width="1490" height="838" viewBox="0 0 1490 838" fill="none" xmlns="http://www.w3.org/2000/svg">
<path d="M0 0H1490V838H0V0Z" fill="var(--color-illustrationBackground010)"/>
<path d="M83 118C83 111.373 88.3726 106 95 106H1392C1398.63 106 1404 111.373 1404 118V312H83V118Z" fill="white"/>
<path d="M83 316H1404V522H83V316Z" fill="white"/>
<path d="M83 526H1404V720C1404 726.627 1398.63 732 1392 732H95C88.3726 732 83 726.627 83 720V526Z" fill="white"/>
<path d="M174.154 608.516C178.407 608.516 182.139 609.347 185.348 611.01C188.596 612.672 191.09 615.051 192.83 618.144C194.609 621.199 195.498 624.756 195.498 628.816C195.498 632.876 194.609 636.433 192.83 639.488C191.09 642.504 188.596 644.843 185.348 646.506C182.139 648.169 178.407 649 174.154 649H160.002V608.516H174.154ZM173.864 642.098C178.117 642.098 181.404 640.938 183.724 638.618C186.044 636.298 187.204 633.031 187.204 628.816C187.204 624.601 186.044 621.314 183.724 618.956C181.404 616.558 178.117 615.36 173.864 615.36H168.122V642.098H173.864Z" fill="#577FFB"/>
<path d="M231.446 632.238C231.446 633.398 231.369 634.442 231.214 635.37H207.724C207.918 637.69 208.73 639.507 210.16 640.822C211.591 642.137 213.35 642.794 215.438 642.794C218.454 642.794 220.6 641.499 221.876 638.908H230.634C229.706 642.001 227.928 644.553 225.298 646.564C222.669 648.536 219.44 649.522 215.612 649.522C212.519 649.522 209.735 648.845 207.26 647.492C204.824 646.1 202.91 644.147 201.518 641.634C200.165 639.121 199.488 636.221 199.488 632.934C199.488 629.609 200.165 626.689 201.518 624.176C202.872 621.663 204.766 619.729 207.202 618.376C209.638 617.023 212.442 616.346 215.612 616.346C218.667 616.346 221.393 617.003 223.79 618.318C226.226 619.632 228.102 621.508 229.416 623.944C230.77 626.341 231.446 629.106 231.446 632.238ZM223.036 629.918C222.997 627.83 222.244 626.167 220.774 624.93C219.305 623.654 217.507 623.016 215.38 623.016C213.37 623.016 211.668 623.634 210.276 624.872C208.923 626.07 208.092 627.753 207.782 629.918H223.036Z" fill="#577FFB"/>
<path d="M245.493 606.08V649H237.373V606.08H245.493Z" fill="#577FFB"/>
<path d="M257.634 613.04C256.203 613.04 255.004 612.595 254.038 611.706C253.11 610.778 252.646 609.637 252.646 608.284C252.646 606.931 253.11 605.809 254.038 604.92C255.004 603.992 256.203 603.528 257.634 603.528C259.064 603.528 260.244 603.992 261.172 604.92C262.138 605.809 262.622 606.931 262.622 608.284C262.622 609.637 262.138 610.778 261.172 611.706C260.244 612.595 259.064 613.04 257.634 613.04ZM261.636 616.868V649H253.516V616.868H261.636Z" fill="#577FFB"/>
<path d="M283.056 641.518L291.176 616.868H299.818L287.928 649H278.068L266.236 616.868H274.936L283.056 641.518Z" fill="#577FFB"/>
<path d="M334.249 632.238C334.249 633.398 334.172 634.442 334.017 635.37H310.527C310.72 637.69 311.532 639.507 312.963 640.822C314.394 642.137 316.153 642.794 318.241 642.794C321.257 642.794 323.403 641.499 324.679 638.908H333.437C332.509 642.001 330.73 644.553 328.101 646.564C325.472 648.536 322.243 649.522 318.415 649.522C315.322 649.522 312.538 648.845 310.063 647.492C307.627 646.1 305.713 644.147 304.321 641.634C302.968 639.121 302.291 636.221 302.291 632.934C302.291 629.609 302.968 626.689 304.321 624.176C305.674 621.663 307.569 619.729 310.005 618.376C312.441 617.023 315.244 616.346 318.415 616.346C321.47 616.346 324.196 617.003 326.593 618.318C329.029 619.632 330.904 621.508 332.219 623.944C333.572 626.341 334.249 629.106 334.249 632.238ZM325.839 629.918C325.8 627.83 325.046 626.167 323.577 624.93C322.108 623.654 320.31 623.016 318.183 623.016C316.172 623.016 314.471 623.634 313.079 624.872C311.726 626.07 310.894 627.753 310.585 629.918H325.839Z" fill="#577FFB"/>
<path d="M348.296 621.856C349.34 620.155 350.693 618.82 352.356 617.854C354.057 616.887 355.99 616.404 358.156 616.404V624.93H356.01C353.458 624.93 351.524 625.529 350.21 626.728C348.934 627.927 348.296 630.014 348.296 632.992V649H340.176V616.868H348.296V621.856Z" fill="#577FFB"/>
<path d="M394.365 616.868L374.471 664.196H365.829L372.789 648.188L359.913 616.868H369.019L377.313 639.314L385.723 616.868H394.365Z" fill="#577FFB"/>
<path d="M426.83 649.522C423.737 649.522 420.953 648.845 418.478 647.492C416.004 646.1 414.051 644.147 412.62 641.634C411.228 639.121 410.533 636.221 410.533 632.934C410.533 629.647 411.248 626.747 412.679 624.234C414.148 621.72 416.139 619.787 418.652 618.434C421.166 617.042 423.969 616.346 427.062 616.346C430.156 616.346 432.959 617.042 435.472 618.434C437.986 619.787 439.958 621.72 441.388 624.234C442.858 626.747 443.592 629.647 443.592 632.934C443.592 636.221 442.838 639.121 441.33 641.634C439.861 644.147 437.85 646.1 435.298 647.492C432.785 648.845 429.962 649.522 426.83 649.522ZM426.83 642.446C428.3 642.446 429.672 642.098 430.948 641.402C432.263 640.667 433.307 639.584 434.08 638.154C434.854 636.723 435.24 634.983 435.24 632.934C435.24 629.879 434.428 627.54 432.804 625.916C431.219 624.253 429.266 623.422 426.946 623.422C424.626 623.422 422.674 624.253 421.089 625.916C419.542 627.54 418.768 629.879 418.768 632.934C418.768 635.989 419.522 638.347 421.03 640.01C422.577 641.634 424.51 642.446 426.83 642.446Z" fill="#577FFB"/>
<path d="M457.669 621.508C458.713 620.038 460.143 618.82 461.961 617.854C463.817 616.848 465.924 616.346 468.283 616.346C471.028 616.346 473.503 617.023 475.707 618.376C477.949 619.729 479.709 621.663 480.985 624.176C482.299 626.651 482.957 629.531 482.957 632.818C482.957 636.104 482.299 639.024 480.985 641.576C479.709 644.089 477.949 646.042 475.707 647.434C473.503 648.826 471.028 649.522 468.283 649.522C465.924 649.522 463.836 649.039 462.019 648.072C460.24 647.105 458.79 645.887 457.669 644.418V664.312H449.549V616.868H457.669V621.508ZM474.663 632.818C474.663 630.884 474.257 629.222 473.445 627.83C472.671 626.399 471.627 625.317 470.313 624.582C469.037 623.847 467.645 623.48 466.137 623.48C464.667 623.48 463.275 623.866 461.961 624.64C460.685 625.374 459.641 626.457 458.829 627.888C458.055 629.318 457.669 631.001 457.669 632.934C457.669 634.867 458.055 636.549 458.829 637.98C459.641 639.411 460.685 640.512 461.961 641.286C463.275 642.02 464.667 642.388 466.137 642.388C467.645 642.388 469.037 642.001 470.313 641.228C471.627 640.455 472.671 639.352 473.445 637.922C474.257 636.491 474.663 634.79 474.663 632.818Z" fill="#577FFB"/>
<path d="M498.311 623.538V639.082C498.311 640.165 498.563 640.957 499.065 641.46C499.607 641.924 500.496 642.156 501.733 642.156H505.503V649H500.399C493.555 649 490.133 645.674 490.133 639.024V623.538H486.305V616.868H490.133V608.922H498.311V616.868H505.503V623.538H498.311Z" fill="#577FFB"/>
<path d="M515.462 613.04C514.031 613.04 512.832 612.595 511.866 611.706C510.938 610.778 510.474 609.637 510.474 608.284C510.474 606.931 510.938 605.809 511.866 604.92C512.832 603.992 514.031 603.528 515.462 603.528C516.892 603.528 518.072 603.992 519 604.92C519.966 605.809 520.45 606.931 520.45 608.284C520.45 609.637 519.966 610.778 519 611.706C518.072 612.595 516.892 613.04 515.462 613.04ZM519.464 616.868V649H511.344V616.868H519.464Z" fill="#577FFB"/>
<path d="M541.754 649.522C538.661 649.522 535.877 648.845 533.402 647.492C530.928 646.1 528.975 644.147 527.544 641.634C526.152 639.121 525.456 636.221 525.456 632.934C525.456 629.647 526.172 626.747 527.602 624.234C529.072 621.72 531.063 619.787 533.576 618.434C536.09 617.042 538.893 616.346 541.986 616.346C545.08 616.346 547.883 617.042 550.396 618.434C552.91 619.787 554.882 621.72 556.312 624.234C557.782 626.747 558.516 629.647 558.516 632.934C558.516 636.221 557.762 639.121 556.254 641.634C554.785 644.147 552.774 646.1 550.222 647.492C547.709 648.845 544.886 649.522 541.754 649.522ZM541.754 642.446C543.224 642.446 544.596 642.098 545.872 641.402C547.187 640.667 548.231 639.584 549.004 638.154C549.778 636.723 550.164 634.983 550.164 632.934C550.164 629.879 549.352 627.54 547.728 625.916C546.143 624.253 544.19 623.422 541.87 623.422C539.55 623.422 537.598 624.253 536.012 625.916C534.466 627.54 533.692 629.879 533.692 632.934C533.692 635.989 534.446 638.347 535.954 640.01C537.501 641.634 539.434 642.446 541.754 642.446Z" fill="#577FFB"/>
<path d="M582.279 616.404C586.107 616.404 589.2 617.622 591.559 620.058C593.917 622.455 595.097 625.819 595.097 630.15V649H586.977V631.252C586.977 628.7 586.339 626.747 585.063 625.394C583.787 624.002 582.047 623.306 579.843 623.306C577.6 623.306 575.821 624.002 574.507 625.394C573.231 626.747 572.593 628.7 572.593 631.252V649H564.473V616.868H572.593V620.87C573.675 619.478 575.048 618.395 576.711 617.622C578.412 616.81 580.268 616.404 582.279 616.404Z" fill="#577FFB"/>
<path d="M615.114 649.522C612.485 649.522 610.126 649.058 608.038 648.13C605.95 647.163 604.288 645.868 603.05 644.244C601.852 642.62 601.194 640.822 601.078 638.85H609.256C609.411 640.087 610.01 641.112 611.054 641.924C612.137 642.736 613.471 643.142 615.056 643.142C616.603 643.142 617.802 642.833 618.652 642.214C619.542 641.595 619.986 640.802 619.986 639.836C619.986 638.792 619.445 638.018 618.362 637.516C617.318 636.974 615.636 636.394 613.316 635.776C610.919 635.196 608.947 634.597 607.4 633.978C605.892 633.359 604.578 632.412 603.456 631.136C602.374 629.86 601.832 628.139 601.832 625.974C601.832 624.195 602.335 622.571 603.34 621.102C604.384 619.632 605.854 618.472 607.748 617.622C609.682 616.771 611.944 616.346 614.534 616.346C618.362 616.346 621.417 617.313 623.698 619.246C625.98 621.141 627.236 623.712 627.468 626.96H619.696C619.58 625.684 619.039 624.679 618.072 623.944C617.144 623.171 615.888 622.784 614.302 622.784C612.833 622.784 611.692 623.054 610.88 623.596C610.107 624.137 609.72 624.891 609.72 625.858C609.72 626.941 610.262 627.772 611.344 628.352C612.427 628.893 614.109 629.454 616.39 630.034C618.71 630.614 620.624 631.213 622.132 631.832C623.64 632.451 624.936 633.417 626.018 634.732C627.14 636.008 627.72 637.709 627.758 639.836C627.758 641.692 627.236 643.355 626.192 644.824C625.187 646.293 623.718 647.453 621.784 648.304C619.89 649.116 617.666 649.522 615.114 649.522Z" fill="#577FFB"/>
<path d="M1325.33 191.666L1302 214.948L1278.67 191.666L1271.5 198.834L1302 229.334L1332.5 198.834L1325.33 191.666Z" fill="#577FFB"/>
<path d="M173.98 229.406C171.157 229.406 168.605 228.923 166.324 227.956C164.081 226.989 162.303 225.597 160.988 223.78C159.673 221.962 158.997 219.817 158.958 217.342H167.658C167.774 219.005 168.354 220.319 169.398 221.286C170.481 222.253 171.95 222.736 173.806 222.736C175.701 222.736 177.189 222.291 178.272 221.402C179.355 220.474 179.896 219.275 179.896 217.806C179.896 216.607 179.529 215.621 178.794 214.848C178.059 214.074 177.131 213.475 176.01 213.05C174.927 212.586 173.419 212.083 171.486 211.542C168.857 210.768 166.711 210.014 165.048 209.28C163.424 208.506 162.013 207.366 160.814 205.858C159.654 204.311 159.074 202.262 159.074 199.71C159.074 197.312 159.673 195.224 160.872 193.446C162.071 191.667 163.753 190.314 165.918 189.386C168.083 188.419 170.558 187.936 173.342 187.936C177.518 187.936 180.901 188.961 183.492 191.01C186.121 193.021 187.571 195.843 187.842 199.478H178.91C178.833 198.086 178.233 196.945 177.112 196.056C176.029 195.128 174.579 194.664 172.762 194.664C171.177 194.664 169.901 195.07 168.934 195.882C168.006 196.694 167.542 197.873 167.542 199.42C167.542 200.502 167.89 201.411 168.586 202.146C169.321 202.842 170.21 203.422 171.254 203.886C172.337 204.311 173.845 204.814 175.778 205.394C178.407 206.167 180.553 206.941 182.216 207.714C183.879 208.487 185.309 209.647 186.508 211.194C187.707 212.74 188.306 214.771 188.306 217.284C188.306 219.449 187.745 221.46 186.624 223.316C185.503 225.172 183.859 226.66 181.694 227.782C179.529 228.864 176.957 229.406 173.98 229.406Z" fill="#577FFB"/>
<path d="M225.68 196.868V229H217.502V224.94C216.458 226.332 215.085 227.434 213.384 228.246C211.721 229.019 209.904 229.406 207.932 229.406C205.418 229.406 203.195 228.884 201.262 227.84C199.328 226.757 197.801 225.191 196.68 223.142C195.597 221.054 195.056 218.579 195.056 215.718V196.868H203.176V214.558C203.176 217.11 203.814 219.082 205.09 220.474C206.366 221.827 208.106 222.504 210.31 222.504C212.552 222.504 214.312 221.827 215.588 220.474C216.864 219.082 217.502 217.11 217.502 214.558V196.868H225.68Z" fill="#577FFB"/>
<path d="M241.811 201.566C242.855 200.019 244.286 198.762 246.103 197.796C247.959 196.829 250.067 196.346 252.425 196.346C255.171 196.346 257.645 197.022 259.849 198.376C262.092 199.729 263.851 201.663 265.127 204.176C266.442 206.651 267.099 209.531 267.099 212.818C267.099 216.104 266.442 219.024 265.127 221.576C263.851 224.089 262.092 226.042 259.849 227.434C257.645 228.826 255.171 229.522 252.425 229.522C250.028 229.522 247.921 229.058 246.103 228.13C244.325 227.163 242.894 225.926 241.811 224.418V229H233.691V186.08H241.811V201.566ZM258.805 212.818C258.805 210.884 258.399 209.222 257.587 207.83C256.814 206.399 255.77 205.317 254.455 204.582C253.179 203.847 251.787 203.48 250.279 203.48C248.81 203.48 247.418 203.866 246.103 204.64C244.827 205.374 243.783 206.457 242.971 207.888C242.198 209.318 241.811 211 241.811 212.934C241.811 214.867 242.198 216.549 242.971 217.98C243.783 219.411 244.827 220.513 246.103 221.286C247.418 222.021 248.81 222.388 250.279 222.388C251.787 222.388 253.179 222.001 254.455 221.228C255.77 220.455 256.814 219.353 257.587 217.922C258.399 216.491 258.805 214.79 258.805 212.818Z" fill="#577FFB"/>
<path d="M285.296 229.522C282.667 229.522 280.308 229.058 278.22 228.13C276.132 227.163 274.469 225.868 273.232 224.244C272.033 222.62 271.376 220.822 271.26 218.85H279.438C279.593 220.087 280.192 221.112 281.236 221.924C282.319 222.736 283.653 223.142 285.238 223.142C286.785 223.142 287.983 222.833 288.834 222.214C289.723 221.595 290.168 220.802 290.168 219.836C290.168 218.792 289.627 218.018 288.544 217.516C287.5 216.974 285.818 216.394 283.498 215.776C281.101 215.196 279.129 214.597 277.582 213.978C276.074 213.359 274.759 212.412 273.638 211.136C272.555 209.86 272.014 208.139 272.014 205.974C272.014 204.195 272.517 202.571 273.522 201.102C274.566 199.632 276.035 198.472 277.93 197.622C279.863 196.771 282.125 196.346 284.716 196.346C288.544 196.346 291.599 197.313 293.88 199.246C296.161 201.141 297.418 203.712 297.65 206.96H289.878C289.762 205.684 289.221 204.678 288.254 203.944C287.326 203.17 286.069 202.784 284.484 202.784C283.015 202.784 281.874 203.054 281.062 203.596C280.289 204.137 279.902 204.891 279.902 205.858C279.902 206.941 280.443 207.772 281.526 208.352C282.609 208.893 284.291 209.454 286.572 210.034C288.892 210.614 290.806 211.213 292.314 211.832C293.822 212.45 295.117 213.417 296.2 214.732C297.321 216.008 297.901 217.709 297.94 219.836C297.94 221.692 297.418 223.355 296.374 224.824C295.369 226.293 293.899 227.453 291.966 228.304C290.071 229.116 287.848 229.522 285.296 229.522Z" fill="#577FFB"/>
<path d="M302.518 212.934C302.518 209.608 303.194 206.709 304.548 204.234C305.901 201.72 307.776 199.787 310.174 198.434C312.571 197.042 315.316 196.346 318.41 196.346C322.392 196.346 325.679 197.351 328.27 199.362C330.899 201.334 332.658 204.118 333.548 207.714H324.79C324.326 206.322 323.533 205.239 322.412 204.466C321.329 203.654 319.976 203.248 318.352 203.248C316.032 203.248 314.195 204.099 312.842 205.8C311.488 207.463 310.812 209.84 310.812 212.934C310.812 215.988 311.488 218.366 312.842 220.068C314.195 221.73 316.032 222.562 318.352 222.562C321.638 222.562 323.784 221.092 324.79 218.154H333.548C332.658 221.634 330.899 224.398 328.27 226.448C325.64 228.497 322.354 229.522 318.41 229.522C315.316 229.522 312.571 228.845 310.174 227.492C307.776 226.1 305.901 224.167 304.548 221.692C303.194 219.178 302.518 216.259 302.518 212.934Z" fill="#577FFB"/>
<path d="M347.616 201.856C348.66 200.155 350.013 198.821 351.676 197.854C353.377 196.887 355.311 196.404 357.476 196.404V204.93H355.33C352.778 204.93 350.845 205.529 349.53 206.728C348.254 207.927 347.616 210.014 347.616 212.992V229H339.496V196.868H347.616V201.856Z" fill="#577FFB"/>
<path d="M367.063 193.04C365.633 193.04 364.434 192.595 363.467 191.706C362.539 190.778 362.075 189.637 362.075 188.284C362.075 186.93 362.539 185.809 363.467 184.92C364.434 183.992 365.633 183.528 367.063 183.528C368.494 183.528 369.673 183.992 370.601 184.92C371.568 185.809 372.051 186.93 372.051 188.284C372.051 189.637 371.568 190.778 370.601 191.706C369.673 192.595 368.494 193.04 367.063 193.04ZM371.065 196.868V229H362.945V196.868H371.065Z" fill="#577FFB"/>
<path d="M387.208 201.508C388.252 200.039 389.683 198.821 391.5 197.854C393.356 196.849 395.463 196.346 397.822 196.346C400.567 196.346 403.042 197.022 405.246 198.376C407.489 199.729 409.248 201.663 410.524 204.176C411.839 206.651 412.496 209.531 412.496 212.818C412.496 216.104 411.839 219.024 410.524 221.576C409.248 224.089 407.489 226.042 405.246 227.434C403.042 228.826 400.567 229.522 397.822 229.522C395.463 229.522 393.375 229.038 391.558 228.072C389.779 227.105 388.329 225.887 387.208 224.418V244.312H379.088V196.868H387.208V201.508ZM404.202 212.818C404.202 210.884 403.796 209.222 402.984 207.83C402.211 206.399 401.167 205.317 399.852 204.582C398.576 203.847 397.184 203.48 395.676 203.48C394.207 203.48 392.815 203.866 391.5 204.64C390.224 205.374 389.18 206.457 388.368 207.888C387.595 209.318 387.208 211 387.208 212.934C387.208 214.867 387.595 216.549 388.368 217.98C389.18 219.411 390.224 220.513 391.5 221.286C392.815 222.021 394.207 222.388 395.676 222.388C397.184 222.388 398.576 222.001 399.852 221.228C401.167 220.455 402.211 219.353 402.984 217.922C403.796 216.491 404.202 214.79 404.202 212.818Z" fill="#577FFB"/>
<path d="M427.851 203.538V219.082C427.851 220.164 428.102 220.957 428.605 221.46C429.146 221.924 430.035 222.156 431.273 222.156H435.043V229H429.939C423.095 229 419.673 225.675 419.673 219.024V203.538H415.845V196.868H419.673V188.922H427.851V196.868H435.043V203.538H427.851Z" fill="#577FFB"/>
<path d="M445.001 193.04C443.57 193.04 442.372 192.595 441.405 191.706C440.477 190.778 440.013 189.637 440.013 188.284C440.013 186.93 440.477 185.809 441.405 184.92C442.372 183.992 443.57 183.528 445.001 183.528C446.432 183.528 447.611 183.992 448.539 184.92C449.506 185.809 449.989 186.93 449.989 188.284C449.989 189.637 449.506 190.778 448.539 191.706C447.611 192.595 446.432 193.04 445.001 193.04ZM449.003 196.868V229H440.883V196.868H449.003Z" fill="#577FFB"/>
<path d="M471.293 229.522C468.2 229.522 465.416 228.845 462.941 227.492C460.467 226.1 458.514 224.147 457.083 221.634C455.691 219.121 454.995 216.22 454.995 212.934C454.995 209.647 455.711 206.747 457.141 204.234C458.611 201.72 460.602 199.787 463.115 198.434C465.629 197.042 468.432 196.346 471.525 196.346C474.619 196.346 477.422 197.042 479.935 198.434C482.449 199.787 484.421 201.72 485.851 204.234C487.321 206.747 488.055 209.647 488.055 212.934C488.055 216.22 487.301 219.121 485.793 221.634C484.324 224.147 482.313 226.1 479.761 227.492C477.248 228.845 474.425 229.522 471.293 229.522ZM471.293 222.446C472.763 222.446 474.135 222.098 475.411 221.402C476.726 220.667 477.77 219.584 478.543 218.154C479.317 216.723 479.703 214.983 479.703 212.934C479.703 209.879 478.891 207.54 477.267 205.916C475.682 204.253 473.729 203.422 471.409 203.422C469.089 203.422 467.137 204.253 465.551 205.916C464.005 207.54 463.231 209.879 463.231 212.934C463.231 215.988 463.985 218.347 465.493 220.01C467.04 221.634 468.973 222.446 471.293 222.446Z" fill="#577FFB"/>
<path d="M511.818 196.404C515.646 196.404 518.739 197.622 521.098 200.058C523.456 202.455 524.636 205.819 524.636 210.15V229H516.516V211.252C516.516 208.7 515.878 206.747 514.602 205.394C513.326 204.002 511.586 203.306 509.382 203.306C507.139 203.306 505.36 204.002 504.046 205.394C502.77 206.747 502.132 208.7 502.132 211.252V229H494.012V196.868H502.132V200.87C503.214 199.478 504.587 198.395 506.25 197.622C507.951 196.81 509.807 196.404 511.818 196.404Z" fill="#577FFB"/>
<path d="M544.653 229.522C542.024 229.522 539.665 229.058 537.577 228.13C535.489 227.163 533.827 225.868 532.589 224.244C531.391 222.62 530.733 220.822 530.617 218.85H538.795C538.95 220.087 539.549 221.112 540.593 221.924C541.676 222.736 543.01 223.142 544.595 223.142C546.142 223.142 547.341 222.833 548.191 222.214C549.081 221.595 549.525 220.802 549.525 219.836C549.525 218.792 548.984 218.018 547.901 217.516C546.857 216.974 545.175 216.394 542.855 215.776C540.458 215.196 538.486 214.597 536.939 213.978C535.431 213.359 534.117 212.412 532.995 211.136C531.913 209.86 531.371 208.139 531.371 205.974C531.371 204.195 531.874 202.571 532.879 201.102C533.923 199.632 535.393 198.472 537.287 197.622C539.221 196.771 541.483 196.346 544.073 196.346C547.901 196.346 550.956 197.313 553.237 199.246C555.519 201.141 556.775 203.712 557.007 206.96H549.235C549.119 205.684 548.578 204.678 547.611 203.944C546.683 203.17 545.427 202.784 543.841 202.784C542.372 202.784 541.231 203.054 540.419 203.596C539.646 204.137 539.259 204.891 539.259 205.858C539.259 206.941 539.801 207.772 540.883 208.352C541.966 208.893 543.648 209.454 545.929 210.034C548.249 210.614 550.163 211.213 551.671 211.832C553.179 212.45 554.475 213.417 555.557 214.732C556.679 216.008 557.259 217.709 557.297 219.836C557.297 221.692 556.775 223.355 555.731 224.824C554.726 226.293 553.257 227.453 551.323 228.304C549.429 229.116 547.205 229.522 544.653 229.522Z" fill="#577FFB"/>
<path d="M1325.33 401.666L1302 424.948L1278.67 401.666L1271.5 408.834L1302 439.334L1332.5 408.834L1325.33 401.666Z" fill="#577FFB"/>
<path d="M1325.33 611.666L1302 634.948L1278.67 611.666L1271.5 618.833L1302 649.333L1332.5 618.833L1325.33 611.666Z" fill="#577FFB"/>
<path d="M182.97 418.236C185.251 418.661 187.127 419.802 188.596 421.658C190.065 423.514 190.8 425.641 190.8 428.038C190.8 430.203 190.259 432.117 189.176 433.78C188.132 435.404 186.605 436.68 184.594 437.608C182.583 438.536 180.205 439 177.46 439H160.002V398.516H176.706C179.451 398.516 181.81 398.96 183.782 399.85C185.793 400.739 187.301 401.976 188.306 403.562C189.35 405.147 189.872 406.945 189.872 408.956C189.872 411.315 189.234 413.286 187.958 414.872C186.721 416.457 185.058 417.579 182.97 418.236ZM168.122 415.22H175.546C177.479 415.22 178.968 414.795 180.012 413.944C181.056 413.055 181.578 411.798 181.578 410.174C181.578 408.55 181.056 407.293 180.012 406.404C178.968 405.515 177.479 405.07 175.546 405.07H168.122V415.22ZM176.3 432.388C178.272 432.388 179.799 431.924 180.882 430.996C182.003 430.068 182.564 428.753 182.564 427.052C182.564 425.312 181.984 423.958 180.824 422.992C179.664 421.986 178.098 421.484 176.126 421.484H168.122V432.388H176.3Z" fill="#577FFB"/>
<path d="M227.141 422.238C227.141 423.398 227.064 424.442 226.909 425.37H203.419C203.613 427.69 204.425 429.507 205.855 430.822C207.286 432.137 209.045 432.794 211.133 432.794C214.149 432.794 216.295 431.499 217.571 428.908H226.329C225.401 432.001 223.623 434.553 220.993 436.564C218.364 438.536 215.135 439.522 211.307 439.522C208.214 439.522 205.43 438.845 202.955 437.492C200.519 436.1 198.605 434.147 197.213 431.634C195.86 429.121 195.183 426.221 195.183 422.934C195.183 419.609 195.86 416.689 197.213 414.176C198.567 411.663 200.461 409.729 202.897 408.376C205.333 407.022 208.137 406.346 211.307 406.346C214.362 406.346 217.088 407.003 219.485 408.318C221.921 409.633 223.797 411.508 225.111 413.944C226.465 416.341 227.141 419.106 227.141 422.238ZM218.731 419.918C218.693 417.83 217.939 416.167 216.469 414.93C215 413.654 213.202 413.016 211.075 413.016C209.065 413.016 207.363 413.634 205.971 414.872C204.618 416.07 203.787 417.753 203.477 419.918H218.731Z" fill="#577FFB"/>
<path d="M250.874 406.404C254.702 406.404 257.796 407.622 260.154 410.058C262.513 412.455 263.692 415.819 263.692 420.15V439H255.572V421.252C255.572 418.7 254.934 416.747 253.658 415.394C252.382 414.002 250.642 413.306 248.438 413.306C246.196 413.306 244.417 414.002 243.102 415.394C241.826 416.747 241.188 418.7 241.188 421.252V439H233.068V406.868H241.188V410.87C242.271 409.478 243.644 408.395 245.306 407.622C247.008 406.81 248.864 406.404 250.874 406.404Z" fill="#577FFB"/>
<path d="M301.284 422.238C301.284 423.398 301.207 424.442 301.052 425.37H277.562C277.755 427.69 278.567 429.507 279.998 430.822C281.429 432.137 283.188 432.794 285.276 432.794C288.292 432.794 290.438 431.499 291.714 428.908H300.472C299.544 432.001 297.765 434.553 295.136 436.564C292.507 438.536 289.278 439.522 285.45 439.522C282.357 439.522 279.573 438.845 277.098 437.492C274.662 436.1 272.748 434.147 271.356 431.634C270.003 429.121 269.326 426.221 269.326 422.934C269.326 419.609 270.003 416.689 271.356 414.176C272.709 411.663 274.604 409.729 277.04 408.376C279.476 407.022 282.279 406.346 285.45 406.346C288.505 406.346 291.231 407.003 293.628 408.318C296.064 409.633 297.939 411.508 299.254 413.944C300.607 416.341 301.284 419.106 301.284 422.238ZM292.874 419.918C292.835 417.83 292.081 416.167 290.612 414.93C289.143 413.654 287.345 413.016 285.218 413.016C283.207 413.016 281.506 413.634 280.114 414.872C278.761 416.07 277.929 417.753 277.62 419.918H292.874Z" fill="#577FFB"/>
<path d="M321.943 413.538H316.317V439H308.081V413.538H304.427V406.868H308.081V405.244C308.081 401.3 309.202 398.4 311.445 396.544C313.688 394.688 317.071 393.818 321.595 393.934V400.778C319.623 400.739 318.25 401.068 317.477 401.764C316.704 402.46 316.317 403.717 316.317 405.534V406.868H321.943V413.538Z" fill="#577FFB"/>
<path d="M331.323 403.04C329.892 403.04 328.694 402.595 327.727 401.706C326.799 400.778 326.335 399.637 326.335 398.284C326.335 396.931 326.799 395.809 327.727 394.92C328.694 393.992 329.892 393.528 331.323 393.528C332.754 393.528 333.933 393.992 334.861 394.92C335.828 395.809 336.311 396.931 336.311 398.284C336.311 399.637 335.828 400.778 334.861 401.706C333.933 402.595 332.754 403.04 331.323 403.04ZM335.325 406.868V439H327.205V406.868H335.325Z" fill="#577FFB"/>
<path d="M352.802 413.538V429.082C352.802 430.165 353.053 430.957 353.556 431.46C354.097 431.924 354.986 432.156 356.224 432.156H359.994V439H354.89C348.046 439 344.624 435.675 344.624 429.024V413.538H340.796V406.868H344.624V398.922H352.802V406.868H359.994V413.538H352.802Z" fill="#577FFB"/>
<path d="M378.13 439.522C375.501 439.522 373.142 439.058 371.054 438.13C368.966 437.163 367.303 435.868 366.066 434.244C364.867 432.62 364.21 430.822 364.094 428.85H372.272C372.427 430.087 373.026 431.112 374.07 431.924C375.153 432.736 376.487 433.142 378.072 433.142C379.619 433.142 380.817 432.833 381.668 432.214C382.557 431.595 383.002 430.802 383.002 429.836C383.002 428.792 382.461 428.019 381.378 427.516C380.334 426.975 378.652 426.394 376.332 425.776C373.935 425.196 371.963 424.597 370.416 423.978C368.908 423.359 367.593 422.412 366.472 421.136C365.389 419.86 364.848 418.139 364.848 415.974C364.848 414.195 365.351 412.571 366.356 411.102C367.4 409.633 368.869 408.472 370.764 407.622C372.697 406.771 374.959 406.346 377.55 406.346C381.378 406.346 384.433 407.312 386.714 409.246C388.995 411.14 390.252 413.712 390.484 416.96H382.712C382.596 415.684 382.055 414.679 381.088 413.944C380.16 413.171 378.903 412.784 377.318 412.784C375.849 412.784 374.708 413.054 373.896 413.596C373.123 414.137 372.736 414.891 372.736 415.858C372.736 416.94 373.277 417.772 374.36 418.352C375.443 418.893 377.125 419.454 379.406 420.034C381.726 420.614 383.64 421.213 385.148 421.832C386.656 422.451 387.951 423.417 389.034 424.732C390.155 426.008 390.735 427.709 390.774 429.836C390.774 431.692 390.252 433.355 389.208 434.824C388.203 436.293 386.733 437.453 384.8 438.304C382.905 439.116 380.682 439.522 378.13 439.522Z" fill="#577FFB"/>
</svg>
