<svg id="components-tabs-tabs-options-indicator-size-illustration" style="width: 100%; height: 100%" width="1491" height="839" viewBox="0 0 1491 839" fill="none" xmlns="http://www.w3.org/2000/svg" class="css-0"><path style="fill:var(--color-illustrationBackground010)" d="M0 4.00001C0 1.79087 1.79086 0 4 0H1486.72C1488.93 0 1490.72 1.79086 1490.72 4V834.004C1490.72 836.213 1488.93 838.004 1486.72 838.004H4.00002C1.79088 838.004 0 836.213 0 834.004V4.00001Z"></path><path style="fill:var(--color-illustrationBackground010)" d="M0 3.99999C0 1.79086 1.79085 0 3.99998 0H1486.71C1488.92 0 1490.71 1.79085 1490.71 3.99998V834C1490.71 836.209 1488.92 838 1486.71 838H4C1.79088 838 0 836.209 0 834V3.99999Z"></path><path style="fill:var(--color-illustrationHighlight010)" d="M254.838 631.12V634.08H242.718V643.48H252.558V646.44H242.718V659H239.078V631.12H254.838Z"></path><path style="fill:var(--color-illustrationHighlight010)" d="M278.674 637.08V659H275.034V655.76C274.341 656.88 273.368 657.76 272.114 658.4C270.888 659.013 269.528 659.32 268.034 659.32C266.328 659.32 264.794 658.973 263.434 658.28C262.074 657.56 260.994 656.493 260.194 655.08C259.421 653.666 259.034 651.946 259.034 649.92V637.08H262.634V649.44C262.634 651.6 263.181 653.266 264.274 654.44C265.368 655.586 266.861 656.16 268.754 656.16C270.701 656.16 272.234 655.56 273.354 654.36C274.474 653.16 275.034 651.413 275.034 649.12V637.08H278.674Z"></path><path style="fill:var(--color-illustrationHighlight010)" d="M288.46 629.4V659H284.82V629.4H288.46Z"></path><path style="fill:var(--color-illustrationHighlight010)" d="M298.304 629.4V659H294.664V629.4H298.304Z"></path><path style="fill:var(--color-illustrationHighlight010)" d="M344.372 637.08L337.532 659H333.772L328.492 641.6L323.212 659H319.452L312.572 637.08H316.292L321.332 655.48L326.772 637.08H330.492L335.812 655.52L340.772 637.08H344.372Z"></path><path style="fill:var(--color-illustrationHighlight010)" d="M349.864 633.52C349.171 633.52 348.584 633.28 348.104 632.8C347.624 632.32 347.384 631.733 347.384 631.04C347.384 630.346 347.624 629.76 348.104 629.28C348.584 628.8 349.171 628.56 349.864 628.56C350.531 628.56 351.091 628.8 351.544 629.28C352.024 629.76 352.264 630.346 352.264 631.04C352.264 631.733 352.024 632.32 351.544 632.8C351.091 633.28 350.531 633.52 349.864 633.52ZM351.624 637.08V659H347.984V637.08H351.624Z"></path><path style="fill:var(--color-illustrationHighlight010)" d="M356.468 647.96C356.468 645.72 356.921 643.76 357.828 642.08C358.735 640.373 359.975 639.053 361.548 638.12C363.148 637.186 364.935 636.72 366.908 636.72C368.615 636.72 370.201 637.12 371.668 637.92C373.135 638.693 374.255 639.72 375.028 641V629.4H378.708V659H375.028V654.88C374.308 656.186 373.241 657.266 371.828 658.12C370.415 658.946 368.761 659.36 366.868 659.36C364.921 659.36 363.148 658.88 361.548 657.92C359.975 656.96 358.735 655.613 357.828 653.88C356.921 652.146 356.468 650.173 356.468 647.96ZM375.028 648C375.028 646.346 374.695 644.906 374.028 643.68C373.361 642.453 372.455 641.52 371.308 640.88C370.188 640.213 368.948 639.88 367.588 639.88C366.228 639.88 364.988 640.2 363.868 640.84C362.748 641.48 361.855 642.413 361.188 643.64C360.521 644.866 360.188 646.306 360.188 647.96C360.188 649.64 360.521 651.106 361.188 652.36C361.855 653.586 362.748 654.533 363.868 655.2C364.988 655.84 366.228 656.16 367.588 656.16C368.948 656.16 370.188 655.84 371.308 655.2C372.455 654.533 373.361 653.586 374.028 652.36C374.695 651.106 375.028 649.653 375.028 648Z"></path><path style="fill:var(--color-illustrationHighlight010)" d="M389.299 640.08V653C389.299 654.066 389.526 654.826 389.979 655.28C390.433 655.706 391.219 655.92 392.339 655.92H395.019V659H391.739C389.713 659 388.193 658.533 387.179 657.6C386.166 656.666 385.659 655.133 385.659 653V640.08H382.819V637.08H385.659V631.56H389.299V637.08H395.019V640.08H389.299Z"></path><path style="fill:var(--color-illustrationHighlight010)" d="M410.31 636.68C411.963 636.68 413.456 637.04 414.79 637.76C416.123 638.453 417.163 639.506 417.91 640.92C418.683 642.333 419.07 644.053 419.07 646.08V659H415.47V646.6C415.47 644.413 414.923 642.746 413.83 641.6C412.736 640.426 411.243 639.84 409.35 639.84C407.43 639.84 405.896 640.44 404.75 641.64C403.63 642.84 403.07 644.586 403.07 646.88V659H399.43V629.4H403.07V640.2C403.79 639.08 404.776 638.213 406.03 637.6C407.31 636.986 408.736 636.68 410.31 636.68Z"></path><g filter="url(#nk-600)"><g clip-path="url(#nk-594)"><rect style="fill:var(--color-illustrationInterface010)" width="256.879" height="207.838" transform="translate(200.629 227)"></rect><path style="fill:var(--color-illustrationHighlight010)" d="M306.832 312.652V318.524H297.168V348.92H289.894V318.524H280.229V312.652H306.832ZM310.269 334.423C310.269 331.513 310.841 328.933 311.984 326.681C313.162 324.43 314.738 322.698 316.712 321.485C318.722 320.273 320.956 319.667 323.415 319.667C325.563 319.667 327.433 320.1 329.027 320.966C330.655 321.832 331.954 322.923 332.924 324.239V320.134H340.25V348.92H332.924V344.711C331.989 346.062 330.69 347.188 329.027 348.089C327.399 348.955 325.511 349.388 323.363 349.388C320.938 349.388 318.722 348.764 316.712 347.517C314.738 346.27 313.162 344.521 311.984 342.269C310.841 339.983 310.269 337.368 310.269 334.423ZM332.924 334.527C332.924 332.761 332.577 331.254 331.885 330.007C331.192 328.725 330.257 327.755 329.079 327.097C327.901 326.404 326.637 326.058 325.286 326.058C323.935 326.058 322.688 326.387 321.545 327.045C320.402 327.703 319.466 328.673 318.739 329.955C318.046 331.202 317.7 332.691 317.7 334.423C317.7 336.155 318.046 337.679 318.739 338.996C319.466 340.277 320.402 341.265 321.545 341.957C322.722 342.65 323.969 342.997 325.286 342.997C326.637 342.997 327.901 342.667 329.079 342.009C330.257 341.317 331.192 340.347 331.885 339.1C332.577 337.818 332.924 336.294 332.924 334.527ZM354.629 324.343C355.564 322.957 356.846 321.832 358.474 320.966C360.137 320.1 362.025 319.667 364.138 319.667C366.597 319.667 368.814 320.273 370.789 321.485C372.798 322.698 374.374 324.43 375.517 326.681C376.695 328.898 377.283 331.479 377.283 334.423C377.283 337.368 376.695 339.983 375.517 342.269C374.374 344.521 372.798 346.27 370.789 347.517C368.814 348.764 366.597 349.388 364.138 349.388C361.99 349.388 360.102 348.972 358.474 348.141C356.881 347.275 355.599 346.166 354.629 344.815V348.92H347.355V310.47H354.629V324.343ZM369.853 334.423C369.853 332.691 369.49 331.202 368.762 329.955C368.069 328.673 367.134 327.703 365.956 327.045C364.813 326.387 363.566 326.058 362.215 326.058C360.899 326.058 359.652 326.404 358.474 327.097C357.331 327.755 356.396 328.725 355.668 330.007C354.975 331.288 354.629 332.795 354.629 334.527C354.629 336.259 354.975 337.766 355.668 339.048C356.396 340.329 357.331 341.317 358.474 342.009C359.652 342.667 360.899 342.997 362.215 342.997C363.566 342.997 364.813 342.65 365.956 341.957C367.134 341.265 368.069 340.277 368.762 338.996C369.49 337.714 369.853 336.19 369.853 334.423Z"></path><g clip-path="url(#nk-595)"><rect style="fill:var(--color-illustrationHighlight010)" x="207" y="434.838" width="243.919" height="6.49494"></rect></g></g></g><path style="fill:var(--color-illustrationHighlight010)" d="M663.975 631.12V634.08H651.855V643.48H661.695V646.44H651.855V659H648.215V631.12H663.975Z"></path><path style="fill:var(--color-illustrationHighlight010)" d="M670.251 633.52C669.558 633.52 668.971 633.28 668.491 632.8C668.011 632.32 667.771 631.733 667.771 631.04C667.771 630.346 668.011 629.76 668.491 629.28C668.971 628.8 669.558 628.56 670.251 628.56C670.918 628.56 671.478 628.8 671.931 629.28C672.411 629.76 672.651 630.346 672.651 631.04C672.651 631.733 672.411 632.32 671.931 632.8C671.478 633.28 670.918 633.52 670.251 633.52ZM672.011 637.08V659H668.371V637.08H672.011Z"></path><path style="fill:var(--color-illustrationHighlight010)" d="M689.655 659L684.455 650.84L679.455 659H675.655L682.735 648.12L675.655 637.08H679.775L684.975 645.2L689.935 637.08H693.735L686.695 647.92L693.775 659H689.655Z"></path><path style="fill:var(--color-illustrationHighlight010)" d="M717.355 647.2C717.355 647.893 717.315 648.626 717.235 649.4H699.715C699.849 651.56 700.582 653.253 701.915 654.48C703.275 655.68 704.915 656.28 706.835 656.28C708.409 656.28 709.715 655.92 710.755 655.2C711.822 654.453 712.569 653.466 712.995 652.24H716.915C716.329 654.346 715.155 656.066 713.395 657.4C711.635 658.706 709.449 659.36 706.835 659.36C704.755 659.36 702.889 658.893 701.235 657.96C699.609 657.026 698.329 655.706 697.395 654C696.462 652.266 695.995 650.266 695.995 648C695.995 645.733 696.449 643.746 697.355 642.04C698.262 640.333 699.529 639.026 701.155 638.12C702.809 637.186 704.702 636.72 706.835 636.72C708.915 636.72 710.755 637.173 712.355 638.08C713.955 638.986 715.182 640.24 716.035 641.84C716.915 643.413 717.355 645.2 717.355 647.2ZM713.595 646.44C713.595 645.053 713.289 643.866 712.675 642.88C712.062 641.866 711.222 641.106 710.155 640.6C709.115 640.066 707.955 639.8 706.675 639.8C704.835 639.8 703.262 640.386 701.955 641.56C700.675 642.733 699.942 644.36 699.755 646.44H713.595Z"></path><path style="fill:var(--color-illustrationHighlight010)" d="M720.8 647.96C720.8 645.72 721.253 643.76 722.16 642.08C723.067 640.373 724.307 639.053 725.88 638.12C727.48 637.186 729.267 636.72 731.24 636.72C732.947 636.72 734.533 637.12 736 637.92C737.467 638.693 738.587 639.72 739.36 641V629.4H743.04V659H739.36V654.88C738.64 656.186 737.573 657.266 736.16 658.12C734.747 658.946 733.093 659.36 731.2 659.36C729.253 659.36 727.48 658.88 725.88 657.92C724.307 656.96 723.067 655.613 722.16 653.88C721.253 652.146 720.8 650.173 720.8 647.96ZM739.36 648C739.36 646.346 739.027 644.906 738.36 643.68C737.693 642.453 736.787 641.52 735.64 640.88C734.52 640.213 733.28 639.88 731.92 639.88C730.56 639.88 729.32 640.2 728.2 640.84C727.08 641.48 726.187 642.413 725.52 643.64C724.853 644.866 724.52 646.306 724.52 647.96C724.52 649.64 724.853 651.106 725.52 652.36C726.187 653.586 727.08 654.533 728.2 655.2C729.32 655.84 730.56 656.16 731.92 656.16C733.28 656.16 734.52 655.84 735.64 655.2C736.787 654.533 737.693 653.586 738.36 652.36C739.027 651.106 739.36 649.653 739.36 648Z"></path><path style="fill:var(--color-illustrationHighlight010)" d="M789.055 637.08L782.215 659H778.455L773.175 641.6L767.895 659H764.135L757.255 637.08H760.975L766.015 655.48L771.455 637.08H775.175L780.495 655.52L785.455 637.08H789.055Z"></path><path style="fill:var(--color-illustrationHighlight010)" d="M794.548 633.52C793.855 633.52 793.268 633.28 792.788 632.8C792.308 632.32 792.068 631.733 792.068 631.04C792.068 630.346 792.308 629.76 792.788 629.28C793.268 628.8 793.855 628.56 794.548 628.56C795.215 628.56 795.775 628.8 796.228 629.28C796.708 629.76 796.948 630.346 796.948 631.04C796.948 631.733 796.708 632.32 796.228 632.8C795.775 633.28 795.215 633.52 794.548 633.52ZM796.308 637.08V659H792.668V637.08H796.308Z"></path><path style="fill:var(--color-illustrationHighlight010)" d="M801.152 647.96C801.152 645.72 801.605 643.76 802.512 642.08C803.418 640.373 804.658 639.053 806.232 638.12C807.832 637.186 809.618 636.72 811.592 636.72C813.298 636.72 814.885 637.12 816.352 637.92C817.818 638.693 818.938 639.72 819.712 641V629.4H823.392V659H819.712V654.88C818.992 656.186 817.925 657.266 816.512 658.12C815.098 658.946 813.445 659.36 811.552 659.36C809.605 659.36 807.832 658.88 806.232 657.92C804.658 656.96 803.418 655.613 802.512 653.88C801.605 652.146 801.152 650.173 801.152 647.96ZM819.712 648C819.712 646.346 819.378 644.906 818.712 643.68C818.045 642.453 817.138 641.52 815.992 640.88C814.872 640.213 813.632 639.88 812.272 639.88C810.912 639.88 809.672 640.2 808.552 640.84C807.432 641.48 806.538 642.413 805.872 643.64C805.205 644.866 804.872 646.306 804.872 647.96C804.872 649.64 805.205 651.106 805.872 652.36C806.538 653.586 807.432 654.533 808.552 655.2C809.672 655.84 810.912 656.16 812.272 656.16C813.632 656.16 814.872 655.84 815.992 655.2C817.138 654.533 818.045 653.586 818.712 652.36C819.378 651.106 819.712 649.653 819.712 648Z"></path><path style="fill:var(--color-illustrationHighlight010)" d="M833.983 640.08V653C833.983 654.066 834.21 654.826 834.663 655.28C835.116 655.706 835.903 655.92 837.023 655.92H839.703V659H836.423C834.396 659 832.876 658.533 831.863 657.6C830.85 656.666 830.343 655.133 830.343 653V640.08H827.503V637.08H830.343V631.56H833.983V637.08H839.703V640.08H833.983Z"></path><path style="fill:var(--color-illustrationHighlight010)" d="M854.993 636.68C856.647 636.68 858.14 637.04 859.473 637.76C860.807 638.453 861.847 639.506 862.593 640.92C863.367 642.333 863.753 644.053 863.753 646.08V659H860.153V646.6C860.153 644.413 859.607 642.746 858.513 641.6C857.42 640.426 855.927 639.84 854.033 639.84C852.113 639.84 850.58 640.44 849.433 641.64C848.313 642.84 847.753 644.586 847.753 646.88V659H844.113V629.4H847.753V640.2C848.473 639.08 849.46 638.213 850.713 637.6C851.993 636.986 853.42 636.68 854.993 636.68Z"></path><g filter="url(#nk-601)"><g clip-path="url(#nk-596)"><rect style="fill:var(--color-illustrationInterface010)" width="256.879" height="207.838" transform="translate(615.762 227)"></rect><path style="fill:var(--color-illustrationHighlight010)" d="M721.965 312.652V318.524H712.301V348.92H705.026V318.524H695.362V312.652H721.965ZM725.402 334.423C725.402 331.513 725.974 328.933 727.117 326.681C728.295 324.43 729.871 322.698 731.845 321.485C733.854 320.273 736.089 319.667 738.548 319.667C740.696 319.667 742.566 320.1 744.16 320.966C745.788 321.832 747.087 322.923 748.057 324.239V320.134H755.383V348.92H748.057V344.711C747.121 346.062 745.822 347.188 744.16 348.089C742.532 348.955 740.644 349.388 738.496 349.388C736.071 349.388 733.854 348.764 731.845 347.517C729.871 346.27 728.295 344.521 727.117 342.269C725.974 339.983 725.402 337.368 725.402 334.423ZM748.057 334.527C748.057 332.761 747.71 331.254 747.017 330.007C746.325 328.725 745.389 327.755 744.212 327.097C743.034 326.404 741.77 326.058 740.419 326.058C739.068 326.058 737.821 326.387 736.677 327.045C735.534 327.703 734.599 328.673 733.872 329.955C733.179 331.202 732.832 332.691 732.832 334.423C732.832 336.155 733.179 337.679 733.872 338.996C734.599 340.277 735.534 341.265 736.677 341.957C737.855 342.65 739.102 342.997 740.419 342.997C741.77 342.997 743.034 342.667 744.212 342.009C745.389 341.317 746.325 340.347 747.017 339.1C747.71 337.818 748.057 336.294 748.057 334.527ZM769.762 324.343C770.697 322.957 771.979 321.832 773.607 320.966C775.27 320.1 777.157 319.667 779.271 319.667C781.73 319.667 783.947 320.273 785.921 321.485C787.93 322.698 789.507 324.43 790.65 326.681C791.827 328.898 792.416 331.479 792.416 334.423C792.416 337.368 791.827 339.983 790.65 342.269C789.507 344.521 787.93 346.27 785.921 347.517C783.947 348.764 781.73 349.388 779.271 349.388C777.123 349.388 775.235 348.972 773.607 348.141C772.013 347.275 770.732 346.166 769.762 344.815V348.92H762.488V310.47H769.762V324.343ZM784.986 334.423C784.986 332.691 784.622 331.202 783.895 329.955C783.202 328.673 782.267 327.703 781.089 327.045C779.946 326.387 778.699 326.058 777.348 326.058C776.032 326.058 774.785 326.404 773.607 327.097C772.464 327.755 771.529 328.725 770.801 330.007C770.108 331.288 769.762 332.795 769.762 334.527C769.762 336.259 770.108 337.766 770.801 339.048C771.529 340.329 772.464 341.317 773.607 342.009C774.785 342.667 776.032 342.997 777.348 342.997C778.699 342.997 779.946 342.65 781.089 341.957C782.267 341.265 783.202 340.277 783.895 338.996C784.622 337.714 784.986 336.19 784.986 334.423Z"></path><g clip-path="url(#clip3)"><rect style="fill:var(--color-illustrationInterface030)" width="244.134" height="6.49494" transform="translate(622.133 434.838)"></rect><rect style="fill:var(--color-illustrationHighlight010)" x="705.23" y="434.838" width="77.9393" height="6.49494"></rect></g></g></g><path style="fill:var(--color-illustrationHighlight010)" d="M1084.19 633.24H1070.15V642.36C1070.76 641.506 1071.67 640.813 1072.87 640.28C1074.07 639.72 1075.36 639.44 1076.75 639.44C1078.96 639.44 1080.76 639.906 1082.15 640.84C1083.53 641.746 1084.52 642.933 1085.11 644.4C1085.72 645.84 1086.03 647.373 1086.03 649C1086.03 650.92 1085.67 652.64 1084.95 654.16C1084.23 655.68 1083.12 656.88 1081.63 657.76C1080.16 658.64 1078.33 659.08 1076.15 659.08C1073.35 659.08 1071.08 658.36 1069.35 656.92C1067.61 655.48 1066.56 653.56 1066.19 651.16H1069.75C1070.09 652.68 1070.83 653.866 1071.95 654.72C1073.07 655.573 1074.48 656 1076.19 656C1078.29 656 1079.88 655.373 1080.95 654.12C1082.01 652.84 1082.55 651.16 1082.55 649.08C1082.55 647 1082.01 645.4 1080.95 644.28C1079.88 643.133 1078.31 642.56 1076.23 642.56C1074.81 642.56 1073.57 642.906 1072.51 643.6C1071.47 644.266 1070.71 645.186 1070.23 646.36H1066.79V630.04H1084.19V633.24Z"></path><path style="fill:var(--color-illustrationHighlight010)" d="M1090.86 644.24C1090.86 639.653 1091.61 636.08 1093.1 633.52C1094.6 630.933 1097.21 629.64 1100.94 629.64C1104.65 629.64 1107.25 630.933 1108.74 633.52C1110.24 636.08 1110.98 639.653 1110.98 644.24C1110.98 648.906 1110.24 652.533 1108.74 655.12C1107.25 657.706 1104.65 659 1100.94 659C1097.21 659 1094.6 657.706 1093.1 655.12C1091.61 652.533 1090.86 648.906 1090.86 644.24ZM1107.38 644.24C1107.38 641.92 1107.22 639.96 1106.9 638.36C1106.61 636.733 1105.98 635.426 1105.02 634.44C1104.09 633.453 1102.73 632.96 1100.94 632.96C1099.13 632.96 1097.74 633.453 1096.78 634.44C1095.85 635.426 1095.22 636.733 1094.9 638.36C1094.61 639.96 1094.46 641.92 1094.46 644.24C1094.46 646.64 1094.61 648.653 1094.9 650.28C1095.22 651.906 1095.85 653.213 1096.78 654.2C1097.74 655.186 1099.13 655.68 1100.94 655.68C1102.73 655.68 1104.09 655.186 1105.02 654.2C1105.98 653.213 1106.61 651.906 1106.9 650.28C1107.22 648.653 1107.38 646.64 1107.38 644.24Z"></path><path style="fill:var(--color-illustrationHighlight010)" d="M1115.18 636.6C1115.18 634.786 1115.73 633.346 1116.82 632.28C1117.92 631.186 1119.32 630.64 1121.02 630.64C1122.73 630.64 1124.13 631.186 1125.22 632.28C1126.32 633.346 1126.86 634.786 1126.86 636.6C1126.86 638.44 1126.32 639.906 1125.22 641C1124.13 642.066 1122.73 642.6 1121.02 642.6C1119.32 642.6 1117.92 642.066 1116.82 641C1115.73 639.906 1115.18 638.44 1115.18 636.6ZM1138.54 631.08L1122.34 659H1118.74L1134.94 631.08H1138.54ZM1121.02 632.88C1120.12 632.88 1119.4 633.2 1118.86 633.84C1118.36 634.453 1118.1 635.373 1118.1 636.6C1118.1 637.826 1118.36 638.76 1118.86 639.4C1119.4 640.04 1120.12 640.36 1121.02 640.36C1121.93 640.36 1122.65 640.04 1123.18 639.4C1123.72 638.733 1123.98 637.8 1123.98 636.6C1123.98 635.373 1123.72 634.453 1123.18 633.84C1122.65 633.2 1121.93 632.88 1121.02 632.88ZM1130.5 653.48C1130.5 651.64 1131.05 650.186 1132.14 649.12C1133.24 648.026 1134.64 647.48 1136.34 647.48C1138.05 647.48 1139.44 648.026 1140.5 649.12C1141.6 650.186 1142.14 651.64 1142.14 653.48C1142.14 655.293 1141.6 656.746 1140.5 657.84C1139.44 658.933 1138.05 659.48 1136.34 659.48C1134.64 659.48 1133.24 658.946 1132.14 657.88C1131.05 656.786 1130.5 655.32 1130.5 653.48ZM1136.3 649.76C1135.4 649.76 1134.68 650.08 1134.14 650.72C1133.61 651.333 1133.34 652.253 1133.34 653.48C1133.34 654.68 1133.61 655.6 1134.14 656.24C1134.68 656.853 1135.4 657.16 1136.3 657.16C1137.21 657.16 1137.93 656.853 1138.46 656.24C1139 655.6 1139.26 654.68 1139.26 653.48C1139.26 652.253 1139 651.333 1138.46 650.72C1137.93 650.08 1137.21 649.76 1136.3 649.76Z"></path><path style="fill:var(--color-illustrationHighlight010)" d="M1186.8 637.08L1179.96 659H1176.2L1170.92 641.6L1165.64 659H1161.88L1155 637.08H1158.72L1163.76 655.48L1169.2 637.08H1172.92L1178.24 655.52L1183.2 637.08H1186.8Z"></path><path style="fill:var(--color-illustrationHighlight010)" d="M1192.29 633.52C1191.6 633.52 1191.01 633.28 1190.53 632.8C1190.05 632.32 1189.81 631.733 1189.81 631.04C1189.81 630.346 1190.05 629.76 1190.53 629.28C1191.01 628.8 1191.6 628.56 1192.29 628.56C1192.96 628.56 1193.52 628.8 1193.97 629.28C1194.45 629.76 1194.69 630.346 1194.69 631.04C1194.69 631.733 1194.45 632.32 1193.97 632.8C1193.52 633.28 1192.96 633.52 1192.29 633.52ZM1194.05 637.08V659H1190.41V637.08H1194.05Z"></path><path style="fill:var(--color-illustrationHighlight010)" d="M1198.89 647.96C1198.89 645.72 1199.35 643.76 1200.25 642.08C1201.16 640.373 1202.4 639.053 1203.97 638.12C1205.57 637.186 1207.36 636.72 1209.33 636.72C1211.04 636.72 1212.63 637.12 1214.09 637.92C1215.56 638.693 1216.68 639.72 1217.45 641V629.4H1221.13V659H1217.45V654.88C1216.73 656.186 1215.67 657.266 1214.25 658.12C1212.84 658.946 1211.19 659.36 1209.29 659.36C1207.35 659.36 1205.57 658.88 1203.97 657.92C1202.4 656.96 1201.16 655.613 1200.25 653.88C1199.35 652.146 1198.89 650.173 1198.89 647.96ZM1217.45 648C1217.45 646.346 1217.12 644.906 1216.45 643.68C1215.79 642.453 1214.88 641.52 1213.73 640.88C1212.61 640.213 1211.37 639.88 1210.01 639.88C1208.65 639.88 1207.41 640.2 1206.29 640.84C1205.17 641.48 1204.28 642.413 1203.61 643.64C1202.95 644.866 1202.61 646.306 1202.61 647.96C1202.61 649.64 1202.95 651.106 1203.61 652.36C1204.28 653.586 1205.17 654.533 1206.29 655.2C1207.41 655.84 1208.65 656.16 1210.01 656.16C1211.37 656.16 1212.61 655.84 1213.73 655.2C1214.88 654.533 1215.79 653.586 1216.45 652.36C1217.12 651.106 1217.45 649.653 1217.45 648Z"></path><path style="fill:var(--color-illustrationHighlight010)" d="M1231.73 640.08V653C1231.73 654.066 1231.95 654.826 1232.4 655.28C1232.86 655.706 1233.65 655.92 1234.76 655.92H1237.45V659H1234.17C1232.14 659 1230.62 658.533 1229.6 657.6C1228.59 656.666 1228.09 655.133 1228.09 653V640.08H1225.24V637.08H1228.09V631.56H1231.73V637.08H1237.45V640.08H1231.73Z"></path><path style="fill:var(--color-illustrationHighlight010)" d="M1252.74 636.68C1254.39 636.68 1255.88 637.04 1257.22 637.76C1258.55 638.453 1259.59 639.506 1260.34 640.92C1261.11 642.333 1261.5 644.053 1261.5 646.08V659H1257.9V646.6C1257.9 644.413 1257.35 642.746 1256.26 641.6C1255.16 640.426 1253.67 639.84 1251.78 639.84C1249.86 639.84 1248.32 640.44 1247.18 641.64C1246.06 642.84 1245.5 644.586 1245.5 646.88V659H1241.86V629.4H1245.5V640.2C1246.22 639.08 1247.2 638.213 1248.46 637.6C1249.74 636.986 1251.16 636.68 1252.74 636.68Z"></path><g filter="url(#nk-602)"><g clip-path="url(#nk-598)"><rect style="fill:var(--color-illustrationInterface010)" width="256.879" height="207.838" transform="translate(1033.63 227)"></rect><path style="fill:var(--color-illustrationHighlight010)" d="M1139.83 312.652V318.524H1130.17V348.92H1122.89V318.524H1113.23V312.652H1139.83ZM1143.27 334.423C1143.27 331.513 1143.84 328.933 1144.98 326.681C1146.16 324.43 1147.74 322.698 1149.71 321.485C1151.72 320.273 1153.96 319.667 1156.42 319.667C1158.56 319.667 1160.43 320.1 1162.03 320.966C1163.65 321.832 1164.95 322.923 1165.92 324.239V320.134H1173.25V348.92H1165.92V344.711C1164.99 346.062 1163.69 347.188 1162.03 348.089C1160.4 348.955 1158.51 349.388 1156.36 349.388C1153.94 349.388 1151.72 348.764 1149.71 347.517C1147.74 346.27 1146.16 344.521 1144.98 342.269C1143.84 339.983 1143.27 337.368 1143.27 334.423ZM1165.92 334.527C1165.92 332.761 1165.58 331.254 1164.88 330.007C1164.19 328.725 1163.26 327.755 1162.08 327.097C1160.9 326.404 1159.64 326.058 1158.29 326.058C1156.93 326.058 1155.69 326.387 1154.54 327.045C1153.4 327.703 1152.47 328.673 1151.74 329.955C1151.05 331.202 1150.7 332.691 1150.7 334.423C1150.7 336.155 1151.05 337.679 1151.74 338.996C1152.47 340.277 1153.4 341.265 1154.54 341.957C1155.72 342.65 1156.97 342.997 1158.29 342.997C1159.64 342.997 1160.9 342.667 1162.08 342.009C1163.26 341.317 1164.19 340.347 1164.88 339.1C1165.58 337.818 1165.92 336.294 1165.92 334.527ZM1187.63 324.343C1188.56 322.957 1189.85 321.832 1191.47 320.966C1193.14 320.1 1195.02 319.667 1197.14 319.667C1199.6 319.667 1201.81 320.273 1203.79 321.485C1205.8 322.698 1207.37 324.43 1208.52 326.681C1209.69 328.898 1210.28 331.479 1210.28 334.423C1210.28 337.368 1209.69 339.983 1208.52 342.269C1207.37 344.521 1205.8 346.27 1203.79 347.517C1201.81 348.764 1199.6 349.388 1197.14 349.388C1194.99 349.388 1193.1 348.972 1191.47 348.141C1189.88 347.275 1188.6 346.166 1187.63 344.815V348.92H1180.35V310.47H1187.63V324.343ZM1202.85 334.423C1202.85 332.691 1202.49 331.202 1201.76 329.955C1201.07 328.673 1200.13 327.703 1198.96 327.045C1197.81 326.387 1196.57 326.058 1195.22 326.058C1193.9 326.058 1192.65 326.404 1191.47 327.097C1190.33 327.755 1189.4 328.725 1188.67 330.007C1187.98 331.288 1187.63 332.795 1187.63 334.527C1187.63 336.259 1187.98 337.766 1188.67 339.048C1189.4 340.329 1190.33 341.317 1191.47 342.009C1192.65 342.667 1193.9 342.997 1195.22 342.997C1196.57 342.997 1197.81 342.65 1198.96 341.957C1200.13 341.265 1201.07 340.277 1201.76 338.996C1202.49 337.714 1202.85 336.19 1202.85 334.423Z"></path><g clip-path="url(#nk-599)"><rect style="fill:var(--color-illustrationInterface030)" width="244.134" height="6.49494" transform="translate(1040 434.838)"></rect><rect style="fill:var(--color-illustrationHighlight010)" x="1097.12" y="434.838" width="129.899" height="6.49494"></rect></g></g></g><defs><filter id="nk-600" x="191" y="219" width="276.134" height="246.333" filterUnits="userSpaceOnUse" color-interpolation-filters="sRGB"><feFlood flood-opacity="0" result="BackgroundImageFix"></feFlood><feColorMatrix in="SourceAlpha" type="matrix" values="0 0 0 0 0 0 0 0 0 0 0 0 0 0 0 0 0 0 127 0"></feColorMatrix><feOffset dy="8"></feOffset><feGaussianBlur stdDeviation="8"></feGaussianBlur><feColorMatrix type="matrix" values="0 0 0 0 0.0392157 0 0 0 0 0.0392157 0 0 0 0 0.0392157 0 0 0 0.08 0"></feColorMatrix><feBlend mode="normal" in2="BackgroundImageFix" result="effect1_dropShadow"></feBlend><feBlend mode="normal" in="SourceGraphic" in2="effect1_dropShadow" result="shape"></feBlend></filter><filter id="nk-601" x="606.133" y="219" width="276.134" height="246.333" filterUnits="userSpaceOnUse" color-interpolation-filters="sRGB"><feFlood flood-opacity="0" result="BackgroundImageFix"></feFlood><feColorMatrix in="SourceAlpha" type="matrix" values="0 0 0 0 0 0 0 0 0 0 0 0 0 0 0 0 0 0 127 0"></feColorMatrix><feOffset dy="8"></feOffset><feGaussianBlur stdDeviation="8"></feGaussianBlur><feColorMatrix type="matrix" values="0 0 0 0 0.0392157 0 0 0 0 0.0392157 0 0 0 0 0.0392157 0 0 0 0.08 0"></feColorMatrix><feBlend mode="normal" in2="BackgroundImageFix" result="effect1_dropShadow"></feBlend><feBlend mode="normal" in="SourceGraphic" in2="effect1_dropShadow" result="shape"></feBlend></filter><filter id="nk-602" x="1024" y="219" width="276.134" height="246.333" filterUnits="userSpaceOnUse" color-interpolation-filters="sRGB"><feFlood flood-opacity="0" result="BackgroundImageFix"></feFlood><feColorMatrix in="SourceAlpha" type="matrix" values="0 0 0 0 0 0 0 0 0 0 0 0 0 0 0 0 0 0 127 0"></feColorMatrix><feOffset dy="8"></feOffset><feGaussianBlur stdDeviation="8"></feGaussianBlur><feColorMatrix type="matrix" values="0 0 0 0 0.0392157 0 0 0 0 0.0392157 0 0 0 0 0.0392157 0 0 0 0.08 0"></feColorMatrix><feBlend mode="normal" in2="BackgroundImageFix" result="effect1_dropShadow"></feBlend><feBlend mode="normal" in="SourceGraphic" in2="effect1_dropShadow" result="shape"></feBlend></filter><clipPath id="nk-594"><rect style="fill:var(--color-white)" x="207" y="227" width="244.134" height="214.333" rx="8"></rect></clipPath><clipPath id="nk-595"><rect style="fill:var(--color-white)" width="244.134" height="6.49494" transform="translate(207 434.838)"></rect></clipPath><clipPath id="nk-596"><rect style="fill:var(--color-white)" x="622.133" y="227" width="244.134" height="214.333" rx="8"></rect></clipPath><clipPath id="nk-597"><rect style="fill:var(--color-white)" width="244.134" height="6.49494" transform="translate(622.133 434.838)"></rect></clipPath><clipPath id="nk-598"><rect style="fill:var(--color-white)" x="1040" y="227" width="244.134" height="214.333" rx="8"></rect></clipPath><clipPath id="nk-599"><rect style="fill:var(--color-white)" width="244.134" height="6.49494" transform="translate(1040 434.838)"></rect></clipPath></defs></svg>