<svg id="components-tabs-tabs-options-label-illustration" style="width: 100%; height: 100%" width="1491" height="839" viewBox="0 0 1491 839" fill="none" xmlns="http://www.w3.org/2000/svg" class="css-0"><path style="fill:var(--color-illustrationBackground010)" d="M0 4.00001C0 1.79087 1.79086 0 4 0H1486.72C1488.93 0 1490.72 1.79086 1490.72 4V834.004C1490.72 836.213 1488.93 838.004 1486.72 838.004H4.00002C1.79088 838.004 0 836.213 0 834.004V4.00001Z"></path><g filter="url(#nk-733)"><g clip-path="url(#clip0)"><rect style="fill:var(--color-illustrationInterface010)" width="345" height="295.709" transform="translate(573 227)"></rect><path style="fill:var(--color-illustrationHighlight010)" d="M708.915 344.653V354.399H692.873V404.854H680.798V354.399H664.756V344.653H708.915ZM714.62 380.791C714.62 375.961 715.569 371.678 717.467 367.94C719.422 364.203 722.038 361.328 725.315 359.315C728.65 357.303 732.359 356.297 736.441 356.297C740.006 356.297 743.111 357.015 745.756 358.453C748.459 359.89 750.615 361.702 752.225 363.886V357.073H764.386V404.854H752.225V397.868C750.672 400.111 748.516 401.98 745.756 403.475C743.054 404.912 739.92 405.631 736.355 405.631C732.33 405.631 728.65 404.596 725.315 402.526C722.038 400.456 719.422 397.552 717.467 393.815C715.569 390.02 714.62 385.679 714.62 380.791ZM752.225 380.964C752.225 378.031 751.65 375.53 750.5 373.46C749.35 371.333 747.797 369.723 745.842 368.63C743.887 367.48 741.789 366.905 739.546 366.905C737.304 366.905 735.234 367.451 733.336 368.544C731.439 369.636 729.886 371.246 728.679 373.374C727.529 375.444 726.954 377.916 726.954 380.791C726.954 383.666 727.529 386.196 728.679 388.381C729.886 390.508 731.439 392.147 733.336 393.297C735.291 394.447 737.361 395.022 739.546 395.022C741.789 395.022 743.887 394.476 745.842 393.383C747.797 392.233 749.35 390.623 750.5 388.554C751.65 386.426 752.225 383.896 752.225 380.964ZM788.254 364.059C789.806 361.759 791.934 359.89 794.636 358.453C797.396 357.015 800.53 356.297 804.037 356.297C808.12 356.297 811.8 357.303 815.077 359.315C818.412 361.328 821.028 364.203 822.926 367.94C824.881 371.62 825.858 375.904 825.858 380.791C825.858 385.679 824.881 390.02 822.926 393.815C821.028 397.552 818.412 400.456 815.077 402.526C811.8 404.596 808.12 405.631 804.037 405.631C800.472 405.631 797.339 404.941 794.636 403.561C791.991 402.123 789.864 400.283 788.254 398.041V404.854H776.179V341.031H788.254V364.059ZM813.525 380.791C813.525 377.916 812.921 375.444 811.713 373.374C810.563 371.246 809.011 369.636 807.056 368.544C805.158 367.451 803.088 366.905 800.846 366.905C798.661 366.905 796.591 367.48 794.636 368.63C792.739 369.723 791.186 371.333 789.979 373.46C788.829 375.588 788.254 378.089 788.254 380.964C788.254 383.839 788.829 386.34 789.979 388.467C791.186 390.595 792.739 392.233 794.636 393.383C796.591 394.476 798.661 395.022 800.846 395.022C803.088 395.022 805.158 394.447 807.056 393.297C809.011 392.147 810.563 390.508 811.713 388.381C812.921 386.254 813.525 383.724 813.525 380.791Z"></path><rect style="fill:var(--color-transparent)" x="828.996" y="300.927" width="0.0061606" height="147.854"></rect><g clip-path="url(#clip1)"><rect style="fill:var(--color-illustrationHighlight010)" x="573" y="522.709" width="345.139" height="12.3212"></rect></g></g></g><path style="fill:var(--color-illustrationHighlight010)" d="M700.73 656.04H710.49V659H697.09V631.12H700.73V656.04Z"></path><path style="fill:var(--color-illustrationHighlight010)" d="M712.995 647.96C712.995 645.72 713.449 643.76 714.355 642.08C715.262 640.373 716.502 639.053 718.075 638.12C719.675 637.187 721.449 636.72 723.395 636.72C725.315 636.72 726.982 637.133 728.395 637.96C729.809 638.787 730.862 639.827 731.555 641.08V637.08H735.235V659H731.555V654.92C730.835 656.2 729.755 657.267 728.315 658.12C726.902 658.947 725.249 659.36 723.355 659.36C721.409 659.36 719.649 658.88 718.075 657.92C716.502 656.96 715.262 655.613 714.355 653.88C713.449 652.147 712.995 650.173 712.995 647.96ZM731.555 648C731.555 646.347 731.222 644.907 730.555 643.68C729.889 642.453 728.982 641.52 727.835 640.88C726.715 640.213 725.475 639.88 724.115 639.88C722.755 639.88 721.515 640.2 720.395 640.84C719.275 641.48 718.382 642.413 717.715 643.64C717.049 644.867 716.715 646.307 716.715 647.96C716.715 649.64 717.049 651.107 717.715 652.36C718.382 653.587 719.275 654.533 720.395 655.2C721.515 655.84 722.755 656.16 724.115 656.16C725.475 656.16 726.715 655.84 727.835 655.2C728.982 654.533 729.889 653.587 730.555 652.36C731.222 651.107 731.555 649.653 731.555 648Z"></path><path style="fill:var(--color-illustrationHighlight010)" d="M745.027 641.16C745.773 639.853 746.867 638.787 748.307 637.96C749.747 637.133 751.387 636.72 753.227 636.72C755.2 636.72 756.973 637.187 758.547 638.12C760.12 639.053 761.36 640.373 762.267 642.08C763.173 643.76 763.627 645.72 763.627 647.96C763.627 650.173 763.173 652.147 762.267 653.88C761.36 655.613 760.107 656.96 758.507 657.92C756.933 658.88 755.173 659.36 753.227 659.36C751.333 659.36 749.667 658.947 748.227 658.12C746.813 657.293 745.747 656.24 745.027 654.96V659H741.387V629.4H745.027V641.16ZM759.907 647.96C759.907 646.307 759.573 644.867 758.907 643.64C758.24 642.413 757.333 641.48 756.187 640.84C755.067 640.2 753.827 639.88 752.467 639.88C751.133 639.88 749.893 640.213 748.747 640.88C747.627 641.52 746.72 642.467 746.027 643.72C745.36 644.947 745.027 646.373 745.027 648C745.027 649.653 745.36 651.107 746.027 652.36C746.72 653.587 747.627 654.533 748.747 655.2C749.893 655.84 751.133 656.16 752.467 656.16C753.827 656.16 755.067 655.84 756.187 655.2C757.333 654.533 758.24 653.587 758.907 652.36C759.573 651.107 759.907 649.64 759.907 647.96Z"></path><path style="fill:var(--color-illustrationHighlight010)" d="M788.418 647.2C788.418 647.893 788.378 648.627 788.298 649.4H770.778C770.911 651.56 771.645 653.253 772.978 654.48C774.338 655.68 775.978 656.28 777.898 656.28C779.471 656.28 780.778 655.92 781.818 655.2C782.885 654.453 783.631 653.467 784.058 652.24H787.978C787.391 654.347 786.218 656.067 784.458 657.4C782.698 658.707 780.511 659.36 777.898 659.36C775.818 659.36 773.951 658.893 772.298 657.96C770.671 657.027 769.391 655.707 768.458 654C767.525 652.267 767.058 650.267 767.058 648C767.058 645.733 767.511 643.747 768.418 642.04C769.325 640.333 770.591 639.027 772.218 638.12C773.871 637.187 775.765 636.72 777.898 636.72C779.978 636.72 781.818 637.173 783.418 638.08C785.018 638.987 786.245 640.24 787.098 641.84C787.978 643.413 788.418 645.2 788.418 647.2ZM784.658 646.44C784.658 645.053 784.351 643.867 783.738 642.88C783.125 641.867 782.285 641.107 781.218 640.6C780.178 640.067 779.018 639.8 777.738 639.8C775.898 639.8 774.325 640.387 773.018 641.56C771.738 642.733 771.005 644.36 770.818 646.44H784.658Z"></path><path style="fill:var(--color-illustrationHighlight010)" d="M796.863 629.4V659H793.223V629.4H796.863Z"></path><path d="M747 423L747 595" stroke="#577FFB" stroke-width="4"></path><circle style="fill:var(--color-illustrationHighlight010)" cx="747" cy="418" r="5.5" stroke="#577FFB"></circle><defs><filter id="nk-733" x="557" y="219" width="377" height="340.03" filterUnits="userSpaceOnUse" color-interpolation-filters="sRGB"><feFlood flood-opacity="0" result="BackgroundImageFix"></feFlood><feColorMatrix in="SourceAlpha" type="matrix" values="0 0 0 0 0 0 0 0 0 0 0 0 0 0 0 0 0 0 127 0"></feColorMatrix><feOffset dy="8"></feOffset><feGaussianBlur stdDeviation="8"></feGaussianBlur><feColorMatrix type="matrix" values="0 0 0 0 0.0392157 0 0 0 0 0.0392157 0 0 0 0 0.0392157 0 0 0 0.08 0"></feColorMatrix><feBlend mode="normal" in2="BackgroundImageFix" result="effect1_dropShadow"></feBlend><feBlend mode="normal" in="SourceGraphic" in2="effect1_dropShadow" result="shape"></feBlend></filter><clipPath id="nk-731"><rect style="fill:var(--color-white)" x="573" y="227" width="345" height="308.03" rx="8"></rect></clipPath><clipPath id="nk-732"><rect style="fill:var(--color-white)" width="345" height="12.3212" transform="translate(573 522.709)"></rect></clipPath></defs></svg>