<svg id="components-tabs-tabs-options-orientation-illustration" style="width: 100%; height: 100%" width="1491" height="839" viewBox="0 0 1491 839" fill="none" xmlns="http://www.w3.org/2000/svg" class="css-0"><path style="fill:var(--color-illustrationBackground010)" d="M0 4.00001C0 1.79087 1.79086 0 4 0H1486.72C1488.93 0 1490.72 1.79086 1490.72 4V834.004C1490.72 836.213 1488.93 838.004 1486.72 838.004H4.00002C1.79088 838.004 0 836.213 0 834.004V4.00001Z"></path><g filter="url(#nk-744)"><g clip-path="url(#clip0)"><g clip-path="url(#clip1)"><rect style="fill:var(--color-illustrationInterface010)" width="217.124" height="175.68" transform="translate(623 294)"></rect><path style="fill:var(--color-illustrationHighlight010)" d="M709.433 364.074V369.864H699.903V399.84H692.729V369.864H683.198V364.074H709.433ZM712.823 385.544C712.823 382.674 713.386 380.13 714.514 377.909C715.675 375.689 717.229 373.981 719.176 372.785C721.158 371.59 723.361 370.992 725.786 370.992C727.904 370.992 729.749 371.419 731.32 372.273C732.926 373.127 734.207 374.203 735.163 375.501V371.453H742.388V399.84H735.163V395.689C734.241 397.022 732.96 398.132 731.32 399.02C729.715 399.874 727.853 400.301 725.735 400.301C723.344 400.301 721.158 399.686 719.176 398.456C717.229 397.227 715.675 395.502 714.514 393.281C713.386 391.027 712.823 388.447 712.823 385.544ZM735.163 385.646C735.163 383.904 734.822 382.418 734.138 381.188C733.455 379.925 732.533 378.968 731.371 378.319C730.21 377.636 728.963 377.294 727.631 377.294C726.299 377.294 725.069 377.619 723.942 378.268C722.814 378.917 721.892 379.873 721.175 381.137C720.492 382.367 720.15 383.836 720.15 385.544C720.15 387.252 720.492 388.755 721.175 390.053C721.892 391.317 722.814 392.29 723.942 392.974C725.103 393.657 726.333 393.998 727.631 393.998C728.963 393.998 730.21 393.674 731.371 393.025C732.533 392.342 733.455 391.385 734.138 390.155C734.822 388.892 735.163 387.389 735.163 385.646ZM756.568 375.603C757.49 374.237 758.754 373.127 760.36 372.273C761.999 371.419 763.861 370.992 765.945 370.992C768.37 370.992 770.556 371.59 772.504 372.785C774.485 373.981 776.039 375.689 777.166 377.909C778.328 380.095 778.909 382.64 778.909 385.544C778.909 388.447 778.328 391.027 777.166 393.281C776.039 395.502 774.485 397.227 772.504 398.456C770.556 399.686 768.37 400.301 765.945 400.301C763.827 400.301 761.965 399.891 760.36 399.071C758.788 398.217 757.524 397.124 756.568 395.792V399.84H749.394V361.922H756.568V375.603ZM771.581 385.544C771.581 383.836 771.223 382.367 770.505 381.137C769.822 379.873 768.9 378.917 767.738 378.268C766.611 377.619 765.381 377.294 764.049 377.294C762.751 377.294 761.521 377.636 760.36 378.319C759.232 378.968 758.31 379.925 757.593 381.188C756.91 382.452 756.568 383.938 756.568 385.646C756.568 387.354 756.91 388.84 757.593 390.104C758.31 391.368 759.232 392.342 760.36 393.025C761.521 393.674 762.751 393.998 764.049 393.998C765.381 393.998 766.611 393.657 767.738 392.974C768.9 392.29 769.822 391.317 770.505 390.053C771.223 388.789 771.581 387.286 771.581 385.544Z"></path><rect style="fill:var(--color-transparent)" x="781.559" y="337.92" width="0.00366" height="87.84"></rect><g clip-path="url(#clip2)"><rect style="fill:var(--color-illustrationHighlight010)" x="623" y="469.68" width="217.12" height="7.32"></rect></g><rect style="fill:var(--color-illustrationBorder010)" x="840.125" y="294" width="2" height="183"></rect><rect style="fill:var(--color-illustrationInterface010)" width="217.124" height="175.68" transform="translate(842.125 294)"></rect><path style="fill:var(--color-illustrationSubtle010)" d="M928.558 364.074V369.864H919.028V399.84H911.854V369.864H902.323V364.074H928.558ZM931.948 385.544C931.948 382.674 932.511 380.13 933.639 377.909C934.8 375.689 936.354 373.981 938.301 372.785C940.283 371.59 942.486 370.992 944.911 370.992C947.029 370.992 948.874 371.419 950.445 372.273C952.051 373.127 953.332 374.203 954.288 375.501V371.453H961.513V399.84H954.288V395.689C953.366 397.022 952.085 398.132 950.445 399.02C948.84 399.874 946.978 400.301 944.86 400.301C942.469 400.301 940.283 399.686 938.301 398.456C936.354 397.227 934.8 395.502 933.639 393.281C932.511 391.027 931.948 388.447 931.948 385.544ZM954.288 385.646C954.288 383.904 953.947 382.418 953.263 381.188C952.58 379.925 951.658 378.968 950.496 378.319C949.335 377.636 948.088 377.294 946.756 377.294C945.424 377.294 944.194 377.619 943.067 378.268C941.939 378.917 941.017 379.873 940.3 381.137C939.617 382.367 939.275 383.836 939.275 385.544C939.275 387.252 939.617 388.755 940.3 390.053C941.017 391.317 941.939 392.29 943.067 392.974C944.228 393.657 945.458 393.998 946.756 393.998C948.088 393.998 949.335 393.674 950.496 393.025C951.658 392.342 952.58 391.385 953.263 390.155C953.947 388.892 954.288 387.389 954.288 385.646ZM975.693 375.603C976.615 374.237 977.879 373.127 979.485 372.273C981.124 371.419 982.986 370.992 985.07 370.992C987.495 370.992 989.681 371.59 991.629 372.785C993.61 373.981 995.164 375.689 996.291 377.909C997.453 380.095 998.034 382.64 998.034 385.544C998.034 388.447 997.453 391.027 996.291 393.281C995.164 395.502 993.61 397.227 991.629 398.456C989.681 399.686 987.495 400.301 985.07 400.301C982.952 400.301 981.09 399.891 979.485 399.071C977.913 398.217 976.649 397.124 975.693 395.792V399.84H968.519V361.922H975.693V375.603ZM990.706 385.544C990.706 383.836 990.348 382.367 989.63 381.137C988.947 379.873 988.025 378.917 986.863 378.268C985.736 377.619 984.506 377.294 983.174 377.294C981.876 377.294 980.646 377.636 979.485 378.319C978.357 378.968 977.435 379.925 976.718 381.188C976.035 382.452 975.693 383.938 975.693 385.646C975.693 387.354 976.035 388.84 976.718 390.104C977.435 391.368 978.357 392.342 979.485 393.025C980.646 393.674 981.876 393.998 983.174 393.998C984.506 393.998 985.736 393.657 986.863 392.974C988.025 392.29 988.947 391.317 989.63 390.053C990.348 388.789 990.706 387.286 990.706 385.544Z"></path><rect style="fill:var(--color-transparent)" x="1000.68" y="337.92" width="0.00366" height="87.84"></rect><g clip-path="url(#clip3)"><rect style="fill:var(--color-illustrationInterface030)" width="217.124" height="7.32" transform="translate(842.125 469.68)"></rect><rect style="fill:var(--color-transparent)" x="842.125" y="469.68" width="217.12" height="7.32"></rect></g><rect style="fill:var(--color-illustrationBorder010)" x="1059.25" y="294" width="2" height="183"></rect><rect style="fill:var(--color-illustrationInterface010)" width="217.124" height="175.68" transform="translate(1061.25 294)"></rect><path style="fill:var(--color-illustrationSubtle010)" d="M1147.68 364.074V369.864H1138.15V399.84H1130.98V369.864H1121.44V364.074H1147.68ZM1151.07 385.544C1151.07 382.674 1151.63 380.13 1152.76 377.909C1153.92 375.689 1155.48 373.981 1157.42 372.785C1159.4 371.59 1161.61 370.992 1164.03 370.992C1166.15 370.992 1167.99 371.419 1169.57 372.273C1171.17 373.127 1172.45 374.203 1173.41 375.501V371.453H1180.63V399.84H1173.41V395.689C1172.49 397.022 1171.21 398.132 1169.57 399.02C1167.96 399.874 1166.1 400.301 1163.98 400.301C1161.59 400.301 1159.4 399.686 1157.42 398.456C1155.48 397.227 1153.92 395.502 1152.76 393.281C1151.63 391.027 1151.07 388.447 1151.07 385.544ZM1173.41 385.646C1173.41 383.904 1173.07 382.418 1172.38 381.188C1171.7 379.925 1170.78 378.968 1169.62 378.319C1168.46 377.636 1167.21 377.294 1165.88 377.294C1164.54 377.294 1163.32 377.619 1162.19 378.268C1161.06 378.917 1160.14 379.873 1159.42 381.137C1158.74 382.367 1158.4 383.836 1158.4 385.544C1158.4 387.252 1158.74 388.755 1159.42 390.053C1160.14 391.317 1161.06 392.29 1162.19 392.974C1163.35 393.657 1164.58 393.998 1165.88 393.998C1167.21 393.998 1168.46 393.674 1169.62 393.025C1170.78 392.342 1171.7 391.385 1172.38 390.155C1173.07 388.892 1173.41 387.389 1173.41 385.646ZM1194.81 375.603C1195.74 374.237 1197 373.127 1198.61 372.273C1200.25 371.419 1202.11 370.992 1204.19 370.992C1206.62 370.992 1208.8 371.59 1210.75 372.785C1212.73 373.981 1214.29 375.689 1215.41 377.909C1216.57 380.095 1217.15 382.64 1217.15 385.544C1217.15 388.447 1216.57 391.027 1215.41 393.281C1214.29 395.502 1212.73 397.227 1210.75 398.456C1208.8 399.686 1206.62 400.301 1204.19 400.301C1202.07 400.301 1200.21 399.891 1198.61 399.071C1197.03 398.217 1195.77 397.124 1194.81 395.792V399.84H1187.64V361.922H1194.81V375.603ZM1209.83 385.544C1209.83 383.836 1209.47 382.367 1208.75 381.137C1208.07 379.873 1207.15 378.917 1205.98 378.268C1204.86 377.619 1203.63 377.294 1202.3 377.294C1201 377.294 1199.77 377.636 1198.61 378.319C1197.48 378.968 1196.56 379.925 1195.84 381.188C1195.16 382.452 1194.81 383.938 1194.81 385.646C1194.81 387.354 1195.16 388.84 1195.84 390.104C1196.56 391.368 1197.48 392.342 1198.61 393.025C1199.77 393.674 1201 393.998 1202.3 393.998C1203.63 393.998 1204.86 393.657 1205.98 392.974C1207.15 392.29 1208.07 391.317 1208.75 390.053C1209.47 388.789 1209.83 387.286 1209.83 385.544Z"></path><rect style="fill:var(--color-transparent)" x="1219.8" y="337.92" width="0.00366" height="87.84"></rect><g clip-path="url(#clip4)"><rect style="fill:var(--color-illustrationInterface030)" width="217.124" height="7.32" transform="translate(1061.25 469.68)"></rect><rect style="fill:var(--color-transparent)" x="1061.25" y="469.68" width="217.12" height="7.32"></rect></g></g></g></g><g filter="url(#nk-745)"><g clip-path="url(#clip5)"><g clip-path="url(#clip6)"><g clip-path="url(#clip7)"><rect style="fill:var(--color-illustrationHighlight010)" x="258" y="304.044" width="164.363" height="6.83518" transform="rotate(-90 258 304.044)"></rect></g><rect style="fill:var(--color-illustrationInterface010)" width="202.366" height="164.044" transform="translate(264.836 140)"></rect><path style="fill:var(--color-illustrationHighlight010)" d="M345.544 205.126V210.532H336.645V238.522H329.946V210.532H321.047V205.126H345.544ZM348.709 225.173C348.709 222.494 349.235 220.118 350.288 218.044C351.372 215.971 352.824 214.376 354.642 213.26C356.492 212.143 358.549 211.585 360.814 211.585C362.792 211.585 364.514 211.984 365.981 212.781C367.481 213.579 368.677 214.583 369.57 215.795V212.016H376.316V238.522H369.57V234.647C368.709 235.891 367.513 236.928 365.981 237.757C364.482 238.554 362.744 238.953 360.766 238.953C358.533 238.953 356.492 238.379 354.642 237.231C352.824 236.082 351.372 234.471 350.288 232.398C349.235 230.293 348.709 227.885 348.709 225.173ZM369.57 225.269C369.57 223.642 369.251 222.255 368.613 221.106C367.975 219.926 367.114 219.033 366.029 218.427C364.945 217.789 363.781 217.47 362.537 217.47C361.293 217.47 360.144 217.773 359.092 218.379C358.039 218.985 357.178 219.878 356.508 221.059C355.87 222.207 355.551 223.578 355.551 225.173C355.551 226.768 355.87 228.172 356.508 229.384C357.178 230.564 358.039 231.473 359.092 232.111C360.176 232.749 361.324 233.068 362.537 233.068C363.781 233.068 364.945 232.765 366.029 232.159C367.114 231.521 367.975 230.628 368.613 229.48C369.251 228.299 369.57 226.896 369.57 225.269ZM389.557 215.891C390.418 214.615 391.598 213.579 393.098 212.781C394.629 211.984 396.367 211.585 398.313 211.585C400.578 211.585 402.619 212.143 404.437 213.26C406.287 214.376 407.739 215.971 408.791 218.044C409.876 220.086 410.418 222.462 410.418 225.173C410.418 227.885 409.876 230.293 408.791 232.398C407.739 234.471 406.287 236.082 404.437 237.231C402.619 238.379 400.578 238.953 398.313 238.953C396.335 238.953 394.597 238.57 393.098 237.805C391.63 237.007 390.45 235.987 389.557 234.743V238.522H382.858V203.116H389.557V215.891ZM403.576 225.173C403.576 223.578 403.241 222.207 402.571 221.059C401.933 219.878 401.072 218.985 399.987 218.379C398.935 217.773 397.787 217.47 396.542 217.47C395.33 217.47 394.182 217.789 393.098 218.427C392.045 219.033 391.184 219.926 390.514 221.106C389.876 222.287 389.557 223.674 389.557 225.269C389.557 226.864 389.876 228.251 390.514 229.432C391.184 230.612 392.045 231.521 393.098 232.159C394.182 232.765 395.33 233.068 396.542 233.068C397.787 233.068 398.935 232.749 399.987 232.111C401.072 231.473 401.933 230.564 402.571 229.384C403.241 228.204 403.576 226.8 403.576 225.173Z"></path><rect style="fill:var(--color-transparent)" x="412.516" y="181.011" width="0.00341759" height="82.0222"></rect><rect style="fill:var(--color-illustrationBorder010)" x="258" y="304.044" width="209.201" height="1"></rect><g clip-path="url(#clip8)"><rect style="fill:var(--color-illustrationInterface030)" width="164.044" height="6.83518" transform="translate(258 469.089) rotate(-90)"></rect><rect style="fill:var(--color-transparent)" x="258" y="469.089" width="164.363" height="6.83518" transform="rotate(-90 258 469.089)"></rect></g><rect style="fill:var(--color-illustrationInterface010)" width="202.366" height="164.044" transform="translate(264.836 305.044)"></rect><path style="fill:var(--color-illustrationSubtle010)" d="M345.544 370.17V375.577H336.645V403.567H329.946V375.577H321.047V370.17H345.544ZM348.709 390.218C348.709 387.538 349.235 385.162 350.288 383.089C351.372 381.015 352.824 379.42 354.642 378.304C356.492 377.188 358.549 376.629 360.814 376.629C362.792 376.629 364.514 377.028 365.981 377.826C367.481 378.623 368.677 379.628 369.57 380.84V377.06H376.316V403.567H369.57V399.691C368.709 400.935 367.513 401.972 365.981 402.801C364.482 403.599 362.744 403.998 360.766 403.998C358.533 403.998 356.492 403.423 354.642 402.275C352.824 401.127 351.372 399.516 350.288 397.443C349.235 395.337 348.709 392.929 348.709 390.218ZM369.57 390.313C369.57 388.687 369.251 387.299 368.613 386.151C367.975 384.971 367.114 384.078 366.029 383.471C364.945 382.834 363.781 382.515 362.537 382.515C361.293 382.515 360.144 382.818 359.092 383.424C358.039 384.03 357.178 384.923 356.508 386.103C355.87 387.251 355.551 388.623 355.551 390.218C355.551 391.813 355.87 393.216 356.508 394.428C357.178 395.608 358.039 396.518 359.092 397.155C360.176 397.793 361.324 398.112 362.537 398.112C363.781 398.112 364.945 397.809 366.029 397.203C367.114 396.565 367.975 395.672 368.613 394.524C369.251 393.344 369.57 391.94 369.57 390.313ZM389.557 380.936C390.418 379.66 391.598 378.623 393.098 377.826C394.629 377.028 396.367 376.629 398.313 376.629C400.578 376.629 402.619 377.188 404.437 378.304C406.287 379.42 407.739 381.015 408.791 383.089C409.876 385.13 410.418 387.506 410.418 390.218C410.418 392.929 409.876 395.337 408.791 397.443C407.739 399.516 406.287 401.127 404.437 402.275C402.619 403.423 400.578 403.998 398.313 403.998C396.335 403.998 394.597 403.615 393.098 402.849C391.63 402.052 390.45 401.031 389.557 399.787V403.567H382.858V368.161H389.557V380.936ZM403.576 390.218C403.576 388.623 403.241 387.251 402.571 386.103C401.933 384.923 401.072 384.03 399.987 383.424C398.935 382.818 397.787 382.515 396.542 382.515C395.33 382.515 394.182 382.834 393.098 383.471C392.045 384.078 391.184 384.971 390.514 386.151C389.876 387.331 389.557 388.719 389.557 390.313C389.557 391.908 389.876 393.296 390.514 394.476C391.184 395.656 392.045 396.565 393.098 397.203C394.182 397.809 395.33 398.112 396.542 398.112C397.787 398.112 398.935 397.793 399.987 397.155C401.072 396.518 401.933 395.608 402.571 394.428C403.241 393.248 403.576 391.845 403.576 390.218Z"></path><rect style="fill:var(--color-transparent)" x="412.516" y="346.056" width="0.00341759" height="82.0222"></rect><rect style="fill:var(--color-illustrationBorder010)" x="258" y="469.089" width="209.201" height="1"></rect><g clip-path="url(#clip9)"><rect style="fill:var(--color-illustrationInterface030)" width="164.044" height="6.83518" transform="translate(258 634.133) rotate(-90)"></rect><rect style="fill:var(--color-transparent)" x="258" y="634.133" width="164.363" height="6.83518" transform="rotate(-90 258 634.133)"></rect></g><rect style="fill:var(--color-illustrationInterface010)" width="202.366" height="164.044" transform="translate(264.836 470.089)"></rect><path style="fill:var(--color-illustrationSubtle010)" d="M345.544 535.215V540.621H336.645V568.611H329.946V540.621H321.047V535.215H345.544ZM348.709 555.262C348.709 552.583 349.235 550.206 350.288 548.133C351.372 546.06 352.824 544.465 354.642 543.349C356.492 542.232 358.549 541.674 360.814 541.674C362.792 541.674 364.514 542.073 365.981 542.87C367.481 543.667 368.677 544.672 369.57 545.884V542.104H376.316V568.611H369.57V564.736C368.709 565.98 367.513 567.016 365.981 567.846C364.482 568.643 362.744 569.042 360.766 569.042C358.533 569.042 356.492 568.468 354.642 567.319C352.824 566.171 351.372 564.56 350.288 562.487C349.235 560.382 348.709 557.974 348.709 555.262ZM369.57 555.358C369.57 553.731 369.251 552.344 368.613 551.195C367.975 550.015 367.114 549.122 366.029 548.516C364.945 547.878 363.781 547.559 362.537 547.559C361.293 547.559 360.144 547.862 359.092 548.468C358.039 549.074 357.178 549.967 356.508 551.147C355.87 552.296 355.551 553.667 355.551 555.262C355.551 556.857 355.87 558.261 356.508 559.473C357.178 560.653 358.039 561.562 359.092 562.2C360.176 562.838 361.324 563.157 362.537 563.157C363.781 563.157 364.945 562.854 366.029 562.248C367.114 561.61 367.975 560.717 368.613 559.568C369.251 558.388 369.57 556.985 369.57 555.358ZM389.557 545.98C390.418 544.704 391.598 543.667 393.098 542.87C394.629 542.073 396.367 541.674 398.313 541.674C400.578 541.674 402.619 542.232 404.437 543.349C406.287 544.465 407.739 546.06 408.791 548.133C409.876 550.175 410.418 552.551 410.418 555.262C410.418 557.974 409.876 560.382 408.791 562.487C407.739 564.56 406.287 566.171 404.437 567.319C402.619 568.468 400.578 569.042 398.313 569.042C396.335 569.042 394.597 568.659 393.098 567.894C391.63 567.096 390.45 566.075 389.557 564.831V568.611H382.858V533.205H389.557V545.98ZM403.576 555.262C403.576 553.667 403.241 552.296 402.571 551.147C401.933 549.967 401.072 549.074 399.987 548.468C398.935 547.862 397.787 547.559 396.542 547.559C395.33 547.559 394.182 547.878 393.098 548.516C392.045 549.122 391.184 550.015 390.514 551.195C389.876 552.375 389.557 553.763 389.557 555.358C389.557 556.953 389.876 558.34 390.514 559.521C391.184 560.701 392.045 561.61 393.098 562.248C394.182 562.854 395.33 563.157 396.542 563.157C397.787 563.157 398.935 562.838 399.987 562.2C401.072 561.562 401.933 560.653 402.571 559.473C403.241 558.292 403.576 556.889 403.576 555.262Z"></path><rect style="fill:var(--color-transparent)" x="412.516" y="511.1" width="0.00341759" height="82.0222"></rect></g></g></g><path style="fill:var(--color-illustrationHighlight010)" d="M876.48 719.12V747H872.84V734.36H858.64V747H855V719.12H858.64V731.36H872.84V719.12H876.48Z"></path><path style="fill:var(--color-illustrationHighlight010)" d="M892.255 747.36C890.202 747.36 888.335 746.893 886.655 745.96C885.002 745.027 883.695 743.707 882.735 742C881.802 740.267 881.335 738.267 881.335 736C881.335 733.76 881.815 731.787 882.775 730.08C883.762 728.347 885.095 727.027 886.775 726.12C888.455 725.187 890.335 724.72 892.415 724.72C894.495 724.72 896.375 725.187 898.055 726.12C899.735 727.027 901.055 728.333 902.015 730.04C903.002 731.747 903.495 733.733 903.495 736C903.495 738.267 902.989 740.267 901.975 742C900.989 743.707 899.642 745.027 897.935 745.96C896.229 746.893 894.335 747.36 892.255 747.36ZM892.255 744.16C893.562 744.16 894.789 743.853 895.935 743.24C897.082 742.627 898.002 741.707 898.695 740.48C899.415 739.253 899.775 737.76 899.775 736C899.775 734.24 899.429 732.747 898.735 731.52C898.042 730.293 897.135 729.387 896.015 728.8C894.895 728.187 893.682 727.88 892.375 727.88C891.042 727.88 889.815 728.187 888.695 728.8C887.602 729.387 886.722 730.293 886.055 731.52C885.389 732.747 885.055 734.24 885.055 736C885.055 737.787 885.375 739.293 886.015 740.52C886.682 741.747 887.562 742.667 888.655 743.28C889.749 743.867 890.949 744.16 892.255 744.16Z"></path><path style="fill:var(--color-illustrationHighlight010)" d="M911.921 728.64C912.561 727.387 913.468 726.413 914.641 725.72C915.841 725.027 917.295 724.68 919.001 724.68V728.44H918.041C913.961 728.44 911.921 730.653 911.921 735.08V747H908.281V725.08H911.921V728.64Z"></path><path style="fill:var(--color-illustrationHighlight010)" d="M925.083 721.52C924.39 721.52 923.803 721.28 923.323 720.8C922.843 720.32 922.603 719.733 922.603 719.04C922.603 718.347 922.843 717.76 923.323 717.28C923.803 716.8 924.39 716.56 925.083 716.56C925.75 716.56 926.31 716.8 926.763 717.28C927.243 717.76 927.483 718.347 927.483 719.04C927.483 719.733 927.243 720.32 926.763 720.8C926.31 721.28 925.75 721.52 925.083 721.52ZM926.843 725.08V747H923.203V725.08H926.843Z"></path><path style="fill:var(--color-illustrationHighlight010)" d="M935.767 744H946.527V747H931.607V744L942.247 728.04H931.687V725.08H946.447V728.04L935.767 744Z"></path><path style="fill:var(--color-illustrationHighlight010)" d="M960.81 747.36C958.757 747.36 956.89 746.893 955.21 745.96C953.557 745.027 952.25 743.707 951.29 742C950.357 740.267 949.89 738.267 949.89 736C949.89 733.76 950.37 731.787 951.33 730.08C952.317 728.347 953.65 727.027 955.33 726.12C957.01 725.187 958.89 724.72 960.97 724.72C963.05 724.72 964.93 725.187 966.61 726.12C968.29 727.027 969.61 728.333 970.57 730.04C971.557 731.747 972.05 733.733 972.05 736C972.05 738.267 971.543 740.267 970.53 742C969.543 743.707 968.197 745.027 966.49 745.96C964.783 746.893 962.89 747.36 960.81 747.36ZM960.81 744.16C962.117 744.16 963.343 743.853 964.49 743.24C965.637 742.627 966.557 741.707 967.25 740.48C967.97 739.253 968.33 737.76 968.33 736C968.33 734.24 967.983 732.747 967.29 731.52C966.597 730.293 965.69 729.387 964.57 728.8C963.45 728.187 962.237 727.88 960.93 727.88C959.597 727.88 958.37 728.187 957.25 728.8C956.157 729.387 955.277 730.293 954.61 731.52C953.943 732.747 953.61 734.24 953.61 736C953.61 737.787 953.93 739.293 954.57 740.52C955.237 741.747 956.117 742.667 957.21 743.28C958.303 743.867 959.503 744.16 960.81 744.16Z"></path><path style="fill:var(--color-illustrationHighlight010)" d="M987.516 724.68C990.183 724.68 992.343 725.493 993.996 727.12C995.649 728.72 996.476 731.04 996.476 734.08V747H992.876V734.6C992.876 732.413 992.329 730.747 991.236 729.6C990.143 728.427 988.649 727.84 986.756 727.84C984.836 727.84 983.303 728.44 982.156 729.64C981.036 730.84 980.476 732.587 980.476 734.88V747H976.836V725.08H980.476V728.2C981.196 727.08 982.169 726.213 983.396 725.6C984.649 724.987 986.023 724.68 987.516 724.68Z"></path><path style="fill:var(--color-illustrationHighlight010)" d="M1006.86 728.08V741C1006.86 742.067 1007.09 742.827 1007.54 743.28C1008 743.707 1008.78 743.92 1009.9 743.92H1012.58V747H1009.3C1007.28 747 1005.76 746.533 1004.74 745.6C1003.73 744.667 1003.22 743.133 1003.22 741V728.08H1000.38V725.08H1003.22V719.56H1006.86V725.08H1012.58V728.08H1006.86Z"></path><path style="fill:var(--color-illustrationHighlight010)" d="M1015.63 735.96C1015.63 733.72 1016.09 731.76 1016.99 730.08C1017.9 728.373 1019.14 727.053 1020.71 726.12C1022.31 725.187 1024.09 724.72 1026.03 724.72C1027.95 724.72 1029.62 725.133 1031.03 725.96C1032.45 726.787 1033.5 727.827 1034.19 729.08V725.08H1037.87V747H1034.19V742.92C1033.47 744.2 1032.39 745.267 1030.95 746.12C1029.54 746.947 1027.89 747.36 1025.99 747.36C1024.05 747.36 1022.29 746.88 1020.71 745.92C1019.14 744.96 1017.9 743.613 1016.99 741.88C1016.09 740.147 1015.63 738.173 1015.63 735.96ZM1034.19 736C1034.19 734.347 1033.86 732.907 1033.19 731.68C1032.53 730.453 1031.62 729.52 1030.47 728.88C1029.35 728.213 1028.11 727.88 1026.75 727.88C1025.39 727.88 1024.15 728.2 1023.03 728.84C1021.91 729.48 1021.02 730.413 1020.35 731.64C1019.69 732.867 1019.35 734.307 1019.35 735.96C1019.35 737.64 1019.69 739.107 1020.35 740.36C1021.02 741.587 1021.91 742.533 1023.03 743.2C1024.15 743.84 1025.39 744.16 1026.75 744.16C1028.11 744.16 1029.35 743.84 1030.47 743.2C1031.62 742.533 1032.53 741.587 1033.19 740.36C1033.86 739.107 1034.19 737.653 1034.19 736Z"></path><path style="fill:var(--color-illustrationHighlight010)" d="M1047.66 717.4V747H1044.02V717.4H1047.66Z"></path><path style="fill:var(--color-illustrationHighlight010)" d="M309.119 719.12L298.599 747H294.399L283.879 719.12H287.759L296.519 743.16L305.279 719.12H309.119Z"></path><path style="fill:var(--color-illustrationHighlight010)" d="M333.11 735.2C333.11 735.893 333.07 736.627 332.99 737.4H315.47C315.603 739.56 316.337 741.253 317.67 742.48C319.03 743.68 320.67 744.28 322.59 744.28C324.163 744.28 325.47 743.92 326.51 743.2C327.577 742.453 328.323 741.467 328.75 740.24H332.67C332.083 742.347 330.91 744.067 329.15 745.4C327.39 746.707 325.203 747.36 322.59 747.36C320.51 747.36 318.643 746.893 316.99 745.96C315.363 745.027 314.083 743.707 313.15 742C312.217 740.267 311.75 738.267 311.75 736C311.75 733.733 312.203 731.747 313.11 730.04C314.017 728.333 315.283 727.027 316.91 726.12C318.563 725.187 320.457 724.72 322.59 724.72C324.67 724.72 326.51 725.173 328.11 726.08C329.71 726.987 330.937 728.24 331.79 729.84C332.67 731.413 333.11 733.2 333.11 735.2ZM329.35 734.44C329.35 733.053 329.043 731.867 328.43 730.88C327.817 729.867 326.977 729.107 325.91 728.6C324.87 728.067 323.71 727.8 322.43 727.8C320.59 727.8 319.017 728.387 317.71 729.56C316.43 730.733 315.697 732.36 315.51 734.44H329.35Z"></path><path style="fill:var(--color-illustrationHighlight010)" d="M341.555 728.64C342.195 727.387 343.102 726.413 344.275 725.72C345.475 725.027 346.928 724.68 348.635 724.68V728.44H347.675C343.595 728.44 341.555 730.653 341.555 735.08V747H337.915V725.08H341.555V728.64Z"></path><path style="fill:var(--color-illustrationHighlight010)" d="M357.277 728.08V741C357.277 742.067 357.503 742.827 357.957 743.28C358.41 743.707 359.197 743.92 360.317 743.92H362.997V747H359.717C357.69 747 356.17 746.533 355.157 745.6C354.143 744.667 353.637 743.133 353.637 741V728.08H350.797V725.08H353.637V719.56H357.277V725.08H362.997V728.08H357.277Z"></path><path style="fill:var(--color-illustrationHighlight010)" d="M369.287 721.52C368.594 721.52 368.007 721.28 367.527 720.8C367.047 720.32 366.807 719.733 366.807 719.04C366.807 718.347 367.047 717.76 367.527 717.28C368.007 716.8 368.594 716.56 369.287 716.56C369.954 716.56 370.514 716.8 370.967 717.28C371.447 717.76 371.687 718.347 371.687 719.04C371.687 719.733 371.447 720.32 370.967 720.8C370.514 721.28 369.954 721.52 369.287 721.52ZM371.047 725.08V747H367.407V725.08H371.047Z"></path><path style="fill:var(--color-illustrationHighlight010)" d="M375.891 736C375.891 733.733 376.344 731.76 377.251 730.08C378.157 728.373 379.411 727.053 381.011 726.12C382.637 725.187 384.491 724.72 386.571 724.72C389.264 724.72 391.477 725.373 393.211 726.68C394.971 727.987 396.131 729.8 396.691 732.12H392.771C392.397 730.787 391.664 729.733 390.571 728.96C389.504 728.187 388.171 727.8 386.571 727.8C384.491 727.8 382.811 728.52 381.531 729.96C380.251 731.373 379.611 733.387 379.611 736C379.611 738.64 380.251 740.68 381.531 742.12C382.811 743.56 384.491 744.28 386.571 744.28C388.171 744.28 389.504 743.907 390.571 743.16C391.637 742.413 392.371 741.347 392.771 739.96H396.691C396.104 742.2 394.931 744 393.171 745.36C391.411 746.693 389.211 747.36 386.571 747.36C384.491 747.36 382.637 746.893 381.011 745.96C379.411 745.027 378.157 743.707 377.251 742C376.344 740.293 375.891 738.293 375.891 736Z"></path><path style="fill:var(--color-illustrationHighlight010)" d="M400.188 735.96C400.188 733.72 400.641 731.76 401.548 730.08C402.454 728.373 403.694 727.053 405.268 726.12C406.868 725.187 408.641 724.72 410.588 724.72C412.508 724.72 414.174 725.133 415.588 725.96C417.001 726.787 418.054 727.827 418.748 729.08V725.08H422.428V747H418.748V742.92C418.028 744.2 416.948 745.267 415.508 746.12C414.094 746.947 412.441 747.36 410.548 747.36C408.601 747.36 406.841 746.88 405.268 745.92C403.694 744.96 402.454 743.613 401.548 741.88C400.641 740.147 400.188 738.173 400.188 735.96ZM418.748 736C418.748 734.347 418.414 732.907 417.748 731.68C417.081 730.453 416.174 729.52 415.028 728.88C413.908 728.213 412.668 727.88 411.308 727.88C409.948 727.88 408.708 728.2 407.588 728.84C406.468 729.48 405.574 730.413 404.908 731.64C404.241 732.867 403.908 734.307 403.908 735.96C403.908 737.64 404.241 739.107 404.908 740.36C405.574 741.587 406.468 742.533 407.588 743.2C408.708 743.84 409.948 744.16 411.308 744.16C412.668 744.16 413.908 743.84 415.028 743.2C416.174 742.533 417.081 741.587 417.748 740.36C418.414 739.107 418.748 737.653 418.748 736Z"></path><path style="fill:var(--color-illustrationHighlight010)" d="M432.219 717.4V747H428.579V717.4H432.219Z"></path><defs><filter id="nk-744" x="607" y="286" width="687.371" height="215" filterUnits="userSpaceOnUse" color-interpolation-filters="sRGB"><feFlood flood-opacity="0" result="BackgroundImageFix"></feFlood><feColorMatrix in="SourceAlpha" type="matrix" values="0 0 0 0 0 0 0 0 0 0 0 0 0 0 0 0 0 0 127 0"></feColorMatrix><feOffset dy="8"></feOffset><feGaussianBlur stdDeviation="8"></feGaussianBlur><feColorMatrix type="matrix" values="0 0 0 0 0.0392157 0 0 0 0 0.0392157 0 0 0 0 0.0392157 0 0 0 0.08 0"></feColorMatrix><feBlend mode="normal" in2="BackgroundImageFix" result="effect1_dropShadow"></feBlend><feBlend mode="normal" in="SourceGraphic" in2="effect1_dropShadow" result="shape"></feBlend></filter><filter id="nk-745" x="242" y="132" width="241.201" height="526.133" filterUnits="userSpaceOnUse" color-interpolation-filters="sRGB"><feFlood flood-opacity="0" result="BackgroundImageFix"></feFlood><feColorMatrix in="SourceAlpha" type="matrix" values="0 0 0 0 0 0 0 0 0 0 0 0 0 0 0 0 0 0 127 0"></feColorMatrix><feOffset dy="8"></feOffset><feGaussianBlur stdDeviation="8"></feGaussianBlur><feColorMatrix type="matrix" values="0 0 0 0 0.0392157 0 0 0 0 0.0392157 0 0 0 0 0.0392157 0 0 0 0.08 0"></feColorMatrix><feBlend mode="normal" in2="BackgroundImageFix" result="effect1_dropShadow"></feBlend><feBlend mode="normal" in="SourceGraphic" in2="effect1_dropShadow" result="shape"></feBlend></filter><clipPath id="nk-734"><rect style="fill:var(--color-white)" x="623" y="294" width="655.371" height="183" rx="8"></rect></clipPath><clipPath id="nk-735"><rect style="fill:var(--color-white)" width="655.371" height="183" transform="translate(623 294)"></rect></clipPath><clipPath id="nk-736"><rect style="fill:var(--color-white)" width="217.124" height="7.32" transform="translate(623 469.68)"></rect></clipPath><clipPath id="nk-737"><rect style="fill:var(--color-white)" width="217.124" height="7.32" transform="translate(842.125 469.68)"></rect></clipPath><clipPath id="nk-738"><rect style="fill:var(--color-white)" width="217.124" height="7.32" transform="translate(1061.25 469.68)"></rect></clipPath><clipPath id="nk-739"><rect style="fill:var(--color-white)" x="258" y="140" width="209.201" height="494.133" rx="8"></rect></clipPath><clipPath id="nk-740"><rect style="fill:var(--color-white)" width="209.201" height="494.133" transform="translate(258 140)"></rect></clipPath><clipPath id="nk-741"><rect style="fill:var(--color-white)" width="164.044" height="6.83518" transform="translate(258 304.044) rotate(-90)"></rect></clipPath><clipPath id="nk-742"><rect style="fill:var(--color-white)" width="164.044" height="6.83518" transform="translate(258 469.089) rotate(-90)"></rect></clipPath><clipPath id="nk-743"><rect style="fill:var(--color-white)" width="164.044" height="6.83518" transform="translate(258 634.133) rotate(-90)"></rect></clipPath></defs></svg>