<svg
  id="nksvg"
  style="width: 100%; height: 100%"
  width="1491"
  height="839"
  viewBox="0 0 1491 839"
  fill="none"
  xmlns="http://www.w3.org/2000/svg"
  class="css-0"
>
  <path
    style="fill: var(--color-illustrationBackground010)"
    d="M0 4.00001C0 1.79087 1.79086 0 4 0H1486.72C1488.93 0 1490.72 1.79086 1490.72 4V834.004C1490.72 836.213 1488.93 838.004 1486.72 838.004H4.00002C1.79088 838.004 0 836.213 0 834.004V4.00001Z"
  ></path>
  <g >
    <g clip-path="url(#nk-443)">
      <rect
        style="fill: var(--color-illustrationInterface010)"
        width="256.879"
        height="207.838"
        transform="translate(200.629 237)"
      ></rect>
      <path
        style="fill: var(--color-illustrationHighlight010)"
        d="M306.832 322.652V328.524H297.168V358.92H289.894V328.524H280.229V322.652H306.832ZM310.269 344.423C310.269 341.513 310.841 338.933 311.984 336.681C313.162 334.43 314.738 332.698 316.712 331.485C318.722 330.273 320.956 329.667 323.415 329.667C325.563 329.667 327.433 330.1 329.027 330.966C330.655 331.832 331.954 332.923 332.924 334.239V330.134H340.25V358.92H332.924V354.711C331.989 356.062 330.69 357.188 329.027 358.089C327.399 358.955 325.511 359.388 323.363 359.388C320.938 359.388 318.722 358.764 316.712 357.517C314.738 356.27 313.162 354.521 311.984 352.269C310.841 349.983 310.269 347.368 310.269 344.423ZM332.924 344.527C332.924 342.761 332.577 341.254 331.885 340.007C331.192 338.725 330.257 337.755 329.079 337.097C327.901 336.404 326.637 336.058 325.286 336.058C323.935 336.058 322.688 336.387 321.545 337.045C320.402 337.703 319.466 338.673 318.739 339.955C318.046 341.202 317.7 342.691 317.7 344.423C317.7 346.155 318.046 347.679 318.739 348.996C319.466 350.277 320.402 351.265 321.545 351.957C322.722 352.65 323.969 352.997 325.286 352.997C326.637 352.997 327.901 352.667 329.079 352.009C330.257 351.317 331.192 350.347 331.885 349.1C332.577 347.818 332.924 346.294 332.924 344.527ZM354.629 334.343C355.564 332.957 356.846 331.832 358.474 330.966C360.137 330.1 362.025 329.667 364.138 329.667C366.597 329.667 368.814 330.273 370.789 331.485C372.798 332.698 374.374 334.43 375.517 336.681C376.695 338.898 377.283 341.479 377.283 344.423C377.283 347.368 376.695 349.983 375.517 352.269C374.374 354.521 372.798 356.27 370.789 357.517C368.814 358.764 366.597 359.388 364.138 359.388C361.99 359.388 360.102 358.972 358.474 358.141C356.881 357.275 355.599 356.166 354.629 354.815V358.92H347.355V320.47H354.629V334.343ZM369.853 344.423C369.853 342.691 369.49 341.202 368.762 339.955C368.069 338.673 367.134 337.703 365.956 337.045C364.813 336.387 363.566 336.058 362.215 336.058C360.899 336.058 359.652 336.404 358.474 337.097C357.331 337.755 356.396 338.725 355.668 340.007C354.975 341.288 354.629 342.795 354.629 344.527C354.629 346.259 354.975 347.766 355.668 349.048C356.396 350.329 357.331 351.317 358.474 352.009C359.652 352.667 360.899 352.997 362.215 352.997C363.566 352.997 364.813 352.65 365.956 351.957C367.134 351.265 368.069 350.277 368.762 348.996C369.49 347.714 369.853 346.19 369.853 344.423Z"
      ></path>
      <g clip-path="url(#nk-444)">
        <rect
          style="fill: var(--color-illustrationHighlight010)"
          x="207"
          y="444.838"
          width="243.919"
          height="3.24747"
        ></rect>
      </g>
    </g>
  </g>
  <path
    style="fill: var(--color-illustrationHighlight010)"
    d="M190.038 645.64C191.051 645.8 191.971 646.213 192.798 646.88C193.651 647.546 194.318 648.373 194.798 649.36C195.305 650.346 195.558 651.4 195.558 652.52C195.558 653.933 195.198 655.213 194.478 656.36C193.758 657.48 192.705 658.373 191.318 659.04C189.958 659.68 188.345 660 186.478 660H176.078V632.12H186.078C187.971 632.12 189.585 632.44 190.918 633.08C192.251 633.693 193.251 634.533 193.918 635.6C194.585 636.666 194.918 637.866 194.918 639.2C194.918 640.853 194.465 642.226 193.558 643.32C192.678 644.386 191.505 645.16 190.038 645.64ZM179.718 644.16H185.838C187.545 644.16 188.865 643.76 189.798 642.96C190.731 642.16 191.198 641.053 191.198 639.64C191.198 638.226 190.731 637.12 189.798 636.32C188.865 635.52 187.518 635.12 185.758 635.12H179.718V644.16ZM186.158 657C187.971 657 189.385 656.573 190.398 655.72C191.411 654.866 191.918 653.68 191.918 652.16C191.918 650.613 191.385 649.4 190.318 648.52C189.251 647.613 187.825 647.16 186.038 647.16H179.718V657H186.158Z"
  ></path>
  <path
    style="fill: var(--color-illustrationHighlight010)"
    d="M210.169 660.36C208.116 660.36 206.249 659.893 204.569 658.96C202.916 658.026 201.609 656.706 200.649 655C199.716 653.266 199.249 651.266 199.249 649C199.249 646.76 199.729 644.786 200.689 643.08C201.676 641.346 203.009 640.026 204.689 639.12C206.369 638.186 208.249 637.72 210.329 637.72C212.409 637.72 214.289 638.186 215.969 639.12C217.649 640.026 218.969 641.333 219.929 643.04C220.916 644.746 221.409 646.733 221.409 649C221.409 651.266 220.903 653.266 219.889 655C218.903 656.706 217.556 658.026 215.849 658.96C214.143 659.893 212.249 660.36 210.169 660.36ZM210.169 657.16C211.476 657.16 212.703 656.853 213.849 656.24C214.996 655.626 215.916 654.706 216.609 653.48C217.329 652.253 217.689 650.76 217.689 649C217.689 647.24 217.343 645.746 216.649 644.52C215.956 643.293 215.049 642.386 213.929 641.8C212.809 641.186 211.596 640.88 210.289 640.88C208.956 640.88 207.729 641.186 206.609 641.8C205.516 642.386 204.636 643.293 203.969 644.52C203.303 645.746 202.969 647.24 202.969 649C202.969 650.786 203.289 652.293 203.929 653.52C204.596 654.746 205.476 655.666 206.569 656.28C207.663 656.866 208.863 657.16 210.169 657.16Z"
  ></path>
  <path
    style="fill: var(--color-illustrationHighlight010)"
    d="M229.835 641.64C230.475 640.386 231.382 639.413 232.555 638.72C233.755 638.026 235.209 637.68 236.915 637.68V641.44H235.955C231.875 641.44 229.835 643.653 229.835 648.08V660H226.195V638.08H229.835V641.64Z"
  ></path>
  <path
    style="fill: var(--color-illustrationHighlight010)"
    d="M239.757 648.96C239.757 646.72 240.211 644.76 241.117 643.08C242.024 641.373 243.264 640.053 244.837 639.12C246.437 638.186 248.224 637.72 250.197 637.72C251.904 637.72 253.491 638.12 254.957 638.92C256.424 639.693 257.544 640.72 258.317 642V630.4H261.997V660H258.317V655.88C257.597 657.186 256.531 658.266 255.117 659.12C253.704 659.946 252.051 660.36 250.157 660.36C248.211 660.36 246.437 659.88 244.837 658.92C243.264 657.96 242.024 656.613 241.117 654.88C240.211 653.146 239.757 651.173 239.757 648.96ZM258.317 649C258.317 647.346 257.984 645.906 257.317 644.68C256.651 643.453 255.744 642.52 254.597 641.88C253.477 641.213 252.237 640.88 250.877 640.88C249.517 640.88 248.277 641.2 247.157 641.84C246.037 642.48 245.144 643.413 244.477 644.64C243.811 645.866 243.477 647.306 243.477 648.96C243.477 650.64 243.811 652.106 244.477 653.36C245.144 654.586 246.037 655.533 247.157 656.2C248.277 656.84 249.517 657.16 250.877 657.16C252.237 657.16 253.477 656.84 254.597 656.2C255.744 655.533 256.651 654.586 257.317 653.36C257.984 652.106 258.317 650.653 258.317 649Z"
  ></path>
  <path
    style="fill: var(--color-illustrationHighlight010)"
    d="M288.148 648.2C288.148 648.893 288.108 649.626 288.028 650.4H270.508C270.642 652.56 271.375 654.253 272.708 655.48C274.068 656.68 275.708 657.28 277.628 657.28C279.202 657.28 280.508 656.92 281.548 656.2C282.615 655.453 283.362 654.466 283.788 653.24H287.708C287.122 655.346 285.948 657.066 284.188 658.4C282.428 659.706 280.242 660.36 277.628 660.36C275.548 660.36 273.682 659.893 272.028 658.96C270.402 658.026 269.122 656.706 268.188 655C267.255 653.266 266.788 651.266 266.788 649C266.788 646.733 267.242 644.746 268.148 643.04C269.055 641.333 270.322 640.026 271.948 639.12C273.602 638.186 275.495 637.72 277.628 637.72C279.708 637.72 281.548 638.173 283.148 639.08C284.748 639.986 285.975 641.24 286.828 642.84C287.708 644.413 288.148 646.2 288.148 648.2ZM284.388 647.44C284.388 646.053 284.082 644.866 283.468 643.88C282.855 642.866 282.015 642.106 280.948 641.6C279.908 641.066 278.748 640.8 277.468 640.8C275.628 640.8 274.055 641.386 272.748 642.56C271.468 643.733 270.735 645.36 270.548 647.44H284.388Z"
  ></path>
  <path
    style="fill: var(--color-illustrationHighlight010)"
    d="M296.593 641.64C297.233 640.386 298.14 639.413 299.313 638.72C300.513 638.026 301.966 637.68 303.673 637.68V641.44H302.713C298.633 641.44 296.593 643.653 296.593 648.08V660H292.953V638.08H296.593V641.64Z"
  ></path>
  <path
    style="fill: var(--color-illustrationHighlight010)"
    d="M342.915 632.12L334.835 660H330.755L324.275 637.56L317.555 660L313.515 660.04L305.715 632.12H309.595L315.675 655.76L322.395 632.12H326.475L332.875 655.68L338.995 632.12H342.915Z"
  ></path>
  <path
    style="fill: var(--color-illustrationHighlight010)"
    d="M348.778 634.52C348.085 634.52 347.498 634.28 347.018 633.8C346.538 633.32 346.298 632.733 346.298 632.04C346.298 631.346 346.538 630.76 347.018 630.28C347.498 629.8 348.085 629.56 348.778 629.56C349.445 629.56 350.005 629.8 350.458 630.28C350.938 630.76 351.178 631.346 351.178 632.04C351.178 632.733 350.938 633.32 350.458 633.8C350.005 634.28 349.445 634.52 348.778 634.52ZM350.538 638.08V660H346.898V638.08H350.538Z"
  ></path>
  <path
    style="fill: var(--color-illustrationHighlight010)"
    d="M355.382 648.96C355.382 646.72 355.836 644.76 356.742 643.08C357.649 641.373 358.889 640.053 360.462 639.12C362.062 638.186 363.849 637.72 365.822 637.72C367.529 637.72 369.116 638.12 370.582 638.92C372.049 639.693 373.169 640.72 373.942 642V630.4H377.622V660H373.942V655.88C373.222 657.186 372.156 658.266 370.742 659.12C369.329 659.946 367.676 660.36 365.782 660.36C363.836 660.36 362.062 659.88 360.462 658.92C358.889 657.96 357.649 656.613 356.742 654.88C355.836 653.146 355.382 651.173 355.382 648.96ZM373.942 649C373.942 647.346 373.609 645.906 372.942 644.68C372.276 643.453 371.369 642.52 370.222 641.88C369.102 641.213 367.862 640.88 366.502 640.88C365.142 640.88 363.902 641.2 362.782 641.84C361.662 642.48 360.769 643.413 360.102 644.64C359.436 645.866 359.102 647.306 359.102 648.96C359.102 650.64 359.436 652.106 360.102 653.36C360.769 654.586 361.662 655.533 362.782 656.2C363.902 656.84 365.142 657.16 366.502 657.16C367.862 657.16 369.102 656.84 370.222 656.2C371.369 655.533 372.276 654.586 372.942 653.36C373.609 652.106 373.942 650.653 373.942 649Z"
  ></path>
  <path
    style="fill: var(--color-illustrationHighlight010)"
    d="M388.213 641.08V654C388.213 655.066 388.44 655.826 388.893 656.28C389.347 656.706 390.133 656.92 391.253 656.92H393.933V660H390.653C388.627 660 387.107 659.533 386.093 658.6C385.08 657.666 384.573 656.133 384.573 654V641.08H381.733V638.08H384.573V632.56H388.213V638.08H393.933V641.08H388.213Z"
  ></path>
  <path
    style="fill: var(--color-illustrationHighlight010)"
    d="M409.224 637.68C410.877 637.68 412.37 638.04 413.704 638.76C415.037 639.453 416.077 640.506 416.824 641.92C417.597 643.333 417.984 645.053 417.984 647.08V660H414.384V647.6C414.384 645.413 413.837 643.746 412.744 642.6C411.65 641.426 410.157 640.84 408.264 640.84C406.344 640.84 404.81 641.44 403.664 642.64C402.544 643.84 401.984 645.586 401.984 647.88V660H398.344V630.4H401.984V641.2C402.704 640.08 403.69 639.213 404.944 638.6C406.224 637.986 407.65 637.68 409.224 637.68Z"
  ></path>
  <path
    style="fill: var(--color-illustrationHighlight010)"
    d="M423.33 645.24C423.33 640.653 424.076 637.08 425.57 634.52C427.063 631.933 429.676 630.64 433.41 630.64C437.116 630.64 439.716 631.933 441.21 634.52C442.703 637.08 443.45 640.653 443.45 645.24C443.45 649.906 442.703 653.533 441.21 656.12C439.716 658.706 437.116 660 433.41 660C429.676 660 427.063 658.706 425.57 656.12C424.076 653.533 423.33 649.906 423.33 645.24ZM439.85 645.24C439.85 642.92 439.69 640.96 439.37 639.36C439.076 637.733 438.45 636.426 437.49 635.44C436.556 634.453 435.196 633.96 433.41 633.96C431.596 633.96 430.21 634.453 429.25 635.44C428.316 636.426 427.69 637.733 427.37 639.36C427.076 640.96 426.93 642.92 426.93 645.24C426.93 647.64 427.076 649.653 427.37 651.28C427.69 652.906 428.316 654.213 429.25 655.2C430.21 656.186 431.596 656.68 433.41 656.68C435.196 656.68 436.556 656.186 437.49 655.2C438.45 654.213 439.076 652.906 439.37 651.28C439.69 649.653 439.85 647.64 439.85 645.24Z"
  ></path>
  <path
    style="fill: var(--color-illustrationHighlight010)"
    d="M447.487 634.4V631.08H455.007V660H451.327V634.4H447.487Z"
  ></path>
  <path
    style="fill: var(--color-illustrationHighlight010)"
    d="M461.259 645.24C461.259 640.653 462.006 637.08 463.499 634.52C464.993 631.933 467.606 630.64 471.339 630.64C475.046 630.64 477.646 631.933 479.139 634.52C480.633 637.08 481.379 640.653 481.379 645.24C481.379 649.906 480.633 653.533 479.139 656.12C477.646 658.706 475.046 660 471.339 660C467.606 660 464.993 658.706 463.499 656.12C462.006 653.533 461.259 649.906 461.259 645.24ZM477.779 645.24C477.779 642.92 477.619 640.96 477.299 639.36C477.006 637.733 476.379 636.426 475.419 635.44C474.486 634.453 473.126 633.96 471.339 633.96C469.526 633.96 468.139 634.453 467.179 635.44C466.246 636.426 465.619 637.733 465.299 639.36C465.006 640.96 464.859 642.92 464.859 645.24C464.859 647.64 465.006 649.653 465.299 651.28C465.619 652.906 466.246 654.213 467.179 655.2C468.139 656.186 469.526 656.68 471.339 656.68C473.126 656.68 474.486 656.186 475.419 655.2C476.379 654.213 477.006 652.906 477.299 651.28C477.619 649.653 477.779 647.64 477.779 645.24Z"
  ></path>
  <g >
    <g clip-path="url(#nk-445)">
      <rect
        style="fill: var(--color-illustrationInterface010)"
        width="256.879"
        height="207.838"
        transform="translate(616.629 234)"
      ></rect>
      <path
        style="fill: var(--color-illustrationHighlight010)"
        d="M722.832 319.652V325.524H713.168V355.92H705.894V325.524H696.229V319.652H722.832ZM726.269 341.423C726.269 338.513 726.841 335.933 727.984 333.681C729.162 331.43 730.738 329.698 732.712 328.485C734.722 327.273 736.956 326.667 739.415 326.667C741.563 326.667 743.433 327.1 745.027 327.966C746.655 328.832 747.954 329.923 748.924 331.239V327.134H756.25V355.92H748.924V351.711C747.989 353.062 746.69 354.188 745.027 355.089C743.399 355.955 741.511 356.388 739.363 356.388C736.938 356.388 734.722 355.764 732.712 354.517C730.738 353.27 729.162 351.521 727.984 349.269C726.841 346.983 726.269 344.368 726.269 341.423ZM748.924 341.527C748.924 339.761 748.577 338.254 747.885 337.007C747.192 335.725 746.257 334.755 745.079 334.097C743.901 333.404 742.637 333.058 741.286 333.058C739.935 333.058 738.688 333.387 737.545 334.045C736.402 334.703 735.466 335.673 734.739 336.955C734.046 338.202 733.7 339.691 733.7 341.423C733.7 343.155 734.046 344.679 734.739 345.996C735.466 347.277 736.402 348.265 737.545 348.957C738.722 349.65 739.969 349.997 741.286 349.997C742.637 349.997 743.901 349.667 745.079 349.009C746.257 348.317 747.192 347.347 747.885 346.1C748.577 344.818 748.924 343.294 748.924 341.527ZM770.629 331.343C771.564 329.957 772.846 328.832 774.474 327.966C776.137 327.1 778.025 326.667 780.138 326.667C782.597 326.667 784.814 327.273 786.789 328.485C788.798 329.698 790.374 331.43 791.517 333.681C792.695 335.898 793.283 338.479 793.283 341.423C793.283 344.368 792.695 346.983 791.517 349.269C790.374 351.521 788.798 353.27 786.789 354.517C784.814 355.764 782.597 356.388 780.138 356.388C777.99 356.388 776.102 355.972 774.474 355.141C772.881 354.275 771.599 353.166 770.629 351.815V355.92H763.355V317.47H770.629V331.343ZM785.853 341.423C785.853 339.691 785.49 338.202 784.762 336.955C784.069 335.673 783.134 334.703 781.956 334.045C780.813 333.387 779.566 333.058 778.215 333.058C776.899 333.058 775.652 333.404 774.474 334.097C773.331 334.755 772.396 335.725 771.668 337.007C770.975 338.288 770.629 339.795 770.629 341.527C770.629 343.259 770.975 344.766 771.668 346.048C772.396 347.329 773.331 348.317 774.474 349.009C775.652 349.667 776.899 349.997 778.215 349.997C779.566 349.997 780.813 349.65 781.956 348.957C783.134 348.265 784.069 347.277 784.762 345.996C785.49 344.714 785.853 343.19 785.853 341.423Z"
      ></path>
      <g clip-path="url(#clip3)">
        <rect
          style="fill: var(--color-illustrationHighlight010)"
          x="623"
          y="441.838"
          width="243.919"
          height="6.49494"
        ></rect>
      </g>
    </g>
  </g>
  <path
    style="fill: var(--color-illustrationHighlight010)"
    d="M601.038 644.64C602.051 644.8 602.971 645.213 603.798 645.88C604.651 646.546 605.318 647.373 605.798 648.36C606.305 649.346 606.558 650.4 606.558 651.52C606.558 652.933 606.198 654.213 605.478 655.36C604.758 656.48 603.705 657.373 602.318 658.04C600.958 658.68 599.345 659 597.478 659H587.078V631.12H597.078C598.971 631.12 600.585 631.44 601.918 632.08C603.251 632.693 604.251 633.533 604.918 634.6C605.585 635.666 605.918 636.866 605.918 638.2C605.918 639.853 605.465 641.226 604.558 642.32C603.678 643.386 602.505 644.16 601.038 644.64ZM590.718 643.16H596.838C598.545 643.16 599.865 642.76 600.798 641.96C601.731 641.16 602.198 640.053 602.198 638.64C602.198 637.226 601.731 636.12 600.798 635.32C599.865 634.52 598.518 634.12 596.758 634.12H590.718V643.16ZM597.158 656C598.971 656 600.385 655.573 601.398 654.72C602.411 653.866 602.918 652.68 602.918 651.16C602.918 649.613 602.385 648.4 601.318 647.52C600.251 646.613 598.825 646.16 597.038 646.16H590.718V656H597.158Z"
  ></path>
  <path
    style="fill: var(--color-illustrationHighlight010)"
    d="M621.169 659.36C619.116 659.36 617.249 658.893 615.569 657.96C613.916 657.026 612.609 655.706 611.649 654C610.716 652.266 610.249 650.266 610.249 648C610.249 645.76 610.729 643.786 611.689 642.08C612.676 640.346 614.009 639.026 615.689 638.12C617.369 637.186 619.249 636.72 621.329 636.72C623.409 636.72 625.289 637.186 626.969 638.12C628.649 639.026 629.969 640.333 630.929 642.04C631.916 643.746 632.409 645.733 632.409 648C632.409 650.266 631.903 652.266 630.889 654C629.903 655.706 628.556 657.026 626.849 657.96C625.143 658.893 623.249 659.36 621.169 659.36ZM621.169 656.16C622.476 656.16 623.703 655.853 624.849 655.24C625.996 654.626 626.916 653.706 627.609 652.48C628.329 651.253 628.689 649.76 628.689 648C628.689 646.24 628.343 644.746 627.649 643.52C626.956 642.293 626.049 641.386 624.929 640.8C623.809 640.186 622.596 639.88 621.289 639.88C619.956 639.88 618.729 640.186 617.609 640.8C616.516 641.386 615.636 642.293 614.969 643.52C614.303 644.746 613.969 646.24 613.969 648C613.969 649.786 614.289 651.293 614.929 652.52C615.596 653.746 616.476 654.666 617.569 655.28C618.663 655.866 619.863 656.16 621.169 656.16Z"
  ></path>
  <path
    style="fill: var(--color-illustrationHighlight010)"
    d="M640.835 640.64C641.475 639.386 642.382 638.413 643.555 637.72C644.755 637.026 646.209 636.68 647.915 636.68V640.44H646.955C642.875 640.44 640.835 642.653 640.835 647.08V659H637.195V637.08H640.835V640.64Z"
  ></path>
  <path
    style="fill: var(--color-illustrationHighlight010)"
    d="M650.757 647.96C650.757 645.72 651.211 643.76 652.117 642.08C653.024 640.373 654.264 639.053 655.837 638.12C657.437 637.186 659.224 636.72 661.197 636.72C662.904 636.72 664.491 637.12 665.957 637.92C667.424 638.693 668.544 639.72 669.317 641V629.4H672.997V659H669.317V654.88C668.597 656.186 667.531 657.266 666.117 658.12C664.704 658.946 663.051 659.36 661.157 659.36C659.211 659.36 657.437 658.88 655.837 657.92C654.264 656.96 653.024 655.613 652.117 653.88C651.211 652.146 650.757 650.173 650.757 647.96ZM669.317 648C669.317 646.346 668.984 644.906 668.317 643.68C667.651 642.453 666.744 641.52 665.597 640.88C664.477 640.213 663.237 639.88 661.877 639.88C660.517 639.88 659.277 640.2 658.157 640.84C657.037 641.48 656.144 642.413 655.477 643.64C654.811 644.866 654.477 646.306 654.477 647.96C654.477 649.64 654.811 651.106 655.477 652.36C656.144 653.586 657.037 654.533 658.157 655.2C659.277 655.84 660.517 656.16 661.877 656.16C663.237 656.16 664.477 655.84 665.597 655.2C666.744 654.533 667.651 653.586 668.317 652.36C668.984 651.106 669.317 649.653 669.317 648Z"
  ></path>
  <path
    style="fill: var(--color-illustrationHighlight010)"
    d="M699.148 647.2C699.148 647.893 699.108 648.626 699.028 649.4H681.508C681.642 651.56 682.375 653.253 683.708 654.48C685.068 655.68 686.708 656.28 688.628 656.28C690.202 656.28 691.508 655.92 692.548 655.2C693.615 654.453 694.362 653.466 694.788 652.24H698.708C698.122 654.346 696.948 656.066 695.188 657.4C693.428 658.706 691.242 659.36 688.628 659.36C686.548 659.36 684.682 658.893 683.028 657.96C681.402 657.026 680.122 655.706 679.188 654C678.255 652.266 677.788 650.266 677.788 648C677.788 645.733 678.242 643.746 679.148 642.04C680.055 640.333 681.322 639.026 682.948 638.12C684.602 637.186 686.495 636.72 688.628 636.72C690.708 636.72 692.548 637.173 694.148 638.08C695.748 638.986 696.975 640.24 697.828 641.84C698.708 643.413 699.148 645.2 699.148 647.2ZM695.388 646.44C695.388 645.053 695.082 643.866 694.468 642.88C693.855 641.866 693.015 641.106 691.948 640.6C690.908 640.066 689.748 639.8 688.468 639.8C686.628 639.8 685.055 640.386 683.748 641.56C682.468 642.733 681.735 644.36 681.548 646.44H695.388Z"
  ></path>
  <path
    style="fill: var(--color-illustrationHighlight010)"
    d="M707.593 640.64C708.233 639.386 709.14 638.413 710.313 637.72C711.513 637.026 712.966 636.68 714.673 636.68V640.44H713.713C709.633 640.44 707.593 642.653 707.593 647.08V659H703.953V637.08H707.593V640.64Z"
  ></path>
  <path
    style="fill: var(--color-illustrationHighlight010)"
    d="M753.915 631.12L745.835 659H741.755L735.275 636.56L728.555 659L724.515 659.04L716.715 631.12H720.595L726.675 654.76L733.395 631.12H737.475L743.875 654.68L749.995 631.12H753.915Z"
  ></path>
  <path
    style="fill: var(--color-illustrationHighlight010)"
    d="M759.778 633.52C759.085 633.52 758.498 633.28 758.018 632.8C757.538 632.32 757.298 631.733 757.298 631.04C757.298 630.346 757.538 629.76 758.018 629.28C758.498 628.8 759.085 628.56 759.778 628.56C760.445 628.56 761.005 628.8 761.458 629.28C761.938 629.76 762.178 630.346 762.178 631.04C762.178 631.733 761.938 632.32 761.458 632.8C761.005 633.28 760.445 633.52 759.778 633.52ZM761.538 637.08V659H757.898V637.08H761.538Z"
  ></path>
  <path
    style="fill: var(--color-illustrationHighlight010)"
    d="M766.382 647.96C766.382 645.72 766.836 643.76 767.742 642.08C768.649 640.373 769.889 639.053 771.462 638.12C773.062 637.186 774.849 636.72 776.822 636.72C778.529 636.72 780.116 637.12 781.582 637.92C783.049 638.693 784.169 639.72 784.942 641V629.4H788.622V659H784.942V654.88C784.222 656.186 783.156 657.266 781.742 658.12C780.329 658.946 778.676 659.36 776.782 659.36C774.836 659.36 773.062 658.88 771.462 657.92C769.889 656.96 768.649 655.613 767.742 653.88C766.836 652.146 766.382 650.173 766.382 647.96ZM784.942 648C784.942 646.346 784.609 644.906 783.942 643.68C783.276 642.453 782.369 641.52 781.222 640.88C780.102 640.213 778.862 639.88 777.502 639.88C776.142 639.88 774.902 640.2 773.782 640.84C772.662 641.48 771.769 642.413 771.102 643.64C770.436 644.866 770.102 646.306 770.102 647.96C770.102 649.64 770.436 651.106 771.102 652.36C771.769 653.586 772.662 654.533 773.782 655.2C774.902 655.84 776.142 656.16 777.502 656.16C778.862 656.16 780.102 655.84 781.222 655.2C782.369 654.533 783.276 653.586 783.942 652.36C784.609 651.106 784.942 649.653 784.942 648Z"
  ></path>
  <path
    style="fill: var(--color-illustrationHighlight010)"
    d="M799.213 640.08V653C799.213 654.066 799.44 654.826 799.893 655.28C800.347 655.706 801.133 655.92 802.253 655.92H804.933V659H801.653C799.627 659 798.107 658.533 797.093 657.6C796.08 656.666 795.573 655.133 795.573 653V640.08H792.733V637.08H795.573V631.56H799.213V637.08H804.933V640.08H799.213Z"
  ></path>
  <path
    style="fill: var(--color-illustrationHighlight010)"
    d="M820.224 636.68C821.877 636.68 823.37 637.04 824.704 637.76C826.037 638.453 827.077 639.506 827.824 640.92C828.597 642.333 828.984 644.053 828.984 646.08V659H825.384V646.6C825.384 644.413 824.837 642.746 823.744 641.6C822.65 640.426 821.157 639.84 819.264 639.84C817.344 639.84 815.81 640.44 814.664 641.64C813.544 642.84 812.984 644.586 812.984 646.88V659H809.344V629.4H812.984V640.2C813.704 639.08 814.69 638.213 815.944 637.6C817.224 636.986 818.65 636.68 820.224 636.68Z"
  ></path>
  <path
    style="fill: var(--color-illustrationHighlight010)"
    d="M834.33 644.24C834.33 639.653 835.076 636.08 836.57 633.52C838.063 630.933 840.676 629.64 844.41 629.64C848.116 629.64 850.716 630.933 852.21 633.52C853.703 636.08 854.45 639.653 854.45 644.24C854.45 648.906 853.703 652.533 852.21 655.12C850.716 657.706 848.116 659 844.41 659C840.676 659 838.063 657.706 836.57 655.12C835.076 652.533 834.33 648.906 834.33 644.24ZM850.85 644.24C850.85 641.92 850.69 639.96 850.37 638.36C850.076 636.733 849.45 635.426 848.49 634.44C847.556 633.453 846.196 632.96 844.41 632.96C842.596 632.96 841.21 633.453 840.25 634.44C839.316 635.426 838.69 636.733 838.37 638.36C838.076 639.96 837.93 641.92 837.93 644.24C837.93 646.64 838.076 648.653 838.37 650.28C838.69 651.906 839.316 653.213 840.25 654.2C841.21 655.186 842.596 655.68 844.41 655.68C846.196 655.68 847.556 655.186 848.49 654.2C849.45 653.213 850.076 651.906 850.37 650.28C850.69 648.653 850.85 646.64 850.85 644.24Z"
  ></path>
  <path
    style="fill: var(--color-illustrationHighlight010)"
    d="M859.007 656.08C862.394 653.36 865.047 651.133 866.967 649.4C868.887 647.64 870.5 645.813 871.807 643.92C873.14 642 873.807 640.12 873.807 638.28C873.807 636.546 873.38 635.186 872.527 634.2C871.7 633.186 870.354 632.68 868.487 632.68C866.674 632.68 865.26 633.253 864.247 634.4C863.26 635.52 862.727 637.026 862.647 638.92H859.127C859.234 635.933 860.14 633.626 861.847 632C863.554 630.373 865.754 629.56 868.447 629.56C871.194 629.56 873.367 630.32 874.967 631.84C876.594 633.36 877.407 635.453 877.407 638.12C877.407 640.333 876.74 642.493 875.407 644.6C874.1 646.68 872.607 648.52 870.927 650.12C869.247 651.693 867.1 653.533 864.487 655.64H878.247V658.68H859.007V656.08Z"
  ></path>
  <path
    style="fill: var(--color-illustrationHighlight010)"
    d="M882.455 644.24C882.455 639.653 883.201 636.08 884.695 633.52C886.188 630.933 888.801 629.64 892.535 629.64C896.241 629.64 898.841 630.933 900.335 633.52C901.828 636.08 902.575 639.653 902.575 644.24C902.575 648.906 901.828 652.533 900.335 655.12C898.841 657.706 896.241 659 892.535 659C888.801 659 886.188 657.706 884.695 655.12C883.201 652.533 882.455 648.906 882.455 644.24ZM898.975 644.24C898.975 641.92 898.815 639.96 898.495 638.36C898.201 636.733 897.575 635.426 896.615 634.44C895.681 633.453 894.321 632.96 892.535 632.96C890.721 632.96 889.335 633.453 888.375 634.44C887.441 635.426 886.815 636.733 886.495 638.36C886.201 639.96 886.055 641.92 886.055 644.24C886.055 646.64 886.201 648.653 886.495 650.28C886.815 651.906 887.441 653.213 888.375 654.2C889.335 655.186 890.721 655.68 892.535 655.68C894.321 655.68 895.681 655.186 896.615 654.2C897.575 653.213 898.201 651.906 898.495 650.28C898.815 648.653 898.975 646.64 898.975 644.24Z"
  ></path>
  <g >
    <g clip-path="url(#nk-447)">
      <rect
        style="fill: var(--color-illustrationInterface010)"
        width="256.879"
        height="207.838"
        transform="translate(1033.63 227)"
      ></rect>
      <path
        style="fill: var(--color-illustrationHighlight010)"
        d="M1139.83 312.652V318.524H1130.17V348.92H1122.89V318.524H1113.23V312.652H1139.83ZM1143.27 334.423C1143.27 331.513 1143.84 328.933 1144.98 326.681C1146.16 324.43 1147.74 322.698 1149.71 321.485C1151.72 320.273 1153.96 319.667 1156.42 319.667C1158.56 319.667 1160.43 320.1 1162.03 320.966C1163.65 321.832 1164.95 322.923 1165.92 324.239V320.134H1173.25V348.92H1165.92V344.711C1164.99 346.062 1163.69 347.188 1162.03 348.089C1160.4 348.955 1158.51 349.388 1156.36 349.388C1153.94 349.388 1151.72 348.764 1149.71 347.517C1147.74 346.27 1146.16 344.521 1144.98 342.269C1143.84 339.983 1143.27 337.368 1143.27 334.423ZM1165.92 334.527C1165.92 332.761 1165.58 331.254 1164.88 330.007C1164.19 328.725 1163.26 327.755 1162.08 327.097C1160.9 326.404 1159.64 326.058 1158.29 326.058C1156.93 326.058 1155.69 326.387 1154.54 327.045C1153.4 327.703 1152.47 328.673 1151.74 329.955C1151.05 331.202 1150.7 332.691 1150.7 334.423C1150.7 336.155 1151.05 337.679 1151.74 338.996C1152.47 340.277 1153.4 341.265 1154.54 341.957C1155.72 342.65 1156.97 342.997 1158.29 342.997C1159.64 342.997 1160.9 342.667 1162.08 342.009C1163.26 341.317 1164.19 340.347 1164.88 339.1C1165.58 337.818 1165.92 336.294 1165.92 334.527ZM1187.63 324.343C1188.56 322.957 1189.85 321.832 1191.47 320.966C1193.14 320.1 1195.02 319.667 1197.14 319.667C1199.6 319.667 1201.81 320.273 1203.79 321.485C1205.8 322.698 1207.37 324.43 1208.52 326.681C1209.69 328.898 1210.28 331.479 1210.28 334.423C1210.28 337.368 1209.69 339.983 1208.52 342.269C1207.37 344.521 1205.8 346.27 1203.79 347.517C1201.81 348.764 1199.6 349.388 1197.14 349.388C1194.99 349.388 1193.1 348.972 1191.47 348.141C1189.88 347.275 1188.6 346.166 1187.63 344.815V348.92H1180.35V310.47H1187.63V324.343ZM1202.85 334.423C1202.85 332.691 1202.49 331.202 1201.76 329.955C1201.07 328.673 1200.13 327.703 1198.96 327.045C1197.81 326.387 1196.57 326.058 1195.22 326.058C1193.9 326.058 1192.65 326.404 1191.47 327.097C1190.33 327.755 1189.4 328.725 1188.67 330.007C1187.98 331.288 1187.63 332.795 1187.63 334.527C1187.63 336.259 1187.98 337.766 1188.67 339.048C1189.4 340.329 1190.33 341.317 1191.47 342.009C1192.65 342.667 1193.9 342.997 1195.22 342.997C1196.57 342.997 1197.81 342.65 1198.96 341.957C1200.13 341.265 1201.07 340.277 1201.76 338.996C1202.49 337.714 1202.85 336.19 1202.85 334.423Z"
      ></path>
      <g clip-path="url(#nk-448)">
        <rect
          style="fill: var(--color-illustrationHighlight010)"
          x="1040"
          y="434.838"
          width="243.919"
          height="12.9899"
        ></rect>
      </g>
    </g>
  </g>
  <path
    style="fill: var(--color-illustrationHighlight010)"
    d="M1018.04 644.64C1019.05 644.8 1019.97 645.213 1020.8 645.88C1021.65 646.546 1022.32 647.373 1022.8 648.36C1023.3 649.346 1023.56 650.4 1023.56 651.52C1023.56 652.933 1023.2 654.213 1022.48 655.36C1021.76 656.48 1020.7 657.373 1019.32 658.04C1017.96 658.68 1016.34 659 1014.48 659H1004.08V631.12H1014.08C1015.97 631.12 1017.58 631.44 1018.92 632.08C1020.25 632.693 1021.25 633.533 1021.92 634.6C1022.58 635.666 1022.92 636.866 1022.92 638.2C1022.92 639.853 1022.46 641.226 1021.56 642.32C1020.68 643.386 1019.5 644.16 1018.04 644.64ZM1007.72 643.16H1013.84C1015.54 643.16 1016.86 642.76 1017.8 641.96C1018.73 641.16 1019.2 640.053 1019.2 638.64C1019.2 637.226 1018.73 636.12 1017.8 635.32C1016.86 634.52 1015.52 634.12 1013.76 634.12H1007.72V643.16ZM1014.16 656C1015.97 656 1017.38 655.573 1018.4 654.72C1019.41 653.866 1019.92 652.68 1019.92 651.16C1019.92 649.613 1019.38 648.4 1018.32 647.52C1017.25 646.613 1015.82 646.16 1014.04 646.16H1007.72V656H1014.16Z"
  ></path>
  <path
    style="fill: var(--color-illustrationHighlight010)"
    d="M1038.17 659.36C1036.12 659.36 1034.25 658.893 1032.57 657.96C1030.92 657.026 1029.61 655.706 1028.65 654C1027.72 652.266 1027.25 650.266 1027.25 648C1027.25 645.76 1027.73 643.786 1028.69 642.08C1029.68 640.346 1031.01 639.026 1032.69 638.12C1034.37 637.186 1036.25 636.72 1038.33 636.72C1040.41 636.72 1042.29 637.186 1043.97 638.12C1045.65 639.026 1046.97 640.333 1047.93 642.04C1048.92 643.746 1049.41 645.733 1049.41 648C1049.41 650.266 1048.9 652.266 1047.89 654C1046.9 655.706 1045.56 657.026 1043.85 657.96C1042.14 658.893 1040.25 659.36 1038.17 659.36ZM1038.17 656.16C1039.48 656.16 1040.7 655.853 1041.85 655.24C1043 654.626 1043.92 653.706 1044.61 652.48C1045.33 651.253 1045.69 649.76 1045.69 648C1045.69 646.24 1045.34 644.746 1044.65 643.52C1043.96 642.293 1043.05 641.386 1041.93 640.8C1040.81 640.186 1039.6 639.88 1038.29 639.88C1036.96 639.88 1035.73 640.186 1034.61 640.8C1033.52 641.386 1032.64 642.293 1031.97 643.52C1031.3 644.746 1030.97 646.24 1030.97 648C1030.97 649.786 1031.29 651.293 1031.93 652.52C1032.6 653.746 1033.48 654.666 1034.57 655.28C1035.66 655.866 1036.86 656.16 1038.17 656.16Z"
  ></path>
  <path
    style="fill: var(--color-illustrationHighlight010)"
    d="M1057.84 640.64C1058.48 639.386 1059.38 638.413 1060.56 637.72C1061.76 637.026 1063.21 636.68 1064.92 636.68V640.44H1063.96C1059.88 640.44 1057.84 642.653 1057.84 647.08V659H1054.2V637.08H1057.84V640.64Z"
  ></path>
  <path
    style="fill: var(--color-illustrationHighlight010)"
    d="M1067.76 647.96C1067.76 645.72 1068.21 643.76 1069.12 642.08C1070.02 640.373 1071.26 639.053 1072.84 638.12C1074.44 637.186 1076.22 636.72 1078.2 636.72C1079.9 636.72 1081.49 637.12 1082.96 637.92C1084.42 638.693 1085.54 639.72 1086.32 641V629.4H1090V659H1086.32V654.88C1085.6 656.186 1084.53 657.266 1083.12 658.12C1081.7 658.946 1080.05 659.36 1078.16 659.36C1076.21 659.36 1074.44 658.88 1072.84 657.92C1071.26 656.96 1070.02 655.613 1069.12 653.88C1068.21 652.146 1067.76 650.173 1067.76 647.96ZM1086.32 648C1086.32 646.346 1085.98 644.906 1085.32 643.68C1084.65 642.453 1083.74 641.52 1082.6 640.88C1081.48 640.213 1080.24 639.88 1078.88 639.88C1077.52 639.88 1076.28 640.2 1075.16 640.84C1074.04 641.48 1073.14 642.413 1072.48 643.64C1071.81 644.866 1071.48 646.306 1071.48 647.96C1071.48 649.64 1071.81 651.106 1072.48 652.36C1073.14 653.586 1074.04 654.533 1075.16 655.2C1076.28 655.84 1077.52 656.16 1078.88 656.16C1080.24 656.16 1081.48 655.84 1082.6 655.2C1083.74 654.533 1084.65 653.586 1085.32 652.36C1085.98 651.106 1086.32 649.653 1086.32 648Z"
  ></path>
  <path
    style="fill: var(--color-illustrationHighlight010)"
    d="M1116.15 647.2C1116.15 647.893 1116.11 648.626 1116.03 649.4H1098.51C1098.64 651.56 1099.38 653.253 1100.71 654.48C1102.07 655.68 1103.71 656.28 1105.63 656.28C1107.2 656.28 1108.51 655.92 1109.55 655.2C1110.62 654.453 1111.36 653.466 1111.79 652.24H1115.71C1115.12 654.346 1113.95 656.066 1112.19 657.4C1110.43 658.706 1108.24 659.36 1105.63 659.36C1103.55 659.36 1101.68 658.893 1100.03 657.96C1098.4 657.026 1097.12 655.706 1096.19 654C1095.26 652.266 1094.79 650.266 1094.79 648C1094.79 645.733 1095.24 643.746 1096.15 642.04C1097.06 640.333 1098.32 639.026 1099.95 638.12C1101.6 637.186 1103.5 636.72 1105.63 636.72C1107.71 636.72 1109.55 637.173 1111.15 638.08C1112.75 638.986 1113.98 640.24 1114.83 641.84C1115.71 643.413 1116.15 645.2 1116.15 647.2ZM1112.39 646.44C1112.39 645.053 1112.08 643.866 1111.47 642.88C1110.86 641.866 1110.02 641.106 1108.95 640.6C1107.91 640.066 1106.75 639.8 1105.47 639.8C1103.63 639.8 1102.06 640.386 1100.75 641.56C1099.47 642.733 1098.74 644.36 1098.55 646.44H1112.39Z"
  ></path>
  <path
    style="fill: var(--color-illustrationHighlight010)"
    d="M1124.59 640.64C1125.23 639.386 1126.14 638.413 1127.31 637.72C1128.51 637.026 1129.97 636.68 1131.67 636.68V640.44H1130.71C1126.63 640.44 1124.59 642.653 1124.59 647.08V659H1120.95V637.08H1124.59V640.64Z"
  ></path>
  <path
    style="fill: var(--color-illustrationHighlight010)"
    d="M1170.91 631.12L1162.84 659H1158.76L1152.27 636.56L1145.55 659L1141.51 659.04L1133.71 631.12H1137.6L1143.68 654.76L1150.4 631.12H1154.48L1160.88 654.68L1166.99 631.12H1170.91Z"
  ></path>
  <path
    style="fill: var(--color-illustrationHighlight010)"
    d="M1176.78 633.52C1176.09 633.52 1175.5 633.28 1175.02 632.8C1174.54 632.32 1174.3 631.733 1174.3 631.04C1174.3 630.346 1174.54 629.76 1175.02 629.28C1175.5 628.8 1176.09 628.56 1176.78 628.56C1177.45 628.56 1178.01 628.8 1178.46 629.28C1178.94 629.76 1179.18 630.346 1179.18 631.04C1179.18 631.733 1178.94 632.32 1178.46 632.8C1178.01 633.28 1177.45 633.52 1176.78 633.52ZM1178.54 637.08V659H1174.9V637.08H1178.54Z"
  ></path>
  <path
    style="fill: var(--color-illustrationHighlight010)"
    d="M1183.38 647.96C1183.38 645.72 1183.84 643.76 1184.74 642.08C1185.65 640.373 1186.89 639.053 1188.46 638.12C1190.06 637.186 1191.85 636.72 1193.82 636.72C1195.53 636.72 1197.12 637.12 1198.58 637.92C1200.05 638.693 1201.17 639.72 1201.94 641V629.4H1205.62V659H1201.94V654.88C1201.22 656.186 1200.16 657.266 1198.74 658.12C1197.33 658.946 1195.68 659.36 1193.78 659.36C1191.84 659.36 1190.06 658.88 1188.46 657.92C1186.89 656.96 1185.65 655.613 1184.74 653.88C1183.84 652.146 1183.38 650.173 1183.38 647.96ZM1201.94 648C1201.94 646.346 1201.61 644.906 1200.94 643.68C1200.28 642.453 1199.37 641.52 1198.22 640.88C1197.1 640.213 1195.86 639.88 1194.5 639.88C1193.14 639.88 1191.9 640.2 1190.78 640.84C1189.66 641.48 1188.77 642.413 1188.1 643.64C1187.44 644.866 1187.1 646.306 1187.1 647.96C1187.1 649.64 1187.44 651.106 1188.1 652.36C1188.77 653.586 1189.66 654.533 1190.78 655.2C1191.9 655.84 1193.14 656.16 1194.5 656.16C1195.86 656.16 1197.1 655.84 1198.22 655.2C1199.37 654.533 1200.28 653.586 1200.94 652.36C1201.61 651.106 1201.94 649.653 1201.94 648Z"
  ></path>
  <path
    style="fill: var(--color-illustrationHighlight010)"
    d="M1216.21 640.08V653C1216.21 654.066 1216.44 654.826 1216.89 655.28C1217.35 655.706 1218.13 655.92 1219.25 655.92H1221.93V659H1218.65C1216.63 659 1215.11 658.533 1214.09 657.6C1213.08 656.666 1212.57 655.133 1212.57 653V640.08H1209.73V637.08H1212.57V631.56H1216.21V637.08H1221.93V640.08H1216.21Z"
  ></path>
  <path
    style="fill: var(--color-illustrationHighlight010)"
    d="M1237.22 636.68C1238.88 636.68 1240.37 637.04 1241.7 637.76C1243.04 638.453 1244.08 639.506 1244.82 640.92C1245.6 642.333 1245.98 644.053 1245.98 646.08V659H1242.38V646.6C1242.38 644.413 1241.84 642.746 1240.74 641.6C1239.65 640.426 1238.16 639.84 1236.26 639.84C1234.34 639.84 1232.81 640.44 1231.66 641.64C1230.54 642.84 1229.98 644.586 1229.98 646.88V659H1226.34V629.4H1229.98V640.2C1230.7 639.08 1231.69 638.213 1232.94 637.6C1234.22 636.986 1235.65 636.68 1237.22 636.68Z"
  ></path>
  <path
    style="fill: var(--color-illustrationHighlight010)"
    d="M1251.33 644.24C1251.33 639.653 1252.08 636.08 1253.57 633.52C1255.06 630.933 1257.68 629.64 1261.41 629.64C1265.12 629.64 1267.72 630.933 1269.21 633.52C1270.7 636.08 1271.45 639.653 1271.45 644.24C1271.45 648.906 1270.7 652.533 1269.21 655.12C1267.72 657.706 1265.12 659 1261.41 659C1257.68 659 1255.06 657.706 1253.57 655.12C1252.08 652.533 1251.33 648.906 1251.33 644.24ZM1267.85 644.24C1267.85 641.92 1267.69 639.96 1267.37 638.36C1267.08 636.733 1266.45 635.426 1265.49 634.44C1264.56 633.453 1263.2 632.96 1261.41 632.96C1259.6 632.96 1258.21 633.453 1257.25 634.44C1256.32 635.426 1255.69 636.733 1255.37 638.36C1255.08 639.96 1254.93 641.92 1254.93 644.24C1254.93 646.64 1255.08 648.653 1255.37 650.28C1255.69 651.906 1256.32 653.213 1257.25 654.2C1258.21 655.186 1259.6 655.68 1261.41 655.68C1263.2 655.68 1264.56 655.186 1265.49 654.2C1266.45 653.213 1267.08 651.906 1267.37 650.28C1267.69 648.653 1267.85 646.64 1267.85 644.24Z"
  ></path>
  <path
    style="fill: var(--color-illustrationHighlight010)"
    d="M1276.37 637.36C1276.55 634.906 1277.5 632.986 1279.21 631.6C1280.91 630.213 1283.13 629.52 1285.85 629.52C1287.66 629.52 1289.22 629.853 1290.53 630.52C1291.86 631.16 1292.86 632.04 1293.53 633.16C1294.22 634.28 1294.57 635.546 1294.57 636.96C1294.57 638.613 1294.09 640.04 1293.13 641.24C1292.19 642.44 1290.97 643.213 1289.45 643.56V643.76C1291.18 644.186 1292.55 645.026 1293.57 646.28C1294.58 647.533 1295.09 649.173 1295.09 651.2C1295.09 652.72 1294.74 654.093 1294.05 655.32C1293.35 656.52 1292.31 657.466 1290.93 658.16C1289.54 658.853 1287.87 659.2 1285.93 659.2C1283.1 659.2 1280.78 658.466 1278.97 657C1277.15 655.506 1276.14 653.4 1275.93 650.68H1279.45C1279.63 652.28 1280.29 653.586 1281.41 654.6C1282.53 655.613 1284.02 656.12 1285.89 656.12C1287.75 656.12 1289.17 655.64 1290.13 654.68C1291.11 653.693 1291.61 652.426 1291.61 650.88C1291.61 648.88 1290.94 647.44 1289.61 646.56C1288.27 645.68 1286.26 645.24 1283.57 645.24H1282.65V642.2H1283.61C1286.06 642.173 1287.91 641.773 1289.17 641C1290.42 640.2 1291.05 638.973 1291.05 637.32C1291.05 635.906 1290.58 634.773 1289.65 633.92C1288.74 633.066 1287.43 632.64 1285.73 632.64C1284.07 632.64 1282.74 633.066 1281.73 633.92C1280.71 634.773 1280.11 635.92 1279.93 637.36H1276.37Z"
  ></path>
  <path
    style="fill: var(--color-illustrationHighlight010)"
    d="M1300 644.24C1300 639.653 1300.75 636.08 1302.24 633.52C1303.73 630.933 1306.35 629.64 1310.08 629.64C1313.79 629.64 1316.39 630.933 1317.88 633.52C1319.37 636.08 1320.12 639.653 1320.12 644.24C1320.12 648.906 1319.37 652.533 1317.88 655.12C1316.39 657.706 1313.79 659 1310.08 659C1306.35 659 1303.73 657.706 1302.24 655.12C1300.75 652.533 1300 648.906 1300 644.24ZM1316.52 644.24C1316.52 641.92 1316.36 639.96 1316.04 638.36C1315.75 636.733 1315.12 635.426 1314.16 634.44C1313.23 633.453 1311.87 632.96 1310.08 632.96C1308.27 632.96 1306.88 633.453 1305.92 634.44C1304.99 635.426 1304.36 636.733 1304.04 638.36C1303.75 639.96 1303.6 641.92 1303.6 644.24C1303.6 646.64 1303.75 648.653 1304.04 650.28C1304.36 651.906 1304.99 653.213 1305.92 654.2C1306.88 655.186 1308.27 655.68 1310.08 655.68C1311.87 655.68 1313.23 655.186 1314.16 654.2C1315.12 653.213 1315.75 651.906 1316.04 650.28C1316.36 648.653 1316.52 646.64 1316.52 644.24Z"
  ></path>
  <defs>
    <filter
      id="nk-449"
      x="191"
      y="229"
      width="276.134"
      height="243.086"
      filterUnits="userSpaceOnUse"
      color-interpolation-filters="sRGB"
    >
      <feFlood flood-opacity="0" result="BackgroundImageFix"></feFlood>
      <feColorMatrix
        in="SourceAlpha"
        type="matrix"
        values="0 0 0 0 0 0 0 0 0 0 0 0 0 0 0 0 0 0 127 0"
      ></feColorMatrix>
      <feOffset dy="8"></feOffset>
      <feGaussianBlur stdDeviation="8"></feGaussianBlur>
      <feColorMatrix
        type="matrix"
        values="0 0 0 0 0.0392157 0 0 0 0 0.0392157 0 0 0 0 0.0392157 0 0 0 0.08 0"
      ></feColorMatrix>
      <feBlend
        mode="normal"
        in2="BackgroundImageFix"
        result="effect1_dropShadow"
      ></feBlend>
      <feBlend
        mode="normal"
        in="SourceGraphic"
        in2="effect1_dropShadow"
        result="shape"
      ></feBlend>
    </filter>
    <filter
      id="nk-450"
      x="607"
      y="226"
      width="276.134"
      height="246.333"
      filterUnits="userSpaceOnUse"
      color-interpolation-filters="sRGB"
    >
      <feFlood flood-opacity="0" result="BackgroundImageFix"></feFlood>
      <feColorMatrix
        in="SourceAlpha"
        type="matrix"
        values="0 0 0 0 0 0 0 0 0 0 0 0 0 0 0 0 0 0 127 0"
      ></feColorMatrix>
      <feOffset dy="8"></feOffset>
      <feGaussianBlur stdDeviation="8"></feGaussianBlur>
      <feColorMatrix
        type="matrix"
        values="0 0 0 0 0.0392157 0 0 0 0 0.0392157 0 0 0 0 0.0392157 0 0 0 0.08 0"
      ></feColorMatrix>
      <feBlend
        mode="normal"
        in2="BackgroundImageFix"
        result="effect1_dropShadow"
      ></feBlend>
      <feBlend
        mode="normal"
        in="SourceGraphic"
        in2="effect1_dropShadow"
        result="shape"
      ></feBlend>
    </filter>
    <filter
      id="nk-451"
      x="1024"
      y="219"
      width="276.134"
      height="252.828"
      filterUnits="userSpaceOnUse"
      color-interpolation-filters="sRGB"
    >
      <feFlood flood-opacity="0" result="BackgroundImageFix"></feFlood>
      <feColorMatrix
        in="SourceAlpha"
        type="matrix"
        values="0 0 0 0 0 0 0 0 0 0 0 0 0 0 0 0 0 0 127 0"
      ></feColorMatrix>
      <feOffset dy="8"></feOffset>
      <feGaussianBlur stdDeviation="8"></feGaussianBlur>
      <feColorMatrix
        type="matrix"
        values="0 0 0 0 0.0392157 0 0 0 0 0.0392157 0 0 0 0 0.0392157 0 0 0 0.08 0"
      ></feColorMatrix>
      <feBlend
        mode="normal"
        in2="BackgroundImageFix"
        result="effect1_dropShadow"
      ></feBlend>
      <feBlend
        mode="normal"
        in="SourceGraphic"
        in2="effect1_dropShadow"
        result="shape"
      ></feBlend>
    </filter>
    <clipPath id="nk-443">
      <rect
        style="fill: var(--color-white)"
        x="207"
        y="237"
        width="244.134"
        height="211.086"
        rx="2.46346"
      ></rect>
    </clipPath>
    <clipPath id="nk-444">
      <rect
        style="fill: var(--color-white)"
        width="244.134"
        height="3.24747"
        transform="translate(207 444.838)"
      ></rect>
    </clipPath>
    <clipPath id="nk-445">
      <rect
        style="fill: var(--color-white)"
        x="623"
        y="234"
        width="244.134"
        height="214.333"
        rx="8"
      ></rect>
    </clipPath>
    <clipPath id="nk-446">
      <rect
        style="fill: var(--color-white)"
        width="244.134"
        height="6.49494"
        transform="translate(623 441.838)"
      ></rect>
    </clipPath>
    <clipPath id="nk-447">
      <rect
        style="fill: var(--color-white)"
        x="1040"
        y="227"
        width="244.134"
        height="220.828"
        rx="8"
      ></rect>
    </clipPath>
    <clipPath id="nk-448">
      <rect
        style="fill: var(--color-white)"
        width="244.134"
        height="12.9899"
        transform="translate(1040 434.838)"
      ></rect>
    </clipPath>
  </defs>
</svg>
