<svg
  id="nksvg"
  style="width: 100%; height: 100%"
  width="1491"
  height="840"
  viewBox="0 0 1491 840"
  fill="none"
  xmlns="http://www.w3.org/2000/svg"
  class="css-0"
>
  <path
    style="fill: var(--color-illustrationBackground020)"
    d="M0 4.9961C0 2.78696 1.79086 0.996094 4 0.996094H1486.72C1488.93 0.996094 1490.72 2.78695 1490.72 4.99609V835C1490.72 837.209 1488.93 839 1486.72 839H4.00002C1.79088 839 0 837.209 0 835V4.9961Z"
  ></path>
  <path
    style="fill: var(--color-illustrationHighlight010)"
    d="M274.719 256.04H284.479V259H271.079V231.12H274.719V256.04Z"
  ></path>
  <path
    style="fill: var(--color-illustrationHighlight010)"
    d="M308.345 247.2C308.345 247.893 308.305 248.626 308.225 249.4H290.705C290.838 251.56 291.572 253.253 292.905 254.48C294.265 255.68 295.905 256.28 297.825 256.28C299.398 256.28 300.705 255.92 301.745 255.2C302.812 254.453 303.558 253.466 303.985 252.24H307.905C307.318 254.346 306.145 256.066 304.385 257.4C302.625 258.706 300.438 259.36 297.825 259.36C295.745 259.36 293.878 258.893 292.225 257.96C290.598 257.026 289.318 255.706 288.385 254C287.452 252.266 286.985 250.266 286.985 248C286.985 245.733 287.438 243.746 288.345 242.04C289.252 240.333 290.518 239.026 292.145 238.12C293.798 237.186 295.692 236.72 297.825 236.72C299.905 236.72 301.745 237.173 303.345 238.08C304.945 238.986 306.172 240.24 307.025 241.84C307.905 243.413 308.345 245.2 308.345 247.2ZM304.585 246.44C304.585 245.053 304.278 243.866 303.665 242.88C303.052 241.866 302.212 241.106 301.145 240.6C300.105 240.066 298.945 239.8 297.665 239.8C295.825 239.8 294.252 240.386 292.945 241.56C291.665 242.733 290.932 244.36 290.745 246.44H304.585Z"
  ></path>
  <path
    style="fill: var(--color-illustrationHighlight010)"
    d="M311.79 247.96C311.79 245.72 312.243 243.76 313.15 242.08C314.056 240.373 315.296 239.053 316.87 238.12C318.47 237.186 320.243 236.72 322.19 236.72C324.11 236.72 325.776 237.133 327.19 237.96C328.603 238.786 329.656 239.826 330.35 241.08V237.08H334.03V259H330.35V254.92C329.63 256.2 328.55 257.266 327.11 258.12C325.696 258.946 324.043 259.36 322.15 259.36C320.203 259.36 318.443 258.88 316.87 257.92C315.296 256.96 314.056 255.613 313.15 253.88C312.243 252.146 311.79 250.173 311.79 247.96ZM330.35 248C330.35 246.346 330.016 244.906 329.35 243.68C328.683 242.453 327.776 241.52 326.63 240.88C325.51 240.213 324.27 239.88 322.91 239.88C321.55 239.88 320.31 240.2 319.19 240.84C318.07 241.48 317.176 242.413 316.51 243.64C315.843 244.866 315.51 246.306 315.51 247.96C315.51 249.64 315.843 251.106 316.51 252.36C317.176 253.586 318.07 254.533 319.19 255.2C320.31 255.84 321.55 256.16 322.91 256.16C324.27 256.16 325.51 255.84 326.63 255.2C327.776 254.533 328.683 253.586 329.35 252.36C330.016 251.106 330.35 249.653 330.35 248Z"
  ></path>
  <path
    style="fill: var(--color-illustrationHighlight010)"
    d="M338.821 247.96C338.821 245.72 339.274 243.76 340.181 242.08C341.088 240.373 342.328 239.053 343.901 238.12C345.501 237.186 347.288 236.72 349.261 236.72C350.968 236.72 352.554 237.12 354.021 237.92C355.488 238.693 356.608 239.72 357.381 241V229.4H361.061V259H357.381V254.88C356.661 256.186 355.594 257.266 354.181 258.12C352.768 258.946 351.114 259.36 349.221 259.36C347.274 259.36 345.501 258.88 343.901 257.92C342.328 256.96 341.088 255.613 340.181 253.88C339.274 252.146 338.821 250.173 338.821 247.96ZM357.381 248C357.381 246.346 357.048 244.906 356.381 243.68C355.714 242.453 354.808 241.52 353.661 240.88C352.541 240.213 351.301 239.88 349.941 239.88C348.581 239.88 347.341 240.2 346.221 240.84C345.101 241.48 344.208 242.413 343.541 243.64C342.874 244.866 342.541 246.306 342.541 247.96C342.541 249.64 342.874 251.106 343.541 252.36C344.208 253.586 345.101 254.533 346.221 255.2C347.341 255.84 348.581 256.16 349.941 256.16C351.301 256.16 352.541 255.84 353.661 255.2C354.808 254.533 355.714 253.586 356.381 252.36C357.048 251.106 357.381 249.653 357.381 248Z"
  ></path>
  <path
    style="fill: var(--color-illustrationHighlight010)"
    d="M369.092 233.52C368.399 233.52 367.812 233.28 367.332 232.8C366.852 232.32 366.612 231.733 366.612 231.04C366.612 230.346 366.852 229.76 367.332 229.28C367.812 228.8 368.399 228.56 369.092 228.56C369.759 228.56 370.319 228.8 370.772 229.28C371.252 229.76 371.492 230.346 371.492 231.04C371.492 231.733 371.252 232.32 370.772 232.8C370.319 233.28 369.759 233.52 369.092 233.52ZM370.852 237.08V259H367.212V237.08H370.852Z"
  ></path>
  <path
    style="fill: var(--color-illustrationHighlight010)"
    d="M387.736 236.68C390.403 236.68 392.563 237.493 394.216 239.12C395.869 240.72 396.696 243.04 396.696 246.08V259H393.096V246.6C393.096 244.413 392.549 242.746 391.456 241.6C390.363 240.426 388.869 239.84 386.976 239.84C385.056 239.84 383.523 240.44 382.376 241.64C381.256 242.84 380.696 244.586 380.696 246.88V259H377.056V237.08H380.696V240.2C381.416 239.08 382.389 238.213 383.616 237.6C384.869 236.986 386.243 236.68 387.736 236.68Z"
  ></path>
  <path
    style="fill: var(--color-illustrationHighlight010)"
    d="M411.682 236.72C413.575 236.72 415.229 237.133 416.642 237.96C418.082 238.786 419.149 239.826 419.842 241.08V237.08H423.522V259.48C423.522 261.48 423.095 263.253 422.242 264.8C421.389 266.373 420.162 267.6 418.562 268.48C416.989 269.36 415.148 269.8 413.042 269.8C410.162 269.8 407.762 269.12 405.842 267.76C403.922 266.4 402.789 264.546 402.442 262.2H406.042C406.442 263.533 407.269 264.6 408.522 265.4C409.775 266.226 411.282 266.64 413.042 266.64C415.042 266.64 416.669 266.013 417.922 264.76C419.202 263.506 419.842 261.746 419.842 259.48V254.88C419.122 256.16 418.055 257.226 416.642 258.08C415.229 258.933 413.575 259.36 411.682 259.36C409.735 259.36 407.962 258.88 406.362 257.92C404.789 256.96 403.549 255.613 402.642 253.88C401.735 252.146 401.282 250.173 401.282 247.96C401.282 245.72 401.735 243.76 402.642 242.08C403.549 240.373 404.789 239.053 406.362 238.12C407.962 237.186 409.735 236.72 411.682 236.72ZM419.842 248C419.842 246.346 419.509 244.906 418.842 243.68C418.175 242.453 417.269 241.52 416.122 240.88C415.002 240.213 413.762 239.88 412.402 239.88C411.042 239.88 409.802 240.2 408.682 240.84C407.562 241.48 406.669 242.413 406.002 243.64C405.335 244.866 405.002 246.306 405.002 247.96C405.002 249.64 405.335 251.106 406.002 252.36C406.669 253.586 407.562 254.533 408.682 255.2C409.802 255.84 411.042 256.16 412.402 256.16C413.762 256.16 415.002 255.84 416.122 255.2C417.269 254.533 418.175 253.586 418.842 252.36C419.509 251.106 419.842 249.653 419.842 248Z"
  ></path>
  <path
    style="fill: var(--color-illustrationHighlight010)"
    d="M442.217 233.52C441.524 233.52 440.937 233.28 440.457 232.8C439.977 232.32 439.737 231.733 439.737 231.04C439.737 230.346 439.977 229.76 440.457 229.28C440.937 228.8 441.524 228.56 442.217 228.56C442.884 228.56 443.444 228.8 443.897 229.28C444.377 229.76 444.617 230.346 444.617 231.04C444.617 231.733 444.377 232.32 443.897 232.8C443.444 233.28 442.884 233.52 442.217 233.52ZM443.977 237.08V259H440.337V237.08H443.977Z"
  ></path>
  <path
    style="fill: var(--color-illustrationHighlight010)"
    d="M448.821 248C448.821 245.733 449.274 243.76 450.181 242.08C451.088 240.373 452.341 239.053 453.941 238.12C455.568 237.186 457.421 236.72 459.501 236.72C462.194 236.72 464.408 237.373 466.141 238.68C467.901 239.986 469.061 241.8 469.621 244.12H465.701C465.328 242.786 464.594 241.733 463.501 240.96C462.434 240.186 461.101 239.8 459.501 239.8C457.421 239.8 455.741 240.52 454.461 241.96C453.181 243.373 452.541 245.386 452.541 248C452.541 250.64 453.181 252.68 454.461 254.12C455.741 255.56 457.421 256.28 459.501 256.28C461.101 256.28 462.434 255.906 463.501 255.16C464.568 254.413 465.301 253.346 465.701 251.96H469.621C469.034 254.2 467.861 256 466.101 257.36C464.341 258.693 462.141 259.36 459.501 259.36C457.421 259.36 455.568 258.893 453.941 257.96C452.341 257.026 451.088 255.706 450.181 254C449.274 252.293 448.821 250.293 448.821 248Z"
  ></path>
  <path
    style="fill: var(--color-illustrationHighlight010)"
    d="M484.038 259.36C481.984 259.36 480.118 258.893 478.438 257.96C476.784 257.026 475.478 255.706 474.518 254C473.584 252.266 473.118 250.266 473.118 248C473.118 245.76 473.598 243.786 474.558 242.08C475.544 240.346 476.878 239.026 478.558 238.12C480.238 237.186 482.118 236.72 484.198 236.72C486.278 236.72 488.158 237.186 489.838 238.12C491.518 239.026 492.838 240.333 493.798 242.04C494.784 243.746 495.278 245.733 495.278 248C495.278 250.266 494.771 252.266 493.758 254C492.771 255.706 491.424 257.026 489.718 257.96C488.011 258.893 486.118 259.36 484.038 259.36ZM484.038 256.16C485.344 256.16 486.571 255.853 487.718 255.24C488.864 254.626 489.784 253.706 490.478 252.48C491.198 251.253 491.558 249.76 491.558 248C491.558 246.24 491.211 244.746 490.518 243.52C489.824 242.293 488.918 241.386 487.798 240.8C486.678 240.186 485.464 239.88 484.158 239.88C482.824 239.88 481.598 240.186 480.478 240.8C479.384 241.386 478.504 242.293 477.838 243.52C477.171 244.746 476.838 246.24 476.838 248C476.838 249.786 477.158 251.293 477.798 252.52C478.464 253.746 479.344 254.666 480.438 255.28C481.531 255.866 482.731 256.16 484.038 256.16Z"
  ></path>
  <path
    style="fill: var(--color-illustrationHighlight010)"
    d="M510.744 236.68C513.41 236.68 515.57 237.493 517.224 239.12C518.877 240.72 519.704 243.04 519.704 246.08V259H516.104V246.6C516.104 244.413 515.557 242.746 514.464 241.6C513.37 240.426 511.877 239.84 509.984 239.84C508.064 239.84 506.53 240.44 505.384 241.64C504.264 242.84 503.704 244.586 503.704 246.88V259H500.064V237.08H503.704V240.2C504.424 239.08 505.397 238.213 506.624 237.6C507.877 236.986 509.25 236.68 510.744 236.68Z"
  ></path>
  <path
    style="fill: var(--color-illustrationHighlight010)"
    d="M288.239 568.12V571.08H280.639V596H276.999V571.08H269.359V568.12H288.239Z"
  ></path>
  <path
    style="fill: var(--color-illustrationHighlight010)"
    d="M296.36 577.64C297 576.386 297.907 575.413 299.08 574.72C300.28 574.026 301.733 573.68 303.44 573.68V577.44H302.48C298.4 577.44 296.36 579.653 296.36 584.08V596H292.72V574.08H296.36V577.64Z"
  ></path>
  <path
    style="fill: var(--color-illustrationHighlight010)"
    d="M306.282 584.96C306.282 582.72 306.735 580.76 307.642 579.08C308.549 577.373 309.789 576.053 311.362 575.12C312.962 574.186 314.735 573.72 316.682 573.72C318.602 573.72 320.269 574.133 321.682 574.96C323.095 575.786 324.149 576.826 324.842 578.08V574.08H328.522V596H324.842V591.92C324.122 593.2 323.042 594.266 321.602 595.12C320.189 595.946 318.535 596.36 316.642 596.36C314.695 596.36 312.935 595.88 311.362 594.92C309.789 593.96 308.549 592.613 307.642 590.88C306.735 589.146 306.282 587.173 306.282 584.96ZM324.842 585C324.842 583.346 324.509 581.906 323.842 580.68C323.175 579.453 322.269 578.52 321.122 577.88C320.002 577.213 318.762 576.88 317.402 576.88C316.042 576.88 314.802 577.2 313.682 577.84C312.562 578.48 311.669 579.413 311.002 580.64C310.335 581.866 310.002 583.306 310.002 584.96C310.002 586.64 310.335 588.106 311.002 589.36C311.669 590.586 312.562 591.533 313.682 592.2C314.802 592.84 316.042 593.16 317.402 593.16C318.762 593.16 320.002 592.84 321.122 592.2C322.269 591.533 323.175 590.586 323.842 589.36C324.509 588.106 324.842 586.653 324.842 585Z"
  ></path>
  <path
    style="fill: var(--color-illustrationHighlight010)"
    d="M336.553 570.52C335.86 570.52 335.273 570.28 334.793 569.8C334.313 569.32 334.073 568.733 334.073 568.04C334.073 567.346 334.313 566.76 334.793 566.28C335.273 565.8 335.86 565.56 336.553 565.56C337.22 565.56 337.78 565.8 338.233 566.28C338.713 566.76 338.953 567.346 338.953 568.04C338.953 568.733 338.713 569.32 338.233 569.8C337.78 570.28 337.22 570.52 336.553 570.52ZM338.313 574.08V596H334.673V574.08H338.313Z"
  ></path>
  <path
    style="fill: var(--color-illustrationHighlight010)"
    d="M348.157 566.4V596H344.517V566.4H348.157Z"
  ></path>
  <path
    style="fill: var(--color-illustrationHighlight010)"
    d="M356.241 570.52C355.547 570.52 354.961 570.28 354.481 569.8C354.001 569.32 353.761 568.733 353.761 568.04C353.761 567.346 354.001 566.76 354.481 566.28C354.961 565.8 355.547 565.56 356.241 565.56C356.907 565.56 357.467 565.8 357.921 566.28C358.401 566.76 358.641 567.346 358.641 568.04C358.641 568.733 358.401 569.32 357.921 569.8C357.467 570.28 356.907 570.52 356.241 570.52ZM358.001 574.08V596H354.361V574.08H358.001Z"
  ></path>
  <path
    style="fill: var(--color-illustrationHighlight010)"
    d="M374.884 573.68C377.551 573.68 379.711 574.493 381.364 576.12C383.018 577.72 383.844 580.04 383.844 583.08V596H380.244V583.6C380.244 581.413 379.698 579.746 378.604 578.6C377.511 577.426 376.018 576.84 374.124 576.84C372.204 576.84 370.671 577.44 369.524 578.64C368.404 579.84 367.844 581.586 367.844 583.88V596H364.204V574.08H367.844V577.2C368.564 576.08 369.538 575.213 370.764 574.6C372.018 573.986 373.391 573.68 374.884 573.68Z"
  ></path>
  <path
    style="fill: var(--color-illustrationHighlight010)"
    d="M398.83 573.72C400.724 573.72 402.377 574.133 403.79 574.96C405.23 575.786 406.297 576.826 406.99 578.08V574.08H410.67V596.48C410.67 598.48 410.244 600.253 409.39 601.8C408.537 603.373 407.31 604.6 405.71 605.48C404.137 606.36 402.297 606.8 400.19 606.8C397.31 606.8 394.91 606.12 392.99 604.76C391.07 603.4 389.937 601.546 389.59 599.2H393.19C393.59 600.533 394.417 601.6 395.67 602.4C396.924 603.226 398.43 603.64 400.19 603.64C402.19 603.64 403.817 603.013 405.07 601.76C406.35 600.506 406.99 598.746 406.99 596.48V591.88C406.27 593.16 405.204 594.226 403.79 595.08C402.377 595.933 400.724 596.36 398.83 596.36C396.884 596.36 395.11 595.88 393.51 594.92C391.937 593.96 390.697 592.613 389.79 590.88C388.884 589.146 388.43 587.173 388.43 584.96C388.43 582.72 388.884 580.76 389.79 579.08C390.697 577.373 391.937 576.053 393.51 575.12C395.11 574.186 396.884 573.72 398.83 573.72ZM406.99 585C406.99 583.346 406.657 581.906 405.99 580.68C405.324 579.453 404.417 578.52 403.27 577.88C402.15 577.213 400.91 576.88 399.55 576.88C398.19 576.88 396.95 577.2 395.83 577.84C394.71 578.48 393.817 579.413 393.15 580.64C392.484 581.866 392.15 583.306 392.15 584.96C392.15 586.64 392.484 588.106 393.15 589.36C393.817 590.586 394.71 591.533 395.83 592.2C396.95 592.84 398.19 593.16 399.55 593.16C400.91 593.16 402.15 592.84 403.27 592.2C404.417 591.533 405.324 590.586 405.99 589.36C406.657 588.106 406.99 586.653 406.99 585Z"
  ></path>
  <path
    style="fill: var(--color-illustrationHighlight010)"
    d="M429.366 570.52C428.672 570.52 428.086 570.28 427.606 569.8C427.126 569.32 426.886 568.733 426.886 568.04C426.886 567.346 427.126 566.76 427.606 566.28C428.086 565.8 428.672 565.56 429.366 565.56C430.032 565.56 430.592 565.8 431.046 566.28C431.526 566.76 431.766 567.346 431.766 568.04C431.766 568.733 431.526 569.32 431.046 569.8C430.592 570.28 430.032 570.52 429.366 570.52ZM431.126 574.08V596H427.486V574.08H431.126Z"
  ></path>
  <path
    style="fill: var(--color-illustrationHighlight010)"
    d="M435.969 585C435.969 582.733 436.423 580.76 437.329 579.08C438.236 577.373 439.489 576.053 441.089 575.12C442.716 574.186 444.569 573.72 446.649 573.72C449.343 573.72 451.556 574.373 453.289 575.68C455.049 576.986 456.209 578.8 456.769 581.12H452.849C452.476 579.786 451.743 578.733 450.649 577.96C449.583 577.186 448.249 576.8 446.649 576.8C444.569 576.8 442.889 577.52 441.609 578.96C440.329 580.373 439.689 582.386 439.689 585C439.689 587.64 440.329 589.68 441.609 591.12C442.889 592.56 444.569 593.28 446.649 593.28C448.249 593.28 449.583 592.906 450.649 592.16C451.716 591.413 452.449 590.346 452.849 588.96H456.769C456.183 591.2 455.009 593 453.249 594.36C451.489 595.693 449.289 596.36 446.649 596.36C444.569 596.36 442.716 595.893 441.089 594.96C439.489 594.026 438.236 592.706 437.329 591C436.423 589.293 435.969 587.293 435.969 585Z"
  ></path>
  <path
    style="fill: var(--color-illustrationHighlight010)"
    d="M471.186 596.36C469.133 596.36 467.266 595.893 465.586 594.96C463.933 594.026 462.626 592.706 461.666 591C460.733 589.266 460.266 587.266 460.266 585C460.266 582.76 460.746 580.786 461.706 579.08C462.693 577.346 464.026 576.026 465.706 575.12C467.386 574.186 469.266 573.72 471.346 573.72C473.426 573.72 475.306 574.186 476.986 575.12C478.666 576.026 479.986 577.333 480.946 579.04C481.933 580.746 482.426 582.733 482.426 585C482.426 587.266 481.92 589.266 480.906 591C479.92 592.706 478.573 594.026 476.866 594.96C475.16 595.893 473.266 596.36 471.186 596.36ZM471.186 593.16C472.493 593.16 473.72 592.853 474.866 592.24C476.013 591.626 476.933 590.706 477.626 589.48C478.346 588.253 478.706 586.76 478.706 585C478.706 583.24 478.36 581.746 477.666 580.52C476.973 579.293 476.066 578.386 474.946 577.8C473.826 577.186 472.613 576.88 471.306 576.88C469.973 576.88 468.746 577.186 467.626 577.8C466.533 578.386 465.653 579.293 464.986 580.52C464.32 581.746 463.986 583.24 463.986 585C463.986 586.786 464.306 588.293 464.946 589.52C465.613 590.746 466.493 591.666 467.586 592.28C468.68 592.866 469.88 593.16 471.186 593.16Z"
  ></path>
  <path
    style="fill: var(--color-illustrationHighlight010)"
    d="M497.892 573.68C500.559 573.68 502.719 574.493 504.372 576.12C506.026 577.72 506.852 580.04 506.852 583.08V596H503.252V583.6C503.252 581.413 502.706 579.746 501.612 578.6C500.519 577.426 499.026 576.84 497.132 576.84C495.212 576.84 493.679 577.44 492.532 578.64C491.412 579.84 490.852 581.586 490.852 583.88V596H487.212V574.08H490.852V577.2C491.572 576.08 492.546 575.213 493.772 574.6C495.026 573.986 496.399 573.68 497.892 573.68Z"
  ></path>
  <g filter="url(#nk-423)">
    <g clip-path="url(#nk-419)">
      <rect
        style="fill: var(--color-illustrationInterface010)"
        width="346"
        height="188.727"
        transform="translate(816 147)"
      ></rect>
      <path
        style="fill: var(--color-illustrationHighlight010)"
        fill-rule="evenodd"
        clip-rule="evenodd"
        d="M894.555 241.363C894.555 226.894 906.298 215.151 920.767 215.151C935.236 215.151 946.979 226.894 946.979 241.363C946.979 255.833 935.236 267.576 920.767 267.576C906.298 267.576 894.555 255.833 894.555 241.363ZM923.382 243.984H933.867V238.742H923.382V228.257H918.14V238.742H907.655V243.984H918.14V254.469H923.382V243.984Z"
      ></path>
      <rect
        style="fill: var(--color-transparent)"
        x="952.227"
        y="194.182"
        width="31"
        height="94"
      ></rect>
      <path
        style="fill: var(--color-illustrationHighlight010)"
        d="M1013.06 222.171V228.273H1003.01V259.863H995.453V228.273H985.409V222.171H1013.06ZM1016.63 244.797C1016.63 241.773 1017.22 239.091 1018.41 236.751C1019.64 234.411 1021.27 232.611 1023.33 231.351C1025.41 230.091 1027.74 229.461 1030.29 229.461C1032.52 229.461 1034.47 229.911 1036.12 230.811C1037.82 231.711 1039.17 232.845 1040.17 234.213V229.947H1047.79V259.863H1040.17V255.489C1039.2 256.893 1037.85 258.063 1036.12 258.999C1034.43 259.899 1032.47 260.349 1030.24 260.349C1027.72 260.349 1025.41 259.701 1023.33 258.405C1021.27 257.109 1019.64 255.291 1018.41 252.951C1017.22 250.575 1016.63 247.857 1016.63 244.797ZM1040.17 244.905C1040.17 243.069 1039.81 241.503 1039.09 240.207C1038.37 238.875 1037.4 237.867 1036.18 237.183C1034.95 236.463 1033.64 236.103 1032.24 236.103C1030.83 236.103 1029.54 236.445 1028.35 237.129C1027.16 237.813 1026.19 238.821 1025.43 240.153C1024.71 241.449 1024.35 242.997 1024.35 244.797C1024.35 246.597 1024.71 248.181 1025.43 249.549C1026.19 250.881 1027.16 251.907 1028.35 252.627C1029.57 253.347 1030.87 253.707 1032.24 253.707C1033.64 253.707 1034.95 253.365 1036.18 252.681C1037.4 251.961 1038.37 250.953 1039.09 249.657C1039.81 248.325 1040.17 246.741 1040.17 244.905ZM1062.73 234.321C1063.7 232.881 1065.03 231.711 1066.73 230.811C1068.45 229.911 1070.42 229.461 1072.61 229.461C1075.17 229.461 1077.47 230.091 1079.52 231.351C1081.61 232.611 1083.25 234.411 1084.44 236.751C1085.66 239.055 1086.27 241.737 1086.27 244.797C1086.27 247.857 1085.66 250.575 1084.44 252.951C1083.25 255.291 1081.61 257.109 1079.52 258.405C1077.47 259.701 1075.17 260.349 1072.61 260.349C1070.38 260.349 1068.42 259.917 1066.73 259.053C1065.07 258.153 1063.74 257.001 1062.73 255.597V259.863H1055.17V219.903H1062.73V234.321ZM1078.55 244.797C1078.55 242.997 1078.17 241.449 1077.42 240.153C1076.7 238.821 1075.73 237.813 1074.5 237.129C1073.31 236.445 1072.02 236.103 1070.61 236.103C1069.25 236.103 1067.95 236.463 1066.73 237.183C1065.54 237.867 1064.57 238.875 1063.81 240.207C1063.09 241.539 1062.73 243.105 1062.73 244.905C1062.73 246.705 1063.09 248.271 1063.81 249.603C1064.57 250.935 1065.54 251.961 1066.73 252.681C1067.95 253.365 1069.25 253.707 1070.61 253.707C1072.02 253.707 1073.31 253.347 1074.5 252.627C1075.73 251.907 1076.7 250.881 1077.42 249.549C1078.17 248.217 1078.55 246.633 1078.55 244.797Z"
      ></path>
      <g clip-path="url(#nk-420)">
        <rect
          style="fill: var(--color-illustrationHighlight010)"
          x="816"
          y="335.728"
          width="346"
          height="7.86364"
        ></rect>
      </g>
    </g>
  </g>
  <g filter="url(#nk-424)">
    <g clip-path="url(#nk-421)">
      <rect
        style="fill: var(--color-illustrationInterface010)"
        width="346"
        height="188.727"
        transform="translate(816 484)"
      ></rect>
      <path
        style="fill: var(--color-illustrationHighlight010)"
        d="M918.694 559.171V565.273H908.65V596.863H901.09V565.273H891.046V559.171H918.694ZM922.266 581.797C922.266 578.773 922.86 576.091 924.048 573.751C925.272 571.411 926.91 569.611 928.962 568.351C931.05 567.091 933.372 566.461 935.928 566.461C938.16 566.461 940.104 566.911 941.76 567.811C943.452 568.711 944.802 569.845 945.81 571.213V566.947H953.424V596.863H945.81V592.489C944.838 593.893 943.488 595.063 941.76 595.999C940.068 596.899 938.106 597.349 935.874 597.349C933.354 597.349 931.05 596.701 928.962 595.405C926.91 594.109 925.272 592.291 924.048 589.951C922.86 587.575 922.266 584.857 922.266 581.797ZM945.81 581.905C945.81 580.069 945.45 578.503 944.73 577.207C944.01 575.875 943.038 574.867 941.814 574.183C940.59 573.463 939.276 573.103 937.872 573.103C936.468 573.103 935.172 573.445 933.984 574.129C932.796 574.813 931.824 575.821 931.068 577.153C930.348 578.449 929.988 579.997 929.988 581.797C929.988 583.597 930.348 585.181 931.068 586.549C931.824 587.881 932.796 588.907 933.984 589.627C935.208 590.347 936.504 590.707 937.872 590.707C939.276 590.707 940.59 590.365 941.814 589.681C943.038 588.961 944.01 587.953 944.73 586.657C945.45 585.325 945.81 583.741 945.81 581.905ZM968.367 571.321C969.339 569.881 970.671 568.711 972.363 567.811C974.091 566.911 976.053 566.461 978.249 566.461C980.805 566.461 983.109 567.091 985.161 568.351C987.249 569.611 988.887 571.411 990.075 573.751C991.299 576.055 991.911 578.737 991.911 581.797C991.911 584.857 991.299 587.575 990.075 589.951C988.887 592.291 987.249 594.109 985.161 595.405C983.109 596.701 980.805 597.349 978.249 597.349C976.017 597.349 974.055 596.917 972.363 596.053C970.707 595.153 969.375 594.001 968.367 592.597V596.863H960.807V556.903H968.367V571.321ZM984.189 581.797C984.189 579.997 983.811 578.449 983.055 577.153C982.335 575.821 981.363 574.813 980.139 574.129C978.951 573.445 977.655 573.103 976.251 573.103C974.883 573.103 973.587 573.463 972.363 574.183C971.175 574.867 970.203 575.875 969.447 577.207C968.727 578.539 968.367 580.105 968.367 581.905C968.367 583.705 968.727 585.271 969.447 586.603C970.203 587.935 971.175 588.961 972.363 589.681C973.587 590.365 974.883 590.707 976.251 590.707C977.655 590.707 978.951 590.347 980.139 589.627C981.363 588.907 982.335 587.881 983.055 586.549C983.811 585.217 984.189 583.633 984.189 581.797Z"
      ></path>
      <path
        style="fill: var(--color-illustrationHighlight010)"
        fill-rule="evenodd"
        clip-rule="evenodd"
        d="M1031.01 578.363C1031.01 563.894 1042.75 552.151 1057.22 552.151C1071.69 552.151 1083.43 563.894 1083.43 578.363C1083.43 592.833 1071.69 604.576 1057.22 604.576C1042.75 604.576 1031.01 592.833 1031.01 578.363ZM1059.84 580.984H1070.32V575.742H1059.84V565.257H1054.59V575.742H1044.11V580.984H1054.59V591.469H1059.84V580.984Z"
      ></path>
      <g clip-path="url(#nk-422)">
        <rect
          style="fill: var(--color-illustrationHighlight010)"
          x="816"
          y="672.728"
          width="346"
          height="7.86364"
        ></rect>
      </g>
    </g>
  </g>
  <defs>
    <filter
      id="nk-423"
      x="800"
      y="139"
      width="378"
      height="228.591"
      filterUnits="userSpaceOnUse"
      color-interpolation-filters="sRGB"
    >
      <feFlood flood-opacity="0" result="BackgroundImageFix"></feFlood>
      <feColorMatrix
        in="SourceAlpha"
        type="matrix"
        values="0 0 0 0 0 0 0 0 0 0 0 0 0 0 0 0 0 0 127 0"
        result="hardAlpha"
      ></feColorMatrix>
      <feOffset dy="8"></feOffset>
      <feGaussianBlur stdDeviation="8"></feGaussianBlur>
      <feColorMatrix
        type="matrix"
        values="0 0 0 0 0.0392157 0 0 0 0 0.0392157 0 0 0 0 0.0392157 0 0 0 0.08 0"
      ></feColorMatrix>
      <feBlend
        mode="normal"
        in2="BackgroundImageFix"
        result="effect1_dropShadow_1075_26463"
      ></feBlend>
      <feBlend
        mode="normal"
        in="SourceGraphic"
        in2="effect1_dropShadow_1075_26463"
        result="shape"
      ></feBlend>
    </filter>
    <filter
      id="nk-424"
      x="800"
      y="476"
      width="378"
      height="228.591"
      filterUnits="userSpaceOnUse"
      color-interpolation-filters="sRGB"
    >
      <feFlood flood-opacity="0" result="BackgroundImageFix"></feFlood>
      <feColorMatrix
        in="SourceAlpha"
        type="matrix"
        values="0 0 0 0 0 0 0 0 0 0 0 0 0 0 0 0 0 0 127 0"
        result="hardAlpha"
      ></feColorMatrix>
      <feOffset dy="8"></feOffset>
      <feGaussianBlur stdDeviation="8"></feGaussianBlur>
      <feColorMatrix
        type="matrix"
        values="0 0 0 0 0.0392157 0 0 0 0 0.0392157 0 0 0 0 0.0392157 0 0 0 0.08 0"
      ></feColorMatrix>
      <feBlend
        mode="normal"
        in2="BackgroundImageFix"
        result="effect1_dropShadow_1075_26463"
      ></feBlend>
      <feBlend
        mode="normal"
        in="SourceGraphic"
        in2="effect1_dropShadow_1075_26463"
        result="shape"
      ></feBlend>
    </filter>
    <clipPath id="nk-419">
      <rect
        style="fill: var(--color-white)"
        x="816"
        y="147"
        width="346"
        height="196.591"
        rx="8"
      ></rect>
    </clipPath>
    <clipPath id="nk-420">
      <rect
        style="fill: var(--color-white)"
        width="346"
        height="7.86364"
        transform="translate(816 335.728)"
      ></rect>
    </clipPath>
    <clipPath id="nk-421">
      <rect
        style="fill: var(--color-white)"
        x="816"
        y="484"
        width="346"
        height="196.591"
        rx="8"
      ></rect>
    </clipPath>
    <clipPath id="nk-422">
      <rect
        style="fill: var(--color-white)"
        width="346"
        height="7.86364"
        transform="translate(816 672.728)"
      ></rect>
    </clipPath>
  </defs>
</svg>
