<svg id="nksvg" style="width: 100%; height: 100%" width="1492" height="839" viewBox="0 0 1492 839" fill="none" xmlns="http://www.w3.org/2000/svg" class="css-0">
  <path style="fill: var(--color-illustrationBackground010)" d="M0 8.42707C0 3.77292 3.77293 0 8.42708 0H1483.17C1487.82 0 1491.59 3.77293 1491.59 8.42708V830.068C1491.59 834.722 1487.82 838.495 1483.17 838.495H8.42712C3.77297 838.495 0 834.722 0 830.068V8.42707Z"></path>
  <g>
    <g clip-path="url(#clip0)">
      <g clip-path="url(#clip1)">
        <rect style="fill: var(--color-illustrationInterface010)" width="284.113" height="209.832" transform="translate(595.543 194.104)"></rect>
        <path style="fill: var(--color-illustrationHighlight010)" d="M682.904 250.1L675.104 278.02H668.504L663.264 258.14L657.784 278.02L651.224 278.06L643.704 250.1H649.704L654.624 271.78L660.304 250.1H666.544L671.904 271.66L676.864 250.1H682.904ZM692.161 259.3C692.881 258.126 693.814 257.206 694.961 256.54C696.134 255.873 697.467 255.54 698.961 255.54V261.42H697.481C695.721 261.42 694.387 261.833 693.481 262.66C692.601 263.486 692.161 264.926 692.161 266.98V278.02H686.561V255.86H692.161V259.3ZM701.293 266.86C701.293 264.62 701.733 262.633 702.613 260.9C703.519 259.166 704.733 257.833 706.253 256.9C707.799 255.966 709.519 255.5 711.413 255.5C713.066 255.5 714.506 255.833 715.733 256.5C716.986 257.166 717.986 258.006 718.733 259.02V255.86H724.373V278.02H718.733V274.78C718.013 275.82 717.013 276.686 715.733 277.38C714.479 278.046 713.026 278.38 711.373 278.38C709.506 278.38 707.799 277.9 706.253 276.94C704.733 275.98 703.519 274.633 702.613 272.9C701.733 271.14 701.293 269.126 701.293 266.86ZM718.733 266.94C718.733 265.58 718.466 264.42 717.933 263.46C717.399 262.473 716.679 261.726 715.773 261.22C714.866 260.686 713.893 260.42 712.853 260.42C711.813 260.42 710.853 260.673 709.973 261.18C709.093 261.686 708.373 262.433 707.813 263.42C707.279 264.38 707.013 265.526 707.013 266.86C707.013 268.193 707.279 269.366 707.813 270.38C708.373 271.366 709.093 272.126 709.973 272.66C710.879 273.193 711.839 273.46 712.853 273.46C713.893 273.46 714.866 273.206 715.773 272.7C716.679 272.166 717.399 271.42 717.933 270.46C718.466 269.473 718.733 268.3 718.733 266.94ZM735.442 259.06C736.162 258.046 737.149 257.206 738.402 256.54C739.682 255.846 741.135 255.5 742.762 255.5C744.655 255.5 746.362 255.966 747.882 256.9C749.429 257.833 750.642 259.166 751.522 260.9C752.429 262.606 752.882 264.593 752.882 266.86C752.882 269.126 752.429 271.14 751.522 272.9C750.642 274.633 749.429 275.98 747.882 276.94C746.362 277.9 744.655 278.38 742.762 278.38C741.135 278.38 739.695 278.046 738.442 277.38C737.215 276.713 736.215 275.873 735.442 274.86V288.58H729.842V255.86H735.442V259.06ZM747.162 266.86C747.162 265.526 746.882 264.38 746.322 263.42C745.789 262.433 745.069 261.686 744.162 261.18C743.282 260.673 742.322 260.42 741.282 260.42C740.269 260.42 739.309 260.686 738.402 261.22C737.522 261.726 736.802 262.473 736.242 263.46C735.709 264.446 735.442 265.606 735.442 266.94C735.442 268.273 735.709 269.433 736.242 270.42C736.802 271.406 737.522 272.166 738.402 272.7C739.309 273.206 740.269 273.46 741.282 273.46C742.322 273.46 743.282 273.193 744.162 272.66C745.069 272.126 745.789 271.366 746.322 270.38C746.882 269.393 747.162 268.22 747.162 266.86ZM762.551 259.06C763.271 258.046 764.258 257.206 765.511 256.54C766.791 255.846 768.245 255.5 769.871 255.5C771.765 255.5 773.471 255.966 774.991 256.9C776.538 257.833 777.751 259.166 778.631 260.9C779.538 262.606 779.991 264.593 779.991 266.86C779.991 269.126 779.538 271.14 778.631 272.9C777.751 274.633 776.538 275.98 774.991 276.94C773.471 277.9 771.765 278.38 769.871 278.38C768.245 278.38 766.805 278.046 765.551 277.38C764.325 276.713 763.325 275.873 762.551 274.86V288.58H756.951V255.86H762.551V259.06ZM774.271 266.86C774.271 265.526 773.991 264.38 773.431 263.42C772.898 262.433 772.178 261.686 771.271 261.18C770.391 260.673 769.431 260.42 768.391 260.42C767.378 260.42 766.418 260.686 765.511 261.22C764.631 261.726 763.911 262.473 763.351 263.46C762.818 264.446 762.551 265.606 762.551 266.94C762.551 268.273 762.818 269.433 763.351 270.42C763.911 271.406 764.631 272.166 765.511 272.7C766.418 273.206 767.378 273.46 768.391 273.46C769.431 273.46 770.391 273.193 771.271 272.66C772.178 272.126 772.898 271.366 773.431 270.38C773.991 269.393 774.271 268.22 774.271 266.86ZM804.661 266.46C804.661 267.26 804.607 267.98 804.501 268.62H788.301C788.434 270.22 788.994 271.473 789.981 272.38C790.967 273.286 792.181 273.74 793.621 273.74C795.701 273.74 797.181 272.846 798.061 271.06H804.101C803.461 273.193 802.234 274.953 800.421 276.34C798.607 277.7 796.381 278.38 793.741 278.38C791.607 278.38 789.687 277.913 787.981 276.98C786.301 276.02 784.981 274.673 784.021 272.94C783.087 271.206 782.621 269.206 782.621 266.94C782.621 264.646 783.087 262.633 784.021 260.9C784.954 259.166 786.261 257.833 787.941 256.9C789.621 255.966 791.554 255.5 793.741 255.5C795.847 255.5 797.727 255.953 799.381 256.86C801.061 257.766 802.354 259.06 803.261 260.74C804.194 262.393 804.661 264.3 804.661 266.46ZM798.861 264.86C798.834 263.42 798.314 262.273 797.301 261.42C796.287 260.54 795.047 260.1 793.581 260.1C792.194 260.1 791.021 260.526 790.061 261.38C789.127 262.206 788.554 263.366 788.341 264.86H798.861ZM807.308 266.86C807.308 264.62 807.748 262.633 808.628 260.9C809.535 259.166 810.762 257.833 812.308 256.9C813.855 255.966 815.575 255.5 817.468 255.5C818.908 255.5 820.282 255.82 821.588 256.46C822.895 257.073 823.935 257.9 824.708 258.94V248.42H830.388V278.02H824.708V274.74C824.015 275.833 823.042 276.713 821.788 277.38C820.535 278.046 819.082 278.38 817.428 278.38C815.562 278.38 813.855 277.9 812.308 276.94C810.762 275.98 809.535 274.633 808.628 272.9C807.748 271.14 807.308 269.126 807.308 266.86ZM824.748 266.94C824.748 265.58 824.482 264.42 823.948 263.46C823.415 262.473 822.695 261.726 821.788 261.22C820.882 260.686 819.908 260.42 818.868 260.42C817.828 260.42 816.868 260.673 815.988 261.18C815.108 261.686 814.388 262.433 813.828 263.42C813.295 264.38 813.028 265.526 813.028 266.86C813.028 268.193 813.295 269.366 813.828 270.38C814.388 271.366 815.108 272.126 815.988 272.66C816.895 273.193 817.855 273.46 818.868 273.46C819.908 273.46 820.882 273.206 821.788 272.7C822.695 272.166 823.415 271.42 823.948 270.46C824.482 269.473 824.748 268.3 824.748 266.94ZM661.948 330.46V341.18C661.948 341.926 662.121 342.473 662.468 342.82C662.841 343.14 663.455 343.3 664.308 343.3H666.908V348.02H663.388C658.668 348.02 656.308 345.726 656.308 341.14V330.46H653.668V325.86H656.308V320.38H661.948V325.86H666.908V330.46H661.948ZM669.496 336.86C669.496 334.62 669.936 332.633 670.816 330.9C671.722 329.166 672.936 327.833 674.456 326.9C676.002 325.966 677.722 325.5 679.616 325.5C681.269 325.5 682.709 325.833 683.936 326.5C685.189 327.166 686.189 328.006 686.936 329.02V325.86H692.576V348.02H686.936V344.78C686.216 345.82 685.216 346.686 683.936 347.38C682.682 348.046 681.229 348.38 679.576 348.38C677.709 348.38 676.002 347.9 674.456 346.94C672.936 345.98 671.722 344.633 670.816 342.9C669.936 341.14 669.496 339.126 669.496 336.86ZM686.936 336.94C686.936 335.58 686.669 334.42 686.136 333.46C685.602 332.473 684.882 331.726 683.976 331.22C683.069 330.686 682.096 330.42 681.056 330.42C680.016 330.42 679.056 330.673 678.176 331.18C677.296 331.686 676.576 332.433 676.016 333.42C675.482 334.38 675.216 335.526 675.216 336.86C675.216 338.193 675.482 339.366 676.016 340.38C676.576 341.366 677.296 342.126 678.176 342.66C679.082 343.193 680.042 343.46 681.056 343.46C682.096 343.46 683.069 343.206 683.976 342.7C684.882 342.166 685.602 341.42 686.136 340.46C686.669 339.473 686.936 338.3 686.936 336.94ZM703.645 329.1C704.365 328.033 705.352 327.166 706.605 326.5C707.885 325.833 709.338 325.5 710.965 325.5C712.858 325.5 714.565 325.966 716.085 326.9C717.632 327.833 718.845 329.166 719.725 330.9C720.632 332.606 721.085 334.593 721.085 336.86C721.085 339.126 720.632 341.14 719.725 342.9C718.845 344.633 717.632 345.98 716.085 346.94C714.565 347.9 712.858 348.38 710.965 348.38C709.312 348.38 707.858 348.06 706.605 347.42C705.378 346.753 704.392 345.9 703.645 344.86V348.02H698.045V318.42H703.645V329.1ZM715.365 336.86C715.365 335.526 715.085 334.38 714.525 333.42C713.992 332.433 713.272 331.686 712.365 331.18C711.485 330.673 710.525 330.42 709.485 330.42C708.472 330.42 707.512 330.686 706.605 331.22C705.725 331.726 705.005 332.473 704.445 333.46C703.912 334.446 703.645 335.606 703.645 336.94C703.645 338.273 703.912 339.433 704.445 340.42C705.005 341.406 705.725 342.166 706.605 342.7C707.512 343.206 708.472 343.46 709.485 343.46C710.525 343.46 711.485 343.193 712.365 342.66C713.272 342.126 713.992 341.366 714.525 340.38C715.085 339.393 715.365 338.22 715.365 336.86ZM740.286 318.42V348.02H734.686V318.42H740.286ZM744.379 336.86C744.379 334.62 744.819 332.633 745.699 330.9C746.605 329.166 747.819 327.833 749.339 326.9C750.885 325.966 752.605 325.5 754.499 325.5C756.152 325.5 757.592 325.833 758.819 326.5C760.072 327.166 761.072 328.006 761.819 329.02V325.86H767.459V348.02H761.819V344.78C761.099 345.82 760.099 346.686 758.819 347.38C757.565 348.046 756.112 348.38 754.459 348.38C752.592 348.38 750.885 347.9 749.339 346.94C747.819 345.98 746.605 344.633 745.699 342.9C744.819 341.14 744.379 339.126 744.379 336.86ZM761.819 336.94C761.819 335.58 761.552 334.42 761.019 333.46C760.485 332.473 759.765 331.726 758.859 331.22C757.952 330.686 756.979 330.42 755.939 330.42C754.899 330.42 753.939 330.673 753.059 331.18C752.179 331.686 751.459 332.433 750.899 333.42C750.365 334.38 750.099 335.526 750.099 336.86C750.099 338.193 750.365 339.366 750.899 340.38C751.459 341.366 752.179 342.126 753.059 342.66C753.965 343.193 754.925 343.46 755.939 343.46C756.979 343.46 757.952 343.206 758.859 342.7C759.765 342.166 760.485 341.42 761.019 340.46C761.552 339.473 761.819 338.3 761.819 336.94ZM778.528 329.1C779.248 328.033 780.235 327.166 781.488 326.5C782.768 325.833 784.221 325.5 785.848 325.5C787.741 325.5 789.448 325.966 790.968 326.9C792.515 327.833 793.728 329.166 794.608 330.9C795.515 332.606 795.968 334.593 795.968 336.86C795.968 339.126 795.515 341.14 794.608 342.9C793.728 344.633 792.515 345.98 790.968 346.94C789.448 347.9 787.741 348.38 785.848 348.38C784.195 348.38 782.741 348.06 781.488 347.42C780.261 346.753 779.275 345.9 778.528 344.86V348.02H772.928V318.42H778.528V329.1ZM790.248 336.86C790.248 335.526 789.968 334.38 789.408 333.42C788.875 332.433 788.155 331.686 787.248 331.18C786.368 330.673 785.408 330.42 784.368 330.42C783.355 330.42 782.395 330.686 781.488 331.22C780.608 331.726 779.888 332.473 779.328 333.46C778.795 334.446 778.528 335.606 778.528 336.94C778.528 338.273 778.795 339.433 779.328 340.42C779.888 341.406 780.608 342.166 781.488 342.7C782.395 343.206 783.355 343.46 784.368 343.46C785.408 343.46 786.368 343.193 787.248 342.66C788.155 342.126 788.875 341.366 789.408 340.38C789.968 339.393 790.248 338.22 790.248 336.86ZM820.637 336.46C820.637 337.26 820.584 337.98 820.477 338.62H804.277C804.411 340.22 804.971 341.473 805.957 342.38C806.944 343.286 808.157 343.74 809.597 343.74C811.677 343.74 813.157 342.846 814.037 341.06H820.077C819.437 343.193 818.211 344.953 816.397 346.34C814.584 347.7 812.357 348.38 809.717 348.38C807.584 348.38 805.664 347.913 803.957 346.98C802.277 346.02 800.957 344.673 799.997 342.94C799.064 341.206 798.597 339.206 798.597 336.94C798.597 334.646 799.064 332.633 799.997 330.9C800.931 329.166 802.237 327.833 803.917 326.9C805.597 325.966 807.531 325.5 809.717 325.5C811.824 325.5 813.704 325.953 815.357 326.86C817.037 327.766 818.331 329.06 819.237 330.74C820.171 332.393 820.637 334.3 820.637 336.46ZM814.837 334.86C814.811 333.42 814.291 332.273 813.277 331.42C812.264 330.54 811.024 330.1 809.557 330.1C808.171 330.1 806.997 330.526 806.037 331.38C805.104 332.206 804.531 333.366 804.317 334.86H814.837ZM830.325 318.42V348.02H824.725V318.42H830.325Z"></path>
        <rect style="fill: var(--color-transparent)" x="833.098" y="264.104" width="0.00290968" height="69.8323"></rect>
        <g clip-path="url(#clip2)">
          <rect style="fill: var(--color-illustrationHighlight010)" x="879.656" y="403.936" width="210.11" height="5.81936" transform="rotate(-90 879.656 403.936)"></rect>
        </g>
        <rect style="fill: var(--color-illustrationBorder010)" width="290" height="3" transform="translate(595.543 403.936)"></rect>
        <rect style="fill: var(--color-illustrationInterface010)" width="284.113" height="139.665" transform="translate(595.543 406.846)"></rect>
        <path style="fill: var(--color-illustrationSubtle010)" d="M745.053 462.258V466.778H737.613V490.178H732.013V466.778H724.573V462.258H745.053ZM747.699 479.018C747.699 476.778 748.139 474.791 749.019 473.058C749.926 471.324 751.139 469.991 752.659 469.058C754.206 468.124 755.926 467.658 757.819 467.658C759.472 467.658 760.912 467.991 762.139 468.658C763.392 469.324 764.392 470.164 765.139 471.178V468.018H770.779V490.178H765.139V486.938C764.419 487.978 763.419 488.844 762.139 489.538C760.886 490.204 759.432 490.538 757.779 490.538C755.912 490.538 754.206 490.058 752.659 489.098C751.139 488.138 749.926 486.791 749.019 485.058C748.139 483.298 747.699 481.284 747.699 479.018ZM765.139 479.098C765.139 477.738 764.872 476.578 764.339 475.618C763.806 474.631 763.086 473.884 762.179 473.378C761.272 472.844 760.299 472.578 759.259 472.578C758.219 472.578 757.259 472.831 756.379 473.338C755.499 473.844 754.779 474.591 754.219 475.578C753.686 476.538 753.419 477.684 753.419 479.018C753.419 480.351 753.686 481.524 754.219 482.538C754.779 483.524 755.499 484.284 756.379 484.818C757.286 485.351 758.246 485.618 759.259 485.618C760.299 485.618 761.272 485.364 762.179 484.858C763.086 484.324 763.806 483.578 764.339 482.618C764.872 481.631 765.139 480.458 765.139 479.098ZM781.848 471.258C782.568 470.191 783.555 469.324 784.808 468.658C786.088 467.991 787.542 467.658 789.168 467.658C791.062 467.658 792.768 468.124 794.288 469.058C795.835 469.991 797.048 471.324 797.928 473.058C798.835 474.764 799.288 476.751 799.288 479.018C799.288 481.284 798.835 483.298 797.928 485.058C797.048 486.791 795.835 488.138 794.288 489.098C792.768 490.058 791.062 490.538 789.168 490.538C787.515 490.538 786.062 490.218 784.808 489.578C783.582 488.911 782.595 488.058 781.848 487.018V490.178H776.248V460.578H781.848V471.258ZM793.568 479.018C793.568 477.684 793.288 476.538 792.728 475.578C792.195 474.591 791.475 473.844 790.568 473.338C789.688 472.831 788.728 472.578 787.688 472.578C786.675 472.578 785.715 472.844 784.808 473.378C783.928 473.884 783.208 474.631 782.648 475.618C782.115 476.604 781.848 477.764 781.848 479.098C781.848 480.431 782.115 481.591 782.648 482.578C783.208 483.564 783.928 484.324 784.808 484.858C785.715 485.364 786.675 485.618 787.688 485.618C788.728 485.618 789.688 485.351 790.568 484.818C791.475 484.284 792.195 483.524 792.728 482.538C793.288 481.551 793.568 480.378 793.568 479.018ZM814.009 483.858C816.569 481.724 818.609 479.951 820.129 478.538C821.649 477.098 822.916 475.604 823.929 474.058C824.942 472.511 825.449 470.991 825.449 469.498C825.449 468.138 825.129 467.071 824.489 466.298C823.849 465.524 822.862 465.138 821.529 465.138C820.196 465.138 819.169 465.591 818.449 466.498C817.729 467.378 817.356 468.591 817.329 470.138H811.889C811.996 466.938 812.942 464.511 814.729 462.858C816.542 461.204 818.836 460.378 821.609 460.378C824.649 460.378 826.982 461.191 828.609 462.818C830.236 464.418 831.049 466.538 831.049 469.178C831.049 471.258 830.489 473.244 829.369 475.138C828.249 477.031 826.969 478.684 825.529 480.098C824.089 481.484 822.209 483.164 819.889 485.138H831.689V489.778H811.929V485.618L814.009 483.858Z"></path>
        <rect style="fill: var(--color-transparent)" x="833.098" y="441.762" width="0.00290968" height="69.8323"></rect>
        <g clip-path="url(#clip3)">
          <rect style="fill: var(--color-illustrationInterface030)" width="139.665" height="5.81936" transform="translate(879.656 546.51) rotate(-90)"></rect>
          <rect style="fill: var(--color-transparent)" x="879.656" y="546.51" width="140.11" height="5.81936" transform="rotate(-90 879.656 546.51)"></rect>
        </g>
        <rect style="fill: var(--color-illustrationBorder010)" width="290" height="3" transform="translate(595.543 546.51)"></rect>
        <rect style="fill: var(--color-illustrationInterface010)" width="284.113" height="139.665" transform="translate(595.543 549.42)"></rect>
        <path style="fill: var(--color-illustrationSubtle010)" d="M744.076 604.832V609.352H736.636V632.752H731.036V609.352H723.596V604.832H744.076ZM746.722 621.592C746.722 619.352 747.162 617.365 748.042 615.632C748.949 613.899 750.162 612.565 751.682 611.632C753.229 610.699 754.949 610.232 756.842 610.232C758.496 610.232 759.936 610.565 761.162 611.232C762.416 611.899 763.416 612.739 764.162 613.752V610.592H769.802V632.752H764.162V629.512C763.442 630.552 762.442 631.419 761.162 632.112C759.909 632.779 758.456 633.112 756.802 633.112C754.936 633.112 753.229 632.632 751.682 631.672C750.162 630.712 748.949 629.365 748.042 627.632C747.162 625.872 746.722 623.859 746.722 621.592ZM764.162 621.672C764.162 620.312 763.896 619.152 763.362 618.192C762.829 617.205 762.109 616.459 761.202 615.952C760.296 615.419 759.322 615.152 758.282 615.152C757.242 615.152 756.282 615.405 755.402 615.912C754.522 616.419 753.802 617.165 753.242 618.152C752.709 619.112 752.442 620.259 752.442 621.592C752.442 622.925 752.709 624.099 753.242 625.112C753.802 626.099 754.522 626.859 755.402 627.392C756.309 627.925 757.269 628.192 758.282 628.192C759.322 628.192 760.296 627.939 761.202 627.432C762.109 626.899 762.829 626.152 763.362 625.192C763.896 624.205 764.162 623.032 764.162 621.672ZM780.872 613.832C781.592 612.765 782.578 611.899 783.832 611.232C785.112 610.565 786.565 610.232 788.192 610.232C790.085 610.232 791.792 610.699 793.312 611.632C794.858 612.565 796.072 613.899 796.952 615.632C797.858 617.339 798.312 619.325 798.312 621.592C798.312 623.859 797.858 625.872 796.952 627.632C796.072 629.365 794.858 630.712 793.312 631.672C791.792 632.632 790.085 633.112 788.192 633.112C786.538 633.112 785.085 632.792 783.832 632.152C782.605 631.485 781.618 630.632 780.872 629.592V632.752H775.272V603.152H780.872V613.832ZM792.592 621.592C792.592 620.259 792.312 619.112 791.752 618.152C791.218 617.165 790.498 616.419 789.592 615.912C788.712 615.405 787.752 615.152 786.712 615.152C785.698 615.152 784.738 615.419 783.832 615.952C782.952 616.459 782.232 617.205 781.672 618.192C781.138 619.179 780.872 620.339 780.872 621.672C780.872 623.005 781.138 624.165 781.672 625.152C782.232 626.139 782.952 626.899 783.832 627.432C784.738 627.939 785.698 628.192 786.712 628.192C787.752 628.192 788.712 627.925 789.592 627.392C790.498 626.859 791.218 626.099 791.752 625.112C792.312 624.125 792.592 622.952 792.592 621.592ZM811.352 611.272C811.486 608.605 812.419 606.552 814.152 605.112C815.912 603.645 818.219 602.912 821.072 602.912C823.019 602.912 824.686 603.259 826.072 603.952C827.459 604.619 828.499 605.539 829.192 606.712C829.912 607.859 830.272 609.165 830.272 610.632C830.272 612.312 829.832 613.739 828.952 614.912C828.099 616.059 827.072 616.832 825.872 617.232V617.392C827.419 617.872 828.619 618.725 829.472 619.952C830.352 621.179 830.792 622.752 830.792 624.672C830.792 626.272 830.419 627.699 829.672 628.952C828.952 630.205 827.872 631.192 826.432 631.912C825.019 632.605 823.312 632.952 821.312 632.952C818.299 632.952 815.846 632.192 813.952 630.672C812.059 629.152 811.059 626.912 810.952 623.952H816.392C816.446 625.259 816.886 626.312 817.712 627.112C818.566 627.885 819.726 628.272 821.192 628.272C822.552 628.272 823.592 627.899 824.312 627.152C825.059 626.379 825.432 625.392 825.432 624.192C825.432 622.592 824.926 621.445 823.912 620.752C822.899 620.059 821.326 619.712 819.192 619.712H818.032V615.112H819.192C822.979 615.112 824.872 613.845 824.872 611.312C824.872 610.165 824.526 609.272 823.832 608.632C823.166 607.992 822.192 607.672 820.912 607.672C819.659 607.672 818.686 608.019 817.992 608.712C817.326 609.379 816.939 610.232 816.832 611.272H811.352Z"></path>
        <rect style="fill: var(--color-transparent)" x="833.098" y="584.336" width="0.00290968" height="69.8323"></rect>
        <g clip-path="url(#clip4)">
          <rect style="fill: var(--color-illustrationInterface030)" width="139.665" height="5.81936" transform="translate(879.656 689.084) rotate(-90)"></rect>
          <rect style="fill: var(--color-transparent)" x="879.656" y="689.084" width="140.11" height="5.81936" transform="rotate(-90 879.656 689.084)"></rect>
        </g>
      </g>
    </g>
  </g>
  <path style="fill: var(--color-illustrationHighlight010)" fill-rule="evenodd" clip-rule="evenodd" d="M597.777 107.235V149.37H594.867V107.235H597.777Z"></path>
  <path style="fill: var(--color-illustrationHighlight010)" fill-rule="evenodd" clip-rule="evenodd" d="M896.135 130.512H594.867V127.603H896.135V130.512Z"></path>
  <path style="fill: var(--color-illustrationHighlight010)" fill-rule="evenodd" clip-rule="evenodd" d="M896.972 107.235V149.37H894.062V107.235H896.972Z"></path>
  <defs>
    
    <clipPath id="nk-290">
      <rect style="fill: var(--color-white)" x="595.543" y="194.104" width="289.932" height="494.981" rx="8"></rect>
    </clipPath>
    <clipPath id="nk-291">
      <rect style="fill: var(--color-white)" width="289.932" height="494.981" transform="translate(595.543 194.104)"></rect>
    </clipPath>
    <clipPath id="nk-292">
      <rect style="fill: var(--color-white)" width="209.832" height="5.81936" transform="translate(879.656 403.936) rotate(-90)"></rect>
    </clipPath>
    <clipPath id="nk-293">
      <rect style="fill: var(--color-white)" width="139.665" height="5.81936" transform="translate(879.656 546.51) rotate(-90)"></rect>
    </clipPath>
    <clipPath id="nk-294">
      <rect style="fill: var(--color-white)" width="139.665" height="5.81936" transform="translate(879.656 689.084) rotate(-90)"></rect>
    </clipPath>
  </defs>
</svg>
