<svg id="components-tabs-tabs-behaviours-animation-illustration" style="width: 100%; height: 100%" width="1491" height="839" viewBox="0 0 1491 839" fill="none" xmlns="http://www.w3.org/2000/svg" class="css-0"><path style="fill:var(--color-illustrationBackground010)" d="M0.015625 4.00001C0.015625 1.79087 1.80649 0 4.01562 0H1486.74C1488.94 0 1490.74 1.79086 1490.74 4V834.004C1490.74 836.213 1488.94 838.004 1486.74 838.004H4.01565C1.80651 838.004 0.015625 836.213 0.015625 834.004V4.00001Z"></path><g filter="url(#nk-446)"><g clip-path="url(#nk-442)"><rect style="fill:var(--color-illustrationInterface020)" x="304" y="288.04" width="885.499" height="244.335" rx="8"></rect><g clip-path="url(#nk-443)"><rect style="fill:var(--color-illustrationInterface010)" width="292.698" height="236.931" transform="translate(304 288.04)"></rect><path style="fill:var(--color-illustrationHighlight010)" d="M425.07 385.66V392.354H414.053V427.005H405.76V392.354H394.743V385.66H425.07ZM428.988 410.479C428.988 407.162 429.64 404.22 430.943 401.653C432.286 399.087 434.082 397.112 436.333 395.73C438.624 394.348 441.171 393.657 443.974 393.657C446.423 393.657 448.555 394.15 450.371 395.138C452.227 396.125 453.708 397.369 454.814 398.869V394.19H463.166V427.005H454.814V422.207C453.748 423.747 452.267 425.03 450.371 426.057C448.515 427.044 446.363 427.538 443.915 427.538C441.151 427.538 438.624 426.827 436.333 425.406C434.082 423.984 432.286 421.99 430.943 419.423C429.64 416.817 428.988 413.835 428.988 410.479ZM454.814 410.597C454.814 408.584 454.419 406.866 453.629 405.444C452.839 403.983 451.773 402.877 450.431 402.127C449.088 401.337 447.647 400.942 446.107 400.942C444.567 400.942 443.145 401.318 441.842 402.068C440.539 402.818 439.473 403.924 438.643 405.385C437.854 406.807 437.459 408.505 437.459 410.479C437.459 412.453 437.854 414.191 438.643 415.691C439.473 417.153 440.539 418.278 441.842 419.068C443.184 419.857 444.606 420.252 446.107 420.252C447.647 420.252 449.088 419.877 450.431 419.127C451.773 418.337 452.839 417.231 453.629 415.81C454.419 414.349 454.814 412.611 454.814 410.597ZM479.557 398.988C480.624 397.408 482.085 396.125 483.941 395.138C485.836 394.15 487.988 393.657 490.397 393.657C493.201 393.657 495.728 394.348 497.979 395.73C500.269 397.112 502.066 399.087 503.369 401.653C504.712 404.181 505.383 407.122 505.383 410.479C505.383 413.835 504.712 416.817 503.369 419.423C502.066 421.99 500.269 423.984 497.979 425.406C495.728 426.827 493.201 427.538 490.397 427.538C487.949 427.538 485.797 427.064 483.941 426.116C482.124 425.129 480.663 423.866 479.557 422.326V427.005H471.265V383.173H479.557V398.988ZM496.913 410.479C496.913 408.505 496.498 406.807 495.669 405.385C494.879 403.924 493.813 402.818 492.47 402.068C491.167 401.318 489.745 400.942 488.205 400.942C486.705 400.942 485.283 401.337 483.941 402.127C482.637 402.877 481.571 403.983 480.742 405.444C479.952 406.905 479.557 408.623 479.557 410.597C479.557 412.572 479.952 414.29 480.742 415.751C481.571 417.212 482.637 418.337 483.941 419.127C485.283 419.877 486.705 420.252 488.205 420.252C489.745 420.252 491.167 419.857 492.47 419.068C493.813 418.278 494.879 417.153 495.669 415.691C496.498 414.23 496.913 412.493 496.913 410.479Z"></path><rect style="fill:var(--color-illustrationBorder010)" width="3.70204" height="244.335" transform="translate(596.699 288.04)"></rect><rect style="fill:var(--color-illustrationInterface010)" width="292.698" height="236.931" transform="translate(600.402 288.04)"></rect><path style="fill:var(--color-illustrationSubtle010)" d="M721.473 385.66V392.354H710.455V427.005H702.163V392.354H691.145V385.66H721.473ZM725.391 410.479C725.391 407.162 726.042 404.22 727.345 401.653C728.688 399.087 730.485 397.112 732.736 395.73C735.026 394.348 737.573 393.657 740.377 393.657C742.825 393.657 744.957 394.15 746.774 395.138C748.63 396.125 750.111 397.369 751.216 398.869V394.19H759.568V427.005H751.216V422.207C750.15 423.747 748.669 425.03 746.774 426.057C744.918 427.044 742.766 427.538 740.317 427.538C737.553 427.538 735.026 426.827 732.736 425.406C730.485 423.984 728.688 421.99 727.345 419.423C726.042 416.817 725.391 413.835 725.391 410.479ZM751.216 410.597C751.216 408.584 750.821 406.866 750.032 405.444C749.242 403.983 748.176 402.877 746.833 402.127C745.49 401.337 744.049 400.942 742.509 400.942C740.969 400.942 739.547 401.318 738.244 402.068C736.941 402.818 735.875 403.924 735.046 405.385C734.256 406.807 733.861 408.505 733.861 410.479C733.861 412.453 734.256 414.191 735.046 415.691C735.875 417.153 736.941 418.278 738.244 419.068C739.587 419.857 741.008 420.252 742.509 420.252C744.049 420.252 745.49 419.877 746.833 419.127C748.176 418.337 749.242 417.231 750.032 415.81C750.821 414.349 751.216 412.611 751.216 410.597ZM775.96 398.988C777.026 397.408 778.487 396.125 780.343 395.138C782.238 394.15 784.39 393.657 786.799 393.657C789.603 393.657 792.13 394.348 794.381 395.73C796.671 397.112 798.468 399.087 799.771 401.653C801.114 404.181 801.785 407.122 801.785 410.479C801.785 413.835 801.114 416.817 799.771 419.423C798.468 421.99 796.671 423.984 794.381 425.406C792.13 426.827 789.603 427.538 786.799 427.538C784.351 427.538 782.199 427.064 780.343 426.116C778.526 425.129 777.065 423.866 775.96 422.326V427.005H767.667V383.173H775.96V398.988ZM793.315 410.479C793.315 408.505 792.9 406.807 792.071 405.385C791.281 403.924 790.215 402.818 788.872 402.068C787.569 401.318 786.148 400.942 784.608 400.942C783.107 400.942 781.686 401.337 780.343 402.127C779.04 402.877 777.974 403.983 777.144 405.444C776.355 406.905 775.96 408.623 775.96 410.597C775.96 412.572 776.355 414.29 777.144 415.751C777.974 417.212 779.04 418.337 780.343 419.127C781.686 419.877 783.107 420.252 784.608 420.252C786.148 420.252 787.569 419.857 788.872 419.068C790.215 418.278 791.281 417.153 792.071 415.691C792.9 414.23 793.315 412.493 793.315 410.479Z"></path><g clip-path="url(#nk-444)"><rect style="fill:var(--color-transparent)" x="600.402" y="524.97" width="293.465" height="7.40409"></rect></g><rect style="fill:var(--color-illustrationBorder010)" width="3.70204" height="244.335" transform="translate(893.098 288.04)"></rect><rect style="fill:var(--color-illustrationInterface010)" width="292.698" height="236.931" transform="translate(896.801 288.04)"></rect><path style="fill:var(--color-illustrationSubtle010)" d="M1017.87 385.66V392.354H1006.85V427.005H998.561V392.354H987.544V385.66H1017.87ZM1021.79 410.479C1021.79 407.162 1022.44 404.22 1023.74 401.653C1025.09 399.087 1026.88 397.112 1029.13 395.73C1031.42 394.348 1033.97 393.657 1036.78 393.657C1039.22 393.657 1041.36 394.15 1043.17 395.138C1045.03 396.125 1046.51 397.369 1047.61 398.869V394.19H1055.97V427.005H1047.61V422.207C1046.55 423.747 1045.07 425.03 1043.17 426.057C1041.32 427.044 1039.16 427.538 1036.72 427.538C1033.95 427.538 1031.42 426.827 1029.13 425.406C1026.88 423.984 1025.09 421.99 1023.74 419.423C1022.44 416.817 1021.79 413.835 1021.79 410.479ZM1047.61 410.597C1047.61 408.584 1047.22 406.866 1046.43 405.444C1045.64 403.983 1044.57 402.877 1043.23 402.127C1041.89 401.337 1040.45 400.942 1038.91 400.942C1037.37 400.942 1035.95 401.318 1034.64 402.068C1033.34 402.818 1032.27 403.924 1031.44 405.385C1030.65 406.807 1030.26 408.505 1030.26 410.479C1030.26 412.453 1030.65 414.191 1031.44 415.691C1032.27 417.153 1033.34 418.278 1034.64 419.068C1035.99 419.857 1037.41 420.252 1038.91 420.252C1040.45 420.252 1041.89 419.877 1043.23 419.127C1044.57 418.337 1045.64 417.231 1046.43 415.81C1047.22 414.349 1047.61 412.611 1047.61 410.597ZM1072.36 398.988C1073.42 397.408 1074.89 396.125 1076.74 395.138C1078.64 394.15 1080.79 393.657 1083.2 393.657C1086 393.657 1088.53 394.348 1090.78 395.73C1093.07 397.112 1094.87 399.087 1096.17 401.653C1097.51 404.181 1098.18 407.122 1098.18 410.479C1098.18 413.835 1097.51 416.817 1096.17 419.423C1094.87 421.99 1093.07 423.984 1090.78 425.406C1088.53 426.827 1086 427.538 1083.2 427.538C1080.75 427.538 1078.6 427.064 1076.74 426.116C1074.92 425.129 1073.46 423.866 1072.36 422.326V427.005H1064.07V383.173H1072.36V398.988ZM1089.71 410.479C1089.71 408.505 1089.3 406.807 1088.47 405.385C1087.68 403.924 1086.61 402.818 1085.27 402.068C1083.97 401.318 1082.55 400.942 1081.01 400.942C1079.51 400.942 1078.08 401.337 1076.74 402.127C1075.44 402.877 1074.37 403.983 1073.54 405.444C1072.75 406.905 1072.36 408.623 1072.36 410.597C1072.36 412.572 1072.75 414.29 1073.54 415.751C1074.37 417.212 1075.44 418.337 1076.74 419.127C1078.08 419.877 1079.51 420.252 1081.01 420.252C1082.55 420.252 1083.97 419.857 1085.27 419.068C1086.61 418.278 1087.68 417.153 1088.47 415.691C1089.3 414.23 1089.71 412.493 1089.71 410.479Z"></path><g clip-path="url(#clip3)"><rect style="fill:var(--color-transparent)" x="896.801" y="524.97" width="293.465" height="7.40409"></rect></g></g></g></g><rect style="fill:var(--color-illustrationHighlight010)" x="893" y="525" width="294" height="7" rx="3.5"></rect><g filter="url(#nk-447)"><path style="fill:var(--color-white)" fill-rule="evenodd" clip-rule="evenodd" d="M370.308 532.143L367.419 527.728C365.446 524.714 361.244 523.614 358.029 525.267L358.778 524.882C357.98 525.292 357.598 526.314 357.926 527.164L361.926 537.512C362.56 539.153 364.179 541.473 365.521 542.638C365.521 542.638 373.567 549.298 373.567 551.795V554.956H386.603H390.168H393.121H396.38V551.795C396.38 549.298 401.297 541.433 401.297 541.433C402.203 539.905 402.957 537.212 402.957 535.424V522.274C402.898 519.363 400.423 517.004 397.37 517.004C395.842 517.004 394.605 518.184 394.605 519.64V520.693C394.605 517.782 392.13 515.423 389.077 515.423C387.549 515.423 386.312 516.602 386.312 518.059V519.112C386.312 516.201 383.837 513.841 380.784 513.841C379.256 513.841 378.019 515.021 378.019 516.477V517.53C378.019 517.063 377.969 516.691 377.872 516.396L377.029 502.817C376.915 500.98 375.367 499.554 373.567 499.554C371.755 499.554 370.308 501.013 370.308 502.812V515.848V532.143Z"></path><path style="fill:var(--color-black)" fill-rule="evenodd" clip-rule="evenodd" d="M358.802 524.928C361.389 523.981 364.415 524.637 366.398 526.51C366.781 526.872 367.125 527.279 367.419 527.729L370.308 532.143V502.812C370.308 501.013 371.755 499.554 373.567 499.554C375.367 499.554 376.915 500.98 377.029 502.817L377.872 516.396C377.881 516.423 377.889 516.45 377.897 516.477C377.978 516.758 378.019 517.105 378.019 517.531V516.477C378.019 516.447 378.019 516.417 378.021 516.387C378.021 516.374 378.022 516.36 378.022 516.347C378.094 514.951 379.302 513.841 380.784 513.841C381.074 513.841 381.358 513.863 381.636 513.904C382.29 514 382.907 514.206 383.465 514.501C384.854 515.237 385.876 516.527 386.202 518.059C386.274 518.399 386.312 518.751 386.312 519.112V518.059C386.312 516.602 387.549 515.423 389.077 515.423C389.2 515.423 389.321 515.426 389.442 515.434C390.278 515.486 391.064 515.715 391.758 516.083C393.147 516.818 394.169 518.109 394.495 519.64C394.567 519.98 394.605 520.333 394.605 520.693V519.64C394.605 518.184 395.842 517.004 397.37 517.004C397.493 517.004 397.614 517.008 397.735 517.015C400.618 517.195 402.9 519.48 402.957 522.275V535.424C402.957 537.212 402.202 539.905 401.297 541.434C401.297 541.434 396.38 549.298 396.38 551.795V554.956H373.567V551.795C373.567 549.298 365.521 542.638 365.521 542.638C364.179 541.473 362.56 539.153 361.926 537.512L357.926 527.164C357.707 526.597 357.805 525.953 358.131 525.465C358.242 525.299 358.38 525.151 358.542 525.03C358.628 524.994 358.715 524.96 358.802 524.928ZM358.029 525.267C358.197 525.18 358.368 525.101 358.542 525.03C358.616 524.974 358.695 524.925 358.778 524.882L358.029 525.267ZM356.27 521.845C354.176 523.356 353.345 526.159 354.279 528.574L358.278 538.922C359.14 541.151 361.128 544.003 362.957 545.591L362.992 545.621L363.027 545.65L363.028 545.651L363.042 545.663L363.1 545.711C363.152 545.755 363.232 545.822 363.334 545.909C363.54 546.084 363.837 546.339 364.196 546.655C364.917 547.288 365.865 548.148 366.803 549.069C367.758 550.008 368.62 550.932 369.216 551.703C369.422 551.968 369.564 552.175 369.657 552.325V558.867H400.291V551.862C400.291 551.878 400.292 551.887 400.294 551.887C400.307 551.889 400.379 551.521 400.749 550.648C401.142 549.721 401.692 548.625 402.28 547.535C402.862 546.457 403.448 545.445 403.892 544.698C404.112 544.326 404.296 544.024 404.423 543.816C404.486 543.713 404.535 543.633 404.568 543.58L404.604 543.522L404.613 543.507L404.638 543.467L404.662 543.426C405.345 542.273 405.875 540.869 406.235 539.571C406.594 538.276 406.868 536.787 406.868 535.424V522.235L406.867 522.195C406.762 517.03 402.424 513.093 397.37 513.093C396.542 513.093 395.733 513.247 394.98 513.531C393.339 512.257 391.268 511.512 389.077 511.512C388.249 511.512 387.44 511.665 386.687 511.95C385.198 510.794 383.355 510.073 381.39 509.95L380.932 502.574C380.689 498.662 377.419 495.643 373.567 495.643C369.586 495.643 366.398 498.862 366.398 502.812V521.796C363.518 520.362 360.054 520.158 357.005 521.433M369.789 552.568C369.788 552.567 369.781 552.553 369.771 552.526C369.785 552.555 369.79 552.568 369.789 552.568ZM356.27 521.845L356.241 521.789L356.99 521.404"></path></g><path style="fill:var(--color-illustrationHighlight010)" fill-rule="evenodd" clip-rule="evenodd" d="M1066 575C1066 582.732 1059.73 589 1052 589C1045.12 589 1039.4 584.039 1038.22 577.5H644V584.777C644 587.154 641.511 588.711 639.373 587.672L620.813 578.658C618.426 577.499 618.388 574.113 620.748 572.9L639.307 563.361C641.45 562.259 644 563.814 644 566.223V572.5H1038.22C1039.4 565.961 1045.12 561 1052 561C1059.73 561 1066 567.268 1066 575Z"></path><defs><filter id="nk-446" x="288" y="280.04" width="917.499" height="276.335" filterUnits="userSpaceOnUse" color-interpolation-filters="sRGB"><feFlood flood-opacity="0" result="BackgroundImageFix"></feFlood><feColorMatrix in="SourceAlpha" type="matrix" values="0 0 0 0 0 0 0 0 0 0 0 0 0 0 0 0 0 0 127 0"></feColorMatrix><feOffset dy="8"></feOffset><feGaussianBlur stdDeviation="8"></feGaussianBlur><feColorMatrix type="matrix" values="0 0 0 0 0.0392157 0 0 0 0 0.0392157 0 0 0 0 0.0392157 0 0 0 0.08 0"></feColorMatrix><feBlend mode="normal" in2="BackgroundImageFix" result="effect1_dropShadow"></feBlend><feBlend mode="normal" in="SourceGraphic" in2="effect1_dropShadow" result="shape"></feBlend></filter><filter id="nk-447" x="312" y="472" width="136.287" height="136.287" filterUnits="userSpaceOnUse" color-interpolation-filters="sRGB"><feFlood flood-opacity="0" result="BackgroundImageFix"></feFlood><feColorMatrix in="SourceAlpha" type="matrix" values="0 0 0 0 0 0 0 0 0 0 0 0 0 0 0 0 0 0 127 0"></feColorMatrix><feOffset dy="8"></feOffset><feGaussianBlur stdDeviation="8"></feGaussianBlur><feColorMatrix type="matrix" values="0 0 0 0 0.0392157 0 0 0 0 0.0392157 0 0 0 0 0.0392157 0 0 0 0.08 0"></feColorMatrix><feBlend mode="normal" in2="BackgroundImageFix" result="effect1_dropShadow"></feBlend><feBlend mode="normal" in="SourceGraphic" in2="effect1_dropShadow" result="shape"></feBlend></filter><clipPath id="nk-442"><rect style="fill:var(--color-white)" x="304" y="288.04" width="885.499" height="244.335" rx="8"></rect></clipPath><clipPath id="nk-443"><rect style="fill:var(--color-white)" width="885.499" height="244.335" transform="translate(304 288.04)"></rect></clipPath><clipPath id="nk-444"><rect style="fill:var(--color-white)" width="292.698" height="7.40409" transform="translate(600.402 524.97)"></rect></clipPath><clipPath id="nk-445"><rect style="fill:var(--color-white)" width="292.698" height="7.40409" transform="translate(896.801 524.97)"></rect></clipPath></defs></svg>