<svg id="components-tabs-tabs-dont-04-illustration" style="width: 100%; height: 100%" width="1491" height="839" viewBox="0 0 1491 839" fill="none" xmlns="http://www.w3.org/2000/svg" class="css-0"><path style="fill:var(--color-illustrationBackground010)" d="M0 4.00001C0 1.79087 1.79086 0 4 0H1486.72C1488.93 0 1490.72 1.79086 1490.72 4V834.004C1490.72 836.213 1488.93 838.004 1486.72 838.004H4.00002C1.79088 838.004 0 836.213 0 834.004V4.00001Z"></path><g filter="url(#nk-575)"><rect style="fill:var(--color-illustrationInterface010)" x="268" y="335" width="956" height="163" rx="8"></rect></g><g clip-path="url(#nk-574)"><rect style="fill:var(--color-illustrationBorder010)" width="2.51979" height="161.266" transform="translate(456.984 335.495)"></rect><rect style="fill:var(--color-illustrationBorder010)" width="2.51979" height="161.266" transform="translate(648.488 335.495)"></rect><rect style="fill:var(--color-illustrationBorder010)" width="2.51979" height="161.266" transform="translate(839.992 335.495)"></rect><rect style="fill:var(--color-illustrationBorder010)" width="2.51979" height="161.266" transform="translate(1031.5 335.495)"></rect><path style="fill:var(--color-illustrationSubtle010)" d="M327.749 401.487V429.628H322.104V417.654H310.05V429.628H304.405V401.487H310.05V413.058H322.104V401.487H327.749ZM343.222 429.991C341.072 429.991 339.137 429.52 337.417 428.58C335.696 427.612 334.339 426.255 333.345 424.508C332.377 422.761 331.893 420.745 331.893 418.46C331.893 416.176 332.39 414.16 333.385 412.413C334.406 410.666 335.79 409.322 337.537 408.381C339.285 407.413 341.233 406.93 343.383 406.93C345.534 406.93 347.482 407.413 349.229 408.381C350.976 409.322 352.347 410.666 353.342 412.413C354.363 414.16 354.874 416.176 354.874 418.46C354.874 420.745 354.349 422.761 353.301 424.508C352.28 426.255 350.882 427.612 349.108 428.58C347.361 429.52 345.399 429.991 343.222 429.991ZM343.222 425.072C344.243 425.072 345.198 424.83 346.085 424.346C346.998 423.836 347.724 423.083 348.262 422.089C348.799 421.094 349.068 419.885 349.068 418.46C349.068 416.337 348.504 414.711 347.375 413.582C346.273 412.426 344.915 411.848 343.303 411.848C341.69 411.848 340.333 412.426 339.231 413.582C338.156 414.711 337.618 416.337 337.618 418.46C337.618 420.584 338.142 422.223 339.19 423.379C340.266 424.508 341.609 425.072 343.222 425.072ZM386.752 406.97C389.493 406.97 391.697 407.817 393.364 409.51C395.057 411.176 395.904 413.515 395.904 416.525V429.628H390.259V417.291C390.259 415.544 389.816 414.214 388.929 413.3C388.042 412.359 386.832 411.889 385.3 411.889C383.768 411.889 382.545 412.359 381.632 413.3C380.745 414.214 380.301 415.544 380.301 417.291V429.628H374.657V417.291C374.657 415.544 374.213 414.214 373.326 413.3C372.439 412.359 371.23 411.889 369.698 411.889C368.139 411.889 366.903 412.359 365.989 413.3C365.102 414.214 364.658 415.544 364.658 417.291V429.628H359.014V407.293H364.658V409.994C365.384 409.053 366.311 408.314 367.44 407.776C368.596 407.239 369.859 406.97 371.23 406.97C372.977 406.97 374.536 407.346 375.907 408.099C377.277 408.825 378.339 409.873 379.092 411.244C379.817 409.953 380.866 408.919 382.236 408.139C383.634 407.36 385.139 406.97 386.752 406.97ZM422.023 417.976C422.023 418.783 421.969 419.508 421.862 420.154H405.533C405.668 421.766 406.232 423.029 407.227 423.943C408.221 424.857 409.444 425.314 410.895 425.314C412.992 425.314 414.484 424.414 415.371 422.613H421.458C420.813 424.763 419.577 426.537 417.749 427.935C415.922 429.305 413.677 429.991 411.016 429.991C408.866 429.991 406.931 429.52 405.211 428.58C403.518 427.612 402.187 426.255 401.219 424.508C400.279 422.761 399.808 420.745 399.808 418.46C399.808 416.149 400.279 414.119 401.219 412.372C402.16 410.625 403.477 409.281 405.17 408.341C406.864 407.4 408.812 406.93 411.016 406.93C413.14 406.93 415.035 407.387 416.701 408.3C418.394 409.214 419.698 410.518 420.612 412.211C421.552 413.878 422.023 415.799 422.023 417.976ZM416.177 416.364C416.15 414.912 415.626 413.757 414.605 412.897C413.583 412.01 412.333 411.566 410.855 411.566C409.457 411.566 408.275 411.996 407.307 412.856C406.367 413.689 405.789 414.859 405.574 416.364H416.177Z"></path><path style="fill:var(--color-illustrationSubtle010)" d="M543.639 424.266H532.43L530.576 429.628H524.649L534.769 401.447H541.34L551.46 429.628H545.493L543.639 424.266ZM542.106 419.75L538.034 407.978L533.963 419.75H542.106ZM560.887 410.76C561.612 409.577 562.553 408.65 563.709 407.978C564.892 407.306 566.235 406.97 567.741 406.97V412.897H566.249C564.475 412.897 563.131 413.313 562.217 414.146C561.33 414.98 560.887 416.431 560.887 418.501V429.628H555.242V407.293H560.887V410.76ZM578.114 411.929V422.734C578.114 423.486 578.289 424.037 578.638 424.387C579.014 424.709 579.633 424.871 580.493 424.871H583.113V429.628H579.565C574.808 429.628 572.429 427.316 572.429 422.693V411.929H569.768V407.293H572.429V401.769H578.114V407.293H583.113V411.929H578.114Z"></path><path style="fill:var(--color-illustrationSubtle010)" d="M703.713 429.91C701.751 429.91 699.977 429.574 698.391 428.902C696.832 428.23 695.596 427.263 694.682 425.999C693.768 424.736 693.297 423.244 693.271 421.524H699.318C699.399 422.68 699.802 423.594 700.528 424.266C701.28 424.938 702.302 425.274 703.592 425.274C704.909 425.274 705.943 424.965 706.696 424.346C707.449 423.701 707.825 422.868 707.825 421.847C707.825 421.014 707.57 420.328 707.059 419.791C706.548 419.253 705.903 418.837 705.124 418.541C704.371 418.218 703.323 417.869 701.979 417.493C700.151 416.955 698.66 416.431 697.504 415.92C696.375 415.383 695.394 414.59 694.561 413.542C693.754 412.466 693.351 411.042 693.351 409.268C693.351 407.602 693.768 406.15 694.601 404.914C695.434 403.677 696.603 402.737 698.109 402.092C699.614 401.42 701.334 401.084 703.269 401.084C706.172 401.084 708.524 401.796 710.325 403.221C712.152 404.618 713.16 406.58 713.348 409.107H707.139C707.086 408.139 706.669 407.346 705.89 406.728C705.137 406.083 704.129 405.76 702.866 405.76C701.764 405.76 700.877 406.043 700.205 406.607C699.56 407.172 699.237 407.991 699.237 409.066C699.237 409.819 699.479 410.451 699.963 410.961C700.474 411.445 701.092 411.848 701.818 412.171C702.57 412.466 703.619 412.816 704.962 413.219C706.79 413.757 708.282 414.294 709.438 414.832C710.593 415.369 711.588 416.176 712.421 417.251C713.254 418.326 713.671 419.737 713.671 421.484C713.671 422.989 713.281 424.387 712.502 425.677C711.722 426.967 710.58 428.002 709.075 428.781C707.57 429.534 705.782 429.91 703.713 429.91ZM724.209 410.518C724.934 409.496 725.929 408.65 727.192 407.978C728.482 407.279 729.947 406.93 731.586 406.93C733.495 406.93 735.215 407.4 736.747 408.341C738.306 409.281 739.529 410.625 740.416 412.372C741.33 414.093 741.787 416.095 741.787 418.38C741.787 420.664 741.33 422.693 740.416 424.467C739.529 426.214 738.306 427.572 736.747 428.539C735.215 429.507 733.495 429.991 731.586 429.991C729.947 429.991 728.496 429.655 727.232 428.983C725.996 428.311 724.988 427.464 724.209 426.443V440.272H718.564V407.293H724.209V410.518ZM736.021 418.38C736.021 417.036 735.739 415.88 735.175 414.912C734.637 413.918 733.911 413.165 732.998 412.655C732.111 412.144 731.143 411.889 730.095 411.889C729.073 411.889 728.106 412.157 727.192 412.695C726.305 413.206 725.579 413.958 725.015 414.953C724.477 415.947 724.209 417.116 724.209 418.46C724.209 419.804 724.477 420.973 725.015 421.968C725.579 422.962 726.305 423.728 727.192 424.266C728.106 424.776 729.073 425.032 730.095 425.032C731.143 425.032 732.111 424.763 732.998 424.226C733.911 423.688 734.637 422.922 735.175 421.927C735.739 420.933 736.021 419.75 736.021 418.38ZM755.806 429.991C753.656 429.991 751.721 429.52 750 428.58C748.28 427.612 746.923 426.255 745.928 424.508C744.961 422.761 744.477 420.745 744.477 418.46C744.477 416.176 744.974 414.16 745.969 412.413C746.99 410.666 748.374 409.322 750.121 408.381C751.868 407.413 753.817 406.93 755.967 406.93C758.118 406.93 760.066 407.413 761.813 408.381C763.56 409.322 764.931 410.666 765.926 412.413C766.947 414.16 767.458 416.176 767.458 418.46C767.458 420.745 766.933 422.761 765.885 424.508C764.864 426.255 763.466 427.612 761.692 428.58C759.945 429.52 757.983 429.991 755.806 429.991ZM755.806 425.072C756.827 425.072 757.782 424.83 758.669 424.346C759.582 423.836 760.308 423.083 760.846 422.089C761.383 421.094 761.652 419.885 761.652 418.46C761.652 416.337 761.088 414.711 759.959 413.582C758.857 412.426 757.499 411.848 755.887 411.848C754.274 411.848 752.917 412.426 751.815 413.582C750.74 414.711 750.202 416.337 750.202 418.46C750.202 420.584 750.726 422.223 751.774 423.379C752.85 424.508 754.193 425.072 755.806 425.072ZM777.242 410.76C777.968 409.577 778.909 408.65 780.064 407.978C781.247 407.306 782.591 406.97 784.096 406.97V412.897H782.604C780.83 412.897 779.487 413.313 778.573 414.146C777.686 414.98 777.242 416.431 777.242 418.501V429.628H771.598V407.293H777.242V410.76ZM794.469 411.929V422.734C794.469 423.486 794.644 424.037 794.994 424.387C795.37 424.709 795.988 424.871 796.848 424.871H799.469V429.628H795.921C791.163 429.628 788.785 427.316 788.785 422.693V411.929H786.124V407.293H788.785V401.769H794.469V407.293H799.469V411.929H794.469Z"></path><path style="fill:var(--color-illustrationSubtle010)" d="M884.8 415.195C886.385 415.49 887.689 416.283 888.71 417.573C889.732 418.863 890.242 420.342 890.242 422.008C890.242 423.513 889.866 424.844 889.114 425.999C888.388 427.128 887.326 428.015 885.929 428.66C884.531 429.305 882.878 429.628 880.97 429.628H868.834V401.487H880.445C882.354 401.487 883.993 401.796 885.364 402.414C886.762 403.032 887.81 403.892 888.509 404.994C889.234 406.096 889.597 407.346 889.597 408.744C889.597 410.383 889.154 411.754 888.267 412.856C887.407 413.958 886.251 414.738 884.8 415.195ZM874.479 413.098H879.639C880.983 413.098 882.018 412.802 882.744 412.211C883.469 411.593 883.832 410.719 883.832 409.591C883.832 408.462 883.469 407.588 882.744 406.97C882.018 406.352 880.983 406.043 879.639 406.043H874.479V413.098ZM880.163 425.032C881.534 425.032 882.596 424.709 883.348 424.064C884.128 423.419 884.517 422.505 884.517 421.323C884.517 420.113 884.114 419.172 883.308 418.501C882.502 417.802 881.413 417.452 880.042 417.452H874.479V425.032H880.163ZM915.826 407.293V429.628H910.142V426.806C909.416 427.773 908.462 428.539 907.279 429.104C906.124 429.641 904.86 429.91 903.49 429.91C901.743 429.91 900.197 429.547 898.853 428.822C897.509 428.069 896.448 426.98 895.668 425.556C894.916 424.105 894.539 422.384 894.539 420.395V407.293H900.184V419.589C900.184 421.363 900.627 422.734 901.514 423.701C902.401 424.642 903.611 425.112 905.143 425.112C906.701 425.112 907.924 424.642 908.811 423.701C909.698 422.734 910.142 421.363 910.142 419.589V407.293H915.826ZM929.943 429.991C928.115 429.991 926.475 429.668 925.024 429.023C923.573 428.351 922.417 427.451 921.557 426.322C920.724 425.193 920.267 423.943 920.186 422.573H925.871C925.978 423.433 926.395 424.145 927.12 424.709C927.873 425.274 928.8 425.556 929.902 425.556C930.977 425.556 931.811 425.341 932.402 424.911C933.02 424.481 933.329 423.93 933.329 423.258C933.329 422.532 932.953 421.995 932.2 421.645C931.475 421.269 930.305 420.866 928.693 420.436C927.026 420.033 925.656 419.616 924.581 419.186C923.532 418.756 922.618 418.097 921.839 417.21C921.086 416.323 920.71 415.127 920.71 413.622C920.71 412.386 921.06 411.257 921.758 410.236C922.484 409.214 923.505 408.408 924.822 407.817C926.166 407.225 927.739 406.93 929.539 406.93C932.2 406.93 934.324 407.602 935.909 408.946C937.495 410.263 938.369 412.05 938.53 414.308H933.128C933.047 413.421 932.671 412.722 931.999 412.211C931.354 411.674 930.48 411.405 929.378 411.405C928.357 411.405 927.564 411.593 927 411.969C926.462 412.346 926.193 412.87 926.193 413.542C926.193 414.294 926.569 414.872 927.322 415.275C928.075 415.651 929.244 416.041 930.83 416.444C932.442 416.848 933.773 417.264 934.821 417.694C935.869 418.124 936.77 418.796 937.522 419.71C938.302 420.597 938.705 421.78 938.732 423.258C938.732 424.548 938.369 425.704 937.643 426.725C936.944 427.746 935.923 428.553 934.579 429.144C933.262 429.709 931.717 429.991 929.943 429.991ZM946.227 404.632C945.233 404.632 944.4 404.323 943.728 403.704C943.083 403.059 942.76 402.266 942.76 401.326C942.76 400.385 943.083 399.605 943.728 398.987C944.4 398.342 945.233 398.02 946.227 398.02C947.222 398.02 948.042 398.342 948.687 398.987C949.359 399.605 949.695 400.385 949.695 401.326C949.695 402.266 949.359 403.059 948.687 403.704C948.042 404.323 947.222 404.632 946.227 404.632ZM949.009 407.293V429.628H943.365V407.293H949.009ZM966.963 406.97C969.624 406.97 971.774 407.817 973.414 409.51C975.053 411.176 975.873 413.515 975.873 416.525V429.628H970.229V417.291C970.229 415.517 969.785 414.16 968.898 413.219C968.011 412.251 966.802 411.768 965.27 411.768C963.711 411.768 962.474 412.251 961.561 413.219C960.674 414.16 960.23 415.517 960.23 417.291V429.628H954.586V407.293H960.23V410.074C960.983 409.107 961.937 408.354 963.093 407.817C964.275 407.252 965.565 406.97 966.963 406.97ZM983.74 429.91C982.719 429.91 981.872 429.601 981.2 428.983C980.555 428.338 980.233 427.545 980.233 426.604C980.233 425.663 980.555 424.884 981.2 424.266C981.872 423.621 982.719 423.298 983.74 423.298C984.735 423.298 985.554 423.621 986.199 424.266C986.844 424.884 987.167 425.663 987.167 426.604C987.167 427.545 986.844 428.338 986.199 428.983C985.554 429.601 984.735 429.91 983.74 429.91ZM994.213 429.91C993.192 429.91 992.345 429.601 991.673 428.983C991.028 428.338 990.705 427.545 990.705 426.604C990.705 425.663 991.028 424.884 991.673 424.266C992.345 423.621 993.192 423.298 994.213 423.298C995.207 423.298 996.027 423.621 996.672 424.266C997.317 424.884 997.64 425.663 997.64 426.604C997.64 427.545 997.317 428.338 996.672 428.983C996.027 429.601 995.207 429.91 994.213 429.91ZM1004.69 429.91C1003.66 429.91 1002.82 429.601 1002.15 428.983C1001.5 428.338 1001.18 427.545 1001.18 426.604C1001.18 425.663 1001.5 424.884 1002.15 424.266C1002.82 423.621 1003.66 423.298 1004.69 423.298C1005.68 423.298 1006.5 423.621 1007.15 424.266C1007.79 424.884 1008.11 425.663 1008.11 426.604C1008.11 427.545 1007.79 428.338 1007.15 428.983C1006.5 429.601 1005.68 429.91 1004.69 429.91Z"></path><path style="fill:var(--color-illustrationSubtle010)" d="M1109.41 401.487L1101.55 429.628H1094.9L1089.62 409.591L1084.1 429.628L1077.48 429.668L1069.9 401.487H1075.95L1080.91 423.339L1086.64 401.487H1092.93L1098.33 423.218L1103.33 401.487H1109.41ZM1123.02 429.991C1120.87 429.991 1118.93 429.52 1117.21 428.58C1115.49 427.612 1114.14 426.255 1113.14 424.508C1112.17 422.761 1111.69 420.745 1111.69 418.46C1111.69 416.176 1112.19 414.16 1113.18 412.413C1114.2 410.666 1115.59 409.322 1117.33 408.381C1119.08 407.413 1121.03 406.93 1123.18 406.93C1125.33 406.93 1127.28 407.413 1129.03 408.381C1130.77 409.322 1132.14 410.666 1133.14 412.413C1134.16 414.16 1134.67 416.176 1134.67 418.46C1134.67 420.745 1134.15 422.761 1133.1 424.508C1132.08 426.255 1130.68 427.612 1128.9 428.58C1127.16 429.52 1125.2 429.991 1123.02 429.991ZM1123.02 425.072C1124.04 425.072 1124.99 424.83 1125.88 424.346C1126.79 423.836 1127.52 423.083 1128.06 422.089C1128.6 421.094 1128.86 419.885 1128.86 418.46C1128.86 416.337 1128.3 414.711 1127.17 413.582C1126.07 412.426 1124.71 411.848 1123.1 411.848C1121.49 411.848 1120.13 412.426 1119.03 413.582C1117.95 414.711 1117.41 416.337 1117.41 418.46C1117.41 420.584 1117.94 422.223 1118.99 423.379C1120.06 424.508 1121.41 425.072 1123.02 425.072ZM1144.45 410.76C1145.18 409.577 1146.12 408.65 1147.28 407.978C1148.46 407.306 1149.8 406.97 1151.31 406.97V412.897H1149.82C1148.04 412.897 1146.7 413.313 1145.78 414.146C1144.9 414.98 1144.45 416.431 1144.45 418.501V429.628H1138.81V407.293H1144.45V410.76ZM1160.75 399.794V429.628H1155.11V399.794H1160.75ZM1164.88 418.38C1164.88 416.122 1165.32 414.119 1166.21 412.372C1167.12 410.625 1168.36 409.281 1169.92 408.341C1171.48 407.4 1173.21 406.93 1175.12 406.93C1176.57 406.93 1177.96 407.252 1179.27 407.897C1180.59 408.515 1181.64 409.349 1182.42 410.397V399.794H1188.14V429.628H1182.42V426.322C1181.72 427.424 1180.74 428.311 1179.47 428.983C1178.21 429.655 1176.75 429.991 1175.08 429.991C1173.2 429.991 1171.48 429.507 1169.92 428.539C1168.36 427.572 1167.12 426.214 1166.21 424.467C1165.32 422.693 1164.88 420.664 1164.88 418.38ZM1182.46 418.46C1182.46 417.089 1182.19 415.92 1181.65 414.953C1181.11 413.958 1180.39 413.206 1179.47 412.695C1178.56 412.157 1177.58 411.889 1176.53 411.889C1175.48 411.889 1174.52 412.144 1173.63 412.655C1172.74 413.165 1172.02 413.918 1171.45 414.912C1170.91 415.88 1170.64 417.036 1170.64 418.38C1170.64 419.723 1170.91 420.906 1171.45 421.927C1172.02 422.922 1172.74 423.688 1173.63 424.226C1174.54 424.763 1175.51 425.032 1176.53 425.032C1177.58 425.032 1178.56 424.776 1179.47 424.266C1180.39 423.728 1181.11 422.976 1181.65 422.008C1182.19 421.014 1182.46 419.831 1182.46 418.46Z"></path></g><defs><filter id="nk-575" x="252" y="327" width="988" height="195" filterUnits="userSpaceOnUse" color-interpolation-filters="sRGB"><feFlood flood-opacity="0" result="BackgroundImageFix"></feFlood><feColorMatrix in="SourceAlpha" type="matrix" values="0 0 0 0 0 0 0 0 0 0 0 0 0 0 0 0 0 0 127 0"></feColorMatrix><feOffset dy="8"></feOffset><feGaussianBlur stdDeviation="8"></feGaussianBlur><feColorMatrix type="matrix" values="0 0 0 0 0.0392157 0 0 0 0 0.0392157 0 0 0 0 0.0392157 0 0 0 0.08 0"></feColorMatrix><feBlend mode="normal" in2="BackgroundImageFix" result="effect1_dropShadow"></feBlend><feBlend mode="normal" in="SourceGraphic" in2="effect1_dropShadow" result="shape"></feBlend></filter><clipPath id="nk-574"><rect style="fill:var(--color-white)" x="268" y="335.495" width="955" height="161" rx="8"></rect></clipPath></defs></svg>