<svg id="components-radio-button-usage-dont-2" style="width: 100%; height: 100%" width="1490" height="838" viewBox="0 0 1490 838" fill="none" xmlns="http://www.w3.org/2000/svg" class="css-0"><g clip-path="url(#nk-1327)"><path style="fill:var(--color-illustrationBackground020)" d="M0 0H1490V838H0V0Z"></path><g filter="url(#nk-1328)"><rect style="fill:var(--color-interface010)" x="290" y="-367" width="997" height="1572.83" rx="15.4522"></rect></g><path style="fill:var(--color-interactiveNegative030)" d="M453.552 589.83C453.552 593.557 452.267 596.662 449.697 599.147C447.17 601.589 443.293 602.809 438.067 602.809H429.457V621.508H423.609V576.722H438.067C443.122 576.722 446.955 577.943 449.569 580.384C452.224 582.826 453.552 585.974 453.552 589.83ZM438.067 597.99C441.322 597.99 443.721 597.283 445.263 595.87C446.806 594.456 447.577 592.443 447.577 589.83C447.577 584.304 444.407 581.541 438.067 581.541H429.457V597.99H438.067Z"></path><path style="fill:var(--color-interactiveNegative030)" d="M466.667 573.959V621.508H460.82V573.959H466.667Z"></path><path style="fill:var(--color-interactiveNegative030)" d="M508.76 602.552C508.76 603.666 508.696 604.844 508.567 606.086H480.424C480.638 609.556 481.816 612.276 483.958 614.247C486.142 616.174 488.777 617.138 491.861 617.138C494.388 617.138 496.487 616.56 498.158 615.403C499.872 614.204 501.071 612.619 501.756 610.649H508.053C507.111 614.033 505.226 616.796 502.399 618.937C499.572 621.036 496.059 622.086 491.861 622.086C488.52 622.086 485.521 621.336 482.865 619.837C480.252 618.338 478.196 616.217 476.697 613.476C475.198 610.691 474.448 607.479 474.448 603.837C474.448 600.196 475.176 597.005 476.633 594.263C478.089 591.522 480.124 589.423 482.737 587.966C485.393 586.467 488.434 585.717 491.861 585.717C495.202 585.717 498.158 586.446 500.728 587.902C503.299 589.359 505.269 591.372 506.64 593.942C508.053 596.47 508.76 599.34 508.76 602.552ZM502.72 601.331C502.72 599.104 502.228 597.198 501.242 595.613C500.257 593.985 498.908 592.764 497.194 591.95C495.524 591.093 493.66 590.665 491.604 590.665C488.648 590.665 486.121 591.608 484.022 593.492C481.966 595.377 480.788 597.99 480.488 601.331H502.72Z"></path><path style="fill:var(--color-interactiveNegative030)" d="M514.294 603.773C514.294 600.175 515.022 597.026 516.478 594.328C517.935 591.586 519.927 589.466 522.454 587.966C525.024 586.467 527.873 585.717 531 585.717C534.084 585.717 536.762 586.381 539.032 587.709C541.302 589.037 542.994 590.708 544.108 592.721V586.296H550.02V621.508H544.108V614.954C542.952 617.01 541.217 618.723 538.903 620.094C536.633 621.422 533.977 622.086 530.936 622.086C527.809 622.086 524.981 621.315 522.454 619.773C519.927 618.231 517.935 616.067 516.478 613.283C515.022 610.499 514.294 607.329 514.294 603.773ZM544.108 603.837C544.108 601.182 543.573 598.868 542.502 596.898C541.431 594.927 539.974 593.428 538.132 592.4C536.333 591.329 534.341 590.794 532.157 590.794C529.972 590.794 527.98 591.308 526.181 592.336C524.382 593.364 522.947 594.863 521.876 596.834C520.805 598.804 520.269 601.117 520.269 603.773C520.269 606.472 520.805 608.828 521.876 610.841C522.947 612.812 524.382 614.332 526.181 615.403C527.98 616.431 529.972 616.946 532.157 616.946C534.341 616.946 536.333 616.431 538.132 615.403C539.974 614.332 541.431 612.812 542.502 610.841C543.573 608.828 544.108 606.493 544.108 603.837Z"></path><path style="fill:var(--color-interactiveNegative030)" d="M572.366 622.086C569.668 622.086 567.247 621.636 565.106 620.737C562.964 619.794 561.272 618.509 560.029 616.881C558.787 615.211 558.102 613.304 557.973 611.163H564.013C564.185 612.919 564.998 614.354 566.455 615.468C567.954 616.581 569.903 617.138 572.302 617.138C574.53 617.138 576.286 616.646 577.571 615.66C578.856 614.675 579.499 613.433 579.499 611.934C579.499 610.391 578.813 609.256 577.443 608.528C576.072 607.757 573.951 607.007 571.081 606.279C568.468 605.594 566.326 604.908 564.656 604.223C563.028 603.495 561.614 602.445 560.415 601.074C559.258 599.661 558.68 597.819 558.68 595.549C558.68 593.749 559.216 592.1 560.286 590.601C561.357 589.102 562.878 587.924 564.849 587.067C566.819 586.167 569.068 585.717 571.595 585.717C575.494 585.717 578.642 586.703 581.041 588.673C583.44 590.644 584.725 593.342 584.896 596.769H579.049C578.92 594.927 578.171 593.45 576.8 592.336C575.472 591.222 573.673 590.665 571.403 590.665C569.304 590.665 567.633 591.115 566.391 592.014C565.148 592.914 564.527 594.092 564.527 595.549C564.527 596.705 564.891 597.669 565.62 598.44C566.391 599.168 567.333 599.768 568.447 600.239C569.603 600.668 571.188 601.16 573.202 601.717C575.729 602.402 577.785 603.088 579.37 603.773C580.955 604.416 582.305 605.401 583.418 606.729C584.575 608.057 585.175 609.792 585.217 611.934C585.217 613.861 584.682 615.596 583.611 617.138C582.54 618.68 581.019 619.901 579.049 620.801C577.121 621.658 574.894 622.086 572.366 622.086Z"></path><path style="fill:var(--color-interactiveNegative030)" d="M625.599 602.552C625.599 603.666 625.535 604.844 625.407 606.086H597.263C597.477 609.556 598.655 612.276 600.797 614.247C602.982 616.174 605.616 617.138 608.7 617.138C611.228 617.138 613.327 616.56 614.997 615.403C616.711 614.204 617.91 612.619 618.596 610.649H624.893C623.95 614.033 622.065 616.796 619.238 618.937C616.411 621.036 612.898 622.086 608.7 622.086C605.359 622.086 602.36 621.336 599.705 619.837C597.092 618.338 595.035 616.217 593.536 613.476C592.037 610.691 591.287 607.479 591.287 603.837C591.287 600.196 592.015 597.005 593.472 594.263C594.928 591.522 596.963 589.423 599.576 587.966C602.232 586.467 605.273 585.717 608.7 585.717C612.042 585.717 614.997 586.446 617.568 587.902C620.138 589.359 622.108 591.372 623.479 593.942C624.893 596.47 625.599 599.34 625.599 602.552ZM619.559 601.331C619.559 599.104 619.067 597.198 618.082 595.613C617.096 593.985 615.747 592.764 614.034 591.95C612.363 591.093 610.499 590.665 608.443 590.665C605.488 590.665 602.96 591.608 600.861 593.492C598.805 595.377 597.627 597.99 597.327 601.331H619.559Z"></path><path style="fill:var(--color-interactiveNegative030)" d="M662.914 622.086C660.215 622.086 657.795 621.636 655.653 620.737C653.511 619.794 651.819 618.509 650.577 616.881C649.334 615.211 648.649 613.304 648.521 611.163H654.561C654.732 612.919 655.546 614.354 657.002 615.468C658.502 616.581 660.451 617.138 662.849 617.138C665.077 617.138 666.833 616.646 668.118 615.66C669.404 614.675 670.046 613.433 670.046 611.934C670.046 610.391 669.361 609.256 667.99 608.528C666.619 607.757 664.499 607.007 661.629 606.279C659.016 605.594 656.874 604.908 655.203 604.223C653.575 603.495 652.162 602.445 650.962 601.074C649.806 599.661 649.227 597.819 649.227 595.549C649.227 593.749 649.763 592.1 650.834 590.601C651.905 589.102 653.425 587.924 655.396 587.067C657.366 586.167 659.615 585.717 662.143 585.717C666.041 585.717 669.189 586.703 671.588 588.673C673.987 590.644 675.272 593.342 675.443 596.769H669.596C669.468 594.927 668.718 593.45 667.347 592.336C666.019 591.222 664.22 590.665 661.95 590.665C659.851 590.665 658.18 591.115 656.938 592.014C655.696 592.914 655.075 594.092 655.075 595.549C655.075 596.705 655.439 597.669 656.167 598.44C656.938 599.168 657.88 599.768 658.994 600.239C660.151 600.668 661.736 601.16 663.749 601.717C666.276 602.402 668.333 603.088 669.918 603.773C671.503 604.416 672.852 605.401 673.966 606.729C675.122 608.057 675.722 609.792 675.765 611.934C675.765 613.861 675.229 615.596 674.158 617.138C673.087 618.68 671.567 619.901 669.596 620.801C667.669 621.658 665.441 622.086 662.914 622.086Z"></path><path style="fill:var(--color-interactiveNegative030)" d="M716.147 602.552C716.147 603.666 716.082 604.844 715.954 606.086H687.81C688.024 609.556 689.202 612.276 691.344 614.247C693.529 616.174 696.163 617.138 699.248 617.138C701.775 617.138 703.874 616.56 705.545 615.403C707.258 614.204 708.457 612.619 709.143 610.649H715.44C714.497 614.033 712.613 616.796 709.785 618.937C706.958 621.036 703.446 622.086 699.248 622.086C695.906 622.086 692.908 621.336 690.252 619.837C687.639 618.338 685.583 616.217 684.083 613.476C682.584 610.691 681.834 607.479 681.834 603.837C681.834 600.196 682.563 597.005 684.019 594.263C685.475 591.522 687.51 589.423 690.123 587.966C692.779 586.467 695.821 585.717 699.248 585.717C702.589 585.717 705.545 586.446 708.115 587.902C710.685 589.359 712.655 591.372 714.026 593.942C715.44 596.47 716.147 599.34 716.147 602.552ZM710.107 601.331C710.107 599.104 709.614 597.198 708.629 595.613C707.644 593.985 706.294 592.764 704.581 591.95C702.91 591.093 701.047 590.665 698.991 590.665C696.035 590.665 693.507 591.608 691.408 593.492C689.352 595.377 688.174 597.99 687.874 601.331H710.107Z"></path><path style="fill:var(--color-interactiveNegative030)" d="M729.712 573.959V621.508H723.865V573.959H729.712Z"></path><path style="fill:var(--color-interactiveNegative030)" d="M771.805 602.552C771.805 603.666 771.741 604.844 771.613 606.086H743.469C743.683 609.556 744.861 612.276 747.003 614.247C749.187 616.174 751.822 617.138 754.906 617.138C757.434 617.138 759.533 616.56 761.203 615.403C762.917 614.204 764.116 612.619 764.802 610.649H771.099C770.156 614.033 768.271 616.796 765.444 618.937C762.617 621.036 759.104 622.086 754.906 622.086C751.565 622.086 748.566 621.336 745.91 619.837C743.297 618.338 741.241 616.217 739.742 613.476C738.243 610.691 737.493 607.479 737.493 603.837C737.493 600.196 738.221 597.005 739.678 594.263C741.134 591.522 743.169 589.423 745.782 587.966C748.438 586.467 751.479 585.717 754.906 585.717C758.247 585.717 761.203 586.446 763.773 587.902C766.344 589.359 768.314 591.372 769.685 593.942C771.099 596.47 771.805 599.34 771.805 602.552ZM765.765 601.331C765.765 599.104 765.273 597.198 764.287 595.613C763.302 593.985 761.953 592.764 760.239 591.95C758.569 591.093 756.705 590.665 754.649 590.665C751.693 590.665 749.166 591.608 747.067 593.492C745.011 595.377 743.833 597.99 743.533 601.331H765.765Z"></path><path style="fill:var(--color-interactiveNegative030)" d="M777.339 603.837C777.339 600.196 778.067 597.026 779.524 594.328C780.98 591.586 782.993 589.466 785.564 587.966C788.177 586.467 791.154 585.717 794.495 585.717C798.822 585.717 802.377 586.767 805.161 588.866C807.989 590.965 809.852 593.878 810.752 597.605H804.455C803.855 595.463 802.677 593.771 800.921 592.529C799.207 591.286 797.065 590.665 794.495 590.665C791.154 590.665 788.455 591.822 786.399 594.135C784.343 596.405 783.315 599.639 783.315 603.837C783.315 608.078 784.343 611.355 786.399 613.669C788.455 615.982 791.154 617.138 794.495 617.138C797.065 617.138 799.207 616.539 800.921 615.339C802.634 614.14 803.812 612.426 804.455 610.199H810.752C809.809 613.797 807.924 616.689 805.097 618.873C802.27 621.015 798.736 622.086 794.495 622.086C791.154 622.086 788.177 621.336 785.564 619.837C782.993 618.338 780.98 616.217 779.524 613.476C778.067 610.734 777.339 607.521 777.339 603.837Z"></path><path style="fill:var(--color-interactiveNegative030)" d="M825.686 591.115V611.869C825.686 613.583 826.05 614.804 826.778 615.532C827.507 616.217 828.77 616.56 830.569 616.56H834.874V621.508H829.606C826.35 621.508 823.908 620.758 822.28 619.259C820.653 617.759 819.839 615.296 819.839 611.869V591.115H815.277V586.296H819.839V577.429H825.686V586.296H834.874V591.115H825.686Z"></path><path style="fill:var(--color-interactiveNegative030)" d="M856.905 603.773C856.905 600.175 857.633 597.026 859.09 594.328C860.546 591.586 862.538 589.466 865.065 587.966C867.636 586.467 870.484 585.717 873.611 585.717C876.696 585.717 879.373 586.381 881.643 587.709C883.914 589.037 885.606 590.708 886.719 592.721V586.296H892.631V621.508H886.719V614.954C885.563 617.01 883.828 618.723 881.515 620.094C879.244 621.422 876.589 622.086 873.547 622.086C870.42 622.086 867.593 621.315 865.065 619.773C862.538 618.231 860.546 616.067 859.09 613.283C857.633 610.499 856.905 607.329 856.905 603.773ZM886.719 603.837C886.719 601.182 886.184 598.868 885.113 596.898C884.042 594.927 882.586 593.428 880.744 592.4C878.945 591.329 876.953 590.794 874.768 590.794C872.583 590.794 870.591 591.308 868.792 592.336C866.993 593.364 865.558 594.863 864.487 596.834C863.416 598.804 862.881 601.117 862.881 603.773C862.881 606.472 863.416 608.828 864.487 610.841C865.558 612.812 866.993 614.332 868.792 615.403C870.591 616.431 872.583 616.946 874.768 616.946C876.953 616.946 878.945 616.431 880.744 615.403C882.586 614.332 884.042 612.812 885.113 610.841C886.184 608.828 886.719 606.493 886.719 603.837Z"></path><path style="fill:var(--color-interactiveNegative030)" d="M919.668 585.653C923.952 585.653 927.422 586.96 930.078 589.573C932.734 592.143 934.062 595.87 934.062 600.753V621.508H928.279V601.589C928.279 598.076 927.4 595.399 925.644 593.557C923.888 591.672 921.489 590.729 918.448 590.729C915.363 590.729 912.9 591.693 911.058 593.621C909.259 595.549 908.359 598.354 908.359 602.038V621.508H902.512V586.296H908.359V591.308C909.516 589.509 911.08 588.116 913.05 587.131C915.063 586.146 917.27 585.653 919.668 585.653Z"></path><path style="fill:var(--color-interactiveNegative030)" d="M976.101 622.086C972.802 622.086 969.804 621.336 967.105 619.837C964.449 618.338 962.35 616.217 960.808 613.476C959.309 610.691 958.559 607.479 958.559 603.837C958.559 600.239 959.33 597.069 960.872 594.328C962.457 591.543 964.599 589.423 967.298 587.966C969.996 586.467 973.016 585.717 976.358 585.717C979.699 585.717 982.719 586.467 985.418 587.966C988.116 589.423 990.237 591.522 991.779 594.263C993.364 597.005 994.156 600.196 994.156 603.837C994.156 607.479 993.342 610.691 991.715 613.476C990.13 616.217 987.966 618.338 985.225 619.837C982.483 621.336 979.442 622.086 976.101 622.086ZM976.101 616.946C978.2 616.946 980.17 616.453 982.012 615.468C983.854 614.482 985.332 613.005 986.446 611.034C987.602 609.064 988.181 606.665 988.181 603.837C988.181 601.01 987.624 598.611 986.51 596.641C985.396 594.67 983.94 593.214 982.141 592.271C980.341 591.286 978.392 590.794 976.293 590.794C974.151 590.794 972.181 591.286 970.382 592.271C968.626 593.214 967.212 594.67 966.141 596.641C965.07 598.611 964.535 601.01 964.535 603.837C964.535 606.708 965.049 609.128 966.077 611.098C967.148 613.069 968.561 614.547 970.318 615.532C972.074 616.474 974.002 616.946 976.101 616.946Z"></path><path style="fill:var(--color-interactiveNegative030)" d="M1007.69 592.786C1008.85 590.772 1010.56 589.102 1012.83 587.774C1015.15 586.403 1017.82 585.717 1020.86 585.717C1023.99 585.717 1026.82 586.467 1029.35 587.966C1031.92 589.466 1033.93 591.586 1035.39 594.328C1036.84 597.026 1037.57 600.175 1037.57 603.773C1037.57 607.329 1036.84 610.499 1035.39 613.283C1033.93 616.067 1031.92 618.231 1029.35 619.773C1026.82 621.315 1023.99 622.086 1020.86 622.086C1017.87 622.086 1015.21 621.422 1012.9 620.094C1010.63 618.723 1008.89 617.031 1007.69 615.018V638.214H1001.84V586.296H1007.69V592.786ZM1031.59 603.773C1031.59 601.117 1031.06 598.804 1029.99 596.834C1028.92 594.863 1027.46 593.364 1025.62 592.336C1023.82 591.308 1021.83 590.794 1019.64 590.794C1017.5 590.794 1015.51 591.329 1013.67 592.4C1011.87 593.428 1010.41 594.949 1009.3 596.962C1008.23 598.933 1007.69 601.224 1007.69 603.837C1007.69 606.493 1008.23 608.828 1009.3 610.841C1010.41 612.812 1011.87 614.332 1013.67 615.403C1015.51 616.431 1017.5 616.946 1019.64 616.946C1021.83 616.946 1023.82 616.431 1025.62 615.403C1027.46 614.332 1028.92 612.812 1029.99 610.841C1031.06 608.828 1031.59 606.472 1031.59 603.773Z"></path><path style="fill:var(--color-interactiveNegative030)" d="M1052.4 591.115V611.869C1052.4 613.583 1052.76 614.804 1053.49 615.532C1054.22 616.217 1055.48 616.56 1057.28 616.56H1061.59V621.508H1056.32C1053.06 621.508 1050.62 620.758 1048.99 619.259C1047.37 617.759 1046.55 615.296 1046.55 611.869V591.115H1041.99V586.296H1046.55V577.429H1052.4V586.296H1061.59V591.115H1052.4Z"></path><path style="fill:var(--color-interactiveNegative030)" d="M1071.69 580.577C1070.58 580.577 1069.64 580.192 1068.87 579.42C1068.09 578.649 1067.71 577.707 1067.71 576.593C1067.71 575.479 1068.09 574.537 1068.87 573.766C1069.64 572.995 1070.58 572.609 1071.69 572.609C1072.76 572.609 1073.66 572.995 1074.39 573.766C1075.16 574.537 1075.55 575.479 1075.55 576.593C1075.55 577.707 1075.16 578.649 1074.39 579.42C1073.66 580.192 1072.76 580.577 1071.69 580.577ZM1074.52 586.296V621.508H1068.67V586.296H1074.52Z"></path><path style="fill:var(--color-interactiveNegative030)" d="M1099.84 622.086C1096.54 622.086 1093.55 621.336 1090.85 619.837C1088.19 618.338 1086.09 616.217 1084.55 613.476C1083.05 610.691 1082.3 607.479 1082.3 603.837C1082.3 600.239 1083.07 597.069 1084.61 594.328C1086.2 591.543 1088.34 589.423 1091.04 587.966C1093.74 586.467 1096.76 585.717 1100.1 585.717C1103.44 585.717 1106.46 586.467 1109.16 587.966C1111.86 589.423 1113.98 591.522 1115.52 594.263C1117.11 597.005 1117.9 600.196 1117.9 603.837C1117.9 607.479 1117.08 610.691 1115.46 613.476C1113.87 616.217 1111.71 618.338 1108.97 619.837C1106.22 621.336 1103.18 622.086 1099.84 622.086ZM1099.84 616.946C1101.94 616.946 1103.91 616.453 1105.75 615.468C1107.6 614.482 1109.07 613.005 1110.19 611.034C1111.34 609.064 1111.92 606.665 1111.92 603.837C1111.92 601.01 1111.37 598.611 1110.25 596.641C1109.14 594.67 1107.68 593.214 1105.88 592.271C1104.08 591.286 1102.13 590.794 1100.03 590.794C1097.89 590.794 1095.92 591.286 1094.12 592.271C1092.37 593.214 1090.95 594.67 1089.88 596.641C1088.81 598.611 1088.28 601.01 1088.28 603.837C1088.28 606.708 1088.79 609.128 1089.82 611.098C1090.89 613.069 1092.3 614.547 1094.06 615.532C1095.82 616.474 1097.74 616.946 1099.84 616.946Z"></path><path style="fill:var(--color-interactiveNegative030)" d="M1142.74 585.653C1147.03 585.653 1150.5 586.96 1153.15 589.573C1155.81 592.143 1157.14 595.87 1157.14 600.753V621.508H1151.35V601.589C1151.35 598.076 1150.47 595.399 1148.72 593.557C1146.96 591.672 1144.56 590.729 1141.52 590.729C1138.44 590.729 1135.97 591.693 1134.13 593.621C1132.33 595.549 1131.43 598.354 1131.43 602.038V621.508H1125.59V586.296H1131.43V591.308C1132.59 589.509 1134.15 588.116 1136.12 587.131C1138.14 586.146 1140.34 585.653 1142.74 585.653Z"></path><path style="fill:var(--color-interactiveNegative030)" opacity="0.1" d="M663.609 272.909C663.609 236.845 692.845 207.609 728.909 207.609C764.973 207.609 794.208 236.845 794.208 272.909C794.208 308.973 764.973 338.208 728.909 338.208C692.845 338.208 663.609 308.973 663.609 272.909Z"></path><path style="fill:var(--color-interactiveNegative030)" fill-rule="evenodd" clip-rule="evenodd" d="M728.91 346.821C688.091 346.821 655 313.73 655 272.91C655 232.091 688.091 199 728.91 199C769.73 199 802.821 232.091 802.821 272.91C802.821 313.73 769.73 346.821 728.91 346.821ZM728.91 207.611C692.846 207.611 663.611 236.846 663.611 272.91C663.611 308.974 692.846 338.21 728.91 338.21C764.974 338.21 794.21 308.974 794.21 272.91C794.21 236.846 764.974 207.611 728.91 207.611Z"></path><path style="fill:var(--color-illustrationHighlight010)" d="M431.432 294.678H449.506V301.754H422.664V248.301H431.432V294.678Z"></path><path style="fill:var(--color-illustrationHighlight010)" d="M453.916 280.373C453.916 276.117 454.788 272.348 456.531 269.067C458.325 265.785 460.735 263.247 463.761 261.453C466.837 259.607 470.221 258.684 473.913 258.684C477.246 258.684 480.143 259.35 482.604 260.684C485.116 261.965 487.116 263.581 488.603 265.529V259.376H497.448V301.754H488.603V295.448C487.116 297.447 485.091 299.114 482.527 300.447C479.963 301.78 477.041 302.446 473.759 302.446C470.119 302.446 466.786 301.524 463.761 299.678C460.735 297.781 458.325 295.166 456.531 291.833C454.788 288.449 453.916 284.629 453.916 280.373ZM488.603 280.527C488.603 277.604 487.988 275.066 486.757 272.912C485.578 270.759 484.014 269.118 482.065 267.99C480.117 266.862 478.015 266.298 475.759 266.298C473.503 266.298 471.4 266.862 469.452 267.99C467.504 269.067 465.914 270.682 464.684 272.836C463.504 274.938 462.915 277.45 462.915 280.373C462.915 283.296 463.504 285.859 464.684 288.064C465.914 290.269 467.504 291.961 469.452 293.14C471.452 294.268 473.554 294.832 475.759 294.832C478.015 294.832 480.117 294.268 482.065 293.14C484.014 292.012 485.578 290.371 486.757 288.218C487.988 286.013 488.603 283.449 488.603 280.527Z"></path><path style="fill:var(--color-illustrationHighlight010)" d="M517.732 265.683C519.219 263.632 521.244 261.965 523.808 260.684C526.423 259.35 529.32 258.684 532.499 258.684C536.242 258.684 539.626 259.581 542.651 261.376C545.676 263.17 548.061 265.734 549.804 269.067C551.547 272.348 552.419 276.117 552.419 280.373C552.419 284.629 551.547 288.449 549.804 291.833C548.061 295.166 545.651 297.781 542.574 299.678C539.549 301.524 536.191 302.446 532.499 302.446C529.217 302.446 526.295 301.806 523.731 300.524C521.219 299.242 519.219 297.601 517.732 295.601V301.754H508.964V244.84H517.732V265.683ZM543.497 280.373C543.497 277.45 542.882 274.938 541.651 272.836C540.472 270.682 538.883 269.067 536.883 267.99C534.934 266.862 532.832 266.298 530.576 266.298C528.371 266.298 526.269 266.862 524.269 267.99C522.321 269.118 520.731 270.759 519.501 272.912C518.322 275.066 517.732 277.604 517.732 280.527C517.732 283.449 518.322 286.013 519.501 288.218C520.731 290.371 522.321 292.012 524.269 293.14C526.269 294.268 528.371 294.832 530.576 294.832C532.832 294.832 534.934 294.268 536.883 293.14C538.883 291.961 540.472 290.269 541.651 288.064C542.882 285.859 543.497 283.296 543.497 280.373Z"></path><path style="fill:var(--color-illustrationHighlight010)" d="M599.93 279.527C599.93 281.116 599.827 282.552 599.622 283.834H567.242C567.499 287.218 568.755 289.936 571.011 291.987C573.267 294.037 576.036 295.063 579.317 295.063C584.035 295.063 587.368 293.089 589.316 289.141H598.776C597.494 293.038 595.161 296.242 591.777 298.755C588.444 301.216 584.291 302.446 579.317 302.446C575.267 302.446 571.626 301.549 568.396 299.755C565.217 297.909 562.705 295.345 560.859 292.063C559.064 288.731 558.167 284.885 558.167 280.527C558.167 276.168 559.039 272.348 560.782 269.067C562.576 265.734 565.063 263.17 568.242 261.376C571.473 259.581 575.164 258.684 579.317 258.684C583.317 258.684 586.88 259.556 590.008 261.299C593.136 263.042 595.571 265.503 597.315 268.682C599.058 271.81 599.93 275.425 599.93 279.527ZM590.777 276.758C590.726 273.528 589.572 270.938 587.316 268.99C585.06 267.042 582.266 266.067 578.933 266.067C575.908 266.067 573.318 267.042 571.165 268.99C569.011 270.887 567.73 273.477 567.319 276.758H590.777Z"></path><path style="fill:var(--color-illustrationHighlight010)" d="M617.326 244.84V301.754H608.558V244.84H617.326Z"></path><path style="fill:var(--color-interactiveNegative030)" opacity="0.1" d="M872.609 455.174C872.609 419.111 901.845 389.875 937.909 389.875C973.973 389.875 1003.21 419.111 1003.21 455.174C1003.21 491.238 973.973 520.474 937.909 520.474C901.845 520.474 872.609 491.238 872.609 455.174Z"></path><path style="fill:var(--color-interactiveNegative030)" fill-rule="evenodd" clip-rule="evenodd" d="M937.91 529.086C897.091 529.086 864 495.996 864 455.176C864 414.356 897.091 381.266 937.91 381.266C978.73 381.266 1011.82 414.356 1011.82 455.176C1011.82 495.996 978.73 529.086 937.91 529.086ZM937.91 389.877C901.846 389.877 872.611 419.112 872.611 455.176C872.611 491.24 901.846 520.475 937.91 520.475C973.974 520.475 1003.21 491.24 1003.21 455.176C1003.21 419.112 973.974 389.877 937.91 389.877Z"></path><path style="fill:var(--color-illustrationHighlight010)" d="M431.432 476.94H449.506V484.016H422.664V430.563H431.432V476.94Z"></path><path style="fill:var(--color-illustrationHighlight010)" d="M453.916 462.635C453.916 458.379 454.788 454.61 456.531 451.329C458.325 448.047 460.735 445.509 463.761 443.714C466.837 441.869 470.221 440.946 473.913 440.946C477.246 440.946 480.143 441.612 482.604 442.945C485.116 444.227 487.116 445.842 488.603 447.791V441.638H497.448V484.016H488.603V477.709C487.116 479.709 485.091 481.375 482.527 482.708C479.963 484.042 477.041 484.708 473.759 484.708C470.119 484.708 466.786 483.785 463.761 481.939C460.735 480.042 458.325 477.427 456.531 474.094C454.788 470.71 453.916 466.89 453.916 462.635ZM488.603 462.788C488.603 459.866 487.988 457.328 486.757 455.174C485.578 453.021 484.014 451.38 482.065 450.252C480.117 449.124 478.015 448.56 475.759 448.56C473.503 448.56 471.4 449.124 469.452 450.252C467.504 451.329 465.914 452.944 464.684 455.097C463.504 457.2 462.915 459.712 462.915 462.635C462.915 465.557 463.504 468.121 464.684 470.326C465.914 472.531 467.504 474.223 469.452 475.402C471.452 476.53 473.554 477.094 475.759 477.094C478.015 477.094 480.117 476.53 482.065 475.402C484.014 474.274 485.578 472.633 486.757 470.48C487.988 468.275 488.603 465.711 488.603 462.788Z"></path><path style="fill:var(--color-illustrationHighlight010)" d="M517.732 447.945C519.219 445.894 521.244 444.227 523.808 442.945C526.423 441.612 529.32 440.946 532.499 440.946C536.242 440.946 539.626 441.843 542.651 443.638C545.676 445.432 548.061 447.996 549.804 451.329C551.547 454.61 552.419 458.379 552.419 462.635C552.419 466.89 551.547 470.71 549.804 474.094C548.061 477.427 545.651 480.042 542.574 481.939C539.549 483.785 536.191 484.708 532.499 484.708C529.217 484.708 526.295 484.067 523.731 482.785C521.219 481.504 519.219 479.863 517.732 477.863V484.016H508.964V427.102H517.732V447.945ZM543.497 462.635C543.497 459.712 542.882 457.2 541.651 455.097C540.472 452.944 538.883 451.329 536.883 450.252C534.934 449.124 532.832 448.56 530.576 448.56C528.371 448.56 526.269 449.124 524.269 450.252C522.321 451.38 520.731 453.021 519.501 455.174C518.322 457.328 517.732 459.866 517.732 462.788C517.732 465.711 518.322 468.275 519.501 470.48C520.731 472.633 522.321 474.274 524.269 475.402C526.269 476.53 528.371 477.094 530.576 477.094C532.832 477.094 534.934 476.53 536.883 475.402C538.883 474.223 540.472 472.531 541.651 470.326C542.882 468.121 543.497 465.557 543.497 462.635Z"></path><path style="fill:var(--color-illustrationHighlight010)" d="M599.93 461.789C599.93 463.378 599.827 464.814 599.622 466.096H567.242C567.499 469.48 568.755 472.197 571.011 474.248C573.267 476.299 576.036 477.325 579.317 477.325C584.035 477.325 587.368 475.351 589.316 471.403H598.776C597.494 475.299 595.161 478.504 591.777 481.016C588.444 483.478 584.291 484.708 579.317 484.708C575.267 484.708 571.626 483.811 568.396 482.016C565.217 480.17 562.705 477.607 560.859 474.325C559.064 470.992 558.167 467.147 558.167 462.788C558.167 458.43 559.039 454.61 560.782 451.329C562.576 447.996 565.063 445.432 568.242 443.638C571.473 441.843 575.164 440.946 579.317 440.946C583.317 440.946 586.88 441.817 590.008 443.561C593.136 445.304 595.571 447.765 597.315 450.944C599.058 454.072 599.93 457.687 599.93 461.789ZM590.777 459.02C590.726 455.789 589.572 453.2 587.316 451.252C585.06 449.303 582.266 448.329 578.933 448.329C575.908 448.329 573.318 449.303 571.165 451.252C569.011 453.149 567.73 455.738 567.319 459.02H590.777Z"></path><path style="fill:var(--color-illustrationHighlight010)" d="M617.326 427.102V484.016H608.558V427.102H617.326Z"></path><path style="fill:var(--color-illustrationHighlight010)" d="M641.432 476.94H659.506V484.016H632.664V430.563H641.432V476.94Z"></path><path style="fill:var(--color-illustrationHighlight010)" d="M663.916 462.635C663.916 458.379 664.788 454.61 666.531 451.329C668.325 448.047 670.735 445.509 673.761 443.714C676.837 441.869 680.221 440.946 683.913 440.946C687.246 440.946 690.143 441.612 692.604 442.945C695.116 444.227 697.116 445.842 698.603 447.791V441.638H707.448V484.016H698.603V477.709C697.116 479.709 695.091 481.375 692.527 482.708C689.963 484.042 687.041 484.708 683.759 484.708C680.119 484.708 676.786 483.785 673.761 481.939C670.735 480.042 668.325 477.427 666.531 474.094C664.788 470.71 663.916 466.89 663.916 462.635ZM698.603 462.788C698.603 459.866 697.988 457.328 696.757 455.174C695.578 453.021 694.014 451.38 692.065 450.252C690.117 449.124 688.015 448.56 685.759 448.56C683.503 448.56 681.4 449.124 679.452 450.252C677.504 451.329 675.914 452.944 674.684 455.097C673.504 457.2 672.915 459.712 672.915 462.635C672.915 465.557 673.504 468.121 674.684 470.326C675.914 472.531 677.504 474.223 679.452 475.402C681.452 476.53 683.554 477.094 685.759 477.094C688.015 477.094 690.117 476.53 692.065 475.402C694.014 474.274 695.578 472.633 696.757 470.48C697.988 468.275 698.603 465.711 698.603 462.788Z"></path><path style="fill:var(--color-illustrationHighlight010)" d="M727.732 447.945C729.219 445.894 731.244 444.227 733.808 442.945C736.423 441.612 739.32 440.946 742.499 440.946C746.242 440.946 749.626 441.843 752.651 443.638C755.676 445.432 758.061 447.996 759.804 451.329C761.547 454.61 762.419 458.379 762.419 462.635C762.419 466.89 761.547 470.71 759.804 474.094C758.061 477.427 755.651 480.042 752.574 481.939C749.549 483.785 746.191 484.708 742.499 484.708C739.217 484.708 736.295 484.067 733.731 482.785C731.219 481.504 729.219 479.863 727.732 477.863V484.016H718.964V427.102H727.732V447.945ZM753.497 462.635C753.497 459.712 752.882 457.2 751.651 455.097C750.472 452.944 748.883 451.329 746.883 450.252C744.934 449.124 742.832 448.56 740.576 448.56C738.371 448.56 736.269 449.124 734.269 450.252C732.321 451.38 730.731 453.021 729.501 455.174C728.322 457.328 727.732 459.866 727.732 462.788C727.732 465.711 728.322 468.275 729.501 470.48C730.731 472.633 732.321 474.274 734.269 475.402C736.269 476.53 738.371 477.094 740.576 477.094C742.832 477.094 744.934 476.53 746.883 475.402C748.883 474.223 750.472 472.531 751.651 470.326C752.882 468.121 753.497 465.557 753.497 462.635Z"></path><path style="fill:var(--color-illustrationHighlight010)" d="M809.93 461.789C809.93 463.378 809.827 464.814 809.622 466.096H777.242C777.499 469.48 778.755 472.197 781.011 474.248C783.267 476.299 786.036 477.325 789.317 477.325C794.035 477.325 797.368 475.351 799.316 471.403H808.776C807.494 475.299 805.161 478.504 801.777 481.016C798.444 483.478 794.291 484.708 789.317 484.708C785.267 484.708 781.626 483.811 778.396 482.016C775.217 480.17 772.705 477.607 770.859 474.325C769.064 470.992 768.167 467.147 768.167 462.788C768.167 458.43 769.039 454.61 770.782 451.329C772.576 447.996 775.063 445.432 778.242 443.638C781.473 441.843 785.164 440.946 789.317 440.946C793.317 440.946 796.88 441.817 800.008 443.561C803.136 445.304 805.571 447.765 807.315 450.944C809.058 454.072 809.93 457.687 809.93 461.789ZM800.777 459.02C800.726 455.789 799.572 453.2 797.316 451.252C795.06 449.303 792.266 448.329 788.933 448.329C785.908 448.329 783.318 449.303 781.165 451.252C779.011 453.149 777.73 455.738 777.319 459.02H800.777Z"></path><path style="fill:var(--color-illustrationHighlight010)" d="M827.326 427.102V484.016H818.558V427.102H827.326Z"></path></g><defs><filter id="nk-1328" x="268.213" y="-377.894" width="1040.57" height="1616.4" filterUnits="userSpaceOnUse" color-interpolation-filters="sRGB"><feFlood flood-opacity="0" result="BackgroundImageFix"></feFlood><feColorMatrix in="SourceAlpha" type="matrix" values="0 0 0 0 0 0 0 0 0 0 0 0 0 0 0 0 0 0 127 0" result="hardAlpha"></feColorMatrix><feOffset dy="10.8936"></feOffset><feGaussianBlur stdDeviation="10.8936"></feGaussianBlur><feColorMatrix type="matrix" values="0 0 0 0 0.0392157 0 0 0 0 0.0392157 0 0 0 0 0.0392157 0 0 0 0.08 0"></feColorMatrix><feBlend mode="normal" in2="BackgroundImageFix" result="effect1_dropShadow_973_178065"></feBlend><feBlend mode="normal" in="SourceGraphic" in2="effect1_dropShadow_973_178065" result="shape"></feBlend></filter><clipPath id="nk-1327"><rect style="fill:var(--color-white)" width="1490" height="838"></rect></clipPath></defs></svg>