<svg id="nksvg" style="width: 100%; height: 100%" width="1490" height="838" viewBox="0 0 1490 838" fill="none" xmlns="http://www.w3.org/2000/svg" class="css-0">
  <path style="fill: var(--color-illustrationBackground020)" d="M0 0H1490V838H0V0Z"></path>
  <g>
    <rect style="fill: var(--color-interfaceBackground)" width="1253.98" height="127" transform="translate(117.512 368)"></rect>
    <rect style="fill: var(--color-illustrationPalette040)" x="159.845" y="389.167" width="84.6667" height="84.6667" rx="42.3333"></rect>
    <path style="fill: var(--color-interfaceBackground)" d="M195.123 419.152V443.847L214.526 431.5L195.123 419.152Z"></path>
    <path style="fill: var(--color-illustrationPalette040)" fill-rule="evenodd" clip-rule="evenodd" d="M316.831 436.793V426.21H323.887L332.706 417.391V445.613L323.887 436.793H316.831ZM336.234 424.393C338.845 425.698 340.644 428.379 340.644 431.501C340.644 434.623 338.845 437.304 336.234 438.592V424.393Z"></path>
    <rect style="fill: var(--color-illustrationInterface020)" x="403.262" y="426.209" width="198" height="11" rx="5.5"></rect>
    <rect style="fill: var(--color-illustrationPalette040)" x="403.262" y="426.209" width="99" height="11" rx="5.5"></rect>
    <path style="fill: var(--color-illustrationPalette040)" d="M525 432C525 443.598 515.598 453 504 453C492.402 453 483 443.598 483 432C483 420.402 492.402 411 504 411C515.598 411 525 420.402 525 432Z"></path>
    <path style="fill: var(--color-interface010)" fill-rule="evenodd" clip-rule="evenodd" d="M504 450.354C514.137 450.354 522.354 442.137 522.354 432C522.354 421.863 514.137 413.646 504 413.646C493.863 413.646 485.646 421.863 485.646 432C485.646 442.137 493.863 450.354 504 450.354ZM504 453C515.598 453 525 443.598 525 432C525 420.402 515.598 411 504 411C492.402 411 483 420.402 483 432C483 443.598 492.402 453 504 453Z"></path>
    <path style="fill: var(--color-illustrationHighlight010)" fill-rule="evenodd" clip-rule="evenodd" d="M1202.89 449.137H1206.42V413.859H1202.89V449.137ZM1195.84 442.082H1199.36V420.916H1195.84V442.082ZM1192.31 435.025H1188.78V427.97H1192.31V435.025ZM1209.95 442.082H1213.47V420.916H1209.95V442.082ZM1217 435.025V427.97H1220.53V435.025H1217Z"></path>
    <path style="fill: var(--color-illustrationHighlight010)" d="M1252.99 439.656H1260.45V442.577H1249.37V420.511H1252.99V439.656ZM1265.32 422.765C1264.66 422.765 1264.11 422.543 1263.67 422.098C1263.22 421.654 1263 421.104 1263 420.447C1263 419.791 1263.22 419.241 1263.67 418.796C1264.11 418.352 1264.66 418.13 1265.32 418.13C1265.95 418.13 1266.49 418.352 1266.94 418.796C1267.38 419.241 1267.6 419.791 1267.6 420.447C1267.6 421.104 1267.38 421.654 1266.94 422.098C1266.49 422.543 1265.95 422.765 1265.32 422.765ZM1267.1 425.083V442.577H1263.48V425.083H1267.1ZM1278.61 439.339L1283.56 425.083H1287.41L1280.74 442.577H1276.42L1269.78 425.083H1273.66L1278.61 439.339ZM1306.18 433.401C1306.18 434.058 1306.13 434.65 1306.05 435.179H1292.68C1292.79 436.576 1293.31 437.698 1294.24 438.545C1295.17 439.392 1296.31 439.815 1297.67 439.815C1299.61 439.815 1300.99 439 1301.79 437.37H1305.7C1305.17 438.979 1304.21 440.302 1302.81 441.339C1301.43 442.355 1299.72 442.863 1297.67 442.863C1295.99 442.863 1294.49 442.492 1293.16 441.752C1291.85 440.99 1290.81 439.931 1290.05 438.577C1289.31 437.201 1288.94 435.613 1288.94 433.814C1288.94 432.015 1289.3 430.438 1290.02 429.083C1290.76 427.708 1291.78 426.649 1293.09 425.908C1294.43 425.168 1295.95 424.797 1297.67 424.797C1299.32 424.797 1300.79 425.157 1302.08 425.877C1303.37 426.596 1304.38 427.612 1305.1 428.925C1305.82 430.216 1306.18 431.708 1306.18 433.401ZM1302.4 432.258C1302.38 430.925 1301.9 429.856 1300.97 429.052C1300.04 428.247 1298.88 427.845 1297.51 427.845C1296.26 427.845 1295.19 428.247 1294.3 429.052C1293.41 429.835 1292.88 430.904 1292.71 432.258H1302.4Z"></path>
  </g>
  <defs>
    
  </defs>
</svg>
