<svg id="components-audio-player-options-recorded" style="width: 100%; height: 100%" width="1490" height="838" viewBox="0 0 1490 838" fill="none" xmlns="http://www.w3.org/2000/svg" class="css-0"><path style="fill:var(--color-illustrationBackground020)" d="M0 0H1490V838H0V0Z"></path><g filter="url(#nk-1179)"><rect style="fill:var(--color-interfaceBackground)" width="1253.97" height="127" transform="translate(118 355)"></rect><path style="fill:var(--color-illustrationPalette040)" d="M160.333 418.5C160.333 395.12 179.287 376.167 202.667 376.167V376.167C226.047 376.167 245 395.12 245 418.5V418.5C245 441.88 226.047 460.834 202.667 460.834V460.834C179.287 460.834 160.333 441.88 160.333 418.5V418.5Z"></path><mask id="nk-1174" mask-type="alpha" maskUnits="userSpaceOnUse" x="181" y="397" width="43" height="43"><path d="M195.611 406.153V430.848L215.014 418.501L195.611 406.153Z" fill="#0A0A0A"></path></mask><g mask="url(#nk-1174)"><rect style="fill:var(--color-inkInverse)" x="181.5" y="397.334" width="42.3333" height="42.3333"></rect></g><mask id="nk-1175" mask-type="alpha" maskUnits="userSpaceOnUse" x="308" y="397" width="43" height="43"><path fill-rule="evenodd" clip-rule="evenodd" d="M317.319 423.793V413.21H324.375L333.194 404.391V432.613L324.375 423.793H317.319ZM336.722 411.393C339.332 412.698 341.132 415.379 341.132 418.501C341.132 421.623 339.332 424.305 336.722 425.592V411.393Z" fill="#0A0A0A"></path></mask><g mask="url(#nk-1175)"><rect style="fill:var(--color-illustrationPalette040)" x="308.5" y="397.334" width="42.3333" height="42.3333"></rect></g><path style="fill:var(--color-illustrationHighlight010)" d="M416.873 416.503C416.873 411.621 417.692 407.811 419.329 405.073C420.994 402.307 423.844 400.925 427.88 400.925C431.916 400.925 434.752 402.307 436.389 405.073C438.054 407.811 438.887 411.621 438.887 416.503C438.887 421.442 438.054 425.309 436.389 428.103C434.752 430.868 431.916 432.251 427.88 432.251C423.844 432.251 420.994 430.868 419.329 428.103C417.692 425.309 416.873 421.442 416.873 416.503ZM434.145 416.503C434.145 414.217 433.99 412.284 433.68 410.704C433.397 409.123 432.805 407.839 431.902 406.851C430.998 405.835 429.658 405.327 427.88 405.327C426.102 405.327 424.761 405.835 423.858 406.851C422.955 407.839 422.348 409.123 422.038 410.704C421.756 412.284 421.615 414.217 421.615 416.503C421.615 418.874 421.756 420.864 422.038 422.472C422.32 424.081 422.913 425.379 423.816 426.367C424.747 427.355 426.102 427.849 427.88 427.849C429.658 427.849 430.998 427.355 431.902 426.367C432.833 425.379 433.44 424.081 433.722 422.472C434.004 420.864 434.145 418.874 434.145 416.503ZM443.993 416.503C443.993 411.621 444.811 407.811 446.448 405.073C448.113 402.307 450.964 400.925 455 400.925C459.035 400.925 461.872 402.307 463.509 405.073C465.174 407.811 466.006 411.621 466.006 416.503C466.006 421.442 465.174 425.309 463.509 428.103C461.872 430.868 459.035 432.251 455 432.251C450.964 432.251 448.113 430.868 446.448 428.103C444.811 425.309 443.993 421.442 443.993 416.503ZM461.265 416.503C461.265 414.217 461.11 412.284 460.799 410.704C460.517 409.123 459.924 407.839 459.021 406.851C458.118 405.835 456.778 405.327 455 405.327C453.222 405.327 451.881 405.835 450.978 406.851C450.075 407.839 449.468 409.123 449.158 410.704C448.875 412.284 448.734 414.217 448.734 416.503C448.734 418.874 448.875 420.864 449.158 422.472C449.44 424.081 450.033 425.379 450.936 426.367C451.867 427.355 453.222 427.849 455 427.849C456.778 427.849 458.118 427.355 459.021 426.367C459.953 425.379 460.559 424.081 460.842 422.472C461.124 420.864 461.265 418.874 461.265 416.503ZM473.695 432.632C472.82 432.632 472.087 432.336 471.494 431.743C470.901 431.151 470.605 430.417 470.605 429.542C470.605 428.667 470.901 427.933 471.494 427.341C472.087 426.748 472.82 426.452 473.695 426.452C474.542 426.452 475.262 426.748 475.854 427.341C476.447 427.933 476.743 428.667 476.743 429.542C476.743 430.417 476.447 431.151 475.854 431.743C475.262 432.336 474.542 432.632 473.695 432.632ZM473.695 414.852C472.82 414.852 472.087 414.556 471.494 413.963C470.901 413.371 470.605 412.637 470.605 411.762C470.605 410.887 470.901 410.153 471.494 409.561C472.087 408.968 472.82 408.672 473.695 408.672C474.542 408.672 475.262 408.968 475.854 409.561C476.447 410.153 476.743 410.887 476.743 411.762C476.743 412.637 476.447 413.371 475.854 413.963C475.262 414.556 474.542 414.852 473.695 414.852ZM481.405 409.095C481.574 406.47 482.576 404.424 484.41 402.957C486.273 401.489 488.644 400.755 491.522 400.755C493.498 400.755 495.205 401.108 496.645 401.814C498.084 402.519 499.171 403.479 499.904 404.692C500.638 405.906 501.005 407.275 501.005 408.799C501.005 410.548 500.539 412.044 499.608 413.286C498.677 414.528 497.562 415.36 496.264 415.784V415.953C497.929 416.461 499.227 417.392 500.158 418.747C501.09 420.073 501.555 421.781 501.555 423.869C501.555 425.534 501.174 427.016 500.412 428.314C499.65 429.612 498.522 430.643 497.026 431.405C495.53 432.138 493.738 432.505 491.649 432.505C488.601 432.505 486.09 431.729 484.114 430.177C482.167 428.596 481.123 426.339 480.981 423.404H485.638C485.751 424.899 486.33 426.127 487.374 427.087C488.418 428.018 489.829 428.484 491.607 428.484C493.329 428.484 494.655 428.018 495.586 427.087C496.518 426.127 496.983 424.899 496.983 423.404C496.983 421.428 496.348 420.031 495.078 419.213C493.837 418.366 491.918 417.943 489.321 417.943H488.22V413.963H489.363C491.649 413.935 493.385 413.554 494.57 412.82C495.784 412.086 496.391 410.929 496.391 409.349C496.391 407.994 495.953 406.922 495.078 406.132C494.204 405.313 492.962 404.904 491.353 404.904C489.773 404.904 488.545 405.313 487.67 406.132C486.795 406.922 486.273 407.91 486.104 409.095H481.405ZM506.625 416.503C506.625 411.621 507.443 407.811 509.08 405.073C510.745 402.307 513.596 400.925 517.632 400.925C521.667 400.925 524.504 402.307 526.141 405.073C527.806 407.811 528.638 411.621 528.638 416.503C528.638 421.442 527.806 425.309 526.141 428.103C524.504 430.868 521.667 432.251 517.632 432.251C513.596 432.251 510.745 430.868 509.08 428.103C507.443 425.309 506.625 421.442 506.625 416.503ZM523.897 416.503C523.897 414.217 523.742 412.284 523.431 410.704C523.149 409.123 522.556 407.839 521.653 406.851C520.75 405.835 519.41 405.327 517.632 405.327C515.854 405.327 514.513 405.835 513.61 406.851C512.707 407.839 512.1 409.123 511.79 410.704C511.507 412.284 511.366 414.217 511.366 416.503C511.366 418.874 511.507 420.864 511.79 422.472C512.072 424.081 512.664 425.379 513.568 426.367C514.499 427.355 515.854 427.849 517.632 427.849C519.41 427.849 520.75 427.355 521.653 426.367C522.585 425.379 523.191 424.081 523.474 422.472C523.756 420.864 523.897 418.874 523.897 416.503Z"></path><g clip-path="url(#nk-1177)"><rect style="fill:var(--color-illustrationInterface020)" x="573.667" y="407.917" width="480.125" height="21.1667"></rect></g><g clip-path="url(#nk-1178)"><rect style="fill:var(--color-illustrationPalette040)" x="573.667" y="407.917" width="239.819" height="21.1667"></rect></g><path style="fill:var(--color-illustrationPalette040)" d="M792.062 418.5C792.062 406.81 801.539 397.333 813.229 397.333V397.333C824.919 397.333 834.396 406.81 834.396 418.5V418.5C834.396 430.19 824.919 439.666 813.229 439.666V439.666C801.539 439.666 792.062 430.19 792.062 418.5V418.5Z"></path><path style="fill:var(--color-white)" d="M813.229 437.021C803 437.021 794.708 428.728 794.708 418.5H789.416C789.416 431.651 800.078 442.312 813.229 442.312V437.021ZM831.75 418.5C831.75 428.728 823.458 437.021 813.229 437.021V442.312C826.38 442.312 837.041 431.651 837.041 418.5H831.75ZM813.229 399.979C823.458 399.979 831.75 408.271 831.75 418.5H837.041C837.041 405.348 826.38 394.687 813.229 394.687V399.979ZM813.229 394.687C800.078 394.687 789.416 405.348 789.416 418.5H794.708C794.708 408.271 803 399.979 813.229 399.979V394.687Z"></path><path style="fill:var(--color-illustrationHighlight010)" d="M1098.64 416.503C1098.64 411.621 1099.46 407.811 1101.1 405.073C1102.76 402.307 1105.61 400.925 1109.65 400.925C1113.68 400.925 1116.52 402.307 1118.16 405.073C1119.82 407.811 1120.65 411.621 1120.65 416.503C1120.65 421.442 1119.82 425.309 1118.16 428.103C1116.52 430.868 1113.68 432.251 1109.65 432.251C1105.61 432.251 1102.76 430.868 1101.1 428.103C1099.46 425.309 1098.64 421.442 1098.64 416.503ZM1115.91 416.503C1115.91 414.217 1115.76 412.284 1115.45 410.704C1115.17 409.123 1114.57 407.839 1113.67 406.851C1112.77 405.835 1111.43 405.327 1109.65 405.327C1107.87 405.327 1106.53 405.835 1105.63 406.851C1104.72 407.839 1104.12 409.123 1103.81 410.704C1103.52 412.284 1103.38 414.217 1103.38 416.503C1103.38 418.874 1103.52 420.864 1103.81 422.472C1104.09 424.081 1104.68 425.379 1105.58 426.367C1106.52 427.355 1107.87 427.849 1109.65 427.849C1111.43 427.849 1112.77 427.355 1113.67 426.367C1114.6 425.379 1115.21 424.081 1115.49 422.472C1115.77 420.864 1115.91 418.874 1115.91 416.503ZM1125.13 405.878V401.475H1133.93V432.336H1129.06V405.878H1125.13ZM1143.14 432.632C1142.27 432.632 1141.54 432.336 1140.94 431.743C1140.35 431.151 1140.05 430.417 1140.05 429.542C1140.05 428.667 1140.35 427.933 1140.94 427.341C1141.54 426.748 1142.27 426.452 1143.14 426.452C1143.99 426.452 1144.71 426.748 1145.3 427.341C1145.9 427.933 1146.19 428.667 1146.19 429.542C1146.19 430.417 1145.9 431.151 1145.3 431.743C1144.71 432.336 1143.99 432.632 1143.14 432.632ZM1143.14 414.852C1142.27 414.852 1141.54 414.556 1140.94 413.963C1140.35 413.371 1140.05 412.637 1140.05 411.762C1140.05 410.887 1140.35 410.153 1140.94 409.561C1141.54 408.968 1142.27 408.672 1143.14 408.672C1143.99 408.672 1144.71 408.968 1145.3 409.561C1145.9 410.153 1146.19 410.887 1146.19 411.762C1146.19 412.637 1145.9 413.371 1145.3 413.963C1144.71 414.556 1143.99 414.852 1143.14 414.852ZM1150.94 416.503C1150.94 411.621 1151.76 407.811 1153.39 405.073C1155.06 402.307 1157.91 400.925 1161.94 400.925C1165.98 400.925 1168.82 402.307 1170.45 405.073C1172.12 407.811 1172.95 411.621 1172.95 416.503C1172.95 421.442 1172.12 425.309 1170.45 428.103C1168.82 430.868 1165.98 432.251 1161.94 432.251C1157.91 432.251 1155.06 430.868 1153.39 428.103C1151.76 425.309 1150.94 421.442 1150.94 416.503ZM1168.21 416.503C1168.21 414.217 1168.05 412.284 1167.74 410.704C1167.46 409.123 1166.87 407.839 1165.97 406.851C1165.06 405.835 1163.72 405.327 1161.94 405.327C1160.17 405.327 1158.83 405.835 1157.92 406.851C1157.02 407.839 1156.41 409.123 1156.1 410.704C1155.82 412.284 1155.68 414.217 1155.68 416.503C1155.68 418.874 1155.82 420.864 1156.1 422.472C1156.38 424.081 1156.98 425.379 1157.88 426.367C1158.81 427.355 1160.17 427.849 1161.94 427.849C1163.72 427.849 1165.06 427.355 1165.97 426.367C1166.9 425.379 1167.5 424.081 1167.79 422.472C1168.07 420.864 1168.21 418.874 1168.21 416.503ZM1178.06 416.503C1178.06 411.621 1178.88 407.811 1180.51 405.073C1182.18 402.307 1185.03 400.925 1189.06 400.925C1193.1 400.925 1195.94 402.307 1197.57 405.073C1199.24 407.811 1200.07 411.621 1200.07 416.503C1200.07 421.442 1199.24 425.309 1197.57 428.103C1195.94 430.868 1193.1 432.251 1189.06 432.251C1185.03 432.251 1182.18 430.868 1180.51 428.103C1178.88 425.309 1178.06 421.442 1178.06 416.503ZM1195.33 416.503C1195.33 414.217 1195.17 412.284 1194.86 410.704C1194.58 409.123 1193.99 407.839 1193.09 406.851C1192.18 405.835 1190.84 405.327 1189.06 405.327C1187.29 405.327 1185.95 405.835 1185.04 406.851C1184.14 407.839 1183.53 409.123 1183.22 410.704C1182.94 412.284 1182.8 414.217 1182.8 416.503C1182.8 418.874 1182.94 420.864 1183.22 422.472C1183.5 424.081 1184.1 425.379 1185 426.367C1185.93 427.355 1187.29 427.849 1189.06 427.849C1190.84 427.849 1192.18 427.355 1193.09 426.367C1194.02 425.379 1194.62 424.081 1194.91 422.472C1195.19 420.864 1195.33 418.874 1195.33 416.503Z"></path><mask id="nk-1176" mask-type="alpha" maskUnits="userSpaceOnUse" x="1266" y="397" width="43" height="43"><path fill-rule="evenodd" clip-rule="evenodd" d="M1285.54 400.949V404.512C1282.97 404.83 1280.62 405.853 1278.66 407.37L1276.16 404.847C1278.77 402.713 1282 401.302 1285.54 400.949ZM1289.16 414.603L1283.78 410.564V426.439L1289.16 422.399L1294.36 418.501L1289.16 414.603ZM1276.17 409.857L1273.65 407.352C1271.52 409.962 1270.11 413.19 1269.75 416.736H1273.32C1273.63 414.161 1274.66 411.815 1276.17 409.857ZM1269.75 420.263H1273.32C1273.63 422.839 1274.66 425.185 1276.17 427.125L1273.65 429.647C1271.52 427.037 1270.11 423.809 1269.75 420.263ZM1276.16 432.152C1278.77 434.286 1282.01 435.697 1285.54 436.05V432.487C1282.97 432.17 1280.62 431.147 1278.66 429.63L1276.16 432.152ZM1289.16 436.051C1298.03 435.116 1304.94 427.602 1304.94 418.5C1304.94 409.398 1298.03 401.884 1289.16 400.949V404.512C1296.07 405.429 1301.42 411.356 1301.42 418.5C1301.42 425.644 1296.07 431.57 1289.16 432.488V436.051Z" fill="#0A0A0A"></path></mask><g mask="url(#nk-1176)"><rect style="fill:var(--color-illustrationPalette040)" x="1266.14" y="397.334" width="42.3333" height="42.3333"></rect></g></g><defs><filter id="nk-1179" x="96.8333" y="344.417" width="1296.3" height="169.333" filterUnits="userSpaceOnUse" color-interpolation-filters="sRGB"><feFlood flood-opacity="0" result="BackgroundImageFix"></feFlood><feColorMatrix in="SourceAlpha" type="matrix" values="0 0 0 0 0 0 0 0 0 0 0 0 0 0 0 0 0 0 127 0" result="hardAlpha"></feColorMatrix><feOffset dy="10.5833"></feOffset><feGaussianBlur stdDeviation="10.5833"></feGaussianBlur><feColorMatrix type="matrix" values="0 0 0 0 0.0392157 0 0 0 0 0.0392157 0 0 0 0 0.0392157 0 0 0 0.08 0"></feColorMatrix><feBlend mode="normal" in2="BackgroundImageFix" result="effect1_dropShadow_1985_65798"></feBlend><feBlend mode="normal" in="SourceGraphic" in2="effect1_dropShadow_1985_65798" result="shape"></feBlend></filter><clipPath id="nk-1177"><path style="fill:var(--color-white)" d="M573.667 418.5C573.667 412.655 578.405 407.917 584.25 407.917H1043.21C1049.05 407.917 1053.79 412.655 1053.79 418.5V418.5C1053.79 424.345 1049.05 429.084 1043.21 429.084H584.25C578.405 429.084 573.667 424.345 573.667 418.5V418.5Z"></path></clipPath><clipPath id="nk-1178"><path style="fill:var(--color-white)" d="M573.667 418.5C573.667 412.655 578.405 407.917 584.25 407.917H802.902C808.747 407.917 813.485 412.655 813.485 418.5V418.5C813.485 424.345 808.747 429.084 802.902 429.084H584.25C578.405 429.084 573.667 424.345 573.667 418.5V418.5Z"></path></clipPath></defs></svg>