<svg id="components-audio-player-options-volume-control" style="width: 100%; height: 100%" width="1490" height="838" viewBox="0 0 1490 838" fill="none" xmlns="http://www.w3.org/2000/svg" class="css-0"><path style="fill:var(--color-illustrationBackground020)" d="M0 0H1490V838H0V0Z"></path><rect style="fill:var(--color-illustrationHighlight010)" x="1029.28" y="595" width="136.679" height="136.679" rx="68.3395"></rect><path style="fill:var(--color-illustrationInterface010)" fill-rule="evenodd" clip-rule="evenodd" d="M1077.68 671.879V654.794H1089.07L1103.31 640.557V686.116L1089.07 671.879H1077.68ZM1109.01 651.86C1113.22 653.967 1116.13 658.296 1116.13 663.336C1116.13 668.376 1113.22 672.704 1109.01 674.783V651.86Z"></path><g filter="url(#nk-757)"><rect style="fill:var(--color-illustrationInterface010)" x="1027.66" y="107" width="138.495" height="445.782" rx="34.6238"></rect><path style="fill:var(--color-illustrationInterface010)" d="M1096.91 570.093L1079.6 552.781H1114.22L1096.91 570.093Z"></path></g><rect style="fill:var(--color-illustrationInterface020)" x="1088.25" y="492.191" width="329" height="17" rx="8.5" transform="rotate(-90 1088.25 492.191)"></rect><rect style="fill:var(--color-illustrationHighlight010)" x="1088.25" y="492.191" width="164" height="17" rx="8.5" transform="rotate(-90 1088.25 492.191)"></rect><path style="fill:var(--color-illustrationHighlight010)" d="M1128 325C1128 343.225 1113.23 358 1095 358C1076.77 358 1062 343.225 1062 325C1062 306.775 1076.77 292 1095 292C1113.23 292 1128 306.775 1128 325Z"></path><path style="fill:var(--color-illustrationInterface010)" fill-rule="evenodd" clip-rule="evenodd" d="M1095 354.716C1111.41 354.716 1124.72 341.412 1124.72 325C1124.72 308.588 1111.41 295.284 1095 295.284C1078.59 295.284 1065.28 308.588 1065.28 325C1065.28 341.412 1078.59 354.716 1095 354.716ZM1095 359C1113.78 359 1129 343.778 1129 325C1129 306.222 1113.78 291 1095 291C1076.22 291 1061 306.222 1061 325C1061 343.778 1076.22 359 1095 359Z"></path><rect style="fill:var(--color-illustrationHighlight010)" x="324" y="350.17" width="136.679" height="136.679" rx="68.3395"></rect><path style="fill:var(--color-illustrationInterface010)" fill-rule="evenodd" clip-rule="evenodd" d="M372.407 427.049V409.964H383.797L398.034 395.727V441.286L383.797 427.049H372.407ZM403.729 407.03C407.944 409.137 410.848 413.466 410.848 418.506C410.848 423.546 407.944 427.874 403.729 429.952V407.03Z"></path><rect style="fill:var(--color-illustrationInterface020)" x="511.934" y="409.967" width="320" height="17" rx="8.5"></rect><rect style="fill:var(--color-illustrationHighlight010)" x="511.934" y="409.967" width="160" height="17" rx="8.5"></rect><path style="fill:var(--color-illustrationHighlight010)" d="M706 419C706 436.673 691.673 451 674 451C656.327 451 642 436.673 642 419C642 401.327 656.327 387 674 387C691.673 387 706 401.327 706 419Z"></path><path style="fill:var(--color-interface010)" fill-rule="evenodd" clip-rule="evenodd" d="M674 448.716C690.412 448.716 703.716 435.412 703.716 419C703.716 402.588 690.412 389.284 674 389.284C657.588 389.284 644.284 402.588 644.284 419C644.284 435.412 657.588 448.716 674 448.716ZM674 453C692.778 453 708 437.778 708 419C708 400.222 692.778 385 674 385C655.222 385 640 400.222 640 419C640 437.778 655.222 453 674 453Z"></path><defs><filter id="nk-757" x="889.165" y="55.0643" width="415.486" height="740.084" filterUnits="userSpaceOnUse" color-interpolation-filters="sRGB"><feFlood flood-opacity="0" result="BackgroundImageFix"></feFlood><feColorMatrix in="SourceAlpha" type="matrix" values="0 0 0 0 0 0 0 0 0 0 0 0 0 0 0 0 0 0 127 0" result="hardAlpha"></feColorMatrix><feOffset dy="86.5596"></feOffset><feGaussianBlur stdDeviation="69.2477"></feGaussianBlur><feColorMatrix type="matrix" values="0 0 0 0 0.0392157 0 0 0 0 0.0392157 0 0 0 0 0.0392157 0 0 0 0.08 0"></feColorMatrix><feBlend mode="normal" in2="BackgroundImageFix" result="effect1_dropShadow_2540_80268"></feBlend><feBlend mode="normal" in="SourceGraphic" in2="effect1_dropShadow_2540_80268" result="shape"></feBlend></filter></defs></svg>