<svg id="patterns-forms-input-components-newskit-component-radio-button" style="width: 100%; height: 100%" width="1490" height="838" viewBox="0 0 1490 838" fill="none" xmlns="http://www.w3.org/2000/svg" class="css-0"><path style="fill:var(--color-illustrationBackground020)" d="M0 0H1490V838H0V0Z"></path><path style="fill:var(--color-interface010)" d="M487 419C487 276.511 602.511 161 745 161C887.489 161 1003 276.511 1003 419C1003 561.489 887.489 677 745 677C602.511 677 487 561.489 487 419Z"></path><path style="fill:var(--color-illustrationPalette040)" fill-rule="evenodd" clip-rule="evenodd" d="M520.29 419C520.29 543.104 620.896 643.71 745 643.71C869.104 643.71 969.71 543.104 969.71 419C969.71 294.896 869.104 194.29 745 194.29C620.896 194.29 520.29 294.896 520.29 419ZM745 161C602.511 161 487 276.511 487 419C487 561.489 602.511 677 745 677C887.489 677 1003 561.489 1003 419C1003 276.511 887.489 161 745 161Z"></path><path style="fill:var(--color-illustrationPalette040)" d="M604 419C604 341.128 666.904 278 744.5 278C822.096 278 885 341.128 885 419C885 496.872 822.096 560 744.5 560C666.904 560 604 496.872 604 419Z"></path><g filter="url(#nk-1655)"><mask id="nk-1654" mask-type="alpha" maskUnits="userSpaceOnUse" x="603" y="277" width="284" height="284"><path style="fill:var(--color-white)" d="M603.746 419C603.746 340.986 666.989 277.742 745.004 277.742C823.019 277.742 886.262 340.986 886.262 419C886.262 497.015 823.019 560.258 745.004 560.258C666.989 560.258 603.746 497.015 603.746 419Z"></path></mask><g mask="url(#nk-1654)"><path style="fill:var(--color-illustrationPalette060)" d="M674.293 207.897C557.615 239.16 488.315 358.873 519.507 475.283C550.699 591.693 670.571 660.717 787.248 629.454C903.926 598.19 973.226 478.477 942.034 362.067C910.842 245.658 790.97 176.633 674.293 207.897Z"></path><path style="fill:var(--color-illustrationPalette050)" fill-rule="evenodd" clip-rule="evenodd" d="M982.576 370.287C962.727 255.353 898.771 228.704 897.298 227.916C854.255 204.883 760.218 162.258 693.971 186.046C627.724 209.833 561.36 351.458 630.859 419.754C693.661 481.47 682.882 550.803 727.157 575.911C771.432 601.02 834.505 602.96 894.5 573.988C954.496 545.016 1002.43 485.221 982.576 370.287Z"></path><path style="fill:var(--color-illustrationPalette050)" fill-rule="evenodd" clip-rule="evenodd" d="M897.336 228.54C897.183 228.469 897.084 228.422 897.039 228.399C875.536 216.892 841.305 200.497 804.186 189.95C767.052 179.399 727.117 174.726 694.156 186.561C677.72 192.463 661.227 205.696 646.813 223.34C632.403 240.978 620.1 262.988 612.028 286.388C595.875 333.215 596.712 385.43 631.243 419.363C662.735 450.31 675.774 483.17 686.468 511.366C686.793 512.224 687.116 513.077 687.438 513.925C697.698 541.022 706.162 563.375 727.428 575.435C771.523 600.442 834.403 602.401 894.262 573.495C924.178 559.049 951.058 536.932 967.993 504.122C984.928 471.313 991.945 427.757 982.036 370.38C972.128 313.009 951.219 277.707 932.635 256.659C915.165 236.872 899.732 229.66 897.336 228.54ZM897.593 228.057C902.544 230.371 963.318 258.779 982.576 370.287C1002.43 485.221 954.496 545.016 894.5 573.988C834.505 602.96 771.432 601.02 727.157 575.911C705.717 563.752 697.187 541.222 686.959 514.208C676.067 485.439 663.249 451.583 630.859 419.754C561.36 351.458 627.724 209.833 693.971 186.046C760.218 162.258 854.255 204.883 897.298 227.916C897.342 227.939 897.441 227.986 897.593 228.057Z"></path><path style="fill:var(--color-illustrationPalette040)" fill-rule="evenodd" clip-rule="evenodd" d="M966.066 261.82C1016.48 333.141 996.552 381.189 996.185 382.388C985.479 417.421 971.146 465.88 923.235 488.471C875.325 511.062 797.742 488.972 796.114 488.385C763.892 476.764 764.062 422.953 744.416 388.937C723.308 352.389 706.772 320.855 717.034 284.07C727.295 247.285 775.395 221.438 811.062 200.852C845.837 180.781 915.653 190.499 966.066 261.82Z"></path><path style="fill:var(--color-illustrationPalette040)" fill-rule="evenodd" clip-rule="evenodd" d="M995.745 381.996C995.701 382.115 995.673 382.192 995.662 382.228L995.316 383.362C984.634 418.33 970.151 465.744 923.002 487.976C899.189 499.204 867.943 499.345 842.378 496.575C816.823 493.807 797.064 488.146 796.299 487.87C780.459 482.157 772.512 466.052 766.068 446.885C764.461 442.105 762.951 437.148 761.435 432.129C761.298 431.674 761.16 431.219 761.023 430.763C759.643 426.192 758.251 421.58 756.771 417.023C753.517 407.002 749.83 397.217 744.89 388.663C723.767 352.088 707.37 320.751 717.561 284.217C722.643 265.999 737.117 250.432 754.854 236.821C770.657 224.694 788.98 214.171 805.414 204.732C807.419 203.581 809.395 202.446 811.336 201.326C845.794 181.438 915.316 190.971 965.619 262.136C990.769 297.717 998.354 327.462 999.622 348.433C1000.81 368.145 996.427 380.131 995.745 381.996ZM996.268 382.157C997.677 378.305 1014.98 331.016 966.066 261.82C915.653 190.499 845.837 180.781 811.062 200.852C809.122 201.971 807.146 203.106 805.142 204.258C770.276 224.281 726.737 249.286 717.034 284.07C706.772 320.855 723.308 352.389 744.416 388.937C751.56 401.308 756.084 416.296 760.499 430.922C768.222 456.512 775.61 480.99 796.114 488.385C797.742 488.972 875.325 511.062 923.235 488.471C970.605 466.135 985.152 418.512 995.822 383.58C995.943 383.181 996.065 382.784 996.185 382.388C996.196 382.353 996.225 382.275 996.268 382.157Z"></path><path style="fill:var(--color-illustrationPalette030)" fill-rule="evenodd" clip-rule="evenodd" d="M953.502 262.845C982.433 303.773 970.997 331.346 970.787 332.034C964.643 352.138 956.417 379.947 928.923 392.911C901.429 405.875 856.907 393.199 855.973 392.862C837.482 386.193 837.579 355.313 826.305 335.792C814.193 314.819 804.703 296.723 810.592 275.613C816.48 254.504 844.083 239.671 864.551 227.857C884.507 216.339 924.572 221.916 953.502 262.845Z"></path><path style="fill:var(--color-illustrationPalette030)" fill-rule="evenodd" clip-rule="evenodd" d="M970.311 331.741C970.286 331.809 970.269 331.854 970.263 331.874L970.072 332.5C963.937 352.583 955.653 379.702 928.69 392.416C915.085 398.831 897.208 398.918 882.547 397.33C875.229 396.537 868.736 395.33 864.016 394.3C861.656 393.785 859.74 393.314 858.386 392.962C857.709 392.787 857.173 392.64 856.792 392.533C856.602 392.48 856.452 392.436 856.342 392.404C856.288 392.387 856.244 392.374 856.212 392.364L856.173 392.352C856.163 392.348 856.158 392.347 856.158 392.347C847.184 389.11 842.651 379.976 838.952 368.972C838.031 366.233 837.165 363.391 836.295 360.511C836.216 360.25 836.138 359.989 836.059 359.727C835.267 357.105 834.467 354.455 833.618 351.838C831.749 346.082 829.627 340.449 826.779 335.518C814.651 314.518 805.301 296.618 811.119 275.76C814.015 265.38 822.271 256.485 832.437 248.684C841.493 241.735 851.994 235.704 861.426 230.286C862.577 229.626 863.711 228.974 864.825 228.331C884.464 216.996 924.235 222.388 953.055 263.161C967.464 283.546 971.801 300.574 972.526 312.563C973.207 323.829 970.702 330.672 970.311 331.741ZM970.834 331.902C971.643 329.691 981.57 302.553 953.502 262.845C924.572 221.916 884.507 216.339 864.551 227.857C863.438 228.5 862.304 229.151 861.154 229.812C841.145 241.302 816.16 255.652 810.592 275.613C804.703 296.723 814.193 314.819 826.305 335.792C830.405 342.891 833.001 351.493 835.535 359.886C839.967 374.571 844.207 388.618 855.973 392.862C856.907 393.199 901.429 405.875 928.923 392.911C956.107 380.093 964.455 352.764 970.578 332.718C970.648 332.489 970.717 332.261 970.787 332.034C970.793 332.014 970.809 331.97 970.834 331.902Z"></path></g></g><defs><filter id="nk-1655" x="594.986" y="273.362" width="300.036" height="300.036" filterUnits="userSpaceOnUse" color-interpolation-filters="sRGB"><feFlood flood-opacity="0" result="BackgroundImageFix"></feFlood><feColorMatrix in="SourceAlpha" type="matrix" values="0 0 0 0 0 0 0 0 0 0 0 0 0 0 0 0 0 0 127 0" result="hardAlpha"></feColorMatrix><feOffset dy="4.38009"></feOffset><feGaussianBlur stdDeviation="4.38009"></feGaussianBlur><feColorMatrix type="matrix" values="0 0 0 0 0.0392157 0 0 0 0 0.0392157 0 0 0 0 0.0392157 0 0 0 0.08 0"></feColorMatrix><feBlend mode="normal" in2="BackgroundImageFix" result="effect1_dropShadow_1437_29044"></feBlend><feBlend mode="normal" in="SourceGraphic" in2="effect1_dropShadow_1437_29044" result="shape"></feBlend></filter></defs></svg>