<svg id="theme-iconography-do-01" style="width: 100%; height: 100%" width="1344" height="759" viewBox="0 0 1344 759" fill="none" xmlns="http://www.w3.org/2000/svg" class="css-0"><rect style="fill:var(--color-illustrationBackground020)" width="1344" height="759"></rect><circle style="fill:var(--color-illustrationPalette010)" opacity="0.5" cx="518" cy="380" r="213" stroke="#5E44E4" stroke-width="2"></circle><g opacity="0.34"><rect style="fill:var(--color-transparent)" x="304" y="166" width="428" height="428"></rect><rect x="278" y="140" width="480" height="480" stroke="#0A0A0A" stroke-opacity="0.3" stroke-width="52"></rect></g><rect style="fill:var(--color-transparent)" opacity="0.34" x="303" y="165" width="430" height="430" stroke="#7264EF" stroke-width="2"></rect><rect style="fill:var(--color-transparent)" x="304" y="166" width="428" height="428"></rect><rect style="fill:var(--color-transparent)" x="251" y="113" width="534" height="534" stroke="#7264EF" stroke-width="2"></rect><rect style="fill:var(--color-illustrationPalette010)" opacity="0.5" x="347" y="209" width="342" height="342" stroke="#5E44E4" stroke-width="2"></rect><rect style="fill:var(--color-illustrationPalette010)" opacity="0.5" x="305" y="255" width="426" height="250" stroke="#5E44E4" stroke-width="2"></rect><rect style="fill:var(--color-illustrationPalette010)" opacity="0.5" x="390" y="167" width="256" height="426" stroke="#5E44E4" stroke-width="2"></rect><path d="M821 167H841.5C845.918 167 849.5 170.582 849.5 175V582C849.5 586.418 845.918 590 841.5 590H827" stroke="#7264EF" stroke-width="2"></path><path d="M850 380H874" stroke="#5E44E4" stroke-width="2"></path><path style="fill:var(--color-illustrationAnatomyBorder020)" d="M923.06 395.62C928.14 391.54 932.12 388.2 935 385.6C937.88 382.96 940.3 380.22 942.26 377.38C944.26 374.5 945.26 371.68 945.26 368.92C945.26 366.32 944.62 364.28 943.34 362.8C942.1 361.28 940.08 360.52 937.28 360.52C934.56 360.52 932.44 361.38 930.92 363.1C929.44 364.78 928.64 367.04 928.52 369.88H923.24C923.4 365.4 924.76 361.94 927.32 359.5C929.88 357.06 933.18 355.84 937.22 355.84C941.34 355.84 944.6 356.98 947 359.26C949.44 361.54 950.66 364.68 950.66 368.68C950.66 372 949.66 375.24 947.66 378.4C945.7 381.52 943.46 384.28 940.94 386.68C938.42 389.04 935.2 391.8 931.28 394.96H951.92V399.52H923.06V395.62ZM958.232 377.86C958.232 370.98 959.352 365.62 961.592 361.78C963.832 357.9 967.752 355.96 973.352 355.96C978.912 355.96 982.812 357.9 985.052 361.78C987.292 365.62 988.412 370.98 988.412 377.86C988.412 384.86 987.292 390.3 985.052 394.18C982.812 398.06 978.912 400 973.352 400C967.752 400 963.832 398.06 961.592 394.18C959.352 390.3 958.232 384.86 958.232 377.86ZM983.012 377.86C983.012 374.38 982.772 371.44 982.292 369.04C981.852 366.6 980.912 364.64 979.472 363.16C978.072 361.68 976.032 360.94 973.352 360.94C970.632 360.94 968.552 361.68 967.112 363.16C965.712 364.64 964.772 366.6 964.292 369.04C963.852 371.44 963.632 374.38 963.632 377.86C963.632 381.46 963.852 384.48 964.292 386.92C964.772 389.36 965.712 391.32 967.112 392.8C968.552 394.28 970.632 395.02 973.352 395.02C976.032 395.02 978.072 394.28 979.472 392.8C980.912 391.32 981.852 389.36 982.292 386.92C982.772 384.48 983.012 381.46 983.012 377.86ZM1029.96 400L1022.16 387.76L1014.66 400H1008.96L1019.58 383.68L1008.96 367.12H1015.14L1022.94 379.3L1030.38 367.12H1036.08L1025.52 383.38L1036.14 400H1029.96ZM1055.95 395.62C1061.03 391.54 1065.01 388.2 1067.89 385.6C1070.77 382.96 1073.19 380.22 1075.15 377.38C1077.15 374.5 1078.15 371.68 1078.15 368.92C1078.15 366.32 1077.51 364.28 1076.23 362.8C1074.99 361.28 1072.97 360.52 1070.17 360.52C1067.45 360.52 1065.33 361.38 1063.81 363.1C1062.33 364.78 1061.53 367.04 1061.41 369.88H1056.13C1056.29 365.4 1057.65 361.94 1060.21 359.5C1062.77 357.06 1066.07 355.84 1070.11 355.84C1074.23 355.84 1077.49 356.98 1079.89 359.26C1082.33 361.54 1083.55 364.68 1083.55 368.68C1083.55 372 1082.55 375.24 1080.55 378.4C1078.59 381.52 1076.35 384.28 1073.83 386.68C1071.31 389.04 1068.09 391.8 1064.17 394.96H1084.81V399.52H1055.95V395.62ZM1091.12 377.86C1091.12 370.98 1092.24 365.62 1094.48 361.78C1096.72 357.9 1100.64 355.96 1106.24 355.96C1111.8 355.96 1115.7 357.9 1117.94 361.78C1120.18 365.62 1121.3 370.98 1121.3 377.86C1121.3 384.86 1120.18 390.3 1117.94 394.18C1115.7 398.06 1111.8 400 1106.24 400C1100.64 400 1096.72 398.06 1094.48 394.18C1092.24 390.3 1091.12 384.86 1091.12 377.86ZM1115.9 377.86C1115.9 374.38 1115.66 371.44 1115.18 369.04C1114.74 366.6 1113.8 364.64 1112.36 363.16C1110.96 361.68 1108.92 360.94 1106.24 360.94C1103.52 360.94 1101.44 361.68 1100 363.16C1098.6 364.64 1097.66 366.6 1097.18 369.04C1096.74 371.44 1096.52 374.38 1096.52 377.86C1096.52 381.46 1096.74 384.48 1097.18 386.92C1097.66 389.36 1098.6 391.32 1100 392.8C1101.44 394.28 1103.52 395.02 1106.24 395.02C1108.92 395.02 1110.96 394.28 1112.36 392.8C1113.8 391.32 1114.74 389.36 1115.18 386.92C1115.66 384.48 1115.9 381.46 1115.9 377.86ZM1135.16 373.18C1136.24 371.3 1137.84 369.74 1139.96 368.5C1142.12 367.22 1144.62 366.58 1147.46 366.58C1150.38 366.58 1153.02 367.28 1155.38 368.68C1157.78 370.08 1159.66 372.06 1161.02 374.62C1162.38 377.14 1163.06 380.08 1163.06 383.44C1163.06 386.76 1162.38 389.72 1161.02 392.32C1159.66 394.92 1157.78 396.94 1155.38 398.38C1153.02 399.82 1150.38 400.54 1147.46 400.54C1144.66 400.54 1142.18 399.92 1140.02 398.68C1137.9 397.4 1136.28 395.82 1135.16 393.94V415.6H1129.7V367.12H1135.16V373.18ZM1157.48 383.44C1157.48 380.96 1156.98 378.8 1155.98 376.96C1154.98 375.12 1153.62 373.72 1151.9 372.76C1150.22 371.8 1148.36 371.32 1146.32 371.32C1144.32 371.32 1142.46 371.82 1140.74 372.82C1139.06 373.78 1137.7 375.2 1136.66 377.08C1135.66 378.92 1135.16 381.06 1135.16 383.5C1135.16 385.98 1135.66 388.16 1136.66 390.04C1137.7 391.88 1139.06 393.3 1140.74 394.3C1142.46 395.26 1144.32 395.74 1146.32 395.74C1148.36 395.74 1150.22 395.26 1151.9 394.3C1153.62 393.3 1154.98 391.88 1155.98 390.04C1156.98 388.16 1157.48 385.96 1157.48 383.44ZM1187.41 400L1179.61 387.76L1172.11 400H1166.41L1177.03 383.68L1166.41 367.12H1172.59L1180.39 379.3L1187.83 367.12H1193.53L1182.97 383.38L1193.59 400H1187.41Z"></path></svg>