<svg
  id="nksvg"
  style="width: 100%; height: 100%"
  width="1344"
  height="759"
  viewBox="0 0 1344 759"
  fill="none"
  xmlns="http://www.w3.org/2000/svg"
  class="css-0"
>
  <rect
    style="fill: var(--color-illustrationBackground020)"
    width="1344"
    height="759"
  ></rect>
  <path
    style="fill: var(--color-illustrationPalette040)"
    d="M298.007 416.907L279.182 383.86H271.114V416.907H254V332.103H286.027C292.628 332.103 298.251 333.277 302.897 335.626C307.542 337.894 311.005 341.012 313.287 344.981C315.651 348.869 316.832 353.243 316.832 358.103C316.832 363.692 315.202 368.754 311.943 373.29C308.683 377.745 303.834 380.822 297.396 382.523L317.81 416.907H298.007ZM271.114 371.103H285.416C290.061 371.103 293.525 370.009 295.807 367.822C298.088 365.555 299.229 362.436 299.229 358.467C299.229 354.579 298.088 351.583 295.807 349.477C293.525 347.29 290.061 346.196 285.416 346.196H271.114V371.103Z"
  ></path>
  <path
    style="fill: var(--color-illustrationPalette040)"
    d="M395.265 381.794C395.265 384.224 395.102 386.411 394.777 388.355H345.269C345.676 393.215 347.388 397.022 350.403 399.776C353.418 402.53 357.126 403.907 361.527 403.907C367.883 403.907 372.406 401.193 375.096 395.766H393.554C391.598 402.246 387.85 407.592 382.308 411.804C376.766 415.935 369.961 418 361.894 418C355.374 418 349.506 416.583 344.291 413.748C339.157 410.832 335.123 406.741 332.189 401.477C329.337 396.212 327.91 390.137 327.91 383.252C327.91 376.287 329.337 370.171 332.189 364.907C335.041 359.642 339.034 355.592 344.168 352.757C349.303 349.922 355.211 348.505 361.894 348.505C368.332 348.505 374.077 349.882 379.13 352.636C384.264 355.389 388.216 359.318 390.987 364.421C393.839 369.442 395.265 375.234 395.265 381.794ZM377.54 376.935C377.459 372.561 375.87 369.078 372.773 366.486C369.676 363.813 365.887 362.477 361.405 362.477C357.167 362.477 353.581 363.773 350.647 366.364C347.795 368.875 346.043 372.399 345.391 376.935H377.54Z"
  ></path>
  <path
    style="fill: var(--color-illustrationPalette040)"
    d="M403.356 383.009C403.356 376.206 404.701 370.171 407.39 364.907C410.161 359.642 413.869 355.592 418.514 352.757C423.241 349.922 428.497 348.505 434.283 348.505C439.336 348.505 443.737 349.517 447.486 351.542C451.316 353.567 454.372 356.118 456.654 359.196V349.598H473.89V416.907H456.654V407.065C454.453 410.224 451.397 412.857 447.486 414.963C443.655 416.988 439.214 418 434.161 418C428.457 418 423.241 416.542 418.514 413.626C413.869 410.71 410.161 406.62 407.39 401.355C404.701 396.009 403.356 389.894 403.356 383.009ZM456.654 383.252C456.654 379.121 455.839 375.598 454.209 372.682C452.579 369.685 450.379 367.417 447.608 365.879C444.837 364.259 441.862 363.449 438.684 363.449C435.506 363.449 432.572 364.218 429.883 365.757C427.193 367.296 424.993 369.564 423.282 372.561C421.652 375.477 420.837 378.959 420.837 383.009C420.837 387.059 421.652 390.623 423.282 393.701C424.993 396.698 427.193 399.006 429.883 400.626C432.654 402.246 435.587 403.056 438.684 403.056C441.862 403.056 444.837 402.287 447.608 400.748C450.379 399.128 452.579 396.86 454.209 393.944C455.839 390.947 456.654 387.383 456.654 383.252Z"
  ></path>
  <path
    style="fill: var(--color-illustrationPalette040)"
    d="M486.204 383.009C486.204 376.206 487.548 370.171 490.238 364.907C493.008 359.642 496.757 355.592 501.484 352.757C506.211 349.922 511.467 348.505 517.253 348.505C521.654 348.505 525.851 349.477 529.844 351.421C533.837 353.283 537.016 355.794 539.379 358.953V327H556.737V416.907H539.379V406.944C537.26 410.265 534.285 412.938 530.455 414.963C526.625 416.988 522.184 418 517.131 418C511.426 418 506.211 416.542 501.484 413.626C496.757 410.71 493.008 406.62 490.238 401.355C487.548 396.009 486.204 389.894 486.204 383.009ZM539.501 383.252C539.501 379.121 538.686 375.598 537.056 372.682C535.426 369.685 533.226 367.417 530.455 365.879C527.684 364.259 524.71 363.449 521.532 363.449C518.353 363.449 515.419 364.218 512.73 365.757C510.041 367.296 507.84 369.564 506.129 372.561C504.499 375.477 503.684 378.959 503.684 383.009C503.684 387.059 504.499 390.623 506.129 393.701C507.84 396.698 510.041 399.006 512.73 400.626C515.501 402.246 518.435 403.056 521.532 403.056C524.71 403.056 527.684 402.287 530.455 400.748C533.226 399.128 535.426 396.86 537.056 393.944C538.686 390.947 539.501 387.383 539.501 383.252Z"
  ></path>
  <path
    style="fill: var(--color-illustrationPalette040)"
    d="M686.682 348.626C694.994 348.626 701.677 351.178 706.73 356.28C711.864 361.302 714.431 368.349 714.431 377.421V416.907H697.317V379.729C697.317 374.464 695.972 370.455 693.283 367.701C690.594 364.866 686.926 363.449 682.281 363.449C677.636 363.449 673.928 364.866 671.157 367.701C668.468 370.455 667.123 374.464 667.123 379.729V416.907H650.009V379.729C650.009 374.464 648.665 370.455 645.975 367.701C643.286 364.866 639.619 363.449 634.974 363.449C630.247 363.449 626.498 364.866 623.727 367.701C621.038 370.455 619.693 374.464 619.693 379.729V416.907H602.58V349.598H619.693V357.738C621.894 354.903 624.705 352.676 628.128 351.056C631.632 349.436 635.463 348.626 639.619 348.626C644.916 348.626 649.643 349.76 653.799 352.028C657.955 354.215 661.174 357.374 663.456 361.505C665.656 357.617 668.835 354.498 672.991 352.15C677.229 349.801 681.792 348.626 686.682 348.626Z"
  ></path>
  <path
    style="fill: var(--color-illustrationPalette040)"
    d="M760.742 418C754.223 418 748.355 416.583 743.139 413.748C737.924 410.832 733.808 406.741 730.793 401.477C727.859 396.212 726.392 390.137 726.392 383.252C726.392 376.368 727.9 370.293 730.915 365.028C734.012 359.763 738.209 355.713 743.506 352.879C748.803 349.963 754.712 348.505 761.231 348.505C767.751 348.505 773.659 349.963 778.956 352.879C784.253 355.713 788.41 359.763 791.425 365.028C794.522 370.293 796.07 376.368 796.07 383.252C796.07 390.137 794.481 396.212 791.303 401.477C788.206 406.741 783.968 410.832 778.589 413.748C773.292 416.583 767.343 418 760.742 418ZM760.742 403.178C763.839 403.178 766.732 402.449 769.421 400.991C772.192 399.452 774.392 397.184 776.022 394.187C777.652 391.19 778.467 387.545 778.467 383.252C778.467 376.854 776.756 371.953 773.333 368.551C769.992 365.069 765.876 363.327 760.987 363.327C756.097 363.327 751.982 365.069 748.64 368.551C745.38 371.953 743.751 376.854 743.751 383.252C743.751 389.651 745.34 394.592 748.518 398.075C751.778 401.477 755.853 403.178 760.742 403.178Z"
  ></path>
  <path
    style="fill: var(--color-illustrationPalette040)"
    d="M825.737 360.047C827.938 356.483 830.79 353.688 834.294 351.664C837.88 349.639 841.955 348.626 846.519 348.626V366.486H841.996C836.617 366.486 832.542 367.741 829.771 370.252C827.082 372.763 825.737 377.137 825.737 383.374V416.907H808.624V349.598H825.737V360.047Z"
  ></path>
  <path
    style="fill: var(--color-illustrationPalette040)"
    d="M921 381.794C921 384.224 920.837 386.411 920.511 388.355H871.003C871.411 393.215 873.122 397.022 876.137 399.776C879.153 402.53 882.861 403.907 887.261 403.907C893.618 403.907 898.141 401.193 900.83 395.766H919.289C917.333 402.246 913.584 407.592 908.042 411.804C902.501 415.935 895.696 418 887.628 418C881.109 418 875.241 416.583 870.025 413.748C864.891 410.832 860.857 406.741 857.923 401.477C855.071 396.212 853.645 390.137 853.645 383.252C853.645 376.287 855.071 370.171 857.923 364.907C860.776 359.642 864.769 355.592 869.903 352.757C875.037 349.922 880.945 348.505 887.628 348.505C894.066 348.505 899.811 349.882 904.864 352.636C909.998 355.389 913.951 359.318 916.721 364.421C919.574 369.442 921 375.234 921 381.794ZM903.275 376.935C903.193 372.561 901.604 369.078 898.508 366.486C895.411 363.813 891.621 362.477 887.139 362.477C882.901 362.477 879.316 363.773 876.382 366.364C873.529 368.875 871.777 372.399 871.125 376.935H903.275Z"
  ></path>
  <path
    style="fill: var(--color-illustrationPalette040)"
    d="M1019.58 295.999L1001.31 314.329L1060.66 373.999L1001.31 433.669L1019.58 451.999L1097.33 373.999L1019.58 295.999Z"
  ></path>
</svg>
