<svg id="theme-iconography-hero" style="width: 100%; height: 100%" width="1344" height="759" viewBox="0 0 1344 759" fill="none" xmlns="http://www.w3.org/2000/svg" class="css-0"><rect style="fill:var(--color-illustrationBackground020)" width="1344" height="759"></rect><g opacity="0.5"><path style="fill:var(--color-illustrationShadow010)" fill-rule="evenodd" clip-rule="evenodd" d="M890.938 168.139L924 135.078L921.922 133L889.469 165.453V135.078L886.53 135.078V168.139H885.453C869.217 151.804 846.728 141.69 821.877 141.69H524.326C499.511 141.69 477.051 151.775 460.821 168.069L460.408 167.657V135.078L457.469 135.078V164.718L425.751 133L423.673 135.078L456.735 168.139H420V171.078H457.469V171.621C443.305 187.473 434.694 208.392 434.694 231.323V528.874C434.694 551.804 443.305 572.724 457.469 588.575V592.792H430.286V595.731H457.469V597.452L431.881 623.04L433.959 625.118L457.469 601.608V625.853H460.408V598.67L463.347 595.731H464.625C480.476 609.895 501.396 618.506 524.326 618.506H821.877C844.808 618.506 865.727 609.895 881.579 595.731H884.326L886.53 597.935V625.853H889.469V600.874L913.714 625.118L915.792 623.04L889.469 596.718V595.731H913.714V592.792H889.469V587.743C903.196 571.995 911.51 551.405 911.51 528.874V231.323C911.51 208.791 903.196 188.202 889.469 172.454V171.078H923.999V168.139H890.938ZM821.877 144.629C844.845 144.629 865.726 153.56 881.238 168.139H767.51V144.629H821.877ZM674.204 144.629H764.571V168.139H674.204V144.629ZM583.102 144.629H671.265V168.139H583.102V144.629ZM524.326 144.629H580.163V168.139H464.966C480.478 153.56 501.359 144.629 524.326 144.629ZM460.86 172.265C460.709 172.427 460.558 172.59 460.408 172.754L460.408 290.833H478.961C489.557 268.956 503.736 249.138 520.734 232.139L460.86 172.265ZM460.408 293.772H477.564C469.489 311.108 463.647 329.693 460.408 349.16L460.408 293.772ZM480.812 293.772C468.319 320.146 461.081 349.494 460.453 380.466H539.826C540.91 347.004 554.289 316.649 575.591 293.772H480.812ZM578.919 290.324C578.75 290.493 578.581 290.663 578.412 290.833H482.232C492.614 269.76 506.377 250.652 522.812 234.217L578.919 290.324ZM579.647 293.772C557.728 316.341 543.882 346.792 542.767 380.466H579.53C579.645 377.971 579.857 375.502 580.163 373.062L580.163 293.772H579.647ZM539.763 383.404H460.413C460.41 383.894 460.408 384.384 460.408 384.874C460.408 417.469 467.727 448.354 480.812 475.976H575.591C553.357 452.098 539.755 420.074 539.755 384.874C539.755 384.383 539.758 383.894 539.763 383.404ZM579.302 475.62C556.634 452.103 542.694 420.116 542.694 384.874C542.694 384.383 542.696 383.894 542.702 383.404H579.44C579.432 383.893 579.428 384.383 579.428 384.874C579.428 388.874 579.678 392.817 580.163 396.686V474.759L579.302 475.62ZM579.287 479.791C579.578 480.079 579.87 480.366 580.163 480.652V576.471C558.957 566.125 539.724 552.361 523.18 535.898L579.287 479.791ZM583.102 483.431C606.397 504.801 637.291 518.021 671.265 518.57V592.792H626.729C611.507 589.385 596.901 584.349 583.102 577.877V483.431ZM671.265 515.631C637.082 515.066 606.09 501.386 583.102 479.404V478.915H671.265V515.631ZM674.204 518.586V592.792H720.209C735.701 589.324 750.556 584.17 764.571 577.531V482.752C740.86 504.831 709.115 518.398 674.204 518.586ZM764.346 478.915C740.98 501.499 709.221 515.455 674.204 515.647V478.915H764.346ZM767.51 479.931C767.68 479.762 767.85 479.593 768.019 479.424L824.126 535.531C807.691 551.966 788.583 565.729 767.51 576.111V479.931ZM771.347 475.976C793.581 452.098 807.183 420.074 807.183 384.874C807.183 384.383 807.181 383.894 807.175 383.404H886.525C886.528 383.894 886.53 384.384 886.53 384.874C886.53 417.469 879.211 448.354 866.126 475.976H771.347ZM804.236 383.404C804.242 383.894 804.245 384.383 804.245 384.874C804.245 419.929 790.451 451.763 767.996 475.245L767.51 474.759L767.51 384.874L767.51 383.404H804.236ZM807.112 380.466H886.485C885.857 349.494 878.62 320.146 866.126 293.772H771.347C792.65 316.649 806.028 347.004 807.112 380.466ZM767.51 293.997C789.302 316.543 803.06 346.903 804.172 380.466H767.51V293.997ZM768.526 290.833C768.479 290.786 768.433 290.739 768.386 290.692L824.493 234.585C840.766 250.937 854.401 269.917 864.706 290.833H768.526ZM764.571 286.996C740.86 264.916 709.115 251.349 674.204 251.162L674.204 171.814C706.528 171.923 737.157 179.23 764.571 192.217L764.571 286.996ZM674.204 254.1C709.156 254.293 740.862 268.197 764.215 290.707L764.089 290.833H674.204V254.1ZM671.265 254.117V290.833H583.584L583.102 290.351V290.343C606.09 268.362 637.082 254.682 671.265 254.117ZM671.265 251.177C637.291 251.727 606.397 264.946 583.102 286.317V191.87C609.912 179.296 639.77 172.143 671.265 171.824L671.265 251.177ZM460.408 475.976L460.408 420.588C463.647 440.054 469.489 458.64 477.564 475.976H460.408ZM460.408 478.915H478.961C489.202 500.058 502.788 519.278 519.033 535.889L463.891 591.03C462.696 589.868 461.535 588.672 460.408 587.443L460.408 478.915ZM482.232 478.915C492.254 499.256 505.426 517.767 521.111 533.81L576.007 478.915H482.232ZM466.286 592.792L521.102 537.976C538.209 555.001 558.153 569.178 580.163 579.737V592.792H466.286ZM583.102 592.792V581.119C593.246 585.798 603.815 589.713 614.734 592.792H583.102ZM583.102 595.731H626.402C640.864 598.945 655.872 600.709 671.265 600.863V615.567H583.102V595.731ZM642.709 595.731C652.046 597.081 661.578 597.825 671.265 597.924V595.731H642.709ZM674.204 615.567V600.872C690.112 600.819 705.614 599.047 720.536 595.731H764.571V615.567H674.204ZM674.204 597.934C684.397 597.899 694.421 597.149 704.229 595.731H674.204V597.934ZM764.571 592.792H732.204C743.388 589.639 754.203 585.608 764.571 580.778V592.792ZM767.51 592.792V579.382C789.387 568.786 809.205 554.607 826.204 537.609L880.935 592.34C880.773 592.491 880.61 592.642 880.446 592.792H767.51ZM883.053 590.301L828.268 535.517C844.352 518.991 857.813 499.9 867.978 478.915H886.53V586.631C885.407 587.888 884.247 589.112 883.053 590.301ZM826.19 533.438C841.715 517.481 854.762 499.099 864.706 478.915H771.666L826.19 533.438ZM886.53 475.976H869.374C877.449 458.64 883.291 440.054 886.53 420.588V475.976ZM869.374 293.772C877.449 311.108 883.291 329.693 886.53 349.159V293.772H869.374ZM886.53 290.833H867.978C857.458 269.114 843.407 249.423 826.571 232.507L886.048 173.03C886.209 173.208 886.37 173.386 886.53 173.565L886.53 290.833ZM883.844 171.078L824.484 230.438C807.873 214.193 788.653 200.606 767.51 190.365V171.078H883.844ZM822.406 232.516C806.362 216.831 787.852 203.659 767.51 193.637V287.412L822.406 232.516ZM764.571 171.078V188.969C745.833 180.241 725.634 174.121 704.442 171.078H764.571ZM583.102 171.078H642.496C621.58 174.081 601.633 180.081 583.102 188.629V171.078ZM580.163 171.078V190.011C558.889 200.216 539.544 213.803 522.826 230.075L463.829 171.078H580.163ZM580.163 193.276C559.69 203.265 541.055 216.439 524.904 232.153L580.163 287.412V193.276ZM889.469 475.976V384.874V383.404H908.571V475.976H889.469ZM437.633 231.323C437.633 210.353 445.078 191.122 457.469 176.129L457.469 290.833H437.633V231.323ZM437.633 380.466V293.772H457.469L457.469 380.466H437.633ZM437.633 475.976V383.404H457.469L457.469 475.976H437.633ZM437.633 528.874V478.915H457.469L457.469 584.067C445.078 569.075 437.633 549.844 437.633 528.874ZM460.408 592.792V591.71C460.766 592.074 461.126 592.434 461.49 592.792H460.408ZM524.326 615.567C503.356 615.567 484.125 608.122 469.133 595.731H580.163V615.567H524.326ZM821.877 615.567H767.51V595.731H877.071C862.078 608.122 842.847 615.567 821.877 615.567ZM885.543 592.792L885.131 592.379C885.602 591.91 886.069 591.435 886.53 590.954V592.792H885.543ZM908.571 528.874C908.571 549.426 901.419 568.308 889.469 583.166V478.915H908.571V528.874ZM908.571 293.772V380.466H889.469V293.772H908.571ZM908.571 231.323V290.833H889.469L889.469 177.03C901.419 191.889 908.571 210.771 908.571 231.323ZM736.155 318.767L674.456 380.466H674.204V293.775C698.201 293.964 719.988 303.432 736.155 318.767ZM738.233 316.688C726.802 305.827 712.641 297.81 696.886 293.772H761.15L738.233 316.688ZM740.332 318.745L764.571 294.507V361.457C760.371 345.069 751.866 330.406 740.332 318.745ZM738.254 320.823C753.562 336.306 763.36 357.247 764.466 380.466H678.612L738.254 320.823ZM764.559 383.404H676.156L739.933 447.181C755.213 430.888 764.571 408.974 764.571 384.874C764.571 384.383 764.567 383.893 764.559 383.404ZM764.571 408.291C760.578 423.873 752.692 437.895 742.012 449.26L764.571 471.82V408.291ZM739.966 451.371L764.571 475.976H696.886C713.447 471.732 728.246 463.091 739.966 451.371ZM737.888 449.293C721.562 465.618 699.069 475.776 674.204 475.973V385.609L737.888 449.293ZM671.265 475.95V387.813L609.419 449.659C625.389 465.45 647.169 475.377 671.265 475.95ZM650.052 475.976C633.664 471.776 619.002 463.271 607.341 451.737L583.102 475.976H650.052ZM605.284 449.638L583.102 471.82V410.989C587.335 425.663 595.046 438.863 605.284 449.638ZM607.362 447.559C594.383 433.876 585.607 416.167 583.102 396.499V383.404H671.265V383.657L607.362 447.559ZM583.102 373.249V380.466H669.061L609.05 320.455C595.145 334.36 585.714 352.74 583.102 373.249ZM583.102 358.759C587.565 343.288 595.892 329.457 606.972 318.377L583.102 294.507L583.102 358.759ZM609.083 316.331L586.523 293.772H650.052C634.47 297.765 620.448 305.651 609.083 316.331ZM611.162 318.41C626.957 303.597 648.034 294.35 671.265 293.798V378.514L611.162 318.41Z"></path><path style="fill:var(--color-illustrationShadow010)" fill-rule="evenodd" clip-rule="evenodd" d="M890.938 168.139L924 135.078L921.922 133L889.469 165.453V135.078L886.53 135.078V168.139H885.453C869.217 151.804 846.728 141.69 821.877 141.69H524.326C499.511 141.69 477.051 151.775 460.821 168.069L460.408 167.657V135.078L457.469 135.078V164.718L425.751 133L423.673 135.078L456.735 168.139H420V171.078H457.469V171.621C443.305 187.473 434.694 208.392 434.694 231.323V528.874C434.694 551.804 443.305 572.724 457.469 588.575V592.792H430.286V595.731H457.469V597.452L431.881 623.04L433.959 625.118L457.469 601.608V625.853H460.408V598.67L463.347 595.731H464.625C480.476 609.895 501.396 618.506 524.326 618.506H821.877C844.808 618.506 865.727 609.895 881.579 595.731H884.326L886.53 597.935V625.853H889.469V600.874L913.714 625.118L915.792 623.04L889.469 596.718V595.731H913.714V592.792H889.469V587.743C903.196 571.995 911.51 551.405 911.51 528.874V231.323C911.51 208.791 903.196 188.202 889.469 172.454V171.078H923.999V168.139H890.938ZM821.877 144.629C844.845 144.629 865.726 153.56 881.238 168.139H767.51V144.629H821.877ZM674.204 144.629H764.571V168.139H674.204V144.629ZM583.102 144.629H671.265V168.139H583.102V144.629ZM524.326 144.629H580.163V168.139H464.966C480.478 153.56 501.359 144.629 524.326 144.629ZM460.86 172.265C460.709 172.427 460.558 172.59 460.408 172.754L460.408 290.833H478.961C489.557 268.956 503.736 249.138 520.734 232.139L460.86 172.265ZM460.408 293.772H477.564C469.489 311.108 463.647 329.693 460.408 349.16L460.408 293.772ZM480.812 293.772C468.319 320.146 461.081 349.494 460.453 380.466H539.826C540.91 347.004 554.289 316.649 575.591 293.772H480.812ZM578.919 290.324C578.75 290.493 578.581 290.663 578.412 290.833H482.232C492.614 269.76 506.377 250.652 522.812 234.217L578.919 290.324ZM579.647 293.772C557.728 316.341 543.882 346.792 542.767 380.466H579.53C579.645 377.971 579.857 375.502 580.163 373.062L580.163 293.772H579.647ZM539.763 383.404H460.413C460.41 383.894 460.408 384.384 460.408 384.874C460.408 417.469 467.727 448.354 480.812 475.976H575.591C553.357 452.098 539.755 420.074 539.755 384.874C539.755 384.383 539.758 383.894 539.763 383.404ZM579.302 475.62C556.634 452.103 542.694 420.116 542.694 384.874C542.694 384.383 542.696 383.894 542.702 383.404H579.44C579.432 383.893 579.428 384.383 579.428 384.874C579.428 388.874 579.678 392.817 580.163 396.686V474.759L579.302 475.62ZM579.287 479.791C579.578 480.079 579.87 480.366 580.163 480.652V576.471C558.957 566.125 539.724 552.361 523.18 535.898L579.287 479.791ZM583.102 483.431C606.397 504.801 637.291 518.021 671.265 518.57V592.792H626.729C611.507 589.385 596.901 584.349 583.102 577.877V483.431ZM671.265 515.631C637.082 515.066 606.09 501.386 583.102 479.404V478.915H671.265V515.631ZM674.204 518.586V592.792H720.209C735.701 589.324 750.556 584.17 764.571 577.531V482.752C740.86 504.831 709.115 518.398 674.204 518.586ZM764.346 478.915C740.98 501.499 709.221 515.455 674.204 515.647V478.915H764.346ZM767.51 479.931C767.68 479.762 767.85 479.593 768.019 479.424L824.126 535.531C807.691 551.966 788.583 565.729 767.51 576.111V479.931ZM771.347 475.976C793.581 452.098 807.183 420.074 807.183 384.874C807.183 384.383 807.181 383.894 807.175 383.404H886.525C886.528 383.894 886.53 384.384 886.53 384.874C886.53 417.469 879.211 448.354 866.126 475.976H771.347ZM804.236 383.404C804.242 383.894 804.245 384.383 804.245 384.874C804.245 419.929 790.451 451.763 767.996 475.245L767.51 474.759L767.51 384.874L767.51 383.404H804.236ZM807.112 380.466H886.485C885.857 349.494 878.62 320.146 866.126 293.772H771.347C792.65 316.649 806.028 347.004 807.112 380.466ZM767.51 293.997C789.302 316.543 803.06 346.903 804.172 380.466H767.51V293.997ZM768.526 290.833C768.479 290.786 768.433 290.739 768.386 290.692L824.493 234.585C840.766 250.937 854.401 269.917 864.706 290.833H768.526ZM764.571 286.996C740.86 264.916 709.115 251.349 674.204 251.162L674.204 171.814C706.528 171.923 737.157 179.23 764.571 192.217L764.571 286.996ZM674.204 254.1C709.156 254.293 740.862 268.197 764.215 290.707L764.089 290.833H674.204V254.1ZM671.265 254.117V290.833H583.584L583.102 290.351V290.343C606.09 268.362 637.082 254.682 671.265 254.117ZM671.265 251.177C637.291 251.727 606.397 264.946 583.102 286.317V191.87C609.912 179.296 639.77 172.143 671.265 171.824L671.265 251.177ZM460.408 475.976L460.408 420.588C463.647 440.054 469.489 458.64 477.564 475.976H460.408ZM460.408 478.915H478.961C489.202 500.058 502.788 519.278 519.033 535.889L463.891 591.03C462.696 589.868 461.535 588.672 460.408 587.443L460.408 478.915ZM482.232 478.915C492.254 499.256 505.426 517.767 521.111 533.81L576.007 478.915H482.232ZM466.286 592.792L521.102 537.976C538.209 555.001 558.153 569.178 580.163 579.737V592.792H466.286ZM583.102 592.792V581.119C593.246 585.798 603.815 589.713 614.734 592.792H583.102ZM583.102 595.731H626.402C640.864 598.945 655.872 600.709 671.265 600.863V615.567H583.102V595.731ZM642.709 595.731C652.046 597.081 661.578 597.825 671.265 597.924V595.731H642.709ZM674.204 615.567V600.872C690.112 600.819 705.614 599.047 720.536 595.731H764.571V615.567H674.204ZM674.204 597.934C684.397 597.899 694.421 597.149 704.229 595.731H674.204V597.934ZM764.571 592.792H732.204C743.388 589.639 754.203 585.608 764.571 580.778V592.792ZM767.51 592.792V579.382C789.387 568.786 809.205 554.607 826.204 537.609L880.935 592.34C880.773 592.491 880.61 592.642 880.446 592.792H767.51ZM883.053 590.301L828.268 535.517C844.352 518.991 857.813 499.9 867.978 478.915H886.53V586.631C885.407 587.888 884.247 589.112 883.053 590.301ZM826.19 533.438C841.715 517.481 854.762 499.099 864.706 478.915H771.666L826.19 533.438ZM886.53 475.976H869.374C877.449 458.64 883.291 440.054 886.53 420.588V475.976ZM869.374 293.772C877.449 311.108 883.291 329.693 886.53 349.159V293.772H869.374ZM886.53 290.833H867.978C857.458 269.114 843.407 249.423 826.571 232.507L886.048 173.03C886.209 173.208 886.37 173.386 886.53 173.565L886.53 290.833ZM883.844 171.078L824.484 230.438C807.873 214.193 788.653 200.606 767.51 190.365V171.078H883.844ZM822.406 232.516C806.362 216.831 787.852 203.659 767.51 193.637V287.412L822.406 232.516ZM764.571 171.078V188.969C745.833 180.241 725.634 174.121 704.442 171.078H764.571ZM583.102 171.078H642.496C621.58 174.081 601.633 180.081 583.102 188.629V171.078ZM580.163 171.078V190.011C558.889 200.216 539.544 213.803 522.826 230.075L463.829 171.078H580.163ZM580.163 193.276C559.69 203.265 541.055 216.439 524.904 232.153L580.163 287.412V193.276ZM889.469 475.976V384.874V383.404H908.571V475.976H889.469ZM437.633 231.323C437.633 210.353 445.078 191.122 457.469 176.129L457.469 290.833H437.633V231.323ZM437.633 380.466V293.772H457.469L457.469 380.466H437.633ZM437.633 475.976V383.404H457.469L457.469 475.976H437.633ZM437.633 528.874V478.915H457.469L457.469 584.067C445.078 569.075 437.633 549.844 437.633 528.874ZM460.408 592.792V591.71C460.766 592.074 461.126 592.434 461.49 592.792H460.408ZM524.326 615.567C503.356 615.567 484.125 608.122 469.133 595.731H580.163V615.567H524.326ZM821.877 615.567H767.51V595.731H877.071C862.078 608.122 842.847 615.567 821.877 615.567ZM885.543 592.792L885.131 592.379C885.602 591.91 886.069 591.435 886.53 590.954V592.792H885.543ZM908.571 528.874C908.571 549.426 901.419 568.308 889.469 583.166V478.915H908.571V528.874ZM908.571 293.772V380.466H889.469V293.772H908.571ZM908.571 231.323V290.833H889.469L889.469 177.03C901.419 191.889 908.571 210.771 908.571 231.323ZM736.155 318.767L674.456 380.466H674.204V293.775C698.201 293.964 719.988 303.432 736.155 318.767ZM738.233 316.688C726.802 305.827 712.641 297.81 696.886 293.772H761.15L738.233 316.688ZM740.332 318.745L764.571 294.507V361.457C760.371 345.069 751.866 330.406 740.332 318.745ZM738.254 320.823C753.562 336.306 763.36 357.247 764.466 380.466H678.612L738.254 320.823ZM764.559 383.404H676.156L739.933 447.181C755.213 430.888 764.571 408.974 764.571 384.874C764.571 384.383 764.567 383.893 764.559 383.404ZM764.571 408.291C760.578 423.873 752.692 437.895 742.012 449.26L764.571 471.82V408.291ZM739.966 451.371L764.571 475.976H696.886C713.447 471.732 728.246 463.091 739.966 451.371ZM737.888 449.293C721.562 465.618 699.069 475.776 674.204 475.973V385.609L737.888 449.293ZM671.265 475.95V387.813L609.419 449.659C625.389 465.45 647.169 475.377 671.265 475.95ZM650.052 475.976C633.664 471.776 619.002 463.271 607.341 451.737L583.102 475.976H650.052ZM605.284 449.638L583.102 471.82V410.989C587.335 425.663 595.046 438.863 605.284 449.638ZM607.362 447.559C594.383 433.876 585.607 416.167 583.102 396.499V383.404H671.265V383.657L607.362 447.559ZM583.102 373.249V380.466H669.061L609.05 320.455C595.145 334.36 585.714 352.74 583.102 373.249ZM583.102 358.759C587.565 343.288 595.892 329.457 606.972 318.377L583.102 294.507L583.102 358.759ZM609.083 316.331L586.523 293.772H650.052C634.47 297.765 620.448 305.651 609.083 316.331ZM611.162 318.41C626.957 303.597 648.034 294.35 671.265 293.798V378.514L611.162 318.41Z"></path></g><path style="fill:var(--color-illustrationPalette020)" fill-rule="evenodd" clip-rule="evenodd" d="M843.167 262.214C863.411 264.701 873.043 286.308 872.9 314.834L873.001 314.754C839.783 341.602 774.366 359.968 710.098 325.041L710.165 324.945C719.637 329.954 729.648 333.818 741.418 335.263C755.837 337.035 767.423 329.106 777.935 317.878L778.684 317.071C778.808 316.935 778.933 316.799 779.057 316.663L779.801 315.84L780.541 315.006L781.279 314.164L782.013 313.312C782.135 313.169 782.257 313.026 782.379 312.883L783.109 312.019L783.837 311.147L784.72 310.075C784.867 309.895 785.014 309.715 785.161 309.535L786.259 308.176L787.352 306.804L788.223 305.699L789.092 304.588L789.959 303.472L791.255 301.791L793.481 298.885L796.165 295.369L797.846 293.179L799.109 291.547L800.372 289.928L801.216 288.858L802.062 287.796L802.909 286.742L803.757 285.699L804.608 284.666L805.291 283.847L805.975 283.037L806.661 282.235L807.349 281.442C807.463 281.31 807.578 281.179 807.693 281.049L808.384 280.269C808.499 280.14 808.615 280.012 808.73 279.883L809.424 279.119C809.772 278.739 810.12 278.364 810.47 277.992L811.17 277.255C811.521 276.89 811.873 276.528 812.226 276.172L812.933 275.465C821.91 266.588 831.61 260.794 843.167 262.214Z"></path><path style="fill:var(--color-illustrationPalette060)" fill-rule="evenodd" clip-rule="evenodd" d="M631.173 430.949C631.173 430.949 631.173 430.949 631.242 431.026C622.699 426.991 613.82 423.948 603.937 422.734C593.438 421.444 584.336 425.818 575.935 432.988L575.273 433.56C574.943 433.848 574.614 434.141 574.286 434.438L573.631 435.038L572.979 435.648C572.436 436.16 571.897 436.684 571.359 437.217L570.716 437.861L570.075 438.514L569.436 439.177C569.329 439.288 569.223 439.399 569.117 439.511L568.481 440.186C568.375 440.299 568.27 440.412 568.164 440.526L567.411 441.344C567.161 441.619 566.911 441.895 566.661 442.173L565.913 443.012C565.789 443.153 565.664 443.294 565.54 443.435L564.796 444.289L564.054 445.15L563.315 446.02L562.577 446.898L562.209 447.34L561.302 448.437L560.849 448.99L559.946 450.101L559.495 450.66L558.595 451.783L557.697 452.913L556.352 454.618L554.563 456.904L550.509 462.112L549.17 463.826L547.828 465.531L546.933 466.661L545.587 468.344L544.688 469.456L543.786 470.559L542.883 471.652L541.977 472.734L541.269 473.57L540.558 474.398L539.846 475.218L539.132 476.029L538.416 476.831L537.698 477.623L536.978 478.406L536.616 478.793L535.892 479.559L535.289 480.187L534.684 480.806L534.077 481.417C533.773 481.721 533.469 482.021 533.163 482.318L532.551 482.907L531.937 483.487C531.835 483.582 531.732 483.678 531.629 483.773L531.012 484.338C530.6 484.712 530.186 485.079 529.77 485.439L529.146 485.974C529.041 486.063 528.937 486.15 528.833 486.238L528.204 486.756C520.334 493.17 511.854 496.971 502.188 495.784C482.117 493.318 472.092 472.14 471.585 444.034L471 444.573C509.377 408.694 574.663 403.922 631.173 430.949Z"></path><path style="fill:var(--color-illustrationPalette040)" fill-rule="evenodd" clip-rule="evenodd" d="M724.545 472.732C707.257 470.338 693.047 465.063 680.419 458.784L679.275 458.21C678.896 458.018 678.517 457.825 678.14 457.632L677.013 457.048L675.616 456.312L674.23 455.57L673.13 454.971L671.764 454.218L670.409 453.461L669.333 452.852L668.263 452.24L666.668 451.319L664.562 450.085L662.881 449.089L661.212 448.092L658.729 446.596L653.013 443.131L651.395 442.154L649.38 440.943L647.369 439.747C642.014 436.581 636.696 433.601 631.242 431.025L631.173 430.949C575.227 404.192 510.682 408.6 472.159 443.506L471.585 444.032C470.386 377.521 522.493 272.215 620.925 284.307C638.169 286.425 651.989 291.384 664.068 297.431L665.145 297.975C665.502 298.157 665.858 298.341 666.213 298.525L667.272 299.08L667.799 299.36L668.845 299.922L669.884 300.489L670.914 301.061L671.427 301.348L672.7 302.07L673.962 302.798L674.964 303.383L675.96 303.972L676.949 304.563L677.932 305.157L678.91 305.752L679.882 306.349L680.85 306.948L682.425 307.932L683.208 308.425L684.765 309.412L686.313 310.399L693.182 314.809L694.695 315.774L696.205 316.732L698.091 317.917L699.977 319.085C703.109 321.007 706.251 322.851 709.452 324.568L710.655 325.205C774.14 359.465 838.556 341.901 871.995 315.555L872.898 314.835C872.567 381.009 819.633 484.413 724.545 472.732Z"></path></svg>