<svg id="nksvg" style="width: 100%; height: 100%" width="1344" height="759" viewBox="0 0 1344 759" fill="none" xmlns="http://www.w3.org/2000/svg" class="css-0">
  <rect style="fill: var(--color-illustrationBackground020)" width="1344" height="759"></rect>
  <path style="fill: var(--color-illustrationPalette040)" d="M292.842 398.873V373.582C292.842 369.607 289.591 366.355 285.616 366.355H198.904C194.929 366.355 191.678 369.607 191.678 373.582V445.842C191.678 449.816 194.929 453.068 198.904 453.068H285.616C289.591 453.068 292.842 449.816 292.842 445.842V420.551L321.747 449.455V369.968L292.842 398.873Z"></path>
  <path style="fill: var(--color-illustrationPalette040)" d="M632 377V342C632 336.5 627.5 332 622 332H502C496.5 332 492 336.5 492 342V442C492 447.5 496.5 452 502 452H622C627.5 452 632 447.5 632 442V407L672 447V337L632 377Z"></path>
  <path style="fill: var(--color-illustrationPalette040)" d="M1070.53 343.437V291.958C1070.53 283.869 1063.91 277.25 1055.82 277.25H879.322C871.232 277.25 864.613 283.869 864.613 291.958V439.042C864.613 447.131 871.232 453.75 879.322 453.75H1055.82C1063.91 453.75 1070.53 447.131 1070.53 439.042V387.562L1129.36 446.396V284.604L1070.53 343.437Z"></path>
</svg>
