<svg id="components-structured-list-states-focus" style="width: 100%; height: 100%" width="1490" height="838" viewBox="0 0 1490 838" fill="none" xmlns="http://www.w3.org/2000/svg" class="css-0"><rect style="fill:var(--color-illustrationBackground020)" width="1490" height="838"></rect><rect style="fill:var(--color-interfaceBackground)" width="1072.1" height="137.13" transform="translate(208.948 351)"></rect><path style="fill:var(--color-illustrationInterface100)" d="M254.943 403.264V407.164H250.987V431.044H254.943V434.972H246.466V403.264H254.943ZM258.413 419.118C258.413 417.159 258.837 415.416 259.684 413.89C260.532 412.345 261.71 411.149 263.217 410.301C264.743 409.434 266.467 409.001 268.388 409.001C270.743 409.001 272.759 409.623 274.436 410.866C276.113 412.11 277.234 413.805 277.799 415.953H272.486C272.09 415.124 271.525 414.493 270.791 414.06C270.075 413.626 269.255 413.41 268.332 413.41C266.844 413.41 265.638 413.928 264.715 414.964C263.792 416 263.33 417.385 263.33 419.118C263.33 420.851 263.792 422.236 264.715 423.272C265.638 424.308 266.844 424.826 268.332 424.826C269.255 424.826 270.075 424.61 270.791 424.176C271.525 423.743 272.09 423.112 272.486 422.283H277.799C277.234 424.431 276.113 426.126 274.436 427.37C272.759 428.594 270.743 429.207 268.388 429.207C266.467 429.207 264.743 428.783 263.217 427.935C261.71 427.068 260.532 425.872 259.684 424.346C258.837 422.82 258.413 421.077 258.413 419.118ZM295.623 420.927C295.623 421.379 295.595 421.85 295.538 422.34H284.602C284.677 423.319 284.988 424.073 285.534 424.6C286.099 425.109 286.787 425.363 287.597 425.363C288.803 425.363 289.641 424.855 290.112 423.837H295.256C294.992 424.874 294.511 425.806 293.814 426.635C293.136 427.464 292.279 428.114 291.243 428.585C290.206 429.056 289.048 429.292 287.767 429.292C286.222 429.292 284.847 428.962 283.641 428.302C282.435 427.643 281.493 426.701 280.815 425.476C280.137 424.252 279.797 422.82 279.797 421.181C279.797 419.542 280.127 418.11 280.787 416.885C281.465 415.661 282.407 414.719 283.612 414.06C284.818 413.4 286.203 413.07 287.767 413.07C289.293 413.07 290.649 413.391 291.836 414.031C293.023 414.672 293.946 415.586 294.606 416.772C295.284 417.959 295.623 419.344 295.623 420.927ZM290.677 419.655C290.677 418.826 290.395 418.167 289.83 417.677C289.264 417.187 288.558 416.942 287.71 416.942C286.9 416.942 286.212 417.177 285.647 417.648C285.101 418.119 284.762 418.788 284.63 419.655H290.677ZM303.005 408.153V429.065H298.172V408.153H303.005ZM311.339 408.153V429.065H306.507V408.153H311.339ZM319.841 412.929V408.436H327.669V429.065H322.638V412.929H319.841ZM340.724 434.972H332.246V431.044H336.202V407.164H332.246V403.264H340.724V434.972Z"></path><path style="fill:var(--color-illustrationInterface100)" d="M712.465 402.671V404.79H709.78V432.174H712.465V434.322H707.378V402.671H712.465ZM716.785 419.203C716.785 417.281 717.218 415.557 718.085 414.031C718.951 412.486 720.129 411.281 721.617 410.414C723.124 409.547 724.792 409.114 726.619 409.114C728.767 409.114 730.641 409.632 732.243 410.668C733.844 411.705 735.012 413.174 735.747 415.077H732.667C732.12 413.89 731.329 412.976 730.293 412.336C729.276 411.695 728.051 411.375 726.619 411.375C725.244 411.375 724.01 411.695 722.917 412.336C721.824 412.976 720.967 413.89 720.345 415.077C719.724 416.245 719.413 417.62 719.413 419.203C719.413 420.766 719.724 422.142 720.345 423.329C720.967 424.497 721.824 425.401 722.917 426.042C724.01 426.682 725.244 427.002 726.619 427.002C728.051 427.002 729.276 426.692 730.293 426.07C731.329 425.429 732.12 424.516 732.667 423.329H735.747C735.012 425.213 733.844 426.673 732.243 427.709C730.641 428.726 728.767 429.235 726.619 429.235C724.792 429.235 723.124 428.811 721.617 427.963C720.129 427.097 718.951 425.9 718.085 424.374C717.218 422.848 716.785 421.124 716.785 419.203ZM753.705 420.729C753.705 421.219 753.677 421.737 753.62 422.283H741.242C741.337 423.809 741.855 425.005 742.797 425.872C743.758 426.72 744.916 427.144 746.273 427.144C747.384 427.144 748.307 426.889 749.042 426.381C749.796 425.853 750.323 425.156 750.625 424.29H753.394C752.98 425.778 752.151 426.993 750.907 427.935C749.664 428.858 748.119 429.32 746.273 429.32C744.803 429.32 743.484 428.99 742.316 428.331C741.167 427.671 740.263 426.739 739.603 425.533C738.944 424.308 738.614 422.895 738.614 421.294C738.614 419.693 738.935 418.289 739.575 417.083C740.216 415.878 741.111 414.954 742.26 414.314C743.428 413.654 744.765 413.325 746.273 413.325C747.742 413.325 749.042 413.645 750.172 414.286C751.303 414.926 752.17 415.812 752.772 416.942C753.394 418.054 753.705 419.316 753.705 420.729ZM751.049 420.192C751.049 419.212 750.832 418.374 750.399 417.677C749.965 416.961 749.372 416.424 748.618 416.066C747.883 415.689 747.064 415.501 746.16 415.501C744.86 415.501 743.748 415.915 742.825 416.744C741.921 417.573 741.403 418.722 741.271 420.192H751.049ZM759.671 408.153V429.065H757.099V408.153H759.671ZM766.626 408.153V429.065H764.054V408.153H766.626ZM777.808 427.002C780.201 425.081 782.075 423.508 783.432 422.283C784.788 421.04 785.928 419.749 786.851 418.412C787.793 417.055 788.264 415.727 788.264 414.427C788.264 413.202 787.963 412.241 787.36 411.544C786.776 410.828 785.824 410.471 784.505 410.471C783.224 410.471 782.226 410.876 781.51 411.686C780.813 412.477 780.436 413.541 780.38 414.879H777.893C777.968 412.769 778.609 411.139 779.814 409.99C781.02 408.841 782.574 408.266 784.477 408.266C786.418 408.266 787.953 408.803 789.084 409.877C790.233 410.951 790.807 412.43 790.807 414.314C790.807 415.878 790.336 417.404 789.394 418.892C788.471 420.361 787.416 421.661 786.229 422.792C785.042 423.903 783.526 425.203 781.679 426.692H791.401V428.839H777.808V427.002ZM800.817 434.322H795.73V432.174H798.415V404.79H795.73V402.671H800.817V434.322Z"></path><mask id="nk-1479" mask-type="alpha" maskUnits="userSpaceOnUse" x="1194" y="385" width="70" height="70"><path d="M1219.38 406.833L1232.41 419.885L1219.38 432.938L1223.39 436.947L1240.45 419.885L1223.39 402.824L1219.38 406.833Z" fill="#0A0A0A"></path></mask><g mask="url(#nk-1479)"><rect style="fill:var(--color-illustrationInterface100)" x="1194.96" y="454.008" width="68.2471" height="68.2471" transform="rotate(-90 1194.96 454.008)"></rect></g><rect x="174" y="317.5" width="1142" height="203" rx="26" stroke="#577FFB" stroke-width="12" stroke-dasharray="40 40"></rect></svg>