<svg id="nksvg" width="1491" height="839" viewBox="0 0 1491 839" fill="none" xmlns="http://www.w3.org/2000/svg">
<path d="M0 4.00001C0 1.79087 1.79086 0 4 0H1486.72C1488.93 0 1490.72 1.79086 1490.72 4V834.004C1490.72 836.213 1488.93 838.004 1486.72 838.004H4.00002C1.79088 838.004 0 836.213 0 834.004V4.00001Z" fill="var(--color-illustrationBackground010)"/>
<path d="M470 189C470 182.373 475.373 177 482 177H1008C1014.63 177 1020 182.373 1020 189V648C1020 654.627 1014.63 660 1008 660H482C475.373 660 470 654.627 470 648V189Z" fill="white"/>
<path d="M596.66 218.723V221.52H592.057V235.999H588.592V221.52H583.988V218.723H596.66Z" fill="#577FFB"/>
<path d="M598.297 229.093C598.297 227.707 598.57 226.478 599.114 225.405C599.675 224.333 600.426 223.508 601.366 222.93C602.323 222.353 603.388 222.064 604.559 222.064C605.582 222.064 606.473 222.27 607.232 222.683C608.008 223.095 608.627 223.615 609.089 224.242V222.287H612.578V235.999H609.089V233.994C608.643 234.637 608.024 235.173 607.232 235.603C606.457 236.015 605.558 236.221 604.535 236.221C603.38 236.221 602.323 235.924 601.366 235.33C600.426 234.736 599.675 233.903 599.114 232.83C598.57 231.741 598.297 230.496 598.297 229.093ZM609.089 229.143C609.089 228.301 608.924 227.583 608.594 226.989C608.264 226.379 607.818 225.917 607.257 225.603C606.696 225.273 606.094 225.108 605.45 225.108C604.807 225.108 604.213 225.265 603.668 225.579C603.124 225.892 602.678 226.354 602.332 226.965C602.002 227.559 601.837 228.268 601.837 229.093C601.837 229.918 602.002 230.644 602.332 231.271C602.678 231.882 603.124 232.352 603.668 232.682C604.229 233.012 604.823 233.177 605.45 233.177C606.094 233.177 606.696 233.02 607.257 232.707C607.818 232.377 608.264 231.915 608.594 231.321C608.924 230.71 609.089 229.984 609.089 229.143Z" fill="#577FFB"/>
<path d="M619.428 224.292C619.873 223.632 620.484 223.095 621.259 222.683C622.051 222.27 622.95 222.064 623.957 222.064C625.128 222.064 626.184 222.353 627.125 222.93C628.082 223.508 628.833 224.333 629.377 225.405C629.938 226.461 630.219 227.691 630.219 229.093C630.219 230.496 629.938 231.741 629.377 232.83C628.833 233.903 628.082 234.736 627.125 235.33C626.184 235.924 625.128 236.221 623.957 236.221C622.934 236.221 622.035 236.023 621.259 235.627C620.5 235.215 619.89 234.687 619.428 234.043V235.999H615.963V217.683H619.428V224.292ZM626.679 229.093C626.679 228.268 626.506 227.559 626.16 226.965C625.83 226.354 625.384 225.892 624.823 225.579C624.279 225.265 623.685 225.108 623.041 225.108C622.414 225.108 621.82 225.273 621.259 225.603C620.715 225.917 620.269 226.379 619.923 226.989C619.593 227.6 619.428 228.318 619.428 229.143C619.428 229.968 619.593 230.685 619.923 231.296C620.269 231.906 620.715 232.377 621.259 232.707C621.82 233.02 622.414 233.177 623.041 233.177C623.685 233.177 624.279 233.012 624.823 232.682C625.384 232.352 625.83 231.882 626.16 231.271C626.506 230.661 626.679 229.935 626.679 229.093Z" fill="#577FFB"/>
<path d="M872.434 218.723V221.52H867.83V235.999H864.365V221.52H859.762V218.723H872.434Z" fill="#85939C"/>
<path d="M874.071 229.093C874.071 227.707 874.343 226.478 874.888 225.405C875.449 224.333 876.199 223.508 877.14 222.93C878.097 222.353 879.161 222.064 880.333 222.064C881.356 222.064 882.247 222.27 883.006 222.683C883.781 223.095 884.4 223.615 884.862 224.242V222.287H888.352V235.999H884.862V233.994C884.416 234.637 883.798 235.173 883.006 235.603C882.23 236.015 881.331 236.221 880.308 236.221C879.153 236.221 878.097 235.924 877.14 235.33C876.199 234.736 875.449 233.903 874.888 232.83C874.343 231.741 874.071 230.496 874.071 229.093ZM884.862 229.143C884.862 228.301 884.697 227.583 884.367 226.989C884.037 226.379 883.591 225.917 883.03 225.603C882.469 225.273 881.867 225.108 881.224 225.108C880.58 225.108 879.986 225.265 879.442 225.579C878.897 225.892 878.452 226.354 878.105 226.965C877.775 227.559 877.61 228.268 877.61 229.093C877.61 229.918 877.775 230.644 878.105 231.271C878.452 231.882 878.897 232.352 879.442 232.682C880.003 233.012 880.597 233.177 881.224 233.177C881.867 233.177 882.469 233.02 883.03 232.707C883.591 232.377 884.037 231.915 884.367 231.321C884.697 230.71 884.862 229.984 884.862 229.143Z" fill="#85939C"/>
<path d="M895.201 224.292C895.647 223.632 896.257 223.095 897.033 222.683C897.825 222.27 898.724 222.064 899.73 222.064C900.902 222.064 901.958 222.353 902.898 222.93C903.855 223.508 904.606 224.333 905.151 225.405C905.712 226.461 905.992 227.691 905.992 229.093C905.992 230.496 905.712 231.741 905.151 232.83C904.606 233.903 903.855 234.736 902.898 235.33C901.958 235.924 900.902 236.221 899.73 236.221C898.707 236.221 897.808 236.023 897.033 235.627C896.274 235.215 895.663 234.687 895.201 234.043V235.999H891.736V217.683H895.201V224.292ZM902.453 229.093C902.453 228.268 902.28 227.559 901.933 226.965C901.603 226.354 901.158 225.892 900.597 225.579C900.052 225.265 899.458 225.108 898.815 225.108C898.188 225.108 897.594 225.273 897.033 225.603C896.488 225.917 896.043 226.379 895.696 226.989C895.366 227.6 895.201 228.318 895.201 229.143C895.201 229.968 895.366 230.685 895.696 231.296C896.043 231.906 896.488 232.377 897.033 232.707C897.594 233.02 898.188 233.177 898.815 233.177C899.458 233.177 900.052 233.012 900.597 232.682C901.158 232.352 901.603 231.882 901.933 231.271C902.28 230.661 902.453 229.935 902.453 229.093Z" fill="#85939C"/>
<path d="M510 320C510 316.686 512.686 314 516 314H793.335C796.649 314 799.335 316.686 799.335 320C799.335 323.314 796.649 326 793.335 326H516C512.686 326 510 323.314 510 320Z" fill="#AEBFFF"/>
<path d="M510 356C510 352.686 512.686 350 516 350H974C977.314 350 980 352.686 980 356C980 359.314 977.314 362 974 362H516C512.686 362 510 359.314 510 356Z" fill="#D5E0FC"/>
<path d="M510 392C510 388.686 512.686 386 516 386H974C977.314 386 980 388.686 980 392C980 395.314 977.314 398 974 398H516C512.686 398 510 395.314 510 392Z" fill="#D5E0FC"/>
<path d="M510 464C510 460.686 512.686 458 516 458H974C977.314 458 980 460.686 980 464C980 467.314 977.314 470 974 470H516C512.686 470 510 467.314 510 464Z" fill="#D5E0FC"/>
<path d="M510 428C510 424.686 512.686 422 516 422H974C977.314 422 980 424.686 980 428C980 431.314 977.314 434 974 434H516C512.686 434 510 431.314 510 428Z" fill="#D5E0FC"/>
<path d="M510 500C510 496.686 512.686 494 516 494H716.587C719.9 494 722.587 496.686 722.587 500C722.587 503.314 719.9 506 716.587 506H516C512.686 506 510 503.314 510 500Z" fill="#D5E0FC"/>
<path d="M757 276H1020V279H757V276Z" fill="#D5E0FC"/>
<path d="M470 273H757V279H470V273Z" fill="#577FFB"/>
</svg>
