<svg id="nksvg" width="1491" height="839" viewBox="0 0 1491 839" fill="none" xmlns="http://www.w3.org/2000/svg">
<path d="M0 4.44532C0 2.23618 1.79086 0.445312 4 0.445312H1486.72C1488.93 0.445312 1490.72 2.23617 1490.72 4.44531V834.449C1490.72 836.658 1488.93 838.449 1486.72 838.449H4.00002C1.79088 838.449 0 836.658 0 834.449V4.44532Z" fill="var(--color-illustrationBackground010)"></path>
<path d="M390 159C390 152.373 395.373 147 402 147H1089C1095.63 147 1101 152.373 1101 159V677C1101 683.627 1095.63 689 1089 689H402C395.373 689 390 683.627 390 677V159Z" fill="white"></path>
<path d="M488.866 182.694V185.666H483.974V201.053H480.292V185.666H475.399V182.694H488.866Z" fill="#577FFB"></path>
<path d="M490.606 193.715C490.606 192.242 490.896 190.935 491.474 189.795C492.07 188.656 492.868 187.779 493.868 187.165C494.885 186.551 496.016 186.245 497.261 186.245C498.348 186.245 499.295 186.464 500.102 186.902C500.926 187.341 501.583 187.893 502.074 188.559V186.481H505.783V201.053H502.074V198.923C501.601 199.606 500.943 200.176 500.102 200.632C499.277 201.071 498.322 201.29 497.235 201.29C496.007 201.29 494.885 200.974 493.868 200.343C492.868 199.712 492.07 198.826 491.474 197.686C490.896 196.529 490.606 195.205 490.606 193.715ZM502.074 193.767C502.074 192.873 501.899 192.11 501.548 191.479C501.198 190.83 500.724 190.339 500.128 190.006C499.532 189.655 498.892 189.48 498.208 189.48C497.524 189.48 496.893 189.646 496.314 189.98C495.735 190.313 495.262 190.804 494.894 191.453C494.543 192.084 494.368 192.838 494.368 193.715C494.368 194.591 494.543 195.363 494.894 196.029C495.262 196.678 495.735 197.178 496.314 197.529C496.91 197.879 497.541 198.055 498.208 198.055C498.892 198.055 499.532 197.888 500.128 197.555C500.724 197.204 501.198 196.713 501.548 196.082C501.899 195.433 502.074 194.662 502.074 193.767Z" fill="#577FFB"></path>
<path d="M513.062 188.612C513.535 187.91 514.184 187.341 515.008 186.902C515.85 186.464 516.806 186.245 517.875 186.245C519.12 186.245 520.243 186.551 521.242 187.165C522.259 187.779 523.057 188.656 523.636 189.795C524.232 190.918 524.53 192.224 524.53 193.715C524.53 195.205 524.232 196.529 523.636 197.686C523.057 198.826 522.259 199.712 521.242 200.343C520.243 200.974 519.12 201.29 517.875 201.29C516.788 201.29 515.833 201.079 515.008 200.659C514.202 200.22 513.553 199.659 513.062 198.975V201.053H509.38V181.589H513.062V188.612ZM520.769 193.715C520.769 192.838 520.585 192.084 520.216 191.453C519.866 190.804 519.392 190.313 518.796 189.98C518.217 189.646 517.586 189.48 516.902 189.48C516.236 189.48 515.605 189.655 515.008 190.006C514.43 190.339 513.956 190.83 513.588 191.479C513.237 192.128 513.062 192.89 513.062 193.767C513.062 194.644 513.237 195.407 513.588 196.056C513.956 196.704 514.43 197.204 515.008 197.555C515.605 197.888 516.236 198.055 516.902 198.055C517.586 198.055 518.217 197.879 518.796 197.529C519.392 197.178 519.866 196.678 520.216 196.029C520.585 195.38 520.769 194.609 520.769 193.715Z" fill="#577FFB"></path>
<path d="M532.605 185.271V181.878H538.945V201.053H535.157V185.271H532.605Z" fill="#577FFB"></path>
<path d="M723.706 182.694V185.666H718.813V201.053H715.131V185.666H710.239V182.694H723.706Z" fill="#85939C"></path>
<path d="M725.446 193.715C725.446 192.242 725.735 190.935 726.314 189.795C726.91 188.656 727.708 187.779 728.707 187.165C729.724 186.551 730.855 186.245 732.1 186.245C733.188 186.245 734.134 186.464 734.941 186.902C735.765 187.341 736.423 187.893 736.914 188.559V186.481H740.623V201.053H736.914V198.923C736.44 199.606 735.783 200.176 734.941 200.632C734.117 201.071 733.161 201.29 732.074 201.29C730.847 201.29 729.724 200.974 728.707 200.343C727.708 199.712 726.91 198.826 726.314 197.686C725.735 196.529 725.446 195.205 725.446 193.715ZM736.914 193.767C736.914 192.873 736.738 192.11 736.388 191.479C736.037 190.83 735.564 190.339 734.967 190.006C734.371 189.655 733.731 189.48 733.047 189.48C732.363 189.48 731.732 189.646 731.153 189.98C730.575 190.313 730.101 190.804 729.733 191.453C729.382 192.084 729.207 192.838 729.207 193.715C729.207 194.591 729.382 195.363 729.733 196.029C730.101 196.678 730.575 197.178 731.153 197.529C731.75 197.879 732.381 198.055 733.047 198.055C733.731 198.055 734.371 197.888 734.967 197.555C735.564 197.204 736.037 196.713 736.388 196.082C736.738 195.433 736.914 194.662 736.914 193.767Z" fill="#85939C"></path>
<path d="M747.901 188.612C748.375 187.91 749.024 187.341 749.848 186.902C750.69 186.464 751.645 186.245 752.715 186.245C753.96 186.245 755.082 186.551 756.082 187.165C757.099 187.779 757.897 188.656 758.475 189.795C759.071 190.918 759.37 192.224 759.37 193.715C759.37 195.205 759.071 196.529 758.475 197.686C757.897 198.826 757.099 199.712 756.082 200.343C755.082 200.974 753.96 201.29 752.715 201.29C751.628 201.29 750.672 201.079 749.848 200.659C749.041 200.22 748.392 199.659 747.901 198.975V201.053H744.219V181.589H747.901V188.612ZM755.608 193.715C755.608 192.838 755.424 192.084 755.056 191.453C754.705 190.804 754.232 190.313 753.636 189.98C753.057 189.646 752.426 189.48 751.742 189.48C751.075 189.48 750.444 189.655 749.848 190.006C749.269 190.339 748.796 190.83 748.428 191.479C748.077 192.128 747.901 192.89 747.901 193.767C747.901 194.644 748.077 195.407 748.428 196.056C748.796 196.704 749.269 197.204 749.848 197.555C750.444 197.888 751.075 198.055 751.742 198.055C752.426 198.055 753.057 197.879 753.636 197.529C754.232 197.178 754.705 196.678 755.056 196.029C755.424 195.38 755.608 194.609 755.608 193.715Z" fill="#85939C"></path>
<path d="M769.049 196.897C770.733 195.494 772.074 194.328 773.074 193.399C774.073 192.452 774.906 191.47 775.573 190.453C776.239 189.436 776.572 188.437 776.572 187.455C776.572 186.56 776.362 185.859 775.941 185.35C775.52 184.842 774.871 184.588 773.994 184.588C773.118 184.588 772.443 184.886 771.969 185.482C771.496 186.06 771.25 186.858 771.233 187.875H767.655C767.726 185.771 768.348 184.175 769.523 183.088C770.715 182.001 772.223 181.457 774.047 181.457C776.046 181.457 777.58 181.992 778.65 183.062C779.72 184.114 780.255 185.508 780.255 187.244C780.255 188.612 779.886 189.918 779.15 191.163C778.413 192.408 777.572 193.495 776.625 194.425C775.678 195.337 774.442 196.441 772.916 197.739H780.675V200.79H767.682V198.055L769.049 196.897Z" fill="#85939C"></path>
<path d="M961.011 182.694V185.666H956.119V201.053H952.436V185.666H947.544V182.694H961.011Z" fill="#85939C"></path>
<path d="M962.751 193.715C962.751 192.242 963.04 190.935 963.619 189.795C964.215 188.656 965.013 187.779 966.013 187.165C967.03 186.551 968.161 186.245 969.406 186.245C970.493 186.245 971.44 186.464 972.246 186.902C973.071 187.341 973.728 187.893 974.219 188.559V186.481H977.928V201.053H974.219V198.923C973.746 199.606 973.088 200.176 972.246 200.632C971.422 201.071 970.467 201.29 969.379 201.29C968.152 201.29 967.03 200.974 966.013 200.343C965.013 199.712 964.215 198.826 963.619 197.686C963.04 196.529 962.751 195.205 962.751 193.715ZM974.219 193.767C974.219 192.873 974.044 192.11 973.693 191.479C973.342 190.83 972.869 190.339 972.273 190.006C971.677 189.655 971.037 189.48 970.353 189.48C969.669 189.48 969.038 189.646 968.459 189.98C967.88 190.313 967.407 190.804 967.039 191.453C966.688 192.084 966.512 192.838 966.512 193.715C966.512 194.591 966.688 195.363 967.039 196.029C967.407 196.678 967.88 197.178 968.459 197.529C969.055 197.879 969.686 198.055 970.353 198.055C971.037 198.055 971.677 197.888 972.273 197.555C972.869 197.204 973.342 196.713 973.693 196.082C974.044 195.433 974.219 194.662 974.219 193.767Z" fill="#85939C"></path>
<path d="M985.207 188.612C985.68 187.91 986.329 187.341 987.153 186.902C987.995 186.464 988.951 186.245 990.02 186.245C991.265 186.245 992.388 186.551 993.387 187.165C994.404 187.779 995.202 188.656 995.781 189.795C996.377 190.918 996.675 192.224 996.675 193.715C996.675 195.205 996.377 196.529 995.781 197.686C995.202 198.826 994.404 199.712 993.387 200.343C992.388 200.974 991.265 201.29 990.02 201.29C988.933 201.29 987.977 201.079 987.153 200.659C986.347 200.22 985.698 199.659 985.207 198.975V201.053H981.524V181.589H985.207V188.612ZM992.914 193.715C992.914 192.838 992.73 192.084 992.361 191.453C992.011 190.804 991.537 190.313 990.941 189.98C990.362 189.646 989.731 189.48 989.047 189.48C988.381 189.48 987.749 189.655 987.153 190.006C986.575 190.339 986.101 190.83 985.733 191.479C985.382 192.128 985.207 192.89 985.207 193.767C985.207 194.644 985.382 195.407 985.733 196.056C986.101 196.704 986.575 197.204 987.153 197.555C987.749 197.888 988.381 198.055 989.047 198.055C989.731 198.055 990.362 197.879 990.941 197.529C991.537 197.178 992.011 196.678 992.361 196.029C992.73 195.38 992.914 194.609 992.914 193.715Z" fill="#85939C"></path>
<path d="M1005.25 186.928C1005.34 185.175 1005.95 183.825 1007.09 182.878C1008.25 181.913 1009.77 181.431 1011.64 181.431C1012.92 181.431 1014.02 181.659 1014.93 182.115C1015.84 182.553 1016.53 183.158 1016.98 183.93C1017.45 184.684 1017.69 185.543 1017.69 186.508C1017.69 187.612 1017.4 188.55 1016.82 189.322C1016.26 190.076 1015.59 190.585 1014.8 190.848V190.953C1015.82 191.268 1016.6 191.83 1017.17 192.636C1017.74 193.443 1018.03 194.477 1018.03 195.74C1018.03 196.792 1017.79 197.73 1017.3 198.554C1016.82 199.379 1016.11 200.027 1015.17 200.501C1014.24 200.957 1013.11 201.185 1011.8 201.185C1009.82 201.185 1008.2 200.685 1006.96 199.685C1005.71 198.686 1005.06 197.213 1004.99 195.267H1008.56C1008.6 196.126 1008.89 196.818 1009.43 197.344C1009.99 197.853 1010.76 198.107 1011.72 198.107C1012.61 198.107 1013.3 197.862 1013.77 197.371C1014.26 196.862 1014.51 196.213 1014.51 195.424C1014.51 194.372 1014.18 193.618 1013.51 193.162C1012.84 192.706 1011.81 192.478 1010.41 192.478H1009.64V189.454H1010.41C1012.9 189.454 1014.14 188.621 1014.14 186.955C1014.14 186.201 1013.91 185.613 1013.46 185.192C1013.02 184.772 1012.38 184.561 1011.54 184.561C1010.71 184.561 1010.07 184.789 1009.62 185.245C1009.18 185.683 1008.92 186.245 1008.85 186.928H1005.25Z" fill="#85939C"></path>
<path d="M472.015 292.445V294.993H467.821V308.182H464.665V294.993H460.471V292.445H472.015Z" fill="#577FFB"></path>
<path d="M473.506 301.892C473.506 300.629 473.754 299.509 474.25 298.532C474.761 297.556 475.445 296.804 476.302 296.278C477.173 295.752 478.143 295.489 479.21 295.489C480.142 295.489 480.953 295.677 481.645 296.052C482.351 296.428 482.915 296.902 483.336 297.473V295.692H486.515V308.182H483.336V306.356C482.93 306.942 482.366 307.43 481.645 307.821C480.938 308.197 480.119 308.385 479.187 308.385C478.135 308.385 477.173 308.114 476.302 307.573C475.445 307.032 474.761 306.273 474.25 305.296C473.754 304.304 473.506 303.169 473.506 301.892ZM483.336 301.937C483.336 301.17 483.185 300.516 482.885 299.975C482.584 299.419 482.178 298.998 481.667 298.713C481.156 298.412 480.608 298.262 480.022 298.262C479.435 298.262 478.894 298.405 478.398 298.69C477.902 298.976 477.496 299.397 477.181 299.953C476.88 300.494 476.73 301.14 476.73 301.892C476.73 302.643 476.88 303.305 477.181 303.876C477.496 304.432 477.902 304.86 478.398 305.161C478.909 305.461 479.45 305.612 480.022 305.612C480.608 305.612 481.156 305.469 481.667 305.183C482.178 304.883 482.584 304.462 482.885 303.921C483.185 303.365 483.336 302.703 483.336 301.937Z" fill="#577FFB"></path>
<path d="M492.754 297.518C493.16 296.917 493.716 296.428 494.422 296.052C495.144 295.677 495.963 295.489 496.88 295.489C497.947 295.489 498.909 295.752 499.765 296.278C500.637 296.804 501.321 297.556 501.817 298.532C502.328 299.494 502.584 300.614 502.584 301.892C502.584 303.169 502.328 304.304 501.817 305.296C501.321 306.273 500.637 307.032 499.765 307.573C498.909 308.114 497.947 308.385 496.88 308.385C495.948 308.385 495.129 308.204 494.422 307.844C493.731 307.468 493.175 306.987 492.754 306.401V308.182H489.597V291.498H492.754V297.518ZM499.36 301.892C499.36 301.14 499.202 300.494 498.886 299.953C498.585 299.397 498.18 298.976 497.669 298.69C497.173 298.405 496.632 298.262 496.045 298.262C495.474 298.262 494.933 298.412 494.422 298.713C493.926 298.998 493.52 299.419 493.205 299.975C492.904 300.531 492.754 301.185 492.754 301.937C492.754 302.688 492.904 303.342 493.205 303.898C493.52 304.454 493.926 304.883 494.422 305.183C494.933 305.469 495.474 305.612 496.045 305.612C496.632 305.612 497.173 305.461 497.669 305.161C498.18 304.86 498.585 304.432 498.886 303.876C499.202 303.32 499.36 302.658 499.36 301.892Z" fill="#577FFB"></path>
<path d="M509.505 294.655V291.746H514.939V308.182H511.692V294.655H509.505Z" fill="#577FFB"></path>
<path d="M519.815 308.34C519.244 308.34 518.771 308.167 518.395 307.821C518.034 307.46 517.854 307.017 517.854 306.491C517.854 305.965 518.034 305.529 518.395 305.183C518.771 304.823 519.244 304.642 519.815 304.642C520.372 304.642 520.83 304.823 521.191 305.183C521.551 305.529 521.732 305.965 521.732 306.491C521.732 307.017 521.551 307.46 521.191 307.821C520.83 308.167 520.372 308.34 519.815 308.34Z" fill="#577FFB"></path>
<path d="M523.53 294.655V291.746H528.964V308.182H525.717V294.655H523.53Z" fill="#577FFB"></path>
<path d="M624.515 292.445V294.993H620.321V308.182H617.165V294.993H612.971V292.445H624.515Z" fill="#85939C"></path>
<path d="M626.006 301.892C626.006 300.629 626.254 299.509 626.75 298.532C627.261 297.556 627.945 296.804 628.802 296.278C629.673 295.752 630.643 295.489 631.71 295.489C632.642 295.489 633.453 295.677 634.145 296.052C634.851 296.428 635.415 296.902 635.836 297.473V295.692H639.015V308.182H635.836V306.356C635.43 306.942 634.866 307.43 634.145 307.821C633.438 308.197 632.619 308.385 631.687 308.385C630.635 308.385 629.673 308.114 628.802 307.573C627.945 307.032 627.261 306.273 626.75 305.296C626.254 304.304 626.006 303.169 626.006 301.892ZM635.836 301.937C635.836 301.17 635.685 300.516 635.385 299.975C635.084 299.419 634.678 298.998 634.167 298.713C633.656 298.412 633.108 298.262 632.522 298.262C631.935 298.262 631.394 298.405 630.898 298.69C630.402 298.976 629.996 299.397 629.681 299.953C629.38 300.494 629.23 301.14 629.23 301.892C629.23 302.643 629.38 303.305 629.681 303.876C629.996 304.432 630.402 304.86 630.898 305.161C631.409 305.461 631.95 305.612 632.522 305.612C633.108 305.612 633.656 305.469 634.167 305.183C634.678 304.883 635.084 304.462 635.385 303.921C635.685 303.365 635.836 302.703 635.836 301.937Z" fill="#85939C"></path>
<path d="M645.254 297.518C645.66 296.917 646.216 296.428 646.922 296.052C647.644 295.677 648.463 295.489 649.38 295.489C650.447 295.489 651.409 295.752 652.265 296.278C653.137 296.804 653.821 297.556 654.317 298.532C654.828 299.494 655.084 300.614 655.084 301.892C655.084 303.169 654.828 304.304 654.317 305.296C653.821 306.273 653.137 307.032 652.265 307.573C651.409 308.114 650.447 308.385 649.38 308.385C648.448 308.385 647.629 308.204 646.922 307.844C646.231 307.468 645.675 306.987 645.254 306.401V308.182H642.097V291.498H645.254V297.518ZM651.86 301.892C651.86 301.14 651.702 300.494 651.386 299.953C651.085 299.397 650.68 298.976 650.169 298.69C649.673 298.405 649.132 298.262 648.545 298.262C647.974 298.262 647.433 298.412 646.922 298.713C646.426 298.998 646.02 299.419 645.705 299.975C645.404 300.531 645.254 301.185 645.254 301.937C645.254 302.688 645.404 303.342 645.705 303.898C646.02 304.454 646.426 304.883 646.922 305.183C647.433 305.469 647.974 305.612 648.545 305.612C649.132 305.612 649.673 305.461 650.169 305.161C650.68 304.86 651.085 304.432 651.386 303.876C651.702 303.32 651.86 302.658 651.86 301.892Z" fill="#85939C"></path>
<path d="M662.005 294.655V291.746H667.439V308.182H664.192V294.655H662.005Z" fill="#85939C"></path>
<path d="M672.315 308.34C671.744 308.34 671.271 308.167 670.895 307.821C670.534 307.46 670.354 307.017 670.354 306.491C670.354 305.965 670.534 305.529 670.895 305.183C671.271 304.823 671.744 304.642 672.315 304.642C672.872 304.642 673.33 304.823 673.691 305.183C674.051 305.529 674.232 305.965 674.232 306.491C674.232 307.017 674.051 307.46 673.691 307.821C673.33 308.167 672.872 308.34 672.315 308.34Z" fill="#85939C"></path>
<path d="M677.405 304.62C678.848 303.417 679.998 302.418 680.855 301.621C681.712 300.81 682.425 299.968 682.997 299.096C683.568 298.224 683.853 297.368 683.853 296.526C683.853 295.759 683.673 295.158 683.312 294.722C682.952 294.286 682.395 294.068 681.644 294.068C680.892 294.068 680.314 294.324 679.908 294.835C679.502 295.331 679.292 296.015 679.277 296.887H676.21C676.271 295.083 676.804 293.715 677.811 292.783C678.833 291.852 680.126 291.386 681.689 291.386C683.402 291.386 684.718 291.844 685.634 292.761C686.551 293.663 687.01 294.858 687.01 296.346C687.01 297.518 686.694 298.638 686.063 299.705C685.432 300.772 684.71 301.704 683.898 302.5C683.087 303.282 682.027 304.229 680.72 305.341H687.37V307.956H676.233V305.612L677.405 304.62Z" fill="#85939C"></path>
<path d="M460 382C460 379.239 462.239 377 465 377H803.434C806.195 377 808.434 379.239 808.434 382C808.434 384.761 806.195 387 803.434 387H465C462.239 387 460 384.761 460 382Z" fill="#AEBFFF"></path>
<path d="M460 414C460 411.239 462.239 409 465 409H1021C1023.76 409 1026 411.239 1026 414C1026 416.761 1023.76 419 1021 419H465C462.239 419 460 416.761 460 414Z" fill="#D5E0FC"></path>
<path d="M460 446C460 443.239 462.239 441 465 441H1021C1023.76 441 1026 443.239 1026 446C1026 448.761 1023.76 451 1021 451H465C462.239 451 460 448.761 460 446Z" fill="#D5E0FC"></path>
<path d="M460 510C460 507.239 462.239 505 465 505H1021C1023.76 505 1026 507.239 1026 510C1026 512.761 1023.76 515 1021 515H465C462.239 515 460 512.761 460 510Z" fill="#D5E0FC"></path>
<path d="M460 478C460 475.239 462.239 473 465 473H1021C1023.76 473 1026 475.239 1026 478C1026 480.761 1023.76 483 1021 483H465C462.239 483 460 480.761 460 478Z" fill="#D5E0FC"></path>
<path d="M460 542C460 539.239 462.239 537 465 537H711.009C713.77 537 716.009 539.239 716.009 542C716.009 544.761 713.77 547 711.009 547H465C462.239 547 460 544.761 460 542Z" fill="#D5E0FC"></path>
<path d="M627 242H1101V245H627V242Z" fill="#D5E0FC"></path>
<path d="M390 239H627V245H390V239Z" fill="#577FFB"></path>
</svg>
