<svg id="nksvg" style="width: 100%; height: 100%" width="1490" height="838" viewBox="0 0 1490 838" fill="none" xmlns="http://www.w3.org/2000/svg" class="css-0">
  <g clip-path="url(#nk-45)">
    <path style="fill: var(--color-illustrationPalette060)" d="M0 0H1490V838H0V0Z"></path>
    <path style="fill: var(--color-illustrationPalette080)" d="M1051.68 529.428C970.753 537.728 917.869 562.594 887.187 586.419C875.888 595.193 861.942 602.136 847.746 604.805C825.938 608.905 809.699 589.478 802.682 568.427V568.427C878.182 415.93 1012.98 81.5386 1118.18 149.937C1304.18 270.869 1227.18 511.428 1051.68 529.428Z"></path>
    <path style="fill: var(--color-illustrationPalette080)" d="M695.593 535.589C700.63 529.722 709.469 529.05 715.335 534.088L809.41 614.879C815.276 619.916 815.948 628.756 810.911 634.623C805.874 640.489 797.035 641.161 791.169 636.124L697.094 555.333C691.228 550.295 690.556 541.456 695.593 535.589Z"></path>
    <path style="fill: var(--color-illustrationPalette080)" d="M669.802 566.718C674.84 560.852 683.678 560.18 689.544 565.217L783.62 646.008C789.486 651.046 790.158 659.885 785.121 665.752C780.083 671.619 771.245 672.291 765.379 667.253L671.303 586.462C665.437 581.425 664.765 572.585 669.802 566.718Z"></path>
    <path style="fill: var(--color-illustrationPalette040)" d="M715.009 534.468L798.463 606.137C804.12 610.995 804.768 619.519 799.911 625.177C795.053 630.834 786.53 631.482 780.874 626.624L697.42 554.954C691.763 550.096 691.115 541.572 695.973 535.915C700.83 530.258 709.353 529.61 715.009 534.468Z" stroke="#577FFB"></path>
    <path style="fill: var(--color-illustrationPalette020)" d="M669.647 565.048C674.684 559.182 683.523 558.51 689.389 563.547L772.425 634.85C778.291 639.887 778.962 648.726 773.925 654.591V654.591C768.888 660.457 760.049 661.129 754.183 656.092L671.148 584.79C665.282 579.753 664.61 570.914 669.647 565.048V565.048Z"></path>
    <path style="fill: var(--color-illustrationPalette040)" d="M697.254 571.527L772.673 636.289C778.33 641.146 778.978 649.669 774.121 655.326C769.263 660.982 760.74 661.63 755.084 656.773L679.664 592.011C674.008 587.153 673.36 578.63 678.217 572.974C683.074 567.317 691.598 566.669 697.254 571.527Z" stroke="#577FFB"></path>
    <path style="fill: var(--color-illustrationPalette080)" d="M665.954 608.504L672.487 637.619C676.773 656.721 691.866 671.532 711.045 675.459L712.456 675.748C716.717 676.62 721.07 676.954 725.414 676.742L744.138 675.828C746.935 675.691 748.166 672.238 746.086 670.363L672.915 604.435C671.428 603.094 669.204 602.98 667.587 604.161C666.227 605.155 665.585 606.861 665.954 608.504Z"></path>
    <path style="fill: var(--color-illustrationPalette020)" fill-rule="evenodd" clip-rule="evenodd" d="M695.593 535.401C700.63 529.535 709.469 528.863 715.335 533.9L809.41 614.684C810.546 615.66 811.487 616.778 812.23 617.989L722.922 541.31C717.056 536.274 708.217 536.946 703.18 542.811C699.124 547.535 698.769 554.186 701.849 559.227L697.094 555.144C691.228 550.106 690.556 541.267 695.593 535.401Z"></path>
    <path style="fill: var(--color-illustrationPalette020)" d="M667.085 604.213C668.691 602.998 670.927 603.068 672.455 604.38L744.916 666.601C745.944 667.485 745.332 669.171 743.976 669.188L710.135 667.413C690.162 666.365 673.51 651.766 669.857 632.102L665.457 608.41C665.161 606.815 665.791 605.191 667.085 604.213Z"></path>
    <path style="fill: var(--color-illustrationPalette040)" d="M680.418 610.693L745.034 666.178C745.813 666.847 745.539 668.114 744.552 668.401C744.428 668.438 744.298 668.455 744.169 668.453L715.024 667.954C695.716 667.624 679.536 653.258 676.925 634.125L674.189 614.084C674.007 612.751 674.544 611.421 675.602 610.589C677.026 609.469 679.044 609.512 680.418 610.693Z" stroke="#577FFB"></path>
    <path style="fill: var(--color-illustrationPalette030)" d="M1013.1 511.378C1062.28 505.597 1109.52 482.041 1144.32 441.506C1217.9 355.819 1208.09 226.707 1122.4 153.127C1036.72 79.547 907.605 89.3621 834.027 175.05C799.219 215.585 783.075 265.838 784.796 315.333L784.766 315.307C784.787 315.61 784.808 315.911 784.828 316.212C784.953 319.405 785.152 322.595 785.425 325.778C790.223 410.942 776.587 433.318 723.326 495.809C716.161 504.215 717.086 516.857 725.466 524.053L815.747 601.579C824.128 608.775 836.763 607.778 843.99 599.425C897.712 537.327 917.768 520.465 1002.68 512.335C1005.87 512.124 1009.05 511.839 1012.22 511.48C1012.52 511.454 1012.82 511.429 1013.13 511.404L1013.1 511.378Z"></path>
    <path style="fill: var(--color-illustrationPalette040)" d="M1013.13 511.249C919.31 519.04 899.848 534.702 843.989 599.271C836.762 607.625 824.127 608.622 815.747 601.425L814.23 600.122L865.146 542.549C902.194 500.658 962.29 487.947 1013.13 511.249Z"></path>
    <mask id="path-14-inside-1_2134_532578" fill="white">
      <path fill-rule="evenodd" clip-rule="evenodd" d="M843.961 449.948C929.057 511.789 1048.79 498.886 1118.52 417.674C1187.68 337.142 1183 218.166 1110.76 143.272C1115.25 146.53 1119.64 149.997 1123.92 153.671C1209.41 227.08 1219.2 355.893 1145.79 441.384C1072.38 526.876 943.563 536.671 858.073 463.263C853.114 459.005 848.41 454.56 843.961 449.948Z"></path>
    </mask>
    <path style="fill: var(--color-illustrationPalette040)" fill-rule="evenodd" clip-rule="evenodd" d="M843.961 449.948C929.057 511.789 1048.79 498.886 1118.52 417.674C1187.68 337.142 1183 218.166 1110.76 143.272C1115.25 146.53 1119.64 149.997 1123.92 153.671C1209.41 227.08 1219.2 355.893 1145.79 441.384C1072.38 526.876 943.563 536.671 858.073 463.263C853.114 459.005 848.41 454.56 843.961 449.948Z"></path>
    <path d="M1118.52 417.674L1117.77 417.023L1117.77 417.023L1118.52 417.674ZM843.961 449.948L844.549 449.139L843.242 450.642L843.961 449.948ZM1110.76 143.272L1111.35 142.463L1110.04 143.966L1110.76 143.272ZM1123.92 153.671L1124.57 152.913L1123.92 153.671ZM1145.79 441.384L1145.03 440.733L1145.03 440.733L1145.79 441.384ZM858.073 463.263L857.422 464.021L857.422 464.021L858.073 463.263ZM1117.77 417.023C1048.37 497.836 929.227 510.676 844.549 449.139L843.374 450.757C928.887 512.901 1049.21 499.936 1119.28 418.326L1117.77 417.023ZM1110.04 143.966C1181.92 218.492 1186.58 336.886 1117.77 417.023L1119.28 418.326C1188.77 337.398 1184.07 217.84 1111.48 142.578L1110.04 143.966ZM1110.18 144.081C1114.64 147.324 1119.01 150.773 1123.26 154.43L1124.57 152.913C1120.27 149.22 1115.86 145.737 1111.35 142.463L1110.18 144.081ZM1123.26 154.43C1208.34 227.478 1218.08 355.661 1145.03 440.733L1146.55 442.036C1220.32 356.125 1210.48 226.681 1124.57 152.913L1123.26 154.43ZM1145.03 440.733C1071.98 525.805 943.796 535.552 858.725 462.504L857.422 464.021C943.331 537.789 1072.78 527.946 1146.55 442.036L1145.03 440.733ZM858.725 462.504C853.789 458.266 849.108 453.843 844.681 449.254L843.242 450.642C847.712 455.277 852.439 459.743 857.422 464.021L858.725 462.504Z" fill="#577FFB" mask="url(#path-14-inside-1_2134_532578)"></path>
    <path style="fill: var(--color-illustrationPalette020)" fill-rule="evenodd" clip-rule="evenodd" d="M1114.63 181.414C1044.87 111.653 931.759 111.653 861.997 181.414C792.235 251.176 792.235 364.281 861.997 434.043C865.756 437.801 869.64 441.357 873.637 444.711C814.683 374.527 818.219 269.676 884.245 203.651C950.249 137.648 1055.05 134.092 1125.24 192.983C1121.9 189.011 1118.36 185.151 1114.63 181.414Z"></path>
    <path style="fill: var(--color-illustrationPalette080)" d="M236.626 544.111C219.16 557.637 215.965 582.761 229.491 600.228L294.648 684.368C308.174 701.835 333.299 705.029 350.765 691.503L354.084 688.933L375.057 716.016C380.023 722.429 390.156 720.572 392.527 712.815L414 642.535L533.374 550.093C550.841 536.567 554.035 511.442 540.509 493.976L475.352 409.836C461.826 392.369 436.702 389.175 419.235 402.7L236.626 544.111Z"></path>
    <path style="fill: var(--color-illustrationPalette020)" d="M229.491 581.743C215.965 564.277 219.16 539.152 236.626 525.626L410.678 390.841C428.144 377.315 453.269 380.509 466.795 397.976L530.259 479.93C543.785 497.397 540.59 522.522 523.124 536.048L349.072 670.833C331.605 684.359 306.481 681.165 292.955 663.698L229.491 581.743Z"></path>
    <path style="fill: var(--color-illustrationPalette030)" d="M244.423 535.082C226.957 548.608 223.762 573.732 237.288 591.199L293.681 664.021C307.207 681.487 332.331 684.682 349.798 671.156L359.843 663.377L378.795 687.851C383.761 694.264 393.894 692.408 396.265 684.65L416.067 619.838L516.918 541.74C534.384 528.214 537.579 503.09 524.053 485.623L467.66 412.801C454.134 395.334 429.01 392.14 411.543 405.666L244.423 535.082Z"></path>
    <rect style="fill: var(--color-illustrationPalette060)" width="188.89" height="12" rx="5.99998" transform="matrix(0.79065 -0.612269 0.612272 0.790647 283.103 560.356)"></rect>
    <rect style="fill: var(--color-illustrationPalette060)" width="188.889" height="11.9999" rx="5.99996" transform="matrix(0.790652 -0.612266 0.612275 0.790645 305 587.039)"></rect>
    <rect style="fill: var(--color-illustrationPalette060)" width="97.3715" height="11.9988" rx="5.99942" transform="matrix(0.790694 -0.612211 0.61233 0.790603 327 616.686)"></rect>
  </g>
  <defs>
    <clipPath id="nk-45">
      <rect style="fill: var(--color-white)" width="1490" height="838"></rect>
    </clipPath>
  </defs>
</svg>
