<svg id="components-menu-menu-dont-03-illustration" style="width: 100%; height: 100%" width="1490" height="839" viewBox="0 0 1490 839" fill="none" xmlns="http://www.w3.org/2000/svg" class="css-0"><g clip-path="url(#nk-210)"><path style="fill:var(--color-illustrationBackground020)" d="M0 4.00001C0 1.79087 1.79086 0 4 0H1486.72C1488.93 0 1490.72 1.79086 1490.72 4V834.004C1490.72 836.213 1488.93 838.004 1486.72 838.004H4.00002C1.79088 838.004 0 836.213 0 834.004V4.00001Z"></path><g clip-path="url(#nk-211)"><g clip-path="url(#nk-212)"><g filter="url(#nk-215)"><g clip-path="url(#clip3)"><path style="fill:var(--color-illustrationInterface020)" d="M499 122.629C499 105.756 512.678 92.0781 529.55 92.0781H2196.45C2213.32 92.0781 2227 105.756 2227 122.628V1121.24C2227 1138.11 2213.32 1151.79 2196.45 1151.79H529.55C512.678 1151.79 499 1138.11 499 1121.24V122.629Z"></path><path style="fill:var(--color-illustrationInterface010)" d="M1488.71 141.652C1488.71 137.741 1491.88 134.57 1495.79 134.57H1603.79C1607.7 134.57 1610.87 137.741 1610.87 141.652C1610.87 145.564 1607.7 148.734 1603.79 148.734H1495.79C1491.88 148.734 1488.71 145.564 1488.71 141.652Z"></path><path style="fill:var(--color-illustrationHighlight010)" d="M499 106.242C499 98.4196 505.341 92.0781 513.164 92.0781H2212.84C2220.66 92.0781 2227 98.4196 2227 106.242V192.996H499V106.242Z"></path><path style="fill:var(--color-illustrationInterface030)" fill-rule="evenodd" clip-rule="evenodd" d="M954.365 278.078C945.327 278.078 938 290.637 938 306.128V487.217C938 502.709 945.327 515.268 954.365 515.268H1952.62C1961.66 515.268 1968.98 502.709 1968.98 487.217V306.128C1968.98 290.637 1961.66 278.078 1952.62 278.078H954.365ZM938.728 592.572C938.728 575.809 952.318 562.219 969.081 562.219H1224.62C1241.38 562.219 1254.97 575.809 1254.97 592.572V868.25C1254.97 885.014 1241.38 898.603 1224.62 898.603H969.081C952.318 898.603 938.728 885.014 938.728 868.25V592.572ZM1295.74 592.572C1295.74 575.809 1309.32 562.219 1326.09 562.219H1581.62C1598.39 562.219 1611.98 575.809 1611.98 592.572V868.25C1611.98 885.014 1598.39 898.603 1581.62 898.603H1326.09C1309.32 898.603 1295.74 885.014 1295.74 868.25V592.572ZM1683.1 562.219C1666.33 562.219 1652.74 575.809 1652.74 592.572V868.25C1652.74 885.014 1666.33 898.603 1683.1 898.603H1938.63C1955.4 898.603 1968.99 885.014 1968.99 868.25V592.572C1968.99 575.809 1955.4 562.219 1938.63 562.219H1683.1ZM938.727 973.331C938.727 956.568 952.316 942.978 969.08 942.978H1224.62C1241.38 942.978 1254.97 956.568 1254.97 973.331V1056.06H938.727V973.331ZM1326.09 942.978C1309.32 942.978 1295.74 956.568 1295.74 973.331V1056.06H1611.98V973.331C1611.98 956.568 1598.39 942.978 1581.62 942.978H1326.09ZM1652.74 973.331C1652.74 956.568 1666.33 942.978 1683.1 942.978H1938.63C1955.4 942.978 1968.99 956.568 1968.99 973.331V1056.06H1652.74V973.331Z"></path><g clip-path="url(#nk-214)"><path style="fill:var(--color-illustrationInterface010)" d="M499 193.078H888V912.078H499V193.078Z"></path><path style="fill:var(--color-illustrationHighlight010)" d="M552.714 236.86C554.973 236.86 556.954 237.301 558.658 238.184C560.383 239.067 561.707 240.33 562.631 241.972C563.576 243.594 564.048 245.483 564.048 247.639C564.048 249.795 563.576 251.684 562.631 253.306C561.707 254.907 560.383 256.15 558.658 257.033C556.954 257.915 554.973 258.357 552.714 258.357H545.199V236.86H552.714ZM552.56 254.692C554.819 254.692 556.564 254.076 557.796 252.844C559.028 251.612 559.644 249.877 559.644 247.639C559.644 245.401 559.028 243.656 557.796 242.403C556.564 241.13 554.819 240.494 552.56 240.494H549.511V254.692H552.56Z"></path><path style="fill:var(--color-illustrationHighlight010)" d="M583.137 249.456C583.137 250.072 583.096 250.626 583.013 251.119H570.54C570.643 252.351 571.074 253.316 571.834 254.014C572.593 254.712 573.527 255.061 574.636 255.061C576.238 255.061 577.377 254.374 578.055 252.998H582.705C582.213 254.641 581.268 255.996 579.872 257.063C578.476 258.11 576.761 258.634 574.729 258.634C573.086 258.634 571.608 258.275 570.294 257.556C569 256.817 567.984 255.78 567.245 254.445C566.526 253.111 566.167 251.571 566.167 249.826C566.167 248.06 566.526 246.51 567.245 245.175C567.963 243.841 568.969 242.814 570.263 242.095C571.556 241.377 573.045 241.017 574.729 241.017C576.351 241.017 577.798 241.366 579.071 242.065C580.365 242.763 581.361 243.758 582.059 245.052C582.777 246.325 583.137 247.793 583.137 249.456ZM578.671 248.224C578.65 247.115 578.25 246.233 577.47 245.576C576.689 244.898 575.735 244.559 574.605 244.559C573.538 244.559 572.634 244.888 571.895 245.545C571.177 246.181 570.735 247.074 570.571 248.224H578.671Z"></path><path style="fill:var(--color-illustrationHighlight010)" d="M585.175 249.826C585.175 248.06 585.534 246.52 586.253 245.206C586.972 243.871 587.967 242.845 589.24 242.126C590.513 241.387 591.971 241.017 593.614 241.017C595.729 241.017 597.474 241.551 598.85 242.619C600.246 243.666 601.18 245.144 601.652 247.054H597.002C596.755 246.315 596.334 245.74 595.739 245.329C595.164 244.898 594.445 244.682 593.583 244.682C592.351 244.682 591.376 245.134 590.657 246.038C589.939 246.92 589.579 248.183 589.579 249.826C589.579 251.448 589.939 252.711 590.657 253.614C591.376 254.497 592.351 254.938 593.583 254.938C595.328 254.938 596.468 254.158 597.002 252.598H601.652C601.18 254.445 600.246 255.914 598.85 257.002C597.453 258.09 595.708 258.634 593.614 258.634C591.971 258.634 590.513 258.275 589.24 257.556C587.967 256.817 586.972 255.79 586.253 254.476C585.534 253.142 585.175 251.591 585.175 249.826Z"></path><path style="fill:var(--color-illustrationHighlight010)" d="M612.387 258.634C610.745 258.634 609.266 258.275 607.952 257.556C606.638 256.817 605.601 255.78 604.842 254.445C604.103 253.111 603.733 251.571 603.733 249.826C603.733 248.08 604.113 246.541 604.873 245.206C605.653 243.871 606.71 242.845 608.045 242.126C609.379 241.387 610.868 241.017 612.511 241.017C614.153 241.017 615.642 241.387 616.976 242.126C618.311 242.845 619.358 243.871 620.118 245.206C620.898 246.541 621.288 248.08 621.288 249.826C621.288 251.571 620.888 253.111 620.087 254.445C619.307 255.78 618.239 256.817 616.884 257.556C615.549 258.275 614.05 258.634 612.387 258.634ZM612.387 254.877C613.168 254.877 613.896 254.692 614.574 254.322C615.272 253.932 615.826 253.357 616.237 252.598C616.648 251.838 616.853 250.914 616.853 249.826C616.853 248.204 616.422 246.961 615.56 246.099C614.718 245.216 613.681 244.775 612.449 244.775C611.217 244.775 610.18 245.216 609.338 246.099C608.517 246.961 608.106 248.204 608.106 249.826C608.106 251.448 608.507 252.7 609.308 253.583C610.129 254.445 611.155 254.877 612.387 254.877Z"></path><path style="fill:var(--color-illustrationHighlight010)" d="M628.763 243.943C629.317 243.04 630.036 242.331 630.919 241.818C631.822 241.305 632.849 241.048 633.998 241.048V245.576H632.859C631.504 245.576 630.477 245.894 629.779 246.53C629.101 247.167 628.763 248.276 628.763 249.857V258.357H624.451V241.295H628.763V243.943Z"></path><path style="fill:var(--color-illustrationHighlight010)" d="M635.794 249.764C635.794 248.039 636.133 246.51 636.81 245.175C637.508 243.841 638.443 242.814 639.613 242.095C640.804 241.377 642.128 241.017 643.586 241.017C644.859 241.017 645.968 241.274 646.912 241.787C647.877 242.301 648.647 242.947 649.222 243.728V241.295H653.565V258.357H649.222V255.862C648.668 256.663 647.898 257.33 646.912 257.864C645.947 258.377 644.828 258.634 643.555 258.634C642.118 258.634 640.804 258.264 639.613 257.525C638.443 256.786 637.508 255.749 636.81 254.415C636.133 253.06 635.794 251.509 635.794 249.764ZM649.222 249.826C649.222 248.779 649.017 247.885 648.606 247.146C648.195 246.387 647.641 245.812 646.943 245.422C646.245 245.011 645.495 244.806 644.695 244.806C643.894 244.806 643.155 245.001 642.477 245.391C641.8 245.781 641.245 246.356 640.814 247.115C640.403 247.855 640.198 248.738 640.198 249.764C640.198 250.791 640.403 251.694 640.814 252.474C641.245 253.234 641.8 253.819 642.477 254.23C643.175 254.641 643.914 254.846 644.695 254.846C645.495 254.846 646.245 254.651 646.943 254.261C647.641 253.85 648.195 253.275 648.606 252.536C649.017 251.776 649.222 250.873 649.222 249.826Z"></path><path style="fill:var(--color-illustrationHighlight010)" d="M662.796 244.836V253.09C662.796 253.665 662.929 254.086 663.196 254.353C663.484 254.599 663.956 254.723 664.613 254.723H666.615V258.357H663.905C660.27 258.357 658.453 256.591 658.453 253.06V244.836H656.421V241.295H658.453V237.075H662.796V241.295H666.615V244.836H662.796Z"></path><path style="fill:var(--color-illustrationHighlight010)" d="M671.903 239.262C671.143 239.262 670.507 239.026 669.993 238.554C669.501 238.061 669.254 237.455 669.254 236.736C669.254 236.018 669.501 235.422 669.993 234.95C670.507 234.457 671.143 234.211 671.903 234.211C672.663 234.211 673.289 234.457 673.782 234.95C674.295 235.422 674.551 236.018 674.551 236.736C674.551 237.455 674.295 238.061 673.782 238.554C673.289 239.026 672.663 239.262 671.903 239.262ZM674.028 241.295V258.357H669.716V241.295H674.028Z"></path><path style="fill:var(--color-illustrationHighlight010)" d="M685.864 258.634C684.222 258.634 682.743 258.275 681.429 257.556C680.115 256.817 679.078 255.78 678.319 254.445C677.58 253.111 677.21 251.571 677.21 249.826C677.21 248.08 677.59 246.541 678.35 245.206C679.13 243.871 680.187 242.845 681.522 242.126C682.856 241.387 684.345 241.017 685.988 241.017C687.63 241.017 689.119 241.387 690.453 242.126C691.788 242.845 692.835 243.871 693.595 245.206C694.375 246.541 694.765 248.08 694.765 249.826C694.765 251.571 694.365 253.111 693.564 254.445C692.784 255.78 691.716 256.817 690.361 257.556C689.026 258.275 687.527 258.634 685.864 258.634ZM685.864 254.877C686.645 254.877 687.373 254.692 688.051 254.322C688.749 253.932 689.304 253.357 689.714 252.598C690.125 251.838 690.33 250.914 690.33 249.826C690.33 248.204 689.899 246.961 689.037 246.099C688.195 245.216 687.158 244.775 685.926 244.775C684.694 244.775 683.657 245.216 682.815 246.099C681.994 246.961 681.583 248.204 681.583 249.826C681.583 251.448 681.984 252.7 682.785 253.583C683.606 254.445 684.632 254.877 685.864 254.877Z"></path><path style="fill:var(--color-illustrationHighlight010)" d="M707.383 241.048C709.416 241.048 711.058 241.695 712.311 242.988C713.563 244.261 714.189 246.048 714.189 248.347V258.357H709.878V248.933C709.878 247.577 709.539 246.541 708.861 245.822C708.184 245.083 707.26 244.713 706.09 244.713C704.899 244.713 703.954 245.083 703.256 245.822C702.579 246.541 702.24 247.577 702.24 248.933V258.357H697.928V241.295H702.24V243.42C702.815 242.68 703.544 242.106 704.426 241.695C705.33 241.264 706.315 241.048 707.383 241.048Z"></path><path style="fill:var(--color-illustrationHighlight010)" d="M880.15 300.873V193.079H887.85V300.873H880.15Z"></path><path style="fill:var(--color-illustrationSubtle010)" d="M558.473 345.158V348.639H549.511V354.152H556.379V357.57H549.511V366.656H545.199V345.158H558.473Z"></path><path style="fill:var(--color-illustrationSubtle010)" d="M577.638 349.593V366.656H573.296V364.5C572.741 365.239 572.013 365.824 571.109 366.255C570.226 366.666 569.261 366.871 568.214 366.871C566.879 366.871 565.699 366.594 564.672 366.04C563.646 365.465 562.835 364.633 562.239 363.545C561.664 362.436 561.377 361.122 561.377 359.603V349.593H565.689V358.987C565.689 360.342 566.027 361.389 566.705 362.128C567.382 362.847 568.306 363.206 569.477 363.206C570.668 363.206 571.602 362.847 572.279 362.128C572.957 361.389 573.296 360.342 573.296 358.987V349.593H577.638Z"></path><path style="fill:var(--color-illustrationSubtle010)" d="M586.204 352.242C586.759 351.339 587.477 350.63 588.36 350.117C589.264 349.604 590.29 349.347 591.44 349.347V353.874H590.301C588.945 353.874 587.919 354.193 587.221 354.829C586.543 355.466 586.204 356.574 586.204 358.155V366.656H581.893V349.593H586.204V352.242Z"></path><path style="fill:var(--color-illustrationSubtle010)" d="M603.799 349.347C605.832 349.347 607.475 349.994 608.727 351.287C609.98 352.56 610.606 354.347 610.606 356.646V366.656H606.294V357.231C606.294 355.876 605.955 354.839 605.278 354.121C604.6 353.382 603.676 353.012 602.506 353.012C601.315 353.012 600.371 353.382 599.672 354.121C598.995 354.839 598.656 355.876 598.656 357.231V366.656H594.344V349.593H598.656V351.718C599.231 350.979 599.96 350.404 600.843 349.994C601.746 349.563 602.732 349.347 603.799 349.347Z"></path><path style="fill:var(--color-illustrationSubtle010)" d="M616.893 347.561C616.133 347.561 615.497 347.325 614.983 346.852C614.491 346.36 614.244 345.754 614.244 345.035C614.244 344.317 614.491 343.721 614.983 343.249C615.497 342.756 616.133 342.51 616.893 342.51C617.653 342.51 618.279 342.756 618.772 343.249C619.285 343.721 619.541 344.317 619.541 345.035C619.541 345.754 619.285 346.36 618.772 346.852C618.279 347.325 617.653 347.561 616.893 347.561ZM619.018 349.593V366.656H614.706V349.593H619.018Z"></path><path style="fill:var(--color-illustrationSubtle010)" d="M628.298 353.135V361.389C628.298 361.964 628.432 362.385 628.698 362.652C628.986 362.898 629.458 363.021 630.115 363.021H632.117V366.656H629.407C625.773 366.656 623.956 364.89 623.956 361.358V353.135H621.923V349.593H623.956V345.374H628.298V349.593H632.117V353.135H628.298Z"></path><path style="fill:var(--color-illustrationSubtle010)" d="M651.326 349.593V366.656H646.983V364.5C646.429 365.239 645.7 365.824 644.797 366.255C643.914 366.666 642.949 366.871 641.902 366.871C640.567 366.871 639.386 366.594 638.36 366.04C637.333 365.465 636.522 364.633 635.927 363.545C635.352 362.436 635.064 361.122 635.064 359.603V349.593H639.376V358.987C639.376 360.342 639.715 361.389 640.392 362.128C641.07 362.847 641.994 363.206 643.164 363.206C644.355 363.206 645.289 362.847 645.967 362.128C646.645 361.389 646.983 360.342 646.983 358.987V349.593H651.326Z"></path><path style="fill:var(--color-illustrationSubtle010)" d="M659.892 352.242C660.446 351.339 661.165 350.63 662.048 350.117C662.951 349.604 663.978 349.347 665.128 349.347V353.874H663.988C662.633 353.874 661.606 354.193 660.908 354.829C660.231 355.466 659.892 356.574 659.892 358.155V366.656H655.58V349.593H659.892V352.242Z"></path><path style="fill:var(--color-illustrationSubtle010)" d="M683.893 357.755C683.893 358.371 683.852 358.925 683.77 359.418H671.296C671.399 360.65 671.83 361.615 672.59 362.313C673.35 363.011 674.284 363.36 675.393 363.36C676.994 363.36 678.134 362.672 678.811 361.297H683.462C682.969 362.939 682.025 364.294 680.628 365.362C679.232 366.409 677.518 366.933 675.485 366.933C673.842 366.933 672.364 366.574 671.05 365.855C669.757 365.116 668.74 364.079 668.001 362.744C667.282 361.41 666.923 359.87 666.923 358.125C666.923 356.359 667.282 354.809 668.001 353.474C668.72 352.139 669.726 351.113 671.019 350.394C672.313 349.676 673.801 349.316 675.485 349.316C677.107 349.316 678.555 349.665 679.828 350.363C681.121 351.061 682.117 352.057 682.815 353.351C683.534 354.624 683.893 356.092 683.893 357.755ZM679.427 356.523C679.407 355.414 679.006 354.531 678.226 353.874C677.446 353.197 676.491 352.858 675.362 352.858C674.294 352.858 673.391 353.187 672.652 353.844C671.933 354.48 671.492 355.373 671.327 356.523H679.427Z"></path><path style="fill:var(--color-illustrationSubtle010)" d="M563.031 452.951V474.449H558.72V465.302H549.511V474.449H545.199V452.951H549.511V461.791H558.72V452.951H563.031Z"></path><path style="fill:var(--color-illustrationSubtle010)" d="M574.852 474.726C573.209 474.726 571.731 474.367 570.417 473.648C569.103 472.909 568.066 471.872 567.306 470.537C566.567 469.203 566.197 467.663 566.197 465.918C566.197 464.172 566.577 462.632 567.337 461.298C568.117 459.963 569.175 458.937 570.509 458.218C571.844 457.479 573.332 457.109 574.975 457.109C576.618 457.109 578.106 457.479 579.441 458.218C580.775 458.937 581.823 459.963 582.582 461.298C583.362 462.632 583.753 464.172 583.753 465.918C583.753 467.663 583.352 469.203 582.551 470.537C581.771 471.872 580.704 472.909 579.348 473.648C578.014 474.367 576.515 474.726 574.852 474.726ZM574.852 470.968C575.632 470.968 576.361 470.784 577.038 470.414C577.737 470.024 578.291 469.449 578.702 468.689C579.112 467.93 579.318 467.006 579.318 465.918C579.318 464.295 578.886 463.053 578.024 462.191C577.182 461.308 576.145 460.867 574.913 460.867C573.681 460.867 572.645 461.308 571.803 462.191C570.981 463.053 570.571 464.295 570.571 465.918C570.571 467.54 570.971 468.792 571.772 469.675C572.593 470.537 573.62 470.968 574.852 470.968Z"></path><path style="fill:var(--color-illustrationSubtle010)" d="M608.105 457.14C610.199 457.14 611.883 457.787 613.156 459.08C614.449 460.353 615.096 462.14 615.096 464.439V474.449H610.784V465.024C610.784 463.69 610.445 462.673 609.768 461.975C609.09 461.257 608.166 460.897 606.996 460.897C605.826 460.897 604.891 461.257 604.193 461.975C603.516 462.673 603.177 463.69 603.177 465.024V474.449H598.865V465.024C598.865 463.69 598.526 462.673 597.849 461.975C597.171 461.257 596.247 460.897 595.077 460.897C593.886 460.897 592.942 461.257 592.244 461.975C591.566 462.673 591.227 463.69 591.227 465.024V474.449H586.915V457.386H591.227V459.45C591.782 458.731 592.49 458.167 593.352 457.756C594.235 457.345 595.2 457.14 596.247 457.14C597.582 457.14 598.773 457.427 599.82 458.002C600.867 458.557 601.678 459.357 602.253 460.405C602.807 459.419 603.608 458.629 604.655 458.033C605.723 457.438 606.873 457.14 608.105 457.14Z"></path><path style="fill:var(--color-illustrationSubtle010)" d="M635.049 465.548C635.049 466.164 635.008 466.718 634.926 467.211H622.452C622.555 468.443 622.986 469.408 623.746 470.106C624.505 470.804 625.44 471.153 626.548 471.153C628.15 471.153 629.289 470.465 629.967 469.09H634.618C634.125 470.732 633.18 472.087 631.784 473.155C630.388 474.202 628.673 474.726 626.641 474.726C624.998 474.726 623.52 474.367 622.206 473.648C620.912 472.909 619.896 471.872 619.157 470.537C618.438 469.203 618.079 467.663 618.079 465.918C618.079 464.152 618.438 462.602 619.157 461.267C619.875 459.932 620.881 458.906 622.175 458.187C623.469 457.468 624.957 457.109 626.641 457.109C628.263 457.109 629.71 457.458 630.983 458.156C632.277 458.854 633.273 459.85 633.971 461.144C634.689 462.417 635.049 463.885 635.049 465.548ZM630.583 464.316C630.562 463.207 630.162 462.324 629.382 461.667C628.602 460.99 627.647 460.651 626.518 460.651C625.45 460.651 624.546 460.98 623.807 461.637C623.089 462.273 622.647 463.166 622.483 464.316H630.583Z"></path><path style="fill:var(--color-illustrationSubtle010)" d="M661.396 465.548C661.396 466.164 661.355 466.718 661.273 467.211H648.799C648.902 468.443 649.333 469.408 650.093 470.106C650.852 470.804 651.787 471.153 652.895 471.153C654.497 471.153 655.636 470.465 656.314 469.09H660.965C660.472 470.732 659.527 472.087 658.131 473.155C656.735 474.202 655.021 474.726 652.988 474.726C651.345 474.726 649.867 474.367 648.553 473.648C647.259 472.909 646.243 471.872 645.504 470.537C644.785 469.203 644.426 467.663 644.426 465.918C644.426 464.152 644.785 462.602 645.504 461.267C646.222 459.932 647.229 458.906 648.522 458.187C649.816 457.468 651.304 457.109 652.988 457.109C654.61 457.109 656.057 457.458 657.33 458.156C658.624 458.854 659.62 459.85 660.318 461.144C661.036 462.417 661.396 463.885 661.396 465.548ZM656.93 464.316C656.909 463.207 656.509 462.324 655.729 461.667C654.949 460.99 653.994 460.651 652.865 460.651C651.797 460.651 650.894 460.98 650.154 461.637C649.436 462.273 648.994 463.166 648.83 464.316H656.93Z"></path><path style="fill:var(--color-illustrationSubtle010)" d="M668.855 451.658V474.449H664.543V451.658H668.855Z"></path><path style="fill:var(--color-illustrationSubtle010)" d="M688.976 465.548C688.976 466.164 688.935 466.718 688.853 467.211H676.379C676.482 468.443 676.913 469.408 677.673 470.106C678.433 470.804 679.367 471.153 680.476 471.153C682.077 471.153 683.217 470.465 683.894 469.09H688.545C688.052 470.732 687.108 472.087 685.711 473.155C684.315 474.202 682.601 474.726 680.568 474.726C678.925 474.726 677.447 474.367 676.133 473.648C674.84 472.909 673.823 471.872 673.084 470.537C672.365 469.203 672.006 467.663 672.006 465.918C672.006 464.152 672.365 462.602 673.084 461.267C673.803 459.932 674.809 458.906 676.102 458.187C677.396 457.468 678.884 457.109 680.568 457.109C682.19 457.109 683.638 457.458 684.911 458.156C686.204 458.854 687.2 459.85 687.898 461.144C688.617 462.417 688.976 463.885 688.976 465.548ZM684.51 464.316C684.49 463.207 684.089 462.324 683.309 461.667C682.529 460.99 681.574 460.651 680.445 460.651C679.377 460.651 678.474 460.98 677.735 461.637C677.016 462.273 676.574 463.166 676.41 464.316H684.51Z"></path><path style="fill:var(--color-illustrationSubtle010)" d="M691.014 465.918C691.014 464.152 691.374 462.612 692.092 461.298C692.811 459.963 693.807 458.937 695.08 458.218C696.353 457.479 697.811 457.109 699.453 457.109C701.568 457.109 703.313 457.643 704.689 458.711C706.085 459.758 707.019 461.236 707.492 463.146H702.841C702.595 462.407 702.174 461.832 701.578 461.421C701.003 460.99 700.285 460.774 699.422 460.774C698.19 460.774 697.215 461.226 696.497 462.129C695.778 463.012 695.419 464.275 695.419 465.918C695.419 467.54 695.778 468.802 696.497 469.706C697.215 470.589 698.19 471.03 699.422 471.03C701.168 471.03 702.307 470.25 702.841 468.689H707.492C707.019 470.537 706.085 472.005 704.689 473.094C703.293 474.182 701.547 474.726 699.453 474.726C697.811 474.726 696.353 474.367 695.08 473.648C693.807 472.909 692.811 471.882 692.092 470.568C691.374 469.233 691.014 467.683 691.014 465.918Z"></path><path style="fill:var(--color-illustrationSubtle010)" d="M715.67 460.928V469.182C715.67 469.757 715.804 470.178 716.071 470.445C716.358 470.691 716.831 470.814 717.488 470.814H719.489V474.449H716.779C713.145 474.449 711.328 472.683 711.328 469.151V460.928H709.295V457.386H711.328V453.167H715.67V457.386H719.489V460.928H715.67Z"></path><path style="fill:var(--color-illustrationSubtle010)" d="M726.902 460.035C727.457 459.132 728.176 458.423 729.058 457.91C729.962 457.397 730.988 457.14 732.138 457.14V461.667H730.999C729.644 461.667 728.617 461.986 727.919 462.622C727.241 463.259 726.902 464.367 726.902 465.948V474.449H722.591V457.386H726.902V460.035Z"></path><path style="fill:var(--color-illustrationSubtle010)" d="M742.619 474.726C740.976 474.726 739.498 474.367 738.184 473.648C736.87 472.909 735.833 471.872 735.073 470.537C734.334 469.203 733.964 467.663 733.964 465.918C733.964 464.172 734.344 462.632 735.104 461.298C735.884 459.963 736.942 458.937 738.276 458.218C739.611 457.479 741.099 457.109 742.742 457.109C744.385 457.109 745.873 457.479 747.208 458.218C748.542 458.937 749.59 459.963 750.349 461.298C751.129 462.632 751.52 464.172 751.52 465.918C751.52 467.663 751.119 469.203 750.318 470.537C749.538 471.872 748.471 472.909 747.115 473.648C745.781 474.367 744.282 474.726 742.619 474.726ZM742.619 470.968C743.399 470.968 744.128 470.784 744.806 470.414C745.504 470.024 746.058 469.449 746.469 468.689C746.879 467.93 747.085 467.006 747.085 465.918C747.085 464.295 746.653 463.053 745.791 462.191C744.949 461.308 743.912 460.867 742.68 460.867C741.448 460.867 740.412 461.308 739.57 462.191C738.748 463.053 738.338 464.295 738.338 465.918C738.338 467.54 738.738 468.792 739.539 469.675C740.36 470.537 741.387 470.968 742.619 470.968Z"></path><path style="fill:var(--color-illustrationSubtle010)" d="M764.138 457.14C766.17 457.14 767.813 457.787 769.065 459.08C770.318 460.353 770.944 462.14 770.944 464.439V474.449H766.632V465.024C766.632 463.669 766.293 462.632 765.616 461.914C764.938 461.175 764.014 460.805 762.844 460.805C761.653 460.805 760.709 461.175 760.011 461.914C759.333 462.632 758.994 463.669 758.994 465.024V474.449H754.682V457.386H758.994V459.511C759.569 458.772 760.298 458.197 761.181 457.787C762.084 457.356 763.07 457.14 764.138 457.14Z"></path><path style="fill:var(--color-illustrationSubtle010)" d="M777.231 455.354C776.471 455.354 775.835 455.118 775.321 454.645C774.829 454.153 774.582 453.547 774.582 452.828C774.582 452.11 774.829 451.514 775.321 451.042C775.835 450.549 776.471 450.303 777.231 450.303C777.991 450.303 778.617 450.549 779.11 451.042C779.623 451.514 779.88 452.11 779.88 452.828C779.88 453.547 779.623 454.153 779.11 454.645C778.617 455.118 777.991 455.354 777.231 455.354ZM779.356 457.386V474.449H775.044V457.386H779.356Z"></path><path style="fill:var(--color-illustrationSubtle010)" d="M785.526 474.664C784.745 474.664 784.099 474.428 783.585 473.956C783.092 473.463 782.846 472.857 782.846 472.139C782.846 471.42 783.092 470.825 783.585 470.352C784.099 469.86 784.745 469.613 785.526 469.613C786.285 469.613 786.911 469.86 787.404 470.352C787.897 470.825 788.143 471.42 788.143 472.139C788.143 472.857 787.897 473.463 787.404 473.956C786.911 474.428 786.285 474.664 785.526 474.664Z"></path><path style="fill:var(--color-illustrationSubtle010)" d="M793.526 474.664C792.746 474.664 792.099 474.428 791.586 473.956C791.093 473.463 790.846 472.857 790.846 472.139C790.846 471.42 791.093 470.825 791.586 470.352C792.099 469.86 792.746 469.613 793.526 469.613C794.286 469.613 794.912 469.86 795.405 470.352C795.897 470.825 796.144 471.42 796.144 472.139C796.144 472.857 795.897 473.463 795.405 473.956C794.912 474.428 794.286 474.664 793.526 474.664Z"></path><path style="fill:var(--color-illustrationSubtle010)" d="M801.526 474.664C800.746 474.664 800.099 474.428 799.586 473.956C799.093 473.463 798.847 472.857 798.847 472.139C798.847 471.42 799.093 470.825 799.586 470.352C800.099 469.86 800.746 469.613 801.526 469.613C802.286 469.613 802.912 469.86 803.405 470.352C803.898 470.825 804.144 471.42 804.144 472.139C804.144 472.857 803.898 473.463 803.405 473.956C802.912 474.428 802.286 474.664 801.526 474.664Z"></path><path style="fill:var(--color-illustrationSubtle010)" d="M557.334 582.244L549.511 572.665V582.244H545.199V560.746H549.511V570.386L557.334 560.746H562.539L553.669 571.403L562.785 582.244H557.334Z"></path><path style="fill:var(--color-illustrationSubtle010)" d="M567.808 563.149C567.048 563.149 566.412 562.912 565.898 562.44C565.406 561.947 565.159 561.342 565.159 560.623C565.159 559.904 565.406 559.309 565.898 558.837C566.412 558.344 567.048 558.098 567.808 558.098C568.568 558.098 569.194 558.344 569.687 558.837C570.2 559.309 570.457 559.904 570.457 560.623C570.457 561.342 570.2 561.947 569.687 562.44C569.194 562.912 568.568 563.149 567.808 563.149ZM569.933 565.181V582.244H565.621V565.181H569.933Z"></path><path style="fill:var(--color-illustrationSubtle010)" d="M579.213 568.723V576.977C579.213 577.552 579.347 577.973 579.614 578.24C579.901 578.486 580.373 578.609 581.03 578.609H583.032V582.244H580.322C576.688 582.244 574.871 580.478 574.871 576.946V568.723H572.838V565.181H574.871V560.962H579.213V565.181H583.032V568.723H579.213Z"></path><path style="fill:var(--color-illustrationSubtle010)" d="M585.025 573.712C585.025 571.947 585.384 570.407 586.103 569.093C586.821 567.758 587.817 566.731 589.09 566.013C590.363 565.274 591.821 564.904 593.463 564.904C595.578 564.904 597.323 565.438 598.699 566.506C600.095 567.553 601.03 569.031 601.502 570.941H596.851C596.605 570.201 596.184 569.627 595.589 569.216C595.014 568.785 594.295 568.569 593.433 568.569C592.201 568.569 591.225 569.021 590.507 569.924C589.788 570.807 589.429 572.07 589.429 573.712C589.429 575.334 589.788 576.597 590.507 577.501C591.225 578.384 592.201 578.825 593.433 578.825C595.178 578.825 596.317 578.045 596.851 576.484H601.502C601.03 578.332 600.095 579.8 598.699 580.888C597.303 581.977 595.558 582.521 593.463 582.521C591.821 582.521 590.363 582.161 589.09 581.443C587.817 580.704 586.821 579.677 586.103 578.363C585.384 577.028 585.025 575.478 585.025 573.712Z"></path><path style="fill:var(--color-illustrationSubtle010)" d="M614.27 564.935C615.563 564.935 616.713 565.222 617.719 565.797C618.725 566.352 619.505 567.183 620.06 568.292C620.635 569.38 620.922 570.694 620.922 572.234V582.244H616.61V572.819C616.61 571.464 616.272 570.427 615.594 569.709C614.916 568.969 613.992 568.6 612.822 568.6C611.631 568.6 610.687 568.969 609.989 569.709C609.311 570.427 608.972 571.464 608.972 572.819V582.244H604.661V559.453H608.972V567.306C609.527 566.567 610.266 565.992 611.19 565.582C612.114 565.15 613.14 564.935 614.27 564.935Z"></path><path style="fill:var(--color-illustrationSubtle010)" d="M640.884 573.343C640.884 573.959 640.842 574.513 640.76 575.006H628.287C628.39 576.238 628.821 577.203 629.581 577.901C630.34 578.599 631.274 578.948 632.383 578.948C633.985 578.948 635.124 578.26 635.802 576.885H640.452C639.96 578.527 639.015 579.882 637.619 580.95C636.223 581.997 634.508 582.521 632.476 582.521C630.833 582.521 629.355 582.161 628.041 581.443C626.747 580.704 625.731 579.667 624.992 578.332C624.273 576.998 623.914 575.458 623.914 573.712C623.914 571.947 624.273 570.396 624.992 569.062C625.71 567.727 626.716 566.701 628.01 565.982C629.303 565.263 630.792 564.904 632.476 564.904C634.098 564.904 635.545 565.253 636.818 565.951C638.112 566.649 639.108 567.645 639.806 568.939C640.524 570.212 640.884 571.68 640.884 573.343ZM636.418 572.111C636.397 571.002 635.997 570.119 635.217 569.462C634.436 568.785 633.482 568.446 632.352 568.446C631.285 568.446 630.381 568.774 629.642 569.431C628.924 570.068 628.482 570.961 628.318 572.111H636.418Z"></path><path style="fill:var(--color-illustrationSubtle010)" d="M653.486 564.935C655.519 564.935 657.161 565.582 658.414 566.875C659.666 568.148 660.292 569.935 660.292 572.234V582.244H655.981V572.819C655.981 571.464 655.642 570.427 654.964 569.709C654.287 568.969 653.363 568.6 652.192 568.6C651.001 568.6 650.057 568.969 649.359 569.709C648.681 570.427 648.343 571.464 648.343 572.819V582.244H644.031V565.181H648.343V567.306C648.917 566.567 649.646 565.992 650.529 565.582C651.433 565.15 652.418 564.935 653.486 564.935Z"></path><path style="fill:var(--color-illustrationSubtle010)" d="M556.287 685.867L551.544 677.49H549.511V685.867H545.199V664.37H553.268C554.932 664.37 556.348 664.668 557.519 665.263C558.689 665.838 559.562 666.629 560.136 667.635C560.732 668.62 561.03 669.729 561.03 670.961C561.03 672.378 560.619 673.661 559.798 674.811C558.976 675.94 557.755 676.72 556.133 677.151L561.276 685.867H556.287ZM549.511 674.256H553.114C554.285 674.256 555.157 673.979 555.732 673.425C556.307 672.85 556.595 672.059 556.595 671.053C556.595 670.068 556.307 669.308 555.732 668.774C555.157 668.22 554.285 667.943 553.114 667.943H549.511V674.256Z"></path><path style="fill:var(--color-illustrationSubtle010)" d="M581.037 668.805V685.867H576.694V683.712C576.14 684.451 575.411 685.036 574.508 685.467C573.625 685.878 572.66 686.083 571.613 686.083C570.278 686.083 569.097 685.806 568.071 685.251C567.044 684.677 566.233 683.845 565.638 682.757C565.063 681.648 564.775 680.334 564.775 678.815V668.805H569.087V678.199C569.087 679.554 569.426 680.601 570.104 681.34C570.781 682.059 571.705 682.418 572.875 682.418C574.066 682.418 575.001 682.059 575.678 681.34C576.356 680.601 576.694 679.554 576.694 678.199V668.805H581.037Z"></path><path style="fill:var(--color-illustrationSubtle010)" d="M591.975 668.528C593.248 668.528 594.367 668.785 595.332 669.298C596.297 669.791 597.056 670.437 597.611 671.238V668.805H601.953V685.991C601.953 687.572 601.635 688.978 600.998 690.21C600.362 691.462 599.407 692.448 598.134 693.167C596.861 693.906 595.321 694.275 593.514 694.275C591.092 694.275 589.1 693.711 587.54 692.581C586 691.452 585.127 689.912 584.922 687.962H589.203C589.429 688.742 589.911 689.358 590.65 689.81C591.41 690.282 592.324 690.518 593.391 690.518C594.644 690.518 595.66 690.138 596.44 689.378C597.221 688.639 597.611 687.51 597.611 685.991V683.342C597.056 684.143 596.286 684.81 595.301 685.344C594.336 685.878 593.227 686.145 591.975 686.145C590.537 686.145 589.223 685.775 588.032 685.036C586.841 684.297 585.897 683.26 585.199 681.925C584.521 680.57 584.183 679.02 584.183 677.275C584.183 675.55 584.521 674.02 585.199 672.686C585.897 671.351 586.831 670.325 588.002 669.606C589.192 668.887 590.517 668.528 591.975 668.528ZM597.611 677.336C597.611 676.289 597.405 675.396 596.995 674.657C596.584 673.897 596.03 673.322 595.332 672.932C594.633 672.521 593.884 672.316 593.083 672.316C592.282 672.316 591.543 672.511 590.866 672.901C590.188 673.291 589.634 673.866 589.203 674.626C588.792 675.365 588.587 676.248 588.587 677.275C588.587 678.301 588.792 679.205 589.203 679.985C589.634 680.745 590.188 681.33 590.866 681.74C591.564 682.151 592.303 682.356 593.083 682.356C593.884 682.356 594.633 682.161 595.332 681.771C596.03 681.361 596.584 680.786 596.995 680.047C597.405 679.287 597.611 678.383 597.611 677.336Z"></path><path style="fill:var(--color-illustrationSubtle010)" d="M612.694 686.145C611.297 686.145 610.045 685.898 608.936 685.405C607.828 684.892 606.945 684.204 606.288 683.342C605.651 682.48 605.302 681.525 605.24 680.478H609.583C609.665 681.135 609.983 681.679 610.538 682.11C611.113 682.541 611.821 682.757 612.663 682.757C613.484 682.757 614.121 682.593 614.572 682.264C615.045 681.935 615.281 681.515 615.281 681.001C615.281 680.447 614.993 680.036 614.418 679.769C613.864 679.482 612.971 679.174 611.739 678.845C610.466 678.537 609.419 678.219 608.597 677.891C607.797 677.562 607.099 677.059 606.503 676.382C605.928 675.704 605.641 674.79 605.641 673.64C605.641 672.696 605.908 671.834 606.442 671.053C606.996 670.273 607.776 669.657 608.782 669.205C609.809 668.754 611.01 668.528 612.386 668.528C614.418 668.528 616.04 669.041 617.252 670.068C618.463 671.074 619.131 672.439 619.254 674.164H615.127C615.065 673.486 614.778 672.953 614.264 672.563C613.772 672.152 613.104 671.947 612.262 671.947C611.482 671.947 610.877 672.09 610.445 672.378C610.035 672.665 609.829 673.066 609.829 673.579C609.829 674.154 610.117 674.595 610.692 674.903C611.267 675.191 612.16 675.488 613.371 675.796C614.603 676.104 615.619 676.423 616.42 676.751C617.221 677.08 617.909 677.593 618.484 678.291C619.079 678.969 619.387 679.872 619.408 681.001C619.408 681.987 619.131 682.87 618.576 683.65C618.042 684.43 617.262 685.046 616.235 685.498C615.229 685.929 614.049 686.145 612.694 686.145Z"></path><path style="fill:var(--color-illustrationSubtle010)" d="M627.659 681.34L624.056 689.994H621.284L623.286 681.34H627.659Z"></path><path style="fill:var(--color-illustrationSubtle010)" d="M659.295 668.559C661.389 668.559 663.073 669.205 664.346 670.499C665.639 671.772 666.286 673.558 666.286 675.858V685.867H661.974V676.443C661.974 675.109 661.636 674.092 660.958 673.394C660.281 672.675 659.357 672.316 658.186 672.316C657.016 672.316 656.082 672.675 655.384 673.394C654.706 674.092 654.367 675.109 654.367 676.443V685.867H650.055V676.443C650.055 675.109 649.717 674.092 649.039 673.394C648.362 672.675 647.438 672.316 646.267 672.316C645.076 672.316 644.132 672.675 643.434 673.394C642.756 674.092 642.417 675.109 642.417 676.443V685.867H638.106V668.805H642.417V670.869C642.972 670.15 643.68 669.585 644.543 669.175C645.425 668.764 646.39 668.559 647.438 668.559C648.772 668.559 649.963 668.846 651.01 669.421C652.057 669.975 652.868 670.776 653.443 671.823C653.998 670.838 654.798 670.047 655.846 669.452C656.913 668.856 658.063 668.559 659.295 668.559Z"></path><path style="fill:var(--color-illustrationSubtle010)" d="M669.269 677.275C669.269 675.55 669.608 674.02 670.285 672.686C670.984 671.351 671.918 670.325 673.088 669.606C674.279 668.887 675.603 668.528 677.061 668.528C678.334 668.528 679.443 668.785 680.387 669.298C681.352 669.811 682.122 670.458 682.697 671.238V668.805H687.04V685.867H682.697V683.373C682.143 684.174 681.373 684.841 680.387 685.375C679.422 685.888 678.303 686.145 677.03 686.145C675.593 686.145 674.279 685.775 673.088 685.036C671.918 684.297 670.984 683.26 670.285 681.925C669.608 680.57 669.269 679.02 669.269 677.275ZM682.697 677.336C682.697 676.289 682.492 675.396 682.081 674.657C681.671 673.897 681.116 673.322 680.418 672.932C679.72 672.521 678.971 672.316 678.17 672.316C677.369 672.316 676.63 672.511 675.952 672.901C675.275 673.291 674.72 673.866 674.289 674.626C673.879 675.365 673.673 676.248 673.673 677.275C673.673 678.301 673.879 679.205 674.289 679.985C674.72 680.745 675.275 681.33 675.952 681.74C676.65 682.151 677.39 682.356 678.17 682.356C678.971 682.356 679.72 682.161 680.418 681.771C681.116 681.361 681.671 680.786 682.081 680.047C682.492 679.287 682.697 678.383 682.697 677.336Z"></path><path style="fill:var(--color-illustrationSubtle010)" d="M696.271 672.347V680.601C696.271 681.176 696.405 681.597 696.671 681.864C696.959 682.11 697.431 682.233 698.088 682.233H700.09V685.867H697.38C693.746 685.867 691.929 684.102 691.929 680.57V672.347H689.896V668.805H691.929V664.586H696.271V668.805H700.09V672.347H696.271Z"></path><path style="fill:var(--color-illustrationSubtle010)" d="M709.721 686.145C708.324 686.145 707.072 685.898 705.963 685.405C704.854 684.892 703.972 684.204 703.315 683.342C702.678 682.48 702.329 681.525 702.267 680.478H706.61C706.692 681.135 707.01 681.679 707.565 682.11C708.14 682.541 708.848 682.757 709.69 682.757C710.511 682.757 711.148 682.593 711.599 682.264C712.072 681.935 712.308 681.515 712.308 681.001C712.308 680.447 712.02 680.036 711.445 679.769C710.891 679.482 709.998 679.174 708.766 678.845C707.493 678.537 706.446 678.219 705.624 677.891C704.824 677.562 704.126 677.059 703.53 676.382C702.955 675.704 702.668 674.79 702.668 673.64C702.668 672.696 702.935 671.834 703.469 671.053C704.023 670.273 704.803 669.657 705.809 669.205C706.836 668.754 708.037 668.528 709.413 668.528C711.445 668.528 713.067 669.041 714.279 670.068C715.49 671.074 716.157 672.439 716.281 674.164H712.154C712.092 673.486 711.805 672.953 711.291 672.563C710.799 672.152 710.131 671.947 709.289 671.947C708.509 671.947 707.904 672.09 707.472 672.378C707.062 672.665 706.856 673.066 706.856 673.579C706.856 674.154 707.144 674.595 707.719 674.903C708.294 675.191 709.187 675.488 710.398 675.796C711.63 676.104 712.646 676.423 713.447 676.751C714.248 677.08 714.936 677.593 715.511 678.291C716.106 678.969 716.414 679.872 716.435 681.001C716.435 681.987 716.157 682.87 715.603 683.65C715.069 684.43 714.289 685.046 713.262 685.498C712.256 685.929 711.076 686.145 709.721 686.145Z"></path><path style="fill:var(--color-illustrationSubtle010)" d="M743.851 685.867L741.511 683.558C739.519 685.344 737.086 686.237 734.212 686.237C732.631 686.237 731.234 685.97 730.023 685.436C728.832 684.882 727.908 684.112 727.251 683.126C726.594 682.12 726.266 680.96 726.266 679.646C726.266 678.229 726.666 676.956 727.467 675.827C728.267 674.698 729.448 673.784 731.009 673.086C730.454 672.409 730.054 671.762 729.807 671.146C729.561 670.509 729.438 669.832 729.438 669.113C729.438 668.128 729.694 667.245 730.208 666.464C730.721 665.664 731.45 665.037 732.394 664.586C733.359 664.134 734.479 663.908 735.752 663.908C737.045 663.908 738.154 664.155 739.078 664.647C740.002 665.14 740.69 665.797 741.141 666.618C741.593 667.44 741.788 668.353 741.726 669.359H737.538C737.558 668.682 737.394 668.169 737.045 667.82C736.696 667.45 736.224 667.265 735.628 667.265C735.053 667.265 734.571 667.44 734.181 667.789C733.811 668.117 733.626 668.548 733.626 669.082C733.626 669.596 733.78 670.109 734.088 670.622C734.396 671.115 734.899 671.731 735.598 672.47L741.018 677.829C741.059 677.788 741.09 677.747 741.11 677.706C741.131 677.665 741.151 677.624 741.172 677.583L742.928 674.657H747.424L745.268 678.445C744.858 679.246 744.416 680.005 743.944 680.724L749.149 685.867H743.851ZM734.335 682.664C736.018 682.664 737.507 682.069 738.801 680.878L733.503 675.642C731.512 676.525 730.516 677.778 730.516 679.4C730.516 680.324 730.865 681.104 731.563 681.74C732.261 682.356 733.185 682.664 734.335 682.664Z"></path><path style="fill:var(--color-illustrationSubtle010)" d="M766.445 672.347H763.458V685.867H759.084V672.347H757.144V668.805H759.084V667.943C759.084 665.848 759.68 664.309 760.871 663.323C762.062 662.337 763.858 661.875 766.26 661.937V665.571C765.213 665.551 764.484 665.725 764.074 666.095C763.663 666.464 763.458 667.132 763.458 668.097V668.805H766.445V672.347Z"></path><path style="fill:var(--color-illustrationSubtle010)" d="M773.551 663.077V685.867H769.239V663.077H773.551Z"></path><path style="fill:var(--color-illustrationSubtle010)" d="M785.388 686.145C783.745 686.145 782.267 685.785 780.953 685.067C779.639 684.328 778.602 683.291 777.842 681.956C777.103 680.621 776.733 679.082 776.733 677.336C776.733 675.591 777.113 674.051 777.873 672.717C778.653 671.382 779.711 670.355 781.045 669.637C782.38 668.898 783.868 668.528 785.511 668.528C787.153 668.528 788.642 668.898 789.977 669.637C791.311 670.355 792.358 671.382 793.118 672.717C793.898 674.051 794.288 675.591 794.288 677.336C794.288 679.082 793.888 680.621 793.087 681.956C792.307 683.291 791.239 684.328 789.884 685.067C788.55 685.785 787.051 686.145 785.388 686.145ZM785.388 682.387C786.168 682.387 786.897 682.202 787.574 681.833C788.272 681.443 788.827 680.868 789.237 680.108C789.648 679.348 789.853 678.424 789.853 677.336C789.853 675.714 789.422 674.472 788.56 673.61C787.718 672.727 786.681 672.285 785.449 672.285C784.217 672.285 783.18 672.727 782.339 673.61C781.517 674.472 781.107 675.714 781.107 677.336C781.107 678.958 781.507 680.211 782.308 681.094C783.129 681.956 784.156 682.387 785.388 682.387Z"></path><path style="fill:var(--color-illustrationSubtle010)" d="M799.361 686.083C798.581 686.083 797.934 685.847 797.42 685.375C796.928 684.882 796.681 684.276 796.681 683.558C796.681 682.839 796.928 682.243 797.42 681.771C797.934 681.278 798.581 681.032 799.361 681.032C800.12 681.032 800.747 681.278 801.239 681.771C801.732 682.243 801.979 682.839 801.979 683.558C801.979 684.276 801.732 684.882 801.239 685.375C800.747 685.847 800.12 686.083 799.361 686.083Z"></path><path style="fill:var(--color-illustrationSubtle010)" d="M807.361 686.083C806.581 686.083 805.934 685.847 805.421 685.375C804.928 684.882 804.682 684.276 804.682 683.558C804.682 682.839 804.928 682.243 805.421 681.771C805.934 681.278 806.581 681.032 807.361 681.032C808.121 681.032 808.747 681.278 809.24 681.771C809.733 682.243 809.979 682.839 809.979 683.558C809.979 684.276 809.733 684.882 809.24 685.375C808.747 685.847 808.121 686.083 807.361 686.083Z"></path><path style="fill:var(--color-illustrationSubtle010)" d="M815.362 686.083C814.581 686.083 813.935 685.847 813.421 685.375C812.928 684.882 812.682 684.276 812.682 683.558C812.682 682.839 812.928 682.243 813.421 681.771C813.935 681.278 814.581 681.032 815.362 681.032C816.121 681.032 816.747 681.278 817.24 681.771C817.733 682.243 817.979 682.839 817.979 683.558C817.979 684.276 817.733 684.882 817.24 685.375C816.747 685.847 816.121 686.083 815.362 686.083Z"></path><path style="fill:var(--color-illustrationSubtle010)" d="M553.176 792.89C551.677 792.89 550.322 792.633 549.111 792.12C547.92 791.606 546.975 790.867 546.277 789.902C545.579 788.937 545.22 787.798 545.199 786.484H549.819C549.881 787.367 550.189 788.065 550.743 788.578C551.318 789.091 552.098 789.348 553.084 789.348C554.09 789.348 554.88 789.112 555.455 788.64C556.03 788.147 556.317 787.51 556.317 786.73C556.317 786.094 556.122 785.57 555.732 785.159C555.342 784.749 554.849 784.43 554.254 784.205C553.679 783.958 552.878 783.691 551.852 783.404C550.455 782.993 549.316 782.593 548.433 782.203C547.571 781.792 546.821 781.186 546.185 780.386C545.569 779.564 545.261 778.476 545.261 777.121C545.261 775.848 545.579 774.739 546.216 773.795C546.852 772.85 547.745 772.132 548.895 771.639C550.045 771.125 551.359 770.869 552.837 770.869C555.055 770.869 556.851 771.413 558.227 772.501C559.623 773.569 560.393 775.068 560.537 776.998H555.794C555.753 776.259 555.435 775.653 554.839 775.181C554.264 774.688 553.494 774.441 552.529 774.441C551.687 774.441 551.01 774.657 550.497 775.088C550.004 775.519 549.757 776.146 549.757 776.967C549.757 777.542 549.942 778.024 550.312 778.414C550.702 778.784 551.174 779.092 551.728 779.338C552.303 779.564 553.104 779.831 554.131 780.139C555.527 780.55 556.666 780.96 557.549 781.371C558.432 781.782 559.192 782.398 559.828 783.219C560.465 784.04 560.783 785.118 560.783 786.453C560.783 787.603 560.485 788.67 559.89 789.656C559.295 790.641 558.422 791.432 557.272 792.027C556.122 792.602 554.757 792.89 553.176 792.89Z"></path><path style="fill:var(--color-illustrationSubtle010)" d="M569.541 779.154V787.408C569.541 787.982 569.675 788.403 569.942 788.67C570.229 788.917 570.702 789.04 571.359 789.04H573.36V792.674H570.65C567.016 792.674 565.199 790.908 565.199 787.377V779.154H563.166V775.612H565.199V771.392H569.541V775.612H573.36V779.154H569.541Z"></path><path style="fill:var(--color-illustrationSubtle010)" d="M584.038 792.951C582.396 792.951 580.917 792.592 579.603 791.873C578.289 791.134 577.252 790.097 576.493 788.763C575.753 787.428 575.384 785.888 575.384 784.143C575.384 782.398 575.764 780.858 576.523 779.523C577.304 778.189 578.361 777.162 579.696 776.443C581.03 775.704 582.519 775.335 584.161 775.335C585.804 775.335 587.293 775.704 588.627 776.443C589.962 777.162 591.009 778.189 591.769 779.523C592.549 780.858 592.939 782.398 592.939 784.143C592.939 785.888 592.539 787.428 591.738 788.763C590.958 790.097 589.89 791.134 588.535 791.873C587.2 792.592 585.701 792.951 584.038 792.951ZM584.038 789.194C584.818 789.194 585.547 789.009 586.225 788.64C586.923 788.249 587.477 787.674 587.888 786.915C588.299 786.155 588.504 785.231 588.504 784.143C588.504 782.521 588.073 781.279 587.21 780.416C586.369 779.533 585.332 779.092 584.1 779.092C582.868 779.092 581.831 779.533 580.989 780.416C580.168 781.279 579.757 782.521 579.757 784.143C579.757 785.765 580.158 787.017 580.958 787.9C581.78 788.763 582.806 789.194 584.038 789.194Z"></path><path style="fill:var(--color-illustrationSubtle010)" d="M600.414 778.26C600.968 777.357 601.687 776.649 602.569 776.135C603.473 775.622 604.499 775.365 605.649 775.365V779.893H604.51C603.155 779.893 602.128 780.211 601.43 780.848C600.752 781.484 600.414 782.593 600.414 784.174V792.674H596.102V775.612H600.414V778.26Z"></path><path style="fill:var(--color-illustrationSubtle010)" d="M607.445 784.081C607.445 782.357 607.783 780.827 608.461 779.492C609.159 778.158 610.093 777.131 611.264 776.413C612.455 775.694 613.779 775.335 615.237 775.335C616.51 775.335 617.618 775.591 618.563 776.105C619.528 776.618 620.298 777.265 620.873 778.045V775.612H625.215V792.674H620.873V790.179C620.318 790.98 619.548 791.647 618.563 792.181C617.598 792.695 616.479 792.951 615.206 792.951C613.769 792.951 612.455 792.582 611.264 791.843C610.093 791.103 609.159 790.066 608.461 788.732C607.783 787.377 607.445 785.827 607.445 784.081ZM620.873 784.143C620.873 783.096 620.667 782.203 620.257 781.463C619.846 780.704 619.292 780.129 618.594 779.739C617.896 779.328 617.146 779.123 616.345 779.123C615.545 779.123 614.806 779.318 614.128 779.708C613.45 780.098 612.896 780.673 612.465 781.433C612.054 782.172 611.849 783.055 611.849 784.081C611.849 785.108 612.054 786.011 612.465 786.792C612.896 787.551 613.45 788.136 614.128 788.547C614.826 788.958 615.565 789.163 616.345 789.163C617.146 789.163 617.896 788.968 618.594 788.578C619.292 788.167 619.846 787.592 620.257 786.853C620.667 786.094 620.873 785.19 620.873 784.143Z"></path><path style="fill:var(--color-illustrationSubtle010)" d="M636.11 775.335C637.383 775.335 638.502 775.591 639.467 776.105C640.432 776.597 641.192 777.244 641.746 778.045V775.612H646.088V792.797C646.088 794.378 645.77 795.785 645.134 797.017C644.497 798.269 643.542 799.255 642.269 799.973C640.996 800.712 639.457 801.082 637.65 801.082C635.227 801.082 633.235 800.517 631.675 799.388C630.135 798.259 629.262 796.719 629.057 794.768H633.338C633.564 795.549 634.046 796.165 634.785 796.616C635.545 797.089 636.459 797.325 637.527 797.325C638.779 797.325 639.795 796.945 640.576 796.185C641.356 795.446 641.746 794.317 641.746 792.797V790.149C641.192 790.949 640.422 791.617 639.436 792.151C638.471 792.684 637.362 792.951 636.11 792.951C634.673 792.951 633.358 792.582 632.168 791.843C630.977 791.103 630.032 790.066 629.334 788.732C628.657 787.377 628.318 785.827 628.318 784.081C628.318 782.357 628.657 780.827 629.334 779.492C630.032 778.158 630.966 777.131 632.137 776.413C633.328 775.694 634.652 775.335 636.11 775.335ZM641.746 784.143C641.746 783.096 641.541 782.203 641.13 781.463C640.719 780.704 640.165 780.129 639.467 779.739C638.769 779.328 638.019 779.123 637.219 779.123C636.418 779.123 635.679 779.318 635.001 779.708C634.323 780.098 633.769 780.673 633.338 781.433C632.927 782.172 632.722 783.055 632.722 784.081C632.722 785.108 632.927 786.011 633.338 786.792C633.769 787.551 634.323 788.136 635.001 788.547C635.699 788.958 636.438 789.163 637.219 789.163C638.019 789.163 638.769 788.968 639.467 788.578C640.165 788.167 640.719 787.592 641.13 786.853C641.541 786.094 641.746 785.19 641.746 784.143Z"></path><path style="fill:var(--color-illustrationSubtle010)" d="M666.161 783.773C666.161 784.389 666.12 784.944 666.038 785.436H653.564C653.667 786.668 654.098 787.633 654.858 788.332C655.618 789.03 656.552 789.379 657.66 789.379C659.262 789.379 660.402 788.691 661.079 787.315H665.73C665.237 788.958 664.292 790.313 662.896 791.381C661.5 792.428 659.786 792.951 657.753 792.951C656.11 792.951 654.632 792.592 653.318 791.873C652.024 791.134 651.008 790.097 650.269 788.763C649.55 787.428 649.191 785.888 649.191 784.143C649.191 782.377 649.55 780.827 650.269 779.492C650.988 778.158 651.994 777.131 653.287 776.413C654.581 775.694 656.069 775.335 657.753 775.335C659.375 775.335 660.822 775.684 662.095 776.382C663.389 777.08 664.385 778.076 665.083 779.369C665.802 780.642 666.161 782.11 666.161 783.773ZM661.695 782.541C661.675 781.433 661.274 780.55 660.494 779.893C659.714 779.215 658.759 778.876 657.63 778.876C656.562 778.876 655.659 779.205 654.919 779.862C654.201 780.498 653.759 781.392 653.595 782.541H661.695Z"></path><path style="fill:var(--color-illustrationSubtle010)" d="M693.185 792.674L690.845 790.364C688.853 792.151 686.42 793.044 683.546 793.044C681.965 793.044 680.568 792.777 679.357 792.243C678.166 791.689 677.242 790.919 676.585 789.933C675.928 788.927 675.6 787.767 675.6 786.453C675.6 785.036 676 783.763 676.801 782.634C677.601 781.505 678.782 780.591 680.343 779.893C679.788 779.215 679.388 778.568 679.141 777.952C678.895 777.316 678.772 776.638 678.772 775.92C678.772 774.934 679.028 774.051 679.542 773.271C680.055 772.47 680.784 771.844 681.728 771.392C682.693 770.941 683.813 770.715 685.086 770.715C686.379 770.715 687.488 770.961 688.412 771.454C689.336 771.947 690.024 772.604 690.475 773.425C690.927 774.246 691.122 775.16 691.06 776.166H686.872C686.892 775.489 686.728 774.975 686.379 774.626C686.03 774.257 685.558 774.072 684.962 774.072C684.387 774.072 683.905 774.246 683.515 774.595C683.145 774.924 682.96 775.355 682.96 775.889C682.96 776.402 683.114 776.916 683.422 777.429C683.73 777.922 684.233 778.538 684.932 779.277L690.352 784.636C690.393 784.595 690.424 784.554 690.444 784.513C690.465 784.471 690.485 784.43 690.506 784.389L692.262 781.463H696.758L694.602 785.252C694.192 786.052 693.75 786.812 693.278 787.531L698.483 792.674H693.185ZM683.669 789.471C685.352 789.471 686.841 788.876 688.135 787.685L682.837 782.449C680.846 783.332 679.85 784.584 679.85 786.206C679.85 787.13 680.199 787.911 680.897 788.547C681.595 789.163 682.519 789.471 683.669 789.471Z"></path><path style="fill:var(--color-illustrationSubtle010)" d="M715.533 792.951C713.89 792.951 712.412 792.592 711.098 791.873C709.784 791.134 708.747 790.097 707.987 788.763C707.248 787.428 706.878 785.888 706.878 784.143C706.878 782.398 707.258 780.858 708.018 779.523C708.798 778.189 709.856 777.162 711.19 776.443C712.525 775.704 714.013 775.335 715.656 775.335C717.299 775.335 718.787 775.704 720.122 776.443C721.456 777.162 722.504 778.189 723.263 779.523C724.043 780.858 724.434 782.398 724.434 784.143C724.434 785.888 724.033 787.428 723.232 788.763C722.452 790.097 721.385 791.134 720.029 791.873C718.695 792.592 717.196 792.951 715.533 792.951ZM715.533 789.194C716.313 789.194 717.042 789.009 717.72 788.64C718.418 788.249 718.972 787.674 719.383 786.915C719.793 786.155 719.999 785.231 719.999 784.143C719.999 782.521 719.567 781.279 718.705 780.416C717.863 779.533 716.826 779.092 715.594 779.092C714.363 779.092 713.326 779.533 712.484 780.416C711.663 781.279 711.252 782.521 711.252 784.143C711.252 785.765 711.652 787.017 712.453 787.9C713.274 788.763 714.301 789.194 715.533 789.194Z"></path><path style="fill:var(--color-illustrationSubtle010)" d="M731.908 778.26C732.463 777.357 733.181 776.649 734.064 776.135C734.967 775.622 735.994 775.365 737.144 775.365V779.893H736.004C734.649 779.893 733.623 780.211 732.925 780.848C732.247 781.484 731.908 782.593 731.908 784.174V792.674H727.596V775.612H731.908V778.26Z"></path><path style="fill:var(--color-illustrationSubtle010)" d="M746.731 775.335C748.004 775.335 749.123 775.591 750.088 776.105C751.053 776.597 751.813 777.244 752.367 778.045V775.612H756.71V792.797C756.71 794.378 756.392 795.785 755.755 797.017C755.119 798.269 754.164 799.255 752.891 799.973C751.618 800.712 750.078 801.082 748.271 801.082C745.848 801.082 743.857 800.517 742.296 799.388C740.756 798.259 739.884 796.719 739.679 794.768H743.96C744.185 795.549 744.668 796.165 745.407 796.616C746.167 797.089 747.08 797.325 748.148 797.325C749.401 797.325 750.417 796.945 751.197 796.185C751.977 795.446 752.367 794.317 752.367 792.797V790.149C751.813 790.949 751.043 791.617 750.058 792.151C749.093 792.684 747.984 792.951 746.731 792.951C745.294 792.951 743.98 792.582 742.789 791.843C741.598 791.103 740.654 790.066 739.956 788.732C739.278 787.377 738.939 785.827 738.939 784.081C738.939 782.357 739.278 780.827 739.956 779.492C740.654 778.158 741.588 777.131 742.758 776.413C743.949 775.694 745.274 775.335 746.731 775.335ZM752.367 784.143C752.367 783.096 752.162 782.203 751.752 781.463C751.341 780.704 750.786 780.129 750.088 779.739C749.39 779.328 748.641 779.123 747.84 779.123C747.039 779.123 746.3 779.318 745.623 779.708C744.945 780.098 744.391 780.673 743.96 781.433C743.549 782.172 743.344 783.055 743.344 784.081C743.344 785.108 743.549 786.011 743.96 786.792C744.391 787.551 744.945 788.136 745.623 788.547C746.321 788.958 747.06 789.163 747.84 789.163C748.641 789.163 749.39 788.968 750.088 788.578C750.786 788.167 751.341 787.592 751.752 786.853C752.162 786.094 752.367 785.19 752.367 784.143Z"></path><path style="fill:var(--color-illustrationSubtle010)" d="M759.812 784.081C759.812 782.357 760.151 780.827 760.829 779.492C761.527 778.158 762.461 777.131 763.632 776.413C764.822 775.694 766.147 775.335 767.604 775.335C768.877 775.335 769.986 775.591 770.931 776.105C771.896 776.618 772.666 777.265 773.241 778.045V775.612H777.583V792.674H773.241V790.179C772.686 790.98 771.916 791.647 770.931 792.181C769.966 792.695 768.847 792.951 767.574 792.951C766.136 792.951 764.822 792.582 763.632 791.843C762.461 791.103 761.527 790.066 760.829 788.732C760.151 787.377 759.812 785.827 759.812 784.081ZM773.241 784.143C773.241 783.096 773.035 782.203 772.625 781.463C772.214 780.704 771.66 780.129 770.962 779.739C770.263 779.328 769.514 779.123 768.713 779.123C767.912 779.123 767.173 779.318 766.496 779.708C765.818 780.098 765.264 780.673 764.833 781.433C764.422 782.172 764.217 783.055 764.217 784.081C764.217 785.108 764.422 786.011 764.833 786.792C765.264 787.551 765.818 788.136 766.496 788.547C767.194 788.958 767.933 789.163 768.713 789.163C769.514 789.163 770.263 788.968 770.962 788.578C771.66 788.167 772.214 787.592 772.625 786.853C773.035 786.094 773.241 785.19 773.241 784.143Z"></path><path style="fill:var(--color-illustrationSubtle010)" d="M791.249 775.365C793.282 775.365 794.925 776.012 796.177 777.306C797.43 778.579 798.056 780.365 798.056 782.665V792.674H793.744V783.25C793.744 781.895 793.405 780.858 792.728 780.139C792.05 779.4 791.126 779.03 789.956 779.03C788.765 779.03 787.821 779.4 787.122 780.139C786.445 780.858 786.106 781.895 786.106 783.25V792.674H781.794V775.612H786.106V777.737C786.681 776.998 787.41 776.423 788.293 776.012C789.196 775.581 790.182 775.365 791.249 775.365Z"></path><path style="fill:var(--color-illustrationSubtle010)" d="M804.066 792.89C803.285 792.89 802.639 792.654 802.125 792.181C801.633 791.689 801.386 791.083 801.386 790.364C801.386 789.646 801.633 789.05 802.125 788.578C802.639 788.085 803.285 787.839 804.066 787.839C804.825 787.839 805.452 788.085 805.944 788.578C806.437 789.05 806.684 789.646 806.684 790.364C806.684 791.083 806.437 791.689 805.944 792.181C805.452 792.654 804.825 792.89 804.066 792.89Z"></path><path style="fill:var(--color-illustrationSubtle010)" d="M812.066 792.89C811.286 792.89 810.639 792.654 810.126 792.181C809.633 791.689 809.387 791.083 809.387 790.364C809.387 789.646 809.633 789.05 810.126 788.578C810.639 788.085 811.286 787.839 812.066 787.839C812.826 787.839 813.452 788.085 813.945 788.578C814.438 789.05 814.684 789.646 814.684 790.364C814.684 791.083 814.438 791.689 813.945 792.181C813.452 792.654 812.826 792.89 812.066 792.89Z"></path><path style="fill:var(--color-illustrationSubtle010)" d="M820.066 792.89C819.286 792.89 818.639 792.654 818.126 792.181C817.633 791.689 817.387 791.083 817.387 790.364C817.387 789.646 817.633 789.05 818.126 788.578C818.639 788.085 819.286 787.839 820.066 787.839C820.826 787.839 821.452 788.085 821.945 788.578C822.438 789.05 822.684 789.646 822.684 790.364C822.684 791.083 822.438 791.689 821.945 792.181C821.452 792.654 820.826 792.89 820.066 792.89Z"></path></g></g></g></g></g></g><defs><filter id="nk-215" x="483" y="84.0781" width="1760" height="1092.53" filterUnits="userSpaceOnUse" color-interpolation-filters="sRGB"><feFlood flood-opacity="0" result="BackgroundImageFix"></feFlood><feColorMatrix in="SourceAlpha" type="matrix" values="0 0 0 0 0 0 0 0 0 0 0 0 0 0 0 0 0 0 127 0" result="hardAlpha"></feColorMatrix><feOffset dy="8"></feOffset><feGaussianBlur stdDeviation="8"></feGaussianBlur><feColorMatrix type="matrix" values="0 0 0 0 0.0392157 0 0 0 0 0.0392157 0 0 0 0 0.0392157 0 0 0 0.08 0"></feColorMatrix><feBlend mode="normal" in2="BackgroundImageFix" result="effect1_dropShadow"></feBlend><feBlend mode="normal" in="SourceGraphic" in2="effect1_dropShadow" result="shape"></feBlend></filter><clipPath id="nk-210"><rect style="fill:var(--color-white)" width="1490" height="838.004" transform="translate(0 0.078125)"></rect></clipPath><clipPath id="nk-211"><rect style="fill:var(--color-white)" x="499" y="92.0781" width="1728" height="964" rx="28.3279"></rect></clipPath><clipPath id="nk-212"><rect style="fill:var(--color-white)" width="1728" height="1060.53" transform="translate(499 92.0781)"></rect></clipPath><clipPath id="nk-213"><rect style="fill:var(--color-white)" x="499" y="92.0781" width="1728" height="1060.53" rx="28.3279"></rect></clipPath><clipPath id="nk-214"><rect style="fill:var(--color-white)" width="388" height="863" transform="translate(499 193.078)"></rect></clipPath></defs></svg>