<svg id="components-menu-menu-do-02-illustration" style="width: 100%; height: 100%" width="1490" height="839" viewBox="0 0 1490 839" fill="none" xmlns="http://www.w3.org/2000/svg" class="css-0"><g clip-path="url(#nk-304)"><path style="fill:var(--color-illustrationBackground020)" d="M0 4.06446C0 1.85532 1.79086 0.0644531 4 0.0644531H1486.72C1488.93 0.0644531 1490.72 1.85531 1490.72 4.06445V834.068C1490.72 836.277 1488.93 838.068 1486.72 838.068H4.00002C1.79088 838.068 0 836.277 0 834.068V4.06446Z"></path><g clip-path="url(#nk-305)"><path style="fill:var(--color-illustrationInterface020)" d="M315.311 208.35C315.311 182.787 336.009 162.064 361.543 162.064H1126.46C1151.99 162.064 1172.69 182.787 1172.69 208.35V1721.32C1172.69 1746.89 1151.99 1767.61 1126.46 1767.61H361.543C336.009 1767.61 315.311 1746.89 315.311 1721.32V208.35Z"></path><path style="fill:var(--color-illustrationHighlight010)" d="M315.311 183.524C315.311 171.672 324.918 162.064 336.77 162.064H1152.23C1164.08 162.064 1173.69 171.672 1173.69 183.524V313.65H315.311V183.524Z"></path><path style="fill:var(--color-illustrationInterface010)" d="M924.223 237.857C924.223 231.931 929.027 227.127 934.952 227.127H1098.58C1104.51 227.127 1109.31 231.931 1109.31 237.857C1109.31 243.783 1104.51 248.586 1098.58 248.586H934.952C929.027 248.586 924.223 243.783 924.223 237.857Z"></path><g clip-path="url(#nk-306)" filter="url(#nk-310)"><path style="fill:var(--color-illustrationInterface010)" d="M315 314.064H1174V455.064H315V314.064Z"></path><g clip-path="url(#clip3)"><rect style="fill:var(--color-illustrationInterface010)" width="134.33" height="136.425" transform="translate(368.605 313.65)"></rect><path style="fill:var(--color-illustrationSubtle010)" d="M392.073 391.345L387.871 383.924H386.07V391.345H382.25V372.3H389.399C390.872 372.3 392.127 372.564 393.164 373.092C394.201 373.601 394.974 374.301 395.483 375.192C396.011 376.066 396.274 377.048 396.274 378.139C396.274 379.394 395.911 380.531 395.183 381.55C394.455 382.55 393.373 383.242 391.936 383.624L396.493 391.345H392.073ZM386.07 381.059H389.262C390.299 381.059 391.072 380.813 391.581 380.322C392.091 379.813 392.345 379.112 392.345 378.221C392.345 377.348 392.091 376.675 391.581 376.202C391.072 375.711 390.299 375.465 389.262 375.465H386.07V381.059Z"></path><path style="fill:var(--color-illustrationSubtle010)" d="M413.781 383.46C413.781 384.006 413.745 384.497 413.672 384.933H402.622C402.713 386.025 403.095 386.88 403.768 387.498C404.441 388.116 405.268 388.426 406.251 388.426C407.669 388.426 408.679 387.816 409.279 386.598H413.399C412.963 388.053 412.126 389.253 410.889 390.199C409.652 391.127 408.133 391.591 406.332 391.591C404.877 391.591 403.568 391.272 402.403 390.636C401.257 389.981 400.357 389.062 399.702 387.88C399.066 386.698 398.747 385.333 398.747 383.787C398.747 382.223 399.066 380.85 399.702 379.667C400.339 378.485 401.23 377.575 402.376 376.939C403.522 376.302 404.841 375.984 406.332 375.984C407.769 375.984 409.052 376.293 410.18 376.911C411.326 377.53 412.208 378.412 412.826 379.558C413.463 380.686 413.781 381.986 413.781 383.46ZM409.825 382.368C409.807 381.386 409.452 380.604 408.761 380.022C408.07 379.422 407.224 379.122 406.223 379.122C405.277 379.122 404.477 379.413 403.822 379.995C403.186 380.559 402.794 381.35 402.649 382.368H409.825Z"></path><path style="fill:var(--color-illustrationSubtle010)" d="M420.389 371.154V391.345H416.569V371.154H420.389Z"></path><path style="fill:var(--color-illustrationSubtle010)" d="M438.215 383.46C438.215 384.006 438.179 384.497 438.106 384.933H427.056C427.147 386.025 427.529 386.88 428.202 387.498C428.875 388.116 429.702 388.426 430.685 388.426C432.103 388.426 433.113 387.816 433.713 386.598H437.833C437.397 388.053 436.56 389.253 435.323 390.199C434.086 391.127 432.567 391.591 430.766 391.591C429.311 391.591 428.001 391.272 426.837 390.636C425.691 389.981 424.791 389.062 424.136 387.88C423.499 386.698 423.181 385.333 423.181 383.787C423.181 382.223 423.499 380.85 424.136 379.667C424.773 378.485 425.664 377.575 426.81 376.939C427.956 376.302 429.275 375.984 430.766 375.984C432.203 375.984 433.486 376.293 434.614 376.911C435.76 377.53 436.642 378.412 437.26 379.558C437.897 380.686 438.215 381.986 438.215 383.46ZM434.259 382.368C434.241 381.386 433.886 380.604 433.195 380.022C432.504 379.422 431.658 379.122 430.657 379.122C429.711 379.122 428.911 379.413 428.256 379.995C427.619 380.559 427.228 381.35 427.083 382.368H434.259Z"></path><path style="fill:var(--color-illustrationSubtle010)" d="M440.021 383.733C440.021 382.205 440.321 380.85 440.921 379.667C441.54 378.485 442.368 377.575 443.404 376.939C444.459 376.302 445.633 375.984 446.924 375.984C448.052 375.984 449.034 376.211 449.871 376.666C450.726 377.121 451.408 377.694 451.917 378.385V376.229H455.765V391.345H451.917V389.135C451.426 389.845 450.744 390.436 449.871 390.909C449.016 391.363 448.025 391.591 446.897 391.591C445.624 391.591 444.459 391.263 443.404 390.609C442.368 389.954 441.54 389.035 440.921 387.853C440.321 386.652 440.021 385.279 440.021 383.733ZM451.917 383.787C451.917 382.86 451.735 382.068 451.372 381.413C451.008 380.74 450.517 380.231 449.898 379.885C449.28 379.522 448.616 379.34 447.906 379.34C447.197 379.34 446.542 379.513 445.942 379.858C445.342 380.204 444.851 380.713 444.469 381.386C444.105 382.041 443.923 382.823 443.923 383.733C443.923 384.642 444.105 385.443 444.469 386.134C444.851 386.807 445.342 387.325 445.942 387.689C446.56 388.053 447.215 388.235 447.906 388.235C448.616 388.235 449.28 388.062 449.898 387.716C450.517 387.352 451.008 386.843 451.372 386.188C451.735 385.515 451.917 384.715 451.917 383.787Z"></path><path style="fill:var(--color-illustrationSubtle010)" d="M465.28 391.591C464.043 391.591 462.933 391.372 461.951 390.936C460.969 390.481 460.187 389.872 459.604 389.108C459.041 388.344 458.731 387.498 458.677 386.57H462.524C462.597 387.152 462.879 387.634 463.37 388.016C463.879 388.398 464.507 388.589 465.252 388.589C465.98 388.589 466.544 388.444 466.944 388.153C467.363 387.862 467.572 387.489 467.572 387.034C467.572 386.543 467.317 386.179 466.808 385.943C466.317 385.688 465.525 385.415 464.434 385.124C463.306 384.851 462.378 384.569 461.651 384.278C460.941 383.987 460.323 383.542 459.795 382.941C459.286 382.341 459.031 381.532 459.031 380.513C459.031 379.676 459.268 378.912 459.741 378.221C460.232 377.53 460.923 376.984 461.815 376.584C462.724 376.184 463.788 375.984 465.007 375.984C466.808 375.984 468.245 376.438 469.318 377.348C470.391 378.239 470.982 379.449 471.091 380.977H467.435C467.381 380.377 467.126 379.904 466.671 379.558C466.235 379.194 465.644 379.012 464.898 379.012C464.207 379.012 463.67 379.14 463.288 379.394C462.924 379.649 462.742 380.004 462.742 380.458C462.742 380.968 462.997 381.359 463.506 381.632C464.016 381.886 464.807 382.15 465.88 382.423C466.971 382.696 467.872 382.978 468.581 383.269C469.291 383.56 469.9 384.015 470.409 384.633C470.937 385.233 471.21 386.034 471.228 387.034C471.228 387.907 470.982 388.689 470.491 389.381C470.018 390.072 469.327 390.618 468.418 391.018C467.526 391.4 466.48 391.591 465.28 391.591Z"></path><path style="fill:var(--color-illustrationSubtle010)" d="M488.415 383.46C488.415 384.006 488.379 384.497 488.306 384.933H477.256C477.347 386.025 477.729 386.88 478.402 387.498C479.075 388.116 479.902 388.426 480.885 388.426C482.303 388.426 483.313 387.816 483.913 386.598H488.033C487.597 388.053 486.76 389.253 485.523 390.199C484.286 391.127 482.767 391.591 480.966 391.591C479.511 391.591 478.202 391.272 477.037 390.636C475.891 389.981 474.991 389.062 474.336 387.88C473.7 386.698 473.381 385.333 473.381 383.787C473.381 382.223 473.7 380.85 474.336 379.667C474.973 378.485 475.864 377.575 477.01 376.939C478.156 376.302 479.475 375.984 480.966 375.984C482.404 375.984 483.686 376.293 484.814 376.911C485.96 377.53 486.842 378.412 487.46 379.558C488.097 380.686 488.415 381.986 488.415 383.46ZM484.459 382.368C484.441 381.386 484.086 380.604 483.395 380.022C482.704 379.422 481.858 379.122 480.857 379.122C479.911 379.122 479.111 379.413 478.456 379.995C477.82 380.559 477.429 381.35 477.283 382.368H484.459Z"></path><path style="fill:var(--color-illustrationSubtle010)" d="M496.988 391.591C495.751 391.591 494.641 391.372 493.659 390.936C492.677 390.481 491.895 389.872 491.313 389.108C490.749 388.344 490.44 387.498 490.385 386.57H494.232C494.305 387.152 494.587 387.634 495.078 388.016C495.587 388.398 496.215 388.589 496.961 388.589C497.688 388.589 498.252 388.444 498.652 388.153C499.071 387.862 499.28 387.489 499.28 387.034C499.28 386.543 499.025 386.179 498.516 385.943C498.025 385.688 497.233 385.415 496.142 385.124C495.014 384.851 494.087 384.569 493.359 384.278C492.65 383.987 492.031 383.542 491.504 382.941C490.994 382.341 490.74 381.532 490.74 380.513C490.74 379.676 490.976 378.912 491.449 378.221C491.94 377.53 492.631 376.984 493.523 376.584C494.432 376.184 495.496 375.984 496.715 375.984C498.516 375.984 499.953 376.438 501.026 377.348C502.099 378.239 502.69 379.449 502.8 380.977H499.143C499.089 380.377 498.834 379.904 498.379 379.558C497.943 379.194 497.352 379.012 496.606 379.012C495.915 379.012 495.378 379.14 494.996 379.394C494.632 379.649 494.45 380.004 494.45 380.458C494.45 380.968 494.705 381.359 495.214 381.632C495.724 381.886 496.515 382.15 497.588 382.423C498.68 382.696 499.58 382.978 500.289 383.269C500.999 383.56 501.608 384.015 502.118 384.633C502.645 385.233 502.918 386.034 502.936 387.034C502.936 387.907 502.69 388.689 502.199 389.381C501.726 390.072 501.035 390.618 500.126 391.018C499.234 391.4 498.188 391.591 496.988 391.591Z"></path></g><rect style="fill:var(--color-illustrationInterface010)" width="134.33" height="3.41063" transform="translate(368.605 450.076)"></rect><path style="fill:var(--color-illustrationInterface010)" d="M368.605 450.076H502.936V453.487H368.605V450.076Z"></path><rect style="fill:var(--color-illustrationInterface010)" width="248.32" height="136.425" transform="translate(516.578 311.945)"></rect><path style="fill:var(--color-illustrationHighlight010)" d="M581.954 379.651C583.027 379.851 583.91 380.388 584.601 381.261C585.292 382.134 585.638 383.135 585.638 384.263C585.638 385.281 585.383 386.182 584.874 386.964C584.383 387.728 583.664 388.328 582.718 388.765C581.772 389.201 580.654 389.419 579.362 389.419H571.149V370.374H579.007C580.299 370.374 581.409 370.584 582.336 371.002C583.282 371.42 583.992 372.002 584.464 372.748C584.956 373.494 585.201 374.34 585.201 375.286C585.201 376.395 584.901 377.323 584.301 378.069C583.719 378.815 582.937 379.342 581.954 379.651ZM574.969 378.233H578.462C579.371 378.233 580.072 378.032 580.563 377.632C581.054 377.214 581.299 376.623 581.299 375.859C581.299 375.095 581.054 374.504 580.563 374.085C580.072 373.667 579.371 373.458 578.462 373.458H574.969V378.233ZM578.817 386.309C579.744 386.309 580.463 386.091 580.972 385.654C581.5 385.218 581.763 384.599 581.763 383.799C581.763 382.98 581.49 382.344 580.945 381.889C580.399 381.416 579.662 381.179 578.735 381.179H574.969V386.309H578.817Z"></path><path style="fill:var(--color-illustrationHighlight010)" d="M602.734 381.534C602.734 382.08 602.698 382.571 602.625 383.007H591.574C591.665 384.099 592.047 384.954 592.72 385.572C593.393 386.191 594.221 386.5 595.203 386.5C596.622 386.5 597.632 385.891 598.232 384.672H602.352C601.915 386.127 601.079 387.328 599.842 388.273C598.605 389.201 597.086 389.665 595.285 389.665C593.83 389.665 592.52 389.347 591.356 388.71C590.21 388.055 589.31 387.137 588.655 385.954C588.018 384.772 587.7 383.408 587.7 381.861C587.7 380.297 588.018 378.924 588.655 377.741C589.292 376.559 590.183 375.65 591.329 375.013C592.475 374.376 593.794 374.058 595.285 374.058C596.722 374.058 598.005 374.367 599.132 374.986C600.278 375.604 601.161 376.486 601.779 377.632C602.416 378.76 602.734 380.061 602.734 381.534ZM598.778 380.443C598.759 379.46 598.405 378.678 597.713 378.096C597.022 377.496 596.176 377.196 595.176 377.196C594.23 377.196 593.43 377.487 592.775 378.069C592.138 378.633 591.747 379.424 591.602 380.443H598.778Z"></path><path style="fill:var(--color-illustrationHighlight010)" d="M611.307 389.665C610.07 389.665 608.96 389.447 607.978 389.01C606.996 388.555 606.213 387.946 605.631 387.182C605.067 386.418 604.758 385.572 604.704 384.645H608.551C608.624 385.227 608.905 385.709 609.397 386.091C609.906 386.473 610.533 386.664 611.279 386.664C612.007 386.664 612.571 386.518 612.971 386.227C613.389 385.936 613.598 385.563 613.598 385.108C613.598 384.617 613.344 384.253 612.835 384.017C612.343 383.762 611.552 383.489 610.461 383.198C609.333 382.926 608.405 382.644 607.678 382.353C606.968 382.062 606.35 381.616 605.822 381.016C605.313 380.415 605.058 379.606 605.058 378.587C605.058 377.751 605.295 376.987 605.768 376.295C606.259 375.604 606.95 375.058 607.841 374.658C608.751 374.258 609.815 374.058 611.034 374.058C612.835 374.058 614.272 374.513 615.345 375.422C616.418 376.314 617.009 377.523 617.118 379.051H613.462C613.407 378.451 613.153 377.978 612.698 377.632C612.262 377.268 611.67 377.087 610.925 377.087C610.233 377.087 609.697 377.214 609.315 377.469C608.951 377.723 608.769 378.078 608.769 378.533C608.769 379.042 609.024 379.433 609.533 379.706C610.042 379.961 610.834 380.224 611.907 380.497C612.998 380.77 613.899 381.052 614.608 381.343C615.317 381.634 615.927 382.089 616.436 382.707C616.964 383.308 617.236 384.108 617.255 385.108C617.255 385.982 617.009 386.764 616.518 387.455C616.045 388.146 615.354 388.692 614.444 389.092C613.553 389.474 612.507 389.665 611.307 389.665Z"></path><path style="fill:var(--color-illustrationHighlight010)" d="M624.838 377.441V384.754C624.838 385.263 624.956 385.636 625.192 385.872C625.447 386.091 625.866 386.2 626.448 386.2H628.221V389.419H625.82C622.6 389.419 620.991 387.855 620.991 384.726V377.441H619.19V374.304H620.991V370.565H624.838V374.304H628.221V377.441H624.838Z"></path><path style="fill:var(--color-illustrationHighlight010)" d="M643.255 389.665C642.018 389.665 640.908 389.447 639.926 389.01C638.943 388.555 638.161 387.946 637.579 387.182C637.015 386.418 636.706 385.572 636.652 384.645H640.499C640.571 385.227 640.853 385.709 641.345 386.091C641.854 386.473 642.481 386.664 643.227 386.664C643.955 386.664 644.519 386.518 644.919 386.227C645.337 385.936 645.546 385.563 645.546 385.108C645.546 384.617 645.292 384.253 644.782 384.017C644.291 383.762 643.5 383.489 642.409 383.198C641.281 382.926 640.353 382.644 639.626 382.353C638.916 382.062 638.298 381.616 637.77 381.016C637.261 380.415 637.006 379.606 637.006 378.587C637.006 377.751 637.243 376.987 637.716 376.295C638.207 375.604 638.898 375.058 639.789 374.658C640.699 374.258 641.763 374.058 642.982 374.058C644.782 374.058 646.219 374.513 647.293 375.422C648.366 376.314 648.957 377.523 649.066 379.051H645.41C645.355 378.451 645.101 377.978 644.646 377.632C644.209 377.268 643.618 377.087 642.873 377.087C642.181 377.087 641.645 377.214 641.263 377.469C640.899 377.723 640.717 378.078 640.717 378.533C640.717 379.042 640.972 379.433 641.481 379.706C641.99 379.961 642.782 380.224 643.855 380.497C644.946 380.77 645.847 381.052 646.556 381.343C647.265 381.634 647.875 382.089 648.384 382.707C648.912 383.308 649.184 384.108 649.203 385.108C649.203 385.982 648.957 386.764 648.466 387.455C647.993 388.146 647.302 388.692 646.392 389.092C645.501 389.474 644.455 389.665 643.255 389.665Z"></path><path style="fill:var(--color-illustrationHighlight010)" d="M666.39 381.534C666.39 382.08 666.354 382.571 666.281 383.007H655.23C655.321 384.099 655.703 384.954 656.376 385.572C657.049 386.191 657.877 386.5 658.859 386.5C660.278 386.5 661.288 385.891 661.888 384.672H666.008C665.572 386.127 664.735 387.328 663.498 388.273C662.261 389.201 660.742 389.665 658.941 389.665C657.486 389.665 656.176 389.347 655.012 388.71C653.866 388.055 652.966 387.137 652.311 385.954C651.674 384.772 651.356 383.408 651.356 381.861C651.356 380.297 651.674 378.924 652.311 377.741C652.948 376.559 653.839 375.65 654.985 375.013C656.131 374.376 657.45 374.058 658.941 374.058C660.378 374.058 661.661 374.367 662.788 374.986C663.934 375.604 664.817 376.486 665.435 377.632C666.072 378.76 666.39 380.061 666.39 381.534ZM662.434 380.443C662.416 379.46 662.061 378.678 661.37 378.096C660.678 377.496 659.833 377.196 658.832 377.196C657.886 377.196 657.086 377.487 656.431 378.069C655.794 378.633 655.403 379.424 655.258 380.443H662.434Z"></path><path style="fill:var(--color-illustrationHighlight010)" d="M672.998 369.229V389.419H669.178V369.229H672.998Z"></path><path style="fill:var(--color-illustrationHighlight010)" d="M680.592 369.229V389.419H676.772V369.229H680.592Z"></path><path style="fill:var(--color-illustrationHighlight010)" d="M698.418 381.534C698.418 382.08 698.382 382.571 698.309 383.007H687.258C687.349 384.099 687.731 384.954 688.404 385.572C689.077 386.191 689.905 386.5 690.887 386.5C692.306 386.5 693.316 385.891 693.916 384.672H698.036C697.599 386.127 696.763 387.328 695.526 388.273C694.289 389.201 692.77 389.665 690.969 389.665C689.514 389.665 688.204 389.347 687.04 388.71C685.894 388.055 684.994 387.137 684.339 385.954C683.702 384.772 683.384 383.408 683.384 381.861C683.384 380.297 683.702 378.924 684.339 377.741C684.976 376.559 685.867 375.65 687.013 375.013C688.159 374.376 689.478 374.058 690.969 374.058C692.406 374.058 693.689 374.367 694.816 374.986C695.962 375.604 696.845 376.486 697.463 377.632C698.1 378.76 698.418 380.061 698.418 381.534ZM694.462 380.443C694.443 379.46 694.089 378.678 693.398 378.096C692.706 377.496 691.86 377.196 690.86 377.196C689.914 377.196 689.114 377.487 688.459 378.069C687.822 378.633 687.431 379.424 687.286 380.443H694.462Z"></path><path style="fill:var(--color-illustrationHighlight010)" d="M705.026 376.65C705.517 375.85 706.154 375.222 706.936 374.767C707.736 374.313 708.646 374.085 709.665 374.085V378.096H708.655C707.454 378.096 706.545 378.378 705.926 378.942C705.326 379.506 705.026 380.488 705.026 381.889V389.419H701.206V374.304H705.026V376.65Z"></path><path style="fill:var(--color-illustrationHighlight010)" d="M718.022 389.665C716.785 389.665 715.675 389.447 714.693 389.01C713.711 388.555 712.929 387.946 712.347 387.182C711.783 386.418 711.473 385.572 711.419 384.645H715.266C715.339 385.227 715.621 385.709 716.112 386.091C716.621 386.473 717.249 386.664 717.995 386.664C718.722 386.664 719.286 386.518 719.686 386.227C720.105 385.936 720.314 385.563 720.314 385.108C720.314 384.617 720.059 384.253 719.55 384.017C719.059 383.762 718.267 383.489 717.176 383.198C716.048 382.926 715.121 382.644 714.393 382.353C713.684 382.062 713.065 381.616 712.538 381.016C712.028 380.415 711.774 379.606 711.774 378.587C711.774 377.751 712.01 376.987 712.483 376.295C712.974 375.604 713.665 375.058 714.557 374.658C715.466 374.258 716.53 374.058 717.749 374.058C719.55 374.058 720.987 374.513 722.06 375.422C723.133 376.314 723.724 377.523 723.834 379.051H720.177C720.123 378.451 719.868 377.978 719.413 377.632C718.977 377.268 718.386 377.087 717.64 377.087C716.949 377.087 716.412 377.214 716.03 377.469C715.666 377.723 715.484 378.078 715.484 378.533C715.484 379.042 715.739 379.433 716.248 379.706C716.758 379.961 717.549 380.224 718.622 380.497C719.713 380.77 720.614 381.052 721.323 381.343C722.033 381.634 722.642 382.089 723.151 382.707C723.679 383.308 723.952 384.108 723.97 385.108C723.97 385.982 723.724 386.764 723.233 387.455C722.76 388.146 722.069 388.692 721.16 389.092C720.268 389.474 719.222 389.665 718.022 389.665Z"></path><rect style="fill:var(--color-illustrationInterface010)" width="248.32" height="6.82125" transform="translate(516.578 448.371)"></rect><path style="fill:var(--color-illustrationHighlight010)" d="M516.578 448.371H764.898V455.192H516.578V448.371Z"></path><g clip-path="url(#nk-308)"><rect style="fill:var(--color-illustrationInterface010)" width="147.868" height="136.425" transform="translate(785.361 313.65)"></rect><path style="fill:var(--color-illustrationSubtle010)" d="M805.664 372.901C807.665 372.901 809.421 373.292 810.93 374.074C812.458 374.857 813.632 375.975 814.45 377.431C815.287 378.868 815.705 380.541 815.705 382.451C815.705 384.361 815.287 386.034 814.45 387.471C813.632 388.89 812.458 389.991 810.93 390.773C809.421 391.555 807.665 391.946 805.664 391.946H799.007V372.901H805.664ZM805.528 388.699C807.529 388.699 809.075 388.154 810.166 387.062C811.258 385.971 811.804 384.434 811.804 382.451C811.804 380.468 811.258 378.922 810.166 377.812C809.075 376.685 807.529 376.121 805.528 376.121H802.827V388.699H805.528Z"></path><path style="fill:var(--color-illustrationSubtle010)" d="M820.502 375.029C819.829 375.029 819.265 374.82 818.81 374.402C818.374 373.965 818.155 373.429 818.155 372.792C818.155 372.155 818.374 371.628 818.81 371.21C819.265 370.773 819.829 370.555 820.502 370.555C821.175 370.555 821.73 370.773 822.166 371.21C822.621 371.628 822.848 372.155 822.848 372.792C822.848 373.429 822.621 373.965 822.166 374.402C821.73 374.82 821.175 375.029 820.502 375.029ZM822.385 376.83V391.946H818.565V376.83H822.385Z"></path><path style="fill:var(--color-illustrationSubtle010)" d="M831.943 392.192C830.706 392.192 829.597 391.973 828.614 391.537C827.632 391.082 826.85 390.473 826.268 389.709C825.704 388.945 825.395 388.099 825.34 387.171H829.187C829.26 387.753 829.542 388.235 830.033 388.617C830.542 388.999 831.17 389.19 831.916 389.19C832.643 389.19 833.207 389.045 833.607 388.754C834.026 388.463 834.235 388.09 834.235 387.635C834.235 387.144 833.98 386.78 833.471 386.544C832.98 386.289 832.189 386.016 831.097 385.725C829.969 385.452 829.042 385.17 828.314 384.879C827.605 384.588 826.986 384.143 826.459 383.542C825.949 382.942 825.695 382.133 825.695 381.114C825.695 380.277 825.931 379.513 826.404 378.822C826.895 378.131 827.587 377.585 828.478 377.185C829.387 376.785 830.451 376.585 831.67 376.585C833.471 376.585 834.908 377.039 835.981 377.949C837.054 378.84 837.646 380.05 837.755 381.578H834.099C834.044 380.978 833.789 380.505 833.335 380.159C832.898 379.795 832.307 379.613 831.561 379.613C830.87 379.613 830.333 379.741 829.951 379.995C829.587 380.25 829.406 380.605 829.406 381.059C829.406 381.569 829.66 381.96 830.17 382.233C830.679 382.487 831.47 382.751 832.543 383.024C833.635 383.297 834.535 383.579 835.245 383.87C835.954 384.161 836.563 384.616 837.073 385.234C837.6 385.834 837.873 386.635 837.891 387.635C837.891 388.508 837.646 389.29 837.154 389.982C836.682 390.673 835.99 391.219 835.081 391.619C834.189 392.001 833.144 392.192 831.943 392.192Z"></path><path style="fill:var(--color-illustrationSubtle010)" d="M840.045 384.388C840.045 382.824 840.363 381.46 841 380.295C841.636 379.113 842.518 378.204 843.646 377.567C844.774 376.912 846.065 376.585 847.521 376.585C849.394 376.585 850.94 377.058 852.159 378.003C853.396 378.931 854.224 380.241 854.642 381.933H850.522C850.304 381.278 849.931 380.768 849.403 380.405C848.894 380.023 848.257 379.832 847.493 379.832C846.402 379.832 845.538 380.232 844.901 381.032C844.265 381.814 843.946 382.933 843.946 384.388C843.946 385.825 844.265 386.944 844.901 387.744C845.538 388.526 846.402 388.917 847.493 388.917C849.04 388.917 850.049 388.226 850.522 386.844H854.642C854.224 388.481 853.396 389.782 852.159 390.746C850.922 391.71 849.376 392.192 847.521 392.192C846.065 392.192 844.774 391.873 843.646 391.237C842.518 390.582 841.636 389.672 841 388.508C840.363 387.326 840.045 385.953 840.045 384.388Z"></path><path style="fill:var(--color-illustrationSubtle010)" d="M864.153 392.192C862.697 392.192 861.388 391.873 860.224 391.237C859.059 390.582 858.141 389.663 857.468 388.481C856.813 387.299 856.485 385.934 856.485 384.388C856.485 382.842 856.822 381.478 857.495 380.295C858.186 379.113 859.123 378.204 860.305 377.567C861.488 376.912 862.806 376.585 864.262 376.585C865.717 376.585 867.036 376.912 868.218 377.567C869.4 378.204 870.328 379.113 871.001 380.295C871.692 381.478 872.038 382.842 872.038 384.388C872.038 385.934 871.683 387.299 870.974 388.481C870.283 389.663 869.337 390.582 868.136 391.237C866.954 391.873 865.626 392.192 864.153 392.192ZM864.153 388.863C864.844 388.863 865.49 388.699 866.09 388.372C866.708 388.026 867.199 387.517 867.563 386.844C867.927 386.171 868.109 385.352 868.109 384.388C868.109 382.951 867.727 381.851 866.963 381.087C866.217 380.305 865.299 379.913 864.207 379.913C863.116 379.913 862.197 380.305 861.451 381.087C860.724 381.851 860.36 382.951 860.36 384.388C860.36 385.825 860.715 386.935 861.424 387.717C862.152 388.481 863.061 388.863 864.153 388.863Z"></path><path style="fill:var(--color-illustrationSubtle010)" d="M889.11 376.83V391.946H885.263V390.036C884.772 390.691 884.126 391.209 883.326 391.591C882.543 391.955 881.688 392.137 880.761 392.137C879.578 392.137 878.533 391.892 877.623 391.4C876.714 390.891 875.995 390.154 875.468 389.19C874.958 388.208 874.704 387.044 874.704 385.698V376.83H878.523V385.152C878.523 386.353 878.824 387.28 879.424 387.935C880.024 388.572 880.843 388.89 881.879 388.89C882.935 388.89 883.762 388.572 884.362 387.935C884.963 387.28 885.263 386.353 885.263 385.152V376.83H889.11Z"></path><path style="fill:var(--color-illustrationSubtle010)" d="M901.255 376.612C903.056 376.612 904.511 377.185 905.621 378.331C906.731 379.459 907.285 381.041 907.285 383.079V391.946H903.466V383.597C903.466 382.396 903.165 381.478 902.565 380.841C901.965 380.186 901.146 379.859 900.11 379.859C899.054 379.859 898.218 380.186 897.599 380.841C896.999 381.478 896.699 382.396 896.699 383.597V391.946H892.879V376.83H896.699V378.713C897.208 378.058 897.854 377.549 898.636 377.185C899.436 376.803 900.31 376.612 901.255 376.612Z"></path><path style="fill:var(--color-illustrationSubtle010)" d="M915.365 379.968V387.28C915.365 387.79 915.484 388.163 915.72 388.399C915.975 388.617 916.393 388.727 916.975 388.727H918.749V391.946H916.348C913.128 391.946 911.518 390.382 911.518 387.253V379.968H909.717V376.83H911.518V373.092H915.365V376.83H918.749V379.968H915.365Z"></path><path style="fill:var(--color-illustrationSubtle010)" d="M927.281 392.192C926.044 392.192 924.934 391.973 923.952 391.537C922.97 391.082 922.187 390.473 921.605 389.709C921.042 388.945 920.732 388.099 920.678 387.171H924.525C924.598 387.753 924.88 388.235 925.371 388.617C925.88 388.999 926.508 389.19 927.253 389.19C927.981 389.19 928.545 389.045 928.945 388.754C929.363 388.463 929.573 388.09 929.573 387.635C929.573 387.144 929.318 386.78 928.809 386.544C928.318 386.289 927.526 386.016 926.435 385.725C925.307 385.452 924.379 385.17 923.652 384.879C922.942 384.588 922.324 384.143 921.796 383.542C921.287 382.942 921.032 382.133 921.032 381.114C921.032 380.277 921.269 379.513 921.742 378.822C922.233 378.131 922.924 377.585 923.815 377.185C924.725 376.785 925.789 376.585 927.008 376.585C928.809 376.585 930.246 377.039 931.319 377.949C932.392 378.84 932.983 380.05 933.092 381.578H929.436C929.382 380.978 929.127 380.505 928.672 380.159C928.236 379.795 927.644 379.613 926.899 379.613C926.207 379.613 925.671 379.741 925.289 379.995C924.925 380.25 924.743 380.605 924.743 381.059C924.743 381.569 924.998 381.96 925.507 382.233C926.016 382.487 926.808 382.751 927.881 383.024C928.972 383.297 929.873 383.579 930.582 383.87C931.292 384.161 931.901 384.616 932.41 385.234C932.938 385.834 933.211 386.635 933.229 387.635C933.229 388.508 932.983 389.29 932.492 389.982C932.019 390.673 931.328 391.219 930.418 391.619C929.527 392.001 928.481 392.192 927.281 392.192Z"></path></g><rect style="fill:var(--color-illustrationInterface010)" width="147.868" height="3.41063" transform="translate(785.361 450.076)"></rect><path style="fill:var(--color-illustrationInterface010)" d="M785.361 450.076H933.229V453.487H785.361V450.076Z"></path><g clip-path="url(#nk-309)"><path style="fill:var(--color-illustrationSubtle010)" d="M967.339 382.396C967.339 380.523 967.757 378.849 968.594 377.376C969.449 375.884 970.604 374.729 972.059 373.911C973.533 373.074 975.179 372.656 976.998 372.656C979.126 372.656 980.99 373.201 982.591 374.293C984.192 375.384 985.311 376.894 985.947 378.822H981.554C981.118 377.913 980.499 377.23 979.699 376.776C978.917 376.321 978.007 376.094 976.97 376.094C975.861 376.094 974.87 376.357 973.996 376.885C973.141 377.394 972.468 378.122 971.977 379.068C971.504 380.013 971.268 381.123 971.268 382.396C971.268 383.651 971.504 384.761 971.977 385.725C972.468 386.671 973.141 387.408 973.996 387.935C974.87 388.445 975.861 388.699 976.97 388.699C978.007 388.699 978.917 388.472 979.699 388.017C980.499 387.544 981.118 386.853 981.554 385.943H985.947C985.311 387.89 984.192 389.409 982.591 390.5C981.009 391.573 979.144 392.11 976.998 392.11C975.179 392.11 973.533 391.701 972.059 390.882C970.604 390.045 969.449 388.89 968.594 387.417C967.757 385.943 967.339 384.27 967.339 382.396Z"></path><path style="fill:var(--color-illustrationSubtle010)" d="M995.922 392.192C994.467 392.192 993.157 391.873 991.993 391.237C990.829 390.582 989.91 389.663 989.237 388.481C988.582 387.299 988.255 385.934 988.255 384.388C988.255 382.842 988.591 381.478 989.264 380.295C989.956 379.113 990.893 378.204 992.075 377.567C993.257 376.912 994.576 376.585 996.031 376.585C997.486 376.585 998.805 376.912 999.988 377.567C1001.17 378.204 1002.1 379.113 1002.77 380.295C1003.46 381.478 1003.81 382.842 1003.81 384.388C1003.81 385.934 1003.45 387.299 1002.74 388.481C1002.05 389.663 1001.11 390.582 999.906 391.237C998.723 391.873 997.395 392.192 995.922 392.192ZM995.922 388.863C996.613 388.863 997.259 388.699 997.859 388.372C998.478 388.026 998.969 387.517 999.333 386.844C999.696 386.171 999.878 385.352 999.878 384.388C999.878 382.951 999.496 381.851 998.732 381.087C997.987 380.305 997.068 379.913 995.977 379.913C994.885 379.913 993.967 380.305 993.221 381.087C992.493 381.851 992.129 382.951 992.129 384.388C992.129 385.825 992.484 386.935 993.194 387.717C993.921 388.481 994.831 388.863 995.922 388.863Z"></path><path style="fill:var(--color-illustrationSubtle010)" d="M1010.43 371.755V391.946H1006.61V371.755H1010.43Z"></path><path style="fill:var(--color-illustrationSubtle010)" d="M1018.02 371.755V391.946H1014.2V371.755H1018.02Z"></path><path style="fill:var(--color-illustrationSubtle010)" d="M1035.85 384.061C1035.85 384.606 1035.81 385.098 1035.74 385.534H1024.69C1024.78 386.626 1025.16 387.48 1025.84 388.099C1026.51 388.717 1027.34 389.027 1028.32 389.027C1029.74 389.027 1030.75 388.417 1031.35 387.199H1035.47C1035.03 388.654 1034.19 389.854 1032.96 390.8C1031.72 391.728 1030.2 392.192 1028.4 392.192C1026.95 392.192 1025.64 391.873 1024.47 391.237C1023.33 390.582 1022.42 389.663 1021.77 388.481C1021.13 387.299 1020.82 385.934 1020.82 384.388C1020.82 382.824 1021.13 381.451 1021.77 380.268C1022.41 379.086 1023.3 378.176 1024.44 377.54C1025.59 376.903 1026.91 376.585 1028.4 376.585C1029.84 376.585 1031.12 376.894 1032.25 377.512C1033.39 378.131 1034.28 379.013 1034.89 380.159C1035.53 381.287 1035.85 382.587 1035.85 384.061ZM1031.89 382.969C1031.87 381.987 1031.52 381.205 1030.83 380.623C1030.14 380.023 1029.29 379.722 1028.29 379.722C1027.35 379.722 1026.54 380.013 1025.89 380.596C1025.25 381.159 1024.86 381.951 1024.72 382.969H1031.89Z"></path><path style="fill:var(--color-illustrationSubtle010)" d="M1037.66 384.388C1037.66 382.824 1037.97 381.46 1038.61 380.295C1039.25 379.113 1040.13 378.204 1041.26 377.567C1042.38 376.912 1043.68 376.585 1045.13 376.585C1047 376.585 1048.55 377.058 1049.77 378.003C1051.01 378.931 1051.83 380.241 1052.25 381.933H1048.13C1047.91 381.278 1047.54 380.768 1047.01 380.405C1046.5 380.023 1045.87 379.832 1045.1 379.832C1044.01 379.832 1043.15 380.232 1042.51 381.032C1041.88 381.814 1041.56 382.933 1041.56 384.388C1041.56 385.825 1041.88 386.944 1042.51 387.744C1043.15 388.526 1044.01 388.917 1045.1 388.917C1046.65 388.917 1047.66 388.226 1048.13 386.844H1052.25C1051.83 388.481 1051.01 389.782 1049.77 390.746C1048.53 391.71 1046.99 392.192 1045.13 392.192C1043.68 392.192 1042.38 391.873 1041.26 391.237C1040.13 390.582 1039.25 389.672 1038.61 388.508C1037.97 387.326 1037.66 385.953 1037.66 384.388Z"></path><path style="fill:var(--color-illustrationSubtle010)" d="M1059.5 379.968V387.28C1059.5 387.79 1059.62 388.163 1059.85 388.399C1060.11 388.617 1060.53 388.727 1061.11 388.727H1062.88V391.946H1060.48C1057.26 391.946 1055.65 390.382 1055.65 387.253V379.968H1053.85V376.83H1055.65V373.092H1059.5V376.83H1062.88V379.968H1059.5Z"></path><path style="fill:var(--color-illustrationSubtle010)" d="M1067.57 375.029C1066.89 375.029 1066.33 374.82 1065.87 374.402C1065.44 373.965 1065.22 373.429 1065.22 372.792C1065.22 372.155 1065.44 371.628 1065.87 371.21C1066.33 370.773 1066.89 370.555 1067.57 370.555C1068.24 370.555 1068.79 370.773 1069.23 371.21C1069.69 371.628 1069.91 372.155 1069.91 372.792C1069.91 373.429 1069.69 373.965 1069.23 374.402C1068.79 374.82 1068.24 375.029 1067.57 375.029ZM1069.45 376.83V391.946H1065.63V376.83H1069.45Z"></path><path style="fill:var(--color-illustrationSubtle010)" d="M1079.94 392.192C1078.48 392.192 1077.17 391.873 1076.01 391.237C1074.84 390.582 1073.92 389.663 1073.25 388.481C1072.6 387.299 1072.27 385.934 1072.27 384.388C1072.27 382.842 1072.6 381.478 1073.28 380.295C1073.97 379.113 1074.91 378.204 1076.09 377.567C1077.27 376.912 1078.59 376.585 1080.04 376.585C1081.5 376.585 1082.82 376.912 1084 377.567C1085.18 378.204 1086.11 379.113 1086.78 380.295C1087.48 381.478 1087.82 382.842 1087.82 384.388C1087.82 385.934 1087.47 387.299 1086.76 388.481C1086.07 389.663 1085.12 390.582 1083.92 391.237C1082.74 391.873 1081.41 392.192 1079.94 392.192ZM1079.94 388.863C1080.63 388.863 1081.27 388.699 1081.87 388.372C1082.49 388.026 1082.98 387.517 1083.35 386.844C1083.71 386.171 1083.89 385.352 1083.89 384.388C1083.89 382.951 1083.51 381.851 1082.75 381.087C1082 380.305 1081.08 379.913 1079.99 379.913C1078.9 379.913 1077.98 380.305 1077.23 381.087C1076.51 381.851 1076.14 382.951 1076.14 384.388C1076.14 385.825 1076.5 386.935 1077.21 387.717C1077.93 388.481 1078.84 388.863 1079.94 388.863Z"></path><path style="fill:var(--color-illustrationSubtle010)" d="M1099 376.612C1100.8 376.612 1102.26 377.185 1103.36 378.331C1104.47 379.459 1105.03 381.041 1105.03 383.079V391.946H1101.21V383.597C1101.21 382.396 1100.91 381.478 1100.31 380.841C1099.71 380.186 1098.89 379.859 1097.85 379.859C1096.8 379.859 1095.96 380.186 1095.34 380.841C1094.74 381.478 1094.44 382.396 1094.44 383.597V391.946H1090.62V376.83H1094.44V378.713C1094.95 378.058 1095.6 377.549 1096.38 377.185C1097.18 376.803 1098.05 376.612 1099 376.612Z"></path><path style="fill:var(--color-illustrationSubtle010)" d="M1114.45 392.192C1113.21 392.192 1112.1 391.973 1111.12 391.537C1110.14 391.082 1109.35 390.473 1108.77 389.709C1108.21 388.945 1107.9 388.099 1107.84 387.171H1111.69C1111.76 387.753 1112.05 388.235 1112.54 388.617C1113.05 388.999 1113.67 389.19 1114.42 389.19C1115.15 389.19 1115.71 389.045 1116.11 388.754C1116.53 388.463 1116.74 388.09 1116.74 387.635C1116.74 387.144 1116.48 386.78 1115.97 386.544C1115.48 386.289 1114.69 386.016 1113.6 385.725C1112.47 385.452 1111.54 385.17 1110.82 384.879C1110.11 384.588 1109.49 384.143 1108.96 383.542C1108.45 382.942 1108.2 382.133 1108.2 381.114C1108.2 380.277 1108.43 379.513 1108.91 378.822C1109.4 378.131 1110.09 377.585 1110.98 377.185C1111.89 376.785 1112.95 376.585 1114.17 376.585C1115.97 376.585 1117.41 377.039 1118.48 377.949C1119.56 378.84 1120.15 380.05 1120.26 381.578H1116.6C1116.55 380.978 1116.29 380.505 1115.84 380.159C1115.4 379.795 1114.81 379.613 1114.06 379.613C1113.37 379.613 1112.84 379.741 1112.45 379.995C1112.09 380.25 1111.91 380.605 1111.91 381.059C1111.91 381.569 1112.16 381.96 1112.67 382.233C1113.18 382.487 1113.97 382.751 1115.05 383.024C1116.14 383.297 1117.04 383.579 1117.75 383.87C1118.46 384.161 1119.07 384.616 1119.58 385.234C1120.1 385.834 1120.38 386.635 1120.39 387.635C1120.39 388.508 1120.15 389.29 1119.66 389.982C1119.18 390.673 1118.49 391.219 1117.58 391.619C1116.69 392.001 1115.65 392.192 1114.45 392.192Z"></path></g></g><g opacity="0.3"><path style="fill:var(--color-illustrationInterface030)" d="M379.694 521.511C379.694 512.622 386.9 505.416 395.789 505.416H1082.49C1091.38 505.416 1098.59 512.622 1098.59 521.511V644.903C1098.59 653.791 1091.38 660.997 1082.49 660.997H395.789C386.9 660.997 379.694 653.791 379.694 644.903V521.511Z"></path><path style="fill:var(--color-illustrationInterface030)" d="M379.694 762.551C379.694 756.834 384.329 752.199 390.046 752.199H731.974C737.691 752.199 742.326 756.834 742.326 762.551C742.326 768.268 737.691 772.903 731.974 772.903H390.046C384.329 772.903 379.694 768.268 379.694 762.551Z"></path><path style="fill:var(--color-illustrationInterface030)" fill-rule="evenodd" clip-rule="evenodd" d="M390.046 753.923C385.281 753.923 381.418 757.786 381.418 762.551C381.418 767.316 385.281 771.179 390.046 771.179H731.974C736.739 771.179 740.602 767.316 740.602 762.551C740.602 757.786 736.739 753.923 731.974 753.923H390.046ZM390.046 752.199C384.329 752.199 379.694 756.834 379.694 762.551C379.694 768.268 384.329 772.903 390.046 772.903H731.974C737.691 772.903 742.326 768.268 742.326 762.551C742.326 756.834 737.691 752.199 731.974 752.199H390.046Z"></path><path style="fill:var(--color-illustrationInterface030)" d="M379.694 819.277C379.694 812.925 384.844 807.775 391.196 807.775H1087.08C1093.44 807.775 1098.59 812.925 1098.59 819.277C1098.59 825.63 1093.44 830.779 1087.08 830.779H391.196C384.844 830.779 379.694 825.63 379.694 819.277Z"></path><path style="fill:var(--color-illustrationInterface030)" fill-rule="evenodd" clip-rule="evenodd" d="M391.196 809.499C385.796 809.499 381.418 813.877 381.418 819.277C381.418 824.678 385.796 829.055 391.196 829.055H1087.08C1092.48 829.055 1096.86 824.678 1096.86 819.277C1096.86 813.877 1092.48 809.499 1087.08 809.499H391.196ZM391.196 807.775C384.844 807.775 379.694 812.925 379.694 819.277C379.694 825.63 384.844 830.779 391.196 830.779H1087.08C1093.44 830.779 1098.59 825.63 1098.59 819.277C1098.59 812.925 1093.44 807.775 1087.08 807.775H391.196Z"></path></g></g><path style="fill:var(--color-illustrationInterface030)" fill-rule="evenodd" clip-rule="evenodd" d="M358.636 119H1128.36C1175.66 119 1214 157.435 1214 204.846V1726.15C1214 1773.57 1175.66 1812 1128.36 1812H358.636C311.34 1812 273 1773.57 273 1726.15V204.846C273 157.435 311.341 119 358.636 119ZM358.636 161.923C334.988 161.923 315.818 181.14 315.818 204.846V1726.15C315.818 1749.86 334.988 1769.08 358.636 1769.08H1128.36C1152.01 1769.08 1171.18 1749.86 1171.18 1726.15V204.846C1171.18 181.14 1152.01 161.923 1128.36 161.923H358.636Z"></path></g><defs><filter id="nk-310" x="299.311" y="305.65" width="890.379" height="173.059" filterUnits="userSpaceOnUse" color-interpolation-filters="sRGB"><feFlood flood-opacity="0" result="BackgroundImageFix"></feFlood><feColorMatrix in="SourceAlpha" type="matrix" values="0 0 0 0 0 0 0 0 0 0 0 0 0 0 0 0 0 0 127 0" result="hardAlpha"></feColorMatrix><feOffset dy="8"></feOffset><feGaussianBlur stdDeviation="8"></feGaussianBlur><feColorMatrix type="matrix" values="0 0 0 0 0.0392157 0 0 0 0 0.0392157 0 0 0 0 0.0392157 0 0 0 0.08 0"></feColorMatrix><feBlend mode="normal" in2="BackgroundImageFix" result="effect1_dropShadow"></feBlend><feBlend mode="normal" in="SourceGraphic" in2="effect1_dropShadow" result="shape"></feBlend></filter><clipPath id="nk-304"><rect style="fill:var(--color-white)" width="1490" height="838.004" transform="translate(0 0.0644531)"></rect></clipPath><clipPath id="nk-305"><rect style="fill:var(--color-white)" x="315.311" y="162.064" width="857.379" height="1606.78" rx="42.9189"></rect></clipPath><clipPath id="nk-306"><rect style="fill:var(--color-white)" width="858.379" height="141.059" transform="translate(315.311 313.65)"></rect></clipPath><clipPath id="nk-307"><rect style="fill:var(--color-white)" width="134.33" height="136.425" transform="translate(368.605 313.65)"></rect></clipPath><clipPath id="nk-308"><rect style="fill:var(--color-white)" width="147.868" height="136.425" transform="translate(785.361 313.65)"></rect></clipPath><clipPath id="nk-309"><rect style="fill:var(--color-white)" width="153.059" height="136.425" transform="translate(967.336 313.65)"></rect></clipPath></defs></svg>