<svg id="nksvg" style="width: 100%; height: 100%" width="1490" height="838" viewBox="0 0 1490 838" fill="none" xmlns="http://www.w3.org/2000/svg" class="css-0">
  <g clip-path="url(#nk-224)">
    <path style="fill: var(--color-illustrationBackground020)" d="M0 0H1490V838H0V0Z"></path>
    <g>
      <path style="fill: var(--color-illustrationInterface010)" d="M287.922 251.484C287.922 246.239 292.174 241.987 297.419 241.987H1192.53C1197.77 241.987 1202.02 246.239 1202.02 251.484V344.082C1202.02 349.327 1197.77 353.579 1192.53 353.579H297.419C292.174 353.579 287.922 349.327 287.922 344.082V251.484Z"></path>
    </g>
    <path style="fill: var(--color-illustrationHighlight010)" fill-rule="evenodd" clip-rule="evenodd" d="M346.289 284.079H357.148V297.653H346.289V284.079ZM370.722 284.079H359.863V292.223H370.722V284.079ZM354.433 294.938V286.794H349.004V294.938H354.433ZM368.007 289.509V286.794H362.578V289.509H368.007ZM368.007 297.653V305.797H362.578V297.653H368.007ZM354.433 305.797V303.082H349.004V305.797H354.433ZM370.722 294.938H359.863V308.512H370.722V294.938ZM346.289 300.368H357.148V308.512H346.289V300.368Z"></path>
    <path style="fill: var(--color-illustrationHighlight010)" d="M402.182 289.498V304.657H399.141V294.797L395.08 304.657H392.778L388.695 294.797V304.657H385.655V289.498H389.108L393.929 300.769L398.751 289.498H402.182Z"></path>
    <path style="fill: var(--color-illustrationHighlight010)" d="M416.373 298.38C416.373 298.815 416.344 299.206 416.286 299.553H407.49C407.563 300.422 407.867 301.102 408.402 301.595C408.938 302.087 409.597 302.333 410.379 302.333C411.508 302.333 412.312 301.848 412.789 300.878H416.069C415.721 302.036 415.055 302.992 414.071 303.745C413.086 304.483 411.877 304.852 410.444 304.852C409.286 304.852 408.243 304.599 407.316 304.092C406.404 303.571 405.688 302.84 405.166 301.899C404.66 300.958 404.406 299.872 404.406 298.641C404.406 297.396 404.66 296.303 405.166 295.362C405.673 294.42 406.383 293.696 407.295 293.19C408.207 292.683 409.257 292.43 410.444 292.43C411.588 292.43 412.608 292.676 413.506 293.168C414.418 293.66 415.12 294.362 415.613 295.275C416.119 296.172 416.373 297.208 416.373 298.38ZM413.224 297.512C413.209 296.73 412.927 296.107 412.377 295.644C411.827 295.166 411.153 294.927 410.357 294.927C409.604 294.927 408.967 295.159 408.446 295.622C407.939 296.071 407.628 296.701 407.512 297.512H413.224Z"></path>
    <path style="fill: var(--color-illustrationHighlight010)" d="M425.26 292.451C426.693 292.451 427.851 292.907 428.735 293.82C429.618 294.717 430.059 295.977 430.059 297.598V304.657H427.019V298.011C427.019 297.056 426.78 296.324 426.302 295.818C425.824 295.296 425.173 295.036 424.347 295.036C423.508 295.036 422.842 295.296 422.349 295.818C421.872 296.324 421.633 297.056 421.633 298.011V304.657H418.592V292.625H421.633V294.124C422.038 293.602 422.552 293.197 423.175 292.907C423.812 292.603 424.507 292.451 425.26 292.451Z"></path>
    <path style="fill: var(--color-illustrationHighlight010)" d="M444.309 292.625V304.657H441.247V303.137C440.856 303.658 440.342 304.07 439.705 304.375C439.082 304.664 438.402 304.809 437.664 304.809C436.722 304.809 435.89 304.613 435.166 304.222C434.442 303.817 433.87 303.231 433.45 302.463C433.045 301.681 432.842 300.755 432.842 299.683V292.625H435.883V299.249C435.883 300.205 436.122 300.943 436.599 301.464C437.077 301.971 437.729 302.224 438.554 302.224C439.394 302.224 440.052 301.971 440.53 301.464C441.008 300.943 441.247 300.205 441.247 299.249V292.625H444.309Z"></path>
    <path style="fill: var(--color-illustrationHighlight010)" d="M454.026 291.192C453.49 291.192 453.042 291.025 452.68 290.692C452.332 290.345 452.158 289.918 452.158 289.411C452.158 288.904 452.332 288.484 452.68 288.151C453.042 287.804 453.49 287.63 454.026 287.63C454.562 287.63 455.004 287.804 455.351 288.151C455.713 288.484 455.894 288.904 455.894 289.411C455.894 289.918 455.713 290.345 455.351 290.692C455.004 291.025 454.562 291.192 454.026 291.192ZM455.525 292.625V304.657H452.484V292.625H455.525Z"></path>
    <path style="fill: var(--color-illustrationHighlight010)" d="M462.069 295.123V300.943C462.069 301.348 462.163 301.645 462.351 301.833C462.554 302.007 462.887 302.094 463.35 302.094H464.762V304.657H462.851C460.288 304.657 459.007 303.412 459.007 300.921V295.123H457.573V292.625H459.007V289.65H462.069V292.625H464.762V295.123H462.069Z"></path>
    <path style="fill: var(--color-illustrationHighlight010)" d="M478.134 298.38C478.134 298.815 478.105 299.206 478.047 299.553H469.251C469.323 300.422 469.627 301.102 470.163 301.595C470.699 302.087 471.358 302.333 472.139 302.333C473.269 302.333 474.072 301.848 474.55 300.878H477.83C477.482 302.036 476.816 302.992 475.831 303.745C474.847 304.483 473.638 304.852 472.205 304.852C471.046 304.852 470.004 304.599 469.077 304.092C468.165 303.571 467.448 302.84 466.927 301.899C466.42 300.958 466.167 299.872 466.167 298.641C466.167 297.396 466.42 296.303 466.927 295.362C467.434 294.42 468.143 293.696 469.055 293.19C469.968 292.683 471.017 292.43 472.205 292.43C473.348 292.43 474.369 292.676 475.267 293.168C476.179 293.66 476.881 294.362 477.373 295.275C477.88 296.172 478.134 297.208 478.134 298.38ZM474.984 297.512C474.97 296.73 474.688 296.107 474.137 295.644C473.587 295.166 472.914 294.927 472.118 294.927C471.365 294.927 470.728 295.159 470.206 295.622C469.7 296.071 469.388 296.701 469.273 297.512H474.984Z"></path>
    <path style="fill: var(--color-illustrationHighlight010)" d="M495.295 292.451C496.772 292.451 497.959 292.907 498.857 293.82C499.769 294.717 500.225 295.977 500.225 297.598V304.657H497.184V298.011C497.184 297.07 496.945 296.353 496.468 295.861C495.99 295.354 495.338 295.101 494.513 295.101C493.688 295.101 493.029 295.354 492.537 295.861C492.059 296.353 491.82 297.07 491.82 298.011V304.657H488.779V298.011C488.779 297.07 488.541 296.353 488.063 295.861C487.585 295.354 486.933 295.101 486.108 295.101C485.268 295.101 484.602 295.354 484.11 295.861C483.632 296.353 483.393 297.07 483.393 298.011V304.657H480.353V292.625H483.393V294.08C483.784 293.573 484.284 293.175 484.892 292.886C485.515 292.596 486.195 292.451 486.933 292.451C487.875 292.451 488.714 292.654 489.453 293.059C490.191 293.45 490.763 294.015 491.168 294.753C491.559 294.058 492.124 293.501 492.862 293.081C493.615 292.661 494.426 292.451 495.295 292.451Z"></path>
    <path style="fill: var(--color-illustrationHighlight010)" d="M513.628 304.852C512.47 304.852 511.427 304.599 510.5 304.092C509.574 303.571 508.843 302.84 508.307 301.899C507.786 300.958 507.525 299.872 507.525 298.641C507.525 297.41 507.793 296.324 508.329 295.383C508.879 294.442 509.624 293.718 510.566 293.211C511.507 292.69 512.556 292.43 513.715 292.43C514.873 292.43 515.923 292.69 516.864 293.211C517.805 293.718 518.543 294.442 519.079 295.383C519.629 296.324 519.904 297.41 519.904 298.641C519.904 299.872 519.622 300.958 519.057 301.899C518.507 302.84 517.754 303.571 516.799 304.092C515.858 304.599 514.801 304.852 513.628 304.852ZM513.628 302.203C514.178 302.203 514.692 302.072 515.17 301.812C515.662 301.537 516.053 301.131 516.343 300.596C516.632 300.06 516.777 299.408 516.777 298.641C516.777 297.497 516.473 296.621 515.865 296.013C515.271 295.39 514.54 295.079 513.671 295.079C512.803 295.079 512.071 295.39 511.478 296.013C510.899 296.621 510.609 297.497 510.609 298.641C510.609 299.785 510.891 300.668 511.456 301.291C512.035 301.899 512.759 302.203 513.628 302.203Z"></path>
    <path style="fill: var(--color-illustrationHighlight010)" d="M528.802 292.451C530.236 292.451 531.394 292.907 532.277 293.82C533.16 294.717 533.602 295.977 533.602 297.598V304.657H530.561V298.011C530.561 297.056 530.322 296.324 529.845 295.818C529.367 295.296 528.715 295.036 527.89 295.036C527.05 295.036 526.384 295.296 525.892 295.818C525.414 296.324 525.175 297.056 525.175 298.011V304.657H522.135V292.625H525.175V294.124C525.581 293.602 526.095 293.197 526.717 292.907C527.354 292.603 528.049 292.451 528.802 292.451Z"></path>
    <path style="fill: var(--color-illustrationHighlight010)" d="M547.678 298.38C547.678 298.815 547.649 299.206 547.591 299.553H538.795C538.868 300.422 539.172 301.102 539.707 301.595C540.243 302.087 540.902 302.333 541.684 302.333C542.813 302.333 543.617 301.848 544.095 300.878H547.374C547.026 302.036 546.36 302.992 545.376 303.745C544.391 304.483 543.182 304.852 541.749 304.852C540.591 304.852 539.548 304.599 538.622 304.092C537.709 303.571 536.993 302.84 536.471 301.899C535.965 300.958 535.711 299.872 535.711 298.641C535.711 297.396 535.965 296.303 536.471 295.362C536.978 294.42 537.688 293.696 538.6 293.19C539.512 292.683 540.562 292.43 541.749 292.43C542.893 292.43 543.914 292.676 544.811 293.168C545.723 293.66 546.426 294.362 546.918 295.275C547.425 296.172 547.678 297.208 547.678 298.38ZM544.529 297.512C544.514 296.73 544.232 296.107 543.682 295.644C543.132 295.166 542.458 294.927 541.662 294.927C540.909 294.927 540.272 295.159 539.751 295.622C539.244 296.071 538.933 296.701 538.817 297.512H544.529Z"></path>
    <path style="fill: var(--color-illustrationHighlight010)" d="M342.217 350.59H547.678V353.305H342.217V350.59Z"></path>
    <path style="fill: var(--color-illustrationSubtle010)" fill-rule="evenodd" clip-rule="evenodd" d="M646.772 296.296C649.392 296.296 651.523 294.165 651.523 291.545C651.523 288.925 649.392 286.794 646.772 286.794C644.152 286.794 642.021 288.925 642.021 291.545C642.021 294.165 644.152 296.296 646.772 296.296ZM646.772 289.509C647.899 289.509 648.808 290.418 648.808 291.545C648.808 292.671 647.899 293.581 646.772 293.581C645.646 293.581 644.736 292.671 644.736 291.545C644.736 290.418 645.646 289.509 646.772 289.509ZM641.03 303.082H646.84C646.799 303.3 646.772 303.53 646.772 303.761V305.797H637.271V303.761C637.271 300.598 643.596 299.01 646.772 299.01C647.532 299.01 648.469 299.105 649.46 299.282C648.496 299.933 647.695 300.748 647.234 301.739C647.159 301.739 647.081 301.735 647.003 301.732C646.925 301.728 646.847 301.725 646.772 301.725C644.695 301.725 642.374 302.404 641.03 303.082ZM656.952 299.689C654.455 299.689 649.487 301.06 649.487 303.761V305.797H664.418V303.761C664.418 301.06 659.45 299.689 656.952 299.689ZM660.346 294.26C660.346 295.535 659.627 296.635 658.595 297.219C658.106 297.49 657.55 297.653 656.952 297.653C656.355 297.653 655.799 297.49 655.31 297.219C654.278 296.635 653.559 295.535 653.559 294.26C653.559 292.386 655.079 290.866 656.952 290.866C658.826 290.866 660.346 292.386 660.346 294.26Z"></path>
    <path style="fill: var(--color-illustrationSubtle010)" d="M694.515 289.498V304.657H691.474V294.797L687.413 304.657H685.111L681.028 294.797V304.657H677.987V289.498H681.44L686.262 300.769L691.083 289.498H694.515Z"></path>
    <path style="fill: var(--color-illustrationSubtle010)" d="M708.706 298.38C708.706 298.815 708.677 299.206 708.619 299.553H699.823C699.895 300.422 700.199 301.102 700.735 301.595C701.271 302.087 701.93 302.333 702.711 302.333C703.841 302.333 704.644 301.848 705.122 300.878H708.402C708.054 302.036 707.388 302.992 706.404 303.745C705.419 304.483 704.21 304.852 702.777 304.852C701.618 304.852 700.576 304.599 699.649 304.092C698.737 303.571 698.02 302.84 697.499 301.899C696.992 300.958 696.739 299.872 696.739 298.641C696.739 297.396 696.992 296.303 697.499 295.362C698.006 294.42 698.715 293.696 699.627 293.19C700.54 292.683 701.589 292.43 702.777 292.43C703.92 292.43 704.941 292.676 705.839 293.168C706.751 293.66 707.453 294.362 707.945 295.275C708.452 296.172 708.706 297.208 708.706 298.38ZM705.557 297.512C705.542 296.73 705.26 296.107 704.71 295.644C704.159 295.166 703.486 294.927 702.69 294.927C701.937 294.927 701.3 295.159 700.779 295.622C700.272 296.071 699.96 296.701 699.845 297.512H705.557Z"></path>
    <path style="fill: var(--color-illustrationSubtle010)" d="M717.592 292.451C719.026 292.451 720.184 292.907 721.067 293.82C721.95 294.717 722.392 295.977 722.392 297.598V304.657H719.352V298.011C719.352 297.056 719.113 296.324 718.635 295.818C718.157 295.296 717.506 295.036 716.68 295.036C715.84 295.036 715.174 295.296 714.682 295.818C714.204 296.324 713.965 297.056 713.965 298.011V304.657H710.925V292.625H713.965V294.124C714.371 293.602 714.885 293.197 715.507 292.907C716.145 292.603 716.839 292.451 717.592 292.451Z"></path>
    <path style="fill: var(--color-illustrationSubtle010)" d="M736.642 292.625V304.657H733.58V303.137C733.189 303.658 732.675 304.07 732.038 304.375C731.415 304.664 730.735 304.809 729.996 304.809C729.055 304.809 728.223 304.613 727.499 304.222C726.775 303.817 726.203 303.231 725.783 302.463C725.378 301.681 725.175 300.755 725.175 299.683V292.625H728.215V299.249C728.215 300.205 728.454 300.943 728.932 301.464C729.41 301.971 730.061 302.224 730.887 302.224C731.726 302.224 732.385 301.971 732.863 301.464C733.341 300.943 733.58 300.205 733.58 299.249V292.625H736.642Z"></path>
    <path style="fill: var(--color-illustrationSubtle010)" d="M746.359 291.192C745.823 291.192 745.374 291.025 745.012 290.692C744.665 290.345 744.491 289.918 744.491 289.411C744.491 288.904 744.665 288.484 745.012 288.151C745.374 287.804 745.823 287.63 746.359 287.63C746.895 287.63 747.336 287.804 747.684 288.151C748.046 288.484 748.227 288.904 748.227 289.411C748.227 289.918 748.046 290.345 747.684 290.692C747.336 291.025 746.895 291.192 746.359 291.192ZM747.858 292.625V304.657H744.817V292.625H747.858Z"></path>
    <path style="fill: var(--color-illustrationSubtle010)" d="M754.402 295.123V300.943C754.402 301.348 754.496 301.645 754.684 301.833C754.887 302.007 755.22 302.094 755.683 302.094H757.095V304.657H755.183C752.621 304.657 751.339 303.412 751.339 300.921V295.123H749.906V292.625H751.339V289.65H754.402V292.625H757.095V295.123H754.402Z"></path>
    <path style="fill: var(--color-illustrationSubtle010)" d="M770.466 298.38C770.466 298.815 770.437 299.206 770.379 299.553H761.584C761.656 300.422 761.96 301.102 762.496 301.595C763.032 302.087 763.69 302.333 764.472 302.333C765.601 302.333 766.405 301.848 766.883 300.878H770.162C769.815 302.036 769.149 302.992 768.164 303.745C767.18 304.483 765.971 304.852 764.537 304.852C763.379 304.852 762.337 304.599 761.41 304.092C760.498 303.571 759.781 302.84 759.26 301.899C758.753 300.958 758.5 299.872 758.5 298.641C758.5 297.396 758.753 296.303 759.26 295.362C759.767 294.42 760.476 293.696 761.388 293.19C762.3 292.683 763.35 292.43 764.537 292.43C765.681 292.43 766.702 292.676 767.6 293.168C768.512 293.66 769.214 294.362 769.706 295.275C770.213 296.172 770.466 297.208 770.466 298.38ZM767.317 297.512C767.303 296.73 767.02 296.107 766.47 295.644C765.92 295.166 765.247 294.927 764.45 294.927C763.698 294.927 763.06 295.159 762.539 295.622C762.032 296.071 761.721 296.701 761.605 297.512H767.317Z"></path>
    <path style="fill: var(--color-illustrationSubtle010)" d="M787.628 292.451C789.105 292.451 790.292 292.907 791.189 293.82C792.102 294.717 792.558 295.977 792.558 297.598V304.657H789.517V298.011C789.517 297.07 789.278 296.353 788.8 295.861C788.323 295.354 787.671 295.101 786.846 295.101C786.021 295.101 785.362 295.354 784.869 295.861C784.392 296.353 784.153 297.07 784.153 298.011V304.657H781.112V298.011C781.112 297.07 780.873 296.353 780.396 295.861C779.918 295.354 779.266 295.101 778.441 295.101C777.601 295.101 776.935 295.354 776.443 295.861C775.965 296.353 775.726 297.07 775.726 298.011V304.657H772.686V292.625H775.726V294.08C776.117 293.573 776.617 293.175 777.225 292.886C777.847 292.596 778.528 292.451 779.266 292.451C780.207 292.451 781.047 292.654 781.786 293.059C782.524 293.45 783.096 294.015 783.501 294.753C783.892 294.058 784.457 293.501 785.195 293.081C785.948 292.661 786.759 292.451 787.628 292.451Z"></path>
    <path style="fill: var(--color-illustrationSubtle010)" d="M804.158 295.123V300.943C804.158 301.348 804.252 301.645 804.44 301.833C804.643 302.007 804.976 302.094 805.439 302.094H806.851V304.657H804.94C802.377 304.657 801.096 303.412 801.096 300.921V295.123H799.662V292.625H801.096V289.65H804.158V292.625H806.851V295.123H804.158Z"></path>
    <path style="fill: var(--color-illustrationSubtle010)" d="M825.717 292.625L822.199 304.657H818.92L816.726 296.252L814.533 304.657H811.231L807.691 292.625H810.775L812.904 301.79L815.206 292.625H818.42L820.679 301.768L822.807 292.625H825.717Z"></path>
    <path style="fill: var(--color-illustrationSubtle010)" d="M832.705 304.852C831.547 304.852 830.504 304.599 829.578 304.092C828.651 303.571 827.92 302.84 827.384 301.899C826.863 300.958 826.602 299.872 826.602 298.641C826.602 297.41 826.87 296.324 827.406 295.383C827.956 294.442 828.702 293.718 829.643 293.211C830.584 292.69 831.634 292.43 832.792 292.43C833.95 292.43 835 292.69 835.941 293.211C836.882 293.718 837.621 294.442 838.156 295.383C838.707 296.324 838.982 297.41 838.982 298.641C838.982 299.872 838.699 300.958 838.135 301.899C837.585 302.84 836.832 303.571 835.876 304.092C834.935 304.599 833.878 304.852 832.705 304.852ZM832.705 302.203C833.255 302.203 833.769 302.072 834.247 301.812C834.739 301.537 835.13 301.131 835.42 300.596C835.709 300.06 835.854 299.408 835.854 298.641C835.854 297.497 835.55 296.621 834.942 296.013C834.349 295.39 833.617 295.079 832.749 295.079C831.88 295.079 831.149 295.39 830.555 296.013C829.976 296.621 829.686 297.497 829.686 298.641C829.686 299.785 829.969 300.668 830.533 301.291C831.113 301.899 831.836 302.203 832.705 302.203Z"></path>
    <path style="fill: var(--color-illustrationInterface010)" d="M601.973 350.59H871.559V353.305H601.973V350.59Z"></path>
    <path style="fill: var(--color-illustrationSubtle010)" fill-rule="evenodd" clip-rule="evenodd" d="M928.571 296.295C928.571 288.803 934.652 282.722 942.145 282.722C949.638 282.722 955.719 288.803 955.719 296.295C955.719 303.788 949.638 309.869 942.145 309.869C934.652 309.869 928.571 303.788 928.571 296.295ZM940.788 304.44V301.725H943.503V304.44H940.788ZM942.145 307.154C936.159 307.154 931.286 302.281 931.286 296.295C931.286 290.309 936.159 285.436 942.145 285.436C948.131 285.436 953.004 290.309 953.004 296.295C953.004 302.281 948.131 307.154 942.145 307.154ZM936.716 293.581C936.716 290.581 939.145 288.151 942.145 288.151C945.145 288.151 947.575 290.581 947.575 293.581C947.575 295.322 946.502 296.259 945.458 297.172C944.468 298.037 943.503 298.881 943.503 300.368H940.788C940.788 297.895 942.067 296.915 943.191 296.053C944.073 295.377 944.86 294.774 944.86 293.581C944.86 292.088 943.638 290.866 942.145 290.866C940.652 290.866 939.431 292.088 939.431 293.581H936.716Z"></path>
    <path style="fill: var(--color-illustrationSubtle010)" d="M985.821 289.498V304.657H982.781V294.797L978.719 304.657H976.417L972.334 294.797V304.657H969.294V289.498H972.747L977.568 300.769L982.39 289.498H985.821Z"></path>
    <path style="fill: var(--color-illustrationSubtle010)" d="M1000.01 298.38C1000.01 298.815 999.983 299.206 999.925 299.553H991.129C991.202 300.422 991.506 301.102 992.041 301.595C992.577 302.087 993.236 302.333 994.018 302.333C995.147 302.333 995.951 301.848 996.429 300.878H999.708C999.36 302.036 998.694 302.992 997.71 303.745C996.725 304.483 995.516 304.852 994.083 304.852C992.925 304.852 991.882 304.599 990.956 304.092C990.043 303.571 989.327 302.84 988.806 301.899C988.299 300.958 988.045 299.872 988.045 298.641C988.045 297.396 988.299 296.303 988.806 295.362C989.312 294.42 990.022 293.696 990.934 293.19C991.846 292.683 992.896 292.43 994.083 292.43C995.227 292.43 996.248 292.676 997.145 293.168C998.057 293.66 998.76 294.362 999.252 295.275C999.759 296.172 1000.01 297.208 1000.01 298.38ZM996.863 297.512C996.848 296.73 996.566 296.107 996.016 295.644C995.466 295.166 994.792 294.927 993.996 294.927C993.243 294.927 992.606 295.159 992.085 295.622C991.578 296.071 991.267 296.701 991.151 297.512H996.863Z"></path>
    <path style="fill: var(--color-illustrationSubtle010)" d="M1008.9 292.451C1010.33 292.451 1011.49 292.907 1012.37 293.82C1013.26 294.717 1013.7 295.977 1013.7 297.598V304.657H1010.66V298.011C1010.66 297.056 1010.42 296.324 1009.94 295.818C1009.46 295.296 1008.81 295.036 1007.99 295.036C1007.15 295.036 1006.48 295.296 1005.99 295.818C1005.51 296.324 1005.27 297.056 1005.27 298.011V304.657H1002.23V292.625H1005.27V294.124C1005.68 293.602 1006.19 293.197 1006.81 292.907C1007.45 292.603 1008.15 292.451 1008.9 292.451Z"></path>
    <path style="fill: var(--color-illustrationSubtle010)" d="M1027.95 292.625V304.657H1024.89V303.137C1024.5 303.658 1023.98 304.07 1023.34 304.375C1022.72 304.664 1022.04 304.809 1021.3 304.809C1020.36 304.809 1019.53 304.613 1018.81 304.222C1018.08 303.817 1017.51 303.231 1017.09 302.463C1016.68 301.681 1016.48 300.755 1016.48 299.683V292.625H1019.52V299.249C1019.52 300.205 1019.76 300.943 1020.24 301.464C1020.72 301.971 1021.37 302.224 1022.19 302.224C1023.03 302.224 1023.69 301.971 1024.17 301.464C1024.65 300.943 1024.89 300.205 1024.89 299.249V292.625H1027.95Z"></path>
    <path style="fill: var(--color-illustrationSubtle010)" d="M1037.67 291.192C1037.13 291.192 1036.68 291.025 1036.32 290.692C1035.97 290.345 1035.8 289.918 1035.8 289.411C1035.8 288.904 1035.97 288.484 1036.32 288.151C1036.68 287.804 1037.13 287.63 1037.67 287.63C1038.2 287.63 1038.64 287.804 1038.99 288.151C1039.35 288.484 1039.53 288.904 1039.53 289.411C1039.53 289.918 1039.35 290.345 1038.99 290.692C1038.64 291.025 1038.2 291.192 1037.67 291.192ZM1039.16 292.625V304.657H1036.12V292.625H1039.16Z"></path>
    <path style="fill: var(--color-illustrationSubtle010)" d="M1045.71 295.123V300.943C1045.71 301.348 1045.8 301.645 1045.99 301.833C1046.19 302.007 1046.53 302.094 1046.99 302.094H1048.4V304.657H1046.49C1043.93 304.657 1042.65 303.412 1042.65 300.921V295.123H1041.21V292.625H1042.65V289.65H1045.71V292.625H1048.4V295.123H1045.71Z"></path>
    <path style="fill: var(--color-illustrationSubtle010)" d="M1061.77 298.38C1061.77 298.815 1061.74 299.206 1061.69 299.553H1052.89C1052.96 300.422 1053.27 301.102 1053.8 301.595C1054.34 302.087 1055 302.333 1055.78 302.333C1056.91 302.333 1057.71 301.848 1058.19 300.878H1061.47C1061.12 302.036 1060.46 302.992 1059.47 303.745C1058.49 304.483 1057.28 304.852 1055.84 304.852C1054.69 304.852 1053.64 304.599 1052.72 304.092C1051.8 303.571 1051.09 302.84 1050.57 301.899C1050.06 300.958 1049.81 299.872 1049.81 298.641C1049.81 297.396 1050.06 296.303 1050.57 295.362C1051.07 294.42 1051.78 293.696 1052.69 293.19C1053.61 292.683 1054.66 292.43 1055.84 292.43C1056.99 292.43 1058.01 292.676 1058.91 293.168C1059.82 293.66 1060.52 294.362 1061.01 295.275C1061.52 296.172 1061.77 297.208 1061.77 298.38ZM1058.62 297.512C1058.61 296.73 1058.33 296.107 1057.78 295.644C1057.23 295.166 1056.55 294.927 1055.76 294.927C1055 294.927 1054.37 295.159 1053.85 295.622C1053.34 296.071 1053.03 296.701 1052.91 297.512H1058.62Z"></path>
    <path style="fill: var(--color-illustrationSubtle010)" d="M1078.93 292.451C1080.41 292.451 1081.6 292.907 1082.5 293.82C1083.41 294.717 1083.86 295.977 1083.86 297.598V304.657H1080.82V298.011C1080.82 297.07 1080.58 296.353 1080.11 295.861C1079.63 295.354 1078.98 295.101 1078.15 295.101C1077.33 295.101 1076.67 295.354 1076.18 295.861C1075.7 296.353 1075.46 297.07 1075.46 298.011V304.657H1072.42V298.011C1072.42 297.07 1072.18 296.353 1071.7 295.861C1071.22 295.354 1070.57 295.101 1069.75 295.101C1068.91 295.101 1068.24 295.354 1067.75 295.861C1067.27 296.353 1067.03 297.07 1067.03 298.011V304.657H1063.99V292.625H1067.03V294.08C1067.42 293.573 1067.92 293.175 1068.53 292.886C1069.15 292.596 1069.83 292.451 1070.57 292.451C1071.51 292.451 1072.35 292.654 1073.09 293.059C1073.83 293.45 1074.4 294.015 1074.81 294.753C1075.2 294.058 1075.76 293.501 1076.5 293.081C1077.25 292.661 1078.07 292.451 1078.93 292.451Z"></path>
    <path style="fill: var(--color-illustrationSubtle010)" d="M1095.46 295.123V300.943C1095.46 301.348 1095.56 301.645 1095.75 301.833C1095.95 302.007 1096.28 302.094 1096.75 302.094H1098.16V304.657H1096.25C1093.68 304.657 1092.4 303.412 1092.4 300.921V295.123H1090.97V292.625H1092.4V289.65H1095.46V292.625H1098.16V295.123H1095.46Z"></path>
    <path style="fill: var(--color-illustrationSubtle010)" d="M1107.12 292.451C1108.03 292.451 1108.84 292.654 1109.55 293.059C1110.26 293.45 1110.81 294.037 1111.2 294.819C1111.61 295.586 1111.81 296.513 1111.81 297.598V304.657H1108.77V298.011C1108.77 297.056 1108.53 296.324 1108.05 295.818C1107.58 295.296 1106.92 295.036 1106.1 295.036C1105.26 295.036 1104.59 295.296 1104.1 295.818C1103.62 296.324 1103.38 297.056 1103.38 298.011V304.657H1100.34V288.585H1103.38V294.124C1103.78 293.602 1104.3 293.197 1104.95 292.907C1105.6 292.603 1106.32 292.451 1107.12 292.451Z"></path>
    <path style="fill: var(--color-illustrationSubtle010)" d="M1117.74 294.493C1118.13 293.856 1118.64 293.356 1119.26 292.994C1119.9 292.632 1120.62 292.451 1121.44 292.451V295.644H1120.63C1119.68 295.644 1118.95 295.868 1118.46 296.317C1117.98 296.766 1117.74 297.548 1117.74 298.663V304.657H1114.7V292.625H1117.74V294.493Z"></path>
    <path style="fill: var(--color-illustrationSubtle010)" d="M1134.67 298.38C1134.67 298.815 1134.64 299.206 1134.58 299.553H1125.79C1125.86 300.422 1126.16 301.102 1126.7 301.595C1127.23 302.087 1127.89 302.333 1128.67 302.333C1129.8 302.333 1130.61 301.848 1131.08 300.878H1134.36C1134.02 302.036 1133.35 302.992 1132.37 303.745C1131.38 304.483 1130.17 304.852 1128.74 304.852C1127.58 304.852 1126.54 304.599 1125.61 304.092C1124.7 303.571 1123.98 302.84 1123.46 301.899C1122.95 300.958 1122.7 299.872 1122.7 298.641C1122.7 297.396 1122.95 296.303 1123.46 295.362C1123.97 294.42 1124.68 293.696 1125.59 293.19C1126.5 292.683 1127.55 292.43 1128.74 292.43C1129.88 292.43 1130.9 292.676 1131.8 293.168C1132.71 293.66 1133.42 294.362 1133.91 295.275C1134.41 296.172 1134.67 297.208 1134.67 298.38ZM1131.52 297.512C1131.5 296.73 1131.22 296.107 1130.67 295.644C1130.12 295.166 1129.45 294.927 1128.65 294.927C1127.9 294.927 1127.26 295.159 1126.74 295.622C1126.23 296.071 1125.92 296.701 1125.81 297.512H1131.52Z"></path>
    <path style="fill: var(--color-illustrationSubtle010)" d="M1148.07 298.38C1148.07 298.815 1148.04 299.206 1147.99 299.553H1139.19C1139.26 300.422 1139.57 301.102 1140.1 301.595C1140.64 302.087 1141.3 302.333 1142.08 302.333C1143.21 302.333 1144.01 301.848 1144.49 300.878H1147.77C1147.42 302.036 1146.75 302.992 1145.77 303.745C1144.79 304.483 1143.58 304.852 1142.14 304.852C1140.98 304.852 1139.94 304.599 1139.02 304.092C1138.1 303.571 1137.39 302.84 1136.87 301.899C1136.36 300.958 1136.11 299.872 1136.11 298.641C1136.11 297.396 1136.36 296.303 1136.87 295.362C1137.37 294.42 1138.08 293.696 1138.99 293.19C1139.91 292.683 1140.96 292.43 1142.14 292.43C1143.29 292.43 1144.31 292.676 1145.21 293.168C1146.12 293.66 1146.82 294.362 1147.31 295.275C1147.82 296.172 1148.07 297.208 1148.07 298.38ZM1144.92 297.512C1144.91 296.73 1144.63 296.107 1144.08 295.644C1143.53 295.166 1142.85 294.927 1142.06 294.927C1141.3 294.927 1140.67 295.159 1140.15 295.622C1139.64 296.071 1139.33 296.701 1139.21 297.512H1144.92Z"></path>
    <path style="fill: var(--color-illustrationInterface010)" d="M925.854 350.59H1148.07V353.305H925.854V350.59Z"></path>
    <g>
      <path style="fill: var(--color-illustrationInterface010)" d="M287.922 549.789C287.922 544.544 292.174 540.292 297.419 540.292H1192.53C1197.77 540.292 1202.02 544.544 1202.02 549.789V642.387C1202.02 647.632 1197.77 651.884 1192.53 651.884H297.419C292.174 651.884 287.922 647.632 287.922 642.387V549.789Z"></path>
    </g>
    <path style="fill: var(--color-illustrationSubtle010)" d="M358.746 587.802V602.961H355.705V593.101L351.644 602.961H349.342L345.259 593.101V602.961H342.219V587.802H345.672L350.493 599.074L355.314 587.802H358.746Z"></path>
    <path style="fill: var(--color-illustrationSubtle010)" d="M372.937 596.685C372.937 597.119 372.908 597.51 372.85 597.857H364.054C364.127 598.726 364.431 599.407 364.966 599.899C365.502 600.391 366.161 600.637 366.943 600.637C368.072 600.637 368.876 600.152 369.353 599.182H372.633C372.285 600.34 371.619 601.296 370.635 602.049C369.65 602.787 368.441 603.156 367.008 603.156C365.85 603.156 364.807 602.903 363.88 602.396C362.968 601.875 362.252 601.144 361.73 600.203C361.224 599.262 360.97 598.176 360.97 596.945C360.97 595.7 361.224 594.607 361.73 593.666C362.237 592.725 362.947 592.001 363.859 591.494C364.771 590.987 365.821 590.734 367.008 590.734C368.152 590.734 369.172 590.98 370.07 591.472C370.982 591.964 371.684 592.667 372.177 593.579C372.683 594.477 372.937 595.512 372.937 596.685ZM369.788 595.816C369.773 595.034 369.491 594.411 368.941 593.948C368.391 593.47 367.717 593.231 366.921 593.231C366.168 593.231 365.531 593.463 365.01 593.926C364.503 594.375 364.192 595.005 364.076 595.816H369.788Z"></path>
    <path style="fill: var(--color-illustrationSubtle010)" d="M381.824 590.755C383.257 590.755 384.415 591.212 385.298 592.124C386.182 593.021 386.623 594.281 386.623 595.903V602.961H383.583V596.315C383.583 595.36 383.344 594.629 382.866 594.122C382.388 593.601 381.737 593.34 380.911 593.34C380.072 593.34 379.406 593.601 378.913 594.122C378.436 594.629 378.197 595.36 378.197 596.315V602.961H375.156V590.929H378.197V592.428C378.602 591.907 379.116 591.501 379.739 591.212C380.376 590.908 381.071 590.755 381.824 590.755Z"></path>
    <path style="fill: var(--color-illustrationSubtle010)" d="M400.873 590.929V602.961H397.811V601.441C397.42 601.962 396.906 602.375 396.269 602.679C395.646 602.968 394.966 603.113 394.227 603.113C393.286 603.113 392.454 602.918 391.73 602.527C391.006 602.121 390.434 601.535 390.014 600.768C389.609 599.986 389.406 599.059 389.406 597.988V590.929H392.447V597.553C392.447 598.509 392.685 599.247 393.163 599.768C393.641 600.275 394.293 600.529 395.118 600.529C395.958 600.529 396.616 600.275 397.094 599.768C397.572 599.247 397.811 598.509 397.811 597.553V590.929H400.873Z"></path>
    <path style="fill: var(--color-illustrationSubtle010)" d="M410.59 589.496C410.054 589.496 409.606 589.329 409.244 588.996C408.896 588.649 408.722 588.222 408.722 587.715C408.722 587.208 408.896 586.788 409.244 586.455C409.606 586.108 410.054 585.934 410.59 585.934C411.126 585.934 411.567 586.108 411.915 586.455C412.277 586.788 412.458 587.208 412.458 587.715C412.458 588.222 412.277 588.649 411.915 588.996C411.567 589.329 411.126 589.496 410.59 589.496ZM412.089 590.929V602.961H409.048V590.929H412.089Z"></path>
    <path style="fill: var(--color-illustrationSubtle010)" d="M418.633 593.427V599.247C418.633 599.653 418.727 599.949 418.915 600.138C419.118 600.311 419.451 600.398 419.914 600.398H421.326V602.961H419.415C416.852 602.961 415.571 601.716 415.571 599.226V593.427H414.137V590.929H415.571V587.954H418.633V590.929H421.326V593.427H418.633Z"></path>
    <path style="fill: var(--color-illustrationSubtle010)" d="M434.698 596.685C434.698 597.119 434.669 597.51 434.611 597.857H425.815C425.887 598.726 426.191 599.407 426.727 599.899C427.263 600.391 427.921 600.637 428.703 600.637C429.833 600.637 430.636 600.152 431.114 599.182H434.393C434.046 600.34 433.38 601.296 432.395 602.049C431.411 602.787 430.202 603.156 428.769 603.156C427.61 603.156 426.568 602.903 425.641 602.396C424.729 601.875 424.012 601.144 423.491 600.203C422.984 599.262 422.731 598.176 422.731 596.945C422.731 595.7 422.984 594.607 423.491 593.666C423.998 592.725 424.707 592.001 425.619 591.494C426.532 590.987 427.581 590.734 428.769 590.734C429.912 590.734 430.933 590.98 431.831 591.472C432.743 591.964 433.445 592.667 433.937 593.579C434.444 594.477 434.698 595.512 434.698 596.685ZM431.548 595.816C431.534 595.034 431.252 594.411 430.701 593.948C430.151 593.47 429.478 593.231 428.682 593.231C427.929 593.231 427.292 593.463 426.77 593.926C426.264 594.375 425.952 595.005 425.837 595.816H431.548Z"></path>
    <path style="fill: var(--color-illustrationSubtle010)" d="M451.859 590.755C453.336 590.755 454.523 591.212 455.421 592.124C456.333 593.021 456.789 594.281 456.789 595.903V602.961H453.748V596.315C453.748 595.374 453.509 594.658 453.032 594.165C452.554 593.658 451.902 593.405 451.077 593.405C450.252 593.405 449.593 593.658 449.101 594.165C448.623 594.658 448.384 595.374 448.384 596.315V602.961H445.343V596.315C445.343 595.374 445.105 594.658 444.627 594.165C444.149 593.658 443.497 593.405 442.672 593.405C441.832 593.405 441.166 593.658 440.674 594.165C440.196 594.658 439.957 595.374 439.957 596.315V602.961H436.917V590.929H439.957V592.384C440.348 591.878 440.848 591.479 441.456 591.19C442.079 590.9 442.759 590.755 443.497 590.755C444.439 590.755 445.278 590.958 446.017 591.364C446.755 591.755 447.327 592.319 447.732 593.058C448.123 592.363 448.688 591.805 449.426 591.385C450.179 590.965 450.99 590.755 451.859 590.755Z"></path>
    <path style="fill: var(--color-illustrationSubtle010)" d="M470.192 603.156C469.033 603.156 467.991 602.903 467.064 602.396C466.138 601.875 465.407 601.144 464.871 600.203C464.35 599.262 464.089 598.176 464.089 596.945C464.089 595.714 464.357 594.629 464.893 593.687C465.443 592.746 466.188 592.022 467.13 591.516C468.071 590.994 469.12 590.734 470.279 590.734C471.437 590.734 472.487 590.994 473.428 591.516C474.369 592.022 475.107 592.746 475.643 593.687C476.193 594.629 476.468 595.714 476.468 596.945C476.468 598.176 476.186 599.262 475.621 600.203C475.071 601.144 474.318 601.875 473.363 602.396C472.422 602.903 471.365 603.156 470.192 603.156ZM470.192 600.507C470.742 600.507 471.256 600.377 471.734 600.116C472.226 599.841 472.617 599.435 472.907 598.9C473.196 598.364 473.341 597.713 473.341 596.945C473.341 595.801 473.037 594.925 472.429 594.317C471.835 593.695 471.104 593.383 470.235 593.383C469.366 593.383 468.635 593.695 468.042 594.317C467.463 594.925 467.173 595.801 467.173 596.945C467.173 598.089 467.455 598.972 468.02 599.595C468.599 600.203 469.323 600.507 470.192 600.507Z"></path>
    <path style="fill: var(--color-illustrationSubtle010)" d="M485.366 590.755C486.799 590.755 487.958 591.212 488.841 592.124C489.724 593.021 490.166 594.281 490.166 595.903V602.961H487.125V596.315C487.125 595.36 486.886 594.629 486.409 594.122C485.931 593.601 485.279 593.34 484.454 593.34C483.614 593.34 482.948 593.601 482.456 594.122C481.978 594.629 481.739 595.36 481.739 596.315V602.961H478.699V590.929H481.739V592.428C482.145 591.907 482.659 591.501 483.281 591.212C483.918 590.908 484.613 590.755 485.366 590.755Z"></path>
    <path style="fill: var(--color-illustrationSubtle010)" d="M504.242 596.685C504.242 597.119 504.213 597.51 504.155 597.857H495.359C495.432 598.726 495.736 599.407 496.271 599.899C496.807 600.391 497.466 600.637 498.248 600.637C499.377 600.637 500.181 600.152 500.658 599.182H503.938C503.59 600.34 502.924 601.296 501.94 602.049C500.955 602.787 499.746 603.156 498.313 603.156C497.155 603.156 496.112 602.903 495.186 602.396C494.273 601.875 493.557 601.144 493.035 600.203C492.529 599.262 492.275 598.176 492.275 596.945C492.275 595.7 492.529 594.607 493.035 593.666C493.542 592.725 494.252 592.001 495.164 591.494C496.076 590.987 497.126 590.734 498.313 590.734C499.457 590.734 500.478 590.98 501.375 591.472C502.287 591.964 502.99 592.667 503.482 593.579C503.989 594.477 504.242 595.512 504.242 596.685ZM501.093 595.816C501.078 595.034 500.796 594.411 500.246 593.948C499.696 593.47 499.022 593.231 498.226 593.231C497.473 593.231 496.836 593.463 496.315 593.926C495.808 594.375 495.497 595.005 495.381 595.816H501.093Z"></path>
    <path style="fill: var(--color-illustrationSubtle010)" fill-rule="evenodd" clip-rule="evenodd" d="M530.03 595.957H519.171V582.383H530.03V595.957ZM530.03 606.816H519.171V598.672H530.03V606.816ZM532.745 606.816H543.604V593.242H532.745V606.816ZM532.745 590.528V582.383H543.604V590.528H532.745Z"></path>
    <path style="fill: var(--color-illustrationInterface010)" d="M342.217 648.895H547.678V651.61H342.217V648.895Z"></path>
    <path style="fill: var(--color-illustrationSubtle010)" d="M651.079 587.802V602.961H648.038V593.101L643.977 602.961H641.675L637.592 593.101V602.961H634.551V587.802H638.004L642.826 599.074L647.647 587.802H651.079Z"></path>
    <path style="fill: var(--color-illustrationSubtle010)" d="M665.27 596.685C665.27 597.119 665.241 597.51 665.183 597.857H656.387C656.459 598.726 656.763 599.407 657.299 599.899C657.835 600.391 658.494 600.637 659.275 600.637C660.405 600.637 661.208 600.152 661.686 599.182H664.966C664.618 600.34 663.952 601.296 662.967 602.049C661.983 602.787 660.774 603.156 659.341 603.156C658.182 603.156 657.14 602.903 656.213 602.396C655.301 601.875 654.584 601.144 654.063 600.203C653.556 599.262 653.303 598.176 653.303 596.945C653.303 595.7 653.556 594.607 654.063 593.666C654.57 592.725 655.279 592.001 656.191 591.494C657.104 590.987 658.153 590.734 659.341 590.734C660.484 590.734 661.505 590.98 662.403 591.472C663.315 591.964 664.017 592.667 664.509 593.579C665.016 594.477 665.27 595.512 665.27 596.685ZM662.12 595.816C662.106 595.034 661.824 594.411 661.273 593.948C660.723 593.47 660.05 593.231 659.254 593.231C658.501 593.231 657.864 593.463 657.343 593.926C656.836 594.375 656.524 595.005 656.409 595.816H662.12Z"></path>
    <path style="fill: var(--color-illustrationSubtle010)" d="M674.156 590.755C675.59 590.755 676.748 591.212 677.631 592.124C678.514 593.021 678.956 594.281 678.956 595.903V602.961H675.916V596.315C675.916 595.36 675.677 594.629 675.199 594.122C674.721 593.601 674.069 593.34 673.244 593.34C672.404 593.34 671.738 593.601 671.246 594.122C670.768 594.629 670.529 595.36 670.529 596.315V602.961H667.489V590.929H670.529V592.428C670.935 591.907 671.449 591.501 672.071 591.212C672.708 590.908 673.403 590.755 674.156 590.755Z"></path>
    <path style="fill: var(--color-illustrationSubtle010)" d="M693.206 590.929V602.961H690.144V601.441C689.753 601.962 689.239 602.375 688.602 602.679C687.979 602.968 687.299 603.113 686.56 603.113C685.619 603.113 684.787 602.918 684.063 602.527C683.339 602.121 682.767 601.535 682.347 600.768C681.942 599.986 681.739 599.059 681.739 597.988V590.929H684.779V597.553C684.779 598.509 685.018 599.247 685.496 599.768C685.974 600.275 686.625 600.529 687.451 600.529C688.29 600.529 688.949 600.275 689.427 599.768C689.905 599.247 690.144 598.509 690.144 597.553V590.929H693.206Z"></path>
    <path style="fill: var(--color-illustrationSubtle010)" d="M702.923 589.496C702.387 589.496 701.938 589.329 701.576 588.996C701.229 588.649 701.055 588.222 701.055 587.715C701.055 587.208 701.229 586.788 701.576 586.455C701.938 586.108 702.387 585.934 702.923 585.934C703.459 585.934 703.9 586.108 704.248 586.455C704.61 586.788 704.791 587.208 704.791 587.715C704.791 588.222 704.61 588.649 704.248 588.996C703.9 589.329 703.459 589.496 702.923 589.496ZM704.421 590.929V602.961H701.381V590.929H704.421Z"></path>
    <path style="fill: var(--color-illustrationSubtle010)" d="M710.966 593.427V599.247C710.966 599.653 711.06 599.949 711.248 600.138C711.451 600.311 711.784 600.398 712.247 600.398H713.659V602.961H711.747C709.185 602.961 707.903 601.716 707.903 599.226V593.427H706.47V590.929H707.903V587.954H710.966V590.929H713.659V593.427H710.966Z"></path>
    <path style="fill: var(--color-illustrationSubtle010)" d="M727.03 596.685C727.03 597.119 727.001 597.51 726.943 597.857H718.148C718.22 598.726 718.524 599.407 719.06 599.899C719.595 600.391 720.254 600.637 721.036 600.637C722.165 600.637 722.969 600.152 723.447 599.182H726.726C726.379 600.34 725.713 601.296 724.728 602.049C723.744 602.787 722.535 603.156 721.101 603.156C719.943 603.156 718.901 602.903 717.974 602.396C717.062 601.875 716.345 601.144 715.824 600.203C715.317 599.262 715.064 598.176 715.064 596.945C715.064 595.7 715.317 594.607 715.824 593.666C716.331 592.725 717.04 592.001 717.952 591.494C718.864 590.987 719.914 590.734 721.101 590.734C722.245 590.734 723.266 590.98 724.164 591.472C725.076 591.964 725.778 592.667 726.27 593.579C726.777 594.477 727.03 595.512 727.03 596.685ZM723.881 595.816C723.867 595.034 723.584 594.411 723.034 593.948C722.484 593.47 721.811 593.231 721.014 593.231C720.261 593.231 719.624 593.463 719.103 593.926C718.596 594.375 718.285 595.005 718.169 595.816H723.881Z"></path>
    <path style="fill: var(--color-illustrationSubtle010)" d="M744.192 590.755C745.668 590.755 746.856 591.212 747.753 592.124C748.666 593.021 749.122 594.281 749.122 595.903V602.961H746.081V596.315C746.081 595.374 745.842 594.658 745.364 594.165C744.887 593.658 744.235 593.405 743.41 593.405C742.585 593.405 741.926 593.658 741.433 594.165C740.956 594.658 740.717 595.374 740.717 596.315V602.961H737.676V596.315C737.676 595.374 737.437 594.658 736.96 594.165C736.482 593.658 735.83 593.405 735.005 593.405C734.165 593.405 733.499 593.658 733.007 594.165C732.529 594.658 732.29 595.374 732.29 596.315V602.961H729.25V590.929H732.29V592.384C732.681 591.878 733.181 591.479 733.789 591.19C734.411 590.9 735.092 590.755 735.83 590.755C736.771 590.755 737.611 590.958 738.349 591.364C739.088 591.755 739.66 592.319 740.065 593.058C740.456 592.363 741.021 591.805 741.759 591.385C742.512 590.965 743.323 590.755 744.192 590.755Z"></path>
    <path style="fill: var(--color-illustrationSubtle010)" d="M760.722 593.427V599.247C760.722 599.653 760.816 599.949 761.004 600.138C761.207 600.311 761.54 600.398 762.003 600.398H763.415V602.961H761.504C758.941 602.961 757.66 601.716 757.66 599.226V593.427H756.226V590.929H757.66V587.954H760.722V590.929H763.415V593.427H760.722Z"></path>
    <path style="fill: var(--color-illustrationSubtle010)" d="M782.281 590.929L778.763 602.961H775.484L773.29 594.556L771.097 602.961H767.795L764.255 590.929H767.339L769.468 600.094L771.77 590.929H774.984L777.243 600.073L779.371 590.929H782.281Z"></path>
    <path style="fill: var(--color-illustrationSubtle010)" d="M789.269 603.156C788.111 603.156 787.068 602.903 786.142 602.396C785.215 601.875 784.484 601.144 783.948 600.203C783.427 599.262 783.166 598.176 783.166 596.945C783.166 595.714 783.434 594.629 783.97 593.687C784.52 592.746 785.266 592.022 786.207 591.516C787.148 590.994 788.198 590.734 789.356 590.734C790.514 590.734 791.564 590.994 792.505 591.516C793.446 592.022 794.185 592.746 794.72 593.687C795.271 594.629 795.546 595.714 795.546 596.945C795.546 598.176 795.263 599.262 794.699 600.203C794.148 601.144 793.396 601.875 792.44 602.396C791.499 602.903 790.442 603.156 789.269 603.156ZM789.269 600.507C789.819 600.507 790.333 600.377 790.811 600.116C791.303 599.841 791.694 599.435 791.984 598.9C792.273 598.364 792.418 597.713 792.418 596.945C792.418 595.801 792.114 594.925 791.506 594.317C790.912 593.695 790.181 593.383 789.313 593.383C788.444 593.383 787.713 593.695 787.119 594.317C786.54 594.925 786.25 595.801 786.25 596.945C786.25 598.089 786.533 598.972 787.097 599.595C787.676 600.203 788.4 600.507 789.269 600.507Z"></path>
    <path style="fill: var(--color-illustrationSubtle010)" fill-rule="evenodd" clip-rule="evenodd" d="M822.681 589.17C822.681 591.424 820.875 593.242 818.622 593.242C816.369 593.242 814.55 591.424 814.55 589.17C814.55 586.917 816.369 585.098 818.622 585.098C820.875 585.098 822.681 586.917 822.681 589.17ZM832.182 591.206C832.182 593.08 830.676 594.6 828.803 594.6C826.929 594.6 825.409 593.08 825.409 591.206C825.409 589.333 826.929 587.813 828.803 587.813C830.676 587.813 832.182 589.333 832.182 591.206ZM828.803 597.315C826.319 597.315 821.337 598.563 821.337 601.047V604.101H836.268V601.047C836.268 598.563 831.287 597.315 828.803 597.315ZM809.121 600.708C809.121 597.545 815.46 595.957 818.622 595.957C819.518 595.957 820.658 596.093 821.839 596.337C819.07 597.871 818.622 599.894 818.622 601.047V604.101H809.121V600.708Z"></path>
    <path style="fill: var(--color-illustrationInterface010)" d="M601.973 648.895H871.559V651.61H601.973V648.895Z"></path>
    <path style="fill: var(--color-illustrationHighlight010)" fill-rule="evenodd" clip-rule="evenodd" d="M1131.78 581.026C1124.29 581.026 1118.21 587.107 1118.21 594.6C1118.21 602.092 1124.29 608.173 1131.78 608.173C1139.28 608.173 1145.36 602.092 1145.36 594.6C1145.36 587.107 1139.28 581.026 1131.78 581.026ZM1133.14 604.101H1130.43V601.386H1133.14V604.101ZM1134.73 594.83L1135.95 593.582C1136.72 592.808 1137.21 591.722 1137.21 590.527C1137.21 587.528 1134.78 585.098 1131.78 585.098C1128.78 585.098 1126.35 587.528 1126.35 590.527H1129.07C1129.07 589.034 1130.29 587.813 1131.78 587.813C1133.28 587.813 1134.5 589.034 1134.5 590.527C1134.5 591.274 1134.2 591.953 1133.7 592.441L1132.01 594.152C1131.04 595.143 1130.43 596.5 1130.43 597.993V598.672H1133.14C1133.14 596.636 1133.75 595.821 1134.73 594.83Z"></path>
    <path style="fill: var(--color-illustrationHighlight010)" d="M942.384 587.802V602.961H939.344V593.101L935.283 602.961H932.98L928.897 593.101V602.961H925.857V587.802H929.31L934.132 599.074L938.953 587.802H942.384Z"></path>
    <path style="fill: var(--color-illustrationHighlight010)" d="M956.575 596.685C956.575 597.119 956.546 597.51 956.488 597.857H947.693C947.765 598.726 948.069 599.407 948.605 599.899C949.14 600.391 949.799 600.637 950.581 600.637C951.71 600.637 952.514 600.152 952.992 599.182H956.271C955.924 600.34 955.258 601.296 954.273 602.049C953.289 602.787 952.08 603.156 950.646 603.156C949.488 603.156 948.445 602.903 947.519 602.396C946.607 601.875 945.89 601.144 945.369 600.203C944.862 599.262 944.609 598.176 944.609 596.945C944.609 595.7 944.862 594.607 945.369 593.666C945.875 592.725 946.585 592.001 947.497 591.494C948.409 590.987 949.459 590.734 950.646 590.734C951.79 590.734 952.811 590.98 953.708 591.472C954.621 591.964 955.323 592.667 955.815 593.579C956.322 594.477 956.575 595.512 956.575 596.685ZM953.426 595.816C953.412 595.034 953.129 594.411 952.579 593.948C952.029 593.47 951.356 593.231 950.559 593.231C949.806 593.231 949.169 593.463 948.648 593.926C948.141 594.375 947.83 595.005 947.714 595.816H953.426Z"></path>
    <path style="fill: var(--color-illustrationHighlight010)" d="M965.462 590.755C966.895 590.755 968.054 591.212 968.937 592.124C969.82 593.021 970.262 594.281 970.262 595.903V602.961H967.221V596.315C967.221 595.36 966.982 594.629 966.504 594.122C966.027 593.601 965.375 593.34 964.55 593.34C963.71 593.34 963.044 593.601 962.552 594.122C962.074 594.629 961.835 595.36 961.835 596.315V602.961H958.795V590.929H961.835V592.428C962.24 591.907 962.754 591.501 963.377 591.212C964.014 590.908 964.709 590.755 965.462 590.755Z"></path>
    <path style="fill: var(--color-illustrationHighlight010)" d="M984.512 590.929V602.961H981.449V601.441C981.058 601.962 980.544 602.375 979.907 602.679C979.285 602.968 978.604 603.113 977.866 603.113C976.925 603.113 976.092 602.918 975.368 602.527C974.644 602.121 974.072 601.535 973.653 600.768C973.247 599.986 973.044 599.059 973.044 597.988V590.929H976.085V597.553C976.085 598.509 976.324 599.247 976.802 599.768C977.28 600.275 977.931 600.529 978.756 600.529C979.596 600.529 980.255 600.275 980.733 599.768C981.21 599.247 981.449 598.509 981.449 597.553V590.929H984.512Z"></path>
    <path style="fill: var(--color-illustrationHighlight010)" d="M994.229 589.496C993.693 589.496 993.244 589.329 992.882 588.996C992.535 588.649 992.361 588.222 992.361 587.715C992.361 587.208 992.535 586.788 992.882 586.455C993.244 586.108 993.693 585.934 994.229 585.934C994.764 585.934 995.206 586.108 995.553 586.455C995.915 586.788 996.096 587.208 996.096 587.715C996.096 588.222 995.915 588.649 995.553 588.996C995.206 589.329 994.764 589.496 994.229 589.496ZM995.727 590.929V602.961H992.687V590.929H995.727Z"></path>
    <path style="fill: var(--color-illustrationHighlight010)" d="M1002.27 593.427V599.247C1002.27 599.653 1002.37 599.949 1002.55 600.138C1002.76 600.311 1003.09 600.398 1003.55 600.398H1004.96V602.961H1003.05C1000.49 602.961 999.209 601.716 999.209 599.226V593.427H997.776V590.929H999.209V587.954H1002.27V590.929H1004.96V593.427H1002.27Z"></path>
    <path style="fill: var(--color-illustrationHighlight010)" d="M1018.34 596.685C1018.34 597.119 1018.31 597.51 1018.25 597.857H1009.45C1009.53 598.726 1009.83 599.407 1010.37 599.899C1010.9 600.391 1011.56 600.637 1012.34 600.637C1013.47 600.637 1014.27 600.152 1014.75 599.182H1018.03C1017.68 600.34 1017.02 601.296 1016.03 602.049C1015.05 602.787 1013.84 603.156 1012.41 603.156C1011.25 603.156 1010.21 602.903 1009.28 602.396C1008.37 601.875 1007.65 601.144 1007.13 600.203C1006.62 599.262 1006.37 598.176 1006.37 596.945C1006.37 595.7 1006.62 594.607 1007.13 593.666C1007.64 592.725 1008.35 592.001 1009.26 591.494C1010.17 590.987 1011.22 590.734 1012.41 590.734C1013.55 590.734 1014.57 590.98 1015.47 591.472C1016.38 591.964 1017.08 592.667 1017.58 593.579C1018.08 594.477 1018.34 595.512 1018.34 596.685ZM1015.19 595.816C1015.17 595.034 1014.89 594.411 1014.34 593.948C1013.79 593.47 1013.12 593.231 1012.32 593.231C1011.57 593.231 1010.93 593.463 1010.41 593.926C1009.9 594.375 1009.59 595.005 1009.47 595.816H1015.19Z"></path>
    <path style="fill: var(--color-illustrationHighlight010)" d="M1035.5 590.755C1036.97 590.755 1038.16 591.212 1039.06 592.124C1039.97 593.021 1040.43 594.281 1040.43 595.903V602.961H1037.39V596.315C1037.39 595.374 1037.15 594.658 1036.67 594.165C1036.19 593.658 1035.54 593.405 1034.72 593.405C1033.89 593.405 1033.23 593.658 1032.74 594.165C1032.26 594.658 1032.02 595.374 1032.02 596.315V602.961H1028.98V596.315C1028.98 595.374 1028.74 594.658 1028.27 594.165C1027.79 593.658 1027.14 593.405 1026.31 593.405C1025.47 593.405 1024.8 593.658 1024.31 594.165C1023.83 594.658 1023.6 595.374 1023.6 596.315V602.961H1020.56V590.929H1023.6V592.384C1023.99 591.878 1024.49 591.479 1025.09 591.19C1025.72 590.9 1026.4 590.755 1027.14 590.755C1028.08 590.755 1028.92 590.958 1029.66 591.364C1030.39 591.755 1030.97 592.319 1031.37 593.058C1031.76 592.363 1032.33 591.805 1033.06 591.385C1033.82 590.965 1034.63 590.755 1035.5 590.755Z"></path>
    <path style="fill: var(--color-illustrationHighlight010)" d="M1052.03 593.427V599.247C1052.03 599.653 1052.12 599.949 1052.31 600.138C1052.51 600.311 1052.85 600.398 1053.31 600.398H1054.72V602.961H1052.81C1050.25 602.961 1048.97 601.716 1048.97 599.226V593.427H1047.53V590.929H1048.97V587.954H1052.03V590.929H1054.72V593.427H1052.03Z"></path>
    <path style="fill: var(--color-illustrationHighlight010)" d="M1063.68 590.755C1064.6 590.755 1065.41 590.958 1066.12 591.364C1066.83 591.755 1067.38 592.341 1067.77 593.123C1068.17 593.89 1068.37 594.817 1068.37 595.903V602.961H1065.33V596.315C1065.33 595.36 1065.1 594.629 1064.62 594.122C1064.14 593.601 1063.49 593.34 1062.66 593.34C1061.82 593.34 1061.16 593.601 1060.66 594.122C1060.19 594.629 1059.95 595.36 1059.95 596.315V602.961H1056.91V586.89H1059.95V592.428C1060.34 591.907 1060.86 591.501 1061.51 591.212C1062.16 590.908 1062.89 590.755 1063.68 590.755Z"></path>
    <path style="fill: var(--color-illustrationHighlight010)" d="M1074.31 592.797C1074.7 592.16 1075.2 591.66 1075.83 591.298C1076.46 590.936 1077.19 590.755 1078 590.755V593.948H1077.2C1076.24 593.948 1075.52 594.172 1075.02 594.621C1074.55 595.07 1074.31 595.852 1074.31 596.967V602.961H1071.27V590.929H1074.31V592.797Z"></path>
    <path style="fill: var(--color-illustrationHighlight010)" d="M1091.23 596.685C1091.23 597.119 1091.2 597.51 1091.14 597.857H1082.35C1082.42 598.726 1082.73 599.407 1083.26 599.899C1083.8 600.391 1084.46 600.637 1085.24 600.637C1086.37 600.637 1087.17 600.152 1087.65 599.182H1090.93C1090.58 600.34 1089.91 601.296 1088.93 602.049C1087.94 602.787 1086.74 603.156 1085.3 603.156C1084.14 603.156 1083.1 602.903 1082.18 602.396C1081.26 601.875 1080.55 601.144 1080.02 600.203C1079.52 599.262 1079.26 598.176 1079.26 596.945C1079.26 595.7 1079.52 594.607 1080.02 593.666C1080.53 592.725 1081.24 592.001 1082.15 591.494C1083.07 590.987 1084.12 590.734 1085.3 590.734C1086.45 590.734 1087.47 590.98 1088.36 591.472C1089.28 591.964 1089.98 592.667 1090.47 593.579C1090.98 594.477 1091.23 595.512 1091.23 596.685ZM1088.08 595.816C1088.07 595.034 1087.79 594.411 1087.24 593.948C1086.69 593.47 1086.01 593.231 1085.22 593.231C1084.46 593.231 1083.83 593.463 1083.3 593.926C1082.8 594.375 1082.49 595.005 1082.37 595.816H1088.08Z"></path>
    <path style="fill: var(--color-illustrationHighlight010)" d="M1104.64 596.685C1104.64 597.119 1104.61 597.51 1104.55 597.857H1095.75C1095.83 598.726 1096.13 599.407 1096.67 599.899C1097.2 600.391 1097.86 600.637 1098.64 600.637C1099.77 600.637 1100.57 600.152 1101.05 599.182H1104.33C1103.98 600.34 1103.32 601.296 1102.33 602.049C1101.35 602.787 1100.14 603.156 1098.71 603.156C1097.55 603.156 1096.51 602.903 1095.58 602.396C1094.67 601.875 1093.95 601.144 1093.43 600.203C1092.92 599.262 1092.67 598.176 1092.67 596.945C1092.67 595.7 1092.92 594.607 1093.43 593.666C1093.94 592.725 1094.65 592.001 1095.56 591.494C1096.47 590.987 1097.52 590.734 1098.71 590.734C1099.85 590.734 1100.87 590.98 1101.77 591.472C1102.68 591.964 1103.38 592.667 1103.88 593.579C1104.38 594.477 1104.64 595.512 1104.64 596.685ZM1101.49 595.816C1101.47 595.034 1101.19 594.411 1100.64 593.948C1100.09 593.47 1099.42 593.231 1098.62 593.231C1097.87 593.231 1097.23 593.463 1096.71 593.926C1096.2 594.375 1095.89 595.005 1095.77 595.816H1101.49Z"></path>
    <path style="fill: var(--color-illustrationHighlight010)" d="M925.854 648.895H1148.07V651.61H925.854V648.895Z"></path>
    <path style="fill: var(--color-illustrationHighlight010)" d="M660.292 205.424H666.872V208H657.1V188.54H660.292V205.424Z"></path>
    <path style="fill: var(--color-illustrationHighlight010)" d="M683.682 199.908C683.682 200.487 683.644 201.01 683.57 201.476H671.782C671.875 202.708 672.332 203.698 673.154 204.444C673.975 205.191 674.983 205.564 676.178 205.564C677.895 205.564 679.108 204.846 679.818 203.408H683.262C682.795 204.827 681.946 205.994 680.714 206.908C679.5 207.804 677.988 208.252 676.178 208.252C674.703 208.252 673.378 207.926 672.202 207.272C671.044 206.6 670.13 205.667 669.458 204.472C668.804 203.259 668.478 201.859 668.478 200.272C668.478 198.686 668.795 197.295 669.43 196.1C670.083 194.887 670.988 193.954 672.146 193.3C673.322 192.647 674.666 192.32 676.178 192.32C677.634 192.32 678.931 192.638 680.07 193.272C681.208 193.907 682.095 194.803 682.73 195.96C683.364 197.099 683.682 198.415 683.682 199.908ZM680.35 198.9C680.331 197.724 679.911 196.782 679.09 196.072C678.268 195.363 677.251 195.008 676.038 195.008C674.936 195.008 673.994 195.363 673.21 196.072C672.426 196.763 671.959 197.706 671.81 198.9H680.35Z"></path>
    <path style="fill: var(--color-illustrationHighlight010)" d="M685.759 200.216C685.759 198.667 686.076 197.295 686.711 196.1C687.364 194.906 688.241 193.982 689.343 193.328C690.463 192.656 691.695 192.32 693.039 192.32C694.252 192.32 695.307 192.563 696.203 193.048C697.117 193.515 697.845 194.103 698.387 194.812V192.572H701.607V208H698.387V205.704C697.845 206.432 697.108 207.039 696.175 207.524C695.241 208.01 694.177 208.252 692.983 208.252C691.657 208.252 690.444 207.916 689.343 207.244C688.241 206.554 687.364 205.602 686.711 204.388C686.076 203.156 685.759 201.766 685.759 200.216ZM698.387 200.272C698.387 199.208 698.163 198.284 697.715 197.5C697.285 196.716 696.716 196.119 696.007 195.708C695.297 195.298 694.532 195.092 693.711 195.092C692.889 195.092 692.124 195.298 691.415 195.708C690.705 196.1 690.127 196.688 689.679 197.472C689.249 198.238 689.035 199.152 689.035 200.216C689.035 201.28 689.249 202.214 689.679 203.016C690.127 203.819 690.705 204.435 691.415 204.864C692.143 205.275 692.908 205.48 693.711 205.48C694.532 205.48 695.297 205.275 696.007 204.864C696.716 204.454 697.285 203.856 697.715 203.072C698.163 202.27 698.387 201.336 698.387 200.272Z"></path>
    <path style="fill: var(--color-illustrationHighlight010)" d="M704.735 200.216C704.735 198.667 705.053 197.295 705.687 196.1C706.341 194.906 707.218 193.982 708.319 193.328C709.439 192.656 710.681 192.32 712.043 192.32C713.051 192.32 714.041 192.544 715.011 192.992C716.001 193.422 716.785 194 717.363 194.728V187.28H720.583V208H717.363V205.676C716.841 206.423 716.113 207.039 715.179 207.524C714.265 208.01 713.21 208.252 712.015 208.252C710.671 208.252 709.439 207.916 708.319 207.244C707.218 206.554 706.341 205.602 705.687 204.388C705.053 203.156 704.735 201.766 704.735 200.216ZM717.363 200.272C717.363 199.208 717.139 198.284 716.691 197.5C716.262 196.716 715.693 196.119 714.983 195.708C714.274 195.298 713.509 195.092 712.687 195.092C711.866 195.092 711.101 195.298 710.391 195.708C709.682 196.1 709.103 196.688 708.655 197.472C708.226 198.238 708.011 199.152 708.011 200.216C708.011 201.28 708.226 202.214 708.655 203.016C709.103 203.819 709.682 204.435 710.391 204.864C711.119 205.275 711.885 205.48 712.687 205.48C713.509 205.48 714.274 205.275 714.983 204.864C715.693 204.454 716.262 203.856 716.691 203.072C717.139 202.27 717.363 201.336 717.363 200.272Z"></path>
    <path style="fill: var(--color-illustrationHighlight010)" d="M726.4 190.528C725.821 190.528 725.336 190.332 724.944 189.94C724.552 189.548 724.356 189.063 724.356 188.484C724.356 187.906 724.552 187.42 724.944 187.028C725.336 186.636 725.821 186.44 726.4 186.44C726.96 186.44 727.436 186.636 727.828 187.028C728.22 187.42 728.416 187.906 728.416 188.484C728.416 189.063 728.22 189.548 727.828 189.94C727.436 190.332 726.96 190.528 726.4 190.528ZM727.968 192.572V208H724.776V192.572H727.968Z"></path>
    <path style="fill: var(--color-illustrationHighlight010)" d="M739.943 192.32C741.156 192.32 742.239 192.572 743.191 193.076C744.161 193.58 744.917 194.327 745.459 195.316C746 196.306 746.271 197.5 746.271 198.9V208H743.107V199.376C743.107 197.995 742.761 196.94 742.071 196.212C741.38 195.466 740.437 195.092 739.243 195.092C738.048 195.092 737.096 195.466 736.387 196.212C735.696 196.94 735.351 197.995 735.351 199.376V208H732.159V192.572H735.351V194.336C735.873 193.702 736.536 193.207 737.339 192.852C738.16 192.498 739.028 192.32 739.943 192.32Z"></path>
    <path style="fill: var(--color-illustrationHighlight010)" d="M756.558 192.32C757.753 192.32 758.808 192.563 759.722 193.048C760.656 193.515 761.384 194.103 761.906 194.812V192.572H765.126V208.252C765.126 209.671 764.828 210.931 764.23 212.032C763.633 213.152 762.765 214.03 761.626 214.664C760.506 215.299 759.162 215.616 757.594 215.616C755.504 215.616 753.768 215.122 752.386 214.132C751.005 213.162 750.221 211.836 750.034 210.156H753.198C753.441 210.959 753.954 211.603 754.738 212.088C755.541 212.592 756.493 212.844 757.594 212.844C758.882 212.844 759.918 212.452 760.702 211.668C761.505 210.884 761.906 209.746 761.906 208.252V205.676C761.365 206.404 760.628 207.02 759.694 207.524C758.78 208.01 757.734 208.252 756.558 208.252C755.214 208.252 753.982 207.916 752.862 207.244C751.761 206.554 750.884 205.602 750.23 204.388C749.596 203.156 749.278 201.766 749.278 200.216C749.278 198.667 749.596 197.295 750.23 196.1C750.884 194.906 751.761 193.982 752.862 193.328C753.982 192.656 755.214 192.32 756.558 192.32ZM761.906 200.272C761.906 199.208 761.682 198.284 761.234 197.5C760.805 196.716 760.236 196.119 759.526 195.708C758.817 195.298 758.052 195.092 757.23 195.092C756.409 195.092 755.644 195.298 754.934 195.708C754.225 196.1 753.646 196.688 753.198 197.472C752.769 198.238 752.554 199.152 752.554 200.216C752.554 201.28 752.769 202.214 753.198 203.016C753.646 203.819 754.225 204.435 754.934 204.864C755.662 205.275 756.428 205.48 757.23 205.48C758.052 205.48 758.817 205.275 759.526 204.864C760.236 204.454 760.805 203.856 761.234 203.072C761.682 202.27 761.906 201.336 761.906 200.272Z"></path>
    <path style="fill: var(--color-illustrationHighlight010)" d="M778.216 190.528C777.638 190.528 777.152 190.332 776.76 189.94C776.368 189.548 776.172 189.063 776.172 188.484C776.172 187.906 776.368 187.42 776.76 187.028C777.152 186.636 777.638 186.44 778.216 186.44C778.776 186.44 779.252 186.636 779.644 187.028C780.036 187.42 780.232 187.906 780.232 188.484C780.232 189.063 780.036 189.548 779.644 189.94C779.252 190.332 778.776 190.528 778.216 190.528ZM779.784 192.572V208H776.592V192.572H779.784Z"></path>
    <path style="fill: var(--color-illustrationHighlight010)" d="M782.911 200.272C782.911 198.686 783.228 197.295 783.863 196.1C784.516 194.887 785.412 193.954 786.551 193.3C787.69 192.647 788.996 192.32 790.471 192.32C792.338 192.32 793.878 192.768 795.091 193.664C796.323 194.542 797.154 195.802 797.583 197.444H794.139C793.859 196.679 793.411 196.082 792.795 195.652C792.179 195.223 791.404 195.008 790.471 195.008C789.164 195.008 788.119 195.475 787.335 196.408C786.57 197.323 786.187 198.611 786.187 200.272C786.187 201.934 786.57 203.231 787.335 204.164C788.119 205.098 789.164 205.564 790.471 205.564C792.319 205.564 793.542 204.752 794.139 203.128H797.583C797.135 204.696 796.295 205.947 795.063 206.88C793.831 207.795 792.3 208.252 790.471 208.252C788.996 208.252 787.69 207.926 786.551 207.272C785.412 206.6 784.516 205.667 783.863 204.472C783.228 203.259 782.911 201.859 782.911 200.272Z"></path>
    <path style="fill: var(--color-illustrationHighlight010)" d="M807.456 208.252C806 208.252 804.684 207.926 803.508 207.272C802.332 206.6 801.408 205.667 800.736 204.472C800.064 203.259 799.728 201.859 799.728 200.272C799.728 198.704 800.073 197.314 800.764 196.1C801.455 194.887 802.397 193.954 803.592 193.3C804.787 192.647 806.121 192.32 807.596 192.32C809.071 192.32 810.405 192.647 811.6 193.3C812.795 193.954 813.737 194.887 814.428 196.1C815.119 197.314 815.464 198.704 815.464 200.272C815.464 201.84 815.109 203.231 814.4 204.444C813.691 205.658 812.72 206.6 811.488 207.272C810.275 207.926 808.931 208.252 807.456 208.252ZM807.456 205.48C808.277 205.48 809.043 205.284 809.752 204.892C810.48 204.5 811.068 203.912 811.516 203.128C811.964 202.344 812.188 201.392 812.188 200.272C812.188 199.152 811.973 198.21 811.544 197.444C811.115 196.66 810.545 196.072 809.836 195.68C809.127 195.288 808.361 195.092 807.54 195.092C806.719 195.092 805.953 195.288 805.244 195.68C804.553 196.072 804.003 196.66 803.592 197.444C803.181 198.21 802.976 199.152 802.976 200.272C802.976 201.934 803.396 203.222 804.236 204.136C805.095 205.032 806.168 205.48 807.456 205.48Z"></path>
    <path style="fill: var(--color-illustrationHighlight010)" d="M826.404 192.32C827.617 192.32 828.7 192.572 829.652 193.076C830.622 193.58 831.378 194.327 831.92 195.316C832.461 196.306 832.732 197.5 832.732 198.9V208H829.568V199.376C829.568 197.995 829.222 196.94 828.532 196.212C827.841 195.466 826.898 195.092 825.704 195.092C824.509 195.092 823.557 195.466 822.848 196.212C822.157 196.94 821.812 197.995 821.812 199.376V208H818.62V192.572H821.812V194.336C822.334 193.702 822.997 193.207 823.8 192.852C824.621 192.498 825.489 192.32 826.404 192.32Z"></path>
    <path style="fill: var(--color-illustrationHighlight010)" d="M669.672 487.54V490.144H664.492V507H661.3V490.144H656.092V487.54H669.672Z"></path>
    <path style="fill: var(--color-illustrationHighlight010)" d="M676.097 493.812C676.563 493.028 677.179 492.421 677.945 491.992C678.729 491.544 679.653 491.32 680.717 491.32V494.624H679.905C678.654 494.624 677.702 494.941 677.049 495.576C676.414 496.211 676.097 497.312 676.097 498.88V507H672.905V491.572H676.097V493.812Z"></path>
    <path style="fill: var(--color-illustrationHighlight010)" d="M682.587 499.216C682.587 497.667 682.904 496.295 683.539 495.1C684.192 493.905 685.069 492.981 686.171 492.328C687.291 491.656 688.523 491.32 689.867 491.32C691.08 491.32 692.135 491.563 693.031 492.048C693.945 492.515 694.673 493.103 695.215 493.812V491.572H698.435V507H695.215V504.704C694.673 505.432 693.936 506.039 693.003 506.524C692.069 507.009 691.005 507.252 689.811 507.252C688.485 507.252 687.272 506.916 686.171 506.244C685.069 505.553 684.192 504.601 683.539 503.388C682.904 502.156 682.587 500.765 682.587 499.216ZM695.215 499.272C695.215 498.208 694.991 497.284 694.543 496.5C694.113 495.716 693.544 495.119 692.835 494.708C692.125 494.297 691.36 494.092 690.539 494.092C689.717 494.092 688.952 494.297 688.243 494.708C687.533 495.1 686.955 495.688 686.507 496.472C686.077 497.237 685.863 498.152 685.863 499.216C685.863 500.28 686.077 501.213 686.507 502.016C686.955 502.819 687.533 503.435 688.243 503.864C688.971 504.275 689.736 504.48 690.539 504.48C691.36 504.48 692.125 504.275 692.835 503.864C693.544 503.453 694.113 502.856 694.543 502.072C694.991 501.269 695.215 500.336 695.215 499.272Z"></path>
    <path style="fill: var(--color-illustrationHighlight010)" d="M704.251 489.528C703.673 489.528 703.187 489.332 702.795 488.94C702.403 488.548 702.207 488.063 702.207 487.484C702.207 486.905 702.403 486.42 702.795 486.028C703.187 485.636 703.673 485.44 704.251 485.44C704.811 485.44 705.287 485.636 705.679 486.028C706.071 486.42 706.267 486.905 706.267 487.484C706.267 488.063 706.071 488.548 705.679 488.94C705.287 489.332 704.811 489.528 704.251 489.528ZM705.819 491.572V507H702.627V491.572H705.819Z"></path>
    <path style="fill: var(--color-illustrationHighlight010)" d="M713.202 486.28V507H710.01V486.28H713.202Z"></path>
    <path style="fill: var(--color-illustrationHighlight010)" d="M719.017 489.528C718.438 489.528 717.953 489.332 717.561 488.94C717.169 488.548 716.973 488.063 716.973 487.484C716.973 486.905 717.169 486.42 717.561 486.028C717.953 485.636 718.438 485.44 719.017 485.44C719.577 485.44 720.053 485.636 720.445 486.028C720.837 486.42 721.033 486.905 721.033 487.484C721.033 488.063 720.837 488.548 720.445 488.94C720.053 489.332 719.577 489.528 719.017 489.528ZM720.585 491.572V507H717.393V491.572H720.585Z"></path>
    <path style="fill: var(--color-illustrationHighlight010)" d="M732.56 491.32C733.773 491.32 734.856 491.572 735.808 492.076C736.778 492.58 737.534 493.327 738.076 494.316C738.617 495.305 738.888 496.5 738.888 497.9V507H735.724V498.376C735.724 496.995 735.378 495.94 734.688 495.212C733.997 494.465 733.054 494.092 731.86 494.092C730.665 494.092 729.713 494.465 729.004 495.212C728.313 495.94 727.968 496.995 727.968 498.376V507H724.776V491.572H727.968V493.336C728.49 492.701 729.153 492.207 729.956 491.852C730.777 491.497 731.645 491.32 732.56 491.32Z"></path>
    <path style="fill: var(--color-illustrationHighlight010)" d="M749.175 491.32C750.37 491.32 751.425 491.563 752.339 492.048C753.273 492.515 754.001 493.103 754.523 493.812V491.572H757.743V507.252C757.743 508.671 757.445 509.931 756.847 511.032C756.25 512.152 755.382 513.029 754.243 513.664C753.123 514.299 751.779 514.616 750.211 514.616C748.121 514.616 746.385 514.121 745.003 513.132C743.622 512.161 742.838 510.836 742.651 509.156H745.815C746.058 509.959 746.571 510.603 747.355 511.088C748.158 511.592 749.11 511.844 750.211 511.844C751.499 511.844 752.535 511.452 753.319 510.668C754.122 509.884 754.523 508.745 754.523 507.252V504.676C753.982 505.404 753.245 506.02 752.311 506.524C751.397 507.009 750.351 507.252 749.175 507.252C747.831 507.252 746.599 506.916 745.479 506.244C744.378 505.553 743.501 504.601 742.847 503.388C742.213 502.156 741.895 500.765 741.895 499.216C741.895 497.667 742.213 496.295 742.847 495.1C743.501 493.905 744.378 492.981 745.479 492.328C746.599 491.656 747.831 491.32 749.175 491.32ZM754.523 499.272C754.523 498.208 754.299 497.284 753.851 496.5C753.422 495.716 752.853 495.119 752.143 494.708C751.434 494.297 750.669 494.092 749.847 494.092C749.026 494.092 748.261 494.297 747.551 494.708C746.842 495.1 746.263 495.688 745.815 496.472C745.386 497.237 745.171 498.152 745.171 499.216C745.171 500.28 745.386 501.213 745.815 502.016C746.263 502.819 746.842 503.435 747.551 503.864C748.279 504.275 749.045 504.48 749.847 504.48C750.669 504.48 751.434 504.275 752.143 503.864C752.853 503.453 753.422 502.856 753.851 502.072C754.299 501.269 754.523 500.336 754.523 499.272Z"></path>
    <path style="fill: var(--color-illustrationHighlight010)" d="M770.833 489.528C770.255 489.528 769.769 489.332 769.377 488.94C768.985 488.548 768.789 488.063 768.789 487.484C768.789 486.905 768.985 486.42 769.377 486.028C769.769 485.636 770.255 485.44 770.833 485.44C771.393 485.44 771.869 485.636 772.261 486.028C772.653 486.42 772.849 486.905 772.849 487.484C772.849 488.063 772.653 488.548 772.261 488.94C771.869 489.332 771.393 489.528 770.833 489.528ZM772.401 491.572V507H769.209V491.572H772.401Z"></path>
    <path style="fill: var(--color-illustrationHighlight010)" d="M775.528 499.272C775.528 497.685 775.846 496.295 776.48 495.1C777.134 493.887 778.03 492.953 779.168 492.3C780.307 491.647 781.614 491.32 783.088 491.32C784.955 491.32 786.495 491.768 787.708 492.664C788.94 493.541 789.771 494.801 790.2 496.444H786.756C786.476 495.679 786.028 495.081 785.412 494.652C784.796 494.223 784.022 494.008 783.088 494.008C781.782 494.008 780.736 494.475 779.952 495.408C779.187 496.323 778.804 497.611 778.804 499.272C778.804 500.933 779.187 502.231 779.952 503.164C780.736 504.097 781.782 504.564 783.088 504.564C784.936 504.564 786.159 503.752 786.756 502.128H790.2C789.752 503.696 788.912 504.947 787.68 505.88C786.448 506.795 784.918 507.252 783.088 507.252C781.614 507.252 780.307 506.925 779.168 506.272C778.03 505.6 777.134 504.667 776.48 503.472C775.846 502.259 775.528 500.859 775.528 499.272Z"></path>
    <path style="fill: var(--color-illustrationHighlight010)" d="M800.073 507.252C798.617 507.252 797.301 506.925 796.125 506.272C794.949 505.6 794.025 504.667 793.353 503.472C792.681 502.259 792.345 500.859 792.345 499.272C792.345 497.704 792.691 496.313 793.381 495.1C794.072 493.887 795.015 492.953 796.209 492.3C797.404 491.647 798.739 491.32 800.213 491.32C801.688 491.32 803.023 491.647 804.217 492.3C805.412 492.953 806.355 493.887 807.045 495.1C807.736 496.313 808.081 497.704 808.081 499.272C808.081 500.84 807.727 502.231 807.017 503.444C806.308 504.657 805.337 505.6 804.105 506.272C802.892 506.925 801.548 507.252 800.073 507.252ZM800.073 504.48C800.895 504.48 801.66 504.284 802.369 503.892C803.097 503.5 803.685 502.912 804.133 502.128C804.581 501.344 804.805 500.392 804.805 499.272C804.805 498.152 804.591 497.209 804.161 496.444C803.732 495.66 803.163 495.072 802.453 494.68C801.744 494.288 800.979 494.092 800.157 494.092C799.336 494.092 798.571 494.288 797.861 494.68C797.171 495.072 796.62 495.66 796.209 496.444C795.799 497.209 795.593 498.152 795.593 499.272C795.593 500.933 796.013 502.221 796.853 503.136C797.712 504.032 798.785 504.48 800.073 504.48Z"></path>
    <path style="fill: var(--color-illustrationHighlight010)" d="M819.021 491.32C820.234 491.32 821.317 491.572 822.269 492.076C823.239 492.58 823.995 493.327 824.537 494.316C825.078 495.305 825.349 496.5 825.349 497.9V507H822.185V498.376C822.185 496.995 821.839 495.94 821.149 495.212C820.458 494.465 819.515 494.092 818.321 494.092C817.126 494.092 816.174 494.465 815.465 495.212C814.774 495.94 814.429 496.995 814.429 498.376V507H811.237V491.572H814.429V493.336C814.951 492.701 815.614 492.207 816.417 491.852C817.238 491.497 818.106 491.32 819.021 491.32Z"></path>
  </g>
  <defs>
    
    
    <clipPath id="nk-224">
      <rect style="fill: var(--color-white)" width="1490" height="838"></rect>
    </clipPath>
  </defs>
</svg>
