<svg id="components-menu-menu-do-01-illustration" style="width: 100%; height: 100%" width="1490" height="839" viewBox="0 0 1490 839" fill="none" xmlns="http://www.w3.org/2000/svg" class="css-0"><g clip-path="url(#nk-263)"><path style="fill:var(--color-illustrationBackground020)" d="M0 4.06446C0 1.85532 1.79086 0.0644531 4 0.0644531H1486.72C1488.93 0.0644531 1490.72 1.85531 1490.72 4.06445V834.068C1490.72 836.277 1488.93 838.068 1486.72 838.068H4.00002C1.79088 838.068 0 836.277 0 834.068V4.06446Z"></path><g clip-path="url(#nk-264)"><path style="fill:var(--color-illustrationInterface020)" d="M494 122.615C494 105.742 507.678 92.0645 524.55 92.0645H2191.45C2208.32 92.0645 2222 105.742 2222 122.615V1121.23C2222 1138.1 2208.32 1151.78 2191.45 1151.78H524.55C507.678 1151.78 494 1138.1 494 1121.23V122.615Z"></path><path style="fill:var(--color-illustrationInterface010)" d="M1483.71 141.639C1483.71 137.727 1486.88 134.557 1490.79 134.557H1598.79C1602.7 134.557 1605.87 137.727 1605.87 141.639C1605.87 145.55 1602.7 148.721 1598.79 148.721H1490.79C1486.88 148.721 1483.71 145.55 1483.71 141.639Z"></path><path style="fill:var(--color-illustrationHighlight010)" d="M494 106.228C494 98.4059 500.341 92.0645 508.164 92.0645H2207.84C2215.66 92.0645 2222 98.4059 2222 106.228V192.983H494V106.228Z"></path><g clip-path="url(#nk-265)"><path style="fill:var(--color-illustrationInterface010)" d="M494 193.064H911V912.064H494V193.064Z"></path><path style="fill:var(--color-illustrationSubtle010)" d="M543.542 256.928H535.83L534.593 260.578H529.324L536.801 239.914H542.629L550.106 260.578H544.778L543.542 256.928ZM542.247 253.042L539.686 245.477L537.154 253.042H542.247Z"></path><path style="fill:var(--color-illustrationSubtle010)" d="M551.381 252.365C551.381 250.658 551.724 249.167 552.411 247.891C553.117 246.616 554.089 245.634 555.325 244.948C556.581 244.261 558.014 243.917 559.623 243.917C561.683 243.917 563.4 244.457 564.774 245.536C566.167 246.616 567.08 248.136 567.512 250.099H562.154C561.703 248.843 560.83 248.215 559.534 248.215C558.612 248.215 557.876 248.578 557.327 249.304C556.777 250.011 556.503 251.031 556.503 252.365C556.503 253.7 556.777 254.73 557.327 255.456C557.876 256.163 558.612 256.516 559.534 256.516C560.83 256.516 561.703 255.888 562.154 254.632H567.512C567.08 256.555 566.167 258.066 564.774 259.165C563.381 260.264 561.664 260.814 559.623 260.814C558.014 260.814 556.581 260.47 555.325 259.783C554.089 259.096 553.117 258.115 552.411 256.84C551.724 255.564 551.381 254.073 551.381 252.365Z"></path><path style="fill:var(--color-illustrationSubtle010)" d="M569.203 252.365C569.203 250.658 569.547 249.167 570.233 247.891C570.94 246.616 571.911 245.634 573.148 244.948C574.404 244.261 575.836 243.917 577.445 243.917C579.506 243.917 581.223 244.457 582.597 245.536C583.99 246.616 584.902 248.136 585.334 250.099H579.977C579.525 248.843 578.652 248.215 577.357 248.215C576.435 248.215 575.699 248.578 575.149 249.304C574.6 250.011 574.325 251.031 574.325 252.365C574.325 253.7 574.6 254.73 575.149 255.456C575.699 256.163 576.435 256.516 577.357 256.516C578.652 256.516 579.525 255.888 579.977 254.632H585.334C584.902 256.555 583.99 258.066 582.597 259.165C581.203 260.264 579.486 260.814 577.445 260.814C575.836 260.814 574.404 260.47 573.148 259.783C571.911 259.096 570.94 258.115 570.233 256.84C569.547 255.564 569.203 254.073 569.203 252.365Z"></path><path style="fill:var(--color-illustrationSubtle010)" d="M595.503 260.814C593.894 260.814 592.442 260.47 591.147 259.783C589.871 259.096 588.861 258.115 588.115 256.84C587.389 255.564 587.026 254.073 587.026 252.365C587.026 250.678 587.399 249.196 588.144 247.921C588.89 246.625 589.91 245.634 591.206 244.948C592.501 244.261 593.953 243.917 595.562 243.917C597.171 243.917 598.624 244.261 599.919 244.948C601.214 245.634 602.234 246.625 602.98 247.921C603.726 249.196 604.099 250.678 604.099 252.365C604.099 254.053 603.716 255.545 602.951 256.84C602.205 258.115 601.175 259.096 599.86 259.783C598.565 260.47 597.112 260.814 595.503 260.814ZM595.503 256.457C596.465 256.457 597.279 256.104 597.946 255.397C598.633 254.691 598.977 253.68 598.977 252.365C598.977 251.051 598.643 250.04 597.976 249.334C597.328 248.627 596.524 248.274 595.562 248.274C594.581 248.274 593.767 248.627 593.119 249.334C592.471 250.02 592.148 251.031 592.148 252.365C592.148 253.68 592.462 254.691 593.09 255.397C593.737 256.104 594.542 256.457 595.503 256.457Z"></path><path style="fill:var(--color-illustrationSubtle010)" d="M622.988 244.153V260.578H617.955V258.341C617.444 259.067 616.748 259.656 615.865 260.107C615.001 260.539 614.04 260.755 612.98 260.755C611.724 260.755 610.615 260.48 609.654 259.93C608.692 259.361 607.946 258.547 607.417 257.487C606.887 256.428 606.622 255.181 606.622 253.749V244.153H611.626V253.072C611.626 254.171 611.91 255.025 612.48 255.633C613.049 256.241 613.814 256.545 614.776 256.545C615.757 256.545 616.532 256.241 617.101 255.633C617.67 255.025 617.955 254.171 617.955 253.072V244.153H622.988Z"></path><path style="fill:var(--color-illustrationSubtle010)" d="M636.612 243.976C638.535 243.976 640.066 244.604 641.204 245.86C642.362 247.096 642.941 248.804 642.941 250.982V260.578H637.937V251.659C637.937 250.56 637.652 249.706 637.083 249.098C636.514 248.49 635.748 248.186 634.787 248.186C633.825 248.186 633.06 248.49 632.491 249.098C631.922 249.706 631.637 250.56 631.637 251.659V260.578H626.604V244.153H631.637V246.331C632.147 245.605 632.834 245.036 633.698 244.624C634.561 244.192 635.533 243.976 636.612 243.976Z"></path><path style="fill:var(--color-illustrationSubtle010)" d="M655.593 256.31V260.578H653.032C651.207 260.578 649.784 260.137 648.764 259.253C647.743 258.351 647.233 256.889 647.233 254.868V248.333H645.232V244.153H647.233V240.15H652.267V244.153H655.564V248.333H652.267V254.926C652.267 255.417 652.385 255.77 652.62 255.986C652.856 256.202 653.248 256.31 653.797 256.31H655.593Z"></path><rect style="fill:var(--color-illustrationInterface010)" width="414.225" height="117.744" transform="translate(494 322.275)"></rect><mask id="nk-260" mask-type="alpha" maskUnits="userSpaceOnUse" x="529" y="363" width="36" height="36"><path style="fill:var(--color-black)" fill-rule="evenodd" clip-rule="evenodd" d="M546.986 366.43C538.861 366.43 532.268 373.023 532.268 381.148C532.268 389.272 538.861 395.866 546.986 395.866C555.11 395.866 561.704 389.272 561.704 381.148C561.704 373.023 555.11 366.43 546.986 366.43ZM539.73 390.391C540.363 389.066 544.219 387.771 546.986 387.771C549.753 387.771 553.624 389.066 554.242 390.391C552.241 391.98 549.724 392.922 546.986 392.922C544.249 392.922 541.732 391.98 539.73 390.391ZM546.986 384.827C549.135 384.827 554.242 385.696 556.346 388.257C557.848 386.284 558.76 383.827 558.76 381.148C558.76 374.657 553.476 369.374 546.986 369.374C540.495 369.374 535.211 374.657 535.211 381.148C535.211 383.827 536.124 386.284 537.625 388.257C539.73 385.696 544.837 384.827 546.986 384.827ZM546.986 372.317C544.13 372.317 541.834 374.613 541.834 377.468C541.834 380.324 544.13 382.62 546.986 382.62C549.841 382.62 552.137 380.324 552.137 377.468C552.137 374.613 549.841 372.317 546.986 372.317ZM544.778 377.468C544.778 378.69 545.764 379.676 546.986 379.676C548.207 379.676 549.193 378.69 549.193 377.468C549.193 376.247 548.207 375.261 546.986 375.261C545.764 375.261 544.778 376.247 544.778 377.468Z"></path></mask><g mask="url(#nk-260)"><path style="fill:var(--color-illustrationSubtle010)" d="M529.324 363.486H564.647V398.809H529.324V363.486Z"></path></g><path style="fill:var(--color-illustrationSubtle010)" d="M588.408 378.496C588.408 379.376 588.196 380.2 587.772 380.969C587.364 381.738 586.713 382.358 585.818 382.829C584.939 383.3 583.824 383.536 582.474 383.536H579.719V389.847H576.422V373.41H582.474C583.746 373.41 584.829 373.63 585.724 374.069C586.618 374.509 587.286 375.113 587.725 375.883C588.181 376.652 588.408 377.523 588.408 378.496ZM582.333 380.875C583.243 380.875 583.918 380.671 584.358 380.263C584.797 379.839 585.017 379.25 585.017 378.496C585.017 376.895 584.122 376.095 582.333 376.095H579.719V380.875H582.333Z"></path><path style="fill:var(--color-illustrationSubtle010)" d="M602.876 383.041C602.876 383.512 602.845 383.936 602.782 384.313H593.245C593.324 385.255 593.653 385.993 594.234 386.527C594.815 387.06 595.529 387.327 596.377 387.327C597.602 387.327 598.473 386.801 598.991 385.749H602.547C602.17 387.005 601.448 388.042 600.38 388.858C599.313 389.659 598.002 390.059 596.448 390.059C595.192 390.059 594.061 389.784 593.057 389.235C592.068 388.67 591.291 387.877 590.725 386.856C590.176 385.836 589.901 384.658 589.901 383.324C589.901 381.974 590.176 380.789 590.725 379.768C591.275 378.748 592.044 377.963 593.033 377.413C594.022 376.864 595.16 376.589 596.448 376.589C597.688 376.589 598.795 376.856 599.768 377.39C600.757 377.923 601.519 378.685 602.052 379.674C602.602 380.647 602.876 381.77 602.876 383.041ZM599.462 382.099C599.446 381.252 599.14 380.577 598.544 380.074C597.947 379.556 597.217 379.297 596.353 379.297C595.537 379.297 594.846 379.548 594.281 380.051C593.732 380.537 593.394 381.22 593.269 382.099H599.462Z"></path><path style="fill:var(--color-illustrationSubtle010)" d="M608.58 378.826C609.004 378.135 609.553 377.594 610.228 377.201C610.919 376.809 611.704 376.613 612.583 376.613V380.074H611.712C610.676 380.074 609.891 380.318 609.357 380.804C608.839 381.291 608.58 382.139 608.58 383.348V389.847H605.283V376.801H608.58V378.826Z"></path><path style="fill:var(--color-illustrationSubtle010)" d="M619.796 390.059C618.728 390.059 617.771 389.871 616.923 389.494C616.075 389.101 615.4 388.575 614.898 387.916C614.411 387.257 614.144 386.527 614.097 385.726H617.417C617.48 386.228 617.724 386.644 618.147 386.974C618.587 387.304 619.129 387.469 619.772 387.469C620.4 387.469 620.887 387.343 621.232 387.092C621.593 386.841 621.774 386.519 621.774 386.126C621.774 385.702 621.554 385.388 621.115 385.184C620.691 384.965 620.008 384.729 619.066 384.478C618.093 384.242 617.292 383.999 616.664 383.748C616.052 383.497 615.518 383.112 615.063 382.594C614.623 382.076 614.403 381.377 614.403 380.498C614.403 379.776 614.607 379.117 615.015 378.52C615.439 377.923 616.036 377.452 616.805 377.107C617.59 376.762 618.509 376.589 619.56 376.589C621.115 376.589 622.355 376.982 623.281 377.766C624.207 378.536 624.718 379.58 624.812 380.898H621.656C621.609 380.38 621.389 379.972 620.997 379.674C620.62 379.36 620.11 379.203 619.466 379.203C618.87 379.203 618.407 379.313 618.077 379.533C617.763 379.752 617.606 380.059 617.606 380.451C617.606 380.891 617.826 381.228 618.265 381.464C618.705 381.683 619.388 381.911 620.314 382.147C621.256 382.382 622.033 382.625 622.645 382.877C623.258 383.128 623.783 383.52 624.223 384.054C624.678 384.572 624.914 385.263 624.93 386.126C624.93 386.88 624.718 387.555 624.294 388.151C623.886 388.748 623.289 389.219 622.504 389.564C621.735 389.894 620.832 390.059 619.796 390.059Z"></path><path style="fill:var(--color-illustrationSubtle010)" d="M633.429 390.059C632.173 390.059 631.042 389.784 630.038 389.235C629.033 388.67 628.24 387.877 627.659 386.856C627.094 385.836 626.812 384.658 626.812 383.324C626.812 381.99 627.102 380.812 627.683 379.792C628.279 378.771 629.088 377.986 630.108 377.437C631.129 376.872 632.267 376.589 633.523 376.589C634.779 376.589 635.917 376.872 636.938 377.437C637.958 377.986 638.759 378.771 639.34 379.792C639.936 380.812 640.234 381.99 640.234 383.324C640.234 384.658 639.928 385.836 639.316 386.856C638.719 387.877 637.903 388.67 636.867 389.235C635.846 389.784 634.7 390.059 633.429 390.059ZM633.429 387.186C634.025 387.186 634.583 387.045 635.101 386.762C635.635 386.464 636.058 386.024 636.372 385.443C636.686 384.862 636.843 384.156 636.843 383.324C636.843 382.084 636.514 381.134 635.854 380.475C635.211 379.8 634.418 379.462 633.476 379.462C632.534 379.462 631.741 379.8 631.097 380.475C630.469 381.134 630.155 382.084 630.155 383.324C630.155 384.564 630.462 385.522 631.074 386.197C631.702 386.856 632.487 387.186 633.429 387.186Z"></path><path style="fill:var(--color-illustrationSubtle010)" d="M649.882 376.613C651.436 376.613 652.692 377.107 653.65 378.096C654.608 379.07 655.086 380.435 655.086 382.194V389.847H651.79V382.641C651.79 381.605 651.531 380.812 651.012 380.263C650.494 379.697 649.788 379.415 648.893 379.415C647.983 379.415 647.26 379.697 646.727 380.263C646.209 380.812 645.95 381.605 645.95 382.641V389.847H642.653V376.801H645.95V378.426C646.389 377.861 646.946 377.421 647.621 377.107C648.312 376.777 649.066 376.613 649.882 376.613Z"></path><path style="fill:var(--color-illustrationSubtle010)" d="M657.374 383.277C657.374 381.958 657.633 380.789 658.151 379.768C658.685 378.748 659.399 377.963 660.294 377.413C661.204 376.864 662.217 376.589 663.332 376.589C664.305 376.589 665.153 376.785 665.875 377.178C666.613 377.57 667.201 378.065 667.641 378.661V376.801H670.961V389.847H667.641V387.94C667.217 388.552 666.628 389.062 665.875 389.47C665.137 389.863 664.281 390.059 663.308 390.059C662.209 390.059 661.204 389.776 660.294 389.211C659.399 388.646 658.685 387.853 658.151 386.833C657.633 385.797 657.374 384.611 657.374 383.277ZM667.641 383.324C667.641 382.523 667.484 381.84 667.17 381.275C666.856 380.694 666.432 380.255 665.898 379.957C665.365 379.643 664.792 379.486 664.179 379.486C663.567 379.486 663.002 379.635 662.484 379.933C661.966 380.231 661.542 380.671 661.212 381.252C660.898 381.817 660.741 382.492 660.741 383.277C660.741 384.062 660.898 384.753 661.212 385.349C661.542 385.93 661.966 386.377 662.484 386.691C663.018 387.005 663.583 387.162 664.179 387.162C664.792 387.162 665.365 387.013 665.898 386.715C666.432 386.401 666.856 385.961 667.17 385.396C667.484 384.815 667.641 384.125 667.641 383.324Z"></path><path style="fill:var(--color-illustrationSubtle010)" d="M677.478 372.421V389.847H674.181V372.421H677.478Z"></path><path style="fill:var(--color-illustrationSubtle010)" d="M685.499 383.277C685.499 381.958 685.758 380.789 686.276 379.768C686.81 378.748 687.532 377.963 688.442 377.413C689.353 376.864 690.366 376.589 691.48 376.589C692.328 376.589 693.137 376.777 693.906 377.154C694.675 377.515 695.287 378.002 695.743 378.614V372.421H699.087V389.847H695.743V387.916C695.334 388.56 694.761 389.078 694.024 389.47C693.286 389.863 692.43 390.059 691.457 390.059C690.358 390.059 689.353 389.776 688.442 389.211C687.532 388.646 686.81 387.853 686.276 386.833C685.758 385.797 685.499 384.611 685.499 383.277ZM695.766 383.324C695.766 382.523 695.609 381.84 695.295 381.275C694.981 380.694 694.557 380.255 694.024 379.957C693.49 379.643 692.917 379.486 692.304 379.486C691.692 379.486 691.127 379.635 690.609 379.933C690.091 380.231 689.667 380.671 689.337 381.252C689.023 381.817 688.866 382.492 688.866 383.277C688.866 384.062 689.023 384.753 689.337 385.349C689.667 385.93 690.091 386.377 690.609 386.691C691.143 387.005 691.708 387.162 692.304 387.162C692.917 387.162 693.49 387.013 694.024 386.715C694.557 386.401 694.981 385.961 695.295 385.396C695.609 384.815 695.766 384.125 695.766 383.324Z"></path><path style="fill:var(--color-illustrationSubtle010)" d="M714.434 383.041C714.434 383.512 714.403 383.936 714.34 384.313H704.803C704.881 385.255 705.211 385.993 705.792 386.527C706.373 387.06 707.087 387.327 707.935 387.327C709.159 387.327 710.03 386.801 710.548 385.749H714.104C713.728 387.005 713.005 388.042 711.938 388.858C710.87 389.659 709.559 390.059 708.005 390.059C706.749 390.059 705.619 389.784 704.614 389.235C703.625 388.67 702.848 387.877 702.283 386.856C701.733 385.836 701.459 384.658 701.459 383.324C701.459 381.974 701.733 380.789 702.283 379.768C702.832 378.748 703.602 377.963 704.591 377.413C705.58 376.864 706.718 376.589 708.005 376.589C709.245 376.589 710.352 376.856 711.326 377.39C712.315 377.923 713.076 378.685 713.61 379.674C714.159 380.647 714.434 381.77 714.434 383.041ZM711.019 382.099C711.004 381.252 710.698 380.577 710.101 380.074C709.504 379.556 708.774 379.297 707.911 379.297C707.095 379.297 706.404 379.548 705.839 380.051C705.289 380.537 704.952 381.22 704.826 382.099H711.019Z"></path><path style="fill:var(--color-illustrationSubtle010)" d="M720.679 379.509V385.82C720.679 386.26 720.781 386.582 720.985 386.786C721.205 386.974 721.566 387.068 722.068 387.068H723.599V389.847H721.527C718.748 389.847 717.358 388.497 717.358 385.797V379.509H715.804V376.801H717.358V373.575H720.679V376.801H723.599V379.509H720.679Z"></path><path style="fill:var(--color-illustrationSubtle010)" d="M725.122 383.277C725.122 381.958 725.381 380.789 725.9 379.768C726.433 378.748 727.148 377.963 728.042 377.413C728.953 376.864 729.966 376.589 731.08 376.589C732.054 376.589 732.901 376.785 733.623 377.178C734.361 377.57 734.95 378.065 735.39 378.661V376.801H738.71V389.847H735.39V387.94C734.966 388.552 734.377 389.062 733.623 389.47C732.886 389.863 732.03 390.059 731.057 390.059C729.958 390.059 728.953 389.776 728.042 389.211C727.148 388.646 726.433 387.853 725.9 386.833C725.381 385.797 725.122 384.611 725.122 383.277ZM735.39 383.324C735.39 382.523 735.233 381.84 734.919 381.275C734.605 380.694 734.181 380.255 733.647 379.957C733.113 379.643 732.54 379.486 731.928 379.486C731.316 379.486 730.751 379.635 730.232 379.933C729.714 380.231 729.291 380.671 728.961 381.252C728.647 381.817 728.49 382.492 728.49 383.277C728.49 384.062 728.647 384.753 728.961 385.349C729.291 385.93 729.714 386.377 730.232 386.691C730.766 387.005 731.331 387.162 731.928 387.162C732.54 387.162 733.113 387.013 733.647 386.715C734.181 386.401 734.605 385.961 734.919 385.396C735.233 384.815 735.39 384.125 735.39 383.324Z"></path><path style="fill:var(--color-illustrationSubtle010)" d="M743.602 375.247C743.021 375.247 742.534 375.066 742.142 374.705C741.765 374.328 741.577 373.865 741.577 373.316C741.577 372.766 741.765 372.311 742.142 371.95C742.534 371.573 743.021 371.385 743.602 371.385C744.183 371.385 744.662 371.573 745.038 371.95C745.431 372.311 745.627 372.766 745.627 373.316C745.627 373.865 745.431 374.328 745.038 374.705C744.662 375.066 744.183 375.247 743.602 375.247ZM745.227 376.801V389.847H741.93V376.801H745.227Z"></path><path style="fill:var(--color-illustrationSubtle010)" d="M751.781 372.421V389.847H748.484V372.421H751.781Z"></path><path style="fill:var(--color-illustrationSubtle010)" d="M760.03 390.059C758.963 390.059 758.005 389.871 757.158 389.494C756.31 389.101 755.635 388.575 755.132 387.916C754.646 387.257 754.379 386.527 754.332 385.726H757.652C757.715 386.228 757.958 386.644 758.382 386.974C758.822 387.304 759.363 387.469 760.007 387.469C760.635 387.469 761.122 387.343 761.467 387.092C761.828 386.841 762.009 386.519 762.009 386.126C762.009 385.702 761.789 385.388 761.349 385.184C760.925 384.965 760.242 384.729 759.3 384.478C758.327 384.242 757.526 383.999 756.898 383.748C756.286 383.497 755.752 383.112 755.297 382.594C754.858 382.076 754.638 381.377 754.638 380.498C754.638 379.776 754.842 379.117 755.25 378.52C755.674 377.923 756.271 377.452 757.04 377.107C757.825 376.762 758.743 376.589 759.795 376.589C761.349 376.589 762.589 376.982 763.516 377.766C764.442 378.536 764.952 379.58 765.046 380.898H761.891C761.844 380.38 761.624 379.972 761.231 379.674C760.855 379.36 760.344 379.203 759.701 379.203C759.104 379.203 758.641 379.313 758.311 379.533C757.997 379.752 757.84 380.059 757.84 380.451C757.84 380.891 758.06 381.228 758.5 381.464C758.939 381.683 759.622 381.911 760.549 382.147C761.49 382.382 762.268 382.625 762.88 382.877C763.492 383.128 764.018 383.52 764.458 384.054C764.913 384.572 765.148 385.263 765.164 386.126C765.164 386.88 764.952 387.555 764.528 388.151C764.12 388.748 763.524 389.219 762.739 389.564C761.969 389.894 761.067 390.059 760.03 390.059Z"></path><rect style="fill:var(--color-illustrationInterface010)" width="117.744" height="2.94359" transform="translate(908.225 440.02) rotate(-90)"></rect><path style="fill:var(--color-illustrationInterface010)" d="M908.225 440.02V322.276H911.168V440.02H908.225Z"></path><rect style="fill:var(--color-illustrationInterface010)" width="414.225" height="117.744" transform="translate(494 451.795)"></rect><mask id="nk-261" mask-type="alpha" maskUnits="userSpaceOnUse" x="529" y="493" width="36" height="36"><path style="fill:var(--color-black)" fill-rule="evenodd" clip-rule="evenodd" d="M558.76 498.893H535.211C533.577 498.893 532.282 500.202 532.282 501.836L532.268 519.498C532.268 521.131 533.577 522.441 535.211 522.441H558.76C560.394 522.441 561.703 521.131 561.703 519.498V501.836C561.703 500.202 560.394 498.893 558.76 498.893ZM558.76 519.498H535.211V510.667H558.76V519.498ZM535.211 504.78H558.76V501.837H535.211V504.78Z"></path></mask><g mask="url(#nk-261)"><path style="fill:var(--color-illustrationHighlight010)" d="M529.324 493.006H564.647V528.329H529.324V493.006Z"></path></g><path style="fill:var(--color-illustrationHighlight010)" d="M582.521 516.424C581.375 516.424 580.339 516.228 579.413 515.835C578.502 515.443 577.78 514.878 577.246 514.14C576.712 513.402 576.438 512.531 576.422 511.526H579.954C580.001 512.201 580.237 512.735 580.661 513.127C581.1 513.52 581.697 513.716 582.45 513.716C583.22 513.716 583.824 513.535 584.264 513.174C584.703 512.797 584.923 512.311 584.923 511.714C584.923 511.228 584.774 510.827 584.476 510.513C584.177 510.199 583.8 509.956 583.345 509.783C582.906 509.595 582.293 509.391 581.508 509.171C580.441 508.857 579.57 508.551 578.894 508.253C578.235 507.939 577.662 507.475 577.175 506.863C576.704 506.235 576.469 505.403 576.469 504.367C576.469 503.394 576.712 502.546 577.199 501.824C577.686 501.102 578.369 500.552 579.248 500.175C580.127 499.783 581.132 499.587 582.262 499.587C583.957 499.587 585.331 500.003 586.383 500.835C587.451 501.651 588.039 502.797 588.149 504.273H584.523C584.491 503.708 584.248 503.244 583.793 502.883C583.353 502.507 582.764 502.318 582.026 502.318C581.383 502.318 580.865 502.483 580.472 502.813C580.095 503.142 579.907 503.621 579.907 504.249C579.907 504.689 580.048 505.058 580.331 505.356C580.629 505.639 580.99 505.874 581.414 506.062C581.854 506.235 582.466 506.439 583.251 506.675C584.319 506.989 585.19 507.303 585.865 507.617C586.54 507.931 587.121 508.402 587.608 509.03C588.094 509.658 588.338 510.482 588.338 511.502C588.338 512.381 588.11 513.198 587.655 513.951C587.199 514.705 586.532 515.309 585.653 515.765C584.774 516.204 583.73 516.424 582.521 516.424Z"></path><path style="fill:var(--color-illustrationHighlight010)" d="M603.512 503.213V516.259H600.191V514.611C599.768 515.176 599.21 515.623 598.519 515.953C597.844 516.267 597.106 516.424 596.306 516.424C595.285 516.424 594.383 516.212 593.598 515.788C592.813 515.349 592.193 514.713 591.737 513.881C591.298 513.033 591.078 512.028 591.078 510.866V503.213H594.375V510.395C594.375 511.432 594.634 512.232 595.152 512.797C595.67 513.347 596.376 513.622 597.271 513.622C598.182 513.622 598.896 513.347 599.414 512.797C599.932 512.232 600.191 511.432 600.191 510.395V503.213H603.512Z"></path><path style="fill:var(--color-illustrationHighlight010)" d="M610.061 505.121C610.485 504.493 611.066 503.982 611.804 503.59C612.558 503.197 613.413 503.001 614.371 503.001C615.485 503.001 616.49 503.276 617.385 503.825C618.296 504.375 619.01 505.16 619.528 506.18C620.062 507.185 620.329 508.355 620.329 509.689C620.329 511.023 620.062 512.209 619.528 513.245C619.01 514.265 618.296 515.058 617.385 515.623C616.49 516.188 615.485 516.471 614.371 516.471C613.398 516.471 612.542 516.283 611.804 515.906C611.082 515.513 610.501 515.011 610.061 514.399V516.259H606.765V498.833H610.061V505.121ZM616.961 509.689C616.961 508.904 616.796 508.229 616.467 507.664C616.153 507.083 615.729 506.643 615.195 506.345C614.677 506.047 614.112 505.898 613.5 505.898C612.903 505.898 612.338 506.055 611.804 506.369C611.286 506.667 610.862 507.106 610.532 507.687C610.218 508.268 610.061 508.951 610.061 509.736C610.061 510.521 610.218 511.204 610.532 511.785C610.862 512.366 611.286 512.813 611.804 513.127C612.338 513.425 612.903 513.575 613.5 513.575C614.112 513.575 614.677 513.418 615.195 513.104C615.729 512.79 616.153 512.342 616.467 511.761C616.796 511.18 616.961 510.49 616.961 509.689Z"></path><path style="fill:var(--color-illustrationHighlight010)" d="M627.717 516.471C626.649 516.471 625.692 516.283 624.844 515.906C623.996 515.513 623.321 514.987 622.819 514.328C622.332 513.669 622.065 512.939 622.018 512.138H625.338C625.401 512.64 625.644 513.056 626.068 513.386C626.508 513.716 627.05 513.881 627.693 513.881C628.321 513.881 628.808 513.755 629.153 513.504C629.514 513.253 629.695 512.931 629.695 512.538C629.695 512.115 629.475 511.801 629.035 511.596C628.612 511.377 627.929 511.141 626.987 510.89C626.013 510.654 625.213 510.411 624.585 510.16C623.972 509.909 623.439 509.524 622.983 509.006C622.544 508.488 622.324 507.789 622.324 506.91C622.324 506.188 622.528 505.529 622.936 504.932C623.36 504.336 623.957 503.865 624.726 503.519C625.511 503.174 626.429 503.001 627.481 503.001C629.035 503.001 630.276 503.394 631.202 504.179C632.128 504.948 632.638 505.992 632.733 507.311H629.577C629.53 506.792 629.31 506.384 628.918 506.086C628.541 505.772 628.031 505.615 627.387 505.615C626.79 505.615 626.327 505.725 625.998 505.945C625.684 506.165 625.527 506.471 625.527 506.863C625.527 507.303 625.746 507.64 626.186 507.876C626.626 508.096 627.309 508.323 628.235 508.559C629.177 508.794 629.954 509.037 630.566 509.289C631.178 509.54 631.704 509.932 632.144 510.466C632.599 510.984 632.835 511.675 632.85 512.538C632.85 513.292 632.638 513.967 632.215 514.564C631.806 515.16 631.21 515.631 630.425 515.977C629.656 516.306 628.753 516.471 627.717 516.471Z"></path><path style="fill:var(--color-illustrationHighlight010)" d="M634.709 509.736C634.709 508.386 634.984 507.209 635.533 506.204C636.083 505.183 636.844 504.398 637.817 503.849C638.791 503.284 639.905 503.001 641.161 503.001C642.778 503.001 644.113 503.409 645.165 504.226C646.232 505.026 646.946 506.157 647.307 507.617H643.752C643.563 507.052 643.241 506.612 642.786 506.298C642.347 505.968 641.797 505.803 641.138 505.803C640.196 505.803 639.45 506.149 638.901 506.84C638.351 507.515 638.076 508.48 638.076 509.736C638.076 510.976 638.351 511.942 638.901 512.633C639.45 513.308 640.196 513.645 641.138 513.645C642.472 513.645 643.343 513.049 643.752 511.855H647.307C646.946 513.268 646.232 514.391 645.165 515.223C644.097 516.055 642.763 516.471 641.161 516.471C639.905 516.471 638.791 516.196 637.817 515.647C636.844 515.082 636.083 514.297 635.533 513.292C634.984 512.271 634.709 511.086 634.709 509.736Z"></path><path style="fill:var(--color-illustrationHighlight010)" d="M653.019 505.238C653.443 504.548 653.993 504.006 654.668 503.613C655.359 503.221 656.144 503.025 657.023 503.025V506.486H656.151C655.115 506.486 654.33 506.73 653.797 507.216C653.279 507.703 653.019 508.551 653.019 509.76V516.259H649.723V503.213H653.019V505.238Z"></path><path style="fill:var(--color-illustrationHighlight010)" d="M660.915 501.659C660.334 501.659 659.848 501.478 659.455 501.117C659.078 500.74 658.89 500.277 658.89 499.728C658.89 499.178 659.078 498.723 659.455 498.362C659.848 497.985 660.334 497.797 660.915 497.797C661.496 497.797 661.975 497.985 662.352 498.362C662.744 498.723 662.94 499.178 662.94 499.728C662.94 500.277 662.744 500.74 662.352 501.117C661.975 501.478 661.496 501.659 660.915 501.659ZM662.54 503.213V516.259H659.243V503.213H662.54Z"></path><path style="fill:var(--color-illustrationHighlight010)" d="M669.094 505.097C669.518 504.5 670.099 504.006 670.837 503.613C671.59 503.205 672.446 503.001 673.404 503.001C674.518 503.001 675.523 503.276 676.418 503.825C677.328 504.375 678.043 505.16 678.561 506.18C679.095 507.185 679.362 508.355 679.362 509.689C679.362 511.023 679.095 512.209 678.561 513.245C678.043 514.265 677.328 515.058 676.418 515.623C675.523 516.188 674.518 516.471 673.404 516.471C672.446 516.471 671.598 516.275 670.86 515.882C670.138 515.49 669.55 514.995 669.094 514.399V522.476H665.797V503.213H669.094V505.097ZM675.994 509.689C675.994 508.904 675.829 508.229 675.5 507.664C675.186 507.083 674.762 506.643 674.228 506.345C673.71 506.047 673.145 505.898 672.532 505.898C671.936 505.898 671.371 506.055 670.837 506.369C670.319 506.667 669.895 507.106 669.565 507.687C669.251 508.268 669.094 508.951 669.094 509.736C669.094 510.521 669.251 511.204 669.565 511.785C669.895 512.366 670.319 512.813 670.837 513.127C671.371 513.425 671.936 513.575 672.532 513.575C673.145 513.575 673.71 513.418 674.228 513.104C674.762 512.79 675.186 512.342 675.5 511.761C675.829 511.18 675.994 510.49 675.994 509.689Z"></path><path style="fill:var(--color-illustrationHighlight010)" d="M685.596 505.921V512.232C685.596 512.672 685.698 512.994 685.902 513.198C686.122 513.386 686.483 513.48 686.985 513.48H688.516V516.259H686.443C683.665 516.259 682.275 514.909 682.275 512.209V505.921H680.721V503.213H682.275V499.987H685.596V503.213H688.516V505.921H685.596Z"></path><path style="fill:var(--color-illustrationHighlight010)" d="M692.559 501.659C691.978 501.659 691.491 501.478 691.099 501.117C690.722 500.74 690.534 500.277 690.534 499.728C690.534 499.178 690.722 498.723 691.099 498.362C691.491 497.985 691.978 497.797 692.559 497.797C693.14 497.797 693.619 497.985 693.995 498.362C694.388 498.723 694.584 499.178 694.584 499.728C694.584 500.277 694.388 500.74 693.995 501.117C693.619 501.478 693.14 501.659 692.559 501.659ZM694.184 503.213V516.259H690.887V503.213H694.184Z"></path><path style="fill:var(--color-illustrationHighlight010)" d="M703.234 516.471C701.978 516.471 700.848 516.196 699.843 515.647C698.838 515.082 698.045 514.289 697.465 513.268C696.899 512.248 696.617 511.071 696.617 509.736C696.617 508.402 696.907 507.224 697.488 506.204C698.085 505.183 698.893 504.398 699.914 503.849C700.934 503.284 702.072 503.001 703.328 503.001C704.584 503.001 705.722 503.284 706.743 503.849C707.763 504.398 708.564 505.183 709.145 506.204C709.741 507.224 710.04 508.402 710.04 509.736C710.04 511.071 709.733 512.248 709.121 513.268C708.525 514.289 707.708 515.082 706.672 515.647C705.652 516.196 704.506 516.471 703.234 516.471ZM703.234 513.598C703.831 513.598 704.388 513.457 704.906 513.174C705.44 512.876 705.864 512.436 706.178 511.855C706.492 511.275 706.649 510.568 706.649 509.736C706.649 508.496 706.319 507.546 705.66 506.887C705.016 506.212 704.223 505.874 703.281 505.874C702.339 505.874 701.546 506.212 700.903 506.887C700.275 507.546 699.961 508.496 699.961 509.736C699.961 510.976 700.267 511.934 700.879 512.609C701.507 513.268 702.292 513.598 703.234 513.598Z"></path><path style="fill:var(--color-illustrationHighlight010)" d="M719.687 503.025C721.242 503.025 722.498 503.519 723.455 504.508C724.413 505.482 724.892 506.847 724.892 508.606V516.259H721.595V509.053C721.595 508.017 721.336 507.224 720.818 506.675C720.3 506.11 719.593 505.827 718.698 505.827C717.788 505.827 717.066 506.11 716.532 506.675C716.014 507.224 715.755 508.017 715.755 509.053V516.259H712.458V503.213H715.755V504.838C716.194 504.273 716.752 503.833 717.427 503.519C718.118 503.19 718.871 503.025 719.687 503.025Z"></path><path style="fill:var(--color-illustrationHighlight010)" d="M746.284 516.259L744.494 514.493C742.971 515.859 741.111 516.542 738.913 516.542C737.704 516.542 736.637 516.338 735.71 515.929C734.8 515.506 734.093 514.917 733.591 514.163C733.089 513.394 732.837 512.507 732.837 511.502C732.837 510.419 733.143 509.446 733.756 508.582C734.368 507.719 735.271 507.02 736.464 506.486C736.04 505.968 735.734 505.474 735.545 505.003C735.357 504.516 735.263 503.998 735.263 503.449C735.263 502.695 735.459 502.02 735.852 501.423C736.244 500.811 736.801 500.332 737.524 499.987C738.261 499.642 739.117 499.469 740.09 499.469C741.079 499.469 741.927 499.657 742.634 500.034C743.34 500.411 743.866 500.913 744.211 501.541C744.557 502.169 744.706 502.868 744.659 503.637H741.456C741.472 503.119 741.346 502.726 741.079 502.46C740.813 502.177 740.451 502.036 739.996 502.036C739.557 502.036 739.188 502.169 738.889 502.436C738.607 502.687 738.466 503.017 738.466 503.425C738.466 503.818 738.583 504.21 738.819 504.602C739.054 504.979 739.439 505.45 739.973 506.015L744.117 510.113C744.149 510.081 744.172 510.05 744.188 510.019C744.204 509.987 744.219 509.956 744.235 509.924L745.577 507.687H749.015L747.367 510.584C747.053 511.196 746.715 511.777 746.354 512.326L750.334 516.259H746.284ZM739.007 513.81C740.294 513.81 741.433 513.355 742.422 512.444L738.371 508.441C736.849 509.116 736.087 510.074 736.087 511.314C736.087 512.02 736.354 512.617 736.888 513.104C737.422 513.575 738.128 513.81 739.007 513.81Z"></path><path style="fill:var(--color-illustrationHighlight010)" d="M760.875 505.121C761.298 504.493 761.879 503.982 762.617 503.59C763.371 503.197 764.226 503.001 765.184 503.001C766.299 503.001 767.303 503.276 768.198 503.825C769.109 504.375 769.823 505.16 770.341 506.18C770.875 507.185 771.142 508.355 771.142 509.689C771.142 511.023 770.875 512.209 770.341 513.245C769.823 514.265 769.109 515.058 768.198 515.623C767.303 516.188 766.299 516.471 765.184 516.471C764.211 516.471 763.355 516.283 762.617 515.906C761.895 515.513 761.314 515.011 760.875 514.399V516.259H757.578V498.833H760.875V505.121ZM767.774 509.689C767.774 508.904 767.609 508.229 767.28 507.664C766.966 507.083 766.542 506.643 766.008 506.345C765.49 506.047 764.925 505.898 764.313 505.898C763.716 505.898 763.151 506.055 762.617 506.369C762.099 506.667 761.675 507.106 761.346 507.687C761.032 508.268 760.875 508.951 760.875 509.736C760.875 510.521 761.032 511.204 761.346 511.785C761.675 512.366 762.099 512.813 762.617 513.127C763.151 513.425 763.716 513.575 764.313 513.575C764.925 513.575 765.49 513.418 766.008 513.104C766.542 512.79 766.966 512.342 767.28 511.761C767.609 511.18 767.774 510.49 767.774 509.689Z"></path><path style="fill:var(--color-illustrationHighlight010)" d="M775.209 501.659C774.629 501.659 774.142 501.478 773.749 501.117C773.373 500.74 773.184 500.277 773.184 499.728C773.184 499.178 773.373 498.723 773.749 498.362C774.142 497.985 774.629 497.797 775.209 497.797C775.79 497.797 776.269 497.985 776.646 498.362C777.038 498.723 777.235 499.178 777.235 499.728C777.235 500.277 777.038 500.74 776.646 501.117C776.269 501.478 775.79 501.659 775.209 501.659ZM776.834 503.213V516.259H773.537V503.213H776.834Z"></path><path style="fill:var(--color-illustrationHighlight010)" d="M783.388 498.833V516.259H780.092V498.833H783.388Z"></path><path style="fill:var(--color-illustrationHighlight010)" d="M789.943 498.833V516.259H786.646V498.833H789.943Z"></path><path style="fill:var(--color-illustrationHighlight010)" d="M794.872 501.659C794.291 501.659 793.804 501.478 793.412 501.117C793.035 500.74 792.847 500.277 792.847 499.728C792.847 499.178 793.035 498.723 793.412 498.362C793.804 497.985 794.291 497.797 794.872 497.797C795.453 497.797 795.931 497.985 796.308 498.362C796.701 498.723 796.897 499.178 796.897 499.728C796.897 500.277 796.701 500.74 796.308 501.117C795.931 501.478 795.453 501.659 794.872 501.659ZM796.497 503.213V516.259H793.2V503.213H796.497Z"></path><path style="fill:var(--color-illustrationHighlight010)" d="M806.983 503.025C808.538 503.025 809.793 503.519 810.751 504.508C811.709 505.482 812.188 506.847 812.188 508.606V516.259H808.891V509.053C808.891 508.017 808.632 507.224 808.114 506.675C807.596 506.11 806.889 505.827 805.994 505.827C805.084 505.827 804.362 506.11 803.828 506.675C803.31 507.224 803.051 508.017 803.051 509.053V516.259H799.754V503.213H803.051V504.838C803.49 504.273 804.048 503.833 804.723 503.519C805.413 503.19 806.167 503.025 806.983 503.025Z"></path><path style="fill:var(--color-illustrationHighlight010)" d="M820.433 503.001C821.406 503.001 822.262 503.197 823 503.59C823.737 503.967 824.318 504.461 824.742 505.073V503.213H828.063V516.353C828.063 517.562 827.819 518.638 827.333 519.579C826.846 520.537 826.116 521.291 825.143 521.84C824.169 522.405 822.992 522.688 821.61 522.688C819.758 522.688 818.235 522.256 817.042 521.393C815.864 520.529 815.197 519.352 815.04 517.86H818.313C818.486 518.457 818.855 518.928 819.42 519.273C820.001 519.634 820.7 519.815 821.516 519.815C822.474 519.815 823.251 519.525 823.847 518.944C824.444 518.378 824.742 517.515 824.742 516.353V514.328C824.318 514.94 823.73 515.451 822.976 515.859C822.238 516.267 821.39 516.471 820.433 516.471C819.334 516.471 818.329 516.188 817.419 515.623C816.508 515.058 815.786 514.265 815.252 513.245C814.734 512.209 814.475 511.023 814.475 509.689C814.475 508.37 814.734 507.201 815.252 506.18C815.786 505.16 816.5 504.375 817.395 503.825C818.306 503.276 819.318 503.001 820.433 503.001ZM824.742 509.736C824.742 508.935 824.585 508.253 824.271 507.687C823.957 507.106 823.533 506.667 823 506.369C822.466 506.055 821.893 505.898 821.281 505.898C820.668 505.898 820.103 506.047 819.585 506.345C819.067 506.643 818.643 507.083 818.313 507.664C817.999 508.229 817.842 508.904 817.842 509.689C817.842 510.474 817.999 511.165 818.313 511.761C818.643 512.342 819.067 512.79 819.585 513.104C820.119 513.418 820.684 513.575 821.281 513.575C821.893 513.575 822.466 513.425 823 513.127C823.533 512.813 823.957 512.374 824.271 511.808C824.585 511.228 824.742 510.537 824.742 509.736Z"></path><rect style="fill:var(--color-illustrationInterface010)" width="117.744" height="2.94359" transform="translate(908.225 569.539) rotate(-90)"></rect><path style="fill:var(--color-illustrationHighlight010)" d="M908.225 569.539V451.795H914.112V569.539H908.225Z"></path><rect style="fill:var(--color-illustrationInterface010)" width="414.225" height="117.744" transform="translate(494 581.312)"></rect><mask id="nk-262" mask-type="alpha" maskUnits="userSpaceOnUse" x="529" y="622" width="36" height="36"><path style="fill:var(--color-black)" fill-rule="evenodd" clip-rule="evenodd" d="M558.762 628.41H535.213C533.594 628.41 532.284 629.735 532.284 631.354L532.27 649.015C532.27 650.634 533.594 651.959 535.213 651.959H558.762C560.381 651.959 561.705 650.634 561.705 649.015V631.354C561.705 629.735 560.381 628.41 558.762 628.41ZM535.213 634.298L546.988 641.657L558.762 634.298V649.016H535.213V634.298ZM535.213 631.354L546.988 638.713L558.762 631.354H535.213Z"></path></mask><g mask="url(#nk-262)"><path style="fill:var(--color-illustrationSubtle010)" d="M529.326 622.523H564.649V657.847H529.326V622.523Z"></path></g><path style="fill:var(--color-illustrationSubtle010)" d="M590.482 648.332H587.186L579.721 637.052V648.332H576.424V631.872H579.721L587.186 643.175V631.872H590.482V648.332Z"></path><path style="fill:var(--color-illustrationSubtle010)" d="M605.868 641.527C605.868 641.998 605.837 642.422 605.774 642.798H596.237C596.315 643.74 596.645 644.478 597.226 645.012C597.807 645.546 598.521 645.813 599.369 645.813C600.593 645.813 601.464 645.287 601.982 644.235H605.538C605.162 645.491 604.439 646.527 603.372 647.343C602.304 648.144 600.993 648.544 599.439 648.544C598.183 648.544 597.053 648.27 596.048 647.72C595.059 647.155 594.282 646.362 593.717 645.342C593.167 644.321 592.893 643.144 592.893 641.809C592.893 640.459 593.167 639.274 593.717 638.253C594.266 637.233 595.036 636.448 596.025 635.899C597.014 635.349 598.152 635.074 599.439 635.074C600.679 635.074 601.786 635.341 602.76 635.875C603.749 636.409 604.51 637.17 605.044 638.159C605.593 639.133 605.868 640.255 605.868 641.527ZM602.453 640.585C602.438 639.737 602.132 639.062 601.535 638.56C600.938 638.042 600.208 637.782 599.345 637.782C598.529 637.782 597.838 638.034 597.273 638.536C596.723 639.023 596.386 639.706 596.26 640.585H602.453Z"></path><path style="fill:var(--color-illustrationSubtle010)" d="M626.36 635.286L622.545 648.332H618.989L616.611 639.219L614.232 648.332H610.653L606.814 635.286H610.158L612.466 645.224L614.962 635.286H618.447L620.897 645.2L623.204 635.286H626.36Z"></path><path style="fill:var(--color-illustrationSubtle010)" d="M633.136 648.544C632.068 648.544 631.111 648.356 630.263 647.979C629.415 647.587 628.74 647.061 628.238 646.401C627.751 645.742 627.484 645.012 627.437 644.211H630.758C630.82 644.714 631.064 645.13 631.488 645.459C631.927 645.789 632.469 645.954 633.112 645.954C633.74 645.954 634.227 645.828 634.572 645.577C634.934 645.326 635.114 645.004 635.114 644.612C635.114 644.188 634.894 643.874 634.455 643.67C634.031 643.45 633.348 643.214 632.406 642.963C631.433 642.728 630.632 642.484 630.004 642.233C629.392 641.982 628.858 641.597 628.403 641.079C627.963 640.561 627.743 639.863 627.743 638.983C627.743 638.261 627.947 637.602 628.356 637.005C628.779 636.409 629.376 635.938 630.145 635.592C630.93 635.247 631.849 635.074 632.901 635.074C634.455 635.074 635.695 635.467 636.621 636.252C637.547 637.021 638.058 638.065 638.152 639.384H634.996C634.949 638.866 634.729 638.458 634.337 638.159C633.96 637.845 633.45 637.688 632.806 637.688C632.21 637.688 631.747 637.798 631.417 638.018C631.103 638.238 630.946 638.544 630.946 638.936C630.946 639.376 631.166 639.713 631.605 639.949C632.045 640.169 632.728 640.396 633.654 640.632C634.596 640.867 635.373 641.111 635.985 641.362C636.598 641.613 637.124 642.006 637.563 642.539C638.018 643.057 638.254 643.748 638.27 644.612C638.27 645.365 638.058 646.04 637.634 646.637C637.226 647.233 636.629 647.704 635.844 648.05C635.075 648.379 634.172 648.544 633.136 648.544Z"></path><path style="fill:var(--color-illustrationSubtle010)" d="M644.273 630.906V648.332H640.976V630.906H644.273Z"></path><path style="fill:var(--color-illustrationSubtle010)" d="M659.658 641.527C659.658 641.998 659.626 642.422 659.563 642.798H650.026C650.105 643.74 650.434 644.478 651.015 645.012C651.596 645.546 652.31 645.813 653.158 645.813C654.383 645.813 655.254 645.287 655.772 644.235H659.328C658.951 645.491 658.229 646.527 657.161 647.343C656.094 648.144 654.783 648.544 653.229 648.544C651.973 648.544 650.842 648.27 649.838 647.72C648.849 647.155 648.072 646.362 647.506 645.342C646.957 644.321 646.682 643.144 646.682 641.809C646.682 640.459 646.957 639.274 647.506 638.253C648.056 637.233 648.825 636.448 649.814 635.899C650.803 635.349 651.941 635.074 653.229 635.074C654.469 635.074 655.576 635.341 656.549 635.875C657.538 636.409 658.3 637.17 658.833 638.159C659.383 639.133 659.658 640.255 659.658 641.527ZM656.243 640.585C656.227 639.737 655.921 639.062 655.325 638.56C654.728 638.042 653.998 637.782 653.135 637.782C652.318 637.782 651.627 638.034 651.062 638.536C650.513 639.023 650.175 639.706 650.05 640.585H656.243Z"></path><path style="fill:var(--color-illustrationSubtle010)" d="M665.902 637.994V644.305C665.902 644.745 666.004 645.067 666.209 645.271C666.428 645.459 666.789 645.554 667.292 645.554H668.822V648.332H666.75C663.971 648.332 662.582 646.982 662.582 644.282V637.994H661.028V635.286H662.582V632.06H665.902V635.286H668.822V637.994H665.902Z"></path><path style="fill:var(--color-illustrationSubtle010)" d="M675.032 637.994V644.305C675.032 644.745 675.134 645.067 675.338 645.271C675.558 645.459 675.919 645.554 676.422 645.554H677.952V648.332H675.88C673.101 648.332 671.712 646.982 671.712 644.282V637.994H670.158V635.286H671.712V632.06H675.032V635.286H677.952V637.994H675.032Z"></path><path style="fill:var(--color-illustrationSubtle010)" d="M692.451 641.527C692.451 641.998 692.42 642.422 692.357 642.798H682.82C682.898 643.74 683.228 644.478 683.809 645.012C684.39 645.546 685.104 645.813 685.952 645.813C687.176 645.813 688.047 645.287 688.565 644.235H692.121C691.745 645.491 691.022 646.527 689.955 647.343C688.887 648.144 687.576 648.544 686.022 648.544C684.766 648.544 683.636 648.27 682.631 647.72C681.642 647.155 680.865 646.362 680.3 645.342C679.75 644.321 679.476 643.144 679.476 641.809C679.476 640.459 679.75 639.274 680.3 638.253C680.849 637.233 681.619 636.448 682.608 635.899C683.597 635.349 684.735 635.074 686.022 635.074C687.262 635.074 688.369 635.341 689.343 635.875C690.332 636.409 691.093 637.17 691.627 638.159C692.176 639.133 692.451 640.255 692.451 641.527ZM689.036 640.585C689.021 639.737 688.715 639.062 688.118 638.56C687.521 638.042 686.791 637.782 685.928 637.782C685.112 637.782 684.421 638.034 683.856 638.536C683.306 639.023 682.969 639.706 682.843 640.585H689.036Z"></path><path style="fill:var(--color-illustrationSubtle010)" d="M698.154 637.312C698.578 636.621 699.128 636.079 699.803 635.687C700.493 635.294 701.278 635.098 702.158 635.098V638.56H701.286C700.25 638.56 699.465 638.803 698.931 639.29C698.413 639.776 698.154 640.624 698.154 641.833V648.332H694.857V635.286H698.154V637.312Z"></path><path style="fill:var(--color-illustrationSubtle010)" d="M722.635 648.332L720.845 646.566C719.322 647.932 717.462 648.615 715.264 648.615C714.055 648.615 712.988 648.411 712.062 648.003C711.151 647.579 710.445 646.99 709.942 646.236C709.44 645.467 709.189 644.58 709.189 643.575C709.189 642.492 709.495 641.519 710.107 640.655C710.719 639.792 711.622 639.093 712.815 638.56C712.391 638.042 712.085 637.547 711.897 637.076C711.708 636.589 711.614 636.071 711.614 635.522C711.614 634.768 711.81 634.093 712.203 633.497C712.595 632.884 713.153 632.406 713.875 632.06C714.613 631.715 715.468 631.542 716.442 631.542C717.431 631.542 718.278 631.73 718.985 632.107C719.691 632.484 720.217 632.986 720.563 633.614C720.908 634.242 721.057 634.941 721.01 635.71H717.807C717.823 635.192 717.698 634.8 717.431 634.533C717.164 634.25 716.803 634.109 716.347 634.109C715.908 634.109 715.539 634.242 715.241 634.509C714.958 634.76 714.817 635.09 714.817 635.498C714.817 635.891 714.935 636.283 715.17 636.676C715.406 637.052 715.79 637.523 716.324 638.089L720.469 642.186C720.5 642.155 720.523 642.123 720.539 642.092C720.555 642.061 720.571 642.029 720.586 641.998L721.929 639.761H725.367L723.718 642.657C723.404 643.269 723.067 643.85 722.706 644.4L726.685 648.332H722.635ZM715.358 645.883C716.646 645.883 717.784 645.428 718.773 644.517L714.723 640.514C713.2 641.189 712.438 642.147 712.438 643.387C712.438 644.094 712.705 644.69 713.239 645.177C713.773 645.648 714.479 645.883 715.358 645.883Z"></path><path style="fill:var(--color-illustrationSubtle010)" d="M733.081 641.762C733.081 640.443 733.34 639.274 733.858 638.253C734.392 637.233 735.106 636.448 736.001 635.899C736.912 635.349 737.924 635.074 739.039 635.074C740.012 635.074 740.86 635.271 741.582 635.663C742.32 636.056 742.909 636.55 743.348 637.147V635.286H746.669V648.332H743.348V646.425C742.925 647.037 742.336 647.547 741.582 647.956C740.844 648.348 739.989 648.544 739.016 648.544C737.917 648.544 736.912 648.262 736.001 647.696C735.106 647.131 734.392 646.339 733.858 645.318C733.34 644.282 733.081 643.097 733.081 641.762ZM743.348 641.809C743.348 641.009 743.191 640.326 742.878 639.761C742.564 639.18 742.14 638.74 741.606 638.442C741.072 638.128 740.499 637.971 739.887 637.971C739.275 637.971 738.709 638.12 738.191 638.418C737.673 638.717 737.249 639.156 736.92 639.737C736.606 640.302 736.449 640.977 736.449 641.762C736.449 642.547 736.606 643.238 736.92 643.835C737.249 644.415 737.673 644.863 738.191 645.177C738.725 645.491 739.29 645.648 739.887 645.648C740.499 645.648 741.072 645.499 741.606 645.2C742.14 644.886 742.564 644.447 742.878 643.882C743.191 643.301 743.348 642.61 743.348 641.809Z"></path><path style="fill:var(--color-illustrationSubtle010)" d="M753.186 630.906V648.332H749.889V630.906H753.186Z"></path><path style="fill:var(--color-illustrationSubtle010)" d="M768.57 641.527C768.57 641.998 768.539 642.422 768.476 642.798H758.939C759.018 643.74 759.347 644.478 759.928 645.012C760.509 645.546 761.223 645.813 762.071 645.813C763.296 645.813 764.167 645.287 764.685 644.235H768.241C767.864 645.491 767.142 646.527 766.074 647.343C765.007 648.144 763.696 648.544 762.142 648.544C760.886 648.544 759.755 648.27 758.751 647.72C757.762 647.155 756.985 646.362 756.419 645.342C755.87 644.321 755.595 643.144 755.595 641.809C755.595 640.459 755.87 639.274 756.419 638.253C756.969 637.233 757.738 636.448 758.727 635.899C759.716 635.349 760.854 635.074 762.142 635.074C763.382 635.074 764.489 635.341 765.462 635.875C766.451 636.409 767.213 637.17 767.746 638.159C768.296 639.133 768.57 640.255 768.57 641.527ZM765.156 640.585C765.14 639.737 764.834 639.062 764.238 638.56C763.641 638.042 762.911 637.782 762.047 637.782C761.231 637.782 760.54 638.034 759.975 638.536C759.426 639.023 759.088 639.706 758.963 640.585H765.156Z"></path><path style="fill:var(--color-illustrationSubtle010)" d="M774.274 637.312C774.698 636.621 775.247 636.079 775.922 635.687C776.613 635.294 777.398 635.098 778.277 635.098V638.56H777.406C776.37 638.56 775.585 638.803 775.051 639.29C774.533 639.776 774.274 640.624 774.274 641.833V648.332H770.977V635.286H774.274V637.312Z"></path><path style="fill:var(--color-illustrationSubtle010)" d="M784.336 637.994V644.305C784.336 644.745 784.438 645.067 784.642 645.271C784.862 645.459 785.223 645.554 785.725 645.554H787.256V648.332H785.184C782.405 648.332 781.016 646.982 781.016 644.282V637.994H779.461V635.286H781.016V632.06H784.336V635.286H787.256V637.994H784.336Z"></path><path style="fill:var(--color-illustrationSubtle010)" d="M794.62 648.544C793.552 648.544 792.594 648.356 791.747 647.979C790.899 647.587 790.224 647.061 789.721 646.401C789.235 645.742 788.968 645.012 788.921 644.211H792.241C792.304 644.714 792.547 645.13 792.971 645.459C793.411 645.789 793.952 645.954 794.596 645.954C795.224 645.954 795.711 645.828 796.056 645.577C796.417 645.326 796.598 645.004 796.598 644.612C796.598 644.188 796.378 643.874 795.938 643.67C795.514 643.45 794.832 643.214 793.89 642.963C792.916 642.728 792.116 642.484 791.488 642.233C790.875 641.982 790.342 641.597 789.886 641.079C789.447 640.561 789.227 639.863 789.227 638.983C789.227 638.261 789.431 637.602 789.839 637.005C790.263 636.409 790.86 635.938 791.629 635.592C792.414 635.247 793.332 635.074 794.384 635.074C795.938 635.074 797.179 635.467 798.105 636.252C799.031 637.021 799.541 638.065 799.635 639.384H796.48C796.433 638.866 796.213 638.458 795.821 638.159C795.444 637.845 794.934 637.688 794.29 637.688C793.693 637.688 793.23 637.798 792.901 638.018C792.587 638.238 792.43 638.544 792.43 638.936C792.43 639.376 792.649 639.713 793.089 639.949C793.529 640.169 794.211 640.396 795.138 640.632C796.08 640.867 796.857 641.111 797.469 641.362C798.081 641.613 798.607 642.006 799.047 642.539C799.502 643.057 799.738 643.748 799.753 644.612C799.753 645.365 799.541 646.04 799.117 646.637C798.709 647.233 798.113 647.704 797.328 648.05C796.558 648.379 795.656 648.544 794.62 648.544Z"></path><rect style="fill:var(--color-illustrationInterface010)" width="117.744" height="2.94359" transform="translate(908.225 699.057) rotate(-90)"></rect><path style="fill:var(--color-illustrationInterface010)" d="M908.225 699.057V581.313H911.168V699.057H908.225Z"></path></g><path style="fill:var(--color-illustrationInterface030)" opacity="0.3" fill-rule="evenodd" clip-rule="evenodd" d="M1036.11 269.064C1026.43 269.064 1018.58 282.517 1018.58 299.111V493.091C1018.58 509.686 1026.43 523.138 1036.11 523.138H2105.42C2115.11 523.138 2122.95 509.686 2122.95 493.091V299.111C2122.95 282.517 2115.11 269.064 2105.42 269.064H1036.11ZM1401.78 605.945C1401.78 587.988 1416.34 573.432 1434.29 573.432H1708.02C1725.98 573.432 1740.53 587.988 1740.53 605.945V901.247C1740.53 919.204 1725.98 933.761 1708.02 933.761H1434.29C1416.34 933.761 1401.78 919.204 1401.78 901.247V605.945ZM1019.36 605.945C1019.36 587.989 1033.92 573.432 1051.87 573.432H1325.6C1343.56 573.432 1358.11 587.989 1358.11 605.945V901.247C1358.11 919.204 1343.56 933.761 1325.6 933.761H1051.87C1033.92 933.761 1019.36 919.204 1019.36 901.247V605.945ZM1816.72 573.432C1798.76 573.432 1784.2 587.988 1784.2 605.945V901.247C1784.2 919.204 1798.76 933.761 1816.72 933.761H2090.44C2108.4 933.761 2122.96 919.204 2122.96 901.247V605.945C2122.96 587.988 2108.4 573.432 2090.44 573.432H1816.72ZM1019.36 1013.81C1019.36 995.851 1033.92 981.295 1051.87 981.295H1325.6C1343.55 981.295 1358.11 995.851 1358.11 1013.81V1102.43H1019.36V1013.81ZM1434.29 981.295C1416.34 981.295 1401.78 995.851 1401.78 1013.81V1102.43H1740.53V1013.81C1740.53 995.851 1725.98 981.295 1708.02 981.295H1434.29ZM1784.2 1013.81C1784.2 995.851 1798.76 981.295 1816.72 981.295H2090.44C2108.4 981.295 2122.96 995.851 2122.96 1013.81V1102.43H1784.2V1013.81Z"></path></g></g><defs><clipPath id="nk-263"><rect style="fill:var(--color-white)" width="1490" height="838" transform="translate(0 0.0644531)"></rect></clipPath><clipPath id="nk-264"><rect style="fill:var(--color-white)" x="494" y="92.0645" width="1728" height="1060.53" rx="28.3279"></rect></clipPath><clipPath id="nk-265"><rect style="fill:var(--color-white)" width="417.39" height="958.21" transform="translate(494 192.758)"></rect></clipPath></defs></svg>