<svg id="nksvg" style="width: 100%; height: 100%" width="1490" height="838" viewBox="0 0 1490 838" fill="none" xmlns="http://www.w3.org/2000/svg" class="css-0">
  <g clip-path="url(#nk-172)">
    <rect style="fill: var(--color-illustrationBackground020)" width="1490" height="838"></rect>
    <g clip-path="url(#nk-173)">
      <path style="fill: var(--color-illustrationInterface020)" d="M499 122.558C499 105.686 512.678 92.0078 529.55 92.0078H2196.45C2213.32 92.0078 2227 105.686 2227 122.558V1121.17C2227 1138.04 2213.32 1151.72 2196.45 1151.72H529.55C512.678 1151.72 499 1138.04 499 1121.17V122.558Z"></path>
      <path style="fill: var(--color-illustrationInterface010)" d="M1488.71 141.582C1488.71 137.671 1491.88 134.5 1495.79 134.5H1603.79C1607.7 134.5 1610.87 137.671 1610.87 141.582C1610.87 145.493 1607.7 148.664 1603.79 148.664H1495.79C1491.88 148.664 1488.71 145.493 1488.71 141.582Z"></path>
      <path style="fill: var(--color-illustrationHighlight010)" d="M499 106.172C499 98.3493 505.341 92.0078 513.164 92.0078H2212.84C2220.66 92.0078 2227 98.3492 2227 106.172V192.926H499V106.172Z"></path>
      <path style="fill: var(--color-illustrationInterface030)" fill-rule="evenodd" clip-rule="evenodd" d="M954.365 278.008C945.327 278.008 938 290.566 938 306.058V487.147C938 502.639 945.327 515.197 954.365 515.197H1952.62C1961.66 515.197 1968.98 502.639 1968.98 487.147V306.058C1968.98 290.566 1961.66 278.008 1952.62 278.008H954.365ZM938.728 592.502C938.728 575.738 952.318 562.149 969.081 562.149H1224.62C1241.38 562.149 1254.97 575.738 1254.97 592.502V868.18C1254.97 884.943 1241.38 898.533 1224.62 898.533H969.081C952.318 898.533 938.728 884.943 938.728 868.18V592.502ZM1295.74 592.502C1295.74 575.738 1309.32 562.149 1326.09 562.149H1581.62C1598.39 562.149 1611.98 575.738 1611.98 592.502V868.18C1611.98 884.943 1598.39 898.533 1581.62 898.533H1326.09C1309.32 898.533 1295.74 884.943 1295.74 868.18V592.502ZM1683.1 562.149C1666.33 562.149 1652.74 575.738 1652.74 592.502V868.18C1652.74 884.943 1666.33 898.533 1683.1 898.533H1938.63C1955.4 898.533 1968.99 884.943 1968.99 868.18V592.502C1968.99 575.738 1955.4 562.149 1938.63 562.149H1683.1ZM938.727 973.261C938.727 956.497 952.316 942.908 969.08 942.908H1224.62C1241.38 942.908 1254.97 956.497 1254.97 973.261V1055.99H938.727V973.261ZM1326.09 942.908C1309.32 942.908 1295.74 956.497 1295.74 973.261V1055.99H1611.98V973.261C1611.98 956.497 1598.39 942.908 1581.62 942.908H1326.09ZM1652.74 973.261C1652.74 956.497 1666.33 942.908 1683.1 942.908H1938.63C1955.4 942.908 1968.99 956.497 1968.99 973.261V1055.99H1652.74V973.261Z"></path>
      <g clip-path="url(#nk-174)">
        <path style="fill: var(--color-illustrationInterface010)" d="M499 193.008H888V912.008H499V193.008Z"></path>
        <path style="fill: var(--color-illustrationHighlight010)" d="M552.715 236.789C554.973 236.789 556.954 237.231 558.659 238.114C560.383 238.997 561.708 240.259 562.632 241.902C563.576 243.524 564.048 245.413 564.048 247.569C564.048 249.725 563.576 251.614 562.632 253.236C561.708 254.837 560.383 256.079 558.659 256.962C556.954 257.845 554.973 258.287 552.715 258.287H545.2V236.789H552.715ZM552.561 254.622C554.819 254.622 556.564 254.006 557.796 252.774C559.028 251.542 559.644 249.807 559.644 247.569C559.644 245.331 559.028 243.585 557.796 242.333C556.564 241.06 554.819 240.423 552.561 240.423H549.511V254.622H552.561Z"></path>
        <path style="fill: var(--color-illustrationHighlight010)" d="M583.137 249.386C583.137 250.002 583.096 250.556 583.014 251.049H570.541C570.643 252.281 571.074 253.246 571.834 253.944C572.594 254.642 573.528 254.991 574.637 254.991C576.238 254.991 577.378 254.303 578.055 252.928H582.706C582.213 254.57 581.269 255.925 579.872 256.993C578.476 258.04 576.762 258.564 574.729 258.564C573.087 258.564 571.608 258.204 570.294 257.486C569.001 256.747 567.984 255.71 567.245 254.375C566.526 253.041 566.167 251.501 566.167 249.755C566.167 247.99 566.526 246.439 567.245 245.105C567.964 243.77 568.97 242.744 570.263 242.025C571.557 241.306 573.045 240.947 574.729 240.947C576.351 240.947 577.799 241.296 579.072 241.994C580.365 242.692 581.361 243.688 582.059 244.982C582.778 246.255 583.137 247.723 583.137 249.386ZM578.671 248.154C578.651 247.045 578.25 246.162 577.47 245.505C576.69 244.828 575.735 244.489 574.606 244.489C573.538 244.489 572.635 244.817 571.896 245.474C571.177 246.111 570.736 247.004 570.571 248.154H578.671Z"></path>
        <path style="fill: var(--color-illustrationHighlight010)" d="M585.176 249.755C585.176 247.99 585.535 246.45 586.253 245.136C586.972 243.801 587.968 242.774 589.241 242.056C590.514 241.317 591.972 240.947 593.614 240.947C595.729 240.947 597.474 241.481 598.85 242.549C600.246 243.596 601.18 245.074 601.653 246.984H597.002C596.756 246.244 596.335 245.669 595.739 245.259C595.164 244.828 594.446 244.612 593.583 244.612C592.352 244.612 591.376 245.064 590.658 245.967C589.939 246.85 589.58 248.113 589.58 249.755C589.58 251.377 589.939 252.64 590.658 253.544C591.376 254.426 592.352 254.868 593.583 254.868C595.329 254.868 596.468 254.088 597.002 252.527H601.653C601.18 254.375 600.246 255.843 598.85 256.931C597.454 258.02 595.709 258.564 593.614 258.564C591.972 258.564 590.514 258.204 589.241 257.486C587.968 256.747 586.972 255.72 586.253 254.406C585.535 253.071 585.176 251.521 585.176 249.755Z"></path>
        <path style="fill: var(--color-illustrationHighlight010)" d="M612.388 258.564C610.745 258.564 609.267 258.204 607.953 257.486C606.639 256.747 605.602 255.71 604.842 254.375C604.103 253.041 603.733 251.501 603.733 249.755C603.733 248.01 604.113 246.47 604.873 245.136C605.653 243.801 606.711 242.774 608.045 242.056C609.38 241.317 610.868 240.947 612.511 240.947C614.154 240.947 615.642 241.317 616.977 242.056C618.311 242.774 619.359 243.801 620.118 245.136C620.898 246.47 621.289 248.01 621.289 249.755C621.289 251.501 620.888 253.041 620.087 254.375C619.307 255.71 618.24 256.747 616.884 257.486C615.55 258.204 614.051 258.564 612.388 258.564ZM612.388 254.806C613.168 254.806 613.897 254.622 614.575 254.252C615.273 253.862 615.827 253.287 616.238 252.527C616.648 251.768 616.854 250.844 616.854 249.755C616.854 248.133 616.422 246.891 615.56 246.029C614.718 245.146 613.681 244.704 612.449 244.704C611.217 244.704 610.181 245.146 609.339 246.029C608.518 246.891 608.107 248.133 608.107 249.755C608.107 251.377 608.507 252.63 609.308 253.513C610.129 254.375 611.156 254.806 612.388 254.806Z"></path>
        <path style="fill: var(--color-illustrationHighlight010)" d="M628.763 243.873C629.318 242.969 630.036 242.261 630.919 241.748C631.823 241.235 632.849 240.978 633.999 240.978V245.505H632.859C631.504 245.505 630.478 245.823 629.78 246.46C629.102 247.096 628.763 248.205 628.763 249.786V258.287H624.451V241.224H628.763V243.873Z"></path>
        <path style="fill: var(--color-illustrationHighlight010)" d="M635.794 249.694C635.794 247.969 636.133 246.439 636.811 245.105C637.509 243.77 638.443 242.744 639.613 242.025C640.804 241.306 642.129 240.947 643.586 240.947C644.859 240.947 645.968 241.204 646.913 241.717C647.878 242.23 648.648 242.877 649.222 243.657V241.224H653.565V258.287H649.222V255.792C648.668 256.593 647.898 257.26 646.913 257.794C645.948 258.307 644.829 258.564 643.556 258.564C642.118 258.564 640.804 258.194 639.613 257.455C638.443 256.716 637.509 255.679 636.811 254.344C636.133 252.989 635.794 251.439 635.794 249.694ZM649.222 249.755C649.222 248.708 649.017 247.815 648.607 247.076C648.196 246.316 647.641 245.741 646.943 245.351C646.245 244.941 645.496 244.735 644.695 244.735C643.894 244.735 643.155 244.93 642.478 245.32C641.8 245.711 641.246 246.285 640.815 247.045C640.404 247.784 640.199 248.667 640.199 249.694C640.199 250.72 640.404 251.624 640.815 252.404C641.246 253.164 641.8 253.749 642.478 254.16C643.176 254.57 643.915 254.776 644.695 254.776C645.496 254.776 646.245 254.58 646.943 254.19C647.641 253.78 648.196 253.205 648.607 252.466C649.017 251.706 649.222 250.803 649.222 249.755Z"></path>
        <path style="fill: var(--color-illustrationHighlight010)" d="M662.796 244.766V253.02C662.796 253.595 662.93 254.016 663.197 254.283C663.484 254.529 663.956 254.652 664.613 254.652H666.615V258.287H663.905C660.271 258.287 658.454 256.521 658.454 252.989V244.766H656.421V241.224H658.454V237.005H662.796V241.224H666.615V244.766H662.796Z"></path>
        <path style="fill: var(--color-illustrationHighlight010)" d="M671.903 239.192C671.144 239.192 670.507 238.955 669.994 238.483C669.501 237.99 669.255 237.385 669.255 236.666C669.255 235.947 669.501 235.352 669.994 234.88C670.507 234.387 671.144 234.141 671.903 234.141C672.663 234.141 673.289 234.387 673.782 234.88C674.295 235.352 674.552 235.947 674.552 236.666C674.552 237.385 674.295 237.99 673.782 238.483C673.289 238.955 672.663 239.192 671.903 239.192ZM674.028 241.224V258.287H669.717V241.224H674.028Z"></path>
        <path style="fill: var(--color-illustrationHighlight010)" d="M685.865 258.564C684.222 258.564 682.744 258.204 681.43 257.486C680.116 256.747 679.079 255.71 678.319 254.375C677.58 253.041 677.211 251.501 677.211 249.755C677.211 248.01 677.59 246.47 678.35 245.136C679.13 243.801 680.188 242.774 681.522 242.056C682.857 241.317 684.345 240.947 685.988 240.947C687.631 240.947 689.119 241.317 690.454 242.056C691.788 242.774 692.836 243.801 693.595 245.136C694.375 246.47 694.766 248.01 694.766 249.755C694.766 251.501 694.365 253.041 693.564 254.375C692.784 255.71 691.717 256.747 690.361 257.486C689.027 258.204 687.528 258.564 685.865 258.564ZM685.865 254.806C686.645 254.806 687.374 254.622 688.052 254.252C688.75 253.862 689.304 253.287 689.715 252.527C690.125 251.768 690.331 250.844 690.331 249.755C690.331 248.133 689.899 246.891 689.037 246.029C688.195 245.146 687.158 244.704 685.926 244.704C684.695 244.704 683.658 245.146 682.816 246.029C681.995 246.891 681.584 248.133 681.584 249.755C681.584 251.377 681.984 252.63 682.785 253.513C683.606 254.375 684.633 254.806 685.865 254.806Z"></path>
        <path style="fill: var(--color-illustrationHighlight010)" d="M707.384 240.978C709.416 240.978 711.059 241.625 712.311 242.918C713.564 244.191 714.19 245.977 714.19 248.277V258.287H709.878V248.862C709.878 247.507 709.539 246.47 708.862 245.752C708.184 245.012 707.26 244.643 706.09 244.643C704.899 244.643 703.955 245.012 703.257 245.752C702.579 246.47 702.24 247.507 702.24 248.862V258.287H697.928V241.224H702.24V243.349C702.815 242.61 703.544 242.035 704.427 241.625C705.33 241.193 706.316 240.978 707.384 240.978Z"></path>
        <path style="fill: var(--color-illustrationHighlight010)" d="M880.15 300.803V193.008H887.85V300.803H880.15Z"></path>
        <path style="fill: var(--color-illustrationSubtle010)" d="M558.474 345.088V348.568H549.511V354.081H556.38V357.5H549.511V366.585H545.2V345.088H558.474Z"></path>
        <path style="fill: var(--color-illustrationSubtle010)" d="M577.639 349.523V366.585H573.296V364.43C572.742 365.169 572.013 365.754 571.11 366.185C570.227 366.596 569.262 366.801 568.215 366.801C566.88 366.801 565.699 366.524 564.673 365.969C563.646 365.395 562.835 364.563 562.24 363.475C561.665 362.366 561.377 361.052 561.377 359.533V349.523H565.689V358.917C565.689 360.272 566.028 361.319 566.705 362.058C567.383 362.777 568.307 363.136 569.477 363.136C570.668 363.136 571.602 362.777 572.28 362.058C572.957 361.319 573.296 360.272 573.296 358.917V349.523H577.639Z"></path>
        <path style="fill: var(--color-illustrationSubtle010)" d="M586.205 352.172C586.759 351.268 587.478 350.56 588.361 350.047C589.264 349.533 590.291 349.277 591.441 349.277V353.804H590.301C588.946 353.804 587.919 354.122 587.221 354.759C586.544 355.395 586.205 356.504 586.205 358.085V366.585H581.893V349.523H586.205V352.172Z"></path>
        <path style="fill: var(--color-illustrationSubtle010)" d="M603.8 349.277C605.833 349.277 607.475 349.923 608.728 351.217C609.98 352.49 610.606 354.276 610.606 356.576V366.585H606.295V357.161C606.295 355.806 605.956 354.769 605.278 354.05C604.601 353.311 603.677 352.942 602.506 352.942C601.315 352.942 600.371 353.311 599.673 354.05C598.995 354.769 598.657 355.806 598.657 357.161V366.585H594.345V349.523H598.657V351.648C599.231 350.909 599.96 350.334 600.843 349.923C601.747 349.492 602.732 349.277 603.8 349.277Z"></path>
        <path style="fill: var(--color-illustrationSubtle010)" d="M616.893 347.49C616.134 347.49 615.497 347.254 614.984 346.782C614.491 346.289 614.245 345.684 614.245 344.965C614.245 344.246 614.491 343.651 614.984 343.179C615.497 342.686 616.134 342.439 616.893 342.439C617.653 342.439 618.279 342.686 618.772 343.179C619.285 343.651 619.542 344.246 619.542 344.965C619.542 345.684 619.285 346.289 618.772 346.782C618.279 347.254 617.653 347.49 616.893 347.49ZM619.018 349.523V366.585H614.707V349.523H619.018Z"></path>
        <path style="fill: var(--color-illustrationSubtle010)" d="M628.299 353.065V361.319C628.299 361.894 628.432 362.315 628.699 362.582C628.986 362.828 629.459 362.951 630.116 362.951H632.118V366.585H629.407C625.773 366.585 623.956 364.82 623.956 361.288V353.065H621.923V349.523H623.956V345.304H628.299V349.523H632.118V353.065H628.299Z"></path>
        <path style="fill: var(--color-illustrationSubtle010)" d="M651.326 349.523V366.585H646.984V364.43C646.429 365.169 645.701 365.754 644.797 366.185C643.914 366.596 642.949 366.801 641.902 366.801C640.567 366.801 639.387 366.524 638.36 365.969C637.334 365.395 636.523 364.563 635.927 363.475C635.352 362.366 635.065 361.052 635.065 359.533V349.523H639.377V358.917C639.377 360.272 639.715 361.319 640.393 362.058C641.071 362.777 641.994 363.136 643.165 363.136C644.356 363.136 645.29 362.777 645.967 362.058C646.645 361.319 646.984 360.272 646.984 358.917V349.523H651.326Z"></path>
        <path style="fill: var(--color-illustrationSubtle010)" d="M659.892 352.172C660.447 351.268 661.165 350.56 662.048 350.047C662.952 349.533 663.978 349.277 665.128 349.277V353.804H663.989C662.633 353.804 661.607 354.122 660.909 354.759C660.231 355.395 659.892 356.504 659.892 358.085V366.585H655.581V349.523H659.892V352.172Z"></path>
        <path style="fill: var(--color-illustrationSubtle010)" d="M683.894 357.685C683.894 358.301 683.852 358.855 683.77 359.348H671.297C671.4 360.58 671.831 361.545 672.591 362.243C673.35 362.941 674.284 363.29 675.393 363.29C676.995 363.29 678.134 362.602 678.812 361.226H683.462C682.97 362.869 682.025 364.224 680.629 365.292C679.233 366.339 677.518 366.863 675.486 366.863C673.843 366.863 672.365 366.503 671.051 365.785C669.757 365.045 668.741 364.009 668.002 362.674C667.283 361.339 666.924 359.799 666.924 358.054C666.924 356.288 667.283 354.738 668.002 353.404C668.72 352.069 669.726 351.042 671.02 350.324C672.313 349.605 673.802 349.246 675.486 349.246C677.108 349.246 678.555 349.595 679.828 350.293C681.122 350.991 682.117 351.987 682.816 353.28C683.534 354.553 683.894 356.022 683.894 357.685ZM679.428 356.453C679.407 355.344 679.007 354.461 678.227 353.804C677.446 353.126 676.492 352.788 675.362 352.788C674.295 352.788 673.391 353.116 672.652 353.773C671.933 354.41 671.492 355.303 671.328 356.453H679.428Z"></path>
        <path style="fill: var(--color-illustrationSubtle010)" d="M563.032 452.881V474.378H558.72V465.231H549.511V474.378H545.2V452.881H549.511V461.72H558.72V452.881H563.032Z"></path>
        <path style="fill: var(--color-illustrationSubtle010)" d="M574.852 474.656C573.21 474.656 571.731 474.296 570.417 473.578C569.103 472.838 568.066 471.802 567.307 470.467C566.568 469.132 566.198 467.592 566.198 465.847C566.198 464.102 566.578 462.562 567.337 461.227C568.118 459.893 569.175 458.866 570.51 458.148C571.844 457.408 573.333 457.039 574.975 457.039C576.618 457.039 578.107 457.408 579.441 458.148C580.776 458.866 581.823 459.893 582.583 461.227C583.363 462.562 583.753 464.102 583.753 465.847C583.753 467.592 583.353 469.132 582.552 470.467C581.772 471.802 580.704 472.838 579.349 473.578C578.014 474.296 576.515 474.656 574.852 474.656ZM574.852 470.898C575.633 470.898 576.361 470.713 577.039 470.344C577.737 469.954 578.291 469.379 578.702 468.619C579.113 467.859 579.318 466.935 579.318 465.847C579.318 464.225 578.887 462.983 578.025 462.121C577.183 461.238 576.146 460.796 574.914 460.796C573.682 460.796 572.645 461.238 571.803 462.121C570.982 462.983 570.571 464.225 570.571 465.847C570.571 467.469 570.972 468.722 571.772 469.605C572.594 470.467 573.62 470.898 574.852 470.898Z"></path>
        <path style="fill: var(--color-illustrationSubtle010)" d="M608.105 457.07C610.199 457.07 611.883 457.716 613.156 459.01C614.45 460.283 615.096 462.069 615.096 464.369V474.378H610.785V464.954C610.785 463.619 610.446 462.603 609.768 461.905C609.091 461.186 608.167 460.827 606.996 460.827C605.826 460.827 604.892 461.186 604.194 461.905C603.516 462.603 603.177 463.619 603.177 464.954V474.378H598.866V464.954C598.866 463.619 598.527 462.603 597.849 461.905C597.172 461.186 596.248 460.827 595.077 460.827C593.887 460.827 592.942 461.186 592.244 461.905C591.566 462.603 591.228 463.619 591.228 464.954V474.378H586.916V457.316H591.228V459.38C591.782 458.661 592.49 458.096 593.353 457.686C594.236 457.275 595.201 457.07 596.248 457.07C597.582 457.07 598.773 457.357 599.82 457.932C600.868 458.486 601.679 459.287 602.253 460.334C602.808 459.349 603.609 458.558 604.656 457.963C605.723 457.367 606.873 457.07 608.105 457.07Z"></path>
        <path style="fill: var(--color-illustrationSubtle010)" d="M635.049 465.478C635.049 466.094 635.008 466.648 634.926 467.141H622.453C622.555 468.373 622.986 469.338 623.746 470.036C624.506 470.734 625.44 471.083 626.549 471.083C628.15 471.083 629.29 470.395 629.967 469.019H634.618C634.125 470.662 633.181 472.017 631.785 473.085C630.388 474.132 628.674 474.656 626.641 474.656C624.999 474.656 623.52 474.296 622.206 473.578C620.913 472.838 619.896 471.802 619.157 470.467C618.439 469.132 618.079 467.592 618.079 465.847C618.079 464.081 618.439 462.531 619.157 461.197C619.876 459.862 620.882 458.835 622.175 458.117C623.469 457.398 624.958 457.039 626.641 457.039C628.263 457.039 629.711 457.388 630.984 458.086C632.277 458.784 633.273 459.78 633.971 461.073C634.69 462.346 635.049 463.815 635.049 465.478ZM630.583 464.246C630.563 463.137 630.163 462.254 629.382 461.597C628.602 460.919 627.647 460.581 626.518 460.581C625.45 460.581 624.547 460.909 623.808 461.566C623.089 462.203 622.648 463.096 622.483 464.246H630.583Z"></path>
        <path style="fill: var(--color-illustrationSubtle010)" d="M661.396 465.478C661.396 466.094 661.355 466.648 661.273 467.141H648.8C648.902 468.373 649.334 469.338 650.093 470.036C650.853 470.734 651.787 471.083 652.896 471.083C654.497 471.083 655.637 470.395 656.315 469.019H660.965C660.472 470.662 659.528 472.017 658.132 473.085C656.735 474.132 655.021 474.656 652.988 474.656C651.346 474.656 649.867 474.296 648.553 473.578C647.26 472.838 646.243 471.802 645.504 470.467C644.786 469.132 644.426 467.592 644.426 465.847C644.426 464.081 644.786 462.531 645.504 461.197C646.223 459.862 647.229 458.835 648.523 458.117C649.816 457.398 651.305 457.039 652.988 457.039C654.61 457.039 656.058 457.388 657.331 458.086C658.624 458.784 659.62 459.78 660.318 461.073C661.037 462.346 661.396 463.815 661.396 465.478ZM656.93 464.246C656.91 463.137 656.51 462.254 655.729 461.597C654.949 460.919 653.994 460.581 652.865 460.581C651.797 460.581 650.894 460.909 650.155 461.566C649.436 462.203 648.995 463.096 648.831 464.246H656.93Z"></path>
        <path style="fill: var(--color-illustrationSubtle010)" d="M668.855 451.588V474.378H664.543V451.588H668.855Z"></path>
        <path style="fill: var(--color-illustrationSubtle010)" d="M688.976 465.478C688.976 466.094 688.935 466.648 688.853 467.141H676.38C676.483 468.373 676.914 469.338 677.673 470.036C678.433 470.734 679.367 471.083 680.476 471.083C682.078 471.083 683.217 470.395 683.895 469.019H688.545C688.052 470.662 687.108 472.017 685.712 473.085C684.316 474.132 682.601 474.656 680.568 474.656C678.926 474.656 677.448 474.296 676.134 473.578C674.84 472.838 673.824 471.802 673.084 470.467C672.366 469.132 672.007 467.592 672.007 465.847C672.007 464.081 672.366 462.531 673.084 461.197C673.803 459.862 674.809 458.835 676.103 458.117C677.396 457.398 678.885 457.039 680.568 457.039C682.191 457.039 683.638 457.388 684.911 458.086C686.205 458.784 687.2 459.78 687.899 461.073C688.617 462.346 688.976 463.815 688.976 465.478ZM684.511 464.246C684.49 463.137 684.09 462.254 683.31 461.597C682.529 460.919 681.575 460.581 680.445 460.581C679.378 460.581 678.474 460.909 677.735 461.566C677.016 462.203 676.575 463.096 676.411 464.246H684.511Z"></path>
        <path style="fill: var(--color-illustrationSubtle010)" d="M691.015 465.847C691.015 464.081 691.374 462.542 692.093 461.227C692.811 459.893 693.807 458.866 695.08 458.148C696.353 457.408 697.811 457.039 699.454 457.039C701.568 457.039 703.314 457.573 704.689 458.64C706.086 459.688 707.02 461.166 707.492 463.075H702.841C702.595 462.336 702.174 461.761 701.579 461.351C701.004 460.919 700.285 460.704 699.423 460.704C698.191 460.704 697.216 461.156 696.497 462.059C695.778 462.942 695.419 464.205 695.419 465.847C695.419 467.469 695.778 468.732 696.497 469.635C697.216 470.518 698.191 470.96 699.423 470.96C701.168 470.96 702.308 470.18 702.841 468.619H707.492C707.02 470.467 706.086 471.935 704.689 473.023C703.293 474.111 701.548 474.656 699.454 474.656C697.811 474.656 696.353 474.296 695.08 473.578C693.807 472.838 692.811 471.812 692.093 470.498C691.374 469.163 691.015 467.613 691.015 465.847Z"></path>
        <path style="fill: var(--color-illustrationSubtle010)" d="M715.671 460.858V469.112C715.671 469.687 715.804 470.108 716.071 470.375C716.359 470.621 716.831 470.744 717.488 470.744H719.49V474.378H716.78C713.145 474.378 711.328 472.613 711.328 469.081V460.858H709.296V457.316H711.328V453.097H715.671V457.316H719.49V460.858H715.671Z"></path>
        <path style="fill: var(--color-illustrationSubtle010)" d="M726.903 459.965C727.457 459.061 728.176 458.353 729.059 457.84C729.962 457.326 730.989 457.07 732.139 457.07V461.597H730.999C729.644 461.597 728.617 461.915 727.919 462.552C727.242 463.188 726.903 464.297 726.903 465.878V474.378H722.591V457.316H726.903V459.965Z"></path>
        <path style="fill: var(--color-illustrationSubtle010)" d="M742.619 474.656C740.977 474.656 739.498 474.296 738.184 473.578C736.87 472.838 735.833 471.802 735.074 470.467C734.335 469.132 733.965 467.592 733.965 465.847C733.965 464.102 734.345 462.562 735.105 461.227C735.885 459.893 736.942 458.866 738.277 458.148C739.611 457.408 741.1 457.039 742.743 457.039C744.385 457.039 745.874 457.408 747.208 458.148C748.543 458.866 749.59 459.893 750.35 461.227C751.13 462.562 751.52 464.102 751.52 465.847C751.52 467.592 751.12 469.132 750.319 470.467C749.539 471.802 748.471 472.838 747.116 473.578C745.781 474.296 744.282 474.656 742.619 474.656ZM742.619 470.898C743.4 470.898 744.128 470.713 744.806 470.344C745.504 469.954 746.058 469.379 746.469 468.619C746.88 467.859 747.085 466.935 747.085 465.847C747.085 464.225 746.654 462.983 745.792 462.121C744.95 461.238 743.913 460.796 742.681 460.796C741.449 460.796 740.412 461.238 739.57 462.121C738.749 462.983 738.338 464.225 738.338 465.847C738.338 467.469 738.739 468.722 739.539 469.605C740.361 470.467 741.387 470.898 742.619 470.898Z"></path>
        <path style="fill: var(--color-illustrationSubtle010)" d="M764.138 457.07C766.171 457.07 767.813 457.716 769.066 459.01C770.318 460.283 770.944 462.069 770.944 464.369V474.378H766.633V464.954C766.633 463.599 766.294 462.562 765.616 461.843C764.939 461.104 764.015 460.735 762.844 460.735C761.654 460.735 760.709 461.104 760.011 461.843C759.333 462.562 758.995 463.599 758.995 464.954V474.378H754.683V457.316H758.995V459.441C759.57 458.702 760.298 458.127 761.181 457.716C762.085 457.285 763.07 457.07 764.138 457.07Z"></path>
        <path style="fill: var(--color-illustrationSubtle010)" d="M777.231 455.283C776.472 455.283 775.835 455.047 775.322 454.575C774.829 454.082 774.583 453.477 774.583 452.758C774.583 452.039 774.829 451.444 775.322 450.972C775.835 450.479 776.472 450.232 777.231 450.232C777.991 450.232 778.617 450.479 779.11 450.972C779.623 451.444 779.88 452.039 779.88 452.758C779.88 453.477 779.623 454.082 779.11 454.575C778.617 455.047 777.991 455.283 777.231 455.283ZM779.356 457.316V474.378H775.045V457.316H779.356Z"></path>
        <path style="fill: var(--color-illustrationSubtle010)" d="M785.526 474.594C784.746 474.594 784.099 474.358 783.586 473.886C783.093 473.393 782.847 472.787 782.847 472.068C782.847 471.35 783.093 470.754 783.586 470.282C784.099 469.789 784.746 469.543 785.526 469.543C786.286 469.543 786.912 469.789 787.405 470.282C787.898 470.754 788.144 471.35 788.144 472.068C788.144 472.787 787.898 473.393 787.405 473.886C786.912 474.358 786.286 474.594 785.526 474.594Z"></path>
        <path style="fill: var(--color-illustrationSubtle010)" d="M793.526 474.594C792.746 474.594 792.099 474.358 791.586 473.886C791.093 473.393 790.847 472.787 790.847 472.068C790.847 471.35 791.093 470.754 791.586 470.282C792.099 469.789 792.746 469.543 793.526 469.543C794.286 469.543 794.912 469.789 795.405 470.282C795.898 470.754 796.144 471.35 796.144 472.068C796.144 472.787 795.898 473.393 795.405 473.886C794.912 474.358 794.286 474.594 793.526 474.594Z"></path>
        <path style="fill: var(--color-illustrationSubtle010)" d="M801.527 474.594C800.747 474.594 800.1 474.358 799.586 473.886C799.094 473.393 798.847 472.787 798.847 472.068C798.847 471.35 799.094 470.754 799.586 470.282C800.1 469.789 800.747 469.543 801.527 469.543C802.286 469.543 802.913 469.789 803.405 470.282C803.898 470.754 804.145 471.35 804.145 472.068C804.145 472.787 803.898 473.393 803.405 473.886C802.913 474.358 802.286 474.594 801.527 474.594Z"></path>
        <path style="fill: var(--color-illustrationSubtle010)" d="M557.334 582.173L549.511 572.595V582.173H545.2V560.676H549.511V570.316L557.334 560.676H562.539L553.669 571.332L562.786 582.173H557.334Z"></path>
        <path style="fill: var(--color-illustrationSubtle010)" d="M567.808 563.078C567.049 563.078 566.412 562.842 565.899 562.37C565.406 561.877 565.16 561.271 565.16 560.553C565.16 559.834 565.406 559.239 565.899 558.767C566.412 558.274 567.049 558.027 567.808 558.027C568.568 558.027 569.194 558.274 569.687 558.767C570.2 559.239 570.457 559.834 570.457 560.553C570.457 561.271 570.2 561.877 569.687 562.37C569.194 562.842 568.568 563.078 567.808 563.078ZM569.933 565.111V582.173H565.622V565.111H569.933Z"></path>
        <path style="fill: var(--color-illustrationSubtle010)" d="M579.214 568.653V576.907C579.214 577.482 579.347 577.903 579.614 578.169C579.901 578.416 580.374 578.539 581.031 578.539H583.033V582.173H580.322C576.688 582.173 574.871 580.408 574.871 576.876V568.653H572.838V565.111H574.871V560.892H579.214V565.111H583.033V568.653H579.214Z"></path>
        <path style="fill: var(--color-illustrationSubtle010)" d="M585.025 573.642C585.025 571.876 585.384 570.336 586.103 569.022C586.822 567.688 587.818 566.661 589.091 565.943C590.364 565.203 591.821 564.834 593.464 564.834C595.579 564.834 597.324 565.368 598.7 566.435C600.096 567.482 601.03 568.961 601.502 570.87H596.852C596.605 570.131 596.184 569.556 595.589 569.146C595.014 568.714 594.295 568.499 593.433 568.499C592.201 568.499 591.226 568.951 590.507 569.854C589.789 570.737 589.429 572 589.429 573.642C589.429 575.264 589.789 576.527 590.507 577.43C591.226 578.313 592.201 578.755 593.433 578.755C595.178 578.755 596.318 577.974 596.852 576.414H601.502C601.03 578.262 600.096 579.73 598.7 580.818C597.303 581.906 595.558 582.45 593.464 582.45C591.821 582.45 590.364 582.091 589.091 581.373C587.818 580.633 586.822 579.607 586.103 578.293C585.384 576.958 585.025 575.408 585.025 573.642Z"></path>
        <path style="fill: var(--color-illustrationSubtle010)" d="M614.27 564.865C615.564 564.865 616.713 565.152 617.72 565.727C618.726 566.281 619.506 567.113 620.06 568.222C620.635 569.31 620.923 570.624 620.923 572.164V582.173H616.611V572.749C616.611 571.394 616.272 570.357 615.594 569.638C614.917 568.899 613.993 568.53 612.823 568.53C611.632 568.53 610.687 568.899 609.989 569.638C609.312 570.357 608.973 571.394 608.973 572.749V582.173H604.661V559.382H608.973V567.236C609.527 566.497 610.266 565.922 611.19 565.511C612.114 565.08 613.141 564.865 614.27 564.865Z"></path>
        <path style="fill: var(--color-illustrationSubtle010)" d="M640.884 573.273C640.884 573.889 640.843 574.443 640.761 574.936H628.288C628.39 576.168 628.821 577.133 629.581 577.831C630.341 578.529 631.275 578.878 632.384 578.878C633.985 578.878 635.125 578.19 635.802 576.814H640.453C639.96 578.457 639.016 579.812 637.619 580.88C636.223 581.927 634.509 582.45 632.476 582.45C630.834 582.45 629.355 582.091 628.041 581.373C626.748 580.633 625.731 579.596 624.992 578.262C624.273 576.927 623.914 575.387 623.914 573.642C623.914 571.876 624.273 570.326 624.992 568.992C625.711 567.657 626.717 566.63 628.01 565.912C629.304 565.193 630.792 564.834 632.476 564.834C634.098 564.834 635.546 565.183 636.819 565.881C638.112 566.579 639.108 567.575 639.806 568.868C640.525 570.141 640.884 571.609 640.884 573.273ZM636.418 572.041C636.398 570.932 635.997 570.049 635.217 569.392C634.437 568.714 633.482 568.376 632.353 568.376C631.285 568.376 630.382 568.704 629.643 569.361C628.924 569.998 628.483 570.891 628.318 572.041H636.418Z"></path>
        <path style="fill: var(--color-illustrationSubtle010)" d="M653.486 564.865C655.519 564.865 657.162 565.511 658.414 566.805C659.667 568.078 660.293 569.864 660.293 572.164V582.173H655.981V572.749C655.981 571.394 655.642 570.357 654.965 569.638C654.287 568.899 653.363 568.53 652.193 568.53C651.002 568.53 650.057 568.899 649.359 569.638C648.682 570.357 648.343 571.394 648.343 572.749V582.173H644.031V565.111H648.343V567.236C648.918 566.497 649.647 565.922 650.53 565.511C651.433 565.08 652.419 564.865 653.486 564.865Z"></path>
        <path style="fill: var(--color-illustrationSubtle010)" d="M556.287 685.797L551.544 677.42H549.511V685.797H545.2V664.3H553.269C554.932 664.3 556.349 664.598 557.519 665.193C558.689 665.768 559.562 666.558 560.137 667.564C560.732 668.55 561.03 669.659 561.03 670.891C561.03 672.307 560.619 673.591 559.798 674.74C558.977 675.87 557.755 676.65 556.133 677.081L561.276 685.797H556.287ZM549.511 674.186H553.115C554.285 674.186 555.158 673.909 555.733 673.355C556.308 672.78 556.595 671.989 556.595 670.983C556.595 669.998 556.308 669.238 555.733 668.704C555.158 668.15 554.285 667.872 553.115 667.872H549.511V674.186Z"></path>
        <path style="fill: var(--color-illustrationSubtle010)" d="M581.037 668.735V685.797H576.695V683.641C576.141 684.38 575.412 684.966 574.508 685.397C573.625 685.807 572.66 686.013 571.613 686.013C570.279 686.013 569.098 685.736 568.071 685.181C567.045 684.606 566.234 683.775 565.638 682.686C565.063 681.578 564.776 680.264 564.776 678.744V668.735H569.088V678.128C569.088 679.483 569.426 680.531 570.104 681.27C570.782 681.988 571.706 682.348 572.876 682.348C574.067 682.348 575.001 681.988 575.679 681.27C576.356 680.531 576.695 679.483 576.695 678.128V668.735H581.037Z"></path>
        <path style="fill: var(--color-illustrationSubtle010)" d="M591.975 668.458C593.248 668.458 594.367 668.714 595.332 669.228C596.297 669.72 597.057 670.367 597.611 671.168V668.735H601.954V685.92C601.954 687.501 601.635 688.908 600.999 690.14C600.362 691.392 599.408 692.378 598.135 693.096C596.862 693.835 595.322 694.205 593.515 694.205C591.092 694.205 589.1 693.64 587.54 692.511C586 691.382 585.127 689.842 584.922 687.891H589.203C589.429 688.672 589.912 689.288 590.651 689.739C591.41 690.212 592.324 690.448 593.392 690.448C594.644 690.448 595.661 690.068 596.441 689.308C597.221 688.569 597.611 687.44 597.611 685.92V683.272C597.057 684.072 596.287 684.74 595.301 685.274C594.336 685.807 593.227 686.074 591.975 686.074C590.538 686.074 589.224 685.705 588.033 684.966C586.842 684.226 585.897 683.19 585.199 681.855C584.522 680.5 584.183 678.95 584.183 677.204C584.183 675.48 584.522 673.95 585.199 672.615C585.897 671.281 586.832 670.254 588.002 669.536C589.193 668.817 590.517 668.458 591.975 668.458ZM597.611 677.266C597.611 676.219 597.406 675.326 596.995 674.586C596.584 673.827 596.03 673.252 595.332 672.862C594.634 672.451 593.885 672.246 593.084 672.246C592.283 672.246 591.544 672.441 590.866 672.831C590.189 673.221 589.634 673.796 589.203 674.556C588.793 675.295 588.587 676.178 588.587 677.204C588.587 678.231 588.793 679.134 589.203 679.915C589.634 680.674 590.189 681.259 590.866 681.67C591.564 682.081 592.304 682.286 593.084 682.286C593.885 682.286 594.634 682.091 595.332 681.701C596.03 681.29 596.584 680.715 596.995 679.976C597.406 679.217 597.611 678.313 597.611 677.266Z"></path>
        <path style="fill: var(--color-illustrationSubtle010)" d="M612.694 686.074C611.298 686.074 610.045 685.828 608.937 685.335C607.828 684.822 606.945 684.134 606.288 683.272C605.652 682.409 605.303 681.455 605.241 680.407H609.584C609.666 681.064 609.984 681.609 610.538 682.04C611.113 682.471 611.822 682.686 612.663 682.686C613.485 682.686 614.121 682.522 614.573 682.194C615.045 681.865 615.281 681.444 615.281 680.931C615.281 680.377 614.994 679.966 614.419 679.699C613.864 679.412 612.971 679.104 611.739 678.775C610.466 678.467 609.419 678.149 608.598 677.82C607.797 677.492 607.099 676.989 606.504 676.311C605.929 675.634 605.641 674.72 605.641 673.57C605.641 672.626 605.908 671.763 606.442 670.983C606.996 670.203 607.777 669.587 608.783 669.135C609.809 668.683 611.01 668.458 612.386 668.458C614.419 668.458 616.041 668.971 617.252 669.998C618.464 671.004 619.131 672.369 619.254 674.094H615.127C615.066 673.416 614.778 672.882 614.265 672.492C613.772 672.082 613.105 671.876 612.263 671.876C611.483 671.876 610.877 672.02 610.446 672.307C610.035 672.595 609.83 672.995 609.83 673.509C609.83 674.083 610.117 674.525 610.692 674.833C611.267 675.12 612.16 675.418 613.372 675.726C614.604 676.034 615.62 676.352 616.421 676.681C617.222 677.009 617.909 677.523 618.484 678.221C619.08 678.898 619.388 679.802 619.408 680.931C619.408 681.917 619.131 682.799 618.577 683.58C618.043 684.36 617.263 684.976 616.236 685.428C615.23 685.859 614.049 686.074 612.694 686.074Z"></path>
        <path style="fill: var(--color-illustrationSubtle010)" d="M627.66 681.27L624.056 689.924H621.284L623.286 681.27H627.66Z"></path>
        <path style="fill: var(--color-illustrationSubtle010)" d="M659.295 668.488C661.39 668.488 663.073 669.135 664.346 670.429C665.64 671.702 666.287 673.488 666.287 675.788V685.797H661.975V676.373C661.975 675.038 661.636 674.022 660.959 673.324C660.281 672.605 659.357 672.246 658.187 672.246C657.016 672.246 656.082 672.605 655.384 673.324C654.707 674.022 654.368 675.038 654.368 676.373V685.797H650.056V676.373C650.056 675.038 649.717 674.022 649.04 673.324C648.362 672.605 647.438 672.246 646.268 672.246C645.077 672.246 644.132 672.605 643.434 673.324C642.757 674.022 642.418 675.038 642.418 676.373V685.797H638.106V668.735H642.418V670.798C642.972 670.08 643.681 669.515 644.543 669.104C645.426 668.694 646.391 668.488 647.438 668.488C648.773 668.488 649.964 668.776 651.011 669.351C652.058 669.905 652.869 670.706 653.444 671.753C653.998 670.767 654.799 669.977 655.846 669.382C656.914 668.786 658.064 668.488 659.295 668.488Z"></path>
        <path style="fill: var(--color-illustrationSubtle010)" d="M669.27 677.204C669.27 675.48 669.608 673.95 670.286 672.615C670.984 671.281 671.918 670.254 673.089 669.536C674.279 668.817 675.604 668.458 677.062 668.458C678.335 668.458 679.443 668.714 680.388 669.228C681.353 669.741 682.123 670.388 682.698 671.168V668.735H687.04V685.797H682.698V683.302C682.143 684.103 681.373 684.771 680.388 685.304C679.423 685.818 678.304 686.074 677.031 686.074C675.594 686.074 674.279 685.705 673.089 684.966C671.918 684.226 670.984 683.19 670.286 681.855C669.608 680.5 669.27 678.95 669.27 677.204ZM682.698 677.266C682.698 676.219 682.492 675.326 682.082 674.586C681.671 673.827 681.117 673.252 680.419 672.862C679.721 672.451 678.971 672.246 678.17 672.246C677.37 672.246 676.63 672.441 675.953 672.831C675.275 673.221 674.721 673.796 674.29 674.556C673.879 675.295 673.674 676.178 673.674 677.204C673.674 678.231 673.879 679.134 674.29 679.915C674.721 680.674 675.275 681.259 675.953 681.67C676.651 682.081 677.39 682.286 678.17 682.286C678.971 682.286 679.721 682.091 680.419 681.701C681.117 681.29 681.671 680.715 682.082 679.976C682.492 679.217 682.698 678.313 682.698 677.266Z"></path>
        <path style="fill: var(--color-illustrationSubtle010)" d="M696.272 672.277V680.531C696.272 681.105 696.405 681.526 696.672 681.793C696.959 682.04 697.432 682.163 698.089 682.163H700.091V685.797H697.38C693.746 685.797 691.929 684.031 691.929 680.5V672.277H689.896V668.735H691.929V664.515H696.272V668.735H700.091V672.277H696.272Z"></path>
        <path style="fill: var(--color-illustrationSubtle010)" d="M709.721 686.074C708.325 686.074 707.072 685.828 705.964 685.335C704.855 684.822 703.972 684.134 703.315 683.272C702.679 682.409 702.329 681.455 702.268 680.407H706.61C706.693 681.064 707.011 681.609 707.565 682.04C708.14 682.471 708.848 682.686 709.69 682.686C710.512 682.686 711.148 682.522 711.6 682.194C712.072 681.865 712.308 681.444 712.308 680.931C712.308 680.377 712.021 679.966 711.446 679.699C710.891 679.412 709.998 679.104 708.766 678.775C707.493 678.467 706.446 678.149 705.625 677.82C704.824 677.492 704.126 676.989 703.531 676.311C702.956 675.634 702.668 674.72 702.668 673.57C702.668 672.626 702.935 671.763 703.469 670.983C704.023 670.203 704.804 669.587 705.81 669.135C706.836 668.683 708.037 668.458 709.413 668.458C711.446 668.458 713.068 668.971 714.279 669.998C715.491 671.004 716.158 672.369 716.281 674.094H712.154C712.093 673.416 711.805 672.882 711.292 672.492C710.799 672.082 710.132 671.876 709.29 671.876C708.51 671.876 707.904 672.02 707.473 672.307C707.062 672.595 706.857 672.995 706.857 673.509C706.857 674.083 707.144 674.525 707.719 674.833C708.294 675.12 709.187 675.418 710.399 675.726C711.631 676.034 712.647 676.352 713.448 676.681C714.248 677.009 714.936 677.523 715.511 678.221C716.107 678.898 716.415 679.802 716.435 680.931C716.435 681.917 716.158 682.799 715.604 683.58C715.07 684.36 714.29 684.976 713.263 685.428C712.257 685.859 711.076 686.074 709.721 686.074Z"></path>
        <path style="fill: var(--color-illustrationSubtle010)" d="M743.852 685.797L741.511 683.487C739.52 685.274 737.087 686.167 734.212 686.167C732.631 686.167 731.235 685.9 730.023 685.366C728.833 684.812 727.909 684.042 727.252 683.056C726.595 682.05 726.266 680.89 726.266 679.576C726.266 678.159 726.666 676.886 727.467 675.757C728.268 674.628 729.449 673.714 731.009 673.016C730.455 672.338 730.054 671.691 729.808 671.075C729.562 670.439 729.438 669.761 729.438 669.043C729.438 668.057 729.695 667.174 730.208 666.394C730.722 665.593 731.45 664.967 732.395 664.515C733.36 664.064 734.479 663.838 735.752 663.838C737.046 663.838 738.154 664.084 739.078 664.577C740.002 665.07 740.69 665.727 741.142 666.548C741.593 667.369 741.788 668.283 741.727 669.289H737.538C737.559 668.612 737.395 668.098 737.046 667.749C736.696 667.38 736.224 667.195 735.629 667.195C735.054 667.195 734.571 667.369 734.181 667.718C733.812 668.047 733.627 668.478 733.627 669.012C733.627 669.525 733.781 670.039 734.089 670.552C734.397 671.045 734.9 671.661 735.598 672.4L741.019 677.759C741.06 677.718 741.09 677.677 741.111 677.636C741.131 677.594 741.152 677.553 741.173 677.512L742.928 674.586H747.425L745.269 678.375C744.858 679.175 744.417 679.935 743.944 680.654L749.149 685.797H743.852ZM734.335 682.594C736.019 682.594 737.507 681.999 738.801 680.808L733.504 675.572C731.512 676.455 730.516 677.707 730.516 679.329C730.516 680.253 730.865 681.034 731.563 681.67C732.262 682.286 733.185 682.594 734.335 682.594Z"></path>
        <path style="fill: var(--color-illustrationSubtle010)" d="M766.446 672.277H763.458V685.797H759.085V672.277H757.145V668.735H759.085V667.872C759.085 665.778 759.68 664.238 760.871 663.253C762.062 662.267 763.859 661.805 766.261 661.867V665.501C765.214 665.48 764.485 665.655 764.074 666.025C763.664 666.394 763.458 667.061 763.458 668.026V668.735H766.446V672.277Z"></path>
        <path style="fill: var(--color-illustrationSubtle010)" d="M773.552 663.006V685.797H769.24V663.006H773.552Z"></path>
        <path style="fill: var(--color-illustrationSubtle010)" d="M785.388 686.074C783.746 686.074 782.267 685.715 780.953 684.996C779.639 684.257 778.602 683.22 777.843 681.886C777.103 680.551 776.734 679.011 776.734 677.266C776.734 675.521 777.114 673.981 777.873 672.646C778.654 671.312 779.711 670.285 781.046 669.566C782.38 668.827 783.869 668.458 785.511 668.458C787.154 668.458 788.643 668.827 789.977 669.566C791.312 670.285 792.359 671.312 793.119 672.646C793.899 673.981 794.289 675.521 794.289 677.266C794.289 679.011 793.889 680.551 793.088 681.886C792.308 683.22 791.24 684.257 789.885 684.996C788.55 685.715 787.051 686.074 785.388 686.074ZM785.388 682.317C786.168 682.317 786.897 682.132 787.575 681.763C788.273 681.372 788.827 680.798 789.238 680.038C789.649 679.278 789.854 678.354 789.854 677.266C789.854 675.644 789.423 674.402 788.56 673.539C787.719 672.656 786.682 672.215 785.45 672.215C784.218 672.215 783.181 672.656 782.339 673.539C781.518 674.402 781.107 675.644 781.107 677.266C781.107 678.888 781.508 680.14 782.308 681.023C783.13 681.886 784.156 682.317 785.388 682.317Z"></path>
        <path style="fill: var(--color-illustrationSubtle010)" d="M799.361 686.013C798.581 686.013 797.934 685.777 797.421 685.304C796.928 684.812 796.682 684.206 796.682 683.487C796.682 682.769 796.928 682.173 797.421 681.701C797.934 681.208 798.581 680.962 799.361 680.962C800.121 680.962 800.747 681.208 801.24 681.701C801.733 682.173 801.979 682.769 801.979 683.487C801.979 684.206 801.733 684.812 801.24 685.304C800.747 685.777 800.121 686.013 799.361 686.013Z"></path>
        <path style="fill: var(--color-illustrationSubtle010)" d="M807.362 686.013C806.581 686.013 805.935 685.777 805.421 685.304C804.929 684.812 804.682 684.206 804.682 683.487C804.682 682.769 804.929 682.173 805.421 681.701C805.935 681.208 806.581 680.962 807.362 680.962C808.121 680.962 808.748 681.208 809.24 681.701C809.733 682.173 809.979 682.769 809.979 683.487C809.979 684.206 809.733 684.812 809.24 685.304C808.748 685.777 808.121 686.013 807.362 686.013Z"></path>
        <path style="fill: var(--color-illustrationSubtle010)" d="M815.362 686.013C814.582 686.013 813.935 685.777 813.422 685.304C812.929 684.812 812.683 684.206 812.683 683.487C812.683 682.769 812.929 682.173 813.422 681.701C813.935 681.208 814.582 680.962 815.362 680.962C816.122 680.962 816.748 681.208 817.241 681.701C817.733 682.173 817.98 682.769 817.98 683.487C817.98 684.206 817.733 684.812 817.241 685.304C816.748 685.777 816.122 686.013 815.362 686.013Z"></path>
        <path style="fill: var(--color-illustrationSubtle010)" d="M553.176 792.819C551.678 792.819 550.323 792.563 549.111 792.049C547.92 791.536 546.976 790.797 546.278 789.832C545.58 788.867 545.22 787.727 545.2 786.413H549.819C549.881 787.296 550.189 787.994 550.743 788.508C551.318 789.021 552.099 789.278 553.084 789.278C554.09 789.278 554.881 789.041 555.456 788.569C556.03 788.076 556.318 787.44 556.318 786.66C556.318 786.023 556.123 785.5 555.733 785.089C555.343 784.678 554.85 784.36 554.254 784.134C553.68 783.888 552.879 783.621 551.852 783.333C550.456 782.923 549.316 782.522 548.434 782.132C547.571 781.722 546.822 781.116 546.185 780.315C545.569 779.494 545.261 778.406 545.261 777.051C545.261 775.778 545.58 774.669 546.216 773.724C546.853 772.78 547.746 772.061 548.896 771.568C550.045 771.055 551.359 770.799 552.838 770.799C555.055 770.799 556.852 771.343 558.227 772.431C559.624 773.499 560.394 774.997 560.537 776.927H555.794C555.753 776.188 555.435 775.583 554.84 775.11C554.265 774.618 553.495 774.371 552.53 774.371C551.688 774.371 551.01 774.587 550.497 775.018C550.004 775.449 549.758 776.075 549.758 776.897C549.758 777.472 549.943 777.954 550.312 778.344C550.702 778.714 551.175 779.022 551.729 779.268C552.304 779.494 553.105 779.761 554.131 780.069C555.527 780.479 556.667 780.89 557.55 781.301C558.433 781.711 559.192 782.327 559.829 783.149C560.465 783.97 560.784 785.048 560.784 786.383C560.784 787.532 560.486 788.6 559.891 789.586C559.295 790.571 558.422 791.362 557.273 791.957C556.123 792.532 554.757 792.819 553.176 792.819Z"></path>
        <path style="fill: var(--color-illustrationSubtle010)" d="M569.542 779.083V787.337C569.542 787.912 569.675 788.333 569.942 788.6C570.23 788.846 570.702 788.97 571.359 788.97H573.361V792.604H570.651C567.017 792.604 565.199 790.838 565.199 787.306V779.083H563.167V775.541H565.199V771.322H569.542V775.541H573.361V779.083H569.542Z"></path>
        <path style="fill: var(--color-illustrationSubtle010)" d="M584.039 792.881C582.396 792.881 580.918 792.522 579.604 791.803C578.29 791.064 577.253 790.027 576.493 788.692C575.754 787.358 575.384 785.818 575.384 784.073C575.384 782.327 575.764 780.787 576.524 779.453C577.304 778.118 578.361 777.092 579.696 776.373C581.031 775.634 582.519 775.264 584.162 775.264C585.804 775.264 587.293 775.634 588.628 776.373C589.962 777.092 591.009 778.118 591.769 779.453C592.549 780.787 592.939 782.327 592.939 784.073C592.939 785.818 592.539 787.358 591.738 788.692C590.958 790.027 589.89 791.064 588.535 791.803C587.201 792.522 585.702 792.881 584.039 792.881ZM584.039 789.124C584.819 789.124 585.548 788.939 586.225 788.569C586.923 788.179 587.478 787.604 587.888 786.844C588.299 786.085 588.504 785.161 588.504 784.073C588.504 782.451 588.073 781.208 587.211 780.346C586.369 779.463 585.332 779.022 584.1 779.022C582.868 779.022 581.831 779.463 580.99 780.346C580.168 781.208 579.758 782.451 579.758 784.073C579.758 785.695 580.158 786.947 580.959 787.83C581.78 788.692 582.807 789.124 584.039 789.124Z"></path>
        <path style="fill: var(--color-illustrationSubtle010)" d="M600.414 778.19C600.968 777.287 601.687 776.578 602.57 776.065C603.473 775.552 604.5 775.295 605.65 775.295V779.822H604.51C603.155 779.822 602.128 780.141 601.43 780.777C600.753 781.414 600.414 782.522 600.414 784.103V792.604H596.102V775.541H600.414V778.19Z"></path>
        <path style="fill: var(--color-illustrationSubtle010)" d="M607.445 784.011C607.445 782.286 607.784 780.757 608.462 779.422C609.16 778.087 610.094 777.061 611.264 776.342C612.455 775.624 613.779 775.264 615.237 775.264C616.51 775.264 617.619 775.521 618.563 776.034C619.528 776.548 620.298 777.194 620.873 777.975V775.541H625.216V792.604H620.873V790.109C620.319 790.91 619.549 791.577 618.563 792.111C617.598 792.624 616.479 792.881 615.206 792.881C613.769 792.881 612.455 792.511 611.264 791.772C610.094 791.033 609.16 789.996 608.462 788.662C607.784 787.306 607.445 785.756 607.445 784.011ZM620.873 784.073C620.873 783.025 620.668 782.132 620.257 781.393C619.847 780.633 619.292 780.059 618.594 779.668C617.896 779.258 617.147 779.052 616.346 779.052C615.545 779.052 614.806 779.248 614.128 779.638C613.451 780.028 612.896 780.603 612.465 781.362C612.055 782.102 611.849 782.984 611.849 784.011C611.849 785.038 612.055 785.941 612.465 786.721C612.896 787.481 613.451 788.066 614.128 788.477C614.827 788.887 615.566 789.093 616.346 789.093C617.147 789.093 617.896 788.898 618.594 788.508C619.292 788.097 619.847 787.522 620.257 786.783C620.668 786.023 620.873 785.12 620.873 784.073Z"></path>
        <path style="fill: var(--color-illustrationSubtle010)" d="M636.11 775.264C637.383 775.264 638.502 775.521 639.467 776.034C640.432 776.527 641.192 777.174 641.746 777.975V775.541H646.089V792.727C646.089 794.308 645.771 795.714 645.134 796.946C644.498 798.199 643.543 799.184 642.27 799.903C640.997 800.642 639.457 801.012 637.65 801.012C635.227 801.012 633.236 800.447 631.675 799.318C630.135 798.189 629.263 796.649 629.057 794.698H633.338C633.564 795.478 634.047 796.094 634.786 796.546C635.546 797.018 636.459 797.254 637.527 797.254C638.779 797.254 639.796 796.874 640.576 796.115C641.356 795.376 641.746 794.246 641.746 792.727V790.078C641.192 790.879 640.422 791.546 639.437 792.08C638.472 792.614 637.363 792.881 636.11 792.881C634.673 792.881 633.359 792.511 632.168 791.772C630.977 791.033 630.033 789.996 629.335 788.662C628.657 787.306 628.318 785.756 628.318 784.011C628.318 782.286 628.657 780.757 629.335 779.422C630.033 778.087 630.967 777.061 632.137 776.342C633.328 775.624 634.653 775.264 636.11 775.264ZM641.746 784.073C641.746 783.025 641.541 782.132 641.13 781.393C640.72 780.633 640.165 780.059 639.467 779.668C638.769 779.258 638.02 779.052 637.219 779.052C636.418 779.052 635.679 779.248 635.002 779.638C634.324 780.028 633.77 780.603 633.338 781.362C632.928 782.102 632.722 782.984 632.722 784.011C632.722 785.038 632.928 785.941 633.338 786.721C633.77 787.481 634.324 788.066 635.002 788.477C635.7 788.887 636.439 789.093 637.219 789.093C638.02 789.093 638.769 788.898 639.467 788.508C640.165 788.097 640.72 787.522 641.13 786.783C641.541 786.023 641.746 785.12 641.746 784.073Z"></path>
        <path style="fill: var(--color-illustrationSubtle010)" d="M666.161 783.703C666.161 784.319 666.12 784.873 666.038 785.366H653.565C653.667 786.598 654.099 787.563 654.858 788.261C655.618 788.959 656.552 789.308 657.661 789.308C659.263 789.308 660.402 788.621 661.08 787.245H665.73C665.237 788.887 664.293 790.243 662.897 791.31C661.501 792.357 659.786 792.881 657.753 792.881C656.111 792.881 654.632 792.522 653.318 791.803C652.025 791.064 651.009 790.027 650.269 788.692C649.551 787.358 649.191 785.818 649.191 784.073C649.191 782.307 649.551 780.757 650.269 779.422C650.988 778.087 651.994 777.061 653.288 776.342C654.581 775.624 656.07 775.264 657.753 775.264C659.375 775.264 660.823 775.613 662.096 776.311C663.389 777.01 664.385 778.005 665.083 779.299C665.802 780.572 666.161 782.04 666.161 783.703ZM661.696 782.471C661.675 781.362 661.275 780.479 660.494 779.822C659.714 779.145 658.759 778.806 657.63 778.806C656.563 778.806 655.659 779.135 654.92 779.792C654.201 780.428 653.76 781.321 653.596 782.471H661.696Z"></path>
        <path style="fill: var(--color-illustrationSubtle010)" d="M693.186 792.604L690.845 790.294C688.854 792.08 686.421 792.973 683.546 792.973C681.965 792.973 680.569 792.706 679.357 792.173C678.167 791.618 677.243 790.848 676.586 789.863C675.929 788.857 675.6 787.697 675.6 786.383C675.6 784.966 676 783.693 676.801 782.564C677.602 781.434 678.783 780.521 680.343 779.822C679.789 779.145 679.388 778.498 679.142 777.882C678.896 777.246 678.772 776.568 678.772 775.849C678.772 774.864 679.029 773.981 679.542 773.201C680.056 772.4 680.784 771.774 681.729 771.322C682.694 770.87 683.813 770.645 685.086 770.645C686.38 770.645 687.488 770.891 688.412 771.384C689.336 771.876 690.024 772.534 690.476 773.355C690.927 774.176 691.122 775.09 691.061 776.096H686.872C686.893 775.418 686.729 774.905 686.38 774.556C686.03 774.186 685.558 774.002 684.963 774.002C684.388 774.002 683.905 774.176 683.515 774.525C683.146 774.854 682.961 775.285 682.961 775.819C682.961 776.332 683.115 776.845 683.423 777.359C683.731 777.851 684.234 778.467 684.932 779.206L690.353 784.565C690.394 784.524 690.424 784.483 690.445 784.442C690.465 784.401 690.486 784.36 690.507 784.319L692.262 781.393H696.759L694.603 785.181C694.192 785.982 693.751 786.742 693.278 787.46L698.483 792.604H693.186ZM683.669 789.401C685.353 789.401 686.842 788.805 688.135 787.614L682.838 782.379C680.846 783.262 679.85 784.514 679.85 786.136C679.85 787.06 680.199 787.84 680.897 788.477C681.596 789.093 682.519 789.401 683.669 789.401Z"></path>
        <path style="fill: var(--color-illustrationSubtle010)" d="M715.533 792.881C713.891 792.881 712.412 792.522 711.098 791.803C709.784 791.064 708.747 790.027 707.988 788.692C707.249 787.358 706.879 785.818 706.879 784.073C706.879 782.327 707.259 780.787 708.019 779.453C708.799 778.118 709.856 777.092 711.191 776.373C712.525 775.634 714.014 775.264 715.657 775.264C717.299 775.264 718.788 775.634 720.122 776.373C721.457 777.092 722.504 778.118 723.264 779.453C724.044 780.787 724.434 782.327 724.434 784.073C724.434 785.818 724.034 787.358 723.233 788.692C722.453 790.027 721.385 791.064 720.03 791.803C718.695 792.522 717.196 792.881 715.533 792.881ZM715.533 789.124C716.314 789.124 717.042 788.939 717.72 788.569C718.418 788.179 718.972 787.604 719.383 786.844C719.794 786.085 719.999 785.161 719.999 784.073C719.999 782.451 719.568 781.208 718.706 780.346C717.864 779.463 716.827 779.022 715.595 779.022C714.363 779.022 713.326 779.463 712.484 780.346C711.663 781.208 711.252 782.451 711.252 784.073C711.252 785.695 711.653 786.947 712.453 787.83C713.275 788.692 714.301 789.124 715.533 789.124Z"></path>
        <path style="fill: var(--color-illustrationSubtle010)" d="M731.909 778.19C732.463 777.287 733.182 776.578 734.065 776.065C734.968 775.552 735.995 775.295 737.144 775.295V779.822H736.005C734.65 779.822 733.623 780.141 732.925 780.777C732.247 781.414 731.909 782.522 731.909 784.103V792.604H727.597V775.541H731.909V778.19Z"></path>
        <path style="fill: var(--color-illustrationSubtle010)" d="M746.732 775.264C748.005 775.264 749.124 775.521 750.089 776.034C751.054 776.527 751.814 777.174 752.368 777.975V775.541H756.711V792.727C756.711 794.308 756.392 795.714 755.756 796.946C755.119 798.199 754.165 799.184 752.892 799.903C751.619 800.642 750.079 801.012 748.272 801.012C745.849 801.012 743.857 800.447 742.297 799.318C740.757 798.189 739.884 796.649 739.679 794.698H743.96C744.186 795.478 744.668 796.094 745.408 796.546C746.167 797.018 747.081 797.254 748.149 797.254C749.401 797.254 750.417 796.874 751.198 796.115C751.978 795.376 752.368 794.246 752.368 792.727V790.078C751.814 790.879 751.044 791.546 750.058 792.08C749.093 792.614 747.984 792.881 746.732 792.881C745.295 792.881 743.981 792.511 742.79 791.772C741.599 791.033 740.654 789.996 739.956 788.662C739.279 787.306 738.94 785.756 738.94 784.011C738.94 782.286 739.279 780.757 739.956 779.422C740.654 778.087 741.589 777.061 742.759 776.342C743.95 775.624 745.274 775.264 746.732 775.264ZM752.368 784.073C752.368 783.025 752.163 782.132 751.752 781.393C751.341 780.633 750.787 780.059 750.089 779.668C749.391 779.258 748.641 779.052 747.841 779.052C747.04 779.052 746.301 779.248 745.623 779.638C744.946 780.028 744.391 780.603 743.96 781.362C743.549 782.102 743.344 782.984 743.344 784.011C743.344 785.038 743.549 785.941 743.96 786.721C744.391 787.481 744.946 788.066 745.623 788.477C746.321 788.887 747.06 789.093 747.841 789.093C748.641 789.093 749.391 788.898 750.089 788.508C750.787 788.097 751.341 787.522 751.752 786.783C752.163 786.023 752.368 785.12 752.368 784.073Z"></path>
        <path style="fill: var(--color-illustrationSubtle010)" d="M759.813 784.011C759.813 782.286 760.152 780.757 760.829 779.422C761.527 778.087 762.462 777.061 763.632 776.342C764.823 775.624 766.147 775.264 767.605 775.264C768.878 775.264 769.987 775.521 770.931 776.034C771.896 776.548 772.666 777.194 773.241 777.975V775.541H777.584V792.604H773.241V790.109C772.687 790.91 771.917 791.577 770.931 792.111C769.966 792.624 768.847 792.881 767.574 792.881C766.137 792.881 764.823 792.511 763.632 791.772C762.462 791.033 761.527 789.996 760.829 788.662C760.152 787.306 759.813 785.756 759.813 784.011ZM773.241 784.073C773.241 783.025 773.036 782.132 772.625 781.393C772.214 780.633 771.66 780.059 770.962 779.668C770.264 779.258 769.514 779.052 768.714 779.052C767.913 779.052 767.174 779.248 766.496 779.638C765.819 780.028 765.264 780.603 764.833 781.362C764.422 782.102 764.217 782.984 764.217 784.011C764.217 785.038 764.422 785.941 764.833 786.721C765.264 787.481 765.819 788.066 766.496 788.477C767.194 788.887 767.933 789.093 768.714 789.093C769.514 789.093 770.264 788.898 770.962 788.508C771.66 788.097 772.214 787.522 772.625 786.783C773.036 786.023 773.241 785.12 773.241 784.073Z"></path>
        <path style="fill: var(--color-illustrationSubtle010)" d="M791.25 775.295C793.283 775.295 794.925 775.942 796.178 777.235C797.43 778.508 798.056 780.295 798.056 782.594V792.604H793.745V783.179C793.745 781.824 793.406 780.787 792.728 780.069C792.051 779.33 791.127 778.96 789.956 778.96C788.766 778.96 787.821 779.33 787.123 780.069C786.445 780.787 786.107 781.824 786.107 783.179V792.604H781.795V775.541H786.107V777.667C786.682 776.927 787.41 776.353 788.293 775.942C789.197 775.511 790.182 775.295 791.25 775.295Z"></path>
        <path style="fill: var(--color-illustrationSubtle010)" d="M804.066 792.819C803.286 792.819 802.639 792.583 802.126 792.111C801.633 791.618 801.387 791.013 801.387 790.294C801.387 789.575 801.633 788.98 802.126 788.508C802.639 788.015 803.286 787.768 804.066 787.768C804.826 787.768 805.452 788.015 805.945 788.508C806.438 788.98 806.684 789.575 806.684 790.294C806.684 791.013 806.438 791.618 805.945 792.111C805.452 792.583 804.826 792.819 804.066 792.819Z"></path>
        <path style="fill: var(--color-illustrationSubtle010)" d="M812.067 792.819C811.286 792.819 810.64 792.583 810.126 792.111C809.633 791.618 809.387 791.013 809.387 790.294C809.387 789.575 809.633 788.98 810.126 788.508C810.64 788.015 811.286 787.768 812.067 787.768C812.826 787.768 813.452 788.015 813.945 788.508C814.438 788.98 814.684 789.575 814.684 790.294C814.684 791.013 814.438 791.618 813.945 792.111C813.452 792.583 812.826 792.819 812.067 792.819Z"></path>
        <path style="fill: var(--color-illustrationSubtle010)" d="M820.067 792.819C819.287 792.819 818.64 792.583 818.127 792.111C817.634 791.618 817.387 791.013 817.387 790.294C817.387 789.575 817.634 788.98 818.127 788.508C818.64 788.015 819.287 787.768 820.067 787.768C820.827 787.768 821.453 788.015 821.946 788.508C822.438 788.98 822.685 789.575 822.685 790.294C822.685 791.013 822.438 791.618 821.946 792.111C821.453 792.583 820.827 792.819 820.067 792.819Z"></path>
      </g>
    </g>
  </g>
  <defs>
    <clipPath id="nk-172">
      <rect style="fill: var(--color-white)" width="1490" height="838"></rect>
    </clipPath>
    <clipPath id="nk-173">
      <rect style="fill: var(--color-white)" x="499" y="92.0078" width="1728" height="1060.53" rx="28.3279"></rect>
    </clipPath>
    <clipPath id="nk-174">
      <rect style="fill: var(--color-white)" width="388" height="863" transform="translate(499 193.008)"></rect>
    </clipPath>
  </defs>
</svg>
