<svg id="components-menu-menu-dont-02-illustration" style="width: 100%; height: 100%" width="1490" height="839" viewBox="0 0 1490 839" fill="none" xmlns="http://www.w3.org/2000/svg" class="css-0"><g clip-path="url(#nk-407)"><path style="fill:var(--color-illustrationBackground020)" d="M0 4.00001C0 1.79087 1.79086 0 4 0H1486.72C1488.93 0 1490.72 1.79086 1490.72 4V834.004C1490.72 836.213 1488.93 838.004 1486.72 838.004H4.00002C1.79088 838.004 0 836.213 0 834.004V4.00001Z"></path><g clip-path="url(#nk-408)"><path style="fill:var(--color-illustrationInterface020)" d="M316 208.362C316 182.799 336.699 162.076 362.232 162.076H1127.15C1152.68 162.076 1173.38 182.799 1173.38 208.362V1721.33C1173.38 1746.9 1152.68 1767.62 1127.15 1767.62H362.232C336.699 1767.62 316 1746.9 316 1721.33V208.362Z"></path><path style="fill:var(--color-illustrationHighlight010)" d="M316 183.536C316 171.684 325.608 162.076 337.459 162.076H1152.92C1164.77 162.076 1174.38 171.684 1174.38 183.536V313.662H316V183.536Z"></path><path style="fill:var(--color-illustrationInterface010)" d="M924.912 237.868C924.912 231.943 929.716 227.139 935.642 227.139H1099.27C1105.2 227.139 1110 231.943 1110 237.868C1110 243.794 1105.2 248.598 1099.27 248.598H935.642C929.716 248.598 924.912 243.794 924.912 237.868Z"></path><g clip-path="url(#nk-409)" filter="url(#nk-413)"><path style="fill:var(--color-illustrationInterface010)" d="M316 314.076H1174V498.076H316V314.076Z"></path><g clip-path="url(#clip3)"><g clip-path="url(#nk-411)"><rect style="fill:var(--color-illustrationInterface010)" width="193.661" height="128.437" transform="translate(346.36 339.838)"></rect><mask id="nk-404" mask-type="alpha" maskUnits="userSpaceOnUse" x="346" y="384" width="39" height="40"><path style="fill:var(--color-black)" fill-rule="evenodd" clip-rule="evenodd" d="M372.05 391.213V397.635H378.472V391.213H372.05ZM352.784 397.635H359.206V391.213H352.784V397.635ZM362.417 416.9H368.839V410.478H362.417V416.9ZM359.206 416.9H352.784V410.478H359.206V416.9ZM352.784 407.268H359.206V400.846H352.784V407.268ZM368.839 407.268H362.417V400.846H368.839V407.268ZM368.839 397.635H362.417V391.213H368.839V397.635ZM372.05 407.268H378.472V400.846H372.05V407.268ZM378.472 416.9H372.05V410.478H378.472V416.9Z"></path></mask><g mask="url(#nk-404)"><path style="fill:var(--color-illustrationSubtle010)" d="M346.362 384.791H384.894V423.322H346.362V384.791Z"></path></g><path style="fill:var(--color-illustrationSubtle010)" d="M404.005 395.055C405.889 395.055 407.541 395.424 408.963 396.16C410.401 396.896 411.506 397.95 412.276 399.32C413.064 400.672 413.458 402.248 413.458 404.046C413.458 405.844 413.064 407.42 412.276 408.773C411.506 410.108 410.401 411.144 408.963 411.881C407.541 412.617 405.889 412.985 404.005 412.985H397.737V395.055H404.005ZM403.877 409.928C405.76 409.928 407.216 409.415 408.243 408.387C409.271 407.36 409.785 405.913 409.785 404.046C409.785 402.179 409.271 400.724 408.243 399.679C407.216 398.617 405.76 398.087 403.877 398.087H401.334V409.928H403.877Z"></path><path style="fill:var(--color-illustrationSubtle010)" d="M415.225 405.818C415.225 404.38 415.508 403.104 416.073 401.991C416.655 400.878 417.434 400.022 418.411 399.422C419.404 398.823 420.508 398.523 421.724 398.523C422.786 398.523 423.711 398.737 424.498 399.165C425.303 399.594 425.945 400.133 426.425 400.784V398.754H430.047V412.985H426.425V410.905C425.963 411.572 425.32 412.129 424.498 412.574C423.694 413.002 422.76 413.216 421.699 413.216C420.5 413.216 419.404 412.908 418.411 412.292C417.434 411.675 416.655 410.81 416.073 409.697C415.508 408.567 415.225 407.274 415.225 405.818ZM426.425 405.87C426.425 404.996 426.254 404.252 425.911 403.635C425.569 403.001 425.106 402.522 424.524 402.197C423.942 401.854 423.317 401.683 422.649 401.683C421.981 401.683 421.365 401.845 420.799 402.171C420.234 402.496 419.772 402.976 419.412 403.609C419.07 404.226 418.899 404.962 418.899 405.818C418.899 406.675 419.07 407.428 419.412 408.079C419.772 408.713 420.234 409.201 420.799 409.543C421.382 409.886 421.998 410.057 422.649 410.057C423.317 410.057 423.942 409.894 424.524 409.569C425.106 409.226 425.569 408.747 425.911 408.13C426.254 407.497 426.425 406.743 426.425 405.87Z"></path><path style="fill:var(--color-illustrationSubtle010)" d="M439.005 413.216C437.841 413.216 436.796 413.011 435.871 412.6C434.946 412.172 434.21 411.598 433.662 410.879C433.131 410.16 432.84 409.363 432.789 408.49H436.411C436.479 409.038 436.745 409.492 437.207 409.851C437.686 410.211 438.277 410.391 438.979 410.391C439.664 410.391 440.195 410.254 440.572 409.98C440.966 409.706 441.163 409.355 441.163 408.927C441.163 408.464 440.923 408.122 440.444 407.899C439.981 407.659 439.236 407.403 438.209 407.129C437.147 406.872 436.274 406.606 435.589 406.332C434.921 406.058 434.338 405.639 433.842 405.074C433.362 404.508 433.123 403.746 433.123 402.787C433.123 402 433.345 401.28 433.79 400.63C434.253 399.979 434.904 399.465 435.743 399.088C436.599 398.712 437.601 398.523 438.748 398.523C440.444 398.523 441.796 398.951 442.807 399.808C443.817 400.647 444.374 401.786 444.476 403.224H441.034C440.983 402.659 440.743 402.214 440.315 401.888C439.904 401.546 439.348 401.375 438.645 401.375C437.995 401.375 437.489 401.494 437.13 401.734C436.787 401.974 436.616 402.308 436.616 402.736C436.616 403.215 436.856 403.584 437.335 403.841C437.815 404.08 438.56 404.329 439.57 404.585C440.598 404.842 441.445 405.108 442.113 405.382C442.781 405.656 443.355 406.084 443.834 406.666C444.331 407.231 444.588 407.985 444.605 408.927C444.605 409.749 444.374 410.485 443.911 411.136C443.466 411.787 442.815 412.3 441.959 412.677C441.12 413.037 440.135 413.216 439.005 413.216Z"></path><path style="fill:var(--color-illustrationSubtle010)" d="M455.571 398.549C456.65 398.549 457.609 398.789 458.448 399.268C459.288 399.731 459.938 400.424 460.401 401.349C460.88 402.256 461.12 403.352 461.12 404.637V412.985H457.524V405.125C457.524 403.995 457.241 403.13 456.676 402.53C456.111 401.914 455.34 401.606 454.364 401.606C453.371 401.606 452.583 401.914 452.001 402.53C451.436 403.13 451.153 403.995 451.153 405.125V412.985H447.557V393.977H451.153V400.527C451.616 399.91 452.232 399.431 453.003 399.088C453.773 398.729 454.63 398.549 455.571 398.549Z"></path><path style="fill:var(--color-illustrationSubtle010)" d="M468.136 400.835C468.598 400.15 469.232 399.594 470.037 399.165C470.859 398.737 471.792 398.523 472.837 398.523C474.053 398.523 475.149 398.823 476.125 399.422C477.118 400.022 477.897 400.878 478.462 401.991C479.045 403.087 479.336 404.363 479.336 405.818C479.336 407.274 479.045 408.567 478.462 409.697C477.897 410.81 477.118 411.675 476.125 412.292C475.149 412.908 474.053 413.216 472.837 413.216C471.775 413.216 470.842 413.011 470.037 412.6C469.249 412.172 468.616 411.624 468.136 410.956V412.985H464.54V393.977H468.136V400.835ZM475.662 405.818C475.662 404.962 475.483 404.226 475.123 403.609C474.781 402.976 474.318 402.496 473.736 402.171C473.171 401.845 472.554 401.683 471.886 401.683C471.236 401.683 470.619 401.854 470.037 402.197C469.472 402.522 469.009 403.001 468.65 403.635C468.307 404.269 468.136 405.014 468.136 405.87C468.136 406.726 468.307 407.471 468.65 408.105C469.009 408.738 469.472 409.226 470.037 409.569C470.619 409.894 471.236 410.057 471.886 410.057C472.554 410.057 473.171 409.886 473.736 409.543C474.318 409.201 474.781 408.713 475.123 408.079C475.483 407.445 475.662 406.692 475.662 405.818Z"></path><path style="fill:var(--color-illustrationSubtle010)" d="M488.268 413.216C486.898 413.216 485.665 412.917 484.569 412.317C483.473 411.701 482.608 410.836 481.975 409.723C481.358 408.61 481.05 407.325 481.05 405.87C481.05 404.414 481.367 403.13 482 402.017C482.651 400.904 483.533 400.047 484.646 399.448C485.759 398.831 487.001 398.523 488.371 398.523C489.741 398.523 490.983 398.831 492.096 399.448C493.209 400.047 494.082 400.904 494.716 402.017C495.367 403.13 495.692 404.414 495.692 405.87C495.692 407.325 495.358 408.61 494.69 409.723C494.039 410.836 493.149 411.701 492.019 412.317C490.905 412.917 489.655 413.216 488.268 413.216ZM488.268 410.083C488.919 410.083 489.527 409.928 490.092 409.62C490.674 409.295 491.137 408.815 491.479 408.182C491.822 407.548 491.993 406.777 491.993 405.87C491.993 404.517 491.633 403.481 490.914 402.762C490.212 402.025 489.347 401.657 488.32 401.657C487.292 401.657 486.427 402.025 485.725 402.762C485.04 403.481 484.698 404.517 484.698 405.87C484.698 407.223 485.032 408.267 485.699 409.004C486.384 409.723 487.241 410.083 488.268 410.083Z"></path><path style="fill:var(--color-illustrationSubtle010)" d="M497.405 405.818C497.405 404.38 497.688 403.104 498.253 401.991C498.835 400.878 499.614 400.022 500.59 399.422C501.584 398.823 502.688 398.523 503.904 398.523C504.966 398.523 505.891 398.737 506.678 399.165C507.483 399.594 508.125 400.133 508.605 400.784V398.754H512.227V412.985H508.605V410.905C508.142 411.572 507.5 412.129 506.678 412.574C505.873 413.002 504.94 413.216 503.878 413.216C502.68 413.216 501.584 412.908 500.59 412.292C499.614 411.675 498.835 410.81 498.253 409.697C497.688 408.567 497.405 407.274 497.405 405.818ZM508.605 405.87C508.605 404.996 508.434 404.252 508.091 403.635C507.749 403.001 507.286 402.522 506.704 402.197C506.122 401.854 505.497 401.683 504.829 401.683C504.161 401.683 503.544 401.845 502.979 402.171C502.414 402.496 501.952 402.976 501.592 403.609C501.25 404.226 501.078 404.962 501.078 405.818C501.078 406.675 501.25 407.428 501.592 408.079C501.952 408.713 502.414 409.201 502.979 409.543C503.562 409.886 504.178 410.057 504.829 410.057C505.497 410.057 506.122 409.894 506.704 409.569C507.286 409.226 507.749 408.747 508.091 408.13C508.434 407.497 508.605 406.743 508.605 405.87Z"></path><path style="fill:var(--color-illustrationSubtle010)" d="M519.335 400.964C519.798 400.21 520.397 399.619 521.134 399.191C521.887 398.763 522.743 398.549 523.702 398.549V402.325H522.752C521.622 402.325 520.765 402.59 520.183 403.121C519.618 403.652 519.335 404.577 519.335 405.896V412.985H515.739V398.754H519.335V400.964Z"></path><path style="fill:var(--color-illustrationSubtle010)" d="M525.2 405.818C525.2 404.38 525.482 403.104 526.047 401.991C526.63 400.878 527.417 400.022 528.411 399.422C529.404 398.823 530.508 398.523 531.724 398.523C532.649 398.523 533.531 398.729 534.37 399.14C535.209 399.534 535.877 400.064 536.374 400.732V393.977H540.021V412.985H536.374V410.879C535.929 411.581 535.303 412.146 534.499 412.574C533.694 413.002 532.76 413.216 531.699 413.216C530.5 413.216 529.404 412.908 528.411 412.292C527.417 411.675 526.63 410.81 526.047 409.697C525.482 408.567 525.2 407.274 525.2 405.818ZM536.4 405.87C536.4 404.996 536.228 404.252 535.886 403.635C535.543 403.001 535.081 402.522 534.499 402.197C533.916 401.854 533.291 401.683 532.623 401.683C531.956 401.683 531.339 401.845 530.774 402.171C530.209 402.496 529.746 402.976 529.387 403.609C529.044 404.226 528.873 404.962 528.873 405.818C528.873 406.675 529.044 407.428 529.387 408.079C529.746 408.713 530.209 409.201 530.774 409.543C531.356 409.886 531.973 410.057 532.623 410.057C533.291 410.057 533.916 409.894 534.499 409.569C535.081 409.226 535.543 408.747 535.886 408.13C536.228 407.497 536.4 406.743 536.4 405.87Z"></path></g><rect style="fill:var(--color-illustrationInterface010)" width="193.661" height="3.21093" transform="translate(346.36 468.275)"></rect><path style="fill:var(--color-illustrationInterface010)" d="M346.36 468.275H540.021V471.486H346.36V468.275Z"></path></g><g clip-path="url(#nk-412)"><rect style="fill:var(--color-illustrationInterface010)" width="318.345" height="173.689" transform="translate(597.52 313.662)"></rect><mask id="nk-405" mask-type="alpha" maskUnits="userSpaceOnUse" x="659" y="369" width="63" height="63"><path style="fill:var(--color-black)" fill-rule="evenodd" clip-rule="evenodd" d="M672.247 377.309H708.359C711.195 377.309 713.515 379.603 713.515 382.464V418.551C713.515 421.386 711.195 423.706 708.359 423.706H672.247C669.386 423.706 667.117 421.386 667.117 418.551L667.143 382.464C667.143 379.603 669.386 377.309 672.247 377.309ZM698.049 408.24H708.36V382.464H672.273V408.24H682.583C682.583 412.519 686.063 415.973 690.316 415.973C694.569 415.973 698.049 412.519 698.049 408.24Z"></path></mask><g mask="url(#nk-405)"><path style="fill:var(--color-illustrationHighlight010)" d="M659.385 369.576H721.248V431.439H659.385V369.576Z"></path></g><path style="fill:var(--color-illustrationHighlight010)" d="M747.643 385.72V414.507H741.869V385.72H747.643Z"></path><path style="fill:var(--color-illustrationHighlight010)" d="M766.009 391.329C768.731 391.329 770.931 392.195 772.608 393.928C774.285 395.632 775.123 398.024 775.123 401.104V414.507H769.35V401.887C769.35 400.073 768.896 398.684 767.989 397.722C767.081 396.732 765.844 396.237 764.277 396.237C762.682 396.237 761.417 396.732 760.483 397.722C759.575 398.684 759.122 400.073 759.122 401.887V414.507H753.348V391.659H759.122V394.505C759.891 393.515 760.867 392.745 762.05 392.195C763.259 391.618 764.579 391.329 766.009 391.329Z"></path><path style="fill:var(--color-illustrationHighlight010)" d="M786.388 395C787.13 393.9 788.148 393.007 789.44 392.319C790.76 391.632 792.258 391.288 793.935 391.288C795.887 391.288 797.647 391.769 799.214 392.732C800.809 393.694 802.06 395.069 802.967 396.856C803.902 398.615 804.37 400.664 804.37 403.001C804.37 405.338 803.902 407.414 802.967 409.228C802.06 411.016 800.809 412.404 799.214 413.394C797.647 414.384 795.887 414.879 793.935 414.879C792.231 414.879 790.732 414.549 789.44 413.889C788.175 413.201 787.158 412.322 786.388 411.249V414.507H780.614V383.988H786.388V395ZM798.472 403.001C798.472 401.626 798.183 400.444 797.606 399.454C797.056 398.437 796.314 397.667 795.379 397.145C794.471 396.622 793.482 396.361 792.409 396.361C791.365 396.361 790.375 396.636 789.44 397.186C788.533 397.708 787.79 398.478 787.213 399.495C786.663 400.513 786.388 401.709 786.388 403.083C786.388 404.458 786.663 405.654 787.213 406.671C787.79 407.689 788.533 408.472 789.44 409.022C790.375 409.545 791.365 409.806 792.409 409.806C793.482 409.806 794.471 409.531 795.379 408.981C796.314 408.431 797.056 407.647 797.606 406.63C798.183 405.613 798.472 404.403 798.472 403.001Z"></path><path style="fill:var(--color-illustrationHighlight010)" d="M818.711 414.879C816.511 414.879 814.532 414.397 812.772 413.435C811.012 412.445 809.624 411.057 808.607 409.27C807.617 407.483 807.122 405.42 807.122 403.083C807.122 400.746 807.63 398.684 808.648 396.897C809.693 395.11 811.109 393.735 812.896 392.773C814.683 391.783 816.676 391.288 818.876 391.288C821.075 391.288 823.069 391.783 824.856 392.773C826.643 393.735 828.045 395.11 829.063 396.897C830.107 398.684 830.63 400.746 830.63 403.083C830.63 405.42 830.094 407.483 829.021 409.27C827.977 411.057 826.547 412.445 824.732 413.435C822.945 414.397 820.938 414.879 818.711 414.879ZM818.711 409.847C819.756 409.847 820.732 409.6 821.639 409.105C822.574 408.582 823.316 407.812 823.866 406.795C824.416 405.778 824.691 404.541 824.691 403.083C824.691 400.911 824.114 399.248 822.959 398.093C821.832 396.911 820.443 396.32 818.793 396.32C817.144 396.32 815.755 396.911 814.628 398.093C813.528 399.248 812.978 400.911 812.978 403.083C812.978 405.255 813.514 406.933 814.587 408.115C815.686 409.27 817.061 409.847 818.711 409.847Z"></path><path style="fill:var(--color-illustrationHighlight010)" d="M847.485 414.507L842.784 407.414L838.618 414.507H832.432L839.897 403.042L832.349 391.659H838.866L843.526 398.712L847.733 391.659H853.919L846.413 403.042L854.002 414.507H847.485Z"></path><rect style="fill:var(--color-illustrationInterface010)" width="318.345" height="10.3105" transform="translate(597.52 487.352)"></rect><path style="fill:var(--color-illustrationHighlight010)" d="M597.52 487.352H915.865V497.662H597.52V487.352Z"></path></g><g clip-path="url(#clip6)"><g clip-path="url(#clip7)"><rect style="fill:var(--color-illustrationInterface010)" width="153.434" height="128.437" transform="translate(978.976 339.838)"></rect><mask id="nk-406" mask-type="alpha" maskUnits="userSpaceOnUse" x="978" y="384" width="40" height="40"><path style="fill:var(--color-black)" fill-rule="evenodd" clip-rule="evenodd" d="M982.189 404.057C982.189 395.194 989.382 388.002 998.244 388.002C1007.11 388.002 1014.3 395.194 1014.3 404.057C1014.3 412.919 1007.11 420.111 998.244 420.111C989.382 420.111 982.189 412.919 982.189 404.057ZM999.85 410.478V413.689H996.639V410.478H999.85ZM998.244 416.9C991.164 416.9 985.4 411.137 985.4 404.057C985.4 396.977 991.164 391.213 998.244 391.213C1005.32 391.213 1011.09 396.977 1011.09 404.057C1011.09 411.137 1005.32 416.9 998.244 416.9ZM991.822 400.846C991.822 397.298 994.696 394.424 998.244 394.424C1001.79 394.424 1004.67 397.298 1004.67 400.846C1004.67 402.905 1003.4 404.014 1002.16 405.093C1000.99 406.117 999.85 407.114 999.85 408.873H996.639C996.639 405.949 998.151 404.79 999.481 403.77C1000.52 402.971 1001.46 402.257 1001.46 400.846C1001.46 399.08 1000.01 397.635 998.244 397.635C996.478 397.635 995.033 399.08 995.033 400.846H991.822Z"></path></mask><g mask="url(#nk-406)"><path style="fill:var(--color-illustrationSubtle010)" d="M978.979 384.791H1017.51V423.322H978.979V384.791Z"></path></g><path style="fill:var(--color-illustrationSubtle010)" d="M1037.01 413.478C1035.76 413.478 1034.63 413.264 1033.62 412.836C1032.62 412.408 1031.83 411.791 1031.25 410.986C1030.67 410.181 1030.37 409.231 1030.35 408.135H1034.21C1034.26 408.871 1034.51 409.454 1034.98 409.882C1035.46 410.31 1036.11 410.524 1036.93 410.524C1037.77 410.524 1038.43 410.327 1038.91 409.933C1039.39 409.522 1039.63 408.991 1039.63 408.34C1039.63 407.81 1039.46 407.373 1039.14 407.03C1038.81 406.688 1038.4 406.422 1037.91 406.234C1037.43 406.029 1036.76 405.806 1035.9 405.566C1034.74 405.224 1033.79 404.89 1033.05 404.564C1032.33 404.222 1031.71 403.717 1031.18 403.049C1030.66 402.364 1030.4 401.456 1030.4 400.326C1030.4 399.264 1030.67 398.339 1031.2 397.552C1031.73 396.764 1032.48 396.165 1033.44 395.754C1034.4 395.325 1035.49 395.111 1036.72 395.111C1038.57 395.111 1040.07 395.565 1041.22 396.473C1042.38 397.363 1043.03 398.613 1043.15 400.223H1039.19C1039.16 399.607 1038.89 399.101 1038.39 398.708C1037.91 398.297 1037.27 398.091 1036.47 398.091C1035.77 398.091 1035.2 398.271 1034.77 398.631C1034.36 398.99 1034.16 399.512 1034.16 400.197C1034.16 400.677 1034.31 401.079 1034.62 401.405C1034.94 401.713 1035.34 401.97 1035.8 402.175C1036.28 402.364 1036.95 402.586 1037.8 402.843C1038.97 403.186 1039.92 403.528 1040.65 403.871C1041.39 404.213 1042.02 404.727 1042.56 405.412C1043.09 406.097 1043.35 406.996 1043.35 408.109C1043.35 409.068 1043.1 409.959 1042.61 410.781C1042.11 411.603 1041.38 412.262 1040.42 412.759C1039.46 413.238 1038.33 413.478 1037.01 413.478Z"></path><path style="fill:var(--color-illustrationSubtle010)" d="M1059.9 399.067V413.298H1056.28V411.5C1055.82 412.116 1055.21 412.604 1054.46 412.964C1053.72 413.307 1052.92 413.478 1052.04 413.478C1050.93 413.478 1049.95 413.247 1049.09 412.784C1048.23 412.305 1047.56 411.611 1047.06 410.704C1046.58 409.779 1046.34 408.683 1046.34 407.416V399.067H1049.94V406.902C1049.94 408.032 1050.22 408.906 1050.78 409.522C1051.35 410.121 1052.12 410.421 1053.1 410.421C1054.09 410.421 1054.87 410.121 1055.43 409.522C1056 408.906 1056.28 408.032 1056.28 406.902V399.067H1059.9Z"></path><path style="fill:var(--color-illustrationSubtle010)" d="M1067.05 401.122C1067.51 400.471 1068.14 399.932 1068.95 399.504C1069.77 399.059 1070.7 398.836 1071.75 398.836C1072.96 398.836 1074.06 399.136 1075.04 399.735C1076.03 400.334 1076.81 401.191 1077.37 402.304C1077.96 403.4 1078.25 404.676 1078.25 406.131C1078.25 407.587 1077.96 408.88 1077.37 410.01C1076.81 411.123 1076.03 411.988 1075.04 412.604C1074.06 413.221 1072.96 413.529 1071.75 413.529C1070.7 413.529 1069.78 413.315 1068.97 412.887C1068.19 412.459 1067.54 411.92 1067.05 411.269V420.08H1063.45V399.067H1067.05V401.122ZM1074.57 406.131C1074.57 405.275 1074.39 404.539 1074.04 403.922C1073.69 403.289 1073.23 402.809 1072.65 402.484C1072.08 402.158 1071.47 401.996 1070.8 401.996C1070.15 401.996 1069.53 402.167 1068.95 402.509C1068.38 402.835 1067.92 403.314 1067.56 403.948C1067.22 404.581 1067.05 405.326 1067.05 406.183C1067.05 407.039 1067.22 407.784 1067.56 408.417C1067.92 409.051 1068.38 409.539 1068.95 409.882C1069.53 410.207 1070.15 410.37 1070.8 410.37C1071.47 410.37 1072.08 410.198 1072.65 409.856C1073.23 409.513 1073.69 409.025 1074.04 408.392C1074.39 407.758 1074.57 407.005 1074.57 406.131Z"></path><path style="fill:var(--color-illustrationSubtle010)" d="M1084.46 401.122C1084.92 400.471 1085.55 399.932 1086.36 399.504C1087.18 399.059 1088.11 398.836 1089.16 398.836C1090.37 398.836 1091.47 399.136 1092.45 399.735C1093.44 400.334 1094.22 401.191 1094.78 402.304C1095.37 403.4 1095.66 404.676 1095.66 406.131C1095.66 407.587 1095.37 408.88 1094.78 410.01C1094.22 411.123 1093.44 411.988 1092.45 412.604C1091.47 413.221 1090.37 413.529 1089.16 413.529C1088.11 413.529 1087.19 413.315 1086.38 412.887C1085.6 412.459 1084.95 411.92 1084.46 411.269V420.08H1080.86V399.067H1084.46V401.122ZM1091.98 406.131C1091.98 405.275 1091.8 404.539 1091.44 403.922C1091.1 403.289 1090.64 402.809 1090.06 402.484C1089.49 402.158 1088.88 401.996 1088.21 401.996C1087.56 401.996 1086.94 402.167 1086.36 402.509C1085.79 402.835 1085.33 403.314 1084.97 403.948C1084.63 404.581 1084.46 405.326 1084.46 406.183C1084.46 407.039 1084.63 407.784 1084.97 408.417C1085.33 409.051 1085.79 409.539 1086.36 409.882C1086.94 410.207 1087.56 410.37 1088.21 410.37C1088.88 410.37 1089.49 410.198 1090.06 409.856C1090.64 409.513 1091.1 409.025 1091.44 408.392C1091.8 407.758 1091.98 407.005 1091.98 406.131Z"></path><path style="fill:var(--color-illustrationSubtle010)" d="M1104.59 413.529C1103.22 413.529 1101.99 413.23 1100.89 412.63C1099.79 412.014 1098.93 411.149 1098.3 410.036C1097.68 408.923 1097.37 407.638 1097.37 406.183C1097.37 404.727 1097.69 403.443 1098.32 402.33C1098.97 401.216 1099.85 400.36 1100.97 399.761C1102.08 399.144 1103.32 398.836 1104.69 398.836C1106.06 398.836 1107.3 399.144 1108.42 399.761C1109.53 400.36 1110.4 401.216 1111.04 402.33C1111.69 403.443 1112.01 404.727 1112.01 406.183C1112.01 407.638 1111.68 408.923 1111.01 410.036C1110.36 411.149 1109.47 412.014 1108.34 412.63C1107.23 413.23 1105.98 413.529 1104.59 413.529ZM1104.59 410.395C1105.24 410.395 1105.85 410.241 1106.41 409.933C1107 409.608 1107.46 409.128 1107.8 408.495C1108.14 407.861 1108.31 407.09 1108.31 406.183C1108.31 404.83 1107.95 403.794 1107.24 403.074C1106.53 402.338 1105.67 401.97 1104.64 401.97C1103.61 401.97 1102.75 402.338 1102.05 403.074C1101.36 403.794 1101.02 404.83 1101.02 406.183C1101.02 407.536 1101.35 408.58 1102.02 409.317C1102.71 410.036 1103.56 410.395 1104.59 410.395Z"></path><path style="fill:var(--color-illustrationSubtle010)" d="M1118.25 401.276C1118.71 400.523 1119.31 399.932 1120.05 399.504C1120.8 399.076 1121.66 398.862 1122.61 398.862V402.638H1121.66C1120.53 402.638 1119.68 402.903 1119.1 403.434C1118.53 403.965 1118.25 404.89 1118.25 406.208V413.298H1114.65V399.067H1118.25V401.276Z"></path><path style="fill:var(--color-illustrationSubtle010)" d="M1129.22 402.021V408.906C1129.22 409.385 1129.34 409.736 1129.56 409.959C1129.8 410.164 1130.19 410.267 1130.74 410.267H1132.41V413.298H1130.15C1127.12 413.298 1125.6 411.825 1125.6 408.88V402.021H1123.91V399.067H1125.6V395.548H1129.22V399.067H1132.41V402.021H1129.22Z"></path></g><rect style="fill:var(--color-illustrationInterface010)" width="153.434" height="3.21093" transform="translate(978.976 468.275)"></rect><path style="fill:var(--color-illustrationInterface010)" d="M978.976 468.275H1132.41V471.486H978.976V468.275Z"></path></g></g><path style="fill:var(--color-illustrationInterface030)" d="M380.709 896.614C380.709 905.503 387.915 912.709 396.804 912.709H549.702C558.591 912.709 565.797 905.503 565.797 896.614V773.222C565.797 764.334 558.591 757.128 549.702 757.128H396.804C387.915 757.128 380.709 764.334 380.709 773.222V896.614Z"></path><path style="fill:var(--color-illustrationInterface030)" d="M647.287 896.614C647.287 905.503 654.493 912.709 663.382 912.709H816.28C825.169 912.709 832.375 905.503 832.375 896.614V773.222C832.375 764.334 825.169 757.128 816.28 757.128H663.382C654.493 757.128 647.287 764.334 647.287 773.222V896.614Z"></path><path style="fill:var(--color-illustrationInterface030)" d="M913.865 896.614C913.865 905.503 921.071 912.709 929.96 912.709H1082.86C1091.75 912.709 1098.95 905.503 1098.95 896.614V773.222C1098.95 764.334 1091.75 757.128 1082.86 757.128H929.96C921.071 757.128 913.865 764.334 913.865 773.222V896.614Z"></path><path style="fill:var(--color-illustrationInterface030)" d="M380.709 653.274C380.709 660.261 386.374 665.926 393.361 665.926H1086.3C1093.29 665.926 1098.95 660.261 1098.95 653.274C1098.95 646.286 1093.29 640.621 1086.3 640.621H393.361C386.374 640.621 380.709 646.286 380.709 653.274Z"></path><path style="fill:var(--color-illustrationInterface030)" d="M380.709 596.93C380.709 603.282 385.859 608.432 392.211 608.432H1087.45C1093.8 608.432 1098.95 603.282 1098.95 596.93C1098.95 590.577 1093.8 585.427 1087.45 585.427H392.211C385.859 585.427 380.709 590.577 380.709 596.93Z"></path></g><path style="fill:var(--color-illustrationInterface030)" fill-rule="evenodd" clip-rule="evenodd" d="M358.838 119.098H1130.38C1177.79 119.098 1216.22 157.529 1216.22 204.936V1726.1C1216.22 1773.5 1177.79 1811.94 1130.38 1811.94H358.838C311.431 1811.94 273 1773.5 273 1726.1V204.936C273 157.528 311.431 119.098 358.838 119.098ZM358.838 162.017C335.134 162.017 315.919 181.232 315.919 204.936V1726.1C315.919 1749.8 335.134 1769.02 358.838 1769.02H1130.38C1154.08 1769.02 1173.3 1749.8 1173.3 1726.1V204.936C1173.3 181.232 1154.08 162.017 1130.38 162.017H358.838Z"></path></g><defs><filter id="nk-413" x="300" y="305.662" width="890.379" height="216" filterUnits="userSpaceOnUse" color-interpolation-filters="sRGB"><feFlood flood-opacity="0" result="BackgroundImageFix"></feFlood><feColorMatrix in="SourceAlpha" type="matrix" values="0 0 0 0 0 0 0 0 0 0 0 0 0 0 0 0 0 0 127 0" result="hardAlpha"></feColorMatrix><feOffset dy="8"></feOffset><feGaussianBlur stdDeviation="8"></feGaussianBlur><feColorMatrix type="matrix" values="0 0 0 0 0.0392157 0 0 0 0 0.0392157 0 0 0 0 0.0392157 0 0 0 0.08 0"></feColorMatrix><feBlend mode="normal" in2="BackgroundImageFix" result="effect1_dropShadow"></feBlend><feBlend mode="normal" in="SourceGraphic" in2="effect1_dropShadow" result="shape"></feBlend></filter><clipPath id="nk-407"><rect style="fill:var(--color-white)" width="1490" height="838.004" transform="translate(0 0.0761719)"></rect></clipPath><clipPath id="nk-408"><rect style="fill:var(--color-white)" x="316" y="162.076" width="857.379" height="1606.78" rx="42.9189"></rect></clipPath><clipPath id="nk-409"><rect style="fill:var(--color-white)" width="858.379" height="184" transform="translate(316 313.662)"></rect></clipPath><clipPath id="nk-410"><rect style="fill:var(--color-white)" width="258" height="184" transform="translate(316 313.662)"></rect></clipPath><clipPath id="nk-411"><rect style="fill:var(--color-white)" width="193.661" height="128.437" transform="translate(346.36 339.838)"></rect></clipPath><clipPath id="nk-412"><rect style="fill:var(--color-white)" width="386" height="184" transform="translate(574 313.662)"></rect></clipPath><clipPath id="clip6"><rect style="fill:var(--color-white)" width="215" height="184" transform="translate(960 313.662)"></rect></clipPath><clipPath id="clip7"><rect style="fill:var(--color-white)" width="153.434" height="128.437" transform="translate(978.976 339.838)"></rect></clipPath></defs></svg>