<svg
  id="nksvg"
  style="width: 100%; height: 100%"
  width="1490"
  height="838"
  viewBox="0 0 1490 838"
  fill="none"
  xmlns="http://www.w3.org/2000/svg"
  class="css-0"
>
  <g clip-path="url(#nk-229)">
    <rect
      style="fill: var(--color-illustrationBackground020)"
      width="1490"
      height="838"
    ></rect>
    <g filter="url(#nk-230)">
      <path
        style="fill: var(--color-illustrationInterface010)"
        d="M491 185.661C491 181.428 494.582 177.996 499 177.996H992C996.418 177.996 1000 181.428 1000 185.661V673.331C1000 677.564 996.418 680.996 992 680.996H499C494.582 680.996 491 677.564 491 673.331V185.661Z"
      ></path>
    </g>
    <path
      style="fill: var(--color-illustrationSubtle010)"
      d="M526.818 231.398C526.818 229.328 527.266 227.488 528.161 225.876C529.057 224.244 530.301 222.981 531.892 222.085C533.504 221.17 535.325 220.712 537.354 220.712C539.842 220.712 541.971 221.369 543.742 222.682C545.513 223.995 546.697 225.786 547.294 228.055H541.682C541.264 227.179 540.668 226.513 539.892 226.055C539.135 225.597 538.27 225.368 537.295 225.368C535.723 225.368 534.449 225.916 533.474 227.01C532.499 228.104 532.012 229.567 532.012 231.398C532.012 233.228 532.499 234.691 533.474 235.785C534.449 236.88 535.723 237.427 537.295 237.427C538.27 237.427 539.135 237.198 539.892 236.74C540.668 236.283 541.264 235.616 541.682 234.74H547.294C546.697 237.009 545.513 238.8 543.742 240.113C541.971 241.406 539.842 242.053 537.354 242.053C535.325 242.053 533.504 241.605 531.892 240.71C530.301 239.795 529.057 238.531 528.161 236.919C527.266 235.308 526.818 233.467 526.818 231.398Z"
    ></path>
    <path
      style="fill: var(--color-illustrationSubtle010)"
      d="M549.404 233.547C549.404 231.835 549.723 230.333 550.36 229.04C551.016 227.746 551.902 226.751 553.016 226.055C554.13 225.358 555.374 225.01 556.747 225.01C557.921 225.01 558.946 225.249 559.821 225.727C560.717 226.204 561.403 226.831 561.881 227.607V225.249H566.985V241.904H561.881V239.546C561.383 240.322 560.687 240.949 559.791 241.426C558.916 241.904 557.891 242.143 556.717 242.143C555.364 242.143 554.13 241.794 553.016 241.098C551.902 240.382 551.016 239.377 550.36 238.083C549.723 236.77 549.404 235.258 549.404 233.547ZM561.881 233.576C561.881 232.303 561.522 231.298 560.806 230.562C560.11 229.826 559.254 229.457 558.239 229.457C557.224 229.457 556.359 229.826 555.643 230.562C554.946 231.278 554.598 232.273 554.598 233.547C554.598 234.82 554.946 235.835 555.643 236.591C556.359 237.327 557.224 237.695 558.239 237.695C559.254 237.695 560.11 237.327 560.806 236.591C561.522 235.855 561.881 234.85 561.881 233.576Z"
    ></path>
    <path
      style="fill: var(--color-illustrationSubtle010)"
      d="M579.96 237.576V241.904H577.363C575.512 241.904 574.07 241.456 573.035 240.561C572 239.645 571.483 238.163 571.483 236.113V229.487H569.453V225.249H571.483V221.19H576.587V225.249H579.93V229.487H576.587V236.173C576.587 236.671 576.706 237.029 576.945 237.248C577.184 237.467 577.582 237.576 578.139 237.576H579.96Z"
    ></path>
    <path
      style="fill: var(--color-illustrationSubtle010)"
      d="M598.502 233.308C598.502 233.785 598.472 234.283 598.413 234.8H586.862C586.941 235.835 587.27 236.631 587.847 237.188C588.444 237.725 589.17 237.994 590.026 237.994C591.299 237.994 592.185 237.457 592.682 236.382H598.114C597.836 237.476 597.328 238.461 596.592 239.337C595.876 240.213 594.97 240.899 593.876 241.396C592.781 241.894 591.558 242.143 590.205 242.143C588.573 242.143 587.12 241.794 585.847 241.098C584.573 240.402 583.579 239.407 582.862 238.113C582.146 236.82 581.788 235.308 581.788 233.576C581.788 231.845 582.136 230.333 582.832 229.04C583.549 227.746 584.544 226.751 585.817 226.055C587.091 225.358 588.553 225.01 590.205 225.01C591.816 225.01 593.249 225.349 594.503 226.025C595.756 226.702 596.731 227.667 597.428 228.92C598.144 230.174 598.502 231.636 598.502 233.308ZM593.279 231.965C593.279 231.089 592.98 230.393 592.384 229.875C591.787 229.358 591.04 229.099 590.145 229.099C589.289 229.099 588.563 229.348 587.966 229.846C587.389 230.343 587.031 231.049 586.892 231.965H593.279Z"
    ></path>
    <path
      style="fill: var(--color-illustrationSubtle010)"
      d="M607.522 225.01C608.696 225.01 609.721 225.249 610.597 225.727C611.492 226.204 612.179 226.831 612.656 227.607V225.249H617.76V241.874C617.76 243.406 617.452 244.789 616.835 246.023C616.238 247.276 615.313 248.271 614.059 249.008C612.825 249.744 611.283 250.112 609.433 250.112C606.965 250.112 604.966 249.525 603.433 248.351C601.901 247.197 601.026 245.625 600.807 243.635H605.851C606.01 244.272 606.388 244.769 606.985 245.127C607.582 245.505 608.318 245.694 609.194 245.694C610.249 245.694 611.084 245.386 611.701 244.769C612.338 244.172 612.656 243.207 612.656 241.874V239.516C612.159 240.292 611.472 240.929 610.597 241.426C609.721 241.904 608.696 242.143 607.522 242.143C606.149 242.143 604.906 241.794 603.792 241.098C602.677 240.382 601.792 239.377 601.135 238.083C600.498 236.77 600.18 235.258 600.18 233.547C600.18 231.835 600.498 230.333 601.135 229.04C601.792 227.746 602.677 226.751 603.792 226.055C604.906 225.358 606.149 225.01 607.522 225.01ZM612.656 233.576C612.656 232.303 612.298 231.298 611.582 230.562C610.885 229.826 610.03 229.457 609.015 229.457C608 229.457 607.134 229.826 606.418 230.562C605.722 231.278 605.373 232.273 605.373 233.547C605.373 234.82 605.722 235.835 606.418 236.591C607.134 237.327 608 237.695 609.015 237.695C610.03 237.695 610.885 237.327 611.582 236.591C612.298 235.855 612.656 234.85 612.656 233.576Z"
    ></path>
    <path
      style="fill: var(--color-illustrationSubtle010)"
      d="M629.034 242.143C627.402 242.143 625.93 241.794 624.616 241.098C623.323 240.402 622.298 239.407 621.542 238.113C620.806 236.82 620.438 235.308 620.438 233.576C620.438 231.865 620.816 230.363 621.572 229.069C622.328 227.756 623.363 226.751 624.676 226.055C625.989 225.358 627.462 225.01 629.093 225.01C630.725 225.01 632.198 225.358 633.511 226.055C634.824 226.751 635.859 227.756 636.615 229.069C637.371 230.363 637.749 231.865 637.749 233.576C637.749 235.288 637.361 236.8 636.585 238.113C635.829 239.407 634.784 240.402 633.451 241.098C632.138 241.794 630.665 242.143 629.034 242.143ZM629.034 237.725C630.009 237.725 630.835 237.367 631.511 236.651C632.208 235.934 632.556 234.91 632.556 233.576C632.556 232.243 632.218 231.218 631.541 230.502C630.884 229.786 630.068 229.428 629.093 229.428C628.099 229.428 627.273 229.786 626.616 230.502C625.96 231.199 625.631 232.223 625.631 233.576C625.631 234.91 625.95 235.934 626.586 236.651C627.243 237.367 628.059 237.725 629.034 237.725Z"
    ></path>
    <path
      style="fill: var(--color-illustrationSubtle010)"
      d="M645.561 228.025C646.158 227.109 646.904 226.393 647.799 225.876C648.695 225.339 649.69 225.07 650.784 225.07V230.472H649.381C648.108 230.472 647.153 230.751 646.516 231.308C645.879 231.845 645.561 232.8 645.561 234.173V241.904H640.457V225.249H645.561V228.025Z"
    ></path>
    <path
      style="fill: var(--color-illustrationSubtle010)"
      d="M655.791 223.518C654.895 223.518 654.159 223.259 653.582 222.742C653.025 222.205 652.746 221.548 652.746 220.772C652.746 219.976 653.025 219.319 653.582 218.802C654.159 218.265 654.895 217.996 655.791 217.996C656.666 217.996 657.382 218.265 657.94 218.802C658.517 219.319 658.805 219.976 658.805 220.772C658.805 221.548 658.517 222.205 657.94 222.742C657.382 223.259 656.666 223.518 655.791 223.518ZM658.328 225.249V241.904H653.224V225.249H658.328Z"
    ></path>
    <path
      style="fill: var(--color-illustrationSubtle010)"
      d="M677.726 233.308C677.726 233.785 677.696 234.283 677.637 234.8H666.086C666.165 235.835 666.493 236.631 667.071 237.188C667.668 237.725 668.394 237.994 669.249 237.994C670.523 237.994 671.408 237.457 671.906 236.382H677.338C677.059 237.476 676.552 238.461 675.816 239.337C675.1 240.213 674.194 240.899 673.1 241.396C672.005 241.894 670.782 242.143 669.428 242.143C667.797 242.143 666.344 241.794 665.071 241.098C663.797 240.402 662.802 239.407 662.086 238.113C661.37 236.82 661.012 235.308 661.012 233.576C661.012 231.845 661.36 230.333 662.056 229.04C662.773 227.746 663.767 226.751 665.041 226.055C666.314 225.358 667.777 225.01 669.428 225.01C671.04 225.01 672.473 225.349 673.727 226.025C674.98 226.702 675.955 227.667 676.652 228.92C677.368 230.174 677.726 231.636 677.726 233.308ZM672.503 231.965C672.503 231.089 672.204 230.393 671.607 229.875C671.01 229.358 670.264 229.099 669.369 229.099C668.513 229.099 667.787 229.348 667.19 229.846C666.613 230.343 666.255 231.049 666.115 231.965H672.503Z"
    ></path>
    <path
      style="fill: var(--color-illustrationSubtle010)"
      d="M687.194 242.143C685.741 242.143 684.448 241.894 683.314 241.396C682.18 240.899 681.284 240.222 680.628 239.367C679.971 238.491 679.603 237.516 679.523 236.442H684.567C684.627 237.019 684.896 237.486 685.373 237.845C685.851 238.203 686.438 238.382 687.134 238.382C687.771 238.382 688.259 238.262 688.597 238.024C688.955 237.765 689.134 237.437 689.134 237.039C689.134 236.561 688.885 236.213 688.388 235.994C687.89 235.755 687.085 235.497 685.97 235.218C684.776 234.939 683.781 234.651 682.986 234.352C682.19 234.034 681.503 233.547 680.926 232.89C680.349 232.213 680.06 231.308 680.06 230.174C680.06 229.219 680.319 228.353 680.836 227.577C681.374 226.781 682.15 226.154 683.165 225.697C684.199 225.239 685.423 225.01 686.836 225.01C688.925 225.01 690.567 225.528 691.761 226.562C692.974 227.597 693.671 228.97 693.85 230.681H689.134C689.054 230.104 688.796 229.647 688.358 229.308C687.94 228.97 687.383 228.801 686.687 228.801C686.09 228.801 685.632 228.92 685.314 229.159C684.995 229.378 684.836 229.686 684.836 230.084C684.836 230.562 685.085 230.92 685.582 231.159C686.1 231.398 686.896 231.636 687.97 231.875C689.204 232.194 690.209 232.512 690.985 232.83C691.761 233.129 692.437 233.626 693.014 234.323C693.611 234.999 693.92 235.914 693.939 237.069C693.939 238.044 693.661 238.919 693.104 239.695C692.567 240.451 691.781 241.048 690.746 241.486C689.731 241.924 688.547 242.143 687.194 242.143Z"
    ></path>
    <path
      style="fill: var(--color-illustrationSubtle010)"
      d="M608.745 339.466V356.132H605.402V345.292L600.937 356.132H598.406L593.917 345.292V356.132H590.574V339.466H594.371L599.672 351.858L604.973 339.466H608.745Z"
    ></path>
    <path
      style="fill: var(--color-illustrationSubtle010)"
      d="M624.347 349.232C624.347 349.709 624.316 350.139 624.252 350.521H614.581C614.661 351.476 614.995 352.224 615.584 352.766C616.173 353.307 616.898 353.577 617.757 353.577C618.999 353.577 619.882 353.044 620.408 351.978H624.013C623.631 353.251 622.899 354.302 621.816 355.13C620.734 355.941 619.405 356.347 617.829 356.347C616.555 356.347 615.409 356.069 614.39 355.512C613.388 354.938 612.6 354.135 612.026 353.1C611.469 352.065 611.191 350.871 611.191 349.518C611.191 348.149 611.469 346.947 612.026 345.913C612.584 344.878 613.364 344.082 614.367 343.525C615.369 342.968 616.523 342.689 617.829 342.689C619.086 342.689 620.209 342.96 621.196 343.501C622.198 344.042 622.971 344.814 623.512 345.817C624.069 346.804 624.347 347.942 624.347 349.232ZM620.885 348.277C620.869 347.417 620.559 346.732 619.954 346.223C619.349 345.698 618.609 345.435 617.733 345.435C616.906 345.435 616.205 345.69 615.632 346.199C615.075 346.693 614.733 347.385 614.605 348.277H620.885Z"
    ></path>
    <path
      style="fill: var(--color-illustrationSubtle010)"
      d="M634.118 342.713C635.694 342.713 636.967 343.214 637.938 344.217C638.91 345.204 639.395 346.589 639.395 348.372V356.132H636.052V348.826C636.052 347.775 635.789 346.971 635.264 346.414C634.739 345.841 634.023 345.554 633.115 345.554C632.192 345.554 631.46 345.841 630.918 346.414C630.393 346.971 630.13 347.775 630.13 348.826V356.132H626.787V342.904H630.13V344.552C630.576 343.979 631.141 343.533 631.826 343.214C632.526 342.88 633.29 342.713 634.118 342.713Z"
    ></path>
    <path
      style="fill: var(--color-illustrationSubtle010)"
      d="M655.062 342.904V356.132H651.695V354.461C651.266 355.034 650.7 355.488 650 355.822C649.315 356.14 648.567 356.3 647.755 356.3C646.721 356.3 645.805 356.085 645.01 355.655C644.214 355.209 643.585 354.564 643.123 353.721C642.677 352.861 642.455 351.842 642.455 350.664V342.904H645.797V350.187C645.797 351.237 646.06 352.049 646.585 352.622C647.111 353.179 647.827 353.458 648.734 353.458C649.658 353.458 650.382 353.179 650.907 352.622C651.433 352.049 651.695 351.237 651.695 350.187V342.904H655.062Z"
    ></path>
    <path
      style="fill: var(--color-illustrationSubtle010)"
      d="M665.745 341.328C665.156 341.328 664.663 341.145 664.265 340.779C663.883 340.397 663.692 339.927 663.692 339.37C663.692 338.813 663.883 338.351 664.265 337.985C664.663 337.603 665.156 337.412 665.745 337.412C666.334 337.412 666.82 337.603 667.202 337.985C667.6 338.351 667.799 338.813 667.799 339.37C667.799 339.927 667.6 340.397 667.202 340.779C666.82 341.145 666.334 341.328 665.745 341.328ZM667.393 342.904V356.132H664.05V342.904H667.393Z"
    ></path>
    <path
      style="fill: var(--color-illustrationSubtle010)"
      d="M674.588 345.65V352.049C674.588 352.495 674.691 352.821 674.898 353.028C675.121 353.219 675.487 353.315 675.997 353.315H677.549V356.132H675.448C672.63 356.132 671.221 354.763 671.221 352.025V345.65H669.645V342.904H671.221V339.633H674.588V342.904H677.549V345.65H674.588Z"
    ></path>
    <path
      style="fill: var(--color-illustrationSubtle010)"
      d="M692.25 349.232C692.25 349.709 692.218 350.139 692.155 350.521H682.484C682.564 351.476 682.898 352.224 683.487 352.766C684.076 353.307 684.8 353.577 685.66 353.577C686.902 353.577 687.785 353.044 688.31 351.978H691.916C691.534 353.251 690.802 354.302 689.719 355.13C688.637 355.941 687.308 356.347 685.732 356.347C684.458 356.347 683.312 356.069 682.293 355.512C681.29 354.938 680.502 354.135 679.929 353.1C679.372 352.065 679.094 350.871 679.094 349.518C679.094 348.149 679.372 346.947 679.929 345.913C680.486 344.878 681.266 344.082 682.269 343.525C683.272 342.968 684.426 342.689 685.732 342.689C686.989 342.689 688.111 342.96 689.098 343.501C690.101 344.042 690.873 344.814 691.415 345.817C691.972 346.804 692.25 347.942 692.25 349.232ZM688.788 348.277C688.772 347.417 688.462 346.732 687.857 346.223C687.252 345.698 686.512 345.435 685.636 345.435C684.808 345.435 684.108 345.69 683.535 346.199C682.978 346.693 682.635 347.385 682.508 348.277H688.788Z"
    ></path>
    <path
      style="fill: var(--color-illustrationSubtle010)"
      d="M711.118 342.713C712.742 342.713 714.047 343.214 715.034 344.217C716.037 345.204 716.539 346.589 716.539 348.372V356.132H713.196V348.826C713.196 347.791 712.933 347.003 712.408 346.462C711.882 345.905 711.166 345.626 710.259 345.626C709.351 345.626 708.627 345.905 708.086 346.462C707.561 347.003 707.298 347.791 707.298 348.826V356.132H703.955V348.826C703.955 347.791 703.692 347.003 703.167 346.462C702.642 345.905 701.925 345.626 701.018 345.626C700.095 345.626 699.362 345.905 698.821 346.462C698.296 347.003 698.033 347.791 698.033 348.826V356.132H694.69V342.904H698.033V344.504C698.463 343.947 699.012 343.509 699.681 343.191C700.365 342.872 701.113 342.713 701.925 342.713C702.96 342.713 703.883 342.936 704.695 343.382C705.507 343.811 706.136 344.432 706.582 345.244C707.011 344.48 707.632 343.867 708.444 343.405C709.272 342.944 710.163 342.713 711.118 342.713Z"
    ></path>
    <path
      style="fill: var(--color-illustrationSubtle010)"
      d="M731.274 356.347C730.001 356.347 728.855 356.069 727.836 355.512C726.817 354.938 726.013 354.135 725.424 353.1C724.851 352.065 724.565 350.871 724.565 349.518C724.565 348.165 724.859 346.971 725.448 345.937C726.053 344.902 726.873 344.106 727.908 343.549C728.942 342.976 730.096 342.689 731.37 342.689C732.643 342.689 733.798 342.976 734.832 343.549C735.867 344.106 736.679 344.902 737.268 345.937C737.873 346.971 738.175 348.165 738.175 349.518C738.175 350.871 737.865 352.065 737.244 353.1C736.639 354.135 735.811 354.938 734.761 355.512C733.726 356.069 732.564 356.347 731.274 356.347ZM731.274 353.434C731.879 353.434 732.444 353.291 732.97 353.004C733.511 352.702 733.941 352.256 734.259 351.667C734.578 351.078 734.737 350.362 734.737 349.518C734.737 348.261 734.402 347.298 733.734 346.629C733.081 345.944 732.277 345.602 731.322 345.602C730.367 345.602 729.563 345.944 728.911 346.629C728.274 347.298 727.955 348.261 727.955 349.518C727.955 350.776 728.266 351.747 728.887 352.431C729.523 353.1 730.319 353.434 731.274 353.434Z"
    ></path>
    <path
      style="fill: var(--color-illustrationSubtle010)"
      d="M747.958 342.713C749.534 342.713 750.807 343.214 751.778 344.217C752.749 345.204 753.235 346.589 753.235 348.372V356.132H749.892V348.826C749.892 347.775 749.629 346.971 749.104 346.414C748.579 345.841 747.862 345.554 746.955 345.554C746.032 345.554 745.299 345.841 744.758 346.414C744.233 346.971 743.97 347.775 743.97 348.826V356.132H740.627V342.904H743.97V344.552C744.416 343.979 744.981 343.533 745.666 343.214C746.366 342.88 747.13 342.713 747.958 342.713Z"
    ></path>
    <path
      style="fill: var(--color-illustrationSubtle010)"
      d="M768.711 349.232C768.711 349.709 768.679 350.139 768.615 350.521H758.945C759.024 351.476 759.359 352.224 759.948 352.766C760.537 353.307 761.261 353.577 762.121 353.577C763.362 353.577 764.246 353.044 764.771 351.978H768.377C767.995 353.251 767.262 354.302 766.18 355.13C765.097 355.941 763.768 356.347 762.192 356.347C760.919 356.347 759.773 356.069 758.754 355.512C757.751 354.938 756.963 354.135 756.39 353.1C755.833 352.065 755.554 350.871 755.554 349.518C755.554 348.149 755.833 346.947 756.39 345.913C756.947 344.878 757.727 344.082 758.73 343.525C759.733 342.968 760.887 342.689 762.192 342.689C763.45 342.689 764.572 342.96 765.559 343.501C766.562 344.042 767.334 344.814 767.875 345.817C768.432 346.804 768.711 347.942 768.711 349.232ZM765.249 348.277C765.233 347.417 764.922 346.732 764.317 346.223C763.712 345.698 762.972 345.435 762.097 345.435C761.269 345.435 760.569 345.69 759.995 346.199C759.438 346.693 759.096 347.385 758.969 348.277H765.249Z"
    ></path>
    <path
      style="fill: var(--color-illustrationInterface010)"
      d="M993.928 406.718V287.328H996.913V406.718H993.928Z"
    ></path>
    <path
      style="fill: var(--color-illustrationHighlight010)"
      fill-rule="evenodd"
      clip-rule="evenodd"
      d="M534.267 464.92H555.175C556.816 464.92 558.16 466.248 558.16 467.905V488.798C558.16 490.439 556.816 491.783 555.175 491.783H534.267C532.61 491.783 531.297 490.439 531.297 488.798L531.312 467.905C531.312 466.248 532.61 464.92 534.267 464.92ZM549.205 482.828H555.175V467.905H534.282V482.828H540.251C540.251 485.306 542.266 487.306 544.728 487.306C547.191 487.306 549.205 485.306 549.205 482.828Z"
    ></path>
    <path
      style="fill: var(--color-illustrationSubtle010)"
      fill-rule="evenodd"
      clip-rule="evenodd"
      d="M550.697 335.084V341.053H556.667V335.084H550.697ZM532.789 341.053H538.759V335.084H532.789V341.053ZM541.743 358.962H547.713V352.992H541.743V358.962ZM538.759 358.962H532.789V352.992H538.759V358.962ZM532.789 350.008H538.759V344.038H532.789V350.008ZM547.713 350.008H541.743V344.038H547.713V350.008ZM547.713 341.053H541.743V335.084H547.713V341.053ZM550.697 350.008H556.667V344.038H550.697V350.008ZM556.667 358.962H550.697V352.992H556.667V358.962Z"
    ></path>
    <path
      style="fill: var(--color-illustrationHighlight010)"
      d="M608.745 470.794V487.461H605.402V476.62L600.937 487.461H598.406L593.917 476.62V487.461H590.574V470.794H594.371L599.672 483.186L604.973 470.794H608.745Z"
    ></path>
    <path
      style="fill: var(--color-illustrationHighlight010)"
      d="M624.347 480.56C624.347 481.037 624.316 481.467 624.252 481.849H614.581C614.661 482.804 614.995 483.552 615.584 484.094C616.173 484.635 616.898 484.906 617.757 484.906C618.999 484.906 619.882 484.372 620.408 483.306H624.013C623.631 484.579 622.899 485.63 621.816 486.458C620.734 487.269 619.405 487.675 617.829 487.675C616.555 487.675 615.409 487.397 614.39 486.84C613.388 486.267 612.6 485.463 612.026 484.428C611.469 483.393 611.191 482.199 611.191 480.846C611.191 479.477 611.469 478.275 612.026 477.241C612.584 476.206 613.364 475.41 614.367 474.853C615.369 474.296 616.523 474.017 617.829 474.017C619.086 474.017 620.209 474.288 621.196 474.829C622.198 475.37 622.971 476.142 623.512 477.145C624.069 478.132 624.347 479.27 624.347 480.56ZM620.885 479.605C620.869 478.745 620.559 478.061 619.954 477.551C619.349 477.026 618.609 476.763 617.733 476.763C616.906 476.763 616.205 477.018 615.632 477.527C615.075 478.021 614.733 478.713 614.605 479.605H620.885Z"
    ></path>
    <path
      style="fill: var(--color-illustrationHighlight010)"
      d="M634.118 474.041C635.694 474.041 636.967 474.543 637.938 475.545C638.91 476.532 639.395 477.917 639.395 479.7V487.461H636.052V480.154C636.052 479.103 635.789 478.299 635.264 477.742C634.739 477.169 634.023 476.883 633.115 476.883C632.192 476.883 631.46 477.169 630.918 477.742C630.393 478.299 630.13 479.103 630.13 480.154V487.461H626.787V474.232H630.13V475.88C630.576 475.307 631.141 474.861 631.826 474.543C632.526 474.208 633.29 474.041 634.118 474.041Z"
    ></path>
    <path
      style="fill: var(--color-illustrationHighlight010)"
      d="M655.062 474.232V487.461H651.695V485.789C651.266 486.362 650.7 486.816 650 487.15C649.315 487.468 648.567 487.628 647.755 487.628C646.721 487.628 645.805 487.413 645.01 486.983C644.214 486.537 643.585 485.893 643.123 485.049C642.677 484.189 642.455 483.17 642.455 481.992V474.232H645.797V481.515C645.797 482.566 646.06 483.377 646.585 483.95C647.111 484.508 647.827 484.786 648.734 484.786C649.658 484.786 650.382 484.508 650.907 483.95C651.433 483.377 651.695 482.566 651.695 481.515V474.232H655.062Z"
    ></path>
    <path
      style="fill: var(--color-illustrationHighlight010)"
      d="M665.745 472.656C665.156 472.656 664.663 472.473 664.265 472.107C663.883 471.725 663.692 471.255 663.692 470.698C663.692 470.141 663.883 469.679 664.265 469.313C664.663 468.931 665.156 468.74 665.745 468.74C666.334 468.74 666.82 468.931 667.202 469.313C667.6 469.679 667.799 470.141 667.799 470.698C667.799 471.255 667.6 471.725 667.202 472.107C666.82 472.473 666.334 472.656 665.745 472.656ZM667.393 474.232V487.461H664.05V474.232H667.393Z"
    ></path>
    <path
      style="fill: var(--color-illustrationHighlight010)"
      d="M674.588 476.978V483.377C674.588 483.823 674.691 484.149 674.898 484.356C675.121 484.547 675.487 484.643 675.997 484.643H677.549V487.461H675.448C672.63 487.461 671.221 486.092 671.221 483.354V476.978H669.645V474.232H671.221V470.961H674.588V474.232H677.549V476.978H674.588Z"
    ></path>
    <path
      style="fill: var(--color-illustrationHighlight010)"
      d="M692.25 480.56C692.25 481.037 692.218 481.467 692.155 481.849H682.484C682.564 482.804 682.898 483.552 683.487 484.094C684.076 484.635 684.8 484.906 685.66 484.906C686.902 484.906 687.785 484.372 688.31 483.306H691.916C691.534 484.579 690.802 485.63 689.719 486.458C688.637 487.269 687.308 487.675 685.732 487.675C684.458 487.675 683.312 487.397 682.293 486.84C681.29 486.267 680.502 485.463 679.929 484.428C679.372 483.393 679.094 482.199 679.094 480.846C679.094 479.477 679.372 478.275 679.929 477.241C680.486 476.206 681.266 475.41 682.269 474.853C683.272 474.296 684.426 474.017 685.732 474.017C686.989 474.017 688.111 474.288 689.098 474.829C690.101 475.37 690.873 476.142 691.415 477.145C691.972 478.132 692.25 479.27 692.25 480.56ZM688.788 479.605C688.772 478.745 688.462 478.061 687.857 477.551C687.252 477.026 686.512 476.763 685.636 476.763C684.808 476.763 684.108 477.018 683.535 477.527C682.978 478.021 682.635 478.713 682.508 479.605H688.788Z"
    ></path>
    <path
      style="fill: var(--color-illustrationHighlight010)"
      d="M711.118 474.041C712.742 474.041 714.047 474.543 715.034 475.545C716.037 476.532 716.539 477.917 716.539 479.7V487.461H713.196V480.154C713.196 479.119 712.933 478.331 712.408 477.79C711.882 477.233 711.166 476.954 710.259 476.954C709.351 476.954 708.627 477.233 708.086 477.79C707.561 478.331 707.298 479.119 707.298 480.154V487.461H703.955V480.154C703.955 479.119 703.692 478.331 703.167 477.79C702.642 477.233 701.925 476.954 701.018 476.954C700.095 476.954 699.362 477.233 698.821 477.79C698.296 478.331 698.033 479.119 698.033 480.154V487.461H694.69V474.232H698.033V475.832C698.463 475.275 699.012 474.837 699.681 474.519C700.365 474.2 701.113 474.041 701.925 474.041C702.96 474.041 703.883 474.264 704.695 474.71C705.507 475.14 706.136 475.76 706.582 476.572C707.011 475.808 707.632 475.195 708.444 474.734C709.272 474.272 710.163 474.041 711.118 474.041Z"
    ></path>
    <path
      style="fill: var(--color-illustrationHighlight010)"
      d="M729.293 476.978V483.377C729.293 483.823 729.396 484.149 729.603 484.356C729.826 484.547 730.192 484.643 730.701 484.643H732.253V487.461H730.152C727.335 487.461 725.926 486.092 725.926 483.354V476.978H724.35V474.232H725.926V470.961H729.293V474.232H732.253V476.978H729.293Z"
    ></path>
    <path
      style="fill: var(--color-illustrationHighlight010)"
      d="M752.996 474.232L749.128 487.461H745.522L743.111 478.22L740.699 487.461H737.07L733.177 474.232H736.568L738.908 484.309L741.439 474.232H744.973L747.456 484.285L749.796 474.232H752.996Z"
    ></path>
    <path
      style="fill: var(--color-illustrationHighlight010)"
      d="M760.679 487.675C759.405 487.675 758.259 487.397 757.24 486.84C756.222 486.267 755.418 485.463 754.829 484.428C754.256 483.393 753.969 482.199 753.969 480.846C753.969 479.493 754.264 478.299 754.853 477.265C755.457 476.23 756.277 475.434 757.312 474.877C758.347 474.304 759.501 474.017 760.774 474.017C762.048 474.017 763.202 474.304 764.237 474.877C765.271 475.434 766.083 476.23 766.672 477.265C767.277 478.299 767.58 479.493 767.58 480.846C767.58 482.199 767.269 483.393 766.648 484.428C766.043 485.463 765.216 486.267 764.165 486.84C763.13 487.397 761.968 487.675 760.679 487.675ZM760.679 484.762C761.284 484.762 761.849 484.619 762.374 484.333C762.915 484.03 763.345 483.584 763.664 482.995C763.982 482.406 764.141 481.69 764.141 480.846C764.141 479.589 763.807 478.626 763.138 477.957C762.486 477.273 761.682 476.93 760.727 476.93C759.771 476.93 758.968 477.273 758.315 477.957C757.678 478.626 757.36 479.589 757.36 480.846C757.36 482.104 757.67 483.075 758.291 483.759C758.928 484.428 759.724 484.762 760.679 484.762Z"
    ></path>
    <path
      style="fill: var(--color-illustrationHighlight010)"
      d="M993.928 538.046V418.656H999.898V538.046H993.928Z"
    ></path>
    <path
      style="fill: var(--color-illustrationSubtle010)"
      fill-rule="evenodd"
      clip-rule="evenodd"
      d="M529.805 609.681C529.805 601.443 536.491 594.757 544.728 594.757C552.966 594.757 559.652 601.443 559.652 609.681C559.652 617.918 552.966 624.604 544.728 624.604C536.491 624.604 529.805 617.918 529.805 609.681ZM543.236 618.635V615.65H546.221V618.635H543.236ZM544.729 621.619C538.147 621.619 532.79 616.262 532.79 609.681C532.79 603.099 538.147 597.742 544.729 597.742C551.31 597.742 556.667 603.099 556.667 609.681C556.667 616.262 551.31 621.619 544.729 621.619ZM538.759 606.696C538.759 603.398 541.43 600.726 544.729 600.726C548.027 600.726 550.698 603.398 550.698 606.696C550.698 608.61 549.519 609.641 548.371 610.644C547.282 611.596 546.221 612.523 546.221 614.158H543.236C543.236 611.44 544.642 610.362 545.878 609.414C546.848 608.671 547.713 608.008 547.713 606.696C547.713 605.054 546.37 603.711 544.729 603.711C543.087 603.711 541.744 605.054 541.744 606.696H538.759Z"
    ></path>
    <path
      style="fill: var(--color-illustrationSubtle010)"
      d="M608.747 602.122V618.789H605.404V607.948L600.939 618.789H598.408L593.919 607.948V618.789H590.576V602.122H594.372L599.673 614.514L604.974 602.122H608.747Z"
    ></path>
    <path
      style="fill: var(--color-illustrationSubtle010)"
      d="M624.349 611.888C624.349 612.365 624.317 612.795 624.253 613.177H614.583C614.662 614.132 614.997 614.881 615.586 615.422C616.175 615.963 616.899 616.234 617.759 616.234C619 616.234 619.884 615.7 620.409 614.634H624.015C623.633 615.907 622.9 616.958 621.818 617.786C620.735 618.598 619.406 619.004 617.83 619.004C616.557 619.004 615.411 618.725 614.392 618.168C613.389 617.595 612.601 616.791 612.028 615.756C611.471 614.721 611.192 613.528 611.192 612.174C611.192 610.805 611.471 609.604 612.028 608.569C612.585 607.534 613.365 606.738 614.368 606.181C615.371 605.624 616.525 605.345 617.83 605.345C619.088 605.345 620.21 605.616 621.197 606.157C622.2 606.698 622.972 607.471 623.513 608.473C624.07 609.46 624.349 610.599 624.349 611.888ZM620.887 610.933C620.871 610.073 620.56 609.389 619.955 608.879C619.35 608.354 618.61 608.091 617.735 608.091C616.907 608.091 616.207 608.346 615.634 608.855C615.076 609.349 614.734 610.041 614.607 610.933H620.887Z"
    ></path>
    <path
      style="fill: var(--color-illustrationSubtle010)"
      d="M634.119 605.369C635.695 605.369 636.969 605.871 637.94 606.874C638.911 607.861 639.396 609.245 639.396 611.028V618.789H636.054V611.482C636.054 610.431 635.791 609.627 635.266 609.07C634.74 608.497 634.024 608.211 633.117 608.211C632.193 608.211 631.461 608.497 630.92 609.07C630.395 609.627 630.132 610.431 630.132 611.482V618.789H626.789V605.56H630.132V607.208C630.578 606.635 631.143 606.189 631.827 605.871C632.528 605.536 633.292 605.369 634.119 605.369Z"
    ></path>
    <path
      style="fill: var(--color-illustrationSubtle010)"
      d="M655.064 605.56V618.789H651.697V617.117C651.267 617.69 650.702 618.144 650.001 618.478C649.317 618.797 648.569 618.956 647.757 618.956C646.722 618.956 645.807 618.741 645.011 618.311C644.215 617.865 643.586 617.221 643.125 616.377C642.679 615.517 642.456 614.499 642.456 613.321V605.56H645.799V612.843C645.799 613.894 646.062 614.706 646.587 615.279C647.112 615.836 647.829 616.114 648.736 616.114C649.659 616.114 650.384 615.836 650.909 615.279C651.434 614.706 651.697 613.894 651.697 612.843V605.56H655.064Z"
    ></path>
    <path
      style="fill: var(--color-illustrationSubtle010)"
      d="M665.747 603.984C665.158 603.984 664.664 603.801 664.266 603.435C663.884 603.053 663.693 602.583 663.693 602.026C663.693 601.469 663.884 601.008 664.266 600.641C664.664 600.259 665.158 600.068 665.747 600.068C666.336 600.068 666.821 600.259 667.203 600.641C667.601 601.008 667.8 601.469 667.8 602.026C667.8 602.583 667.601 603.053 667.203 603.435C666.821 603.801 666.336 603.984 665.747 603.984ZM667.394 605.56V618.789H664.052V605.56H667.394Z"
    ></path>
    <path
      style="fill: var(--color-illustrationSubtle010)"
      d="M674.589 608.306V614.706C674.589 615.151 674.693 615.478 674.9 615.685C675.123 615.876 675.489 615.971 675.998 615.971H677.55V618.789H675.449C672.631 618.789 671.223 617.42 671.223 614.682V608.306H669.647V605.56H671.223V602.289H674.589V605.56H677.55V608.306H674.589Z"
    ></path>
    <path
      style="fill: var(--color-illustrationSubtle010)"
      d="M692.252 611.888C692.252 612.365 692.22 612.795 692.156 613.177H682.486C682.565 614.132 682.9 614.881 683.489 615.422C684.078 615.963 684.802 616.234 685.661 616.234C686.903 616.234 687.787 615.7 688.312 614.634H691.917C691.535 615.907 690.803 616.958 689.721 617.786C688.638 618.598 687.309 619.004 685.733 619.004C684.46 619.004 683.313 618.725 682.295 618.168C681.292 617.595 680.504 616.791 679.931 615.756C679.374 614.721 679.095 613.528 679.095 612.174C679.095 610.805 679.374 609.604 679.931 608.569C680.488 607.534 681.268 606.738 682.271 606.181C683.274 605.624 684.428 605.345 685.733 605.345C686.991 605.345 688.113 605.616 689.1 606.157C690.103 606.698 690.875 607.471 691.416 608.473C691.973 609.46 692.252 610.599 692.252 611.888ZM688.789 610.933C688.774 610.073 688.463 609.389 687.858 608.879C687.253 608.354 686.513 608.091 685.638 608.091C684.81 608.091 684.109 608.346 683.536 608.855C682.979 609.349 682.637 610.041 682.51 610.933H688.789Z"
    ></path>
    <path
      style="fill: var(--color-illustrationSubtle010)"
      d="M711.12 605.369C712.743 605.369 714.049 605.871 715.036 606.874C716.039 607.861 716.54 609.245 716.54 611.028V618.789H713.197V611.482C713.197 610.447 712.935 609.659 712.409 609.118C711.884 608.561 711.168 608.282 710.26 608.282C709.353 608.282 708.629 608.561 708.087 609.118C707.562 609.659 707.299 610.447 707.299 611.482V618.789H703.956V611.482C703.956 610.447 703.694 609.659 703.168 609.118C702.643 608.561 701.927 608.282 701.019 608.282C700.096 608.282 699.364 608.561 698.823 609.118C698.297 609.659 698.035 610.447 698.035 611.482V618.789H694.692V605.56H698.035V607.16C698.464 606.603 699.014 606.165 699.682 605.847C700.367 605.528 701.115 605.369 701.927 605.369C702.961 605.369 703.885 605.592 704.697 606.038C705.508 606.468 706.137 607.088 706.583 607.9C707.013 607.136 707.634 606.523 708.445 606.062C709.273 605.6 710.165 605.369 711.12 605.369Z"
    ></path>
    <path
      style="fill: var(--color-illustrationSubtle010)"
      d="M729.294 608.306V614.706C729.294 615.151 729.398 615.478 729.604 615.685C729.827 615.876 730.193 615.971 730.703 615.971H732.255V618.789H730.154C727.336 618.789 725.927 617.42 725.927 614.682V608.306H724.351V605.56H725.927V602.289H729.294V605.56H732.255V608.306H729.294Z"
    ></path>
    <path
      style="fill: var(--color-illustrationSubtle010)"
      d="M742.109 605.369C743.112 605.369 744.004 605.592 744.784 606.038C745.564 606.468 746.168 607.112 746.598 607.972C747.044 608.816 747.267 609.834 747.267 611.028V618.789H743.924V611.482C743.924 610.431 743.661 609.627 743.136 609.07C742.611 608.497 741.894 608.211 740.987 608.211C740.064 608.211 739.331 608.497 738.79 609.07C738.265 609.627 738.002 610.431 738.002 611.482V618.789H734.659V601.119H738.002V607.208C738.432 606.635 739.005 606.189 739.721 605.871C740.438 605.536 741.234 605.369 742.109 605.369Z"
    ></path>
    <path
      style="fill: var(--color-illustrationSubtle010)"
      d="M753.789 607.614C754.218 606.913 754.776 606.364 755.46 605.966C756.161 605.568 756.956 605.369 757.848 605.369V608.879H756.964C755.914 608.879 755.118 609.126 754.577 609.62C754.051 610.113 753.789 610.973 753.789 612.198V618.789H750.446V605.56H753.789V607.614Z"
    ></path>
    <path
      style="fill: var(--color-illustrationSubtle010)"
      d="M772.397 611.888C772.397 612.365 772.365 612.795 772.301 613.177H762.631C762.71 614.132 763.044 614.881 763.633 615.422C764.222 615.963 764.947 616.234 765.806 616.234C767.048 616.234 767.931 615.7 768.457 614.634H772.062C771.68 615.907 770.948 616.958 769.866 617.786C768.783 618.598 767.454 619.004 765.878 619.004C764.605 619.004 763.458 618.725 762.44 618.168C761.437 617.595 760.649 616.791 760.076 615.756C759.519 614.721 759.24 613.528 759.24 612.174C759.24 610.805 759.519 609.604 760.076 608.569C760.633 607.534 761.413 606.738 762.416 606.181C763.419 605.624 764.573 605.345 765.878 605.345C767.136 605.345 768.258 605.616 769.245 606.157C770.248 606.698 771.02 607.471 771.561 608.473C772.118 609.46 772.397 610.599 772.397 611.888ZM768.934 610.933C768.918 610.073 768.608 609.389 768.003 608.879C767.398 608.354 766.658 608.091 765.782 608.091C764.955 608.091 764.254 608.346 763.681 608.855C763.124 609.349 762.782 610.041 762.654 610.933H768.934Z"
    ></path>
    <path
      style="fill: var(--color-illustrationSubtle010)"
      d="M787.134 611.888C787.134 612.365 787.102 612.795 787.038 613.177H777.368C777.447 614.132 777.782 614.881 778.371 615.422C778.96 615.963 779.684 616.234 780.544 616.234C781.785 616.234 782.669 615.7 783.194 614.634H786.8C786.417 615.907 785.685 616.958 784.603 617.786C783.52 618.598 782.191 619.004 780.615 619.004C779.342 619.004 778.196 618.725 777.177 618.168C776.174 617.595 775.386 616.791 774.813 615.756C774.256 614.721 773.977 613.528 773.977 612.174C773.977 610.805 774.256 609.604 774.813 608.569C775.37 607.534 776.15 606.738 777.153 606.181C778.156 605.624 779.31 605.345 780.615 605.345C781.873 605.345 782.995 605.616 783.982 606.157C784.985 606.698 785.757 607.471 786.298 608.473C786.855 609.46 787.134 610.599 787.134 611.888ZM783.672 610.933C783.656 610.073 783.345 609.389 782.74 608.879C782.135 608.354 781.395 608.091 780.52 608.091C779.692 608.091 778.991 608.346 778.418 608.855C777.861 609.349 777.519 610.041 777.392 610.933H783.672Z"
    ></path>
    <path
      style="fill: var(--color-illustrationInterface010)"
      d="M993.928 669.375V549.985H996.913V669.375H993.928Z"
    ></path>
    <path
      style="fill: var(--color-illustrationHighlight010)"
      d="M254.582 216.603V219.613H246.854V244.955H243.152V219.613H235.383V216.603H254.582Z"
    ></path>
    <path
      style="fill: var(--color-illustrationHighlight010)"
      d="M261.051 219.044C260.346 219.044 259.749 218.8 259.261 218.312C258.773 217.824 258.529 217.227 258.529 216.522C258.529 215.817 258.773 215.22 259.261 214.732C259.749 214.244 260.346 214 261.051 214C261.729 214 262.298 214.244 262.759 214.732C263.247 215.22 263.491 215.817 263.491 216.522C263.491 217.227 263.247 217.824 262.759 218.312C262.298 218.8 261.729 219.044 261.051 219.044ZM262.84 222.664V244.955H259.139V222.664H262.84Z"
    ></path>
    <path
      style="fill: var(--color-illustrationHighlight010)"
      d="M273.664 225.715V238.854C273.664 239.938 273.895 240.711 274.356 241.172C274.817 241.606 275.617 241.823 276.756 241.823H279.481V244.955H276.146C274.085 244.955 272.539 244.481 271.508 243.532C270.478 242.582 269.963 241.023 269.963 238.854V225.715H267.075V222.664H269.963V217.051H273.664V222.664H279.481V225.715H273.664Z"
    ></path>
    <path
      style="fill: var(--color-illustrationHighlight010)"
      d="M287.668 214.854V244.955H283.966V214.854H287.668Z"
    ></path>
    <path
      style="fill: var(--color-illustrationHighlight010)"
      d="M314.315 232.956C314.315 233.661 314.274 234.406 314.193 235.193H296.376C296.512 237.389 297.258 239.111 298.614 240.359C299.997 241.579 301.664 242.189 303.617 242.189C305.217 242.189 306.546 241.823 307.603 241.091C308.688 240.332 309.447 239.328 309.881 238.081H313.868C313.271 240.223 312.078 241.972 310.288 243.328C308.498 244.657 306.275 245.321 303.617 245.321C301.502 245.321 299.604 244.847 297.922 243.898C296.268 242.949 294.966 241.606 294.017 239.871C293.068 238.108 292.594 236.074 292.594 233.769C292.594 231.464 293.055 229.444 293.977 227.708C294.899 225.973 296.187 224.644 297.841 223.722C299.522 222.773 301.448 222.298 303.617 222.298C305.732 222.298 307.603 222.759 309.23 223.681C310.858 224.603 312.105 225.878 312.973 227.505C313.868 229.105 314.315 230.922 314.315 232.956ZM310.491 232.183C310.491 230.773 310.18 229.566 309.556 228.562C308.932 227.532 308.078 226.759 306.993 226.244C305.936 225.701 304.756 225.43 303.454 225.43C301.583 225.43 299.983 226.027 298.654 227.22C297.353 228.413 296.607 230.067 296.417 232.183H310.491Z"
    ></path>
    <path
      style="fill: var(--color-illustrationHighlight010)"
      fill-rule="evenodd"
      clip-rule="evenodd"
      d="M335 228.955L507 228.955L507 232.955L335 232.955L335 228.955Z"
    ></path>
    <path
      style="fill: var(--color-illustrationHighlight010)"
      d="M512 236.955C508.686 236.955 506 234.269 506 230.955C506 227.641 508.686 224.955 512 224.955C515.313 224.955 518 227.641 518 230.955C518 234.269 515.313 236.955 512 236.955Z"
    ></path>
    <path
      style="fill: var(--color-illustrationHighlight010)"
      fill-rule="evenodd"
      clip-rule="evenodd"
      d="M507 230.955C507 233.717 509.238 235.955 512 235.955C514.761 235.955 517 233.717 517 230.955C517 228.194 514.761 225.955 512 225.955C509.238 225.955 507 228.194 507 230.955ZM506 230.955C506 234.269 508.686 236.955 512 236.955C515.313 236.955 518 234.269 518 230.955C518 227.641 515.313 224.955 512 224.955C508.686 224.955 506 227.641 506 230.955Z"
    ></path>
  </g>
  <defs>
    <filter
      id="nk-230"
      x="475"
      y="169.996"
      width="541"
      height="535"
      filterUnits="userSpaceOnUse"
      color-interpolation-filters="sRGB"
    >
      <feFlood flood-opacity="0" result="BackgroundImageFix"></feFlood>
      <feColorMatrix
        in="SourceAlpha"
        type="matrix"
        values="0 0 0 0 0 0 0 0 0 0 0 0 0 0 0 0 0 0 127 0"
        result="hardAlpha"
      ></feColorMatrix>
      <feOffset dy="8"></feOffset>
      <feGaussianBlur stdDeviation="8"></feGaussianBlur>
      <feColorMatrix
        type="matrix"
        values="0 0 0 0 0.0392157 0 0 0 0 0.0392157 0 0 0 0 0.0392157 0 0 0 0.08 0"
      ></feColorMatrix>
      <feBlend
        mode="normal"
        in2="BackgroundImageFix"
        result="effect1_dropShadow_2711_78483"
      ></feBlend>
      <feBlend
        mode="normal"
        in="SourceGraphic"
        in2="effect1_dropShadow_2711_78483"
        result="shape"
      ></feBlend>
    </filter>
    <clipPath id="nk-229">
      <rect style="fill: var(--color-white)" width="1490" height="838"></rect>
    </clipPath>
  </defs>
</svg>
