<svg id="components-menu-menu-options-icons-illustration" style="width: 100%; height: 100%" width="1490" height="839" viewBox="0 0 1490 839" fill="none" xmlns="http://www.w3.org/2000/svg" class="css-0"><path style="fill:var(--color-illustrationBackground020)" d="M0 4.01075C0 1.80161 1.79086 0.0107422 4 0.0107422H1486.72C1488.93 0.0107422 1490.72 1.8016 1490.72 4.01074V834.014C1490.72 836.224 1488.93 838.014 1486.72 838.014H4.00002C1.79088 838.014 0 836.224 0 834.014V4.01075Z"></path><g filter="url(#nk-358)"><path style="fill:var(--color-illustrationInterface010)" d="M287.922 251.484C287.922 246.239 292.174 241.987 297.419 241.987H1192.53C1197.77 241.987 1202.02 246.239 1202.02 251.484V344.082C1202.02 349.327 1197.77 353.579 1192.53 353.579H297.419C292.174 353.579 287.922 349.327 287.922 344.082V251.484Z"></path></g><mask id="nk-354" mask-type="alpha" maskUnits="userSpaceOnUse" x="342" y="280" width="33" height="33"><path style="fill:var(--color-black)" fill-rule="evenodd" clip-rule="evenodd" d="M346.291 284.079H357.15V297.652H346.291V284.079ZM370.724 284.079H359.865V292.223H370.724V284.079ZM354.435 294.938V286.793H349.006V294.938H354.435ZM368.009 289.508V286.793H362.58V289.508H368.009ZM368.009 297.652V305.797H362.58V297.652H368.009ZM354.435 305.797V303.082H349.006V305.797H354.435ZM370.724 294.938H359.865V308.511H370.724V294.938ZM346.291 300.367H357.15V308.511H346.291V300.367Z"></path></mask><g mask="url(#nk-354)"><path style="fill:var(--color-illustrationHighlight010)" d="M342.219 280.006H374.796V312.583H342.219V280.006Z"></path></g><path style="fill:var(--color-illustrationHighlight010)" d="M402.182 289.497V304.656H399.141V294.796L395.08 304.656H392.778L388.695 294.796V304.656H385.654V289.497H389.107L393.929 300.769L398.75 289.497H402.182Z"></path><path style="fill:var(--color-illustrationHighlight010)" d="M416.373 298.38C416.373 298.814 416.344 299.205 416.286 299.553H407.49C407.562 300.421 407.866 301.102 408.402 301.594C408.938 302.086 409.597 302.333 410.378 302.333C411.508 302.333 412.311 301.847 412.789 300.877H416.069C415.721 302.036 415.055 302.991 414.071 303.744C413.086 304.483 411.877 304.852 410.444 304.852C409.285 304.852 408.243 304.598 407.316 304.092C406.404 303.57 405.687 302.839 405.166 301.898C404.659 300.957 404.406 299.871 404.406 298.64C404.406 297.395 404.659 296.302 405.166 295.361C405.673 294.42 406.382 293.696 407.294 293.189C408.207 292.682 409.256 292.429 410.444 292.429C411.587 292.429 412.608 292.675 413.506 293.167C414.418 293.66 415.12 294.362 415.612 295.274C416.119 296.172 416.373 297.207 416.373 298.38ZM413.223 297.511C413.209 296.729 412.927 296.107 412.376 295.643C411.826 295.166 411.153 294.927 410.357 294.927C409.604 294.927 408.967 295.158 408.446 295.622C407.939 296.07 407.627 296.7 407.512 297.511H413.223Z"></path><path style="fill:var(--color-illustrationHighlight010)" d="M425.259 292.451C426.693 292.451 427.851 292.907 428.734 293.819C429.617 294.717 430.059 295.976 430.059 297.598V304.656H427.019V298.011C427.019 297.055 426.78 296.324 426.302 295.817C425.824 295.296 425.173 295.035 424.347 295.035C423.507 295.035 422.841 295.296 422.349 295.817C421.871 296.324 421.632 297.055 421.632 298.011V304.656H418.592V292.625H421.632V294.123C422.038 293.602 422.552 293.196 423.174 292.907C423.812 292.603 424.506 292.451 425.259 292.451Z"></path><path style="fill:var(--color-illustrationHighlight010)" d="M444.309 292.625V304.656H441.247V303.136C440.856 303.657 440.342 304.07 439.705 304.374C439.082 304.664 438.402 304.808 437.663 304.808C436.722 304.808 435.89 304.613 435.166 304.222C434.442 303.817 433.87 303.23 433.45 302.463C433.045 301.681 432.842 300.754 432.842 299.683V292.625H435.882V299.249C435.882 300.204 436.121 300.943 436.599 301.464C437.077 301.971 437.728 302.224 438.554 302.224C439.393 302.224 440.052 301.971 440.53 301.464C441.008 300.943 441.247 300.204 441.247 299.249V292.625H444.309Z"></path><path style="fill:var(--color-illustrationHighlight010)" d="M454.026 291.191C453.49 291.191 453.041 291.025 452.679 290.692C452.332 290.344 452.158 289.917 452.158 289.41C452.158 288.904 452.332 288.484 452.679 288.151C453.041 287.803 453.49 287.629 454.026 287.629C454.562 287.629 455.003 287.803 455.351 288.151C455.713 288.484 455.894 288.904 455.894 289.41C455.894 289.917 455.713 290.344 455.351 290.692C455.003 291.025 454.562 291.191 454.026 291.191ZM455.524 292.625V304.656H452.484V292.625H455.524Z"></path><path style="fill:var(--color-illustrationHighlight010)" d="M462.069 295.122V300.943C462.069 301.348 462.163 301.645 462.351 301.833C462.554 302.007 462.887 302.094 463.35 302.094H464.762V304.656H462.85C460.288 304.656 459.006 303.411 459.006 300.921V295.122H457.573V292.625H459.006V289.649H462.069V292.625H464.762V295.122H462.069Z"></path><path style="fill:var(--color-illustrationHighlight010)" d="M478.133 298.38C478.133 298.814 478.104 299.205 478.046 299.553H469.251C469.323 300.421 469.627 301.102 470.163 301.594C470.699 302.086 471.357 302.333 472.139 302.333C473.268 302.333 474.072 301.847 474.55 300.877H477.829C477.482 302.036 476.816 302.991 475.831 303.744C474.847 304.483 473.638 304.852 472.204 304.852C471.046 304.852 470.004 304.598 469.077 304.092C468.165 303.57 467.448 302.839 466.927 301.898C466.42 300.957 466.167 299.871 466.167 298.64C466.167 297.395 466.42 296.302 466.927 295.361C467.434 294.42 468.143 293.696 469.055 293.189C469.967 292.682 471.017 292.429 472.204 292.429C473.348 292.429 474.369 292.675 475.267 293.167C476.179 293.66 476.881 294.362 477.373 295.274C477.88 296.172 478.133 297.207 478.133 298.38ZM474.984 297.511C474.97 296.729 474.687 296.107 474.137 295.643C473.587 295.166 472.914 294.927 472.117 294.927C471.365 294.927 470.727 295.158 470.206 295.622C469.699 296.07 469.388 296.7 469.272 297.511H474.984Z"></path><path style="fill:var(--color-illustrationHighlight010)" d="M495.295 292.451C496.771 292.451 497.959 292.907 498.856 293.819C499.769 294.717 500.225 295.976 500.225 297.598V304.656H497.184V298.011C497.184 297.07 496.945 296.353 496.467 295.861C495.99 295.354 495.338 295.1 494.513 295.1C493.688 295.1 493.029 295.354 492.536 295.861C492.059 296.353 491.82 297.07 491.82 298.011V304.656H488.779V298.011C488.779 297.07 488.54 296.353 488.063 295.861C487.585 295.354 486.933 295.1 486.108 295.1C485.268 295.1 484.602 295.354 484.11 295.861C483.632 296.353 483.393 297.07 483.393 298.011V304.656H480.353V292.625H483.393V294.08C483.784 293.573 484.284 293.175 484.892 292.885C485.514 292.596 486.195 292.451 486.933 292.451C487.874 292.451 488.714 292.654 489.453 293.059C490.191 293.45 490.763 294.015 491.168 294.753C491.559 294.058 492.124 293.501 492.862 293.081C493.615 292.661 494.426 292.451 495.295 292.451Z"></path><path style="fill:var(--color-illustrationHighlight010)" d="M513.628 304.852C512.469 304.852 511.427 304.598 510.5 304.092C509.574 303.57 508.842 302.839 508.307 301.898C507.785 300.957 507.525 299.871 507.525 298.64C507.525 297.41 507.793 296.324 508.328 295.383C508.879 294.442 509.624 293.718 510.565 293.211C511.506 292.69 512.556 292.429 513.714 292.429C514.873 292.429 515.922 292.69 516.864 293.211C517.805 293.718 518.543 294.442 519.079 295.383C519.629 296.324 519.904 297.41 519.904 298.64C519.904 299.871 519.622 300.957 519.057 301.898C518.507 302.839 517.754 303.57 516.798 304.092C515.857 304.598 514.8 304.852 513.628 304.852ZM513.628 302.202C514.178 302.202 514.692 302.072 515.17 301.811C515.662 301.536 516.053 301.131 516.342 300.595C516.632 300.059 516.777 299.408 516.777 298.64C516.777 297.497 516.473 296.621 515.865 296.013C515.271 295.39 514.54 295.079 513.671 295.079C512.802 295.079 512.071 295.39 511.477 296.013C510.898 296.621 510.609 297.497 510.609 298.64C510.609 299.784 510.891 300.667 511.456 301.29C512.035 301.898 512.759 302.202 513.628 302.202Z"></path><path style="fill:var(--color-illustrationHighlight010)" d="M528.802 292.451C530.235 292.451 531.394 292.907 532.277 293.819C533.16 294.717 533.602 295.976 533.602 297.598V304.656H530.561V298.011C530.561 297.055 530.322 296.324 529.844 295.817C529.367 295.296 528.715 295.035 527.89 295.035C527.05 295.035 526.384 295.296 525.892 295.817C525.414 296.324 525.175 297.055 525.175 298.011V304.656H522.134V292.625H525.175V294.123C525.58 293.602 526.094 293.196 526.717 292.907C527.354 292.603 528.049 292.451 528.802 292.451Z"></path><path style="fill:var(--color-illustrationHighlight010)" d="M547.678 298.38C547.678 298.814 547.649 299.205 547.591 299.553H538.795C538.867 300.421 539.172 301.102 539.707 301.594C540.243 302.086 540.902 302.333 541.684 302.333C542.813 302.333 543.616 301.847 544.094 300.877H547.374C547.026 302.036 546.36 302.991 545.376 303.744C544.391 304.483 543.182 304.852 541.749 304.852C540.59 304.852 539.548 304.598 538.621 304.092C537.709 303.57 536.992 302.839 536.471 301.898C535.964 300.957 535.711 299.871 535.711 298.64C535.711 297.395 535.964 296.302 536.471 295.361C536.978 294.42 537.687 293.696 538.6 293.189C539.512 292.682 540.561 292.429 541.749 292.429C542.893 292.429 543.913 292.675 544.811 293.167C545.723 293.66 546.425 294.362 546.918 295.274C547.424 296.172 547.678 297.207 547.678 298.38ZM544.529 297.511C544.514 296.729 544.232 296.107 543.682 295.643C543.131 295.166 542.458 294.927 541.662 294.927C540.909 294.927 540.272 295.158 539.751 295.622C539.244 296.07 538.933 296.7 538.817 297.511H544.529Z"></path><path style="fill:var(--color-illustrationHighlight010)" d="M342.217 350.59H547.678V353.305H342.217V350.59Z"></path><mask id="nk-355" mask-type="alpha" maskUnits="userSpaceOnUse" x="634" y="280" width="34" height="33"><path style="fill:var(--color-black)" fill-rule="evenodd" clip-rule="evenodd" d="M646.767 296.295C649.387 296.295 651.518 294.164 651.518 291.544C651.518 288.925 649.387 286.793 646.767 286.793C644.148 286.793 642.016 288.925 642.016 291.544C642.016 294.164 644.148 296.295 646.767 296.295ZM646.767 289.508C647.894 289.508 648.803 290.418 648.803 291.544C648.803 292.671 647.894 293.58 646.767 293.58C645.641 293.58 644.731 292.671 644.731 291.544C644.731 290.418 645.641 289.508 646.767 289.508ZM641.026 303.082H646.835C646.794 303.299 646.767 303.53 646.767 303.761V305.797H637.266V303.761C637.266 300.598 643.591 299.01 646.767 299.01C647.527 299.01 648.464 299.105 649.455 299.281C648.491 299.933 647.69 300.747 647.229 301.738C647.154 301.738 647.076 301.735 646.998 301.731C646.92 301.728 646.842 301.725 646.767 301.725C644.69 301.725 642.369 302.403 641.026 303.082ZM656.948 299.689C654.45 299.689 649.482 301.06 649.482 303.761V305.797H664.413V303.761C664.413 301.06 659.445 299.689 656.948 299.689ZM660.341 294.259C660.341 295.535 659.622 296.634 658.59 297.218C658.101 297.49 657.545 297.652 656.948 297.652C656.35 297.652 655.794 297.49 655.305 297.218C654.274 296.634 653.554 295.535 653.554 294.259C653.554 292.386 655.074 290.866 656.948 290.866C658.821 290.866 660.341 292.386 660.341 294.259Z"></path></mask><g mask="url(#nk-355)"><path style="fill:var(--color-illustrationSubtle010)" d="M634.551 280.006H667.128V312.583H634.551V280.006Z"></path></g><path style="fill:var(--color-illustrationSubtle010)" d="M694.516 289.497V304.656H691.475V294.796L687.414 304.656H685.112L681.029 294.796V304.656H677.988V289.497H681.441L686.263 300.769L691.084 289.497H694.516Z"></path><path style="fill:var(--color-illustrationSubtle010)" d="M708.707 298.38C708.707 298.814 708.678 299.205 708.62 299.553H699.824C699.896 300.421 700.2 301.102 700.736 301.594C701.272 302.086 701.931 302.333 702.712 302.333C703.842 302.333 704.645 301.847 705.123 300.877H708.403C708.055 302.036 707.389 302.991 706.404 303.744C705.42 304.483 704.211 304.852 702.778 304.852C701.619 304.852 700.577 304.598 699.65 304.092C698.738 303.57 698.021 302.839 697.5 301.898C696.993 300.957 696.74 299.871 696.74 298.64C696.74 297.395 696.993 296.302 697.5 295.361C698.007 294.42 698.716 293.696 699.628 293.189C700.541 292.682 701.59 292.429 702.778 292.429C703.921 292.429 704.942 292.675 705.84 293.167C706.752 293.66 707.454 294.362 707.946 295.274C708.453 296.172 708.707 297.207 708.707 298.38ZM705.557 297.511C705.543 296.729 705.261 296.107 704.71 295.643C704.16 295.166 703.487 294.927 702.691 294.927C701.938 294.927 701.301 295.158 700.78 295.622C700.273 296.07 699.961 296.7 699.846 297.511H705.557Z"></path><path style="fill:var(--color-illustrationSubtle010)" d="M717.593 292.451C719.027 292.451 720.185 292.907 721.068 293.819C721.951 294.717 722.393 295.976 722.393 297.598V304.656H719.353V298.011C719.353 297.055 719.114 296.324 718.636 295.817C718.158 295.296 717.506 295.035 716.681 295.035C715.841 295.035 715.175 295.296 714.683 295.817C714.205 296.324 713.966 297.055 713.966 298.011V304.656H710.926V292.625H713.966V294.123C714.372 293.602 714.886 293.196 715.508 292.907C716.145 292.603 716.84 292.451 717.593 292.451Z"></path><path style="fill:var(--color-illustrationSubtle010)" d="M736.643 292.625V304.656H733.581V303.136C733.19 303.657 732.676 304.07 732.039 304.374C731.416 304.664 730.736 304.808 729.997 304.808C729.056 304.808 728.224 304.613 727.5 304.222C726.776 303.817 726.204 303.23 725.784 302.463C725.379 301.681 725.176 300.754 725.176 299.683V292.625H728.216V299.249C728.216 300.204 728.455 300.943 728.933 301.464C729.411 301.971 730.062 302.224 730.888 302.224C731.727 302.224 732.386 301.971 732.864 301.464C733.342 300.943 733.581 300.204 733.581 299.249V292.625H736.643Z"></path><path style="fill:var(--color-illustrationSubtle010)" d="M746.36 291.191C745.824 291.191 745.375 291.025 745.013 290.692C744.666 290.344 744.492 289.917 744.492 289.41C744.492 288.904 744.666 288.484 745.013 288.151C745.375 287.803 745.824 287.629 746.36 287.629C746.896 287.629 747.337 287.803 747.685 288.151C748.047 288.484 748.228 288.904 748.228 289.41C748.228 289.917 748.047 290.344 747.685 290.692C747.337 291.025 746.896 291.191 746.36 291.191ZM747.858 292.625V304.656H744.818V292.625H747.858Z"></path><path style="fill:var(--color-illustrationSubtle010)" d="M754.403 295.122V300.943C754.403 301.348 754.497 301.645 754.685 301.833C754.888 302.007 755.221 302.094 755.684 302.094H757.096V304.656H755.184C752.622 304.656 751.34 303.411 751.34 300.921V295.122H749.907V292.625H751.34V289.649H754.403V292.625H757.096V295.122H754.403Z"></path><path style="fill:var(--color-illustrationSubtle010)" d="M770.467 298.38C770.467 298.814 770.438 299.205 770.38 299.553H761.585C761.657 300.421 761.961 301.102 762.497 301.594C763.033 302.086 763.691 302.333 764.473 302.333C765.602 302.333 766.406 301.847 766.884 300.877H770.163C769.816 302.036 769.15 302.991 768.165 303.744C767.181 304.483 765.972 304.852 764.538 304.852C763.38 304.852 762.338 304.598 761.411 304.092C760.499 303.57 759.782 302.839 759.261 301.898C758.754 300.957 758.501 299.871 758.501 298.64C758.501 297.395 758.754 296.302 759.261 295.361C759.768 294.42 760.477 293.696 761.389 293.189C762.301 292.682 763.351 292.429 764.538 292.429C765.682 292.429 766.703 292.675 767.601 293.167C768.513 293.66 769.215 294.362 769.707 295.274C770.214 296.172 770.467 297.207 770.467 298.38ZM767.318 297.511C767.304 296.729 767.021 296.107 766.471 295.643C765.921 295.166 765.248 294.927 764.451 294.927C763.699 294.927 763.061 295.158 762.54 295.622C762.033 296.07 761.722 296.7 761.606 297.511H767.318Z"></path><path style="fill:var(--color-illustrationSubtle010)" d="M787.629 292.451C789.105 292.451 790.293 292.907 791.19 293.819C792.103 294.717 792.559 295.976 792.559 297.598V304.656H789.518V298.011C789.518 297.07 789.279 296.353 788.801 295.861C788.324 295.354 787.672 295.1 786.847 295.1C786.022 295.1 785.363 295.354 784.87 295.861C784.393 296.353 784.154 297.07 784.154 298.011V304.656H781.113V298.011C781.113 297.07 780.874 296.353 780.397 295.861C779.919 295.354 779.267 295.1 778.442 295.1C777.602 295.1 776.936 295.354 776.444 295.861C775.966 296.353 775.727 297.07 775.727 298.011V304.656H772.687V292.625H775.727V294.08C776.118 293.573 776.618 293.175 777.226 292.885C777.848 292.596 778.529 292.451 779.267 292.451C780.208 292.451 781.048 292.654 781.786 293.059C782.525 293.45 783.097 294.015 783.502 294.753C783.893 294.058 784.458 293.501 785.196 293.081C785.949 292.661 786.76 292.451 787.629 292.451Z"></path><path style="fill:var(--color-illustrationSubtle010)" d="M804.159 295.122V300.943C804.159 301.348 804.253 301.645 804.441 301.833C804.644 302.007 804.977 302.094 805.44 302.094H806.852V304.656H804.941C802.378 304.656 801.097 303.411 801.097 300.921V295.122H799.663V292.625H801.097V289.649H804.159V292.625H806.852V295.122H804.159Z"></path><path style="fill:var(--color-illustrationSubtle010)" d="M825.718 292.625L822.2 304.656H818.921L816.727 296.251L814.534 304.656H811.232L807.692 292.625H810.776L812.905 301.79L815.207 292.625H818.421L820.68 301.768L822.808 292.625H825.718Z"></path><path style="fill:var(--color-illustrationSubtle010)" d="M832.706 304.852C831.548 304.852 830.505 304.598 829.579 304.092C828.652 303.57 827.921 302.839 827.385 301.898C826.864 300.957 826.603 299.871 826.603 298.64C826.603 297.41 826.871 296.324 827.407 295.383C827.957 294.442 828.703 293.718 829.644 293.211C830.585 292.69 831.635 292.429 832.793 292.429C833.951 292.429 835.001 292.69 835.942 293.211C836.883 293.718 837.622 294.442 838.157 295.383C838.708 296.324 838.983 297.41 838.983 298.64C838.983 299.871 838.7 300.957 838.136 301.898C837.585 302.839 836.833 303.57 835.877 304.092C834.936 304.598 833.879 304.852 832.706 304.852ZM832.706 302.202C833.256 302.202 833.77 302.072 834.248 301.811C834.74 301.536 835.131 301.131 835.421 300.595C835.71 300.059 835.855 299.408 835.855 298.64C835.855 297.497 835.551 296.621 834.943 296.013C834.349 295.39 833.618 295.079 832.75 295.079C831.881 295.079 831.15 295.39 830.556 296.013C829.977 296.621 829.687 297.497 829.687 298.64C829.687 299.784 829.97 300.667 830.534 301.29C831.113 301.898 831.837 302.202 832.706 302.202Z"></path><path style="fill:var(--color-illustrationInterface010)" d="M601.973 350.59H871.559V353.305H601.973V350.59Z"></path><mask id="nk-356" mask-type="alpha" maskUnits="userSpaceOnUse" x="925" y="280" width="34" height="33"><path style="fill:var(--color-black)" fill-rule="evenodd" clip-rule="evenodd" d="M928.572 296.295C928.572 288.802 934.653 282.721 942.146 282.721C949.639 282.721 955.72 288.802 955.72 296.295C955.72 303.788 949.639 309.869 942.146 309.869C934.653 309.869 928.572 303.788 928.572 296.295ZM940.789 304.439V301.724H943.504V304.439H940.789ZM942.146 307.154C936.16 307.154 931.287 302.281 931.287 296.295C931.287 290.309 936.16 285.436 942.146 285.436C948.132 285.436 953.005 290.309 953.005 296.295C953.005 302.281 948.132 307.154 942.146 307.154ZM936.717 293.58C936.717 290.58 939.146 288.151 942.146 288.151C945.146 288.151 947.576 290.58 947.576 293.58C947.576 295.322 946.503 296.259 945.459 297.171C944.469 298.037 943.504 298.88 943.504 300.367H940.789C940.789 297.895 942.068 296.915 943.192 296.053C944.074 295.377 944.861 294.774 944.861 293.58C944.861 292.087 943.639 290.865 942.146 290.865C940.653 290.865 939.431 292.087 939.431 293.58H936.717Z"></path></mask><g mask="url(#nk-356)"><path style="fill:var(--color-illustrationSubtle010)" d="M925.857 280.006H958.434V312.583H925.857V280.006Z"></path></g><path style="fill:var(--color-illustrationSubtle010)" d="M985.82 289.497V304.656H982.78V294.796L978.719 304.656H976.416L972.333 294.796V304.656H969.293V289.497H972.746L977.568 300.769L982.389 289.497H985.82Z"></path><path style="fill:var(--color-illustrationSubtle010)" d="M1000.01 298.38C1000.01 298.814 999.982 299.205 999.924 299.553H991.129C991.201 300.421 991.505 301.102 992.041 301.594C992.576 302.086 993.235 302.333 994.017 302.333C995.146 302.333 995.95 301.847 996.428 300.877H999.707C999.36 302.036 998.694 302.991 997.709 303.744C996.725 304.483 995.516 304.852 994.082 304.852C992.924 304.852 991.881 304.598 990.955 304.092C990.043 303.57 989.326 302.839 988.805 301.898C988.298 300.957 988.045 299.871 988.045 298.64C988.045 297.395 988.298 296.302 988.805 295.361C989.312 294.42 990.021 293.696 990.933 293.189C991.845 292.682 992.895 292.429 994.082 292.429C995.226 292.429 996.247 292.675 997.145 293.167C998.057 293.66 998.759 294.362 999.251 295.274C999.758 296.172 1000.01 297.207 1000.01 298.38ZM996.862 297.511C996.848 296.729 996.565 296.107 996.015 295.643C995.465 295.166 994.792 294.927 993.995 294.927C993.242 294.927 992.605 295.158 992.084 295.622C991.577 296.07 991.266 296.7 991.15 297.511H996.862Z"></path><path style="fill:var(--color-illustrationSubtle010)" d="M1008.9 292.451C1010.33 292.451 1011.49 292.907 1012.37 293.819C1013.26 294.717 1013.7 295.976 1013.7 297.598V304.656H1010.66V298.011C1010.66 297.055 1010.42 296.324 1009.94 295.817C1009.46 295.296 1008.81 295.035 1007.99 295.035C1007.15 295.035 1006.48 295.296 1005.99 295.817C1005.51 296.324 1005.27 297.055 1005.27 298.011V304.656H1002.23V292.625H1005.27V294.123C1005.68 293.602 1006.19 293.196 1006.81 292.907C1007.45 292.603 1008.15 292.451 1008.9 292.451Z"></path><path style="fill:var(--color-illustrationSubtle010)" d="M1027.95 292.625V304.656H1024.89V303.136C1024.49 303.657 1023.98 304.07 1023.34 304.374C1022.72 304.664 1022.04 304.808 1021.3 304.808C1020.36 304.808 1019.53 304.613 1018.8 304.222C1018.08 303.817 1017.51 303.23 1017.09 302.463C1016.68 301.681 1016.48 300.754 1016.48 299.683V292.625H1019.52V299.249C1019.52 300.204 1019.76 300.943 1020.24 301.464C1020.72 301.971 1021.37 302.224 1022.19 302.224C1023.03 302.224 1023.69 301.971 1024.17 301.464C1024.65 300.943 1024.89 300.204 1024.89 299.249V292.625H1027.95Z"></path><path style="fill:var(--color-illustrationSubtle010)" d="M1037.66 291.191C1037.13 291.191 1036.68 291.025 1036.32 290.692C1035.97 290.344 1035.8 289.917 1035.8 289.41C1035.8 288.904 1035.97 288.484 1036.32 288.151C1036.68 287.803 1037.13 287.629 1037.66 287.629C1038.2 287.629 1038.64 287.803 1038.99 288.151C1039.35 288.484 1039.53 288.904 1039.53 289.41C1039.53 289.917 1039.35 290.344 1038.99 290.692C1038.64 291.025 1038.2 291.191 1037.66 291.191ZM1039.16 292.625V304.656H1036.12V292.625H1039.16Z"></path><path style="fill:var(--color-illustrationSubtle010)" d="M1045.71 295.122V300.943C1045.71 301.348 1045.8 301.645 1045.99 301.833C1046.19 302.007 1046.53 302.094 1046.99 302.094H1048.4V304.656H1046.49C1043.93 304.656 1042.65 303.411 1042.65 300.921V295.122H1041.21V292.625H1042.65V289.649H1045.71V292.625H1048.4V295.122H1045.71Z"></path><path style="fill:var(--color-illustrationSubtle010)" d="M1061.77 298.38C1061.77 298.814 1061.74 299.205 1061.69 299.553H1052.89C1052.96 300.421 1053.27 301.102 1053.8 301.594C1054.34 302.086 1055 302.333 1055.78 302.333C1056.91 302.333 1057.71 301.847 1058.19 300.877H1061.47C1061.12 302.036 1060.45 302.991 1059.47 303.744C1058.49 304.483 1057.28 304.852 1055.84 304.852C1054.68 304.852 1053.64 304.598 1052.72 304.092C1051.8 303.57 1051.09 302.839 1050.57 301.898C1050.06 300.957 1049.81 299.871 1049.81 298.64C1049.81 297.395 1050.06 296.302 1050.57 295.361C1051.07 294.42 1051.78 293.696 1052.69 293.189C1053.61 292.682 1054.66 292.429 1055.84 292.429C1056.99 292.429 1058.01 292.675 1058.91 293.167C1059.82 293.66 1060.52 294.362 1061.01 295.274C1061.52 296.172 1061.77 297.207 1061.77 298.38ZM1058.62 297.511C1058.61 296.729 1058.33 296.107 1057.78 295.643C1057.23 295.166 1056.55 294.927 1055.76 294.927C1055 294.927 1054.37 295.158 1053.84 295.622C1053.34 296.07 1053.03 296.7 1052.91 297.511H1058.62Z"></path><path style="fill:var(--color-illustrationSubtle010)" d="M1078.93 292.451C1080.41 292.451 1081.6 292.907 1082.5 293.819C1083.41 294.717 1083.86 295.976 1083.86 297.598V304.656H1080.82V298.011C1080.82 297.07 1080.58 296.353 1080.11 295.861C1079.63 295.354 1078.98 295.1 1078.15 295.1C1077.33 295.1 1076.67 295.354 1076.18 295.861C1075.7 296.353 1075.46 297.07 1075.46 298.011V304.656H1072.42V298.011C1072.42 297.07 1072.18 296.353 1071.7 295.861C1071.22 295.354 1070.57 295.1 1069.75 295.1C1068.91 295.1 1068.24 295.354 1067.75 295.861C1067.27 296.353 1067.03 297.07 1067.03 298.011V304.656H1063.99V292.625H1067.03V294.08C1067.42 293.573 1067.92 293.175 1068.53 292.885C1069.15 292.596 1069.83 292.451 1070.57 292.451C1071.51 292.451 1072.35 292.654 1073.09 293.059C1073.83 293.45 1074.4 294.015 1074.81 294.753C1075.2 294.058 1075.76 293.501 1076.5 293.081C1077.25 292.661 1078.06 292.451 1078.93 292.451Z"></path><path style="fill:var(--color-illustrationSubtle010)" d="M1095.46 295.122V300.943C1095.46 301.348 1095.56 301.645 1095.75 301.833C1095.95 302.007 1096.28 302.094 1096.75 302.094H1098.16V304.656H1096.25C1093.68 304.656 1092.4 303.411 1092.4 300.921V295.122H1090.97V292.625H1092.4V289.649H1095.46V292.625H1098.16V295.122H1095.46Z"></path><path style="fill:var(--color-illustrationSubtle010)" d="M1107.12 292.451C1108.03 292.451 1108.84 292.654 1109.55 293.059C1110.26 293.45 1110.81 294.036 1111.2 294.818C1111.61 295.585 1111.81 296.512 1111.81 297.598V304.656H1108.77V298.011C1108.77 297.055 1108.53 296.324 1108.05 295.817C1107.58 295.296 1106.92 295.035 1106.1 295.035C1105.26 295.035 1104.59 295.296 1104.1 295.817C1103.62 296.324 1103.38 297.055 1103.38 298.011V304.656H1100.34V288.585H1103.38V294.123C1103.78 293.602 1104.3 293.196 1104.95 292.907C1105.6 292.603 1106.32 292.451 1107.12 292.451Z"></path><path style="fill:var(--color-illustrationSubtle010)" d="M1117.74 294.492C1118.13 293.855 1118.64 293.356 1119.26 292.994C1119.9 292.632 1120.62 292.451 1121.43 292.451V295.643H1120.63C1119.68 295.643 1118.95 295.868 1118.46 296.317C1117.98 296.765 1117.74 297.547 1117.74 298.662V304.656H1114.7V292.625H1117.74V294.492Z"></path><path style="fill:var(--color-illustrationSubtle010)" d="M1134.67 298.38C1134.67 298.814 1134.64 299.205 1134.58 299.553H1125.78C1125.86 300.421 1126.16 301.102 1126.7 301.594C1127.23 302.086 1127.89 302.333 1128.67 302.333C1129.8 302.333 1130.61 301.847 1131.08 300.877H1134.36C1134.02 302.036 1133.35 302.991 1132.37 303.744C1131.38 304.483 1130.17 304.852 1128.74 304.852C1127.58 304.852 1126.54 304.598 1125.61 304.092C1124.7 303.57 1123.98 302.839 1123.46 301.898C1122.95 300.957 1122.7 299.871 1122.7 298.64C1122.7 297.395 1122.95 296.302 1123.46 295.361C1123.97 294.42 1124.68 293.696 1125.59 293.189C1126.5 292.682 1127.55 292.429 1128.74 292.429C1129.88 292.429 1130.9 292.675 1131.8 293.167C1132.71 293.66 1133.42 294.362 1133.91 295.274C1134.41 296.172 1134.67 297.207 1134.67 298.38ZM1131.52 297.511C1131.5 296.729 1131.22 296.107 1130.67 295.643C1130.12 295.166 1129.45 294.927 1128.65 294.927C1127.9 294.927 1127.26 295.158 1126.74 295.622C1126.23 296.07 1125.92 296.7 1125.81 297.511H1131.52Z"></path><path style="fill:var(--color-illustrationSubtle010)" d="M1148.07 298.38C1148.07 298.814 1148.04 299.205 1147.98 299.553H1139.19C1139.26 300.421 1139.57 301.102 1140.1 301.594C1140.64 302.086 1141.3 302.333 1142.08 302.333C1143.21 302.333 1144.01 301.847 1144.49 300.877H1147.77C1147.42 302.036 1146.75 302.991 1145.77 303.744C1144.78 304.483 1143.58 304.852 1142.14 304.852C1140.98 304.852 1139.94 304.598 1139.02 304.092C1138.1 303.57 1137.39 302.839 1136.87 301.898C1136.36 300.957 1136.1 299.871 1136.1 298.64C1136.1 297.395 1136.36 296.302 1136.87 295.361C1137.37 294.42 1138.08 293.696 1138.99 293.189C1139.91 292.682 1140.96 292.429 1142.14 292.429C1143.29 292.429 1144.31 292.675 1145.2 293.167C1146.12 293.66 1146.82 294.362 1147.31 295.274C1147.82 296.172 1148.07 297.207 1148.07 298.38ZM1144.92 297.511C1144.91 296.729 1144.63 296.107 1144.08 295.643C1143.53 295.166 1142.85 294.927 1142.06 294.927C1141.3 294.927 1140.67 295.158 1140.14 295.622C1139.64 296.07 1139.33 296.7 1139.21 297.511H1144.92Z"></path><path style="fill:var(--color-illustrationInterface010)" d="M925.854 350.59H1148.07V353.305H925.854V350.59Z"></path><g filter="url(#nk-359)"><path style="fill:var(--color-illustrationInterface010)" d="M287.922 549.789C287.922 544.544 292.174 540.292 297.419 540.292H1192.53C1197.77 540.292 1202.02 544.544 1202.02 549.789V642.387C1202.02 647.632 1197.77 651.884 1192.53 651.884H297.419C292.174 651.884 287.922 647.632 287.922 642.387V549.789Z"></path></g><path style="fill:var(--color-illustrationSubtle010)" d="M358.746 587.802V602.961H355.706V593.101L351.644 602.961H349.342L345.259 593.101V602.961H342.219V587.802H345.672L350.493 599.074L355.315 587.802H358.746Z"></path><path style="fill:var(--color-illustrationSubtle010)" d="M372.937 596.685C372.937 597.119 372.908 597.51 372.85 597.857H364.054C364.127 598.726 364.431 599.407 364.967 599.899C365.502 600.391 366.161 600.637 366.943 600.637C368.072 600.637 368.876 600.152 369.354 599.182H372.633C372.286 600.34 371.62 601.296 370.635 602.049C369.65 602.787 368.441 603.156 367.008 603.156C365.85 603.156 364.807 602.903 363.881 602.396C362.968 601.875 362.252 601.144 361.731 600.203C361.224 599.262 360.97 598.176 360.97 596.945C360.97 595.7 361.224 594.607 361.731 593.666C362.237 592.725 362.947 592.001 363.859 591.494C364.771 590.987 365.821 590.734 367.008 590.734C368.152 590.734 369.173 590.98 370.07 591.472C370.982 591.964 371.685 592.667 372.177 593.579C372.684 594.477 372.937 595.512 372.937 596.685ZM369.788 595.816C369.773 595.034 369.491 594.411 368.941 593.948C368.391 593.47 367.717 593.231 366.921 593.231C366.168 593.231 365.531 593.463 365.01 593.926C364.503 594.375 364.192 595.005 364.076 595.816H369.788Z"></path><path style="fill:var(--color-illustrationSubtle010)" d="M381.824 590.755C383.257 590.755 384.416 591.212 385.299 592.124C386.182 593.021 386.624 594.281 386.624 595.903V602.961H383.583V596.315C383.583 595.36 383.344 594.629 382.866 594.122C382.388 593.601 381.737 593.34 380.912 593.34C380.072 593.34 379.406 593.601 378.914 594.122C378.436 594.629 378.197 595.36 378.197 596.315V602.961H375.156V590.929H378.197V592.428C378.602 591.907 379.116 591.501 379.739 591.212C380.376 590.908 381.071 590.755 381.824 590.755Z"></path><path style="fill:var(--color-illustrationSubtle010)" d="M400.873 590.929V602.961H397.811V601.441C397.42 601.962 396.906 602.375 396.269 602.679C395.647 602.968 394.966 603.113 394.228 603.113C393.287 603.113 392.454 602.918 391.73 602.527C391.006 602.121 390.434 601.535 390.014 600.768C389.609 599.986 389.406 599.059 389.406 597.988V590.929H392.447V597.553C392.447 598.509 392.686 599.247 393.164 599.768C393.641 600.275 394.293 600.529 395.118 600.529C395.958 600.529 396.617 600.275 397.094 599.768C397.572 599.247 397.811 598.509 397.811 597.553V590.929H400.873Z"></path><path style="fill:var(--color-illustrationSubtle010)" d="M410.59 589.496C410.055 589.496 409.606 589.329 409.244 588.996C408.896 588.649 408.723 588.222 408.723 587.715C408.723 587.208 408.896 586.788 409.244 586.455C409.606 586.108 410.055 585.934 410.59 585.934C411.126 585.934 411.568 586.108 411.915 586.455C412.277 586.788 412.458 587.208 412.458 587.715C412.458 588.222 412.277 588.649 411.915 588.996C411.568 589.329 411.126 589.496 410.59 589.496ZM412.089 590.929V602.961H409.048V590.929H412.089Z"></path><path style="fill:var(--color-illustrationSubtle010)" d="M418.633 593.427V599.247C418.633 599.653 418.727 599.949 418.915 600.138C419.118 600.311 419.451 600.398 419.914 600.398H421.326V602.961H419.415C416.852 602.961 415.571 601.716 415.571 599.226V593.427H414.137V590.929H415.571V587.954H418.633V590.929H421.326V593.427H418.633Z"></path><path style="fill:var(--color-illustrationSubtle010)" d="M434.698 596.685C434.698 597.119 434.669 597.51 434.611 597.857H425.815C425.887 598.726 426.192 599.407 426.727 599.899C427.263 600.391 427.922 600.637 428.704 600.637C429.833 600.637 430.637 600.152 431.114 599.182H434.394C434.046 600.34 433.38 601.296 432.396 602.049C431.411 602.787 430.202 603.156 428.769 603.156C427.61 603.156 426.568 602.903 425.641 602.396C424.729 601.875 424.012 601.144 423.491 600.203C422.985 599.262 422.731 598.176 422.731 596.945C422.731 595.7 422.985 594.607 423.491 593.666C423.998 592.725 424.707 592.001 425.62 591.494C426.532 590.987 427.581 590.734 428.769 590.734C429.913 590.734 430.933 590.98 431.831 591.472C432.743 591.964 433.445 592.667 433.938 593.579C434.444 594.477 434.698 595.512 434.698 596.685ZM431.549 595.816C431.534 595.034 431.252 594.411 430.702 593.948C430.151 593.47 429.478 593.231 428.682 593.231C427.929 593.231 427.292 593.463 426.771 593.926C426.264 594.375 425.953 595.005 425.837 595.816H431.549Z"></path><path style="fill:var(--color-illustrationSubtle010)" d="M451.859 590.755C453.336 590.755 454.523 591.212 455.421 592.124C456.333 593.021 456.789 594.281 456.789 595.903V602.961H453.749V596.315C453.749 595.374 453.51 594.658 453.032 594.165C452.554 593.658 451.903 593.405 451.077 593.405C450.252 593.405 449.593 593.658 449.101 594.165C448.623 594.658 448.384 595.374 448.384 596.315V602.961H445.344V596.315C445.344 595.374 445.105 594.658 444.627 594.165C444.149 593.658 443.498 593.405 442.672 593.405C441.833 593.405 441.167 593.658 440.674 594.165C440.197 594.658 439.958 595.374 439.958 596.315V602.961H436.917V590.929H439.958V592.384C440.349 591.878 440.848 591.479 441.456 591.19C442.079 590.9 442.759 590.755 443.498 590.755C444.439 590.755 445.279 590.958 446.017 591.364C446.755 591.755 447.327 592.319 447.733 593.058C448.124 592.363 448.688 591.805 449.427 591.385C450.18 590.965 450.99 590.755 451.859 590.755Z"></path><path style="fill:var(--color-illustrationSubtle010)" d="M470.192 603.156C469.034 603.156 467.991 602.903 467.065 602.396C466.138 601.875 465.407 601.144 464.871 600.203C464.35 599.262 464.089 598.176 464.089 596.945C464.089 595.714 464.357 594.629 464.893 593.687C465.443 592.746 466.189 592.022 467.13 591.516C468.071 590.994 469.121 590.734 470.279 590.734C471.437 590.734 472.487 590.994 473.428 591.516C474.369 592.022 475.108 592.746 475.643 593.687C476.193 594.629 476.469 595.714 476.469 596.945C476.469 598.176 476.186 599.262 475.622 600.203C475.071 601.144 474.318 601.875 473.363 602.396C472.422 602.903 471.365 603.156 470.192 603.156ZM470.192 600.507C470.742 600.507 471.256 600.377 471.734 600.116C472.226 599.841 472.617 599.435 472.907 598.9C473.196 598.364 473.341 597.713 473.341 596.945C473.341 595.801 473.037 594.925 472.429 594.317C471.835 593.695 471.104 593.383 470.235 593.383C469.367 593.383 468.636 593.695 468.042 594.317C467.463 594.925 467.173 595.801 467.173 596.945C467.173 598.089 467.456 598.972 468.02 599.595C468.599 600.203 469.323 600.507 470.192 600.507Z"></path><path style="fill:var(--color-illustrationSubtle010)" d="M485.366 590.755C486.8 590.755 487.958 591.212 488.841 592.124C489.724 593.021 490.166 594.281 490.166 595.903V602.961H487.125V596.315C487.125 595.36 486.887 594.629 486.409 594.122C485.931 593.601 485.279 593.34 484.454 593.34C483.614 593.34 482.948 593.601 482.456 594.122C481.978 594.629 481.739 595.36 481.739 596.315V602.961H478.699V590.929H481.739V592.428C482.145 591.907 482.659 591.501 483.281 591.212C483.918 590.908 484.613 590.755 485.366 590.755Z"></path><path style="fill:var(--color-illustrationSubtle010)" d="M504.242 596.685C504.242 597.119 504.213 597.51 504.155 597.857H495.36C495.432 598.726 495.736 599.407 496.272 599.899C496.807 600.391 497.466 600.637 498.248 600.637C499.377 600.637 500.181 600.152 500.659 599.182H503.938C503.591 600.34 502.925 601.296 501.94 602.049C500.956 602.787 499.747 603.156 498.313 603.156C497.155 603.156 496.112 602.903 495.186 602.396C494.274 601.875 493.557 601.144 493.036 600.203C492.529 599.262 492.276 598.176 492.276 596.945C492.276 595.7 492.529 594.607 493.036 593.666C493.542 592.725 494.252 592.001 495.164 591.494C496.076 590.987 497.126 590.734 498.313 590.734C499.457 590.734 500.478 590.98 501.375 591.472C502.288 591.964 502.99 592.667 503.482 593.579C503.989 594.477 504.242 595.512 504.242 596.685ZM501.093 595.816C501.079 595.034 500.796 594.411 500.246 593.948C499.696 593.47 499.023 593.231 498.226 593.231C497.473 593.231 496.836 593.463 496.315 593.926C495.808 594.375 495.497 595.005 495.381 595.816H501.093Z"></path><mask id="nk-357" mask-type="alpha" maskUnits="userSpaceOnUse" x="515" y="578" width="33" height="33"><path style="fill:var(--color-black)" fill-rule="evenodd" clip-rule="evenodd" d="M530.033 595.957H519.174V582.383H530.033V595.957ZM530.033 606.816H519.174V598.672H530.033V606.816ZM532.748 606.816H543.607V593.242H532.748V606.816ZM532.748 590.528V582.383H543.607V590.528H532.748Z"></path></mask><g mask="url(#nk-357)"><path style="fill:var(--color-illustrationSubtle010)" d="M515.102 578.311H547.679V610.888H515.102V578.311Z"></path></g><path style="fill:var(--color-illustrationInterface010)" d="M342.217 648.895H547.678V651.61H342.217V648.895Z"></path><path style="fill:var(--color-illustrationSubtle010)" d="M651.078 587.802V602.961H648.038V593.101L643.976 602.961H641.674L637.591 593.101V602.961H634.551V587.802H638.004L642.825 599.074L647.647 587.802H651.078Z"></path><path style="fill:var(--color-illustrationSubtle010)" d="M665.269 596.685C665.269 597.119 665.24 597.51 665.182 597.857H656.386C656.459 598.726 656.763 599.407 657.299 599.899C657.834 600.391 658.493 600.637 659.275 600.637C660.404 600.637 661.208 600.152 661.686 599.182H664.965C664.618 600.34 663.952 601.296 662.967 602.049C661.982 602.787 660.773 603.156 659.34 603.156C658.182 603.156 657.139 602.903 656.213 602.396C655.301 601.875 654.584 601.144 654.063 600.203C653.556 599.262 653.302 598.176 653.302 596.945C653.302 595.7 653.556 594.607 654.063 593.666C654.569 592.725 655.279 592.001 656.191 591.494C657.103 590.987 658.153 590.734 659.34 590.734C660.484 590.734 661.505 590.98 662.402 591.472C663.314 591.964 664.017 592.667 664.509 593.579C665.016 594.477 665.269 595.512 665.269 596.685ZM662.12 595.816C662.106 595.034 661.823 594.411 661.273 593.948C660.723 593.47 660.05 593.231 659.253 593.231C658.5 593.231 657.863 593.463 657.342 593.926C656.835 594.375 656.524 595.005 656.408 595.816H662.12Z"></path><path style="fill:var(--color-illustrationSubtle010)" d="M674.156 590.755C675.589 590.755 676.748 591.212 677.631 592.124C678.514 593.021 678.956 594.281 678.956 595.903V602.961H675.915V596.315C675.915 595.36 675.676 594.629 675.198 594.122C674.721 593.601 674.069 593.34 673.244 593.34C672.404 593.34 671.738 593.601 671.246 594.122C670.768 594.629 670.529 595.36 670.529 596.315V602.961H667.488V590.929H670.529V592.428C670.934 591.907 671.448 591.501 672.071 591.212C672.708 590.908 673.403 590.755 674.156 590.755Z"></path><path style="fill:var(--color-illustrationSubtle010)" d="M693.205 590.929V602.961H690.143V601.441C689.752 601.962 689.238 602.375 688.601 602.679C687.979 602.968 687.298 603.113 686.56 603.113C685.619 603.113 684.786 602.918 684.062 602.527C683.338 602.121 682.766 601.535 682.346 600.768C681.941 599.986 681.738 599.059 681.738 597.988V590.929H684.779V597.553C684.779 598.509 685.018 599.247 685.496 599.768C685.973 600.275 686.625 600.529 687.45 600.529C688.29 600.529 688.949 600.275 689.427 599.768C689.904 599.247 690.143 598.509 690.143 597.553V590.929H693.205Z"></path><path style="fill:var(--color-illustrationSubtle010)" d="M702.922 589.496C702.387 589.496 701.938 589.329 701.576 588.996C701.228 588.649 701.055 588.222 701.055 587.715C701.055 587.208 701.228 586.788 701.576 586.455C701.938 586.108 702.387 585.934 702.922 585.934C703.458 585.934 703.9 586.108 704.247 586.455C704.609 586.788 704.79 587.208 704.79 587.715C704.79 588.222 704.609 588.649 704.247 588.996C703.9 589.329 703.458 589.496 702.922 589.496ZM704.421 590.929V602.961H701.38V590.929H704.421Z"></path><path style="fill:var(--color-illustrationSubtle010)" d="M710.965 593.427V599.247C710.965 599.653 711.059 599.949 711.247 600.138C711.45 600.311 711.783 600.398 712.246 600.398H713.658V602.961H711.747C709.184 602.961 707.903 601.716 707.903 599.226V593.427H706.469V590.929H707.903V587.954H710.965V590.929H713.658V593.427H710.965Z"></path><path style="fill:var(--color-illustrationSubtle010)" d="M727.03 596.685C727.03 597.119 727.001 597.51 726.943 597.857H718.147C718.22 598.726 718.524 599.407 719.059 599.899C719.595 600.391 720.254 600.637 721.036 600.637C722.165 600.637 722.969 600.152 723.446 599.182H726.726C726.378 600.34 725.712 601.296 724.728 602.049C723.743 602.787 722.534 603.156 721.101 603.156C719.942 603.156 718.9 602.903 717.973 602.396C717.061 601.875 716.345 601.144 715.823 600.203C715.317 599.262 715.063 598.176 715.063 596.945C715.063 595.7 715.317 594.607 715.823 593.666C716.33 592.725 717.039 592.001 717.952 591.494C718.864 590.987 719.914 590.734 721.101 590.734C722.245 590.734 723.265 590.98 724.163 591.472C725.075 591.964 725.777 592.667 726.27 593.579C726.776 594.477 727.03 595.512 727.03 596.685ZM723.881 595.816C723.866 595.034 723.584 594.411 723.034 593.948C722.483 593.47 721.81 593.231 721.014 593.231C720.261 593.231 719.624 593.463 719.103 593.926C718.596 594.375 718.285 595.005 718.169 595.816H723.881Z"></path><path style="fill:var(--color-illustrationSubtle010)" d="M744.191 590.755C745.668 590.755 746.855 591.212 747.753 592.124C748.665 593.021 749.121 594.281 749.121 595.903V602.961H746.081V596.315C746.081 595.374 745.842 594.658 745.364 594.165C744.886 593.658 744.235 593.405 743.409 593.405C742.584 593.405 741.925 593.658 741.433 594.165C740.955 594.658 740.716 595.374 740.716 596.315V602.961H737.676V596.315C737.676 595.374 737.437 594.658 736.959 594.165C736.481 593.658 735.83 593.405 735.004 593.405C734.165 593.405 733.499 593.658 733.006 594.165C732.529 594.658 732.29 595.374 732.29 596.315V602.961H729.249V590.929H732.29V592.384C732.681 591.878 733.18 591.479 733.788 591.19C734.411 590.9 735.091 590.755 735.83 590.755C736.771 590.755 737.611 590.958 738.349 591.364C739.087 591.755 739.659 592.319 740.065 593.058C740.456 592.363 741.02 591.805 741.759 591.385C742.512 590.965 743.322 590.755 744.191 590.755Z"></path><path style="fill:var(--color-illustrationSubtle010)" d="M760.721 593.427V599.247C760.721 599.653 760.816 599.949 761.004 600.138C761.206 600.311 761.54 600.398 762.003 600.398H763.415V602.961H761.503C758.941 602.961 757.659 601.716 757.659 599.226V593.427H756.226V590.929H757.659V587.954H760.721V590.929H763.415V593.427H760.721Z"></path><path style="fill:var(--color-illustrationSubtle010)" d="M782.281 590.929L778.763 602.961H775.483L773.29 594.556L771.096 602.961H767.795L764.255 590.929H767.339L769.467 600.094L771.769 590.929H774.984L777.242 600.073L779.371 590.929H782.281Z"></path><path style="fill:var(--color-illustrationSubtle010)" d="M789.269 603.156C788.11 603.156 787.068 602.903 786.141 602.396C785.215 601.875 784.483 601.144 783.948 600.203C783.426 599.262 783.166 598.176 783.166 596.945C783.166 595.714 783.434 594.629 783.969 593.687C784.52 592.746 785.265 592.022 786.206 591.516C787.148 590.994 788.197 590.734 789.356 590.734C790.514 590.734 791.564 590.994 792.505 591.516C793.446 592.022 794.184 592.746 794.72 593.687C795.27 594.629 795.545 595.714 795.545 596.945C795.545 598.176 795.263 599.262 794.698 600.203C794.148 601.144 793.395 601.875 792.439 602.396C791.498 602.903 790.441 603.156 789.269 603.156ZM789.269 600.507C789.819 600.507 790.333 600.377 790.811 600.116C791.303 599.841 791.694 599.435 791.983 598.9C792.273 598.364 792.418 597.713 792.418 596.945C792.418 595.801 792.114 594.925 791.506 594.317C790.912 593.695 790.181 593.383 789.312 593.383C788.443 593.383 787.712 593.695 787.119 594.317C786.539 594.925 786.25 595.801 786.25 596.945C786.25 598.089 786.532 598.972 787.097 599.595C787.676 600.203 788.4 600.507 789.269 600.507Z"></path><path style="fill:var(--color-illustrationSubtle010)" fill-rule="evenodd" clip-rule="evenodd" d="M822.681 589.17C822.681 591.424 820.876 593.242 818.623 593.242C816.369 593.242 814.551 591.424 814.551 589.17C814.551 586.917 816.369 585.098 818.623 585.098C820.876 585.098 822.681 586.917 822.681 589.17ZM832.183 591.206C832.183 593.08 830.676 594.6 828.803 594.6C826.93 594.6 825.41 593.08 825.41 591.206C825.41 589.333 826.93 587.813 828.803 587.813C830.676 587.813 832.183 589.333 832.183 591.206ZM828.803 597.315C826.319 597.315 821.337 598.563 821.337 601.047V604.101H836.269V601.047C836.269 598.563 831.287 597.315 828.803 597.315ZM809.121 600.708C809.121 597.545 815.46 595.957 818.623 595.957C819.519 595.957 820.659 596.093 821.84 596.337C819.071 597.871 818.623 599.894 818.623 601.047V604.101H809.121V600.708Z"></path><path style="fill:var(--color-illustrationInterface010)" d="M601.973 648.895H871.559V651.61H601.973V648.895Z"></path><path style="fill:var(--color-illustrationHighlight010)" fill-rule="evenodd" clip-rule="evenodd" d="M1131.78 581.026C1124.29 581.026 1118.21 587.107 1118.21 594.6C1118.21 602.092 1124.29 608.173 1131.78 608.173C1139.28 608.173 1145.36 602.092 1145.36 594.6C1145.36 587.107 1139.28 581.026 1131.78 581.026ZM1133.14 604.101H1130.43V601.386H1133.14V604.101ZM1134.73 594.83L1135.95 593.582C1136.72 592.808 1137.21 591.722 1137.21 590.527C1137.21 587.528 1134.78 585.098 1131.78 585.098C1128.78 585.098 1126.35 587.528 1126.35 590.527H1129.07C1129.07 589.034 1130.29 587.813 1131.78 587.813C1133.28 587.813 1134.5 589.034 1134.5 590.527C1134.5 591.274 1134.2 591.953 1133.7 592.441L1132.01 594.152C1131.04 595.143 1130.43 596.5 1130.43 597.993V598.672H1133.14C1133.14 596.636 1133.75 595.821 1134.73 594.83Z"></path><path style="fill:var(--color-illustrationHighlight010)" d="M942.385 587.802V602.961H939.344V593.101L935.283 602.961H932.981L928.898 593.101V602.961H925.857V587.802H929.311L934.132 599.074L938.953 587.802H942.385Z"></path><path style="fill:var(--color-illustrationHighlight010)" d="M956.576 596.685C956.576 597.119 956.547 597.51 956.489 597.857H947.693C947.765 598.726 948.07 599.407 948.605 599.899C949.141 600.391 949.8 600.637 950.582 600.637C951.711 600.637 952.514 600.152 952.992 599.182H956.272C955.924 600.34 955.258 601.296 954.274 602.049C953.289 602.787 952.08 603.156 950.647 603.156C949.488 603.156 948.446 602.903 947.519 602.396C946.607 601.875 945.89 601.144 945.369 600.203C944.862 599.262 944.609 598.176 944.609 596.945C944.609 595.7 944.862 594.607 945.369 593.666C945.876 592.725 946.585 592.001 947.498 591.494C948.41 590.987 949.459 590.734 950.647 590.734C951.791 590.734 952.811 590.98 953.709 591.472C954.621 591.964 955.323 592.667 955.816 593.579C956.322 594.477 956.576 595.512 956.576 596.685ZM953.427 595.816C953.412 595.034 953.13 594.411 952.58 593.948C952.029 593.47 951.356 593.231 950.56 593.231C949.807 593.231 949.17 593.463 948.649 593.926C948.142 594.375 947.831 595.005 947.715 595.816H953.427Z"></path><path style="fill:var(--color-illustrationHighlight010)" d="M965.462 590.755C966.896 590.755 968.054 591.212 968.937 592.124C969.821 593.021 970.262 594.281 970.262 595.903V602.961H967.222V596.315C967.222 595.36 966.983 594.629 966.505 594.122C966.027 593.601 965.376 593.34 964.55 593.34C963.711 593.34 963.045 593.601 962.552 594.122C962.074 594.629 961.836 595.36 961.836 596.315V602.961H958.795V590.929H961.836V592.428C962.241 591.907 962.755 591.501 963.378 591.212C964.015 590.908 964.71 590.755 965.462 590.755Z"></path><path style="fill:var(--color-illustrationHighlight010)" d="M984.512 590.929V602.961H981.45V601.441C981.059 601.962 980.545 602.375 979.908 602.679C979.285 602.968 978.605 603.113 977.866 603.113C976.925 603.113 976.093 602.918 975.369 602.527C974.645 602.121 974.073 601.535 973.653 600.768C973.248 599.986 973.045 599.059 973.045 597.988V590.929H976.086V597.553C976.086 598.509 976.324 599.247 976.802 599.768C977.28 600.275 977.932 600.529 978.757 600.529C979.597 600.529 980.255 600.275 980.733 599.768C981.211 599.247 981.45 598.509 981.45 597.553V590.929H984.512Z"></path><path style="fill:var(--color-illustrationHighlight010)" d="M994.229 589.496C993.693 589.496 993.245 589.329 992.883 588.996C992.535 588.649 992.361 588.222 992.361 587.715C992.361 587.208 992.535 586.788 992.883 586.455C993.245 586.108 993.693 585.934 994.229 585.934C994.765 585.934 995.206 586.108 995.554 586.455C995.916 586.788 996.097 587.208 996.097 587.715C996.097 588.222 995.916 588.649 995.554 588.996C995.206 589.329 994.765 589.496 994.229 589.496ZM995.728 590.929V602.961H992.687V590.929H995.728Z"></path><path style="fill:var(--color-illustrationHighlight010)" d="M1002.27 593.427V599.247C1002.27 599.653 1002.37 599.949 1002.55 600.138C1002.76 600.311 1003.09 600.398 1003.55 600.398H1004.96V602.961H1003.05C1000.49 602.961 999.209 601.716 999.209 599.226V593.427H997.776V590.929H999.209V587.954H1002.27V590.929H1004.96V593.427H1002.27Z"></path><path style="fill:var(--color-illustrationHighlight010)" d="M1018.34 596.685C1018.34 597.119 1018.31 597.51 1018.25 597.857H1009.45C1009.53 598.726 1009.83 599.407 1010.37 599.899C1010.9 600.391 1011.56 600.637 1012.34 600.637C1013.47 600.637 1014.28 600.152 1014.75 599.182H1018.03C1017.68 600.34 1017.02 601.296 1016.03 602.049C1015.05 602.787 1013.84 603.156 1012.41 603.156C1011.25 603.156 1010.21 602.903 1009.28 602.396C1008.37 601.875 1007.65 601.144 1007.13 600.203C1006.62 599.262 1006.37 598.176 1006.37 596.945C1006.37 595.7 1006.62 594.607 1007.13 593.666C1007.64 592.725 1008.35 592.001 1009.26 591.494C1010.17 590.987 1011.22 590.734 1012.41 590.734C1013.55 590.734 1014.57 590.98 1015.47 591.472C1016.38 591.964 1017.08 592.667 1017.58 593.579C1018.08 594.477 1018.34 595.512 1018.34 596.685ZM1015.19 595.816C1015.17 595.034 1014.89 594.411 1014.34 593.948C1013.79 593.47 1013.12 593.231 1012.32 593.231C1011.57 593.231 1010.93 593.463 1010.41 593.926C1009.9 594.375 1009.59 595.005 1009.48 595.816H1015.19Z"></path><path style="fill:var(--color-illustrationHighlight010)" d="M1035.5 590.755C1036.97 590.755 1038.16 591.212 1039.06 592.124C1039.97 593.021 1040.43 594.281 1040.43 595.903V602.961H1037.39V596.315C1037.39 595.374 1037.15 594.658 1036.67 594.165C1036.19 593.658 1035.54 593.405 1034.72 593.405C1033.89 593.405 1033.23 593.658 1032.74 594.165C1032.26 594.658 1032.02 595.374 1032.02 596.315V602.961H1028.98V596.315C1028.98 595.374 1028.74 594.658 1028.27 594.165C1027.79 593.658 1027.14 593.405 1026.31 593.405C1025.47 593.405 1024.81 593.658 1024.31 594.165C1023.84 594.658 1023.6 595.374 1023.6 596.315V602.961H1020.56V590.929H1023.6V592.384C1023.99 591.878 1024.49 591.479 1025.09 591.19C1025.72 590.9 1026.4 590.755 1027.14 590.755C1028.08 590.755 1028.92 590.958 1029.66 591.364C1030.39 591.755 1030.97 592.319 1031.37 593.058C1031.76 592.363 1032.33 591.805 1033.07 591.385C1033.82 590.965 1034.63 590.755 1035.5 590.755Z"></path><path style="fill:var(--color-illustrationHighlight010)" d="M1052.03 593.427V599.247C1052.03 599.653 1052.12 599.949 1052.31 600.138C1052.51 600.311 1052.85 600.398 1053.31 600.398H1054.72V602.961H1052.81C1050.25 602.961 1048.97 601.716 1048.97 599.226V593.427H1047.53V590.929H1048.97V587.954H1052.03V590.929H1054.72V593.427H1052.03Z"></path><path style="fill:var(--color-illustrationHighlight010)" d="M1063.68 590.755C1064.6 590.755 1065.41 590.958 1066.12 591.364C1066.83 591.755 1067.38 592.341 1067.77 593.123C1068.17 593.89 1068.38 594.817 1068.38 595.903V602.961H1065.33V596.315C1065.33 595.36 1065.1 594.629 1064.62 594.122C1064.14 593.601 1063.49 593.34 1062.66 593.34C1061.82 593.34 1061.16 593.601 1060.67 594.122C1060.19 594.629 1059.95 595.36 1059.95 596.315V602.961H1056.91V586.89H1059.95V592.428C1060.34 591.907 1060.86 591.501 1061.51 591.212C1062.16 590.908 1062.89 590.755 1063.68 590.755Z"></path><path style="fill:var(--color-illustrationHighlight010)" d="M1074.31 592.797C1074.7 592.16 1075.2 591.66 1075.83 591.298C1076.46 590.936 1077.19 590.755 1078 590.755V593.948H1077.2C1076.24 593.948 1075.52 594.172 1075.02 594.621C1074.55 595.07 1074.31 595.852 1074.31 596.967V602.961H1071.27V590.929H1074.31V592.797Z"></path><path style="fill:var(--color-illustrationHighlight010)" d="M1091.23 596.685C1091.23 597.119 1091.2 597.51 1091.15 597.857H1082.35C1082.42 598.726 1082.73 599.407 1083.26 599.899C1083.8 600.391 1084.46 600.637 1085.24 600.637C1086.37 600.637 1087.17 600.152 1087.65 599.182H1090.93C1090.58 600.34 1089.91 601.296 1088.93 602.049C1087.95 602.787 1086.74 603.156 1085.3 603.156C1084.14 603.156 1083.1 602.903 1082.18 602.396C1081.26 601.875 1080.55 601.144 1080.03 600.203C1079.52 599.262 1079.27 598.176 1079.27 596.945C1079.27 595.7 1079.52 594.607 1080.03 593.666C1080.53 592.725 1081.24 592.001 1082.15 591.494C1083.07 590.987 1084.12 590.734 1085.3 590.734C1086.45 590.734 1087.47 590.98 1088.37 591.472C1089.28 591.964 1089.98 592.667 1090.47 593.579C1090.98 594.477 1091.23 595.512 1091.23 596.685ZM1088.08 595.816C1088.07 595.034 1087.79 594.411 1087.24 593.948C1086.69 593.47 1086.01 593.231 1085.22 593.231C1084.46 593.231 1083.83 593.463 1083.3 593.926C1082.8 594.375 1082.49 595.005 1082.37 595.816H1088.08Z"></path><path style="fill:var(--color-illustrationHighlight010)" d="M1104.64 596.685C1104.64 597.119 1104.61 597.51 1104.55 597.857H1095.75C1095.83 598.726 1096.13 599.407 1096.67 599.899C1097.2 600.391 1097.86 600.637 1098.64 600.637C1099.77 600.637 1100.57 600.152 1101.05 599.182H1104.33C1103.98 600.34 1103.32 601.296 1102.33 602.049C1101.35 602.787 1100.14 603.156 1098.71 603.156C1097.55 603.156 1096.51 602.903 1095.58 602.396C1094.67 601.875 1093.95 601.144 1093.43 600.203C1092.92 599.262 1092.67 598.176 1092.67 596.945C1092.67 595.7 1092.92 594.607 1093.43 593.666C1093.94 592.725 1094.65 592.001 1095.56 591.494C1096.47 590.987 1097.52 590.734 1098.71 590.734C1099.85 590.734 1100.87 590.98 1101.77 591.472C1102.68 591.964 1103.38 592.667 1103.88 593.579C1104.38 594.477 1104.64 595.512 1104.64 596.685ZM1101.49 595.816C1101.47 595.034 1101.19 594.411 1100.64 593.948C1100.09 593.47 1099.42 593.231 1098.62 593.231C1097.87 593.231 1097.23 593.463 1096.71 593.926C1096.2 594.375 1095.89 595.005 1095.78 595.816H1101.49Z"></path><path style="fill:var(--color-illustrationHighlight010)" d="M925.854 648.895H1148.07V651.61H925.854V648.895Z"></path><path style="fill:var(--color-illustrationHighlight010)" d="M660.548 205.236H667.38V207.308H658V187.792H660.548V205.236Z"></path><path style="fill:var(--color-illustrationHighlight010)" d="M684.086 199.048C684.086 199.533 684.058 200.047 684.002 200.588H671.738C671.831 202.1 672.345 203.285 673.278 204.144C674.23 204.984 675.378 205.404 676.722 205.404C677.823 205.404 678.738 205.152 679.466 204.648C680.213 204.125 680.735 203.435 681.034 202.576H683.778C683.367 204.051 682.546 205.255 681.314 206.188C680.082 207.103 678.551 207.56 676.722 207.56C675.266 207.56 673.959 207.233 672.802 206.58C671.663 205.927 670.767 205.003 670.114 203.808C669.461 202.595 669.134 201.195 669.134 199.608C669.134 198.021 669.451 196.631 670.086 195.436C670.721 194.241 671.607 193.327 672.746 192.692C673.903 192.039 675.229 191.712 676.722 191.712C678.178 191.712 679.466 192.029 680.586 192.664C681.706 193.299 682.565 194.176 683.162 195.296C683.778 196.397 684.086 197.648 684.086 199.048ZM681.454 198.516C681.454 197.545 681.239 196.715 680.81 196.024C680.381 195.315 679.793 194.783 679.046 194.428C678.318 194.055 677.506 193.868 676.61 193.868C675.322 193.868 674.221 194.279 673.306 195.1C672.41 195.921 671.897 197.06 671.766 198.516H681.454Z"></path><path style="fill:var(--color-illustrationHighlight010)" d="M686.497 199.58C686.497 198.012 686.815 196.64 687.449 195.464C688.084 194.269 688.952 193.345 690.053 192.692C691.173 192.039 692.415 191.712 693.777 191.712C695.121 191.712 696.288 192.001 697.277 192.58C698.267 193.159 699.004 193.887 699.489 194.764V191.964H702.065V207.308H699.489V204.452C698.985 205.348 698.229 206.095 697.221 206.692C696.232 207.271 695.075 207.56 693.749 207.56C692.387 207.56 691.155 207.224 690.053 206.552C688.952 205.88 688.084 204.937 687.449 203.724C686.815 202.511 686.497 201.129 686.497 199.58ZM699.489 199.608C699.489 198.451 699.256 197.443 698.789 196.584C698.323 195.725 697.688 195.072 696.885 194.624C696.101 194.157 695.233 193.924 694.281 193.924C693.329 193.924 692.461 194.148 691.677 194.596C690.893 195.044 690.268 195.697 689.801 196.556C689.335 197.415 689.101 198.423 689.101 199.58C689.101 200.756 689.335 201.783 689.801 202.66C690.268 203.519 690.893 204.181 691.677 204.648C692.461 205.096 693.329 205.32 694.281 205.32C695.233 205.32 696.101 205.096 696.885 204.648C697.688 204.181 698.323 203.519 698.789 202.66C699.256 201.783 699.489 200.765 699.489 199.608Z"></path><path style="fill:var(--color-illustrationHighlight010)" d="M705.419 199.58C705.419 198.012 705.736 196.64 706.371 195.464C707.006 194.269 707.874 193.345 708.975 192.692C710.095 192.039 711.346 191.712 712.727 191.712C713.922 191.712 715.032 191.992 716.059 192.552C717.086 193.093 717.87 193.812 718.411 194.708V186.588H720.987V207.308H718.411V204.424C717.907 205.339 717.16 206.095 716.171 206.692C715.182 207.271 714.024 207.56 712.699 207.56C711.336 207.56 710.095 207.224 708.975 206.552C707.874 205.88 707.006 204.937 706.371 203.724C705.736 202.511 705.419 201.129 705.419 199.58ZM718.411 199.608C718.411 198.451 718.178 197.443 717.711 196.584C717.244 195.725 716.61 195.072 715.807 194.624C715.023 194.157 714.155 193.924 713.203 193.924C712.251 193.924 711.383 194.148 710.599 194.596C709.815 195.044 709.19 195.697 708.723 196.556C708.256 197.415 708.023 198.423 708.023 199.58C708.023 200.756 708.256 201.783 708.723 202.66C709.19 203.519 709.815 204.181 710.599 204.648C711.383 205.096 712.251 205.32 713.203 205.32C714.155 205.32 715.023 205.096 715.807 204.648C716.61 204.181 717.244 203.519 717.711 202.66C718.178 201.783 718.411 200.765 718.411 199.608Z"></path><path style="fill:var(--color-illustrationHighlight010)" d="M726.609 189.472C726.124 189.472 725.713 189.304 725.377 188.968C725.041 188.632 724.873 188.221 724.873 187.736C724.873 187.251 725.041 186.84 725.377 186.504C725.713 186.168 726.124 186 726.609 186C727.076 186 727.468 186.168 727.785 186.504C728.121 186.84 728.289 187.251 728.289 187.736C728.289 188.221 728.121 188.632 727.785 188.968C727.468 189.304 727.076 189.472 726.609 189.472ZM727.841 191.964V207.308H725.293V191.964H727.841Z"></path><path style="fill:var(--color-illustrationHighlight010)" d="M739.66 191.684C741.526 191.684 743.038 192.253 744.196 193.392C745.353 194.512 745.932 196.136 745.932 198.264V207.308H743.412V198.628C743.412 197.097 743.029 195.931 742.264 195.128C741.498 194.307 740.453 193.896 739.128 193.896C737.784 193.896 736.71 194.316 735.908 195.156C735.124 195.996 734.732 197.219 734.732 198.824V207.308H732.184V191.964H734.732V194.148C735.236 193.364 735.917 192.757 736.776 192.328C737.653 191.899 738.614 191.684 739.66 191.684Z"></path><path style="fill:var(--color-illustrationHighlight010)" d="M756.422 191.712C757.747 191.712 758.904 192.001 759.894 192.58C760.902 193.159 761.648 193.887 762.134 194.764V191.964H764.71V207.644C764.71 209.044 764.411 210.285 763.814 211.368C763.216 212.469 762.358 213.328 761.238 213.944C760.136 214.56 758.848 214.868 757.374 214.868C755.358 214.868 753.678 214.392 752.334 213.44C750.99 212.488 750.196 211.191 749.954 209.548H752.474C752.754 210.481 753.332 211.228 754.21 211.788C755.087 212.367 756.142 212.656 757.374 212.656C758.774 212.656 759.912 212.217 760.79 211.34C761.686 210.463 762.134 209.231 762.134 207.644V204.424C761.63 205.32 760.883 206.067 759.894 206.664C758.904 207.261 757.747 207.56 756.422 207.56C755.059 207.56 753.818 207.224 752.698 206.552C751.596 205.88 750.728 204.937 750.094 203.724C749.459 202.511 749.142 201.129 749.142 199.58C749.142 198.012 749.459 196.64 750.094 195.464C750.728 194.269 751.596 193.345 752.698 192.692C753.818 192.039 755.059 191.712 756.422 191.712ZM762.134 199.608C762.134 198.451 761.9 197.443 761.434 196.584C760.967 195.725 760.332 195.072 759.53 194.624C758.746 194.157 757.878 193.924 756.926 193.924C755.974 193.924 755.106 194.148 754.322 194.596C753.538 195.044 752.912 195.697 752.446 196.556C751.979 197.415 751.746 198.423 751.746 199.58C751.746 200.756 751.979 201.783 752.446 202.66C752.912 203.519 753.538 204.181 754.322 204.648C755.106 205.096 755.974 205.32 756.926 205.32C757.878 205.32 758.746 205.096 759.53 204.648C760.332 204.181 760.967 203.519 761.434 202.66C761.9 201.783 762.134 200.765 762.134 199.608Z"></path><path style="fill:var(--color-illustrationHighlight010)" d="M779.028 187.792V207.308H776.48V187.792H779.028Z"></path><path style="fill:var(--color-illustrationHighlight010)" d="M782.419 199.608C782.419 198.021 782.736 196.64 783.371 195.464C784.006 194.269 784.883 193.345 786.003 192.692C787.142 192.039 788.439 191.712 789.895 191.712C791.78 191.712 793.33 192.169 794.543 193.084C795.775 193.999 796.587 195.268 796.979 196.892H794.235C793.974 195.959 793.46 195.221 792.695 194.68C791.948 194.139 791.015 193.868 789.895 193.868C788.439 193.868 787.263 194.372 786.367 195.38C785.471 196.369 785.023 197.779 785.023 199.608C785.023 201.456 785.471 202.884 786.367 203.892C787.263 204.9 788.439 205.404 789.895 205.404C791.015 205.404 791.948 205.143 792.695 204.62C793.442 204.097 793.955 203.351 794.235 202.38H796.979C796.568 203.948 795.747 205.208 794.515 206.16C793.283 207.093 791.743 207.56 789.895 207.56C788.439 207.56 787.142 207.233 786.003 206.58C784.883 205.927 784.006 205.003 783.371 203.808C782.736 202.613 782.419 201.213 782.419 199.608Z"></path><path style="fill:var(--color-illustrationHighlight010)" d="M807.071 207.56C805.634 207.56 804.327 207.233 803.151 206.58C801.994 205.927 801.079 205.003 800.407 203.808C799.754 202.595 799.427 201.195 799.427 199.608C799.427 198.04 799.763 196.659 800.435 195.464C801.126 194.251 802.059 193.327 803.235 192.692C804.411 192.039 805.727 191.712 807.183 191.712C808.639 191.712 809.955 192.039 811.131 192.692C812.307 193.327 813.231 194.241 813.903 195.436C814.594 196.631 814.939 198.021 814.939 199.608C814.939 201.195 814.584 202.595 813.875 203.808C813.184 205.003 812.242 205.927 811.047 206.58C809.852 207.233 808.527 207.56 807.071 207.56ZM807.071 205.32C807.986 205.32 808.844 205.105 809.647 204.676C810.45 204.247 811.094 203.603 811.579 202.744C812.083 201.885 812.335 200.84 812.335 199.608C812.335 198.376 812.092 197.331 811.607 196.472C811.122 195.613 810.487 194.979 809.703 194.568C808.919 194.139 808.07 193.924 807.155 193.924C806.222 193.924 805.363 194.139 804.579 194.568C803.814 194.979 803.198 195.613 802.731 196.472C802.264 197.331 802.031 198.376 802.031 199.608C802.031 200.859 802.255 201.913 802.703 202.772C803.17 203.631 803.786 204.275 804.551 204.704C805.316 205.115 806.156 205.32 807.071 205.32Z"></path><path style="fill:var(--color-illustrationHighlight010)" d="M825.765 191.684C827.632 191.684 829.144 192.253 830.301 193.392C831.458 194.512 832.037 196.136 832.037 198.264V207.308H829.517V198.628C829.517 197.097 829.134 195.931 828.369 195.128C827.604 194.307 826.558 193.896 825.233 193.896C823.889 193.896 822.816 194.316 822.013 195.156C821.229 195.996 820.837 197.219 820.837 198.824V207.308H818.289V191.964H820.837V194.148C821.341 193.364 822.022 192.757 822.881 192.328C823.758 191.899 824.72 191.684 825.765 191.684Z"></path><path style="fill:var(--color-illustrationHighlight010)" d="M671.216 485.66V487.732H665.896V505.176H663.348V487.732H658V485.66H671.216Z"></path><path style="fill:var(--color-illustrationHighlight010)" d="M676.9 492.324C677.348 491.447 677.983 490.765 678.804 490.28C679.644 489.795 680.662 489.552 681.856 489.552V492.184H681.184C678.328 492.184 676.9 493.733 676.9 496.832V505.176H674.352V489.832H676.9V492.324Z"></path><path style="fill:var(--color-illustrationHighlight010)" d="M683.846 497.448C683.846 495.88 684.163 494.508 684.798 493.332C685.432 492.137 686.3 491.213 687.402 490.56C688.522 489.907 689.763 489.58 691.126 489.58C692.47 489.58 693.636 489.869 694.626 490.448C695.615 491.027 696.352 491.755 696.838 492.632V489.832H699.414V505.176H696.838V502.32C696.334 503.216 695.578 503.963 694.57 504.56C693.58 505.139 692.423 505.428 691.098 505.428C689.735 505.428 688.503 505.092 687.402 504.42C686.3 503.748 685.432 502.805 684.798 501.592C684.163 500.379 683.846 498.997 683.846 497.448ZM696.838 497.476C696.838 496.319 696.604 495.311 696.138 494.452C695.671 493.593 695.036 492.94 694.234 492.492C693.45 492.025 692.582 491.792 691.63 491.792C690.678 491.792 689.81 492.016 689.026 492.464C688.242 492.912 687.616 493.565 687.15 494.424C686.683 495.283 686.45 496.291 686.45 497.448C686.45 498.624 686.683 499.651 687.15 500.528C687.616 501.387 688.242 502.049 689.026 502.516C689.81 502.964 690.678 503.188 691.63 503.188C692.582 503.188 693.45 502.964 694.234 502.516C695.036 502.049 695.671 501.387 696.138 500.528C696.604 499.651 696.838 498.633 696.838 497.476Z"></path><path style="fill:var(--color-illustrationHighlight010)" d="M705.036 487.34C704.55 487.34 704.14 487.172 703.804 486.836C703.468 486.5 703.3 486.089 703.3 485.604C703.3 485.119 703.468 484.708 703.804 484.372C704.14 484.036 704.55 483.868 705.036 483.868C705.502 483.868 705.894 484.036 706.212 484.372C706.548 484.708 706.716 485.119 706.716 485.604C706.716 486.089 706.548 486.5 706.212 486.836C705.894 487.172 705.502 487.34 705.036 487.34ZM706.268 489.832V505.176H703.72V489.832H706.268Z"></path><path style="fill:var(--color-illustrationHighlight010)" d="M713.158 484.456V505.176H710.61V484.456H713.158Z"></path><path style="fill:var(--color-illustrationHighlight010)" d="M718.817 487.34C718.332 487.34 717.921 487.172 717.585 486.836C717.249 486.5 717.081 486.089 717.081 485.604C717.081 485.119 717.249 484.708 717.585 484.372C717.921 484.036 718.332 483.868 718.817 483.868C719.284 483.868 719.676 484.036 719.993 484.372C720.329 484.708 720.497 485.119 720.497 485.604C720.497 486.089 720.329 486.5 719.993 486.836C719.676 487.172 719.284 487.34 718.817 487.34ZM720.049 489.832V505.176H717.501V489.832H720.049Z"></path><path style="fill:var(--color-illustrationHighlight010)" d="M731.868 489.552C733.734 489.552 735.246 490.121 736.403 491.26C737.561 492.38 738.139 494.004 738.139 496.132V505.176H735.619V496.496C735.619 494.965 735.237 493.799 734.471 492.996C733.706 492.175 732.661 491.764 731.335 491.764C729.991 491.764 728.918 492.184 728.115 493.024C727.331 493.864 726.939 495.087 726.939 496.692V505.176H724.391V489.832H726.939V492.016C727.443 491.232 728.125 490.625 728.983 490.196C729.861 489.767 730.822 489.552 731.868 489.552Z"></path><path style="fill:var(--color-illustrationHighlight010)" d="M748.63 489.58C749.955 489.58 751.112 489.869 752.102 490.448C753.11 491.027 753.856 491.755 754.342 492.632V489.832H756.918V505.512C756.918 506.912 756.619 508.153 756.022 509.236C755.424 510.337 754.566 511.196 753.446 511.812C752.344 512.428 751.056 512.736 749.582 512.736C747.566 512.736 745.886 512.26 744.542 511.308C743.198 510.356 742.404 509.059 742.162 507.416H744.682C744.962 508.349 745.54 509.096 746.418 509.656C747.295 510.235 748.35 510.524 749.582 510.524C750.982 510.524 752.12 510.085 752.998 509.208C753.894 508.331 754.342 507.099 754.342 505.512V502.292C753.838 503.188 753.091 503.935 752.102 504.532C751.112 505.129 749.955 505.428 748.63 505.428C747.267 505.428 746.026 505.092 744.906 504.42C743.804 503.748 742.936 502.805 742.302 501.592C741.667 500.379 741.35 498.997 741.35 497.448C741.35 495.88 741.667 494.508 742.302 493.332C742.936 492.137 743.804 491.213 744.906 490.56C746.026 489.907 747.267 489.58 748.63 489.58ZM754.342 497.476C754.342 496.319 754.108 495.311 753.642 494.452C753.175 493.593 752.54 492.94 751.738 492.492C750.954 492.025 750.086 491.792 749.134 491.792C748.182 491.792 747.314 492.016 746.53 492.464C745.746 492.912 745.12 493.565 744.654 494.424C744.187 495.283 743.954 496.291 743.954 497.448C743.954 498.624 744.187 499.651 744.654 500.528C745.12 501.387 745.746 502.049 746.53 502.516C747.314 502.964 748.182 503.188 749.134 503.188C750.086 503.188 750.954 502.964 751.738 502.516C752.54 502.049 753.175 501.387 753.642 500.528C754.108 499.651 754.342 498.633 754.342 497.476Z"></path><path style="fill:var(--color-illustrationHighlight010)" d="M771.236 485.66V505.176H768.688V485.66H771.236Z"></path><path style="fill:var(--color-illustrationHighlight010)" d="M774.627 497.476C774.627 495.889 774.944 494.508 775.579 493.332C776.214 492.137 777.091 491.213 778.211 490.56C779.35 489.907 780.647 489.58 782.103 489.58C783.988 489.58 785.538 490.037 786.751 490.952C787.983 491.867 788.795 493.136 789.187 494.76H786.443C786.182 493.827 785.668 493.089 784.903 492.548C784.156 492.007 783.223 491.736 782.103 491.736C780.647 491.736 779.471 492.24 778.575 493.248C777.679 494.237 777.231 495.647 777.231 497.476C777.231 499.324 777.679 500.752 778.575 501.76C779.471 502.768 780.647 503.272 782.103 503.272C783.223 503.272 784.156 503.011 784.903 502.488C785.65 501.965 786.163 501.219 786.443 500.248H789.187C788.776 501.816 787.955 503.076 786.723 504.028C785.491 504.961 783.951 505.428 782.103 505.428C780.647 505.428 779.35 505.101 778.211 504.448C777.091 503.795 776.214 502.871 775.579 501.676C774.944 500.481 774.627 499.081 774.627 497.476Z"></path><path style="fill:var(--color-illustrationHighlight010)" d="M799.279 505.428C797.841 505.428 796.535 505.101 795.359 504.448C794.201 503.795 793.287 502.871 792.615 501.676C791.961 500.463 791.635 499.063 791.635 497.476C791.635 495.908 791.971 494.527 792.643 493.332C793.333 492.119 794.267 491.195 795.443 490.56C796.619 489.907 797.935 489.58 799.391 489.58C800.847 489.58 802.163 489.907 803.339 490.56C804.515 491.195 805.439 492.109 806.111 493.304C806.801 494.499 807.147 495.889 807.147 497.476C807.147 499.063 806.792 500.463 806.083 501.676C805.392 502.871 804.449 503.795 803.255 504.448C802.06 505.101 800.735 505.428 799.279 505.428ZM799.279 503.188C800.193 503.188 801.052 502.973 801.855 502.544C802.657 502.115 803.301 501.471 803.787 500.612C804.291 499.753 804.543 498.708 804.543 497.476C804.543 496.244 804.3 495.199 803.815 494.34C803.329 493.481 802.695 492.847 801.911 492.436C801.127 492.007 800.277 491.792 799.363 491.792C798.429 491.792 797.571 492.007 796.787 492.436C796.021 492.847 795.405 493.481 794.939 494.34C794.472 495.199 794.239 496.244 794.239 497.476C794.239 498.727 794.463 499.781 794.911 500.64C795.377 501.499 795.993 502.143 796.759 502.572C797.524 502.983 798.364 503.188 799.279 503.188Z"></path><path style="fill:var(--color-illustrationHighlight010)" d="M817.973 489.552C819.84 489.552 821.352 490.121 822.509 491.26C823.666 492.38 824.245 494.004 824.245 496.132V505.176H821.725V496.496C821.725 494.965 821.342 493.799 820.577 492.996C819.812 492.175 818.766 491.764 817.441 491.764C816.097 491.764 815.024 492.184 814.221 493.024C813.437 493.864 813.045 495.087 813.045 496.692V505.176H810.497V489.832H813.045V492.016C813.549 491.232 814.23 490.625 815.089 490.196C815.966 489.767 816.928 489.552 817.973 489.552Z"></path><defs><filter id="nk-358" x="271.922" y="233.987" width="946.102" height="143.592" filterUnits="userSpaceOnUse" color-interpolation-filters="sRGB"><feFlood flood-opacity="0" result="BackgroundImageFix"></feFlood><feColorMatrix in="SourceAlpha" type="matrix" values="0 0 0 0 0 0 0 0 0 0 0 0 0 0 0 0 0 0 127 0" result="hardAlpha"></feColorMatrix><feOffset dy="8"></feOffset><feGaussianBlur stdDeviation="8"></feGaussianBlur><feColorMatrix type="matrix" values="0 0 0 0 0.0392157 0 0 0 0 0.0392157 0 0 0 0 0.0392157 0 0 0 0.08 0"></feColorMatrix><feBlend mode="normal" in2="BackgroundImageFix" result="effect1_dropShadow"></feBlend><feBlend mode="normal" in="SourceGraphic" in2="effect1_dropShadow" result="shape"></feBlend></filter><filter id="nk-359" x="271.922" y="532.292" width="946.102" height="143.592" filterUnits="userSpaceOnUse" color-interpolation-filters="sRGB"><feFlood flood-opacity="0" result="BackgroundImageFix"></feFlood><feColorMatrix in="SourceAlpha" type="matrix" values="0 0 0 0 0 0 0 0 0 0 0 0 0 0 0 0 0 0 127 0" result="hardAlpha"></feColorMatrix><feOffset dy="8"></feOffset><feGaussianBlur stdDeviation="8"></feGaussianBlur><feColorMatrix type="matrix" values="0 0 0 0 0.0392157 0 0 0 0 0.0392157 0 0 0 0 0.0392157 0 0 0 0.08 0"></feColorMatrix><feBlend mode="normal" in2="BackgroundImageFix" result="effect1_dropShadow"></feBlend><feBlend mode="normal" in="SourceGraphic" in2="effect1_dropShadow" result="shape"></feBlend></filter></defs></svg>