<svg id="components-menu-menu-states-disabled-illustration" style="width: 100%; height: 100%" width="1490" height="839" viewBox="0 0 1490 839" fill="none" xmlns="http://www.w3.org/2000/svg" class="css-0"><path style="fill:var(--color-illustrationBackground020)" d="M0 4.04005C0 1.83091 1.79086 0.0400391 4 0.0400391H1486.72C1488.93 0.0400391 1490.72 1.8309 1490.72 4.04004V834.044C1490.72 836.253 1488.93 838.044 1486.72 838.044H4.00002C1.79088 838.044 0 836.253 0 834.044V4.04005Z"></path><g filter="url(#nk-401)"><g clip-path="url(#nk-400)"><g filter="url(#nk-402)"><path style="fill:var(--color-illustrationInterface010)" d="M425 186.029C425 181.611 428.582 178.029 433 178.029H1057.97C1062.39 178.029 1065.97 181.611 1065.97 186.029V651.229C1065.97 655.648 1062.39 659.229 1057.97 659.229H433C428.582 659.229 425 655.648 425 651.229V186.029Z"></path></g><mask id="nk-397" mask-type="alpha" maskUnits="userSpaceOnUse" x="470" y="230" width="46" height="46"><path style="fill:var(--color-black)" fill-rule="evenodd" clip-rule="evenodd" d="M477.633 245.708H485.151V238.189H477.633V245.708ZM488.911 268.264H496.43V260.746H488.911V268.264ZM485.152 268.264H477.633V260.746H485.152V268.264ZM477.633 256.986H485.152V249.468H477.633V256.986ZM496.43 256.986H488.911V249.468H496.43V256.986ZM500.189 238.19V245.708H507.708V238.19H500.189ZM496.43 245.708H488.911V238.19H496.43V245.708ZM500.189 256.986H507.708V249.468H500.189V256.986ZM507.708 268.264H500.189V260.746H507.708V268.264Z"></path></mask><g mask="url(#nk-397)"><path style="fill:var(--color-illustrationSubtle010)" d="M470.114 230.671H515.226V275.783H470.114V230.671Z"></path></g><path style="fill:var(--color-illustrationSubtle010)" d="M553.151 243.347V264.339H548.94V250.685L543.316 264.339H540.128L534.474 250.685V264.339H530.264V243.347H535.046L541.722 258.956L548.399 243.347H553.151Z"></path><path style="fill:var(--color-illustrationSubtle010)" d="M572.802 255.648C572.802 256.249 572.762 256.791 572.681 257.272H560.501C560.601 258.475 561.022 259.417 561.764 260.099C562.506 260.78 563.418 261.121 564.501 261.121C566.065 261.121 567.178 260.45 567.839 259.106H572.381C571.9 260.71 570.977 262.034 569.614 263.076C568.25 264.099 566.576 264.61 564.591 264.61C562.987 264.61 561.544 264.259 560.261 263.557C558.997 262.836 558.005 261.823 557.283 260.52C556.581 259.217 556.231 257.713 556.231 256.009C556.231 254.284 556.581 252.771 557.283 251.467C557.985 250.164 558.967 249.162 560.231 248.46C561.494 247.758 562.947 247.407 564.591 247.407C566.175 247.407 567.589 247.748 568.832 248.43C570.095 249.111 571.067 250.084 571.749 251.347C572.451 252.59 572.802 254.024 572.802 255.648ZM568.441 254.445C568.421 253.362 568.03 252.5 567.268 251.858C566.506 251.197 565.574 250.866 564.471 250.866C563.428 250.866 562.546 251.187 561.824 251.828C561.123 252.45 560.692 253.322 560.531 254.445H568.441Z"></path><path style="fill:var(--color-illustrationSubtle010)" d="M585.108 247.437C587.093 247.437 588.697 248.069 589.92 249.332C591.143 250.575 591.754 252.319 591.754 254.565V264.339H587.544V255.136C587.544 253.813 587.213 252.801 586.552 252.099C585.89 251.377 584.988 251.016 583.845 251.016C582.682 251.016 581.76 251.377 581.078 252.099C580.416 252.801 580.085 253.813 580.085 255.136V264.339H575.875V247.678H580.085V249.753C580.647 249.031 581.359 248.47 582.221 248.069C583.103 247.648 584.065 247.437 585.108 247.437Z"></path><path style="fill:var(--color-illustrationSubtle010)" d="M611.487 247.678V264.339H607.247V262.234C606.706 262.956 605.994 263.527 605.112 263.948C604.249 264.349 603.307 264.55 602.285 264.55C600.981 264.55 599.828 264.279 598.826 263.738C597.824 263.176 597.032 262.364 596.45 261.302C595.889 260.219 595.608 258.936 595.608 257.452V247.678H599.818V256.851C599.818 258.174 600.149 259.197 600.811 259.918C601.473 260.62 602.375 260.971 603.518 260.971C604.681 260.971 605.593 260.62 606.254 259.918C606.916 259.197 607.247 258.174 607.247 256.851V247.678H611.487Z"></path><path style="fill:var(--color-illustrationSubtle010)" d="M624.943 245.693C624.201 245.693 623.58 245.462 623.079 245.001C622.597 244.52 622.357 243.929 622.357 243.227C622.357 242.525 622.597 241.944 623.079 241.483C623.58 241.001 624.201 240.761 624.943 240.761C625.685 240.761 626.297 241.001 626.778 241.483C627.279 241.944 627.53 242.525 627.53 243.227C627.53 243.929 627.279 244.52 626.778 245.001C626.297 245.462 625.685 245.693 624.943 245.693ZM627.018 247.678V264.339H622.808V247.678H627.018Z"></path><path style="fill:var(--color-illustrationSubtle010)" d="M636.081 251.137V259.197C636.081 259.758 636.211 260.169 636.472 260.43C636.752 260.67 637.213 260.79 637.855 260.79H639.81V264.339H637.163C633.614 264.339 631.84 262.615 631.84 259.166V251.137H629.855V247.678H631.84V243.558H636.081V247.678H639.81V251.137H636.081Z"></path><path style="fill:var(--color-illustrationSubtle010)" d="M658.327 255.648C658.327 256.249 658.287 256.791 658.206 257.272H646.026C646.126 258.475 646.547 259.417 647.289 260.099C648.031 260.78 648.943 261.121 650.026 261.121C651.59 261.121 652.703 260.45 653.364 259.106H657.906C657.424 260.71 656.502 262.034 655.139 263.076C653.775 264.099 652.101 264.61 650.116 264.61C648.512 264.61 647.069 264.259 645.786 263.557C644.522 262.836 643.53 261.823 642.808 260.52C642.106 259.217 641.756 257.713 641.756 256.009C641.756 254.284 642.106 252.771 642.808 251.467C643.51 250.164 644.492 249.162 645.755 248.46C647.019 247.758 648.472 247.407 650.116 247.407C651.7 247.407 653.114 247.748 654.357 248.43C655.62 249.111 656.592 250.084 657.274 251.347C657.976 252.59 658.327 254.024 658.327 255.648ZM653.966 254.445C653.946 253.362 653.555 252.5 652.793 251.858C652.031 251.197 651.099 250.866 649.996 250.866C648.953 250.866 648.071 251.187 647.349 251.828C646.648 252.45 646.217 253.322 646.056 254.445H653.966Z"></path><path style="fill:var(--color-illustrationSubtle010)" d="M682.091 247.437C684.136 247.437 685.781 248.069 687.024 249.332C688.287 250.575 688.918 252.319 688.918 254.565V264.339H684.708V255.136C684.708 253.833 684.377 252.841 683.715 252.159C683.054 251.457 682.151 251.106 681.009 251.106C679.866 251.106 678.954 251.457 678.272 252.159C677.61 252.841 677.279 253.833 677.279 255.136V264.339H673.069V255.136C673.069 253.833 672.738 252.841 672.076 252.159C671.415 251.457 670.513 251.106 669.37 251.106C668.207 251.106 667.285 251.457 666.603 252.159C665.941 252.841 665.61 253.833 665.61 255.136V264.339H661.4V247.678H665.61V249.693C666.152 248.991 666.843 248.44 667.686 248.039C668.548 247.638 669.49 247.437 670.513 247.437C671.816 247.437 672.979 247.718 674.001 248.279C675.024 248.821 675.816 249.603 676.377 250.625C676.919 249.663 677.7 248.891 678.723 248.309C679.766 247.728 680.888 247.437 682.091 247.437Z"></path><mask id="nk-398" mask-type="alpha" maskUnits="userSpaceOnUse" x="470" y="396" width="46" height="46"><path style="fill:var(--color-black)" fill-rule="evenodd" clip-rule="evenodd" d="M479.493 401.721H505.828C507.895 401.721 509.587 403.394 509.587 405.48V431.795C509.587 433.863 507.895 435.555 505.828 435.555H479.493C477.407 435.555 475.753 433.863 475.753 431.795L475.772 405.48C475.772 403.394 477.407 401.721 479.493 401.721ZM498.309 424.277H505.828V405.48H479.513V424.277H487.031C487.031 427.397 489.569 429.916 492.67 429.916C495.772 429.916 498.309 427.397 498.309 424.277Z"></path></mask><g mask="url(#nk-398)"><path style="fill:var(--color-illustrationSubtle010)" d="M470.114 396.082H515.226V441.194H470.114V396.082Z"></path></g><path style="fill:var(--color-illustrationSubtle010)" d="M553.151 408.758V429.75H548.94V416.097L543.316 429.75H540.128L534.474 416.097V429.75H530.264V408.758H535.046L541.722 424.367L548.399 408.758H553.151Z"></path><path style="fill:var(--color-illustrationSubtle010)" d="M572.802 421.059C572.802 421.66 572.762 422.202 572.681 422.683H560.501C560.601 423.886 561.022 424.828 561.764 425.51C562.506 426.192 563.418 426.532 564.501 426.532C566.065 426.532 567.178 425.861 567.839 424.517H572.381C571.9 426.121 570.977 427.445 569.614 428.487C568.25 429.51 566.576 430.021 564.591 430.021C562.987 430.021 561.544 429.67 560.261 428.969C558.997 428.247 558.005 427.234 557.283 425.931C556.581 424.628 556.231 423.124 556.231 421.42C556.231 419.695 556.581 418.182 557.283 416.878C557.985 415.575 558.967 414.573 560.231 413.871C561.494 413.169 562.947 412.818 564.591 412.818C566.175 412.818 567.589 413.159 568.832 413.841C570.095 414.523 571.067 415.495 571.749 416.758C572.451 418.001 572.802 419.435 572.802 421.059ZM568.441 419.856C568.421 418.773 568.03 417.911 567.268 417.269C566.506 416.608 565.574 416.277 564.471 416.277C563.428 416.277 562.546 416.598 561.824 417.239C561.123 417.861 560.692 418.733 560.531 419.856H568.441Z"></path><path style="fill:var(--color-illustrationSubtle010)" d="M585.108 412.848C587.093 412.848 588.697 413.48 589.92 414.743C591.143 415.986 591.754 417.731 591.754 419.976V429.75H587.544V420.548C587.544 419.224 587.213 418.212 586.552 417.51C585.89 416.788 584.988 416.427 583.845 416.427C582.682 416.427 581.76 416.788 581.078 417.51C580.416 418.212 580.085 419.224 580.085 420.548V429.75H575.875V413.089H580.085V415.164C580.647 414.442 581.359 413.881 582.221 413.48C583.103 413.059 584.065 412.848 585.108 412.848Z"></path><path style="fill:var(--color-illustrationSubtle010)" d="M611.487 413.089V429.75H607.247V427.645C606.706 428.367 605.994 428.938 605.112 429.359C604.249 429.76 603.307 429.961 602.285 429.961C600.981 429.961 599.828 429.69 598.826 429.149C597.824 428.588 597.032 427.776 596.45 426.713C595.889 425.63 595.608 424.347 595.608 422.863V413.089H599.818V422.262C599.818 423.585 600.149 424.608 600.811 425.329C601.473 426.031 602.375 426.382 603.518 426.382C604.681 426.382 605.593 426.031 606.254 425.329C606.916 424.608 607.247 423.585 607.247 422.262V413.089H611.487Z"></path><path style="fill:var(--color-illustrationSubtle010)" d="M624.943 411.104C624.201 411.104 623.58 410.874 623.079 410.412C622.597 409.931 622.357 409.34 622.357 408.638C622.357 407.936 622.597 407.355 623.079 406.894C623.58 406.412 624.201 406.172 624.943 406.172C625.685 406.172 626.297 406.412 626.778 406.894C627.279 407.355 627.53 407.936 627.53 408.638C627.53 409.34 627.279 409.931 626.778 410.412C626.297 410.874 625.685 411.104 624.943 411.104ZM627.018 413.089V429.75H622.808V413.089H627.018Z"></path><path style="fill:var(--color-illustrationSubtle010)" d="M636.081 416.548V424.608C636.081 425.169 636.211 425.58 636.472 425.841C636.752 426.081 637.213 426.202 637.855 426.202H639.81V429.75H637.163C633.614 429.75 631.84 428.026 631.84 424.578V416.548H629.855V413.089H631.84V408.969H636.081V413.089H639.81V416.548H636.081Z"></path><path style="fill:var(--color-illustrationSubtle010)" d="M658.327 421.059C658.327 421.66 658.287 422.202 658.206 422.683H646.026C646.126 423.886 646.547 424.828 647.289 425.51C648.031 426.192 648.943 426.532 650.026 426.532C651.59 426.532 652.703 425.861 653.364 424.517H657.906C657.424 426.121 656.502 427.445 655.139 428.487C653.775 429.51 652.101 430.021 650.116 430.021C648.512 430.021 647.069 429.67 645.786 428.969C644.522 428.247 643.53 427.234 642.808 425.931C642.106 424.628 641.756 423.124 641.756 421.42C641.756 419.695 642.106 418.182 642.808 416.878C643.51 415.575 644.492 414.573 645.755 413.871C647.019 413.169 648.472 412.818 650.116 412.818C651.7 412.818 653.114 413.159 654.357 413.841C655.62 414.523 656.592 415.495 657.274 416.758C657.976 418.001 658.327 419.435 658.327 421.059ZM653.966 419.856C653.946 418.773 653.555 417.911 652.793 417.269C652.031 416.608 651.099 416.277 649.996 416.277C648.953 416.277 648.071 416.598 647.349 417.239C646.648 417.861 646.217 418.733 646.056 419.856H653.966Z"></path><path style="fill:var(--color-illustrationSubtle010)" d="M682.091 412.848C684.136 412.848 685.781 413.48 687.024 414.743C688.287 415.986 688.918 417.731 688.918 419.976V429.75H684.708V420.548C684.708 419.244 684.377 418.252 683.715 417.57C683.054 416.868 682.151 416.518 681.009 416.518C679.866 416.518 678.954 416.868 678.272 417.57C677.61 418.252 677.279 419.244 677.279 420.548V429.75H673.069V420.548C673.069 419.244 672.738 418.252 672.076 417.57C671.415 416.868 670.513 416.518 669.37 416.518C668.207 416.518 667.285 416.868 666.603 417.57C665.941 418.252 665.61 419.244 665.61 420.548V429.75H661.4V413.089H665.61V415.104C666.152 414.402 666.843 413.851 667.686 413.45C668.548 413.049 669.49 412.848 670.513 412.848C671.816 412.848 672.979 413.129 674.001 413.691C675.024 414.232 675.816 415.014 676.377 416.036C676.919 415.074 677.7 414.302 678.723 413.721C679.766 413.139 680.888 412.848 682.091 412.848Z"></path><rect style="fill:var(--color-illustrationDisabled)" width="641" height="150.374" transform="translate(425 508.861)"></rect><mask id="nk-399" mask-type="alpha" maskUnits="userSpaceOnUse" x="470" y="561" width="46" height="46"><path style="fill:var(--color-black)" fill-rule="evenodd" clip-rule="evenodd" d="M473.876 584.049C473.876 573.673 482.297 565.252 492.673 565.252C503.048 565.252 511.469 573.673 511.469 584.049C511.469 594.424 503.048 602.845 492.673 602.845C482.297 602.845 473.876 594.424 473.876 584.049ZM490.793 595.327V591.567H494.552V595.327H490.793ZM492.672 599.086C484.383 599.086 477.635 592.338 477.635 584.049C477.635 575.759 484.383 569.011 492.672 569.011C500.962 569.011 507.71 575.759 507.71 584.049C507.71 592.338 500.962 599.086 492.672 599.086ZM485.154 580.289C485.154 576.135 488.518 572.771 492.672 572.771C496.826 572.771 500.191 576.135 500.191 580.289C500.191 582.701 498.706 583.999 497.26 585.262C495.888 586.461 494.552 587.629 494.552 589.688H490.793C490.793 586.264 492.563 584.907 494.12 583.714C495.342 582.777 496.432 581.942 496.432 580.289C496.432 578.222 494.74 576.53 492.672 576.53C490.605 576.53 488.913 578.222 488.913 580.289H485.154Z"></path></mask><g mask="url(#nk-399)"><path style="fill:var(--color-illustrationBorder020)" d="M470.116 561.492H515.228V606.604H470.116V561.492Z"></path></g><path style="fill:var(--color-illustrationBorder020)" d="M553.152 574.168V595.161H548.942V581.507L543.318 595.161H540.13L534.476 581.507V595.161H530.266V574.168H535.048L541.724 589.777L548.401 574.168H553.152Z"></path><path style="fill:var(--color-illustrationBorder020)" d="M572.804 586.469C572.804 587.071 572.764 587.612 572.683 588.093H560.503C560.603 589.296 561.024 590.238 561.766 590.92C562.508 591.602 563.42 591.943 564.503 591.943C566.067 591.943 567.18 591.271 567.841 589.928H572.383C571.901 591.532 570.979 592.855 569.616 593.897C568.252 594.92 566.578 595.431 564.593 595.431C562.989 595.431 561.546 595.08 560.263 594.379C558.999 593.657 558.007 592.644 557.285 591.341C556.583 590.038 556.233 588.534 556.233 586.83C556.233 585.106 556.583 583.592 557.285 582.289C557.987 580.985 558.969 579.983 560.232 579.281C561.496 578.579 562.949 578.229 564.593 578.229C566.177 578.229 567.591 578.569 568.834 579.251C570.097 579.933 571.069 580.905 571.751 582.168C572.453 583.411 572.804 584.845 572.804 586.469ZM568.443 585.266C568.423 584.183 568.032 583.321 567.27 582.68C566.508 582.018 565.576 581.687 564.473 581.687C563.43 581.687 562.548 582.008 561.826 582.65C561.125 583.271 560.694 584.143 560.533 585.266H568.443Z"></path><path style="fill:var(--color-illustrationBorder020)" d="M585.11 578.259C587.095 578.259 588.699 578.89 589.922 580.153C591.145 581.396 591.756 583.141 591.756 585.386V595.161H587.546V585.958C587.546 584.634 587.215 583.622 586.553 582.92C585.892 582.198 584.99 581.838 583.847 581.838C582.684 581.838 581.762 582.198 581.08 582.92C580.418 583.622 580.087 584.634 580.087 585.958V595.161H575.877V578.499H580.087V580.574C580.649 579.853 581.361 579.291 582.223 578.89C583.105 578.469 584.067 578.259 585.11 578.259Z"></path><path style="fill:var(--color-illustrationBorder020)" d="M611.489 578.499V595.161H607.249V593.055C606.708 593.777 605.996 594.349 605.114 594.77C604.251 595.171 603.309 595.371 602.287 595.371C600.983 595.371 599.83 595.1 598.828 594.559C597.825 593.998 597.034 593.186 596.452 592.123C595.891 591.04 595.61 589.757 595.61 588.273V578.499H599.82V587.672C599.82 588.995 600.151 590.018 600.813 590.74C601.475 591.441 602.377 591.792 603.52 591.792C604.683 591.792 605.595 591.441 606.256 590.74C606.918 590.018 607.249 588.995 607.249 587.672V578.499H611.489Z"></path><path style="fill:var(--color-illustrationBorder020)" d="M624.945 576.514C624.203 576.514 623.582 576.284 623.081 575.823C622.599 575.341 622.359 574.75 622.359 574.048C622.359 573.346 622.599 572.765 623.081 572.304C623.582 571.823 624.203 571.582 624.945 571.582C625.687 571.582 626.299 571.823 626.78 572.304C627.281 572.765 627.532 573.346 627.532 574.048C627.532 574.75 627.281 575.341 626.78 575.823C626.299 576.284 625.687 576.514 624.945 576.514ZM627.02 578.499V595.161H622.81V578.499H627.02Z"></path><path style="fill:var(--color-illustrationBorder020)" d="M636.083 581.958V590.018C636.083 590.579 636.213 590.99 636.473 591.251C636.754 591.491 637.215 591.612 637.857 591.612H639.812V595.161H637.165C633.616 595.161 631.842 593.436 631.842 589.988V581.958H629.857V578.499H631.842V574.379H636.083V578.499H639.812V581.958H636.083Z"></path><path style="fill:var(--color-illustrationBorder020)" d="M658.329 586.469C658.329 587.071 658.289 587.612 658.208 588.093H646.028C646.128 589.296 646.549 590.238 647.291 590.92C648.033 591.602 648.945 591.943 650.028 591.943C651.592 591.943 652.705 591.271 653.366 589.928H657.908C657.426 591.532 656.504 592.855 655.141 593.897C653.777 594.92 652.103 595.431 650.118 595.431C648.514 595.431 647.071 595.08 645.787 594.379C644.524 593.657 643.532 592.644 642.81 591.341C642.108 590.038 641.757 588.534 641.757 586.83C641.757 585.106 642.108 583.592 642.81 582.289C643.512 580.985 644.494 579.983 645.757 579.281C647.021 578.579 648.474 578.229 650.118 578.229C651.702 578.229 653.116 578.569 654.359 579.251C655.622 579.933 656.594 580.905 657.276 582.168C657.978 583.411 658.329 584.845 658.329 586.469ZM653.968 585.266C653.948 584.183 653.557 583.321 652.795 582.68C652.033 582.018 651.101 581.687 649.998 581.687C648.955 581.687 648.073 582.008 647.351 582.65C646.65 583.271 646.219 584.143 646.058 585.266H653.968Z"></path><path style="fill:var(--color-illustrationBorder020)" d="M682.093 578.259C684.138 578.259 685.782 578.89 687.026 580.153C688.289 581.396 688.92 583.141 688.92 585.386V595.161H684.71V585.958C684.71 584.655 684.379 583.662 683.717 582.98C683.056 582.279 682.153 581.928 681.011 581.928C679.868 581.928 678.955 582.279 678.274 582.98C677.612 583.662 677.281 584.655 677.281 585.958V595.161H673.071V585.958C673.071 584.655 672.74 583.662 672.078 582.98C671.417 582.279 670.515 581.928 669.372 581.928C668.209 581.928 667.287 582.279 666.605 582.98C665.943 583.662 665.612 584.655 665.612 585.958V595.161H661.402V578.499H665.612V580.514C666.154 579.812 666.845 579.261 667.688 578.86C668.55 578.459 669.492 578.259 670.515 578.259C671.818 578.259 672.981 578.539 674.003 579.101C675.026 579.642 675.818 580.424 676.379 581.447C676.92 580.484 677.702 579.712 678.725 579.131C679.768 578.549 680.89 578.259 682.093 578.259Z"></path></g></g><defs><filter id="nk-401" x="409" y="170.04" width="672.967" height="513.194" filterUnits="userSpaceOnUse" color-interpolation-filters="sRGB"><feFlood flood-opacity="0" result="BackgroundImageFix"></feFlood><feColorMatrix in="SourceAlpha" type="matrix" values="0 0 0 0 0 0 0 0 0 0 0 0 0 0 0 0 0 0 127 0" result="hardAlpha"></feColorMatrix><feOffset dy="8"></feOffset><feGaussianBlur stdDeviation="8"></feGaussianBlur><feColorMatrix type="matrix" values="0 0 0 0 0.0392157 0 0 0 0 0.0392157 0 0 0 0 0.0392157 0 0 0 0.08 0"></feColorMatrix><feBlend mode="normal" in2="BackgroundImageFix" result="effect1_dropShadow"></feBlend><feBlend mode="normal" in="SourceGraphic" in2="effect1_dropShadow" result="shape"></feBlend></filter><filter id="nk-402" x="409" y="170.029" width="672.97" height="513.199" filterUnits="userSpaceOnUse" color-interpolation-filters="sRGB"><feFlood flood-opacity="0" result="BackgroundImageFix"></feFlood><feColorMatrix in="SourceAlpha" type="matrix" values="0 0 0 0 0 0 0 0 0 0 0 0 0 0 0 0 0 0 127 0" result="hardAlpha"></feColorMatrix><feOffset dy="8"></feOffset><feGaussianBlur stdDeviation="8"></feGaussianBlur><feColorMatrix type="matrix" values="0 0 0 0 0.0392157 0 0 0 0 0.0392157 0 0 0 0 0.0392157 0 0 0 0.08 0"></feColorMatrix><feBlend mode="normal" in2="BackgroundImageFix" result="effect1_dropShadow"></feBlend><feBlend mode="normal" in="SourceGraphic" in2="effect1_dropShadow" result="shape"></feBlend></filter><clipPath id="nk-400"><rect style="fill:var(--color-white)" x="425" y="178.04" width="640.967" height="481.195" rx="15.0374"></rect></clipPath></defs></svg>