<svg id="components-menu-menu-options-size-illustration" style="width: 100%; height: 100%" width="1490" height="839" viewBox="0 0 1490 839" fill="none" xmlns="http://www.w3.org/2000/svg" class="css-0"><path style="fill:var(--color-illustrationBackground020)" d="M0 4.00001C0 1.79087 1.79086 0 4 0H1486.72C1488.93 0 1490.72 1.79086 1490.72 4V834.004C1490.72 836.213 1488.93 838.004 1486.72 838.004H4.00002C1.79088 838.004 0 836.213 0 834.004V4.00001Z"></path><g filter="url(#nk-497)"><path style="fill:var(--color-illustrationInterface010)" d="M136 387.015C136 382.596 139.582 379.015 144 379.015H352C356.418 379.015 360 382.596 360 387.015V435.015C360 439.433 356.418 443.015 352 443.015H144C139.582 443.015 136 439.433 136 435.015V387.015Z"></path></g><mask id="nk-494" mask-type="alpha" maskUnits="userSpaceOnUse" x="164" y="397" width="29" height="29"><path style="fill:var(--color-black)" fill-rule="evenodd" clip-rule="evenodd" d="M182.807 402.134V406.814H187.488V402.134H182.807ZM168.766 406.814H173.446V402.134H168.766V406.814ZM175.787 420.856H180.467V416.176H175.787V420.856ZM173.446 420.856H168.766V416.176H173.446V420.856ZM168.766 413.835H173.446V409.155H168.766V413.835ZM180.467 413.835H175.787V409.155H180.467V413.835ZM180.467 406.814H175.787V402.134H180.467V406.814ZM182.807 413.835H187.488V409.155H182.807V413.835ZM187.488 420.856H182.807V416.176H187.488V420.856Z"></path></mask><g mask="url(#nk-494)"><path style="fill:var(--color-illustrationHighlight010)" d="M164.085 397.453H192.169V425.537H164.085V397.453Z"></path></g><path style="fill:var(--color-illustrationHighlight010)" d="M215.777 405.456V418.524H213.156V410.024L209.655 418.524H207.67L204.15 410.024V418.524H201.529V405.456H204.506L208.663 415.173L212.819 405.456H215.777Z"></path><path style="fill:var(--color-illustrationHighlight010)" d="M228.011 413.113C228.011 413.488 227.986 413.825 227.936 414.124H220.353C220.415 414.873 220.678 415.46 221.139 415.884C221.601 416.309 222.169 416.521 222.843 416.521C223.817 416.521 224.509 416.103 224.921 415.266H227.748C227.449 416.265 226.875 417.089 226.026 417.738C225.177 418.374 224.135 418.693 222.899 418.693C221.901 418.693 221.002 418.474 220.203 418.037C219.417 417.588 218.799 416.958 218.35 416.146C217.913 415.335 217.695 414.399 217.695 413.338C217.695 412.265 217.913 411.322 218.35 410.511C218.787 409.7 219.398 409.076 220.185 408.639C220.971 408.202 221.876 407.983 222.899 407.983C223.885 407.983 224.765 408.196 225.539 408.62C226.326 409.044 226.931 409.65 227.355 410.436C227.792 411.21 228.011 412.102 228.011 413.113ZM225.296 412.364C225.283 411.69 225.04 411.154 224.566 410.754C224.091 410.342 223.511 410.136 222.824 410.136C222.175 410.136 221.626 410.336 221.177 410.736C220.74 411.122 220.472 411.665 220.372 412.364H225.296Z"></path><path style="fill:var(--color-illustrationHighlight010)" d="M235.672 408.002C236.907 408.002 237.906 408.395 238.667 409.182C239.429 409.955 239.809 411.041 239.809 412.439V418.524H237.188V412.795C237.188 411.971 236.982 411.341 236.57 410.904C236.158 410.455 235.597 410.23 234.885 410.23C234.161 410.23 233.587 410.455 233.163 410.904C232.751 411.341 232.545 411.971 232.545 412.795V418.524H229.924V408.152H232.545V409.444C232.894 408.994 233.337 408.645 233.874 408.395C234.423 408.133 235.022 408.002 235.672 408.002Z"></path><path style="fill:var(--color-illustrationHighlight010)" d="M252.094 408.152V418.524H249.454V417.214C249.117 417.663 248.674 418.019 248.124 418.281C247.588 418.53 247.001 418.655 246.365 418.655C245.553 418.655 244.836 418.487 244.211 418.15C243.587 417.8 243.094 417.295 242.732 416.633C242.383 415.959 242.208 415.16 242.208 414.237V408.152H244.829V413.862C244.829 414.686 245.035 415.323 245.447 415.772C245.859 416.209 246.421 416.427 247.132 416.427C247.856 416.427 248.424 416.209 248.836 415.772C249.248 415.323 249.454 414.686 249.454 413.862V408.152H252.094Z"></path><path style="fill:var(--color-illustrationHighlight010)" d="M260.47 406.916C260.008 406.916 259.622 406.773 259.309 406.486C259.01 406.186 258.86 405.818 258.86 405.381C258.86 404.944 259.01 404.582 259.309 404.295C259.622 403.995 260.008 403.846 260.47 403.846C260.932 403.846 261.313 403.995 261.612 404.295C261.924 404.582 262.08 404.944 262.08 405.381C262.08 405.818 261.924 406.186 261.612 406.486C261.313 406.773 260.932 406.916 260.47 406.916ZM261.762 408.152V418.524H259.141V408.152H261.762Z"></path><path style="fill:var(--color-illustrationHighlight010)" d="M267.404 410.305V415.323C267.404 415.672 267.485 415.928 267.647 416.09C267.822 416.24 268.109 416.315 268.508 416.315H269.725V418.524H268.078C265.868 418.524 264.764 417.451 264.764 415.304V410.305H263.528V408.152H264.764V405.587H267.404V408.152H269.725V410.305H267.404Z"></path><path style="fill:var(--color-illustrationHighlight010)" d="M281.252 413.113C281.252 413.488 281.228 413.825 281.178 414.124H273.595C273.657 414.873 273.92 415.46 274.381 415.884C274.843 416.309 275.411 416.521 276.085 416.521C277.059 416.521 277.751 416.103 278.163 415.266H280.99C280.691 416.265 280.117 417.089 279.268 417.738C278.419 418.374 277.377 418.693 276.141 418.693C275.143 418.693 274.244 418.474 273.445 418.037C272.659 417.588 272.041 416.958 271.592 416.146C271.155 415.335 270.936 414.399 270.936 413.338C270.936 412.265 271.155 411.322 271.592 410.511C272.029 409.7 272.64 409.076 273.426 408.639C274.213 408.202 275.118 407.983 276.141 407.983C277.127 407.983 278.007 408.196 278.781 408.62C279.567 409.044 280.173 409.65 280.597 410.436C281.034 411.21 281.252 412.102 281.252 413.113ZM278.538 412.364C278.525 411.69 278.282 411.154 277.808 410.754C277.333 410.342 276.753 410.136 276.066 410.136C275.417 410.136 274.868 410.336 274.419 410.736C273.982 411.122 273.714 411.665 273.614 412.364H278.538Z"></path><path style="fill:var(--color-illustrationHighlight010)" d="M296.047 408.002C297.32 408.002 298.343 408.395 299.117 409.182C299.904 409.955 300.297 411.041 300.297 412.439V418.524H297.676V412.795C297.676 411.984 297.47 411.366 297.058 410.942C296.646 410.505 296.084 410.286 295.373 410.286C294.661 410.286 294.093 410.505 293.669 410.942C293.257 411.366 293.051 411.984 293.051 412.795V418.524H290.43V412.795C290.43 411.984 290.224 411.366 289.812 410.942C289.4 410.505 288.839 410.286 288.127 410.286C287.403 410.286 286.829 410.505 286.405 410.942C285.993 411.366 285.787 411.984 285.787 412.795V418.524H283.166V408.152H285.787V409.406C286.124 408.969 286.554 408.626 287.079 408.377C287.615 408.127 288.202 408.002 288.839 408.002C289.65 408.002 290.374 408.177 291.01 408.526C291.647 408.863 292.14 409.35 292.489 409.987C292.826 409.388 293.313 408.907 293.95 408.545C294.599 408.183 295.298 408.002 296.047 408.002Z"></path><path style="fill:var(--color-illustrationHighlight010)" d="M357.66 444.26V378.731H360V444.26H357.66Z"></path><g filter="url(#nk-498)"><path style="fill:var(--color-illustrationInterface010)" d="M520 367.015C520 362.596 523.582 359.015 528 359.015H802C806.418 359.015 810 362.596 810 367.015V437.015C810 441.433 806.418 445.015 802 445.015H528C523.582 445.015 520 441.433 520 437.015V367.015Z"></path></g><mask id="nk-495" mask-type="alpha" maskUnits="userSpaceOnUse" x="556" y="383" width="37" height="37"><path style="fill:var(--color-black)" fill-rule="evenodd" clip-rule="evenodd" d="M580.623 389.441V395.501H586.683V389.441H580.623ZM562.444 395.501H568.504V389.442H562.444V395.501ZM571.534 413.68H577.594V407.621H571.534V413.68ZM568.504 413.68H562.444V407.621H568.504V413.68ZM562.444 404.591H568.504V398.531H562.444V404.591ZM577.594 404.591H571.534V398.531H577.594V404.591ZM577.594 395.501H571.534V389.442H577.594V395.501ZM580.624 404.591H586.683V398.531H580.624V404.591ZM586.683 413.68H580.623V407.621H586.683V413.68Z"></path></mask><g mask="url(#nk-495)"><path style="fill:var(--color-illustrationHighlight010)" d="M556.385 383.382H592.743V419.74H556.385V383.382Z"></path></g><path style="fill:var(--color-illustrationHighlight010)" d="M623.309 393.7V410.619H619.916V399.614L615.383 410.619H612.814L608.257 399.614V410.619H604.863V393.7H608.717L614.098 406.28L619.479 393.7H623.309Z"></path><path style="fill:var(--color-illustrationHighlight010)" d="M639.147 403.613C639.147 404.098 639.115 404.535 639.05 404.922H629.233C629.314 405.892 629.654 406.651 630.251 407.201C630.849 407.75 631.585 408.025 632.457 408.025C633.718 408.025 634.614 407.484 635.148 406.401H638.808C638.42 407.694 637.677 408.76 636.578 409.6C635.479 410.425 634.13 410.837 632.53 410.837C631.237 410.837 630.074 410.554 629.039 409.988C628.021 409.407 627.222 408.591 626.64 407.54C626.074 406.49 625.791 405.278 625.791 403.904C625.791 402.515 626.074 401.295 626.64 400.244C627.205 399.194 627.997 398.386 629.015 397.82C630.033 397.255 631.205 396.972 632.53 396.972C633.806 396.972 634.946 397.247 635.948 397.796C636.966 398.346 637.749 399.129 638.299 400.147C638.864 401.149 639.147 402.305 639.147 403.613ZM635.632 402.644C635.616 401.771 635.301 401.076 634.687 400.559C634.073 400.026 633.322 399.759 632.433 399.759C631.593 399.759 630.882 400.018 630.3 400.535C629.734 401.036 629.387 401.739 629.258 402.644H635.632Z"></path><path style="fill:var(--color-illustrationHighlight010)" d="M649.065 396.996C650.665 396.996 651.958 397.505 652.944 398.523C653.929 399.525 654.422 400.931 654.422 402.741V410.619H651.029V403.201C651.029 402.135 650.762 401.319 650.229 400.753C649.696 400.172 648.968 399.881 648.047 399.881C647.11 399.881 646.367 400.172 645.817 400.753C645.284 401.319 645.017 402.135 645.017 403.201V410.619H641.624V397.19H645.017V398.863C645.47 398.281 646.044 397.828 646.738 397.505C647.449 397.166 648.225 396.996 649.065 396.996Z"></path><path style="fill:var(--color-illustrationHighlight010)" d="M670.326 397.19V410.619H666.908V408.922C666.472 409.504 665.898 409.964 665.187 410.303C664.493 410.627 663.733 410.788 662.909 410.788C661.859 410.788 660.929 410.57 660.121 410.134C659.313 409.681 658.675 409.027 658.207 408.17C657.754 407.298 657.528 406.264 657.528 405.068V397.19H660.921V404.583C660.921 405.65 661.188 406.474 661.721 407.055C662.254 407.621 662.982 407.904 663.903 407.904C664.84 407.904 665.575 407.621 666.108 407.055C666.642 406.474 666.908 405.65 666.908 404.583V397.19H670.326Z"></path><path style="fill:var(--color-illustrationHighlight010)" d="M681.171 395.59C680.573 395.59 680.072 395.405 679.668 395.033C679.28 394.645 679.086 394.168 679.086 393.603C679.086 393.037 679.28 392.569 679.668 392.197C680.072 391.809 680.573 391.615 681.171 391.615C681.769 391.615 682.262 391.809 682.649 392.197C683.053 392.569 683.255 393.037 683.255 393.603C683.255 394.168 683.053 394.645 682.649 395.033C682.262 395.405 681.769 395.59 681.171 395.59ZM682.843 397.19V410.619H679.45V397.19H682.843Z"></path><path style="fill:var(--color-illustrationHighlight010)" d="M690.147 399.978V406.474C690.147 406.926 690.252 407.257 690.462 407.467C690.688 407.661 691.06 407.758 691.577 407.758H693.153V410.619H691.02C688.159 410.619 686.729 409.229 686.729 406.449V399.978H685.13V397.19H686.729V393.869H690.147V397.19H693.153V399.978H690.147Z"></path><path style="fill:var(--color-illustrationHighlight010)" d="M708.076 403.613C708.076 404.098 708.044 404.535 707.979 404.922H698.163C698.243 405.892 698.583 406.651 699.181 407.201C699.779 407.75 700.514 408.025 701.386 408.025C702.647 408.025 703.544 407.484 704.077 406.401H707.737C707.349 407.694 706.606 408.76 705.507 409.6C704.408 410.425 703.059 410.837 701.459 410.837C700.166 410.837 699.003 410.554 697.969 409.988C696.951 409.407 696.151 408.591 695.569 407.54C695.003 406.49 694.721 405.278 694.721 403.904C694.721 402.515 695.003 401.295 695.569 400.244C696.135 399.194 696.926 398.386 697.944 397.82C698.963 397.255 700.134 396.972 701.459 396.972C702.736 396.972 703.875 397.247 704.877 397.796C705.895 398.346 706.679 399.129 707.228 400.147C707.794 401.149 708.076 402.305 708.076 403.613ZM704.562 402.644C704.546 401.771 704.23 401.076 703.616 400.559C703.002 400.026 702.251 399.759 701.362 399.759C700.522 399.759 699.811 400.018 699.229 400.535C698.664 401.036 698.316 401.739 698.187 402.644H704.562Z"></path><path style="fill:var(--color-illustrationHighlight010)" d="M727.23 396.996C728.878 396.996 730.203 397.505 731.205 398.523C732.223 399.525 732.732 400.931 732.732 402.741V410.619H729.338V403.201C729.338 402.151 729.072 401.351 728.538 400.802C728.005 400.236 727.278 399.953 726.357 399.953C725.436 399.953 724.701 400.236 724.151 400.802C723.618 401.351 723.351 402.151 723.351 403.201V410.619H719.958V403.201C719.958 402.151 719.691 401.351 719.158 400.802C718.625 400.236 717.898 399.953 716.977 399.953C716.039 399.953 715.296 400.236 714.747 400.802C714.213 401.351 713.947 402.151 713.947 403.201V410.619H710.553V397.19H713.947V398.814C714.383 398.249 714.94 397.804 715.619 397.481C716.314 397.158 717.073 396.996 717.898 396.996C718.948 396.996 719.885 397.222 720.709 397.675C721.533 398.111 722.172 398.741 722.624 399.566C723.06 398.79 723.691 398.168 724.515 397.699C725.355 397.231 726.26 396.996 727.23 396.996Z"></path><path style="fill:var(--color-illustrationHighlight010)" d="M806.996 443.979V359.143H810.026V443.979H806.996Z"></path><g filter="url(#nk-499)"><path style="fill:var(--color-illustrationInterface010)" d="M970 334.015C970 329.596 973.582 326.015 978 326.015H1347C1351.42 326.015 1355 329.596 1355 334.015V430.015C1355 434.433 1351.42 438.015 1347 438.015H978C973.582 438.015 970 434.433 970 430.015V334.015Z"></path></g><mask id="nk-496" mask-type="alpha" maskUnits="userSpaceOnUse" x="1018" y="358" width="49" height="49"><path style="fill:var(--color-black)" fill-rule="evenodd" clip-rule="evenodd" d="M1026.36 374.277H1034.4V366.233H1026.36V374.277ZM1038.42 398.408H1046.47V390.365H1038.42V398.408ZM1034.4 398.408H1026.36V390.365H1034.4V398.408ZM1026.36 386.343H1034.4V378.299H1026.36V386.343ZM1046.47 386.343H1038.42V378.299H1046.47V386.343ZM1050.49 366.233V374.277H1058.53V366.233H1050.49ZM1046.47 374.277H1038.42V366.233H1046.47V374.277ZM1050.49 386.343H1058.53V378.299H1050.49V386.343ZM1058.53 398.408H1050.49V390.365H1058.53V398.408Z"></path></mask><g mask="url(#nk-496)"><path style="fill:var(--color-illustrationHighlight010)" d="M1018.32 358.189H1066.58V406.452H1018.32V358.189Z"></path></g><path style="fill:var(--color-illustrationHighlight010)" d="M1107.15 372.277V394.735H1102.65V380.127L1096.63 394.735H1093.22L1087.17 380.127V394.735H1082.67V372.277H1087.78L1094.92 388.976L1102.07 372.277H1107.15Z"></path><path style="fill:var(--color-illustrationHighlight010)" d="M1128.17 385.436C1128.17 386.08 1128.13 386.659 1128.04 387.174H1115.01C1115.12 388.461 1115.57 389.469 1116.37 390.198C1117.16 390.928 1118.14 391.292 1119.29 391.292C1120.97 391.292 1122.16 390.574 1122.86 389.136H1127.72C1127.21 390.852 1126.22 392.268 1124.76 393.384C1123.3 394.477 1121.51 395.024 1119.39 395.024C1117.67 395.024 1116.13 394.649 1114.76 393.898C1113.41 393.126 1112.34 392.043 1111.57 390.649C1110.82 389.254 1110.45 387.646 1110.45 385.822C1110.45 383.978 1110.82 382.358 1111.57 380.964C1112.32 379.57 1113.37 378.497 1114.72 377.747C1116.08 376.996 1117.63 376.62 1119.39 376.62C1121.08 376.62 1122.6 376.985 1123.93 377.714C1125.28 378.444 1126.32 379.484 1127.05 380.835C1127.8 382.165 1128.17 383.699 1128.17 385.436ZM1123.51 384.149C1123.49 382.991 1123.07 382.069 1122.25 381.382C1121.44 380.674 1120.44 380.321 1119.26 380.321C1118.15 380.321 1117.2 380.664 1116.43 381.35C1115.68 382.015 1115.22 382.948 1115.05 384.149H1123.51Z"></path><path style="fill:var(--color-illustrationHighlight010)" d="M1141.34 376.653C1143.46 376.653 1145.18 377.328 1146.49 378.68C1147.8 380.01 1148.45 381.876 1148.45 384.278V394.735H1143.95V384.889C1143.95 383.474 1143.59 382.39 1142.88 381.64C1142.18 380.868 1141.21 380.481 1139.99 380.481C1138.74 380.481 1137.76 380.868 1137.03 381.64C1136.32 382.39 1135.97 383.474 1135.97 384.889V394.735H1131.46V376.91H1135.97V379.13C1136.57 378.358 1137.33 377.757 1138.25 377.328C1139.19 376.878 1140.22 376.653 1141.34 376.653Z"></path><path style="fill:var(--color-illustrationHighlight010)" d="M1169.56 376.91V394.735H1165.02V392.483C1164.45 393.255 1163.68 393.866 1162.74 394.317C1161.82 394.746 1160.81 394.96 1159.72 394.96C1158.32 394.96 1157.09 394.671 1156.02 394.091C1154.94 393.491 1154.1 392.622 1153.47 391.485C1152.87 390.327 1152.57 388.954 1152.57 387.367V376.91H1157.08V386.723C1157.08 388.139 1157.43 389.233 1158.14 390.005C1158.85 390.756 1159.81 391.131 1161.03 391.131C1162.28 391.131 1163.25 390.756 1163.96 390.005C1164.67 389.233 1165.02 388.139 1165.02 386.723V376.91H1169.56Z"></path><path style="fill:var(--color-illustrationHighlight010)" d="M1183.96 374.786C1183.16 374.786 1182.5 374.54 1181.96 374.046C1181.45 373.532 1181.19 372.899 1181.19 372.148C1181.19 371.397 1181.45 370.775 1181.96 370.282C1182.5 369.767 1183.16 369.51 1183.96 369.51C1184.75 369.51 1185.4 369.767 1185.92 370.282C1186.46 370.775 1186.72 371.397 1186.72 372.148C1186.72 372.899 1186.46 373.532 1185.92 374.046C1185.4 374.54 1184.75 374.786 1183.96 374.786ZM1186.18 376.91V394.735H1181.67V376.91H1186.18Z"></path><path style="fill:var(--color-illustrationHighlight010)" d="M1195.87 380.61V389.233C1195.87 389.834 1196.01 390.273 1196.29 390.552C1196.59 390.81 1197.08 390.938 1197.77 390.938H1199.86V394.735H1197.03C1193.23 394.735 1191.33 392.89 1191.33 389.201V380.61H1189.21V376.91H1191.33V372.502H1195.87V376.91H1199.86V380.61H1195.87Z"></path><path style="fill:var(--color-illustrationHighlight010)" d="M1219.67 385.436C1219.67 386.08 1219.63 386.659 1219.54 387.174H1206.51C1206.62 388.461 1207.07 389.469 1207.86 390.198C1208.66 390.928 1209.63 391.292 1210.79 391.292C1212.46 391.292 1213.65 390.574 1214.36 389.136H1219.22C1218.71 390.852 1217.72 392.268 1216.26 393.384C1214.8 394.477 1213.01 395.024 1210.89 395.024C1209.17 395.024 1207.63 394.649 1206.25 393.898C1204.9 393.126 1203.84 392.043 1203.07 390.649C1202.32 389.254 1201.94 387.646 1201.94 385.822C1201.94 383.978 1202.32 382.358 1203.07 380.964C1203.82 379.57 1204.87 378.497 1206.22 377.747C1207.57 376.996 1209.13 376.62 1210.89 376.62C1212.58 376.62 1214.09 376.985 1215.42 377.714C1216.78 378.444 1217.82 379.484 1218.54 380.835C1219.3 382.165 1219.67 383.699 1219.67 385.436ZM1215.01 384.149C1214.98 382.991 1214.57 382.069 1213.75 381.382C1212.94 380.674 1211.94 380.321 1210.76 380.321C1209.64 380.321 1208.7 380.664 1207.93 381.35C1207.18 382.015 1206.72 382.948 1206.54 384.149H1215.01Z"></path><path style="fill:var(--color-illustrationHighlight010)" d="M1245.1 376.653C1247.28 376.653 1249.04 377.328 1250.37 378.68C1251.72 380.01 1252.4 381.876 1252.4 384.278V394.735H1247.89V384.889C1247.89 383.495 1247.54 382.433 1246.83 381.704C1246.12 380.953 1245.16 380.578 1243.94 380.578C1242.71 380.578 1241.74 380.953 1241.01 381.704C1240.3 382.433 1239.95 383.495 1239.95 384.889V394.735H1235.44V384.889C1235.44 383.495 1235.09 382.433 1234.38 381.704C1233.67 380.953 1232.71 380.578 1231.49 380.578C1230.24 380.578 1229.25 380.953 1228.53 381.704C1227.82 382.433 1227.46 383.495 1227.46 384.889V394.735H1222.96V376.91H1227.46V379.066C1228.04 378.315 1228.78 377.725 1229.68 377.296C1230.61 376.867 1231.61 376.653 1232.71 376.653C1234.1 376.653 1235.35 376.953 1236.44 377.553C1237.53 378.133 1238.38 378.969 1238.98 380.063C1239.56 379.034 1240.4 378.208 1241.49 377.586C1242.61 376.964 1243.81 376.653 1245.1 376.653Z"></path><path style="fill:var(--color-illustrationHighlight010)" d="M1350.98 438.627V326.015H1355V438.627H1350.98Z"></path><path style="fill:var(--color-illustrationHighlight010)" d="M215.748 510.646C214.46 510.646 213.303 510.422 212.276 509.974C211.268 509.508 210.475 508.873 209.896 508.07C209.317 507.249 209.019 506.306 209 505.242H211.716C211.809 506.157 212.183 506.932 212.836 507.566C213.508 508.182 214.479 508.49 215.748 508.49C216.961 508.49 217.913 508.192 218.604 507.594C219.313 506.978 219.668 506.194 219.668 505.242C219.668 504.496 219.463 503.889 219.052 503.422C218.641 502.956 218.128 502.601 217.512 502.358C216.896 502.116 216.065 501.854 215.02 501.574C213.732 501.238 212.696 500.902 211.912 500.566C211.147 500.23 210.484 499.708 209.924 498.998C209.383 498.27 209.112 497.3 209.112 496.086C209.112 495.022 209.383 494.08 209.924 493.258C210.465 492.437 211.221 491.802 212.192 491.354C213.181 490.906 214.311 490.682 215.58 490.682C217.409 490.682 218.903 491.14 220.06 492.054C221.236 492.969 221.899 494.182 222.048 495.694H219.248C219.155 494.948 218.763 494.294 218.072 493.734C217.381 493.156 216.467 492.866 215.328 492.866C214.264 492.866 213.396 493.146 212.724 493.706C212.052 494.248 211.716 495.013 211.716 496.002C211.716 496.712 211.912 497.29 212.304 497.738C212.715 498.186 213.209 498.532 213.788 498.774C214.385 498.998 215.216 499.26 216.28 499.558C217.568 499.913 218.604 500.268 219.388 500.622C220.172 500.958 220.844 501.49 221.404 502.218C221.964 502.928 222.244 503.898 222.244 505.13C222.244 506.082 221.992 506.978 221.488 507.818C220.984 508.658 220.237 509.34 219.248 509.862C218.259 510.385 217.092 510.646 215.748 510.646Z"></path><path style="fill:var(--color-illustrationHighlight010)" d="M244.446 494.826C245.64 494.826 246.704 495.078 247.638 495.582C248.571 496.068 249.308 496.805 249.85 497.794C250.391 498.784 250.662 499.988 250.662 501.406V510.45H248.142V501.77C248.142 500.24 247.759 499.073 246.994 498.27C246.247 497.449 245.23 497.038 243.942 497.038C242.616 497.038 241.562 497.468 240.778 498.326C239.994 499.166 239.602 500.389 239.602 501.994V510.45H237.082V501.77C237.082 500.24 236.699 499.073 235.934 498.27C235.187 497.449 234.17 497.038 232.882 497.038C231.556 497.038 230.502 497.468 229.718 498.326C228.934 499.166 228.542 500.389 228.542 501.994V510.45H225.994V495.106H228.542V497.318C229.046 496.516 229.718 495.9 230.558 495.47C231.416 495.041 232.359 494.826 233.386 494.826C234.674 494.826 235.812 495.116 236.802 495.694C237.791 496.273 238.528 497.122 239.014 498.242C239.443 497.16 240.152 496.32 241.142 495.722C242.131 495.125 243.232 494.826 244.446 494.826Z"></path><path style="fill:var(--color-illustrationHighlight010)" d="M253.889 502.722C253.889 501.154 254.207 499.782 254.841 498.606C255.476 497.412 256.344 496.488 257.445 495.834C258.565 495.181 259.807 494.854 261.169 494.854C262.513 494.854 263.68 495.144 264.669 495.722C265.659 496.301 266.396 497.029 266.881 497.906V495.106H269.457V510.45H266.881V507.594C266.377 508.49 265.621 509.237 264.613 509.834C263.624 510.413 262.467 510.702 261.141 510.702C259.779 510.702 258.547 510.366 257.445 509.694C256.344 509.022 255.476 508.08 254.841 506.866C254.207 505.653 253.889 504.272 253.889 502.722ZM266.881 502.75C266.881 501.593 266.648 500.585 266.181 499.726C265.715 498.868 265.08 498.214 264.277 497.766C263.493 497.3 262.625 497.066 261.673 497.066C260.721 497.066 259.853 497.29 259.069 497.738C258.285 498.186 257.66 498.84 257.193 499.698C256.727 500.557 256.493 501.565 256.493 502.722C256.493 503.898 256.727 504.925 257.193 505.802C257.66 506.661 258.285 507.324 259.069 507.79C259.853 508.238 260.721 508.462 261.673 508.462C262.625 508.462 263.493 508.238 264.277 507.79C265.08 507.324 265.715 506.661 266.181 505.802C266.648 504.925 266.881 503.908 266.881 502.75Z"></path><path style="fill:var(--color-illustrationHighlight010)" d="M276.311 489.73V510.45H273.763V489.73H276.311Z"></path><path style="fill:var(--color-illustrationHighlight010)" d="M283.202 489.73V510.45H280.654V489.73H283.202Z"></path><path style="fill:var(--color-illustrationHighlight010)" d="M627.321 491.075V510.451H624.773V496.003L618.333 510.451H616.541L610.073 495.975V510.451H607.525V491.075H610.269L617.437 507.091L624.605 491.075H627.321Z"></path><path style="fill:var(--color-illustrationHighlight010)" d="M645.643 502.191C645.643 502.676 645.615 503.189 645.559 503.731H633.295C633.388 505.243 633.901 506.428 634.835 507.287C635.787 508.127 636.935 508.547 638.279 508.547C639.38 508.547 640.295 508.295 641.023 507.791C641.769 507.268 642.292 506.577 642.591 505.719H645.335C644.924 507.193 644.103 508.397 642.871 509.331C641.639 510.245 640.108 510.703 638.279 510.703C636.823 510.703 635.516 510.376 634.359 509.723C633.22 509.069 632.324 508.145 631.671 506.951C631.017 505.737 630.691 504.337 630.691 502.751C630.691 501.164 631.008 499.773 631.643 498.579C632.277 497.384 633.164 496.469 634.303 495.835C635.46 495.181 636.785 494.855 638.279 494.855C639.735 494.855 641.023 495.172 642.143 495.807C643.263 496.441 644.121 497.319 644.719 498.439C645.335 499.54 645.643 500.791 645.643 502.191ZM643.011 501.659C643.011 500.688 642.796 499.857 642.367 499.167C641.937 498.457 641.349 497.925 640.603 497.571C639.875 497.197 639.063 497.011 638.167 497.011C636.879 497.011 635.777 497.421 634.863 498.243C633.967 499.064 633.453 500.203 633.323 501.659H643.011Z"></path><path style="fill:var(--color-illustrationHighlight010)" d="M648.054 502.723C648.054 501.155 648.371 499.783 649.006 498.607C649.641 497.412 650.509 496.488 651.61 495.835C652.73 495.181 653.981 494.855 655.362 494.855C656.557 494.855 657.667 495.135 658.694 495.695C659.721 496.236 660.505 496.955 661.046 497.851V489.731H663.622V510.451H661.046V507.567C660.542 508.481 659.795 509.237 658.806 509.835C657.817 510.413 656.659 510.703 655.334 510.703C653.971 510.703 652.73 510.367 651.61 509.695C650.509 509.023 649.641 508.08 649.006 506.867C648.371 505.653 648.054 504.272 648.054 502.723ZM661.046 502.751C661.046 501.593 660.813 500.585 660.346 499.727C659.879 498.868 659.245 498.215 658.442 497.767C657.658 497.3 656.79 497.067 655.838 497.067C654.886 497.067 654.018 497.291 653.234 497.739C652.45 498.187 651.825 498.84 651.358 499.699C650.891 500.557 650.658 501.565 650.658 502.723C650.658 503.899 650.891 504.925 651.358 505.803C651.825 506.661 652.45 507.324 653.234 507.791C654.018 508.239 654.886 508.463 655.838 508.463C656.79 508.463 657.658 508.239 658.442 507.791C659.245 507.324 659.879 506.661 660.346 505.803C660.813 504.925 661.046 503.908 661.046 502.751Z"></path><path style="fill:var(--color-illustrationHighlight010)" d="M669.244 492.615C668.758 492.615 668.348 492.447 668.012 492.111C667.676 491.775 667.508 491.364 667.508 490.879C667.508 490.393 667.676 489.983 668.012 489.647C668.348 489.311 668.758 489.143 669.244 489.143C669.71 489.143 670.102 489.311 670.42 489.647C670.756 489.983 670.924 490.393 670.924 490.879C670.924 491.364 670.756 491.775 670.42 492.111C670.102 492.447 669.71 492.615 669.244 492.615ZM670.476 495.107V510.451H667.928V495.107H670.476Z"></path><path style="fill:var(--color-illustrationHighlight010)" d="M688.426 495.107V510.451H685.878V508.183C685.393 508.967 684.712 509.583 683.834 510.031C682.976 510.46 682.024 510.675 680.978 510.675C679.784 510.675 678.71 510.432 677.758 509.947C676.806 509.443 676.05 508.696 675.49 507.707C674.949 506.717 674.678 505.513 674.678 504.095V495.107H677.198V503.759C677.198 505.271 677.581 506.437 678.346 507.259C679.112 508.061 680.157 508.463 681.482 508.463C682.845 508.463 683.918 508.043 684.702 507.203C685.486 506.363 685.878 505.14 685.878 503.535V495.107H688.426Z"></path><path style="fill:var(--color-illustrationHighlight010)" d="M711.181 494.827C712.375 494.827 713.439 495.079 714.373 495.583C715.306 496.068 716.043 496.805 716.585 497.795C717.126 498.784 717.397 499.988 717.397 501.407V510.451H714.877V501.771C714.877 500.24 714.494 499.073 713.729 498.271C712.982 497.449 711.965 497.039 710.677 497.039C709.351 497.039 708.297 497.468 707.513 498.327C706.729 499.167 706.337 500.389 706.337 501.995V510.451H703.817V501.771C703.817 500.24 703.434 499.073 702.669 498.271C701.922 497.449 700.905 497.039 699.617 497.039C698.291 497.039 697.237 497.468 696.453 498.327C695.669 499.167 695.277 500.389 695.277 501.995V510.451H692.729V495.107H695.277V497.319C695.781 496.516 696.453 495.9 697.293 495.471C698.151 495.041 699.094 494.827 700.121 494.827C701.409 494.827 702.547 495.116 703.537 495.695C704.526 496.273 705.263 497.123 705.749 498.243C706.178 497.16 706.887 496.32 707.877 495.723C708.866 495.125 709.967 494.827 711.181 494.827Z"></path><path style="fill:var(--color-illustrationHighlight010)" d="M1126.07 501.071H1132.91V503.143H1123.53V483.627H1126.07V501.071Z"></path><path style="fill:var(--color-illustrationHighlight010)" d="M1134.66 495.415C1134.66 493.847 1134.98 492.475 1135.61 491.299C1136.25 490.104 1137.11 489.18 1138.22 488.527C1139.34 487.874 1140.58 487.547 1141.94 487.547C1143.28 487.547 1144.45 487.836 1145.44 488.415C1146.43 488.994 1147.17 489.722 1147.65 490.599V487.799H1150.23V503.143H1147.65V500.287C1147.15 501.183 1146.39 501.93 1145.38 502.527C1144.39 503.106 1143.24 503.395 1141.91 503.395C1140.55 503.395 1139.32 503.059 1138.22 502.387C1137.11 501.715 1136.25 500.772 1135.61 499.559C1134.98 498.346 1134.66 496.964 1134.66 495.415ZM1147.65 495.443C1147.65 494.286 1147.42 493.278 1146.95 492.419C1146.48 491.56 1145.85 490.907 1145.05 490.459C1144.26 489.992 1143.4 489.759 1142.44 489.759C1141.49 489.759 1140.62 489.983 1139.84 490.431C1139.06 490.879 1138.43 491.532 1137.96 492.391C1137.5 493.25 1137.26 494.258 1137.26 495.415C1137.26 496.591 1137.5 497.618 1137.96 498.495C1138.43 499.354 1139.06 500.016 1139.84 500.483C1140.62 500.931 1141.49 501.155 1142.44 501.155C1143.4 501.155 1144.26 500.931 1145.05 500.483C1145.85 500.016 1146.48 499.354 1146.95 498.495C1147.42 497.618 1147.65 496.6 1147.65 495.443Z"></path><path style="fill:var(--color-illustrationHighlight010)" d="M1157.08 490.291C1157.53 489.414 1158.16 488.732 1158.99 488.247C1159.83 487.762 1160.84 487.519 1162.04 487.519V490.151H1161.37C1158.51 490.151 1157.08 491.7 1157.08 494.799V503.143H1154.53V487.799H1157.08V490.291Z"></path><path style="fill:var(--color-illustrationHighlight010)" d="M1171.31 487.547C1172.63 487.547 1173.79 487.836 1174.78 488.415C1175.79 488.994 1176.53 489.722 1177.02 490.599V487.799H1179.59V503.479C1179.59 504.879 1179.3 506.12 1178.7 507.203C1178.1 508.304 1177.24 509.163 1176.12 509.779C1175.02 510.395 1173.73 510.703 1172.26 510.703C1170.24 510.703 1168.56 510.227 1167.22 509.275C1165.87 508.323 1165.08 507.026 1164.84 505.383H1167.36C1167.64 506.316 1168.22 507.063 1169.09 507.623C1169.97 508.202 1171.03 508.491 1172.26 508.491C1173.66 508.491 1174.8 508.052 1175.67 507.175C1176.57 506.298 1177.02 505.066 1177.02 503.479V500.259C1176.51 501.155 1175.77 501.902 1174.78 502.499C1173.79 503.096 1172.63 503.395 1171.31 503.395C1169.94 503.395 1168.7 503.059 1167.58 502.387C1166.48 501.715 1165.61 500.772 1164.98 499.559C1164.34 498.346 1164.03 496.964 1164.03 495.415C1164.03 493.847 1164.34 492.475 1164.98 491.299C1165.61 490.104 1166.48 489.18 1167.58 488.527C1168.7 487.874 1169.94 487.547 1171.31 487.547ZM1177.02 495.443C1177.02 494.286 1176.79 493.278 1176.32 492.419C1175.85 491.56 1175.22 490.907 1174.41 490.459C1173.63 489.992 1172.76 489.759 1171.81 489.759C1170.86 489.759 1169.99 489.983 1169.21 490.431C1168.42 490.879 1167.8 491.532 1167.33 492.391C1166.86 493.25 1166.63 494.258 1166.63 495.415C1166.63 496.591 1166.86 497.618 1167.33 498.495C1167.8 499.354 1168.42 500.016 1169.21 500.483C1169.99 500.931 1170.86 501.155 1171.81 501.155C1172.76 501.155 1173.63 500.931 1174.41 500.483C1175.22 500.016 1175.85 499.354 1176.32 498.495C1176.79 497.618 1177.02 496.6 1177.02 495.443Z"></path><path style="fill:var(--color-illustrationHighlight010)" d="M1197.9 494.883C1197.9 495.368 1197.87 495.882 1197.82 496.423H1185.55C1185.65 497.935 1186.16 499.12 1187.09 499.979C1188.04 500.819 1189.19 501.239 1190.54 501.239C1191.64 501.239 1192.55 500.987 1193.28 500.483C1194.03 499.96 1194.55 499.27 1194.85 498.411H1197.59C1197.18 499.886 1196.36 501.09 1195.13 502.023C1193.9 502.938 1192.37 503.395 1190.54 503.395C1189.08 503.395 1187.77 503.068 1186.62 502.415C1185.48 501.762 1184.58 500.838 1183.93 499.643C1183.28 498.43 1182.95 497.03 1182.95 495.443C1182.95 493.856 1183.27 492.466 1183.9 491.271C1184.54 490.076 1185.42 489.162 1186.56 488.527C1187.72 487.874 1189.04 487.547 1190.54 487.547C1191.99 487.547 1193.28 487.864 1194.4 488.499C1195.52 489.134 1196.38 490.011 1196.98 491.131C1197.59 492.232 1197.9 493.483 1197.9 494.883ZM1195.27 494.351C1195.27 493.38 1195.05 492.55 1194.62 491.859C1194.2 491.15 1193.61 490.618 1192.86 490.263C1192.13 489.89 1191.32 489.703 1190.42 489.703C1189.14 489.703 1188.04 490.114 1187.12 490.935C1186.22 491.756 1185.71 492.895 1185.58 494.351H1195.27Z"></path><defs><filter id="nk-497" x="120" y="371.015" width="256" height="96" filterUnits="userSpaceOnUse" color-interpolation-filters="sRGB"><feFlood flood-opacity="0" result="BackgroundImageFix"></feFlood><feColorMatrix in="SourceAlpha" type="matrix" values="0 0 0 0 0 0 0 0 0 0 0 0 0 0 0 0 0 0 127 0" result="hardAlpha"></feColorMatrix><feOffset dy="8"></feOffset><feGaussianBlur stdDeviation="8"></feGaussianBlur><feColorMatrix type="matrix" values="0 0 0 0 0.0392157 0 0 0 0 0.0392157 0 0 0 0 0.0392157 0 0 0 0.08 0"></feColorMatrix><feBlend mode="normal" in2="BackgroundImageFix" result="effect1_dropShadow"></feBlend><feBlend mode="normal" in="SourceGraphic" in2="effect1_dropShadow" result="shape"></feBlend></filter><filter id="nk-498" x="504" y="351.015" width="322" height="118" filterUnits="userSpaceOnUse" color-interpolation-filters="sRGB"><feFlood flood-opacity="0" result="BackgroundImageFix"></feFlood><feColorMatrix in="SourceAlpha" type="matrix" values="0 0 0 0 0 0 0 0 0 0 0 0 0 0 0 0 0 0 127 0" result="hardAlpha"></feColorMatrix><feOffset dy="8"></feOffset><feGaussianBlur stdDeviation="8"></feGaussianBlur><feColorMatrix type="matrix" values="0 0 0 0 0.0392157 0 0 0 0 0.0392157 0 0 0 0 0.0392157 0 0 0 0.08 0"></feColorMatrix><feBlend mode="normal" in2="BackgroundImageFix" result="effect1_dropShadow"></feBlend><feBlend mode="normal" in="SourceGraphic" in2="effect1_dropShadow" result="shape"></feBlend></filter><filter id="nk-499" x="954" y="318.015" width="417" height="144" filterUnits="userSpaceOnUse" color-interpolation-filters="sRGB"><feFlood flood-opacity="0" result="BackgroundImageFix"></feFlood><feColorMatrix in="SourceAlpha" type="matrix" values="0 0 0 0 0 0 0 0 0 0 0 0 0 0 0 0 0 0 127 0" result="hardAlpha"></feColorMatrix><feOffset dy="8"></feOffset><feGaussianBlur stdDeviation="8"></feGaussianBlur><feColorMatrix type="matrix" values="0 0 0 0 0.0392157 0 0 0 0 0.0392157 0 0 0 0 0.0392157 0 0 0 0.08 0"></feColorMatrix><feBlend mode="normal" in2="BackgroundImageFix" result="effect1_dropShadow"></feBlend><feBlend mode="normal" in="SourceGraphic" in2="effect1_dropShadow" result="shape"></feBlend></filter></defs></svg>