<svg
  id="nksvg"
  style="width: 100%; height: 100%"
  width="1490"
  height="838"
  viewBox="0 0 1490 838"
  fill="none"
  xmlns="http://www.w3.org/2000/svg"
  class="css-0"
>
  <path
    style="fill: var(--color-illustrationBackground010)"
    d="M0 0H1490V838H0V0Z"
  ></path>
  <path
    style="fill: var(--color-red020)"
    opacity="0.6"
    d="M725 354H765V483H725V354Z"
  ></path>
  <path
    style="fill: var(--color-illustrationHighlight010)"
    d="M715.797 562.401C713.495 561.25 712.344 559.434 712.344 556.955C712.344 555.76 712.643 554.664 713.241 553.668C713.838 552.672 714.735 551.886 715.93 551.311C717.126 550.713 718.587 550.414 720.313 550.414C722.018 550.414 723.467 550.713 724.663 551.311C725.88 551.886 726.788 552.672 727.386 553.668C727.983 554.664 728.282 555.76 728.282 556.955C728.282 558.195 727.961 559.291 727.319 560.242C726.699 561.172 725.869 561.891 724.829 562.401C726.091 562.865 727.087 563.629 727.817 564.692C728.548 565.732 728.913 566.961 728.913 568.377C728.913 569.816 728.548 571.089 727.817 572.196C727.087 573.302 726.068 574.155 724.762 574.752C723.456 575.35 721.973 575.649 720.313 575.649C718.653 575.649 717.17 575.35 715.864 574.752C714.58 574.155 713.573 573.302 712.842 572.196C712.112 571.089 711.747 569.816 711.747 568.377C711.747 566.938 712.112 565.699 712.842 564.658C713.573 563.618 714.558 562.865 715.797 562.401ZM724.663 557.42C724.663 556.18 724.275 555.229 723.501 554.565C722.726 553.9 721.663 553.568 720.313 553.568C718.985 553.568 717.934 553.9 717.159 554.565C716.384 555.229 715.997 556.192 715.997 557.453C715.997 558.56 716.395 559.468 717.192 560.176C718.011 560.862 719.051 561.205 720.313 561.205C721.575 561.205 722.615 560.851 723.434 560.143C724.253 559.434 724.663 558.527 724.663 557.42ZM720.313 564.061C718.852 564.061 717.657 564.426 716.727 565.156C715.82 565.865 715.366 566.894 715.366 568.244C715.366 569.506 715.808 570.535 716.694 571.332C717.579 572.107 718.786 572.495 720.313 572.495C721.818 572.495 723.003 572.096 723.866 571.299C724.751 570.502 725.194 569.484 725.194 568.244C725.194 566.916 724.74 565.887 723.833 565.156C722.947 564.426 721.774 564.061 720.313 564.061Z"
  ></path>
  <path
    style="fill: var(--color-illustrationHighlight010)"
    d="M745.796 559.445C746.438 558.604 747.312 557.896 748.419 557.32C749.526 556.745 750.776 556.457 752.171 556.457C753.765 556.457 755.214 556.856 756.52 557.652C757.849 558.427 758.889 559.523 759.642 560.94C760.394 562.356 760.771 563.983 760.771 565.821C760.771 567.658 760.394 569.307 759.642 570.768C758.889 572.207 757.849 573.336 756.52 574.155C755.214 574.952 753.765 575.35 752.171 575.35C750.776 575.35 749.537 575.073 748.452 574.52C747.367 573.944 746.482 573.236 745.796 572.395V583.751H742.01V556.756H745.796V559.445ZM756.919 565.821C756.919 564.559 756.653 563.474 756.122 562.567C755.613 561.637 754.927 560.94 754.063 560.475C753.222 559.988 752.315 559.744 751.341 559.744C750.389 559.744 749.481 559.988 748.618 560.475C747.777 560.962 747.091 561.67 746.559 562.6C746.05 563.53 745.796 564.625 745.796 565.887C745.796 567.149 746.05 568.255 746.559 569.207C747.091 570.137 747.777 570.845 748.618 571.332C749.481 571.819 750.389 572.063 751.341 572.063C752.315 572.063 753.222 571.819 754.063 571.332C754.927 570.823 755.613 570.093 756.122 569.141C756.653 568.189 756.919 567.082 756.919 565.821Z"
  ></path>
  <path
    style="fill: var(--color-illustrationHighlight010)"
    d="M772.35 565.787L778.26 575.051H773.977L770.026 568.842L766.307 575.051H762.355L768.266 566.053L762.355 556.756H766.639L770.59 562.965L774.309 556.756H778.26L772.35 565.787Z"
  ></path>
  <path
    style="fill: var(--color-illustrationHighlight010)"
    d="M725 534.67L725 509.001L727 509.001L727 534.67L725 534.67Z"
  ></path>
  <path
    style="fill: var(--color-illustrationHighlight010)"
    d="M763 534.67L763 509.001L765 509.001L765 534.67L763 534.67Z"
  ></path>
  <path
    style="fill: var(--color-illustrationHighlight010)"
    d="M726 523L726 521L764 521L764 523L726 523Z"
  ></path>
  <path
    style="fill: var(--color-illustrationHighlight010)"
    d="M764 373.818C764 361.768 773.768 352 785.818 352H1074.5C1086.55 352 1096.32 361.768 1096.32 373.818V460.763C1096.32 472.813 1086.55 482.581 1074.5 482.581H785.818C773.768 482.581 764 472.813 764 460.763V373.818Z"
  ></path>
  <path
    style="fill: var(--color-illustrationHighlight010)"
    fill-rule="evenodd"
    clip-rule="evenodd"
    d="M703.5 357H414.818C404.425 357 396 365.425 396 375.818V462.763C396 473.156 404.425 481.581 414.818 481.581H703.5C713.893 481.581 722.318 473.156 722.318 462.763V375.818C722.318 365.425 713.893 357 703.5 357ZM414.818 354C402.768 354 393 363.768 393 375.818V462.763C393 474.813 402.768 484.581 414.818 484.581H703.5C715.55 484.581 725.318 474.813 725.318 462.763V375.818C725.318 363.768 715.55 354 703.5 354H414.818Z"
  ></path>
  <path
    style="fill: var(--color-illustrationInterface010)"
    d="M884.204 416.767C885.629 417.021 886.838 417.772 887.831 419.02C888.824 420.267 889.32 421.68 889.32 423.258C889.32 424.607 888.964 425.829 888.251 426.923C887.564 427.992 886.558 428.845 885.235 429.482C883.911 430.092 882.371 430.398 880.615 430.398H870V403.861H880.118C881.926 403.861 883.478 404.167 884.777 404.778C886.075 405.389 887.055 406.216 887.717 407.26C888.378 408.278 888.709 409.423 888.709 410.696C888.709 412.223 888.302 413.496 887.487 414.514C886.673 415.532 885.578 416.283 884.204 416.767ZM874.353 415.011H879.736C881.162 415.011 882.269 414.692 883.058 414.056C883.873 413.394 884.28 412.452 884.28 411.23C884.28 410.034 883.873 409.105 883.058 408.443C882.269 407.756 881.162 407.412 879.736 407.412H874.353V415.011ZM880.233 426.847C881.709 426.847 882.867 426.491 883.707 425.778C884.547 425.065 884.967 424.072 884.967 422.8C884.967 421.502 884.522 420.471 883.631 419.707C882.74 418.943 881.556 418.561 880.08 418.561H874.353V426.847H880.233Z"
  ></path>
  <path
    style="fill: var(--color-illustrationInterface010)"
    d="M913.103 409.36V430.398H908.75V427.916C908.063 428.782 907.16 429.469 906.04 429.978C904.945 430.462 903.774 430.703 902.527 430.703C900.872 430.703 899.383 430.36 898.059 429.672C896.761 428.985 895.73 427.967 894.967 426.618C894.228 425.269 893.859 423.64 893.859 421.731V409.36H898.174V421.081C898.174 422.965 898.645 424.416 899.587 425.434C900.529 426.427 901.814 426.923 903.443 426.923C905.072 426.923 906.358 426.427 907.3 425.434C908.267 424.416 908.75 422.965 908.75 421.081V409.36H913.103Z"
  ></path>
  <path
    style="fill: var(--color-illustrationInterface010)"
    d="M923.925 412.911V424.556C923.925 425.345 924.103 425.918 924.459 426.274C924.841 426.605 925.477 426.771 926.368 426.771H929.041V430.398H925.605C923.645 430.398 922.143 429.94 921.099 429.023C920.055 428.107 919.534 426.618 919.534 424.556V412.911H917.052V409.36H919.534V404.129H923.925V409.36H929.041V412.911H923.925Z"
  ></path>
  <path
    style="fill: var(--color-illustrationInterface010)"
    d="M938.131 412.911V424.556C938.131 425.345 938.309 425.918 938.666 426.274C939.047 426.605 939.684 426.771 940.575 426.771H943.247V430.398H939.811C937.851 430.398 936.349 429.94 935.306 429.023C934.262 428.107 933.74 426.618 933.74 424.556V412.911H931.258V409.36H933.74V404.129H938.131V409.36H943.247V412.911H938.131Z"
  ></path>
  <path
    style="fill: var(--color-illustrationInterface010)"
    d="M956.385 430.742C954.399 430.742 952.605 430.296 951.001 429.405C949.397 428.489 948.137 427.216 947.221 425.587C946.305 423.932 945.847 422.023 945.847 419.86C945.847 417.721 946.317 415.825 947.259 414.171C948.201 412.516 949.487 411.243 951.116 410.352C952.745 409.461 954.565 409.016 956.576 409.016C958.587 409.016 960.407 409.461 962.036 410.352C963.665 411.243 964.95 412.516 965.892 414.171C966.834 415.825 967.305 417.721 967.305 419.86C967.305 421.998 966.821 423.894 965.854 425.549C964.887 427.203 963.563 428.489 961.883 429.405C960.229 430.296 958.396 430.742 956.385 430.742ZM956.385 426.962C957.505 426.962 958.548 426.694 959.516 426.16C960.508 425.625 961.31 424.823 961.921 423.754C962.532 422.685 962.838 421.387 962.838 419.86C962.838 418.332 962.545 417.047 961.959 416.003C961.374 414.934 960.598 414.132 959.63 413.598C958.663 413.063 957.619 412.796 956.499 412.796C955.379 412.796 954.336 413.063 953.368 413.598C952.427 414.132 951.676 414.934 951.116 416.003C950.556 417.047 950.276 418.332 950.276 419.86C950.276 422.125 950.848 423.882 951.994 425.129C953.165 426.351 954.628 426.962 956.385 426.962Z"
  ></path>
  <path
    style="fill: var(--color-illustrationInterface010)"
    d="M982.223 409.016C983.877 409.016 985.353 409.36 986.652 410.047C987.975 410.734 989.006 411.752 989.744 413.101C990.483 414.451 990.852 416.08 990.852 417.989V430.398H986.537V418.638C986.537 416.754 986.066 415.316 985.124 414.323C984.183 413.305 982.897 412.796 981.268 412.796C979.639 412.796 978.341 413.305 977.373 414.323C976.432 415.316 975.961 416.754 975.961 418.638V430.398H971.608V409.36H975.961V411.765C976.673 410.9 977.577 410.225 978.672 409.741C979.792 409.258 980.975 409.016 982.223 409.016Z"
  ></path>
  <path
    style="fill: var(--color-illustrationHighlight010)"
    d="M513.204 418.906C514.629 419.16 515.838 419.911 516.831 421.158C517.824 422.406 518.32 423.818 518.32 425.397C518.32 426.746 517.964 427.967 517.251 429.062C516.564 430.131 515.558 430.984 514.235 431.62C512.911 432.231 511.371 432.537 509.615 432.537H499V406H509.118C510.926 406 512.478 406.305 513.777 406.916C515.075 407.527 516.055 408.355 516.717 409.398C517.378 410.416 517.709 411.562 517.709 412.835C517.709 414.362 517.302 415.635 516.487 416.653C515.673 417.671 514.578 418.422 513.204 418.906ZM503.353 417.149H508.736C510.162 417.149 511.269 416.831 512.058 416.195C512.873 415.533 513.28 414.591 513.28 413.369C513.28 412.173 512.873 411.244 512.058 410.582C511.269 409.895 510.162 409.551 508.736 409.551H503.353V417.149ZM509.233 428.986C510.709 428.986 511.867 428.629 512.707 427.917C513.547 427.204 513.967 426.211 513.967 424.938C513.967 423.64 513.522 422.609 512.631 421.846C511.74 421.082 510.556 420.7 509.08 420.7H503.353V428.986H509.233Z"
  ></path>
  <path
    style="fill: var(--color-illustrationHighlight010)"
    d="M542.103 411.498V432.537H537.75V430.055C537.063 430.92 536.16 431.608 535.04 432.117C533.945 432.6 532.774 432.842 531.527 432.842C529.872 432.842 528.383 432.498 527.059 431.811C525.761 431.124 524.73 430.106 523.967 428.757C523.228 427.407 522.859 425.778 522.859 423.869V411.498H527.174V423.22C527.174 425.104 527.645 426.555 528.587 427.573C529.529 428.566 530.814 429.062 532.443 429.062C534.072 429.062 535.358 428.566 536.3 427.573C537.267 426.555 537.75 425.104 537.75 423.22V411.498H542.103Z"
  ></path>
  <path
    style="fill: var(--color-illustrationHighlight010)"
    d="M552.925 415.049V426.695C552.925 427.484 553.103 428.057 553.459 428.413C553.841 428.744 554.477 428.909 555.368 428.909H558.041V432.537H554.605C552.645 432.537 551.143 432.078 550.099 431.162C549.055 430.246 548.534 428.757 548.534 426.695V415.049H546.052V411.498H548.534V406.267H552.925V411.498H558.041V415.049H552.925Z"
  ></path>
  <path
    style="fill: var(--color-illustrationHighlight010)"
    d="M567.131 415.049V426.695C567.131 427.484 567.309 428.057 567.666 428.413C568.047 428.744 568.684 428.909 569.575 428.909H572.247V432.537H568.811C566.851 432.537 565.349 432.078 564.306 431.162C563.262 430.246 562.74 428.757 562.74 426.695V415.049H560.258V411.498H562.74V406.267H567.131V411.498H572.247V415.049H567.131Z"
  ></path>
  <path
    style="fill: var(--color-illustrationHighlight010)"
    d="M585.385 432.88C583.399 432.88 581.605 432.435 580.001 431.544C578.397 430.628 577.137 429.355 576.221 427.726C575.305 426.071 574.847 424.162 574.847 421.998C574.847 419.86 575.317 417.964 576.259 416.309C577.201 414.655 578.487 413.382 580.116 412.491C581.745 411.6 583.565 411.155 585.576 411.155C587.587 411.155 589.407 411.6 591.036 412.491C592.665 413.382 593.95 414.655 594.892 416.309C595.834 417.964 596.305 419.86 596.305 421.998C596.305 424.137 595.821 426.033 594.854 427.687C593.887 429.342 592.563 430.628 590.883 431.544C589.229 432.435 587.396 432.88 585.385 432.88ZM585.385 429.1C586.505 429.1 587.548 428.833 588.516 428.298C589.508 427.764 590.31 426.962 590.921 425.893C591.532 424.824 591.838 423.526 591.838 421.998C591.838 420.471 591.545 419.186 590.959 418.142C590.374 417.073 589.598 416.271 588.63 415.736C587.663 415.202 586.619 414.935 585.499 414.935C584.379 414.935 583.336 415.202 582.368 415.736C581.427 416.271 580.676 417.073 580.116 418.142C579.556 419.186 579.276 420.471 579.276 421.998C579.276 424.264 579.848 426.02 580.994 427.267C582.165 428.489 583.628 429.1 585.385 429.1Z"
  ></path>
  <path
    style="fill: var(--color-illustrationHighlight010)"
    d="M611.223 411.155C612.877 411.155 614.353 411.498 615.652 412.186C616.975 412.873 618.006 413.891 618.744 415.24C619.483 416.589 619.852 418.218 619.852 420.127V432.537H615.537V420.777C615.537 418.893 615.066 417.455 614.124 416.462C613.183 415.444 611.897 414.935 610.268 414.935C608.639 414.935 607.341 415.444 606.373 416.462C605.432 417.455 604.961 418.893 604.961 420.777V432.537H600.608V411.498H604.961V413.904C605.673 413.038 606.577 412.364 607.672 411.88C608.792 411.396 609.975 411.155 611.223 411.155Z"
  ></path>
</svg>
