<svg id="components-button-usage-dont2" style="width: 100%; height: 100%" width="1490" height="838" viewBox="0 0 1490 838" fill="none" xmlns="http://www.w3.org/2000/svg" class="css-0"><path style="fill:var(--color-illustrationBackground010)" d="M0 0H1490V838H0V0Z"></path><g clip-path="url(#nk-1192)"><path style="fill:var(--color-illustrationInterface020)" d="M255 135.342C255 125.764 262.764 118 272.342 118H1218.54C1228.12 118 1235.89 125.764 1235.89 135.342V702.196C1235.89 711.773 1228.12 719.538 1218.54 719.538H272.342C262.764 719.538 255 711.773 255 702.196V135.342Z"></path><g opacity="0.2"><path style="fill:var(--color-illustrationInterface030)" d="M324.346 246.539C324.346 238.27 329.537 231.566 335.941 231.566H1043.28C1049.68 231.566 1054.87 238.27 1054.87 246.539V302.688C1054.87 310.958 1049.68 317.661 1043.28 317.661H335.941C329.537 317.661 324.346 310.958 324.346 302.688V246.539Z"></path><path style="fill:var(--color-illustrationInterface030)" d="M324.346 393.373C324.346 382.272 333.345 373.273 344.446 373.273H561.528C572.629 373.273 581.628 382.272 581.628 393.373V589.349C581.628 600.45 572.629 609.45 561.528 609.45H344.446C333.345 609.45 324.346 600.45 324.346 589.349V393.373Z"></path><path style="fill:var(--color-illustrationInterface030)" d="M638.913 373.273C627.812 373.273 618.813 382.272 618.813 393.373V589.349C618.813 600.45 627.812 609.45 638.913 609.45H855.995C867.096 609.45 876.095 600.45 876.095 589.349V393.373C876.095 382.272 867.096 373.273 855.995 373.273H638.913Z"></path><path style="fill:var(--color-illustrationInterface030)" d="M909.26 393.373C909.26 382.272 918.26 373.273 929.361 373.273H1146.44C1157.54 373.273 1166.54 382.272 1166.54 393.373V589.349C1166.54 600.45 1157.54 609.45 1146.44 609.45H929.361C918.26 609.45 909.26 600.45 909.26 589.349V393.373Z"></path><path style="fill:var(--color-illustrationInterface030)" d="M344.446 640.605C333.345 640.605 324.346 649.604 324.346 660.705V720H581.628V660.705C581.628 649.604 572.629 640.605 561.528 640.605H344.446Z"></path><path style="fill:var(--color-illustrationInterface030)" d="M618.813 660.705C618.813 649.604 627.812 640.605 638.913 640.605H855.995C867.096 640.605 876.095 649.604 876.095 660.705V720H618.813V660.705Z"></path><path style="fill:var(--color-illustrationInterface030)" d="M929.361 640.605C918.26 640.605 909.26 649.604 909.26 660.705V720H1166.54V660.705C1166.54 649.604 1157.54 640.605 1146.44 640.605H929.361Z"></path></g><path style="fill:var(--color-illustrationInterface030)" opacity="0.2" d="M255 128.444C255 123.232 261.971 119.006 270.57 119.006H1220.32C1228.92 119.006 1235.89 123.232 1235.89 128.444V163.838C1235.89 169.051 1228.92 173.276 1220.32 173.276H270.57C261.971 173.276 255 169.051 255 163.838V128.444Z"></path><g filter="url(#nk-1193)"><path style="fill:var(--color-illustrationInterface010)" d="M834.89 124.869C834.89 121.075 837.965 118 841.758 118H1229.05C1232.84 118 1235.91 121.075 1235.91 124.869V713.131C1235.91 716.925 1232.84 720 1229.05 720H841.758C837.965 720 834.89 716.925 834.89 713.131V124.869Z"></path></g><path style="fill:var(--color-illustrationHighlight010)" d="M1192.93 149.762L1201.01 157.84L1209.09 149.762L1211.84 152.51L1203.76 160.588L1211.84 168.667L1209.09 171.415L1201.01 163.337L1192.93 171.415L1190.19 168.667L1198.26 160.588L1190.19 152.51L1192.93 149.762Z"></path><path style="fill:var(--color-illustrationHighlight010)" d="M881.143 149.167L873.842 163.288V170.259H868.705V163.288L861.404 149.167H867.232L871.319 158L875.375 149.167H881.143Z"></path><path style="fill:var(--color-illustrationHighlight010)" d="M890.845 170.499C889.202 170.499 887.72 170.148 886.398 169.447C885.096 168.746 884.065 167.745 883.303 166.443C882.562 165.141 882.192 163.619 882.192 161.876C882.192 160.154 882.572 158.641 883.333 157.339C884.095 156.017 885.136 155.006 886.458 154.305C887.78 153.604 889.262 153.253 890.905 153.253C892.547 153.253 894.029 153.604 895.351 154.305C896.673 155.006 897.715 156.017 898.476 157.339C899.237 158.641 899.618 160.154 899.618 161.876C899.618 163.599 899.227 165.121 898.446 166.443C897.685 167.745 896.633 168.746 895.291 169.447C893.969 170.148 892.487 170.499 890.845 170.499ZM890.845 166.052C891.826 166.052 892.657 165.692 893.338 164.971C894.039 164.25 894.39 163.218 894.39 161.876C894.39 160.534 894.049 159.503 893.368 158.781C892.707 158.06 891.886 157.7 890.905 157.7C889.903 157.7 889.072 158.06 888.411 158.781C887.75 159.483 887.42 160.514 887.42 161.876C887.42 163.218 887.74 164.25 888.381 164.971C889.042 165.692 889.863 166.052 890.845 166.052Z"></path><path style="fill:var(--color-illustrationHighlight010)" d="M918.898 153.494V170.259H913.76V167.975C913.24 168.716 912.529 169.317 911.627 169.778C910.746 170.219 909.764 170.439 908.683 170.439C907.401 170.439 906.269 170.158 905.288 169.598C904.306 169.017 903.545 168.186 903.004 167.104C902.464 166.022 902.193 164.75 902.193 163.288V153.494H907.301V162.597C907.301 163.719 907.591 164.59 908.172 165.211C908.753 165.832 909.534 166.142 910.516 166.142C911.517 166.142 912.308 165.832 912.889 165.211C913.47 164.59 913.76 163.719 913.76 162.597V153.494H918.898Z"></path><path style="fill:var(--color-illustrationHighlight010)" d="M927.726 156.288C928.327 155.366 929.078 154.645 929.98 154.125C930.881 153.584 931.882 153.313 932.984 153.313V158.751H931.572C930.29 158.751 929.329 159.032 928.688 159.593C928.047 160.133 927.726 161.095 927.726 162.477V170.259H922.589V153.494H927.726V156.288Z"></path><path style="fill:var(--color-illustrationHighlight010)" d="M946.944 155.867C947.425 155.086 948.116 154.455 949.017 153.974C949.919 153.494 950.95 153.253 952.112 153.253C953.494 153.253 954.746 153.604 955.868 154.305C956.989 155.006 957.871 156.007 958.512 157.309C959.173 158.611 959.503 160.123 959.503 161.846C959.503 163.569 959.173 165.091 958.512 166.413C957.871 167.715 956.989 168.726 955.868 169.447C954.746 170.148 953.494 170.499 952.112 170.499C950.93 170.499 949.899 170.269 949.017 169.808C948.136 169.327 947.445 168.696 946.944 167.915V170.259H941.807V148.025H946.944V155.867ZM954.275 161.846C954.275 160.564 953.915 159.563 953.194 158.842C952.493 158.1 951.621 157.73 950.58 157.73C949.558 157.73 948.687 158.1 947.966 158.842C947.265 159.583 946.914 160.594 946.914 161.876C946.914 163.158 947.265 164.17 947.966 164.911C948.687 165.652 949.558 166.022 950.58 166.022C951.601 166.022 952.473 165.652 953.194 164.911C953.915 164.149 954.275 163.128 954.275 161.846Z"></path><path style="fill:var(--color-illustrationHighlight010)" d="M961.177 161.846C961.177 160.123 961.497 158.611 962.138 157.309C962.799 156.007 963.691 155.006 964.812 154.305C965.934 153.604 967.186 153.253 968.568 153.253C969.75 153.253 970.781 153.494 971.663 153.974C972.564 154.455 973.255 155.086 973.736 155.867V153.494H978.873V170.259H973.736V167.885C973.235 168.666 972.534 169.297 971.633 169.778C970.751 170.259 969.72 170.499 968.538 170.499C967.176 170.499 965.934 170.148 964.812 169.447C963.691 168.726 962.799 167.715 962.138 166.413C961.497 165.091 961.177 163.569 961.177 161.846ZM973.736 161.876C973.736 160.594 973.375 159.583 972.654 158.842C971.953 158.1 971.092 157.73 970.07 157.73C969.049 157.73 968.177 158.1 967.456 158.842C966.755 159.563 966.405 160.564 966.405 161.846C966.405 163.128 966.755 164.149 967.456 164.911C968.177 165.652 969.049 166.022 970.07 166.022C971.092 166.022 971.953 165.652 972.654 164.911C973.375 164.17 973.736 163.158 973.736 161.876Z"></path><path style="fill:var(--color-illustrationHighlight010)" d="M989.41 170.499C987.948 170.499 986.646 170.249 985.505 169.748C984.363 169.247 983.462 168.566 982.801 167.705C982.14 166.823 981.769 165.842 981.689 164.76H986.767C986.827 165.341 987.097 165.812 987.578 166.173C988.058 166.533 988.649 166.713 989.35 166.713C989.991 166.713 990.482 166.593 990.823 166.353C991.183 166.092 991.363 165.762 991.363 165.361C991.363 164.881 991.113 164.53 990.612 164.31C990.112 164.069 989.3 163.809 988.179 163.529C986.977 163.248 985.975 162.958 985.174 162.657C984.373 162.337 983.682 161.846 983.101 161.185C982.52 160.504 982.23 159.593 982.23 158.451C982.23 157.49 982.49 156.618 983.011 155.837C983.552 155.036 984.333 154.405 985.354 153.944C986.396 153.484 987.628 153.253 989.05 153.253C991.153 153.253 992.806 153.774 994.007 154.816C995.229 155.857 995.93 157.239 996.111 158.962H991.363C991.283 158.381 991.023 157.92 990.582 157.58C990.162 157.239 989.601 157.069 988.9 157.069C988.299 157.069 987.838 157.189 987.518 157.429C987.197 157.65 987.037 157.96 987.037 158.361C987.037 158.842 987.287 159.202 987.788 159.442C988.309 159.683 989.11 159.923 990.192 160.164C991.434 160.484 992.445 160.804 993.226 161.125C994.007 161.425 994.688 161.926 995.269 162.627C995.87 163.308 996.181 164.23 996.201 165.391C996.201 166.373 995.92 167.254 995.359 168.035C994.819 168.796 994.027 169.397 992.986 169.838C991.964 170.279 990.773 170.499 989.41 170.499Z"></path><path style="fill:var(--color-illustrationHighlight010)" d="M1009.59 170.259L1004.48 163.228V170.259H999.344V148.025H1004.48V160.314L1009.56 153.494H1015.9L1008.93 161.906L1015.96 170.259H1009.59Z"></path><path style="fill:var(--color-illustrationHighlight010)" d="M1033.72 161.606C1033.72 162.086 1033.69 162.587 1033.63 163.108H1022C1022.08 164.149 1022.41 164.951 1022.99 165.512C1023.6 166.052 1024.33 166.323 1025.19 166.323C1026.47 166.323 1027.36 165.782 1027.86 164.7H1033.33C1033.05 165.802 1032.54 166.793 1031.8 167.675C1031.08 168.556 1030.16 169.247 1029.06 169.748C1027.96 170.249 1026.73 170.499 1025.37 170.499C1023.73 170.499 1022.26 170.148 1020.98 169.447C1019.7 168.746 1018.7 167.745 1017.98 166.443C1017.26 165.141 1016.9 163.619 1016.9 161.876C1016.9 160.133 1017.25 158.611 1017.95 157.309C1018.67 156.007 1019.67 155.006 1020.95 154.305C1022.23 153.604 1023.71 153.253 1025.37 153.253C1026.99 153.253 1028.43 153.594 1029.69 154.275C1030.96 154.956 1031.94 155.927 1032.64 157.189C1033.36 158.451 1033.72 159.923 1033.72 161.606ZM1028.46 160.254C1028.46 159.372 1028.16 158.671 1027.56 158.151C1026.96 157.63 1026.21 157.369 1025.31 157.369C1024.45 157.369 1023.72 157.62 1023.11 158.12C1022.53 158.621 1022.17 159.332 1022.03 160.254H1028.46Z"></path><path style="fill:var(--color-illustrationHighlight010)" d="M1045.77 165.902V170.259H1043.16C1041.3 170.259 1039.85 169.808 1038.8 168.907C1037.76 167.985 1037.24 166.493 1037.24 164.43V157.76H1035.2V153.494H1037.24V149.407H1042.38V153.494H1045.74V157.76H1042.38V164.49C1042.38 164.991 1042.5 165.351 1042.74 165.572C1042.98 165.792 1043.38 165.902 1043.94 165.902H1045.77Z"></path><path style="fill:var(--color-illustrationHighlight010)" d="M1092.91 587.463C1092 587.463 1091.19 587.315 1090.47 587.021C1089.75 586.726 1089.17 586.29 1088.74 585.713C1088.31 585.136 1088.09 584.44 1088.07 583.627H1091.28C1091.33 584.087 1091.49 584.44 1091.76 584.688C1092.03 584.923 1092.39 585.041 1092.82 585.041C1093.27 585.041 1093.62 584.941 1093.88 584.741C1094.14 584.529 1094.27 584.24 1094.27 583.875C1094.27 583.568 1094.16 583.315 1093.95 583.115C1093.75 582.915 1093.5 582.75 1093.19 582.62C1092.9 582.49 1092.47 582.343 1091.92 582.178C1091.12 581.931 1090.46 581.683 1089.96 581.436C1089.45 581.188 1089.02 580.823 1088.65 580.34C1088.28 579.857 1088.1 579.227 1088.1 578.449C1088.1 577.294 1088.52 576.393 1089.36 575.745C1090.19 575.085 1091.28 574.755 1092.63 574.755C1093.99 574.755 1095.1 575.085 1095.93 575.745C1096.77 576.393 1097.22 577.3 1097.27 578.467H1094.01C1093.98 578.066 1093.83 577.754 1093.56 577.53C1093.29 577.294 1092.94 577.177 1092.52 577.177C1092.16 577.177 1091.86 577.277 1091.64 577.477C1091.41 577.666 1091.3 577.942 1091.3 578.308C1091.3 578.708 1091.49 579.02 1091.87 579.244C1092.24 579.468 1092.83 579.71 1093.63 579.969C1094.44 580.24 1095.08 580.499 1095.58 580.747C1096.08 580.994 1096.52 581.353 1096.89 581.825C1097.25 582.296 1097.43 582.903 1097.43 583.645C1097.43 584.352 1097.25 584.994 1096.89 585.571C1096.53 586.149 1096.01 586.608 1095.33 586.95C1094.65 587.292 1093.84 587.463 1092.91 587.463Z"></path><path style="fill:var(--color-illustrationHighlight010)" d="M1109.03 577.477V587.339H1106.01V585.996C1105.7 586.432 1105.29 586.785 1104.75 587.056C1104.24 587.315 1103.66 587.445 1103.02 587.445C1102.27 587.445 1101.6 587.28 1101.03 586.95C1100.45 586.608 1100 586.119 1099.68 585.483C1099.36 584.847 1099.21 584.099 1099.21 583.239V577.477H1102.21V582.832C1102.21 583.492 1102.38 584.004 1102.72 584.37C1103.06 584.735 1103.52 584.918 1104.1 584.918C1104.69 584.918 1105.16 584.735 1105.5 584.37C1105.84 584.004 1106.01 583.492 1106.01 582.832V577.477H1109.03Z"></path><path style="fill:var(--color-illustrationHighlight010)" d="M1114.22 578.873C1114.51 578.414 1114.91 578.043 1115.44 577.76C1115.97 577.477 1116.58 577.336 1117.26 577.336C1118.08 577.336 1118.81 577.542 1119.47 577.954C1120.13 578.367 1120.65 578.956 1121.03 579.722C1121.42 580.487 1121.61 581.377 1121.61 582.39C1121.61 583.404 1121.42 584.299 1121.03 585.077C1120.65 585.842 1120.13 586.437 1119.47 586.862C1118.81 587.274 1118.08 587.48 1117.26 587.48C1116.57 587.48 1115.96 587.345 1115.44 587.074C1114.93 586.791 1114.52 586.42 1114.22 585.96V587.339H1111.2V574.26H1114.22V578.873ZM1118.54 582.39C1118.54 581.636 1118.33 581.047 1117.9 580.623C1117.49 580.187 1116.98 579.969 1116.36 579.969C1115.76 579.969 1115.25 580.187 1114.83 580.623C1114.41 581.059 1114.21 581.654 1114.21 582.408C1114.21 583.162 1114.41 583.757 1114.83 584.193C1115.25 584.629 1115.76 584.847 1116.36 584.847C1116.96 584.847 1117.48 584.629 1117.9 584.193C1118.33 583.745 1118.54 583.144 1118.54 582.39Z"></path><path style="fill:var(--color-illustrationHighlight010)" d="M1128.69 584.776V587.339H1127.16C1126.06 587.339 1125.21 587.074 1124.59 586.544C1123.98 586.002 1123.68 585.124 1123.68 583.91V579.987H1122.47V577.477H1123.68V575.073H1126.7V577.477H1128.68V579.987H1126.7V583.946C1126.7 584.24 1126.77 584.452 1126.91 584.582C1127.05 584.711 1127.29 584.776 1127.62 584.776H1128.69Z"></path><path style="fill:var(--color-illustrationHighlight010)" d="M1134.87 587.48C1133.9 587.48 1133.03 587.274 1132.25 586.862C1131.49 586.449 1130.88 585.86 1130.43 585.094C1129.99 584.328 1129.78 583.433 1129.78 582.408C1129.78 581.395 1130 580.505 1130.45 579.739C1130.9 578.962 1131.51 578.367 1132.29 577.954C1133.06 577.542 1133.94 577.336 1134.9 577.336C1135.87 577.336 1136.74 577.542 1137.52 577.954C1138.3 578.367 1138.91 578.962 1139.36 579.739C1139.8 580.505 1140.03 581.395 1140.03 582.408C1140.03 583.421 1139.8 584.317 1139.34 585.094C1138.89 585.86 1138.27 586.449 1137.48 586.862C1136.7 587.274 1135.83 587.48 1134.87 587.48ZM1134.87 584.865C1135.44 584.865 1135.93 584.652 1136.33 584.228C1136.75 583.804 1136.95 583.197 1136.95 582.408C1136.95 581.618 1136.75 581.012 1136.35 580.588C1135.96 580.163 1135.48 579.951 1134.9 579.951C1134.31 579.951 1133.82 580.163 1133.44 580.588C1133.05 581 1132.85 581.607 1132.85 582.408C1132.85 583.197 1133.04 583.804 1133.42 584.228C1133.81 584.652 1134.29 584.865 1134.87 584.865Z"></path><path style="fill:var(--color-illustrationHighlight010)" d="M1147.13 584.776V587.339H1145.59C1144.49 587.339 1143.64 587.074 1143.03 586.544C1142.41 586.002 1142.11 585.124 1142.11 583.91V579.987H1140.91V577.477H1142.11V575.073H1145.13V577.477H1147.11V579.987H1145.13V583.946C1145.13 584.24 1145.2 584.452 1145.34 584.582C1145.48 584.711 1145.72 584.776 1146.05 584.776H1147.13Z"></path><path style="fill:var(--color-illustrationHighlight010)" d="M1148.21 582.39C1148.21 581.377 1148.4 580.487 1148.78 579.722C1149.16 578.956 1149.69 578.367 1150.35 577.954C1151.01 577.542 1151.74 577.336 1152.56 577.336C1153.25 577.336 1153.86 577.477 1154.38 577.76C1154.91 578.043 1155.31 578.414 1155.6 578.873V577.477H1158.62V587.339H1155.6V585.943C1155.3 586.402 1154.89 586.773 1154.36 587.056C1153.84 587.339 1153.23 587.48 1152.54 587.48C1151.74 587.48 1151.01 587.274 1150.35 586.862C1149.69 586.437 1149.16 585.842 1148.78 585.077C1148.4 584.299 1148.21 583.404 1148.21 582.39ZM1155.6 582.408C1155.6 581.654 1155.39 581.059 1154.96 580.623C1154.55 580.187 1154.04 579.969 1153.44 579.969C1152.84 579.969 1152.33 580.187 1151.9 580.623C1151.49 581.047 1151.28 581.636 1151.28 582.39C1151.28 583.144 1151.49 583.745 1151.9 584.193C1152.33 584.629 1152.84 584.847 1153.44 584.847C1154.04 584.847 1154.55 584.629 1154.96 584.193C1155.39 583.757 1155.6 583.162 1155.6 582.408Z"></path><path style="fill:var(--color-illustrationHighlight010)" d="M1163.83 574.26V587.339H1160.81V574.26H1163.83Z"></path><path style="fill:var(--color-illustrationHighlight010)" d="M1182.8 585.041V587.41H1173.79L1173.37 585.925C1173.92 585.43 1174.33 584.906 1174.59 584.352C1174.85 583.798 1174.98 583.115 1174.98 582.302V582.267H1173.05V580.234H1174.48C1174.26 579.433 1174.14 578.696 1174.14 578.025C1174.14 577.224 1174.32 576.529 1174.67 575.939C1175.04 575.35 1175.55 574.903 1176.19 574.596C1176.84 574.29 1177.59 574.137 1178.42 574.137C1179.79 574.137 1180.84 574.508 1181.57 575.25C1182.3 575.992 1182.69 576.959 1182.73 578.149H1179.96C1179.94 577.677 1179.81 577.306 1179.57 577.035C1179.33 576.752 1178.98 576.611 1178.49 576.611C1178.02 576.611 1177.66 576.758 1177.4 577.053C1177.14 577.336 1177.01 577.76 1177.01 578.325C1177.01 578.596 1177.04 578.873 1177.1 579.156C1177.17 579.439 1177.27 579.798 1177.4 580.234H1180.6V582.267H1177.84V582.32C1177.84 582.779 1177.74 583.256 1177.56 583.751C1177.37 584.246 1177.07 584.676 1176.67 585.041H1182.8Z"></path><path style="fill:var(--color-illustrationHighlight010)" d="M1194.52 585.041V587.41H1185.51L1185.09 585.925C1185.64 585.43 1186.05 584.906 1186.31 584.352C1186.56 583.798 1186.69 583.115 1186.69 582.302V582.267H1184.77V580.234H1186.2C1185.98 579.433 1185.86 578.696 1185.86 578.025C1185.86 577.224 1186.04 576.529 1186.39 575.939C1186.76 575.35 1187.27 574.903 1187.91 574.596C1188.56 574.29 1189.3 574.137 1190.14 574.137C1191.51 574.137 1192.56 574.508 1193.29 575.25C1194.02 575.992 1194.41 576.959 1194.45 578.149H1191.68C1191.65 577.677 1191.53 577.306 1191.29 577.035C1191.05 576.752 1190.69 576.611 1190.21 576.611C1189.74 576.611 1189.37 576.758 1189.12 577.053C1188.86 577.336 1188.73 577.76 1188.73 578.325C1188.73 578.596 1188.76 578.873 1188.82 579.156C1188.89 579.439 1188.99 579.798 1189.12 580.234H1192.31V582.267H1189.56V582.32C1189.56 582.779 1189.46 583.256 1189.27 583.751C1189.09 584.246 1188.79 584.676 1188.39 585.041H1194.52Z"></path><path style="fill:var(--color-illustrationHighlight010)" d="M1206.24 585.041V587.41H1197.23L1196.81 585.925C1197.36 585.43 1197.77 584.906 1198.02 584.352C1198.28 583.798 1198.41 583.115 1198.41 582.302V582.267H1196.49V580.234H1197.92C1197.69 579.433 1197.58 578.696 1197.58 578.025C1197.58 577.224 1197.76 576.529 1198.11 575.939C1198.48 575.35 1198.98 574.903 1199.63 574.596C1200.28 574.29 1201.02 574.137 1201.86 574.137C1203.23 574.137 1204.28 574.508 1205.01 575.25C1205.74 575.992 1206.13 576.959 1206.17 578.149H1203.4C1203.37 577.677 1203.24 577.306 1203.01 577.035C1202.77 576.752 1202.41 576.611 1201.93 576.611C1201.46 576.611 1201.09 576.758 1200.83 577.053C1200.58 577.336 1200.45 577.76 1200.45 578.325C1200.45 578.596 1200.48 578.873 1200.53 579.156C1200.61 579.439 1200.71 579.798 1200.83 580.234H1204.03V582.267H1201.28V582.32C1201.28 582.779 1201.18 583.256 1200.99 583.751C1200.81 584.246 1200.51 584.676 1200.11 585.041H1206.24Z"></path><path style="fill:var(--color-illustrationInterface020)" d="M945.296 358.007C945.296 355.915 946.992 354.219 949.084 354.219H1204.19C1206.28 354.219 1207.98 355.915 1207.98 358.007V358.007C1207.98 360.099 1206.28 361.794 1204.19 361.794H949.084C946.992 361.794 945.296 360.099 945.296 358.007V358.007Z"></path><path style="fill:var(--color-illustrationInterface020)" d="M945.296 337.385C945.296 335.06 947.18 333.176 949.505 333.176H1203.77C1206.1 333.176 1207.98 335.06 1207.98 337.385V337.385C1207.98 339.709 1206.1 341.593 1203.77 341.593H949.505C947.18 341.593 945.296 339.709 945.296 337.385V337.385Z"></path><path style="fill:var(--color-illustrationInterface030)" d="M945.296 316.761C945.296 314.669 946.992 312.973 949.084 312.973H1074.13C1076.23 312.973 1077.92 314.669 1077.92 316.761V316.761C1077.92 318.852 1076.23 320.548 1074.13 320.548H949.084C946.992 320.548 945.296 318.852 945.296 316.761V316.761Z"></path><path style="fill:var(--color-illustrationInterface030)" d="M1189.09 378.608C1189.09 376.45 1190.84 374.701 1192.99 374.701H1203.93C1206.09 374.701 1207.84 376.45 1207.84 378.608V378.608C1207.84 380.766 1206.09 382.515 1203.93 382.515H1192.99C1190.84 382.515 1189.09 380.766 1189.09 378.608V378.608Z"></path><path style="fill:var(--color-illustrationInterface030)" d="M1133.61 378.608C1133.61 376.45 1135.36 374.701 1137.52 374.701H1174.24C1176.4 374.701 1178.15 376.45 1178.15 378.608V378.608C1178.15 380.766 1176.4 382.515 1174.24 382.515H1137.52C1135.36 382.515 1133.61 380.766 1133.61 378.608V378.608Z"></path><path style="fill:var(--color-illustrationInterface020)" d="M857 326.038C857 314.937 865.999 305.938 877.1 305.938H913.475C924.576 305.938 933.575 314.937 933.575 326.038V362.413C933.575 373.514 924.576 382.513 913.475 382.513H877.1C865.999 382.513 857 373.514 857 362.413V326.038Z"></path><path style="fill:var(--color-illustrationInterface020)" d="M945.296 467.145C945.296 465.053 946.992 463.357 949.084 463.357H1204.19C1206.28 463.357 1207.98 465.053 1207.98 467.145V467.145C1207.98 469.237 1206.28 470.933 1204.19 470.933H949.084C946.992 470.933 945.296 469.237 945.296 467.145V467.145Z"></path><path style="fill:var(--color-illustrationInterface020)" d="M945.296 446.521C945.296 444.197 947.18 442.312 949.505 442.312H1203.77C1206.1 442.312 1207.98 444.197 1207.98 446.521V446.521C1207.98 448.846 1206.1 450.73 1203.77 450.73H949.505C947.18 450.73 945.296 448.846 945.296 446.521V446.521Z"></path><path style="fill:var(--color-illustrationInterface030)" d="M945.296 425.899C945.296 423.807 946.992 422.111 949.084 422.111H1074.13C1076.23 422.111 1077.92 423.807 1077.92 425.899V425.899C1077.92 427.991 1076.23 429.687 1074.13 429.687H949.084C946.992 429.687 945.296 427.991 945.296 425.899V425.899Z"></path><path style="fill:var(--color-illustrationInterface030)" d="M1189.09 487.747C1189.09 485.589 1190.84 483.84 1192.99 483.84H1203.93C1206.09 483.84 1207.84 485.589 1207.84 487.747V487.747C1207.84 489.904 1206.09 491.654 1203.93 491.654H1192.99C1190.84 491.654 1189.09 489.904 1189.09 487.747V487.747Z"></path><path style="fill:var(--color-illustrationInterface030)" d="M1133.61 487.747C1133.61 485.589 1135.36 483.84 1137.52 483.84H1174.24C1176.4 483.84 1178.15 485.589 1178.15 487.747V487.747C1178.15 489.904 1176.4 491.654 1174.24 491.654H1137.52C1135.36 491.654 1133.61 489.904 1133.61 487.747V487.747Z"></path><path style="fill:var(--color-illustrationInterface020)" d="M857 434.577C857 423.476 865.999 414.477 877.1 414.477H913.475C924.576 414.477 933.575 423.476 933.575 434.577V470.952C933.575 482.053 924.576 491.052 913.475 491.052H877.1C865.999 491.052 857 482.053 857 470.952V434.577Z"></path><path style="fill:var(--color-illustrationInterface040)" fill-rule="evenodd" clip-rule="evenodd" d="M1207.75 538.095H861.02V537.09H1207.75V538.095Z"></path><path style="fill:var(--color-illustrationInterface040)" fill-rule="evenodd" clip-rule="evenodd" d="M1207.75 208.45H861.02V207.445H1207.75V208.45Z"></path><path style="fill:var(--color-illustrationHighlight010)" d="M1031 650.867C1031 647.074 1034.09 644 1037.89 644H1201.04C1204.84 644 1207.93 647.074 1207.93 650.867V689.126C1207.93 692.918 1204.84 695.993 1201.04 695.993L1037.89 695.993C1034.09 695.993 1031 692.918 1031 689.126L1031 650.867Z"></path><path style="fill:var(--color-illustrationHighlight010)" fill-rule="evenodd" clip-rule="evenodd" d="M1020 233L867.001 233C864.235 233 862 235.232 862 237.977L862 271.278C862 274.022 864.235 276.254 867.001 276.254L1020 276.254C1022.76 276.254 1025 274.022 1025 271.277V237.977C1025 235.232 1022.76 233 1020 233ZM867.001 232C863.687 232 861 234.676 861 237.977L861 271.278C861 274.578 863.687 277.254 867.001 277.254L1020 277.254C1023.31 277.254 1026 274.578 1026 271.277V237.977C1026 234.676 1023.31 232 1020 232L867.001 232Z"></path><path style="fill:var(--color-illustrationInterface010)" d="M1070.65 667.588C1070.38 667.069 1070.01 666.68 1069.53 666.42C1069.05 666.151 1068.5 666.016 1067.87 666.016C1067.18 666.016 1066.57 666.171 1066.03 666.48C1065.49 666.79 1065.06 667.229 1064.76 667.798C1064.46 668.367 1064.31 669.026 1064.31 669.774C1064.31 670.523 1064.46 671.187 1064.76 671.766C1065.06 672.335 1065.49 672.774 1066.03 673.083C1066.57 673.393 1067.18 673.548 1067.87 673.548C1068.8 673.548 1069.55 673.288 1070.13 672.769C1070.71 672.25 1071.06 671.546 1071.19 670.658H1067.29V669.295H1073.02V670.628C1072.91 671.436 1072.62 672.18 1072.15 672.859C1071.69 673.538 1071.09 674.082 1070.34 674.491C1069.6 674.89 1068.78 675.09 1067.87 675.09C1066.89 675.09 1066 674.865 1065.19 674.416C1064.38 673.957 1063.74 673.323 1063.26 672.514C1062.79 671.706 1062.55 670.793 1062.55 669.774C1062.55 668.756 1062.79 667.843 1063.26 667.034C1063.74 666.226 1064.38 665.597 1065.19 665.148C1066.01 664.689 1066.9 664.459 1067.87 664.459C1068.98 664.459 1069.96 664.733 1070.82 665.282C1071.69 665.821 1072.32 666.59 1072.71 667.588H1070.65Z"></path><path style="fill:var(--color-illustrationInterface010)" d="M1078.28 675.135C1077.5 675.135 1076.8 674.96 1076.17 674.611C1075.54 674.251 1075.05 673.752 1074.69 673.113C1074.33 672.465 1074.15 671.716 1074.15 670.867C1074.15 670.029 1074.33 669.285 1074.7 668.636C1075.07 667.988 1075.58 667.488 1076.22 667.139C1076.85 666.79 1077.57 666.615 1078.36 666.615C1079.15 666.615 1079.86 666.79 1080.5 667.139C1081.14 667.488 1081.64 667.988 1082.01 668.636C1082.38 669.285 1082.56 670.029 1082.56 670.867C1082.56 671.706 1082.37 672.45 1082 673.098C1081.62 673.747 1081.1 674.251 1080.44 674.611C1079.79 674.96 1079.07 675.135 1078.28 675.135ZM1078.28 673.652C1078.72 673.652 1079.13 673.548 1079.51 673.338C1079.9 673.128 1080.21 672.814 1080.45 672.395C1080.69 671.975 1080.81 671.466 1080.81 670.867C1080.81 670.268 1080.7 669.764 1080.47 669.355C1080.24 668.936 1079.93 668.621 1079.55 668.412C1079.18 668.202 1078.77 668.097 1078.33 668.097C1077.89 668.097 1077.48 668.202 1077.1 668.412C1076.73 668.621 1076.44 668.936 1076.22 669.355C1076 669.764 1075.89 670.268 1075.89 670.867C1075.89 671.756 1076.11 672.445 1076.56 672.934C1077.02 673.413 1077.59 673.652 1078.28 673.652Z"></path><path style="fill:var(--color-illustrationInterface010)" d="M1090.13 668.142V672.709C1090.13 673.019 1090.2 673.243 1090.34 673.383C1090.49 673.513 1090.74 673.578 1091.09 673.578H1092.14V675H1090.79C1090.02 675 1089.43 674.82 1089.02 674.461C1088.62 674.102 1088.41 673.518 1088.41 672.709V668.142H1087.44V666.75H1088.41V664.699H1090.13V666.75H1092.14V668.142H1090.13Z"></path><path style="fill:var(--color-illustrationInterface010)" d="M1097.29 675.135C1096.51 675.135 1095.81 674.96 1095.18 674.611C1094.55 674.251 1094.06 673.752 1093.7 673.113C1093.34 672.465 1093.16 671.716 1093.16 670.867C1093.16 670.029 1093.34 669.285 1093.71 668.636C1094.08 667.988 1094.59 667.488 1095.22 667.139C1095.86 666.79 1096.58 666.615 1097.37 666.615C1098.15 666.615 1098.87 666.79 1099.51 667.139C1100.15 667.488 1100.65 667.988 1101.02 668.636C1101.39 669.285 1101.57 670.029 1101.57 670.867C1101.57 671.706 1101.38 672.45 1101 673.098C1100.62 673.747 1100.11 674.251 1099.45 674.611C1098.8 674.96 1098.08 675.135 1097.29 675.135ZM1097.29 673.652C1097.73 673.652 1098.14 673.548 1098.52 673.338C1098.91 673.128 1099.22 672.814 1099.46 672.395C1099.7 671.975 1099.82 671.466 1099.82 670.867C1099.82 670.268 1099.71 669.764 1099.48 669.355C1099.25 668.936 1098.94 668.621 1098.56 668.412C1098.18 668.202 1097.78 668.097 1097.34 668.097C1096.9 668.097 1096.49 668.202 1096.11 668.412C1095.74 668.621 1095.44 668.936 1095.22 669.355C1095.01 669.764 1094.9 670.268 1094.9 670.867C1094.9 671.756 1095.12 672.445 1095.57 672.934C1096.03 673.413 1096.6 673.652 1097.29 673.652Z"></path><path style="fill:var(--color-illustrationInterface010)" d="M1106.58 670.867C1106.58 670.019 1106.75 669.275 1107.09 668.636C1107.44 667.988 1107.92 667.488 1108.53 667.139C1109.14 666.79 1109.84 666.615 1110.62 666.615C1111.62 666.615 1112.45 666.855 1113.09 667.334C1113.75 667.803 1114.2 668.477 1114.43 669.355H1112.59C1112.44 668.946 1112.2 668.626 1111.87 668.397C1111.54 668.167 1111.12 668.052 1110.62 668.052C1109.93 668.052 1109.37 668.302 1108.95 668.801C1108.54 669.29 1108.33 669.979 1108.33 670.867C1108.33 671.756 1108.54 672.45 1108.95 672.949C1109.37 673.448 1109.93 673.697 1110.62 673.697C1111.61 673.697 1112.27 673.263 1112.59 672.395H1114.43C1114.19 673.233 1113.74 673.902 1113.08 674.401C1112.42 674.89 1111.6 675.135 1110.62 675.135C1109.84 675.135 1109.14 674.96 1108.53 674.611C1107.92 674.251 1107.44 673.752 1107.09 673.113C1106.75 672.465 1106.58 671.716 1106.58 670.867Z"></path><path style="fill:var(--color-illustrationInterface010)" d="M1120.4 666.615C1121.02 666.615 1121.58 666.75 1122.07 667.019C1122.57 667.289 1122.96 667.688 1123.24 668.217C1123.53 668.746 1123.67 669.385 1123.67 670.134V675H1121.98V670.388C1121.98 669.65 1121.8 669.086 1121.43 668.696C1121.06 668.297 1120.56 668.097 1119.92 668.097C1119.28 668.097 1118.77 668.297 1118.39 668.696C1118.02 669.086 1117.83 669.65 1117.83 670.388V675H1116.13V663.92H1117.83V667.708C1118.12 667.359 1118.49 667.089 1118.93 666.9C1119.38 666.71 1119.87 666.615 1120.4 666.615Z"></path><path style="fill:var(--color-illustrationInterface010)" d="M1133.41 670.673C1133.41 670.982 1133.39 671.262 1133.35 671.511H1127.05C1127.1 672.17 1127.34 672.699 1127.78 673.098C1128.22 673.498 1128.76 673.697 1129.4 673.697C1130.32 673.697 1130.97 673.313 1131.35 672.544H1133.19C1132.94 673.303 1132.48 673.927 1131.83 674.416C1131.18 674.895 1130.37 675.135 1129.4 675.135C1128.61 675.135 1127.9 674.96 1127.27 674.611C1126.66 674.251 1126.17 673.752 1125.81 673.113C1125.46 672.465 1125.28 671.716 1125.28 670.867C1125.28 670.019 1125.45 669.275 1125.79 668.636C1126.14 667.988 1126.63 667.488 1127.24 667.139C1127.87 666.79 1128.59 666.615 1129.4 666.615C1130.18 666.615 1130.87 666.785 1131.48 667.124C1132.09 667.464 1132.56 667.943 1132.9 668.562C1133.24 669.17 1133.41 669.874 1133.41 670.673ZM1131.63 670.134C1131.62 669.505 1131.4 669.001 1130.96 668.621C1130.52 668.242 1129.97 668.052 1129.33 668.052C1128.74 668.052 1128.23 668.242 1127.81 668.621C1127.39 668.991 1127.14 669.495 1127.06 670.134H1131.63Z"></path><path style="fill:var(--color-illustrationInterface010)" d="M1134.52 670.867C1134.52 670.019 1134.69 669.275 1135.03 668.636C1135.38 667.988 1135.86 667.488 1136.47 667.139C1137.08 666.79 1137.78 666.615 1138.57 666.615C1139.56 666.615 1140.39 666.855 1141.04 667.334C1141.7 667.803 1142.14 668.477 1142.37 669.355H1140.53C1140.38 668.946 1140.14 668.626 1139.81 668.397C1139.48 668.167 1139.07 668.052 1138.57 668.052C1137.87 668.052 1137.31 668.302 1136.89 668.801C1136.48 669.29 1136.28 669.979 1136.28 670.867C1136.28 671.756 1136.48 672.45 1136.89 672.949C1137.31 673.448 1137.87 673.697 1138.57 673.697C1139.55 673.697 1140.21 673.263 1140.53 672.395H1142.37C1142.13 673.233 1141.68 673.902 1141.02 674.401C1140.36 674.89 1139.54 675.135 1138.57 675.135C1137.78 675.135 1137.08 674.96 1136.47 674.611C1135.86 674.251 1135.38 673.752 1135.03 673.113C1134.69 672.465 1134.52 671.716 1134.52 670.867Z"></path><path style="fill:var(--color-illustrationInterface010)" d="M1147.33 670.882L1151.14 675H1148.83L1145.78 671.451V675H1144.07V663.92H1145.78V670.358L1148.77 666.75H1151.14L1147.33 670.882Z"></path><path style="fill:var(--color-illustrationInterface010)" d="M1155.94 675.135C1155.16 675.135 1154.46 674.96 1153.83 674.611C1153.2 674.251 1152.71 673.752 1152.35 673.113C1151.99 672.465 1151.81 671.716 1151.81 670.867C1151.81 670.029 1151.99 669.285 1152.36 668.636C1152.73 667.988 1153.23 667.488 1153.87 667.139C1154.51 666.79 1155.23 666.615 1156.01 666.615C1156.8 666.615 1157.52 666.79 1158.16 667.139C1158.79 667.488 1159.3 667.988 1159.67 668.636C1160.04 669.285 1160.22 670.029 1160.22 670.867C1160.22 671.706 1160.03 672.45 1159.65 673.098C1159.27 673.747 1158.75 674.251 1158.1 674.611C1157.45 674.96 1156.73 675.135 1155.94 675.135ZM1155.94 673.652C1156.38 673.652 1156.79 673.548 1157.17 673.338C1157.56 673.128 1157.87 672.814 1158.11 672.395C1158.35 671.975 1158.47 671.466 1158.47 670.867C1158.47 670.268 1158.36 669.764 1158.13 669.355C1157.9 668.936 1157.59 668.621 1157.21 668.412C1156.83 668.202 1156.42 668.097 1155.98 668.097C1155.55 668.097 1155.14 668.202 1154.76 668.412C1154.39 668.621 1154.09 668.936 1153.87 669.355C1153.65 669.764 1153.54 670.268 1153.54 670.867C1153.54 671.756 1153.77 672.445 1154.22 672.934C1154.68 673.413 1155.25 673.652 1155.94 673.652Z"></path><path style="fill:var(--color-illustrationInterface010)" d="M1169.38 666.75V675H1167.67V674.027C1167.4 674.366 1167.05 674.636 1166.61 674.835C1166.18 675.025 1165.72 675.12 1165.23 675.12C1164.58 675.12 1164 674.985 1163.48 674.715C1162.97 674.446 1162.57 674.047 1162.27 673.518C1161.98 672.989 1161.83 672.35 1161.83 671.601V666.75H1163.53V671.347C1163.53 672.085 1163.71 672.654 1164.08 673.053C1164.45 673.443 1164.95 673.637 1165.59 673.637C1166.23 673.637 1166.74 673.443 1167.11 673.053C1167.48 672.654 1167.67 672.085 1167.67 671.347V666.75H1169.38Z"></path><path style="fill:var(--color-illustrationInterface010)" d="M1173.62 668.142V672.709C1173.62 673.019 1173.69 673.243 1173.83 673.383C1173.98 673.513 1174.23 673.578 1174.58 673.578H1175.63V675H1174.28C1173.51 675 1172.93 674.82 1172.52 674.461C1172.11 674.102 1171.9 673.518 1171.9 672.709V668.142H1170.93V666.75H1171.9V664.699H1173.62V666.75H1175.63V668.142H1173.62Z"></path><path style="fill:var(--color-illustrationHighlight010)" d="M880.482 254.452C880.482 253.565 880.686 252.77 881.095 252.067C881.512 251.363 882.072 250.815 882.776 250.424C883.488 250.025 884.266 249.825 885.109 249.825C886.073 249.825 886.929 250.064 887.676 250.542C888.432 251.011 888.979 251.68 889.318 252.549H887.533C887.298 252.071 886.972 251.715 886.555 251.48C886.138 251.246 885.656 251.128 885.109 251.128C884.509 251.128 883.975 251.263 883.506 251.532C883.037 251.802 882.667 252.188 882.398 252.692C882.137 253.196 882.007 253.783 882.007 254.452C882.007 255.121 882.137 255.707 882.398 256.211C882.667 256.715 883.037 257.106 883.506 257.384C883.975 257.653 884.509 257.788 885.109 257.788C885.656 257.788 886.138 257.671 886.555 257.436C886.972 257.201 887.298 256.845 887.533 256.367H889.318C888.979 257.236 888.432 257.905 887.676 258.374C886.929 258.843 886.073 259.078 885.109 259.078C884.257 259.078 883.48 258.883 882.776 258.492C882.072 258.092 881.512 257.54 881.095 256.836C880.686 256.133 880.482 255.338 880.482 254.452Z"></path><path style="fill:var(--color-illustrationHighlight010)" d="M894.172 259.117C893.494 259.117 892.882 258.965 892.334 258.661C891.787 258.348 891.357 257.914 891.044 257.358C890.731 256.793 890.575 256.141 890.575 255.403C890.575 254.673 890.736 254.026 891.057 253.461C891.379 252.896 891.817 252.462 892.373 252.158C892.93 251.854 893.551 251.702 894.237 251.702C894.924 251.702 895.545 251.854 896.101 252.158C896.657 252.462 897.096 252.896 897.417 253.461C897.739 254.026 897.899 254.673 897.899 255.403C897.899 256.133 897.734 256.78 897.404 257.345C897.074 257.909 896.622 258.348 896.049 258.661C895.484 258.965 894.858 259.117 894.172 259.117ZM894.172 257.827C894.554 257.827 894.91 257.736 895.241 257.553C895.579 257.371 895.853 257.097 896.062 256.732C896.27 256.367 896.374 255.924 896.374 255.403C896.374 254.882 896.275 254.443 896.075 254.087C895.875 253.722 895.61 253.448 895.28 253.266C894.95 253.083 894.593 252.992 894.211 252.992C893.829 252.992 893.473 253.083 893.142 253.266C892.821 253.448 892.565 253.722 892.373 254.087C892.182 254.443 892.087 254.882 892.087 255.403C892.087 256.176 892.282 256.776 892.673 257.201C893.073 257.618 893.572 257.827 894.172 257.827Z"></path><path style="fill:var(--color-illustrationHighlight010)" d="M902.991 251.702C903.556 251.702 904.06 251.819 904.503 252.054C904.955 252.288 905.306 252.636 905.558 253.096C905.81 253.557 905.936 254.113 905.936 254.764V259H904.464V254.986C904.464 254.343 904.303 253.852 903.981 253.513C903.66 253.166 903.221 252.992 902.665 252.992C902.109 252.992 901.666 253.166 901.336 253.513C901.014 253.852 900.854 254.343 900.854 254.986V259H899.368V251.819H900.854V252.64C901.097 252.345 901.405 252.114 901.779 251.949C902.161 251.784 902.565 251.702 902.991 251.702Z"></path><path style="fill:var(--color-illustrationHighlight010)" d="M909.565 253.031V257.006C909.565 257.275 909.626 257.471 909.747 257.592C909.878 257.705 910.095 257.762 910.399 257.762H911.311V259H910.138C909.469 259 908.957 258.843 908.6 258.531C908.244 258.218 908.066 257.71 908.066 257.006V253.031H907.219V251.819H908.066V250.034H909.565V251.819H911.311V253.031H909.565Z"></path><path style="fill:var(--color-illustrationHighlight010)" d="M913.436 250.868C913.167 250.868 912.941 250.776 912.759 250.594C912.576 250.411 912.485 250.186 912.485 249.916C912.485 249.647 912.576 249.421 912.759 249.239C912.941 249.056 913.167 248.965 913.436 248.965C913.697 248.965 913.919 249.056 914.101 249.239C914.283 249.421 914.375 249.647 914.375 249.916C914.375 250.186 914.283 250.411 914.101 250.594C913.919 250.776 913.697 250.868 913.436 250.868ZM914.166 251.819V259H912.68V251.819H914.166Z"></path><path style="fill:var(--color-illustrationHighlight010)" d="M919.74 251.702C920.304 251.702 920.808 251.819 921.252 252.054C921.703 252.288 922.055 252.636 922.307 253.096C922.559 253.557 922.685 254.113 922.685 254.764V259H921.212V254.986C921.212 254.343 921.052 253.852 920.73 253.513C920.409 253.166 919.97 252.992 919.414 252.992C918.858 252.992 918.415 253.166 918.085 253.513C917.763 253.852 917.602 254.343 917.602 254.986V259H916.117V251.819H917.602V252.64C917.846 252.345 918.154 252.114 918.528 251.949C918.91 251.784 919.314 251.702 919.74 251.702Z"></path><path style="fill:var(--color-illustrationHighlight010)" d="M931.083 251.819V259H929.598V258.153C929.363 258.448 929.055 258.683 928.672 258.856C928.299 259.022 927.899 259.104 927.473 259.104C926.909 259.104 926.4 258.987 925.949 258.752C925.505 258.518 925.154 258.17 924.893 257.71C924.641 257.249 924.515 256.693 924.515 256.041V251.819H925.988V255.82C925.988 256.463 926.148 256.958 926.47 257.306C926.791 257.644 927.23 257.814 927.786 257.814C928.342 257.814 928.781 257.644 929.102 257.306C929.433 256.958 929.598 256.463 929.598 255.82V251.819H931.083Z"></path><path style="fill:var(--color-illustrationHighlight010)" d="M939.625 255.233C939.625 255.503 939.608 255.746 939.573 255.963H934.086C934.13 256.537 934.343 256.997 934.725 257.345C935.107 257.692 935.576 257.866 936.132 257.866C936.932 257.866 937.496 257.532 937.827 256.863H939.43C939.212 257.523 938.817 258.066 938.244 258.492C937.679 258.909 936.975 259.117 936.132 259.117C935.446 259.117 934.829 258.965 934.282 258.661C933.743 258.348 933.317 257.914 933.005 257.358C932.7 256.793 932.548 256.141 932.548 255.403C932.548 254.664 932.696 254.017 932.992 253.461C933.296 252.896 933.717 252.462 934.256 252.158C934.803 251.854 935.429 251.702 936.132 251.702C936.81 251.702 937.414 251.849 937.944 252.145C938.474 252.44 938.887 252.857 939.182 253.396C939.477 253.926 939.625 254.538 939.625 255.233ZM938.074 254.764C938.066 254.217 937.87 253.778 937.488 253.448C937.105 253.118 936.632 252.953 936.067 252.953C935.555 252.953 935.116 253.118 934.751 253.448C934.386 253.769 934.169 254.208 934.099 254.764H938.074Z"></path><path style="fill:var(--color-illustrationHighlight010)" d="M947.079 259.117C946.514 259.117 946.006 259.017 945.554 258.817C945.111 258.609 944.759 258.331 944.499 257.983C944.238 257.627 944.099 257.232 944.082 256.797H945.619C945.645 257.101 945.789 257.358 946.049 257.566C946.319 257.766 946.653 257.866 947.053 257.866C947.47 257.866 947.791 257.788 948.017 257.631C948.252 257.466 948.369 257.258 948.369 257.006C948.369 256.737 948.239 256.537 947.978 256.406C947.726 256.276 947.322 256.133 946.766 255.976C946.228 255.829 945.789 255.685 945.45 255.546C945.111 255.407 944.816 255.194 944.564 254.908C944.32 254.621 944.199 254.243 944.199 253.774C944.199 253.392 944.312 253.044 944.538 252.731C944.764 252.41 945.085 252.158 945.502 251.975C945.928 251.793 946.414 251.702 946.962 251.702C947.778 251.702 948.434 251.91 948.93 252.327C949.434 252.736 949.703 253.296 949.738 254.008H948.252C948.226 253.687 948.096 253.431 947.861 253.239C947.626 253.048 947.309 252.953 946.91 252.953C946.519 252.953 946.219 253.027 946.01 253.174C945.802 253.322 945.698 253.518 945.698 253.761C945.698 253.952 945.767 254.113 945.906 254.243C946.045 254.373 946.215 254.478 946.414 254.556C946.614 254.625 946.91 254.717 947.301 254.829C947.822 254.968 948.248 255.112 948.578 255.26C948.917 255.399 949.208 255.607 949.451 255.885C949.694 256.163 949.82 256.532 949.829 256.993C949.829 257.401 949.716 257.766 949.49 258.088C949.264 258.409 948.943 258.661 948.526 258.843C948.117 259.026 947.635 259.117 947.079 259.117Z"></path><path style="fill:var(--color-illustrationHighlight010)" d="M955.148 251.702C955.696 251.702 956.182 251.819 956.608 252.054C957.043 252.288 957.381 252.636 957.625 253.096C957.877 253.557 958.003 254.113 958.003 254.764V259H956.53V254.986C956.53 254.343 956.369 253.852 956.048 253.513C955.726 253.166 955.287 252.992 954.731 252.992C954.175 252.992 953.732 253.166 953.402 253.513C953.081 253.852 952.92 254.343 952.92 254.986V259H951.434V249.356H952.92V252.653C953.172 252.349 953.489 252.114 953.871 251.949C954.262 251.784 954.688 251.702 955.148 251.702Z"></path><path style="fill:var(--color-illustrationHighlight010)" d="M963.012 259.117C962.335 259.117 961.722 258.965 961.175 258.661C960.627 258.348 960.197 257.914 959.885 257.358C959.572 256.793 959.415 256.141 959.415 255.403C959.415 254.673 959.576 254.026 959.898 253.461C960.219 252.896 960.658 252.462 961.214 252.158C961.77 251.854 962.391 251.702 963.078 251.702C963.764 251.702 964.385 251.854 964.941 252.158C965.497 252.462 965.936 252.896 966.258 253.461C966.579 254.026 966.74 254.673 966.74 255.403C966.74 256.133 966.575 256.78 966.244 257.345C965.914 257.909 965.463 258.348 964.889 258.661C964.324 258.965 963.699 259.117 963.012 259.117ZM963.012 257.827C963.395 257.827 963.751 257.736 964.081 257.553C964.42 257.371 964.694 257.097 964.902 256.732C965.111 256.367 965.215 255.924 965.215 255.403C965.215 254.882 965.115 254.443 964.915 254.087C964.715 253.722 964.45 253.448 964.12 253.266C963.79 253.083 963.434 252.992 963.052 252.992C962.669 252.992 962.313 253.083 961.983 253.266C961.661 253.448 961.405 253.722 961.214 254.087C961.023 254.443 960.927 254.882 960.927 255.403C960.927 256.176 961.123 256.776 961.514 257.201C961.913 257.618 962.413 257.827 963.012 257.827Z"></path><path style="fill:var(--color-illustrationHighlight010)" d="M969.694 252.875C969.946 252.544 970.289 252.266 970.724 252.041C971.158 251.815 971.649 251.702 972.196 251.702C972.822 251.702 973.391 251.858 973.904 252.171C974.425 252.475 974.833 252.905 975.129 253.461C975.424 254.017 975.572 254.656 975.572 255.377C975.572 256.098 975.424 256.745 975.129 257.319C974.833 257.883 974.425 258.327 973.904 258.648C973.391 258.961 972.822 259.117 972.196 259.117C971.649 259.117 971.162 259.009 970.737 258.791C970.311 258.565 969.963 258.287 969.694 257.957V262.414H968.208V251.819H969.694V252.875ZM974.06 255.377C974.06 254.882 973.956 254.456 973.747 254.1C973.547 253.735 973.278 253.461 972.939 253.279C972.609 253.087 972.253 252.992 971.871 252.992C971.497 252.992 971.141 253.087 970.802 253.279C970.472 253.47 970.202 253.748 969.994 254.113C969.794 254.478 969.694 254.908 969.694 255.403C969.694 255.898 969.794 256.333 969.994 256.706C970.202 257.071 970.472 257.349 970.802 257.54C971.141 257.731 971.497 257.827 971.871 257.827C972.253 257.827 972.609 257.731 972.939 257.54C973.278 257.34 973.547 257.054 973.747 256.68C973.956 256.306 974.06 255.872 974.06 255.377Z"></path><path style="fill:var(--color-illustrationHighlight010)" d="M978.527 252.875C978.779 252.544 979.122 252.266 979.556 252.041C979.991 251.815 980.482 251.702 981.029 251.702C981.654 251.702 982.224 251.858 982.736 252.171C983.257 252.475 983.666 252.905 983.961 253.461C984.257 254.017 984.404 254.656 984.404 255.377C984.404 256.098 984.257 256.745 983.961 257.319C983.666 257.883 983.257 258.327 982.736 258.648C982.224 258.961 981.654 259.117 981.029 259.117C980.482 259.117 979.995 259.009 979.569 258.791C979.144 258.565 978.796 258.287 978.527 257.957V262.414H977.041V251.819H978.527V252.875ZM982.893 255.377C982.893 254.882 982.788 254.456 982.58 254.1C982.38 253.735 982.111 253.461 981.772 253.279C981.442 253.087 981.085 252.992 980.703 252.992C980.329 252.992 979.973 253.087 979.634 253.279C979.304 253.47 979.035 253.748 978.826 254.113C978.627 254.478 978.527 254.908 978.527 255.403C978.527 255.898 978.627 256.333 978.826 256.706C979.035 257.071 979.304 257.349 979.634 257.54C979.973 257.731 980.329 257.827 980.703 257.827C981.085 257.827 981.442 257.731 981.772 257.54C982.111 257.34 982.38 257.054 982.58 256.68C982.788 256.306 982.893 255.872 982.893 255.377Z"></path><path style="fill:var(--color-illustrationHighlight010)" d="M986.629 250.868C986.36 250.868 986.134 250.776 985.952 250.594C985.769 250.411 985.678 250.186 985.678 249.916C985.678 249.647 985.769 249.421 985.952 249.239C986.134 249.056 986.36 248.965 986.629 248.965C986.89 248.965 987.112 249.056 987.294 249.239C987.477 249.421 987.568 249.647 987.568 249.916C987.568 250.186 987.477 250.411 987.294 250.594C987.112 250.776 986.89 250.868 986.629 250.868ZM987.359 251.819V259H985.874V251.819H987.359Z"></path><path style="fill:var(--color-illustrationHighlight010)" d="M992.933 251.702C993.498 251.702 994.002 251.819 994.445 252.054C994.896 252.288 995.248 252.636 995.5 253.096C995.752 253.557 995.878 254.113 995.878 254.764V259H994.406V254.986C994.406 254.343 994.245 253.852 993.923 253.513C993.602 253.166 993.163 252.992 992.607 252.992C992.051 252.992 991.608 253.166 991.278 253.513C990.956 253.852 990.796 254.343 990.796 254.986V259H989.31V251.819H990.796V252.64C991.039 252.345 991.347 252.114 991.721 251.949C992.103 251.784 992.507 251.702 992.933 251.702Z"></path><path style="fill:var(--color-illustrationHighlight010)" d="M1000.67 251.702C1001.22 251.702 1001.71 251.815 1002.14 252.041C1002.57 252.258 1002.91 252.531 1003.16 252.862V251.819H1004.65V259.117C1004.65 259.777 1004.52 260.364 1004.24 260.877C1003.96 261.398 1003.56 261.806 1003.03 262.102C1002.5 262.397 1001.88 262.545 1001.15 262.545C1000.18 262.545 999.368 262.314 998.725 261.854C998.082 261.402 997.717 260.785 997.63 260.003H999.103C999.216 260.377 999.454 260.677 999.819 260.903C1000.19 261.137 1000.64 261.254 1001.15 261.254C1001.75 261.254 1002.23 261.072 1002.6 260.707C1002.97 260.342 1003.16 259.812 1003.16 259.117V257.918C1002.9 258.257 1002.56 258.544 1002.13 258.778C1001.7 259.004 1001.21 259.117 1000.67 259.117C1000.04 259.117 999.468 258.961 998.946 258.648C998.434 258.327 998.025 257.883 997.721 257.319C997.426 256.745 997.278 256.098 997.278 255.377C997.278 254.656 997.426 254.017 997.721 253.461C998.025 252.905 998.434 252.475 998.946 252.171C999.468 251.858 1000.04 251.702 1000.67 251.702ZM1003.16 255.403C1003.16 254.908 1003.05 254.478 1002.84 254.113C1002.64 253.748 1002.38 253.47 1002.05 253.279C1001.72 253.087 1001.36 252.992 1000.98 252.992C1000.6 252.992 1000.24 253.087 999.911 253.279C999.58 253.461 999.311 253.735 999.103 254.1C998.903 254.456 998.803 254.882 998.803 255.377C998.803 255.872 998.903 256.306 999.103 256.68C999.311 257.054 999.58 257.34 999.911 257.54C1000.25 257.731 1000.61 257.827 1000.98 257.827C1001.36 257.827 1001.72 257.731 1002.05 257.54C1002.38 257.349 1002.64 257.071 1002.84 256.706C1003.05 256.333 1003.16 255.898 1003.16 255.403Z"></path></g><defs><filter id="nk-1193" x="818.81" y="109.96" width="433.185" height="634.16" filterUnits="userSpaceOnUse" color-interpolation-filters="sRGB"><feFlood flood-opacity="0" result="BackgroundImageFix"></feFlood><feColorMatrix in="SourceAlpha" type="matrix" values="0 0 0 0 0 0 0 0 0 0 0 0 0 0 0 0 0 0 127 0" result="hardAlpha"></feColorMatrix><feOffset dy="8.04007"></feOffset><feGaussianBlur stdDeviation="8.04007"></feGaussianBlur><feColorMatrix type="matrix" values="0 0 0 0 0.0392157 0 0 0 0 0.0392157 0 0 0 0 0.0392157 0 0 0 0.08 0"></feColorMatrix><feBlend mode="normal" in2="BackgroundImageFix" result="effect1_dropShadow_1100_12852"></feBlend><feBlend mode="normal" in="SourceGraphic" in2="effect1_dropShadow_1100_12852" result="shape"></feBlend></filter><clipPath id="nk-1192"><rect style="fill:var(--color-white)" width="980.886" height="602" transform="translate(255 118)"></rect></clipPath></defs></svg>