<svg id="components-audio-player-usage-do-01" style="width: 100%; height: 100%" width="1490" height="838" viewBox="0 0 1490 838" fill="none" xmlns="http://www.w3.org/2000/svg" class="css-0"><g clip-path="url(#nk-1178)"><path style="fill:var(--color-illustrationBackground010)" d="M0 0H1490V838H0V0Z"></path><g filter="url(#nk-1179)"><rect style="fill:var(--color-interfaceBackground)" x="-1144.74" y="195.691" width="2437.48" height="445.309" rx="10.0034"></rect></g><mask id="nk-1175" mask-type="alpha" maskUnits="userSpaceOnUse" x="2" y="354" width="129" height="129"><path fill-rule="evenodd" clip-rule="evenodd" d="M102.55 411.728C103.404 409.043 103.769 405.625 103.769 401.72V392.689C103.769 388.783 103.282 385.488 102.429 382.681C101.575 379.874 100.357 377.555 98.772 375.724C97.1875 373.894 95.3592 372.551 93.1653 371.697C90.9713 370.843 88.6555 370.477 85.974 370.477C83.2925 370.477 80.8548 370.843 78.7827 371.697C76.7107 372.551 74.7605 373.894 73.2979 375.724C71.8353 377.555 70.6164 379.996 69.7632 382.681C68.91 385.366 68.5443 388.783 68.5443 392.689V401.72C68.5443 405.625 69.0319 408.921 69.8851 411.728C70.7383 414.535 71.9571 416.854 73.5417 418.684C75.1262 420.515 76.9545 421.857 79.1484 422.712C81.3423 423.566 83.6582 423.932 86.3397 423.932C89.0211 423.932 91.4589 423.566 93.5309 422.712C95.603 421.857 97.5531 420.515 99.0158 418.684C100.478 416.854 101.697 414.413 102.55 411.728ZM41.2421 423.195H51.6024V371.082H50.5054L28.9316 378.771V387.192L41.2421 383.409V423.195ZM93.4095 391.218C93.4095 388.899 93.2876 386.947 92.922 385.36C92.5563 383.773 92.0688 382.553 91.4594 381.577C90.8499 380.6 90.1186 379.868 89.1435 379.502C88.1684 379.136 87.1934 378.892 86.0964 378.892C84.9994 378.892 83.9025 379.136 83.0493 379.502C82.1961 379.868 81.3428 380.6 80.7334 381.577C80.124 382.553 79.6365 383.773 79.2708 385.36C78.9051 386.947 78.7833 388.899 78.7833 391.218V403.056C78.7833 405.375 78.9051 407.328 79.2708 408.915C79.6365 410.501 80.124 411.844 80.7334 412.82C81.3428 413.796 82.0742 414.529 83.0493 414.895C84.0243 415.261 84.9994 415.505 86.0964 415.505C87.1934 415.505 88.2903 415.261 89.1435 414.895C89.9967 414.529 90.8499 413.796 91.4594 412.82C92.0688 411.844 92.5563 410.501 92.8001 408.915C93.0439 407.328 93.2876 405.375 93.2876 403.056V391.218H93.4095ZM87.7333 466.697L64.3656 450.661L87.7333 434.624V466.697ZM62.9906 466.697L39.6228 450.661L62.9906 434.624V466.697Z" fill="#0A0A0A"></path></mask><g mask="url(#nk-1175)"><rect style="fill:var(--color-illustrationInterface030)" x="2.20386" y="354.439" width="128.293" height="128.293"></rect></g><path style="fill:var(--color-illustrationInterface030)" d="M216.026 418.586C216.026 347.732 273.465 290.293 344.319 290.293V290.293C415.174 290.293 472.613 347.732 472.613 418.586V418.586C472.613 489.441 415.174 546.88 344.319 546.88V546.88C273.465 546.88 216.026 489.441 216.026 418.586V418.586Z"></path><mask id="nk-1176" mask-type="alpha" maskUnits="userSpaceOnUse" x="280" y="354" width="129" height="129"><path d="M312.246 386.514H376.393V450.66H312.246V386.514Z" fill="#0A0A0A"></path></mask><g mask="url(#nk-1176)"><rect style="fill:var(--color-illustrationInterface010)" x="280.173" y="354.439" width="128.293" height="128.293"></rect></g><mask id="nk-1177" mask-type="alpha" maskUnits="userSpaceOnUse" x="731" y="348" width="142" height="142"><path fill-rule="evenodd" clip-rule="evenodd" d="M796.134 477.606H807.899V359.959H796.134V477.606ZM772.606 454.071H784.371V383.483H772.606V454.071ZM760.841 430.553H749.076V407.024H760.841V430.553ZM819.664 454.071H831.429V383.483H819.664V454.071ZM843.194 430.553V407.024H854.959V430.553H843.194Z" fill="#0A0A0A"></path></mask><g mask="url(#nk-1177)"><rect style="fill:var(--color-illustrationHighlight010)" x="731.429" y="348.189" width="141.177" height="141.177"></rect></g><path style="fill:var(--color-illustrationHighlight010)" d="M963.206 444.124H988.088V453.865H951.135V380.277H963.206V444.124ZM1004.32 387.795C1002.14 387.795 1000.3 387.053 998.818 385.571C997.335 384.089 996.594 382.253 996.594 380.065C996.594 377.877 997.335 376.042 998.818 374.559C1000.3 373.077 1002.14 372.336 1004.32 372.336C1006.44 372.336 1008.24 373.077 1009.72 374.559C1011.21 376.042 1011.95 377.877 1011.95 380.065C1011.95 382.253 1011.21 384.089 1009.72 385.571C1008.24 387.053 1006.44 387.795 1004.32 387.795ZM1010.25 395.524V453.865H998.182V395.524H1010.25ZM1048.65 443.065L1065.17 395.524H1077.98L1055.75 453.865H1041.35L1019.22 395.524H1032.14L1048.65 443.065ZM1140.58 423.265C1140.58 425.453 1140.44 427.43 1140.15 429.195H1095.58C1095.93 433.853 1097.66 437.595 1100.77 440.418C1103.87 443.242 1107.68 444.653 1112.2 444.653C1118.7 444.653 1123.28 441.936 1125.97 436.5H1138.99C1137.23 441.865 1134.01 446.277 1129.35 449.736C1124.77 453.124 1119.05 454.818 1112.2 454.818C1106.62 454.818 1101.61 453.583 1097.17 451.112C1092.79 448.571 1089.33 445.042 1086.79 440.524C1084.32 435.936 1083.08 430.642 1083.08 424.642C1083.08 418.642 1084.28 413.383 1086.68 408.865C1089.15 404.277 1092.58 400.747 1096.95 398.277C1101.4 395.806 1106.48 394.571 1112.2 394.571C1117.71 394.571 1122.61 395.771 1126.92 398.171C1131.23 400.571 1134.58 403.959 1136.98 408.336C1139.38 412.642 1140.58 417.618 1140.58 423.265ZM1127.98 419.453C1127.91 415.006 1126.32 411.442 1123.21 408.759C1120.11 406.077 1116.26 404.736 1111.67 404.736C1107.51 404.736 1103.94 406.077 1100.98 408.759C1098.01 411.371 1096.25 414.936 1095.68 419.453H1127.98Z"></path></g><defs><filter id="nk-1179" x="-1158.87" y="188.652" width="2465.74" height="473.568" filterUnits="userSpaceOnUse" color-interpolation-filters="sRGB"><feFlood flood-opacity="0" result="BackgroundImageFix"></feFlood><feColorMatrix in="SourceAlpha" type="matrix" values="0 0 0 0 0 0 0 0 0 0 0 0 0 0 0 0 0 0 127 0" result="hardAlpha"></feColorMatrix><feOffset dy="7.08989"></feOffset><feGaussianBlur stdDeviation="7.06489"></feGaussianBlur><feComposite in2="hardAlpha" operator="out"></feComposite><feColorMatrix type="matrix" values="0 0 0 0 0.0392157 0 0 0 0 0.0392157 0 0 0 0 0.0392157 0 0 0 0.08 0"></feColorMatrix><feBlend mode="normal" in2="BackgroundImageFix" result="effect1_dropShadow_1985_65834"></feBlend><feBlend mode="normal" in="SourceGraphic" in2="effect1_dropShadow_1985_65834" result="shape"></feBlend></filter><clipPath id="nk-1178"><rect style="fill:var(--color-white)" width="1490" height="838"></rect></clipPath></defs></svg>