<svg
  id="nksvg"
  style="width: 100%; height: 100%"
  width="1490"
  height="838"
  viewBox="0 0 1490 838"
  fill="none"
  xmlns="http://www.w3.org/2000/svg"
  class="css-0"
>
  <g clip-path="url(#nk-769)">
    <path
      style="fill: var(--color-illustrationBackground010)"
      d="M0 0H1490V838H0V0Z"
    ></path>
    <path
      style="fill: var(--color-interfaceBackground)"
      d="M115.897 -48.7752C115.897 -61.0496 125.847 -71 138.121 -71H1350.76C1363.04 -71 1372.99 -61.0496 1372.99 -48.7752V677.7C1372.99 689.974 1363.04 699.924 1350.76 699.924H138.121C125.847 699.924 115.897 689.974 115.897 677.7V-48.7752Z"
    ></path>
    <path
      style="fill: var(--color-illustrationInterface020)"
      opacity="0.6"
      fill-rule="evenodd"
      clip-rule="evenodd"
      d="M390.367 163.118C386.85 163.118 384 165.969 384 169.486C384 173.004 386.85 175.855 390.367 175.855H893.342C896.858 175.855 899.708 173.004 899.708 169.486C899.708 165.969 896.858 163.118 893.342 163.118H390.367ZM384 235.722C384 232.204 386.85 229.353 390.367 229.353H893.342C896.858 229.353 899.708 232.204 899.708 235.722C899.708 239.239 896.858 242.09 893.342 242.09H390.367C386.85 242.09 384 239.239 384 235.722ZM390.367 130C386.85 130 384 132.851 384 136.369C384 139.886 386.85 142.738 390.367 142.738H893.342C896.858 142.738 899.708 139.886 899.708 136.369C899.708 132.851 896.858 130 893.342 130H390.367ZM384 202.604C384 199.087 386.85 196.235 390.367 196.235H893.342C896.858 196.235 899.708 199.087 899.708 202.604C899.708 206.121 896.858 208.973 893.342 208.973H390.367C386.85 208.973 384 206.121 384 202.604Z"
    ></path>
    <path
      style="fill: var(--color-illustrationInterface020)"
      opacity="0.6"
      fill-rule="evenodd"
      clip-rule="evenodd"
      d="M390.367 297.118C386.85 297.118 384 299.969 384 303.486C384 307.004 386.85 309.855 390.367 309.855H893.342C896.858 309.855 899.708 307.004 899.708 303.486C899.708 299.969 896.858 297.118 893.342 297.118H390.367ZM384 369.722C384 366.204 386.85 363.353 390.367 363.353H893.342C896.858 363.353 899.708 366.204 899.708 369.722C899.708 373.239 896.858 376.09 893.342 376.09H390.367C386.85 376.09 384 373.239 384 369.722ZM390.367 264C386.85 264 384 266.851 384 270.369C384 273.886 386.85 276.738 390.367 276.738H893.342C896.858 276.738 899.708 273.886 899.708 270.369C899.708 266.851 896.858 264 893.342 264H390.367ZM384 336.604C384 333.087 386.85 330.235 390.367 330.235H893.342C896.858 330.235 899.708 333.087 899.708 336.604C899.708 340.121 896.858 342.973 893.342 342.973H390.367C386.85 342.973 384 340.121 384 336.604Z"
    ></path>
    <path
      style="fill: var(--color-illustrationInterface020)"
      opacity="0.6"
      fill-rule="evenodd"
      clip-rule="evenodd"
      d="M391.367 398C387.85 398 385 400.851 385 404.369C385 407.886 387.85 410.738 391.367 410.738H894.342C897.858 410.738 900.708 407.886 900.708 404.369C900.708 400.851 897.858 398 894.342 398H391.367ZM391.368 431.118C387.851 431.118 385.001 433.969 385.001 437.486C385.001 441.004 387.851 443.855 391.368 443.855H786.107C789.624 443.855 792.474 441.004 792.474 437.486C792.474 433.969 789.624 431.118 786.107 431.118H391.368Z"
    ></path>
    <path
      style="fill: var(--color-illustrationInterface020)"
      opacity="0.6"
      fill-rule="evenodd"
      clip-rule="evenodd"
      d="M391.014 29.5863C387.498 29.5863 384.648 32.4377 384.648 35.9551C384.648 39.4725 387.498 42.3239 391.014 42.3239H893.989C897.506 42.3239 900.356 39.4725 900.356 35.9551C900.356 32.4377 897.506 29.5863 893.989 29.5863H391.014ZM384.648 102.19C384.648 98.6729 387.498 95.8215 391.014 95.8215H893.989C897.506 95.8215 900.356 98.6729 900.356 102.19C900.356 105.708 897.506 108.559 893.989 108.559H391.014C387.498 108.559 384.648 105.708 384.648 102.19ZM391.014 -3.53125C387.498 -3.53125 384.648 -0.679854 384.648 2.83752C384.648 6.35489 387.498 9.20629 391.014 9.20629H893.989C897.506 9.20629 900.356 6.35489 900.356 2.83752C900.356 -0.679854 897.506 -3.53125 893.989 -3.53125H391.014ZM384.648 69.0727C384.648 65.5553 387.498 62.7039 391.014 62.7039H893.989C897.506 62.7039 900.356 65.5553 900.356 69.0727C900.356 72.5901 897.506 75.4415 893.989 75.4415H391.014C387.498 75.4415 384.648 72.5901 384.648 69.0727Z"
    ></path>
    <path
      style="fill: var(--color-illustrationInterface020)"
      opacity="0.6"
      d="M937 -0.627119C937 -7.46047 939.938 -13 943.562 -13H1098.44C1102.06 -13 1105 -7.46047 1105 -0.627119V120.627C1105 127.46 1102.06 133 1098.44 133H943.562C939.938 133 937 127.46 937 120.627V-0.627119Z"
    ></path>
    <path
      style="fill: var(--color-illustrationHighlight010)"
      d="M1372.99 615V677.7C1372.99 689.974 1363.04 699.924 1350.76 699.924H138.121C125.847 699.924 115.897 689.974 115.897 677.7V615H1372.99Z"
    ></path>
    <g >
      <path
        style="fill: var(--color-illustrationAnatomySubtle)"
        d="M398.044 652.307V667.769L410.193 660.038L398.044 652.307Z"
      ></path>
      <rect
        style="fill: var(--color-illustrationInterface010)"
        x="455.476"
        y="633.529"
        width="53.014"
        height="53.014"
        rx="26.507"
      ></rect>
      <path
        style="fill: var(--color-illustrationHighlight010)"
        fill-rule="evenodd"
        clip-rule="evenodd"
        d="M474.251 663.35V656.723H478.669L484.191 651.201V668.873L478.669 663.35H474.251ZM486.4 655.586C488.035 656.403 489.162 658.082 489.162 660.037C489.162 661.991 488.035 663.67 486.4 664.476V655.586Z"
      ></path>
      <path
        style="fill: var(--color-illustrationAnatomySubtle)"
        d="M536.587 659.332C536.587 656.275 537.099 653.89 538.124 652.176C539.167 650.444 540.952 649.578 543.479 649.578C546.006 649.578 547.782 650.444 548.807 652.176C549.849 653.89 550.371 656.275 550.371 659.332C550.371 662.425 549.849 664.846 548.807 666.595C547.782 668.327 546.006 669.193 543.479 669.193C540.952 669.193 539.167 668.327 538.124 666.595C537.099 664.846 536.587 662.425 536.587 659.332ZM547.402 659.332C547.402 657.901 547.305 656.691 547.11 655.701C546.934 654.711 546.562 653.907 545.997 653.289C545.432 652.653 544.592 652.335 543.479 652.335C542.366 652.335 541.526 652.653 540.961 653.289C540.395 653.907 540.015 654.711 539.821 655.701C539.644 656.691 539.556 657.901 539.556 659.332C539.556 660.817 539.644 662.063 539.821 663.07C539.998 664.077 540.369 664.89 540.934 665.509C541.517 666.127 542.366 666.436 543.479 666.436C544.592 666.436 545.432 666.127 545.997 665.509C546.58 664.89 546.96 664.077 547.137 663.07C547.314 662.063 547.402 660.817 547.402 659.332ZM553.568 659.332C553.568 656.275 554.081 653.89 555.105 652.176C556.148 650.444 557.933 649.578 560.46 649.578C562.987 649.578 564.763 650.444 565.788 652.176C566.83 653.89 567.352 656.275 567.352 659.332C567.352 662.425 566.83 664.846 565.788 666.595C564.763 668.327 562.987 669.193 560.46 669.193C557.933 669.193 556.148 668.327 555.105 666.595C554.081 664.846 553.568 662.425 553.568 659.332ZM564.383 659.332C564.383 657.901 564.286 656.691 564.091 655.701C563.915 654.711 563.544 653.907 562.978 653.289C562.413 652.653 561.573 652.335 560.46 652.335C559.347 652.335 558.507 652.653 557.942 653.289C557.376 653.907 556.996 654.711 556.802 655.701C556.625 656.691 556.537 657.901 556.537 659.332C556.537 660.817 556.625 662.063 556.802 663.07C556.979 664.077 557.35 664.89 557.915 665.509C558.498 666.127 559.347 666.436 560.46 666.436C561.573 666.436 562.413 666.127 562.978 665.509C563.561 664.89 563.941 664.077 564.118 663.07C564.295 662.063 564.383 660.817 564.383 659.332ZM572.166 669.432C571.618 669.432 571.159 669.246 570.788 668.875C570.417 668.504 570.231 668.044 570.231 667.497C570.231 666.949 570.417 666.489 570.788 666.118C571.159 665.747 571.618 665.562 572.166 665.562C572.696 665.562 573.147 665.747 573.518 666.118C573.889 666.489 574.075 666.949 574.075 667.497C574.075 668.044 573.889 668.504 573.518 668.875C573.147 669.246 572.696 669.432 572.166 669.432ZM572.166 658.299C571.618 658.299 571.159 658.113 570.788 657.742C570.417 657.371 570.231 656.911 570.231 656.364C570.231 655.816 570.417 655.356 570.788 654.985C571.159 654.614 571.618 654.429 572.166 654.429C572.696 654.429 573.147 654.614 573.518 654.985C573.889 655.356 574.075 655.816 574.075 656.364C574.075 656.911 573.889 657.371 573.518 657.742C573.147 658.113 572.696 658.299 572.166 658.299ZM576.993 654.694C577.099 653.05 577.727 651.769 578.875 650.85C580.042 649.931 581.526 649.472 583.329 649.472C584.566 649.472 585.635 649.693 586.536 650.135C587.437 650.576 588.118 651.177 588.577 651.937C589.036 652.697 589.266 653.554 589.266 654.508C589.266 655.604 588.975 656.54 588.391 657.318C587.808 658.095 587.11 658.617 586.297 658.882V658.988C587.34 659.306 588.153 659.889 588.736 660.737C589.319 661.568 589.611 662.637 589.611 663.945C589.611 664.987 589.372 665.915 588.895 666.728C588.418 667.541 587.711 668.186 586.775 668.663C585.838 669.122 584.716 669.352 583.408 669.352C581.5 669.352 579.927 668.866 578.69 667.894C577.471 666.905 576.817 665.491 576.728 663.653H579.644C579.715 664.59 580.077 665.358 580.731 665.959C581.385 666.542 582.268 666.834 583.382 666.834C584.46 666.834 585.29 666.542 585.873 665.959C586.456 665.358 586.748 664.59 586.748 663.653C586.748 662.416 586.35 661.541 585.555 661.029C584.778 660.499 583.576 660.234 581.95 660.234H581.261V657.742H581.977C583.408 657.724 584.495 657.486 585.237 657.026C585.997 656.567 586.377 655.842 586.377 654.853C586.377 654.005 586.103 653.333 585.555 652.838C585.007 652.326 584.23 652.07 583.223 652.07C582.233 652.07 581.464 652.326 580.916 652.838C580.369 653.333 580.042 653.952 579.936 654.694H576.993ZM592.785 659.332C592.785 656.275 593.297 653.89 594.322 652.176C595.365 650.444 597.15 649.578 599.677 649.578C602.204 649.578 603.98 650.444 605.005 652.176C606.047 653.89 606.569 656.275 606.569 659.332C606.569 662.425 606.047 664.846 605.005 666.595C603.98 668.327 602.204 669.193 599.677 669.193C597.15 669.193 595.365 668.327 594.322 666.595C593.297 664.846 592.785 662.425 592.785 659.332ZM603.6 659.332C603.6 657.901 603.503 656.691 603.308 655.701C603.132 654.711 602.76 653.907 602.195 653.289C601.63 652.653 600.79 652.335 599.677 652.335C598.564 652.335 597.724 652.653 597.159 653.289C596.593 653.907 596.213 654.711 596.019 655.701C595.842 656.691 595.754 657.901 595.754 659.332C595.754 660.817 595.842 662.063 596.019 663.07C596.196 664.077 596.567 664.89 597.132 665.509C597.715 666.127 598.564 666.436 599.677 666.436C600.79 666.436 601.63 666.127 602.195 665.509C602.778 664.89 603.158 664.077 603.335 663.07C603.512 662.063 603.6 660.817 603.6 659.332Z"
      ></path>
      <rect
        style="fill: var(--color-illustrationInterface020)"
        x="635.504"
        y="653.781"
        width="300.252"
        height="13.2535"
        rx="6.62676"
      ></rect>
      <rect
        style="fill: var(--color-illustrationInterface020)"
        x="635.504"
        y="653.781"
        width="149.791"
        height="13.2535"
        rx="6.62676"
      ></rect>
      <path
        style="fill: var(--color-illustrationInterface020)"
        d="M799.712 660.037C799.712 667.357 793.778 673.291 786.458 673.291C779.138 673.291 773.204 667.357 773.204 660.037C773.204 652.717 779.138 646.783 786.458 646.783C793.778 646.783 799.712 652.717 799.712 660.037Z"
      ></path>
      <path
        style="fill: var(--color-illustrationHighlight010)"
        fill-rule="evenodd"
        clip-rule="evenodd"
        d="M786.458 671.634C792.863 671.634 798.055 666.442 798.055 660.037C798.055 653.632 792.863 648.44 786.458 648.44C780.053 648.44 774.861 653.632 774.861 660.037C774.861 666.442 780.053 671.634 786.458 671.634ZM786.458 673.291C793.778 673.291 799.712 667.357 799.712 660.037C799.712 652.717 793.778 646.783 786.458 646.783C779.138 646.783 773.204 652.717 773.204 660.037C773.204 667.357 779.138 673.291 786.458 673.291Z"
      ></path>
      <path
        style="fill: var(--color-illustrationAnatomySubtle)"
        d="M963.476 659.332C963.476 656.275 963.989 653.89 965.014 652.176C966.056 650.444 967.841 649.578 970.368 649.578C972.895 649.578 974.671 650.444 975.696 652.176C976.738 653.89 977.26 656.275 977.26 659.332C977.26 662.425 976.738 664.846 975.696 666.595C974.671 668.327 972.895 669.193 970.368 669.193C967.841 669.193 966.056 668.327 965.014 666.595C963.989 664.846 963.476 662.425 963.476 659.332ZM974.291 659.332C974.291 657.901 974.194 656.691 973.999 655.701C973.823 654.711 973.452 653.907 972.886 653.289C972.321 652.653 971.481 652.335 970.368 652.335C969.255 652.335 968.415 652.653 967.85 653.289C967.284 653.907 966.904 654.711 966.71 655.701C966.533 656.691 966.445 657.901 966.445 659.332C966.445 660.817 966.533 662.063 966.71 663.07C966.887 664.077 967.258 664.89 967.823 665.509C968.406 666.127 969.255 666.436 970.368 666.436C971.481 666.436 972.321 666.127 972.886 665.509C973.469 664.89 973.849 664.077 974.026 663.07C974.203 662.063 974.291 660.817 974.291 659.332ZM980.06 652.679V649.922H985.573V669.246H982.525V652.679H980.06ZM991.341 669.432C990.793 669.432 990.334 669.246 989.963 668.875C989.592 668.504 989.406 668.044 989.406 667.497C989.406 666.949 989.592 666.489 989.963 666.118C990.334 665.747 990.793 665.562 991.341 665.562C991.871 665.562 992.322 665.747 992.693 666.118C993.064 666.489 993.25 666.949 993.25 667.497C993.25 668.044 993.064 668.504 992.693 668.875C992.322 669.246 991.871 669.432 991.341 669.432ZM991.341 658.299C990.793 658.299 990.334 658.113 989.963 657.742C989.592 657.371 989.406 656.911 989.406 656.364C989.406 655.816 989.592 655.356 989.963 654.985C990.334 654.614 990.793 654.429 991.341 654.429C991.871 654.429 992.322 654.614 992.693 654.985C993.064 655.356 993.25 655.816 993.25 656.364C993.25 656.911 993.064 657.371 992.693 657.742C992.322 658.113 991.871 658.299 991.341 658.299ZM996.222 659.332C996.222 656.275 996.734 653.89 997.759 652.176C998.802 650.444 1000.59 649.578 1003.11 649.578C1005.64 649.578 1007.42 650.444 1008.44 652.176C1009.48 653.89 1010.01 656.275 1010.01 659.332C1010.01 662.425 1009.48 664.846 1008.44 666.595C1007.42 668.327 1005.64 669.193 1003.11 669.193C1000.59 669.193 998.802 668.327 997.759 666.595C996.734 664.846 996.222 662.425 996.222 659.332ZM1007.04 659.332C1007.04 657.901 1006.94 656.691 1006.74 655.701C1006.57 654.711 1006.2 653.907 1005.63 653.289C1005.07 652.653 1004.23 652.335 1003.11 652.335C1002 652.335 1001.16 652.653 1000.6 653.289C1000.03 653.907 999.65 654.711 999.455 655.701C999.279 656.691 999.19 657.901 999.19 659.332C999.19 660.817 999.279 662.063 999.455 663.07C999.632 664.077 1000 664.89 1000.57 665.509C1001.15 666.127 1002 666.436 1003.11 666.436C1004.23 666.436 1005.07 666.127 1005.63 665.509C1006.21 664.89 1006.59 664.077 1006.77 663.07C1006.95 662.063 1007.04 660.817 1007.04 659.332ZM1013.2 659.332C1013.2 656.275 1013.72 653.89 1014.74 652.176C1015.78 650.444 1017.57 649.578 1020.09 649.578C1022.62 649.578 1024.4 650.444 1025.42 652.176C1026.47 653.89 1026.99 656.275 1026.99 659.332C1026.99 662.425 1026.47 664.846 1025.42 666.595C1024.4 668.327 1022.62 669.193 1020.09 669.193C1017.57 669.193 1015.78 668.327 1014.74 666.595C1013.72 664.846 1013.2 662.425 1013.2 659.332ZM1024.02 659.332C1024.02 657.901 1023.92 656.691 1023.73 655.701C1023.55 654.711 1023.18 653.907 1022.61 653.289C1022.05 652.653 1021.21 652.335 1020.09 652.335C1018.98 652.335 1018.14 652.653 1017.58 653.289C1017.01 653.907 1016.63 654.711 1016.44 655.701C1016.26 656.691 1016.17 657.901 1016.17 659.332C1016.17 660.817 1016.26 662.063 1016.44 663.07C1016.61 664.077 1016.98 664.89 1017.55 665.509C1018.13 666.127 1018.98 666.436 1020.09 666.436C1021.21 666.436 1022.05 666.127 1022.61 665.509C1023.2 664.89 1023.58 664.077 1023.75 663.07C1023.93 662.063 1024.02 660.817 1024.02 659.332Z"
      ></path>
      <path
        style="fill: var(--color-illustrationAnatomySubtle)"
        fill-rule="evenodd"
        clip-rule="evenodd"
        d="M1080.5 649.047V651.278C1078.89 651.477 1077.42 652.117 1076.2 653.067L1074.63 651.488C1076.26 650.151 1078.28 649.268 1080.5 649.047ZM1082.77 657.595L1079.4 655.065V665.005L1082.77 662.476L1086.03 660.035L1082.77 657.595ZM1074.64 654.624L1073.06 653.056C1071.72 654.691 1070.84 656.712 1070.62 658.932H1072.85C1073.05 657.319 1073.69 655.85 1074.64 654.624ZM1070.62 661.142H1072.85C1073.05 662.755 1073.69 664.223 1074.64 665.438L1073.06 667.018C1071.72 665.383 1070.84 663.362 1070.62 661.142ZM1074.63 668.584C1076.26 669.921 1078.29 670.804 1080.5 671.025V668.794C1078.89 668.596 1077.42 667.955 1076.2 667.005L1074.63 668.584ZM1082.77 671.026C1088.32 670.44 1092.65 665.735 1092.65 660.036C1092.65 654.337 1088.32 649.632 1082.77 649.047V651.278C1087.1 651.852 1090.44 655.563 1090.44 660.036C1090.44 664.509 1087.1 668.22 1082.77 668.795V671.026Z"
      ></path>
    </g>
    <g >
      <rect
        style="fill: var(--color-white)"
        x="443.25"
        y="349"
        width="77.0794"
        height="256.146"
        rx="19.8949"
      ></rect>
      <path
        style="fill: var(--color-white)"
        d="M481.79 615.094L471.842 605.146H491.737L481.79 615.094Z"
      ></path>
    </g>
    <rect
      style="fill: var(--color-illustrationPalette010)"
      x="476.667"
      y="569.828"
      width="189"
      height="10"
      rx="5"
      transform="rotate(-90 476.667 569.828)"
    ></rect>
    <rect
      style="fill: var(--color-illustrationPalette040)"
      x="476.667"
      y="569.828"
      width="95"
      height="10"
      rx="5"
      transform="rotate(-90 476.667 569.828)"
    ></rect>
    <path
      style="fill: var(--color-illustrationPalette040)"
      d="M501 475.5C501 486.27 492.27 495 481.5 495C470.73 495 462 486.27 462 475.5C462 464.73 470.73 456 481.5 456C492.27 456 501 464.73 501 475.5Z"
    ></path>
    <path
      style="fill: var(--color-white)"
      fill-rule="evenodd"
      clip-rule="evenodd"
      d="M481.5 492.513C490.896 492.513 498.513 484.896 498.513 475.5C498.513 466.104 490.896 458.487 481.5 458.487C472.104 458.487 464.487 466.104 464.487 475.5C464.487 484.896 472.104 492.513 481.5 492.513ZM481.5 495C492.27 495 501 486.27 501 475.5C501 464.73 492.27 456 481.5 456C470.73 456 462 464.73 462 475.5C462 486.27 470.73 495 481.5 495Z"
    ></path>
  </g>
  <defs>
    <filter
      id="nk-770"
      x="336.194"
      y="613.649"
      width="811.681"
      height="106.029"
      filterUnits="userSpaceOnUse"
      color-interpolation-filters="sRGB"
    >
      <feFlood flood-opacity="0" result="BackgroundImageFix"></feFlood>
      <feColorMatrix
        in="SourceAlpha"
        type="matrix"
        values="0 0 0 0 0 0 0 0 0 0 0 0 0 0 0 0 0 0 127 0"
        result="hardAlpha"
      ></feColorMatrix>
      <feOffset dy="6.62676"></feOffset>
      <feGaussianBlur stdDeviation="6.62676"></feGaussianBlur>
      <feColorMatrix
        type="matrix"
        values="0 0 0 0 0.0392157 0 0 0 0 0.0392157 0 0 0 0 0.0392157 0 0 0 0.08 0"
      ></feColorMatrix>
      <feBlend
        mode="normal"
        in2="BackgroundImageFix"
        result="effect1_dropShadow_2541_81198"
      ></feBlend>
      <feBlend
        mode="normal"
        in="SourceGraphic"
        in2="effect1_dropShadow_2541_81198"
        result="shape"
      ></feBlend>
    </filter>
    <filter
      id="nk-771"
      x="362.421"
      y="319.158"
      width="238.738"
      height="425.253"
      filterUnits="userSpaceOnUse"
      color-interpolation-filters="sRGB"
    >
      <feFlood flood-opacity="0" result="BackgroundImageFix"></feFlood>
      <feColorMatrix
        in="SourceAlpha"
        type="matrix"
        values="0 0 0 0 0 0 0 0 0 0 0 0 0 0 0 0 0 0 127 0"
        result="hardAlpha"
      ></feColorMatrix>
      <feOffset dy="49.7371"></feOffset>
      <feGaussianBlur stdDeviation="39.7897"></feGaussianBlur>
      <feColorMatrix
        type="matrix"
        values="0 0 0 0 0.0392157 0 0 0 0 0.0392157 0 0 0 0 0.0392157 0 0 0 0.08 0"
      ></feColorMatrix>
      <feBlend
        mode="normal"
        in2="BackgroundImageFix"
        result="effect1_dropShadow_2541_81198"
      ></feBlend>
      <feBlend
        mode="normal"
        in="SourceGraphic"
        in2="effect1_dropShadow_2541_81198"
        result="shape"
      ></feBlend>
    </filter>
    <clipPath id="nk-769">
      <rect style="fill: var(--color-white)" width="1490" height="838"></rect>
    </clipPath>
  </defs>
</svg>
