<svg id="components-audio-player-usage-dont-01" style="width: 100%; height: 100%" width="1490" height="838" viewBox="0 0 1490 838" fill="none" xmlns="http://www.w3.org/2000/svg" class="css-0"><g clip-path="url(#nk-1178)"><path style="fill:var(--color-illustrationBackground010)" d="M0 0H1490V838H0V0Z"></path><g clip-path="url(#nk-1179)"><path style="fill:var(--color-interfaceBackground)" d="M412.26 -513.741C412.26 -533.552 428.32 -549.611 448.131 -549.611H1041.61C1061.42 -549.611 1077.48 -533.552 1077.48 -513.741V658.773C1077.48 678.583 1061.42 694.643 1041.61 694.643H448.131C428.32 694.643 412.26 678.583 412.26 658.773V-513.741Z"></path><path style="fill:var(--color-illustrationInterface020)" d="M462.155 298.37C462.155 302.801 465.747 306.393 470.177 306.393H735.163C739.593 306.393 743.185 302.801 743.185 298.37C743.185 293.94 739.593 290.348 735.163 290.348H470.177C465.747 290.348 462.155 293.94 462.155 298.37Z"></path><path style="fill:var(--color-illustrationInterface020)" d="M462.155 254.414C462.155 259.337 466.146 263.328 471.069 263.328H1010.36C1015.29 263.328 1019.28 259.337 1019.28 254.414C1019.28 249.491 1015.29 245.501 1010.36 245.501H471.069C466.146 245.501 462.155 249.491 462.155 254.414Z"></path><path style="fill:var(--color-illustrationInterface020)" d="M462.155 210.45C462.155 214.881 465.747 218.473 470.177 218.473H1011.26C1015.69 218.473 1019.28 214.881 1019.28 210.45C1019.28 206.02 1015.69 202.428 1011.26 202.428H470.177C465.747 202.428 462.155 206.02 462.155 210.45Z"></path><path style="fill:var(--color-illustrationInterface020)" d="M462.155 166.489C462.155 171.412 466.146 175.402 471.069 175.402H1010.36C1015.29 175.402 1019.28 171.412 1019.28 166.489C1019.28 161.566 1015.29 157.575 1010.36 157.575H471.069C466.146 157.575 462.155 161.566 462.155 166.489Z"></path><path style="fill:var(--color-illustrationInterface020)" d="M462.155 121.639C462.155 126.562 466.146 130.553 471.069 130.553H1010.36C1015.29 130.553 1019.28 126.562 1019.28 121.639C1019.28 116.716 1015.29 112.725 1010.36 112.725H471.069C466.146 112.725 462.155 116.716 462.155 121.639Z"></path><path style="fill:var(--color-illustrationInterface020)" d="M462.155 75.8264C462.155 80.7494 466.146 84.7402 471.069 84.7402H1010.36C1015.29 84.7402 1019.28 80.7494 1019.28 75.8264C1019.28 70.9035 1015.29 66.9126 1010.36 66.9126H471.069C466.146 66.9126 462.155 70.9035 462.155 75.8264Z"></path><path style="fill:var(--color-illustrationInterface020)" d="M462.155 31.8644C462.155 36.295 465.747 39.8867 470.177 39.8867H1011.26C1015.69 39.8867 1019.28 36.295 1019.28 31.8644C1019.28 27.4337 1015.69 23.842 1011.26 23.842H470.177C465.747 23.842 462.155 27.4337 462.155 31.8644Z"></path><rect style="fill:var(--color-illustrationHighlight010)" x="206.59" y="559.518" width="2799.88" height="146.986" rx="22.6012"></rect><g filter="url(#nk-1184)"><mask id="nk-1176" mask-type="alpha" maskUnits="userSpaceOnUse" x="452" y="621" width="22" height="22"><path d="M459.72 626.277V638.563L469.373 632.42L459.72 626.277Z" fill="#0A0A0A"></path></mask><g mask="url(#nk-1176)"><rect style="fill:var(--color-illustrationAnatomySubtle)" x="452.7" y="621.889" width="21.0603" height="21.0603"></rect></g></g><g filter="url(#nk-1185)"><g clip-path="url(#nk-1180)"><rect style="fill:var(--color-white)" x="495.091" y="98" width="140.209" height="451.299" rx="35.0523"></rect></g><path style="fill:var(--color-white)" d="M565.196 566.825L547.669 549.299H582.722L565.196 566.825Z"></path></g><g clip-path="url(#nk-1181)"><rect style="fill:var(--color-illustrationPalette010)" x="556.409" y="487.131" width="333" height="18" transform="rotate(-90 556.409 487.131)"></rect></g><path style="fill:var(--color-illustrationPalette040)" d="M528.194 317.207C528.194 297.848 543.887 282.154 563.246 282.154V282.154C582.605 282.154 598.298 297.848 598.298 317.207V317.207C598.298 336.565 582.605 352.259 563.246 352.259V352.259C543.887 352.259 528.194 336.565 528.194 317.207V317.207Z"></path><path style="fill:var(--color-white)" d="M563.246 347.877C546.307 347.877 532.575 334.146 532.575 317.207H523.812C523.812 338.985 541.467 356.64 563.246 356.64V347.877ZM593.917 317.207C593.917 334.146 580.185 347.877 563.246 347.877V356.64C585.025 356.64 602.68 338.985 602.68 317.207H593.917ZM563.246 286.536C580.185 286.536 593.917 300.268 593.917 317.207H602.68C602.68 295.428 585.025 277.773 563.246 277.773V286.536ZM563.246 277.773C541.467 277.773 523.812 295.428 523.812 317.207H532.575C532.575 300.268 546.307 286.536 563.246 286.536V277.773Z"></path></g><path style="fill:var(--color-illustrationInterface030)" fill-rule="evenodd" clip-rule="evenodd" d="M445.522 -583H1044.23C1080.97 -583 1110.75 -553.217 1110.75 -516.478V662.211C1110.75 698.95 1080.97 728.733 1044.23 728.733H445.522C408.783 728.733 379 698.95 379 662.211V-516.478C379 -553.217 408.783 -583 445.522 -583ZM445.522 -549.739C427.153 -549.739 412.261 -534.847 412.261 -516.478V662.211C412.261 680.58 427.153 695.472 445.522 695.472H1044.23C1062.6 695.472 1077.49 680.58 1077.49 662.211V-516.478C1077.49 -534.847 1062.6 -549.739 1044.23 -549.739H445.522Z"></path><g opacity="0.4"><g clip-path="url(#nk-1182)"><rect style="fill:var(--color-illustrationAnatomyBorder010)" x="660.26" y="628.246" width="378.323" height="9.13828"></rect></g></g><g clip-path="url(#nk-1183)"><rect style="fill:var(--color-illustrationAnatomySubtle)" x="660.26" y="628.246" width="189.041" height="9.13828"></rect></g><path style="fill:var(--color-illustrationAnatomySubtle)" d="M840.354 632.816C840.354 627.769 844.445 623.678 849.492 623.678V623.678C854.539 623.678 858.63 627.769 858.63 632.816V632.816C858.63 637.863 854.539 641.954 849.492 641.954V641.954C844.445 641.954 840.354 637.863 840.354 632.816V632.816Z"></path><path d="M849.492 640.812C845.076 640.812 841.496 637.232 841.496 632.816H839.211C839.211 638.494 843.814 643.097 849.492 643.097V640.812ZM857.488 632.816C857.488 637.232 853.908 640.812 849.492 640.812V643.097C855.17 643.097 859.773 638.494 859.773 632.816H857.488ZM849.492 624.82C853.908 624.82 857.488 628.4 857.488 632.816H859.773C859.773 627.138 855.17 622.535 849.492 622.535V624.82ZM849.492 622.535C843.814 622.535 839.211 627.138 839.211 632.816H841.496C841.496 628.4 845.076 624.82 849.492 624.82V622.535Z" fill="#577FFB"></path><path style="fill:var(--color-illustrationInterface010)" d="M524.123 627.341C524.123 604.674 542.498 586.299 565.165 586.299C587.833 586.299 606.208 604.674 606.208 627.341C606.208 650.009 587.833 668.384 565.165 668.384C542.498 668.384 524.123 650.009 524.123 627.341Z"></path><mask id="nk-1177" mask-type="alpha" maskUnits="userSpaceOnUse" x="544" y="606" width="42" height="42"><path fill-rule="evenodd" clip-rule="evenodd" d="M553.194 632.471V622.211H560.035L568.585 613.66V641.022L560.035 632.471H553.194ZM572.005 620.449C574.536 621.714 576.281 624.314 576.281 627.341C576.281 630.367 574.536 632.967 572.005 634.215V620.449Z" fill="#0A0A0A"></path></mask><g mask="url(#nk-1177)"><rect style="fill:var(--color-illustrationHighlight010)" x="544.644" y="606.82" width="41.0427" height="41.0427"></rect></g></g><defs><filter id="nk-1184" x="410.579" y="595.565" width="644.895" height="84.2419" filterUnits="userSpaceOnUse" color-interpolation-filters="sRGB"><feFlood flood-opacity="0" result="BackgroundImageFix"></feFlood><feColorMatrix in="SourceAlpha" type="matrix" values="0 0 0 0 0 0 0 0 0 0 0 0 0 0 0 0 0 0 127 0" result="hardAlpha"></feColorMatrix><feOffset dy="5.26508"></feOffset><feGaussianBlur stdDeviation="5.26508"></feGaussianBlur><feColorMatrix type="matrix" values="0 0 0 0 0.0392157 0 0 0 0 0.0392157 0 0 0 0 0.0392157 0 0 0 0.08 0"></feColorMatrix><feBlend mode="normal" in2="BackgroundImageFix" result="effect1_dropShadow_2011_73249"></feBlend><feBlend mode="normal" in="SourceGraphic" in2="effect1_dropShadow_2011_73249" result="shape"></feBlend></filter><filter id="nk-1185" x="354.882" y="45.4215" width="420.628" height="749.243" filterUnits="userSpaceOnUse" color-interpolation-filters="sRGB"><feFlood flood-opacity="0" result="BackgroundImageFix"></feFlood><feColorMatrix in="SourceAlpha" type="matrix" values="0 0 0 0 0 0 0 0 0 0 0 0 0 0 0 0 0 0 127 0" result="hardAlpha"></feColorMatrix><feOffset dy="87.6308"></feOffset><feGaussianBlur stdDeviation="70.1046"></feGaussianBlur><feColorMatrix type="matrix" values="0 0 0 0 0.0392157 0 0 0 0 0.0392157 0 0 0 0 0.0392157 0 0 0 0.08 0"></feColorMatrix><feBlend mode="normal" in2="BackgroundImageFix" result="effect1_dropShadow_2011_73249"></feBlend><feBlend mode="normal" in="SourceGraphic" in2="effect1_dropShadow_2011_73249" result="shape"></feBlend></filter><clipPath id="nk-1178"><rect style="fill:var(--color-white)" width="1490" height="838"></rect></clipPath><clipPath id="nk-1179"><rect style="fill:var(--color-white)" x="412.26" y="-549.611" width="665.221" height="1245.21" rx="33.2611"></rect></clipPath><clipPath id="nk-1180"><rect style="fill:var(--color-white)" x="495.091" y="98" width="140.209" height="451.299" rx="35.0523"></rect></clipPath><clipPath id="nk-1181"><path style="fill:var(--color-white)" d="M565.172 487.131C560.332 487.131 556.409 483.207 556.409 478.368V162.897C556.409 158.057 560.332 154.134 565.172 154.134C570.012 154.134 573.935 158.057 573.935 162.897V478.368C573.935 483.207 570.012 487.131 565.172 487.131Z"></path></clipPath><clipPath id="nk-1182"><path style="fill:var(--color-white)" d="M660.26 632.815C660.26 630.292 662.305 628.246 664.829 628.246H1034.01C1036.54 628.246 1038.58 630.292 1038.58 632.815V632.815C1038.58 635.339 1036.54 637.384 1034.01 637.384H664.829C662.305 637.384 660.26 635.339 660.26 632.815V632.815Z"></path></clipPath><clipPath id="nk-1183"><path style="fill:var(--color-white)" d="M660.26 632.815C660.26 630.292 662.305 628.246 664.829 628.246H844.731C847.255 628.246 849.3 630.292 849.3 632.815V632.815C849.3 635.339 847.255 637.384 844.731 637.384H664.829C662.305 637.384 660.26 635.339 660.26 632.815V632.815Z"></path></clipPath></defs></svg>