<svg id="nksvg" style="width: 100%; height: 100%" width="1490" height="838" viewBox="0 0 1490 838" fill="none" xmlns="http://www.w3.org/2000/svg" class="css-0">
  <rect style="fill: var(--color-illustrationBackground010)" width="1490" height="838"></rect>
  <path style="fill: var(--color-illustrationInterface020)" d="M1033.19 283H490.812C485.945 283 482 286.945 482 291.812V585.188C482 590.055 485.945 594 490.812 594H739.842H1033.19C1038.05 594 1042 590.055 1042 585.188V291.812C1042 286.945 1038.05 283 1033.19 283Z"></path>
  <path style="fill: var(--color-illustrationAnatomyBorder020)" fill-rule="evenodd" clip-rule="evenodd" d="M490.812 281.659H1033.19C1038.8 281.659 1043.34 286.205 1043.34 291.812V585.189C1043.34 590.796 1038.8 595.341 1033.19 595.341H490.812C485.204 595.341 480.659 590.796 480.659 585.189V291.812C480.659 286.205 485.204 281.659 490.812 281.659ZM490.812 283H1033.19C1038.05 283 1042 286.945 1042 291.812V585.189C1042 590.055 1038.05 594 1033.19 594H490.812C485.945 594 482 590.055 482 585.189V291.812C482 286.945 485.945 283 490.812 283Z"></path>
  <path style="fill: var(--color-illustrationHighlight010)" d="M994 325L983 336L985.585 338.585L994 330.188L1002.42 338.585L1005 336L994 325Z"></path>
  <path style="fill: var(--color-illustrationAnatomyBorder020)" fill-rule="evenodd" clip-rule="evenodd" d="M514 380.031V380.969H1009V380.031H514Z"></path>
  <path style="fill: var(--color-illustrationHighlight010)" d="M652.088 319.362V341H647.748V331.793H638.479V341H634.139V319.362H638.479V328.259H647.748V319.362H652.088Z"></path>
  <path style="fill: var(--color-illustrationHighlight010)" d="M672.325 332.041C672.325 332.661 672.283 333.219 672.201 333.715H659.646C659.749 334.955 660.183 335.926 660.948 336.629C661.712 337.331 662.653 337.683 663.769 337.683C665.381 337.683 666.528 336.99 667.21 335.606H671.891C671.395 337.259 670.444 338.623 669.039 339.698C667.633 340.752 665.908 341.279 663.862 341.279C662.208 341.279 660.72 340.917 659.398 340.194C658.096 339.45 657.073 338.406 656.329 337.063C655.605 335.719 655.244 334.169 655.244 332.413C655.244 330.635 655.605 329.075 656.329 327.732C657.052 326.388 658.065 325.355 659.367 324.632C660.669 323.908 662.167 323.547 663.862 323.547C665.494 323.547 666.951 323.898 668.233 324.601C669.535 325.303 670.537 326.306 671.24 327.608C671.963 328.889 672.325 330.367 672.325 332.041ZM667.83 330.801C667.809 329.685 667.406 328.796 666.621 328.135C665.835 327.453 664.874 327.112 663.738 327.112C662.663 327.112 661.754 327.442 661.01 328.104C660.286 328.744 659.842 329.643 659.677 330.801H667.83Z"></path>
  <path style="fill: var(--color-illustrationHighlight010)" d="M674.376 332.351C674.376 330.615 674.717 329.075 675.399 327.732C676.102 326.388 677.042 325.355 678.22 324.632C679.419 323.908 680.752 323.547 682.219 323.547C683.501 323.547 684.617 323.805 685.567 324.322C686.539 324.838 687.314 325.489 687.892 326.275V323.826H692.263V341H687.892V338.489C687.334 339.295 686.559 339.966 685.567 340.504C684.596 341.02 683.47 341.279 682.188 341.279C680.742 341.279 679.419 340.907 678.22 340.163C677.042 339.419 676.102 338.375 675.399 337.032C674.717 335.668 674.376 334.107 674.376 332.351ZM687.892 332.413C687.892 331.359 687.686 330.46 687.272 329.716C686.859 328.951 686.301 328.372 685.598 327.98C684.896 327.566 684.141 327.36 683.335 327.36C682.529 327.36 681.785 327.556 681.103 327.949C680.421 328.341 679.863 328.92 679.429 329.685C679.016 330.429 678.809 331.317 678.809 332.351C678.809 333.384 679.016 334.293 679.429 335.079C679.863 335.843 680.421 336.432 681.103 336.846C681.806 337.259 682.55 337.466 683.335 337.466C684.141 337.466 684.896 337.269 685.598 336.877C686.301 336.463 686.859 335.885 687.272 335.141C687.686 334.376 687.892 333.467 687.892 332.413Z"></path>
  <path style="fill: var(--color-illustrationHighlight010)" d="M695.386 332.351C695.386 330.615 695.727 329.075 696.409 327.732C697.112 326.388 698.063 325.355 699.261 324.632C700.46 323.908 701.793 323.547 703.26 323.547C704.376 323.547 705.441 323.795 706.453 324.291C707.466 324.766 708.272 325.407 708.871 326.213V318.06H713.273V341H708.871V338.458C708.334 339.305 707.58 339.987 706.608 340.504C705.637 341.02 704.511 341.279 703.229 341.279C701.783 341.279 700.46 340.907 699.261 340.163C698.063 339.419 697.112 338.375 696.409 337.032C695.727 335.668 695.386 334.107 695.386 332.351ZM708.902 332.413C708.902 331.359 708.696 330.46 708.282 329.716C707.869 328.951 707.311 328.372 706.608 327.98C705.906 327.566 705.151 327.36 704.345 327.36C703.539 327.36 702.795 327.556 702.113 327.949C701.431 328.341 700.873 328.92 700.439 329.685C700.026 330.429 699.819 331.317 699.819 332.351C699.819 333.384 700.026 334.293 700.439 335.079C700.873 335.843 701.431 336.432 702.113 336.846C702.816 337.259 703.56 337.466 704.345 337.466C705.151 337.466 705.906 337.269 706.608 336.877C707.311 336.463 707.869 335.885 708.282 335.141C708.696 334.376 708.902 333.467 708.902 332.413Z"></path>
  <path style="fill: var(--color-illustrationHighlight010)" d="M733.477 332.041C733.477 332.661 733.436 333.219 733.353 333.715H720.798C720.901 334.955 721.335 335.926 722.1 336.629C722.865 337.331 723.805 337.683 724.921 337.683C726.533 337.683 727.68 336.99 728.362 335.606H733.043C732.547 337.259 731.596 338.623 730.191 339.698C728.786 340.752 727.06 341.279 725.014 341.279C723.361 341.279 721.873 340.917 720.55 340.194C719.248 339.45 718.225 338.406 717.481 337.063C716.758 335.719 716.396 334.169 716.396 332.413C716.396 330.635 716.758 329.075 717.481 327.732C718.204 326.388 719.217 325.355 720.519 324.632C721.821 323.908 723.319 323.547 725.014 323.547C726.647 323.547 728.104 323.898 729.385 324.601C730.687 325.303 731.689 326.306 732.392 327.608C733.115 328.889 733.477 330.367 733.477 332.041ZM728.982 330.801C728.961 329.685 728.558 328.796 727.773 328.135C726.988 327.453 726.027 327.112 724.89 327.112C723.815 327.112 722.906 327.442 722.162 328.104C721.439 328.744 720.994 329.643 720.829 330.801H728.982Z"></path>
  <path style="fill: var(--color-illustrationHighlight010)" d="M740.985 326.492C741.543 325.582 742.266 324.869 743.155 324.353C744.064 323.836 745.097 323.578 746.255 323.578V328.135H745.108C743.744 328.135 742.71 328.455 742.008 329.096C741.326 329.736 740.985 330.852 740.985 332.444V341H736.645V323.826H740.985V326.492Z"></path>
  <path style="fill: var(--color-illustrationHighlight010)" d="M761.618 327.391V335.699C761.618 336.277 761.752 336.701 762.021 336.97C762.31 337.218 762.785 337.342 763.447 337.342H765.462V341H762.734C759.076 341 757.247 339.222 757.247 335.668V327.391H755.201V323.826H757.247V319.579H761.618V323.826H765.462V327.391H761.618Z"></path>
  <path style="fill: var(--color-illustrationHighlight010)" d="M784.548 332.041C784.548 332.661 784.507 333.219 784.424 333.715H771.869C771.973 334.955 772.407 335.926 773.171 336.629C773.936 337.331 774.876 337.683 775.992 337.683C777.604 337.683 778.751 336.99 779.433 335.606H784.114C783.618 337.259 782.668 338.623 781.262 339.698C779.857 340.752 778.131 341.279 776.085 341.279C774.432 341.279 772.944 340.917 771.621 340.194C770.319 339.45 769.296 338.406 768.552 337.063C767.829 335.719 767.467 334.169 767.467 332.413C767.467 330.635 767.829 329.075 768.552 327.732C769.276 326.388 770.288 325.355 771.59 324.632C772.892 323.908 774.391 323.547 776.085 323.547C777.718 323.547 779.175 323.898 780.456 324.601C781.758 325.303 782.761 326.306 783.463 327.608C784.187 328.889 784.548 330.367 784.548 332.041ZM780.053 330.801C780.033 329.685 779.63 328.796 778.844 328.135C778.059 327.453 777.098 327.112 775.961 327.112C774.887 327.112 773.977 327.442 773.233 328.104C772.51 328.744 772.066 329.643 771.9 330.801H780.053Z"></path>
  <path style="fill: var(--color-illustrationHighlight010)" d="M797.202 341L793.668 335.668L790.537 341H785.887L791.498 332.382L785.825 323.826H790.723L794.226 329.127L797.388 323.826H802.038L796.396 332.382L802.1 341H797.202Z"></path>
  <path style="fill: var(--color-illustrationHighlight010)" d="M809.51 327.391V335.699C809.51 336.277 809.645 336.701 809.913 336.97C810.203 337.218 810.678 337.342 811.339 337.342H813.354V341H810.626C806.968 341 805.139 339.222 805.139 335.668V327.391H803.093V323.826H805.139V319.579H809.51V323.826H813.354V327.391H809.51Z"></path>
  <path style="fill: var(--color-illustrationHighlight010)" d="M918.35 321.575V339H916.075V331.1H907.2V339H904.925V321.575H907.2V329.225H916.075V321.575H918.35Z"></path>
  <path style="fill: var(--color-illustrationHighlight010)" d="M923.41 323.075C922.976 323.075 922.61 322.925 922.31 322.625C922.01 322.325 921.86 321.958 921.86 321.525C921.86 321.091 922.01 320.725 922.31 320.425C922.61 320.125 922.976 319.975 923.41 319.975C923.826 319.975 924.176 320.125 924.46 320.425C924.76 320.725 924.91 321.091 924.91 321.525C924.91 321.958 924.76 322.325 924.46 322.625C924.176 322.925 923.826 323.075 923.41 323.075ZM924.51 325.3V339H922.235V325.3H924.51Z"></path>
  <path style="fill: var(--color-illustrationHighlight010)" d="M927.537 332.1C927.537 330.7 927.82 329.475 928.387 328.425C928.954 327.358 929.729 326.533 930.712 325.95C931.712 325.366 932.829 325.075 934.062 325.075C935.129 325.075 936.12 325.325 937.037 325.825C937.954 326.308 938.654 326.95 939.137 327.75V320.5H941.437V339H939.137V336.425C938.687 337.241 938.02 337.916 937.137 338.45C936.254 338.966 935.22 339.225 934.037 339.225C932.82 339.225 931.712 338.925 930.712 338.325C929.729 337.725 928.954 336.883 928.387 335.8C927.82 334.716 927.537 333.483 927.537 332.1ZM939.137 332.125C939.137 331.091 938.929 330.191 938.512 329.425C938.095 328.658 937.529 328.075 936.812 327.675C936.112 327.258 935.337 327.05 934.487 327.05C933.637 327.05 932.862 327.25 932.162 327.65C931.462 328.05 930.904 328.633 930.487 329.4C930.07 330.166 929.862 331.066 929.862 332.1C929.862 333.15 930.07 334.066 930.487 334.85C930.904 335.616 931.462 336.208 932.162 336.625C932.862 337.025 933.637 337.225 934.487 337.225C935.337 337.225 936.112 337.025 936.812 336.625C937.529 336.208 938.095 335.616 938.512 334.85C938.929 334.066 939.137 333.158 939.137 332.125Z"></path>
  <path style="fill: var(--color-illustrationHighlight010)" d="M957.781 331.625C957.781 332.058 957.756 332.516 957.706 333H946.756C946.84 334.35 947.298 335.408 948.131 336.175C948.981 336.925 950.006 337.3 951.206 337.3C952.19 337.3 953.006 337.075 953.656 336.625C954.323 336.158 954.79 335.541 955.056 334.775H957.506C957.14 336.091 956.406 337.166 955.306 338C954.206 338.816 952.84 339.225 951.206 339.225C949.906 339.225 948.74 338.933 947.706 338.35C946.69 337.766 945.89 336.941 945.306 335.875C944.723 334.791 944.431 333.541 944.431 332.125C944.431 330.708 944.715 329.466 945.281 328.4C945.848 327.333 946.64 326.516 947.656 325.95C948.69 325.366 949.873 325.075 951.206 325.075C952.506 325.075 953.656 325.358 954.656 325.925C955.656 326.491 956.423 327.275 956.956 328.275C957.506 329.258 957.781 330.375 957.781 331.625ZM955.431 331.15C955.431 330.283 955.24 329.541 954.856 328.925C954.473 328.291 953.948 327.816 953.281 327.5C952.631 327.166 951.906 327 951.106 327C949.956 327 948.973 327.366 948.156 328.1C947.356 328.833 946.898 329.85 946.781 331.15H955.431Z"></path>
  <path style="fill: var(--color-illustrationHighlight010)" fill-rule="evenodd" clip-rule="evenodd" d="M514 316C514 311.582 517.582 308 522 308H603C607.418 308 611 311.582 611 316V345C611 349.418 607.418 353 603 353H522C517.582 353 514 349.418 514 345V316ZM577 341.5V320.5C577 318.575 575.425 317 573.5 317H552.5C550.575 317 549 318.575 549 320.5V341.5C549 343.425 550.575 345 552.5 345H573.5C575.425 345 577 343.425 577 341.5ZM561.303 339.243L557.75 334.5L552.5 341.5H573.5L566.5 332.75L561.303 339.243Z"></path>
  <path style="fill: var(--color-illustrationPalette020)" d="M514 421C514 417.686 516.686 415 520 415H1003C1006.31 415 1009 417.686 1009 421V421C1009 424.314 1006.31 427 1003 427H520C516.686 427 514 424.314 514 421V421Z"></path>
  <path style="fill: var(--color-illustrationPalette020)" d="M514 521C514 517.686 516.686 515 520 515H1003C1006.31 515 1009 517.686 1009 521V521C1009 524.314 1006.31 527 1003 527H520C516.686 527 514 524.314 514 521V521Z"></path>
  <path style="fill: var(--color-illustrationPalette020)" d="M514 451C514 447.686 516.686 445 520 445H939C942.314 445 945 447.686 945 451V451C945 454.314 942.314 457 939 457H520C516.686 457 514 454.314 514 451V451Z"></path>
  <path style="fill: var(--color-illustrationPalette020)" d="M514 551C514 547.686 516.686 545 520 545H721C724.314 545 727 547.686 727 551C727 554.314 724.314 557 721 557H520C516.686 557 514 554.314 514 551Z"></path>
  <circle cx="367" cy="329.176" r="22" fill="#577FFB"></circle>
  <path style="fill: var(--color-white)" d="M362.958 324.614V321.116H369.052V337.176H365.136V324.614H362.958Z"></path>
  <path d="M473 286L451 286C439.954 286 431 294.954 431 306L431 356C431 367.046 439.954 376 451 376L473 376" stroke="#577FFB" stroke-width="2" stroke-linecap="round"></path>
  <path d="M431 331H383" stroke="#577FFB" stroke-width="2" stroke-linecap="round"></path>
  <path fill-rule="evenodd" clip-rule="evenodd" d="M451 385L473 385C473.552 385 474 385.448 474 386C474 386.552 473.552 387 473 387L451 387C440.721 387 432 397.752 432 411.556L432 567.444C432 581.248 440.721 592 451 592H473C473.552 592 474 592.448 474 593C474 593.552 473.552 594 473 594H451C439.188 594 430 581.869 430 567.444L430 490.5H376.5C375.948 490.5 375.5 490.052 375.5 489.5C375.5 488.948 375.948 488.5 376.5 488.5H430L430 411.556C430 397.131 439.188 385 451 385Z" fill="#577FFB"></path>
  <circle cx="367" cy="488.266" r="22" fill="#577FFB"></circle>
  <path style="fill: var(--color-white)" d="M361.074 493.252C361.572 492.856 361.8 492.672 361.756 492.702C363.193 491.514 364.322 490.538 365.144 489.776C365.98 489.013 366.684 488.214 367.256 487.378C367.828 486.542 368.114 485.728 368.114 484.936C368.114 484.334 367.974 483.865 367.696 483.528C367.417 483.19 366.999 483.022 366.442 483.022C365.884 483.022 365.444 483.234 365.122 483.66C364.814 484.07 364.66 484.657 364.66 485.42H361.03C361.059 484.173 361.323 483.132 361.822 482.296C362.335 481.46 363.002 480.844 363.824 480.448C364.66 480.052 365.584 479.854 366.596 479.854C368.341 479.854 369.654 480.301 370.534 481.196C371.428 482.09 371.876 483.256 371.876 484.694C371.876 486.263 371.34 487.722 370.27 489.072C369.199 490.406 367.835 491.712 366.178 492.988H372.118V496.046H361.074V493.252Z"></path>
  <path style="fill: var(--color-illustrationPalette040)" d="M970.191 239.516H967.884V301.808H968.997C966.786 301.828 965 303.503 965 305.567C965 307.643 966.807 309.326 969.037 309.326C971.267 309.326 973.074 307.643 973.074 305.567C973.074 303.503 971.288 301.828 969.077 301.808H970.191V239.516Z"></path>
  <circle cx="968" cy="220" r="22" fill="#577FFB"></circle>
  <path style="fill: var(--color-white)" d="M961.462 216.472C961.521 214.903 962.034 213.693 963.002 212.842C963.97 211.991 965.283 211.566 966.94 211.566C968.04 211.566 968.979 211.757 969.756 212.138C970.548 212.519 971.142 213.04 971.538 213.7C971.949 214.36 972.154 215.101 972.154 215.922C972.154 216.89 971.912 217.682 971.428 218.298C970.944 218.899 970.379 219.31 969.734 219.53V219.618C970.57 219.897 971.23 220.359 971.714 221.004C972.198 221.649 972.44 222.478 972.44 223.49C972.44 224.399 972.227 225.206 971.802 225.91C971.391 226.599 970.783 227.142 969.976 227.538C969.184 227.934 968.238 228.132 967.138 228.132C965.378 228.132 963.97 227.699 962.914 226.834C961.873 225.969 961.323 224.663 961.264 222.918H964.916C964.931 223.563 965.114 224.077 965.466 224.458C965.818 224.825 966.331 225.008 967.006 225.008C967.578 225.008 968.018 224.847 968.326 224.524C968.649 224.187 968.81 223.747 968.81 223.204C968.81 222.5 968.583 221.994 968.128 221.686C967.688 221.363 966.977 221.202 965.994 221.202H965.29V218.144H965.994C966.742 218.144 967.343 218.019 967.798 217.77C968.267 217.506 968.502 217.044 968.502 216.384C968.502 215.856 968.355 215.445 968.062 215.152C967.769 214.859 967.365 214.712 966.852 214.712C966.295 214.712 965.877 214.881 965.598 215.218C965.334 215.555 965.18 215.973 965.136 216.472H961.462Z"></path>
</svg>
