<svg
  id="nksvg"
  style="width: 100%; height: 100%"
  width="1490"
  height="838"
  viewBox="0 0 1490 838"
  fill="none"
  xmlns="http://www.w3.org/2000/svg"
  class="css-0"
>
  <rect
    style="fill: var(--color-illustrationBackground020)"
    width="1490"
    height="838"
  ></rect>
  <circle
    style="fill: var(--color-illustrationPalette050)"
    cx="745"
    cy="419"
    r="119.5"
    stroke="#446BE4"
  ></circle>
  <path
    style="fill: var(--color-illustrationBorder020)"
    fill-rule="evenodd"
    clip-rule="evenodd"
    d="M459 303C456.791 303 455 301.209 455 299C455 297.528 455.023 296.062 455.069 294.601C455.139 292.393 456.985 290.66 459.194 290.729C461.402 290.799 463.135 292.646 463.065 294.854C463.022 296.23 463 297.612 463 299C463 301.209 461.209 303 459 303ZM460.669 277.492C458.5 277.072 457.082 274.974 457.502 272.805C458.062 269.917 458.712 267.061 459.449 264.241C460.008 262.104 462.194 260.824 464.331 261.383C466.468 261.942 467.748 264.128 467.189 266.265C466.495 268.92 465.883 271.607 465.356 274.326C464.936 276.495 462.838 277.912 460.669 277.492ZM468.732 248.806C466.712 247.911 465.801 245.548 466.696 243.528C467.886 240.844 469.16 238.206 470.513 235.617C471.537 233.659 473.953 232.902 475.911 233.925C477.869 234.948 478.626 237.365 477.603 239.323C476.329 241.761 475.13 244.244 474.01 246.77C473.115 248.79 470.752 249.701 468.732 248.806ZM483.009 222.652C481.24 221.329 480.878 218.823 482.2 217.053C483.955 214.706 485.783 212.417 487.681 210.19C489.113 208.509 491.638 208.307 493.319 209.74C495.001 211.173 495.202 213.697 493.77 215.379C491.982 217.477 490.26 219.633 488.608 221.843C487.285 223.613 484.779 223.975 483.009 222.652ZM502.74 200.319C501.307 198.638 501.509 196.113 503.19 194.681C505.417 192.783 507.706 190.955 510.053 189.2C511.823 187.878 514.329 188.24 515.652 190.009C516.975 191.779 516.613 194.285 514.843 195.608C512.633 197.26 510.477 198.982 508.379 200.77C506.698 202.202 504.173 202.001 502.74 200.319ZM526.925 182.911C525.902 180.953 526.659 178.537 528.617 177.513C531.206 176.16 533.844 174.886 536.528 173.696C538.548 172.801 540.911 173.712 541.806 175.732C542.701 177.752 541.79 180.115 539.77 181.01C537.244 182.13 534.761 183.329 532.323 184.603C530.365 185.626 527.948 184.869 526.925 182.911ZM554.383 171.331C553.824 169.194 555.104 167.008 557.241 166.449C560.061 165.712 562.917 165.062 565.805 164.502C567.974 164.082 570.072 165.5 570.492 167.669C570.912 169.838 569.495 171.936 567.326 172.356C564.607 172.883 561.92 173.495 559.265 174.189C557.128 174.748 554.942 173.468 554.383 171.331ZM583.73 166.193C583.66 163.985 585.393 162.139 587.601 162.069C589.062 162.023 590.528 162 592 162L595.905 162C598.114 162 599.905 163.791 599.905 166C599.905 168.209 598.114 170 595.905 170L592 170C590.613 170 589.23 170.022 587.854 170.065C585.646 170.135 583.799 168.402 583.73 166.193ZM760 166C760 168.209 758.209 170 756 170L752.095 170C749.886 170 748.095 168.209 748.095 166C748.095 163.791 749.886 162 752.095 162L756 162C758.209 162 760 163.791 760 166ZM736.571 166C736.571 168.209 734.781 170 732.571 170L724.762 170C722.553 170 720.762 168.209 720.762 166C720.762 163.791 722.553 162 724.762 162L732.571 162C734.781 162 736.571 163.791 736.571 166ZM709.238 166C709.238 168.209 707.447 170 705.238 170L697.429 170C695.219 170 693.429 168.209 693.429 166C693.429 163.791 695.219 162 697.429 162L705.238 162C707.447 162 709.238 163.791 709.238 166ZM681.905 166C681.905 168.209 680.114 170 677.905 170L670.095 170C667.886 170 666.095 168.209 666.095 166C666.095 163.791 667.886 162 670.095 162L677.905 162C680.114 162 681.905 163.791 681.905 166ZM654.571 166C654.571 168.209 652.781 170 650.571 170L642.762 170C640.553 170 638.762 168.209 638.762 166C638.762 163.791 640.553 162 642.762 162L650.571 162C652.781 162 654.571 163.791 654.571 166ZM627.238 166C627.238 168.209 625.447 170 623.238 170L615.429 170C613.219 170 611.429 168.209 611.429 166C611.429 163.791 613.219 162 615.429 162L623.238 162C625.447 162 627.238 163.791 627.238 166Z"
  ></path>
  <path
    style="fill: var(--color-illustrationBorder020)"
    fill-rule="evenodd"
    clip-rule="evenodd"
    d="M762.728 142.172C764.29 140.61 766.823 140.61 768.385 142.172L787.527 161.314C789.87 163.657 789.87 167.456 787.527 169.799L768.385 188.942C766.823 190.504 764.29 190.504 762.728 188.942C761.166 187.38 761.166 184.847 762.728 183.285L780.456 165.557L762.728 147.829C761.166 146.266 761.166 143.734 762.728 142.172Z"
  ></path>
  <path
    style="fill: var(--color-illustrationBorder020)"
    fill-rule="evenodd"
    clip-rule="evenodd"
    d="M1032.5 535.5C1034.71 535.5 1036.5 537.291 1036.5 539.5C1036.5 540.972 1036.48 542.438 1036.43 543.899C1036.36 546.107 1034.51 547.84 1032.31 547.771C1030.1 547.701 1028.37 545.854 1028.43 543.646C1028.48 542.27 1028.5 540.887 1028.5 539.5C1028.5 537.291 1030.29 535.5 1032.5 535.5ZM1030.83 561.008C1033 561.428 1034.42 563.526 1034 565.695C1033.44 568.583 1032.79 571.439 1032.05 574.259C1031.49 576.396 1029.31 577.676 1027.17 577.117C1025.03 576.558 1023.75 574.372 1024.31 572.235C1025.01 569.58 1025.62 566.893 1026.14 564.174C1026.56 562.005 1028.66 560.588 1030.83 561.008ZM1022.77 589.694C1024.79 590.589 1025.7 592.952 1024.8 594.972C1023.61 597.656 1022.34 600.294 1020.99 602.883C1019.96 604.841 1017.55 605.598 1015.59 604.575C1013.63 603.552 1012.87 601.135 1013.9 599.177C1015.17 596.739 1016.37 594.256 1017.49 591.73C1018.39 589.71 1020.75 588.799 1022.77 589.694ZM1008.49 615.848C1010.26 617.171 1010.62 619.677 1009.3 621.447C1007.55 623.794 1005.72 626.082 1003.82 628.31C1002.39 629.991 999.862 630.193 998.181 628.76C996.499 627.327 996.298 624.802 997.73 623.121C999.518 621.023 1001.24 618.867 1002.89 616.657C1004.21 614.887 1006.72 614.525 1008.49 615.848ZM988.76 638.181C990.193 639.862 989.991 642.387 988.31 643.819C986.083 645.717 983.794 647.545 981.447 649.3C979.677 650.622 977.171 650.26 975.848 648.491C974.525 646.721 974.887 644.215 976.657 642.892C978.867 641.24 981.023 639.518 983.121 637.73C984.803 636.298 987.327 636.499 988.76 638.181ZM964.575 655.589C965.598 657.547 964.841 659.963 962.883 660.987C960.294 662.34 957.656 663.614 954.972 664.804C952.952 665.699 950.589 664.788 949.694 662.768C948.799 660.748 949.71 658.385 951.73 657.49C954.256 656.37 956.739 655.171 959.177 653.897C961.135 652.874 963.552 653.631 964.575 655.589ZM937.117 667.169C937.676 669.306 936.396 671.492 934.259 672.051C931.439 672.788 928.583 673.438 925.695 673.998C923.527 674.418 921.428 673 921.008 670.831C920.588 668.662 922.005 666.564 924.174 666.144C926.893 665.617 929.58 665.005 932.235 664.311C934.372 663.752 936.558 665.032 937.117 667.169ZM907.771 672.307C907.84 674.515 906.107 676.361 903.899 676.431C902.438 676.477 900.972 676.5 899.5 676.5H895.595C893.386 676.5 891.595 674.709 891.595 672.5C891.595 670.291 893.386 668.5 895.595 668.5H899.5C900.887 668.5 902.27 668.478 903.646 668.435C905.854 668.365 907.701 670.098 907.771 672.307ZM731.5 672.5C731.5 670.291 733.291 668.5 735.5 668.5H739.405C741.614 668.5 743.405 670.291 743.405 672.5C743.405 674.709 741.614 676.5 739.405 676.5H735.5C733.291 676.5 731.5 674.709 731.5 672.5ZM754.929 672.5C754.929 670.291 756.719 668.5 758.929 668.5H766.738C768.947 668.5 770.738 670.291 770.738 672.5C770.738 674.709 768.947 676.5 766.738 676.5H758.929C756.719 676.5 754.929 674.709 754.929 672.5ZM782.262 672.5C782.262 670.291 784.053 668.5 786.262 668.5H794.071C796.281 668.5 798.071 670.291 798.071 672.5C798.071 674.709 796.281 676.5 794.071 676.5H786.262C784.053 676.5 782.262 674.709 782.262 672.5ZM809.595 672.5C809.595 670.291 811.386 668.5 813.595 668.5H821.405C823.614 668.5 825.405 670.291 825.405 672.5C825.405 674.709 823.614 676.5 821.405 676.5H813.595C811.386 676.5 809.595 674.709 809.595 672.5ZM836.929 672.5C836.929 670.291 838.719 668.5 840.929 668.5H848.738C850.947 668.5 852.738 670.291 852.738 672.5C852.738 674.709 850.947 676.5 848.738 676.5H840.929C838.719 676.5 836.929 674.709 836.929 672.5ZM864.262 672.5C864.262 670.291 866.053 668.5 868.262 668.5H876.071C878.281 668.5 880.071 670.291 880.071 672.5C880.071 674.709 878.281 676.5 876.071 676.5H868.262C866.053 676.5 864.262 674.709 864.262 672.5Z"
  ></path>
  <path
    style="fill: var(--color-illustrationBorder020)"
    fill-rule="evenodd"
    clip-rule="evenodd"
    d="M727.385 695.942C725.823 697.504 723.29 697.504 721.728 695.942L702.586 676.799C700.243 674.456 700.243 670.657 702.586 668.314L721.728 649.172C723.29 647.61 725.823 647.61 727.385 649.172C728.947 650.734 728.947 653.266 727.385 654.829L709.657 672.557L727.385 690.285C728.947 691.847 728.947 694.379 727.385 695.942Z"
  ></path>
  <circle
    style="fill: var(--color-illustrationPalette060)"
    cx="459"
    cy="419"
    r="120"
  ></circle>
  <circle
    style="fill: var(--color-illustrationPalette030)"
    cx="1031"
    cy="419"
    r="119.5"
    stroke="#87A4FC"
  ></circle>
</svg>
