<svg id="nksvg" width="1490" height="838" viewBox="0 0 1490 838" fill="none" xmlns="http://www.w3.org/2000/svg">
<g clip-path="url(#clip0_2273_75394)">
<path d="M0 0H1490V838H0V0Z" fill="var(--color-illustrationBackground010)"/>
<path d="M385.194 183C388.918 183 392.171 183.721 394.955 185.164C397.773 186.572 399.936 188.618 401.445 191.302C402.988 193.951 403.76 197.054 403.76 200.609C403.76 204.165 402.988 207.251 401.445 209.867C399.936 212.483 397.773 214.496 394.955 215.904C392.171 217.28 388.918 217.967 385.194 217.967H373.773V183H385.194ZM385.194 213.288C389.286 213.288 392.423 212.181 394.603 209.968C396.783 207.754 397.873 204.634 397.873 200.609C397.873 196.551 396.783 193.381 394.603 191.1C392.423 188.82 389.286 187.679 385.194 187.679H379.509V213.288H385.194ZM434.852 203.427C434.852 204.467 434.785 205.406 434.651 206.244H413.469C413.637 208.458 414.459 210.236 415.935 211.578C417.41 212.919 419.222 213.59 421.368 213.59C424.454 213.59 426.634 212.299 427.909 209.716H434.097C433.259 212.265 431.733 214.362 429.519 216.005C427.339 217.615 424.622 218.42 421.368 218.42C418.718 218.42 416.337 217.833 414.224 216.659C412.144 215.452 410.501 213.775 409.293 211.628C408.119 209.448 407.532 206.932 407.532 204.081C407.532 201.23 408.103 198.731 409.243 196.584C410.417 194.404 412.044 192.727 414.123 191.553C416.236 190.379 418.651 189.792 421.368 189.792C423.985 189.792 426.316 190.362 428.362 191.503C430.408 192.643 432.001 194.253 433.141 196.333C434.282 198.379 434.852 200.744 434.852 203.427ZM428.865 201.616C428.831 199.503 428.077 197.809 426.601 196.534C425.125 195.26 423.297 194.622 421.117 194.622C419.138 194.622 417.444 195.26 416.035 196.534C414.626 197.775 413.788 199.469 413.52 201.616H428.865ZM446.232 180.736V217.967H440.496V180.736H446.232ZM456.681 186.572C455.641 186.572 454.769 186.22 454.064 185.516C453.36 184.811 453.008 183.939 453.008 182.899C453.008 181.86 453.36 180.988 454.064 180.283C454.769 179.579 455.641 179.227 456.681 179.227C457.687 179.227 458.542 179.579 459.247 180.283C459.951 180.988 460.303 181.86 460.303 182.899C460.303 183.939 459.951 184.811 459.247 185.516C458.542 186.22 457.687 186.572 456.681 186.572ZM459.498 190.245V217.967H453.762V190.245H459.498ZM477.745 212.835L485.594 190.245H491.682L481.116 217.967H474.273L463.758 190.245H469.896L477.745 212.835ZM521.425 203.427C521.425 204.467 521.358 205.406 521.224 206.244H500.042C500.21 208.458 501.032 210.236 502.507 211.578C503.983 212.919 505.794 213.59 507.941 213.59C511.027 213.59 513.207 212.299 514.482 209.716H520.67C519.832 212.265 518.306 214.362 516.092 216.005C513.912 217.615 511.195 218.42 507.941 218.42C505.291 218.42 502.91 217.833 500.797 216.659C498.717 215.452 497.074 213.775 495.866 211.628C494.692 209.448 494.105 206.932 494.105 204.081C494.105 201.23 494.675 198.731 495.816 196.584C496.99 194.404 498.617 192.727 500.696 191.553C502.809 190.379 505.224 189.792 507.941 189.792C510.557 189.792 512.889 190.362 514.935 191.503C516.981 192.643 518.574 194.253 519.714 196.333C520.855 198.379 521.425 200.744 521.425 203.427ZM515.438 201.616C515.404 199.503 514.649 197.809 513.174 196.534C511.698 195.26 509.87 194.622 507.69 194.622C505.711 194.622 504.017 195.26 502.608 196.534C501.199 197.775 500.361 199.469 500.092 201.616H515.438ZM532.805 194.27C533.644 192.861 534.75 191.771 536.126 191C537.534 190.195 539.195 189.792 541.107 189.792V195.729H539.647C537.4 195.729 535.69 196.299 534.516 197.44C533.375 198.58 532.805 200.559 532.805 203.377V217.967H527.069V190.245H532.805V194.27ZM571.334 190.245L554.328 230.998H548.391L554.026 217.514L543.108 190.245H549.498L557.297 211.376L565.397 190.245H571.334ZM591.65 186.572C590.61 186.572 589.738 186.22 589.034 185.516C588.329 184.811 587.977 183.939 587.977 182.899C587.977 181.86 588.329 180.988 589.034 180.283C589.738 179.579 590.61 179.227 591.65 179.227C592.656 179.227 593.511 179.579 594.216 180.283C594.92 180.988 595.272 181.86 595.272 182.899C595.272 183.939 594.92 184.811 594.216 185.516C593.511 186.22 592.656 186.572 591.65 186.572ZM594.467 190.245V217.967H588.732V190.245H594.467ZM615.984 189.792C618.165 189.792 620.11 190.245 621.821 191.151C623.565 192.056 624.923 193.398 625.896 195.176C626.869 196.953 627.355 199.1 627.355 201.616V217.967H621.67V202.471C621.67 199.989 621.049 198.094 619.808 196.786C618.567 195.444 616.873 194.773 614.727 194.773C612.58 194.773 610.869 195.444 609.595 196.786C608.354 198.094 607.733 199.989 607.733 202.471V217.967H601.998V190.245H607.733V193.415C608.672 192.274 609.863 191.386 611.305 190.748C612.781 190.111 614.341 189.792 615.984 189.792ZM644.734 218.42C642.554 218.42 640.591 218.034 638.847 217.263C637.137 216.458 635.778 215.385 634.772 214.043C633.766 212.668 633.229 211.142 633.162 209.464H639.099C639.199 210.638 639.753 211.628 640.759 212.433C641.799 213.204 643.09 213.59 644.633 213.59C646.243 213.59 647.484 213.288 648.356 212.684C649.262 212.047 649.715 211.242 649.715 210.269C649.715 209.23 649.212 208.458 648.205 207.955C647.233 207.452 645.673 206.899 643.526 206.295C641.447 205.725 639.753 205.171 638.445 204.634C637.137 204.098 635.996 203.276 635.023 202.169C634.084 201.062 633.615 199.603 633.615 197.792C633.615 196.316 634.051 194.974 634.923 193.767C635.795 192.526 637.036 191.553 638.646 190.849C640.289 190.144 642.168 189.792 644.281 189.792C647.434 189.792 649.966 190.597 651.878 192.207C653.824 193.784 654.863 195.947 654.998 198.698H649.262C649.161 197.457 648.658 196.467 647.753 195.729C646.847 194.991 645.623 194.622 644.08 194.622C642.57 194.622 641.413 194.907 640.608 195.478C639.803 196.048 639.401 196.802 639.401 197.742C639.401 198.48 639.669 199.1 640.206 199.603C640.742 200.106 641.396 200.509 642.168 200.811C642.939 201.079 644.08 201.431 645.589 201.867C647.602 202.404 649.245 202.957 650.52 203.528C651.828 204.064 652.951 204.869 653.891 205.943C654.83 207.016 655.316 208.441 655.35 210.219C655.35 211.796 654.914 213.204 654.042 214.445C653.169 215.686 651.928 216.659 650.318 217.364C648.742 218.068 646.88 218.42 644.734 218.42ZM668.239 194.924V210.269C668.239 211.309 668.474 212.064 668.943 212.534C669.446 212.97 670.285 213.188 671.459 213.188H674.981V217.967H670.452C667.87 217.967 665.891 217.364 664.516 216.156C663.14 214.949 662.453 212.986 662.453 210.269V194.924H659.182V190.245H662.453V183.352H668.239V190.245H674.981V194.924H668.239ZM686.003 194.27C686.841 192.861 687.948 191.771 689.323 191C690.732 190.195 692.392 189.792 694.304 189.792V195.729H692.845C690.598 195.729 688.887 196.299 687.713 197.44C686.573 198.58 686.003 200.559 686.003 203.377V217.967H680.267V190.245H686.003V194.27ZM724.682 190.245V217.967H718.947V214.697C718.041 215.837 716.85 216.743 715.374 217.414C713.932 218.051 712.389 218.37 710.746 218.37C708.566 218.37 706.603 217.917 704.859 217.011C703.149 216.106 701.79 214.764 700.784 212.986C699.811 211.209 699.325 209.062 699.325 206.546V190.245H705.01V205.691C705.01 208.173 705.631 210.085 706.872 211.427C708.113 212.735 709.807 213.389 711.953 213.389C714.1 213.389 715.794 212.735 717.035 211.427C718.309 210.085 718.947 208.173 718.947 205.691V190.245H724.682ZM730.338 204.081C730.338 201.23 730.908 198.731 732.049 196.584C733.223 194.404 734.833 192.727 736.879 191.553C738.925 190.379 741.273 189.792 743.923 189.792C747.277 189.792 750.044 190.597 752.224 192.207C754.438 193.784 755.93 196.048 756.702 198.999H750.513C750.01 197.624 749.205 196.551 748.098 195.779C746.992 195.008 745.6 194.622 743.923 194.622C741.575 194.622 739.696 195.461 738.288 197.138C736.912 198.781 736.225 201.096 736.225 204.081C736.225 207.066 736.912 209.397 738.288 211.074C739.696 212.752 741.575 213.59 743.923 213.59C747.243 213.59 749.44 212.131 750.513 209.213H756.702C755.897 212.03 754.388 214.278 752.174 215.955C749.96 217.598 747.21 218.42 743.923 218.42C741.273 218.42 738.925 217.833 736.879 216.659C734.833 215.452 733.223 213.775 732.049 211.628C730.908 209.448 730.338 206.932 730.338 204.081ZM769.109 194.924V210.269C769.109 211.309 769.344 212.064 769.814 212.534C770.317 212.97 771.155 213.188 772.329 213.188H775.851V217.967H771.323C768.74 217.967 766.761 217.364 765.386 216.156C764.011 214.949 763.323 212.986 763.323 210.269V194.924H760.053V190.245H763.323V183.352H769.109V190.245H775.851V194.924H769.109ZM784.056 186.572C783.016 186.572 782.144 186.22 781.44 185.516C780.735 184.811 780.383 183.939 780.383 182.899C780.383 181.86 780.735 180.988 781.44 180.283C782.144 179.579 783.016 179.227 784.056 179.227C785.062 179.227 785.917 179.579 786.622 180.283C787.326 180.988 787.678 181.86 787.678 182.899C787.678 183.939 787.326 184.811 786.622 185.516C785.917 186.22 785.062 186.572 784.056 186.572ZM786.873 190.245V217.967H781.138V190.245H786.873ZM806.428 218.42C803.812 218.42 801.447 217.833 799.334 216.659C797.221 215.452 795.561 213.775 794.353 211.628C793.146 209.448 792.542 206.932 792.542 204.081C792.542 201.264 793.163 198.765 794.404 196.584C795.645 194.404 797.339 192.727 799.485 191.553C801.632 190.379 804.03 189.792 806.68 189.792C809.33 189.792 811.728 190.379 813.875 191.553C816.021 192.727 817.715 194.404 818.956 196.584C820.197 198.765 820.818 201.264 820.818 204.081C820.818 206.899 820.18 209.397 818.906 211.578C817.631 213.758 815.887 215.452 813.673 216.659C811.493 217.833 809.078 218.42 806.428 218.42ZM806.428 213.439C807.904 213.439 809.279 213.087 810.554 212.383C811.862 211.678 812.919 210.622 813.724 209.213C814.529 207.804 814.931 206.094 814.931 204.081C814.931 202.069 814.545 200.375 813.774 198.999C813.002 197.591 811.979 196.534 810.705 195.83C809.43 195.125 808.055 194.773 806.579 194.773C805.103 194.773 803.728 195.125 802.454 195.83C801.213 196.534 800.223 197.591 799.485 198.999C798.747 200.375 798.378 202.069 798.378 204.081C798.378 207.066 799.133 209.381 800.642 211.024C802.185 212.634 804.114 213.439 806.428 213.439ZM840.475 189.792C842.655 189.792 844.6 190.245 846.311 191.151C848.055 192.056 849.413 193.398 850.386 195.176C851.359 196.953 851.845 199.1 851.845 201.616V217.967H846.16V202.471C846.16 199.989 845.539 198.094 844.298 196.786C843.057 195.444 841.363 194.773 839.217 194.773C837.07 194.773 835.359 195.444 834.085 196.786C832.844 198.094 832.223 199.989 832.223 202.471V217.967H826.488V190.245H832.223V193.415C833.162 192.274 834.353 191.386 835.795 190.748C837.271 190.111 838.831 189.792 840.475 189.792ZM869.224 218.42C867.044 218.42 865.081 218.034 863.337 217.263C861.627 216.458 860.268 215.385 859.262 214.043C858.256 212.668 857.719 211.142 857.652 209.464H863.589C863.689 210.638 864.243 211.628 865.249 212.433C866.289 213.204 867.58 213.59 869.123 213.59C870.733 213.59 871.974 213.288 872.846 212.684C873.752 212.047 874.205 211.242 874.205 210.269C874.205 209.23 873.702 208.458 872.695 207.955C871.723 207.452 870.163 206.899 868.016 206.295C865.937 205.725 864.243 205.171 862.935 204.634C861.627 204.098 860.486 203.276 859.514 202.169C858.574 201.062 858.105 199.603 858.105 197.792C858.105 196.316 858.541 194.974 859.413 193.767C860.285 192.526 861.526 191.553 863.136 190.849C864.78 190.144 866.658 189.792 868.771 189.792C871.924 189.792 874.456 190.597 876.368 192.207C878.314 193.784 879.353 195.947 879.488 198.698H873.752C873.651 197.457 873.148 196.467 872.243 195.729C871.337 194.991 870.113 194.622 868.57 194.622C867.06 194.622 865.903 194.907 865.098 195.478C864.293 196.048 863.891 196.802 863.891 197.742C863.891 198.48 864.159 199.1 864.696 199.603C865.232 200.106 865.886 200.509 866.658 200.811C867.429 201.079 868.57 201.431 870.079 201.867C872.092 202.404 873.735 202.957 875.01 203.528C876.318 204.064 877.442 204.869 878.381 205.943C879.32 207.016 879.806 208.441 879.84 210.219C879.84 211.796 879.404 213.204 878.532 214.445C877.66 215.686 876.419 216.659 874.809 217.364C873.232 218.068 871.37 218.42 869.224 218.42Z" fill="var(--color-illustrationHighlight010)"/>
<g opacity="0.2">
<rect x="372.507" y="264.569" width="744.987" height="315.987" rx="21.5575" fill="var(--color-interfaceBackground)"/>
<path d="M422.39 359.066V318.816H435.615C438.759 318.816 441.346 319.333 443.378 320.368C445.41 321.403 446.905 322.803 447.863 324.566C448.86 326.329 449.358 328.323 449.358 330.546C449.358 332.731 448.879 334.705 447.92 336.468C446.962 338.232 445.467 339.65 443.435 340.723C441.404 341.758 438.797 342.276 435.615 342.276H427.22V359.066H422.39ZM427.22 338.193H435.5C438.72 338.193 441.001 337.523 442.343 336.181C443.723 334.801 444.413 332.923 444.413 330.546C444.413 328.131 443.723 326.253 442.343 324.911C441.001 323.531 438.72 322.841 435.5 322.841H427.22V338.193ZM455.401 359.066V317.666H460.231V359.066H455.401ZM477.635 359.756C475.259 359.756 473.285 359.353 471.713 358.548C470.141 357.743 468.972 356.67 468.205 355.328C467.439 353.987 467.055 352.53 467.055 350.958C467.055 348.045 468.167 345.803 470.39 344.231C472.614 342.659 475.642 341.873 479.475 341.873H487.18V341.528C487.18 339.037 486.529 337.158 485.225 335.893C483.922 334.59 482.178 333.938 479.993 333.938C478.115 333.938 476.485 334.418 475.105 335.376C473.764 336.296 472.92 337.657 472.575 339.458H467.63C467.822 337.388 468.512 335.644 469.7 334.226C470.927 332.808 472.441 331.734 474.243 331.006C476.045 330.239 477.961 329.856 479.993 329.856C483.98 329.856 486.97 330.929 488.963 333.076C490.995 335.184 492.01 338.002 492.01 341.528V359.066H487.698L487.41 353.948C486.605 355.558 485.417 356.938 483.845 358.088C482.312 359.2 480.242 359.756 477.635 359.756ZM478.383 355.673C480.223 355.673 481.795 355.194 483.098 354.236C484.44 353.278 485.455 352.032 486.145 350.498C486.835 348.965 487.18 347.355 487.18 345.668V345.611H479.878C477.041 345.611 475.029 346.109 473.84 347.106C472.69 348.064 472.115 349.272 472.115 350.728C472.115 352.223 472.652 353.431 473.725 354.351C474.837 355.233 476.39 355.673 478.383 355.673ZM512.366 359.756C509.645 359.756 507.191 359.143 505.006 357.916C502.86 356.651 501.154 354.907 499.889 352.683C498.662 350.422 498.049 347.796 498.049 344.806C498.049 341.816 498.662 339.209 499.889 336.986C501.154 334.724 502.86 332.98 505.006 331.753C507.191 330.488 509.645 329.856 512.366 329.856C515.74 329.856 518.576 330.738 520.876 332.501C523.215 334.264 524.69 336.622 525.304 339.573H520.359C519.975 337.81 519.036 336.449 517.541 335.491C516.046 334.494 514.302 333.996 512.309 333.996C510.699 333.996 509.185 334.398 507.766 335.203C506.348 336.008 505.198 337.216 504.316 338.826C503.435 340.436 502.994 342.429 502.994 344.806C502.994 347.183 503.435 349.176 504.316 350.786C505.198 352.396 506.348 353.623 507.766 354.466C509.185 355.271 510.699 355.673 512.309 355.673C514.302 355.673 516.046 355.194 517.541 354.236C519.036 353.239 519.975 351.84 520.359 350.038H525.304C524.729 352.913 523.272 355.252 520.934 357.053C518.595 358.855 515.74 359.756 512.366 359.756ZM544.872 359.756C542.15 359.756 539.735 359.143 537.627 357.916C535.518 356.651 533.851 354.907 532.624 352.683C531.436 350.46 530.842 347.834 530.842 344.806C530.842 341.816 531.436 339.209 532.624 336.986C533.813 334.724 535.461 332.98 537.569 331.753C539.716 330.488 542.188 329.856 544.987 329.856C547.747 329.856 550.123 330.488 552.117 331.753C554.148 332.98 555.701 334.609 556.774 336.641C557.848 338.673 558.384 340.858 558.384 343.196C558.384 343.618 558.365 344.039 558.327 344.461C558.327 344.883 558.327 345.362 558.327 345.898H535.614C535.729 348.083 536.228 349.904 537.109 351.361C538.029 352.779 539.16 353.853 540.502 354.581C541.882 355.309 543.338 355.673 544.872 355.673C546.865 355.673 548.533 355.213 549.874 354.293C551.216 353.373 552.193 352.128 552.807 350.556H557.579C556.813 353.201 555.337 355.405 553.152 357.168C551.005 358.893 548.245 359.756 544.872 359.756ZM544.872 333.938C542.572 333.938 540.521 334.648 538.719 336.066C536.956 337.446 535.94 339.478 535.672 342.161H553.612C553.497 339.593 552.615 337.58 550.967 336.123C549.318 334.667 547.287 333.938 544.872 333.938ZM564.786 359.066V317.666H569.616V335.433C570.574 333.67 571.935 332.309 573.699 331.351C575.462 330.354 577.379 329.856 579.449 329.856C582.745 329.856 585.39 330.891 587.384 332.961C589.377 334.993 590.374 338.136 590.374 342.391V359.066H585.601V342.908C585.601 336.967 583.205 333.996 578.414 333.996C575.922 333.996 573.833 334.897 572.146 336.698C570.459 338.462 569.616 340.992 569.616 344.288V359.066H564.786ZM610.686 359.756C608.003 359.756 605.588 359.143 603.441 357.916C601.295 356.689 599.589 354.964 598.324 352.741C597.097 350.479 596.484 347.834 596.484 344.806C596.484 341.778 597.116 339.152 598.381 336.928C599.646 334.667 601.352 332.923 603.499 331.696C605.684 330.469 608.118 329.856 610.801 329.856C613.485 329.856 615.9 330.469 618.046 331.696C620.193 332.923 621.88 334.667 623.106 336.928C624.371 339.152 625.004 341.778 625.004 344.806C625.004 347.834 624.371 350.479 623.106 352.741C621.841 354.964 620.116 356.689 617.931 357.916C615.785 359.143 613.37 359.756 610.686 359.756ZM610.686 355.616C612.335 355.616 613.868 355.213 615.286 354.408C616.705 353.603 617.855 352.396 618.736 350.786C619.618 349.176 620.059 347.183 620.059 344.806C620.059 342.429 619.618 340.436 618.736 338.826C617.893 337.216 616.762 336.008 615.344 335.203C613.926 334.398 612.411 333.996 610.801 333.996C609.153 333.996 607.62 334.398 606.201 335.203C604.783 336.008 603.633 337.216 602.751 338.826C601.87 340.436 601.429 342.429 601.429 344.806C601.429 347.183 601.87 349.176 602.751 350.786C603.633 352.396 604.764 353.603 606.144 354.408C607.562 355.213 609.076 355.616 610.686 355.616ZM631.72 359.066V317.666H636.55V359.066H631.72ZM657.404 359.756C654.567 359.756 652.075 359.104 649.929 357.801C647.82 356.498 646.172 354.715 644.984 352.453C643.834 350.192 643.259 347.623 643.259 344.748C643.259 341.873 643.853 339.324 645.041 337.101C646.23 334.839 647.878 333.076 649.986 331.811C652.095 330.508 654.586 329.856 657.461 329.856C659.8 329.856 661.87 330.335 663.671 331.293C665.473 332.252 666.872 333.593 667.869 335.318V317.666H672.699V359.066H668.329L667.869 354.351C666.949 355.731 665.626 356.977 663.901 358.088C662.176 359.2 660.01 359.756 657.404 359.756ZM657.921 355.558C659.838 355.558 661.525 355.118 662.981 354.236C664.476 353.316 665.626 352.051 666.431 350.441C667.275 348.831 667.696 346.953 667.696 344.806C667.696 342.659 667.275 340.781 666.431 339.171C665.626 337.561 664.476 336.315 662.981 335.433C661.525 334.513 659.838 334.053 657.921 334.053C656.043 334.053 654.356 334.513 652.861 335.433C651.405 336.315 650.255 337.561 649.411 339.171C648.606 340.781 648.204 342.659 648.204 344.806C648.204 346.953 648.606 348.831 649.411 350.441C650.255 352.051 651.405 353.316 652.861 354.236C654.356 355.118 656.043 355.558 657.921 355.558ZM693.395 359.756C690.673 359.756 688.258 359.143 686.15 357.916C684.041 356.651 682.374 354.907 681.147 352.683C679.959 350.46 679.365 347.834 679.365 344.806C679.365 341.816 679.959 339.209 681.147 336.986C682.336 334.724 683.984 332.98 686.092 331.753C688.239 330.488 690.711 329.856 693.51 329.856C696.27 329.856 698.646 330.488 700.64 331.753C702.671 332.98 704.224 334.609 705.297 336.641C706.371 338.673 706.907 340.858 706.907 343.196C706.907 343.618 706.888 344.039 706.85 344.461C706.85 344.883 706.85 345.362 706.85 345.898H684.137C684.252 348.083 684.751 349.904 685.632 351.361C686.552 352.779 687.683 353.853 689.025 354.581C690.405 355.309 691.861 355.673 693.395 355.673C695.388 355.673 697.056 355.213 698.397 354.293C699.739 353.373 700.716 352.128 701.33 350.556H706.102C705.336 353.201 703.86 355.405 701.675 357.168C699.528 358.893 696.768 359.756 693.395 359.756ZM693.395 333.938C691.095 333.938 689.044 334.648 687.242 336.066C685.479 337.446 684.463 339.478 684.195 342.161H702.135C702.02 339.593 701.138 337.58 699.49 336.123C697.841 334.667 695.81 333.938 693.395 333.938ZM713.309 359.066V330.546H717.679L718.082 336.008C718.963 334.13 720.305 332.635 722.107 331.523C723.908 330.412 726.132 329.856 728.777 329.856V334.916H727.454C725.767 334.916 724.215 335.223 722.797 335.836C721.378 336.411 720.247 337.408 719.404 338.826C718.561 340.244 718.139 342.199 718.139 344.691V359.066H713.309Z" fill="var(--color-illustrationBorder020)"/>
<rect x="372.507" y="264.569" width="744.987" height="315.987" rx="21.5575" stroke="#C0C7CC" stroke-width="5.01337"/>
</g>
<g opacity="0.2">
<path d="M371.26 684.337L382.096 654.937H385.834L396.628 684.337H392.89L390.202 676.777H377.686L374.956 684.337H371.26ZM378.736 673.921H389.152L383.944 659.389L378.736 673.921ZM408.769 684.841C406.277 684.841 404.205 684.211 402.553 682.951C400.901 681.691 399.935 679.983 399.655 677.827H403.267C403.491 678.919 404.065 679.871 404.989 680.683C405.941 681.467 407.215 681.859 408.811 681.859C410.295 681.859 411.387 681.551 412.087 680.935C412.787 680.291 413.137 679.535 413.137 678.667C413.137 677.407 412.675 676.567 411.751 676.147C410.855 675.727 409.581 675.349 407.929 675.013C406.809 674.789 405.689 674.467 404.569 674.047C403.449 673.627 402.511 673.039 401.755 672.283C400.999 671.499 400.621 670.477 400.621 669.217C400.621 667.397 401.293 665.913 402.637 664.765C404.009 663.589 405.857 663.001 408.181 663.001C410.393 663.001 412.199 663.561 413.599 664.681C415.027 665.773 415.853 667.341 416.077 669.385H412.591C412.451 668.321 411.989 667.495 411.205 666.907C410.449 666.291 409.427 665.983 408.139 665.983C406.879 665.983 405.899 666.249 405.199 666.781C404.527 667.313 404.191 668.013 404.191 668.881C404.191 669.721 404.625 670.379 405.493 670.855C406.389 671.331 407.593 671.737 409.105 672.073C410.393 672.353 411.611 672.703 412.759 673.123C413.935 673.515 414.887 674.117 415.615 674.929C416.371 675.713 416.749 676.861 416.749 678.373C416.777 680.249 416.063 681.803 414.607 683.035C413.179 684.239 411.233 684.841 408.769 684.841ZM429.769 684.841C427.277 684.841 425.205 684.211 423.553 682.951C421.901 681.691 420.935 679.983 420.655 677.827H424.267C424.491 678.919 425.065 679.871 425.989 680.683C426.941 681.467 428.215 681.859 429.811 681.859C431.295 681.859 432.387 681.551 433.087 680.935C433.787 680.291 434.137 679.535 434.137 678.667C434.137 677.407 433.675 676.567 432.751 676.147C431.855 675.727 430.581 675.349 428.929 675.013C427.809 674.789 426.689 674.467 425.569 674.047C424.449 673.627 423.511 673.039 422.755 672.283C421.999 671.499 421.621 670.477 421.621 669.217C421.621 667.397 422.293 665.913 423.637 664.765C425.009 663.589 426.857 663.001 429.181 663.001C431.393 663.001 433.199 663.561 434.599 664.681C436.027 665.773 436.853 667.341 437.077 669.385H433.591C433.451 668.321 432.989 667.495 432.205 666.907C431.449 666.291 430.427 665.983 429.139 665.983C427.879 665.983 426.899 666.249 426.199 666.781C425.527 667.313 425.191 668.013 425.191 668.881C425.191 669.721 425.625 670.379 426.493 670.855C427.389 671.331 428.593 671.737 430.105 672.073C431.393 672.353 432.611 672.703 433.759 673.123C434.935 673.515 435.887 674.117 436.615 674.929C437.371 675.713 437.749 676.861 437.749 678.373C437.777 680.249 437.063 681.803 435.607 683.035C434.179 684.239 432.233 684.841 429.769 684.841ZM444.931 658.885C444.231 658.885 443.643 658.661 443.167 658.213C442.719 657.737 442.495 657.149 442.495 656.449C442.495 655.777 442.719 655.217 443.167 654.769C443.643 654.321 444.231 654.097 444.931 654.097C445.603 654.097 446.177 654.321 446.653 654.769C447.129 655.217 447.367 655.777 447.367 656.449C447.367 657.149 447.129 657.737 446.653 658.213C446.177 658.661 445.603 658.885 444.931 658.885ZM443.167 684.337V663.505H446.695V684.337H443.167ZM460.817 684.841C458.325 684.841 456.253 684.211 454.601 682.951C452.949 681.691 451.983 679.983 451.703 677.827H455.315C455.539 678.919 456.113 679.871 457.037 680.683C457.989 681.467 459.263 681.859 460.859 681.859C462.343 681.859 463.435 681.551 464.135 680.935C464.835 680.291 465.185 679.535 465.185 678.667C465.185 677.407 464.723 676.567 463.799 676.147C462.903 675.727 461.629 675.349 459.977 675.013C458.857 674.789 457.737 674.467 456.617 674.047C455.497 673.627 454.559 673.039 453.803 672.283C453.047 671.499 452.669 670.477 452.669 669.217C452.669 667.397 453.341 665.913 454.685 664.765C456.057 663.589 457.905 663.001 460.229 663.001C462.441 663.001 464.247 663.561 465.647 664.681C467.075 665.773 467.901 667.341 468.125 669.385H464.639C464.499 668.321 464.037 667.495 463.253 666.907C462.497 666.291 461.475 665.983 460.187 665.983C458.927 665.983 457.947 666.249 457.247 666.781C456.575 667.313 456.239 668.013 456.239 668.881C456.239 669.721 456.673 670.379 457.541 670.855C458.437 671.331 459.641 671.737 461.153 672.073C462.441 672.353 463.659 672.703 464.807 673.123C465.983 673.515 466.935 674.117 467.663 674.929C468.419 675.713 468.797 676.861 468.797 678.373C468.825 680.249 468.111 681.803 466.655 683.035C465.227 684.239 463.281 684.841 460.817 684.841ZM481.126 684.337C479.222 684.337 477.724 683.875 476.632 682.951C475.54 682.027 474.994 680.361 474.994 677.953V666.487H471.382V663.505H474.994L475.456 658.507H478.522V663.505H484.654V666.487H478.522V677.953C478.522 679.269 478.788 680.165 479.32 680.641C479.852 681.089 480.79 681.313 482.134 681.313H484.318V684.337H481.126ZM491.278 658.885C490.578 658.885 489.99 658.661 489.514 658.213C489.066 657.737 488.842 657.149 488.842 656.449C488.842 655.777 489.066 655.217 489.514 654.769C489.99 654.321 490.578 654.097 491.278 654.097C491.95 654.097 492.524 654.321 493 654.769C493.476 655.217 493.714 655.777 493.714 656.449C493.714 657.149 493.476 657.737 493 658.213C492.524 658.661 491.95 658.885 491.278 658.885ZM489.514 684.337V663.505H493.042V684.337H489.514ZM505.191 684.337L497.295 663.505H500.991L507.249 680.935L513.549 663.505H517.161L509.265 684.337H505.191ZM529.387 684.841C527.399 684.841 525.635 684.393 524.095 683.497C522.555 682.573 521.337 681.299 520.441 679.675C519.573 678.051 519.139 676.133 519.139 673.921C519.139 671.737 519.573 669.833 520.441 668.209C521.309 666.557 522.513 665.283 524.053 664.387C525.621 663.463 527.427 663.001 529.471 663.001C531.487 663.001 533.223 663.463 534.679 664.387C536.163 665.283 537.297 666.473 538.081 667.957C538.865 669.441 539.257 671.037 539.257 672.745C539.257 673.053 539.243 673.361 539.215 673.669C539.215 673.977 539.215 674.327 539.215 674.719H522.625C522.709 676.315 523.073 677.645 523.717 678.709C524.389 679.745 525.215 680.529 526.195 681.061C527.203 681.593 528.267 681.859 529.387 681.859C530.843 681.859 532.061 681.523 533.041 680.851C534.021 680.179 534.735 679.269 535.183 678.121H538.669C538.109 680.053 537.031 681.663 535.435 682.951C533.867 684.211 531.851 684.841 529.387 684.841ZM529.387 665.983C527.707 665.983 526.209 666.501 524.893 667.537C523.605 668.545 522.863 670.029 522.667 671.989H535.771C535.687 670.113 535.043 668.643 533.839 667.579C532.635 666.515 531.151 665.983 529.387 665.983ZM563.28 684.337C561.376 684.337 559.878 683.875 558.786 682.951C557.694 682.027 557.148 680.361 557.148 677.953V666.487H553.536V663.505H557.148L557.61 658.507H560.676V663.505H566.808V666.487H560.676V677.953C560.676 679.269 560.942 680.165 561.474 680.641C562.006 681.089 562.944 681.313 564.288 681.313H566.472V684.337H563.28ZM580.082 684.841C578.094 684.841 576.33 684.393 574.79 683.497C573.25 682.573 572.032 681.299 571.136 679.675C570.268 678.051 569.834 676.133 569.834 673.921C569.834 671.737 570.268 669.833 571.136 668.209C572.004 666.557 573.208 665.283 574.748 664.387C576.316 663.463 578.122 663.001 580.166 663.001C582.182 663.001 583.918 663.463 585.374 664.387C586.858 665.283 587.992 666.473 588.776 667.957C589.56 669.441 589.952 671.037 589.952 672.745C589.952 673.053 589.938 673.361 589.91 673.669C589.91 673.977 589.91 674.327 589.91 674.719H573.32C573.404 676.315 573.768 677.645 574.412 678.709C575.084 679.745 575.91 680.529 576.89 681.061C577.898 681.593 578.962 681.859 580.082 681.859C581.538 681.859 582.756 681.523 583.736 680.851C584.716 680.179 585.43 679.269 585.878 678.121H589.364C588.804 680.053 587.726 681.663 586.13 682.951C584.562 684.211 582.546 684.841 580.082 684.841ZM580.082 665.983C578.402 665.983 576.904 666.501 575.588 667.537C574.3 668.545 573.558 670.029 573.362 671.989H586.466C586.382 670.113 585.738 668.643 584.534 667.579C583.33 666.515 581.846 665.983 580.082 665.983ZM591.544 684.337L598.768 673.921L591.544 663.505H595.366L601.204 672.115L607.084 663.505H610.864L603.64 673.921L610.864 684.337H607.084L601.204 675.727L595.366 684.337H591.544ZM622.794 684.337C620.89 684.337 619.392 683.875 618.3 682.951C617.208 682.027 616.662 680.361 616.662 677.953V666.487H613.05V663.505H616.662L617.124 658.507H620.19V663.505H626.322V666.487H620.19V677.953C620.19 679.269 620.456 680.165 620.988 680.641C621.52 681.089 622.458 681.313 623.802 681.313H625.986V684.337H622.794Z" fill="var(--color-illustrationHighlight010)"/>
</g>
<path fill-rule="evenodd" clip-rule="evenodd" d="M1083 567.662C1082.3 568.364 1082.35 569.552 1083.11 570.315C1083.87 571.078 1085.06 571.128 1085.76 570.427L1107.43 548.761C1108.13 548.059 1108.08 546.872 1107.32 546.108C1106.55 545.345 1105.37 545.295 1104.66 545.997L1083 567.662ZM1094.73 567.662C1094.02 568.364 1094.07 569.552 1094.84 570.315C1095.6 571.078 1096.79 571.128 1097.49 570.427L1107.43 560.488C1108.13 559.786 1108.08 558.599 1107.32 557.836C1106.55 557.072 1105.37 557.022 1104.66 557.724L1094.73 567.662Z" fill="var(--color-interactiveInput020)"/>
</g>
<defs>
<clipPath id="clip0_2273_75394">
<rect width="1490" height="838" fill="white"/>
</clipPath>
</defs>
</svg>
