<svg id="nksvg" width="1490" height="838" viewBox="0 0 1490 838" fill="none" xmlns="http://www.w3.org/2000/svg">
<g clip-path="url(#clip0_3064_108130)">
<path d="M0 0H1490V838H0V0Z" fill="var(--color-illustrationBackground020)"/>
<rect width="955.332" height="70.1316" rx="35.0658" transform="matrix(1 -0.000573496 0.00120477 0.999999 279.434 383.33)" fill="var(--color-illustrationInterface030)"/>
<rect width="548.613" height="70.1316" rx="35.0658" transform="matrix(1 -0.000485389 0.00142346 0.999999 255 383.344)" fill="var(--color-illustrationHighlight010)"/>
<path d="M772 418C772 344.546 831.546 285 905 285V285C978.454 285 1038 344.546 1038 418V418C1038 491.454 978.454 551 905 551V551C831.546 551 772 491.454 772 418V418Z" fill="var(--color-illustrationInterface020)"/>
<circle cx="904.816" cy="418.816" r="82.7476" transform="rotate(89.9524 904.816 418.816)" fill="var(--color-illustrationPalette100)"/>
<g >
<path fill-rule="evenodd" clip-rule="evenodd" d="M894.906 531.219V523.412C894.906 517.246 870.805 500.065 870.805 500.065C867.478 497.593 864.781 492.265 864.781 488.068V460.927C864.781 452.301 871.525 445.307 879.844 445.307V468.737H887.375V432.291C887.375 428.694 890.184 425.781 893.652 425.781C900.585 425.781 906.203 431.608 906.203 438.797V436.196C906.203 432.6 909.012 429.686 912.48 429.686C919.413 429.686 925.031 435.513 925.031 442.702V440.101C925.031 436.505 927.84 433.591 931.309 433.312C938.241 433.591 943.859 439.418 943.859 446.607V444.006C943.859 440.41 946.669 437.497 950.137 437.497C957.069 437.497 962.688 443.323 962.688 450.512V486.064C962.688 490.205 960.9 496.434 958.73 500.019C958.73 500.019 947.625 517.246 947.625 523.412V531.219H894.906Z" fill="var(--color-white)"/>
<path d="M890.388 535.738V531.219V523.68C890.344 523.578 890.244 523.364 890.033 523.025C889.578 522.292 888.837 521.344 887.801 520.208C885.74 517.948 882.904 515.371 879.948 512.885C877.015 510.419 874.068 508.13 871.847 506.452C870.739 505.614 869.816 504.933 869.174 504.463C868.852 504.228 868.601 504.047 868.432 503.924C868.347 503.863 868.283 503.817 868.241 503.787L868.195 503.754L868.184 503.746L868.182 503.745L868.182 503.745L868.182 503.745L868.146 503.719L868.11 503.692C865.739 501.93 863.825 499.359 862.509 496.745C861.193 494.13 860.262 491.05 860.262 488.068V460.927C860.262 449.961 868.876 440.788 879.844 440.788H882.856V432.291C882.856 426.355 887.535 421.262 893.652 421.262C898.757 421.262 903.267 423.534 906.367 427.098C908.087 425.886 910.182 425.168 912.48 425.168C917.567 425.168 922.063 427.423 925.162 430.965C926.819 429.753 928.808 428.98 930.946 428.808L931.218 428.786L931.49 428.797C936.497 428.999 940.96 431.323 944.04 434.897C945.757 433.692 947.846 432.978 950.137 432.978C959.718 432.978 967.206 440.984 967.206 450.512V486.064C967.206 488.69 966.657 491.719 965.869 494.487C965.079 497.26 963.952 500.118 962.596 502.359L962.563 502.414L890.388 535.738ZM890.388 535.738H894.906M890.388 535.738H894.906M962.528 502.467L962.528 502.467L962.528 502.467ZM962.528 502.467L962.528 502.468M962.528 502.467L962.528 502.468M894.906 535.738H947.625H952.144M894.906 535.738H952.144M952.144 535.738V531.219M952.144 535.738V531.219M952.144 531.219V523.412C952.144 522.865 952.49 521.376 953.527 518.904M952.144 531.219L953.527 518.904M953.527 518.904C954.483 516.624 955.79 514.045 957.142 511.571M953.527 518.904L957.142 511.571M957.142 511.571C958.487 509.111 959.838 506.828 960.855 505.156M957.142 511.571L960.855 505.156M960.855 505.156C961.363 504.321 961.785 503.643 962.079 503.176M960.855 505.156L962.079 503.176M962.079 503.176C962.225 502.942 962.34 502.762 962.416 502.642M962.079 503.176L962.416 502.642M962.416 502.642L962.503 502.507M962.416 502.642L962.503 502.507M962.503 502.507L962.523 502.475M962.503 502.507L962.523 502.475M962.523 502.475L962.528 502.468M962.523 502.475L962.528 502.468" stroke="#111111" stroke-width="9.0375"/>
</g>
</g>
<defs>
<filter id="filter0_d_3064_108130" x="833.15" y="401.682" width="161.169" height="168.699" filterUnits="userSpaceOnUse" color-interpolation-filters="sRGB">
<feFlood flood-opacity="0" result="BackgroundImageFix"/>
<feColorMatrix in="SourceAlpha" type="matrix" values="0 0 0 0 0 0 0 0 0 0 0 0 0 0 0 0 0 0 127 0" result="hardAlpha"/>
<feOffset dy="7.53125"/>
<feGaussianBlur stdDeviation="11.2969"/>
<feColorMatrix type="matrix" values="0 0 0 0 0 0 0 0 0 0 0 0 0 0 0 0 0 0 0.2 0"/>
<feBlend mode="normal" in2="BackgroundImageFix" result="effect1_dropShadow_3064_108130"/>
<feBlend mode="normal" in="SourceGraphic" in2="effect1_dropShadow_3064_108130" result="shape"/>
</filter>
<clipPath id="clip0_3064_108130">
<rect width="1490" height="838" fill="white"/>
</clipPath>
</defs>
</svg>
