<svg id="nksvg" width="1490" height="838" viewBox="0 0 1490 838" fill="none" xmlns="http://www.w3.org/2000/svg">
<path d="M0 0H1490V838H0V0Z" fill="var(--color-illustrationBackground020)"/>
<rect width="955.332" height="70.1316" rx="35.0658" transform="matrix(1 -0.000573496 0.00120477 0.999999 279.434 383.33)" fill="var(--color-illustrationInterface020)"/>
<rect width="548.613" height="70.1316" rx="35.0658" transform="matrix(1 -0.000485389 0.00142346 0.999999 255 383.344)" fill="var(--color-illustrationPalette020)"/>
<circle cx="744.816" cy="418.816" r="82.7476" transform="rotate(89.9524 744.816 418.816)" fill="var(--color-illustrationPalette030)"/>
<g >
<path fill-rule="evenodd" clip-rule="evenodd" d="M801.017 474.343L738.989 446.16L753.66 512.692L771.586 486.414L801.017 474.343Z" fill="var(--color-black)"/>
<path fill-rule="evenodd" clip-rule="evenodd" d="M836.873 570.678C830.896 574.934 823.584 577.437 815.688 577.437C795.495 577.437 779.125 561.068 779.125 540.875C779.125 532.978 781.628 525.667 785.885 519.69L836.873 570.678ZM845.49 562.06C849.747 556.083 852.25 548.772 852.25 540.875C852.25 520.682 835.88 504.313 815.687 504.313C807.791 504.313 800.479 506.816 794.502 511.072L845.49 562.06ZM815.688 589.625C842.611 589.625 864.438 567.799 864.438 540.875C864.438 513.951 842.611 492.125 815.688 492.125C788.764 492.125 766.938 513.951 766.938 540.875C766.938 567.799 788.764 589.625 815.688 589.625Z" fill="var(--color-black)"/>
<path d="M802.173 477.162L808.697 474.486L802.277 471.569L740.249 443.386L734.701 440.865L736.014 446.816L750.684 513.348L752.203 520.235L756.177 514.409L773.588 488.886L802.173 477.162ZM786.419 524.533L832.03 570.144C827.196 572.849 821.625 574.391 815.688 574.391C797.177 574.391 782.172 559.385 782.172 540.875C782.172 534.937 783.714 529.366 786.419 524.533ZM849.203 540.875C849.203 546.813 847.661 552.384 844.956 557.217L799.345 511.606C804.178 508.901 809.75 507.359 815.687 507.359C834.198 507.359 849.203 522.365 849.203 540.875ZM815.688 592.672C844.294 592.672 867.484 569.482 867.484 540.875C867.484 512.268 844.294 489.078 815.688 489.078C787.081 489.078 763.891 512.268 763.891 540.875C763.891 569.482 787.081 592.672 815.688 592.672Z" stroke="white" stroke-width="6.09375"/>
</g>
<defs>
<filter id="filter0_d_3064_108167" x="712.133" y="423.383" width="176.68" height="196.711" filterUnits="userSpaceOnUse" color-interpolation-filters="sRGB">
<feFlood flood-opacity="0" result="BackgroundImageFix"/>
<feColorMatrix in="SourceAlpha" type="matrix" values="0 0 0 0 0 0 0 0 0 0 0 0 0 0 0 0 0 0 127 0" result="hardAlpha"/>
<feOffset dy="6.09375"/>
<feGaussianBlur stdDeviation="9.14062"/>
<feColorMatrix type="matrix" values="0 0 0 0 0 0 0 0 0 0 0 0 0 0 0 0 0 0 0.25 0"/>
<feBlend mode="normal" in2="BackgroundImageFix" result="effect1_dropShadow_3064_108167"/>
<feBlend mode="normal" in="SourceGraphic" in2="effect1_dropShadow_3064_108167" result="shape"/>
</filter>
</defs>
</svg>
