<svg id="nksvg" width="1490" height="838" viewBox="0 0 1490 838" fill="none" xmlns="http://www.w3.org/2000/svg">
<path d="M0 0H1490V838H0V0Z" fill="var(--color-illustrationBackground020)"/>
<rect width="955.332" height="70.1316" rx="35.0658" transform="matrix(1 -0.000573496 0.00120477 0.999999 279.434 383.33)" fill="var(--color-illustrationInterface030)"/>
<rect width="548.613" height="70.1316" rx="35.0658" transform="matrix(1 -0.000485389 0.00142346 0.999999 255 383.344)" fill="var(--color-illustrationHighlight010)"/>
<path d="M744.885 501.564C699.185 501.602 662.107 464.585 662.069 418.885C662.031 373.185 699.047 336.107 744.748 336.069C790.448 336.031 827.526 373.047 827.564 418.748C827.602 464.448 790.585 501.526 744.885 501.564Z" fill="var(--color-illustrationPalette060)"/>
<path fill-rule="evenodd" clip-rule="evenodd" d="M734.077 500.873C737.615 501.332 741.222 501.567 744.885 501.564C748.548 501.561 752.155 501.32 755.692 500.855L757.775 516.719C753.554 517.273 749.255 517.56 744.899 517.564C740.542 517.567 736.243 517.288 732.021 516.74L734.077 500.873ZM776.555 495.258L782.696 510.033C790.73 506.693 798.221 502.328 805.006 497.105L795.246 484.426C789.556 488.806 783.28 492.463 776.555 495.258ZM810.51 469.137L823.205 478.876C828.417 472.081 832.77 464.583 836.096 456.544L821.311 450.427C818.527 457.157 814.881 463.439 810.51 469.137ZM826.874 429.555L842.741 431.612C843.288 427.39 843.568 423.091 843.564 418.734C843.56 414.377 843.274 410.079 842.719 405.857L826.856 407.94C827.32 411.477 827.561 415.084 827.564 418.747C827.567 422.41 827.332 426.018 826.874 429.555ZM821.259 387.078L836.033 380.937C832.694 372.903 828.329 365.412 823.105 358.626L810.426 368.386C814.807 374.076 818.464 380.353 821.259 387.078ZM795.137 353.122L804.876 340.427C798.082 335.215 790.584 330.862 782.544 327.536L776.428 342.321C783.157 345.105 789.44 348.751 795.137 353.122ZM755.556 336.759C752.018 336.3 748.411 336.065 744.748 336.068C741.085 336.071 737.477 336.312 733.941 336.777L731.858 320.913C736.079 320.359 740.378 320.072 744.734 320.068C749.091 320.065 753.39 320.344 757.612 320.892L755.556 336.759ZM713.078 342.374L706.937 327.599C698.903 330.938 691.412 335.304 684.627 340.527L694.386 353.206C700.077 348.826 706.353 345.169 713.078 342.374ZM679.123 368.495L666.428 358.756C661.216 365.551 656.863 373.049 653.537 381.088L668.321 387.205C671.105 380.475 674.752 374.193 679.123 368.495ZM662.759 408.077L646.892 406.02C646.345 410.242 646.065 414.541 646.069 418.898C646.072 423.255 646.359 427.553 646.913 431.775L662.777 429.692C662.313 426.155 662.072 422.548 662.069 418.885C662.066 415.222 662.301 411.614 662.759 408.077ZM668.374 450.554L653.6 456.695C656.939 464.729 661.304 472.22 666.528 479.006L679.206 469.246C674.826 463.556 671.169 457.279 668.374 450.554ZM694.496 484.51L684.757 497.205C691.551 502.417 699.049 506.77 707.089 510.096L713.205 495.311C706.476 492.527 700.193 488.881 694.496 484.51Z" fill="var(--color-illustrationHighlight010)"/>
</svg>
