<svg id="nksvg" width="1490" height="838" viewBox="0 0 1490 838" fill="none" xmlns="http://www.w3.org/2000/svg">
<g clip-path="url(#clip0_3064_108111)">
<path d="M0 0H1490V838H0V0Z" fill="var(--color-illustrationBackground020)"></path>
<rect width="955.332" height="70.1316" rx="35.0658" transform="matrix(1 -0.000573496 0.00120477 0.999999 279.434 383.33)" fill="var(--color-illustrationInterface030)"></rect>
<rect width="548.613" height="70.1316" rx="35.0658" transform="matrix(1 -0.000485389 0.00142346 0.999999 255 383.344)" fill="var(--color-illustrationHighlight010)"></rect>
<path d="M612 418C612 344.546 671.546 285 745 285V285C818.454 285 878 344.546 878 418V418C878 491.454 818.454 551 745 551V551C671.546 551 612 491.454 612 418V418Z" fill="var(--color-illustrationInterface020)"></path>
<circle cx="744.816" cy="418.816" r="82.7476" transform="rotate(89.9524 744.816 418.816)" fill="var(--color-illustrationPalette080)"></circle>
<path fill-rule="evenodd" clip-rule="evenodd" d="M734.177 523L727.472 512.755C722.894 505.76 713.142 503.208 705.682 507.043L707.42 506.149C705.569 507.101 704.682 509.473 705.444 511.445L714.725 535.458C716.196 539.265 719.954 544.649 723.068 547.353C723.068 547.353 741.739 562.808 741.739 568.602V575.937H794.677V568.602C794.677 562.808 806.088 544.558 806.088 544.558C808.188 541.011 809.939 534.761 809.939 530.612V500.099C809.802 493.343 804.059 487.868 796.974 487.868C793.429 487.868 790.558 490.606 790.558 493.986V496.429C790.558 489.674 784.815 484.199 777.73 484.199C774.185 484.199 771.314 486.936 771.314 490.316V492.76C771.314 486.004 765.571 480.529 758.485 480.529C754.941 480.529 752.069 483.267 752.069 486.646V489.09C752.069 488.005 751.953 487.142 751.729 486.458L749.772 454.946C749.508 450.685 745.916 447.375 741.739 447.375C737.534 447.375 734.177 450.76 734.177 454.936V523Z" fill="white"></path>
<path fill-rule="evenodd" clip-rule="evenodd" d="M707.476 506.256C713.48 504.059 720.502 505.581 725.102 509.926C725.99 510.766 726.789 511.711 727.472 512.755L734.177 523V454.936C734.177 450.76 737.534 447.375 741.739 447.375C745.916 447.375 749.508 450.685 749.772 454.946L751.729 486.458C751.749 486.519 751.768 486.581 751.787 486.646C751.973 487.298 752.069 488.102 752.069 489.09V486.646C752.069 486.576 752.071 486.505 752.073 486.435C752.074 486.404 752.075 486.374 752.077 486.343C752.242 483.104 755.047 480.529 758.485 480.529C759.158 480.529 759.818 480.578 760.462 480.673C761.981 480.897 763.412 481.375 764.706 482.06C767.93 483.767 770.302 486.761 771.057 490.315C771.225 491.105 771.314 491.923 771.314 492.76V490.316C771.314 486.936 774.185 484.199 777.73 484.199C778.015 484.199 778.297 484.207 778.577 484.224C780.518 484.345 782.34 484.877 783.95 485.729C787.175 487.437 789.546 490.431 790.302 493.985C790.469 494.774 790.558 495.592 790.558 496.429V493.986C790.558 490.606 793.429 487.868 796.974 487.868C797.259 487.868 797.541 487.876 797.822 487.894C804.512 488.31 809.807 493.615 809.939 500.099V530.612C809.939 534.761 808.188 541.011 806.088 544.558C806.088 544.558 794.677 562.808 794.677 568.602V575.937H741.739V568.602C741.739 562.808 723.068 547.353 723.068 547.353C719.954 544.649 716.196 539.265 714.725 535.458L705.444 511.445C704.935 510.129 705.161 508.633 705.919 507.502C706.177 507.116 706.497 506.772 706.871 506.492C707.072 506.409 707.273 506.331 707.476 506.256ZM705.682 507.043C706.073 506.842 706.469 506.658 706.871 506.492C707.043 506.363 707.227 506.249 707.42 506.149L705.682 507.043ZM701.6 499.101C696.742 502.608 694.813 509.113 696.979 514.716L706.26 538.729C708.259 543.901 712.874 550.519 717.117 554.204L717.199 554.275L717.28 554.342L717.282 554.343L717.314 554.371L717.449 554.483C717.57 554.585 717.755 554.74 717.993 554.943C718.471 555.348 719.161 555.941 719.992 556.672C721.665 558.143 723.866 560.137 726.042 562.276C728.259 564.454 730.259 566.598 731.643 568.388C732.119 569.003 732.449 569.484 732.664 569.831V585.011H803.752V568.756C803.752 568.794 803.754 568.814 803.759 568.814C803.79 568.819 803.957 567.966 804.816 565.939C805.727 563.788 807.004 561.245 808.369 558.716C809.718 556.215 811.078 553.865 812.107 552.133C812.62 551.27 813.045 550.568 813.34 550.086C813.487 549.846 813.601 549.66 813.677 549.538L813.76 549.403L813.782 549.368L813.84 549.275L813.896 549.181C815.481 546.504 816.71 543.246 817.546 540.235C818.379 537.23 819.014 533.774 819.014 530.611V500.006L819.012 499.914C818.769 487.928 808.703 478.793 796.974 478.793C795.052 478.793 793.175 479.149 791.428 479.809C787.62 476.852 782.814 475.123 777.729 475.123C775.808 475.123 773.931 475.479 772.184 476.139C768.729 473.457 764.453 471.785 759.893 471.498L758.83 454.383C758.266 445.305 750.677 438.299 741.739 438.299C732.5 438.299 725.102 445.768 725.102 454.935V498.987C718.42 495.66 710.38 495.186 703.306 498.146M732.972 570.394C732.97 570.394 732.954 570.361 732.93 570.298C732.962 570.364 732.974 570.395 732.972 570.394ZM701.6 499.101L701.533 498.971L703.271 498.077" fill="#0A0A0A"></path>
</g>
<defs>
<clipPath id="clip0_3064_108111">
<rect width="1490" height="838" fill="white"></rect>
</clipPath>
</defs>
</svg>
